<?xml version="1.0" encoding="UTF-8"?>
<svg xmlns="http://www.w3.org/2000/svg" xmlns:xlink="http://www.w3.org/1999/xlink" width="7.679805" height="24" viewBox="0 0 7.679805 24">
<path fill-rule="nonzero" fill="rgb(100%, 100%, 100%)" fill-opacity="1" stroke-width="41.490101" stroke-linecap="butt" stroke-linejoin="miter" stroke="rgb(0%, 0%, 0%)" stroke-opacity="1" stroke-miterlimit="4" d="M 20.79835 -36.34242 L 477.493994 -36.34242 L 477.493994 700.655878 L 20.79835 700.655878 Z M 20.79835 -36.34242 " transform="matrix(0.015413, 0, 0, 0.015413, -0.000253034, 0.880459)"/>
<path fill-rule="nonzero" fill="rgb(0%, 0%, 0%)" fill-opacity="1" d="M 0.640625 0.640625 L 3.839844 6 L 6.796875 1.050781 L 7.039062 0.640625 L 5.175781 0.640625 L 3.839844 2.878906 L 2.503906 0.640625 Z M 0.640625 0.640625 "/>
<path fill-rule="nonzero" fill="rgb(0%, 0%, 0%)" fill-opacity="1" d="M 7.039062 11.359375 L 3.839844 6 L 0.882812 10.949219 L 0.640625 11.359375 L 2.503906 11.359375 L 3.839844 9.121094 L 5.175781 11.359375 Z M 7.039062 11.359375 "/>
<path fill-rule="nonzero" fill="rgb(100%, 100%, 100%)" fill-opacity="1" stroke-width="41.490101" stroke-linecap="butt" stroke-linejoin="miter" stroke="rgb(0%, 0%, 0%)" stroke-opacity="1" stroke-miterlimit="4" d="M 20.79835 742.219743 L 477.493994 742.219743 L 477.493994 1479.218041 L 20.79835 1479.218041 Z M 20.79835 742.219743 " transform="matrix(0.015413, 0, 0, 0.015413, -0.000253034, 0.880459)"/>
<path fill-rule="nonzero" fill="rgb(0%, 0%, 0%)" fill-opacity="1" d="M 0.640625 12.640625 L 3.839844 18 L 6.796875 13.050781 L 7.039062 12.640625 L 5.175781 12.640625 L 3.839844 14.878906 L 2.503906 12.640625 Z M 0.640625 12.640625 "/>
<path fill-rule="nonzero" fill="rgb(0%, 0%, 0%)" fill-opacity="1" d="M 7.039062 23.359375 L 3.839844 18 L 0.882812 22.949219 L 0.640625 23.359375 L 2.503906 23.359375 L 3.839844 21.121094 L 5.175781 23.359375 Z M 7.039062 23.359375 "/>
</svg>
