<?xml version="1.0" encoding="UTF-8"?>
<svg xmlns="http://www.w3.org/2000/svg" xmlns:xlink="http://www.w3.org/1999/xlink" width="17.174836" height="15" viewBox="0 0 17.174836 15">
<path fill-rule="nonzero" fill="rgb(100%, 100%, 0%)" fill-opacity="1" stroke-width="14.258254" stroke-linecap="round" stroke-linejoin="round" stroke="rgb(96.862745%, 96.862745%, 96.862745%)" stroke-opacity="1" stroke-miterlimit="4" d="M 272.979483 814.255589 L 7.153417 814.255589 L 140.513539 1045.208751 L 273.682051 814.574938 " transform="matrix(0.0611596, 0, 0, 0.0611596, 0, -49.362036)"/>
<path fill-rule="nonzero" fill="rgb(0%, 0%, 0%)" fill-opacity="1" d="M 6.660156 3.640625 C 6.660156 3.640625 7.359375 3.640625 7.710938 3.640625 C 7.710938 2.289062 9.632812 2.308594 9.632812 3.640625 C 9.632812 4.777344 9.015625 4.964844 8.109375 4.964844 C 8.109375 5.195312 8.128906 5.445312 8.128906 5.738281 C 9.609375 5.738281 9.613281 6.210938 9.613281 7.132812 C 9.613281 8.546875 7.449219 8.542969 7.449219 7.132812 C 6.914062 7.132812 6.421875 7.132812 6.421875 7.132812 C 6.421875 7.132812 6.0625 9.15625 8.550781 9.15625 C 9.894531 9.15625 10.679688 8.429688 10.679688 7.132812 C 10.679688 4.539062 10.679688 6.640625 10.679688 6.261719 C 10.679688 5.753906 10.230469 5.414062 9.960938 5.257812 C 10.300781 5.0625 10.679688 4.820312 10.679688 4.210938 C 10.679688 3.3125 10.679688 4.972656 10.679688 3.554688 C 10.679688 1.414062 6.660156 0.824219 6.660156 3.640625 Z M 6.660156 3.640625 "/>
</svg>
