<?xml version="1.0" encoding="UTF-8"?>
<svg xmlns="http://www.w3.org/2000/svg" xmlns:xlink="http://www.w3.org/1999/xlink" width="17.174836" height="15" viewBox="0 0 17.174836 15">
<path fill-rule="nonzero" fill="rgb(100%, 100%, 0%)" fill-opacity="1" stroke-width="14.258254" stroke-linecap="round" stroke-linejoin="round" stroke="rgb(98.431373%, 99.607843%, 87.450981%)" stroke-opacity="1" stroke-miterlimit="4" d="M 272.979483 814.255589 L 7.153417 814.255589 L 140.513539 1045.208751 L 273.682051 814.574938 " transform="matrix(0.0611596, 0, 0, 0.0611596, 0, -49.362036)"/>
<path fill-rule="nonzero" fill="rgb(0%, 0%, 0%)" fill-opacity="1" d="M 8.941406 2.136719 C 8.941406 2.136719 7.4375 4.871094 6.707031 6.25 C 6.023438 7.539062 6.902344 9.492188 8.480469 9.546875 C 10.351562 9.613281 10.746094 8.300781 10.734375 7.117188 C 10.722656 5.75 9.46875 4.804688 8.46875 5.179688 C 9.597656 3.222656 10.078125 2.179688 10.078125 2.179688 Z M 8.667969 6.054688 C 9.328125 6.054688 9.675781 6.601562 9.675781 7.257812 C 9.675781 7.917969 9.328125 8.4375 8.667969 8.4375 C 8.011719 8.4375 7.585938 7.960938 7.585938 7.300781 C 7.585938 6.644531 8.011719 6.054688 8.667969 6.054688 Z M 8.667969 6.054688 "/>
</svg>
