<?xml version="1.0" encoding="UTF-8"?>
<svg xmlns="http://www.w3.org/2000/svg" xmlns:xlink="http://www.w3.org/1999/xlink" width="16" height="16" viewBox="0 0 16 16">
<path fill-rule="nonzero" fill="rgb(0%, 0%, 0%)" fill-opacity="1" stroke-width="1" stroke-linecap="round" stroke-linejoin="miter" stroke="rgb(0%, 0%, 0%)" stroke-opacity="1" stroke-miterlimit="4" d="M 0.498916 0.498916 L 15.719825 0.498916 L 15.719825 15.719825 L 0.498916 15.719825 Z M 0.498916 0.498916 " transform="matrix(0.986513, 0, 0, 0.986513, 0, 0)"/>
<path fill-rule="nonzero" fill="rgb(100%, 79.607843%, 0%)" fill-opacity="1" d="M 7.78125 6.617188 C 8.945312 6.617188 9.875 6.914062 10.5625 7.507812 C 11.257812 8.09375 11.609375 8.921875 11.609375 9.992188 C 11.609375 11.171875 11.234375 12.097656 10.484375 12.773438 C 9.734375 13.453125 8.6875 13.789062 7.34375 13.789062 C 6.757812 13.789062 6.207031 13.734375 5.6875 13.632812 C 5.164062 13.53125 4.734375 13.375 4.390625 13.164062 L 4.390625 11.835938 C 4.765625 12.078125 5.226562 12.265625 5.78125 12.398438 C 6.332031 12.523438 6.859375 12.585938 7.359375 12.585938 C 8.203125 12.585938 8.878906 12.390625 9.390625 11.992188 C 9.910156 11.597656 10.171875 10.976562 10.171875 10.132812 C 10.171875 9.382812 9.941406 8.8125 9.484375 8.414062 C 9.023438 8.007812 8.300781 7.804688 7.3125 7.804688 C 7.007812 7.804688 6.664062 7.835938 6.28125 7.898438 C 5.90625 7.953125 5.597656 8.003906 5.359375 8.054688 L 4.65625 7.601562 L 5.09375 2.210938 L 10.8125 2.210938 L 10.8125 3.492188 L 6.28125 3.492188 L 6.015625 6.804688 C 6.191406 6.773438 6.4375 6.738281 6.75 6.695312 C 7.0625 6.644531 7.40625 6.617188 7.78125 6.617188 Z M 3.375 -3.472656 "/>
</svg>
