<?xml version="1.0" encoding="UTF-8"?>
<svg xmlns="http://www.w3.org/2000/svg" xmlns:xlink="http://www.w3.org/1999/xlink" width="16" height="16" viewBox="0 0 16 16">
<path fill-rule="nonzero" fill="rgb(0%, 0%, 0%)" fill-opacity="1" stroke-width="1" stroke-linecap="round" stroke-linejoin="miter" stroke="rgb(0%, 0%, 0%)" stroke-opacity="1" stroke-miterlimit="4" d="M 0.498916 0.498916 L 15.719825 0.498916 L 15.719825 15.719825 L 0.498916 15.719825 Z M 0.498916 0.498916 " transform="matrix(0.986513, 0, 0, 0.986513, 0, 0)"/>
<path fill-rule="nonzero" fill="rgb(100%, 79.607843%, 0%)" fill-opacity="1" d="M 7.996094 2.132812 C 8.996094 2.132812 9.8125 2.367188 10.449219 2.835938 C 11.09375 3.304688 11.417969 3.984375 11.417969 4.867188 C 11.417969 5.328125 11.316406 5.726562 11.121094 6.070312 C 10.921875 6.40625 10.65625 6.703125 10.324219 6.960938 C 10 7.222656 9.640625 7.457031 9.246094 7.664062 C 9.714844 7.882812 10.136719 8.140625 10.511719 8.429688 C 10.894531 8.710938 11.203125 9.039062 11.433594 9.414062 C 11.671875 9.78125 11.792969 10.226562 11.792969 10.757812 C 11.792969 11.71875 11.449219 12.476562 10.761719 13.039062 C 10.082031 13.59375 9.175781 13.867188 8.042969 13.867188 C 6.8125 13.867188 5.863281 13.601562 5.199219 13.070312 C 4.542969 12.53125 4.214844 11.773438 4.214844 10.804688 C 4.214844 10.273438 4.324219 9.820312 4.542969 9.445312 C 4.761719 9.0625 5.050781 8.726562 5.417969 8.445312 C 5.78125 8.164062 6.171875 7.929688 6.589844 7.742188 C 6.027344 7.421875 5.550781 7.035156 5.167969 6.585938 C 4.78125 6.128906 4.589844 5.550781 4.589844 4.851562 C 4.589844 4.257812 4.734375 3.765625 5.027344 3.367188 C 5.328125 2.972656 5.734375 2.671875 6.246094 2.460938 C 6.753906 2.242188 7.339844 2.132812 7.996094 2.132812 Z M 7.980469 3.257812 C 7.386719 3.257812 6.902344 3.40625 6.527344 3.695312 C 6.152344 3.976562 5.964844 4.382812 5.964844 4.914062 C 5.964844 5.3125 6.058594 5.644531 6.246094 5.914062 C 6.433594 6.175781 6.683594 6.398438 6.996094 6.585938 C 7.316406 6.773438 7.671875 6.953125 8.058594 7.117188 C 8.609375 6.890625 9.074219 6.609375 9.449219 6.273438 C 9.832031 5.941406 10.027344 5.488281 10.027344 4.914062 C 10.027344 4.382812 9.839844 3.976562 9.464844 3.695312 C 9.089844 3.40625 8.59375 3.257812 7.980469 3.257812 Z M 5.589844 10.820312 C 5.589844 11.375 5.785156 11.835938 6.183594 12.210938 C 6.578125 12.578125 7.1875 12.757812 8.011719 12.757812 C 8.792969 12.757812 9.386719 12.578125 9.792969 12.210938 C 10.199219 11.835938 10.402344 11.359375 10.402344 10.773438 C 10.402344 10.210938 10.183594 9.75 9.746094 9.382812 C 9.308594 9.019531 8.730469 8.695312 8.011719 8.414062 L 7.746094 8.320312 C 7.046875 8.625 6.511719 8.96875 6.136719 9.351562 C 5.769531 9.738281 5.589844 10.226562 5.589844 10.820312 Z M 3.433594 -3.390625 "/>
</svg>
