<?xml version="1.0" encoding="UTF-8"?>
<svg xmlns="http://www.w3.org/2000/svg" xmlns:xlink="http://www.w3.org/1999/xlink" width="16" height="16" viewBox="0 0 16 16">
<path fill-rule="nonzero" fill="rgb(0%, 0%, 0%)" fill-opacity="1" stroke-width="1" stroke-linecap="round" stroke-linejoin="miter" stroke="rgb(0%, 0%, 0%)" stroke-opacity="1" stroke-miterlimit="4" d="M 0.498916 0.498916 L 15.719825 0.498916 L 15.719825 15.719825 L 0.498916 15.719825 Z M 0.498916 0.498916 " transform="matrix(0.986513, 0, 0, 0.986513, 0, 0)"/>
<path fill-rule="nonzero" fill="rgb(100%, 79.607843%, 0%)" fill-opacity="1" d="M 12.242188 11.148438 L 10.585938 11.148438 L 10.585938 13.742188 L 9.226562 13.742188 L 9.226562 11.148438 L 3.757812 11.148438 L 3.757812 9.945312 L 9.132812 2.257812 L 10.585938 2.257812 L 10.585938 9.882812 L 12.242188 9.882812 Z M 9.226562 6.289062 C 9.226562 5.738281 9.234375 5.269531 9.257812 4.882812 C 9.277344 4.488281 9.292969 4.113281 9.304688 3.757812 L 9.242188 3.757812 C 9.15625 3.957031 9.046875 4.175781 8.914062 4.414062 C 8.789062 4.65625 8.667969 4.851562 8.554688 5.007812 L 5.132812 9.882812 L 9.226562 9.882812 Z M 3.414062 -3.359375 "/>
</svg>
