<?xml version="1.0" encoding="UTF-8"?>
<svg xmlns="http://www.w3.org/2000/svg" xmlns:xlink="http://www.w3.org/1999/xlink" width="16" height="16" viewBox="0 0 16 16">
<path fill-rule="nonzero" fill="rgb(0%, 0%, 0%)" fill-opacity="1" stroke-width="1" stroke-linecap="round" stroke-linejoin="miter" stroke="rgb(0%, 0%, 0%)" stroke-opacity="1" stroke-miterlimit="4" d="M 0.498916 0.498916 L 15.719825 0.498916 L 15.719825 15.719825 L 0.498916 15.719825 Z M 0.498916 0.498916 " transform="matrix(0.986513, 0, 0, 0.986513, 0, 0)"/>
<path fill-rule="nonzero" fill="rgb(100%, 100%, 100%)" fill-opacity="1" d="M 11.726562 7.195312 C 11.726562 8.019531 11.652344 8.832031 11.507812 9.632812 C 11.371094 10.425781 11.109375 11.144531 10.726562 11.789062 C 10.351562 12.4375 9.820312 12.953125 9.132812 13.335938 C 8.445312 13.710938 7.5625 13.898438 6.492188 13.898438 C 6.273438 13.898438 6.023438 13.882812 5.742188 13.851562 C 5.460938 13.828125 5.226562 13.792969 5.039062 13.742188 L 5.039062 12.539062 C 5.453125 12.6875 5.929688 12.757812 6.460938 12.757812 C 7.199219 12.757812 7.808594 12.632812 8.289062 12.382812 C 8.777344 12.132812 9.167969 11.800781 9.460938 11.382812 C 9.75 10.96875 9.960938 10.476562 10.085938 9.914062 C 10.210938 9.351562 10.28125 8.765625 10.304688 8.148438 L 10.210938 8.148438 C 9.980469 8.503906 9.640625 8.816406 9.195312 9.085938 C 8.757812 9.347656 8.1875 9.476562 7.492188 9.476562 C 6.511719 9.476562 5.71875 9.175781 5.117188 8.570312 C 4.511719 7.96875 4.210938 7.113281 4.210938 6.007812 C 4.210938 5.21875 4.359375 4.535156 4.664062 3.960938 C 4.976562 3.378906 5.402344 2.9375 5.945312 2.632812 C 6.484375 2.320312 7.125 2.164062 7.867188 2.164062 C 8.585938 2.164062 9.234375 2.347656 9.820312 2.710938 C 10.414062 3.078125 10.875 3.632812 11.210938 4.382812 C 11.554688 5.125 11.726562 6.0625 11.726562 7.195312 Z M 7.867188 3.335938 C 7.199219 3.335938 6.652344 3.554688 6.226562 3.992188 C 5.808594 4.429688 5.601562 5.097656 5.601562 5.992188 C 5.601562 6.734375 5.777344 7.316406 6.132812 7.742188 C 6.496094 8.160156 7.054688 8.367188 7.804688 8.367188 C 8.3125 8.367188 8.75 8.265625 9.117188 8.054688 C 9.492188 7.847656 9.78125 7.585938 9.992188 7.273438 C 10.199219 6.953125 10.304688 6.617188 10.304688 6.273438 C 10.304688 5.816406 10.214844 5.363281 10.039062 4.914062 C 9.859375 4.46875 9.589844 4.09375 9.226562 3.789062 C 8.859375 3.488281 8.40625 3.335938 7.867188 3.335938 Z M 3.414062 -3.359375 "/>
</svg>
