<?xml version="1.0" encoding="UTF-8"?>
<svg xmlns="http://www.w3.org/2000/svg" xmlns:xlink="http://www.w3.org/1999/xlink" width="24.996469" height="12" viewBox="0 0 24.996469 12">
<path fill-rule="evenodd" fill="rgb(0%, 0%, 0%)" fill-opacity="1" d="M 0 0 L 24.996094 0 L 24.996094 12 L 0 12 Z M 0 0 "/>
<path fill-rule="evenodd" fill="rgb(100%, 100%, 100%)" fill-opacity="1" d="M 8.019531 9.949219 C 8.019531 9.714844 7.820312 9.503906 7.585938 9.503906 L 5.835938 9.503906 C 5.417969 9.503906 5.074219 9.347656 4.851562 9.109375 C 4.585938 8.820312 4.523438 8.570312 4.523438 8.1875 L 4.523438 3.8125 C 4.523438 3.402344 4.628906 3.113281 4.941406 2.824219 C 5.207031 2.589844 5.46875 2.496094 5.835938 2.496094 L 7.585938 2.496094 C 7.820312 2.496094 8.019531 2.300781 8.019531 2.0625 C 8.019531 1.824219 7.820312 1.617188 7.585938 1.617188 L 5.835938 1.617188 C 5.257812 1.617188 4.785156 1.800781 4.417969 2.089844 C 3.96875 2.445312 3.640625 3.089844 3.640625 3.8125 L 3.640625 8.1875 C 3.640625 8.820312 3.8125 9.265625 4.179688 9.6875 C 4.546875 10.109375 5.140625 10.382812 5.835938 10.382812 L 7.585938 10.382812 C 7.820312 10.382812 8.019531 10.1875 8.019531 9.949219 Z M 15.261719 9.84375 L 12.59375 1.878906 C 12.527344 1.707031 12.398438 1.617188 12.210938 1.617188 C 12.003906 1.617188 11.84375 1.722656 11.777344 1.90625 L 9.136719 9.792969 C 9.058594 10.054688 9.230469 10.382812 9.558594 10.382812 C 9.832031 10.382812 9.914062 10.265625 9.976562 10.070312 L 10.753906 7.753906 L 13.632812 7.753906 L 14.394531 10.070312 C 14.449219 10.265625 14.617188 10.382812 14.816406 10.382812 C 15.078125 10.382812 15.339844 10.09375 15.261719 9.84375 Z M 13.34375 6.875 L 11.042969 6.875 L 12.210938 3.402344 Z M 21.351562 7.769531 C 21.402344 6.757812 21.074219 6.03125 20.285156 5.390625 C 20.730469 4.914062 20.914062 4.46875 20.914062 3.8125 C 20.914062 2.71875 20.257812 1.617188 19.152344 1.617188 L 16.523438 1.617188 C 16.394531 1.617188 16.316406 1.65625 16.222656 1.746094 C 16.128906 1.851562 16.089844 1.929688 16.089844 2.0625 L 16.089844 9.949219 C 16.089844 10.082031 16.089844 10.1875 16.195312 10.292969 C 16.289062 10.382812 16.394531 10.382812 16.523438 10.382812 L 19.152344 10.382812 C 20.480469 10.382812 21.285156 9.097656 21.351562 7.769531 Z M 20.035156 3.8125 C 20.035156 4.429688 19.773438 5.125 19.152344 5.125 L 16.972656 5.125 L 16.972656 2.496094 L 19.152344 2.496094 C 19.773438 2.496094 20.035156 3.191406 20.035156 3.8125 Z M 20.46875 7.753906 C 20.46875 8.609375 20.023438 9.503906 19.152344 9.503906 L 16.972656 9.503906 L 16.972656 6.007812 L 19.152344 6.007812 C 20.023438 6.007812 20.46875 6.902344 20.46875 7.753906 Z M 20.46875 7.753906 "/>
</svg>
