<?xml version="1.0" encoding="UTF-8"?>
<svg xmlns="http://www.w3.org/2000/svg" xmlns:xlink="http://www.w3.org/1999/xlink" width="16.2" height="12" viewBox="0 0 16.2 12">
<path fill-rule="evenodd" fill="rgb(0%, 0%, 0%)" fill-opacity="1" d="M 0 0 L 16.199219 0 L 16.199219 12 L 0 12 Z M 0 0 "/>
<path fill-rule="nonzero" fill="rgb(100%, 100%, 100%)" fill-opacity="1" d="M 7.351562 8.449219 L 8.335938 8.449219 L 8.335938 9.679688 L 7.351562 9.679688 Z M 8.304688 7.738281 L 7.382812 7.738281 L 7.382812 6.992188 C 7.382812 6.667969 7.425781 6.398438 7.515625 6.1875 C 7.605469 5.980469 7.796875 5.734375 8.089844 5.457031 L 8.523438 5.027344 C 8.707031 4.855469 8.839844 4.695312 8.921875 4.542969 C 9.003906 4.390625 9.046875 4.238281 9.046875 4.078125 C 9.046875 3.792969 8.941406 3.558594 8.726562 3.382812 C 8.515625 3.203125 8.238281 3.117188 7.890625 3.117188 C 7.632812 3.117188 7.363281 3.171875 7.070312 3.285156 C 6.785156 3.398438 6.484375 3.5625 6.171875 3.777344 L 6.171875 2.867188 C 6.472656 2.683594 6.78125 2.546875 7.089844 2.457031 C 7.402344 2.367188 7.726562 2.320312 8.058594 2.320312 C 8.652344 2.320312 9.128906 2.476562 9.488281 2.789062 C 9.847656 3.105469 10.027344 3.515625 10.027344 4.03125 C 10.027344 4.273438 9.972656 4.507812 9.855469 4.730469 C 9.738281 4.953125 9.535156 5.199219 9.246094 5.476562 L 8.820312 5.894531 C 8.667969 6.046875 8.558594 6.164062 8.496094 6.25 C 8.433594 6.335938 8.390625 6.417969 8.363281 6.5 C 8.34375 6.566406 8.328125 6.648438 8.320312 6.746094 C 8.308594 6.84375 8.304688 6.972656 8.304688 7.140625 Z M 8.304688 7.738281 "/>
</svg>
