<?xml version="1.0" encoding="UTF-8"?>
<svg xmlns="http://www.w3.org/2000/svg" xmlns:xlink="http://www.w3.org/1999/xlink" width="28" height="10.000003" viewBox="0 0 28 10.000003">
<path fill-rule="nonzero" fill="rgb(100%, 79.215686%, 0%)" fill-opacity="1" d="M 0.800781 0 L 27.199219 0 C 27.640625 0 28 0.359375 28 0.800781 L 28 9.199219 C 28 9.640625 27.640625 10 27.199219 10 L 0.800781 10 C 0.359375 10 0 9.640625 0 9.199219 L 0 0.800781 C 0 0.359375 0.359375 0 0.800781 0 Z M 0.800781 0 "/>
<path fill-rule="nonzero" fill="rgb(0%, 0%, 100%)" fill-opacity="1" d="M 6.082031 8.289062 C 6.082031 8.09375 5.921875 7.917969 5.726562 7.917969 L 3.210938 7.917969 L 3.210938 5.003906 L 5.371094 5.003906 C 5.566406 5.003906 5.726562 4.839844 5.726562 4.632812 C 5.726562 4.4375 5.566406 4.273438 5.359375 4.273438 L 3.210938 4.273438 L 3.210938 2.082031 L 5.726562 2.082031 C 5.921875 2.082031 6.082031 1.917969 6.082031 1.722656 C 6.082031 1.523438 5.921875 1.347656 5.726562 1.347656 L 2.84375 1.347656 C 2.738281 1.347656 2.660156 1.359375 2.585938 1.4375 C 2.5 1.511719 2.488281 1.601562 2.488281 1.722656 L 2.488281 8.289062 C 2.488281 8.398438 2.511719 8.476562 2.585938 8.550781 C 2.671875 8.640625 2.738281 8.652344 2.84375 8.652344 L 5.757812 8.652344 C 5.953125 8.652344 6.082031 8.476562 6.082031 8.289062 Z M 11.308594 1.722656 C 11.308594 1.523438 11.144531 1.347656 10.949219 1.347656 L 7.347656 1.347656 C 7.152344 1.347656 6.988281 1.523438 6.988281 1.722656 C 6.988281 1.917969 7.152344 2.082031 7.347656 2.082031 L 8.792969 2.082031 L 8.792969 8.289062 C 8.792969 8.488281 8.953125 8.652344 9.148438 8.652344 C 9.34375 8.652344 9.503906 8.488281 9.503906 8.289062 L 9.503906 2.082031 L 10.949219 2.082031 C 11.144531 2.082031 11.308594 1.917969 11.308594 1.722656 Z M 15.796875 8.289062 C 15.796875 8.09375 15.636719 7.917969 15.441406 7.917969 L 14.003906 7.917969 C 13.660156 7.917969 13.378906 7.785156 13.195312 7.589844 C 12.980469 7.347656 12.925781 7.140625 12.925781 6.824219 L 12.925781 3.175781 C 12.925781 2.839844 13.011719 2.597656 13.269531 2.355469 C 13.488281 2.160156 13.703125 2.082031 14.003906 2.082031 L 15.441406 2.082031 C 15.636719 2.082031 15.796875 1.917969 15.796875 1.722656 C 15.796875 1.523438 15.636719 1.347656 15.441406 1.347656 L 14.003906 1.347656 C 13.53125 1.347656 13.140625 1.503906 12.839844 1.742188 C 12.472656 2.039062 12.203125 2.574219 12.203125 3.175781 L 12.203125 6.824219 C 12.203125 7.347656 12.34375 7.71875 12.644531 8.070312 C 12.949219 8.421875 13.433594 8.652344 14.003906 8.652344 L 15.441406 8.652344 C 15.636719 8.652344 15.796875 8.488281 15.796875 8.289062 Z M 21.019531 6.824219 C 21.03125 6.199219 20.75 5.75 20.253906 5.410156 L 17.824219 3.953125 C 17.566406 3.746094 17.425781 3.515625 17.425781 3.175781 C 17.414062 2.488281 18.140625 2.0625 18.863281 2.082031 C 19.78125 2.105469 19.867188 2.246094 20.339844 2.433594 C 20.480469 2.488281 20.835938 2.421875 20.835938 2.082031 C 20.835938 1.941406 20.773438 1.832031 20.652344 1.765625 C 20.113281 1.4375 19.574219 1.359375 18.863281 1.347656 C 17.621094 1.339844 16.703125 2.070312 16.703125 3.175781 C 16.703125 3.636719 16.800781 4.109375 17.425781 4.566406 L 19.886719 6.035156 C 20.15625 6.242188 20.296875 6.472656 20.296875 6.824219 C 20.296875 7.535156 19.5625 7.929688 18.863281 7.917969 C 18.203125 7.917969 17.382812 7.65625 17.199219 7.589844 C 16.929688 7.492188 16.703125 7.6875 16.703125 7.917969 C 16.703125 8.070312 16.757812 8.191406 16.910156 8.246094 C 17.640625 8.488281 18.097656 8.664062 18.863281 8.652344 C 19.953125 8.640625 21.011719 8.027344 21.019531 6.824219 Z M 25.511719 8.289062 C 25.511719 8.09375 25.347656 7.917969 25.15625 7.917969 L 22.921875 7.917969 L 25.25 4.152344 C 25.445312 3.824219 25.511719 3.5625 25.511719 3.175781 C 25.53125 2.082031 24.710938 1.394531 23.71875 1.347656 C 22.929688 1.328125 22.390625 1.6875 21.96875 2.378906 C 21.882812 2.53125 21.839844 2.957031 22.273438 2.992188 C 22.402344 2.992188 22.511719 2.949219 22.574219 2.828125 C 22.855469 2.324219 23.113281 2.070312 23.71875 2.082031 C 24.464844 2.09375 24.789062 2.574219 24.796875 3.175781 C 24.796875 3.40625 24.765625 3.539062 24.648438 3.757812 L 21.96875 8.070312 C 21.925781 8.148438 21.917969 8.203125 21.917969 8.289062 C 21.925781 8.488281 22.078125 8.640625 22.273438 8.652344 L 25.15625 8.652344 C 25.347656 8.652344 25.511719 8.488281 25.511719 8.289062 Z M 25.511719 8.289062 "/>
</svg>
