<?xml version="1.0" encoding="UTF-8"?>
<svg xmlns="http://www.w3.org/2000/svg" xmlns:xlink="http://www.w3.org/1999/xlink" width="28" height="10.000002" viewBox="0 0 28 10.000002">
<path fill-rule="nonzero" fill="rgb(100%, 100%, 100%)" fill-opacity="1" d="M 0.800781 0 L 27.199219 0 C 27.644531 0 28 0.355469 28 0.800781 L 28 9.199219 C 28 9.644531 27.644531 10 27.199219 10 L 0.800781 10 C 0.355469 10 0 9.644531 0 9.199219 L 0 0.800781 C 0 0.355469 0.355469 0 0.800781 0 Z M 0.800781 0 "/>
<path fill-rule="nonzero" fill="rgb(0%, 0%, 0%)" fill-opacity="1" d="M 8.328125 8.289062 C 8.328125 8.09375 8.167969 7.917969 7.972656 7.917969 L 5.457031 7.917969 L 5.457031 5.003906 L 7.617188 5.003906 C 7.808594 5.003906 7.972656 4.839844 7.972656 4.632812 C 7.972656 4.4375 7.808594 4.273438 7.605469 4.273438 L 5.457031 4.273438 L 5.457031 2.082031 L 7.972656 2.082031 C 8.167969 2.082031 8.328125 1.917969 8.328125 1.722656 C 8.328125 1.523438 8.167969 1.347656 7.972656 1.347656 L 5.089844 1.347656 C 4.980469 1.347656 4.90625 1.359375 4.832031 1.4375 C 4.746094 1.511719 4.734375 1.601562 4.734375 1.722656 L 4.734375 8.289062 C 4.734375 8.398438 4.753906 8.476562 4.832031 8.550781 C 4.917969 8.640625 4.980469 8.652344 5.089844 8.652344 L 8.003906 8.652344 C 8.199219 8.652344 8.328125 8.476562 8.328125 8.289062 Z M 13.550781 1.722656 C 13.550781 1.523438 13.390625 1.347656 13.195312 1.347656 L 9.589844 1.347656 C 9.398438 1.347656 9.234375 1.523438 9.234375 1.722656 C 9.234375 1.917969 9.398438 2.082031 9.589844 2.082031 L 11.039062 2.082031 L 11.039062 8.289062 C 11.039062 8.488281 11.199219 8.652344 11.394531 8.652344 C 11.585938 8.652344 11.75 8.488281 11.75 8.289062 L 11.75 2.082031 L 13.195312 2.082031 C 13.390625 2.082031 13.550781 1.917969 13.550781 1.722656 Z M 18.042969 8.289062 C 18.042969 8.09375 17.878906 7.917969 17.6875 7.917969 L 16.25 7.917969 C 15.90625 7.917969 15.625 7.785156 15.441406 7.589844 C 15.226562 7.347656 15.171875 7.140625 15.171875 6.824219 L 15.171875 3.175781 C 15.171875 2.835938 15.257812 2.597656 15.515625 2.355469 C 15.730469 2.160156 15.949219 2.082031 16.25 2.082031 L 17.6875 2.082031 C 17.878906 2.082031 18.042969 1.917969 18.042969 1.722656 C 18.042969 1.523438 17.878906 1.347656 17.6875 1.347656 L 16.25 1.347656 C 15.773438 1.347656 15.386719 1.503906 15.085938 1.742188 C 14.71875 2.039062 14.449219 2.574219 14.449219 3.175781 L 14.449219 6.824219 C 14.449219 7.347656 14.589844 7.71875 14.890625 8.070312 C 15.191406 8.421875 15.679688 8.652344 16.25 8.652344 L 17.6875 8.652344 C 17.878906 8.652344 18.042969 8.488281 18.042969 8.289062 Z M 23.265625 6.824219 C 23.277344 6.199219 22.996094 5.75 22.5 5.410156 L 20.070312 3.953125 C 19.8125 3.746094 19.671875 3.515625 19.671875 3.175781 C 19.660156 2.488281 20.382812 2.058594 21.105469 2.082031 C 22.023438 2.105469 22.109375 2.246094 22.585938 2.433594 C 22.726562 2.488281 23.082031 2.421875 23.082031 2.082031 C 23.082031 1.941406 23.015625 1.832031 22.898438 1.765625 C 22.359375 1.4375 21.820312 1.359375 21.105469 1.347656 C 19.867188 1.335938 18.949219 2.070312 18.949219 3.175781 C 18.949219 3.636719 19.046875 4.109375 19.671875 4.566406 L 22.132812 6.035156 C 22.402344 6.242188 22.542969 6.472656 22.542969 6.824219 C 22.542969 7.535156 21.808594 7.929688 21.105469 7.917969 C 20.449219 7.917969 19.628906 7.65625 19.445312 7.589844 C 19.175781 7.492188 18.949219 7.6875 18.949219 7.917969 C 18.949219 8.070312 19.003906 8.191406 19.152344 8.246094 C 19.886719 8.488281 20.339844 8.660156 21.105469 8.652344 C 22.195312 8.640625 23.253906 8.027344 23.265625 6.824219 Z M 23.265625 6.824219 "/>
<path fill-rule="nonzero" fill="rgb(100%, 0%, 0%)" fill-opacity="1" d="M 27.542969 0.078125 L 0.132812 9.613281 C 0.128906 9.617188 0.125 9.621094 0.125 9.625 C 0.203125 9.753906 0.316406 9.855469 0.457031 9.921875 L 27.867188 0.386719 C 27.871094 0.382812 27.875 0.382812 27.878906 0.378906 C 27.800781 0.25 27.683594 0.144531 27.542969 0.078125 Z M 27.542969 0.078125 "/>
</svg>
