<?xml version="1.0" encoding="UTF-8"?>
<svg xmlns="http://www.w3.org/2000/svg" xmlns:xlink="http://www.w3.org/1999/xlink" width="28" height="10.000003" viewBox="0 0 28 10.000003">
<path fill-rule="nonzero" fill="rgb(100%, 79.215686%, 0%)" fill-opacity="1" d="M 0.800781 0 L 27.199219 0 C 27.640625 0 28 0.359375 28 0.800781 L 28 9.199219 C 28 9.640625 27.640625 10 27.199219 10 L 0.800781 10 C 0.359375 10 0 9.640625 0 9.199219 L 0 0.800781 C 0 0.359375 0.359375 0 0.800781 0 Z M 0.800781 0 "/>
<path fill-rule="nonzero" fill="rgb(0%, 0%, 100%)" fill-opacity="1" d="M 6.800781 8.289062 C 6.800781 8.09375 6.640625 7.917969 6.445312 7.917969 L 3.929688 7.917969 L 3.929688 5.003906 L 6.089844 5.003906 C 6.28125 5.003906 6.445312 4.839844 6.445312 4.632812 C 6.445312 4.4375 6.28125 4.273438 6.078125 4.273438 L 3.929688 4.273438 L 3.929688 2.082031 L 6.445312 2.082031 C 6.640625 2.082031 6.800781 1.917969 6.800781 1.722656 C 6.800781 1.523438 6.640625 1.347656 6.445312 1.347656 L 3.5625 1.347656 C 3.457031 1.347656 3.378906 1.359375 3.304688 1.4375 C 3.21875 1.511719 3.207031 1.601562 3.207031 1.722656 L 3.207031 8.289062 C 3.207031 8.398438 3.226562 8.476562 3.304688 8.550781 C 3.390625 8.640625 3.457031 8.652344 3.5625 8.652344 L 6.476562 8.652344 C 6.671875 8.652344 6.800781 8.476562 6.800781 8.289062 Z M 12.023438 1.722656 C 12.023438 1.523438 11.863281 1.347656 11.667969 1.347656 L 8.0625 1.347656 C 7.871094 1.347656 7.707031 1.523438 7.707031 1.722656 C 7.707031 1.917969 7.871094 2.082031 8.0625 2.082031 L 9.511719 2.082031 L 9.511719 8.289062 C 9.511719 8.488281 9.671875 8.652344 9.867188 8.652344 C 10.058594 8.652344 10.222656 8.488281 10.222656 8.289062 L 10.222656 2.082031 L 11.667969 2.082031 C 11.863281 2.082031 12.023438 1.917969 12.023438 1.722656 Z M 16.515625 8.289062 C 16.515625 8.09375 16.351562 7.917969 16.160156 7.917969 L 14.722656 7.917969 C 14.378906 7.917969 14.097656 7.785156 13.914062 7.589844 C 13.699219 7.347656 13.644531 7.140625 13.644531 6.824219 L 13.644531 3.175781 C 13.644531 2.835938 13.730469 2.597656 13.988281 2.355469 C 14.203125 2.160156 14.421875 2.082031 14.722656 2.082031 L 16.160156 2.082031 C 16.351562 2.082031 16.515625 1.917969 16.515625 1.722656 C 16.515625 1.523438 16.351562 1.347656 16.160156 1.347656 L 14.722656 1.347656 C 14.25 1.347656 13.859375 1.503906 13.558594 1.742188 C 13.191406 2.039062 12.921875 2.574219 12.921875 3.175781 L 12.921875 6.824219 C 12.921875 7.347656 13.0625 7.71875 13.363281 8.070312 C 13.664062 8.421875 14.152344 8.652344 14.722656 8.652344 L 16.160156 8.652344 C 16.351562 8.652344 16.515625 8.488281 16.515625 8.289062 Z M 21.738281 6.824219 C 21.75 6.199219 21.46875 5.75 20.972656 5.410156 L 18.542969 3.953125 C 18.285156 3.746094 18.144531 3.515625 18.144531 3.175781 C 18.132812 2.488281 18.855469 2.058594 19.578125 2.082031 C 20.496094 2.105469 20.582031 2.246094 21.058594 2.433594 C 21.199219 2.488281 21.554688 2.421875 21.554688 2.082031 C 21.554688 1.941406 21.492188 1.832031 21.371094 1.765625 C 20.832031 1.4375 20.292969 1.359375 19.578125 1.347656 C 18.339844 1.335938 17.421875 2.070312 17.421875 3.175781 C 17.421875 3.636719 17.519531 4.109375 18.144531 4.566406 L 20.605469 6.035156 C 20.875 6.242188 21.015625 6.472656 21.015625 6.824219 C 21.015625 7.535156 20.28125 7.929688 19.578125 7.917969 C 18.921875 7.917969 18.101562 7.65625 17.917969 7.589844 C 17.648438 7.492188 17.421875 7.6875 17.421875 7.917969 C 17.421875 8.070312 17.476562 8.191406 17.625 8.246094 C 18.359375 8.488281 18.8125 8.660156 19.578125 8.652344 C 20.671875 8.640625 21.726562 8.027344 21.738281 6.824219 Z M 24.792969 8.277344 L 24.792969 1.722656 C 24.792969 1.613281 24.761719 1.523438 24.683594 1.449219 C 24.621094 1.371094 24.316406 1.292969 24.179688 1.4375 L 22.730469 2.902344 C 22.582031 3.058594 22.632812 3.339844 22.742188 3.449219 C 22.839844 3.558594 23.097656 3.582031 23.238281 3.441406 L 24.070312 2.585938 L 24.070312 8.289062 C 24.070312 8.488281 24.242188 8.652344 24.4375 8.652344 C 24.632812 8.652344 24.792969 8.488281 24.792969 8.277344 Z M 24.792969 8.277344 "/>
</svg>
