<?xml version="1.0" encoding="UTF-8"?>
<svg xmlns="http://www.w3.org/2000/svg" xmlns:xlink="http://www.w3.org/1999/xlink" width="28" height="9.999997" viewBox="0 0 28 9.999997">
<path fill-rule="nonzero" fill="rgb(0%, 0%, 0%)" fill-opacity="1" stroke-width="0.189642" stroke-linecap="round" stroke-linejoin="round" stroke="rgb(100%, 100%, 100%)" stroke-opacity="1" stroke-miterlimit="4" d="M 0.279297 0.0947265 L 6.720702 0.0947265 C 6.822264 0.0947265 6.905272 0.177734 6.905272 0.279297 L 6.905272 2.220703 C 6.905272 2.322265 6.822264 2.405273 6.720702 2.405273 L 0.279297 2.405273 C 0.177734 2.405273 0.0947265 2.322265 0.0947265 2.220703 L 0.0947265 0.279297 C 0.0947265 0.177734 0.177734 0.0947265 0.279297 0.0947265 Z M 0.279297 0.0947265 " transform="matrix(4.000001, 0, 0, 4.000001, 0.00000000000000188, 0)"/>
<path fill-rule="nonzero" fill="rgb(100%, 100%, 100%)" fill-opacity="1" d="M 7.285156 8.105469 C 7.285156 7.917969 7.132812 7.753906 6.953125 7.753906 L 4.605469 7.753906 L 4.605469 5.003906 L 6.621094 5.003906 C 6.800781 5.003906 6.953125 4.851562 6.953125 4.652344 C 6.953125 4.46875 6.800781 4.3125 6.609375 4.3125 L 4.605469 4.3125 L 4.605469 2.246094 L 6.953125 2.246094 C 7.132812 2.246094 7.285156 2.09375 7.285156 1.90625 C 7.285156 1.71875 7.132812 1.554688 6.953125 1.554688 L 4.265625 1.554688 C 4.164062 1.554688 4.09375 1.566406 4.023438 1.636719 C 3.941406 1.710938 3.933594 1.792969 3.933594 1.90625 L 3.933594 8.105469 C 3.933594 8.207031 3.953125 8.277344 4.023438 8.351562 C 4.101562 8.433594 4.164062 8.445312 4.265625 8.445312 L 6.980469 8.445312 C 7.164062 8.445312 7.285156 8.277344 7.285156 8.105469 Z M 12.15625 1.90625 C 12.15625 1.71875 12.007812 1.554688 11.824219 1.554688 L 8.460938 1.554688 C 8.28125 1.554688 8.128906 1.71875 8.128906 1.90625 C 8.128906 2.09375 8.28125 2.246094 8.460938 2.246094 L 9.8125 2.246094 L 9.8125 8.105469 C 9.8125 8.289062 9.960938 8.445312 10.144531 8.445312 C 10.324219 8.445312 10.476562 8.289062 10.476562 8.105469 L 10.476562 2.246094 L 11.824219 2.246094 C 12.007812 2.246094 12.15625 2.09375 12.15625 1.90625 Z M 16.347656 8.105469 C 16.347656 7.917969 16.195312 7.753906 16.011719 7.753906 L 14.675781 7.753906 C 14.351562 7.753906 14.089844 7.628906 13.917969 7.441406 C 13.71875 7.214844 13.667969 7.019531 13.667969 6.71875 L 13.667969 3.28125 C 13.667969 2.960938 13.75 2.734375 13.988281 2.503906 C 14.191406 2.320312 14.394531 2.246094 14.675781 2.246094 L 16.011719 2.246094 C 16.195312 2.246094 16.347656 2.09375 16.347656 1.90625 C 16.347656 1.71875 16.195312 1.554688 16.011719 1.554688 L 14.675781 1.554688 C 14.230469 1.554688 13.867188 1.699219 13.585938 1.925781 C 13.246094 2.207031 12.992188 2.710938 12.992188 3.28125 L 12.992188 6.71875 C 12.992188 7.214844 13.125 7.566406 13.40625 7.898438 C 13.6875 8.226562 14.140625 8.445312 14.675781 8.445312 L 16.011719 8.445312 C 16.195312 8.445312 16.347656 8.289062 16.347656 8.105469 Z M 21.21875 6.71875 C 21.230469 6.128906 20.96875 5.707031 20.503906 5.386719 L 18.238281 4.011719 C 17.996094 3.816406 17.867188 3.601562 17.867188 3.28125 C 17.855469 2.628906 18.53125 2.226562 19.207031 2.246094 C 20.0625 2.269531 20.140625 2.402344 20.585938 2.578125 C 20.714844 2.628906 21.046875 2.566406 21.046875 2.246094 C 21.046875 2.113281 20.988281 2.007812 20.875 1.949219 C 20.375 1.636719 19.871094 1.566406 19.207031 1.554688 C 18.046875 1.546875 17.191406 2.238281 17.191406 3.28125 C 17.191406 3.714844 17.28125 4.15625 17.867188 4.59375 L 20.160156 5.976562 C 20.414062 6.171875 20.542969 6.390625 20.542969 6.71875 C 20.542969 7.390625 19.859375 7.761719 19.207031 7.753906 C 18.589844 7.753906 17.824219 7.503906 17.65625 7.441406 C 17.402344 7.347656 17.191406 7.535156 17.191406 7.753906 C 17.191406 7.898438 17.242188 8.011719 17.382812 8.0625 C 18.066406 8.289062 18.492188 8.453125 19.207031 8.445312 C 20.222656 8.433594 21.207031 7.855469 21.21875 6.71875 Z M 24.066406 8.09375 L 24.066406 1.90625 C 24.066406 1.804688 24.039062 1.71875 23.96875 1.648438 C 23.90625 1.574219 23.625 1.503906 23.496094 1.636719 L 22.144531 3.023438 C 22.003906 3.167969 22.054688 3.433594 22.15625 3.539062 C 22.246094 3.640625 22.488281 3.664062 22.617188 3.527344 L 23.394531 2.722656 L 23.394531 8.105469 C 23.394531 8.289062 23.554688 8.445312 23.734375 8.445312 C 23.917969 8.445312 24.066406 8.289062 24.066406 8.09375 Z M 24.066406 8.09375 "/>
</svg>
