<?xml version="1.0" encoding="UTF-8"?>
<svg xmlns="http://www.w3.org/2000/svg" xmlns:xlink="http://www.w3.org/1999/xlink" width="16.176884" height="20" viewBox="0 0 16.176884 20">
<path fill-rule="nonzero" fill="rgb(0%, 0%, 0%)" fill-opacity="1" d="M 0 0 L 16.175781 0 L 16.175781 5.941406 L 10.660156 11.261719 L 10.660156 20 L 0 20 Z M 0 0 "/>
<path fill-rule="evenodd" fill="rgb(100%, 100%, 100%)" fill-opacity="1" d="M 3.675781 0.582031 L 11.90625 0.582031 C 14.640625 0.582031 16.867188 3.882812 14.523438 6.523438 L 10.175781 10.875 L 10.175781 16.503906 C 10.175781 17.859375 8.816406 19.609375 7.066406 19.609375 L 3.6875 19.609375 C 2.019531 19.609375 0.464844 17.941406 0.464844 16.503906 L 0.464844 3.804688 C 0.464844 1.941406 2.210938 0.582031 3.675781 0.582031 Z M 3.867188 1.179688 L 12.117188 1.164062 C 14.363281 1.164062 15.917969 4.078125 14.175781 6.019531 L 9.59375 10.484375 L 9.59375 16.117188 C 9.59375 17.859375 8.035156 19.144531 6.5625 19.144531 L 4.054688 19.144531 C 2.210938 19.144531 1.046875 17.65625 1.046875 16.308594 L 1.046875 4.007812 C 1.046875 2.328125 2.3125 1.164062 3.867188 1.179688 Z M 3.867188 1.179688 "/>
<path fill="none" stroke-width="0.141509" stroke-linecap="butt" stroke-linejoin="miter" stroke="rgb(23.921569%, 23.921569%, 23.921569%)" stroke-opacity="1" stroke-miterlimit="4" d="M 4.778689 4.14482 C 4.778689 4.664821 4.361171 5.082339 3.844966 5.082339 C 3.328761 5.082339 2.907447 4.664821 2.907447 4.14482 C 2.907447 3.628616 3.328761 3.211097 3.844966 3.211097 C 4.361171 3.211097 4.778689 3.628616 4.778689 4.14482 Z M 4.778689 4.14482 " transform="matrix(1.029146, 0, 0, 1.029146, 0, 0)"/>
<path fill-rule="nonzero" fill="rgb(100%, 0%, 0%)" fill-opacity="1" stroke-width="0.141509" stroke-linecap="butt" stroke-linejoin="miter" stroke="rgb(85.490196%, 0.784314%, 0.784314%)" stroke-opacity="0.72549" stroke-miterlimit="4" d="M 4.778689 7.985991 C 4.778689 8.4984 4.361171 8.92351 3.844966 8.92351 C 3.328761 8.92351 2.907447 8.4984 2.907447 7.985991 C 2.907447 7.469786 3.328761 7.048472 3.844966 7.048472 C 4.361171 7.048472 4.778689 7.469786 4.778689 7.985991 Z M 4.778689 7.985991 " transform="matrix(1.029146, 0, 0, 1.029146, 0, 0)"/>
<path fill="none" stroke-width="0.141509" stroke-linecap="butt" stroke-linejoin="miter" stroke="rgb(23.921569%, 23.921569%, 23.921569%)" stroke-opacity="1" stroke-miterlimit="4" d="M 4.778689 11.823365 C 4.778689 12.33957 4.361171 12.760884 3.844966 12.760884 C 3.328761 12.760884 2.907447 12.33957 2.907447 11.823365 C 2.907447 11.307161 3.328761 10.885847 3.844966 10.885847 C 4.361171 10.885847 4.778689 11.307161 4.778689 11.823365 Z M 4.778689 11.823365 " transform="matrix(1.029146, 0, 0, 1.029146, 0, 0)"/>
<path fill="none" stroke-width="0.141509" stroke-linecap="butt" stroke-linejoin="miter" stroke="rgb(23.921569%, 23.921569%, 23.921569%)" stroke-opacity="1" stroke-miterlimit="4" d="M 4.778689 15.664536 C 4.778689 16.180741 4.361171 16.598259 3.844966 16.598259 C 3.328761 16.598259 2.907447 16.180741 2.907447 15.664536 C 2.907447 15.148331 3.328761 14.727017 3.844966 14.727017 C 4.361171 14.727017 4.778689 15.148331 4.778689 15.664536 Z M 4.778689 15.664536 " transform="matrix(1.029146, 0, 0, 1.029146, 0, 0)"/>
<path fill="none" stroke-width="0.141509" stroke-linecap="butt" stroke-linejoin="miter" stroke="rgb(23.921569%, 23.921569%, 23.921569%)" stroke-opacity="1" stroke-miterlimit="4" d="M 12.616651 4.14482 C 12.616651 4.664821 12.199132 5.082339 11.682927 5.082339 C 11.162927 5.082339 10.745409 4.664821 10.745409 4.14482 C 10.745409 3.628616 11.162927 3.211097 11.682927 3.211097 C 12.199132 3.211097 12.616651 3.628616 12.616651 4.14482 Z M 12.616651 4.14482 " transform="matrix(1.029146, 0, 0, 1.029146, 0, 0)"/>
</svg>
