<?xml version="1.0" encoding="UTF-8"?>
<svg xmlns="http://www.w3.org/2000/svg" xmlns:xlink="http://www.w3.org/1999/xlink" width="16.176884" height="20" viewBox="0 0 16.176884 20">
<defs>
<radialGradient id="radial-pattern-0" gradientUnits="userSpaceOnUse" cx="22.376717" cy="23.62672" fx="22.376717" fy="23.62672" r="5.348282" gradientTransform="matrix(-0.143579, 0.000000500028, 0.00000050875, 0.146084, 15.088449, 0.693863)">
<stop offset="0" stop-color="rgb(21.568627%, 99.215686%, 3.921569%)" stop-opacity="1"/>
<stop offset="1" stop-color="rgb(16.470588%, 85.882353%, 0.784314%)" stop-opacity="1"/>
</radialGradient>
<radialGradient id="radial-pattern-1" gradientUnits="userSpaceOnUse" cx="22.376717" cy="64.324425" fx="22.376717" fy="64.324425" r="5.148283" gradientTransform="matrix(-0.131415, 0.000000311241, 0.000000348228, 0.147032, 14.816255, 2.366381)">
<stop offset="0" stop-color="rgb(100%, 81.176471%, 14.509804%)" stop-opacity="1"/>
<stop offset="1" stop-color="rgb(91.764706%, 60.392157%, 0%)" stop-opacity="1"/>
</radialGradient>
</defs>
<path fill-rule="nonzero" fill="rgb(0%, 0%, 0%)" fill-opacity="1" d="M 16.175781 0 L 0 0 L 0 5.941406 L 5.515625 11.261719 L 5.515625 20 L 16.175781 20 Z M 16.175781 0 "/>
<path fill-rule="evenodd" fill="rgb(100%, 100%, 100%)" fill-opacity="1" d="M 12.503906 0.582031 L 4.269531 0.582031 C 1.535156 0.582031 -0.691406 3.882812 1.652344 6.523438 L 6.003906 10.875 L 6.003906 16.503906 C 6.003906 17.859375 7.359375 19.609375 9.109375 19.609375 L 12.492188 19.609375 C 14.160156 19.609375 15.710938 17.941406 15.710938 16.503906 L 15.710938 3.804688 C 15.710938 1.941406 13.964844 0.582031 12.503906 0.582031 Z M 12.308594 1.179688 L 4.058594 1.164062 C 1.8125 1.164062 0.257812 4.078125 2.003906 6.019531 L 6.585938 10.484375 L 6.585938 16.117188 C 6.585938 17.859375 8.140625 19.144531 9.617188 19.144531 L 12.121094 19.144531 C 13.964844 19.144531 15.132812 17.65625 15.132812 16.308594 L 15.132812 4.007812 C 15.132812 2.328125 13.867188 1.164062 12.308594 1.179688 Z M 12.308594 1.179688 "/>
<path fill-rule="nonzero" fill="url(#radial-pattern-0)" stroke-width="0.141509" stroke-linecap="butt" stroke-linejoin="miter" stroke="rgb(16.470588%, 85.490196%, 0.784314%)" stroke-opacity="0.72549" stroke-miterlimit="4" d="M 10.942783 4.144821 C 10.942783 4.664822 11.360302 5.08234 11.876507 5.08234 C 12.388916 5.08234 12.814026 4.664822 12.814026 4.144821 C 12.814026 3.628616 12.388916 3.211098 11.876507 3.211098 C 11.360302 3.211098 10.942783 3.628616 10.942783 4.144821 Z M 10.942783 4.144821 " transform="matrix(1.029146, 0, 0, 1.029146, 0, 0)"/>
<path fill="none" stroke-width="0.141509" stroke-linecap="butt" stroke-linejoin="miter" stroke="rgb(23.921569%, 23.921569%, 23.921569%)" stroke-opacity="1" stroke-miterlimit="4" d="M 10.942783 7.985992 C 10.942783 8.498402 11.360302 8.923512 11.876507 8.923512 C 12.388916 8.923512 12.814026 8.498402 12.814026 7.985992 C 12.814026 7.469788 12.388916 7.048473 11.876507 7.048473 C 11.360302 7.048473 10.942783 7.469788 10.942783 7.985992 Z M 10.942783 7.985992 " transform="matrix(1.029146, 0, 0, 1.029146, 0, 0)"/>
<path fill-rule="nonzero" fill="url(#radial-pattern-1)" stroke-width="0.141509" stroke-linecap="butt" stroke-linejoin="miter" stroke="rgb(86.27451%, 52.54902%, 0%)" stroke-opacity="0.72549" stroke-miterlimit="4" d="M 10.942783 11.823368 C 10.942783 12.339573 11.360302 12.760887 11.876507 12.760887 C 12.388916 12.760887 12.814026 12.339573 12.814026 11.823368 C 12.814026 11.307163 12.388916 10.885849 11.876507 10.885849 C 11.360302 10.885849 10.942783 11.307163 10.942783 11.823368 Z M 10.942783 11.823368 " transform="matrix(1.029146, 0, 0, 1.029146, 0, 0)"/>
<path fill="none" stroke-width="0.141509" stroke-linecap="butt" stroke-linejoin="miter" stroke="rgb(23.921569%, 23.921569%, 23.921569%)" stroke-opacity="1" stroke-miterlimit="4" d="M 10.942783 15.664539 C 10.942783 16.180744 11.360302 16.598263 11.876507 16.598263 C 12.388916 16.598263 12.814026 16.180744 12.814026 15.664539 C 12.814026 15.148335 12.388916 14.72702 11.876507 14.72702 C 11.360302 14.72702 10.942783 15.148335 10.942783 15.664539 Z M 10.942783 15.664539 " transform="matrix(1.029146, 0, 0, 1.029146, 0, 0)"/>
<path fill="none" stroke-width="0.141509" stroke-linecap="butt" stroke-linejoin="miter" stroke="rgb(23.921569%, 23.921569%, 23.921569%)" stroke-opacity="1" stroke-miterlimit="4" d="M 3.101025 4.144821 C 3.101025 4.664822 3.518543 5.08234 4.034748 5.08234 C 4.554749 5.08234 4.972267 4.664822 4.972267 4.144821 C 4.972267 3.628616 4.554749 3.211098 4.034748 3.211098 C 3.518543 3.211098 3.101025 3.628616 3.101025 4.144821 Z M 3.101025 4.144821 " transform="matrix(1.029146, 0, 0, 1.029146, 0, 0)"/>
</svg>
