<?xml version="1.0" encoding="UTF-8"?>
<svg xmlns="http://www.w3.org/2000/svg" xmlns:xlink="http://www.w3.org/1999/xlink" width="16.176884" height="20" viewBox="0 0 16.176884 20">
<defs>
<radialGradient id="radial-pattern-0" gradientUnits="userSpaceOnUse" cx="22.376717" cy="23.62672" fx="22.376717" fy="23.62672" r="5.348282" gradientTransform="matrix(0.143579, 0.000000500028, -0.00000050875, 0.146084, 0.630301, 0.693863)">
<stop offset="0" stop-color="rgb(21.568627%, 99.215686%, 3.921569%)" stop-opacity="1"/>
<stop offset="1" stop-color="rgb(16.470588%, 85.882353%, 0.784314%)" stop-opacity="1"/>
</radialGradient>
<radialGradient id="radial-pattern-1" gradientUnits="userSpaceOnUse" cx="22.376717" cy="64.324425" fx="22.376717" fy="64.324425" r="5.148283" gradientTransform="matrix(0.131415, 0.000000311241, -0.000000348228, 0.147032, 0.902495, 2.366381)">
<stop offset="0" stop-color="rgb(100%, 81.176471%, 14.509804%)" stop-opacity="1"/>
<stop offset="1" stop-color="rgb(91.764706%, 60.392157%, 0%)" stop-opacity="1"/>
</radialGradient>
</defs>
<path fill-rule="nonzero" fill="rgb(0%, 0%, 0%)" fill-opacity="1" d="M 0 0 L 16.175781 0 L 16.175781 5.941406 L 10.660156 11.261719 L 10.660156 20 L 0 20 Z M 0 0 "/>
<path fill-rule="evenodd" fill="rgb(100%, 100%, 100%)" fill-opacity="1" d="M 3.675781 0.582031 L 11.90625 0.582031 C 14.640625 0.582031 16.867188 3.882812 14.523438 6.523438 L 10.175781 10.875 L 10.175781 16.503906 C 10.175781 17.859375 8.816406 19.609375 7.066406 19.609375 L 3.6875 19.609375 C 2.019531 19.609375 0.464844 17.941406 0.464844 16.503906 L 0.464844 3.804688 C 0.464844 1.941406 2.210938 0.582031 3.675781 0.582031 Z M 3.867188 1.179688 L 12.117188 1.164062 C 14.363281 1.164062 15.917969 4.078125 14.175781 6.019531 L 9.59375 10.484375 L 9.59375 16.117188 C 9.59375 17.859375 8.035156 19.144531 6.5625 19.144531 L 4.054688 19.144531 C 2.210938 19.144531 1.046875 17.65625 1.046875 16.308594 L 1.046875 4.007812 C 1.046875 2.328125 2.3125 1.164062 3.867188 1.179688 Z M 3.867188 1.179688 "/>
<path fill-rule="nonzero" fill="url(#radial-pattern-0)" stroke-width="0.141509" stroke-linecap="butt" stroke-linejoin="miter" stroke="rgb(16.470588%, 85.490196%, 0.784314%)" stroke-opacity="0.72549" stroke-miterlimit="4" d="M 4.77869 4.144821 C 4.77869 4.664822 4.361172 5.08234 3.844967 5.08234 C 3.328762 5.08234 2.907448 4.664822 2.907448 4.144821 C 2.907448 3.628616 3.328762 3.211098 3.844967 3.211098 C 4.361172 3.211098 4.77869 3.628616 4.77869 4.144821 Z M 4.77869 4.144821 " transform="matrix(1.029146, 0, 0, 1.029146, 0, 0)"/>
<path fill="none" stroke-width="0.141509" stroke-linecap="butt" stroke-linejoin="miter" stroke="rgb(23.921569%, 23.921569%, 23.921569%)" stroke-opacity="1" stroke-miterlimit="4" d="M 4.77869 7.985992 C 4.77869 8.498402 4.361172 8.923512 3.844967 8.923512 C 3.328762 8.923512 2.907448 8.498402 2.907448 7.985992 C 2.907448 7.469788 3.328762 7.048473 3.844967 7.048473 C 4.361172 7.048473 4.77869 7.469788 4.77869 7.985992 Z M 4.77869 7.985992 " transform="matrix(1.029146, 0, 0, 1.029146, 0, 0)"/>
<path fill-rule="nonzero" fill="url(#radial-pattern-1)" stroke-width="0.141509" stroke-linecap="butt" stroke-linejoin="miter" stroke="rgb(86.27451%, 52.54902%, 0%)" stroke-opacity="0.72549" stroke-miterlimit="4" d="M 4.77869 11.823368 C 4.77869 12.339573 4.361172 12.760887 3.844967 12.760887 C 3.328762 12.760887 2.907448 12.339573 2.907448 11.823368 C 2.907448 11.307163 3.328762 10.885849 3.844967 10.885849 C 4.361172 10.885849 4.77869 11.307163 4.77869 11.823368 Z M 4.77869 11.823368 " transform="matrix(1.029146, 0, 0, 1.029146, 0, 0)"/>
<path fill="none" stroke-width="0.141509" stroke-linecap="butt" stroke-linejoin="miter" stroke="rgb(23.921569%, 23.921569%, 23.921569%)" stroke-opacity="1" stroke-miterlimit="4" d="M 4.77869 15.664539 C 4.77869 16.180744 4.361172 16.598263 3.844967 16.598263 C 3.328762 16.598263 2.907448 16.180744 2.907448 15.664539 C 2.907448 15.148335 3.328762 14.72702 3.844967 14.72702 C 4.361172 14.72702 4.77869 15.148335 4.77869 15.664539 Z M 4.77869 15.664539 " transform="matrix(1.029146, 0, 0, 1.029146, 0, 0)"/>
<path fill="none" stroke-width="0.141509" stroke-linecap="butt" stroke-linejoin="miter" stroke="rgb(23.921569%, 23.921569%, 23.921569%)" stroke-opacity="1" stroke-miterlimit="4" d="M 12.616653 4.144821 C 12.616653 4.664822 12.199135 5.08234 11.68293 5.08234 C 11.16293 5.08234 10.745411 4.664822 10.745411 4.144821 C 10.745411 3.628616 11.16293 3.211098 11.68293 3.211098 C 12.199135 3.211098 12.616653 3.628616 12.616653 4.144821 Z M 12.616653 4.144821 " transform="matrix(1.029146, 0, 0, 1.029146, 0, 0)"/>
</svg>
