<?xml version="1.0" encoding="UTF-8"?>
<svg xmlns="http://www.w3.org/2000/svg" xmlns:xlink="http://www.w3.org/1999/xlink" width="18" height="16.56" viewBox="0 0 18 16.56">
<path fill-rule="nonzero" fill="rgb(100%, 100%, 100%)" fill-opacity="1" stroke-width="0.5" stroke-linecap="butt" stroke-linejoin="round" stroke="rgb(0%, 0%, 0%)" stroke-opacity="1" stroke-miterlimit="4" d="M 40.017361 40.017361 L 79.991319 40.017361 L 79.991319 0.998264 L 120.008681 0.998264 L 120.008681 40.017361 L 199.001736 40.017361 L 199.001736 79.991319 L 120.008681 79.991319 L 120.008681 103.993056 L 159.982639 103.993056 L 159.982639 144.010417 L 120.008681 144.010417 L 120.008681 182.986111 L 79.991319 182.986111 L 79.991319 144.010417 L 0.998264 144.010417 L 0.998264 103.993056 L 79.991319 103.993056 L 79.991319 79.991319 L 40.017361 79.991319 Z M 40.017361 40.017361 " transform="matrix(0.09, 0, 0, 0.09, 0, 0)"/>
<path fill-rule="nonzero" fill="rgb(0%, 0%, 0%)" fill-opacity="1" d="M 7.210938 4.769531 L 17.269531 4.769531 C 17.277344 4.769531 17.28125 4.773438 17.28125 4.777344 L 17.28125 5.929688 C 17.28125 5.9375 17.277344 5.941406 17.269531 5.941406 L 7.210938 5.941406 C 7.203125 5.941406 7.199219 5.9375 7.199219 5.929688 L 7.199219 4.777344 C 7.199219 4.773438 7.203125 4.769531 7.210938 4.769531 Z M 7.210938 4.769531 "/>
<path fill-rule="nonzero" fill="rgb(0%, 0%, 0%)" fill-opacity="1" d="M 0.730469 10.53125 L 10.789062 10.53125 C 10.796875 10.53125 10.800781 10.535156 10.800781 10.539062 L 10.800781 11.691406 C 10.800781 11.695312 10.796875 11.699219 10.789062 11.699219 L 0.730469 11.699219 C 0.722656 11.699219 0.71875 11.695312 0.71875 11.691406 L 0.71875 10.539062 C 0.71875 10.535156 0.722656 10.53125 0.730469 10.53125 Z M 0.730469 10.53125 "/>
</svg>
