<?xml version="1.0" encoding="UTF-8"?>
<svg xmlns="http://www.w3.org/2000/svg" xmlns:xlink="http://www.w3.org/1999/xlink" width="22" height="6.975611" viewBox="0 0 22 6.975611">
<path fill-rule="nonzero" fill="rgb(100%, 100%, 100%)" fill-opacity="1" stroke-width="0.4" stroke-linecap="butt" stroke-linejoin="round" stroke="rgb(0%, 0%, 0%)" stroke-opacity="0.5" stroke-miterlimit="4" d="M 12.026289 0 C 12.026289 0 47.027741 8.997877 82.000073 8.997877 C 116.972405 8.997877 152.002976 0 152.002976 0 C 152.002976 0 164.000145 13.016347 164.000145 25.974455 C 164.000145 39.019921 152.002976 52.007148 152.002976 52.007148 C 152.002976 52.007148 116.972405 42.980152 82.000073 42.980152 C 47.027741 42.980152 12.026289 52.007148 12.026289 52.007148 C 12.026289 52.007148 0 39.019921 0 25.974455 C 0 13.016347 12.026289 0 12.026289 0 Z M 12.026289 0 " transform="matrix(0.134146, 0, 0, 0.134146, 0, 0)"/>
<path fill-rule="nonzero" fill="rgb(0%, 0%, 0%)" fill-opacity="1" d="M 1.355469 2.683594 L 20.644531 2.683594 C 20.652344 2.683594 20.660156 2.691406 20.660156 2.699219 L 20.660156 4.28125 C 20.660156 4.289062 20.652344 4.292969 20.644531 4.292969 L 1.355469 4.292969 C 1.347656 4.292969 1.339844 4.289062 1.339844 4.28125 L 1.339844 2.699219 C 1.339844 2.691406 1.347656 2.683594 1.355469 2.683594 Z M 1.355469 2.683594 "/>
</svg>
