<?xml version="1.0" encoding="UTF-8"?>
<svg xmlns="http://www.w3.org/2000/svg" xmlns:xlink="http://www.w3.org/1999/xlink" width="11.847251" height="14" viewBox="0 0 11.847251 14">
<path fill-rule="evenodd" fill="rgb(100%, 100%, 100%)" fill-opacity="1" stroke-width="0.0192436" stroke-linecap="round" stroke-linejoin="bevel" stroke="rgb(0%, 0%, 0%)" stroke-opacity="1" stroke-miterlimit="0" d="M 3.944185 3.767911 L 35.945272 3.767911 L 35.945272 41.586417 L 3.944185 41.586417 Z M 3.944185 3.767911 " transform="matrix(0.369983, 0, 0, 0.369983, -1.455373, -1.390155)"/>
<path fill-rule="evenodd" fill="rgb(0%, 7.843137%, 100%)" fill-opacity="1" d="M 9.460938 9.941406 C 9.460938 9.621094 9.195312 9.355469 8.878906 9.355469 L 7.695312 9.355469 L 7.695312 7.574219 C 7.695312 7.257812 7.429688 7.007812 7.113281 7.007812 C 6.796875 7.007812 6.511719 7.273438 6.511719 7.59375 L 6.511719 9.355469 L 3.757812 9.355469 L 5.914062 1.820312 C 6 1.484375 5.773438 1.113281 5.347656 1.113281 C 5.136719 1.097656 4.855469 1.238281 4.785156 1.503906 L 2.398438 9.796875 C 2.347656 10.027344 2.453125 10.292969 2.558594 10.363281 C 2.699219 10.488281 2.804688 10.539062 2.984375 10.539062 L 6.511719 10.539062 L 6.511719 12.304688 C 6.511719 12.621094 6.796875 12.886719 7.113281 12.886719 C 7.429688 12.886719 7.695312 12.621094 7.695312 12.304688 L 7.695312 10.539062 L 8.878906 10.539062 C 9.195312 10.539062 9.460938 10.257812 9.460938 9.941406 Z M 9.460938 9.941406 "/>
</svg>
