<?xml version="1.0" encoding="UTF-8"?>
<svg xmlns="http://www.w3.org/2000/svg" xmlns:xlink="http://www.w3.org/1999/xlink" width="11.847251" height="14" viewBox="0 0 11.847251 14">
<path fill-rule="evenodd" fill="rgb(100%, 100%, 100%)" fill-opacity="1" stroke-width="0.0192436" stroke-linecap="round" stroke-linejoin="bevel" stroke="rgb(0%, 0%, 0%)" stroke-opacity="1" stroke-miterlimit="0" d="M 3.944185 3.767911 L 35.945272 3.767911 L 35.945272 41.586417 L 3.944185 41.586417 Z M 3.944185 3.767911 " transform="matrix(0.369983, 0, 0, 0.369983, -1.455373, -1.390155)"/>
<path fill-rule="evenodd" fill="rgb(0%, 7.843137%, 100%)" fill-opacity="1" d="M 8.863281 12.304688 C 8.863281 11.988281 8.597656 11.703125 8.28125 11.703125 L 4.628906 11.703125 L 8.441406 5.632812 C 8.757812 5.101562 8.863281 4.679688 8.863281 4.0625 C 8.898438 2.296875 7.558594 1.183594 5.933594 1.113281 C 4.644531 1.078125 3.761719 1.660156 3.074219 2.773438 C 2.933594 3.019531 2.863281 3.707031 3.570312 3.761719 C 3.78125 3.761719 3.957031 3.691406 4.0625 3.496094 C 4.523438 2.683594 4.945312 2.277344 5.933594 2.296875 C 7.152344 2.3125 7.679688 3.089844 7.699219 4.0625 C 7.699219 4.433594 7.644531 4.644531 7.453125 4.996094 L 3.074219 11.953125 C 3.003906 12.074219 2.984375 12.164062 2.984375 12.304688 C 3.003906 12.621094 3.25 12.871094 3.570312 12.886719 L 8.28125 12.886719 C 8.597656 12.886719 8.863281 12.621094 8.863281 12.304688 Z M 8.863281 12.304688 "/>
</svg>
