<?xml version="1.0" encoding="UTF-8"?>
<svg xmlns="http://www.w3.org/2000/svg" xmlns:xlink="http://www.w3.org/1999/xlink" width="11.847251" height="14" viewBox="0 0 11.847251 14">
<path fill-rule="evenodd" fill="rgb(100%, 100%, 100%)" fill-opacity="1" stroke-width="0.0192436" stroke-linecap="round" stroke-linejoin="bevel" stroke="rgb(0%, 0%, 0%)" stroke-opacity="1" stroke-miterlimit="0" d="M 3.944185 3.767911 L 35.945272 3.767911 L 35.945272 41.586417 L 3.944185 41.586417 Z M 3.944185 3.767911 " transform="matrix(0.369983, 0, 0, 0.369983, -1.455373, -1.390155)"/>
<path fill-rule="evenodd" fill="rgb(0%, 7.843137%, 100%)" fill-opacity="1" d="M 3.636719 5.824219 C 3.742188 6.019531 3.886719 6.160156 4.027344 6.304688 C 3.742188 6.53125 3.585938 6.691406 3.390625 7.007812 C 3.144531 7.414062 2.984375 7.695312 2.984375 8.175781 L 2.984375 10.539062 C 2.984375 12.003906 4.449219 12.886719 5.933594 12.886719 C 7.398438 12.886719 8.863281 12.003906 8.863281 10.539062 L 8.863281 8.175781 C 8.863281 7.714844 8.828125 7.414062 8.582031 7.007812 C 8.367188 6.671875 8.15625 6.480469 7.820312 6.304688 C 7.996094 6.144531 8.085938 6.019531 8.226562 5.824219 C 8.472656 5.421875 8.582031 5.136719 8.582031 4.644531 L 8.582031 3.476562 C 8.582031 2.101562 7.308594 1.113281 5.933594 1.113281 C 4.554688 1.113281 3.285156 2.101562 3.285156 3.476562 L 3.285156 4.644531 C 3.285156 5.136719 3.390625 5.421875 3.636719 5.824219 Z M 7.398438 4.644531 C 7.398438 5.386719 6.65625 5.824219 5.933594 5.824219 C 5.191406 5.824219 4.449219 5.386719 4.449219 4.644531 L 4.449219 3.476562 C 4.449219 2.738281 5.191406 2.296875 5.933594 2.296875 C 6.65625 2.296875 7.398438 2.738281 7.398438 3.476562 Z M 7.699219 10.539062 C 7.699219 11.351562 6.761719 11.703125 5.949219 11.703125 C 5.121094 11.722656 4.167969 11.367188 4.167969 10.539062 L 4.167969 8.175781 C 4.167969 7.34375 5.085938 6.972656 5.933594 6.972656 C 6.761719 6.972656 7.699219 7.34375 7.699219 8.175781 Z M 7.699219 10.539062 "/>
</svg>
