<?xml version="1.0" encoding="UTF-8"?>
<svg xmlns="http://www.w3.org/2000/svg" xmlns:xlink="http://www.w3.org/1999/xlink" width="11.847251" height="14" viewBox="0 0 11.847251 14">
<path fill-rule="evenodd" fill="rgb(100%, 100%, 100%)" fill-opacity="1" stroke-width="0.0192436" stroke-linecap="round" stroke-linejoin="bevel" stroke="rgb(0%, 0%, 0%)" stroke-opacity="1" stroke-miterlimit="0" d="M 3.944185 3.767911 L 35.945272 3.767911 L 35.945272 41.586417 L 3.944185 41.586417 Z M 3.944185 3.767911 " transform="matrix(0.369983, 0, 0, 0.369983, -1.455373, -1.390155)"/>
<path fill-rule="evenodd" fill="rgb(0%, 7.843137%, 100%)" fill-opacity="1" d="M 4.011719 12.289062 L 4.011719 1.714844 C 4.011719 1.539062 3.960938 1.394531 3.835938 1.273438 C 3.730469 1.148438 3.238281 1.027344 3.007812 1.253906 L 0.640625 3.621094 C 0.394531 3.867188 0.484375 4.328125 0.660156 4.503906 C 0.820312 4.679688 1.242188 4.714844 1.472656 4.484375 L 2.832031 3.109375 L 2.832031 12.304688 C 2.832031 12.621094 3.113281 12.886719 3.429688 12.886719 C 3.75 12.886719 4.011719 12.621094 4.011719 12.289062 Z M 11.355469 12.304688 C 11.355469 11.988281 11.09375 11.703125 10.773438 11.703125 L 7.121094 11.703125 L 10.933594 5.632812 C 11.25 5.101562 11.355469 4.679688 11.355469 4.0625 C 11.390625 2.296875 10.050781 1.183594 8.425781 1.113281 C 7.136719 1.078125 6.253906 1.660156 5.566406 2.773438 C 5.425781 3.019531 5.355469 3.707031 6.0625 3.761719 C 6.273438 3.761719 6.449219 3.691406 6.554688 3.496094 C 7.015625 2.683594 7.4375 2.277344 8.425781 2.296875 C 9.644531 2.3125 10.175781 3.089844 10.191406 4.0625 C 10.191406 4.433594 10.140625 4.644531 9.945312 4.996094 L 5.566406 11.953125 C 5.496094 12.074219 5.480469 12.164062 5.480469 12.304688 C 5.496094 12.621094 5.742188 12.871094 6.0625 12.886719 L 10.773438 12.886719 C 11.09375 12.886719 11.355469 12.621094 11.355469 12.304688 Z M 11.355469 12.304688 "/>
</svg>
