<?xml version="1.0" encoding="UTF-8"?>
<svg xmlns="http://www.w3.org/2000/svg" xmlns:xlink="http://www.w3.org/1999/xlink" width="11.847251" height="14" viewBox="0 0 11.847251 14">
<path fill-rule="evenodd" fill="rgb(100%, 100%, 100%)" fill-opacity="1" stroke-width="0.0192436" stroke-linecap="round" stroke-linejoin="bevel" stroke="rgb(0%, 0%, 0%)" stroke-opacity="1" stroke-miterlimit="0" d="M 3.944185 3.767911 L 35.945272 3.767911 L 35.945272 41.586417 L 3.944185 41.586417 Z M 3.944185 3.767911 " transform="matrix(0.369983, 0, 0, 0.369983, -1.455373, -1.390155)"/>
<path fill-rule="evenodd" fill="rgb(0%, 7.843137%, 100%)" fill-opacity="1" d="M 8.90625 9.921875 L 8.90625 8.757812 C 8.90625 7.769531 8.449219 6.796875 7.757812 6.390625 C 8.34375 5.914062 8.820312 5.050781 8.820312 4.078125 C 8.820312 3.25 8.605469 2.648438 8.09375 2.066406 C 7.617188 1.519531 6.804688 1.128906 5.886719 1.128906 L 3.523438 1.128906 C 3.207031 1.128906 2.941406 1.414062 2.941406 1.730469 C 2.941406 2.046875 3.207031 2.3125 3.523438 2.3125 L 5.886719 2.3125 C 6.433594 2.3125 6.894531 2.523438 7.195312 2.859375 C 7.546875 3.230469 7.652344 4.0625 7.652344 4.0625 C 7.652344 4.609375 7.496094 4.996094 7.089844 5.367188 C 6.71875 5.703125 6.382812 5.808594 5.886719 5.808594 L 4.777344 5.808594 C 4.457031 5.808594 4.195312 6.074219 4.195312 6.390625 C 4.195312 6.707031 4.457031 6.992188 4.777344 6.992188 L 5.957031 6.992188 C 6.453125 6.992188 6.804688 7.097656 7.160156 7.433594 C 7.582031 7.804688 7.722656 8.191406 7.722656 8.757812 L 7.722656 9.921875 C 7.722656 10.433594 7.636719 10.769531 7.28125 11.15625 C 6.984375 11.476562 6.523438 11.6875 5.957031 11.6875 L 3.609375 11.6875 C 3.292969 11.6875 3.027344 11.96875 3.027344 12.285156 C 3.027344 12.605469 3.292969 12.871094 3.609375 12.871094 L 5.957031 12.871094 C 6.894531 12.871094 7.6875 12.5 8.183594 11.933594 C 8.675781 11.367188 8.90625 10.769531 8.90625 9.921875 Z M 8.90625 9.921875 "/>
</svg>
