<?xml version="1.0" encoding="UTF-8"?>
<svg xmlns="http://www.w3.org/2000/svg" xmlns:xlink="http://www.w3.org/1999/xlink" width="11.847251" height="14" viewBox="0 0 11.847251 14">
<path fill-rule="evenodd" fill="rgb(100%, 100%, 100%)" fill-opacity="1" stroke-width="0.0192436" stroke-linecap="round" stroke-linejoin="bevel" stroke="rgb(0%, 0%, 0%)" stroke-opacity="1" stroke-miterlimit="0" d="M 3.944185 3.767911 L 35.945272 3.767911 L 35.945272 41.586417 L 3.944185 41.586417 Z M 3.944185 3.767911 " transform="matrix(0.369983, 0, 0, 0.369983, -1.455373, -1.390155)"/>
<path fill-rule="nonzero" fill="rgb(0%, 7.843137%, 100%)" fill-opacity="1" d="M 4.847656 10.855469 L 6.261719 10.855469 L 6.261719 12.789062 L 4.847656 12.789062 Z M 6.21875 9.734375 L 4.890625 9.734375 L 4.890625 8.5625 C 4.890625 8.050781 4.957031 7.628906 5.085938 7.296875 C 5.214844 6.96875 5.488281 6.582031 5.90625 6.148438 L 6.53125 5.46875 C 6.796875 5.199219 6.988281 4.945312 7.101562 4.707031 C 7.222656 4.46875 7.285156 4.222656 7.285156 3.976562 C 7.285156 3.523438 7.128906 3.15625 6.824219 2.878906 C 6.523438 2.597656 6.121094 2.460938 5.621094 2.460938 C 5.253906 2.460938 4.863281 2.546875 4.445312 2.726562 C 4.03125 2.902344 3.601562 3.164062 3.152344 3.503906 L 3.152344 2.070312 C 3.585938 1.78125 4.027344 1.566406 4.472656 1.421875 C 4.921875 1.28125 5.386719 1.210938 5.863281 1.210938 C 6.71875 1.210938 7.402344 1.457031 7.917969 1.949219 C 8.4375 2.441406 8.695312 3.089844 8.695312 3.898438 C 8.695312 4.285156 8.613281 4.652344 8.445312 5.003906 C 8.277344 5.347656 7.984375 5.742188 7.570312 6.175781 L 6.957031 6.832031 C 6.738281 7.070312 6.582031 7.257812 6.492188 7.394531 C 6.402344 7.527344 6.339844 7.65625 6.304688 7.785156 C 6.273438 7.890625 6.253906 8.019531 6.238281 8.171875 C 6.226562 8.324219 6.21875 8.535156 6.21875 8.796875 Z M 6.21875 9.734375 "/>
</svg>
