<?xml version="1.0" encoding="UTF-8"?>
<svg xmlns="http://www.w3.org/2000/svg" xmlns:xlink="http://www.w3.org/1999/xlink" width="11.847251" height="14" viewBox="0 0 11.847251 14">
<path fill-rule="evenodd" fill="rgb(100%, 100%, 100%)" fill-opacity="1" stroke-width="0.0192436" stroke-linecap="round" stroke-linejoin="bevel" stroke="rgb(0%, 0%, 0%)" stroke-opacity="1" stroke-miterlimit="0" d="M 3.944185 3.767911 L 35.945272 3.767911 L 35.945272 41.586417 L 3.944185 41.586417 Z M 3.944185 3.767911 " transform="matrix(0.369983, 0, 0, 0.369983, -1.455373, -1.390155)"/>
<path fill-rule="evenodd" fill="rgb(0%, 7.843137%, 100%)" fill-opacity="1" d="M 8.863281 10.550781 L 8.863281 8.1875 C 8.863281 7.480469 8.722656 7.003906 8.210938 6.492188 C 7.699219 5.996094 7.222656 5.839844 6.515625 5.839844 L 4.554688 5.839844 C 4.785156 5.148438 4.980469 4.78125 5.386719 4.160156 C 6.195312 2.945312 6.957031 2.609375 7.484375 2.21875 C 7.75 2.007812 7.785156 1.601562 7.589844 1.335938 C 7.363281 1.019531 7.007812 1.054688 6.746094 1.25 C 6.160156 1.707031 5.050781 2.503906 4.34375 3.597656 C 3.460938 4.972656 2.984375 6.386719 2.984375 8.1875 L 2.984375 10.550781 C 2.984375 12.015625 4.449219 12.898438 5.933594 12.898438 C 7.398438 12.898438 8.863281 12.015625 8.863281 10.550781 Z M 7.699219 10.515625 C 7.699219 11.347656 6.746094 11.699219 5.933594 11.699219 C 5.101562 11.699219 4.167969 11.347656 4.167969 10.515625 L 4.167969 8.1875 C 4.167969 7.972656 4.167969 7.851562 4.183594 7.621094 C 4.203125 7.390625 4.238281 7.234375 4.289062 7.019531 L 6.496094 7.019531 C 6.851562 7.019531 7.078125 7.074219 7.34375 7.320312 C 7.589844 7.570312 7.699219 7.816406 7.699219 8.167969 Z M 7.699219 10.515625 "/>
</svg>
