<?xml version="1.0" encoding="UTF-8"?>
<svg xmlns="http://www.w3.org/2000/svg" xmlns:xlink="http://www.w3.org/1999/xlink" width="11.847251" height="14" viewBox="0 0 11.847251 14">
<path fill-rule="evenodd" fill="rgb(100%, 100%, 100%)" fill-opacity="1" stroke-width="0.0192436" stroke-linecap="round" stroke-linejoin="bevel" stroke="rgb(0%, 0%, 0%)" stroke-opacity="1" stroke-miterlimit="0" d="M 3.944185 3.767911 L 35.945272 3.767911 L 35.945272 41.586417 L 3.944185 41.586417 Z M 3.944185 3.767911 " transform="matrix(0.369983, 0, 0, 0.369983, -1.455373, -1.390155)"/>
<path fill-rule="evenodd" fill="rgb(0%, 7.843137%, 100%)" fill-opacity="1" d="M 4.015625 12.285156 L 4.015625 1.714844 C 4.015625 1.535156 3.960938 1.394531 3.835938 1.273438 C 3.730469 1.148438 3.238281 1.023438 3.007812 1.253906 L 0.640625 3.621094 C 0.394531 3.867188 0.484375 4.324219 0.660156 4.503906 C 0.820312 4.679688 1.242188 4.714844 1.472656 4.484375 L 2.832031 3.109375 L 2.832031 12.304688 C 2.832031 12.621094 3.113281 12.886719 3.429688 12.886719 C 3.75 12.886719 4.015625 12.621094 4.015625 12.285156 Z M 11.355469 9.9375 L 11.355469 4.0625 C 11.355469 2.4375 10.050781 1.113281 8.425781 1.113281 C 6.804688 1.113281 5.480469 2.4375 5.480469 4.0625 L 5.480469 9.9375 C 5.480469 11.5625 6.804688 12.886719 8.425781 12.886719 C 10.050781 12.886719 11.355469 11.5625 11.355469 9.9375 Z M 10.191406 9.9375 C 10.191406 10.925781 9.398438 11.703125 8.425781 11.703125 C 7.4375 11.703125 6.660156 10.925781 6.660156 9.9375 L 6.660156 4.0625 C 6.660156 3.089844 7.4375 2.296875 8.425781 2.296875 C 9.398438 2.296875 10.191406 3.089844 10.191406 4.0625 Z M 10.191406 9.9375 "/>
</svg>
