<?xml version="1.0" encoding="UTF-8"?>
<svg xmlns="http://www.w3.org/2000/svg" xmlns:xlink="http://www.w3.org/1999/xlink" width="16" height="16" viewBox="0 0 16 16">
<path fill-rule="evenodd" fill="rgb(100%, 100%, 100%)" fill-opacity="1" stroke-width="0.03" stroke-linecap="butt" stroke-linejoin="bevel" stroke="rgb(0%, 0%, 0%)" stroke-opacity="1" stroke-miterlimit="4" d="M 40.000337 25 C 40.000337 33.284644 33.284644 40.000337 25 40.000337 C 16.715356 40.000337 9.999663 33.284644 9.999663 25 C 9.999663 16.715356 16.715356 9.999663 25 9.999663 C 33.284644 9.999663 40.000337 16.715356 40.000337 25 Z M 40.000337 25 " transform="matrix(0.532801, 0, 0, 0.532801, -5.320013, -5.320013)"/>
<path fill="none" stroke-width="0.41791" stroke-linecap="butt" stroke-linejoin="bevel" stroke="rgb(0%, 0%, 0%)" stroke-opacity="1" stroke-miterlimit="4" d="M 38.790633 25 C 38.790633 32.617473 32.617473 38.790633 25 38.790633 C 17.382527 38.790633 11.209367 32.617473 11.209367 25 C 11.209367 17.382527 17.382527 11.209367 25 11.209367 C 32.617473 11.209367 38.790633 17.382527 38.790633 25 Z M 38.790633 25 " transform="matrix(0.532801, 0, 0, 0.532801, -5.320013, -5.320013)"/>
<path fill-rule="evenodd" fill="rgb(0%, 0%, 0%)" fill-opacity="1" d="M 7.164062 9.488281 C 7.207031 8.636719 6.929688 8.027344 6.265625 7.484375 C 6.644531 7.085938 6.796875 6.710938 6.796875 6.15625 C 6.796875 5.238281 6.246094 4.308594 5.3125 4.308594 L 3.097656 4.308594 C 2.988281 4.308594 2.921875 4.339844 2.84375 4.417969 C 2.765625 4.507812 2.734375 4.574219 2.734375 4.683594 L 2.734375 11.328125 C 2.734375 11.4375 2.734375 11.527344 2.820312 11.617188 C 2.898438 11.691406 2.988281 11.691406 3.097656 11.691406 L 5.3125 11.691406 C 6.433594 11.691406 7.109375 10.609375 7.164062 9.488281 Z M 6.054688 6.15625 C 6.054688 6.675781 5.835938 7.261719 5.3125 7.261719 L 3.476562 7.261719 L 3.476562 5.046875 L 5.3125 5.046875 C 5.835938 5.046875 6.054688 5.636719 6.054688 6.15625 Z M 6.421875 9.476562 C 6.421875 10.199219 6.042969 10.953125 5.3125 10.953125 L 3.476562 10.953125 L 3.476562 8.003906 L 5.3125 8.003906 C 6.042969 8.003906 6.421875 8.757812 6.421875 9.476562 Z M 13.253906 11.238281 L 11.007812 4.527344 C 10.949219 4.382812 10.839844 4.308594 10.683594 4.308594 C 10.507812 4.308594 10.375 4.394531 10.320312 4.550781 L 8.09375 11.195312 C 8.027344 11.417969 8.171875 11.691406 8.449219 11.691406 C 8.679688 11.691406 8.746094 11.59375 8.800781 11.425781 L 9.457031 9.476562 L 11.882812 9.476562 L 12.523438 11.425781 C 12.566406 11.59375 12.710938 11.691406 12.878906 11.691406 C 13.097656 11.691406 13.320312 11.449219 13.253906 11.238281 Z M 11.636719 8.738281 L 9.699219 8.738281 L 10.683594 5.8125 Z M 11.636719 8.738281 "/>
</svg>
