<?xml version="1.0" encoding="UTF-8"?>
<svg xmlns="http://www.w3.org/2000/svg" xmlns:xlink="http://www.w3.org/1999/xlink" width="19.717345" height="14" viewBox="0 0 19.717345 14">
<path fill-rule="evenodd" fill="rgb(100%, 100%, 100%)" fill-opacity="1" stroke-width="0.0190649" stroke-linecap="butt" stroke-linejoin="bevel" stroke="rgb(0%, 0%, 0%)" stroke-opacity="1" stroke-miterlimit="4" d="M 0.644689 0.00781442 L 19.074995 0.00781442 C 19.426643 0.00781442 19.71187 0.293041 19.71187 0.64469 L 19.71187 13.358748 C 19.71187 13.710397 19.426643 13.995624 19.074995 13.995624 L 0.644689 13.995624 C 0.29304 13.995624 0.00781346 13.710397 0.00781346 13.358748 L 0.00781346 0.64469 C 0.00781346 0.293041 0.29304 0.00781442 0.644689 0.00781442 Z M 0.644689 0.00781442 " transform="matrix(0.999754, 0, 0, 0.999754, 0.00000095344, 0)"/>
<path fill-rule="evenodd" fill="rgb(0%, 0%, 0%)" fill-opacity="1" stroke-width="0.0336761" stroke-linecap="butt" stroke-linejoin="bevel" stroke="rgb(0%, 0%, 0%)" stroke-opacity="1" stroke-miterlimit="4" d="M 13.155573 11.952153 L 13.155573 2.070821 C 13.155573 1.773873 12.909418 1.508183 12.612471 1.508183 C 12.315523 1.508183 12.05374 1.773873 12.05374 2.070821 L 12.05374 5.9077 L 7.673758 5.9077 L 7.673758 2.070821 C 7.673758 1.773873 7.408068 1.508183 7.11112 1.508183 C 6.814172 1.508183 6.568018 1.773873 6.568018 2.070821 L 6.568018 11.952153 C 6.568018 12.245194 6.814172 12.495255 7.11112 12.495255 C 7.408068 12.495255 7.673758 12.245194 7.673758 11.952153 L 7.673758 7.009533 L 12.05374 7.009533 L 12.05374 11.952153 C 12.05374 12.245194 12.315523 12.495255 12.612471 12.495255 C 12.909418 12.495255 13.155573 12.245194 13.155573 11.952153 Z M 13.155573 11.952153 " transform="matrix(0.999754, 0, 0, 0.999754, 0.00000095344, 0)"/>
</svg>
