<?xml version="1.0" encoding="UTF-8"?>
<svg xmlns="http://www.w3.org/2000/svg" xmlns:xlink="http://www.w3.org/1999/xlink" width="6.97561" height="22" viewBox="0 0 6.97561 22">
<path fill-rule="nonzero" fill="rgb(100%, 100%, 100%)" fill-opacity="1" stroke-width="0.4" stroke-linecap="butt" stroke-linejoin="round" stroke="rgb(0%, 0%, 0%)" stroke-opacity="0.5" stroke-miterlimit="4" d="M 11.99717 -0.00710408 C 11.99717 -0.00710408 47.027741 9.019893 82.000073 9.019893 C 116.972405 9.019893 152.002976 -0.00710408 152.002976 -0.00710408 C 152.002976 -0.00710408 164.000145 12.980123 164.000145 25.99647 C 164.000145 39.012817 152.002976 52.000044 152.002976 52.000044 C 152.002976 52.000044 116.972405 43.002167 82.000073 43.002167 C 47.027741 43.002167 11.99717 52.000044 11.99717 52.000044 C 11.99717 52.000044 -0.000000000000002488 39.012817 -0.000000000000001658 25.99647 C -0.000000000000000828 12.980123 11.99717 -0.00710408 11.99717 -0.00710408 Z M 11.99717 -0.00710408 " transform="matrix(0.000000000000000009, 0.134146, -0.134146, 0.000000000000000009, 6.97561, 0)"/>
<path fill-rule="nonzero" fill="rgb(0%, 0%, 0%)" fill-opacity="1" d="M 4.292969 1.355469 L 4.292969 20.644531 C 4.292969 20.652344 4.289062 20.660156 4.277344 20.660156 L 2.699219 20.660156 C 2.6875 20.660156 2.683594 20.652344 2.683594 20.644531 L 2.683594 1.355469 C 2.683594 1.347656 2.6875 1.339844 2.699219 1.339844 L 4.277344 1.339844 C 4.289062 1.339844 4.292969 1.347656 4.292969 1.355469 Z M 4.292969 1.355469 "/>
</svg>
