<?xml version="1.0" encoding="UTF-8"?>
<svg xmlns="http://www.w3.org/2000/svg" xmlns:xlink="http://www.w3.org/1999/xlink" width="16.666667" height="16" viewBox="0 0 16.666667 16">
<path fill-rule="nonzero" fill="rgb(100%, 100%, 100%)" fill-opacity="1" stroke-width="0.3" stroke-linecap="butt" stroke-linejoin="miter" stroke="rgb(0%, 0%, 0%)" stroke-opacity="1" stroke-miterlimit="4" d="M 2.507812 62.109375 L 31.804687 11.109375 C 39.703125 -2.390625 58.992187 -2.507812 67.007812 11.109375 L 96.398437 62.109375 C 105.398437 77.90625 90.492187 95.296875 75.304687 95.296875 L 22.101562 95.296875 C 5.695312 95.390625 -3.703125 73.804688 2.507812 62.109375 Z M 2.507812 62.109375 " transform="matrix(0.166667, 0, 0, 0.166667, 0, 0)"/>
<path fill-rule="nonzero" fill="rgb(0%, 0%, 0%)" fill-opacity="1" d="M 1.449219 10.265625 L 5.714844 2.851562 C 7.117188 0.398438 9.351562 0.398438 10.816406 2.851562 L 15.082031 10.265625 C 16.332031 12.332031 14.882812 15.082031 12.015625 15.082031 L 4.300781 15.082031 C 1.535156 15.066406 0.5 12.082031 1.449219 10.265625 Z M 1.449219 10.265625 "/>
<path fill-rule="nonzero" fill="rgb(84.705883%, 83.137256%, 71.372551%)" fill-opacity="1" stroke-width="1.7" stroke-linecap="butt" stroke-linejoin="miter" stroke="rgb(84.705883%, 83.137256%, 71.372551%)" stroke-opacity="0.72549" stroke-miterlimit="4" d="M 37.089062 70.710938 C 37.089062 76.992188 32.003124 82.101562 25.698437 82.101562 C 19.393749 82.101562 14.307812 76.992188 14.307812 70.710938 C 14.307812 64.40625 19.393749 59.296875 25.698437 59.296875 C 32.003124 59.296875 37.089062 64.40625 37.089062 70.710938 Z M 37.089062 70.710938 " transform="matrix(0.166667, 0, 0, 0.166667, 8.033333, 0)"/>
<path fill-rule="nonzero" fill="rgb(84.705883%, 83.137256%, 71.372551%)" fill-opacity="1" stroke-width="1.7" stroke-linecap="butt" stroke-linejoin="miter" stroke="rgb(84.705883%, 83.137256%, 71.372551%)" stroke-opacity="0.72549" stroke-miterlimit="4" d="M 37.098438 70.709373 C 37.098438 76.990623 31.989063 82.099998 25.707813 82.099998 C 19.403126 82.099998 14.293751 76.990623 14.293751 70.709373 C 14.293751 64.404686 19.403126 59.295311 25.707813 59.295311 C 31.989063 59.295311 37.098438 64.404686 37.098438 70.709373 Z M 37.098438 70.709373 " transform="matrix(0.166667, 0, 0, 0.166667, 3.883333, -7.683333)"/>
<path fill="none" stroke-width="1.7" stroke-linecap="butt" stroke-linejoin="miter" stroke="rgb(23.921569%, 23.921569%, 23.921569%)" stroke-opacity="1" stroke-miterlimit="4" d="M 85.301563 70.710938 C 85.301563 76.992188 80.192188 82.101562 73.910938 82.101562 C 67.606251 82.101562 62.496876 76.992188 62.496876 70.710938 C 62.496876 64.40625 67.606251 59.296875 73.910938 59.296875 C 80.192188 59.296875 85.301563 64.40625 85.301563 70.710938 Z M 85.301563 70.710938 " transform="matrix(0.166667, 0, 0, 0.166667, -8.033333, 0)"/>
</svg>
