<?xml version="1.0" encoding="UTF-8"?>
<svg xmlns="http://www.w3.org/2000/svg" xmlns:xlink="http://www.w3.org/1999/xlink" width="20" height="17.320995" viewBox="0 0 20 17.320995">
<path fill-rule="nonzero" fill="rgb(92.941176%, 84.705882%, 15.294118%)" fill-opacity="1" d="M 20 0 L 0 0 L 10 17.320312 Z M 20 0 "/>
<path fill-rule="evenodd" fill="rgb(0%, 0%, 0%)" fill-opacity="1" d="M 11.777344 8.191406 L 11.777344 6.761719 C 11.777344 6.335938 11.691406 6.046875 11.382812 5.738281 C 11.070312 5.441406 10.785156 5.34375 10.355469 5.34375 L 9.171875 5.34375 C 9.3125 4.929688 9.429688 4.703125 9.675781 4.332031 C 10.164062 3.59375 10.625 3.390625 10.945312 3.15625 C 11.105469 3.03125 11.125 2.785156 11.007812 2.625 C 10.871094 2.433594 10.65625 2.453125 10.496094 2.570312 C 10.144531 2.847656 9.472656 3.328125 9.046875 3.988281 C 8.511719 4.820312 8.222656 5.675781 8.222656 6.761719 L 8.222656 8.191406 C 8.222656 9.078125 9.109375 9.609375 10.003906 9.609375 C 10.890625 9.609375 11.777344 9.078125 11.777344 8.191406 Z M 11.070312 8.171875 C 11.070312 8.671875 10.496094 8.886719 10.003906 8.886719 C 9.503906 8.886719 8.9375 8.671875 8.9375 8.171875 L 8.9375 6.761719 C 8.9375 6.636719 8.9375 6.558594 8.949219 6.421875 C 8.960938 6.28125 8.980469 6.1875 9.011719 6.058594 L 10.347656 6.058594 C 10.558594 6.058594 10.699219 6.089844 10.859375 6.238281 C 11.007812 6.390625 11.070312 6.539062 11.070312 6.753906 Z M 11.070312 8.171875 "/>
</svg>
