<?xml version="1.0" encoding="UTF-8"?>
<svg xmlns="http://www.w3.org/2000/svg" xmlns:xlink="http://www.w3.org/1999/xlink" width="20" height="17.320995" viewBox="0 0 20 17.320995">
<path fill-rule="nonzero" fill="rgb(92.941176%, 84.705882%, 15.294118%)" fill-opacity="1" d="M 20 0 L 0 0 L 10 17.320312 Z M 20 0 "/>
<path fill-rule="evenodd" fill="rgb(0%, 0%, 0%)" fill-opacity="1" d="M 8.617188 5.324219 C 8.683594 5.441406 8.769531 5.527344 8.851562 5.609375 C 8.683594 5.75 8.585938 5.84375 8.46875 6.039062 C 8.320312 6.28125 8.222656 6.453125 8.222656 6.742188 L 8.222656 8.171875 C 8.222656 9.054688 9.109375 9.589844 10.003906 9.589844 C 10.890625 9.589844 11.777344 9.054688 11.777344 8.171875 L 11.777344 6.742188 C 11.777344 6.464844 11.753906 6.28125 11.605469 6.039062 C 11.476562 5.835938 11.347656 5.71875 11.148438 5.609375 C 11.253906 5.515625 11.308594 5.441406 11.390625 5.324219 C 11.542969 5.078125 11.605469 4.90625 11.605469 4.609375 L 11.605469 3.902344 C 11.605469 3.070312 10.835938 2.476562 10.003906 2.476562 C 9.171875 2.476562 8.40625 3.070312 8.40625 3.902344 L 8.40625 4.609375 C 8.40625 4.90625 8.46875 5.078125 8.617188 5.324219 Z M 10.890625 4.609375 C 10.890625 5.054688 10.441406 5.324219 10.003906 5.324219 C 9.558594 5.324219 9.109375 5.054688 9.109375 4.609375 L 9.109375 3.902344 C 9.109375 3.457031 9.558594 3.191406 10.003906 3.191406 C 10.441406 3.191406 10.890625 3.457031 10.890625 3.902344 Z M 11.070312 8.171875 C 11.070312 8.660156 10.507812 8.875 10.015625 8.875 C 9.515625 8.886719 8.9375 8.671875 8.9375 8.171875 L 8.9375 6.742188 C 8.9375 6.238281 9.492188 6.015625 10.003906 6.015625 C 10.507812 6.015625 11.070312 6.238281 11.070312 6.742188 Z M 11.070312 8.171875 "/>
</svg>
