<?xml version="1.0" encoding="UTF-8"?>
<svg xmlns="http://www.w3.org/2000/svg" xmlns:xlink="http://www.w3.org/1999/xlink" width="20" height="17.320995" viewBox="0 0 20 17.320995">
<path fill-rule="nonzero" fill="rgb(92.941176%, 84.705882%, 15.294118%)" fill-opacity="1" d="M 20 0 L 0 0 L 10 17.320312 Z M 20 0 "/>
<path fill-rule="evenodd" fill="rgb(0%, 0%, 0%)" fill-opacity="1" d="M 8.847656 9.226562 L 8.847656 2.835938 C 8.847656 2.730469 8.8125 2.644531 8.738281 2.570312 C 8.675781 2.496094 8.375 2.421875 8.238281 2.558594 L 6.808594 3.988281 C 6.660156 4.140625 6.710938 4.417969 6.820312 4.523438 C 6.914062 4.628906 7.171875 4.652344 7.308594 4.511719 L 8.132812 3.679688 L 8.132812 9.238281 C 8.132812 9.429688 8.300781 9.589844 8.492188 9.589844 C 8.6875 9.589844 8.847656 9.429688 8.847656 9.226562 Z M 13.28125 9.238281 C 13.28125 9.046875 13.125 8.875 12.929688 8.875 L 10.722656 8.875 L 13.027344 5.207031 C 13.21875 4.886719 13.28125 4.628906 13.28125 4.257812 C 13.304688 3.191406 12.492188 2.515625 11.511719 2.476562 C 10.734375 2.453125 10.199219 2.804688 9.785156 3.476562 C 9.699219 3.625 9.65625 4.042969 10.082031 4.074219 C 10.210938 4.074219 10.316406 4.03125 10.382812 3.914062 C 10.660156 3.425781 10.914062 3.179688 11.511719 3.191406 C 12.25 3.199219 12.570312 3.667969 12.578125 4.257812 C 12.578125 4.480469 12.546875 4.609375 12.429688 4.820312 L 9.785156 9.023438 C 9.742188 9.097656 9.730469 9.152344 9.730469 9.238281 C 9.742188 9.429688 9.890625 9.578125 10.082031 9.589844 L 12.929688 9.589844 C 13.125 9.589844 13.28125 9.429688 13.28125 9.238281 Z M 13.28125 9.238281 "/>
</svg>
