<?xml version="1.0" encoding="UTF-8"?>
<svg xmlns="http://www.w3.org/2000/svg" xmlns:xlink="http://www.w3.org/1999/xlink" width="20" height="17.320995" viewBox="0 0 20 17.320995">
<path fill-rule="nonzero" fill="rgb(92.941176%, 84.705882%, 15.294118%)" fill-opacity="1" d="M 20 0 L 0 0 L 10 17.320312 Z M 20 0 "/>
<path fill-rule="evenodd" fill="rgb(0%, 0%, 0%)" fill-opacity="1" d="M 12.136719 7.808594 C 12.136719 7.617188 11.976562 7.457031 11.785156 7.457031 L 11.070312 7.457031 L 11.070312 6.378906 C 11.070312 6.1875 10.910156 6.039062 10.71875 6.039062 C 10.527344 6.039062 10.355469 6.199219 10.355469 6.390625 L 10.355469 7.457031 L 8.691406 7.457031 L 9.992188 2.902344 C 10.046875 2.699219 9.910156 2.476562 9.652344 2.476562 C 9.523438 2.464844 9.355469 2.550781 9.3125 2.710938 L 7.871094 7.722656 C 7.839844 7.863281 7.902344 8.023438 7.96875 8.0625 C 8.050781 8.140625 8.117188 8.171875 8.222656 8.171875 L 10.355469 8.171875 L 10.355469 9.238281 C 10.355469 9.429688 10.527344 9.589844 10.71875 9.589844 C 10.910156 9.589844 11.070312 9.429688 11.070312 9.238281 L 11.070312 8.171875 L 11.785156 8.171875 C 11.976562 8.171875 12.136719 8 12.136719 7.808594 Z M 12.136719 7.808594 "/>
</svg>
