<?xml version="1.0" encoding="UTF-8"?>
<svg xmlns="http://www.w3.org/2000/svg" xmlns:xlink="http://www.w3.org/1999/xlink" width="20" height="17.320995" viewBox="0 0 20 17.320995">
<path fill-rule="nonzero" fill="rgb(92.941176%, 84.705882%, 15.294118%)" fill-opacity="1" d="M 20 0 L 0 0 L 10 17.320312 Z M 20 0 "/>
<path fill-rule="evenodd" fill="rgb(0%, 0%, 0%)" fill-opacity="1" d="M 8.839844 9.226562 L 8.839844 2.835938 C 8.839844 2.730469 8.808594 2.644531 8.734375 2.570312 C 8.671875 2.496094 8.371094 2.421875 8.234375 2.558594 L 6.804688 3.988281 C 6.652344 4.140625 6.707031 4.417969 6.8125 4.523438 C 6.910156 4.628906 7.167969 4.652344 7.304688 4.511719 L 8.125 3.679688 L 8.125 9.238281 C 8.125 9.429688 8.296875 9.589844 8.488281 9.589844 C 8.679688 9.589844 8.839844 9.429688 8.839844 9.226562 Z M 13.289062 7.808594 L 13.289062 7.105469 C 13.289062 6.507812 13.011719 5.921875 12.59375 5.675781 C 12.949219 5.386719 13.234375 4.863281 13.234375 4.277344 C 13.234375 3.777344 13.105469 3.414062 12.796875 3.0625 C 12.511719 2.730469 12.019531 2.496094 11.464844 2.496094 L 10.035156 2.496094 C 9.84375 2.496094 9.683594 2.667969 9.683594 2.859375 C 9.683594 3.050781 9.84375 3.210938 10.035156 3.210938 L 11.464844 3.210938 C 11.796875 3.210938 12.074219 3.339844 12.253906 3.542969 C 12.46875 3.765625 12.53125 4.265625 12.53125 4.265625 C 12.53125 4.597656 12.433594 4.832031 12.191406 5.054688 C 11.964844 5.257812 11.761719 5.324219 11.464844 5.324219 L 10.792969 5.324219 C 10.601562 5.324219 10.441406 5.484375 10.441406 5.675781 C 10.441406 5.867188 10.601562 6.039062 10.792969 6.039062 L 11.507812 6.039062 C 11.804688 6.039062 12.019531 6.101562 12.234375 6.304688 C 12.488281 6.527344 12.574219 6.761719 12.574219 7.105469 L 12.574219 7.808594 C 12.574219 8.117188 12.519531 8.320312 12.308594 8.554688 C 12.125 8.746094 11.847656 8.875 11.507812 8.875 L 10.089844 8.875 C 9.898438 8.875 9.738281 9.046875 9.738281 9.238281 C 9.738281 9.429688 9.898438 9.589844 10.089844 9.589844 L 11.507812 9.589844 C 12.074219 9.589844 12.554688 9.367188 12.851562 9.023438 C 13.148438 8.683594 13.289062 8.320312 13.289062 7.808594 Z M 13.289062 7.808594 "/>
</svg>
