<?xml version="1.0" encoding="UTF-8"?>
<svg xmlns="http://www.w3.org/2000/svg" xmlns:xlink="http://www.w3.org/1999/xlink" width="20" height="17.320995" viewBox="0 0 20 17.320995">
<path fill-rule="nonzero" fill="rgb(92.941176%, 84.705882%, 15.294118%)" fill-opacity="1" d="M 20 0 L 0 0 L 10 17.320312 Z M 20 0 "/>
<path fill-rule="evenodd" fill="rgb(0%, 0%, 0%)" fill-opacity="1" d="M 11.785156 2.835938 C 11.785156 2.636719 11.625 2.476562 11.433594 2.476562 L 8.585938 2.476562 C 8.492188 2.476562 8.414062 2.496094 8.351562 2.558594 C 8.265625 2.644531 8.234375 2.71875 8.234375 2.835938 L 8.234375 5.675781 C 8.234375 5.792969 8.265625 5.867188 8.351562 5.953125 C 8.414062 6.015625 8.492188 6.039062 8.585938 6.039062 L 9.996094 6.039062 C 10.292969 6.039062 10.496094 6.101562 10.71875 6.304688 C 10.964844 6.527344 11.0625 6.761719 11.0625 7.105469 L 11.0625 7.808594 C 11.0625 8.117188 10.996094 8.320312 10.785156 8.554688 C 10.601562 8.746094 10.324219 8.875 9.996094 8.875 L 8.566406 8.875 C 8.375 8.875 8.214844 9.046875 8.214844 9.238281 C 8.214844 9.429688 8.375 9.589844 8.566406 9.589844 L 9.996094 9.589844 C 10.550781 9.589844 11.039062 9.367188 11.328125 9.023438 C 11.636719 8.683594 11.765625 8.320312 11.765625 7.808594 L 11.765625 7.105469 C 11.765625 6.507812 11.5 5.996094 11.148438 5.707031 C 10.847656 5.460938 10.304688 5.324219 9.996094 5.324219 L 8.949219 5.324219 L 8.949219 3.191406 L 11.433594 3.191406 C 11.625 3.191406 11.785156 3.050781 11.785156 2.835938 Z M 11.785156 2.835938 "/>
</svg>
