<?xml version="1.0" encoding="UTF-8"?>
<svg xmlns="http://www.w3.org/2000/svg" xmlns:xlink="http://www.w3.org/1999/xlink" width="20" height="17.320995" viewBox="0 0 20 17.320995">
<path fill-rule="nonzero" fill="rgb(92.941176%, 84.705882%, 15.294118%)" fill-opacity="1" d="M 20 0 L 0 0 L 10 17.320312 Z M 20 0 "/>
<path fill-rule="evenodd" fill="rgb(0%, 0%, 0%)" fill-opacity="1" d="M 11.765625 2.890625 C 11.796875 2.753906 11.765625 2.65625 11.667969 2.558594 C 11.59375 2.496094 11.519531 2.476562 11.421875 2.476562 L 8.574219 2.476562 C 8.488281 2.476562 8.414062 2.496094 8.339844 2.558594 C 8.253906 2.625 8.222656 2.71875 8.222656 2.835938 L 8.222656 3.542969 C 8.222656 3.734375 8.382812 3.902344 8.574219 3.902344 C 8.765625 3.902344 8.9375 3.734375 8.9375 3.542969 L 8.9375 3.191406 L 10.976562 3.191406 L 9.664062 9.128906 C 9.609375 9.34375 9.707031 9.601562 10.003906 9.589844 C 10.164062 9.578125 10.304688 9.484375 10.335938 9.324219 Z M 11.765625 2.890625 "/>
</svg>
