<?xml version="1.0" encoding="UTF-8"?>
<svg xmlns="http://www.w3.org/2000/svg" xmlns:xlink="http://www.w3.org/1999/xlink" width="20" height="17.320995" viewBox="0 0 20 17.320995">
<path fill-rule="nonzero" fill="rgb(92.941176%, 84.705882%, 15.294118%)" fill-opacity="1" d="M 20 0 L 0 0 L 10 17.320312 Z M 20 0 "/>
<path fill-rule="evenodd" fill="rgb(0%, 0%, 0%)" fill-opacity="1" d="M 11.800781 7.808594 L 11.800781 7.105469 C 11.800781 6.507812 11.523438 5.921875 11.109375 5.675781 C 11.460938 5.386719 11.75 4.863281 11.75 4.277344 C 11.75 3.777344 11.621094 3.414062 11.3125 3.0625 C 11.023438 2.730469 10.535156 2.496094 9.980469 2.496094 L 8.550781 2.496094 C 8.355469 2.496094 8.199219 2.667969 8.199219 2.859375 C 8.199219 3.050781 8.355469 3.210938 8.550781 3.210938 L 9.980469 3.210938 C 10.308594 3.210938 10.585938 3.339844 10.769531 3.542969 C 10.980469 3.765625 11.046875 4.265625 11.046875 4.265625 C 11.046875 4.597656 10.949219 4.832031 10.703125 5.054688 C 10.480469 5.257812 10.277344 5.324219 9.980469 5.324219 L 9.308594 5.324219 C 9.113281 5.324219 8.953125 5.484375 8.953125 5.675781 C 8.953125 5.867188 9.113281 6.039062 9.308594 6.039062 L 10.019531 6.039062 C 10.320312 6.039062 10.535156 6.101562 10.746094 6.304688 C 11.003906 6.527344 11.089844 6.761719 11.089844 7.105469 L 11.089844 7.808594 C 11.089844 8.117188 11.035156 8.320312 10.820312 8.554688 C 10.640625 8.746094 10.363281 8.875 10.019531 8.875 L 8.601562 8.875 C 8.410156 8.875 8.25 9.046875 8.25 9.238281 C 8.25 9.429688 8.410156 9.589844 8.601562 9.589844 L 10.019531 9.589844 C 10.585938 9.589844 11.066406 9.367188 11.367188 9.023438 C 11.664062 8.683594 11.800781 8.320312 11.800781 7.808594 Z M 11.800781 7.808594 "/>
</svg>
