<?xml version="1.0" encoding="UTF-8"?>
<svg xmlns="http://www.w3.org/2000/svg" xmlns:xlink="http://www.w3.org/1999/xlink" width="20" height="17.320995" viewBox="0 0 20 17.320995">
<path fill-rule="nonzero" fill="rgb(92.941176%, 84.705882%, 15.294118%)" fill-opacity="1" d="M 20 0 L 0 0 L 10 17.320312 Z M 20 0 "/>
<path fill-rule="evenodd" fill="rgb(0%, 0%, 0%)" fill-opacity="1" d="M 11.777344 9.238281 C 11.777344 9.046875 11.617188 8.875 11.425781 8.875 L 9.21875 8.875 L 11.519531 5.207031 C 11.714844 4.886719 11.777344 4.628906 11.777344 4.257812 C 11.796875 3.191406 10.988281 2.515625 10.007812 2.476562 C 9.226562 2.453125 8.695312 2.804688 8.277344 3.476562 C 8.191406 3.625 8.148438 4.042969 8.578125 4.074219 C 8.703125 4.074219 8.8125 4.03125 8.875 3.914062 C 9.152344 3.425781 9.410156 3.179688 10.007812 3.191406 C 10.742188 3.199219 11.0625 3.667969 11.074219 4.257812 C 11.074219 4.480469 11.039062 4.609375 10.921875 4.820312 L 8.277344 9.023438 C 8.234375 9.097656 8.226562 9.152344 8.226562 9.238281 C 8.234375 9.429688 8.386719 9.578125 8.578125 9.589844 L 11.425781 9.589844 C 11.617188 9.589844 11.777344 9.429688 11.777344 9.238281 Z M 11.777344 9.238281 "/>
</svg>
