<?xml version="1.0" encoding="UTF-8"?>
<svg xmlns="http://www.w3.org/2000/svg" xmlns:xlink="http://www.w3.org/1999/xlink" width="20" height="17.320995" viewBox="0 0 20 17.320995">
<path fill-rule="nonzero" fill="rgb(92.941176%, 84.705882%, 15.294118%)" fill-opacity="1" d="M 20 0 L 0 0 L 10 17.320312 Z M 20 0 "/>
<path fill-rule="evenodd" fill="rgb(0%, 0%, 0%)" fill-opacity="1" d="M 11.78125 5.324219 L 11.78125 3.902344 C 11.78125 3.007812 10.886719 2.476562 10 2.476562 C 9.113281 2.476562 8.21875 3.007812 8.21875 3.902344 L 8.21875 5.324219 C 8.21875 5.75 8.316406 6.039062 8.625 6.347656 C 8.921875 6.65625 9.222656 6.742188 9.648438 6.742188 L 10.820312 6.742188 C 10.691406 7.167969 10.574219 7.382812 10.332031 7.753906 C 9.839844 8.492188 9.371094 8.703125 9.0625 8.9375 C 8.902344 9.054688 8.878906 9.300781 8.988281 9.460938 C 9.136719 9.652344 9.347656 9.644531 9.5 9.515625 C 9.863281 9.238281 10.523438 8.757812 10.949219 8.097656 C 11.492188 7.265625 11.78125 6.410156 11.78125 5.324219 Z M 11.066406 5.324219 C 11.066406 5.460938 11.066406 5.527344 11.054688 5.664062 C 11.035156 5.804688 11.023438 5.898438 10.992188 6.039062 L 9.660156 6.039062 C 9.445312 6.039062 9.308594 5.996094 9.148438 5.84375 C 8.988281 5.695312 8.933594 5.546875 8.933594 5.332031 L 8.933594 3.914062 C 8.933594 3.414062 9.5 3.199219 10 3.199219 C 10.5 3.199219 11.066406 3.414062 11.066406 3.914062 Z M 11.066406 5.324219 "/>
</svg>
