<?xml version="1.0" encoding="UTF-8"?>
<svg xmlns="http://www.w3.org/2000/svg" xmlns:xlink="http://www.w3.org/1999/xlink" width="20" height="17.320995" viewBox="0 0 20 17.320995">
<path fill-rule="nonzero" fill="rgb(92.941176%, 84.705882%, 15.294118%)" fill-opacity="1" d="M 20 0 L 0 0 L 10 17.320312 Z M 20 0 "/>
<path fill-rule="evenodd" fill="rgb(0%, 0%, 0%)" fill-opacity="1" d="M 8.847656 9.226562 L 8.847656 2.835938 C 8.847656 2.730469 8.8125 2.644531 8.738281 2.570312 C 8.675781 2.496094 8.375 2.421875 8.238281 2.558594 L 6.808594 3.988281 C 6.660156 4.140625 6.710938 4.417969 6.820312 4.523438 C 6.914062 4.628906 7.171875 4.652344 7.308594 4.511719 L 8.132812 3.679688 L 8.132812 9.238281 C 8.132812 9.429688 8.300781 9.589844 8.492188 9.589844 C 8.6875 9.589844 8.847656 9.429688 8.847656 9.226562 Z M 13.285156 2.835938 C 13.285156 2.636719 13.125 2.476562 12.929688 2.476562 L 10.082031 2.476562 C 9.988281 2.476562 9.914062 2.496094 9.847656 2.558594 C 9.761719 2.644531 9.730469 2.71875 9.730469 2.835938 L 9.730469 5.675781 C 9.730469 5.792969 9.761719 5.867188 9.847656 5.953125 C 9.914062 6.015625 9.988281 6.039062 10.082031 6.039062 L 11.492188 6.039062 C 11.789062 6.039062 11.992188 6.101562 12.214844 6.304688 C 12.460938 6.527344 12.558594 6.761719 12.558594 7.105469 L 12.558594 7.808594 C 12.558594 8.117188 12.492188 8.320312 12.28125 8.554688 C 12.097656 8.746094 11.820312 8.875 11.492188 8.875 L 10.0625 8.875 C 9.871094 8.875 9.710938 9.046875 9.710938 9.238281 C 9.710938 9.429688 9.871094 9.589844 10.0625 9.589844 L 11.492188 9.589844 C 12.046875 9.589844 12.535156 9.367188 12.824219 9.023438 C 13.132812 8.683594 13.261719 8.320312 13.261719 7.808594 L 13.261719 7.105469 C 13.261719 6.507812 12.996094 5.996094 12.644531 5.707031 C 12.34375 5.460938 11.800781 5.324219 11.492188 5.324219 L 10.445312 5.324219 L 10.445312 3.191406 L 12.929688 3.191406 C 13.125 3.191406 13.285156 3.050781 13.285156 2.835938 Z M 13.285156 2.835938 "/>
</svg>
