<?xml version="1.0" encoding="UTF-8"?>
<svg xmlns="http://www.w3.org/2000/svg" xmlns:xlink="http://www.w3.org/1999/xlink" width="20" height="17.321001" viewBox="0 0 20 17.321001">
<path fill-rule="nonzero" fill="rgb(4.313725%, 60.784314%, 48.235294%)" fill-opacity="1" d="M 20 0 L 0 0 L 10 17.320312 Z M 20 0 "/>
<path fill-rule="nonzero" fill="rgb(92.941176%, 84.705882%, 15.294118%)" fill-opacity="1" d="M 18.296875 0.921875 L 1.703125 0.921875 L 10 15.222656 Z M 18.296875 0.921875 "/>
<path fill-rule="nonzero" fill="rgb(0%, 0%, 0%)" fill-opacity="1" d="M 7.769531 6.507812 C 7.769531 6.007812 7.8125 5.515625 7.894531 5.039062 C 7.984375 4.554688 8.140625 4.117188 8.371094 3.726562 C 8.601562 3.335938 8.929688 3.019531 9.339844 2.789062 C 9.753906 2.554688 10.285156 2.4375 10.941406 2.4375 C 11.078125 2.4375 11.222656 2.449219 11.390625 2.460938 C 11.554688 2.472656 11.691406 2.496094 11.792969 2.527344 L 11.792969 3.253906 C 11.679688 3.214844 11.546875 3.1875 11.398438 3.167969 C 11.253906 3.148438 11.105469 3.136719 10.960938 3.136719 C 10.511719 3.136719 10.144531 3.210938 9.84375 3.363281 C 9.546875 3.511719 9.308594 3.714844 9.136719 3.972656 C 8.96875 4.230469 8.84375 4.527344 8.765625 4.867188 C 8.6875 5.199219 8.640625 5.558594 8.625 5.941406 L 8.679688 5.941406 C 8.828125 5.714844 9.035156 5.523438 9.300781 5.367188 C 9.566406 5.207031 9.90625 5.125 10.320312 5.125 C 10.921875 5.125 11.40625 5.3125 11.773438 5.679688 C 12.144531 6.042969 12.328125 6.558594 12.328125 7.230469 C 12.328125 7.957031 12.125 8.523438 11.726562 8.9375 C 11.332031 9.351562 10.796875 9.558594 10.125 9.558594 C 9.6875 9.558594 9.289062 9.449219 8.933594 9.226562 C 8.578125 9.011719 8.292969 8.671875 8.082031 8.21875 C 7.875 7.769531 7.769531 7.195312 7.769531 6.507812 Z M 10.117188 8.839844 C 10.523438 8.839844 10.855469 8.710938 11.105469 8.453125 C 11.359375 8.191406 11.484375 7.78125 11.484375 7.230469 C 11.484375 6.792969 11.371094 6.441406 11.144531 6.183594 C 10.925781 5.925781 10.589844 5.792969 10.148438 5.792969 C 9.84375 5.792969 9.574219 5.859375 9.347656 5.988281 C 9.125 6.109375 8.945312 6.273438 8.816406 6.46875 C 8.695312 6.65625 8.632812 6.859375 8.632812 7.066406 C 8.632812 7.34375 8.6875 7.621094 8.796875 7.898438 C 8.90625 8.171875 9.070312 8.398438 9.292969 8.582031 C 9.515625 8.753906 9.789062 8.839844 10.117188 8.839844 Z M 10.117188 8.839844 "/>
</svg>
