<?xml version="1.0" encoding="UTF-8"?>
<svg xmlns="http://www.w3.org/2000/svg" xmlns:xlink="http://www.w3.org/1999/xlink" width="20" height="17.320999" viewBox="0 0 20 17.320999">
<path fill-rule="nonzero" fill="rgb(4.313725%, 60.784314%, 48.235294%)" fill-opacity="1" d="M 20 0 L 0 0 L 10 17.320312 Z M 20 0 "/>
<path fill-rule="nonzero" fill="rgb(92.941176%, 84.705882%, 15.294118%)" fill-opacity="1" d="M 18.300781 0.921875 L 1.699219 0.921875 L 10 15.222656 Z M 18.300781 0.921875 "/>
<path fill-rule="evenodd" fill="rgb(0%, 0%, 0%)" fill-opacity="1" d="M 11.777344 8.21875 L 11.777344 6.789062 C 11.777344 6.363281 11.691406 6.074219 11.382812 5.765625 C 11.070312 5.464844 10.785156 5.371094 10.355469 5.371094 L 9.171875 5.371094 C 9.3125 4.953125 9.429688 4.730469 9.675781 4.355469 C 10.164062 3.621094 10.625 3.417969 10.945312 3.183594 C 11.105469 3.054688 11.125 2.808594 11.007812 2.648438 C 10.871094 2.457031 10.65625 2.480469 10.496094 2.597656 C 10.144531 2.875 9.472656 3.351562 9.046875 4.015625 C 8.511719 4.847656 8.222656 5.699219 8.222656 6.789062 L 8.222656 8.21875 C 8.222656 9.101562 9.109375 9.636719 10.003906 9.636719 C 10.890625 9.636719 11.777344 9.101562 11.777344 8.21875 Z M 11.070312 8.195312 C 11.070312 8.699219 10.496094 8.910156 10.003906 8.910156 C 9.503906 8.910156 8.9375 8.699219 8.9375 8.195312 L 8.9375 6.789062 C 8.9375 6.660156 8.9375 6.585938 8.949219 6.445312 C 8.960938 6.308594 8.980469 6.210938 9.011719 6.085938 L 10.347656 6.085938 C 10.558594 6.085938 10.699219 6.117188 10.859375 6.265625 C 11.007812 6.414062 11.070312 6.5625 11.070312 6.777344 Z M 11.070312 8.195312 "/>
</svg>
