<?xml version="1.0" encoding="UTF-8"?>
<svg xmlns="http://www.w3.org/2000/svg" xmlns:xlink="http://www.w3.org/1999/xlink" width="20" height="17.321001" viewBox="0 0 20 17.321001">
<path fill-rule="nonzero" fill="rgb(4.313725%, 60.784314%, 48.235294%)" fill-opacity="1" d="M 20 0 L 0 0 L 10 17.320312 Z M 20 0 "/>
<path fill-rule="nonzero" fill="rgb(92.941176%, 84.705882%, 15.294118%)" fill-opacity="1" d="M 18.296875 0.921875 L 1.703125 0.921875 L 10 15.222656 Z M 18.296875 0.921875 "/>
<path fill-rule="nonzero" fill="rgb(0%, 0%, 0%)" fill-opacity="1" d="M 12.277344 5.496094 C 12.277344 5.992188 12.234375 6.484375 12.144531 6.96875 C 12.058594 7.449219 11.902344 7.886719 11.667969 8.277344 C 11.441406 8.667969 11.121094 8.976562 10.699219 9.210938 C 10.285156 9.445312 9.753906 9.558594 9.097656 9.558594 C 8.96875 9.558594 8.816406 9.546875 8.640625 9.53125 C 8.472656 9.519531 8.332031 9.492188 8.226562 9.460938 L 8.226562 8.734375 C 8.476562 8.820312 8.761719 8.863281 9.078125 8.863281 C 9.53125 8.863281 9.90625 8.785156 10.195312 8.636719 C 10.492188 8.488281 10.730469 8.289062 10.902344 8.039062 C 11.078125 7.777344 11.203125 7.476562 11.28125 7.144531 C 11.359375 6.800781 11.402344 6.441406 11.414062 6.066406 L 11.359375 6.066406 C 11.214844 6.289062 11.007812 6.480469 10.738281 6.640625 C 10.472656 6.796875 10.128906 6.871094 9.710938 6.871094 C 9.113281 6.871094 8.632812 6.691406 8.265625 6.328125 C 7.902344 5.960938 7.722656 5.441406 7.722656 4.777344 C 7.722656 4.292969 7.8125 3.875 7.992188 3.527344 C 8.179688 3.175781 8.4375 2.90625 8.765625 2.722656 C 9.097656 2.535156 9.488281 2.4375 9.929688 2.4375 C 10.375 2.4375 10.769531 2.550781 11.125 2.78125 C 11.480469 3 11.761719 3.335938 11.96875 3.789062 C 12.175781 4.234375 12.277344 4.804688 12.277344 5.496094 Z M 9.929688 3.160156 C 9.53125 3.160156 9.203125 3.289062 8.941406 3.554688 C 8.6875 3.820312 8.5625 4.222656 8.5625 4.769531 C 8.5625 5.210938 8.671875 5.570312 8.882812 5.824219 C 9.105469 6.078125 9.441406 6.203125 9.890625 6.203125 C 10.203125 6.203125 10.472656 6.140625 10.699219 6.019531 C 10.925781 5.890625 11.097656 5.730469 11.222656 5.535156 C 11.351562 5.339844 11.414062 5.140625 11.414062 4.933594 C 11.414062 4.65625 11.363281 4.378906 11.25 4.109375 C 11.140625 3.835938 10.976562 3.609375 10.753906 3.429688 C 10.539062 3.25 10.261719 3.160156 9.929688 3.160156 Z M 9.929688 3.160156 "/>
</svg>
