<?xml version="1.0" encoding="UTF-8"?>
<svg xmlns="http://www.w3.org/2000/svg" xmlns:xlink="http://www.w3.org/1999/xlink" width="20" height="17.320999" viewBox="0 0 20 17.320999">
<path fill-rule="nonzero" fill="rgb(4.313725%, 60.784314%, 48.235294%)" fill-opacity="1" d="M 20 0 L 0 0 L 10 17.320312 Z M 20 0 "/>
<path fill-rule="nonzero" fill="rgb(92.941176%, 84.705882%, 15.294118%)" fill-opacity="1" d="M 18.300781 0.921875 L 1.699219 0.921875 L 10 15.222656 Z M 18.300781 0.921875 "/>
<path fill-rule="evenodd" fill="rgb(0%, 0%, 0%)" fill-opacity="1" d="M 9.554688 9.253906 L 9.554688 2.863281 C 9.554688 2.757812 9.523438 2.671875 9.449219 2.597656 C 9.382812 2.519531 9.085938 2.445312 8.949219 2.585938 L 7.519531 4.015625 C 7.367188 4.164062 7.421875 4.441406 7.527344 4.546875 C 7.625 4.65625 7.878906 4.675781 8.019531 4.539062 L 8.839844 3.707031 L 8.839844 9.261719 C 8.839844 9.453125 9.011719 9.613281 9.203125 9.613281 C 9.394531 9.613281 9.554688 9.453125 9.554688 9.253906 Z M 12.574219 9.253906 L 12.574219 2.863281 C 12.574219 2.757812 12.542969 2.671875 12.46875 2.597656 C 12.402344 2.519531 12.105469 2.445312 11.964844 2.585938 L 10.535156 4.015625 C 10.386719 4.164062 10.441406 4.441406 10.546875 4.546875 C 10.644531 4.65625 10.898438 4.675781 11.039062 4.539062 L 11.859375 3.707031 L 11.859375 9.261719 C 11.859375 9.453125 12.03125 9.613281 12.222656 9.613281 C 12.414062 9.613281 12.574219 9.453125 12.574219 9.253906 Z M 12.574219 9.253906 "/>
</svg>
