<?xml version="1.0" encoding="UTF-8"?>
<svg xmlns="http://www.w3.org/2000/svg" xmlns:xlink="http://www.w3.org/1999/xlink" width="20" height="17.320999" viewBox="0 0 20 17.320999">
<path fill-rule="nonzero" fill="rgb(4.313725%, 60.784314%, 48.235294%)" fill-opacity="1" d="M 20 0 L 0 0 L 10 17.320312 Z M 20 0 "/>
<path fill-rule="nonzero" fill="rgb(92.941176%, 84.705882%, 15.294118%)" fill-opacity="1" d="M 18.300781 0.921875 L 1.699219 0.921875 L 10 15.222656 Z M 18.300781 0.921875 "/>
<path fill-rule="evenodd" fill="rgb(0%, 0%, 0%)" fill-opacity="1" d="M 11.800781 7.832031 L 11.800781 7.128906 C 11.800781 6.53125 11.523438 5.945312 11.109375 5.699219 C 11.460938 5.410156 11.75 4.890625 11.75 4.300781 C 11.75 3.800781 11.621094 3.4375 11.3125 3.085938 C 11.023438 2.757812 10.535156 2.519531 9.980469 2.519531 L 8.550781 2.519531 C 8.355469 2.519531 8.199219 2.691406 8.199219 2.882812 C 8.199219 3.074219 8.355469 3.234375 8.550781 3.234375 L 9.980469 3.234375 C 10.308594 3.234375 10.585938 3.363281 10.769531 3.566406 C 10.980469 3.789062 11.046875 4.292969 11.046875 4.292969 C 11.046875 4.621094 10.949219 4.855469 10.703125 5.082031 C 10.480469 5.285156 10.277344 5.347656 9.980469 5.347656 L 9.308594 5.347656 C 9.113281 5.347656 8.953125 5.507812 8.953125 5.699219 C 8.953125 5.890625 9.113281 6.0625 9.308594 6.0625 L 10.019531 6.0625 C 10.320312 6.0625 10.535156 6.125 10.746094 6.328125 C 11.003906 6.554688 11.089844 6.789062 11.089844 7.128906 L 11.089844 7.832031 C 11.089844 8.144531 11.035156 8.34375 10.820312 8.578125 C 10.640625 8.773438 10.363281 8.898438 10.019531 8.898438 L 8.601562 8.898438 C 8.410156 8.898438 8.25 9.070312 8.25 9.261719 C 8.25 9.453125 8.410156 9.613281 8.601562 9.613281 L 10.019531 9.613281 C 10.585938 9.613281 11.066406 9.390625 11.367188 9.050781 C 11.664062 8.707031 11.800781 8.34375 11.800781 7.832031 Z M 11.800781 7.832031 "/>
</svg>
