<?xml version="1.0" encoding="UTF-8"?>
<svg xmlns="http://www.w3.org/2000/svg" xmlns:xlink="http://www.w3.org/1999/xlink" width="20" height="17.320999" viewBox="0 0 20 17.320999">
<path fill-rule="nonzero" fill="rgb(4.313725%, 60.784314%, 48.235294%)" fill-opacity="1" d="M 20 0 L 0 0 L 10 17.320312 Z M 20 0 "/>
<path fill-rule="nonzero" fill="rgb(92.941176%, 84.705882%, 15.294118%)" fill-opacity="1" d="M 18.300781 0.921875 L 1.699219 0.921875 L 10 15.222656 Z M 18.300781 0.921875 "/>
<path fill-rule="evenodd" fill="rgb(0%, 0%, 0%)" fill-opacity="1" d="M 8.847656 9.253906 L 8.847656 2.863281 C 8.847656 2.757812 8.8125 2.671875 8.738281 2.597656 C 8.675781 2.519531 8.375 2.445312 8.238281 2.585938 L 6.808594 4.015625 C 6.660156 4.164062 6.710938 4.441406 6.820312 4.546875 C 6.914062 4.65625 7.171875 4.675781 7.308594 4.539062 L 8.132812 3.707031 L 8.132812 9.261719 C 8.132812 9.453125 8.300781 9.613281 8.492188 9.613281 C 8.6875 9.613281 8.847656 9.453125 8.847656 9.253906 Z M 13.285156 2.863281 C 13.285156 2.660156 13.125 2.5 12.929688 2.5 L 10.082031 2.5 C 9.988281 2.5 9.914062 2.519531 9.847656 2.585938 C 9.761719 2.671875 9.730469 2.746094 9.730469 2.863281 L 9.730469 5.699219 C 9.730469 5.816406 9.761719 5.890625 9.847656 5.976562 C 9.914062 6.042969 9.988281 6.0625 10.082031 6.0625 L 11.492188 6.0625 C 11.789062 6.0625 11.992188 6.125 12.214844 6.328125 C 12.460938 6.554688 12.558594 6.789062 12.558594 7.128906 L 12.558594 7.832031 C 12.558594 8.144531 12.492188 8.34375 12.28125 8.578125 C 12.097656 8.773438 11.820312 8.898438 11.492188 8.898438 L 10.0625 8.898438 C 9.871094 8.898438 9.710938 9.070312 9.710938 9.261719 C 9.710938 9.453125 9.871094 9.613281 10.0625 9.613281 L 11.492188 9.613281 C 12.046875 9.613281 12.535156 9.390625 12.824219 9.050781 C 13.132812 8.707031 13.261719 8.34375 13.261719 7.832031 L 13.261719 7.128906 C 13.261719 6.53125 12.996094 6.019531 12.644531 5.730469 C 12.34375 5.488281 11.800781 5.347656 11.492188 5.347656 L 10.445312 5.347656 L 10.445312 3.214844 L 12.929688 3.214844 C 13.125 3.214844 13.285156 3.074219 13.285156 2.863281 Z M 13.285156 2.863281 "/>
</svg>
