<?xml version="1.0" encoding="UTF-8"?>
<svg xmlns="http://www.w3.org/2000/svg" xmlns:xlink="http://www.w3.org/1999/xlink" width="20" height="17.321001" viewBox="0 0 20 17.321001">
<path fill-rule="nonzero" fill="rgb(4.313725%, 60.784314%, 48.235294%)" fill-opacity="1" d="M 20 0 L 0 0 L 10 17.320312 Z M 20 0 "/>
<path fill-rule="nonzero" fill="rgb(92.941176%, 84.705882%, 15.294118%)" fill-opacity="1" d="M 18.296875 0.921875 L 1.703125 0.921875 L 10 15.222656 Z M 18.296875 0.921875 "/>
<path fill-rule="nonzero" fill="rgb(0%, 0%, 0%)" fill-opacity="1" d="M 8.441406 8.996094 L 7.722656 8.996094 L 7.722656 4.804688 C 7.722656 4.566406 7.726562 4.375 7.730469 4.226562 C 7.734375 4.078125 7.742188 3.933594 7.757812 3.777344 C 7.664062 3.863281 7.582031 3.941406 7.511719 4 C 7.4375 4.0625 7.34375 4.140625 7.234375 4.234375 L 6.597656 4.757812 L 6.210938 4.261719 L 7.828125 3.003906 L 8.441406 3.003906 Z M 8.441406 8.996094 "/>
<path fill-rule="nonzero" fill="rgb(0%, 0%, 0%)" fill-opacity="1" d="M 13.789062 5.988281 C 13.789062 6.636719 13.722656 7.1875 13.589844 7.652344 C 13.453125 8.113281 13.242188 8.464844 12.953125 8.710938 C 12.660156 8.957031 12.273438 9.078125 11.792969 9.078125 C 11.117188 9.078125 10.613281 8.8125 10.289062 8.269531 C 9.96875 7.71875 9.808594 6.957031 9.808594 5.988281 C 9.808594 5.34375 9.875 4.789062 10.003906 4.328125 C 10.140625 3.867188 10.351562 3.519531 10.640625 3.277344 C 10.933594 3.035156 11.316406 2.90625 11.792969 2.90625 C 12.464844 2.90625 12.964844 3.179688 13.292969 3.722656 C 13.625 4.261719 13.789062 5.015625 13.789062 5.988281 Z M 10.550781 5.988281 C 10.550781 6.8125 10.640625 7.429688 10.824219 7.839844 C 11.015625 8.246094 11.335938 8.449219 11.792969 8.449219 C 12.238281 8.449219 12.5625 8.25 12.746094 7.847656 C 12.945312 7.4375 13.042969 6.820312 13.042969 5.988281 C 13.042969 5.171875 12.945312 4.5625 12.746094 4.152344 C 12.5625 3.742188 12.238281 3.539062 11.792969 3.539062 C 11.335938 3.539062 11.015625 3.742188 10.824219 4.152344 C 10.640625 4.5625 10.550781 5.171875 10.550781 5.988281 Z M 10.550781 5.988281 "/>
</svg>
