<?xml version="1.0" encoding="UTF-8"?>
<svg xmlns="http://www.w3.org/2000/svg" xmlns:xlink="http://www.w3.org/1999/xlink" width="20" height="17.320999" viewBox="0 0 20 17.320999">
<path fill-rule="nonzero" fill="rgb(4.313725%, 60.784314%, 48.235294%)" fill-opacity="1" d="M 20 0 L 0 0 L 10 17.320312 Z M 20 0 "/>
<path fill-rule="nonzero" fill="rgb(92.941176%, 84.705882%, 15.294118%)" fill-opacity="1" d="M 18.300781 0.921875 L 1.699219 0.921875 L 10 15.222656 Z M 18.300781 0.921875 "/>
<path fill-rule="evenodd" fill="rgb(0%, 0%, 0%)" fill-opacity="1" d="M 11.78125 5.347656 L 11.78125 3.929688 C 11.78125 3.035156 10.886719 2.5 10 2.5 C 9.113281 2.5 8.21875 3.035156 8.21875 3.929688 L 8.21875 5.347656 C 8.21875 5.773438 8.316406 6.0625 8.625 6.371094 C 8.921875 6.679688 9.222656 6.765625 9.648438 6.765625 L 10.820312 6.765625 C 10.691406 7.191406 10.574219 7.40625 10.332031 7.78125 C 9.839844 8.515625 9.371094 8.730469 9.0625 8.964844 C 8.902344 9.082031 8.878906 9.328125 8.988281 9.488281 C 9.136719 9.679688 9.347656 9.667969 9.5 9.539062 C 9.863281 9.261719 10.523438 8.78125 10.949219 8.121094 C 11.492188 7.289062 11.78125 6.4375 11.78125 5.347656 Z M 11.066406 5.347656 C 11.066406 5.488281 11.066406 5.550781 11.054688 5.6875 C 11.035156 5.828125 11.023438 5.925781 10.992188 6.0625 L 9.660156 6.0625 C 9.445312 6.0625 9.308594 6.019531 9.148438 5.871094 C 8.988281 5.722656 8.933594 5.570312 8.933594 5.359375 L 8.933594 3.941406 C 8.933594 3.4375 9.5 3.226562 10 3.226562 C 10.5 3.226562 11.066406 3.4375 11.066406 3.941406 Z M 11.066406 5.347656 "/>
</svg>
