<?xml version="1.0" encoding="UTF-8"?>
<svg xmlns="http://www.w3.org/2000/svg" xmlns:xlink="http://www.w3.org/1999/xlink" width="20" height="17.321001" viewBox="0 0 20 17.321001">
<path fill-rule="nonzero" fill="rgb(4.313725%, 60.784314%, 48.235294%)" fill-opacity="1" d="M 20 0 L 0 0 L 10 17.320312 Z M 20 0 "/>
<path fill-rule="nonzero" fill="rgb(92.941176%, 84.705882%, 15.294118%)" fill-opacity="1" d="M 18.296875 0.921875 L 1.703125 0.921875 L 10 15.222656 Z M 18.296875 0.921875 "/>
<path fill-rule="nonzero" fill="rgb(0%, 0%, 0%)" fill-opacity="1" d="M 12.589844 7.890625 L 11.578125 7.890625 L 11.578125 9.460938 L 10.753906 9.460938 L 10.753906 7.890625 L 7.4375 7.890625 L 7.4375 7.160156 L 10.699219 2.5 L 11.578125 2.5 L 11.578125 7.125 L 12.589844 7.125 Z M 10.753906 4.945312 C 10.753906 4.605469 10.765625 4.324219 10.777344 4.089844 C 10.789062 3.851562 10.796875 3.625 10.804688 3.410156 L 10.769531 3.410156 C 10.714844 3.53125 10.652344 3.667969 10.574219 3.804688 C 10.496094 3.949219 10.421875 4.070312 10.347656 4.167969 L 8.273438 7.125 L 10.753906 7.125 Z M 10.753906 4.945312 "/>
</svg>
