<?xml version="1.0" encoding="UTF-8"?>
<svg xmlns="http://www.w3.org/2000/svg" xmlns:xlink="http://www.w3.org/1999/xlink" width="20" height="17.320999" viewBox="0 0 20 17.320999">
<path fill-rule="nonzero" fill="rgb(4.313725%, 60.784314%, 48.235294%)" fill-opacity="1" d="M 20 0 L 0 0 L 10 17.320312 Z M 20 0 "/>
<path fill-rule="nonzero" fill="rgb(92.941176%, 84.705882%, 15.294118%)" fill-opacity="1" d="M 18.300781 0.921875 L 1.699219 0.921875 L 10 15.222656 Z M 18.300781 0.921875 "/>
<path fill-rule="evenodd" fill="rgb(0%, 0%, 0%)" fill-opacity="1" d="M 8.617188 5.347656 C 8.683594 5.464844 8.769531 5.550781 8.851562 5.636719 C 8.683594 5.773438 8.585938 5.871094 8.46875 6.0625 C 8.320312 6.308594 8.222656 6.480469 8.222656 6.765625 L 8.222656 8.195312 C 8.222656 9.082031 9.109375 9.613281 10.003906 9.613281 C 10.890625 9.613281 11.777344 9.082031 11.777344 8.195312 L 11.777344 6.765625 C 11.777344 6.488281 11.753906 6.308594 11.605469 6.0625 C 11.476562 5.859375 11.347656 5.742188 11.148438 5.636719 C 11.253906 5.539062 11.308594 5.464844 11.390625 5.347656 C 11.542969 5.101562 11.605469 4.933594 11.605469 4.632812 L 11.605469 3.929688 C 11.605469 3.097656 10.835938 2.5 10.003906 2.5 C 9.171875 2.5 8.40625 3.097656 8.40625 3.929688 L 8.40625 4.632812 C 8.40625 4.933594 8.46875 5.101562 8.617188 5.347656 Z M 10.890625 4.632812 C 10.890625 5.082031 10.441406 5.347656 10.003906 5.347656 C 9.558594 5.347656 9.109375 5.082031 9.109375 4.632812 L 9.109375 3.929688 C 9.109375 3.480469 9.558594 3.214844 10.003906 3.214844 C 10.441406 3.214844 10.890625 3.480469 10.890625 3.929688 Z M 11.070312 8.195312 C 11.070312 8.6875 10.507812 8.898438 10.015625 8.898438 C 9.515625 8.910156 8.9375 8.699219 8.9375 8.195312 L 8.9375 6.765625 C 8.9375 6.265625 9.492188 6.042969 10.003906 6.042969 C 10.507812 6.042969 11.070312 6.265625 11.070312 6.765625 Z M 11.070312 8.195312 "/>
</svg>
