<?xml version="1.0" encoding="UTF-8"?>
<svg xmlns="http://www.w3.org/2000/svg" xmlns:xlink="http://www.w3.org/1999/xlink" width="20" height="17.320999" viewBox="0 0 20 17.320999">
<path fill-rule="nonzero" fill="rgb(4.313725%, 60.784314%, 48.235294%)" fill-opacity="1" d="M 20 0 L 0 0 L 10 17.320312 Z M 20 0 "/>
<path fill-rule="nonzero" fill="rgb(92.941176%, 84.705882%, 15.294118%)" fill-opacity="1" d="M 18.300781 0.921875 L 1.699219 0.921875 L 10 15.222656 Z M 18.300781 0.921875 "/>
<path fill-rule="evenodd" fill="rgb(0%, 0%, 0%)" fill-opacity="1" d="M 8.488281 9.253906 L 8.488281 2.863281 C 8.488281 2.757812 8.457031 2.671875 8.382812 2.597656 C 8.316406 2.519531 8.019531 2.445312 7.878906 2.585938 L 6.453125 4.015625 C 6.300781 4.164062 6.355469 4.441406 6.460938 4.546875 C 6.558594 4.65625 6.8125 4.675781 6.953125 4.539062 L 7.773438 3.707031 L 7.773438 9.261719 C 7.773438 9.453125 7.945312 9.613281 8.136719 9.613281 C 8.328125 9.613281 8.488281 9.453125 8.488281 9.253906 Z M 13.640625 7.832031 C 13.640625 7.640625 13.480469 7.480469 13.289062 7.480469 L 12.574219 7.480469 L 12.574219 6.402344 C 12.574219 6.210938 12.414062 6.0625 12.222656 6.0625 C 12.03125 6.0625 11.859375 6.222656 11.859375 6.414062 L 11.859375 7.480469 L 10.195312 7.480469 L 11.496094 2.925781 C 11.550781 2.722656 11.410156 2.5 11.15625 2.5 C 11.027344 2.488281 10.855469 2.574219 10.8125 2.734375 L 9.375 7.746094 C 9.34375 7.886719 9.40625 8.046875 9.46875 8.089844 C 9.554688 8.164062 9.621094 8.195312 9.726562 8.195312 L 11.859375 8.195312 L 11.859375 9.261719 C 11.859375 9.453125 12.03125 9.613281 12.222656 9.613281 C 12.414062 9.613281 12.574219 9.453125 12.574219 9.261719 L 12.574219 8.195312 L 13.289062 8.195312 C 13.480469 8.195312 13.640625 8.023438 13.640625 7.832031 Z M 13.640625 7.832031 "/>
</svg>
