<?xml version="1.0" encoding="UTF-8"?>
<svg xmlns="http://www.w3.org/2000/svg" xmlns:xlink="http://www.w3.org/1999/xlink" width="20" height="17.320999" viewBox="0 0 20 17.320999">
<path fill-rule="nonzero" fill="rgb(4.313725%, 60.784314%, 48.235294%)" fill-opacity="1" d="M 20 0 L 0 0 L 10 17.320312 Z M 20 0 "/>
<path fill-rule="nonzero" fill="rgb(92.941176%, 84.705882%, 15.294118%)" fill-opacity="1" d="M 18.300781 0.921875 L 1.699219 0.921875 L 10 15.222656 Z M 18.300781 0.921875 "/>
<path fill-rule="evenodd" fill="rgb(0%, 0%, 0%)" fill-opacity="1" d="M 11.785156 2.863281 C 11.785156 2.660156 11.625 2.5 11.433594 2.5 L 8.585938 2.5 C 8.492188 2.5 8.414062 2.519531 8.351562 2.585938 C 8.265625 2.671875 8.234375 2.746094 8.234375 2.863281 L 8.234375 5.699219 C 8.234375 5.816406 8.265625 5.890625 8.351562 5.976562 C 8.414062 6.042969 8.492188 6.0625 8.585938 6.0625 L 9.996094 6.0625 C 10.292969 6.0625 10.496094 6.125 10.71875 6.328125 C 10.964844 6.554688 11.0625 6.789062 11.0625 7.128906 L 11.0625 7.832031 C 11.0625 8.144531 10.996094 8.34375 10.785156 8.578125 C 10.601562 8.773438 10.324219 8.898438 9.996094 8.898438 L 8.566406 8.898438 C 8.375 8.898438 8.214844 9.070312 8.214844 9.261719 C 8.214844 9.453125 8.375 9.613281 8.566406 9.613281 L 9.996094 9.613281 C 10.550781 9.613281 11.039062 9.390625 11.328125 9.050781 C 11.636719 8.707031 11.765625 8.34375 11.765625 7.832031 L 11.765625 7.128906 C 11.765625 6.53125 11.5 6.019531 11.148438 5.730469 C 10.847656 5.488281 10.304688 5.347656 9.996094 5.347656 L 8.949219 5.347656 L 8.949219 3.214844 L 11.433594 3.214844 C 11.625 3.214844 11.785156 3.074219 11.785156 2.863281 Z M 11.785156 2.863281 "/>
</svg>
