<?xml version="1.0" encoding="UTF-8"?>
<svg xmlns="http://www.w3.org/2000/svg" xmlns:xlink="http://www.w3.org/1999/xlink" width="20" height="14.096813" viewBox="0 0 20 14.096813">
<path fill-rule="nonzero" fill="rgb(100%, 100%, 100%)" fill-opacity="1" d="M 0 0 L 20 0 L 20 14.097656 L 0 14.097656 Z M 0 0 "/>
<path fill="none" stroke-width="0.590319" stroke-linecap="butt" stroke-linejoin="miter" stroke="rgb(0%, 0%, 0%)" stroke-opacity="1" stroke-miterlimit="4" d="M 15.84375 7.046875 C 15.84375 10.277344 13.226562 12.890625 10 12.890625 C 6.773438 12.890625 4.15625 10.277344 4.15625 7.046875 C 4.15625 3.820312 6.773438 1.203125 10 1.203125 C 13.226562 1.203125 15.84375 3.820312 15.84375 7.046875 Z M 15.84375 7.046875 "/>
<path fill-rule="evenodd" fill="rgb(0%, 0%, 0%)" fill-opacity="1" d="M 9.554688 10.238281 L 9.554688 3.851562 C 9.554688 3.742188 9.523438 3.65625 9.449219 3.582031 C 9.382812 3.507812 9.085938 3.433594 8.949219 3.574219 L 7.519531 5 C 7.367188 5.152344 7.421875 5.429688 7.527344 5.535156 C 7.625 5.640625 7.878906 5.664062 8.019531 5.523438 L 8.839844 4.691406 L 8.839844 10.25 C 8.839844 10.441406 9.011719 10.601562 9.203125 10.601562 C 9.394531 10.601562 9.554688 10.441406 9.554688 10.238281 Z M 12.574219 10.238281 L 12.574219 3.851562 C 12.574219 3.742188 12.542969 3.65625 12.46875 3.582031 C 12.402344 3.507812 12.105469 3.433594 11.964844 3.574219 L 10.535156 5 C 10.386719 5.152344 10.441406 5.429688 10.546875 5.535156 C 10.644531 5.640625 10.898438 5.664062 11.039062 5.523438 L 11.859375 4.691406 L 11.859375 10.25 C 11.859375 10.441406 12.03125 10.601562 12.222656 10.601562 C 12.414062 10.601562 12.574219 10.441406 12.574219 10.238281 Z M 12.574219 10.238281 "/>
</svg>
