<?xml version="1.0" encoding="UTF-8"?>
<svg xmlns="http://www.w3.org/2000/svg" xmlns:xlink="http://www.w3.org/1999/xlink" width="20" height="14.096813" viewBox="0 0 20 14.096813">
<path fill-rule="nonzero" fill="rgb(100%, 100%, 100%)" fill-opacity="1" d="M 0 0 L 20 0 L 20 14.097656 L 0 14.097656 Z M 0 0 "/>
<path fill="none" stroke-width="0.590319" stroke-linecap="butt" stroke-linejoin="miter" stroke="rgb(0%, 0%, 0%)" stroke-opacity="1" stroke-miterlimit="4" d="M 15.84375 7.046875 C 15.84375 10.277344 13.226562 12.890625 10 12.890625 C 6.773438 12.890625 4.15625 10.277344 4.15625 7.046875 C 4.15625 3.820312 6.773438 1.203125 10 1.203125 C 13.226562 1.203125 15.84375 3.820312 15.84375 7.046875 Z M 15.84375 7.046875 "/>
<path fill-rule="evenodd" fill="rgb(0%, 0%, 0%)" fill-opacity="1" d="M 11.800781 8.8125 L 11.800781 8.109375 C 11.800781 7.511719 11.523438 6.925781 11.109375 6.679688 C 11.460938 6.390625 11.75 5.871094 11.75 5.28125 C 11.75 4.78125 11.621094 4.417969 11.3125 4.066406 C 11.023438 3.738281 10.535156 3.5 9.980469 3.5 L 8.550781 3.5 C 8.355469 3.5 8.199219 3.671875 8.199219 3.863281 C 8.199219 4.054688 8.355469 4.214844 8.550781 4.214844 L 9.980469 4.214844 C 10.308594 4.214844 10.585938 4.34375 10.769531 4.546875 C 10.980469 4.769531 11.046875 5.273438 11.046875 5.273438 C 11.046875 5.601562 10.949219 5.835938 10.703125 6.0625 C 10.480469 6.265625 10.277344 6.328125 9.980469 6.328125 L 9.308594 6.328125 C 9.113281 6.328125 8.953125 6.488281 8.953125 6.679688 C 8.953125 6.871094 9.113281 7.042969 9.308594 7.042969 L 10.019531 7.042969 C 10.320312 7.042969 10.535156 7.105469 10.746094 7.308594 C 11.003906 7.535156 11.089844 7.769531 11.089844 8.109375 L 11.089844 8.8125 C 11.089844 9.125 11.035156 9.324219 10.820312 9.558594 C 10.640625 9.753906 10.363281 9.878906 10.019531 9.878906 L 8.601562 9.878906 C 8.410156 9.878906 8.25 10.050781 8.25 10.242188 C 8.25 10.433594 8.410156 10.59375 8.601562 10.59375 L 10.019531 10.59375 C 10.585938 10.59375 11.066406 10.371094 11.367188 10.03125 C 11.664062 9.6875 11.800781 9.324219 11.800781 8.8125 Z M 11.800781 8.8125 "/>
</svg>
