<?xml version="1.0" encoding="UTF-8"?>
<svg xmlns="http://www.w3.org/2000/svg" xmlns:xlink="http://www.w3.org/1999/xlink" width="16" height="16" viewBox="0 0 16 16">
<path fill-rule="nonzero" fill="rgb(100%, 100%, 100%)" fill-opacity="1" stroke-width="5" stroke-linecap="butt" stroke-linejoin="miter" stroke="rgb(0%, 0%, 0%)" stroke-opacity="1" stroke-miterlimit="4" d="M 101.511719 52 C 101.511719 79.345703 79.345703 101.511719 52 101.511719 C 24.654297 101.511719 2.488281 79.345703 2.488281 52 C 2.488281 24.654297 24.654297 2.488281 52 2.488281 C 79.345703 2.488281 101.511719 24.654297 101.511719 52 Z M 101.511719 52 " transform="matrix(0.153846, 0, 0, 0.153846, 0, 0)"/>
<path fill-rule="nonzero" fill="rgb(0%, 0%, 0%)" fill-opacity="1" d="M 5.914062 12.015625 L 4.945312 12.015625 L 4.945312 6.398438 C 4.945312 6.074219 4.949219 5.816406 4.957031 5.621094 C 4.964844 5.425781 4.976562 5.222656 4.988281 5.011719 C 4.871094 5.132812 4.761719 5.234375 4.664062 5.316406 C 4.566406 5.398438 4.441406 5.503906 4.292969 5.632812 L 3.4375 6.328125 L 2.917969 5.664062 L 5.089844 3.976562 L 5.914062 3.976562 Z M 5.914062 12.015625 "/>
<path fill-rule="nonzero" fill="rgb(0%, 0%, 0%)" fill-opacity="1" d="M 13.082031 7.984375 C 13.082031 8.847656 12.992188 9.589844 12.8125 10.210938 C 12.632812 10.828125 12.347656 11.300781 11.957031 11.632812 C 11.566406 11.960938 11.046875 12.125 10.402344 12.125 C 9.496094 12.125 8.824219 11.761719 8.386719 11.035156 C 7.960938 10.300781 7.746094 9.28125 7.746094 7.984375 C 7.746094 7.113281 7.832031 6.371094 8.003906 5.753906 C 8.183594 5.140625 8.46875 4.671875 8.859375 4.347656 C 9.25 4.019531 9.765625 3.851562 10.402344 3.851562 C 11.304688 3.851562 11.972656 4.21875 12.417969 4.945312 C 12.859375 5.664062 13.082031 6.679688 13.082031 7.984375 Z M 8.738281 7.984375 C 8.738281 9.085938 8.859375 9.914062 9.109375 10.460938 C 9.363281 11.007812 9.792969 11.28125 10.402344 11.28125 C 11.003906 11.28125 11.429688 11.011719 11.6875 10.472656 C 11.949219 9.925781 12.078125 9.09375 12.078125 7.984375 C 12.078125 6.886719 11.949219 6.066406 11.6875 5.519531 C 11.429688 4.972656 11.003906 4.699219 10.402344 4.699219 C 9.792969 4.699219 9.363281 4.972656 9.109375 5.519531 C 8.859375 6.066406 8.738281 6.886719 8.738281 7.984375 Z M 8.738281 7.984375 "/>
</svg>
