<?xml version="1.0" encoding="UTF-8"?>
<svg xmlns="http://www.w3.org/2000/svg" xmlns:xlink="http://www.w3.org/1999/xlink" width="20" height="14.096813" viewBox="0 0 20 14.096813">
<path fill-rule="nonzero" fill="rgb(100%, 100%, 100%)" fill-opacity="1" d="M 0 0 L 20 0 L 20 14.097656 L 0 14.097656 Z M 0 0 "/>
<path fill="none" stroke-width="0.590319" stroke-linecap="butt" stroke-linejoin="miter" stroke="rgb(0%, 0%, 0%)" stroke-opacity="1" stroke-miterlimit="4" d="M 15.84375 7.046875 C 15.84375 10.277344 13.226562 12.890625 10 12.890625 C 6.773438 12.890625 4.15625 10.277344 4.15625 7.046875 C 4.15625 3.820312 6.773438 1.203125 10 1.203125 C 13.226562 1.203125 15.84375 3.820312 15.84375 7.046875 Z M 15.84375 7.046875 "/>
<path fill-rule="evenodd" fill="rgb(0%, 0%, 0%)" fill-opacity="1" d="M 11.78125 6.328125 L 11.78125 4.910156 C 11.78125 4.015625 10.886719 3.480469 10 3.480469 C 9.113281 3.480469 8.21875 4.015625 8.21875 4.910156 L 8.21875 6.328125 C 8.21875 6.757812 8.316406 7.042969 8.625 7.351562 C 8.921875 7.664062 9.222656 7.75 9.648438 7.75 L 10.820312 7.75 C 10.691406 8.175781 10.574219 8.386719 10.332031 8.761719 C 9.839844 9.496094 9.371094 9.710938 9.0625 9.945312 C 8.902344 10.0625 8.878906 10.308594 8.988281 10.46875 C 9.136719 10.660156 9.347656 10.648438 9.5 10.519531 C 9.859375 10.246094 10.523438 9.765625 10.949219 9.101562 C 11.492188 8.269531 11.78125 7.417969 11.78125 6.328125 Z M 11.066406 6.328125 C 11.066406 6.46875 11.066406 6.53125 11.054688 6.671875 C 11.035156 6.808594 11.023438 6.90625 10.992188 7.042969 L 9.660156 7.042969 C 9.445312 7.042969 9.308594 7 9.148438 6.851562 C 8.988281 6.703125 8.933594 6.554688 8.933594 6.339844 L 8.933594 4.921875 C 8.933594 4.421875 9.5 4.207031 10 4.207031 C 10.5 4.207031 11.066406 4.421875 11.066406 4.921875 Z M 11.066406 6.328125 "/>
</svg>
