<?xml version="1.0" encoding="UTF-8"?>
<svg xmlns="http://www.w3.org/2000/svg" xmlns:xlink="http://www.w3.org/1999/xlink" width="20" height="20" viewBox="0 0 20 20">
<path fill-rule="nonzero" fill="rgb(100%, 100%, 100%)" fill-opacity="1" stroke-width="5" stroke-linecap="butt" stroke-linejoin="miter" stroke="rgb(0%, 0%, 0%)" stroke-opacity="1" stroke-miterlimit="4" d="M 101.501667 52.000053 C 101.501667 79.340707 79.340707 101.501667 52.000053 101.501667 C 24.6594 101.501667 2.478128 79.340707 2.478128 52.000053 C 2.478128 24.6594 24.6594 2.478128 52.000053 2.478128 C 79.340707 2.478128 101.501667 24.6594 101.501667 52.000053 Z M 101.501667 52.000053 " transform="matrix(0.192307, 0, 0, 0.192307, 0, 0)"/>
<path fill-rule="nonzero" fill="rgb(0%, 0%, 0%)" fill-opacity="1" d="M 8.710938 12.191406 C 8.710938 11.757812 8.75 11.390625 8.828125 11.089844 C 8.921875 10.773438 9.066406 10.46875 9.265625 10.1875 C 9.488281 9.902344 9.773438 9.609375 10.136719 9.300781 C 10.578125 8.929688 10.917969 8.617188 11.152344 8.367188 C 11.402344 8.121094 11.578125 7.875 11.679688 7.640625 C 11.78125 7.402344 11.835938 7.113281 11.835938 6.773438 C 11.835938 6.230469 11.660156 5.8125 11.308594 5.515625 C 10.957031 5.226562 10.449219 5.078125 9.78125 5.078125 C 9.222656 5.078125 8.730469 5.152344 8.300781 5.296875 C 7.871094 5.433594 7.460938 5.59375 7.0625 5.789062 L 6.539062 4.601562 C 6.988281 4.359375 7.484375 4.164062 8.03125 4.003906 C 8.585938 3.847656 9.203125 3.769531 9.882812 3.769531 C 10.957031 3.769531 11.789062 4.03125 12.378906 4.566406 C 12.964844 5.097656 13.261719 5.824219 13.261719 6.738281 C 13.261719 7.25 13.171875 7.6875 13.007812 8.046875 C 12.847656 8.398438 12.617188 8.726562 12.308594 9.03125 C 12.015625 9.328125 11.664062 9.644531 11.253906 9.984375 C 10.882812 10.296875 10.59375 10.578125 10.390625 10.816406 C 10.199219 11.054688 10.070312 11.289062 10 11.527344 C 9.929688 11.753906 9.898438 12.03125 9.898438 12.359375 L 9.898438 12.648438 L 8.710938 12.648438 Z M 8.320312 15.148438 C 8.320312 14.726562 8.414062 14.433594 8.609375 14.261719 C 8.8125 14.09375 9.066406 14.007812 9.371094 14.007812 C 9.652344 14.007812 9.898438 14.09375 10.101562 14.261719 C 10.308594 14.433594 10.40625 14.726562 10.40625 15.148438 C 10.40625 15.550781 10.308594 15.84375 10.101562 16.03125 C 9.898438 16.210938 9.652344 16.296875 9.371094 16.296875 C 9.066406 16.296875 8.8125 16.210938 8.609375 16.03125 C 8.414062 15.84375 8.320312 15.550781 8.320312 15.148438 Z M 8.320312 15.148438 "/>
</svg>
