<?xml version="1.0" encoding="UTF-8"?>
<svg xmlns="http://www.w3.org/2000/svg" xmlns:xlink="http://www.w3.org/1999/xlink" width="20" height="14.096813" viewBox="0 0 20 14.096813">
<path fill-rule="nonzero" fill="rgb(100%, 100%, 100%)" fill-opacity="1" d="M 0 0 L 20 0 L 20 14.097656 L 0 14.097656 Z M 0 0 "/>
<path fill="none" stroke-width="0.590319" stroke-linecap="butt" stroke-linejoin="miter" stroke="rgb(0%, 0%, 0%)" stroke-opacity="1" stroke-miterlimit="4" d="M 15.84375 7.046875 C 15.84375 10.277344 13.226562 12.890625 10 12.890625 C 6.773438 12.890625 4.15625 10.277344 4.15625 7.046875 C 4.15625 3.820312 6.773438 1.203125 10 1.203125 C 13.226562 1.203125 15.84375 3.820312 15.84375 7.046875 Z M 15.84375 7.046875 "/>
<path fill-rule="evenodd" fill="rgb(0%, 0%, 0%)" fill-opacity="1" d="M 12.136719 8.824219 C 12.136719 8.632812 11.976562 8.472656 11.785156 8.472656 L 11.070312 8.472656 L 11.070312 7.394531 C 11.070312 7.203125 10.910156 7.054688 10.71875 7.054688 C 10.527344 7.054688 10.355469 7.214844 10.355469 7.40625 L 10.355469 8.472656 L 8.691406 8.472656 L 9.992188 3.917969 C 10.046875 3.714844 9.910156 3.492188 9.652344 3.492188 C 9.523438 3.480469 9.355469 3.566406 9.3125 3.726562 L 7.871094 8.738281 C 7.839844 8.878906 7.902344 9.039062 7.96875 9.082031 C 8.050781 9.15625 8.117188 9.1875 8.222656 9.1875 L 10.355469 9.1875 L 10.355469 10.253906 C 10.355469 10.445312 10.527344 10.605469 10.71875 10.605469 C 10.910156 10.605469 11.070312 10.445312 11.070312 10.253906 L 11.070312 9.1875 L 11.785156 9.1875 C 11.976562 9.1875 12.136719 9.015625 12.136719 8.824219 Z M 12.136719 8.824219 "/>
</svg>
