<?xml version="1.0" encoding="UTF-8"?>
<svg xmlns="http://www.w3.org/2000/svg" xmlns:xlink="http://www.w3.org/1999/xlink" width="16" height="16" viewBox="0 0 16 16">
<path fill-rule="nonzero" fill="rgb(100%, 100%, 100%)" fill-opacity="1" stroke-width="5" stroke-linecap="butt" stroke-linejoin="miter" stroke="rgb(0%, 0%, 0%)" stroke-opacity="1" stroke-miterlimit="4" d="M 101.511719 52 C 101.511719 79.345703 79.345703 101.511719 52 101.511719 C 24.654297 101.511719 2.488281 79.345703 2.488281 52 C 2.488281 24.654297 24.654297 2.488281 52 2.488281 C 79.345703 2.488281 101.511719 24.654297 101.511719 52 Z M 101.511719 52 " transform="matrix(0.153846, 0, 0, 0.153846, 0, 0)"/>
<path fill-rule="nonzero" fill="rgb(0%, 0%, 0%)" fill-opacity="1" d="M 11.191406 7.292969 C 11.191406 7.992188 11.128906 8.679688 11.003906 9.359375 C 10.882812 10.027344 10.664062 10.640625 10.335938 11.191406 C 10.019531 11.734375 9.566406 12.171875 8.976562 12.496094 C 8.398438 12.824219 7.652344 12.984375 6.738281 12.984375 C 6.554688 12.984375 6.34375 12.972656 6.097656 12.945312 C 5.863281 12.925781 5.667969 12.894531 5.515625 12.847656 L 5.515625 11.832031 C 5.867188 11.949219 6.265625 12.007812 6.710938 12.007812 C 7.34375 12.007812 7.863281 11.902344 8.273438 11.695312 C 8.6875 11.488281 9.019531 11.207031 9.261719 10.851562 C 9.507812 10.492188 9.683594 10.074219 9.792969 9.601562 C 9.902344 9.121094 9.964844 8.621094 9.984375 8.09375 L 9.902344 8.09375 C 9.703125 8.402344 9.414062 8.671875 9.03125 8.898438 C 8.660156 9.113281 8.179688 9.222656 7.59375 9.222656 C 6.757812 9.222656 6.085938 8.96875 5.570312 8.460938 C 5.0625 7.945312 4.808594 7.222656 4.808594 6.289062 C 4.808594 5.609375 4.933594 5.023438 5.1875 4.535156 C 5.449219 4.046875 5.8125 3.671875 6.273438 3.410156 C 6.738281 3.144531 7.28125 3.015625 7.90625 3.015625 C 8.519531 3.015625 9.078125 3.171875 9.574219 3.488281 C 10.074219 3.796875 10.46875 4.269531 10.757812 4.902344 C 11.046875 5.527344 11.191406 6.324219 11.191406 7.292969 Z M 7.90625 4.019531 C 7.34375 4.019531 6.882812 4.207031 6.519531 4.578125 C 6.167969 4.949219 5.988281 5.515625 5.988281 6.273438 C 5.988281 6.898438 6.140625 7.394531 6.4375 7.753906 C 6.746094 8.109375 7.214844 8.285156 7.851562 8.285156 C 8.285156 8.285156 8.660156 8.199219 8.976562 8.027344 C 9.296875 7.847656 9.539062 7.621094 9.710938 7.347656 C 9.894531 7.078125 9.984375 6.796875 9.984375 6.503906 C 9.984375 6.117188 9.90625 5.730469 9.753906 5.351562 C 9.597656 4.972656 9.367188 4.652344 9.058594 4.398438 C 8.75 4.148438 8.367188 4.019531 7.90625 4.019531 Z M 7.90625 4.019531 "/>
</svg>
