<?xml version="1.0" encoding="UTF-8"?>
<svg xmlns="http://www.w3.org/2000/svg" xmlns:xlink="http://www.w3.org/1999/xlink" width="20" height="14.096813" viewBox="0 0 20 14.096813">
<path fill-rule="nonzero" fill="rgb(100%, 100%, 100%)" fill-opacity="1" d="M 0 0 L 20 0 L 20 14.097656 L 0 14.097656 Z M 0 0 "/>
<path fill="none" stroke-width="0.590319" stroke-linecap="butt" stroke-linejoin="miter" stroke="rgb(0%, 0%, 0%)" stroke-opacity="1" stroke-miterlimit="4" d="M 15.84375 7.046875 C 15.84375 10.277344 13.226562 12.890625 10 12.890625 C 6.773438 12.890625 4.15625 10.277344 4.15625 7.046875 C 4.15625 3.820312 6.773438 1.203125 10 1.203125 C 13.226562 1.203125 15.84375 3.820312 15.84375 7.046875 Z M 15.84375 7.046875 "/>
<path fill-rule="evenodd" fill="rgb(0%, 0%, 0%)" fill-opacity="1" d="M 8.839844 10.238281 L 8.839844 3.851562 C 8.839844 3.742188 8.808594 3.65625 8.734375 3.582031 C 8.671875 3.507812 8.371094 3.433594 8.234375 3.574219 L 6.804688 5 C 6.652344 5.152344 6.707031 5.429688 6.8125 5.535156 C 6.910156 5.640625 7.167969 5.664062 7.304688 5.523438 L 8.125 4.691406 L 8.125 10.25 C 8.125 10.441406 8.296875 10.601562 8.488281 10.601562 C 8.679688 10.601562 8.839844 10.441406 8.839844 10.238281 Z M 13.289062 8.820312 L 13.289062 8.117188 C 13.289062 7.519531 13.011719 6.933594 12.59375 6.6875 C 12.949219 6.398438 13.234375 5.875 13.234375 5.289062 C 13.234375 4.789062 13.105469 4.425781 12.796875 4.074219 C 12.511719 3.742188 12.019531 3.507812 11.464844 3.507812 L 10.035156 3.507812 C 9.84375 3.507812 9.683594 3.679688 9.683594 3.871094 C 9.683594 4.0625 9.84375 4.222656 10.035156 4.222656 L 11.464844 4.222656 C 11.796875 4.222656 12.074219 4.351562 12.253906 4.554688 C 12.46875 4.777344 12.53125 5.277344 12.53125 5.277344 C 12.53125 5.609375 12.433594 5.84375 12.191406 6.070312 C 11.964844 6.269531 11.761719 6.335938 11.464844 6.335938 L 10.792969 6.335938 C 10.601562 6.335938 10.441406 6.496094 10.441406 6.6875 C 10.441406 6.878906 10.601562 7.050781 10.792969 7.050781 L 11.507812 7.050781 C 11.804688 7.050781 12.019531 7.113281 12.234375 7.316406 C 12.488281 7.539062 12.574219 7.773438 12.574219 8.117188 L 12.574219 8.820312 C 12.574219 9.128906 12.519531 9.332031 12.308594 9.566406 C 12.125 9.757812 11.847656 9.886719 11.507812 9.886719 L 10.089844 9.886719 C 9.898438 9.886719 9.738281 10.058594 9.738281 10.25 C 9.738281 10.441406 9.898438 10.601562 10.089844 10.601562 L 11.507812 10.601562 C 12.074219 10.601562 12.554688 10.378906 12.851562 10.035156 C 13.148438 9.695312 13.289062 9.332031 13.289062 8.820312 Z M 13.289062 8.820312 "/>
</svg>
