<?xml version="1.0" encoding="UTF-8"?>
<svg xmlns="http://www.w3.org/2000/svg" xmlns:xlink="http://www.w3.org/1999/xlink" width="20" height="14.096813" viewBox="0 0 20 14.096813">
<path fill-rule="nonzero" fill="rgb(100%, 100%, 100%)" fill-opacity="1" d="M 0 0 L 20 0 L 20 14.097656 L 0 14.097656 Z M 0 0 "/>
<path fill="none" stroke-width="0.590319" stroke-linecap="butt" stroke-linejoin="miter" stroke="rgb(0%, 0%, 0%)" stroke-opacity="1" stroke-miterlimit="4" d="M 15.84375 7.046875 C 15.84375 10.277344 13.226562 12.890625 10 12.890625 C 6.773438 12.890625 4.15625 10.277344 4.15625 7.046875 C 4.15625 3.820312 6.773438 1.203125 10 1.203125 C 13.226562 1.203125 15.84375 3.820312 15.84375 7.046875 Z M 15.84375 7.046875 "/>
<path fill-rule="evenodd" fill="rgb(0%, 0%, 0%)" fill-opacity="1" d="M 9.550781 8.824219 L 9.550781 5.273438 C 9.550781 4.292969 8.761719 3.492188 7.78125 3.492188 C 6.800781 3.492188 6 4.292969 6 5.273438 L 6 8.824219 C 6 9.804688 6.800781 10.605469 7.78125 10.605469 C 8.761719 10.605469 9.550781 9.804688 9.550781 8.824219 Z M 8.847656 8.824219 C 8.847656 9.421875 8.367188 9.890625 7.78125 9.890625 C 7.183594 9.890625 6.714844 9.421875 6.714844 8.824219 L 6.714844 5.273438 C 6.714844 4.6875 7.183594 4.207031 7.78125 4.207031 C 8.367188 4.207031 8.847656 4.6875 8.847656 5.273438 Z M 14 3.855469 C 14 3.652344 13.839844 3.492188 13.648438 3.492188 L 10.800781 3.492188 C 10.703125 3.492188 10.628906 3.511719 10.566406 3.578125 C 10.480469 3.660156 10.449219 3.738281 10.449219 3.855469 L 10.449219 6.691406 C 10.449219 6.808594 10.480469 6.882812 10.566406 6.96875 C 10.628906 7.03125 10.703125 7.054688 10.800781 7.054688 L 12.207031 7.054688 C 12.507812 7.054688 12.710938 7.117188 12.933594 7.320312 C 13.179688 7.542969 13.273438 7.777344 13.273438 8.121094 L 13.273438 8.824219 C 13.273438 9.132812 13.210938 9.335938 12.996094 9.570312 C 12.816406 9.761719 12.539062 9.890625 12.207031 9.890625 L 10.777344 9.890625 C 10.585938 9.890625 10.425781 10.0625 10.425781 10.253906 C 10.425781 10.445312 10.585938 10.605469 10.777344 10.605469 L 12.207031 10.605469 C 12.761719 10.605469 13.253906 10.382812 13.542969 10.039062 C 13.851562 9.699219 13.980469 9.335938 13.980469 8.824219 L 13.980469 8.121094 C 13.980469 7.523438 13.710938 7.011719 13.359375 6.722656 C 13.0625 6.476562 12.515625 6.339844 12.207031 6.339844 L 11.164062 6.339844 L 11.164062 4.207031 L 13.648438 4.207031 C 13.839844 4.207031 14 4.066406 14 3.855469 Z M 14 3.855469 "/>
</svg>
