<?xml version="1.0" encoding="UTF-8"?>
<svg xmlns="http://www.w3.org/2000/svg" xmlns:xlink="http://www.w3.org/1999/xlink" width="16" height="16" viewBox="0 0 16 16">
<path fill-rule="nonzero" fill="rgb(100%, 100%, 100%)" fill-opacity="1" stroke-width="5" stroke-linecap="butt" stroke-linejoin="miter" stroke="rgb(0%, 0%, 0%)" stroke-opacity="1" stroke-miterlimit="4" d="M 101.511719 52 C 101.511719 79.345703 79.345703 101.511719 52 101.511719 C 24.654297 101.511719 2.488281 79.345703 2.488281 52 C 2.488281 24.654297 24.654297 2.488281 52 2.488281 C 79.345703 2.488281 101.511719 24.654297 101.511719 52 Z M 101.511719 52 " transform="matrix(0.153846, 0, 0, 0.153846, 0, 0)"/>
<path fill-rule="nonzero" fill="rgb(0%, 0%, 0%)" fill-opacity="1" d="M 5.75 12.015625 L 4.78125 12.015625 L 4.78125 6.398438 C 4.78125 6.074219 4.785156 5.816406 4.792969 5.621094 C 4.800781 5.425781 4.8125 5.222656 4.828125 5.011719 C 4.707031 5.132812 4.597656 5.234375 4.5 5.316406 C 4.402344 5.398438 4.277344 5.503906 4.128906 5.632812 L 3.273438 6.328125 L 2.753906 5.664062 L 4.929688 3.976562 L 5.75 3.976562 Z M 5.75 12.015625 "/>
<path fill-rule="nonzero" fill="rgb(0%, 0%, 0%)" fill-opacity="1" d="M 13.246094 10.191406 L 12.074219 10.191406 L 12.074219 12.015625 L 11.117188 12.015625 L 11.117188 10.191406 L 7.269531 10.191406 L 7.269531 9.347656 L 11.050781 3.933594 L 12.074219 3.933594 L 12.074219 9.300781 L 13.246094 9.300781 Z M 11.117188 6.769531 C 11.117188 6.378906 11.125 6.046875 11.140625 5.777344 C 11.15625 5.5 11.167969 5.238281 11.171875 4.988281 L 11.128906 4.988281 C 11.070312 5.132812 10.992188 5.285156 10.902344 5.453125 C 10.8125 5.617188 10.726562 5.753906 10.644531 5.867188 L 8.234375 9.300781 L 11.117188 9.300781 Z M 11.117188 6.769531 "/>
</svg>
