<?xml version="1.0" encoding="UTF-8"?>
<svg xmlns="http://www.w3.org/2000/svg" xmlns:xlink="http://www.w3.org/1999/xlink" width="16" height="16" viewBox="0 0 16 16">
<path fill-rule="nonzero" fill="rgb(100%, 100%, 100%)" fill-opacity="1" stroke-width="5" stroke-linecap="butt" stroke-linejoin="miter" stroke="rgb(0%, 0%, 0%)" stroke-opacity="1" stroke-miterlimit="4" d="M 101.511719 52 C 101.511719 79.345703 79.345703 101.511719 52 101.511719 C 24.654297 101.511719 2.488281 79.345703 2.488281 52 C 2.488281 24.654297 24.654297 2.488281 52 2.488281 C 79.345703 2.488281 101.511719 24.654297 101.511719 52 Z M 101.511719 52 " transform="matrix(0.153846, 0, 0, 0.153846, 0, 0)"/>
<path fill-rule="nonzero" fill="rgb(0%, 0%, 0%)" fill-opacity="1" d="M 6.96875 9.753906 C 6.96875 9.40625 7 9.113281 7.0625 8.871094 C 7.136719 8.617188 7.253906 8.375 7.414062 8.148438 C 7.589844 7.921875 7.820312 7.6875 8.109375 7.441406 C 8.460938 7.144531 8.734375 6.894531 8.921875 6.695312 C 9.121094 6.496094 9.261719 6.300781 9.34375 6.113281 C 9.425781 5.921875 9.46875 5.691406 9.46875 5.417969 C 9.46875 4.984375 9.328125 4.648438 9.046875 4.414062 C 8.765625 4.179688 8.359375 4.0625 7.824219 4.0625 C 7.378906 4.0625 6.984375 4.121094 6.640625 4.238281 C 6.296875 4.347656 5.96875 4.476562 5.648438 4.632812 L 5.230469 3.679688 C 5.589844 3.488281 5.988281 3.332031 6.425781 3.203125 C 6.867188 3.078125 7.363281 3.015625 7.90625 3.015625 C 8.765625 3.015625 9.429688 3.226562 9.902344 3.652344 C 10.371094 4.078125 10.609375 4.660156 10.609375 5.390625 C 10.609375 5.800781 10.539062 6.148438 10.40625 6.4375 C 10.277344 6.71875 10.09375 6.980469 9.847656 7.226562 C 9.613281 7.460938 9.332031 7.714844 9.003906 7.988281 C 8.707031 8.238281 8.476562 8.460938 8.3125 8.652344 C 8.160156 8.84375 8.054688 9.03125 8 9.222656 C 7.945312 9.402344 7.917969 9.625 7.917969 9.886719 L 7.917969 10.117188 L 6.96875 10.117188 Z M 6.65625 12.117188 C 6.65625 11.78125 6.730469 11.546875 6.886719 11.410156 C 7.050781 11.273438 7.253906 11.207031 7.496094 11.207031 C 7.722656 11.207031 7.917969 11.273438 8.082031 11.410156 C 8.246094 11.546875 8.324219 11.78125 8.324219 12.117188 C 8.324219 12.441406 8.246094 12.675781 8.082031 12.824219 C 7.917969 12.96875 7.722656 13.039062 7.496094 13.039062 C 7.253906 13.039062 7.050781 12.96875 6.886719 12.824219 C 6.730469 12.675781 6.65625 12.441406 6.65625 12.117188 Z M 6.65625 12.117188 "/>
</svg>
