<?xml version="1.0" encoding="UTF-8"?>
<svg xmlns="http://www.w3.org/2000/svg" xmlns:xlink="http://www.w3.org/1999/xlink" width="20" height="14.096813" viewBox="0 0 20 14.096813">
<path fill-rule="nonzero" fill="rgb(100%, 100%, 100%)" fill-opacity="1" d="M 0 0 L 20 0 L 20 14.097656 L 0 14.097656 Z M 0 0 "/>
<path fill="none" stroke-width="0.590319" stroke-linecap="butt" stroke-linejoin="miter" stroke="rgb(0%, 0%, 0%)" stroke-opacity="1" stroke-miterlimit="4" d="M 15.84375 7.046875 C 15.84375 10.277344 13.226562 12.890625 10 12.890625 C 6.773438 12.890625 4.15625 10.277344 4.15625 7.046875 C 4.15625 3.820312 6.773438 1.203125 10 1.203125 C 13.226562 1.203125 15.84375 3.820312 15.84375 7.046875 Z M 15.84375 7.046875 "/>
<path fill-rule="evenodd" fill="rgb(0%, 0%, 0%)" fill-opacity="1" d="M 11.777344 9.195312 L 11.777344 7.765625 C 11.777344 7.339844 11.691406 7.050781 11.382812 6.742188 C 11.070312 6.441406 10.785156 6.347656 10.355469 6.347656 L 9.171875 6.347656 C 9.3125 5.929688 9.429688 5.707031 9.675781 5.332031 C 10.164062 4.597656 10.625 4.394531 10.945312 4.160156 C 11.105469 4.03125 11.125 3.785156 11.007812 3.625 C 10.871094 3.433594 10.65625 3.457031 10.496094 3.574219 C 10.144531 3.851562 9.472656 4.332031 9.046875 4.992188 C 8.511719 5.824219 8.222656 6.675781 8.222656 7.765625 L 8.222656 9.195312 C 8.222656 10.078125 9.109375 10.613281 10.003906 10.613281 C 10.890625 10.613281 11.777344 10.078125 11.777344 9.195312 Z M 11.070312 9.171875 C 11.070312 9.675781 10.496094 9.886719 10.003906 9.886719 C 9.503906 9.886719 8.9375 9.675781 8.9375 9.171875 L 8.9375 7.765625 C 8.9375 7.636719 8.9375 7.5625 8.949219 7.425781 C 8.960938 7.285156 8.980469 7.1875 9.011719 7.0625 L 10.347656 7.0625 C 10.558594 7.0625 10.699219 7.09375 10.859375 7.242188 C 11.007812 7.390625 11.070312 7.542969 11.070312 7.753906 Z M 11.070312 9.171875 "/>
</svg>
