<?xml version="1.0" encoding="UTF-8"?>
<svg xmlns="http://www.w3.org/2000/svg" xmlns:xlink="http://www.w3.org/1999/xlink" width="20" height="14.096813" viewBox="0 0 20 14.096813">
<path fill-rule="nonzero" fill="rgb(100%, 100%, 100%)" fill-opacity="1" d="M 0 0 L 20 0 L 20 14.097656 L 0 14.097656 Z M 0 0 "/>
<path fill="none" stroke-width="0.590319" stroke-linecap="butt" stroke-linejoin="miter" stroke="rgb(0%, 0%, 0%)" stroke-opacity="1" stroke-miterlimit="4" d="M 15.84375 7.046875 C 15.84375 10.277344 13.226562 12.890625 10 12.890625 C 6.773438 12.890625 4.15625 10.277344 4.15625 7.046875 C 4.15625 3.820312 6.773438 1.203125 10 1.203125 C 13.226562 1.203125 15.84375 3.820312 15.84375 7.046875 Z M 15.84375 7.046875 "/>
<path fill-rule="evenodd" fill="rgb(0%, 0%, 0%)" fill-opacity="1" d="M 8.617188 6.339844 C 8.683594 6.457031 8.769531 6.542969 8.851562 6.628906 C 8.683594 6.765625 8.585938 6.863281 8.46875 7.054688 C 8.320312 7.300781 8.222656 7.46875 8.222656 7.757812 L 8.222656 9.1875 C 8.222656 10.074219 9.109375 10.605469 10.003906 10.605469 C 10.890625 10.605469 11.777344 10.074219 11.777344 9.1875 L 11.777344 7.757812 C 11.777344 7.480469 11.753906 7.300781 11.605469 7.054688 C 11.476562 6.851562 11.347656 6.734375 11.148438 6.628906 C 11.253906 6.53125 11.308594 6.457031 11.390625 6.339844 C 11.542969 6.09375 11.605469 5.921875 11.605469 5.625 L 11.605469 4.921875 C 11.605469 4.089844 10.835938 3.492188 10.003906 3.492188 C 9.171875 3.492188 8.40625 4.089844 8.40625 4.921875 L 8.40625 5.625 C 8.40625 5.921875 8.46875 6.09375 8.617188 6.339844 Z M 10.890625 5.625 C 10.890625 6.074219 10.441406 6.339844 10.003906 6.339844 C 9.558594 6.339844 9.109375 6.074219 9.109375 5.625 L 9.109375 4.921875 C 9.109375 4.472656 9.558594 4.207031 10.003906 4.207031 C 10.441406 4.207031 10.890625 4.472656 10.890625 4.921875 Z M 11.070312 9.1875 C 11.070312 9.679688 10.507812 9.890625 10.015625 9.890625 C 9.515625 9.902344 8.9375 9.6875 8.9375 9.1875 L 8.9375 7.757812 C 8.9375 7.257812 9.492188 7.03125 10.003906 7.03125 C 10.507812 7.03125 11.070312 7.257812 11.070312 7.757812 Z M 11.070312 9.1875 "/>
</svg>
