<?xml version="1.0" encoding="UTF-8"?>
<svg xmlns="http://www.w3.org/2000/svg" xmlns:xlink="http://www.w3.org/1999/xlink" width="20" height="14.096813" viewBox="0 0 20 14.096813">
<path fill-rule="nonzero" fill="rgb(100%, 100%, 100%)" fill-opacity="1" d="M 0 0 L 20 0 L 20 14.097656 L 0 14.097656 Z M 0 0 "/>
<path fill="none" stroke-width="0.590319" stroke-linecap="butt" stroke-linejoin="miter" stroke="rgb(0%, 0%, 0%)" stroke-opacity="1" stroke-miterlimit="4" d="M 15.84375 7.046875 C 15.84375 10.277344 13.226562 12.890625 10 12.890625 C 6.773438 12.890625 4.15625 10.277344 4.15625 7.046875 C 4.15625 3.820312 6.773438 1.203125 10 1.203125 C 13.226562 1.203125 15.84375 3.820312 15.84375 7.046875 Z M 15.84375 7.046875 "/>
<path fill-rule="evenodd" fill="rgb(0%, 0%, 0%)" fill-opacity="1" d="M 8.488281 10.242188 L 8.488281 3.855469 C 8.488281 3.746094 8.457031 3.664062 8.382812 3.585938 C 8.316406 3.511719 8.019531 3.4375 7.878906 3.578125 L 6.453125 5.007812 C 6.300781 5.15625 6.355469 5.433594 6.460938 5.539062 C 6.558594 5.644531 6.8125 5.667969 6.953125 5.527344 L 7.773438 4.695312 L 7.773438 10.253906 C 7.773438 10.445312 7.945312 10.605469 8.136719 10.605469 C 8.328125 10.605469 8.488281 10.445312 8.488281 10.242188 Z M 13.640625 8.824219 C 13.640625 8.632812 13.480469 8.472656 13.289062 8.472656 L 12.574219 8.472656 L 12.574219 7.394531 C 12.574219 7.203125 12.414062 7.054688 12.222656 7.054688 C 12.03125 7.054688 11.859375 7.214844 11.859375 7.40625 L 11.859375 8.472656 L 10.195312 8.472656 L 11.496094 3.917969 C 11.550781 3.714844 11.410156 3.492188 11.15625 3.492188 C 11.027344 3.480469 10.855469 3.566406 10.8125 3.726562 L 9.375 8.738281 C 9.34375 8.878906 9.40625 9.039062 9.46875 9.082031 C 9.554688 9.15625 9.621094 9.1875 9.726562 9.1875 L 11.859375 9.1875 L 11.859375 10.253906 C 11.859375 10.445312 12.03125 10.605469 12.222656 10.605469 C 12.414062 10.605469 12.574219 10.445312 12.574219 10.253906 L 12.574219 9.1875 L 13.289062 9.1875 C 13.480469 9.1875 13.640625 9.015625 13.640625 8.824219 Z M 13.640625 8.824219 "/>
</svg>
