<?xml version="1.0" encoding="UTF-8"?>
<svg xmlns="http://www.w3.org/2000/svg" xmlns:xlink="http://www.w3.org/1999/xlink" width="20" height="14.096813" viewBox="0 0 20 14.096813">
<path fill-rule="nonzero" fill="rgb(100%, 100%, 100%)" fill-opacity="1" d="M 0 0 L 20 0 L 20 14.097656 L 0 14.097656 Z M 0 0 "/>
<path fill="none" stroke-width="0.590319" stroke-linecap="butt" stroke-linejoin="miter" stroke="rgb(0%, 0%, 0%)" stroke-opacity="1" stroke-miterlimit="4" d="M 15.84375 7.046875 C 15.84375 10.277344 13.226562 12.890625 10 12.890625 C 6.773438 12.890625 4.15625 10.277344 4.15625 7.046875 C 4.15625 3.820312 6.773438 1.203125 10 1.203125 C 13.226562 1.203125 15.84375 3.820312 15.84375 7.046875 Z M 15.84375 7.046875 "/>
<path fill-rule="evenodd" fill="rgb(0%, 0%, 0%)" fill-opacity="1" d="M 11.785156 3.855469 C 11.785156 3.652344 11.625 3.492188 11.433594 3.492188 L 8.585938 3.492188 C 8.492188 3.492188 8.414062 3.511719 8.351562 3.578125 C 8.265625 3.660156 8.234375 3.738281 8.234375 3.855469 L 8.234375 6.691406 C 8.234375 6.808594 8.265625 6.882812 8.351562 6.96875 C 8.414062 7.03125 8.492188 7.054688 8.585938 7.054688 L 9.996094 7.054688 C 10.292969 7.054688 10.496094 7.117188 10.71875 7.320312 C 10.964844 7.542969 11.0625 7.777344 11.0625 8.121094 L 11.0625 8.824219 C 11.0625 9.132812 10.996094 9.335938 10.785156 9.570312 C 10.601562 9.761719 10.324219 9.890625 9.996094 9.890625 L 8.566406 9.890625 C 8.375 9.890625 8.214844 10.0625 8.214844 10.253906 C 8.214844 10.445312 8.375 10.605469 8.566406 10.605469 L 9.996094 10.605469 C 10.550781 10.605469 11.039062 10.382812 11.328125 10.039062 C 11.636719 9.699219 11.765625 9.335938 11.765625 8.824219 L 11.765625 8.121094 C 11.765625 7.523438 11.5 7.011719 11.148438 6.722656 C 10.847656 6.476562 10.304688 6.339844 9.996094 6.339844 L 8.949219 6.339844 L 8.949219 4.207031 L 11.433594 4.207031 C 11.625 4.207031 11.785156 4.066406 11.785156 3.855469 Z M 11.785156 3.855469 "/>
</svg>
