<?xml version="1.0" encoding="UTF-8"?>
<svg xmlns="http://www.w3.org/2000/svg" xmlns:xlink="http://www.w3.org/1999/xlink" width="20" height="14.096813" viewBox="0 0 20 14.096813">
<path fill-rule="nonzero" fill="rgb(100%, 100%, 100%)" fill-opacity="1" d="M 0 0 L 20 0 L 20 14.097656 L 0 14.097656 Z M 0 0 "/>
<path fill="none" stroke-width="0.590319" stroke-linecap="butt" stroke-linejoin="miter" stroke="rgb(0%, 0%, 0%)" stroke-opacity="1" stroke-miterlimit="4" d="M 15.84375 7.046875 C 15.84375 10.277344 13.226562 12.890625 10 12.890625 C 6.773438 12.890625 4.15625 10.277344 4.15625 7.046875 C 4.15625 3.820312 6.773438 1.203125 10 1.203125 C 13.226562 1.203125 15.84375 3.820312 15.84375 7.046875 Z M 15.84375 7.046875 "/>
<path fill-rule="evenodd" fill="rgb(0%, 0%, 0%)" fill-opacity="1" d="M 11.777344 10.253906 C 11.777344 10.0625 11.617188 9.890625 11.425781 9.890625 L 9.21875 9.890625 L 11.519531 6.222656 C 11.714844 5.902344 11.777344 5.644531 11.777344 5.273438 C 11.796875 4.207031 10.988281 3.535156 10.007812 3.492188 C 9.226562 3.46875 8.695312 3.820312 8.277344 4.496094 C 8.191406 4.644531 8.148438 5.058594 8.578125 5.089844 C 8.703125 5.089844 8.8125 5.050781 8.875 4.929688 C 9.152344 4.441406 9.410156 4.195312 10.007812 4.207031 C 10.742188 4.21875 11.0625 4.6875 11.074219 5.273438 C 11.074219 5.496094 11.039062 5.625 10.921875 5.839844 L 8.277344 10.039062 C 8.234375 10.117188 8.226562 10.167969 8.226562 10.253906 C 8.234375 10.445312 8.386719 10.59375 8.578125 10.605469 L 11.425781 10.605469 C 11.617188 10.605469 11.777344 10.445312 11.777344 10.253906 Z M 11.777344 10.253906 "/>
</svg>
