<?xml version="1.0" encoding="UTF-8"?>
<svg xmlns="http://www.w3.org/2000/svg" xmlns:xlink="http://www.w3.org/1999/xlink" width="20" height="14.096813" viewBox="0 0 20 14.096813">
<path fill-rule="nonzero" fill="rgb(100%, 100%, 100%)" fill-opacity="1" d="M 0 0 L 20 0 L 20 14.097656 L 0 14.097656 Z M 0 0 "/>
<path fill="none" stroke-width="0.590319" stroke-linecap="butt" stroke-linejoin="miter" stroke="rgb(0%, 0%, 0%)" stroke-opacity="1" stroke-miterlimit="4" d="M 15.84375 7.046875 C 15.84375 10.277344 13.226562 12.890625 10 12.890625 C 6.773438 12.890625 4.15625 10.277344 4.15625 7.046875 C 4.15625 3.820312 6.773438 1.203125 10 1.203125 C 13.226562 1.203125 15.84375 3.820312 15.84375 7.046875 Z M 15.84375 7.046875 "/>
<path fill-rule="evenodd" fill="rgb(0%, 0%, 0%)" fill-opacity="1" d="M 11.765625 3.90625 C 11.796875 3.769531 11.765625 3.671875 11.667969 3.578125 C 11.59375 3.511719 11.519531 3.492188 11.421875 3.492188 L 8.574219 3.492188 C 8.488281 3.492188 8.414062 3.511719 8.339844 3.578125 C 8.253906 3.640625 8.222656 3.734375 8.222656 3.855469 L 8.222656 4.558594 C 8.222656 4.75 8.382812 4.921875 8.574219 4.921875 C 8.765625 4.921875 8.9375 4.75 8.9375 4.558594 L 8.9375 4.207031 L 10.976562 4.207031 L 9.664062 10.148438 C 9.609375 10.359375 9.707031 10.617188 10.003906 10.605469 C 10.164062 10.59375 10.304688 10.5 10.335938 10.339844 Z M 11.765625 3.90625 "/>
</svg>
