<?xml version="1.0" encoding="UTF-8"?>
<svg xmlns="http://www.w3.org/2000/svg" xmlns:xlink="http://www.w3.org/1999/xlink" width="20" height="17.320999" viewBox="0 0 20 17.320999">
<path fill-rule="nonzero" fill="rgb(4.313725%, 60.784314%, 48.235294%)" fill-opacity="1" d="M 20 17.320312 L 0 17.320312 L 10 0 Z M 20 17.320312 "/>
<path fill-rule="evenodd" fill="rgb(100%, 100%, 100%)" fill-opacity="1" d="M 8.855469 15.128906 L 8.855469 8.742188 C 8.855469 8.632812 8.824219 8.550781 8.75 8.472656 C 8.6875 8.398438 8.386719 8.324219 8.25 8.464844 L 6.820312 9.894531 C 6.671875 10.042969 6.722656 10.320312 6.828125 10.425781 C 6.925781 10.53125 7.183594 10.554688 7.320312 10.414062 L 8.140625 9.582031 L 8.140625 15.140625 C 8.140625 15.332031 8.3125 15.492188 8.503906 15.492188 C 8.695312 15.492188 8.855469 15.332031 8.855469 15.128906 Z M 13.273438 14.097656 L 13.273438 12.667969 C 13.273438 12.238281 13.1875 11.953125 12.878906 11.640625 C 12.570312 11.34375 12.28125 11.246094 11.855469 11.246094 L 10.671875 11.246094 C 10.808594 10.832031 10.925781 10.609375 11.171875 10.234375 C 11.660156 9.5 12.121094 9.296875 12.441406 9.0625 C 12.601562 8.933594 12.621094 8.6875 12.503906 8.527344 C 12.367188 8.335938 12.152344 8.355469 11.992188 8.472656 C 11.640625 8.75 10.96875 9.230469 10.542969 9.894531 C 10.007812 10.726562 9.722656 11.578125 9.722656 12.667969 L 9.722656 14.097656 C 9.722656 14.980469 10.605469 15.515625 11.503906 15.515625 C 12.386719 15.515625 13.273438 14.980469 13.273438 14.097656 Z M 12.570312 14.074219 C 12.570312 14.574219 11.992188 14.789062 11.503906 14.789062 C 11 14.789062 10.433594 14.574219 10.433594 14.074219 L 10.433594 12.667969 C 10.433594 12.539062 10.433594 12.464844 10.445312 12.324219 C 10.457031 12.1875 10.476562 12.089844 10.511719 11.960938 L 11.84375 11.960938 C 12.058594 11.960938 12.195312 11.996094 12.355469 12.144531 C 12.503906 12.292969 12.570312 12.441406 12.570312 12.65625 Z M 12.570312 14.074219 "/>
</svg>
