<?xml version="1.0" encoding="UTF-8"?>
<svg xmlns="http://www.w3.org/2000/svg" xmlns:xlink="http://www.w3.org/1999/xlink" width="20" height="17.320999" viewBox="0 0 20 17.320999">
<path fill-rule="nonzero" fill="rgb(4.313725%, 60.784314%, 48.235294%)" fill-opacity="1" d="M 20 17.320312 L 0 17.320312 L 10 0 Z M 20 17.320312 "/>
<path fill-rule="evenodd" fill="rgb(100%, 100%, 100%)" fill-opacity="1" d="M 12.136719 13.710938 C 12.136719 13.519531 11.976562 13.359375 11.785156 13.359375 L 11.070312 13.359375 L 11.070312 12.28125 C 11.070312 12.089844 10.910156 11.941406 10.71875 11.941406 C 10.527344 11.941406 10.355469 12.101562 10.355469 12.292969 L 10.355469 13.359375 L 8.691406 13.359375 L 9.992188 8.804688 C 10.046875 8.601562 9.910156 8.378906 9.652344 8.378906 C 9.523438 8.367188 9.355469 8.453125 9.3125 8.613281 L 7.871094 13.625 C 7.839844 13.765625 7.902344 13.925781 7.96875 13.96875 C 8.050781 14.042969 8.117188 14.074219 8.222656 14.074219 L 10.355469 14.074219 L 10.355469 15.140625 C 10.355469 15.332031 10.527344 15.492188 10.71875 15.492188 C 10.910156 15.492188 11.070312 15.332031 11.070312 15.140625 L 11.070312 14.074219 L 11.785156 14.074219 C 11.976562 14.074219 12.136719 13.902344 12.136719 13.710938 Z M 12.136719 13.710938 "/>
</svg>
