<?xml version="1.0" encoding="UTF-8"?>
<svg xmlns="http://www.w3.org/2000/svg" xmlns:xlink="http://www.w3.org/1999/xlink" width="20" height="17.320999" viewBox="0 0 20 17.320999">
<path fill-rule="nonzero" fill="rgb(4.313725%, 60.784314%, 48.235294%)" fill-opacity="1" d="M 20 17.320312 L 0 17.320312 L 10 0 Z M 20 17.320312 "/>
<path fill-rule="evenodd" fill="rgb(100%, 100%, 100%)" fill-opacity="1" d="M 8.847656 15.128906 L 8.847656 8.742188 C 8.847656 8.632812 8.8125 8.550781 8.738281 8.472656 C 8.675781 8.398438 8.375 8.324219 8.238281 8.464844 L 6.808594 9.894531 C 6.660156 10.042969 6.710938 10.320312 6.820312 10.425781 C 6.914062 10.53125 7.171875 10.554688 7.308594 10.414062 L 8.132812 9.582031 L 8.132812 15.140625 C 8.132812 15.332031 8.300781 15.492188 8.492188 15.492188 C 8.6875 15.492188 8.847656 15.332031 8.847656 15.128906 Z M 13.28125 15.140625 C 13.28125 14.949219 13.125 14.777344 12.929688 14.777344 L 10.722656 14.777344 L 13.027344 11.109375 C 13.21875 10.789062 13.28125 10.53125 13.28125 10.160156 C 13.304688 9.09375 12.492188 8.421875 11.511719 8.378906 C 10.734375 8.355469 10.199219 8.710938 9.785156 9.382812 C 9.699219 9.53125 9.65625 9.945312 10.082031 9.976562 C 10.210938 9.976562 10.316406 9.9375 10.382812 9.820312 C 10.660156 9.328125 10.914062 9.082031 11.511719 9.09375 C 12.25 9.105469 12.570312 9.574219 12.578125 10.160156 C 12.578125 10.382812 12.546875 10.511719 12.429688 10.726562 L 9.785156 14.929688 C 9.742188 15.003906 9.730469 15.054688 9.730469 15.140625 C 9.742188 15.332031 9.890625 15.484375 10.082031 15.492188 L 12.929688 15.492188 C 13.125 15.492188 13.28125 15.332031 13.28125 15.140625 Z M 13.28125 15.140625 "/>
</svg>
