<?xml version="1.0" encoding="UTF-8"?>
<svg xmlns="http://www.w3.org/2000/svg" xmlns:xlink="http://www.w3.org/1999/xlink" width="20" height="17.320999" viewBox="0 0 20 17.320999">
<path fill-rule="nonzero" fill="rgb(4.313725%, 60.784314%, 48.235294%)" fill-opacity="1" d="M 20 17.320312 L 0 17.320312 L 10 0 Z M 20 17.320312 "/>
<path fill-rule="evenodd" fill="rgb(100%, 100%, 100%)" fill-opacity="1" d="M 11.765625 8.792969 C 11.796875 8.65625 11.765625 8.558594 11.667969 8.464844 C 11.59375 8.398438 11.519531 8.378906 11.421875 8.378906 L 8.574219 8.378906 C 8.488281 8.378906 8.414062 8.398438 8.339844 8.464844 C 8.253906 8.527344 8.222656 8.625 8.222656 8.742188 L 8.222656 9.445312 C 8.222656 9.636719 8.382812 9.808594 8.574219 9.808594 C 8.765625 9.808594 8.9375 9.636719 8.9375 9.445312 L 8.9375 9.09375 L 10.976562 9.09375 L 9.664062 15.035156 C 9.609375 15.246094 9.707031 15.503906 10.003906 15.492188 C 10.164062 15.484375 10.304688 15.386719 10.335938 15.226562 Z M 11.765625 8.792969 "/>
</svg>
