<?xml version="1.0" encoding="UTF-8"?>
<svg xmlns="http://www.w3.org/2000/svg" xmlns:xlink="http://www.w3.org/1999/xlink" width="20" height="17.321001" viewBox="0 0 20 17.321001">
<path fill-rule="nonzero" fill="rgb(4.313725%, 60.784314%, 48.235294%)" fill-opacity="1" d="M 20 17.320312 L 0 17.320312 L 10 0 Z M 20 17.320312 "/>
<path fill-rule="nonzero" fill="rgb(100%, 100%, 100%)" fill-opacity="1" d="M 8.214844 15.347656 L 7.382812 15.347656 L 7.382812 10.507812 C 7.382812 10.230469 7.386719 10.007812 7.390625 9.839844 C 7.398438 9.671875 7.40625 9.496094 7.421875 9.3125 C 7.316406 9.421875 7.222656 9.507812 7.140625 9.578125 C 7.054688 9.648438 6.949219 9.738281 6.820312 9.851562 L 6.082031 10.453125 L 5.636719 9.878906 L 7.507812 8.425781 L 8.214844 8.425781 Z M 8.214844 15.347656 "/>
<path fill-rule="nonzero" fill="rgb(100%, 100%, 100%)" fill-opacity="1" d="M 14.363281 15.347656 L 9.78125 15.347656 L 9.78125 14.640625 L 11.601562 12.808594 C 11.949219 12.457031 12.242188 12.148438 12.484375 11.878906 C 12.722656 11.605469 12.902344 11.339844 13.023438 11.082031 C 13.148438 10.816406 13.210938 10.53125 13.210938 10.21875 C 13.210938 9.835938 13.097656 9.546875 12.875 9.359375 C 12.644531 9.15625 12.351562 9.054688 11.988281 9.054688 C 11.652344 9.054688 11.355469 9.113281 11.09375 9.230469 C 10.84375 9.347656 10.585938 9.507812 10.320312 9.714844 L 9.859375 9.140625 C 10.140625 8.914062 10.445312 8.726562 10.792969 8.570312 C 11.148438 8.410156 11.546875 8.328125 11.988281 8.328125 C 12.632812 8.328125 13.140625 8.492188 13.519531 8.820312 C 13.894531 9.144531 14.078125 9.59375 14.078125 10.171875 C 14.078125 10.53125 14.007812 10.871094 13.859375 11.1875 C 13.710938 11.5 13.503906 11.820312 13.238281 12.125 C 12.972656 12.433594 12.664062 12.757812 12.308594 13.109375 L 10.863281 14.535156 L 10.863281 14.574219 L 14.363281 14.574219 Z M 14.363281 15.347656 "/>
</svg>
