<?xml version="1.0" encoding="UTF-8"?>
<svg xmlns="http://www.w3.org/2000/svg" xmlns:xlink="http://www.w3.org/1999/xlink" width="20" height="17.320999" viewBox="0 0 20 17.320999">
<path fill-rule="nonzero" fill="rgb(4.313725%, 60.784314%, 48.235294%)" fill-opacity="1" d="M 20 17.320312 L 0 17.320312 L 10 0 Z M 20 17.320312 "/>
<path fill-rule="evenodd" fill="rgb(100%, 100%, 100%)" fill-opacity="1" d="M 8.847656 15.128906 L 8.847656 8.742188 C 8.847656 8.632812 8.8125 8.550781 8.738281 8.472656 C 8.675781 8.398438 8.375 8.324219 8.238281 8.464844 L 6.808594 9.894531 C 6.660156 10.042969 6.710938 10.320312 6.820312 10.425781 C 6.914062 10.53125 7.171875 10.554688 7.308594 10.414062 L 8.132812 9.582031 L 8.132812 15.140625 C 8.132812 15.332031 8.300781 15.492188 8.492188 15.492188 C 8.6875 15.492188 8.847656 15.332031 8.847656 15.128906 Z M 13.285156 13.710938 L 13.285156 10.160156 C 13.285156 9.179688 12.492188 8.378906 11.511719 8.378906 C 10.53125 8.378906 9.730469 9.179688 9.730469 10.160156 L 9.730469 13.710938 C 9.730469 14.691406 10.53125 15.492188 11.511719 15.492188 C 12.492188 15.492188 13.285156 14.691406 13.285156 13.710938 Z M 12.578125 13.710938 C 12.578125 14.308594 12.097656 14.777344 11.511719 14.777344 C 10.914062 14.777344 10.445312 14.308594 10.445312 13.710938 L 10.445312 10.160156 C 10.445312 9.574219 10.914062 9.09375 11.511719 9.09375 C 12.097656 9.09375 12.578125 9.574219 12.578125 10.160156 Z M 12.578125 13.710938 "/>
</svg>
