<?xml version="1.0" encoding="UTF-8"?>
<svg xmlns="http://www.w3.org/2000/svg" xmlns:xlink="http://www.w3.org/1999/xlink" width="20" height="17.320999" viewBox="0 0 20 17.320999">
<path fill-rule="nonzero" fill="rgb(4.313725%, 60.784314%, 48.235294%)" fill-opacity="1" d="M 20 17.320312 L 0 17.320312 L 10 0 Z M 20 17.320312 "/>
<path fill-rule="evenodd" fill="rgb(100%, 100%, 100%)" fill-opacity="1" d="M 11.777344 14.097656 L 11.777344 12.667969 C 11.777344 12.238281 11.691406 11.953125 11.382812 11.640625 C 11.070312 11.34375 10.785156 11.246094 10.355469 11.246094 L 9.171875 11.246094 C 9.3125 10.832031 9.429688 10.609375 9.675781 10.234375 C 10.164062 9.5 10.625 9.296875 10.945312 9.0625 C 11.105469 8.933594 11.125 8.6875 11.007812 8.527344 C 10.871094 8.335938 10.65625 8.355469 10.496094 8.472656 C 10.144531 8.75 9.472656 9.230469 9.046875 9.894531 C 8.511719 10.726562 8.222656 11.578125 8.222656 12.667969 L 8.222656 14.097656 C 8.222656 14.980469 9.109375 15.515625 10.003906 15.515625 C 10.890625 15.515625 11.777344 14.980469 11.777344 14.097656 Z M 11.070312 14.074219 C 11.070312 14.574219 10.496094 14.789062 10.003906 14.789062 C 9.503906 14.789062 8.9375 14.574219 8.9375 14.074219 L 8.9375 12.667969 C 8.9375 12.539062 8.9375 12.464844 8.949219 12.324219 C 8.960938 12.1875 8.980469 12.089844 9.011719 11.960938 L 10.347656 11.960938 C 10.558594 11.960938 10.699219 11.996094 10.859375 12.144531 C 11.007812 12.292969 11.070312 12.441406 11.070312 12.65625 Z M 11.070312 14.074219 "/>
</svg>
