<?xml version="1.0" encoding="UTF-8"?>
<svg xmlns="http://www.w3.org/2000/svg" xmlns:xlink="http://www.w3.org/1999/xlink" width="20" height="17.320999" viewBox="0 0 20 17.320999">
<path fill-rule="nonzero" fill="rgb(4.313725%, 60.784314%, 48.235294%)" fill-opacity="1" d="M 20 17.320312 L 0 17.320312 L 10 0 Z M 20 17.320312 "/>
<path fill-rule="evenodd" fill="rgb(100%, 100%, 100%)" fill-opacity="1" d="M 8.847656 15.128906 L 8.847656 8.742188 C 8.847656 8.632812 8.8125 8.550781 8.738281 8.472656 C 8.675781 8.398438 8.375 8.324219 8.238281 8.464844 L 6.808594 9.894531 C 6.660156 10.042969 6.710938 10.320312 6.820312 10.425781 C 6.914062 10.53125 7.171875 10.554688 7.308594 10.414062 L 8.132812 9.582031 L 8.132812 15.140625 C 8.132812 15.332031 8.300781 15.492188 8.492188 15.492188 C 8.6875 15.492188 8.847656 15.332031 8.847656 15.128906 Z M 13.285156 8.742188 C 13.285156 8.539062 13.125 8.378906 12.929688 8.378906 L 10.082031 8.378906 C 9.988281 8.378906 9.914062 8.398438 9.847656 8.464844 C 9.761719 8.550781 9.730469 8.625 9.730469 8.742188 L 9.730469 11.578125 C 9.730469 11.695312 9.761719 11.769531 9.847656 11.855469 C 9.914062 11.917969 9.988281 11.941406 10.082031 11.941406 L 11.492188 11.941406 C 11.789062 11.941406 11.992188 12.003906 12.214844 12.207031 C 12.460938 12.433594 12.558594 12.667969 12.558594 13.007812 L 12.558594 13.710938 C 12.558594 14.019531 12.492188 14.222656 12.28125 14.457031 C 12.097656 14.652344 11.820312 14.777344 11.492188 14.777344 L 10.0625 14.777344 C 9.871094 14.777344 9.710938 14.949219 9.710938 15.140625 C 9.710938 15.332031 9.871094 15.492188 10.0625 15.492188 L 11.492188 15.492188 C 12.046875 15.492188 12.535156 15.269531 12.824219 14.929688 C 13.132812 14.585938 13.261719 14.222656 13.261719 13.710938 L 13.261719 13.007812 C 13.261719 12.410156 12.996094 11.898438 12.644531 11.609375 C 12.34375 11.363281 11.800781 11.226562 11.492188 11.226562 L 10.445312 11.226562 L 10.445312 9.09375 L 12.929688 9.09375 C 13.125 9.09375 13.285156 8.953125 13.285156 8.742188 Z M 13.285156 8.742188 "/>
</svg>
