<?xml version="1.0" encoding="UTF-8"?>
<svg xmlns="http://www.w3.org/2000/svg" xmlns:xlink="http://www.w3.org/1999/xlink" width="20" height="17.320999" viewBox="0 0 20 17.320999">
<path fill-rule="nonzero" fill="rgb(4.313725%, 60.784314%, 48.235294%)" fill-opacity="1" d="M 20 17.320312 L 0 17.320312 L 10 0 Z M 20 17.320312 "/>
<path fill-rule="evenodd" fill="rgb(100%, 100%, 100%)" fill-opacity="1" d="M 8.488281 15.128906 L 8.488281 8.742188 C 8.488281 8.632812 8.457031 8.550781 8.382812 8.472656 C 8.316406 8.398438 8.019531 8.324219 7.878906 8.464844 L 6.453125 9.894531 C 6.300781 10.042969 6.355469 10.320312 6.460938 10.425781 C 6.558594 10.53125 6.8125 10.554688 6.953125 10.414062 L 7.773438 9.582031 L 7.773438 15.140625 C 7.773438 15.332031 7.945312 15.492188 8.136719 15.492188 C 8.328125 15.492188 8.488281 15.332031 8.488281 15.128906 Z M 13.640625 13.710938 C 13.640625 13.519531 13.480469 13.359375 13.289062 13.359375 L 12.574219 13.359375 L 12.574219 12.28125 C 12.574219 12.089844 12.414062 11.941406 12.222656 11.941406 C 12.03125 11.941406 11.859375 12.101562 11.859375 12.292969 L 11.859375 13.359375 L 10.195312 13.359375 L 11.496094 8.804688 C 11.550781 8.601562 11.410156 8.378906 11.15625 8.378906 C 11.027344 8.367188 10.855469 8.453125 10.8125 8.613281 L 9.375 13.625 C 9.34375 13.765625 9.40625 13.925781 9.46875 13.96875 C 9.554688 14.042969 9.621094 14.074219 9.726562 14.074219 L 11.859375 14.074219 L 11.859375 15.140625 C 11.859375 15.332031 12.03125 15.492188 12.222656 15.492188 C 12.414062 15.492188 12.574219 15.332031 12.574219 15.140625 L 12.574219 14.074219 L 13.289062 14.074219 C 13.480469 14.074219 13.640625 13.902344 13.640625 13.710938 Z M 13.640625 13.710938 "/>
</svg>
