<?xml version="1.0" encoding="UTF-8"?>
<svg xmlns="http://www.w3.org/2000/svg" xmlns:xlink="http://www.w3.org/1999/xlink" width="20" height="17.320999" viewBox="0 0 20 17.320999">
<path fill-rule="nonzero" fill="rgb(4.313725%, 60.784314%, 48.235294%)" fill-opacity="1" d="M 20 17.320312 L 0 17.320312 L 10 0 Z M 20 17.320312 "/>
<path fill-rule="evenodd" fill="rgb(100%, 100%, 100%)" fill-opacity="1" d="M 8.839844 15.128906 L 8.839844 8.742188 C 8.839844 8.632812 8.808594 8.550781 8.734375 8.472656 C 8.671875 8.398438 8.371094 8.324219 8.234375 8.464844 L 6.804688 9.894531 C 6.652344 10.042969 6.707031 10.320312 6.8125 10.425781 C 6.910156 10.53125 7.167969 10.554688 7.304688 10.414062 L 8.125 9.582031 L 8.125 15.140625 C 8.125 15.332031 8.296875 15.492188 8.488281 15.492188 C 8.679688 15.492188 8.839844 15.332031 8.839844 15.128906 Z M 13.289062 13.710938 L 13.289062 13.007812 C 13.289062 12.410156 13.011719 11.824219 12.59375 11.578125 C 12.949219 11.289062 13.234375 10.769531 13.234375 10.179688 C 13.234375 9.679688 13.105469 9.316406 12.796875 8.964844 C 12.511719 8.632812 12.019531 8.398438 11.464844 8.398438 L 10.035156 8.398438 C 9.84375 8.398438 9.683594 8.570312 9.683594 8.761719 C 9.683594 8.953125 9.84375 9.113281 10.035156 9.113281 L 11.464844 9.113281 C 11.796875 9.113281 12.074219 9.242188 12.253906 9.445312 C 12.46875 9.667969 12.53125 10.171875 12.53125 10.171875 C 12.53125 10.5 12.433594 10.734375 12.191406 10.960938 C 11.964844 11.164062 11.761719 11.226562 11.464844 11.226562 L 10.792969 11.226562 C 10.601562 11.226562 10.441406 11.386719 10.441406 11.578125 C 10.441406 11.769531 10.601562 11.941406 10.792969 11.941406 L 11.507812 11.941406 C 11.804688 11.941406 12.019531 12.003906 12.234375 12.207031 C 12.488281 12.433594 12.574219 12.667969 12.574219 13.007812 L 12.574219 13.710938 C 12.574219 14.019531 12.519531 14.222656 12.308594 14.457031 C 12.125 14.652344 11.847656 14.777344 11.507812 14.777344 L 10.089844 14.777344 C 9.898438 14.777344 9.738281 14.949219 9.738281 15.140625 C 9.738281 15.332031 9.898438 15.492188 10.089844 15.492188 L 11.507812 15.492188 C 12.074219 15.492188 12.554688 15.269531 12.851562 14.929688 C 13.148438 14.585938 13.289062 14.222656 13.289062 13.710938 Z M 13.289062 13.710938 "/>
</svg>
