<?xml version="1.0" encoding="UTF-8"?>
<svg xmlns="http://www.w3.org/2000/svg" xmlns:xlink="http://www.w3.org/1999/xlink" width="20" height="17.320999" viewBox="0 0 20 17.320999">
<path fill-rule="nonzero" fill="rgb(4.313725%, 60.784314%, 48.235294%)" fill-opacity="1" d="M 20 17.320312 L 0 17.320312 L 10 0 Z M 20 17.320312 "/>
<path fill-rule="evenodd" fill="rgb(100%, 100%, 100%)" fill-opacity="1" d="M 11.78125 11.226562 L 11.78125 9.808594 C 11.78125 8.910156 10.886719 8.378906 10 8.378906 C 9.113281 8.378906 8.21875 8.910156 8.21875 9.808594 L 8.21875 11.226562 C 8.21875 11.652344 8.316406 11.941406 8.625 12.25 C 8.921875 12.558594 9.222656 12.644531 9.648438 12.644531 L 10.820312 12.644531 C 10.691406 13.070312 10.574219 13.285156 10.332031 13.660156 C 9.839844 14.394531 9.371094 14.609375 9.0625 14.84375 C 8.902344 14.960938 8.878906 15.207031 8.988281 15.363281 C 9.136719 15.558594 9.347656 15.546875 9.5 15.417969 C 9.859375 15.140625 10.523438 14.660156 10.949219 14 C 11.492188 13.167969 11.78125 12.316406 11.78125 11.226562 Z M 11.066406 11.226562 C 11.066406 11.363281 11.066406 11.429688 11.054688 11.566406 C 11.035156 11.707031 11.023438 11.800781 10.992188 11.941406 L 9.660156 11.941406 C 9.445312 11.941406 9.304688 11.898438 9.148438 11.75 C 8.988281 11.601562 8.933594 11.449219 8.933594 11.238281 L 8.933594 9.820312 C 8.933594 9.316406 9.5 9.105469 10 9.105469 C 10.5 9.105469 11.066406 9.316406 11.066406 9.820312 Z M 11.066406 11.226562 "/>
</svg>
