<?xml version="1.0" encoding="UTF-8"?>
<svg xmlns="http://www.w3.org/2000/svg" xmlns:xlink="http://www.w3.org/1999/xlink" width="20" height="17.321001" viewBox="0 0 20 17.321001">
<path fill-rule="nonzero" fill="rgb(4.313725%, 60.784314%, 48.235294%)" fill-opacity="1" d="M 20 17.320312 L 0 17.320312 L 10 0 Z M 20 17.320312 "/>
<path fill-rule="nonzero" fill="rgb(100%, 100%, 100%)" fill-opacity="1" d="M 8.191406 15.347656 L 7.359375 15.347656 L 7.359375 10.507812 C 7.359375 10.230469 7.359375 10.007812 7.367188 9.839844 C 7.375 9.671875 7.382812 9.496094 7.398438 9.3125 C 7.292969 9.421875 7.199219 9.507812 7.117188 9.578125 C 7.03125 9.648438 6.925781 9.738281 6.796875 9.851562 L 6.058594 10.453125 L 5.613281 9.878906 L 7.484375 8.425781 L 8.191406 8.425781 Z M 8.191406 15.347656 "/>
<path fill-rule="nonzero" fill="rgb(100%, 100%, 100%)" fill-opacity="1" d="M 9.828125 12.390625 C 9.828125 11.890625 9.871094 11.40625 9.957031 10.925781 C 10.046875 10.441406 10.203125 10.003906 10.429688 9.617188 C 10.664062 9.222656 10.988281 8.910156 11.402344 8.675781 C 11.8125 8.445312 12.347656 8.328125 13 8.328125 C 13.136719 8.328125 13.285156 8.332031 13.445312 8.347656 C 13.609375 8.359375 13.75 8.382812 13.855469 8.414062 L 13.855469 9.140625 C 13.738281 9.101562 13.605469 9.074219 13.453125 9.054688 C 13.316406 9.035156 13.167969 9.027344 13.019531 9.027344 C 12.574219 9.027344 12.203125 9.101562 11.90625 9.25 C 11.609375 9.398438 11.371094 9.601562 11.195312 9.859375 C 11.027344 10.117188 10.90625 10.414062 10.828125 10.753906 C 10.75 11.089844 10.703125 11.445312 10.6875 11.828125 L 10.742188 11.828125 C 10.890625 11.601562 11.097656 11.410156 11.363281 11.257812 C 11.628906 11.09375 11.964844 11.015625 12.378906 11.015625 C 12.980469 11.015625 13.464844 11.199219 13.835938 11.566406 C 14.203125 11.929688 14.386719 12.445312 14.386719 13.117188 C 14.386719 13.84375 14.1875 14.410156 13.785156 14.828125 C 13.390625 15.238281 12.859375 15.445312 12.1875 15.445312 C 11.746094 15.445312 11.34375 15.335938 10.992188 15.117188 C 10.636719 14.894531 10.351562 14.558594 10.140625 14.109375 C 9.933594 13.65625 9.828125 13.082031 9.828125 12.390625 Z M 12.175781 14.726562 C 12.582031 14.726562 12.914062 14.597656 13.164062 14.339844 C 13.421875 14.074219 13.542969 13.667969 13.542969 13.117188 C 13.542969 12.679688 13.429688 12.328125 13.203125 12.070312 C 12.984375 11.8125 12.652344 11.683594 12.203125 11.683594 C 11.902344 11.683594 11.636719 11.746094 11.410156 11.878906 C 11.183594 12 11.007812 12.160156 10.875 12.351562 C 10.753906 12.546875 10.691406 12.746094 10.691406 12.953125 C 10.691406 13.230469 10.746094 13.507812 10.859375 13.789062 C 10.96875 14.058594 11.132812 14.285156 11.351562 14.464844 C 11.570312 14.640625 11.847656 14.726562 12.175781 14.726562 Z M 12.175781 14.726562 "/>
</svg>
