<?xml version="1.0" encoding="UTF-8"?>
<svg xmlns="http://www.w3.org/2000/svg" xmlns:xlink="http://www.w3.org/1999/xlink" width="20" height="17.321001" viewBox="0 0 20 17.321001">
<path fill-rule="nonzero" fill="rgb(4.313725%, 60.784314%, 48.235294%)" fill-opacity="1" d="M 20 17.320312 L 0 17.320312 L 10 0 Z M 20 17.320312 "/>
<path fill-rule="nonzero" fill="rgb(100%, 100%, 100%)" fill-opacity="1" d="M 9.050781 13.136719 C 9.050781 12.890625 9.070312 12.683594 9.117188 12.507812 C 9.167969 12.328125 9.253906 12.15625 9.371094 11.992188 C 9.492188 11.832031 9.65625 11.664062 9.859375 11.488281 C 10.117188 11.277344 10.308594 11.097656 10.445312 10.953125 C 10.589844 10.8125 10.6875 10.675781 10.746094 10.539062 C 10.804688 10.402344 10.835938 10.238281 10.835938 10.042969 C 10.835938 9.734375 10.734375 9.496094 10.535156 9.328125 C 10.328125 9.15625 10.042969 9.074219 9.660156 9.074219 C 9.34375 9.074219 9.0625 9.117188 8.816406 9.203125 C 8.570312 9.28125 8.335938 9.371094 8.109375 9.480469 L 7.808594 8.800781 C 8.0625 8.667969 8.351562 8.554688 8.660156 8.464844 C 8.976562 8.371094 9.332031 8.328125 9.71875 8.328125 C 10.328125 8.328125 10.808594 8.480469 11.144531 8.785156 C 11.480469 9.085938 11.648438 9.5 11.648438 10.023438 C 11.648438 10.316406 11.601562 10.5625 11.5 10.769531 C 11.414062 10.972656 11.28125 11.160156 11.105469 11.332031 C 10.9375 11.5 10.738281 11.683594 10.503906 11.878906 C 10.289062 12.058594 10.125 12.214844 10.007812 12.351562 C 9.898438 12.488281 9.828125 12.625 9.78125 12.757812 C 9.75 12.890625 9.726562 13.046875 9.726562 13.234375 L 9.726562 13.398438 L 9.050781 13.398438 Z M 8.828125 14.828125 C 8.828125 14.585938 8.882812 14.417969 8.992188 14.320312 C 9.109375 14.222656 9.253906 14.175781 9.429688 14.175781 C 9.59375 14.175781 9.726562 14.222656 9.84375 14.320312 C 9.960938 14.417969 10.015625 14.585938 10.015625 14.828125 C 10.015625 15.0625 9.960938 15.226562 9.84375 15.328125 C 9.726562 15.433594 9.59375 15.484375 9.429688 15.484375 C 9.253906 15.484375 9.109375 15.433594 8.992188 15.328125 C 8.882812 15.226562 8.828125 15.0625 8.828125 14.828125 Z M 8.828125 14.828125 "/>
</svg>
