<?xml version="1.0" encoding="UTF-8" standalone="no"?>
<svg
   width="20"
   height="17.321001"
   viewBox="0 0 20 17.321001"
   version="1.1"
   id="svg6"
   sodipodi:docname="PVSA-empty.svg"
   inkscape:version="1.2.2 (b0a8486541, 2022-12-01)"
   xmlns:inkscape="http://www.inkscape.org/namespaces/inkscape"
   xmlns:sodipodi="http://sodipodi.sourceforge.net/DTD/sodipodi-0.dtd"
   xmlns="http://www.w3.org/2000/svg"
   xmlns:svg="http://www.w3.org/2000/svg">
  <defs
     id="defs10" />
  <sodipodi:namedview
     id="namedview8"
     pagecolor="#ffffff"
     bordercolor="#666666"
     borderopacity="1.0"
     inkscape:showpageshadow="2"
     inkscape:pageopacity="0.0"
     inkscape:pagecheckerboard="0"
     inkscape:deskcolor="#d1d1d1"
     showgrid="false"
     inkscape:zoom="56.520983"
     inkscape:cx="9.9962876"
     inkscape:cy="8.6781931"
     inkscape:window-width="1920"
     inkscape:window-height="1128"
     inkscape:window-x="0"
     inkscape:window-y="0"
     inkscape:window-maximized="1"
     inkscape:current-layer="svg6" />
  <path
     fill-rule="nonzero"
     fill="rgb(92.941176%, 84.705882%, 15.294118%)"
     fill-opacity="1"
     d="M 20 0 L 0 0 L 10 17.320312 Z M 20 0 "
     id="path2"
     style="fill:#ffffff;fill-opacity:1" />
  <path
     fill-rule="nonzero"
     fill="rgb(0%, 0%, 0%)"
     fill-opacity="1"
     d="M 9.261719 7.253906 C 9.261719 7.003906 9.285156 6.796875 9.332031 6.617188 C 9.382812 6.441406 9.464844 6.265625 9.582031 6.105469 C 9.703125 5.945312 9.871094 5.777344 10.078125 5.601562 C 10.328125 5.390625 10.523438 5.210938 10.660156 5.070312 C 10.804688 4.925781 10.902344 4.789062 10.960938 4.652344 C 11.019531 4.515625 11.046875 4.347656 11.046875 4.15625 C 11.046875 3.84375 10.945312 3.605469 10.746094 3.4375 C 10.546875 3.273438 10.257812 3.1875 9.875 3.1875 C 9.558594 3.1875 9.273438 3.230469 9.03125 3.3125 C 8.785156 3.390625 8.550781 3.484375 8.320312 3.59375 L 8.019531 2.917969 C 8.28125 2.78125 8.5625 2.664062 8.875 2.578125 C 9.191406 2.488281 9.542969 2.4375 9.929688 2.4375 C 10.546875 2.4375 11.019531 2.589844 11.359375 2.894531 C 11.691406 3.199219 11.863281 3.617188 11.863281 4.136719 C 11.863281 4.425781 11.8125 4.679688 11.714844 4.882812 C 11.628906 5.085938 11.492188 5.273438 11.320312 5.445312 C 11.148438 5.617188 10.949219 5.792969 10.714844 5.988281 C 10.503906 6.171875 10.339844 6.328125 10.222656 6.46875 C 10.113281 6.601562 10.039062 6.734375 10 6.871094 C 9.960938 7 9.945312 7.160156 9.945312 7.347656 L 9.945312 7.511719 L 9.261719 7.511719 Z M 9.039062 8.9375 C 9.039062 8.699219 9.09375 8.53125 9.207031 8.433594 C 9.324219 8.335938 9.464844 8.289062 9.640625 8.289062 C 9.804688 8.289062 9.945312 8.335938 10.054688 8.433594 C 10.171875 8.53125 10.234375 8.699219 10.234375 8.9375 C 10.234375 9.171875 10.171875 9.339844 10.054688 9.445312 C 9.945312 9.542969 9.804688 9.597656 9.640625 9.597656 C 9.464844 9.597656 9.324219 9.542969 9.207031 9.445312 C 9.09375 9.339844 9.039062 9.171875 9.039062 8.9375 Z M 9.039062 8.9375 "
     id="path4" />
</svg>
