<?xml version="1.0" encoding="UTF-8"?>
<svg xmlns="http://www.w3.org/2000/svg" xmlns:xlink="http://www.w3.org/1999/xlink" width="20" height="17.320999" viewBox="0 0 20 17.320999">
<path fill-rule="nonzero" fill="rgb(92.941176%, 84.705882%, 15.294118%)" fill-opacity="1" d="M 20 0 L 0 0 L 10 17.320312 Z M 20 0 "/>
<path fill-rule="nonzero" fill="rgb(4.313725%, 60.784314%, 48.235294%)" fill-opacity="1" d="M 18.300781 0.921875 L 1.699219 0.921875 L 10 15.222656 Z M 18.300781 0.921875 "/>
<path fill-rule="evenodd" fill="rgb(92.941176%, 84.705882%, 15.294118%)" fill-opacity="1" d="M 11.765625 2.914062 C 11.796875 2.777344 11.765625 2.679688 11.667969 2.585938 C 11.59375 2.519531 11.519531 2.5 11.421875 2.5 L 8.574219 2.5 C 8.488281 2.5 8.414062 2.519531 8.339844 2.585938 C 8.253906 2.648438 8.222656 2.746094 8.222656 2.863281 L 8.222656 3.566406 C 8.222656 3.757812 8.382812 3.929688 8.574219 3.929688 C 8.765625 3.929688 8.9375 3.757812 8.9375 3.566406 L 8.9375 3.214844 L 10.976562 3.214844 L 9.664062 9.15625 C 9.609375 9.371094 9.707031 9.625 10.003906 9.613281 C 10.164062 9.605469 10.304688 9.507812 10.335938 9.347656 Z M 11.765625 2.914062 "/>
</svg>
