<?xml version="1.0" encoding="UTF-8"?>
<svg xmlns="http://www.w3.org/2000/svg" xmlns:xlink="http://www.w3.org/1999/xlink" width="20" height="17.321001" viewBox="0 0 20 17.321001">
<path fill-rule="nonzero" fill="rgb(92.941176%, 84.705882%, 15.294118%)" fill-opacity="1" d="M 20 0 L 0 0 L 10 17.320312 Z M 20 0 "/>
<path fill-rule="nonzero" fill="rgb(4.313725%, 60.784314%, 48.235294%)" fill-opacity="1" d="M 18.296875 0.921875 L 1.703125 0.921875 L 10 15.222656 Z M 18.296875 0.921875 "/>
<path fill-rule="nonzero" fill="rgb(92.941176%, 84.705882%, 15.294118%)" fill-opacity="1" d="M 7.722656 6.597656 C 7.722656 6.097656 7.765625 5.613281 7.847656 5.132812 C 7.9375 4.648438 8.09375 4.210938 8.320312 3.824219 C 8.554688 3.429688 8.878906 3.117188 9.292969 2.882812 C 9.703125 2.652344 10.238281 2.535156 10.894531 2.535156 C 11.027344 2.535156 11.175781 2.539062 11.335938 2.550781 C 11.507812 2.566406 11.640625 2.589844 11.746094 2.621094 L 11.746094 3.351562 C 11.628906 3.3125 11.496094 3.28125 11.351562 3.257812 C 11.207031 3.242188 11.058594 3.234375 10.910156 3.234375 C 10.464844 3.234375 10.09375 3.308594 9.796875 3.453125 C 9.5 3.601562 9.261719 3.804688 9.089844 4.066406 C 8.917969 4.324219 8.796875 4.621094 8.71875 4.957031 C 8.640625 5.296875 8.59375 5.65625 8.578125 6.03125 L 8.632812 6.03125 C 8.78125 5.808594 8.988281 5.617188 9.253906 5.464844 C 9.519531 5.300781 9.855469 5.222656 10.273438 5.222656 C 10.871094 5.222656 11.359375 5.402344 11.726562 5.773438 C 12.097656 6.136719 12.277344 6.652344 12.277344 7.328125 C 12.277344 8.046875 12.078125 8.621094 11.679688 9.03125 C 11.285156 9.445312 10.75 9.652344 10.078125 9.652344 C 9.640625 9.652344 9.242188 9.542969 8.882812 9.324219 C 8.527344 9.101562 8.246094 8.765625 8.03125 8.316406 C 7.824219 7.859375 7.722656 7.289062 7.722656 6.597656 Z M 10.070312 8.9375 C 10.472656 8.9375 10.804688 8.804688 11.058594 8.546875 C 11.3125 8.28125 11.4375 7.875 11.4375 7.328125 C 11.4375 6.882812 11.324219 6.535156 11.09375 6.277344 C 10.875 6.019531 10.542969 5.890625 10.09375 5.890625 C 9.792969 5.890625 9.527344 5.953125 9.300781 6.085938 C 9.074219 6.207031 8.898438 6.363281 8.765625 6.558594 C 8.644531 6.753906 8.585938 6.953125 8.585938 7.160156 C 8.585938 7.4375 8.636719 7.71875 8.75 7.996094 C 8.859375 8.265625 9.023438 8.492188 9.246094 8.671875 C 9.460938 8.84375 9.738281 8.9375 10.070312 8.9375 Z M 10.070312 8.9375 "/>
</svg>
