<?xml version="1.0" encoding="UTF-8"?>
<svg xmlns="http://www.w3.org/2000/svg" xmlns:xlink="http://www.w3.org/1999/xlink" width="20" height="17.320999" viewBox="0 0 20 17.320999">
<path fill-rule="nonzero" fill="rgb(92.941176%, 84.705882%, 15.294118%)" fill-opacity="1" d="M 20 0 L 0 0 L 10 17.320312 Z M 20 0 "/>
<path fill-rule="nonzero" fill="rgb(4.313725%, 60.784314%, 48.235294%)" fill-opacity="1" d="M 18.300781 0.921875 L 1.699219 0.921875 L 10 15.222656 Z M 18.300781 0.921875 "/>
<path fill-rule="evenodd" fill="rgb(92.941176%, 84.705882%, 15.294118%)" fill-opacity="1" d="M 11.066406 9.253906 L 11.066406 2.863281 C 11.066406 2.757812 11.03125 2.671875 10.957031 2.597656 C 10.894531 2.519531 10.59375 2.445312 10.457031 2.585938 L 9.027344 4.015625 C 8.878906 4.164062 8.929688 4.441406 9.039062 4.546875 C 9.132812 4.65625 9.390625 4.675781 9.527344 4.539062 L 10.351562 3.707031 L 10.351562 9.261719 C 10.351562 9.453125 10.519531 9.613281 10.710938 9.613281 C 10.90625 9.613281 11.066406 9.453125 11.066406 9.253906 Z M 11.066406 9.253906 "/>
</svg>
