<?xml version="1.0" encoding="UTF-8"?>
<svg xmlns="http://www.w3.org/2000/svg" xmlns:xlink="http://www.w3.org/1999/xlink" width="20" height="17.320999" viewBox="0 0 20 17.320999">
<path fill-rule="nonzero" fill="rgb(92.941176%, 84.705882%, 15.294118%)" fill-opacity="1" d="M 20 0 L 0 0 L 10 17.320312 Z M 20 0 "/>
<path fill-rule="nonzero" fill="rgb(4.313725%, 60.784314%, 48.235294%)" fill-opacity="1" d="M 18.300781 0.921875 L 1.699219 0.921875 L 10 15.222656 Z M 18.300781 0.921875 "/>
<path fill-rule="evenodd" fill="rgb(92.941176%, 84.705882%, 15.294118%)" fill-opacity="1" d="M 12.136719 7.832031 C 12.136719 7.640625 11.976562 7.480469 11.785156 7.480469 L 11.070312 7.480469 L 11.070312 6.402344 C 11.070312 6.210938 10.910156 6.0625 10.71875 6.0625 C 10.527344 6.0625 10.355469 6.222656 10.355469 6.414062 L 10.355469 7.480469 L 8.691406 7.480469 L 9.992188 2.925781 C 10.046875 2.722656 9.910156 2.5 9.652344 2.5 C 9.523438 2.488281 9.355469 2.574219 9.3125 2.734375 L 7.871094 7.746094 C 7.839844 7.886719 7.902344 8.046875 7.96875 8.089844 C 8.050781 8.164062 8.117188 8.195312 8.222656 8.195312 L 10.355469 8.195312 L 10.355469 9.261719 C 10.355469 9.453125 10.527344 9.613281 10.71875 9.613281 C 10.910156 9.613281 11.070312 9.453125 11.070312 9.261719 L 11.070312 8.195312 L 11.785156 8.195312 C 11.976562 8.195312 12.136719 8.023438 12.136719 7.832031 Z M 12.136719 7.832031 "/>
</svg>
