<?xml version="1.0" encoding="UTF-8"?>
<svg xmlns="http://www.w3.org/2000/svg" xmlns:xlink="http://www.w3.org/1999/xlink" width="20" height="17.320999" viewBox="0 0 20 17.320999">
<path fill-rule="nonzero" fill="rgb(92.941176%, 84.705882%, 15.294118%)" fill-opacity="1" d="M 20 0 L 0 0 L 10 17.320312 Z M 20 0 "/>
<path fill-rule="nonzero" fill="rgb(4.313725%, 60.784314%, 48.235294%)" fill-opacity="1" d="M 18.300781 0.921875 L 1.699219 0.921875 L 10 15.222656 Z M 18.300781 0.921875 "/>
<path fill-rule="evenodd" fill="rgb(92.941176%, 84.705882%, 15.294118%)" fill-opacity="1" d="M 8.847656 9.253906 L 8.847656 2.863281 C 8.847656 2.757812 8.8125 2.671875 8.738281 2.597656 C 8.675781 2.519531 8.375 2.445312 8.238281 2.585938 L 6.808594 4.015625 C 6.660156 4.164062 6.710938 4.441406 6.820312 4.546875 C 6.914062 4.65625 7.171875 4.675781 7.308594 4.539062 L 8.132812 3.707031 L 8.132812 9.261719 C 8.132812 9.453125 8.300781 9.613281 8.492188 9.613281 C 8.6875 9.613281 8.847656 9.453125 8.847656 9.253906 Z M 13.28125 9.261719 C 13.28125 9.070312 13.125 8.898438 12.929688 8.898438 L 10.722656 8.898438 L 13.027344 5.230469 C 13.21875 4.910156 13.28125 4.65625 13.28125 4.28125 C 13.304688 3.214844 12.492188 2.542969 11.511719 2.5 C 10.734375 2.480469 10.199219 2.832031 9.785156 3.503906 C 9.699219 3.652344 9.65625 4.066406 10.082031 4.101562 C 10.210938 4.101562 10.316406 4.058594 10.382812 3.941406 C 10.660156 3.449219 10.914062 3.203125 11.511719 3.214844 C 12.25 3.226562 12.570312 3.695312 12.578125 4.28125 C 12.578125 4.503906 12.546875 4.632812 12.429688 4.847656 L 9.785156 9.050781 C 9.742188 9.125 9.730469 9.175781 9.730469 9.261719 C 9.742188 9.453125 9.890625 9.605469 10.082031 9.613281 L 12.929688 9.613281 C 13.125 9.613281 13.285156 9.453125 13.285156 9.261719 Z M 13.28125 9.261719 "/>
</svg>
