<?xml version="1.0" encoding="UTF-8"?>
<svg xmlns="http://www.w3.org/2000/svg" xmlns:xlink="http://www.w3.org/1999/xlink" width="20" height="17.320999" viewBox="0 0 20 17.320999">
<path fill-rule="nonzero" fill="rgb(92.941176%, 84.705882%, 15.294118%)" fill-opacity="1" d="M 20 0 L 0 0 L 10 17.320312 Z M 20 0 "/>
<path fill-rule="nonzero" fill="rgb(4.313725%, 60.784314%, 48.235294%)" fill-opacity="1" d="M 18.300781 0.921875 L 1.699219 0.921875 L 10 15.222656 Z M 18.300781 0.921875 "/>
<path fill-rule="evenodd" fill="rgb(92.941176%, 84.705882%, 15.294118%)" fill-opacity="1" d="M 11.777344 9.261719 C 11.777344 9.070312 11.617188 8.898438 11.425781 8.898438 L 9.21875 8.898438 L 11.519531 5.230469 C 11.714844 4.910156 11.777344 4.65625 11.777344 4.28125 C 11.796875 3.214844 10.988281 2.542969 10.007812 2.5 C 9.226562 2.480469 8.695312 2.832031 8.277344 3.503906 C 8.191406 3.652344 8.148438 4.066406 8.578125 4.101562 C 8.703125 4.101562 8.8125 4.058594 8.875 3.941406 C 9.152344 3.449219 9.410156 3.203125 10.007812 3.214844 C 10.742188 3.226562 11.0625 3.695312 11.074219 4.28125 C 11.074219 4.503906 11.039062 4.632812 10.921875 4.847656 L 8.277344 9.050781 C 8.234375 9.125 8.226562 9.175781 8.226562 9.261719 C 8.234375 9.453125 8.386719 9.605469 8.578125 9.613281 L 11.425781 9.613281 C 11.617188 9.613281 11.777344 9.453125 11.777344 9.261719 Z M 11.777344 9.261719 "/>
</svg>
