<?xml version="1.0" encoding="UTF-8"?>
<svg xmlns="http://www.w3.org/2000/svg" xmlns:xlink="http://www.w3.org/1999/xlink" width="20" height="17.321001" viewBox="0 0 20 17.321001">
<path fill-rule="nonzero" fill="rgb(92.941176%, 84.705882%, 15.294118%)" fill-opacity="1" d="M 20 0 L 0 0 L 10 17.320312 Z M 20 0 "/>
<path fill-rule="nonzero" fill="rgb(4.313725%, 60.784314%, 48.235294%)" fill-opacity="1" d="M 18.296875 0.921875 L 1.703125 0.921875 L 10 15.222656 Z M 18.296875 0.921875 "/>
<path fill-rule="nonzero" fill="rgb(92.941176%, 84.705882%, 15.294118%)" fill-opacity="1" d="M 9.214844 7.34375 C 9.214844 7.101562 9.234375 6.886719 9.285156 6.714844 C 9.335938 6.53125 9.417969 6.363281 9.535156 6.199219 C 9.65625 6.039062 9.820312 5.867188 10.03125 5.695312 C 10.28125 5.480469 10.472656 5.304688 10.613281 5.160156 C 10.753906 5.023438 10.855469 4.882812 10.910156 4.742188 C 10.96875 4.609375 11 4.445312 11 4.25 C 11 3.941406 10.898438 3.703125 10.699219 3.53125 C 10.5 3.363281 10.207031 3.28125 9.828125 3.28125 C 9.507812 3.28125 9.226562 3.324219 8.980469 3.40625 C 8.738281 3.484375 8.5 3.578125 8.273438 3.6875 L 7.972656 3.007812 C 8.234375 2.875 8.515625 2.761719 8.828125 2.667969 C 9.144531 2.578125 9.496094 2.535156 9.882812 2.535156 C 10.5 2.535156 10.972656 2.6875 11.3125 2.992188 C 11.644531 3.292969 11.8125 3.707031 11.8125 4.230469 C 11.8125 4.523438 11.765625 4.769531 11.667969 4.976562 C 11.574219 5.179688 11.445312 5.363281 11.273438 5.542969 C 11.101562 5.707031 10.902344 5.890625 10.667969 6.085938 C 10.457031 6.261719 10.289062 6.421875 10.171875 6.558594 C 10.066406 6.691406 9.992188 6.832031 9.953125 6.964844 C 9.914062 7.097656 9.890625 7.253906 9.890625 7.4375 L 9.890625 7.605469 L 9.214844 7.605469 Z M 8.992188 9.03125 C 8.992188 8.792969 9.046875 8.625 9.15625 8.527344 C 9.269531 8.429688 9.417969 8.382812 9.59375 8.382812 C 9.753906 8.382812 9.890625 8.429688 10.007812 8.527344 C 10.125 8.625 10.183594 8.792969 10.183594 9.03125 C 10.183594 9.265625 10.125 9.429688 10.007812 9.535156 C 9.890625 9.640625 9.753906 9.691406 9.59375 9.691406 C 9.417969 9.691406 9.269531 9.640625 9.15625 9.535156 C 9.046875 9.429688 8.992188 9.265625 8.992188 9.03125 Z M 8.992188 9.03125 "/>
</svg>
