<?xml version="1.0" encoding="UTF-8"?>
<svg xmlns="http://www.w3.org/2000/svg" xmlns:xlink="http://www.w3.org/1999/xlink" width="20" height="17.320999" viewBox="0 0 20 17.320999">
<path fill-rule="nonzero" fill="rgb(92.941176%, 84.705882%, 15.294118%)" fill-opacity="1" d="M 20 0 L 0 0 L 10 17.320312 Z M 20 0 "/>
<path fill-rule="nonzero" fill="rgb(4.313725%, 60.784314%, 48.235294%)" fill-opacity="1" d="M 18.300781 0.921875 L 1.699219 0.921875 L 10 15.222656 Z M 18.300781 0.921875 "/>
<path fill-rule="evenodd" fill="rgb(92.941176%, 84.705882%, 15.294118%)" fill-opacity="1" d="M 8.847656 9.253906 L 8.847656 2.863281 C 8.847656 2.757812 8.8125 2.671875 8.738281 2.597656 C 8.675781 2.519531 8.375 2.445312 8.238281 2.585938 L 6.808594 4.015625 C 6.660156 4.164062 6.710938 4.441406 6.820312 4.546875 C 6.914062 4.65625 7.171875 4.675781 7.308594 4.539062 L 8.132812 3.707031 L 8.132812 9.261719 C 8.132812 9.453125 8.300781 9.613281 8.492188 9.613281 C 8.6875 9.613281 8.847656 9.453125 8.847656 9.253906 Z M 13.285156 7.832031 L 13.285156 4.28125 C 13.285156 3.300781 12.492188 2.5 11.511719 2.5 C 10.53125 2.5 9.730469 3.300781 9.730469 4.28125 L 9.730469 7.832031 C 9.730469 8.816406 10.53125 9.613281 11.511719 9.613281 C 12.492188 9.613281 13.285156 8.816406 13.285156 7.832031 Z M 12.578125 7.832031 C 12.578125 8.429688 12.097656 8.898438 11.511719 8.898438 C 10.914062 8.898438 10.445312 8.429688 10.445312 7.832031 L 10.445312 4.28125 C 10.445312 3.695312 10.914062 3.214844 11.511719 3.214844 C 12.097656 3.214844 12.578125 3.695312 12.578125 4.28125 Z M 12.578125 7.832031 "/>
</svg>
