<?xml version="1.0" encoding="UTF-8"?>
<svg xmlns="http://www.w3.org/2000/svg" xmlns:xlink="http://www.w3.org/1999/xlink" width="20" height="17.320999" viewBox="0 0 20 17.320999">
<path fill-rule="nonzero" fill="rgb(92.941176%, 84.705882%, 15.294118%)" fill-opacity="1" d="M 20 0 L 0 0 L 10 17.320312 Z M 20 0 "/>
<path fill-rule="nonzero" fill="rgb(4.313725%, 60.784314%, 48.235294%)" fill-opacity="1" d="M 18.300781 0.921875 L 1.699219 0.921875 L 10 15.222656 Z M 18.300781 0.921875 "/>
<path fill-rule="evenodd" fill="rgb(92.941176%, 84.705882%, 15.294118%)" fill-opacity="1" d="M 8.839844 9.253906 L 8.839844 2.863281 C 8.839844 2.757812 8.808594 2.671875 8.734375 2.597656 C 8.671875 2.519531 8.371094 2.445312 8.234375 2.585938 L 6.804688 4.015625 C 6.652344 4.164062 6.707031 4.441406 6.8125 4.546875 C 6.910156 4.65625 7.167969 4.675781 7.304688 4.539062 L 8.125 3.707031 L 8.125 9.261719 C 8.125 9.453125 8.296875 9.613281 8.488281 9.613281 C 8.679688 9.613281 8.839844 9.453125 8.839844 9.253906 Z M 13.289062 7.832031 L 13.289062 7.128906 C 13.289062 6.53125 13.011719 5.945312 12.59375 5.699219 C 12.949219 5.410156 13.234375 4.890625 13.234375 4.300781 C 13.234375 3.800781 13.105469 3.4375 12.796875 3.085938 C 12.511719 2.757812 12.019531 2.519531 11.464844 2.519531 L 10.035156 2.519531 C 9.84375 2.519531 9.683594 2.691406 9.683594 2.882812 C 9.683594 3.074219 9.84375 3.234375 10.035156 3.234375 L 11.464844 3.234375 C 11.796875 3.234375 12.074219 3.363281 12.253906 3.566406 C 12.46875 3.789062 12.53125 4.292969 12.53125 4.292969 C 12.53125 4.621094 12.433594 4.855469 12.191406 5.082031 C 11.964844 5.285156 11.761719 5.347656 11.464844 5.347656 L 10.792969 5.347656 C 10.601562 5.347656 10.441406 5.507812 10.441406 5.699219 C 10.441406 5.890625 10.601562 6.0625 10.792969 6.0625 L 11.507812 6.0625 C 11.804688 6.0625 12.019531 6.125 12.234375 6.328125 C 12.488281 6.554688 12.574219 6.789062 12.574219 7.128906 L 12.574219 7.832031 C 12.574219 8.144531 12.519531 8.34375 12.308594 8.578125 C 12.125 8.773438 11.847656 8.898438 11.507812 8.898438 L 10.089844 8.898438 C 9.898438 8.898438 9.738281 9.070312 9.738281 9.261719 C 9.738281 9.453125 9.898438 9.613281 10.089844 9.613281 L 11.507812 9.613281 C 12.074219 9.613281 12.554688 9.390625 12.851562 9.050781 C 13.148438 8.707031 13.289062 8.34375 13.289062 7.832031 Z M 13.289062 7.832031 "/>
</svg>
