<?xml version="1.0" encoding="UTF-8"?>
<svg xmlns="http://www.w3.org/2000/svg" xmlns:xlink="http://www.w3.org/1999/xlink" width="20" height="17.320999" viewBox="0 0 20 17.320999">
<path fill-rule="nonzero" fill="rgb(92.941176%, 84.705882%, 15.294118%)" fill-opacity="1" d="M 20 0 L 0 0 L 10 17.320312 Z M 20 0 "/>
<path fill-rule="nonzero" fill="rgb(4.313725%, 60.784314%, 48.235294%)" fill-opacity="1" d="M 18.300781 0.921875 L 1.699219 0.921875 L 10 15.222656 Z M 18.300781 0.921875 "/>
<path fill-rule="evenodd" fill="rgb(92.941176%, 84.705882%, 15.294118%)" fill-opacity="1" d="M 10.269531 7.832031 L 10.269531 4.28125 C 10.269531 3.300781 9.480469 2.5 8.5 2.5 C 7.519531 2.5 6.71875 3.300781 6.71875 4.28125 L 6.71875 7.832031 C 6.71875 8.816406 7.519531 9.613281 8.5 9.613281 C 9.480469 9.613281 10.269531 8.816406 10.269531 7.832031 Z M 9.566406 7.832031 C 9.566406 8.429688 9.085938 8.898438 8.5 8.898438 C 7.902344 8.898438 7.433594 8.429688 7.433594 7.832031 L 7.433594 4.28125 C 7.433594 3.695312 7.902344 3.214844 8.5 3.214844 C 9.085938 3.214844 9.566406 3.695312 9.566406 4.28125 Z M 9.566406 7.832031 "/>
<path fill-rule="evenodd" fill="rgb(92.941176%, 84.705882%, 15.294118%)" fill-opacity="1" d="M 13.28125 2.746094 C 13.28125 2.609375 13.175781 2.5 13.042969 2.5 L 11.121094 2.5 C 11.058594 2.5 11.007812 2.515625 10.964844 2.558594 C 10.90625 2.613281 10.882812 2.664062 10.882812 2.746094 L 10.882812 4.660156 C 10.882812 4.738281 10.90625 4.789062 10.964844 4.847656 C 11.007812 4.890625 11.058594 4.90625 11.121094 4.90625 L 12.074219 4.90625 C 12.273438 4.90625 12.410156 4.949219 12.5625 5.085938 C 12.726562 5.234375 12.792969 5.394531 12.792969 5.625 L 12.792969 6.101562 C 12.792969 6.308594 12.75 6.445312 12.605469 6.605469 C 12.484375 6.734375 12.296875 6.820312 12.074219 6.820312 L 11.109375 6.820312 C 10.976562 6.820312 10.871094 6.933594 10.871094 7.066406 C 10.871094 7.195312 10.976562 7.300781 11.109375 7.300781 L 12.074219 7.300781 C 12.445312 7.300781 12.777344 7.152344 12.972656 6.921875 C 13.179688 6.691406 13.269531 6.445312 13.269531 6.101562 L 13.269531 5.625 C 13.269531 5.222656 13.085938 4.875 12.851562 4.679688 C 12.648438 4.515625 12.28125 4.421875 12.074219 4.421875 L 11.367188 4.421875 L 11.367188 2.980469 L 13.042969 2.980469 C 13.175781 2.980469 13.28125 2.890625 13.28125 2.746094 Z M 13.28125 2.746094 "/>
</svg>
