<?xml version="1.0" encoding="UTF-8"?>
<svg xmlns="http://www.w3.org/2000/svg" xmlns:xlink="http://www.w3.org/1999/xlink" width="16.176884" height="20" viewBox="0 0 16.176884 20">
<defs>
<radialGradient id="radial-pattern-0" gradientUnits="userSpaceOnUse" cx="22.376717" cy="64.324425" fx="22.376717" fy="64.324425" r="5.148283" gradientTransform="matrix(-0.131415, 0.000000311241, 0.000000348228, 0.147032, 14.816255, 2.366381)">
<stop offset="0" stop-color="rgb(100%, 81.176471%, 14.509804%)" stop-opacity="1"/>
<stop offset="1" stop-color="rgb(91.764706%, 60.392157%, 0%)" stop-opacity="1"/>
</radialGradient>
<radialGradient id="radial-pattern-1" gradientUnits="userSpaceOnUse" cx="22.376717" cy="64.324425" fx="22.376717" fy="64.324425" r="5.148283" gradientTransform="matrix(-0.131415, 0.000000311241, 0.000000348228, 0.147032, 6.977603, -5.31243)">
<stop offset="0" stop-color="rgb(100%, 81.176471%, 14.509804%)" stop-opacity="1"/>
<stop offset="1" stop-color="rgb(91.764706%, 60.392157%, 0%)" stop-opacity="1"/>
</radialGradient>
</defs>
<path fill-rule="nonzero" fill="rgb(0%, 0%, 0%)" fill-opacity="1" d="M 16.175781 0 L 0 0 L 0 5.941406 L 5.515625 11.261719 L 5.515625 20 L 16.175781 20 Z M 16.175781 0 "/>
<path fill-rule="evenodd" fill="rgb(100%, 100%, 100%)" fill-opacity="1" d="M 12.503906 0.582031 L 4.269531 0.582031 C 1.535156 0.582031 -0.691406 3.882812 1.652344 6.523438 L 6.003906 10.875 L 6.003906 16.503906 C 6.003906 17.859375 7.359375 19.609375 9.109375 19.609375 L 12.492188 19.609375 C 14.160156 19.609375 15.710938 17.941406 15.710938 16.503906 L 15.710938 3.804688 C 15.710938 1.941406 13.964844 0.582031 12.503906 0.582031 Z M 12.308594 1.179688 L 4.058594 1.164062 C 1.8125 1.164062 0.257812 4.078125 2.003906 6.019531 L 6.585938 10.484375 L 6.585938 16.117188 C 6.585938 17.859375 8.140625 19.144531 9.617188 19.144531 L 12.121094 19.144531 C 13.964844 19.144531 15.132812 17.65625 15.132812 16.308594 L 15.132812 4.007812 C 15.132812 2.328125 13.867188 1.164062 12.308594 1.179688 Z M 12.308594 1.179688 "/>
<path fill="none" stroke-width="0.141509" stroke-linecap="butt" stroke-linejoin="miter" stroke="rgb(23.921569%, 23.921569%, 23.921569%)" stroke-opacity="1" stroke-miterlimit="4" d="M 10.942781 4.14482 C 10.942781 4.664821 11.360299 5.082339 11.876504 5.082339 C 12.388913 5.082339 12.814023 4.664821 12.814023 4.14482 C 12.814023 3.628616 12.388913 3.211097 11.876504 3.211097 C 11.360299 3.211097 10.942781 3.628616 10.942781 4.14482 Z M 10.942781 4.14482 " transform="matrix(1.029146, 0, 0, 1.029146, 0, 0)"/>
<path fill="none" stroke-width="0.141509" stroke-linecap="butt" stroke-linejoin="miter" stroke="rgb(23.921569%, 23.921569%, 23.921569%)" stroke-opacity="1" stroke-miterlimit="4" d="M 10.942781 7.985991 C 10.942781 8.4984 11.360299 8.92351 11.876504 8.92351 C 12.388913 8.92351 12.814023 8.4984 12.814023 7.985991 C 12.814023 7.469786 12.388913 7.048472 11.876504 7.048472 C 11.360299 7.048472 10.942781 7.469786 10.942781 7.985991 Z M 10.942781 7.985991 " transform="matrix(1.029146, 0, 0, 1.029146, 0, 0)"/>
<path fill-rule="nonzero" fill="url(#radial-pattern-0)" stroke-width="0.141509" stroke-linecap="butt" stroke-linejoin="miter" stroke="rgb(86.27451%, 52.54902%, 0%)" stroke-opacity="0.72549" stroke-miterlimit="4" d="M 10.942781 11.823365 C 10.942781 12.33957 11.360299 12.760884 11.876504 12.760884 C 12.388913 12.760884 12.814023 12.33957 12.814023 11.823365 C 12.814023 11.307161 12.388913 10.885847 11.876504 10.885847 C 11.360299 10.885847 10.942781 11.307161 10.942781 11.823365 Z M 10.942781 11.823365 " transform="matrix(1.029146, 0, 0, 1.029146, 0, 0)"/>
<path fill="none" stroke-width="0.141509" stroke-linecap="butt" stroke-linejoin="miter" stroke="rgb(23.921569%, 23.921569%, 23.921569%)" stroke-opacity="1" stroke-miterlimit="4" d="M 10.942781 15.664536 C 10.942781 16.180741 11.360299 16.598259 11.876504 16.598259 C 12.388913 16.598259 12.814023 16.180741 12.814023 15.664536 C 12.814023 15.148331 12.388913 14.727017 11.876504 14.727017 C 11.360299 14.727017 10.942781 15.148331 10.942781 15.664536 Z M 10.942781 15.664536 " transform="matrix(1.029146, 0, 0, 1.029146, 0, 0)"/>
<path fill-rule="nonzero" fill="url(#radial-pattern-1)" stroke-width="0.141509" stroke-linecap="butt" stroke-linejoin="miter" stroke="rgb(86.27451%, 52.54902%, 0%)" stroke-opacity="0.72549" stroke-miterlimit="4" d="M 3.101024 4.14482 C 3.101024 4.664821 3.518542 5.082339 4.034747 5.082339 C 4.554748 5.082339 4.972266 4.664821 4.972266 4.14482 C 4.972266 3.628616 4.554748 3.211097 4.034747 3.211097 C 3.518542 3.211097 3.101024 3.628616 3.101024 4.14482 Z M 3.101024 4.14482 " transform="matrix(1.029146, 0, 0, 1.029146, 0, 0)"/>
</svg>
