<?xml version="1.0" encoding="UTF-8"?>
<svg xmlns="http://www.w3.org/2000/svg" xmlns:xlink="http://www.w3.org/1999/xlink" width="16.176884" height="20" viewBox="0 0 16.176884 20">
<defs>
<radialGradient id="radial-pattern-0" gradientUnits="userSpaceOnUse" cx="22.376717" cy="23.62672" fx="22.376717" fy="23.62672" r="5.348282" gradientTransform="matrix(-0.147764, 0.000000514602, 0.000000523578, 0.150342, 15.527109, 0.714086)">
<stop offset="0" stop-color="rgb(21.568627%, 99.215686%, 3.921569%)" stop-opacity="1"/>
<stop offset="1" stop-color="rgb(16.470588%, 85.882353%, 0.784314%)" stop-opacity="1"/>
</radialGradient>
</defs>
<path fill-rule="nonzero" fill="rgb(0%, 0%, 0%)" fill-opacity="1" d="M 16.175781 0 L 0 0 L 0 5.941406 L 5.515625 11.261719 L 5.515625 20 L 16.175781 20 Z M 16.175781 0 "/>
<path fill-rule="evenodd" fill="rgb(100%, 100%, 100%)" fill-opacity="1" d="M 12.5 0.582031 L 4.269531 0.582031 C 1.535156 0.582031 -0.691406 3.882812 1.652344 6.523438 L 6 10.875 L 6 16.503906 C 6 17.859375 7.359375 19.609375 9.109375 19.609375 L 12.488281 19.609375 C 14.15625 19.609375 15.710938 17.941406 15.710938 16.503906 L 15.710938 3.804688 C 15.710938 1.941406 13.964844 0.582031 12.5 0.582031 Z M 12.308594 1.179688 L 4.058594 1.164062 C 1.8125 1.164062 0.257812 4.078125 2 6.019531 L 6.582031 10.484375 L 6.582031 16.117188 C 6.582031 17.859375 8.140625 19.144531 9.613281 19.144531 L 12.121094 19.144531 C 13.964844 19.144531 15.128906 17.65625 15.128906 16.308594 L 15.128906 4.007812 C 15.128906 2.328125 13.863281 1.164062 12.308594 1.179688 Z M 12.308594 1.179688 "/>
<path fill-rule="nonzero" fill="url(#radial-pattern-0)" stroke-width="0.75" stroke-linecap="butt" stroke-linejoin="miter" stroke="rgb(16.470588%, 85.490196%, 0.784314%)" stroke-opacity="0.72549" stroke-miterlimit="4" d="M 11.257812 4.265625 C 11.257812 4.800781 11.6875 5.230469 12.21875 5.230469 C 12.75 5.230469 13.183594 4.800781 13.183594 4.265625 C 13.183594 3.734375 12.75 3.304688 12.21875 3.304688 C 11.6875 3.304688 11.257812 3.734375 11.257812 4.265625 Z M 11.257812 4.265625 "/>
<path fill="none" stroke-width="0.142" stroke-linecap="butt" stroke-linejoin="miter" stroke="rgb(23.921569%, 23.921569%, 23.921569%)" stroke-opacity="1" stroke-miterlimit="4" d="M 11.285156 8.125 C 11.285156 8.640625 11.703125 9.0625 12.21875 9.0625 C 12.734375 9.0625 13.15625 8.640625 13.15625 8.125 C 13.15625 7.609375 12.734375 7.1875 12.21875 7.1875 C 11.703125 7.1875 11.285156 7.609375 11.285156 8.125 Z M 11.285156 8.125 "/>
<path fill="none" stroke-width="0.142" stroke-linecap="butt" stroke-linejoin="miter" stroke="rgb(23.921569%, 23.921569%, 23.921569%)" stroke-opacity="1" stroke-miterlimit="4" d="M 11.285156 11.964844 C 11.285156 12.480469 11.703125 12.902344 12.21875 12.902344 C 12.734375 12.902344 13.15625 12.480469 13.15625 11.964844 C 13.15625 11.449219 12.734375 11.027344 12.21875 11.027344 C 11.703125 11.027344 11.285156 11.449219 11.285156 11.964844 Z M 11.285156 11.964844 "/>
<path fill="none" stroke-width="0.142" stroke-linecap="butt" stroke-linejoin="miter" stroke="rgb(23.921569%, 23.921569%, 23.921569%)" stroke-opacity="1" stroke-miterlimit="4" d="M 11.285156 15.804688 C 11.285156 16.320312 11.703125 16.738281 12.21875 16.738281 C 12.734375 16.738281 13.15625 16.320312 13.15625 15.804688 C 13.15625 15.289062 12.734375 14.867188 12.21875 14.867188 C 11.703125 14.867188 11.285156 15.289062 11.285156 15.804688 Z M 11.285156 15.804688 "/>
<path fill="none" stroke-width="0.141509" stroke-linecap="butt" stroke-linejoin="miter" stroke="rgb(23.921569%, 23.921569%, 23.921569%)" stroke-opacity="1" stroke-miterlimit="4" d="M 3.101562 4.144531 C 3.101562 4.664062 3.519531 5.082031 4.035156 5.082031 C 4.554688 5.082031 4.972656 4.664062 4.972656 4.144531 C 4.972656 3.628906 4.554688 3.210938 4.035156 3.210938 C 3.519531 3.210938 3.101562 3.628906 3.101562 4.144531 Z M 3.101562 4.144531 "/>
</svg>
