<?xml version="1.0" encoding="UTF-8"?>
<svg xmlns="http://www.w3.org/2000/svg" xmlns:xlink="http://www.w3.org/1999/xlink" width="16" height="16" viewBox="0 0 16 16">
<path fill-rule="nonzero" fill="rgb(0%, 0%, 0%)" fill-opacity="1" stroke-width="1" stroke-linecap="round" stroke-linejoin="miter" stroke="rgb(0%, 0%, 0%)" stroke-opacity="1" stroke-miterlimit="4" d="M 0.498916 0.498916 L 15.719825 0.498916 L 15.719825 15.719825 L 0.498916 15.719825 Z M 0.498916 0.498916 " transform="matrix(0.986513, 0, 0, 0.986513, 0, 0)"/>
<path fill-rule="nonzero" fill="rgb(100%, 100%, 100%)" fill-opacity="1" d="M 6.875 10.039062 C 6.875 9.632812 6.914062 9.285156 7 8.992188 C 7.082031 8.691406 7.222656 8.410156 7.421875 8.148438 C 7.617188 7.878906 7.882812 7.597656 8.21875 7.304688 C 8.632812 6.960938 8.957031 6.675781 9.1875 6.445312 C 9.414062 6.207031 9.578125 5.976562 9.671875 5.757812 C 9.773438 5.53125 9.828125 5.253906 9.828125 4.929688 C 9.828125 4.421875 9.660156 4.023438 9.328125 3.742188 C 8.992188 3.460938 8.515625 3.320312 7.890625 3.320312 C 7.367188 3.320312 6.90625 3.390625 6.5 3.523438 C 6.09375 3.660156 5.703125 3.816406 5.328125 3.992188 L 4.828125 2.882812 C 5.253906 2.65625 5.726562 2.46875 6.25 2.320312 C 6.769531 2.175781 7.347656 2.101562 7.984375 2.101562 C 8.992188 2.101562 9.773438 2.351562 10.328125 2.851562 C 10.890625 3.351562 11.171875 4.035156 11.171875 4.898438 C 11.171875 5.378906 11.09375 5.785156 10.9375 6.117188 C 10.78125 6.453125 10.5625 6.765625 10.28125 7.054688 C 10 7.335938 9.664062 7.632812 9.28125 7.945312 C 8.925781 8.25 8.65625 8.515625 8.46875 8.742188 C 8.28125 8.960938 8.15625 9.179688 8.09375 9.398438 C 8.03125 9.617188 8 9.882812 8 10.195312 L 8 10.460938 L 6.875 10.460938 Z M 6.515625 12.820312 C 6.515625 12.425781 6.609375 12.148438 6.796875 11.992188 C 6.984375 11.828125 7.21875 11.742188 7.5 11.742188 C 7.769531 11.742188 8 11.828125 8.1875 11.992188 C 8.382812 12.148438 8.484375 12.425781 8.484375 12.820312 C 8.484375 13.207031 8.382812 13.484375 8.1875 13.648438 C 8 13.8125 7.769531 13.898438 7.5 13.898438 C 7.21875 13.898438 6.984375 13.8125 6.796875 13.648438 C 6.609375 13.484375 6.515625 13.207031 6.515625 12.820312 Z M 4.640625 -3.421875 "/>
</svg>
