<?xml version="1.0" encoding="UTF-8"?>
<svg xmlns="http://www.w3.org/2000/svg" xmlns:xlink="http://www.w3.org/1999/xlink" width="16" height="16" viewBox="0 0 16 16">
<path fill-rule="nonzero" fill="rgb(0%, 0%, 0%)" fill-opacity="1" stroke-width="1" stroke-linecap="round" stroke-linejoin="miter" stroke="rgb(0%, 0%, 0%)" stroke-opacity="1" stroke-miterlimit="4" d="M 0.498916 0.498916 L 15.719825 0.498916 L 15.719825 15.719825 L 0.498916 15.719825 Z M 0.498916 0.498916 " transform="matrix(0.986513, 0, 0, 0.986513, 0, 0)"/>
<path fill-rule="nonzero" fill="rgb(100%, 100%, 100%)" fill-opacity="1" d="M 4.234375 8.835938 C 4.234375 8.015625 4.304688 7.207031 4.453125 6.414062 C 4.597656 5.613281 4.859375 4.890625 5.234375 4.242188 C 5.617188 3.597656 6.148438 3.085938 6.828125 2.710938 C 7.515625 2.328125 8.394531 2.132812 9.46875 2.132812 C 9.695312 2.132812 9.945312 2.144531 10.21875 2.164062 C 10.488281 2.1875 10.707031 2.222656 10.875 2.273438 L 10.875 3.476562 C 10.6875 3.40625 10.472656 3.351562 10.234375 3.320312 C 9.992188 3.289062 9.75 3.273438 9.5 3.273438 C 8.769531 3.273438 8.15625 3.398438 7.65625 3.648438 C 7.164062 3.890625 6.78125 4.222656 6.5 4.648438 C 6.21875 5.078125 6.015625 5.570312 5.890625 6.132812 C 5.765625 6.6875 5.679688 7.273438 5.640625 7.898438 L 5.75 7.898438 C 5.988281 7.523438 6.328125 7.207031 6.765625 6.945312 C 7.203125 6.6875 7.765625 6.554688 8.453125 6.554688 C 9.441406 6.554688 10.238281 6.859375 10.84375 7.460938 C 11.457031 8.066406 11.765625 8.921875 11.765625 10.023438 C 11.765625 11.222656 11.4375 12.164062 10.78125 12.851562 C 10.125 13.53125 9.238281 13.867188 8.125 13.867188 C 7.40625 13.867188 6.75 13.691406 6.15625 13.335938 C 5.570312 12.972656 5.101562 12.414062 4.75 11.664062 C 4.40625 10.914062 4.234375 9.972656 4.234375 8.835938 Z M 8.109375 12.679688 C 8.785156 12.679688 9.332031 12.46875 9.75 12.039062 C 10.164062 11.613281 10.375 10.941406 10.375 10.023438 C 10.375 9.304688 10.1875 8.734375 9.8125 8.304688 C 9.445312 7.878906 8.894531 7.664062 8.15625 7.664062 C 7.65625 7.664062 7.21875 7.769531 6.84375 7.976562 C 6.46875 8.1875 6.175781 8.453125 5.96875 8.773438 C 5.757812 9.085938 5.65625 9.414062 5.65625 9.757812 C 5.65625 10.21875 5.742188 10.675781 5.921875 11.132812 C 6.109375 11.582031 6.382812 11.953125 6.75 12.242188 C 7.113281 12.535156 7.566406 12.679688 8.109375 12.679688 Z M 3.359375 -3.390625 "/>
</svg>
