<?xml version="1.0" encoding="UTF-8"?>
<svg xmlns="http://www.w3.org/2000/svg" xmlns:xlink="http://www.w3.org/1999/xlink" width="11.95017" height="18" viewBox="0 0 11.95017 18">
<path fill-rule="evenodd" fill="rgb(10.588235%, 10.588235%, 10.588235%)" fill-opacity="1" d="M 0 17.496094 L 0 1.539062 C 0 -0.164062 1.835938 -0.03125 2.453125 0.03125 C 12.089844 0.976562 11.988281 4.726562 11.941406 17.316406 C 11.964844 17.742188 11.976562 18 11.414062 18 L 0.625 18 C 0.183594 18 0 17.890625 0 17.496094 Z M 0 17.496094 "/>
<path fill-rule="evenodd" fill="rgb(6.27451%, 6.27451%, 6.27451%)" fill-opacity="1" d="M 0.691406 9.632812 C 0.691406 10.769531 1.613281 11.695312 2.75 11.695312 C 3.890625 11.695312 4.8125 10.769531 4.8125 9.632812 C 4.8125 8.488281 3.890625 7.566406 2.75 7.566406 C 1.613281 7.566406 0.691406 8.488281 0.691406 9.632812 Z M 0.691406 9.632812 "/>
<path fill-rule="evenodd" fill="rgb(6.27451%, 6.27451%, 6.27451%)" fill-opacity="1" d="M 7.230469 9.632812 C 7.230469 10.769531 8.152344 11.695312 9.296875 11.695312 C 10.433594 11.695312 11.355469 10.769531 11.355469 9.632812 C 11.355469 8.488281 10.433594 7.566406 9.296875 7.566406 C 8.152344 7.566406 7.230469 8.488281 7.230469 9.632812 Z M 7.230469 9.632812 "/>
<path fill-rule="evenodd" fill="rgb(19.215686%, 19.215686%, 19.215686%)" fill-opacity="1" stroke-width="0.0714895" stroke-linecap="round" stroke-linejoin="miter" stroke="rgb(0%, 0%, 0%)" stroke-opacity="1" stroke-miterlimit="4" d="M 9.842354 12.202738 C 9.842354 13.266643 10.708323 14.132611 11.772228 14.132611 C 12.836132 14.132611 13.697153 13.266643 13.697153 12.202738 C 13.697153 11.133885 12.836132 10.272865 11.772228 10.272865 C 10.708323 10.272865 9.842354 11.133885 9.842354 12.202738 Z M 9.842354 12.202738 " transform="matrix(0.789398, 0, 0, 0.789398, 0, 0)"/>
<path fill-rule="evenodd" fill="rgb(6.27451%, 6.27451%, 6.27451%)" fill-opacity="1" d="M 7.230469 14.886719 C 7.230469 16.023438 8.152344 16.949219 9.296875 16.949219 C 10.433594 16.949219 11.355469 16.023438 11.355469 14.886719 C 11.355469 13.746094 10.433594 12.824219 9.296875 12.824219 C 8.152344 12.824219 7.230469 13.746094 7.230469 14.886719 Z M 7.230469 14.886719 "/>
<path fill-rule="evenodd" fill="rgb(98.039216%, 12.941176%, 0%)" fill-opacity="1" stroke-width="0.0714895" stroke-linecap="round" stroke-linejoin="miter" stroke="rgb(0%, 0%, 0%)" stroke-opacity="1" stroke-miterlimit="4" d="M 9.842354 18.858327 C 9.842354 19.922232 10.708323 20.7882 11.772228 20.7882 C 12.836132 20.7882 13.697153 19.922232 13.697153 18.858327 C 13.697153 17.789474 12.836132 16.928454 11.772228 16.928454 C 10.708323 16.928454 9.842354 17.789474 9.842354 18.858327 Z M 9.842354 18.858327 " transform="matrix(0.789398, 0, 0, 0.789398, 0, 0)"/>
<path fill-rule="evenodd" fill="rgb(6.27451%, 6.27451%, 6.27451%)" fill-opacity="1" d="M 5.441406 4.757812 C 5.441406 5.894531 6.371094 6.820312 7.503906 6.820312 C 8.644531 6.820312 9.570312 5.894531 9.570312 4.757812 C 9.570312 3.613281 8.644531 2.691406 7.503906 2.691406 C 6.371094 2.691406 5.441406 3.613281 5.441406 4.757812 Z M 5.441406 4.757812 "/>
<path fill-rule="evenodd" fill="rgb(6.27451%, 6.27451%, 6.27451%)" fill-opacity="1" d="M 0.707031 2.867188 C 0.707031 4 1.632812 4.921875 2.773438 4.921875 C 3.910156 4.921875 4.832031 4 4.832031 2.867188 C 4.832031 1.722656 3.910156 0.800781 2.773438 0.800781 C 1.632812 0.800781 0.707031 1.722656 0.707031 2.867188 Z M 0.707031 2.867188 "/>
<path fill-rule="evenodd" fill="rgb(19.215686%, 19.215686%, 19.215686%)" fill-opacity="1" stroke-width="0.0714895" stroke-linecap="round" stroke-linejoin="miter" stroke="rgb(0%, 0%, 0%)" stroke-opacity="1" stroke-miterlimit="4" d="M 1.583486 3.622224 C 1.583486 4.691077 2.444506 5.552097 3.513359 5.552097 C 4.582212 5.552097 5.443233 4.691077 5.443233 3.622224 C 5.443233 2.558319 4.582212 1.692351 3.513359 1.692351 C 2.444506 1.692351 1.583486 2.558319 1.583486 3.622224 Z M 1.583486 3.622224 " transform="matrix(0.789398, 0, 0, 0.789398, 0, 0)"/>
<path fill-rule="evenodd" fill="rgb(19.215686%, 19.215686%, 19.215686%)" fill-opacity="1" stroke-width="0.0714895" stroke-linecap="round" stroke-linejoin="miter" stroke="rgb(0%, 0%, 0%)" stroke-opacity="1" stroke-miterlimit="4" d="M 7.536403 6.027143 C 7.536403 7.091048 8.40732 7.952068 9.466276 7.952068 C 10.540078 7.952068 11.39615 7.091048 11.39615 6.027143 C 11.39615 4.95829 10.540078 4.09727 9.466276 4.09727 C 8.40732 4.09727 7.536403 4.95829 7.536403 6.027143 Z M 7.536403 6.027143 " transform="matrix(0.789398, 0, 0, 0.789398, 0, 0)"/>
<path fill-rule="evenodd" fill="rgb(19.215686%, 19.215686%, 19.215686%)" fill-opacity="1" stroke-width="0.0714895" stroke-linecap="round" stroke-linejoin="miter" stroke="rgb(0%, 0%, 0%)" stroke-opacity="1" stroke-miterlimit="4" d="M 1.499363 12.168099 C 1.499363 13.236952 2.365332 14.102921 3.429237 14.102921 C 4.49809 14.102921 5.35911 13.236952 5.35911 12.168099 C 5.35911 11.104195 4.49809 10.243174 3.429237 10.243174 C 2.365332 10.243174 1.499363 11.104195 1.499363 12.168099 Z M 1.499363 12.168099 " transform="matrix(0.789398, 0, 0, 0.789398, 0, 0)"/>
<path fill-rule="evenodd" fill="rgb(6.27451%, 6.27451%, 6.27451%)" fill-opacity="1" d="M 0.644531 14.886719 C 0.644531 16.023438 1.566406 16.949219 2.710938 16.949219 C 3.84375 16.949219 4.769531 16.023438 4.769531 14.886719 C 4.769531 13.746094 3.84375 12.824219 2.710938 12.824219 C 1.566406 12.824219 0.644531 13.746094 0.644531 14.886719 Z M 0.644531 14.886719 "/>
<path fill-rule="evenodd" fill="rgb(19.215686%, 19.215686%, 19.215686%)" fill-opacity="1" stroke-width="0.0714895" stroke-linecap="round" stroke-linejoin="miter" stroke="rgb(0%, 0%, 0%)" stroke-opacity="1" stroke-miterlimit="4" d="M 1.499363 18.858327 C 1.499363 19.922232 2.365332 20.7882 3.424288 20.7882 C 4.493141 20.7882 5.354162 19.922232 5.354162 18.858327 C 5.354162 17.789474 4.493141 16.928454 3.424288 16.928454 C 2.365332 16.928454 1.499363 17.789474 1.499363 18.858327 Z M 1.499363 18.858327 " transform="matrix(0.789398, 0, 0, 0.789398, 0, 0)"/>
</svg>
