<?xml version="1.0" encoding="UTF-8"?>
<svg xmlns="http://www.w3.org/2000/svg" xmlns:xlink="http://www.w3.org/1999/xlink" width="10.277825" height="32" viewBox="0 0 10.277825 32">
<path fill-rule="nonzero" fill="rgb(14.901961%, 14.901961%, 14.901961%)" fill-opacity="1" d="M 0 5.085938 L 10.277344 5.085938 L 10.277344 27.207031 L 0 27.207031 Z M 0 5.085938 "/>
<path fill-rule="nonzero" fill="rgb(14.901961%, 14.901961%, 14.901961%)" fill-opacity="1" d="M 10.277344 26.914062 C 10.277344 29.726562 7.976562 32 5.144531 32 C 2.300781 32 0 29.726562 0 26.914062 C 0 24.105469 2.300781 21.828125 5.144531 21.828125 C 7.976562 21.828125 10.277344 24.105469 10.277344 26.914062 Z M 10.277344 26.914062 "/>
<path fill-rule="nonzero" fill="rgb(14.901961%, 14.901961%, 14.901961%)" fill-opacity="1" d="M 10.277344 5.085938 C 10.277344 7.894531 7.976562 10.171875 5.144531 10.171875 C 2.300781 10.171875 0 7.894531 0 5.085938 C 0 2.273438 2.300781 0 5.144531 0 C 7.976562 0 10.277344 2.273438 10.277344 5.085938 Z M 10.277344 5.085938 "/>
<path fill-rule="nonzero" fill="rgb(27.843137%, 27.843137%, 27.843137%)" fill-opacity="1" d="M 7.15625 5.085938 C 7.15625 6.210938 6.253906 7.128906 5.144531 7.128906 C 4.023438 7.128906 3.125 6.210938 3.125 5.085938 C 3.125 3.957031 4.023438 3.046875 5.144531 3.046875 C 6.253906 3.046875 7.15625 3.957031 7.15625 5.085938 Z M 7.15625 5.085938 "/>
<path fill-rule="nonzero" fill="rgb(27.843137%, 27.843137%, 27.843137%)" fill-opacity="1" d="M 7.15625 21.011719 C 7.15625 22.140625 6.253906 23.050781 5.144531 23.050781 C 4.023438 23.050781 3.125 22.140625 3.125 21.011719 C 3.125 19.886719 4.023438 18.96875 5.144531 18.96875 C 6.253906 18.96875 7.15625 19.886719 7.15625 21.011719 Z M 7.15625 21.011719 "/>
<path fill-rule="nonzero" fill="rgb(0%, 82.745098%, 37.647059%)" fill-opacity="1" d="M 7.132812 26.914062 C 7.132812 28.039062 6.226562 28.957031 5.113281 28.957031 C 4 28.957031 3.097656 28.039062 3.097656 26.914062 C 3.097656 25.789062 4 24.875 5.113281 24.875 C 6.226562 24.875 7.132812 25.789062 7.132812 26.914062 Z M 7.132812 26.914062 "/>
<path fill-rule="nonzero" fill="rgb(27.843137%, 27.843137%, 27.843137%)" fill-opacity="1" d="M 7.132812 10.992188 C 7.132812 12.113281 6.226562 13.035156 5.113281 13.035156 C 4 13.035156 3.097656 12.113281 3.097656 10.992188 C 3.097656 9.863281 4 8.953125 5.113281 8.953125 C 6.226562 8.953125 7.132812 9.863281 7.132812 10.992188 Z M 7.132812 10.992188 "/>
</svg>
