<?xml version="1.0" encoding="UTF-8"?>
<svg xmlns="http://www.w3.org/2000/svg" xmlns:xlink="http://www.w3.org/1999/xlink" width="10" height="15" viewBox="0 0 10 15">
<path fill-rule="evenodd" fill="rgb(10.196078%, 10.196078%, 10.196078%)" fill-opacity="1" d="M 10 5.003906 L 10 9.988281 C 10 12.746094 7.757812 14.984375 5 14.984375 C 2.238281 14.984375 0 12.746094 0 9.988281 L 0 5.003906 C 0 2.246094 2.238281 0.00390625 5 0.00390625 C 7.757812 0.00390625 10 2.246094 10 5.003906 Z M 10 5.003906 "/>
<path fill-rule="evenodd" fill="rgb(0%, 0%, 0%)" fill-opacity="1" d="M 7.265625 4.996094 C 7.265625 6.265625 6.25 7.285156 5.003906 7.285156 C 3.746094 7.285156 2.734375 6.265625 2.734375 4.996094 C 2.734375 3.734375 3.746094 2.703125 5.003906 2.703125 C 6.25 2.703125 7.265625 3.734375 7.265625 4.996094 Z M 7.265625 4.996094 "/>
<path fill-rule="evenodd" fill="rgb(98.039216%, 12.54902%, 0%)" fill-opacity="1" d="M 6.765625 4.996094 C 6.765625 4.011719 5.976562 3.203125 5.003906 3.203125 C 4.019531 3.203125 3.234375 4.011719 3.234375 4.996094 C 3.234375 5.988281 4.019531 6.785156 5.003906 6.785156 C 5.976562 6.785156 6.765625 5.984375 6.765625 4.996094 Z M 6.765625 4.996094 "/>
<path fill-rule="evenodd" fill="rgb(0%, 0%, 0%)" fill-opacity="1" d="M 7.265625 9.992188 C 7.265625 11.261719 6.25 12.28125 5.003906 12.28125 C 3.746094 12.28125 2.734375 11.261719 2.734375 9.992188 C 2.734375 8.730469 3.746094 7.699219 5.003906 7.699219 C 6.25 7.699219 7.265625 8.730469 7.265625 9.992188 Z M 7.265625 9.992188 "/>
<path fill-rule="evenodd" fill="rgb(18.823529%, 18.823529%, 18.823529%)" fill-opacity="1" d="M 6.765625 9.992188 C 6.765625 9.007812 5.976562 8.199219 5.003906 8.199219 C 4.019531 8.199219 3.234375 9.007812 3.234375 9.992188 C 3.234375 10.984375 4.019531 11.78125 5.003906 11.78125 C 5.976562 11.78125 6.765625 10.984375 6.765625 9.992188 Z M 6.765625 9.992188 "/>
</svg>
