<?xml version="1.0" encoding="UTF-8"?>
<svg xmlns="http://www.w3.org/2000/svg" xmlns:xlink="http://www.w3.org/1999/xlink" width="18.943115" height="20" viewBox="0 0 18.943115 20">
<path fill-rule="nonzero" fill="rgb(0%, 0%, 0%)" fill-opacity="1" d="M 4.839844 10.640625 L 14.199219 10.640625 L 14.199219 20 L 4.839844 20 Z M 4.839844 10.640625 "/>
<path fill-rule="nonzero" fill="rgb(0%, 0%, 0%)" fill-opacity="1" d="M 4.390625 20 L 14.554688 20 L 17.882812 13.824219 L 1.058594 13.824219 Z M 4.390625 20 "/>
<path fill-rule="nonzero" fill="rgb(0%, 0%, 0%)" fill-opacity="1" d="M 18.941406 9.472656 C 18.941406 14.703125 14.703125 18.941406 9.472656 18.941406 C 4.242188 18.941406 0 14.703125 0 9.472656 C 0 4.242188 4.242188 0 9.472656 0 C 14.703125 0 18.941406 4.242188 18.941406 9.472656 Z M 18.941406 9.472656 "/>
<path fill-rule="nonzero" fill="rgb(100%, 100%, 100%)" fill-opacity="1" d="M 18.460938 9.472656 C 18.460938 14.433594 14.433594 18.460938 9.472656 18.460938 C 4.507812 18.460938 0.484375 14.433594 0.484375 9.472656 C 0.484375 4.507812 4.507812 0.484375 9.472656 0.484375 C 14.433594 0.484375 18.460938 4.507812 18.460938 9.472656 Z M 18.460938 9.472656 "/>
<path fill-rule="nonzero" fill="rgb(0%, 0%, 0%)" fill-opacity="1" d="M 17.976562 9.472656 C 17.976562 14.167969 14.167969 17.976562 9.472656 17.976562 C 4.773438 17.976562 0.96875 14.167969 0.96875 9.472656 C 0.96875 4.773438 4.773438 0.96875 9.472656 0.96875 C 14.167969 0.96875 17.976562 4.773438 17.976562 9.472656 Z M 17.976562 9.472656 "/>
<path fill-rule="nonzero" fill="rgb(25.098039%, 25.098039%, 25.098039%)" fill-opacity="1" d="M 15.691406 6.4375 C 15.691406 7.195312 15.078125 7.808594 14.320312 7.808594 C 13.5625 7.808594 12.949219 7.195312 12.949219 6.4375 C 12.949219 5.679688 13.5625 5.066406 14.320312 5.066406 C 15.078125 5.066406 15.691406 5.679688 15.691406 6.4375 Z M 15.691406 6.4375 "/>
<path fill-rule="nonzero" fill="rgb(25.098039%, 25.098039%, 25.098039%)" fill-opacity="1" d="M 6.011719 6.4375 C 6.011719 7.195312 5.394531 7.808594 4.640625 7.808594 C 3.882812 7.808594 3.265625 7.195312 3.265625 6.4375 C 3.265625 5.679688 3.882812 5.066406 4.640625 5.066406 C 5.394531 5.066406 6.011719 5.679688 6.011719 6.4375 Z M 6.011719 6.4375 "/>
<path fill-rule="nonzero" fill="rgb(0%, 100%, 0%)" fill-opacity="1" d="M 10.851562 8.617188 C 10.851562 9.375 10.238281 9.988281 9.480469 9.988281 C 8.722656 9.988281 8.109375 9.375 8.109375 8.617188 C 8.109375 7.859375 8.722656 7.246094 9.480469 7.246094 C 10.238281 7.246094 10.851562 7.859375 10.851562 8.617188 Z M 10.851562 8.617188 "/>
<path fill-rule="nonzero" fill="rgb(100%, 0%, 0%)" fill-opacity="1" d="M 15.691406 11.277344 C 15.691406 12.035156 15.078125 12.648438 14.320312 12.648438 C 13.5625 12.648438 12.949219 12.035156 12.949219 11.277344 C 12.949219 10.519531 13.5625 9.90625 14.320312 9.90625 C 15.078125 9.90625 15.691406 10.519531 15.691406 11.277344 Z M 15.691406 11.277344 "/>
<path fill-rule="nonzero" fill="rgb(100%, 100%, 0%)" fill-opacity="1" d="M 6.011719 11.277344 C 6.011719 12.035156 5.394531 12.648438 4.640625 12.648438 C 3.882812 12.648438 3.265625 12.035156 3.265625 11.277344 C 3.265625 10.519531 3.882812 9.90625 4.640625 9.90625 C 5.394531 9.90625 6.011719 10.519531 6.011719 11.277344 Z M 6.011719 11.277344 "/>
<path fill-rule="nonzero" fill="rgb(25.098039%, 25.098039%, 25.098039%)" fill-opacity="1" d="M 10.851562 14.828125 C 10.851562 15.585938 10.238281 16.199219 9.480469 16.199219 C 8.722656 16.199219 8.109375 15.585938 8.109375 14.828125 C 8.109375 14.070312 8.722656 13.457031 9.480469 13.457031 C 10.238281 13.457031 10.851562 14.070312 10.851562 14.828125 Z M 10.851562 14.828125 "/>
<path fill-rule="nonzero" fill="rgb(25.098039%, 25.098039%, 25.098039%)" fill-opacity="1" d="M 13.277344 9.875 L 15.363281 9.875 C 15.5625 9.875 15.722656 10.035156 15.722656 10.238281 L 15.722656 12.320312 C 15.722656 12.519531 15.5625 12.683594 15.363281 12.683594 L 13.277344 12.683594 C 13.078125 12.683594 12.917969 12.519531 12.917969 12.320312 L 12.917969 10.238281 C 12.917969 10.035156 13.078125 9.875 13.277344 9.875 Z M 13.277344 9.875 "/>
<path fill-rule="nonzero" fill="rgb(25.098039%, 25.098039%, 25.098039%)" fill-opacity="1" d="M 3.597656 9.875 L 5.679688 9.875 C 5.878906 9.875 6.042969 10.035156 6.042969 10.238281 L 6.042969 12.320312 C 6.042969 12.519531 5.878906 12.683594 5.679688 12.683594 L 3.597656 12.683594 C 3.398438 12.683594 3.234375 12.519531 3.234375 12.320312 L 3.234375 10.238281 C 3.234375 10.035156 3.398438 9.875 3.597656 9.875 Z M 3.597656 9.875 "/>
</svg>
