<?xml version="1.0" encoding="UTF-8"?>
<svg xmlns="http://www.w3.org/2000/svg" xmlns:xlink="http://www.w3.org/1999/xlink" width="28" height="9.625" viewBox="0 0 28 9.625">
<path fill-rule="nonzero" fill="rgb(100%, 100%, 100%)" fill-opacity="1" stroke-width="3.6055" stroke-linecap="butt" stroke-linejoin="miter" stroke="rgb(0%, 0%, 0%)" stroke-opacity="1" stroke-miterlimit="4" d="M 1.714286 1.714286 L 510.285714 1.714286 L 510.285714 174.285714 L 1.714286 174.285714 Z M 1.714286 1.714286 " transform="matrix(0.0546875, 0, 0, 0.0546875, 0, 0)"/>
<path fill-rule="nonzero" fill="rgb(0%, 0%, 0%)" fill-opacity="1" d="M 5.421875 3.644531 C 5.421875 3.433594 5.378906 3.226562 5.292969 3.019531 C 5.203125 2.832031 5.078125 2.644531 4.921875 2.488281 C 4.765625 2.339844 4.585938 2.214844 4.394531 2.125 C 4.203125 2.035156 4 1.996094 3.792969 1.996094 L 2.097656 1.996094 L 2.097656 7.628906 L 3.792969 7.628906 C 4 7.628906 4.203125 7.582031 4.410156 7.484375 C 4.605469 7.390625 4.785156 7.261719 4.957031 7.101562 C 5.121094 6.9375 5.242188 6.753906 5.339844 6.550781 C 5.433594 6.351562 5.480469 6.152344 5.480469 5.949219 C 5.480469 5.816406 5.460938 5.6875 5.425781 5.566406 C 5.394531 5.449219 5.351562 5.332031 5.296875 5.238281 C 5.242188 5.132812 5.183594 5.042969 5.121094 4.96875 C 5.066406 4.902344 5.003906 4.839844 4.941406 4.800781 C 4.988281 4.746094 5.039062 4.675781 5.09375 4.601562 C 5.148438 4.527344 5.203125 4.4375 5.257812 4.332031 C 5.304688 4.238281 5.339844 4.128906 5.371094 4.011719 C 5.40625 3.890625 5.421875 3.773438 5.421875 3.644531 Z M 3.792969 5.261719 C 3.882812 5.261719 3.964844 5.285156 4.046875 5.316406 C 4.121094 5.359375 4.199219 5.414062 4.265625 5.476562 C 4.328125 5.542969 4.375 5.621094 4.410156 5.699219 C 4.449219 5.785156 4.464844 5.863281 4.464844 5.941406 C 4.464844 6.023438 4.449219 6.105469 4.410156 6.179688 C 4.375 6.269531 4.328125 6.335938 4.265625 6.40625 C 4.199219 6.464844 4.121094 6.519531 4.046875 6.554688 C 3.957031 6.589844 3.875 6.609375 3.792969 6.617188 L 3.117188 6.617188 L 3.117188 5.261719 Z M 3.792969 4.253906 L 3.117188 4.253906 L 3.117188 3.007812 L 3.792969 3.007812 C 3.964844 3.007812 4.109375 3.070312 4.230469 3.191406 C 4.355469 3.316406 4.410156 3.457031 4.410156 3.628906 C 4.410156 3.800781 4.355469 3.945312 4.230469 4.066406 C 4.109375 4.191406 3.964844 4.253906 3.792969 4.253906 Z M 6.324219 7.628906 L 7.339844 7.628906 L 7.339844 1.996094 L 6.324219 1.996094 Z M 11 7.628906 L 11.957031 5.207031 L 11.957031 7.628906 L 12.972656 7.628906 L 12.972656 1.996094 L 11.957031 1.996094 L 10.71875 5.769531 L 9.480469 1.996094 L 8.464844 1.996094 L 8.464844 7.628906 L 9.480469 7.628906 L 9.480469 5.207031 L 10.4375 7.628906 Z M 17.28125 5.941406 L 17.28125 3.683594 C 17.28125 3.480469 17.234375 3.273438 17.136719 3.074219 C 17.050781 2.871094 16.917969 2.6875 16.761719 2.515625 C 16.597656 2.359375 16.414062 2.230469 16.207031 2.140625 C 16.003906 2.042969 15.796875 1.996094 15.59375 1.996094 C 15.386719 1.996094 15.183594 2.042969 14.976562 2.140625 C 14.777344 2.234375 14.59375 2.359375 14.4375 2.515625 C 14.265625 2.6875 14.136719 2.871094 14.042969 3.074219 C 13.953125 3.273438 13.902344 3.480469 13.902344 3.683594 L 13.902344 5.941406 C 13.902344 6.144531 13.953125 6.351562 14.042969 6.550781 C 14.136719 6.753906 14.265625 6.9375 14.4375 7.101562 C 14.59375 7.265625 14.777344 7.394531 14.976562 7.484375 C 15.183594 7.582031 15.386719 7.628906 15.59375 7.628906 C 15.796875 7.628906 16.003906 7.582031 16.207031 7.484375 C 16.40625 7.390625 16.589844 7.261719 16.761719 7.101562 C 16.925781 6.9375 17.050781 6.753906 17.136719 6.550781 C 17.234375 6.351562 17.28125 6.144531 17.28125 5.941406 Z M 16.269531 5.941406 C 16.269531 6.023438 16.25 6.105469 16.214844 6.179688 C 16.175781 6.269531 16.125 6.335938 16.066406 6.40625 C 15.996094 6.464844 15.921875 6.519531 15.847656 6.554688 C 15.757812 6.589844 15.675781 6.609375 15.59375 6.617188 C 15.511719 6.617188 15.429688 6.597656 15.355469 6.554688 C 15.269531 6.519531 15.195312 6.464844 15.136719 6.40625 C 15.066406 6.335938 15.011719 6.269531 14.972656 6.179688 C 14.9375 6.105469 14.917969 6.023438 14.917969 5.941406 L 14.917969 3.683594 C 14.917969 3.601562 14.9375 3.519531 14.972656 3.4375 C 15.011719 3.355469 15.066406 3.28125 15.136719 3.21875 C 15.195312 3.160156 15.269531 3.105469 15.355469 3.070312 C 15.433594 3.035156 15.519531 3.015625 15.59375 3.007812 C 15.683594 3.007812 15.761719 3.027344 15.847656 3.070312 C 15.921875 3.105469 15.996094 3.160156 16.066406 3.21875 C 16.125 3.28125 16.175781 3.355469 16.214844 3.4375 C 16.25 3.519531 16.269531 3.601562 16.269531 3.683594 Z M 19.898438 3.007812 C 19.988281 3.007812 20.070312 3.027344 20.152344 3.070312 C 20.226562 3.105469 20.300781 3.160156 20.371094 3.21875 C 20.433594 3.28125 20.480469 3.355469 20.519531 3.4375 C 20.554688 3.519531 20.574219 3.601562 20.574219 3.683594 L 20.574219 5.941406 C 20.574219 6.023438 20.554688 6.105469 20.519531 6.179688 C 20.480469 6.269531 20.433594 6.335938 20.371094 6.40625 C 20.300781 6.464844 20.226562 6.519531 20.152344 6.554688 C 20.0625 6.589844 19.980469 6.609375 19.898438 6.617188 L 19.222656 6.617188 L 19.222656 3.007812 Z M 19.898438 1.996094 L 18.210938 1.996094 L 18.210938 7.628906 L 19.898438 7.628906 C 20.105469 7.628906 20.308594 7.582031 20.515625 7.484375 C 20.714844 7.390625 20.898438 7.261719 21.066406 7.101562 C 21.230469 6.9375 21.355469 6.753906 21.449219 6.550781 C 21.546875 6.351562 21.589844 6.144531 21.589844 5.941406 L 21.589844 3.683594 C 21.589844 3.480469 21.546875 3.273438 21.449219 3.074219 C 21.355469 2.871094 21.226562 2.6875 21.066406 2.515625 C 20.902344 2.359375 20.71875 2.230469 20.515625 2.140625 C 20.308594 2.042969 20.105469 1.996094 19.898438 1.996094 Z M 23.535156 4.292969 L 23.535156 3.007812 L 25.902344 3.007812 L 25.902344 1.996094 L 22.519531 1.996094 L 22.519531 7.628906 L 25.902344 7.628906 L 25.902344 6.617188 L 23.535156 6.617188 L 23.535156 5.304688 L 24.546875 5.304688 L 24.546875 4.292969 Z M 23.535156 4.292969 "/>
</svg>
