<?xml version="1.0" encoding="UTF-8"?>
<svg xmlns="http://www.w3.org/2000/svg" xmlns:xlink="http://www.w3.org/1999/xlink" width="16" height="16" viewBox="0 0 16 16">
<rect x="-1.6" y="-1.6" width="19.2" height="19.2" fill="rgb(0%, 0%, 0%)" fill-opacity="1"/>
<path fill="none" stroke-width="3.93508" stroke-linecap="butt" stroke-linejoin="miter" stroke="rgb(100%, 100%, 100%)" stroke-opacity="1" stroke-miterlimit="4" d="M 2.96875 2.96875 L 61.03125 2.96875 L 61.03125 61.03125 L 2.96875 61.03125 Z M 2.96875 2.96875 " transform="matrix(0.25, 0, 0, 0.25, 0, 0)"/>
<path fill-rule="nonzero" fill="rgb(100%, 100%, 100%)" fill-opacity="1" d="M 3.015625 5.519531 C 2.640625 5.585938 1.542969 7.605469 1.785156 7.605469 L 14.214844 7.605469 C 14.472656 7.605469 13.207031 5.304688 12.921875 5.535156 C 11.625 6.570312 9.8125 6.828125 8 6.828125 C 6.1875 6.828125 4.375 6.570312 3.078125 5.535156 C 3.0625 5.519531 3.039062 5.515625 3.015625 5.519531 M 3.015625 10.480469 C 2.640625 10.414062 1.542969 8.394531 1.785156 8.394531 L 14.214844 8.394531 C 14.472656 8.394531 13.207031 10.695312 12.921875 10.464844 C 11.625 9.429688 9.8125 9.171875 8 9.171875 C 6.1875 9.171875 4.375 9.429688 3.078125 10.464844 C 3.0625 10.480469 3.039062 10.484375 3.015625 10.480469 "/>
</svg>
