<?xml version="1.0" encoding="UTF-8"?>
<svg xmlns="http://www.w3.org/2000/svg" xmlns:xlink="http://www.w3.org/1999/xlink" width="9.342282" height="24" viewBox="0 0 9.342282 24">
<path fill-rule="nonzero" fill="rgb(0%, 0%, 0%)" fill-opacity="1" d="M 4.671875 0 C 7.25 0 9.34375 2.089844 9.34375 4.671875 L 9.34375 19.328125 C 9.34375 21.910156 7.25 24 4.671875 24 C 2.089844 24 0 21.910156 0 19.328125 L 0 4.671875 C 0 2.089844 2.089844 0 4.671875 0 Z M 4.671875 0 "/>
<path fill-rule="nonzero" fill="rgb(0%, 0%, 0%)" fill-opacity="1" d="M 0 14.65625 L 9.34375 14.65625 L 9.34375 24 L 0 24 Z M 0 14.65625 "/>
<path fill-rule="nonzero" fill="rgb(100%, 100%, 100%)" fill-opacity="1" d="M 4.671875 0.242188 C 7.117188 0.242188 9.101562 2.226562 9.101562 4.671875 L 9.101562 18.84375 C 9.101562 21.292969 7.117188 23.273438 4.671875 23.273438 C 2.226562 23.273438 0.242188 21.292969 0.242188 18.84375 L 0.242188 4.671875 C 0.242188 2.226562 2.226562 0.242188 4.671875 0.242188 Z M 4.671875 0.242188 "/>
<path fill-rule="nonzero" fill="rgb(0%, 0%, 0%)" fill-opacity="1" d="M 4.664062 0.714844 C 6.84375 0.714844 8.609375 2.484375 8.609375 4.664062 L 8.609375 18.835938 C 8.609375 21.015625 6.84375 22.785156 4.664062 22.785156 C 2.484375 22.785156 0.714844 21.015625 0.714844 18.835938 L 0.714844 4.664062 C 0.714844 2.484375 2.484375 0.714844 4.664062 0.714844 Z M 4.664062 0.714844 "/>
<path fill-rule="nonzero" fill="rgb(25.098039%, 25.098039%, 25.098039%)" fill-opacity="1" d="M 6.046875 11.75 C 6.046875 12.507812 5.433594 13.121094 4.679688 13.121094 C 3.921875 13.121094 3.308594 12.507812 3.308594 11.75 C 3.308594 10.996094 3.921875 10.382812 4.679688 10.382812 C 5.433594 10.382812 6.046875 10.996094 6.046875 11.75 Z M 6.046875 11.75 "/>
<path fill-rule="nonzero" fill="rgb(100%, 0%, 0%)" fill-opacity="1" d="M 6.046875 15.292969 C 6.046875 16.050781 5.433594 16.664062 4.679688 16.664062 C 3.921875 16.664062 3.308594 16.050781 3.308594 15.292969 C 3.308594 14.539062 3.921875 13.925781 4.679688 13.925781 C 5.433594 13.925781 6.046875 14.539062 6.046875 15.292969 Z M 6.046875 15.292969 "/>
<path fill-rule="nonzero" fill="rgb(25.098039%, 25.098039%, 25.098039%)" fill-opacity="1" d="M 6.046875 18.835938 C 6.046875 19.59375 5.433594 20.207031 4.679688 20.207031 C 3.921875 20.207031 3.308594 19.59375 3.308594 18.835938 C 3.308594 18.082031 3.921875 17.46875 4.679688 17.46875 C 5.433594 17.46875 6.046875 18.082031 6.046875 18.835938 Z M 6.046875 18.835938 "/>
<path fill-rule="nonzero" fill="rgb(25.098039%, 25.098039%, 25.098039%)" fill-opacity="1" d="M 6.046875 8.207031 C 6.046875 8.960938 5.433594 9.574219 4.679688 9.574219 C 3.921875 9.574219 3.308594 8.960938 3.308594 8.207031 C 3.308594 7.449219 3.921875 6.835938 4.679688 6.835938 C 5.433594 6.835938 6.046875 7.449219 6.046875 8.207031 Z M 6.046875 8.207031 "/>
<path fill-rule="nonzero" fill="rgb(100%, 0%, 0%)" fill-opacity="1" d="M 6.046875 4.664062 C 6.046875 5.417969 5.433594 6.03125 4.679688 6.03125 C 3.921875 6.03125 3.308594 5.417969 3.308594 4.664062 C 3.308594 3.90625 3.921875 3.292969 4.679688 3.292969 C 5.433594 3.292969 6.046875 3.90625 6.046875 4.664062 Z M 6.046875 4.664062 "/>
</svg>
