<?xml version="1.0" encoding="UTF-8"?>
<svg xmlns="http://www.w3.org/2000/svg" xmlns:xlink="http://www.w3.org/1999/xlink" width="11.047619" height="20" viewBox="0 0 11.047619 20">
<path fill-rule="nonzero" fill="rgb(0%, 0%, 0%)" fill-opacity="1" d="M 5.523438 0 C 8.574219 0 11.046875 2.472656 11.046875 5.523438 L 11.046875 14.476562 C 11.046875 17.527344 8.574219 20 5.523438 20 C 2.472656 20 0 17.527344 0 14.476562 L 0 5.523438 C 0 2.472656 2.472656 0 5.523438 0 Z M 5.523438 0 "/>
<path fill-rule="nonzero" fill="rgb(0%, 0%, 0%)" fill-opacity="1" d="M 0 8.953125 L 11.046875 8.953125 L 11.046875 20 L 0 20 Z M 0 8.953125 "/>
<path fill-rule="nonzero" fill="rgb(100%, 100%, 100%)" fill-opacity="1" d="M 5.523438 0.285156 C 8.417969 0.285156 10.761719 2.632812 10.761719 5.523438 L 10.761719 13.90625 C 10.761719 16.796875 8.417969 19.144531 5.523438 19.144531 C 2.632812 19.144531 0.285156 16.796875 0.285156 13.90625 L 0.285156 5.523438 C 0.285156 2.632812 2.632812 0.285156 5.523438 0.285156 Z M 5.523438 0.285156 "/>
<path fill-rule="nonzero" fill="rgb(0%, 0%, 0%)" fill-opacity="1" d="M 5.515625 0.847656 C 8.089844 0.847656 10.179688 2.9375 10.179688 5.515625 L 10.179688 13.894531 C 10.179688 16.472656 8.089844 18.5625 5.515625 18.5625 C 2.9375 18.5625 0.847656 16.472656 0.847656 13.894531 L 0.847656 5.515625 C 0.847656 2.9375 2.9375 0.847656 5.515625 0.847656 Z M 5.515625 0.847656 "/>
<path fill-rule="nonzero" fill="rgb(100%, 100%, 100%)" fill-opacity="1" d="M 7.152344 5.515625 C 7.152344 6.410156 6.425781 7.132812 5.535156 7.132812 C 4.640625 7.132812 3.914062 6.410156 3.914062 5.515625 C 3.914062 4.621094 4.640625 3.894531 5.535156 3.894531 C 6.425781 3.894531 7.152344 4.621094 7.152344 5.515625 Z M 7.152344 5.515625 "/>
<path fill-rule="nonzero" fill="rgb(100%, 0%, 0%)" fill-opacity="1" d="M 7.152344 9.703125 C 7.152344 10.597656 6.425781 11.324219 5.535156 11.324219 C 4.640625 11.324219 3.914062 10.597656 3.914062 9.703125 C 3.914062 8.8125 4.640625 8.085938 5.535156 8.085938 C 6.425781 8.085938 7.152344 8.8125 7.152344 9.703125 Z M 7.152344 9.703125 "/>
<path fill-rule="nonzero" fill="rgb(25.098039%, 25.098039%, 25.098039%)" fill-opacity="1" d="M 7.152344 13.894531 C 7.152344 14.789062 6.425781 15.515625 5.535156 15.515625 C 4.640625 15.515625 3.914062 14.789062 3.914062 13.894531 C 3.914062 13 4.640625 12.277344 5.535156 12.277344 C 6.425781 12.277344 7.152344 13 7.152344 13.894531 Z M 7.152344 13.894531 "/>
<path fill-rule="nonzero" fill="rgb(25.098039%, 25.098039%, 25.098039%)" fill-opacity="1" d="M 4.304688 8.046875 L 6.761719 8.046875 C 7 8.046875 7.191406 8.238281 7.191406 8.472656 L 7.191406 10.933594 C 7.191406 11.171875 7 11.363281 6.761719 11.363281 L 4.304688 11.363281 C 4.066406 11.363281 3.875 11.171875 3.875 10.933594 L 3.875 8.472656 C 3.875 8.238281 4.066406 8.046875 4.304688 8.046875 Z M 4.304688 8.046875 "/>
</svg>
