<?xml version="1.0" encoding="UTF-8"?>
<svg xmlns="http://www.w3.org/2000/svg" xmlns:xlink="http://www.w3.org/1999/xlink" width="21.528663" height="28" viewBox="0 0 21.528663 28">
<path fill-rule="nonzero" fill="rgb(0%, 0%, 0%)" fill-opacity="1" d="M 1.898438 23.839844 L 5.375 23.839844 C 5.449219 23.839844 5.507812 23.902344 5.507812 23.976562 L 5.507812 27.453125 C 5.507812 27.527344 5.449219 27.585938 5.375 27.585938 L 1.898438 27.585938 C 1.824219 27.585938 1.765625 27.527344 1.765625 27.453125 L 1.765625 23.976562 C 1.765625 23.902344 1.824219 23.839844 1.898438 23.839844 Z M 1.898438 23.839844 "/>
<path fill-rule="nonzero" fill="rgb(100%, 100%, 99.607843%)" fill-opacity="1" d="M 4.4375 25.714844 C 4.4375 26.15625 4.078125 26.515625 3.636719 26.515625 C 3.191406 26.515625 2.832031 26.15625 2.832031 25.714844 C 2.832031 25.269531 3.191406 24.910156 3.636719 24.910156 C 4.078125 24.910156 4.4375 25.269531 4.4375 25.714844 Z M 4.4375 25.714844 "/>
<path fill-rule="nonzero" fill="rgb(0%, 0%, 0%)" fill-opacity="1" d="M 9.628906 4.011719 C 11.769531 4.011719 13.503906 5.746094 13.503906 7.890625 L 13.503906 23 C 13.503906 25.140625 11.769531 26.878906 9.628906 26.878906 C 7.484375 26.878906 5.75 25.140625 5.75 23 L 5.75 7.890625 C 5.75 5.746094 7.484375 4.011719 9.628906 4.011719 Z M 9.628906 4.011719 "/>
<path fill-rule="nonzero" fill="rgb(0%, 0%, 0%)" fill-opacity="1" d="M 9.628906 4.011719 L 17.652344 4.011719 C 19.792969 4.011719 21.527344 5.746094 21.527344 7.890625 L 21.527344 11.902344 C 21.527344 14.042969 19.792969 15.777344 17.652344 15.777344 L 9.628906 15.777344 C 7.484375 15.777344 5.75 14.042969 5.75 11.902344 L 5.75 7.890625 C 5.75 5.746094 7.484375 4.011719 9.628906 4.011719 Z M 9.628906 4.011719 "/>
<path fill-rule="nonzero" fill="rgb(0%, 0%, 0%)" fill-opacity="1" d="M 17.652344 0 C 19.792969 0 21.527344 1.734375 21.527344 3.878906 L 21.527344 11.902344 C 21.527344 14.042969 19.792969 15.777344 17.652344 15.777344 C 15.507812 15.777344 13.773438 14.042969 13.773438 11.902344 L 13.773438 3.878906 C 13.773438 1.734375 15.507812 0 17.652344 0 Z M 17.652344 0 "/>
<path fill-rule="nonzero" fill="rgb(100%, 100%, 100%)" fill-opacity="1" d="M 9.628906 4.210938 L 17.652344 4.210938 C 19.683594 4.210938 21.328125 5.859375 21.328125 7.890625 L 21.328125 11.902344 C 21.328125 13.933594 19.683594 15.578125 17.652344 15.578125 L 9.628906 15.578125 C 7.597656 15.578125 5.949219 13.933594 5.949219 11.902344 L 5.949219 7.890625 C 5.949219 5.859375 7.597656 4.210938 9.628906 4.210938 Z M 9.628906 4.210938 "/>
<path fill-rule="nonzero" fill="rgb(100%, 100%, 100%)" fill-opacity="1" d="M 17.652344 0.199219 C 19.683594 0.199219 21.328125 1.847656 21.328125 3.878906 L 21.328125 11.902344 C 21.328125 13.933594 19.683594 15.578125 17.652344 15.578125 C 15.621094 15.578125 13.972656 13.933594 13.972656 11.902344 L 13.972656 3.878906 C 13.972656 1.847656 15.621094 0.199219 17.652344 0.199219 Z M 17.652344 0.199219 "/>
<path fill-rule="nonzero" fill="rgb(0%, 0%, 0%)" fill-opacity="1" d="M 17.652344 0.601562 C 19.460938 0.601562 20.925781 2.070312 20.925781 3.878906 L 20.925781 11.902344 C 20.925781 13.710938 19.460938 15.175781 17.652344 15.175781 C 15.839844 15.175781 14.375 13.710938 14.375 11.902344 L 14.375 3.878906 C 14.375 2.070312 15.839844 0.601562 17.652344 0.601562 Z M 17.652344 0.601562 "/>
<path fill-rule="nonzero" fill="rgb(0%, 0%, 0%)" fill-opacity="1" d="M 5.75 19.121094 L 13.503906 19.121094 L 13.503906 26.878906 L 5.75 26.878906 Z M 5.75 19.121094 "/>
<path fill-rule="nonzero" fill="rgb(100%, 100%, 100%)" fill-opacity="1" d="M 9.628906 4.210938 C 11.660156 4.210938 13.304688 5.859375 13.304688 7.890625 L 13.304688 22.597656 C 13.304688 24.628906 11.660156 26.277344 9.628906 26.277344 C 7.597656 26.277344 5.949219 24.628906 5.949219 22.597656 L 5.949219 7.890625 C 5.949219 5.859375 7.597656 4.210938 9.628906 4.210938 Z M 9.628906 4.210938 "/>
<path fill-rule="nonzero" fill="rgb(0%, 0%, 0%)" fill-opacity="1" d="M 9.628906 4.613281 L 17.652344 4.613281 C 19.460938 4.613281 20.925781 6.078125 20.925781 7.890625 L 20.925781 11.902344 C 20.925781 13.710938 19.460938 15.175781 17.652344 15.175781 L 9.628906 15.175781 C 7.820312 15.175781 6.351562 13.710938 6.351562 11.902344 L 6.351562 7.890625 C 6.351562 6.078125 7.820312 4.613281 9.628906 4.613281 Z M 9.628906 4.613281 "/>
<path fill-rule="nonzero" fill="rgb(0%, 0%, 0%)" fill-opacity="1" d="M 9.621094 4.605469 C 11.429688 4.605469 12.898438 6.074219 12.898438 7.882812 L 12.898438 22.589844 C 12.898438 24.402344 11.429688 25.867188 9.621094 25.867188 C 7.8125 25.867188 6.34375 24.402344 6.34375 22.589844 L 6.34375 7.882812 C 6.34375 6.074219 7.8125 4.605469 9.621094 4.605469 Z M 9.621094 4.605469 "/>
<path fill-rule="nonzero" fill="rgb(25.098039%, 25.098039%, 25.098039%)" fill-opacity="1" d="M 10.769531 16.707031 C 10.769531 17.335938 10.261719 17.84375 9.632812 17.84375 C 9.007812 17.84375 8.496094 17.335938 8.496094 16.707031 C 8.496094 16.082031 9.007812 15.570312 9.632812 15.570312 C 10.261719 15.570312 10.769531 16.082031 10.769531 16.707031 Z M 10.769531 16.707031 "/>
<path fill-rule="nonzero" fill="rgb(25.098039%, 25.098039%, 25.098039%)" fill-opacity="1" d="M 10.769531 19.648438 C 10.769531 20.277344 10.261719 20.785156 9.632812 20.785156 C 9.007812 20.785156 8.496094 20.277344 8.496094 19.648438 C 8.496094 19.023438 9.007812 18.511719 9.632812 18.511719 C 10.261719 18.511719 10.769531 19.023438 10.769531 19.648438 Z M 10.769531 19.648438 "/>
<path fill-rule="nonzero" fill="rgb(100%, 100%, 0%)" fill-opacity="1" d="M 10.769531 22.589844 C 10.769531 23.21875 10.261719 23.726562 9.632812 23.726562 C 9.007812 23.726562 8.496094 23.21875 8.496094 22.589844 C 8.496094 21.964844 9.007812 21.457031 9.632812 21.457031 C 10.261719 21.457031 10.769531 21.964844 10.769531 22.589844 Z M 10.769531 22.589844 "/>
<path fill-rule="nonzero" fill="rgb(25.098039%, 25.098039%, 25.098039%)" fill-opacity="1" d="M 10.769531 13.765625 C 10.769531 14.394531 10.261719 14.902344 9.632812 14.902344 C 9.007812 14.902344 8.496094 14.394531 8.496094 13.765625 C 8.496094 13.136719 9.007812 12.628906 9.632812 12.628906 C 10.261719 12.628906 10.769531 13.136719 10.769531 13.765625 Z M 10.769531 13.765625 "/>
<path fill-rule="nonzero" fill="rgb(25.098039%, 25.098039%, 25.098039%)" fill-opacity="1" d="M 10.769531 10.824219 C 10.769531 11.453125 10.261719 11.960938 9.632812 11.960938 C 9.007812 11.960938 8.496094 11.453125 8.496094 10.824219 C 8.496094 10.195312 9.007812 9.6875 9.632812 9.6875 C 10.261719 9.6875 10.769531 10.195312 10.769531 10.824219 Z M 10.769531 10.824219 "/>
<path fill-rule="nonzero" fill="rgb(25.098039%, 25.098039%, 25.098039%)" fill-opacity="1" d="M 10.769531 7.882812 C 10.769531 8.511719 10.261719 9.019531 9.632812 9.019531 C 9.007812 9.019531 8.496094 8.511719 8.496094 7.882812 C 8.496094 7.253906 9.007812 6.746094 9.632812 6.746094 C 10.261719 6.746094 10.769531 7.253906 10.769531 7.882812 Z M 10.769531 7.882812 "/>
<path fill-rule="nonzero" fill="rgb(100%, 100%, 0%)" fill-opacity="1" d="M 18.792969 3.871094 C 18.792969 4.5 18.285156 5.007812 17.65625 5.007812 C 17.03125 5.007812 16.519531 4.5 16.519531 3.871094 C 16.519531 3.242188 17.03125 2.734375 17.65625 2.734375 C 18.285156 2.734375 18.792969 3.242188 18.792969 3.871094 Z M 18.792969 3.871094 "/>
<path fill-rule="nonzero" fill="rgb(25.098039%, 25.098039%, 25.098039%)" fill-opacity="1" d="M 18.792969 7.882812 C 18.792969 8.511719 18.285156 9.019531 17.65625 9.019531 C 17.03125 9.019531 16.519531 8.511719 16.519531 7.882812 C 16.519531 7.253906 17.03125 6.746094 17.65625 6.746094 C 18.285156 6.746094 18.792969 7.253906 18.792969 7.882812 Z M 18.792969 7.882812 "/>
<path fill-rule="nonzero" fill="rgb(100%, 100%, 0%)" fill-opacity="1" d="M 18.792969 11.894531 C 18.792969 12.523438 18.285156 13.03125 17.65625 13.03125 C 17.03125 13.03125 16.519531 12.523438 16.519531 11.894531 C 16.519531 11.265625 17.03125 10.757812 17.65625 10.757812 C 18.285156 10.757812 18.792969 11.265625 18.792969 11.894531 Z M 18.792969 11.894531 "/>
</svg>
