<?xml version="1.0" encoding="UTF-8"?>
<svg xmlns="http://www.w3.org/2000/svg" xmlns:xlink="http://www.w3.org/1999/xlink" width="20.142842" height="28" viewBox="0 0 20.142842 28">
<path fill-rule="nonzero" fill="rgb(0%, 0%, 0%)" fill-opacity="1" d="M 0.136719 24.199219 L 3.664062 24.199219 C 3.738281 24.199219 3.800781 24.261719 3.800781 24.335938 L 3.800781 27.863281 C 3.800781 27.9375 3.738281 28 3.664062 28 L 0.136719 28 C 0.0625 28 0 27.9375 0 27.863281 L 0 24.335938 C 0 24.261719 0.0625 24.199219 0.136719 24.199219 Z M 0.136719 24.199219 "/>
<path fill-rule="nonzero" fill="rgb(100%, 100%, 99.607843%)" fill-opacity="1" d="M 2.714844 26.101562 C 2.714844 26.550781 2.351562 26.914062 1.898438 26.914062 C 1.449219 26.914062 1.085938 26.550781 1.085938 26.101562 C 1.085938 25.648438 1.449219 25.285156 1.898438 25.285156 C 2.351562 25.285156 2.714844 25.648438 2.714844 26.101562 Z M 2.714844 26.101562 "/>
<path fill-rule="nonzero" fill="rgb(0%, 0%, 0%)" fill-opacity="1" d="M 8.0625 4.070312 C 10.238281 4.070312 12 5.835938 12 8.007812 L 12 23.34375 C 12 25.519531 10.238281 27.28125 8.0625 27.28125 C 5.890625 27.28125 4.128906 25.519531 4.128906 23.34375 L 4.128906 8.007812 C 4.128906 5.835938 5.890625 4.070312 8.0625 4.070312 Z M 8.0625 4.070312 "/>
<path fill-rule="nonzero" fill="rgb(0%, 0%, 0%)" fill-opacity="1" d="M 8.0625 4.070312 L 16.207031 4.070312 C 18.378906 4.070312 20.144531 5.835938 20.144531 8.007812 L 20.144531 12.078125 C 20.144531 14.253906 18.378906 16.015625 16.207031 16.015625 L 8.0625 16.015625 C 5.890625 16.015625 4.128906 14.253906 4.128906 12.078125 L 4.128906 8.007812 C 4.128906 5.835938 5.890625 4.070312 8.0625 4.070312 Z M 8.0625 4.070312 "/>
<path fill-rule="nonzero" fill="rgb(0%, 0%, 0%)" fill-opacity="1" d="M 16.207031 0 C 18.378906 0 20.144531 1.761719 20.144531 3.9375 L 20.144531 12.078125 C 20.144531 14.253906 18.378906 16.015625 16.207031 16.015625 C 14.03125 16.015625 12.269531 14.253906 12.269531 12.078125 L 12.269531 3.9375 C 12.269531 1.761719 14.03125 0 16.207031 0 Z M 16.207031 0 "/>
<path fill-rule="nonzero" fill="rgb(100%, 100%, 100%)" fill-opacity="1" d="M 8.0625 4.277344 L 16.207031 4.277344 C 18.269531 4.277344 19.9375 5.945312 19.9375 8.007812 L 19.9375 12.078125 C 19.9375 14.140625 18.269531 15.8125 16.207031 15.8125 L 8.0625 15.8125 C 6 15.8125 4.332031 14.140625 4.332031 12.078125 L 4.332031 8.007812 C 4.332031 5.945312 6 4.277344 8.0625 4.277344 Z M 8.0625 4.277344 "/>
<path fill-rule="nonzero" fill="rgb(100%, 100%, 100%)" fill-opacity="1" d="M 16.207031 0.203125 C 18.269531 0.203125 19.9375 1.875 19.9375 3.9375 L 19.9375 12.078125 C 19.9375 14.140625 18.269531 15.8125 16.207031 15.8125 C 14.144531 15.8125 12.472656 14.140625 12.472656 12.078125 L 12.472656 3.9375 C 12.472656 1.875 14.144531 0.203125 16.207031 0.203125 Z M 16.207031 0.203125 "/>
<path fill-rule="nonzero" fill="rgb(0%, 0%, 0%)" fill-opacity="1" d="M 16.207031 0.609375 C 18.042969 0.609375 19.53125 2.097656 19.53125 3.9375 L 19.53125 12.078125 C 19.53125 13.917969 18.042969 15.40625 16.207031 15.40625 C 14.371094 15.40625 12.882812 13.917969 12.882812 12.078125 L 12.882812 3.9375 C 12.882812 2.097656 14.371094 0.609375 16.207031 0.609375 Z M 16.207031 0.609375 "/>
<path fill-rule="nonzero" fill="rgb(0%, 0%, 0%)" fill-opacity="1" d="M 4.128906 19.410156 L 12 19.410156 L 12 27.28125 L 4.128906 27.28125 Z M 4.128906 19.410156 "/>
<path fill-rule="nonzero" fill="rgb(100%, 100%, 100%)" fill-opacity="1" d="M 8.0625 4.277344 C 10.125 4.277344 11.796875 5.945312 11.796875 8.007812 L 11.796875 22.9375 C 11.796875 25 10.125 26.671875 8.0625 26.671875 C 6 26.671875 4.332031 25 4.332031 22.9375 L 4.332031 8.007812 C 4.332031 5.945312 6 4.277344 8.0625 4.277344 Z M 8.0625 4.277344 "/>
<path fill-rule="nonzero" fill="rgb(0%, 0%, 0%)" fill-opacity="1" d="M 8.0625 4.683594 L 16.207031 4.683594 C 18.042969 4.683594 19.53125 6.171875 19.53125 8.007812 L 19.53125 12.078125 C 19.53125 13.917969 18.042969 15.40625 16.207031 15.40625 L 8.0625 15.40625 C 6.226562 15.40625 4.738281 13.917969 4.738281 12.078125 L 4.738281 8.007812 C 4.738281 6.171875 6.226562 4.683594 8.0625 4.683594 Z M 8.0625 4.683594 "/>
<path fill-rule="nonzero" fill="rgb(0%, 0%, 0%)" fill-opacity="1" d="M 8.054688 4.675781 C 9.894531 4.675781 11.382812 6.164062 11.382812 8 L 11.382812 22.929688 C 11.382812 24.769531 9.894531 26.257812 8.054688 26.257812 C 6.21875 26.257812 4.730469 24.769531 4.730469 22.929688 L 4.730469 8 C 4.730469 6.164062 6.21875 4.675781 8.054688 4.675781 Z M 8.054688 4.675781 "/>
<path fill-rule="nonzero" fill="rgb(25.098039%, 25.098039%, 25.098039%)" fill-opacity="1" d="M 9.222656 16.960938 C 9.222656 17.597656 8.707031 18.113281 8.070312 18.113281 C 7.433594 18.113281 6.917969 17.597656 6.917969 16.960938 C 6.917969 16.320312 7.433594 15.804688 8.070312 15.804688 C 8.707031 15.804688 9.222656 16.320312 9.222656 16.960938 Z M 9.222656 16.960938 "/>
<path fill-rule="nonzero" fill="rgb(25.098039%, 25.098039%, 25.098039%)" fill-opacity="1" d="M 9.222656 19.945312 C 9.222656 20.582031 8.707031 21.097656 8.070312 21.097656 C 7.433594 21.097656 6.917969 20.582031 6.917969 19.945312 C 6.917969 19.308594 7.433594 18.792969 8.070312 18.792969 C 8.707031 18.792969 9.222656 19.308594 9.222656 19.945312 Z M 9.222656 19.945312 "/>
<path fill-rule="nonzero" fill="rgb(25.098039%, 25.098039%, 25.098039%)" fill-opacity="1" d="M 9.222656 22.929688 C 9.222656 23.570312 8.707031 24.085938 8.070312 24.085938 C 7.433594 24.085938 6.917969 23.570312 6.917969 22.929688 C 6.917969 22.292969 7.433594 21.777344 8.070312 21.777344 C 8.707031 21.777344 9.222656 22.292969 9.222656 22.929688 Z M 9.222656 22.929688 "/>
<path fill-rule="nonzero" fill="rgb(25.098039%, 25.098039%, 25.098039%)" fill-opacity="1" d="M 9.222656 13.972656 C 9.222656 14.609375 8.707031 15.125 8.070312 15.125 C 7.433594 15.125 6.917969 14.609375 6.917969 13.972656 C 6.917969 13.335938 7.433594 12.820312 8.070312 12.820312 C 8.707031 12.820312 9.222656 13.335938 9.222656 13.972656 Z M 9.222656 13.972656 "/>
<path fill-rule="nonzero" fill="rgb(25.098039%, 25.098039%, 25.098039%)" fill-opacity="1" d="M 9.222656 10.988281 C 9.222656 11.625 8.707031 12.140625 8.070312 12.140625 C 7.433594 12.140625 6.917969 11.625 6.917969 10.988281 C 6.917969 10.351562 7.433594 9.832031 8.070312 9.832031 C 8.707031 9.832031 9.222656 10.351562 9.222656 10.988281 Z M 9.222656 10.988281 "/>
<path fill-rule="nonzero" fill="rgb(25.098039%, 25.098039%, 25.098039%)" fill-opacity="1" d="M 9.222656 8 C 9.222656 8.636719 8.707031 9.15625 8.070312 9.15625 C 7.433594 9.15625 6.917969 8.636719 6.917969 8 C 6.917969 7.363281 7.433594 6.847656 8.070312 6.847656 C 8.707031 6.847656 9.222656 7.363281 9.222656 8 Z M 9.222656 8 "/>
<path fill-rule="nonzero" fill="rgb(100%, 100%, 0%)" fill-opacity="1" d="M 17.367188 3.929688 C 17.367188 4.566406 16.851562 5.082031 16.214844 5.082031 C 15.578125 5.082031 15.058594 4.566406 15.058594 3.929688 C 15.058594 3.292969 15.578125 2.777344 16.214844 2.777344 C 16.851562 2.777344 17.367188 3.292969 17.367188 3.929688 Z M 17.367188 3.929688 "/>
<path fill-rule="nonzero" fill="rgb(25.098039%, 25.098039%, 25.098039%)" fill-opacity="1" d="M 17.367188 8 C 17.367188 8.636719 16.851562 9.15625 16.214844 9.15625 C 15.578125 9.15625 15.058594 8.636719 15.058594 8 C 15.058594 7.363281 15.578125 6.847656 16.214844 6.847656 C 16.851562 6.847656 17.367188 7.363281 17.367188 8 Z M 17.367188 8 "/>
<path fill-rule="nonzero" fill="rgb(100%, 100%, 0%)" fill-opacity="1" d="M 17.367188 12.074219 C 17.367188 12.710938 16.851562 13.226562 16.214844 13.226562 C 15.578125 13.226562 15.058594 12.710938 15.058594 12.074219 C 15.058594 11.4375 15.578125 10.917969 16.214844 10.917969 C 16.851562 10.917969 17.367188 11.4375 17.367188 12.074219 Z M 17.367188 12.074219 "/>
</svg>
