<?xml version="1.0" encoding="UTF-8"?>
<svg xmlns="http://www.w3.org/2000/svg" xmlns:xlink="http://www.w3.org/1999/xlink" width="16" height="16" viewBox="0 0 16 16">
<path fill-rule="nonzero" fill="rgb(66.666667%, 0%, 66.666667%)" fill-opacity="1" stroke-width="0.5" stroke-linecap="round" stroke-linejoin="round" stroke="rgb(0%, 0%, 0%)" stroke-opacity="1" stroke-miterlimit="4" d="M 128.860435 22.112783 C 128.25749 22.112783 127.654545 22.342854 127.186469 22.81093 L 121.228421 28.768977 C 120.784146 29.213253 120.530274 29.816198 120.530274 30.442943 C 120.530274 31.069688 120.784146 31.672633 121.228421 32.116909 L 127.186469 38.074956 C 127.630744 38.519232 128.233689 38.773103 128.860435 38.773103 C 129.48718 38.773103 130.090125 38.519232 130.5344 38.074956 L 136.492448 32.116909 C 136.508315 32.101042 136.516248 32.085175 136.532115 32.069308 C 136.547982 32.085175 136.555916 32.101042 136.571783 32.116909 L 142.529831 38.074956 C 142.974106 38.519232 143.577051 38.773103 144.203796 38.773103 C 144.830542 38.773103 145.433487 38.519232 145.877762 38.074956 L 151.83581 32.116909 C 152.280085 31.672633 152.533956 31.069688 152.533956 30.442943 C 152.533956 29.816198 152.280085 29.213253 151.83581 28.768977 L 145.877762 22.81093 C 145.433487 22.358721 144.830542 22.112783 144.203796 22.112783 C 143.577051 22.112783 142.974106 22.358721 142.529831 22.81093 L 136.571783 28.768977 C 136.555916 28.784844 136.547982 28.800711 136.532115 28.816578 C 136.516248 28.800711 136.508315 28.784844 136.492448 28.768977 L 130.5344 22.81093 C 130.090125 22.358721 129.48718 22.112783 128.860435 22.112783 " transform="matrix(0.492375, 0, 0, 0.492375, -59.224998, -3.212)"/>
<path fill-rule="nonzero" fill="rgb(100%, 100%, 100%)" fill-opacity="1" d="M 0.351562 11.460938 L 15.601562 11.460938 C 15.671875 11.460938 15.726562 11.519531 15.726562 11.585938 L 15.726562 11.96875 C 15.726562 12.035156 15.671875 12.09375 15.601562 12.09375 L 0.351562 12.09375 C 0.285156 12.09375 0.226562 12.035156 0.226562 11.96875 L 0.226562 11.585938 C 0.226562 11.519531 0.285156 11.460938 0.351562 11.460938 Z M 0.351562 11.460938 "/>
</svg>
