<?xml version="1.0" encoding="UTF-8"?>
<svg xmlns="http://www.w3.org/2000/svg" xmlns:xlink="http://www.w3.org/1999/xlink" width="24" height="12" viewBox="0 0 24 12">
<rect x="-2.4" y="-1.2" width="28.8" height="14.4" fill="rgb(0%, 0%, 0%)" fill-opacity="1"/>
<path fill="none" stroke-width="9.8421" stroke-linecap="butt" stroke-linejoin="miter" stroke="rgb(100%, 100%, 100%)" stroke-opacity="1" stroke-miterlimit="4" d="M 10.5 10.5 L 501.5 10.5 L 501.5 245.5 L 10.5 245.5 Z M 10.5 10.5 " transform="matrix(0.046875, 0, 0, 0.046875, 0, 0)"/>
<path fill-rule="nonzero" fill="rgb(100%, 100%, 100%)" fill-opacity="1" d="M 4.179688 7.203125 L 4.898438 7.203125 C 4.898438 7.289062 4.875 7.375 4.835938 7.460938 C 4.792969 7.546875 4.742188 7.628906 4.675781 7.695312 C 4.605469 7.765625 4.523438 7.816406 4.441406 7.859375 C 4.347656 7.898438 4.257812 7.914062 4.179688 7.921875 C 4.085938 7.921875 4 7.898438 3.921875 7.859375 C 3.828125 7.816406 3.75 7.765625 3.6875 7.695312 C 3.617188 7.628906 3.554688 7.546875 3.515625 7.460938 C 3.476562 7.371094 3.457031 7.289062 3.457031 7.203125 L 3.457031 4.796875 C 3.457031 4.710938 3.476562 4.625 3.515625 4.535156 C 3.550781 4.445312 3.609375 4.371094 3.6875 4.300781 C 3.75 4.234375 3.828125 4.183594 3.921875 4.140625 C 4 4.101562 4.089844 4.085938 4.179688 4.078125 C 4.265625 4.078125 4.351562 4.101562 4.441406 4.140625 C 4.523438 4.183594 4.605469 4.234375 4.675781 4.300781 C 4.742188 4.371094 4.792969 4.445312 4.835938 4.535156 C 4.867188 4.625 4.890625 4.710938 4.898438 4.796875 L 5.976562 4.796875 C 5.976562 4.582031 5.921875 4.367188 5.824219 4.148438 C 5.71875 3.929688 5.585938 3.738281 5.421875 3.554688 C 5.242188 3.386719 5.046875 3.25 4.828125 3.152344 C 4.609375 3.054688 4.394531 3 4.179688 3 C 3.953125 3 3.738281 3.054688 3.523438 3.152344 C 3.304688 3.25 3.109375 3.386719 2.941406 3.554688 C 2.765625 3.734375 2.625 3.929688 2.523438 4.148438 C 2.421875 4.367188 2.375 4.582031 2.378906 4.796875 L 2.378906 7.203125 C 2.378906 7.417969 2.425781 7.632812 2.523438 7.851562 C 2.625 8.070312 2.765625 8.261719 2.941406 8.4375 C 3.109375 8.613281 3.304688 8.75 3.523438 8.847656 C 3.734375 8.945312 3.953125 9 4.179688 9 C 4.394531 9 4.609375 8.945312 4.828125 8.847656 C 5.039062 8.75 5.238281 8.609375 5.421875 8.4375 C 5.589844 8.265625 5.726562 8.070312 5.824219 7.851562 C 5.921875 7.632812 5.976562 7.417969 5.976562 7.203125 L 5.976562 6.117188 L 4.179688 6.117188 Z M 6.960938 9 L 8.046875 9 L 8.046875 3 L 6.960938 3 Z M 10.742188 6.203125 L 10.023438 3 L 8.941406 3 L 10.203125 9 L 11.285156 9 L 12.546875 3 L 11.523438 3 Z M 17.039062 4.792969 C 17.039062 4.578125 16.984375 4.359375 16.886719 4.140625 C 16.78125 3.929688 16.648438 3.738281 16.484375 3.554688 C 16.304688 3.386719 16.109375 3.25 15.890625 3.152344 C 15.671875 3.054688 15.457031 3 15.242188 3 L 13.4375 3 L 13.4375 9 L 14.519531 9 L 14.519531 6.597656 L 15.242188 6.597656 C 15.328125 6.597656 15.414062 6.621094 15.503906 6.664062 C 15.585938 6.703125 15.667969 6.757812 15.738281 6.820312 C 15.804688 6.890625 15.855469 6.96875 15.898438 7.054688 C 15.929688 7.140625 15.953125 7.230469 15.953125 7.320312 L 15.953125 9 L 17.039062 9 L 17.039062 7.320312 C 17.039062 7.113281 17.015625 6.929688 16.96875 6.773438 C 16.914062 6.617188 16.859375 6.492188 16.789062 6.390625 C 16.71875 6.292969 16.652344 6.21875 16.59375 6.171875 C 16.535156 6.128906 16.484375 6.085938 16.441406 6.058594 L 16.453125 6.046875 C 16.5 6 16.554688 5.945312 16.609375 5.882812 C 16.664062 5.820312 16.726562 5.730469 16.796875 5.617188 C 16.859375 5.507812 16.914062 5.382812 16.96875 5.242188 C 17.015625 5.101562 17.039062 4.953125 17.039062 4.792969 Z M 15.242188 5.519531 L 14.519531 5.519531 L 14.519531 4.078125 L 15.242188 4.078125 C 15.328125 4.078125 15.414062 4.101562 15.503906 4.140625 C 15.585938 4.183594 15.667969 4.234375 15.738281 4.300781 C 15.804688 4.371094 15.855469 4.445312 15.898438 4.535156 C 15.929688 4.625 15.953125 4.710938 15.953125 4.796875 C 15.953125 4.886719 15.929688 4.976562 15.898438 5.054688 C 15.855469 5.144531 15.804688 5.226562 15.738281 5.289062 C 15.667969 5.359375 15.585938 5.421875 15.503906 5.460938 C 15.414062 5.5 15.328125 5.519531 15.242188 5.519531 Z M 19.109375 5.445312 L 19.109375 4.078125 L 21.625 4.078125 L 21.625 3 L 18.023438 3 L 18.023438 9 L 21.625 9 L 21.625 7.921875 L 19.109375 7.921875 L 19.109375 6.523438 L 20.1875 6.523438 L 20.1875 5.445312 Z M 19.109375 5.445312 "/>
</svg>
