<?xml version="1.0" encoding="UTF-8"?>
<svg xmlns="http://www.w3.org/2000/svg" xmlns:xlink="http://www.w3.org/1999/xlink" width="16" height="16" viewBox="0 0 16 16">
<path fill-rule="nonzero" fill="rgb(100%, 100%, 100%)" fill-opacity="1" d="M 0.0820312 7.859375 L 8.136719 0.0820312 L 15.917969 8.136719 L 7.863281 15.917969 Z M 0.0820312 7.859375 "/>
<path fill-rule="nonzero" fill="rgb(0%, 65.098039%, 100%)" fill-opacity="1" d="M 8.140625 0.0820312 L 8.527344 0.484375 L 4.5 4.375 L 4.109375 3.972656 Z M 11.5 11.628906 L 11.886719 12.03125 L 7.855469 15.917969 L 7.46875 15.515625 Z M 11.5 11.628906 "/>
<path fill-rule="nonzero" fill="rgb(0%, 65.098039%, 100%)" fill-opacity="1" d="M 3.972656 11.890625 L 4.375 11.5 L 8.265625 15.527344 L 7.863281 15.917969 Z M 7.734375 0.46875 L 8.136719 0.0820312 L 12.027344 4.109375 L 11.625 4.5 Z M 7.734375 0.46875 "/>
<path fill-rule="nonzero" fill="rgb(0%, 65.098039%, 100%)" fill-opacity="1" d="M 8 8 L 11.625 4.5 L 15.125 8.125 L 11.5 11.625 Z M 0.875 7.875 L 4.5 4.375 L 8 8 L 4.375 11.5 Z M 0.875 7.875 "/>
</svg>
