<?xml version="1.0" encoding="UTF-8"?>
<svg xmlns="http://www.w3.org/2000/svg" xmlns:xlink="http://www.w3.org/1999/xlink" width="16" height="16" viewBox="0 0 16 16">
<rect x="-1.6" y="-1.6" width="19.2" height="19.2" fill="rgb(0%, 0%, 0%)" fill-opacity="1"/>
<path fill="none" stroke-width="3.93508" stroke-linecap="butt" stroke-linejoin="miter" stroke="rgb(100%, 100%, 100%)" stroke-opacity="1" stroke-miterlimit="4" d="M 2.96875 2.96875 L 61.03125 2.96875 L 61.03125 61.03125 L 2.96875 61.03125 Z M 2.96875 2.96875 " transform="matrix(0.25, 0, 0, 0.25, 0, 0)"/>
<path fill-rule="nonzero" fill="rgb(100%, 100%, 100%)" fill-opacity="1" d="M 5.40625 6.792969 C 5.40625 6.574219 5.355469 6.355469 5.253906 6.140625 C 5.152344 5.933594 5.019531 5.738281 4.851562 5.558594 C 4.675781 5.382812 4.476562 5.25 4.257812 5.152344 C 4.042969 5.050781 3.828125 5 3.609375 5 L 1.804688 5 L 1.804688 11 L 2.886719 11 L 2.886719 8.597656 L 3.609375 8.597656 C 3.699219 8.597656 3.785156 8.617188 3.871094 8.660156 C 3.957031 8.699219 4.035156 8.753906 4.105469 8.820312 C 4.171875 8.890625 4.226562 8.96875 4.265625 9.054688 C 4.304688 9.144531 4.324219 9.230469 4.324219 9.316406 L 4.324219 11 L 5.40625 11 L 5.40625 9.316406 C 5.40625 9.109375 5.382812 8.929688 5.335938 8.773438 C 5.285156 8.617188 5.226562 8.488281 5.15625 8.390625 C 5.085938 8.289062 5.019531 8.214844 4.960938 8.171875 L 4.808594 8.058594 L 4.820312 8.046875 C 4.867188 8 4.921875 7.945312 4.980469 7.882812 C 5.035156 7.820312 5.097656 7.730469 5.167969 7.621094 C 5.230469 7.507812 5.285156 7.382812 5.335938 7.246094 C 5.382812 7.105469 5.40625 6.953125 5.40625 6.792969 Z M 3.609375 7.519531 L 2.886719 7.519531 L 2.886719 6.078125 L 3.609375 6.078125 C 3.699219 6.078125 3.785156 6.101562 3.871094 6.140625 C 3.957031 6.183594 4.035156 6.234375 4.105469 6.300781 C 4.171875 6.371094 4.226562 6.449219 4.265625 6.535156 C 4.304688 6.625 4.324219 6.714844 4.324219 6.796875 C 4.324219 6.890625 4.304688 6.976562 4.265625 7.058594 C 4.226562 7.148438 4.171875 7.226562 4.105469 7.289062 C 4.035156 7.363281 3.957031 7.417969 3.871094 7.460938 C 3.785156 7.5 3.699219 7.519531 3.609375 7.519531 Z M 7.476562 7.441406 L 7.476562 6.078125 L 9.996094 6.078125 L 9.996094 5 L 6.390625 5 L 6.390625 11 L 9.996094 11 L 9.996094 9.921875 L 7.476562 9.921875 L 7.476562 8.523438 L 8.554688 8.523438 L 8.554688 7.441406 Z M 12.390625 8.203125 L 11.675781 5 L 10.59375 5 L 11.851562 11 L 12.9375 11 L 14.195312 5 L 13.175781 5 Z M 12.390625 8.203125 "/>
</svg>
