<?xml version="1.0" encoding="UTF-8"?>
<svg xmlns="http://www.w3.org/2000/svg" xmlns:xlink="http://www.w3.org/1999/xlink" width="16" height="16" viewBox="0 0 16 16">
<rect x="-1.6" y="-1.6" width="19.2" height="19.2" fill="rgb(0%, 0%, 0%)" fill-opacity="1"/>
<path fill-rule="nonzero" fill="rgb(100%, 100%, 100%)" fill-opacity="1" d="M 0.160156 0.160156 L 15.839844 0.160156 L 15.839844 15.839844 L 0.160156 15.839844 Z M 0.160156 0.160156 "/>
<path fill-rule="nonzero" fill="rgb(0%, 0%, 0%)" fill-opacity="1" d="M 1.121094 1.121094 L 14.878906 1.121094 L 14.878906 14.878906 L 1.121094 14.878906 Z M 1.121094 1.121094 "/>
<path fill-rule="nonzero" fill="rgb(100%, 100%, 100%)" fill-opacity="1" d="M 3.046875 13.390625 L 3.046875 2.601562 L 9.484375 2.601562 C 10.152344 2.601562 12.976562 3.136719 12.976562 6.210938 C 12.976562 8.976562 10.773438 9.585938 10.773438 9.585938 L 13.164062 13.402344 L 10.265625 13.402344 L 8.023438 9.859375 L 5.574219 9.859375 L 5.574219 13.398438 C 5.574219 13.398438 3.949219 13.390625 3.046875 13.390625 Z M 3.046875 13.390625 "/>
<path fill-rule="nonzero" fill="rgb(0%, 0%, 0%)" fill-opacity="1" d="M 5.578125 7.417969 L 5.578125 5.023438 L 9.488281 5.023438 C 9.722656 5.023438 10.359375 5.359375 10.359375 6.210938 C 10.359375 7.0625 9.765625 7.421875 9.488281 7.421875 C 9.210938 7.421875 5.578125 7.417969 5.578125 7.417969 Z M 5.578125 7.417969 "/>
</svg>
