<?xml version="1.0" encoding="UTF-8"?>
<svg xmlns="http://www.w3.org/2000/svg" xmlns:xlink="http://www.w3.org/1999/xlink" width="16" height="16" viewBox="0 0 16 16">
<rect x="-1.6" y="-1.6" width="19.2" height="19.2" fill="rgb(0%, 0%, 0%)" fill-opacity="1"/>
<path fill-rule="nonzero" fill="rgb(100%, 100%, 100%)" fill-opacity="1" d="M 1.464844 1.464844 L 14.53125 1.464844 L 14.53125 14.53125 L 1.464844 14.53125 Z M 1.464844 1.464844 "/>
<path fill-rule="nonzero" fill="rgb(0%, 0%, 0%)" fill-opacity="1" d="M 2.269531 2.269531 L 13.730469 2.269531 L 13.730469 13.730469 L 2.269531 13.730469 Z M 2.269531 2.269531 "/>
<path fill-rule="nonzero" fill="rgb(100%, 100%, 100%)" fill-opacity="1" d="M 3.871094 3.5 L 12.113281 3.5 L 12.113281 5.519531 L 3.871094 5.519531 Z M 3.871094 3.5 "/>
<path fill-rule="nonzero" fill="rgb(100%, 100%, 100%)" fill-opacity="1" d="M 3.878906 10.480469 L 12.125 10.480469 L 12.125 12.5 L 3.878906 12.5 Z M 3.878906 10.480469 "/>
<path fill-rule="nonzero" fill="rgb(100%, 100%, 100%)" fill-opacity="1" d="M 9.375 5.519531 L 12.113281 5.519531 L 12.117188 5.855469 L 6.605469 10.480469 L 3.878906 10.480469 L 3.871094 10.144531 Z M 9.375 5.519531 "/>
<path fill-rule="nonzero" fill="rgb(100%, 100%, 100%)" fill-opacity="1" d="M 9.375 3.5 L 12.117188 3.5 L 12.117188 5.855469 L 9.375 5.855469 Z M 9.375 3.5 "/>
<path fill-rule="nonzero" fill="rgb(100%, 100%, 100%)" fill-opacity="1" d="M 3.871094 10.144531 L 6.605469 10.144531 L 6.605469 12.457031 L 3.871094 12.457031 Z M 3.871094 10.144531 "/>
</svg>
