<?xml version="1.0" encoding="UTF-8"?>
<svg xmlns="http://www.w3.org/2000/svg" xmlns:xlink="http://www.w3.org/1999/xlink" width="16" height="16" viewBox="0 0 16 16">
<path fill-rule="evenodd" fill="rgb(100%, 100%, 100%)" fill-opacity="1" stroke-width="1.04563" stroke-linecap="round" stroke-linejoin="round" stroke="rgb(0%, 0%, 0%)" stroke-opacity="1" stroke-miterlimit="10" d="M 105.32804 221.621682 L 127.137847 221.621682 L 127.137847 199.811874 L 105.32804 199.811874 Z M 105.32804 221.621682 " transform="matrix(0.700301, 0, 0, 0.700301, -73.398085, -139.56524)"/>
<path fill-rule="nonzero" fill="rgb(0%, 0%, 0%)" fill-opacity="1" d="M 4.265625 13.617188 L 4.265625 3.339844 L 7.585938 3.339844 C 8.84375 3.339844 9.667969 3.390625 10.054688 3.492188 C 10.640625 3.644531 11.125 3.984375 11.519531 4.503906 C 11.921875 5.015625 12.121094 5.679688 12.121094 6.496094 C 12.121094 7.132812 12.007812 7.667969 11.78125 8.097656 C 11.554688 8.519531 11.265625 8.859375 10.90625 9.105469 C 10.558594 9.355469 10.203125 9.515625 9.835938 9.597656 C 9.339844 9.691406 8.625 9.738281 7.683594 9.738281 L 6.339844 9.738281 L 6.339844 13.617188 Z M 6.339844 5.074219 L 6.339844 7.996094 L 7.476562 7.996094 C 8.292969 7.996094 8.832031 7.941406 9.105469 7.832031 C 9.382812 7.722656 9.597656 7.554688 9.75 7.328125 C 9.90625 7.097656 9.988281 6.828125 9.988281 6.527344 C 9.988281 6.15625 9.882812 5.851562 9.664062 5.609375 C 9.445312 5.359375 9.164062 5.207031 8.828125 5.148438 C 8.582031 5.097656 8.082031 5.074219 7.332031 5.074219 Z M 3.226562 0.617188 "/>
</svg>
