<?xml version="1.0" encoding="UTF-8"?>
<svg xmlns="http://www.w3.org/2000/svg" xmlns:xlink="http://www.w3.org/1999/xlink" width="16" height="16" viewBox="0 0 16 16">
<rect x="-1.6" y="-1.6" width="19.2" height="19.2" fill="rgb(100%, 100%, 100%)" fill-opacity="1"/>
<path fill-rule="nonzero" fill="rgb(0%, 0%, 0%)" fill-opacity="1" d="M 0.160156 0.160156 L 15.839844 0.160156 L 15.839844 15.839844 L 0.160156 15.839844 Z M 0.160156 0.160156 "/>
<path fill-rule="nonzero" fill="rgb(100%, 100%, 100%)" fill-opacity="1" d="M 1.121094 1.121094 L 14.878906 1.121094 L 14.878906 14.878906 L 1.121094 14.878906 Z M 1.121094 1.121094 "/>
<path fill-rule="nonzero" fill="rgb(0%, 0%, 0%)" fill-opacity="1" d="M 7.265625 10.359375 L 8.8125 10.359375 L 8.8125 11.859375 L 7.265625 11.859375 Z M 5.375 6.625 C 5.414062 5.636719 5.757812 4.9375 6.40625 4.53125 C 6.8125 4.273438 7.3125 4.140625 7.90625 4.140625 C 8.6875 4.140625 9.335938 4.328125 9.859375 4.703125 C 10.378906 5.070312 10.640625 5.621094 10.640625 6.359375 C 10.640625 6.808594 10.523438 7.183594 10.296875 7.484375 C 10.160156 7.671875 9.90625 7.914062 9.53125 8.203125 L 9.171875 8.5 C 8.972656 8.648438 8.835938 8.824219 8.765625 9.03125 C 8.722656 9.167969 8.703125 9.375 8.703125 9.65625 L 7.296875 9.65625 C 7.316406 9.0625 7.375 8.65625 7.46875 8.4375 C 7.5625 8.21875 7.789062 7.964844 8.15625 7.671875 L 8.546875 7.375 C 8.671875 7.28125 8.769531 7.179688 8.84375 7.0625 C 8.976562 6.875 9.046875 6.667969 9.046875 6.4375 C 9.046875 6.179688 8.96875 5.9375 8.8125 5.71875 C 8.664062 5.5 8.390625 5.390625 7.984375 5.390625 C 7.578125 5.390625 7.289062 5.527344 7.125 5.796875 C 6.957031 6.058594 6.875 6.335938 6.875 6.625 Z M 4.734375 3.683594 "/>
</svg>
