<?xml version="1.0" encoding="UTF-8"?>
<svg xmlns="http://www.w3.org/2000/svg" xmlns:xlink="http://www.w3.org/1999/xlink" width="16" height="12.147003" viewBox="0 0 16 12.147003">
<path fill-rule="evenodd" fill="rgb(100%, 100%, 100%)" fill-opacity="1" stroke-width="0.762353" stroke-linecap="round" stroke-linejoin="round" stroke="rgb(0%, 0%, 0%)" stroke-opacity="1" stroke-miterlimit="10" d="M 93.279256 79.422693 L 93.107067 77.645097 L 92.686724 76.034625 L 91.922003 74.429218 L 90.909128 72.985871 L 89.724064 71.719776 L 88.280716 70.787931 L 86.675309 70.02321 L 84.978743 69.602867 L 83.287241 69.430678 L 81.509645 69.602867 L 79.818143 70.02321 L 78.293766 70.787931 L 76.850418 71.719776 L 75.584324 72.985871 L 74.652479 74.429218 L 73.887758 76.034625 L 73.467415 77.645097 L 73.295226 79.422693 L 73.295226 84.416169 L 93.279256 84.416169 Z M 93.279256 79.422693 " transform="matrix(0.771319, 0, 0, 0.771319, -56.241033, -53.260234)"/>
<path fill-rule="nonzero" fill="rgb(0%, 0%, 0%)" fill-opacity="1" d="M 2.902344 5.871094 L 2.902344 5.253906 C 3.183594 5.238281 3.386719 5.21875 3.507812 5.195312 C 3.679688 5.15625 3.832031 5.074219 3.953125 4.953125 C 4.023438 4.875 4.078125 4.765625 4.121094 4.628906 C 4.144531 4.539062 4.15625 4.476562 4.15625 4.433594 L 4.917969 4.433594 L 4.917969 9.0625 L 3.988281 9.0625 L 3.988281 5.871094 Z M 7.152344 7.820312 C 7.191406 8.023438 7.261719 8.179688 7.355469 8.292969 C 7.460938 8.398438 7.613281 8.449219 7.816406 8.449219 C 8.039062 8.449219 8.207031 8.371094 8.320312 8.207031 C 8.441406 8.046875 8.5 7.847656 8.5 7.605469 C 8.5 7.371094 8.445312 7.175781 8.332031 7.015625 C 8.226562 6.84375 8.054688 6.761719 7.816406 6.761719 C 7.710938 6.761719 7.617188 6.777344 7.539062 6.808594 C 7.394531 6.859375 7.285156 6.949219 7.210938 7.085938 L 6.390625 7.050781 L 6.71875 4.496094 L 9.273438 4.496094 L 9.273438 5.265625 L 7.378906 5.265625 L 7.210938 6.277344 C 7.347656 6.191406 7.457031 6.132812 7.539062 6.097656 C 7.671875 6.050781 7.832031 6.027344 8.019531 6.027344 C 8.40625 6.027344 8.738281 6.15625 9.019531 6.410156 C 9.308594 6.671875 9.453125 7.042969 9.453125 7.53125 C 9.453125 7.960938 9.3125 8.339844 9.03125 8.675781 C 8.757812 9.015625 8.347656 9.183594 7.800781 9.183594 C 7.367188 9.183594 7.007812 9.066406 6.71875 8.832031 C 6.433594 8.59375 6.277344 8.253906 6.246094 7.820312 Z M 10.84375 6.796875 C 10.84375 7.328125 10.886719 7.734375 10.976562 8.015625 C 11.0625 8.296875 11.242188 8.4375 11.503906 8.4375 C 11.777344 8.4375 11.953125 8.296875 12.035156 8.015625 C 12.125 7.734375 12.167969 7.328125 12.167969 6.796875 C 12.167969 6.238281 12.125 5.820312 12.035156 5.554688 C 11.953125 5.289062 11.777344 5.15625 11.503906 5.15625 C 11.242188 5.15625 11.0625 5.289062 10.976562 5.554688 C 10.886719 5.820312 10.84375 6.238281 10.84375 6.796875 Z M 11.503906 4.410156 C 12.097656 4.410156 12.511719 4.621094 12.746094 5.039062 C 12.988281 5.449219 13.109375 6.035156 13.109375 6.796875 C 13.109375 7.5625 12.988281 8.152344 12.746094 8.570312 C 12.511719 8.980469 12.097656 9.183594 11.503906 9.183594 C 10.917969 9.183594 10.503906 8.980469 10.265625 8.570312 C 10.027344 8.152344 9.914062 7.5625 9.914062 6.796875 C 9.914062 6.035156 10.027344 5.449219 10.265625 5.039062 C 10.503906 4.621094 10.917969 4.410156 11.503906 4.410156 Z M 2.445312 4.035156 "/>
</svg>
