<?xml version="1.0" encoding="UTF-8"?>
<svg xmlns="http://www.w3.org/2000/svg" xmlns:xlink="http://www.w3.org/1999/xlink" width="20" height="20" viewBox="0 0 20 20">
<path fill-rule="nonzero" fill="rgb(100%, 100%, 100%)" fill-opacity="1" d="M 0 10 L 10 0 L 20 10 L 10 20 Z M 0 10 "/>
<path fill-rule="nonzero" fill="rgb(0%, 0%, 0%)" fill-opacity="1" d="M 0.199219 10 L 10 0.199219 L 19.800781 10 L 10 19.796875 Z M 0.199219 10 "/>
<path fill-rule="nonzero" fill="rgb(100%, 100%, 100%)" fill-opacity="1" d="M 1.398438 10 L 10 1.402344 L 18.597656 10 L 10 18.597656 Z M 1.398438 10 "/>
<path fill-rule="nonzero" fill="rgb(0%, 0%, 0%)" fill-opacity="1" d="M 4.421875 8.976562 L 4.421875 8.300781 C 4.722656 8.300781 4.945312 8.28125 5.097656 8.226562 C 5.285156 8.1875 5.433594 8.113281 5.546875 8 C 5.640625 7.90625 5.714844 7.777344 5.769531 7.625 C 5.769531 7.53125 5.769531 7.457031 5.769531 7.402344 L 6.59375 7.402344 L 6.59375 12.496094 L 5.621094 12.496094 L 5.621094 8.976562 Z M 9.164062 10.023438 C 9.164062 10.585938 9.179688 11.035156 9.238281 11.375 C 9.332031 11.671875 9.535156 11.824219 9.835938 11.824219 C 10.136719 11.824219 10.324219 11.671875 10.4375 11.375 C 10.53125 11.035156 10.585938 10.585938 10.585938 10.023438 C 10.585938 9.386719 10.53125 8.9375 10.4375 8.675781 C 10.324219 8.375 10.136719 8.226562 9.835938 8.226562 C 9.535156 8.226562 9.332031 8.375 9.238281 8.675781 C 9.179688 8.9375 9.164062 9.386719 9.164062 10.023438 Z M 9.835938 7.402344 C 10.472656 7.402344 10.921875 7.625 11.1875 8.074219 C 11.484375 8.523438 11.636719 9.179688 11.636719 10.023438 C 11.636719 10.828125 11.484375 11.484375 11.1875 11.972656 C 10.921875 12.421875 10.472656 12.648438 9.835938 12.648438 C 9.179688 12.648438 8.730469 12.421875 8.488281 11.972656 C 8.226562 11.484375 8.113281 10.828125 8.113281 10.023438 C 8.113281 9.179688 8.226562 8.523438 8.488281 8.074219 C 8.730469 7.625 9.179688 7.402344 9.835938 7.402344 Z M 13.152344 10.023438 C 13.152344 10.585938 13.171875 11.035156 13.226562 11.375 C 13.320312 11.671875 13.527344 11.824219 13.828125 11.824219 C 14.128906 11.824219 14.316406 11.671875 14.425781 11.375 C 14.519531 11.035156 14.578125 10.585938 14.578125 10.023438 C 14.578125 9.386719 14.519531 8.9375 14.425781 8.675781 C 14.316406 8.375 14.128906 8.226562 13.828125 8.226562 C 13.527344 8.226562 13.320312 8.375 13.226562 8.675781 C 13.171875 8.9375 13.152344 9.386719 13.152344 10.023438 Z M 13.828125 7.402344 C 14.464844 7.402344 14.914062 7.625 15.175781 8.074219 C 15.476562 8.523438 15.625 9.179688 15.625 10.023438 C 15.625 10.828125 15.476562 11.484375 15.175781 11.972656 C 14.914062 12.421875 14.464844 12.648438 13.828125 12.648438 C 13.171875 12.648438 12.722656 12.421875 12.480469 11.972656 C 12.214844 11.484375 12.105469 10.828125 12.105469 10.023438 C 12.105469 9.179688 12.214844 8.523438 12.480469 8.074219 C 12.722656 7.625 13.171875 7.402344 13.828125 7.402344 Z M 3.898438 6.96875 "/>
</svg>
