<?xml version="1.0" encoding="UTF-8"?>
<svg xmlns="http://www.w3.org/2000/svg" xmlns:xlink="http://www.w3.org/1999/xlink" width="20" height="20" viewBox="0 0 20 20">
<path fill-rule="nonzero" fill="rgb(100%, 100%, 100%)" fill-opacity="1" d="M 0 10 L 10 0 L 20 10 L 10 20 Z M 0 10 "/>
<path fill-rule="nonzero" fill="rgb(0%, 0%, 0%)" fill-opacity="1" d="M 0.199219 10 L 10 0.199219 L 19.800781 10 L 10 19.796875 Z M 0.199219 10 "/>
<path fill-rule="nonzero" fill="rgb(100%, 100%, 100%)" fill-opacity="1" d="M 1.398438 10 L 10 1.402344 L 18.597656 10 L 10 18.597656 Z M 1.398438 10 "/>
<path fill-rule="nonzero" fill="rgb(0%, 0%, 0%)" fill-opacity="1" d="M 9.238281 12.402344 L 10.8125 12.402344 L 10.8125 13.902344 L 9.238281 13.902344 Z M 7.363281 8.582031 C 7.363281 7.589844 7.699219 6.894531 8.414062 6.484375 C 8.804688 6.183594 9.3125 6.03125 9.910156 6.03125 C 10.699219 6.03125 11.355469 6.238281 11.859375 6.632812 C 12.402344 6.988281 12.683594 7.53125 12.683594 8.28125 C 12.683594 8.789062 12.554688 9.179688 12.308594 9.480469 C 12.199219 9.6875 11.953125 9.910156 11.558594 10.15625 L 11.1875 10.453125 C 10.980469 10.660156 10.847656 10.867188 10.8125 11.054688 C 10.753906 11.167969 10.734375 11.355469 10.734375 11.652344 L 9.3125 11.652344 C 9.3125 11.054688 9.347656 10.660156 9.460938 10.453125 C 9.554688 10.210938 9.78125 9.929688 10.136719 9.628906 L 10.585938 9.332031 C 10.679688 9.238281 10.773438 9.144531 10.886719 9.03125 C 11.035156 8.84375 11.109375 8.636719 11.109375 8.429688 C 11.109375 8.132812 11 7.886719 10.8125 7.683594 C 10.660156 7.4375 10.378906 7.308594 9.988281 7.308594 C 9.574219 7.308594 9.273438 7.457031 9.085938 7.757812 C 8.9375 8.019531 8.863281 8.28125 8.863281 8.582031 Z M 6.6875 5.621094 "/>
</svg>
