<?xml version="1.0" encoding="UTF-8"?>
<svg xmlns="http://www.w3.org/2000/svg" xmlns:xlink="http://www.w3.org/1999/xlink" width="16" height="16" viewBox="0 0 16 16">
<rect x="-1.6" y="-1.6" width="19.2" height="19.2" fill="rgb(100%, 100%, 100%)" fill-opacity="1"/>
<path fill-rule="nonzero" fill="rgb(0%, 0%, 0%)" fill-opacity="1" d="M 0.160156 0.160156 L 15.839844 0.160156 L 15.839844 15.839844 L 0.160156 15.839844 Z M 0.160156 0.160156 "/>
<path fill-rule="nonzero" fill="rgb(100%, 100%, 100%)" fill-opacity="1" d="M 1.121094 1.121094 L 14.878906 1.121094 L 14.878906 14.878906 L 1.121094 14.878906 Z M 1.121094 1.121094 "/>
<path fill-rule="nonzero" fill="rgb(0%, 0%, 0%)" fill-opacity="1" d="M 4.464844 9.1875 C 4.464844 9.445312 4.507812 9.660156 4.589844 9.828125 C 4.746094 10.140625 5.023438 10.296875 5.429688 10.296875 C 5.679688 10.296875 5.898438 10.210938 6.082031 10.039062 C 6.269531 9.867188 6.359375 9.625 6.359375 9.304688 C 6.359375 8.878906 6.1875 8.597656 5.84375 8.453125 C 5.648438 8.375 5.339844 8.332031 4.921875 8.332031 L 4.921875 7.425781 C 5.332031 7.421875 5.621094 7.378906 5.78125 7.304688 C 6.066406 7.183594 6.207031 6.929688 6.207031 6.550781 C 6.207031 6.304688 6.132812 6.105469 5.988281 5.949219 C 5.847656 5.796875 5.644531 5.71875 5.382812 5.71875 C 5.082031 5.71875 4.863281 5.8125 4.722656 6.003906 C 4.582031 6.191406 4.515625 6.445312 4.519531 6.765625 L 3.335938 6.765625 C 3.347656 6.445312 3.402344 6.140625 3.5 5.851562 C 3.605469 5.601562 3.769531 5.367188 3.992188 5.152344 C 4.15625 5.003906 4.355469 4.886719 4.582031 4.808594 C 4.808594 4.726562 5.089844 4.6875 5.421875 4.6875 C 6.039062 4.6875 6.535156 4.847656 6.914062 5.164062 C 7.292969 5.484375 7.480469 5.910156 7.480469 6.449219 C 7.480469 6.828125 7.371094 7.148438 7.144531 7.410156 C 7 7.570312 6.851562 7.683594 6.699219 7.742188 C 6.816406 7.742188 6.980469 7.839844 7.195312 8.039062 C 7.519531 8.339844 7.683594 8.75 7.683594 9.269531 C 7.683594 9.8125 7.492188 10.292969 7.113281 10.707031 C 6.738281 11.121094 6.175781 11.328125 5.4375 11.328125 C 4.523438 11.328125 3.886719 11.027344 3.53125 10.433594 C 3.34375 10.117188 3.242188 9.699219 3.222656 9.1875 Z M 9.625 8.003906 C 9.625 8.746094 9.6875 9.3125 9.808594 9.707031 C 9.929688 10.097656 10.179688 10.296875 10.554688 10.296875 C 10.933594 10.296875 11.179688 10.097656 11.296875 9.707031 C 11.414062 9.3125 11.472656 8.746094 11.472656 8.003906 C 11.472656 7.226562 11.414062 6.652344 11.296875 6.277344 C 11.179688 5.90625 10.933594 5.71875 10.554688 5.71875 C 10.179688 5.71875 9.929688 5.90625 9.808594 6.277344 C 9.6875 6.652344 9.625 7.226562 9.625 8.003906 Z M 10.554688 4.671875 C 11.375 4.671875 11.953125 4.960938 12.28125 5.539062 C 12.613281 6.117188 12.777344 6.941406 12.777344 8.003906 C 12.777344 9.070312 12.613281 9.890625 12.28125 10.464844 C 11.953125 11.039062 11.375 11.328125 10.554688 11.328125 C 9.734375 11.328125 9.15625 11.039062 8.828125 10.464844 C 8.496094 9.890625 8.332031 9.070312 8.332031 8.003906 C 8.332031 6.941406 8.496094 6.117188 8.828125 5.539062 C 9.15625 4.960938 9.734375 4.671875 10.554688 4.671875 Z M 2.980469 4.152344 "/>
</svg>
