<?xml version="1.0" encoding="UTF-8"?>
<svg xmlns="http://www.w3.org/2000/svg" xmlns:xlink="http://www.w3.org/1999/xlink" width="16" height="12.147003" viewBox="0 0 16 12.147003">
<path fill-rule="evenodd" fill="rgb(100%, 100%, 100%)" fill-opacity="1" stroke-width="0.762353" stroke-linecap="round" stroke-linejoin="round" stroke="rgb(0%, 0%, 0%)" stroke-opacity="1" stroke-miterlimit="10" d="M 93.279256 79.422693 L 93.107067 77.645097 L 92.686724 76.034625 L 91.922003 74.429218 L 90.909128 72.985871 L 89.724064 71.719776 L 88.280716 70.787931 L 86.675309 70.02321 L 84.978743 69.602867 L 83.287241 69.430678 L 81.509645 69.602867 L 79.818143 70.02321 L 78.293766 70.787931 L 76.850418 71.719776 L 75.584324 72.985871 L 74.652479 74.429218 L 73.887758 76.034625 L 73.467415 77.645097 L 73.295226 79.422693 L 73.295226 84.416169 L 93.279256 84.416169 Z M 93.279256 79.422693 " transform="matrix(0.771319, 0, 0, 0.771319, -56.241033, -53.260234)"/>
<path fill-rule="nonzero" fill="rgb(0%, 0%, 0%)" fill-opacity="1" d="M 2.902344 6.089844 L 2.902344 5.472656 C 3.183594 5.460938 3.386719 5.4375 3.507812 5.414062 C 3.679688 5.375 3.832031 5.292969 3.953125 5.171875 C 4.023438 5.09375 4.078125 4.988281 4.121094 4.847656 C 4.144531 4.761719 4.15625 4.695312 4.15625 4.65625 L 4.917969 4.65625 L 4.917969 9.28125 L 3.988281 9.28125 L 3.988281 6.089844 Z M 7.199219 7.945312 C 7.199219 8.171875 7.253906 8.347656 7.367188 8.476562 C 7.488281 8.597656 7.652344 8.65625 7.863281 8.65625 C 8.070312 8.65625 8.230469 8.597656 8.34375 8.476562 C 8.464844 8.347656 8.527344 8.171875 8.527344 7.945312 C 8.527344 7.703125 8.464844 7.523438 8.34375 7.402344 C 8.222656 7.28125 8.0625 7.222656 7.863281 7.222656 C 7.660156 7.222656 7.5 7.28125 7.378906 7.402344 C 7.261719 7.523438 7.199219 7.703125 7.199219 7.945312 Z M 6.246094 8.003906 C 6.246094 7.742188 6.308594 7.503906 6.429688 7.292969 C 6.550781 7.085938 6.722656 6.929688 6.945312 6.824219 C 6.722656 6.671875 6.578125 6.511719 6.511719 6.34375 C 6.445312 6.167969 6.417969 6 6.417969 5.847656 C 6.417969 5.511719 6.539062 5.226562 6.789062 4.992188 C 7.046875 4.75 7.40625 4.632812 7.863281 4.632812 C 8.320312 4.632812 8.671875 4.75 8.921875 4.992188 C 9.179688 5.226562 9.308594 5.511719 9.308594 5.847656 C 9.308594 6 9.277344 6.167969 9.210938 6.34375 C 9.144531 6.511719 9 6.660156 8.777344 6.789062 C 9 6.917969 9.171875 7.085938 9.285156 7.292969 C 9.40625 7.503906 9.464844 7.742188 9.464844 8.003906 C 9.464844 8.390625 9.320312 8.722656 9.03125 8.992188 C 8.742188 9.269531 8.339844 9.402344 7.828125 9.402344 C 7.300781 9.402344 6.910156 9.269531 6.644531 8.992188 C 6.378906 8.722656 6.246094 8.390625 6.246094 8.003906 Z M 7.285156 5.957031 C 7.285156 6.125 7.332031 6.265625 7.429688 6.367188 C 7.53125 6.472656 7.675781 6.523438 7.863281 6.523438 C 8.046875 6.523438 8.1875 6.472656 8.285156 6.367188 C 8.386719 6.265625 8.441406 6.125 8.441406 5.957031 C 8.441406 5.773438 8.386719 5.628906 8.285156 5.523438 C 8.1875 5.421875 8.046875 5.367188 7.863281 5.367188 C 7.675781 5.367188 7.53125 5.421875 7.429688 5.523438 C 7.332031 5.628906 7.285156 5.773438 7.285156 5.957031 Z M 10.84375 7.015625 C 10.84375 7.546875 10.886719 7.953125 10.976562 8.234375 C 11.0625 8.519531 11.242188 8.65625 11.503906 8.65625 C 11.777344 8.65625 11.953125 8.519531 12.035156 8.234375 C 12.125 7.953125 12.167969 7.546875 12.167969 7.015625 C 12.167969 6.457031 12.125 6.039062 12.035156 5.777344 C 11.953125 5.511719 11.777344 5.378906 11.503906 5.378906 C 11.242188 5.378906 11.0625 5.511719 10.976562 5.777344 C 10.886719 6.039062 10.84375 6.457031 10.84375 7.015625 Z M 11.503906 4.632812 C 12.097656 4.632812 12.511719 4.839844 12.746094 5.257812 C 12.988281 5.667969 13.109375 6.253906 13.109375 7.015625 C 13.109375 7.78125 12.988281 8.371094 12.746094 8.789062 C 12.511719 9.199219 12.097656 9.402344 11.503906 9.402344 C 10.917969 9.402344 10.503906 9.199219 10.265625 8.789062 C 10.027344 8.371094 9.914062 7.78125 9.914062 7.015625 C 9.914062 6.253906 10.027344 5.667969 10.265625 5.257812 C 10.503906 4.839844 10.917969 4.632812 11.503906 4.632812 Z M 2.445312 4.253906 "/>
</svg>
