<?xml version="1.0" encoding="UTF-8"?>
<svg xmlns="http://www.w3.org/2000/svg" xmlns:xlink="http://www.w3.org/1999/xlink" width="16" height="12.147003" viewBox="0 0 16 12.147003">
<path fill-rule="evenodd" fill="rgb(100%, 100%, 100%)" fill-opacity="1" stroke-width="0.762353" stroke-linecap="round" stroke-linejoin="round" stroke="rgb(0%, 0%, 0%)" stroke-opacity="1" stroke-miterlimit="10" d="M 73.295226 74.429218 L 73.467415 76.206814 L 73.887758 77.812221 L 74.652479 79.422693 L 75.665354 80.860976 L 76.850418 82.132135 L 78.293766 83.06398 L 79.899173 83.823637 L 81.595739 84.249044 L 83.287241 84.416169 L 85.064837 84.249044 L 86.756339 83.823637 L 88.280716 83.06398 L 89.724064 82.132135 L 90.990158 80.860976 L 91.922003 79.422693 L 92.686724 77.812221 L 93.107067 76.206814 L 93.279256 74.429218 L 93.279256 69.430678 L 73.295226 69.430678 Z M 73.295226 74.429218 " transform="matrix(0.771319, 0, 0, 0.771319, -56.241033, -53.260234)"/>
<path fill-rule="nonzero" fill="rgb(0%, 0%, 0%)" fill-opacity="1" d="M 2.902344 3.773438 L 2.902344 3.15625 C 3.183594 3.140625 3.386719 3.121094 3.507812 3.097656 C 3.679688 3.058594 3.832031 2.976562 3.953125 2.855469 C 4.023438 2.777344 4.078125 2.667969 4.121094 2.53125 C 4.144531 2.445312 4.15625 2.378906 4.15625 2.339844 L 4.917969 2.339844 L 4.917969 6.964844 L 3.988281 6.964844 L 3.988281 3.773438 Z M 7.199219 5.628906 C 7.199219 5.855469 7.253906 6.03125 7.367188 6.160156 C 7.488281 6.277344 7.652344 6.339844 7.863281 6.339844 C 8.070312 6.339844 8.230469 6.277344 8.34375 6.160156 C 8.464844 6.03125 8.527344 5.855469 8.527344 5.628906 C 8.527344 5.386719 8.464844 5.207031 8.34375 5.085938 C 8.222656 4.964844 8.0625 4.90625 7.863281 4.90625 C 7.660156 4.90625 7.5 4.964844 7.378906 5.085938 C 7.261719 5.207031 7.199219 5.386719 7.199219 5.628906 Z M 6.246094 5.6875 C 6.246094 5.421875 6.308594 5.1875 6.429688 4.976562 C 6.550781 4.769531 6.722656 4.613281 6.945312 4.507812 C 6.722656 4.355469 6.578125 4.195312 6.511719 4.023438 C 6.445312 3.851562 6.417969 3.683594 6.417969 3.53125 C 6.417969 3.195312 6.539062 2.910156 6.789062 2.675781 C 7.046875 2.433594 7.40625 2.3125 7.863281 2.3125 C 8.320312 2.3125 8.671875 2.433594 8.921875 2.675781 C 9.179688 2.910156 9.308594 3.195312 9.308594 3.53125 C 9.308594 3.683594 9.277344 3.851562 9.210938 4.023438 C 9.144531 4.195312 9 4.34375 8.777344 4.472656 C 9 4.601562 9.171875 4.769531 9.285156 4.976562 C 9.40625 5.1875 9.464844 5.421875 9.464844 5.6875 C 9.464844 6.074219 9.320312 6.40625 9.03125 6.675781 C 8.742188 6.949219 8.339844 7.085938 7.828125 7.085938 C 7.300781 7.085938 6.910156 6.949219 6.644531 6.675781 C 6.378906 6.40625 6.246094 6.074219 6.246094 5.6875 Z M 7.285156 3.640625 C 7.285156 3.808594 7.332031 3.945312 7.429688 4.050781 C 7.53125 4.15625 7.675781 4.207031 7.863281 4.207031 C 8.046875 4.207031 8.1875 4.15625 8.285156 4.050781 C 8.386719 3.945312 8.441406 3.808594 8.441406 3.640625 C 8.441406 3.457031 8.386719 3.3125 8.285156 3.207031 C 8.1875 3.101562 8.046875 3.050781 7.863281 3.050781 C 7.675781 3.050781 7.53125 3.101562 7.429688 3.207031 C 7.332031 3.3125 7.285156 3.457031 7.285156 3.640625 Z M 10.84375 4.699219 C 10.84375 5.230469 10.886719 5.636719 10.976562 5.917969 C 11.0625 6.199219 11.242188 6.339844 11.503906 6.339844 C 11.777344 6.339844 11.953125 6.199219 12.035156 5.917969 C 12.125 5.636719 12.167969 5.230469 12.167969 4.699219 C 12.167969 4.140625 12.125 3.722656 12.035156 3.457031 C 11.953125 3.195312 11.777344 3.0625 11.503906 3.0625 C 11.242188 3.0625 11.0625 3.195312 10.976562 3.457031 C 10.886719 3.722656 10.84375 4.140625 10.84375 4.699219 Z M 11.503906 2.3125 C 12.097656 2.3125 12.511719 2.523438 12.746094 2.941406 C 12.988281 3.351562 13.109375 3.9375 13.109375 4.699219 C 13.109375 5.464844 12.988281 6.054688 12.746094 6.472656 C 12.511719 6.882812 12.097656 7.085938 11.503906 7.085938 C 10.917969 7.085938 10.503906 6.882812 10.265625 6.472656 C 10.027344 6.054688 9.914062 5.464844 9.914062 4.699219 C 9.914062 3.9375 10.027344 3.351562 10.265625 2.941406 C 10.503906 2.523438 10.917969 2.3125 11.503906 2.3125 Z M 2.445312 1.9375 "/>
</svg>
