<?xml version="1.0" encoding="UTF-8"?>
<svg xmlns="http://www.w3.org/2000/svg" xmlns:xlink="http://www.w3.org/1999/xlink" width="20" height="20" viewBox="0 0 20 20">
<path fill-rule="nonzero" fill="rgb(100%, 100%, 100%)" fill-opacity="1" d="M 0 10 L 10 0 L 20 10 L 10 20 Z M 0 10 "/>
<path fill-rule="nonzero" fill="rgb(0%, 0%, 0%)" fill-opacity="1" d="M 0.199219 10 L 10 0.199219 L 19.800781 10 L 10 19.796875 Z M 0.199219 10 "/>
<path fill-rule="nonzero" fill="rgb(100%, 100%, 100%)" fill-opacity="1" d="M 1.398438 10 L 10 1.402344 L 18.597656 10 L 10 18.597656 Z M 1.398438 10 "/>
<path fill-rule="nonzero" fill="rgb(0%, 0%, 0%)" fill-opacity="1" d="M 6.371094 11.222656 C 6.371094 11.578125 6.464844 11.878906 6.671875 12.121094 C 6.859375 12.328125 7.121094 12.421875 7.417969 12.421875 C 7.664062 12.421875 7.871094 12.328125 8.019531 12.121094 C 8.207031 11.878906 8.320312 11.578125 8.320312 11.222656 C 8.320312 10.828125 8.207031 10.53125 8.019531 10.324219 C 7.8125 10.136719 7.589844 10.023438 7.34375 10.023438 C 7.082031 10.023438 6.894531 10.097656 6.746094 10.25 C 6.484375 10.453125 6.371094 10.773438 6.371094 11.222656 Z M 8.242188 8.300781 C 8.242188 8.207031 8.1875 8.074219 8.09375 7.925781 C 7.945312 7.738281 7.71875 7.625 7.417969 7.625 C 7.007812 7.625 6.707031 7.851562 6.519531 8.300781 C 6.40625 8.601562 6.332031 9.011719 6.296875 9.5 C 6.484375 9.3125 6.6875 9.179688 6.894531 9.125 C 7.082031 9.03125 7.34375 8.976562 7.644531 8.976562 C 8.242188 8.976562 8.710938 9.179688 9.070312 9.574219 C 9.460938 9.988281 9.667969 10.511719 9.667969 11.148438 C 9.667969 11.746094 9.460938 12.308594 9.070312 12.796875 C 8.710938 13.246094 8.132812 13.472656 7.34375 13.472656 C 6.484375 13.472656 5.863281 13.132812 5.472656 12.421875 C 5.171875 11.878906 5.019531 11.1875 5.019531 10.324219 C 5.019531 9.78125 5.039062 9.347656 5.097656 9.050781 C 5.132812 8.449219 5.285156 7.980469 5.546875 7.625 C 5.734375 7.289062 5.996094 7.007812 6.296875 6.800781 C 6.59375 6.613281 6.96875 6.5 7.417969 6.5 C 8.019531 6.5 8.488281 6.6875 8.84375 7.027344 C 9.238281 7.324219 9.460938 7.757812 9.519531 8.300781 Z M 11.671875 10.023438 C 11.671875 10.773438 11.710938 11.375 11.824219 11.824219 C 11.972656 12.234375 12.234375 12.421875 12.648438 12.421875 C 13.039062 12.421875 13.285156 12.234375 13.398438 11.824219 C 13.546875 11.375 13.621094 10.773438 13.621094 10.023438 C 13.621094 9.238281 13.546875 8.636719 13.398438 8.226562 C 13.285156 7.832031 13.039062 7.625 12.648438 7.625 C 12.234375 7.625 11.972656 7.832031 11.824219 8.226562 C 11.710938 8.636719 11.671875 9.238281 11.671875 10.023438 Z M 12.648438 6.5 C 13.492188 6.5 14.089844 6.839844 14.445312 7.476562 C 14.78125 8.074219 14.96875 8.9375 14.96875 10.023438 C 14.96875 11.128906 14.78125 11.972656 14.445312 12.570312 C 14.089844 13.171875 13.492188 13.472656 12.648438 13.472656 C 11.785156 13.472656 11.1875 13.171875 10.847656 12.570312 C 10.492188 11.972656 10.324219 11.128906 10.324219 10.023438 C 10.324219 8.9375 10.492188 8.074219 10.847656 7.476562 C 11.1875 6.839844 11.785156 6.5 12.648438 6.5 Z M 4.722656 5.976562 "/>
</svg>
