<?xml version="1.0" encoding="UTF-8"?>
<svg xmlns="http://www.w3.org/2000/svg" xmlns:xlink="http://www.w3.org/1999/xlink" width="16" height="12.147003" viewBox="0 0 16 12.147003">
<path fill-rule="evenodd" fill="rgb(100%, 100%, 100%)" fill-opacity="1" stroke-width="0.762353" stroke-linecap="round" stroke-linejoin="round" stroke="rgb(0%, 0%, 0%)" stroke-opacity="1" stroke-miterlimit="10" d="M 93.279256 79.422693 L 93.107067 77.645097 L 92.686724 76.034625 L 91.922003 74.429218 L 90.909128 72.985871 L 89.724064 71.719776 L 88.280716 70.787931 L 86.675309 70.02321 L 84.978743 69.602867 L 83.287241 69.430678 L 81.509645 69.602867 L 79.818143 70.02321 L 78.293766 70.787931 L 76.850418 71.719776 L 75.584324 72.985871 L 74.652479 74.429218 L 73.887758 76.034625 L 73.467415 77.645097 L 73.295226 79.422693 L 73.295226 84.416169 L 93.279256 84.416169 Z M 93.279256 79.422693 " transform="matrix(0.771319, 0, 0, 0.771319, -56.241033, -53.260234)"/>
<path fill-rule="nonzero" fill="rgb(0%, 0%, 0%)" fill-opacity="1" d="M 2.902344 6.035156 L 2.902344 5.421875 C 3.183594 5.40625 3.386719 5.382812 3.507812 5.359375 C 3.679688 5.320312 3.832031 5.238281 3.953125 5.117188 C 4.023438 5.039062 4.078125 4.933594 4.121094 4.792969 C 4.144531 4.707031 4.15625 4.644531 4.15625 4.601562 L 4.917969 4.601562 L 4.917969 9.230469 L 3.988281 9.230469 L 3.988281 6.035156 Z M 6.273438 6.226562 C 6.273438 5.738281 6.410156 5.34375 6.695312 5.035156 C 6.984375 4.722656 7.355469 4.566406 7.816406 4.566406 C 8.519531 4.566406 9 4.878906 9.261719 5.503906 C 9.410156 5.859375 9.488281 6.320312 9.488281 6.890625 C 9.488281 7.453125 9.417969 7.921875 9.273438 8.289062 C 9 9.003906 8.5 9.359375 7.777344 9.359375 C 7.433594 9.359375 7.117188 9.257812 6.839844 9.058594 C 6.5625 8.851562 6.40625 8.550781 6.367188 8.15625 L 7.273438 8.15625 C 7.296875 8.292969 7.351562 8.40625 7.441406 8.492188 C 7.539062 8.574219 7.660156 8.613281 7.816406 8.613281 C 8.117188 8.613281 8.332031 8.453125 8.453125 8.121094 C 8.515625 7.9375 8.554688 7.667969 8.574219 7.3125 C 8.492188 7.417969 8.40625 7.5 8.308594 7.554688 C 8.140625 7.660156 7.929688 7.710938 7.683594 7.710938 C 7.3125 7.710938 6.984375 7.585938 6.695312 7.335938 C 6.410156 7.082031 6.273438 6.710938 6.273438 6.226562 Z M 7.875 6.976562 C 8 6.976562 8.121094 6.9375 8.238281 6.867188 C 8.433594 6.730469 8.539062 6.5 8.539062 6.179688 C 8.539062 5.914062 8.476562 5.707031 8.355469 5.554688 C 8.238281 5.402344 8.066406 5.324219 7.851562 5.324219 C 7.695312 5.324219 7.566406 5.367188 7.453125 5.457031 C 7.285156 5.59375 7.199219 5.824219 7.199219 6.144531 C 7.199219 6.417969 7.25 6.625 7.355469 6.769531 C 7.46875 6.910156 7.640625 6.976562 7.875 6.976562 Z M 10.84375 6.964844 C 10.84375 7.492188 10.886719 7.898438 10.976562 8.179688 C 11.0625 8.464844 11.242188 8.601562 11.503906 8.601562 C 11.777344 8.601562 11.953125 8.464844 12.035156 8.179688 C 12.125 7.898438 12.167969 7.492188 12.167969 6.964844 C 12.167969 6.402344 12.125 5.988281 12.035156 5.722656 C 11.953125 5.457031 11.777344 5.324219 11.503906 5.324219 C 11.242188 5.324219 11.0625 5.457031 10.976562 5.722656 C 10.886719 5.988281 10.84375 6.402344 10.84375 6.964844 Z M 11.503906 4.578125 C 12.097656 4.578125 12.511719 4.789062 12.746094 5.203125 C 12.988281 5.613281 13.109375 6.199219 13.109375 6.964844 C 13.109375 7.726562 12.988281 8.320312 12.746094 8.734375 C 12.511719 9.144531 12.097656 9.347656 11.503906 9.347656 C 10.917969 9.347656 10.503906 9.144531 10.265625 8.734375 C 10.027344 8.320312 9.914062 7.726562 9.914062 6.964844 C 9.914062 6.199219 10.027344 5.613281 10.265625 5.203125 C 10.503906 4.789062 10.917969 4.578125 11.503906 4.578125 Z M 2.445312 4.199219 "/>
</svg>
