<?xml version="1.0" encoding="UTF-8"?>
<svg xmlns="http://www.w3.org/2000/svg" xmlns:xlink="http://www.w3.org/1999/xlink" width="16" height="12.147003" viewBox="0 0 16 12.147003">
<path fill-rule="evenodd" fill="rgb(100%, 100%, 100%)" fill-opacity="1" stroke-width="0.762353" stroke-linecap="round" stroke-linejoin="round" stroke="rgb(0%, 0%, 0%)" stroke-opacity="1" stroke-miterlimit="10" d="M 73.295226 74.429218 L 73.467415 76.206814 L 73.887758 77.812221 L 74.652479 79.422693 L 75.665354 80.860976 L 76.850418 82.132135 L 78.293766 83.06398 L 79.899173 83.823637 L 81.595739 84.249044 L 83.287241 84.416169 L 85.064837 84.249044 L 86.756339 83.823637 L 88.280716 83.06398 L 89.724064 82.132135 L 90.990158 80.860976 L 91.922003 79.422693 L 92.686724 77.812221 L 93.107067 76.206814 L 93.279256 74.429218 L 93.279256 69.430678 L 73.295226 69.430678 Z M 73.295226 74.429218 " transform="matrix(0.771319, 0, 0, 0.771319, -56.241033, -53.260234)"/>
<path fill-rule="nonzero" fill="rgb(0%, 0%, 0%)" fill-opacity="1" d="M 2.902344 3.773438 L 2.902344 3.15625 C 3.183594 3.140625 3.386719 3.121094 3.507812 3.097656 C 3.679688 3.058594 3.832031 2.976562 3.953125 2.855469 C 4.023438 2.777344 4.078125 2.667969 4.121094 2.53125 C 4.144531 2.445312 4.15625 2.378906 4.15625 2.339844 L 4.917969 2.339844 L 4.917969 6.964844 L 3.988281 6.964844 L 3.988281 3.773438 Z M 7.199219 5.507812 C 7.199219 5.75 7.261719 5.949219 7.394531 6.109375 C 7.527344 6.273438 7.699219 6.351562 7.910156 6.351562 C 8.109375 6.351562 8.265625 6.277344 8.382812 6.121094 C 8.5 5.972656 8.5625 5.773438 8.5625 5.53125 C 8.5625 5.261719 8.492188 5.050781 8.355469 4.90625 C 8.226562 4.761719 8.066406 4.6875 7.875 4.6875 C 7.722656 4.6875 7.585938 4.734375 7.464844 4.832031 C 7.289062 4.972656 7.199219 5.195312 7.199219 5.507812 Z M 8.476562 3.507812 C 8.476562 3.433594 8.449219 3.351562 8.394531 3.253906 C 8.289062 3.109375 8.140625 3.035156 7.945312 3.035156 C 7.648438 3.035156 7.433594 3.207031 7.308594 3.542969 C 7.242188 3.730469 7.199219 4 7.175781 4.351562 C 7.289062 4.214844 7.417969 4.117188 7.5625 4.0625 C 7.710938 4 7.886719 3.964844 8.078125 3.964844 C 8.488281 3.964844 8.820312 4.105469 9.078125 4.386719 C 9.34375 4.660156 9.476562 5.011719 9.476562 5.449219 C 9.476562 5.882812 9.347656 6.265625 9.09375 6.59375 C 8.832031 6.921875 8.433594 7.085938 7.898438 7.085938 C 7.3125 7.085938 6.878906 6.84375 6.609375 6.351562 C 6.390625 5.976562 6.285156 5.484375 6.285156 4.882812 C 6.285156 4.527344 6.300781 4.242188 6.332031 4.023438 C 6.378906 3.632812 6.480469 3.300781 6.632812 3.035156 C 6.769531 2.8125 6.941406 2.636719 7.152344 2.507812 C 7.367188 2.371094 7.625 2.300781 7.921875 2.300781 C 8.347656 2.300781 8.6875 2.410156 8.949219 2.628906 C 9.203125 2.84375 9.347656 3.140625 9.382812 3.507812 Z M 10.84375 4.699219 C 10.84375 5.230469 10.886719 5.636719 10.976562 5.917969 C 11.0625 6.199219 11.242188 6.339844 11.503906 6.339844 C 11.777344 6.339844 11.953125 6.199219 12.035156 5.917969 C 12.125 5.636719 12.167969 5.230469 12.167969 4.699219 C 12.167969 4.140625 12.125 3.722656 12.035156 3.457031 C 11.953125 3.195312 11.777344 3.0625 11.503906 3.0625 C 11.242188 3.0625 11.0625 3.195312 10.976562 3.457031 C 10.886719 3.722656 10.84375 4.140625 10.84375 4.699219 Z M 11.503906 2.3125 C 12.097656 2.3125 12.511719 2.523438 12.746094 2.941406 C 12.988281 3.351562 13.109375 3.9375 13.109375 4.699219 C 13.109375 5.464844 12.988281 6.054688 12.746094 6.472656 C 12.511719 6.882812 12.097656 7.085938 11.503906 7.085938 C 10.917969 7.085938 10.503906 6.882812 10.265625 6.472656 C 10.027344 6.054688 9.914062 5.464844 9.914062 4.699219 C 9.914062 3.9375 10.027344 3.351562 10.265625 2.941406 C 10.503906 2.523438 10.917969 2.3125 11.503906 2.3125 Z M 2.445312 1.9375 "/>
</svg>
