<?xml version="1.0" encoding="UTF-8"?>
<svg xmlns="http://www.w3.org/2000/svg" xmlns:xlink="http://www.w3.org/1999/xlink" width="16" height="16" viewBox="0 0 16 16">
<rect x="-1.6" y="-1.6" width="19.2" height="19.2" fill="rgb(100%, 100%, 100%)" fill-opacity="1"/>
<path fill-rule="nonzero" fill="rgb(0%, 0%, 0%)" fill-opacity="1" d="M 0.160156 0.160156 L 15.839844 0.160156 L 15.839844 15.839844 L 0.160156 15.839844 Z M 0.160156 0.160156 "/>
<path fill-rule="nonzero" fill="rgb(100%, 100%, 100%)" fill-opacity="1" d="M 1.121094 1.121094 L 14.878906 1.121094 L 14.878906 14.878906 L 1.121094 14.878906 Z M 1.121094 1.121094 "/>
<path fill-rule="nonzero" fill="rgb(0%, 0%, 0%)" fill-opacity="1" d="M 2.382812 6.988281 L 2.382812 6.308594 C 2.699219 6.292969 2.917969 6.273438 3.046875 6.246094 C 3.246094 6.199219 3.410156 6.109375 3.539062 5.976562 C 3.625 5.886719 3.691406 5.765625 3.734375 5.613281 C 3.757812 5.519531 3.773438 5.453125 3.773438 5.410156 L 4.605469 5.410156 L 4.605469 10.5 L 3.578125 10.5 L 3.578125 6.988281 Z M 7.128906 8.003906 C 7.128906 8.589844 7.175781 9.035156 7.273438 9.347656 C 7.367188 9.65625 7.566406 9.8125 7.863281 9.8125 C 8.160156 9.8125 8.355469 9.65625 8.449219 9.347656 C 8.539062 9.035156 8.585938 8.589844 8.585938 8.003906 C 8.585938 7.390625 8.539062 6.9375 8.449219 6.640625 C 8.355469 6.347656 8.160156 6.199219 7.863281 6.199219 C 7.566406 6.199219 7.367188 6.347656 7.273438 6.640625 C 7.175781 6.9375 7.128906 7.390625 7.128906 8.003906 Z M 7.863281 5.375 C 8.511719 5.375 8.964844 5.601562 9.226562 6.058594 C 9.488281 6.515625 9.617188 7.164062 9.617188 8.003906 C 9.617188 8.84375 9.488281 9.492188 9.226562 9.945312 C 8.964844 10.398438 8.511719 10.625 7.863281 10.625 C 7.214844 10.625 6.761719 10.398438 6.5 9.945312 C 6.238281 9.492188 6.109375 8.84375 6.109375 8.003906 C 6.109375 7.164062 6.238281 6.515625 6.5 6.058594 C 6.761719 5.601562 7.214844 5.375 7.863281 5.375 Z M 11.128906 8.003906 C 11.128906 8.589844 11.175781 9.035156 11.273438 9.347656 C 11.367188 9.65625 11.566406 9.8125 11.863281 9.8125 C 12.160156 9.8125 12.355469 9.65625 12.445312 9.347656 C 12.539062 9.035156 12.585938 8.589844 12.585938 8.003906 C 12.585938 7.390625 12.539062 6.9375 12.445312 6.640625 C 12.355469 6.347656 12.160156 6.199219 11.863281 6.199219 C 11.566406 6.199219 11.367188 6.347656 11.273438 6.640625 C 11.175781 6.9375 11.128906 7.390625 11.128906 8.003906 Z M 11.863281 5.375 C 12.511719 5.375 12.964844 5.601562 13.226562 6.058594 C 13.488281 6.515625 13.617188 7.164062 13.617188 8.003906 C 13.617188 8.84375 13.488281 9.492188 13.226562 9.945312 C 12.964844 10.398438 12.511719 10.625 11.863281 10.625 C 11.214844 10.625 10.757812 10.398438 10.5 9.945312 C 10.238281 9.492188 10.105469 8.84375 10.105469 8.003906 C 10.105469 7.164062 10.238281 6.515625 10.5 6.058594 C 10.757812 5.601562 11.214844 5.375 11.863281 5.375 Z M 1.882812 4.964844 "/>
</svg>
