<?xml version="1.0" encoding="UTF-8"?>
<svg xmlns="http://www.w3.org/2000/svg" xmlns:xlink="http://www.w3.org/1999/xlink" width="16" height="12.147003" viewBox="0 0 16 12.147003">
<path fill-rule="evenodd" fill="rgb(100%, 100%, 100%)" fill-opacity="1" stroke-width="0.762353" stroke-linecap="round" stroke-linejoin="round" stroke="rgb(0%, 0%, 0%)" stroke-opacity="1" stroke-miterlimit="10" d="M 73.295226 74.429218 L 73.467415 76.206814 L 73.887758 77.812221 L 74.652479 79.422693 L 75.665354 80.860976 L 76.850418 82.132135 L 78.293766 83.06398 L 79.899173 83.823637 L 81.595739 84.249044 L 83.287241 84.416169 L 85.064837 84.249044 L 86.756339 83.823637 L 88.280716 83.06398 L 89.724064 82.132135 L 90.990158 80.860976 L 91.922003 79.422693 L 92.686724 77.812221 L 93.107067 76.206814 L 93.279256 74.429218 L 93.279256 69.430678 L 73.295226 69.430678 Z M 73.295226 74.429218 " transform="matrix(0.771319, 0, 0, 0.771319, -56.241033, -53.260234)"/>
<path fill-rule="nonzero" fill="rgb(0%, 0%, 0%)" fill-opacity="1" d="M 2.902344 3.773438 L 2.902344 3.15625 C 3.183594 3.140625 3.386719 3.121094 3.507812 3.097656 C 3.679688 3.058594 3.832031 2.976562 3.953125 2.855469 C 4.023438 2.777344 4.078125 2.667969 4.121094 2.53125 C 4.144531 2.445312 4.15625 2.378906 4.15625 2.339844 L 4.917969 2.339844 L 4.917969 6.964844 L 3.988281 6.964844 L 3.988281 3.773438 Z M 6.273438 3.964844 C 6.273438 3.476562 6.410156 3.078125 6.695312 2.773438 C 6.984375 2.457031 7.355469 2.300781 7.816406 2.300781 C 8.519531 2.300781 9 2.613281 9.261719 3.242188 C 9.410156 3.597656 9.488281 4.058594 9.488281 4.628906 C 9.488281 5.191406 9.417969 5.660156 9.273438 6.027344 C 9 6.742188 8.5 7.097656 7.777344 7.097656 C 7.433594 7.097656 7.117188 6.996094 6.839844 6.796875 C 6.5625 6.589844 6.40625 6.289062 6.367188 5.894531 L 7.273438 5.894531 C 7.296875 6.03125 7.351562 6.144531 7.441406 6.230469 C 7.539062 6.3125 7.660156 6.351562 7.816406 6.351562 C 8.117188 6.351562 8.332031 6.1875 8.453125 5.855469 C 8.515625 5.671875 8.554688 5.40625 8.574219 5.050781 C 8.492188 5.15625 8.40625 5.238281 8.308594 5.289062 C 8.140625 5.394531 7.929688 5.449219 7.683594 5.449219 C 7.3125 5.449219 6.984375 5.324219 6.695312 5.074219 C 6.410156 4.816406 6.273438 4.445312 6.273438 3.964844 Z M 7.875 4.710938 C 8 4.710938 8.121094 4.675781 8.238281 4.605469 C 8.433594 4.46875 8.539062 4.238281 8.539062 3.917969 C 8.539062 3.652344 8.476562 3.445312 8.355469 3.289062 C 8.238281 3.140625 8.066406 3.0625 7.851562 3.0625 C 7.695312 3.0625 7.566406 3.105469 7.453125 3.195312 C 7.285156 3.332031 7.199219 3.5625 7.199219 3.878906 C 7.199219 4.15625 7.25 4.363281 7.355469 4.507812 C 7.46875 4.644531 7.640625 4.710938 7.875 4.710938 Z M 10.84375 4.699219 C 10.84375 5.230469 10.886719 5.636719 10.976562 5.917969 C 11.0625 6.199219 11.242188 6.339844 11.503906 6.339844 C 11.777344 6.339844 11.953125 6.199219 12.035156 5.917969 C 12.125 5.636719 12.167969 5.230469 12.167969 4.699219 C 12.167969 4.140625 12.125 3.722656 12.035156 3.457031 C 11.953125 3.195312 11.777344 3.0625 11.503906 3.0625 C 11.242188 3.0625 11.0625 3.195312 10.976562 3.457031 C 10.886719 3.722656 10.84375 4.140625 10.84375 4.699219 Z M 11.503906 2.3125 C 12.097656 2.3125 12.511719 2.523438 12.746094 2.941406 C 12.988281 3.351562 13.109375 3.9375 13.109375 4.699219 C 13.109375 5.464844 12.988281 6.054688 12.746094 6.472656 C 12.511719 6.882812 12.097656 7.085938 11.503906 7.085938 C 10.917969 7.085938 10.503906 6.882812 10.265625 6.472656 C 10.027344 6.054688 9.914062 5.464844 9.914062 4.699219 C 9.914062 3.9375 10.027344 3.351562 10.265625 2.941406 C 10.503906 2.523438 10.917969 2.3125 11.503906 2.3125 Z M 2.445312 1.9375 "/>
</svg>
