<?xml version="1.0" encoding="UTF-8"?>
<svg xmlns="http://www.w3.org/2000/svg" xmlns:xlink="http://www.w3.org/1999/xlink" width="16" height="16" viewBox="0 0 16 16">
<rect x="-1.6" y="-1.6" width="19.2" height="19.2" fill="rgb(100%, 100%, 100%)" fill-opacity="1"/>
<path fill-rule="nonzero" fill="rgb(0%, 0%, 0%)" fill-opacity="1" d="M 0.160156 0.160156 L 15.839844 0.160156 L 15.839844 15.839844 L 0.160156 15.839844 Z M 0.160156 0.160156 "/>
<path fill-rule="nonzero" fill="rgb(100%, 100%, 100%)" fill-opacity="1" d="M 1.121094 1.121094 L 14.878906 1.121094 L 14.878906 14.878906 L 1.121094 14.878906 Z M 1.121094 1.121094 "/>
<path fill-rule="nonzero" fill="rgb(0%, 0%, 0%)" fill-opacity="1" d="M 2.382812 6.988281 L 2.382812 6.308594 C 2.699219 6.292969 2.917969 6.273438 3.046875 6.246094 C 3.246094 6.199219 3.410156 6.109375 3.539062 5.976562 C 3.625 5.886719 3.691406 5.765625 3.734375 5.613281 C 3.757812 5.519531 3.773438 5.453125 3.773438 5.410156 L 4.605469 5.410156 L 4.605469 10.5 L 3.578125 10.5 L 3.578125 6.988281 Z M 7.054688 8.9375 C 7.054688 9.140625 7.089844 9.308594 7.152344 9.445312 C 7.273438 9.6875 7.496094 9.8125 7.816406 9.8125 C 8.015625 9.8125 8.183594 9.746094 8.332031 9.609375 C 8.476562 9.476562 8.550781 9.28125 8.550781 9.027344 C 8.550781 8.695312 8.414062 8.472656 8.144531 8.359375 C 7.988281 8.296875 7.746094 8.261719 7.414062 8.261719 L 7.414062 7.546875 C 7.738281 7.542969 7.964844 7.511719 8.09375 7.453125 C 8.316406 7.355469 8.429688 7.15625 8.429688 6.855469 C 8.429688 6.660156 8.371094 6.503906 8.257812 6.382812 C 8.144531 6.261719 7.984375 6.199219 7.777344 6.199219 C 7.542969 6.199219 7.367188 6.273438 7.257812 6.425781 C 7.144531 6.574219 7.09375 6.773438 7.097656 7.023438 L 6.164062 7.023438 C 6.171875 6.769531 6.214844 6.53125 6.292969 6.304688 C 6.375 6.105469 6.503906 5.921875 6.679688 5.753906 C 6.8125 5.632812 6.964844 5.542969 7.148438 5.480469 C 7.328125 5.417969 7.546875 5.382812 7.808594 5.382812 C 8.296875 5.382812 8.691406 5.511719 8.988281 5.761719 C 9.285156 6.011719 9.4375 6.351562 9.4375 6.773438 C 9.4375 7.074219 9.347656 7.328125 9.167969 7.53125 C 9.058594 7.660156 8.941406 7.75 8.816406 7.796875 C 8.910156 7.796875 9.039062 7.875 9.210938 8.03125 C 9.464844 8.269531 9.59375 8.589844 9.59375 9 C 9.59375 9.429688 9.445312 9.808594 9.144531 10.136719 C 8.847656 10.464844 8.40625 10.625 7.820312 10.625 C 7.101562 10.625 6.597656 10.390625 6.316406 9.921875 C 6.171875 9.671875 6.089844 9.34375 6.070312 8.9375 Z M 11.128906 8.003906 C 11.128906 8.589844 11.175781 9.035156 11.273438 9.347656 C 11.367188 9.65625 11.566406 9.8125 11.863281 9.8125 C 12.160156 9.8125 12.355469 9.65625 12.445312 9.347656 C 12.539062 9.035156 12.585938 8.589844 12.585938 8.003906 C 12.585938 7.390625 12.539062 6.9375 12.445312 6.640625 C 12.355469 6.347656 12.160156 6.199219 11.863281 6.199219 C 11.566406 6.199219 11.367188 6.347656 11.273438 6.640625 C 11.175781 6.9375 11.128906 7.390625 11.128906 8.003906 Z M 11.863281 5.375 C 12.511719 5.375 12.964844 5.601562 13.226562 6.058594 C 13.488281 6.515625 13.617188 7.164062 13.617188 8.003906 C 13.617188 8.84375 13.488281 9.492188 13.226562 9.945312 C 12.964844 10.398438 12.511719 10.625 11.863281 10.625 C 11.214844 10.625 10.757812 10.398438 10.5 9.945312 C 10.238281 9.492188 10.105469 8.84375 10.105469 8.003906 C 10.105469 7.164062 10.238281 6.515625 10.5 6.058594 C 10.757812 5.601562 11.214844 5.375 11.863281 5.375 Z M 1.882812 4.964844 "/>
</svg>
