<?xml version="1.0" encoding="UTF-8"?>
<svg xmlns="http://www.w3.org/2000/svg" xmlns:xlink="http://www.w3.org/1999/xlink" width="20" height="20" viewBox="0 0 20 20">
<path fill-rule="nonzero" fill="rgb(100%, 100%, 100%)" fill-opacity="1" d="M 0 10 L 10 0 L 20 10 L 10 20 Z M 0 10 "/>
<path fill-rule="nonzero" fill="rgb(0%, 0%, 0%)" fill-opacity="1" d="M 0.199219 10 L 10 0.199219 L 19.800781 10 L 10 19.796875 Z M 0.199219 10 "/>
<path fill-rule="nonzero" fill="rgb(100%, 100%, 100%)" fill-opacity="1" d="M 1.398438 10 L 10 1.402344 L 18.597656 10 L 10 18.597656 Z M 1.398438 10 "/>
<path fill-rule="nonzero" fill="rgb(0%, 0%, 0%)" fill-opacity="1" d="M 9.761719 7.699219 C 9.554688 7.90625 9.273438 8.261719 8.9375 8.75 C 8.582031 9.253906 8.28125 9.78125 8.039062 10.324219 C 7.832031 10.734375 7.664062 11.222656 7.511719 11.824219 C 7.363281 12.421875 7.289062 12.929688 7.289062 13.320312 L 5.941406 13.320312 C 5.976562 12.121094 6.390625 10.886719 7.136719 9.574219 C 7.589844 8.789062 7.980469 8.207031 8.335938 7.851562 L 4.964844 7.851562 L 4.964844 6.652344 L 9.761719 6.652344 Z M 11.691406 10.023438 C 11.691406 10.773438 11.730469 11.375 11.839844 11.824219 C 11.992188 12.234375 12.253906 12.421875 12.664062 12.421875 C 13.058594 12.421875 13.304688 12.234375 13.414062 11.824219 C 13.566406 11.375 13.640625 10.773438 13.640625 10.023438 C 13.640625 9.238281 13.566406 8.636719 13.414062 8.226562 C 13.304688 7.832031 13.058594 7.625 12.664062 7.625 C 12.253906 7.625 11.992188 7.832031 11.839844 8.226562 C 11.730469 8.636719 11.691406 9.238281 11.691406 10.023438 Z M 12.664062 6.5 C 13.507812 6.5 14.109375 6.839844 14.464844 7.476562 C 14.800781 8.074219 14.988281 8.9375 14.988281 10.023438 C 14.988281 11.128906 14.800781 11.972656 14.464844 12.570312 C 14.109375 13.171875 13.507812 13.472656 12.664062 13.472656 C 11.804688 13.472656 11.203125 13.171875 10.867188 12.570312 C 10.511719 11.972656 10.34375 11.128906 10.34375 10.023438 C 10.34375 8.9375 10.511719 8.074219 10.867188 7.476562 C 11.203125 6.839844 11.804688 6.5 12.664062 6.5 Z M 4.742188 5.976562 "/>
</svg>
