<?xml version="1.0" encoding="UTF-8"?>
<svg xmlns="http://www.w3.org/2000/svg" xmlns:xlink="http://www.w3.org/1999/xlink" width="16" height="16" viewBox="0 0 16 16">
<rect x="-1.6" y="-1.6" width="19.2" height="19.2" fill="rgb(100%, 100%, 100%)" fill-opacity="1"/>
<path fill-rule="nonzero" fill="rgb(0%, 0%, 0%)" fill-opacity="1" d="M 0.160156 0.160156 L 15.839844 0.160156 L 15.839844 15.839844 L 0.160156 15.839844 Z M 0.160156 0.160156 "/>
<path fill-rule="nonzero" fill="rgb(100%, 100%, 100%)" fill-opacity="1" d="M 1.121094 1.121094 L 14.878906 1.121094 L 14.878906 14.878906 L 1.121094 14.878906 Z M 1.121094 1.121094 "/>
<path fill-rule="nonzero" fill="rgb(0%, 0%, 0%)" fill-opacity="1" d="M 3.238281 6.984375 C 3.238281 6.296875 3.4375 5.734375 3.835938 5.308594 C 4.234375 4.878906 4.75 4.664062 5.390625 4.664062 C 6.371094 4.664062 7.042969 5.097656 7.410156 5.96875 C 7.617188 6.460938 7.71875 7.109375 7.71875 7.910156 C 7.71875 8.691406 7.621094 9.34375 7.421875 9.863281 C 7.042969 10.855469 6.34375 11.355469 5.332031 11.355469 C 4.847656 11.355469 4.414062 11.210938 4.027344 10.925781 C 3.644531 10.636719 3.421875 10.222656 3.367188 9.671875 L 4.628906 9.671875 C 4.660156 9.863281 4.738281 10.015625 4.867188 10.136719 C 5 10.253906 5.171875 10.3125 5.390625 10.3125 C 5.808594 10.3125 6.101562 10.082031 6.269531 9.621094 C 6.363281 9.363281 6.417969 8.992188 6.441406 8.503906 C 6.328125 8.648438 6.203125 8.757812 6.074219 8.835938 C 5.835938 8.980469 5.542969 9.050781 5.199219 9.050781 C 4.683594 9.050781 4.230469 8.871094 3.832031 8.519531 C 3.433594 8.164062 3.238281 7.652344 3.238281 6.984375 Z M 5.472656 8.019531 C 5.648438 8.019531 5.8125 7.96875 5.96875 7.867188 C 6.253906 7.683594 6.398438 7.363281 6.398438 6.910156 C 6.398438 6.546875 6.3125 6.257812 6.144531 6.042969 C 5.972656 5.828125 5.738281 5.722656 5.441406 5.722656 C 5.226562 5.722656 5.039062 5.785156 4.886719 5.90625 C 4.644531 6.09375 4.523438 6.417969 4.523438 6.871094 C 4.523438 7.253906 4.601562 7.539062 4.753906 7.730469 C 4.910156 7.921875 5.152344 8.019531 5.472656 8.019531 Z M 9.609375 8.003906 C 9.609375 8.746094 9.671875 9.3125 9.792969 9.707031 C 9.914062 10.097656 10.164062 10.296875 10.539062 10.296875 C 10.917969 10.296875 11.164062 10.097656 11.28125 9.707031 C 11.398438 9.3125 11.457031 8.746094 11.457031 8.003906 C 11.457031 7.226562 11.398438 6.652344 11.28125 6.277344 C 11.164062 5.90625 10.917969 5.71875 10.539062 5.71875 C 10.164062 5.71875 9.914062 5.90625 9.792969 6.277344 C 9.671875 6.652344 9.609375 7.226562 9.609375 8.003906 Z M 10.539062 4.671875 C 11.359375 4.671875 11.9375 4.960938 12.265625 5.539062 C 12.597656 6.117188 12.761719 6.941406 12.761719 8.003906 C 12.761719 9.070312 12.597656 9.890625 12.265625 10.464844 C 11.9375 11.039062 11.359375 11.328125 10.539062 11.328125 C 9.71875 11.328125 9.140625 11.039062 8.8125 10.464844 C 8.480469 9.890625 8.316406 9.070312 8.316406 8.003906 C 8.316406 6.941406 8.480469 6.117188 8.8125 5.539062 C 9.140625 4.960938 9.71875 4.671875 10.539062 4.671875 Z M 2.964844 4.152344 "/>
</svg>
