<?xml version="1.0" encoding="UTF-8"?>
<svg xmlns="http://www.w3.org/2000/svg" xmlns:xlink="http://www.w3.org/1999/xlink" width="16" height="12.147003" viewBox="0 0 16 12.147003">
<path fill-rule="evenodd" fill="rgb(100%, 100%, 100%)" fill-opacity="1" stroke-width="0.762353" stroke-linecap="round" stroke-linejoin="round" stroke="rgb(0%, 0%, 0%)" stroke-opacity="1" stroke-miterlimit="10" d="M 93.279256 79.422693 L 93.107067 77.645097 L 92.686724 76.034625 L 91.922003 74.429218 L 90.909128 72.985871 L 89.724064 71.719776 L 88.280716 70.787931 L 86.675309 70.02321 L 84.978743 69.602867 L 83.287241 69.430678 L 81.509645 69.602867 L 79.818143 70.02321 L 78.293766 70.787931 L 76.850418 71.719776 L 75.584324 72.985871 L 74.652479 74.429218 L 73.887758 76.034625 L 73.467415 77.645097 L 73.295226 79.422693 L 73.295226 84.416169 L 93.279256 84.416169 Z M 93.279256 79.422693 " transform="matrix(0.771319, 0, 0, 0.771319, -56.241033, -53.260234)"/>
<path fill-rule="nonzero" fill="rgb(0%, 0%, 0%)" fill-opacity="1" d="M 2.902344 6.199219 L 2.902344 5.585938 C 3.183594 5.570312 3.386719 5.550781 3.507812 5.527344 C 3.679688 5.488281 3.832031 5.40625 3.953125 5.285156 C 4.023438 5.207031 4.078125 5.097656 4.121094 4.960938 C 4.144531 4.871094 4.15625 4.808594 4.15625 4.765625 L 4.917969 4.765625 L 4.917969 9.394531 L 3.988281 9.394531 L 3.988281 6.199219 Z M 9.527344 5.539062 C 9.386719 5.675781 9.199219 5.917969 8.960938 6.261719 C 8.71875 6.597656 8.511719 6.953125 8.34375 7.320312 C 8.214844 7.609375 8.097656 7.964844 7.996094 8.382812 C 7.890625 8.792969 7.839844 9.128906 7.839844 9.394531 L 6.898438 9.394531 C 6.921875 8.570312 7.195312 7.703125 7.71875 6.804688 C 8.046875 6.25 8.324219 5.863281 8.550781 5.644531 L 6.246094 5.644531 L 6.261719 4.828125 L 9.527344 4.828125 Z M 10.84375 7.128906 C 10.84375 7.660156 10.886719 8.066406 10.976562 8.347656 C 11.0625 8.628906 11.242188 8.769531 11.503906 8.769531 C 11.777344 8.769531 11.953125 8.628906 12.035156 8.347656 C 12.125 8.066406 12.167969 7.660156 12.167969 7.128906 C 12.167969 6.566406 12.125 6.152344 12.035156 5.886719 C 11.953125 5.621094 11.777344 5.488281 11.503906 5.488281 C 11.242188 5.488281 11.0625 5.621094 10.976562 5.886719 C 10.886719 6.152344 10.84375 6.566406 10.84375 7.128906 Z M 11.503906 4.742188 C 12.097656 4.742188 12.511719 4.953125 12.746094 5.367188 C 12.988281 5.777344 13.109375 6.367188 13.109375 7.128906 C 13.109375 7.894531 12.988281 8.484375 12.746094 8.898438 C 12.511719 9.308594 12.097656 9.515625 11.503906 9.515625 C 10.917969 9.515625 10.503906 9.308594 10.265625 8.898438 C 10.027344 8.484375 9.914062 7.894531 9.914062 7.128906 C 9.914062 6.367188 10.027344 5.777344 10.265625 5.367188 C 10.503906 4.953125 10.917969 4.742188 11.503906 4.742188 Z M 2.445312 4.367188 "/>
</svg>
