<?xml version="1.0" encoding="UTF-8"?>
<svg xmlns="http://www.w3.org/2000/svg" xmlns:xlink="http://www.w3.org/1999/xlink" width="16" height="12.147003" viewBox="0 0 16 12.147003">
<path fill-rule="evenodd" fill="rgb(100%, 100%, 100%)" fill-opacity="1" stroke-width="0.762353" stroke-linecap="round" stroke-linejoin="round" stroke="rgb(0%, 0%, 0%)" stroke-opacity="1" stroke-miterlimit="10" d="M 93.279256 79.422693 L 93.107067 77.645097 L 92.686724 76.034625 L 91.922003 74.429218 L 90.909128 72.985871 L 89.724064 71.719776 L 88.280716 70.787931 L 86.675309 70.02321 L 84.978743 69.602867 L 83.287241 69.430678 L 81.509645 69.602867 L 79.818143 70.02321 L 78.293766 70.787931 L 76.850418 71.719776 L 75.584324 72.985871 L 74.652479 74.429218 L 73.887758 76.034625 L 73.467415 77.645097 L 73.295226 79.422693 L 73.295226 84.416169 L 93.279256 84.416169 Z M 93.279256 79.422693 " transform="matrix(0.771319, 0, 0, 0.771319, -56.241033, -53.260234)"/>
<path fill-rule="nonzero" fill="rgb(0%, 0%, 0%)" fill-opacity="1" d="M 2.902344 6.144531 L 2.902344 5.527344 C 3.183594 5.515625 3.386719 5.492188 3.507812 5.46875 C 3.679688 5.429688 3.832031 5.347656 3.953125 5.226562 C 4.023438 5.148438 4.078125 5.039062 4.121094 4.902344 C 4.144531 4.816406 4.15625 4.75 4.15625 4.710938 L 4.917969 4.710938 L 4.917969 9.335938 L 3.988281 9.335938 L 3.988281 6.144531 Z M 7.199219 7.878906 C 7.199219 8.121094 7.261719 8.320312 7.394531 8.480469 C 7.527344 8.644531 7.699219 8.722656 7.910156 8.722656 C 8.109375 8.722656 8.265625 8.648438 8.382812 8.492188 C 8.5 8.34375 8.5625 8.144531 8.5625 7.902344 C 8.5625 7.632812 8.492188 7.421875 8.355469 7.277344 C 8.226562 7.132812 8.066406 7.058594 7.875 7.058594 C 7.722656 7.058594 7.585938 7.109375 7.464844 7.203125 C 7.289062 7.34375 7.199219 7.566406 7.199219 7.878906 Z M 8.476562 5.878906 C 8.476562 5.804688 8.449219 5.722656 8.394531 5.625 C 8.289062 5.480469 8.140625 5.410156 7.945312 5.410156 C 7.648438 5.410156 7.433594 5.578125 7.308594 5.914062 C 7.242188 6.101562 7.199219 6.371094 7.175781 6.722656 C 7.289062 6.585938 7.417969 6.488281 7.5625 6.433594 C 7.710938 6.371094 7.886719 6.335938 8.078125 6.335938 C 8.488281 6.335938 8.820312 6.476562 9.078125 6.757812 C 9.34375 7.03125 9.476562 7.382812 9.476562 7.820312 C 9.476562 8.253906 9.347656 8.636719 9.09375 8.964844 C 8.832031 9.296875 8.433594 9.457031 7.898438 9.457031 C 7.3125 9.457031 6.878906 9.214844 6.609375 8.722656 C 6.390625 8.347656 6.285156 7.855469 6.285156 7.253906 C 6.285156 6.898438 6.300781 6.613281 6.332031 6.394531 C 6.378906 6.003906 6.480469 5.671875 6.632812 5.410156 C 6.769531 5.183594 6.941406 5.007812 7.152344 4.878906 C 7.367188 4.742188 7.625 4.671875 7.921875 4.671875 C 8.347656 4.671875 8.6875 4.78125 8.949219 5 C 9.203125 5.214844 9.347656 5.511719 9.382812 5.878906 Z M 10.84375 7.070312 C 10.84375 7.601562 10.886719 8.007812 10.976562 8.289062 C 11.0625 8.570312 11.242188 8.710938 11.503906 8.710938 C 11.777344 8.710938 11.953125 8.570312 12.035156 8.289062 C 12.125 8.007812 12.167969 7.601562 12.167969 7.070312 C 12.167969 6.511719 12.125 6.09375 12.035156 5.828125 C 11.953125 5.566406 11.777344 5.433594 11.503906 5.433594 C 11.242188 5.433594 11.0625 5.566406 10.976562 5.828125 C 10.886719 6.09375 10.84375 6.511719 10.84375 7.070312 Z M 11.503906 4.683594 C 12.097656 4.683594 12.511719 4.894531 12.746094 5.3125 C 12.988281 5.722656 13.109375 6.308594 13.109375 7.070312 C 13.109375 7.835938 12.988281 8.425781 12.746094 8.84375 C 12.511719 9.253906 12.097656 9.457031 11.503906 9.457031 C 10.917969 9.457031 10.503906 9.253906 10.265625 8.84375 C 10.027344 8.425781 9.914062 7.835938 9.914062 7.070312 C 9.914062 6.308594 10.027344 5.722656 10.265625 5.3125 C 10.503906 4.894531 10.917969 4.683594 11.503906 4.683594 Z M 2.445312 4.308594 "/>
</svg>
