<?xml version="1.0" encoding="UTF-8"?>
<svg xmlns="http://www.w3.org/2000/svg" xmlns:xlink="http://www.w3.org/1999/xlink" width="20" height="20" viewBox="0 0 20 20">
<path fill-rule="nonzero" fill="rgb(100%, 100%, 100%)" fill-opacity="1" d="M 0 10 L 10 0 L 20 10 L 10 20 Z M 0 10 "/>
<path fill-rule="nonzero" fill="rgb(0%, 0%, 0%)" fill-opacity="1" d="M 0.199219 10 L 10 0.199219 L 19.800781 10 L 10 19.796875 Z M 0.199219 10 "/>
<path fill-rule="nonzero" fill="rgb(100%, 100%, 100%)" fill-opacity="1" d="M 1.398438 10 L 10 1.402344 L 18.597656 10 L 10 18.597656 Z M 1.398438 10 "/>
<path fill-rule="nonzero" fill="rgb(0%, 0%, 0%)" fill-opacity="1" d="M 6.371094 11.375 C 6.371094 11.730469 6.445312 12.011719 6.59375 12.199219 C 6.78125 12.347656 7.046875 12.421875 7.34375 12.421875 C 7.644531 12.421875 7.871094 12.347656 8.019531 12.199219 C 8.207031 12.011719 8.320312 11.730469 8.320312 11.375 C 8.320312 11.035156 8.207031 10.773438 8.019531 10.625 C 7.871094 10.4375 7.644531 10.324219 7.34375 10.324219 C 7.046875 10.324219 6.78125 10.4375 6.59375 10.625 C 6.445312 10.773438 6.371094 11.035156 6.371094 11.375 Z M 4.945312 11.449219 C 4.945312 11.109375 5.019531 10.773438 5.171875 10.472656 C 5.359375 10.136719 5.640625 9.875 5.996094 9.722656 C 5.640625 9.535156 5.414062 9.3125 5.320312 9.050781 C 5.207031 8.804688 5.171875 8.5625 5.171875 8.300781 C 5.171875 7.8125 5.339844 7.402344 5.695312 7.101562 C 6.089844 6.765625 6.632812 6.578125 7.34375 6.578125 C 7.980469 6.578125 8.488281 6.765625 8.84375 7.101562 C 9.238281 7.402344 9.441406 7.8125 9.441406 8.300781 C 9.441406 8.5625 9.386719 8.804688 9.292969 9.050781 C 9.179688 9.3125 8.957031 9.535156 8.617188 9.722656 C 8.957031 9.875 9.21875 10.136719 9.367188 10.472656 C 9.554688 10.773438 9.667969 11.109375 9.667969 11.449219 C 9.667969 12.011719 9.441406 12.480469 8.992188 12.871094 C 8.582031 13.285156 8.019531 13.472656 7.269531 13.472656 C 6.519531 13.472656 5.941406 13.285156 5.546875 12.871094 C 5.132812 12.480469 4.945312 12.011719 4.945312 11.449219 Z M 6.445312 8.449219 C 6.445312 8.710938 6.519531 8.898438 6.671875 9.050781 C 6.820312 9.199219 7.046875 9.273438 7.34375 9.273438 C 7.589844 9.273438 7.792969 9.199219 7.945312 9.050781 C 8.09375 8.898438 8.167969 8.710938 8.167969 8.449219 C 8.167969 8.207031 8.09375 8 7.945312 7.851562 C 7.792969 7.699219 7.589844 7.625 7.34375 7.625 C 7.046875 7.625 6.820312 7.699219 6.671875 7.851562 C 6.519531 8 6.445312 8.207031 6.445312 8.449219 Z M 11.671875 10.023438 C 11.671875 10.773438 11.710938 11.375 11.824219 11.824219 C 11.972656 12.234375 12.234375 12.421875 12.648438 12.421875 C 13.039062 12.421875 13.285156 12.234375 13.398438 11.824219 C 13.546875 11.375 13.621094 10.773438 13.621094 10.023438 C 13.621094 9.238281 13.546875 8.636719 13.398438 8.226562 C 13.285156 7.832031 13.039062 7.625 12.648438 7.625 C 12.234375 7.625 11.972656 7.832031 11.824219 8.226562 C 11.710938 8.636719 11.671875 9.238281 11.671875 10.023438 Z M 12.648438 6.5 C 13.492188 6.5 14.089844 6.839844 14.445312 7.476562 C 14.78125 8.074219 14.96875 8.9375 14.96875 10.023438 C 14.96875 11.128906 14.78125 11.972656 14.445312 12.570312 C 14.089844 13.171875 13.492188 13.472656 12.648438 13.472656 C 11.785156 13.472656 11.1875 13.171875 10.847656 12.570312 C 10.492188 11.972656 10.324219 11.128906 10.324219 10.023438 C 10.324219 8.9375 10.492188 8.074219 10.847656 7.476562 C 11.1875 6.839844 11.785156 6.5 12.648438 6.5 Z M 4.722656 5.976562 "/>
</svg>
