<?xml version="1.0" encoding="UTF-8"?>
<svg xmlns="http://www.w3.org/2000/svg" xmlns:xlink="http://www.w3.org/1999/xlink" width="16" height="12.147003" viewBox="0 0 16 12.147003">
<path fill-rule="evenodd" fill="rgb(100%, 100%, 100%)" fill-opacity="1" stroke-width="0.762353" stroke-linecap="round" stroke-linejoin="round" stroke="rgb(0%, 0%, 0%)" stroke-opacity="1" stroke-miterlimit="10" d="M 73.295226 74.429218 L 73.467415 76.206814 L 73.887758 77.812221 L 74.652479 79.422693 L 75.665354 80.860976 L 76.850418 82.132135 L 78.293766 83.06398 L 79.899173 83.823637 L 81.595739 84.249044 L 83.287241 84.416169 L 85.064837 84.249044 L 86.756339 83.823637 L 88.280716 83.06398 L 89.724064 82.132135 L 90.990158 80.860976 L 91.922003 79.422693 L 92.686724 77.812221 L 93.107067 76.206814 L 93.279256 74.429218 L 93.279256 69.430678 L 73.295226 69.430678 Z M 73.295226 74.429218 " transform="matrix(0.771319, 0, 0, 0.771319, -56.241033, -53.260234)"/>
<path fill-rule="nonzero" fill="rgb(0%, 0%, 0%)" fill-opacity="1" d="M 2.902344 3.773438 L 2.902344 3.15625 C 3.183594 3.140625 3.386719 3.121094 3.507812 3.097656 C 3.679688 3.058594 3.832031 2.976562 3.953125 2.855469 C 4.023438 2.777344 4.078125 2.667969 4.121094 2.53125 C 4.144531 2.445312 4.15625 2.378906 4.15625 2.339844 L 4.917969 2.339844 L 4.917969 6.964844 L 3.988281 6.964844 L 3.988281 3.773438 Z M 9.527344 3.109375 C 9.386719 3.246094 9.199219 3.488281 8.960938 3.832031 C 8.71875 4.167969 8.511719 4.527344 8.34375 4.894531 C 8.214844 5.183594 8.097656 5.539062 7.996094 5.953125 C 7.890625 6.363281 7.839844 6.699219 7.839844 6.964844 L 6.898438 6.964844 C 6.921875 6.140625 7.195312 5.277344 7.71875 4.375 C 8.046875 3.820312 8.324219 3.433594 8.550781 3.21875 L 6.246094 3.21875 L 6.261719 2.398438 L 9.527344 2.398438 Z M 10.84375 4.699219 C 10.84375 5.230469 10.886719 5.636719 10.976562 5.917969 C 11.0625 6.199219 11.242188 6.339844 11.503906 6.339844 C 11.777344 6.339844 11.953125 6.199219 12.035156 5.917969 C 12.125 5.636719 12.167969 5.230469 12.167969 4.699219 C 12.167969 4.140625 12.125 3.722656 12.035156 3.457031 C 11.953125 3.195312 11.777344 3.0625 11.503906 3.0625 C 11.242188 3.0625 11.0625 3.195312 10.976562 3.457031 C 10.886719 3.722656 10.84375 4.140625 10.84375 4.699219 Z M 11.503906 2.3125 C 12.097656 2.3125 12.511719 2.523438 12.746094 2.941406 C 12.988281 3.351562 13.109375 3.9375 13.109375 4.699219 C 13.109375 5.464844 12.988281 6.054688 12.746094 6.472656 C 12.511719 6.882812 12.097656 7.085938 11.503906 7.085938 C 10.917969 7.085938 10.503906 6.882812 10.265625 6.472656 C 10.027344 6.054688 9.914062 5.464844 9.914062 4.699219 C 9.914062 3.9375 10.027344 3.351562 10.265625 2.941406 C 10.503906 2.523438 10.917969 2.3125 11.503906 2.3125 Z M 2.445312 1.9375 "/>
</svg>
