<?xml version="1.0" encoding="UTF-8"?>
<svg xmlns="http://www.w3.org/2000/svg" xmlns:xlink="http://www.w3.org/1999/xlink" width="20" height="20" viewBox="0 0 20 20">
<path fill-rule="nonzero" fill="rgb(100%, 100%, 100%)" fill-opacity="1" d="M 0 10 L 10 0 L 20 10 L 10 20 Z M 0 10 "/>
<path fill-rule="nonzero" fill="rgb(0%, 0%, 0%)" fill-opacity="1" d="M 0.199219 10 L 10 0.199219 L 19.800781 10 L 10 19.796875 Z M 0.199219 10 "/>
<path fill-rule="nonzero" fill="rgb(100%, 100%, 100%)" fill-opacity="1" d="M 1.398438 10 L 10 1.402344 L 18.597656 10 L 10 18.597656 Z M 1.398438 10 "/>
<path fill-rule="nonzero" fill="rgb(0%, 0%, 0%)" fill-opacity="1" d="M 5.019531 8.976562 C 5.019531 8.226562 5.207031 7.625 5.621094 7.175781 C 6.015625 6.726562 6.558594 6.5 7.269531 6.5 C 8.261719 6.5 8.957031 6.988281 9.367188 7.925781 C 9.554688 8.429688 9.667969 9.105469 9.667969 9.949219 C 9.667969 10.753906 9.554688 11.429688 9.367188 11.972656 C 8.957031 13.023438 8.242188 13.546875 7.195312 13.546875 C 6.6875 13.546875 6.238281 13.398438 5.847656 13.097656 C 5.433594 12.796875 5.207031 12.347656 5.171875 11.746094 L 6.445312 11.746094 C 6.484375 11.953125 6.558594 12.121094 6.671875 12.273438 C 6.820312 12.386719 7.007812 12.421875 7.269531 12.421875 C 7.71875 12.421875 8.019531 12.179688 8.167969 11.671875 C 8.261719 11.429688 8.320312 11.054688 8.320312 10.546875 C 8.207031 10.699219 8.09375 10.828125 7.945312 10.921875 C 7.683594 11.035156 7.382812 11.074219 7.046875 11.074219 C 6.484375 11.074219 6.015625 10.90625 5.621094 10.546875 C 5.207031 10.210938 5.019531 9.6875 5.019531 8.976562 Z M 7.34375 10.023438 C 7.53125 10.023438 7.71875 9.988281 7.871094 9.875 C 8.167969 9.6875 8.320312 9.347656 8.320312 8.898438 C 8.320312 8.507812 8.207031 8.207031 8.019531 8 C 7.871094 7.757812 7.644531 7.625 7.34375 7.625 C 7.082031 7.625 6.894531 7.699219 6.746094 7.851562 C 6.484375 8.058594 6.371094 8.375 6.371094 8.824219 C 6.371094 9.238281 6.445312 9.535156 6.59375 9.722656 C 6.746094 9.929688 6.988281 10.023438 7.34375 10.023438 Z M 11.671875 10.023438 C 11.671875 10.773438 11.710938 11.375 11.824219 11.824219 C 11.972656 12.234375 12.234375 12.421875 12.648438 12.421875 C 13.039062 12.421875 13.285156 12.234375 13.398438 11.824219 C 13.546875 11.375 13.621094 10.773438 13.621094 10.023438 C 13.621094 9.238281 13.546875 8.636719 13.398438 8.226562 C 13.285156 7.832031 13.039062 7.625 12.648438 7.625 C 12.234375 7.625 11.972656 7.832031 11.824219 8.226562 C 11.710938 8.636719 11.671875 9.238281 11.671875 10.023438 Z M 12.648438 6.5 C 13.492188 6.5 14.089844 6.839844 14.445312 7.476562 C 14.78125 8.074219 14.96875 8.9375 14.96875 10.023438 C 14.96875 11.128906 14.78125 11.972656 14.445312 12.570312 C 14.089844 13.171875 13.492188 13.472656 12.648438 13.472656 C 11.785156 13.472656 11.1875 13.171875 10.847656 12.570312 C 10.492188 11.972656 10.324219 11.128906 10.324219 10.023438 C 10.324219 8.9375 10.492188 8.074219 10.847656 7.476562 C 11.1875 6.839844 11.785156 6.5 12.648438 6.5 Z M 4.722656 5.976562 "/>
</svg>
