<?xml version="1.0" encoding="UTF-8"?>
<svg xmlns="http://www.w3.org/2000/svg" xmlns:xlink="http://www.w3.org/1999/xlink" width="16" height="31.68" viewBox="0 0 16 31.68">
<path fill-rule="nonzero" fill="rgb(100%, 100%, 100%)" fill-opacity="1" d="M 0 0 L 16 0 L 16 16 L 0 16 Z M 0 0 "/>
<path fill-rule="nonzero" fill="rgb(0%, 0%, 0%)" fill-opacity="1" d="M 0.160156 0.160156 L 15.839844 0.160156 L 15.839844 15.839844 L 0.160156 15.839844 Z M 0.160156 0.160156 "/>
<path fill-rule="nonzero" fill="rgb(100%, 100%, 100%)" fill-opacity="1" d="M 1.121094 1.121094 L 14.878906 1.121094 L 14.878906 14.878906 L 1.121094 14.878906 Z M 1.121094 1.121094 "/>
<path fill-rule="nonzero" fill="rgb(0%, 0%, 0%)" fill-opacity="1" d="M 0.160156 16 L 15.839844 16 L 15.839844 31.679688 L 0.160156 31.679688 Z M 0.160156 16 "/>
<path fill-rule="nonzero" fill="rgb(100%, 100%, 100%)" fill-opacity="1" d="M 1.597656 17.4375 L 14.402344 17.4375 L 14.402344 30.242188 L 1.597656 30.242188 Z M 1.597656 17.4375 "/>
<path fill-rule="nonzero" fill="rgb(0%, 0%, 0%)" fill-opacity="1" d="M 2.382812 18.222656 L 13.617188 18.222656 L 13.617188 29.457031 L 2.382812 29.457031 Z M 2.382812 18.222656 "/>
<path fill-rule="nonzero" fill="rgb(100%, 100%, 100%)" fill-opacity="1" d="M 3.953125 19.429688 L 12.03125 19.429688 L 12.03125 21.410156 L 3.953125 21.410156 Z M 3.953125 19.429688 "/>
<path fill-rule="nonzero" fill="rgb(100%, 100%, 100%)" fill-opacity="1" d="M 3.960938 26.269531 L 12.042969 26.269531 L 12.042969 28.25 L 3.960938 28.25 Z M 3.960938 26.269531 "/>
<path fill-rule="nonzero" fill="rgb(100%, 100%, 100%)" fill-opacity="1" d="M 9.347656 21.410156 L 12.03125 21.410156 L 12.035156 21.738281 L 6.632812 26.269531 L 3.960938 26.269531 L 3.953125 25.941406 Z M 9.347656 21.410156 "/>
<path fill-rule="nonzero" fill="rgb(100%, 100%, 100%)" fill-opacity="1" d="M 9.347656 19.429688 L 12.035156 19.429688 L 12.035156 21.738281 L 9.347656 21.738281 Z M 9.347656 19.429688 "/>
<path fill-rule="nonzero" fill="rgb(100%, 100%, 100%)" fill-opacity="1" d="M 3.953125 25.941406 L 6.632812 25.941406 L 6.632812 28.207031 L 3.953125 28.207031 Z M 3.953125 25.941406 "/>
<path fill-rule="nonzero" fill="rgb(0%, 0%, 0%)" fill-opacity="1" d="M 4.484375 9.441406 C 4.535156 9.71875 4.632812 9.929688 4.773438 10.078125 C 4.914062 10.230469 5.125 10.304688 5.394531 10.304688 C 5.710938 10.304688 5.949219 10.195312 6.113281 9.972656 C 6.277344 9.75 6.359375 9.472656 6.359375 9.140625 C 6.359375 8.808594 6.285156 8.53125 6.128906 8.304688 C 5.976562 8.078125 5.734375 7.964844 5.410156 7.964844 C 5.253906 7.964844 5.121094 7.984375 5.007812 8.023438 C 4.808594 8.09375 4.660156 8.226562 4.558594 8.417969 L 3.421875 8.363281 L 3.875 4.800781 L 7.429688 4.800781 L 7.429688 5.878906 L 4.792969 5.878906 L 4.558594 7.289062 C 4.753906 7.160156 4.90625 7.078125 5.019531 7.035156 C 5.203125 6.96875 5.425781 6.933594 5.6875 6.933594 C 6.222656 6.933594 6.6875 7.113281 7.085938 7.472656 C 7.484375 7.828125 7.683594 8.351562 7.683594 9.035156 C 7.683594 9.632812 7.492188 10.164062 7.109375 10.632812 C 6.726562 11.101562 6.152344 11.335938 5.390625 11.335938 C 4.777344 11.335938 4.273438 11.171875 3.878906 10.84375 C 3.484375 10.511719 3.265625 10.046875 3.222656 9.441406 Z M 9.625 8.003906 C 9.625 8.746094 9.6875 9.3125 9.808594 9.707031 C 9.929688 10.097656 10.179688 10.296875 10.554688 10.296875 C 10.933594 10.296875 11.179688 10.097656 11.296875 9.707031 C 11.414062 9.3125 11.472656 8.746094 11.472656 8.003906 C 11.472656 7.226562 11.414062 6.652344 11.296875 6.277344 C 11.179688 5.90625 10.933594 5.71875 10.554688 5.71875 C 10.179688 5.71875 9.929688 5.90625 9.808594 6.277344 C 9.6875 6.652344 9.625 7.226562 9.625 8.003906 Z M 10.554688 4.671875 C 11.375 4.671875 11.953125 4.960938 12.28125 5.539062 C 12.613281 6.117188 12.777344 6.941406 12.777344 8.003906 C 12.777344 9.070312 12.613281 9.890625 12.28125 10.464844 C 11.953125 11.039062 11.375 11.328125 10.554688 11.328125 C 9.734375 11.328125 9.15625 11.039062 8.828125 10.464844 C 8.496094 9.890625 8.332031 9.070312 8.332031 8.003906 C 8.332031 6.941406 8.496094 6.117188 8.828125 5.539062 C 9.15625 4.960938 9.734375 4.671875 10.554688 4.671875 Z M 2.980469 4.152344 "/>
</svg>
