<?xml version="1.0" encoding="UTF-8"?>
<svg xmlns="http://www.w3.org/2000/svg" xmlns:xlink="http://www.w3.org/1999/xlink" width="16" height="28.147003" viewBox="0 0 16 28.147003">
<path fill-rule="evenodd" fill="rgb(100%, 100%, 100%)" fill-opacity="1" stroke-width="0.762353" stroke-linecap="round" stroke-linejoin="round" stroke="rgb(0%, 0%, 0%)" stroke-opacity="1" stroke-miterlimit="10" d="M 73.295226 74.429218 L 73.467415 76.206814 L 73.887758 77.812221 L 74.652479 79.422693 L 75.665354 80.860976 L 76.850418 82.132135 L 78.293766 83.06398 L 79.899173 83.823637 L 81.595739 84.249044 L 83.287241 84.416169 L 85.064837 84.249044 L 86.756339 83.823637 L 88.280716 83.06398 L 89.724064 82.132135 L 90.990158 80.860976 L 91.922003 79.422693 L 92.686724 77.812221 L 93.107067 76.206814 L 93.279256 74.429218 L 93.279256 69.430678 L 73.295226 69.430678 Z M 73.295226 74.429218 " transform="matrix(0.771319, 0, 0, 0.771319, -56.241033, -53.260234)"/>
<path fill-rule="nonzero" fill="rgb(0%, 0%, 0%)" fill-opacity="1" d="M 0 12.148438 L 16 12.148438 L 16 28.148438 L 0 28.148438 Z M 0 12.148438 "/>
<path fill-rule="nonzero" fill="rgb(100%, 100%, 100%)" fill-opacity="1" d="M 1.46875 13.613281 L 14.53125 13.613281 L 14.53125 26.679688 L 1.46875 26.679688 Z M 1.46875 13.613281 "/>
<path fill-rule="nonzero" fill="rgb(0%, 0%, 0%)" fill-opacity="1" d="M 2.269531 14.414062 L 13.730469 14.414062 L 13.730469 25.878906 L 2.269531 25.878906 Z M 2.269531 14.414062 "/>
<path fill-rule="nonzero" fill="rgb(100%, 100%, 100%)" fill-opacity="1" d="M 3.871094 15.648438 L 12.113281 15.648438 L 12.113281 17.667969 L 3.871094 17.667969 Z M 3.871094 15.648438 "/>
<path fill-rule="nonzero" fill="rgb(100%, 100%, 100%)" fill-opacity="1" d="M 3.878906 22.625 L 12.125 22.625 L 12.125 24.648438 L 3.878906 24.648438 Z M 3.878906 22.625 "/>
<path fill-rule="nonzero" fill="rgb(100%, 100%, 100%)" fill-opacity="1" d="M 9.375 17.667969 L 12.113281 17.667969 L 12.117188 18.003906 L 6.605469 22.625 L 3.878906 22.625 L 3.871094 22.292969 Z M 9.375 17.667969 "/>
<path fill-rule="nonzero" fill="rgb(100%, 100%, 100%)" fill-opacity="1" d="M 9.375 15.648438 L 12.117188 15.648438 L 12.117188 18.003906 L 9.375 18.003906 Z M 9.375 15.648438 "/>
<path fill-rule="nonzero" fill="rgb(100%, 100%, 100%)" fill-opacity="1" d="M 3.871094 22.292969 L 6.605469 22.292969 L 6.605469 24.601562 L 3.871094 24.601562 Z M 3.871094 22.292969 "/>
</svg>
