<?xml version="1.0" encoding="UTF-8"?>
<svg xmlns="http://www.w3.org/2000/svg" xmlns:xlink="http://www.w3.org/1999/xlink" width="16" height="31.68" viewBox="0 0 16 31.68">
<path fill-rule="nonzero" fill="rgb(100%, 100%, 100%)" fill-opacity="1" d="M 0 0 L 16 0 L 16 16 L 0 16 Z M 0 0 "/>
<path fill-rule="nonzero" fill="rgb(0%, 0%, 0%)" fill-opacity="1" d="M 0.160156 0.160156 L 15.839844 0.160156 L 15.839844 15.839844 L 0.160156 15.839844 Z M 0.160156 0.160156 "/>
<path fill-rule="nonzero" fill="rgb(100%, 100%, 100%)" fill-opacity="1" d="M 1.121094 1.121094 L 14.878906 1.121094 L 14.878906 14.878906 L 1.121094 14.878906 Z M 1.121094 1.121094 "/>
<path fill-rule="nonzero" fill="rgb(0%, 0%, 0%)" fill-opacity="1" d="M 0.160156 16 L 15.839844 16 L 15.839844 31.679688 L 0.160156 31.679688 Z M 0.160156 16 "/>
<path fill-rule="nonzero" fill="rgb(100%, 100%, 100%)" fill-opacity="1" d="M 1.597656 17.4375 L 14.402344 17.4375 L 14.402344 30.242188 L 1.597656 30.242188 Z M 1.597656 17.4375 "/>
<path fill-rule="nonzero" fill="rgb(0%, 0%, 0%)" fill-opacity="1" d="M 2.382812 18.222656 L 13.617188 18.222656 L 13.617188 29.457031 L 2.382812 29.457031 Z M 2.382812 18.222656 "/>
<path fill-rule="nonzero" fill="rgb(100%, 100%, 100%)" fill-opacity="1" d="M 3.953125 19.429688 L 12.03125 19.429688 L 12.03125 21.410156 L 3.953125 21.410156 Z M 3.953125 19.429688 "/>
<path fill-rule="nonzero" fill="rgb(100%, 100%, 100%)" fill-opacity="1" d="M 3.960938 26.269531 L 12.042969 26.269531 L 12.042969 28.25 L 3.960938 28.25 Z M 3.960938 26.269531 "/>
<path fill-rule="nonzero" fill="rgb(100%, 100%, 100%)" fill-opacity="1" d="M 9.347656 21.410156 L 12.03125 21.410156 L 12.035156 21.738281 L 6.632812 26.269531 L 3.960938 26.269531 L 3.953125 25.941406 Z M 9.347656 21.410156 "/>
<path fill-rule="nonzero" fill="rgb(100%, 100%, 100%)" fill-opacity="1" d="M 9.347656 19.429688 L 12.035156 19.429688 L 12.035156 21.738281 L 9.347656 21.738281 Z M 9.347656 19.429688 "/>
<path fill-rule="nonzero" fill="rgb(100%, 100%, 100%)" fill-opacity="1" d="M 3.953125 25.941406 L 6.632812 25.941406 L 6.632812 28.207031 L 3.953125 28.207031 Z M 3.953125 25.941406 "/>
<path fill-rule="nonzero" fill="rgb(0%, 0%, 0%)" fill-opacity="1" d="M 2.578125 6.988281 L 2.578125 6.308594 C 2.894531 6.292969 3.117188 6.273438 3.242188 6.246094 C 3.445312 6.199219 3.609375 6.109375 3.734375 5.976562 C 3.820312 5.886719 3.886719 5.765625 3.929688 5.613281 C 3.957031 5.519531 3.96875 5.453125 3.96875 5.410156 L 4.800781 5.410156 L 4.800781 10.5 L 3.777344 10.5 L 3.777344 6.988281 Z M 6.183594 6.988281 L 6.183594 6.308594 C 6.5 6.292969 6.722656 6.273438 6.847656 6.246094 C 7.050781 6.199219 7.214844 6.109375 7.339844 5.976562 C 7.425781 5.886719 7.492188 5.765625 7.535156 5.613281 C 7.5625 5.519531 7.574219 5.453125 7.574219 5.410156 L 8.40625 5.410156 L 8.40625 10.5 L 7.382812 10.5 L 7.382812 6.988281 Z M 10.933594 8.003906 C 10.933594 8.589844 10.980469 9.035156 11.074219 9.347656 C 11.171875 9.65625 11.367188 9.8125 11.664062 9.8125 C 11.960938 9.8125 12.15625 9.65625 12.25 9.347656 C 12.34375 9.035156 12.390625 8.589844 12.390625 8.003906 C 12.390625 7.390625 12.34375 6.9375 12.25 6.640625 C 12.15625 6.347656 11.960938 6.199219 11.664062 6.199219 C 11.367188 6.199219 11.171875 6.347656 11.074219 6.640625 C 10.980469 6.9375 10.933594 7.390625 10.933594 8.003906 Z M 11.664062 5.375 C 12.3125 5.375 12.769531 5.601562 13.03125 6.058594 C 13.289062 6.515625 13.421875 7.164062 13.421875 8.003906 C 13.421875 8.84375 13.289062 9.492188 13.03125 9.945312 C 12.769531 10.398438 12.3125 10.625 11.664062 10.625 C 11.015625 10.625 10.5625 10.398438 10.300781 9.945312 C 10.039062 9.492188 9.910156 8.84375 9.910156 8.003906 C 9.910156 7.164062 10.039062 6.515625 10.300781 6.058594 C 10.5625 5.601562 11.015625 5.375 11.664062 5.375 Z M 2.082031 4.964844 "/>
</svg>
