<?xml version="1.0" encoding="UTF-8"?>
<svg xmlns="http://www.w3.org/2000/svg" xmlns:xlink="http://www.w3.org/1999/xlink" width="16" height="28.147003" viewBox="0 0 16 28.147003">
<path fill-rule="evenodd" fill="rgb(100%, 100%, 100%)" fill-opacity="1" stroke-width="0.762353" stroke-linecap="round" stroke-linejoin="round" stroke="rgb(0%, 0%, 0%)" stroke-opacity="1" stroke-miterlimit="10" d="M 73.295229 74.429224 L 73.467417 76.20682 L 73.887761 77.812227 L 74.652482 79.422699 L 75.665357 80.860982 L 76.850421 82.132141 L 78.293769 83.063986 L 79.899176 83.823643 L 81.595742 84.249051 L 83.287244 84.416175 L 85.064841 84.249051 L 86.756342 83.823643 L 88.28072 83.063986 L 89.724067 82.132141 L 90.990162 80.860982 L 91.922007 79.422699 L 92.686728 77.812227 L 93.107071 76.20682 L 93.27926 74.429224 L 93.27926 69.430684 L 73.295229 69.430684 Z M 73.295229 74.429224 " transform="matrix(0.771319, 0, 0, 0.771319, -56.241032, -53.260235)"/>
<path fill-rule="nonzero" fill="rgb(0%, 0%, 0%)" fill-opacity="1" d="M 0 12.148438 L 16 12.148438 L 16 28.148438 L 0 28.148438 Z M 0 12.148438 "/>
<path fill-rule="nonzero" fill="rgb(100%, 100%, 100%)" fill-opacity="1" d="M 1.46875 13.613281 L 14.53125 13.613281 L 14.53125 26.679688 L 1.46875 26.679688 Z M 1.46875 13.613281 "/>
<path fill-rule="nonzero" fill="rgb(0%, 0%, 0%)" fill-opacity="1" d="M 2.269531 14.414062 L 13.730469 14.414062 L 13.730469 25.878906 L 2.269531 25.878906 Z M 2.269531 14.414062 "/>
<path fill-rule="nonzero" fill="rgb(100%, 100%, 100%)" fill-opacity="1" d="M 3.871094 15.648438 L 12.113281 15.648438 L 12.113281 17.667969 L 3.871094 17.667969 Z M 3.871094 15.648438 "/>
<path fill-rule="nonzero" fill="rgb(100%, 100%, 100%)" fill-opacity="1" d="M 3.878906 22.625 L 12.125 22.625 L 12.125 24.648438 L 3.878906 24.648438 Z M 3.878906 22.625 "/>
<path fill-rule="nonzero" fill="rgb(100%, 100%, 100%)" fill-opacity="1" d="M 9.375 17.667969 L 12.113281 17.667969 L 12.117188 18.003906 L 6.605469 22.625 L 3.878906 22.625 L 3.871094 22.292969 Z M 9.375 17.667969 "/>
<path fill-rule="nonzero" fill="rgb(100%, 100%, 100%)" fill-opacity="1" d="M 9.375 15.648438 L 12.117188 15.648438 L 12.117188 18.003906 L 9.375 18.003906 Z M 9.375 15.648438 "/>
<path fill-rule="nonzero" fill="rgb(100%, 100%, 100%)" fill-opacity="1" d="M 3.871094 22.292969 L 6.605469 22.292969 L 6.605469 24.601562 L 3.871094 24.601562 Z M 3.871094 22.292969 "/>
<path fill-rule="nonzero" fill="rgb(0%, 0%, 0%)" fill-opacity="1" d="M 2.660156 7.023438 C 2.667969 6.679688 2.742188 6.375 2.878906 6.101562 C 3.011719 5.78125 3.324219 5.445312 3.816406 5.101562 C 4.242188 4.789062 4.523438 4.566406 4.660156 4.429688 C 4.847656 4.234375 4.941406 4.007812 4.941406 3.757812 C 4.941406 3.5625 4.882812 3.394531 4.769531 3.257812 C 4.664062 3.125 4.507812 3.054688 4.300781 3.054688 C 4.019531 3.054688 3.824219 3.164062 3.722656 3.382812 C 3.660156 3.5 3.621094 3.691406 3.613281 3.960938 L 2.722656 3.960938 C 2.730469 3.554688 2.804688 3.226562 2.941406 2.976562 C 3.179688 2.507812 3.617188 2.273438 4.253906 2.273438 C 4.753906 2.273438 5.148438 2.414062 5.441406 2.695312 C 5.742188 2.96875 5.894531 3.332031 5.894531 3.789062 C 5.894531 4.144531 5.789062 4.457031 5.582031 4.726562 C 5.445312 4.90625 5.222656 5.101562 4.910156 5.320312 L 4.535156 5.585938 C 4.304688 5.753906 4.144531 5.875 4.050781 5.945312 C 3.964844 6.019531 3.894531 6.109375 3.832031 6.210938 L 5.894531 6.210938 L 5.894531 7.023438 Z M 7.320312 4.710938 C 7.320312 5.253906 7.359375 5.671875 7.445312 5.960938 C 7.539062 6.242188 7.726562 6.382812 8.007812 6.382812 C 8.277344 6.382812 8.453125 6.242188 8.539062 5.960938 C 8.632812 5.671875 8.679688 5.253906 8.679688 4.710938 C 8.679688 4.140625 8.632812 3.71875 8.539062 3.445312 C 8.453125 3.175781 8.277344 3.039062 8.007812 3.039062 C 7.726562 3.039062 7.539062 3.175781 7.445312 3.445312 C 7.359375 3.71875 7.320312 4.140625 7.320312 4.710938 Z M 8.007812 2.273438 C 8.601562 2.273438 9.015625 2.488281 9.257812 2.914062 C 9.507812 3.332031 9.632812 3.929688 9.632812 4.710938 C 9.632812 5.492188 9.507812 6.097656 9.257812 6.523438 C 9.015625 6.941406 8.601562 7.148438 8.007812 7.148438 C 7.402344 7.148438 6.976562 6.941406 6.726562 6.523438 C 6.484375 6.097656 6.367188 5.492188 6.367188 4.710938 C 6.367188 3.929688 6.484375 3.332031 6.726562 2.914062 C 6.976562 2.488281 7.402344 2.273438 8.007812 2.273438 Z M 11.03125 4.710938 C 11.03125 5.253906 11.070312 5.671875 11.15625 5.960938 C 11.25 6.242188 11.4375 6.382812 11.71875 6.382812 C 11.988281 6.382812 12.164062 6.242188 12.25 5.960938 C 12.34375 5.671875 12.390625 5.253906 12.390625 4.710938 C 12.390625 4.140625 12.34375 3.71875 12.25 3.445312 C 12.164062 3.175781 11.988281 3.039062 11.71875 3.039062 C 11.4375 3.039062 11.25 3.175781 11.15625 3.445312 C 11.070312 3.71875 11.03125 4.140625 11.03125 4.710938 Z M 11.71875 2.273438 C 12.3125 2.273438 12.726562 2.488281 12.96875 2.914062 C 13.21875 3.332031 13.34375 3.929688 13.34375 4.710938 C 13.34375 5.492188 13.21875 6.097656 12.96875 6.523438 C 12.726562 6.941406 12.3125 7.148438 11.71875 7.148438 C 11.113281 7.148438 10.6875 6.941406 10.4375 6.523438 C 10.195312 6.097656 10.078125 5.492188 10.078125 4.710938 C 10.078125 3.929688 10.195312 3.332031 10.4375 2.914062 C 10.6875 2.488281 11.113281 2.273438 11.71875 2.273438 Z M 2.457031 1.890625 "/>
</svg>
