<?xml version="1.0" encoding="UTF-8"?>
<svg xmlns="http://www.w3.org/2000/svg" xmlns:xlink="http://www.w3.org/1999/xlink" width="16" height="31.68" viewBox="0 0 16 31.68">
<path fill-rule="nonzero" fill="rgb(100%, 100%, 100%)" fill-opacity="1" d="M 0 0 L 16 0 L 16 16 L 0 16 Z M 0 0 "/>
<path fill-rule="nonzero" fill="rgb(0%, 0%, 0%)" fill-opacity="1" d="M 0.160156 0.160156 L 15.839844 0.160156 L 15.839844 15.839844 L 0.160156 15.839844 Z M 0.160156 0.160156 "/>
<path fill-rule="nonzero" fill="rgb(100%, 100%, 100%)" fill-opacity="1" d="M 1.121094 1.121094 L 14.878906 1.121094 L 14.878906 14.878906 L 1.121094 14.878906 Z M 1.121094 1.121094 "/>
<path fill-rule="nonzero" fill="rgb(0%, 0%, 0%)" fill-opacity="1" d="M 0.160156 16 L 15.839844 16 L 15.839844 31.679688 L 0.160156 31.679688 Z M 0.160156 16 "/>
<path fill-rule="nonzero" fill="rgb(100%, 100%, 100%)" fill-opacity="1" d="M 1.597656 17.4375 L 14.402344 17.4375 L 14.402344 30.242188 L 1.597656 30.242188 Z M 1.597656 17.4375 "/>
<path fill-rule="nonzero" fill="rgb(0%, 0%, 0%)" fill-opacity="1" d="M 2.382812 18.222656 L 13.617188 18.222656 L 13.617188 29.457031 L 2.382812 29.457031 Z M 2.382812 18.222656 "/>
<path fill-rule="nonzero" fill="rgb(100%, 100%, 100%)" fill-opacity="1" d="M 3.953125 19.429688 L 12.03125 19.429688 L 12.03125 21.410156 L 3.953125 21.410156 Z M 3.953125 19.429688 "/>
<path fill-rule="nonzero" fill="rgb(100%, 100%, 100%)" fill-opacity="1" d="M 3.960938 26.269531 L 12.042969 26.269531 L 12.042969 28.25 L 3.960938 28.25 Z M 3.960938 26.269531 "/>
<path fill-rule="nonzero" fill="rgb(100%, 100%, 100%)" fill-opacity="1" d="M 9.347656 21.410156 L 12.03125 21.410156 L 12.035156 21.738281 L 6.632812 26.269531 L 3.960938 26.269531 L 3.953125 25.941406 Z M 9.347656 21.410156 "/>
<path fill-rule="nonzero" fill="rgb(100%, 100%, 100%)" fill-opacity="1" d="M 9.347656 19.429688 L 12.035156 19.429688 L 12.035156 21.738281 L 9.347656 21.738281 Z M 9.347656 19.429688 "/>
<path fill-rule="nonzero" fill="rgb(100%, 100%, 100%)" fill-opacity="1" d="M 3.953125 25.941406 L 6.632812 25.941406 L 6.632812 28.207031 L 3.953125 28.207031 Z M 3.953125 25.941406 "/>
<path fill-rule="nonzero" fill="rgb(0%, 0%, 0%)" fill-opacity="1" d="M 2.382812 6.988281 L 2.382812 6.308594 C 2.699219 6.292969 2.917969 6.273438 3.046875 6.246094 C 3.246094 6.199219 3.410156 6.109375 3.539062 5.976562 C 3.625 5.886719 3.691406 5.765625 3.734375 5.613281 C 3.757812 5.519531 3.773438 5.453125 3.773438 5.410156 L 4.605469 5.410156 L 4.605469 10.5 L 3.578125 10.5 L 3.578125 6.988281 Z M 6.109375 10.5 C 6.117188 10.136719 6.195312 9.800781 6.34375 9.5 C 6.484375 9.160156 6.824219 8.800781 7.355469 8.421875 C 7.816406 8.089844 8.113281 7.855469 8.25 7.710938 C 8.457031 7.488281 8.5625 7.246094 8.5625 6.980469 C 8.5625 6.765625 8.503906 6.585938 8.382812 6.445312 C 8.261719 6.300781 8.09375 6.230469 7.871094 6.230469 C 7.566406 6.230469 7.359375 6.34375 7.25 6.570312 C 7.183594 6.703125 7.148438 6.910156 7.136719 7.195312 L 6.164062 7.195312 C 6.179688 6.761719 6.257812 6.414062 6.398438 6.144531 C 6.664062 5.636719 7.140625 5.382812 7.820312 5.382812 C 8.359375 5.382812 8.789062 5.535156 9.105469 5.832031 C 9.425781 6.128906 9.582031 6.527344 9.582031 7.015625 C 9.582031 7.394531 9.472656 7.730469 9.246094 8.019531 C 9.097656 8.214844 8.855469 8.433594 8.519531 8.671875 L 8.121094 8.957031 C 7.867188 9.132812 7.699219 9.261719 7.605469 9.339844 C 7.511719 9.421875 7.433594 9.511719 7.371094 9.617188 L 9.59375 9.617188 L 9.59375 10.5 Z M 11.128906 8.003906 C 11.128906 8.589844 11.175781 9.035156 11.273438 9.347656 C 11.367188 9.65625 11.566406 9.8125 11.863281 9.8125 C 12.160156 9.8125 12.355469 9.65625 12.445312 9.347656 C 12.539062 9.035156 12.585938 8.589844 12.585938 8.003906 C 12.585938 7.390625 12.539062 6.9375 12.445312 6.640625 C 12.355469 6.347656 12.160156 6.199219 11.863281 6.199219 C 11.566406 6.199219 11.367188 6.347656 11.273438 6.640625 C 11.175781 6.9375 11.128906 7.390625 11.128906 8.003906 Z M 11.863281 5.375 C 12.511719 5.375 12.964844 5.601562 13.226562 6.058594 C 13.488281 6.515625 13.617188 7.164062 13.617188 8.003906 C 13.617188 8.84375 13.488281 9.492188 13.226562 9.945312 C 12.964844 10.398438 12.511719 10.625 11.863281 10.625 C 11.214844 10.625 10.757812 10.398438 10.5 9.945312 C 10.238281 9.492188 10.105469 8.84375 10.105469 8.003906 C 10.105469 7.164062 10.238281 6.515625 10.5 6.058594 C 10.757812 5.601562 11.214844 5.375 11.863281 5.375 Z M 1.882812 4.964844 "/>
</svg>
