<?xml version="1.0" encoding="UTF-8"?>
<svg xmlns="http://www.w3.org/2000/svg" xmlns:xlink="http://www.w3.org/1999/xlink" width="16" height="28.147003" viewBox="0 0 16 28.147003">
<path fill-rule="evenodd" fill="rgb(100%, 100%, 100%)" fill-opacity="1" stroke-width="0.762353" stroke-linecap="round" stroke-linejoin="round" stroke="rgb(0%, 0%, 0%)" stroke-opacity="1" stroke-miterlimit="10" d="M 73.295226 74.429218 L 73.467415 76.206814 L 73.887758 77.812221 L 74.652479 79.422693 L 75.665354 80.860976 L 76.850418 82.132135 L 78.293766 83.06398 L 79.899173 83.823637 L 81.595739 84.249044 L 83.287241 84.416169 L 85.064837 84.249044 L 86.756339 83.823637 L 88.280716 83.06398 L 89.724064 82.132135 L 90.990158 80.860976 L 91.922003 79.422693 L 92.686724 77.812221 L 93.107067 76.206814 L 93.279256 74.429218 L 93.279256 69.430678 L 73.295226 69.430678 Z M 73.295226 74.429218 " transform="matrix(0.771319, 0, 0, 0.771319, -56.241033, -53.260234)"/>
<path fill-rule="nonzero" fill="rgb(0%, 0%, 0%)" fill-opacity="1" d="M 2.902344 3.773438 L 2.902344 3.15625 C 3.183594 3.140625 3.386719 3.121094 3.507812 3.097656 C 3.679688 3.058594 3.832031 2.976562 3.953125 2.855469 C 4.023438 2.777344 4.078125 2.667969 4.121094 2.53125 C 4.144531 2.445312 4.15625 2.378906 4.15625 2.339844 L 4.917969 2.339844 L 4.917969 6.964844 L 3.988281 6.964844 L 3.988281 3.773438 Z M 7.152344 5.722656 C 7.191406 5.925781 7.261719 6.082031 7.355469 6.195312 C 7.460938 6.300781 7.613281 6.351562 7.816406 6.351562 C 8.039062 6.351562 8.207031 6.273438 8.320312 6.109375 C 8.441406 5.949219 8.5 5.75 8.5 5.507812 C 8.5 5.277344 8.445312 5.078125 8.332031 4.917969 C 8.226562 4.75 8.054688 4.664062 7.816406 4.664062 C 7.710938 4.664062 7.617188 4.683594 7.539062 4.710938 C 7.394531 4.761719 7.285156 4.855469 7.210938 4.988281 L 6.390625 4.953125 L 6.71875 2.398438 L 9.273438 2.398438 L 9.273438 3.167969 L 7.378906 3.167969 L 7.210938 4.183594 C 7.347656 4.09375 7.457031 4.035156 7.539062 4 C 7.671875 3.953125 7.832031 3.929688 8.019531 3.929688 C 8.40625 3.929688 8.738281 4.058594 9.019531 4.316406 C 9.308594 4.574219 9.453125 4.945312 9.453125 5.433594 C 9.453125 5.863281 9.3125 6.242188 9.03125 6.582031 C 8.757812 6.917969 8.347656 7.085938 7.800781 7.085938 C 7.367188 7.085938 7.007812 6.96875 6.71875 6.738281 C 6.433594 6.496094 6.277344 6.160156 6.246094 5.722656 Z M 10.84375 4.699219 C 10.84375 5.230469 10.886719 5.636719 10.976562 5.917969 C 11.0625 6.199219 11.242188 6.339844 11.503906 6.339844 C 11.777344 6.339844 11.953125 6.199219 12.035156 5.917969 C 12.125 5.636719 12.167969 5.230469 12.167969 4.699219 C 12.167969 4.140625 12.125 3.722656 12.035156 3.457031 C 11.953125 3.195312 11.777344 3.0625 11.503906 3.0625 C 11.242188 3.0625 11.0625 3.195312 10.976562 3.457031 C 10.886719 3.722656 10.84375 4.140625 10.84375 4.699219 Z M 11.503906 2.3125 C 12.097656 2.3125 12.511719 2.523438 12.746094 2.941406 C 12.988281 3.351562 13.109375 3.9375 13.109375 4.699219 C 13.109375 5.464844 12.988281 6.054688 12.746094 6.472656 C 12.511719 6.882812 12.097656 7.085938 11.503906 7.085938 C 10.917969 7.085938 10.503906 6.882812 10.265625 6.472656 C 10.027344 6.054688 9.914062 5.464844 9.914062 4.699219 C 9.914062 3.9375 10.027344 3.351562 10.265625 2.941406 C 10.503906 2.523438 10.917969 2.3125 11.503906 2.3125 Z M 2.445312 1.9375 "/>
<path fill-rule="nonzero" fill="rgb(0%, 0%, 0%)" fill-opacity="1" d="M 0 12.148438 L 16 12.148438 L 16 28.148438 L 0 28.148438 Z M 0 12.148438 "/>
<path fill-rule="nonzero" fill="rgb(100%, 100%, 100%)" fill-opacity="1" d="M 1.46875 13.613281 L 14.53125 13.613281 L 14.53125 26.679688 L 1.46875 26.679688 Z M 1.46875 13.613281 "/>
<path fill-rule="nonzero" fill="rgb(0%, 0%, 0%)" fill-opacity="1" d="M 2.269531 14.414062 L 13.730469 14.414062 L 13.730469 25.878906 L 2.269531 25.878906 Z M 2.269531 14.414062 "/>
<path fill-rule="nonzero" fill="rgb(100%, 100%, 100%)" fill-opacity="1" d="M 3.871094 15.648438 L 12.113281 15.648438 L 12.113281 17.667969 L 3.871094 17.667969 Z M 3.871094 15.648438 "/>
<path fill-rule="nonzero" fill="rgb(100%, 100%, 100%)" fill-opacity="1" d="M 3.878906 22.625 L 12.125 22.625 L 12.125 24.648438 L 3.878906 24.648438 Z M 3.878906 22.625 "/>
<path fill-rule="nonzero" fill="rgb(100%, 100%, 100%)" fill-opacity="1" d="M 9.375 17.667969 L 12.113281 17.667969 L 12.117188 18.003906 L 6.605469 22.625 L 3.878906 22.625 L 3.871094 22.292969 Z M 9.375 17.667969 "/>
<path fill-rule="nonzero" fill="rgb(100%, 100%, 100%)" fill-opacity="1" d="M 9.375 15.648438 L 12.117188 15.648438 L 12.117188 18.003906 L 9.375 18.003906 Z M 9.375 15.648438 "/>
<path fill-rule="nonzero" fill="rgb(100%, 100%, 100%)" fill-opacity="1" d="M 3.871094 22.292969 L 6.605469 22.292969 L 6.605469 24.601562 L 3.871094 24.601562 Z M 3.871094 22.292969 "/>
</svg>
