<?xml version="1.0" encoding="UTF-8"?>
<svg xmlns="http://www.w3.org/2000/svg" xmlns:xlink="http://www.w3.org/1999/xlink" width="16" height="31.68" viewBox="0 0 16 31.68">
<path fill-rule="nonzero" fill="rgb(100%, 100%, 100%)" fill-opacity="1" d="M 0 0 L 16 0 L 16 16 L 0 16 Z M 0 0 "/>
<path fill-rule="nonzero" fill="rgb(0%, 0%, 0%)" fill-opacity="1" d="M 0.160156 0.160156 L 15.839844 0.160156 L 15.839844 15.839844 L 0.160156 15.839844 Z M 0.160156 0.160156 "/>
<path fill-rule="nonzero" fill="rgb(100%, 100%, 100%)" fill-opacity="1" d="M 1.121094 1.121094 L 14.878906 1.121094 L 14.878906 14.878906 L 1.121094 14.878906 Z M 1.121094 1.121094 "/>
<path fill-rule="nonzero" fill="rgb(0%, 0%, 0%)" fill-opacity="1" d="M 0.160156 16 L 15.839844 16 L 15.839844 31.679688 L 0.160156 31.679688 Z M 0.160156 16 "/>
<path fill-rule="nonzero" fill="rgb(100%, 100%, 100%)" fill-opacity="1" d="M 1.597656 17.4375 L 14.402344 17.4375 L 14.402344 30.242188 L 1.597656 30.242188 Z M 1.597656 17.4375 "/>
<path fill-rule="nonzero" fill="rgb(0%, 0%, 0%)" fill-opacity="1" d="M 2.382812 18.222656 L 13.617188 18.222656 L 13.617188 29.457031 L 2.382812 29.457031 Z M 2.382812 18.222656 "/>
<path fill-rule="nonzero" fill="rgb(100%, 100%, 100%)" fill-opacity="1" d="M 3.953125 19.429688 L 12.03125 19.429688 L 12.03125 21.410156 L 3.953125 21.410156 Z M 3.953125 19.429688 "/>
<path fill-rule="nonzero" fill="rgb(100%, 100%, 100%)" fill-opacity="1" d="M 3.960938 26.269531 L 12.042969 26.269531 L 12.042969 28.25 L 3.960938 28.25 Z M 3.960938 26.269531 "/>
<path fill-rule="nonzero" fill="rgb(100%, 100%, 100%)" fill-opacity="1" d="M 9.347656 21.410156 L 12.03125 21.410156 L 12.035156 21.738281 L 6.632812 26.269531 L 3.960938 26.269531 L 3.953125 25.941406 Z M 9.347656 21.410156 "/>
<path fill-rule="nonzero" fill="rgb(100%, 100%, 100%)" fill-opacity="1" d="M 9.347656 19.429688 L 12.035156 19.429688 L 12.035156 21.738281 L 9.347656 21.738281 Z M 9.347656 19.429688 "/>
<path fill-rule="nonzero" fill="rgb(100%, 100%, 100%)" fill-opacity="1" d="M 3.953125 25.941406 L 6.632812 25.941406 L 6.632812 28.207031 L 3.953125 28.207031 Z M 3.953125 25.941406 "/>
<path fill-rule="nonzero" fill="rgb(0%, 0%, 0%)" fill-opacity="1" d="M 4.515625 9.125 C 4.515625 9.472656 4.609375 9.753906 4.796875 9.976562 C 4.980469 10.195312 5.21875 10.304688 5.507812 10.304688 C 5.789062 10.304688 6.011719 10.199219 6.171875 9.984375 C 6.332031 9.773438 6.414062 9.5 6.414062 9.160156 C 6.414062 8.785156 6.324219 8.496094 6.136719 8.296875 C 5.953125 8.097656 5.730469 7.996094 5.460938 7.996094 C 5.246094 7.996094 5.054688 8.0625 4.890625 8.191406 C 4.640625 8.382812 4.515625 8.695312 4.515625 9.125 Z M 6.300781 6.339844 C 6.300781 6.238281 6.257812 6.125 6.179688 6 C 6.042969 5.796875 5.835938 5.695312 5.558594 5.695312 C 5.148438 5.695312 4.855469 5.925781 4.679688 6.390625 C 4.585938 6.644531 4.519531 7.023438 4.484375 7.519531 C 4.640625 7.332031 4.824219 7.195312 5.03125 7.109375 C 5.238281 7.023438 5.476562 6.980469 5.742188 6.980469 C 6.316406 6.980469 6.785156 7.175781 7.148438 7.5625 C 7.515625 7.953125 7.699219 8.449219 7.699219 9.054688 C 7.699219 9.65625 7.519531 10.1875 7.160156 10.648438 C 6.804688 11.105469 6.246094 11.335938 5.488281 11.335938 C 4.675781 11.335938 4.078125 10.996094 3.691406 10.316406 C 3.394531 9.785156 3.242188 9.101562 3.242188 8.261719 C 3.242188 7.769531 3.265625 7.371094 3.304688 7.0625 C 3.378906 6.511719 3.523438 6.054688 3.738281 5.691406 C 3.921875 5.378906 4.160156 5.128906 4.460938 4.941406 C 4.757812 4.75 5.113281 4.65625 5.53125 4.65625 C 6.128906 4.65625 6.605469 4.808594 6.960938 5.117188 C 7.316406 5.421875 7.515625 5.832031 7.5625 6.339844 Z M 9.601562 8.003906 C 9.601562 8.746094 9.664062 9.3125 9.785156 9.707031 C 9.90625 10.097656 10.15625 10.296875 10.53125 10.296875 C 10.910156 10.296875 11.15625 10.097656 11.273438 9.707031 C 11.390625 9.3125 11.449219 8.746094 11.449219 8.003906 C 11.449219 7.226562 11.390625 6.652344 11.273438 6.277344 C 11.15625 5.90625 10.910156 5.71875 10.53125 5.71875 C 10.15625 5.71875 9.90625 5.90625 9.785156 6.277344 C 9.664062 6.652344 9.601562 7.226562 9.601562 8.003906 Z M 10.53125 4.671875 C 11.355469 4.671875 11.929688 4.960938 12.261719 5.539062 C 12.589844 6.117188 12.757812 6.941406 12.757812 8.003906 C 12.757812 9.070312 12.589844 9.890625 12.261719 10.464844 C 11.929688 11.039062 11.355469 11.328125 10.53125 11.328125 C 9.710938 11.328125 9.136719 11.039062 8.804688 10.464844 C 8.472656 9.890625 8.308594 9.070312 8.308594 8.003906 C 8.308594 6.941406 8.472656 6.117188 8.804688 5.539062 C 9.136719 4.960938 9.710938 4.671875 10.53125 4.671875 Z M 2.957031 4.152344 "/>
</svg>
