<?xml version="1.0" encoding="UTF-8"?>
<svg xmlns="http://www.w3.org/2000/svg" xmlns:xlink="http://www.w3.org/1999/xlink" width="12" height="23.749321" viewBox="0 0 12 23.749321">
<path fill-rule="nonzero" fill="rgb(0%, 0%, 0%)" fill-opacity="1" stroke-width="0.3" stroke-linecap="butt" stroke-linejoin="miter" stroke="rgb(100%, 100%, 100%)" stroke-opacity="1" stroke-miterlimit="4" d="M 12.27535 6.147787 C 12.27535 9.464356 9.557381 12.149968 6.216545 12.149968 C 2.863574 12.149968 0.14965 9.464356 0.14965 6.147787 C 0.14965 2.835262 2.863574 0.14965 6.216545 0.14965 C 9.557381 0.14965 12.27535 2.835262 12.27535 6.147787 Z M 12.27535 6.147787 " transform="matrix(0.965795, 0, 0, 0.965795, 0, 0)"/>
<path fill-rule="nonzero" fill="rgb(100%, 86.666667%, 0%)" fill-opacity="1" d="M 8.332031 5.941406 C 8.332031 7.226562 7.285156 8.269531 6 8.269531 C 4.714844 8.269531 3.667969 7.226562 3.667969 5.941406 C 3.667969 4.652344 4.714844 3.609375 6 3.609375 C 7.285156 3.609375 8.332031 4.652344 8.332031 5.941406 Z M 8.332031 5.941406 "/>
<path fill-rule="nonzero" fill="rgb(0%, 0%, 0%)" fill-opacity="1" stroke-width="0.3" stroke-linecap="butt" stroke-linejoin="miter" stroke="rgb(100%, 100%, 100%)" stroke-opacity="1" stroke-miterlimit="4" d="M 12.27535 18.43527 C 12.27535 21.75184 9.557381 24.441496 6.216545 24.441496 C 2.863574 24.441496 0.14965 21.75184 0.14965 18.43527 C 0.14965 15.122746 2.863574 12.441179 6.216545 12.441179 C 9.557381 12.441179 12.27535 15.122746 12.27535 18.43527 Z M 12.27535 18.43527 " transform="matrix(0.965795, 0, 0, 0.965795, 0, 0)"/>
<path fill-rule="nonzero" fill="rgb(13.333333%, 100%, 0%)" fill-opacity="1" d="M 8.332031 17.808594 C 8.332031 19.097656 7.285156 20.140625 6 20.140625 C 4.714844 20.140625 3.667969 19.097656 3.667969 17.808594 C 3.667969 16.523438 4.714844 15.476562 6 15.476562 C 7.285156 15.476562 8.332031 16.523438 8.332031 17.808594 Z M 8.332031 17.808594 "/>
</svg>
