<?xml version="1.0" encoding="UTF-8"?>
<svg xmlns="http://www.w3.org/2000/svg" xmlns:xlink="http://www.w3.org/1999/xlink" width="9" height="17.948057" viewBox="0 0 9 17.948057">
<path fill-rule="nonzero" fill="rgb(0%, 0%, 0%)" fill-opacity="1" d="M 3.796875 12.070312 L 5.203125 12.070312 L 5.203125 14.535156 L 3.796875 14.535156 Z M 3.796875 12.070312 "/>
<path fill-rule="nonzero" fill="rgb(0%, 0%, 0%)" fill-opacity="1" d="M 3.796875 8.65625 L 5.203125 8.65625 L 5.203125 11.117188 L 3.796875 11.117188 Z M 3.796875 8.65625 "/>
<path fill-rule="nonzero" fill="rgb(100%, 100%, 100%)" fill-opacity="1" d="M 3.796875 11.019531 L 5.203125 11.019531 L 5.203125 12.070312 L 3.796875 12.070312 Z M 3.796875 11.019531 "/>
<path fill-rule="nonzero" fill="rgb(0%, 0%, 0%)" fill-opacity="1" d="M 3.796875 15.484375 L 5.203125 15.484375 L 5.203125 17.949219 L 3.796875 17.949219 Z M 3.796875 15.484375 "/>
<path fill-rule="nonzero" fill="rgb(100%, 100%, 100%)" fill-opacity="1" d="M 3.796875 14.433594 L 5.203125 14.433594 L 5.203125 15.484375 L 3.796875 15.484375 Z M 3.796875 14.433594 "/>
<path fill-rule="nonzero" fill="rgb(0%, 0%, 0%)" fill-opacity="1" stroke-width="0.19992" stroke-linecap="butt" stroke-linejoin="miter" stroke="rgb(100%, 100%, 100%)" stroke-opacity="1" stroke-miterlimit="4" d="M 8.179853 4.097115 C 8.179853 6.3074 6.368497 8.097192 4.143836 8.097192 C 1.908393 8.097192 0.100631 6.3074 0.100631 4.097115 C 0.100631 1.890423 1.908393 0.100631 4.143836 0.100631 C 6.368497 0.100631 8.179853 1.890423 8.179853 4.097115 Z M 8.179853 4.097115 " transform="matrix(1.086893, 0, 0, 1.086893, 0, 0)"/>
<path fill-rule="nonzero" fill="rgb(13.333333%, 100%, 0%)" fill-opacity="1" d="M 6.25 4.457031 C 6.25 5.417969 5.464844 6.203125 4.5 6.203125 C 3.535156 6.203125 2.75 5.417969 2.75 4.457031 C 2.75 3.488281 3.535156 2.707031 4.5 2.707031 C 5.464844 2.707031 6.25 3.488281 6.25 4.457031 Z M 6.25 4.457031 "/>
</svg>
