<?xml version="1.0" encoding="UTF-8"?>
<svg xmlns="http://www.w3.org/2000/svg" xmlns:xlink="http://www.w3.org/1999/xlink" width="9" height="8.909457" viewBox="0 0 9 8.909457">
<path fill-rule="nonzero" fill="rgb(0%, 0%, 0%)" fill-opacity="1" stroke-width="0.3" stroke-linecap="butt" stroke-linejoin="miter" stroke="rgb(100%, 100%, 100%)" stroke-opacity="1" stroke-miterlimit="4" d="M 12.273999 6.147785 C 12.273999 9.464353 9.556031 12.149965 6.217891 12.149965 C 2.863574 12.149965 0.150998 9.464353 0.150998 6.147785 C 0.150998 2.83661 2.863574 0.150998 6.217891 0.150998 C 9.556031 0.150998 12.273999 2.83661 12.273999 6.147785 Z M 12.273999 6.147785 " transform="matrix(0.724346, 0, 0, 0.724346, 0, 0)"/>
<path fill-rule="nonzero" fill="rgb(100%, 0%, 0%)" fill-opacity="1" d="M 6.25 4.457031 C 6.25 5.417969 5.464844 6.203125 4.5 6.203125 C 3.535156 6.203125 2.75 5.417969 2.75 4.457031 C 2.75 3.488281 3.535156 2.707031 4.5 2.707031 C 5.464844 2.707031 6.25 3.488281 6.25 4.457031 Z M 6.25 4.457031 "/>
</svg>
