<?xml version="1.0" encoding="UTF-8"?>
<svg xmlns="http://www.w3.org/2000/svg" xmlns:xlink="http://www.w3.org/1999/xlink" width="15" height="14.91169" viewBox="0 0 15 14.91169">
<path fill-rule="nonzero" fill="rgb(0%, 0%, 0%)" fill-opacity="1" stroke-width="1" stroke-linecap="butt" stroke-linejoin="miter" stroke="rgb(100%, 84.313725%, 0%)" stroke-opacity="1" stroke-miterlimit="4" d="M 4.656526 0.498196 L 10.747375 0.502214 L 14.925794 9.602328 L 14.909723 14.837405 L 0.502213 14.805263 L 0.498196 9.602328 Z M 4.656526 0.498196 " transform="matrix(0.972258, 0, 0, 0.972258, 0.000000466354, 0)"/>
<path fill-rule="nonzero" fill="rgb(2.745098%, 20%, 0%)" fill-opacity="1" d="M 8.589844 7.390625 C 8.589844 8 8.097656 8.496094 7.488281 8.496094 C 6.878906 8.496094 6.386719 8 6.386719 7.390625 C 6.386719 6.785156 6.878906 6.289062 7.488281 6.289062 C 8.097656 6.289062 8.589844 6.785156 8.589844 7.390625 Z M 8.589844 7.390625 "/>
<path fill-rule="nonzero" fill="rgb(100%, 81.176471%, 0%)" fill-opacity="1" d="M 8.589844 11.273438 C 8.589844 11.882812 8.097656 12.378906 7.488281 12.378906 C 6.878906 12.378906 6.386719 11.882812 6.386719 11.273438 C 6.386719 10.667969 6.878906 10.171875 7.488281 10.171875 C 8.097656 10.171875 8.589844 10.667969 8.589844 11.273438 Z M 8.589844 11.273438 "/>
<path fill-rule="nonzero" fill="rgb(100%, 81.176471%, 0%)" fill-opacity="1" d="M 12.652344 11.273438 C 12.652344 11.882812 12.160156 12.378906 11.550781 12.378906 C 10.941406 12.378906 10.449219 11.882812 10.449219 11.273438 C 10.449219 10.667969 10.941406 10.171875 11.550781 10.171875 C 12.160156 10.171875 12.652344 10.667969 12.652344 11.273438 Z M 12.652344 11.273438 "/>
<path fill-rule="nonzero" fill="rgb(100%, 81.176471%, 0%)" fill-opacity="1" d="M 4.527344 11.273438 C 4.527344 11.882812 4.035156 12.378906 3.425781 12.378906 C 2.816406 12.378906 2.324219 11.882812 2.324219 11.273438 C 2.324219 10.667969 2.816406 10.171875 3.425781 10.171875 C 4.035156 10.171875 4.527344 10.667969 4.527344 11.273438 Z M 4.527344 11.273438 "/>
<path fill-rule="nonzero" fill="rgb(2.745098%, 20%, 0%)" fill-opacity="1" d="M 8.589844 3.507812 C 8.589844 4.117188 8.097656 4.613281 7.488281 4.613281 C 6.878906 4.613281 6.386719 4.117188 6.386719 3.507812 C 6.386719 2.898438 6.878906 2.40625 7.488281 2.40625 C 8.097656 2.40625 8.589844 2.898438 8.589844 3.507812 Z M 8.589844 3.507812 "/>
</svg>
