<?xml version="1.0" encoding="UTF-8"?>
<svg xmlns="http://www.w3.org/2000/svg" xmlns:xlink="http://www.w3.org/1999/xlink" width="15" height="19.496074" viewBox="0 0 15 19.496074">
<path fill-rule="nonzero" fill="rgb(100%, 91.372549%, 0%)" fill-opacity="1" stroke-width="1.3" stroke-linecap="butt" stroke-linejoin="miter" stroke="rgb(0%, 0%, 0%)" stroke-opacity="1" stroke-miterlimit="4" d="M 0.650078 0.650078 L 15.049921 0.650078 L 15.049921 19.755832 L 0.650078 19.755832 Z M 0.650078 0.650078 " transform="matrix(0.955414, 0, 0, 0.955414, 0, 0)"/>
<path fill-rule="nonzero" fill="rgb(100%, 100%, 100%)" fill-opacity="1" d="M 5.589844 7.835938 L 9.410156 7.835938 L 9.410156 11.660156 L 5.589844 11.660156 Z M 5.589844 7.835938 "/>
<path fill-rule="nonzero" fill="rgb(0%, 0%, 0%)" fill-opacity="1" d="M 5.589844 0.488281 L 9.410156 0.488281 L 9.410156 7.835938 L 5.589844 7.835938 Z M 5.589844 0.488281 "/>
<path fill-rule="nonzero" fill="rgb(0%, 0%, 0%)" fill-opacity="1" d="M 14.472656 7.835938 L 14.472656 11.660156 L 9.410156 11.660156 L 9.410156 7.835938 Z M 14.472656 7.835938 "/>
<path fill-rule="nonzero" fill="rgb(0%, 0%, 0%)" fill-opacity="1" d="M 5.589844 7.835938 L 5.589844 11.660156 L 0.527344 11.660156 L 0.527344 7.835938 Z M 5.589844 7.835938 "/>
<path fill-rule="nonzero" fill="rgb(0%, 0%, 0%)" fill-opacity="1" d="M 5.589844 11.660156 L 9.410156 11.660156 L 9.410156 19.007812 L 5.589844 19.007812 Z M 5.589844 11.660156 "/>
<path fill="none" stroke-width="0.923077" stroke-linecap="round" stroke-linejoin="round" stroke="rgb(0%, 0%, 0%)" stroke-opacity="1" stroke-miterlimit="4" d="M 9.387291 10.200911 C 9.387291 11.051327 8.700416 11.742291 7.849999 11.742291 C 6.999583 11.742291 6.312708 11.051327 6.312708 10.200911 C 6.312708 9.354583 6.999583 8.663619 7.849999 8.663619 C 8.700416 8.663619 9.387291 9.354583 9.387291 10.200911 Z M 9.387291 10.200911 " transform="matrix(0.955414, 0, 0, 0.955414, 0, 0)"/>
<path fill-rule="nonzero" fill="rgb(100%, 100%, 100%)" fill-opacity="1" d="M 8.96875 9.746094 C 8.96875 10.558594 8.3125 11.21875 7.5 11.21875 C 6.6875 11.21875 6.03125 10.558594 6.03125 9.746094 C 6.03125 8.9375 6.6875 8.277344 7.5 8.277344 C 8.3125 8.277344 8.96875 8.9375 8.96875 9.746094 Z M 8.96875 9.746094 "/>
</svg>
