<?xml version="1.0" encoding="UTF-8"?>
<svg xmlns="http://www.w3.org/2000/svg" xmlns:xlink="http://www.w3.org/1999/xlink" width="15" height="15.000001" viewBox="0 0 15 15.000001">
<path fill-rule="nonzero" fill="rgb(0%, 0%, 0%)" fill-opacity="1" stroke-width="1" stroke-linecap="butt" stroke-linejoin="miter" stroke="rgb(100%, 84.313725%, 0%)" stroke-opacity="1" stroke-miterlimit="4" d="M 0.501302 0.501302 L 14.898697 0.501302 L 14.898697 14.898697 L 0.501302 14.898697 Z M 0.501302 0.501302 " transform="matrix(0.974026, 0, 0, 0.974026, 0, 0)"/>
<path fill-rule="nonzero" fill="rgb(13.333333%, 100%, 0%)" fill-opacity="1" d="M 8.605469 7.5 C 8.605469 8.109375 8.109375 8.605469 7.5 8.605469 C 6.890625 8.605469 6.394531 8.109375 6.394531 7.5 C 6.394531 6.890625 6.890625 6.394531 7.5 6.394531 C 8.109375 6.394531 8.605469 6.890625 8.605469 7.5 Z M 8.605469 7.5 "/>
<path fill-rule="nonzero" fill="rgb(18.823529%, 0%, 4.313725%)" fill-opacity="1" d="M 8.605469 11.390625 C 8.605469 12 8.109375 12.496094 7.5 12.496094 C 6.890625 12.496094 6.394531 12 6.394531 11.390625 C 6.394531 10.78125 6.890625 10.285156 7.5 10.285156 C 8.109375 10.285156 8.605469 10.78125 8.605469 11.390625 Z M 8.605469 11.390625 "/>
<path fill-rule="nonzero" fill="rgb(18.823529%, 0%, 4.313725%)" fill-opacity="1" d="M 12.675781 11.390625 C 12.675781 12 12.179688 12.496094 11.570312 12.496094 C 10.960938 12.496094 10.464844 12 10.464844 11.390625 C 10.464844 10.78125 10.960938 10.285156 11.570312 10.285156 C 12.179688 10.285156 12.675781 10.78125 12.675781 11.390625 Z M 12.675781 11.390625 "/>
<path fill-rule="nonzero" fill="rgb(18.823529%, 0%, 4.313725%)" fill-opacity="1" d="M 4.535156 11.390625 C 4.535156 12 4.039062 12.496094 3.429688 12.496094 C 2.820312 12.496094 2.324219 12 2.324219 11.390625 C 2.324219 10.78125 2.820312 10.285156 3.429688 10.285156 C 4.039062 10.285156 4.535156 10.78125 4.535156 11.390625 Z M 4.535156 11.390625 "/>
<path fill-rule="nonzero" fill="rgb(13.333333%, 100%, 0%)" fill-opacity="1" d="M 8.605469 3.609375 C 8.605469 4.21875 8.109375 4.714844 7.5 4.714844 C 6.890625 4.714844 6.394531 4.21875 6.394531 3.609375 C 6.394531 3 6.890625 2.503906 7.5 2.503906 C 8.109375 2.503906 8.605469 3 8.605469 3.609375 Z M 8.605469 3.609375 "/>
</svg>
