<?xml version="1.0" encoding="UTF-8"?>
<svg xmlns="http://www.w3.org/2000/svg" xmlns:xlink="http://www.w3.org/1999/xlink" width="20.202812" height="15" viewBox="0 0 20.202812 15">
<path fill="none" stroke-width="0.586683" stroke-linecap="round" stroke-linejoin="round" stroke="rgb(0%, 0%, 0%)" stroke-opacity="1" stroke-miterlimit="4" d="M 0.294255 0.294255 L 9.652707 0.294255 L 9.652707 7.09096 L 0.294255 7.09096 Z M 0.294255 0.294255 " transform="matrix(2.031085, 0, 0, 2.031085, 0, 0)"/>
<path fill-rule="nonzero" fill="rgb(100%, 100%, 100%)" fill-opacity="1" d="M 0.597656 0.597656 L 19.605469 0.597656 L 19.605469 14.402344 L 0.597656 14.402344 Z M 0.597656 0.597656 "/>
<path fill-rule="nonzero" fill="rgb(0%, 0%, 0%)" fill-opacity="1" d="M 4.597656 11.222656 L 4.597656 3.777344 L 7.285156 3.777344 C 7.746094 3.777344 8.160156 3.867188 8.527344 4.042969 C 8.898438 4.21875 9.1875 4.476562 9.402344 4.816406 C 9.617188 5.15625 9.722656 5.574219 9.722656 6.066406 C 9.722656 6.550781 9.617188 6.957031 9.402344 7.285156 C 9.1875 7.613281 8.898438 7.859375 8.527344 8.03125 C 8.160156 8.199219 7.746094 8.285156 7.285156 8.285156 L 5.59375 8.285156 L 5.59375 11.222656 Z M 5.59375 7.460938 L 7.207031 7.460938 C 7.65625 7.460938 8.019531 7.347656 8.296875 7.117188 C 8.574219 6.886719 8.714844 6.535156 8.714844 6.066406 C 8.714844 5.566406 8.574219 5.195312 8.296875 4.957031 C 8.015625 4.714844 7.652344 4.597656 7.207031 4.597656 L 5.59375 4.597656 Z M 5.59375 7.460938 "/>
<path fill-rule="nonzero" fill="rgb(0%, 0%, 0%)" fill-opacity="1" d="M 11.132812 11.222656 L 11.132812 3.777344 L 12.128906 3.777344 L 12.128906 10.363281 L 15.605469 10.363281 L 15.605469 11.222656 Z M 11.132812 11.222656 "/>
</svg>
