<?xml version="1.0" encoding="UTF-8"?>
<svg xmlns="http://www.w3.org/2000/svg" xmlns:xlink="http://www.w3.org/1999/xlink" width="10" height="19.348234" viewBox="0 0 10 19.348234">
<path fill-rule="nonzero" fill="rgb(0%, 0%, 0%)" fill-opacity="1" stroke-width="0.217304" stroke-linecap="butt" stroke-linejoin="miter" stroke="rgb(100%, 100%, 100%)" stroke-opacity="1" stroke-miterlimit="4" d="M 9.390625 4.453125 C 9.390625 6.855469 7.421875 8.800781 5.003906 8.800781 C 2.574219 8.800781 0.609375 6.855469 0.609375 4.453125 C 0.609375 2.054688 2.574219 0.109375 5.003906 0.109375 C 7.421875 0.109375 9.390625 2.054688 9.390625 4.453125 Z M 9.390625 4.453125 "/>
<path fill-rule="nonzero" fill="rgb(13.333333%, 100%, 0%)" fill-opacity="1" d="M 6.75 4.457031 C 6.75 5.417969 5.964844 6.203125 5 6.203125 C 4.035156 6.203125 3.25 5.417969 3.25 4.457031 C 3.25 3.488281 4.035156 2.707031 5 2.707031 C 5.964844 2.707031 6.75 3.488281 6.75 4.457031 Z M 6.75 4.457031 "/>
<path fill-rule="nonzero" fill="rgb(0%, 0%, 0%)" fill-opacity="1" d="M 10 11.925781 C 10 13.292969 8.878906 14.398438 7.503906 14.398438 C 6.121094 14.398438 5 13.292969 5 11.925781 C 5 10.558594 6.121094 9.453125 7.503906 9.453125 C 8.878906 9.453125 10 10.558594 10 11.925781 Z M 10 11.925781 "/>
<path fill-rule="nonzero" fill="rgb(32.941176%, 74.901961%, 100%)" fill-opacity="1" d="M 9.222656 11.929688 C 9.222656 12.875 8.449219 13.648438 7.5 13.648438 C 6.550781 13.648438 5.777344 12.875 5.777344 11.929688 C 5.777344 10.972656 6.550781 10.203125 7.5 10.203125 C 8.449219 10.203125 9.222656 10.972656 9.222656 11.929688 Z M 9.222656 11.929688 "/>
<path fill-rule="nonzero" fill="rgb(0%, 0%, 0%)" fill-opacity="1" d="M 5 11.925781 C 5 13.292969 3.878906 14.398438 2.503906 14.398438 C 1.121094 14.398438 0 13.292969 0 11.925781 C 0 10.558594 1.121094 9.453125 2.503906 9.453125 C 3.878906 9.453125 5 10.558594 5 11.925781 Z M 5 11.925781 "/>
<path fill-rule="nonzero" fill="rgb(32.941176%, 74.901961%, 100%)" fill-opacity="1" d="M 4.222656 11.929688 C 4.222656 12.875 3.449219 13.648438 2.5 13.648438 C 1.550781 13.648438 0.777344 12.875 0.777344 11.929688 C 0.777344 10.972656 1.550781 10.203125 2.5 10.203125 C 3.449219 10.203125 4.222656 10.972656 4.222656 11.929688 Z M 4.222656 11.929688 "/>
<path fill-rule="nonzero" fill="rgb(0%, 0%, 0%)" fill-opacity="1" d="M 2.503906 14.398438 L 7.503906 14.398438 L 7.503906 19.347656 L 2.503906 19.347656 Z M 2.503906 14.398438 "/>
<path fill-rule="nonzero" fill="rgb(0%, 0%, 0%)" fill-opacity="1" d="M 10 16.875 C 10 18.242188 8.878906 19.347656 7.503906 19.347656 C 6.121094 19.347656 5 18.242188 5 16.875 C 5 15.507812 6.121094 14.398438 7.503906 14.398438 C 8.878906 14.398438 10 15.507812 10 16.875 Z M 10 16.875 "/>
<path fill-rule="nonzero" fill="rgb(100%, 100%, 100%)" fill-opacity="1" d="M 9.222656 16.875 C 9.222656 17.824219 8.449219 18.597656 7.5 18.597656 C 6.550781 18.597656 5.777344 17.824219 5.777344 16.875 C 5.777344 15.921875 6.550781 15.152344 7.5 15.152344 C 8.449219 15.152344 9.222656 15.921875 9.222656 16.875 Z M 9.222656 16.875 "/>
<path fill-rule="nonzero" fill="rgb(0%, 0%, 0%)" fill-opacity="1" d="M 5 16.875 C 5 18.242188 3.878906 19.347656 2.503906 19.347656 C 1.121094 19.347656 0 18.242188 0 16.875 C 0 15.507812 1.121094 14.398438 2.503906 14.398438 C 3.878906 14.398438 5 15.507812 5 16.875 Z M 5 16.875 "/>
<path fill-rule="nonzero" fill="rgb(100%, 100%, 100%)" fill-opacity="1" d="M 4.222656 16.875 C 4.222656 17.824219 3.449219 18.597656 2.5 18.597656 C 1.550781 18.597656 0.777344 17.824219 0.777344 16.875 C 0.777344 15.921875 1.550781 15.152344 2.5 15.152344 C 3.449219 15.152344 4.222656 15.921875 4.222656 16.875 Z M 4.222656 16.875 "/>
</svg>
