<?xml version="1.0" encoding="UTF-8"?>
<svg xmlns="http://www.w3.org/2000/svg" xmlns:xlink="http://www.w3.org/1999/xlink" width="10" height="23.470631" viewBox="0 0 10 23.470631">
<path fill-rule="nonzero" fill="rgb(0%, 0%, 0%)" fill-opacity="1" stroke-width="0.217304" stroke-linecap="butt" stroke-linejoin="miter" stroke="rgb(100%, 100%, 100%)" stroke-opacity="1" stroke-miterlimit="4" d="M 9.390625 4.453125 C 9.390625 6.855469 7.421875 8.800781 5.003906 8.800781 C 2.574219 8.800781 0.609375 6.855469 0.609375 4.453125 C 0.609375 2.054688 2.574219 0.109375 5.003906 0.109375 C 7.421875 0.109375 9.390625 2.054688 9.390625 4.453125 Z M 9.390625 4.453125 "/>
<path fill-rule="nonzero" fill="rgb(100%, 0%, 0%)" fill-opacity="1" d="M 6.75 4.457031 C 6.75 5.417969 5.964844 6.203125 5 6.203125 C 4.035156 6.203125 3.25 5.417969 3.25 4.457031 C 3.25 3.488281 4.035156 2.707031 5 2.707031 C 5.964844 2.707031 6.75 3.488281 6.75 4.457031 Z M 6.75 4.457031 "/>
<path fill-rule="nonzero" fill="rgb(0%, 0%, 0%)" fill-opacity="1" stroke-width="0.217304" stroke-linecap="butt" stroke-linejoin="miter" stroke="rgb(100%, 100%, 100%)" stroke-opacity="1" stroke-miterlimit="4" d="M 9.390625 13.363281 C 9.390625 15.765625 7.421875 17.710938 5.003906 17.710938 C 2.574219 17.710938 0.609375 15.765625 0.609375 13.363281 C 0.609375 10.964844 2.574219 9.019531 5.003906 9.019531 C 7.421875 9.019531 9.390625 10.964844 9.390625 13.363281 Z M 9.390625 13.363281 "/>
<path fill-rule="nonzero" fill="rgb(100%, 86.666667%, 0%)" fill-opacity="1" d="M 6.75 13.363281 C 6.75 14.328125 5.964844 15.113281 5 15.113281 C 4.035156 15.113281 3.25 14.328125 3.25 13.363281 C 3.25 12.398438 4.035156 11.617188 5 11.617188 C 5.964844 11.617188 6.75 12.398438 6.75 13.363281 Z M 6.75 13.363281 "/>
<path fill-rule="nonzero" fill="rgb(0%, 0%, 0%)" fill-opacity="1" d="M 2.503906 18.523438 L 7.503906 18.523438 L 7.503906 23.46875 L 2.503906 23.46875 Z M 2.503906 18.523438 "/>
<path fill-rule="nonzero" fill="rgb(0%, 0%, 0%)" fill-opacity="1" d="M 10 20.996094 C 10 22.363281 8.878906 23.46875 7.503906 23.46875 C 6.121094 23.46875 5 22.363281 5 20.996094 C 5 19.628906 6.121094 18.523438 7.503906 18.523438 C 8.878906 18.523438 10 19.628906 10 20.996094 Z M 10 20.996094 "/>
<path fill-rule="nonzero" fill="rgb(100%, 100%, 100%)" fill-opacity="1" d="M 9.222656 21 C 9.222656 21.945312 8.449219 22.71875 7.5 22.71875 C 6.550781 22.71875 5.777344 21.945312 5.777344 21 C 5.777344 20.042969 6.550781 19.273438 7.5 19.273438 C 8.449219 19.273438 9.222656 20.042969 9.222656 21 Z M 9.222656 21 "/>
<path fill-rule="nonzero" fill="rgb(0%, 0%, 0%)" fill-opacity="1" d="M 5 20.996094 C 5 22.363281 3.878906 23.46875 2.503906 23.46875 C 1.121094 23.46875 0 22.363281 0 20.996094 C 0 19.628906 1.121094 18.523438 2.503906 18.523438 C 3.878906 18.523438 5 19.628906 5 20.996094 Z M 5 20.996094 "/>
<path fill-rule="nonzero" fill="rgb(100%, 100%, 100%)" fill-opacity="1" d="M 4.222656 21 C 4.222656 21.945312 3.449219 22.71875 2.5 22.71875 C 1.550781 22.71875 0.777344 21.945312 0.777344 21 C 0.777344 20.042969 1.550781 19.273438 2.5 19.273438 C 3.449219 19.273438 4.222656 20.042969 4.222656 21 Z M 4.222656 21 "/>
</svg>
