<?xml version="1.0" encoding="UTF-8"?>
<svg xmlns="http://www.w3.org/2000/svg" xmlns:xlink="http://www.w3.org/1999/xlink" width="12" height="11.879276" viewBox="0 0 12 11.879276">
<path fill-rule="nonzero" fill="rgb(0%, 0%, 0%)" fill-opacity="1" stroke-width="0.3" stroke-linecap="butt" stroke-linejoin="miter" stroke="rgb(100%, 100%, 100%)" stroke-opacity="1" stroke-miterlimit="4" d="M 12.27535 6.147787 C 12.27535 9.464356 9.557381 12.149968 6.216545 12.149968 C 2.863574 12.149968 0.14965 9.464356 0.14965 6.147787 C 0.14965 2.835262 2.863574 0.14965 6.216545 0.14965 C 9.557381 0.14965 12.27535 2.835262 12.27535 6.147787 Z M 12.27535 6.147787 " transform="matrix(0.965795, 0, 0, 0.965795, 0, 0)"/>
<path fill-rule="nonzero" fill="rgb(100%, 0%, 0%)" fill-opacity="1" d="M 8.332031 5.941406 C 8.332031 7.226562 7.285156 8.269531 6 8.269531 C 4.714844 8.269531 3.667969 7.226562 3.667969 5.941406 C 3.667969 4.652344 4.714844 3.609375 6 3.609375 C 7.285156 3.609375 8.332031 4.652344 8.332031 5.941406 Z M 8.332031 5.941406 "/>
</svg>
