<?xml version="1.0" encoding="UTF-8"?>
<svg xmlns="http://www.w3.org/2000/svg" xmlns:xlink="http://www.w3.org/1999/xlink" width="12" height="35.628595" viewBox="0 0 12 35.628595">
<path fill-rule="nonzero" fill="rgb(0%, 0%, 0%)" fill-opacity="1" stroke-width="0.3" stroke-linecap="butt" stroke-linejoin="miter" stroke="rgb(100%, 100%, 100%)" stroke-opacity="1" stroke-miterlimit="4" d="M 12.27535 6.147787 C 12.27535 9.464356 9.557381 12.149968 6.216545 12.149968 C 2.863574 12.149968 0.14965 9.464356 0.14965 6.147787 C 0.14965 2.835262 2.863574 0.14965 6.216545 0.14965 C 9.557381 0.14965 12.27535 2.835262 12.27535 6.147787 Z M 12.27535 6.147787 " transform="matrix(0.965795, 0, 0, 0.965795, 0, 0)"/>
<path fill-rule="nonzero" fill="rgb(100%, 0%, 0%)" fill-opacity="1" d="M 8.332031 5.941406 C 8.332031 7.226562 7.285156 8.269531 6 8.269531 C 4.714844 8.269531 3.667969 7.226562 3.667969 5.941406 C 3.667969 4.652344 4.714844 3.609375 6 3.609375 C 7.285156 3.609375 8.332031 4.652344 8.332031 5.941406 Z M 8.332031 5.941406 "/>
<path fill-rule="nonzero" fill="rgb(0%, 0%, 0%)" fill-opacity="1" stroke-width="0.3" stroke-linecap="butt" stroke-linejoin="miter" stroke="rgb(100%, 100%, 100%)" stroke-opacity="1" stroke-miterlimit="4" d="M 12.27535 18.447404 C 12.27535 21.763973 9.557381 24.449585 6.216545 24.449585 C 2.863574 24.449585 0.14965 21.763973 0.14965 18.447404 C 0.14965 15.13488 2.863574 12.449268 6.216545 12.449268 C 9.557381 12.449268 12.27535 15.13488 12.27535 18.447404 Z M 12.27535 18.447404 " transform="matrix(0.965795, 0, 0, 0.965795, 0, 0)"/>
<path fill-rule="nonzero" fill="rgb(100%, 86.666667%, 0%)" fill-opacity="1" d="M 8.332031 17.820312 C 8.332031 19.105469 7.285156 20.152344 6 20.152344 C 4.714844 20.152344 3.667969 19.105469 3.667969 17.820312 C 3.667969 16.53125 4.714844 15.488281 6 15.488281 C 7.285156 15.488281 8.332031 16.53125 8.332031 17.820312 Z M 8.332031 17.820312 "/>
<path fill-rule="nonzero" fill="rgb(0%, 0%, 0%)" fill-opacity="1" stroke-width="0.3" stroke-linecap="butt" stroke-linejoin="miter" stroke="rgb(100%, 100%, 100%)" stroke-opacity="1" stroke-miterlimit="4" d="M 12.27535 30.734888 C 12.27535 34.051457 9.557381 36.741114 6.216545 36.741114 C 2.863574 36.741114 0.14965 34.051457 0.14965 30.734888 C 0.14965 27.422364 2.863574 24.740796 6.216545 24.740796 C 9.557381 24.740796 12.27535 27.422364 12.27535 30.734888 Z M 12.27535 30.734888 " transform="matrix(0.965795, 0, 0, 0.965795, 0, 0)"/>
<path fill-rule="nonzero" fill="rgb(13.333333%, 100%, 0%)" fill-opacity="1" d="M 8.332031 29.6875 C 8.332031 30.976562 7.285156 32.019531 6 32.019531 C 4.714844 32.019531 3.667969 30.976562 3.667969 29.6875 C 3.667969 28.402344 4.714844 27.359375 6 27.359375 C 7.285156 27.359375 8.332031 28.402344 8.332031 29.6875 Z M 8.332031 29.6875 "/>
</svg>
