<?xml version="1.0" encoding="UTF-8"?>
<svg xmlns="http://www.w3.org/2000/svg" xmlns:xlink="http://www.w3.org/1999/xlink" width="9" height="26.721445" viewBox="0 0 9 26.721445">
<path fill-rule="nonzero" fill="rgb(0%, 0%, 0%)" fill-opacity="1" stroke-width="0.3" stroke-linecap="butt" stroke-linejoin="miter" stroke="rgb(100%, 100%, 100%)" stroke-opacity="1" stroke-miterlimit="4" d="M 12.274003 6.147787 C 12.274003 9.464357 9.556034 12.149969 6.217894 12.149969 C 2.863575 12.149969 0.150998 9.464357 0.150998 6.147787 C 0.150998 2.836611 2.863575 0.150998 6.217894 0.150998 C 9.556034 0.150998 12.274003 2.836611 12.274003 6.147787 Z M 12.274003 6.147787 " transform="matrix(0.724346, 0, 0, 0.724346, 0, 0)"/>
<path fill-rule="nonzero" fill="rgb(100%, 86.666667%, 0%)" fill-opacity="1" d="M 6.25 4.457031 C 6.25 5.417969 5.464844 6.203125 4.5 6.203125 C 3.535156 6.203125 2.75 5.417969 2.75 4.457031 C 2.75 3.488281 3.535156 2.707031 4.5 2.707031 C 5.464844 2.707031 6.25 3.488281 6.25 4.457031 Z M 6.25 4.457031 "/>
<path fill-rule="nonzero" fill="rgb(0%, 0%, 0%)" fill-opacity="1" stroke-width="0.3" stroke-linecap="butt" stroke-linejoin="miter" stroke="rgb(100%, 100%, 100%)" stroke-opacity="1" stroke-miterlimit="4" d="M 12.274003 18.448755 C 12.274003 21.765324 9.556034 24.450936 6.217894 24.450936 C 2.863575 24.450936 0.150998 21.765324 0.150998 18.448755 C 0.150998 15.137578 2.863575 12.451966 6.217894 12.451966 C 9.556034 12.451966 12.274003 15.137578 12.274003 18.448755 Z M 12.274003 18.448755 " transform="matrix(0.724346, 0, 0, 0.724346, 0, 0)"/>
<path fill-rule="nonzero" fill="rgb(100%, 86.666667%, 0%)" fill-opacity="1" d="M 6.25 13.363281 C 6.25 14.328125 5.464844 15.113281 4.5 15.113281 C 3.535156 15.113281 2.75 14.328125 2.75 13.363281 C 2.75 12.398438 3.535156 11.617188 4.5 11.617188 C 5.464844 11.617188 6.25 12.398438 6.25 13.363281 Z M 6.25 13.363281 "/>
<path fill-rule="nonzero" fill="rgb(0%, 0%, 0%)" fill-opacity="1" stroke-width="0.3" stroke-linecap="butt" stroke-linejoin="miter" stroke="rgb(100%, 100%, 100%)" stroke-opacity="1" stroke-miterlimit="4" d="M 12.274003 30.733544 C 12.274003 34.050113 9.556034 36.741118 6.217894 36.741118 C 2.863575 36.741118 0.150998 34.050113 0.150998 30.733544 C 0.150998 27.422367 2.863575 24.742147 6.217894 24.742147 C 9.556034 24.742147 12.274003 27.422367 12.274003 30.733544 Z M 12.274003 30.733544 " transform="matrix(0.724346, 0, 0, 0.724346, 0, 0)"/>
<path fill-rule="nonzero" fill="rgb(30.980392%, 30.980392%, 30.980392%)" fill-opacity="1" d="M 6.25 22.265625 C 6.25 23.230469 5.464844 24.015625 4.5 24.015625 C 3.535156 24.015625 2.75 23.230469 2.75 22.265625 C 2.75 21.300781 3.535156 20.519531 4.5 20.519531 C 5.464844 20.519531 6.25 21.300781 6.25 22.265625 Z M 6.25 22.265625 "/>
</svg>
