<?xml version="1.0" encoding="UTF-8" standalone="no"?>
<svg
   width="9"
   height="26.721445"
   viewBox="0 0 9 26.721445"
   version="1.1"
   id="svg826"
   sodipodi:docname="main-3v-Y-G.svg"
   inkscape:version="1.2.2 (b0a8486541, 2022-12-01)"
   xmlns:inkscape="http://www.inkscape.org/namespaces/inkscape"
   xmlns:sodipodi="http://sodipodi.sourceforge.net/DTD/sodipodi-0.dtd"
   xmlns="http://www.w3.org/2000/svg"
   xmlns:svg="http://www.w3.org/2000/svg">
  <defs
     id="defs830" />
  <sodipodi:namedview
     id="namedview828"
     pagecolor="#ffffff"
     bordercolor="#666666"
     borderopacity="1.0"
     inkscape:showpageshadow="2"
     inkscape:pageopacity="0.0"
     inkscape:pagecheckerboard="0"
     inkscape:deskcolor="#d1d1d1"
     showgrid="false"
     inkscape:zoom="37.610241"
     inkscape:cx="4.4934569"
     inkscape:cy="13.387311"
     inkscape:window-width="1920"
     inkscape:window-height="1128"
     inkscape:window-x="0"
     inkscape:window-y="0"
     inkscape:window-maximized="1"
     inkscape:current-layer="svg826" />
  <path
     fill-rule="nonzero"
     fill="rgb(0%, 0%, 0%)"
     fill-opacity="1"
     stroke-width="0.3"
     stroke-linecap="butt"
     stroke-linejoin="miter"
     stroke="rgb(100%, 100%, 100%)"
     stroke-opacity="1"
     stroke-miterlimit="4"
     d="M 12.273999 6.147785 C 12.273999 9.464353 9.556031 12.149965 6.217891 12.149965 C 2.863574 12.149965 0.150998 9.464353 0.150998 6.147785 C 0.150998 2.83661 2.863574 0.150998 6.217891 0.150998 C 9.556031 0.150998 12.273999 2.83661 12.273999 6.147785 Z M 12.273999 6.147785 "
     transform="matrix(0.724346, 0, 0, 0.724346, 0, 0)"
     id="path814" />
  <path
     fill-rule="nonzero"
     fill="rgb(100%, 0%, 0%)"
     fill-opacity="1"
     d="M 6.25 4.457031 C 6.25 5.417969 5.464844 6.203125 4.5 6.203125 C 3.535156 6.203125 2.75 5.417969 2.75 4.457031 C 2.75 3.488281 3.535156 2.707031 4.5 2.707031 C 5.464844 2.707031 6.25 3.488281 6.25 4.457031 Z M 6.25 4.457031 "
     id="path816"
     style="fill:#ffdd00;fill-opacity:1" />
  <path
     fill-rule="nonzero"
     fill="rgb(0%, 0%, 0%)"
     fill-opacity="1"
     stroke-width="0.3"
     stroke-linecap="butt"
     stroke-linejoin="miter"
     stroke="rgb(100%, 100%, 100%)"
     stroke-opacity="1"
     stroke-miterlimit="4"
     d="M 12.273999 18.448748 C 12.273999 21.765316 9.556031 24.450928 6.217891 24.450928 C 2.863574 24.450928 0.150998 21.765316 0.150998 18.448748 C 0.150998 15.137573 2.863574 12.451961 6.217891 12.451961 C 9.556031 12.451961 12.273999 15.137573 12.273999 18.448748 Z M 12.273999 18.448748 "
     transform="matrix(0.724346, 0, 0, 0.724346, 0, 0)"
     id="path818" />
  <path
     fill-rule="nonzero"
     fill="rgb(100%, 86.666667%, 0%)"
     fill-opacity="1"
     d="M 6.25 13.363281 C 6.25 14.328125 5.464844 15.113281 4.5 15.113281 C 3.535156 15.113281 2.75 14.328125 2.75 13.363281 C 2.75 12.398438 3.535156 11.617188 4.5 11.617188 C 5.464844 11.617188 6.25 12.398438 6.25 13.363281 Z M 6.25 13.363281 "
     id="path820"
     style="fill:#22ff00;fill-opacity:1" />
  <path
     fill-rule="nonzero"
     fill="rgb(0%, 0%, 0%)"
     fill-opacity="1"
     stroke-width="0.3"
     stroke-linecap="butt"
     stroke-linejoin="miter"
     stroke="rgb(100%, 100%, 100%)"
     stroke-opacity="1"
     stroke-miterlimit="4"
     d="M 12.273999 30.733533 C 12.273999 34.050101 9.556031 36.741105 6.217891 36.741105 C 2.863574 36.741105 0.150998 34.050101 0.150998 30.733533 C 0.150998 27.422357 2.863574 24.742139 6.217891 24.742139 C 9.556031 24.742139 12.273999 27.422357 12.273999 30.733533 Z M 12.273999 30.733533 "
     transform="matrix(0.724346, 0, 0, 0.724346, 0, 0)"
     id="path822" />
  <path
     fill-rule="nonzero"
     fill="rgb(13.333333%, 100%, 0%)"
     fill-opacity="1"
     d="M 6.25 22.265625 C 6.25 23.230469 5.464844 24.015625 4.5 24.015625 C 3.535156 24.015625 2.75 23.230469 2.75 22.265625 C 2.75 21.300781 3.535156 20.519531 4.5 20.519531 C 5.464844 20.519531 6.25 21.300781 6.25 22.265625 Z M 6.25 22.265625 "
     id="path824"
     style="fill:#4f4f4f;fill-opacity:1" />
</svg>
