<?xml version="1.0" encoding="UTF-8" standalone="no"?>
<svg
   width="9"
   height="8.909457"
   viewBox="0 0 9 8.909457"
   version="1.1"
   id="svg2522"
   sodipodi:docname="main-1v-G.svg"
   inkscape:version="1.2.2 (b0a8486541, 2022-12-01)"
   xmlns:inkscape="http://www.inkscape.org/namespaces/inkscape"
   xmlns:sodipodi="http://sodipodi.sourceforge.net/DTD/sodipodi-0.dtd"
   xmlns="http://www.w3.org/2000/svg"
   xmlns:svg="http://www.w3.org/2000/svg">
  <defs
     id="defs2526" />
  <sodipodi:namedview
     id="namedview2524"
     pagecolor="#ffffff"
     bordercolor="#666666"
     borderopacity="1.0"
     inkscape:showpageshadow="2"
     inkscape:pageopacity="0.0"
     inkscape:pagecheckerboard="0"
     inkscape:deskcolor="#d1d1d1"
     showgrid="false"
     inkscape:zoom="112.80148"
     inkscape:cx="4.5034868"
     inkscape:cy="4.4635937"
     inkscape:window-width="1920"
     inkscape:window-height="1128"
     inkscape:window-x="0"
     inkscape:window-y="0"
     inkscape:window-maximized="1"
     inkscape:current-layer="svg2522" />
  <path
     fill-rule="nonzero"
     fill="rgb(0%, 0%, 0%)"
     fill-opacity="1"
     stroke-width="0.3"
     stroke-linecap="butt"
     stroke-linejoin="miter"
     stroke="rgb(100%, 100%, 100%)"
     stroke-opacity="1"
     stroke-miterlimit="4"
     d="M 12.273999 6.147785 C 12.273999 9.464353 9.556031 12.149965 6.217891 12.149965 C 2.863574 12.149965 0.150998 9.464353 0.150998 6.147785 C 0.150998 2.83661 2.863574 0.150998 6.217891 0.150998 C 9.556031 0.150998 12.273999 2.83661 12.273999 6.147785 Z M 12.273999 6.147785 "
     transform="matrix(0.724346, 0, 0, 0.724346, 0, 0)"
     id="path2518" />
  <path
     fill-rule="nonzero"
     fill="rgb(100%, 0%, 0%)"
     fill-opacity="1"
     d="M 6.25 4.457031 C 6.25 5.417969 5.464844 6.203125 4.5 6.203125 C 3.535156 6.203125 2.75 5.417969 2.75 4.457031 C 2.75 3.488281 3.535156 2.707031 4.5 2.707031 C 5.464844 2.707031 6.25 3.488281 6.25 4.457031 Z M 6.25 4.457031 "
     id="path2520"
     style="fill:#22ff00;fill-opacity:1" />
</svg>
