<?xml version="1.0" encoding="UTF-8"?>
<svg xmlns="http://www.w3.org/2000/svg" xmlns:xlink="http://www.w3.org/1999/xlink" width="10" height="23.017506" viewBox="0 0 10 23.017506">
<path fill-rule="nonzero" fill="rgb(0%, 0%, 0%)" fill-opacity="1" stroke-width="0.217304" stroke-linecap="butt" stroke-linejoin="miter" stroke="rgb(100%, 100%, 100%)" stroke-opacity="1" stroke-miterlimit="4" d="M 9.390625 4.453125 C 9.390625 6.855469 7.421875 8.800781 5.003906 8.800781 C 2.574219 8.800781 0.609375 6.855469 0.609375 4.453125 C 0.609375 2.054688 2.574219 0.109375 5.003906 0.109375 C 7.421875 0.109375 9.390625 2.054688 9.390625 4.453125 Z M 9.390625 4.453125 "/>
<path fill-rule="nonzero" fill="rgb(100%, 0%, 0%)" fill-opacity="1" d="M 6.75 4.457031 C 6.75 5.417969 5.964844 6.203125 5 6.203125 C 4.035156 6.203125 3.25 5.417969 3.25 4.457031 C 3.25 3.488281 4.035156 2.707031 5 2.707031 C 5.964844 2.707031 6.75 3.488281 6.75 4.457031 Z M 6.75 4.457031 "/>
<path fill-rule="nonzero" fill="rgb(0%, 0%, 0%)" fill-opacity="1" stroke-width="0.217304" stroke-linecap="butt" stroke-linejoin="miter" stroke="rgb(100%, 100%, 100%)" stroke-opacity="1" stroke-miterlimit="4" d="M 9.390625 13.363281 C 9.390625 15.765625 7.421875 17.710938 5.003906 17.710938 C 2.574219 17.710938 0.609375 15.765625 0.609375 13.363281 C 0.609375 10.964844 2.574219 9.019531 5.003906 9.019531 C 7.421875 9.019531 9.390625 10.964844 9.390625 13.363281 Z M 9.390625 13.363281 "/>
<path fill-rule="nonzero" fill="rgb(100%, 86.666667%, 0%)" fill-opacity="1" d="M 6.75 13.363281 C 6.75 14.328125 5.964844 15.113281 5 15.113281 C 4.035156 15.113281 3.25 14.328125 3.25 13.363281 C 3.25 12.398438 4.035156 11.617188 5 11.617188 C 5.964844 11.617188 6.75 12.398438 6.75 13.363281 Z M 6.75 13.363281 "/>
<path fill-rule="nonzero" fill="rgb(0%, 0%, 0%)" fill-opacity="1" d="M 10 20.542969 C 10 21.910156 8.878906 23.015625 7.503906 23.015625 C 6.121094 23.015625 5 21.910156 5 20.542969 C 5 19.175781 6.121094 18.070312 7.503906 18.070312 C 8.878906 18.070312 10 19.175781 10 20.542969 Z M 10 20.542969 "/>
<path fill-rule="nonzero" fill="rgb(32.941176%, 74.901961%, 100%)" fill-opacity="1" d="M 9.222656 20.546875 C 9.222656 21.492188 8.449219 22.265625 7.5 22.265625 C 6.550781 22.265625 5.777344 21.492188 5.777344 20.546875 C 5.777344 19.589844 6.550781 18.820312 7.5 18.820312 C 8.449219 18.820312 9.222656 19.589844 9.222656 20.546875 Z M 9.222656 20.546875 "/>
<path fill-rule="nonzero" fill="rgb(0%, 0%, 0%)" fill-opacity="1" d="M 5 20.542969 C 5 21.910156 3.878906 23.015625 2.503906 23.015625 C 1.121094 23.015625 0 21.910156 0 20.542969 C 0 19.175781 1.121094 18.070312 2.503906 18.070312 C 3.878906 18.070312 5 19.175781 5 20.542969 Z M 5 20.542969 "/>
<path fill-rule="nonzero" fill="rgb(32.941176%, 74.901961%, 100%)" fill-opacity="1" d="M 4.222656 20.546875 C 4.222656 21.492188 3.449219 22.265625 2.5 22.265625 C 1.550781 22.265625 0.777344 21.492188 0.777344 20.546875 C 0.777344 19.589844 1.550781 18.820312 2.5 18.820312 C 3.449219 18.820312 4.222656 19.589844 4.222656 20.546875 Z M 4.222656 20.546875 "/>
</svg>
