<?xml version="1.0" encoding="UTF-8"?>
<svg xmlns="http://www.w3.org/2000/svg" xmlns:xlink="http://www.w3.org/1999/xlink" width="10" height="32.048756" viewBox="0 0 10 32.048756">
<path fill-rule="nonzero" fill="rgb(0%, 0%, 0%)" fill-opacity="1" stroke-width="0.217304" stroke-linecap="butt" stroke-linejoin="miter" stroke="rgb(100%, 100%, 100%)" stroke-opacity="1" stroke-miterlimit="4" d="M 9.390625 4.453125 C 9.390625 6.855469 7.421875 8.800781 5.003906 8.800781 C 2.574219 8.800781 0.609375 6.855469 0.609375 4.453125 C 0.609375 2.054688 2.574219 0.109375 5.003906 0.109375 C 7.421875 0.109375 9.390625 2.054688 9.390625 4.453125 Z M 9.390625 4.453125 "/>
<path fill-rule="nonzero" fill="rgb(100%, 0%, 0%)" fill-opacity="1" d="M 6.75 4.457031 C 6.75 5.417969 5.964844 6.203125 5 6.203125 C 4.035156 6.203125 3.25 5.417969 3.25 4.457031 C 3.25 3.488281 4.035156 2.707031 5 2.707031 C 5.964844 2.707031 6.75 3.488281 6.75 4.457031 Z M 6.75 4.457031 "/>
<path fill-rule="nonzero" fill="rgb(0%, 0%, 0%)" fill-opacity="1" stroke-width="0.217304" stroke-linecap="butt" stroke-linejoin="miter" stroke="rgb(100%, 100%, 100%)" stroke-opacity="1" stroke-miterlimit="4" d="M 9.390625 13.363281 C 9.390625 15.765625 7.421875 17.710938 5.003906 17.710938 C 2.574219 17.710938 0.609375 15.765625 0.609375 13.363281 C 0.609375 10.964844 2.574219 9.019531 5.003906 9.019531 C 7.421875 9.019531 9.390625 10.964844 9.390625 13.363281 Z M 9.390625 13.363281 "/>
<path fill-rule="nonzero" fill="rgb(100%, 86.666667%, 0%)" fill-opacity="1" d="M 6.75 13.363281 C 6.75 14.328125 5.964844 15.113281 5 15.113281 C 4.035156 15.113281 3.25 14.328125 3.25 13.363281 C 3.25 12.398438 4.035156 11.617188 5 11.617188 C 5.964844 11.617188 6.75 12.398438 6.75 13.363281 Z M 6.75 13.363281 "/>
<path fill-rule="nonzero" fill="rgb(0%, 0%, 0%)" fill-opacity="1" stroke-width="0.217304" stroke-linecap="butt" stroke-linejoin="miter" stroke="rgb(100%, 100%, 100%)" stroke-opacity="1" stroke-miterlimit="4" d="M 9.390625 22.261719 C 9.390625 24.664062 7.421875 26.613281 5.003906 26.613281 C 2.574219 26.613281 0.609375 24.664062 0.609375 22.261719 C 0.609375 19.863281 2.574219 17.921875 5.003906 17.921875 C 7.421875 17.921875 9.390625 19.863281 9.390625 22.261719 Z M 9.390625 22.261719 "/>
<path fill-rule="nonzero" fill="rgb(13.333333%, 100%, 0%)" fill-opacity="1" d="M 6.75 22.265625 C 6.75 23.230469 5.964844 24.015625 5 24.015625 C 4.035156 24.015625 3.25 23.230469 3.25 22.265625 C 3.25 21.300781 4.035156 20.519531 5 20.519531 C 5.964844 20.519531 6.75 21.300781 6.75 22.265625 Z M 6.75 22.265625 "/>
<path fill-rule="nonzero" fill="rgb(0%, 0%, 0%)" fill-opacity="1" d="M 10 29.574219 C 10 30.941406 8.878906 32.046875 7.503906 32.046875 C 6.121094 32.046875 5 30.941406 5 29.574219 C 5 28.207031 6.121094 27.101562 7.503906 27.101562 C 8.878906 27.101562 10 28.207031 10 29.574219 Z M 10 29.574219 "/>
<path fill-rule="nonzero" fill="rgb(32.941176%, 74.901961%, 100%)" fill-opacity="1" d="M 9.222656 29.578125 C 9.222656 30.523438 8.449219 31.296875 7.5 31.296875 C 6.550781 31.296875 5.777344 30.523438 5.777344 29.578125 C 5.777344 28.621094 6.550781 27.851562 7.5 27.851562 C 8.449219 27.851562 9.222656 28.621094 9.222656 29.578125 Z M 9.222656 29.578125 "/>
<path fill-rule="nonzero" fill="rgb(0%, 0%, 0%)" fill-opacity="1" d="M 5 29.574219 C 5 30.941406 3.878906 32.046875 2.503906 32.046875 C 1.121094 32.046875 0 30.941406 0 29.574219 C 0 28.207031 1.121094 27.101562 2.503906 27.101562 C 3.878906 27.101562 5 28.207031 5 29.574219 Z M 5 29.574219 "/>
<path fill-rule="nonzero" fill="rgb(32.941176%, 74.901961%, 100%)" fill-opacity="1" d="M 4.222656 29.578125 C 4.222656 30.523438 3.449219 31.296875 2.5 31.296875 C 1.550781 31.296875 0.777344 30.523438 0.777344 29.578125 C 0.777344 28.621094 1.550781 27.851562 2.5 27.851562 C 3.449219 27.851562 4.222656 28.621094 4.222656 29.578125 Z M 4.222656 29.578125 "/>
</svg>
