<?xml version="1.0" encoding="UTF-8"?>
<svg xmlns="http://www.w3.org/2000/svg" xmlns:xlink="http://www.w3.org/1999/xlink" width="16" height="14.013781" viewBox="0 0 16 14.013781">
<path fill="none" stroke-width="1" stroke-linecap="round" stroke-linejoin="round" stroke="rgb(100%, 100%, 100%)" stroke-opacity="1" stroke-miterlimit="4" d="M -5.225436 -3.234494 L -2.069283 2.233067 L -5.225436 7.697303 L -11.537742 7.697303 L -14.693895 2.233067 L -11.537742 -3.234494 Z M -5.225436 -3.234494 " transform="matrix(1.174541, 0, 0, 1.174541, 17.844521, 4.384983)"/>
<path fill-rule="nonzero" fill="rgb(0%, 0%, 0%)" fill-opacity="1" d="M 11.707031 0.585938 L 15.414062 7.007812 L 11.707031 13.425781 L 4.292969 13.425781 L 0.585938 7.007812 L 4.292969 0.585938 Z M 11.707031 0.585938 "/>
<path fill-rule="nonzero" fill="rgb(100%, 100%, 100%)" fill-opacity="1" d="M 6.566406 3.429688 C 6.566406 3.886719 6.195312 4.257812 5.738281 4.257812 C 5.28125 4.257812 4.910156 3.886719 4.910156 3.429688 C 4.910156 2.972656 5.28125 2.601562 5.738281 2.601562 C 6.195312 2.601562 6.566406 2.972656 6.566406 3.429688 Z M 6.566406 3.429688 "/>
<path fill-rule="nonzero" fill="rgb(100%, 100%, 100%)" fill-opacity="1" d="M 6.566406 7.007812 C 6.566406 7.464844 6.195312 7.835938 5.738281 7.835938 C 5.28125 7.835938 4.910156 7.464844 4.910156 7.007812 C 4.910156 6.550781 5.28125 6.179688 5.738281 6.179688 C 6.195312 6.179688 6.566406 6.550781 6.566406 7.007812 Z M 6.566406 7.007812 "/>
<path fill-rule="nonzero" fill="rgb(100%, 100%, 100%)" fill-opacity="1" d="M 6.566406 10.585938 C 6.566406 11.042969 6.195312 11.410156 5.738281 11.410156 C 5.28125 11.410156 4.910156 11.042969 4.910156 10.585938 C 4.910156 10.128906 5.28125 9.757812 5.738281 9.757812 C 6.195312 9.757812 6.566406 10.128906 6.566406 10.585938 Z M 6.566406 10.585938 "/>
<path fill-rule="nonzero" fill="rgb(100%, 100%, 100%)" fill-opacity="1" d="M 11.089844 3.429688 C 11.089844 3.886719 10.71875 4.257812 10.261719 4.257812 C 9.804688 4.257812 9.433594 3.886719 9.433594 3.429688 C 9.433594 2.972656 9.804688 2.601562 10.261719 2.601562 C 10.71875 2.601562 11.089844 2.972656 11.089844 3.429688 Z M 11.089844 3.429688 "/>
<path fill-rule="nonzero" fill="rgb(100%, 100%, 100%)" fill-opacity="1" d="M 11.089844 7.007812 C 11.089844 7.464844 10.71875 7.835938 10.261719 7.835938 C 9.804688 7.835938 9.433594 7.464844 9.433594 7.007812 C 9.433594 6.550781 9.804688 6.179688 10.261719 6.179688 C 10.71875 6.179688 11.089844 6.550781 11.089844 7.007812 Z M 11.089844 7.007812 "/>
<path fill-rule="nonzero" fill="rgb(100%, 100%, 100%)" fill-opacity="1" d="M 11.089844 10.585938 C 11.089844 11.042969 10.71875 11.410156 10.261719 11.410156 C 9.804688 11.410156 9.433594 11.042969 9.433594 10.585938 C 9.433594 10.128906 9.804688 9.757812 10.261719 9.757812 C 10.71875 9.757812 11.089844 10.128906 11.089844 10.585938 Z M 11.089844 10.585938 "/>
</svg>
