<?xml version="1.0" encoding="UTF-8"?>
<svg xmlns="http://www.w3.org/2000/svg" xmlns:xlink="http://www.w3.org/1999/xlink" width="12" height="12.39226" viewBox="0 0 12 12.39226">
<path fill-rule="evenodd" fill="rgb(20%, 20%, 20%)" fill-opacity="1" d="M 3.242188 0 C 1.449219 0 0 1.449219 0 3.242188 L 0 9.148438 C 0 10.734375 1.144531 12.058594 2.652344 12.335938 C 2.742188 12.351562 2.84375 12.371094 2.9375 12.375 C 3.042969 12.382812 3.140625 12.390625 3.242188 12.390625 L 8.757812 12.390625 C 10.550781 12.390625 12 10.941406 12 9.148438 C 12 8.585938 11.855469 8.054688 11.597656 7.59375 C 11.546875 7.492188 11.488281 7.398438 11.421875 7.304688 C 6.09375 1.6875 10.589844 6.429688 6.09375 1.6875 C 5.003906 0.601562 4.46875 0 3.242188 0 Z M 3.242188 0 "/>
<path fill-rule="nonzero" fill="rgb(100%, 100%, 100%)" fill-opacity="1" d="M 5.003906 9.148438 C 5.003906 10.121094 4.214844 10.90625 3.242188 10.90625 C 2.273438 10.90625 1.484375 10.121094 1.484375 9.148438 C 1.484375 8.175781 2.273438 7.386719 3.242188 7.386719 C 4.214844 7.386719 5.003906 8.175781 5.003906 9.148438 Z M 5.003906 9.148438 "/>
<path fill-rule="nonzero" fill="rgb(100%, 100%, 100%)" fill-opacity="1" d="M 5.003906 3.320312 C 5.003906 4.292969 4.214844 5.082031 3.242188 5.082031 C 2.273438 5.082031 1.484375 4.292969 1.484375 3.320312 C 1.484375 2.34375 2.273438 1.558594 3.242188 1.558594 C 4.214844 1.558594 5.003906 2.34375 5.003906 3.320312 Z M 5.003906 3.320312 "/>
<path fill-rule="nonzero" fill="rgb(5.490196%, 5.490196%, 5.490196%)" fill-opacity="1" d="M 10.449219 9.148438 C 10.449219 10.121094 9.660156 10.90625 8.691406 10.90625 C 7.71875 10.90625 6.929688 10.121094 6.929688 9.148438 C 6.929688 8.175781 7.71875 7.386719 8.691406 7.386719 C 9.660156 7.386719 10.449219 8.175781 10.449219 9.148438 Z M 10.449219 9.148438 "/>
</svg>
