<?xml version="1.0" encoding="UTF-8"?>
<svg xmlns="http://www.w3.org/2000/svg" xmlns:xlink="http://www.w3.org/1999/xlink" width="10" height="19.072918" viewBox="0 0 10 19.072918">
<path fill-rule="nonzero" fill="rgb(0%, 0%, 0%)" fill-opacity="1" d="M 10 16.597656 C 10 17.964844 8.878906 19.074219 7.503906 19.074219 C 6.121094 19.074219 5 17.964844 5 16.597656 C 5 15.230469 6.121094 14.125 7.503906 14.125 C 8.878906 14.125 10 15.230469 10 16.597656 Z M 10 16.597656 "/>
<path fill-rule="nonzero" fill="rgb(32.941176%, 74.901961%, 100%)" fill-opacity="1" d="M 9.222656 16.601562 C 9.222656 17.550781 8.449219 18.324219 7.5 18.324219 C 6.550781 18.324219 5.777344 17.550781 5.777344 16.601562 C 5.777344 15.644531 6.550781 14.878906 7.5 14.878906 C 8.449219 14.878906 9.222656 15.644531 9.222656 16.601562 Z M 9.222656 16.601562 "/>
<path fill-rule="nonzero" fill="rgb(0%, 0%, 0%)" fill-opacity="1" d="M 5 16.597656 C 5 17.964844 3.878906 19.074219 2.503906 19.074219 C 1.121094 19.074219 0 17.964844 0 16.597656 C 0 15.230469 1.121094 14.125 2.503906 14.125 C 3.878906 14.125 5 15.230469 5 16.597656 Z M 5 16.597656 "/>
<path fill-rule="nonzero" fill="rgb(32.941176%, 74.901961%, 100%)" fill-opacity="1" d="M 4.222656 16.601562 C 4.222656 17.550781 3.449219 18.324219 2.5 18.324219 C 1.550781 18.324219 0.777344 17.550781 0.777344 16.601562 C 0.777344 15.644531 1.550781 14.878906 2.5 14.878906 C 3.449219 14.878906 4.222656 15.644531 4.222656 16.601562 Z M 4.222656 16.601562 "/>
<path fill-rule="nonzero" fill="rgb(0%, 0%, 0%)" fill-opacity="1" d="M 1.085938 0 L 8.914062 0 L 8.914062 13 L 1.085938 13 Z M 1.085938 0 "/>
<path fill-rule="nonzero" fill="rgb(100%, 100%, 100%)" fill-opacity="1" d="M 7.148438 3.625 C 7.148438 4.8125 6.183594 5.773438 4.996094 5.773438 C 3.8125 5.773438 2.851562 4.8125 2.851562 3.625 C 2.851562 2.4375 3.8125 1.472656 4.996094 1.472656 C 6.183594 1.472656 7.148438 2.4375 7.148438 3.625 Z M 7.148438 3.625 "/>
<path fill-rule="nonzero" fill="rgb(100%, 100%, 100%)" fill-opacity="1" d="M 7.148438 9.375 C 7.148438 10.5625 6.183594 11.527344 4.996094 11.527344 C 3.8125 11.527344 2.851562 10.5625 2.851562 9.375 C 2.851562 8.1875 3.8125 7.226562 4.996094 7.226562 C 6.183594 7.226562 7.148438 8.1875 7.148438 9.375 Z M 7.148438 9.375 "/>
</svg>
