<?xml version="1.0" encoding="UTF-8"?>
<svg xmlns="http://www.w3.org/2000/svg" xmlns:xlink="http://www.w3.org/1999/xlink" width="7.823908" height="13" viewBox="0 0 7.823908 13">
<path fill-rule="nonzero" fill="rgb(0%, 0%, 0%)" fill-opacity="1" d="M 0 0 L 7.824219 0 L 7.824219 13 L 0 13 Z M 0 0 "/>
<path fill-rule="nonzero" fill="rgb(100%, 100%, 100%)" fill-opacity="1" d="M 6.0625 3.625 C 6.0625 4.8125 5.097656 5.773438 3.910156 5.773438 C 2.726562 5.773438 1.761719 4.8125 1.761719 3.625 C 1.761719 2.4375 2.726562 1.472656 3.910156 1.472656 C 5.097656 1.472656 6.0625 2.4375 6.0625 3.625 Z M 6.0625 3.625 "/>
<path fill-rule="nonzero" fill="rgb(100%, 100%, 100%)" fill-opacity="1" d="M 6.0625 9.375 C 6.0625 10.5625 5.097656 11.527344 3.910156 11.527344 C 2.726562 11.527344 1.761719 10.5625 1.761719 9.375 C 1.761719 8.1875 2.726562 7.226562 3.910156 7.226562 C 5.097656 7.226562 6.0625 8.1875 6.0625 9.375 Z M 6.0625 9.375 "/>
</svg>
