<?xml version="1.0" encoding="UTF-8"?>
<svg xmlns="http://www.w3.org/2000/svg" xmlns:xlink="http://www.w3.org/1999/xlink" width="4.5" height="18.269035" viewBox="0 0 4.5 18.269035">
<path fill-rule="nonzero" fill="rgb(100%, 100%, 100%)" fill-opacity="1" d="M 2.25 0 L 4.460938 2.214844 L 2.25 4.425781 L 0.0390625 2.214844 Z M 2.25 0 "/>
<path fill-rule="nonzero" fill="rgb(0%, 0%, 0%)" fill-opacity="1" d="M 0 10.085938 L 4.5 10.085938 L 4.5 11.726562 L 0 11.726562 Z M 0 10.085938 "/>
<path fill-rule="nonzero" fill="rgb(100%, 100%, 100%)" fill-opacity="1" d="M 0 8.441406 L 4.5 8.441406 L 4.5 10.085938 L 0 10.085938 Z M 0 8.441406 "/>
<path fill-rule="nonzero" fill="rgb(0%, 0%, 0%)" fill-opacity="1" d="M 0 6.96875 L 4.5 6.96875 L 4.5 8.613281 L 0 8.613281 Z M 0 6.96875 "/>
<path fill-rule="nonzero" fill="rgb(100%, 100%, 100%)" fill-opacity="1" d="M 0 5.328125 L 4.5 5.328125 L 4.5 6.96875 L 0 6.96875 Z M 0 5.328125 "/>
<path fill-rule="nonzero" fill="rgb(0%, 0%, 0%)" fill-opacity="1" d="M 0 3.855469 L 4.5 3.855469 L 4.5 5.496094 L 0 5.496094 Z M 0 3.855469 "/>
<path fill-rule="nonzero" fill="rgb(100%, 100%, 100%)" fill-opacity="1" d="M 0 2.214844 L 4.5 2.214844 L 4.5 3.855469 L 0 3.855469 Z M 0 2.214844 "/>
<path fill-rule="nonzero" fill="rgb(0%, 0%, 0%)" fill-opacity="1" d="M 0 13.339844 L 4.5 13.339844 L 4.5 14.984375 L 0 14.984375 Z M 0 13.339844 "/>
<path fill-rule="nonzero" fill="rgb(100%, 100%, 100%)" fill-opacity="1" d="M 0 11.699219 L 4.5 11.699219 L 4.5 13.339844 L 0 13.339844 Z M 0 11.699219 "/>
<path fill-rule="nonzero" fill="rgb(0%, 0%, 0%)" fill-opacity="1" d="M 0 16.625 L 4.5 16.625 L 4.5 18.269531 L 0 18.269531 Z M 0 16.625 "/>
<path fill-rule="nonzero" fill="rgb(100%, 100%, 100%)" fill-opacity="1" d="M 0 14.984375 L 4.5 14.984375 L 4.5 16.625 L 0 16.625 Z M 0 14.984375 "/>
</svg>
