<?xml version="1.0" encoding="UTF-8"?>
<svg xmlns="http://www.w3.org/2000/svg" xmlns:xlink="http://www.w3.org/1999/xlink" width="14" height="14.000002" viewBox="0 0 14 14.000002">
<path fill-rule="nonzero" fill="rgb(0%, 0%, 0%)" fill-opacity="1" d="M 0 0 L 14 0 L 14 14 L 0 14 Z M 0 0 "/>
<path fill-rule="nonzero" fill="rgb(100%, 100%, 100%)" fill-opacity="1" d="M 7.714844 12.484375 L 7.714844 3.308594 C 7.566406 3.511719 7.351562 3.714844 7.070312 3.910156 C 6.796875 4.097656 6.472656 4.269531 6.089844 4.421875 C 5.710938 4.570312 5.289062 4.679688 4.820312 4.746094 L 4.820312 3.425781 C 5.28125 3.347656 5.710938 3.203125 6.109375 2.996094 C 6.511719 2.789062 6.863281 2.554688 7.164062 2.285156 C 7.46875 2.015625 7.710938 1.761719 7.882812 1.515625 L 9.179688 1.515625 L 9.179688 12.484375 Z M 7.714844 12.484375 "/>
</svg>
