<?xml version="1.0" encoding="UTF-8"?>
<svg xmlns="http://www.w3.org/2000/svg" xmlns:xlink="http://www.w3.org/1999/xlink" width="14" height="14.000002" viewBox="0 0 14 14.000002">
<path fill-rule="nonzero" fill="rgb(0%, 0%, 0%)" fill-opacity="1" d="M 0 0 L 14 0 L 14 14 L 0 14 Z M 0 0 "/>
<path fill-rule="nonzero" fill="rgb(100%, 100%, 100%)" fill-opacity="1" d="M 3.21875 12.484375 L 3.21875 11.378906 L 7.097656 7.835938 C 7.765625 7.230469 8.253906 6.675781 8.554688 6.179688 C 8.855469 5.683594 9.003906 5.160156 9.003906 4.613281 C 9.003906 4.042969 8.851562 3.578125 8.546875 3.214844 C 8.242188 2.847656 7.746094 2.660156 7.054688 2.660156 C 6.273438 2.660156 5.710938 2.867188 5.371094 3.273438 C 5.035156 3.675781 4.867188 4.183594 4.867188 4.796875 L 3.46875 4.796875 C 3.46875 4.117188 3.601562 3.523438 3.863281 3.011719 C 4.132812 2.503906 4.53125 2.113281 5.0625 1.832031 C 5.597656 1.554688 6.261719 1.414062 7.054688 1.414062 C 7.78125 1.414062 8.398438 1.546875 8.90625 1.808594 C 9.414062 2.066406 9.796875 2.425781 10.0625 2.894531 C 10.328125 3.367188 10.464844 3.917969 10.464844 4.554688 C 10.464844 5.125 10.351562 5.644531 10.128906 6.113281 C 9.910156 6.582031 9.613281 7.023438 9.242188 7.433594 C 8.867188 7.847656 8.453125 8.257812 8 8.667969 L 5.128906 11.246094 L 10.78125 11.246094 L 10.78125 12.484375 Z M 3.21875 12.484375 "/>
</svg>
