<?xml version="1.0" encoding="UTF-8"?>
<svg xmlns="http://www.w3.org/2000/svg" xmlns:xlink="http://www.w3.org/1999/xlink" width="14" height="14.000002" viewBox="0 0 14 14.000002">
<path fill-rule="nonzero" fill="rgb(0%, 0%, 0%)" fill-opacity="1" d="M 0 0 L 14 0 L 14 14 L 0 14 Z M 0 0 "/>
<path fill-rule="nonzero" fill="rgb(100%, 100%, 100%)" fill-opacity="1" d="M 7.066406 12.636719 C 5.90625 12.636719 4.976562 12.339844 4.277344 11.75 C 3.582031 11.15625 3.230469 10.308594 3.230469 9.203125 L 4.628906 9.203125 C 4.628906 9.882812 4.84375 10.429688 5.265625 10.835938 C 5.695312 11.238281 6.289062 11.4375 7.050781 11.4375 C 7.753906 11.4375 8.304688 11.269531 8.707031 10.929688 C 9.117188 10.585938 9.320312 10.058594 9.320312 9.34375 C 9.320312 8.65625 9.097656 8.152344 8.648438 7.828125 C 8.203125 7.503906 7.59375 7.34375 6.816406 7.34375 L 6.171875 7.34375 L 6.171875 6.152344 L 6.847656 6.152344 C 7.546875 6.152344 8.082031 5.980469 8.449219 5.636719 C 8.816406 5.289062 9 4.828125 9 4.253906 C 9 3.707031 8.820312 3.296875 8.457031 3.03125 C 8.09375 2.757812 7.617188 2.621094 7.023438 2.621094 C 6.355469 2.621094 5.835938 2.796875 5.46875 3.15625 C 5.097656 3.511719 4.914062 3.980469 4.914062 4.5625 L 3.515625 4.5625 C 3.515625 3.914062 3.664062 3.355469 3.960938 2.886719 C 4.257812 2.414062 4.664062 2.046875 5.183594 1.789062 C 5.707031 1.535156 6.316406 1.40625 7.007812 1.40625 C 7.632812 1.40625 8.203125 1.511719 8.71875 1.722656 C 9.230469 1.929688 9.636719 2.242188 9.941406 2.652344 C 10.246094 3.0625 10.398438 3.570312 10.398438 4.1875 C 10.398438 4.839844 10.21875 5.378906 9.855469 5.800781 C 9.492188 6.222656 9.015625 6.515625 8.421875 6.683594 C 9.097656 6.804688 9.65625 7.09375 10.097656 7.550781 C 10.546875 8.011719 10.769531 8.628906 10.769531 9.402344 C 10.769531 10.097656 10.613281 10.683594 10.300781 11.164062 C 9.992188 11.640625 9.558594 12.007812 9 12.257812 C 8.449219 12.511719 7.804688 12.636719 7.066406 12.636719 Z M 7.066406 12.636719 "/>
</svg>
