<?xml version="1.0" encoding="UTF-8"?>
<svg xmlns="http://www.w3.org/2000/svg" xmlns:xlink="http://www.w3.org/1999/xlink" width="14" height="14.000002" viewBox="0 0 14 14.000002">
<path fill-rule="nonzero" fill="rgb(0%, 0%, 0%)" fill-opacity="1" d="M 0 0 L 14 0 L 14 14 L 0 14 Z M 0 0 "/>
<path fill-rule="nonzero" fill="rgb(100%, 100%, 100%)" fill-opacity="1" d="M 6.421875 8.878906 C 6.414062 8.84375 6.410156 8.808594 6.410156 8.773438 C 6.410156 8.742188 6.410156 8.703125 6.410156 8.667969 C 6.410156 8.148438 6.515625 7.714844 6.722656 7.367188 C 6.929688 7.023438 7.242188 6.683594 7.660156 6.351562 C 8.058594 6.039062 8.355469 5.757812 8.558594 5.503906 C 8.757812 5.246094 8.859375 4.917969 8.859375 4.527344 C 8.859375 4.113281 8.707031 3.765625 8.414062 3.488281 C 8.117188 3.199219 7.667969 3.058594 7.0625 3.058594 C 6.453125 3.058594 5.972656 3.214844 5.628906 3.527344 C 5.289062 3.839844 5.121094 4.28125 5.121094 4.855469 L 3.882812 4.855469 C 3.882812 4.265625 4.015625 3.761719 4.289062 3.34375 C 4.5625 2.925781 4.941406 2.609375 5.421875 2.394531 C 5.894531 2.167969 6.441406 2.054688 7.0625 2.054688 C 7.6875 2.054688 8.222656 2.15625 8.675781 2.355469 C 9.132812 2.554688 9.484375 2.84375 9.730469 3.214844 C 9.980469 3.578125 10.109375 4.015625 10.109375 4.527344 C 10.109375 4.929688 10.042969 5.269531 9.914062 5.558594 C 9.789062 5.835938 9.613281 6.089844 9.378906 6.324219 C 9.152344 6.554688 8.878906 6.789062 8.558594 7.027344 C 8.277344 7.246094 8.070312 7.445312 7.933594 7.628906 C 7.792969 7.808594 7.691406 8 7.632812 8.199219 C 7.582031 8.402344 7.546875 8.625 7.53125 8.878906 Z M 6.996094 11.949219 C 6.734375 11.949219 6.515625 11.867188 6.34375 11.691406 C 6.167969 11.507812 6.085938 11.292969 6.085938 11.039062 C 6.085938 10.777344 6.167969 10.566406 6.34375 10.402344 C 6.515625 10.226562 6.734375 10.140625 6.996094 10.140625 C 7.257812 10.140625 7.472656 10.226562 7.648438 10.402344 C 7.828125 10.566406 7.921875 10.777344 7.921875 11.039062 C 7.921875 11.292969 7.828125 11.507812 7.648438 11.691406 C 7.472656 11.867188 7.257812 11.949219 6.996094 11.949219 Z M 3.296875 -2.007812 "/>
</svg>
