<?xml version="1.0" encoding="UTF-8"?>
<svg xmlns="http://www.w3.org/2000/svg" xmlns:xlink="http://www.w3.org/1999/xlink" width="18" height="9.753845" viewBox="0 0 18 9.753845">
<path fill-rule="nonzero" fill="rgb(0%, 0%, 0%)" fill-opacity="1" d="M 18 0 L 18 9.753906 L 0 9.753906 L 0 0 Z M 18 0 "/>
<path fill-rule="nonzero" fill="rgb(100%, 100%, 100%)" fill-opacity="1" d="M 3.308594 8.105469 L 3.308594 2.683594 C 3.21875 2.804688 3.09375 2.921875 2.925781 3.039062 C 2.765625 3.152344 2.574219 3.25 2.347656 3.339844 C 2.125 3.429688 1.875 3.496094 1.597656 3.535156 L 1.597656 2.753906 C 1.871094 2.707031 2.125 2.621094 2.359375 2.5 C 2.597656 2.378906 2.804688 2.238281 2.980469 2.078125 C 3.164062 1.921875 3.304688 1.769531 3.40625 1.625 L 4.175781 1.625 L 4.175781 8.105469 Z M 3.308594 8.105469 "/>
<path fill-rule="nonzero" fill="rgb(100%, 100%, 100%)" fill-opacity="1" d="M 8.917969 8.195312 C 8.460938 8.195312 8.050781 8.085938 7.691406 7.867188 C 7.332031 7.648438 7.046875 7.296875 6.839844 6.8125 C 6.636719 6.332031 6.535156 5.699219 6.535156 4.917969 C 6.535156 4.152344 6.632812 3.523438 6.832031 3.027344 C 7.027344 2.535156 7.308594 2.167969 7.667969 1.925781 C 8.027344 1.683594 8.445312 1.566406 8.917969 1.566406 C 9.441406 1.566406 9.882812 1.699219 10.246094 1.96875 C 10.605469 2.242188 10.839844 2.652344 10.9375 3.203125 L 10.105469 3.203125 C 10.035156 2.894531 9.902344 2.664062 9.699219 2.507812 C 9.5 2.355469 9.238281 2.277344 8.917969 2.277344 C 8.445312 2.277344 8.066406 2.488281 7.789062 2.914062 C 7.515625 3.335938 7.378906 4.003906 7.378906 4.917969 L 7.378906 5.175781 C 7.378906 5.742188 7.449219 6.195312 7.59375 6.535156 C 7.738281 6.875 7.925781 7.117188 8.160156 7.265625 C 8.394531 7.414062 8.648438 7.488281 8.921875 7.488281 C 9.355469 7.488281 9.675781 7.351562 9.882812 7.085938 C 10.089844 6.820312 10.195312 6.488281 10.195312 6.089844 C 10.195312 5.691406 10.09375 5.378906 9.886719 5.148438 C 9.683594 4.914062 9.398438 4.800781 9.027344 4.800781 C 8.597656 4.800781 8.222656 4.902344 7.898438 5.101562 C 7.574219 5.304688 7.332031 5.535156 7.167969 5.800781 L 7.074219 5.167969 C 7.214844 4.964844 7.386719 4.785156 7.585938 4.621094 C 7.792969 4.457031 8.023438 4.328125 8.28125 4.230469 C 8.539062 4.136719 8.828125 4.085938 9.140625 4.085938 C 9.507812 4.085938 9.832031 4.164062 10.121094 4.316406 C 10.40625 4.464844 10.636719 4.683594 10.804688 4.976562 C 10.972656 5.273438 11.054688 5.632812 11.054688 6.0625 C 11.054688 6.476562 10.972656 6.847656 10.804688 7.171875 C 10.636719 7.488281 10.394531 7.742188 10.074219 7.921875 C 9.757812 8.101562 9.375 8.195312 8.917969 8.195312 Z M 8.917969 8.195312 "/>
<path fill-rule="nonzero" fill="rgb(100%, 100%, 100%)" fill-opacity="1" d="M 14.175781 8.195312 C 13.761719 8.195312 13.410156 8.109375 13.125 7.941406 C 12.839844 7.769531 12.609375 7.535156 12.4375 7.234375 C 12.265625 6.929688 12.140625 6.578125 12.058594 6.179688 C 11.984375 5.78125 11.945312 5.351562 11.945312 4.890625 C 11.945312 4.421875 11.984375 3.984375 12.058594 3.582031 C 12.140625 3.179688 12.265625 2.828125 12.4375 2.523438 C 12.609375 2.222656 12.839844 1.984375 13.125 1.816406 C 13.410156 1.644531 13.761719 1.558594 14.175781 1.558594 C 14.59375 1.558594 14.941406 1.644531 15.226562 1.8125 C 15.511719 1.980469 15.742188 2.21875 15.914062 2.523438 C 16.085938 2.828125 16.207031 3.179688 16.285156 3.582031 C 16.363281 3.980469 16.402344 4.414062 16.402344 4.878906 C 16.402344 5.34375 16.363281 5.777344 16.285156 6.179688 C 16.207031 6.578125 16.085938 6.929688 15.914062 7.234375 C 15.742188 7.535156 15.511719 7.769531 15.226562 7.941406 C 14.941406 8.109375 14.59375 8.195312 14.175781 8.195312 Z M 14.175781 7.472656 C 14.449219 7.472656 14.675781 7.398438 14.851562 7.25 C 15.023438 7.101562 15.160156 6.902344 15.253906 6.65625 C 15.355469 6.40625 15.421875 6.125 15.457031 5.820312 C 15.5 5.507812 15.519531 5.195312 15.519531 4.878906 C 15.519531 4.558594 15.5 4.246094 15.457031 3.9375 C 15.421875 3.628906 15.355469 3.351562 15.253906 3.101562 C 15.160156 2.851562 15.023438 2.652344 14.851562 2.503906 C 14.675781 2.355469 14.449219 2.28125 14.175781 2.28125 C 13.902344 2.28125 13.675781 2.355469 13.5 2.503906 C 13.324219 2.652344 13.1875 2.851562 13.089844 3.101562 C 12.988281 3.351562 12.921875 3.628906 12.882812 3.9375 C 12.84375 4.246094 12.828125 4.558594 12.828125 4.878906 C 12.828125 5.195312 12.84375 5.507812 12.882812 5.820312 C 12.921875 6.125 12.988281 6.40625 13.089844 6.65625 C 13.1875 6.902344 13.324219 7.101562 13.5 7.25 C 13.675781 7.398438 13.902344 7.472656 14.175781 7.472656 Z M 14.175781 7.472656 "/>
</svg>
