<?xml version="1.0" encoding="UTF-8"?>
<svg xmlns="http://www.w3.org/2000/svg" xmlns:xlink="http://www.w3.org/1999/xlink" width="18" height="15.285055" viewBox="0 0 18 15.285055">
<path fill-rule="nonzero" fill="rgb(0%, 0%, 0%)" fill-opacity="1" d="M 18 0 L 18 9.753906 L 0 9.753906 L 0 0 Z M 18 0 "/>
<path fill-rule="nonzero" fill="rgb(100%, 100%, 100%)" fill-opacity="1" d="M 8.585938 6.222656 C 8.582031 6.199219 8.582031 6.175781 8.582031 6.152344 C 8.582031 6.121094 8.582031 6.097656 8.582031 6.074219 C 8.582031 5.695312 8.65625 5.382812 8.804688 5.136719 C 8.953125 4.886719 9.175781 4.644531 9.472656 4.410156 C 9.757812 4.1875 9.972656 3.984375 10.113281 3.800781 C 10.257812 3.613281 10.332031 3.382812 10.332031 3.105469 C 10.332031 2.800781 10.226562 2.550781 10.015625 2.351562 C 9.804688 2.148438 9.480469 2.042969 9.046875 2.042969 C 8.613281 2.042969 8.269531 2.160156 8.019531 2.386719 C 7.773438 2.609375 7.648438 2.929688 7.648438 3.339844 L 6.769531 3.339844 C 6.769531 2.914062 6.863281 2.550781 7.058594 2.253906 C 7.253906 1.953125 7.523438 1.722656 7.867188 1.570312 C 8.207031 1.410156 8.601562 1.332031 9.046875 1.332031 C 9.492188 1.332031 9.875 1.402344 10.199219 1.546875 C 10.527344 1.6875 10.78125 1.894531 10.960938 2.160156 C 11.140625 2.421875 11.230469 2.738281 11.230469 3.105469 C 11.230469 3.390625 11.183594 3.632812 11.089844 3.835938 C 11 4.035156 10.875 4.222656 10.707031 4.390625 C 10.542969 4.554688 10.347656 4.726562 10.117188 4.898438 C 9.921875 5.050781 9.769531 5.191406 9.667969 5.320312 C 9.566406 5.453125 9.496094 5.589844 9.457031 5.738281 C 9.417969 5.878906 9.390625 6.039062 9.378906 6.222656 Z M 8.996094 8.421875 C 8.808594 8.421875 8.652344 8.359375 8.527344 8.238281 C 8.40625 8.109375 8.34375 7.953125 8.34375 7.769531 C 8.34375 7.585938 8.40625 7.429688 8.527344 7.308594 C 8.652344 7.191406 8.808594 7.128906 8.996094 7.128906 C 9.183594 7.128906 9.339844 7.191406 9.464844 7.308594 C 9.59375 7.429688 9.65625 7.585938 9.65625 7.769531 C 9.65625 7.953125 9.59375 8.109375 9.464844 8.238281 C 9.339844 8.359375 9.183594 8.421875 8.996094 8.421875 Z M 8.996094 8.421875 "/>
<path fill-rule="nonzero" fill="rgb(0%, 0%, 0%)" fill-opacity="1" d="M 0 10.117188 L 18 10.117188 L 18 15.285156 L 0 15.285156 Z M 0 10.117188 "/>
<path fill-rule="nonzero" fill="rgb(100%, 100%, 100%)" fill-opacity="1" d="M 15.738281 10.117188 L 0 14.636719 L 0 15.285156 L 2.273438 15.285156 L 18 10.769531 L 18 10.117188 Z M 15.738281 10.117188 "/>
</svg>
