<?xml version="1.0" encoding="UTF-8"?>
<svg xmlns="http://www.w3.org/2000/svg" xmlns:xlink="http://www.w3.org/1999/xlink" width="22" height="19.096858" viewBox="0 0 22 19.096858">
<path fill-rule="nonzero" fill="rgb(100%, 100%, 100%)" fill-opacity="1" stroke-width="2" stroke-linecap="butt" stroke-linejoin="miter" stroke="rgb(0%, 0%, 0%)" stroke-opacity="1" stroke-miterlimit="4" d="M 10.814454 16.656701 L 19.7629 1.007416 L 1.736266 1.079919 Z M 10.814454 16.656701 " transform="matrix(1.023659, 0, 0, 1.023659, 0, 0)"/>
<path fill-rule="nonzero" fill="rgb(0%, 0%, 0%)" fill-opacity="1" d="M 10.785156 6.433594 C 10.785156 6.976562 10.632812 7.398438 10.328125 7.707031 C 10.027344 8.015625 9.609375 8.167969 9.074219 8.167969 C 8.476562 8.167969 8.015625 7.960938 7.695312 7.542969 C 7.375 7.121094 7.214844 6.5 7.214844 5.675781 C 7.214844 4.769531 7.378906 4.085938 7.703125 3.628906 C 8.027344 3.171875 8.496094 2.941406 9.101562 2.941406 C 9.53125 2.941406 9.871094 3.035156 10.117188 3.226562 C 10.367188 3.417969 10.542969 3.710938 10.648438 4.109375 L 9.691406 4.242188 C 9.601562 3.910156 9.394531 3.742188 9.078125 3.742188 C 8.808594 3.742188 8.59375 3.878906 8.4375 4.148438 C 8.285156 4.421875 8.207031 4.832031 8.207031 5.386719 C 8.316406 5.207031 8.464844 5.066406 8.65625 4.972656 C 8.847656 4.875 9.066406 4.828125 9.308594 4.828125 C 9.765625 4.828125 10.125 4.972656 10.386719 5.261719 C 10.652344 5.546875 10.785156 5.941406 10.785156 6.433594 Z M 9.765625 6.464844 C 9.765625 6.175781 9.699219 5.957031 9.566406 5.804688 C 9.433594 5.648438 9.25 5.574219 9.015625 5.574219 C 8.792969 5.574219 8.613281 5.644531 8.480469 5.789062 C 8.347656 5.929688 8.277344 6.121094 8.277344 6.355469 C 8.277344 6.652344 8.347656 6.898438 8.488281 7.089844 C 8.628906 7.285156 8.8125 7.378906 9.042969 7.378906 C 9.269531 7.378906 9.449219 7.300781 9.578125 7.136719 C 9.703125 6.976562 9.765625 6.75 9.765625 6.464844 Z M 9.765625 6.464844 "/>
<path fill-rule="nonzero" fill="rgb(0%, 0%, 0%)" fill-opacity="1" d="M 14.855469 5.554688 C 14.855469 6.414062 14.707031 7.0625 14.410156 7.503906 C 14.117188 7.949219 13.675781 8.167969 13.085938 8.167969 C 11.925781 8.167969 11.34375 7.296875 11.34375 5.554688 C 11.34375 4.949219 11.40625 4.449219 11.535156 4.066406 C 11.660156 3.683594 11.851562 3.398438 12.105469 3.214844 C 12.363281 3.03125 12.699219 2.941406 13.117188 2.941406 C 13.71875 2.941406 14.15625 3.160156 14.4375 3.59375 C 14.714844 4.027344 14.855469 4.683594 14.855469 5.554688 Z M 13.835938 5.554688 C 13.835938 5.085938 13.816406 4.722656 13.769531 4.464844 C 13.722656 4.203125 13.648438 4.015625 13.550781 3.902344 C 13.449219 3.792969 13.300781 3.734375 13.109375 3.734375 C 12.90625 3.734375 12.75 3.792969 12.644531 3.90625 C 12.542969 4.019531 12.464844 4.207031 12.421875 4.464844 C 12.378906 4.722656 12.355469 5.085938 12.355469 5.554688 C 12.355469 6.019531 12.378906 6.382812 12.425781 6.644531 C 12.472656 6.902344 12.546875 7.089844 12.648438 7.203125 C 12.75 7.316406 12.898438 7.371094 13.09375 7.371094 C 13.289062 7.371094 13.433594 7.3125 13.539062 7.195312 C 13.644531 7.074219 13.71875 6.882812 13.765625 6.621094 C 13.8125 6.359375 13.835938 6.003906 13.835938 5.554688 Z M 13.835938 5.554688 "/>
</svg>
