<?xml version="1.0" encoding="UTF-8"?>
<svg xmlns="http://www.w3.org/2000/svg" xmlns:xlink="http://www.w3.org/1999/xlink" width="22" height="19.096858" viewBox="0 0 22 19.096858">
<path fill-rule="nonzero" fill="rgb(100%, 100%, 100%)" fill-opacity="1" stroke-width="2" stroke-linecap="butt" stroke-linejoin="miter" stroke="rgb(0%, 0%, 0%)" stroke-opacity="1" stroke-miterlimit="4" d="M 10.814454 16.656701 L 19.7629 1.007416 L 1.736266 1.079919 Z M 10.814454 16.656701 " transform="matrix(1.023659, 0, 0, 1.023659, 0, 0)"/>
<path fill-rule="nonzero" fill="rgb(0%, 0%, 0%)" fill-opacity="1" d="M 13.398438 4.808594 C 13.398438 5.105469 13.332031 5.375 13.195312 5.613281 C 13.0625 5.847656 12.816406 6.097656 12.449219 6.359375 L 12.097656 6.613281 C 11.886719 6.765625 11.730469 6.917969 11.625 7.070312 C 11.523438 7.226562 11.46875 7.394531 11.460938 7.582031 L 10.226562 7.582031 C 10.246094 7.265625 10.332031 6.984375 10.488281 6.738281 C 10.648438 6.492188 10.882812 6.261719 11.191406 6.046875 C 11.519531 5.820312 11.753906 5.617188 11.890625 5.445312 C 12.023438 5.269531 12.09375 5.074219 12.09375 4.863281 C 12.09375 4.59375 12.003906 4.378906 11.824219 4.222656 C 11.648438 4.0625 11.398438 3.984375 11.070312 3.984375 C 10.761719 3.984375 10.5 4.078125 10.285156 4.257812 C 10.078125 4.441406 9.953125 4.679688 9.917969 4.980469 L 8.601562 4.921875 C 8.683594 4.296875 8.941406 3.8125 9.371094 3.464844 C 9.800781 3.117188 10.363281 2.941406 11.054688 2.941406 C 11.78125 2.941406 12.355469 3.109375 12.773438 3.441406 C 13.191406 3.769531 13.398438 4.226562 13.398438 4.808594 Z M 10.1875 9.546875 L 10.1875 8.300781 L 11.523438 8.300781 L 11.523438 9.546875 Z M 10.1875 9.546875 "/>
</svg>
