<?xml version="1.0" encoding="UTF-8"?>
<svg xmlns="http://www.w3.org/2000/svg" xmlns:xlink="http://www.w3.org/1999/xlink" width="16" height="16" viewBox="0 0 16 16">
<rect x="-1.6" y="-1.6" width="19.2" height="19.2" fill="rgb(100%, 100%, 100%)" fill-opacity="1"/>
<path fill-rule="nonzero" fill="rgb(100%, 0%, 0%)" fill-opacity="1" d="M 1.066406 2.402344 L 1.066406 4.015625 L 1.074219 4.015625 C 1.3125 4.144531 1.863281 4.628906 2.410156 5.367188 C 2.988281 6.152344 3.597656 7.167969 4.109375 8.1875 C 4.621094 9.203125 5.039062 10.234375 5.25 11.011719 C 5.359375 11.398438 5.410156 11.730469 5.414062 11.917969 C 5.417969 11.980469 5.414062 11.984375 5.410156 12.003906 C 5.21875 12.164062 4.894531 12.359375 4.796875 12.359375 L 1.066406 12.375 L 1.070312 13.984375 L 4.800781 13.972656 C 5.628906 13.96875 6.167969 13.472656 6.492188 13.15625 C 6.875 12.78125 6.925781 12.296875 6.914062 11.878906 C 6.90625 11.457031 6.820312 11.027344 6.6875 10.554688 C 6.429688 9.605469 5.976562 8.511719 5.429688 7.421875 C 4.878906 6.328125 4.238281 5.246094 3.582031 4.363281 C 2.929688 3.476562 2.320312 2.769531 1.53125 2.453125 L 1.402344 2.402344 Z M 1.066406 2.402344 "/>
<path fill-rule="nonzero" fill="rgb(100%, 0%, 0%)" fill-opacity="1" d="M 14.933594 2.402344 L 14.933594 4.015625 L 14.925781 4.015625 C 14.6875 4.144531 14.136719 4.628906 13.589844 5.367188 C 13.011719 6.152344 12.402344 7.167969 11.890625 8.1875 C 11.378906 9.203125 10.960938 10.234375 10.75 11.011719 C 10.640625 11.398438 10.589844 11.730469 10.585938 11.917969 C 10.582031 11.976562 10.585938 11.984375 10.589844 12.003906 C 10.78125 12.164062 11.105469 12.359375 11.203125 12.359375 L 14.933594 12.375 L 14.929688 13.984375 L 11.199219 13.972656 C 10.371094 13.96875 9.832031 13.472656 9.507812 13.15625 C 9.125 12.78125 9.074219 12.296875 9.085938 11.878906 C 9.09375 11.457031 9.179688 11.027344 9.3125 10.554688 C 9.570312 9.605469 10.023438 8.511719 10.570312 7.421875 C 11.121094 6.328125 11.761719 5.246094 12.417969 4.363281 C 13.070312 3.476562 13.679688 2.769531 14.46875 2.453125 L 14.597656 2.402344 Z M 14.933594 2.402344 "/>
</svg>
