<?xml version="1.0" encoding="UTF-8"?>
<svg xmlns="http://www.w3.org/2000/svg" xmlns:xlink="http://www.w3.org/1999/xlink" width="16" height="31.96875" viewBox="0 0 16 31.96875">
<path fill-rule="nonzero" fill="rgb(100%, 100%, 100%)" fill-opacity="1" d="M 0.015625 0 L 15.984375 0 L 15.984375 15.96875 L 0.015625 15.96875 Z M 0.015625 0 "/>
<path fill-rule="nonzero" fill="rgb(0.784314%, 72.156863%, 100%)" fill-opacity="1" d="M 0.015625 11.976562 L 2.011719 13.972656 L 0.015625 15.96875 Z M 0.015625 11.976562 "/>
<path fill-rule="nonzero" fill="rgb(0.784314%, 72.156863%, 100%)" fill-opacity="1" d="M 0.015625 7.984375 L 2.011719 9.980469 L 0.015625 11.976562 Z M 0.015625 7.984375 "/>
<path fill-rule="nonzero" fill="rgb(0.784314%, 72.156863%, 100%)" fill-opacity="1" d="M 0.015625 3.992188 L 2.011719 5.988281 L 0.015625 7.984375 Z M 0.015625 3.992188 "/>
<path fill-rule="nonzero" fill="rgb(0.784314%, 72.156863%, 100%)" fill-opacity="1" d="M 0.015625 0 L 2.011719 1.996094 L 0.015625 3.992188 Z M 0.015625 0 "/>
<path fill-rule="nonzero" fill="rgb(0.784314%, 72.156863%, 100%)" fill-opacity="1" d="M 2.011719 13.972656 L 4.007812 11.976562 C 4.007812 11.976562 5.984375 13.972656 6.003906 13.972656 L 4.007812 15.96875 Z M 2.011719 13.972656 "/>
<path fill-rule="nonzero" fill="rgb(0.784314%, 72.156863%, 100%)" fill-opacity="1" d="M 2.011719 9.980469 L 4.007812 7.984375 C 4.007812 7.984375 5.984375 9.980469 6.003906 9.980469 L 4.007812 11.976562 Z M 2.011719 9.980469 "/>
<path fill-rule="nonzero" fill="rgb(0.784314%, 72.156863%, 100%)" fill-opacity="1" d="M 9.976562 13.972656 L 11.976562 11.976562 C 11.976562 11.976562 13.949219 13.972656 13.972656 13.972656 L 11.976562 15.96875 Z M 9.976562 13.972656 "/>
<path fill-rule="nonzero" fill="rgb(0.784314%, 72.156863%, 100%)" fill-opacity="1" d="M 9.976562 9.980469 L 11.976562 7.984375 C 11.976562 7.984375 13.949219 9.980469 13.972656 9.980469 L 11.976562 11.976562 Z M 9.976562 9.980469 "/>
<path fill-rule="nonzero" fill="rgb(0.784314%, 72.156863%, 100%)" fill-opacity="1" d="M 9.976562 5.988281 L 11.976562 3.992188 C 11.976562 3.992188 13.949219 5.984375 13.972656 5.988281 L 11.976562 7.984375 Z M 9.976562 5.988281 "/>
<path fill-rule="nonzero" fill="rgb(0.784314%, 72.156863%, 100%)" fill-opacity="1" d="M 9.976562 1.996094 L 11.976562 0 C 11.976562 0 13.949219 1.992188 13.972656 1.996094 L 11.976562 3.992188 Z M 9.976562 1.996094 "/>
<path fill-rule="nonzero" fill="rgb(0.784314%, 72.156863%, 100%)" fill-opacity="1" d="M 13.988281 1.996094 L 15.984375 0 L 15.984375 3.992188 C 15.984375 3.992188 13.988281 1.996094 13.988281 1.996094 Z M 13.988281 1.996094 "/>
<path fill-rule="nonzero" fill="rgb(0.784314%, 72.156863%, 100%)" fill-opacity="1" d="M 13.988281 5.988281 L 15.984375 3.992188 L 15.984375 7.984375 C 15.984375 7.984375 13.988281 5.988281 13.988281 5.988281 Z M 13.988281 5.988281 "/>
<path fill-rule="nonzero" fill="rgb(0.784314%, 72.156863%, 100%)" fill-opacity="1" d="M 13.988281 9.980469 L 15.984375 7.984375 L 15.984375 11.976562 C 15.984375 11.976562 13.988281 9.980469 13.988281 9.980469 Z M 13.988281 9.980469 "/>
<path fill-rule="nonzero" fill="rgb(0.784314%, 72.156863%, 100%)" fill-opacity="1" d="M 13.988281 13.972656 L 15.984375 11.976562 L 15.984375 15.96875 C 15.984375 15.96875 13.988281 13.972656 13.988281 13.972656 Z M 13.988281 13.972656 "/>
<path fill-rule="nonzero" fill="rgb(0.784314%, 72.156863%, 100%)" fill-opacity="1" d="M 2.011719 5.988281 L 4.007812 3.992188 C 4.007812 3.992188 5.984375 5.984375 6.003906 5.988281 L 4.007812 7.984375 Z M 2.011719 5.988281 "/>
<path fill-rule="nonzero" fill="rgb(0.784314%, 72.156863%, 100%)" fill-opacity="1" d="M 2.011719 1.996094 L 4.007812 0 C 4.007812 0 5.984375 1.992188 6.003906 1.996094 L 4.007812 3.992188 Z M 2.011719 1.996094 "/>
<path fill-rule="nonzero" fill="rgb(100%, 100%, 100%)" fill-opacity="1" d="M 0 15.96875 L 16 15.96875 L 16 31.96875 L 0 31.96875 Z M 0 15.96875 "/>
<path fill-rule="nonzero" fill="rgb(100%, 0%, 0%)" fill-opacity="1" d="M 1.066406 18.371094 L 1.066406 19.984375 L 1.074219 19.984375 C 1.3125 20.113281 1.863281 20.597656 2.410156 21.335938 C 2.988281 22.121094 3.597656 23.136719 4.109375 24.15625 C 4.621094 25.171875 5.039062 26.203125 5.25 26.980469 C 5.359375 27.367188 5.410156 27.699219 5.414062 27.886719 C 5.417969 27.949219 5.414062 27.953125 5.410156 27.972656 C 5.21875 28.132812 4.894531 28.328125 4.796875 28.328125 L 1.066406 28.34375 L 1.070312 29.953125 L 4.800781 29.941406 C 5.628906 29.9375 6.167969 29.441406 6.492188 29.125 C 6.875 28.75 6.925781 28.265625 6.914062 27.847656 C 6.90625 27.425781 6.820312 26.996094 6.6875 26.523438 C 6.429688 25.574219 5.976562 24.480469 5.429688 23.390625 C 4.878906 22.296875 4.238281 21.214844 3.582031 20.332031 C 2.929688 19.445312 2.320312 18.738281 1.53125 18.421875 L 1.402344 18.371094 Z M 1.066406 18.371094 "/>
<path fill-rule="nonzero" fill="rgb(100%, 0%, 0%)" fill-opacity="1" d="M 14.933594 18.371094 L 14.933594 19.984375 L 14.925781 19.984375 C 14.6875 20.113281 14.136719 20.597656 13.589844 21.335938 C 13.011719 22.121094 12.402344 23.136719 11.890625 24.15625 C 11.378906 25.171875 10.960938 26.203125 10.75 26.980469 C 10.640625 27.367188 10.589844 27.699219 10.585938 27.886719 C 10.582031 27.945312 10.585938 27.953125 10.589844 27.972656 C 10.78125 28.132812 11.105469 28.328125 11.203125 28.328125 L 14.933594 28.34375 L 14.929688 29.953125 L 11.199219 29.941406 C 10.371094 29.9375 9.832031 29.441406 9.507812 29.125 C 9.125 28.75 9.074219 28.265625 9.085938 27.847656 C 9.09375 27.425781 9.179688 26.996094 9.3125 26.523438 C 9.570312 25.574219 10.023438 24.480469 10.570312 23.390625 C 11.121094 22.296875 11.761719 21.214844 12.417969 20.332031 C 13.070312 19.445312 13.679688 18.738281 14.46875 18.421875 L 14.597656 18.371094 Z M 14.933594 18.371094 "/>
</svg>
