<?xml version="1.0" encoding="UTF-8"?>
<svg xmlns="http://www.w3.org/2000/svg" xmlns:xlink="http://www.w3.org/1999/xlink" width="16" height="15.970531" viewBox="0 0 16 15.970531">
<path fill-rule="nonzero" fill="rgb(100%, 100%, 100%)" fill-opacity="1" d="M 0 0 L 15.96875 0 L 15.96875 15.96875 L 0 15.96875 Z M 0 0 "/>
<path fill-rule="nonzero" fill="rgb(0.784314%, 72.156863%, 100%)" fill-opacity="1" d="M 0 11.976562 L 1.996094 13.972656 L 0 15.96875 Z M 0 11.976562 "/>
<path fill-rule="nonzero" fill="rgb(0.784314%, 72.156863%, 100%)" fill-opacity="1" d="M 0 7.984375 L 1.996094 9.980469 L 0 11.976562 Z M 0 7.984375 "/>
<path fill-rule="nonzero" fill="rgb(0.784314%, 72.156863%, 100%)" fill-opacity="1" d="M 0 3.992188 L 1.996094 5.988281 L 0 7.984375 Z M 0 3.992188 "/>
<path fill-rule="nonzero" fill="rgb(0.784314%, 72.156863%, 100%)" fill-opacity="1" d="M 0 0 L 1.996094 1.996094 L 0 3.992188 Z M 0 0 "/>
<path fill-rule="nonzero" fill="rgb(0.784314%, 72.156863%, 100%)" fill-opacity="1" d="M 1.996094 13.972656 L 3.992188 11.976562 C 3.992188 11.976562 5.96875 13.972656 5.988281 13.972656 L 3.992188 15.96875 Z M 1.996094 13.972656 "/>
<path fill-rule="nonzero" fill="rgb(0.784314%, 72.156863%, 100%)" fill-opacity="1" d="M 1.996094 9.980469 L 3.992188 7.984375 C 3.992188 7.984375 5.96875 9.980469 5.988281 9.980469 L 3.992188 11.976562 Z M 1.996094 9.980469 "/>
<path fill-rule="nonzero" fill="rgb(0.784314%, 72.156863%, 100%)" fill-opacity="1" d="M 9.960938 13.972656 L 11.960938 11.976562 C 11.960938 11.976562 13.933594 13.972656 13.957031 13.972656 L 11.960938 15.96875 Z M 9.960938 13.972656 "/>
<path fill-rule="nonzero" fill="rgb(0.784314%, 72.156863%, 100%)" fill-opacity="1" d="M 9.960938 9.980469 L 11.960938 7.984375 C 11.960938 7.984375 13.933594 9.980469 13.957031 9.980469 L 11.960938 11.976562 Z M 9.960938 9.980469 "/>
<path fill-rule="nonzero" fill="rgb(0.784314%, 72.156863%, 100%)" fill-opacity="1" d="M 9.960938 5.988281 L 11.960938 3.992188 C 11.960938 3.992188 13.933594 5.984375 13.957031 5.988281 L 11.960938 7.984375 Z M 9.960938 5.988281 "/>
<path fill-rule="nonzero" fill="rgb(0.784314%, 72.156863%, 100%)" fill-opacity="1" d="M 9.960938 1.996094 L 11.960938 0 C 11.960938 0 13.933594 1.992188 13.957031 1.996094 L 11.960938 3.992188 Z M 9.960938 1.996094 "/>
<path fill-rule="nonzero" fill="rgb(0.784314%, 72.156863%, 100%)" fill-opacity="1" d="M 13.972656 1.996094 L 15.96875 0 L 15.96875 3.992188 C 15.96875 3.992188 13.972656 1.996094 13.972656 1.996094 Z M 13.972656 1.996094 "/>
<path fill-rule="nonzero" fill="rgb(0.784314%, 72.156863%, 100%)" fill-opacity="1" d="M 13.972656 5.988281 L 15.96875 3.992188 L 15.96875 7.984375 C 15.96875 7.984375 13.972656 5.988281 13.972656 5.988281 Z M 13.972656 5.988281 "/>
<path fill-rule="nonzero" fill="rgb(0.784314%, 72.156863%, 100%)" fill-opacity="1" d="M 13.972656 9.980469 L 15.96875 7.984375 L 15.96875 11.976562 C 15.96875 11.976562 13.972656 9.980469 13.972656 9.980469 Z M 13.972656 9.980469 "/>
<path fill-rule="nonzero" fill="rgb(0.784314%, 72.156863%, 100%)" fill-opacity="1" d="M 13.972656 13.972656 L 15.96875 11.976562 L 15.96875 15.96875 C 15.96875 15.96875 13.972656 13.972656 13.972656 13.972656 Z M 13.972656 13.972656 "/>
<path fill-rule="nonzero" fill="rgb(0.784314%, 72.156863%, 100%)" fill-opacity="1" d="M 1.996094 5.988281 L 3.992188 3.992188 C 3.992188 3.992188 5.96875 5.984375 5.988281 5.988281 L 3.992188 7.984375 Z M 1.996094 5.988281 "/>
<path fill-rule="nonzero" fill="rgb(0.784314%, 72.156863%, 100%)" fill-opacity="1" d="M 1.996094 1.996094 L 3.992188 0 C 3.992188 0 5.96875 1.992188 5.988281 1.996094 L 3.992188 3.992188 Z M 1.996094 1.996094 "/>
</svg>
