<?xml version="1.0" encoding="UTF-8"?>
<svg xmlns="http://www.w3.org/2000/svg" xmlns:xlink="http://www.w3.org/1999/xlink" width="16" height="16" viewBox="0 0 16 16">
<path fill-rule="nonzero" fill="rgb(0%, 0%, 0%)" fill-opacity="1" d="M 13.65625 13.65625 C 16.78125 10.53125 16.78125 5.46875 13.65625 2.34375 C 10.53125 -0.78125 5.46875 -0.78125 2.34375 2.34375 C -0.78125 5.46875 -0.78125 10.53125 2.34375 13.65625 C 5.46875 16.78125 10.53125 16.78125 13.65625 13.65625 Z M 13.65625 13.65625 "/>
<path fill-rule="nonzero" fill="rgb(0%, 0%, 0%)" fill-opacity="1" d="M 13.65625 13.65625 C 10.53125 16.78125 5.46875 16.78125 2.34375 13.65625 C -0.78125 10.53125 -0.78125 5.46875 2.34375 2.34375 C 5.46875 -0.78125 10.53125 -0.78125 13.65625 2.34375 C 16.78125 5.46875 16.78125 10.53125 13.65625 13.65625 Z M 13.210938 13.210938 C 16.085938 10.332031 16.085938 5.667969 13.210938 2.789062 C 10.332031 -0.0859375 5.667969 -0.0859375 2.789062 2.789062 C -0.0859375 5.667969 -0.0859375 10.332031 2.789062 13.210938 C 5.667969 16.085938 10.332031 16.085938 13.210938 13.210938 Z M 13.210938 13.210938 "/>
<path fill-rule="nonzero" fill="rgb(100%, 100%, 100%)" fill-opacity="1" d="M 7.484375 9.40625 L 8 8.894531 L 8.601562 9.496094 L 8.722656 10.105469 L 9.210938 10.105469 L 12.746094 13.636719 C 10.003906 15.945312 5.996094 15.945312 3.253906 13.636719 L 6.789062 10.105469 L 7.335938 10.105469 Z M 7.484375 9.40625 "/>
<path fill-rule="nonzero" fill="rgb(100%, 100%, 100%)" fill-opacity="1" d="M 13.636719 3.253906 C 15.945312 5.996094 15.945312 10.003906 13.636719 12.746094 L 9.953125 9.058594 L 10.699219 6.191406 Z M 13.984375 6.210938 L 13.949219 6.1875 L 13.910156 6.167969 L 13.875 6.144531 L 13.734375 6.066406 L 13.699219 6.050781 L 13.664062 6.03125 L 13.558594 5.984375 L 13.539062 5.980469 L 13.519531 5.972656 L 13.503906 5.964844 L 13.484375 5.960938 L 13.464844 5.953125 L 13.449219 5.949219 L 13.429688 5.941406 L 13.390625 5.933594 L 13.375 5.929688 L 13.355469 5.925781 L 13.335938 5.917969 L 13.296875 5.914062 L 13.21875 5.898438 L 13.023438 5.878906 L 12.984375 5.878906 L 12.941406 5.875 L 12.863281 5.871094 L 12.78125 5.867188 L 12.707031 5.871094 L 12.628906 5.875 L 12.550781 5.882812 L 12.511719 5.882812 L 12.476562 5.886719 L 12.4375 5.890625 L 12.398438 5.898438 L 12.363281 5.902344 L 12.324219 5.910156 L 12.285156 5.914062 L 12.25 5.921875 L 12.214844 5.933594 L 12.175781 5.941406 L 12.160156 5.945312 L 12.140625 5.953125 L 12.125 5.957031 L 12.105469 5.964844 L 12.089844 5.96875 L 12.070312 5.976562 L 12.035156 5.992188 L 12.003906 6.003906 L 11.933594 6.035156 L 11.902344 6.054688 L 11.867188 6.070312 L 11.832031 6.089844 L 11.800781 6.109375 L 11.765625 6.128906 L 11.730469 6.152344 L 11.660156 6.191406 L 11.625 6.214844 L 11.578125 6.265625 L 11.550781 6.289062 L 11.503906 6.335938 L 11.484375 6.363281 L 11.4375 6.410156 L 11.417969 6.4375 L 11.398438 6.460938 L 11.378906 6.488281 L 11.371094 6.503906 L 11.359375 6.515625 L 11.351562 6.527344 L 11.34375 6.542969 L 11.335938 6.554688 L 11.328125 6.570312 L 11.320312 6.582031 L 11.304688 6.613281 L 11.296875 6.625 L 11.289062 6.640625 L 11.285156 6.65625 L 11.277344 6.671875 L 11.273438 6.6875 L 11.265625 6.699219 L 11.238281 6.808594 L 11.230469 6.84375 L 11.222656 6.875 L 11.21875 6.90625 L 11.214844 6.941406 L 11.210938 6.972656 L 11.203125 7.042969 L 11.199219 7.074219 L 11.191406 7.144531 L 11.199219 7.230469 L 11.203125 7.269531 L 11.203125 7.292969 L 11.207031 7.3125 L 11.210938 7.335938 L 11.214844 7.355469 L 11.214844 7.375 L 11.21875 7.398438 L 11.226562 7.417969 L 11.234375 7.457031 L 11.242188 7.476562 L 11.246094 7.496094 L 11.277344 7.574219 L 11.289062 7.59375 L 11.296875 7.613281 L 11.308594 7.632812 L 11.316406 7.648438 L 11.328125 7.667969 L 11.347656 7.707031 L 11.371094 7.742188 L 11.390625 7.78125 L 11.421875 7.8125 L 11.449219 7.847656 L 11.476562 7.878906 L 11.492188 7.894531 L 11.503906 7.910156 L 11.535156 7.941406 L 11.550781 7.953125 L 11.582031 7.984375 L 11.613281 8.007812 L 11.628906 8.023438 L 11.644531 8.035156 L 11.664062 8.046875 L 11.679688 8.058594 L 11.699219 8.066406 L 11.71875 8.078125 L 11.734375 8.089844 L 11.753906 8.097656 L 11.773438 8.109375 L 11.8125 8.125 L 11.851562 8.144531 L 11.890625 8.160156 L 11.929688 8.179688 L 11.949219 8.183594 L 11.964844 8.1875 L 11.984375 8.191406 L 12 8.199219 L 12.019531 8.203125 L 12.035156 8.207031 L 12.070312 8.214844 L 12.101562 8.226562 L 12.132812 8.234375 L 12.167969 8.242188 L 12.324219 8.28125 L 12.355469 8.285156 L 12.386719 8.292969 L 12.421875 8.300781 L 12.453125 8.308594 L 12.488281 8.3125 L 12.523438 8.320312 L 12.664062 8.34375 L 12.734375 8.351562 L 12.804688 8.363281 L 12.875 8.371094 L 13.015625 8.390625 L 13.074219 8.398438 L 13.136719 8.40625 L 13.164062 8.410156 L 13.195312 8.417969 L 13.25 8.425781 L 13.386719 8.464844 L 13.398438 8.46875 L 13.410156 8.476562 L 13.421875 8.480469 L 13.4375 8.484375 L 13.449219 8.492188 L 13.460938 8.496094 L 13.53125 8.542969 L 13.550781 8.5625 L 13.5625 8.570312 L 13.570312 8.582031 L 13.582031 8.59375 L 13.597656 8.617188 L 13.609375 8.628906 L 13.617188 8.644531 L 13.628906 8.65625 L 13.683594 8.765625 L 13.6875 8.78125 L 13.703125 8.816406 L 13.738281 8.921875 L 13.730469 9 L 13.71875 9.058594 L 13.71875 9.066406 L 13.714844 9.074219 L 13.710938 9.085938 L 13.710938 9.09375 L 13.707031 9.109375 L 13.699219 9.125 L 13.695312 9.136719 L 13.6875 9.152344 L 13.683594 9.164062 L 13.644531 9.222656 L 13.632812 9.234375 L 13.625 9.246094 L 13.550781 9.320312 L 13.503906 9.359375 L 13.484375 9.367188 L 13.445312 9.390625 L 13.425781 9.398438 L 13.410156 9.410156 L 13.371094 9.425781 L 13.355469 9.433594 L 13.335938 9.441406 L 13.320312 9.449219 L 13.28125 9.464844 L 13.265625 9.472656 L 13.246094 9.476562 L 13.226562 9.484375 L 13.128906 9.503906 L 13.105469 9.507812 L 13.085938 9.511719 L 13.066406 9.511719 L 13.046875 9.515625 L 13.003906 9.515625 L 12.964844 9.519531 L 12.921875 9.523438 L 12.878906 9.523438 L 12.832031 9.519531 L 12.785156 9.519531 L 12.738281 9.515625 L 12.714844 9.515625 L 12.691406 9.511719 L 12.671875 9.507812 L 12.648438 9.507812 L 12.578125 9.496094 L 12.558594 9.492188 L 12.535156 9.488281 L 12.511719 9.480469 L 12.492188 9.472656 L 12.46875 9.46875 L 12.429688 9.453125 L 12.40625 9.445312 L 12.386719 9.4375 L 12.367188 9.425781 L 12.347656 9.417969 L 12.308594 9.394531 L 12.285156 9.386719 L 12.226562 9.351562 L 12.203125 9.339844 L 12.179688 9.324219 L 12.152344 9.296875 L 12.121094 9.269531 L 12.105469 9.257812 L 12.09375 9.242188 L 12.050781 9.199219 L 11.980469 9.105469 L 11.972656 9.089844 L 11.964844 9.070312 L 11.957031 9.054688 L 11.949219 9.035156 L 11.941406 9.019531 L 11.933594 9 L 11.929688 8.980469 L 11.921875 8.960938 L 11.917969 8.945312 L 11.914062 8.925781 L 11.90625 8.90625 L 11.898438 8.867188 L 11.890625 8.824219 L 11.882812 8.785156 L 11.054688 8.785156 L 11.066406 8.859375 L 11.070312 8.898438 L 11.078125 8.9375 L 11.082031 8.972656 L 11.089844 9.007812 L 11.097656 9.046875 L 11.121094 9.152344 L 11.128906 9.171875 L 11.132812 9.1875 L 11.136719 9.207031 L 11.144531 9.222656 L 11.148438 9.242188 L 11.15625 9.257812 L 11.160156 9.273438 L 11.167969 9.292969 L 11.222656 9.402344 L 11.234375 9.417969 L 11.242188 9.433594 L 11.253906 9.449219 L 11.261719 9.464844 L 11.285156 9.496094 L 11.296875 9.507812 L 11.304688 9.523438 L 11.316406 9.539062 L 11.363281 9.59375 L 11.390625 9.621094 L 11.414062 9.648438 L 11.46875 9.703125 L 11.496094 9.726562 L 11.578125 9.808594 L 11.617188 9.832031 L 11.652344 9.855469 L 11.730469 9.902344 L 11.765625 9.921875 L 11.804688 9.945312 L 11.839844 9.964844 L 11.878906 9.984375 L 11.914062 10.003906 L 11.953125 10.023438 L 11.992188 10.039062 L 12.007812 10.046875 L 12.125 10.09375 L 12.144531 10.097656 L 12.183594 10.113281 L 12.222656 10.121094 L 12.242188 10.128906 L 12.28125 10.136719 L 12.304688 10.140625 L 12.34375 10.148438 L 12.386719 10.15625 L 12.425781 10.164062 L 12.46875 10.167969 L 12.507812 10.171875 L 12.636719 10.183594 L 12.675781 10.1875 L 12.847656 10.195312 L 13.011719 10.1875 L 13.054688 10.1875 L 13.09375 10.183594 L 13.136719 10.179688 L 13.175781 10.175781 L 13.21875 10.171875 L 13.296875 10.164062 L 13.335938 10.15625 L 13.378906 10.148438 L 13.476562 10.128906 L 13.496094 10.121094 L 13.511719 10.117188 L 13.53125 10.109375 L 13.550781 10.105469 L 13.570312 10.097656 L 13.589844 10.09375 L 13.609375 10.085938 L 13.625 10.078125 L 13.644531 10.070312 L 13.679688 10.054688 L 13.71875 10.039062 L 13.753906 10.023438 L 13.789062 10.003906 L 13.824219 9.988281 L 13.863281 9.96875 L 13.898438 9.945312 L 13.933594 9.925781 L 13.972656 9.90625 L 14.007812 9.882812 L 14.085938 9.835938 L 14.113281 9.8125 L 14.136719 9.785156 L 14.238281 9.683594 L 14.261719 9.65625 L 14.28125 9.628906 L 14.304688 9.605469 L 14.324219 9.578125 L 14.335938 9.5625 L 14.347656 9.550781 L 14.355469 9.535156 L 14.367188 9.523438 L 14.375 9.507812 L 14.382812 9.496094 L 14.394531 9.480469 L 14.410156 9.449219 L 14.417969 9.4375 L 14.433594 9.40625 L 14.4375 9.390625 L 14.453125 9.359375 L 14.457031 9.34375 L 14.464844 9.328125 L 14.476562 9.28125 L 14.484375 9.261719 L 14.496094 9.214844 L 14.503906 9.179688 L 14.507812 9.144531 L 14.515625 9.109375 L 14.542969 8.863281 L 14.535156 8.800781 L 14.53125 8.738281 L 14.519531 8.644531 L 14.511719 8.617188 L 14.503906 8.554688 L 14.496094 8.527344 L 14.488281 8.496094 L 14.480469 8.46875 L 14.476562 8.453125 L 14.46875 8.441406 L 14.464844 8.425781 L 14.460938 8.414062 L 14.453125 8.398438 L 14.449219 8.386719 L 14.441406 8.371094 L 14.433594 8.359375 L 14.429688 8.34375 L 14.414062 8.320312 L 14.40625 8.304688 L 14.375 8.257812 L 14.359375 8.230469 L 14.242188 8.089844 L 14.21875 8.066406 L 14.199219 8.042969 L 14.152344 7.996094 L 14.132812 7.984375 L 14.109375 7.972656 L 14.070312 7.949219 L 14.046875 7.9375 L 13.988281 7.902344 L 13.945312 7.882812 L 13.789062 7.804688 L 13.753906 7.789062 L 13.710938 7.769531 L 13.613281 7.730469 L 13.589844 7.722656 L 13.570312 7.71875 L 13.550781 7.710938 L 13.527344 7.703125 L 13.507812 7.699219 L 13.460938 7.6875 L 13.375 7.664062 L 13.328125 7.652344 L 13.285156 7.644531 L 13.191406 7.628906 L 13.148438 7.621094 L 13.101562 7.613281 L 13.054688 7.609375 L 13.007812 7.601562 L 12.960938 7.597656 L 12.871094 7.585938 L 12.777344 7.578125 L 12.683594 7.566406 L 12.640625 7.5625 L 12.59375 7.554688 L 12.550781 7.546875 L 12.503906 7.539062 L 12.484375 7.535156 L 12.460938 7.53125 L 12.4375 7.523438 L 12.417969 7.519531 L 12.394531 7.511719 L 12.375 7.507812 L 12.335938 7.492188 L 12.316406 7.488281 L 12.296875 7.480469 L 12.28125 7.472656 L 12.222656 7.449219 L 12.207031 7.4375 L 12.1875 7.429688 L 12.167969 7.417969 L 12.144531 7.410156 L 12.125 7.398438 L 12.105469 7.390625 L 12.089844 7.371094 L 12.074219 7.355469 L 12.058594 7.34375 L 12.046875 7.328125 L 12.03125 7.3125 L 12.027344 7.304688 L 12.023438 7.292969 L 12.015625 7.285156 L 12.003906 7.261719 L 12 7.25 L 11.996094 7.242188 L 11.992188 7.230469 L 11.992188 7.222656 L 11.988281 7.210938 L 11.984375 7.203125 L 11.984375 7.183594 L 11.980469 7.160156 L 11.976562 7.140625 L 11.972656 7.097656 L 11.980469 7.0625 L 11.984375 7.023438 L 11.988281 7.007812 L 11.988281 6.988281 L 11.992188 6.972656 L 11.996094 6.953125 L 12 6.9375 L 12.007812 6.921875 L 12.011719 6.910156 L 12.015625 6.894531 L 12.023438 6.882812 L 12.027344 6.871094 L 12.042969 6.847656 L 12.046875 6.835938 L 12.054688 6.824219 L 12.066406 6.8125 L 12.074219 6.800781 L 12.09375 6.78125 L 12.101562 6.769531 L 12.113281 6.761719 L 12.152344 6.722656 L 12.199219 6.683594 L 12.214844 6.675781 L 12.234375 6.664062 L 12.253906 6.65625 L 12.269531 6.644531 L 12.285156 6.636719 L 12.304688 6.628906 L 12.335938 6.613281 L 12.355469 6.605469 L 12.386719 6.589844 L 12.40625 6.582031 L 12.421875 6.578125 L 12.441406 6.570312 L 12.457031 6.566406 L 12.496094 6.558594 L 12.511719 6.554688 L 12.570312 6.542969 L 12.589844 6.542969 L 12.609375 6.539062 L 12.628906 6.539062 L 12.667969 6.535156 L 12.703125 6.53125 L 12.742188 6.53125 L 12.78125 6.527344 L 12.851562 6.53125 L 12.921875 6.539062 L 12.953125 6.539062 L 13.023438 6.546875 L 13.085938 6.554688 L 13.121094 6.5625 L 13.152344 6.566406 L 13.183594 6.574219 L 13.195312 6.578125 L 13.242188 6.589844 L 13.253906 6.59375 L 13.269531 6.601562 L 13.285156 6.605469 L 13.296875 6.609375 L 13.3125 6.617188 L 13.324219 6.621094 L 13.339844 6.628906 L 13.363281 6.644531 L 13.378906 6.652344 L 13.414062 6.675781 L 13.425781 6.6875 L 13.433594 6.691406 L 13.445312 6.703125 L 13.453125 6.707031 L 13.457031 6.714844 L 13.464844 6.722656 L 13.472656 6.726562 L 13.476562 6.734375 L 13.492188 6.75 L 13.496094 6.757812 L 13.503906 6.769531 L 13.511719 6.777344 L 13.519531 6.789062 L 13.523438 6.796875 L 13.546875 6.832031 L 13.550781 6.84375 L 13.558594 6.855469 L 13.570312 6.878906 L 13.585938 6.90625 L 13.609375 6.960938 L 13.617188 6.988281 L 13.640625 7.042969 L 13.648438 7.070312 L 13.6875 7.1875 L 14.496094 7.175781 L 14.492188 7.136719 L 14.484375 7.101562 L 14.480469 7.066406 L 14.472656 7.03125 L 14.46875 6.996094 L 14.445312 6.890625 L 14.4375 6.859375 L 14.429688 6.824219 L 14.417969 6.792969 L 14.414062 6.777344 L 14.40625 6.757812 L 14.402344 6.742188 L 14.394531 6.726562 L 14.390625 6.710938 L 14.367188 6.664062 L 14.363281 6.648438 L 14.351562 6.636719 L 14.328125 6.589844 L 14.320312 6.578125 L 14.308594 6.5625 L 14.300781 6.546875 L 14.289062 6.535156 L 14.28125 6.519531 L 14.269531 6.507812 L 14.257812 6.492188 L 14.238281 6.464844 L 14.214844 6.4375 L 14.191406 6.414062 L 14.167969 6.386719 L 14.140625 6.363281 L 14.117188 6.335938 L 14.089844 6.3125 L 14.066406 6.285156 L 14.039062 6.261719 Z M 13.984375 6.210938 "/>
<path fill-rule="nonzero" fill="rgb(100%, 100%, 100%)" fill-opacity="1" d="M 9.660156 7.230469 L 9.390625 8.496094 L 8.992188 8.097656 L 8.960938 7.933594 Z M 9.660156 7.230469 "/>
<path fill-rule="nonzero" fill="rgb(100%, 100%, 100%)" fill-opacity="1" d="M 3.988281 8.65625 L 2.738281 8.65625 L 3.367188 6.675781 Z M 3.988281 8.65625 "/>
<path fill-rule="nonzero" fill="rgb(100%, 100%, 100%)" fill-opacity="1" d="M 7.105469 8 L 6.691406 8.414062 L 6.503906 7.394531 Z M 7.105469 8 "/>
<path fill-rule="nonzero" fill="rgb(100%, 100%, 100%)" fill-opacity="1" d="M 2.363281 12.746094 C 0.0546875 10.003906 0.0546875 5.996094 2.363281 3.253906 L 5.519531 6.410156 L 6.121094 8.984375 L 5.179688 9.925781 L 3.921875 5.894531 L 2.855469 5.894531 L 1.457031 10.105469 L 2.277344 10.105469 L 2.53125 9.324219 L 4.1875 9.324219 L 4.421875 10.105469 L 5 10.105469 Z M 2.363281 12.746094 "/>
<path fill-rule="nonzero" fill="rgb(100%, 100%, 100%)" fill-opacity="1" d="M 8 7.105469 L 7.980469 7.085938 L 8.0625 6.695312 L 8.117188 6.988281 Z M 8 7.105469 "/>
<path fill-rule="nonzero" fill="rgb(100%, 100%, 100%)" fill-opacity="1" d="M 7.601562 5.894531 L 7.453125 6.558594 L 3.253906 2.363281 C 5.996094 0.0546875 10.003906 0.0546875 12.746094 2.363281 L 8.660156 6.449219 L 8.546875 5.894531 Z M 7.601562 5.894531 "/>
<path fill-rule="nonzero" fill="rgb(60%, 7.843137%, 12.941176%)" fill-opacity="1" d="M 5.519531 6.410156 L 2.363281 3.253906 C 2.632812 2.933594 2.933594 2.632812 3.253906 2.363281 L 7.453125 6.558594 L 6.84375 9.25 L 6.691406 8.414062 L 7.105469 8 L 6.503906 7.394531 L 6.222656 5.894531 L 5.398438 5.894531 Z M 5.519531 6.410156 "/>
<path fill-rule="nonzero" fill="rgb(60%, 7.843137%, 12.941176%)" fill-opacity="1" d="M 8.660156 6.449219 L 12.746094 2.363281 C 13.066406 2.632812 13.367188 2.933594 13.636719 3.253906 L 10.699219 6.191406 L 10.777344 5.894531 L 9.949219 5.894531 L 9.660156 7.230469 L 8.960938 7.933594 Z M 8.660156 6.449219 "/>
<path fill-rule="nonzero" fill="rgb(52.941176%, 7.843137%, 12.941176%)" fill-opacity="1" d="M 9.953125 9.058594 L 13.636719 12.746094 C 13.367188 13.066406 13.066406 13.367188 12.746094 13.636719 L 9.210938 10.105469 L 9.679688 10.105469 Z M 9.953125 9.058594 "/>
<path fill-rule="nonzero" fill="rgb(60%, 7.843137%, 12.941176%)" fill-opacity="1" d="M 8.992188 8.097656 L 9.390625 8.496094 L 9.226562 9.25 Z M 8.992188 8.097656 "/>
<path fill-rule="nonzero" fill="rgb(60%, 7.843137%, 12.941176%)" fill-opacity="1" d="M 7.980469 7.085938 L 8 7.105469 L 8.117188 6.988281 L 8.601562 9.496094 L 8 8.894531 L 7.484375 9.40625 Z M 7.980469 7.085938 "/>
<path fill-rule="nonzero" fill="rgb(60%, 7.843137%, 12.941176%)" fill-opacity="1" d="M 6.789062 10.105469 L 3.253906 13.636719 C 2.933594 13.367188 2.632812 13.066406 2.363281 12.746094 L 5 10.105469 L 5.234375 10.105469 L 5.179688 9.925781 L 6.121094 8.984375 L 6.386719 10.105469 Z M 6.789062 10.105469 "/>
</svg>
