<?xml version="1.0" encoding="UTF-8"?>
<svg xmlns="http://www.w3.org/2000/svg" xmlns:xlink="http://www.w3.org/1999/xlink" width="14" height="14" viewBox="0 0 14 14">
<path fill-rule="nonzero" fill="rgb(0%, 0%, 0%)" fill-opacity="1" d="M 1.257812 0 L 12.742188 0 C 13.4375 0 14 0.5625 14 1.257812 L 14 12.742188 C 14 13.4375 13.4375 14 12.742188 14 L 1.257812 14 C 0.5625 14 0 13.4375 0 12.742188 L 0 1.257812 C 0 0.5625 0.5625 0 1.257812 0 Z M 1.257812 0 "/>
<path fill-rule="nonzero" fill="rgb(100%, 0%, 0%)" fill-opacity="1" d="M 8.695312 10.398438 C 8.695312 11.335938 7.9375 12.09375 7 12.09375 C 6.0625 12.09375 5.304688 11.335938 5.304688 10.398438 C 5.304688 9.460938 6.0625 8.703125 7 8.703125 C 7.9375 8.703125 8.695312 9.460938 8.695312 10.398438 Z M 8.695312 10.398438 "/>
</svg>
