<?xml version="1.0" encoding="UTF-8"?>
<svg xmlns="http://www.w3.org/2000/svg" xmlns:xlink="http://www.w3.org/1999/xlink" width="18" height="12.355966" viewBox="0 0 18 12.355966">
<path fill-rule="nonzero" fill="rgb(0%, 0%, 0%)" fill-opacity="1" d="M 0 0 L 18 0 L 18 12.355469 L 0 12.355469 Z M 0 0 "/>
<path fill-rule="nonzero" fill="rgb(100%, 100%, 100%)" fill-opacity="1" d="M 4.058594 1.609375 C 5.195312 1.609375 6.035156 1.824219 6.578125 2.261719 C 7.125 2.691406 7.402344 3.34375 7.402344 4.21875 C 7.402344 4.707031 7.308594 5.113281 7.128906 5.4375 C 6.949219 5.765625 6.71875 6.023438 6.433594 6.222656 C 6.160156 6.410156 5.871094 6.5625 5.5625 6.675781 L 8.082031 10.789062 L 6.730469 10.789062 L 4.507812 6.992188 L 2.679688 6.992188 L 2.679688 10.789062 L 1.527344 10.789062 L 1.527344 1.609375 Z M 3.992188 2.613281 L 2.679688 2.613281 L 2.679688 6.015625 L 4.058594 6.015625 C 4.800781 6.015625 5.347656 5.871094 5.691406 5.578125 C 6.03125 5.28125 6.203125 4.84375 6.203125 4.269531 C 6.203125 3.667969 6.023438 3.246094 5.664062 2.996094 C 5.304688 2.742188 4.746094 2.613281 3.992188 2.613281 Z M 3.992188 2.613281 "/>
<path fill-rule="nonzero" fill="rgb(100%, 100%, 100%)" fill-opacity="1" d="M 15.277344 10.789062 L 14.175781 7.945312 L 10.535156 7.945312 L 9.445312 10.789062 L 8.273438 10.789062 L 11.859375 1.570312 L 12.898438 1.570312 L 16.476562 10.789062 Z M 12.796875 4.140625 C 12.773438 4.074219 12.730469 3.945312 12.667969 3.765625 C 12.609375 3.585938 12.550781 3.402344 12.488281 3.214844 C 12.4375 3.015625 12.394531 2.867188 12.363281 2.765625 C 12.300781 3.03125 12.234375 3.292969 12.15625 3.550781 C 12.078125 3.796875 12.015625 3.996094 11.960938 4.140625 L 10.921875 6.917969 L 13.828125 6.917969 Z M 12.796875 4.140625 "/>
</svg>
