<?xml version="1.0" encoding="UTF-8"?>
<svg xmlns="http://www.w3.org/2000/svg" xmlns:xlink="http://www.w3.org/1999/xlink" width="9.032119" height="20" viewBox="0 0 9.032119 20">
<path fill-rule="nonzero" fill="rgb(0%, 86.27451%, 1.960784%)" fill-opacity="1" d="M 8.378906 2.640625 C 8.378906 3.519531 7.679688 4.222656 6.816406 4.222656 C 5.9375 4.222656 5.234375 3.519531 5.234375 2.640625 C 5.234375 1.777344 5.9375 1.074219 6.816406 1.074219 C 7.679688 1.074219 8.378906 1.777344 8.378906 2.640625 Z M 8.378906 2.640625 "/>
<path fill-rule="nonzero" fill="rgb(0%, 0%, 0%)" fill-opacity="1" d="M 9.03125 4.515625 C 9.03125 7.011719 7.011719 9.03125 4.515625 9.03125 C 2.023438 9.03125 0 7.011719 0 4.515625 C 0 2.023438 2.023438 0 4.515625 0 C 7.011719 0 9.03125 2.023438 9.03125 4.515625 Z M 9.03125 4.515625 "/>
<path fill-rule="nonzero" fill="rgb(0%, 0%, 0%)" fill-opacity="1" d="M 3.699219 18.148438 C 3.699219 19.171875 2.871094 20 1.851562 20 C 0.828125 20 0 19.171875 0 18.148438 C 0 17.128906 0.828125 16.300781 1.851562 16.300781 C 2.871094 16.300781 3.699219 17.128906 3.699219 18.148438 Z M 3.699219 18.148438 "/>
<path fill-rule="nonzero" fill="rgb(0%, 0%, 0%)" fill-opacity="1" d="M 9.023438 18.148438 C 9.023438 19.171875 8.195312 20 7.175781 20 C 6.152344 20 5.324219 19.171875 5.324219 18.148438 C 5.324219 17.128906 6.152344 16.300781 7.175781 16.300781 C 8.195312 16.300781 9.023438 17.128906 9.023438 18.148438 Z M 9.023438 18.148438 "/>
<path fill-rule="nonzero" fill="rgb(0%, 0%, 0%)" fill-opacity="1" d="M 1.851562 16.300781 L 7.175781 16.300781 L 7.175781 20 L 1.851562 20 Z M 1.851562 16.300781 "/>
<path fill-rule="nonzero" fill="rgb(0%, 0%, 0%)" fill-opacity="1" d="M 0 4.515625 L 9.023438 4.515625 L 9.023438 18.148438 L 0 18.148438 Z M 0 4.515625 "/>
<path fill-rule="nonzero" fill="rgb(20.784314%, 20%, 20.392157%)" fill-opacity="1" d="M 6.3125 17.359375 C 6.3125 18.355469 5.507812 19.160156 4.511719 19.160156 C 3.519531 19.160156 2.710938 18.355469 2.710938 17.359375 C 2.710938 16.367188 3.519531 15.558594 4.511719 15.558594 C 5.507812 15.558594 6.3125 16.367188 6.3125 17.359375 Z M 6.3125 17.359375 "/>
<path fill-rule="nonzero" fill="rgb(20.784314%, 20%, 20.392157%)" fill-opacity="1" d="M 6.3125 13.207031 C 6.3125 14.203125 5.507812 15.007812 4.511719 15.007812 C 3.519531 15.007812 2.710938 14.203125 2.710938 13.207031 C 2.710938 12.214844 3.519531 11.40625 4.511719 11.40625 C 5.507812 11.40625 6.3125 12.214844 6.3125 13.207031 Z M 6.3125 13.207031 "/>
<path fill-rule="nonzero" fill="rgb(0%, 100%, 0%)" fill-opacity="1" d="M 6.3125 9.03125 C 6.3125 10.027344 5.507812 10.832031 4.511719 10.832031 C 3.519531 10.832031 2.710938 10.027344 2.710938 9.03125 C 2.710938 8.039062 3.519531 7.230469 4.511719 7.230469 C 5.507812 7.230469 6.3125 8.039062 6.3125 9.03125 Z M 6.3125 9.03125 "/>
<path fill-rule="nonzero" fill="rgb(20.784314%, 20%, 20.392157%)" fill-opacity="1" d="M 6.3125 4.855469 C 6.3125 5.851562 5.507812 6.65625 4.511719 6.65625 C 3.519531 6.65625 2.710938 5.851562 2.710938 4.855469 C 2.710938 3.859375 3.519531 3.054688 4.511719 3.054688 C 5.507812 3.054688 6.3125 3.859375 6.3125 4.855469 Z M 6.3125 4.855469 "/>
</svg>
