<?xml version="1.0" encoding="UTF-8"?>
<svg xmlns="http://www.w3.org/2000/svg" xmlns:xlink="http://www.w3.org/1999/xlink" width="9" height="14.173443" viewBox="0 0 9 14.173443">
<path fill-rule="nonzero" fill="rgb(0%, 86.27451%, 1.960784%)" fill-opacity="1" d="M 8.351562 2.632812 C 8.351562 3.507812 7.652344 4.207031 6.792969 4.207031 C 5.917969 4.207031 5.214844 3.507812 5.214844 2.632812 C 5.214844 1.769531 5.917969 1.070312 6.792969 1.070312 C 7.652344 1.070312 8.351562 1.769531 8.351562 2.632812 Z M 8.351562 2.632812 "/>
<path fill-rule="nonzero" fill="rgb(0%, 0%, 0%)" fill-opacity="1" d="M 9 4.5 C 9 6.988281 6.988281 9 4.5 9 C 2.015625 9 0 6.988281 0 4.5 C 0 2.015625 2.015625 0 4.5 0 C 6.988281 0 9 2.015625 9 4.5 Z M 9 4.5 "/>
<path fill-rule="nonzero" fill="rgb(0%, 0%, 0%)" fill-opacity="1" d="M 3.6875 12.328125 C 3.6875 13.347656 2.859375 14.171875 1.84375 14.171875 C 0.824219 14.171875 0 13.347656 0 12.328125 C 0 11.3125 0.824219 10.488281 1.84375 10.488281 C 2.859375 10.488281 3.6875 11.3125 3.6875 12.328125 Z M 3.6875 12.328125 "/>
<path fill-rule="nonzero" fill="rgb(0%, 0%, 0%)" fill-opacity="1" d="M 8.992188 12.328125 C 8.992188 13.347656 8.167969 14.171875 7.152344 14.171875 C 6.132812 14.171875 5.304688 13.347656 5.304688 12.328125 C 5.304688 11.3125 6.132812 10.488281 7.152344 10.488281 C 8.167969 10.488281 8.992188 11.3125 8.992188 12.328125 Z M 8.992188 12.328125 "/>
<path fill-rule="nonzero" fill="rgb(0%, 0%, 0%)" fill-opacity="1" d="M 1.84375 10.488281 L 7.152344 10.488281 L 7.152344 14.171875 L 1.84375 14.171875 Z M 1.84375 10.488281 "/>
<path fill-rule="nonzero" fill="rgb(0%, 0%, 0%)" fill-opacity="1" d="M 0 4.207031 L 8.992188 4.207031 L 8.992188 12.328125 L 0 12.328125 Z M 0 4.207031 "/>
<path fill-rule="nonzero" fill="rgb(0%, 100%, 0%)" fill-opacity="1" d="M 6.289062 9.742188 C 6.289062 10.734375 5.488281 11.535156 4.496094 11.535156 C 3.507812 11.535156 2.703125 10.734375 2.703125 9.742188 C 2.703125 8.753906 3.507812 7.945312 4.496094 7.945312 C 5.488281 7.945312 6.289062 8.753906 6.289062 9.742188 Z M 6.289062 9.742188 "/>
<path fill-rule="nonzero" fill="rgb(20.784314%, 20%, 20.392157%)" fill-opacity="1" d="M 6.289062 4.839844 C 6.289062 5.832031 5.488281 6.632812 4.496094 6.632812 C 3.507812 6.632812 2.703125 5.832031 2.703125 4.839844 C 2.703125 3.847656 3.507812 3.042969 4.496094 3.042969 C 5.488281 3.042969 6.289062 3.847656 6.289062 4.839844 Z M 6.289062 4.839844 "/>
</svg>
