<?xml version="1.0" encoding="UTF-8"?>
<svg xmlns="http://www.w3.org/2000/svg" xmlns:xlink="http://www.w3.org/1999/xlink" width="18" height="19.568293" viewBox="0 0 18 19.568293">
<path fill-rule="nonzero" fill="rgb(100%, 100%, 100%)" fill-opacity="1" d="M 12.78125 0 L 14.046875 0 L 14.046875 19.566406 L 12.78125 19.566406 Z M 12.78125 0 "/>
<path fill-rule="nonzero" fill="rgb(0%, 0%, 0%)" fill-opacity="1" d="M 12.410156 3.0625 L 13.875 1.546875 L 16.742188 1.988281 L 17.824219 4.175781 L 13.347656 5.671875 L 12.410156 3.0625 "/>
<path fill-rule="nonzero" fill="rgb(100%, 7.45098%, 0%)" fill-opacity="1" d="M 0 15.472656 L 12.410156 3.0625 L 14.898438 5.550781 L 2.488281 17.960938 Z M 0 15.472656 "/>
<path fill-rule="nonzero" fill="rgb(100%, 100%, 100%)" fill-opacity="1" d="M 1.359375 14.113281 L 2.390625 13.085938 L 4.878906 15.574219 L 3.847656 16.601562 Z M 1.359375 14.113281 "/>
<path fill-rule="nonzero" fill="rgb(0%, 0%, 0%)" fill-opacity="1" d="M 16.417969 1.546875 C 17.121094 2.25 17.121094 3.386719 16.417969 4.089844 C 15.714844 4.792969 14.574219 4.792969 13.875 4.089844 C 13.171875 3.386719 13.171875 2.25 13.875 1.546875 C 14.574219 0.84375 15.714844 0.84375 16.417969 1.546875 Z M 16.417969 1.546875 "/>
<path fill-rule="nonzero" fill="rgb(0%, 0%, 0%)" fill-opacity="1" d="M 17.320312 3.421875 C 18.226562 4.332031 18.226562 5.804688 17.320312 6.714844 C 16.410156 7.621094 14.9375 7.621094 14.027344 6.714844 C 13.117188 5.804688 13.117188 4.332031 14.027344 3.421875 C 14.9375 2.515625 16.410156 2.515625 17.320312 3.421875 Z M 17.320312 3.421875 "/>
<path fill-rule="nonzero" fill="rgb(0%, 81.568627%, 9.019608%)" fill-opacity="1" d="M 16.929688 5.070312 C 16.929688 5.761719 16.367188 6.328125 15.671875 6.328125 C 14.976562 6.328125 14.414062 5.761719 14.414062 5.070312 C 14.414062 4.375 14.976562 3.808594 15.671875 3.808594 C 16.367188 3.808594 16.929688 4.375 16.929688 5.070312 Z M 16.929688 5.070312 "/>
<path fill-rule="nonzero" fill="rgb(22.352941%, 0%, 0%)" fill-opacity="1" d="M 15.972656 2.816406 C 15.972656 3.289062 15.589844 3.671875 15.117188 3.671875 C 14.644531 3.671875 14.261719 3.289062 14.261719 2.816406 C 14.261719 2.34375 14.644531 1.960938 15.117188 1.960938 C 15.589844 1.960938 15.972656 2.34375 15.972656 2.816406 Z M 15.972656 2.816406 "/>
</svg>
