<?xml version="1.0" encoding="UTF-8"?>
<svg xmlns="http://www.w3.org/2000/svg" xmlns:xlink="http://www.w3.org/1999/xlink" width="8.42879" height="26" viewBox="0 0 8.42879 26">
<path fill-rule="nonzero" fill="rgb(0%, 86.27451%, 1.960784%)" fill-opacity="1" d="M 7.765625 2.445312 C 7.765625 3.261719 7.117188 3.914062 6.316406 3.914062 C 5.5 3.914062 4.851562 3.261719 4.851562 2.445312 C 4.851562 1.648438 5.5 0.996094 6.316406 0.996094 C 7.117188 0.996094 7.765625 1.648438 7.765625 2.445312 Z M 7.765625 2.445312 "/>
<path fill-rule="nonzero" fill="rgb(0%, 0%, 0%)" fill-opacity="1" d="M 8.367188 4.183594 C 8.367188 6.496094 6.496094 8.367188 4.183594 8.367188 C 1.875 8.367188 0 6.496094 0 4.183594 C 0 1.875 1.875 0 4.183594 0 C 6.496094 0 8.367188 1.875 8.367188 4.183594 Z M 8.367188 4.183594 "/>
<path fill-rule="nonzero" fill="rgb(0%, 0%, 0%)" fill-opacity="1" d="M 3.429688 16.816406 C 3.429688 17.765625 2.660156 18.53125 1.714844 18.53125 C 0.765625 18.53125 0 17.765625 0 16.816406 C 0 15.871094 0.765625 15.105469 1.714844 15.105469 C 2.660156 15.105469 3.429688 15.871094 3.429688 16.816406 Z M 3.429688 16.816406 "/>
<path fill-rule="nonzero" fill="rgb(0%, 0%, 0%)" fill-opacity="1" d="M 8.363281 16.816406 C 8.363281 17.765625 7.59375 18.53125 6.648438 18.53125 C 5.699219 18.53125 4.933594 17.765625 4.933594 16.816406 C 4.933594 15.871094 5.699219 15.105469 6.648438 15.105469 C 7.59375 15.105469 8.363281 15.871094 8.363281 16.816406 Z M 8.363281 16.816406 "/>
<path fill-rule="nonzero" fill="rgb(0%, 0%, 0%)" fill-opacity="1" d="M 1.714844 15.105469 L 6.648438 15.105469 L 6.648438 18.53125 L 1.714844 18.53125 Z M 1.714844 15.105469 "/>
<path fill-rule="nonzero" fill="rgb(0%, 0%, 0%)" fill-opacity="1" d="M 0 4.183594 L 8.363281 4.183594 L 8.363281 16.816406 L 0 16.816406 Z M 0 4.183594 "/>
<path fill-rule="nonzero" fill="rgb(20.784314%, 20%, 20.392157%)" fill-opacity="1" d="M 5.847656 16.085938 C 5.847656 17.007812 5.105469 17.753906 4.179688 17.753906 C 3.261719 17.753906 2.511719 17.007812 2.511719 16.085938 C 2.511719 15.167969 3.261719 14.417969 4.179688 14.417969 C 5.105469 14.417969 5.847656 15.167969 5.847656 16.085938 Z M 5.847656 16.085938 "/>
<path fill-rule="nonzero" fill="rgb(20.784314%, 20%, 20.392157%)" fill-opacity="1" d="M 5.847656 12.238281 C 5.847656 13.160156 5.105469 13.90625 4.179688 13.90625 C 3.261719 13.90625 2.511719 13.160156 2.511719 12.238281 C 2.511719 11.320312 3.261719 10.570312 4.179688 10.570312 C 5.105469 10.570312 5.847656 11.320312 5.847656 12.238281 Z M 5.847656 12.238281 "/>
<path fill-rule="nonzero" fill="rgb(0%, 100%, 0%)" fill-opacity="1" d="M 5.847656 8.367188 C 5.847656 9.292969 5.105469 10.039062 4.179688 10.039062 C 3.261719 10.039062 2.511719 9.292969 2.511719 8.367188 C 2.511719 7.449219 3.261719 6.699219 4.179688 6.699219 C 5.105469 6.699219 5.847656 7.449219 5.847656 8.367188 Z M 5.847656 8.367188 "/>
<path fill-rule="nonzero" fill="rgb(20.784314%, 20%, 20.392157%)" fill-opacity="1" d="M 5.847656 4.5 C 5.847656 5.421875 5.105469 6.167969 4.179688 6.167969 C 3.261719 6.167969 2.511719 5.421875 2.511719 4.5 C 2.511719 3.578125 3.261719 2.832031 4.179688 2.832031 C 5.105469 2.832031 5.847656 3.578125 5.847656 4.5 Z M 5.847656 4.5 "/>
<path fill-rule="nonzero" fill="rgb(0%, 0%, 0%)" fill-opacity="1" d="M 5.402344 20.976562 C 5.402344 22.042969 4.519531 22.90625 3.429688 22.90625 C 2.335938 22.90625 1.453125 22.042969 1.453125 20.976562 C 1.453125 19.910156 2.335938 19.042969 3.429688 19.042969 C 4.519531 19.042969 5.402344 19.910156 5.402344 20.976562 Z M 5.402344 20.976562 "/>
<path fill-rule="nonzero" fill="rgb(0%, 0%, 0%)" fill-opacity="1" d="M 4.085938 24.066406 C 4.085938 25.136719 3.199219 26 2.109375 26 C 1.019531 26 0.132812 25.136719 0.132812 24.066406 C 0.132812 23 1.019531 22.136719 2.109375 22.136719 C 3.199219 22.136719 4.085938 23 4.085938 24.066406 Z M 4.085938 24.066406 "/>
<path fill-rule="nonzero" fill="rgb(0%, 0%, 0%)" fill-opacity="1" d="M 8.429688 24.066406 C 8.429688 25.136719 7.542969 26 6.453125 26 C 5.363281 26 4.476562 25.136719 4.476562 24.066406 C 4.476562 23 5.363281 22.136719 6.453125 22.136719 C 7.542969 22.136719 8.429688 23 8.429688 24.066406 Z M 8.429688 24.066406 "/>
<path fill-rule="nonzero" fill="rgb(0%, 0%, 0%)" fill-opacity="1" d="M 2.246094 22.730469 L 6.453125 22.730469 L 6.453125 26 L 2.246094 26 Z M 2.246094 22.730469 "/>
<path fill-rule="nonzero" fill="rgb(0%, 0%, 0%)" fill-opacity="1" d="M 4.800781 19.585938 L 7.863281 22.714844 L 5.308594 25.304688 L 2.246094 22.175781 Z M 4.800781 19.585938 "/>
<path fill-rule="nonzero" fill="rgb(0%, 0%, 0%)" fill-opacity="1" d="M 0.265625 23.386719 L 1.6875 20.0625 L 4.738281 21.28125 L 3.316406 24.609375 Z M 0.265625 23.386719 "/>
<path fill-rule="nonzero" fill="rgb(98.431373%, 0%, 0%)" fill-opacity="1" d="M 3.128906 24.066406 C 3.128906 24.617188 2.671875 25.066406 2.109375 25.066406 C 1.546875 25.066406 1.089844 24.617188 1.089844 24.066406 C 1.089844 23.515625 1.546875 23.070312 2.109375 23.070312 C 2.671875 23.070312 3.128906 23.515625 3.128906 24.066406 Z M 3.128906 24.066406 "/>
<path fill-rule="nonzero" fill="rgb(100%, 100%, 100%)" fill-opacity="1" d="M 7.472656 24.066406 C 7.472656 24.617188 7.015625 25.066406 6.453125 25.066406 C 5.890625 25.066406 5.433594 24.617188 5.433594 24.066406 C 5.433594 23.515625 5.890625 23.070312 6.453125 23.070312 C 7.015625 23.070312 7.472656 23.515625 7.472656 24.066406 Z M 7.472656 24.066406 "/>
</svg>
