<?xml version="1.0" encoding="UTF-8"?>
<svg xmlns="http://www.w3.org/2000/svg" xmlns:xlink="http://www.w3.org/1999/xlink" width="14" height="14" viewBox="0 0 14 14">
<path fill="none" stroke-width="1" stroke-linecap="round" stroke-linejoin="miter" stroke="rgb(0.392157%, 100%, 0%)" stroke-opacity="1" stroke-miterlimit="4" d="M 13.57549 7.037107 C 13.57549 10.64598 10.64598 13.57549 7.037107 13.57549 C 3.428233 13.57549 0.498724 10.64598 0.498724 7.037107 C 0.498724 3.428233 3.428233 0.498724 7.037107 0.498724 C 10.64598 0.498724 13.57549 3.428233 13.57549 7.037107 Z M 13.57549 7.037107 " transform="matrix(0.994727, 0, 0, 0.994727, 0, 0)"/>
<path fill-rule="nonzero" fill="rgb(100%, 100%, 100%)" fill-opacity="1" d="M 13.503906 7 C 13.503906 10.589844 10.589844 13.503906 7 13.503906 C 3.410156 13.503906 0.496094 10.589844 0.496094 7 C 0.496094 3.410156 3.410156 0.496094 7 0.496094 C 10.589844 0.496094 13.503906 3.410156 13.503906 7 Z M 13.503906 7 "/>
<path fill-rule="nonzero" fill="rgb(0.392157%, 100%, 0%)" fill-opacity="1" d="M 7 0.496094 C 5.671875 0.503906 4.375 0.914062 3.289062 1.679688 L 12.320312 10.710938 C 13.085938 9.625 13.496094 8.328125 13.503906 7 C 13.503906 3.410156 10.589844 0.496094 7 0.496094 Z M 1.675781 3.285156 C 0.914062 4.375 0.5 5.671875 0.496094 7 C 0.496094 10.589844 3.410156 13.503906 7 13.503906 C 8.328125 13.5 9.625 13.085938 10.714844 12.324219 Z M 1.675781 3.285156 "/>
</svg>
