<?xml version="1.0" encoding="UTF-8"?>
<svg xmlns="http://www.w3.org/2000/svg" xmlns:xlink="http://www.w3.org/1999/xlink" width="25" height="12.754435" viewBox="0 0 25 12.754435">
<path fill-rule="nonzero" fill="rgb(0%, 0%, 0%)" fill-opacity="1" d="M 0 0 L 25 0 L 25 12.753906 L 0 12.753906 Z M 0 0 "/>
<path fill-rule="nonzero" fill="rgb(100%, 100%, 100%)" fill-opacity="1" d="M 9.957031 6.371094 C 9.957031 7.273438 9.800781 8.0625 9.492188 8.738281 C 9.191406 9.402344 8.746094 9.925781 8.152344 10.296875 C 7.558594 10.671875 6.820312 10.859375 5.945312 10.859375 C 5.042969 10.859375 4.289062 10.671875 3.6875 10.296875 C 3.09375 9.925781 2.648438 9.398438 2.359375 8.726562 C 2.066406 8.050781 1.917969 7.261719 1.917969 6.359375 C 1.917969 5.464844 2.066406 4.683594 2.359375 4.015625 C 2.648438 3.351562 3.09375 2.828125 3.6875 2.457031 C 4.289062 2.082031 5.046875 1.894531 5.957031 1.894531 C 6.824219 1.894531 7.558594 2.082031 8.152344 2.457031 C 8.746094 2.820312 9.191406 3.34375 9.492188 4.015625 C 9.800781 4.683594 9.957031 5.46875 9.957031 6.371094 Z M 3.078125 6.371094 C 3.078125 7.46875 3.308594 8.335938 3.773438 8.96875 C 4.234375 9.59375 4.960938 9.910156 5.945312 9.910156 C 6.9375 9.910156 7.660156 9.59375 8.113281 8.96875 C 8.570312 8.335938 8.796875 7.46875 8.796875 6.371094 C 8.796875 5.273438 8.570312 4.414062 8.113281 3.796875 C 7.660156 3.171875 6.941406 2.859375 5.957031 2.859375 C 4.972656 2.859375 4.246094 3.171875 3.773438 3.796875 C 3.308594 4.414062 3.078125 5.273438 3.078125 6.371094 Z M 3.078125 6.371094 "/>
<path fill-rule="nonzero" fill="rgb(100%, 100%, 100%)" fill-opacity="1" d="M 12.980469 10.738281 L 11.882812 10.738281 L 11.882812 2.027344 L 16.75 2.027344 L 16.75 2.992188 L 12.980469 2.992188 L 12.980469 6.078125 L 16.519531 6.078125 L 16.519531 7.042969 L 12.980469 7.042969 Z M 12.980469 10.738281 "/>
<path fill-rule="nonzero" fill="rgb(100%, 100%, 100%)" fill-opacity="1" d="M 19.3125 10.738281 L 18.214844 10.738281 L 18.214844 2.027344 L 23.082031 2.027344 L 23.082031 2.992188 L 19.3125 2.992188 L 19.3125 6.078125 L 22.851562 6.078125 L 22.851562 7.042969 L 19.3125 7.042969 Z M 19.3125 10.738281 "/>
</svg>
