<?xml version="1.0" encoding="UTF-8"?>
<svg xmlns="http://www.w3.org/2000/svg" xmlns:xlink="http://www.w3.org/1999/xlink" width="12" height="12.000001" viewBox="0 0 12 12.000001">
<rect x="-1.2" y="-1.2" width="14.4" height="14.400001" fill="rgb(0%, 0%, 0%)" fill-opacity="1"/>
<path fill-rule="nonzero" fill="rgb(100%, 100%, 100%)" fill-opacity="1" d="M 4.996094 9.292969 L 6.316406 9.292969 L 6.316406 10.949219 L 4.996094 10.949219 Z M 6.277344 8.335938 L 5.035156 8.335938 L 5.035156 7.335938 C 5.035156 6.894531 5.09375 6.535156 5.214844 6.253906 C 5.335938 5.972656 5.59375 5.644531 5.984375 5.269531 L 6.570312 4.691406 C 6.816406 4.460938 6.996094 4.242188 7.101562 4.039062 C 7.214844 3.835938 7.273438 3.628906 7.273438 3.414062 C 7.273438 3.027344 7.128906 2.714844 6.84375 2.476562 C 6.5625 2.238281 6.183594 2.121094 5.71875 2.121094 C 5.375 2.121094 5.007812 2.195312 4.617188 2.347656 C 4.230469 2.5 3.828125 2.71875 3.40625 3.011719 L 3.40625 1.789062 C 3.8125 1.539062 4.226562 1.355469 4.644531 1.234375 C 5.0625 1.113281 5.496094 1.050781 5.945312 1.050781 C 6.742188 1.050781 7.382812 1.261719 7.863281 1.683594 C 8.351562 2.105469 8.59375 2.660156 8.59375 3.351562 C 8.59375 3.679688 8.515625 3.996094 8.359375 4.292969 C 8.203125 4.589844 7.929688 4.921875 7.539062 5.296875 L 6.964844 5.855469 C 6.761719 6.058594 6.617188 6.222656 6.53125 6.339844 C 6.449219 6.449219 6.390625 6.5625 6.355469 6.671875 C 6.328125 6.761719 6.308594 6.871094 6.296875 7.003906 C 6.28125 7.132812 6.277344 7.308594 6.277344 7.535156 Z M 6.277344 8.335938 "/>
</svg>
