<?xml version="1.0" encoding="UTF-8"?>
<svg xmlns="http://www.w3.org/2000/svg" xmlns:xlink="http://www.w3.org/1999/xlink" width="15" height="15.026616" viewBox="0 0 15 15.026616">
<path fill-rule="nonzero" fill="rgb(0%, 0%, 0%)" fill-opacity="1" d="M 12.742188 0 L 15 2.257812 L 15 5.175781 L 5.148438 15.027344 L 5.148438 15.011719 L 2.242188 15.011719 L 0.00390625 12.773438 L 0.00390625 9.859375 L 0 9.859375 L 9.824219 0.0351562 L 12.742188 0.0351562 Z M 12.742188 0 "/>
<path fill-rule="nonzero" fill="rgb(100%, 100%, 100%)" fill-opacity="1" d="M 10.683594 3.328125 C 10.40625 3.605469 10.40625 4.058594 10.683594 4.335938 C 10.960938 4.613281 11.410156 4.613281 11.6875 4.335938 C 11.96875 4.058594 11.96875 3.605469 11.6875 3.328125 C 11.410156 3.050781 10.960938 3.050781 10.683594 3.328125 Z M 10.683594 3.328125 "/>
<path fill-rule="nonzero" fill="rgb(100%, 100%, 100%)" fill-opacity="1" d="M 7 7.011719 C 6.722656 7.289062 6.722656 7.742188 7 8.019531 C 7.277344 8.296875 7.726562 8.296875 8.007812 8.019531 C 8.285156 7.742188 8.285156 7.289062 8.007812 7.011719 C 7.726562 6.734375 7.277344 6.734375 7 7.011719 Z M 7 7.011719 "/>
<path fill-rule="nonzero" fill="rgb(100%, 100%, 100%)" fill-opacity="1" d="M 8.839844 5.171875 C 8.5625 5.449219 8.5625 5.898438 8.839844 6.175781 C 9.121094 6.453125 9.570312 6.453125 9.847656 6.175781 C 10.125 5.898438 10.125 5.449219 9.847656 5.171875 C 9.570312 4.890625 9.121094 4.890625 8.839844 5.171875 Z M 8.839844 5.171875 "/>
<path fill-rule="nonzero" fill="rgb(100%, 100%, 100%)" fill-opacity="1" d="M 3.316406 10.695312 C 3.039062 10.972656 3.039062 11.425781 3.316406 11.703125 C 3.59375 11.980469 4.042969 11.980469 4.324219 11.703125 C 4.601562 11.425781 4.601562 10.972656 4.324219 10.695312 C 4.042969 10.417969 3.59375 10.417969 3.316406 10.695312 Z M 3.316406 10.695312 "/>
<path fill-rule="nonzero" fill="rgb(100%, 100%, 100%)" fill-opacity="1" d="M 5.15625 8.855469 C 4.878906 9.132812 4.878906 9.582031 5.15625 9.859375 C 5.4375 10.136719 5.886719 10.136719 6.164062 9.859375 C 6.441406 9.582031 6.441406 9.132812 6.164062 8.855469 C 5.886719 8.574219 5.4375 8.574219 5.15625 8.855469 Z M 5.15625 8.855469 "/>
</svg>
