<?xml version="1.0" encoding="UTF-8"?>
<svg xmlns="http://www.w3.org/2000/svg" xmlns:xlink="http://www.w3.org/1999/xlink" width="30" height="15.032361" viewBox="0 0 30 15.032361">
<path fill-rule="nonzero" fill="rgb(0%, 0%, 0%)" fill-opacity="1" d="M 27.742188 0 L 30 2.257812 L 30 5.179688 L 20.144531 15.03125 L 20.144531 15.015625 L 17.238281 15.015625 L 15 12.777344 L 15 9.863281 L 14.996094 9.863281 L 24.820312 0.0351562 L 27.742188 0.0351562 Z M 27.742188 0 "/>
<path fill-rule="nonzero" fill="rgb(100%, 100%, 100%)" fill-opacity="1" d="M 25.679688 3.328125 C 25.402344 3.609375 25.402344 4.058594 25.679688 4.335938 C 25.960938 4.613281 26.410156 4.613281 26.6875 4.335938 C 26.964844 4.058594 26.964844 3.609375 26.6875 3.328125 C 26.410156 3.050781 25.960938 3.050781 25.679688 3.328125 Z M 25.679688 3.328125 "/>
<path fill-rule="nonzero" fill="rgb(100%, 100%, 100%)" fill-opacity="1" d="M 21.996094 7.015625 C 21.71875 7.292969 21.71875 7.742188 21.996094 8.019531 C 22.273438 8.300781 22.726562 8.300781 23.003906 8.019531 C 23.28125 7.742188 23.28125 7.292969 23.003906 7.015625 C 22.726562 6.738281 22.273438 6.738281 21.996094 7.015625 Z M 21.996094 7.015625 "/>
<path fill-rule="nonzero" fill="rgb(100%, 100%, 100%)" fill-opacity="1" d="M 23.839844 5.171875 C 23.5625 5.449219 23.5625 5.902344 23.839844 6.179688 C 24.117188 6.457031 24.566406 6.457031 24.847656 6.179688 C 25.125 5.902344 25.125 5.449219 24.847656 5.171875 C 24.566406 4.894531 24.117188 4.894531 23.839844 5.171875 Z M 23.839844 5.171875 "/>
<path fill-rule="nonzero" fill="rgb(100%, 100%, 100%)" fill-opacity="1" d="M 18.3125 10.699219 C 18.035156 10.976562 18.035156 11.429688 18.3125 11.707031 C 18.589844 11.984375 19.039062 11.984375 19.320312 11.707031 C 19.597656 11.429688 19.597656 10.976562 19.320312 10.699219 C 19.039062 10.421875 18.589844 10.421875 18.3125 10.699219 Z M 18.3125 10.699219 "/>
<path fill-rule="nonzero" fill="rgb(100%, 100%, 100%)" fill-opacity="1" d="M 20.152344 8.855469 C 19.875 9.136719 19.875 9.585938 20.152344 9.863281 C 20.433594 10.140625 20.882812 10.140625 21.160156 9.863281 C 21.4375 9.585938 21.4375 9.136719 21.160156 8.855469 C 20.882812 8.578125 20.433594 8.578125 20.152344 8.855469 Z M 20.152344 8.855469 "/>
<path fill-rule="nonzero" fill="rgb(0%, 0%, 0%)" fill-opacity="1" d="M 2.257812 0 L 0 2.257812 L 0 5.179688 L 9.855469 15.03125 L 9.855469 15.015625 L 12.761719 15.015625 L 15 12.777344 L 15 9.863281 L 15.003906 9.863281 L 5.179688 0.0351562 L 2.257812 0.0351562 Z M 2.257812 0 "/>
<path fill-rule="nonzero" fill="rgb(100%, 100%, 100%)" fill-opacity="1" d="M 4.320312 3.328125 C 4.597656 3.609375 4.597656 4.058594 4.320312 4.335938 C 4.039062 4.613281 3.589844 4.613281 3.3125 4.335938 C 3.035156 4.058594 3.035156 3.609375 3.3125 3.328125 C 3.589844 3.050781 4.039062 3.050781 4.320312 3.328125 Z M 4.320312 3.328125 "/>
<path fill-rule="nonzero" fill="rgb(100%, 100%, 100%)" fill-opacity="1" d="M 8.003906 7.015625 C 8.28125 7.292969 8.28125 7.742188 8.003906 8.019531 C 7.726562 8.300781 7.273438 8.300781 6.996094 8.019531 C 6.71875 7.742188 6.71875 7.292969 6.996094 7.015625 C 7.273438 6.738281 7.726562 6.738281 8.003906 7.015625 Z M 8.003906 7.015625 "/>
<path fill-rule="nonzero" fill="rgb(100%, 100%, 100%)" fill-opacity="1" d="M 6.160156 5.171875 C 6.4375 5.449219 6.4375 5.902344 6.160156 6.179688 C 5.882812 6.457031 5.433594 6.457031 5.152344 6.179688 C 4.875 5.902344 4.875 5.449219 5.152344 5.171875 C 5.433594 4.894531 5.882812 4.894531 6.160156 5.171875 Z M 6.160156 5.171875 "/>
<path fill-rule="nonzero" fill="rgb(100%, 100%, 100%)" fill-opacity="1" d="M 11.6875 10.699219 C 11.964844 10.976562 11.964844 11.429688 11.6875 11.707031 C 11.410156 11.984375 10.960938 11.984375 10.679688 11.707031 C 10.402344 11.429688 10.402344 10.976562 10.679688 10.699219 C 10.960938 10.421875 11.410156 10.421875 11.6875 10.699219 Z M 11.6875 10.699219 "/>
<path fill-rule="nonzero" fill="rgb(100%, 100%, 100%)" fill-opacity="1" d="M 9.847656 8.855469 C 10.125 9.136719 10.125 9.585938 9.847656 9.863281 C 9.566406 10.140625 9.117188 10.140625 8.839844 9.863281 C 8.5625 9.585938 8.5625 9.136719 8.839844 8.855469 C 9.117188 8.578125 9.566406 8.578125 9.847656 8.855469 Z M 9.847656 8.855469 "/>
<path fill-rule="nonzero" fill="rgb(0%, 0%, 0%)" fill-opacity="1" d="M 12.328125 12.4375 L 17.238281 12.4375 L 17.238281 15.015625 L 12.328125 15.015625 Z M 12.328125 12.4375 "/>
<path fill-rule="nonzero" fill="rgb(0%, 0%, 0%)" fill-opacity="1" d="M 5.175781 0.0351562 L 24.824219 0.0351562 L 15.003906 9.863281 L 5.179688 0.0351562 "/>
</svg>
