<?xml version="1.0" encoding="UTF-8"?>
<svg xmlns="http://www.w3.org/2000/svg" xmlns:xlink="http://www.w3.org/1999/xlink" width="18.5" height="33.654872" viewBox="0 0 18.5 33.654872">
<path fill-rule="nonzero" fill="rgb(0%, 0%, 0%)" fill-opacity="1" d="M 13.066406 0 L 15.378906 2.3125 L 15.378906 5.300781 L 5.289062 15.390625 L 5.289062 15.375 L 2.3125 15.375 L 0.0195312 13.082031 L 0.0195312 10.097656 L 0.015625 10.097656 L 10.078125 0.0351562 L 13.066406 0.0351562 Z M 13.066406 0 "/>
<path fill-rule="nonzero" fill="rgb(100%, 100%, 100%)" fill-opacity="1" d="M 10.957031 3.410156 C 10.671875 3.695312 10.671875 4.15625 10.957031 4.441406 C 11.242188 4.722656 11.703125 4.722656 11.988281 4.441406 C 12.273438 4.15625 12.273438 3.695312 11.988281 3.410156 C 11.703125 3.125 11.242188 3.125 10.957031 3.410156 Z M 10.957031 3.410156 "/>
<path fill-rule="nonzero" fill="rgb(100%, 100%, 100%)" fill-opacity="1" d="M 7.183594 7.179688 C 6.898438 7.464844 6.898438 7.925781 7.183594 8.210938 C 7.46875 8.496094 7.929688 8.496094 8.214844 8.210938 C 8.5 7.925781 8.5 7.464844 8.214844 7.179688 C 7.929688 6.898438 7.46875 6.898438 7.183594 7.179688 Z M 7.183594 7.179688 "/>
<path fill-rule="nonzero" fill="rgb(100%, 100%, 100%)" fill-opacity="1" d="M 9.070312 5.296875 C 8.785156 5.578125 8.785156 6.042969 9.070312 6.324219 C 9.355469 6.609375 9.816406 6.609375 10.101562 6.324219 C 10.386719 6.042969 10.386719 5.578125 10.101562 5.296875 C 9.816406 5.011719 9.355469 5.011719 9.070312 5.296875 Z M 9.070312 5.296875 "/>
<path fill-rule="nonzero" fill="rgb(100%, 100%, 100%)" fill-opacity="1" d="M 3.410156 10.953125 C 3.128906 11.238281 3.128906 11.699219 3.410156 11.984375 C 3.695312 12.269531 4.15625 12.269531 4.441406 11.984375 C 4.726562 11.699219 4.726562 11.238281 4.441406 10.953125 C 4.15625 10.667969 3.695312 10.667969 3.410156 10.953125 Z M 3.410156 10.953125 "/>
<path fill-rule="nonzero" fill="rgb(100%, 100%, 100%)" fill-opacity="1" d="M 5.296875 9.066406 C 5.015625 9.351562 5.015625 9.8125 5.296875 10.097656 C 5.582031 10.382812 6.042969 10.382812 6.328125 10.097656 C 6.613281 9.8125 6.613281 9.351562 6.328125 9.066406 C 6.042969 8.78125 5.582031 8.78125 5.296875 9.066406 Z M 5.296875 9.066406 "/>
<path fill-rule="nonzero" fill="rgb(0%, 0%, 0%)" fill-opacity="1" d="M 15.390625 31.34375 L 13.078125 33.65625 L 10.085938 33.65625 L 0 23.566406 L 0.015625 23.566406 L 0.015625 20.589844 L 2.308594 18.296875 L 5.289062 18.296875 L 5.289062 18.292969 L 15.351562 28.351562 L 15.351562 31.34375 Z M 15.390625 31.34375 "/>
<path fill-rule="nonzero" fill="rgb(100%, 100%, 100%)" fill-opacity="1" d="M 11.980469 29.234375 C 11.695312 28.949219 11.234375 28.949219 10.949219 29.234375 C 10.664062 29.519531 10.664062 29.980469 10.949219 30.265625 C 11.234375 30.550781 11.695312 30.550781 11.980469 30.265625 C 12.265625 29.980469 12.265625 29.519531 11.980469 29.234375 Z M 11.980469 29.234375 "/>
<path fill-rule="nonzero" fill="rgb(100%, 100%, 100%)" fill-opacity="1" d="M 8.207031 25.460938 C 7.921875 25.175781 7.460938 25.175781 7.175781 25.460938 C 6.894531 25.746094 6.894531 26.207031 7.175781 26.492188 C 7.460938 26.777344 7.921875 26.777344 8.207031 26.492188 C 8.492188 26.207031 8.492188 25.746094 8.207031 25.460938 Z M 8.207031 25.460938 "/>
<path fill-rule="nonzero" fill="rgb(100%, 100%, 100%)" fill-opacity="1" d="M 10.09375 27.347656 C 9.808594 27.0625 9.347656 27.0625 9.0625 27.347656 C 8.777344 27.632812 8.777344 28.09375 9.0625 28.378906 C 9.347656 28.664062 9.808594 28.664062 10.09375 28.378906 C 10.378906 28.09375 10.378906 27.632812 10.09375 27.347656 Z M 10.09375 27.347656 "/>
<path fill-rule="nonzero" fill="rgb(100%, 100%, 100%)" fill-opacity="1" d="M 4.4375 21.6875 C 4.152344 21.402344 3.691406 21.402344 3.40625 21.6875 C 3.121094 21.972656 3.121094 22.433594 3.40625 22.71875 C 3.691406 23.003906 4.152344 23.003906 4.4375 22.71875 C 4.71875 22.433594 4.71875 21.972656 4.4375 21.6875 Z M 4.4375 21.6875 "/>
<path fill-rule="nonzero" fill="rgb(100%, 100%, 100%)" fill-opacity="1" d="M 6.320312 23.574219 C 6.039062 23.289062 5.574219 23.289062 5.292969 23.574219 C 5.007812 23.859375 5.007812 24.320312 5.292969 24.605469 C 5.574219 24.890625 6.039062 24.890625 6.320312 24.605469 C 6.605469 24.320312 6.605469 23.859375 6.320312 23.574219 Z M 6.320312 23.574219 "/>
<path fill-rule="nonzero" fill="rgb(0%, 0%, 0%)" fill-opacity="1" d="M 18.5 15.207031 L 18.5 18.476562 L 16.386719 20.589844 L 2.117188 20.589844 L 2.128906 20.578125 L 0.0234375 18.472656 L 0.0273438 15.230469 L 2.132812 13.125 L 2.128906 13.121094 L 16.359375 13.117188 L 16.359375 13.121094 L 18.472656 15.234375 Z M 18.5 15.207031 "/>
<path fill-rule="nonzero" fill="rgb(100%, 100%, 100%)" fill-opacity="1" d="M 14.597656 16.125 C 14.195312 16.125 13.867188 16.453125 13.867188 16.855469 C 13.867188 17.257812 14.195312 17.582031 14.597656 17.582031 C 15 17.582031 15.324219 17.257812 15.324219 16.855469 C 15.324219 16.453125 15 16.125 14.597656 16.125 Z M 14.597656 16.125 "/>
<path fill-rule="nonzero" fill="rgb(100%, 100%, 100%)" fill-opacity="1" d="M 9.261719 16.125 C 8.859375 16.125 8.535156 16.453125 8.535156 16.855469 C 8.535156 17.257812 8.859375 17.582031 9.261719 17.582031 C 9.664062 17.582031 9.992188 17.257812 9.992188 16.855469 C 9.992188 16.453125 9.664062 16.125 9.261719 16.125 Z M 9.261719 16.125 "/>
<path fill-rule="nonzero" fill="rgb(100%, 100%, 100%)" fill-opacity="1" d="M 11.929688 16.125 C 11.527344 16.125 11.199219 16.453125 11.199219 16.855469 C 11.199219 17.257812 11.527344 17.582031 11.929688 17.582031 C 12.332031 17.582031 12.660156 17.257812 12.660156 16.855469 C 12.660156 16.453125 12.332031 16.125 11.929688 16.125 Z M 11.929688 16.125 "/>
<path fill-rule="nonzero" fill="rgb(100%, 100%, 100%)" fill-opacity="1" d="M 3.925781 16.125 C 3.523438 16.125 3.199219 16.453125 3.199219 16.855469 C 3.199219 17.257812 3.523438 17.582031 3.925781 17.582031 C 4.328125 17.582031 4.65625 17.257812 4.65625 16.855469 C 4.65625 16.453125 4.328125 16.125 3.925781 16.125 Z M 3.925781 16.125 "/>
<path fill-rule="nonzero" fill="rgb(100%, 100%, 100%)" fill-opacity="1" d="M 6.59375 16.125 C 6.191406 16.125 5.867188 16.453125 5.867188 16.855469 C 5.867188 17.257812 6.191406 17.582031 6.59375 17.582031 C 6.996094 17.582031 7.324219 17.257812 7.324219 16.855469 C 7.324219 16.453125 6.996094 16.125 6.59375 16.125 Z M 6.59375 16.125 "/>
<path fill-rule="nonzero" fill="rgb(0%, 0%, 0%)" fill-opacity="1" d="M 15.378906 2.3125 L 18.472656 15.234375 L 7.324219 13.117188 Z M 15.378906 2.3125 "/>
<path fill-rule="nonzero" fill="rgb(0%, 0%, 0%)" fill-opacity="1" d="M 0.0195312 13.082031 L 1.148438 14.109375 L 0.015625 15.390625 Z M 0.0195312 13.082031 "/>
<path fill-rule="nonzero" fill="rgb(0%, 0%, 0%)" fill-opacity="1" d="M 18.5 18.476562 L 15.371094 31.34375 L 7.324219 20.589844 L 18.5 18.476562 "/>
<path fill-rule="nonzero" fill="rgb(0%, 0%, 0%)" fill-opacity="1" d="M 0.0234375 18.472656 L 1.078125 19.527344 L 0.015625 20.589844 Z M 0.0234375 18.472656 "/>
</svg>
