<?xml version="1.0" encoding="UTF-8"?>
<svg xmlns="http://www.w3.org/2000/svg" xmlns:xlink="http://www.w3.org/1999/xlink" width="33" height="20.175108" viewBox="0 0 33 20.175108">
<path fill-rule="nonzero" fill="rgb(0%, 0%, 0%)" fill-opacity="1" d="M 27.675781 0 L 29.941406 2.265625 L 29.941406 5.195312 L 20.054688 15.078125 L 20.054688 15.066406 L 17.140625 15.066406 L 14.894531 12.816406 L 14.894531 9.894531 L 14.886719 9.894531 L 24.746094 0.0351562 L 27.675781 0.0351562 Z M 27.675781 0 "/>
<path fill-rule="nonzero" fill="rgb(100%, 100%, 100%)" fill-opacity="1" d="M 25.609375 3.339844 C 25.328125 3.621094 25.328125 4.070312 25.609375 4.351562 C 25.886719 4.628906 26.339844 4.628906 26.617188 4.351562 C 26.898438 4.070312 26.898438 3.621094 26.617188 3.339844 C 26.339844 3.0625 25.886719 3.0625 25.609375 3.339844 Z M 25.609375 3.339844 "/>
<path fill-rule="nonzero" fill="rgb(100%, 100%, 100%)" fill-opacity="1" d="M 21.914062 7.035156 C 21.632812 7.316406 21.632812 7.769531 21.914062 8.046875 C 22.191406 8.324219 22.644531 8.324219 22.921875 8.046875 C 23.199219 7.769531 23.199219 7.316406 22.921875 7.035156 C 22.644531 6.757812 22.191406 6.757812 21.914062 7.035156 Z M 21.914062 7.035156 "/>
<path fill-rule="nonzero" fill="rgb(100%, 100%, 100%)" fill-opacity="1" d="M 23.761719 5.1875 C 23.480469 5.46875 23.480469 5.917969 23.761719 6.199219 C 24.039062 6.476562 24.492188 6.476562 24.769531 6.199219 C 25.050781 5.917969 25.050781 5.46875 24.769531 5.1875 C 24.492188 4.910156 24.039062 4.910156 23.761719 5.1875 Z M 23.761719 5.1875 "/>
<path fill-rule="nonzero" fill="rgb(100%, 100%, 100%)" fill-opacity="1" d="M 18.214844 10.734375 C 17.9375 11.011719 17.9375 11.464844 18.214844 11.742188 C 18.496094 12.023438 18.945312 12.023438 19.226562 11.742188 C 19.503906 11.464844 19.503906 11.011719 19.226562 10.734375 C 18.945312 10.453125 18.496094 10.453125 18.214844 10.734375 Z M 18.214844 10.734375 "/>
<path fill-rule="nonzero" fill="rgb(100%, 100%, 100%)" fill-opacity="1" d="M 20.0625 8.886719 C 19.785156 9.164062 19.785156 9.617188 20.0625 9.894531 C 20.34375 10.171875 20.796875 10.171875 21.074219 9.894531 C 21.351562 9.617188 21.351562 9.164062 21.074219 8.886719 C 20.796875 8.605469 20.34375 8.605469 20.0625 8.886719 Z M 20.0625 8.886719 "/>
<path fill-rule="nonzero" fill="rgb(0%, 0%, 0%)" fill-opacity="1" d="M 33 14.898438 L 33 18.105469 L 30.929688 20.175781 L 16.949219 20.171875 L 16.957031 20.164062 L 14.898438 18.101562 L 14.898438 14.925781 L 16.964844 12.859375 L 16.960938 12.855469 L 30.902344 12.855469 L 32.972656 14.925781 Z M 33 14.898438 "/>
<path fill-rule="nonzero" fill="rgb(100%, 100%, 100%)" fill-opacity="1" d="M 29.175781 15.800781 C 28.78125 15.800781 28.460938 16.121094 28.460938 16.515625 C 28.460938 16.910156 28.78125 17.226562 29.175781 17.226562 C 29.570312 17.226562 29.890625 16.910156 29.890625 16.515625 C 29.890625 16.121094 29.570312 15.800781 29.175781 15.800781 Z M 29.175781 15.800781 "/>
<path fill-rule="nonzero" fill="rgb(100%, 100%, 100%)" fill-opacity="1" d="M 23.949219 15.800781 C 23.554688 15.800781 23.234375 16.121094 23.234375 16.515625 C 23.234375 16.910156 23.554688 17.226562 23.949219 17.226562 C 24.34375 17.226562 24.664062 16.910156 24.664062 16.515625 C 24.664062 16.121094 24.34375 15.800781 23.949219 15.800781 Z M 23.949219 15.800781 "/>
<path fill-rule="nonzero" fill="rgb(100%, 100%, 100%)" fill-opacity="1" d="M 26.5625 15.800781 C 26.167969 15.800781 25.847656 16.121094 25.847656 16.515625 C 25.847656 16.910156 26.167969 17.226562 26.5625 17.226562 C 26.957031 17.226562 27.277344 16.910156 27.277344 16.515625 C 27.277344 16.121094 26.957031 15.800781 26.5625 15.800781 Z M 26.5625 15.800781 "/>
<path fill-rule="nonzero" fill="rgb(100%, 100%, 100%)" fill-opacity="1" d="M 18.722656 15.800781 C 18.328125 15.800781 18.007812 16.121094 18.007812 16.515625 C 18.007812 16.910156 18.328125 17.226562 18.722656 17.226562 C 19.117188 17.226562 19.433594 16.910156 19.433594 16.515625 C 19.433594 16.121094 19.117188 15.800781 18.722656 15.800781 Z M 18.722656 15.800781 "/>
<path fill-rule="nonzero" fill="rgb(100%, 100%, 100%)" fill-opacity="1" d="M 21.335938 15.800781 C 20.941406 15.800781 20.621094 16.121094 20.621094 16.515625 C 20.621094 16.910156 20.941406 17.226562 21.335938 17.226562 C 21.730469 17.226562 22.046875 16.910156 22.046875 16.515625 C 22.046875 16.121094 21.730469 15.800781 21.335938 15.800781 Z M 21.335938 15.800781 "/>
<path fill-rule="nonzero" fill="rgb(0%, 0%, 0%)" fill-opacity="1" d="M 29.941406 2.265625 L 32.972656 14.925781 L 22.046875 12.855469 Z M 29.941406 2.265625 "/>
<path fill-rule="nonzero" fill="rgb(0%, 0%, 0%)" fill-opacity="1" d="M 14.894531 12.816406 L 15.996094 13.824219 L 14.886719 15.078125 Z M 14.894531 12.816406 "/>
<path fill-rule="nonzero" fill="rgb(0%, 0%, 0%)" fill-opacity="1" d="M 2.265625 0 L 0 2.265625 L 0 5.195312 L 9.886719 15.078125 L 9.886719 15.066406 L 12.800781 15.066406 L 15.046875 12.816406 L 15.046875 9.894531 L 15.054688 9.894531 L 5.195312 0.0351562 L 2.265625 0.0351562 Z M 2.265625 0 "/>
<path fill-rule="nonzero" fill="rgb(100%, 100%, 100%)" fill-opacity="1" d="M 4.332031 3.339844 C 4.609375 3.621094 4.609375 4.070312 4.332031 4.351562 C 4.054688 4.628906 3.601562 4.628906 3.324219 4.351562 C 3.042969 4.070312 3.042969 3.621094 3.324219 3.339844 C 3.601562 3.0625 4.054688 3.0625 4.332031 3.339844 Z M 4.332031 3.339844 "/>
<path fill-rule="nonzero" fill="rgb(100%, 100%, 100%)" fill-opacity="1" d="M 8.027344 7.035156 C 8.308594 7.316406 8.308594 7.769531 8.027344 8.046875 C 7.75 8.324219 7.296875 8.324219 7.019531 8.046875 C 6.738281 7.769531 6.738281 7.316406 7.019531 7.035156 C 7.296875 6.757812 7.75 6.757812 8.027344 7.035156 Z M 8.027344 7.035156 "/>
<path fill-rule="nonzero" fill="rgb(100%, 100%, 100%)" fill-opacity="1" d="M 6.179688 5.1875 C 6.460938 5.46875 6.460938 5.917969 6.179688 6.199219 C 5.902344 6.476562 5.449219 6.476562 5.171875 6.199219 C 4.890625 5.917969 4.890625 5.46875 5.171875 5.1875 C 5.449219 4.910156 5.902344 4.910156 6.179688 5.1875 Z M 6.179688 5.1875 "/>
<path fill-rule="nonzero" fill="rgb(100%, 100%, 100%)" fill-opacity="1" d="M 11.726562 10.734375 C 12.003906 11.011719 12.003906 11.464844 11.726562 11.742188 C 11.445312 12.023438 10.992188 12.023438 10.714844 11.742188 C 10.4375 11.464844 10.4375 11.011719 10.714844 10.734375 C 10.992188 10.453125 11.445312 10.453125 11.726562 10.734375 Z M 11.726562 10.734375 "/>
<path fill-rule="nonzero" fill="rgb(100%, 100%, 100%)" fill-opacity="1" d="M 9.875 8.886719 C 10.15625 9.164062 10.15625 9.617188 9.875 9.894531 C 9.597656 10.171875 9.144531 10.171875 8.867188 9.894531 C 8.589844 9.617188 8.589844 9.164062 8.867188 8.886719 C 9.144531 8.605469 9.597656 8.605469 9.875 8.886719 Z M 9.875 8.886719 "/>
<path fill-rule="nonzero" fill="rgb(0%, 0%, 0%)" fill-opacity="1" d="M 9.886719 15.066406 L 16.949219 15.066406 L 16.949219 20.171875 L 9.886719 20.171875 Z M 9.886719 15.066406 "/>
<path fill-rule="nonzero" fill="rgb(0%, 0%, 0%)" fill-opacity="1" d="M 12.800781 12.816406 L 15.046875 12.816406 L 15.046875 15.066406 L 12.800781 15.066406 Z M 12.800781 12.816406 "/>
<path fill-rule="nonzero" fill="rgb(0%, 0%, 0%)" fill-opacity="1" d="M 5.191406 0.0351562 L 24.746094 0.0351562 L 14.894531 9.894531 Z M 5.191406 0.0351562 "/>
</svg>
