<?xml version="1.0" encoding="UTF-8"?>
<svg xmlns="http://www.w3.org/2000/svg" xmlns:xlink="http://www.w3.org/1999/xlink" width="33" height="32.974034" viewBox="0 0 33 32.974034">
<path fill-rule="nonzero" fill="rgb(0%, 0%, 0%)" fill-opacity="1" d="M 5.324219 0 L 3.058594 2.265625 L 3.058594 5.195312 L 12.945312 15.078125 L 12.945312 15.0625 L 15.859375 15.0625 L 18.105469 12.816406 L 18.105469 9.894531 L 18.109375 9.894531 L 8.253906 0.0351562 L 5.324219 0.0351562 Z M 5.324219 0 "/>
<path fill-rule="nonzero" fill="rgb(100%, 100%, 100%)" fill-opacity="1" d="M 7.390625 3.339844 C 7.667969 3.617188 7.667969 4.070312 7.390625 4.351562 C 7.113281 4.628906 6.660156 4.628906 6.378906 4.351562 C 6.101562 4.070312 6.101562 3.617188 6.378906 3.339844 C 6.660156 3.0625 7.113281 3.0625 7.390625 3.339844 Z M 7.390625 3.339844 "/>
<path fill-rule="nonzero" fill="rgb(100%, 100%, 100%)" fill-opacity="1" d="M 11.085938 7.035156 C 11.367188 7.316406 11.367188 7.765625 11.085938 8.046875 C 10.808594 8.324219 10.355469 8.324219 10.078125 8.046875 C 9.796875 7.765625 9.796875 7.316406 10.078125 7.035156 C 10.355469 6.757812 10.808594 6.757812 11.085938 7.035156 Z M 11.085938 7.035156 "/>
<path fill-rule="nonzero" fill="rgb(100%, 100%, 100%)" fill-opacity="1" d="M 9.238281 5.1875 C 9.515625 5.46875 9.515625 5.917969 9.238281 6.199219 C 8.960938 6.476562 8.507812 6.476562 8.230469 6.199219 C 7.949219 5.917969 7.949219 5.46875 8.230469 5.1875 C 8.507812 4.910156 8.960938 4.910156 9.238281 5.1875 Z M 9.238281 5.1875 "/>
<path fill-rule="nonzero" fill="rgb(100%, 100%, 100%)" fill-opacity="1" d="M 14.78125 10.730469 C 15.0625 11.011719 15.0625 11.464844 14.78125 11.742188 C 14.503906 12.019531 14.050781 12.019531 13.773438 11.742188 C 13.492188 11.464844 13.492188 11.011719 13.773438 10.730469 C 14.050781 10.453125 14.503906 10.453125 14.78125 10.730469 Z M 14.78125 10.730469 "/>
<path fill-rule="nonzero" fill="rgb(100%, 100%, 100%)" fill-opacity="1" d="M 12.933594 8.882812 C 13.214844 9.164062 13.214844 9.613281 12.933594 9.894531 C 12.65625 10.171875 12.203125 10.171875 11.925781 9.894531 C 11.644531 9.613281 11.644531 9.164062 11.925781 8.882812 C 12.203125 8.605469 12.65625 8.605469 12.933594 8.882812 Z M 12.933594 8.882812 "/>
<path fill-rule="nonzero" fill="rgb(0%, 0%, 0%)" fill-opacity="1" d="M 3.046875 30.710938 L 5.3125 32.972656 L 8.242188 32.972656 L 18.125 23.089844 L 18.109375 23.089844 L 18.109375 20.171875 L 15.863281 17.929688 L 12.941406 17.929688 L 12.941406 17.921875 L 3.082031 27.78125 L 3.082031 30.710938 Z M 3.046875 30.710938 "/>
<path fill-rule="nonzero" fill="rgb(100%, 100%, 100%)" fill-opacity="1" d="M 6.386719 28.640625 C 6.667969 28.363281 7.117188 28.363281 7.398438 28.640625 C 7.675781 28.921875 7.675781 29.375 7.398438 29.652344 C 7.117188 29.929688 6.667969 29.929688 6.386719 29.652344 C 6.109375 29.375 6.109375 28.921875 6.386719 28.640625 Z M 6.386719 28.640625 "/>
<path fill-rule="nonzero" fill="rgb(100%, 100%, 100%)" fill-opacity="1" d="M 10.082031 24.945312 C 10.363281 24.667969 10.8125 24.667969 11.09375 24.945312 C 11.371094 25.226562 11.371094 25.675781 11.09375 25.957031 C 10.8125 26.234375 10.363281 26.234375 10.082031 25.957031 C 9.804688 25.675781 9.804688 25.226562 10.082031 24.945312 Z M 10.082031 24.945312 "/>
<path fill-rule="nonzero" fill="rgb(100%, 100%, 100%)" fill-opacity="1" d="M 8.234375 26.792969 C 8.515625 26.515625 8.964844 26.515625 9.246094 26.792969 C 9.523438 27.074219 9.523438 27.523438 9.246094 27.804688 C 8.964844 28.082031 8.515625 28.082031 8.234375 27.804688 C 7.957031 27.523438 7.957031 27.074219 8.234375 26.792969 Z M 8.234375 26.792969 "/>
<path fill-rule="nonzero" fill="rgb(100%, 100%, 100%)" fill-opacity="1" d="M 13.78125 21.25 C 14.058594 20.972656 14.511719 20.972656 14.789062 21.25 C 15.066406 21.527344 15.066406 21.980469 14.789062 22.261719 C 14.511719 22.539062 14.058594 22.539062 13.78125 22.261719 C 13.5 21.980469 13.5 21.527344 13.78125 21.25 Z M 13.78125 21.25 "/>
<path fill-rule="nonzero" fill="rgb(100%, 100%, 100%)" fill-opacity="1" d="M 11.929688 23.097656 C 12.210938 22.820312 12.664062 22.820312 12.941406 23.097656 C 13.21875 23.378906 13.21875 23.828125 12.941406 24.109375 C 12.664062 24.386719 12.210938 24.386719 11.929688 24.109375 C 11.652344 23.828125 11.652344 23.378906 11.929688 23.097656 Z M 11.929688 23.097656 "/>
<path fill-rule="nonzero" fill="rgb(0%, 0%, 0%)" fill-opacity="1" d="M 0 14.898438 L 0 18.101562 L 2.070312 20.171875 L 16.050781 20.171875 L 16.039062 20.160156 L 18.101562 18.101562 L 18.101562 14.921875 L 16.035156 12.859375 L 16.039062 12.855469 L 2.097656 12.851562 L 2.097656 12.855469 L 0.0273438 14.925781 Z M 0 14.898438 "/>
<path fill-rule="nonzero" fill="rgb(100%, 100%, 100%)" fill-opacity="1" d="M 3.824219 15.800781 C 4.21875 15.800781 4.539062 16.117188 4.539062 16.511719 C 4.539062 16.90625 4.21875 17.226562 3.824219 17.226562 C 3.429688 17.226562 3.109375 16.90625 3.109375 16.511719 C 3.109375 16.117188 3.429688 15.800781 3.824219 15.800781 Z M 3.824219 15.800781 "/>
<path fill-rule="nonzero" fill="rgb(100%, 100%, 100%)" fill-opacity="1" d="M 9.050781 15.800781 C 9.445312 15.800781 9.765625 16.117188 9.765625 16.511719 C 9.765625 16.90625 9.445312 17.226562 9.050781 17.226562 C 8.65625 17.226562 8.335938 16.90625 8.335938 16.511719 C 8.335938 16.117188 8.65625 15.800781 9.050781 15.800781 Z M 9.050781 15.800781 "/>
<path fill-rule="nonzero" fill="rgb(100%, 100%, 100%)" fill-opacity="1" d="M 6.4375 15.800781 C 6.832031 15.800781 7.152344 16.117188 7.152344 16.511719 C 7.152344 16.90625 6.832031 17.226562 6.4375 17.226562 C 6.042969 17.226562 5.722656 16.90625 5.722656 16.511719 C 5.722656 16.117188 6.042969 15.800781 6.4375 15.800781 Z M 6.4375 15.800781 "/>
<path fill-rule="nonzero" fill="rgb(100%, 100%, 100%)" fill-opacity="1" d="M 14.277344 15.800781 C 14.671875 15.800781 14.992188 16.117188 14.992188 16.511719 C 14.992188 16.90625 14.671875 17.226562 14.277344 17.226562 C 13.882812 17.226562 13.5625 16.90625 13.5625 16.511719 C 13.5625 16.117188 13.882812 15.800781 14.277344 15.800781 Z M 14.277344 15.800781 "/>
<path fill-rule="nonzero" fill="rgb(100%, 100%, 100%)" fill-opacity="1" d="M 11.664062 15.800781 C 12.058594 15.800781 12.378906 16.117188 12.378906 16.511719 C 12.378906 16.90625 12.058594 17.226562 11.664062 17.226562 C 11.269531 17.226562 10.949219 16.90625 10.949219 16.511719 C 10.949219 16.117188 11.269531 15.800781 11.664062 15.800781 Z M 11.664062 15.800781 "/>
<path fill-rule="nonzero" fill="rgb(0%, 0%, 0%)" fill-opacity="1" d="M 3.058594 2.265625 L 0.0273438 14.925781 L 10.949219 12.851562 Z M 3.058594 2.265625 "/>
<path fill-rule="nonzero" fill="rgb(0%, 0%, 0%)" fill-opacity="1" d="M 18.105469 12.816406 L 17 13.824219 L 18.109375 15.078125 Z M 18.105469 12.816406 "/>
<path fill-rule="nonzero" fill="rgb(0%, 0%, 0%)" fill-opacity="1" d="M 0 18.101562 L 3.066406 30.710938 L 10.949219 20.171875 L 0 18.101562 "/>
<path fill-rule="nonzero" fill="rgb(0%, 0%, 0%)" fill-opacity="1" d="M 18.101562 18.101562 L 17.070312 19.128906 L 18.109375 20.171875 Z M 18.101562 18.101562 "/>
<path fill-rule="nonzero" fill="rgb(0%, 0%, 0%)" fill-opacity="1" d="M 18.109375 12.816406 L 17.003906 13.824219 L 18.113281 15.078125 Z M 18.109375 12.816406 "/>
<path fill-rule="nonzero" fill="rgb(0%, 0%, 0%)" fill-opacity="1" d="M 30.734375 0 L 33 2.265625 L 33 5.195312 L 23.113281 15.078125 L 23.113281 15.0625 L 20.199219 15.0625 L 17.953125 12.816406 L 17.953125 9.894531 L 17.949219 9.894531 L 27.804688 0.0351562 L 30.734375 0.0351562 Z M 30.734375 0 "/>
<path fill-rule="nonzero" fill="rgb(100%, 100%, 100%)" fill-opacity="1" d="M 28.667969 3.339844 C 28.390625 3.617188 28.390625 4.070312 28.667969 4.351562 C 28.945312 4.628906 29.398438 4.628906 29.679688 4.351562 C 29.957031 4.070312 29.957031 3.617188 29.679688 3.339844 C 29.398438 3.0625 28.945312 3.0625 28.667969 3.339844 Z M 28.667969 3.339844 "/>
<path fill-rule="nonzero" fill="rgb(100%, 100%, 100%)" fill-opacity="1" d="M 24.972656 7.035156 C 24.691406 7.316406 24.691406 7.765625 24.972656 8.046875 C 25.25 8.324219 25.703125 8.324219 25.980469 8.046875 C 26.261719 7.765625 26.261719 7.316406 25.980469 7.035156 C 25.703125 6.757812 25.25 6.757812 24.972656 7.035156 Z M 24.972656 7.035156 "/>
<path fill-rule="nonzero" fill="rgb(100%, 100%, 100%)" fill-opacity="1" d="M 26.820312 5.1875 C 26.542969 5.46875 26.542969 5.917969 26.820312 6.199219 C 27.097656 6.476562 27.550781 6.476562 27.828125 6.199219 C 28.109375 5.917969 28.109375 5.46875 27.828125 5.1875 C 27.550781 4.910156 27.097656 4.910156 26.820312 5.1875 Z M 26.820312 5.1875 "/>
<path fill-rule="nonzero" fill="rgb(100%, 100%, 100%)" fill-opacity="1" d="M 21.277344 10.730469 C 20.996094 11.011719 20.996094 11.464844 21.277344 11.742188 C 21.554688 12.019531 22.007812 12.019531 22.285156 11.742188 C 22.566406 11.464844 22.566406 11.011719 22.285156 10.730469 C 22.007812 10.453125 21.554688 10.453125 21.277344 10.730469 Z M 21.277344 10.730469 "/>
<path fill-rule="nonzero" fill="rgb(100%, 100%, 100%)" fill-opacity="1" d="M 23.125 8.882812 C 22.84375 9.164062 22.84375 9.613281 23.125 9.894531 C 23.402344 10.171875 23.855469 10.171875 24.132812 9.894531 C 24.414062 9.613281 24.414062 9.164062 24.132812 8.882812 C 23.855469 8.605469 23.402344 8.605469 23.125 8.882812 Z M 23.125 8.882812 "/>
<path fill-rule="nonzero" fill="rgb(0%, 0%, 0%)" fill-opacity="1" d="M 20.199219 12.816406 L 17.953125 12.816406 L 17.953125 15.0625 L 20.199219 15.0625 Z M 20.199219 12.816406 "/>
<path fill-rule="nonzero" fill="rgb(0%, 0%, 0%)" fill-opacity="1" d="M 27.808594 0.0351562 L 8.257812 0.0351562 L 18.109375 9.894531 Z M 27.808594 0.0351562 "/>
<path fill-rule="nonzero" fill="rgb(0%, 0%, 0%)" fill-opacity="1" d="M 23.113281 15.078125 L 18.109375 15.078125 L 18.109375 23.089844 L 23.113281 23.089844 Z M 23.113281 15.078125 "/>
</svg>
