<?xml version="1.0" encoding="UTF-8"?>
<svg xmlns="http://www.w3.org/2000/svg" xmlns:xlink="http://www.w3.org/1999/xlink" width="15" height="15.026616" viewBox="0 0 15 15.026616">
<path fill-rule="nonzero" fill="rgb(0%, 0%, 0%)" fill-opacity="1" d="M 2.257812 0 L 0 2.257812 L 0 5.175781 L 9.851562 15.027344 L 9.851562 15.011719 L 12.757812 15.011719 L 14.996094 12.773438 L 14.996094 9.859375 L 15 9.859375 L 5.175781 0.0351562 L 2.257812 0.0351562 Z M 2.257812 0 "/>
<path fill-rule="nonzero" fill="rgb(100%, 100%, 100%)" fill-opacity="1" d="M 4.316406 3.328125 C 4.59375 3.605469 4.59375 4.058594 4.316406 4.335938 C 4.039062 4.613281 3.589844 4.613281 3.3125 4.335938 C 3.03125 4.058594 3.03125 3.605469 3.3125 3.328125 C 3.589844 3.050781 4.039062 3.050781 4.316406 3.328125 Z M 4.316406 3.328125 "/>
<path fill-rule="nonzero" fill="rgb(100%, 100%, 100%)" fill-opacity="1" d="M 8 7.011719 C 8.277344 7.289062 8.277344 7.742188 8 8.019531 C 7.722656 8.296875 7.273438 8.296875 6.992188 8.019531 C 6.714844 7.742188 6.714844 7.289062 6.992188 7.011719 C 7.273438 6.734375 7.722656 6.734375 8 7.011719 Z M 8 7.011719 "/>
<path fill-rule="nonzero" fill="rgb(100%, 100%, 100%)" fill-opacity="1" d="M 6.160156 5.171875 C 6.4375 5.449219 6.4375 5.898438 6.160156 6.175781 C 5.878906 6.453125 5.429688 6.453125 5.152344 6.175781 C 4.875 5.898438 4.875 5.449219 5.152344 5.171875 C 5.429688 4.890625 5.878906 4.890625 6.160156 5.171875 Z M 6.160156 5.171875 "/>
<path fill-rule="nonzero" fill="rgb(100%, 100%, 100%)" fill-opacity="1" d="M 11.683594 10.695312 C 11.960938 10.972656 11.960938 11.425781 11.683594 11.703125 C 11.40625 11.980469 10.957031 11.980469 10.675781 11.703125 C 10.398438 11.425781 10.398438 10.972656 10.675781 10.695312 C 10.957031 10.417969 11.40625 10.417969 11.683594 10.695312 Z M 11.683594 10.695312 "/>
<path fill-rule="nonzero" fill="rgb(100%, 100%, 100%)" fill-opacity="1" d="M 9.84375 8.855469 C 10.121094 9.132812 10.121094 9.582031 9.84375 9.859375 C 9.5625 10.136719 9.113281 10.136719 8.835938 9.859375 C 8.558594 9.582031 8.558594 9.132812 8.835938 8.855469 C 9.113281 8.574219 9.5625 8.574219 9.84375 8.855469 Z M 9.84375 8.855469 "/>
</svg>
