<?xml version="1.0" encoding="UTF-8"?>
<svg xmlns="http://www.w3.org/2000/svg" xmlns:xlink="http://www.w3.org/1999/xlink" width="18.5" height="33.654872" viewBox="0 0 18.5 33.654872">
<path fill-rule="nonzero" fill="rgb(0%, 0%, 0%)" fill-opacity="1" d="M 5.433594 0 L 3.121094 2.3125 L 3.121094 5.300781 L 13.210938 15.390625 L 13.210938 15.375 L 16.1875 15.375 L 18.480469 13.082031 L 18.480469 10.097656 L 18.484375 10.097656 L 8.421875 0.0351562 L 5.433594 0.0351562 Z M 5.433594 0 "/>
<path fill-rule="nonzero" fill="rgb(100%, 100%, 100%)" fill-opacity="1" d="M 7.542969 3.410156 C 7.828125 3.695312 7.828125 4.15625 7.542969 4.441406 C 7.257812 4.722656 6.796875 4.722656 6.511719 4.441406 C 6.226562 4.15625 6.226562 3.695312 6.511719 3.410156 C 6.796875 3.125 7.257812 3.125 7.542969 3.410156 Z M 7.542969 3.410156 "/>
<path fill-rule="nonzero" fill="rgb(100%, 100%, 100%)" fill-opacity="1" d="M 11.316406 7.179688 C 11.601562 7.464844 11.601562 7.925781 11.316406 8.210938 C 11.03125 8.496094 10.570312 8.496094 10.285156 8.210938 C 10 7.925781 10 7.464844 10.285156 7.179688 C 10.570312 6.898438 11.03125 6.898438 11.316406 7.179688 Z M 11.316406 7.179688 "/>
<path fill-rule="nonzero" fill="rgb(100%, 100%, 100%)" fill-opacity="1" d="M 9.429688 5.296875 C 9.714844 5.578125 9.714844 6.042969 9.429688 6.324219 C 9.144531 6.609375 8.683594 6.609375 8.398438 6.324219 C 8.113281 6.042969 8.113281 5.578125 8.398438 5.296875 C 8.683594 5.011719 9.144531 5.011719 9.429688 5.296875 Z M 9.429688 5.296875 "/>
<path fill-rule="nonzero" fill="rgb(100%, 100%, 100%)" fill-opacity="1" d="M 15.089844 10.953125 C 15.371094 11.238281 15.371094 11.699219 15.089844 11.984375 C 14.804688 12.269531 14.34375 12.269531 14.058594 11.984375 C 13.773438 11.699219 13.773438 11.238281 14.058594 10.953125 C 14.34375 10.667969 14.804688 10.667969 15.089844 10.953125 Z M 15.089844 10.953125 "/>
<path fill-rule="nonzero" fill="rgb(100%, 100%, 100%)" fill-opacity="1" d="M 13.203125 9.066406 C 13.484375 9.351562 13.484375 9.8125 13.203125 10.097656 C 12.917969 10.382812 12.457031 10.382812 12.171875 10.097656 C 11.886719 9.8125 11.886719 9.351562 12.171875 9.066406 C 12.457031 8.78125 12.917969 8.78125 13.203125 9.066406 Z M 13.203125 9.066406 "/>
<path fill-rule="nonzero" fill="rgb(0%, 0%, 0%)" fill-opacity="1" d="M 3.109375 31.34375 L 5.421875 33.65625 L 8.414062 33.65625 L 18.5 23.566406 L 18.484375 23.566406 L 18.484375 20.589844 L 16.191406 18.296875 L 13.210938 18.296875 L 13.210938 18.292969 L 3.148438 28.351562 L 3.148438 31.34375 Z M 3.109375 31.34375 "/>
<path fill-rule="nonzero" fill="rgb(100%, 100%, 100%)" fill-opacity="1" d="M 6.519531 29.234375 C 6.804688 28.949219 7.265625 28.949219 7.550781 29.234375 C 7.835938 29.519531 7.835938 29.980469 7.550781 30.265625 C 7.265625 30.550781 6.804688 30.550781 6.519531 30.265625 C 6.234375 29.980469 6.234375 29.519531 6.519531 29.234375 Z M 6.519531 29.234375 "/>
<path fill-rule="nonzero" fill="rgb(100%, 100%, 100%)" fill-opacity="1" d="M 10.292969 25.460938 C 10.578125 25.175781 11.039062 25.175781 11.324219 25.460938 C 11.605469 25.746094 11.605469 26.207031 11.324219 26.492188 C 11.039062 26.777344 10.578125 26.777344 10.292969 26.492188 C 10.007812 26.207031 10.007812 25.746094 10.292969 25.460938 Z M 10.292969 25.460938 "/>
<path fill-rule="nonzero" fill="rgb(100%, 100%, 100%)" fill-opacity="1" d="M 8.40625 27.347656 C 8.691406 27.0625 9.152344 27.0625 9.4375 27.347656 C 9.722656 27.632812 9.722656 28.09375 9.4375 28.378906 C 9.152344 28.664062 8.691406 28.664062 8.40625 28.378906 C 8.121094 28.09375 8.121094 27.632812 8.40625 27.347656 Z M 8.40625 27.347656 "/>
<path fill-rule="nonzero" fill="rgb(100%, 100%, 100%)" fill-opacity="1" d="M 14.0625 21.6875 C 14.347656 21.402344 14.808594 21.402344 15.09375 21.6875 C 15.378906 21.972656 15.378906 22.433594 15.09375 22.71875 C 14.808594 23.003906 14.347656 23.003906 14.0625 22.71875 C 13.78125 22.433594 13.78125 21.972656 14.0625 21.6875 Z M 14.0625 21.6875 "/>
<path fill-rule="nonzero" fill="rgb(100%, 100%, 100%)" fill-opacity="1" d="M 12.179688 23.574219 C 12.460938 23.289062 12.925781 23.289062 13.207031 23.574219 C 13.492188 23.859375 13.492188 24.320312 13.207031 24.605469 C 12.925781 24.890625 12.460938 24.890625 12.179688 24.605469 C 11.894531 24.320312 11.894531 23.859375 12.179688 23.574219 Z M 12.179688 23.574219 "/>
<path fill-rule="nonzero" fill="rgb(0%, 0%, 0%)" fill-opacity="1" d="M 0 15.207031 L 0 18.476562 L 2.113281 20.589844 L 16.382812 20.589844 L 16.371094 20.578125 L 18.476562 18.472656 L 18.472656 15.230469 L 16.367188 13.125 L 16.371094 13.121094 L 2.140625 13.117188 L 2.140625 13.121094 L 0.0273438 15.234375 Z M 0 15.207031 "/>
<path fill-rule="nonzero" fill="rgb(100%, 100%, 100%)" fill-opacity="1" d="M 3.902344 16.125 C 4.304688 16.125 4.632812 16.453125 4.632812 16.855469 C 4.632812 17.257812 4.304688 17.582031 3.902344 17.582031 C 3.5 17.582031 3.175781 17.257812 3.175781 16.855469 C 3.175781 16.453125 3.5 16.125 3.902344 16.125 Z M 3.902344 16.125 "/>
<path fill-rule="nonzero" fill="rgb(100%, 100%, 100%)" fill-opacity="1" d="M 9.238281 16.125 C 9.640625 16.125 9.964844 16.453125 9.964844 16.855469 C 9.964844 17.257812 9.640625 17.582031 9.238281 17.582031 C 8.835938 17.582031 8.507812 17.257812 8.507812 16.855469 C 8.507812 16.453125 8.835938 16.125 9.238281 16.125 Z M 9.238281 16.125 "/>
<path fill-rule="nonzero" fill="rgb(100%, 100%, 100%)" fill-opacity="1" d="M 6.570312 16.125 C 6.972656 16.125 7.300781 16.453125 7.300781 16.855469 C 7.300781 17.257812 6.972656 17.582031 6.570312 17.582031 C 6.167969 17.582031 5.839844 17.257812 5.839844 16.855469 C 5.839844 16.453125 6.167969 16.125 6.570312 16.125 Z M 6.570312 16.125 "/>
<path fill-rule="nonzero" fill="rgb(100%, 100%, 100%)" fill-opacity="1" d="M 14.574219 16.125 C 14.976562 16.125 15.300781 16.453125 15.300781 16.855469 C 15.300781 17.257812 14.976562 17.582031 14.574219 17.582031 C 14.171875 17.582031 13.84375 17.257812 13.84375 16.855469 C 13.84375 16.453125 14.171875 16.125 14.574219 16.125 Z M 14.574219 16.125 "/>
<path fill-rule="nonzero" fill="rgb(100%, 100%, 100%)" fill-opacity="1" d="M 11.90625 16.125 C 12.308594 16.125 12.632812 16.453125 12.632812 16.855469 C 12.632812 17.257812 12.308594 17.582031 11.90625 17.582031 C 11.503906 17.582031 11.175781 17.257812 11.175781 16.855469 C 11.175781 16.453125 11.503906 16.125 11.90625 16.125 Z M 11.90625 16.125 "/>
<path fill-rule="nonzero" fill="rgb(0%, 0%, 0%)" fill-opacity="1" d="M 3.121094 2.3125 L 0.0273438 15.234375 L 11.175781 13.117188 Z M 3.121094 2.3125 "/>
<path fill-rule="nonzero" fill="rgb(0%, 0%, 0%)" fill-opacity="1" d="M 18.480469 13.082031 L 17.351562 14.109375 L 18.484375 15.390625 Z M 18.480469 13.082031 "/>
<path fill-rule="nonzero" fill="rgb(0%, 0%, 0%)" fill-opacity="1" d="M 0 18.476562 L 3.128906 31.34375 L 11.175781 20.589844 L 0 18.476562 "/>
<path fill-rule="nonzero" fill="rgb(0%, 0%, 0%)" fill-opacity="1" d="M 18.476562 18.472656 L 17.421875 19.527344 L 18.484375 20.589844 Z M 18.476562 18.472656 "/>
</svg>
