<?xml version="1.0" encoding="UTF-8"?>
<svg xmlns="http://www.w3.org/2000/svg" xmlns:xlink="http://www.w3.org/1999/xlink" width="18.5" height="20.607268" viewBox="0 0 18.5 20.607268">
<path fill-rule="nonzero" fill="rgb(0%, 0%, 0%)" fill-opacity="1" d="M 5.4375 0 L 3.125 2.316406 L 3.125 5.304688 L 13.222656 15.402344 L 13.222656 15.386719 L 16.199219 15.386719 L 18.496094 13.089844 L 18.496094 10.109375 L 18.5 10.109375 L 8.429688 0.0351562 L 5.4375 0.0351562 Z M 5.4375 0 "/>
<path fill-rule="nonzero" fill="rgb(100%, 100%, 100%)" fill-opacity="1" d="M 7.550781 3.410156 C 7.835938 3.695312 7.835938 4.160156 7.550781 4.445312 C 7.265625 4.726562 6.804688 4.726562 6.519531 4.445312 C 6.234375 4.160156 6.234375 3.695312 6.519531 3.410156 C 6.804688 3.128906 7.265625 3.128906 7.550781 3.410156 Z M 7.550781 3.410156 "/>
<path fill-rule="nonzero" fill="rgb(100%, 100%, 100%)" fill-opacity="1" d="M 11.324219 7.1875 C 11.609375 7.472656 11.609375 7.933594 11.324219 8.21875 C 11.039062 8.503906 10.578125 8.503906 10.292969 8.21875 C 10.007812 7.933594 10.007812 7.472656 10.292969 7.1875 C 10.578125 6.902344 11.039062 6.902344 11.324219 7.1875 Z M 11.324219 7.1875 "/>
<path fill-rule="nonzero" fill="rgb(100%, 100%, 100%)" fill-opacity="1" d="M 9.4375 5.300781 C 9.722656 5.585938 9.722656 6.046875 9.4375 6.332031 C 9.152344 6.617188 8.691406 6.617188 8.40625 6.332031 C 8.121094 6.046875 8.121094 5.585938 8.40625 5.300781 C 8.691406 5.015625 9.152344 5.015625 9.4375 5.300781 Z M 9.4375 5.300781 "/>
<path fill-rule="nonzero" fill="rgb(100%, 100%, 100%)" fill-opacity="1" d="M 15.101562 10.964844 C 15.386719 11.246094 15.386719 11.710938 15.101562 11.996094 C 14.816406 12.28125 14.355469 12.28125 14.070312 11.996094 C 13.785156 11.710938 13.785156 11.246094 14.070312 10.964844 C 14.355469 10.679688 14.816406 10.679688 15.101562 10.964844 Z M 15.101562 10.964844 "/>
<path fill-rule="nonzero" fill="rgb(100%, 100%, 100%)" fill-opacity="1" d="M 13.210938 9.074219 C 13.496094 9.359375 13.496094 9.820312 13.210938 10.105469 C 12.929688 10.390625 12.464844 10.390625 12.179688 10.105469 C 11.898438 9.820312 11.898438 9.359375 12.179688 9.074219 C 12.464844 8.789062 12.929688 8.789062 13.210938 9.074219 Z M 13.210938 9.074219 "/>
<path fill-rule="nonzero" fill="rgb(0%, 0%, 0%)" fill-opacity="1" d="M 0 15.21875 L 0 18.492188 L 2.117188 20.605469 L 16.394531 20.605469 L 16.386719 20.59375 L 18.492188 18.488281 L 18.488281 15.246094 L 16.378906 13.132812 L 16.382812 13.128906 L 2.140625 13.128906 L 0.0273438 15.246094 Z M 0 15.21875 "/>
<path fill-rule="nonzero" fill="rgb(100%, 100%, 100%)" fill-opacity="1" d="M 3.90625 16.140625 C 4.308594 16.140625 4.636719 16.464844 4.636719 16.867188 C 4.636719 17.269531 4.308594 17.597656 3.90625 17.597656 C 3.503906 17.597656 3.175781 17.269531 3.175781 16.867188 C 3.175781 16.464844 3.503906 16.140625 3.90625 16.140625 Z M 3.90625 16.140625 "/>
<path fill-rule="nonzero" fill="rgb(100%, 100%, 100%)" fill-opacity="1" d="M 9.246094 16.140625 C 9.648438 16.140625 9.976562 16.464844 9.976562 16.867188 C 9.976562 17.269531 9.648438 17.597656 9.246094 17.597656 C 8.84375 17.597656 8.515625 17.269531 8.515625 16.867188 C 8.515625 16.464844 8.84375 16.140625 9.246094 16.140625 Z M 9.246094 16.140625 "/>
<path fill-rule="nonzero" fill="rgb(100%, 100%, 100%)" fill-opacity="1" d="M 6.574219 16.140625 C 6.976562 16.140625 7.304688 16.464844 7.304688 16.867188 C 7.304688 17.269531 6.976562 17.597656 6.574219 17.597656 C 6.171875 17.597656 5.847656 17.269531 5.847656 16.867188 C 5.847656 16.464844 6.171875 16.140625 6.574219 16.140625 Z M 6.574219 16.140625 "/>
<path fill-rule="nonzero" fill="rgb(100%, 100%, 100%)" fill-opacity="1" d="M 14.585938 16.140625 C 14.988281 16.140625 15.3125 16.464844 15.3125 16.867188 C 15.3125 17.269531 14.988281 17.597656 14.585938 17.597656 C 14.183594 17.597656 13.855469 17.269531 13.855469 16.867188 C 13.855469 16.464844 14.183594 16.140625 14.585938 16.140625 Z M 14.585938 16.140625 "/>
<path fill-rule="nonzero" fill="rgb(100%, 100%, 100%)" fill-opacity="1" d="M 11.914062 16.140625 C 12.316406 16.140625 12.644531 16.464844 12.644531 16.867188 C 12.644531 17.269531 12.316406 17.597656 11.914062 17.597656 C 11.511719 17.597656 11.1875 17.269531 11.1875 16.867188 C 11.1875 16.464844 11.511719 16.140625 11.914062 16.140625 Z M 11.914062 16.140625 "/>
<path fill-rule="nonzero" fill="rgb(0%, 0%, 0%)" fill-opacity="1" d="M 3.125 2.316406 L 0.0273438 15.246094 L 11.1875 13.128906 Z M 3.125 2.316406 "/>
<path fill-rule="nonzero" fill="rgb(0%, 0%, 0%)" fill-opacity="1" d="M 18.496094 13.089844 L 17.367188 14.121094 L 18.5 15.402344 Z M 18.496094 13.089844 "/>
</svg>
