<?xml version="1.0" encoding="UTF-8"?>
<svg xmlns="http://www.w3.org/2000/svg" xmlns:xlink="http://www.w3.org/1999/xlink" width="8" height="19.781178" viewBox="0 0 8 19.781178">
<path fill-rule="nonzero" fill="rgb(0%, 0%, 0%)" fill-opacity="1" d="M 5.765625 0 L 2.261719 0 L 0 2.265625 L 0 17.539062 L 0.0117188 17.527344 L 2.265625 19.78125 L 5.738281 19.78125 L 7.992188 17.523438 L 8 17.527344 L 8 2.289062 L 5.734375 0.0273438 Z M 5.765625 0 "/>
<path fill-rule="nonzero" fill="rgb(100%, 100%, 100%)" fill-opacity="1" d="M 4.78125 4.179688 C 4.78125 4.609375 4.429688 4.957031 4 4.957031 C 3.570312 4.957031 3.21875 4.609375 3.21875 4.179688 C 3.21875 3.746094 3.570312 3.398438 4 3.398438 C 4.429688 3.398438 4.78125 3.746094 4.78125 4.179688 Z M 4.78125 4.179688 "/>
<path fill-rule="nonzero" fill="rgb(100%, 100%, 100%)" fill-opacity="1" d="M 4.78125 9.890625 C 4.78125 10.320312 4.429688 10.671875 4 10.671875 C 3.570312 10.671875 3.21875 10.320312 3.21875 9.890625 C 3.21875 9.460938 3.570312 9.109375 4 9.109375 C 4.429688 9.109375 4.78125 9.460938 4.78125 9.890625 Z M 4.78125 9.890625 "/>
<path fill-rule="nonzero" fill="rgb(100%, 100%, 100%)" fill-opacity="1" d="M 4.78125 7.035156 C 4.78125 7.464844 4.429688 7.816406 4 7.816406 C 3.570312 7.816406 3.21875 7.464844 3.21875 7.035156 C 3.21875 6.605469 3.570312 6.253906 4 6.253906 C 4.429688 6.253906 4.78125 6.605469 4.78125 7.035156 Z M 4.78125 7.035156 "/>
<path fill-rule="nonzero" fill="rgb(100%, 100%, 100%)" fill-opacity="1" d="M 4.78125 15.601562 C 4.78125 16.035156 4.429688 16.382812 4 16.382812 C 3.570312 16.382812 3.21875 16.035156 3.21875 15.601562 C 3.21875 15.171875 3.570312 14.824219 4 14.824219 C 4.429688 14.824219 4.78125 15.171875 4.78125 15.601562 Z M 4.78125 15.601562 "/>
<path fill-rule="nonzero" fill="rgb(100%, 100%, 100%)" fill-opacity="1" d="M 4.78125 12.746094 C 4.78125 13.175781 4.429688 13.527344 4 13.527344 C 3.570312 13.527344 3.21875 13.175781 3.21875 12.746094 C 3.21875 12.316406 3.570312 11.964844 4 11.964844 C 4.429688 11.964844 4.78125 12.316406 4.78125 12.746094 Z M 4.78125 12.746094 "/>
</svg>
