<?xml version="1.0" encoding="UTF-8"?>
<svg xmlns="http://www.w3.org/2000/svg" xmlns:xlink="http://www.w3.org/1999/xlink" width="18.5" height="20.607268" viewBox="0 0 18.5 20.607268">
<path fill-rule="nonzero" fill="rgb(0%, 0%, 0%)" fill-opacity="1" d="M 13.0625 0 L 15.375 2.316406 L 15.375 5.304688 L 5.277344 15.402344 L 5.277344 15.386719 L 2.300781 15.386719 L 0.00390625 13.089844 L 0.00390625 10.109375 L 0 10.109375 L 10.070312 0.0351562 L 13.0625 0.0351562 Z M 13.0625 0 "/>
<path fill-rule="nonzero" fill="rgb(100%, 100%, 100%)" fill-opacity="1" d="M 10.949219 3.410156 C 10.664062 3.695312 10.664062 4.160156 10.949219 4.445312 C 11.234375 4.726562 11.695312 4.726562 11.980469 4.445312 C 12.265625 4.160156 12.265625 3.695312 11.980469 3.410156 C 11.695312 3.128906 11.234375 3.128906 10.949219 3.410156 Z M 10.949219 3.410156 "/>
<path fill-rule="nonzero" fill="rgb(100%, 100%, 100%)" fill-opacity="1" d="M 7.175781 7.1875 C 6.890625 7.472656 6.890625 7.933594 7.175781 8.21875 C 7.460938 8.503906 7.921875 8.503906 8.207031 8.21875 C 8.492188 7.933594 8.492188 7.472656 8.207031 7.1875 C 7.921875 6.902344 7.460938 6.902344 7.175781 7.1875 Z M 7.175781 7.1875 "/>
<path fill-rule="nonzero" fill="rgb(100%, 100%, 100%)" fill-opacity="1" d="M 9.0625 5.300781 C 8.777344 5.585938 8.777344 6.046875 9.0625 6.332031 C 9.347656 6.617188 9.808594 6.617188 10.09375 6.332031 C 10.378906 6.046875 10.378906 5.585938 10.09375 5.300781 C 9.808594 5.015625 9.347656 5.015625 9.0625 5.300781 Z M 9.0625 5.300781 "/>
<path fill-rule="nonzero" fill="rgb(100%, 100%, 100%)" fill-opacity="1" d="M 3.398438 10.964844 C 3.113281 11.246094 3.113281 11.710938 3.398438 11.996094 C 3.683594 12.28125 4.144531 12.28125 4.429688 11.996094 C 4.714844 11.710938 4.714844 11.246094 4.429688 10.964844 C 4.144531 10.679688 3.683594 10.679688 3.398438 10.964844 Z M 3.398438 10.964844 "/>
<path fill-rule="nonzero" fill="rgb(100%, 100%, 100%)" fill-opacity="1" d="M 5.289062 9.074219 C 5.003906 9.359375 5.003906 9.820312 5.289062 10.105469 C 5.570312 10.390625 6.035156 10.390625 6.320312 10.105469 C 6.601562 9.820312 6.601562 9.359375 6.320312 9.074219 C 6.035156 8.789062 5.570312 8.789062 5.289062 9.074219 Z M 5.289062 9.074219 "/>
<path fill-rule="nonzero" fill="rgb(0%, 0%, 0%)" fill-opacity="1" d="M 18.5 15.21875 L 18.5 18.492188 L 16.382812 20.605469 L 2.105469 20.605469 L 2.113281 20.59375 L 0.0078125 18.488281 L 0.0117188 15.246094 L 2.121094 13.132812 L 2.117188 13.128906 L 16.359375 13.128906 L 18.472656 15.246094 Z M 18.5 15.21875 "/>
<path fill-rule="nonzero" fill="rgb(100%, 100%, 100%)" fill-opacity="1" d="M 14.59375 16.140625 C 14.191406 16.140625 13.863281 16.464844 13.863281 16.867188 C 13.863281 17.269531 14.191406 17.597656 14.59375 17.597656 C 14.996094 17.597656 15.324219 17.269531 15.324219 16.867188 C 15.324219 16.464844 14.996094 16.140625 14.59375 16.140625 Z M 14.59375 16.140625 "/>
<path fill-rule="nonzero" fill="rgb(100%, 100%, 100%)" fill-opacity="1" d="M 9.253906 16.140625 C 8.851562 16.140625 8.523438 16.464844 8.523438 16.867188 C 8.523438 17.269531 8.851562 17.597656 9.253906 17.597656 C 9.65625 17.597656 9.984375 17.269531 9.984375 16.867188 C 9.984375 16.464844 9.65625 16.140625 9.253906 16.140625 Z M 9.253906 16.140625 "/>
<path fill-rule="nonzero" fill="rgb(100%, 100%, 100%)" fill-opacity="1" d="M 11.925781 16.140625 C 11.523438 16.140625 11.195312 16.464844 11.195312 16.867188 C 11.195312 17.269531 11.523438 17.597656 11.925781 17.597656 C 12.328125 17.597656 12.652344 17.269531 12.652344 16.867188 C 12.652344 16.464844 12.328125 16.140625 11.925781 16.140625 Z M 11.925781 16.140625 "/>
<path fill-rule="nonzero" fill="rgb(100%, 100%, 100%)" fill-opacity="1" d="M 3.914062 16.140625 C 3.511719 16.140625 3.1875 16.464844 3.1875 16.867188 C 3.1875 17.269531 3.511719 17.597656 3.914062 17.597656 C 4.316406 17.597656 4.644531 17.269531 4.644531 16.867188 C 4.644531 16.464844 4.316406 16.140625 3.914062 16.140625 Z M 3.914062 16.140625 "/>
<path fill-rule="nonzero" fill="rgb(100%, 100%, 100%)" fill-opacity="1" d="M 6.585938 16.140625 C 6.183594 16.140625 5.855469 16.464844 5.855469 16.867188 C 5.855469 17.269531 6.183594 17.597656 6.585938 17.597656 C 6.988281 17.597656 7.3125 17.269531 7.3125 16.867188 C 7.3125 16.464844 6.988281 16.140625 6.585938 16.140625 Z M 6.585938 16.140625 "/>
<path fill-rule="nonzero" fill="rgb(0%, 0%, 0%)" fill-opacity="1" d="M 15.375 2.316406 L 18.472656 15.246094 L 7.3125 13.128906 Z M 15.375 2.316406 "/>
<path fill-rule="nonzero" fill="rgb(0%, 0%, 0%)" fill-opacity="1" d="M 0.00390625 13.089844 L 1.132812 14.121094 L 0 15.402344 Z M 0.00390625 13.089844 "/>
</svg>
