<?xml version="1.0" encoding="UTF-8"?>
<svg xmlns="http://www.w3.org/2000/svg" xmlns:xlink="http://www.w3.org/1999/xlink" width="16.694185" height="14" viewBox="0 0 16.694185 14">
<path fill-rule="nonzero" fill="rgb(0%, 0%, 0%)" fill-opacity="1" d="M 10.605469 3.886719 C 10.605469 6.035156 8.828125 7.777344 6.628906 7.777344 C 4.433594 7.777344 2.652344 6.035156 2.652344 3.886719 C 2.652344 1.742188 4.433594 0 6.628906 0 C 8.828125 0 10.605469 1.742188 10.605469 3.886719 Z M 10.605469 3.886719 "/>
<path fill-rule="nonzero" fill="rgb(0%, 0%, 0%)" fill-opacity="1" d="M 7.953125 10.113281 C 7.953125 12.257812 6.171875 14 3.976562 14 C 1.78125 14 0 12.257812 0 10.113281 C 0 7.964844 1.78125 6.222656 3.976562 6.222656 C 6.171875 6.222656 7.953125 7.964844 7.953125 10.113281 Z M 7.953125 10.113281 "/>
<path fill-rule="nonzero" fill="rgb(0%, 0%, 0%)" fill-opacity="1" d="M 16.695312 10.113281 C 16.695312 12.257812 14.914062 14 12.71875 14 C 10.519531 14 8.742188 12.257812 8.742188 10.113281 C 8.742188 7.964844 10.519531 6.222656 12.71875 6.222656 C 14.914062 6.222656 16.695312 7.964844 16.695312 10.113281 Z M 16.695312 10.113281 "/>
<path fill-rule="nonzero" fill="rgb(0%, 0%, 0%)" fill-opacity="1" d="M 4.25 7.421875 L 12.71875 7.421875 L 12.71875 14 L 4.25 14 Z M 4.25 7.421875 "/>
<path fill-rule="nonzero" fill="rgb(0%, 0%, 0%)" fill-opacity="1" d="M 9.394531 1.09375 L 15.558594 7.390625 L 10.414062 12.601562 L 4.25 6.304688 Z M 9.394531 1.09375 "/>
<path fill-rule="nonzero" fill="rgb(0%, 0%, 0%)" fill-opacity="1" d="M 0.265625 8.742188 L 3.125 2.050781 L 9.265625 4.507812 L 6.402344 11.199219 Z M 0.265625 8.742188 "/>
<path fill-rule="nonzero" fill="rgb(98.431373%, 0%, 0%)" fill-opacity="1" d="M 6.027344 10.113281 C 6.027344 11.21875 5.109375 12.117188 3.976562 12.117188 C 2.84375 12.117188 1.925781 11.21875 1.925781 10.113281 C 1.925781 9.003906 2.84375 8.105469 3.976562 8.105469 C 5.109375 8.105469 6.027344 9.003906 6.027344 10.113281 Z M 6.027344 10.113281 "/>
<path fill-rule="nonzero" fill="rgb(100%, 100%, 100%)" fill-opacity="1" d="M 14.769531 10.113281 C 14.769531 11.21875 13.851562 12.117188 12.71875 12.117188 C 11.582031 12.117188 10.664062 11.21875 10.664062 10.113281 C 10.664062 9.003906 11.582031 8.105469 12.71875 8.105469 C 13.851562 8.105469 14.769531 9.003906 14.769531 10.113281 Z M 14.769531 10.113281 "/>
</svg>
