<?xml version="1.0" encoding="UTF-8"?>
<svg xmlns="http://www.w3.org/2000/svg" xmlns:xlink="http://www.w3.org/1999/xlink" width="14" height="23.229401" viewBox="0 0 14 23.229401">
<path fill-rule="nonzero" fill="rgb(4.705882%, 22.352941%, 100%)" fill-opacity="1" d="M 0 0 L 14 0 L 14 23.230469 L 0 23.230469 Z M 0 0 "/>
<path fill-rule="nonzero" fill="rgb(0%, 0%, 0%)" fill-opacity="1" d="M 3 3.242188 L 11.386719 3.242188 L 11.386719 23.230469 L 3 23.230469 Z M 3 3.242188 "/>
<path fill-rule="nonzero" fill="rgb(100%, 7.45098%, 0%)" fill-opacity="1" d="M 9.601562 7.25 C 9.601562 8.503906 8.585938 9.519531 7.335938 9.519531 C 6.082031 9.519531 5.066406 8.503906 5.066406 7.25 C 5.066406 6 6.082031 4.984375 7.335938 4.984375 C 8.585938 4.984375 9.601562 6 9.601562 7.25 Z M 9.601562 7.25 "/>
<path fill-rule="nonzero" fill="rgb(100%, 7.45098%, 0%)" fill-opacity="1" d="M 9.601562 13.464844 C 9.601562 14.71875 8.585938 15.730469 7.335938 15.730469 C 6.082031 15.730469 5.066406 14.71875 5.066406 13.464844 C 5.066406 12.214844 6.082031 11.199219 7.335938 11.199219 C 8.585938 11.199219 9.601562 12.214844 9.601562 13.464844 Z M 9.601562 13.464844 "/>
<path fill-rule="nonzero" fill="rgb(100%, 7.45098%, 0%)" fill-opacity="1" d="M 9.601562 19.679688 C 9.601562 20.929688 8.585938 21.945312 7.335938 21.945312 C 6.082031 21.945312 5.066406 20.929688 5.066406 19.679688 C 5.066406 18.425781 6.082031 17.414062 7.335938 17.414062 C 8.585938 17.414062 9.601562 18.425781 9.601562 19.679688 Z M 9.601562 19.679688 "/>
</svg>
