<?xml version="1.0" encoding="UTF-8"?>
<svg xmlns="http://www.w3.org/2000/svg" xmlns:xlink="http://www.w3.org/1999/xlink" width="16" height="15.936255" viewBox="0 0 16 15.936255">
<path fill-rule="nonzero" fill="rgb(46.27451%, 47.058824%, 47.058824%)" fill-opacity="1" d="M 16 7.96875 C 16 12.367188 12.417969 15.9375 8 15.9375 C 3.582031 15.9375 0 12.367188 0 7.96875 C 0 3.566406 3.582031 0 8 0 C 12.417969 0 16 3.566406 16 7.96875 Z M 16 7.96875 "/>
<path fill-rule="nonzero" fill="rgb(100%, 100%, 100%)" fill-opacity="1" d="M 14.105469 7.96875 C 14.105469 11.328125 11.371094 14.050781 8 14.050781 C 4.628906 14.050781 1.894531 11.328125 1.894531 7.96875 C 1.894531 4.609375 4.628906 1.886719 8 1.886719 C 11.371094 1.886719 14.105469 4.609375 14.105469 7.96875 Z M 14.105469 7.96875 "/>
<path fill-rule="nonzero" fill="rgb(0%, 0%, 0%)" fill-opacity="1" d="M 9.507812 9.285156 L 10.40625 4.890625 L 11.777344 4.890625 L 10.296875 11.0625 L 8.914062 11.0625 L 7.828125 6.933594 L 6.742188 11.0625 L 5.359375 11.0625 L 3.878906 4.890625 L 5.25 4.890625 L 6.152344 9.273438 L 7.25 4.890625 L 8.414062 4.890625 Z M 3.71875 1.960938 "/>
</svg>
