<?xml version="1.0" encoding="UTF-8"?>
<svg xmlns="http://www.w3.org/2000/svg" xmlns:xlink="http://www.w3.org/1999/xlink" width="16" height="22.760563" viewBox="0 0 16 22.760563">
<path fill-rule="nonzero" fill="rgb(0%, 0%, 0%)" fill-opacity="1" d="M 0 0 L 16 0 L 16 22.761719 L 0 22.761719 Z M 0 0 "/>
<path fill-rule="nonzero" fill="rgb(100%, 100%, 100%)" fill-opacity="1" d="M 0.902344 0.894531 L 15.097656 0.894531 L 15.097656 21.851562 L 0.902344 21.851562 Z M 0.902344 0.894531 "/>
<path fill-rule="nonzero" fill="rgb(0%, 0%, 0%)" fill-opacity="1" d="M 9.9375 16.242188 L 10.96875 11.292969 L 12.539062 11.292969 L 10.839844 18.246094 L 9.257812 18.246094 L 8.011719 13.597656 L 6.769531 18.246094 L 5.183594 18.246094 L 3.484375 11.292969 L 5.058594 11.292969 L 6.09375 16.230469 L 7.351562 11.292969 L 8.683594 11.292969 Z M 3.304688 8 "/>
<path fill-rule="nonzero" fill="rgb(0%, 0%, 0%)" fill-opacity="1" d="M 1.363281 7.664062 L 14.109375 1.722656 L 14.640625 2.855469 L 1.894531 8.800781 Z M 1.363281 7.664062 "/>
<path fill-rule="nonzero" fill="rgb(0%, 0%, 0%)" fill-opacity="1" d="M 1.363281 2.859375 L 1.890625 1.722656 L 14.636719 7.667969 L 14.109375 8.804688 Z M 1.363281 2.859375 "/>
</svg>
