<?xml version="1.0" encoding="UTF-8"?>
<svg xmlns="http://www.w3.org/2000/svg" xmlns:xlink="http://www.w3.org/1999/xlink" width="15" height="15" viewBox="0 0 15 15">
<path fill-rule="nonzero" fill="rgb(0%, 0%, 0%)" fill-opacity="1" d="M 0 4.394531 L 4.394531 0 L 10.605469 0 L 15 4.394531 L 15 10.605469 L 10.605469 15 L 4.394531 15 L 0 10.605469 Z M 0 4.394531 "/>
<path fill-rule="nonzero" fill="rgb(100%, 100%, 100%)" fill-opacity="1" d="M 6.523438 7.5 C 6.523438 6.960938 6.960938 6.523438 7.5 6.523438 C 8.039062 6.523438 8.476562 6.960938 8.476562 7.5 C 8.476562 8.039062 8.039062 8.476562 7.5 8.476562 C 6.960938 8.476562 6.523438 8.039062 6.523438 7.5 Z M 6.523438 7.5 "/>
<path fill-rule="nonzero" fill="rgb(100%, 100%, 100%)" fill-opacity="1" d="M 8.699219 5.324219 C 8.699219 4.785156 9.136719 4.351562 9.675781 4.351562 C 10.214844 4.351562 10.648438 4.785156 10.648438 5.324219 C 10.648438 5.863281 10.214844 6.300781 9.675781 6.300781 C 9.136719 6.300781 8.699219 5.863281 8.699219 5.324219 Z M 8.699219 5.324219 "/>
<path fill-rule="nonzero" fill="rgb(100%, 100%, 100%)" fill-opacity="1" d="M 4.351562 9.675781 C 4.351562 9.136719 4.785156 8.699219 5.324219 8.699219 C 5.863281 8.699219 6.300781 9.136719 6.300781 9.675781 C 6.300781 10.214844 5.863281 10.648438 5.324219 10.648438 C 4.785156 10.648438 4.351562 10.214844 4.351562 9.675781 Z M 4.351562 9.675781 "/>
<path fill-rule="nonzero" fill="rgb(10.196078%, 10.196078%, 10.196078%)" fill-opacity="1" d="M 6.523438 13.269531 C 6.523438 12.730469 6.960938 12.292969 7.5 12.292969 C 8.039062 12.292969 8.476562 12.730469 8.476562 13.269531 C 8.476562 13.808594 8.039062 14.246094 7.5 14.246094 C 6.960938 14.246094 6.523438 13.808594 6.523438 13.269531 Z M 6.523438 13.269531 "/>
<path fill-rule="nonzero" fill="rgb(10.196078%, 10.196078%, 10.196078%)" fill-opacity="1" d="M 6.523438 1.730469 C 6.523438 1.191406 6.960938 0.757812 7.5 0.757812 C 8.039062 0.757812 8.476562 1.191406 8.476562 1.730469 C 8.476562 2.269531 8.039062 2.707031 7.5 2.707031 C 6.960938 2.707031 6.523438 2.269531 6.523438 1.730469 Z M 6.523438 1.730469 "/>
<path fill-rule="nonzero" fill="rgb(10.196078%, 10.196078%, 10.196078%)" fill-opacity="1" d="M 6.523438 4.617188 C 6.523438 4.078125 6.960938 3.640625 7.5 3.640625 C 8.039062 3.640625 8.476562 4.078125 8.476562 4.617188 C 8.476562 5.152344 8.039062 5.589844 7.5 5.589844 C 6.960938 5.589844 6.523438 5.152344 6.523438 4.617188 Z M 6.523438 4.617188 "/>
<path fill-rule="nonzero" fill="rgb(10.196078%, 10.196078%, 10.196078%)" fill-opacity="1" d="M 0.757812 7.5 C 0.757812 6.960938 1.191406 6.523438 1.730469 6.523438 C 2.269531 6.523438 2.707031 6.960938 2.707031 7.5 C 2.707031 8.039062 2.269531 8.476562 1.730469 8.476562 C 1.191406 8.476562 0.757812 8.039062 0.757812 7.5 Z M 0.757812 7.5 "/>
<path fill-rule="nonzero" fill="rgb(10.196078%, 10.196078%, 10.196078%)" fill-opacity="1" d="M 3.640625 7.5 C 3.640625 6.960938 4.078125 6.523438 4.617188 6.523438 C 5.152344 6.523438 5.589844 6.960938 5.589844 7.5 C 5.589844 8.039062 5.152344 8.476562 4.617188 8.476562 C 4.078125 8.476562 3.640625 8.039062 3.640625 7.5 Z M 3.640625 7.5 "/>
<path fill-rule="nonzero" fill="rgb(10.196078%, 10.196078%, 10.196078%)" fill-opacity="1" d="M 12.292969 7.5 C 12.292969 6.960938 12.730469 6.523438 13.269531 6.523438 C 13.808594 6.523438 14.246094 6.960938 14.246094 7.5 C 14.246094 8.039062 13.808594 8.476562 13.269531 8.476562 C 12.730469 8.476562 12.292969 8.039062 12.292969 7.5 Z M 12.292969 7.5 "/>
<path fill-rule="nonzero" fill="rgb(10.196078%, 10.196078%, 10.196078%)" fill-opacity="1" d="M 9.410156 7.5 C 9.410156 6.960938 9.847656 6.523438 10.386719 6.523438 C 10.921875 6.523438 11.359375 6.960938 11.359375 7.5 C 11.359375 8.039062 10.921875 8.476562 10.386719 8.476562 C 9.847656 8.476562 9.410156 8.039062 9.410156 7.5 Z M 9.410156 7.5 "/>
<path fill-rule="nonzero" fill="rgb(10.196078%, 10.196078%, 10.196078%)" fill-opacity="1" d="M 6.523438 10.386719 C 6.523438 9.847656 6.960938 9.410156 7.5 9.410156 C 8.039062 9.410156 8.476562 9.847656 8.476562 10.386719 C 8.476562 10.921875 8.039062 11.359375 7.5 11.359375 C 6.960938 11.359375 6.523438 10.921875 6.523438 10.386719 Z M 6.523438 10.386719 "/>
<path fill-rule="nonzero" fill="rgb(100%, 100%, 100%)" fill-opacity="1" d="M 2.175781 11.851562 C 2.175781 11.3125 2.613281 10.875 3.148438 10.875 C 3.6875 10.875 4.125 11.3125 4.125 11.851562 C 4.125 12.386719 3.6875 12.824219 3.148438 12.824219 C 2.613281 12.824219 2.175781 12.386719 2.175781 11.851562 Z M 2.175781 11.851562 "/>
<path fill-rule="nonzero" fill="rgb(100%, 100%, 100%)" fill-opacity="1" d="M 10.875 3.148438 C 10.875 2.613281 11.3125 2.175781 11.851562 2.175781 C 12.386719 2.175781 12.824219 2.613281 12.824219 3.148438 C 12.824219 3.6875 12.386719 4.125 11.851562 4.125 C 11.3125 4.125 10.875 3.6875 10.875 3.148438 Z M 10.875 3.148438 "/>
</svg>
