<?xml version="1.0" encoding="UTF-8"?>
<svg xmlns="http://www.w3.org/2000/svg" xmlns:xlink="http://www.w3.org/1999/xlink" width="10.87026" height="16" viewBox="0 0 10.87026 16">
<path fill-rule="nonzero" fill="rgb(100%, 84.705883%, 8.235294%)" fill-opacity="1" stroke-width="16" stroke-linecap="round" stroke-linejoin="round" stroke="rgb(100%, 100%, 100%)" stroke-opacity="1" stroke-miterlimit="4" d="M -38.251243 -97.779017 L 102.536342 -97.779017 L 102.536342 116.979797 L -38.251243 116.979797 Z M -38.251243 -97.779017 " transform="matrix(0.0693365, 0, 0, 0.0693365, 2.976426, 7.279655)"/>
<path fill-rule="nonzero" fill="rgb(0%, 0%, 0%)" fill-opacity="1" d="M 8.261719 13.371094 L 2.5625 13.371094 L 2.5625 11.550781 L 6.425781 6.589844 C 8.261719 4.207031 3.859375 3.335938 3.859375 5.675781 L 3.859375 6.582031 L 2.421875 6.582031 C 2.421875 6.582031 2.421875 7.113281 2.421875 5.777344 C 2.421875 4.429688 3.03125 2.628906 5.542969 2.628906 C 8.054688 2.628906 9.28125 5.464844 7.820312 7.324219 L 4.40625 11.570312 L 8.261719 11.570312 L 8.261719 13.371094 "/>
</svg>
