<?xml version="1.0" encoding="UTF-8"?>
<svg xmlns="http://www.w3.org/2000/svg" xmlns:xlink="http://www.w3.org/1999/xlink" width="21.988762" height="19" viewBox="0 0 21.988762 19">
<path fill-rule="nonzero" fill="rgb(100%, 100%, 100%)" fill-opacity="1" stroke-width="12" stroke-linecap="butt" stroke-linejoin="miter" stroke="rgb(100%, 0%, 0%)" stroke-opacity="1" stroke-miterlimit="4" d="M 10.39531 6.003493 L 113.421693 183.972807 L 216.407785 6.003493 Z M 10.39531 6.003493 " transform="matrix(0.0969488, 0, 0, 0.0969488, 0, 0)"/>
<path fill-rule="nonzero" fill="rgb(100%, 0%, 0%)" fill-opacity="1" d="M 12.472656 11.019531 C 12.0625 11.429688 11.574219 11.632812 10.996094 11.632812 C 10.414062 11.632812 9.925781 11.429688 9.515625 11.019531 C 9.105469 10.613281 8.902344 10.117188 8.902344 9.539062 L 8.902344 8.84375 L 10.292969 8.84375 L 10.292969 9.539062 C 10.292969 9.738281 10.359375 9.902344 10.496094 10.039062 C 10.632812 10.171875 10.800781 10.238281 10.996094 10.238281 C 11.191406 10.238281 11.355469 10.171875 11.484375 10.039062 C 11.621094 9.902344 11.691406 9.738281 11.691406 9.539062 L 11.691406 8.019531 C 11.46875 8.105469 11.238281 8.144531 10.996094 8.144531 C 10.414062 8.144531 9.925781 7.941406 9.515625 7.53125 C 9.105469 7.121094 8.902344 6.628906 8.902344 6.050781 L 8.902344 3.957031 C 8.902344 3.378906 9.105469 2.890625 9.515625 2.480469 C 9.925781 2.066406 10.414062 1.859375 10.996094 1.859375 C 11.574219 1.859375 12.0625 2.066406 12.472656 2.480469 C 12.882812 2.890625 13.085938 3.378906 13.085938 3.957031 L 13.085938 9.539062 C 13.085938 10.117188 12.882812 10.613281 12.472656 11.019531 M 10.496094 6.550781 C 10.632812 6.679688 10.800781 6.75 10.996094 6.75 C 11.191406 6.75 11.355469 6.679688 11.484375 6.550781 C 11.621094 6.414062 11.691406 6.25 11.691406 6.050781 L 11.691406 3.957031 C 11.691406 3.765625 11.621094 3.597656 11.484375 3.464844 C 11.355469 3.324219 11.191406 3.253906 10.996094 3.253906 C 10.800781 3.253906 10.632812 3.324219 10.496094 3.464844 C 10.359375 3.597656 10.292969 3.765625 10.292969 3.957031 L 10.292969 6.050781 C 10.292969 6.25 10.359375 6.414062 10.496094 6.550781 "/>
</svg>
