<?xml version="1.0" encoding="UTF-8"?>
<svg xmlns="http://www.w3.org/2000/svg" xmlns:xlink="http://www.w3.org/1999/xlink" width="21.988762" height="19" viewBox="0 0 21.988762 19">
<path fill-rule="nonzero" fill="rgb(100%, 100%, 100%)" fill-opacity="1" stroke-width="12" stroke-linecap="butt" stroke-linejoin="miter" stroke="rgb(100%, 0%, 0%)" stroke-opacity="1" stroke-miterlimit="4" d="M 10.395306 6.003491 L 113.421656 183.972747 L 216.407714 6.003491 Z M 10.395306 6.003491 " transform="matrix(0.0969488, 0, 0, 0.0969488, 0, 0)"/>
<path fill-rule="nonzero" fill="rgb(100%, 0%, 0%)" fill-opacity="1" d="M 9.515625 2.480469 C 9.925781 2.066406 10.414062 1.859375 10.996094 1.859375 C 11.574219 1.859375 12.0625 2.066406 12.472656 2.480469 C 12.882812 2.890625 13.085938 3.378906 13.085938 3.957031 C 13.085938 4.269531 13.027344 4.558594 12.902344 4.824219 L 10.464844 10.238281 L 13.085938 10.238281 L 13.085938 11.632812 L 8.902344 11.632812 L 8.902344 10.238281 L 11.523438 4.496094 C 11.636719 4.230469 11.691406 4.046875 11.691406 3.957031 C 11.691406 3.765625 11.621094 3.597656 11.484375 3.464844 C 11.355469 3.324219 11.191406 3.253906 10.996094 3.253906 C 10.800781 3.253906 10.632812 3.324219 10.496094 3.464844 C 10.359375 3.597656 10.292969 3.765625 10.292969 3.957031 L 8.902344 3.957031 C 8.902344 3.378906 9.105469 2.890625 9.515625 2.480469 "/>
</svg>
