<?xml version="1.0" encoding="UTF-8"?>
<svg xmlns="http://www.w3.org/2000/svg" xmlns:xlink="http://www.w3.org/1999/xlink" width="17.359549" height="15" viewBox="0 0 17.359549 15">
<path fill-rule="nonzero" fill="rgb(100%, 100%, 100%)" fill-opacity="1" stroke-width="12" stroke-linecap="butt" stroke-linejoin="miter" stroke="rgb(100%, 0%, 0%)" stroke-opacity="1" stroke-miterlimit="4" d="M 10.411426 6.022295 L 113.402884 183.986228 L 216.394343 6.022295 Z M 10.411426 6.022295 " transform="matrix(0.0765385, 0, 0, 0.0765385, 0, 0)"/>
<path fill-rule="nonzero" fill="rgb(100%, 0%, 0%)" fill-opacity="1" d="M 7.511719 1.957031 C 7.835938 1.632812 8.222656 1.46875 8.679688 1.46875 C 9.136719 1.46875 9.523438 1.632812 9.847656 1.957031 C 10.171875 2.28125 10.332031 2.667969 10.332031 3.125 L 10.332031 4.222656 C 10.332031 4.644531 10.191406 5.011719 9.914062 5.328125 C 10.191406 5.640625 10.332031 6.011719 10.332031 6.429688 L 10.332031 7.53125 C 10.332031 7.988281 10.171875 8.378906 9.847656 8.699219 C 9.523438 9.023438 9.136719 9.183594 8.679688 9.183594 C 8.222656 9.183594 7.835938 9.023438 7.511719 8.699219 C 7.1875 8.378906 7.027344 7.988281 7.027344 7.53125 L 7.027344 6.980469 L 8.125 6.980469 L 8.125 7.53125 C 8.125 7.6875 8.179688 7.816406 8.285156 7.925781 C 8.394531 8.03125 8.527344 8.082031 8.679688 8.082031 C 8.835938 8.082031 8.964844 8.03125 9.066406 7.925781 C 9.175781 7.816406 9.230469 7.6875 9.230469 7.53125 L 9.230469 6.429688 C 9.230469 6.277344 9.175781 6.144531 9.066406 6.042969 C 8.964844 5.933594 8.835938 5.878906 8.679688 5.878906 L 8.679688 4.777344 C 8.835938 4.777344 8.964844 4.722656 9.066406 4.617188 C 9.175781 4.507812 9.230469 4.378906 9.230469 4.222656 L 9.230469 3.125 C 9.230469 2.972656 9.175781 2.839844 9.066406 2.734375 C 8.964844 2.625 8.835938 2.570312 8.679688 2.570312 C 8.527344 2.570312 8.394531 2.625 8.285156 2.734375 C 8.179688 2.839844 8.125 2.972656 8.125 3.125 L 8.125 3.675781 L 7.027344 3.675781 L 7.027344 3.125 C 7.027344 2.667969 7.1875 2.28125 7.511719 1.957031 "/>
</svg>
