<?xml version="1.0" encoding="UTF-8"?>
<svg xmlns="http://www.w3.org/2000/svg" xmlns:xlink="http://www.w3.org/1999/xlink" width="17.359549" height="15" viewBox="0 0 17.359549 15">
<path fill-rule="nonzero" fill="rgb(100%, 100%, 100%)" fill-opacity="1" stroke-width="12" stroke-linecap="butt" stroke-linejoin="miter" stroke="rgb(100%, 0%, 0%)" stroke-opacity="1" stroke-miterlimit="4" d="M 10.411426 6.022295 L 113.402884 183.986228 L 216.394343 6.022295 Z M 10.411426 6.022295 " transform="matrix(0.0765385, 0, 0, 0.0765385, 0, 0)"/>
<path fill-rule="nonzero" fill="rgb(100%, 0%, 0%)" fill-opacity="1" d="M 6.464844 1.375 L 7.386719 1.375 L 7.386719 7.808594 L 6.464844 7.808594 L 6.464844 2.296875 L 5.550781 3.214844 L 5.550781 2.296875 L 6.464844 1.375 "/>
<path fill-rule="nonzero" fill="rgb(100%, 0%, 0%)" fill-opacity="1" d="M 9.152344 1.785156 C 9.421875 1.511719 9.746094 1.375 10.125 1.375 C 10.503906 1.375 10.828125 1.511719 11.097656 1.785156 C 11.367188 2.054688 11.503906 2.378906 11.503906 2.757812 L 11.503906 6.429688 C 11.503906 6.808594 11.367188 7.132812 11.097656 7.402344 C 10.828125 7.671875 10.503906 7.808594 10.125 7.808594 C 9.746094 7.808594 9.421875 7.671875 9.152344 7.402344 C 8.882812 7.132812 8.75 6.808594 8.75 6.429688 L 8.75 2.757812 C 8.75 2.378906 8.882812 2.054688 9.152344 1.785156 M 10.449219 2.429688 C 10.363281 2.339844 10.253906 2.296875 10.125 2.296875 C 9.996094 2.296875 9.886719 2.339844 9.796875 2.429688 C 9.707031 2.519531 9.664062 2.628906 9.664062 2.757812 L 9.664062 6.429688 C 9.664062 6.558594 9.707031 6.667969 9.796875 6.757812 C 9.886719 6.84375 9.996094 6.886719 10.125 6.886719 C 10.253906 6.886719 10.363281 6.84375 10.449219 6.757812 C 10.539062 6.667969 10.582031 6.558594 10.582031 6.429688 L 10.582031 2.757812 C 10.582031 2.628906 10.539062 2.519531 10.449219 2.429688 "/>
</svg>
