<?xml version="1.0" encoding="UTF-8"?>
<svg xmlns="http://www.w3.org/2000/svg" xmlns:xlink="http://www.w3.org/1999/xlink" width="21.988762" height="19" viewBox="0 0 21.988762 19">
<path fill-rule="nonzero" fill="rgb(100%, 100%, 100%)" fill-opacity="1" stroke-width="12" stroke-linecap="butt" stroke-linejoin="miter" stroke="rgb(100%, 0%, 0%)" stroke-opacity="1" stroke-miterlimit="4" d="M 10.395306 6.003491 L 113.421656 183.972747 L 216.407714 6.003491 Z M 10.395306 6.003491 " transform="matrix(0.0969488, 0, 0, 0.0969488, 0, 0)"/>
<path fill-rule="nonzero" fill="rgb(100%, 0%, 0%)" fill-opacity="1" d="M 9.515625 2.480469 C 9.925781 2.066406 10.414062 1.859375 10.996094 1.859375 C 11.574219 1.859375 12.0625 2.066406 12.472656 2.480469 C 12.882812 2.890625 13.085938 3.378906 13.085938 3.957031 L 13.085938 4.824219 C 13.085938 5.363281 12.910156 5.828125 12.558594 6.214844 C 12.910156 6.617188 13.085938 7.082031 13.085938 7.613281 L 13.085938 9.539062 C 13.085938 10.117188 12.882812 10.613281 12.472656 11.019531 C 12.0625 11.429688 11.574219 11.632812 10.996094 11.632812 C 10.414062 11.632812 9.925781 11.429688 9.515625 11.019531 C 9.105469 10.613281 8.902344 10.117188 8.902344 9.539062 L 8.902344 7.613281 C 8.902344 7.082031 9.074219 6.617188 9.425781 6.214844 C 9.074219 5.824219 8.894531 5.359375 8.902344 4.824219 L 8.902344 3.957031 C 8.902344 3.378906 9.105469 2.890625 9.515625 2.480469 M 11.484375 3.464844 C 11.355469 3.324219 11.191406 3.253906 10.996094 3.253906 C 10.800781 3.253906 10.632812 3.324219 10.496094 3.464844 C 10.359375 3.597656 10.292969 3.765625 10.292969 3.957031 L 10.292969 4.824219 C 10.292969 5.027344 10.359375 5.195312 10.496094 5.328125 C 10.632812 5.457031 10.800781 5.523438 10.996094 5.523438 C 11.191406 5.523438 11.355469 5.457031 11.484375 5.328125 C 11.621094 5.195312 11.691406 5.027344 11.691406 4.824219 L 11.691406 3.957031 C 11.691406 3.765625 11.621094 3.597656 11.484375 3.464844 M 11.484375 7.121094 C 11.355469 6.988281 11.191406 6.917969 10.996094 6.917969 C 10.800781 6.917969 10.632812 6.988281 10.496094 7.121094 C 10.359375 7.253906 10.292969 7.417969 10.292969 7.613281 L 10.292969 9.539062 C 10.292969 9.738281 10.359375 9.902344 10.496094 10.039062 C 10.632812 10.171875 10.800781 10.238281 10.996094 10.238281 C 11.191406 10.238281 11.355469 10.171875 11.484375 10.039062 C 11.621094 9.902344 11.691406 9.738281 11.691406 9.539062 L 11.691406 7.613281 C 11.691406 7.417969 11.621094 7.253906 11.484375 7.121094 "/>
</svg>
