<?xml version="1.0" encoding="UTF-8"?>
<svg xmlns="http://www.w3.org/2000/svg" xmlns:xlink="http://www.w3.org/1999/xlink" width="21.988762" height="19" viewBox="0 0 21.988762 19">
<path fill-rule="nonzero" fill="rgb(100%, 100%, 100%)" fill-opacity="1" stroke-width="12" stroke-linecap="butt" stroke-linejoin="miter" stroke="rgb(100%, 0%, 0%)" stroke-opacity="1" stroke-miterlimit="4" d="M 10.395306 6.003491 L 113.421656 183.972747 L 216.407714 6.003491 Z M 10.395306 6.003491 " transform="matrix(0.0969488, 0, 0, 0.0969488, 0, 0)"/>
<path fill-rule="nonzero" fill="rgb(100%, 0%, 0%)" fill-opacity="1" d="M 8.289062 2.523438 C 8.683594 2.125 9.15625 1.929688 9.714844 1.929688 C 10.273438 1.929688 10.746094 2.125 11.140625 2.523438 C 11.535156 2.921875 11.734375 3.394531 11.734375 3.953125 L 11.734375 4.625 L 10.386719 4.625 L 10.386719 3.953125 C 10.386719 3.765625 10.320312 3.601562 10.183594 3.472656 C 10.0625 3.34375 9.902344 3.277344 9.714844 3.277344 C 9.527344 3.277344 9.367188 3.34375 9.230469 3.472656 C 9.101562 3.601562 9.039062 3.765625 9.039062 3.953125 L 9.039062 5.421875 C 9.253906 5.339844 9.476562 5.300781 9.714844 5.296875 C 10.273438 5.296875 10.746094 5.496094 11.140625 5.894531 C 11.535156 6.285156 11.734375 6.765625 11.734375 7.324219 L 11.734375 9.339844 C 11.734375 9.894531 11.535156 10.375 11.140625 10.769531 C 10.746094 11.160156 10.273438 11.359375 9.714844 11.359375 C 9.15625 11.359375 8.683594 11.160156 8.289062 10.769531 C 7.894531 10.375 7.695312 9.894531 7.695312 9.339844 L 7.695312 3.953125 C 7.695312 3.394531 7.894531 2.921875 8.289062 2.523438 M 10.183594 6.84375 C 10.0625 6.710938 9.902344 6.640625 9.714844 6.640625 C 9.527344 6.640625 9.367188 6.710938 9.230469 6.84375 C 9.101562 6.972656 9.039062 7.132812 9.039062 7.324219 L 9.039062 9.339844 C 9.039062 9.53125 9.101562 9.691406 9.230469 9.820312 C 9.367188 9.949219 9.527344 10.011719 9.714844 10.011719 C 9.902344 10.011719 10.0625 9.949219 10.183594 9.820312 C 10.320312 9.691406 10.386719 9.53125 10.386719 9.339844 L 10.386719 7.324219 C 10.386719 7.132812 10.320312 6.972656 10.183594 6.84375 "/>
<path fill-rule="nonzero" fill="rgb(100%, 0%, 0%)" fill-opacity="1" d="M 14.226562 1.929688 L 16.097656 1.929688 L 16.097656 2.605469 L 14.898438 2.605469 L 14.898438 3.671875 C 15.007812 3.632812 15.121094 3.613281 15.234375 3.613281 C 15.515625 3.613281 15.753906 3.707031 15.949219 3.914062 C 16.148438 4.105469 16.246094 4.347656 16.246094 4.625 L 16.246094 5.636719 C 16.246094 5.910156 16.148438 6.148438 15.949219 6.347656 C 15.753906 6.546875 15.515625 6.640625 15.234375 6.640625 C 14.957031 6.640625 14.722656 6.546875 14.523438 6.347656 C 14.324219 6.148438 14.226562 5.910156 14.226562 5.636719 L 14.226562 5.296875 L 14.898438 5.296875 L 14.898438 5.636719 C 14.898438 5.726562 14.933594 5.808594 14.996094 5.875 C 15.0625 5.9375 15.140625 5.964844 15.234375 5.964844 C 15.332031 5.964844 15.410156 5.9375 15.472656 5.875 C 15.539062 5.808594 15.574219 5.726562 15.574219 5.636719 L 15.574219 4.625 C 15.574219 4.53125 15.539062 4.445312 15.472656 4.382812 C 15.410156 4.316406 15.332031 4.285156 15.234375 4.285156 C 15.140625 4.285156 15.0625 4.316406 14.996094 4.382812 C 14.933594 4.445312 14.898438 4.53125 14.898438 4.625 L 14.226562 4.625 L 14.226562 1.929688 "/>
<path fill-rule="nonzero" fill="rgb(100%, 0%, 0%)" fill-opacity="1" d="M 12.261719 1.929688 L 13.199219 1.929688 L 13.199219 2.863281 L 12.261719 2.863281 L 12.261719 1.929688 "/>
</svg>
