<?xml version="1.0" encoding="UTF-8"?>
<svg xmlns="http://www.w3.org/2000/svg" xmlns:xlink="http://www.w3.org/1999/xlink" width="17.359549" height="15" viewBox="0 0 17.359549 15">
<path fill-rule="nonzero" fill="rgb(100%, 100%, 100%)" fill-opacity="1" stroke-width="12" stroke-linecap="butt" stroke-linejoin="miter" stroke="rgb(100%, 0%, 0%)" stroke-opacity="1" stroke-miterlimit="4" d="M 10.411426 6.022295 L 113.402884 183.986228 L 216.394343 6.022295 Z M 10.411426 6.022295 " transform="matrix(0.0765385, 0, 0, 0.0765385, 0, 0)"/>
<path fill-rule="nonzero" fill="rgb(100%, 0%, 0%)" fill-opacity="1" d="M 7.511719 1.957031 C 7.835938 1.632812 8.222656 1.46875 8.679688 1.46875 C 9.136719 1.46875 9.523438 1.632812 9.847656 1.957031 C 10.171875 2.28125 10.332031 2.667969 10.332031 3.125 C 10.332031 3.371094 10.285156 3.597656 10.1875 3.808594 L 8.261719 8.082031 L 10.332031 8.082031 L 10.332031 9.183594 L 7.027344 9.183594 L 7.027344 8.082031 L 9.097656 3.550781 C 9.1875 3.339844 9.230469 3.195312 9.230469 3.125 C 9.230469 2.972656 9.175781 2.839844 9.066406 2.734375 C 8.964844 2.625 8.835938 2.570312 8.679688 2.570312 C 8.527344 2.570312 8.394531 2.625 8.285156 2.734375 C 8.179688 2.839844 8.125 2.972656 8.125 3.125 L 7.027344 3.125 C 7.027344 2.667969 7.1875 2.28125 7.511719 1.957031 "/>
</svg>
