<?xml version="1.0" encoding="UTF-8"?>
<svg xmlns="http://www.w3.org/2000/svg" xmlns:xlink="http://www.w3.org/1999/xlink" width="21.988762" height="19" viewBox="0 0 21.988762 19">
<path fill-rule="nonzero" fill="rgb(100%, 100%, 100%)" fill-opacity="1" stroke-width="12" stroke-linecap="butt" stroke-linejoin="miter" stroke="rgb(100%, 0%, 0%)" stroke-opacity="1" stroke-miterlimit="4" d="M 10.395306 6.003491 L 113.421656 183.972747 L 216.407714 6.003491 Z M 10.395306 6.003491 " transform="matrix(0.0969488, 0, 0, 0.0969488, 0, 0)"/>
<path fill-rule="nonzero" fill="rgb(100%, 0%, 0%)" fill-opacity="1" d="M 11.152344 10.710938 C 10.757812 11.105469 10.285156 11.304688 9.722656 11.304688 C 9.167969 11.304688 8.691406 11.105469 8.296875 10.710938 C 7.902344 10.316406 7.703125 9.835938 7.703125 9.28125 L 7.703125 8.601562 L 9.046875 8.601562 L 9.046875 9.28125 C 9.046875 9.472656 9.109375 9.632812 9.242188 9.765625 C 9.375 9.890625 9.539062 9.953125 9.722656 9.953125 C 9.914062 9.953125 10.074219 9.890625 10.195312 9.765625 C 10.332031 9.632812 10.398438 9.472656 10.398438 9.28125 L 10.398438 7.8125 C 10.183594 7.894531 9.957031 7.929688 9.722656 7.929688 C 9.167969 7.929688 8.691406 7.734375 8.296875 7.339844 C 7.902344 6.941406 7.703125 6.464844 7.703125 5.910156 L 7.703125 3.886719 C 7.703125 3.328125 7.902344 2.851562 8.296875 2.453125 C 8.691406 2.054688 9.167969 1.859375 9.722656 1.859375 C 10.285156 1.859375 10.757812 2.054688 11.152344 2.453125 C 11.546875 2.851562 11.746094 3.328125 11.746094 3.886719 L 11.746094 9.28125 C 11.746094 9.835938 11.546875 10.316406 11.152344 10.710938 M 9.242188 6.390625 C 9.375 6.515625 9.539062 6.578125 9.722656 6.578125 C 9.914062 6.578125 10.074219 6.515625 10.195312 6.390625 C 10.332031 6.257812 10.398438 6.097656 10.398438 5.910156 L 10.398438 3.886719 C 10.398438 3.699219 10.332031 3.535156 10.195312 3.40625 C 10.074219 3.273438 9.914062 3.207031 9.722656 3.207031 C 9.539062 3.207031 9.375 3.273438 9.242188 3.40625 C 9.109375 3.535156 9.046875 3.699219 9.046875 3.886719 L 9.046875 5.910156 C 9.046875 6.097656 9.109375 6.257812 9.242188 6.390625 "/>
<path fill-rule="nonzero" fill="rgb(100%, 0%, 0%)" fill-opacity="1" d="M 14.242188 1.859375 L 16.117188 1.859375 L 16.117188 2.535156 L 14.917969 2.535156 L 14.917969 3.605469 C 15.027344 3.566406 15.136719 3.546875 15.253906 3.546875 C 15.53125 3.546875 15.773438 3.640625 15.96875 3.84375 C 16.167969 4.039062 16.265625 4.28125 16.265625 4.5625 L 16.265625 5.570312 C 16.265625 5.847656 16.167969 6.085938 15.96875 6.285156 C 15.773438 6.484375 15.53125 6.578125 15.253906 6.578125 C 14.976562 6.578125 14.742188 6.484375 14.539062 6.285156 C 14.34375 6.085938 14.242188 5.847656 14.242188 5.570312 L 14.242188 5.234375 L 14.917969 5.234375 L 14.917969 5.570312 C 14.917969 5.664062 14.953125 5.746094 15.015625 5.8125 C 15.082031 5.875 15.160156 5.902344 15.253906 5.902344 C 15.351562 5.902344 15.425781 5.875 15.492188 5.8125 C 15.558594 5.746094 15.59375 5.664062 15.59375 5.570312 L 15.59375 4.5625 C 15.59375 4.464844 15.558594 4.382812 15.492188 4.316406 C 15.425781 4.25 15.351562 4.21875 15.253906 4.21875 C 15.160156 4.21875 15.082031 4.25 15.015625 4.316406 C 14.953125 4.382812 14.917969 4.464844 14.917969 4.5625 L 14.242188 4.5625 L 14.242188 1.859375 "/>
<path fill-rule="nonzero" fill="rgb(100%, 0%, 0%)" fill-opacity="1" d="M 12.273438 1.859375 L 13.214844 1.859375 L 13.214844 2.796875 L 12.273438 2.796875 L 12.273438 1.859375 "/>
</svg>
