<?xml version="1.0" encoding="UTF-8"?>
<svg xmlns="http://www.w3.org/2000/svg" xmlns:xlink="http://www.w3.org/1999/xlink" width="17.359549" height="15" viewBox="0 0 17.359549 15">
<path fill-rule="nonzero" fill="rgb(100%, 100%, 100%)" fill-opacity="1" stroke-width="12" stroke-linecap="butt" stroke-linejoin="miter" stroke="rgb(100%, 0%, 0%)" stroke-opacity="1" stroke-miterlimit="4" d="M 10.411426 6.022295 L 113.402884 183.986228 L 216.394343 6.022295 Z M 10.411426 6.022295 " transform="matrix(0.0765385, 0, 0, 0.0765385, 0, 0)"/>
<path fill-rule="nonzero" fill="rgb(100%, 0%, 0%)" fill-opacity="1" d="M 7.027344 1.46875 L 10.089844 1.46875 L 10.089844 2.570312 L 8.125 2.570312 L 8.125 4.324219 C 8.300781 4.261719 8.484375 4.226562 8.679688 4.222656 C 9.136719 4.222656 9.523438 4.386719 9.847656 4.714844 C 10.171875 5.035156 10.332031 5.425781 10.332031 5.878906 L 10.332031 7.53125 C 10.332031 7.988281 10.171875 8.378906 9.847656 8.699219 C 9.523438 9.023438 9.136719 9.183594 8.679688 9.183594 C 8.222656 9.183594 7.835938 9.023438 7.511719 8.699219 C 7.1875 8.378906 7.027344 7.988281 7.027344 7.53125 L 7.027344 6.980469 L 8.125 6.980469 L 8.125 7.53125 C 8.125 7.6875 8.179688 7.816406 8.285156 7.925781 C 8.394531 8.03125 8.527344 8.082031 8.679688 8.082031 C 8.835938 8.082031 8.964844 8.03125 9.066406 7.925781 C 9.175781 7.816406 9.230469 7.6875 9.230469 7.53125 L 9.230469 5.878906 C 9.230469 5.726562 9.175781 5.59375 9.066406 5.488281 C 8.964844 5.378906 8.835938 5.328125 8.679688 5.328125 C 8.527344 5.328125 8.394531 5.378906 8.285156 5.488281 C 8.179688 5.59375 8.125 5.726562 8.125 5.878906 L 7.027344 5.878906 L 7.027344 1.46875 "/>
</svg>
