<?xml version="1.0" encoding="UTF-8"?>
<svg xmlns="http://www.w3.org/2000/svg" xmlns:xlink="http://www.w3.org/1999/xlink" width="21.988762" height="19" viewBox="0 0 21.988762 19">
<path fill-rule="nonzero" fill="rgb(100%, 100%, 100%)" fill-opacity="1" stroke-width="12" stroke-linecap="butt" stroke-linejoin="miter" stroke="rgb(100%, 0%, 0%)" stroke-opacity="1" stroke-miterlimit="4" d="M 10.39531 6.003493 L 113.421693 183.972807 L 216.407785 6.003493 Z M 10.39531 6.003493 " transform="matrix(0.0969488, 0, 0, 0.0969488, 0, 0)"/>
<path fill-rule="nonzero" fill="rgb(100%, 0%, 0%)" fill-opacity="1" d="M 8.1875 1.742188 L 9.355469 1.742188 L 9.355469 9.890625 L 8.1875 9.890625 L 8.1875 2.910156 L 7.03125 4.070312 L 7.03125 2.910156 L 8.1875 1.742188 "/>
<path fill-rule="nonzero" fill="rgb(100%, 0%, 0%)" fill-opacity="1" d="M 11.59375 2.261719 C 11.933594 1.914062 12.34375 1.742188 12.824219 1.742188 C 13.304688 1.742188 13.714844 1.914062 14.058594 2.261719 C 14.398438 2.601562 14.570312 3.011719 14.570312 3.492188 L 14.570312 8.144531 C 14.570312 8.625 14.398438 9.035156 14.058594 9.375 C 13.714844 9.71875 13.304688 9.890625 12.824219 9.890625 C 12.34375 9.890625 11.933594 9.71875 11.59375 9.375 C 11.25 9.035156 11.082031 8.625 11.082031 8.144531 L 11.082031 3.492188 C 11.082031 3.011719 11.25 2.601562 11.59375 2.261719 M 13.234375 3.078125 C 13.125 2.964844 12.988281 2.910156 12.824219 2.910156 C 12.660156 2.910156 12.523438 2.964844 12.410156 3.078125 C 12.296875 3.191406 12.242188 3.328125 12.242188 3.492188 L 12.242188 8.144531 C 12.242188 8.308594 12.296875 8.445312 12.410156 8.558594 C 12.523438 8.667969 12.660156 8.722656 12.824219 8.722656 C 12.988281 8.722656 13.125 8.667969 13.234375 8.558594 C 13.347656 8.445312 13.402344 8.308594 13.402344 8.144531 L 13.402344 3.492188 C 13.402344 3.328125 13.347656 3.191406 13.234375 3.078125 "/>
</svg>
