<?xml version="1.0" encoding="UTF-8"?>
<svg xmlns="http://www.w3.org/2000/svg" xmlns:xlink="http://www.w3.org/1999/xlink" width="21.988762" height="19" viewBox="0 0 21.988762 19">
<path fill-rule="nonzero" fill="rgb(100%, 100%, 100%)" fill-opacity="1" stroke-width="12" stroke-linecap="butt" stroke-linejoin="miter" stroke="rgb(100%, 0%, 0%)" stroke-opacity="1" stroke-miterlimit="4" d="M 10.395306 6.003491 L 113.421656 183.972747 L 216.407714 6.003491 Z M 10.395306 6.003491 " transform="matrix(0.0969488, 0, 0, 0.0969488, 0, 0)"/>
<path fill-rule="nonzero" fill="rgb(100%, 0%, 0%)" fill-opacity="1" d="M 8.496094 2.578125 C 8.882812 2.1875 9.347656 1.992188 9.894531 1.992188 C 10.445312 1.992188 10.914062 2.1875 11.300781 2.578125 C 11.6875 2.96875 11.878906 3.433594 11.878906 3.984375 L 11.878906 5.304688 C 11.878906 5.804688 11.714844 6.25 11.378906 6.625 C 11.714844 7.007812 11.878906 7.449219 11.878906 7.949219 L 11.878906 9.277344 C 11.878906 9.824219 11.6875 10.296875 11.300781 10.683594 C 10.914062 11.070312 10.445312 11.261719 9.894531 11.261719 C 9.347656 11.261719 8.882812 11.070312 8.496094 10.683594 C 8.109375 10.296875 7.910156 9.824219 7.910156 9.277344 L 7.910156 8.609375 L 9.230469 8.609375 L 9.230469 9.277344 C 9.230469 9.464844 9.292969 9.625 9.421875 9.753906 C 9.554688 9.875 9.710938 9.9375 9.894531 9.9375 C 10.082031 9.9375 10.238281 9.875 10.359375 9.753906 C 10.492188 9.625 10.554688 9.464844 10.554688 9.277344 L 10.554688 7.949219 C 10.554688 7.765625 10.492188 7.613281 10.359375 7.488281 C 10.238281 7.359375 10.082031 7.296875 9.894531 7.296875 L 9.894531 5.96875 C 10.082031 5.96875 10.238281 5.902344 10.359375 5.773438 C 10.492188 5.644531 10.554688 5.488281 10.554688 5.304688 L 10.554688 3.984375 C 10.554688 3.796875 10.492188 3.636719 10.359375 3.511719 C 10.238281 3.382812 10.082031 3.316406 9.894531 3.316406 C 9.710938 3.316406 9.554688 3.382812 9.421875 3.511719 C 9.292969 3.636719 9.230469 3.796875 9.230469 3.984375 L 9.230469 4.644531 L 7.910156 4.644531 L 7.910156 3.984375 C 7.910156 3.433594 8.109375 2.96875 8.496094 2.578125 "/>
<path fill-rule="nonzero" fill="rgb(100%, 0%, 0%)" fill-opacity="1" d="M 14.332031 1.992188 L 16.171875 1.992188 L 16.171875 2.65625 L 14.992188 2.65625 L 14.992188 3.707031 C 15.101562 3.667969 15.210938 3.648438 15.324219 3.648438 C 15.597656 3.648438 15.832031 3.742188 16.027344 3.941406 C 16.222656 4.132812 16.316406 4.371094 16.316406 4.644531 L 16.316406 5.636719 C 16.316406 5.90625 16.222656 6.140625 16.027344 6.335938 C 15.832031 6.53125 15.597656 6.625 15.324219 6.625 C 15.050781 6.625 14.820312 6.53125 14.621094 6.335938 C 14.429688 6.140625 14.332031 5.90625 14.332031 5.636719 L 14.332031 5.304688 L 14.992188 5.304688 L 14.992188 5.636719 C 14.992188 5.726562 15.027344 5.804688 15.089844 5.871094 C 15.15625 5.933594 15.230469 5.960938 15.324219 5.960938 C 15.417969 5.960938 15.496094 5.933594 15.558594 5.871094 C 15.621094 5.804688 15.65625 5.726562 15.65625 5.636719 L 15.65625 4.644531 C 15.65625 4.550781 15.621094 4.46875 15.558594 4.40625 C 15.496094 4.339844 15.417969 4.308594 15.324219 4.308594 C 15.230469 4.308594 15.15625 4.339844 15.089844 4.40625 C 15.027344 4.46875 14.992188 4.550781 14.992188 4.644531 L 14.332031 4.644531 L 14.332031 1.992188 "/>
<path fill-rule="nonzero" fill="rgb(100%, 0%, 0%)" fill-opacity="1" d="M 12.398438 1.992188 L 13.324219 1.992188 L 13.324219 2.910156 L 12.398438 2.910156 L 12.398438 1.992188 "/>
</svg>
