<?xml version="1.0" encoding="UTF-8"?>
<svg xmlns="http://www.w3.org/2000/svg" xmlns:xlink="http://www.w3.org/1999/xlink" width="21.988762" height="19" viewBox="0 0 21.988762 19">
<path fill-rule="nonzero" fill="rgb(100%, 100%, 100%)" fill-opacity="1" stroke-width="12" stroke-linecap="butt" stroke-linejoin="miter" stroke="rgb(100%, 0%, 0%)" stroke-opacity="1" stroke-miterlimit="4" d="M 10.395306 6.003491 L 113.421656 183.972747 L 216.407714 6.003491 Z M 10.395306 6.003491 " transform="matrix(0.0969488, 0, 0, 0.0969488, 0, 0)"/>
<path fill-rule="nonzero" fill="rgb(100%, 0%, 0%)" fill-opacity="1" d="M 8.03125 1.742188 L 9.191406 1.742188 L 9.191406 9.890625 L 8.03125 9.890625 L 8.03125 2.910156 L 6.867188 4.070312 L 6.867188 2.910156 L 8.03125 1.742188 "/>
<path fill-rule="nonzero" fill="rgb(100%, 0%, 0%)" fill-opacity="1" d="M 11.429688 2.261719 C 11.769531 1.914062 12.183594 1.742188 12.660156 1.742188 C 13.148438 1.742188 13.558594 1.914062 13.894531 2.261719 C 14.234375 2.601562 14.410156 3.011719 14.410156 3.492188 C 14.410156 3.75 14.355469 3.992188 14.253906 4.214844 L 12.222656 8.722656 L 14.410156 8.722656 L 14.410156 9.890625 L 10.921875 9.890625 L 10.921875 8.722656 L 13.105469 3.945312 C 13.199219 3.722656 13.246094 3.566406 13.242188 3.492188 C 13.242188 3.328125 13.1875 3.191406 13.074219 3.078125 C 12.964844 2.964844 12.824219 2.910156 12.660156 2.910156 C 12.5 2.910156 12.359375 2.964844 12.25 3.078125 C 12.136719 3.191406 12.078125 3.328125 12.078125 3.492188 L 10.921875 3.492188 C 10.921875 3.011719 11.089844 2.601562 11.429688 2.261719 "/>
</svg>
