<?xml version="1.0" encoding="UTF-8"?>
<svg xmlns="http://www.w3.org/2000/svg" xmlns:xlink="http://www.w3.org/1999/xlink" width="21.988762" height="19" viewBox="0 0 21.988762 19">
<path fill-rule="nonzero" fill="rgb(100%, 100%, 100%)" fill-opacity="1" stroke-width="12" stroke-linecap="butt" stroke-linejoin="miter" stroke="rgb(100%, 0%, 0%)" stroke-opacity="1" stroke-miterlimit="4" d="M 10.395306 6.003491 L 113.421656 183.972747 L 216.407714 6.003491 Z M 10.395306 6.003491 " transform="matrix(0.0969488, 0, 0, 0.0969488, 0, 0)"/>
<path fill-rule="nonzero" fill="rgb(100%, 0%, 0%)" fill-opacity="1" d="M 7.953125 3.804688 L 7.953125 1.949219 L 11.671875 1.949219 L 11.671875 3.179688 L 9.179688 10.65625 L 7.953125 10.65625 L 10.4375 3.179688 L 9.179688 3.179688 L 9.179688 3.804688 L 7.953125 3.804688 "/>
<path fill-rule="nonzero" fill="rgb(100%, 0%, 0%)" fill-opacity="1" d="M 14.269531 1.949219 L 16 1.949219 L 16 2.570312 L 14.890625 2.570312 L 14.890625 3.558594 C 14.992188 3.523438 15.097656 3.503906 15.207031 3.503906 C 15.464844 3.503906 15.683594 3.59375 15.867188 3.78125 C 16.046875 3.960938 16.140625 4.183594 16.140625 4.441406 L 16.140625 5.375 C 16.140625 5.628906 16.046875 5.847656 15.867188 6.03125 C 15.683594 6.214844 15.464844 6.304688 15.207031 6.304688 C 14.945312 6.304688 14.730469 6.214844 14.542969 6.03125 C 14.363281 5.847656 14.269531 5.628906 14.269531 5.375 L 14.269531 5.0625 L 14.890625 5.0625 L 14.890625 5.375 C 14.890625 5.460938 14.925781 5.535156 14.984375 5.59375 C 15.042969 5.652344 15.117188 5.679688 15.207031 5.679688 C 15.296875 5.679688 15.367188 5.652344 15.425781 5.59375 C 15.484375 5.535156 15.515625 5.460938 15.515625 5.375 L 15.515625 4.441406 C 15.515625 4.355469 15.484375 4.277344 15.425781 4.21875 C 15.367188 4.15625 15.296875 4.125 15.207031 4.125 C 15.117188 4.125 15.042969 4.15625 14.984375 4.21875 C 14.925781 4.277344 14.890625 4.355469 14.890625 4.441406 L 14.269531 4.441406 L 14.269531 1.949219 "/>
<path fill-rule="nonzero" fill="rgb(100%, 0%, 0%)" fill-opacity="1" d="M 12.542969 1.949219 L 13.40625 1.949219 L 13.40625 2.8125 L 12.542969 2.8125 L 12.542969 1.949219 "/>
</svg>
