<?xml version="1.0" encoding="UTF-8"?>
<svg xmlns="http://www.w3.org/2000/svg" xmlns:xlink="http://www.w3.org/1999/xlink" width="21.988762" height="19" viewBox="0 0 21.988762 19">
<path fill-rule="nonzero" fill="rgb(100%, 100%, 100%)" fill-opacity="1" stroke-width="12" stroke-linecap="butt" stroke-linejoin="miter" stroke="rgb(100%, 0%, 0%)" stroke-opacity="1" stroke-miterlimit="4" d="M 10.395306 6.003491 L 113.421656 183.972747 L 216.407714 6.003491 Z M 10.395306 6.003491 " transform="matrix(0.0969488, 0, 0, 0.0969488, 0, 0)"/>
<path fill-rule="nonzero" fill="rgb(100%, 0%, 0%)" fill-opacity="1" d="M 8.125 1.742188 L 9.292969 1.742188 L 9.292969 9.890625 L 8.125 9.890625 L 8.125 2.910156 L 6.964844 4.070312 L 6.964844 2.910156 L 8.125 1.742188 "/>
<path fill-rule="nonzero" fill="rgb(100%, 0%, 0%)" fill-opacity="1" d="M 11.527344 2.261719 C 11.871094 1.914062 12.28125 1.742188 12.761719 1.742188 C 13.246094 1.742188 13.65625 1.914062 13.992188 2.261719 C 14.335938 2.601562 14.507812 3.011719 14.507812 3.492188 L 14.507812 4.652344 C 14.507812 5.097656 14.359375 5.480469 14.0625 5.820312 C 14.359375 6.148438 14.507812 6.535156 14.507812 6.980469 L 14.507812 8.144531 C 14.507812 8.625 14.335938 9.035156 13.992188 9.375 C 13.65625 9.71875 13.246094 9.890625 12.761719 9.890625 C 12.28125 9.890625 11.871094 9.71875 11.527344 9.375 C 11.1875 9.035156 11.019531 8.625 11.019531 8.144531 L 11.019531 7.558594 L 12.175781 7.558594 L 12.175781 8.144531 C 12.175781 8.308594 12.234375 8.445312 12.351562 8.558594 C 12.457031 8.667969 12.597656 8.722656 12.761719 8.722656 C 12.925781 8.722656 13.0625 8.667969 13.171875 8.558594 C 13.285156 8.445312 13.339844 8.308594 13.339844 8.144531 L 13.339844 6.980469 C 13.339844 6.816406 13.285156 6.679688 13.171875 6.570312 C 13.0625 6.457031 12.925781 6.402344 12.761719 6.402344 L 12.761719 5.234375 C 12.925781 5.234375 13.0625 5.179688 13.171875 5.066406 C 13.285156 4.953125 13.339844 4.8125 13.339844 4.652344 L 13.339844 3.492188 C 13.339844 3.328125 13.285156 3.191406 13.171875 3.078125 C 13.0625 2.964844 12.925781 2.910156 12.761719 2.910156 C 12.597656 2.910156 12.457031 2.964844 12.351562 3.078125 C 12.234375 3.191406 12.175781 3.328125 12.175781 3.492188 L 12.175781 4.070312 L 11.019531 4.070312 L 11.019531 3.492188 C 11.019531 3.011719 11.1875 2.601562 11.527344 2.261719 "/>
</svg>
