<?xml version="1.0" encoding="UTF-8"?>
<svg xmlns="http://www.w3.org/2000/svg" xmlns:xlink="http://www.w3.org/1999/xlink" width="17.359549" height="15" viewBox="0 0 17.359549 15">
<path fill-rule="nonzero" fill="rgb(100%, 100%, 100%)" fill-opacity="1" stroke-width="12" stroke-linecap="butt" stroke-linejoin="miter" stroke="rgb(100%, 0%, 0%)" stroke-opacity="1" stroke-miterlimit="4" d="M 10.411426 6.022295 L 113.402884 183.986228 L 216.394343 6.022295 Z M 10.411426 6.022295 " transform="matrix(0.0765385, 0, 0, 0.0765385, 0, 0)"/>
<path fill-rule="nonzero" fill="rgb(100%, 0%, 0%)" fill-opacity="1" d="M 6.464844 1.375 L 7.386719 1.375 L 7.386719 7.808594 L 6.464844 7.808594 L 6.464844 2.296875 L 5.550781 3.214844 L 5.550781 2.296875 L 6.464844 1.375 "/>
<path fill-rule="nonzero" fill="rgb(100%, 0%, 0%)" fill-opacity="1" d="M 9.433594 1.375 L 10.355469 1.375 L 9.433594 5.96875 L 10.125 5.96875 L 10.125 4.59375 L 11.042969 4.59375 L 11.042969 5.96875 L 11.273438 5.96875 L 11.273438 6.886719 L 11.042969 6.886719 L 11.042969 7.808594 L 10.125 7.808594 L 10.125 6.886719 L 8.515625 6.886719 L 8.515625 5.96875 L 9.433594 1.375 "/>
</svg>
