<?xml version="1.0" encoding="UTF-8"?>
<svg xmlns="http://www.w3.org/2000/svg" xmlns:xlink="http://www.w3.org/1999/xlink" width="21.988762" height="19" viewBox="0 0 21.988762 19">
<path fill-rule="nonzero" fill="rgb(100%, 100%, 100%)" fill-opacity="1" stroke-width="12" stroke-linecap="butt" stroke-linejoin="miter" stroke="rgb(100%, 0%, 0%)" stroke-opacity="1" stroke-miterlimit="4" d="M 10.395306 6.003491 L 113.421656 183.972747 L 216.407714 6.003491 Z M 10.395306 6.003491 " transform="matrix(0.0969488, 0, 0, 0.0969488, 0, 0)"/>
<path fill-rule="nonzero" fill="rgb(100%, 0%, 0%)" fill-opacity="1" d="M 9 2.125 L 10.316406 2.125 L 9 8.710938 L 9.992188 8.710938 L 9.992188 6.734375 L 11.308594 6.734375 L 11.308594 8.710938 L 11.636719 8.710938 L 11.636719 10.03125 L 11.308594 10.03125 L 11.308594 11.347656 L 9.992188 11.347656 L 9.992188 10.03125 L 7.679688 10.03125 L 7.679688 8.710938 L 9 2.125 "/>
<path fill-rule="nonzero" fill="rgb(100%, 0%, 0%)" fill-opacity="1" d="M 14.046875 2.125 L 15.875 2.125 L 15.875 2.785156 L 14.699219 2.785156 L 14.699219 3.832031 C 14.804688 3.792969 14.914062 3.773438 15.03125 3.773438 C 15.304688 3.773438 15.539062 3.867188 15.730469 4.066406 C 15.925781 4.253906 16.019531 4.492188 16.019531 4.765625 L 16.019531 5.75 C 16.019531 6.019531 15.925781 6.253906 15.730469 6.445312 C 15.539062 6.640625 15.304688 6.734375 15.03125 6.734375 C 14.761719 6.734375 14.527344 6.640625 14.335938 6.445312 C 14.140625 6.253906 14.046875 6.019531 14.046875 5.75 L 14.046875 5.421875 L 14.699219 5.421875 L 14.699219 5.75 C 14.699219 5.839844 14.730469 5.921875 14.796875 5.984375 C 14.859375 6.046875 14.941406 6.074219 15.03125 6.074219 C 15.125 6.074219 15.203125 6.046875 15.265625 5.984375 C 15.328125 5.921875 15.359375 5.839844 15.359375 5.75 L 15.359375 4.765625 C 15.359375 4.671875 15.328125 4.589844 15.265625 4.527344 C 15.203125 4.460938 15.125 4.429688 15.03125 4.429688 C 14.941406 4.429688 14.859375 4.460938 14.796875 4.527344 C 14.730469 4.589844 14.699219 4.671875 14.699219 4.765625 L 14.046875 4.765625 L 14.046875 2.125 "/>
<path fill-rule="nonzero" fill="rgb(100%, 0%, 0%)" fill-opacity="1" d="M 12.125 2.125 L 13.035156 2.125 L 13.035156 3.039062 L 12.125 3.039062 L 12.125 2.125 "/>
</svg>
