<?xml version="1.0" encoding="UTF-8"?>
<svg xmlns="http://www.w3.org/2000/svg" xmlns:xlink="http://www.w3.org/1999/xlink" width="21.988762" height="19" viewBox="0 0 21.988762 19">
<path fill-rule="nonzero" fill="rgb(100%, 100%, 100%)" fill-opacity="1" stroke-width="12" stroke-linecap="butt" stroke-linejoin="miter" stroke="rgb(100%, 0%, 0%)" stroke-opacity="1" stroke-miterlimit="4" d="M 10.39531 6.003493 L 113.421693 183.972807 L 216.407785 6.003493 Z M 10.39531 6.003493 " transform="matrix(0.0969488, 0, 0, 0.0969488, 0, 0)"/>
<path fill-rule="nonzero" fill="rgb(100%, 0%, 0%)" fill-opacity="1" d="M 8.1875 1.742188 L 9.355469 1.742188 L 9.355469 9.890625 L 8.1875 9.890625 L 8.1875 2.910156 L 7.03125 4.070312 L 7.03125 2.910156 L 8.1875 1.742188 "/>
<path fill-rule="nonzero" fill="rgb(100%, 0%, 0%)" fill-opacity="1" d="M 11.949219 1.742188 L 13.117188 1.742188 L 11.949219 7.558594 L 12.824219 7.558594 L 12.824219 5.820312 L 13.988281 5.820312 L 13.988281 7.558594 L 14.28125 7.558594 L 14.28125 8.722656 L 13.988281 8.722656 L 13.988281 9.890625 L 12.824219 9.890625 L 12.824219 8.722656 L 10.785156 8.722656 L 10.785156 7.558594 L 11.949219 1.742188 "/>
</svg>
