<?xml version="1.0" encoding="UTF-8"?>
<svg xmlns="http://www.w3.org/2000/svg" xmlns:xlink="http://www.w3.org/1999/xlink" width="17.359549" height="15" viewBox="0 0 17.359549 15">
<path fill-rule="nonzero" fill="rgb(100%, 100%, 100%)" fill-opacity="1" stroke-width="12" stroke-linecap="butt" stroke-linejoin="miter" stroke="rgb(100%, 0%, 0%)" stroke-opacity="1" stroke-miterlimit="4" d="M 10.411426 6.022295 L 113.402884 183.986228 L 216.394343 6.022295 Z M 10.411426 6.022295 " transform="matrix(0.0765385, 0, 0, 0.0765385, 0, 0)"/>
<path fill-rule="nonzero" fill="rgb(100%, 0%, 0%)" fill-opacity="1" d="M 6.339844 1.375 L 7.257812 1.375 L 7.257812 7.808594 L 6.339844 7.808594 L 6.339844 2.296875 L 5.421875 3.214844 L 5.421875 2.296875 L 6.339844 1.375 "/>
<path fill-rule="nonzero" fill="rgb(100%, 0%, 0%)" fill-opacity="1" d="M 9.023438 1.785156 C 9.292969 1.511719 9.617188 1.375 9.996094 1.375 C 10.378906 1.375 10.703125 1.511719 10.96875 1.785156 C 11.238281 2.054688 11.375 2.378906 11.375 2.757812 C 11.375 2.960938 11.332031 3.152344 11.253906 3.328125 L 9.648438 6.886719 L 11.375 6.886719 L 11.375 7.808594 L 8.621094 7.808594 L 8.621094 6.886719 L 10.347656 3.113281 C 10.421875 2.9375 10.457031 2.816406 10.453125 2.757812 C 10.453125 2.628906 10.410156 2.519531 10.320312 2.429688 C 10.234375 2.339844 10.125 2.296875 9.996094 2.296875 C 9.867188 2.296875 9.757812 2.339844 9.671875 2.429688 C 9.582031 2.519531 9.535156 2.628906 9.535156 2.757812 L 8.621094 2.757812 C 8.621094 2.378906 8.753906 2.054688 9.023438 1.785156 "/>
</svg>
