<?xml version="1.0" encoding="UTF-8"?>
<svg xmlns="http://www.w3.org/2000/svg" xmlns:xlink="http://www.w3.org/1999/xlink" width="17.359549" height="15" viewBox="0 0 17.359549 15">
<path fill-rule="nonzero" fill="rgb(100%, 100%, 100%)" fill-opacity="1" stroke-width="12" stroke-linecap="butt" stroke-linejoin="miter" stroke="rgb(100%, 0%, 0%)" stroke-opacity="1" stroke-miterlimit="4" d="M 10.411426 6.022295 L 113.402884 183.986228 L 216.394343 6.022295 Z M 10.411426 6.022295 " transform="matrix(0.0765385, 0, 0, 0.0765385, 0, 0)"/>
<path fill-rule="nonzero" fill="rgb(100%, 0%, 0%)" fill-opacity="1" d="M 6.414062 1.375 L 7.335938 1.375 L 7.335938 7.808594 L 6.414062 7.808594 L 6.414062 2.296875 L 5.5 3.214844 L 5.5 2.296875 L 6.414062 1.375 "/>
<path fill-rule="nonzero" fill="rgb(100%, 0%, 0%)" fill-opacity="1" d="M 9.101562 1.785156 C 9.371094 1.511719 9.695312 1.375 10.074219 1.375 C 10.457031 1.375 10.78125 1.511719 11.046875 1.785156 C 11.316406 2.054688 11.453125 2.378906 11.453125 2.757812 L 11.453125 3.671875 C 11.453125 4.023438 11.335938 4.328125 11.101562 4.59375 C 11.335938 4.855469 11.453125 5.160156 11.453125 5.511719 L 11.453125 6.429688 C 11.453125 6.808594 11.316406 7.132812 11.046875 7.402344 C 10.78125 7.671875 10.457031 7.808594 10.074219 7.808594 C 9.695312 7.808594 9.371094 7.671875 9.101562 7.402344 C 8.832031 7.132812 8.699219 6.808594 8.699219 6.429688 L 8.699219 5.96875 L 9.613281 5.96875 L 9.613281 6.429688 C 9.613281 6.558594 9.660156 6.667969 9.75 6.757812 C 9.835938 6.84375 9.945312 6.886719 10.074219 6.886719 C 10.203125 6.886719 10.3125 6.84375 10.398438 6.757812 C 10.488281 6.667969 10.53125 6.558594 10.53125 6.429688 L 10.53125 5.511719 C 10.53125 5.382812 10.488281 5.273438 10.398438 5.1875 C 10.3125 5.097656 10.203125 5.054688 10.074219 5.054688 L 10.074219 4.132812 C 10.203125 4.132812 10.3125 4.089844 10.398438 4 C 10.488281 3.910156 10.53125 3.800781 10.53125 3.671875 L 10.53125 2.757812 C 10.53125 2.628906 10.488281 2.519531 10.398438 2.429688 C 10.3125 2.339844 10.203125 2.296875 10.074219 2.296875 C 9.945312 2.296875 9.835938 2.339844 9.75 2.429688 C 9.660156 2.519531 9.613281 2.628906 9.613281 2.757812 L 9.613281 3.214844 L 8.699219 3.214844 L 8.699219 2.757812 C 8.699219 2.378906 8.832031 2.054688 9.101562 1.785156 "/>
</svg>
