<?xml version="1.0" encoding="UTF-8"?>
<svg xmlns="http://www.w3.org/2000/svg" xmlns:xlink="http://www.w3.org/1999/xlink" width="21.988762" height="19" viewBox="0 0 21.988762 19">
<path fill-rule="nonzero" fill="rgb(100%, 100%, 100%)" fill-opacity="1" stroke-width="12" stroke-linecap="butt" stroke-linejoin="miter" stroke="rgb(100%, 0%, 0%)" stroke-opacity="1" stroke-miterlimit="4" d="M 10.39531 6.003493 L 113.421693 183.972807 L 216.407785 6.003493 Z M 10.39531 6.003493 " transform="matrix(0.0969488, 0, 0, 0.0969488, 0, 0)"/>
<path fill-rule="nonzero" fill="rgb(100%, 0%, 0%)" fill-opacity="1" d="M 8.902344 1.859375 L 12.78125 1.859375 L 12.78125 3.253906 L 10.292969 3.253906 L 10.292969 5.476562 C 10.515625 5.398438 10.746094 5.355469 10.996094 5.347656 C 11.574219 5.347656 12.0625 5.554688 12.472656 5.972656 C 12.882812 6.378906 13.085938 6.871094 13.085938 7.445312 L 13.085938 9.539062 C 13.085938 10.117188 12.882812 10.613281 12.472656 11.019531 C 12.0625 11.429688 11.574219 11.632812 10.996094 11.632812 C 10.414062 11.632812 9.925781 11.429688 9.515625 11.019531 C 9.105469 10.613281 8.902344 10.117188 8.902344 9.539062 L 8.902344 8.84375 L 10.292969 8.84375 L 10.292969 9.539062 C 10.292969 9.738281 10.359375 9.902344 10.496094 10.039062 C 10.632812 10.171875 10.800781 10.238281 10.996094 10.238281 C 11.191406 10.238281 11.355469 10.171875 11.484375 10.039062 C 11.621094 9.902344 11.691406 9.738281 11.691406 9.539062 L 11.691406 7.445312 C 11.691406 7.253906 11.621094 7.085938 11.484375 6.953125 C 11.355469 6.8125 11.191406 6.75 10.996094 6.75 C 10.800781 6.75 10.632812 6.8125 10.496094 6.953125 C 10.359375 7.085938 10.292969 7.253906 10.292969 7.445312 L 8.902344 7.445312 L 8.902344 1.859375 "/>
</svg>
