<?xml version="1.0" encoding="UTF-8"?>
<svg xmlns="http://www.w3.org/2000/svg" xmlns:xlink="http://www.w3.org/1999/xlink" width="21.988762" height="19" viewBox="0 0 21.988762 19">
<path fill-rule="nonzero" fill="rgb(100%, 100%, 100%)" fill-opacity="1" stroke-width="12" stroke-linecap="butt" stroke-linejoin="miter" stroke="rgb(100%, 0%, 0%)" stroke-opacity="1" stroke-miterlimit="4" d="M 10.395306 6.003491 L 113.421656 183.972747 L 216.407714 6.003491 Z M 10.395306 6.003491 " transform="matrix(0.0969488, 0, 0, 0.0969488, 0, 0)"/>
<path fill-rule="nonzero" fill="rgb(100%, 0%, 0%)" fill-opacity="1" d="M 7.703125 1.96875 L 11.398438 1.96875 L 11.398438 3.300781 L 9.027344 3.300781 L 9.027344 5.421875 C 9.238281 5.339844 9.460938 5.300781 9.695312 5.296875 C 10.246094 5.296875 10.714844 5.492188 11.109375 5.886719 C 11.496094 6.273438 11.6875 6.746094 11.6875 7.300781 L 11.6875 9.289062 C 11.6875 9.839844 11.496094 10.3125 11.109375 10.699219 C 10.714844 11.089844 10.246094 11.285156 9.695312 11.285156 C 9.148438 11.285156 8.675781 11.089844 8.285156 10.699219 C 7.894531 10.3125 7.703125 9.839844 7.703125 9.289062 L 7.703125 8.621094 L 9.027344 8.621094 L 9.027344 9.289062 C 9.027344 9.476562 9.09375 9.636719 9.222656 9.765625 C 9.351562 9.890625 9.511719 9.953125 9.695312 9.953125 C 9.882812 9.953125 10.039062 9.890625 10.164062 9.765625 C 10.292969 9.636719 10.359375 9.476562 10.359375 9.289062 L 10.359375 7.300781 C 10.359375 7.109375 10.292969 6.953125 10.164062 6.824219 C 10.039062 6.695312 9.882812 6.625 9.695312 6.625 C 9.511719 6.625 9.351562 6.695312 9.222656 6.824219 C 9.09375 6.953125 9.027344 7.109375 9.027344 7.300781 L 7.703125 7.300781 L 7.703125 1.96875 "/>
<path fill-rule="nonzero" fill="rgb(100%, 0%, 0%)" fill-opacity="1" d="M 14.335938 1.96875 L 16.183594 1.96875 L 16.183594 2.636719 L 15 2.636719 L 15 3.691406 C 15.105469 3.65625 15.214844 3.632812 15.332031 3.632812 C 15.609375 3.632812 15.84375 3.726562 16.035156 3.929688 C 16.234375 4.121094 16.332031 4.359375 16.332031 4.632812 L 16.332031 5.632812 C 16.332031 5.902344 16.234375 6.140625 16.035156 6.332031 C 15.84375 6.53125 15.609375 6.625 15.332031 6.625 C 15.058594 6.625 14.824219 6.53125 14.628906 6.332031 C 14.433594 6.140625 14.335938 5.902344 14.335938 5.632812 L 14.335938 5.296875 L 15 5.296875 L 15 5.632812 C 15 5.722656 15.027344 5.800781 15.097656 5.867188 C 15.164062 5.929688 15.238281 5.957031 15.332031 5.957031 C 15.421875 5.957031 15.503906 5.929688 15.566406 5.867188 C 15.632812 5.800781 15.664062 5.722656 15.664062 5.632812 L 15.664062 4.632812 C 15.664062 4.539062 15.632812 4.457031 15.566406 4.394531 C 15.503906 4.328125 15.421875 4.296875 15.332031 4.296875 C 15.238281 4.296875 15.164062 4.328125 15.097656 4.394531 C 15.027344 4.457031 15 4.539062 15 4.632812 L 14.335938 4.632812 L 14.335938 1.96875 "/>
<path fill-rule="nonzero" fill="rgb(100%, 0%, 0%)" fill-opacity="1" d="M 12.421875 1.96875 L 13.347656 1.96875 L 13.347656 2.894531 L 12.421875 2.894531 L 12.421875 1.96875 "/>
</svg>
