<?xml version="1.0" encoding="UTF-8"?>
<svg xmlns="http://www.w3.org/2000/svg" xmlns:xlink="http://www.w3.org/1999/xlink" width="21.988762" height="19" viewBox="0 0 21.988762 19">
<path fill-rule="nonzero" fill="rgb(100%, 100%, 100%)" fill-opacity="1" stroke-width="12" stroke-linecap="butt" stroke-linejoin="miter" stroke="rgb(100%, 0%, 0%)" stroke-opacity="1" stroke-miterlimit="4" d="M 10.395306 6.003491 L 113.421656 183.972747 L 216.407714 6.003491 Z M 10.395306 6.003491 " transform="matrix(0.0969488, 0, 0, 0.0969488, 0, 0)"/>
<path fill-rule="nonzero" fill="rgb(100%, 0%, 0%)" fill-opacity="1" d="M 8.800781 2.25 C 9.1875 1.859375 9.652344 1.667969 10.199219 1.667969 C 10.746094 1.667969 11.210938 1.859375 11.597656 2.25 C 11.984375 2.640625 12.179688 3.105469 12.179688 3.65625 C 12.179688 3.945312 12.125 4.222656 12.007812 4.476562 L 9.695312 9.597656 L 12.179688 9.597656 L 12.179688 10.917969 L 8.21875 10.917969 L 8.21875 9.597656 L 10.703125 4.164062 C 10.808594 3.90625 10.859375 3.738281 10.855469 3.65625 C 10.855469 3.46875 10.796875 3.308594 10.660156 3.183594 C 10.539062 3.054688 10.382812 2.988281 10.199219 2.988281 C 10.015625 2.988281 9.855469 3.054688 9.726562 3.183594 C 9.597656 3.308594 9.535156 3.46875 9.535156 3.65625 L 8.21875 3.65625 C 8.21875 3.105469 8.414062 2.640625 8.800781 2.25 "/>
<path fill-rule="nonzero" fill="rgb(100%, 0%, 0%)" fill-opacity="1" d="M 14.625 1.667969 L 16.460938 1.667969 L 16.460938 2.328125 L 15.285156 2.328125 L 15.285156 3.378906 C 15.390625 3.339844 15.503906 3.320312 15.617188 3.320312 C 15.886719 3.320312 16.125 3.414062 16.316406 3.613281 C 16.511719 3.804688 16.605469 4.042969 16.605469 4.3125 L 16.605469 5.304688 C 16.605469 5.574219 16.511719 5.808594 16.316406 6 C 16.125 6.199219 15.886719 6.292969 15.617188 6.292969 C 15.34375 6.292969 15.113281 6.199219 14.914062 6 C 14.722656 5.808594 14.625 5.574219 14.625 5.304688 L 14.625 4.972656 L 15.285156 4.972656 L 15.285156 5.304688 C 15.285156 5.394531 15.320312 5.472656 15.382812 5.539062 C 15.445312 5.601562 15.523438 5.628906 15.617188 5.628906 C 15.710938 5.628906 15.785156 5.601562 15.847656 5.539062 C 15.914062 5.472656 15.949219 5.394531 15.949219 5.304688 L 15.949219 4.3125 C 15.949219 4.222656 15.914062 4.136719 15.847656 4.074219 C 15.785156 4.011719 15.710938 3.980469 15.617188 3.980469 C 15.523438 3.980469 15.445312 4.011719 15.382812 4.074219 C 15.320312 4.136719 15.285156 4.222656 15.285156 4.3125 L 14.625 4.3125 L 14.625 1.667969 "/>
<path fill-rule="nonzero" fill="rgb(100%, 0%, 0%)" fill-opacity="1" d="M 12.695312 1.667969 L 13.617188 1.667969 L 13.617188 2.585938 L 12.695312 2.585938 L 12.695312 1.667969 "/>
</svg>
