<?xml version="1.0" encoding="UTF-8"?>
<svg xmlns="http://www.w3.org/2000/svg" xmlns:xlink="http://www.w3.org/1999/xlink" width="22.254094" height="19" viewBox="0 0 22.254094 19">
<path fill-rule="nonzero" fill="rgb(100%, 84.705883%, 8.235294%)" fill-opacity="1" stroke-width="22.5" stroke-linecap="butt" stroke-linejoin="miter" stroke="rgb(100%, 100%, 100%)" stroke-opacity="1" stroke-miterlimit="4" d="M 164.736278 -115.128243 C 71.761771 -115.019245 -19.250789 -115.673228 -106.611947 -115.891222 C -63.503603 -39.920259 -15.708384 39.429613 27.454459 115.509574 Z M 164.736278 -115.128243 " transform="matrix(0.0716762, 0, 0, 0.0716762, 9.028262, 9.119146)"/>
<path fill="none" stroke-width="8.040658" stroke-linecap="butt" stroke-linejoin="miter" stroke="rgb(0%, 0%, 0%)" stroke-opacity="1" stroke-miterlimit="4" d="M 165.444759 -115.782225 C 71.979765 -115.564231 -19.468783 -116.272712 -107.320428 -116.545205 C -63.99409 -40.083755 -15.926378 39.647608 27.454459 116.054559 Z M 165.444759 -115.782225 " transform="matrix(0.0716762, 0, 0, 0.0716762, 9.028262, 9.119146)"/>
<path fill-rule="nonzero" fill="rgb(0%, 0%, 0%)" fill-opacity="1" d="M 9.03125 3.097656 L 9.03125 3.101562 L 9.023438 3.101562 L 9.023438 4.195312 L 9.03125 4.195312 L 9.03125 7.554688 L 10.125 7.554688 L 10.125 7.519531 C 10.253906 7.074219 10.65625 6.769531 11.121094 6.769531 C 11.675781 6.769531 12.136719 7.210938 12.160156 7.761719 L 12.152344 9.273438 C 12.101562 9.816406 11.683594 10.238281 11.136719 10.238281 C 10.589844 10.238281 10.132812 9.816406 10.089844 9.273438 L 9.03125 9.273438 C 9.039062 10.429688 9.980469 11.367188 11.136719 11.367188 C 12.289062 11.367188 13.226562 10.433594 13.242188 9.289062 L 13.242188 7.761719 C 13.246094 7.714844 13.246094 7.664062 13.246094 7.621094 C 13.246094 6.546875 12.375 5.675781 11.300781 5.675781 C 10.859375 5.675781 10.449219 5.824219 10.125 6.074219 L 10.125 4.195312 L 13.078125 4.195312 L 13.078125 3.101562 L 10.125 3.101562 L 10.125 3.097656 Z M 9.03125 3.097656 "/>
</svg>
