<?xml version="1.0" encoding="UTF-8"?>
<svg xmlns="http://www.w3.org/2000/svg" xmlns:xlink="http://www.w3.org/1999/xlink" width="22.254094" height="19" viewBox="0 0 22.254094 19">
<path fill-rule="nonzero" fill="rgb(100%, 84.705883%, 8.235294%)" fill-opacity="1" stroke-width="22.5" stroke-linecap="butt" stroke-linejoin="miter" stroke="rgb(100%, 100%, 100%)" stroke-opacity="1" stroke-miterlimit="4" d="M 164.736278 -115.128243 C 71.761771 -115.019245 -19.250789 -115.673228 -106.611947 -115.891222 C -63.503603 -39.920259 -15.708384 39.429613 27.454459 115.509574 Z M 164.736278 -115.128243 " transform="matrix(0.0716762, 0, 0, 0.0716762, 9.028262, 9.119146)"/>
<path fill="none" stroke-width="8.040658" stroke-linecap="butt" stroke-linejoin="miter" stroke="rgb(0%, 0%, 0%)" stroke-opacity="1" stroke-miterlimit="4" d="M 165.444759 -115.782225 C 71.979765 -115.564231 -19.468783 -116.272712 -107.320428 -116.545205 C -63.99409 -40.083755 -15.926378 39.647608 27.454459 116.054559 Z M 165.444759 -115.782225 " transform="matrix(0.0716762, 0, 0, 0.0716762, 9.028262, 9.119146)"/>
<path fill-rule="nonzero" fill="rgb(0%, 0%, 0%)" fill-opacity="1" d="M 11.074219 3.054688 C 10.070312 3.054688 9.066406 4.003906 9.066406 4.910156 L 9.066406 9.785156 C 9.066406 10.394531 9.667969 11.367188 11.039062 11.367188 C 12.148438 11.367188 13.007812 10.464844 13.007812 9.785156 L 13.007812 7.464844 C 13.007812 5.824219 11.078125 5.789062 10.402344 6.023438 L 10.402344 4.792969 C 10.402344 4.140625 11.886719 4.160156 11.886719 4.792969 L 13.082031 4.792969 C 13.082031 4.003906 12.078125 3.054688 11.074219 3.054688 Z M 11 7.140625 C 11.339844 7.125 11.707031 7.285156 11.707031 7.601562 L 11.707031 9.488281 C 11.707031 10.320312 10.410156 10.371094 10.410156 9.488281 L 10.410156 7.585938 C 10.410156 7.296875 10.699219 7.148438 11 7.140625 Z M 11 7.140625 "/>
</svg>
