<?xml version="1.0" encoding="UTF-8"?>
<svg xmlns="http://www.w3.org/2000/svg" xmlns:xlink="http://www.w3.org/1999/xlink" width="22.27109" height="19" viewBox="0 0 22.27109 19">
<path fill-rule="nonzero" fill="rgb(95.294118%, 57.254905%, 0%)" fill-opacity="1" stroke-width="0.5" stroke-linecap="butt" stroke-linejoin="miter" stroke="rgb(100%, 100%, 100%)" stroke-opacity="1" stroke-miterlimit="4" d="M 19.997091 0.392948 C 13.331394 0.400158 6.806293 0.353293 0.544359 0.335268 C 3.637473 5.782465 7.06225 11.467594 10.155364 16.922002 Z M 19.997091 0.392948 " transform="matrix(1.083556, 0, 0, 1.083556, 0, 0)"/>
<path fill="none" stroke-width="0.576324" stroke-linecap="butt" stroke-linejoin="miter" stroke="rgb(0%, 0%, 0%)" stroke-opacity="1" stroke-miterlimit="4" d="M 20.047561 0.346083 C 13.345814 0.360503 6.791873 0.310032 0.493889 0.288402 C 3.601423 5.77165 7.04783 11.485619 10.155364 16.961657 Z M 20.047561 0.346083 " transform="matrix(1.083556, 0, 0, 1.083556, 0, 0)"/>
<path fill-rule="nonzero" fill="rgb(100%, 100%, 100%)" fill-opacity="1" stroke-width="0.422866" stroke-linecap="butt" stroke-linejoin="bevel" stroke="rgb(0%, 0%, 0%)" stroke-opacity="1" stroke-miterlimit="3" d="M 16.247862 4.095312 C 16.247862 5.515693 13.572931 6.665697 10.27433 6.665697 C 6.975729 6.665697 4.304404 5.515693 4.304404 4.095312 C 4.304404 2.678536 6.975729 1.528532 10.27433 1.528532 C 13.572931 1.528532 16.247862 2.678536 16.247862 4.095312 Z M 16.247862 4.095312 " transform="matrix(1.083556, 0, 0, 1.083556, 0, 0)"/>
<path fill-rule="nonzero" fill="rgb(95.294118%, 92.54902%, 43.137255%)" fill-opacity="1" stroke-width="0.3" stroke-linecap="butt" stroke-linejoin="bevel" stroke="rgb(0%, 0%, 0%)" stroke-opacity="1" stroke-miterlimit="3" d="M 12.646438 4.095312 C 12.646438 5.407542 11.58656 6.46742 10.27433 6.46742 C 8.965705 6.46742 7.902222 5.407542 7.902222 4.095312 C 7.902222 2.786687 8.965705 1.723203 10.27433 1.723203 C 11.58656 1.723203 12.646438 2.786687 12.646438 4.095312 Z M 12.646438 4.095312 " transform="matrix(1.083556, 0, 0, 1.083556, 0, 0)"/>
</svg>
