<?xml version="1.0" encoding="UTF-8"?>
<svg xmlns="http://www.w3.org/2000/svg" xmlns:xlink="http://www.w3.org/1999/xlink" width="15" height="15" viewBox="0 0 15 15">
<path fill="none" stroke-width="1" stroke-linecap="butt" stroke-linejoin="miter" stroke="rgb(0%, 0%, 0%)" stroke-opacity="1" stroke-miterlimit="4" d="M 8.207107 0.705298 L 0.705298 8.207107 L 8.207107 15.708915 L 15.708915 8.207107 Z M 8.207107 0.705298 " transform="matrix(0.913842, 0, 0, 0.913842, 0, 0)"/>
<path fill-rule="nonzero" fill="rgb(100%, 100%, 100%)" fill-opacity="1" d="M 7.5 0.644531 L 0.644531 7.5 L 7.5 14.355469 L 14.355469 7.5 Z M 7.5 0.644531 "/>
<path fill-rule="nonzero" fill="rgb(0%, 0%, 0%)" fill-opacity="1" d="M 4.074219 4.074219 L 10.925781 4.074219 L 10.925781 10.925781 L 4.074219 10.925781 Z M 4.074219 4.074219 "/>
<path fill-rule="nonzero" fill="rgb(98.823529%, 25.490196%, 0%)" fill-opacity="1" d="M 9.550781 7.5 C 9.550781 8.632812 8.632812 9.550781 7.5 9.550781 C 6.367188 9.550781 5.449219 8.632812 5.449219 7.5 C 5.449219 6.367188 6.367188 5.449219 7.5 5.449219 C 8.632812 5.449219 9.550781 6.367188 9.550781 7.5 Z M 9.550781 7.5 "/>
</svg>
