<?xml version="1.0" encoding="UTF-8"?>
<svg xmlns="http://www.w3.org/2000/svg" xmlns:xlink="http://www.w3.org/1999/xlink" width="7.936676" height="20" viewBox="0 0 7.936676 20">
<path fill-rule="nonzero" fill="rgb(0%, 0%, 0%)" fill-opacity="1" stroke-width="2" stroke-linecap="butt" stroke-linejoin="bevel" stroke="rgb(95.294118%, 57.254902%, 0%)" stroke-opacity="1" stroke-miterlimit="3" d="M 1.004875 1.004875 L 22.198611 1.004875 L 22.198611 57.460602 L 1.004875 57.460602 Z M 1.004875 1.004875 " transform="matrix(0.342082, 0, 0, 0.342082, 0, 0)"/>
<path fill-rule="nonzero" fill="rgb(95.294118%, 57.254902%, 0%)" fill-opacity="1" d="M 5.78125 10 C 5.78125 11 4.96875 11.8125 3.96875 11.8125 C 2.96875 11.8125 2.15625 11 2.15625 10 C 2.15625 9 2.96875 8.1875 3.96875 8.1875 C 4.96875 8.1875 5.78125 9 5.78125 10 Z M 5.78125 10 "/>
<path fill-rule="nonzero" fill="rgb(95.294118%, 57.254902%, 0%)" fill-opacity="1" d="M 5.78125 4.460938 C 5.78125 5.460938 4.96875 6.273438 3.96875 6.273438 C 2.96875 6.273438 2.15625 5.460938 2.15625 4.460938 C 2.15625 3.460938 2.96875 2.648438 3.96875 2.648438 C 4.96875 2.648438 5.78125 3.460938 5.78125 4.460938 Z M 5.78125 4.460938 "/>
<path fill-rule="nonzero" fill="rgb(95.294118%, 57.254902%, 0%)" fill-opacity="1" d="M 5.78125 15.539062 C 5.78125 16.539062 4.96875 17.351562 3.96875 17.351562 C 2.96875 17.351562 2.15625 16.539062 2.15625 15.539062 C 2.15625 14.539062 2.96875 13.726562 3.96875 13.726562 C 4.96875 13.726562 5.78125 14.539062 5.78125 15.539062 Z M 5.78125 15.539062 "/>
</svg>
