<?xml version="1.0" encoding="UTF-8"?>
<svg xmlns="http://www.w3.org/2000/svg" xmlns:xlink="http://www.w3.org/1999/xlink" width="30.972714" height="14" viewBox="0 0 30.972714 14">
<path fill-rule="nonzero" fill="rgb(95.294118%, 57.254905%, 0%)" fill-opacity="1" stroke-width="0.5" stroke-linecap="butt" stroke-linejoin="bevel" stroke="rgb(0%, 0%, 0%)" stroke-opacity="1" stroke-miterlimit="3" d="M 0.251116 0.251116 L 21.87221 0.251116 L 21.87221 9.748884 L 0.251116 9.748884 Z M 0.251116 0.251116 " transform="matrix(1.4, 0, 0, 1.4, 0, 0)"/>
<path fill-rule="nonzero" fill="rgb(100%, 100%, 100%)" fill-opacity="1" stroke-width="0.422866" stroke-linecap="butt" stroke-linejoin="bevel" stroke="rgb(0%, 0%, 0%)" stroke-opacity="1" stroke-miterlimit="3" d="M 17.533482 4.99721 C 17.533482 6.537388 14.634487 7.781808 11.060268 7.781808 C 7.486049 7.781808 4.589844 6.537388 4.589844 4.99721 C 4.589844 3.462612 7.486049 2.218192 11.060268 2.218192 C 14.634487 2.218192 17.533482 3.462612 17.533482 4.99721 Z M 17.533482 4.99721 " transform="matrix(1.4, 0, 0, 1.4, 0, 0)"/>
<path fill-rule="nonzero" fill="rgb(95.294118%, 92.54902%, 43.137255%)" fill-opacity="1" stroke-width="0.3" stroke-linecap="butt" stroke-linejoin="bevel" stroke="rgb(0%, 0%, 0%)" stroke-opacity="1" stroke-miterlimit="3" d="M 13.630022 4.99721 C 13.630022 6.420201 12.480469 7.566964 11.060268 7.566964 C 9.642857 7.566964 8.490513 6.420201 8.490513 4.99721 C 8.490513 3.579799 9.642857 2.427455 11.060268 2.427455 C 12.480469 2.427455 13.630022 3.579799 13.630022 4.99721 Z M 13.630022 4.99721 " transform="matrix(1.4, 0, 0, 1.4, 0, 0)"/>
</svg>
