<?xml version="1.0" encoding="UTF-8"?>
<svg xmlns="http://www.w3.org/2000/svg" xmlns:xlink="http://www.w3.org/1999/xlink" width="6.118077" height="24" viewBox="0 0 6.118077 24">
<path fill-rule="nonzero" fill="rgb(100%, 100%, 100%)" fill-opacity="1" d="M 1.632812 9.160156 L 4.453125 9.160156 L 4.453125 24 L 1.632812 24 Z M 1.632812 9.160156 "/>
<path fill-rule="nonzero" fill="rgb(0%, 0%, 0%)" fill-opacity="1" d="M 4.453125 10.371094 L 4.453125 9.160156 L 1.632812 10.417969 L 1.632812 11.632812 Z M 4.453125 10.371094 "/>
<path fill-rule="nonzero" fill="rgb(0%, 0%, 0%)" fill-opacity="1" d="M 4.453125 12.84375 L 4.453125 11.632812 L 1.632812 12.890625 L 1.632812 14.105469 Z M 4.453125 12.84375 "/>
<path fill-rule="nonzero" fill="rgb(0%, 0%, 0%)" fill-opacity="1" d="M 4.453125 15.320312 L 4.453125 14.105469 L 1.632812 15.367188 L 1.632812 16.578125 Z M 4.453125 15.320312 "/>
<path fill-rule="nonzero" fill="rgb(0%, 0%, 0%)" fill-opacity="1" d="M 4.453125 17.792969 L 4.453125 16.578125 L 1.632812 17.839844 L 1.632812 19.054688 Z M 4.453125 17.792969 "/>
<path fill-rule="nonzero" fill="rgb(0%, 0%, 0%)" fill-opacity="1" d="M 4.453125 20.265625 L 4.453125 19.054688 L 1.632812 20.3125 L 1.632812 21.527344 Z M 4.453125 20.265625 "/>
<path fill-rule="nonzero" fill="rgb(0%, 0%, 0%)" fill-opacity="1" d="M 4.453125 22.738281 L 4.453125 21.527344 L 1.632812 22.785156 L 1.632812 24 Z M 4.453125 22.738281 "/>
<path fill-rule="nonzero" fill="rgb(0%, 0%, 0%)" fill-opacity="1" d="M 1.632812 6.410156 L 4.453125 6.410156 L 4.453125 9.160156 L 1.632812 9.160156 Z M 1.632812 6.410156 "/>
<path fill-rule="nonzero" fill="rgb(99.607843%, 87.843137%, 0.392157%)" fill-opacity="1" d="M 3.878906 7.785156 C 3.878906 8.246094 3.503906 8.621094 3.042969 8.621094 C 2.582031 8.621094 2.207031 8.246094 2.207031 7.785156 C 2.207031 7.320312 2.582031 6.949219 3.042969 6.949219 C 3.503906 6.949219 3.878906 7.320312 3.878906 7.785156 Z M 3.878906 7.785156 "/>
<path fill-rule="nonzero" fill="rgb(0%, 0%, 0%)" fill-opacity="1" d="M 0.902344 3.078125 L 0 2.175781 L 0 0.902344 L 0.898438 0 L 2.175781 0 L 3.078125 0.898438 L 3.078125 2.175781 L 2.175781 3.078125 Z M 0.902344 3.078125 "/>
<path fill-rule="nonzero" fill="rgb(0%, 0%, 0%)" fill-opacity="1" d="M 3.945312 3.082031 L 3.042969 2.179688 L 3.039062 0.90625 L 3.941406 0.00390625 L 5.214844 0.00390625 L 6.117188 0.902344 L 6.117188 2.175781 L 5.21875 3.078125 Z M 3.945312 3.082031 "/>
<path fill-rule="nonzero" fill="rgb(0%, 0%, 0%)" fill-opacity="1" d="M 3.945312 6.128906 L 3.042969 5.230469 L 3.039062 3.957031 L 3.941406 3.054688 L 5.214844 3.050781 L 6.117188 3.953125 L 6.117188 5.226562 L 5.21875 6.128906 Z M 3.945312 6.128906 "/>
<path fill-rule="nonzero" fill="rgb(0%, 0%, 0%)" fill-opacity="1" d="M 0.90625 6.128906 L 0.00390625 5.230469 L 0 3.957031 L 0.902344 3.054688 L 2.175781 3.050781 L 3.078125 3.953125 L 3.078125 5.226562 L 2.179688 6.128906 Z M 0.90625 6.128906 "/>
<path fill-rule="nonzero" fill="rgb(0%, 0%, 0%)" fill-opacity="1" d="M 2.132812 0.00390625 L 3.945312 0.00390625 L 3.945312 6.128906 L 2.132812 6.128906 Z M 2.132812 0.00390625 "/>
<path fill-rule="nonzero" fill="rgb(0%, 0%, 0%)" fill-opacity="1" d="M 0 2.175781 L 6.117188 2.175781 L 6.117188 3.957031 L 0 3.957031 Z M 0 2.175781 "/>
<path fill-rule="nonzero" fill="rgb(99.607843%, 87.843137%, 0.392157%)" fill-opacity="1" d="M 4.578125 3.101562 C 4.578125 3.949219 3.890625 4.636719 3.039062 4.636719 C 2.191406 4.636719 1.5 3.949219 1.5 3.101562 C 1.5 2.25 2.191406 1.5625 3.039062 1.5625 C 3.890625 1.5625 4.578125 2.25 4.578125 3.101562 Z M 4.578125 3.101562 "/>
</svg>
