<?xml version="1.0" encoding="UTF-8"?>
<svg xmlns="http://www.w3.org/2000/svg" xmlns:xlink="http://www.w3.org/1999/xlink" width="17.237164" height="15" viewBox="0 0 17.237164 15">
<path fill-rule="nonzero" fill="rgb(95.294118%, 57.254905%, 0%)" fill-opacity="1" d="M 17.238281 0 L 8.617188 15 L 0 0 Z M 17.238281 0 "/>
<path fill-rule="nonzero" fill="rgb(0%, 0%, 0%)" fill-opacity="1" d="M 16.210938 0.625 L 8.671875 13.679688 L 1.136719 0.625 Z M 16.210938 0.625 "/>
<path fill-rule="nonzero" fill="rgb(0%, 0%, 0%)" fill-opacity="1" d="M 8.671875 13.714844 L 8.65625 13.6875 L 1.105469 0.605469 L 16.242188 0.605469 L 16.226562 0.632812 Z M 1.167969 0.640625 L 8.671875 13.644531 L 16.179688 0.640625 Z M 1.167969 0.640625 "/>
<path fill-rule="nonzero" fill="rgb(95.294118%, 57.254905%, 0%)" fill-opacity="1" d="M 6.386719 2.671875 L 6.386719 1.710938 L 11.65625 1.710938 L 11.65625 2.488281 C 11.136719 3.039062 10.625 3.769531 10.117188 4.683594 C 9.605469 5.601562 9.214844 6.539062 8.9375 7.503906 C 8.734375 8.1875 8.609375 8.933594 8.554688 9.742188 L 7.527344 9.742188 C 7.539062 9.101562 7.664062 8.328125 7.902344 7.421875 C 8.144531 6.515625 8.488281 5.640625 8.9375 4.800781 C 9.386719 3.957031 9.867188 3.246094 10.375 2.671875 Z M 6.386719 2.671875 "/>
</svg>
