<?xml version="1.0" encoding="UTF-8"?>
<svg xmlns="http://www.w3.org/2000/svg" xmlns:xlink="http://www.w3.org/1999/xlink" width="14" height="14" viewBox="0 0 14 14">
<path fill-rule="nonzero" fill="rgb(0%, 0%, 0%)" fill-opacity="1" stroke-width="10" stroke-linecap="butt" stroke-linejoin="miter" stroke="rgb(100%, 100%, 100%)" stroke-opacity="1" stroke-miterlimit="4" d="M 5.027343 5.027343 L 5.027343 148.97264 L 148.97264 148.97264 L 148.97264 5.027343 Z M 5.027343 5.027343 " transform="matrix(0.0909091, 0, 0, 0.0909091, 0, 0)"/>
<path fill-rule="nonzero" fill="rgb(100%, 100%, 100%)" fill-opacity="1" d="M 4.0625 9.054688 L 5.164062 8.910156 C 5.289062 9.535156 5.503906 9.980469 5.8125 10.257812 C 6.113281 10.53125 6.480469 10.671875 6.917969 10.671875 C 7.4375 10.671875 7.875 10.492188 8.230469 10.132812 C 8.589844 9.773438 8.769531 9.328125 8.769531 8.796875 C 8.769531 8.292969 8.605469 7.875 8.273438 7.546875 C 7.941406 7.21875 7.519531 7.054688 7.011719 7.054688 C 6.804688 7.054688 6.542969 7.09375 6.234375 7.179688 L 6.359375 6.207031 C 6.429688 6.21875 6.488281 6.222656 6.535156 6.222656 C 7.003906 6.222656 7.425781 6.097656 7.800781 5.855469 C 8.175781 5.609375 8.363281 5.234375 8.363281 4.726562 C 8.363281 4.320312 8.230469 3.984375 7.957031 3.71875 C 7.683594 3.457031 7.328125 3.320312 6.894531 3.320312 C 6.46875 3.320312 6.109375 3.457031 5.824219 3.726562 C 5.539062 3.996094 5.355469 4.402344 5.277344 4.9375 L 4.175781 4.742188 C 4.308594 4.003906 4.613281 3.429688 5.089844 3.027344 C 5.566406 2.621094 6.160156 2.417969 6.871094 2.417969 C 7.359375 2.417969 7.8125 2.523438 8.226562 2.730469 C 8.636719 2.941406 8.949219 3.230469 9.167969 3.589844 C 9.386719 3.957031 9.496094 4.339844 9.496094 4.746094 C 9.496094 5.136719 9.390625 5.488281 9.183594 5.808594 C 8.976562 6.125 8.667969 6.375 8.261719 6.566406 C 8.789062 6.6875 9.203125 6.941406 9.496094 7.328125 C 9.789062 7.714844 9.9375 8.195312 9.9375 8.777344 C 9.9375 9.558594 9.652344 10.222656 9.082031 10.765625 C 8.507812 11.308594 7.789062 11.582031 6.914062 11.582031 C 6.128906 11.582031 5.472656 11.347656 4.953125 10.878906 C 4.433594 10.410156 4.136719 9.804688 4.0625 9.054688 Z M 4.0625 9.054688 "/>
</svg>
