<?xml version="1.0" encoding="UTF-8"?>
<svg xmlns="http://www.w3.org/2000/svg" xmlns:xlink="http://www.w3.org/1999/xlink" width="14" height="14" viewBox="0 0 14 14">
<path fill-rule="nonzero" fill="rgb(0%, 0%, 0%)" fill-opacity="1" stroke-width="10" stroke-linecap="butt" stroke-linejoin="miter" stroke="rgb(100%, 100%, 100%)" stroke-opacity="1" stroke-miterlimit="4" d="M 5.027343 5.027343 L 5.027343 148.97264 L 148.97264 148.97264 L 148.97264 5.027343 Z M 5.027343 5.027343 " transform="matrix(0.0909091, 0, 0, 0.0909091, 0, 0)"/>
<path fill-rule="nonzero" fill="rgb(100%, 100%, 100%)" fill-opacity="1" d="M 5.75 6.5625 C 5.292969 6.394531 4.953125 6.15625 4.734375 5.84375 C 4.511719 5.535156 4.402344 5.164062 4.402344 4.730469 C 4.402344 4.078125 4.636719 3.527344 5.109375 3.085938 C 5.578125 2.640625 6.203125 2.417969 6.980469 2.417969 C 7.765625 2.417969 8.394531 2.644531 8.875 3.097656 C 9.351562 3.554688 9.589844 4.109375 9.589844 4.761719 C 9.589844 5.175781 9.480469 5.542969 9.265625 5.847656 C 9.046875 6.15625 8.714844 6.394531 8.269531 6.5625 C 8.820312 6.742188 9.238281 7.03125 9.527344 7.429688 C 9.816406 7.832031 9.957031 8.308594 9.957031 8.863281 C 9.957031 9.632812 9.6875 10.277344 9.144531 10.800781 C 8.601562 11.320312 7.886719 11.582031 7 11.582031 C 6.113281 11.582031 5.398438 11.320312 4.855469 10.796875 C 4.3125 10.269531 4.042969 9.617188 4.042969 8.832031 C 4.042969 8.25 4.1875 7.761719 4.488281 7.367188 C 4.785156 6.972656 5.203125 6.703125 5.75 6.5625 Z M 5.175781 8.839844 C 5.175781 9.15625 5.25 9.457031 5.398438 9.753906 C 5.550781 10.046875 5.769531 10.273438 6.0625 10.433594 C 6.359375 10.59375 6.671875 10.679688 7.011719 10.679688 C 7.539062 10.679688 7.972656 10.507812 8.316406 10.167969 C 8.660156 9.828125 8.832031 9.398438 8.832031 8.878906 C 8.832031 8.34375 8.65625 7.90625 8.300781 7.5625 C 7.949219 7.214844 7.507812 7.039062 6.972656 7.039062 C 6.457031 7.039062 6.027344 7.210938 5.6875 7.554688 C 5.34375 7.898438 5.175781 8.328125 5.175781 8.839844 Z M 5.53125 4.695312 C 5.53125 5.117188 5.664062 5.464844 5.9375 5.734375 C 6.210938 6.003906 6.570312 6.140625 7.007812 6.140625 C 7.429688 6.140625 7.78125 6.003906 8.050781 5.738281 C 8.320312 5.472656 8.457031 5.144531 8.457031 4.753906 C 8.457031 4.351562 8.316406 4.011719 8.039062 3.738281 C 7.757812 3.460938 7.410156 3.320312 6.992188 3.320312 C 6.574219 3.320312 6.222656 3.457031 5.945312 3.726562 C 5.667969 3.996094 5.53125 4.320312 5.53125 4.695312 Z M 5.53125 4.695312 "/>
</svg>
