<?xml version="1.0" encoding="UTF-8"?>
<svg xmlns="http://www.w3.org/2000/svg" xmlns:xlink="http://www.w3.org/1999/xlink" width="15" height="15" viewBox="0 0 15 15">
<path fill-rule="nonzero" fill="rgb(100%, 100%, 100%)" fill-opacity="1" stroke-width="10" stroke-linecap="butt" stroke-linejoin="miter" stroke="rgb(100%, 0%, 0%)" stroke-opacity="1" stroke-miterlimit="4" d="M 5.013021 5.013021 L 5.013021 148.986979 L 148.986979 148.986979 L 148.986979 5.013021 Z M 5.013021 5.013021 " transform="matrix(0.0974026, 0, 0, 0.0974026, 0, 0)"/>
<path fill-rule="nonzero" fill="rgb(100%, 0%, 0%)" fill-opacity="1" d="M 4.421875 2.324219 L 5.828125 2.324219 L 5.828125 12.144531 L 4.421875 12.144531 L 4.421875 3.726562 L 3.027344 5.132812 L 3.027344 3.726562 L 4.421875 2.324219 "/>
<path fill-rule="nonzero" fill="rgb(100%, 0%, 0%)" fill-opacity="1" d="M 8.527344 2.945312 C 8.9375 2.53125 9.433594 2.324219 10.011719 2.324219 C 10.589844 2.324219 11.085938 2.53125 11.496094 2.945312 C 11.910156 3.359375 12.113281 3.851562 12.113281 4.433594 L 12.113281 5.832031 C 12.113281 6.363281 11.9375 6.832031 11.582031 7.234375 C 11.9375 7.636719 12.113281 8.105469 12.113281 8.636719 L 12.113281 10.042969 C 12.113281 10.621094 11.910156 11.117188 11.496094 11.527344 C 11.085938 11.9375 10.589844 12.144531 10.011719 12.144531 C 9.433594 12.144531 8.9375 11.9375 8.527344 11.527344 C 8.113281 11.117188 7.910156 10.621094 7.910156 10.042969 L 7.910156 9.335938 L 9.304688 9.335938 L 9.304688 10.042969 C 9.304688 10.238281 9.375 10.40625 9.511719 10.542969 C 9.648438 10.675781 9.816406 10.742188 10.011719 10.742188 C 10.207031 10.742188 10.371094 10.675781 10.503906 10.542969 C 10.640625 10.40625 10.710938 10.238281 10.710938 10.042969 L 10.710938 8.636719 C 10.710938 8.441406 10.640625 8.277344 10.503906 8.144531 C 10.371094 8.007812 10.207031 7.941406 10.011719 7.941406 L 10.011719 6.535156 C 10.207031 6.535156 10.371094 6.46875 10.503906 6.332031 C 10.640625 6.191406 10.710938 6.027344 10.710938 5.832031 L 10.710938 4.433594 C 10.710938 4.238281 10.640625 4.070312 10.503906 3.933594 C 10.371094 3.796875 10.207031 3.726562 10.011719 3.726562 C 9.816406 3.726562 9.648438 3.796875 9.511719 3.933594 C 9.375 4.070312 9.304688 4.238281 9.304688 4.433594 L 9.304688 5.132812 L 7.910156 5.132812 L 7.910156 4.433594 C 7.910156 3.851562 8.113281 3.359375 8.527344 2.945312 "/>
</svg>
