<?xml version="1.0" encoding="UTF-8"?>
<svg xmlns="http://www.w3.org/2000/svg" xmlns:xlink="http://www.w3.org/1999/xlink" width="14" height="14" viewBox="0 0 14 14">
<path fill-rule="nonzero" fill="rgb(0%, 0%, 0%)" fill-opacity="1" stroke-width="10" stroke-linecap="butt" stroke-linejoin="miter" stroke="rgb(100%, 100%, 100%)" stroke-opacity="1" stroke-miterlimit="4" d="M 7.991072 7.991072 L 7.991072 152.008931 L 152.008931 152.008931 L 152.008931 7.991072 Z M 7.991072 7.991072 " transform="matrix(0.0875, 0, 0, 0.0875, 0, 0)"/>
<path fill-rule="nonzero" fill="rgb(100%, 100%, 100%)" fill-opacity="1" d="M 9.90625 10.375 L 9.90625 11.410156 L 4.097656 11.410156 C 4.085938 11.152344 4.128906 10.902344 4.222656 10.660156 C 4.371094 10.265625 4.609375 9.875 4.933594 9.492188 C 5.257812 9.109375 5.726562 8.667969 6.34375 8.164062 C 7.300781 7.378906 7.945312 6.757812 8.28125 6.300781 C 8.613281 5.84375 8.78125 5.410156 8.78125 5.003906 C 8.78125 4.574219 8.628906 4.214844 8.324219 3.921875 C 8.019531 3.628906 7.621094 3.480469 7.128906 3.480469 C 6.609375 3.480469 6.195312 3.636719 5.882812 3.949219 C 5.570312 4.261719 5.414062 4.691406 5.410156 5.242188 L 4.300781 5.128906 C 4.375 4.300781 4.664062 3.671875 5.160156 3.238281 C 5.65625 2.808594 6.316406 2.589844 7.152344 2.589844 C 7.996094 2.589844 8.664062 2.820312 9.15625 3.289062 C 9.648438 3.757812 9.890625 4.339844 9.890625 5.027344 C 9.890625 5.382812 9.820312 5.722656 9.675781 6.066406 C 9.535156 6.40625 9.292969 6.761719 8.960938 7.136719 C 8.625 7.515625 8.070312 8.027344 7.300781 8.683594 C 6.648438 9.226562 6.234375 9.597656 6.050781 9.789062 C 5.867188 9.980469 5.714844 10.179688 5.597656 10.375 Z M 9.90625 10.375 "/>
</svg>
