<?xml version="1.0" encoding="UTF-8"?>
<svg xmlns="http://www.w3.org/2000/svg" xmlns:xlink="http://www.w3.org/1999/xlink" width="21.83374" height="19" viewBox="0 0 21.83374 19">
<path fill-rule="nonzero" fill="rgb(95.294118%, 57.254905%, 0%)" fill-opacity="1" d="M 21.835938 0 L 10.914062 19 L 0 0 Z M 21.835938 0 "/>
<path fill-rule="nonzero" fill="rgb(0%, 0%, 0%)" fill-opacity="1" d="M 20.535156 0.792969 L 10.984375 17.328125 L 1.441406 0.792969 Z M 20.535156 0.792969 "/>
<path fill-rule="nonzero" fill="rgb(0%, 0%, 0%)" fill-opacity="1" d="M 10.984375 17.371094 L 10.964844 17.335938 L 1.398438 0.765625 L 20.574219 0.765625 L 20.554688 0.800781 Z M 1.480469 0.8125 L 10.984375 17.28125 L 20.496094 0.8125 Z M 1.480469 0.8125 "/>
<path fill-rule="nonzero" fill="rgb(95.294118%, 57.254905%, 0%)" fill-opacity="1" d="M 7.777344 9.957031 L 8.996094 9.847656 C 9.097656 10.414062 9.296875 10.832031 9.585938 11.089844 C 9.875 11.34375 10.246094 11.472656 10.703125 11.472656 C 11.09375 11.472656 11.433594 11.386719 11.726562 11.207031 C 12.019531 11.027344 12.261719 10.792969 12.449219 10.496094 C 12.636719 10.199219 12.789062 9.796875 12.917969 9.289062 C 13.046875 8.78125 13.105469 8.269531 13.105469 7.742188 C 13.105469 7.683594 13.105469 7.601562 13.101562 7.492188 C 12.851562 7.890625 12.503906 8.21875 12.0625 8.472656 C 11.628906 8.722656 11.152344 8.847656 10.644531 8.847656 C 9.785156 8.847656 9.066406 8.535156 8.476562 7.917969 C 7.886719 7.296875 7.589844 6.480469 7.589844 5.472656 C 7.589844 4.421875 7.898438 3.582031 8.515625 2.949219 C 9.128906 2.3125 9.902344 1.988281 10.832031 1.988281 C 11.5 1.988281 12.113281 2.171875 12.671875 2.535156 C 13.226562 2.894531 13.644531 3.410156 13.933594 4.078125 C 14.226562 4.746094 14.367188 5.710938 14.367188 6.976562 C 14.367188 8.292969 14.226562 9.339844 13.9375 10.125 C 13.652344 10.90625 13.226562 11.5 12.660156 11.90625 C 12.097656 12.308594 11.433594 12.519531 10.675781 12.519531 C 9.871094 12.519531 9.214844 12.289062 8.699219 11.84375 C 8.1875 11.398438 7.882812 10.765625 7.777344 9.957031 Z M 12.964844 5.40625 C 12.964844 4.679688 12.765625 4.105469 12.378906 3.675781 C 11.992188 3.25 11.527344 3.039062 10.984375 3.039062 C 10.425781 3.039062 9.933594 3.265625 9.515625 3.726562 C 9.097656 4.1875 8.890625 4.78125 8.890625 5.511719 C 8.890625 6.171875 9.089844 6.703125 9.484375 7.113281 C 9.882812 7.519531 10.371094 7.730469 10.949219 7.730469 C 11.539062 7.730469 12.019531 7.519531 12.394531 7.113281 C 12.769531 6.703125 12.964844 6.136719 12.964844 5.40625 Z M 12.964844 5.40625 "/>
</svg>
