<?xml version="1.0" encoding="UTF-8"?>
<svg xmlns="http://www.w3.org/2000/svg" xmlns:xlink="http://www.w3.org/1999/xlink" width="21.83374" height="19" viewBox="0 0 21.83374 19">
<path fill-rule="nonzero" fill="rgb(95.294118%, 57.254905%, 0%)" fill-opacity="1" d="M 21.835938 0 L 10.914062 19 L 0 0 Z M 21.835938 0 "/>
<path fill-rule="nonzero" fill="rgb(0%, 0%, 0%)" fill-opacity="1" d="M 10.984375 17.328125 L 1.441406 0.792969 L 20.535156 0.792969 Z M 10.984375 17.328125 "/>
<path fill-rule="nonzero" fill="rgb(0%, 0%, 0%)" fill-opacity="1" d="M 10.984375 17.371094 L 10.964844 17.335938 L 1.398438 0.765625 L 20.574219 0.765625 L 20.554688 0.800781 Z M 1.480469 0.8125 L 10.984375 17.28125 L 20.496094 0.8125 Z M 1.480469 0.8125 "/>
<path fill-rule="nonzero" fill="rgb(95.294118%, 57.254905%, 0%)" fill-opacity="1" d="M 11.671875 12.339844 L 11.671875 9.820312 L 7.109375 9.820312 L 7.109375 8.640625 L 11.910156 1.820312 L 12.964844 1.820312 L 12.964844 8.640625 L 14.382812 8.640625 L 14.382812 9.820312 L 12.964844 9.820312 L 12.964844 12.339844 Z M 11.671875 8.640625 L 11.671875 3.894531 L 8.375 8.640625 Z M 11.671875 8.640625 "/>
</svg>
