<?xml version="1.0" encoding="UTF-8"?>
<svg xmlns="http://www.w3.org/2000/svg" xmlns:xlink="http://www.w3.org/1999/xlink" width="17.237164" height="15" viewBox="0 0 17.237164 15">
<path fill-rule="nonzero" fill="rgb(95.294118%, 57.254905%, 0%)" fill-opacity="1" d="M 17.238281 0 L 8.617188 15 L 0 0 Z M 17.238281 0 "/>
<path fill-rule="nonzero" fill="rgb(0%, 0%, 0%)" fill-opacity="1" d="M 16.210938 0.625 L 8.671875 13.679688 L 1.136719 0.625 Z M 16.210938 0.625 "/>
<path fill-rule="nonzero" fill="rgb(0%, 0%, 0%)" fill-opacity="1" d="M 8.671875 13.714844 L 8.65625 13.6875 L 1.105469 0.605469 L 16.242188 0.605469 L 16.226562 0.632812 Z M 1.167969 0.640625 L 8.671875 13.644531 L 16.179688 0.640625 Z M 1.167969 0.640625 "/>
<path fill-rule="nonzero" fill="rgb(95.294118%, 57.254905%, 0%)" fill-opacity="1" d="M 11.238281 3.472656 L 10.222656 3.550781 C 10.132812 3.152344 10.003906 2.859375 9.839844 2.679688 C 9.5625 2.386719 9.222656 2.242188 8.816406 2.242188 C 8.492188 2.242188 8.207031 2.332031 7.964844 2.515625 C 7.640625 2.75 7.390625 3.089844 7.203125 3.539062 C 7.019531 3.988281 6.921875 4.628906 6.914062 5.460938 C 7.160156 5.085938 7.460938 4.808594 7.816406 4.628906 C 8.171875 4.445312 8.542969 4.355469 8.933594 4.355469 C 9.613281 4.355469 10.191406 4.605469 10.667969 5.105469 C 11.144531 5.605469 11.382812 6.253906 11.382812 7.046875 C 11.382812 7.566406 11.273438 8.050781 11.046875 8.5 C 10.824219 8.945312 10.515625 9.289062 10.121094 9.527344 C 9.730469 9.765625 9.28125 9.882812 8.785156 9.882812 C 7.933594 9.882812 7.242188 9.570312 6.707031 8.945312 C 6.167969 8.320312 5.902344 7.292969 5.902344 5.855469 C 5.902344 4.25 6.195312 3.085938 6.789062 2.355469 C 7.308594 1.722656 8.003906 1.402344 8.878906 1.402344 C 9.535156 1.402344 10.070312 1.585938 10.488281 1.953125 C 10.902344 2.320312 11.15625 2.824219 11.238281 3.472656 Z M 7.074219 7.050781 C 7.074219 7.402344 7.148438 7.738281 7.296875 8.058594 C 7.445312 8.382812 7.65625 8.625 7.921875 8.792969 C 8.191406 8.960938 8.472656 9.046875 8.765625 9.046875 C 9.199219 9.046875 9.566406 8.871094 9.878906 8.523438 C 10.1875 8.175781 10.34375 7.707031 10.34375 7.109375 C 10.34375 6.535156 10.1875 6.082031 9.882812 5.75 C 9.578125 5.421875 9.191406 5.257812 8.726562 5.257812 C 8.265625 5.257812 7.875 5.421875 7.554688 5.75 C 7.234375 6.082031 7.074219 6.515625 7.074219 7.050781 Z M 7.074219 7.050781 "/>
</svg>
