<?xml version="1.0" encoding="UTF-8"?>
<svg xmlns="http://www.w3.org/2000/svg" xmlns:xlink="http://www.w3.org/1999/xlink" width="14" height="14" viewBox="0 0 14 14">
<path fill-rule="nonzero" fill="rgb(0%, 0%, 0%)" fill-opacity="1" stroke-width="10" stroke-linecap="butt" stroke-linejoin="miter" stroke="rgb(100%, 100%, 100%)" stroke-opacity="1" stroke-miterlimit="4" d="M 7.991072 7.991072 L 7.991072 152.008931 L 152.008931 152.008931 L 152.008931 7.991072 Z M 7.991072 7.991072 " transform="matrix(0.0875, 0, 0, 0.0875, 0, 0)"/>
<path fill-rule="nonzero" fill="rgb(100%, 100%, 100%)" fill-opacity="1" d="M 3.703125 3.957031 L 3.675781 3.957031 L 2.195312 4.753906 L 1.96875 3.875 L 3.835938 2.875 L 4.820312 2.875 L 4.820312 11.410156 L 3.703125 11.410156 Z M 3.703125 3.957031 "/>
<path fill-rule="nonzero" fill="rgb(100%, 100%, 100%)" fill-opacity="1" d="M 9.710938 11.582031 L 9.710938 9.5 L 5.941406 9.5 L 5.941406 8.523438 L 9.90625 2.890625 L 10.78125 2.890625 L 10.78125 8.523438 L 11.949219 8.523438 L 11.949219 9.5 L 10.78125 9.5 L 10.78125 11.582031 Z M 9.710938 8.523438 L 9.710938 4.605469 L 6.992188 8.523438 Z M 9.710938 8.523438 "/>
</svg>
