<?xml version="1.0" encoding="UTF-8"?>
<svg xmlns="http://www.w3.org/2000/svg" xmlns:xlink="http://www.w3.org/1999/xlink" width="14.244597" height="14" viewBox="0 0 14.244597 14">
<path fill-rule="nonzero" fill="rgb(0%, 0%, 0%)" fill-opacity="1" stroke-width="1.011478" stroke-linecap="butt" stroke-linejoin="miter" stroke="rgb(0%, 0%, 0%)" stroke-opacity="1" stroke-miterlimit="4" d="M 1716.58154 1909.966177 L 1370.084403 1909.966177 L 1370.084403 1570.895307 L 1715.152096 1570.895307 Z M 1716.58154 1909.966177 " transform="matrix(0.0409906, 0, 0, 0.0411741, -56.141048, -64.660667)"/>
<path fill-rule="nonzero" fill="rgb(100%, 100%, 0%)" fill-opacity="1" d="M 3.320312 2.273438 C 3.320312 2.09375 3.457031 1.949219 3.625 1.949219 C 3.789062 1.949219 3.925781 2.09375 3.925781 2.273438 C 3.925781 2.449219 3.789062 2.59375 3.625 2.59375 C 3.457031 2.59375 3.320312 2.449219 3.320312 2.273438 Z M 3.320312 2.273438 "/>
<path fill-rule="nonzero" fill="rgb(100%, 100%, 0%)" fill-opacity="1" d="M 3.5625 2.597656 C 3.5625 2.417969 3.699219 2.273438 3.867188 2.273438 C 4.03125 2.273438 4.171875 2.417969 4.171875 2.597656 C 4.171875 2.777344 4.03125 2.917969 3.867188 2.917969 C 3.699219 2.917969 3.5625 2.777344 3.5625 2.597656 Z M 3.5625 2.597656 "/>
<path fill-rule="nonzero" fill="rgb(100%, 100%, 0%)" fill-opacity="1" d="M 4.050781 2.027344 C 4.050781 1.851562 4.1875 1.707031 4.355469 1.707031 C 4.523438 1.707031 4.660156 1.851562 4.660156 2.027344 C 4.660156 2.207031 4.523438 2.351562 4.355469 2.351562 C 4.1875 2.351562 4.050781 2.207031 4.050781 2.027344 Z M 4.050781 2.027344 "/>
<path fill-rule="nonzero" fill="rgb(100%, 100%, 0%)" fill-opacity="1" d="M 4.699219 1.621094 C 4.699219 1.445312 4.835938 1.300781 5.003906 1.300781 C 5.171875 1.300781 5.308594 1.445312 5.308594 1.621094 C 5.308594 1.800781 5.171875 1.945312 5.003906 1.945312 C 4.835938 1.945312 4.699219 1.800781 4.699219 1.621094 Z M 4.699219 1.621094 "/>
<path fill-rule="nonzero" fill="rgb(100%, 100%, 0%)" fill-opacity="1" d="M 4.539062 1.214844 C 4.539062 1.039062 4.675781 0.894531 4.84375 0.894531 C 5.011719 0.894531 5.148438 1.039062 5.148438 1.214844 C 5.148438 1.394531 5.011719 1.539062 4.84375 1.539062 C 4.675781 1.539062 4.539062 1.394531 4.539062 1.214844 Z M 4.539062 1.214844 "/>
<path fill-rule="nonzero" fill="rgb(100%, 100%, 0%)" fill-opacity="1" d="M 3.886719 1.703125 C 3.886719 1.527344 4.023438 1.382812 4.191406 1.382812 C 4.359375 1.382812 4.496094 1.527344 4.496094 1.703125 C 4.496094 1.882812 4.359375 2.027344 4.191406 2.027344 C 4.023438 2.027344 3.886719 1.882812 3.886719 1.703125 Z M 3.886719 1.703125 "/>
<path fill-rule="nonzero" fill="rgb(100%, 100%, 0%)" fill-opacity="1" d="M 5.429688 1.296875 C 5.429688 1.121094 5.5625 0.976562 5.730469 0.976562 C 5.902344 0.976562 6.039062 1.121094 6.039062 1.296875 C 6.039062 1.476562 5.902344 1.621094 5.730469 1.621094 C 5.5625 1.621094 5.429688 1.476562 5.429688 1.296875 Z M 5.429688 1.296875 "/>
<path fill-rule="nonzero" fill="rgb(100%, 100%, 0%)" fill-opacity="1" d="M 5.265625 0.890625 C 5.265625 0.714844 5.402344 0.570312 5.574219 0.570312 C 5.742188 0.570312 5.878906 0.714844 5.878906 0.890625 C 5.878906 1.070312 5.742188 1.214844 5.574219 1.214844 C 5.402344 1.214844 5.265625 1.070312 5.265625 0.890625 Z M 5.265625 0.890625 "/>
<path fill-rule="nonzero" fill="rgb(100%, 100%, 0%)" fill-opacity="1" d="M 6.082031 0.648438 C 6.082031 0.46875 6.21875 0.324219 6.382812 0.324219 C 6.550781 0.324219 6.6875 0.46875 6.6875 0.648438 C 6.6875 0.828125 6.550781 0.96875 6.382812 0.96875 C 6.21875 0.96875 6.082031 0.828125 6.082031 0.648438 Z M 6.082031 0.648438 "/>
<path fill-rule="nonzero" fill="rgb(100%, 100%, 0%)" fill-opacity="1" d="M 6.164062 1.054688 C 6.164062 0.875 6.296875 0.730469 6.464844 0.730469 C 6.632812 0.730469 6.765625 0.875 6.765625 1.054688 C 6.765625 1.230469 6.632812 1.375 6.464844 1.375 C 6.296875 1.375 6.164062 1.230469 6.164062 1.054688 Z M 6.164062 1.054688 "/>
<path fill-rule="nonzero" fill="rgb(100%, 100%, 0%)" fill-opacity="1" d="M 6.894531 0.972656 C 6.894531 0.796875 7.03125 0.652344 7.199219 0.652344 C 7.367188 0.652344 7.503906 0.796875 7.503906 0.972656 C 7.503906 1.152344 7.367188 1.296875 7.199219 1.296875 C 7.03125 1.296875 6.894531 1.152344 6.894531 0.972656 Z M 6.894531 0.972656 "/>
<path fill-rule="nonzero" fill="rgb(100%, 100%, 0%)" fill-opacity="1" d="M 6.894531 0.566406 C 6.894531 0.390625 7.03125 0.246094 7.199219 0.246094 C 7.367188 0.246094 7.503906 0.390625 7.503906 0.566406 C 7.503906 0.746094 7.367188 0.890625 7.199219 0.890625 C 7.03125 0.890625 6.894531 0.746094 6.894531 0.566406 Z M 6.894531 0.566406 "/>
<path fill-rule="nonzero" fill="rgb(100%, 100%, 0%)" fill-opacity="1" d="M 7.78125 0.730469 C 7.78125 0.550781 7.917969 0.40625 8.089844 0.40625 C 8.257812 0.40625 8.394531 0.550781 8.394531 0.730469 C 8.394531 0.90625 8.257812 1.050781 8.089844 1.050781 C 7.917969 1.050781 7.78125 0.90625 7.78125 0.730469 Z M 7.78125 0.730469 "/>
<path fill-rule="nonzero" fill="rgb(100%, 100%, 0%)" fill-opacity="1" d="M 7.625 1.136719 C 7.625 0.957031 7.761719 0.8125 7.929688 0.8125 C 8.097656 0.8125 8.234375 0.957031 8.234375 1.136719 C 8.234375 1.3125 8.097656 1.457031 7.929688 1.457031 C 7.761719 1.457031 7.625 1.3125 7.625 1.136719 Z M 7.625 1.136719 "/>
<path fill-rule="nonzero" fill="rgb(100%, 100%, 0%)" fill-opacity="1" d="M 8.597656 1.136719 C 8.597656 0.957031 8.734375 0.8125 8.898438 0.8125 C 9.066406 0.8125 9.203125 0.957031 9.203125 1.136719 C 9.203125 1.3125 9.066406 1.457031 8.898438 1.457031 C 8.734375 1.457031 8.597656 1.3125 8.597656 1.136719 Z M 8.597656 1.136719 "/>
<path fill-rule="nonzero" fill="rgb(100%, 100%, 0%)" fill-opacity="1" d="M 8.273438 1.460938 C 8.273438 1.28125 8.40625 1.136719 8.574219 1.136719 C 8.746094 1.136719 8.882812 1.28125 8.882812 1.460938 C 8.882812 1.636719 8.746094 1.78125 8.574219 1.78125 C 8.40625 1.78125 8.273438 1.636719 8.273438 1.460938 Z M 8.273438 1.460938 "/>
<path fill-rule="nonzero" fill="rgb(100%, 100%, 0%)" fill-opacity="1" d="M 9.25 1.621094 C 9.25 1.445312 9.386719 1.300781 9.554688 1.300781 C 9.71875 1.300781 9.855469 1.445312 9.855469 1.621094 C 9.855469 1.800781 9.71875 1.945312 9.554688 1.945312 C 9.386719 1.945312 9.25 1.800781 9.25 1.621094 Z M 9.25 1.621094 "/>
<path fill-rule="nonzero" fill="rgb(100%, 100%, 0%)" fill-opacity="1" d="M 8.84375 1.949219 C 8.84375 1.769531 8.980469 1.625 9.148438 1.625 C 9.3125 1.625 9.449219 1.769531 9.449219 1.949219 C 9.449219 2.125 9.3125 2.269531 9.148438 2.269531 C 8.980469 2.269531 8.84375 2.125 8.84375 1.949219 Z M 8.84375 1.949219 "/>
<path fill-rule="nonzero" fill="rgb(100%, 100%, 0%)" fill-opacity="1" d="M 9.734375 2.273438 C 9.734375 2.09375 9.871094 1.949219 10.039062 1.949219 C 10.207031 1.949219 10.34375 2.09375 10.34375 2.273438 C 10.34375 2.449219 10.207031 2.59375 10.039062 2.59375 C 9.871094 2.59375 9.734375 2.449219 9.734375 2.273438 Z M 9.734375 2.273438 "/>
<path fill-rule="nonzero" fill="rgb(100%, 100%, 0%)" fill-opacity="1" d="M 9.328125 2.515625 C 9.328125 2.339844 9.464844 2.195312 9.632812 2.195312 C 9.800781 2.195312 9.9375 2.339844 9.9375 2.515625 C 9.9375 2.695312 9.800781 2.839844 9.632812 2.839844 C 9.464844 2.839844 9.328125 2.695312 9.328125 2.515625 Z M 9.328125 2.515625 "/>
<path fill-rule="nonzero" fill="rgb(100%, 100%, 0%)" fill-opacity="1" d="M 10.140625 3.085938 C 10.140625 2.90625 10.277344 2.761719 10.445312 2.761719 C 10.613281 2.761719 10.75 2.90625 10.75 3.085938 C 10.75 3.261719 10.613281 3.40625 10.445312 3.40625 C 10.277344 3.40625 10.140625 3.261719 10.140625 3.085938 Z M 10.140625 3.085938 "/>
<path fill-rule="nonzero" fill="rgb(100%, 100%, 0%)" fill-opacity="1" d="M 9.734375 3.246094 C 9.734375 3.070312 9.871094 2.925781 10.039062 2.925781 C 10.207031 2.925781 10.34375 3.070312 10.34375 3.246094 C 10.34375 3.425781 10.207031 3.570312 10.039062 3.570312 C 9.871094 3.570312 9.734375 3.425781 9.734375 3.246094 Z M 9.734375 3.246094 "/>
<path fill-rule="nonzero" fill="rgb(100%, 100%, 0%)" fill-opacity="1" d="M 10.304688 3.898438 C 10.304688 3.71875 10.441406 3.574219 10.609375 3.574219 C 10.777344 3.574219 10.914062 3.71875 10.914062 3.898438 C 10.914062 4.074219 10.777344 4.21875 10.609375 4.21875 C 10.441406 4.21875 10.304688 4.074219 10.304688 3.898438 Z M 10.304688 3.898438 "/>
<path fill-rule="nonzero" fill="rgb(100%, 100%, 0%)" fill-opacity="1" d="M 10.222656 4.710938 C 10.222656 4.53125 10.359375 4.386719 10.527344 4.386719 C 10.695312 4.386719 10.832031 4.53125 10.832031 4.710938 C 10.832031 4.886719 10.695312 5.03125 10.527344 5.03125 C 10.359375 5.03125 10.222656 4.886719 10.222656 4.710938 Z M 10.222656 4.710938 "/>
<path fill-rule="nonzero" fill="rgb(100%, 100%, 0%)" fill-opacity="1" d="M 9.734375 4.710938 C 9.734375 4.53125 9.871094 4.386719 10.039062 4.386719 C 10.207031 4.386719 10.34375 4.53125 10.34375 4.710938 C 10.34375 4.886719 10.207031 5.03125 10.039062 5.03125 C 9.871094 5.03125 9.734375 4.886719 9.734375 4.710938 Z M 9.734375 4.710938 "/>
<path fill-rule="nonzero" fill="rgb(100%, 100%, 0%)" fill-opacity="1" d="M 9.816406 3.898438 C 9.816406 3.71875 9.953125 3.574219 10.121094 3.574219 C 10.289062 3.574219 10.425781 3.71875 10.425781 3.898438 C 10.425781 4.074219 10.289062 4.21875 10.121094 4.21875 C 9.953125 4.21875 9.816406 4.074219 9.816406 3.898438 Z M 9.816406 3.898438 "/>
<path fill-rule="nonzero" fill="rgb(100%, 100%, 0%)" fill-opacity="1" d="M 9.980469 5.519531 C 9.980469 5.34375 10.117188 5.199219 10.285156 5.199219 C 10.453125 5.199219 10.589844 5.34375 10.589844 5.519531 C 10.589844 5.699219 10.453125 5.84375 10.285156 5.84375 C 10.117188 5.84375 9.980469 5.699219 9.980469 5.519531 Z M 9.980469 5.519531 "/>
<path fill-rule="nonzero" fill="rgb(100%, 100%, 0%)" fill-opacity="1" d="M 9.574219 5.359375 C 9.574219 5.179688 9.710938 5.035156 9.878906 5.035156 C 10.046875 5.035156 10.183594 5.179688 10.183594 5.359375 C 10.183594 5.535156 10.046875 5.679688 9.878906 5.679688 C 9.710938 5.679688 9.574219 5.535156 9.574219 5.359375 Z M 9.574219 5.359375 "/>
<path fill-rule="nonzero" fill="rgb(100%, 100%, 0%)" fill-opacity="1" d="M 6.773438 10.714844 C 6.773438 10.894531 6.636719 11.039062 6.46875 11.039062 C 6.300781 11.039062 6.164062 10.894531 6.164062 10.714844 C 6.164062 10.539062 6.300781 10.394531 6.46875 10.394531 C 6.636719 10.394531 6.773438 10.539062 6.773438 10.714844 Z M 6.773438 10.714844 "/>
<path fill-rule="nonzero" fill="rgb(100%, 100%, 0%)" fill-opacity="1" d="M 6.855469 9.902344 C 6.855469 10.082031 6.71875 10.226562 6.550781 10.226562 C 6.382812 10.226562 6.246094 10.082031 6.246094 9.902344 C 6.246094 9.726562 6.382812 9.582031 6.550781 9.582031 C 6.71875 9.582031 6.855469 9.726562 6.855469 9.902344 Z M 6.855469 9.902344 "/>
<path fill-rule="nonzero" fill="rgb(100%, 100%, 0%)" fill-opacity="1" d="M 7.34375 9.902344 C 7.34375 10.082031 7.207031 10.226562 7.039062 10.226562 C 6.871094 10.226562 6.734375 10.082031 6.734375 9.902344 C 6.734375 9.726562 6.871094 9.582031 7.039062 9.582031 C 7.207031 9.582031 7.34375 9.726562 7.34375 9.902344 Z M 7.34375 9.902344 "/>
<path fill-rule="nonzero" fill="rgb(100%, 100%, 0%)" fill-opacity="1" d="M 7.261719 10.714844 C 7.261719 10.894531 7.125 11.039062 6.957031 11.039062 C 6.789062 11.039062 6.652344 10.894531 6.652344 10.714844 C 6.652344 10.539062 6.789062 10.394531 6.957031 10.394531 C 7.125 10.394531 7.261719 10.539062 7.261719 10.714844 Z M 7.261719 10.714844 "/>
<path fill-rule="nonzero" fill="rgb(100%, 100%, 0%)" fill-opacity="1" d="M 6.773438 13.230469 C 6.773438 13.410156 6.636719 13.554688 6.46875 13.554688 C 6.300781 13.554688 6.164062 13.410156 6.164062 13.230469 C 6.164062 13.054688 6.300781 12.910156 6.46875 12.910156 C 6.636719 12.910156 6.773438 13.054688 6.773438 13.230469 Z M 6.773438 13.230469 "/>
<path fill-rule="nonzero" fill="rgb(100%, 100%, 0%)" fill-opacity="1" d="M 7.261719 13.230469 C 7.261719 13.410156 7.125 13.554688 6.957031 13.554688 C 6.789062 13.554688 6.652344 13.410156 6.652344 13.230469 C 6.652344 13.054688 6.789062 12.910156 6.957031 12.910156 C 7.125 12.910156 7.261719 13.054688 7.261719 13.230469 Z M 7.261719 13.230469 "/>
<path fill-rule="nonzero" fill="rgb(100%, 100%, 0%)" fill-opacity="1" d="M 6.773438 12.6875 C 6.773438 12.867188 6.636719 13.011719 6.46875 13.011719 C 6.300781 13.011719 6.164062 12.867188 6.164062 12.6875 C 6.164062 12.511719 6.300781 12.367188 6.46875 12.367188 C 6.636719 12.367188 6.773438 12.511719 6.773438 12.6875 Z M 6.773438 12.6875 "/>
<path fill-rule="nonzero" fill="rgb(100%, 100%, 0%)" fill-opacity="1" d="M 7.261719 12.6875 C 7.261719 12.867188 7.125 13.011719 6.957031 13.011719 C 6.789062 13.011719 6.652344 12.867188 6.652344 12.6875 C 6.652344 12.511719 6.789062 12.367188 6.957031 12.367188 C 7.125 12.367188 7.261719 12.511719 7.261719 12.6875 Z M 7.261719 12.6875 "/>
<path fill-rule="nonzero" fill="rgb(100%, 100%, 0%)" fill-opacity="1" d="M 7.097656 9.09375 C 7.097656 9.269531 6.960938 9.414062 6.792969 9.414062 C 6.625 9.414062 6.488281 9.269531 6.488281 9.09375 C 6.488281 8.914062 6.625 8.769531 6.792969 8.769531 C 6.960938 8.769531 7.097656 8.914062 7.097656 9.09375 Z M 7.097656 9.09375 "/>
<path fill-rule="nonzero" fill="rgb(100%, 100%, 0%)" fill-opacity="1" d="M 7.503906 9.253906 C 7.503906 9.433594 7.367188 9.578125 7.199219 9.578125 C 7.03125 9.578125 6.894531 9.433594 6.894531 9.253906 C 6.894531 9.078125 7.03125 8.933594 7.199219 8.933594 C 7.367188 8.933594 7.503906 9.078125 7.503906 9.253906 Z M 7.503906 9.253906 "/>
<path fill-rule="nonzero" fill="rgb(100%, 100%, 0%)" fill-opacity="1" d="M 7.585938 8.28125 C 7.585938 8.457031 7.449219 8.601562 7.28125 8.601562 C 7.113281 8.601562 6.976562 8.457031 6.976562 8.28125 C 6.976562 8.101562 7.113281 7.957031 7.28125 7.957031 C 7.449219 7.957031 7.585938 8.101562 7.585938 8.28125 Z M 7.585938 8.28125 "/>
<path fill-rule="nonzero" fill="rgb(100%, 100%, 0%)" fill-opacity="1" d="M 7.910156 8.523438 C 7.910156 8.703125 7.773438 8.847656 7.605469 8.847656 C 7.4375 8.847656 7.304688 8.703125 7.304688 8.523438 C 7.304688 8.34375 7.4375 8.199219 7.605469 8.199219 C 7.773438 8.199219 7.910156 8.34375 7.910156 8.523438 Z M 7.910156 8.523438 "/>
<path fill-rule="nonzero" fill="rgb(100%, 100%, 0%)" fill-opacity="1" d="M 10.035156 6.328125 C 10.035156 6.503906 9.898438 6.648438 9.726562 6.648438 C 9.558594 6.648438 9.421875 6.503906 9.421875 6.328125 C 9.421875 6.148438 9.558594 6.003906 9.726562 6.003906 C 9.898438 6.003906 10.035156 6.148438 10.035156 6.328125 Z M 10.035156 6.328125 "/>
<path fill-rule="nonzero" fill="rgb(100%, 100%, 0%)" fill-opacity="1" d="M 9.460938 6.894531 C 9.460938 7.074219 9.328125 7.21875 9.160156 7.21875 C 8.988281 7.21875 8.851562 7.074219 8.851562 6.894531 C 8.851562 6.71875 8.988281 6.574219 9.160156 6.574219 C 9.328125 6.574219 9.460938 6.71875 9.460938 6.894531 Z M 9.460938 6.894531 "/>
<path fill-rule="nonzero" fill="rgb(100%, 100%, 0%)" fill-opacity="1" d="M 8.894531 7.464844 C 8.894531 7.640625 8.757812 7.785156 8.589844 7.785156 C 8.421875 7.785156 8.289062 7.640625 8.289062 7.464844 C 8.289062 7.285156 8.421875 7.140625 8.589844 7.140625 C 8.757812 7.140625 8.894531 7.285156 8.894531 7.464844 Z M 8.894531 7.464844 "/>
<path fill-rule="nonzero" fill="rgb(100%, 100%, 0%)" fill-opacity="1" d="M 8.324219 8.03125 C 8.324219 8.210938 8.1875 8.355469 8.019531 8.355469 C 7.851562 8.355469 7.714844 8.210938 7.714844 8.03125 C 7.714844 7.855469 7.851562 7.710938 8.019531 7.710938 C 8.1875 7.710938 8.324219 7.855469 8.324219 8.03125 Z M 8.324219 8.03125 "/>
<path fill-rule="nonzero" fill="rgb(100%, 100%, 0%)" fill-opacity="1" d="M 8.082031 7.789062 C 8.082031 7.96875 7.945312 8.113281 7.777344 8.113281 C 7.609375 8.113281 7.472656 7.96875 7.472656 7.789062 C 7.472656 7.609375 7.609375 7.464844 7.777344 7.464844 C 7.945312 7.464844 8.082031 7.609375 8.082031 7.789062 Z M 8.082031 7.789062 "/>
<path fill-rule="nonzero" fill="rgb(100%, 100%, 0%)" fill-opacity="1" d="M 8.648438 7.21875 C 8.648438 7.398438 8.511719 7.542969 8.34375 7.542969 C 8.179688 7.542969 8.039062 7.398438 8.039062 7.21875 C 8.039062 7.042969 8.179688 6.898438 8.34375 6.898438 C 8.511719 6.898438 8.648438 7.042969 8.648438 7.21875 Z M 8.648438 7.21875 "/>
<path fill-rule="nonzero" fill="rgb(100%, 100%, 0%)" fill-opacity="1" d="M 9.136719 6.570312 C 9.136719 6.75 9 6.894531 8.835938 6.894531 C 8.667969 6.894531 8.53125 6.75 8.53125 6.570312 C 8.53125 6.390625 8.667969 6.25 8.835938 6.25 C 9 6.25 9.136719 6.390625 9.136719 6.570312 Z M 9.136719 6.570312 "/>
<path fill-rule="nonzero" fill="rgb(100%, 100%, 0%)" fill-opacity="1" d="M 9.707031 6.003906 C 9.707031 6.179688 9.570312 6.324219 9.40625 6.324219 C 9.234375 6.324219 9.097656 6.179688 9.097656 6.003906 C 9.097656 5.824219 9.234375 5.679688 9.40625 5.679688 C 9.570312 5.679688 9.707031 5.824219 9.707031 6.003906 Z M 9.707031 6.003906 "/>
</svg>
