<?xml version="1.0" encoding="UTF-8"?>
<svg xmlns="http://www.w3.org/2000/svg" xmlns:xlink="http://www.w3.org/1999/xlink" width="15" height="15" viewBox="0 0 15 15">
<path fill-rule="nonzero" fill="rgb(100%, 100%, 100%)" fill-opacity="1" stroke-width="10" stroke-linecap="butt" stroke-linejoin="miter" stroke="rgb(100%, 0%, 0%)" stroke-opacity="1" stroke-miterlimit="4" d="M 5.013021 5.013021 L 5.013021 148.986979 L 148.986979 148.986979 L 148.986979 5.013021 Z M 5.013021 5.013021 " transform="matrix(0.0974026, 0, 0, 0.0974026, 0, 0)"/>
<path fill-rule="nonzero" fill="rgb(100%, 0%, 0%)" fill-opacity="1" d="M 4.359375 2.324219 L 5.761719 2.324219 L 5.761719 12.144531 L 4.359375 12.144531 L 4.359375 3.726562 L 2.960938 5.132812 L 2.960938 3.726562 L 4.359375 2.324219 "/>
<path fill-rule="nonzero" fill="rgb(100%, 0%, 0%)" fill-opacity="1" d="M 8.460938 2.945312 C 8.871094 2.53125 9.367188 2.324219 9.949219 2.324219 C 10.527344 2.324219 11.023438 2.53125 11.433594 2.945312 C 11.84375 3.359375 12.050781 3.851562 12.050781 4.433594 L 12.050781 10.042969 C 12.050781 10.621094 11.84375 11.117188 11.433594 11.527344 C 11.023438 11.9375 10.527344 12.144531 9.949219 12.144531 C 9.367188 12.144531 8.871094 11.9375 8.460938 11.527344 C 8.050781 11.117188 7.84375 10.621094 7.84375 10.042969 L 7.84375 4.433594 C 7.84375 3.851562 8.050781 3.359375 8.460938 2.945312 M 10.441406 3.933594 C 10.308594 3.796875 10.144531 3.726562 9.949219 3.726562 C 9.75 3.726562 9.585938 3.796875 9.449219 3.933594 C 9.3125 4.070312 9.242188 4.238281 9.242188 4.433594 L 9.242188 10.042969 C 9.242188 10.238281 9.3125 10.40625 9.449219 10.542969 C 9.585938 10.675781 9.75 10.742188 9.949219 10.742188 C 10.144531 10.742188 10.308594 10.675781 10.441406 10.542969 C 10.578125 10.40625 10.648438 10.238281 10.648438 10.042969 L 10.648438 4.433594 C 10.648438 4.238281 10.578125 4.070312 10.441406 3.933594 "/>
</svg>
