<?xml version="1.0" encoding="UTF-8"?>
<svg xmlns="http://www.w3.org/2000/svg" xmlns:xlink="http://www.w3.org/1999/xlink" width="15" height="15" viewBox="0 0 15 15">
<path fill-rule="nonzero" fill="rgb(0%, 0%, 0%)" fill-opacity="1" stroke-width="10" stroke-linecap="butt" stroke-linejoin="miter" stroke="rgb(100%, 100%, 100%)" stroke-opacity="1" stroke-miterlimit="4" d="M 8 8 L 8 152 L 152 152 L 152 8 Z M 8 8 " transform="matrix(0.09375, 0, 0, 0.09375, 0, 0)"/>
<path fill-rule="nonzero" fill="rgb(100%, 100%, 100%)" fill-opacity="1" d="M 10.613281 11.117188 L 10.613281 12.226562 L 4.390625 12.226562 C 4.378906 11.949219 4.425781 11.679688 4.523438 11.421875 C 4.683594 11 4.9375 10.582031 5.285156 10.171875 C 5.632812 9.761719 6.136719 9.285156 6.796875 8.746094 C 7.820312 7.90625 8.511719 7.242188 8.871094 6.75 C 9.230469 6.261719 9.410156 5.796875 9.410156 5.363281 C 9.410156 4.902344 9.246094 4.515625 8.917969 4.203125 C 8.59375 3.886719 8.164062 3.730469 7.636719 3.730469 C 7.082031 3.730469 6.636719 3.898438 6.304688 4.230469 C 5.96875 4.566406 5.800781 5.027344 5.796875 5.617188 L 4.609375 5.496094 C 4.6875 4.609375 4.996094 3.933594 5.527344 3.46875 C 6.058594 3.007812 6.769531 2.773438 7.664062 2.773438 C 8.566406 2.773438 9.28125 3.023438 9.808594 3.523438 C 10.335938 4.027344 10.597656 4.648438 10.597656 5.386719 C 10.597656 5.765625 10.523438 6.132812 10.367188 6.5 C 10.214844 6.863281 9.957031 7.246094 9.601562 7.648438 C 9.242188 8.050781 8.648438 8.601562 7.820312 9.304688 C 7.125 9.886719 6.679688 10.28125 6.484375 10.488281 C 6.285156 10.695312 6.125 10.90625 5.996094 11.117188 Z M 10.613281 11.117188 "/>
</svg>
