<?xml version="1.0" encoding="UTF-8"?>
<svg xmlns="http://www.w3.org/2000/svg" xmlns:xlink="http://www.w3.org/1999/xlink" width="21.83374" height="19" viewBox="0 0 21.83374 19">
<path fill-rule="nonzero" fill="rgb(95.294118%, 57.254905%, 0%)" fill-opacity="1" d="M 21.835938 0 L 10.914062 19 L 0 0 Z M 21.835938 0 "/>
<path fill-rule="nonzero" fill="rgb(0%, 0%, 0%)" fill-opacity="1" d="M 20.535156 0.792969 L 10.984375 17.328125 L 1.441406 0.792969 Z M 20.535156 0.792969 "/>
<path fill-rule="nonzero" fill="rgb(0%, 0%, 0%)" fill-opacity="1" d="M 10.984375 17.371094 L 10.964844 17.335938 L 1.398438 0.765625 L 20.574219 0.765625 L 20.554688 0.800781 Z M 1.480469 0.8125 L 10.984375 17.28125 L 20.496094 0.8125 Z M 1.480469 0.8125 "/>
<path fill-rule="nonzero" fill="rgb(95.294118%, 57.254905%, 0%)" fill-opacity="1" d="M 8.089844 3.382812 L 8.089844 2.167969 L 14.765625 2.167969 L 14.765625 3.152344 C 14.105469 3.847656 13.457031 4.773438 12.816406 5.933594 C 12.167969 7.09375 11.671875 8.28125 11.320312 9.503906 C 11.0625 10.371094 10.90625 11.316406 10.835938 12.339844 L 9.535156 12.339844 C 9.550781 11.527344 9.707031 10.550781 10.007812 9.402344 C 10.316406 8.253906 10.75 7.144531 11.320312 6.082031 C 11.890625 5.011719 12.5 4.113281 13.140625 3.382812 Z M 8.089844 3.382812 "/>
</svg>
