<?xml version="1.0" encoding="UTF-8"?>
<svg xmlns="http://www.w3.org/2000/svg" xmlns:xlink="http://www.w3.org/1999/xlink" width="15" height="15" viewBox="0 0 15 15">
<path fill-rule="nonzero" fill="rgb(100%, 100%, 100%)" fill-opacity="1" stroke-width="10" stroke-linecap="butt" stroke-linejoin="miter" stroke="rgb(100%, 0%, 0%)" stroke-opacity="1" stroke-miterlimit="4" d="M 5.013021 5.013021 L 5.013021 148.986979 L 148.986979 148.986979 L 148.986979 5.013021 Z M 5.013021 5.013021 " transform="matrix(0.0974026, 0, 0, 0.0974026, 0, 0)"/>
<path fill-rule="nonzero" fill="rgb(100%, 0%, 0%)" fill-opacity="1" d="M 9.074219 11.527344 C 8.664062 11.9375 8.167969 12.144531 7.589844 12.144531 C 7.007812 12.144531 6.515625 11.9375 6.101562 11.527344 C 5.691406 11.117188 5.488281 10.621094 5.488281 10.042969 L 5.488281 9.335938 L 6.882812 9.335938 L 6.882812 10.042969 C 6.882812 10.238281 6.953125 10.40625 7.089844 10.542969 C 7.226562 10.675781 7.394531 10.742188 7.589844 10.742188 C 7.785156 10.742188 7.949219 10.675781 8.082031 10.542969 C 8.21875 10.40625 8.289062 10.238281 8.289062 10.042969 L 8.289062 8.515625 C 8.0625 8.597656 7.832031 8.636719 7.589844 8.636719 C 7.007812 8.636719 6.515625 8.433594 6.101562 8.023438 C 5.691406 7.609375 5.488281 7.117188 5.488281 6.535156 L 5.488281 4.433594 C 5.488281 3.851562 5.691406 3.359375 6.101562 2.945312 C 6.515625 2.53125 7.007812 2.324219 7.589844 2.324219 C 8.167969 2.324219 8.664062 2.53125 9.074219 2.945312 C 9.484375 3.359375 9.691406 3.851562 9.691406 4.433594 L 9.691406 10.042969 C 9.691406 10.621094 9.484375 11.117188 9.074219 11.527344 M 7.089844 7.035156 C 7.226562 7.167969 7.394531 7.234375 7.589844 7.234375 C 7.785156 7.234375 7.949219 7.167969 8.082031 7.035156 C 8.21875 6.898438 8.289062 6.730469 8.289062 6.535156 L 8.289062 4.433594 C 8.289062 4.238281 8.21875 4.070312 8.082031 3.933594 C 7.949219 3.796875 7.785156 3.726562 7.589844 3.726562 C 7.394531 3.726562 7.226562 3.796875 7.089844 3.933594 C 6.953125 4.070312 6.882812 4.238281 6.882812 4.433594 L 6.882812 6.535156 C 6.882812 6.730469 6.953125 6.898438 7.089844 7.035156 "/>
</svg>
