<?xml version="1.0" encoding="UTF-8"?>
<svg xmlns="http://www.w3.org/2000/svg" xmlns:xlink="http://www.w3.org/1999/xlink" width="14.244597" height="14" viewBox="0 0 14.244597 14">
<path fill-rule="nonzero" fill="rgb(0%, 0%, 0%)" fill-opacity="1" stroke-width="1.011478" stroke-linecap="butt" stroke-linejoin="miter" stroke="rgb(0%, 0%, 0%)" stroke-opacity="1" stroke-miterlimit="4" d="M 1716.58154 1909.966177 L 1370.084403 1909.966177 L 1370.084403 1570.895307 L 1715.152096 1570.895307 Z M 1716.58154 1909.966177 " transform="matrix(0.0409906, 0, 0, 0.0411741, -56.141048, -64.660667)"/>
<path fill-rule="nonzero" fill="rgb(100%, 100%, 0%)" fill-opacity="1" d="M 0.222656 3.828125 C 0.222656 3.648438 0.359375 3.503906 0.527344 3.503906 C 0.699219 3.503906 0.835938 3.648438 0.835938 3.828125 C 0.835938 4.007812 0.699219 4.152344 0.527344 4.152344 C 0.359375 4.152344 0.222656 4.007812 0.222656 3.828125 Z M 0.222656 3.828125 "/>
<path fill-rule="nonzero" fill="rgb(100%, 100%, 0%)" fill-opacity="1" d="M 0.710938 4.15625 C 0.710938 3.976562 0.851562 3.832031 1.019531 3.832031 C 1.1875 3.832031 1.324219 3.976562 1.324219 4.15625 C 1.324219 4.335938 1.1875 4.480469 1.019531 4.480469 C 0.851562 4.480469 0.710938 4.335938 0.710938 4.15625 Z M 0.710938 4.15625 "/>
<path fill-rule="nonzero" fill="rgb(100%, 100%, 0%)" fill-opacity="1" d="M 0.710938 3.339844 C 0.710938 3.160156 0.851562 3.011719 1.019531 3.011719 C 1.1875 3.011719 1.324219 3.160156 1.324219 3.339844 C 1.324219 3.515625 1.1875 3.664062 1.019531 3.664062 C 0.851562 3.664062 0.710938 3.515625 0.710938 3.339844 Z M 0.710938 3.339844 "/>
<path fill-rule="nonzero" fill="rgb(100%, 100%, 0%)" fill-opacity="1" d="M 1.039062 3.582031 C 1.039062 3.402344 1.175781 3.257812 1.347656 3.257812 C 1.515625 3.257812 1.652344 3.402344 1.652344 3.582031 C 1.652344 3.761719 1.515625 3.90625 1.347656 3.90625 C 1.175781 3.90625 1.039062 3.761719 1.039062 3.582031 Z M 1.039062 3.582031 "/>
<path fill-rule="nonzero" fill="rgb(100%, 100%, 0%)" fill-opacity="1" d="M 1.203125 2.683594 C 1.203125 2.503906 1.339844 2.359375 1.507812 2.359375 C 1.679688 2.359375 1.816406 2.503906 1.816406 2.683594 C 1.816406 2.863281 1.679688 3.007812 1.507812 3.007812 C 1.339844 3.007812 1.203125 2.863281 1.203125 2.683594 Z M 1.203125 2.683594 "/>
<path fill-rule="nonzero" fill="rgb(100%, 100%, 0%)" fill-opacity="1" d="M 1.53125 3.011719 C 1.53125 2.832031 1.667969 2.6875 1.835938 2.6875 C 2.007812 2.6875 2.144531 2.832031 2.144531 3.011719 C 2.144531 3.191406 2.007812 3.335938 1.835938 3.335938 C 1.667969 3.335938 1.53125 3.191406 1.53125 3.011719 Z M 1.53125 3.011719 "/>
<path fill-rule="nonzero" fill="rgb(100%, 100%, 0%)" fill-opacity="1" d="M 1.695312 2.191406 C 1.695312 2.015625 1.832031 1.867188 2 1.867188 C 2.167969 1.867188 2.308594 2.015625 2.308594 2.191406 C 2.308594 2.371094 2.167969 2.519531 2 2.519531 C 1.832031 2.519531 1.695312 2.371094 1.695312 2.191406 Z M 1.695312 2.191406 "/>
<path fill-rule="nonzero" fill="rgb(100%, 100%, 0%)" fill-opacity="1" d="M 1.9375 2.519531 C 1.9375 2.339844 2.078125 2.195312 2.246094 2.195312 C 2.414062 2.195312 2.550781 2.339844 2.550781 2.519531 C 2.550781 2.699219 2.414062 2.84375 2.246094 2.84375 C 2.078125 2.84375 1.9375 2.699219 1.9375 2.519531 Z M 1.9375 2.519531 "/>
<path fill-rule="nonzero" fill="rgb(100%, 100%, 0%)" fill-opacity="1" d="M 2.019531 1.621094 C 2.019531 1.441406 2.160156 1.296875 2.328125 1.296875 C 2.496094 1.296875 2.632812 1.441406 2.632812 1.621094 C 2.632812 1.800781 2.496094 1.945312 2.328125 1.945312 C 2.160156 1.945312 2.019531 1.800781 2.019531 1.621094 Z M 2.019531 1.621094 "/>
<path fill-rule="nonzero" fill="rgb(100%, 100%, 0%)" fill-opacity="1" d="M 2.347656 1.949219 C 2.347656 1.769531 2.484375 1.621094 2.65625 1.621094 C 2.824219 1.621094 2.960938 1.769531 2.960938 1.949219 C 2.960938 2.128906 2.824219 2.273438 2.65625 2.273438 C 2.484375 2.273438 2.347656 2.128906 2.347656 1.949219 Z M 2.347656 1.949219 "/>
<path fill-rule="nonzero" fill="rgb(100%, 100%, 0%)" fill-opacity="1" d="M 2.511719 1.210938 C 2.511719 1.03125 2.648438 0.886719 2.816406 0.886719 C 2.988281 0.886719 3.125 1.03125 3.125 1.210938 C 3.125 1.390625 2.988281 1.535156 2.816406 1.535156 C 2.648438 1.535156 2.511719 1.390625 2.511719 1.210938 Z M 2.511719 1.210938 "/>
<path fill-rule="nonzero" fill="rgb(100%, 100%, 0%)" fill-opacity="1" d="M 3.003906 0.558594 C 3.003906 0.378906 3.140625 0.234375 3.308594 0.234375 C 3.476562 0.234375 3.617188 0.378906 3.617188 0.558594 C 3.617188 0.738281 3.476562 0.882812 3.308594 0.882812 C 3.140625 0.882812 3.003906 0.738281 3.003906 0.558594 Z M 3.003906 0.558594 "/>
<path fill-rule="nonzero" fill="rgb(100%, 100%, 0%)" fill-opacity="1" d="M 3.003906 1.457031 C 3.003906 1.277344 3.140625 1.132812 3.308594 1.132812 C 3.476562 1.132812 3.617188 1.277344 3.617188 1.457031 C 3.617188 1.636719 3.476562 1.78125 3.308594 1.78125 C 3.140625 1.78125 3.003906 1.636719 3.003906 1.457031 Z M 3.003906 1.457031 "/>
<path fill-rule="nonzero" fill="rgb(100%, 100%, 0%)" fill-opacity="1" d="M 3.003906 2.109375 C 3.003906 1.933594 3.140625 1.785156 3.308594 1.785156 C 3.476562 1.785156 3.617188 1.933594 3.617188 2.109375 C 3.617188 2.289062 3.476562 2.4375 3.308594 2.4375 C 3.140625 2.4375 3.003906 2.289062 3.003906 2.109375 Z M 3.003906 2.109375 "/>
<path fill-rule="nonzero" fill="rgb(100%, 100%, 0%)" fill-opacity="1" d="M 3.003906 2.929688 C 3.003906 2.75 3.140625 2.605469 3.308594 2.605469 C 3.476562 2.605469 3.617188 2.75 3.617188 2.929688 C 3.617188 3.109375 3.476562 3.253906 3.308594 3.253906 C 3.140625 3.253906 3.003906 3.109375 3.003906 2.929688 Z M 3.003906 2.929688 "/>
<path fill-rule="nonzero" fill="rgb(100%, 100%, 0%)" fill-opacity="1" d="M 3.003906 3.746094 C 3.003906 3.566406 3.140625 3.421875 3.308594 3.421875 C 3.476562 3.421875 3.617188 3.566406 3.617188 3.746094 C 3.617188 3.925781 3.476562 4.070312 3.308594 4.070312 C 3.140625 4.070312 3.003906 3.925781 3.003906 3.746094 Z M 3.003906 3.746094 "/>
<path fill-rule="nonzero" fill="rgb(100%, 100%, 0%)" fill-opacity="1" d="M 3.003906 4.484375 C 3.003906 4.304688 3.140625 4.15625 3.308594 4.15625 C 3.476562 4.15625 3.617188 4.304688 3.617188 4.484375 C 3.617188 4.664062 3.476562 4.808594 3.308594 4.808594 C 3.140625 4.808594 3.003906 4.664062 3.003906 4.484375 Z M 3.003906 4.484375 "/>
<path fill-rule="nonzero" fill="rgb(100%, 100%, 0%)" fill-opacity="1" d="M 3.003906 5.300781 C 3.003906 5.121094 3.140625 4.976562 3.308594 4.976562 C 3.476562 4.976562 3.617188 5.121094 3.617188 5.300781 C 3.617188 5.480469 3.476562 5.625 3.308594 5.625 C 3.140625 5.625 3.003906 5.480469 3.003906 5.300781 Z M 3.003906 5.300781 "/>
<path fill-rule="nonzero" fill="rgb(100%, 100%, 0%)" fill-opacity="1" d="M 3.003906 6.035156 C 3.003906 5.855469 3.140625 5.710938 3.308594 5.710938 C 3.476562 5.710938 3.617188 5.855469 3.617188 6.035156 C 3.617188 6.214844 3.476562 6.363281 3.308594 6.363281 C 3.140625 6.363281 3.003906 6.214844 3.003906 6.035156 Z M 3.003906 6.035156 "/>
<path fill-rule="nonzero" fill="rgb(100%, 100%, 0%)" fill-opacity="1" d="M 3.003906 6.855469 C 3.003906 6.675781 3.140625 6.53125 3.308594 6.53125 C 3.476562 6.53125 3.617188 6.675781 3.617188 6.855469 C 3.617188 7.035156 3.476562 7.179688 3.308594 7.179688 C 3.140625 7.179688 3.003906 7.035156 3.003906 6.855469 Z M 3.003906 6.855469 "/>
<path fill-rule="nonzero" fill="rgb(100%, 100%, 0%)" fill-opacity="1" d="M 3.003906 7.753906 C 3.003906 7.574219 3.140625 7.429688 3.308594 7.429688 C 3.476562 7.429688 3.617188 7.574219 3.617188 7.753906 C 3.617188 7.933594 3.476562 8.078125 3.308594 8.078125 C 3.140625 8.078125 3.003906 7.933594 3.003906 7.753906 Z M 3.003906 7.753906 "/>
<path fill-rule="nonzero" fill="rgb(100%, 100%, 0%)" fill-opacity="1" d="M 3.003906 8.570312 C 3.003906 8.390625 3.140625 8.246094 3.308594 8.246094 C 3.476562 8.246094 3.617188 8.390625 3.617188 8.570312 C 3.617188 8.75 3.476562 8.898438 3.308594 8.898438 C 3.140625 8.898438 3.003906 8.75 3.003906 8.570312 Z M 3.003906 8.570312 "/>
<path fill-rule="nonzero" fill="rgb(100%, 100%, 0%)" fill-opacity="1" d="M 3.003906 9.390625 C 3.003906 9.210938 3.140625 9.066406 3.308594 9.066406 C 3.476562 9.066406 3.617188 9.210938 3.617188 9.390625 C 3.617188 9.570312 3.476562 9.714844 3.308594 9.714844 C 3.140625 9.714844 3.003906 9.570312 3.003906 9.390625 Z M 3.003906 9.390625 "/>
<path fill-rule="nonzero" fill="rgb(100%, 100%, 0%)" fill-opacity="1" d="M 3.003906 10.289062 C 3.003906 10.109375 3.140625 9.964844 3.308594 9.964844 C 3.476562 9.964844 3.617188 10.109375 3.617188 10.289062 C 3.617188 10.46875 3.476562 10.613281 3.308594 10.613281 C 3.140625 10.613281 3.003906 10.46875 3.003906 10.289062 Z M 3.003906 10.289062 "/>
<path fill-rule="nonzero" fill="rgb(100%, 100%, 0%)" fill-opacity="1" d="M 3.003906 11.023438 C 3.003906 10.847656 3.140625 10.699219 3.308594 10.699219 C 3.476562 10.699219 3.617188 10.847656 3.617188 11.023438 C 3.617188 11.203125 3.476562 11.351562 3.308594 11.351562 C 3.140625 11.351562 3.003906 11.203125 3.003906 11.023438 Z M 3.003906 11.023438 "/>
<path fill-rule="nonzero" fill="rgb(100%, 100%, 0%)" fill-opacity="1" d="M 3.003906 11.761719 C 3.003906 11.582031 3.140625 11.4375 3.308594 11.4375 C 3.476562 11.4375 3.617188 11.582031 3.617188 11.761719 C 3.617188 11.941406 3.476562 12.085938 3.308594 12.085938 C 3.140625 12.085938 3.003906 11.941406 3.003906 11.761719 Z M 3.003906 11.761719 "/>
<path fill-rule="nonzero" fill="rgb(100%, 100%, 0%)" fill-opacity="1" d="M 3.003906 12.496094 C 3.003906 12.316406 3.140625 12.171875 3.308594 12.171875 C 3.476562 12.171875 3.617188 12.316406 3.617188 12.496094 C 3.617188 12.675781 3.476562 12.820312 3.308594 12.820312 C 3.140625 12.820312 3.003906 12.675781 3.003906 12.496094 Z M 3.003906 12.496094 "/>
<path fill-rule="nonzero" fill="rgb(100%, 100%, 0%)" fill-opacity="1" d="M 3.003906 13.234375 C 3.003906 13.054688 3.140625 12.910156 3.308594 12.910156 C 3.476562 12.910156 3.617188 13.054688 3.617188 13.234375 C 3.617188 13.414062 3.476562 13.558594 3.308594 13.558594 C 3.140625 13.558594 3.003906 13.414062 3.003906 13.234375 Z M 3.003906 13.234375 "/>
<path fill-rule="nonzero" fill="rgb(100%, 100%, 0%)" fill-opacity="1" d="M 3.574219 13.234375 C 3.574219 13.054688 3.710938 12.910156 3.882812 12.910156 C 4.050781 12.910156 4.1875 13.054688 4.1875 13.234375 C 4.1875 13.414062 4.050781 13.558594 3.882812 13.558594 C 3.710938 13.558594 3.574219 13.414062 3.574219 13.234375 Z M 3.574219 13.234375 "/>
<path fill-rule="nonzero" fill="rgb(100%, 100%, 0%)" fill-opacity="1" d="M 3.574219 12.496094 C 3.574219 12.316406 3.710938 12.171875 3.882812 12.171875 C 4.050781 12.171875 4.1875 12.316406 4.1875 12.496094 C 4.1875 12.675781 4.050781 12.820312 3.882812 12.820312 C 3.710938 12.820312 3.574219 12.675781 3.574219 12.496094 Z M 3.574219 12.496094 "/>
<path fill-rule="nonzero" fill="rgb(100%, 100%, 0%)" fill-opacity="1" d="M 3.574219 11.761719 C 3.574219 11.582031 3.710938 11.4375 3.882812 11.4375 C 4.050781 11.4375 4.1875 11.582031 4.1875 11.761719 C 4.1875 11.941406 4.050781 12.085938 3.882812 12.085938 C 3.710938 12.085938 3.574219 11.941406 3.574219 11.761719 Z M 3.574219 11.761719 "/>
<path fill-rule="nonzero" fill="rgb(100%, 100%, 0%)" fill-opacity="1" d="M 3.574219 11.023438 C 3.574219 10.847656 3.710938 10.699219 3.882812 10.699219 C 4.050781 10.699219 4.1875 10.847656 4.1875 11.023438 C 4.1875 11.203125 4.050781 11.351562 3.882812 11.351562 C 3.710938 11.351562 3.574219 11.203125 3.574219 11.023438 Z M 3.574219 11.023438 "/>
<path fill-rule="nonzero" fill="rgb(100%, 100%, 0%)" fill-opacity="1" d="M 3.574219 10.289062 C 3.574219 10.109375 3.710938 9.964844 3.882812 9.964844 C 4.050781 9.964844 4.1875 10.109375 4.1875 10.289062 C 4.1875 10.46875 4.050781 10.613281 3.882812 10.613281 C 3.710938 10.613281 3.574219 10.46875 3.574219 10.289062 Z M 3.574219 10.289062 "/>
<path fill-rule="nonzero" fill="rgb(100%, 100%, 0%)" fill-opacity="1" d="M 3.574219 9.390625 C 3.574219 9.210938 3.710938 9.066406 3.882812 9.066406 C 4.050781 9.066406 4.1875 9.210938 4.1875 9.390625 C 4.1875 9.570312 4.050781 9.714844 3.882812 9.714844 C 3.710938 9.714844 3.574219 9.570312 3.574219 9.390625 Z M 3.574219 9.390625 "/>
<path fill-rule="nonzero" fill="rgb(100%, 100%, 0%)" fill-opacity="1" d="M 3.574219 8.570312 C 3.574219 8.390625 3.710938 8.246094 3.882812 8.246094 C 4.050781 8.246094 4.1875 8.390625 4.1875 8.570312 C 4.1875 8.75 4.050781 8.898438 3.882812 8.898438 C 3.710938 8.898438 3.574219 8.75 3.574219 8.570312 Z M 3.574219 8.570312 "/>
<path fill-rule="nonzero" fill="rgb(100%, 100%, 0%)" fill-opacity="1" d="M 3.574219 7.753906 C 3.574219 7.574219 3.710938 7.429688 3.882812 7.429688 C 4.050781 7.429688 4.1875 7.574219 4.1875 7.753906 C 4.1875 7.933594 4.050781 8.078125 3.882812 8.078125 C 3.710938 8.078125 3.574219 7.933594 3.574219 7.753906 Z M 3.574219 7.753906 "/>
<path fill-rule="nonzero" fill="rgb(100%, 100%, 0%)" fill-opacity="1" d="M 3.574219 6.855469 C 3.574219 6.675781 3.710938 6.53125 3.882812 6.53125 C 4.050781 6.53125 4.1875 6.675781 4.1875 6.855469 C 4.1875 7.035156 4.050781 7.179688 3.882812 7.179688 C 3.710938 7.179688 3.574219 7.035156 3.574219 6.855469 Z M 3.574219 6.855469 "/>
<path fill-rule="nonzero" fill="rgb(100%, 100%, 0%)" fill-opacity="1" d="M 3.574219 6.035156 C 3.574219 5.855469 3.710938 5.710938 3.882812 5.710938 C 4.050781 5.710938 4.1875 5.855469 4.1875 6.035156 C 4.1875 6.214844 4.050781 6.363281 3.882812 6.363281 C 3.710938 6.363281 3.574219 6.214844 3.574219 6.035156 Z M 3.574219 6.035156 "/>
<path fill-rule="nonzero" fill="rgb(100%, 100%, 0%)" fill-opacity="1" d="M 3.574219 5.300781 C 3.574219 5.121094 3.710938 4.976562 3.882812 4.976562 C 4.050781 4.976562 4.1875 5.121094 4.1875 5.300781 C 4.1875 5.480469 4.050781 5.625 3.882812 5.625 C 3.710938 5.625 3.574219 5.480469 3.574219 5.300781 Z M 3.574219 5.300781 "/>
<path fill-rule="nonzero" fill="rgb(100%, 100%, 0%)" fill-opacity="1" d="M 3.574219 4.484375 C 3.574219 4.304688 3.710938 4.15625 3.882812 4.15625 C 4.050781 4.15625 4.1875 4.304688 4.1875 4.484375 C 4.1875 4.664062 4.050781 4.808594 3.882812 4.808594 C 3.710938 4.808594 3.574219 4.664062 3.574219 4.484375 Z M 3.574219 4.484375 "/>
<path fill-rule="nonzero" fill="rgb(100%, 100%, 0%)" fill-opacity="1" d="M 3.574219 3.746094 C 3.574219 3.566406 3.710938 3.421875 3.882812 3.421875 C 4.050781 3.421875 4.1875 3.566406 4.1875 3.746094 C 4.1875 3.925781 4.050781 4.070312 3.882812 4.070312 C 3.710938 4.070312 3.574219 3.925781 3.574219 3.746094 Z M 3.574219 3.746094 "/>
<path fill-rule="nonzero" fill="rgb(100%, 100%, 0%)" fill-opacity="1" d="M 3.574219 2.929688 C 3.574219 2.75 3.710938 2.605469 3.882812 2.605469 C 4.050781 2.605469 4.1875 2.75 4.1875 2.929688 C 4.1875 3.109375 4.050781 3.253906 3.882812 3.253906 C 3.710938 3.253906 3.574219 3.109375 3.574219 2.929688 Z M 3.574219 2.929688 "/>
<path fill-rule="nonzero" fill="rgb(100%, 100%, 0%)" fill-opacity="1" d="M 3.574219 2.109375 C 3.574219 1.933594 3.710938 1.785156 3.882812 1.785156 C 4.050781 1.785156 4.1875 1.933594 4.1875 2.109375 C 4.1875 2.289062 4.050781 2.4375 3.882812 2.4375 C 3.710938 2.4375 3.574219 2.289062 3.574219 2.109375 Z M 3.574219 2.109375 "/>
<path fill-rule="nonzero" fill="rgb(100%, 100%, 0%)" fill-opacity="1" d="M 3.574219 1.457031 C 3.574219 1.277344 3.710938 1.132812 3.882812 1.132812 C 4.050781 1.132812 4.1875 1.277344 4.1875 1.457031 C 4.1875 1.636719 4.050781 1.78125 3.882812 1.78125 C 3.710938 1.78125 3.574219 1.636719 3.574219 1.457031 Z M 3.574219 1.457031 "/>
<path fill-rule="nonzero" fill="rgb(100%, 100%, 0%)" fill-opacity="1" d="M 3.574219 0.558594 C 3.574219 0.378906 3.710938 0.234375 3.882812 0.234375 C 4.050781 0.234375 4.1875 0.378906 4.1875 0.558594 C 4.1875 0.738281 4.050781 0.882812 3.882812 0.882812 C 3.710938 0.882812 3.574219 0.738281 3.574219 0.558594 Z M 3.574219 0.558594 "/>
<path fill-rule="nonzero" fill="rgb(100%, 100%, 0%)" fill-opacity="1" d="M 6.527344 1.636719 C 6.527344 1.808594 6.390625 1.945312 6.21875 1.945312 C 6.046875 1.945312 5.910156 1.808594 5.910156 1.636719 C 5.910156 1.46875 6.046875 1.328125 6.21875 1.328125 C 6.390625 1.328125 6.527344 1.46875 6.527344 1.636719 Z M 6.527344 1.636719 "/>
<path fill-rule="nonzero" fill="rgb(100%, 100%, 0%)" fill-opacity="1" d="M 6.882812 2.003906 C 6.882812 2.175781 6.746094 2.3125 6.574219 2.3125 C 6.40625 2.3125 6.265625 2.175781 6.265625 2.003906 C 6.265625 1.835938 6.40625 1.695312 6.574219 1.695312 C 6.746094 1.695312 6.882812 1.835938 6.882812 2.003906 Z M 6.882812 2.003906 "/>
<path fill-rule="nonzero" fill="rgb(100%, 100%, 0%)" fill-opacity="1" d="M 7.269531 1.15625 C 7.269531 1.324219 7.132812 1.464844 6.960938 1.464844 C 6.792969 1.464844 6.65625 1.324219 6.65625 1.15625 C 6.65625 0.984375 6.792969 0.847656 6.960938 0.847656 C 7.132812 0.847656 7.269531 0.984375 7.269531 1.15625 Z M 7.269531 1.15625 "/>
<path fill-rule="nonzero" fill="rgb(100%, 100%, 0%)" fill-opacity="1" d="M 7.492188 1.511719 C 7.492188 1.683594 7.351562 1.820312 7.183594 1.820312 C 7.011719 1.820312 6.875 1.683594 6.875 1.511719 C 6.875 1.34375 7.011719 1.203125 7.183594 1.203125 C 7.351562 1.203125 7.492188 1.34375 7.492188 1.511719 Z M 7.492188 1.511719 "/>
<path fill-rule="nonzero" fill="rgb(100%, 100%, 0%)" fill-opacity="1" d="M 9.691406 0.894531 C 9.691406 1.0625 9.554688 1.203125 9.382812 1.203125 C 9.210938 1.203125 9.074219 1.0625 9.074219 0.894531 C 9.074219 0.722656 9.210938 0.585938 9.382812 0.585938 C 9.554688 0.585938 9.691406 0.722656 9.691406 0.894531 Z M 9.691406 0.894531 "/>
<path fill-rule="nonzero" fill="rgb(100%, 100%, 0%)" fill-opacity="1" d="M 9.742188 0.464844 C 9.742188 0.632812 9.605469 0.773438 9.433594 0.773438 C 9.265625 0.773438 9.128906 0.632812 9.128906 0.464844 C 9.128906 0.292969 9.265625 0.15625 9.433594 0.15625 C 9.605469 0.15625 9.742188 0.292969 9.742188 0.464844 Z M 9.742188 0.464844 "/>
<path fill-rule="nonzero" fill="rgb(100%, 100%, 0%)" fill-opacity="1" d="M 8.914062 0.976562 C 8.914062 1.148438 8.777344 1.285156 8.605469 1.285156 C 8.4375 1.285156 8.300781 1.148438 8.300781 0.976562 C 8.300781 0.808594 8.4375 0.667969 8.605469 0.667969 C 8.777344 0.667969 8.914062 0.808594 8.914062 0.976562 Z M 8.914062 0.976562 "/>
<path fill-rule="nonzero" fill="rgb(100%, 100%, 0%)" fill-opacity="1" d="M 8.832031 0.558594 C 8.832031 0.730469 8.695312 0.867188 8.523438 0.867188 C 8.351562 0.867188 8.214844 0.730469 8.214844 0.558594 C 8.214844 0.386719 8.351562 0.25 8.523438 0.25 C 8.695312 0.25 8.832031 0.386719 8.832031 0.558594 Z M 8.832031 0.558594 "/>
<path fill-rule="nonzero" fill="rgb(100%, 100%, 0%)" fill-opacity="1" d="M 8.140625 1.207031 C 8.140625 1.378906 8.003906 1.515625 7.832031 1.515625 C 7.660156 1.515625 7.523438 1.378906 7.523438 1.207031 C 7.523438 1.039062 7.660156 0.898438 7.832031 0.898438 C 8.003906 0.898438 8.140625 1.039062 8.140625 1.207031 Z M 8.140625 1.207031 "/>
<path fill-rule="nonzero" fill="rgb(100%, 100%, 0%)" fill-opacity="1" d="M 7.992188 0.839844 C 7.992188 1.011719 7.855469 1.148438 7.683594 1.148438 C 7.515625 1.148438 7.378906 1.011719 7.378906 0.839844 C 7.378906 0.671875 7.515625 0.535156 7.683594 0.535156 C 7.855469 0.535156 7.992188 0.671875 7.992188 0.839844 Z M 7.992188 0.839844 "/>
<path fill-rule="nonzero" fill="rgb(100%, 100%, 0%)" fill-opacity="1" d="M 10.519531 0.609375 C 10.519531 0.78125 10.378906 0.917969 10.210938 0.917969 C 10.039062 0.917969 9.902344 0.78125 9.902344 0.609375 C 9.902344 0.441406 10.039062 0.304688 10.210938 0.304688 C 10.378906 0.304688 10.519531 0.441406 10.519531 0.609375 Z M 10.519531 0.609375 "/>
<path fill-rule="nonzero" fill="rgb(100%, 100%, 0%)" fill-opacity="1" d="M 10.339844 0.96875 C 10.339844 1.136719 10.203125 1.273438 10.03125 1.273438 C 9.863281 1.273438 9.722656 1.136719 9.722656 0.96875 C 9.722656 0.796875 9.863281 0.660156 10.03125 0.660156 C 10.203125 0.660156 10.339844 0.796875 10.339844 0.96875 Z M 10.339844 0.96875 "/>
<path fill-rule="nonzero" fill="rgb(100%, 100%, 0%)" fill-opacity="1" d="M 11.195312 0.859375 C 11.195312 1.03125 11.054688 1.167969 10.886719 1.167969 C 10.714844 1.167969 10.578125 1.03125 10.578125 0.859375 C 10.578125 0.691406 10.714844 0.554688 10.886719 0.554688 C 11.054688 0.554688 11.195312 0.691406 11.195312 0.859375 Z M 11.195312 0.859375 "/>
<path fill-rule="nonzero" fill="rgb(100%, 100%, 0%)" fill-opacity="1" d="M 12.175781 4.582031 C 12.175781 4.753906 12.035156 4.890625 11.867188 4.890625 C 11.695312 4.890625 11.558594 4.753906 11.558594 4.582031 C 11.558594 4.414062 11.695312 4.273438 11.867188 4.273438 C 12.035156 4.273438 12.175781 4.414062 12.175781 4.582031 Z M 12.175781 4.582031 "/>
<path fill-rule="nonzero" fill="rgb(100%, 100%, 0%)" fill-opacity="1" d="M 12.292969 3.960938 C 12.292969 4.128906 12.15625 4.269531 11.988281 4.269531 C 11.816406 4.269531 11.679688 4.128906 11.679688 3.960938 C 11.679688 3.789062 11.816406 3.652344 11.988281 3.652344 C 12.15625 3.652344 12.292969 3.789062 12.292969 3.960938 Z M 12.292969 3.960938 "/>
<path fill-rule="nonzero" fill="rgb(100%, 100%, 0%)" fill-opacity="1" d="M 12.773438 3.972656 C 12.773438 4.144531 12.636719 4.28125 12.464844 4.28125 C 12.296875 4.28125 12.15625 4.144531 12.15625 3.972656 C 12.15625 3.800781 12.296875 3.664062 12.464844 3.664062 C 12.636719 3.664062 12.773438 3.800781 12.773438 3.972656 Z M 12.773438 3.972656 "/>
<path fill-rule="nonzero" fill="rgb(100%, 100%, 0%)" fill-opacity="1" d="M 12.34375 3.277344 C 12.34375 3.449219 12.203125 3.585938 12.035156 3.585938 C 11.863281 3.585938 11.726562 3.449219 11.726562 3.277344 C 11.726562 3.109375 11.863281 2.96875 12.035156 2.96875 C 12.203125 2.96875 12.34375 3.109375 12.34375 3.277344 Z M 12.34375 3.277344 "/>
<path fill-rule="nonzero" fill="rgb(100%, 100%, 0%)" fill-opacity="1" d="M 12.761719 3.242188 C 12.761719 3.414062 12.625 3.550781 12.453125 3.550781 C 12.28125 3.550781 12.144531 3.414062 12.144531 3.242188 C 12.144531 3.074219 12.28125 2.933594 12.453125 2.933594 C 12.625 2.933594 12.761719 3.074219 12.761719 3.242188 Z M 12.761719 3.242188 "/>
<path fill-rule="nonzero" fill="rgb(100%, 100%, 0%)" fill-opacity="1" d="M 12.175781 2.644531 C 12.175781 2.8125 12.035156 2.953125 11.867188 2.953125 C 11.695312 2.953125 11.558594 2.8125 11.558594 2.644531 C 11.558594 2.472656 11.695312 2.335938 11.867188 2.335938 C 12.035156 2.335938 12.175781 2.472656 12.175781 2.644531 Z M 12.175781 2.644531 "/>
<path fill-rule="nonzero" fill="rgb(100%, 100%, 0%)" fill-opacity="1" d="M 12.59375 2.558594 C 12.59375 2.730469 12.457031 2.867188 12.285156 2.867188 C 12.117188 2.867188 11.976562 2.730469 11.976562 2.558594 C 11.976562 2.390625 12.117188 2.253906 12.285156 2.253906 C 12.457031 2.253906 12.59375 2.390625 12.59375 2.558594 Z M 12.59375 2.558594 "/>
<path fill-rule="nonzero" fill="rgb(100%, 100%, 0%)" fill-opacity="1" d="M 11.921875 2.164062 C 11.921875 2.335938 11.785156 2.472656 11.617188 2.472656 C 11.445312 2.472656 11.308594 2.335938 11.308594 2.164062 C 11.308594 1.996094 11.445312 1.855469 11.617188 1.855469 C 11.785156 1.855469 11.921875 1.996094 11.921875 2.164062 Z M 11.921875 2.164062 "/>
<path fill-rule="nonzero" fill="rgb(100%, 100%, 0%)" fill-opacity="1" d="M 12.269531 1.878906 C 12.269531 2.046875 12.132812 2.1875 11.960938 2.1875 C 11.792969 2.1875 11.65625 2.046875 11.65625 1.878906 C 11.65625 1.707031 11.792969 1.570312 11.960938 1.570312 C 12.132812 1.570312 12.269531 1.707031 12.269531 1.878906 Z M 12.269531 1.878906 "/>
<path fill-rule="nonzero" fill="rgb(100%, 100%, 0%)" fill-opacity="1" d="M 11.457031 1.613281 C 11.457031 1.785156 11.320312 1.921875 11.148438 1.921875 C 10.980469 1.921875 10.839844 1.785156 10.839844 1.613281 C 10.839844 1.445312 10.980469 1.308594 11.148438 1.308594 C 11.320312 1.308594 11.457031 1.445312 11.457031 1.613281 Z M 11.457031 1.613281 "/>
<path fill-rule="nonzero" fill="rgb(100%, 100%, 0%)" fill-opacity="1" d="M 11.792969 1.316406 C 11.792969 1.484375 11.652344 1.625 11.484375 1.625 C 11.3125 1.625 11.175781 1.484375 11.175781 1.316406 C 11.175781 1.144531 11.3125 1.007812 11.484375 1.007812 C 11.652344 1.007812 11.792969 1.144531 11.792969 1.316406 Z M 11.792969 1.316406 "/>
<path fill-rule="nonzero" fill="rgb(100%, 100%, 0%)" fill-opacity="1" d="M 10.917969 1.242188 C 10.917969 1.414062 10.78125 1.550781 10.609375 1.550781 C 10.441406 1.550781 10.300781 1.414062 10.300781 1.242188 C 10.300781 1.074219 10.441406 0.9375 10.609375 0.9375 C 10.78125 0.9375 10.917969 1.074219 10.917969 1.242188 Z M 10.917969 1.242188 "/>
<path fill-rule="nonzero" fill="rgb(100%, 100%, 0%)" fill-opacity="1" d="M 12.089844 7.789062 C 12.089844 7.960938 11.953125 8.097656 11.78125 8.097656 C 11.613281 8.097656 11.476562 7.960938 11.476562 7.789062 C 11.476562 7.621094 11.613281 7.480469 11.78125 7.480469 C 11.953125 7.480469 12.089844 7.621094 12.089844 7.789062 Z M 12.089844 7.789062 "/>
<path fill-rule="nonzero" fill="rgb(100%, 100%, 0%)" fill-opacity="1" d="M 12.460938 7.429688 C 12.460938 7.601562 12.324219 7.738281 12.152344 7.738281 C 11.984375 7.738281 11.847656 7.601562 11.847656 7.429688 C 11.847656 7.261719 11.984375 7.125 12.152344 7.125 C 12.324219 7.125 12.460938 7.261719 12.460938 7.429688 Z M 12.460938 7.429688 "/>
<path fill-rule="nonzero" fill="rgb(100%, 100%, 0%)" fill-opacity="1" d="M 11.445312 7.25 C 11.445312 7.421875 11.308594 7.558594 11.136719 7.558594 C 10.964844 7.558594 10.828125 7.421875 10.828125 7.25 C 10.828125 7.082031 10.964844 6.945312 11.136719 6.945312 C 11.308594 6.945312 11.445312 7.082031 11.445312 7.25 Z M 11.445312 7.25 "/>
<path fill-rule="nonzero" fill="rgb(100%, 100%, 0%)" fill-opacity="1" d="M 11.78125 6.878906 C 11.78125 7.050781 11.640625 7.1875 11.472656 7.1875 C 11.300781 7.1875 11.164062 7.050781 11.164062 6.878906 C 11.164062 6.710938 11.300781 6.574219 11.472656 6.574219 C 11.640625 6.574219 11.78125 6.710938 11.78125 6.878906 Z M 11.78125 6.878906 "/>
<path fill-rule="nonzero" fill="rgb(100%, 100%, 0%)" fill-opacity="1" d="M 10.796875 6.964844 C 10.796875 7.132812 10.660156 7.273438 10.492188 7.273438 C 10.320312 7.273438 10.183594 7.132812 10.183594 6.964844 C 10.183594 6.792969 10.320312 6.65625 10.492188 6.65625 C 10.660156 6.65625 10.796875 6.792969 10.796875 6.964844 Z M 10.796875 6.964844 "/>
<path fill-rule="nonzero" fill="rgb(100%, 100%, 0%)" fill-opacity="1" d="M 10.929688 6.472656 C 10.929688 6.644531 10.792969 6.78125 10.621094 6.78125 C 10.453125 6.78125 10.3125 6.644531 10.3125 6.472656 C 10.3125 6.304688 10.453125 6.164062 10.621094 6.164062 C 10.792969 6.164062 10.929688 6.304688 10.929688 6.472656 Z M 10.929688 6.472656 "/>
<path fill-rule="nonzero" fill="rgb(100%, 100%, 0%)" fill-opacity="1" d="M 10.019531 6.75 C 10.019531 6.917969 9.882812 7.058594 9.710938 7.058594 C 9.542969 7.058594 9.40625 6.917969 9.40625 6.75 C 9.40625 6.578125 9.542969 6.441406 9.710938 6.441406 C 9.882812 6.441406 10.019531 6.578125 10.019531 6.75 Z M 10.019531 6.75 "/>
<path fill-rule="nonzero" fill="rgb(100%, 100%, 0%)" fill-opacity="1" d="M 9.316406 6.808594 C 9.316406 6.980469 9.175781 7.117188 9.007812 7.117188 C 8.835938 7.117188 8.699219 6.980469 8.699219 6.808594 C 8.699219 6.640625 8.835938 6.5 9.007812 6.5 C 9.175781 6.5 9.316406 6.640625 9.316406 6.808594 Z M 9.316406 6.808594 "/>
<path fill-rule="nonzero" fill="rgb(100%, 100%, 0%)" fill-opacity="1" d="M 8.546875 6.785156 C 8.546875 6.957031 8.410156 7.09375 8.242188 7.09375 C 8.070312 7.09375 7.933594 6.957031 7.933594 6.785156 C 7.933594 6.613281 8.070312 6.476562 8.242188 6.476562 C 8.410156 6.476562 8.546875 6.613281 8.546875 6.785156 Z M 8.546875 6.785156 "/>
<path fill-rule="nonzero" fill="rgb(100%, 100%, 0%)" fill-opacity="1" d="M 8.523438 6.355469 C 8.523438 6.523438 8.386719 6.664062 8.214844 6.664062 C 8.046875 6.664062 7.910156 6.523438 7.910156 6.355469 C 7.910156 6.183594 8.046875 6.046875 8.214844 6.046875 C 8.386719 6.046875 8.523438 6.183594 8.523438 6.355469 Z M 8.523438 6.355469 "/>
<path fill-rule="nonzero" fill="rgb(100%, 100%, 0%)" fill-opacity="1" d="M 9.289062 6.367188 C 9.289062 6.535156 9.152344 6.675781 8.984375 6.675781 C 8.8125 6.675781 8.675781 6.535156 8.675781 6.367188 C 8.675781 6.195312 8.8125 6.058594 8.984375 6.058594 C 9.152344 6.058594 9.289062 6.195312 9.289062 6.367188 Z M 9.289062 6.367188 "/>
<path fill-rule="nonzero" fill="rgb(100%, 100%, 0%)" fill-opacity="1" d="M 10.019531 6.292969 C 10.019531 6.464844 9.882812 6.601562 9.710938 6.601562 C 9.539062 6.601562 9.402344 6.464844 9.402344 6.292969 C 9.402344 6.125 9.539062 5.988281 9.710938 5.988281 C 9.882812 5.988281 10.019531 6.125 10.019531 6.292969 Z M 10.019531 6.292969 "/>
<path fill-rule="nonzero" fill="rgb(100%, 100%, 0%)" fill-opacity="1" d="M 10.773438 6.078125 C 10.773438 6.25 10.636719 6.386719 10.464844 6.386719 C 10.296875 6.386719 10.160156 6.25 10.160156 6.078125 C 10.160156 5.910156 10.296875 5.769531 10.464844 5.769531 C 10.636719 5.769531 10.773438 5.910156 10.773438 6.078125 Z M 10.773438 6.078125 "/>
<path fill-rule="nonzero" fill="rgb(100%, 100%, 0%)" fill-opacity="1" d="M 11.742188 5.984375 C 11.742188 6.152344 11.605469 6.292969 11.4375 6.292969 C 11.265625 6.292969 11.128906 6.152344 11.128906 5.984375 C 11.128906 5.8125 11.265625 5.675781 11.4375 5.675781 C 11.605469 5.675781 11.742188 5.8125 11.742188 5.984375 Z M 11.742188 5.984375 "/>
<path fill-rule="nonzero" fill="rgb(100%, 100%, 0%)" fill-opacity="1" d="M 11.421875 5.695312 C 11.421875 5.867188 11.28125 6.003906 11.113281 6.003906 C 10.941406 6.003906 10.804688 5.867188 10.804688 5.695312 C 10.804688 5.527344 10.941406 5.386719 11.113281 5.386719 C 11.28125 5.386719 11.421875 5.527344 11.421875 5.695312 Z M 11.421875 5.695312 "/>
<path fill-rule="nonzero" fill="rgb(100%, 100%, 0%)" fill-opacity="1" d="M 12.246094 5.421875 C 12.246094 5.589844 12.109375 5.730469 11.9375 5.730469 C 11.769531 5.730469 11.628906 5.589844 11.628906 5.421875 C 11.628906 5.25 11.769531 5.113281 11.9375 5.113281 C 12.109375 5.113281 12.246094 5.25 12.246094 5.421875 Z M 12.246094 5.421875 "/>
<path fill-rule="nonzero" fill="rgb(100%, 100%, 0%)" fill-opacity="1" d="M 11.863281 5.207031 C 11.863281 5.375 11.726562 5.511719 11.554688 5.511719 C 11.386719 5.511719 11.246094 5.375 11.246094 5.207031 C 11.246094 5.035156 11.386719 4.898438 11.554688 4.898438 C 11.726562 4.898438 11.863281 5.035156 11.863281 5.207031 Z M 11.863281 5.207031 "/>
<path fill-rule="nonzero" fill="rgb(100%, 100%, 0%)" fill-opacity="1" d="M 12.558594 4.773438 C 12.558594 4.945312 12.417969 5.082031 12.25 5.082031 C 12.078125 5.082031 11.941406 4.945312 11.941406 4.773438 C 11.941406 4.605469 12.078125 4.464844 12.25 4.464844 C 12.417969 4.464844 12.558594 4.605469 12.558594 4.773438 Z M 12.558594 4.773438 "/>
<path fill-rule="nonzero" fill="rgb(100%, 100%, 0%)" fill-opacity="1" d="M 7.507812 12.445312 C 7.507812 12.617188 7.371094 12.753906 7.199219 12.753906 C 7.027344 12.753906 6.890625 12.617188 6.890625 12.445312 C 6.890625 12.277344 7.027344 12.136719 7.199219 12.136719 C 7.371094 12.136719 7.507812 12.277344 7.507812 12.445312 Z M 7.507812 12.445312 "/>
<path fill-rule="nonzero" fill="rgb(100%, 100%, 0%)" fill-opacity="1" d="M 11.132812 12.746094 C 11.132812 12.914062 10.996094 13.054688 10.824219 13.054688 C 10.65625 13.054688 10.515625 12.914062 10.515625 12.746094 C 10.515625 12.574219 10.65625 12.4375 10.824219 12.4375 C 10.996094 12.4375 11.132812 12.574219 11.132812 12.746094 Z M 11.132812 12.746094 "/>
<path fill-rule="nonzero" fill="rgb(100%, 100%, 0%)" fill-opacity="1" d="M 11.886719 12.339844 C 11.886719 12.507812 11.75 12.644531 11.578125 12.644531 C 11.410156 12.644531 11.273438 12.507812 11.273438 12.339844 C 11.273438 12.167969 11.410156 12.03125 11.578125 12.03125 C 11.75 12.03125 11.886719 12.167969 11.886719 12.339844 Z M 11.886719 12.339844 "/>
<path fill-rule="nonzero" fill="rgb(100%, 100%, 0%)" fill-opacity="1" d="M 12.222656 11.789062 C 12.222656 11.957031 12.085938 12.097656 11.914062 12.097656 C 11.746094 12.097656 11.605469 11.957031 11.605469 11.789062 C 11.605469 11.617188 11.746094 11.480469 11.914062 11.480469 C 12.085938 11.480469 12.222656 11.617188 12.222656 11.789062 Z M 12.222656 11.789062 "/>
<path fill-rule="nonzero" fill="rgb(100%, 100%, 0%)" fill-opacity="1" d="M 12.582031 11.070312 C 12.582031 11.238281 12.445312 11.378906 12.273438 11.378906 C 12.105469 11.378906 11.964844 11.238281 11.964844 11.070312 C 11.964844 10.898438 12.105469 10.761719 12.273438 10.761719 C 12.445312 10.761719 12.582031 10.898438 12.582031 11.070312 Z M 12.582031 11.070312 "/>
<path fill-rule="nonzero" fill="rgb(100%, 100%, 0%)" fill-opacity="1" d="M 12.714844 10.484375 C 12.714844 10.652344 12.574219 10.792969 12.40625 10.792969 C 12.234375 10.792969 12.097656 10.652344 12.097656 10.484375 C 12.097656 10.3125 12.234375 10.175781 12.40625 10.175781 C 12.574219 10.175781 12.714844 10.3125 12.714844 10.484375 Z M 12.714844 10.484375 "/>
<path fill-rule="nonzero" fill="rgb(100%, 100%, 0%)" fill-opacity="1" d="M 13.296875 9.789062 C 13.296875 9.910156 13.195312 10.007812 13.074219 10.007812 C 12.953125 10.007812 12.855469 9.910156 12.855469 9.789062 C 12.855469 9.667969 12.953125 9.570312 13.074219 9.570312 C 13.195312 9.570312 13.296875 9.667969 13.296875 9.789062 Z M 13.296875 9.789062 "/>
<path fill-rule="nonzero" fill="rgb(100%, 100%, 0%)" fill-opacity="1" d="M 12.882812 9.8125 C 12.882812 9.984375 12.742188 10.121094 12.574219 10.121094 C 12.402344 10.121094 12.265625 9.984375 12.265625 9.8125 C 12.265625 9.644531 12.402344 9.503906 12.574219 9.503906 C 12.742188 9.503906 12.882812 9.644531 12.882812 9.8125 Z M 12.882812 9.8125 "/>
<path fill-rule="nonzero" fill="rgb(100%, 100%, 0%)" fill-opacity="1" d="M 13.289062 8.832031 C 13.289062 9 13.148438 9.140625 12.980469 9.140625 C 12.808594 9.140625 12.671875 9 12.671875 8.832031 C 12.671875 8.660156 12.808594 8.523438 12.980469 8.523438 C 13.148438 8.523438 13.289062 8.660156 13.289062 8.832031 Z M 13.289062 8.832031 "/>
<path fill-rule="nonzero" fill="rgb(100%, 100%, 0%)" fill-opacity="1" d="M 12.773438 9.046875 C 12.773438 9.21875 12.636719 9.355469 12.464844 9.355469 C 12.296875 9.355469 12.15625 9.21875 12.15625 9.046875 C 12.15625 8.875 12.296875 8.738281 12.464844 8.738281 C 12.636719 8.738281 12.773438 8.875 12.773438 9.046875 Z M 12.773438 9.046875 "/>
<path fill-rule="nonzero" fill="rgb(100%, 100%, 0%)" fill-opacity="1" d="M 12.953125 8.125 C 12.953125 8.296875 12.816406 8.433594 12.644531 8.433594 C 12.476562 8.433594 12.335938 8.296875 12.335938 8.125 C 12.335938 7.957031 12.476562 7.816406 12.644531 7.816406 C 12.816406 7.816406 12.953125 7.957031 12.953125 8.125 Z M 12.953125 8.125 "/>
<path fill-rule="nonzero" fill="rgb(100%, 100%, 0%)" fill-opacity="1" d="M 12.4375 8.363281 C 12.4375 8.535156 12.300781 8.671875 12.128906 8.671875 C 11.960938 8.671875 11.820312 8.535156 11.820312 8.363281 C 11.820312 8.195312 11.960938 8.058594 12.128906 8.058594 C 12.300781 8.058594 12.4375 8.195312 12.4375 8.363281 Z M 12.4375 8.363281 "/>
<path fill-rule="nonzero" fill="rgb(100%, 100%, 0%)" fill-opacity="1" d="M 8.175781 12.78125 C 8.175781 12.953125 8.039062 13.089844 7.871094 13.089844 C 7.699219 13.089844 7.5625 12.953125 7.5625 12.78125 C 7.5625 12.609375 7.699219 12.472656 7.871094 12.472656 C 8.039062 12.472656 8.175781 12.609375 8.175781 12.78125 Z M 8.175781 12.78125 "/>
<path fill-rule="nonzero" fill="rgb(100%, 100%, 0%)" fill-opacity="1" d="M 8.882812 12.949219 C 8.882812 13.117188 8.746094 13.257812 8.574219 13.257812 C 8.40625 13.257812 8.265625 13.117188 8.265625 12.949219 C 8.265625 12.777344 8.40625 12.640625 8.574219 12.640625 C 8.746094 12.640625 8.882812 12.777344 8.882812 12.949219 Z M 8.882812 12.949219 "/>
<path fill-rule="nonzero" fill="rgb(100%, 100%, 0%)" fill-opacity="1" d="M 9.566406 13.042969 C 9.566406 13.214844 9.429688 13.351562 9.257812 13.351562 C 9.085938 13.351562 8.949219 13.214844 8.949219 13.042969 C 8.949219 12.875 9.085938 12.738281 9.257812 12.738281 C 9.429688 12.738281 9.566406 12.875 9.566406 13.042969 Z M 9.566406 13.042969 "/>
<path fill-rule="nonzero" fill="rgb(100%, 100%, 0%)" fill-opacity="1" d="M 8.714844 13.390625 C 8.714844 13.5625 8.578125 13.699219 8.40625 13.699219 C 8.238281 13.699219 8.101562 13.5625 8.101562 13.390625 C 8.101562 13.222656 8.238281 13.082031 8.40625 13.082031 C 8.578125 13.082031 8.714844 13.222656 8.714844 13.390625 Z M 8.714844 13.390625 "/>
<path fill-rule="nonzero" fill="rgb(100%, 100%, 0%)" fill-opacity="1" d="M 7.914062 13.199219 C 7.914062 13.371094 7.777344 13.507812 7.605469 13.507812 C 7.4375 13.507812 7.296875 13.371094 7.296875 13.199219 C 7.296875 13.03125 7.4375 12.890625 7.605469 12.890625 C 7.777344 12.890625 7.914062 13.03125 7.914062 13.199219 Z M 7.914062 13.199219 "/>
<path fill-rule="nonzero" fill="rgb(100%, 100%, 0%)" fill-opacity="1" d="M 7.269531 12.792969 C 7.269531 12.964844 7.128906 13.101562 6.960938 13.101562 C 6.789062 13.101562 6.652344 12.964844 6.652344 12.792969 C 6.652344 12.621094 6.789062 12.484375 6.960938 12.484375 C 7.128906 12.484375 7.269531 12.621094 7.269531 12.792969 Z M 7.269531 12.792969 "/>
<path fill-rule="nonzero" fill="rgb(100%, 100%, 0%)" fill-opacity="1" d="M 6.5625 12.363281 C 6.5625 12.53125 6.425781 12.671875 6.253906 12.671875 C 6.082031 12.671875 5.945312 12.53125 5.945312 12.363281 C 5.945312 12.191406 6.082031 12.054688 6.253906 12.054688 C 6.425781 12.054688 6.5625 12.191406 6.5625 12.363281 Z M 6.5625 12.363281 "/>
<path fill-rule="nonzero" fill="rgb(100%, 100%, 0%)" fill-opacity="1" d="M 6.945312 11.96875 C 6.945312 12.136719 6.808594 12.273438 6.636719 12.273438 C 6.464844 12.273438 6.328125 12.136719 6.328125 11.96875 C 6.328125 11.796875 6.464844 11.660156 6.636719 11.660156 C 6.808594 11.660156 6.945312 11.796875 6.945312 11.96875 Z M 6.945312 11.96875 "/>
<path fill-rule="nonzero" fill="rgb(100%, 100%, 0%)" fill-opacity="1" d="M 6.070312 11.65625 C 6.070312 11.828125 5.933594 11.964844 5.761719 11.964844 C 5.59375 11.964844 5.453125 11.828125 5.453125 11.65625 C 5.453125 11.484375 5.59375 11.347656 5.761719 11.347656 C 5.933594 11.347656 6.070312 11.484375 6.070312 11.65625 Z M 6.070312 11.65625 "/>
<path fill-rule="nonzero" fill="rgb(100%, 100%, 0%)" fill-opacity="1" d="M 6.527344 11.355469 C 6.527344 11.527344 6.386719 11.664062 6.21875 11.664062 C 6.046875 11.664062 5.910156 11.527344 5.910156 11.355469 C 5.910156 11.1875 6.046875 11.050781 6.21875 11.050781 C 6.386719 11.050781 6.527344 11.1875 6.527344 11.355469 Z M 6.527344 11.355469 "/>
<path fill-rule="nonzero" fill="rgb(100%, 100%, 0%)" fill-opacity="1" d="M 12.113281 12.722656 C 12.113281 12.890625 11.976562 13.03125 11.808594 13.03125 C 11.636719 13.03125 11.5 12.890625 11.5 12.722656 C 11.5 12.550781 11.636719 12.414062 11.808594 12.414062 C 11.976562 12.414062 12.113281 12.550781 12.113281 12.722656 Z M 12.113281 12.722656 "/>
<path fill-rule="nonzero" fill="rgb(100%, 100%, 0%)" fill-opacity="1" d="M 11.3125 13.1875 C 11.3125 13.359375 11.175781 13.496094 11.003906 13.496094 C 10.835938 13.496094 10.695312 13.359375 10.695312 13.1875 C 10.695312 13.019531 10.835938 12.878906 11.003906 12.878906 C 11.175781 12.878906 11.3125 13.019531 11.3125 13.1875 Z M 11.3125 13.1875 "/>
<path fill-rule="nonzero" fill="rgb(100%, 100%, 0%)" fill-opacity="1" d="M 10.441406 13.511719 C 10.441406 13.679688 10.300781 13.820312 10.132812 13.820312 C 9.960938 13.820312 9.824219 13.679688 9.824219 13.511719 C 9.824219 13.339844 9.960938 13.203125 10.132812 13.203125 C 10.300781 13.203125 10.441406 13.339844 10.441406 13.511719 Z M 10.441406 13.511719 "/>
<path fill-rule="nonzero" fill="rgb(100%, 100%, 0%)" fill-opacity="1" d="M 10.296875 13.019531 C 10.296875 13.191406 10.15625 13.328125 9.988281 13.328125 C 9.816406 13.328125 9.679688 13.191406 9.679688 13.019531 C 9.679688 12.851562 9.816406 12.710938 9.988281 12.710938 C 10.15625 12.710938 10.296875 12.851562 10.296875 13.019531 Z M 10.296875 13.019531 "/>
<path fill-rule="nonzero" fill="rgb(100%, 100%, 0%)" fill-opacity="1" d="M 9.519531 13.535156 C 9.519531 13.707031 9.378906 13.84375 9.210938 13.84375 C 9.039062 13.84375 8.902344 13.707031 8.902344 13.535156 C 8.902344 13.363281 9.039062 13.226562 9.210938 13.226562 C 9.378906 13.226562 9.519531 13.363281 9.519531 13.535156 Z M 9.519531 13.535156 "/>
<path fill-rule="nonzero" fill="rgb(100%, 100%, 0%)" fill-opacity="1" d="M 12.714844 12.0625 C 12.714844 12.234375 12.574219 12.371094 12.40625 12.371094 C 12.234375 12.371094 12.097656 12.234375 12.097656 12.0625 C 12.097656 11.894531 12.234375 11.753906 12.40625 11.753906 C 12.574219 11.753906 12.714844 11.894531 12.714844 12.0625 Z M 12.714844 12.0625 "/>
<path fill-rule="nonzero" fill="rgb(100%, 100%, 0%)" fill-opacity="1" d="M 13.347656 10.578125 C 13.347656 10.75 13.210938 10.886719 13.039062 10.886719 C 12.871094 10.886719 12.730469 10.75 12.730469 10.578125 C 12.730469 10.410156 12.871094 10.269531 13.039062 10.269531 C 13.210938 10.269531 13.347656 10.410156 13.347656 10.578125 Z M 13.347656 10.578125 "/>
<path fill-rule="nonzero" fill="rgb(100%, 100%, 0%)" fill-opacity="1" d="M 13.132812 11.261719 C 13.132812 11.429688 12.996094 11.570312 12.824219 11.570312 C 12.652344 11.570312 12.515625 11.429688 12.515625 11.261719 C 12.515625 11.089844 12.652344 10.953125 12.824219 10.953125 C 12.996094 10.953125 13.132812 11.089844 13.132812 11.261719 Z M 13.132812 11.261719 "/>
</svg>
