<?xml version="1.0" encoding="UTF-8"?>
<svg xmlns="http://www.w3.org/2000/svg" xmlns:xlink="http://www.w3.org/1999/xlink" width="14.082405" height="14" viewBox="0 0 14.082405 14">
<path fill-rule="nonzero" fill="rgb(0%, 0%, 0%)" fill-opacity="1" stroke-width="1.382639" stroke-linecap="butt" stroke-linejoin="miter" stroke="rgb(0%, 0%, 0%)" stroke-opacity="1" stroke-miterlimit="4" d="M 19.231653 568.203226 L 489.173 568.203226 L 489.173 1035.399435 L 21.192465 1035.399435 Z M 19.231653 568.203226 " transform="matrix(0.0298824, 0, 0, 0.0298824, -0.555156, -16.959737)"/>
<path fill-rule="nonzero" fill="rgb(100%, 100%, 100%)" fill-opacity="1" d="M 4.167969 1.636719 C 4.167969 1.808594 4.03125 1.945312 3.859375 1.945312 C 3.6875 1.945312 3.550781 1.808594 3.550781 1.636719 C 3.550781 1.46875 3.6875 1.328125 3.859375 1.328125 C 4.03125 1.328125 4.167969 1.46875 4.167969 1.636719 Z M 4.167969 1.636719 "/>
<path fill-rule="nonzero" fill="rgb(100%, 100%, 100%)" fill-opacity="1" d="M 4.523438 2.003906 C 4.523438 2.175781 4.386719 2.3125 4.214844 2.3125 C 4.046875 2.3125 3.90625 2.175781 3.90625 2.003906 C 3.90625 1.835938 4.046875 1.695312 4.214844 1.695312 C 4.386719 1.695312 4.523438 1.835938 4.523438 2.003906 Z M 4.523438 2.003906 "/>
<path fill-rule="nonzero" fill="rgb(100%, 100%, 100%)" fill-opacity="1" d="M 4.910156 1.15625 C 4.910156 1.324219 4.773438 1.464844 4.601562 1.464844 C 4.433594 1.464844 4.296875 1.324219 4.296875 1.15625 C 4.296875 0.984375 4.433594 0.847656 4.601562 0.847656 C 4.773438 0.847656 4.910156 0.984375 4.910156 1.15625 Z M 4.910156 1.15625 "/>
<path fill-rule="nonzero" fill="rgb(100%, 100%, 100%)" fill-opacity="1" d="M 5.132812 1.511719 C 5.132812 1.683594 4.992188 1.820312 4.824219 1.820312 C 4.652344 1.820312 4.515625 1.683594 4.515625 1.511719 C 4.515625 1.34375 4.652344 1.203125 4.824219 1.203125 C 4.992188 1.203125 5.132812 1.34375 5.132812 1.511719 Z M 5.132812 1.511719 "/>
<path fill-rule="nonzero" fill="rgb(100%, 100%, 100%)" fill-opacity="1" d="M 7.332031 0.894531 C 7.332031 1.0625 7.195312 1.203125 7.023438 1.203125 C 6.851562 1.203125 6.714844 1.0625 6.714844 0.894531 C 6.714844 0.722656 6.851562 0.585938 7.023438 0.585938 C 7.195312 0.585938 7.332031 0.722656 7.332031 0.894531 Z M 7.332031 0.894531 "/>
<path fill-rule="nonzero" fill="rgb(100%, 100%, 100%)" fill-opacity="1" d="M 7.382812 0.464844 C 7.382812 0.632812 7.246094 0.773438 7.074219 0.773438 C 6.90625 0.773438 6.769531 0.632812 6.769531 0.464844 C 6.769531 0.292969 6.90625 0.15625 7.074219 0.15625 C 7.246094 0.15625 7.382812 0.292969 7.382812 0.464844 Z M 7.382812 0.464844 "/>
<path fill-rule="nonzero" fill="rgb(100%, 100%, 100%)" fill-opacity="1" d="M 6.554688 0.976562 C 6.554688 1.148438 6.417969 1.285156 6.246094 1.285156 C 6.078125 1.285156 5.941406 1.148438 5.941406 0.976562 C 5.941406 0.808594 6.078125 0.667969 6.246094 0.667969 C 6.417969 0.667969 6.554688 0.808594 6.554688 0.976562 Z M 6.554688 0.976562 "/>
<path fill-rule="nonzero" fill="rgb(100%, 100%, 100%)" fill-opacity="1" d="M 6.472656 0.558594 C 6.472656 0.730469 6.335938 0.867188 6.164062 0.867188 C 5.992188 0.867188 5.855469 0.730469 5.855469 0.558594 C 5.855469 0.386719 5.992188 0.25 6.164062 0.25 C 6.335938 0.25 6.472656 0.386719 6.472656 0.558594 Z M 6.472656 0.558594 "/>
<path fill-rule="nonzero" fill="rgb(100%, 100%, 100%)" fill-opacity="1" d="M 5.78125 1.207031 C 5.78125 1.378906 5.644531 1.515625 5.472656 1.515625 C 5.300781 1.515625 5.164062 1.378906 5.164062 1.207031 C 5.164062 1.039062 5.300781 0.898438 5.472656 0.898438 C 5.644531 0.898438 5.78125 1.039062 5.78125 1.207031 Z M 5.78125 1.207031 "/>
<path fill-rule="nonzero" fill="rgb(100%, 100%, 100%)" fill-opacity="1" d="M 5.632812 0.839844 C 5.632812 1.011719 5.496094 1.148438 5.324219 1.148438 C 5.15625 1.148438 5.019531 1.011719 5.019531 0.839844 C 5.019531 0.671875 5.15625 0.535156 5.324219 0.535156 C 5.496094 0.535156 5.632812 0.671875 5.632812 0.839844 Z M 5.632812 0.839844 "/>
<path fill-rule="nonzero" fill="rgb(100%, 100%, 100%)" fill-opacity="1" d="M 8.160156 0.609375 C 8.160156 0.78125 8.019531 0.917969 7.851562 0.917969 C 7.679688 0.917969 7.542969 0.78125 7.542969 0.609375 C 7.542969 0.441406 7.679688 0.304688 7.851562 0.304688 C 8.019531 0.304688 8.160156 0.441406 8.160156 0.609375 Z M 8.160156 0.609375 "/>
<path fill-rule="nonzero" fill="rgb(100%, 100%, 100%)" fill-opacity="1" d="M 7.980469 0.96875 C 7.980469 1.136719 7.84375 1.273438 7.671875 1.273438 C 7.503906 1.273438 7.363281 1.136719 7.363281 0.96875 C 7.363281 0.796875 7.503906 0.660156 7.671875 0.660156 C 7.84375 0.660156 7.980469 0.796875 7.980469 0.96875 Z M 7.980469 0.96875 "/>
<path fill-rule="nonzero" fill="rgb(100%, 100%, 100%)" fill-opacity="1" d="M 8.835938 0.859375 C 8.835938 1.03125 8.695312 1.167969 8.527344 1.167969 C 8.355469 1.167969 8.21875 1.03125 8.21875 0.859375 C 8.21875 0.691406 8.355469 0.554688 8.527344 0.554688 C 8.695312 0.554688 8.835938 0.691406 8.835938 0.859375 Z M 8.835938 0.859375 "/>
<path fill-rule="nonzero" fill="rgb(100%, 100%, 100%)" fill-opacity="1" d="M 9.816406 4.582031 C 9.816406 4.753906 9.675781 4.890625 9.507812 4.890625 C 9.335938 4.890625 9.199219 4.753906 9.199219 4.582031 C 9.199219 4.414062 9.335938 4.273438 9.507812 4.273438 C 9.675781 4.273438 9.816406 4.414062 9.816406 4.582031 Z M 9.816406 4.582031 "/>
<path fill-rule="nonzero" fill="rgb(100%, 100%, 100%)" fill-opacity="1" d="M 9.933594 3.960938 C 9.933594 4.128906 9.796875 4.269531 9.628906 4.269531 C 9.457031 4.269531 9.320312 4.128906 9.320312 3.960938 C 9.320312 3.789062 9.457031 3.652344 9.628906 3.652344 C 9.796875 3.652344 9.933594 3.789062 9.933594 3.960938 Z M 9.933594 3.960938 "/>
<path fill-rule="nonzero" fill="rgb(100%, 100%, 100%)" fill-opacity="1" d="M 10.414062 3.972656 C 10.414062 4.144531 10.277344 4.28125 10.105469 4.28125 C 9.9375 4.28125 9.796875 4.144531 9.796875 3.972656 C 9.796875 3.800781 9.9375 3.664062 10.105469 3.664062 C 10.277344 3.664062 10.414062 3.800781 10.414062 3.972656 Z M 10.414062 3.972656 "/>
<path fill-rule="nonzero" fill="rgb(100%, 100%, 100%)" fill-opacity="1" d="M 9.984375 3.277344 C 9.984375 3.449219 9.84375 3.585938 9.675781 3.585938 C 9.503906 3.585938 9.367188 3.449219 9.367188 3.277344 C 9.367188 3.109375 9.503906 2.96875 9.675781 2.96875 C 9.84375 2.96875 9.984375 3.109375 9.984375 3.277344 Z M 9.984375 3.277344 "/>
<path fill-rule="nonzero" fill="rgb(100%, 100%, 100%)" fill-opacity="1" d="M 10.402344 3.242188 C 10.402344 3.414062 10.265625 3.550781 10.09375 3.550781 C 9.921875 3.550781 9.785156 3.414062 9.785156 3.242188 C 9.785156 3.074219 9.921875 2.933594 10.09375 2.933594 C 10.265625 2.933594 10.402344 3.074219 10.402344 3.242188 Z M 10.402344 3.242188 "/>
<path fill-rule="nonzero" fill="rgb(100%, 100%, 100%)" fill-opacity="1" d="M 9.816406 2.644531 C 9.816406 2.8125 9.675781 2.953125 9.507812 2.953125 C 9.335938 2.953125 9.199219 2.8125 9.199219 2.644531 C 9.199219 2.472656 9.335938 2.335938 9.507812 2.335938 C 9.675781 2.335938 9.816406 2.472656 9.816406 2.644531 Z M 9.816406 2.644531 "/>
<path fill-rule="nonzero" fill="rgb(100%, 100%, 100%)" fill-opacity="1" d="M 10.234375 2.558594 C 10.234375 2.730469 10.097656 2.867188 9.925781 2.867188 C 9.757812 2.867188 9.617188 2.730469 9.617188 2.558594 C 9.617188 2.390625 9.757812 2.253906 9.925781 2.253906 C 10.097656 2.253906 10.234375 2.390625 10.234375 2.558594 Z M 10.234375 2.558594 "/>
<path fill-rule="nonzero" fill="rgb(100%, 100%, 100%)" fill-opacity="1" d="M 9.5625 2.164062 C 9.5625 2.335938 9.425781 2.472656 9.257812 2.472656 C 9.085938 2.472656 8.949219 2.335938 8.949219 2.164062 C 8.949219 1.996094 9.085938 1.855469 9.257812 1.855469 C 9.425781 1.855469 9.5625 1.996094 9.5625 2.164062 Z M 9.5625 2.164062 "/>
<path fill-rule="nonzero" fill="rgb(100%, 100%, 100%)" fill-opacity="1" d="M 9.910156 1.878906 C 9.910156 2.046875 9.773438 2.1875 9.601562 2.1875 C 9.433594 2.1875 9.296875 2.046875 9.296875 1.878906 C 9.296875 1.707031 9.433594 1.570312 9.601562 1.570312 C 9.773438 1.570312 9.910156 1.707031 9.910156 1.878906 Z M 9.910156 1.878906 "/>
<path fill-rule="nonzero" fill="rgb(100%, 100%, 100%)" fill-opacity="1" d="M 9.097656 1.613281 C 9.097656 1.785156 8.960938 1.921875 8.789062 1.921875 C 8.621094 1.921875 8.480469 1.785156 8.480469 1.613281 C 8.480469 1.445312 8.621094 1.308594 8.789062 1.308594 C 8.960938 1.308594 9.097656 1.445312 9.097656 1.613281 Z M 9.097656 1.613281 "/>
<path fill-rule="nonzero" fill="rgb(100%, 100%, 100%)" fill-opacity="1" d="M 9.433594 1.316406 C 9.433594 1.484375 9.292969 1.625 9.125 1.625 C 8.953125 1.625 8.816406 1.484375 8.816406 1.316406 C 8.816406 1.144531 8.953125 1.007812 9.125 1.007812 C 9.292969 1.007812 9.433594 1.144531 9.433594 1.316406 Z M 9.433594 1.316406 "/>
<path fill-rule="nonzero" fill="rgb(100%, 100%, 100%)" fill-opacity="1" d="M 8.558594 1.242188 C 8.558594 1.414062 8.421875 1.550781 8.25 1.550781 C 8.082031 1.550781 7.941406 1.414062 7.941406 1.242188 C 7.941406 1.074219 8.082031 0.9375 8.25 0.9375 C 8.421875 0.9375 8.558594 1.074219 8.558594 1.242188 Z M 8.558594 1.242188 "/>
<path fill-rule="nonzero" fill="rgb(100%, 100%, 100%)" fill-opacity="1" d="M 9.730469 7.789062 C 9.730469 7.960938 9.59375 8.097656 9.421875 8.097656 C 9.253906 8.097656 9.117188 7.960938 9.117188 7.789062 C 9.117188 7.621094 9.253906 7.480469 9.421875 7.480469 C 9.59375 7.480469 9.730469 7.621094 9.730469 7.789062 Z M 9.730469 7.789062 "/>
<path fill-rule="nonzero" fill="rgb(100%, 100%, 100%)" fill-opacity="1" d="M 10.101562 7.429688 C 10.101562 7.601562 9.964844 7.738281 9.792969 7.738281 C 9.625 7.738281 9.488281 7.601562 9.488281 7.429688 C 9.488281 7.261719 9.625 7.125 9.792969 7.125 C 9.964844 7.125 10.101562 7.261719 10.101562 7.429688 Z M 10.101562 7.429688 "/>
<path fill-rule="nonzero" fill="rgb(100%, 100%, 100%)" fill-opacity="1" d="M 9.085938 7.25 C 9.085938 7.421875 8.949219 7.558594 8.777344 7.558594 C 8.605469 7.558594 8.46875 7.421875 8.46875 7.25 C 8.46875 7.082031 8.605469 6.945312 8.777344 6.945312 C 8.949219 6.945312 9.085938 7.082031 9.085938 7.25 Z M 9.085938 7.25 "/>
<path fill-rule="nonzero" fill="rgb(100%, 100%, 100%)" fill-opacity="1" d="M 9.421875 6.878906 C 9.421875 7.050781 9.28125 7.1875 9.113281 7.1875 C 8.941406 7.1875 8.804688 7.050781 8.804688 6.878906 C 8.804688 6.710938 8.941406 6.574219 9.113281 6.574219 C 9.28125 6.574219 9.421875 6.710938 9.421875 6.878906 Z M 9.421875 6.878906 "/>
<path fill-rule="nonzero" fill="rgb(100%, 100%, 100%)" fill-opacity="1" d="M 8.4375 6.964844 C 8.4375 7.132812 8.300781 7.273438 8.132812 7.273438 C 7.960938 7.273438 7.824219 7.132812 7.824219 6.964844 C 7.824219 6.792969 7.960938 6.65625 8.132812 6.65625 C 8.300781 6.65625 8.4375 6.792969 8.4375 6.964844 Z M 8.4375 6.964844 "/>
<path fill-rule="nonzero" fill="rgb(100%, 100%, 100%)" fill-opacity="1" d="M 8.570312 6.472656 C 8.570312 6.644531 8.433594 6.78125 8.261719 6.78125 C 8.09375 6.78125 7.953125 6.644531 7.953125 6.472656 C 7.953125 6.304688 8.09375 6.164062 8.261719 6.164062 C 8.433594 6.164062 8.570312 6.304688 8.570312 6.472656 Z M 8.570312 6.472656 "/>
<path fill-rule="nonzero" fill="rgb(100%, 100%, 100%)" fill-opacity="1" d="M 7.660156 6.75 C 7.660156 6.917969 7.523438 7.058594 7.351562 7.058594 C 7.183594 7.058594 7.046875 6.917969 7.046875 6.75 C 7.046875 6.578125 7.183594 6.441406 7.351562 6.441406 C 7.523438 6.441406 7.660156 6.578125 7.660156 6.75 Z M 7.660156 6.75 "/>
<path fill-rule="nonzero" fill="rgb(100%, 100%, 100%)" fill-opacity="1" d="M 6.957031 6.808594 C 6.957031 6.980469 6.816406 7.117188 6.648438 7.117188 C 6.476562 7.117188 6.339844 6.980469 6.339844 6.808594 C 6.339844 6.640625 6.476562 6.5 6.648438 6.5 C 6.816406 6.5 6.957031 6.640625 6.957031 6.808594 Z M 6.957031 6.808594 "/>
<path fill-rule="nonzero" fill="rgb(100%, 100%, 100%)" fill-opacity="1" d="M 6.1875 6.785156 C 6.1875 6.957031 6.050781 7.09375 5.882812 7.09375 C 5.710938 7.09375 5.574219 6.957031 5.574219 6.785156 C 5.574219 6.613281 5.710938 6.476562 5.882812 6.476562 C 6.050781 6.476562 6.1875 6.613281 6.1875 6.785156 Z M 6.1875 6.785156 "/>
<path fill-rule="nonzero" fill="rgb(100%, 100%, 100%)" fill-opacity="1" d="M 6.164062 6.355469 C 6.164062 6.523438 6.027344 6.664062 5.855469 6.664062 C 5.6875 6.664062 5.550781 6.523438 5.550781 6.355469 C 5.550781 6.183594 5.6875 6.046875 5.855469 6.046875 C 6.027344 6.046875 6.164062 6.183594 6.164062 6.355469 Z M 6.164062 6.355469 "/>
<path fill-rule="nonzero" fill="rgb(100%, 100%, 100%)" fill-opacity="1" d="M 6.929688 6.367188 C 6.929688 6.535156 6.792969 6.675781 6.625 6.675781 C 6.453125 6.675781 6.316406 6.535156 6.316406 6.367188 C 6.316406 6.195312 6.453125 6.058594 6.625 6.058594 C 6.792969 6.058594 6.929688 6.195312 6.929688 6.367188 Z M 6.929688 6.367188 "/>
<path fill-rule="nonzero" fill="rgb(100%, 100%, 100%)" fill-opacity="1" d="M 7.660156 6.292969 C 7.660156 6.464844 7.523438 6.601562 7.351562 6.601562 C 7.179688 6.601562 7.042969 6.464844 7.042969 6.292969 C 7.042969 6.125 7.179688 5.988281 7.351562 5.988281 C 7.523438 5.988281 7.660156 6.125 7.660156 6.292969 Z M 7.660156 6.292969 "/>
<path fill-rule="nonzero" fill="rgb(100%, 100%, 100%)" fill-opacity="1" d="M 8.414062 6.078125 C 8.414062 6.25 8.277344 6.386719 8.105469 6.386719 C 7.9375 6.386719 7.800781 6.25 7.800781 6.078125 C 7.800781 5.910156 7.9375 5.769531 8.105469 5.769531 C 8.277344 5.769531 8.414062 5.910156 8.414062 6.078125 Z M 8.414062 6.078125 "/>
<path fill-rule="nonzero" fill="rgb(100%, 100%, 100%)" fill-opacity="1" d="M 9.382812 5.984375 C 9.382812 6.152344 9.246094 6.292969 9.078125 6.292969 C 8.90625 6.292969 8.769531 6.152344 8.769531 5.984375 C 8.769531 5.8125 8.90625 5.675781 9.078125 5.675781 C 9.246094 5.675781 9.382812 5.8125 9.382812 5.984375 Z M 9.382812 5.984375 "/>
<path fill-rule="nonzero" fill="rgb(100%, 100%, 100%)" fill-opacity="1" d="M 9.0625 5.695312 C 9.0625 5.867188 8.921875 6.003906 8.753906 6.003906 C 8.582031 6.003906 8.445312 5.867188 8.445312 5.695312 C 8.445312 5.527344 8.582031 5.386719 8.753906 5.386719 C 8.921875 5.386719 9.0625 5.527344 9.0625 5.695312 Z M 9.0625 5.695312 "/>
<path fill-rule="nonzero" fill="rgb(100%, 100%, 100%)" fill-opacity="1" d="M 9.886719 5.421875 C 9.886719 5.589844 9.75 5.730469 9.578125 5.730469 C 9.410156 5.730469 9.269531 5.589844 9.269531 5.421875 C 9.269531 5.25 9.410156 5.113281 9.578125 5.113281 C 9.75 5.113281 9.886719 5.25 9.886719 5.421875 Z M 9.886719 5.421875 "/>
<path fill-rule="nonzero" fill="rgb(100%, 100%, 100%)" fill-opacity="1" d="M 9.503906 5.207031 C 9.503906 5.375 9.367188 5.511719 9.195312 5.511719 C 9.027344 5.511719 8.886719 5.375 8.886719 5.207031 C 8.886719 5.035156 9.027344 4.898438 9.195312 4.898438 C 9.367188 4.898438 9.503906 5.035156 9.503906 5.207031 Z M 9.503906 5.207031 "/>
<path fill-rule="nonzero" fill="rgb(100%, 100%, 100%)" fill-opacity="1" d="M 10.199219 4.773438 C 10.199219 4.945312 10.058594 5.082031 9.890625 5.082031 C 9.71875 5.082031 9.582031 4.945312 9.582031 4.773438 C 9.582031 4.605469 9.71875 4.464844 9.890625 4.464844 C 10.058594 4.464844 10.199219 4.605469 10.199219 4.773438 Z M 10.199219 4.773438 "/>
<path fill-rule="nonzero" fill="rgb(100%, 100%, 100%)" fill-opacity="1" d="M 5.148438 12.445312 C 5.148438 12.617188 5.011719 12.753906 4.839844 12.753906 C 4.667969 12.753906 4.53125 12.617188 4.53125 12.445312 C 4.53125 12.277344 4.667969 12.136719 4.839844 12.136719 C 5.011719 12.136719 5.148438 12.277344 5.148438 12.445312 Z M 5.148438 12.445312 "/>
<path fill-rule="nonzero" fill="rgb(100%, 100%, 100%)" fill-opacity="1" d="M 8.773438 12.746094 C 8.773438 12.914062 8.636719 13.054688 8.464844 13.054688 C 8.296875 13.054688 8.15625 12.914062 8.15625 12.746094 C 8.15625 12.574219 8.296875 12.4375 8.464844 12.4375 C 8.636719 12.4375 8.773438 12.574219 8.773438 12.746094 Z M 8.773438 12.746094 "/>
<path fill-rule="nonzero" fill="rgb(100%, 100%, 100%)" fill-opacity="1" d="M 9.527344 12.339844 C 9.527344 12.507812 9.390625 12.644531 9.21875 12.644531 C 9.050781 12.644531 8.914062 12.507812 8.914062 12.339844 C 8.914062 12.167969 9.050781 12.03125 9.21875 12.03125 C 9.390625 12.03125 9.527344 12.167969 9.527344 12.339844 Z M 9.527344 12.339844 "/>
<path fill-rule="nonzero" fill="rgb(100%, 100%, 100%)" fill-opacity="1" d="M 9.863281 11.789062 C 9.863281 11.957031 9.726562 12.097656 9.554688 12.097656 C 9.386719 12.097656 9.246094 11.957031 9.246094 11.789062 C 9.246094 11.617188 9.386719 11.480469 9.554688 11.480469 C 9.726562 11.480469 9.863281 11.617188 9.863281 11.789062 Z M 9.863281 11.789062 "/>
<path fill-rule="nonzero" fill="rgb(100%, 100%, 100%)" fill-opacity="1" d="M 10.222656 11.070312 C 10.222656 11.238281 10.085938 11.378906 9.914062 11.378906 C 9.746094 11.378906 9.605469 11.238281 9.605469 11.070312 C 9.605469 10.898438 9.746094 10.761719 9.914062 10.761719 C 10.085938 10.761719 10.222656 10.898438 10.222656 11.070312 Z M 10.222656 11.070312 "/>
<path fill-rule="nonzero" fill="rgb(100%, 100%, 100%)" fill-opacity="1" d="M 10.355469 10.484375 C 10.355469 10.652344 10.214844 10.792969 10.046875 10.792969 C 9.875 10.792969 9.738281 10.652344 9.738281 10.484375 C 9.738281 10.3125 9.875 10.175781 10.046875 10.175781 C 10.214844 10.175781 10.355469 10.3125 10.355469 10.484375 Z M 10.355469 10.484375 "/>
<path fill-rule="nonzero" fill="rgb(100%, 100%, 100%)" fill-opacity="1" d="M 10.9375 9.789062 C 10.9375 9.910156 10.835938 10.007812 10.714844 10.007812 C 10.59375 10.007812 10.496094 9.910156 10.496094 9.789062 C 10.496094 9.667969 10.59375 9.570312 10.714844 9.570312 C 10.835938 9.570312 10.9375 9.667969 10.9375 9.789062 Z M 10.9375 9.789062 "/>
<path fill-rule="nonzero" fill="rgb(100%, 100%, 100%)" fill-opacity="1" d="M 10.523438 9.8125 C 10.523438 9.984375 10.382812 10.121094 10.214844 10.121094 C 10.042969 10.121094 9.90625 9.984375 9.90625 9.8125 C 9.90625 9.644531 10.042969 9.503906 10.214844 9.503906 C 10.382812 9.503906 10.523438 9.644531 10.523438 9.8125 Z M 10.523438 9.8125 "/>
<path fill-rule="nonzero" fill="rgb(100%, 100%, 100%)" fill-opacity="1" d="M 10.929688 8.832031 C 10.929688 9 10.789062 9.140625 10.621094 9.140625 C 10.449219 9.140625 10.3125 9 10.3125 8.832031 C 10.3125 8.660156 10.449219 8.523438 10.621094 8.523438 C 10.789062 8.523438 10.929688 8.660156 10.929688 8.832031 Z M 10.929688 8.832031 "/>
<path fill-rule="nonzero" fill="rgb(100%, 100%, 100%)" fill-opacity="1" d="M 10.414062 9.046875 C 10.414062 9.21875 10.277344 9.355469 10.105469 9.355469 C 9.9375 9.355469 9.796875 9.21875 9.796875 9.046875 C 9.796875 8.875 9.9375 8.738281 10.105469 8.738281 C 10.277344 8.738281 10.414062 8.875 10.414062 9.046875 Z M 10.414062 9.046875 "/>
<path fill-rule="nonzero" fill="rgb(100%, 100%, 100%)" fill-opacity="1" d="M 10.59375 8.125 C 10.59375 8.296875 10.457031 8.433594 10.285156 8.433594 C 10.117188 8.433594 9.976562 8.296875 9.976562 8.125 C 9.976562 7.957031 10.117188 7.816406 10.285156 7.816406 C 10.457031 7.816406 10.59375 7.957031 10.59375 8.125 Z M 10.59375 8.125 "/>
<path fill-rule="nonzero" fill="rgb(100%, 100%, 100%)" fill-opacity="1" d="M 10.078125 8.363281 C 10.078125 8.535156 9.941406 8.671875 9.769531 8.671875 C 9.601562 8.671875 9.460938 8.535156 9.460938 8.363281 C 9.460938 8.195312 9.601562 8.058594 9.769531 8.058594 C 9.941406 8.058594 10.078125 8.195312 10.078125 8.363281 Z M 10.078125 8.363281 "/>
<path fill-rule="nonzero" fill="rgb(100%, 100%, 100%)" fill-opacity="1" d="M 5.816406 12.78125 C 5.816406 12.953125 5.679688 13.089844 5.511719 13.089844 C 5.339844 13.089844 5.203125 12.953125 5.203125 12.78125 C 5.203125 12.609375 5.339844 12.472656 5.511719 12.472656 C 5.679688 12.472656 5.816406 12.609375 5.816406 12.78125 Z M 5.816406 12.78125 "/>
<path fill-rule="nonzero" fill="rgb(100%, 100%, 100%)" fill-opacity="1" d="M 6.523438 12.949219 C 6.523438 13.117188 6.386719 13.257812 6.214844 13.257812 C 6.046875 13.257812 5.90625 13.117188 5.90625 12.949219 C 5.90625 12.777344 6.046875 12.640625 6.214844 12.640625 C 6.386719 12.640625 6.523438 12.777344 6.523438 12.949219 Z M 6.523438 12.949219 "/>
<path fill-rule="nonzero" fill="rgb(100%, 100%, 100%)" fill-opacity="1" d="M 7.207031 13.042969 C 7.207031 13.214844 7.070312 13.351562 6.898438 13.351562 C 6.726562 13.351562 6.589844 13.214844 6.589844 13.042969 C 6.589844 12.875 6.726562 12.738281 6.898438 12.738281 C 7.070312 12.738281 7.207031 12.875 7.207031 13.042969 Z M 7.207031 13.042969 "/>
<path fill-rule="nonzero" fill="rgb(100%, 100%, 100%)" fill-opacity="1" d="M 6.355469 13.390625 C 6.355469 13.5625 6.21875 13.699219 6.046875 13.699219 C 5.878906 13.699219 5.742188 13.5625 5.742188 13.390625 C 5.742188 13.222656 5.878906 13.082031 6.046875 13.082031 C 6.21875 13.082031 6.355469 13.222656 6.355469 13.390625 Z M 6.355469 13.390625 "/>
<path fill-rule="nonzero" fill="rgb(100%, 100%, 100%)" fill-opacity="1" d="M 5.554688 13.199219 C 5.554688 13.371094 5.417969 13.507812 5.246094 13.507812 C 5.078125 13.507812 4.9375 13.371094 4.9375 13.199219 C 4.9375 13.03125 5.078125 12.890625 5.246094 12.890625 C 5.417969 12.890625 5.554688 13.03125 5.554688 13.199219 Z M 5.554688 13.199219 "/>
<path fill-rule="nonzero" fill="rgb(100%, 100%, 100%)" fill-opacity="1" d="M 4.910156 12.792969 C 4.910156 12.964844 4.769531 13.101562 4.601562 13.101562 C 4.429688 13.101562 4.292969 12.964844 4.292969 12.792969 C 4.292969 12.621094 4.429688 12.484375 4.601562 12.484375 C 4.769531 12.484375 4.910156 12.621094 4.910156 12.792969 Z M 4.910156 12.792969 "/>
<path fill-rule="nonzero" fill="rgb(100%, 100%, 100%)" fill-opacity="1" d="M 4.203125 12.363281 C 4.203125 12.53125 4.066406 12.671875 3.894531 12.671875 C 3.722656 12.671875 3.585938 12.53125 3.585938 12.363281 C 3.585938 12.191406 3.722656 12.054688 3.894531 12.054688 C 4.066406 12.054688 4.203125 12.191406 4.203125 12.363281 Z M 4.203125 12.363281 "/>
<path fill-rule="nonzero" fill="rgb(100%, 100%, 100%)" fill-opacity="1" d="M 4.585938 11.96875 C 4.585938 12.136719 4.449219 12.273438 4.277344 12.273438 C 4.105469 12.273438 3.96875 12.136719 3.96875 11.96875 C 3.96875 11.796875 4.105469 11.660156 4.277344 11.660156 C 4.449219 11.660156 4.585938 11.796875 4.585938 11.96875 Z M 4.585938 11.96875 "/>
<path fill-rule="nonzero" fill="rgb(100%, 100%, 100%)" fill-opacity="1" d="M 3.710938 11.65625 C 3.710938 11.828125 3.574219 11.964844 3.402344 11.964844 C 3.234375 11.964844 3.09375 11.828125 3.09375 11.65625 C 3.09375 11.484375 3.234375 11.347656 3.402344 11.347656 C 3.574219 11.347656 3.710938 11.484375 3.710938 11.65625 Z M 3.710938 11.65625 "/>
<path fill-rule="nonzero" fill="rgb(100%, 100%, 100%)" fill-opacity="1" d="M 4.167969 11.355469 C 4.167969 11.527344 4.027344 11.664062 3.859375 11.664062 C 3.6875 11.664062 3.550781 11.527344 3.550781 11.355469 C 3.550781 11.1875 3.6875 11.050781 3.859375 11.050781 C 4.027344 11.050781 4.167969 11.1875 4.167969 11.355469 Z M 4.167969 11.355469 "/>
<path fill-rule="nonzero" fill="rgb(100%, 100%, 100%)" fill-opacity="1" d="M 9.753906 12.722656 C 9.753906 12.890625 9.617188 13.03125 9.449219 13.03125 C 9.277344 13.03125 9.140625 12.890625 9.140625 12.722656 C 9.140625 12.550781 9.277344 12.414062 9.449219 12.414062 C 9.617188 12.414062 9.753906 12.550781 9.753906 12.722656 Z M 9.753906 12.722656 "/>
<path fill-rule="nonzero" fill="rgb(100%, 100%, 100%)" fill-opacity="1" d="M 8.953125 13.1875 C 8.953125 13.359375 8.816406 13.496094 8.644531 13.496094 C 8.476562 13.496094 8.335938 13.359375 8.335938 13.1875 C 8.335938 13.019531 8.476562 12.878906 8.644531 12.878906 C 8.816406 12.878906 8.953125 13.019531 8.953125 13.1875 Z M 8.953125 13.1875 "/>
<path fill-rule="nonzero" fill="rgb(100%, 100%, 100%)" fill-opacity="1" d="M 8.082031 13.511719 C 8.082031 13.679688 7.941406 13.820312 7.773438 13.820312 C 7.601562 13.820312 7.464844 13.679688 7.464844 13.511719 C 7.464844 13.339844 7.601562 13.203125 7.773438 13.203125 C 7.941406 13.203125 8.082031 13.339844 8.082031 13.511719 Z M 8.082031 13.511719 "/>
<path fill-rule="nonzero" fill="rgb(100%, 100%, 100%)" fill-opacity="1" d="M 7.9375 13.019531 C 7.9375 13.191406 7.796875 13.328125 7.628906 13.328125 C 7.457031 13.328125 7.320312 13.191406 7.320312 13.019531 C 7.320312 12.851562 7.457031 12.710938 7.628906 12.710938 C 7.796875 12.710938 7.9375 12.851562 7.9375 13.019531 Z M 7.9375 13.019531 "/>
<path fill-rule="nonzero" fill="rgb(100%, 100%, 100%)" fill-opacity="1" d="M 7.160156 13.535156 C 7.160156 13.707031 7.019531 13.84375 6.851562 13.84375 C 6.679688 13.84375 6.542969 13.707031 6.542969 13.535156 C 6.542969 13.363281 6.679688 13.226562 6.851562 13.226562 C 7.019531 13.226562 7.160156 13.363281 7.160156 13.535156 Z M 7.160156 13.535156 "/>
<path fill-rule="nonzero" fill="rgb(100%, 100%, 100%)" fill-opacity="1" d="M 10.355469 12.0625 C 10.355469 12.234375 10.214844 12.371094 10.046875 12.371094 C 9.875 12.371094 9.738281 12.234375 9.738281 12.0625 C 9.738281 11.894531 9.875 11.753906 10.046875 11.753906 C 10.214844 11.753906 10.355469 11.894531 10.355469 12.0625 Z M 10.355469 12.0625 "/>
<path fill-rule="nonzero" fill="rgb(100%, 100%, 100%)" fill-opacity="1" d="M 10.988281 10.578125 C 10.988281 10.75 10.851562 10.886719 10.679688 10.886719 C 10.511719 10.886719 10.371094 10.75 10.371094 10.578125 C 10.371094 10.410156 10.511719 10.269531 10.679688 10.269531 C 10.851562 10.269531 10.988281 10.410156 10.988281 10.578125 Z M 10.988281 10.578125 "/>
<path fill-rule="nonzero" fill="rgb(100%, 100%, 100%)" fill-opacity="1" d="M 10.773438 11.261719 C 10.773438 11.429688 10.636719 11.570312 10.464844 11.570312 C 10.292969 11.570312 10.15625 11.429688 10.15625 11.261719 C 10.15625 11.089844 10.292969 10.953125 10.464844 10.953125 C 10.636719 10.953125 10.773438 11.089844 10.773438 11.261719 Z M 10.773438 11.261719 "/>
</svg>
