<?xml version="1.0" encoding="UTF-8"?>
<svg xmlns="http://www.w3.org/2000/svg" xmlns:xlink="http://www.w3.org/1999/xlink" width="14" height="14" viewBox="0 0 14 14">
<path fill-rule="nonzero" fill="rgb(0%, 0%, 0%)" fill-opacity="1" stroke-width="10" stroke-linecap="butt" stroke-linejoin="miter" stroke="rgb(100%, 100%, 100%)" stroke-opacity="1" stroke-miterlimit="4" d="M 5.027343 5.027343 L 5.027343 148.972649 L 148.972649 148.972649 L 148.972649 5.027343 Z M 5.027343 5.027343 " transform="matrix(0.0909091, 0, 0, 0.0909091, 0, 0)"/>
<path fill-rule="nonzero" fill="rgb(100%, 100%, 100%)" fill-opacity="1" d="M 4 3.519531 L 4 2.425781 L 10 2.425781 L 10 3.308594 C 9.410156 3.9375 8.828125 4.773438 8.246094 5.816406 C 7.667969 6.855469 7.21875 7.925781 6.902344 9.027344 C 6.675781 9.804688 6.53125 10.652344 6.464844 11.574219 L 5.292969 11.574219 C 5.308594 10.847656 5.449219 9.964844 5.722656 8.933594 C 6 7.902344 6.390625 6.902344 6.90625 5.941406 C 7.417969 4.984375 7.960938 4.175781 8.542969 3.519531 Z M 4 3.519531 "/>
</svg>
