<?xml version="1.0" encoding="UTF-8"?>
<svg xmlns="http://www.w3.org/2000/svg" xmlns:xlink="http://www.w3.org/1999/xlink" width="15" height="15" viewBox="0 0 15 15">
<path fill-rule="nonzero" fill="rgb(100%, 100%, 100%)" fill-opacity="1" stroke-width="10" stroke-linecap="butt" stroke-linejoin="miter" stroke="rgb(100%, 0%, 0%)" stroke-opacity="1" stroke-miterlimit="4" d="M 5.013021 5.013021 L 5.013021 148.986979 L 148.986979 148.986979 L 148.986979 5.013021 Z M 5.013021 5.013021 " transform="matrix(0.0974026, 0, 0, 0.0974026, 0, 0)"/>
<path fill-rule="nonzero" fill="rgb(100%, 0%, 0%)" fill-opacity="1" d="M 4.445312 2.324219 L 5.847656 2.324219 L 4.445312 9.335938 L 5.5 9.335938 L 5.5 7.234375 L 6.902344 7.234375 L 6.902344 9.335938 L 7.25 9.335938 L 7.25 10.742188 L 6.902344 10.742188 L 6.902344 12.144531 L 5.5 12.144531 L 5.5 10.742188 L 3.039062 10.742188 L 3.039062 9.335938 L 4.445312 2.324219 "/>
<path fill-rule="nonzero" fill="rgb(100%, 0%, 0%)" fill-opacity="1" d="M 9.816406 2.324219 L 11.761719 2.324219 L 11.761719 3.027344 L 10.511719 3.027344 L 10.511719 4.140625 C 10.625 4.101562 10.742188 4.078125 10.867188 4.078125 C 11.15625 4.078125 11.402344 4.179688 11.609375 4.390625 C 11.816406 4.59375 11.917969 4.84375 11.917969 5.132812 L 11.917969 6.183594 C 11.917969 6.472656 11.816406 6.71875 11.609375 6.925781 C 11.402344 7.132812 11.15625 7.234375 10.867188 7.234375 C 10.578125 7.234375 10.328125 7.132812 10.125 6.925781 C 9.917969 6.71875 9.816406 6.472656 9.816406 6.183594 L 9.816406 5.832031 L 10.511719 5.832031 L 10.511719 6.183594 C 10.511719 6.28125 10.546875 6.363281 10.617188 6.433594 C 10.683594 6.5 10.769531 6.53125 10.867188 6.53125 C 10.964844 6.53125 11.046875 6.5 11.113281 6.433594 C 11.179688 6.363281 11.214844 6.28125 11.214844 6.183594 L 11.214844 5.132812 C 11.214844 5.035156 11.179688 4.949219 11.113281 4.882812 C 11.046875 4.8125 10.964844 4.777344 10.867188 4.777344 C 10.769531 4.777344 10.683594 4.8125 10.617188 4.882812 C 10.546875 4.949219 10.511719 5.035156 10.511719 5.132812 L 9.816406 5.132812 L 9.816406 2.324219 "/>
<path fill-rule="nonzero" fill="rgb(100%, 0%, 0%)" fill-opacity="1" d="M 7.769531 2.324219 L 8.742188 2.324219 L 8.742188 3.300781 L 7.769531 3.300781 L 7.769531 2.324219 "/>
</svg>
