<?xml version="1.0" encoding="UTF-8"?>
<svg xmlns="http://www.w3.org/2000/svg" xmlns:xlink="http://www.w3.org/1999/xlink" width="15" height="15" viewBox="0 0 15 15">
<path fill-rule="nonzero" fill="rgb(100%, 100%, 100%)" fill-opacity="1" stroke-width="10" stroke-linecap="butt" stroke-linejoin="miter" stroke="rgb(100%, 0%, 0%)" stroke-opacity="1" stroke-miterlimit="4" d="M 5.013021 5.013021 L 5.013021 148.986979 L 148.986979 148.986979 L 148.986979 5.013021 Z M 5.013021 5.013021 " transform="matrix(0.0974026, 0, 0, 0.0974026, 0, 0)"/>
<path fill-rule="nonzero" fill="rgb(100%, 0%, 0%)" fill-opacity="1" d="M 4.421875 2.324219 L 5.828125 2.324219 L 5.828125 12.144531 L 4.421875 12.144531 L 4.421875 3.726562 L 3.027344 5.132812 L 3.027344 3.726562 L 4.421875 2.324219 "/>
<path fill-rule="nonzero" fill="rgb(100%, 0%, 0%)" fill-opacity="1" d="M 8.527344 2.945312 C 8.9375 2.53125 9.433594 2.324219 10.011719 2.324219 C 10.589844 2.324219 11.085938 2.53125 11.496094 2.945312 C 11.910156 3.359375 12.113281 3.851562 12.113281 4.433594 C 12.113281 4.742188 12.050781 5.035156 11.929688 5.304688 L 9.476562 10.742188 L 12.113281 10.742188 L 12.113281 12.144531 L 7.910156 12.144531 L 7.910156 10.742188 L 10.546875 4.972656 C 10.660156 4.703125 10.714844 4.523438 10.710938 4.433594 C 10.710938 4.238281 10.640625 4.070312 10.503906 3.933594 C 10.371094 3.796875 10.207031 3.726562 10.011719 3.726562 C 9.816406 3.726562 9.648438 3.796875 9.511719 3.933594 C 9.375 4.070312 9.304688 4.238281 9.304688 4.433594 L 7.910156 4.433594 C 7.910156 3.851562 8.113281 3.359375 8.527344 2.945312 "/>
</svg>
