<?xml version="1.0" encoding="UTF-8"?>
<svg xmlns="http://www.w3.org/2000/svg" xmlns:xlink="http://www.w3.org/1999/xlink" width="16" height="16" viewBox="0 0 16 16">
<path fill-rule="nonzero" fill="rgb(100%, 100%, 100%)" fill-opacity="1" stroke-width="10" stroke-linecap="butt" stroke-linejoin="miter" stroke="rgb(100%, 0%, 0%)" stroke-opacity="1" stroke-miterlimit="4" d="M 5.000488 5.000488 L 5.000488 148.999504 L 148.999504 148.999504 L 148.999504 5.000488 Z M 5.000488 5.000488 " transform="matrix(0.103896, 0, 0, 0.103896, 0, 0)"/>
<path fill-rule="nonzero" fill="rgb(100%, 0%, 0%)" fill-opacity="1" d="M 6.507812 3.140625 C 6.949219 2.699219 7.476562 2.480469 8.097656 2.480469 C 8.710938 2.480469 9.242188 2.699219 9.679688 3.140625 C 10.117188 3.582031 10.335938 4.109375 10.335938 4.730469 L 10.335938 5.660156 C 10.335938 6.238281 10.144531 6.734375 9.765625 7.144531 C 10.144531 7.574219 10.335938 8.074219 10.335938 8.644531 L 10.335938 10.710938 C 10.335938 11.328125 10.117188 11.859375 9.679688 12.296875 C 9.242188 12.734375 8.710938 12.953125 8.097656 12.953125 C 7.476562 12.953125 6.949219 12.734375 6.507812 12.296875 C 6.070312 11.859375 5.855469 11.328125 5.855469 10.710938 L 5.855469 8.644531 C 5.855469 8.074219 6.042969 7.574219 6.417969 7.144531 C 6.035156 6.730469 5.847656 6.230469 5.855469 5.660156 L 5.855469 4.730469 C 5.855469 4.109375 6.070312 3.582031 6.507812 3.140625 M 8.621094 4.195312 C 8.480469 4.050781 8.304688 3.976562 8.097656 3.976562 C 7.886719 3.976562 7.707031 4.050781 7.5625 4.195312 C 7.417969 4.339844 7.339844 4.519531 7.339844 4.730469 L 7.339844 5.660156 C 7.339844 5.875 7.417969 6.054688 7.5625 6.195312 C 7.707031 6.332031 7.886719 6.398438 8.097656 6.398438 C 8.304688 6.398438 8.480469 6.332031 8.621094 6.195312 C 8.765625 6.054688 8.839844 5.875 8.839844 5.660156 L 8.839844 4.730469 C 8.839844 4.519531 8.765625 4.339844 8.621094 4.195312 M 8.621094 8.117188 C 8.480469 7.972656 8.304688 7.898438 8.097656 7.898438 C 7.886719 7.898438 7.707031 7.972656 7.5625 8.117188 C 7.417969 8.257812 7.339844 8.433594 7.339844 8.644531 L 7.339844 10.710938 C 7.339844 10.921875 7.417969 11.101562 7.5625 11.246094 C 7.707031 11.386719 7.886719 11.457031 8.097656 11.457031 C 8.304688 11.457031 8.480469 11.386719 8.621094 11.246094 C 8.765625 11.101562 8.839844 10.921875 8.839844 10.710938 L 8.839844 8.644531 C 8.839844 8.433594 8.765625 8.257812 8.621094 8.117188 "/>
</svg>
