<?xml version="1.0" encoding="UTF-8"?>
<svg xmlns="http://www.w3.org/2000/svg" xmlns:xlink="http://www.w3.org/1999/xlink" width="14.244597" height="14" viewBox="0 0 14.244597 14">
<path fill-rule="nonzero" fill="rgb(0%, 0%, 0%)" fill-opacity="1" stroke-width="1.011478" stroke-linecap="butt" stroke-linejoin="miter" stroke="rgb(0%, 0%, 0%)" stroke-opacity="1" stroke-miterlimit="4" d="M 1716.581512 1909.966606 L 1370.084395 1909.966606 L 1370.084395 1570.895652 L 1715.152068 1570.895652 Z M 1716.581512 1909.966606 " transform="matrix(0.0409906, 0, 0, 0.0411741, -56.141051, -64.660666)"/>
<path fill-rule="nonzero" fill="rgb(100%, 100%, 100%)" fill-opacity="1" d="M 0.222656 3.828125 C 0.222656 3.648438 0.359375 3.503906 0.527344 3.503906 C 0.699219 3.503906 0.835938 3.648438 0.835938 3.828125 C 0.835938 4.007812 0.699219 4.152344 0.527344 4.152344 C 0.359375 4.152344 0.222656 4.007812 0.222656 3.828125 Z M 0.222656 3.828125 "/>
<path fill-rule="nonzero" fill="rgb(100%, 100%, 100%)" fill-opacity="1" d="M 0.710938 4.15625 C 0.710938 3.976562 0.851562 3.832031 1.019531 3.832031 C 1.1875 3.832031 1.324219 3.976562 1.324219 4.15625 C 1.324219 4.335938 1.1875 4.480469 1.019531 4.480469 C 0.851562 4.480469 0.710938 4.335938 0.710938 4.15625 Z M 0.710938 4.15625 "/>
<path fill-rule="nonzero" fill="rgb(100%, 100%, 100%)" fill-opacity="1" d="M 0.710938 3.339844 C 0.710938 3.160156 0.851562 3.011719 1.019531 3.011719 C 1.1875 3.011719 1.324219 3.160156 1.324219 3.339844 C 1.324219 3.515625 1.1875 3.664062 1.019531 3.664062 C 0.851562 3.664062 0.710938 3.515625 0.710938 3.339844 Z M 0.710938 3.339844 "/>
<path fill-rule="nonzero" fill="rgb(100%, 100%, 100%)" fill-opacity="1" d="M 1.039062 3.582031 C 1.039062 3.402344 1.175781 3.257812 1.347656 3.257812 C 1.515625 3.257812 1.652344 3.402344 1.652344 3.582031 C 1.652344 3.761719 1.515625 3.90625 1.347656 3.90625 C 1.175781 3.90625 1.039062 3.761719 1.039062 3.582031 Z M 1.039062 3.582031 "/>
<path fill-rule="nonzero" fill="rgb(100%, 100%, 100%)" fill-opacity="1" d="M 1.203125 2.683594 C 1.203125 2.503906 1.339844 2.359375 1.507812 2.359375 C 1.679688 2.359375 1.816406 2.503906 1.816406 2.683594 C 1.816406 2.863281 1.679688 3.007812 1.507812 3.007812 C 1.339844 3.007812 1.203125 2.863281 1.203125 2.683594 Z M 1.203125 2.683594 "/>
<path fill-rule="nonzero" fill="rgb(100%, 100%, 100%)" fill-opacity="1" d="M 1.53125 3.011719 C 1.53125 2.832031 1.667969 2.6875 1.835938 2.6875 C 2.007812 2.6875 2.144531 2.832031 2.144531 3.011719 C 2.144531 3.191406 2.007812 3.335938 1.835938 3.335938 C 1.667969 3.335938 1.53125 3.191406 1.53125 3.011719 Z M 1.53125 3.011719 "/>
<path fill-rule="nonzero" fill="rgb(100%, 100%, 100%)" fill-opacity="1" d="M 1.695312 2.191406 C 1.695312 2.015625 1.832031 1.867188 2 1.867188 C 2.167969 1.867188 2.308594 2.015625 2.308594 2.191406 C 2.308594 2.371094 2.167969 2.519531 2 2.519531 C 1.832031 2.519531 1.695312 2.371094 1.695312 2.191406 Z M 1.695312 2.191406 "/>
<path fill-rule="nonzero" fill="rgb(100%, 100%, 100%)" fill-opacity="1" d="M 1.9375 2.519531 C 1.9375 2.339844 2.078125 2.195312 2.246094 2.195312 C 2.414062 2.195312 2.550781 2.339844 2.550781 2.519531 C 2.550781 2.699219 2.414062 2.84375 2.246094 2.84375 C 2.078125 2.84375 1.9375 2.699219 1.9375 2.519531 Z M 1.9375 2.519531 "/>
<path fill-rule="nonzero" fill="rgb(100%, 100%, 100%)" fill-opacity="1" d="M 2.019531 1.621094 C 2.019531 1.441406 2.160156 1.296875 2.328125 1.296875 C 2.496094 1.296875 2.632812 1.441406 2.632812 1.621094 C 2.632812 1.800781 2.496094 1.945312 2.328125 1.945312 C 2.160156 1.945312 2.019531 1.800781 2.019531 1.621094 Z M 2.019531 1.621094 "/>
<path fill-rule="nonzero" fill="rgb(100%, 100%, 100%)" fill-opacity="1" d="M 2.347656 1.949219 C 2.347656 1.769531 2.484375 1.621094 2.65625 1.621094 C 2.824219 1.621094 2.960938 1.769531 2.960938 1.949219 C 2.960938 2.128906 2.824219 2.273438 2.65625 2.273438 C 2.484375 2.273438 2.347656 2.128906 2.347656 1.949219 Z M 2.347656 1.949219 "/>
<path fill-rule="nonzero" fill="rgb(100%, 100%, 100%)" fill-opacity="1" d="M 2.511719 1.210938 C 2.511719 1.03125 2.648438 0.886719 2.816406 0.886719 C 2.988281 0.886719 3.125 1.03125 3.125 1.210938 C 3.125 1.390625 2.988281 1.535156 2.816406 1.535156 C 2.648438 1.535156 2.511719 1.390625 2.511719 1.210938 Z M 2.511719 1.210938 "/>
<path fill-rule="nonzero" fill="rgb(100%, 100%, 100%)" fill-opacity="1" d="M 3.003906 0.558594 C 3.003906 0.378906 3.140625 0.234375 3.308594 0.234375 C 3.476562 0.234375 3.617188 0.378906 3.617188 0.558594 C 3.617188 0.738281 3.476562 0.882812 3.308594 0.882812 C 3.140625 0.882812 3.003906 0.738281 3.003906 0.558594 Z M 3.003906 0.558594 "/>
<path fill-rule="nonzero" fill="rgb(100%, 100%, 100%)" fill-opacity="1" d="M 3.003906 1.457031 C 3.003906 1.277344 3.140625 1.132812 3.308594 1.132812 C 3.476562 1.132812 3.617188 1.277344 3.617188 1.457031 C 3.617188 1.636719 3.476562 1.78125 3.308594 1.78125 C 3.140625 1.78125 3.003906 1.636719 3.003906 1.457031 Z M 3.003906 1.457031 "/>
<path fill-rule="nonzero" fill="rgb(100%, 100%, 100%)" fill-opacity="1" d="M 3.003906 2.109375 C 3.003906 1.933594 3.140625 1.785156 3.308594 1.785156 C 3.476562 1.785156 3.617188 1.933594 3.617188 2.109375 C 3.617188 2.289062 3.476562 2.4375 3.308594 2.4375 C 3.140625 2.4375 3.003906 2.289062 3.003906 2.109375 Z M 3.003906 2.109375 "/>
<path fill-rule="nonzero" fill="rgb(100%, 100%, 100%)" fill-opacity="1" d="M 3.003906 2.929688 C 3.003906 2.75 3.140625 2.605469 3.308594 2.605469 C 3.476562 2.605469 3.617188 2.75 3.617188 2.929688 C 3.617188 3.109375 3.476562 3.253906 3.308594 3.253906 C 3.140625 3.253906 3.003906 3.109375 3.003906 2.929688 Z M 3.003906 2.929688 "/>
<path fill-rule="nonzero" fill="rgb(100%, 100%, 100%)" fill-opacity="1" d="M 3.003906 3.746094 C 3.003906 3.566406 3.140625 3.421875 3.308594 3.421875 C 3.476562 3.421875 3.617188 3.566406 3.617188 3.746094 C 3.617188 3.925781 3.476562 4.070312 3.308594 4.070312 C 3.140625 4.070312 3.003906 3.925781 3.003906 3.746094 Z M 3.003906 3.746094 "/>
<path fill-rule="nonzero" fill="rgb(100%, 100%, 100%)" fill-opacity="1" d="M 3.003906 4.484375 C 3.003906 4.304688 3.140625 4.15625 3.308594 4.15625 C 3.476562 4.15625 3.617188 4.304688 3.617188 4.484375 C 3.617188 4.664062 3.476562 4.808594 3.308594 4.808594 C 3.140625 4.808594 3.003906 4.664062 3.003906 4.484375 Z M 3.003906 4.484375 "/>
<path fill-rule="nonzero" fill="rgb(100%, 100%, 100%)" fill-opacity="1" d="M 3.003906 5.300781 C 3.003906 5.121094 3.140625 4.976562 3.308594 4.976562 C 3.476562 4.976562 3.617188 5.121094 3.617188 5.300781 C 3.617188 5.480469 3.476562 5.625 3.308594 5.625 C 3.140625 5.625 3.003906 5.480469 3.003906 5.300781 Z M 3.003906 5.300781 "/>
<path fill-rule="nonzero" fill="rgb(100%, 100%, 100%)" fill-opacity="1" d="M 3.003906 6.035156 C 3.003906 5.855469 3.140625 5.710938 3.308594 5.710938 C 3.476562 5.710938 3.617188 5.855469 3.617188 6.035156 C 3.617188 6.214844 3.476562 6.363281 3.308594 6.363281 C 3.140625 6.363281 3.003906 6.214844 3.003906 6.035156 Z M 3.003906 6.035156 "/>
<path fill-rule="nonzero" fill="rgb(100%, 100%, 100%)" fill-opacity="1" d="M 3.003906 6.855469 C 3.003906 6.675781 3.140625 6.53125 3.308594 6.53125 C 3.476562 6.53125 3.617188 6.675781 3.617188 6.855469 C 3.617188 7.035156 3.476562 7.179688 3.308594 7.179688 C 3.140625 7.179688 3.003906 7.035156 3.003906 6.855469 Z M 3.003906 6.855469 "/>
<path fill-rule="nonzero" fill="rgb(100%, 100%, 100%)" fill-opacity="1" d="M 3.003906 7.753906 C 3.003906 7.574219 3.140625 7.429688 3.308594 7.429688 C 3.476562 7.429688 3.617188 7.574219 3.617188 7.753906 C 3.617188 7.933594 3.476562 8.078125 3.308594 8.078125 C 3.140625 8.078125 3.003906 7.933594 3.003906 7.753906 Z M 3.003906 7.753906 "/>
<path fill-rule="nonzero" fill="rgb(100%, 100%, 100%)" fill-opacity="1" d="M 3.003906 8.570312 C 3.003906 8.390625 3.140625 8.246094 3.308594 8.246094 C 3.476562 8.246094 3.617188 8.390625 3.617188 8.570312 C 3.617188 8.75 3.476562 8.898438 3.308594 8.898438 C 3.140625 8.898438 3.003906 8.75 3.003906 8.570312 Z M 3.003906 8.570312 "/>
<path fill-rule="nonzero" fill="rgb(100%, 100%, 100%)" fill-opacity="1" d="M 3.003906 9.390625 C 3.003906 9.210938 3.140625 9.066406 3.308594 9.066406 C 3.476562 9.066406 3.617188 9.210938 3.617188 9.390625 C 3.617188 9.570312 3.476562 9.714844 3.308594 9.714844 C 3.140625 9.714844 3.003906 9.570312 3.003906 9.390625 Z M 3.003906 9.390625 "/>
<path fill-rule="nonzero" fill="rgb(100%, 100%, 100%)" fill-opacity="1" d="M 3.003906 10.289062 C 3.003906 10.109375 3.140625 9.964844 3.308594 9.964844 C 3.476562 9.964844 3.617188 10.109375 3.617188 10.289062 C 3.617188 10.46875 3.476562 10.613281 3.308594 10.613281 C 3.140625 10.613281 3.003906 10.46875 3.003906 10.289062 Z M 3.003906 10.289062 "/>
<path fill-rule="nonzero" fill="rgb(100%, 100%, 100%)" fill-opacity="1" d="M 3.003906 11.023438 C 3.003906 10.847656 3.140625 10.699219 3.308594 10.699219 C 3.476562 10.699219 3.617188 10.847656 3.617188 11.023438 C 3.617188 11.203125 3.476562 11.351562 3.308594 11.351562 C 3.140625 11.351562 3.003906 11.203125 3.003906 11.023438 Z M 3.003906 11.023438 "/>
<path fill-rule="nonzero" fill="rgb(100%, 100%, 100%)" fill-opacity="1" d="M 3.003906 11.761719 C 3.003906 11.582031 3.140625 11.4375 3.308594 11.4375 C 3.476562 11.4375 3.617188 11.582031 3.617188 11.761719 C 3.617188 11.941406 3.476562 12.085938 3.308594 12.085938 C 3.140625 12.085938 3.003906 11.941406 3.003906 11.761719 Z M 3.003906 11.761719 "/>
<path fill-rule="nonzero" fill="rgb(100%, 100%, 100%)" fill-opacity="1" d="M 3.003906 12.496094 C 3.003906 12.316406 3.140625 12.171875 3.308594 12.171875 C 3.476562 12.171875 3.617188 12.316406 3.617188 12.496094 C 3.617188 12.675781 3.476562 12.820312 3.308594 12.820312 C 3.140625 12.820312 3.003906 12.675781 3.003906 12.496094 Z M 3.003906 12.496094 "/>
<path fill-rule="nonzero" fill="rgb(100%, 100%, 100%)" fill-opacity="1" d="M 3.003906 13.234375 C 3.003906 13.054688 3.140625 12.910156 3.308594 12.910156 C 3.476562 12.910156 3.617188 13.054688 3.617188 13.234375 C 3.617188 13.414062 3.476562 13.558594 3.308594 13.558594 C 3.140625 13.558594 3.003906 13.414062 3.003906 13.234375 Z M 3.003906 13.234375 "/>
<path fill-rule="nonzero" fill="rgb(100%, 100%, 100%)" fill-opacity="1" d="M 3.574219 13.234375 C 3.574219 13.054688 3.710938 12.910156 3.882812 12.910156 C 4.050781 12.910156 4.1875 13.054688 4.1875 13.234375 C 4.1875 13.414062 4.050781 13.558594 3.882812 13.558594 C 3.710938 13.558594 3.574219 13.414062 3.574219 13.234375 Z M 3.574219 13.234375 "/>
<path fill-rule="nonzero" fill="rgb(100%, 100%, 100%)" fill-opacity="1" d="M 3.574219 12.496094 C 3.574219 12.316406 3.710938 12.171875 3.882812 12.171875 C 4.050781 12.171875 4.1875 12.316406 4.1875 12.496094 C 4.1875 12.675781 4.050781 12.820312 3.882812 12.820312 C 3.710938 12.820312 3.574219 12.675781 3.574219 12.496094 Z M 3.574219 12.496094 "/>
<path fill-rule="nonzero" fill="rgb(100%, 100%, 100%)" fill-opacity="1" d="M 3.574219 11.761719 C 3.574219 11.582031 3.710938 11.4375 3.882812 11.4375 C 4.050781 11.4375 4.1875 11.582031 4.1875 11.761719 C 4.1875 11.941406 4.050781 12.085938 3.882812 12.085938 C 3.710938 12.085938 3.574219 11.941406 3.574219 11.761719 Z M 3.574219 11.761719 "/>
<path fill-rule="nonzero" fill="rgb(100%, 100%, 100%)" fill-opacity="1" d="M 3.574219 11.023438 C 3.574219 10.847656 3.710938 10.699219 3.882812 10.699219 C 4.050781 10.699219 4.1875 10.847656 4.1875 11.023438 C 4.1875 11.203125 4.050781 11.351562 3.882812 11.351562 C 3.710938 11.351562 3.574219 11.203125 3.574219 11.023438 Z M 3.574219 11.023438 "/>
<path fill-rule="nonzero" fill="rgb(100%, 100%, 100%)" fill-opacity="1" d="M 3.574219 10.289062 C 3.574219 10.109375 3.710938 9.964844 3.882812 9.964844 C 4.050781 9.964844 4.1875 10.109375 4.1875 10.289062 C 4.1875 10.46875 4.050781 10.613281 3.882812 10.613281 C 3.710938 10.613281 3.574219 10.46875 3.574219 10.289062 Z M 3.574219 10.289062 "/>
<path fill-rule="nonzero" fill="rgb(100%, 100%, 100%)" fill-opacity="1" d="M 3.574219 9.390625 C 3.574219 9.210938 3.710938 9.066406 3.882812 9.066406 C 4.050781 9.066406 4.1875 9.210938 4.1875 9.390625 C 4.1875 9.570312 4.050781 9.714844 3.882812 9.714844 C 3.710938 9.714844 3.574219 9.570312 3.574219 9.390625 Z M 3.574219 9.390625 "/>
<path fill-rule="nonzero" fill="rgb(100%, 100%, 100%)" fill-opacity="1" d="M 3.574219 8.570312 C 3.574219 8.390625 3.710938 8.246094 3.882812 8.246094 C 4.050781 8.246094 4.1875 8.390625 4.1875 8.570312 C 4.1875 8.75 4.050781 8.898438 3.882812 8.898438 C 3.710938 8.898438 3.574219 8.75 3.574219 8.570312 Z M 3.574219 8.570312 "/>
<path fill-rule="nonzero" fill="rgb(100%, 100%, 100%)" fill-opacity="1" d="M 3.574219 7.753906 C 3.574219 7.574219 3.710938 7.429688 3.882812 7.429688 C 4.050781 7.429688 4.1875 7.574219 4.1875 7.753906 C 4.1875 7.933594 4.050781 8.078125 3.882812 8.078125 C 3.710938 8.078125 3.574219 7.933594 3.574219 7.753906 Z M 3.574219 7.753906 "/>
<path fill-rule="nonzero" fill="rgb(100%, 100%, 100%)" fill-opacity="1" d="M 3.574219 6.855469 C 3.574219 6.675781 3.710938 6.53125 3.882812 6.53125 C 4.050781 6.53125 4.1875 6.675781 4.1875 6.855469 C 4.1875 7.035156 4.050781 7.179688 3.882812 7.179688 C 3.710938 7.179688 3.574219 7.035156 3.574219 6.855469 Z M 3.574219 6.855469 "/>
<path fill-rule="nonzero" fill="rgb(100%, 100%, 100%)" fill-opacity="1" d="M 3.574219 6.035156 C 3.574219 5.855469 3.710938 5.710938 3.882812 5.710938 C 4.050781 5.710938 4.1875 5.855469 4.1875 6.035156 C 4.1875 6.214844 4.050781 6.363281 3.882812 6.363281 C 3.710938 6.363281 3.574219 6.214844 3.574219 6.035156 Z M 3.574219 6.035156 "/>
<path fill-rule="nonzero" fill="rgb(100%, 100%, 100%)" fill-opacity="1" d="M 3.574219 5.300781 C 3.574219 5.121094 3.710938 4.976562 3.882812 4.976562 C 4.050781 4.976562 4.1875 5.121094 4.1875 5.300781 C 4.1875 5.480469 4.050781 5.625 3.882812 5.625 C 3.710938 5.625 3.574219 5.480469 3.574219 5.300781 Z M 3.574219 5.300781 "/>
<path fill-rule="nonzero" fill="rgb(100%, 100%, 100%)" fill-opacity="1" d="M 3.574219 4.484375 C 3.574219 4.304688 3.710938 4.15625 3.882812 4.15625 C 4.050781 4.15625 4.1875 4.304688 4.1875 4.484375 C 4.1875 4.664062 4.050781 4.808594 3.882812 4.808594 C 3.710938 4.808594 3.574219 4.664062 3.574219 4.484375 Z M 3.574219 4.484375 "/>
<path fill-rule="nonzero" fill="rgb(100%, 100%, 100%)" fill-opacity="1" d="M 3.574219 3.746094 C 3.574219 3.566406 3.710938 3.421875 3.882812 3.421875 C 4.050781 3.421875 4.1875 3.566406 4.1875 3.746094 C 4.1875 3.925781 4.050781 4.070312 3.882812 4.070312 C 3.710938 4.070312 3.574219 3.925781 3.574219 3.746094 Z M 3.574219 3.746094 "/>
<path fill-rule="nonzero" fill="rgb(100%, 100%, 100%)" fill-opacity="1" d="M 3.574219 2.929688 C 3.574219 2.75 3.710938 2.605469 3.882812 2.605469 C 4.050781 2.605469 4.1875 2.75 4.1875 2.929688 C 4.1875 3.109375 4.050781 3.253906 3.882812 3.253906 C 3.710938 3.253906 3.574219 3.109375 3.574219 2.929688 Z M 3.574219 2.929688 "/>
<path fill-rule="nonzero" fill="rgb(100%, 100%, 100%)" fill-opacity="1" d="M 3.574219 2.109375 C 3.574219 1.933594 3.710938 1.785156 3.882812 1.785156 C 4.050781 1.785156 4.1875 1.933594 4.1875 2.109375 C 4.1875 2.289062 4.050781 2.4375 3.882812 2.4375 C 3.710938 2.4375 3.574219 2.289062 3.574219 2.109375 Z M 3.574219 2.109375 "/>
<path fill-rule="nonzero" fill="rgb(100%, 100%, 100%)" fill-opacity="1" d="M 3.574219 1.457031 C 3.574219 1.277344 3.710938 1.132812 3.882812 1.132812 C 4.050781 1.132812 4.1875 1.277344 4.1875 1.457031 C 4.1875 1.636719 4.050781 1.78125 3.882812 1.78125 C 3.710938 1.78125 3.574219 1.636719 3.574219 1.457031 Z M 3.574219 1.457031 "/>
<path fill-rule="nonzero" fill="rgb(100%, 100%, 100%)" fill-opacity="1" d="M 3.574219 0.558594 C 3.574219 0.378906 3.710938 0.234375 3.882812 0.234375 C 4.050781 0.234375 4.1875 0.378906 4.1875 0.558594 C 4.1875 0.738281 4.050781 0.882812 3.882812 0.882812 C 3.710938 0.882812 3.574219 0.738281 3.574219 0.558594 Z M 3.574219 0.558594 "/>
<path fill-rule="nonzero" fill="rgb(100%, 100%, 100%)" fill-opacity="1" d="M 8.175781 9.132812 C 8.175781 9.316406 8.039062 9.460938 7.867188 9.460938 C 7.699219 9.460938 7.558594 9.316406 7.558594 9.132812 C 7.558594 8.953125 7.699219 8.808594 7.867188 8.808594 C 8.039062 8.808594 8.175781 8.953125 8.175781 9.132812 Z M 8.175781 9.132812 "/>
<path fill-rule="nonzero" fill="rgb(100%, 100%, 100%)" fill-opacity="1" d="M 7.476562 9.679688 C 7.476562 9.863281 7.339844 10.007812 7.167969 10.007812 C 7 10.007812 6.859375 9.863281 6.859375 9.679688 C 6.859375 9.5 7 9.355469 7.167969 9.355469 C 7.339844 9.355469 7.476562 9.5 7.476562 9.679688 Z M 7.476562 9.679688 "/>
<path fill-rule="nonzero" fill="rgb(100%, 100%, 100%)" fill-opacity="1" d="M 7.496094 9.09375 C 7.496094 9.273438 7.359375 9.421875 7.1875 9.421875 C 7.015625 9.421875 6.878906 9.273438 6.878906 9.09375 C 6.878906 8.914062 7.015625 8.765625 7.1875 8.765625 C 7.359375 8.765625 7.496094 8.914062 7.496094 9.09375 Z M 7.496094 9.09375 "/>
<path fill-rule="nonzero" fill="rgb(100%, 100%, 100%)" fill-opacity="1" d="M 6.730469 9.640625 C 6.730469 9.820312 6.59375 9.96875 6.421875 9.96875 C 6.253906 9.96875 6.113281 9.820312 6.113281 9.640625 C 6.113281 9.460938 6.253906 9.3125 6.421875 9.3125 C 6.59375 9.3125 6.730469 9.460938 6.730469 9.640625 Z M 6.730469 9.640625 "/>
<path fill-rule="nonzero" fill="rgb(100%, 100%, 100%)" fill-opacity="1" d="M 6.734375 9.074219 C 6.734375 9.253906 6.597656 9.398438 6.425781 9.398438 C 6.253906 9.398438 6.117188 9.253906 6.117188 9.074219 C 6.117188 8.890625 6.253906 8.746094 6.425781 8.746094 C 6.597656 8.746094 6.734375 8.890625 6.734375 9.074219 Z M 6.734375 9.074219 "/>
<path fill-rule="nonzero" fill="rgb(100%, 100%, 100%)" fill-opacity="1" d="M 5.992188 9.578125 C 5.992188 9.761719 5.851562 9.90625 5.683594 9.90625 C 5.511719 9.90625 5.375 9.761719 5.375 9.578125 C 5.375 9.398438 5.511719 9.253906 5.683594 9.253906 C 5.851562 9.253906 5.992188 9.398438 5.992188 9.578125 Z M 5.992188 9.578125 "/>
<path fill-rule="nonzero" fill="rgb(100%, 100%, 100%)" fill-opacity="1" d="M 6.246094 8.835938 C 6.246094 9.015625 6.109375 9.164062 5.9375 9.164062 C 5.765625 9.164062 5.628906 9.015625 5.628906 8.835938 C 5.628906 8.65625 5.765625 8.511719 5.9375 8.511719 C 6.109375 8.511719 6.246094 8.65625 6.246094 8.835938 Z M 6.246094 8.835938 "/>
<path fill-rule="nonzero" fill="rgb(100%, 100%, 100%)" fill-opacity="1" d="M 6.988281 8.390625 C 6.988281 8.570312 6.851562 8.71875 6.679688 8.71875 C 6.511719 8.71875 6.371094 8.570312 6.371094 8.390625 C 6.371094 8.210938 6.511719 8.0625 6.679688 8.0625 C 6.851562 8.0625 6.988281 8.210938 6.988281 8.390625 Z M 6.988281 8.390625 "/>
<path fill-rule="nonzero" fill="rgb(100%, 100%, 100%)" fill-opacity="1" d="M 6.523438 8.199219 C 6.523438 8.378906 6.382812 8.527344 6.214844 8.527344 C 6.042969 8.527344 5.90625 8.378906 5.90625 8.199219 C 5.90625 8.019531 6.042969 7.875 6.214844 7.875 C 6.382812 7.875 6.523438 8.019531 6.523438 8.199219 Z M 6.523438 8.199219 "/>
<path fill-rule="nonzero" fill="rgb(100%, 100%, 100%)" fill-opacity="1" d="M 7.265625 7.5625 C 7.265625 7.742188 7.125 7.890625 6.957031 7.890625 C 6.785156 7.890625 6.648438 7.742188 6.648438 7.5625 C 6.648438 7.382812 6.785156 7.238281 6.957031 7.238281 C 7.125 7.238281 7.265625 7.382812 7.265625 7.5625 Z M 7.265625 7.5625 "/>
<path fill-rule="nonzero" fill="rgb(100%, 100%, 100%)" fill-opacity="1" d="M 6.796875 7.457031 C 6.796875 7.636719 6.660156 7.785156 6.488281 7.785156 C 6.320312 7.785156 6.179688 7.636719 6.179688 7.457031 C 6.179688 7.277344 6.320312 7.128906 6.488281 7.128906 C 6.660156 7.128906 6.796875 7.277344 6.796875 7.457031 Z M 6.796875 7.457031 "/>
<path fill-rule="nonzero" fill="rgb(100%, 100%, 100%)" fill-opacity="1" d="M 7.414062 7.074219 C 7.414062 7.253906 7.273438 7.402344 7.105469 7.402344 C 6.933594 7.402344 6.796875 7.253906 6.796875 7.074219 C 6.796875 6.894531 6.933594 6.75 7.105469 6.75 C 7.273438 6.75 7.414062 6.894531 7.414062 7.074219 Z M 7.414062 7.074219 "/>
<path fill-rule="nonzero" fill="rgb(100%, 100%, 100%)" fill-opacity="1" d="M 6.96875 6.925781 C 6.96875 7.105469 6.828125 7.253906 6.660156 7.253906 C 6.488281 7.253906 6.351562 7.105469 6.351562 6.925781 C 6.351562 6.746094 6.488281 6.601562 6.660156 6.601562 C 6.828125 6.601562 6.96875 6.746094 6.96875 6.925781 Z M 6.96875 6.925781 "/>
<path fill-rule="nonzero" fill="rgb(100%, 100%, 100%)" fill-opacity="1" d="M 7.6875 6.289062 C 7.6875 6.46875 7.550781 6.617188 7.378906 6.617188 C 7.210938 6.617188 7.070312 6.46875 7.070312 6.289062 C 7.070312 6.109375 7.210938 5.964844 7.378906 5.964844 C 7.550781 5.964844 7.6875 6.109375 7.6875 6.289062 Z M 7.6875 6.289062 "/>
<path fill-rule="nonzero" fill="rgb(100%, 100%, 100%)" fill-opacity="1" d="M 7.242188 6.078125 C 7.242188 6.257812 7.105469 6.40625 6.933594 6.40625 C 6.765625 6.40625 6.625 6.257812 6.625 6.078125 C 6.625 5.898438 6.765625 5.75 6.933594 5.75 C 7.105469 5.75 7.242188 5.898438 7.242188 6.078125 Z M 7.242188 6.078125 "/>
<path fill-rule="nonzero" fill="rgb(100%, 100%, 100%)" fill-opacity="1" d="M 7.988281 5.589844 C 7.988281 5.769531 7.847656 5.917969 7.679688 5.917969 C 7.507812 5.917969 7.371094 5.769531 7.371094 5.589844 C 7.371094 5.410156 7.507812 5.261719 7.679688 5.261719 C 7.847656 5.261719 7.988281 5.410156 7.988281 5.589844 Z M 7.988281 5.589844 "/>
<path fill-rule="nonzero" fill="rgb(100%, 100%, 100%)" fill-opacity="1" d="M 7.5625 5.460938 C 7.5625 5.644531 7.425781 5.789062 7.253906 5.789062 C 7.082031 5.789062 6.945312 5.644531 6.945312 5.460938 C 6.945312 5.28125 7.082031 5.136719 7.253906 5.136719 C 7.425781 5.136719 7.5625 5.28125 7.5625 5.460938 Z M 7.5625 5.460938 "/>
<path fill-rule="nonzero" fill="rgb(100%, 100%, 100%)" fill-opacity="1" d="M 8.242188 4.953125 C 8.242188 5.132812 8.101562 5.28125 7.933594 5.28125 C 7.761719 5.28125 7.625 5.132812 7.625 4.953125 C 7.625 4.773438 7.761719 4.625 7.933594 4.625 C 8.101562 4.625 8.242188 4.773438 8.242188 4.953125 Z M 8.242188 4.953125 "/>
<path fill-rule="nonzero" fill="rgb(100%, 100%, 100%)" fill-opacity="1" d="M 7.878906 4.78125 C 7.878906 4.964844 7.742188 5.109375 7.570312 5.109375 C 7.402344 5.109375 7.261719 4.964844 7.261719 4.78125 C 7.261719 4.601562 7.402344 4.457031 7.570312 4.457031 C 7.742188 4.457031 7.878906 4.601562 7.878906 4.78125 Z M 7.878906 4.78125 "/>
<path fill-rule="nonzero" fill="rgb(100%, 100%, 100%)" fill-opacity="1" d="M 8.539062 4.253906 C 8.539062 4.433594 8.398438 4.578125 8.230469 4.578125 C 8.058594 4.578125 7.921875 4.433594 7.921875 4.253906 C 7.921875 4.070312 8.058594 3.925781 8.230469 3.925781 C 8.398438 3.925781 8.539062 4.070312 8.539062 4.253906 Z M 8.539062 4.253906 "/>
<path fill-rule="nonzero" fill="rgb(100%, 100%, 100%)" fill-opacity="1" d="M 8.09375 4.082031 C 8.09375 4.261719 7.953125 4.410156 7.785156 4.410156 C 7.613281 4.410156 7.476562 4.261719 7.476562 4.082031 C 7.476562 3.902344 7.613281 3.753906 7.785156 3.753906 C 7.953125 3.753906 8.09375 3.902344 8.09375 4.082031 Z M 8.09375 4.082031 "/>
<path fill-rule="nonzero" fill="rgb(100%, 100%, 100%)" fill-opacity="1" d="M 8.8125 3.550781 C 8.8125 3.734375 8.675781 3.878906 8.503906 3.878906 C 8.335938 3.878906 8.195312 3.734375 8.195312 3.550781 C 8.195312 3.371094 8.335938 3.226562 8.503906 3.226562 C 8.675781 3.226562 8.8125 3.371094 8.8125 3.550781 Z M 8.8125 3.550781 "/>
<path fill-rule="nonzero" fill="rgb(100%, 100%, 100%)" fill-opacity="1" d="M 8.367188 3.382812 C 8.367188 3.5625 8.230469 3.710938 8.058594 3.710938 C 7.890625 3.710938 7.75 3.5625 7.75 3.382812 C 7.75 3.203125 7.890625 3.054688 8.058594 3.054688 C 8.230469 3.054688 8.367188 3.203125 8.367188 3.382812 Z M 8.367188 3.382812 "/>
<path fill-rule="nonzero" fill="rgb(100%, 100%, 100%)" fill-opacity="1" d="M 9.132812 2.871094 C 9.132812 3.054688 8.996094 3.199219 8.824219 3.199219 C 8.652344 3.199219 8.515625 3.054688 8.515625 2.871094 C 8.515625 2.691406 8.652344 2.546875 8.824219 2.546875 C 8.996094 2.546875 9.132812 2.691406 9.132812 2.871094 Z M 9.132812 2.871094 "/>
<path fill-rule="nonzero" fill="rgb(100%, 100%, 100%)" fill-opacity="1" d="M 8.664062 2.65625 C 8.664062 2.839844 8.527344 2.984375 8.355469 2.984375 C 8.1875 2.984375 8.046875 2.839844 8.046875 2.65625 C 8.046875 2.476562 8.1875 2.332031 8.355469 2.332031 C 8.527344 2.332031 8.664062 2.476562 8.664062 2.65625 Z M 8.664062 2.65625 "/>
<path fill-rule="nonzero" fill="rgb(100%, 100%, 100%)" fill-opacity="1" d="M 9.386719 2.066406 C 9.386719 2.246094 9.25 2.394531 9.078125 2.394531 C 8.910156 2.394531 8.769531 2.246094 8.769531 2.066406 C 8.769531 1.886719 8.910156 1.738281 9.078125 1.738281 C 9.25 1.738281 9.386719 1.886719 9.386719 2.066406 Z M 9.386719 2.066406 "/>
<path fill-rule="nonzero" fill="rgb(100%, 100%, 100%)" fill-opacity="1" d="M 8.941406 1.917969 C 8.941406 2.097656 8.804688 2.246094 8.632812 2.246094 C 8.460938 2.246094 8.324219 2.097656 8.324219 1.917969 C 8.324219 1.738281 8.460938 1.589844 8.632812 1.589844 C 8.804688 1.589844 8.941406 1.738281 8.941406 1.917969 Z M 8.941406 1.917969 "/>
<path fill-rule="nonzero" fill="rgb(100%, 100%, 100%)" fill-opacity="1" d="M 9.605469 1.460938 C 9.605469 1.640625 9.464844 1.789062 9.296875 1.789062 C 9.125 1.789062 8.988281 1.640625 8.988281 1.460938 C 8.988281 1.28125 9.125 1.132812 9.296875 1.132812 C 9.464844 1.132812 9.605469 1.28125 9.605469 1.460938 Z M 9.605469 1.460938 "/>
<path fill-rule="nonzero" fill="rgb(100%, 100%, 100%)" fill-opacity="1" d="M 9.164062 1.242188 C 9.164062 1.421875 9.027344 1.570312 8.855469 1.570312 C 8.6875 1.570312 8.546875 1.421875 8.546875 1.242188 C 8.546875 1.0625 8.6875 0.914062 8.855469 0.914062 C 9.027344 0.914062 9.164062 1.0625 9.164062 1.242188 Z M 9.164062 1.242188 "/>
<path fill-rule="nonzero" fill="rgb(100%, 100%, 100%)" fill-opacity="1" d="M 9.921875 0.535156 C 9.921875 0.714844 9.78125 0.863281 9.613281 0.863281 C 9.441406 0.863281 9.304688 0.714844 9.304688 0.535156 C 9.304688 0.355469 9.441406 0.207031 9.613281 0.207031 C 9.78125 0.207031 9.921875 0.355469 9.921875 0.535156 Z M 9.921875 0.535156 "/>
<path fill-rule="nonzero" fill="rgb(100%, 100%, 100%)" fill-opacity="1" d="M 9.457031 0.4375 C 9.457031 0.617188 9.320312 0.765625 9.148438 0.765625 C 8.980469 0.765625 8.839844 0.617188 8.839844 0.4375 C 8.839844 0.257812 8.980469 0.109375 9.148438 0.109375 C 9.320312 0.109375 9.457031 0.257812 9.457031 0.4375 Z M 9.457031 0.4375 "/>
<path fill-rule="nonzero" fill="rgb(100%, 100%, 100%)" fill-opacity="1" d="M 8.917969 9.132812 C 8.917969 9.316406 8.78125 9.460938 8.609375 9.460938 C 8.441406 9.460938 8.300781 9.316406 8.300781 9.132812 C 8.300781 8.953125 8.441406 8.808594 8.609375 8.808594 C 8.78125 8.808594 8.917969 8.953125 8.917969 9.132812 Z M 8.917969 9.132812 "/>
<path fill-rule="nonzero" fill="rgb(100%, 100%, 100%)" fill-opacity="1" d="M 9.660156 9.132812 C 9.660156 9.316406 9.523438 9.460938 9.351562 9.460938 C 9.179688 9.460938 9.042969 9.316406 9.042969 9.132812 C 9.042969 8.953125 9.179688 8.808594 9.351562 8.808594 C 9.523438 8.808594 9.660156 8.953125 9.660156 9.132812 Z M 9.660156 9.132812 "/>
<path fill-rule="nonzero" fill="rgb(100%, 100%, 100%)" fill-opacity="1" d="M 10.402344 9.132812 C 10.402344 9.316406 10.261719 9.460938 10.09375 9.460938 C 9.921875 9.460938 9.785156 9.316406 9.785156 9.132812 C 9.785156 8.953125 9.921875 8.808594 10.09375 8.808594 C 10.261719 8.808594 10.402344 8.953125 10.402344 9.132812 Z M 10.402344 9.132812 "/>
<path fill-rule="nonzero" fill="rgb(100%, 100%, 100%)" fill-opacity="1" d="M 11.222656 9.132812 C 11.222656 9.316406 11.085938 9.460938 10.914062 9.460938 C 10.746094 9.460938 10.605469 9.316406 10.605469 9.132812 C 10.605469 8.953125 10.746094 8.808594 10.914062 8.808594 C 11.085938 8.808594 11.222656 8.953125 11.222656 9.132812 Z M 11.222656 9.132812 "/>
<path fill-rule="nonzero" fill="rgb(100%, 100%, 100%)" fill-opacity="1" d="M 11.882812 9.132812 C 11.882812 9.316406 11.746094 9.460938 11.574219 9.460938 C 11.402344 9.460938 11.265625 9.316406 11.265625 9.132812 C 11.265625 8.953125 11.402344 8.808594 11.574219 8.808594 C 11.746094 8.808594 11.882812 8.953125 11.882812 9.132812 Z M 11.882812 9.132812 "/>
<path fill-rule="nonzero" fill="rgb(100%, 100%, 100%)" fill-opacity="1" d="M 12.378906 9.132812 C 12.378906 9.316406 12.238281 9.460938 12.070312 9.460938 C 11.898438 9.460938 11.761719 9.316406 11.761719 9.132812 C 11.761719 8.953125 11.898438 8.808594 12.070312 8.808594 C 12.238281 8.808594 12.378906 8.953125 12.378906 9.132812 Z M 12.378906 9.132812 "/>
<path fill-rule="nonzero" fill="rgb(100%, 100%, 100%)" fill-opacity="1" d="M 13.117188 9.132812 C 13.117188 9.316406 12.980469 9.460938 12.808594 9.460938 C 12.640625 9.460938 12.5 9.316406 12.5 9.132812 C 12.5 8.953125 12.640625 8.808594 12.808594 8.808594 C 12.980469 8.808594 13.117188 8.953125 13.117188 9.132812 Z M 13.117188 9.132812 "/>
<path fill-rule="nonzero" fill="rgb(100%, 100%, 100%)" fill-opacity="1" d="M 11.882812 7.570312 C 11.882812 7.75 11.746094 7.894531 11.574219 7.894531 C 11.402344 7.894531 11.265625 7.75 11.265625 7.570312 C 11.265625 7.390625 11.402344 7.242188 11.574219 7.242188 C 11.746094 7.242188 11.882812 7.390625 11.882812 7.570312 Z M 11.882812 7.570312 "/>
<path fill-rule="nonzero" fill="rgb(100%, 100%, 100%)" fill-opacity="1" d="M 12.460938 7.570312 C 12.460938 7.75 12.320312 7.894531 12.152344 7.894531 C 11.980469 7.894531 11.84375 7.75 11.84375 7.570312 C 11.84375 7.390625 11.980469 7.242188 12.152344 7.242188 C 12.320312 7.242188 12.460938 7.390625 12.460938 7.570312 Z M 12.460938 7.570312 "/>
<path fill-rule="nonzero" fill="rgb(100%, 100%, 100%)" fill-opacity="1" d="M 12.378906 8.476562 C 12.378906 8.65625 12.238281 8.800781 12.070312 8.800781 C 11.898438 8.800781 11.761719 8.65625 11.761719 8.476562 C 11.761719 8.292969 11.898438 8.148438 12.070312 8.148438 C 12.238281 8.148438 12.378906 8.292969 12.378906 8.476562 Z M 12.378906 8.476562 "/>
<path fill-rule="nonzero" fill="rgb(100%, 100%, 100%)" fill-opacity="1" d="M 11.882812 8.476562 C 11.882812 8.65625 11.746094 8.800781 11.574219 8.800781 C 11.402344 8.800781 11.265625 8.65625 11.265625 8.476562 C 11.265625 8.292969 11.402344 8.148438 11.574219 8.148438 C 11.746094 8.148438 11.882812 8.292969 11.882812 8.476562 Z M 11.882812 8.476562 "/>
<path fill-rule="nonzero" fill="rgb(100%, 100%, 100%)" fill-opacity="1" d="M 8.175781 9.628906 C 8.175781 9.808594 8.039062 9.957031 7.867188 9.957031 C 7.699219 9.957031 7.558594 9.808594 7.558594 9.628906 C 7.558594 9.449219 7.699219 9.300781 7.867188 9.300781 C 8.039062 9.300781 8.175781 9.449219 8.175781 9.628906 Z M 8.175781 9.628906 "/>
<path fill-rule="nonzero" fill="rgb(100%, 100%, 100%)" fill-opacity="1" d="M 8.917969 9.628906 C 8.917969 9.808594 8.78125 9.957031 8.609375 9.957031 C 8.441406 9.957031 8.300781 9.808594 8.300781 9.628906 C 8.300781 9.449219 8.441406 9.300781 8.609375 9.300781 C 8.78125 9.300781 8.917969 9.449219 8.917969 9.628906 Z M 8.917969 9.628906 "/>
<path fill-rule="nonzero" fill="rgb(100%, 100%, 100%)" fill-opacity="1" d="M 9.660156 9.628906 C 9.660156 9.808594 9.523438 9.957031 9.351562 9.957031 C 9.179688 9.957031 9.042969 9.808594 9.042969 9.628906 C 9.042969 9.449219 9.179688 9.300781 9.351562 9.300781 C 9.523438 9.300781 9.660156 9.449219 9.660156 9.628906 Z M 9.660156 9.628906 "/>
<path fill-rule="nonzero" fill="rgb(100%, 100%, 100%)" fill-opacity="1" d="M 10.402344 9.628906 C 10.402344 9.808594 10.261719 9.957031 10.09375 9.957031 C 9.921875 9.957031 9.785156 9.808594 9.785156 9.628906 C 9.785156 9.449219 9.921875 9.300781 10.09375 9.300781 C 10.261719 9.300781 10.402344 9.449219 10.402344 9.628906 Z M 10.402344 9.628906 "/>
<path fill-rule="nonzero" fill="rgb(100%, 100%, 100%)" fill-opacity="1" d="M 11.222656 9.628906 C 11.222656 9.808594 11.085938 9.957031 10.914062 9.957031 C 10.746094 9.957031 10.605469 9.808594 10.605469 9.628906 C 10.605469 9.449219 10.746094 9.300781 10.914062 9.300781 C 11.085938 9.300781 11.222656 9.449219 11.222656 9.628906 Z M 11.222656 9.628906 "/>
<path fill-rule="nonzero" fill="rgb(100%, 100%, 100%)" fill-opacity="1" d="M 11.882812 9.628906 C 11.882812 9.808594 11.746094 9.957031 11.574219 9.957031 C 11.402344 9.957031 11.265625 9.808594 11.265625 9.628906 C 11.265625 9.449219 11.402344 9.300781 11.574219 9.300781 C 11.746094 9.300781 11.882812 9.449219 11.882812 9.628906 Z M 11.882812 9.628906 "/>
<path fill-rule="nonzero" fill="rgb(100%, 100%, 100%)" fill-opacity="1" d="M 12.378906 9.628906 C 12.378906 9.808594 12.238281 9.957031 12.070312 9.957031 C 11.898438 9.957031 11.761719 9.808594 11.761719 9.628906 C 11.761719 9.449219 11.898438 9.300781 12.070312 9.300781 C 12.238281 9.300781 12.378906 9.449219 12.378906 9.628906 Z M 12.378906 9.628906 "/>
<path fill-rule="nonzero" fill="rgb(100%, 100%, 100%)" fill-opacity="1" d="M 12.378906 10.371094 C 12.378906 10.550781 12.238281 10.695312 12.070312 10.695312 C 11.898438 10.695312 11.761719 10.550781 11.761719 10.371094 C 11.761719 10.1875 11.898438 10.042969 12.070312 10.042969 C 12.238281 10.042969 12.378906 10.1875 12.378906 10.371094 Z M 12.378906 10.371094 "/>
<path fill-rule="nonzero" fill="rgb(100%, 100%, 100%)" fill-opacity="1" d="M 12.378906 11.109375 C 12.378906 11.292969 12.238281 11.4375 12.070312 11.4375 C 11.898438 11.4375 11.761719 11.292969 11.761719 11.109375 C 11.761719 10.929688 11.898438 10.785156 12.070312 10.785156 C 12.238281 10.785156 12.378906 10.929688 12.378906 11.109375 Z M 12.378906 11.109375 "/>
<path fill-rule="nonzero" fill="rgb(100%, 100%, 100%)" fill-opacity="1" d="M 12.378906 11.851562 C 12.378906 12.03125 12.238281 12.179688 12.070312 12.179688 C 11.898438 12.179688 11.761719 12.03125 11.761719 11.851562 C 11.761719 11.671875 11.898438 11.523438 12.070312 11.523438 C 12.238281 11.523438 12.378906 11.671875 12.378906 11.851562 Z M 12.378906 11.851562 "/>
<path fill-rule="nonzero" fill="rgb(100%, 100%, 100%)" fill-opacity="1" d="M 12.378906 12.511719 C 12.378906 12.691406 12.238281 12.835938 12.070312 12.835938 C 11.898438 12.835938 11.761719 12.691406 11.761719 12.511719 C 11.761719 12.328125 11.898438 12.183594 12.070312 12.183594 C 12.238281 12.183594 12.378906 12.328125 12.378906 12.511719 Z M 12.378906 12.511719 "/>
<path fill-rule="nonzero" fill="rgb(100%, 100%, 100%)" fill-opacity="1" d="M 12.378906 13.25 C 12.378906 13.433594 12.238281 13.578125 12.070312 13.578125 C 11.898438 13.578125 11.761719 13.433594 11.761719 13.25 C 11.761719 13.070312 11.898438 12.925781 12.070312 12.925781 C 12.238281 12.925781 12.378906 13.070312 12.378906 13.25 Z M 12.378906 13.25 "/>
<path fill-rule="nonzero" fill="rgb(100%, 100%, 100%)" fill-opacity="1" d="M 11.882812 13.25 C 11.882812 13.433594 11.746094 13.578125 11.574219 13.578125 C 11.402344 13.578125 11.265625 13.433594 11.265625 13.25 C 11.265625 13.070312 11.402344 12.925781 11.574219 12.925781 C 11.746094 12.925781 11.882812 13.070312 11.882812 13.25 Z M 11.882812 13.25 "/>
<path fill-rule="nonzero" fill="rgb(100%, 100%, 100%)" fill-opacity="1" d="M 11.882812 12.59375 C 11.882812 12.773438 11.746094 12.917969 11.574219 12.917969 C 11.402344 12.917969 11.265625 12.773438 11.265625 12.59375 C 11.265625 12.414062 11.402344 12.265625 11.574219 12.265625 C 11.746094 12.265625 11.882812 12.414062 11.882812 12.59375 Z M 11.882812 12.59375 "/>
<path fill-rule="nonzero" fill="rgb(100%, 100%, 100%)" fill-opacity="1" d="M 11.882812 11.851562 C 11.882812 12.03125 11.746094 12.179688 11.574219 12.179688 C 11.402344 12.179688 11.265625 12.03125 11.265625 11.851562 C 11.265625 11.671875 11.402344 11.523438 11.574219 11.523438 C 11.746094 11.523438 11.882812 11.671875 11.882812 11.851562 Z M 11.882812 11.851562 "/>
<path fill-rule="nonzero" fill="rgb(100%, 100%, 100%)" fill-opacity="1" d="M 11.882812 11.109375 C 11.882812 11.292969 11.746094 11.4375 11.574219 11.4375 C 11.402344 11.4375 11.265625 11.292969 11.265625 11.109375 C 11.265625 10.929688 11.402344 10.785156 11.574219 10.785156 C 11.746094 10.785156 11.882812 10.929688 11.882812 11.109375 Z M 11.882812 11.109375 "/>
<path fill-rule="nonzero" fill="rgb(100%, 100%, 100%)" fill-opacity="1" d="M 11.882812 10.371094 C 11.882812 10.550781 11.746094 10.695312 11.574219 10.695312 C 11.402344 10.695312 11.265625 10.550781 11.265625 10.371094 C 11.265625 10.1875 11.402344 10.042969 11.574219 10.042969 C 11.746094 10.042969 11.882812 10.1875 11.882812 10.371094 Z M 11.882812 10.371094 "/>
<path fill-rule="nonzero" fill="rgb(100%, 100%, 100%)" fill-opacity="1" d="M 13.09375 9.617188 C 13.09375 9.800781 12.953125 9.945312 12.785156 9.945312 C 12.613281 9.945312 12.476562 9.800781 12.476562 9.617188 C 12.476562 9.4375 12.613281 9.292969 12.785156 9.292969 C 12.953125 9.292969 13.09375 9.4375 13.09375 9.617188 Z M 13.09375 9.617188 "/>
</svg>
