<?xml version="1.0" encoding="UTF-8"?>
<svg xmlns="http://www.w3.org/2000/svg" xmlns:xlink="http://www.w3.org/1999/xlink" width="21.83374" height="19" viewBox="0 0 21.83374 19">
<path fill-rule="nonzero" fill="rgb(95.294118%, 57.254905%, 0%)" fill-opacity="1" d="M 21.835938 0 L 10.914062 19 L 0 0 Z M 21.835938 0 "/>
<path fill-rule="nonzero" fill="rgb(0%, 0%, 0%)" fill-opacity="1" d="M 10.984375 17.328125 L 1.441406 0.792969 L 20.535156 0.792969 Z M 10.984375 17.328125 "/>
<path fill-rule="nonzero" fill="rgb(0%, 0%, 0%)" fill-opacity="1" d="M 10.984375 17.371094 L 10.964844 17.335938 L 1.398438 0.765625 L 20.574219 0.765625 L 20.554688 0.800781 Z M 1.480469 0.8125 L 10.984375 17.28125 L 20.496094 0.8125 Z M 1.480469 0.8125 "/>
<path fill-rule="nonzero" fill="rgb(95.294118%, 57.254905%, 0%)" fill-opacity="1" d="M 14.003906 10.03125 L 14.003906 11.089844 L 8.070312 11.089844 C 8.058594 10.820312 8.105469 10.5625 8.199219 10.320312 C 8.347656 9.914062 8.589844 9.519531 8.921875 9.128906 C 9.257812 8.734375 9.738281 8.28125 10.367188 7.769531 C 11.339844 6.964844 12 6.332031 12.34375 5.863281 C 12.6875 5.398438 12.859375 4.957031 12.859375 4.539062 C 12.859375 4.101562 12.703125 3.734375 12.390625 3.433594 C 12.078125 3.132812 11.667969 2.984375 11.167969 2.984375 C 10.636719 2.984375 10.210938 3.140625 9.890625 3.464844 C 9.574219 3.78125 9.410156 4.21875 9.410156 4.785156 L 8.277344 4.664062 C 8.351562 3.824219 8.644531 3.179688 9.152344 2.734375 C 9.660156 2.289062 10.335938 2.074219 11.191406 2.074219 C 12.054688 2.074219 12.734375 2.3125 13.234375 2.789062 C 13.742188 3.265625 13.992188 3.859375 13.992188 4.5625 C 13.992188 4.921875 13.917969 5.273438 13.769531 5.625 C 13.621094 5.972656 13.378906 6.339844 13.039062 6.71875 C 12.695312 7.105469 12.132812 7.628906 11.339844 8.300781 C 10.675781 8.855469 10.253906 9.234375 10.0625 9.429688 C 9.875 9.628906 9.722656 9.828125 9.597656 10.03125 Z M 14.003906 10.03125 "/>
</svg>
