<?xml version="1.0" encoding="UTF-8"?>
<svg xmlns="http://www.w3.org/2000/svg" xmlns:xlink="http://www.w3.org/1999/xlink" width="17.237164" height="15" viewBox="0 0 17.237164 15">
<path fill-rule="nonzero" fill="rgb(95.294118%, 57.254905%, 0%)" fill-opacity="1" d="M 17.238281 0 L 8.617188 15 L 0 0 Z M 17.238281 0 "/>
<path fill-rule="nonzero" fill="rgb(0%, 0%, 0%)" fill-opacity="1" d="M 16.210938 0.625 L 8.671875 13.679688 L 1.136719 0.625 Z M 16.210938 0.625 "/>
<path fill-rule="nonzero" fill="rgb(0%, 0%, 0%)" fill-opacity="1" d="M 8.671875 13.714844 L 8.65625 13.6875 L 1.105469 0.605469 L 16.242188 0.605469 L 16.226562 0.632812 Z M 1.167969 0.640625 L 8.671875 13.644531 L 16.179688 0.640625 Z M 1.167969 0.640625 "/>
<path fill-rule="nonzero" fill="rgb(95.294118%, 57.254905%, 0%)" fill-opacity="1" d="M 5.945312 7.566406 L 7.015625 7.476562 C 7.097656 7.996094 7.28125 8.390625 7.570312 8.652344 C 7.859375 8.914062 8.207031 9.046875 8.613281 9.046875 C 9.105469 9.046875 9.519531 8.859375 9.859375 8.492188 C 10.199219 8.121094 10.371094 7.628906 10.371094 7.019531 C 10.371094 6.4375 10.207031 5.976562 9.878906 5.640625 C 9.554688 5.304688 9.125 5.136719 8.597656 5.136719 C 8.269531 5.136719 7.972656 5.210938 7.707031 5.359375 C 7.445312 5.511719 7.234375 5.703125 7.085938 5.941406 L 6.128906 5.816406 L 6.933594 1.550781 L 11.0625 1.550781 L 11.0625 2.523438 L 7.746094 2.523438 L 7.300781 4.757812 C 7.796875 4.410156 8.320312 4.234375 8.871094 4.234375 C 9.59375 4.234375 10.207031 4.488281 10.703125 4.988281 C 11.203125 5.492188 11.453125 6.136719 11.453125 6.925781 C 11.453125 7.679688 11.234375 8.328125 10.796875 8.875 C 10.261719 9.546875 9.535156 9.882812 8.613281 9.882812 C 7.859375 9.882812 7.242188 9.671875 6.765625 9.25 C 6.285156 8.828125 6.015625 8.265625 5.945312 7.566406 Z M 5.945312 7.566406 "/>
</svg>
