<?xml version="1.0" encoding="UTF-8"?>
<svg xmlns="http://www.w3.org/2000/svg" xmlns:xlink="http://www.w3.org/1999/xlink" width="14" height="14" viewBox="0 0 14 14">
<path fill-rule="nonzero" fill="rgb(0%, 0%, 0%)" fill-opacity="1" stroke-width="10" stroke-linecap="butt" stroke-linejoin="miter" stroke="rgb(100%, 100%, 100%)" stroke-opacity="1" stroke-miterlimit="4" d="M 7.991072 7.991072 L 7.991072 152.008931 L 152.008931 152.008931 L 152.008931 7.991072 Z M 7.991072 7.991072 " transform="matrix(0.0875, 0, 0, 0.0875, 0, 0)"/>
<path fill-rule="nonzero" fill="rgb(100%, 100%, 100%)" fill-opacity="1" d="M 3.703125 3.957031 L 3.675781 3.957031 L 2.195312 4.753906 L 1.96875 3.875 L 3.835938 2.875 L 4.820312 2.875 L 4.820312 11.410156 L 3.703125 11.410156 Z M 3.703125 3.957031 "/>
<path fill-rule="nonzero" fill="rgb(100%, 100%, 100%)" fill-opacity="1" d="M 6.011719 9.15625 L 7.136719 9.066406 C 7.21875 9.609375 7.414062 10.015625 7.714844 10.292969 C 8.015625 10.570312 8.378906 10.703125 8.808594 10.703125 C 9.320312 10.703125 9.757812 10.511719 10.113281 10.125 C 10.46875 9.738281 10.644531 9.226562 10.644531 8.582031 C 10.644531 7.976562 10.476562 7.492188 10.132812 7.144531 C 9.792969 6.789062 9.34375 6.613281 8.789062 6.613281 C 8.449219 6.613281 8.140625 6.6875 7.859375 6.84375 C 7.582031 7 7.363281 7.207031 7.207031 7.453125 L 6.207031 7.324219 L 7.050781 2.859375 L 11.371094 2.859375 L 11.371094 3.878906 L 7.902344 3.878906 L 7.433594 6.214844 C 7.953125 5.847656 8.503906 5.671875 9.074219 5.671875 C 9.835938 5.671875 10.476562 5.933594 11 6.457031 C 11.519531 6.988281 11.78125 7.664062 11.78125 8.488281 C 11.78125 9.277344 11.550781 9.953125 11.089844 10.527344 C 10.539062 11.234375 9.769531 11.582031 8.808594 11.582031 C 8.015625 11.582031 7.371094 11.359375 6.871094 10.921875 C 6.375 10.472656 6.085938 9.890625 6.011719 9.15625 Z M 6.011719 9.15625 "/>
</svg>
