<?xml version="1.0" encoding="UTF-8"?>
<svg xmlns="http://www.w3.org/2000/svg" xmlns:xlink="http://www.w3.org/1999/xlink" width="15" height="15" viewBox="0 0 15 15">
<path fill-rule="nonzero" fill="rgb(100%, 100%, 100%)" fill-opacity="1" stroke-width="10" stroke-linecap="butt" stroke-linejoin="miter" stroke="rgb(100%, 0%, 0%)" stroke-opacity="1" stroke-miterlimit="4" d="M 5.013021 5.013021 L 5.013021 148.986979 L 148.986979 148.986979 L 148.986979 5.013021 Z M 5.013021 5.013021 " transform="matrix(0.0974026, 0, 0, 0.0974026, 0, 0)"/>
<path fill-rule="nonzero" fill="rgb(100%, 0%, 0%)" fill-opacity="1" d="M 6.101562 2.945312 C 6.515625 2.53125 7.007812 2.324219 7.589844 2.324219 C 8.167969 2.324219 8.664062 2.53125 9.074219 2.945312 C 9.484375 3.359375 9.691406 3.851562 9.691406 4.433594 L 9.691406 5.304688 C 9.691406 5.847656 9.511719 6.3125 9.15625 6.699219 C 9.511719 7.101562 9.691406 7.570312 9.691406 8.105469 L 9.691406 10.042969 C 9.691406 10.621094 9.484375 11.117188 9.074219 11.527344 C 8.664062 11.9375 8.167969 12.144531 7.589844 12.144531 C 7.007812 12.144531 6.515625 11.9375 6.101562 11.527344 C 5.691406 11.117188 5.488281 10.621094 5.488281 10.042969 L 5.488281 8.105469 C 5.488281 7.570312 5.664062 7.101562 6.015625 6.699219 C 5.65625 6.308594 5.480469 5.839844 5.488281 5.304688 L 5.488281 4.433594 C 5.488281 3.851562 5.691406 3.359375 6.101562 2.945312 M 8.082031 3.933594 C 7.949219 3.796875 7.785156 3.726562 7.589844 3.726562 C 7.394531 3.726562 7.226562 3.796875 7.089844 3.933594 C 6.953125 4.070312 6.882812 4.238281 6.882812 4.433594 L 6.882812 5.304688 C 6.882812 5.507812 6.953125 5.675781 7.089844 5.808594 C 7.226562 5.9375 7.394531 6 7.589844 6 C 7.785156 6 7.949219 5.9375 8.082031 5.808594 C 8.21875 5.675781 8.289062 5.507812 8.289062 5.304688 L 8.289062 4.433594 C 8.289062 4.238281 8.21875 4.070312 8.082031 3.933594 M 8.082031 7.609375 C 7.949219 7.472656 7.785156 7.40625 7.589844 7.40625 C 7.394531 7.40625 7.226562 7.472656 7.089844 7.609375 C 6.953125 7.742188 6.882812 7.90625 6.882812 8.105469 L 6.882812 10.042969 C 6.882812 10.238281 6.953125 10.40625 7.089844 10.542969 C 7.226562 10.675781 7.394531 10.742188 7.589844 10.742188 C 7.785156 10.742188 7.949219 10.675781 8.082031 10.542969 C 8.21875 10.40625 8.289062 10.238281 8.289062 10.042969 L 8.289062 8.105469 C 8.289062 7.90625 8.21875 7.742188 8.082031 7.609375 "/>
</svg>
