<?xml version="1.0" encoding="UTF-8"?>
<svg xmlns="http://www.w3.org/2000/svg" xmlns:xlink="http://www.w3.org/1999/xlink" width="15" height="15" viewBox="0 0 15 15">
<path fill-rule="nonzero" fill="rgb(0%, 0%, 0%)" fill-opacity="1" stroke-width="10" stroke-linecap="butt" stroke-linejoin="miter" stroke="rgb(100%, 100%, 100%)" stroke-opacity="1" stroke-miterlimit="4" d="M 8 8 L 8 152 L 152 152 L 152 8 Z M 8 8 " transform="matrix(0.09375, 0, 0, 0.09375, 0, 0)"/>
<path fill-rule="nonzero" fill="rgb(100%, 100%, 100%)" fill-opacity="1" d="M 3.96875 4.238281 L 3.9375 4.238281 L 2.351562 5.09375 L 2.109375 4.152344 L 4.109375 3.082031 L 5.164062 3.082031 L 5.164062 12.226562 L 3.96875 12.226562 Z M 3.96875 4.238281 "/>
<path fill-rule="nonzero" fill="rgb(100%, 100%, 100%)" fill-opacity="1" d="M 12.890625 11.117188 L 12.890625 12.226562 L 6.667969 12.226562 C 6.660156 11.949219 6.703125 11.679688 6.800781 11.421875 C 6.960938 11 7.214844 10.582031 7.5625 10.171875 C 7.910156 9.761719 8.414062 9.285156 9.074219 8.746094 C 10.097656 7.90625 10.789062 7.242188 11.148438 6.75 C 11.507812 6.261719 11.6875 5.796875 11.6875 5.363281 C 11.6875 4.902344 11.523438 4.515625 11.199219 4.203125 C 10.871094 3.886719 10.441406 3.730469 9.917969 3.730469 C 9.359375 3.730469 8.914062 3.898438 8.582031 4.230469 C 8.246094 4.566406 8.078125 5.027344 8.074219 5.617188 L 6.886719 5.496094 C 6.964844 4.609375 7.273438 3.933594 7.804688 3.46875 C 8.335938 3.007812 9.046875 2.773438 9.941406 2.773438 C 10.84375 2.773438 11.558594 3.023438 12.085938 3.523438 C 12.613281 4.027344 12.875 4.648438 12.875 5.386719 C 12.875 5.765625 12.800781 6.132812 12.644531 6.5 C 12.492188 6.863281 12.234375 7.246094 11.878906 7.648438 C 11.519531 8.050781 10.925781 8.601562 10.097656 9.304688 C 9.402344 9.886719 8.957031 10.28125 8.761719 10.488281 C 8.5625 10.695312 8.402344 10.90625 8.273438 11.117188 Z M 12.890625 11.117188 "/>
</svg>
