<?xml version="1.0" encoding="UTF-8"?>
<svg xmlns="http://www.w3.org/2000/svg" xmlns:xlink="http://www.w3.org/1999/xlink" width="14.308364" height="14" viewBox="0 0 14.308364 14">
<path fill-rule="nonzero" fill="rgb(0%, 0%, 0%)" fill-opacity="1" stroke-width="1.011478" stroke-linecap="butt" stroke-linejoin="miter" stroke="rgb(0%, 0%, 0%)" stroke-opacity="1" stroke-miterlimit="4" d="M 1716.647912 1909.966177 L 1370.082191 1909.966177 L 1370.082191 1570.895307 L 1715.129967 1570.895307 Z M 1716.647912 1909.966177 " transform="matrix(0.0411741, 0, 0, 0.0411741, -56.392368, -64.660667)"/>
<path fill-rule="nonzero" fill="rgb(100%, 100%, 0%)" fill-opacity="1" d="M 5.054688 0.957031 C 5.054688 0.78125 5.1875 0.636719 5.355469 0.636719 C 5.519531 0.636719 5.65625 0.78125 5.65625 0.957031 C 5.65625 1.132812 5.519531 1.277344 5.355469 1.277344 C 5.1875 1.277344 5.054688 1.132812 5.054688 0.957031 Z M 5.054688 0.957031 "/>
<path fill-rule="nonzero" fill="rgb(100%, 100%, 0%)" fill-opacity="1" d="M 5.855469 0.636719 C 5.855469 0.460938 5.992188 0.316406 6.160156 0.316406 C 6.324219 0.316406 6.460938 0.460938 6.460938 0.636719 C 6.460938 0.8125 6.324219 0.953125 6.160156 0.953125 C 5.992188 0.953125 5.855469 0.8125 5.855469 0.636719 Z M 5.855469 0.636719 "/>
<path fill-rule="nonzero" fill="rgb(100%, 100%, 0%)" fill-opacity="1" d="M 6.660156 0.394531 C 6.660156 0.21875 6.796875 0.078125 6.960938 0.078125 C 7.128906 0.078125 7.261719 0.21875 7.261719 0.394531 C 7.261719 0.570312 7.128906 0.714844 6.960938 0.714844 C 6.796875 0.714844 6.660156 0.570312 6.660156 0.394531 Z M 6.660156 0.394531 "/>
<path fill-rule="nonzero" fill="rgb(100%, 100%, 0%)" fill-opacity="1" d="M 7.382812 0.394531 C 7.382812 0.21875 7.519531 0.078125 7.683594 0.078125 C 7.851562 0.078125 7.984375 0.21875 7.984375 0.394531 C 7.984375 0.570312 7.851562 0.714844 7.683594 0.714844 C 7.519531 0.714844 7.382812 0.570312 7.382812 0.394531 Z M 7.382812 0.394531 "/>
<path fill-rule="nonzero" fill="rgb(100%, 100%, 0%)" fill-opacity="1" d="M 8.105469 0.636719 C 8.105469 0.460938 8.242188 0.316406 8.40625 0.316406 C 8.574219 0.316406 8.707031 0.460938 8.707031 0.636719 C 8.707031 0.8125 8.574219 0.953125 8.40625 0.953125 C 8.242188 0.953125 8.105469 0.8125 8.105469 0.636719 Z M 8.105469 0.636719 "/>
<path fill-rule="nonzero" fill="rgb(100%, 100%, 0%)" fill-opacity="1" d="M 8.910156 1.039062 C 8.910156 0.863281 9.042969 0.71875 9.210938 0.71875 C 9.375 0.71875 9.511719 0.863281 9.511719 1.039062 C 9.511719 1.214844 9.375 1.355469 9.210938 1.355469 C 9.042969 1.355469 8.910156 1.214844 8.910156 1.039062 Z M 8.910156 1.039062 "/>
<path fill-rule="nonzero" fill="rgb(100%, 100%, 0%)" fill-opacity="1" d="M 9.472656 1.601562 C 9.472656 1.421875 9.605469 1.28125 9.773438 1.28125 C 9.9375 1.28125 10.074219 1.421875 10.074219 1.601562 C 10.074219 1.777344 9.9375 1.917969 9.773438 1.917969 C 9.605469 1.917969 9.472656 1.777344 9.472656 1.601562 Z M 9.472656 1.601562 "/>
<path fill-rule="nonzero" fill="rgb(100%, 100%, 0%)" fill-opacity="1" d="M 9.792969 2.324219 C 9.792969 2.144531 9.925781 2.003906 10.09375 2.003906 C 10.257812 2.003906 10.394531 2.144531 10.394531 2.324219 C 10.394531 2.5 10.257812 2.640625 10.09375 2.640625 C 9.925781 2.640625 9.792969 2.5 9.792969 2.324219 Z M 9.792969 2.324219 "/>
<path fill-rule="nonzero" fill="rgb(100%, 100%, 0%)" fill-opacity="1" d="M 10.03125 3.046875 C 10.03125 2.867188 10.167969 2.726562 10.335938 2.726562 C 10.5 2.726562 10.636719 2.867188 10.636719 3.046875 C 10.636719 3.222656 10.5 3.363281 10.335938 3.363281 C 10.167969 3.363281 10.03125 3.222656 10.03125 3.046875 Z M 10.03125 3.046875 "/>
<path fill-rule="nonzero" fill="rgb(100%, 100%, 0%)" fill-opacity="1" d="M 10.03125 3.929688 C 10.03125 3.753906 10.167969 3.609375 10.335938 3.609375 C 10.5 3.609375 10.636719 3.753906 10.636719 3.929688 C 10.636719 4.105469 10.5 4.246094 10.335938 4.246094 C 10.167969 4.246094 10.03125 4.105469 10.03125 3.929688 Z M 10.03125 3.929688 "/>
<path fill-rule="nonzero" fill="rgb(100%, 100%, 0%)" fill-opacity="1" d="M 9.871094 4.652344 C 9.871094 4.476562 10.007812 4.332031 10.171875 4.332031 C 10.339844 4.332031 10.472656 4.476562 10.472656 4.652344 C 10.472656 4.828125 10.339844 4.96875 10.171875 4.96875 C 10.007812 4.96875 9.871094 4.828125 9.871094 4.652344 Z M 9.871094 4.652344 "/>
<path fill-rule="nonzero" fill="rgb(100%, 100%, 0%)" fill-opacity="1" d="M 9.390625 5.375 C 9.390625 5.199219 9.527344 5.054688 9.691406 5.054688 C 9.859375 5.054688 9.992188 5.199219 9.992188 5.375 C 9.992188 5.550781 9.859375 5.691406 9.691406 5.691406 C 9.527344 5.691406 9.390625 5.550781 9.390625 5.375 Z M 9.390625 5.375 "/>
<path fill-rule="nonzero" fill="rgb(100%, 100%, 0%)" fill-opacity="1" d="M 9.390625 4.492188 C 9.390625 4.316406 9.527344 4.171875 9.691406 4.171875 C 9.859375 4.171875 9.992188 4.316406 9.992188 4.492188 C 9.992188 4.667969 9.859375 4.808594 9.691406 4.808594 C 9.527344 4.808594 9.390625 4.667969 9.390625 4.492188 Z M 9.390625 4.492188 "/>
<path fill-rule="nonzero" fill="rgb(100%, 100%, 0%)" fill-opacity="1" d="M 9.550781 3.847656 C 9.550781 3.671875 9.6875 3.527344 9.851562 3.527344 C 10.019531 3.527344 10.152344 3.671875 10.152344 3.847656 C 10.152344 4.023438 10.019531 4.167969 9.851562 4.167969 C 9.6875 4.167969 9.550781 4.023438 9.550781 3.847656 Z M 9.550781 3.847656 "/>
<path fill-rule="nonzero" fill="rgb(100%, 100%, 0%)" fill-opacity="1" d="M 9.550781 3.125 C 9.550781 2.949219 9.6875 2.804688 9.851562 2.804688 C 10.019531 2.804688 10.152344 2.949219 10.152344 3.125 C 10.152344 3.300781 10.019531 3.445312 9.851562 3.445312 C 9.6875 3.445312 9.550781 3.300781 9.550781 3.125 Z M 9.550781 3.125 "/>
<path fill-rule="nonzero" fill="rgb(100%, 100%, 0%)" fill-opacity="1" d="M 9.390625 2.484375 C 9.390625 2.308594 9.527344 2.164062 9.691406 2.164062 C 9.859375 2.164062 9.992188 2.308594 9.992188 2.484375 C 9.992188 2.660156 9.859375 2.800781 9.691406 2.800781 C 9.527344 2.800781 9.390625 2.660156 9.390625 2.484375 Z M 9.390625 2.484375 "/>
<path fill-rule="nonzero" fill="rgb(100%, 100%, 0%)" fill-opacity="1" d="M 9.070312 1.921875 C 9.070312 1.746094 9.203125 1.601562 9.371094 1.601562 C 9.535156 1.601562 9.671875 1.746094 9.671875 1.921875 C 9.671875 2.097656 9.535156 2.238281 9.371094 2.238281 C 9.203125 2.238281 9.070312 2.097656 9.070312 1.921875 Z M 9.070312 1.921875 "/>
<path fill-rule="nonzero" fill="rgb(100%, 100%, 0%)" fill-opacity="1" d="M 8.585938 1.359375 C 8.585938 1.183594 8.722656 1.039062 8.886719 1.039062 C 9.054688 1.039062 9.191406 1.183594 9.191406 1.359375 C 9.191406 1.535156 9.054688 1.675781 8.886719 1.675781 C 8.722656 1.675781 8.585938 1.535156 8.585938 1.359375 Z M 8.585938 1.359375 "/>
<path fill-rule="nonzero" fill="rgb(100%, 100%, 0%)" fill-opacity="1" d="M 7.945312 0.957031 C 7.945312 0.78125 8.078125 0.636719 8.246094 0.636719 C 8.414062 0.636719 8.546875 0.78125 8.546875 0.957031 C 8.546875 1.132812 8.414062 1.277344 8.246094 1.277344 C 8.078125 1.277344 7.945312 1.132812 7.945312 0.957031 Z M 7.945312 0.957031 "/>
<path fill-rule="nonzero" fill="rgb(100%, 100%, 0%)" fill-opacity="1" d="M 7.304688 0.796875 C 7.304688 0.621094 7.4375 0.476562 7.605469 0.476562 C 7.769531 0.476562 7.90625 0.621094 7.90625 0.796875 C 7.90625 0.972656 7.769531 1.117188 7.605469 1.117188 C 7.4375 1.117188 7.304688 0.972656 7.304688 0.796875 Z M 7.304688 0.796875 "/>
<path fill-rule="nonzero" fill="rgb(100%, 100%, 0%)" fill-opacity="1" d="M 6.742188 0.796875 C 6.742188 0.621094 6.875 0.476562 7.042969 0.476562 C 7.207031 0.476562 7.34375 0.621094 7.34375 0.796875 C 7.34375 0.972656 7.207031 1.117188 7.042969 1.117188 C 6.875 1.117188 6.742188 0.972656 6.742188 0.796875 Z M 6.742188 0.796875 "/>
<path fill-rule="nonzero" fill="rgb(100%, 100%, 0%)" fill-opacity="1" d="M 6.019531 0.957031 C 6.019531 0.78125 6.152344 0.636719 6.320312 0.636719 C 6.484375 0.636719 6.621094 0.78125 6.621094 0.957031 C 6.621094 1.132812 6.484375 1.277344 6.320312 1.277344 C 6.152344 1.277344 6.019531 1.132812 6.019531 0.957031 Z M 6.019531 0.957031 "/>
<path fill-rule="nonzero" fill="rgb(100%, 100%, 0%)" fill-opacity="1" d="M 5.296875 1.277344 C 5.296875 1.101562 5.429688 0.960938 5.597656 0.960938 C 5.761719 0.960938 5.898438 1.101562 5.898438 1.277344 C 5.898438 1.453125 5.761719 1.597656 5.597656 1.597656 C 5.429688 1.597656 5.296875 1.453125 5.296875 1.277344 Z M 5.296875 1.277344 "/>
<path fill-rule="nonzero" fill="rgb(100%, 100%, 0%)" fill-opacity="1" d="M 4.492188 1.519531 C 4.492188 1.34375 4.625 1.199219 4.792969 1.199219 C 4.960938 1.199219 5.09375 1.34375 5.09375 1.519531 C 5.09375 1.695312 4.960938 1.839844 4.792969 1.839844 C 4.625 1.839844 4.492188 1.695312 4.492188 1.519531 Z M 4.492188 1.519531 "/>
<path fill-rule="nonzero" fill="rgb(100%, 100%, 0%)" fill-opacity="1" d="M 4.8125 1.839844 C 4.8125 1.664062 4.949219 1.523438 5.113281 1.523438 C 5.28125 1.523438 5.414062 1.664062 5.414062 1.839844 C 5.414062 2.015625 5.28125 2.160156 5.113281 2.160156 C 4.949219 2.160156 4.8125 2.015625 4.8125 1.839844 Z M 4.8125 1.839844 "/>
<path fill-rule="nonzero" fill="rgb(100%, 100%, 0%)" fill-opacity="1" d="M 4.410156 2.402344 C 4.410156 2.226562 4.546875 2.082031 4.710938 2.082031 C 4.878906 2.082031 5.015625 2.226562 5.015625 2.402344 C 5.015625 2.578125 4.878906 2.722656 4.710938 2.722656 C 4.546875 2.722656 4.410156 2.578125 4.410156 2.402344 Z M 4.410156 2.402344 "/>
<path fill-rule="nonzero" fill="rgb(100%, 100%, 0%)" fill-opacity="1" d="M 4.011719 2.242188 C 4.011719 2.066406 4.144531 1.921875 4.3125 1.921875 C 4.476562 1.921875 4.613281 2.066406 4.613281 2.242188 C 4.613281 2.417969 4.476562 2.5625 4.3125 2.5625 C 4.144531 2.5625 4.011719 2.417969 4.011719 2.242188 Z M 4.011719 2.242188 "/>
<path fill-rule="nonzero" fill="rgb(100%, 100%, 0%)" fill-opacity="1" d="M 3.769531 3.125 C 3.769531 2.949219 3.902344 2.804688 4.070312 2.804688 C 4.238281 2.804688 4.371094 2.949219 4.371094 3.125 C 4.371094 3.300781 4.238281 3.445312 4.070312 3.445312 C 3.902344 3.445312 3.769531 3.300781 3.769531 3.125 Z M 3.769531 3.125 "/>
<path fill-rule="nonzero" fill="rgb(100%, 100%, 0%)" fill-opacity="1" d="M 4.25 3.125 C 4.25 2.949219 4.386719 2.804688 4.550781 2.804688 C 4.71875 2.804688 4.851562 2.949219 4.851562 3.125 C 4.851562 3.300781 4.71875 3.445312 4.550781 3.445312 C 4.386719 3.445312 4.25 3.300781 4.25 3.125 Z M 4.25 3.125 "/>
<path fill-rule="nonzero" fill="rgb(100%, 100%, 0%)" fill-opacity="1" d="M 4.25 3.847656 C 4.25 3.671875 4.386719 3.527344 4.550781 3.527344 C 4.71875 3.527344 4.851562 3.671875 4.851562 3.847656 C 4.851562 4.023438 4.71875 4.167969 4.550781 4.167969 C 4.386719 4.167969 4.25 4.023438 4.25 3.847656 Z M 4.25 3.847656 "/>
<path fill-rule="nonzero" fill="rgb(100%, 100%, 0%)" fill-opacity="1" d="M 3.769531 3.929688 C 3.769531 3.753906 3.902344 3.609375 4.070312 3.609375 C 4.238281 3.609375 4.371094 3.753906 4.371094 3.929688 C 4.371094 4.105469 4.238281 4.246094 4.070312 4.246094 C 3.902344 4.246094 3.769531 4.105469 3.769531 3.929688 Z M 3.769531 3.929688 "/>
<path fill-rule="nonzero" fill="rgb(100%, 100%, 0%)" fill-opacity="1" d="M 4.089844 4.8125 C 4.089844 4.636719 4.226562 4.492188 4.390625 4.492188 C 4.558594 4.492188 4.691406 4.636719 4.691406 4.8125 C 4.691406 4.988281 4.558594 5.128906 4.390625 5.128906 C 4.226562 5.128906 4.089844 4.988281 4.089844 4.8125 Z M 4.089844 4.8125 "/>
<path fill-rule="nonzero" fill="rgb(100%, 100%, 0%)" fill-opacity="1" d="M 4.492188 4.652344 C 4.492188 4.476562 4.625 4.332031 4.792969 4.332031 C 4.960938 4.332031 5.09375 4.476562 5.09375 4.652344 C 5.09375 4.828125 4.960938 4.96875 4.792969 4.96875 C 4.625 4.96875 4.492188 4.828125 4.492188 4.652344 Z M 4.492188 4.652344 "/>
<path fill-rule="nonzero" fill="rgb(100%, 100%, 0%)" fill-opacity="1" d="M 4.574219 5.535156 C 4.574219 5.359375 4.707031 5.214844 4.875 5.214844 C 5.039062 5.214844 5.175781 5.359375 5.175781 5.535156 C 5.175781 5.710938 5.039062 5.851562 4.875 5.851562 C 4.707031 5.851562 4.574219 5.710938 4.574219 5.535156 Z M 4.574219 5.535156 "/>
<path fill-rule="nonzero" fill="rgb(100%, 100%, 0%)" fill-opacity="1" d="M 4.894531 5.214844 C 4.894531 5.039062 5.027344 4.894531 5.195312 4.894531 C 5.359375 4.894531 5.496094 5.039062 5.496094 5.214844 C 5.496094 5.390625 5.359375 5.53125 5.195312 5.53125 C 5.027344 5.53125 4.894531 5.390625 4.894531 5.214844 Z M 4.894531 5.214844 "/>
<path fill-rule="nonzero" fill="rgb(100%, 100%, 0%)" fill-opacity="1" d="M 5.214844 6.175781 C 5.214844 6 5.347656 5.859375 5.515625 5.859375 C 5.683594 5.859375 5.816406 6 5.816406 6.175781 C 5.816406 6.351562 5.683594 6.496094 5.515625 6.496094 C 5.347656 6.496094 5.214844 6.351562 5.214844 6.175781 Z M 5.214844 6.175781 "/>
<path fill-rule="nonzero" fill="rgb(100%, 100%, 0%)" fill-opacity="1" d="M 5.457031 5.695312 C 5.457031 5.519531 5.589844 5.375 5.757812 5.375 C 5.921875 5.375 6.058594 5.519531 6.058594 5.695312 C 6.058594 5.871094 5.921875 6.015625 5.757812 6.015625 C 5.589844 6.015625 5.457031 5.871094 5.457031 5.695312 Z M 5.457031 5.695312 "/>
<path fill-rule="nonzero" fill="rgb(100%, 100%, 0%)" fill-opacity="1" d="M 6.097656 6.015625 C 6.097656 5.839844 6.234375 5.699219 6.398438 5.699219 C 6.566406 5.699219 6.699219 5.839844 6.699219 6.015625 C 6.699219 6.191406 6.566406 6.335938 6.398438 6.335938 C 6.234375 6.335938 6.097656 6.191406 6.097656 6.015625 Z M 6.097656 6.015625 "/>
<path fill-rule="nonzero" fill="rgb(100%, 100%, 0%)" fill-opacity="1" d="M 8.828125 5.9375 C 8.828125 5.761719 8.964844 5.617188 9.128906 5.617188 C 9.296875 5.617188 9.429688 5.761719 9.429688 5.9375 C 9.429688 6.113281 9.296875 6.253906 9.128906 6.253906 C 8.964844 6.253906 8.828125 6.113281 8.828125 5.9375 Z M 8.828125 5.9375 "/>
<path fill-rule="nonzero" fill="rgb(100%, 100%, 0%)" fill-opacity="1" d="M 9.070312 5.132812 C 9.070312 4.957031 9.203125 4.8125 9.371094 4.8125 C 9.535156 4.8125 9.671875 4.957031 9.671875 5.132812 C 9.671875 5.308594 9.535156 5.453125 9.371094 5.453125 C 9.203125 5.453125 9.070312 5.308594 9.070312 5.132812 Z M 9.070312 5.132812 "/>
<path fill-rule="nonzero" fill="rgb(100%, 100%, 0%)" fill-opacity="1" d="M 8.585938 5.613281 C 8.585938 5.4375 8.722656 5.296875 8.886719 5.296875 C 9.054688 5.296875 9.191406 5.4375 9.191406 5.613281 C 9.191406 5.789062 9.054688 5.933594 8.886719 5.933594 C 8.722656 5.933594 8.585938 5.789062 8.585938 5.613281 Z M 8.585938 5.613281 "/>
<path fill-rule="nonzero" fill="rgb(100%, 100%, 0%)" fill-opacity="1" d="M 5.488281 6.59375 C 5.488281 6.414062 5.625 6.265625 5.796875 6.265625 C 5.964844 6.265625 6.105469 6.414062 6.105469 6.59375 C 6.105469 6.773438 5.964844 6.921875 5.796875 6.921875 C 5.625 6.921875 5.488281 6.773438 5.488281 6.59375 Z M 5.488281 6.59375 "/>
<path fill-rule="nonzero" fill="rgb(100%, 100%, 0%)" fill-opacity="1" d="M 6.746094 6.296875 C 6.746094 6.121094 6.882812 5.976562 7.050781 5.976562 C 7.214844 5.976562 7.351562 6.121094 7.351562 6.296875 C 7.351562 6.472656 7.214844 6.617188 7.050781 6.617188 C 6.882812 6.617188 6.746094 6.472656 6.746094 6.296875 Z M 6.746094 6.296875 "/>
<path fill-rule="nonzero" fill="rgb(100%, 100%, 0%)" fill-opacity="1" d="M 7.375 6.277344 C 7.375 6.101562 7.511719 5.957031 7.675781 5.957031 C 7.84375 5.957031 7.976562 6.101562 7.976562 6.277344 C 7.976562 6.453125 7.84375 6.59375 7.675781 6.59375 C 7.511719 6.59375 7.375 6.453125 7.375 6.277344 Z M 7.375 6.277344 "/>
<path fill-rule="nonzero" fill="rgb(100%, 100%, 0%)" fill-opacity="1" d="M 8.019531 6.035156 C 8.019531 5.859375 8.152344 5.714844 8.320312 5.714844 C 8.484375 5.714844 8.621094 5.859375 8.621094 6.035156 C 8.621094 6.210938 8.484375 6.355469 8.320312 6.355469 C 8.152344 6.355469 8.019531 6.210938 8.019531 6.035156 Z M 8.019531 6.035156 "/>
<path fill-rule="nonzero" fill="rgb(100%, 100%, 0%)" fill-opacity="1" d="M 8.269531 6.578125 C 8.269531 6.398438 8.410156 6.253906 8.578125 6.253906 C 8.75 6.253906 8.886719 6.398438 8.886719 6.578125 C 8.886719 6.757812 8.75 6.90625 8.578125 6.90625 C 8.410156 6.90625 8.269531 6.757812 8.269531 6.578125 Z M 8.269531 6.578125 "/>
<path fill-rule="nonzero" fill="rgb(100%, 100%, 0%)" fill-opacity="1" d="M 8.988281 6.992188 C 8.988281 6.8125 9.128906 6.667969 9.296875 6.667969 C 9.46875 6.667969 9.605469 6.8125 9.605469 6.992188 C 9.605469 7.175781 9.46875 7.320312 9.296875 7.320312 C 9.128906 7.320312 8.988281 7.175781 8.988281 6.992188 Z M 8.988281 6.992188 "/>
<path fill-rule="nonzero" fill="rgb(100%, 100%, 0%)" fill-opacity="1" d="M 9.625 7.550781 C 9.625 7.371094 9.761719 7.226562 9.933594 7.226562 C 10.101562 7.226562 10.242188 7.371094 10.242188 7.550781 C 10.242188 7.734375 10.101562 7.878906 9.933594 7.878906 C 9.761719 7.878906 9.625 7.734375 9.625 7.550781 Z M 9.625 7.550781 "/>
<path fill-rule="nonzero" fill="rgb(100%, 100%, 0%)" fill-opacity="1" d="M 10.03125 8.167969 C 10.03125 7.984375 10.171875 7.839844 10.339844 7.839844 C 10.511719 7.839844 10.648438 7.984375 10.648438 8.167969 C 10.648438 8.347656 10.511719 8.492188 10.339844 8.492188 C 10.171875 8.492188 10.03125 8.347656 10.03125 8.167969 Z M 10.03125 8.167969 "/>
<path fill-rule="nonzero" fill="rgb(100%, 100%, 0%)" fill-opacity="1" d="M 9.605469 8.40625 C 9.605469 8.222656 9.742188 8.078125 9.914062 8.078125 C 10.082031 8.078125 10.222656 8.222656 10.222656 8.40625 C 10.222656 8.585938 10.082031 8.730469 9.914062 8.730469 C 9.742188 8.730469 9.605469 8.585938 9.605469 8.40625 Z M 9.605469 8.40625 "/>
<path fill-rule="nonzero" fill="rgb(100%, 100%, 0%)" fill-opacity="1" d="M 10.429688 8.898438 C 10.429688 8.71875 10.566406 8.570312 10.738281 8.570312 C 10.90625 8.570312 11.046875 8.71875 11.046875 8.898438 C 11.046875 9.078125 10.90625 9.226562 10.738281 9.226562 C 10.566406 9.226562 10.429688 9.078125 10.429688 8.898438 Z M 10.429688 8.898438 "/>
<path fill-rule="nonzero" fill="rgb(100%, 100%, 0%)" fill-opacity="1" d="M 10.449219 10.554688 C 10.449219 10.375 10.585938 10.226562 10.757812 10.226562 C 10.925781 10.226562 11.066406 10.375 11.066406 10.554688 C 11.066406 10.734375 10.925781 10.882812 10.757812 10.882812 C 10.585938 10.882812 10.449219 10.734375 10.449219 10.554688 Z M 10.449219 10.554688 "/>
<path fill-rule="nonzero" fill="rgb(100%, 100%, 0%)" fill-opacity="1" d="M 10.464844 9.703125 C 10.464844 9.519531 10.601562 9.375 10.773438 9.375 C 10.945312 9.375 11.082031 9.519531 11.082031 9.703125 C 11.082031 9.882812 10.945312 10.027344 10.773438 10.027344 C 10.601562 10.027344 10.464844 9.882812 10.464844 9.703125 Z M 10.464844 9.703125 "/>
<path fill-rule="nonzero" fill="rgb(100%, 100%, 0%)" fill-opacity="1" d="M 10.050781 9.675781 C 10.050781 9.496094 10.1875 9.347656 10.359375 9.347656 C 10.527344 9.347656 10.667969 9.496094 10.667969 9.675781 C 10.667969 9.855469 10.527344 10.003906 10.359375 10.003906 C 10.1875 10.003906 10.050781 9.855469 10.050781 9.675781 Z M 10.050781 9.675781 "/>
<path fill-rule="nonzero" fill="rgb(100%, 100%, 0%)" fill-opacity="1" d="M 9.875 9.023438 C 9.875 8.84375 10.011719 8.695312 10.183594 8.695312 C 10.351562 8.695312 10.492188 8.84375 10.492188 9.023438 C 10.492188 9.203125 10.351562 9.351562 10.183594 9.351562 C 10.011719 9.351562 9.875 9.203125 9.875 9.023438 Z M 9.875 9.023438 "/>
<path fill-rule="nonzero" fill="rgb(100%, 100%, 0%)" fill-opacity="1" d="M 9.179688 7.871094 C 9.179688 7.691406 9.320312 7.542969 9.488281 7.542969 C 9.660156 7.542969 9.796875 7.691406 9.796875 7.871094 C 9.796875 8.050781 9.660156 8.199219 9.488281 8.199219 C 9.320312 8.199219 9.179688 8.050781 9.179688 7.871094 Z M 9.179688 7.871094 "/>
<path fill-rule="nonzero" fill="rgb(100%, 100%, 0%)" fill-opacity="1" d="M 8.742188 7.363281 C 8.742188 7.183594 8.878906 7.035156 9.050781 7.035156 C 9.21875 7.035156 9.359375 7.183594 9.359375 7.363281 C 9.359375 7.542969 9.21875 7.691406 9.050781 7.691406 C 8.878906 7.691406 8.742188 7.542969 8.742188 7.363281 Z M 8.742188 7.363281 "/>
<path fill-rule="nonzero" fill="rgb(100%, 100%, 0%)" fill-opacity="1" d="M 8.144531 6.988281 C 8.144531 6.808594 8.28125 6.664062 8.453125 6.664062 C 8.625 6.664062 8.761719 6.808594 8.761719 6.988281 C 8.761719 7.171875 8.625 7.316406 8.453125 7.316406 C 8.28125 7.316406 8.144531 7.171875 8.144531 6.988281 Z M 8.144531 6.988281 "/>
<path fill-rule="nonzero" fill="rgb(100%, 100%, 0%)" fill-opacity="1" d="M 5.945312 6.597656 C 5.945312 6.417969 6.082031 6.269531 6.253906 6.269531 C 6.421875 6.269531 6.5625 6.417969 6.5625 6.597656 C 6.5625 6.777344 6.421875 6.925781 6.253906 6.925781 C 6.082031 6.925781 5.945312 6.777344 5.945312 6.597656 Z M 5.945312 6.597656 "/>
<path fill-rule="nonzero" fill="rgb(100%, 100%, 0%)" fill-opacity="1" d="M 10.242188 11.308594 C 10.242188 11.125 10.378906 10.980469 10.550781 10.980469 C 10.71875 10.980469 10.859375 11.125 10.859375 11.308594 C 10.859375 11.488281 10.71875 11.632812 10.550781 11.632812 C 10.378906 11.632812 10.242188 11.488281 10.242188 11.308594 Z M 10.242188 11.308594 "/>
<path fill-rule="nonzero" fill="rgb(100%, 100%, 0%)" fill-opacity="1" d="M 10.011719 10.449219 C 10.011719 10.269531 10.152344 10.121094 10.320312 10.121094 C 10.492188 10.121094 10.628906 10.269531 10.628906 10.449219 C 10.628906 10.628906 10.492188 10.773438 10.320312 10.773438 C 10.152344 10.773438 10.011719 10.628906 10.011719 10.449219 Z M 10.011719 10.449219 "/>
<path fill-rule="nonzero" fill="rgb(100%, 100%, 0%)" fill-opacity="1" d="M 9.816406 11.101562 C 9.816406 10.921875 9.957031 10.773438 10.125 10.773438 C 10.296875 10.773438 10.433594 10.921875 10.433594 11.101562 C 10.433594 11.28125 10.296875 11.425781 10.125 11.425781 C 9.957031 11.425781 9.816406 11.28125 9.816406 11.101562 Z M 9.816406 11.101562 "/>
<path fill-rule="nonzero" fill="rgb(100%, 100%, 0%)" fill-opacity="1" d="M 6.621094 6.828125 C 6.621094 6.644531 6.757812 6.5 6.929688 6.5 C 7.101562 6.5 7.238281 6.644531 7.238281 6.828125 C 7.238281 7.007812 7.101562 7.152344 6.929688 7.152344 C 6.757812 7.152344 6.621094 7.007812 6.621094 6.828125 Z M 6.621094 6.828125 "/>
<path fill-rule="nonzero" fill="rgb(100%, 100%, 0%)" fill-opacity="1" d="M 7.363281 6.828125 C 7.363281 6.644531 7.5 6.5 7.671875 6.5 C 7.839844 6.5 7.980469 6.644531 7.980469 6.828125 C 7.980469 7.007812 7.839844 7.152344 7.671875 7.152344 C 7.5 7.152344 7.363281 7.007812 7.363281 6.828125 Z M 7.363281 6.828125 "/>
<path fill-rule="nonzero" fill="rgb(100%, 100%, 0%)" fill-opacity="1" d="M 5.960938 6.992188 C 5.960938 6.808594 6.101562 6.664062 6.269531 6.664062 C 6.441406 6.664062 6.578125 6.808594 6.578125 6.992188 C 6.578125 7.171875 6.441406 7.316406 6.269531 7.316406 C 6.101562 7.316406 5.960938 7.171875 5.960938 6.992188 Z M 5.960938 6.992188 "/>
<path fill-rule="nonzero" fill="rgb(100%, 100%, 0%)" fill-opacity="1" d="M 5.136719 6.910156 C 5.136719 6.726562 5.277344 6.582031 5.445312 6.582031 C 5.617188 6.582031 5.753906 6.726562 5.753906 6.910156 C 5.753906 7.089844 5.617188 7.234375 5.445312 7.234375 C 5.277344 7.234375 5.136719 7.089844 5.136719 6.910156 Z M 5.136719 6.910156 "/>
<path fill-rule="nonzero" fill="rgb(100%, 100%, 0%)" fill-opacity="1" d="M 5.386719 7.238281 C 5.386719 7.058594 5.523438 6.910156 5.695312 6.910156 C 5.863281 6.910156 6.003906 7.058594 6.003906 7.238281 C 6.003906 7.417969 5.863281 7.566406 5.695312 7.566406 C 5.523438 7.566406 5.386719 7.417969 5.386719 7.238281 Z M 5.386719 7.238281 "/>
<path fill-rule="nonzero" fill="rgb(100%, 100%, 0%)" fill-opacity="1" d="M 4.480469 7.402344 C 4.480469 7.222656 4.617188 7.074219 4.789062 7.074219 C 4.957031 7.074219 5.097656 7.222656 5.097656 7.402344 C 5.097656 7.582031 4.957031 7.730469 4.789062 7.730469 C 4.617188 7.730469 4.480469 7.582031 4.480469 7.402344 Z M 4.480469 7.402344 "/>
<path fill-rule="nonzero" fill="rgb(100%, 100%, 0%)" fill-opacity="1" d="M 4.808594 7.730469 C 4.808594 7.550781 4.949219 7.40625 5.117188 7.40625 C 5.289062 7.40625 5.425781 7.550781 5.425781 7.730469 C 5.425781 7.914062 5.289062 8.058594 5.117188 8.058594 C 4.949219 8.058594 4.808594 7.914062 4.808594 7.730469 Z M 4.808594 7.730469 "/>
<path fill-rule="nonzero" fill="rgb(100%, 100%, 0%)" fill-opacity="1" d="M 3.902344 8.0625 C 3.902344 7.882812 4.042969 7.734375 4.210938 7.734375 C 4.382812 7.734375 4.519531 7.882812 4.519531 8.0625 C 4.519531 8.242188 4.382812 8.386719 4.210938 8.386719 C 4.042969 8.386719 3.902344 8.242188 3.902344 8.0625 Z M 3.902344 8.0625 "/>
<path fill-rule="nonzero" fill="rgb(100%, 100%, 0%)" fill-opacity="1" d="M 4.316406 8.308594 C 4.316406 8.128906 4.453125 7.980469 4.625 7.980469 C 4.792969 7.980469 4.933594 8.128906 4.933594 8.308594 C 4.933594 8.488281 4.792969 8.636719 4.625 8.636719 C 4.453125 8.636719 4.316406 8.488281 4.316406 8.308594 Z M 4.316406 8.308594 "/>
<path fill-rule="nonzero" fill="rgb(100%, 100%, 0%)" fill-opacity="1" d="M 3.574219 8.800781 C 3.574219 8.621094 3.710938 8.476562 3.882812 8.476562 C 4.054688 8.476562 4.191406 8.621094 4.191406 8.800781 C 4.191406 8.984375 4.054688 9.128906 3.882812 9.128906 C 3.710938 9.128906 3.574219 8.984375 3.574219 8.800781 Z M 3.574219 8.800781 "/>
<path fill-rule="nonzero" fill="rgb(100%, 100%, 0%)" fill-opacity="1" d="M 3.984375 8.96875 C 3.984375 8.785156 4.125 8.640625 4.292969 8.640625 C 4.464844 8.640625 4.601562 8.785156 4.601562 8.96875 C 4.601562 9.148438 4.464844 9.292969 4.292969 9.292969 C 4.125 9.292969 3.984375 9.148438 3.984375 8.96875 Z M 3.984375 8.96875 "/>
<path fill-rule="nonzero" fill="rgb(100%, 100%, 0%)" fill-opacity="1" d="M 3.328125 9.625 C 3.328125 9.445312 3.464844 9.300781 3.636719 9.300781 C 3.804688 9.300781 3.945312 9.445312 3.945312 9.625 C 3.945312 9.808594 3.804688 9.953125 3.636719 9.953125 C 3.464844 9.953125 3.328125 9.808594 3.328125 9.625 Z M 3.328125 9.625 "/>
<path fill-rule="nonzero" fill="rgb(100%, 100%, 0%)" fill-opacity="1" d="M 3.820312 9.625 C 3.820312 9.445312 3.960938 9.300781 4.128906 9.300781 C 4.300781 9.300781 4.4375 9.445312 4.4375 9.625 C 4.4375 9.808594 4.300781 9.953125 4.128906 9.953125 C 3.960938 9.953125 3.820312 9.808594 3.820312 9.625 Z M 3.820312 9.625 "/>
<path fill-rule="nonzero" fill="rgb(100%, 100%, 0%)" fill-opacity="1" d="M 3.820312 10.449219 C 3.820312 10.269531 3.960938 10.121094 4.128906 10.121094 C 4.300781 10.121094 4.4375 10.269531 4.4375 10.449219 C 4.4375 10.628906 4.300781 10.777344 4.128906 10.777344 C 3.960938 10.777344 3.820312 10.628906 3.820312 10.449219 Z M 3.820312 10.449219 "/>
<path fill-rule="nonzero" fill="rgb(100%, 100%, 0%)" fill-opacity="1" d="M 3.328125 10.449219 C 3.328125 10.269531 3.464844 10.121094 3.636719 10.121094 C 3.804688 10.121094 3.945312 10.269531 3.945312 10.449219 C 3.945312 10.628906 3.804688 10.777344 3.636719 10.777344 C 3.464844 10.777344 3.328125 10.628906 3.328125 10.449219 Z M 3.328125 10.449219 "/>
<path fill-rule="nonzero" fill="rgb(100%, 100%, 0%)" fill-opacity="1" d="M 3.65625 11.273438 C 3.65625 11.09375 3.792969 10.945312 3.964844 10.945312 C 4.136719 10.945312 4.273438 11.09375 4.273438 11.273438 C 4.273438 11.453125 4.136719 11.601562 3.964844 11.601562 C 3.792969 11.601562 3.65625 11.453125 3.65625 11.273438 Z M 3.65625 11.273438 "/>
<path fill-rule="nonzero" fill="rgb(100%, 100%, 0%)" fill-opacity="1" d="M 4.066406 11.109375 C 4.066406 10.929688 4.207031 10.78125 4.375 10.78125 C 4.546875 10.78125 4.683594 10.929688 4.683594 11.109375 C 4.683594 11.289062 4.546875 11.433594 4.375 11.433594 C 4.207031 11.433594 4.066406 11.289062 4.066406 11.109375 Z M 4.066406 11.109375 "/>
<path fill-rule="nonzero" fill="rgb(100%, 100%, 0%)" fill-opacity="1" d="M 4.066406 12.097656 C 4.066406 11.914062 4.207031 11.769531 4.375 11.769531 C 4.546875 11.769531 4.683594 11.914062 4.683594 12.097656 C 4.683594 12.277344 4.546875 12.421875 4.375 12.421875 C 4.207031 12.421875 4.066406 12.277344 4.066406 12.097656 Z M 4.066406 12.097656 "/>
<path fill-rule="nonzero" fill="rgb(100%, 100%, 0%)" fill-opacity="1" d="M 4.480469 11.765625 C 4.480469 11.585938 4.617188 11.441406 4.789062 11.441406 C 4.957031 11.441406 5.097656 11.585938 5.097656 11.765625 C 5.097656 11.949219 4.957031 12.09375 4.789062 12.09375 C 4.617188 12.09375 4.480469 11.949219 4.480469 11.765625 Z M 4.480469 11.765625 "/>
<path fill-rule="nonzero" fill="rgb(100%, 100%, 0%)" fill-opacity="1" d="M 4.644531 12.671875 C 4.644531 12.492188 4.78125 12.347656 4.953125 12.347656 C 5.125 12.347656 5.261719 12.492188 5.261719 12.671875 C 5.261719 12.855469 5.125 13 4.953125 13 C 4.78125 13 4.644531 12.855469 4.644531 12.671875 Z M 4.644531 12.671875 "/>
<path fill-rule="nonzero" fill="rgb(100%, 100%, 0%)" fill-opacity="1" d="M 4.972656 12.34375 C 4.972656 12.164062 5.113281 12.015625 5.28125 12.015625 C 5.453125 12.015625 5.589844 12.164062 5.589844 12.34375 C 5.589844 12.523438 5.453125 12.671875 5.28125 12.671875 C 5.113281 12.671875 4.972656 12.523438 4.972656 12.34375 Z M 4.972656 12.34375 "/>
<path fill-rule="nonzero" fill="rgb(100%, 100%, 0%)" fill-opacity="1" d="M 5.386719 13.085938 C 5.386719 12.902344 5.523438 12.757812 5.695312 12.757812 C 5.863281 12.757812 6.003906 12.902344 6.003906 13.085938 C 6.003906 13.265625 5.863281 13.410156 5.695312 13.410156 C 5.523438 13.410156 5.386719 13.265625 5.386719 13.085938 Z M 5.386719 13.085938 "/>
<path fill-rule="nonzero" fill="rgb(100%, 100%, 0%)" fill-opacity="1" d="M 5.550781 12.671875 C 5.550781 12.492188 5.6875 12.347656 5.859375 12.347656 C 6.03125 12.347656 6.167969 12.492188 6.167969 12.671875 C 6.167969 12.855469 6.03125 13 5.859375 13 C 5.6875 13 5.550781 12.855469 5.550781 12.671875 Z M 5.550781 12.671875 "/>
<path fill-rule="nonzero" fill="rgb(100%, 100%, 0%)" fill-opacity="1" d="M 6.292969 12.921875 C 6.292969 12.738281 6.429688 12.59375 6.601562 12.59375 C 6.769531 12.59375 6.910156 12.738281 6.910156 12.921875 C 6.910156 13.101562 6.769531 13.246094 6.601562 13.246094 C 6.429688 13.246094 6.292969 13.101562 6.292969 12.921875 Z M 6.292969 12.921875 "/>
<path fill-rule="nonzero" fill="rgb(100%, 100%, 0%)" fill-opacity="1" d="M 6.125 13.414062 C 6.125 13.234375 6.265625 13.085938 6.433594 13.085938 C 6.605469 13.085938 6.742188 13.234375 6.742188 13.414062 C 6.742188 13.59375 6.605469 13.742188 6.433594 13.742188 C 6.265625 13.742188 6.125 13.59375 6.125 13.414062 Z M 6.125 13.414062 "/>
<path fill-rule="nonzero" fill="rgb(100%, 100%, 0%)" fill-opacity="1" d="M 6.949219 13.496094 C 6.949219 13.316406 7.089844 13.167969 7.257812 13.167969 C 7.429688 13.167969 7.566406 13.316406 7.566406 13.496094 C 7.566406 13.675781 7.429688 13.824219 7.257812 13.824219 C 7.089844 13.824219 6.949219 13.675781 6.949219 13.496094 Z M 6.949219 13.496094 "/>
<path fill-rule="nonzero" fill="rgb(100%, 100%, 0%)" fill-opacity="1" d="M 6.949219 13.003906 C 6.949219 12.820312 7.089844 12.675781 7.257812 12.675781 C 7.429688 12.675781 7.566406 12.820312 7.566406 13.003906 C 7.566406 13.183594 7.429688 13.328125 7.257812 13.328125 C 7.089844 13.328125 6.949219 13.183594 6.949219 13.003906 Z M 6.949219 13.003906 "/>
<path fill-rule="nonzero" fill="rgb(100%, 100%, 0%)" fill-opacity="1" d="M 7.773438 12.921875 C 7.773438 12.738281 7.910156 12.59375 8.082031 12.59375 C 8.253906 12.59375 8.390625 12.738281 8.390625 12.921875 C 8.390625 13.101562 8.253906 13.246094 8.082031 13.246094 C 7.910156 13.246094 7.773438 13.101562 7.773438 12.921875 Z M 7.773438 12.921875 "/>
<path fill-rule="nonzero" fill="rgb(100%, 100%, 0%)" fill-opacity="1" d="M 7.773438 13.414062 C 7.773438 13.234375 7.910156 13.085938 8.082031 13.085938 C 8.253906 13.085938 8.390625 13.234375 8.390625 13.414062 C 8.390625 13.59375 8.253906 13.742188 8.082031 13.742188 C 7.910156 13.742188 7.773438 13.59375 7.773438 13.414062 Z M 7.773438 13.414062 "/>
<path fill-rule="nonzero" fill="rgb(100%, 100%, 0%)" fill-opacity="1" d="M 8.515625 13.085938 C 8.515625 12.902344 8.652344 12.757812 8.824219 12.757812 C 8.992188 12.757812 9.132812 12.902344 9.132812 13.085938 C 9.132812 13.265625 8.992188 13.410156 8.824219 13.410156 C 8.652344 13.410156 8.515625 13.265625 8.515625 13.085938 Z M 8.515625 13.085938 "/>
<path fill-rule="nonzero" fill="rgb(100%, 100%, 0%)" fill-opacity="1" d="M 8.351562 12.589844 C 8.351562 12.410156 8.488281 12.261719 8.660156 12.261719 C 8.828125 12.261719 8.96875 12.410156 8.96875 12.589844 C 8.96875 12.769531 8.828125 12.917969 8.660156 12.917969 C 8.488281 12.917969 8.351562 12.769531 8.351562 12.589844 Z M 8.351562 12.589844 "/>
<path fill-rule="nonzero" fill="rgb(100%, 100%, 0%)" fill-opacity="1" d="M 9.257812 12.671875 C 9.257812 12.492188 9.394531 12.347656 9.566406 12.347656 C 9.734375 12.347656 9.875 12.492188 9.875 12.671875 C 9.875 12.855469 9.734375 13 9.566406 13 C 9.394531 13 9.257812 12.855469 9.257812 12.671875 Z M 9.257812 12.671875 "/>
<path fill-rule="nonzero" fill="rgb(100%, 100%, 0%)" fill-opacity="1" d="M 9.832031 12.015625 C 9.832031 11.832031 9.96875 11.6875 10.140625 11.6875 C 10.3125 11.6875 10.449219 11.832031 10.449219 12.015625 C 10.449219 12.195312 10.3125 12.339844 10.140625 12.339844 C 9.96875 12.339844 9.832031 12.195312 9.832031 12.015625 Z M 9.832031 12.015625 "/>
<path fill-rule="nonzero" fill="rgb(100%, 100%, 0%)" fill-opacity="1" d="M 9.421875 11.765625 C 9.421875 11.585938 9.558594 11.441406 9.730469 11.441406 C 9.898438 11.441406 10.039062 11.585938 10.039062 11.765625 C 10.039062 11.949219 9.898438 12.09375 9.730469 12.09375 C 9.558594 12.09375 9.421875 11.949219 9.421875 11.765625 Z M 9.421875 11.765625 "/>
<path fill-rule="nonzero" fill="rgb(100%, 100%, 0%)" fill-opacity="1" d="M 8.925781 12.261719 C 8.925781 12.082031 9.066406 11.933594 9.234375 11.933594 C 9.40625 11.933594 9.542969 12.082031 9.542969 12.261719 C 9.542969 12.441406 9.40625 12.589844 9.234375 12.589844 C 9.066406 12.589844 8.925781 12.441406 8.925781 12.261719 Z M 8.925781 12.261719 "/>
</svg>
