<?xml version="1.0" encoding="UTF-8"?>
<svg xmlns="http://www.w3.org/2000/svg" xmlns:xlink="http://www.w3.org/1999/xlink" width="15" height="15" viewBox="0 0 15 15">
<path fill-rule="nonzero" fill="rgb(100%, 100%, 100%)" fill-opacity="1" stroke-width="10" stroke-linecap="butt" stroke-linejoin="miter" stroke="rgb(100%, 0%, 0%)" stroke-opacity="1" stroke-miterlimit="4" d="M 5.013021 5.013021 L 5.013021 148.986979 L 148.986979 148.986979 L 148.986979 5.013021 Z M 5.013021 5.013021 " transform="matrix(0.0974026, 0, 0, 0.0974026, 0, 0)"/>
<path fill-rule="nonzero" fill="rgb(100%, 0%, 0%)" fill-opacity="1" d="M 4.914062 2.324219 L 6.316406 2.324219 L 6.316406 12.144531 L 4.914062 12.144531 L 4.914062 3.726562 L 3.515625 5.132812 L 3.515625 3.726562 L 4.914062 2.324219 "/>
<path fill-rule="nonzero" fill="rgb(100%, 0%, 0%)" fill-opacity="1" d="M 9.433594 2.324219 L 11.382812 2.324219 L 11.382812 3.027344 L 10.132812 3.027344 L 10.132812 4.140625 C 10.242188 4.101562 10.359375 4.078125 10.484375 4.078125 C 10.773438 4.078125 11.023438 4.179688 11.226562 4.390625 C 11.433594 4.59375 11.535156 4.84375 11.535156 5.132812 L 11.535156 6.183594 C 11.535156 6.472656 11.433594 6.71875 11.226562 6.925781 C 11.023438 7.132812 10.773438 7.234375 10.484375 7.234375 C 10.195312 7.234375 9.945312 7.132812 9.742188 6.925781 C 9.535156 6.71875 9.433594 6.472656 9.433594 6.183594 L 9.433594 5.832031 L 10.132812 5.832031 L 10.132812 6.183594 C 10.132812 6.28125 10.164062 6.363281 10.234375 6.433594 C 10.304688 6.5 10.386719 6.53125 10.484375 6.53125 C 10.582031 6.53125 10.664062 6.5 10.730469 6.433594 C 10.800781 6.363281 10.832031 6.28125 10.832031 6.183594 L 10.832031 5.132812 C 10.832031 5.035156 10.800781 4.949219 10.730469 4.882812 C 10.664062 4.8125 10.582031 4.777344 10.484375 4.777344 C 10.386719 4.777344 10.304688 4.8125 10.234375 4.882812 C 10.164062 4.949219 10.132812 5.035156 10.132812 5.132812 L 9.433594 5.132812 L 9.433594 2.324219 "/>
<path fill-rule="nonzero" fill="rgb(100%, 0%, 0%)" fill-opacity="1" d="M 7.386719 2.324219 L 8.363281 2.324219 L 8.363281 3.300781 L 7.386719 3.300781 L 7.386719 2.324219 "/>
</svg>
