<?xml version="1.0" encoding="UTF-8"?>
<svg xmlns="http://www.w3.org/2000/svg" xmlns:xlink="http://www.w3.org/1999/xlink" width="16" height="16" viewBox="0 0 16 16">
<path fill-rule="nonzero" fill="rgb(100%, 100%, 100%)" fill-opacity="1" stroke-width="10" stroke-linecap="butt" stroke-linejoin="miter" stroke="rgb(100%, 0%, 0%)" stroke-opacity="1" stroke-miterlimit="4" d="M 5.000488 5.000488 L 5.000488 148.999504 L 148.999504 148.999504 L 148.999504 5.000488 Z M 5.000488 5.000488 " transform="matrix(0.103896, 0, 0, 0.103896, 0, 0)"/>
<path fill-rule="nonzero" fill="rgb(100%, 0%, 0%)" fill-opacity="1" d="M 6.507812 3.140625 C 6.949219 2.699219 7.476562 2.480469 8.097656 2.480469 C 8.710938 2.480469 9.242188 2.699219 9.679688 3.140625 C 10.117188 3.582031 10.335938 4.109375 10.335938 4.730469 C 10.335938 5.058594 10.269531 5.371094 10.140625 5.660156 L 7.523438 11.457031 L 10.335938 11.457031 L 10.335938 12.953125 L 5.855469 12.953125 L 5.855469 11.457031 L 8.667969 5.304688 C 8.789062 5.015625 8.847656 4.824219 8.839844 4.730469 C 8.839844 4.519531 8.765625 4.339844 8.621094 4.195312 C 8.480469 4.050781 8.304688 3.976562 8.097656 3.976562 C 7.886719 3.976562 7.707031 4.050781 7.5625 4.195312 C 7.417969 4.339844 7.339844 4.519531 7.339844 4.730469 L 5.855469 4.730469 C 5.855469 4.109375 6.070312 3.582031 6.507812 3.140625 "/>
</svg>
