<?xml version="1.0" encoding="UTF-8"?>
<svg xmlns="http://www.w3.org/2000/svg" xmlns:xlink="http://www.w3.org/1999/xlink" width="17.237164" height="15" viewBox="0 0 17.237164 15">
<path fill-rule="nonzero" fill="rgb(95.294118%, 57.254905%, 0%)" fill-opacity="1" d="M 17.238281 0 L 8.617188 15 L 0 0 Z M 17.238281 0 "/>
<path fill-rule="nonzero" fill="rgb(0%, 0%, 0%)" fill-opacity="1" d="M 16.210938 0.625 L 8.671875 13.679688 L 1.136719 0.625 Z M 16.210938 0.625 "/>
<path fill-rule="nonzero" fill="rgb(0%, 0%, 0%)" fill-opacity="1" d="M 8.671875 13.714844 L 8.65625 13.6875 L 1.105469 0.605469 L 16.242188 0.605469 L 16.226562 0.632812 Z M 1.167969 0.640625 L 8.671875 13.644531 L 16.179688 0.640625 Z M 1.167969 0.640625 "/>
<path fill-rule="nonzero" fill="rgb(95.294118%, 57.254905%, 0%)" fill-opacity="1" d="M 7.527344 5.328125 C 7.113281 5.175781 6.808594 4.960938 6.609375 4.679688 C 6.40625 4.398438 6.308594 4.0625 6.308594 3.667969 C 6.308594 3.078125 6.519531 2.578125 6.945312 2.175781 C 7.371094 1.773438 7.9375 1.570312 8.644531 1.570312 C 9.355469 1.570312 9.925781 1.777344 10.359375 2.191406 C 10.792969 2.601562 11.011719 3.105469 11.011719 3.699219 C 11.011719 4.074219 10.910156 4.402344 10.710938 4.683594 C 10.515625 4.960938 10.214844 5.175781 9.8125 5.328125 C 10.308594 5.492188 10.691406 5.753906 10.953125 6.117188 C 11.210938 6.480469 11.34375 6.914062 11.34375 7.417969 C 11.34375 8.113281 11.097656 8.695312 10.605469 9.171875 C 10.113281 9.644531 9.464844 9.882812 8.660156 9.882812 C 7.859375 9.882812 7.210938 9.644531 6.71875 9.167969 C 6.226562 8.691406 5.980469 8.097656 5.980469 7.390625 C 5.980469 6.859375 6.113281 6.417969 6.382812 6.058594 C 6.652344 5.703125 7.03125 5.460938 7.527344 5.328125 Z M 7.007812 7.394531 C 7.007812 7.679688 7.074219 7.957031 7.210938 8.222656 C 7.34375 8.488281 7.546875 8.695312 7.8125 8.839844 C 8.078125 8.988281 8.367188 9.058594 8.671875 9.058594 C 9.148438 9.058594 9.542969 8.90625 9.855469 8.597656 C 10.167969 8.292969 10.320312 7.902344 10.320312 7.429688 C 10.320312 6.945312 10.160156 6.550781 9.839844 6.234375 C 9.519531 5.917969 9.121094 5.761719 8.640625 5.761719 C 8.167969 5.761719 7.78125 5.917969 7.472656 6.230469 C 7.160156 6.539062 7.007812 6.929688 7.007812 7.394531 Z M 7.328125 3.636719 C 7.328125 4.019531 7.453125 4.335938 7.703125 4.578125 C 7.949219 4.824219 8.269531 4.945312 8.667969 4.945312 C 9.050781 4.945312 9.367188 4.824219 9.613281 4.582031 C 9.859375 4.339844 9.984375 4.042969 9.984375 3.691406 C 9.984375 3.324219 9.855469 3.015625 9.601562 2.765625 C 9.347656 2.519531 9.035156 2.394531 8.65625 2.394531 C 8.273438 2.394531 7.957031 2.515625 7.707031 2.757812 C 7.453125 3.003906 7.328125 3.296875 7.328125 3.636719 Z M 7.328125 3.636719 "/>
</svg>
