<?xml version="1.0" encoding="UTF-8"?>
<svg xmlns="http://www.w3.org/2000/svg" xmlns:xlink="http://www.w3.org/1999/xlink" width="14.308369" height="14" viewBox="0 0 14.308369 14">
<path fill-rule="nonzero" fill="rgb(0%, 0%, 0%)" fill-opacity="1" stroke-width="1.417531" stroke-linecap="butt" stroke-linejoin="miter" stroke="rgb(0%, 0%, 0%)" stroke-opacity="1" stroke-miterlimit="4" d="M 6.603718 570.279381 L 492.297294 570.279381 L 492.297294 1045.469318 L 8.731037 1045.469318 Z M 6.603718 570.279381 " transform="matrix(0.0293797, 0, 0, 0.0293797, -0.174484, -16.735106)"/>
<path fill-rule="nonzero" fill="rgb(100%, 100%, 0%)" fill-opacity="1" d="M 10.617188 2.019531 C 10.617188 2.199219 10.480469 2.347656 10.308594 2.347656 C 10.140625 2.347656 10 2.199219 10 2.019531 C 10 1.839844 10.140625 1.691406 10.308594 1.691406 C 10.480469 1.691406 10.617188 1.839844 10.617188 2.019531 Z M 10.617188 2.019531 "/>
<path fill-rule="nonzero" fill="rgb(100%, 100%, 0%)" fill-opacity="1" d="M 10.289062 2.265625 C 10.289062 2.445312 10.152344 2.59375 9.980469 2.59375 C 9.808594 2.59375 9.671875 2.445312 9.671875 2.265625 C 9.671875 2.085938 9.808594 1.9375 9.980469 1.9375 C 10.152344 1.9375 10.289062 2.085938 10.289062 2.265625 Z M 10.289062 2.265625 "/>
<path fill-rule="nonzero" fill="rgb(100%, 100%, 0%)" fill-opacity="1" d="M 9.628906 1.691406 C 9.628906 1.871094 9.492188 2.015625 9.320312 2.015625 C 9.152344 2.015625 9.011719 1.871094 9.011719 1.691406 C 9.011719 1.507812 9.152344 1.363281 9.320312 1.363281 C 9.492188 1.363281 9.628906 1.507812 9.628906 1.691406 Z M 9.628906 1.691406 "/>
<path fill-rule="nonzero" fill="rgb(100%, 100%, 0%)" fill-opacity="1" d="M 9.878906 1.359375 C 9.878906 1.539062 9.738281 1.6875 9.570312 1.6875 C 9.398438 1.6875 9.261719 1.539062 9.261719 1.359375 C 9.261719 1.179688 9.398438 1.035156 9.570312 1.035156 C 9.738281 1.035156 9.878906 1.179688 9.878906 1.359375 Z M 9.878906 1.359375 "/>
<path fill-rule="nonzero" fill="rgb(100%, 100%, 0%)" fill-opacity="1" d="M 8.972656 0.785156 C 8.972656 0.964844 8.832031 1.109375 8.664062 1.109375 C 8.492188 1.109375 8.355469 0.964844 8.355469 0.785156 C 8.355469 0.601562 8.492188 0.457031 8.664062 0.457031 C 8.832031 0.457031 8.972656 0.601562 8.972656 0.785156 Z M 8.972656 0.785156 "/>
<path fill-rule="nonzero" fill="rgb(100%, 100%, 0%)" fill-opacity="1" d="M 8.808594 1.195312 C 8.808594 1.375 8.667969 1.523438 8.5 1.523438 C 8.328125 1.523438 8.191406 1.375 8.191406 1.195312 C 8.191406 1.015625 8.328125 0.867188 8.5 0.867188 C 8.667969 0.867188 8.808594 1.015625 8.808594 1.195312 Z M 8.808594 1.195312 "/>
<path fill-rule="nonzero" fill="rgb(100%, 100%, 0%)" fill-opacity="1" d="M 8.066406 0.949219 C 8.066406 1.128906 7.925781 1.277344 7.757812 1.277344 C 7.585938 1.277344 7.449219 1.128906 7.449219 0.949219 C 7.449219 0.769531 7.585938 0.621094 7.757812 0.621094 C 7.925781 0.621094 8.066406 0.769531 8.066406 0.949219 Z M 8.066406 0.949219 "/>
<path fill-rule="nonzero" fill="rgb(100%, 100%, 0%)" fill-opacity="1" d="M 8.148438 0.535156 C 8.148438 0.71875 8.011719 0.863281 7.839844 0.863281 C 7.667969 0.863281 7.53125 0.71875 7.53125 0.535156 C 7.53125 0.355469 7.667969 0.210938 7.839844 0.210938 C 8.011719 0.210938 8.148438 0.355469 8.148438 0.535156 Z M 8.148438 0.535156 "/>
<path fill-rule="nonzero" fill="rgb(100%, 100%, 0%)" fill-opacity="1" d="M 7.324219 0.453125 C 7.324219 0.636719 7.1875 0.78125 7.015625 0.78125 C 6.84375 0.78125 6.707031 0.636719 6.707031 0.453125 C 6.707031 0.273438 6.84375 0.128906 7.015625 0.128906 C 7.1875 0.128906 7.324219 0.273438 7.324219 0.453125 Z M 7.324219 0.453125 "/>
<path fill-rule="nonzero" fill="rgb(100%, 100%, 0%)" fill-opacity="1" d="M 7.324219 0.867188 C 7.324219 1.046875 7.1875 1.191406 7.015625 1.191406 C 6.84375 1.191406 6.707031 1.046875 6.707031 0.867188 C 6.707031 0.6875 6.84375 0.539062 7.015625 0.539062 C 7.1875 0.539062 7.324219 0.6875 7.324219 0.867188 Z M 7.324219 0.867188 "/>
<path fill-rule="nonzero" fill="rgb(100%, 100%, 0%)" fill-opacity="1" d="M 6.5 0.949219 C 6.5 1.128906 6.363281 1.277344 6.191406 1.277344 C 6.023438 1.277344 5.882812 1.128906 5.882812 0.949219 C 5.882812 0.769531 6.023438 0.621094 6.191406 0.621094 C 6.363281 0.621094 6.5 0.769531 6.5 0.949219 Z M 6.5 0.949219 "/>
<path fill-rule="nonzero" fill="rgb(100%, 100%, 0%)" fill-opacity="1" d="M 6.417969 0.535156 C 6.417969 0.71875 6.28125 0.863281 6.109375 0.863281 C 5.941406 0.863281 5.800781 0.71875 5.800781 0.535156 C 5.800781 0.355469 5.941406 0.210938 6.109375 0.210938 C 6.28125 0.210938 6.417969 0.355469 6.417969 0.535156 Z M 6.417969 0.535156 "/>
<path fill-rule="nonzero" fill="rgb(100%, 100%, 0%)" fill-opacity="1" d="M 5.511719 0.867188 C 5.511719 1.046875 5.375 1.191406 5.203125 1.191406 C 5.035156 1.191406 4.894531 1.046875 4.894531 0.867188 C 4.894531 0.6875 5.035156 0.539062 5.203125 0.539062 C 5.375 0.539062 5.511719 0.6875 5.511719 0.867188 Z M 5.511719 0.867188 "/>
<path fill-rule="nonzero" fill="rgb(100%, 100%, 0%)" fill-opacity="1" d="M 5.511719 0.867188 C 5.511719 1.046875 5.375 1.191406 5.203125 1.191406 C 5.035156 1.191406 4.894531 1.046875 4.894531 0.867188 C 4.894531 0.6875 5.035156 0.539062 5.203125 0.539062 C 5.375 0.539062 5.511719 0.6875 5.511719 0.867188 Z M 5.511719 0.867188 "/>
<path fill-rule="nonzero" fill="rgb(100%, 100%, 0%)" fill-opacity="1" d="M 5.761719 1.195312 C 5.761719 1.375 5.621094 1.523438 5.453125 1.523438 C 5.28125 1.523438 5.144531 1.375 5.144531 1.195312 C 5.144531 1.015625 5.28125 0.867188 5.453125 0.867188 C 5.621094 0.867188 5.761719 1.015625 5.761719 1.195312 Z M 5.761719 1.195312 "/>
<path fill-rule="nonzero" fill="rgb(100%, 100%, 0%)" fill-opacity="1" d="M 4.855469 1.359375 C 4.855469 1.539062 4.714844 1.6875 4.546875 1.6875 C 4.375 1.6875 4.238281 1.539062 4.238281 1.359375 C 4.238281 1.179688 4.375 1.035156 4.546875 1.035156 C 4.714844 1.035156 4.855469 1.179688 4.855469 1.359375 Z M 4.855469 1.359375 "/>
<path fill-rule="nonzero" fill="rgb(100%, 100%, 0%)" fill-opacity="1" d="M 5.183594 1.691406 C 5.183594 1.871094 5.046875 2.015625 4.875 2.015625 C 4.703125 2.015625 4.566406 1.871094 4.566406 1.691406 C 4.566406 1.507812 4.703125 1.363281 4.875 1.363281 C 5.046875 1.363281 5.183594 1.507812 5.183594 1.691406 Z M 5.183594 1.691406 "/>
<path fill-rule="nonzero" fill="rgb(100%, 100%, 0%)" fill-opacity="1" d="M 4.195312 2.019531 C 4.195312 2.199219 4.058594 2.347656 3.886719 2.347656 C 3.714844 2.347656 3.578125 2.199219 3.578125 2.019531 C 3.578125 1.839844 3.714844 1.691406 3.886719 1.691406 C 4.058594 1.691406 4.195312 1.839844 4.195312 2.019531 Z M 4.195312 2.019531 "/>
<path fill-rule="nonzero" fill="rgb(100%, 100%, 0%)" fill-opacity="1" d="M 4.6875 2.265625 C 4.6875 2.445312 4.550781 2.59375 4.378906 2.59375 C 4.210938 2.59375 4.070312 2.445312 4.070312 2.265625 C 4.070312 2.085938 4.210938 1.9375 4.378906 1.9375 C 4.550781 1.9375 4.6875 2.085938 4.6875 2.265625 Z M 4.6875 2.265625 "/>
<path fill-rule="nonzero" fill="rgb(100%, 100%, 0%)" fill-opacity="1" d="M 3.867188 2.679688 C 3.867188 2.859375 3.726562 3.003906 3.558594 3.003906 C 3.386719 3.003906 3.25 2.859375 3.25 2.679688 C 3.25 2.496094 3.386719 2.351562 3.558594 2.351562 C 3.726562 2.351562 3.867188 2.496094 3.867188 2.679688 Z M 3.867188 2.679688 "/>
<path fill-rule="nonzero" fill="rgb(100%, 100%, 0%)" fill-opacity="1" d="M 4.359375 2.84375 C 4.359375 3.023438 4.222656 3.167969 4.050781 3.167969 C 3.882812 3.167969 3.742188 3.023438 3.742188 2.84375 C 3.742188 2.660156 3.882812 2.515625 4.050781 2.515625 C 4.222656 2.515625 4.359375 2.660156 4.359375 2.84375 Z M 4.359375 2.84375 "/>
<path fill-rule="nonzero" fill="rgb(100%, 100%, 0%)" fill-opacity="1" d="M 3.703125 3.582031 C 3.703125 3.765625 3.5625 3.910156 3.394531 3.910156 C 3.222656 3.910156 3.082031 3.765625 3.082031 3.582031 C 3.082031 3.402344 3.222656 3.257812 3.394531 3.257812 C 3.5625 3.257812 3.703125 3.402344 3.703125 3.582031 Z M 3.703125 3.582031 "/>
<path fill-rule="nonzero" fill="rgb(100%, 100%, 0%)" fill-opacity="1" d="M 3.703125 4.40625 C 3.703125 4.585938 3.5625 4.734375 3.394531 4.734375 C 3.222656 4.734375 3.082031 4.585938 3.082031 4.40625 C 3.082031 4.226562 3.222656 4.082031 3.394531 4.082031 C 3.5625 4.082031 3.703125 4.226562 3.703125 4.40625 Z M 3.703125 4.40625 "/>
<path fill-rule="nonzero" fill="rgb(100%, 100%, 0%)" fill-opacity="1" d="M 3.703125 5.148438 C 3.703125 5.328125 3.5625 5.476562 3.394531 5.476562 C 3.222656 5.476562 3.082031 5.328125 3.082031 5.148438 C 3.082031 4.96875 3.222656 4.820312 3.394531 4.820312 C 3.5625 4.820312 3.703125 4.96875 3.703125 5.148438 Z M 3.703125 5.148438 "/>
<path fill-rule="nonzero" fill="rgb(100%, 100%, 0%)" fill-opacity="1" d="M 3.703125 5.808594 C 3.703125 5.988281 3.5625 6.132812 3.394531 6.132812 C 3.222656 6.132812 3.082031 5.988281 3.082031 5.808594 C 3.082031 5.625 3.222656 5.480469 3.394531 5.480469 C 3.5625 5.480469 3.703125 5.625 3.703125 5.808594 Z M 3.703125 5.808594 "/>
<path fill-rule="nonzero" fill="rgb(100%, 100%, 0%)" fill-opacity="1" d="M 3.703125 6.546875 C 3.703125 6.730469 3.5625 6.875 3.394531 6.875 C 3.222656 6.875 3.082031 6.730469 3.082031 6.546875 C 3.082031 6.367188 3.222656 6.222656 3.394531 6.222656 C 3.5625 6.222656 3.703125 6.367188 3.703125 6.546875 Z M 3.703125 6.546875 "/>
<path fill-rule="nonzero" fill="rgb(100%, 100%, 0%)" fill-opacity="1" d="M 3.703125 7.207031 C 3.703125 7.386719 3.5625 7.535156 3.394531 7.535156 C 3.222656 7.535156 3.082031 7.386719 3.082031 7.207031 C 3.082031 7.027344 3.222656 6.878906 3.394531 6.878906 C 3.5625 6.878906 3.703125 7.027344 3.703125 7.207031 Z M 3.703125 7.207031 "/>
<path fill-rule="nonzero" fill="rgb(100%, 100%, 0%)" fill-opacity="1" d="M 3.703125 7.867188 C 3.703125 8.046875 3.5625 8.191406 3.394531 8.191406 C 3.222656 8.191406 3.082031 8.046875 3.082031 7.867188 C 3.082031 7.683594 3.222656 7.539062 3.394531 7.539062 C 3.5625 7.539062 3.703125 7.683594 3.703125 7.867188 Z M 3.703125 7.867188 "/>
<path fill-rule="nonzero" fill="rgb(100%, 100%, 0%)" fill-opacity="1" d="M 3.703125 8.605469 C 3.703125 8.789062 3.5625 8.933594 3.394531 8.933594 C 3.222656 8.933594 3.082031 8.789062 3.082031 8.605469 C 3.082031 8.425781 3.222656 8.28125 3.394531 8.28125 C 3.5625 8.28125 3.703125 8.425781 3.703125 8.605469 Z M 3.703125 8.605469 "/>
<path fill-rule="nonzero" fill="rgb(100%, 100%, 0%)" fill-opacity="1" d="M 3.703125 9.183594 C 3.703125 9.363281 3.5625 9.511719 3.394531 9.511719 C 3.222656 9.511719 3.082031 9.363281 3.082031 9.183594 C 3.082031 9.003906 3.222656 8.855469 3.394531 8.855469 C 3.5625 8.855469 3.703125 9.003906 3.703125 9.183594 Z M 3.703125 9.183594 "/>
<path fill-rule="nonzero" fill="rgb(100%, 100%, 0%)" fill-opacity="1" d="M 3.703125 10.007812 C 3.703125 10.1875 3.5625 10.332031 3.394531 10.332031 C 3.222656 10.332031 3.082031 10.1875 3.082031 10.007812 C 3.082031 9.828125 3.222656 9.679688 3.394531 9.679688 C 3.5625 9.679688 3.703125 9.828125 3.703125 10.007812 Z M 3.703125 10.007812 "/>
<path fill-rule="nonzero" fill="rgb(100%, 100%, 0%)" fill-opacity="1" d="M 3.867188 10.914062 C 3.867188 11.09375 3.726562 11.238281 3.558594 11.238281 C 3.386719 11.238281 3.25 11.09375 3.25 10.914062 C 3.25 10.730469 3.386719 10.585938 3.558594 10.585938 C 3.726562 10.585938 3.867188 10.730469 3.867188 10.914062 Z M 3.867188 10.914062 "/>
<path fill-rule="nonzero" fill="rgb(100%, 100%, 0%)" fill-opacity="1" d="M 4.359375 10.832031 C 4.359375 11.011719 4.222656 11.15625 4.050781 11.15625 C 3.882812 11.15625 3.742188 11.011719 3.742188 10.832031 C 3.742188 10.648438 3.882812 10.503906 4.050781 10.503906 C 4.222656 10.503906 4.359375 10.648438 4.359375 10.832031 Z M 4.359375 10.832031 "/>
<path fill-rule="nonzero" fill="rgb(100%, 100%, 0%)" fill-opacity="1" d="M 4.195312 10.007812 C 4.195312 10.1875 4.058594 10.332031 3.886719 10.332031 C 3.714844 10.332031 3.578125 10.1875 3.578125 10.007812 C 3.578125 9.828125 3.714844 9.679688 3.886719 9.679688 C 4.058594 9.679688 4.195312 9.828125 4.195312 10.007812 Z M 4.195312 10.007812 "/>
<path fill-rule="nonzero" fill="rgb(100%, 100%, 0%)" fill-opacity="1" d="M 4.195312 9.183594 C 4.195312 9.363281 4.058594 9.511719 3.886719 9.511719 C 3.714844 9.511719 3.578125 9.363281 3.578125 9.183594 C 3.578125 9.003906 3.714844 8.855469 3.886719 8.855469 C 4.058594 8.855469 4.195312 9.003906 4.195312 9.183594 Z M 4.195312 9.183594 "/>
<path fill-rule="nonzero" fill="rgb(100%, 100%, 0%)" fill-opacity="1" d="M 4.195312 8.605469 C 4.195312 8.789062 4.058594 8.933594 3.886719 8.933594 C 3.714844 8.933594 3.578125 8.789062 3.578125 8.605469 C 3.578125 8.425781 3.714844 8.28125 3.886719 8.28125 C 4.058594 8.28125 4.195312 8.425781 4.195312 8.605469 Z M 4.195312 8.605469 "/>
<path fill-rule="nonzero" fill="rgb(100%, 100%, 0%)" fill-opacity="1" d="M 4.195312 7.867188 C 4.195312 8.046875 4.058594 8.191406 3.886719 8.191406 C 3.714844 8.191406 3.578125 8.046875 3.578125 7.867188 C 3.578125 7.683594 3.714844 7.539062 3.886719 7.539062 C 4.058594 7.539062 4.195312 7.683594 4.195312 7.867188 Z M 4.195312 7.867188 "/>
<path fill-rule="nonzero" fill="rgb(100%, 100%, 0%)" fill-opacity="1" d="M 4.195312 7.207031 C 4.195312 7.386719 4.058594 7.535156 3.886719 7.535156 C 3.714844 7.535156 3.578125 7.386719 3.578125 7.207031 C 3.578125 7.027344 3.714844 6.878906 3.886719 6.878906 C 4.058594 6.878906 4.195312 7.027344 4.195312 7.207031 Z M 4.195312 7.207031 "/>
<path fill-rule="nonzero" fill="rgb(100%, 100%, 0%)" fill-opacity="1" d="M 4.195312 6.546875 C 4.195312 6.730469 4.058594 6.875 3.886719 6.875 C 3.714844 6.875 3.578125 6.730469 3.578125 6.546875 C 3.578125 6.367188 3.714844 6.222656 3.886719 6.222656 C 4.058594 6.222656 4.195312 6.367188 4.195312 6.546875 Z M 4.195312 6.546875 "/>
<path fill-rule="nonzero" fill="rgb(100%, 100%, 0%)" fill-opacity="1" d="M 4.195312 5.808594 C 4.195312 5.988281 4.058594 6.132812 3.886719 6.132812 C 3.714844 6.132812 3.578125 5.988281 3.578125 5.808594 C 3.578125 5.625 3.714844 5.480469 3.886719 5.480469 C 4.058594 5.480469 4.195312 5.625 4.195312 5.808594 Z M 4.195312 5.808594 "/>
<path fill-rule="nonzero" fill="rgb(100%, 100%, 0%)" fill-opacity="1" d="M 4.195312 5.148438 C 4.195312 5.328125 4.058594 5.476562 3.886719 5.476562 C 3.714844 5.476562 3.578125 5.328125 3.578125 5.148438 C 3.578125 4.96875 3.714844 4.820312 3.886719 4.820312 C 4.058594 4.820312 4.195312 4.96875 4.195312 5.148438 Z M 4.195312 5.148438 "/>
<path fill-rule="nonzero" fill="rgb(100%, 100%, 0%)" fill-opacity="1" d="M 4.195312 4.40625 C 4.195312 4.585938 4.058594 4.734375 3.886719 4.734375 C 3.714844 4.734375 3.578125 4.585938 3.578125 4.40625 C 3.578125 4.226562 3.714844 4.082031 3.886719 4.082031 C 4.058594 4.082031 4.195312 4.226562 4.195312 4.40625 Z M 4.195312 4.40625 "/>
<path fill-rule="nonzero" fill="rgb(100%, 100%, 0%)" fill-opacity="1" d="M 4.195312 3.582031 C 4.195312 3.765625 4.058594 3.910156 3.886719 3.910156 C 3.714844 3.910156 3.578125 3.765625 3.578125 3.582031 C 3.578125 3.402344 3.714844 3.257812 3.886719 3.257812 C 4.058594 3.257812 4.195312 3.402344 4.195312 3.582031 Z M 4.195312 3.582031 "/>
<path fill-rule="nonzero" fill="rgb(100%, 100%, 0%)" fill-opacity="1" d="M 4.800781 6.257812 C 4.800781 6.4375 4.664062 6.582031 4.492188 6.582031 C 4.320312 6.582031 4.183594 6.4375 4.183594 6.257812 C 4.183594 6.074219 4.320312 5.929688 4.492188 5.929688 C 4.664062 5.929688 4.800781 6.074219 4.800781 6.257812 Z M 4.800781 6.257812 "/>
<path fill-rule="nonzero" fill="rgb(100%, 100%, 0%)" fill-opacity="1" d="M 4.964844 6.75 C 4.964844 6.929688 4.828125 7.078125 4.65625 7.078125 C 4.488281 7.078125 4.347656 6.929688 4.347656 6.75 C 4.347656 6.570312 4.488281 6.421875 4.65625 6.421875 C 4.828125 6.421875 4.964844 6.570312 4.964844 6.75 Z M 4.964844 6.75 "/>
<path fill-rule="nonzero" fill="rgb(100%, 100%, 0%)" fill-opacity="1" d="M 5.378906 5.925781 C 5.378906 6.105469 5.238281 6.253906 5.070312 6.253906 C 4.898438 6.253906 4.761719 6.105469 4.761719 5.925781 C 4.761719 5.746094 4.898438 5.601562 5.070312 5.601562 C 5.238281 5.601562 5.378906 5.746094 5.378906 5.925781 Z M 5.378906 5.925781 "/>
<path fill-rule="nonzero" fill="rgb(100%, 100%, 0%)" fill-opacity="1" d="M 5.542969 6.421875 C 5.542969 6.601562 5.402344 6.746094 5.234375 6.746094 C 5.0625 6.746094 4.925781 6.601562 4.925781 6.421875 C 4.925781 6.242188 5.0625 6.09375 5.234375 6.09375 C 5.402344 6.09375 5.542969 6.242188 5.542969 6.421875 Z M 5.542969 6.421875 "/>
<path fill-rule="nonzero" fill="rgb(100%, 100%, 0%)" fill-opacity="1" d="M 6.117188 6.089844 C 6.117188 6.273438 5.980469 6.417969 5.808594 6.417969 C 5.640625 6.417969 5.5 6.273438 5.5 6.089844 C 5.5 5.910156 5.640625 5.765625 5.808594 5.765625 C 5.980469 5.765625 6.117188 5.910156 6.117188 6.089844 Z M 6.117188 6.089844 "/>
<path fill-rule="nonzero" fill="rgb(100%, 100%, 0%)" fill-opacity="1" d="M 5.953125 5.679688 C 5.953125 5.859375 5.816406 6.007812 5.644531 6.007812 C 5.476562 6.007812 5.335938 5.859375 5.335938 5.679688 C 5.335938 5.5 5.476562 5.351562 5.644531 5.351562 C 5.816406 5.351562 5.953125 5.5 5.953125 5.679688 Z M 5.953125 5.679688 "/>
<path fill-rule="nonzero" fill="rgb(100%, 100%, 0%)" fill-opacity="1" d="M 6.859375 5.433594 C 6.859375 5.613281 6.722656 5.757812 6.550781 5.757812 C 6.382812 5.757812 6.242188 5.613281 6.242188 5.433594 C 6.242188 5.253906 6.382812 5.105469 6.550781 5.105469 C 6.722656 5.105469 6.859375 5.253906 6.859375 5.433594 Z M 6.859375 5.433594 "/>
<path fill-rule="nonzero" fill="rgb(100%, 100%, 0%)" fill-opacity="1" d="M 6.859375 5.925781 C 6.859375 6.105469 6.722656 6.253906 6.550781 6.253906 C 6.382812 6.253906 6.242188 6.105469 6.242188 5.925781 C 6.242188 5.746094 6.382812 5.601562 6.550781 5.601562 C 6.722656 5.601562 6.859375 5.746094 6.859375 5.925781 Z M 6.859375 5.925781 "/>
<path fill-rule="nonzero" fill="rgb(100%, 100%, 0%)" fill-opacity="1" d="M 7.601562 5.84375 C 7.601562 6.023438 7.464844 6.171875 7.292969 6.171875 C 7.121094 6.171875 6.984375 6.023438 6.984375 5.84375 C 6.984375 5.664062 7.121094 5.515625 7.292969 5.515625 C 7.464844 5.515625 7.601562 5.664062 7.601562 5.84375 Z M 7.601562 5.84375 "/>
<path fill-rule="nonzero" fill="rgb(100%, 100%, 0%)" fill-opacity="1" d="M 7.683594 5.351562 C 7.683594 5.53125 7.546875 5.675781 7.375 5.675781 C 7.203125 5.675781 7.066406 5.53125 7.066406 5.351562 C 7.066406 5.167969 7.203125 5.023438 7.375 5.023438 C 7.546875 5.023438 7.683594 5.167969 7.683594 5.351562 Z M 7.683594 5.351562 "/>
<path fill-rule="nonzero" fill="rgb(100%, 100%, 0%)" fill-opacity="1" d="M 8.34375 6.007812 C 8.34375 6.191406 8.203125 6.335938 8.035156 6.335938 C 7.863281 6.335938 7.726562 6.191406 7.726562 6.007812 C 7.726562 5.828125 7.863281 5.683594 8.035156 5.683594 C 8.203125 5.683594 8.34375 5.828125 8.34375 6.007812 Z M 8.34375 6.007812 "/>
<path fill-rule="nonzero" fill="rgb(100%, 100%, 0%)" fill-opacity="1" d="M 8.507812 5.515625 C 8.507812 5.695312 8.367188 5.84375 8.199219 5.84375 C 8.027344 5.84375 7.890625 5.695312 7.890625 5.515625 C 7.890625 5.335938 8.027344 5.1875 8.199219 5.1875 C 8.367188 5.1875 8.507812 5.335938 8.507812 5.515625 Z M 8.507812 5.515625 "/>
<path fill-rule="nonzero" fill="rgb(100%, 100%, 0%)" fill-opacity="1" d="M 9.25 5.84375 C 9.25 6.023438 9.109375 6.171875 8.9375 6.171875 C 8.769531 6.171875 8.628906 6.023438 8.628906 5.84375 C 8.628906 5.664062 8.769531 5.515625 8.9375 5.515625 C 9.109375 5.515625 9.25 5.664062 9.25 5.84375 Z M 9.25 5.84375 "/>
<path fill-rule="nonzero" fill="rgb(100%, 100%, 0%)" fill-opacity="1" d="M 8.917969 6.257812 C 8.917969 6.4375 8.78125 6.582031 8.609375 6.582031 C 8.441406 6.582031 8.300781 6.4375 8.300781 6.257812 C 8.300781 6.074219 8.441406 5.929688 8.609375 5.929688 C 8.78125 5.929688 8.917969 6.074219 8.917969 6.257812 Z M 8.917969 6.257812 "/>
<path fill-rule="nonzero" fill="rgb(100%, 100%, 0%)" fill-opacity="1" d="M 9.988281 6.339844 C 9.988281 6.519531 9.851562 6.664062 9.679688 6.664062 C 9.511719 6.664062 9.371094 6.519531 9.371094 6.339844 C 9.371094 6.15625 9.511719 6.011719 9.679688 6.011719 C 9.851562 6.011719 9.988281 6.15625 9.988281 6.339844 Z M 9.988281 6.339844 "/>
<path fill-rule="nonzero" fill="rgb(100%, 100%, 0%)" fill-opacity="1" d="M 9.660156 6.667969 C 9.660156 6.847656 9.523438 6.996094 9.351562 6.996094 C 9.179688 6.996094 9.042969 6.847656 9.042969 6.667969 C 9.042969 6.488281 9.179688 6.339844 9.351562 6.339844 C 9.523438 6.339844 9.660156 6.488281 9.660156 6.667969 Z M 9.660156 6.667969 "/>
<path fill-rule="nonzero" fill="rgb(100%, 100%, 0%)" fill-opacity="1" d="M 10.070312 7.160156 C 10.070312 7.34375 9.933594 7.488281 9.761719 7.488281 C 9.59375 7.488281 9.453125 7.34375 9.453125 7.160156 C 9.453125 6.980469 9.59375 6.835938 9.761719 6.835938 C 9.933594 6.835938 10.070312 6.980469 10.070312 7.160156 Z M 10.070312 7.160156 "/>
<path fill-rule="nonzero" fill="rgb(100%, 100%, 0%)" fill-opacity="1" d="M 10.566406 6.914062 C 10.566406 7.09375 10.425781 7.242188 10.257812 7.242188 C 10.085938 7.242188 9.949219 7.09375 9.949219 6.914062 C 9.949219 6.734375 10.085938 6.589844 10.257812 6.589844 C 10.425781 6.589844 10.566406 6.734375 10.566406 6.914062 Z M 10.566406 6.914062 "/>
<path fill-rule="nonzero" fill="rgb(100%, 100%, 0%)" fill-opacity="1" d="M 10.976562 7.820312 C 10.976562 8 10.839844 8.148438 10.667969 8.148438 C 10.5 8.148438 10.359375 8 10.359375 7.820312 C 10.359375 7.640625 10.5 7.492188 10.667969 7.492188 C 10.839844 7.492188 10.976562 7.640625 10.976562 7.820312 Z M 10.976562 7.820312 "/>
<path fill-rule="nonzero" fill="rgb(100%, 100%, 0%)" fill-opacity="1" d="M 10.402344 7.984375 C 10.402344 8.167969 10.261719 8.3125 10.09375 8.3125 C 9.921875 8.3125 9.785156 8.167969 9.785156 7.984375 C 9.785156 7.804688 9.921875 7.660156 10.09375 7.660156 C 10.261719 7.660156 10.402344 7.804688 10.402344 7.984375 Z M 10.402344 7.984375 "/>
<path fill-rule="nonzero" fill="rgb(100%, 100%, 0%)" fill-opacity="1" d="M 10.566406 8.644531 C 10.566406 8.824219 10.425781 8.972656 10.257812 8.972656 C 10.085938 8.972656 9.949219 8.824219 9.949219 8.644531 C 9.949219 8.464844 10.085938 8.316406 10.257812 8.316406 C 10.425781 8.316406 10.566406 8.464844 10.566406 8.644531 Z M 10.566406 8.644531 "/>
<path fill-rule="nonzero" fill="rgb(100%, 100%, 0%)" fill-opacity="1" d="M 11.058594 8.644531 C 11.058594 8.824219 10.921875 8.972656 10.75 8.972656 C 10.582031 8.972656 10.441406 8.824219 10.441406 8.644531 C 10.441406 8.464844 10.582031 8.316406 10.75 8.316406 C 10.921875 8.316406 11.058594 8.464844 11.058594 8.644531 Z M 11.058594 8.644531 "/>
<path fill-rule="nonzero" fill="rgb(100%, 100%, 0%)" fill-opacity="1" d="M 11.058594 9.304688 C 11.058594 9.484375 10.921875 9.628906 10.75 9.628906 C 10.582031 9.628906 10.441406 9.484375 10.441406 9.304688 C 10.441406 9.121094 10.582031 8.976562 10.75 8.976562 C 10.921875 8.976562 11.058594 9.121094 11.058594 9.304688 Z M 11.058594 9.304688 "/>
<path fill-rule="nonzero" fill="rgb(100%, 100%, 0%)" fill-opacity="1" d="M 10.566406 9.304688 C 10.566406 9.484375 10.425781 9.628906 10.257812 9.628906 C 10.085938 9.628906 9.949219 9.484375 9.949219 9.304688 C 9.949219 9.121094 10.085938 8.976562 10.257812 8.976562 C 10.425781 8.976562 10.566406 9.121094 10.566406 9.304688 Z M 10.566406 9.304688 "/>
<path fill-rule="nonzero" fill="rgb(100%, 100%, 0%)" fill-opacity="1" d="M 10.566406 10.042969 C 10.566406 10.226562 10.425781 10.371094 10.257812 10.371094 C 10.085938 10.371094 9.949219 10.226562 9.949219 10.042969 C 9.949219 9.863281 10.085938 9.71875 10.257812 9.71875 C 10.425781 9.71875 10.566406 9.863281 10.566406 10.042969 Z M 10.566406 10.042969 "/>
<path fill-rule="nonzero" fill="rgb(100%, 100%, 0%)" fill-opacity="1" d="M 11.058594 10.042969 C 11.058594 10.226562 10.921875 10.371094 10.75 10.371094 C 10.582031 10.371094 10.441406 10.226562 10.441406 10.042969 C 10.441406 9.863281 10.582031 9.71875 10.75 9.71875 C 10.921875 9.71875 11.058594 9.863281 11.058594 10.042969 Z M 11.058594 10.042969 "/>
<path fill-rule="nonzero" fill="rgb(100%, 100%, 0%)" fill-opacity="1" d="M 10.894531 11.03125 C 10.894531 11.214844 10.757812 11.359375 10.585938 11.359375 C 10.414062 11.359375 10.277344 11.214844 10.277344 11.03125 C 10.277344 10.851562 10.414062 10.707031 10.585938 10.707031 C 10.757812 10.707031 10.894531 10.851562 10.894531 11.03125 Z M 10.894531 11.03125 "/>
<path fill-rule="nonzero" fill="rgb(100%, 100%, 0%)" fill-opacity="1" d="M 10.402344 10.867188 C 10.402344 11.046875 10.261719 11.195312 10.09375 11.195312 C 9.921875 11.195312 9.785156 11.046875 9.785156 10.867188 C 9.785156 10.6875 9.921875 10.539062 10.09375 10.539062 C 10.261719 10.539062 10.402344 10.6875 10.402344 10.867188 Z M 10.402344 10.867188 "/>
<path fill-rule="nonzero" fill="rgb(100%, 100%, 0%)" fill-opacity="1" d="M 10.484375 11.773438 C 10.484375 11.953125 10.34375 12.101562 10.175781 12.101562 C 10.003906 12.101562 9.867188 11.953125 9.867188 11.773438 C 9.867188 11.59375 10.003906 11.445312 10.175781 11.445312 C 10.34375 11.445312 10.484375 11.59375 10.484375 11.773438 Z M 10.484375 11.773438 "/>
<path fill-rule="nonzero" fill="rgb(100%, 100%, 0%)" fill-opacity="1" d="M 10.070312 11.527344 C 10.070312 11.707031 9.933594 11.851562 9.761719 11.851562 C 9.59375 11.851562 9.453125 11.707031 9.453125 11.527344 C 9.453125 11.347656 9.59375 11.199219 9.761719 11.199219 C 9.933594 11.199219 10.070312 11.347656 10.070312 11.527344 Z M 10.070312 11.527344 "/>
<path fill-rule="nonzero" fill="rgb(100%, 100%, 0%)" fill-opacity="1" d="M 9.90625 12.515625 C 9.90625 12.695312 9.769531 12.839844 9.597656 12.839844 C 9.429688 12.839844 9.289062 12.695312 9.289062 12.515625 C 9.289062 12.335938 9.429688 12.1875 9.597656 12.1875 C 9.769531 12.1875 9.90625 12.335938 9.90625 12.515625 Z M 9.90625 12.515625 "/>
<path fill-rule="nonzero" fill="rgb(100%, 100%, 0%)" fill-opacity="1" d="M 9.578125 12.183594 C 9.578125 12.367188 9.4375 12.511719 9.269531 12.511719 C 9.097656 12.511719 8.960938 12.367188 8.960938 12.183594 C 8.960938 12.003906 9.097656 11.859375 9.269531 11.859375 C 9.4375 11.859375 9.578125 12.003906 9.578125 12.183594 Z M 9.578125 12.183594 "/>
<path fill-rule="nonzero" fill="rgb(100%, 100%, 0%)" fill-opacity="1" d="M 9 12.679688 C 9 12.859375 8.863281 13.007812 8.691406 13.007812 C 8.523438 13.007812 8.382812 12.859375 8.382812 12.679688 C 8.382812 12.5 8.523438 12.351562 8.691406 12.351562 C 8.863281 12.351562 9 12.5 9 12.679688 Z M 9 12.679688 "/>
<path fill-rule="nonzero" fill="rgb(100%, 100%, 0%)" fill-opacity="1" d="M 9.25 13.007812 C 9.25 13.1875 9.109375 13.335938 8.9375 13.335938 C 8.769531 13.335938 8.628906 13.1875 8.628906 13.007812 C 8.628906 12.828125 8.769531 12.683594 8.9375 12.683594 C 9.109375 12.683594 9.25 12.828125 9.25 13.007812 Z M 9.25 13.007812 "/>
<path fill-rule="nonzero" fill="rgb(100%, 100%, 0%)" fill-opacity="1" d="M 8.425781 12.84375 C 8.425781 13.023438 8.285156 13.171875 8.117188 13.171875 C 7.945312 13.171875 7.808594 13.023438 7.808594 12.84375 C 7.808594 12.664062 7.945312 12.515625 8.117188 12.515625 C 8.285156 12.515625 8.425781 12.664062 8.425781 12.84375 Z M 8.425781 12.84375 "/>
<path fill-rule="nonzero" fill="rgb(100%, 100%, 0%)" fill-opacity="1" d="M 8.425781 13.339844 C 8.425781 13.519531 8.285156 13.664062 8.117188 13.664062 C 7.945312 13.664062 7.808594 13.519531 7.808594 13.339844 C 7.808594 13.15625 7.945312 13.011719 8.117188 13.011719 C 8.285156 13.011719 8.425781 13.15625 8.425781 13.339844 Z M 8.425781 13.339844 "/>
<path fill-rule="nonzero" fill="rgb(100%, 100%, 0%)" fill-opacity="1" d="M 7.683594 13.007812 C 7.683594 13.1875 7.546875 13.335938 7.375 13.335938 C 7.203125 13.335938 7.066406 13.1875 7.066406 13.007812 C 7.066406 12.828125 7.203125 12.683594 7.375 12.683594 C 7.546875 12.683594 7.683594 12.828125 7.683594 13.007812 Z M 7.683594 13.007812 "/>
<path fill-rule="nonzero" fill="rgb(100%, 100%, 0%)" fill-opacity="1" d="M 7.683594 13.503906 C 7.683594 13.683594 7.546875 13.828125 7.375 13.828125 C 7.203125 13.828125 7.066406 13.683594 7.066406 13.503906 C 7.066406 13.320312 7.203125 13.175781 7.375 13.175781 C 7.546875 13.175781 7.683594 13.320312 7.683594 13.503906 Z M 7.683594 13.503906 "/>
<path fill-rule="nonzero" fill="rgb(100%, 100%, 0%)" fill-opacity="1" d="M 7.023438 13.007812 C 7.023438 13.1875 6.886719 13.335938 6.714844 13.335938 C 6.546875 13.335938 6.40625 13.1875 6.40625 13.007812 C 6.40625 12.828125 6.546875 12.683594 6.714844 12.683594 C 6.886719 12.683594 7.023438 12.828125 7.023438 13.007812 Z M 7.023438 13.007812 "/>
<path fill-rule="nonzero" fill="rgb(100%, 100%, 0%)" fill-opacity="1" d="M 7.023438 13.503906 C 7.023438 13.683594 6.886719 13.828125 6.714844 13.828125 C 6.546875 13.828125 6.40625 13.683594 6.40625 13.503906 C 6.40625 13.320312 6.546875 13.175781 6.714844 13.175781 C 6.886719 13.175781 7.023438 13.320312 7.023438 13.503906 Z M 7.023438 13.503906 "/>
<path fill-rule="nonzero" fill="rgb(100%, 100%, 0%)" fill-opacity="1" d="M 6.117188 13.253906 C 6.117188 13.4375 5.980469 13.582031 5.808594 13.582031 C 5.640625 13.582031 5.5 13.4375 5.5 13.253906 C 5.5 13.074219 5.640625 12.929688 5.808594 12.929688 C 5.980469 12.929688 6.117188 13.074219 6.117188 13.253906 Z M 6.117188 13.253906 "/>
<path fill-rule="nonzero" fill="rgb(100%, 100%, 0%)" fill-opacity="1" d="M 6.285156 12.84375 C 6.285156 13.023438 6.144531 13.171875 5.976562 13.171875 C 5.804688 13.171875 5.667969 13.023438 5.667969 12.84375 C 5.667969 12.664062 5.804688 12.515625 5.976562 12.515625 C 6.144531 12.515625 6.285156 12.664062 6.285156 12.84375 Z M 6.285156 12.84375 "/>
<path fill-rule="nonzero" fill="rgb(100%, 100%, 0%)" fill-opacity="1" d="M 5.625 12.515625 C 5.625 12.695312 5.488281 12.839844 5.316406 12.839844 C 5.144531 12.839844 5.007812 12.695312 5.007812 12.515625 C 5.007812 12.335938 5.144531 12.1875 5.316406 12.1875 C 5.488281 12.1875 5.625 12.335938 5.625 12.515625 Z M 5.625 12.515625 "/>
<path fill-rule="nonzero" fill="rgb(100%, 100%, 0%)" fill-opacity="1" d="M 5.296875 12.925781 C 5.296875 13.105469 5.15625 13.253906 4.988281 13.253906 C 4.816406 13.253906 4.679688 13.105469 4.679688 12.925781 C 4.679688 12.746094 4.816406 12.597656 4.988281 12.597656 C 5.15625 12.597656 5.296875 12.746094 5.296875 12.925781 Z M 5.296875 12.925781 "/>
<path fill-rule="nonzero" fill="rgb(100%, 100%, 0%)" fill-opacity="1" d="M 5.046875 12.019531 C 5.046875 12.199219 4.910156 12.347656 4.738281 12.347656 C 4.570312 12.347656 4.429688 12.199219 4.429688 12.019531 C 4.429688 11.839844 4.570312 11.695312 4.738281 11.695312 C 4.910156 11.695312 5.046875 11.839844 5.046875 12.019531 Z M 5.046875 12.019531 "/>
<path fill-rule="nonzero" fill="rgb(100%, 100%, 0%)" fill-opacity="1" d="M 4.636719 12.351562 C 4.636719 12.53125 4.5 12.675781 4.328125 12.675781 C 4.15625 12.675781 4.019531 12.53125 4.019531 12.351562 C 4.019531 12.167969 4.15625 12.023438 4.328125 12.023438 C 4.5 12.023438 4.636719 12.167969 4.636719 12.351562 Z M 4.636719 12.351562 "/>
<path fill-rule="nonzero" fill="rgb(100%, 100%, 0%)" fill-opacity="1" d="M 4.636719 11.445312 C 4.636719 11.625 4.5 11.769531 4.328125 11.769531 C 4.15625 11.769531 4.019531 11.625 4.019531 11.445312 C 4.019531 11.261719 4.15625 11.117188 4.328125 11.117188 C 4.5 11.117188 4.636719 11.261719 4.636719 11.445312 Z M 4.636719 11.445312 "/>
<path fill-rule="nonzero" fill="rgb(100%, 100%, 0%)" fill-opacity="1" d="M 4.226562 11.609375 C 4.226562 11.789062 4.085938 11.9375 3.917969 11.9375 C 3.746094 11.9375 3.609375 11.789062 3.609375 11.609375 C 3.609375 11.429688 3.746094 11.28125 3.917969 11.28125 C 4.085938 11.28125 4.226562 11.429688 4.226562 11.609375 Z M 4.226562 11.609375 "/>
</svg>
