<?xml version="1.0" encoding="UTF-8"?>
<svg xmlns="http://www.w3.org/2000/svg" xmlns:xlink="http://www.w3.org/1999/xlink" width="14.30837" height="14" viewBox="0 0 14.30837 14">
<path fill-rule="nonzero" fill="rgb(0%, 0%, 0%)" fill-opacity="1" stroke-width="1.408782" stroke-linecap="butt" stroke-linejoin="miter" stroke="rgb(0%, 0%, 0%)" stroke-opacity="1" stroke-miterlimit="4" d="M 492.753508 1037.347092 L 10.058327 1037.347092 L 10.058327 565.090706 L 490.639322 565.090706 Z M 492.753508 1037.347092 " transform="matrix(0.0295622, 0, 0, 0.0295622, -0.277815, -16.685793)"/>
<path fill-rule="nonzero" fill="rgb(100%, 100%, 0%)" fill-opacity="1" d="M 3.714844 11.894531 C 3.714844 11.714844 3.851562 11.570312 4.023438 11.570312 C 4.191406 11.570312 4.328125 11.714844 4.328125 11.894531 C 4.328125 12.074219 4.191406 12.21875 4.023438 12.21875 C 3.851562 12.21875 3.714844 12.074219 3.714844 11.894531 Z M 3.714844 11.894531 "/>
<path fill-rule="nonzero" fill="rgb(100%, 100%, 0%)" fill-opacity="1" d="M 4.042969 11.648438 C 4.042969 11.46875 4.179688 11.324219 4.347656 11.324219 C 4.519531 11.324219 4.65625 11.46875 4.65625 11.648438 C 4.65625 11.828125 4.519531 11.972656 4.347656 11.972656 C 4.179688 11.972656 4.042969 11.828125 4.042969 11.648438 Z M 4.042969 11.648438 "/>
<path fill-rule="nonzero" fill="rgb(100%, 100%, 0%)" fill-opacity="1" d="M 4.695312 12.21875 C 4.695312 12.042969 4.832031 11.894531 5.003906 11.894531 C 5.171875 11.894531 5.308594 12.042969 5.308594 12.21875 C 5.308594 12.398438 5.171875 12.546875 5.003906 12.546875 C 4.832031 12.546875 4.695312 12.398438 4.695312 12.21875 Z M 4.695312 12.21875 "/>
<path fill-rule="nonzero" fill="rgb(100%, 100%, 0%)" fill-opacity="1" d="M 4.453125 12.546875 C 4.453125 12.367188 4.589844 12.222656 4.757812 12.222656 C 4.925781 12.222656 5.0625 12.367188 5.0625 12.546875 C 5.0625 12.726562 4.925781 12.871094 4.757812 12.871094 C 4.589844 12.871094 4.453125 12.726562 4.453125 12.546875 Z M 4.453125 12.546875 "/>
<path fill-rule="nonzero" fill="rgb(100%, 100%, 0%)" fill-opacity="1" d="M 5.351562 13.121094 C 5.351562 12.941406 5.488281 12.796875 5.65625 12.796875 C 5.828125 12.796875 5.964844 12.941406 5.964844 13.121094 C 5.964844 13.300781 5.828125 13.445312 5.65625 13.445312 C 5.488281 13.445312 5.351562 13.300781 5.351562 13.121094 Z M 5.351562 13.121094 "/>
<path fill-rule="nonzero" fill="rgb(100%, 100%, 0%)" fill-opacity="1" d="M 5.515625 12.710938 C 5.515625 12.53125 5.652344 12.386719 5.820312 12.386719 C 5.988281 12.386719 6.128906 12.53125 6.128906 12.710938 C 6.128906 12.890625 5.988281 13.035156 5.820312 13.035156 C 5.652344 13.035156 5.515625 12.890625 5.515625 12.710938 Z M 5.515625 12.710938 "/>
<path fill-rule="nonzero" fill="rgb(100%, 100%, 0%)" fill-opacity="1" d="M 6.25 12.957031 C 6.25 12.777344 6.386719 12.632812 6.554688 12.632812 C 6.726562 12.632812 6.863281 12.777344 6.863281 12.957031 C 6.863281 13.136719 6.726562 13.28125 6.554688 13.28125 C 6.386719 13.28125 6.25 13.136719 6.25 12.957031 Z M 6.25 12.957031 "/>
<path fill-rule="nonzero" fill="rgb(100%, 100%, 0%)" fill-opacity="1" d="M 6.167969 13.363281 C 6.167969 13.1875 6.304688 13.039062 6.472656 13.039062 C 6.644531 13.039062 6.78125 13.1875 6.78125 13.363281 C 6.78125 13.542969 6.644531 13.691406 6.472656 13.691406 C 6.304688 13.691406 6.167969 13.542969 6.167969 13.363281 Z M 6.167969 13.363281 "/>
<path fill-rule="nonzero" fill="rgb(100%, 100%, 0%)" fill-opacity="1" d="M 6.984375 13.445312 C 6.984375 13.265625 7.121094 13.121094 7.292969 13.121094 C 7.460938 13.121094 7.597656 13.265625 7.597656 13.445312 C 7.597656 13.625 7.460938 13.769531 7.292969 13.769531 C 7.121094 13.769531 6.984375 13.625 6.984375 13.445312 Z M 6.984375 13.445312 "/>
<path fill-rule="nonzero" fill="rgb(100%, 100%, 0%)" fill-opacity="1" d="M 6.984375 13.039062 C 6.984375 12.859375 7.121094 12.714844 7.292969 12.714844 C 7.460938 12.714844 7.597656 12.859375 7.597656 13.039062 C 7.597656 13.21875 7.460938 13.363281 7.292969 13.363281 C 7.121094 13.363281 6.984375 13.21875 6.984375 13.039062 Z M 6.984375 13.039062 "/>
<path fill-rule="nonzero" fill="rgb(100%, 100%, 0%)" fill-opacity="1" d="M 7.804688 12.957031 C 7.804688 12.777344 7.941406 12.632812 8.109375 12.632812 C 8.277344 12.632812 8.414062 12.777344 8.414062 12.957031 C 8.414062 13.136719 8.277344 13.28125 8.109375 13.28125 C 7.941406 13.28125 7.804688 13.136719 7.804688 12.957031 Z M 7.804688 12.957031 "/>
<path fill-rule="nonzero" fill="rgb(100%, 100%, 0%)" fill-opacity="1" d="M 7.886719 13.363281 C 7.886719 13.1875 8.023438 13.039062 8.191406 13.039062 C 8.359375 13.039062 8.496094 13.1875 8.496094 13.363281 C 8.496094 13.542969 8.359375 13.691406 8.191406 13.691406 C 8.023438 13.691406 7.886719 13.542969 7.886719 13.363281 Z M 7.886719 13.363281 "/>
<path fill-rule="nonzero" fill="rgb(100%, 100%, 0%)" fill-opacity="1" d="M 8.785156 13.039062 C 8.785156 12.859375 8.921875 12.714844 9.089844 12.714844 C 9.257812 12.714844 9.398438 12.859375 9.398438 13.039062 C 9.398438 13.21875 9.257812 13.363281 9.089844 13.363281 C 8.921875 13.363281 8.785156 13.21875 8.785156 13.039062 Z M 8.785156 13.039062 "/>
<path fill-rule="nonzero" fill="rgb(100%, 100%, 0%)" fill-opacity="1" d="M 8.785156 13.039062 C 8.785156 12.859375 8.921875 12.714844 9.089844 12.714844 C 9.257812 12.714844 9.398438 12.859375 9.398438 13.039062 C 9.398438 13.21875 9.257812 13.363281 9.089844 13.363281 C 8.921875 13.363281 8.785156 13.21875 8.785156 13.039062 Z M 8.785156 13.039062 "/>
<path fill-rule="nonzero" fill="rgb(100%, 100%, 0%)" fill-opacity="1" d="M 8.539062 12.710938 C 8.539062 12.53125 8.675781 12.386719 8.84375 12.386719 C 9.015625 12.386719 9.152344 12.53125 9.152344 12.710938 C 9.152344 12.890625 9.015625 13.035156 8.84375 13.035156 C 8.675781 13.035156 8.539062 12.890625 8.539062 12.710938 Z M 8.539062 12.710938 "/>
<path fill-rule="nonzero" fill="rgb(100%, 100%, 0%)" fill-opacity="1" d="M 9.4375 12.546875 C 9.4375 12.367188 9.574219 12.222656 9.746094 12.222656 C 9.914062 12.222656 10.050781 12.367188 10.050781 12.546875 C 10.050781 12.726562 9.914062 12.871094 9.746094 12.871094 C 9.574219 12.871094 9.4375 12.726562 9.4375 12.546875 Z M 9.4375 12.546875 "/>
<path fill-rule="nonzero" fill="rgb(100%, 100%, 0%)" fill-opacity="1" d="M 9.109375 12.21875 C 9.109375 12.042969 9.25 11.894531 9.417969 11.894531 C 9.585938 11.894531 9.722656 12.042969 9.722656 12.21875 C 9.722656 12.398438 9.585938 12.546875 9.417969 12.546875 C 9.25 12.546875 9.109375 12.398438 9.109375 12.21875 Z M 9.109375 12.21875 "/>
<path fill-rule="nonzero" fill="rgb(100%, 100%, 0%)" fill-opacity="1" d="M 10.09375 11.894531 C 10.09375 11.714844 10.230469 11.570312 10.398438 11.570312 C 10.566406 11.570312 10.703125 11.714844 10.703125 11.894531 C 10.703125 12.074219 10.566406 12.21875 10.398438 12.21875 C 10.230469 12.21875 10.09375 12.074219 10.09375 11.894531 Z M 10.09375 11.894531 "/>
<path fill-rule="nonzero" fill="rgb(100%, 100%, 0%)" fill-opacity="1" d="M 9.601562 11.648438 C 9.601562 11.46875 9.738281 11.324219 9.90625 11.324219 C 10.078125 11.324219 10.214844 11.46875 10.214844 11.648438 C 10.214844 11.828125 10.078125 11.972656 9.90625 11.972656 C 9.738281 11.972656 9.601562 11.828125 9.601562 11.648438 Z M 9.601562 11.648438 "/>
<path fill-rule="nonzero" fill="rgb(100%, 100%, 0%)" fill-opacity="1" d="M 10.417969 11.238281 C 10.417969 11.058594 10.554688 10.914062 10.726562 10.914062 C 10.894531 10.914062 11.03125 11.058594 11.03125 11.238281 C 11.03125 11.417969 10.894531 11.5625 10.726562 11.5625 C 10.554688 11.5625 10.417969 11.417969 10.417969 11.238281 Z M 10.417969 11.238281 "/>
<path fill-rule="nonzero" fill="rgb(100%, 100%, 0%)" fill-opacity="1" d="M 9.929688 11.074219 C 9.929688 10.898438 10.066406 10.75 10.234375 10.75 C 10.402344 10.75 10.542969 10.898438 10.542969 11.074219 C 10.542969 11.253906 10.402344 11.402344 10.234375 11.402344 C 10.066406 11.402344 9.929688 11.253906 9.929688 11.074219 Z M 9.929688 11.074219 "/>
<path fill-rule="nonzero" fill="rgb(100%, 100%, 0%)" fill-opacity="1" d="M 10.582031 10.339844 C 10.582031 10.160156 10.71875 10.015625 10.890625 10.015625 C 11.058594 10.015625 11.195312 10.160156 11.195312 10.339844 C 11.195312 10.519531 11.058594 10.664062 10.890625 10.664062 C 10.71875 10.664062 10.582031 10.519531 10.582031 10.339844 Z M 10.582031 10.339844 "/>
<path fill-rule="nonzero" fill="rgb(100%, 100%, 0%)" fill-opacity="1" d="M 10.582031 9.523438 C 10.582031 9.34375 10.71875 9.199219 10.890625 9.199219 C 11.058594 9.199219 11.195312 9.34375 11.195312 9.523438 C 11.195312 9.703125 11.058594 9.847656 10.890625 9.847656 C 10.71875 9.847656 10.582031 9.703125 10.582031 9.523438 Z M 10.582031 9.523438 "/>
<path fill-rule="nonzero" fill="rgb(100%, 100%, 0%)" fill-opacity="1" d="M 10.582031 8.789062 C 10.582031 8.609375 10.71875 8.460938 10.890625 8.460938 C 11.058594 8.460938 11.195312 8.609375 11.195312 8.789062 C 11.195312 8.964844 11.058594 9.113281 10.890625 9.113281 C 10.71875 9.113281 10.582031 8.964844 10.582031 8.789062 Z M 10.582031 8.789062 "/>
<path fill-rule="nonzero" fill="rgb(100%, 100%, 0%)" fill-opacity="1" d="M 10.582031 8.132812 C 10.582031 7.953125 10.71875 7.808594 10.890625 7.808594 C 11.058594 7.808594 11.195312 7.953125 11.195312 8.132812 C 11.195312 8.3125 11.058594 8.457031 10.890625 8.457031 C 10.71875 8.457031 10.582031 8.3125 10.582031 8.132812 Z M 10.582031 8.132812 "/>
<path fill-rule="nonzero" fill="rgb(100%, 100%, 0%)" fill-opacity="1" d="M 10.582031 7.398438 C 10.582031 7.21875 10.71875 7.074219 10.890625 7.074219 C 11.058594 7.074219 11.195312 7.21875 11.195312 7.398438 C 11.195312 7.578125 11.058594 7.722656 10.890625 7.722656 C 10.71875 7.722656 10.582031 7.578125 10.582031 7.398438 Z M 10.582031 7.398438 "/>
<path fill-rule="nonzero" fill="rgb(100%, 100%, 0%)" fill-opacity="1" d="M 10.582031 6.742188 C 10.582031 6.5625 10.71875 6.417969 10.890625 6.417969 C 11.058594 6.417969 11.195312 6.5625 11.195312 6.742188 C 11.195312 6.921875 11.058594 7.066406 10.890625 7.066406 C 10.71875 7.066406 10.582031 6.921875 10.582031 6.742188 Z M 10.582031 6.742188 "/>
<path fill-rule="nonzero" fill="rgb(100%, 100%, 0%)" fill-opacity="1" d="M 10.582031 6.089844 C 10.582031 5.910156 10.71875 5.765625 10.890625 5.765625 C 11.058594 5.765625 11.195312 5.910156 11.195312 6.089844 C 11.195312 6.269531 11.058594 6.414062 10.890625 6.414062 C 10.71875 6.414062 10.582031 6.269531 10.582031 6.089844 Z M 10.582031 6.089844 "/>
<path fill-rule="nonzero" fill="rgb(100%, 100%, 0%)" fill-opacity="1" d="M 10.582031 5.355469 C 10.582031 5.175781 10.71875 5.027344 10.890625 5.027344 C 11.058594 5.027344 11.195312 5.175781 11.195312 5.355469 C 11.195312 5.53125 11.058594 5.679688 10.890625 5.679688 C 10.71875 5.679688 10.582031 5.53125 10.582031 5.355469 Z M 10.582031 5.355469 "/>
<path fill-rule="nonzero" fill="rgb(100%, 100%, 0%)" fill-opacity="1" d="M 10.582031 4.78125 C 10.582031 4.601562 10.71875 4.457031 10.890625 4.457031 C 11.058594 4.457031 11.195312 4.601562 11.195312 4.78125 C 11.195312 4.960938 11.058594 5.105469 10.890625 5.105469 C 10.71875 5.105469 10.582031 4.960938 10.582031 4.78125 Z M 10.582031 4.78125 "/>
<path fill-rule="nonzero" fill="rgb(100%, 100%, 0%)" fill-opacity="1" d="M 10.582031 3.964844 C 10.582031 3.785156 10.71875 3.640625 10.890625 3.640625 C 11.058594 3.640625 11.195312 3.785156 11.195312 3.964844 C 11.195312 4.144531 11.058594 4.289062 10.890625 4.289062 C 10.71875 4.289062 10.582031 4.144531 10.582031 3.964844 Z M 10.582031 3.964844 "/>
<path fill-rule="nonzero" fill="rgb(100%, 100%, 0%)" fill-opacity="1" d="M 10.417969 3.066406 C 10.417969 2.886719 10.554688 2.742188 10.726562 2.742188 C 10.894531 2.742188 11.03125 2.886719 11.03125 3.066406 C 11.03125 3.246094 10.894531 3.390625 10.726562 3.390625 C 10.554688 3.390625 10.417969 3.246094 10.417969 3.066406 Z M 10.417969 3.066406 "/>
<path fill-rule="nonzero" fill="rgb(100%, 100%, 0%)" fill-opacity="1" d="M 9.929688 3.148438 C 9.929688 2.96875 10.066406 2.820312 10.234375 2.820312 C 10.402344 2.820312 10.542969 2.96875 10.542969 3.148438 C 10.542969 3.324219 10.402344 3.472656 10.234375 3.472656 C 10.066406 3.472656 9.929688 3.324219 9.929688 3.148438 Z M 9.929688 3.148438 "/>
<path fill-rule="nonzero" fill="rgb(100%, 100%, 0%)" fill-opacity="1" d="M 10.09375 3.964844 C 10.09375 3.785156 10.230469 3.640625 10.398438 3.640625 C 10.566406 3.640625 10.703125 3.785156 10.703125 3.964844 C 10.703125 4.144531 10.566406 4.289062 10.398438 4.289062 C 10.230469 4.289062 10.09375 4.144531 10.09375 3.964844 Z M 10.09375 3.964844 "/>
<path fill-rule="nonzero" fill="rgb(100%, 100%, 0%)" fill-opacity="1" d="M 10.09375 4.78125 C 10.09375 4.601562 10.230469 4.457031 10.398438 4.457031 C 10.566406 4.457031 10.703125 4.601562 10.703125 4.78125 C 10.703125 4.960938 10.566406 5.105469 10.398438 5.105469 C 10.230469 5.105469 10.09375 4.960938 10.09375 4.78125 Z M 10.09375 4.78125 "/>
<path fill-rule="nonzero" fill="rgb(100%, 100%, 0%)" fill-opacity="1" d="M 10.09375 5.355469 C 10.09375 5.175781 10.230469 5.027344 10.398438 5.027344 C 10.566406 5.027344 10.703125 5.175781 10.703125 5.355469 C 10.703125 5.53125 10.566406 5.679688 10.398438 5.679688 C 10.230469 5.679688 10.09375 5.53125 10.09375 5.355469 Z M 10.09375 5.355469 "/>
<path fill-rule="nonzero" fill="rgb(100%, 100%, 0%)" fill-opacity="1" d="M 10.09375 6.089844 C 10.09375 5.910156 10.230469 5.765625 10.398438 5.765625 C 10.566406 5.765625 10.703125 5.910156 10.703125 6.089844 C 10.703125 6.269531 10.566406 6.414062 10.398438 6.414062 C 10.230469 6.414062 10.09375 6.269531 10.09375 6.089844 Z M 10.09375 6.089844 "/>
<path fill-rule="nonzero" fill="rgb(100%, 100%, 0%)" fill-opacity="1" d="M 10.09375 6.742188 C 10.09375 6.5625 10.230469 6.417969 10.398438 6.417969 C 10.566406 6.417969 10.703125 6.5625 10.703125 6.742188 C 10.703125 6.921875 10.566406 7.066406 10.398438 7.066406 C 10.230469 7.066406 10.09375 6.921875 10.09375 6.742188 Z M 10.09375 6.742188 "/>
<path fill-rule="nonzero" fill="rgb(100%, 100%, 0%)" fill-opacity="1" d="M 10.09375 7.398438 C 10.09375 7.21875 10.230469 7.074219 10.398438 7.074219 C 10.566406 7.074219 10.703125 7.21875 10.703125 7.398438 C 10.703125 7.578125 10.566406 7.722656 10.398438 7.722656 C 10.230469 7.722656 10.09375 7.578125 10.09375 7.398438 Z M 10.09375 7.398438 "/>
<path fill-rule="nonzero" fill="rgb(100%, 100%, 0%)" fill-opacity="1" d="M 10.09375 8.132812 C 10.09375 7.953125 10.230469 7.808594 10.398438 7.808594 C 10.566406 7.808594 10.703125 7.953125 10.703125 8.132812 C 10.703125 8.3125 10.566406 8.457031 10.398438 8.457031 C 10.230469 8.457031 10.09375 8.3125 10.09375 8.132812 Z M 10.09375 8.132812 "/>
<path fill-rule="nonzero" fill="rgb(100%, 100%, 0%)" fill-opacity="1" d="M 10.09375 8.789062 C 10.09375 8.609375 10.230469 8.460938 10.398438 8.460938 C 10.566406 8.460938 10.703125 8.609375 10.703125 8.789062 C 10.703125 8.964844 10.566406 9.113281 10.398438 9.113281 C 10.230469 9.113281 10.09375 8.964844 10.09375 8.789062 Z M 10.09375 8.789062 "/>
<path fill-rule="nonzero" fill="rgb(100%, 100%, 0%)" fill-opacity="1" d="M 10.09375 9.523438 C 10.09375 9.34375 10.230469 9.199219 10.398438 9.199219 C 10.566406 9.199219 10.703125 9.34375 10.703125 9.523438 C 10.703125 9.703125 10.566406 9.847656 10.398438 9.847656 C 10.230469 9.847656 10.09375 9.703125 10.09375 9.523438 Z M 10.09375 9.523438 "/>
<path fill-rule="nonzero" fill="rgb(100%, 100%, 0%)" fill-opacity="1" d="M 10.09375 10.339844 C 10.09375 10.160156 10.230469 10.015625 10.398438 10.015625 C 10.566406 10.015625 10.703125 10.160156 10.703125 10.339844 C 10.703125 10.519531 10.566406 10.664062 10.398438 10.664062 C 10.230469 10.664062 10.09375 10.519531 10.09375 10.339844 Z M 10.09375 10.339844 "/>
<path fill-rule="nonzero" fill="rgb(100%, 100%, 0%)" fill-opacity="1" d="M 9.492188 7.6875 C 9.492188 7.507812 9.628906 7.363281 9.796875 7.363281 C 9.964844 7.363281 10.101562 7.507812 10.101562 7.6875 C 10.101562 7.867188 9.964844 8.011719 9.796875 8.011719 C 9.628906 8.011719 9.492188 7.867188 9.492188 7.6875 Z M 9.492188 7.6875 "/>
<path fill-rule="nonzero" fill="rgb(100%, 100%, 0%)" fill-opacity="1" d="M 9.328125 7.195312 C 9.328125 7.019531 9.464844 6.871094 9.632812 6.871094 C 9.800781 6.871094 9.941406 7.019531 9.941406 7.195312 C 9.941406 7.375 9.800781 7.523438 9.632812 7.523438 C 9.464844 7.523438 9.328125 7.375 9.328125 7.195312 Z M 9.328125 7.195312 "/>
<path fill-rule="nonzero" fill="rgb(100%, 100%, 0%)" fill-opacity="1" d="M 8.917969 8.015625 C 8.917969 7.835938 9.054688 7.691406 9.226562 7.691406 C 9.394531 7.691406 9.53125 7.835938 9.53125 8.015625 C 9.53125 8.195312 9.394531 8.339844 9.226562 8.339844 C 9.054688 8.339844 8.917969 8.195312 8.917969 8.015625 Z M 8.917969 8.015625 "/>
<path fill-rule="nonzero" fill="rgb(100%, 100%, 0%)" fill-opacity="1" d="M 8.753906 7.523438 C 8.753906 7.34375 8.890625 7.199219 9.0625 7.199219 C 9.230469 7.199219 9.367188 7.34375 9.367188 7.523438 C 9.367188 7.703125 9.230469 7.847656 9.0625 7.847656 C 8.890625 7.847656 8.753906 7.703125 8.753906 7.523438 Z M 8.753906 7.523438 "/>
<path fill-rule="nonzero" fill="rgb(100%, 100%, 0%)" fill-opacity="1" d="M 8.183594 7.851562 C 8.183594 7.671875 8.320312 7.527344 8.488281 7.527344 C 8.65625 7.527344 8.796875 7.671875 8.796875 7.851562 C 8.796875 8.03125 8.65625 8.175781 8.488281 8.175781 C 8.320312 8.175781 8.183594 8.03125 8.183594 7.851562 Z M 8.183594 7.851562 "/>
<path fill-rule="nonzero" fill="rgb(100%, 100%, 0%)" fill-opacity="1" d="M 8.347656 8.257812 C 8.347656 8.082031 8.484375 7.933594 8.652344 7.933594 C 8.820312 7.933594 8.957031 8.082031 8.957031 8.257812 C 8.957031 8.4375 8.820312 8.585938 8.652344 8.585938 C 8.484375 8.585938 8.347656 8.4375 8.347656 8.257812 Z M 8.347656 8.257812 "/>
<path fill-rule="nonzero" fill="rgb(100%, 100%, 0%)" fill-opacity="1" d="M 7.445312 8.503906 C 7.445312 8.324219 7.585938 8.179688 7.753906 8.179688 C 7.921875 8.179688 8.058594 8.324219 8.058594 8.503906 C 8.058594 8.683594 7.921875 8.828125 7.753906 8.828125 C 7.585938 8.828125 7.445312 8.683594 7.445312 8.503906 Z M 7.445312 8.503906 "/>
<path fill-rule="nonzero" fill="rgb(100%, 100%, 0%)" fill-opacity="1" d="M 7.445312 8.015625 C 7.445312 7.835938 7.585938 7.691406 7.753906 7.691406 C 7.921875 7.691406 8.058594 7.835938 8.058594 8.015625 C 8.058594 8.195312 7.921875 8.339844 7.753906 8.339844 C 7.585938 8.339844 7.445312 8.195312 7.445312 8.015625 Z M 7.445312 8.015625 "/>
<path fill-rule="nonzero" fill="rgb(100%, 100%, 0%)" fill-opacity="1" d="M 6.710938 8.097656 C 6.710938 7.917969 6.847656 7.773438 7.015625 7.773438 C 7.1875 7.773438 7.324219 7.917969 7.324219 8.097656 C 7.324219 8.277344 7.1875 8.421875 7.015625 8.421875 C 6.847656 8.421875 6.710938 8.277344 6.710938 8.097656 Z M 6.710938 8.097656 "/>
<path fill-rule="nonzero" fill="rgb(100%, 100%, 0%)" fill-opacity="1" d="M 6.628906 8.585938 C 6.628906 8.40625 6.765625 8.261719 6.9375 8.261719 C 7.105469 8.261719 7.242188 8.40625 7.242188 8.585938 C 7.242188 8.765625 7.105469 8.910156 6.9375 8.910156 C 6.765625 8.910156 6.628906 8.765625 6.628906 8.585938 Z M 6.628906 8.585938 "/>
<path fill-rule="nonzero" fill="rgb(100%, 100%, 0%)" fill-opacity="1" d="M 5.976562 7.933594 C 5.976562 7.753906 6.113281 7.609375 6.28125 7.609375 C 6.449219 7.609375 6.589844 7.753906 6.589844 7.933594 C 6.589844 8.113281 6.449219 8.257812 6.28125 8.257812 C 6.113281 8.257812 5.976562 8.113281 5.976562 7.933594 Z M 5.976562 7.933594 "/>
<path fill-rule="nonzero" fill="rgb(100%, 100%, 0%)" fill-opacity="1" d="M 5.8125 8.421875 C 5.8125 8.242188 5.949219 8.097656 6.117188 8.097656 C 6.289062 8.097656 6.425781 8.242188 6.425781 8.421875 C 6.425781 8.601562 6.289062 8.746094 6.117188 8.746094 C 5.949219 8.746094 5.8125 8.601562 5.8125 8.421875 Z M 5.8125 8.421875 "/>
<path fill-rule="nonzero" fill="rgb(100%, 100%, 0%)" fill-opacity="1" d="M 5.078125 8.097656 C 5.078125 7.917969 5.214844 7.773438 5.382812 7.773438 C 5.550781 7.773438 5.6875 7.917969 5.6875 8.097656 C 5.6875 8.277344 5.550781 8.421875 5.382812 8.421875 C 5.214844 8.421875 5.078125 8.277344 5.078125 8.097656 Z M 5.078125 8.097656 "/>
<path fill-rule="nonzero" fill="rgb(100%, 100%, 0%)" fill-opacity="1" d="M 5.402344 7.6875 C 5.402344 7.507812 5.539062 7.363281 5.710938 7.363281 C 5.878906 7.363281 6.015625 7.507812 6.015625 7.6875 C 6.015625 7.867188 5.878906 8.011719 5.710938 8.011719 C 5.539062 8.011719 5.402344 7.867188 5.402344 7.6875 Z M 5.402344 7.6875 "/>
<path fill-rule="nonzero" fill="rgb(100%, 100%, 0%)" fill-opacity="1" d="M 4.339844 7.605469 C 4.339844 7.425781 4.476562 7.28125 4.648438 7.28125 C 4.816406 7.28125 4.953125 7.425781 4.953125 7.605469 C 4.953125 7.785156 4.816406 7.929688 4.648438 7.929688 C 4.476562 7.929688 4.339844 7.785156 4.339844 7.605469 Z M 4.339844 7.605469 "/>
<path fill-rule="nonzero" fill="rgb(100%, 100%, 0%)" fill-opacity="1" d="M 4.667969 7.277344 C 4.667969 7.097656 4.804688 6.953125 4.972656 6.953125 C 5.144531 6.953125 5.28125 7.097656 5.28125 7.277344 C 5.28125 7.457031 5.144531 7.601562 4.972656 7.601562 C 4.804688 7.601562 4.667969 7.457031 4.667969 7.277344 Z M 4.667969 7.277344 "/>
<path fill-rule="nonzero" fill="rgb(100%, 100%, 0%)" fill-opacity="1" d="M 4.257812 6.789062 C 4.257812 6.609375 4.394531 6.464844 4.566406 6.464844 C 4.734375 6.464844 4.871094 6.609375 4.871094 6.789062 C 4.871094 6.96875 4.734375 7.113281 4.566406 7.113281 C 4.394531 7.113281 4.257812 6.96875 4.257812 6.789062 Z M 4.257812 6.789062 "/>
<path fill-rule="nonzero" fill="rgb(100%, 100%, 0%)" fill-opacity="1" d="M 3.769531 7.035156 C 3.769531 6.855469 3.90625 6.707031 4.074219 6.707031 C 4.242188 6.707031 4.382812 6.855469 4.382812 7.035156 C 4.382812 7.210938 4.242188 7.359375 4.074219 7.359375 C 3.90625 7.359375 3.769531 7.210938 3.769531 7.035156 Z M 3.769531 7.035156 "/>
<path fill-rule="nonzero" fill="rgb(100%, 100%, 0%)" fill-opacity="1" d="M 3.359375 6.132812 C 3.359375 5.953125 3.496094 5.808594 3.664062 5.808594 C 3.835938 5.808594 3.972656 5.953125 3.972656 6.132812 C 3.972656 6.3125 3.835938 6.457031 3.664062 6.457031 C 3.496094 6.457031 3.359375 6.3125 3.359375 6.132812 Z M 3.359375 6.132812 "/>
<path fill-rule="nonzero" fill="rgb(100%, 100%, 0%)" fill-opacity="1" d="M 3.933594 5.972656 C 3.933594 5.792969 4.070312 5.644531 4.238281 5.644531 C 4.40625 5.644531 4.542969 5.792969 4.542969 5.972656 C 4.542969 6.148438 4.40625 6.296875 4.238281 6.296875 C 4.070312 6.296875 3.933594 6.148438 3.933594 5.972656 Z M 3.933594 5.972656 "/>
<path fill-rule="nonzero" fill="rgb(100%, 100%, 0%)" fill-opacity="1" d="M 3.769531 5.316406 C 3.769531 5.136719 3.90625 4.992188 4.074219 4.992188 C 4.242188 4.992188 4.382812 5.136719 4.382812 5.316406 C 4.382812 5.496094 4.242188 5.640625 4.074219 5.640625 C 3.90625 5.640625 3.769531 5.496094 3.769531 5.316406 Z M 3.769531 5.316406 "/>
<path fill-rule="nonzero" fill="rgb(100%, 100%, 0%)" fill-opacity="1" d="M 3.277344 5.316406 C 3.277344 5.136719 3.414062 4.992188 3.585938 4.992188 C 3.753906 4.992188 3.890625 5.136719 3.890625 5.316406 C 3.890625 5.496094 3.753906 5.640625 3.585938 5.640625 C 3.414062 5.640625 3.277344 5.496094 3.277344 5.316406 Z M 3.277344 5.316406 "/>
<path fill-rule="nonzero" fill="rgb(100%, 100%, 0%)" fill-opacity="1" d="M 3.277344 4.664062 C 3.277344 4.484375 3.414062 4.339844 3.585938 4.339844 C 3.753906 4.339844 3.890625 4.484375 3.890625 4.664062 C 3.890625 4.84375 3.753906 4.988281 3.585938 4.988281 C 3.414062 4.988281 3.277344 4.84375 3.277344 4.664062 Z M 3.277344 4.664062 "/>
<path fill-rule="nonzero" fill="rgb(100%, 100%, 0%)" fill-opacity="1" d="M 3.769531 4.664062 C 3.769531 4.484375 3.90625 4.339844 4.074219 4.339844 C 4.242188 4.339844 4.382812 4.484375 4.382812 4.664062 C 4.382812 4.84375 4.242188 4.988281 4.074219 4.988281 C 3.90625 4.988281 3.769531 4.84375 3.769531 4.664062 Z M 3.769531 4.664062 "/>
<path fill-rule="nonzero" fill="rgb(100%, 100%, 0%)" fill-opacity="1" d="M 3.769531 3.925781 C 3.769531 3.746094 3.90625 3.601562 4.074219 3.601562 C 4.242188 3.601562 4.382812 3.746094 4.382812 3.925781 C 4.382812 4.105469 4.242188 4.25 4.074219 4.25 C 3.90625 4.25 3.769531 4.105469 3.769531 3.925781 Z M 3.769531 3.925781 "/>
<path fill-rule="nonzero" fill="rgb(100%, 100%, 0%)" fill-opacity="1" d="M 3.277344 3.925781 C 3.277344 3.746094 3.414062 3.601562 3.585938 3.601562 C 3.753906 3.601562 3.890625 3.746094 3.890625 3.925781 C 3.890625 4.105469 3.753906 4.25 3.585938 4.25 C 3.414062 4.25 3.277344 4.105469 3.277344 3.925781 Z M 3.277344 3.925781 "/>
<path fill-rule="nonzero" fill="rgb(100%, 100%, 0%)" fill-opacity="1" d="M 3.441406 2.945312 C 3.441406 2.765625 3.578125 2.621094 3.746094 2.621094 C 3.917969 2.621094 4.054688 2.765625 4.054688 2.945312 C 4.054688 3.125 3.917969 3.269531 3.746094 3.269531 C 3.578125 3.269531 3.441406 3.125 3.441406 2.945312 Z M 3.441406 2.945312 "/>
<path fill-rule="nonzero" fill="rgb(100%, 100%, 0%)" fill-opacity="1" d="M 3.933594 3.109375 C 3.933594 2.929688 4.070312 2.785156 4.238281 2.785156 C 4.40625 2.785156 4.542969 2.929688 4.542969 3.109375 C 4.542969 3.289062 4.40625 3.433594 4.238281 3.433594 C 4.070312 3.433594 3.933594 3.289062 3.933594 3.109375 Z M 3.933594 3.109375 "/>
<path fill-rule="nonzero" fill="rgb(100%, 100%, 0%)" fill-opacity="1" d="M 3.851562 2.210938 C 3.851562 2.03125 3.988281 1.886719 4.15625 1.886719 C 4.324219 1.886719 4.460938 2.03125 4.460938 2.210938 C 4.460938 2.390625 4.324219 2.535156 4.15625 2.535156 C 3.988281 2.535156 3.851562 2.390625 3.851562 2.210938 Z M 3.851562 2.210938 "/>
<path fill-rule="nonzero" fill="rgb(100%, 100%, 0%)" fill-opacity="1" d="M 4.257812 2.457031 C 4.257812 2.277344 4.394531 2.132812 4.566406 2.132812 C 4.734375 2.132812 4.871094 2.277344 4.871094 2.457031 C 4.871094 2.636719 4.734375 2.78125 4.566406 2.78125 C 4.394531 2.78125 4.257812 2.636719 4.257812 2.457031 Z M 4.257812 2.457031 "/>
<path fill-rule="nonzero" fill="rgb(100%, 100%, 0%)" fill-opacity="1" d="M 4.421875 1.476562 C 4.421875 1.296875 4.558594 1.148438 4.730469 1.148438 C 4.898438 1.148438 5.035156 1.296875 5.035156 1.476562 C 5.035156 1.652344 4.898438 1.800781 4.730469 1.800781 C 4.558594 1.800781 4.421875 1.652344 4.421875 1.476562 Z M 4.421875 1.476562 "/>
<path fill-rule="nonzero" fill="rgb(100%, 100%, 0%)" fill-opacity="1" d="M 4.75 1.800781 C 4.75 1.621094 4.886719 1.476562 5.054688 1.476562 C 5.226562 1.476562 5.363281 1.621094 5.363281 1.800781 C 5.363281 1.980469 5.226562 2.125 5.054688 2.125 C 4.886719 2.125 4.75 1.980469 4.75 1.800781 Z M 4.75 1.800781 "/>
<path fill-rule="nonzero" fill="rgb(100%, 100%, 0%)" fill-opacity="1" d="M 5.320312 1.3125 C 5.320312 1.132812 5.457031 0.988281 5.628906 0.988281 C 5.796875 0.988281 5.933594 1.132812 5.933594 1.3125 C 5.933594 1.492188 5.796875 1.636719 5.628906 1.636719 C 5.457031 1.636719 5.320312 1.492188 5.320312 1.3125 Z M 5.320312 1.3125 "/>
<path fill-rule="nonzero" fill="rgb(100%, 100%, 0%)" fill-opacity="1" d="M 5.078125 0.984375 C 5.078125 0.804688 5.214844 0.660156 5.382812 0.660156 C 5.550781 0.660156 5.6875 0.804688 5.6875 0.984375 C 5.6875 1.164062 5.550781 1.308594 5.382812 1.308594 C 5.214844 1.308594 5.078125 1.164062 5.078125 0.984375 Z M 5.078125 0.984375 "/>
<path fill-rule="nonzero" fill="rgb(100%, 100%, 0%)" fill-opacity="1" d="M 5.894531 1.148438 C 5.894531 0.96875 6.03125 0.824219 6.199219 0.824219 C 6.371094 0.824219 6.507812 0.96875 6.507812 1.148438 C 6.507812 1.328125 6.371094 1.472656 6.199219 1.472656 C 6.03125 1.472656 5.894531 1.328125 5.894531 1.148438 Z M 5.894531 1.148438 "/>
<path fill-rule="nonzero" fill="rgb(100%, 100%, 0%)" fill-opacity="1" d="M 5.894531 0.65625 C 5.894531 0.476562 6.03125 0.332031 6.199219 0.332031 C 6.371094 0.332031 6.507812 0.476562 6.507812 0.65625 C 6.507812 0.835938 6.371094 0.980469 6.199219 0.980469 C 6.03125 0.980469 5.894531 0.835938 5.894531 0.65625 Z M 5.894531 0.65625 "/>
<path fill-rule="nonzero" fill="rgb(100%, 100%, 0%)" fill-opacity="1" d="M 6.628906 0.984375 C 6.628906 0.804688 6.765625 0.660156 6.9375 0.660156 C 7.105469 0.660156 7.242188 0.804688 7.242188 0.984375 C 7.242188 1.164062 7.105469 1.308594 6.9375 1.308594 C 6.765625 1.308594 6.628906 1.164062 6.628906 0.984375 Z M 6.628906 0.984375 "/>
<path fill-rule="nonzero" fill="rgb(100%, 100%, 0%)" fill-opacity="1" d="M 6.628906 0.492188 C 6.628906 0.3125 6.765625 0.167969 6.9375 0.167969 C 7.105469 0.167969 7.242188 0.3125 7.242188 0.492188 C 7.242188 0.671875 7.105469 0.816406 6.9375 0.816406 C 6.765625 0.816406 6.628906 0.671875 6.628906 0.492188 Z M 6.628906 0.492188 "/>
<path fill-rule="nonzero" fill="rgb(100%, 100%, 0%)" fill-opacity="1" d="M 7.285156 0.984375 C 7.285156 0.804688 7.421875 0.660156 7.589844 0.660156 C 7.757812 0.660156 7.894531 0.804688 7.894531 0.984375 C 7.894531 1.164062 7.757812 1.308594 7.589844 1.308594 C 7.421875 1.308594 7.285156 1.164062 7.285156 0.984375 Z M 7.285156 0.984375 "/>
<path fill-rule="nonzero" fill="rgb(100%, 100%, 0%)" fill-opacity="1" d="M 7.285156 0.492188 C 7.285156 0.3125 7.421875 0.167969 7.589844 0.167969 C 7.757812 0.167969 7.894531 0.3125 7.894531 0.492188 C 7.894531 0.671875 7.757812 0.816406 7.589844 0.816406 C 7.421875 0.816406 7.285156 0.671875 7.285156 0.492188 Z M 7.285156 0.492188 "/>
<path fill-rule="nonzero" fill="rgb(100%, 100%, 0%)" fill-opacity="1" d="M 8.183594 0.738281 C 8.183594 0.558594 8.320312 0.414062 8.488281 0.414062 C 8.65625 0.414062 8.796875 0.558594 8.796875 0.738281 C 8.796875 0.917969 8.65625 1.0625 8.488281 1.0625 C 8.320312 1.0625 8.183594 0.917969 8.183594 0.738281 Z M 8.183594 0.738281 "/>
<path fill-rule="nonzero" fill="rgb(100%, 100%, 0%)" fill-opacity="1" d="M 8.019531 1.148438 C 8.019531 0.96875 8.15625 0.824219 8.324219 0.824219 C 8.496094 0.824219 8.632812 0.96875 8.632812 1.148438 C 8.632812 1.328125 8.496094 1.472656 8.324219 1.472656 C 8.15625 1.472656 8.019531 1.328125 8.019531 1.148438 Z M 8.019531 1.148438 "/>
<path fill-rule="nonzero" fill="rgb(100%, 100%, 0%)" fill-opacity="1" d="M 8.671875 1.476562 C 8.671875 1.296875 8.808594 1.148438 8.980469 1.148438 C 9.148438 1.148438 9.285156 1.296875 9.285156 1.476562 C 9.285156 1.652344 9.148438 1.800781 8.980469 1.800781 C 8.808594 1.800781 8.671875 1.652344 8.671875 1.476562 Z M 8.671875 1.476562 "/>
<path fill-rule="nonzero" fill="rgb(100%, 100%, 0%)" fill-opacity="1" d="M 9 1.066406 C 9 0.886719 9.136719 0.742188 9.304688 0.742188 C 9.476562 0.742188 9.613281 0.886719 9.613281 1.066406 C 9.613281 1.246094 9.476562 1.390625 9.304688 1.390625 C 9.136719 1.390625 9 1.246094 9 1.066406 Z M 9 1.066406 "/>
<path fill-rule="nonzero" fill="rgb(100%, 100%, 0%)" fill-opacity="1" d="M 9.246094 1.964844 C 9.246094 1.785156 9.382812 1.640625 9.550781 1.640625 C 9.722656 1.640625 9.859375 1.785156 9.859375 1.964844 C 9.859375 2.144531 9.722656 2.289062 9.550781 2.289062 C 9.382812 2.289062 9.246094 2.144531 9.246094 1.964844 Z M 9.246094 1.964844 "/>
<path fill-rule="nonzero" fill="rgb(100%, 100%, 0%)" fill-opacity="1" d="M 9.652344 1.636719 C 9.652344 1.457031 9.792969 1.3125 9.960938 1.3125 C 10.128906 1.3125 10.265625 1.457031 10.265625 1.636719 C 10.265625 1.816406 10.128906 1.960938 9.960938 1.960938 C 9.792969 1.960938 9.652344 1.816406 9.652344 1.636719 Z M 9.652344 1.636719 "/>
<path fill-rule="nonzero" fill="rgb(100%, 100%, 0%)" fill-opacity="1" d="M 9.652344 2.539062 C 9.652344 2.359375 9.792969 2.210938 9.960938 2.210938 C 10.128906 2.210938 10.265625 2.359375 10.265625 2.539062 C 10.265625 2.714844 10.128906 2.863281 9.960938 2.863281 C 9.792969 2.863281 9.652344 2.714844 9.652344 2.539062 Z M 9.652344 2.539062 "/>
<path fill-rule="nonzero" fill="rgb(100%, 100%, 0%)" fill-opacity="1" d="M 10.0625 2.375 C 10.0625 2.195312 10.199219 2.050781 10.371094 2.050781 C 10.539062 2.050781 10.675781 2.195312 10.675781 2.375 C 10.675781 2.554688 10.539062 2.699219 10.371094 2.699219 C 10.199219 2.699219 10.0625 2.554688 10.0625 2.375 Z M 10.0625 2.375 "/>
</svg>
