<?xml version="1.0" encoding="UTF-8"?>
<svg xmlns="http://www.w3.org/2000/svg" xmlns:xlink="http://www.w3.org/1999/xlink" width="14" height="14" viewBox="0 0 14 14">
<path fill-rule="nonzero" fill="rgb(0%, 0%, 0%)" fill-opacity="1" stroke-width="10" stroke-linecap="butt" stroke-linejoin="miter" stroke="rgb(100%, 100%, 100%)" stroke-opacity="1" stroke-miterlimit="4" d="M 5.027343 5.027343 L 5.027343 148.97264 L 148.97264 148.97264 L 148.97264 5.027343 Z M 5.027343 5.027343 " transform="matrix(0.0909091, 0, 0, 0.0909091, 0, 0)"/>
<path fill-rule="nonzero" fill="rgb(100%, 100%, 100%)" fill-opacity="1" d="M 9.804688 4.652344 L 8.710938 4.734375 C 8.613281 4.304688 8.472656 3.992188 8.289062 3.796875 C 7.996094 3.480469 7.628906 3.320312 7.191406 3.320312 C 6.839844 3.320312 6.53125 3.417969 6.261719 3.617188 C 5.917969 3.871094 5.644531 4.238281 5.441406 4.726562 C 5.246094 5.210938 5.140625 5.902344 5.132812 6.800781 C 5.398438 6.398438 5.722656 6.097656 6.105469 5.902344 C 6.488281 5.707031 6.890625 5.605469 7.3125 5.605469 C 8.046875 5.605469 8.671875 5.878906 9.1875 6.417969 C 9.707031 6.960938 9.964844 7.660156 9.964844 8.515625 C 9.964844 9.078125 9.84375 9.601562 9.597656 10.085938 C 9.355469 10.570312 9.023438 10.941406 8.597656 11.195312 C 8.175781 11.457031 7.691406 11.582031 7.152344 11.582031 C 6.234375 11.582031 5.488281 11.242188 4.90625 10.570312 C 4.328125 9.894531 4.035156 8.777344 4.035156 7.230469 C 4.035156 5.496094 4.355469 4.234375 5 3.445312 C 5.554688 2.761719 6.3125 2.417969 7.257812 2.417969 C 7.960938 2.417969 8.542969 2.613281 8.996094 3.011719 C 9.441406 3.40625 9.714844 3.953125 9.804688 4.652344 Z M 5.304688 8.519531 C 5.304688 8.898438 5.386719 9.265625 5.546875 9.609375 C 5.707031 9.957031 5.933594 10.222656 6.222656 10.40625 C 6.511719 10.585938 6.816406 10.679688 7.136719 10.679688 C 7.601562 10.679688 8 10.488281 8.335938 10.113281 C 8.667969 9.738281 8.835938 9.226562 8.835938 8.582031 C 8.835938 7.960938 8.667969 7.472656 8.339844 7.117188 C 8.011719 6.757812 7.59375 6.582031 7.089844 6.582031 C 6.59375 6.582031 6.171875 6.757812 5.824219 7.117188 C 5.476562 7.472656 5.304688 7.941406 5.304688 8.519531 Z M 5.304688 8.519531 "/>
</svg>
