<?xml version="1.0" encoding="UTF-8"?>
<svg xmlns="http://www.w3.org/2000/svg" xmlns:xlink="http://www.w3.org/1999/xlink" width="16" height="16" viewBox="0 0 16 16">
<path fill-rule="nonzero" fill="rgb(100%, 100%, 100%)" fill-opacity="1" stroke-width="10" stroke-linecap="butt" stroke-linejoin="miter" stroke="rgb(100%, 0%, 0%)" stroke-opacity="1" stroke-miterlimit="4" d="M 5.000488 5.000488 L 5.000488 148.999504 L 148.999504 148.999504 L 148.999504 5.000488 Z M 5.000488 5.000488 " transform="matrix(0.103896, 0, 0, 0.103896, 0, 0)"/>
<path fill-rule="nonzero" fill="rgb(100%, 0%, 0%)" fill-opacity="1" d="M 4.714844 2.480469 L 6.214844 2.480469 L 6.214844 12.953125 L 4.714844 12.953125 L 4.714844 3.976562 L 3.230469 5.476562 L 3.230469 3.976562 L 4.714844 2.480469 "/>
<path fill-rule="nonzero" fill="rgb(100%, 0%, 0%)" fill-opacity="1" d="M 9.097656 3.140625 C 9.535156 2.699219 10.0625 2.480469 10.679688 2.480469 C 11.296875 2.480469 11.824219 2.699219 12.261719 3.140625 C 12.703125 3.582031 12.921875 4.109375 12.921875 4.730469 C 12.921875 5.058594 12.855469 5.371094 12.726562 5.660156 L 10.109375 11.457031 L 12.921875 11.457031 L 12.921875 12.953125 L 8.4375 12.953125 L 8.4375 11.457031 L 11.25 5.304688 C 11.371094 5.015625 11.429688 4.824219 11.425781 4.730469 C 11.425781 4.519531 11.351562 4.339844 11.203125 4.195312 C 11.0625 4.050781 10.886719 3.976562 10.679688 3.976562 C 10.472656 3.976562 10.292969 4.050781 10.144531 4.195312 C 10 4.339844 9.925781 4.519531 9.925781 4.730469 L 8.4375 4.730469 C 8.4375 4.109375 8.652344 3.582031 9.097656 3.140625 "/>
</svg>
