<?xml version="1.0" encoding="UTF-8"?>
<svg xmlns="http://www.w3.org/2000/svg" xmlns:xlink="http://www.w3.org/1999/xlink" width="21.83374" height="19" viewBox="0 0 21.83374 19">
<path fill-rule="nonzero" fill="rgb(95.294118%, 57.254905%, 0%)" fill-opacity="1" d="M 21.835938 0 L 10.914062 19 L 0 0 Z M 21.835938 0 "/>
<path fill-rule="nonzero" fill="rgb(0%, 0%, 0%)" fill-opacity="1" d="M 20.535156 0.792969 L 10.984375 17.328125 L 1.441406 0.792969 Z M 20.535156 0.792969 "/>
<path fill-rule="nonzero" fill="rgb(0%, 0%, 0%)" fill-opacity="1" d="M 10.984375 17.371094 L 10.964844 17.335938 L 1.398438 0.765625 L 20.574219 0.765625 L 20.554688 0.800781 Z M 1.480469 0.8125 L 10.984375 17.28125 L 20.496094 0.8125 Z M 1.480469 0.8125 "/>
<path fill-rule="nonzero" fill="rgb(95.294118%, 57.254905%, 0%)" fill-opacity="1" d="M 14.234375 4.398438 L 12.949219 4.496094 C 12.835938 3.992188 12.671875 3.621094 12.464844 3.394531 C 12.113281 3.023438 11.683594 2.839844 11.167969 2.839844 C 10.757812 2.839844 10.394531 2.953125 10.089844 3.1875 C 9.679688 3.484375 9.363281 3.914062 9.125 4.484375 C 8.890625 5.050781 8.769531 5.863281 8.757812 6.917969 C 9.070312 6.441406 9.449219 6.089844 9.902344 5.863281 C 10.351562 5.628906 10.820312 5.515625 11.316406 5.515625 C 12.175781 5.515625 12.910156 5.832031 13.511719 6.46875 C 14.117188 7.101562 14.417969 7.921875 14.417969 8.925781 C 14.417969 9.585938 14.28125 10.199219 13.992188 10.765625 C 13.710938 11.332031 13.320312 11.765625 12.820312 12.066406 C 12.324219 12.371094 11.757812 12.519531 11.128906 12.519531 C 10.050781 12.519531 9.171875 12.121094 8.496094 11.332031 C 7.8125 10.539062 7.476562 9.238281 7.476562 7.417969 C 7.476562 5.382812 7.847656 3.910156 8.597656 2.984375 C 9.257812 2.183594 10.136719 1.777344 11.246094 1.777344 C 12.078125 1.777344 12.753906 2.007812 13.285156 2.472656 C 13.808594 2.9375 14.132812 3.578125 14.234375 4.398438 Z M 8.960938 8.929688 C 8.960938 9.375 9.054688 9.800781 9.242188 10.207031 C 9.429688 10.617188 9.699219 10.925781 10.035156 11.136719 C 10.375 11.351562 10.730469 11.460938 11.101562 11.460938 C 11.652344 11.460938 12.117188 11.238281 12.511719 10.796875 C 12.902344 10.355469 13.101562 9.761719 13.101562 9.003906 C 13.101562 8.277344 12.902344 7.703125 12.519531 7.285156 C 12.132812 6.867188 11.640625 6.660156 11.054688 6.660156 C 10.46875 6.660156 9.976562 6.867188 9.570312 7.285156 C 9.164062 7.703125 8.960938 8.253906 8.960938 8.929688 Z M 8.960938 8.929688 "/>
</svg>
