<?xml version="1.0" encoding="UTF-8"?>
<svg xmlns="http://www.w3.org/2000/svg" xmlns:xlink="http://www.w3.org/1999/xlink" width="17.237164" height="15" viewBox="0 0 17.237164 15">
<path fill-rule="nonzero" fill="rgb(95.294118%, 57.254905%, 0%)" fill-opacity="1" d="M 17.238281 0 L 8.617188 15 L 0 0 Z M 17.238281 0 "/>
<path fill-rule="nonzero" fill="rgb(0%, 0%, 0%)" fill-opacity="1" d="M 16.210938 0.625 L 8.671875 13.679688 L 1.136719 0.625 Z M 16.210938 0.625 "/>
<path fill-rule="nonzero" fill="rgb(0%, 0%, 0%)" fill-opacity="1" d="M 8.671875 13.714844 L 8.65625 13.6875 L 1.105469 0.605469 L 16.242188 0.605469 L 16.226562 0.632812 Z M 1.167969 0.640625 L 8.671875 13.644531 L 16.179688 0.640625 Z M 1.167969 0.640625 "/>
<path fill-rule="nonzero" fill="rgb(95.294118%, 57.254905%, 0%)" fill-opacity="1" d="M 6.515625 3.183594 L 6.496094 3.183594 L 5.410156 3.769531 L 5.246094 3.125 L 6.613281 2.394531 L 7.332031 2.394531 L 7.332031 8.640625 L 6.515625 8.640625 Z M 6.515625 3.183594 "/>
<path fill-rule="nonzero" fill="rgb(95.294118%, 57.254905%, 0%)" fill-opacity="1" d="M 12.046875 5.398438 C 12.046875 7.460938 11.285156 8.597656 9.976562 8.597656 C 8.8125 8.597656 8.011719 7.488281 7.996094 5.484375 C 7.996094 3.441406 8.867188 2.332031 10.078125 2.332031 C 11.324219 2.332031 12.046875 3.46875 12.046875 5.398438 Z M 8.8125 5.492188 C 8.8125 7.066406 9.289062 7.964844 10.019531 7.964844 C 10.835938 7.964844 11.230469 6.984375 11.230469 5.4375 C 11.230469 3.945312 10.863281 2.96875 10.019531 2.96875 C 9.324219 2.96875 8.8125 3.84375 8.8125 5.492188 Z M 8.8125 5.492188 "/>
</svg>
