<?xml version="1.0" encoding="UTF-8"?>
<svg xmlns="http://www.w3.org/2000/svg" xmlns:xlink="http://www.w3.org/1999/xlink" width="16" height="16" viewBox="0 0 16 16">
<path fill-rule="nonzero" fill="rgb(100%, 100%, 100%)" fill-opacity="1" stroke-width="10" stroke-linecap="butt" stroke-linejoin="miter" stroke="rgb(100%, 0%, 0%)" stroke-opacity="1" stroke-miterlimit="4" d="M 5.000488 5.000488 L 5.000488 148.999504 L 148.999504 148.999504 L 148.999504 5.000488 Z M 5.000488 5.000488 " transform="matrix(0.103896, 0, 0, 0.103896, 0, 0)"/>
<path fill-rule="nonzero" fill="rgb(100%, 0%, 0%)" fill-opacity="1" d="M 4.714844 2.480469 L 6.214844 2.480469 L 6.214844 12.953125 L 4.714844 12.953125 L 4.714844 3.976562 L 3.230469 5.476562 L 3.230469 3.976562 L 4.714844 2.480469 "/>
<path fill-rule="nonzero" fill="rgb(100%, 0%, 0%)" fill-opacity="1" d="M 8.4375 2.480469 L 12.589844 2.480469 L 12.589844 3.976562 L 9.925781 3.976562 L 9.925781 6.359375 C 10.167969 6.269531 10.417969 6.226562 10.679688 6.222656 C 11.296875 6.222656 11.824219 6.441406 12.261719 6.882812 C 12.703125 7.320312 12.921875 7.851562 12.921875 8.472656 L 12.921875 10.710938 C 12.921875 11.328125 12.703125 11.859375 12.261719 12.296875 C 11.824219 12.734375 11.296875 12.953125 10.679688 12.953125 C 10.0625 12.953125 9.535156 12.734375 9.097656 12.296875 C 8.652344 11.859375 8.4375 11.328125 8.4375 10.710938 L 8.4375 9.957031 L 9.925781 9.957031 L 9.925781 10.710938 C 9.925781 10.921875 10 11.101562 10.144531 11.246094 C 10.292969 11.386719 10.472656 11.457031 10.679688 11.457031 C 10.886719 11.457031 11.0625 11.386719 11.203125 11.246094 C 11.351562 11.101562 11.425781 10.921875 11.425781 10.710938 L 11.425781 8.472656 C 11.425781 8.257812 11.351562 8.082031 11.203125 7.9375 C 11.0625 7.792969 10.886719 7.714844 10.679688 7.714844 C 10.472656 7.714844 10.292969 7.792969 10.144531 7.9375 C 10 8.082031 9.925781 8.257812 9.925781 8.472656 L 8.4375 8.472656 L 8.4375 2.480469 "/>
</svg>
