<?xml version="1.0" encoding="UTF-8"?>
<svg xmlns="http://www.w3.org/2000/svg" xmlns:xlink="http://www.w3.org/1999/xlink" width="14.244598" height="14" viewBox="0 0 14.244598 14">
<path fill-rule="nonzero" fill="rgb(0%, 0%, 0%)" fill-opacity="1" stroke-width="1.011478" stroke-linecap="butt" stroke-linejoin="miter" stroke="rgb(0%, 0%, 0%)" stroke-opacity="1" stroke-miterlimit="4" d="M 1716.580987 1909.965473 L 1370.083979 1909.965473 L 1370.083979 1570.894733 L 1715.151544 1570.894733 Z M 1716.580987 1909.965473 " transform="matrix(0.0409906, 0, 0, 0.0411741, -56.141052, -64.660669)"/>
<path fill-rule="nonzero" fill="rgb(100%, 100%, 0%)" fill-opacity="1" d="M 0.234375 4.109375 C 0.234375 3.933594 0.371094 3.789062 0.535156 3.789062 C 0.703125 3.789062 0.839844 3.933594 0.839844 4.109375 C 0.839844 4.285156 0.703125 4.429688 0.535156 4.429688 C 0.371094 4.429688 0.234375 4.285156 0.234375 4.109375 Z M 0.234375 4.109375 "/>
<path fill-rule="nonzero" fill="rgb(100%, 100%, 0%)" fill-opacity="1" d="M 0.71875 4.433594 C 0.71875 4.253906 0.851562 4.113281 1.019531 4.113281 C 1.1875 4.113281 1.320312 4.253906 1.320312 4.433594 C 1.320312 4.609375 1.1875 4.75 1.019531 4.75 C 0.851562 4.75 0.71875 4.609375 0.71875 4.433594 Z M 0.71875 4.433594 "/>
<path fill-rule="nonzero" fill="rgb(100%, 100%, 0%)" fill-opacity="1" d="M 0.71875 3.628906 C 0.71875 3.449219 0.851562 3.308594 1.019531 3.308594 C 1.1875 3.308594 1.320312 3.449219 1.320312 3.628906 C 1.320312 3.804688 1.1875 3.945312 1.019531 3.945312 C 0.851562 3.945312 0.71875 3.804688 0.71875 3.628906 Z M 0.71875 3.628906 "/>
<path fill-rule="nonzero" fill="rgb(100%, 100%, 0%)" fill-opacity="1" d="M 1.039062 3.867188 C 1.039062 3.691406 1.175781 3.550781 1.339844 3.550781 C 1.507812 3.550781 1.644531 3.691406 1.644531 3.867188 C 1.644531 4.046875 1.507812 4.1875 1.339844 4.1875 C 1.175781 4.1875 1.039062 4.046875 1.039062 3.867188 Z M 1.039062 3.867188 "/>
<path fill-rule="nonzero" fill="rgb(100%, 100%, 0%)" fill-opacity="1" d="M 1.199219 2.984375 C 1.199219 2.808594 1.335938 2.664062 1.503906 2.664062 C 1.667969 2.664062 1.804688 2.808594 1.804688 2.984375 C 1.804688 3.160156 1.667969 3.304688 1.503906 3.304688 C 1.335938 3.304688 1.199219 3.160156 1.199219 2.984375 Z M 1.199219 2.984375 "/>
<path fill-rule="nonzero" fill="rgb(100%, 100%, 0%)" fill-opacity="1" d="M 1.523438 3.304688 C 1.523438 3.128906 1.65625 2.984375 1.824219 2.984375 C 1.992188 2.984375 2.125 3.128906 2.125 3.304688 C 2.125 3.480469 1.992188 3.625 1.824219 3.625 C 1.65625 3.625 1.523438 3.480469 1.523438 3.304688 Z M 1.523438 3.304688 "/>
<path fill-rule="nonzero" fill="rgb(100%, 100%, 0%)" fill-opacity="1" d="M 1.683594 2.5 C 1.683594 2.324219 1.820312 2.179688 1.984375 2.179688 C 2.152344 2.179688 2.285156 2.324219 2.285156 2.5 C 2.285156 2.675781 2.152344 2.820312 1.984375 2.820312 C 1.820312 2.820312 1.683594 2.675781 1.683594 2.5 Z M 1.683594 2.5 "/>
<path fill-rule="nonzero" fill="rgb(100%, 100%, 0%)" fill-opacity="1" d="M 1.925781 2.820312 C 1.925781 2.644531 2.058594 2.503906 2.226562 2.503906 C 2.394531 2.503906 2.527344 2.644531 2.527344 2.820312 C 2.527344 3 2.394531 3.140625 2.226562 3.140625 C 2.058594 3.140625 1.925781 3 1.925781 2.820312 Z M 1.925781 2.820312 "/>
<path fill-rule="nonzero" fill="rgb(100%, 100%, 0%)" fill-opacity="1" d="M 2.003906 1.9375 C 2.003906 1.761719 2.140625 1.617188 2.308594 1.617188 C 2.472656 1.617188 2.609375 1.761719 2.609375 1.9375 C 2.609375 2.113281 2.472656 2.257812 2.308594 2.257812 C 2.140625 2.257812 2.003906 2.113281 2.003906 1.9375 Z M 2.003906 1.9375 "/>
<path fill-rule="nonzero" fill="rgb(100%, 100%, 0%)" fill-opacity="1" d="M 2.328125 2.257812 C 2.328125 2.082031 2.460938 1.9375 2.628906 1.9375 C 2.796875 1.9375 2.929688 2.082031 2.929688 2.257812 C 2.929688 2.433594 2.796875 2.578125 2.628906 2.578125 C 2.460938 2.578125 2.328125 2.433594 2.328125 2.257812 Z M 2.328125 2.257812 "/>
<path fill-rule="nonzero" fill="rgb(100%, 100%, 0%)" fill-opacity="1" d="M 2.488281 1.535156 C 2.488281 1.359375 2.625 1.214844 2.789062 1.214844 C 2.957031 1.214844 3.09375 1.359375 3.09375 1.535156 C 3.09375 1.710938 2.957031 1.855469 2.789062 1.855469 C 2.625 1.855469 2.488281 1.710938 2.488281 1.535156 Z M 2.488281 1.535156 "/>
<path fill-rule="nonzero" fill="rgb(100%, 100%, 0%)" fill-opacity="1" d="M 2.972656 0.890625 C 2.972656 0.714844 3.105469 0.570312 3.273438 0.570312 C 3.441406 0.570312 3.574219 0.714844 3.574219 0.890625 C 3.574219 1.066406 3.441406 1.210938 3.273438 1.210938 C 3.105469 1.210938 2.972656 1.066406 2.972656 0.890625 Z M 2.972656 0.890625 "/>
<path fill-rule="nonzero" fill="rgb(100%, 100%, 0%)" fill-opacity="1" d="M 2.972656 1.777344 C 2.972656 1.597656 3.105469 1.457031 3.273438 1.457031 C 3.441406 1.457031 3.574219 1.597656 3.574219 1.777344 C 3.574219 1.953125 3.441406 2.09375 3.273438 2.09375 C 3.105469 2.09375 2.972656 1.953125 2.972656 1.777344 Z M 2.972656 1.777344 "/>
<path fill-rule="nonzero" fill="rgb(100%, 100%, 0%)" fill-opacity="1" d="M 2.972656 2.417969 C 2.972656 2.242188 3.105469 2.101562 3.273438 2.101562 C 3.441406 2.101562 3.574219 2.242188 3.574219 2.417969 C 3.574219 2.597656 3.441406 2.738281 3.273438 2.738281 C 3.105469 2.738281 2.972656 2.597656 2.972656 2.417969 Z M 2.972656 2.417969 "/>
<path fill-rule="nonzero" fill="rgb(100%, 100%, 0%)" fill-opacity="1" d="M 2.972656 3.222656 C 2.972656 3.046875 3.105469 2.90625 3.273438 2.90625 C 3.441406 2.90625 3.574219 3.046875 3.574219 3.222656 C 3.574219 3.402344 3.441406 3.542969 3.273438 3.542969 C 3.105469 3.542969 2.972656 3.402344 2.972656 3.222656 Z M 2.972656 3.222656 "/>
<path fill-rule="nonzero" fill="rgb(100%, 100%, 0%)" fill-opacity="1" d="M 2.972656 4.03125 C 2.972656 3.851562 3.105469 3.710938 3.273438 3.710938 C 3.441406 3.710938 3.574219 3.851562 3.574219 4.03125 C 3.574219 4.207031 3.441406 4.347656 3.273438 4.347656 C 3.105469 4.347656 2.972656 4.207031 2.972656 4.03125 Z M 2.972656 4.03125 "/>
<path fill-rule="nonzero" fill="rgb(100%, 100%, 0%)" fill-opacity="1" d="M 2.972656 4.753906 C 2.972656 4.578125 3.105469 4.433594 3.273438 4.433594 C 3.441406 4.433594 3.574219 4.578125 3.574219 4.753906 C 3.574219 4.929688 3.441406 5.074219 3.273438 5.074219 C 3.105469 5.074219 2.972656 4.929688 2.972656 4.753906 Z M 2.972656 4.753906 "/>
<path fill-rule="nonzero" fill="rgb(100%, 100%, 0%)" fill-opacity="1" d="M 2.972656 5.558594 C 2.972656 5.382812 3.105469 5.238281 3.273438 5.238281 C 3.441406 5.238281 3.574219 5.382812 3.574219 5.558594 C 3.574219 5.734375 3.441406 5.878906 3.273438 5.878906 C 3.105469 5.878906 2.972656 5.734375 2.972656 5.558594 Z M 2.972656 5.558594 "/>
<path fill-rule="nonzero" fill="rgb(100%, 100%, 0%)" fill-opacity="1" d="M 2.972656 6.28125 C 2.972656 6.105469 3.105469 5.964844 3.273438 5.964844 C 3.441406 5.964844 3.574219 6.105469 3.574219 6.28125 C 3.574219 6.460938 3.441406 6.601562 3.273438 6.601562 C 3.105469 6.601562 2.972656 6.460938 2.972656 6.28125 Z M 2.972656 6.28125 "/>
<path fill-rule="nonzero" fill="rgb(100%, 100%, 0%)" fill-opacity="1" d="M 2.972656 7.089844 C 2.972656 6.910156 3.105469 6.769531 3.273438 6.769531 C 3.441406 6.769531 3.574219 6.910156 3.574219 7.089844 C 3.574219 7.265625 3.441406 7.40625 3.273438 7.40625 C 3.105469 7.40625 2.972656 7.265625 2.972656 7.089844 Z M 2.972656 7.089844 "/>
<path fill-rule="nonzero" fill="rgb(100%, 100%, 0%)" fill-opacity="1" d="M 2.972656 7.972656 C 2.972656 7.796875 3.105469 7.652344 3.273438 7.652344 C 3.441406 7.652344 3.574219 7.796875 3.574219 7.972656 C 3.574219 8.148438 3.441406 8.292969 3.273438 8.292969 C 3.105469 8.292969 2.972656 8.148438 2.972656 7.972656 Z M 2.972656 7.972656 "/>
<path fill-rule="nonzero" fill="rgb(100%, 100%, 0%)" fill-opacity="1" d="M 2.972656 8.777344 C 2.972656 8.601562 3.105469 8.457031 3.273438 8.457031 C 3.441406 8.457031 3.574219 8.601562 3.574219 8.777344 C 3.574219 8.953125 3.441406 9.097656 3.273438 9.097656 C 3.105469 9.097656 2.972656 8.953125 2.972656 8.777344 Z M 2.972656 8.777344 "/>
<path fill-rule="nonzero" fill="rgb(100%, 100%, 0%)" fill-opacity="1" d="M 2.972656 9.582031 C 2.972656 9.40625 3.105469 9.261719 3.273438 9.261719 C 3.441406 9.261719 3.574219 9.40625 3.574219 9.582031 C 3.574219 9.757812 3.441406 9.902344 3.273438 9.902344 C 3.105469 9.902344 2.972656 9.757812 2.972656 9.582031 Z M 2.972656 9.582031 "/>
<path fill-rule="nonzero" fill="rgb(100%, 100%, 0%)" fill-opacity="1" d="M 2.972656 10.46875 C 2.972656 10.292969 3.105469 10.148438 3.273438 10.148438 C 3.441406 10.148438 3.574219 10.292969 3.574219 10.46875 C 3.574219 10.644531 3.441406 10.789062 3.273438 10.789062 C 3.105469 10.789062 2.972656 10.644531 2.972656 10.46875 Z M 2.972656 10.46875 "/>
<path fill-rule="nonzero" fill="rgb(100%, 100%, 0%)" fill-opacity="1" d="M 2.972656 11.191406 C 2.972656 11.015625 3.105469 10.875 3.273438 10.875 C 3.441406 10.875 3.574219 11.015625 3.574219 11.191406 C 3.574219 11.371094 3.441406 11.511719 3.273438 11.511719 C 3.105469 11.511719 2.972656 11.371094 2.972656 11.191406 Z M 2.972656 11.191406 "/>
<path fill-rule="nonzero" fill="rgb(100%, 100%, 0%)" fill-opacity="1" d="M 2.972656 11.917969 C 2.972656 11.742188 3.105469 11.597656 3.273438 11.597656 C 3.441406 11.597656 3.574219 11.742188 3.574219 11.917969 C 3.574219 12.09375 3.441406 12.238281 3.273438 12.238281 C 3.105469 12.238281 2.972656 12.09375 2.972656 11.917969 Z M 2.972656 11.917969 "/>
<path fill-rule="nonzero" fill="rgb(100%, 100%, 0%)" fill-opacity="1" d="M 2.972656 12.640625 C 2.972656 12.464844 3.105469 12.320312 3.273438 12.320312 C 3.441406 12.320312 3.574219 12.464844 3.574219 12.640625 C 3.574219 12.816406 3.441406 12.960938 3.273438 12.960938 C 3.105469 12.960938 2.972656 12.816406 2.972656 12.640625 Z M 2.972656 12.640625 "/>
<path fill-rule="nonzero" fill="rgb(100%, 100%, 0%)" fill-opacity="1" d="M 2.972656 13.367188 C 2.972656 13.1875 3.105469 13.046875 3.273438 13.046875 C 3.441406 13.046875 3.574219 13.1875 3.574219 13.367188 C 3.574219 13.542969 3.441406 13.683594 3.273438 13.683594 C 3.105469 13.683594 2.972656 13.542969 2.972656 13.367188 Z M 2.972656 13.367188 "/>
<path fill-rule="nonzero" fill="rgb(100%, 100%, 0%)" fill-opacity="1" d="M 3.535156 13.367188 C 3.535156 13.1875 3.671875 13.046875 3.835938 13.046875 C 4.003906 13.046875 4.136719 13.1875 4.136719 13.367188 C 4.136719 13.542969 4.003906 13.683594 3.835938 13.683594 C 3.671875 13.683594 3.535156 13.542969 3.535156 13.367188 Z M 3.535156 13.367188 "/>
<path fill-rule="nonzero" fill="rgb(100%, 100%, 0%)" fill-opacity="1" d="M 3.535156 12.640625 C 3.535156 12.464844 3.671875 12.320312 3.835938 12.320312 C 4.003906 12.320312 4.136719 12.464844 4.136719 12.640625 C 4.136719 12.816406 4.003906 12.960938 3.835938 12.960938 C 3.671875 12.960938 3.535156 12.816406 3.535156 12.640625 Z M 3.535156 12.640625 "/>
<path fill-rule="nonzero" fill="rgb(100%, 100%, 0%)" fill-opacity="1" d="M 3.535156 11.917969 C 3.535156 11.742188 3.671875 11.597656 3.835938 11.597656 C 4.003906 11.597656 4.136719 11.742188 4.136719 11.917969 C 4.136719 12.09375 4.003906 12.238281 3.835938 12.238281 C 3.671875 12.238281 3.535156 12.09375 3.535156 11.917969 Z M 3.535156 11.917969 "/>
<path fill-rule="nonzero" fill="rgb(100%, 100%, 0%)" fill-opacity="1" d="M 3.535156 11.191406 C 3.535156 11.015625 3.671875 10.875 3.835938 10.875 C 4.003906 10.875 4.136719 11.015625 4.136719 11.191406 C 4.136719 11.371094 4.003906 11.511719 3.835938 11.511719 C 3.671875 11.511719 3.535156 11.371094 3.535156 11.191406 Z M 3.535156 11.191406 "/>
<path fill-rule="nonzero" fill="rgb(100%, 100%, 0%)" fill-opacity="1" d="M 3.535156 10.46875 C 3.535156 10.292969 3.671875 10.148438 3.835938 10.148438 C 4.003906 10.148438 4.136719 10.292969 4.136719 10.46875 C 4.136719 10.644531 4.003906 10.789062 3.835938 10.789062 C 3.671875 10.789062 3.535156 10.644531 3.535156 10.46875 Z M 3.535156 10.46875 "/>
<path fill-rule="nonzero" fill="rgb(100%, 100%, 0%)" fill-opacity="1" d="M 3.535156 9.582031 C 3.535156 9.40625 3.671875 9.261719 3.835938 9.261719 C 4.003906 9.261719 4.136719 9.40625 4.136719 9.582031 C 4.136719 9.757812 4.003906 9.902344 3.835938 9.902344 C 3.671875 9.902344 3.535156 9.757812 3.535156 9.582031 Z M 3.535156 9.582031 "/>
<path fill-rule="nonzero" fill="rgb(100%, 100%, 0%)" fill-opacity="1" d="M 3.535156 8.777344 C 3.535156 8.601562 3.671875 8.457031 3.835938 8.457031 C 4.003906 8.457031 4.136719 8.601562 4.136719 8.777344 C 4.136719 8.953125 4.003906 9.097656 3.835938 9.097656 C 3.671875 9.097656 3.535156 8.953125 3.535156 8.777344 Z M 3.535156 8.777344 "/>
<path fill-rule="nonzero" fill="rgb(100%, 100%, 0%)" fill-opacity="1" d="M 3.535156 7.972656 C 3.535156 7.796875 3.671875 7.652344 3.835938 7.652344 C 4.003906 7.652344 4.136719 7.796875 4.136719 7.972656 C 4.136719 8.148438 4.003906 8.292969 3.835938 8.292969 C 3.671875 8.292969 3.535156 8.148438 3.535156 7.972656 Z M 3.535156 7.972656 "/>
<path fill-rule="nonzero" fill="rgb(100%, 100%, 0%)" fill-opacity="1" d="M 3.535156 7.089844 C 3.535156 6.910156 3.671875 6.769531 3.835938 6.769531 C 4.003906 6.769531 4.136719 6.910156 4.136719 7.089844 C 4.136719 7.265625 4.003906 7.40625 3.835938 7.40625 C 3.671875 7.40625 3.535156 7.265625 3.535156 7.089844 Z M 3.535156 7.089844 "/>
<path fill-rule="nonzero" fill="rgb(100%, 100%, 0%)" fill-opacity="1" d="M 3.535156 6.28125 C 3.535156 6.105469 3.671875 5.964844 3.835938 5.964844 C 4.003906 5.964844 4.136719 6.105469 4.136719 6.28125 C 4.136719 6.460938 4.003906 6.601562 3.835938 6.601562 C 3.671875 6.601562 3.535156 6.460938 3.535156 6.28125 Z M 3.535156 6.28125 "/>
<path fill-rule="nonzero" fill="rgb(100%, 100%, 0%)" fill-opacity="1" d="M 3.535156 5.558594 C 3.535156 5.382812 3.671875 5.238281 3.835938 5.238281 C 4.003906 5.238281 4.136719 5.382812 4.136719 5.558594 C 4.136719 5.734375 4.003906 5.878906 3.835938 5.878906 C 3.671875 5.878906 3.535156 5.734375 3.535156 5.558594 Z M 3.535156 5.558594 "/>
<path fill-rule="nonzero" fill="rgb(100%, 100%, 0%)" fill-opacity="1" d="M 3.535156 4.753906 C 3.535156 4.578125 3.671875 4.433594 3.835938 4.433594 C 4.003906 4.433594 4.136719 4.578125 4.136719 4.753906 C 4.136719 4.929688 4.003906 5.074219 3.835938 5.074219 C 3.671875 5.074219 3.535156 4.929688 3.535156 4.753906 Z M 3.535156 4.753906 "/>
<path fill-rule="nonzero" fill="rgb(100%, 100%, 0%)" fill-opacity="1" d="M 3.535156 4.03125 C 3.535156 3.851562 3.671875 3.710938 3.835938 3.710938 C 4.003906 3.710938 4.136719 3.851562 4.136719 4.03125 C 4.136719 4.207031 4.003906 4.347656 3.835938 4.347656 C 3.671875 4.347656 3.535156 4.207031 3.535156 4.03125 Z M 3.535156 4.03125 "/>
<path fill-rule="nonzero" fill="rgb(100%, 100%, 0%)" fill-opacity="1" d="M 3.535156 3.222656 C 3.535156 3.046875 3.671875 2.90625 3.835938 2.90625 C 4.003906 2.90625 4.136719 3.046875 4.136719 3.222656 C 4.136719 3.402344 4.003906 3.542969 3.835938 3.542969 C 3.671875 3.542969 3.535156 3.402344 3.535156 3.222656 Z M 3.535156 3.222656 "/>
<path fill-rule="nonzero" fill="rgb(100%, 100%, 0%)" fill-opacity="1" d="M 3.535156 2.417969 C 3.535156 2.242188 3.671875 2.101562 3.835938 2.101562 C 4.003906 2.101562 4.136719 2.242188 4.136719 2.417969 C 4.136719 2.597656 4.003906 2.738281 3.835938 2.738281 C 3.671875 2.738281 3.535156 2.597656 3.535156 2.417969 Z M 3.535156 2.417969 "/>
<path fill-rule="nonzero" fill="rgb(100%, 100%, 0%)" fill-opacity="1" d="M 3.535156 1.777344 C 3.535156 1.597656 3.671875 1.457031 3.835938 1.457031 C 4.003906 1.457031 4.136719 1.597656 4.136719 1.777344 C 4.136719 1.953125 4.003906 2.09375 3.835938 2.09375 C 3.671875 2.09375 3.535156 1.953125 3.535156 1.777344 Z M 3.535156 1.777344 "/>
<path fill-rule="nonzero" fill="rgb(100%, 100%, 0%)" fill-opacity="1" d="M 3.535156 0.890625 C 3.535156 0.714844 3.671875 0.570312 3.835938 0.570312 C 4.003906 0.570312 4.136719 0.714844 4.136719 0.890625 C 4.136719 1.066406 4.003906 1.210938 3.835938 1.210938 C 3.671875 1.210938 3.535156 1.066406 3.535156 0.890625 Z M 3.535156 0.890625 "/>
<path fill-rule="nonzero" fill="rgb(100%, 100%, 0%)" fill-opacity="1" d="M 6.675781 4.03125 C 6.675781 3.851562 6.8125 3.710938 6.976562 3.710938 C 7.144531 3.710938 7.277344 3.851562 7.277344 4.03125 C 7.277344 4.207031 7.144531 4.347656 6.976562 4.347656 C 6.8125 4.347656 6.675781 4.207031 6.675781 4.03125 Z M 6.675781 4.03125 "/>
<path fill-rule="nonzero" fill="rgb(100%, 100%, 0%)" fill-opacity="1" d="M 6.675781 4.835938 C 6.675781 4.65625 6.8125 4.515625 6.976562 4.515625 C 7.144531 4.515625 7.277344 4.65625 7.277344 4.835938 C 7.277344 5.011719 7.144531 5.152344 6.976562 5.152344 C 6.8125 5.152344 6.675781 5.011719 6.675781 4.835938 Z M 6.675781 4.835938 "/>
<path fill-rule="nonzero" fill="rgb(100%, 100%, 0%)" fill-opacity="1" d="M 6.675781 5.800781 C 6.675781 5.625 6.8125 5.480469 6.976562 5.480469 C 7.144531 5.480469 7.277344 5.625 7.277344 5.800781 C 7.277344 5.976562 7.144531 6.121094 6.976562 6.121094 C 6.8125 6.121094 6.675781 5.976562 6.675781 5.800781 Z M 6.675781 5.800781 "/>
<path fill-rule="nonzero" fill="rgb(100%, 100%, 0%)" fill-opacity="1" d="M 6.675781 6.605469 C 6.675781 6.429688 6.8125 6.285156 6.976562 6.285156 C 7.144531 6.285156 7.277344 6.429688 7.277344 6.605469 C 7.277344 6.78125 7.144531 6.925781 6.976562 6.925781 C 6.8125 6.925781 6.675781 6.78125 6.675781 6.605469 Z M 6.675781 6.605469 "/>
<path fill-rule="nonzero" fill="rgb(100%, 100%, 0%)" fill-opacity="1" d="M 6.675781 7.570312 C 6.675781 7.394531 6.8125 7.25 6.976562 7.25 C 7.144531 7.25 7.277344 7.394531 7.277344 7.570312 C 7.277344 7.746094 7.144531 7.890625 6.976562 7.890625 C 6.8125 7.890625 6.675781 7.746094 6.675781 7.570312 Z M 6.675781 7.570312 "/>
<path fill-rule="nonzero" fill="rgb(100%, 100%, 0%)" fill-opacity="1" d="M 6.675781 8.457031 C 6.675781 8.28125 6.8125 8.136719 6.976562 8.136719 C 7.144531 8.136719 7.277344 8.28125 7.277344 8.457031 C 7.277344 8.632812 7.144531 8.777344 6.976562 8.777344 C 6.8125 8.777344 6.675781 8.632812 6.675781 8.457031 Z M 6.675781 8.457031 "/>
<path fill-rule="nonzero" fill="rgb(100%, 100%, 0%)" fill-opacity="1" d="M 6.675781 9.101562 C 6.675781 8.921875 6.8125 8.78125 6.976562 8.78125 C 7.144531 8.78125 7.277344 8.921875 7.277344 9.101562 C 7.277344 9.277344 7.144531 9.417969 6.976562 9.417969 C 6.8125 9.417969 6.675781 9.277344 6.675781 9.101562 Z M 6.675781 9.101562 "/>
<path fill-rule="nonzero" fill="rgb(100%, 100%, 0%)" fill-opacity="1" d="M 6.675781 9.90625 C 6.675781 9.726562 6.8125 9.585938 6.976562 9.585938 C 7.144531 9.585938 7.277344 9.726562 7.277344 9.90625 C 7.277344 10.082031 7.144531 10.222656 6.976562 10.222656 C 6.8125 10.222656 6.675781 10.082031 6.675781 9.90625 Z M 6.675781 9.90625 "/>
<path fill-rule="nonzero" fill="rgb(100%, 100%, 0%)" fill-opacity="1" d="M 6.191406 4.03125 C 6.191406 3.851562 6.328125 3.710938 6.496094 3.710938 C 6.660156 3.710938 6.796875 3.851562 6.796875 4.03125 C 6.796875 4.207031 6.660156 4.347656 6.496094 4.347656 C 6.328125 4.347656 6.191406 4.207031 6.191406 4.03125 Z M 6.191406 4.03125 "/>
<path fill-rule="nonzero" fill="rgb(100%, 100%, 0%)" fill-opacity="1" d="M 6.191406 4.835938 C 6.191406 4.65625 6.328125 4.515625 6.496094 4.515625 C 6.660156 4.515625 6.796875 4.65625 6.796875 4.835938 C 6.796875 5.011719 6.660156 5.152344 6.496094 5.152344 C 6.328125 5.152344 6.191406 5.011719 6.191406 4.835938 Z M 6.191406 4.835938 "/>
<path fill-rule="nonzero" fill="rgb(100%, 100%, 0%)" fill-opacity="1" d="M 6.191406 5.800781 C 6.191406 5.625 6.328125 5.480469 6.496094 5.480469 C 6.660156 5.480469 6.796875 5.625 6.796875 5.800781 C 6.796875 5.976562 6.660156 6.121094 6.496094 6.121094 C 6.328125 6.121094 6.191406 5.976562 6.191406 5.800781 Z M 6.191406 5.800781 "/>
<path fill-rule="nonzero" fill="rgb(100%, 100%, 0%)" fill-opacity="1" d="M 6.191406 6.605469 C 6.191406 6.429688 6.328125 6.285156 6.496094 6.285156 C 6.660156 6.285156 6.796875 6.429688 6.796875 6.605469 C 6.796875 6.78125 6.660156 6.925781 6.496094 6.925781 C 6.328125 6.925781 6.191406 6.78125 6.191406 6.605469 Z M 6.191406 6.605469 "/>
<path fill-rule="nonzero" fill="rgb(100%, 100%, 0%)" fill-opacity="1" d="M 6.191406 7.570312 C 6.191406 7.394531 6.328125 7.25 6.496094 7.25 C 6.660156 7.25 6.796875 7.394531 6.796875 7.570312 C 6.796875 7.746094 6.660156 7.890625 6.496094 7.890625 C 6.328125 7.890625 6.191406 7.746094 6.191406 7.570312 Z M 6.191406 7.570312 "/>
<path fill-rule="nonzero" fill="rgb(100%, 100%, 0%)" fill-opacity="1" d="M 6.191406 8.457031 C 6.191406 8.28125 6.328125 8.136719 6.496094 8.136719 C 6.660156 8.136719 6.796875 8.28125 6.796875 8.457031 C 6.796875 8.632812 6.660156 8.777344 6.496094 8.777344 C 6.328125 8.777344 6.191406 8.632812 6.191406 8.457031 Z M 6.191406 8.457031 "/>
<path fill-rule="nonzero" fill="rgb(100%, 100%, 0%)" fill-opacity="1" d="M 6.191406 9.101562 C 6.191406 8.921875 6.328125 8.78125 6.496094 8.78125 C 6.660156 8.78125 6.796875 8.921875 6.796875 9.101562 C 6.796875 9.277344 6.660156 9.417969 6.496094 9.417969 C 6.328125 9.417969 6.191406 9.277344 6.191406 9.101562 Z M 6.191406 9.101562 "/>
<path fill-rule="nonzero" fill="rgb(100%, 100%, 0%)" fill-opacity="1" d="M 6.191406 9.90625 C 6.191406 9.726562 6.328125 9.585938 6.496094 9.585938 C 6.660156 9.585938 6.796875 9.726562 6.796875 9.90625 C 6.796875 10.082031 6.660156 10.222656 6.496094 10.222656 C 6.328125 10.222656 6.191406 10.082031 6.191406 9.90625 Z M 6.191406 9.90625 "/>
<path fill-rule="nonzero" fill="rgb(100%, 100%, 0%)" fill-opacity="1" d="M 6.191406 9.90625 C 6.191406 9.726562 6.328125 9.585938 6.496094 9.585938 C 6.660156 9.585938 6.796875 9.726562 6.796875 9.90625 C 6.796875 10.082031 6.660156 10.222656 6.496094 10.222656 C 6.328125 10.222656 6.191406 10.082031 6.191406 9.90625 Z M 6.191406 9.90625 "/>
<path fill-rule="nonzero" fill="rgb(100%, 100%, 0%)" fill-opacity="1" d="M 13.207031 3.972656 C 13.207031 3.792969 13.339844 3.652344 13.507812 3.652344 C 13.675781 3.652344 13.808594 3.792969 13.808594 3.972656 C 13.808594 4.148438 13.675781 4.289062 13.507812 4.289062 C 13.339844 4.289062 13.207031 4.148438 13.207031 3.972656 Z M 13.207031 3.972656 "/>
<path fill-rule="nonzero" fill="rgb(100%, 100%, 0%)" fill-opacity="1" d="M 13.207031 4.777344 C 13.207031 4.597656 13.339844 4.457031 13.507812 4.457031 C 13.675781 4.457031 13.808594 4.597656 13.808594 4.777344 C 13.808594 4.953125 13.675781 5.09375 13.507812 5.09375 C 13.339844 5.09375 13.207031 4.953125 13.207031 4.777344 Z M 13.207031 4.777344 "/>
<path fill-rule="nonzero" fill="rgb(100%, 100%, 0%)" fill-opacity="1" d="M 13.207031 5.742188 C 13.207031 5.566406 13.339844 5.421875 13.507812 5.421875 C 13.675781 5.421875 13.808594 5.566406 13.808594 5.742188 C 13.808594 5.917969 13.675781 6.0625 13.507812 6.0625 C 13.339844 6.0625 13.207031 5.917969 13.207031 5.742188 Z M 13.207031 5.742188 "/>
<path fill-rule="nonzero" fill="rgb(100%, 100%, 0%)" fill-opacity="1" d="M 13.207031 6.546875 C 13.207031 6.371094 13.339844 6.226562 13.507812 6.226562 C 13.675781 6.226562 13.808594 6.371094 13.808594 6.546875 C 13.808594 6.722656 13.675781 6.867188 13.507812 6.867188 C 13.339844 6.867188 13.207031 6.722656 13.207031 6.546875 Z M 13.207031 6.546875 "/>
<path fill-rule="nonzero" fill="rgb(100%, 100%, 0%)" fill-opacity="1" d="M 13.207031 7.511719 C 13.207031 7.335938 13.339844 7.191406 13.507812 7.191406 C 13.675781 7.191406 13.808594 7.335938 13.808594 7.511719 C 13.808594 7.6875 13.675781 7.832031 13.507812 7.832031 C 13.339844 7.832031 13.207031 7.6875 13.207031 7.511719 Z M 13.207031 7.511719 "/>
<path fill-rule="nonzero" fill="rgb(100%, 100%, 0%)" fill-opacity="1" d="M 13.207031 8.398438 C 13.207031 8.222656 13.339844 8.078125 13.507812 8.078125 C 13.675781 8.078125 13.808594 8.222656 13.808594 8.398438 C 13.808594 8.574219 13.675781 8.71875 13.507812 8.71875 C 13.339844 8.71875 13.207031 8.574219 13.207031 8.398438 Z M 13.207031 8.398438 "/>
<path fill-rule="nonzero" fill="rgb(100%, 100%, 0%)" fill-opacity="1" d="M 13.207031 9.042969 C 13.207031 8.863281 13.339844 8.722656 13.507812 8.722656 C 13.675781 8.722656 13.808594 8.863281 13.808594 9.042969 C 13.808594 9.21875 13.675781 9.359375 13.507812 9.359375 C 13.339844 9.359375 13.207031 9.21875 13.207031 9.042969 Z M 13.207031 9.042969 "/>
<path fill-rule="nonzero" fill="rgb(100%, 100%, 0%)" fill-opacity="1" d="M 13.207031 9.847656 C 13.207031 9.667969 13.339844 9.527344 13.507812 9.527344 C 13.675781 9.527344 13.808594 9.667969 13.808594 9.847656 C 13.808594 10.023438 13.675781 10.164062 13.507812 10.164062 C 13.339844 10.164062 13.207031 10.023438 13.207031 9.847656 Z M 13.207031 9.847656 "/>
<path fill-rule="nonzero" fill="rgb(100%, 100%, 0%)" fill-opacity="1" d="M 12.722656 3.972656 C 12.722656 3.792969 12.859375 3.652344 13.023438 3.652344 C 13.191406 3.652344 13.324219 3.792969 13.324219 3.972656 C 13.324219 4.148438 13.191406 4.289062 13.023438 4.289062 C 12.859375 4.289062 12.722656 4.148438 12.722656 3.972656 Z M 12.722656 3.972656 "/>
<path fill-rule="nonzero" fill="rgb(100%, 100%, 0%)" fill-opacity="1" d="M 12.722656 4.777344 C 12.722656 4.597656 12.859375 4.457031 13.023438 4.457031 C 13.191406 4.457031 13.324219 4.597656 13.324219 4.777344 C 13.324219 4.953125 13.191406 5.09375 13.023438 5.09375 C 12.859375 5.09375 12.722656 4.953125 12.722656 4.777344 Z M 12.722656 4.777344 "/>
<path fill-rule="nonzero" fill="rgb(100%, 100%, 0%)" fill-opacity="1" d="M 12.722656 5.742188 C 12.722656 5.566406 12.859375 5.421875 13.023438 5.421875 C 13.191406 5.421875 13.324219 5.566406 13.324219 5.742188 C 13.324219 5.917969 13.191406 6.0625 13.023438 6.0625 C 12.859375 6.0625 12.722656 5.917969 12.722656 5.742188 Z M 12.722656 5.742188 "/>
<path fill-rule="nonzero" fill="rgb(100%, 100%, 0%)" fill-opacity="1" d="M 12.722656 6.546875 C 12.722656 6.371094 12.859375 6.226562 13.023438 6.226562 C 13.191406 6.226562 13.324219 6.371094 13.324219 6.546875 C 13.324219 6.722656 13.191406 6.867188 13.023438 6.867188 C 12.859375 6.867188 12.722656 6.722656 12.722656 6.546875 Z M 12.722656 6.546875 "/>
<path fill-rule="nonzero" fill="rgb(100%, 100%, 0%)" fill-opacity="1" d="M 12.722656 7.511719 C 12.722656 7.335938 12.859375 7.191406 13.023438 7.191406 C 13.191406 7.191406 13.324219 7.335938 13.324219 7.511719 C 13.324219 7.6875 13.191406 7.832031 13.023438 7.832031 C 12.859375 7.832031 12.722656 7.6875 12.722656 7.511719 Z M 12.722656 7.511719 "/>
<path fill-rule="nonzero" fill="rgb(100%, 100%, 0%)" fill-opacity="1" d="M 12.722656 8.398438 C 12.722656 8.222656 12.859375 8.078125 13.023438 8.078125 C 13.191406 8.078125 13.324219 8.222656 13.324219 8.398438 C 13.324219 8.574219 13.191406 8.71875 13.023438 8.71875 C 12.859375 8.71875 12.722656 8.574219 12.722656 8.398438 Z M 12.722656 8.398438 "/>
<path fill-rule="nonzero" fill="rgb(100%, 100%, 0%)" fill-opacity="1" d="M 12.722656 9.042969 C 12.722656 8.863281 12.859375 8.722656 13.023438 8.722656 C 13.191406 8.722656 13.324219 8.863281 13.324219 9.042969 C 13.324219 9.21875 13.191406 9.359375 13.023438 9.359375 C 12.859375 9.359375 12.722656 9.21875 12.722656 9.042969 Z M 12.722656 9.042969 "/>
<path fill-rule="nonzero" fill="rgb(100%, 100%, 0%)" fill-opacity="1" d="M 12.722656 9.847656 C 12.722656 9.667969 12.859375 9.527344 13.023438 9.527344 C 13.191406 9.527344 13.324219 9.667969 13.324219 9.847656 C 13.324219 10.023438 13.191406 10.164062 13.023438 10.164062 C 12.859375 10.164062 12.722656 10.023438 12.722656 9.847656 Z M 12.722656 9.847656 "/>
<path fill-rule="nonzero" fill="rgb(100%, 100%, 0%)" fill-opacity="1" d="M 12.722656 9.847656 C 12.722656 9.667969 12.859375 9.527344 13.023438 9.527344 C 13.191406 9.527344 13.324219 9.667969 13.324219 9.847656 C 13.324219 10.023438 13.191406 10.164062 13.023438 10.164062 C 12.859375 10.164062 12.722656 10.023438 12.722656 9.847656 Z M 12.722656 9.847656 "/>
<path fill-rule="nonzero" fill="rgb(100%, 100%, 0%)" fill-opacity="1" d="M 6.757812 3.386719 C 6.757812 3.210938 6.890625 3.066406 7.058594 3.066406 C 7.226562 3.066406 7.359375 3.210938 7.359375 3.386719 C 7.359375 3.5625 7.226562 3.707031 7.058594 3.707031 C 6.890625 3.707031 6.757812 3.5625 6.757812 3.386719 Z M 6.757812 3.386719 "/>
<path fill-rule="nonzero" fill="rgb(100%, 100%, 0%)" fill-opacity="1" d="M 6.996094 2.660156 C 6.996094 2.484375 7.132812 2.339844 7.300781 2.339844 C 7.464844 2.339844 7.601562 2.484375 7.601562 2.660156 C 7.601562 2.835938 7.464844 2.980469 7.300781 2.980469 C 7.132812 2.980469 6.996094 2.835938 6.996094 2.660156 Z M 6.996094 2.660156 "/>
<path fill-rule="nonzero" fill="rgb(100%, 100%, 0%)" fill-opacity="1" d="M 7.5625 1.9375 C 7.5625 1.761719 7.695312 1.617188 7.863281 1.617188 C 8.03125 1.617188 8.164062 1.761719 8.164062 1.9375 C 8.164062 2.113281 8.03125 2.257812 7.863281 2.257812 C 7.695312 2.257812 7.5625 2.113281 7.5625 1.9375 Z M 7.5625 1.9375 "/>
<path fill-rule="nonzero" fill="rgb(100%, 100%, 0%)" fill-opacity="1" d="M 8.125 1.453125 C 8.125 1.277344 8.257812 1.132812 8.425781 1.132812 C 8.59375 1.132812 8.726562 1.277344 8.726562 1.453125 C 8.726562 1.628906 8.59375 1.773438 8.425781 1.773438 C 8.257812 1.773438 8.125 1.628906 8.125 1.453125 Z M 8.125 1.453125 "/>
<path fill-rule="nonzero" fill="rgb(100%, 100%, 0%)" fill-opacity="1" d="M 8.847656 1.132812 C 8.847656 0.957031 8.984375 0.8125 9.152344 0.8125 C 9.316406 0.8125 9.453125 0.957031 9.453125 1.132812 C 9.453125 1.308594 9.316406 1.453125 9.152344 1.453125 C 8.984375 1.453125 8.847656 1.308594 8.847656 1.132812 Z M 8.847656 1.132812 "/>
<path fill-rule="nonzero" fill="rgb(100%, 100%, 0%)" fill-opacity="1" d="M 9.574219 1.132812 C 9.574219 0.957031 9.707031 0.8125 9.875 0.8125 C 10.042969 0.8125 10.175781 0.957031 10.175781 1.132812 C 10.175781 1.308594 10.042969 1.453125 9.875 1.453125 C 9.707031 1.453125 9.574219 1.308594 9.574219 1.132812 Z M 9.574219 1.132812 "/>
<path fill-rule="nonzero" fill="rgb(100%, 100%, 0%)" fill-opacity="1" d="M 10.296875 1.132812 C 10.296875 0.957031 10.433594 0.8125 10.597656 0.8125 C 10.765625 0.8125 10.902344 0.957031 10.902344 1.132812 C 10.902344 1.308594 10.765625 1.453125 10.597656 1.453125 C 10.433594 1.453125 10.296875 1.308594 10.296875 1.132812 Z M 10.296875 1.132812 "/>
<path fill-rule="nonzero" fill="rgb(100%, 100%, 0%)" fill-opacity="1" d="M 11.101562 1.375 C 11.101562 1.195312 11.238281 1.054688 11.40625 1.054688 C 11.570312 1.054688 11.707031 1.195312 11.707031 1.375 C 11.707031 1.550781 11.570312 1.691406 11.40625 1.691406 C 11.238281 1.691406 11.101562 1.550781 11.101562 1.375 Z M 11.101562 1.375 "/>
<path fill-rule="nonzero" fill="rgb(100%, 100%, 0%)" fill-opacity="1" d="M 11.746094 1.855469 C 11.746094 1.679688 11.882812 1.535156 12.046875 1.535156 C 12.214844 1.535156 12.351562 1.679688 12.351562 1.855469 C 12.351562 2.03125 12.214844 2.175781 12.046875 2.175781 C 11.882812 2.175781 11.746094 2.03125 11.746094 1.855469 Z M 11.746094 1.855469 "/>
<path fill-rule="nonzero" fill="rgb(100%, 100%, 0%)" fill-opacity="1" d="M 12.230469 2.417969 C 12.230469 2.242188 12.363281 2.101562 12.53125 2.101562 C 12.699219 2.101562 12.832031 2.242188 12.832031 2.417969 C 12.832031 2.597656 12.699219 2.738281 12.53125 2.738281 C 12.363281 2.738281 12.230469 2.597656 12.230469 2.417969 Z M 12.230469 2.417969 "/>
<path fill-rule="nonzero" fill="rgb(100%, 100%, 0%)" fill-opacity="1" d="M 12.632812 3.144531 C 12.632812 2.96875 12.765625 2.824219 12.933594 2.824219 C 13.101562 2.824219 13.234375 2.96875 13.234375 3.144531 C 13.234375 3.320312 13.101562 3.464844 12.933594 3.464844 C 12.765625 3.464844 12.632812 3.320312 12.632812 3.144531 Z M 12.632812 3.144531 "/>
<path fill-rule="nonzero" fill="rgb(100%, 100%, 0%)" fill-opacity="1" d="M 13.113281 3.0625 C 13.113281 2.886719 13.25 2.742188 13.417969 2.742188 C 13.582031 2.742188 13.71875 2.886719 13.71875 3.0625 C 13.71875 3.238281 13.582031 3.382812 13.417969 3.382812 C 13.25 3.382812 13.113281 3.238281 13.113281 3.0625 Z M 13.113281 3.0625 "/>
<path fill-rule="nonzero" fill="rgb(100%, 100%, 0%)" fill-opacity="1" d="M 12.632812 2.179688 C 12.632812 2 12.765625 1.859375 12.933594 1.859375 C 13.101562 1.859375 13.234375 2 13.234375 2.179688 C 13.234375 2.355469 13.101562 2.496094 12.933594 2.496094 C 12.765625 2.496094 12.632812 2.355469 12.632812 2.179688 Z M 12.632812 2.179688 "/>
<path fill-rule="nonzero" fill="rgb(100%, 100%, 0%)" fill-opacity="1" d="M 12.070312 1.535156 C 12.070312 1.359375 12.203125 1.214844 12.371094 1.214844 C 12.535156 1.214844 12.671875 1.359375 12.671875 1.535156 C 12.671875 1.710938 12.535156 1.855469 12.371094 1.855469 C 12.203125 1.855469 12.070312 1.710938 12.070312 1.535156 Z M 12.070312 1.535156 "/>
<path fill-rule="nonzero" fill="rgb(100%, 100%, 0%)" fill-opacity="1" d="M 11.34375 1.050781 C 11.34375 0.875 11.480469 0.730469 11.644531 0.730469 C 11.8125 0.730469 11.949219 0.875 11.949219 1.050781 C 11.949219 1.226562 11.8125 1.371094 11.644531 1.371094 C 11.480469 1.371094 11.34375 1.226562 11.34375 1.050781 Z M 11.34375 1.050781 "/>
<path fill-rule="nonzero" fill="rgb(100%, 100%, 0%)" fill-opacity="1" d="M 10.457031 0.730469 C 10.457031 0.554688 10.59375 0.410156 10.761719 0.410156 C 10.925781 0.410156 11.0625 0.554688 11.0625 0.730469 C 11.0625 0.90625 10.925781 1.050781 10.761719 1.050781 C 10.59375 1.050781 10.457031 0.90625 10.457031 0.730469 Z M 10.457031 0.730469 "/>
<path fill-rule="nonzero" fill="rgb(100%, 100%, 0%)" fill-opacity="1" d="M 9.574219 0.648438 C 9.574219 0.472656 9.707031 0.328125 9.875 0.328125 C 10.042969 0.328125 10.175781 0.472656 10.175781 0.648438 C 10.175781 0.824219 10.042969 0.96875 9.875 0.96875 C 9.707031 0.96875 9.574219 0.824219 9.574219 0.648438 Z M 9.574219 0.648438 "/>
<path fill-rule="nonzero" fill="rgb(100%, 100%, 0%)" fill-opacity="1" d="M 8.769531 0.808594 C 8.769531 0.632812 8.902344 0.492188 9.070312 0.492188 C 9.238281 0.492188 9.371094 0.632812 9.371094 0.808594 C 9.371094 0.988281 9.238281 1.128906 9.070312 1.128906 C 8.902344 1.128906 8.769531 0.988281 8.769531 0.808594 Z M 8.769531 0.808594 "/>
<path fill-rule="nonzero" fill="rgb(100%, 100%, 0%)" fill-opacity="1" d="M 7.882812 1.210938 C 7.882812 1.035156 8.019531 0.894531 8.183594 0.894531 C 8.351562 0.894531 8.488281 1.035156 8.488281 1.210938 C 8.488281 1.390625 8.351562 1.53125 8.183594 1.53125 C 8.019531 1.53125 7.882812 1.390625 7.882812 1.210938 Z M 7.882812 1.210938 "/>
<path fill-rule="nonzero" fill="rgb(100%, 100%, 0%)" fill-opacity="1" d="M 7.160156 1.695312 C 7.160156 1.519531 7.292969 1.375 7.460938 1.375 C 7.628906 1.375 7.761719 1.519531 7.761719 1.695312 C 7.761719 1.871094 7.628906 2.015625 7.460938 2.015625 C 7.292969 2.015625 7.160156 1.871094 7.160156 1.695312 Z M 7.160156 1.695312 "/>
<path fill-rule="nonzero" fill="rgb(100%, 100%, 0%)" fill-opacity="1" d="M 7.160156 1.695312 C 7.160156 1.519531 7.292969 1.375 7.460938 1.375 C 7.628906 1.375 7.761719 1.519531 7.761719 1.695312 C 7.761719 1.871094 7.628906 2.015625 7.460938 2.015625 C 7.292969 2.015625 7.160156 1.871094 7.160156 1.695312 Z M 7.160156 1.695312 "/>
<path fill-rule="nonzero" fill="rgb(100%, 100%, 0%)" fill-opacity="1" d="M 6.59375 2.417969 C 6.59375 2.242188 6.730469 2.101562 6.898438 2.101562 C 7.0625 2.101562 7.199219 2.242188 7.199219 2.417969 C 7.199219 2.597656 7.0625 2.738281 6.898438 2.738281 C 6.730469 2.738281 6.59375 2.597656 6.59375 2.417969 Z M 6.59375 2.417969 "/>
<path fill-rule="nonzero" fill="rgb(100%, 100%, 0%)" fill-opacity="1" d="M 6.355469 3.304688 C 6.355469 3.128906 6.488281 2.984375 6.65625 2.984375 C 6.820312 2.984375 6.957031 3.128906 6.957031 3.304688 C 6.957031 3.480469 6.820312 3.625 6.65625 3.625 C 6.488281 3.625 6.355469 3.480469 6.355469 3.304688 Z M 6.355469 3.304688 "/>
<path fill-rule="nonzero" fill="rgb(100%, 100%, 0%)" fill-opacity="1" d="M 6.355469 3.304688 C 6.355469 3.128906 6.488281 2.984375 6.65625 2.984375 C 6.820312 2.984375 6.957031 3.128906 6.957031 3.304688 C 6.957031 3.480469 6.820312 3.625 6.65625 3.625 C 6.488281 3.625 6.355469 3.480469 6.355469 3.304688 Z M 6.355469 3.304688 "/>
<path fill-rule="nonzero" fill="rgb(100%, 100%, 0%)" fill-opacity="1" d="M 6.433594 10.871094 C 6.433594 10.695312 6.570312 10.550781 6.734375 10.550781 C 6.902344 10.550781 7.039062 10.695312 7.039062 10.871094 C 7.039062 11.046875 6.902344 11.191406 6.734375 11.191406 C 6.570312 11.191406 6.433594 11.046875 6.433594 10.871094 Z M 6.433594 10.871094 "/>
<path fill-rule="nonzero" fill="rgb(100%, 100%, 0%)" fill-opacity="1" d="M 6.757812 11.675781 C 6.757812 11.5 6.890625 11.355469 7.058594 11.355469 C 7.226562 11.355469 7.359375 11.5 7.359375 11.675781 C 7.359375 11.851562 7.226562 11.996094 7.058594 11.996094 C 6.890625 11.996094 6.757812 11.851562 6.757812 11.675781 Z M 6.757812 11.675781 "/>
<path fill-rule="nonzero" fill="rgb(100%, 100%, 0%)" fill-opacity="1" d="M 7.398438 12.320312 C 7.398438 12.144531 7.535156 12 7.703125 12 C 7.867188 12 8.003906 12.144531 8.003906 12.320312 C 8.003906 12.496094 7.867188 12.640625 7.703125 12.640625 C 7.535156 12.640625 7.398438 12.496094 7.398438 12.320312 Z M 7.398438 12.320312 "/>
<path fill-rule="nonzero" fill="rgb(100%, 100%, 0%)" fill-opacity="1" d="M 8.042969 12.964844 C 8.042969 12.785156 8.179688 12.644531 8.347656 12.644531 C 8.511719 12.644531 8.648438 12.785156 8.648438 12.964844 C 8.648438 13.140625 8.511719 13.28125 8.347656 13.28125 C 8.179688 13.28125 8.042969 13.140625 8.042969 12.964844 Z M 8.042969 12.964844 "/>
<path fill-rule="nonzero" fill="rgb(100%, 100%, 0%)" fill-opacity="1" d="M 8.847656 13.203125 C 8.847656 13.027344 8.984375 12.886719 9.152344 12.886719 C 9.316406 12.886719 9.453125 13.027344 9.453125 13.203125 C 9.453125 13.382812 9.316406 13.523438 9.152344 13.523438 C 8.984375 13.523438 8.847656 13.382812 8.847656 13.203125 Z M 8.847656 13.203125 "/>
<path fill-rule="nonzero" fill="rgb(100%, 100%, 0%)" fill-opacity="1" d="M 9.734375 13.285156 C 9.734375 13.109375 9.871094 12.964844 10.035156 12.964844 C 10.203125 12.964844 10.335938 13.109375 10.335938 13.285156 C 10.335938 13.460938 10.203125 13.605469 10.035156 13.605469 C 9.871094 13.605469 9.734375 13.460938 9.734375 13.285156 Z M 9.734375 13.285156 "/>
<path fill-rule="nonzero" fill="rgb(100%, 100%, 0%)" fill-opacity="1" d="M 10.621094 13.203125 C 10.621094 13.027344 10.753906 12.886719 10.921875 12.886719 C 11.089844 12.886719 11.222656 13.027344 11.222656 13.203125 C 11.222656 13.382812 11.089844 13.523438 10.921875 13.523438 C 10.753906 13.523438 10.621094 13.382812 10.621094 13.203125 Z M 10.621094 13.203125 "/>
<path fill-rule="nonzero" fill="rgb(100%, 100%, 0%)" fill-opacity="1" d="M 11.425781 12.882812 C 11.425781 12.707031 11.558594 12.5625 11.726562 12.5625 C 11.894531 12.5625 12.027344 12.707031 12.027344 12.882812 C 12.027344 13.058594 11.894531 13.203125 11.726562 13.203125 C 11.558594 13.203125 11.425781 13.058594 11.425781 12.882812 Z M 11.425781 12.882812 "/>
<path fill-rule="nonzero" fill="rgb(100%, 100%, 0%)" fill-opacity="1" d="M 12.148438 12.320312 C 12.148438 12.144531 12.285156 12 12.449219 12 C 12.617188 12 12.753906 12.144531 12.753906 12.320312 C 12.753906 12.496094 12.617188 12.640625 12.449219 12.640625 C 12.285156 12.640625 12.148438 12.496094 12.148438 12.320312 Z M 12.148438 12.320312 "/>
<path fill-rule="nonzero" fill="rgb(100%, 100%, 0%)" fill-opacity="1" d="M 12.792969 11.675781 C 12.792969 11.5 12.929688 11.355469 13.09375 11.355469 C 13.261719 11.355469 13.394531 11.5 13.394531 11.675781 C 13.394531 11.851562 13.261719 11.996094 13.09375 11.996094 C 12.929688 11.996094 12.792969 11.851562 12.792969 11.675781 Z M 12.792969 11.675781 "/>
<path fill-rule="nonzero" fill="rgb(100%, 100%, 0%)" fill-opacity="1" d="M 13.113281 10.789062 C 13.113281 10.613281 13.25 10.46875 13.417969 10.46875 C 13.582031 10.46875 13.71875 10.613281 13.71875 10.789062 C 13.71875 10.964844 13.582031 11.109375 13.417969 11.109375 C 13.25 11.109375 13.113281 10.964844 13.113281 10.789062 Z M 13.113281 10.789062 "/>
<path fill-rule="nonzero" fill="rgb(100%, 100%, 0%)" fill-opacity="1" d="M 12.710938 10.710938 C 12.710938 10.535156 12.847656 10.390625 13.015625 10.390625 C 13.179688 10.390625 13.316406 10.535156 13.316406 10.710938 C 13.316406 10.886719 13.179688 11.03125 13.015625 11.03125 C 12.847656 11.03125 12.710938 10.886719 12.710938 10.710938 Z M 12.710938 10.710938 "/>
<path fill-rule="nonzero" fill="rgb(100%, 100%, 0%)" fill-opacity="1" d="M 12.390625 11.433594 C 12.390625 11.257812 12.527344 11.113281 12.691406 11.113281 C 12.859375 11.113281 12.992188 11.257812 12.992188 11.433594 C 12.992188 11.609375 12.859375 11.753906 12.691406 11.753906 C 12.527344 11.753906 12.390625 11.609375 12.390625 11.433594 Z M 12.390625 11.433594 "/>
<path fill-rule="nonzero" fill="rgb(100%, 100%, 0%)" fill-opacity="1" d="M 11.828125 12.078125 C 11.828125 11.902344 11.960938 11.757812 12.128906 11.757812 C 12.296875 11.757812 12.429688 11.902344 12.429688 12.078125 C 12.429688 12.253906 12.296875 12.398438 12.128906 12.398438 C 11.960938 12.398438 11.828125 12.253906 11.828125 12.078125 Z M 11.828125 12.078125 "/>
<path fill-rule="nonzero" fill="rgb(100%, 100%, 0%)" fill-opacity="1" d="M 11.183594 12.480469 C 11.183594 12.304688 11.316406 12.160156 11.484375 12.160156 C 11.652344 12.160156 11.785156 12.304688 11.785156 12.480469 C 11.785156 12.65625 11.652344 12.800781 11.484375 12.800781 C 11.316406 12.800781 11.183594 12.65625 11.183594 12.480469 Z M 11.183594 12.480469 "/>
<path fill-rule="nonzero" fill="rgb(100%, 100%, 0%)" fill-opacity="1" d="M 10.457031 12.800781 C 10.457031 12.625 10.59375 12.484375 10.761719 12.484375 C 10.925781 12.484375 11.0625 12.625 11.0625 12.800781 C 11.0625 12.980469 10.925781 13.121094 10.761719 13.121094 C 10.59375 13.121094 10.457031 12.980469 10.457031 12.800781 Z M 10.457031 12.800781 "/>
<path fill-rule="nonzero" fill="rgb(100%, 100%, 0%)" fill-opacity="1" d="M 9.734375 12.800781 C 9.734375 12.625 9.871094 12.484375 10.035156 12.484375 C 10.203125 12.484375 10.335938 12.625 10.335938 12.800781 C 10.335938 12.980469 10.203125 13.121094 10.035156 13.121094 C 9.871094 13.121094 9.734375 12.980469 9.734375 12.800781 Z M 9.734375 12.800781 "/>
<path fill-rule="nonzero" fill="rgb(100%, 100%, 0%)" fill-opacity="1" d="M 8.929688 12.800781 C 8.929688 12.625 9.066406 12.484375 9.230469 12.484375 C 9.398438 12.484375 9.53125 12.625 9.53125 12.800781 C 9.53125 12.980469 9.398438 13.121094 9.230469 13.121094 C 9.066406 13.121094 8.929688 12.980469 8.929688 12.800781 Z M 8.929688 12.800781 "/>
<path fill-rule="nonzero" fill="rgb(100%, 100%, 0%)" fill-opacity="1" d="M 8.285156 12.5625 C 8.285156 12.382812 8.421875 12.242188 8.585938 12.242188 C 8.753906 12.242188 8.890625 12.382812 8.890625 12.5625 C 8.890625 12.738281 8.753906 12.878906 8.585938 12.878906 C 8.421875 12.878906 8.285156 12.738281 8.285156 12.5625 Z M 8.285156 12.5625 "/>
<path fill-rule="nonzero" fill="rgb(100%, 100%, 0%)" fill-opacity="1" d="M 7.640625 11.996094 C 7.640625 11.820312 7.777344 11.679688 7.945312 11.679688 C 8.109375 11.679688 8.246094 11.820312 8.246094 11.996094 C 8.246094 12.175781 8.109375 12.316406 7.945312 12.316406 C 7.777344 12.316406 7.640625 12.175781 7.640625 11.996094 Z M 7.640625 11.996094 "/>
<path fill-rule="nonzero" fill="rgb(100%, 100%, 0%)" fill-opacity="1" d="M 7.078125 11.433594 C 7.078125 11.257812 7.214844 11.113281 7.378906 11.113281 C 7.546875 11.113281 7.683594 11.257812 7.683594 11.433594 C 7.683594 11.609375 7.546875 11.753906 7.378906 11.753906 C 7.214844 11.753906 7.078125 11.609375 7.078125 11.433594 Z M 7.078125 11.433594 "/>
<path fill-rule="nonzero" fill="rgb(100%, 100%, 0%)" fill-opacity="1" d="M 6.835938 10.789062 C 6.835938 10.613281 6.972656 10.46875 7.136719 10.46875 C 7.304688 10.46875 7.441406 10.613281 7.441406 10.789062 C 7.441406 10.964844 7.304688 11.109375 7.136719 11.109375 C 6.972656 11.109375 6.835938 10.964844 6.835938 10.789062 Z M 6.835938 10.789062 "/>
</svg>
