<?xml version="1.0" encoding="UTF-8"?>
<svg xmlns="http://www.w3.org/2000/svg" xmlns:xlink="http://www.w3.org/1999/xlink" width="15" height="15" viewBox="0 0 15 15">
<path fill-rule="nonzero" fill="rgb(0%, 0%, 0%)" fill-opacity="1" stroke-width="10" stroke-linecap="butt" stroke-linejoin="miter" stroke="rgb(100%, 100%, 100%)" stroke-opacity="1" stroke-miterlimit="4" d="M 5.013021 5.013021 L 5.013021 148.986979 L 148.986979 148.986979 L 148.986979 5.013021 Z M 5.013021 5.013021 " transform="matrix(0.0974026, 0, 0, 0.0974026, 0, 0)"/>
<path fill-rule="nonzero" fill="rgb(100%, 100%, 100%)" fill-opacity="1" d="M 4.351562 9.703125 L 5.53125 9.546875 C 5.667969 10.214844 5.898438 10.695312 6.226562 10.992188 C 6.550781 11.285156 6.945312 11.433594 7.414062 11.433594 C 7.96875 11.433594 8.4375 11.242188 8.820312 10.855469 C 9.203125 10.472656 9.394531 9.996094 9.394531 9.425781 C 9.394531 8.886719 9.21875 8.4375 8.863281 8.085938 C 8.507812 7.734375 8.058594 7.558594 7.511719 7.558594 C 7.289062 7.558594 7.011719 7.601562 6.679688 7.691406 L 6.8125 6.652344 C 6.890625 6.664062 6.953125 6.667969 7 6.667969 C 7.503906 6.667969 7.957031 6.535156 8.359375 6.273438 C 8.761719 6.011719 8.960938 5.609375 8.960938 5.0625 C 8.960938 4.628906 8.816406 4.269531 8.523438 3.984375 C 8.230469 3.703125 7.851562 3.558594 7.386719 3.558594 C 6.929688 3.558594 6.546875 3.703125 6.242188 3.992188 C 5.933594 4.28125 5.738281 4.714844 5.652344 5.289062 L 4.472656 5.082031 C 4.617188 4.289062 4.941406 3.675781 5.453125 3.242188 C 5.964844 2.808594 6.601562 2.589844 7.363281 2.589844 C 7.886719 2.589844 8.371094 2.703125 8.8125 2.925781 C 9.253906 3.152344 9.589844 3.460938 9.824219 3.847656 C 10.058594 4.238281 10.175781 4.648438 10.175781 5.085938 C 10.175781 5.503906 10.0625 5.878906 9.839844 6.222656 C 9.617188 6.5625 9.289062 6.832031 8.851562 7.035156 C 9.417969 7.164062 9.859375 7.4375 10.175781 7.851562 C 10.488281 8.265625 10.648438 8.78125 10.648438 9.402344 C 10.648438 10.242188 10.339844 10.953125 9.730469 11.535156 C 9.117188 12.117188 8.34375 12.410156 7.40625 12.410156 C 6.566406 12.410156 5.863281 12.160156 5.308594 11.65625 C 4.75 11.152344 4.433594 10.503906 4.351562 9.703125 Z M 4.351562 9.703125 "/>
</svg>
