<?xml version="1.0" encoding="UTF-8"?>
<svg xmlns="http://www.w3.org/2000/svg" xmlns:xlink="http://www.w3.org/1999/xlink" width="14.244597" height="14" viewBox="0 0 14.244597 14">
<path fill-rule="nonzero" fill="rgb(0%, 0%, 0%)" fill-opacity="1" stroke-width="1.011478" stroke-linecap="butt" stroke-linejoin="miter" stroke="rgb(0%, 0%, 0%)" stroke-opacity="1" stroke-miterlimit="4" d="M 1716.580955 1909.965577 L 1370.083929 1909.965577 L 1370.083929 1570.894821 L 1715.151511 1570.894821 Z M 1716.580955 1909.965577 " transform="matrix(0.0409906, 0, 0, 0.0411741, -56.141047, -64.660669)"/>
<path fill-rule="nonzero" fill="rgb(100%, 100%, 100%)" fill-opacity="1" d="M 0.222656 3.828125 C 0.222656 3.648438 0.359375 3.503906 0.527344 3.503906 C 0.699219 3.503906 0.835938 3.648438 0.835938 3.828125 C 0.835938 4.007812 0.699219 4.152344 0.527344 4.152344 C 0.359375 4.152344 0.222656 4.007812 0.222656 3.828125 Z M 0.222656 3.828125 "/>
<path fill-rule="nonzero" fill="rgb(100%, 100%, 100%)" fill-opacity="1" d="M 0.710938 4.15625 C 0.710938 3.976562 0.851562 3.832031 1.019531 3.832031 C 1.1875 3.832031 1.324219 3.976562 1.324219 4.15625 C 1.324219 4.335938 1.1875 4.480469 1.019531 4.480469 C 0.851562 4.480469 0.710938 4.335938 0.710938 4.15625 Z M 0.710938 4.15625 "/>
<path fill-rule="nonzero" fill="rgb(100%, 100%, 100%)" fill-opacity="1" d="M 0.710938 3.339844 C 0.710938 3.160156 0.851562 3.011719 1.019531 3.011719 C 1.1875 3.011719 1.324219 3.160156 1.324219 3.339844 C 1.324219 3.515625 1.1875 3.664062 1.019531 3.664062 C 0.851562 3.664062 0.710938 3.515625 0.710938 3.339844 Z M 0.710938 3.339844 "/>
<path fill-rule="nonzero" fill="rgb(100%, 100%, 100%)" fill-opacity="1" d="M 1.039062 3.582031 C 1.039062 3.402344 1.175781 3.257812 1.347656 3.257812 C 1.515625 3.257812 1.652344 3.402344 1.652344 3.582031 C 1.652344 3.761719 1.515625 3.90625 1.347656 3.90625 C 1.175781 3.90625 1.039062 3.761719 1.039062 3.582031 Z M 1.039062 3.582031 "/>
<path fill-rule="nonzero" fill="rgb(100%, 100%, 100%)" fill-opacity="1" d="M 1.203125 2.683594 C 1.203125 2.503906 1.339844 2.359375 1.507812 2.359375 C 1.679688 2.359375 1.816406 2.503906 1.816406 2.683594 C 1.816406 2.863281 1.679688 3.007812 1.507812 3.007812 C 1.339844 3.007812 1.203125 2.863281 1.203125 2.683594 Z M 1.203125 2.683594 "/>
<path fill-rule="nonzero" fill="rgb(100%, 100%, 100%)" fill-opacity="1" d="M 1.53125 3.011719 C 1.53125 2.832031 1.667969 2.6875 1.835938 2.6875 C 2.007812 2.6875 2.144531 2.832031 2.144531 3.011719 C 2.144531 3.191406 2.007812 3.335938 1.835938 3.335938 C 1.667969 3.335938 1.53125 3.191406 1.53125 3.011719 Z M 1.53125 3.011719 "/>
<path fill-rule="nonzero" fill="rgb(100%, 100%, 100%)" fill-opacity="1" d="M 1.695312 2.191406 C 1.695312 2.015625 1.832031 1.867188 2 1.867188 C 2.167969 1.867188 2.308594 2.015625 2.308594 2.191406 C 2.308594 2.371094 2.167969 2.519531 2 2.519531 C 1.832031 2.519531 1.695312 2.371094 1.695312 2.191406 Z M 1.695312 2.191406 "/>
<path fill-rule="nonzero" fill="rgb(100%, 100%, 100%)" fill-opacity="1" d="M 1.9375 2.519531 C 1.9375 2.339844 2.078125 2.195312 2.246094 2.195312 C 2.414062 2.195312 2.550781 2.339844 2.550781 2.519531 C 2.550781 2.699219 2.414062 2.84375 2.246094 2.84375 C 2.078125 2.84375 1.9375 2.699219 1.9375 2.519531 Z M 1.9375 2.519531 "/>
<path fill-rule="nonzero" fill="rgb(100%, 100%, 100%)" fill-opacity="1" d="M 2.019531 1.621094 C 2.019531 1.441406 2.160156 1.296875 2.328125 1.296875 C 2.496094 1.296875 2.632812 1.441406 2.632812 1.621094 C 2.632812 1.800781 2.496094 1.945312 2.328125 1.945312 C 2.160156 1.945312 2.019531 1.800781 2.019531 1.621094 Z M 2.019531 1.621094 "/>
<path fill-rule="nonzero" fill="rgb(100%, 100%, 100%)" fill-opacity="1" d="M 2.347656 1.949219 C 2.347656 1.769531 2.484375 1.621094 2.65625 1.621094 C 2.824219 1.621094 2.960938 1.769531 2.960938 1.949219 C 2.960938 2.128906 2.824219 2.273438 2.65625 2.273438 C 2.484375 2.273438 2.347656 2.128906 2.347656 1.949219 Z M 2.347656 1.949219 "/>
<path fill-rule="nonzero" fill="rgb(100%, 100%, 100%)" fill-opacity="1" d="M 2.511719 1.210938 C 2.511719 1.03125 2.648438 0.886719 2.816406 0.886719 C 2.988281 0.886719 3.125 1.03125 3.125 1.210938 C 3.125 1.390625 2.988281 1.535156 2.816406 1.535156 C 2.648438 1.535156 2.511719 1.390625 2.511719 1.210938 Z M 2.511719 1.210938 "/>
<path fill-rule="nonzero" fill="rgb(100%, 100%, 100%)" fill-opacity="1" d="M 3.003906 0.558594 C 3.003906 0.378906 3.140625 0.234375 3.308594 0.234375 C 3.476562 0.234375 3.617188 0.378906 3.617188 0.558594 C 3.617188 0.738281 3.476562 0.882812 3.308594 0.882812 C 3.140625 0.882812 3.003906 0.738281 3.003906 0.558594 Z M 3.003906 0.558594 "/>
<path fill-rule="nonzero" fill="rgb(100%, 100%, 100%)" fill-opacity="1" d="M 3.003906 1.457031 C 3.003906 1.277344 3.140625 1.132812 3.308594 1.132812 C 3.476562 1.132812 3.617188 1.277344 3.617188 1.457031 C 3.617188 1.636719 3.476562 1.78125 3.308594 1.78125 C 3.140625 1.78125 3.003906 1.636719 3.003906 1.457031 Z M 3.003906 1.457031 "/>
<path fill-rule="nonzero" fill="rgb(100%, 100%, 100%)" fill-opacity="1" d="M 3.003906 2.109375 C 3.003906 1.933594 3.140625 1.785156 3.308594 1.785156 C 3.476562 1.785156 3.617188 1.933594 3.617188 2.109375 C 3.617188 2.289062 3.476562 2.4375 3.308594 2.4375 C 3.140625 2.4375 3.003906 2.289062 3.003906 2.109375 Z M 3.003906 2.109375 "/>
<path fill-rule="nonzero" fill="rgb(100%, 100%, 100%)" fill-opacity="1" d="M 3.003906 2.929688 C 3.003906 2.75 3.140625 2.605469 3.308594 2.605469 C 3.476562 2.605469 3.617188 2.75 3.617188 2.929688 C 3.617188 3.109375 3.476562 3.253906 3.308594 3.253906 C 3.140625 3.253906 3.003906 3.109375 3.003906 2.929688 Z M 3.003906 2.929688 "/>
<path fill-rule="nonzero" fill="rgb(100%, 100%, 100%)" fill-opacity="1" d="M 3.003906 3.746094 C 3.003906 3.566406 3.140625 3.421875 3.308594 3.421875 C 3.476562 3.421875 3.617188 3.566406 3.617188 3.746094 C 3.617188 3.925781 3.476562 4.070312 3.308594 4.070312 C 3.140625 4.070312 3.003906 3.925781 3.003906 3.746094 Z M 3.003906 3.746094 "/>
<path fill-rule="nonzero" fill="rgb(100%, 100%, 100%)" fill-opacity="1" d="M 3.003906 4.484375 C 3.003906 4.304688 3.140625 4.15625 3.308594 4.15625 C 3.476562 4.15625 3.617188 4.304688 3.617188 4.484375 C 3.617188 4.664062 3.476562 4.808594 3.308594 4.808594 C 3.140625 4.808594 3.003906 4.664062 3.003906 4.484375 Z M 3.003906 4.484375 "/>
<path fill-rule="nonzero" fill="rgb(100%, 100%, 100%)" fill-opacity="1" d="M 3.003906 5.300781 C 3.003906 5.121094 3.140625 4.976562 3.308594 4.976562 C 3.476562 4.976562 3.617188 5.121094 3.617188 5.300781 C 3.617188 5.480469 3.476562 5.625 3.308594 5.625 C 3.140625 5.625 3.003906 5.480469 3.003906 5.300781 Z M 3.003906 5.300781 "/>
<path fill-rule="nonzero" fill="rgb(100%, 100%, 100%)" fill-opacity="1" d="M 3.003906 6.035156 C 3.003906 5.855469 3.140625 5.710938 3.308594 5.710938 C 3.476562 5.710938 3.617188 5.855469 3.617188 6.035156 C 3.617188 6.214844 3.476562 6.363281 3.308594 6.363281 C 3.140625 6.363281 3.003906 6.214844 3.003906 6.035156 Z M 3.003906 6.035156 "/>
<path fill-rule="nonzero" fill="rgb(100%, 100%, 100%)" fill-opacity="1" d="M 3.003906 6.855469 C 3.003906 6.675781 3.140625 6.53125 3.308594 6.53125 C 3.476562 6.53125 3.617188 6.675781 3.617188 6.855469 C 3.617188 7.035156 3.476562 7.179688 3.308594 7.179688 C 3.140625 7.179688 3.003906 7.035156 3.003906 6.855469 Z M 3.003906 6.855469 "/>
<path fill-rule="nonzero" fill="rgb(100%, 100%, 100%)" fill-opacity="1" d="M 3.003906 7.753906 C 3.003906 7.574219 3.140625 7.429688 3.308594 7.429688 C 3.476562 7.429688 3.617188 7.574219 3.617188 7.753906 C 3.617188 7.933594 3.476562 8.078125 3.308594 8.078125 C 3.140625 8.078125 3.003906 7.933594 3.003906 7.753906 Z M 3.003906 7.753906 "/>
<path fill-rule="nonzero" fill="rgb(100%, 100%, 100%)" fill-opacity="1" d="M 3.003906 8.570312 C 3.003906 8.390625 3.140625 8.246094 3.308594 8.246094 C 3.476562 8.246094 3.617188 8.390625 3.617188 8.570312 C 3.617188 8.75 3.476562 8.898438 3.308594 8.898438 C 3.140625 8.898438 3.003906 8.75 3.003906 8.570312 Z M 3.003906 8.570312 "/>
<path fill-rule="nonzero" fill="rgb(100%, 100%, 100%)" fill-opacity="1" d="M 3.003906 9.390625 C 3.003906 9.210938 3.140625 9.066406 3.308594 9.066406 C 3.476562 9.066406 3.617188 9.210938 3.617188 9.390625 C 3.617188 9.570312 3.476562 9.714844 3.308594 9.714844 C 3.140625 9.714844 3.003906 9.570312 3.003906 9.390625 Z M 3.003906 9.390625 "/>
<path fill-rule="nonzero" fill="rgb(100%, 100%, 100%)" fill-opacity="1" d="M 3.003906 10.289062 C 3.003906 10.109375 3.140625 9.964844 3.308594 9.964844 C 3.476562 9.964844 3.617188 10.109375 3.617188 10.289062 C 3.617188 10.46875 3.476562 10.613281 3.308594 10.613281 C 3.140625 10.613281 3.003906 10.46875 3.003906 10.289062 Z M 3.003906 10.289062 "/>
<path fill-rule="nonzero" fill="rgb(100%, 100%, 100%)" fill-opacity="1" d="M 3.003906 11.023438 C 3.003906 10.847656 3.140625 10.699219 3.308594 10.699219 C 3.476562 10.699219 3.617188 10.847656 3.617188 11.023438 C 3.617188 11.203125 3.476562 11.351562 3.308594 11.351562 C 3.140625 11.351562 3.003906 11.203125 3.003906 11.023438 Z M 3.003906 11.023438 "/>
<path fill-rule="nonzero" fill="rgb(100%, 100%, 100%)" fill-opacity="1" d="M 3.003906 11.761719 C 3.003906 11.582031 3.140625 11.4375 3.308594 11.4375 C 3.476562 11.4375 3.617188 11.582031 3.617188 11.761719 C 3.617188 11.941406 3.476562 12.085938 3.308594 12.085938 C 3.140625 12.085938 3.003906 11.941406 3.003906 11.761719 Z M 3.003906 11.761719 "/>
<path fill-rule="nonzero" fill="rgb(100%, 100%, 100%)" fill-opacity="1" d="M 3.003906 12.496094 C 3.003906 12.316406 3.140625 12.171875 3.308594 12.171875 C 3.476562 12.171875 3.617188 12.316406 3.617188 12.496094 C 3.617188 12.675781 3.476562 12.820312 3.308594 12.820312 C 3.140625 12.820312 3.003906 12.675781 3.003906 12.496094 Z M 3.003906 12.496094 "/>
<path fill-rule="nonzero" fill="rgb(100%, 100%, 100%)" fill-opacity="1" d="M 3.003906 13.234375 C 3.003906 13.054688 3.140625 12.910156 3.308594 12.910156 C 3.476562 12.910156 3.617188 13.054688 3.617188 13.234375 C 3.617188 13.414062 3.476562 13.558594 3.308594 13.558594 C 3.140625 13.558594 3.003906 13.414062 3.003906 13.234375 Z M 3.003906 13.234375 "/>
<path fill-rule="nonzero" fill="rgb(100%, 100%, 100%)" fill-opacity="1" d="M 3.574219 13.234375 C 3.574219 13.054688 3.710938 12.910156 3.882812 12.910156 C 4.050781 12.910156 4.1875 13.054688 4.1875 13.234375 C 4.1875 13.414062 4.050781 13.558594 3.882812 13.558594 C 3.710938 13.558594 3.574219 13.414062 3.574219 13.234375 Z M 3.574219 13.234375 "/>
<path fill-rule="nonzero" fill="rgb(100%, 100%, 100%)" fill-opacity="1" d="M 3.574219 12.496094 C 3.574219 12.316406 3.710938 12.171875 3.882812 12.171875 C 4.050781 12.171875 4.1875 12.316406 4.1875 12.496094 C 4.1875 12.675781 4.050781 12.820312 3.882812 12.820312 C 3.710938 12.820312 3.574219 12.675781 3.574219 12.496094 Z M 3.574219 12.496094 "/>
<path fill-rule="nonzero" fill="rgb(100%, 100%, 100%)" fill-opacity="1" d="M 3.574219 11.761719 C 3.574219 11.582031 3.710938 11.4375 3.882812 11.4375 C 4.050781 11.4375 4.1875 11.582031 4.1875 11.761719 C 4.1875 11.941406 4.050781 12.085938 3.882812 12.085938 C 3.710938 12.085938 3.574219 11.941406 3.574219 11.761719 Z M 3.574219 11.761719 "/>
<path fill-rule="nonzero" fill="rgb(100%, 100%, 100%)" fill-opacity="1" d="M 3.574219 11.023438 C 3.574219 10.847656 3.710938 10.699219 3.882812 10.699219 C 4.050781 10.699219 4.1875 10.847656 4.1875 11.023438 C 4.1875 11.203125 4.050781 11.351562 3.882812 11.351562 C 3.710938 11.351562 3.574219 11.203125 3.574219 11.023438 Z M 3.574219 11.023438 "/>
<path fill-rule="nonzero" fill="rgb(100%, 100%, 100%)" fill-opacity="1" d="M 3.574219 10.289062 C 3.574219 10.109375 3.710938 9.964844 3.882812 9.964844 C 4.050781 9.964844 4.1875 10.109375 4.1875 10.289062 C 4.1875 10.46875 4.050781 10.613281 3.882812 10.613281 C 3.710938 10.613281 3.574219 10.46875 3.574219 10.289062 Z M 3.574219 10.289062 "/>
<path fill-rule="nonzero" fill="rgb(100%, 100%, 100%)" fill-opacity="1" d="M 3.574219 9.390625 C 3.574219 9.210938 3.710938 9.066406 3.882812 9.066406 C 4.050781 9.066406 4.1875 9.210938 4.1875 9.390625 C 4.1875 9.570312 4.050781 9.714844 3.882812 9.714844 C 3.710938 9.714844 3.574219 9.570312 3.574219 9.390625 Z M 3.574219 9.390625 "/>
<path fill-rule="nonzero" fill="rgb(100%, 100%, 100%)" fill-opacity="1" d="M 3.574219 8.570312 C 3.574219 8.390625 3.710938 8.246094 3.882812 8.246094 C 4.050781 8.246094 4.1875 8.390625 4.1875 8.570312 C 4.1875 8.75 4.050781 8.898438 3.882812 8.898438 C 3.710938 8.898438 3.574219 8.75 3.574219 8.570312 Z M 3.574219 8.570312 "/>
<path fill-rule="nonzero" fill="rgb(100%, 100%, 100%)" fill-opacity="1" d="M 3.574219 7.753906 C 3.574219 7.574219 3.710938 7.429688 3.882812 7.429688 C 4.050781 7.429688 4.1875 7.574219 4.1875 7.753906 C 4.1875 7.933594 4.050781 8.078125 3.882812 8.078125 C 3.710938 8.078125 3.574219 7.933594 3.574219 7.753906 Z M 3.574219 7.753906 "/>
<path fill-rule="nonzero" fill="rgb(100%, 100%, 100%)" fill-opacity="1" d="M 3.574219 6.855469 C 3.574219 6.675781 3.710938 6.53125 3.882812 6.53125 C 4.050781 6.53125 4.1875 6.675781 4.1875 6.855469 C 4.1875 7.035156 4.050781 7.179688 3.882812 7.179688 C 3.710938 7.179688 3.574219 7.035156 3.574219 6.855469 Z M 3.574219 6.855469 "/>
<path fill-rule="nonzero" fill="rgb(100%, 100%, 100%)" fill-opacity="1" d="M 3.574219 6.035156 C 3.574219 5.855469 3.710938 5.710938 3.882812 5.710938 C 4.050781 5.710938 4.1875 5.855469 4.1875 6.035156 C 4.1875 6.214844 4.050781 6.363281 3.882812 6.363281 C 3.710938 6.363281 3.574219 6.214844 3.574219 6.035156 Z M 3.574219 6.035156 "/>
<path fill-rule="nonzero" fill="rgb(100%, 100%, 100%)" fill-opacity="1" d="M 3.574219 5.300781 C 3.574219 5.121094 3.710938 4.976562 3.882812 4.976562 C 4.050781 4.976562 4.1875 5.121094 4.1875 5.300781 C 4.1875 5.480469 4.050781 5.625 3.882812 5.625 C 3.710938 5.625 3.574219 5.480469 3.574219 5.300781 Z M 3.574219 5.300781 "/>
<path fill-rule="nonzero" fill="rgb(100%, 100%, 100%)" fill-opacity="1" d="M 3.574219 4.484375 C 3.574219 4.304688 3.710938 4.15625 3.882812 4.15625 C 4.050781 4.15625 4.1875 4.304688 4.1875 4.484375 C 4.1875 4.664062 4.050781 4.808594 3.882812 4.808594 C 3.710938 4.808594 3.574219 4.664062 3.574219 4.484375 Z M 3.574219 4.484375 "/>
<path fill-rule="nonzero" fill="rgb(100%, 100%, 100%)" fill-opacity="1" d="M 3.574219 3.746094 C 3.574219 3.566406 3.710938 3.421875 3.882812 3.421875 C 4.050781 3.421875 4.1875 3.566406 4.1875 3.746094 C 4.1875 3.925781 4.050781 4.070312 3.882812 4.070312 C 3.710938 4.070312 3.574219 3.925781 3.574219 3.746094 Z M 3.574219 3.746094 "/>
<path fill-rule="nonzero" fill="rgb(100%, 100%, 100%)" fill-opacity="1" d="M 3.574219 2.929688 C 3.574219 2.75 3.710938 2.605469 3.882812 2.605469 C 4.050781 2.605469 4.1875 2.75 4.1875 2.929688 C 4.1875 3.109375 4.050781 3.253906 3.882812 3.253906 C 3.710938 3.253906 3.574219 3.109375 3.574219 2.929688 Z M 3.574219 2.929688 "/>
<path fill-rule="nonzero" fill="rgb(100%, 100%, 100%)" fill-opacity="1" d="M 3.574219 2.109375 C 3.574219 1.933594 3.710938 1.785156 3.882812 1.785156 C 4.050781 1.785156 4.1875 1.933594 4.1875 2.109375 C 4.1875 2.289062 4.050781 2.4375 3.882812 2.4375 C 3.710938 2.4375 3.574219 2.289062 3.574219 2.109375 Z M 3.574219 2.109375 "/>
<path fill-rule="nonzero" fill="rgb(100%, 100%, 100%)" fill-opacity="1" d="M 3.574219 1.457031 C 3.574219 1.277344 3.710938 1.132812 3.882812 1.132812 C 4.050781 1.132812 4.1875 1.277344 4.1875 1.457031 C 4.1875 1.636719 4.050781 1.78125 3.882812 1.78125 C 3.710938 1.78125 3.574219 1.636719 3.574219 1.457031 Z M 3.574219 1.457031 "/>
<path fill-rule="nonzero" fill="rgb(100%, 100%, 100%)" fill-opacity="1" d="M 3.574219 0.558594 C 3.574219 0.378906 3.710938 0.234375 3.882812 0.234375 C 4.050781 0.234375 4.1875 0.378906 4.1875 0.558594 C 4.1875 0.738281 4.050781 0.882812 3.882812 0.882812 C 3.710938 0.882812 3.574219 0.738281 3.574219 0.558594 Z M 3.574219 0.558594 "/>
<path fill-rule="nonzero" fill="rgb(100%, 100%, 100%)" fill-opacity="1" d="M 6.296875 2.273438 C 6.296875 2.09375 6.433594 1.949219 6.601562 1.949219 C 6.769531 1.949219 6.90625 2.09375 6.90625 2.273438 C 6.90625 2.449219 6.769531 2.59375 6.601562 2.59375 C 6.433594 2.59375 6.296875 2.449219 6.296875 2.273438 Z M 6.296875 2.273438 "/>
<path fill-rule="nonzero" fill="rgb(100%, 100%, 100%)" fill-opacity="1" d="M 6.539062 2.597656 C 6.539062 2.417969 6.675781 2.273438 6.84375 2.273438 C 7.011719 2.273438 7.148438 2.417969 7.148438 2.597656 C 7.148438 2.777344 7.011719 2.917969 6.84375 2.917969 C 6.675781 2.917969 6.539062 2.777344 6.539062 2.597656 Z M 6.539062 2.597656 "/>
<path fill-rule="nonzero" fill="rgb(100%, 100%, 100%)" fill-opacity="1" d="M 7.027344 2.027344 C 7.027344 1.851562 7.164062 1.707031 7.332031 1.707031 C 7.5 1.707031 7.636719 1.851562 7.636719 2.027344 C 7.636719 2.207031 7.5 2.351562 7.332031 2.351562 C 7.164062 2.351562 7.027344 2.207031 7.027344 2.027344 Z M 7.027344 2.027344 "/>
<path fill-rule="nonzero" fill="rgb(100%, 100%, 100%)" fill-opacity="1" d="M 7.675781 1.621094 C 7.675781 1.445312 7.8125 1.300781 7.980469 1.300781 C 8.148438 1.300781 8.285156 1.445312 8.285156 1.621094 C 8.285156 1.800781 8.148438 1.945312 7.980469 1.945312 C 7.8125 1.945312 7.675781 1.800781 7.675781 1.621094 Z M 7.675781 1.621094 "/>
<path fill-rule="nonzero" fill="rgb(100%, 100%, 100%)" fill-opacity="1" d="M 7.515625 1.214844 C 7.515625 1.039062 7.652344 0.894531 7.820312 0.894531 C 7.988281 0.894531 8.125 1.039062 8.125 1.214844 C 8.125 1.394531 7.988281 1.539062 7.820312 1.539062 C 7.652344 1.539062 7.515625 1.394531 7.515625 1.214844 Z M 7.515625 1.214844 "/>
<path fill-rule="nonzero" fill="rgb(100%, 100%, 100%)" fill-opacity="1" d="M 6.863281 1.703125 C 6.863281 1.527344 7 1.382812 7.167969 1.382812 C 7.335938 1.382812 7.472656 1.527344 7.472656 1.703125 C 7.472656 1.882812 7.335938 2.027344 7.167969 2.027344 C 7 2.027344 6.863281 1.882812 6.863281 1.703125 Z M 6.863281 1.703125 "/>
<path fill-rule="nonzero" fill="rgb(100%, 100%, 100%)" fill-opacity="1" d="M 8.40625 1.296875 C 8.40625 1.121094 8.542969 0.976562 8.710938 0.976562 C 8.878906 0.976562 9.015625 1.121094 9.015625 1.296875 C 9.015625 1.476562 8.878906 1.621094 8.710938 1.621094 C 8.542969 1.621094 8.40625 1.476562 8.40625 1.296875 Z M 8.40625 1.296875 "/>
<path fill-rule="nonzero" fill="rgb(100%, 100%, 100%)" fill-opacity="1" d="M 8.246094 0.890625 C 8.246094 0.714844 8.382812 0.570312 8.550781 0.570312 C 8.71875 0.570312 8.855469 0.714844 8.855469 0.890625 C 8.855469 1.070312 8.71875 1.214844 8.550781 1.214844 C 8.382812 1.214844 8.246094 1.070312 8.246094 0.890625 Z M 8.246094 0.890625 "/>
<path fill-rule="nonzero" fill="rgb(100%, 100%, 100%)" fill-opacity="1" d="M 9.058594 0.648438 C 9.058594 0.46875 9.195312 0.324219 9.363281 0.324219 C 9.53125 0.324219 9.667969 0.46875 9.667969 0.648438 C 9.667969 0.828125 9.53125 0.96875 9.363281 0.96875 C 9.195312 0.96875 9.058594 0.828125 9.058594 0.648438 Z M 9.058594 0.648438 "/>
<path fill-rule="nonzero" fill="rgb(100%, 100%, 100%)" fill-opacity="1" d="M 9.140625 1.054688 C 9.140625 0.875 9.273438 0.730469 9.441406 0.730469 C 9.613281 0.730469 9.746094 0.875 9.746094 1.054688 C 9.746094 1.230469 9.613281 1.375 9.441406 1.375 C 9.273438 1.375 9.140625 1.230469 9.140625 1.054688 Z M 9.140625 1.054688 "/>
<path fill-rule="nonzero" fill="rgb(100%, 100%, 100%)" fill-opacity="1" d="M 9.871094 0.972656 C 9.871094 0.796875 10.007812 0.652344 10.175781 0.652344 C 10.34375 0.652344 10.480469 0.796875 10.480469 0.972656 C 10.480469 1.152344 10.34375 1.296875 10.175781 1.296875 C 10.007812 1.296875 9.871094 1.152344 9.871094 0.972656 Z M 9.871094 0.972656 "/>
<path fill-rule="nonzero" fill="rgb(100%, 100%, 100%)" fill-opacity="1" d="M 9.871094 0.566406 C 9.871094 0.390625 10.007812 0.246094 10.175781 0.246094 C 10.34375 0.246094 10.480469 0.390625 10.480469 0.566406 C 10.480469 0.746094 10.34375 0.890625 10.175781 0.890625 C 10.007812 0.890625 9.871094 0.746094 9.871094 0.566406 Z M 9.871094 0.566406 "/>
<path fill-rule="nonzero" fill="rgb(100%, 100%, 100%)" fill-opacity="1" d="M 10.761719 0.730469 C 10.761719 0.550781 10.898438 0.40625 11.066406 0.40625 C 11.234375 0.40625 11.371094 0.550781 11.371094 0.730469 C 11.371094 0.90625 11.234375 1.050781 11.066406 1.050781 C 10.898438 1.050781 10.761719 0.90625 10.761719 0.730469 Z M 10.761719 0.730469 "/>
<path fill-rule="nonzero" fill="rgb(100%, 100%, 100%)" fill-opacity="1" d="M 10.601562 1.136719 C 10.601562 0.957031 10.738281 0.8125 10.90625 0.8125 C 11.074219 0.8125 11.210938 0.957031 11.210938 1.136719 C 11.210938 1.3125 11.074219 1.457031 10.90625 1.457031 C 10.738281 1.457031 10.601562 1.3125 10.601562 1.136719 Z M 10.601562 1.136719 "/>
<path fill-rule="nonzero" fill="rgb(100%, 100%, 100%)" fill-opacity="1" d="M 11.574219 1.136719 C 11.574219 0.957031 11.710938 0.8125 11.878906 0.8125 C 12.046875 0.8125 12.183594 0.957031 12.183594 1.136719 C 12.183594 1.3125 12.046875 1.457031 11.878906 1.457031 C 11.710938 1.457031 11.574219 1.3125 11.574219 1.136719 Z M 11.574219 1.136719 "/>
<path fill-rule="nonzero" fill="rgb(100%, 100%, 100%)" fill-opacity="1" d="M 11.25 1.460938 C 11.25 1.28125 11.386719 1.136719 11.554688 1.136719 C 11.722656 1.136719 11.859375 1.28125 11.859375 1.460938 C 11.859375 1.636719 11.722656 1.78125 11.554688 1.78125 C 11.386719 1.78125 11.25 1.636719 11.25 1.460938 Z M 11.25 1.460938 "/>
<path fill-rule="nonzero" fill="rgb(100%, 100%, 100%)" fill-opacity="1" d="M 12.226562 1.621094 C 12.226562 1.445312 12.363281 1.300781 12.53125 1.300781 C 12.699219 1.300781 12.832031 1.445312 12.832031 1.621094 C 12.832031 1.800781 12.699219 1.945312 12.53125 1.945312 C 12.363281 1.945312 12.226562 1.800781 12.226562 1.621094 Z M 12.226562 1.621094 "/>
<path fill-rule="nonzero" fill="rgb(100%, 100%, 100%)" fill-opacity="1" d="M 11.820312 1.949219 C 11.820312 1.769531 11.957031 1.625 12.125 1.625 C 12.292969 1.625 12.429688 1.769531 12.429688 1.949219 C 12.429688 2.125 12.292969 2.269531 12.125 2.269531 C 11.957031 2.269531 11.820312 2.125 11.820312 1.949219 Z M 11.820312 1.949219 "/>
<path fill-rule="nonzero" fill="rgb(100%, 100%, 100%)" fill-opacity="1" d="M 12.710938 2.273438 C 12.710938 2.09375 12.847656 1.949219 13.015625 1.949219 C 13.183594 1.949219 13.320312 2.09375 13.320312 2.273438 C 13.320312 2.449219 13.183594 2.59375 13.015625 2.59375 C 12.847656 2.59375 12.710938 2.449219 12.710938 2.273438 Z M 12.710938 2.273438 "/>
<path fill-rule="nonzero" fill="rgb(100%, 100%, 100%)" fill-opacity="1" d="M 12.304688 2.515625 C 12.304688 2.339844 12.441406 2.195312 12.609375 2.195312 C 12.777344 2.195312 12.914062 2.339844 12.914062 2.515625 C 12.914062 2.695312 12.777344 2.839844 12.609375 2.839844 C 12.441406 2.839844 12.304688 2.695312 12.304688 2.515625 Z M 12.304688 2.515625 "/>
<path fill-rule="nonzero" fill="rgb(100%, 100%, 100%)" fill-opacity="1" d="M 13.117188 3.085938 C 13.117188 2.90625 13.253906 2.761719 13.421875 2.761719 C 13.589844 2.761719 13.726562 2.90625 13.726562 3.085938 C 13.726562 3.261719 13.589844 3.40625 13.421875 3.40625 C 13.253906 3.40625 13.117188 3.261719 13.117188 3.085938 Z M 13.117188 3.085938 "/>
<path fill-rule="nonzero" fill="rgb(100%, 100%, 100%)" fill-opacity="1" d="M 12.710938 3.246094 C 12.710938 3.070312 12.847656 2.925781 13.015625 2.925781 C 13.183594 2.925781 13.320312 3.070312 13.320312 3.246094 C 13.320312 3.425781 13.183594 3.570312 13.015625 3.570312 C 12.847656 3.570312 12.710938 3.425781 12.710938 3.246094 Z M 12.710938 3.246094 "/>
<path fill-rule="nonzero" fill="rgb(100%, 100%, 100%)" fill-opacity="1" d="M 13.28125 3.898438 C 13.28125 3.71875 13.417969 3.574219 13.585938 3.574219 C 13.753906 3.574219 13.890625 3.71875 13.890625 3.898438 C 13.890625 4.074219 13.753906 4.21875 13.585938 4.21875 C 13.417969 4.21875 13.28125 4.074219 13.28125 3.898438 Z M 13.28125 3.898438 "/>
<path fill-rule="nonzero" fill="rgb(100%, 100%, 100%)" fill-opacity="1" d="M 13.199219 4.710938 C 13.199219 4.53125 13.335938 4.386719 13.503906 4.386719 C 13.671875 4.386719 13.808594 4.53125 13.808594 4.710938 C 13.808594 4.886719 13.671875 5.03125 13.503906 5.03125 C 13.335938 5.03125 13.199219 4.886719 13.199219 4.710938 Z M 13.199219 4.710938 "/>
<path fill-rule="nonzero" fill="rgb(100%, 100%, 100%)" fill-opacity="1" d="M 12.710938 4.710938 C 12.710938 4.53125 12.847656 4.386719 13.015625 4.386719 C 13.183594 4.386719 13.320312 4.53125 13.320312 4.710938 C 13.320312 4.886719 13.183594 5.03125 13.015625 5.03125 C 12.847656 5.03125 12.710938 4.886719 12.710938 4.710938 Z M 12.710938 4.710938 "/>
<path fill-rule="nonzero" fill="rgb(100%, 100%, 100%)" fill-opacity="1" d="M 12.792969 3.898438 C 12.792969 3.71875 12.929688 3.574219 13.097656 3.574219 C 13.265625 3.574219 13.402344 3.71875 13.402344 3.898438 C 13.402344 4.074219 13.265625 4.21875 13.097656 4.21875 C 12.929688 4.21875 12.792969 4.074219 12.792969 3.898438 Z M 12.792969 3.898438 "/>
<path fill-rule="nonzero" fill="rgb(100%, 100%, 100%)" fill-opacity="1" d="M 12.957031 5.519531 C 12.957031 5.34375 13.09375 5.199219 13.261719 5.199219 C 13.429688 5.199219 13.566406 5.34375 13.566406 5.519531 C 13.566406 5.699219 13.429688 5.84375 13.261719 5.84375 C 13.09375 5.84375 12.957031 5.699219 12.957031 5.519531 Z M 12.957031 5.519531 "/>
<path fill-rule="nonzero" fill="rgb(100%, 100%, 100%)" fill-opacity="1" d="M 12.550781 5.359375 C 12.550781 5.179688 12.6875 5.035156 12.855469 5.035156 C 13.023438 5.035156 13.160156 5.179688 13.160156 5.359375 C 13.160156 5.535156 13.023438 5.679688 12.855469 5.679688 C 12.6875 5.679688 12.550781 5.535156 12.550781 5.359375 Z M 12.550781 5.359375 "/>
<path fill-rule="nonzero" fill="rgb(100%, 100%, 100%)" fill-opacity="1" d="M 12.46875 6.332031 C 12.46875 6.15625 12.605469 6.011719 12.773438 6.011719 C 12.941406 6.011719 13.078125 6.15625 13.078125 6.332031 C 13.078125 6.511719 12.941406 6.65625 12.773438 6.65625 C 12.605469 6.65625 12.46875 6.511719 12.46875 6.332031 Z M 12.46875 6.332031 "/>
<path fill-rule="nonzero" fill="rgb(100%, 100%, 100%)" fill-opacity="1" d="M 12.144531 6.089844 C 12.144531 5.910156 12.28125 5.765625 12.449219 5.765625 C 12.617188 5.765625 12.753906 5.910156 12.753906 6.089844 C 12.753906 6.269531 12.617188 6.414062 12.449219 6.414062 C 12.28125 6.414062 12.144531 6.269531 12.144531 6.089844 Z M 12.144531 6.089844 "/>
<path fill-rule="nonzero" fill="rgb(100%, 100%, 100%)" fill-opacity="1" d="M 13.363281 13.238281 C 13.363281 13.058594 13.5 12.914062 13.667969 12.914062 C 13.835938 12.914062 13.972656 13.058594 13.972656 13.238281 C 13.972656 13.414062 13.835938 13.558594 13.667969 13.558594 C 13.5 13.558594 13.363281 13.414062 13.363281 13.238281 Z M 13.363281 13.238281 "/>
<path fill-rule="nonzero" fill="rgb(100%, 100%, 100%)" fill-opacity="1" d="M 12.710938 13.238281 C 12.710938 13.058594 12.847656 12.914062 13.015625 12.914062 C 13.183594 12.914062 13.320312 13.058594 13.320312 13.238281 C 13.320312 13.414062 13.183594 13.558594 13.015625 13.558594 C 12.847656 13.558594 12.710938 13.414062 12.710938 13.238281 Z M 12.710938 13.238281 "/>
<path fill-rule="nonzero" fill="rgb(100%, 100%, 100%)" fill-opacity="1" d="M 12.710938 13.238281 C 12.710938 13.058594 12.847656 12.914062 13.015625 12.914062 C 13.183594 12.914062 13.320312 13.058594 13.320312 13.238281 C 13.320312 13.414062 13.183594 13.558594 13.015625 13.558594 C 12.847656 13.558594 12.710938 13.414062 12.710938 13.238281 Z M 12.710938 13.238281 "/>
<path fill-rule="nonzero" fill="rgb(100%, 100%, 100%)" fill-opacity="1" d="M 12.054688 13.242188 C 12.054688 13.0625 12.191406 12.917969 12.359375 12.917969 C 12.527344 12.917969 12.664062 13.0625 12.664062 13.242188 C 12.664062 13.417969 12.527344 13.5625 12.359375 13.5625 C 12.191406 13.5625 12.054688 13.417969 12.054688 13.242188 Z M 12.054688 13.242188 "/>
<path fill-rule="nonzero" fill="rgb(100%, 100%, 100%)" fill-opacity="1" d="M 11.40625 13.242188 C 11.40625 13.0625 11.542969 12.917969 11.710938 12.917969 C 11.878906 12.917969 12.015625 13.0625 12.015625 13.242188 C 12.015625 13.417969 11.878906 13.5625 11.710938 13.5625 C 11.542969 13.5625 11.40625 13.417969 11.40625 13.242188 Z M 11.40625 13.242188 "/>
<path fill-rule="nonzero" fill="rgb(100%, 100%, 100%)" fill-opacity="1" d="M 11.40625 13.242188 C 11.40625 13.0625 11.542969 12.917969 11.710938 12.917969 C 11.878906 12.917969 12.015625 13.0625 12.015625 13.242188 C 12.015625 13.417969 11.878906 13.5625 11.710938 13.5625 C 11.542969 13.5625 11.40625 13.417969 11.40625 13.242188 Z M 11.40625 13.242188 "/>
<path fill-rule="nonzero" fill="rgb(100%, 100%, 100%)" fill-opacity="1" d="M 10.511719 13.242188 C 10.511719 13.0625 10.648438 12.917969 10.816406 12.917969 C 10.984375 12.917969 11.121094 13.0625 11.121094 13.242188 C 11.121094 13.417969 10.984375 13.5625 10.816406 13.5625 C 10.648438 13.5625 10.511719 13.417969 10.511719 13.242188 Z M 10.511719 13.242188 "/>
<path fill-rule="nonzero" fill="rgb(100%, 100%, 100%)" fill-opacity="1" d="M 9.863281 13.242188 C 9.863281 13.0625 10 12.917969 10.167969 12.917969 C 10.335938 12.917969 10.472656 13.0625 10.472656 13.242188 C 10.472656 13.417969 10.335938 13.5625 10.167969 13.5625 C 10 13.5625 9.863281 13.417969 9.863281 13.242188 Z M 9.863281 13.242188 "/>
<path fill-rule="nonzero" fill="rgb(100%, 100%, 100%)" fill-opacity="1" d="M 9.863281 13.242188 C 9.863281 13.0625 10 12.917969 10.167969 12.917969 C 10.335938 12.917969 10.472656 13.0625 10.472656 13.242188 C 10.472656 13.417969 10.335938 13.5625 10.167969 13.5625 C 10 13.5625 9.863281 13.417969 9.863281 13.242188 Z M 9.863281 13.242188 "/>
<path fill-rule="nonzero" fill="rgb(100%, 100%, 100%)" fill-opacity="1" d="M 9.050781 13.242188 C 9.050781 13.0625 9.1875 12.917969 9.355469 12.917969 C 9.523438 12.917969 9.660156 13.0625 9.660156 13.242188 C 9.660156 13.417969 9.523438 13.5625 9.355469 13.5625 C 9.1875 13.5625 9.050781 13.417969 9.050781 13.242188 Z M 9.050781 13.242188 "/>
<path fill-rule="nonzero" fill="rgb(100%, 100%, 100%)" fill-opacity="1" d="M 8.15625 13.242188 C 8.15625 13.0625 8.292969 12.917969 8.460938 12.917969 C 8.628906 12.917969 8.765625 13.0625 8.765625 13.242188 C 8.765625 13.417969 8.628906 13.5625 8.460938 13.5625 C 8.292969 13.5625 8.15625 13.417969 8.15625 13.242188 Z M 8.15625 13.242188 "/>
<path fill-rule="nonzero" fill="rgb(100%, 100%, 100%)" fill-opacity="1" d="M 7.507812 13.242188 C 7.507812 13.0625 7.644531 12.917969 7.8125 12.917969 C 7.980469 12.917969 8.117188 13.0625 8.117188 13.242188 C 8.117188 13.417969 7.980469 13.5625 7.8125 13.5625 C 7.644531 13.5625 7.507812 13.417969 7.507812 13.242188 Z M 7.507812 13.242188 "/>
<path fill-rule="nonzero" fill="rgb(100%, 100%, 100%)" fill-opacity="1" d="M 6.777344 13.242188 C 6.777344 13.0625 6.914062 12.917969 7.082031 12.917969 C 7.25 12.917969 7.386719 13.0625 7.386719 13.242188 C 7.386719 13.417969 7.25 13.5625 7.082031 13.5625 C 6.914062 13.5625 6.777344 13.417969 6.777344 13.242188 Z M 6.777344 13.242188 "/>
<path fill-rule="nonzero" fill="rgb(100%, 100%, 100%)" fill-opacity="1" d="M 6.777344 13.242188 C 6.777344 13.0625 6.914062 12.917969 7.082031 12.917969 C 7.25 12.917969 7.386719 13.0625 7.386719 13.242188 C 7.386719 13.417969 7.25 13.5625 7.082031 13.5625 C 6.914062 13.5625 6.777344 13.417969 6.777344 13.242188 Z M 6.777344 13.242188 "/>
<path fill-rule="nonzero" fill="rgb(100%, 100%, 100%)" fill-opacity="1" d="M 13.382812 12.757812 C 13.382812 12.582031 13.519531 12.4375 13.6875 12.4375 C 13.855469 12.4375 13.992188 12.582031 13.992188 12.757812 C 13.992188 12.9375 13.855469 13.082031 13.6875 13.082031 C 13.519531 13.082031 13.382812 12.9375 13.382812 12.757812 Z M 13.382812 12.757812 "/>
<path fill-rule="nonzero" fill="rgb(100%, 100%, 100%)" fill-opacity="1" d="M 12.734375 12.757812 C 12.734375 12.582031 12.871094 12.4375 13.039062 12.4375 C 13.207031 12.4375 13.339844 12.582031 13.339844 12.757812 C 13.339844 12.9375 13.207031 13.082031 13.039062 13.082031 C 12.871094 13.082031 12.734375 12.9375 12.734375 12.757812 Z M 12.734375 12.757812 "/>
<path fill-rule="nonzero" fill="rgb(100%, 100%, 100%)" fill-opacity="1" d="M 12.734375 12.757812 C 12.734375 12.582031 12.871094 12.4375 13.039062 12.4375 C 13.207031 12.4375 13.339844 12.582031 13.339844 12.757812 C 13.339844 12.9375 13.207031 13.082031 13.039062 13.082031 C 12.871094 13.082031 12.734375 12.9375 12.734375 12.757812 Z M 12.734375 12.757812 "/>
<path fill-rule="nonzero" fill="rgb(100%, 100%, 100%)" fill-opacity="1" d="M 12.074219 12.761719 C 12.074219 12.585938 12.210938 12.441406 12.378906 12.441406 C 12.546875 12.441406 12.683594 12.585938 12.683594 12.761719 C 12.683594 12.941406 12.546875 13.085938 12.378906 13.085938 C 12.210938 13.085938 12.074219 12.941406 12.074219 12.761719 Z M 12.074219 12.761719 "/>
<path fill-rule="nonzero" fill="rgb(100%, 100%, 100%)" fill-opacity="1" d="M 11.425781 12.761719 C 11.425781 12.585938 11.5625 12.441406 11.730469 12.441406 C 11.898438 12.441406 12.035156 12.585938 12.035156 12.761719 C 12.035156 12.941406 11.898438 13.085938 11.730469 13.085938 C 11.5625 13.085938 11.425781 12.941406 11.425781 12.761719 Z M 11.425781 12.761719 "/>
<path fill-rule="nonzero" fill="rgb(100%, 100%, 100%)" fill-opacity="1" d="M 11.425781 12.761719 C 11.425781 12.585938 11.5625 12.441406 11.730469 12.441406 C 11.898438 12.441406 12.035156 12.585938 12.035156 12.761719 C 12.035156 12.941406 11.898438 13.085938 11.730469 13.085938 C 11.5625 13.085938 11.425781 12.941406 11.425781 12.761719 Z M 11.425781 12.761719 "/>
<path fill-rule="nonzero" fill="rgb(100%, 100%, 100%)" fill-opacity="1" d="M 10.53125 12.761719 C 10.53125 12.585938 10.667969 12.441406 10.835938 12.441406 C 11.003906 12.441406 11.140625 12.585938 11.140625 12.761719 C 11.140625 12.941406 11.003906 13.085938 10.835938 13.085938 C 10.667969 13.085938 10.53125 12.941406 10.53125 12.761719 Z M 10.53125 12.761719 "/>
<path fill-rule="nonzero" fill="rgb(100%, 100%, 100%)" fill-opacity="1" d="M 9.882812 12.761719 C 9.882812 12.585938 10.019531 12.441406 10.1875 12.441406 C 10.355469 12.441406 10.492188 12.585938 10.492188 12.761719 C 10.492188 12.941406 10.355469 13.085938 10.1875 13.085938 C 10.019531 13.085938 9.882812 12.941406 9.882812 12.761719 Z M 9.882812 12.761719 "/>
<path fill-rule="nonzero" fill="rgb(100%, 100%, 100%)" fill-opacity="1" d="M 9.882812 12.761719 C 9.882812 12.585938 10.019531 12.441406 10.1875 12.441406 C 10.355469 12.441406 10.492188 12.585938 10.492188 12.761719 C 10.492188 12.941406 10.355469 13.085938 10.1875 13.085938 C 10.019531 13.085938 9.882812 12.941406 9.882812 12.761719 Z M 9.882812 12.761719 "/>
<path fill-rule="nonzero" fill="rgb(100%, 100%, 100%)" fill-opacity="1" d="M 9.070312 12.761719 C 9.070312 12.585938 9.207031 12.441406 9.375 12.441406 C 9.542969 12.441406 9.679688 12.585938 9.679688 12.761719 C 9.679688 12.941406 9.542969 13.085938 9.375 13.085938 C 9.207031 13.085938 9.070312 12.941406 9.070312 12.761719 Z M 9.070312 12.761719 "/>
<path fill-rule="nonzero" fill="rgb(100%, 100%, 100%)" fill-opacity="1" d="M 8.175781 12.761719 C 8.175781 12.585938 8.3125 12.441406 8.480469 12.441406 C 8.648438 12.441406 8.785156 12.585938 8.785156 12.761719 C 8.785156 12.941406 8.648438 13.085938 8.480469 13.085938 C 8.3125 13.085938 8.175781 12.941406 8.175781 12.761719 Z M 8.175781 12.761719 "/>
<path fill-rule="nonzero" fill="rgb(100%, 100%, 100%)" fill-opacity="1" d="M 7.527344 12.761719 C 7.527344 12.585938 7.664062 12.441406 7.832031 12.441406 C 8 12.441406 8.136719 12.585938 8.136719 12.761719 C 8.136719 12.941406 8 13.085938 7.832031 13.085938 C 7.664062 13.085938 7.527344 12.941406 7.527344 12.761719 Z M 7.527344 12.761719 "/>
<path fill-rule="nonzero" fill="rgb(100%, 100%, 100%)" fill-opacity="1" d="M 6.777344 12.753906 C 6.777344 12.574219 6.914062 12.429688 7.082031 12.429688 C 7.25 12.429688 7.386719 12.574219 7.386719 12.753906 C 7.386719 12.929688 7.25 13.074219 7.082031 13.074219 C 6.914062 13.074219 6.777344 12.929688 6.777344 12.753906 Z M 6.777344 12.753906 "/>
<path fill-rule="nonzero" fill="rgb(100%, 100%, 100%)" fill-opacity="1" d="M 6.207031 12.753906 C 6.207031 12.574219 6.34375 12.429688 6.511719 12.429688 C 6.679688 12.429688 6.816406 12.574219 6.816406 12.753906 C 6.816406 12.929688 6.679688 13.074219 6.511719 13.074219 C 6.34375 13.074219 6.207031 12.929688 6.207031 12.753906 Z M 6.207031 12.753906 "/>
<path fill-rule="nonzero" fill="rgb(100%, 100%, 100%)" fill-opacity="1" d="M 6.207031 13.242188 C 6.207031 13.0625 6.34375 12.917969 6.511719 12.917969 C 6.679688 12.917969 6.816406 13.0625 6.816406 13.242188 C 6.816406 13.417969 6.679688 13.5625 6.511719 13.5625 C 6.34375 13.5625 6.207031 13.417969 6.207031 13.242188 Z M 6.207031 13.242188 "/>
<path fill-rule="nonzero" fill="rgb(100%, 100%, 100%)" fill-opacity="1" d="M 6.371094 12.183594 C 6.371094 12.007812 6.507812 11.863281 6.675781 11.863281 C 6.84375 11.863281 6.980469 12.007812 6.980469 12.183594 C 6.980469 12.363281 6.84375 12.507812 6.675781 12.507812 C 6.507812 12.507812 6.371094 12.363281 6.371094 12.183594 Z M 6.371094 12.183594 "/>
<path fill-rule="nonzero" fill="rgb(100%, 100%, 100%)" fill-opacity="1" d="M 6.855469 12.347656 C 6.855469 12.167969 6.992188 12.023438 7.160156 12.023438 C 7.328125 12.023438 7.464844 12.167969 7.464844 12.347656 C 7.464844 12.523438 7.328125 12.667969 7.160156 12.667969 C 6.992188 12.667969 6.855469 12.523438 6.855469 12.347656 Z M 6.855469 12.347656 "/>
<path fill-rule="nonzero" fill="rgb(100%, 100%, 100%)" fill-opacity="1" d="M 7.101562 12.023438 C 7.101562 11.84375 7.238281 11.699219 7.40625 11.699219 C 7.574219 11.699219 7.710938 11.84375 7.710938 12.023438 C 7.710938 12.199219 7.574219 12.34375 7.40625 12.34375 C 7.238281 12.34375 7.101562 12.199219 7.101562 12.023438 Z M 7.101562 12.023438 "/>
<path fill-rule="nonzero" fill="rgb(100%, 100%, 100%)" fill-opacity="1" d="M 6.695312 11.617188 C 6.695312 11.4375 6.832031 11.292969 7 11.292969 C 7.167969 11.292969 7.304688 11.4375 7.304688 11.617188 C 7.304688 11.792969 7.167969 11.9375 7 11.9375 C 6.832031 11.9375 6.695312 11.792969 6.695312 11.617188 Z M 6.695312 11.617188 "/>
<path fill-rule="nonzero" fill="rgb(100%, 100%, 100%)" fill-opacity="1" d="M 7.261719 11.128906 C 7.261719 10.949219 7.398438 10.804688 7.566406 10.804688 C 7.734375 10.804688 7.871094 10.949219 7.871094 11.128906 C 7.871094 11.308594 7.734375 11.453125 7.566406 11.453125 C 7.398438 11.453125 7.261719 11.308594 7.261719 11.128906 Z M 7.261719 11.128906 "/>
<path fill-rule="nonzero" fill="rgb(100%, 100%, 100%)" fill-opacity="1" d="M 7.667969 11.371094 C 7.667969 11.195312 7.804688 11.050781 7.972656 11.050781 C 8.140625 11.050781 8.277344 11.195312 8.277344 11.371094 C 8.277344 11.550781 8.140625 11.695312 7.972656 11.695312 C 7.804688 11.695312 7.667969 11.550781 7.667969 11.371094 Z M 7.667969 11.371094 "/>
<path fill-rule="nonzero" fill="rgb(100%, 100%, 100%)" fill-opacity="1" d="M 7.832031 10.558594 C 7.832031 10.382812 7.96875 10.238281 8.136719 10.238281 C 8.304688 10.238281 8.441406 10.382812 8.441406 10.558594 C 8.441406 10.738281 8.304688 10.882812 8.136719 10.882812 C 7.96875 10.882812 7.832031 10.738281 7.832031 10.558594 Z M 7.832031 10.558594 "/>
<path fill-rule="nonzero" fill="rgb(100%, 100%, 100%)" fill-opacity="1" d="M 8.238281 10.804688 C 8.238281 10.625 8.375 10.480469 8.542969 10.480469 C 8.710938 10.480469 8.847656 10.625 8.847656 10.804688 C 8.847656 10.980469 8.710938 11.125 8.542969 11.125 C 8.375 11.125 8.238281 10.980469 8.238281 10.804688 Z M 8.238281 10.804688 "/>
<path fill-rule="nonzero" fill="rgb(100%, 100%, 100%)" fill-opacity="1" d="M 8.402344 9.992188 C 8.402344 9.8125 8.535156 9.667969 8.703125 9.667969 C 8.871094 9.667969 9.007812 9.8125 9.007812 9.992188 C 9.007812 10.171875 8.871094 10.3125 8.703125 10.3125 C 8.535156 10.3125 8.402344 10.171875 8.402344 9.992188 Z M 8.402344 9.992188 "/>
<path fill-rule="nonzero" fill="rgb(100%, 100%, 100%)" fill-opacity="1" d="M 8.96875 9.421875 C 8.96875 9.246094 9.105469 9.101562 9.273438 9.101562 C 9.441406 9.101562 9.578125 9.246094 9.578125 9.421875 C 9.578125 9.601562 9.441406 9.746094 9.273438 9.746094 C 9.105469 9.746094 8.96875 9.601562 8.96875 9.421875 Z M 8.96875 9.421875 "/>
<path fill-rule="nonzero" fill="rgb(100%, 100%, 100%)" fill-opacity="1" d="M 9.539062 8.855469 C 9.539062 8.675781 9.671875 8.53125 9.84375 8.53125 C 10.011719 8.53125 10.144531 8.675781 10.144531 8.855469 C 10.144531 9.03125 10.011719 9.175781 9.84375 9.175781 C 9.671875 9.175781 9.539062 9.03125 9.539062 8.855469 Z M 9.539062 8.855469 "/>
<path fill-rule="nonzero" fill="rgb(100%, 100%, 100%)" fill-opacity="1" d="M 9.863281 9.179688 C 9.863281 9 10 8.855469 10.167969 8.855469 C 10.335938 8.855469 10.472656 9 10.472656 9.179688 C 10.472656 9.359375 10.335938 9.503906 10.167969 9.503906 C 10 9.503906 9.863281 9.359375 9.863281 9.179688 Z M 9.863281 9.179688 "/>
<path fill-rule="nonzero" fill="rgb(100%, 100%, 100%)" fill-opacity="1" d="M 9.292969 9.667969 C 9.292969 9.488281 9.429688 9.34375 9.597656 9.34375 C 9.765625 9.34375 9.902344 9.488281 9.902344 9.667969 C 9.902344 9.84375 9.765625 9.988281 9.597656 9.988281 C 9.429688 9.988281 9.292969 9.84375 9.292969 9.667969 Z M 9.292969 9.667969 "/>
<path fill-rule="nonzero" fill="rgb(100%, 100%, 100%)" fill-opacity="1" d="M 8.726562 10.316406 C 8.726562 10.136719 8.863281 9.996094 9.03125 9.996094 C 9.199219 9.996094 9.335938 10.136719 9.335938 10.316406 C 9.335938 10.496094 9.199219 10.640625 9.03125 10.640625 C 8.863281 10.640625 8.726562 10.496094 8.726562 10.316406 Z M 8.726562 10.316406 "/>
<path fill-rule="nonzero" fill="rgb(100%, 100%, 100%)" fill-opacity="1" d="M 10.023438 8.285156 C 10.023438 8.109375 10.160156 7.964844 10.328125 7.964844 C 10.496094 7.964844 10.632812 8.109375 10.632812 8.285156 C 10.632812 8.464844 10.496094 8.609375 10.328125 8.609375 C 10.160156 8.609375 10.023438 8.464844 10.023438 8.285156 Z M 10.023438 8.285156 "/>
<path fill-rule="nonzero" fill="rgb(100%, 100%, 100%)" fill-opacity="1" d="M 10.59375 7.71875 C 10.59375 7.539062 10.730469 7.394531 10.898438 7.394531 C 11.066406 7.394531 11.203125 7.539062 11.203125 7.71875 C 11.203125 7.894531 11.066406 8.039062 10.898438 8.039062 C 10.730469 8.039062 10.59375 7.894531 10.59375 7.71875 Z M 10.59375 7.71875 "/>
<path fill-rule="nonzero" fill="rgb(100%, 100%, 100%)" fill-opacity="1" d="M 11.160156 7.148438 C 11.160156 6.972656 11.296875 6.828125 11.464844 6.828125 C 11.632812 6.828125 11.769531 6.972656 11.769531 7.148438 C 11.769531 7.328125 11.632812 7.472656 11.464844 7.472656 C 11.296875 7.472656 11.160156 7.328125 11.160156 7.148438 Z M 11.160156 7.148438 "/>
<path fill-rule="nonzero" fill="rgb(100%, 100%, 100%)" fill-opacity="1" d="M 11.730469 6.582031 C 11.730469 6.402344 11.867188 6.257812 12.035156 6.257812 C 12.203125 6.257812 12.339844 6.402344 12.339844 6.582031 C 12.339844 6.757812 12.203125 6.902344 12.035156 6.902344 C 11.867188 6.902344 11.730469 6.757812 11.730469 6.582031 Z M 11.730469 6.582031 "/>
<path fill-rule="nonzero" fill="rgb(100%, 100%, 100%)" fill-opacity="1" d="M 11.972656 6.824219 C 11.972656 6.644531 12.109375 6.5 12.277344 6.5 C 12.445312 6.5 12.582031 6.644531 12.582031 6.824219 C 12.582031 7.003906 12.445312 7.148438 12.277344 7.148438 C 12.109375 7.148438 11.972656 7.003906 11.972656 6.824219 Z M 11.972656 6.824219 "/>
<path fill-rule="nonzero" fill="rgb(100%, 100%, 100%)" fill-opacity="1" d="M 11.40625 7.394531 C 11.40625 7.214844 11.542969 7.070312 11.710938 7.070312 C 11.878906 7.070312 12.015625 7.214844 12.015625 7.394531 C 12.015625 7.570312 11.878906 7.714844 11.710938 7.714844 C 11.542969 7.714844 11.40625 7.570312 11.40625 7.394531 Z M 11.40625 7.394531 "/>
<path fill-rule="nonzero" fill="rgb(100%, 100%, 100%)" fill-opacity="1" d="M 10.917969 8.042969 C 10.917969 7.863281 11.054688 7.71875 11.222656 7.71875 C 11.390625 7.71875 11.527344 7.863281 11.527344 8.042969 C 11.527344 8.222656 11.390625 8.363281 11.222656 8.363281 C 11.054688 8.363281 10.917969 8.222656 10.917969 8.042969 Z M 10.917969 8.042969 "/>
<path fill-rule="nonzero" fill="rgb(100%, 100%, 100%)" fill-opacity="1" d="M 10.351562 8.609375 C 10.351562 8.433594 10.484375 8.289062 10.652344 8.289062 C 10.820312 8.289062 10.957031 8.433594 10.957031 8.609375 C 10.957031 8.789062 10.820312 8.933594 10.652344 8.933594 C 10.484375 8.933594 10.351562 8.789062 10.351562 8.609375 Z M 10.351562 8.609375 "/>
</svg>
