<?xml version="1.0" encoding="UTF-8"?>
<svg xmlns="http://www.w3.org/2000/svg" xmlns:xlink="http://www.w3.org/1999/xlink" width="14" height="14" viewBox="0 0 14 14">
<path fill-rule="nonzero" fill="rgb(0%, 0%, 0%)" fill-opacity="1" stroke-width="10" stroke-linecap="butt" stroke-linejoin="miter" stroke="rgb(100%, 100%, 100%)" stroke-opacity="1" stroke-miterlimit="4" d="M 5.027343 5.027343 L 5.027343 148.972649 L 148.972649 148.972649 L 148.972649 5.027343 Z M 5.027343 5.027343 " transform="matrix(0.0909091, 0, 0, 0.0909091, 0, 0)"/>
<path fill-rule="nonzero" fill="rgb(100%, 100%, 100%)" fill-opacity="1" d="M 4.214844 9.355469 L 5.273438 9.257812 C 5.363281 9.753906 5.535156 10.117188 5.785156 10.339844 C 6.042969 10.566406 6.367188 10.679688 6.761719 10.679688 C 7.097656 10.679688 7.398438 10.597656 7.652344 10.445312 C 7.90625 10.289062 8.117188 10.082031 8.28125 9.820312 C 8.445312 9.5625 8.578125 9.214844 8.691406 8.773438 C 8.800781 8.332031 8.855469 7.882812 8.855469 7.425781 C 8.855469 7.375 8.851562 7.300781 8.847656 7.203125 C 8.628906 7.558594 8.328125 7.84375 7.945312 8.0625 C 7.566406 8.277344 7.148438 8.386719 6.703125 8.386719 C 5.964844 8.386719 5.332031 8.117188 4.820312 7.578125 C 4.304688 7.039062 4.050781 6.328125 4.050781 5.445312 C 4.050781 4.539062 4.316406 3.804688 4.851562 3.25 C 5.390625 2.695312 6.0625 2.417969 6.871094 2.417969 C 7.457031 2.417969 7.988281 2.574219 8.472656 2.886719 C 8.957031 3.199219 9.324219 3.648438 9.574219 4.234375 C 9.824219 4.8125 9.949219 5.65625 9.949219 6.757812 C 9.949219 7.902344 9.824219 8.820312 9.578125 9.496094 C 9.328125 10.179688 8.957031 10.695312 8.464844 11.050781 C 7.972656 11.402344 7.398438 11.582031 6.738281 11.582031 C 6.035156 11.582031 5.460938 11.390625 5.015625 11 C 4.570312 10.609375 4.300781 10.058594 4.214844 9.355469 Z M 8.726562 5.390625 C 8.726562 4.761719 8.558594 4.257812 8.222656 3.886719 C 7.886719 3.515625 7.480469 3.328125 7.007812 3.328125 C 6.515625 3.328125 6.089844 3.527344 5.726562 3.929688 C 5.363281 4.328125 5.179688 4.847656 5.179688 5.484375 C 5.179688 6.054688 5.351562 6.519531 5.699219 6.875 C 6.042969 7.234375 6.46875 7.410156 6.972656 7.410156 C 7.484375 7.410156 7.902344 7.234375 8.230469 6.875 C 8.5625 6.519531 8.726562 6.027344 8.726562 5.390625 Z M 8.726562 5.390625 "/>
</svg>
