<?xml version="1.0" encoding="UTF-8"?>
<svg xmlns="http://www.w3.org/2000/svg" xmlns:xlink="http://www.w3.org/1999/xlink" width="14" height="14" viewBox="0 0 14 14">
<path fill-rule="nonzero" fill="rgb(0%, 0%, 0%)" fill-opacity="1" stroke-width="10" stroke-linecap="butt" stroke-linejoin="miter" stroke="rgb(100%, 100%, 100%)" stroke-opacity="1" stroke-miterlimit="4" d="M 7.991072 7.991072 L 7.991072 152.008931 L 152.008931 152.008931 L 152.008931 7.991072 Z M 7.991072 7.991072 " transform="matrix(0.0875, 0, 0, 0.0875, 0, 0)"/>
<path fill-rule="nonzero" fill="rgb(100%, 100%, 100%)" fill-opacity="1" d="M 3.703125 3.957031 L 3.675781 3.957031 L 2.195312 4.753906 L 1.96875 3.875 L 3.835938 2.875 L 4.820312 2.875 L 4.820312 11.410156 L 3.703125 11.410156 Z M 3.703125 3.957031 "/>
<path fill-rule="nonzero" fill="rgb(100%, 100%, 100%)" fill-opacity="1" d="M 6.261719 9.054688 L 7.285156 8.921875 C 7.402344 9.503906 7.601562 9.917969 7.890625 10.175781 C 8.167969 10.429688 8.511719 10.5625 8.917969 10.5625 C 9.402344 10.5625 9.8125 10.394531 10.140625 10.058594 C 10.476562 9.726562 10.644531 9.3125 10.644531 8.816406 C 10.644531 8.347656 10.492188 7.957031 10.183594 7.652344 C 9.871094 7.347656 9.480469 7.195312 9.007812 7.195312 C 8.8125 7.195312 8.570312 7.230469 8.28125 7.308594 L 8.398438 6.402344 C 8.464844 6.414062 8.519531 6.417969 8.5625 6.417969 C 9 6.417969 9.390625 6.300781 9.742188 6.078125 C 10.089844 5.847656 10.265625 5.5 10.265625 5.023438 C 10.265625 4.648438 10.140625 4.332031 9.886719 4.085938 C 9.632812 3.84375 9.300781 3.714844 8.898438 3.714844 C 8.5 3.714844 8.167969 3.84375 7.902344 4.09375 C 7.636719 4.34375 7.464844 4.722656 7.390625 5.222656 L 6.367188 5.039062 C 6.488281 4.351562 6.773438 3.816406 7.214844 3.441406 C 7.660156 3.0625 8.214844 2.875 8.875 2.875 C 9.332031 2.875 9.753906 2.972656 10.136719 3.167969 C 10.519531 3.363281 10.8125 3.632812 11.015625 3.964844 C 11.21875 4.308594 11.320312 4.664062 11.320312 5.042969 C 11.320312 5.40625 11.222656 5.734375 11.03125 6.03125 C 10.835938 6.328125 10.550781 6.558594 10.171875 6.738281 C 10.660156 6.851562 11.046875 7.089844 11.320312 7.449219 C 11.59375 7.808594 11.730469 8.253906 11.730469 8.796875 C 11.730469 9.527344 11.464844 10.144531 10.933594 10.648438 C 10.398438 11.15625 9.730469 11.410156 8.914062 11.410156 C 8.183594 11.410156 7.574219 11.191406 7.089844 10.753906 C 6.605469 10.320312 6.328125 9.753906 6.261719 9.054688 Z M 6.261719 9.054688 "/>
</svg>
