<?xml version="1.0" encoding="UTF-8"?>
<svg xmlns="http://www.w3.org/2000/svg" xmlns:xlink="http://www.w3.org/1999/xlink" width="16" height="16" viewBox="0 0 16 16">
<path fill-rule="nonzero" fill="rgb(100%, 100%, 100%)" fill-opacity="1" stroke-width="10" stroke-linecap="butt" stroke-linejoin="miter" stroke="rgb(100%, 0%, 0%)" stroke-opacity="1" stroke-miterlimit="4" d="M 5.000488 5.000488 L 5.000488 148.999504 L 148.999504 148.999504 L 148.999504 5.000488 Z M 5.000488 5.000488 " transform="matrix(0.103896, 0, 0, 0.103896, 0, 0)"/>
<path fill-rule="nonzero" fill="rgb(100%, 0%, 0%)" fill-opacity="1" d="M 7.144531 12.296875 C 6.707031 12.734375 6.179688 12.953125 5.558594 12.953125 C 4.941406 12.953125 4.414062 12.734375 3.976562 12.296875 C 3.539062 11.859375 3.316406 11.328125 3.316406 10.710938 L 3.316406 9.957031 L 4.808594 9.957031 L 4.808594 10.710938 C 4.808594 10.921875 4.878906 11.101562 5.023438 11.246094 C 5.171875 11.386719 5.351562 11.457031 5.558594 11.457031 C 5.769531 11.457031 5.945312 11.386719 6.082031 11.246094 C 6.234375 11.101562 6.304688 10.921875 6.304688 10.710938 L 6.304688 9.082031 C 6.066406 9.171875 5.816406 9.210938 5.558594 9.210938 C 4.941406 9.210938 4.414062 8.996094 3.976562 8.558594 C 3.539062 8.117188 3.316406 7.589844 3.316406 6.972656 L 3.316406 4.730469 C 3.316406 4.109375 3.539062 3.582031 3.976562 3.140625 C 4.414062 2.699219 4.941406 2.480469 5.558594 2.480469 C 6.179688 2.480469 6.707031 2.699219 7.144531 3.140625 C 7.582031 3.582031 7.800781 4.109375 7.800781 4.730469 L 7.800781 10.710938 C 7.800781 11.328125 7.582031 11.859375 7.144531 12.296875 M 5.023438 7.503906 C 5.171875 7.644531 5.351562 7.714844 5.558594 7.714844 C 5.769531 7.714844 5.945312 7.644531 6.082031 7.503906 C 6.234375 7.359375 6.304688 7.179688 6.304688 6.972656 L 6.304688 4.730469 C 6.304688 4.519531 6.234375 4.339844 6.082031 4.195312 C 5.945312 4.050781 5.769531 3.976562 5.558594 3.976562 C 5.351562 3.976562 5.171875 4.050781 5.023438 4.195312 C 4.878906 4.339844 4.808594 4.519531 4.808594 4.730469 L 4.808594 6.972656 C 4.808594 7.179688 4.878906 7.359375 5.023438 7.503906 "/>
<path fill-rule="nonzero" fill="rgb(100%, 0%, 0%)" fill-opacity="1" d="M 10.570312 2.480469 L 12.648438 2.480469 L 12.648438 3.230469 L 11.316406 3.230469 L 11.316406 4.417969 C 11.4375 4.375 11.5625 4.351562 11.691406 4.351562 C 12 4.351562 12.265625 4.457031 12.484375 4.683594 C 12.703125 4.898438 12.8125 5.167969 12.8125 5.476562 L 12.8125 6.597656 C 12.8125 6.902344 12.703125 7.167969 12.484375 7.386719 C 12.265625 7.609375 12 7.714844 11.691406 7.714844 C 11.382812 7.714844 11.121094 7.609375 10.898438 7.386719 C 10.679688 7.167969 10.570312 6.902344 10.570312 6.597656 L 10.570312 6.222656 L 11.316406 6.222656 L 11.316406 6.597656 C 11.316406 6.699219 11.355469 6.789062 11.425781 6.863281 C 11.5 6.933594 11.585938 6.964844 11.691406 6.964844 C 11.796875 6.964844 11.882812 6.933594 11.953125 6.863281 C 12.027344 6.789062 12.066406 6.699219 12.066406 6.597656 L 12.066406 5.476562 C 12.066406 5.371094 12.027344 5.277344 11.953125 5.207031 C 11.882812 5.132812 11.796875 5.097656 11.691406 5.097656 C 11.585938 5.097656 11.5 5.132812 11.425781 5.207031 C 11.355469 5.277344 11.316406 5.371094 11.316406 5.476562 L 10.570312 5.476562 L 10.570312 2.480469 "/>
<path fill-rule="nonzero" fill="rgb(100%, 0%, 0%)" fill-opacity="1" d="M 8.386719 2.480469 L 9.429688 2.480469 L 9.429688 3.519531 L 8.386719 3.519531 L 8.386719 2.480469 "/>
</svg>
