<?xml version="1.0" encoding="UTF-8"?>
<svg xmlns="http://www.w3.org/2000/svg" xmlns:xlink="http://www.w3.org/1999/xlink" width="14" height="14" viewBox="0 0 14 14">
<path fill-rule="nonzero" fill="rgb(0%, 0%, 0%)" fill-opacity="1" stroke-width="10" stroke-linecap="butt" stroke-linejoin="miter" stroke="rgb(100%, 100%, 100%)" stroke-opacity="1" stroke-miterlimit="4" d="M 5.027343 5.027343 L 5.027343 148.97264 L 148.97264 148.97264 L 148.97264 5.027343 Z M 5.027343 5.027343 " transform="matrix(0.0909091, 0, 0, 0.0909091, 0, 0)"/>
<path fill-rule="nonzero" fill="rgb(100%, 100%, 100%)" fill-opacity="1" d="M 3.96875 9.035156 L 5.148438 8.9375 C 5.234375 9.507812 5.441406 9.9375 5.757812 10.226562 C 6.074219 10.519531 6.457031 10.660156 6.90625 10.660156 C 7.445312 10.660156 7.902344 10.457031 8.277344 10.050781 C 8.652344 9.644531 8.835938 9.105469 8.835938 8.429688 C 8.835938 7.792969 8.660156 7.285156 8.296875 6.917969 C 7.941406 6.546875 7.46875 6.363281 6.886719 6.363281 C 6.527344 6.363281 6.203125 6.441406 5.910156 6.605469 C 5.617188 6.769531 5.386719 6.984375 5.222656 7.246094 L 4.171875 7.109375 L 5.058594 2.417969 L 9.597656 2.417969 L 9.597656 3.488281 L 5.953125 3.488281 L 5.460938 5.941406 C 6.007812 5.558594 6.585938 5.371094 7.1875 5.371094 C 7.984375 5.371094 8.660156 5.648438 9.207031 6.199219 C 9.753906 6.753906 10.03125 7.464844 10.03125 8.332031 C 10.03125 9.160156 9.789062 9.871094 9.304688 10.472656 C 8.722656 11.214844 7.917969 11.582031 6.90625 11.582031 C 6.074219 11.582031 5.394531 11.347656 4.871094 10.886719 C 4.347656 10.417969 4.046875 9.804688 3.96875 9.035156 Z M 3.96875 9.035156 "/>
</svg>
