<?xml version="1.0" encoding="UTF-8"?>
<svg xmlns="http://www.w3.org/2000/svg" xmlns:xlink="http://www.w3.org/1999/xlink" width="16" height="16" viewBox="0 0 16 16">
<path fill-rule="nonzero" fill="rgb(100%, 100%, 100%)" fill-opacity="1" stroke-width="10" stroke-linecap="butt" stroke-linejoin="miter" stroke="rgb(100%, 0%, 0%)" stroke-opacity="1" stroke-miterlimit="4" d="M 5.000488 5.000488 L 5.000488 148.999504 L 148.999504 148.999504 L 148.999504 5.000488 Z M 5.000488 5.000488 " transform="matrix(0.103896, 0, 0, 0.103896, 0, 0)"/>
<path fill-rule="nonzero" fill="rgb(100%, 0%, 0%)" fill-opacity="1" d="M 4.742188 2.480469 L 6.238281 2.480469 L 4.742188 9.957031 L 5.867188 9.957031 L 5.867188 7.714844 L 7.363281 7.714844 L 7.363281 9.957031 L 7.734375 9.957031 L 7.734375 11.457031 L 7.363281 11.457031 L 7.363281 12.953125 L 5.867188 12.953125 L 5.867188 11.457031 L 3.242188 11.457031 L 3.242188 9.957031 L 4.742188 2.480469 "/>
<path fill-rule="nonzero" fill="rgb(100%, 0%, 0%)" fill-opacity="1" d="M 10.472656 2.480469 L 12.546875 2.480469 L 12.546875 3.230469 L 11.210938 3.230469 L 11.210938 4.417969 C 11.332031 4.375 11.457031 4.351562 11.589844 4.351562 C 11.898438 4.351562 12.164062 4.457031 12.382812 4.683594 C 12.605469 4.898438 12.710938 5.167969 12.710938 5.476562 L 12.710938 6.597656 C 12.710938 6.902344 12.605469 7.167969 12.382812 7.386719 C 12.164062 7.609375 11.898438 7.714844 11.589844 7.714844 C 11.285156 7.714844 11.015625 7.609375 10.800781 7.386719 C 10.578125 7.167969 10.472656 6.902344 10.472656 6.597656 L 10.472656 6.222656 L 11.210938 6.222656 L 11.210938 6.597656 C 11.210938 6.699219 11.25 6.789062 11.324219 6.863281 C 11.394531 6.933594 11.488281 6.964844 11.589844 6.964844 C 11.695312 6.964844 11.785156 6.933594 11.855469 6.863281 C 11.925781 6.789062 11.960938 6.699219 11.960938 6.597656 L 11.960938 5.476562 C 11.960938 5.371094 11.925781 5.277344 11.855469 5.207031 C 11.785156 5.132812 11.695312 5.097656 11.589844 5.097656 C 11.488281 5.097656 11.394531 5.132812 11.324219 5.207031 C 11.25 5.277344 11.210938 5.371094 11.210938 5.476562 L 10.472656 5.476562 L 10.472656 2.480469 "/>
<path fill-rule="nonzero" fill="rgb(100%, 0%, 0%)" fill-opacity="1" d="M 8.289062 2.480469 L 9.324219 2.480469 L 9.324219 3.519531 L 8.289062 3.519531 L 8.289062 2.480469 "/>
</svg>
