<?xml version="1.0" encoding="UTF-8"?>
<svg xmlns="http://www.w3.org/2000/svg" xmlns:xlink="http://www.w3.org/1999/xlink" width="16" height="16" viewBox="0 0 16 16">
<path fill-rule="nonzero" fill="rgb(100%, 100%, 100%)" fill-opacity="1" stroke-width="10" stroke-linecap="butt" stroke-linejoin="miter" stroke="rgb(100%, 0%, 0%)" stroke-opacity="1" stroke-miterlimit="4" d="M 5.000488 5.000488 L 5.000488 148.999504 L 148.999504 148.999504 L 148.999504 5.000488 Z M 5.000488 5.000488 " transform="matrix(0.103896, 0, 0, 0.103896, 0, 0)"/>
<path fill-rule="nonzero" fill="rgb(100%, 0%, 0%)" fill-opacity="1" d="M 3.285156 2.480469 L 7.4375 2.480469 L 7.4375 3.976562 L 4.773438 3.976562 L 4.773438 6.359375 C 5.011719 6.269531 5.261719 6.226562 5.523438 6.222656 C 6.144531 6.222656 6.671875 6.441406 7.113281 6.882812 C 7.550781 7.320312 7.765625 7.851562 7.765625 8.472656 L 7.765625 10.710938 C 7.765625 11.328125 7.550781 11.859375 7.113281 12.296875 C 6.671875 12.734375 6.144531 12.953125 5.523438 12.953125 C 4.910156 12.953125 4.378906 12.734375 3.941406 12.296875 C 3.5 11.859375 3.285156 11.328125 3.285156 10.710938 L 3.285156 9.957031 L 4.773438 9.957031 L 4.773438 10.710938 C 4.773438 10.921875 4.847656 11.101562 4.992188 11.246094 C 5.136719 11.386719 5.316406 11.457031 5.523438 11.457031 C 5.734375 11.457031 5.910156 11.386719 6.050781 11.246094 C 6.195312 11.101562 6.269531 10.921875 6.269531 10.710938 L 6.269531 8.472656 C 6.269531 8.257812 6.195312 8.082031 6.050781 7.9375 C 5.910156 7.792969 5.734375 7.714844 5.523438 7.714844 C 5.316406 7.714844 5.136719 7.792969 4.992188 7.9375 C 4.847656 8.082031 4.773438 8.257812 4.773438 8.472656 L 3.285156 8.472656 L 3.285156 2.480469 "/>
<path fill-rule="nonzero" fill="rgb(100%, 0%, 0%)" fill-opacity="1" d="M 10.742188 2.480469 L 12.820312 2.480469 L 12.820312 3.230469 L 11.488281 3.230469 L 11.488281 4.417969 C 11.605469 4.375 11.730469 4.351562 11.863281 4.351562 C 12.171875 4.351562 12.4375 4.457031 12.652344 4.683594 C 12.875 4.898438 12.984375 5.167969 12.984375 5.476562 L 12.984375 6.597656 C 12.984375 6.902344 12.875 7.167969 12.652344 7.386719 C 12.4375 7.609375 12.171875 7.714844 11.863281 7.714844 C 11.554688 7.714844 11.289062 7.609375 11.070312 7.386719 C 10.851562 7.167969 10.742188 6.902344 10.742188 6.597656 L 10.742188 6.222656 L 11.488281 6.222656 L 11.488281 6.597656 C 11.488281 6.699219 11.519531 6.789062 11.597656 6.863281 C 11.671875 6.933594 11.757812 6.964844 11.863281 6.964844 C 11.964844 6.964844 12.054688 6.933594 12.125 6.863281 C 12.199219 6.789062 12.234375 6.699219 12.234375 6.597656 L 12.234375 5.476562 C 12.234375 5.371094 12.199219 5.277344 12.125 5.207031 C 12.054688 5.132812 11.964844 5.097656 11.863281 5.097656 C 11.757812 5.097656 11.671875 5.132812 11.597656 5.207031 C 11.519531 5.277344 11.488281 5.371094 11.488281 5.476562 L 10.742188 5.476562 L 10.742188 2.480469 "/>
<path fill-rule="nonzero" fill="rgb(100%, 0%, 0%)" fill-opacity="1" d="M 8.589844 2.480469 L 9.632812 2.480469 L 9.632812 3.519531 L 8.589844 3.519531 L 8.589844 2.480469 "/>
</svg>
