<?xml version="1.0" encoding="UTF-8"?>
<svg xmlns="http://www.w3.org/2000/svg" xmlns:xlink="http://www.w3.org/1999/xlink" width="17.237164" height="15" viewBox="0 0 17.237164 15">
<path fill-rule="nonzero" fill="rgb(95.294118%, 57.254905%, 0%)" fill-opacity="1" d="M 17.238281 0 L 8.617188 15 L 0 0 Z M 17.238281 0 "/>
<path fill-rule="nonzero" fill="rgb(0%, 0%, 0%)" fill-opacity="1" d="M 8.671875 13.679688 L 1.136719 0.625 L 16.210938 0.625 Z M 8.671875 13.679688 "/>
<path fill-rule="nonzero" fill="rgb(0%, 0%, 0%)" fill-opacity="1" d="M 8.671875 13.714844 L 8.65625 13.6875 L 1.105469 0.605469 L 16.242188 0.605469 L 16.226562 0.632812 Z M 1.167969 0.640625 L 8.671875 13.644531 L 16.179688 0.640625 Z M 1.167969 0.640625 "/>
<path fill-rule="nonzero" fill="rgb(95.294118%, 57.254905%, 0%)" fill-opacity="1" d="M 11.054688 7.917969 L 11.054688 8.753906 L 6.371094 8.753906 C 6.363281 8.542969 6.398438 8.339844 6.472656 8.148438 C 6.589844 7.828125 6.78125 7.515625 7.042969 7.207031 C 7.308594 6.894531 7.6875 6.539062 8.183594 6.132812 C 8.953125 5.5 9.472656 5 9.746094 4.628906 C 10.015625 4.261719 10.152344 3.914062 10.152344 3.582031 C 10.152344 3.238281 10.027344 2.949219 9.78125 2.710938 C 9.535156 2.472656 9.210938 2.355469 8.816406 2.355469 C 8.398438 2.355469 8.0625 2.480469 7.808594 2.734375 C 7.558594 2.984375 7.429688 3.332031 7.429688 3.777344 L 6.535156 3.683594 C 6.59375 3.019531 6.824219 2.511719 7.226562 2.160156 C 7.625 1.808594 8.160156 1.636719 8.835938 1.636719 C 9.515625 1.636719 10.054688 1.824219 10.449219 2.203125 C 10.847656 2.578125 11.046875 3.046875 11.046875 3.601562 C 11.046875 3.886719 10.988281 4.164062 10.871094 4.441406 C 10.753906 4.714844 10.5625 5.003906 10.292969 5.304688 C 10.023438 5.609375 9.578125 6.023438 8.953125 6.554688 C 8.429688 6.992188 8.09375 7.289062 7.945312 7.445312 C 7.796875 7.601562 7.675781 7.757812 7.578125 7.917969 Z M 11.054688 7.917969 "/>
</svg>
