<?xml version="1.0" encoding="UTF-8"?>
<svg xmlns="http://www.w3.org/2000/svg" xmlns:xlink="http://www.w3.org/1999/xlink" width="14.308366" height="14" viewBox="0 0 14.308366 14">
<path fill-rule="nonzero" fill="rgb(0%, 0%, 0%)" fill-opacity="1" stroke-width="1.417577" stroke-linecap="butt" stroke-linejoin="miter" stroke="rgb(0%, 0%, 0%)" stroke-opacity="1" stroke-miterlimit="4" d="M 494.043103 1042.027331 L 8.334577 1042.027331 L 8.334577 566.822767 L 491.915719 566.822767 Z M 494.043103 1042.027331 " transform="matrix(0.0293788, 0, 0, 0.0293788, -0.225329, -16.633039)"/>
<path fill-rule="nonzero" fill="rgb(100%, 100%, 100%)" fill-opacity="1" d="M 3.835938 2.289062 C 3.835938 2.109375 3.972656 1.960938 4.144531 1.960938 C 4.316406 1.960938 4.453125 2.109375 4.453125 2.289062 C 4.453125 2.46875 4.316406 2.617188 4.144531 2.617188 C 3.972656 2.617188 3.835938 2.46875 3.835938 2.289062 Z M 3.835938 2.289062 "/>
<path fill-rule="nonzero" fill="rgb(100%, 100%, 100%)" fill-opacity="1" d="M 10.34375 2.457031 C 10.34375 2.277344 10.484375 2.132812 10.652344 2.132812 C 10.824219 2.132812 10.960938 2.277344 10.960938 2.457031 C 10.960938 2.640625 10.824219 2.785156 10.652344 2.785156 C 10.484375 2.785156 10.34375 2.640625 10.34375 2.457031 Z M 10.34375 2.457031 "/>
<path fill-rule="nonzero" fill="rgb(100%, 100%, 100%)" fill-opacity="1" d="M 3.835938 1.632812 C 3.835938 1.449219 3.972656 1.304688 4.144531 1.304688 C 4.316406 1.304688 4.453125 1.449219 4.453125 1.632812 C 4.453125 1.8125 4.316406 1.957031 4.144531 1.957031 C 3.972656 1.957031 3.835938 1.8125 3.835938 1.632812 Z M 3.835938 1.632812 "/>
<path fill-rule="nonzero" fill="rgb(100%, 100%, 100%)" fill-opacity="1" d="M 3.835938 0.890625 C 3.835938 0.710938 3.972656 0.5625 4.144531 0.5625 C 4.316406 0.5625 4.453125 0.710938 4.453125 0.890625 C 4.453125 1.070312 4.316406 1.21875 4.144531 1.21875 C 3.972656 1.21875 3.835938 1.070312 3.835938 0.890625 Z M 3.835938 0.890625 "/>
<path fill-rule="nonzero" fill="rgb(100%, 100%, 100%)" fill-opacity="1" d="M 3.835938 0.476562 C 3.835938 0.296875 3.972656 0.152344 4.144531 0.152344 C 4.316406 0.152344 4.453125 0.296875 4.453125 0.476562 C 4.453125 0.660156 4.316406 0.804688 4.144531 0.804688 C 3.972656 0.804688 3.835938 0.660156 3.835938 0.476562 Z M 3.835938 0.476562 "/>
<path fill-rule="nonzero" fill="rgb(100%, 100%, 100%)" fill-opacity="1" d="M 4.414062 0.476562 C 4.414062 0.296875 4.550781 0.152344 4.722656 0.152344 C 4.890625 0.152344 5.03125 0.296875 5.03125 0.476562 C 5.03125 0.660156 4.890625 0.804688 4.722656 0.804688 C 4.550781 0.804688 4.414062 0.660156 4.414062 0.476562 Z M 4.414062 0.476562 "/>
<path fill-rule="nonzero" fill="rgb(100%, 100%, 100%)" fill-opacity="1" d="M 5.152344 0.476562 C 5.152344 0.296875 5.292969 0.152344 5.460938 0.152344 C 5.632812 0.152344 5.769531 0.296875 5.769531 0.476562 C 5.769531 0.660156 5.632812 0.804688 5.460938 0.804688 C 5.292969 0.804688 5.152344 0.660156 5.152344 0.476562 Z M 5.152344 0.476562 "/>
<path fill-rule="nonzero" fill="rgb(100%, 100%, 100%)" fill-opacity="1" d="M 5.976562 0.476562 C 5.976562 0.296875 6.117188 0.152344 6.285156 0.152344 C 6.457031 0.152344 6.59375 0.296875 6.59375 0.476562 C 6.59375 0.660156 6.457031 0.804688 6.285156 0.804688 C 6.117188 0.804688 5.976562 0.660156 5.976562 0.476562 Z M 5.976562 0.476562 "/>
<path fill-rule="nonzero" fill="rgb(100%, 100%, 100%)" fill-opacity="1" d="M 6.800781 0.476562 C 6.800781 0.296875 6.9375 0.152344 7.109375 0.152344 C 7.28125 0.152344 7.417969 0.296875 7.417969 0.476562 C 7.417969 0.660156 7.28125 0.804688 7.109375 0.804688 C 6.9375 0.804688 6.800781 0.660156 6.800781 0.476562 Z M 6.800781 0.476562 "/>
<path fill-rule="nonzero" fill="rgb(100%, 100%, 100%)" fill-opacity="1" d="M 7.542969 0.476562 C 7.542969 0.296875 7.679688 0.152344 7.851562 0.152344 C 8.019531 0.152344 8.160156 0.296875 8.160156 0.476562 C 8.160156 0.660156 8.019531 0.804688 7.851562 0.804688 C 7.679688 0.804688 7.542969 0.660156 7.542969 0.476562 Z M 7.542969 0.476562 "/>
<path fill-rule="nonzero" fill="rgb(100%, 100%, 100%)" fill-opacity="1" d="M 8.363281 0.476562 C 8.363281 0.296875 8.503906 0.152344 8.675781 0.152344 C 8.84375 0.152344 8.984375 0.296875 8.984375 0.476562 C 8.984375 0.660156 8.84375 0.804688 8.675781 0.804688 C 8.503906 0.804688 8.363281 0.660156 8.363281 0.476562 Z M 8.363281 0.476562 "/>
<path fill-rule="nonzero" fill="rgb(100%, 100%, 100%)" fill-opacity="1" d="M 9.1875 0.476562 C 9.1875 0.296875 9.328125 0.152344 9.496094 0.152344 C 9.667969 0.152344 9.804688 0.296875 9.804688 0.476562 C 9.804688 0.660156 9.667969 0.804688 9.496094 0.804688 C 9.328125 0.804688 9.1875 0.660156 9.1875 0.476562 Z M 9.1875 0.476562 "/>
<path fill-rule="nonzero" fill="rgb(100%, 100%, 100%)" fill-opacity="1" d="M 9.929688 0.476562 C 9.929688 0.296875 10.066406 0.152344 10.238281 0.152344 C 10.410156 0.152344 10.546875 0.296875 10.546875 0.476562 C 10.546875 0.660156 10.410156 0.804688 10.238281 0.804688 C 10.066406 0.804688 9.929688 0.660156 9.929688 0.476562 Z M 9.929688 0.476562 "/>
<path fill-rule="nonzero" fill="rgb(100%, 100%, 100%)" fill-opacity="1" d="M 10.425781 0.476562 C 10.425781 0.296875 10.5625 0.152344 10.734375 0.152344 C 10.902344 0.152344 11.042969 0.296875 11.042969 0.476562 C 11.042969 0.660156 10.902344 0.804688 10.734375 0.804688 C 10.5625 0.804688 10.425781 0.660156 10.425781 0.476562 Z M 10.425781 0.476562 "/>
<path fill-rule="nonzero" fill="rgb(100%, 100%, 100%)" fill-opacity="1" d="M 10.425781 0.890625 C 10.425781 0.710938 10.5625 0.5625 10.734375 0.5625 C 10.902344 0.5625 11.042969 0.710938 11.042969 0.890625 C 11.042969 1.070312 10.902344 1.21875 10.734375 1.21875 C 10.5625 1.21875 10.425781 1.070312 10.425781 0.890625 Z M 10.425781 0.890625 "/>
<path fill-rule="nonzero" fill="rgb(100%, 100%, 100%)" fill-opacity="1" d="M 9.929688 0.890625 C 9.929688 0.710938 10.066406 0.5625 10.238281 0.5625 C 10.410156 0.5625 10.546875 0.710938 10.546875 0.890625 C 10.546875 1.070312 10.410156 1.21875 10.238281 1.21875 C 10.066406 1.21875 9.929688 1.070312 9.929688 0.890625 Z M 9.929688 0.890625 "/>
<path fill-rule="nonzero" fill="rgb(100%, 100%, 100%)" fill-opacity="1" d="M 9.1875 0.890625 C 9.1875 0.710938 9.328125 0.5625 9.496094 0.5625 C 9.667969 0.5625 9.804688 0.710938 9.804688 0.890625 C 9.804688 1.070312 9.667969 1.21875 9.496094 1.21875 C 9.328125 1.21875 9.1875 1.070312 9.1875 0.890625 Z M 9.1875 0.890625 "/>
<path fill-rule="nonzero" fill="rgb(100%, 100%, 100%)" fill-opacity="1" d="M 8.363281 0.890625 C 8.363281 0.710938 8.503906 0.5625 8.675781 0.5625 C 8.84375 0.5625 8.984375 0.710938 8.984375 0.890625 C 8.984375 1.070312 8.84375 1.21875 8.675781 1.21875 C 8.503906 1.21875 8.363281 1.070312 8.363281 0.890625 Z M 8.363281 0.890625 "/>
<path fill-rule="nonzero" fill="rgb(100%, 100%, 100%)" fill-opacity="1" d="M 7.542969 0.890625 C 7.542969 0.710938 7.679688 0.5625 7.851562 0.5625 C 8.019531 0.5625 8.160156 0.710938 8.160156 0.890625 C 8.160156 1.070312 8.019531 1.21875 7.851562 1.21875 C 7.679688 1.21875 7.542969 1.070312 7.542969 0.890625 Z M 7.542969 0.890625 "/>
<path fill-rule="nonzero" fill="rgb(100%, 100%, 100%)" fill-opacity="1" d="M 6.800781 0.890625 C 6.800781 0.710938 6.9375 0.5625 7.109375 0.5625 C 7.28125 0.5625 7.417969 0.710938 7.417969 0.890625 C 7.417969 1.070312 7.28125 1.21875 7.109375 1.21875 C 6.9375 1.21875 6.800781 1.070312 6.800781 0.890625 Z M 6.800781 0.890625 "/>
<path fill-rule="nonzero" fill="rgb(100%, 100%, 100%)" fill-opacity="1" d="M 5.976562 0.890625 C 5.976562 0.710938 6.117188 0.5625 6.285156 0.5625 C 6.457031 0.5625 6.59375 0.710938 6.59375 0.890625 C 6.59375 1.070312 6.457031 1.21875 6.285156 1.21875 C 6.117188 1.21875 5.976562 1.070312 5.976562 0.890625 Z M 5.976562 0.890625 "/>
<path fill-rule="nonzero" fill="rgb(100%, 100%, 100%)" fill-opacity="1" d="M 5.152344 0.890625 C 5.152344 0.710938 5.292969 0.5625 5.460938 0.5625 C 5.632812 0.5625 5.769531 0.710938 5.769531 0.890625 C 5.769531 1.070312 5.632812 1.21875 5.460938 1.21875 C 5.292969 1.21875 5.152344 1.070312 5.152344 0.890625 Z M 5.152344 0.890625 "/>
<path fill-rule="nonzero" fill="rgb(100%, 100%, 100%)" fill-opacity="1" d="M 4.414062 0.890625 C 4.414062 0.710938 4.550781 0.5625 4.722656 0.5625 C 4.890625 0.5625 5.03125 0.710938 5.03125 0.890625 C 5.03125 1.070312 4.890625 1.21875 4.722656 1.21875 C 4.550781 1.21875 4.414062 1.070312 4.414062 0.890625 Z M 4.414062 0.890625 "/>
<path fill-rule="nonzero" fill="rgb(100%, 100%, 100%)" fill-opacity="1" d="M 4.414062 1.632812 C 4.414062 1.449219 4.550781 1.304688 4.722656 1.304688 C 4.890625 1.304688 5.03125 1.449219 5.03125 1.632812 C 5.03125 1.8125 4.890625 1.957031 4.722656 1.957031 C 4.550781 1.957031 4.414062 1.8125 4.414062 1.632812 Z M 4.414062 1.632812 "/>
<path fill-rule="nonzero" fill="rgb(100%, 100%, 100%)" fill-opacity="1" d="M 4.414062 2.289062 C 4.414062 2.109375 4.550781 1.960938 4.722656 1.960938 C 4.890625 1.960938 5.03125 2.109375 5.03125 2.289062 C 5.03125 2.46875 4.890625 2.617188 4.722656 2.617188 C 4.550781 2.617188 4.414062 2.46875 4.414062 2.289062 Z M 4.414062 2.289062 "/>
<path fill-rule="nonzero" fill="rgb(100%, 100%, 100%)" fill-opacity="1" d="M 10.425781 1.546875 C 10.425781 1.367188 10.5625 1.222656 10.734375 1.222656 C 10.902344 1.222656 11.042969 1.367188 11.042969 1.546875 C 11.042969 1.730469 10.902344 1.875 10.734375 1.875 C 10.5625 1.875 10.425781 1.730469 10.425781 1.546875 Z M 10.425781 1.546875 "/>
<path fill-rule="nonzero" fill="rgb(100%, 100%, 100%)" fill-opacity="1" d="M 9.929688 1.546875 C 9.929688 1.367188 10.066406 1.222656 10.238281 1.222656 C 10.410156 1.222656 10.546875 1.367188 10.546875 1.546875 C 10.546875 1.730469 10.410156 1.875 10.238281 1.875 C 10.066406 1.875 9.929688 1.730469 9.929688 1.546875 Z M 9.929688 1.546875 "/>
<path fill-rule="nonzero" fill="rgb(100%, 100%, 100%)" fill-opacity="1" d="M 9.929688 2.371094 C 9.929688 2.191406 10.066406 2.046875 10.238281 2.046875 C 10.410156 2.046875 10.546875 2.191406 10.546875 2.371094 C 10.546875 2.554688 10.410156 2.699219 10.238281 2.699219 C 10.066406 2.699219 9.929688 2.554688 9.929688 2.371094 Z M 9.929688 2.371094 "/>
<path fill-rule="nonzero" fill="rgb(100%, 100%, 100%)" fill-opacity="1" d="M 9.929688 3.113281 C 9.929688 2.933594 10.066406 2.785156 10.238281 2.785156 C 10.410156 2.785156 10.546875 2.933594 10.546875 3.113281 C 10.546875 3.292969 10.410156 3.441406 10.238281 3.441406 C 10.066406 3.441406 9.929688 3.292969 9.929688 3.113281 Z M 9.929688 3.113281 "/>
<path fill-rule="nonzero" fill="rgb(100%, 100%, 100%)" fill-opacity="1" d="M 9.519531 2.867188 C 9.519531 2.6875 9.65625 2.539062 9.828125 2.539062 C 9.996094 2.539062 10.136719 2.6875 10.136719 2.867188 C 10.136719 3.046875 9.996094 3.191406 9.828125 3.191406 C 9.65625 3.191406 9.519531 3.046875 9.519531 2.867188 Z M 9.519531 2.867188 "/>
<path fill-rule="nonzero" fill="rgb(100%, 100%, 100%)" fill-opacity="1" d="M 9.1875 3.523438 C 9.1875 3.34375 9.328125 3.199219 9.496094 3.199219 C 9.667969 3.199219 9.804688 3.34375 9.804688 3.523438 C 9.804688 3.707031 9.667969 3.851562 9.496094 3.851562 C 9.328125 3.851562 9.1875 3.707031 9.1875 3.523438 Z M 9.1875 3.523438 "/>
<path fill-rule="nonzero" fill="rgb(100%, 100%, 100%)" fill-opacity="1" d="M 9.601562 3.773438 C 9.601562 3.589844 9.738281 3.445312 9.910156 3.445312 C 10.078125 3.445312 10.21875 3.589844 10.21875 3.773438 C 10.21875 3.953125 10.078125 4.097656 9.910156 4.097656 C 9.738281 4.097656 9.601562 3.953125 9.601562 3.773438 Z M 9.601562 3.773438 "/>
<path fill-rule="nonzero" fill="rgb(100%, 100%, 100%)" fill-opacity="1" d="M 9.242188 4.339844 C 9.242188 4.160156 9.378906 4.015625 9.550781 4.015625 C 9.722656 4.015625 9.859375 4.160156 9.859375 4.339844 C 9.859375 4.523438 9.722656 4.667969 9.550781 4.667969 C 9.378906 4.667969 9.242188 4.523438 9.242188 4.339844 Z M 9.242188 4.339844 "/>
<path fill-rule="nonzero" fill="rgb(100%, 100%, 100%)" fill-opacity="1" d="M 8.777344 4.183594 C 8.777344 4.003906 8.914062 3.855469 9.085938 3.855469 C 9.257812 3.855469 9.394531 4.003906 9.394531 4.183594 C 9.394531 4.363281 9.257812 4.511719 9.085938 4.511719 C 8.914062 4.511719 8.777344 4.363281 8.777344 4.183594 Z M 8.777344 4.183594 "/>
<path fill-rule="nonzero" fill="rgb(100%, 100%, 100%)" fill-opacity="1" d="M 8.832031 5 C 8.832031 4.820312 8.96875 4.671875 9.140625 4.671875 C 9.308594 4.671875 9.449219 4.820312 9.449219 5 C 9.449219 5.179688 9.308594 5.328125 9.140625 5.328125 C 8.96875 5.328125 8.832031 5.179688 8.832031 5 Z M 8.832031 5 "/>
<path fill-rule="nonzero" fill="rgb(100%, 100%, 100%)" fill-opacity="1" d="M 8.417969 4.671875 C 8.417969 4.488281 8.558594 4.34375 8.726562 4.34375 C 8.898438 4.34375 9.035156 4.488281 9.035156 4.671875 C 9.035156 4.851562 8.898438 4.996094 8.726562 4.996094 C 8.558594 4.996094 8.417969 4.851562 8.417969 4.671875 Z M 8.417969 4.671875 "/>
<path fill-rule="nonzero" fill="rgb(100%, 100%, 100%)" fill-opacity="1" d="M 8.417969 5.660156 C 8.417969 5.476562 8.558594 5.332031 8.726562 5.332031 C 8.898438 5.332031 9.035156 5.476562 9.035156 5.660156 C 9.035156 5.839844 8.898438 5.984375 8.726562 5.984375 C 8.558594 5.984375 8.417969 5.839844 8.417969 5.660156 Z M 8.417969 5.660156 "/>
<path fill-rule="nonzero" fill="rgb(100%, 100%, 100%)" fill-opacity="1" d="M 8.007812 5.328125 C 8.007812 5.148438 8.144531 5.003906 8.316406 5.003906 C 8.488281 5.003906 8.625 5.148438 8.625 5.328125 C 8.625 5.511719 8.488281 5.65625 8.316406 5.65625 C 8.144531 5.65625 8.007812 5.511719 8.007812 5.328125 Z M 8.007812 5.328125 "/>
<path fill-rule="nonzero" fill="rgb(100%, 100%, 100%)" fill-opacity="1" d="M 8.089844 6.234375 C 8.089844 6.054688 8.226562 5.90625 8.398438 5.90625 C 8.570312 5.90625 8.707031 6.054688 8.707031 6.234375 C 8.707031 6.414062 8.570312 6.5625 8.398438 6.5625 C 8.226562 6.5625 8.089844 6.414062 8.089844 6.234375 Z M 8.089844 6.234375 "/>
<path fill-rule="nonzero" fill="rgb(100%, 100%, 100%)" fill-opacity="1" d="M 7.679688 5.988281 C 7.679688 5.808594 7.816406 5.660156 7.988281 5.660156 C 8.15625 5.660156 8.296875 5.808594 8.296875 5.988281 C 8.296875 6.167969 8.15625 6.316406 7.988281 6.316406 C 7.816406 6.316406 7.679688 6.167969 7.679688 5.988281 Z M 7.679688 5.988281 "/>
<path fill-rule="nonzero" fill="rgb(100%, 100%, 100%)" fill-opacity="1" d="M 7.761719 6.8125 C 7.761719 6.632812 7.898438 6.484375 8.070312 6.484375 C 8.238281 6.484375 8.378906 6.632812 8.378906 6.8125 C 8.378906 6.992188 8.238281 7.136719 8.070312 7.136719 C 7.898438 7.136719 7.761719 6.992188 7.761719 6.8125 Z M 7.761719 6.8125 "/>
<path fill-rule="nonzero" fill="rgb(100%, 100%, 100%)" fill-opacity="1" d="M 7.347656 6.566406 C 7.347656 6.382812 7.488281 6.238281 7.65625 6.238281 C 7.828125 6.238281 7.964844 6.382812 7.964844 6.566406 C 7.964844 6.746094 7.828125 6.890625 7.65625 6.890625 C 7.488281 6.890625 7.347656 6.746094 7.347656 6.566406 Z M 7.347656 6.566406 "/>
<path fill-rule="nonzero" fill="rgb(100%, 100%, 100%)" fill-opacity="1" d="M 7.347656 7.46875 C 7.347656 7.289062 7.488281 7.144531 7.65625 7.144531 C 7.828125 7.144531 7.964844 7.289062 7.964844 7.46875 C 7.964844 7.652344 7.828125 7.796875 7.65625 7.796875 C 7.488281 7.796875 7.347656 7.652344 7.347656 7.46875 Z M 7.347656 7.46875 "/>
<path fill-rule="nonzero" fill="rgb(100%, 100%, 100%)" fill-opacity="1" d="M 6.9375 7.222656 C 6.9375 7.042969 7.074219 6.894531 7.246094 6.894531 C 7.414062 6.894531 7.554688 7.042969 7.554688 7.222656 C 7.554688 7.402344 7.414062 7.550781 7.246094 7.550781 C 7.074219 7.550781 6.9375 7.402344 6.9375 7.222656 Z M 6.9375 7.222656 "/>
<path fill-rule="nonzero" fill="rgb(100%, 100%, 100%)" fill-opacity="1" d="M 6.9375 8.046875 C 6.9375 7.867188 7.074219 7.71875 7.246094 7.71875 C 7.414062 7.71875 7.554688 7.867188 7.554688 8.046875 C 7.554688 8.226562 7.414062 8.375 7.246094 8.375 C 7.074219 8.375 6.9375 8.226562 6.9375 8.046875 Z M 6.9375 8.046875 "/>
<path fill-rule="nonzero" fill="rgb(100%, 100%, 100%)" fill-opacity="1" d="M 6.523438 7.882812 C 6.523438 7.703125 6.664062 7.554688 6.832031 7.554688 C 7.003906 7.554688 7.140625 7.703125 7.140625 7.882812 C 7.140625 8.0625 7.003906 8.210938 6.832031 8.210938 C 6.664062 8.210938 6.523438 8.0625 6.523438 7.882812 Z M 6.523438 7.882812 "/>
<path fill-rule="nonzero" fill="rgb(100%, 100%, 100%)" fill-opacity="1" d="M 6.605469 8.707031 C 6.605469 8.523438 6.746094 8.378906 6.917969 8.378906 C 7.085938 8.378906 7.226562 8.523438 7.226562 8.707031 C 7.226562 8.886719 7.085938 9.03125 6.917969 9.03125 C 6.746094 9.03125 6.605469 8.886719 6.605469 8.707031 Z M 6.605469 8.707031 "/>
<path fill-rule="nonzero" fill="rgb(100%, 100%, 100%)" fill-opacity="1" d="M 6.113281 8.539062 C 6.113281 8.359375 6.25 8.214844 6.421875 8.214844 C 6.59375 8.214844 6.730469 8.359375 6.730469 8.539062 C 6.730469 8.722656 6.59375 8.867188 6.421875 8.867188 C 6.25 8.867188 6.113281 8.722656 6.113281 8.539062 Z M 6.113281 8.539062 "/>
<path fill-rule="nonzero" fill="rgb(100%, 100%, 100%)" fill-opacity="1" d="M 6.113281 9.363281 C 6.113281 9.183594 6.25 9.039062 6.421875 9.039062 C 6.59375 9.039062 6.730469 9.183594 6.730469 9.363281 C 6.730469 9.546875 6.59375 9.691406 6.421875 9.691406 C 6.25 9.691406 6.113281 9.546875 6.113281 9.363281 Z M 6.113281 9.363281 "/>
<path fill-rule="nonzero" fill="rgb(100%, 100%, 100%)" fill-opacity="1" d="M 5.703125 9.117188 C 5.703125 8.9375 5.839844 8.789062 6.011719 8.789062 C 6.179688 8.789062 6.320312 8.9375 6.320312 9.117188 C 6.320312 9.296875 6.179688 9.445312 6.011719 9.445312 C 5.839844 9.445312 5.703125 9.296875 5.703125 9.117188 Z M 5.703125 9.117188 "/>
<path fill-rule="nonzero" fill="rgb(100%, 100%, 100%)" fill-opacity="1" d="M 5.785156 10.023438 C 5.785156 9.84375 5.921875 9.695312 6.09375 9.695312 C 6.261719 9.695312 6.402344 9.84375 6.402344 10.023438 C 6.402344 10.203125 6.261719 10.351562 6.09375 10.351562 C 5.921875 10.351562 5.785156 10.203125 5.785156 10.023438 Z M 5.785156 10.023438 "/>
<path fill-rule="nonzero" fill="rgb(100%, 100%, 100%)" fill-opacity="1" d="M 5.371094 9.777344 C 5.371094 9.59375 5.511719 9.449219 5.679688 9.449219 C 5.851562 9.449219 5.988281 9.59375 5.988281 9.777344 C 5.988281 9.957031 5.851562 10.101562 5.679688 10.101562 C 5.511719 10.101562 5.371094 9.957031 5.371094 9.777344 Z M 5.371094 9.777344 "/>
<path fill-rule="nonzero" fill="rgb(100%, 100%, 100%)" fill-opacity="1" d="M 5.371094 10.601562 C 5.371094 10.417969 5.511719 10.273438 5.679688 10.273438 C 5.851562 10.273438 5.988281 10.417969 5.988281 10.601562 C 5.988281 10.78125 5.851562 10.925781 5.679688 10.925781 C 5.511719 10.925781 5.371094 10.78125 5.371094 10.601562 Z M 5.371094 10.601562 "/>
<path fill-rule="nonzero" fill="rgb(100%, 100%, 100%)" fill-opacity="1" d="M 4.960938 10.433594 C 4.960938 10.253906 5.097656 10.109375 5.269531 10.109375 C 5.441406 10.109375 5.578125 10.253906 5.578125 10.433594 C 5.578125 10.617188 5.441406 10.761719 5.269531 10.761719 C 5.097656 10.761719 4.960938 10.617188 4.960938 10.433594 Z M 4.960938 10.433594 "/>
<path fill-rule="nonzero" fill="rgb(100%, 100%, 100%)" fill-opacity="1" d="M 4.960938 11.257812 C 4.960938 11.078125 5.097656 10.929688 5.269531 10.929688 C 5.441406 10.929688 5.578125 11.078125 5.578125 11.257812 C 5.578125 11.4375 5.441406 11.585938 5.269531 11.585938 C 5.097656 11.585938 4.960938 11.4375 4.960938 11.257812 Z M 4.960938 11.257812 "/>
<path fill-rule="nonzero" fill="rgb(100%, 100%, 100%)" fill-opacity="1" d="M 4.632812 11.011719 C 4.632812 10.832031 4.769531 10.683594 4.941406 10.683594 C 5.109375 10.683594 5.25 10.832031 5.25 11.011719 C 5.25 11.191406 5.109375 11.339844 4.941406 11.339844 C 4.769531 11.339844 4.632812 11.191406 4.632812 11.011719 Z M 4.632812 11.011719 "/>
<path fill-rule="nonzero" fill="rgb(100%, 100%, 100%)" fill-opacity="1" d="M 4.632812 11.917969 C 4.632812 11.738281 4.769531 11.589844 4.941406 11.589844 C 5.109375 11.589844 5.25 11.738281 5.25 11.917969 C 5.25 12.097656 5.109375 12.246094 4.941406 12.246094 C 4.769531 12.246094 4.632812 12.097656 4.632812 11.917969 Z M 4.632812 11.917969 "/>
<path fill-rule="nonzero" fill="rgb(100%, 100%, 100%)" fill-opacity="1" d="M 4.21875 11.585938 C 4.21875 11.40625 4.359375 11.261719 4.527344 11.261719 C 4.699219 11.261719 4.835938 11.40625 4.835938 11.585938 C 4.835938 11.769531 4.699219 11.914062 4.527344 11.914062 C 4.359375 11.914062 4.21875 11.769531 4.21875 11.585938 Z M 4.21875 11.585938 "/>
<path fill-rule="nonzero" fill="rgb(100%, 100%, 100%)" fill-opacity="1" d="M 4.21875 12.492188 C 4.21875 12.3125 4.359375 12.167969 4.527344 12.167969 C 4.699219 12.167969 4.835938 12.3125 4.835938 12.492188 C 4.835938 12.675781 4.699219 12.820312 4.527344 12.820312 C 4.359375 12.820312 4.21875 12.675781 4.21875 12.492188 Z M 4.21875 12.492188 "/>
<path fill-rule="nonzero" fill="rgb(100%, 100%, 100%)" fill-opacity="1" d="M 3.808594 12.246094 C 3.808594 12.066406 3.945312 11.917969 4.117188 11.917969 C 4.285156 11.917969 4.425781 12.066406 4.425781 12.246094 C 4.425781 12.425781 4.285156 12.574219 4.117188 12.574219 C 3.945312 12.574219 3.808594 12.425781 3.808594 12.246094 Z M 3.808594 12.246094 "/>
<path fill-rule="nonzero" fill="rgb(100%, 100%, 100%)" fill-opacity="1" d="M 3.890625 13.152344 C 3.890625 12.972656 4.027344 12.824219 4.199219 12.824219 C 4.367188 12.824219 4.507812 12.972656 4.507812 13.152344 C 4.507812 13.332031 4.367188 13.480469 4.199219 13.480469 C 4.027344 13.480469 3.890625 13.332031 3.890625 13.152344 Z M 3.890625 13.152344 "/>
<path fill-rule="nonzero" fill="rgb(100%, 100%, 100%)" fill-opacity="1" d="M 3.476562 12.988281 C 3.476562 12.808594 3.617188 12.660156 3.785156 12.660156 C 3.957031 12.660156 4.09375 12.808594 4.09375 12.988281 C 4.09375 13.167969 3.957031 13.316406 3.785156 13.316406 C 3.617188 13.316406 3.476562 13.167969 3.476562 12.988281 Z M 3.476562 12.988281 "/>
</svg>
