<?xml version="1.0" encoding="UTF-8"?>
<svg xmlns="http://www.w3.org/2000/svg" xmlns:xlink="http://www.w3.org/1999/xlink" width="21.83374" height="19" viewBox="0 0 21.83374 19">
<path fill-rule="nonzero" fill="rgb(95.294118%, 57.254905%, 0%)" fill-opacity="1" d="M 21.835938 0 L 10.914062 19 L 0 0 Z M 21.835938 0 "/>
<path fill-rule="nonzero" fill="rgb(0%, 0%, 0%)" fill-opacity="1" d="M 20.535156 0.792969 L 10.984375 17.328125 L 1.441406 0.792969 Z M 20.535156 0.792969 "/>
<path fill-rule="nonzero" fill="rgb(0%, 0%, 0%)" fill-opacity="1" d="M 10.984375 17.371094 L 10.964844 17.335938 L 1.398438 0.765625 L 20.574219 0.765625 L 20.554688 0.800781 Z M 1.480469 0.8125 L 10.984375 17.28125 L 20.496094 0.8125 Z M 1.480469 0.8125 "/>
<path fill-rule="nonzero" fill="rgb(95.294118%, 57.254905%, 0%)" fill-opacity="1" d="M 7.53125 9.585938 L 8.886719 9.46875 C 8.992188 10.128906 9.222656 10.628906 9.589844 10.960938 C 9.957031 11.292969 10.394531 11.460938 10.910156 11.460938 C 11.535156 11.460938 12.058594 11.222656 12.488281 10.757812 C 12.917969 10.285156 13.136719 9.664062 13.136719 8.890625 C 13.136719 8.152344 12.929688 7.570312 12.511719 7.144531 C 12.101562 6.71875 11.558594 6.507812 10.890625 6.507812 C 10.476562 6.507812 10.097656 6.601562 9.761719 6.789062 C 9.429688 6.980469 9.164062 7.222656 8.976562 7.527344 L 7.761719 7.367188 L 8.78125 1.964844 L 14.011719 1.964844 L 14.011719 3.195312 L 9.8125 3.195312 L 9.246094 6.027344 C 9.875 5.585938 10.539062 5.363281 11.238281 5.363281 C 12.152344 5.363281 12.929688 5.683594 13.558594 6.320312 C 14.191406 6.957031 14.507812 7.773438 14.507812 8.773438 C 14.507812 9.726562 14.230469 10.550781 13.675781 11.242188 C 13 12.09375 12.078125 12.519531 10.910156 12.519531 C 9.957031 12.519531 9.171875 12.25 8.570312 11.714844 C 7.960938 11.183594 7.621094 10.46875 7.53125 9.585938 Z M 7.53125 9.585938 "/>
</svg>
