<?xml version="1.0" encoding="UTF-8"?>
<svg xmlns="http://www.w3.org/2000/svg" xmlns:xlink="http://www.w3.org/1999/xlink" width="17.237164" height="15" viewBox="0 0 17.237164 15">
<path fill-rule="nonzero" fill="rgb(95.294118%, 57.254905%, 0%)" fill-opacity="1" d="M 17.238281 0 L 8.617188 15 L 0 0 Z M 17.238281 0 "/>
<path fill-rule="nonzero" fill="rgb(0%, 0%, 0%)" fill-opacity="1" d="M 8.671875 13.679688 L 1.136719 0.625 L 16.210938 0.625 Z M 8.671875 13.679688 "/>
<path fill-rule="nonzero" fill="rgb(0%, 0%, 0%)" fill-opacity="1" d="M 8.671875 13.714844 L 8.65625 13.6875 L 1.105469 0.605469 L 16.242188 0.605469 L 16.226562 0.632812 Z M 1.167969 0.640625 L 8.671875 13.644531 L 16.179688 0.640625 Z M 1.167969 0.640625 "/>
<path fill-rule="nonzero" fill="rgb(95.294118%, 57.254905%, 0%)" fill-opacity="1" d="M 9.214844 9.742188 L 9.214844 7.753906 L 5.613281 7.753906 L 5.613281 6.820312 L 9.402344 1.4375 L 10.234375 1.4375 L 10.234375 6.820312 L 11.355469 6.820312 L 11.355469 7.753906 L 10.234375 7.753906 L 10.234375 9.742188 Z M 9.214844 6.820312 L 9.214844 3.074219 L 6.613281 6.820312 Z M 9.214844 6.820312 "/>
</svg>
