<?xml version="1.0" encoding="UTF-8"?>
<svg xmlns="http://www.w3.org/2000/svg" xmlns:xlink="http://www.w3.org/1999/xlink" width="21.83374" height="19" viewBox="0 0 21.83374 19">
<path fill-rule="nonzero" fill="rgb(95.294118%, 57.254905%, 0%)" fill-opacity="1" d="M 21.835938 0 L 10.914062 19 L 0 0 Z M 21.835938 0 "/>
<path fill-rule="nonzero" fill="rgb(0%, 0%, 0%)" fill-opacity="1" d="M 20.535156 0.792969 L 10.984375 17.328125 L 1.441406 0.792969 Z M 20.535156 0.792969 "/>
<path fill-rule="nonzero" fill="rgb(0%, 0%, 0%)" fill-opacity="1" d="M 10.984375 17.371094 L 10.964844 17.335938 L 1.398438 0.765625 L 20.574219 0.765625 L 20.554688 0.800781 Z M 1.480469 0.8125 L 10.984375 17.28125 L 20.496094 0.8125 Z M 1.480469 0.8125 "/>
<path fill-rule="nonzero" fill="rgb(95.294118%, 57.254905%, 0%)" fill-opacity="1" d="M 8.464844 3.1875 L 8.441406 3.1875 L 7.183594 3.863281 L 6.996094 3.121094 L 8.578125 2.273438 L 9.410156 2.273438 L 9.410156 9.5 L 8.464844 9.5 Z M 8.464844 3.1875 "/>
<path fill-rule="nonzero" fill="rgb(95.294118%, 57.254905%, 0%)" fill-opacity="1" d="M 14.835938 8.652344 L 14.835938 9.5 L 10.082031 9.5 C 10.074219 9.285156 10.109375 9.078125 10.183594 8.882812 C 10.304688 8.558594 10.5 8.242188 10.765625 7.929688 C 11.035156 7.613281 11.417969 7.25 11.921875 6.839844 C 12.703125 6.195312 13.230469 5.6875 13.507812 5.3125 C 13.78125 4.9375 13.921875 4.585938 13.921875 4.25 C 13.921875 3.898438 13.792969 3.605469 13.542969 3.363281 C 13.292969 3.121094 12.964844 3.003906 12.5625 3.003906 C 12.136719 3.003906 11.796875 3.128906 11.539062 3.390625 C 11.285156 3.640625 11.15625 3.992188 11.15625 4.445312 L 10.246094 4.351562 C 10.308594 3.675781 10.542969 3.160156 10.949219 2.804688 C 11.355469 2.445312 11.898438 2.273438 12.582031 2.273438 C 13.273438 2.273438 13.820312 2.464844 14.21875 2.847656 C 14.628906 3.230469 14.828125 3.703125 14.828125 4.269531 C 14.828125 4.554688 14.769531 4.839844 14.648438 5.121094 C 14.53125 5.398438 14.335938 5.691406 14.0625 5.996094 C 13.789062 6.304688 13.335938 6.726562 12.703125 7.265625 C 12.171875 7.710938 11.832031 8.011719 11.679688 8.167969 C 11.527344 8.328125 11.40625 8.488281 11.304688 8.652344 Z M 14.835938 8.652344 "/>
</svg>
