<?xml version="1.0" encoding="UTF-8"?>
<svg xmlns="http://www.w3.org/2000/svg" xmlns:xlink="http://www.w3.org/1999/xlink" width="21.83374" height="19" viewBox="0 0 21.83374 19">
<path fill-rule="nonzero" fill="rgb(95.294118%, 57.254905%, 0%)" fill-opacity="1" d="M 21.835938 0 L 10.914062 19 L 0 0 Z M 21.835938 0 "/>
<path fill-rule="nonzero" fill="rgb(0%, 0%, 0%)" fill-opacity="1" d="M 10.984375 17.328125 L 1.441406 0.792969 L 20.535156 0.792969 Z M 10.984375 17.328125 "/>
<path fill-rule="nonzero" fill="rgb(0%, 0%, 0%)" fill-opacity="1" d="M 10.984375 17.371094 L 10.964844 17.335938 L 1.398438 0.765625 L 20.574219 0.765625 L 20.554688 0.800781 Z M 1.480469 0.8125 L 10.984375 17.28125 L 20.496094 0.8125 Z M 1.480469 0.8125 "/>
<path fill-rule="nonzero" fill="rgb(95.294118%, 57.254905%, 0%)" fill-opacity="1" d="M 7.539062 9.5625 L 8.832031 9.390625 C 8.980469 10.125 9.234375 10.652344 9.589844 10.972656 C 9.945312 11.296875 10.375 11.460938 10.890625 11.460938 C 11.5 11.460938 12.007812 11.246094 12.429688 10.824219 C 12.851562 10.40625 13.058594 9.886719 13.058594 9.261719 C 13.058594 8.667969 12.863281 8.179688 12.472656 7.792969 C 12.085938 7.410156 11.597656 7.21875 11 7.21875 C 10.75 7.21875 10.449219 7.261719 10.089844 7.363281 L 10.230469 6.222656 C 10.316406 6.234375 10.386719 6.238281 10.441406 6.238281 C 10.988281 6.238281 11.484375 6.097656 11.925781 5.808594 C 12.363281 5.523438 12.582031 5.082031 12.582031 4.484375 C 12.582031 4.007812 12.425781 3.617188 12.101562 3.304688 C 11.78125 2.992188 11.371094 2.839844 10.859375 2.839844 C 10.359375 2.839844 9.941406 3 9.605469 3.316406 C 9.273438 3.625 9.054688 4.101562 8.960938 4.734375 L 7.667969 4.503906 C 7.828125 3.636719 8.183594 2.96875 8.742188 2.492188 C 9.300781 2.015625 10 1.777344 10.832031 1.777344 C 11.40625 1.777344 11.933594 1.898438 12.417969 2.148438 C 12.898438 2.394531 13.269531 2.730469 13.527344 3.15625 C 13.785156 3.582031 13.914062 4.03125 13.914062 4.511719 C 13.914062 4.96875 13.789062 5.378906 13.546875 5.753906 C 13.300781 6.125 12.9375 6.421875 12.464844 6.644531 C 13.082031 6.789062 13.566406 7.085938 13.914062 7.535156 C 14.253906 7.992188 14.429688 8.554688 14.429688 9.234375 C 14.429688 10.152344 14.089844 10.929688 13.421875 11.566406 C 12.753906 12.207031 11.90625 12.527344 10.878906 12.527344 C 9.960938 12.527344 9.191406 12.25 8.585938 11.703125 C 7.972656 11.152344 7.625 10.441406 7.539062 9.5625 Z M 7.539062 9.5625 "/>
</svg>
