<?xml version="1.0" encoding="UTF-8"?>
<svg xmlns="http://www.w3.org/2000/svg" xmlns:xlink="http://www.w3.org/1999/xlink" width="15" height="15" viewBox="0 0 15 15">
<path fill-rule="nonzero" fill="rgb(0%, 0%, 0%)" fill-opacity="1" stroke-width="10" stroke-linecap="butt" stroke-linejoin="miter" stroke="rgb(100%, 100%, 100%)" stroke-opacity="1" stroke-miterlimit="4" d="M 5.013021 5.013021 L 5.013021 148.986979 L 148.986979 148.986979 L 148.986979 5.013021 Z M 5.013021 5.013021 " transform="matrix(0.0974026, 0, 0, 0.0974026, 0, 0)"/>
<path fill-rule="nonzero" fill="rgb(100%, 100%, 100%)" fill-opacity="1" d="M 4.515625 10.023438 L 5.648438 9.917969 C 5.746094 10.449219 5.929688 10.839844 6.199219 11.078125 C 6.472656 11.320312 6.820312 11.441406 7.246094 11.441406 C 7.605469 11.441406 7.925781 11.355469 8.199219 11.191406 C 8.472656 11.023438 8.695312 10.800781 8.871094 10.523438 C 9.046875 10.246094 9.191406 9.871094 9.3125 9.398438 C 9.429688 8.925781 9.488281 8.445312 9.488281 7.957031 C 9.488281 7.902344 9.484375 7.824219 9.480469 7.71875 C 9.246094 8.097656 8.921875 8.402344 8.511719 8.636719 C 8.105469 8.867188 7.660156 8.984375 7.183594 8.984375 C 6.390625 8.984375 5.714844 8.695312 5.164062 8.121094 C 4.613281 7.542969 4.339844 6.78125 4.339844 5.835938 C 4.339844 4.863281 4.625 4.078125 5.199219 3.480469 C 5.777344 2.886719 6.496094 2.589844 7.363281 2.589844 C 7.988281 2.589844 8.558594 2.757812 9.078125 3.09375 C 9.597656 3.429688 9.988281 3.910156 10.257812 4.535156 C 10.527344 5.15625 10.660156 6.058594 10.660156 7.242188 C 10.660156 8.46875 10.527344 9.449219 10.261719 10.175781 C 9.996094 10.90625 9.597656 11.460938 9.070312 11.839844 C 8.542969 12.21875 7.925781 12.410156 7.21875 12.410156 C 6.464844 12.410156 5.851562 12.203125 5.375 11.785156 C 4.898438 11.367188 4.609375 10.777344 4.515625 10.023438 Z M 9.351562 5.777344 C 9.351562 5.101562 9.167969 4.5625 8.808594 4.164062 C 8.449219 3.765625 8.015625 3.566406 7.507812 3.566406 C 6.980469 3.566406 6.523438 3.78125 6.136719 4.210938 C 5.746094 4.636719 5.550781 5.195312 5.550781 5.875 C 5.550781 6.488281 5.734375 6.984375 6.105469 7.367188 C 6.476562 7.75 6.929688 7.941406 7.472656 7.941406 C 8.019531 7.941406 8.46875 7.75 8.820312 7.367188 C 9.175781 6.984375 9.351562 6.457031 9.351562 5.777344 Z M 9.351562 5.777344 "/>
</svg>
