<?xml version="1.0" encoding="UTF-8"?>
<svg xmlns="http://www.w3.org/2000/svg" xmlns:xlink="http://www.w3.org/1999/xlink" width="21.83374" height="19" viewBox="0 0 21.83374 19">
<path fill-rule="nonzero" fill="rgb(95.294118%, 57.254905%, 0%)" fill-opacity="1" d="M 21.835938 0 L 10.914062 19 L 0 0 Z M 21.835938 0 "/>
<path fill-rule="nonzero" fill="rgb(0%, 0%, 0%)" fill-opacity="1" d="M 20.535156 0.792969 L 10.984375 17.328125 L 1.441406 0.792969 Z M 20.535156 0.792969 "/>
<path fill-rule="nonzero" fill="rgb(0%, 0%, 0%)" fill-opacity="1" d="M 10.984375 17.371094 L 10.964844 17.335938 L 1.398438 0.765625 L 20.574219 0.765625 L 20.554688 0.800781 Z M 1.480469 0.8125 L 10.984375 17.28125 L 20.496094 0.8125 Z M 1.480469 0.8125 "/>
<path fill-rule="nonzero" fill="rgb(95.294118%, 57.254905%, 0%)" fill-opacity="1" d="M 8.253906 4.03125 L 8.226562 4.03125 L 6.851562 4.773438 L 6.644531 3.957031 L 8.375 3.03125 L 9.289062 3.03125 L 9.289062 10.945312 L 8.253906 10.945312 Z M 8.253906 4.03125 "/>
<path fill-rule="nonzero" fill="rgb(95.294118%, 57.254905%, 0%)" fill-opacity="1" d="M 15.257812 6.839844 C 15.257812 9.449219 14.292969 10.890625 12.636719 10.890625 C 11.164062 10.890625 10.148438 9.484375 10.128906 6.945312 C 10.128906 4.359375 11.230469 2.953125 12.765625 2.953125 C 14.34375 2.953125 15.257812 4.394531 15.257812 6.839844 Z M 11.164062 6.957031 C 11.164062 8.949219 11.765625 10.089844 12.691406 10.089844 C 13.726562 10.089844 14.226562 8.847656 14.226562 6.886719 C 14.226562 4.996094 13.761719 3.761719 12.691406 3.761719 C 11.8125 3.761719 11.164062 4.867188 11.164062 6.957031 Z M 11.164062 6.957031 "/>
</svg>
