<?xml version="1.0" encoding="UTF-8"?>
<svg xmlns="http://www.w3.org/2000/svg" xmlns:xlink="http://www.w3.org/1999/xlink" width="16" height="16" viewBox="0 0 16 16">
<path fill-rule="nonzero" fill="rgb(100%, 100%, 100%)" fill-opacity="1" stroke-width="10" stroke-linecap="butt" stroke-linejoin="miter" stroke="rgb(100%, 0%, 0%)" stroke-opacity="1" stroke-miterlimit="4" d="M 5.000488 5.000488 L 5.000488 148.999504 L 148.999504 148.999504 L 148.999504 5.000488 Z M 5.000488 5.000488 " transform="matrix(0.103896, 0, 0, 0.103896, 0, 0)"/>
<path fill-rule="nonzero" fill="rgb(100%, 0%, 0%)" fill-opacity="1" d="M 3.285156 4.710938 L 3.285156 2.480469 L 7.753906 2.480469 L 7.753906 3.960938 L 4.757812 12.941406 L 3.285156 12.941406 L 6.269531 3.960938 L 4.757812 3.960938 L 4.757812 4.710938 L 3.285156 4.710938 "/>
<path fill-rule="nonzero" fill="rgb(100%, 0%, 0%)" fill-opacity="1" d="M 10.875 2.480469 L 12.953125 2.480469 L 12.953125 3.230469 L 11.621094 3.230469 L 11.621094 4.417969 C 11.742188 4.375 11.867188 4.351562 12 4.351562 C 12.308594 4.351562 12.570312 4.457031 12.792969 4.683594 C 13.007812 4.898438 13.121094 5.167969 13.121094 5.476562 L 13.121094 6.597656 C 13.121094 6.902344 13.007812 7.167969 12.792969 7.386719 C 12.570312 7.609375 12.308594 7.714844 12 7.714844 C 11.6875 7.714844 11.425781 7.609375 11.203125 7.386719 C 10.988281 7.167969 10.875 6.902344 10.875 6.597656 L 10.875 6.222656 L 11.621094 6.222656 L 11.621094 6.597656 C 11.621094 6.699219 11.660156 6.789062 11.734375 6.863281 C 11.804688 6.933594 11.890625 6.964844 12 6.964844 C 12.105469 6.964844 12.191406 6.933594 12.261719 6.863281 C 12.332031 6.789062 12.371094 6.699219 12.371094 6.597656 L 12.371094 5.476562 C 12.371094 5.371094 12.332031 5.277344 12.261719 5.207031 C 12.191406 5.132812 12.105469 5.097656 12 5.097656 C 11.890625 5.097656 11.804688 5.132812 11.734375 5.207031 C 11.660156 5.277344 11.621094 5.371094 11.621094 5.476562 L 10.875 5.476562 L 10.875 2.480469 "/>
<path fill-rule="nonzero" fill="rgb(100%, 0%, 0%)" fill-opacity="1" d="M 8.796875 2.480469 L 9.835938 2.480469 L 9.835938 3.519531 L 8.796875 3.519531 L 8.796875 2.480469 "/>
</svg>
