<?xml version="1.0" encoding="UTF-8"?>
<svg xmlns="http://www.w3.org/2000/svg" xmlns:xlink="http://www.w3.org/1999/xlink" width="16" height="16" viewBox="0 0 16 16">
<path fill-rule="nonzero" fill="rgb(100%, 100%, 100%)" fill-opacity="1" stroke-width="10" stroke-linecap="butt" stroke-linejoin="miter" stroke="rgb(100%, 0%, 0%)" stroke-opacity="1" stroke-miterlimit="4" d="M 5.000488 5.000488 L 5.000488 148.999504 L 148.999504 148.999504 L 148.999504 5.000488 Z M 5.000488 5.000488 " transform="matrix(0.103896, 0, 0, 0.103896, 0, 0)"/>
<path fill-rule="nonzero" fill="rgb(100%, 0%, 0%)" fill-opacity="1" d="M 5.242188 2.480469 L 6.738281 2.480469 L 6.738281 12.953125 L 5.242188 12.953125 L 5.242188 3.976562 L 3.75 5.476562 L 3.75 3.976562 L 5.242188 2.480469 "/>
<path fill-rule="nonzero" fill="rgb(100%, 0%, 0%)" fill-opacity="1" d="M 10.0625 2.480469 L 12.140625 2.480469 L 12.140625 3.230469 L 10.808594 3.230469 L 10.808594 4.417969 C 10.925781 4.375 11.050781 4.351562 11.183594 4.351562 C 11.492188 4.351562 11.757812 4.457031 11.976562 4.683594 C 12.195312 4.898438 12.304688 5.167969 12.304688 5.476562 L 12.304688 6.597656 C 12.304688 6.902344 12.195312 7.167969 11.976562 7.386719 C 11.757812 7.609375 11.492188 7.714844 11.183594 7.714844 C 10.875 7.714844 10.609375 7.609375 10.390625 7.386719 C 10.171875 7.167969 10.0625 6.902344 10.0625 6.597656 L 10.0625 6.222656 L 10.808594 6.222656 L 10.808594 6.597656 C 10.808594 6.699219 10.839844 6.789062 10.917969 6.863281 C 10.992188 6.933594 11.078125 6.964844 11.183594 6.964844 C 11.289062 6.964844 11.375 6.933594 11.445312 6.863281 C 11.519531 6.789062 11.554688 6.699219 11.554688 6.597656 L 11.554688 5.476562 C 11.554688 5.371094 11.519531 5.277344 11.445312 5.207031 C 11.375 5.132812 11.289062 5.097656 11.183594 5.097656 C 11.078125 5.097656 10.992188 5.132812 10.917969 5.207031 C 10.839844 5.277344 10.808594 5.371094 10.808594 5.476562 L 10.0625 5.476562 L 10.0625 2.480469 "/>
<path fill-rule="nonzero" fill="rgb(100%, 0%, 0%)" fill-opacity="1" d="M 7.878906 2.480469 L 8.921875 2.480469 L 8.921875 3.519531 L 7.878906 3.519531 L 7.878906 2.480469 "/>
</svg>
