<?xml version="1.0" encoding="UTF-8"?>
<svg xmlns="http://www.w3.org/2000/svg" xmlns:xlink="http://www.w3.org/1999/xlink" width="16" height="16" viewBox="0 0 16 16">
<path fill-rule="nonzero" fill="rgb(100%, 100%, 100%)" fill-opacity="1" stroke-width="10" stroke-linecap="butt" stroke-linejoin="miter" stroke="rgb(100%, 0%, 0%)" stroke-opacity="1" stroke-miterlimit="4" d="M 5.000488 5.000488 L 5.000488 148.999504 L 148.999504 148.999504 L 148.999504 5.000488 Z M 5.000488 5.000488 " transform="matrix(0.103896, 0, 0, 0.103896, 0, 0)"/>
<path fill-rule="nonzero" fill="rgb(100%, 0%, 0%)" fill-opacity="1" d="M 5.855469 2.480469 L 10.007812 2.480469 L 10.007812 3.976562 L 7.339844 3.976562 L 7.339844 6.359375 C 7.578125 6.269531 7.832031 6.226562 8.097656 6.222656 C 8.710938 6.222656 9.242188 6.441406 9.679688 6.882812 C 10.117188 7.320312 10.335938 7.851562 10.335938 8.472656 L 10.335938 10.710938 C 10.335938 11.328125 10.117188 11.859375 9.679688 12.296875 C 9.242188 12.734375 8.710938 12.953125 8.097656 12.953125 C 7.476562 12.953125 6.949219 12.734375 6.507812 12.296875 C 6.070312 11.859375 5.855469 11.328125 5.855469 10.710938 L 5.855469 9.957031 L 7.339844 9.957031 L 7.339844 10.710938 C 7.339844 10.921875 7.417969 11.101562 7.5625 11.246094 C 7.707031 11.386719 7.886719 11.457031 8.097656 11.457031 C 8.304688 11.457031 8.480469 11.386719 8.621094 11.246094 C 8.765625 11.101562 8.839844 10.921875 8.839844 10.710938 L 8.839844 8.472656 C 8.839844 8.257812 8.765625 8.082031 8.621094 7.9375 C 8.480469 7.792969 8.304688 7.714844 8.097656 7.714844 C 7.886719 7.714844 7.707031 7.792969 7.5625 7.9375 C 7.417969 8.082031 7.339844 8.257812 7.339844 8.472656 L 5.855469 8.472656 L 5.855469 2.480469 "/>
</svg>
