<?xml version="1.0" encoding="UTF-8"?>
<svg xmlns="http://www.w3.org/2000/svg" xmlns:xlink="http://www.w3.org/1999/xlink" width="16" height="16" viewBox="0 0 16 16">
<path fill-rule="nonzero" fill="rgb(100%, 100%, 100%)" fill-opacity="1" stroke-width="10" stroke-linecap="butt" stroke-linejoin="miter" stroke="rgb(100%, 0%, 0%)" stroke-opacity="1" stroke-miterlimit="4" d="M 5.000488 5.000488 L 5.000488 148.999504 L 148.999504 148.999504 L 148.999504 5.000488 Z M 5.000488 5.000488 " transform="matrix(0.103896, 0, 0, 0.103896, 0, 0)"/>
<path fill-rule="nonzero" fill="rgb(100%, 0%, 0%)" fill-opacity="1" d="M 4.714844 2.480469 L 6.214844 2.480469 L 6.214844 12.953125 L 4.714844 12.953125 L 4.714844 3.976562 L 3.230469 5.476562 L 3.230469 3.976562 L 4.714844 2.480469 "/>
<path fill-rule="nonzero" fill="rgb(100%, 0%, 0%)" fill-opacity="1" d="M 9.097656 3.140625 C 9.535156 2.699219 10.0625 2.480469 10.679688 2.480469 C 11.296875 2.480469 11.824219 2.699219 12.261719 3.140625 C 12.703125 3.582031 12.921875 4.109375 12.921875 4.730469 L 12.921875 6.222656 C 12.921875 6.789062 12.734375 7.289062 12.355469 7.714844 C 12.734375 8.144531 12.921875 8.644531 12.921875 9.210938 L 12.921875 10.710938 C 12.921875 11.328125 12.703125 11.859375 12.261719 12.296875 C 11.824219 12.734375 11.296875 12.953125 10.679688 12.953125 C 10.0625 12.953125 9.535156 12.734375 9.097656 12.296875 C 8.652344 11.859375 8.4375 11.328125 8.4375 10.710938 L 8.4375 9.957031 L 9.925781 9.957031 L 9.925781 10.710938 C 9.925781 10.921875 10 11.101562 10.144531 11.246094 C 10.292969 11.386719 10.472656 11.457031 10.679688 11.457031 C 10.886719 11.457031 11.0625 11.386719 11.203125 11.246094 C 11.351562 11.101562 11.425781 10.921875 11.425781 10.710938 L 11.425781 9.210938 C 11.425781 9.003906 11.351562 8.828125 11.203125 8.6875 C 11.0625 8.542969 10.886719 8.472656 10.679688 8.472656 L 10.679688 6.972656 C 10.886719 6.972656 11.0625 6.898438 11.203125 6.753906 C 11.351562 6.605469 11.425781 6.429688 11.425781 6.222656 L 11.425781 4.730469 C 11.425781 4.519531 11.351562 4.339844 11.203125 4.195312 C 11.0625 4.050781 10.886719 3.976562 10.679688 3.976562 C 10.472656 3.976562 10.292969 4.050781 10.144531 4.195312 C 10 4.339844 9.925781 4.519531 9.925781 4.730469 L 9.925781 5.476562 L 8.4375 5.476562 L 8.4375 4.730469 C 8.4375 4.109375 8.652344 3.582031 9.097656 3.140625 "/>
</svg>
