<?xml version="1.0" encoding="UTF-8"?>
<svg xmlns="http://www.w3.org/2000/svg" xmlns:xlink="http://www.w3.org/1999/xlink" width="16" height="16" viewBox="0 0 16 16">
<path fill-rule="nonzero" fill="rgb(100%, 100%, 100%)" fill-opacity="1" stroke-width="10" stroke-linecap="butt" stroke-linejoin="miter" stroke="rgb(100%, 0%, 0%)" stroke-opacity="1" stroke-miterlimit="4" d="M 5.000488 5.000488 L 5.000488 148.999504 L 148.999504 148.999504 L 148.999504 5.000488 Z M 5.000488 5.000488 " transform="matrix(0.103896, 0, 0, 0.103896, 0, 0)"/>
<path fill-rule="nonzero" fill="rgb(100%, 0%, 0%)" fill-opacity="1" d="M 4.648438 2.480469 L 6.144531 2.480469 L 6.144531 12.953125 L 4.648438 12.953125 L 4.648438 3.976562 L 3.160156 5.476562 L 3.160156 3.976562 L 4.648438 2.480469 "/>
<path fill-rule="nonzero" fill="rgb(100%, 0%, 0%)" fill-opacity="1" d="M 9.023438 3.140625 C 9.460938 2.699219 9.992188 2.480469 10.613281 2.480469 C 11.230469 2.480469 11.757812 2.699219 12.195312 3.140625 C 12.632812 3.582031 12.855469 4.109375 12.855469 4.730469 L 12.855469 10.710938 C 12.855469 11.328125 12.632812 11.859375 12.195312 12.296875 C 11.757812 12.734375 11.230469 12.953125 10.613281 12.953125 C 9.992188 12.953125 9.460938 12.734375 9.023438 12.296875 C 8.585938 11.859375 8.367188 11.328125 8.367188 10.710938 L 8.367188 4.730469 C 8.367188 4.109375 8.585938 3.582031 9.023438 3.140625 M 11.136719 4.195312 C 10.996094 4.050781 10.820312 3.976562 10.613281 3.976562 C 10.398438 3.976562 10.226562 4.050781 10.078125 4.195312 C 9.933594 4.339844 9.859375 4.519531 9.859375 4.730469 L 9.859375 10.710938 C 9.859375 10.921875 9.933594 11.101562 10.078125 11.246094 C 10.226562 11.386719 10.398438 11.457031 10.613281 11.457031 C 10.820312 11.457031 10.996094 11.386719 11.136719 11.246094 C 11.285156 11.101562 11.359375 10.921875 11.359375 10.710938 L 11.359375 4.730469 C 11.359375 4.519531 11.285156 4.339844 11.136719 4.195312 "/>
</svg>
