<?xml version="1.0" encoding="UTF-8"?>
<svg xmlns="http://www.w3.org/2000/svg" xmlns:xlink="http://www.w3.org/1999/xlink" width="15" height="15" viewBox="0 0 15 15">
<path fill-rule="nonzero" fill="rgb(100%, 100%, 100%)" fill-opacity="1" stroke-width="10" stroke-linecap="butt" stroke-linejoin="miter" stroke="rgb(100%, 0%, 0%)" stroke-opacity="1" stroke-miterlimit="4" d="M 5.013021 5.013021 L 5.013021 148.986979 L 148.986979 148.986979 L 148.986979 5.013021 Z M 5.013021 5.013021 " transform="matrix(0.0974026, 0, 0, 0.0974026, 0, 0)"/>
<path fill-rule="nonzero" fill="rgb(100%, 0%, 0%)" fill-opacity="1" d="M 4.421875 2.324219 L 5.828125 2.324219 L 5.828125 12.144531 L 4.421875 12.144531 L 4.421875 3.726562 L 3.027344 5.132812 L 3.027344 3.726562 L 4.421875 2.324219 "/>
<path fill-rule="nonzero" fill="rgb(100%, 0%, 0%)" fill-opacity="1" d="M 7.910156 2.324219 L 11.804688 2.324219 L 11.804688 3.726562 L 9.304688 3.726562 L 9.304688 5.960938 C 9.53125 5.878906 9.765625 5.835938 10.011719 5.832031 C 10.589844 5.832031 11.085938 6.039062 11.496094 6.453125 C 11.910156 6.863281 12.113281 7.359375 12.113281 7.941406 L 12.113281 10.042969 C 12.113281 10.621094 11.910156 11.117188 11.496094 11.527344 C 11.085938 11.9375 10.589844 12.144531 10.011719 12.144531 C 9.433594 12.144531 8.9375 11.9375 8.527344 11.527344 C 8.113281 11.117188 7.910156 10.621094 7.910156 10.042969 L 7.910156 9.335938 L 9.304688 9.335938 L 9.304688 10.042969 C 9.304688 10.238281 9.375 10.40625 9.511719 10.542969 C 9.648438 10.675781 9.816406 10.742188 10.011719 10.742188 C 10.207031 10.742188 10.371094 10.675781 10.503906 10.542969 C 10.640625 10.40625 10.710938 10.238281 10.710938 10.042969 L 10.710938 7.941406 C 10.710938 7.742188 10.640625 7.578125 10.503906 7.441406 C 10.371094 7.304688 10.207031 7.234375 10.011719 7.234375 C 9.816406 7.234375 9.648438 7.304688 9.511719 7.441406 C 9.375 7.578125 9.304688 7.742188 9.304688 7.941406 L 7.910156 7.941406 L 7.910156 2.324219 "/>
</svg>
