<?xml version="1.0" encoding="UTF-8"?>
<svg xmlns="http://www.w3.org/2000/svg" xmlns:xlink="http://www.w3.org/1999/xlink" width="16" height="16" viewBox="0 0 16 16">
<path fill-rule="nonzero" fill="rgb(100%, 100%, 100%)" fill-opacity="1" stroke-width="10" stroke-linecap="butt" stroke-linejoin="miter" stroke="rgb(100%, 0%, 0%)" stroke-opacity="1" stroke-miterlimit="4" d="M 5.000488 5.000488 L 5.000488 148.999504 L 148.999504 148.999504 L 148.999504 5.000488 Z M 5.000488 5.000488 " transform="matrix(0.103896, 0, 0, 0.103896, 0, 0)"/>
<path fill-rule="nonzero" fill="rgb(100%, 0%, 0%)" fill-opacity="1" d="M 4.714844 2.480469 L 6.214844 2.480469 L 6.214844 12.953125 L 4.714844 12.953125 L 4.714844 3.976562 L 3.230469 5.476562 L 3.230469 3.976562 L 4.714844 2.480469 "/>
<path fill-rule="nonzero" fill="rgb(100%, 0%, 0%)" fill-opacity="1" d="M 9.554688 2.480469 L 11.050781 2.480469 L 9.554688 9.957031 L 10.679688 9.957031 L 10.679688 7.714844 L 12.175781 7.714844 L 12.175781 9.957031 L 12.550781 9.957031 L 12.550781 11.457031 L 12.175781 11.457031 L 12.175781 12.953125 L 10.679688 12.953125 L 10.679688 11.457031 L 8.058594 11.457031 L 8.058594 9.957031 L 9.554688 2.480469 "/>
</svg>
