<?xml version="1.0" encoding="UTF-8"?>
<svg xmlns="http://www.w3.org/2000/svg" xmlns:xlink="http://www.w3.org/1999/xlink" width="14" height="14" viewBox="0 0 14 14">
<path fill-rule="nonzero" fill="rgb(0%, 0%, 0%)" fill-opacity="1" stroke-width="10" stroke-linecap="butt" stroke-linejoin="miter" stroke="rgb(100%, 100%, 100%)" stroke-opacity="1" stroke-miterlimit="4" d="M 7.991072 7.991072 L 7.991072 152.008931 L 152.008931 152.008931 L 152.008931 7.991072 Z M 7.991072 7.991072 " transform="matrix(0.0875, 0, 0, 0.0875, 0, 0)"/>
<path fill-rule="nonzero" fill="rgb(100%, 100%, 100%)" fill-opacity="1" d="M 3.703125 3.957031 L 3.675781 3.957031 L 2.195312 4.753906 L 1.96875 3.875 L 3.835938 2.875 L 4.820312 2.875 L 4.820312 11.410156 L 3.703125 11.410156 Z M 3.703125 3.957031 "/>
<path fill-rule="nonzero" fill="rgb(100%, 100%, 100%)" fill-opacity="1" d="M 11.535156 4.949219 L 10.511719 5.023438 C 10.417969 4.625 10.289062 4.332031 10.117188 4.148438 C 9.84375 3.851562 9.5 3.703125 9.089844 3.703125 C 8.761719 3.703125 8.472656 3.792969 8.222656 3.980469 C 7.898438 4.21875 7.644531 4.5625 7.453125 5.015625 C 7.273438 5.46875 7.171875 6.117188 7.167969 6.957031 C 7.414062 6.582031 7.71875 6.300781 8.074219 6.117188 C 8.433594 5.933594 8.808594 5.839844 9.203125 5.839844 C 9.890625 5.839844 10.476562 6.09375 10.957031 6.597656 C 11.441406 7.105469 11.683594 7.757812 11.683594 8.558594 C 11.683594 9.085938 11.570312 9.574219 11.339844 10.027344 C 11.113281 10.480469 10.804688 10.828125 10.40625 11.0625 C 10.011719 11.308594 9.558594 11.425781 9.054688 11.425781 C 8.195312 11.425781 7.5 11.109375 6.953125 10.480469 C 6.414062 9.847656 6.140625 8.804688 6.140625 7.359375 C 6.140625 5.738281 6.441406 4.558594 7.042969 3.820312 C 7.5625 3.179688 8.269531 2.859375 9.152344 2.859375 C 9.808594 2.859375 10.355469 3.042969 10.777344 3.414062 C 11.195312 3.78125 11.449219 4.292969 11.535156 4.949219 Z M 7.328125 8.5625 C 7.328125 8.917969 7.402344 9.261719 7.554688 9.582031 C 7.703125 9.90625 7.914062 10.15625 8.183594 10.328125 C 8.457031 10.496094 8.738281 10.582031 9.039062 10.582031 C 9.472656 10.582031 9.847656 10.402344 10.160156 10.054688 C 10.472656 9.703125 10.628906 9.222656 10.628906 8.621094 C 10.628906 8.039062 10.472656 7.585938 10.164062 7.253906 C 9.859375 6.917969 9.46875 6.75 8.996094 6.75 C 8.53125 6.75 8.136719 6.917969 7.8125 7.253906 C 7.488281 7.585938 7.328125 8.023438 7.328125 8.5625 Z M 7.328125 8.5625 "/>
</svg>
