<?xml version="1.0" encoding="UTF-8"?>
<svg xmlns="http://www.w3.org/2000/svg" xmlns:xlink="http://www.w3.org/1999/xlink" width="14.082405" height="14" viewBox="0 0 14.082405 14">
<path fill-rule="nonzero" fill="rgb(0%, 0%, 0%)" fill-opacity="1" stroke-width="1.382639" stroke-linecap="butt" stroke-linejoin="miter" stroke="rgb(0%, 0%, 0%)" stroke-opacity="1" stroke-miterlimit="4" d="M 19.23163 568.203002 L 489.172767 568.203002 L 489.172767 1035.399004 L 21.192441 1035.399004 Z M 19.23163 568.203002 " transform="matrix(0.0298824, 0, 0, 0.0298824, -0.555156, -16.959738)"/>
<path fill-rule="nonzero" fill="rgb(100%, 100%, 0%)" fill-opacity="1" d="M 3.238281 2.273438 C 3.238281 2.09375 3.375 1.949219 3.542969 1.949219 C 3.710938 1.949219 3.847656 2.09375 3.847656 2.273438 C 3.847656 2.449219 3.710938 2.59375 3.542969 2.59375 C 3.375 2.59375 3.238281 2.449219 3.238281 2.273438 Z M 3.238281 2.273438 "/>
<path fill-rule="nonzero" fill="rgb(100%, 100%, 0%)" fill-opacity="1" d="M 3.480469 2.597656 C 3.480469 2.417969 3.617188 2.273438 3.785156 2.273438 C 3.953125 2.273438 4.089844 2.417969 4.089844 2.597656 C 4.089844 2.777344 3.953125 2.917969 3.785156 2.917969 C 3.617188 2.917969 3.480469 2.777344 3.480469 2.597656 Z M 3.480469 2.597656 "/>
<path fill-rule="nonzero" fill="rgb(100%, 100%, 0%)" fill-opacity="1" d="M 3.96875 2.027344 C 3.96875 1.851562 4.105469 1.707031 4.273438 1.707031 C 4.441406 1.707031 4.578125 1.851562 4.578125 2.027344 C 4.578125 2.207031 4.441406 2.351562 4.273438 2.351562 C 4.105469 2.351562 3.96875 2.207031 3.96875 2.027344 Z M 3.96875 2.027344 "/>
<path fill-rule="nonzero" fill="rgb(100%, 100%, 0%)" fill-opacity="1" d="M 4.617188 1.621094 C 4.617188 1.445312 4.753906 1.300781 4.921875 1.300781 C 5.089844 1.300781 5.226562 1.445312 5.226562 1.621094 C 5.226562 1.800781 5.089844 1.945312 4.921875 1.945312 C 4.753906 1.945312 4.617188 1.800781 4.617188 1.621094 Z M 4.617188 1.621094 "/>
<path fill-rule="nonzero" fill="rgb(100%, 100%, 0%)" fill-opacity="1" d="M 4.457031 1.214844 C 4.457031 1.039062 4.59375 0.894531 4.761719 0.894531 C 4.929688 0.894531 5.066406 1.039062 5.066406 1.214844 C 5.066406 1.394531 4.929688 1.539062 4.761719 1.539062 C 4.59375 1.539062 4.457031 1.394531 4.457031 1.214844 Z M 4.457031 1.214844 "/>
<path fill-rule="nonzero" fill="rgb(100%, 100%, 0%)" fill-opacity="1" d="M 3.804688 1.703125 C 3.804688 1.527344 3.941406 1.382812 4.109375 1.382812 C 4.277344 1.382812 4.414062 1.527344 4.414062 1.703125 C 4.414062 1.882812 4.277344 2.027344 4.109375 2.027344 C 3.941406 2.027344 3.804688 1.882812 3.804688 1.703125 Z M 3.804688 1.703125 "/>
<path fill-rule="nonzero" fill="rgb(100%, 100%, 0%)" fill-opacity="1" d="M 5.347656 1.296875 C 5.347656 1.121094 5.484375 0.976562 5.652344 0.976562 C 5.820312 0.976562 5.957031 1.121094 5.957031 1.296875 C 5.957031 1.476562 5.820312 1.621094 5.652344 1.621094 C 5.484375 1.621094 5.347656 1.476562 5.347656 1.296875 Z M 5.347656 1.296875 "/>
<path fill-rule="nonzero" fill="rgb(100%, 100%, 0%)" fill-opacity="1" d="M 5.1875 0.890625 C 5.1875 0.714844 5.324219 0.570312 5.492188 0.570312 C 5.660156 0.570312 5.796875 0.714844 5.796875 0.890625 C 5.796875 1.070312 5.660156 1.214844 5.492188 1.214844 C 5.324219 1.214844 5.1875 1.070312 5.1875 0.890625 Z M 5.1875 0.890625 "/>
<path fill-rule="nonzero" fill="rgb(100%, 100%, 0%)" fill-opacity="1" d="M 6 0.648438 C 6 0.46875 6.136719 0.324219 6.304688 0.324219 C 6.472656 0.324219 6.609375 0.46875 6.609375 0.648438 C 6.609375 0.828125 6.472656 0.96875 6.304688 0.96875 C 6.136719 0.96875 6 0.828125 6 0.648438 Z M 6 0.648438 "/>
<path fill-rule="nonzero" fill="rgb(100%, 100%, 0%)" fill-opacity="1" d="M 6.082031 1.054688 C 6.082031 0.875 6.214844 0.730469 6.382812 0.730469 C 6.554688 0.730469 6.6875 0.875 6.6875 1.054688 C 6.6875 1.230469 6.554688 1.375 6.382812 1.375 C 6.214844 1.375 6.082031 1.230469 6.082031 1.054688 Z M 6.082031 1.054688 "/>
<path fill-rule="nonzero" fill="rgb(100%, 100%, 0%)" fill-opacity="1" d="M 6.8125 0.972656 C 6.8125 0.796875 6.949219 0.652344 7.117188 0.652344 C 7.285156 0.652344 7.421875 0.796875 7.421875 0.972656 C 7.421875 1.152344 7.285156 1.296875 7.117188 1.296875 C 6.949219 1.296875 6.8125 1.152344 6.8125 0.972656 Z M 6.8125 0.972656 "/>
<path fill-rule="nonzero" fill="rgb(100%, 100%, 0%)" fill-opacity="1" d="M 6.8125 0.566406 C 6.8125 0.390625 6.949219 0.246094 7.117188 0.246094 C 7.285156 0.246094 7.421875 0.390625 7.421875 0.566406 C 7.421875 0.746094 7.285156 0.890625 7.117188 0.890625 C 6.949219 0.890625 6.8125 0.746094 6.8125 0.566406 Z M 6.8125 0.566406 "/>
<path fill-rule="nonzero" fill="rgb(100%, 100%, 0%)" fill-opacity="1" d="M 7.703125 0.730469 C 7.703125 0.550781 7.839844 0.40625 8.007812 0.40625 C 8.175781 0.40625 8.3125 0.550781 8.3125 0.730469 C 8.3125 0.90625 8.175781 1.050781 8.007812 1.050781 C 7.839844 1.050781 7.703125 0.90625 7.703125 0.730469 Z M 7.703125 0.730469 "/>
<path fill-rule="nonzero" fill="rgb(100%, 100%, 0%)" fill-opacity="1" d="M 7.542969 1.136719 C 7.542969 0.957031 7.679688 0.8125 7.847656 0.8125 C 8.015625 0.8125 8.152344 0.957031 8.152344 1.136719 C 8.152344 1.3125 8.015625 1.457031 7.847656 1.457031 C 7.679688 1.457031 7.542969 1.3125 7.542969 1.136719 Z M 7.542969 1.136719 "/>
<path fill-rule="nonzero" fill="rgb(100%, 100%, 0%)" fill-opacity="1" d="M 8.515625 1.136719 C 8.515625 0.957031 8.652344 0.8125 8.820312 0.8125 C 8.988281 0.8125 9.125 0.957031 9.125 1.136719 C 9.125 1.3125 8.988281 1.457031 8.820312 1.457031 C 8.652344 1.457031 8.515625 1.3125 8.515625 1.136719 Z M 8.515625 1.136719 "/>
<path fill-rule="nonzero" fill="rgb(100%, 100%, 0%)" fill-opacity="1" d="M 8.191406 1.460938 C 8.191406 1.28125 8.328125 1.136719 8.496094 1.136719 C 8.664062 1.136719 8.800781 1.28125 8.800781 1.460938 C 8.800781 1.636719 8.664062 1.78125 8.496094 1.78125 C 8.328125 1.78125 8.191406 1.636719 8.191406 1.460938 Z M 8.191406 1.460938 "/>
<path fill-rule="nonzero" fill="rgb(100%, 100%, 0%)" fill-opacity="1" d="M 9.167969 1.621094 C 9.167969 1.445312 9.304688 1.300781 9.472656 1.300781 C 9.640625 1.300781 9.773438 1.445312 9.773438 1.621094 C 9.773438 1.800781 9.640625 1.945312 9.472656 1.945312 C 9.304688 1.945312 9.167969 1.800781 9.167969 1.621094 Z M 9.167969 1.621094 "/>
<path fill-rule="nonzero" fill="rgb(100%, 100%, 0%)" fill-opacity="1" d="M 8.761719 1.949219 C 8.761719 1.769531 8.898438 1.625 9.066406 1.625 C 9.234375 1.625 9.371094 1.769531 9.371094 1.949219 C 9.371094 2.125 9.234375 2.269531 9.066406 2.269531 C 8.898438 2.269531 8.761719 2.125 8.761719 1.949219 Z M 8.761719 1.949219 "/>
<path fill-rule="nonzero" fill="rgb(100%, 100%, 0%)" fill-opacity="1" d="M 9.652344 2.273438 C 9.652344 2.09375 9.789062 1.949219 9.957031 1.949219 C 10.125 1.949219 10.261719 2.09375 10.261719 2.273438 C 10.261719 2.449219 10.125 2.59375 9.957031 2.59375 C 9.789062 2.59375 9.652344 2.449219 9.652344 2.273438 Z M 9.652344 2.273438 "/>
<path fill-rule="nonzero" fill="rgb(100%, 100%, 0%)" fill-opacity="1" d="M 9.246094 2.515625 C 9.246094 2.339844 9.382812 2.195312 9.550781 2.195312 C 9.71875 2.195312 9.855469 2.339844 9.855469 2.515625 C 9.855469 2.695312 9.71875 2.839844 9.550781 2.839844 C 9.382812 2.839844 9.246094 2.695312 9.246094 2.515625 Z M 9.246094 2.515625 "/>
<path fill-rule="nonzero" fill="rgb(100%, 100%, 0%)" fill-opacity="1" d="M 10.058594 3.085938 C 10.058594 2.90625 10.195312 2.761719 10.363281 2.761719 C 10.53125 2.761719 10.667969 2.90625 10.667969 3.085938 C 10.667969 3.261719 10.53125 3.40625 10.363281 3.40625 C 10.195312 3.40625 10.058594 3.261719 10.058594 3.085938 Z M 10.058594 3.085938 "/>
<path fill-rule="nonzero" fill="rgb(100%, 100%, 0%)" fill-opacity="1" d="M 9.652344 3.246094 C 9.652344 3.070312 9.789062 2.925781 9.957031 2.925781 C 10.125 2.925781 10.261719 3.070312 10.261719 3.246094 C 10.261719 3.425781 10.125 3.570312 9.957031 3.570312 C 9.789062 3.570312 9.652344 3.425781 9.652344 3.246094 Z M 9.652344 3.246094 "/>
<path fill-rule="nonzero" fill="rgb(100%, 100%, 0%)" fill-opacity="1" d="M 10.222656 3.898438 C 10.222656 3.71875 10.359375 3.574219 10.527344 3.574219 C 10.695312 3.574219 10.832031 3.71875 10.832031 3.898438 C 10.832031 4.074219 10.695312 4.21875 10.527344 4.21875 C 10.359375 4.21875 10.222656 4.074219 10.222656 3.898438 Z M 10.222656 3.898438 "/>
<path fill-rule="nonzero" fill="rgb(100%, 100%, 0%)" fill-opacity="1" d="M 10.140625 4.710938 C 10.140625 4.53125 10.277344 4.386719 10.445312 4.386719 C 10.613281 4.386719 10.75 4.53125 10.75 4.710938 C 10.75 4.886719 10.613281 5.03125 10.445312 5.03125 C 10.277344 5.03125 10.140625 4.886719 10.140625 4.710938 Z M 10.140625 4.710938 "/>
<path fill-rule="nonzero" fill="rgb(100%, 100%, 0%)" fill-opacity="1" d="M 9.652344 4.710938 C 9.652344 4.53125 9.789062 4.386719 9.957031 4.386719 C 10.125 4.386719 10.261719 4.53125 10.261719 4.710938 C 10.261719 4.886719 10.125 5.03125 9.957031 5.03125 C 9.789062 5.03125 9.652344 4.886719 9.652344 4.710938 Z M 9.652344 4.710938 "/>
<path fill-rule="nonzero" fill="rgb(100%, 100%, 0%)" fill-opacity="1" d="M 9.734375 3.898438 C 9.734375 3.71875 9.871094 3.574219 10.039062 3.574219 C 10.207031 3.574219 10.34375 3.71875 10.34375 3.898438 C 10.34375 4.074219 10.207031 4.21875 10.039062 4.21875 C 9.871094 4.21875 9.734375 4.074219 9.734375 3.898438 Z M 9.734375 3.898438 "/>
<path fill-rule="nonzero" fill="rgb(100%, 100%, 0%)" fill-opacity="1" d="M 9.898438 5.519531 C 9.898438 5.34375 10.035156 5.199219 10.203125 5.199219 C 10.371094 5.199219 10.507812 5.34375 10.507812 5.519531 C 10.507812 5.699219 10.371094 5.84375 10.203125 5.84375 C 10.035156 5.84375 9.898438 5.699219 9.898438 5.519531 Z M 9.898438 5.519531 "/>
<path fill-rule="nonzero" fill="rgb(100%, 100%, 0%)" fill-opacity="1" d="M 9.492188 5.359375 C 9.492188 5.179688 9.628906 5.035156 9.796875 5.035156 C 9.964844 5.035156 10.101562 5.179688 10.101562 5.359375 C 10.101562 5.535156 9.964844 5.679688 9.796875 5.679688 C 9.628906 5.679688 9.492188 5.535156 9.492188 5.359375 Z M 9.492188 5.359375 "/>
<path fill-rule="nonzero" fill="rgb(100%, 100%, 0%)" fill-opacity="1" d="M 9.410156 6.332031 C 9.410156 6.15625 9.546875 6.011719 9.714844 6.011719 C 9.882812 6.011719 10.019531 6.15625 10.019531 6.332031 C 10.019531 6.511719 9.882812 6.65625 9.714844 6.65625 C 9.546875 6.65625 9.410156 6.511719 9.410156 6.332031 Z M 9.410156 6.332031 "/>
<path fill-rule="nonzero" fill="rgb(100%, 100%, 0%)" fill-opacity="1" d="M 9.085938 6.089844 C 9.085938 5.910156 9.222656 5.765625 9.390625 5.765625 C 9.558594 5.765625 9.695312 5.910156 9.695312 6.089844 C 9.695312 6.269531 9.558594 6.414062 9.390625 6.414062 C 9.222656 6.414062 9.085938 6.269531 9.085938 6.089844 Z M 9.085938 6.089844 "/>
<path fill-rule="nonzero" fill="rgb(100%, 100%, 0%)" fill-opacity="1" d="M 10.304688 13.238281 C 10.304688 13.058594 10.441406 12.914062 10.609375 12.914062 C 10.777344 12.914062 10.914062 13.058594 10.914062 13.238281 C 10.914062 13.414062 10.777344 13.558594 10.609375 13.558594 C 10.441406 13.558594 10.304688 13.414062 10.304688 13.238281 Z M 10.304688 13.238281 "/>
<path fill-rule="nonzero" fill="rgb(100%, 100%, 0%)" fill-opacity="1" d="M 9.652344 13.238281 C 9.652344 13.058594 9.789062 12.914062 9.957031 12.914062 C 10.125 12.914062 10.261719 13.058594 10.261719 13.238281 C 10.261719 13.414062 10.125 13.558594 9.957031 13.558594 C 9.789062 13.558594 9.652344 13.414062 9.652344 13.238281 Z M 9.652344 13.238281 "/>
<path fill-rule="nonzero" fill="rgb(100%, 100%, 0%)" fill-opacity="1" d="M 9.652344 13.238281 C 9.652344 13.058594 9.789062 12.914062 9.957031 12.914062 C 10.125 12.914062 10.261719 13.058594 10.261719 13.238281 C 10.261719 13.414062 10.125 13.558594 9.957031 13.558594 C 9.789062 13.558594 9.652344 13.414062 9.652344 13.238281 Z M 9.652344 13.238281 "/>
<path fill-rule="nonzero" fill="rgb(100%, 100%, 0%)" fill-opacity="1" d="M 8.996094 13.242188 C 8.996094 13.0625 9.132812 12.917969 9.300781 12.917969 C 9.46875 12.917969 9.605469 13.0625 9.605469 13.242188 C 9.605469 13.417969 9.46875 13.5625 9.300781 13.5625 C 9.132812 13.5625 8.996094 13.417969 8.996094 13.242188 Z M 8.996094 13.242188 "/>
<path fill-rule="nonzero" fill="rgb(100%, 100%, 0%)" fill-opacity="1" d="M 8.347656 13.242188 C 8.347656 13.0625 8.484375 12.917969 8.652344 12.917969 C 8.820312 12.917969 8.957031 13.0625 8.957031 13.242188 C 8.957031 13.417969 8.820312 13.5625 8.652344 13.5625 C 8.484375 13.5625 8.347656 13.417969 8.347656 13.242188 Z M 8.347656 13.242188 "/>
<path fill-rule="nonzero" fill="rgb(100%, 100%, 0%)" fill-opacity="1" d="M 8.347656 13.242188 C 8.347656 13.0625 8.484375 12.917969 8.652344 12.917969 C 8.820312 12.917969 8.957031 13.0625 8.957031 13.242188 C 8.957031 13.417969 8.820312 13.5625 8.652344 13.5625 C 8.484375 13.5625 8.347656 13.417969 8.347656 13.242188 Z M 8.347656 13.242188 "/>
<path fill-rule="nonzero" fill="rgb(100%, 100%, 0%)" fill-opacity="1" d="M 7.453125 13.242188 C 7.453125 13.0625 7.589844 12.917969 7.757812 12.917969 C 7.925781 12.917969 8.0625 13.0625 8.0625 13.242188 C 8.0625 13.417969 7.925781 13.5625 7.757812 13.5625 C 7.589844 13.5625 7.453125 13.417969 7.453125 13.242188 Z M 7.453125 13.242188 "/>
<path fill-rule="nonzero" fill="rgb(100%, 100%, 0%)" fill-opacity="1" d="M 6.804688 13.242188 C 6.804688 13.0625 6.941406 12.917969 7.109375 12.917969 C 7.277344 12.917969 7.414062 13.0625 7.414062 13.242188 C 7.414062 13.417969 7.277344 13.5625 7.109375 13.5625 C 6.941406 13.5625 6.804688 13.417969 6.804688 13.242188 Z M 6.804688 13.242188 "/>
<path fill-rule="nonzero" fill="rgb(100%, 100%, 0%)" fill-opacity="1" d="M 6.804688 13.242188 C 6.804688 13.0625 6.941406 12.917969 7.109375 12.917969 C 7.277344 12.917969 7.414062 13.0625 7.414062 13.242188 C 7.414062 13.417969 7.277344 13.5625 7.109375 13.5625 C 6.941406 13.5625 6.804688 13.417969 6.804688 13.242188 Z M 6.804688 13.242188 "/>
<path fill-rule="nonzero" fill="rgb(100%, 100%, 0%)" fill-opacity="1" d="M 5.992188 13.242188 C 5.992188 13.0625 6.128906 12.917969 6.296875 12.917969 C 6.464844 12.917969 6.601562 13.0625 6.601562 13.242188 C 6.601562 13.417969 6.464844 13.5625 6.296875 13.5625 C 6.128906 13.5625 5.992188 13.417969 5.992188 13.242188 Z M 5.992188 13.242188 "/>
<path fill-rule="nonzero" fill="rgb(100%, 100%, 0%)" fill-opacity="1" d="M 5.097656 13.242188 C 5.097656 13.0625 5.234375 12.917969 5.402344 12.917969 C 5.570312 12.917969 5.707031 13.0625 5.707031 13.242188 C 5.707031 13.417969 5.570312 13.5625 5.402344 13.5625 C 5.234375 13.5625 5.097656 13.417969 5.097656 13.242188 Z M 5.097656 13.242188 "/>
<path fill-rule="nonzero" fill="rgb(100%, 100%, 0%)" fill-opacity="1" d="M 4.449219 13.242188 C 4.449219 13.0625 4.585938 12.917969 4.753906 12.917969 C 4.921875 12.917969 5.058594 13.0625 5.058594 13.242188 C 5.058594 13.417969 4.921875 13.5625 4.753906 13.5625 C 4.585938 13.5625 4.449219 13.417969 4.449219 13.242188 Z M 4.449219 13.242188 "/>
<path fill-rule="nonzero" fill="rgb(100%, 100%, 0%)" fill-opacity="1" d="M 3.71875 13.242188 C 3.71875 13.0625 3.855469 12.917969 4.023438 12.917969 C 4.191406 12.917969 4.328125 13.0625 4.328125 13.242188 C 4.328125 13.417969 4.191406 13.5625 4.023438 13.5625 C 3.855469 13.5625 3.71875 13.417969 3.71875 13.242188 Z M 3.71875 13.242188 "/>
<path fill-rule="nonzero" fill="rgb(100%, 100%, 0%)" fill-opacity="1" d="M 3.71875 13.242188 C 3.71875 13.0625 3.855469 12.917969 4.023438 12.917969 C 4.191406 12.917969 4.328125 13.0625 4.328125 13.242188 C 4.328125 13.417969 4.191406 13.5625 4.023438 13.5625 C 3.855469 13.5625 3.71875 13.417969 3.71875 13.242188 Z M 3.71875 13.242188 "/>
<path fill-rule="nonzero" fill="rgb(100%, 100%, 0%)" fill-opacity="1" d="M 10.324219 12.757812 C 10.324219 12.582031 10.460938 12.4375 10.628906 12.4375 C 10.796875 12.4375 10.933594 12.582031 10.933594 12.757812 C 10.933594 12.9375 10.796875 13.082031 10.628906 13.082031 C 10.460938 13.082031 10.324219 12.9375 10.324219 12.757812 Z M 10.324219 12.757812 "/>
<path fill-rule="nonzero" fill="rgb(100%, 100%, 0%)" fill-opacity="1" d="M 9.675781 12.757812 C 9.675781 12.582031 9.8125 12.4375 9.980469 12.4375 C 10.148438 12.4375 10.28125 12.582031 10.28125 12.757812 C 10.28125 12.9375 10.148438 13.082031 9.980469 13.082031 C 9.8125 13.082031 9.675781 12.9375 9.675781 12.757812 Z M 9.675781 12.757812 "/>
<path fill-rule="nonzero" fill="rgb(100%, 100%, 0%)" fill-opacity="1" d="M 9.675781 12.757812 C 9.675781 12.582031 9.8125 12.4375 9.980469 12.4375 C 10.148438 12.4375 10.28125 12.582031 10.28125 12.757812 C 10.28125 12.9375 10.148438 13.082031 9.980469 13.082031 C 9.8125 13.082031 9.675781 12.9375 9.675781 12.757812 Z M 9.675781 12.757812 "/>
<path fill-rule="nonzero" fill="rgb(100%, 100%, 0%)" fill-opacity="1" d="M 9.015625 12.761719 C 9.015625 12.585938 9.152344 12.441406 9.320312 12.441406 C 9.488281 12.441406 9.625 12.585938 9.625 12.761719 C 9.625 12.941406 9.488281 13.085938 9.320312 13.085938 C 9.152344 13.085938 9.015625 12.941406 9.015625 12.761719 Z M 9.015625 12.761719 "/>
<path fill-rule="nonzero" fill="rgb(100%, 100%, 0%)" fill-opacity="1" d="M 8.367188 12.761719 C 8.367188 12.585938 8.503906 12.441406 8.671875 12.441406 C 8.839844 12.441406 8.976562 12.585938 8.976562 12.761719 C 8.976562 12.941406 8.839844 13.085938 8.671875 13.085938 C 8.503906 13.085938 8.367188 12.941406 8.367188 12.761719 Z M 8.367188 12.761719 "/>
<path fill-rule="nonzero" fill="rgb(100%, 100%, 0%)" fill-opacity="1" d="M 8.367188 12.761719 C 8.367188 12.585938 8.503906 12.441406 8.671875 12.441406 C 8.839844 12.441406 8.976562 12.585938 8.976562 12.761719 C 8.976562 12.941406 8.839844 13.085938 8.671875 13.085938 C 8.503906 13.085938 8.367188 12.941406 8.367188 12.761719 Z M 8.367188 12.761719 "/>
<path fill-rule="nonzero" fill="rgb(100%, 100%, 0%)" fill-opacity="1" d="M 7.472656 12.761719 C 7.472656 12.585938 7.609375 12.441406 7.777344 12.441406 C 7.945312 12.441406 8.082031 12.585938 8.082031 12.761719 C 8.082031 12.941406 7.945312 13.085938 7.777344 13.085938 C 7.609375 13.085938 7.472656 12.941406 7.472656 12.761719 Z M 7.472656 12.761719 "/>
<path fill-rule="nonzero" fill="rgb(100%, 100%, 0%)" fill-opacity="1" d="M 6.824219 12.761719 C 6.824219 12.585938 6.960938 12.441406 7.128906 12.441406 C 7.296875 12.441406 7.433594 12.585938 7.433594 12.761719 C 7.433594 12.941406 7.296875 13.085938 7.128906 13.085938 C 6.960938 13.085938 6.824219 12.941406 6.824219 12.761719 Z M 6.824219 12.761719 "/>
<path fill-rule="nonzero" fill="rgb(100%, 100%, 0%)" fill-opacity="1" d="M 6.824219 12.761719 C 6.824219 12.585938 6.960938 12.441406 7.128906 12.441406 C 7.296875 12.441406 7.433594 12.585938 7.433594 12.761719 C 7.433594 12.941406 7.296875 13.085938 7.128906 13.085938 C 6.960938 13.085938 6.824219 12.941406 6.824219 12.761719 Z M 6.824219 12.761719 "/>
<path fill-rule="nonzero" fill="rgb(100%, 100%, 0%)" fill-opacity="1" d="M 6.011719 12.761719 C 6.011719 12.585938 6.148438 12.441406 6.316406 12.441406 C 6.484375 12.441406 6.621094 12.585938 6.621094 12.761719 C 6.621094 12.941406 6.484375 13.085938 6.316406 13.085938 C 6.148438 13.085938 6.011719 12.941406 6.011719 12.761719 Z M 6.011719 12.761719 "/>
<path fill-rule="nonzero" fill="rgb(100%, 100%, 0%)" fill-opacity="1" d="M 5.117188 12.761719 C 5.117188 12.585938 5.253906 12.441406 5.421875 12.441406 C 5.589844 12.441406 5.726562 12.585938 5.726562 12.761719 C 5.726562 12.941406 5.589844 13.085938 5.421875 13.085938 C 5.253906 13.085938 5.117188 12.941406 5.117188 12.761719 Z M 5.117188 12.761719 "/>
<path fill-rule="nonzero" fill="rgb(100%, 100%, 0%)" fill-opacity="1" d="M 4.46875 12.761719 C 4.46875 12.585938 4.605469 12.441406 4.773438 12.441406 C 4.941406 12.441406 5.078125 12.585938 5.078125 12.761719 C 5.078125 12.941406 4.941406 13.085938 4.773438 13.085938 C 4.605469 13.085938 4.46875 12.941406 4.46875 12.761719 Z M 4.46875 12.761719 "/>
<path fill-rule="nonzero" fill="rgb(100%, 100%, 0%)" fill-opacity="1" d="M 3.71875 12.753906 C 3.71875 12.574219 3.855469 12.429688 4.023438 12.429688 C 4.191406 12.429688 4.328125 12.574219 4.328125 12.753906 C 4.328125 12.929688 4.191406 13.074219 4.023438 13.074219 C 3.855469 13.074219 3.71875 12.929688 3.71875 12.753906 Z M 3.71875 12.753906 "/>
<path fill-rule="nonzero" fill="rgb(100%, 100%, 0%)" fill-opacity="1" d="M 3.148438 12.753906 C 3.148438 12.574219 3.285156 12.429688 3.453125 12.429688 C 3.621094 12.429688 3.757812 12.574219 3.757812 12.753906 C 3.757812 12.929688 3.621094 13.074219 3.453125 13.074219 C 3.285156 13.074219 3.148438 12.929688 3.148438 12.753906 Z M 3.148438 12.753906 "/>
<path fill-rule="nonzero" fill="rgb(100%, 100%, 0%)" fill-opacity="1" d="M 3.148438 13.242188 C 3.148438 13.0625 3.285156 12.917969 3.453125 12.917969 C 3.621094 12.917969 3.757812 13.0625 3.757812 13.242188 C 3.757812 13.417969 3.621094 13.5625 3.453125 13.5625 C 3.285156 13.5625 3.148438 13.417969 3.148438 13.242188 Z M 3.148438 13.242188 "/>
<path fill-rule="nonzero" fill="rgb(100%, 100%, 0%)" fill-opacity="1" d="M 3.3125 12.183594 C 3.3125 12.007812 3.449219 11.863281 3.617188 11.863281 C 3.785156 11.863281 3.921875 12.007812 3.921875 12.183594 C 3.921875 12.363281 3.785156 12.507812 3.617188 12.507812 C 3.449219 12.507812 3.3125 12.363281 3.3125 12.183594 Z M 3.3125 12.183594 "/>
<path fill-rule="nonzero" fill="rgb(100%, 100%, 0%)" fill-opacity="1" d="M 3.796875 12.347656 C 3.796875 12.167969 3.933594 12.023438 4.101562 12.023438 C 4.269531 12.023438 4.40625 12.167969 4.40625 12.347656 C 4.40625 12.523438 4.269531 12.667969 4.101562 12.667969 C 3.933594 12.667969 3.796875 12.523438 3.796875 12.347656 Z M 3.796875 12.347656 "/>
<path fill-rule="nonzero" fill="rgb(100%, 100%, 0%)" fill-opacity="1" d="M 4.042969 12.023438 C 4.042969 11.84375 4.179688 11.699219 4.347656 11.699219 C 4.515625 11.699219 4.652344 11.84375 4.652344 12.023438 C 4.652344 12.199219 4.515625 12.34375 4.347656 12.34375 C 4.179688 12.34375 4.042969 12.199219 4.042969 12.023438 Z M 4.042969 12.023438 "/>
<path fill-rule="nonzero" fill="rgb(100%, 100%, 0%)" fill-opacity="1" d="M 3.636719 11.617188 C 3.636719 11.4375 3.773438 11.292969 3.941406 11.292969 C 4.109375 11.292969 4.246094 11.4375 4.246094 11.617188 C 4.246094 11.792969 4.109375 11.9375 3.941406 11.9375 C 3.773438 11.9375 3.636719 11.792969 3.636719 11.617188 Z M 3.636719 11.617188 "/>
<path fill-rule="nonzero" fill="rgb(100%, 100%, 0%)" fill-opacity="1" d="M 4.203125 11.128906 C 4.203125 10.949219 4.339844 10.804688 4.507812 10.804688 C 4.675781 10.804688 4.8125 10.949219 4.8125 11.128906 C 4.8125 11.308594 4.675781 11.453125 4.507812 11.453125 C 4.339844 11.453125 4.203125 11.308594 4.203125 11.128906 Z M 4.203125 11.128906 "/>
<path fill-rule="nonzero" fill="rgb(100%, 100%, 0%)" fill-opacity="1" d="M 4.609375 11.371094 C 4.609375 11.195312 4.746094 11.050781 4.914062 11.050781 C 5.082031 11.050781 5.21875 11.195312 5.21875 11.371094 C 5.21875 11.550781 5.082031 11.695312 4.914062 11.695312 C 4.746094 11.695312 4.609375 11.550781 4.609375 11.371094 Z M 4.609375 11.371094 "/>
<path fill-rule="nonzero" fill="rgb(100%, 100%, 0%)" fill-opacity="1" d="M 4.773438 10.558594 C 4.773438 10.382812 4.910156 10.238281 5.078125 10.238281 C 5.246094 10.238281 5.382812 10.382812 5.382812 10.558594 C 5.382812 10.738281 5.246094 10.882812 5.078125 10.882812 C 4.910156 10.882812 4.773438 10.738281 4.773438 10.558594 Z M 4.773438 10.558594 "/>
<path fill-rule="nonzero" fill="rgb(100%, 100%, 0%)" fill-opacity="1" d="M 5.179688 10.804688 C 5.179688 10.625 5.316406 10.480469 5.484375 10.480469 C 5.652344 10.480469 5.789062 10.625 5.789062 10.804688 C 5.789062 10.980469 5.652344 11.125 5.484375 11.125 C 5.316406 11.125 5.179688 10.980469 5.179688 10.804688 Z M 5.179688 10.804688 "/>
<path fill-rule="nonzero" fill="rgb(100%, 100%, 0%)" fill-opacity="1" d="M 5.34375 9.992188 C 5.34375 9.8125 5.476562 9.667969 5.644531 9.667969 C 5.8125 9.667969 5.949219 9.8125 5.949219 9.992188 C 5.949219 10.171875 5.8125 10.3125 5.644531 10.3125 C 5.476562 10.3125 5.34375 10.171875 5.34375 9.992188 Z M 5.34375 9.992188 "/>
<path fill-rule="nonzero" fill="rgb(100%, 100%, 0%)" fill-opacity="1" d="M 5.910156 9.421875 C 5.910156 9.246094 6.046875 9.101562 6.214844 9.101562 C 6.382812 9.101562 6.519531 9.246094 6.519531 9.421875 C 6.519531 9.601562 6.382812 9.746094 6.214844 9.746094 C 6.046875 9.746094 5.910156 9.601562 5.910156 9.421875 Z M 5.910156 9.421875 "/>
<path fill-rule="nonzero" fill="rgb(100%, 100%, 0%)" fill-opacity="1" d="M 6.480469 8.855469 C 6.480469 8.675781 6.613281 8.53125 6.785156 8.53125 C 6.953125 8.53125 7.085938 8.675781 7.085938 8.855469 C 7.085938 9.03125 6.953125 9.175781 6.785156 9.175781 C 6.613281 9.175781 6.480469 9.03125 6.480469 8.855469 Z M 6.480469 8.855469 "/>
<path fill-rule="nonzero" fill="rgb(100%, 100%, 0%)" fill-opacity="1" d="M 6.804688 9.179688 C 6.804688 9 6.941406 8.855469 7.109375 8.855469 C 7.277344 8.855469 7.414062 9 7.414062 9.179688 C 7.414062 9.359375 7.277344 9.503906 7.109375 9.503906 C 6.941406 9.503906 6.804688 9.359375 6.804688 9.179688 Z M 6.804688 9.179688 "/>
<path fill-rule="nonzero" fill="rgb(100%, 100%, 0%)" fill-opacity="1" d="M 6.234375 9.667969 C 6.234375 9.488281 6.371094 9.34375 6.539062 9.34375 C 6.707031 9.34375 6.84375 9.488281 6.84375 9.667969 C 6.84375 9.84375 6.707031 9.988281 6.539062 9.988281 C 6.371094 9.988281 6.234375 9.84375 6.234375 9.667969 Z M 6.234375 9.667969 "/>
<path fill-rule="nonzero" fill="rgb(100%, 100%, 0%)" fill-opacity="1" d="M 5.667969 10.316406 C 5.667969 10.136719 5.804688 9.996094 5.972656 9.996094 C 6.140625 9.996094 6.277344 10.136719 6.277344 10.316406 C 6.277344 10.496094 6.140625 10.640625 5.972656 10.640625 C 5.804688 10.640625 5.667969 10.496094 5.667969 10.316406 Z M 5.667969 10.316406 "/>
<path fill-rule="nonzero" fill="rgb(100%, 100%, 0%)" fill-opacity="1" d="M 6.964844 8.285156 C 6.964844 8.109375 7.101562 7.964844 7.269531 7.964844 C 7.4375 7.964844 7.574219 8.109375 7.574219 8.285156 C 7.574219 8.464844 7.4375 8.609375 7.269531 8.609375 C 7.101562 8.609375 6.964844 8.464844 6.964844 8.285156 Z M 6.964844 8.285156 "/>
<path fill-rule="nonzero" fill="rgb(100%, 100%, 0%)" fill-opacity="1" d="M 7.535156 7.71875 C 7.535156 7.539062 7.671875 7.394531 7.839844 7.394531 C 8.007812 7.394531 8.144531 7.539062 8.144531 7.71875 C 8.144531 7.894531 8.007812 8.039062 7.839844 8.039062 C 7.671875 8.039062 7.535156 7.894531 7.535156 7.71875 Z M 7.535156 7.71875 "/>
<path fill-rule="nonzero" fill="rgb(100%, 100%, 0%)" fill-opacity="1" d="M 8.101562 7.148438 C 8.101562 6.972656 8.238281 6.828125 8.40625 6.828125 C 8.574219 6.828125 8.710938 6.972656 8.710938 7.148438 C 8.710938 7.328125 8.574219 7.472656 8.40625 7.472656 C 8.238281 7.472656 8.101562 7.328125 8.101562 7.148438 Z M 8.101562 7.148438 "/>
<path fill-rule="nonzero" fill="rgb(100%, 100%, 0%)" fill-opacity="1" d="M 8.671875 6.582031 C 8.671875 6.402344 8.808594 6.257812 8.976562 6.257812 C 9.144531 6.257812 9.28125 6.402344 9.28125 6.582031 C 9.28125 6.757812 9.144531 6.902344 8.976562 6.902344 C 8.808594 6.902344 8.671875 6.757812 8.671875 6.582031 Z M 8.671875 6.582031 "/>
<path fill-rule="nonzero" fill="rgb(100%, 100%, 0%)" fill-opacity="1" d="M 8.914062 6.824219 C 8.914062 6.644531 9.050781 6.5 9.21875 6.5 C 9.386719 6.5 9.523438 6.644531 9.523438 6.824219 C 9.523438 7.003906 9.386719 7.148438 9.21875 7.148438 C 9.050781 7.148438 8.914062 7.003906 8.914062 6.824219 Z M 8.914062 6.824219 "/>
<path fill-rule="nonzero" fill="rgb(100%, 100%, 0%)" fill-opacity="1" d="M 8.347656 7.394531 C 8.347656 7.214844 8.484375 7.070312 8.652344 7.070312 C 8.820312 7.070312 8.957031 7.214844 8.957031 7.394531 C 8.957031 7.570312 8.820312 7.714844 8.652344 7.714844 C 8.484375 7.714844 8.347656 7.570312 8.347656 7.394531 Z M 8.347656 7.394531 "/>
<path fill-rule="nonzero" fill="rgb(100%, 100%, 0%)" fill-opacity="1" d="M 7.859375 8.042969 C 7.859375 7.863281 7.996094 7.71875 8.164062 7.71875 C 8.332031 7.71875 8.46875 7.863281 8.46875 8.042969 C 8.46875 8.222656 8.332031 8.363281 8.164062 8.363281 C 7.996094 8.363281 7.859375 8.222656 7.859375 8.042969 Z M 7.859375 8.042969 "/>
<path fill-rule="nonzero" fill="rgb(100%, 100%, 0%)" fill-opacity="1" d="M 7.292969 8.609375 C 7.292969 8.433594 7.425781 8.289062 7.59375 8.289062 C 7.761719 8.289062 7.898438 8.433594 7.898438 8.609375 C 7.898438 8.789062 7.761719 8.933594 7.59375 8.933594 C 7.425781 8.933594 7.292969 8.789062 7.292969 8.609375 Z M 7.292969 8.609375 "/>
</svg>
