<?xml version="1.0" encoding="UTF-8"?>
<svg xmlns="http://www.w3.org/2000/svg" xmlns:xlink="http://www.w3.org/1999/xlink" width="17.237164" height="15" viewBox="0 0 17.237164 15">
<path fill-rule="nonzero" fill="rgb(95.294118%, 57.254905%, 0%)" fill-opacity="1" d="M 17.238281 0 L 8.617188 15 L 0 0 Z M 17.238281 0 "/>
<path fill-rule="nonzero" fill="rgb(0%, 0%, 0%)" fill-opacity="1" d="M 8.671875 13.679688 L 1.136719 0.625 L 16.210938 0.625 Z M 8.671875 13.679688 "/>
<path fill-rule="nonzero" fill="rgb(0%, 0%, 0%)" fill-opacity="1" d="M 8.671875 13.714844 L 8.65625 13.6875 L 1.105469 0.605469 L 16.242188 0.605469 L 16.226562 0.632812 Z M 1.167969 0.640625 L 8.671875 13.644531 L 16.179688 0.640625 Z M 1.167969 0.640625 "/>
<path fill-rule="nonzero" fill="rgb(95.294118%, 57.254905%, 0%)" fill-opacity="1" d="M 5.953125 7.550781 L 6.972656 7.414062 C 7.089844 7.992188 7.289062 8.410156 7.570312 8.664062 C 7.851562 8.917969 8.191406 9.046875 8.597656 9.046875 C 9.078125 9.046875 9.480469 8.878906 9.8125 8.546875 C 10.144531 8.214844 10.308594 7.804688 10.308594 7.3125 C 10.308594 6.84375 10.15625 6.457031 9.847656 6.152344 C 9.542969 5.851562 9.15625 5.699219 8.683594 5.699219 C 8.488281 5.699219 8.25 5.734375 7.964844 5.8125 L 8.078125 4.914062 C 8.144531 4.921875 8.199219 4.925781 8.242188 4.925781 C 8.675781 4.925781 9.066406 4.8125 9.414062 4.585938 C 9.761719 4.359375 9.933594 4.011719 9.933594 3.539062 C 9.933594 3.164062 9.808594 2.855469 9.554688 2.609375 C 9.300781 2.363281 8.976562 2.242188 8.574219 2.242188 C 8.179688 2.242188 7.847656 2.367188 7.582031 2.617188 C 7.320312 2.863281 7.148438 3.238281 7.074219 3.738281 L 6.054688 3.554688 C 6.179688 2.871094 6.460938 2.34375 6.902344 1.96875 C 7.34375 1.589844 7.894531 1.402344 8.550781 1.402344 C 9.003906 1.402344 9.421875 1.5 9.804688 1.695312 C 10.183594 1.890625 10.476562 2.15625 10.679688 2.492188 C 10.882812 2.828125 10.984375 3.183594 10.984375 3.5625 C 10.984375 3.921875 10.886719 4.246094 10.695312 4.542969 C 10.5 4.835938 10.214844 5.070312 9.839844 5.246094 C 10.328125 5.359375 10.710938 5.59375 10.984375 5.949219 C 11.253906 6.308594 11.390625 6.753906 11.390625 7.289062 C 11.390625 8.015625 11.125 8.628906 10.597656 9.132812 C 10.070312 9.636719 9.398438 9.890625 8.589844 9.890625 C 7.863281 9.890625 7.257812 9.671875 6.777344 9.238281 C 6.292969 8.804688 6.019531 8.242188 5.953125 7.550781 Z M 5.953125 7.550781 "/>
</svg>
