<?xml version="1.0" encoding="UTF-8"?>
<svg xmlns="http://www.w3.org/2000/svg" xmlns:xlink="http://www.w3.org/1999/xlink" width="15" height="15" viewBox="0 0 15 15">
<path fill-rule="nonzero" fill="rgb(100%, 100%, 100%)" fill-opacity="1" stroke-width="10" stroke-linecap="butt" stroke-linejoin="miter" stroke="rgb(100%, 0%, 0%)" stroke-opacity="1" stroke-miterlimit="4" d="M 5.013021 5.013021 L 5.013021 148.986979 L 148.986979 148.986979 L 148.986979 5.013021 Z M 5.013021 5.013021 " transform="matrix(0.0974026, 0, 0, 0.0974026, 0, 0)"/>
<path fill-rule="nonzero" fill="rgb(100%, 0%, 0%)" fill-opacity="1" d="M 6.101562 2.945312 C 6.515625 2.53125 7.007812 2.324219 7.589844 2.324219 C 8.167969 2.324219 8.664062 2.53125 9.074219 2.945312 C 9.484375 3.359375 9.691406 3.851562 9.691406 4.433594 C 9.691406 4.742188 9.628906 5.035156 9.507812 5.304688 L 7.054688 10.742188 L 9.691406 10.742188 L 9.691406 12.144531 L 5.488281 12.144531 L 5.488281 10.742188 L 8.125 4.972656 C 8.238281 4.703125 8.292969 4.523438 8.289062 4.433594 C 8.289062 4.238281 8.21875 4.070312 8.082031 3.933594 C 7.949219 3.796875 7.785156 3.726562 7.589844 3.726562 C 7.394531 3.726562 7.226562 3.796875 7.089844 3.933594 C 6.953125 4.070312 6.882812 4.238281 6.882812 4.433594 L 5.488281 4.433594 C 5.488281 3.851562 5.691406 3.359375 6.101562 2.945312 "/>
</svg>
