<?xml version="1.0" encoding="UTF-8"?>
<svg xmlns="http://www.w3.org/2000/svg" xmlns:xlink="http://www.w3.org/1999/xlink" width="15" height="15" viewBox="0 0 15 15">
<path fill-rule="nonzero" fill="rgb(100%, 100%, 100%)" fill-opacity="1" stroke-width="10" stroke-linecap="butt" stroke-linejoin="miter" stroke="rgb(100%, 0%, 0%)" stroke-opacity="1" stroke-miterlimit="4" d="M 5.013021 5.013021 L 5.013021 148.986979 L 148.986979 148.986979 L 148.986979 5.013021 Z M 5.013021 5.013021 " transform="matrix(0.0974026, 0, 0, 0.0974026, 0, 0)"/>
<path fill-rule="nonzero" fill="rgb(100%, 0%, 0%)" fill-opacity="1" d="M 3.078125 4.417969 L 3.078125 2.324219 L 7.269531 2.324219 L 7.269531 3.714844 L 4.460938 12.132812 L 3.078125 12.132812 L 5.878906 3.714844 L 4.460938 3.714844 L 4.460938 4.417969 L 3.078125 4.417969 "/>
<path fill-rule="nonzero" fill="rgb(100%, 0%, 0%)" fill-opacity="1" d="M 10.195312 2.324219 L 12.144531 2.324219 L 12.144531 3.027344 L 10.894531 3.027344 L 10.894531 4.140625 C 11.007812 4.101562 11.125 4.078125 11.25 4.078125 C 11.539062 4.078125 11.785156 4.179688 11.992188 4.390625 C 12.195312 4.59375 12.300781 4.84375 12.300781 5.132812 L 12.300781 6.183594 C 12.300781 6.472656 12.195312 6.71875 11.992188 6.925781 C 11.785156 7.132812 11.539062 7.234375 11.25 7.234375 C 10.957031 7.234375 10.710938 7.132812 10.503906 6.925781 C 10.300781 6.71875 10.195312 6.472656 10.195312 6.183594 L 10.195312 5.832031 L 10.894531 5.832031 L 10.894531 6.183594 C 10.894531 6.28125 10.929688 6.363281 11 6.433594 C 11.066406 6.5 11.148438 6.53125 11.25 6.53125 C 11.347656 6.53125 11.429688 6.5 11.496094 6.433594 C 11.5625 6.363281 11.597656 6.28125 11.597656 6.183594 L 11.597656 5.132812 C 11.597656 5.035156 11.5625 4.949219 11.496094 4.882812 C 11.429688 4.8125 11.347656 4.777344 11.25 4.777344 C 11.148438 4.777344 11.066406 4.8125 11 4.882812 C 10.929688 4.949219 10.894531 5.035156 10.894531 5.132812 L 10.195312 5.132812 L 10.195312 2.324219 "/>
<path fill-rule="nonzero" fill="rgb(100%, 0%, 0%)" fill-opacity="1" d="M 8.246094 2.324219 L 9.222656 2.324219 L 9.222656 3.300781 L 8.246094 3.300781 L 8.246094 2.324219 "/>
</svg>
