<?xml version="1.0" encoding="UTF-8"?>
<svg xmlns="http://www.w3.org/2000/svg" xmlns:xlink="http://www.w3.org/1999/xlink" width="14" height="14" viewBox="0 0 14 14">
<path fill-rule="nonzero" fill="rgb(0%, 0%, 0%)" fill-opacity="1" stroke-width="10" stroke-linecap="butt" stroke-linejoin="miter" stroke="rgb(100%, 100%, 100%)" stroke-opacity="1" stroke-miterlimit="4" d="M 5.027343 5.027343 L 5.027343 148.972649 L 148.972649 148.972649 L 148.972649 5.027343 Z M 5.027343 5.027343 " transform="matrix(0.0909091, 0, 0, 0.0909091, 0, 0)"/>
<path fill-rule="nonzero" fill="rgb(100%, 100%, 100%)" fill-opacity="1" d="M 4.070312 2.167969 L 5.378906 2.167969 L 5.378906 11.335938 L 4.070312 11.335938 L 4.070312 3.476562 L 2.761719 4.789062 L 2.761719 3.476562 L 4.070312 2.167969 "/>
<path fill-rule="nonzero" fill="rgb(100%, 100%, 100%)" fill-opacity="1" d="M 7.898438 2.75 C 8.28125 2.363281 8.742188 2.167969 9.285156 2.167969 C 9.824219 2.167969 10.289062 2.363281 10.671875 2.75 C 11.054688 3.136719 11.246094 3.59375 11.246094 4.136719 L 11.246094 4.789062 L 9.9375 4.789062 L 9.9375 4.136719 C 9.9375 3.957031 9.871094 3.800781 9.746094 3.671875 C 9.621094 3.542969 9.46875 3.476562 9.285156 3.476562 C 9.101562 3.476562 8.945312 3.542969 8.820312 3.671875 C 8.691406 3.800781 8.625 3.957031 8.625 4.136719 L 8.625 5.5625 C 8.832031 5.488281 9.054688 5.445312 9.285156 5.441406 C 9.824219 5.441406 10.289062 5.636719 10.671875 6.023438 C 11.054688 6.40625 11.246094 6.867188 11.246094 7.410156 L 11.246094 9.375 C 11.246094 9.914062 11.054688 10.375 10.671875 10.757812 C 10.289062 11.140625 9.824219 11.335938 9.285156 11.335938 C 8.742188 11.335938 8.28125 11.140625 7.898438 10.757812 C 7.515625 10.375 7.320312 9.914062 7.320312 9.375 L 7.320312 4.136719 C 7.320312 3.59375 7.515625 3.136719 7.898438 2.75 M 9.746094 6.945312 C 9.621094 6.816406 9.46875 6.753906 9.285156 6.753906 C 9.101562 6.753906 8.945312 6.816406 8.820312 6.945312 C 8.691406 7.074219 8.625 7.226562 8.625 7.410156 L 8.625 9.375 C 8.625 9.554688 8.691406 9.710938 8.820312 9.839844 C 8.945312 9.964844 9.101562 10.027344 9.285156 10.027344 C 9.46875 10.027344 9.621094 9.964844 9.746094 9.839844 C 9.871094 9.710938 9.9375 9.554688 9.9375 9.375 L 9.9375 7.410156 C 9.9375 7.226562 9.871094 7.074219 9.746094 6.945312 "/>
</svg>
