<?xml version="1.0" encoding="UTF-8"?>
<svg xmlns="http://www.w3.org/2000/svg" xmlns:xlink="http://www.w3.org/1999/xlink" width="14.082402" height="14" viewBox="0 0 14.082402 14">
<path fill-rule="nonzero" fill="rgb(0%, 0%, 0%)" fill-opacity="1" stroke-width="1.352262" stroke-linecap="butt" stroke-linejoin="miter" stroke="rgb(0%, 0%, 0%)" stroke-opacity="1" stroke-miterlimit="4" d="M 12.195593 578.721398 L 471.812196 578.721398 L 471.812196 1035.653175 L 14.113326 1035.653175 Z M 12.195593 578.721398 " transform="matrix(0.0305537, 0, 0, 0.0305537, -0.353089, -17.662525)"/>
<path fill-rule="nonzero" fill="rgb(100%, 100%, 0%)" fill-opacity="1" d="M 6.144531 9.132812 C 6.144531 9.316406 6.007812 9.460938 5.835938 9.460938 C 5.667969 9.460938 5.527344 9.316406 5.527344 9.132812 C 5.527344 8.953125 5.667969 8.808594 5.835938 8.808594 C 6.007812 8.808594 6.144531 8.953125 6.144531 9.132812 Z M 6.144531 9.132812 "/>
<path fill-rule="nonzero" fill="rgb(100%, 100%, 0%)" fill-opacity="1" d="M 5.445312 9.679688 C 5.445312 9.863281 5.308594 10.007812 5.136719 10.007812 C 4.96875 10.007812 4.828125 9.863281 4.828125 9.679688 C 4.828125 9.5 4.96875 9.355469 5.136719 9.355469 C 5.308594 9.355469 5.445312 9.5 5.445312 9.679688 Z M 5.445312 9.679688 "/>
<path fill-rule="nonzero" fill="rgb(100%, 100%, 0%)" fill-opacity="1" d="M 5.464844 9.09375 C 5.464844 9.273438 5.328125 9.421875 5.15625 9.421875 C 4.984375 9.421875 4.847656 9.273438 4.847656 9.09375 C 4.847656 8.914062 4.984375 8.765625 5.15625 8.765625 C 5.328125 8.765625 5.464844 8.914062 5.464844 9.09375 Z M 5.464844 9.09375 "/>
<path fill-rule="nonzero" fill="rgb(100%, 100%, 0%)" fill-opacity="1" d="M 4.699219 9.640625 C 4.699219 9.820312 4.5625 9.96875 4.390625 9.96875 C 4.222656 9.96875 4.082031 9.820312 4.082031 9.640625 C 4.082031 9.460938 4.222656 9.3125 4.390625 9.3125 C 4.5625 9.3125 4.699219 9.460938 4.699219 9.640625 Z M 4.699219 9.640625 "/>
<path fill-rule="nonzero" fill="rgb(100%, 100%, 0%)" fill-opacity="1" d="M 4.703125 9.074219 C 4.703125 9.253906 4.566406 9.398438 4.394531 9.398438 C 4.222656 9.398438 4.085938 9.253906 4.085938 9.074219 C 4.085938 8.890625 4.222656 8.746094 4.394531 8.746094 C 4.566406 8.746094 4.703125 8.890625 4.703125 9.074219 Z M 4.703125 9.074219 "/>
<path fill-rule="nonzero" fill="rgb(100%, 100%, 0%)" fill-opacity="1" d="M 3.960938 9.578125 C 3.960938 9.761719 3.820312 9.90625 3.652344 9.90625 C 3.480469 9.90625 3.34375 9.761719 3.34375 9.578125 C 3.34375 9.398438 3.480469 9.253906 3.652344 9.253906 C 3.820312 9.253906 3.960938 9.398438 3.960938 9.578125 Z M 3.960938 9.578125 "/>
<path fill-rule="nonzero" fill="rgb(100%, 100%, 0%)" fill-opacity="1" d="M 4.214844 8.835938 C 4.214844 9.015625 4.078125 9.164062 3.90625 9.164062 C 3.734375 9.164062 3.597656 9.015625 3.597656 8.835938 C 3.597656 8.65625 3.734375 8.511719 3.90625 8.511719 C 4.078125 8.511719 4.214844 8.65625 4.214844 8.835938 Z M 4.214844 8.835938 "/>
<path fill-rule="nonzero" fill="rgb(100%, 100%, 0%)" fill-opacity="1" d="M 4.957031 8.390625 C 4.957031 8.570312 4.820312 8.71875 4.648438 8.71875 C 4.480469 8.71875 4.339844 8.570312 4.339844 8.390625 C 4.339844 8.210938 4.480469 8.0625 4.648438 8.0625 C 4.820312 8.0625 4.957031 8.210938 4.957031 8.390625 Z M 4.957031 8.390625 "/>
<path fill-rule="nonzero" fill="rgb(100%, 100%, 0%)" fill-opacity="1" d="M 4.492188 8.199219 C 4.492188 8.378906 4.351562 8.527344 4.183594 8.527344 C 4.011719 8.527344 3.875 8.378906 3.875 8.199219 C 3.875 8.019531 4.011719 7.875 4.183594 7.875 C 4.351562 7.875 4.492188 8.019531 4.492188 8.199219 Z M 4.492188 8.199219 "/>
<path fill-rule="nonzero" fill="rgb(100%, 100%, 0%)" fill-opacity="1" d="M 5.234375 7.5625 C 5.234375 7.742188 5.09375 7.890625 4.925781 7.890625 C 4.753906 7.890625 4.617188 7.742188 4.617188 7.5625 C 4.617188 7.382812 4.753906 7.238281 4.925781 7.238281 C 5.09375 7.238281 5.234375 7.382812 5.234375 7.5625 Z M 5.234375 7.5625 "/>
<path fill-rule="nonzero" fill="rgb(100%, 100%, 0%)" fill-opacity="1" d="M 4.765625 7.457031 C 4.765625 7.636719 4.628906 7.785156 4.457031 7.785156 C 4.289062 7.785156 4.148438 7.636719 4.148438 7.457031 C 4.148438 7.277344 4.289062 7.128906 4.457031 7.128906 C 4.628906 7.128906 4.765625 7.277344 4.765625 7.457031 Z M 4.765625 7.457031 "/>
<path fill-rule="nonzero" fill="rgb(100%, 100%, 0%)" fill-opacity="1" d="M 5.382812 7.074219 C 5.382812 7.253906 5.242188 7.402344 5.074219 7.402344 C 4.902344 7.402344 4.765625 7.253906 4.765625 7.074219 C 4.765625 6.894531 4.902344 6.75 5.074219 6.75 C 5.242188 6.75 5.382812 6.894531 5.382812 7.074219 Z M 5.382812 7.074219 "/>
<path fill-rule="nonzero" fill="rgb(100%, 100%, 0%)" fill-opacity="1" d="M 4.9375 6.925781 C 4.9375 7.105469 4.796875 7.253906 4.628906 7.253906 C 4.457031 7.253906 4.320312 7.105469 4.320312 6.925781 C 4.320312 6.746094 4.457031 6.601562 4.628906 6.601562 C 4.796875 6.601562 4.9375 6.746094 4.9375 6.925781 Z M 4.9375 6.925781 "/>
<path fill-rule="nonzero" fill="rgb(100%, 100%, 0%)" fill-opacity="1" d="M 5.65625 6.289062 C 5.65625 6.46875 5.519531 6.617188 5.347656 6.617188 C 5.179688 6.617188 5.039062 6.46875 5.039062 6.289062 C 5.039062 6.109375 5.179688 5.964844 5.347656 5.964844 C 5.519531 5.964844 5.65625 6.109375 5.65625 6.289062 Z M 5.65625 6.289062 "/>
<path fill-rule="nonzero" fill="rgb(100%, 100%, 0%)" fill-opacity="1" d="M 5.210938 6.078125 C 5.210938 6.257812 5.074219 6.40625 4.902344 6.40625 C 4.734375 6.40625 4.59375 6.257812 4.59375 6.078125 C 4.59375 5.898438 4.734375 5.75 4.902344 5.75 C 5.074219 5.75 5.210938 5.898438 5.210938 6.078125 Z M 5.210938 6.078125 "/>
<path fill-rule="nonzero" fill="rgb(100%, 100%, 0%)" fill-opacity="1" d="M 5.957031 5.589844 C 5.957031 5.769531 5.816406 5.917969 5.648438 5.917969 C 5.476562 5.917969 5.339844 5.769531 5.339844 5.589844 C 5.339844 5.410156 5.476562 5.261719 5.648438 5.261719 C 5.816406 5.261719 5.957031 5.410156 5.957031 5.589844 Z M 5.957031 5.589844 "/>
<path fill-rule="nonzero" fill="rgb(100%, 100%, 0%)" fill-opacity="1" d="M 5.53125 5.460938 C 5.53125 5.644531 5.394531 5.789062 5.222656 5.789062 C 5.050781 5.789062 4.914062 5.644531 4.914062 5.460938 C 4.914062 5.28125 5.050781 5.136719 5.222656 5.136719 C 5.394531 5.136719 5.53125 5.28125 5.53125 5.460938 Z M 5.53125 5.460938 "/>
<path fill-rule="nonzero" fill="rgb(100%, 100%, 0%)" fill-opacity="1" d="M 6.210938 4.953125 C 6.210938 5.132812 6.070312 5.28125 5.902344 5.28125 C 5.730469 5.28125 5.59375 5.132812 5.59375 4.953125 C 5.59375 4.773438 5.730469 4.625 5.902344 4.625 C 6.070312 4.625 6.210938 4.773438 6.210938 4.953125 Z M 6.210938 4.953125 "/>
<path fill-rule="nonzero" fill="rgb(100%, 100%, 0%)" fill-opacity="1" d="M 5.847656 4.78125 C 5.847656 4.964844 5.710938 5.109375 5.539062 5.109375 C 5.371094 5.109375 5.230469 4.964844 5.230469 4.78125 C 5.230469 4.601562 5.371094 4.457031 5.539062 4.457031 C 5.710938 4.457031 5.847656 4.601562 5.847656 4.78125 Z M 5.847656 4.78125 "/>
<path fill-rule="nonzero" fill="rgb(100%, 100%, 0%)" fill-opacity="1" d="M 6.507812 4.253906 C 6.507812 4.433594 6.367188 4.578125 6.199219 4.578125 C 6.027344 4.578125 5.890625 4.433594 5.890625 4.253906 C 5.890625 4.070312 6.027344 3.925781 6.199219 3.925781 C 6.367188 3.925781 6.507812 4.070312 6.507812 4.253906 Z M 6.507812 4.253906 "/>
<path fill-rule="nonzero" fill="rgb(100%, 100%, 0%)" fill-opacity="1" d="M 6.0625 4.082031 C 6.0625 4.261719 5.921875 4.410156 5.753906 4.410156 C 5.582031 4.410156 5.445312 4.261719 5.445312 4.082031 C 5.445312 3.902344 5.582031 3.753906 5.753906 3.753906 C 5.921875 3.753906 6.0625 3.902344 6.0625 4.082031 Z M 6.0625 4.082031 "/>
<path fill-rule="nonzero" fill="rgb(100%, 100%, 0%)" fill-opacity="1" d="M 6.78125 3.550781 C 6.78125 3.734375 6.644531 3.878906 6.472656 3.878906 C 6.304688 3.878906 6.164062 3.734375 6.164062 3.550781 C 6.164062 3.371094 6.304688 3.226562 6.472656 3.226562 C 6.644531 3.226562 6.78125 3.371094 6.78125 3.550781 Z M 6.78125 3.550781 "/>
<path fill-rule="nonzero" fill="rgb(100%, 100%, 0%)" fill-opacity="1" d="M 6.335938 3.382812 C 6.335938 3.5625 6.199219 3.710938 6.027344 3.710938 C 5.859375 3.710938 5.71875 3.5625 5.71875 3.382812 C 5.71875 3.203125 5.859375 3.054688 6.027344 3.054688 C 6.199219 3.054688 6.335938 3.203125 6.335938 3.382812 Z M 6.335938 3.382812 "/>
<path fill-rule="nonzero" fill="rgb(100%, 100%, 0%)" fill-opacity="1" d="M 7.101562 2.871094 C 7.101562 3.054688 6.964844 3.199219 6.792969 3.199219 C 6.621094 3.199219 6.484375 3.054688 6.484375 2.871094 C 6.484375 2.691406 6.621094 2.546875 6.792969 2.546875 C 6.964844 2.546875 7.101562 2.691406 7.101562 2.871094 Z M 7.101562 2.871094 "/>
<path fill-rule="nonzero" fill="rgb(100%, 100%, 0%)" fill-opacity="1" d="M 6.632812 2.65625 C 6.632812 2.839844 6.496094 2.984375 6.324219 2.984375 C 6.15625 2.984375 6.015625 2.839844 6.015625 2.65625 C 6.015625 2.476562 6.15625 2.332031 6.324219 2.332031 C 6.496094 2.332031 6.632812 2.476562 6.632812 2.65625 Z M 6.632812 2.65625 "/>
<path fill-rule="nonzero" fill="rgb(100%, 100%, 0%)" fill-opacity="1" d="M 7.355469 2.066406 C 7.355469 2.246094 7.21875 2.394531 7.046875 2.394531 C 6.878906 2.394531 6.738281 2.246094 6.738281 2.066406 C 6.738281 1.886719 6.878906 1.738281 7.046875 1.738281 C 7.21875 1.738281 7.355469 1.886719 7.355469 2.066406 Z M 7.355469 2.066406 "/>
<path fill-rule="nonzero" fill="rgb(100%, 100%, 0%)" fill-opacity="1" d="M 6.910156 1.917969 C 6.910156 2.097656 6.773438 2.246094 6.601562 2.246094 C 6.429688 2.246094 6.292969 2.097656 6.292969 1.917969 C 6.292969 1.738281 6.429688 1.589844 6.601562 1.589844 C 6.773438 1.589844 6.910156 1.738281 6.910156 1.917969 Z M 6.910156 1.917969 "/>
<path fill-rule="nonzero" fill="rgb(100%, 100%, 0%)" fill-opacity="1" d="M 7.574219 1.460938 C 7.574219 1.640625 7.433594 1.789062 7.265625 1.789062 C 7.09375 1.789062 6.957031 1.640625 6.957031 1.460938 C 6.957031 1.28125 7.09375 1.132812 7.265625 1.132812 C 7.433594 1.132812 7.574219 1.28125 7.574219 1.460938 Z M 7.574219 1.460938 "/>
<path fill-rule="nonzero" fill="rgb(100%, 100%, 0%)" fill-opacity="1" d="M 7.132812 1.242188 C 7.132812 1.421875 6.996094 1.570312 6.824219 1.570312 C 6.65625 1.570312 6.515625 1.421875 6.515625 1.242188 C 6.515625 1.0625 6.65625 0.914062 6.824219 0.914062 C 6.996094 0.914062 7.132812 1.0625 7.132812 1.242188 Z M 7.132812 1.242188 "/>
<path fill-rule="nonzero" fill="rgb(100%, 100%, 0%)" fill-opacity="1" d="M 7.890625 0.535156 C 7.890625 0.714844 7.75 0.863281 7.582031 0.863281 C 7.410156 0.863281 7.273438 0.714844 7.273438 0.535156 C 7.273438 0.355469 7.410156 0.207031 7.582031 0.207031 C 7.75 0.207031 7.890625 0.355469 7.890625 0.535156 Z M 7.890625 0.535156 "/>
<path fill-rule="nonzero" fill="rgb(100%, 100%, 0%)" fill-opacity="1" d="M 7.425781 0.4375 C 7.425781 0.617188 7.289062 0.765625 7.117188 0.765625 C 6.949219 0.765625 6.808594 0.617188 6.808594 0.4375 C 6.808594 0.257812 6.949219 0.109375 7.117188 0.109375 C 7.289062 0.109375 7.425781 0.257812 7.425781 0.4375 Z M 7.425781 0.4375 "/>
<path fill-rule="nonzero" fill="rgb(100%, 100%, 0%)" fill-opacity="1" d="M 6.886719 9.132812 C 6.886719 9.316406 6.75 9.460938 6.578125 9.460938 C 6.410156 9.460938 6.269531 9.316406 6.269531 9.132812 C 6.269531 8.953125 6.410156 8.808594 6.578125 8.808594 C 6.75 8.808594 6.886719 8.953125 6.886719 9.132812 Z M 6.886719 9.132812 "/>
<path fill-rule="nonzero" fill="rgb(100%, 100%, 0%)" fill-opacity="1" d="M 7.628906 9.132812 C 7.628906 9.316406 7.492188 9.460938 7.320312 9.460938 C 7.148438 9.460938 7.011719 9.316406 7.011719 9.132812 C 7.011719 8.953125 7.148438 8.808594 7.320312 8.808594 C 7.492188 8.808594 7.628906 8.953125 7.628906 9.132812 Z M 7.628906 9.132812 "/>
<path fill-rule="nonzero" fill="rgb(100%, 100%, 0%)" fill-opacity="1" d="M 8.371094 9.132812 C 8.371094 9.316406 8.230469 9.460938 8.0625 9.460938 C 7.890625 9.460938 7.753906 9.316406 7.753906 9.132812 C 7.753906 8.953125 7.890625 8.808594 8.0625 8.808594 C 8.230469 8.808594 8.371094 8.953125 8.371094 9.132812 Z M 8.371094 9.132812 "/>
<path fill-rule="nonzero" fill="rgb(100%, 100%, 0%)" fill-opacity="1" d="M 9.191406 9.132812 C 9.191406 9.316406 9.054688 9.460938 8.882812 9.460938 C 8.714844 9.460938 8.574219 9.316406 8.574219 9.132812 C 8.574219 8.953125 8.714844 8.808594 8.882812 8.808594 C 9.054688 8.808594 9.191406 8.953125 9.191406 9.132812 Z M 9.191406 9.132812 "/>
<path fill-rule="nonzero" fill="rgb(100%, 100%, 0%)" fill-opacity="1" d="M 9.851562 9.132812 C 9.851562 9.316406 9.714844 9.460938 9.542969 9.460938 C 9.371094 9.460938 9.234375 9.316406 9.234375 9.132812 C 9.234375 8.953125 9.371094 8.808594 9.542969 8.808594 C 9.714844 8.808594 9.851562 8.953125 9.851562 9.132812 Z M 9.851562 9.132812 "/>
<path fill-rule="nonzero" fill="rgb(100%, 100%, 0%)" fill-opacity="1" d="M 10.347656 9.132812 C 10.347656 9.316406 10.207031 9.460938 10.039062 9.460938 C 9.867188 9.460938 9.730469 9.316406 9.730469 9.132812 C 9.730469 8.953125 9.867188 8.808594 10.039062 8.808594 C 10.207031 8.808594 10.347656 8.953125 10.347656 9.132812 Z M 10.347656 9.132812 "/>
<path fill-rule="nonzero" fill="rgb(100%, 100%, 0%)" fill-opacity="1" d="M 11.085938 9.132812 C 11.085938 9.316406 10.949219 9.460938 10.777344 9.460938 C 10.609375 9.460938 10.46875 9.316406 10.46875 9.132812 C 10.46875 8.953125 10.609375 8.808594 10.777344 8.808594 C 10.949219 8.808594 11.085938 8.953125 11.085938 9.132812 Z M 11.085938 9.132812 "/>
<path fill-rule="nonzero" fill="rgb(100%, 100%, 0%)" fill-opacity="1" d="M 9.851562 7.570312 C 9.851562 7.75 9.714844 7.894531 9.542969 7.894531 C 9.371094 7.894531 9.234375 7.75 9.234375 7.570312 C 9.234375 7.390625 9.371094 7.242188 9.542969 7.242188 C 9.714844 7.242188 9.851562 7.390625 9.851562 7.570312 Z M 9.851562 7.570312 "/>
<path fill-rule="nonzero" fill="rgb(100%, 100%, 0%)" fill-opacity="1" d="M 10.429688 7.570312 C 10.429688 7.75 10.289062 7.894531 10.121094 7.894531 C 9.949219 7.894531 9.8125 7.75 9.8125 7.570312 C 9.8125 7.390625 9.949219 7.242188 10.121094 7.242188 C 10.289062 7.242188 10.429688 7.390625 10.429688 7.570312 Z M 10.429688 7.570312 "/>
<path fill-rule="nonzero" fill="rgb(100%, 100%, 0%)" fill-opacity="1" d="M 10.347656 8.476562 C 10.347656 8.65625 10.207031 8.800781 10.039062 8.800781 C 9.867188 8.800781 9.730469 8.65625 9.730469 8.476562 C 9.730469 8.292969 9.867188 8.148438 10.039062 8.148438 C 10.207031 8.148438 10.347656 8.292969 10.347656 8.476562 Z M 10.347656 8.476562 "/>
<path fill-rule="nonzero" fill="rgb(100%, 100%, 0%)" fill-opacity="1" d="M 9.851562 8.476562 C 9.851562 8.65625 9.714844 8.800781 9.542969 8.800781 C 9.371094 8.800781 9.234375 8.65625 9.234375 8.476562 C 9.234375 8.292969 9.371094 8.148438 9.542969 8.148438 C 9.714844 8.148438 9.851562 8.292969 9.851562 8.476562 Z M 9.851562 8.476562 "/>
<path fill-rule="nonzero" fill="rgb(100%, 100%, 0%)" fill-opacity="1" d="M 6.144531 9.628906 C 6.144531 9.808594 6.007812 9.957031 5.835938 9.957031 C 5.667969 9.957031 5.527344 9.808594 5.527344 9.628906 C 5.527344 9.449219 5.667969 9.300781 5.835938 9.300781 C 6.007812 9.300781 6.144531 9.449219 6.144531 9.628906 Z M 6.144531 9.628906 "/>
<path fill-rule="nonzero" fill="rgb(100%, 100%, 0%)" fill-opacity="1" d="M 6.886719 9.628906 C 6.886719 9.808594 6.75 9.957031 6.578125 9.957031 C 6.410156 9.957031 6.269531 9.808594 6.269531 9.628906 C 6.269531 9.449219 6.410156 9.300781 6.578125 9.300781 C 6.75 9.300781 6.886719 9.449219 6.886719 9.628906 Z M 6.886719 9.628906 "/>
<path fill-rule="nonzero" fill="rgb(100%, 100%, 0%)" fill-opacity="1" d="M 7.628906 9.628906 C 7.628906 9.808594 7.492188 9.957031 7.320312 9.957031 C 7.148438 9.957031 7.011719 9.808594 7.011719 9.628906 C 7.011719 9.449219 7.148438 9.300781 7.320312 9.300781 C 7.492188 9.300781 7.628906 9.449219 7.628906 9.628906 Z M 7.628906 9.628906 "/>
<path fill-rule="nonzero" fill="rgb(100%, 100%, 0%)" fill-opacity="1" d="M 8.371094 9.628906 C 8.371094 9.808594 8.230469 9.957031 8.0625 9.957031 C 7.890625 9.957031 7.753906 9.808594 7.753906 9.628906 C 7.753906 9.449219 7.890625 9.300781 8.0625 9.300781 C 8.230469 9.300781 8.371094 9.449219 8.371094 9.628906 Z M 8.371094 9.628906 "/>
<path fill-rule="nonzero" fill="rgb(100%, 100%, 0%)" fill-opacity="1" d="M 9.191406 9.628906 C 9.191406 9.808594 9.054688 9.957031 8.882812 9.957031 C 8.714844 9.957031 8.574219 9.808594 8.574219 9.628906 C 8.574219 9.449219 8.714844 9.300781 8.882812 9.300781 C 9.054688 9.300781 9.191406 9.449219 9.191406 9.628906 Z M 9.191406 9.628906 "/>
<path fill-rule="nonzero" fill="rgb(100%, 100%, 0%)" fill-opacity="1" d="M 9.851562 9.628906 C 9.851562 9.808594 9.714844 9.957031 9.542969 9.957031 C 9.371094 9.957031 9.234375 9.808594 9.234375 9.628906 C 9.234375 9.449219 9.371094 9.300781 9.542969 9.300781 C 9.714844 9.300781 9.851562 9.449219 9.851562 9.628906 Z M 9.851562 9.628906 "/>
<path fill-rule="nonzero" fill="rgb(100%, 100%, 0%)" fill-opacity="1" d="M 10.347656 9.628906 C 10.347656 9.808594 10.207031 9.957031 10.039062 9.957031 C 9.867188 9.957031 9.730469 9.808594 9.730469 9.628906 C 9.730469 9.449219 9.867188 9.300781 10.039062 9.300781 C 10.207031 9.300781 10.347656 9.449219 10.347656 9.628906 Z M 10.347656 9.628906 "/>
<path fill-rule="nonzero" fill="rgb(100%, 100%, 0%)" fill-opacity="1" d="M 10.347656 10.371094 C 10.347656 10.550781 10.207031 10.695312 10.039062 10.695312 C 9.867188 10.695312 9.730469 10.550781 9.730469 10.371094 C 9.730469 10.1875 9.867188 10.042969 10.039062 10.042969 C 10.207031 10.042969 10.347656 10.1875 10.347656 10.371094 Z M 10.347656 10.371094 "/>
<path fill-rule="nonzero" fill="rgb(100%, 100%, 0%)" fill-opacity="1" d="M 10.347656 11.109375 C 10.347656 11.292969 10.207031 11.4375 10.039062 11.4375 C 9.867188 11.4375 9.730469 11.292969 9.730469 11.109375 C 9.730469 10.929688 9.867188 10.785156 10.039062 10.785156 C 10.207031 10.785156 10.347656 10.929688 10.347656 11.109375 Z M 10.347656 11.109375 "/>
<path fill-rule="nonzero" fill="rgb(100%, 100%, 0%)" fill-opacity="1" d="M 10.347656 11.851562 C 10.347656 12.03125 10.207031 12.179688 10.039062 12.179688 C 9.867188 12.179688 9.730469 12.03125 9.730469 11.851562 C 9.730469 11.671875 9.867188 11.523438 10.039062 11.523438 C 10.207031 11.523438 10.347656 11.671875 10.347656 11.851562 Z M 10.347656 11.851562 "/>
<path fill-rule="nonzero" fill="rgb(100%, 100%, 0%)" fill-opacity="1" d="M 10.347656 12.511719 C 10.347656 12.691406 10.207031 12.835938 10.039062 12.835938 C 9.867188 12.835938 9.730469 12.691406 9.730469 12.511719 C 9.730469 12.328125 9.867188 12.183594 10.039062 12.183594 C 10.207031 12.183594 10.347656 12.328125 10.347656 12.511719 Z M 10.347656 12.511719 "/>
<path fill-rule="nonzero" fill="rgb(100%, 100%, 0%)" fill-opacity="1" d="M 10.347656 13.25 C 10.347656 13.433594 10.207031 13.578125 10.039062 13.578125 C 9.867188 13.578125 9.730469 13.433594 9.730469 13.25 C 9.730469 13.070312 9.867188 12.925781 10.039062 12.925781 C 10.207031 12.925781 10.347656 13.070312 10.347656 13.25 Z M 10.347656 13.25 "/>
<path fill-rule="nonzero" fill="rgb(100%, 100%, 0%)" fill-opacity="1" d="M 9.851562 13.25 C 9.851562 13.433594 9.714844 13.578125 9.542969 13.578125 C 9.371094 13.578125 9.234375 13.433594 9.234375 13.25 C 9.234375 13.070312 9.371094 12.925781 9.542969 12.925781 C 9.714844 12.925781 9.851562 13.070312 9.851562 13.25 Z M 9.851562 13.25 "/>
<path fill-rule="nonzero" fill="rgb(100%, 100%, 0%)" fill-opacity="1" d="M 9.851562 12.59375 C 9.851562 12.773438 9.714844 12.917969 9.542969 12.917969 C 9.371094 12.917969 9.234375 12.773438 9.234375 12.59375 C 9.234375 12.414062 9.371094 12.265625 9.542969 12.265625 C 9.714844 12.265625 9.851562 12.414062 9.851562 12.59375 Z M 9.851562 12.59375 "/>
<path fill-rule="nonzero" fill="rgb(100%, 100%, 0%)" fill-opacity="1" d="M 9.851562 11.851562 C 9.851562 12.03125 9.714844 12.179688 9.542969 12.179688 C 9.371094 12.179688 9.234375 12.03125 9.234375 11.851562 C 9.234375 11.671875 9.371094 11.523438 9.542969 11.523438 C 9.714844 11.523438 9.851562 11.671875 9.851562 11.851562 Z M 9.851562 11.851562 "/>
<path fill-rule="nonzero" fill="rgb(100%, 100%, 0%)" fill-opacity="1" d="M 9.851562 11.109375 C 9.851562 11.292969 9.714844 11.4375 9.542969 11.4375 C 9.371094 11.4375 9.234375 11.292969 9.234375 11.109375 C 9.234375 10.929688 9.371094 10.785156 9.542969 10.785156 C 9.714844 10.785156 9.851562 10.929688 9.851562 11.109375 Z M 9.851562 11.109375 "/>
<path fill-rule="nonzero" fill="rgb(100%, 100%, 0%)" fill-opacity="1" d="M 9.851562 10.371094 C 9.851562 10.550781 9.714844 10.695312 9.542969 10.695312 C 9.371094 10.695312 9.234375 10.550781 9.234375 10.371094 C 9.234375 10.1875 9.371094 10.042969 9.542969 10.042969 C 9.714844 10.042969 9.851562 10.1875 9.851562 10.371094 Z M 9.851562 10.371094 "/>
<path fill-rule="nonzero" fill="rgb(100%, 100%, 0%)" fill-opacity="1" d="M 11.0625 9.617188 C 11.0625 9.800781 10.921875 9.945312 10.753906 9.945312 C 10.582031 9.945312 10.445312 9.800781 10.445312 9.617188 C 10.445312 9.4375 10.582031 9.292969 10.753906 9.292969 C 10.921875 9.292969 11.0625 9.4375 11.0625 9.617188 Z M 11.0625 9.617188 "/>
</svg>
