<?xml version="1.0" encoding="UTF-8"?>
<svg xmlns="http://www.w3.org/2000/svg" xmlns:xlink="http://www.w3.org/1999/xlink" width="15" height="15" viewBox="0 0 15 15">
<path fill-rule="nonzero" fill="rgb(0%, 0%, 0%)" fill-opacity="1" stroke-width="10" stroke-linecap="butt" stroke-linejoin="miter" stroke="rgb(100%, 100%, 100%)" stroke-opacity="1" stroke-miterlimit="4" d="M 5.013021 5.013021 L 5.013021 148.986979 L 148.986979 148.986979 L 148.986979 5.013021 Z M 5.013021 5.013021 " transform="matrix(0.0974026, 0, 0, 0.0974026, 0, 0)"/>
<path fill-rule="nonzero" fill="rgb(100%, 100%, 100%)" fill-opacity="1" d="M 4.285156 3.769531 L 4.285156 2.597656 L 10.714844 2.597656 L 10.714844 3.546875 C 10.082031 4.21875 9.457031 5.113281 8.835938 6.230469 C 8.214844 7.34375 7.734375 8.492188 7.394531 9.671875 C 7.152344 10.503906 6.996094 11.414062 6.925781 12.402344 L 5.671875 12.402344 C 5.6875 11.621094 5.839844 10.675781 6.132812 9.570312 C 6.429688 8.464844 6.847656 7.394531 7.398438 6.367188 C 7.949219 5.339844 8.53125 4.472656 9.152344 3.769531 Z M 4.285156 3.769531 "/>
</svg>
