<?xml version="1.0" encoding="UTF-8"?>
<svg xmlns="http://www.w3.org/2000/svg" xmlns:xlink="http://www.w3.org/1999/xlink" width="15" height="15" viewBox="0 0 15 15">
<path fill-rule="nonzero" fill="rgb(0%, 0%, 0%)" fill-opacity="1" stroke-width="10" stroke-linecap="butt" stroke-linejoin="miter" stroke="rgb(100%, 100%, 100%)" stroke-opacity="1" stroke-miterlimit="4" d="M 5.013021 5.013021 L 5.013021 148.986979 L 148.986979 148.986979 L 148.986979 5.013021 Z M 5.013021 5.013021 " transform="matrix(0.0974026, 0, 0, 0.0974026, 0, 0)"/>
<path fill-rule="nonzero" fill="rgb(100%, 100%, 100%)" fill-opacity="1" d="M 6.160156 7.03125 C 5.671875 6.851562 5.308594 6.597656 5.074219 6.261719 C 4.835938 5.929688 4.71875 5.53125 4.71875 5.070312 C 4.71875 4.371094 4.96875 3.78125 5.472656 3.304688 C 5.976562 2.828125 6.644531 2.589844 7.480469 2.589844 C 8.320312 2.589844 8.996094 2.832031 9.507812 3.320312 C 10.019531 3.808594 10.273438 4.402344 10.273438 5.101562 C 10.273438 5.546875 10.15625 5.9375 9.925781 6.265625 C 9.691406 6.597656 9.335938 6.851562 8.859375 7.03125 C 9.449219 7.222656 9.898438 7.535156 10.207031 7.960938 C 10.515625 8.390625 10.667969 8.902344 10.667969 9.496094 C 10.667969 10.320312 10.378906 11.011719 9.796875 11.570312 C 9.214844 12.128906 8.449219 12.410156 7.5 12.410156 C 6.550781 12.410156 5.785156 12.128906 5.203125 11.566406 C 4.621094 11.003906 4.332031 10.304688 4.332031 9.464844 C 4.332031 8.839844 4.488281 8.316406 4.808594 7.894531 C 5.125 7.472656 5.574219 7.183594 6.160156 7.03125 Z M 5.546875 9.472656 C 5.546875 9.808594 5.625 10.132812 5.785156 10.449219 C 5.945312 10.765625 6.179688 11.007812 6.496094 11.179688 C 6.8125 11.351562 7.148438 11.441406 7.511719 11.441406 C 8.078125 11.441406 8.542969 11.257812 8.910156 10.894531 C 9.277344 10.53125 9.460938 10.070312 9.460938 9.511719 C 9.460938 8.941406 9.273438 8.472656 8.894531 8.101562 C 8.515625 7.730469 8.042969 7.542969 7.472656 7.542969 C 6.917969 7.542969 6.457031 7.726562 6.09375 8.09375 C 5.726562 8.460938 5.546875 8.921875 5.546875 9.472656 Z M 5.925781 5.03125 C 5.925781 5.484375 6.070312 5.855469 6.363281 6.144531 C 6.65625 6.433594 7.039062 6.578125 7.507812 6.578125 C 7.960938 6.578125 8.335938 6.433594 8.625 6.148438 C 8.914062 5.863281 9.0625 5.511719 9.0625 5.09375 C 9.0625 4.664062 8.910156 4.296875 8.613281 4.003906 C 8.3125 3.707031 7.941406 3.558594 7.492188 3.558594 C 7.042969 3.558594 6.667969 3.703125 6.371094 3.992188 C 6.074219 4.28125 5.925781 4.628906 5.925781 5.03125 Z M 5.925781 5.03125 "/>
</svg>
