<?xml version="1.0" encoding="UTF-8"?>
<svg xmlns="http://www.w3.org/2000/svg" xmlns:xlink="http://www.w3.org/1999/xlink" width="15" height="15" viewBox="0 0 15 15">
<path fill-rule="nonzero" fill="rgb(0%, 0%, 0%)" fill-opacity="1" stroke-width="10" stroke-linecap="butt" stroke-linejoin="miter" stroke="rgb(100%, 100%, 100%)" stroke-opacity="1" stroke-miterlimit="4" d="M 5.013021 5.013021 L 5.013021 148.986979 L 148.986979 148.986979 L 148.986979 5.013021 Z M 5.013021 5.013021 " transform="matrix(0.0974026, 0, 0, 0.0974026, 0, 0)"/>
<path fill-rule="nonzero" fill="rgb(100%, 100%, 100%)" fill-opacity="1" d="M 4.253906 9.679688 L 5.515625 9.574219 C 5.609375 10.1875 5.828125 10.648438 6.167969 10.957031 C 6.507812 11.269531 6.917969 11.421875 7.398438 11.421875 C 7.976562 11.421875 8.46875 11.203125 8.867188 10.769531 C 9.269531 10.332031 9.46875 9.753906 9.46875 9.03125 C 9.46875 8.347656 9.277344 7.804688 8.890625 7.410156 C 8.507812 7.015625 8.003906 6.816406 7.378906 6.816406 C 6.992188 6.816406 6.644531 6.902344 6.332031 7.078125 C 6.019531 7.253906 5.773438 7.484375 5.597656 7.765625 L 4.46875 7.617188 L 5.417969 2.589844 L 10.285156 2.589844 L 10.285156 3.738281 L 6.378906 3.738281 L 5.851562 6.367188 C 6.4375 5.957031 7.054688 5.753906 7.699219 5.753906 C 8.554688 5.753906 9.277344 6.050781 9.863281 6.640625 C 10.449219 7.234375 10.746094 7.996094 10.746094 8.925781 C 10.746094 9.8125 10.488281 10.578125 9.96875 11.222656 C 9.34375 12.015625 8.484375 12.410156 7.398438 12.410156 C 6.507812 12.410156 5.78125 12.160156 5.21875 11.664062 C 4.65625 11.164062 4.335938 10.503906 4.253906 9.679688 Z M 4.253906 9.679688 "/>
</svg>
