<?xml version="1.0" encoding="UTF-8"?>
<svg xmlns="http://www.w3.org/2000/svg" xmlns:xlink="http://www.w3.org/1999/xlink" width="15" height="15" viewBox="0 0 15 15">
<path fill-rule="nonzero" fill="rgb(100%, 100%, 100%)" fill-opacity="1" stroke-width="10" stroke-linecap="butt" stroke-linejoin="miter" stroke="rgb(100%, 0%, 0%)" stroke-opacity="1" stroke-miterlimit="4" d="M 5.013021 5.013021 L 5.013021 148.986979 L 148.986979 148.986979 L 148.986979 5.013021 Z M 5.013021 5.013021 " transform="matrix(0.0974026, 0, 0, 0.0974026, 0, 0)"/>
<path fill-rule="nonzero" fill="rgb(100%, 0%, 0%)" fill-opacity="1" d="M 3.726562 2.945312 C 4.136719 2.53125 4.632812 2.324219 5.210938 2.324219 C 5.792969 2.324219 6.289062 2.53125 6.699219 2.945312 C 7.109375 3.359375 7.3125 3.851562 7.3125 4.433594 L 7.3125 5.304688 C 7.3125 5.847656 7.136719 6.3125 6.78125 6.699219 C 7.136719 7.101562 7.3125 7.570312 7.3125 8.105469 L 7.3125 10.042969 C 7.3125 10.621094 7.109375 11.117188 6.699219 11.527344 C 6.289062 11.9375 5.792969 12.144531 5.210938 12.144531 C 4.632812 12.144531 4.136719 11.9375 3.726562 11.527344 C 3.316406 11.117188 3.109375 10.621094 3.109375 10.042969 L 3.109375 8.105469 C 3.109375 7.570312 3.285156 7.101562 3.636719 6.699219 C 3.28125 6.308594 3.105469 5.839844 3.109375 5.304688 L 3.109375 4.433594 C 3.109375 3.851562 3.316406 3.359375 3.726562 2.945312 M 5.703125 3.933594 C 5.574219 3.796875 5.410156 3.726562 5.210938 3.726562 C 5.015625 3.726562 4.847656 3.796875 4.710938 3.933594 C 4.574219 4.070312 4.507812 4.238281 4.507812 4.433594 L 4.507812 5.304688 C 4.507812 5.507812 4.574219 5.675781 4.710938 5.808594 C 4.847656 5.9375 5.015625 6 5.210938 6 C 5.410156 6 5.574219 5.9375 5.703125 5.808594 C 5.84375 5.675781 5.910156 5.507812 5.910156 5.304688 L 5.910156 4.433594 C 5.910156 4.238281 5.84375 4.070312 5.703125 3.933594 M 5.703125 7.609375 C 5.574219 7.472656 5.410156 7.40625 5.210938 7.40625 C 5.015625 7.40625 4.847656 7.472656 4.710938 7.609375 C 4.574219 7.742188 4.507812 7.90625 4.507812 8.105469 L 4.507812 10.042969 C 4.507812 10.238281 4.574219 10.40625 4.710938 10.542969 C 4.847656 10.675781 5.015625 10.742188 5.210938 10.742188 C 5.410156 10.742188 5.574219 10.675781 5.703125 10.542969 C 5.84375 10.40625 5.910156 10.238281 5.910156 10.042969 L 5.910156 8.105469 C 5.910156 7.90625 5.84375 7.742188 5.703125 7.609375 "/>
<path fill-rule="nonzero" fill="rgb(100%, 0%, 0%)" fill-opacity="1" d="M 9.910156 2.324219 L 11.859375 2.324219 L 11.859375 3.027344 L 10.609375 3.027344 L 10.609375 4.140625 C 10.722656 4.101562 10.839844 4.078125 10.960938 4.078125 C 11.25 4.078125 11.5 4.179688 11.703125 4.390625 C 11.910156 4.59375 12.011719 4.84375 12.011719 5.132812 L 12.011719 6.183594 C 12.011719 6.472656 11.910156 6.71875 11.703125 6.925781 C 11.5 7.132812 11.25 7.234375 10.960938 7.234375 C 10.671875 7.234375 10.425781 7.132812 10.21875 6.925781 C 10.011719 6.71875 9.910156 6.472656 9.910156 6.183594 L 9.910156 5.832031 L 10.609375 5.832031 L 10.609375 6.183594 C 10.609375 6.28125 10.644531 6.363281 10.710938 6.433594 C 10.78125 6.5 10.863281 6.53125 10.960938 6.53125 C 11.058594 6.53125 11.140625 6.5 11.207031 6.433594 C 11.277344 6.363281 11.3125 6.28125 11.3125 6.183594 L 11.3125 5.132812 C 11.3125 5.035156 11.277344 4.949219 11.207031 4.882812 C 11.140625 4.8125 11.058594 4.777344 10.960938 4.777344 C 10.863281 4.777344 10.78125 4.8125 10.710938 4.882812 C 10.644531 4.949219 10.609375 5.035156 10.609375 5.132812 L 9.910156 5.132812 L 9.910156 2.324219 "/>
<path fill-rule="nonzero" fill="rgb(100%, 0%, 0%)" fill-opacity="1" d="M 7.863281 2.324219 L 8.839844 2.324219 L 8.839844 3.300781 L 7.863281 3.300781 L 7.863281 2.324219 "/>
</svg>
