<?xml version="1.0" encoding="UTF-8"?>
<svg xmlns="http://www.w3.org/2000/svg" xmlns:xlink="http://www.w3.org/1999/xlink" width="21.83374" height="19" viewBox="0 0 21.83374 19">
<path fill-rule="nonzero" fill="rgb(95.294118%, 57.254905%, 0%)" fill-opacity="1" d="M 21.835938 0 L 10.914062 19 L 0 0 Z M 21.835938 0 "/>
<path fill-rule="nonzero" fill="rgb(0%, 0%, 0%)" fill-opacity="1" d="M 20.535156 0.792969 L 10.984375 17.328125 L 1.441406 0.792969 Z M 20.535156 0.792969 "/>
<path fill-rule="nonzero" fill="rgb(0%, 0%, 0%)" fill-opacity="1" d="M 10.984375 17.371094 L 10.964844 17.335938 L 1.398438 0.765625 L 20.574219 0.765625 L 20.554688 0.800781 Z M 1.480469 0.8125 L 10.984375 17.28125 L 20.496094 0.8125 Z M 1.480469 0.8125 "/>
<path fill-rule="nonzero" fill="rgb(95.294118%, 57.254905%, 0%)" fill-opacity="1" d="M 9.535156 6.75 C 9.011719 6.554688 8.625 6.285156 8.371094 5.925781 C 8.113281 5.570312 7.992188 5.144531 7.992188 4.644531 C 7.992188 3.898438 8.257812 3.265625 8.796875 2.757812 C 9.335938 2.246094 10.054688 1.988281 10.949219 1.988281 C 11.851562 1.988281 12.574219 2.25 13.121094 2.777344 C 13.671875 3.296875 13.949219 3.933594 13.949219 4.6875 C 13.949219 5.160156 13.820312 5.578125 13.566406 5.933594 C 13.320312 6.285156 12.9375 6.554688 12.429688 6.75 C 13.058594 6.957031 13.542969 7.289062 13.875 7.75 C 14.199219 8.207031 14.367188 8.757812 14.367188 9.394531 C 14.367188 10.277344 14.058594 11.015625 13.433594 11.617188 C 12.808594 12.214844 11.988281 12.519531 10.96875 12.519531 C 9.957031 12.519531 9.132812 12.214844 8.511719 11.613281 C 7.886719 11.007812 7.574219 10.257812 7.574219 9.363281 C 7.574219 8.6875 7.742188 8.128906 8.085938 7.675781 C 8.425781 7.222656 8.90625 6.917969 9.535156 6.75 Z M 8.875 9.367188 C 8.875 9.726562 8.960938 10.078125 9.132812 10.414062 C 9.300781 10.75 9.558594 11.015625 9.894531 11.195312 C 10.230469 11.386719 10.597656 11.472656 10.984375 11.472656 C 11.589844 11.472656 12.085938 11.28125 12.484375 10.890625 C 12.878906 10.503906 13.074219 10.007812 13.074219 9.410156 C 13.074219 8.796875 12.871094 8.296875 12.464844 7.898438 C 12.058594 7.496094 11.554688 7.296875 10.945312 7.296875 C 10.347656 7.296875 9.855469 7.496094 9.464844 7.890625 C 9.070312 8.28125 8.875 8.777344 8.875 9.367188 Z M 9.28125 4.605469 C 9.28125 5.089844 9.441406 5.492188 9.757812 5.800781 C 10.070312 6.109375 10.476562 6.265625 10.980469 6.265625 C 11.464844 6.265625 11.863281 6.109375 12.175781 5.804688 C 12.488281 5.496094 12.648438 5.121094 12.648438 4.675781 C 12.648438 4.210938 12.484375 3.820312 12.160156 3.503906 C 11.839844 3.191406 11.445312 3.03125 10.964844 3.03125 C 10.480469 3.03125 10.078125 3.1875 9.761719 3.492188 C 9.441406 3.804688 9.28125 4.175781 9.28125 4.605469 Z M 9.28125 4.605469 "/>
</svg>
