<?xml version="1.0" encoding="UTF-8"?>
<svg xmlns="http://www.w3.org/2000/svg" xmlns:xlink="http://www.w3.org/1999/xlink" width="15" height="15" viewBox="0 0 15 15">
<path fill-rule="nonzero" fill="rgb(0%, 0%, 0%)" fill-opacity="1" stroke-width="10" stroke-linecap="butt" stroke-linejoin="miter" stroke="rgb(100%, 100%, 100%)" stroke-opacity="1" stroke-miterlimit="4" d="M 5.013021 5.013021 L 5.013021 148.986979 L 148.986979 148.986979 L 148.986979 5.013021 Z M 5.013021 5.013021 " transform="matrix(0.0974026, 0, 0, 0.0974026, 0, 0)"/>
<path fill-rule="nonzero" fill="rgb(100%, 100%, 100%)" fill-opacity="1" d="M 10.503906 4.984375 L 9.332031 5.074219 C 9.226562 4.613281 9.078125 4.277344 8.882812 4.066406 C 8.566406 3.730469 8.171875 3.558594 7.703125 3.558594 C 7.328125 3.558594 6.996094 3.664062 6.710938 3.875 C 6.339844 4.148438 6.046875 4.542969 5.832031 5.0625 C 5.621094 5.582031 5.507812 6.324219 5.5 7.285156 C 5.785156 6.855469 6.132812 6.53125 6.542969 6.324219 C 6.953125 6.113281 7.382812 6.007812 7.835938 6.007812 C 8.621094 6.007812 9.292969 6.296875 9.84375 6.875 C 10.398438 7.457031 10.675781 8.207031 10.675781 9.125 C 10.675781 9.726562 10.546875 10.289062 10.285156 10.804688 C 10.023438 11.324219 9.667969 11.722656 9.210938 11.996094 C 8.757812 12.273438 8.242188 12.410156 7.664062 12.410156 C 6.679688 12.410156 5.878906 12.046875 5.257812 11.324219 C 4.636719 10.601562 4.324219 9.40625 4.324219 7.746094 C 4.324219 5.886719 4.667969 4.535156 5.355469 3.691406 C 5.953125 2.957031 6.761719 2.589844 7.777344 2.589844 C 8.53125 2.589844 9.152344 2.800781 9.636719 3.226562 C 10.117188 3.648438 10.410156 4.234375 10.503906 4.984375 Z M 5.683594 9.128906 C 5.683594 9.535156 5.769531 9.925781 5.941406 10.296875 C 6.113281 10.667969 6.355469 10.953125 6.667969 11.148438 C 6.976562 11.34375 7.304688 11.441406 7.644531 11.441406 C 8.144531 11.441406 8.570312 11.238281 8.929688 10.835938 C 9.289062 10.433594 9.46875 9.886719 9.46875 9.195312 C 9.46875 8.53125 9.289062 8.007812 8.9375 7.625 C 8.582031 7.242188 8.136719 7.050781 7.597656 7.050781 C 7.066406 7.050781 6.613281 7.242188 6.242188 7.625 C 5.867188 8.007812 5.683594 8.507812 5.683594 9.128906 Z M 5.683594 9.128906 "/>
</svg>
