<?xml version="1.0" encoding="UTF-8"?>
<svg xmlns="http://www.w3.org/2000/svg" xmlns:xlink="http://www.w3.org/1999/xlink" width="14.244597" height="14" viewBox="0 0 14.244597 14">
<path fill-rule="nonzero" fill="rgb(0%, 0%, 0%)" fill-opacity="1" stroke-width="1.011478" stroke-linecap="butt" stroke-linejoin="miter" stroke="rgb(0%, 0%, 0%)" stroke-opacity="1" stroke-miterlimit="4" d="M 1716.581512 1909.966606 L 1370.084395 1909.966606 L 1370.084395 1570.895652 L 1715.152068 1570.895652 Z M 1716.581512 1909.966606 " transform="matrix(0.0409906, 0, 0, 0.0411741, -56.141051, -64.660666)"/>
<path fill-rule="nonzero" fill="rgb(100%, 100%, 100%)" fill-opacity="1" d="M 3.320312 2.273438 C 3.320312 2.09375 3.457031 1.949219 3.625 1.949219 C 3.789062 1.949219 3.925781 2.09375 3.925781 2.273438 C 3.925781 2.449219 3.789062 2.59375 3.625 2.59375 C 3.457031 2.59375 3.320312 2.449219 3.320312 2.273438 Z M 3.320312 2.273438 "/>
<path fill-rule="nonzero" fill="rgb(100%, 100%, 100%)" fill-opacity="1" d="M 3.5625 2.597656 C 3.5625 2.417969 3.699219 2.273438 3.867188 2.273438 C 4.03125 2.273438 4.171875 2.417969 4.171875 2.597656 C 4.171875 2.777344 4.03125 2.917969 3.867188 2.917969 C 3.699219 2.917969 3.5625 2.777344 3.5625 2.597656 Z M 3.5625 2.597656 "/>
<path fill-rule="nonzero" fill="rgb(100%, 100%, 100%)" fill-opacity="1" d="M 4.050781 2.027344 C 4.050781 1.851562 4.1875 1.707031 4.355469 1.707031 C 4.523438 1.707031 4.660156 1.851562 4.660156 2.027344 C 4.660156 2.207031 4.523438 2.351562 4.355469 2.351562 C 4.1875 2.351562 4.050781 2.207031 4.050781 2.027344 Z M 4.050781 2.027344 "/>
<path fill-rule="nonzero" fill="rgb(100%, 100%, 100%)" fill-opacity="1" d="M 4.699219 1.621094 C 4.699219 1.445312 4.835938 1.300781 5.003906 1.300781 C 5.171875 1.300781 5.308594 1.445312 5.308594 1.621094 C 5.308594 1.800781 5.171875 1.945312 5.003906 1.945312 C 4.835938 1.945312 4.699219 1.800781 4.699219 1.621094 Z M 4.699219 1.621094 "/>
<path fill-rule="nonzero" fill="rgb(100%, 100%, 100%)" fill-opacity="1" d="M 4.539062 1.214844 C 4.539062 1.039062 4.675781 0.894531 4.84375 0.894531 C 5.011719 0.894531 5.148438 1.039062 5.148438 1.214844 C 5.148438 1.394531 5.011719 1.539062 4.84375 1.539062 C 4.675781 1.539062 4.539062 1.394531 4.539062 1.214844 Z M 4.539062 1.214844 "/>
<path fill-rule="nonzero" fill="rgb(100%, 100%, 100%)" fill-opacity="1" d="M 3.886719 1.703125 C 3.886719 1.527344 4.023438 1.382812 4.191406 1.382812 C 4.359375 1.382812 4.496094 1.527344 4.496094 1.703125 C 4.496094 1.882812 4.359375 2.027344 4.191406 2.027344 C 4.023438 2.027344 3.886719 1.882812 3.886719 1.703125 Z M 3.886719 1.703125 "/>
<path fill-rule="nonzero" fill="rgb(100%, 100%, 100%)" fill-opacity="1" d="M 5.429688 1.296875 C 5.429688 1.121094 5.5625 0.976562 5.730469 0.976562 C 5.902344 0.976562 6.039062 1.121094 6.039062 1.296875 C 6.039062 1.476562 5.902344 1.621094 5.730469 1.621094 C 5.5625 1.621094 5.429688 1.476562 5.429688 1.296875 Z M 5.429688 1.296875 "/>
<path fill-rule="nonzero" fill="rgb(100%, 100%, 100%)" fill-opacity="1" d="M 5.265625 0.890625 C 5.265625 0.714844 5.402344 0.570312 5.574219 0.570312 C 5.742188 0.570312 5.878906 0.714844 5.878906 0.890625 C 5.878906 1.070312 5.742188 1.214844 5.574219 1.214844 C 5.402344 1.214844 5.265625 1.070312 5.265625 0.890625 Z M 5.265625 0.890625 "/>
<path fill-rule="nonzero" fill="rgb(100%, 100%, 100%)" fill-opacity="1" d="M 6.082031 0.648438 C 6.082031 0.46875 6.21875 0.324219 6.382812 0.324219 C 6.550781 0.324219 6.6875 0.46875 6.6875 0.648438 C 6.6875 0.828125 6.550781 0.96875 6.382812 0.96875 C 6.21875 0.96875 6.082031 0.828125 6.082031 0.648438 Z M 6.082031 0.648438 "/>
<path fill-rule="nonzero" fill="rgb(100%, 100%, 100%)" fill-opacity="1" d="M 6.164062 1.054688 C 6.164062 0.875 6.296875 0.730469 6.464844 0.730469 C 6.632812 0.730469 6.765625 0.875 6.765625 1.054688 C 6.765625 1.230469 6.632812 1.375 6.464844 1.375 C 6.296875 1.375 6.164062 1.230469 6.164062 1.054688 Z M 6.164062 1.054688 "/>
<path fill-rule="nonzero" fill="rgb(100%, 100%, 100%)" fill-opacity="1" d="M 6.894531 0.972656 C 6.894531 0.796875 7.03125 0.652344 7.199219 0.652344 C 7.367188 0.652344 7.503906 0.796875 7.503906 0.972656 C 7.503906 1.152344 7.367188 1.296875 7.199219 1.296875 C 7.03125 1.296875 6.894531 1.152344 6.894531 0.972656 Z M 6.894531 0.972656 "/>
<path fill-rule="nonzero" fill="rgb(100%, 100%, 100%)" fill-opacity="1" d="M 6.894531 0.566406 C 6.894531 0.390625 7.03125 0.246094 7.199219 0.246094 C 7.367188 0.246094 7.503906 0.390625 7.503906 0.566406 C 7.503906 0.746094 7.367188 0.890625 7.199219 0.890625 C 7.03125 0.890625 6.894531 0.746094 6.894531 0.566406 Z M 6.894531 0.566406 "/>
<path fill-rule="nonzero" fill="rgb(100%, 100%, 100%)" fill-opacity="1" d="M 7.78125 0.730469 C 7.78125 0.550781 7.917969 0.40625 8.089844 0.40625 C 8.257812 0.40625 8.394531 0.550781 8.394531 0.730469 C 8.394531 0.90625 8.257812 1.050781 8.089844 1.050781 C 7.917969 1.050781 7.78125 0.90625 7.78125 0.730469 Z M 7.78125 0.730469 "/>
<path fill-rule="nonzero" fill="rgb(100%, 100%, 100%)" fill-opacity="1" d="M 7.625 1.136719 C 7.625 0.957031 7.761719 0.8125 7.929688 0.8125 C 8.097656 0.8125 8.234375 0.957031 8.234375 1.136719 C 8.234375 1.3125 8.097656 1.457031 7.929688 1.457031 C 7.761719 1.457031 7.625 1.3125 7.625 1.136719 Z M 7.625 1.136719 "/>
<path fill-rule="nonzero" fill="rgb(100%, 100%, 100%)" fill-opacity="1" d="M 8.597656 1.136719 C 8.597656 0.957031 8.734375 0.8125 8.898438 0.8125 C 9.066406 0.8125 9.203125 0.957031 9.203125 1.136719 C 9.203125 1.3125 9.066406 1.457031 8.898438 1.457031 C 8.734375 1.457031 8.597656 1.3125 8.597656 1.136719 Z M 8.597656 1.136719 "/>
<path fill-rule="nonzero" fill="rgb(100%, 100%, 100%)" fill-opacity="1" d="M 8.273438 1.460938 C 8.273438 1.28125 8.40625 1.136719 8.574219 1.136719 C 8.746094 1.136719 8.882812 1.28125 8.882812 1.460938 C 8.882812 1.636719 8.746094 1.78125 8.574219 1.78125 C 8.40625 1.78125 8.273438 1.636719 8.273438 1.460938 Z M 8.273438 1.460938 "/>
<path fill-rule="nonzero" fill="rgb(100%, 100%, 100%)" fill-opacity="1" d="M 9.25 1.621094 C 9.25 1.445312 9.386719 1.300781 9.554688 1.300781 C 9.71875 1.300781 9.855469 1.445312 9.855469 1.621094 C 9.855469 1.800781 9.71875 1.945312 9.554688 1.945312 C 9.386719 1.945312 9.25 1.800781 9.25 1.621094 Z M 9.25 1.621094 "/>
<path fill-rule="nonzero" fill="rgb(100%, 100%, 100%)" fill-opacity="1" d="M 8.84375 1.949219 C 8.84375 1.769531 8.980469 1.625 9.148438 1.625 C 9.3125 1.625 9.449219 1.769531 9.449219 1.949219 C 9.449219 2.125 9.3125 2.269531 9.148438 2.269531 C 8.980469 2.269531 8.84375 2.125 8.84375 1.949219 Z M 8.84375 1.949219 "/>
<path fill-rule="nonzero" fill="rgb(100%, 100%, 100%)" fill-opacity="1" d="M 9.734375 2.273438 C 9.734375 2.09375 9.871094 1.949219 10.039062 1.949219 C 10.207031 1.949219 10.34375 2.09375 10.34375 2.273438 C 10.34375 2.449219 10.207031 2.59375 10.039062 2.59375 C 9.871094 2.59375 9.734375 2.449219 9.734375 2.273438 Z M 9.734375 2.273438 "/>
<path fill-rule="nonzero" fill="rgb(100%, 100%, 100%)" fill-opacity="1" d="M 9.328125 2.515625 C 9.328125 2.339844 9.464844 2.195312 9.632812 2.195312 C 9.800781 2.195312 9.9375 2.339844 9.9375 2.515625 C 9.9375 2.695312 9.800781 2.839844 9.632812 2.839844 C 9.464844 2.839844 9.328125 2.695312 9.328125 2.515625 Z M 9.328125 2.515625 "/>
<path fill-rule="nonzero" fill="rgb(100%, 100%, 100%)" fill-opacity="1" d="M 10.140625 3.085938 C 10.140625 2.90625 10.277344 2.761719 10.445312 2.761719 C 10.613281 2.761719 10.75 2.90625 10.75 3.085938 C 10.75 3.261719 10.613281 3.40625 10.445312 3.40625 C 10.277344 3.40625 10.140625 3.261719 10.140625 3.085938 Z M 10.140625 3.085938 "/>
<path fill-rule="nonzero" fill="rgb(100%, 100%, 100%)" fill-opacity="1" d="M 9.734375 3.246094 C 9.734375 3.070312 9.871094 2.925781 10.039062 2.925781 C 10.207031 2.925781 10.34375 3.070312 10.34375 3.246094 C 10.34375 3.425781 10.207031 3.570312 10.039062 3.570312 C 9.871094 3.570312 9.734375 3.425781 9.734375 3.246094 Z M 9.734375 3.246094 "/>
<path fill-rule="nonzero" fill="rgb(100%, 100%, 100%)" fill-opacity="1" d="M 10.304688 3.898438 C 10.304688 3.71875 10.441406 3.574219 10.609375 3.574219 C 10.777344 3.574219 10.914062 3.71875 10.914062 3.898438 C 10.914062 4.074219 10.777344 4.21875 10.609375 4.21875 C 10.441406 4.21875 10.304688 4.074219 10.304688 3.898438 Z M 10.304688 3.898438 "/>
<path fill-rule="nonzero" fill="rgb(100%, 100%, 100%)" fill-opacity="1" d="M 10.222656 4.710938 C 10.222656 4.53125 10.359375 4.386719 10.527344 4.386719 C 10.695312 4.386719 10.832031 4.53125 10.832031 4.710938 C 10.832031 4.886719 10.695312 5.03125 10.527344 5.03125 C 10.359375 5.03125 10.222656 4.886719 10.222656 4.710938 Z M 10.222656 4.710938 "/>
<path fill-rule="nonzero" fill="rgb(100%, 100%, 100%)" fill-opacity="1" d="M 9.734375 4.710938 C 9.734375 4.53125 9.871094 4.386719 10.039062 4.386719 C 10.207031 4.386719 10.34375 4.53125 10.34375 4.710938 C 10.34375 4.886719 10.207031 5.03125 10.039062 5.03125 C 9.871094 5.03125 9.734375 4.886719 9.734375 4.710938 Z M 9.734375 4.710938 "/>
<path fill-rule="nonzero" fill="rgb(100%, 100%, 100%)" fill-opacity="1" d="M 9.816406 3.898438 C 9.816406 3.71875 9.953125 3.574219 10.121094 3.574219 C 10.289062 3.574219 10.425781 3.71875 10.425781 3.898438 C 10.425781 4.074219 10.289062 4.21875 10.121094 4.21875 C 9.953125 4.21875 9.816406 4.074219 9.816406 3.898438 Z M 9.816406 3.898438 "/>
<path fill-rule="nonzero" fill="rgb(100%, 100%, 100%)" fill-opacity="1" d="M 9.980469 5.519531 C 9.980469 5.34375 10.117188 5.199219 10.285156 5.199219 C 10.453125 5.199219 10.589844 5.34375 10.589844 5.519531 C 10.589844 5.699219 10.453125 5.84375 10.285156 5.84375 C 10.117188 5.84375 9.980469 5.699219 9.980469 5.519531 Z M 9.980469 5.519531 "/>
<path fill-rule="nonzero" fill="rgb(100%, 100%, 100%)" fill-opacity="1" d="M 9.574219 5.359375 C 9.574219 5.179688 9.710938 5.035156 9.878906 5.035156 C 10.046875 5.035156 10.183594 5.179688 10.183594 5.359375 C 10.183594 5.535156 10.046875 5.679688 9.878906 5.679688 C 9.710938 5.679688 9.574219 5.535156 9.574219 5.359375 Z M 9.574219 5.359375 "/>
<path fill-rule="nonzero" fill="rgb(100%, 100%, 100%)" fill-opacity="1" d="M 9.492188 6.332031 C 9.492188 6.15625 9.628906 6.011719 9.796875 6.011719 C 9.964844 6.011719 10.101562 6.15625 10.101562 6.332031 C 10.101562 6.511719 9.964844 6.65625 9.796875 6.65625 C 9.628906 6.65625 9.492188 6.511719 9.492188 6.332031 Z M 9.492188 6.332031 "/>
<path fill-rule="nonzero" fill="rgb(100%, 100%, 100%)" fill-opacity="1" d="M 9.167969 6.089844 C 9.167969 5.910156 9.304688 5.765625 9.472656 5.765625 C 9.640625 5.765625 9.773438 5.910156 9.773438 6.089844 C 9.773438 6.269531 9.640625 6.414062 9.472656 6.414062 C 9.304688 6.414062 9.167969 6.269531 9.167969 6.089844 Z M 9.167969 6.089844 "/>
<path fill-rule="nonzero" fill="rgb(100%, 100%, 100%)" fill-opacity="1" d="M 10.386719 13.238281 C 10.386719 13.058594 10.523438 12.914062 10.691406 12.914062 C 10.859375 12.914062 10.996094 13.058594 10.996094 13.238281 C 10.996094 13.414062 10.859375 13.558594 10.691406 13.558594 C 10.523438 13.558594 10.386719 13.414062 10.386719 13.238281 Z M 10.386719 13.238281 "/>
<path fill-rule="nonzero" fill="rgb(100%, 100%, 100%)" fill-opacity="1" d="M 9.734375 13.238281 C 9.734375 13.058594 9.871094 12.914062 10.039062 12.914062 C 10.207031 12.914062 10.34375 13.058594 10.34375 13.238281 C 10.34375 13.414062 10.207031 13.558594 10.039062 13.558594 C 9.871094 13.558594 9.734375 13.414062 9.734375 13.238281 Z M 9.734375 13.238281 "/>
<path fill-rule="nonzero" fill="rgb(100%, 100%, 100%)" fill-opacity="1" d="M 9.734375 13.238281 C 9.734375 13.058594 9.871094 12.914062 10.039062 12.914062 C 10.207031 12.914062 10.34375 13.058594 10.34375 13.238281 C 10.34375 13.414062 10.207031 13.558594 10.039062 13.558594 C 9.871094 13.558594 9.734375 13.414062 9.734375 13.238281 Z M 9.734375 13.238281 "/>
<path fill-rule="nonzero" fill="rgb(100%, 100%, 100%)" fill-opacity="1" d="M 9.078125 13.242188 C 9.078125 13.0625 9.214844 12.917969 9.382812 12.917969 C 9.550781 12.917969 9.6875 13.0625 9.6875 13.242188 C 9.6875 13.417969 9.550781 13.5625 9.382812 13.5625 C 9.214844 13.5625 9.078125 13.417969 9.078125 13.242188 Z M 9.078125 13.242188 "/>
<path fill-rule="nonzero" fill="rgb(100%, 100%, 100%)" fill-opacity="1" d="M 8.429688 13.242188 C 8.429688 13.0625 8.566406 12.917969 8.734375 12.917969 C 8.898438 12.917969 9.039062 13.0625 9.039062 13.242188 C 9.039062 13.417969 8.898438 13.5625 8.734375 13.5625 C 8.566406 13.5625 8.429688 13.417969 8.429688 13.242188 Z M 8.429688 13.242188 "/>
<path fill-rule="nonzero" fill="rgb(100%, 100%, 100%)" fill-opacity="1" d="M 8.429688 13.242188 C 8.429688 13.0625 8.566406 12.917969 8.734375 12.917969 C 8.898438 12.917969 9.039062 13.0625 9.039062 13.242188 C 9.039062 13.417969 8.898438 13.5625 8.734375 13.5625 C 8.566406 13.5625 8.429688 13.417969 8.429688 13.242188 Z M 8.429688 13.242188 "/>
<path fill-rule="nonzero" fill="rgb(100%, 100%, 100%)" fill-opacity="1" d="M 7.53125 13.242188 C 7.53125 13.0625 7.671875 12.917969 7.835938 12.917969 C 8.007812 12.917969 8.144531 13.0625 8.144531 13.242188 C 8.144531 13.417969 8.007812 13.5625 7.835938 13.5625 C 7.671875 13.5625 7.53125 13.417969 7.53125 13.242188 Z M 7.53125 13.242188 "/>
<path fill-rule="nonzero" fill="rgb(100%, 100%, 100%)" fill-opacity="1" d="M 6.886719 13.242188 C 6.886719 13.0625 7.023438 12.917969 7.191406 12.917969 C 7.359375 12.917969 7.496094 13.0625 7.496094 13.242188 C 7.496094 13.417969 7.359375 13.5625 7.191406 13.5625 C 7.023438 13.5625 6.886719 13.417969 6.886719 13.242188 Z M 6.886719 13.242188 "/>
<path fill-rule="nonzero" fill="rgb(100%, 100%, 100%)" fill-opacity="1" d="M 6.886719 13.242188 C 6.886719 13.0625 7.023438 12.917969 7.191406 12.917969 C 7.359375 12.917969 7.496094 13.0625 7.496094 13.242188 C 7.496094 13.417969 7.359375 13.5625 7.191406 13.5625 C 7.023438 13.5625 6.886719 13.417969 6.886719 13.242188 Z M 6.886719 13.242188 "/>
<path fill-rule="nonzero" fill="rgb(100%, 100%, 100%)" fill-opacity="1" d="M 6.074219 13.242188 C 6.074219 13.0625 6.210938 12.917969 6.378906 12.917969 C 6.546875 12.917969 6.683594 13.0625 6.683594 13.242188 C 6.683594 13.417969 6.546875 13.5625 6.378906 13.5625 C 6.210938 13.5625 6.074219 13.417969 6.074219 13.242188 Z M 6.074219 13.242188 "/>
<path fill-rule="nonzero" fill="rgb(100%, 100%, 100%)" fill-opacity="1" d="M 5.179688 13.242188 C 5.179688 13.0625 5.316406 12.917969 5.484375 12.917969 C 5.648438 12.917969 5.785156 13.0625 5.785156 13.242188 C 5.785156 13.417969 5.648438 13.5625 5.484375 13.5625 C 5.316406 13.5625 5.179688 13.417969 5.179688 13.242188 Z M 5.179688 13.242188 "/>
<path fill-rule="nonzero" fill="rgb(100%, 100%, 100%)" fill-opacity="1" d="M 4.527344 13.242188 C 4.527344 13.0625 4.664062 12.917969 4.835938 12.917969 C 5.003906 12.917969 5.140625 13.0625 5.140625 13.242188 C 5.140625 13.417969 5.003906 13.5625 4.835938 13.5625 C 4.664062 13.5625 4.527344 13.417969 4.527344 13.242188 Z M 4.527344 13.242188 "/>
<path fill-rule="nonzero" fill="rgb(100%, 100%, 100%)" fill-opacity="1" d="M 3.800781 13.242188 C 3.800781 13.0625 3.9375 12.917969 4.105469 12.917969 C 4.273438 12.917969 4.410156 13.0625 4.410156 13.242188 C 4.410156 13.417969 4.273438 13.5625 4.105469 13.5625 C 3.9375 13.5625 3.800781 13.417969 3.800781 13.242188 Z M 3.800781 13.242188 "/>
<path fill-rule="nonzero" fill="rgb(100%, 100%, 100%)" fill-opacity="1" d="M 3.800781 13.242188 C 3.800781 13.0625 3.9375 12.917969 4.105469 12.917969 C 4.273438 12.917969 4.410156 13.0625 4.410156 13.242188 C 4.410156 13.417969 4.273438 13.5625 4.105469 13.5625 C 3.9375 13.5625 3.800781 13.417969 3.800781 13.242188 Z M 3.800781 13.242188 "/>
<path fill-rule="nonzero" fill="rgb(100%, 100%, 100%)" fill-opacity="1" d="M 10.40625 12.757812 C 10.40625 12.582031 10.539062 12.4375 10.707031 12.4375 C 10.878906 12.4375 11.015625 12.582031 11.015625 12.757812 C 11.015625 12.9375 10.878906 13.082031 10.707031 13.082031 C 10.539062 13.082031 10.40625 12.9375 10.40625 12.757812 Z M 10.40625 12.757812 "/>
<path fill-rule="nonzero" fill="rgb(100%, 100%, 100%)" fill-opacity="1" d="M 9.757812 12.757812 C 9.757812 12.582031 9.894531 12.4375 10.0625 12.4375 C 10.230469 12.4375 10.363281 12.582031 10.363281 12.757812 C 10.363281 12.9375 10.230469 13.082031 10.0625 13.082031 C 9.894531 13.082031 9.757812 12.9375 9.757812 12.757812 Z M 9.757812 12.757812 "/>
<path fill-rule="nonzero" fill="rgb(100%, 100%, 100%)" fill-opacity="1" d="M 9.757812 12.757812 C 9.757812 12.582031 9.894531 12.4375 10.0625 12.4375 C 10.230469 12.4375 10.363281 12.582031 10.363281 12.757812 C 10.363281 12.9375 10.230469 13.082031 10.0625 13.082031 C 9.894531 13.082031 9.757812 12.9375 9.757812 12.757812 Z M 9.757812 12.757812 "/>
<path fill-rule="nonzero" fill="rgb(100%, 100%, 100%)" fill-opacity="1" d="M 9.09375 12.761719 C 9.09375 12.585938 9.230469 12.441406 9.402344 12.441406 C 9.570312 12.441406 9.707031 12.585938 9.707031 12.761719 C 9.707031 12.941406 9.570312 13.085938 9.402344 13.085938 C 9.230469 13.085938 9.09375 12.941406 9.09375 12.761719 Z M 9.09375 12.761719 "/>
<path fill-rule="nonzero" fill="rgb(100%, 100%, 100%)" fill-opacity="1" d="M 8.449219 12.761719 C 8.449219 12.585938 8.585938 12.441406 8.753906 12.441406 C 8.921875 12.441406 9.058594 12.585938 9.058594 12.761719 C 9.058594 12.941406 8.921875 13.085938 8.753906 13.085938 C 8.585938 13.085938 8.449219 12.941406 8.449219 12.761719 Z M 8.449219 12.761719 "/>
<path fill-rule="nonzero" fill="rgb(100%, 100%, 100%)" fill-opacity="1" d="M 8.449219 12.761719 C 8.449219 12.585938 8.585938 12.441406 8.753906 12.441406 C 8.921875 12.441406 9.058594 12.585938 9.058594 12.761719 C 9.058594 12.941406 8.921875 13.085938 8.753906 13.085938 C 8.585938 13.085938 8.449219 12.941406 8.449219 12.761719 Z M 8.449219 12.761719 "/>
<path fill-rule="nonzero" fill="rgb(100%, 100%, 100%)" fill-opacity="1" d="M 7.554688 12.761719 C 7.554688 12.585938 7.691406 12.441406 7.859375 12.441406 C 8.023438 12.441406 8.164062 12.585938 8.164062 12.761719 C 8.164062 12.941406 8.023438 13.085938 7.859375 13.085938 C 7.691406 13.085938 7.554688 12.941406 7.554688 12.761719 Z M 7.554688 12.761719 "/>
<path fill-rule="nonzero" fill="rgb(100%, 100%, 100%)" fill-opacity="1" d="M 6.90625 12.761719 C 6.90625 12.585938 7.039062 12.441406 7.207031 12.441406 C 7.378906 12.441406 7.515625 12.585938 7.515625 12.761719 C 7.515625 12.941406 7.378906 13.085938 7.207031 13.085938 C 7.039062 13.085938 6.90625 12.941406 6.90625 12.761719 Z M 6.90625 12.761719 "/>
<path fill-rule="nonzero" fill="rgb(100%, 100%, 100%)" fill-opacity="1" d="M 6.90625 12.761719 C 6.90625 12.585938 7.039062 12.441406 7.207031 12.441406 C 7.378906 12.441406 7.515625 12.585938 7.515625 12.761719 C 7.515625 12.941406 7.378906 13.085938 7.207031 13.085938 C 7.039062 13.085938 6.90625 12.941406 6.90625 12.761719 Z M 6.90625 12.761719 "/>
<path fill-rule="nonzero" fill="rgb(100%, 100%, 100%)" fill-opacity="1" d="M 6.09375 12.761719 C 6.09375 12.585938 6.230469 12.441406 6.398438 12.441406 C 6.566406 12.441406 6.703125 12.585938 6.703125 12.761719 C 6.703125 12.941406 6.566406 13.085938 6.398438 13.085938 C 6.230469 13.085938 6.09375 12.941406 6.09375 12.761719 Z M 6.09375 12.761719 "/>
<path fill-rule="nonzero" fill="rgb(100%, 100%, 100%)" fill-opacity="1" d="M 5.199219 12.761719 C 5.199219 12.585938 5.335938 12.441406 5.503906 12.441406 C 5.671875 12.441406 5.808594 12.585938 5.808594 12.761719 C 5.808594 12.941406 5.671875 13.085938 5.503906 13.085938 C 5.335938 13.085938 5.199219 12.941406 5.199219 12.761719 Z M 5.199219 12.761719 "/>
<path fill-rule="nonzero" fill="rgb(100%, 100%, 100%)" fill-opacity="1" d="M 4.550781 12.761719 C 4.550781 12.585938 4.6875 12.441406 4.851562 12.441406 C 5.019531 12.441406 5.15625 12.585938 5.15625 12.761719 C 5.15625 12.941406 5.019531 13.085938 4.851562 13.085938 C 4.6875 13.085938 4.550781 12.941406 4.550781 12.761719 Z M 4.550781 12.761719 "/>
<path fill-rule="nonzero" fill="rgb(100%, 100%, 100%)" fill-opacity="1" d="M 3.800781 12.753906 C 3.800781 12.574219 3.9375 12.429688 4.105469 12.429688 C 4.273438 12.429688 4.410156 12.574219 4.410156 12.753906 C 4.410156 12.929688 4.273438 13.074219 4.105469 13.074219 C 3.9375 13.074219 3.800781 12.929688 3.800781 12.753906 Z M 3.800781 12.753906 "/>
<path fill-rule="nonzero" fill="rgb(100%, 100%, 100%)" fill-opacity="1" d="M 3.230469 12.753906 C 3.230469 12.574219 3.367188 12.429688 3.535156 12.429688 C 3.703125 12.429688 3.839844 12.574219 3.839844 12.753906 C 3.839844 12.929688 3.703125 13.074219 3.535156 13.074219 C 3.367188 13.074219 3.230469 12.929688 3.230469 12.753906 Z M 3.230469 12.753906 "/>
<path fill-rule="nonzero" fill="rgb(100%, 100%, 100%)" fill-opacity="1" d="M 3.230469 13.242188 C 3.230469 13.0625 3.367188 12.917969 3.535156 12.917969 C 3.703125 12.917969 3.839844 13.0625 3.839844 13.242188 C 3.839844 13.417969 3.703125 13.5625 3.535156 13.5625 C 3.367188 13.5625 3.230469 13.417969 3.230469 13.242188 Z M 3.230469 13.242188 "/>
<path fill-rule="nonzero" fill="rgb(100%, 100%, 100%)" fill-opacity="1" d="M 3.394531 12.183594 C 3.394531 12.007812 3.53125 11.863281 3.699219 11.863281 C 3.867188 11.863281 4.003906 12.007812 4.003906 12.183594 C 4.003906 12.363281 3.867188 12.507812 3.699219 12.507812 C 3.53125 12.507812 3.394531 12.363281 3.394531 12.183594 Z M 3.394531 12.183594 "/>
<path fill-rule="nonzero" fill="rgb(100%, 100%, 100%)" fill-opacity="1" d="M 3.878906 12.347656 C 3.878906 12.167969 4.015625 12.023438 4.183594 12.023438 C 4.351562 12.023438 4.488281 12.167969 4.488281 12.347656 C 4.488281 12.523438 4.351562 12.667969 4.183594 12.667969 C 4.015625 12.667969 3.878906 12.523438 3.878906 12.347656 Z M 3.878906 12.347656 "/>
<path fill-rule="nonzero" fill="rgb(100%, 100%, 100%)" fill-opacity="1" d="M 4.125 12.023438 C 4.125 11.84375 4.261719 11.699219 4.429688 11.699219 C 4.597656 11.699219 4.734375 11.84375 4.734375 12.023438 C 4.734375 12.199219 4.597656 12.34375 4.429688 12.34375 C 4.261719 12.34375 4.125 12.199219 4.125 12.023438 Z M 4.125 12.023438 "/>
<path fill-rule="nonzero" fill="rgb(100%, 100%, 100%)" fill-opacity="1" d="M 3.71875 11.617188 C 3.71875 11.4375 3.855469 11.292969 4.023438 11.292969 C 4.191406 11.292969 4.328125 11.4375 4.328125 11.617188 C 4.328125 11.792969 4.191406 11.9375 4.023438 11.9375 C 3.855469 11.9375 3.71875 11.792969 3.71875 11.617188 Z M 3.71875 11.617188 "/>
<path fill-rule="nonzero" fill="rgb(100%, 100%, 100%)" fill-opacity="1" d="M 4.28125 11.128906 C 4.28125 10.949219 4.417969 10.804688 4.589844 10.804688 C 4.757812 10.804688 4.894531 10.949219 4.894531 11.128906 C 4.894531 11.308594 4.757812 11.453125 4.589844 11.453125 C 4.417969 11.453125 4.28125 11.308594 4.28125 11.128906 Z M 4.28125 11.128906 "/>
<path fill-rule="nonzero" fill="rgb(100%, 100%, 100%)" fill-opacity="1" d="M 4.6875 11.371094 C 4.6875 11.195312 4.828125 11.050781 4.992188 11.050781 C 5.164062 11.050781 5.300781 11.195312 5.300781 11.371094 C 5.300781 11.550781 5.164062 11.695312 4.992188 11.695312 C 4.828125 11.695312 4.6875 11.550781 4.6875 11.371094 Z M 4.6875 11.371094 "/>
<path fill-rule="nonzero" fill="rgb(100%, 100%, 100%)" fill-opacity="1" d="M 4.851562 10.558594 C 4.851562 10.382812 4.992188 10.238281 5.15625 10.238281 C 5.328125 10.238281 5.464844 10.382812 5.464844 10.558594 C 5.464844 10.738281 5.328125 10.882812 5.15625 10.882812 C 4.992188 10.882812 4.851562 10.738281 4.851562 10.558594 Z M 4.851562 10.558594 "/>
<path fill-rule="nonzero" fill="rgb(100%, 100%, 100%)" fill-opacity="1" d="M 5.261719 10.804688 C 5.261719 10.625 5.398438 10.480469 5.5625 10.480469 C 5.730469 10.480469 5.867188 10.625 5.867188 10.804688 C 5.867188 10.980469 5.730469 11.125 5.5625 11.125 C 5.398438 11.125 5.261719 10.980469 5.261719 10.804688 Z M 5.261719 10.804688 "/>
<path fill-rule="nonzero" fill="rgb(100%, 100%, 100%)" fill-opacity="1" d="M 5.425781 9.992188 C 5.425781 9.8125 5.558594 9.667969 5.726562 9.667969 C 5.890625 9.667969 6.03125 9.8125 6.03125 9.992188 C 6.03125 10.171875 5.890625 10.3125 5.726562 10.3125 C 5.558594 10.3125 5.425781 10.171875 5.425781 9.992188 Z M 5.425781 9.992188 "/>
<path fill-rule="nonzero" fill="rgb(100%, 100%, 100%)" fill-opacity="1" d="M 5.992188 9.421875 C 5.992188 9.246094 6.128906 9.101562 6.296875 9.101562 C 6.464844 9.101562 6.601562 9.246094 6.601562 9.421875 C 6.601562 9.601562 6.464844 9.746094 6.296875 9.746094 C 6.128906 9.746094 5.992188 9.601562 5.992188 9.421875 Z M 5.992188 9.421875 "/>
<path fill-rule="nonzero" fill="rgb(100%, 100%, 100%)" fill-opacity="1" d="M 6.5625 8.855469 C 6.5625 8.675781 6.695312 8.53125 6.867188 8.53125 C 7.035156 8.53125 7.167969 8.675781 7.167969 8.855469 C 7.167969 9.03125 7.035156 9.175781 6.867188 9.175781 C 6.695312 9.175781 6.5625 9.03125 6.5625 8.855469 Z M 6.5625 8.855469 "/>
<path fill-rule="nonzero" fill="rgb(100%, 100%, 100%)" fill-opacity="1" d="M 6.886719 9.179688 C 6.886719 9 7.023438 8.855469 7.191406 8.855469 C 7.359375 8.855469 7.496094 9 7.496094 9.179688 C 7.496094 9.359375 7.359375 9.503906 7.191406 9.503906 C 7.023438 9.503906 6.886719 9.359375 6.886719 9.179688 Z M 6.886719 9.179688 "/>
<path fill-rule="nonzero" fill="rgb(100%, 100%, 100%)" fill-opacity="1" d="M 6.316406 9.667969 C 6.316406 9.488281 6.453125 9.34375 6.621094 9.34375 C 6.789062 9.34375 6.925781 9.488281 6.925781 9.667969 C 6.925781 9.84375 6.789062 9.988281 6.621094 9.988281 C 6.453125 9.988281 6.316406 9.84375 6.316406 9.667969 Z M 6.316406 9.667969 "/>
<path fill-rule="nonzero" fill="rgb(100%, 100%, 100%)" fill-opacity="1" d="M 5.75 10.316406 C 5.75 10.136719 5.886719 9.996094 6.054688 9.996094 C 6.21875 9.996094 6.359375 10.136719 6.359375 10.316406 C 6.359375 10.496094 6.21875 10.640625 6.054688 10.640625 C 5.886719 10.640625 5.75 10.496094 5.75 10.316406 Z M 5.75 10.316406 "/>
<path fill-rule="nonzero" fill="rgb(100%, 100%, 100%)" fill-opacity="1" d="M 7.042969 8.285156 C 7.042969 8.109375 7.179688 7.964844 7.351562 7.964844 C 7.519531 7.964844 7.65625 8.109375 7.65625 8.285156 C 7.65625 8.464844 7.519531 8.609375 7.351562 8.609375 C 7.179688 8.609375 7.042969 8.464844 7.042969 8.285156 Z M 7.042969 8.285156 "/>
<path fill-rule="nonzero" fill="rgb(100%, 100%, 100%)" fill-opacity="1" d="M 7.617188 7.71875 C 7.617188 7.539062 7.75 7.394531 7.917969 7.394531 C 8.089844 7.394531 8.226562 7.539062 8.226562 7.71875 C 8.226562 7.894531 8.089844 8.039062 7.917969 8.039062 C 7.75 8.039062 7.617188 7.894531 7.617188 7.71875 Z M 7.617188 7.71875 "/>
<path fill-rule="nonzero" fill="rgb(100%, 100%, 100%)" fill-opacity="1" d="M 8.183594 7.148438 C 8.183594 6.972656 8.320312 6.828125 8.488281 6.828125 C 8.65625 6.828125 8.789062 6.972656 8.789062 7.148438 C 8.789062 7.328125 8.65625 7.472656 8.488281 7.472656 C 8.320312 7.472656 8.183594 7.328125 8.183594 7.148438 Z M 8.183594 7.148438 "/>
<path fill-rule="nonzero" fill="rgb(100%, 100%, 100%)" fill-opacity="1" d="M 8.753906 6.582031 C 8.753906 6.402344 8.890625 6.257812 9.058594 6.257812 C 9.226562 6.257812 9.363281 6.402344 9.363281 6.582031 C 9.363281 6.757812 9.226562 6.902344 9.058594 6.902344 C 8.890625 6.902344 8.753906 6.757812 8.753906 6.582031 Z M 8.753906 6.582031 "/>
<path fill-rule="nonzero" fill="rgb(100%, 100%, 100%)" fill-opacity="1" d="M 8.996094 6.824219 C 8.996094 6.644531 9.132812 6.5 9.300781 6.5 C 9.46875 6.5 9.605469 6.644531 9.605469 6.824219 C 9.605469 7.003906 9.46875 7.148438 9.300781 7.148438 C 9.132812 7.148438 8.996094 7.003906 8.996094 6.824219 Z M 8.996094 6.824219 "/>
<path fill-rule="nonzero" fill="rgb(100%, 100%, 100%)" fill-opacity="1" d="M 8.429688 7.394531 C 8.429688 7.214844 8.566406 7.070312 8.734375 7.070312 C 8.898438 7.070312 9.039062 7.214844 9.039062 7.394531 C 9.039062 7.570312 8.898438 7.714844 8.734375 7.714844 C 8.566406 7.714844 8.429688 7.570312 8.429688 7.394531 Z M 8.429688 7.394531 "/>
<path fill-rule="nonzero" fill="rgb(100%, 100%, 100%)" fill-opacity="1" d="M 7.941406 8.042969 C 7.941406 7.863281 8.078125 7.71875 8.242188 7.71875 C 8.410156 7.71875 8.546875 7.863281 8.546875 8.042969 C 8.546875 8.222656 8.410156 8.363281 8.242188 8.363281 C 8.078125 8.363281 7.941406 8.222656 7.941406 8.042969 Z M 7.941406 8.042969 "/>
<path fill-rule="nonzero" fill="rgb(100%, 100%, 100%)" fill-opacity="1" d="M 7.371094 8.609375 C 7.371094 8.433594 7.507812 8.289062 7.671875 8.289062 C 7.84375 8.289062 7.980469 8.433594 7.980469 8.609375 C 7.980469 8.789062 7.84375 8.933594 7.671875 8.933594 C 7.507812 8.933594 7.371094 8.789062 7.371094 8.609375 Z M 7.371094 8.609375 "/>
</svg>
