<?xml version="1.0" encoding="UTF-8"?>
<svg xmlns="http://www.w3.org/2000/svg" xmlns:xlink="http://www.w3.org/1999/xlink" width="15" height="15" viewBox="0 0 15 15">
<path fill-rule="nonzero" fill="rgb(0%, 0%, 0%)" fill-opacity="1" stroke-width="10" stroke-linecap="butt" stroke-linejoin="miter" stroke="rgb(100%, 100%, 100%)" stroke-opacity="1" stroke-miterlimit="4" d="M 5.013021 5.013021 L 5.013021 148.986979 L 148.986979 148.986979 L 148.986979 5.013021 Z M 5.013021 5.013021 " transform="matrix(0.0974026, 0, 0, 0.0974026, 0, 0)"/>
<path fill-rule="nonzero" fill="rgb(100%, 100%, 100%)" fill-opacity="1" d="M 3.96875 3.949219 L 3.9375 3.949219 L 2.289062 4.839844 L 2.039062 3.859375 L 4.113281 2.75 L 5.210938 2.75 L 5.210938 12.25 L 3.96875 12.25 Z M 3.96875 3.949219 "/>
<path fill-rule="nonzero" fill="rgb(100%, 100%, 100%)" fill-opacity="1" d="M 12.960938 7.398438 C 12.960938 10.628906 11.75 12.410156 9.660156 12.410156 C 7.800781 12.410156 6.53125 10.671875 6.5 7.527344 C 6.5 4.328125 7.890625 2.589844 9.820312 2.589844 C 11.804688 2.589844 12.960938 4.371094 12.960938 7.398438 Z M 7.800781 7.542969 C 7.800781 10.015625 8.5625 11.417969 9.730469 11.417969 C 11.03125 11.417969 11.660156 9.882812 11.660156 7.457031 C 11.660156 5.117188 11.074219 3.582031 9.730469 3.582031 C 8.621094 3.582031 7.800781 4.957031 7.800781 7.542969 Z M 7.800781 7.542969 "/>
</svg>
