<?xml version="1.0" encoding="UTF-8"?>
<svg xmlns="http://www.w3.org/2000/svg" xmlns:xlink="http://www.w3.org/1999/xlink" width="17.237164" height="15" viewBox="0 0 17.237164 15">
<path fill-rule="nonzero" fill="rgb(95.294118%, 57.254905%, 0%)" fill-opacity="1" d="M 17.238281 0 L 8.617188 15 L 0 0 Z M 17.238281 0 "/>
<path fill-rule="nonzero" fill="rgb(0%, 0%, 0%)" fill-opacity="1" d="M 16.210938 0.625 L 8.671875 13.679688 L 1.136719 0.625 Z M 16.210938 0.625 "/>
<path fill-rule="nonzero" fill="rgb(0%, 0%, 0%)" fill-opacity="1" d="M 8.671875 13.714844 L 8.65625 13.6875 L 1.105469 0.605469 L 16.242188 0.605469 L 16.226562 0.632812 Z M 1.167969 0.640625 L 8.671875 13.644531 L 16.179688 0.640625 Z M 1.167969 0.640625 "/>
<path fill-rule="nonzero" fill="rgb(95.294118%, 57.254905%, 0%)" fill-opacity="1" d="M 6.140625 7.859375 L 7.101562 7.773438 C 7.183594 8.222656 7.339844 8.550781 7.566406 8.753906 C 7.796875 8.957031 8.089844 9.058594 8.449219 9.058594 C 8.757812 9.058594 9.027344 8.988281 9.257812 8.847656 C 9.488281 8.707031 9.679688 8.519531 9.828125 8.285156 C 9.976562 8.050781 10.097656 7.734375 10.199219 7.332031 C 10.300781 6.933594 10.347656 6.527344 10.347656 6.113281 C 10.347656 6.066406 10.347656 6 10.34375 5.914062 C 10.144531 6.230469 9.871094 6.488281 9.523438 6.6875 C 9.179688 6.886719 8.804688 6.984375 8.402344 6.984375 C 7.726562 6.984375 7.15625 6.738281 6.691406 6.25 C 6.226562 5.761719 5.992188 5.117188 5.992188 4.320312 C 5.992188 3.492188 6.234375 2.828125 6.722656 2.328125 C 7.207031 1.824219 7.816406 1.570312 8.550781 1.570312 C 9.078125 1.570312 9.5625 1.714844 10.003906 2 C 10.441406 2.285156 10.773438 2.691406 11 3.21875 C 11.230469 3.746094 11.34375 4.507812 11.34375 5.507812 C 11.34375 6.546875 11.230469 7.375 11.003906 7.992188 C 10.777344 8.609375 10.441406 9.078125 9.996094 9.398438 C 9.550781 9.71875 9.027344 9.882812 8.429688 9.882812 C 7.792969 9.882812 7.273438 9.703125 6.867188 9.351562 C 6.464844 9 6.222656 8.5 6.140625 7.859375 Z M 10.234375 4.269531 C 10.234375 3.695312 10.078125 3.242188 9.773438 2.902344 C 9.46875 2.566406 9.101562 2.398438 8.671875 2.398438 C 8.230469 2.398438 7.84375 2.578125 7.511719 2.941406 C 7.183594 3.304688 7.019531 3.773438 7.019531 4.351562 C 7.019531 4.871094 7.175781 5.292969 7.488281 5.617188 C 7.800781 5.9375 8.1875 6.101562 8.644531 6.101562 C 9.109375 6.101562 9.488281 5.9375 9.785156 5.617188 C 10.082031 5.292969 10.234375 4.84375 10.234375 4.269531 Z M 10.234375 4.269531 "/>
</svg>
