<?xml version="1.0" encoding="UTF-8"?>
<svg xmlns="http://www.w3.org/2000/svg" xmlns:xlink="http://www.w3.org/1999/xlink" width="14.082402" height="14" viewBox="0 0 14.082402 14">
<path fill-rule="nonzero" fill="rgb(0%, 0%, 0%)" fill-opacity="1" stroke-width="1.378955" stroke-linecap="butt" stroke-linejoin="miter" stroke="rgb(0%, 0%, 0%)" stroke-opacity="1" stroke-miterlimit="4" d="M 17.978126 577.180825 L 486.667623 577.180825 L 486.667623 1043.132497 L 19.933715 1043.132497 Z M 17.978126 577.180825 " transform="matrix(0.0299622, 0, 0, 0.0299622, -0.519133, -17.274076)"/>
<path fill-rule="nonzero" fill="rgb(100%, 100%, 0%)" fill-opacity="1" d="M 10.269531 0.519531 C 10.269531 0.703125 10.128906 0.847656 9.960938 0.847656 C 9.789062 0.847656 9.652344 0.703125 9.652344 0.519531 C 9.652344 0.339844 9.789062 0.195312 9.960938 0.195312 C 10.128906 0.195312 10.269531 0.339844 10.269531 0.519531 Z M 10.269531 0.519531 "/>
<path fill-rule="nonzero" fill="rgb(100%, 100%, 0%)" fill-opacity="1" d="M 9.445312 0.519531 C 9.445312 0.703125 9.308594 0.847656 9.136719 0.847656 C 8.964844 0.847656 8.828125 0.703125 8.828125 0.519531 C 8.828125 0.339844 8.964844 0.195312 9.136719 0.195312 C 9.308594 0.195312 9.445312 0.339844 9.445312 0.519531 Z M 9.445312 0.519531 "/>
<path fill-rule="nonzero" fill="rgb(100%, 100%, 0%)" fill-opacity="1" d="M 8.539062 0.519531 C 8.539062 0.703125 8.402344 0.847656 8.230469 0.847656 C 8.058594 0.847656 7.921875 0.703125 7.921875 0.519531 C 7.921875 0.339844 8.058594 0.195312 8.230469 0.195312 C 8.402344 0.195312 8.539062 0.339844 8.539062 0.519531 Z M 8.539062 0.519531 "/>
<path fill-rule="nonzero" fill="rgb(100%, 100%, 0%)" fill-opacity="1" d="M 7.632812 0.519531 C 7.632812 0.703125 7.496094 0.847656 7.324219 0.847656 C 7.15625 0.847656 7.015625 0.703125 7.015625 0.519531 C 7.015625 0.339844 7.15625 0.195312 7.324219 0.195312 C 7.496094 0.195312 7.632812 0.339844 7.632812 0.519531 Z M 7.632812 0.519531 "/>
<path fill-rule="nonzero" fill="rgb(100%, 100%, 0%)" fill-opacity="1" d="M 6.726562 0.519531 C 6.726562 0.703125 6.589844 0.847656 6.417969 0.847656 C 6.25 0.847656 6.109375 0.703125 6.109375 0.519531 C 6.109375 0.339844 6.25 0.195312 6.417969 0.195312 C 6.589844 0.195312 6.726562 0.339844 6.726562 0.519531 Z M 6.726562 0.519531 "/>
<path fill-rule="nonzero" fill="rgb(100%, 100%, 0%)" fill-opacity="1" d="M 5.820312 0.519531 C 5.820312 0.703125 5.683594 0.847656 5.511719 0.847656 C 5.34375 0.847656 5.203125 0.703125 5.203125 0.519531 C 5.203125 0.339844 5.34375 0.195312 5.511719 0.195312 C 5.683594 0.195312 5.820312 0.339844 5.820312 0.519531 Z M 5.820312 0.519531 "/>
<path fill-rule="nonzero" fill="rgb(100%, 100%, 0%)" fill-opacity="1" d="M 5 0.519531 C 5 0.703125 4.859375 0.847656 4.691406 0.847656 C 4.519531 0.847656 4.382812 0.703125 4.382812 0.519531 C 4.382812 0.339844 4.519531 0.195312 4.691406 0.195312 C 4.859375 0.195312 5 0.339844 5 0.519531 Z M 5 0.519531 "/>
<path fill-rule="nonzero" fill="rgb(100%, 100%, 0%)" fill-opacity="1" d="M 4.257812 0.519531 C 4.257812 0.703125 4.117188 0.847656 3.949219 0.847656 C 3.777344 0.847656 3.640625 0.703125 3.640625 0.519531 C 3.640625 0.339844 3.777344 0.195312 3.949219 0.195312 C 4.117188 0.195312 4.257812 0.339844 4.257812 0.519531 Z M 4.257812 0.519531 "/>
<path fill-rule="nonzero" fill="rgb(100%, 100%, 0%)" fill-opacity="1" d="M 3.679688 0.519531 C 3.679688 0.703125 3.542969 0.847656 3.371094 0.847656 C 3.203125 0.847656 3.0625 0.703125 3.0625 0.519531 C 3.0625 0.339844 3.203125 0.195312 3.371094 0.195312 C 3.542969 0.195312 3.679688 0.339844 3.679688 0.519531 Z M 3.679688 0.519531 "/>
<path fill-rule="nonzero" fill="rgb(100%, 100%, 0%)" fill-opacity="1" d="M 3.679688 1.015625 C 3.679688 1.195312 3.542969 1.339844 3.371094 1.339844 C 3.203125 1.339844 3.0625 1.195312 3.0625 1.015625 C 3.0625 0.835938 3.203125 0.6875 3.371094 0.6875 C 3.542969 0.6875 3.679688 0.835938 3.679688 1.015625 Z M 3.679688 1.015625 "/>
<path fill-rule="nonzero" fill="rgb(100%, 100%, 0%)" fill-opacity="1" d="M 3.679688 1.671875 C 3.679688 1.855469 3.542969 2 3.371094 2 C 3.203125 2 3.0625 1.855469 3.0625 1.671875 C 3.0625 1.492188 3.203125 1.347656 3.371094 1.347656 C 3.542969 1.347656 3.679688 1.492188 3.679688 1.671875 Z M 3.679688 1.671875 "/>
<path fill-rule="nonzero" fill="rgb(100%, 100%, 0%)" fill-opacity="1" d="M 3.679688 2.25 C 3.679688 2.429688 3.542969 2.578125 3.371094 2.578125 C 3.203125 2.578125 3.0625 2.429688 3.0625 2.25 C 3.0625 2.070312 3.203125 1.921875 3.371094 1.921875 C 3.542969 1.921875 3.679688 2.070312 3.679688 2.25 Z M 3.679688 2.25 "/>
<path fill-rule="nonzero" fill="rgb(100%, 100%, 0%)" fill-opacity="1" d="M 3.679688 2.910156 C 3.679688 3.089844 3.542969 3.234375 3.371094 3.234375 C 3.203125 3.234375 3.0625 3.089844 3.0625 2.910156 C 3.0625 2.726562 3.203125 2.582031 3.371094 2.582031 C 3.542969 2.582031 3.679688 2.726562 3.679688 2.910156 Z M 3.679688 2.910156 "/>
<path fill-rule="nonzero" fill="rgb(100%, 100%, 0%)" fill-opacity="1" d="M 3.679688 3.648438 C 3.679688 3.832031 3.542969 3.976562 3.371094 3.976562 C 3.203125 3.976562 3.0625 3.832031 3.0625 3.648438 C 3.0625 3.46875 3.203125 3.324219 3.371094 3.324219 C 3.542969 3.324219 3.679688 3.46875 3.679688 3.648438 Z M 3.679688 3.648438 "/>
<path fill-rule="nonzero" fill="rgb(100%, 100%, 0%)" fill-opacity="1" d="M 3.679688 4.308594 C 3.679688 4.488281 3.542969 4.636719 3.371094 4.636719 C 3.203125 4.636719 3.0625 4.488281 3.0625 4.308594 C 3.0625 4.128906 3.203125 3.980469 3.371094 3.980469 C 3.542969 3.980469 3.679688 4.128906 3.679688 4.308594 Z M 3.679688 4.308594 "/>
<path fill-rule="nonzero" fill="rgb(100%, 100%, 0%)" fill-opacity="1" d="M 3.679688 4.96875 C 3.679688 5.148438 3.542969 5.292969 3.371094 5.292969 C 3.203125 5.292969 3.0625 5.148438 3.0625 4.96875 C 3.0625 4.785156 3.203125 4.640625 3.371094 4.640625 C 3.542969 4.640625 3.679688 4.785156 3.679688 4.96875 Z M 3.679688 4.96875 "/>
<path fill-rule="nonzero" fill="rgb(100%, 100%, 0%)" fill-opacity="1" d="M 3.679688 5.625 C 3.679688 5.808594 3.542969 5.953125 3.371094 5.953125 C 3.203125 5.953125 3.0625 5.808594 3.0625 5.625 C 3.0625 5.445312 3.203125 5.300781 3.371094 5.300781 C 3.542969 5.300781 3.679688 5.445312 3.679688 5.625 Z M 3.679688 5.625 "/>
<path fill-rule="nonzero" fill="rgb(100%, 100%, 0%)" fill-opacity="1" d="M 3.679688 6.285156 C 3.679688 6.464844 3.542969 6.613281 3.371094 6.613281 C 3.203125 6.613281 3.0625 6.464844 3.0625 6.285156 C 3.0625 6.105469 3.203125 5.957031 3.371094 5.957031 C 3.542969 5.957031 3.679688 6.105469 3.679688 6.285156 Z M 3.679688 6.285156 "/>
<path fill-rule="nonzero" fill="rgb(100%, 100%, 0%)" fill-opacity="1" d="M 3.679688 7.191406 C 3.679688 7.371094 3.542969 7.519531 3.371094 7.519531 C 3.203125 7.519531 3.0625 7.371094 3.0625 7.191406 C 3.0625 7.011719 3.203125 6.863281 3.371094 6.863281 C 3.542969 6.863281 3.679688 7.011719 3.679688 7.191406 Z M 3.679688 7.191406 "/>
<path fill-rule="nonzero" fill="rgb(100%, 100%, 0%)" fill-opacity="1" d="M 10.269531 1.015625 C 10.269531 1.195312 10.128906 1.339844 9.960938 1.339844 C 9.789062 1.339844 9.652344 1.195312 9.652344 1.015625 C 9.652344 0.835938 9.789062 0.6875 9.960938 0.6875 C 10.128906 0.6875 10.269531 0.835938 10.269531 1.015625 Z M 10.269531 1.015625 "/>
<path fill-rule="nonzero" fill="rgb(100%, 100%, 0%)" fill-opacity="1" d="M 9.445312 1.015625 C 9.445312 1.195312 9.308594 1.339844 9.136719 1.339844 C 8.964844 1.339844 8.828125 1.195312 8.828125 1.015625 C 8.828125 0.835938 8.964844 0.6875 9.136719 0.6875 C 9.308594 0.6875 9.445312 0.835938 9.445312 1.015625 Z M 9.445312 1.015625 "/>
<path fill-rule="nonzero" fill="rgb(100%, 100%, 0%)" fill-opacity="1" d="M 8.539062 1.015625 C 8.539062 1.195312 8.402344 1.339844 8.230469 1.339844 C 8.058594 1.339844 7.921875 1.195312 7.921875 1.015625 C 7.921875 0.835938 8.058594 0.6875 8.230469 0.6875 C 8.402344 0.6875 8.539062 0.835938 8.539062 1.015625 Z M 8.539062 1.015625 "/>
<path fill-rule="nonzero" fill="rgb(100%, 100%, 0%)" fill-opacity="1" d="M 7.632812 1.015625 C 7.632812 1.195312 7.496094 1.339844 7.324219 1.339844 C 7.15625 1.339844 7.015625 1.195312 7.015625 1.015625 C 7.015625 0.835938 7.15625 0.6875 7.324219 0.6875 C 7.496094 0.6875 7.632812 0.835938 7.632812 1.015625 Z M 7.632812 1.015625 "/>
<path fill-rule="nonzero" fill="rgb(100%, 100%, 0%)" fill-opacity="1" d="M 6.726562 1.015625 C 6.726562 1.195312 6.589844 1.339844 6.417969 1.339844 C 6.25 1.339844 6.109375 1.195312 6.109375 1.015625 C 6.109375 0.835938 6.25 0.6875 6.417969 0.6875 C 6.589844 0.6875 6.726562 0.835938 6.726562 1.015625 Z M 6.726562 1.015625 "/>
<path fill-rule="nonzero" fill="rgb(100%, 100%, 0%)" fill-opacity="1" d="M 5.820312 1.015625 C 5.820312 1.195312 5.683594 1.339844 5.511719 1.339844 C 5.34375 1.339844 5.203125 1.195312 5.203125 1.015625 C 5.203125 0.835938 5.34375 0.6875 5.511719 0.6875 C 5.683594 0.6875 5.820312 0.835938 5.820312 1.015625 Z M 5.820312 1.015625 "/>
<path fill-rule="nonzero" fill="rgb(100%, 100%, 0%)" fill-opacity="1" d="M 5 1.015625 C 5 1.195312 4.859375 1.339844 4.691406 1.339844 C 4.519531 1.339844 4.382812 1.195312 4.382812 1.015625 C 4.382812 0.835938 4.519531 0.6875 4.691406 0.6875 C 4.859375 0.6875 5 0.835938 5 1.015625 Z M 5 1.015625 "/>
<path fill-rule="nonzero" fill="rgb(100%, 100%, 0%)" fill-opacity="1" d="M 4.257812 1.015625 C 4.257812 1.195312 4.117188 1.339844 3.949219 1.339844 C 3.777344 1.339844 3.640625 1.195312 3.640625 1.015625 C 3.640625 0.835938 3.777344 0.6875 3.949219 0.6875 C 4.117188 0.6875 4.257812 0.835938 4.257812 1.015625 Z M 4.257812 1.015625 "/>
<path fill-rule="nonzero" fill="rgb(100%, 100%, 0%)" fill-opacity="1" d="M 4.257812 1.671875 C 4.257812 1.855469 4.117188 2 3.949219 2 C 3.777344 2 3.640625 1.855469 3.640625 1.671875 C 3.640625 1.492188 3.777344 1.347656 3.949219 1.347656 C 4.117188 1.347656 4.257812 1.492188 4.257812 1.671875 Z M 4.257812 1.671875 "/>
<path fill-rule="nonzero" fill="rgb(100%, 100%, 0%)" fill-opacity="1" d="M 4.257812 2.25 C 4.257812 2.429688 4.117188 2.578125 3.949219 2.578125 C 3.777344 2.578125 3.640625 2.429688 3.640625 2.25 C 3.640625 2.070312 3.777344 1.921875 3.949219 1.921875 C 4.117188 1.921875 4.257812 2.070312 4.257812 2.25 Z M 4.257812 2.25 "/>
<path fill-rule="nonzero" fill="rgb(100%, 100%, 0%)" fill-opacity="1" d="M 4.257812 2.910156 C 4.257812 3.089844 4.117188 3.234375 3.949219 3.234375 C 3.777344 3.234375 3.640625 3.089844 3.640625 2.910156 C 3.640625 2.726562 3.777344 2.582031 3.949219 2.582031 C 4.117188 2.582031 4.257812 2.726562 4.257812 2.910156 Z M 4.257812 2.910156 "/>
<path fill-rule="nonzero" fill="rgb(100%, 100%, 0%)" fill-opacity="1" d="M 4.257812 3.648438 C 4.257812 3.832031 4.117188 3.976562 3.949219 3.976562 C 3.777344 3.976562 3.640625 3.832031 3.640625 3.648438 C 3.640625 3.46875 3.777344 3.324219 3.949219 3.324219 C 4.117188 3.324219 4.257812 3.46875 4.257812 3.648438 Z M 4.257812 3.648438 "/>
<path fill-rule="nonzero" fill="rgb(100%, 100%, 0%)" fill-opacity="1" d="M 4.257812 4.308594 C 4.257812 4.488281 4.117188 4.636719 3.949219 4.636719 C 3.777344 4.636719 3.640625 4.488281 3.640625 4.308594 C 3.640625 4.128906 3.777344 3.980469 3.949219 3.980469 C 4.117188 3.980469 4.257812 4.128906 4.257812 4.308594 Z M 4.257812 4.308594 "/>
<path fill-rule="nonzero" fill="rgb(100%, 100%, 0%)" fill-opacity="1" d="M 4.257812 4.96875 C 4.257812 5.148438 4.117188 5.292969 3.949219 5.292969 C 3.777344 5.292969 3.640625 5.148438 3.640625 4.96875 C 3.640625 4.785156 3.777344 4.640625 3.949219 4.640625 C 4.117188 4.640625 4.257812 4.785156 4.257812 4.96875 Z M 4.257812 4.96875 "/>
<path fill-rule="nonzero" fill="rgb(100%, 100%, 0%)" fill-opacity="1" d="M 4.257812 5.625 C 4.257812 5.808594 4.117188 5.953125 3.949219 5.953125 C 3.777344 5.953125 3.640625 5.808594 3.640625 5.625 C 3.640625 5.445312 3.777344 5.300781 3.949219 5.300781 C 4.117188 5.300781 4.257812 5.445312 4.257812 5.625 Z M 4.257812 5.625 "/>
<path fill-rule="nonzero" fill="rgb(100%, 100%, 0%)" fill-opacity="1" d="M 4.257812 6.285156 C 4.257812 6.464844 4.117188 6.613281 3.949219 6.613281 C 3.777344 6.613281 3.640625 6.464844 3.640625 6.285156 C 3.640625 6.105469 3.777344 5.957031 3.949219 5.957031 C 4.117188 5.957031 4.257812 6.105469 4.257812 6.285156 Z M 4.257812 6.285156 "/>
<path fill-rule="nonzero" fill="rgb(100%, 100%, 0%)" fill-opacity="1" d="M 4.421875 6.777344 C 4.421875 6.960938 4.285156 7.105469 4.113281 7.105469 C 3.941406 7.105469 3.804688 6.960938 3.804688 6.777344 C 3.804688 6.597656 3.941406 6.453125 4.113281 6.453125 C 4.285156 6.453125 4.421875 6.597656 4.421875 6.777344 Z M 4.421875 6.777344 "/>
<path fill-rule="nonzero" fill="rgb(100%, 100%, 0%)" fill-opacity="1" d="M 5 6.53125 C 5 6.710938 4.859375 6.859375 4.691406 6.859375 C 4.519531 6.859375 4.382812 6.710938 4.382812 6.53125 C 4.382812 6.351562 4.519531 6.207031 4.691406 6.207031 C 4.859375 6.207031 5 6.351562 5 6.53125 Z M 5 6.53125 "/>
<path fill-rule="nonzero" fill="rgb(100%, 100%, 0%)" fill-opacity="1" d="M 4.914062 6.121094 C 4.914062 6.300781 4.777344 6.449219 4.605469 6.449219 C 4.4375 6.449219 4.296875 6.300781 4.296875 6.121094 C 4.296875 5.941406 4.4375 5.792969 4.605469 5.792969 C 4.777344 5.792969 4.914062 5.941406 4.914062 6.121094 Z M 4.914062 6.121094 "/>
<path fill-rule="nonzero" fill="rgb(100%, 100%, 0%)" fill-opacity="1" d="M 5.65625 5.792969 C 5.65625 5.972656 5.519531 6.117188 5.347656 6.117188 C 5.179688 6.117188 5.039062 5.972656 5.039062 5.792969 C 5.039062 5.609375 5.179688 5.464844 5.347656 5.464844 C 5.519531 5.464844 5.65625 5.609375 5.65625 5.792969 Z M 5.65625 5.792969 "/>
<path fill-rule="nonzero" fill="rgb(100%, 100%, 0%)" fill-opacity="1" d="M 5.738281 6.285156 C 5.738281 6.464844 5.601562 6.613281 5.429688 6.613281 C 5.261719 6.613281 5.121094 6.464844 5.121094 6.285156 C 5.121094 6.105469 5.261719 5.957031 5.429688 5.957031 C 5.601562 5.957031 5.738281 6.105469 5.738281 6.285156 Z M 5.738281 6.285156 "/>
<path fill-rule="nonzero" fill="rgb(100%, 100%, 0%)" fill-opacity="1" d="M 6.398438 5.625 C 6.398438 5.808594 6.261719 5.953125 6.089844 5.953125 C 5.917969 5.953125 5.78125 5.808594 5.78125 5.625 C 5.78125 5.445312 5.917969 5.300781 6.089844 5.300781 C 6.261719 5.300781 6.398438 5.445312 6.398438 5.625 Z M 6.398438 5.625 "/>
<path fill-rule="nonzero" fill="rgb(100%, 100%, 0%)" fill-opacity="1" d="M 6.480469 6.121094 C 6.480469 6.300781 6.34375 6.449219 6.171875 6.449219 C 6 6.449219 5.863281 6.300781 5.863281 6.121094 C 5.863281 5.941406 6 5.792969 6.171875 5.792969 C 6.34375 5.792969 6.480469 5.941406 6.480469 6.121094 Z M 6.480469 6.121094 "/>
<path fill-rule="nonzero" fill="rgb(100%, 100%, 0%)" fill-opacity="1" d="M 7.222656 5.542969 C 7.222656 5.722656 7.082031 5.871094 6.914062 5.871094 C 6.742188 5.871094 6.605469 5.722656 6.605469 5.542969 C 6.605469 5.363281 6.742188 5.21875 6.914062 5.21875 C 7.082031 5.21875 7.222656 5.363281 7.222656 5.542969 Z M 7.222656 5.542969 "/>
<path fill-rule="nonzero" fill="rgb(100%, 100%, 0%)" fill-opacity="1" d="M 7.222656 5.957031 C 7.222656 6.136719 7.082031 6.28125 6.914062 6.28125 C 6.742188 6.28125 6.605469 6.136719 6.605469 5.957031 C 6.605469 5.773438 6.742188 5.628906 6.914062 5.628906 C 7.082031 5.628906 7.222656 5.773438 7.222656 5.957031 Z M 7.222656 5.957031 "/>
<path fill-rule="nonzero" fill="rgb(100%, 100%, 0%)" fill-opacity="1" d="M 7.878906 6.039062 C 7.878906 6.21875 7.742188 6.363281 7.570312 6.363281 C 7.402344 6.363281 7.261719 6.21875 7.261719 6.039062 C 7.261719 5.859375 7.402344 5.710938 7.570312 5.710938 C 7.742188 5.710938 7.878906 5.859375 7.878906 6.039062 Z M 7.878906 6.039062 "/>
<path fill-rule="nonzero" fill="rgb(100%, 100%, 0%)" fill-opacity="1" d="M 7.964844 5.542969 C 7.964844 5.722656 7.824219 5.871094 7.65625 5.871094 C 7.484375 5.871094 7.347656 5.722656 7.347656 5.542969 C 7.347656 5.363281 7.484375 5.21875 7.65625 5.21875 C 7.824219 5.21875 7.964844 5.363281 7.964844 5.542969 Z M 7.964844 5.542969 "/>
<path fill-rule="nonzero" fill="rgb(100%, 100%, 0%)" fill-opacity="1" d="M 8.703125 5.707031 C 8.703125 5.890625 8.566406 6.035156 8.394531 6.035156 C 8.226562 6.035156 8.085938 5.890625 8.085938 5.707031 C 8.085938 5.527344 8.226562 5.382812 8.394531 5.382812 C 8.566406 5.382812 8.703125 5.527344 8.703125 5.707031 Z M 8.703125 5.707031 "/>
<path fill-rule="nonzero" fill="rgb(100%, 100%, 0%)" fill-opacity="1" d="M 8.539062 6.203125 C 8.539062 6.382812 8.402344 6.53125 8.230469 6.53125 C 8.058594 6.53125 7.921875 6.382812 7.921875 6.203125 C 7.921875 6.023438 8.058594 5.875 8.230469 5.875 C 8.402344 5.875 8.539062 6.023438 8.539062 6.203125 Z M 8.539062 6.203125 "/>
<path fill-rule="nonzero" fill="rgb(100%, 100%, 0%)" fill-opacity="1" d="M 9.445312 6.121094 C 9.445312 6.300781 9.308594 6.449219 9.136719 6.449219 C 8.964844 6.449219 8.828125 6.300781 8.828125 6.121094 C 8.828125 5.941406 8.964844 5.792969 9.136719 5.792969 C 9.308594 5.792969 9.445312 5.941406 9.445312 6.121094 Z M 9.445312 6.121094 "/>
<path fill-rule="nonzero" fill="rgb(100%, 100%, 0%)" fill-opacity="1" d="M 9.199219 6.53125 C 9.199219 6.710938 9.058594 6.859375 8.890625 6.859375 C 8.71875 6.859375 8.582031 6.710938 8.582031 6.53125 C 8.582031 6.351562 8.71875 6.207031 8.890625 6.207031 C 9.058594 6.207031 9.199219 6.351562 9.199219 6.53125 Z M 9.199219 6.53125 "/>
<path fill-rule="nonzero" fill="rgb(100%, 100%, 0%)" fill-opacity="1" d="M 10.1875 6.613281 C 10.1875 6.796875 10.046875 6.941406 9.878906 6.941406 C 9.707031 6.941406 9.570312 6.796875 9.570312 6.613281 C 9.570312 6.433594 9.707031 6.289062 9.878906 6.289062 C 10.046875 6.289062 10.1875 6.433594 10.1875 6.613281 Z M 10.1875 6.613281 "/>
<path fill-rule="nonzero" fill="rgb(100%, 100%, 0%)" fill-opacity="1" d="M 9.855469 6.945312 C 9.855469 7.125 9.71875 7.269531 9.546875 7.269531 C 9.378906 7.269531 9.238281 7.125 9.238281 6.945312 C 9.238281 6.761719 9.378906 6.617188 9.546875 6.617188 C 9.71875 6.617188 9.855469 6.761719 9.855469 6.945312 Z M 9.855469 6.945312 "/>
<path fill-rule="nonzero" fill="rgb(100%, 100%, 0%)" fill-opacity="1" d="M 10.597656 7.191406 C 10.597656 7.371094 10.460938 7.519531 10.289062 7.519531 C 10.117188 7.519531 9.980469 7.371094 9.980469 7.191406 C 9.980469 7.011719 10.117188 6.863281 10.289062 6.863281 C 10.460938 6.863281 10.597656 7.011719 10.597656 7.191406 Z M 10.597656 7.191406 "/>
<path fill-rule="nonzero" fill="rgb(100%, 100%, 0%)" fill-opacity="1" d="M 10.269531 7.4375 C 10.269531 7.617188 10.128906 7.765625 9.960938 7.765625 C 9.789062 7.765625 9.652344 7.617188 9.652344 7.4375 C 9.652344 7.257812 9.789062 7.109375 9.960938 7.109375 C 10.128906 7.109375 10.269531 7.257812 10.269531 7.4375 Z M 10.269531 7.4375 "/>
<path fill-rule="nonzero" fill="rgb(100%, 100%, 0%)" fill-opacity="1" d="M 10.597656 8.015625 C 10.597656 8.195312 10.460938 8.339844 10.289062 8.339844 C 10.117188 8.339844 9.980469 8.195312 9.980469 8.015625 C 9.980469 7.832031 10.117188 7.6875 10.289062 7.6875 C 10.460938 7.6875 10.597656 7.832031 10.597656 8.015625 Z M 10.597656 8.015625 "/>
<path fill-rule="nonzero" fill="rgb(100%, 100%, 0%)" fill-opacity="1" d="M 11.011719 7.851562 C 11.011719 8.03125 10.871094 8.175781 10.703125 8.175781 C 10.53125 8.175781 10.394531 8.03125 10.394531 7.851562 C 10.394531 7.667969 10.53125 7.523438 10.703125 7.523438 C 10.871094 7.523438 11.011719 7.667969 11.011719 7.851562 Z M 11.011719 7.851562 "/>
<path fill-rule="nonzero" fill="rgb(100%, 100%, 0%)" fill-opacity="1" d="M 11.175781 8.589844 C 11.175781 8.773438 11.035156 8.917969 10.867188 8.917969 C 10.695312 8.917969 10.558594 8.773438 10.558594 8.589844 C 10.558594 8.410156 10.695312 8.265625 10.867188 8.265625 C 11.035156 8.265625 11.175781 8.410156 11.175781 8.589844 Z M 11.175781 8.589844 "/>
<path fill-rule="nonzero" fill="rgb(100%, 100%, 0%)" fill-opacity="1" d="M 10.761719 8.671875 C 10.761719 8.855469 10.625 9 10.453125 9 C 10.285156 9 10.144531 8.855469 10.144531 8.671875 C 10.144531 8.492188 10.285156 8.347656 10.453125 8.347656 C 10.625 8.347656 10.761719 8.492188 10.761719 8.671875 Z M 10.761719 8.671875 "/>
<path fill-rule="nonzero" fill="rgb(100%, 100%, 0%)" fill-opacity="1" d="M 10.761719 9.414062 C 10.761719 9.59375 10.625 9.742188 10.453125 9.742188 C 10.285156 9.742188 10.144531 9.59375 10.144531 9.414062 C 10.144531 9.234375 10.285156 9.085938 10.453125 9.085938 C 10.625 9.085938 10.761719 9.234375 10.761719 9.414062 Z M 10.761719 9.414062 "/>
<path fill-rule="nonzero" fill="rgb(100%, 100%, 0%)" fill-opacity="1" d="M 11.257812 9.332031 C 11.257812 9.511719 11.117188 9.660156 10.949219 9.660156 C 10.777344 9.660156 10.640625 9.511719 10.640625 9.332031 C 10.640625 9.152344 10.777344 9.003906 10.949219 9.003906 C 11.117188 9.003906 11.257812 9.152344 11.257812 9.332031 Z M 11.257812 9.332031 "/>
<path fill-rule="nonzero" fill="rgb(100%, 100%, 0%)" fill-opacity="1" d="M 11.175781 10.15625 C 11.175781 10.335938 11.035156 10.484375 10.867188 10.484375 C 10.695312 10.484375 10.558594 10.335938 10.558594 10.15625 C 10.558594 9.976562 10.695312 9.828125 10.867188 9.828125 C 11.035156 9.828125 11.175781 9.976562 11.175781 10.15625 Z M 11.175781 10.15625 "/>
<path fill-rule="nonzero" fill="rgb(100%, 100%, 0%)" fill-opacity="1" d="M 10.761719 10.15625 C 10.761719 10.335938 10.625 10.484375 10.453125 10.484375 C 10.285156 10.484375 10.144531 10.335938 10.144531 10.15625 C 10.144531 9.976562 10.285156 9.828125 10.453125 9.828125 C 10.625 9.828125 10.761719 9.976562 10.761719 10.15625 Z M 10.761719 10.15625 "/>
<path fill-rule="nonzero" fill="rgb(100%, 100%, 0%)" fill-opacity="1" d="M 11.011719 10.980469 C 11.011719 11.160156 10.871094 11.304688 10.703125 11.304688 C 10.53125 11.304688 10.394531 11.160156 10.394531 10.980469 C 10.394531 10.796875 10.53125 10.652344 10.703125 10.652344 C 10.871094 10.652344 11.011719 10.796875 11.011719 10.980469 Z M 11.011719 10.980469 "/>
<path fill-rule="nonzero" fill="rgb(100%, 100%, 0%)" fill-opacity="1" d="M 10.515625 10.8125 C 10.515625 10.996094 10.378906 11.140625 10.207031 11.140625 C 10.035156 11.140625 9.898438 10.996094 9.898438 10.8125 C 9.898438 10.632812 10.035156 10.488281 10.207031 10.488281 C 10.378906 10.488281 10.515625 10.632812 10.515625 10.8125 Z M 10.515625 10.8125 "/>
<path fill-rule="nonzero" fill="rgb(100%, 100%, 0%)" fill-opacity="1" d="M 10.269531 11.472656 C 10.269531 11.652344 10.128906 11.800781 9.960938 11.800781 C 9.789062 11.800781 9.652344 11.652344 9.652344 11.472656 C 9.652344 11.292969 9.789062 11.144531 9.960938 11.144531 C 10.128906 11.144531 10.269531 11.292969 10.269531 11.472656 Z M 10.269531 11.472656 "/>
<path fill-rule="nonzero" fill="rgb(100%, 100%, 0%)" fill-opacity="1" d="M 10.761719 11.636719 C 10.761719 11.820312 10.625 11.964844 10.453125 11.964844 C 10.285156 11.964844 10.144531 11.820312 10.144531 11.636719 C 10.144531 11.457031 10.285156 11.3125 10.453125 11.3125 C 10.625 11.3125 10.761719 11.457031 10.761719 11.636719 Z M 10.761719 11.636719 "/>
<path fill-rule="nonzero" fill="rgb(100%, 100%, 0%)" fill-opacity="1" d="M 9.855469 12.050781 C 9.855469 12.230469 9.71875 12.375 9.546875 12.375 C 9.378906 12.375 9.238281 12.230469 9.238281 12.050781 C 9.238281 11.867188 9.378906 11.722656 9.546875 11.722656 C 9.71875 11.722656 9.855469 11.867188 9.855469 12.050781 Z M 9.855469 12.050781 "/>
<path fill-rule="nonzero" fill="rgb(100%, 100%, 0%)" fill-opacity="1" d="M 10.269531 12.296875 C 10.269531 12.476562 10.128906 12.625 9.960938 12.625 C 9.789062 12.625 9.652344 12.476562 9.652344 12.296875 C 9.652344 12.117188 9.789062 11.96875 9.960938 11.96875 C 10.128906 11.96875 10.269531 12.117188 10.269531 12.296875 Z M 10.269531 12.296875 "/>
<path fill-rule="nonzero" fill="rgb(100%, 100%, 0%)" fill-opacity="1" d="M 9.28125 12.460938 C 9.28125 12.640625 9.140625 12.789062 8.972656 12.789062 C 8.800781 12.789062 8.664062 12.640625 8.664062 12.460938 C 8.664062 12.28125 8.800781 12.132812 8.972656 12.132812 C 9.140625 12.132812 9.28125 12.28125 9.28125 12.460938 Z M 9.28125 12.460938 "/>
<path fill-rule="nonzero" fill="rgb(100%, 100%, 0%)" fill-opacity="1" d="M 9.609375 12.875 C 9.609375 13.054688 9.472656 13.199219 9.300781 13.199219 C 9.132812 13.199219 8.992188 13.054688 8.992188 12.875 C 8.992188 12.691406 9.132812 12.546875 9.300781 12.546875 C 9.472656 12.546875 9.609375 12.691406 9.609375 12.875 Z M 9.609375 12.875 "/>
<path fill-rule="nonzero" fill="rgb(100%, 100%, 0%)" fill-opacity="1" d="M 8.539062 12.789062 C 8.539062 12.972656 8.402344 13.117188 8.230469 13.117188 C 8.058594 13.117188 7.921875 12.972656 7.921875 12.789062 C 7.921875 12.609375 8.058594 12.464844 8.230469 12.464844 C 8.402344 12.464844 8.539062 12.609375 8.539062 12.789062 Z M 8.539062 12.789062 "/>
<path fill-rule="nonzero" fill="rgb(100%, 100%, 0%)" fill-opacity="1" d="M 8.703125 13.203125 C 8.703125 13.382812 8.566406 13.53125 8.394531 13.53125 C 8.226562 13.53125 8.085938 13.382812 8.085938 13.203125 C 8.085938 13.023438 8.226562 12.875 8.394531 12.875 C 8.566406 12.875 8.703125 13.023438 8.703125 13.203125 Z M 8.703125 13.203125 "/>
<path fill-rule="nonzero" fill="rgb(100%, 100%, 0%)" fill-opacity="1" d="M 7.878906 12.957031 C 7.878906 13.136719 7.742188 13.28125 7.570312 13.28125 C 7.402344 13.28125 7.261719 13.136719 7.261719 12.957031 C 7.261719 12.773438 7.402344 12.628906 7.570312 12.628906 C 7.742188 12.628906 7.878906 12.773438 7.878906 12.957031 Z M 7.878906 12.957031 "/>
<path fill-rule="nonzero" fill="rgb(100%, 100%, 0%)" fill-opacity="1" d="M 7.878906 13.367188 C 7.878906 13.546875 7.742188 13.695312 7.570312 13.695312 C 7.402344 13.695312 7.261719 13.546875 7.261719 13.367188 C 7.261719 13.1875 7.402344 13.039062 7.570312 13.039062 C 7.742188 13.039062 7.878906 13.1875 7.878906 13.367188 Z M 7.878906 13.367188 "/>
<path fill-rule="nonzero" fill="rgb(100%, 100%, 0%)" fill-opacity="1" d="M 7.058594 13.367188 C 7.058594 13.546875 6.917969 13.695312 6.75 13.695312 C 6.578125 13.695312 6.441406 13.546875 6.441406 13.367188 C 6.441406 13.1875 6.578125 13.039062 6.75 13.039062 C 6.917969 13.039062 7.058594 13.1875 7.058594 13.367188 Z M 7.058594 13.367188 "/>
<path fill-rule="nonzero" fill="rgb(100%, 100%, 0%)" fill-opacity="1" d="M 7.058594 12.957031 C 7.058594 13.136719 6.917969 13.28125 6.75 13.28125 C 6.578125 13.28125 6.441406 13.136719 6.441406 12.957031 C 6.441406 12.773438 6.578125 12.628906 6.75 12.628906 C 6.917969 12.628906 7.058594 12.773438 7.058594 12.957031 Z M 7.058594 12.957031 "/>
<path fill-rule="nonzero" fill="rgb(100%, 100%, 0%)" fill-opacity="1" d="M 6.316406 12.875 C 6.316406 13.054688 6.179688 13.199219 6.007812 13.199219 C 5.835938 13.199219 5.699219 13.054688 5.699219 12.875 C 5.699219 12.691406 5.835938 12.546875 6.007812 12.546875 C 6.179688 12.546875 6.316406 12.691406 6.316406 12.875 Z M 6.316406 12.875 "/>
<path fill-rule="nonzero" fill="rgb(100%, 100%, 0%)" fill-opacity="1" d="M 6.234375 13.367188 C 6.234375 13.546875 6.09375 13.695312 5.925781 13.695312 C 5.753906 13.695312 5.617188 13.546875 5.617188 13.367188 C 5.617188 13.1875 5.753906 13.039062 5.925781 13.039062 C 6.09375 13.039062 6.234375 13.1875 6.234375 13.367188 Z M 6.234375 13.367188 "/>
<path fill-rule="nonzero" fill="rgb(100%, 100%, 0%)" fill-opacity="1" d="M 5.492188 13.121094 C 5.492188 13.300781 5.355469 13.445312 5.183594 13.445312 C 5.011719 13.445312 4.875 13.300781 4.875 13.121094 C 4.875 12.941406 5.011719 12.792969 5.183594 12.792969 C 5.355469 12.792969 5.492188 12.941406 5.492188 13.121094 Z M 5.492188 13.121094 "/>
<path fill-rule="nonzero" fill="rgb(100%, 100%, 0%)" fill-opacity="1" d="M 5.65625 12.625 C 5.65625 12.808594 5.519531 12.953125 5.347656 12.953125 C 5.179688 12.953125 5.039062 12.808594 5.039062 12.625 C 5.039062 12.445312 5.179688 12.300781 5.347656 12.300781 C 5.519531 12.300781 5.65625 12.445312 5.65625 12.625 Z M 5.65625 12.625 "/>
<path fill-rule="nonzero" fill="rgb(100%, 100%, 0%)" fill-opacity="1" d="M 4.914062 12.378906 C 4.914062 12.558594 4.777344 12.707031 4.605469 12.707031 C 4.4375 12.707031 4.296875 12.558594 4.296875 12.378906 C 4.296875 12.199219 4.4375 12.050781 4.605469 12.050781 C 4.777344 12.050781 4.914062 12.199219 4.914062 12.378906 Z M 4.914062 12.378906 "/>
<path fill-rule="nonzero" fill="rgb(100%, 100%, 0%)" fill-opacity="1" d="M 4.914062 12.378906 C 4.914062 12.558594 4.777344 12.707031 4.605469 12.707031 C 4.4375 12.707031 4.296875 12.558594 4.296875 12.378906 C 4.296875 12.199219 4.4375 12.050781 4.605469 12.050781 C 4.777344 12.050781 4.914062 12.199219 4.914062 12.378906 Z M 4.914062 12.378906 "/>
<path fill-rule="nonzero" fill="rgb(100%, 100%, 0%)" fill-opacity="1" d="M 4.75 12.789062 C 4.75 12.972656 4.613281 13.117188 4.441406 13.117188 C 4.273438 13.117188 4.132812 12.972656 4.132812 12.789062 C 4.132812 12.609375 4.273438 12.464844 4.441406 12.464844 C 4.613281 12.464844 4.75 12.609375 4.75 12.789062 Z M 4.75 12.789062 "/>
<path fill-rule="nonzero" fill="rgb(100%, 100%, 0%)" fill-opacity="1" d="M 4.011719 12.460938 C 4.011719 12.640625 3.871094 12.789062 3.703125 12.789062 C 3.53125 12.789062 3.394531 12.640625 3.394531 12.460938 C 3.394531 12.28125 3.53125 12.132812 3.703125 12.132812 C 3.871094 12.132812 4.011719 12.28125 4.011719 12.460938 Z M 4.011719 12.460938 "/>
<path fill-rule="nonzero" fill="rgb(100%, 100%, 0%)" fill-opacity="1" d="M 4.339844 12.050781 C 4.339844 12.230469 4.203125 12.375 4.03125 12.375 C 3.859375 12.375 3.722656 12.230469 3.722656 12.050781 C 3.722656 11.867188 3.859375 11.722656 4.03125 11.722656 C 4.203125 11.722656 4.339844 11.867188 4.339844 12.050781 Z M 4.339844 12.050781 "/>
<path fill-rule="nonzero" fill="rgb(100%, 100%, 0%)" fill-opacity="1" d="M 4.339844 12.050781 C 4.339844 12.230469 4.203125 12.375 4.03125 12.375 C 3.859375 12.375 3.722656 12.230469 3.722656 12.050781 C 3.722656 11.867188 3.859375 11.722656 4.03125 11.722656 C 4.203125 11.722656 4.339844 11.867188 4.339844 12.050781 Z M 4.339844 12.050781 "/>
</svg>
