<?xml version="1.0" encoding="UTF-8"?>
<svg xmlns="http://www.w3.org/2000/svg" xmlns:xlink="http://www.w3.org/1999/xlink" width="15" height="15" viewBox="0 0 15 15">
<path fill-rule="nonzero" fill="rgb(100%, 100%, 100%)" fill-opacity="1" stroke-width="10" stroke-linecap="butt" stroke-linejoin="miter" stroke="rgb(100%, 0%, 0%)" stroke-opacity="1" stroke-miterlimit="4" d="M 5.013021 5.013021 L 5.013021 148.986979 L 148.986979 148.986979 L 148.986979 5.013021 Z M 5.013021 5.013021 " transform="matrix(0.0974026, 0, 0, 0.0974026, 0, 0)"/>
<path fill-rule="nonzero" fill="rgb(100%, 0%, 0%)" fill-opacity="1" d="M 4.421875 2.324219 L 5.828125 2.324219 L 5.828125 12.144531 L 4.421875 12.144531 L 4.421875 3.726562 L 3.027344 5.132812 L 3.027344 3.726562 L 4.421875 2.324219 "/>
<path fill-rule="nonzero" fill="rgb(100%, 0%, 0%)" fill-opacity="1" d="M 8.957031 2.324219 L 10.359375 2.324219 L 8.957031 9.335938 L 10.011719 9.335938 L 10.011719 7.234375 L 11.414062 7.234375 L 11.414062 9.335938 L 11.765625 9.335938 L 11.765625 10.742188 L 11.414062 10.742188 L 11.414062 12.144531 L 10.011719 12.144531 L 10.011719 10.742188 L 7.554688 10.742188 L 7.554688 9.335938 L 8.957031 2.324219 "/>
</svg>
