<?xml version="1.0" encoding="UTF-8"?>
<svg xmlns="http://www.w3.org/2000/svg" xmlns:xlink="http://www.w3.org/1999/xlink" width="14" height="14" viewBox="0 0 14 14">
<path fill-rule="nonzero" fill="rgb(0%, 0%, 0%)" fill-opacity="1" stroke-width="10" stroke-linecap="butt" stroke-linejoin="miter" stroke="rgb(100%, 100%, 100%)" stroke-opacity="1" stroke-miterlimit="4" d="M 7.991071 7.991071 L 7.991071 152.008929 L 152.008929 152.008929 L 152.008929 7.991071 Z M 7.991071 7.991071 " transform="matrix(0.0875, 0, 0, 0.0875, 0, 0)"/>
<path fill-rule="nonzero" fill="rgb(100%, 100%, 100%)" fill-opacity="1" d="M 3.703125 3.957031 L 3.675781 3.957031 L 2.195312 4.753906 L 1.96875 3.875 L 3.835938 2.875 L 4.820312 2.875 L 4.820312 11.410156 L 3.703125 11.410156 Z M 3.703125 3.957031 "/>
<path fill-rule="nonzero" fill="rgb(100%, 100%, 100%)" fill-opacity="1" d="M 12.03125 10.375 L 12.03125 11.410156 L 6.222656 11.410156 C 6.214844 11.152344 6.257812 10.902344 6.347656 10.660156 C 6.496094 10.265625 6.734375 9.875 7.058594 9.492188 C 7.382812 9.109375 7.851562 8.667969 8.46875 8.164062 C 9.425781 7.378906 10.070312 6.757812 10.40625 6.300781 C 10.742188 5.84375 10.910156 5.410156 10.910156 5.003906 C 10.910156 4.574219 10.753906 4.214844 10.453125 3.921875 C 10.144531 3.628906 9.746094 3.480469 9.257812 3.480469 C 8.734375 3.480469 8.320312 3.636719 8.011719 3.949219 C 7.695312 4.261719 7.539062 4.691406 7.535156 5.242188 L 6.425781 5.128906 C 6.5 4.300781 6.789062 3.671875 7.285156 3.238281 C 7.78125 2.808594 8.445312 2.589844 9.277344 2.589844 C 10.121094 2.589844 10.789062 2.820312 11.28125 3.289062 C 11.773438 3.757812 12.015625 4.339844 12.015625 5.027344 C 12.015625 5.382812 11.949219 5.722656 11.800781 6.066406 C 11.660156 6.40625 11.417969 6.761719 11.085938 7.136719 C 10.75 7.515625 10.199219 8.027344 9.425781 8.683594 C 8.777344 9.226562 8.359375 9.597656 8.175781 9.789062 C 7.992188 9.980469 7.84375 10.179688 7.722656 10.375 Z M 12.03125 10.375 "/>
</svg>
