<?xml version="1.0" encoding="UTF-8"?>
<svg xmlns="http://www.w3.org/2000/svg" xmlns:xlink="http://www.w3.org/1999/xlink" width="15" height="15" viewBox="0 0 15 15">
<path fill-rule="nonzero" fill="rgb(100%, 100%, 100%)" fill-opacity="1" stroke-width="10" stroke-linecap="butt" stroke-linejoin="miter" stroke="rgb(100%, 0%, 0%)" stroke-opacity="1" stroke-miterlimit="4" d="M 5.013021 5.013021 L 5.013021 148.986979 L 148.986979 148.986979 L 148.986979 5.013021 Z M 5.013021 5.013021 " transform="matrix(0.0974026, 0, 0, 0.0974026, 0, 0)"/>
<path fill-rule="nonzero" fill="rgb(100%, 0%, 0%)" fill-opacity="1" d="M 3.078125 2.324219 L 6.972656 2.324219 L 6.972656 3.726562 L 4.476562 3.726562 L 4.476562 5.960938 C 4.699219 5.878906 4.933594 5.835938 5.179688 5.832031 C 5.761719 5.832031 6.253906 6.039062 6.667969 6.453125 C 7.078125 6.863281 7.28125 7.359375 7.28125 7.941406 L 7.28125 10.042969 C 7.28125 10.621094 7.078125 11.117188 6.667969 11.527344 C 6.253906 11.9375 5.761719 12.144531 5.179688 12.144531 C 4.601562 12.144531 4.105469 11.9375 3.695312 11.527344 C 3.28125 11.117188 3.078125 10.621094 3.078125 10.042969 L 3.078125 9.335938 L 4.476562 9.335938 L 4.476562 10.042969 C 4.476562 10.238281 4.542969 10.40625 4.679688 10.542969 C 4.816406 10.675781 4.984375 10.742188 5.179688 10.742188 C 5.375 10.742188 5.539062 10.675781 5.671875 10.542969 C 5.808594 10.40625 5.878906 10.238281 5.878906 10.042969 L 5.878906 7.941406 C 5.878906 7.742188 5.808594 7.578125 5.671875 7.441406 C 5.539062 7.304688 5.375 7.234375 5.179688 7.234375 C 4.984375 7.234375 4.816406 7.304688 4.679688 7.441406 C 4.542969 7.578125 4.476562 7.742188 4.476562 7.941406 L 3.078125 7.941406 L 3.078125 2.324219 "/>
<path fill-rule="nonzero" fill="rgb(100%, 0%, 0%)" fill-opacity="1" d="M 10.070312 2.324219 L 12.019531 2.324219 L 12.019531 3.027344 L 10.769531 3.027344 L 10.769531 4.140625 C 10.878906 4.101562 10.996094 4.078125 11.121094 4.078125 C 11.410156 4.078125 11.660156 4.179688 11.863281 4.390625 C 12.070312 4.59375 12.171875 4.84375 12.171875 5.132812 L 12.171875 6.183594 C 12.171875 6.472656 12.070312 6.71875 11.863281 6.925781 C 11.660156 7.132812 11.410156 7.234375 11.121094 7.234375 C 10.832031 7.234375 10.582031 7.132812 10.378906 6.925781 C 10.171875 6.71875 10.070312 6.472656 10.070312 6.183594 L 10.070312 5.832031 L 10.769531 5.832031 L 10.769531 6.183594 C 10.769531 6.28125 10.800781 6.363281 10.871094 6.433594 C 10.941406 6.5 11.023438 6.53125 11.121094 6.53125 C 11.21875 6.53125 11.300781 6.5 11.367188 6.433594 C 11.4375 6.363281 11.46875 6.28125 11.46875 6.183594 L 11.46875 5.132812 C 11.46875 5.035156 11.4375 4.949219 11.367188 4.882812 C 11.300781 4.8125 11.21875 4.777344 11.121094 4.777344 C 11.023438 4.777344 10.941406 4.8125 10.871094 4.882812 C 10.800781 4.949219 10.769531 5.035156 10.769531 5.132812 L 10.070312 5.132812 L 10.070312 2.324219 "/>
<path fill-rule="nonzero" fill="rgb(100%, 0%, 0%)" fill-opacity="1" d="M 8.054688 2.324219 L 9.03125 2.324219 L 9.03125 3.300781 L 8.054688 3.300781 L 8.054688 2.324219 "/>
</svg>
