<?xml version="1.0" encoding="UTF-8"?>
<svg xmlns="http://www.w3.org/2000/svg" xmlns:xlink="http://www.w3.org/1999/xlink" width="14" height="14" viewBox="0 0 14 14">
<path fill-rule="nonzero" fill="rgb(0%, 0%, 0%)" fill-opacity="1" stroke-width="10" stroke-linecap="butt" stroke-linejoin="miter" stroke="rgb(100%, 100%, 100%)" stroke-opacity="1" stroke-miterlimit="4" d="M 5.027343 5.027343 L 5.027343 148.972649 L 148.972649 148.972649 L 148.972649 5.027343 Z M 5.027343 5.027343 " transform="matrix(0.0909091, 0, 0, 0.0909091, 0, 0)"/>
<path fill-rule="nonzero" fill="rgb(100%, 100%, 100%)" fill-opacity="1" d="M 3.703125 3.6875 L 3.675781 3.6875 L 2.136719 4.515625 L 1.902344 3.601562 L 3.839844 2.566406 L 4.863281 2.566406 L 4.863281 11.433594 L 3.703125 11.433594 Z M 3.703125 3.6875 "/>
<path fill-rule="nonzero" fill="rgb(100%, 100%, 100%)" fill-opacity="1" d="M 12.097656 6.90625 C 12.097656 9.921875 10.964844 11.582031 9.015625 11.582031 C 7.28125 11.582031 6.097656 9.960938 6.066406 7.027344 C 6.066406 4.039062 7.363281 2.417969 9.164062 2.417969 C 11.019531 2.417969 12.097656 4.078125 12.097656 6.90625 Z M 7.28125 7.039062 C 7.28125 9.347656 7.992188 10.65625 9.082031 10.65625 C 10.296875 10.65625 10.882812 9.222656 10.882812 6.960938 C 10.882812 4.777344 10.335938 3.34375 9.082031 3.34375 C 8.046875 3.34375 7.28125 4.625 7.28125 7.039062 Z M 7.28125 7.039062 "/>
</svg>
