<?xml version="1.0" encoding="UTF-8"?>
<svg xmlns="http://www.w3.org/2000/svg" xmlns:xlink="http://www.w3.org/1999/xlink" width="16" height="16" viewBox="0 0 16 16">
<path fill-rule="nonzero" fill="rgb(100%, 100%, 100%)" fill-opacity="1" stroke-width="10" stroke-linecap="butt" stroke-linejoin="miter" stroke="rgb(100%, 0%, 0%)" stroke-opacity="1" stroke-miterlimit="4" d="M 5.000493 5.000493 L 5.000493 148.999661 L 148.999661 148.999661 L 148.999661 5.000493 Z M 5.000493 5.000493 " transform="matrix(0.103896, 0, 0, 0.103896, 0, 0)"/>
<path fill-rule="nonzero" fill="rgb(100%, 0%, 0%)" fill-opacity="1" d="M 10.0625 2.480469 L 12.140625 2.480469 L 12.140625 3.230469 L 10.808594 3.230469 L 10.808594 4.417969 C 10.925781 4.375 11.050781 4.351562 11.183594 4.351562 C 11.492188 4.351562 11.757812 4.457031 11.976562 4.683594 C 12.195312 4.898438 12.304688 5.167969 12.304688 5.476562 L 12.304688 6.597656 C 12.304688 6.902344 12.195312 7.167969 11.976562 7.386719 C 11.757812 7.609375 11.492188 7.714844 11.183594 7.714844 C 10.875 7.714844 10.609375 7.609375 10.390625 7.386719 C 10.171875 7.167969 10.0625 6.902344 10.0625 6.597656 L 10.0625 6.222656 L 10.808594 6.222656 L 10.808594 6.597656 C 10.808594 6.699219 10.839844 6.789062 10.917969 6.863281 C 10.992188 6.933594 11.078125 6.964844 11.183594 6.964844 C 11.289062 6.964844 11.375 6.933594 11.445312 6.863281 C 11.519531 6.789062 11.554688 6.699219 11.554688 6.597656 L 11.554688 5.476562 C 11.554688 5.371094 11.519531 5.277344 11.445312 5.207031 C 11.375 5.132812 11.289062 5.097656 11.183594 5.097656 C 11.078125 5.097656 10.992188 5.132812 10.917969 5.207031 C 10.839844 5.277344 10.808594 5.371094 10.808594 5.476562 L 10.0625 5.476562 L 10.0625 2.480469 "/>
<path fill-rule="nonzero" fill="rgb(100%, 0%, 0%)" fill-opacity="1" d="M 7.878906 2.480469 L 8.921875 2.480469 L 8.921875 3.519531 L 7.878906 3.519531 L 7.878906 2.480469 "/>
<path fill-rule="nonzero" fill="rgb(100%, 0%, 0%)" fill-opacity="1" d="M 3.601562 3.140625 C 4.039062 2.699219 4.570312 2.480469 5.191406 2.480469 C 5.808594 2.480469 6.335938 2.699219 6.773438 3.140625 C 7.210938 3.582031 7.433594 4.109375 7.433594 4.730469 L 7.433594 10.710938 C 7.433594 11.328125 7.210938 11.859375 6.773438 12.296875 C 6.335938 12.734375 5.808594 12.953125 5.191406 12.953125 C 4.570312 12.953125 4.039062 12.734375 3.601562 12.296875 C 3.164062 11.859375 2.945312 11.328125 2.945312 10.710938 L 2.945312 4.730469 C 2.945312 4.109375 3.164062 3.582031 3.601562 3.140625 M 5.714844 4.195312 C 5.574219 4.050781 5.398438 3.976562 5.191406 3.976562 C 4.976562 3.976562 4.804688 4.050781 4.65625 4.195312 C 4.511719 4.339844 4.4375 4.519531 4.4375 4.730469 L 4.4375 10.710938 C 4.4375 10.921875 4.511719 11.101562 4.65625 11.246094 C 4.804688 11.386719 4.976562 11.457031 5.191406 11.457031 C 5.398438 11.457031 5.574219 11.386719 5.714844 11.246094 C 5.863281 11.101562 5.9375 10.921875 5.9375 10.710938 L 5.9375 4.730469 C 5.9375 4.519531 5.863281 4.339844 5.714844 4.195312 "/>
</svg>
