<?xml version="1.0" encoding="UTF-8"?>
<svg xmlns="http://www.w3.org/2000/svg" xmlns:xlink="http://www.w3.org/1999/xlink" width="16" height="20.616919" viewBox="0 0 16 20.616919">
<path fill-rule="nonzero" fill="rgb(100%, 100%, 100%)" fill-opacity="1" d="M 8 4.621094 L 0 12.617188 L 8 20.617188 L 15.996094 12.617188 Z M 8 5.945312 L 14.671875 12.617188 L 8 19.289062 L 1.328125 12.617188 Z M 8 5.945312 "/>
<path fill-rule="nonzero" fill="rgb(0%, 26.666667%, 66.666667%)" fill-opacity="1" stroke-width="0.414196" stroke-linecap="square" stroke-linejoin="miter" stroke="rgb(0%, 0%, 0%)" stroke-opacity="1" stroke-miterlimit="4" d="M 1.457736 13.848488 L 8.780713 6.52551 L 16.103691 13.848488 L 8.780713 21.171465 Z M 1.457736 13.848488 L 1.457736 13.848488 M 1.457736 13.848488 L 1.457736 13.848488 M 1.457736 13.848488 L 1.457736 13.848488 M 1.457736 13.848488 L 1.457736 13.848488 M 1.457736 13.848488 L 1.457736 13.848488 M 1.457736 13.848488 L 1.457736 13.848488 M 1.457736 13.848488 L 1.457736 13.848488 M 1.457736 13.848488 " transform="matrix(0.911088, 0, 0, 0.911088, 0, 0)"/>
<path fill-rule="nonzero" fill="rgb(100%, 100%, 100%)" fill-opacity="1" d="M 8 7.945312 L 3.328125 12.617188 L 8 17.289062 L 12.667969 12.617188 Z M 8 9.347656 L 11.269531 12.617188 L 8 15.886719 L 4.730469 12.617188 Z M 8 10.714844 L 6.105469 12.617188 L 8 14.511719 L 9.902344 12.617188 Z M 8 10.714844 "/>
<path fill-rule="nonzero" fill="rgb(0%, 26.666667%, 66.666667%)" fill-opacity="1" d="M 8 9.347656 L 4.730469 12.617188 L 8 15.886719 L 11.269531 12.617188 Z M 8 10.714844 L 9.902344 12.617188 L 8 14.511719 L 6.105469 12.617188 Z M 8 10.714844 "/>
<path fill-rule="nonzero" fill="rgb(100%, 100%, 100%)" fill-opacity="1" d="M 16 0 L 2.480469 0 L 0.00390625 2.476562 L 2.480469 4.957031 L 16 4.957031 Z M 16 0 "/>
<path fill-rule="nonzero" fill="rgb(0%, 26.666667%, 66.666667%)" fill-opacity="1" d="M 2.753906 0.339844 L 3.964844 1.542969 L 15.570312 1.542969 L 15.570312 3.40625 L 3.964844 3.40625 L 2.753906 4.621094 L 0.621094 2.476562 Z M 2.753906 0.339844 "/>
</svg>
