<?xml version="1.0" encoding="UTF-8"?>
<svg xmlns="http://www.w3.org/2000/svg" xmlns:xlink="http://www.w3.org/1999/xlink" width="24.801272" height="5" viewBox="0 0 24.801272 5">
<path fill-rule="nonzero" fill="rgb(100%, 100%, 100%)" fill-opacity="1" d="M 0 0 L 0 5 L 1.730469 5 L 4.402344 0 Z M 7.46875 0 L 4.792969 5 L 9.292969 5 L 11.96875 0 Z M 15.03125 0 L 12.355469 5 L 17.148438 5 L 19.824219 0 Z M 22.890625 0 L 20.214844 5 L 24.800781 5 L 24.800781 0 Z M 22.890625 0 "/>
<path fill-rule="nonzero" fill="rgb(0%, 0%, 0%)" fill-opacity="1" d="M 4.402344 0 L 7.46875 0 L 4.792969 5 L 1.726562 5 Z M 4.402344 0 "/>
<path fill-rule="nonzero" fill="rgb(0%, 0%, 0%)" fill-opacity="1" d="M 11.96875 0 L 15.03125 0 L 12.355469 5 L 9.292969 5 Z M 11.96875 0 "/>
<path fill-rule="nonzero" fill="rgb(0%, 0%, 0%)" fill-opacity="1" d="M 19.824219 0 L 22.890625 0 L 20.214844 5 L 17.148438 5 Z M 19.824219 0 "/>
</svg>
