<?xml version="1.0" encoding="UTF-8"?>
<svg xmlns="http://www.w3.org/2000/svg" xmlns:xlink="http://www.w3.org/1999/xlink" width="16" height="20.555578" viewBox="0 0 16 20.555578">
<path fill-rule="nonzero" fill="rgb(100%, 100%, 100%)" fill-opacity="1" d="M 7.976562 4.605469 L 0 12.578125 L 7.976562 20.554688 L 15.949219 12.578125 Z M 7.976562 5.925781 L 14.628906 12.578125 L 7.976562 19.230469 L 1.324219 12.578125 Z M 7.976562 5.925781 "/>
<path fill-rule="nonzero" fill="rgb(0%, 26.666667%, 66.666667%)" fill-opacity="1" stroke-width="0.414196" stroke-linecap="square" stroke-linejoin="miter" stroke="rgb(0%, 0%, 0%)" stroke-opacity="1" stroke-miterlimit="4" d="M 1.457785 13.846812 L 8.781115 6.523482 L 16.104444 13.846812 L 8.781115 21.170141 Z M 1.457785 13.846812 L 1.457785 13.846812 M 1.457785 13.846812 L 1.457785 13.846812 M 1.457785 13.846812 L 1.457785 13.846812 M 1.457785 13.846812 L 1.457785 13.846812 M 1.457785 13.846812 L 1.457785 13.846812 M 1.457785 13.846812 L 1.457785 13.846812 M 1.457785 13.846812 L 1.457785 13.846812 M 1.457785 13.846812 " transform="matrix(0.908377, 0, 0, 0.908377, 0, 0)"/>
<path fill-rule="nonzero" fill="rgb(100%, 100%, 100%)" fill-opacity="1" d="M 7.976562 7.921875 L 3.316406 12.578125 L 7.976562 17.238281 L 12.632812 12.578125 Z M 7.976562 9.320312 L 11.234375 12.578125 L 7.976562 15.839844 L 4.714844 12.578125 Z M 7.976562 10.683594 L 6.089844 12.578125 L 7.976562 14.464844 L 9.871094 12.578125 Z M 7.976562 10.683594 "/>
<path fill-rule="nonzero" fill="rgb(0%, 26.666667%, 66.666667%)" fill-opacity="1" d="M 7.976562 9.320312 L 4.714844 12.578125 L 7.976562 15.839844 L 11.234375 12.578125 Z M 7.976562 10.683594 L 9.871094 12.578125 L 7.976562 14.464844 L 6.089844 12.578125 Z M 7.976562 10.683594 "/>
<path fill-rule="nonzero" fill="rgb(100%, 100%, 100%)" fill-opacity="1" d="M 0.0507812 0 L 13.539062 0 L 16 2.46875 L 13.539062 4.941406 L 0.0507812 4.941406 Z M 0.0507812 0 "/>
<path fill-rule="nonzero" fill="rgb(0%, 26.666667%, 66.666667%)" fill-opacity="1" d="M 13.347656 0.335938 L 12.140625 1.539062 L 0.566406 1.539062 L 0.566406 3.394531 L 12.140625 3.394531 L 13.347656 4.605469 L 15.480469 2.46875 Z M 13.347656 0.335938 "/>
</svg>
