<?xml version="1.0" encoding="UTF-8"?>
<svg xmlns="http://www.w3.org/2000/svg" xmlns:xlink="http://www.w3.org/1999/xlink" width="16.294243" height="10" viewBox="0 0 16.294243 10">
<path fill="none" stroke-width="0.779165" stroke-linecap="round" stroke-linejoin="miter" stroke="rgb(0%, 0%, 0%)" stroke-opacity="1" stroke-miterlimit="4" d="M 103.07515 86.796145 L 134.694913 86.796145 C 134.804977 86.796145 134.891455 86.890486 134.891455 86.992688 L 134.891455 105.955111 C 134.891455 106.057314 134.804977 106.151654 134.694913 106.151654 L 103.07515 106.151654 C 102.965087 106.151654 102.870746 106.057314 102.870746 105.955111 L 102.870746 86.992688 C 102.870746 86.890486 102.965087 86.796145 103.07515 86.796145 Z M 103.07515 86.796145 " transform="matrix(0.496871, 0, 0, 0.496871, -50.922066, -42.935066)"/>
<path fill-rule="nonzero" fill="rgb(100%, 100%, 100%)" fill-opacity="1" d="M 0.292969 0.191406 L 16.003906 0.191406 C 16.058594 0.191406 16.101562 0.238281 16.101562 0.289062 L 16.101562 9.710938 C 16.101562 9.761719 16.058594 9.808594 16.003906 9.808594 L 0.292969 9.808594 C 0.238281 9.808594 0.191406 9.761719 0.191406 9.710938 L 0.191406 0.289062 C 0.191406 0.238281 0.238281 0.191406 0.292969 0.191406 Z M 0.292969 0.191406 "/>
<path fill-rule="nonzero" fill="rgb(100%, 0%, 0%)" fill-opacity="1" d="M 1.582031 1.472656 L 14.714844 1.472656 C 14.777344 1.472656 14.828125 1.515625 14.828125 1.574219 L 14.828125 8.425781 C 14.828125 8.484375 14.777344 8.527344 14.714844 8.527344 L 1.582031 8.527344 C 1.519531 8.527344 1.46875 8.484375 1.46875 8.425781 L 1.46875 1.574219 C 1.46875 1.515625 1.519531 1.472656 1.582031 1.472656 Z M 1.582031 1.472656 "/>
</svg>
