<?xml version="1.0" encoding="UTF-8"?>
<svg xmlns="http://www.w3.org/2000/svg" xmlns:xlink="http://www.w3.org/1999/xlink" width="16" height="28.140527" viewBox="0 0 16 28.140527">
<path fill-rule="nonzero" fill="rgb(0%, 26.666667%, 66.666667%)" fill-opacity="1" stroke-width="0.332909" stroke-linecap="square" stroke-linejoin="miter" stroke="rgb(0%, 0%, 0%)" stroke-opacity="1" stroke-miterlimit="4" d="M 0.236081 15.405012 L 6.114191 9.523913 L 12.004256 15.405012 L 6.114191 21.292088 Z M 0.233092 15.405012 L 0.236081 15.405012 M 0.236081 15.405012 L 0.236081 15.405012 M 0.233092 15.405012 L 0.236081 15.405012 M 0.236081 15.405012 L 0.236081 15.405012 M 0.233092 15.405012 L 0.236081 15.405012 M 0.236081 15.405012 L 0.236081 15.405012 M 0.233092 15.405012 L 0.236081 15.405012 M 0.236081 15.405012 " transform="matrix(1.307154, 0, 0, 1.307154, 0, 0.00000109625)"/>
<path fill-rule="nonzero" fill="rgb(100%, 100%, 100%)" fill-opacity="1" d="M 7.992188 14.75 L 2.605469 20.136719 L 7.992188 25.519531 L 13.390625 20.136719 Z M 7.992188 16.371094 L 11.765625 20.136719 L 7.992188 23.910156 L 4.230469 20.136719 Z M 7.992188 17.953125 L 5.808594 20.136719 L 7.992188 22.328125 L 10.183594 20.136719 Z M 7.992188 17.953125 "/>
<path fill-rule="nonzero" fill="rgb(0%, 26.666667%, 66.666667%)" fill-opacity="1" d="M 7.992188 16.371094 L 4.230469 20.136719 L 7.992188 23.910156 L 11.765625 20.136719 Z M 7.992188 17.953125 L 10.183594 20.136719 L 7.992188 22.328125 L 5.808594 20.136719 Z M 7.992188 17.953125 "/>
<path fill-rule="nonzero" fill="rgb(100%, 100%, 100%)" fill-opacity="1" d="M 10.332031 12.234375 L 10.332031 1.890625 L 8 0 L 5.675781 1.890625 L 5.675781 12.234375 Z M 10.332031 12.234375 "/>
<path fill-rule="nonzero" fill="rgb(0%, 26.666667%, 66.666667%)" fill-opacity="1" d="M 9.425781 2.570312 L 8.613281 3.378906 L 8.613281 11.085938 L 7.378906 11.085938 L 7.378906 3.378906 L 6.582031 2.570312 L 7.996094 1.144531 Z M 9.425781 2.570312 "/>
</svg>
