<?xml version="1.0" encoding="UTF-8"?>
<svg xmlns="http://www.w3.org/2000/svg" xmlns:xlink="http://www.w3.org/1999/xlink" width="13.898065" height="22" viewBox="0 0 13.898065 22">
<path fill-rule="nonzero" fill="rgb(0%, 0%, 0%)" fill-opacity="1" d="M 1.203125 4.792969 L 2.683594 4.792969 L 2.683594 22 L 1.203125 22 Z M 1.203125 4.792969 "/>
<path fill-rule="nonzero" fill="rgb(100%, 100%, 100%)" fill-opacity="1" stroke-width="54.789864" stroke-linecap="butt" stroke-linejoin="miter" stroke="rgb(74.901961%, 13.333333%, 20.392157%)" stroke-opacity="1" stroke-miterlimit="4" d="M 663.6775 168.048544 L 133.774119 701.275505 L 27.41954 595.12865 L 557.322921 61.901689 " transform="matrix(0.018805, 0, 0, 0.018805, 0, 0)"/>
<path fill-rule="nonzero" fill="rgb(100%, 100%, 100%)" fill-opacity="1" stroke-width="59.132637" stroke-linecap="round" stroke-linejoin="round" stroke="rgb(74.901961%, 13.333333%, 20.392157%)" stroke-opacity="1" stroke-miterlimit="4" d="M 709.584457 200.453454 C 709.584457 294.55233 633.142103 371.202407 538.835504 371.202407 C 444.736628 371.202407 368.294274 294.55233 368.294274 200.453454 C 368.294274 106.146855 444.736628 29.496778 538.835504 29.496778 C 633.142103 29.496778 709.584457 106.146855 709.584457 200.453454 Z M 709.584457 200.453454 " transform="matrix(0.018805, 0, 0, 0.018805, 0, 0)"/>
</svg>
