<?xml version="1.0" encoding="UTF-8"?>
<svg xmlns="http://www.w3.org/2000/svg" xmlns:xlink="http://www.w3.org/1999/xlink" width="10.960938" height="22" viewBox="0 0 10.960938 22">
<path fill-rule="nonzero" fill="rgb(0%, 0%, 0%)" fill-opacity="0.960784" d="M 0.820312 0 L 0 0.820312 L 0 21.175781 L 0.820312 22 L 10.140625 22 L 10.960938 21.175781 L 10.960938 0.820312 L 10.140625 0 Z M 0.820312 0 "/>
<path fill-rule="nonzero" fill="rgb(0%, 86.27451%, 1.960784%)" fill-opacity="1" d="M 9.933594 2.90625 C 9.933594 3.871094 9.164062 4.644531 8.210938 4.644531 C 7.246094 4.644531 6.472656 3.871094 6.472656 2.90625 C 6.472656 1.957031 7.246094 1.183594 8.210938 1.183594 C 9.164062 1.183594 9.933594 1.957031 9.933594 2.90625 Z M 9.933594 2.90625 "/>
<path fill="none" stroke-width="1.5" stroke-linecap="round" stroke-linejoin="miter" stroke="rgb(0%, 0%, 0%)" stroke-opacity="1" stroke-miterlimit="4" d="M 3.910156 2.914062 C 3.910156 3.511719 3.429688 3.992188 2.832031 3.992188 C 2.238281 3.992188 1.753906 3.511719 1.753906 2.914062 C 1.753906 2.316406 2.238281 1.835938 2.832031 1.835938 C 3.429688 1.835938 3.910156 2.316406 3.910156 2.914062 Z M 3.910156 2.914062 "/>
<path fill-rule="nonzero" fill="rgb(100%, 100%, 100%)" fill-opacity="1" d="M 3.910156 2.914062 C 3.910156 3.511719 3.429688 3.992188 2.832031 3.992188 C 2.238281 3.992188 1.753906 3.511719 1.753906 2.914062 C 1.753906 2.316406 2.238281 1.835938 2.832031 1.835938 C 3.429688 1.835938 3.910156 2.316406 3.910156 2.914062 Z M 3.910156 2.914062 "/>
</svg>
