<?xml version="1.0" encoding="UTF-8"?>
<svg xmlns="http://www.w3.org/2000/svg" xmlns:xlink="http://www.w3.org/1999/xlink" width="10.961739" height="22" viewBox="0 0 10.961739 22">
<path fill-rule="nonzero" fill="rgb(0%, 0%, 0%)" fill-opacity="0.960784" d="M 0.820312 0 L 0 0.820312 L 0 21.175781 L 0.820312 22 L 10.140625 22 L 10.960938 21.175781 L 10.960938 0.820312 L 10.140625 0 Z M 0.820312 0 "/>
<path fill-rule="nonzero" fill="rgb(100%, 0%, 15.686275%)" fill-opacity="1" d="M 5.097656 18.417969 C 5.097656 19.464844 4.242188 20.3125 3.195312 20.3125 C 2.148438 20.3125 1.300781 19.464844 1.300781 18.417969 C 1.300781 17.371094 2.148438 16.523438 3.195312 16.523438 C 4.242188 16.523438 5.097656 17.371094 5.097656 18.417969 Z M 5.097656 18.417969 "/>
<path fill="none" stroke-width="1.5" stroke-linecap="round" stroke-linejoin="miter" stroke="rgb(0%, 0%, 0%)" stroke-opacity="1" stroke-miterlimit="4" d="M 3.910156 2.914062 C 3.910156 3.511719 3.429688 3.992188 2.832031 3.992188 C 2.238281 3.992188 1.753906 3.511719 1.753906 2.914062 C 1.753906 2.316406 2.238281 1.835938 2.832031 1.835938 C 3.429688 1.835938 3.910156 2.316406 3.910156 2.914062 Z M 3.910156 2.914062 "/>
<path fill-rule="nonzero" fill="rgb(100%, 0%, 15.686275%)" fill-opacity="1" d="M 3.910156 2.914062 C 3.910156 3.511719 3.429688 3.992188 2.832031 3.992188 C 2.238281 3.992188 1.753906 3.511719 1.753906 2.914062 C 1.753906 2.316406 2.238281 1.835938 2.832031 1.835938 C 3.429688 1.835938 3.910156 2.316406 3.910156 2.914062 Z M 3.910156 2.914062 "/>
</svg>
