<?xml version="1.0" encoding="UTF-8"?>
<svg xmlns="http://www.w3.org/2000/svg" xmlns:xlink="http://www.w3.org/1999/xlink" width="9.935331" height="22" viewBox="0 0 9.935331 22">
<path fill-rule="nonzero" fill="rgb(0%, 0%, 0%)" fill-opacity="1" d="M 0 0 L 9.941406 0 L 9.941406 22 L 0 22 Z M 0 0 "/>
<path fill-rule="nonzero" fill="rgb(0%, 86.27451%, 1.960784%)" fill-opacity="1" d="M 9.21875 2.90625 C 9.21875 3.871094 8.449219 4.644531 7.496094 4.644531 C 6.53125 4.644531 5.757812 3.871094 5.757812 2.90625 C 5.757812 1.957031 6.53125 1.183594 7.496094 1.183594 C 8.449219 1.183594 9.21875 1.957031 9.21875 2.90625 Z M 9.21875 2.90625 "/>
<path fill-rule="nonzero" fill="rgb(0%, 100%, 0%)" fill-opacity="1" d="M 8.792969 8.996094 C 8.792969 9.726562 8.214844 10.296875 7.492188 10.296875 C 6.769531 10.296875 6.183594 9.726562 6.183594 8.996094 C 6.183594 8.273438 6.769531 7.691406 7.492188 7.691406 C 8.214844 7.691406 8.792969 8.273438 8.792969 8.996094 Z M 8.792969 8.996094 "/>
</svg>
