<?xml version="1.0" encoding="UTF-8"?>
<svg xmlns="http://www.w3.org/2000/svg" xmlns:xlink="http://www.w3.org/1999/xlink" width="7.027258" height="22" viewBox="0 0 7.027258 22">
<path fill-rule="nonzero" fill="rgb(0%, 0%, 0%)" fill-opacity="1" d="M 0 6.445312 L 7.027344 6.445312 L 7.027344 22 L 0 22 Z M 0 6.445312 "/>
<path fill-rule="nonzero" fill="rgb(0%, 86.27451%, 1.960784%)" fill-opacity="1" d="M 6.519531 8.503906 C 6.519531 9.183594 5.972656 9.730469 5.300781 9.730469 C 4.617188 9.730469 4.070312 9.183594 4.070312 8.503906 C 4.070312 7.832031 4.617188 7.285156 5.300781 7.285156 C 5.972656 7.285156 6.519531 7.832031 6.519531 8.503906 Z M 6.519531 8.503906 "/>
<path fill-rule="nonzero" fill="rgb(0%, 0%, 0%)" fill-opacity="1" d="M 0.507812 0 L 6.519531 0 L 6.519531 6.011719 L 0.507812 6.011719 Z M 0.507812 0 "/>
<path fill-rule="nonzero" fill="rgb(100%, 100%, 100%)" fill-opacity="1" d="M 4.8125 1.074219 L 5.445312 1.074219 L 5.445312 4.9375 L 4.8125 4.9375 Z M 4.8125 1.074219 "/>
<path fill-rule="nonzero" fill="rgb(100%, 100%, 100%)" fill-opacity="1" d="M 2.703125 4.410156 C 2.703125 4.703125 2.46875 4.9375 2.175781 4.9375 C 1.886719 4.9375 1.648438 4.703125 1.648438 4.410156 C 1.648438 4.121094 1.886719 3.882812 2.175781 3.882812 C 2.46875 3.882812 2.703125 4.121094 2.703125 4.410156 Z M 2.703125 4.410156 "/>
</svg>
