<?xml version="1.0" encoding="UTF-8"?>
<svg xmlns="http://www.w3.org/2000/svg" xmlns:xlink="http://www.w3.org/1999/xlink" width="12.002874" height="19" viewBox="0 0 12.002874 19">
<path fill-rule="nonzero" fill="rgb(0%, 0%, 0%)" fill-opacity="1" d="M 1.039062 4.140625 L 2.316406 4.140625 L 2.316406 19 L 1.039062 19 Z M 1.039062 4.140625 "/>
<path fill-rule="nonzero" fill="rgb(100%, 100%, 100%)" fill-opacity="1" stroke-width="54.789864" stroke-linecap="butt" stroke-linejoin="miter" stroke="rgb(74.901962%, 13.333334%, 20.392157%)" stroke-opacity="1" stroke-miterlimit="4" d="M 663.598974 168.124568 L 133.729985 701.360859 L 27.419457 595.050331 L 557.288446 61.81404 " transform="matrix(0.0162407, 0, 0, 0.0162407, 0, 0)"/>
<path fill-rule="nonzero" fill="rgb(100%, 100%, 100%)" fill-opacity="1" stroke-width="59.132637" stroke-linecap="round" stroke-linejoin="round" stroke="rgb(74.901962%, 13.333334%, 20.392157%)" stroke-opacity="1" stroke-miterlimit="4" d="M 709.538592 200.354457 C 709.538592 294.638907 633.052737 371.124762 538.768286 371.124762 C 444.724358 371.124762 368.238503 294.638907 368.238503 200.354457 C 368.238503 106.070006 444.724358 29.584151 538.768286 29.584151 C 633.052737 29.584151 709.538592 106.070006 709.538592 200.354457 Z M 709.538592 200.354457 " transform="matrix(0.0162407, 0, 0, 0.0162407, 0, 0)"/>
</svg>
