<?xml version="1.0" encoding="UTF-8"?>
<svg xmlns="http://www.w3.org/2000/svg" xmlns:xlink="http://www.w3.org/1999/xlink" width="10.961739" height="22" viewBox="0 0 10.961739 22">
<path fill-rule="nonzero" fill="rgb(0%, 0%, 0%)" fill-opacity="0.960784" d="M 0.820312 0 L 0 0.820312 L 0 21.175781 L 0.820312 22 L 10.140625 22 L 10.960938 21.175781 L 10.960938 0.820312 L 10.140625 0 Z M 0.820312 0 "/>
<path fill-rule="nonzero" fill="rgb(34.509804%, 86.27451%, 69.019608%)" fill-opacity="1" d="M 9.824219 3.191406 C 9.824219 4.242188 8.976562 5.09375 7.929688 5.09375 C 6.878906 5.09375 6.027344 4.242188 6.027344 3.191406 C 6.027344 2.144531 6.878906 1.292969 7.929688 1.292969 C 8.976562 1.292969 9.824219 2.144531 9.824219 3.191406 Z M 9.824219 3.191406 "/>
<path fill-rule="nonzero" fill="rgb(34.509804%, 86.27451%, 69.019608%)" fill-opacity="1" d="M 9.824219 18.609375 C 9.824219 19.65625 8.976562 20.507812 7.929688 20.507812 C 6.878906 20.507812 6.027344 19.65625 6.027344 18.609375 C 6.027344 17.5625 6.878906 16.714844 7.929688 16.714844 C 8.976562 16.714844 9.824219 17.5625 9.824219 18.609375 Z M 9.824219 18.609375 "/>
<path fill="none" stroke-width="1.5" stroke-linecap="round" stroke-linejoin="miter" stroke="rgb(0%, 0%, 0%)" stroke-opacity="1" stroke-miterlimit="4" d="M 3.910156 2.914062 C 3.910156 3.511719 3.429688 3.992188 2.832031 3.992188 C 2.238281 3.992188 1.753906 3.511719 1.753906 2.914062 C 1.753906 2.316406 2.238281 1.835938 2.832031 1.835938 C 3.429688 1.835938 3.910156 2.316406 3.910156 2.914062 Z M 3.910156 2.914062 "/>
<path fill-rule="nonzero" fill="rgb(100%, 0%, 15.686275%)" fill-opacity="1" d="M 3.910156 2.914062 C 3.910156 3.511719 3.429688 3.992188 2.832031 3.992188 C 2.238281 3.992188 1.753906 3.511719 1.753906 2.914062 C 1.753906 2.316406 2.238281 1.835938 2.832031 1.835938 C 3.429688 1.835938 3.910156 2.316406 3.910156 2.914062 Z M 3.910156 2.914062 "/>
</svg>
