<?xml version="1.0" encoding="UTF-8"?>
<svg xmlns="http://www.w3.org/2000/svg" xmlns:xlink="http://www.w3.org/1999/xlink" width="7.972174" height="16" viewBox="0 0 7.972174 16">
<defs>
<filter id="filter-remove-color" x="0%" y="0%" width="100%" height="100%">
<feColorMatrix color-interpolation-filters="sRGB" values="0 0 0 0 1 0 0 0 0 1 0 0 0 0 1 0 0 0 1 0" />
</filter>
<mask id="mask-0">
<g filter="url(#filter-remove-color)">
<rect x="-0.797217" y="-1.6" width="9.566609" height="19.2" fill="rgb(0%, 0%, 0%)" fill-opacity="0.96"/>
</g>
</mask>
<clipPath id="clip-0">
<rect x="0" y="0" width="8" height="16"/>
</clipPath>
<g id="source-5" clip-path="url(#clip-0)">
<path fill-rule="nonzero" fill="rgb(0%, 0%, 0%)" fill-opacity="1" stroke-width="0.2" stroke-linecap="round" stroke-linejoin="round" stroke="rgb(100%, 100%, 100%)" stroke-opacity="1" stroke-miterlimit="4" d="M 5.044711 22.712819 L -0.0156605 27.899699 L -0.0156605 190.0846 L 5.044711 195.27148 L 81.456318 195.27148 L 85.884142 190.421958 L 85.884142 27.562341 L 81.456318 22.712819 Z M 5.044711 22.712819 " transform="matrix(0.0926315, 0, 0, 0.0926315, 0.00926315, -2.096111)"/>
</g>
</defs>
<g mask="url(#mask-0)">
<use xlink:href="#source-5"/>
</g>
<path fill-rule="nonzero" fill="rgb(100%, 0%, 15.686275%)" fill-opacity="1" d="M 3.707031 13.394531 C 3.707031 14.15625 3.085938 14.773438 2.324219 14.773438 C 1.5625 14.773438 0.945312 14.15625 0.945312 13.394531 C 0.945312 12.632812 1.5625 12.015625 2.324219 12.015625 C 3.085938 12.015625 3.707031 12.632812 3.707031 13.394531 Z M 3.707031 13.394531 "/>
</svg>
