<?xml version="1.0" encoding="UTF-8"?>
<svg xmlns="http://www.w3.org/2000/svg" xmlns:xlink="http://www.w3.org/1999/xlink" width="10.961739" height="22" viewBox="0 0 10.961739 22">
<path fill-rule="nonzero" fill="rgb(0%, 0%, 0%)" fill-opacity="0.960784" d="M 0.820312 0 L 0 0.820312 L 0 21.175781 L 0.820312 22 L 10.140625 22 L 10.960938 21.175781 L 10.960938 0.820312 L 10.140625 0 Z M 0.820312 0 "/>
<path fill-rule="nonzero" fill="rgb(100%, 0%, 15.686275%)" fill-opacity="1" d="M 5.097656 18.417969 C 5.097656 19.464844 4.242188 20.3125 3.195312 20.3125 C 2.148438 20.3125 1.300781 19.464844 1.300781 18.417969 C 1.300781 17.371094 2.148438 16.523438 3.195312 16.523438 C 4.242188 16.523438 5.097656 17.371094 5.097656 18.417969 Z M 5.097656 18.417969 "/>
<path fill="none" stroke-width="1.5" stroke-linecap="round" stroke-linejoin="miter" stroke="rgb(0%, 0%, 0%)" stroke-opacity="1" stroke-miterlimit="4" d="M 3.910156 2.914062 C 3.910156 3.511719 3.429688 3.992188 2.832031 3.992188 C 2.238281 3.992188 1.753906 3.511719 1.753906 2.914062 C 1.753906 2.316406 2.238281 1.835938 2.832031 1.835938 C 3.429688 1.835938 3.910156 2.316406 3.910156 2.914062 Z M 3.910156 2.914062 "/>
<path fill-rule="nonzero" fill="rgb(100%, 100%, 100%)" fill-opacity="1" d="M 3.910156 2.914062 C 3.910156 3.511719 3.429688 3.992188 2.832031 3.992188 C 2.238281 3.992188 1.753906 3.511719 1.753906 2.914062 C 1.753906 2.316406 2.238281 1.835938 2.832031 1.835938 C 3.429688 1.835938 3.910156 2.316406 3.910156 2.914062 Z M 3.910156 2.914062 "/>
<path fill-rule="nonzero" fill="rgb(100%, 100%, 100%)" fill-opacity="1" d="M 3.925781 11.472656 C 3.925781 12.179688 3.355469 12.742188 2.648438 12.742188 C 1.949219 12.742188 1.378906 12.179688 1.378906 11.472656 C 1.378906 10.769531 1.949219 10.203125 2.648438 10.203125 C 3.355469 10.203125 3.925781 10.769531 3.925781 11.472656 Z M 3.925781 11.472656 "/>
<path fill-rule="nonzero" fill="rgb(100%, 100%, 100%)" fill-opacity="1" d="M 9.039062 7.007812 C 9.039062 7.710938 8.46875 8.277344 7.761719 8.277344 C 7.0625 8.277344 6.492188 7.710938 6.492188 7.007812 C 6.492188 6.300781 7.0625 5.734375 7.761719 5.734375 C 8.46875 5.734375 9.039062 6.300781 9.039062 7.007812 Z M 9.039062 7.007812 "/>
</svg>
