<?xml version="1.0" encoding="UTF-8"?>
<svg xmlns="http://www.w3.org/2000/svg" xmlns:xlink="http://www.w3.org/1999/xlink" width="16" height="16" viewBox="0 0 16 16">
<path fill-rule="nonzero" fill="rgb(0%, 0%, 0%)" fill-opacity="1" d="M 1.972656 0 L 3.347656 0 L 3.347656 16 L 1.972656 16 Z M 1.972656 0 "/>
<path fill-rule="nonzero" fill="rgb(100%, 100%, 100%)" fill-opacity="1" stroke-width="54.789864" stroke-linecap="butt" stroke-linejoin="miter" stroke="rgb(74.901962%, 13.333334%, 20.392157%)" stroke-opacity="1" stroke-miterlimit="4" d="M 615.653517 280.126818 L 27.476554 280.126818 L 27.476554 129.787625 L 615.653517 129.787625 " transform="matrix(0.0174865, 0, 0, 0.0174865, 0, 0)"/>
<path fill-rule="nonzero" fill="rgb(100%, 100%, 100%)" fill-opacity="1" stroke-width="59.132637" stroke-linecap="round" stroke-linejoin="round" stroke="rgb(74.901962%, 13.333334%, 20.392157%)" stroke-opacity="1" stroke-miterlimit="4" d="M 882.600525 204.398755 C 882.600525 298.667907 806.202302 375.066131 711.93315 375.066131 C 617.663997 375.066131 541.265774 298.667907 541.265774 204.398755 C 541.265774 110.129602 617.663997 33.731379 711.93315 33.731379 C 806.202302 33.731379 882.600525 110.129602 882.600525 204.398755 Z M 882.600525 204.398755 " transform="matrix(0.0174865, 0, 0, 0.0174865, 0, 0)"/>
</svg>
