<?xml version="1.0" encoding="UTF-8"?>
<svg xmlns="http://www.w3.org/2000/svg" xmlns:xlink="http://www.w3.org/1999/xlink" width="10.961739" height="22" viewBox="0 0 10.961739 22">
<path fill-rule="nonzero" fill="rgb(0%, 0%, 0%)" fill-opacity="0.960784" d="M 0.820312 0 L 0 0.820312 L 0 21.175781 L 0.820312 22 L 10.140625 22 L 10.960938 21.175781 L 10.960938 0.820312 L 10.140625 0 Z M 0.820312 0 "/>
<path fill-rule="nonzero" fill="rgb(99.215686%, 79.215686%, 1.960784%)" fill-opacity="1" d="M 10.144531 14.335938 C 10.144531 15.382812 9.296875 16.238281 8.25 16.238281 C 7.195312 16.238281 6.347656 15.382812 6.347656 14.335938 C 6.347656 13.289062 7.195312 12.4375 8.25 12.4375 C 9.296875 12.4375 10.144531 13.289062 10.144531 14.335938 Z M 10.144531 14.335938 "/>
<path fill-rule="nonzero" fill="rgb(34.509804%, 86.27451%, 69.019608%)" fill-opacity="1" d="M 10.144531 3.191406 C 10.144531 4.242188 9.296875 5.09375 8.25 5.09375 C 7.195312 5.09375 6.347656 4.242188 6.347656 3.191406 C 6.347656 2.144531 7.195312 1.292969 8.25 1.292969 C 9.296875 1.292969 10.144531 2.144531 10.144531 3.191406 Z M 10.144531 3.191406 "/>
</svg>
