<?xml version="1.0" encoding="UTF-8"?>
<svg xmlns="http://www.w3.org/2000/svg" xmlns:xlink="http://www.w3.org/1999/xlink" width="11.976788" height="18" viewBox="0 0 11.976788 18">
<path fill-rule="nonzero" fill="rgb(100%, 100%, 100%)" fill-opacity="1" stroke-width="0.3" stroke-linecap="round" stroke-linejoin="round" stroke="rgb(0%, 0%, 0%)" stroke-opacity="1" stroke-miterlimit="4" d="M -0.000000476837 0 L 13.057277 0 L 13.057277 19.624245 L -0.000000476837 19.624245 Z M -0.000000476837 0 " transform="matrix(0.917233, 0, 0, 0.917233, 0.000000437371, 0)"/>
<path fill-rule="nonzero" fill="rgb(0%, 0%, 0%)" fill-opacity="1" d="M 0.53125 4.441406 L 0.53125 13.617188 L 3.503906 13.617188 L 3.503906 12.398438 L 1.152344 12.398438 L 1.152344 4.441406 Z M 0.53125 4.441406 "/>
<path fill-rule="nonzero" fill="rgb(0%, 0%, 0%)" fill-opacity="1" d="M 4.167969 4.441406 L 4.167969 5.660156 L 6.292969 5.660156 L 4.167969 12.398438 L 4.167969 13.617188 L 7.121094 13.617188 L 7.121094 12.398438 L 4.96875 12.398438 L 7.121094 5.660156 L 7.121094 4.441406 Z M 4.167969 4.441406 "/>
<path fill-rule="nonzero" fill="rgb(0%, 0%, 0%)" fill-opacity="1" d="M 8.089844 4.441406 L 8.089844 13.617188 L 10.144531 13.617188 L 10.144531 13.601562 C 11.597656 13.394531 11.683594 10.351562 10.863281 9.03125 C 11.683594 7.707031 11.597656 4.660156 10.144531 4.457031 L 10.144531 4.441406 Z M 8.714844 5.660156 L 9.988281 5.660156 C 10.808594 5.660156 10.902344 8.417969 9.988281 8.417969 L 8.714844 8.417969 Z M 8.714844 9.636719 L 9.988281 9.636719 C 10.902344 9.636719 10.808594 12.398438 9.988281 12.398438 L 8.714844 12.398438 Z M 8.714844 9.636719 "/>
</svg>
