<?xml version="1.0" encoding="UTF-8"?>
<svg xmlns="http://www.w3.org/2000/svg" xmlns:xlink="http://www.w3.org/1999/xlink" width="1.988763" height="24" viewBox="0 0 1.988763 24">
<path fill-rule="nonzero" fill="rgb(100%, 100%, 100%)" fill-opacity="1" d="M 0 0.59375 L 1.988281 0.59375 L 1.988281 24 L 0 24 Z M 0 0.59375 "/>
<path fill-rule="nonzero" fill="rgb(100%, 0%, 0%)" fill-opacity="1" d="M 0 7.347656 L 1.988281 7.347656 L 1.988281 10.785156 L 0 10.785156 Z M 0 7.347656 "/>
<path fill-rule="nonzero" fill="rgb(100%, 0%, 0%)" fill-opacity="1" d="M 0 13.855469 L 1.988281 13.855469 L 1.988281 17.292969 L 0 17.292969 Z M 0 13.855469 "/>
<path fill-rule="nonzero" fill="rgb(100%, 0%, 0%)" fill-opacity="1" d="M 0 20.5625 L 1.988281 20.5625 L 1.988281 24 L 0 24 Z M 0 20.5625 "/>
<path fill-rule="nonzero" fill="rgb(100%, 0%, 0%)" fill-opacity="1" d="M 0 0.59375 L 1.988281 0.59375 L 1.988281 4.03125 L 0 4.03125 Z M 0 0.59375 "/>
<path fill-rule="nonzero" fill="rgb(100%, 0%, 0%)" fill-opacity="1" d="M 1.988281 0.59375 L 0 0.59375 L 0.996094 0 Z M 1.988281 0.59375 "/>
</svg>
