<?xml version="1.0" encoding="UTF-8"?>
<svg xmlns="http://www.w3.org/2000/svg" xmlns:xlink="http://www.w3.org/1999/xlink" width="15" height="16.52713" viewBox="0 0 15 16.52713">
<path fill-rule="nonzero" fill="rgb(100%, 75.686275%, 0%)" fill-opacity="1" d="M 6.519531 16.527344 L 6.519531 0.914062 L 8.480469 0.914062 L 8.480469 16.527344 Z M 6.519531 16.527344 "/>
<path fill-rule="nonzero" fill="rgb(0%, 0%, 0%)" fill-opacity="1" d="M 6.519531 0.910156 L 8.480469 0.910156 L 8.480469 7.679688 L 6.519531 7.679688 Z M 6.519531 0.910156 "/>
<path fill-rule="nonzero" fill="rgb(0%, 0%, 0%)" fill-opacity="1" d="M 6.519531 13.226562 L 8.480469 13.226562 L 8.480469 16.527344 L 6.519531 16.527344 Z M 6.519531 13.226562 "/>
<path fill-rule="nonzero" fill="rgb(100%, 75.686275%, 0%)" fill-opacity="1" d="M 0 0 L 15 0 L 15 1.953125 L 0 1.953125 Z M 0 0 "/>
<path fill-rule="nonzero" fill="rgb(0%, 0%, 0%)" fill-opacity="1" d="M 12.683594 1.953125 L 12.683594 0 L 15 0 L 15 1.953125 Z M 12.683594 1.953125 "/>
<path fill-rule="nonzero" fill="rgb(0%, 0%, 0%)" fill-opacity="1" d="M 0 1.953125 L 0 0 L 2.316406 0 L 2.316406 1.953125 Z M 0 1.953125 "/>
</svg>
