<?xml version="1.0" encoding="UTF-8"?>
<svg xmlns="http://www.w3.org/2000/svg" xmlns:xlink="http://www.w3.org/1999/xlink" width="20" height="20.007782" viewBox="0 0 20 20.007782">
<path fill-rule="nonzero" fill="rgb(100%, 100%, 100%)" fill-opacity="1" stroke-width="2.74189" stroke-linecap="butt" stroke-linejoin="miter" stroke="rgb(0%, 0%, 0%)" stroke-opacity="1" stroke-miterlimit="4" d="M 53.675797 27.52605 C 53.675797 41.977226 41.977226 53.697302 27.52605 53.697302 C 13.096378 53.697302 1.376302 41.977226 1.376302 27.52605 C 1.376302 13.096378 13.096378 1.376302 27.52605 1.376302 C 41.977226 1.376302 53.675797 13.096378 53.675797 27.52605 Z M 53.675797 27.52605 " transform="matrix(0.363292, 0, 0, 0.363292, 0, 0)"/>
<path fill-rule="nonzero" fill="rgb(0%, 0%, 0%)" fill-opacity="1" d="M 4.183594 9.195312 L 3.824219 10.425781 L 1.796875 9.722656 L 2.15625 8.492188 L 2.382812 8.570312 L 2.101562 9.523438 L 2.734375 9.742188 L 3 8.84375 L 3.21875 8.921875 L 2.957031 9.816406 L 3.679688 10.070312 L 3.960938 9.117188 Z M 4.183594 9.195312 "/>
<path fill-rule="nonzero" fill="rgb(0%, 0%, 0%)" fill-opacity="1" d="M 2.417969 7.652344 C 2.433594 7.613281 2.464844 7.582031 2.5 7.566406 C 2.539062 7.546875 2.582031 7.550781 2.632812 7.574219 C 2.6875 7.601562 2.71875 7.632812 2.730469 7.679688 C 2.742188 7.722656 2.738281 7.761719 2.726562 7.800781 C 2.703125 7.84375 2.679688 7.875 2.640625 7.890625 C 2.605469 7.90625 2.554688 7.902344 2.507812 7.878906 C 2.457031 7.851562 2.421875 7.820312 2.414062 7.777344 C 2.398438 7.738281 2.398438 7.695312 2.417969 7.652344 Z M 3.015625 7.789062 L 4.476562 8.507812 L 4.367188 8.765625 L 2.914062 8.050781 Z M 3.015625 7.789062 "/>
<path fill-rule="nonzero" fill="rgb(0%, 0%, 0%)" fill-opacity="1" d="M 3.738281 6.335938 C 3.839844 6.164062 3.957031 6.0625 4.089844 6.027344 C 4.21875 5.992188 4.371094 6.039062 4.542969 6.160156 L 5.417969 6.773438 L 5.273438 7.015625 L 4.417969 6.40625 C 4.203125 6.253906 4.027344 6.289062 3.898438 6.507812 C 3.800781 6.667969 3.777344 6.804688 3.824219 6.925781 C 3.871094 7.042969 3.972656 7.160156 4.128906 7.269531 L 4.820312 7.765625 L 4.679688 8.003906 L 3.34375 7.054688 L 3.453125 6.863281 L 3.660156 6.957031 L 3.667969 6.945312 C 3.625 6.84375 3.617188 6.746094 3.628906 6.636719 C 3.644531 6.53125 3.679688 6.429688 3.738281 6.335938 Z M 3.738281 6.335938 "/>
<path fill-rule="nonzero" fill="rgb(0%, 0%, 0%)" fill-opacity="1" d="M 5.054688 4.636719 C 5.132812 4.5625 5.21875 4.507812 5.308594 4.480469 C 5.398438 4.449219 5.492188 4.445312 5.589844 4.464844 L 5.601562 4.453125 L 5.484375 4.257812 L 5.640625 4.105469 L 6.730469 5.414062 C 6.886719 5.59375 6.960938 5.777344 6.949219 5.953125 C 6.945312 6.128906 6.847656 6.304688 6.667969 6.484375 C 6.492188 6.65625 6.328125 6.769531 6.171875 6.824219 L 6.011719 6.632812 C 6.183594 6.585938 6.359375 6.472656 6.53125 6.300781 C 6.632812 6.203125 6.683594 6.089844 6.6875 5.96875 C 6.691406 5.847656 6.648438 5.730469 6.554688 5.617188 L 6.515625 5.570312 C 6.496094 5.546875 6.476562 5.519531 6.449219 5.480469 C 6.417969 5.445312 6.398438 5.417969 6.390625 5.402344 L 6.378906 5.414062 C 6.40625 5.621094 6.339844 5.804688 6.175781 5.96875 C 6.023438 6.117188 5.855469 6.175781 5.667969 6.144531 C 5.484375 6.117188 5.308594 5.992188 5.128906 5.785156 C 4.960938 5.582031 4.871094 5.378906 4.851562 5.171875 C 4.839844 4.964844 4.90625 4.789062 5.054688 4.636719 Z M 5.234375 4.789062 C 5.132812 4.886719 5.09375 5.003906 5.113281 5.144531 C 5.125 5.28125 5.203125 5.429688 5.335938 5.589844 C 5.46875 5.746094 5.59375 5.84375 5.71875 5.871094 C 5.84375 5.902344 5.953125 5.867188 6.058594 5.765625 C 6.179688 5.648438 6.238281 5.53125 6.234375 5.40625 C 6.226562 5.28125 6.164062 5.144531 6.03125 4.988281 L 5.988281 4.9375 C 5.84375 4.761719 5.710938 4.664062 5.589844 4.644531 C 5.472656 4.621094 5.351562 4.671875 5.234375 4.789062 Z M 5.234375 4.789062 "/>
<path fill-rule="nonzero" fill="rgb(0%, 0%, 0%)" fill-opacity="1" d="M 6.980469 3.203125 C 7.101562 3.132812 7.222656 3.109375 7.335938 3.121094 C 7.453125 3.128906 7.554688 3.175781 7.652344 3.257812 C 7.746094 3.335938 7.824219 3.445312 7.890625 3.589844 L 7.960938 3.742188 L 6.976562 4.265625 C 7.0625 4.441406 7.160156 4.554688 7.28125 4.605469 C 7.40625 4.652344 7.535156 4.636719 7.679688 4.5625 C 7.769531 4.515625 7.847656 4.460938 7.90625 4.40625 C 7.96875 4.347656 8.03125 4.285156 8.089844 4.210938 L 8.191406 4.429688 C 8.132812 4.503906 8.074219 4.570312 8.007812 4.621094 C 7.945312 4.679688 7.863281 4.730469 7.765625 4.78125 C 7.628906 4.855469 7.496094 4.890625 7.367188 4.886719 C 7.234375 4.882812 7.113281 4.835938 7 4.75 C 6.886719 4.660156 6.792969 4.53125 6.714844 4.359375 C 6.640625 4.1875 6.597656 4.027344 6.59375 3.875 C 6.59375 3.726562 6.625 3.59375 6.6875 3.476562 C 6.757812 3.359375 6.851562 3.269531 6.980469 3.203125 Z M 7.070312 3.410156 C 6.957031 3.472656 6.886719 3.558594 6.859375 3.671875 C 6.828125 3.785156 6.839844 3.914062 6.886719 4.058594 L 7.621094 3.671875 C 7.5625 3.542969 7.484375 3.445312 7.390625 3.398438 C 7.296875 3.34375 7.191406 3.347656 7.070312 3.410156 Z M 7.070312 3.410156 "/>
<path fill-rule="nonzero" fill="rgb(0%, 0%, 0%)" fill-opacity="1" d="M 9.621094 3.671875 C 9.652344 3.835938 9.617188 3.972656 9.523438 4.078125 C 9.421875 4.1875 9.28125 4.265625 9.089844 4.304688 C 8.980469 4.328125 8.882812 4.339844 8.796875 4.335938 C 8.71875 4.335938 8.644531 4.324219 8.578125 4.300781 L 8.53125 4.050781 C 8.597656 4.070312 8.679688 4.085938 8.773438 4.097656 C 8.867188 4.105469 8.960938 4.097656 9.054688 4.078125 C 9.183594 4.050781 9.273438 4.011719 9.328125 3.949219 C 9.375 3.894531 9.390625 3.824219 9.378906 3.75 C 9.371094 3.707031 9.351562 3.671875 9.328125 3.640625 C 9.296875 3.609375 9.253906 3.585938 9.191406 3.5625 C 9.132812 3.542969 9.046875 3.519531 8.933594 3.503906 C 8.824219 3.480469 8.726562 3.453125 8.648438 3.429688 C 8.566406 3.402344 8.507812 3.363281 8.453125 3.3125 C 8.40625 3.265625 8.371094 3.191406 8.355469 3.097656 C 8.328125 2.957031 8.363281 2.828125 8.453125 2.730469 C 8.550781 2.628906 8.683594 2.5625 8.863281 2.523438 C 8.957031 2.5 9.050781 2.492188 9.132812 2.496094 C 9.21875 2.496094 9.304688 2.507812 9.382812 2.53125 L 9.335938 2.769531 C 9.261719 2.757812 9.1875 2.742188 9.113281 2.738281 C 9.035156 2.730469 8.960938 2.738281 8.882812 2.75 C 8.78125 2.777344 8.703125 2.8125 8.65625 2.863281 C 8.605469 2.90625 8.585938 2.964844 8.597656 3.03125 C 8.605469 3.078125 8.628906 3.113281 8.660156 3.140625 C 8.6875 3.167969 8.738281 3.191406 8.800781 3.210938 C 8.867188 3.226562 8.953125 3.246094 9.0625 3.269531 C 9.167969 3.285156 9.257812 3.308594 9.335938 3.335938 C 9.414062 3.363281 9.480469 3.402344 9.527344 3.453125 C 9.574219 3.507812 9.605469 3.582031 9.621094 3.671875 Z M 9.621094 3.671875 "/>
<path fill-rule="nonzero" fill="rgb(0%, 0%, 0%)" fill-opacity="1" d="M 10.738281 4.1875 C 10.597656 4.179688 10.472656 4.144531 10.363281 4.074219 C 10.261719 4.007812 10.179688 3.90625 10.117188 3.773438 C 10.0625 3.636719 10.039062 3.46875 10.046875 3.265625 C 10.054688 3.050781 10.09375 2.878906 10.164062 2.746094 C 10.238281 2.617188 10.328125 2.527344 10.441406 2.464844 C 10.558594 2.410156 10.691406 2.386719 10.832031 2.390625 C 10.914062 2.394531 10.992188 2.410156 11.066406 2.433594 C 11.140625 2.453125 11.203125 2.476562 11.25 2.503906 L 11.160156 2.738281 C 11.109375 2.71875 11.054688 2.695312 10.992188 2.671875 C 10.929688 2.65625 10.871094 2.644531 10.816406 2.640625 C 10.503906 2.625 10.335938 2.839844 10.316406 3.273438 C 10.308594 3.480469 10.339844 3.644531 10.414062 3.757812 C 10.484375 3.875 10.59375 3.9375 10.746094 3.941406 C 10.832031 3.945312 10.910156 3.941406 10.976562 3.921875 C 11.046875 3.90625 11.105469 3.890625 11.167969 3.863281 L 11.15625 4.113281 C 11.097656 4.140625 11.042969 4.164062 10.972656 4.171875 C 10.90625 4.1875 10.832031 4.191406 10.738281 4.1875 Z M 10.738281 4.1875 "/>
<path fill-rule="nonzero" fill="rgb(0%, 0%, 0%)" fill-opacity="1" d="M 12.277344 2.679688 C 12.253906 2.757812 12.226562 2.835938 12.195312 2.902344 L 12.210938 2.90625 C 12.289062 2.84375 12.371094 2.800781 12.464844 2.785156 C 12.566406 2.773438 12.664062 2.785156 12.761719 2.820312 C 12.945312 2.886719 13.074219 2.980469 13.132812 3.113281 C 13.199219 3.238281 13.199219 3.40625 13.136719 3.621094 L 12.816406 4.691406 L 12.570312 4.605469 L 12.886719 3.550781 C 12.964844 3.285156 12.890625 3.113281 12.664062 3.035156 C 12.492188 2.972656 12.359375 2.980469 12.265625 3.0625 C 12.171875 3.148438 12.097656 3.28125 12.039062 3.476562 L 11.785156 4.328125 L 11.53125 4.242188 L 12.234375 1.902344 L 12.484375 1.992188 Z M 12.277344 2.679688 "/>
<path fill-rule="nonzero" fill="rgb(0%, 0%, 0%)" fill-opacity="1" d="M 14.679688 3.863281 C 14.839844 3.984375 14.933594 4.109375 14.960938 4.246094 C 14.992188 4.378906 14.953125 4.527344 14.847656 4.695312 L 14.230469 5.667969 L 14.074219 5.550781 L 14.15625 5.316406 L 14.148438 5.308594 C 14.046875 5.347656 13.945312 5.355469 13.859375 5.347656 C 13.773438 5.339844 13.671875 5.289062 13.5625 5.207031 C 13.441406 5.121094 13.363281 5.011719 13.328125 4.886719 C 13.292969 4.757812 13.324219 4.621094 13.414062 4.476562 C 13.507812 4.335938 13.628906 4.261719 13.777344 4.261719 C 13.933594 4.261719 14.117188 4.339844 14.335938 4.492188 L 14.566406 4.648438 L 14.617188 4.566406 C 14.695312 4.445312 14.722656 4.34375 14.703125 4.261719 C 14.6875 4.179688 14.636719 4.109375 14.546875 4.046875 C 14.480469 3.992188 14.40625 3.953125 14.328125 3.933594 C 14.253906 3.90625 14.179688 3.890625 14.105469 3.875 L 14.148438 3.648438 C 14.230469 3.660156 14.3125 3.679688 14.410156 3.71875 C 14.503906 3.75 14.59375 3.800781 14.679688 3.863281 Z M 14.261719 4.675781 C 14.09375 4.558594 13.957031 4.5 13.863281 4.503906 C 13.773438 4.507812 13.695312 4.554688 13.636719 4.644531 C 13.585938 4.726562 13.570312 4.800781 13.59375 4.871094 C 13.617188 4.945312 13.664062 5.003906 13.734375 5.054688 C 13.839844 5.140625 13.957031 5.179688 14.070312 5.164062 C 14.1875 5.152344 14.292969 5.078125 14.378906 4.9375 L 14.457031 4.808594 Z M 14.261719 4.675781 "/>
<path fill-rule="nonzero" fill="rgb(0%, 0%, 0%)" fill-opacity="1" d="M 14.761719 6.257812 L 14.578125 6.054688 L 16.210938 4.347656 L 16.394531 4.554688 Z M 14.761719 6.257812 "/>
<path fill-rule="nonzero" fill="rgb(0%, 0%, 0%)" fill-opacity="1" d="M 15.550781 7.03125 C 15.578125 7.070312 15.601562 7.101562 15.628906 7.136719 C 15.660156 7.171875 15.6875 7.191406 15.707031 7.210938 L 15.546875 7.335938 C 15.515625 7.316406 15.484375 7.292969 15.453125 7.253906 C 15.414062 7.210938 15.378906 7.171875 15.351562 7.125 C 15.304688 7.054688 15.269531 6.976562 15.25 6.898438 C 15.234375 6.8125 15.242188 6.730469 15.277344 6.648438 C 15.3125 6.566406 15.382812 6.484375 15.484375 6.402344 L 16.246094 5.824219 L 16.117188 5.621094 L 16.21875 5.542969 L 16.4375 5.679688 L 16.773438 5.5625 L 16.867188 5.699219 L 16.5625 5.929688 L 16.832031 6.335938 L 16.667969 6.46875 L 16.398438 6.054688 L 15.640625 6.632812 C 15.5625 6.691406 15.515625 6.757812 15.503906 6.828125 C 15.496094 6.902344 15.511719 6.964844 15.550781 7.03125 Z M 15.550781 7.03125 "/>
<path fill-rule="nonzero" fill="rgb(0%, 0%, 0%)" fill-opacity="1" d="M 17.433594 7.601562 C 17.488281 7.738281 17.503906 7.867188 17.488281 7.992188 C 17.46875 8.113281 17.417969 8.226562 17.339844 8.320312 C 17.257812 8.421875 17.152344 8.5 17.019531 8.558594 L 16.871094 8.625 L 16.457031 7.523438 C 16.289062 7.601562 16.179688 7.703125 16.125 7.828125 C 16.070312 7.960938 16.078125 8.101562 16.136719 8.265625 C 16.175781 8.363281 16.214844 8.449219 16.261719 8.519531 C 16.3125 8.59375 16.367188 8.664062 16.433594 8.734375 L 16.21875 8.828125 C 16.15625 8.757812 16.101562 8.6875 16.058594 8.617188 C 16.011719 8.542969 15.96875 8.449219 15.925781 8.34375 C 15.867188 8.191406 15.847656 8.042969 15.859375 7.898438 C 15.871094 7.761719 15.921875 7.628906 16.011719 7.515625 C 16.097656 7.398438 16.226562 7.308594 16.390625 7.234375 C 16.554688 7.160156 16.703125 7.132812 16.839844 7.136719 C 16.980469 7.144531 17.101562 7.1875 17.199219 7.265625 C 17.304688 7.347656 17.382812 7.457031 17.433594 7.601562 Z M 17.234375 7.6875 C 17.1875 7.5625 17.113281 7.472656 17.007812 7.433594 C 16.910156 7.394531 16.789062 7.398438 16.652344 7.445312 L 16.960938 8.257812 C 17.082031 8.203125 17.175781 8.125 17.226562 8.03125 C 17.28125 7.933594 17.289062 7.816406 17.234375 7.6875 Z M 17.234375 7.6875 "/>
<path fill-rule="nonzero" fill="rgb(0%, 0%, 0%)" fill-opacity="1" d="M 16.523438 9.90625 C 16.527344 9.949219 16.539062 9.992188 16.554688 10.035156 C 16.566406 10.074219 16.578125 10.109375 16.59375 10.132812 L 16.398438 10.171875 C 16.378906 10.148438 16.359375 10.109375 16.34375 10.050781 C 16.324219 10 16.3125 9.949219 16.300781 9.894531 C 16.289062 9.808594 16.289062 9.722656 16.300781 9.640625 C 16.320312 9.5625 16.363281 9.492188 16.421875 9.429688 C 16.488281 9.371094 16.578125 9.328125 16.710938 9.300781 L 17.625 9.128906 L 17.585938 8.882812 L 17.707031 8.863281 L 17.851562 9.089844 L 18.203125 9.136719 L 18.234375 9.300781 L 17.867188 9.371094 L 17.953125 9.859375 L 17.75 9.898438 L 17.667969 9.410156 L 16.761719 9.582031 C 16.667969 9.601562 16.597656 9.640625 16.558594 9.695312 C 16.523438 9.757812 16.511719 9.828125 16.523438 9.90625 Z M 16.523438 9.90625 "/>
<path fill-rule="nonzero" fill="rgb(100%, 100%, 0%)" fill-opacity="1" d="M 10.023438 6.039062 L 4.128906 16.027344 L 15.921875 16.027344 Z M 10.023438 6.039062 "/>
<path fill="none" stroke-width="0.73508" stroke-linecap="butt" stroke-linejoin="miter" stroke="rgb(0%, 0%, 0%)" stroke-opacity="1" stroke-miterlimit="4" d="M 27.590564 19.139206 L 13.526473 42.977196 L 41.643903 42.977196 Z M 27.590564 19.139206 " transform="matrix(0.363292, 0, 0, 0.363292, 0, 0)"/>
<path fill-rule="nonzero" fill="rgb(0%, 0%, 0%)" fill-opacity="1" d="M 9.648438 10.015625 L 10.507812 10.015625 L 9.742188 12.023438 L 10.972656 11.398438 L 10.3125 13.933594 L 10.90625 13.617188 L 10.03125 14.921875 L 9.5 13.371094 L 10.042969 13.859375 L 10.230469 12.121094 L 9.027344 12.738281 Z M 9.648438 10.015625 "/>
</svg>
