<?xml version="1.0" encoding="UTF-8"?>
<svg xmlns="http://www.w3.org/2000/svg" xmlns:xlink="http://www.w3.org/1999/xlink" width="9.790094" height="30" viewBox="0 0 9.790094 30">
<path fill-rule="nonzero" fill="rgb(0%, 0%, 0%)" fill-opacity="1" d="M 0 8.320312 L 9.789062 8.320312 L 9.789062 30 L 0 30 Z M 0 8.320312 "/>
<path fill-rule="nonzero" fill="rgb(100%, 100%, 100%)" fill-opacity="1" d="M 3.867188 19.628906 C 3.867188 20.324219 3.304688 20.878906 2.613281 20.878906 C 1.921875 20.878906 1.355469 20.324219 1.355469 19.628906 C 1.355469 18.933594 1.921875 18.375 2.613281 18.375 C 3.304688 18.375 3.867188 18.933594 3.867188 19.628906 Z M 3.867188 19.628906 "/>
<path fill-rule="nonzero" fill="rgb(100%, 100%, 100%)" fill-opacity="1" d="M 3.867188 11.875 C 3.867188 12.566406 3.304688 13.125 2.613281 13.125 C 1.921875 13.125 1.355469 12.566406 1.355469 11.875 C 1.355469 11.179688 1.921875 10.617188 2.613281 10.617188 C 3.304688 10.617188 3.867188 11.179688 3.867188 11.875 Z M 3.867188 11.875 "/>
<path fill-rule="nonzero" fill="rgb(0%, 0%, 0%)" fill-opacity="1" d="M 0.902344 0 L 8.886719 0 L 8.886719 7.988281 L 0.902344 7.988281 Z M 0.902344 0 "/>
<path fill-rule="nonzero" fill="rgb(100%, 100%, 100%)" fill-opacity="1" d="M 2.808594 3.8125 L 3.304688 3.8125 L 3.304688 6.792969 L 2.808594 6.792969 Z M 2.808594 3.8125 "/>
<path fill-rule="nonzero" fill="rgb(100%, 100%, 100%)" fill-opacity="1" d="M 5.414062 1.195312 L 5.765625 1.546875 L 3.65625 3.652344 L 3.304688 3.304688 Z M 5.414062 1.195312 "/>
</svg>
