<?xml version="1.0" encoding="UTF-8"?>
<svg xmlns="http://www.w3.org/2000/svg" xmlns:xlink="http://www.w3.org/1999/xlink" width="9.934684" height="22" viewBox="0 0 9.934684 22">
<path fill-rule="nonzero" fill="rgb(0%, 0%, 0%)" fill-opacity="1" d="M 0 0 L 9.933594 0 L 9.933594 22 L 0 22 Z M 0 0 "/>
<path fill-rule="nonzero" fill="rgb(100%, 100%, 100%)" fill-opacity="1" d="M 3.925781 11.472656 C 3.925781 12.179688 3.355469 12.742188 2.648438 12.742188 C 1.949219 12.742188 1.378906 12.179688 1.378906 11.472656 C 1.378906 10.769531 1.949219 10.203125 2.648438 10.203125 C 3.355469 10.203125 3.925781 10.769531 3.925781 11.472656 Z M 3.925781 11.472656 "/>
<path fill-rule="nonzero" fill="rgb(100%, 100%, 100%)" fill-opacity="1" d="M 3.925781 3.605469 C 3.925781 4.304688 3.355469 4.875 2.648438 4.875 C 1.949219 4.875 1.378906 4.304688 1.378906 3.605469 C 1.378906 2.898438 1.949219 2.328125 2.648438 2.328125 C 3.355469 2.328125 3.925781 2.898438 3.925781 3.605469 Z M 3.925781 3.605469 "/>
</svg>
