<?xml version="1.0" encoding="UTF-8"?>
<svg xmlns="http://www.w3.org/2000/svg" xmlns:xlink="http://www.w3.org/1999/xlink" width="14.061772" height="14" viewBox="0 0 14.061772 14">
<path fill-rule="nonzero" fill="rgb(0%, 0%, 0%)" fill-opacity="0.960784" d="M 1.054688 0 L 0 1.054688 L 0 12.941406 L 1.054688 14 L 13.007812 14 L 14.0625 12.941406 L 14.0625 1.054688 L 13.007812 0 Z M 1.054688 0 "/>
<path fill-rule="nonzero" fill="rgb(100%, 100%, 100%)" fill-opacity="1" d="M 12.984375 2.757812 C 12.984375 3.65625 12.261719 4.386719 11.34375 4.386719 C 10.457031 4.386719 9.71875 3.65625 9.71875 2.757812 C 9.71875 1.847656 10.457031 1.125 11.34375 1.125 C 12.261719 1.125 12.984375 1.847656 12.984375 2.757812 Z M 12.984375 2.757812 "/>
<path fill-rule="nonzero" fill="rgb(100%, 100%, 100%)" fill-opacity="1" d="M 4.359375 11.308594 C 4.359375 12.214844 3.632812 12.941406 2.71875 12.941406 C 1.828125 12.941406 1.09375 12.214844 1.09375 11.308594 C 1.09375 10.40625 1.828125 9.679688 2.71875 9.679688 C 3.632812 9.679688 4.359375 10.40625 4.359375 11.308594 Z M 4.359375 11.308594 "/>
</svg>
