<?xml version="1.0" encoding="UTF-8"?>
<svg xmlns="http://www.w3.org/2000/svg" xmlns:xlink="http://www.w3.org/1999/xlink" width="9.93533" height="22" viewBox="0 0 9.93533 22">
<path fill-rule="nonzero" fill="rgb(0%, 0%, 0%)" fill-opacity="1" d="M 0 0 L 9.933594 0 L 9.933594 22 L 0 22 Z M 0 0 "/>
<path fill-rule="nonzero" fill="rgb(100%, 100%, 100%)" fill-opacity="1" d="M 3.925781 11.472656 C 3.925781 12.179688 3.355469 12.742188 2.648438 12.742188 C 1.949219 12.742188 1.378906 12.179688 1.378906 11.472656 C 1.378906 10.769531 1.949219 10.203125 2.648438 10.203125 C 3.355469 10.203125 3.925781 10.769531 3.925781 11.472656 Z M 3.925781 11.472656 "/>
<path fill-rule="nonzero" fill="rgb(100%, 0%, 0%)" fill-opacity="1" d="M 4.296875 18.707031 C 4.296875 19.617188 3.5625 20.347656 2.648438 20.347656 C 1.742188 20.347656 1.007812 19.617188 1.007812 18.707031 C 1.007812 17.792969 1.742188 17.058594 2.648438 17.058594 C 3.5625 17.058594 4.296875 17.792969 4.296875 18.707031 Z M 4.296875 18.707031 "/>
<path fill-rule="nonzero" fill="rgb(100%, 100%, 100%)" fill-opacity="1" d="M 9.039062 7.007812 C 9.039062 7.710938 8.46875 8.277344 7.761719 8.277344 C 7.0625 8.277344 6.492188 7.710938 6.492188 7.007812 C 6.492188 6.300781 7.0625 5.734375 7.761719 5.734375 C 8.46875 5.734375 9.039062 6.300781 9.039062 7.007812 Z M 9.039062 7.007812 "/>
</svg>
