<?xml version="1.0" encoding="UTF-8"?>
<svg xmlns="http://www.w3.org/2000/svg" xmlns:xlink="http://www.w3.org/1999/xlink" width="9.955972" height="12" viewBox="0 0 9.955972 12">
<path fill-rule="nonzero" fill="rgb(0%, 0%, 0%)" fill-opacity="1" d="M 0 0 L 9.957031 0 L 9.957031 12 L 0 12 Z M 0 0 "/>
<path fill-rule="nonzero" fill="rgb(100%, 100%, 100%)" fill-opacity="1" d="M 5.96875 2.011719 C 5.96875 2.558594 5.53125 2.996094 4.984375 2.996094 C 4.441406 2.996094 4 2.558594 4 2.011719 C 4 1.46875 4.441406 1.03125 4.984375 1.03125 C 5.53125 1.03125 5.96875 1.46875 5.96875 2.011719 Z M 5.96875 2.011719 "/>
<path fill-rule="nonzero" fill="rgb(100%, 100%, 100%)" fill-opacity="1" d="M 2.734375 8.464844 C 2.734375 9.011719 2.292969 9.449219 1.746094 9.449219 C 1.203125 9.449219 0.765625 9.011719 0.765625 8.464844 C 0.765625 7.921875 1.203125 7.480469 1.746094 7.480469 C 2.292969 7.480469 2.734375 7.921875 2.734375 8.464844 Z M 2.734375 8.464844 "/>
</svg>
