<?xml version="1.0" encoding="UTF-8"?>
<svg xmlns="http://www.w3.org/2000/svg" xmlns:xlink="http://www.w3.org/1999/xlink" width="11.950019" height="19" viewBox="0 0 11.950019 19">
<path fill-rule="nonzero" fill="rgb(0%, 0%, 0%)" fill-opacity="1" d="M 5.613281 5.820312 L 6.644531 5.820312 L 6.644531 19 L 5.613281 19 Z M 5.613281 5.820312 "/>
<path fill-rule="nonzero" fill="rgb(100%, 100%, 100%)" fill-opacity="1" d="M 11.949219 5.976562 C 11.949219 9.273438 9.273438 11.949219 5.976562 11.949219 C 2.675781 11.949219 0 9.273438 0 5.976562 C 0 2.675781 2.675781 0 5.976562 0 C 9.273438 0 11.949219 2.675781 11.949219 5.976562 Z M 11.949219 5.976562 "/>
<path fill-rule="nonzero" fill="rgb(86.666667%, 58.431375%, 0.392157%)" fill-opacity="1" stroke-width="13" stroke-linecap="butt" stroke-linejoin="miter" stroke="rgb(0%, 0%, 0%)" stroke-opacity="1" stroke-miterlimit="4" d="M 187.111259 253.03238 C 187.111259 326.066915 128.034435 385.251938 54.9999 385.251938 C -17.926436 385.251938 -77.111459 326.066915 -77.111459 253.03238 C -77.111459 180.106045 -17.926436 120.921022 54.9999 120.921022 C 128.034435 120.921022 187.111259 180.106045 187.111259 253.03238 Z M 187.111259 253.03238 " transform="matrix(0.0361024, 0, 0, 0.0361024, 3.963593, -3.084284)"/>
</svg>
