<?xml version="1.0" encoding="UTF-8"?>
<svg xmlns="http://www.w3.org/2000/svg" xmlns:xlink="http://www.w3.org/1999/xlink" width="13.4375" height="14" viewBox="0 0 13.4375 14">
<path fill-rule="nonzero" fill="rgb(0%, 0%, 0%)" fill-opacity="0.960784" d="M 1.148438 0 L 0 1.148438 L 0 12.851562 L 1.148438 14 L 12.285156 14 L 13.4375 12.851562 L 13.4375 1.148438 L 12.285156 0 Z M 1.148438 0 "/>
<path fill-rule="nonzero" fill="rgb(34.509804%, 86.27451%, 69.019608%)" fill-opacity="1" d="M 4.320312 11.234375 C 4.320312 12.070312 3.636719 12.753906 2.800781 12.753906 C 1.957031 12.753906 1.28125 12.070312 1.28125 11.234375 C 1.28125 10.390625 1.957031 9.707031 2.800781 9.707031 C 3.636719 9.707031 4.320312 10.390625 4.320312 11.234375 Z M 4.320312 11.234375 "/>
<path fill-rule="nonzero" fill="rgb(34.509804%, 86.27451%, 69.019608%)" fill-opacity="1" d="M 11.796875 7.929688 C 11.796875 8.773438 11.117188 9.449219 10.277344 9.449219 C 9.433594 9.449219 8.75 8.773438 8.75 7.929688 C 8.75 7.082031 9.433594 6.402344 10.277344 6.402344 C 11.117188 6.402344 11.796875 7.082031 11.796875 7.929688 Z M 11.796875 7.929688 "/>
</svg>
