<?xml version="1.0" encoding="UTF-8"?>
<svg xmlns="http://www.w3.org/2000/svg" xmlns:xlink="http://www.w3.org/1999/xlink" width="10.557361" height="11" viewBox="0 0 10.557361 11">
<defs>
<filter id="filter-remove-color" x="0%" y="0%" width="100%" height="100%">
<feColorMatrix color-interpolation-filters="sRGB" values="0 0 0 0 1 0 0 0 0 1 0 0 0 0 1 0 0 0 1 0" />
</filter>
<mask id="mask-0">
<g filter="url(#filter-remove-color)">
<rect x="-1.055736" y="-1.1" width="12.668833" height="13.2" fill="rgb(0%, 0%, 0%)" fill-opacity="0.96"/>
</g>
</mask>
<clipPath id="clip-0">
<rect x="0" y="0" width="11" height="11"/>
</clipPath>
<g id="source-5" clip-path="url(#clip-0)">
<path fill-rule="nonzero" fill="rgb(0%, 0%, 0%)" fill-opacity="1" stroke-width="0.2" stroke-linecap="round" stroke-linejoin="round" stroke="rgb(100%, 100%, 100%)" stroke-opacity="1" stroke-miterlimit="4" d="M 2.520769 22.726813 L -2.527047 27.905741 L -2.527047 109.654142 L 2.520769 114.83307 L 81.450259 114.83307 L 85.875292 110.0147 L 85.875292 27.545183 L 81.450259 22.726813 Z M 2.520769 22.726813 " transform="matrix(0.119173, 0, 0, 0.119173, 0.312874, -2.6967)"/>
</g>
</defs>
<g mask="url(#mask-0)">
<use xlink:href="#source-5"/>
</g>
<path fill-rule="nonzero" fill="rgb(99.607843%, 99.607843%, 16.862746%)" fill-opacity="1" d="M 9.269531 2.441406 C 9.269531 3.101562 8.734375 3.636719 8.074219 3.636719 C 7.410156 3.636719 6.875 3.101562 6.875 2.441406 C 6.875 1.78125 7.410156 1.246094 8.074219 1.246094 C 8.734375 1.246094 9.269531 1.78125 9.269531 2.441406 Z M 9.269531 2.441406 "/>
<path fill-rule="nonzero" fill="rgb(99.607843%, 99.607843%, 16.862746%)" fill-opacity="1" d="M 3.394531 2.441406 C 3.394531 3.101562 2.859375 3.636719 2.199219 3.636719 C 1.539062 3.636719 1.003906 3.101562 1.003906 2.441406 C 1.003906 1.78125 1.539062 1.246094 2.199219 1.246094 C 2.859375 1.246094 3.394531 1.78125 3.394531 2.441406 Z M 3.394531 2.441406 "/>
</svg>
