<?xml version="1.0" encoding="UTF-8"?>
<svg xmlns="http://www.w3.org/2000/svg" xmlns:xlink="http://www.w3.org/1999/xlink" width="20.463766" height="15" viewBox="0 0 20.463766 15">
<defs>
<filter id="filter-remove-color" x="0%" y="0%" width="100%" height="100%">
<feColorMatrix color-interpolation-filters="sRGB" values="0 0 0 0 1 0 0 0 0 1 0 0 0 0 1 0 0 0 1 0" />
</filter>
<mask id="mask-0">
<g filter="url(#filter-remove-color)">
<rect x="-2.046377" y="-1.5" width="24.556519" height="18" fill="rgb(0%, 0%, 0%)" fill-opacity="0.96"/>
</g>
</mask>
<clipPath id="clip-0">
<rect x="0" y="0" width="21" height="15"/>
</clipPath>
<g id="source-5" clip-path="url(#clip-0)">
<path fill-rule="nonzero" fill="rgb(67.450982%, 67.450982%, 67.450982%)" fill-opacity="1" d="M 9.394531 8.585938 L 11.664062 8.585938 L 11.664062 15 L 9.394531 15 Z M 9.394531 8.585938 "/>
</g>
</defs>
<g mask="url(#mask-0)">
<use xlink:href="#source-5"/>
</g>
<path fill-rule="nonzero" fill="rgb(100%, 100%, 100%)" fill-opacity="1" d="M 17.453125 8.410156 L 16.832031 8.890625 L 16.496094 9.128906 L 4.191406 9.128906 L 3.808594 8.792969 L 3.421875 8.460938 L 2.992188 8.125 L 2.515625 7.550781 L 1.9375 6.976562 L 1.414062 6.160156 L 1.171875 5.347656 L 0.886719 4.101562 L 19.800781 4.101562 L 19.800781 4.675781 L 19.226562 5.921875 L 18.890625 6.496094 L 18.363281 7.308594 L 17.980469 7.886719 Z M 17.453125 8.410156 "/>
<path fill-rule="nonzero" fill="rgb(0%, 58.823532%, 25.098041%)" fill-opacity="1" d="M 4.574219 4.199219 L 16.257812 4.199219 L 16.257812 8.9375 L 4.574219 8.9375 Z M 4.574219 4.199219 "/>
<path fill-rule="nonzero" fill="rgb(67.450982%, 67.450982%, 67.450982%)" fill-opacity="1" d="M 0 0 L 0 1.53125 L 5.800781 1.53125 L 5.800781 2.585938 L 9.058594 2.585938 L 9.058594 4.101562 L 11.804688 4.101562 L 11.804688 2.585938 L 15.058594 2.585938 L 15.058594 1.53125 L 20.464844 1.53125 L 20.464844 0 Z M 0 0 "/>
</svg>
