<?xml version="1.0" encoding="UTF-8"?>
<svg xmlns="http://www.w3.org/2000/svg" xmlns:xlink="http://www.w3.org/1999/xlink" width="13.436641" height="14" viewBox="0 0 13.436641 14">
<path fill-rule="nonzero" fill="rgb(0%, 0%, 0%)" fill-opacity="0.960784" d="M 1.148438 0 L 0 1.148438 L 0 12.851562 L 1.148438 14 L 12.285156 14 L 13.4375 12.851562 L 13.4375 1.148438 L 12.285156 0 Z M 1.148438 0 "/>
<path fill-rule="nonzero" fill="rgb(99.607843%, 99.607843%, 16.862745%)" fill-opacity="1" d="M 11.796875 3.105469 C 11.796875 3.949219 11.117188 4.625 10.277344 4.625 C 9.433594 4.625 8.75 3.949219 8.75 3.105469 C 8.75 2.269531 9.433594 1.585938 10.277344 1.585938 C 11.117188 1.585938 11.796875 2.269531 11.796875 3.105469 Z M 11.796875 3.105469 "/>
<path fill-rule="nonzero" fill="rgb(99.607843%, 99.607843%, 16.862745%)" fill-opacity="1" d="M 4.320312 3.105469 C 4.320312 3.949219 3.636719 4.625 2.800781 4.625 C 1.957031 4.625 1.28125 3.949219 1.28125 3.105469 C 1.28125 2.269531 1.957031 1.585938 2.800781 1.585938 C 3.636719 1.585938 4.320312 2.269531 4.320312 3.105469 Z M 4.320312 3.105469 "/>
</svg>
