<?xml version="1.0" encoding="UTF-8"?>
<svg xmlns="http://www.w3.org/2000/svg" xmlns:xlink="http://www.w3.org/1999/xlink" width="16.5" height="20.181561" viewBox="0 0 16.5 20.181561">
<path fill-rule="evenodd" fill="rgb(0%, 0%, 0%)" fill-opacity="1" d="M 6.355469 11.054688 L 10.121094 11.054688 L 8.242188 7.414062 C 8.035156 7.746094 6.808594 10.273438 6.355469 11.054688 Z M 6.355469 11.054688 "/>
<path fill-rule="evenodd" fill="rgb(87.843137%, 45.098039%, 18.431373%)" fill-opacity="1" stroke-width="0.438648" stroke-linecap="butt" stroke-linejoin="miter" stroke="rgb(0%, 0%, 0%)" stroke-opacity="1" stroke-miterlimit="4" d="M 10.075833 10.553969 L 16.038923 0.217688 L 12.190514 0.217688 L 9.725978 4.48981 L 8.213825 1.706516 L 6.693898 4.48981 L 4.229362 0.217688 L 0.380954 0.217688 L 6.34793 10.553969 L 8.213825 7.156485 Z M 10.075833 10.553969 " transform="matrix(1.00488, 0, 0, 1.00488, 0, 0)"/>
<path fill-rule="nonzero" fill="rgb(0%, 0%, 0%)" fill-opacity="1" d="M 3.234375 10.484375 L 13.242188 10.484375 L 13.210938 12.507812 L 9.234375 20.179688 L 7.253906 20.179688 L 3.210938 12.507812 Z M 3.234375 10.484375 "/>
<path fill-rule="nonzero" fill="rgb(100%, 100%, 100%)" fill-opacity="1" d="M 12.097656 12.195312 C 12.097656 12.742188 11.660156 13.183594 11.109375 13.183594 C 10.5625 13.183594 10.121094 12.742188 10.121094 12.195312 C 10.121094 11.648438 10.5625 11.207031 11.109375 11.207031 C 11.660156 11.207031 12.097656 11.648438 12.097656 12.195312 Z M 12.097656 12.195312 "/>
<path fill-rule="nonzero" fill="rgb(100%, 100%, 100%)" fill-opacity="1" d="M 9.214844 17.707031 C 9.214844 18.253906 8.769531 18.695312 8.222656 18.695312 C 7.675781 18.695312 7.234375 18.253906 7.234375 17.707031 C 7.234375 17.160156 7.675781 16.714844 8.222656 16.714844 C 8.769531 16.714844 9.214844 17.160156 9.214844 17.707031 Z M 9.214844 17.707031 "/>
</svg>
