<?xml version="1.0" encoding="UTF-8"?>
<svg xmlns="http://www.w3.org/2000/svg" xmlns:xlink="http://www.w3.org/1999/xlink" width="12" height="12" viewBox="0 0 12 12">
<path fill-rule="nonzero" fill="rgb(0%, 0%, 0%)" fill-opacity="1" d="M 12 6 C 12 9.3125 9.3125 12 6 12 C 2.6875 12 0 9.3125 0 6 C 0 2.6875 2.6875 0 6 0 C 9.3125 0 12 2.6875 12 6 Z M 12 6 "/>
<path fill-rule="nonzero" fill="rgb(100%, 100%, 100%)" fill-opacity="1" d="M 10.792969 5.929688 C 10.792969 8.535156 8.679688 10.648438 6.070312 10.648438 C 3.464844 10.648438 1.351562 8.535156 1.351562 5.929688 C 1.351562 3.320312 3.464844 1.207031 6.070312 1.207031 C 8.679688 1.207031 10.792969 3.320312 10.792969 5.929688 Z M 10.792969 5.929688 "/>
<path fill-rule="nonzero" fill="rgb(0%, 0%, 0%)" fill-opacity="1" d="M 2.921875 5.902344 C 2.921875 7.65625 4.34375 9.078125 6.097656 9.078125 C 7.851562 9.078125 9.273438 7.65625 9.273438 5.902344 C 9.273438 4.148438 7.851562 2.726562 6.097656 2.726562 C 4.34375 2.726562 2.921875 4.148438 2.921875 5.902344 Z M 2.921875 5.902344 "/>
</svg>
