<?xml version="1.0" encoding="UTF-8"?>
<svg xmlns="http://www.w3.org/2000/svg" xmlns:xlink="http://www.w3.org/1999/xlink" width="26.387885" height="12" viewBox="0 0 26.387885 12">
<path fill-rule="nonzero" fill="rgb(90.588236%, 67.058825%, 14.509805%)" fill-opacity="1" d="M 0 0 L 26.386719 0 L 26.386719 12 L 0 12 Z M 0 0 "/>
<path fill-rule="nonzero" fill="rgb(0%, 0%, 0%)" fill-opacity="1" d="M 1.664062 10.332031 L 4.664062 5.753906 L 1.945312 1.554688 L 4.019531 1.554688 L 5.777344 4.371094 L 7.503906 1.554688 L 9.558594 1.554688 L 6.828125 5.816406 L 9.828125 10.332031 L 7.691406 10.332031 L 5.742188 7.296875 L 3.789062 10.332031 Z M 1.664062 10.332031 "/>
<path fill-rule="nonzero" fill="rgb(0%, 0%, 0%)" fill-opacity="1" d="M 15.597656 10.332031 L 15.597656 8.566406 L 12.003906 8.566406 L 12.003906 7.089844 L 15.8125 1.515625 L 17.226562 1.515625 L 17.226562 7.089844 L 18.316406 7.089844 L 18.316406 8.566406 L 17.226562 8.566406 L 17.226562 10.332031 Z M 15.597656 7.089844 L 15.597656 4.085938 L 13.578125 7.089844 Z M 15.597656 7.089844 "/>
<path fill-rule="nonzero" fill="rgb(0%, 0%, 0%)" fill-opacity="1" d="M 21.964844 1.515625 C 22.816406 1.515625 23.476562 1.820312 23.960938 2.425781 C 24.527344 3.148438 24.8125 4.339844 24.8125 6.003906 C 24.8125 7.664062 24.527344 8.859375 23.953125 9.585938 C 23.476562 10.183594 22.816406 10.484375 21.964844 10.484375 C 21.109375 10.484375 20.421875 10.15625 19.898438 9.503906 C 19.371094 8.84375 19.113281 7.671875 19.113281 5.988281 C 19.113281 4.332031 19.398438 3.140625 19.976562 2.414062 C 20.449219 1.816406 21.113281 1.515625 21.964844 1.515625 Z M 21.964844 2.914062 C 21.761719 2.914062 21.578125 2.980469 21.417969 3.109375 C 21.257812 3.238281 21.132812 3.46875 21.046875 3.804688 C 20.933594 4.238281 20.871094 4.972656 20.871094 6.003906 C 20.871094 7.035156 20.925781 7.742188 21.03125 8.128906 C 21.132812 8.511719 21.265625 8.769531 21.417969 8.894531 C 21.578125 9.023438 21.761719 9.085938 21.964844 9.085938 C 22.167969 9.085938 22.347656 9.023438 22.511719 8.894531 C 22.667969 8.765625 22.792969 8.53125 22.882812 8.195312 C 22.996094 7.765625 23.050781 7.035156 23.050781 6.003906 C 23.050781 4.972656 23.003906 4.265625 22.898438 3.882812 C 22.792969 3.496094 22.664062 3.238281 22.503906 3.109375 C 22.347656 2.980469 22.167969 2.914062 21.964844 2.914062 Z M 21.964844 2.914062 "/>
</svg>
