<?xml version="1.0" encoding="UTF-8"?>
<svg xmlns="http://www.w3.org/2000/svg" xmlns:xlink="http://www.w3.org/1999/xlink" width="16" height="16" viewBox="0 0 16 16">
<rect x="-1.6" y="-1.6" width="19.2" height="19.2" fill="rgb(83.137255%, 0%, 0%)" fill-opacity="1"/>
<path fill-rule="nonzero" fill="rgb(100%, 100%, 100%)" fill-opacity="1" d="M 1.601562 1.601562 L 14.398438 1.601562 L 14.398438 14.398438 L 1.601562 14.398438 Z M 1.601562 1.601562 "/>
<path fill-rule="nonzero" fill="rgb(0%, 0%, 0%)" fill-opacity="1" d="M 6.878906 10.347656 L 4.824219 10.347656 L 6.730469 7.792969 C 7.011719 7.441406 7.171875 7.015625 7.171875 6.535156 C 7.171875 5.402344 6.246094 4.480469 5.117188 4.480469 C 3.972656 4.480469 3.066406 5.402344 3.066406 6.535156 L 4.238281 6.535156 C 4.238281 6.050781 4.621094 5.652344 5.117188 5.652344 C 5.601562 5.652344 5.996094 6.050781 5.996094 6.535156 C 5.996094 6.738281 5.953125 6.886719 5.808594 7.0625 L 3.066406 10.757812 L 3.066406 11.519531 L 6.878906 11.519531 Z M 10.191406 5.652344 L 12.640625 5.652344 L 12.640625 4.480469 L 9.121094 4.480469 L 8.828125 8 L 10.589844 8 C 11.234375 8 11.761719 8.511719 11.761719 9.171875 C 11.761719 9.832031 11.234375 10.347656 10.589844 10.347656 C 10.515625 10.347656 10.457031 10.347656 10.398438 10.332031 L 8.652344 10.066406 L 8.550781 11.242188 L 10.222656 11.503906 C 10.339844 11.519531 10.457031 11.519531 10.589844 11.519531 C 11.878906 11.519531 12.933594 10.464844 12.933594 9.171875 C 12.933594 7.882812 11.878906 6.828125 10.589844 6.828125 C 10.414062 6.828125 10.25 6.855469 10.089844 6.886719 Z M 10.191406 5.652344 "/>
</svg>
