<?xml version="1.0" encoding="UTF-8"?>
<svg xmlns="http://www.w3.org/2000/svg" xmlns:xlink="http://www.w3.org/1999/xlink" width="16" height="16" viewBox="0 0 16 16">
<rect x="-1.6" y="-1.6" width="19.2" height="19.2" fill="rgb(83.137255%, 0%, 0%)" fill-opacity="1"/>
<path fill-rule="nonzero" fill="rgb(100%, 100%, 100%)" fill-opacity="1" d="M 1.601562 1.601562 L 14.398438 1.601562 L 14.398438 14.398438 L 1.601562 14.398438 Z M 1.601562 1.601562 "/>
<path fill-rule="nonzero" fill="rgb(0%, 0%, 0%)" fill-opacity="1" d="M 4.589844 5.652344 L 7.039062 5.652344 L 7.039062 4.480469 L 3.519531 4.480469 L 3.226562 8 L 4.984375 8 C 5.632812 8 6.160156 8.511719 6.160156 9.171875 C 6.160156 9.832031 5.632812 10.347656 4.984375 10.347656 C 4.914062 10.347656 4.855469 10.347656 4.796875 10.332031 L 3.050781 10.066406 L 2.949219 11.242188 L 4.621094 11.503906 C 4.738281 11.519531 4.855469 11.519531 4.984375 11.519531 C 6.277344 11.519531 7.332031 10.464844 7.332031 9.171875 C 7.332031 7.882812 6.277344 6.828125 4.984375 6.828125 C 4.808594 6.828125 4.648438 6.855469 4.488281 6.886719 Z M 10.308594 5.652344 L 12.757812 5.652344 L 12.757812 4.480469 L 9.238281 4.480469 L 8.945312 8 L 10.707031 8 C 11.351562 8 11.878906 8.511719 11.878906 9.171875 C 11.878906 9.832031 11.351562 10.347656 10.707031 10.347656 C 10.632812 10.347656 10.574219 10.347656 10.515625 10.332031 L 8.769531 10.066406 L 8.667969 11.242188 L 10.339844 11.503906 C 10.457031 11.519531 10.574219 11.519531 10.707031 11.519531 C 11.996094 11.519531 13.050781 10.464844 13.050781 9.171875 C 13.050781 7.882812 11.996094 6.828125 10.707031 6.828125 C 10.53125 6.828125 10.367188 6.855469 10.207031 6.886719 Z M 10.308594 5.652344 "/>
</svg>
