<?xml version="1.0" encoding="UTF-8"?>
<svg xmlns="http://www.w3.org/2000/svg" xmlns:xlink="http://www.w3.org/1999/xlink" width="16" height="16" viewBox="0 0 16 16">
<rect x="-1.6" y="-1.6" width="19.2" height="19.2" fill="rgb(83.137255%, 0%, 0%)" fill-opacity="1"/>
<path fill-rule="nonzero" fill="rgb(100%, 100%, 100%)" fill-opacity="1" d="M 1.601562 1.601562 L 14.398438 1.601562 L 14.398438 14.398438 L 1.601562 14.398438 Z M 1.601562 1.601562 "/>
<path fill-rule="nonzero" fill="rgb(0%, 0%, 0%)" fill-opacity="1" d="M 5.175781 8 C 5.820312 8 6.351562 8.515625 6.351562 9.175781 C 6.351562 9.835938 5.820312 10.363281 5.175781 10.363281 C 4.53125 10.363281 4.003906 9.835938 4.003906 9.175781 C 4.003906 8.515625 4.53125 8 5.175781 8 Z M 5.175781 11.523438 C 6.46875 11.523438 7.523438 10.464844 7.523438 9.175781 C 7.523438 7.898438 6.46875 6.84375 5.191406 6.84375 L 6.761719 4.1875 L 5.398438 4.1875 L 3.152344 8 C 2.933594 8.339844 2.828125 8.75 2.828125 9.175781 C 2.828125 10.464844 3.886719 11.523438 5.175781 11.523438 Z M 9.648438 8 C 9.648438 7.402344 9.753906 6.8125 9.941406 6.269531 C 10.0625 5.917969 10.414062 5.65625 10.824219 5.65625 C 11.21875 5.65625 11.570312 5.917969 11.6875 6.269531 C 11.878906 6.8125 11.996094 7.402344 11.996094 8 C 11.996094 8.617188 11.878906 9.203125 11.6875 9.746094 C 11.570312 10.097656 11.21875 10.347656 10.824219 10.347656 C 10.414062 10.347656 10.0625 10.097656 9.941406 9.746094 C 9.753906 9.203125 9.648438 8.617188 9.648438 8 Z M 8.476562 8 C 8.476562 8.765625 8.636719 9.496094 8.886719 10.171875 C 9.164062 10.964844 9.929688 11.523438 10.824219 11.523438 C 11.703125 11.523438 12.464844 10.964844 12.746094 10.171875 C 12.992188 9.496094 13.171875 8.765625 13.171875 8 C 13.171875 7.253906 12.992188 6.519531 12.746094 5.847656 C 12.464844 5.054688 11.703125 4.480469 10.824219 4.480469 C 9.929688 4.480469 9.164062 5.054688 8.886719 5.847656 C 8.636719 6.519531 8.476562 7.253906 8.476562 8 Z M 8.476562 8 "/>
</svg>
