<?xml version="1.0" encoding="UTF-8"?>
<svg xmlns="http://www.w3.org/2000/svg" xmlns:xlink="http://www.w3.org/1999/xlink" width="16" height="16" viewBox="0 0 16 16">
<rect x="-1.6" y="-1.6" width="19.2" height="19.2" fill="rgb(83.137255%, 0%, 0%)" fill-opacity="1"/>
<path fill-rule="nonzero" fill="rgb(100%, 100%, 100%)" fill-opacity="1" d="M 1.601562 1.601562 L 14.398438 1.601562 L 14.398438 14.398438 L 1.601562 14.398438 Z M 1.601562 1.601562 "/>
<path fill-rule="nonzero" fill="rgb(0%, 0%, 0%)" fill-opacity="1" d="M 4.84375 8.191406 C 4.929688 8.160156 5.03125 8.148438 5.136719 8.148438 C 5.78125 8.148438 6.308594 8.675781 6.308594 9.320312 C 6.308594 9.976562 5.78125 10.492188 5.136719 10.492188 C 4.476562 10.492188 3.960938 9.976562 3.960938 9.320312 L 2.789062 9.320312 C 2.789062 10.625 3.832031 11.664062 5.136719 11.664062 C 6.425781 11.664062 7.480469 10.625 7.480469 9.320312 C 7.480469 8.660156 7.203125 8.058594 6.761719 7.617188 C 7.027344 7.28125 7.1875 6.855469 7.1875 6.386719 C 7.1875 5.257812 6.261719 4.335938 5.136719 4.335938 C 4.007812 4.335938 3.082031 5.257812 3.082031 6.386719 L 4.253906 6.386719 C 4.253906 5.90625 4.652344 5.507812 5.136719 5.507812 C 5.617188 5.507812 6.015625 5.90625 6.015625 6.386719 C 6.015625 6.871094 5.617188 7.265625 5.136719 7.265625 C 5.019531 7.265625 4.929688 7.253906 4.84375 7.222656 Z M 9.691406 8 C 9.691406 7.398438 9.796875 6.8125 9.984375 6.269531 C 10.101562 5.917969 10.453125 5.65625 10.863281 5.65625 C 11.261719 5.65625 11.613281 5.917969 11.730469 6.269531 C 11.921875 6.8125 12.039062 7.398438 12.039062 8 C 12.039062 8.617188 11.921875 9.203125 11.730469 9.742188 C 11.613281 10.09375 11.261719 10.34375 10.863281 10.34375 C 10.453125 10.34375 10.101562 10.09375 9.984375 9.742188 C 9.796875 9.203125 9.691406 8.617188 9.691406 8 Z M 8.519531 8 C 8.519531 8.761719 8.679688 9.496094 8.929688 10.167969 C 9.210938 10.960938 9.972656 11.515625 10.863281 11.515625 C 11.746094 11.515625 12.507812 10.960938 12.785156 10.167969 C 13.035156 9.496094 13.210938 8.761719 13.210938 8 C 13.210938 7.253906 13.035156 6.519531 12.785156 5.847656 C 12.507812 5.054688 11.746094 4.484375 10.863281 4.484375 C 9.972656 4.484375 9.210938 5.054688 8.929688 5.847656 C 8.679688 6.519531 8.519531 7.253906 8.519531 8 Z M 8.519531 8 "/>
</svg>
