<?xml version="1.0" encoding="UTF-8"?>
<svg xmlns="http://www.w3.org/2000/svg" xmlns:xlink="http://www.w3.org/1999/xlink" width="16" height="16" viewBox="0 0 16 16">
<rect x="-1.6" y="-1.6" width="19.2" height="19.2" fill="rgb(83.137255%, 0%, 0%)" fill-opacity="1"/>
<path fill-rule="nonzero" fill="rgb(100%, 100%, 100%)" fill-opacity="1" d="M 1.601562 1.601562 L 14.398438 1.601562 L 14.398438 14.398438 L 1.601562 14.398438 Z M 1.601562 1.601562 "/>
<path fill-rule="nonzero" fill="rgb(0%, 0%, 0%)" fill-opacity="1" d="M 3.203125 5.652344 L 5.933594 5.652344 L 3.789062 11.519531 L 5.050781 11.519531 L 7.324219 5.285156 L 7.3125 4.480469 L 3.203125 4.480469 Z M 10.054688 5.652344 L 12.503906 5.652344 L 12.503906 4.480469 L 8.984375 4.480469 L 8.6875 8 L 10.449219 8 C 11.09375 8 11.621094 8.511719 11.621094 9.171875 C 11.621094 9.832031 11.09375 10.347656 10.449219 10.347656 C 10.375 10.347656 10.316406 10.347656 10.257812 10.332031 L 8.511719 10.066406 L 8.410156 11.242188 L 10.082031 11.503906 C 10.199219 11.519531 10.316406 11.519531 10.449219 11.519531 C 11.738281 11.519531 12.796875 10.464844 12.796875 9.171875 C 12.796875 7.882812 11.738281 6.828125 10.449219 6.828125 C 10.273438 6.828125 10.113281 6.855469 9.949219 6.886719 Z M 10.054688 5.652344 "/>
</svg>
