<?xml version="1.0" encoding="UTF-8"?>
<svg xmlns="http://www.w3.org/2000/svg" xmlns:xlink="http://www.w3.org/1999/xlink" width="16" height="16" viewBox="0 0 16 16">
<rect x="-1.6" y="-1.6" width="19.2" height="19.2" fill="rgb(83.137255%, 0%, 0%)" fill-opacity="1"/>
<path fill-rule="nonzero" fill="rgb(100%, 100%, 100%)" fill-opacity="1" d="M 1.601562 1.601562 L 14.398438 1.601562 L 14.398438 14.398438 L 1.601562 14.398438 Z M 1.601562 1.601562 "/>
<path fill-rule="nonzero" fill="rgb(0%, 0%, 0%)" fill-opacity="1" d="M 6.304688 9.320312 C 6.304688 9.980469 5.777344 10.496094 5.132812 10.496094 C 4.472656 10.496094 3.960938 9.980469 3.960938 9.320312 C 3.960938 8.675781 4.472656 8.148438 5.132812 8.148438 C 5.777344 8.148438 6.304688 8.675781 6.304688 9.320312 Z M 7.1875 6.386719 C 7.1875 5.257812 6.261719 4.335938 5.132812 4.335938 C 4.003906 4.335938 3.078125 5.257812 3.078125 6.386719 C 3.078125 6.859375 3.226562 7.285156 3.488281 7.621094 C 3.050781 8.0625 2.785156 8.660156 2.785156 9.320312 C 2.785156 10.628906 3.828125 11.667969 5.132812 11.667969 C 6.421875 11.667969 7.480469 10.628906 7.480469 9.320312 C 7.480469 8.660156 7.199219 8.0625 6.761719 7.621094 C 7.023438 7.285156 7.1875 6.859375 7.1875 6.386719 Z M 5.132812 7.269531 C 4.648438 7.269531 4.253906 6.871094 4.253906 6.386719 C 4.253906 5.90625 4.648438 5.507812 5.132812 5.507812 C 5.617188 5.507812 6.011719 5.90625 6.011719 6.386719 C 6.011719 6.871094 5.617188 7.269531 5.132812 7.269531 Z M 9.695312 8 C 9.695312 7.402344 9.796875 6.8125 9.988281 6.269531 C 10.105469 5.917969 10.457031 5.65625 10.867188 5.65625 C 11.261719 5.65625 11.617188 5.917969 11.734375 6.269531 C 11.921875 6.8125 12.039062 7.402344 12.039062 8 C 12.039062 8.617188 11.921875 9.203125 11.734375 9.746094 C 11.617188 10.097656 11.261719 10.347656 10.867188 10.347656 C 10.457031 10.347656 10.105469 10.097656 9.988281 9.746094 C 9.796875 9.203125 9.695312 8.617188 9.695312 8 Z M 8.519531 8 C 8.519531 8.765625 8.683594 9.496094 8.929688 10.171875 C 9.210938 10.964844 9.972656 11.523438 10.867188 11.523438 C 11.746094 11.523438 12.511719 10.964844 12.789062 10.171875 C 13.039062 9.496094 13.214844 8.765625 13.214844 8 C 13.214844 7.253906 13.039062 6.519531 12.789062 5.847656 C 12.511719 5.054688 11.746094 4.480469 10.867188 4.480469 C 9.972656 4.480469 9.210938 5.054688 8.929688 5.847656 C 8.683594 6.519531 8.519531 7.253906 8.519531 8 Z M 8.519531 8 "/>
</svg>
