<?xml version="1.0" encoding="UTF-8"?>
<svg xmlns="http://www.w3.org/2000/svg" xmlns:xlink="http://www.w3.org/1999/xlink" width="16" height="16" viewBox="0 0 16 16">
<rect x="-1.6" y="-1.6" width="19.2" height="19.2" fill="rgb(83.137255%, 0%, 0%)" fill-opacity="1"/>
<path fill-rule="nonzero" fill="rgb(100%, 100%, 100%)" fill-opacity="1" d="M 1.601562 1.601562 L 14.398438 1.601562 L 14.398438 14.398438 L 1.601562 14.398438 Z M 1.601562 1.601562 "/>
<path fill-rule="nonzero" fill="rgb(0%, 0%, 0%)" fill-opacity="1" d="M 5.464844 8.011719 C 4.816406 8.011719 4.289062 7.496094 4.289062 6.832031 C 4.289062 6.171875 4.816406 5.640625 5.464844 5.640625 C 6.113281 5.640625 6.644531 6.171875 6.644531 6.832031 C 6.644531 7.496094 6.113281 8.011719 5.464844 8.011719 Z M 5.464844 4.476562 C 4.167969 4.476562 3.109375 5.539062 3.109375 6.832031 C 3.109375 8.128906 4.15625 9.1875 5.4375 9.1875 L 3.875 11.835938 L 5.230469 11.835938 L 7.480469 8.023438 C 7.703125 7.6875 7.820312 7.273438 7.820312 6.832031 C 7.820312 5.539062 6.761719 4.476562 5.464844 4.476562 Z M 9.691406 8.011719 C 9.691406 7.40625 9.792969 6.816406 9.984375 6.273438 C 10.101562 5.921875 10.457031 5.65625 10.867188 5.65625 C 11.265625 5.65625 11.617188 5.921875 11.734375 6.273438 C 11.925781 6.816406 12.046875 7.40625 12.046875 8.011719 C 12.046875 8.628906 11.925781 9.21875 11.734375 9.761719 C 11.617188 10.117188 11.265625 10.367188 10.867188 10.367188 C 10.457031 10.367188 10.101562 10.117188 9.984375 9.761719 C 9.792969 9.21875 9.691406 8.628906 9.691406 8.011719 Z M 8.511719 8.011719 C 8.511719 8.777344 8.675781 9.511719 8.925781 10.1875 C 9.203125 10.984375 9.96875 11.542969 10.867188 11.542969 C 11.75 11.542969 12.515625 10.984375 12.796875 10.1875 C 13.046875 9.511719 13.222656 8.777344 13.222656 8.011719 C 13.222656 7.257812 13.046875 6.523438 12.796875 5.847656 C 12.515625 5.050781 11.75 4.476562 10.867188 4.476562 C 9.96875 4.476562 9.203125 5.050781 8.925781 5.847656 C 8.675781 6.523438 8.511719 7.257812 8.511719 8.011719 Z M 8.511719 8.011719 "/>
</svg>
