<?xml version="1.0" encoding="UTF-8"?>
<svg xmlns="http://www.w3.org/2000/svg" xmlns:xlink="http://www.w3.org/1999/xlink" width="16" height="16" viewBox="0 0 16 16">
<rect x="-1.6" y="-1.6" width="19.2" height="19.2" fill="rgb(83.137255%, 0%, 0%)" fill-opacity="1"/>
<path fill-rule="nonzero" fill="rgb(100%, 100%, 100%)" fill-opacity="1" d="M 1.601562 1.601562 L 14.398438 1.601562 L 14.398438 14.398438 L 1.601562 14.398438 Z M 1.601562 1.601562 "/>
<path fill-rule="nonzero" fill="rgb(0%, 0%, 0%)" fill-opacity="1" d="M 5.265625 8 C 4.621094 8 4.089844 7.488281 4.089844 6.828125 C 4.089844 6.167969 4.621094 5.636719 5.265625 5.636719 C 5.910156 5.636719 6.4375 6.167969 6.4375 6.828125 C 6.4375 7.488281 5.910156 8 5.265625 8 Z M 5.265625 4.480469 C 3.972656 4.480469 2.917969 5.535156 2.917969 6.828125 C 2.917969 8.117188 3.960938 9.171875 5.234375 9.171875 L 3.679688 11.8125 L 5.03125 11.8125 L 7.273438 8.015625 C 7.492188 7.675781 7.609375 7.265625 7.609375 6.828125 C 7.609375 5.535156 6.554688 4.480469 5.265625 4.480469 Z M 10.339844 5.652344 L 12.789062 5.652344 L 12.789062 4.480469 L 9.269531 4.480469 L 8.976562 8 L 10.734375 8 C 11.378906 8 11.910156 8.511719 11.910156 9.171875 C 11.910156 9.832031 11.378906 10.347656 10.734375 10.347656 C 10.660156 10.347656 10.601562 10.347656 10.542969 10.332031 L 8.800781 10.066406 L 8.695312 11.242188 L 10.367188 11.503906 C 10.484375 11.519531 10.601562 11.519531 10.734375 11.519531 C 12.027344 11.519531 13.082031 10.464844 13.082031 9.171875 C 13.082031 7.882812 12.027344 6.828125 10.734375 6.828125 C 10.558594 6.828125 10.398438 6.855469 10.238281 6.886719 Z M 10.339844 5.652344 "/>
</svg>
