<?xml version="1.0" encoding="UTF-8"?>
<svg xmlns="http://www.w3.org/2000/svg" xmlns:xlink="http://www.w3.org/1999/xlink" width="16" height="16" viewBox="0 0 16 16">
<rect x="-1.6" y="-1.6" width="19.2" height="19.2" fill="rgb(83.137255%, 0%, 0%)" fill-opacity="1"/>
<path fill-rule="nonzero" fill="rgb(100%, 100%, 100%)" fill-opacity="1" d="M 1.601562 1.601562 L 14.398438 1.601562 L 14.398438 14.398438 L 1.601562 14.398438 Z M 1.601562 1.601562 "/>
<path fill-rule="nonzero" fill="rgb(0%, 0%, 0%)" fill-opacity="1" d="M 5.132812 8 C 5.777344 8 6.304688 8.511719 6.304688 9.171875 C 6.304688 9.832031 5.777344 10.359375 5.132812 10.359375 C 4.488281 10.359375 3.960938 9.832031 3.960938 9.171875 C 3.960938 8.511719 4.488281 8 5.132812 8 Z M 5.132812 11.519531 C 6.421875 11.519531 7.480469 10.464844 7.480469 9.171875 C 7.480469 7.898438 6.421875 6.839844 5.148438 6.839844 L 6.714844 4.1875 L 5.351562 4.1875 L 3.109375 8 C 2.886719 8.335938 2.785156 8.746094 2.785156 9.171875 C 2.785156 10.464844 3.84375 11.519531 5.132812 11.519531 Z M 10.472656 5.652344 L 12.921875 5.652344 L 12.921875 4.480469 L 9.402344 4.480469 L 9.105469 8 L 10.867188 8 C 11.511719 8 12.039062 8.511719 12.039062 9.171875 C 12.039062 9.832031 11.511719 10.347656 10.867188 10.347656 C 10.792969 10.347656 10.734375 10.347656 10.675781 10.332031 L 8.929688 10.066406 L 8.828125 11.242188 L 10.5 11.503906 C 10.617188 11.519531 10.734375 11.519531 10.867188 11.519531 C 12.15625 11.519531 13.214844 10.464844 13.214844 9.171875 C 13.214844 7.882812 12.15625 6.828125 10.867188 6.828125 C 10.691406 6.828125 10.53125 6.855469 10.367188 6.886719 Z M 10.472656 5.652344 "/>
</svg>
