<?xml version="1.0" encoding="UTF-8"?>
<svg xmlns="http://www.w3.org/2000/svg" xmlns:xlink="http://www.w3.org/1999/xlink" width="16" height="16" viewBox="0 0 16 16">
<rect x="-1.6" y="-1.6" width="19.2" height="19.2" fill="rgb(0%, 0%, 0%)" fill-opacity="1"/>
<path fill-rule="nonzero" fill="rgb(100%, 100%, 100%)" fill-opacity="1" d="M 0.535156 0.535156 L 15.464844 0.535156 L 15.464844 15.464844 L 0.535156 15.464844 Z M 0.535156 0.535156 "/>
<path fill-rule="nonzero" fill="rgb(66.666667%, 66.666667%, 66.27451%)" fill-opacity="1" d="M 5.703125 4.480469 L 2.769531 8.585938 L 2.769531 9.761719 L 5.703125 9.761719 L 5.703125 11.519531 L 6.878906 11.519531 L 6.878906 9.761719 L 7.464844 9.761719 L 7.757812 8.585938 L 6.878906 8.585938 L 6.878906 4.480469 Z M 5.703125 8.585938 L 3.945312 8.585938 L 5.703125 6.136719 Z M 10.484375 5.652344 L 12.933594 5.652344 L 12.933594 4.480469 L 9.414062 4.480469 L 9.121094 8 L 10.882812 8 C 11.527344 8 12.054688 8.511719 12.054688 9.171875 C 12.054688 9.832031 11.527344 10.347656 10.882812 10.347656 C 10.808594 10.347656 10.75 10.347656 10.691406 10.332031 L 8.945312 10.066406 L 8.84375 11.242188 L 10.515625 11.503906 C 10.632812 11.519531 10.75 11.519531 10.882812 11.519531 C 12.171875 11.519531 13.230469 10.464844 13.230469 9.171875 C 13.230469 7.882812 12.171875 6.828125 10.882812 6.828125 C 10.707031 6.828125 10.542969 6.855469 10.382812 6.886719 Z M 10.484375 5.652344 "/>
<path fill-rule="nonzero" fill="rgb(0%, 0%, 0%)" fill-opacity="1" d="M 15.464844 0.535156 C 0.535156 15.464844 0.535156 15.464844 0.535156 15.464844 "/>
<path fill-rule="nonzero" fill="rgb(0%, 0%, 0%)" fill-opacity="1" d="M 14.335938 0.535156 L 0.535156 14.339844 L 0.53125 15.464844 L 1.660156 15.464844 L 15.46875 1.667969 L 15.464844 0.535156 Z M 14.335938 0.535156 "/>
</svg>
