<?xml version="1.0" encoding="UTF-8"?>
<svg xmlns="http://www.w3.org/2000/svg" xmlns:xlink="http://www.w3.org/1999/xlink" width="16" height="16" viewBox="0 0 16 16">
<rect x="-1.6" y="-1.6" width="19.2" height="19.2" fill="rgb(0%, 0%, 0%)" fill-opacity="1"/>
<path fill-rule="nonzero" fill="rgb(100%, 100%, 100%)" fill-opacity="1" d="M 0.53125 0.535156 L 15.464844 0.535156 L 15.464844 15.464844 L 0.53125 15.464844 Z M 0.53125 0.535156 "/>
<path fill-rule="nonzero" fill="rgb(66.666667%, 66.666667%, 66.27451%)" fill-opacity="1" d="M 6.921875 10.347656 L 4.867188 10.347656 L 6.773438 7.792969 C 7.054688 7.441406 7.214844 7.015625 7.214844 6.535156 C 7.214844 5.402344 6.292969 4.480469 5.160156 4.480469 C 4.019531 4.480469 3.109375 5.402344 3.109375 6.535156 L 4.28125 6.535156 C 4.28125 6.050781 4.664062 5.652344 5.160156 5.652344 C 5.644531 5.652344 6.042969 6.050781 6.042969 6.535156 C 6.042969 6.738281 5.996094 6.886719 5.851562 7.0625 L 3.109375 10.757812 L 3.109375 11.519531 L 6.921875 11.519531 Z M 9.371094 8 C 9.371094 7.398438 9.472656 6.8125 9.664062 6.269531 C 9.78125 5.917969 10.132812 5.652344 10.542969 5.652344 C 10.941406 5.652344 11.292969 5.917969 11.410156 6.269531 C 11.601562 6.8125 11.71875 7.398438 11.71875 8 C 11.71875 8.617188 11.601562 9.203125 11.410156 9.746094 C 11.292969 10.097656 10.941406 10.347656 10.542969 10.347656 C 10.132812 10.347656 9.78125 10.097656 9.664062 9.746094 C 9.472656 9.203125 9.371094 8.617188 9.371094 8 Z M 8.199219 8 C 8.199219 8.761719 8.359375 9.496094 8.609375 10.171875 C 8.886719 10.960938 9.648438 11.519531 10.542969 11.519531 C 11.425781 11.519531 12.1875 10.960938 12.464844 10.171875 C 12.714844 9.496094 12.890625 8.761719 12.890625 8 C 12.890625 7.253906 12.714844 6.519531 12.464844 5.84375 C 12.1875 5.050781 11.425781 4.480469 10.542969 4.480469 C 9.648438 4.480469 8.886719 5.050781 8.609375 5.84375 C 8.359375 6.519531 8.199219 7.253906 8.199219 8 Z M 8.199219 8 "/>
<path fill-rule="nonzero" fill="rgb(0%, 0%, 0%)" fill-opacity="1" d="M 15.464844 0.535156 C 0.53125 15.464844 0.53125 15.464844 0.53125 15.464844 "/>
<path fill-rule="nonzero" fill="rgb(0%, 0%, 0%)" fill-opacity="1" d="M 14.335938 0.535156 L 0.53125 14.339844 L 0.53125 15.464844 L 1.660156 15.464844 L 15.46875 1.667969 L 15.464844 0.535156 Z M 14.335938 0.535156 "/>
</svg>
