<?xml version="1.0" encoding="UTF-8"?>
<svg xmlns="http://www.w3.org/2000/svg" xmlns:xlink="http://www.w3.org/1999/xlink" width="16" height="16" viewBox="0 0 16 16">
<rect x="-1.6" y="-1.6" width="19.2" height="19.2" fill="rgb(0%, 0%, 0%)" fill-opacity="1"/>
<path fill-rule="nonzero" fill="rgb(100%, 100%, 100%)" fill-opacity="1" d="M 0.535156 0.535156 L 15.464844 0.535156 L 15.464844 15.464844 L 0.535156 15.464844 Z M 0.535156 0.535156 "/>
<path fill-rule="nonzero" fill="rgb(66.666667%, 66.666667%, 66.27451%)" fill-opacity="1" d="M 4.632812 5.652344 L 7.082031 5.652344 L 7.082031 4.480469 L 3.5625 4.480469 L 3.269531 8 L 5.03125 8 C 5.675781 8 6.203125 8.511719 6.203125 9.171875 C 6.203125 9.832031 5.675781 10.347656 5.03125 10.347656 C 4.957031 10.347656 4.898438 10.347656 4.839844 10.332031 L 3.09375 10.066406 L 2.992188 11.242188 L 4.664062 11.503906 C 4.78125 11.519531 4.898438 11.519531 5.03125 11.519531 C 6.320312 11.519531 7.375 10.464844 7.375 9.171875 C 7.375 7.882812 6.320312 6.828125 5.03125 6.828125 C 4.855469 6.828125 4.691406 6.855469 4.53125 6.886719 Z M 9.488281 8 C 9.488281 7.398438 9.589844 6.8125 9.78125 6.269531 C 9.898438 5.917969 10.25 5.652344 10.660156 5.652344 C 11.058594 5.652344 11.410156 5.917969 11.527344 6.269531 C 11.71875 6.8125 11.835938 7.398438 11.835938 8 C 11.835938 8.617188 11.71875 9.203125 11.527344 9.746094 C 11.410156 10.097656 11.058594 10.347656 10.660156 10.347656 C 10.25 10.347656 9.898438 10.097656 9.78125 9.746094 C 9.589844 9.203125 9.488281 8.617188 9.488281 8 Z M 8.316406 8 C 8.316406 8.761719 8.476562 9.496094 8.726562 10.171875 C 9.003906 10.960938 9.765625 11.519531 10.660156 11.519531 C 11.542969 11.519531 12.304688 10.960938 12.582031 10.171875 C 12.832031 9.496094 13.007812 8.761719 13.007812 8 C 13.007812 7.253906 12.832031 6.519531 12.582031 5.84375 C 12.304688 5.050781 11.542969 4.480469 10.660156 4.480469 C 9.765625 4.480469 9.003906 5.050781 8.726562 5.84375 C 8.476562 6.519531 8.316406 7.253906 8.316406 8 Z M 8.316406 8 "/>
<path fill-rule="nonzero" fill="rgb(0%, 0%, 0%)" fill-opacity="1" d="M 15.464844 0.535156 C 0.535156 15.464844 0.535156 15.464844 0.535156 15.464844 "/>
<path fill-rule="nonzero" fill="rgb(0%, 0%, 0%)" fill-opacity="1" d="M 14.335938 0.535156 L 0.535156 14.339844 L 0.53125 15.464844 L 1.660156 15.464844 L 15.46875 1.667969 L 15.464844 0.535156 Z M 14.335938 0.535156 "/>
</svg>
