<?xml version="1.0" encoding="UTF-8"?>
<svg xmlns="http://www.w3.org/2000/svg" xmlns:xlink="http://www.w3.org/1999/xlink" width="16" height="16" viewBox="0 0 16 16">
<rect x="-1.6" y="-1.6" width="19.2" height="19.2" fill="rgb(0%, 0%, 0%)" fill-opacity="1"/>
<path fill-rule="nonzero" fill="rgb(100%, 100%, 100%)" fill-opacity="1" d="M 0.535156 0.535156 L 15.464844 0.535156 L 15.464844 15.464844 L 0.535156 15.464844 Z M 0.535156 0.535156 "/>
<path fill-rule="nonzero" fill="rgb(66.666667%, 66.666667%, 66.27451%)" fill-opacity="1" d="M 3.84375 5.652344 L 3.84375 6.828125 L 5.015625 6.828125 L 5.015625 11.519531 L 6.1875 11.519531 L 6.1875 4.480469 L 5.015625 4.496094 C 5.015625 5.140625 4.488281 5.652344 3.84375 5.652344 Z M 8.636719 8 C 8.636719 7.398438 8.742188 6.8125 8.929688 6.269531 C 9.046875 5.917969 9.402344 5.652344 9.8125 5.652344 C 10.207031 5.652344 10.558594 5.917969 10.675781 6.269531 C 10.867188 6.8125 10.984375 7.398438 10.984375 8 C 10.984375 8.617188 10.867188 9.203125 10.675781 9.746094 C 10.558594 10.097656 10.207031 10.347656 9.8125 10.347656 C 9.402344 10.347656 9.046875 10.097656 8.929688 9.746094 C 8.742188 9.203125 8.636719 8.617188 8.636719 8 Z M 7.464844 8 C 7.464844 8.761719 7.625 9.496094 7.875 10.171875 C 8.152344 10.960938 8.917969 11.519531 9.8125 11.519531 C 10.691406 11.519531 11.453125 10.960938 11.734375 10.171875 C 11.980469 9.496094 12.15625 8.761719 12.15625 8 C 12.15625 7.253906 11.980469 6.519531 11.734375 5.84375 C 11.453125 5.050781 10.691406 4.480469 9.8125 4.480469 C 8.917969 4.480469 8.152344 5.050781 7.875 5.84375 C 7.625 6.519531 7.464844 7.253906 7.464844 8 Z M 7.464844 8 "/>
<path fill-rule="nonzero" fill="rgb(0%, 0%, 0%)" fill-opacity="1" d="M 15.464844 0.535156 C 0.535156 15.464844 0.535156 15.464844 0.535156 15.464844 "/>
<path fill-rule="nonzero" fill="rgb(0%, 0%, 0%)" fill-opacity="1" d="M 14.335938 0.535156 L 0.535156 14.339844 L 0.53125 15.464844 L 1.660156 15.464844 L 15.46875 1.667969 L 15.464844 0.535156 Z M 14.335938 0.535156 "/>
</svg>
