<?xml version="1.0" encoding="UTF-8"?>
<svg xmlns="http://www.w3.org/2000/svg" xmlns:xlink="http://www.w3.org/1999/xlink" width="16" height="16" viewBox="0 0 16 16">
<rect x="-1.6" y="-1.6" width="19.2" height="19.2" fill="rgb(0%, 0%, 0%)" fill-opacity="1"/>
<path fill-rule="nonzero" fill="rgb(100%, 100%, 100%)" fill-opacity="1" d="M 0.535156 0.535156 L 15.464844 0.535156 L 15.464844 15.464844 L 0.535156 15.464844 Z M 0.535156 0.535156 "/>
<path fill-rule="nonzero" fill="rgb(66.666667%, 66.666667%, 66.27451%)" fill-opacity="1" d="M 6.261719 9.320312 C 6.261719 9.980469 5.734375 10.492188 5.089844 10.492188 C 4.429688 10.492188 3.914062 9.980469 3.914062 9.320312 C 3.914062 8.675781 4.429688 8.148438 5.089844 8.148438 C 5.734375 8.148438 6.261719 8.675781 6.261719 9.320312 Z M 7.140625 6.386719 C 7.140625 5.257812 6.21875 4.332031 5.089844 4.332031 C 3.960938 4.332031 3.035156 5.257812 3.035156 6.386719 C 3.035156 6.855469 3.183594 7.28125 3.445312 7.617188 C 3.007812 8.058594 2.742188 8.660156 2.742188 9.320312 C 2.742188 10.625 3.785156 11.667969 5.089844 11.667969 C 6.378906 11.667969 7.433594 10.625 7.433594 9.320312 C 7.433594 8.660156 7.15625 8.058594 6.714844 7.617188 C 6.980469 7.28125 7.140625 6.855469 7.140625 6.386719 Z M 5.089844 7.265625 C 4.605469 7.265625 4.207031 6.871094 4.207031 6.386719 C 4.207031 5.902344 4.605469 5.507812 5.089844 5.507812 C 5.574219 5.507812 5.96875 5.902344 5.96875 6.386719 C 5.96875 6.871094 5.574219 7.265625 5.089844 7.265625 Z M 10.515625 5.652344 L 12.964844 5.652344 L 12.964844 4.480469 L 9.445312 4.480469 L 9.152344 8 L 10.910156 8 C 11.554688 8 12.085938 8.511719 12.085938 9.171875 C 12.085938 9.832031 11.554688 10.347656 10.910156 10.347656 C 10.839844 10.347656 10.777344 10.347656 10.71875 10.332031 L 8.976562 10.066406 L 8.871094 11.242188 L 10.542969 11.503906 C 10.660156 11.519531 10.777344 11.519531 10.910156 11.519531 C 12.203125 11.519531 13.257812 10.464844 13.257812 9.171875 C 13.257812 7.882812 12.203125 6.828125 10.910156 6.828125 C 10.734375 6.828125 10.574219 6.855469 10.414062 6.886719 Z M 10.515625 5.652344 "/>
<path fill-rule="nonzero" fill="rgb(0%, 0%, 0%)" fill-opacity="1" d="M 15.464844 0.535156 C 0.535156 15.464844 0.535156 15.464844 0.535156 15.464844 "/>
<path fill-rule="nonzero" fill="rgb(0%, 0%, 0%)" fill-opacity="1" d="M 14.335938 0.535156 L 0.535156 14.339844 L 0.53125 15.464844 L 1.660156 15.464844 L 15.46875 1.667969 L 15.464844 0.535156 Z M 14.335938 0.535156 "/>
</svg>
