<?xml version="1.0" encoding="UTF-8"?>
<svg xmlns="http://www.w3.org/2000/svg" xmlns:xlink="http://www.w3.org/1999/xlink" width="16" height="16" viewBox="0 0 16 16">
<rect x="-1.6" y="-1.6" width="19.2" height="19.2" fill="rgb(0%, 0%, 0%)" fill-opacity="1"/>
<path fill-rule="nonzero" fill="rgb(100%, 100%, 100%)" fill-opacity="1" d="M 0.535156 0.535156 L 15.464844 0.535156 L 15.464844 15.464844 L 0.535156 15.464844 Z M 0.535156 0.535156 "/>
<path fill-rule="nonzero" fill="rgb(66.666667%, 66.666667%, 66.27451%)" fill-opacity="1" d="M 3.796875 5.652344 L 3.796875 6.828125 L 4.972656 6.828125 L 4.972656 11.519531 L 6.144531 11.519531 L 6.144531 4.480469 L 4.972656 4.496094 C 4.972656 5.140625 4.441406 5.652344 3.796875 5.652344 Z M 9.460938 5.652344 L 11.910156 5.652344 L 11.910156 4.480469 L 8.386719 4.480469 L 8.09375 8 L 9.855469 8 C 10.5 8 11.027344 8.511719 11.027344 9.171875 C 11.027344 9.832031 10.5 10.347656 9.855469 10.347656 C 9.78125 10.347656 9.722656 10.347656 9.664062 10.332031 L 7.917969 10.066406 L 7.816406 11.242188 L 9.488281 11.503906 C 9.605469 11.519531 9.722656 11.519531 9.855469 11.519531 C 11.144531 11.519531 12.203125 10.464844 12.203125 9.171875 C 12.203125 7.882812 11.144531 6.828125 9.855469 6.828125 C 9.679688 6.828125 9.519531 6.855469 9.355469 6.886719 Z M 9.460938 5.652344 "/>
<path fill-rule="nonzero" fill="rgb(0%, 0%, 0%)" fill-opacity="1" d="M 15.464844 0.535156 C 0.535156 15.464844 0.535156 15.464844 0.535156 15.464844 "/>
<path fill-rule="nonzero" fill="rgb(0%, 0%, 0%)" fill-opacity="1" d="M 14.335938 0.535156 L 0.535156 14.339844 L 0.53125 15.464844 L 1.660156 15.464844 L 15.46875 1.667969 L 15.464844 0.535156 Z M 14.335938 0.535156 "/>
</svg>
