<?xml version="1.0" encoding="UTF-8"?>
<svg xmlns="http://www.w3.org/2000/svg" xmlns:xlink="http://www.w3.org/1999/xlink" width="16" height="16" viewBox="0 0 16 16">
<rect x="-1.6" y="-1.6" width="19.2" height="19.2" fill="rgb(0%, 0%, 0%)" fill-opacity="1"/>
<path fill-rule="nonzero" fill="rgb(100%, 100%, 100%)" fill-opacity="1" d="M 0.535156 0.535156 L 15.464844 0.535156 L 15.464844 15.464844 L 0.535156 15.464844 Z M 0.535156 0.535156 "/>
<path fill-rule="nonzero" fill="rgb(66.666667%, 66.666667%, 66.27451%)" fill-opacity="1" d="M 3.246094 5.652344 L 5.976562 5.652344 L 3.835938 11.519531 L 5.097656 11.519531 L 7.371094 5.285156 L 7.355469 4.480469 L 3.246094 4.480469 Z M 9.230469 8 C 9.230469 7.398438 9.335938 6.8125 9.523438 6.269531 C 9.644531 5.917969 9.996094 5.652344 10.40625 5.652344 C 10.800781 5.652344 11.152344 5.917969 11.269531 6.269531 C 11.460938 6.8125 11.578125 7.398438 11.578125 8 C 11.578125 8.617188 11.460938 9.203125 11.269531 9.746094 C 11.152344 10.097656 10.800781 10.347656 10.40625 10.347656 C 9.996094 10.347656 9.644531 10.097656 9.523438 9.746094 C 9.335938 9.203125 9.230469 8.617188 9.230469 8 Z M 8.058594 8 C 8.058594 8.761719 8.21875 9.496094 8.46875 10.171875 C 8.746094 10.960938 9.511719 11.519531 10.40625 11.519531 C 11.285156 11.519531 12.046875 10.960938 12.328125 10.171875 C 12.574219 9.496094 12.753906 8.761719 12.753906 8 C 12.753906 7.253906 12.574219 6.519531 12.328125 5.84375 C 12.046875 5.050781 11.285156 4.480469 10.40625 4.480469 C 9.511719 4.480469 8.746094 5.050781 8.46875 5.84375 C 8.21875 6.519531 8.058594 7.253906 8.058594 8 Z M 8.058594 8 "/>
<path fill-rule="nonzero" fill="rgb(0%, 0%, 0%)" fill-opacity="1" d="M 15.464844 0.535156 C 0.535156 15.464844 0.535156 15.464844 0.535156 15.464844 "/>
<path fill-rule="nonzero" fill="rgb(0%, 0%, 0%)" fill-opacity="1" d="M 14.335938 0.535156 L 0.535156 14.339844 L 0.53125 15.464844 L 1.660156 15.464844 L 15.46875 1.667969 L 15.464844 0.535156 Z M 14.335938 0.535156 "/>
</svg>
