<?xml version="1.0" encoding="UTF-8"?>
<svg xmlns="http://www.w3.org/2000/svg" xmlns:xlink="http://www.w3.org/1999/xlink" width="16" height="16" viewBox="0 0 16 16">
<rect x="-1.6" y="-1.6" width="19.2" height="19.2" fill="rgb(0%, 0%, 0%)" fill-opacity="1"/>
<path fill-rule="nonzero" fill="rgb(100%, 100%, 100%)" fill-opacity="1" d="M 0.535156 0.535156 L 15.464844 0.535156 L 15.464844 15.464844 L 0.535156 15.464844 Z M 0.535156 0.535156 "/>
<path fill-rule="nonzero" fill="rgb(66.666667%, 66.666667%, 66.27451%)" fill-opacity="1" d="M 5.75 4.480469 L 2.816406 8.585938 L 2.816406 9.761719 L 5.75 9.761719 L 5.75 11.519531 L 6.921875 11.519531 L 6.921875 9.761719 L 7.507812 9.761719 L 7.800781 8.585938 L 6.921875 8.585938 L 6.921875 4.480469 Z M 5.75 8.585938 L 3.988281 8.585938 L 5.75 6.136719 Z M 9.664062 8 C 9.664062 7.398438 9.765625 6.8125 9.957031 6.269531 C 10.074219 5.917969 10.425781 5.652344 10.839844 5.652344 C 11.234375 5.652344 11.585938 5.917969 11.703125 6.269531 C 11.894531 6.8125 12.011719 7.398438 12.011719 8 C 12.011719 8.617188 11.894531 9.203125 11.703125 9.746094 C 11.585938 10.097656 11.234375 10.347656 10.839844 10.347656 C 10.425781 10.347656 10.074219 10.097656 9.957031 9.746094 C 9.765625 9.203125 9.664062 8.617188 9.664062 8 Z M 8.492188 8 C 8.492188 8.761719 8.652344 9.496094 8.902344 10.171875 C 9.179688 10.960938 9.941406 11.519531 10.839844 11.519531 C 11.71875 11.519531 12.480469 10.960938 12.757812 10.171875 C 13.007812 9.496094 13.183594 8.761719 13.183594 8 C 13.183594 7.253906 13.007812 6.519531 12.757812 5.84375 C 12.480469 5.050781 11.71875 4.480469 10.839844 4.480469 C 9.941406 4.480469 9.179688 5.050781 8.902344 5.84375 C 8.652344 6.519531 8.492188 7.253906 8.492188 8 Z M 8.492188 8 "/>
<path fill-rule="nonzero" fill="rgb(0%, 0%, 0%)" fill-opacity="1" d="M 15.464844 0.535156 C 0.535156 15.464844 0.535156 15.464844 0.535156 15.464844 "/>
<path fill-rule="nonzero" fill="rgb(0%, 0%, 0%)" fill-opacity="1" d="M 14.335938 0.535156 L 0.535156 14.339844 L 0.53125 15.464844 L 1.660156 15.464844 L 15.46875 1.667969 L 15.464844 0.535156 Z M 14.335938 0.535156 "/>
</svg>
