<?xml version="1.0" encoding="UTF-8"?>
<svg xmlns="http://www.w3.org/2000/svg" xmlns:xlink="http://www.w3.org/1999/xlink" width="19.553091" height="12" viewBox="0 0 19.553091 12">
<path fill="none" stroke-width="0.779165" stroke-linecap="round" stroke-linejoin="miter" stroke="rgb(0%, 0%, 0%)" stroke-opacity="1" stroke-miterlimit="4" d="M 103.075176 86.797477 L 134.692326 86.797477 C 134.8037 86.797477 134.888869 86.889197 134.888869 86.994019 L 134.888869 105.953827 C 134.888869 106.05865 134.8037 106.150369 134.692326 106.150369 L 103.075176 106.150369 C 102.963802 106.150369 102.872082 106.05865 102.872082 105.953827 L 102.872082 86.994019 C 102.872082 86.889197 102.963802 86.797477 103.075176 86.797477 Z M 103.075176 86.797477 " transform="matrix(0.596245, 0, 0, 0.596245, -61.10648, -51.522079)"/>
<path fill-rule="nonzero" fill="rgb(100%, 100%, 100%)" fill-opacity="1" d="M 0.351562 0.230469 L 19.203125 0.230469 C 19.269531 0.230469 19.320312 0.285156 19.320312 0.347656 L 19.320312 11.652344 C 19.320312 11.714844 19.269531 11.769531 19.203125 11.769531 L 0.351562 11.769531 C 0.285156 11.769531 0.230469 11.714844 0.230469 11.652344 L 0.230469 0.347656 C 0.230469 0.285156 0.285156 0.230469 0.351562 0.230469 Z M 0.351562 0.230469 "/>
<path fill="none" stroke-width="1.05017" stroke-linecap="round" stroke-linejoin="miter" stroke="rgb(0%, 0%, 0%)" stroke-opacity="1" stroke-miterlimit="4" d="M 105.669538 89.378736 L 132.097964 89.378736 C 132.222441 89.378736 132.327264 89.463905 132.327264 89.575279 L 132.327264 103.372568 C 132.327264 103.483942 132.222441 103.56911 132.097964 103.56911 L 105.669538 103.56911 C 105.545061 103.56911 105.440239 103.483942 105.440239 103.372568 L 105.440239 89.575279 C 105.440239 89.463905 105.545061 89.378736 105.669538 89.378736 Z M 105.669538 89.378736 " transform="matrix(0.596245, 0, 0, 0.596245, -61.10648, -51.522079)"/>
<path fill-rule="nonzero" fill="rgb(100%, 0%, 0%)" fill-opacity="1" d="M 1.898438 1.769531 L 17.65625 1.769531 C 17.730469 1.769531 17.792969 1.820312 17.792969 1.886719 L 17.792969 10.113281 C 17.792969 10.179688 17.730469 10.230469 17.65625 10.230469 L 1.898438 10.230469 C 1.824219 10.230469 1.761719 10.179688 1.761719 10.113281 L 1.761719 1.886719 C 1.761719 1.820312 1.824219 1.769531 1.898438 1.769531 Z M 1.898438 1.769531 "/>
</svg>
