<?xml version="1.0" encoding="UTF-8"?>
<svg xmlns="http://www.w3.org/2000/svg" xmlns:xlink="http://www.w3.org/1999/xlink" width="22.811939" height="14" viewBox="0 0 22.811939 14">
<path fill="none" stroke-width="0.779165" stroke-linecap="round" stroke-linejoin="miter" stroke="rgb(0%, 0%, 0%)" stroke-opacity="1" stroke-miterlimit="4" d="M 103.075239 86.798465 L 134.690537 86.798465 C 134.802847 86.798465 134.887079 86.888313 134.887079 86.995008 L 134.887079 105.952956 C 134.887079 106.05965 134.802847 106.149498 134.690537 106.149498 L 103.075239 106.149498 C 102.962929 106.149498 102.873081 106.05965 102.873081 105.952956 L 102.873081 86.995008 C 102.873081 86.888313 102.962929 86.798465 103.075239 86.798465 Z M 103.075239 86.798465 " transform="matrix(0.695619, 0, 0, 0.695619, -71.290892, -60.109091)"/>
<path fill-rule="nonzero" fill="rgb(100%, 100%, 100%)" fill-opacity="1" d="M 0.410156 0.269531 L 22.402344 0.269531 C 22.480469 0.269531 22.539062 0.332031 22.539062 0.40625 L 22.539062 13.59375 C 22.539062 13.667969 22.480469 13.730469 22.402344 13.730469 L 0.410156 13.730469 C 0.332031 13.730469 0.269531 13.667969 0.269531 13.59375 L 0.269531 0.40625 C 0.269531 0.332031 0.332031 0.269531 0.410156 0.269531 Z M 0.410156 0.269531 "/>
<path fill="none" stroke-width="1.05017" stroke-linecap="round" stroke-linejoin="miter" stroke="rgb(0%, 0%, 0%)" stroke-opacity="1" stroke-miterlimit="4" d="M 105.669603 89.381598 L 132.096173 89.381598 C 132.219714 89.381598 132.326409 89.465831 132.326409 89.572525 L 132.326409 103.375438 C 132.326409 103.482133 132.219714 103.566366 132.096173 103.566366 L 105.669603 103.566366 C 105.546062 103.566366 105.439367 103.482133 105.439367 103.375438 L 105.439367 89.572525 C 105.439367 89.465831 105.546062 89.381598 105.669603 89.381598 Z M 105.669603 89.381598 " transform="matrix(0.695619, 0, 0, 0.695619, -71.290892, -60.109091)"/>
<path fill-rule="nonzero" fill="rgb(100%, 0%, 0%)" fill-opacity="1" d="M 2.214844 2.066406 L 20.597656 2.066406 C 20.683594 2.066406 20.757812 2.125 20.757812 2.199219 L 20.757812 11.800781 C 20.757812 11.875 20.683594 11.933594 20.597656 11.933594 L 2.214844 11.933594 C 2.128906 11.933594 2.054688 11.875 2.054688 11.800781 L 2.054688 2.199219 C 2.054688 2.125 2.128906 2.066406 2.214844 2.066406 Z M 2.214844 2.066406 "/>
</svg>
