<?xml version="1.0" encoding="UTF-8"?>
<svg xmlns="http://www.w3.org/2000/svg" xmlns:xlink="http://www.w3.org/1999/xlink" width="18.344508" height="16" viewBox="0 0 18.344508 16">
<path fill-rule="nonzero" fill="rgb(100%, 100%, 100%)" fill-opacity="1" stroke-width="0.264583" stroke-linecap="butt" stroke-linejoin="miter" stroke="rgb(0%, 0%, 0%)" stroke-opacity="1" stroke-miterlimit="4" d="M 865.931387 0 C 873.16772 0 879.847412 3.896487 883.187258 10.019539 C 886.898199 16.14259 886.898199 23.750017 883.187258 30.058616 L 467.561957 750.16656 C 464.22211 756.289612 457.542418 760.186099 450.306085 760.186099 C 443.069751 759.815005 436.575606 756.289612 433.050213 750.16656 L 17.424911 30.058616 C 13.713971 23.750017 13.713971 16.14259 17.424911 10.019539 C 20.764757 3.896487 27.44445 0 34.680783 0 Z M 865.931387 0 " transform="matrix(0.0210526, 0, 0, 0.0210526, -0.308246, 0)"/>
<path fill-rule="nonzero" fill="rgb(92.941177%, 41.960785%, 12.941177%)" fill-opacity="1" d="M 1.515625 1.050781 L 16.816406 1.050781 L 9.164062 14.304688 Z M 1.515625 1.050781 "/>
<path fill="none" stroke-width="49.999901" stroke-linecap="butt" stroke-linejoin="miter" stroke="rgb(0%, 0%, 0%)" stroke-opacity="1" stroke-miterlimit="4" d="M 525.026568 160.098458 C 525.026568 118.535928 491.442559 84.951919 450.065576 84.951919 C 408.688593 84.951919 374.919037 118.535928 374.919037 160.098458 L 374.919037 310.020442 C 374.919037 351.582972 408.688593 384.981434 450.065576 384.981434 C 491.442559 384.981434 525.026568 351.582972 525.026568 310.020442 L 525.026568 284.971596 C 525.026568 243.594613 491.442559 210.010604 450.065576 210.010604 C 408.688593 210.010604 374.919037 243.594613 374.919037 284.971596 " transform="matrix(-0.0210526, 0.000000000000000002, -0.000000000000000002, -0.0210526, 18.63912, 10.436898)"/>
</svg>
