<?xml version="1.0" encoding="UTF-8"?>
<svg xmlns="http://www.w3.org/2000/svg" xmlns:xlink="http://www.w3.org/1999/xlink" width="18.344509" height="16" viewBox="0 0 18.344509 16">
<path fill-rule="nonzero" fill="rgb(100%, 100%, 100%)" fill-opacity="1" d="M 17.925781 0 C 18.074219 0 18.214844 0.0820312 18.289062 0.210938 C 18.363281 0.339844 18.363281 0.5 18.289062 0.632812 L 9.535156 15.789062 C 9.460938 15.921875 9.324219 16 9.171875 16 C 9.023438 16 8.882812 15.917969 8.808594 15.789062 L 0.0546875 0.632812 C -0.0195312 0.5 -0.0195312 0.339844 0.0546875 0.210938 C 0.132812 0.0820312 0.269531 0 0.417969 0 Z M 17.925781 0 "/>
<path fill-rule="nonzero" fill="rgb(92.941176%, 41.960784%, 12.941176%)" fill-opacity="1" d="M 1.515625 1.050781 L 16.816406 1.050781 L 9.164062 14.304688 Z M 1.515625 1.050781 "/>
<path fill-rule="nonzero" fill="rgb(0%, 0%, 0%)" fill-opacity="1" d="M 6.007812 1.261719 L 4.953125 3.367188 L 6.007812 3.367188 L 6.007812 8.632812 L 7.058594 8.632812 L 7.058594 1.261719 Z M 6.007812 1.261719 "/>
<path fill="none" stroke-width="50" stroke-linecap="butt" stroke-linejoin="miter" stroke="rgb(0%, 0%, 0%)" stroke-opacity="1" stroke-miterlimit="4" d="M 375.071389 159.915399 C 375.071389 126.888053 396.780375 97.757191 428.508893 88.108753 C 460.051864 78.645862 494.378038 91.077503 512.561633 118.72399 C 530.745228 146.370476 528.889759 182.552119 507.551867 207.972043 L 375.071389 369.026741 L 375.071389 384.983774 L 550.042104 384.983774 " transform="matrix(0.0210526, 0, 0, 0.0210526, 0.744386, 0.000547758)"/>
</svg>
