<?xml version="1.0" encoding="UTF-8"?>
<svg xmlns="http://www.w3.org/2000/svg" xmlns:xlink="http://www.w3.org/1999/xlink" width="18.344508" height="16" viewBox="0 0 18.344508 16">
<path fill-rule="nonzero" fill="rgb(100%, 100%, 100%)" fill-opacity="1" stroke-width="0.264583" stroke-linecap="butt" stroke-linejoin="miter" stroke="rgb(0%, 0%, 0%)" stroke-opacity="1" stroke-miterlimit="4" d="M 865.931387 0 C 873.16772 0 879.847412 3.896487 883.187258 10.019539 C 886.898199 16.14259 886.898199 23.750017 883.187258 30.058616 L 467.561957 750.16656 C 464.22211 756.289612 457.542418 760.186099 450.306085 760.186099 C 443.069751 759.815005 436.575606 756.289612 433.050213 750.16656 L 17.424911 30.058616 C 13.713971 23.750017 13.713971 16.14259 17.424911 10.019539 C 20.764757 3.896487 27.44445 0 34.680783 0 Z M 865.931387 0 " transform="matrix(0.0210526, 0, 0, 0.0210526, -0.308246, 0)"/>
<path fill-rule="nonzero" fill="rgb(92.941177%, 41.960785%, 12.941177%)" fill-opacity="1" d="M 1.515625 1.050781 L 16.816406 1.050781 L 9.164062 14.304688 Z M 1.515625 1.050781 "/>
<path fill="none" stroke-width="49.999901" stroke-linecap="butt" stroke-linejoin="miter" stroke="rgb(0%, 0%, 0%)" stroke-opacity="1" stroke-miterlimit="4" d="M 374.973999 160.01891 C 374.973999 118.641927 408.558008 84.872371 449.934991 84.872371 C 491.311974 84.872371 525.08153 118.641927 525.08153 160.01891 C 525.08153 201.395893 491.311974 234.979902 449.934991 234.979902 L 425.071691 234.979902 L 449.934991 234.979902 C 491.311974 234.979902 525.08153 268.563911 525.08153 309.940894 C 525.08153 351.503424 491.311974 384.901886 449.934991 384.901886 C 408.558008 384.901886 374.973999 351.503424 374.973999 309.940894 " transform="matrix(0.0210526, 0, 0, 0.0210526, -0.308246, 0.82259)"/>
</svg>
