<?xml version="1.0" encoding="UTF-8"?>
<svg xmlns="http://www.w3.org/2000/svg" xmlns:xlink="http://www.w3.org/1999/xlink" width="18.344507" height="16" viewBox="0 0 18.344507 16">
<path fill-rule="nonzero" fill="rgb(100%, 100%, 100%)" fill-opacity="1" d="M 17.925781 0 C 18.074219 0 18.214844 0.0820312 18.289062 0.210938 C 18.363281 0.339844 18.363281 0.5 18.289062 0.632812 L 9.535156 15.789062 C 9.460938 15.921875 9.324219 16 9.171875 16 C 9.023438 16 8.882812 15.917969 8.808594 15.789062 L 0.0546875 0.632812 C -0.0195312 0.5 -0.0195312 0.339844 0.0546875 0.210938 C 0.132812 0.0820312 0.269531 0 0.417969 0 Z M 17.925781 0 "/>
<path fill-rule="nonzero" fill="rgb(92.941176%, 41.960784%, 12.941176%)" fill-opacity="1" d="M 1.515625 1.050781 L 16.816406 1.050781 L 9.164062 14.304688 Z M 1.515625 1.050781 "/>
<path fill="none" stroke-width="50.005798" stroke-linecap="butt" stroke-linejoin="miter" stroke="rgb(0%, 0%, 0%)" stroke-opacity="1" stroke-miterlimit="4" d="M 374.918225 160.0053 C 374.918225 126.868095 396.788779 97.707356 428.379581 88.208024 C 460.191297 78.708692 494.433074 91.079915 512.548079 118.694252 C 530.883999 146.308589 528.895767 182.538598 507.687956 207.943788 L 374.918225 368.990601 L 374.918225 384.896459 L 550.103577 384.896459 " transform="matrix(0.0176822, 0, 0, 0.0176822, -0.117647, 0.20201)"/>
<path fill-rule="nonzero" fill="rgb(0%, 0%, 0%)" fill-opacity="1" d="M 11.375 1.261719 L 10.492188 3.03125 L 11.375 3.03125 L 11.375 7.453125 L 12.261719 7.453125 L 12.261719 1.261719 Z M 11.375 1.261719 "/>
</svg>
