<?xml version="1.0" encoding="UTF-8"?>
<svg xmlns="http://www.w3.org/2000/svg" xmlns:xlink="http://www.w3.org/1999/xlink" width="18.344507" height="16" viewBox="0 0 18.344507 16">
<path fill-rule="nonzero" fill="rgb(100%, 100%, 100%)" fill-opacity="1" d="M 17.925781 0 C 18.074219 0 18.214844 0.0820312 18.289062 0.210938 C 18.363281 0.339844 18.363281 0.5 18.289062 0.632812 L 9.535156 15.789062 C 9.460938 15.921875 9.324219 16 9.171875 16 C 9.023438 16 8.882812 15.917969 8.808594 15.789062 L 0.0546875 0.632812 C -0.0195312 0.5 -0.0195312 0.339844 0.0546875 0.210938 C 0.132812 0.0820312 0.269531 0 0.417969 0 Z M 17.925781 0 "/>
<path fill-rule="nonzero" fill="rgb(92.941176%, 41.960784%, 12.941176%)" fill-opacity="1" d="M 1.515625 1.050781 L 16.816406 1.050781 L 9.164062 14.304688 Z M 1.515625 1.050781 "/>
<path fill="none" stroke-width="50.005798" stroke-linecap="butt" stroke-linejoin="miter" stroke="rgb(0%, 0%, 0%)" stroke-opacity="1" stroke-miterlimit="4" d="M 374.997283 159.955387 C 374.997283 126.818183 396.646923 97.657443 428.458639 88.158111 C 460.049441 78.65878 494.291218 91.030002 512.627138 118.644339 C 530.742143 146.258676 528.753911 182.709601 507.5461 208.114791 L 374.997283 368.940688 L 374.997283 385.067461 L 549.961721 385.067461 " transform="matrix(0.0176822, 0, 0, 0.0176822, -1.001857, 0.202893)"/>
<path fill="none" stroke-width="42" stroke-linecap="butt" stroke-linejoin="miter" stroke="rgb(0%, 0%, 0%)" stroke-opacity="1" stroke-miterlimit="4" d="M 418.040143 222.970725 C 418.040143 257.85354 389.837017 286.056667 354.954202 286.056667 C 320.256934 286.056667 292.053807 257.85354 292.053807 222.970725 L 292.053807 96.984389 C 292.053807 62.287121 320.256934 34.083994 354.954202 34.083994 C 389.837017 34.083994 418.040143 62.287121 418.040143 96.984389 Z M 418.040143 222.970725 " transform="matrix(0.0210526, 0, 0, 0.0210526, 3.90228, 0.989474)"/>
</svg>
