<?xml version="1.0" encoding="UTF-8"?>
<svg xmlns="http://www.w3.org/2000/svg" xmlns:xlink="http://www.w3.org/1999/xlink" width="18.344507" height="16" viewBox="0 0 18.344507 16">
<path fill-rule="nonzero" fill="rgb(100%, 100%, 100%)" fill-opacity="1" stroke-width="0.264583" stroke-linecap="butt" stroke-linejoin="miter" stroke="rgb(0%, 0%, 0%)" stroke-opacity="1" stroke-miterlimit="4" d="M 865.932012 0 C 873.168351 0 879.848048 3.89649 883.187897 10.019546 C 886.89884 16.142602 886.89884 23.750035 883.187897 30.058638 L 467.562289 750.167112 C 464.222441 756.290168 457.542744 760.186658 450.306405 760.186658 C 443.070066 759.815563 436.575916 756.290168 433.05052 750.167112 L 17.424913 30.058638 C 13.71397 23.750035 13.71397 16.142602 17.424913 10.019546 C 20.764762 3.89649 27.444459 0 34.680798 0 Z M 865.932012 0 " transform="matrix(0.0210526, 0, 0, 0.0210526, -0.308246, 0)"/>
<path fill-rule="nonzero" fill="rgb(92.941176%, 41.960784%, 12.941176%)" fill-opacity="1" d="M 1.515625 1.050781 L 16.816406 1.050781 L 9.164062 14.304688 Z M 1.515625 1.050781 "/>
<path fill="none" stroke-width="50" stroke-linecap="butt" stroke-linejoin="miter" stroke="rgb(0%, 0%, 0%)" stroke-opacity="1" stroke-miterlimit="4" d="M 374.974264 159.940287 C 374.974264 126.727347 396.68328 97.596446 428.411842 88.133541 C 460.140404 78.670637 494.281079 91.102295 512.650246 118.74882 C 530.648319 146.395345 528.792848 182.577038 507.640473 207.996997 L 374.974264 368.866373 L 374.974264 385.008975 L 550.130769 385.008975 " transform="matrix(0.0210526, 0, 0, 0.0210526, -0.308246, 0.523466)"/>
</svg>
