<?xml version="1.0" encoding="UTF-8"?>
<svg xmlns="http://www.w3.org/2000/svg" xmlns:xlink="http://www.w3.org/1999/xlink" width="18.344508" height="16" viewBox="0 0 18.344508 16">
<path fill-rule="nonzero" fill="rgb(100%, 100%, 100%)" fill-opacity="1" stroke-width="0.264583" stroke-linecap="butt" stroke-linejoin="miter" stroke="rgb(0%, 0%, 0%)" stroke-opacity="1" stroke-miterlimit="4" d="M 865.931387 0 C 873.16772 0 879.847412 3.896487 883.187258 10.019539 C 886.898199 16.14259 886.898199 23.750017 883.187258 30.058616 L 467.561957 750.16656 C 464.22211 756.289612 457.542418 760.186099 450.306085 760.186099 C 443.069751 759.815005 436.575606 756.289612 433.050213 750.16656 L 17.424911 30.058616 C 13.713971 23.750017 13.713971 16.14259 17.424911 10.019539 C 20.764757 3.896487 27.44445 0 34.680783 0 Z M 865.931387 0 " transform="matrix(0.0210526, 0, 0, 0.0210526, -0.308246, 0)"/>
<path fill-rule="nonzero" fill="rgb(92.941177%, 41.960785%, 12.941177%)" fill-opacity="1" d="M 1.515625 1.050781 L 16.816406 1.050781 L 9.164062 14.304688 Z M 1.515625 1.050781 "/>
<path fill="none" stroke-width="50" stroke-linecap="butt" stroke-linejoin="miter" stroke="rgb(0%, 0%, 0%)" stroke-opacity="1" stroke-miterlimit="4" d="M 498.008174 454.404627 L 498.008174 129.326266 L 485.390977 129.326266 L 347.900643 312.646711 L 347.900643 329.345942 L 498.008174 329.345942 " transform="matrix(0.0210526, 0, 0, 0.0210526, 0.000000000000001267, 0)"/>
</svg>
