<?xml version="1.0" encoding="UTF-8"?>
<svg xmlns="http://www.w3.org/2000/svg" xmlns:xlink="http://www.w3.org/1999/xlink" width="16" height="16" viewBox="0 0 16 16">
<path fill-rule="evenodd" fill="rgb(100%, 100%, 100%)" fill-opacity="1" stroke-width="0.824678" stroke-linecap="butt" stroke-linejoin="miter" stroke="rgb(0%, 0%, 0%)" stroke-opacity="1" stroke-miterlimit="4" d="M 194.149471 195.520649 C 194.149471 207.29357 184.614466 216.828576 172.841545 216.828576 C 161.068624 216.828576 151.533619 207.29357 151.533619 195.520649 C 151.533619 183.747729 161.068624 174.212723 172.841545 174.212723 C 184.614466 174.212723 194.149471 183.747729 194.149471 195.520649 Z M 194.149471 195.520649 " transform="matrix(0.368298, 0, 0, 0.368298, -55.657111, -64.009769)"/>
<path fill-rule="evenodd" fill="rgb(100%, 60%, 0%)" fill-opacity="1" stroke-width="1.90991" stroke-linecap="butt" stroke-linejoin="miter" stroke="rgb(0%, 0%, 0%)" stroke-opacity="1" stroke-miterlimit="4" d="M 194.150357 195.520557 C 194.150357 207.286473 184.607437 216.829393 172.84152 216.829393 C 161.075604 216.829393 151.532684 207.286473 151.532684 195.520557 C 151.532684 183.75464 161.075604 174.21172 172.84152 174.21172 C 184.607437 174.21172 194.150357 183.75464 194.150357 195.520557 Z M 194.150357 195.520557 " transform="matrix(0.318053, 0, 0, 0.318053, -46.972801, -54.185941)"/>
</svg>
