<?xml version="1.0" encoding="UTF-8"?>
<svg xmlns="http://www.w3.org/2000/svg" xmlns:xlink="http://www.w3.org/1999/xlink" width="14.22593" height="18" viewBox="0 0 14.22593 18">
<path fill-rule="evenodd" fill="rgb(100%, 100%, 100%)" fill-opacity="1" stroke-width="1" stroke-linecap="butt" stroke-linejoin="miter" stroke="rgb(0%, 0%, 0%)" stroke-opacity="1" stroke-miterlimit="4" d="M 40.001365 10.00116 L 10.00116 40.001365 L 40.001365 70.00157 L 70.00157 40.001365 Z M 40.001365 10.00116 " transform="matrix(0.231639, 0, 0, 0.231639, -2.152597, -2.152597)"/>
<path fill-rule="evenodd" fill="rgb(25.490196%, 41.176471%, 88.235294%)" fill-opacity="1" d="M 7.113281 1.785156 L 12.441406 7.113281 L 7.113281 12.441406 L 1.785156 7.113281 Z M 7.113281 1.785156 "/>
<path fill-rule="evenodd" fill="rgb(75.294118%, 75.294118%, 75.294118%)" fill-opacity="1" d="M 8.449219 14.292969 C 8.449219 14.292969 8.449219 12.902344 9.839844 12.902344 C 11.230469 12.902344 11.230469 14.292969 11.230469 14.292969 L 11.230469 16.609375 C 11.230469 16.609375 11.230469 18 9.839844 18 C 8.449219 18 8.449219 16.84375 8.449219 16.84375 Z M 8.449219 14.292969 "/>
<path fill-rule="nonzero" fill="rgb(25.490196%, 25.490196%, 100%)" fill-opacity="1" d="M 10.765625 14.292969 C 10.765625 14.804688 10.351562 15.21875 9.839844 15.21875 C 9.328125 15.21875 8.914062 14.804688 8.914062 14.292969 C 8.914062 13.78125 9.328125 13.367188 9.839844 13.367188 C 10.351562 13.367188 10.765625 13.78125 10.765625 14.292969 Z M 10.765625 14.292969 "/>
<path fill-rule="nonzero" fill="rgb(5.490196%, 5.490196%, 5.490196%)" fill-opacity="1" d="M 10.765625 16.609375 C 10.765625 17.121094 10.351562 17.535156 9.839844 17.535156 C 9.328125 17.535156 8.914062 17.121094 8.914062 16.609375 C 8.914062 16.097656 9.328125 15.683594 9.839844 15.683594 C 10.351562 15.683594 10.765625 16.097656 10.765625 16.609375 Z M 10.765625 16.609375 "/>
</svg>
