<?xml version="1.0" encoding="UTF-8" standalone="no"?>
<svg
   width="16"
   height="16"
   viewBox="0 0 16 16"
   version="1.1"
   id="svg396"
   sodipodi:docname="w27a-empty.svg"
   inkscape:version="1.2.2 (b0a8486541, 2022-12-01)"
   xmlns:inkscape="http://www.inkscape.org/namespaces/inkscape"
   xmlns:sodipodi="http://sodipodi.sourceforge.net/DTD/sodipodi-0.dtd"
   xmlns="http://www.w3.org/2000/svg"
   xmlns:svg="http://www.w3.org/2000/svg">
  <defs
     id="defs400" />
  <sodipodi:namedview
     id="namedview398"
     pagecolor="#ffffff"
     bordercolor="#666666"
     borderopacity="1.0"
     inkscape:showpageshadow="2"
     inkscape:pageopacity="0.0"
     inkscape:pagecheckerboard="0"
     inkscape:deskcolor="#d1d1d1"
     showgrid="false"
     inkscape:zoom="8.0234375"
     inkscape:cx="-17.137293"
     inkscape:cy="-10.282376"
     inkscape:window-width="2560"
     inkscape:window-height="1368"
     inkscape:window-x="0"
     inkscape:window-y="0"
     inkscape:window-maximized="1"
     inkscape:current-layer="svg396" />
  <path
     fill-rule="nonzero"
     fill="rgb(100%, 100%, 100%)"
     fill-opacity="1"
     stroke-width="0.781956"
     stroke-linecap="round"
     stroke-linejoin="miter"
     stroke="rgb(0%, 0%, 0%)"
     stroke-opacity="1"
     stroke-miterlimit="4"
     d="M 0.390625 0.390625 L 15.609375 0.390625 L 15.609375 15.609375 L 0.390625 15.609375 Z M 0.390625 0.390625 "
     id="path392" />
  <g
     aria-label="7"
     id="text5480"
     style="font-size:16px;line-height:1.25;font-family:'DIN 1451 Mittelschrift DB';-inkscape-font-specification:'DIN 1451 Mittelschrift DB, Normal';letter-spacing:0px;word-spacing:0px">
    <path
       d="m -31.277817,-24.751217 v -3.273437 h 6.476563 v 1.632812 l -3.851563,9.75 h -1.828125 l 3.859375,-9.75 h -3.023437 v 1.640625 z"
       id="path5752" />
  </g>
  <g
     aria-label="6"
     id="text5480-7"
     style="font-size:40px;line-height:1.25;letter-spacing:0px;word-spacing:0px">
    <path
       d="m -8.7923164,-2.2512164 q -0.9375,-0.2109375 -1.4921876,-0.6640625 -0.546875,-0.453125 -1,-1.25 -0.09375,-0.265625 -0.125,-0.375 -0.02344,-0.109375 -0.109375,-0.5078125 -0.01563,-0.109375 -0.02344,-0.25 -0.0078,-0.1484375 -0.0078,-0.6796875 0,-0.5390625 0,-1.640625 0,-1.1015625 0,-3.1328121 0.140625,-1.195313 0.695313,-1.875 0.554687,-0.679688 1.6484371,-1.148438 1.9140625,-0.390625 3.46875,0.976563 0.6953125,0.882812 0.765625,2.273437 -0.421875,0 -0.8359375,0 -0.40625,0 -0.8125,0 -0.140625,-0.796875 -0.4140625,-1.117187 -0.265625,-0.328125 -1.0546875,-0.570313 -0.8046875,0 -1.234375,0.273438 -0.421875,0.265625 -0.6328125,1.039062 -0.00781,0.625 -0.015625,1.2500001 0,0.625 0,1.2421875 1.0703125,-0.6171875 2.2109375,-0.6875 1.1484375,-0.078125 2.109375,0.8828125 0.5625,0.7109375 0.640625,1.5390625 0.085937,0.8203125 -0.00781,1.7109375 -0.28125,1.2578125 -0.9453125,1.84375 -0.65625,0.5859375 -1.890625,0.8671875 -0.234375,0 -0.46875,0 -0.234375,0 -0.46875,0 z m 0.3203125,-1.6328125 q 1.2890625,0 1.65625,-0.9140625 0.375,-0.9140625 -0.023437,-2.015625 -0.3671875,-0.515625 -0.7421875,-0.6484375 -0.375,-0.1328125 -0.9765625,-0.1328125 -0.890625,0.2421875 -1.1015625,0.7890625 -0.2109375,0.5390625 -0.2109375,1.375 0.109375,0.75 0.390625,1.0625 0.28125,0.3125 1.0078125,0.484375 z"
       style="font-size:16px;font-family:'DIN 1451 Mittelschrift DB';-inkscape-font-specification:'DIN 1451 Mittelschrift DB, Normal'"
       id="path5755" />
  </g>
  <g
     aria-label="5"
     id="text5480-7-5"
     style="font-size:16px;line-height:1.25;font-family:'DIN 1451 Mittelschrift DB';-inkscape-font-specification:'DIN 1451 Mittelschrift DB, Normal';letter-spacing:0px;word-spacing:0px">
    <path
       d="m 4.9609375,-10.366152 v -6.15625 h 6.0625005 v 1.632812 H 6.5 v 2.570313 q 0.78125,-0.625 1.8203125,-0.625 0.6484375,0 1.1796875,0.25 0.539063,0.25 0.851563,0.585937 0.46875,0.507813 0.679687,1.109375 0.21875,0.59375 0.21875,2.0078127 0,1.1484375 -0.171875,1.7109375 -0.164062,0.5546875 -0.53125,1.0234375 -0.351562,0.4453125 -0.984375,0.828125 -0.6328125,0.3828125 -1.484375,0.3828125 -1.1015625,0 -2.125,-0.6796875 Q 4.9296875,-6.4052148 4.75,-7.9989648 h 1.6328125 q 0.2890625,1.328125 1.6328125,1.328125 1.1953125,0 1.3984375,-0.8203125 0.203125,-0.8203125 0.203125,-1.625 0,-0.9453127 -0.3203125,-1.5703127 -0.3203125,-0.625 -1.328125,-0.625 -0.9453125,0 -1.46875,0.945313 z"
       id="path5758" />
  </g>
  <g
     aria-label="4"
     id="text5480-7-5-4"
     style="font-size:16px;line-height:1.25;font-family:'DIN 1451 Mittelschrift DB';-inkscape-font-specification:'DIN 1451 Mittelschrift DB, Normal';letter-spacing:0px;word-spacing:0px">
    <path
       d="m 28.586952,-9.7946186 v -1.5390624 l 3.8125,-8.15625 h 1.820313 l -3.851563,8.15625 h 2.96875 v -3.28125 h 1.632813 v 3.28125 h 0.914062 v 1.5390624 h -0.914062 v 1.6875 h -1.632813 v -1.6875 z"
       id="path5761" />
  </g>
  <g
     aria-label="3"
     id="text5480-7-5-4-0"
     style="font-size:16px;line-height:1.25;font-family:'DIN 1451 Mittelschrift DB';-inkscape-font-specification:'DIN 1451 Mittelschrift DB, Normal';letter-spacing:0px;word-spacing:0px">
    <path
       d="m 49.932106,-11.453782 v -1.4375 h 0.5625 q 0.8125,0 1.28125,-0.453125 0.476563,-0.460938 0.476563,-1.164063 0,-0.695312 -0.492188,-1.171875 -0.492187,-0.476562 -1.171875,-0.476562 -0.515625,0 -0.976562,0.34375 -0.460938,0.34375 -0.59375,1.03125 h -1.632813 q 0.09375,-1.203125 1.007813,-2.101563 0.914062,-0.90625 2.132812,-0.90625 1.523438,0 2.4375,1.007813 0.921875,1 0.921875,2.242187 0,0.65625 -0.257812,1.28125 -0.257813,0.617188 -0.960938,1.070313 0.71875,0.460937 1.03125,1.132812 0.3125,0.671875 0.3125,1.3593754 0,1.59375 -1,2.5390625 -1,0.9453125 -2.453125,0.9453125 -1.15625,0 -2.085937,-0.7421875 -0.921875,-0.75 -1.148438,-2.1796875 h 1.632813 q 0.226562,0.5859375 0.609375,0.9453125 0.382812,0.3515625 1.085937,0.3515625 0.679688,0 1.203125,-0.4765625 0.523438,-0.484375 0.523438,-1.328125 0,-0.8515629 -0.523438,-1.3281249 -0.515625,-0.484375 -1.234375,-0.484375 z"
       id="path5764" />
  </g>
  <g
     aria-label="2"
     id="text5480-7-5-4-0-8"
     style="font-size:40px;line-height:1.25;letter-spacing:0px;word-spacing:0px">
    <path
       d="m 61.985344,-2.3141503 v -1.53125 l 4.453125,-5.5703125 q 0.257812,-0.328125 0.335937,-0.6015622 0.07813,-0.273438 0.07813,-0.53125 0,-0.59375 -0.421875,-1.101563 -0.421875,-0.515625 -1.148437,-0.515625 -0.664063,0 -1.140625,0.445313 -0.46875,0.4375 -0.523438,1.203125 h -1.632812 q 0.0078,-1.382813 0.945312,-2.328125 0.9375,-0.953125 2.226563,-0.953125 1.421875,0 2.367187,0.960937 0.953125,0.953125 0.953125,2.304688 0,1.1562497 -0.679687,1.9999997 l -3.664063,4.59375 h 4.34375 v 1.625 z"
       style="font-size:16px;font-family:'DIN 1451 Mittelschrift DB';-inkscape-font-specification:'DIN 1451 Mittelschrift DB, Normal'"
       id="path5767" />
  </g>
  <g
     aria-label="8"
     id="text5534"
     style="font-size:16px;line-height:1.25;font-family:'DIN 1451 Mittelschrift DB';-inkscape-font-specification:'DIN 1451 Mittelschrift DB, Normal';letter-spacing:0px;word-spacing:0px">
    <path
       d="m 12.438808,-49.215805 q 0,0.804687 0.5,1.21875 0.507813,0.414062 1.132813,0.414062 0.625,0 1.125,-0.414062 0.507812,-0.414063 0.507812,-1.21875 0,-0.796875 -0.507812,-1.210938 -0.5,-0.421875 -1.125,-0.421875 -0.625,0 -1.132813,0.421875 -0.5,0.414063 -0.5,1.210938 z m -1.835937,4.898437 q 0,-1.664062 1.34375,-2.5625 -0.507813,-0.453125 -0.828125,-1 -0.3125,-0.554687 -0.3125,-1.304687 0,-1.375 0.9375,-2.335938 0.945312,-0.960937 2.328125,-0.960937 1.382812,0 2.320312,0.960937 0.945313,0.960938 0.945313,2.335938 0,0.75 -0.320313,1.304687 -0.320312,0.546875 -0.8125,1 1.335938,0.90625 1.335938,2.5625 0,1.515625 -1.03125,2.46875 -1.023438,0.945313 -2.4375,0.945313 -1.421875,0 -2.445313,-0.945313 -1.023437,-0.953125 -1.023437,-2.46875 z m 1.632812,-0.01563 q 0,0.78125 0.546875,1.296875 0.554688,0.507813 1.289063,0.507813 0.726562,0 1.28125,-0.507813 0.5625,-0.515625 0.5625,-1.296875 0,-0.78125 -0.5625,-1.296875 -0.554688,-0.515625 -1.28125,-0.515625 -0.734375,0 -1.289063,0.515625 -0.546875,0.515625 -0.546875,1.296875 z"
       id="path5770" />
  </g>
  <g
     aria-label="0"
     id="text5534-4"
     style="font-size:16px;line-height:1.25;font-family:'DIN 1451 Mittelschrift DB';-inkscape-font-specification:'DIN 1451 Mittelschrift DB, Normal';letter-spacing:0px;word-spacing:0px">
    <path
       d="m 20.396505,-23.571299 v -4.835937 q 0,-0.820313 -0.445312,-1.28125 -0.4375,-0.460938 -1.15625,-0.460938 -0.726563,0 -1.164063,0.460938 -0.4375,0.460937 -0.4375,1.28125 v 4.835937 q 0,0.828125 0.4375,1.289063 0.4375,0.453125 1.164063,0.453125 0.71875,0 1.15625,-0.453125 0.445312,-0.460938 0.445312,-1.289063 z m -4.835937,0.09375 v -5.023437 q 0,-1.570313 0.984375,-2.421875 0.984375,-0.859375 2.25,-0.859375 1.257812,0 2.242187,0.859375 0.992188,0.851562 0.992188,2.421875 v 5.023437 q 0,1.570313 -0.992188,2.421875 -0.984375,0.851563 -2.242187,0.851563 -1.265625,0 -2.25,-0.851563 -0.984375,-0.851562 -0.984375,-2.421875 z"
       id="path5773" />
  </g>
  <g
     aria-label="9"
     id="text5534-4-6"
     style="font-size:16px;line-height:1.25;font-family:'DIN 1451 Mittelschrift DB';-inkscape-font-specification:'DIN 1451 Mittelschrift DB, Normal';letter-spacing:0px;word-spacing:0px">
    <path
       d="m 30.773319,-35.537731 q 0.921875,0.226562 1.46875,0.679687 0.554688,0.445313 1.015625,1.242188 0.08594,0.273437 0.109375,0.382812 0.03125,0.109375 0.125,0.5 0.0078,0.117188 0.01563,0.265625 0.0078,0.140625 0.0078,0.679688 0,0.53125 0,1.640625 0.0078,1.101562 0.0078,3.125 -0.148437,1.195312 -0.703125,1.875 -0.546875,0.679687 -1.640625,1.132812 -1.914062,0.390625 -3.46875,-0.960937 -0.703125,-0.890625 -0.765625,-2.28125 0.40625,0 0.820313,0 0.414062,0 0.828125,0 0.140625,0.796875 0.40625,1.125 0.265625,0.328125 1.0625,0.5625 0.796875,0 1.21875,-0.265625 0.429687,-0.265625 0.648437,-1.046875 0,-0.617188 0.0078,-1.242188 0.0078,-0.625 0.0078,-1.25 -1.078125,0.617188 -2.226562,0.695313 -1.140625,0.07813 -2.09375,-0.890625 -0.5625,-0.703125 -0.648438,-1.53125 -0.07813,-0.828125 0.01563,-1.71875 0.273438,-1.25 0.929688,-1.835938 0.664062,-0.59375 1.90625,-0.882812 0.234375,0 0.46875,0 0.234375,0 0.476562,0 z m -0.328125,1.648437 q -1.296875,0 -1.664062,0.914063 -0.367188,0.914062 0.03125,2.007812 0.359375,0.515625 0.734375,0.648438 0.375,0.132812 0.984375,0.132812 0.882812,-0.234375 1.09375,-0.773437 0.21875,-0.546875 0.21875,-1.390625 -0.117188,-0.742188 -0.398438,-1.054688 -0.28125,-0.3125 -1,-0.484375 z"
       id="path5776" />
  </g>
  <g
     aria-label="1"
     id="text5803"
     style="font-size:40px;line-height:1.25;letter-spacing:0px;word-spacing:0px"
     transform="translate(2.2520389,14.357933)">
    <path
       d="m -8.8626194,-53.910713 v -9.679688 l -1.6249996,1.1875 v -1.734375 l 1.6249996,-1.179687 h 1.640625 v 11.40625 z"
       style="font-size:16px;font-family:'DIN 1451 Mittelschrift DB';-inkscape-font-specification:'DIN 1451 Mittelschrift DB, Normal'"
       id="path5805" />
  </g>
</svg>
