<svg width="12.97" height="24" version="1.1" viewBox="0 0 12.97 24" xmlns="http://www.w3.org/2000/svg">
 <g stroke="#000">
  <path d="m12.86 6.483c0 3.524-2.855 6.379-6.379 6.379-3.524 0-6.379-2.855-6.379-6.379 0-3.524 2.855-6.379 6.379-6.379 3.524 0 6.379 2.855 6.379 6.379z" fill="#fff" fill-rule="evenodd" stroke-width=".2074"/>
  <path d="m11.99 6.483c0 3.042-2.467 5.509-5.509 5.509-3.042 0-5.509-2.467-5.509-5.509 0-3.042 2.467-5.509 5.509-5.509 3.042 0 5.509 2.467 5.509 5.509z" fill="#f90" fill-rule="evenodd" stroke-width=".4147"/>
  <g transform="matrix(.6389 0 0 .6389 3.231 13.78)">
   <path transform="matrix(.05541 0 0 .05541 0 6.697)" d="m7.473-113h168.7v272.7h-168.7zm0 0" fill="#fff" stroke-linecap="round" stroke-linejoin="round" stroke-width="15"/>
   <path transform="matrix(.05541 0 0 .05541 0 6.697)" d="m24.75-113 66.34 108.5 69.02-107.5" fill="none" stroke-width="30"/>
   <path transform="matrix(.05541 0 0 .05541 0 6.697)" d="M 162.1,159.7 91.03,51.1 23.7,157.7" fill="none" stroke-width="30"/>
  </g>
 </g>
 <g transform="matrix(.9677 0 0 .9677 -.01826 -.01922)" stroke-width=".84">
  <path d="m10.59 14.61s0-1.168 1.168-1.168 1.168 1.168 1.168 1.168v1.946s0 1.168-1.168 1.168-1.168-0.9712-1.168-0.9712z" fill="#c0c0c0" fill-rule="evenodd"/>
  <path d="m12.54 14.61c0 0.4298-0.3478 0.7776-0.7776 0.7776s-0.7776-0.3478-0.7776-0.7776 0.3478-0.7776 0.7776-0.7776 0.7776 0.3478 0.7776 0.7776z" fill="#f90"/>
  <path d="m12.54 16.55c0 0.4298-0.3478 0.7776-0.7776 0.7776s-0.7776-0.3478-0.7776-0.7776 0.3478-0.7776 0.7776-0.7776 0.7776 0.3478 0.7776 0.7776z" fill="#0e0e0e"/>
 </g>
</svg>
