<?xml version="1.0" encoding="UTF-8"?>
<svg xmlns="http://www.w3.org/2000/svg" xmlns:xlink="http://www.w3.org/1999/xlink" width="15.707318" height="20" viewBox="0 0 15.707318 20">
<path fill-rule="nonzero" fill="rgb(100%, 100%, 100%)" fill-opacity="1" stroke-width="0.5" stroke-linecap="butt" stroke-linejoin="miter" stroke="rgb(0%, 0%, 0%)" stroke-opacity="1" stroke-miterlimit="4" d="M 24.992624 1.509116 C 12.580541 1.509116 2.510738 11.578919 2.510738 23.991002 L 2.510738 80.005533 C 2.510738 92.25746 12.300268 102.487419 24.492137 102.487419 L 59.005736 102.487419 C 71.417819 102.487419 81.507642 92.417616 81.507642 80.005533 C 81.507642 75.80144 80.346512 71.917659 78.364582 68.554385 L 44.371489 12.579893 C 40.467689 5.953442 33.240653 1.509116 24.992624 1.509116 Z M 24.992624 1.509116 " transform="matrix(0.195122, 0, 0, 0.195122, -0.341464, -0.146025)"/>
<path fill-rule="evenodd" fill="rgb(20%, 20%, 20%)" fill-opacity="1" d="M 4.535156 0.632812 C 2.378906 0.632812 0.632812 2.378906 0.632812 4.535156 L 0.632812 15.464844 C 0.632812 17.371094 2.011719 18.964844 3.824219 19.300781 C 3.933594 19.320312 4.054688 19.339844 4.167969 19.347656 C 4.292969 19.355469 4.410156 19.367188 4.535156 19.367188 L 11.171875 19.367188 C 13.328125 19.367188 15.074219 17.621094 15.074219 15.464844 C 15.074219 14.785156 14.898438 14.148438 14.589844 13.59375 C 14.527344 13.46875 14.457031 13.355469 14.378906 13.246094 C 12.242188 9.714844 10.097656 6.191406 7.964844 2.664062 C 7.296875 1.457031 6.011719 0.632812 4.535156 0.632812 Z M 4.535156 0.632812 "/>
<path fill-rule="nonzero" fill="rgb(5.490196%, 5.490196%, 5.490196%)" fill-opacity="1" d="M 6.097656 15.464844 C 6.097656 16.324219 5.398438 17.023438 4.535156 17.023438 C 3.675781 17.023438 2.976562 16.324219 2.976562 15.464844 C 2.976562 14.601562 3.675781 13.902344 4.535156 13.902344 C 5.398438 13.902344 6.097656 14.601562 6.097656 15.464844 Z M 6.097656 15.464844 "/>
<path fill-rule="nonzero" fill="rgb(100%, 95.686275%, 78.039216%)" fill-opacity="1" d="M 6.097656 10 C 6.097656 10.863281 5.398438 11.5625 4.535156 11.5625 C 3.675781 11.5625 2.976562 10.863281 2.976562 10 C 2.976562 9.136719 3.675781 8.4375 4.535156 8.4375 C 5.398438 8.4375 6.097656 9.136719 6.097656 10 Z M 6.097656 10 "/>
<path fill-rule="nonzero" fill="rgb(5.490196%, 5.490196%, 5.490196%)" fill-opacity="1" d="M 12.730469 15.464844 C 12.730469 16.324219 12.03125 17.023438 11.171875 17.023438 C 10.308594 17.023438 9.609375 16.324219 9.609375 15.464844 C 9.609375 14.601562 10.308594 13.902344 11.171875 13.902344 C 12.03125 13.902344 12.730469 14.601562 12.730469 15.464844 Z M 12.730469 15.464844 "/>
<path fill-rule="nonzero" fill="rgb(100%, 95.686275%, 78.039216%)" fill-opacity="1" d="M 6.097656 4.535156 C 6.097656 5.398438 5.398438 6.097656 4.535156 6.097656 C 3.675781 6.097656 2.976562 5.398438 2.976562 4.535156 C 2.976562 3.675781 3.675781 2.976562 4.535156 2.976562 C 5.398438 2.976562 6.097656 3.675781 6.097656 4.535156 Z M 6.097656 4.535156 "/>
</svg>
