<?xml version="1.0" encoding="UTF-8"?>
<svg xmlns="http://www.w3.org/2000/svg" xmlns:xlink="http://www.w3.org/1999/xlink" width="12.327069" height="22" viewBox="0 0 12.327069 22">
<path fill-rule="evenodd" fill="rgb(100%, 100%, 100%)" fill-opacity="1" stroke-width="0.303727" stroke-linecap="butt" stroke-linejoin="miter" stroke="rgb(0%, 0%, 0%)" stroke-opacity="1" stroke-miterlimit="4" d="M 15.848334 8.000215 C 15.848334 12.334931 12.334931 15.848334 8.000215 15.848334 C 3.665498 15.848334 0.152095 12.334931 0.152095 8.000215 C 0.152095 3.665498 3.665498 0.152095 8.000215 0.152095 C 12.334931 0.152095 15.848334 3.665498 15.848334 8.000215 Z M 15.848334 8.000215 " transform="matrix(0.770487, 0, 0, 0.770487, 0, 0)"/>
<path fill-rule="evenodd" fill="rgb(100%, 60%, 0%)" fill-opacity="1" stroke-width="0.607453" stroke-linecap="butt" stroke-linejoin="miter" stroke="rgb(0%, 0%, 0%)" stroke-opacity="1" stroke-miterlimit="4" d="M 14.778596 8.000215 C 14.778596 11.74176 11.74176 14.778596 8.000215 14.778596 C 4.258669 14.778596 1.221833 11.74176 1.221833 8.000215 C 1.221833 4.258669 4.258669 1.221833 8.000215 1.221833 C 11.74176 1.221833 14.778596 4.258669 14.778596 8.000215 Z M 14.778596 8.000215 " transform="matrix(0.770487, 0, 0, 0.770487, 0, 0)"/>
<path fill-rule="evenodd" fill="rgb(100%, 0%, 0%)" fill-opacity="1" stroke-width="1" stroke-linecap="butt" stroke-linejoin="miter" stroke="rgb(40%, 40%, 40%)" stroke-opacity="1" stroke-miterlimit="4" d="M 46.8994 37.98722 L 56.603587 37.988268 L 56.585967 85.125623 L 51.742829 90.739877 L 46.903542 85.125237 Z M 46.8994 37.98722 " transform="matrix(0.173874, -0.184781, 0.184781, 0.173874, -14.287193, 15.650977)"/>
<path fill-rule="evenodd" fill="rgb(100%, 100%, 100%)" fill-opacity="1" stroke-width="1" stroke-linecap="butt" stroke-linejoin="miter" stroke="rgb(40%, 40%, 40%)" stroke-opacity="1" stroke-miterlimit="4" d="M 49.024664 40.08854 L 54.470617 40.079896 L 54.46849 84.200809 L 51.74715 87.374572 L 49.022537 84.209454 Z M 49.024664 40.08854 " transform="matrix(0.173874, -0.184781, 0.184781, 0.173874, -14.287193, 15.650977)"/>
</svg>
