<svg width="9.65" height="24" version="1.1" viewBox="0 0 9.65 24" xmlns="http://www.w3.org/2000/svg">
 <path d="m4.825 9.558v7.559" fill="none" stroke="#c0c0c0" stroke-miterlimit="5" stroke-width="1.308"/>
 <g>
  <g fill-rule="evenodd">
   <g>
    <path d="m9.558 4.825c0 2.614-2.119 4.733-4.733 4.733-2.614 0-4.733-2.119-4.733-4.733 0-2.614 2.119-4.733 4.733-4.733 2.614 0 4.733 2.119 4.733 4.733z" fill="#fff" stroke="#000" stroke-width=".1832"/>
    <path d="m8.913 4.825c0 2.257-1.832 4.088-4.088 4.088-2.257 0-4.088-1.832-4.088-4.088 0-2.257 1.832-4.088 4.088-4.088 2.257 0 4.088 1.832 4.088 4.088z" fill="#f90" stroke="#000" stroke-width=".3664"/>
    <path d="m0.694 10.32 1.321-1.404 6.816 6.418 0.1529 1.465-1.471-0.06421z" fill="#f00" stroke="#c0c0c0" stroke-width=".103"/>
    <path d="m1.287 10.29 0.74-0.7889 6.382 6.005 0.08868 0.8256-0.8287-0.03669z" fill="#fff" stroke="#c0c0c0" stroke-width=".103"/>
   </g>
   <path d="m5.73 10.49s0-0.8387 0.8387-0.8387c0.8387 0 0.8387 0.8387 0.8387 0.8387v1.397s0 0.8387-0.8387 0.8387c-0.8387 0-0.8387-0.6974-0.8387-0.6974z" fill="#c0c0c0" stroke-width=".6031"/>
  </g>
  <path d="m7.127 10.49c0 0.3086-0.2497 0.5584-0.5584 0.5584-0.3086 0-0.5584-0.2497-0.5584-0.5584 0-0.3086 0.2497-0.5584 0.5584-0.5584 0.3086 0 0.5584 0.2497 0.5584 0.5584z" fill="#f90" stroke-width=".6031"/>
  <path d="m7.127 11.89c0 0.3086-0.2497 0.5584-0.5584 0.5584-0.3086 0-0.5584-0.2497-0.5584-0.5584 0-0.3086 0.2497-0.5584 0.5584-0.5584 0.3086 0 0.5584 0.2497 0.5584 0.5584z" fill="#00c85e" stroke-width=".6031"/>
 </g>
 <g transform="matrix(.474 0 0 .474 2.413 16.42)" stroke="#000">
  <path transform="matrix(.05541 0 0 .05541 0 6.697)" d="m7.473-113h168.7v272.7h-168.7zm0 0" fill="#fff" stroke-linecap="round" stroke-linejoin="round" stroke-width="15"/>
  <path transform="matrix(.05541 0 0 .05541 0 6.697)" d="m24.75-113 66.34 108.5 69.02-107.5" fill="none" stroke-width="30"/>
  <path transform="matrix(.05541 0 0 .05541 0 6.697)" d="m162.1 159.7-71.07-108.6-67.33 106.6" fill="none" stroke-width="30"/>
 </g>
</svg>
