<?xml version="1.0" encoding="UTF-8"?>
<svg xmlns="http://www.w3.org/2000/svg" xmlns:xlink="http://www.w3.org/1999/xlink" width="16" height="16" viewBox="0 0 16 16">
<path fill="none" stroke-width="1" stroke-linecap="round" stroke-linejoin="miter" stroke="rgb(0%, 0%, 0%)" stroke-opacity="1" stroke-miterlimit="4" d="M -7.226157 10.625267 L -18.478783 21.820236 L -34.353537 21.781798 L -45.548505 10.529173 L -45.510068 -5.345581 L -34.257442 -16.54055 L -18.382689 -16.502112 L -7.18772 -5.249487 Z M -7.226157 10.625267 " transform="matrix(0.406502, 0, 0, 0.406502, 18.7187, 6.926898)"/>
<path fill-rule="nonzero" fill="rgb(0%, 0%, 0%)" fill-opacity="1" d="M 15.78125 11.246094 L 11.207031 15.796875 L 4.753906 15.78125 L 0.203125 11.207031 L 0.21875 4.753906 L 4.792969 0.203125 L 11.246094 0.21875 L 15.796875 4.792969 Z M 15.78125 11.246094 "/>
<path fill="none" stroke-width="1" stroke-linecap="round" stroke-linejoin="miter" stroke="rgb(0%, 0%, 0%)" stroke-opacity="1" stroke-miterlimit="4" d="M -8.045141 27.831839 C -8.045141 29.489791 -9.383733 30.828383 -11.041684 30.828383 C -12.699636 30.828383 -14.038228 29.489791 -14.038228 27.831839 C -14.038228 26.173888 -12.699636 24.835296 -11.041684 24.835296 C -9.383733 24.835296 -8.045141 26.173888 -8.045141 27.831839 Z M -8.045141 27.831839 " transform="matrix(0.287441, -0.287441, 0.287441, 0.287441, 0, 0)"/>
<path fill-rule="nonzero" fill="rgb(100%, 100%, 100%)" fill-opacity="1" d="M 5.6875 10.3125 C 6.164062 10.789062 6.164062 11.558594 5.6875 12.035156 C 5.210938 12.511719 4.441406 12.511719 3.964844 12.035156 C 3.488281 11.558594 3.488281 10.789062 3.964844 10.3125 C 4.441406 9.835938 5.210938 9.835938 5.6875 10.3125 Z M 5.6875 10.3125 "/>
<path fill="none" stroke-width="1" stroke-linecap="round" stroke-linejoin="miter" stroke="rgb(0%, 0%, 0%)" stroke-opacity="1" stroke-miterlimit="4" d="M 3.003338 27.831839 C 3.003338 29.489791 1.657951 30.835177 -0.000000000000007105 30.835177 C -1.657951 30.835177 -3.003338 29.489791 -3.003338 27.831839 C -3.003338 26.173888 -1.657951 24.828501 -0.000000000000007105 24.828501 C 1.657951 24.828501 3.003338 26.173888 3.003338 27.831839 Z M 3.003338 27.831839 " transform="matrix(0.287441, -0.287441, 0.287441, 0.287441, 0, 0)"/>
<path fill-rule="nonzero" fill="rgb(100%, 100%, 100%)" fill-opacity="1" d="M 8.863281 7.136719 C 9.339844 7.613281 9.339844 8.386719 8.863281 8.863281 C 8.386719 9.339844 7.613281 9.339844 7.136719 8.863281 C 6.660156 8.386719 6.660156 7.613281 7.136719 7.136719 C 7.613281 6.660156 8.386719 6.660156 8.863281 7.136719 Z M 8.863281 7.136719 "/>
<path fill="none" stroke-width="1" stroke-linecap="round" stroke-linejoin="miter" stroke="rgb(0%, 0%, 0%)" stroke-opacity="1" stroke-miterlimit="4" d="M 14.038228 27.831839 C 14.038228 29.489791 12.699636 30.828383 11.041684 30.828383 C 9.383733 30.828383 8.045141 29.489791 8.045141 27.831839 C 8.045141 26.173888 9.383733 24.835296 11.041684 24.835296 C 12.699636 24.835296 14.038228 26.173888 14.038228 27.831839 Z M 14.038228 27.831839 " transform="matrix(0.287441, -0.287441, 0.287441, 0.287441, 0, 0)"/>
<path fill-rule="nonzero" fill="rgb(100%, 100%, 100%)" fill-opacity="1" d="M 12.035156 3.964844 C 12.511719 4.441406 12.511719 5.210938 12.035156 5.6875 C 11.558594 6.164062 10.789062 6.164062 10.3125 5.6875 C 9.835938 5.210938 9.835938 4.441406 10.3125 3.964844 C 10.789062 3.488281 11.558594 3.488281 12.035156 3.964844 Z M 12.035156 3.964844 "/>
</svg>
