<?xml version="1.0" encoding="UTF-8" standalone="no"?>
<!-- Created with Inkscape (http://www.inkscape.org/) -->

<svg
   width="190mm"
   height="600mm"
   viewBox="0 0 190 600"
   version="1.1"
   id="svg1"
   inkscape:version="1.3.2 (091e20ef0f, 2023-11-25, custom)"
   sodipodi:docname="s1.svg"
   xmlns:inkscape="http://www.inkscape.org/namespaces/inkscape"
   xmlns:sodipodi="http://sodipodi.sourceforge.net/DTD/sodipodi-0.dtd"
   xmlns="http://www.w3.org/2000/svg"
   xmlns:svg="http://www.w3.org/2000/svg">
  <sodipodi:namedview
     id="namedview1"
     pagecolor="#ffffff"
     bordercolor="#000000"
     borderopacity="0.25"
     inkscape:showpageshadow="2"
     inkscape:pageopacity="0.0"
     inkscape:pagecheckerboard="false"
     inkscape:deskcolor="#d1d1d1"
     inkscape:document-units="mm"
     showguides="false"
     inkscape:zoom="0.14928528"
     inkscape:cx="207.65611"
     inkscape:cy="1202.3958"
     inkscape:window-width="1707"
     inkscape:window-height="987"
     inkscape:window-x="0"
     inkscape:window-y="0"
     inkscape:window-maximized="1"
     inkscape:current-layer="layer1" />
  <defs
     id="defs1">
    <inkscape:path-effect
       effect="fillet_chamfer"
       id="path-effect4"
       is_visible="true"
       lpeversion="1"
       nodesatellites_param="F,0,0,1,0,95,0,1 @ F,0,0,1,0,95,0,1 @ F,0,0,1,0,95,0,1 @ F,0,0,1,0,95,0,1"
       radius="0"
       unit="px"
       method="auto"
       mode="F"
       chamfer_steps="1"
       flexible="false"
       use_knot_distance="true"
       apply_no_radius="true"
       apply_with_radius="true"
       only_selected="false"
       hide_knots="false" />
  </defs>
  <g
     inkscape:label="Layer 1"
     inkscape:groupmode="layer"
     id="layer1">
    <path
       id="rect1"
       transform="scale(0.95,1.0714286)"
       d="m 95,0 h 10 a 95,95 45 0 1 95,95 v 370 a 95,95 135 0 1 -95,95 H 95 A 95,95 45 0 1 0,465 V 95 A 95,95 135 0 1 95,0 Z"
       style="fill:#0e0f11;stroke-width:0.526177"
       inkscape:path-effect="#path-effect4"
       inkscape:original-d="M 0,0 H 200 V 560 H 0 Z" />
    <circle
       style="fill:#ff0000;stroke-width:0.185208"
       id="path3"
       cx="95"
       cy="300"
       r="35" />
    <circle
       style="fill:none;stroke-width:0.185208"
       id="path3-61"
       cx="95"
       cy="195"
       r="35" />
    <path
       id="path3-2"
       style="fill:none;fill-opacity:1;stroke-width:0.185208"
       d="M 94.999886,54.999744 A 35,35 0 0 0 59.999955,90.000191 35,35 0 0 0 94.999886,125.00012 35,35 0 0 0 129.99982,90.000191 35,35 0 0 0 94.999886,54.999744 Z" />
    <circle
       style="fill:none;stroke-width:0.185209"
       id="path3-6"
       cx="95"
       cy="405"
       r="35" />
    <circle
       style="fill:none;fill-opacity:1;stroke-width:0.185209"
       id="path3-5"
       cx="95"
       cy="510"
       r="35" />
  </g>
</svg>
