<svg width="12.11" height="16.47" version="1.1" viewBox="0 0 12.11 16.47" xmlns="http://www.w3.org/2000/svg">
 <path d="m3.828 3.8e-6c-2.113 0-3.828 1.695-3.828 3.789 0 0.02155 0.00159 0.04299 0.001953 0.06445v8.832c0 2.093 1.714 3.788 3.826 3.789h4.447c2.113 0 3.828-1.699 3.828-3.789h0.0039v-8.896h-0.0039c-0.002136-2.092-1.716-3.785-3.828-3.785v-0.00391z" fill="#262626" stroke-width=".8891"/>
 <path d="m9.799 12.68c0 0.8438-0.6797 1.527-1.523 1.527s-1.523-0.6836-1.523-1.527c0-0.8398 0.6797-1.523 1.523-1.523s1.523 0.6836 1.523 1.523z" fill="#ffb200"/>
 <g fill="#0e0e0e">
  <path d="m5.354 12.69c0 0.8438-0.6797 1.523-1.523 1.523s-1.523-0.6797-1.523-1.523c0-0.8398 0.6797-1.523 1.523-1.523s1.523 0.6836 1.523 1.523z"/>
  <path d="m5.352 8.242c0 0.8398-0.6797 1.523-1.523 1.523s-1.523-0.6836-1.523-1.523c0-0.8438 0.6797-1.527 1.523-1.527s1.523 0.6836 1.523 1.527z"/>
  <path d="m9.799 3.795c0 0.8398-0.6797 1.523-1.523 1.523s-1.523-0.6836-1.523-1.523c0-0.8438 0.6797-1.527 1.523-1.527s1.523 0.6836 1.523 1.527z"/>
 </g>
 <path d="m5.354 3.789c0 0.8398-0.6797 1.523-1.523 1.523s-1.527-0.6836-1.527-1.523c0-0.8438 0.6836-1.523 1.527-1.523s1.523 0.6797 1.523 1.523z" fill="#00c85e"/>
 <path d="m9.801 8.24c0 0.8398-0.6797 1.523-1.523 1.523s-1.527-0.6836-1.527-1.523c0-0.8438 0.6836-1.527 1.527-1.527s1.523 0.6836 1.523 1.527z" fill="#0e0e0e"/>
</svg>
