<?xml version="1.0" encoding="UTF-8"?>
<svg xmlns="http://www.w3.org/2000/svg" xmlns:xlink="http://www.w3.org/1999/xlink" width="8.449062" height="28" viewBox="0 0 8.449062 28">
<path fill-rule="nonzero" fill="rgb(14.901961%, 14.901961%, 14.901961%)" fill-opacity="1" d="M 0 4.179688 L 8.449219 4.179688 L 8.449219 23.820312 L 0 23.820312 Z M 0 4.179688 "/>
<path fill-rule="nonzero" fill="rgb(14.901961%, 14.901961%, 14.901961%)" fill-opacity="1" d="M 8.449219 23.820312 C 8.449219 26.128906 6.558594 28 4.226562 28 C 1.890625 28 0 26.128906 0 23.820312 C 0 21.511719 1.890625 19.636719 4.226562 19.636719 C 6.558594 19.636719 8.449219 21.511719 8.449219 23.820312 Z M 8.449219 23.820312 "/>
<path fill-rule="nonzero" fill="rgb(14.901961%, 14.901961%, 14.901961%)" fill-opacity="1" d="M 8.449219 4.179688 C 8.449219 6.488281 6.558594 8.363281 4.226562 8.363281 C 1.890625 8.363281 0 6.488281 0 4.179688 C 0 1.871094 1.890625 0 4.226562 0 C 6.558594 0 8.449219 1.871094 8.449219 4.179688 Z M 8.449219 4.179688 "/>
<path fill-rule="nonzero" fill="rgb(100%, 69.803922%, 0%)" fill-opacity="1" d="M 5.90625 18.910156 C 5.90625 19.839844 5.15625 20.589844 4.222656 20.589844 C 3.292969 20.589844 2.542969 19.839844 2.542969 18.910156 C 2.542969 17.980469 3.292969 17.226562 4.222656 17.226562 C 5.15625 17.226562 5.90625 17.980469 5.90625 18.910156 Z M 5.90625 18.910156 "/>
<path fill-rule="nonzero" fill="rgb(5.490196%, 5.490196%, 5.490196%)" fill-opacity="1" d="M 5.90625 23.820312 C 5.90625 24.746094 5.15625 25.5 4.222656 25.5 C 3.292969 25.5 2.542969 24.746094 2.542969 23.820312 C 2.542969 22.890625 3.292969 22.136719 4.222656 22.136719 C 5.15625 22.136719 5.90625 22.890625 5.90625 23.820312 Z M 5.90625 23.820312 "/>
<path fill-rule="nonzero" fill="rgb(5.490196%, 5.490196%, 5.490196%)" fill-opacity="1" d="M 5.90625 14 C 5.90625 14.929688 5.15625 15.683594 4.222656 15.683594 C 3.292969 15.683594 2.542969 14.929688 2.542969 14 C 2.542969 13.070312 3.292969 12.316406 4.222656 12.316406 C 5.15625 12.316406 5.90625 13.070312 5.90625 14 Z M 5.90625 14 "/>
<path fill-rule="nonzero" fill="rgb(0%, 78.431373%, 36.862745%)" fill-opacity="1" d="M 5.90625 4.179688 C 5.90625 5.109375 5.15625 5.863281 4.222656 5.863281 C 3.292969 5.863281 2.539062 5.109375 2.539062 4.179688 C 2.539062 3.253906 3.292969 2.5 4.222656 2.5 C 5.15625 2.5 5.90625 3.253906 5.90625 4.179688 Z M 5.90625 4.179688 "/>
<path fill-rule="nonzero" fill="rgb(5.490196%, 5.490196%, 5.490196%)" fill-opacity="1" d="M 5.90625 9.089844 C 5.90625 10.019531 5.15625 10.773438 4.222656 10.773438 C 3.292969 10.773438 2.539062 10.019531 2.539062 9.089844 C 2.539062 8.160156 3.292969 7.410156 4.222656 7.410156 C 5.15625 7.410156 5.90625 8.160156 5.90625 9.089844 Z M 5.90625 9.089844 "/>
</svg>
