<?xml version="1.0" encoding="UTF-8"?>
<svg xmlns="http://www.w3.org/2000/svg" xmlns:xlink="http://www.w3.org/1999/xlink" width="8.78191" height="24" viewBox="0 0 8.78191 24">
<path fill-rule="nonzero" fill="rgb(14.901961%, 14.901961%, 14.901961%)" fill-opacity="1" d="M 0 4.34375 L 8.78125 4.34375 L 8.78125 19.65625 L 0 19.65625 Z M 0 4.34375 "/>
<path fill-rule="nonzero" fill="rgb(14.901961%, 14.901961%, 14.901961%)" fill-opacity="1" d="M 8.78125 19.65625 C 8.78125 22.054688 6.816406 24 4.394531 24 C 1.96875 24 0 22.054688 0 19.65625 C 0 17.253906 1.96875 15.308594 4.394531 15.308594 C 6.816406 15.308594 8.78125 17.253906 8.78125 19.65625 Z M 8.78125 19.65625 "/>
<path fill-rule="nonzero" fill="rgb(14.901961%, 14.901961%, 14.901961%)" fill-opacity="1" d="M 8.78125 4.34375 C 8.78125 6.746094 6.816406 8.691406 4.394531 8.691406 C 1.96875 8.691406 0 6.746094 0 4.34375 C 0 1.945312 1.96875 0 4.394531 0 C 6.816406 0 8.78125 1.945312 8.78125 4.34375 Z M 8.78125 4.34375 "/>
<path fill-rule="nonzero" fill="rgb(100%, 69.803922%, 0%)" fill-opacity="1" d="M 6.136719 14.550781 C 6.136719 15.515625 5.359375 16.300781 4.390625 16.300781 C 3.425781 16.300781 2.644531 15.515625 2.644531 14.550781 C 2.644531 13.585938 3.425781 12.804688 4.390625 12.804688 C 5.359375 12.804688 6.136719 13.585938 6.136719 14.550781 Z M 6.136719 14.550781 "/>
<path fill-rule="nonzero" fill="rgb(5.490196%, 5.490196%, 5.490196%)" fill-opacity="1" d="M 6.136719 19.65625 C 6.136719 20.621094 5.359375 21.402344 4.390625 21.402344 C 3.425781 21.402344 2.644531 20.621094 2.644531 19.65625 C 2.644531 18.6875 3.425781 17.90625 4.390625 17.90625 C 5.359375 17.90625 6.136719 18.6875 6.136719 19.65625 Z M 6.136719 19.65625 "/>
<path fill-rule="nonzero" fill="rgb(0%, 78.431373%, 36.862745%)" fill-opacity="1" d="M 6.136719 4.34375 C 6.136719 5.3125 5.359375 6.09375 4.390625 6.09375 C 3.425781 6.09375 2.640625 5.3125 2.640625 4.34375 C 2.640625 3.378906 3.425781 2.597656 4.390625 2.597656 C 5.359375 2.597656 6.136719 3.378906 6.136719 4.34375 Z M 6.136719 4.34375 "/>
<path fill-rule="nonzero" fill="rgb(5.490196%, 5.490196%, 5.490196%)" fill-opacity="1" d="M 6.136719 9.449219 C 6.136719 10.414062 5.359375 11.195312 4.390625 11.195312 C 3.425781 11.195312 2.640625 10.414062 2.640625 9.449219 C 2.640625 8.484375 3.425781 7.699219 4.390625 7.699219 C 5.359375 7.699219 6.136719 8.484375 6.136719 9.449219 Z M 6.136719 9.449219 "/>
</svg>
