<?xml version="1.0" encoding="UTF-8"?>
<svg xmlns="http://www.w3.org/2000/svg" xmlns:xlink="http://www.w3.org/1999/xlink" width="10" height="21.234008" viewBox="0 0 10 21.234008">
<path fill-rule="nonzero" fill="rgb(14.901961%, 14.901961%, 14.901961%)" fill-opacity="1" d="M 0 4.949219 L 10 4.949219 L 10 16.566406 L 0 16.566406 Z M 0 4.949219 "/>
<path fill-rule="nonzero" fill="rgb(14.901961%, 14.901961%, 14.901961%)" fill-opacity="1" d="M 10 16.285156 C 10 19.019531 7.757812 21.234375 5 21.234375 C 2.238281 21.234375 0 19.019531 0 16.285156 C 0 13.554688 2.238281 11.339844 5 11.339844 C 7.757812 11.339844 10 13.554688 10 16.285156 Z M 10 16.285156 "/>
<path fill-rule="nonzero" fill="rgb(14.901961%, 14.901961%, 14.901961%)" fill-opacity="1" d="M 10 4.949219 C 10 7.679688 7.757812 9.894531 5 9.894531 C 2.238281 9.894531 0 7.679688 0 4.949219 C 0 2.214844 2.238281 0 5 0 C 7.757812 0 10 2.214844 10 4.949219 Z M 10 4.949219 "/>
<path fill-rule="nonzero" fill="rgb(100%, 69.803922%, 0%)" fill-opacity="1" d="M 6.988281 16.285156 C 6.988281 17.386719 6.101562 18.277344 4.996094 18.277344 C 3.898438 18.277344 3.011719 17.386719 3.011719 16.285156 C 3.011719 15.1875 3.898438 14.296875 4.996094 14.296875 C 6.101562 14.296875 6.988281 15.1875 6.988281 16.285156 Z M 6.988281 16.285156 "/>
<path fill-rule="nonzero" fill="rgb(0%, 78.431373%, 36.862745%)" fill-opacity="1" d="M 6.988281 4.949219 C 6.988281 6.046875 6.101562 6.9375 4.996094 6.9375 C 3.898438 6.9375 3.007812 6.046875 3.007812 4.949219 C 3.007812 3.847656 3.898438 2.957031 4.996094 2.957031 C 6.101562 2.957031 6.988281 3.847656 6.988281 4.949219 Z M 6.988281 4.949219 "/>
<path fill-rule="nonzero" fill="rgb(5.490196%, 5.490196%, 5.490196%)" fill-opacity="1" d="M 6.988281 10.757812 C 6.988281 11.855469 6.101562 12.75 4.996094 12.75 C 3.898438 12.75 3.007812 11.855469 3.007812 10.757812 C 3.007812 9.660156 3.898438 8.765625 4.996094 8.765625 C 6.101562 8.765625 6.988281 9.660156 6.988281 10.757812 Z M 6.988281 10.757812 "/>
</svg>
