<?xml version="1.0" encoding="UTF-8"?>
<svg xmlns="http://www.w3.org/2000/svg" xmlns:xlink="http://www.w3.org/1999/xlink" width="7.801659" height="24" viewBox="0 0 7.801659 24">
<path fill-rule="nonzero" fill="rgb(14.901961%, 14.901961%, 14.901961%)" fill-opacity="1" d="M 0 3.859375 L 7.800781 3.859375 L 7.800781 17.460938 L 0 17.460938 Z M 0 3.859375 "/>
<path fill-rule="nonzero" fill="rgb(14.901961%, 14.901961%, 14.901961%)" fill-opacity="1" d="M 7.800781 17.460938 C 7.800781 19.59375 6.054688 21.320312 3.902344 21.320312 C 1.746094 21.320312 0 19.59375 0 17.460938 C 0 15.328125 1.746094 13.601562 3.902344 13.601562 C 6.054688 13.601562 7.800781 15.328125 7.800781 17.460938 Z M 7.800781 17.460938 "/>
<path fill-rule="nonzero" fill="rgb(14.901961%, 14.901961%, 14.901961%)" fill-opacity="1" d="M 7.800781 3.859375 C 7.800781 5.992188 6.054688 7.722656 3.902344 7.722656 C 1.746094 7.722656 0 5.992188 0 3.859375 C 0 1.726562 1.746094 0 3.902344 0 C 6.054688 0 7.800781 1.726562 7.800781 3.859375 Z M 7.800781 3.859375 "/>
<path fill-rule="nonzero" fill="rgb(100%, 69.803922%, 0%)" fill-opacity="1" d="M 5.453125 12.925781 C 5.453125 13.785156 4.761719 14.480469 3.898438 14.480469 C 3.042969 14.480469 2.347656 13.785156 2.347656 12.925781 C 2.347656 12.070312 3.042969 11.375 3.898438 11.375 C 4.761719 11.375 5.453125 12.070312 5.453125 12.925781 Z M 5.453125 12.925781 "/>
<path fill-rule="nonzero" fill="rgb(5.490196%, 5.490196%, 5.490196%)" fill-opacity="1" d="M 5.453125 17.460938 C 5.453125 18.316406 4.761719 19.015625 3.898438 19.015625 C 3.042969 19.015625 2.347656 18.316406 2.347656 17.460938 C 2.347656 16.601562 3.042969 15.90625 3.898438 15.90625 C 4.761719 15.90625 5.453125 16.601562 5.453125 17.460938 Z M 5.453125 17.460938 "/>
<path fill-rule="nonzero" fill="rgb(0%, 78.431373%, 36.862745%)" fill-opacity="1" d="M 5.453125 3.859375 C 5.453125 4.71875 4.761719 5.414062 3.898438 5.414062 C 3.042969 5.414062 2.347656 4.71875 2.347656 3.859375 C 2.347656 3.003906 3.042969 2.308594 3.898438 2.308594 C 4.761719 2.308594 5.453125 3.003906 5.453125 3.859375 Z M 5.453125 3.859375 "/>
<path fill-rule="nonzero" fill="rgb(5.490196%, 5.490196%, 5.490196%)" fill-opacity="1" d="M 5.453125 8.394531 C 5.453125 9.25 4.761719 9.945312 3.898438 9.945312 C 3.042969 9.945312 2.347656 9.25 2.347656 8.394531 C 2.347656 7.535156 3.042969 6.839844 3.898438 6.839844 C 4.761719 6.839844 5.453125 7.535156 5.453125 8.394531 Z M 5.453125 8.394531 "/>
<path fill-rule="nonzero" fill="rgb(14.901961%, 14.901961%, 14.901961%)" fill-opacity="1" d="M 0 21.578125 L 7.800781 21.578125 L 7.800781 24 L 0 24 Z M 0 21.578125 "/>
<path fill-rule="nonzero" fill="rgb(100%, 69.803922%, 0%)" fill-opacity="1" d="M 2.691406 22.769531 C 2.691406 23.082031 2.175781 23.335938 1.539062 23.335938 C 0.902344 23.335938 0.386719 23.082031 0.386719 22.769531 C 0.386719 22.457031 0.902344 22.207031 1.539062 22.207031 C 2.175781 22.207031 2.691406 22.457031 2.691406 22.769531 Z M 2.691406 22.769531 "/>
<path fill-rule="nonzero" fill="rgb(100%, 69.803922%, 0%)" fill-opacity="1" d="M 5.050781 22.789062 C 5.050781 23.101562 4.535156 23.351562 3.902344 23.351562 C 3.265625 23.351562 2.75 23.101562 2.75 22.789062 C 2.75 22.476562 3.265625 22.222656 3.902344 22.222656 C 4.535156 22.222656 5.050781 22.476562 5.050781 22.789062 Z M 5.050781 22.789062 "/>
<path fill-rule="nonzero" fill="rgb(100%, 69.803922%, 0%)" fill-opacity="1" d="M 7.414062 22.789062 C 7.414062 23.101562 6.898438 23.351562 6.261719 23.351562 C 5.625 23.351562 5.109375 23.101562 5.109375 22.789062 C 5.109375 22.476562 5.625 22.222656 6.261719 22.222656 C 6.898438 22.222656 7.414062 22.476562 7.414062 22.789062 Z M 7.414062 22.789062 "/>
</svg>
