<?xml version="1.0" encoding="UTF-8"?>
<svg xmlns="http://www.w3.org/2000/svg" xmlns:xlink="http://www.w3.org/1999/xlink" width="10.186428" height="16" viewBox="0 0 10.186428 16">
<path fill-rule="nonzero" fill="rgb(14.901961%, 14.901961%, 14.901961%)" fill-opacity="1" d="M 0 5.039062 L 10.1875 5.039062 L 10.1875 10.960938 L 0 10.960938 Z M 0 5.039062 "/>
<path fill-rule="nonzero" fill="rgb(14.901961%, 14.901961%, 14.901961%)" fill-opacity="1" d="M 10.1875 10.960938 C 10.1875 13.742188 7.90625 16 5.09375 16 C 2.28125 16 0 13.742188 0 10.960938 C 0 8.175781 2.28125 5.917969 5.09375 5.917969 C 7.90625 5.917969 10.1875 8.175781 10.1875 10.960938 Z M 10.1875 10.960938 "/>
<path fill-rule="nonzero" fill="rgb(14.901961%, 14.901961%, 14.901961%)" fill-opacity="1" d="M 10.1875 5.039062 C 10.1875 7.824219 7.90625 10.082031 5.09375 10.082031 C 2.28125 10.082031 0 7.824219 0 5.039062 C 0 2.257812 2.28125 0 5.09375 0 C 7.90625 0 10.1875 2.257812 10.1875 5.039062 Z M 10.1875 5.039062 "/>
<path fill-rule="nonzero" fill="rgb(5.490196%, 5.490196%, 5.490196%)" fill-opacity="1" d="M 7.117188 5.039062 C 7.117188 6.160156 6.214844 7.070312 5.089844 7.070312 C 3.972656 7.070312 3.0625 6.160156 3.0625 5.039062 C 3.0625 3.921875 3.972656 3.011719 5.089844 3.011719 C 6.214844 3.011719 7.117188 3.921875 7.117188 5.039062 Z M 7.117188 5.039062 "/>
<path fill-rule="nonzero" fill="rgb(0%, 78.431373%, 36.862745%)" fill-opacity="1" d="M 7.117188 10.960938 C 7.117188 12.078125 6.214844 12.988281 5.089844 12.988281 C 3.972656 12.988281 3.0625 12.078125 3.0625 10.960938 C 3.0625 9.839844 3.972656 8.929688 5.089844 8.929688 C 6.214844 8.929688 7.117188 9.839844 7.117188 10.960938 Z M 7.117188 10.960938 "/>
</svg>
