<?xml version="1.0" encoding="UTF-8"?>
<svg xmlns="http://www.w3.org/2000/svg" xmlns:xlink="http://www.w3.org/1999/xlink" width="7.677011" height="26" viewBox="0 0 7.677011 26">
<path fill-rule="nonzero" fill="rgb(14.901961%, 14.901961%, 14.901961%)" fill-opacity="1" d="M 0 3.800781 L 7.675781 3.800781 L 7.675781 17.179688 L 0 17.179688 Z M 0 3.800781 "/>
<path fill-rule="nonzero" fill="rgb(14.901961%, 14.901961%, 14.901961%)" fill-opacity="1" d="M 7.675781 17.179688 C 7.675781 19.277344 5.957031 20.980469 3.839844 20.980469 C 1.71875 20.980469 0 19.277344 0 17.179688 C 0 15.082031 1.71875 13.378906 3.839844 13.378906 C 5.957031 13.378906 7.675781 15.082031 7.675781 17.179688 Z M 7.675781 17.179688 "/>
<path fill-rule="nonzero" fill="rgb(14.901961%, 14.901961%, 14.901961%)" fill-opacity="1" d="M 7.675781 3.800781 C 7.675781 5.894531 5.957031 7.597656 3.839844 7.597656 C 1.71875 7.597656 0 5.894531 0 3.800781 C 0 1.699219 1.71875 0 3.839844 0 C 5.957031 0 7.675781 1.699219 7.675781 3.800781 Z M 7.675781 3.800781 "/>
<path fill-rule="nonzero" fill="rgb(100%, 69.803922%, 0%)" fill-opacity="1" d="M 5.367188 12.71875 C 5.367188 13.5625 4.683594 14.25 3.839844 14.25 C 2.992188 14.25 2.3125 13.5625 2.3125 12.71875 C 2.3125 11.875 2.992188 11.191406 3.839844 11.191406 C 4.683594 11.191406 5.367188 11.875 5.367188 12.71875 Z M 5.367188 12.71875 "/>
<path fill-rule="nonzero" fill="rgb(5.490196%, 5.490196%, 5.490196%)" fill-opacity="1" d="M 5.367188 17.179688 C 5.367188 18.023438 4.683594 18.707031 3.839844 18.707031 C 2.992188 18.707031 2.3125 18.023438 2.3125 17.179688 C 2.3125 16.335938 2.992188 15.652344 3.839844 15.652344 C 4.683594 15.652344 5.367188 16.335938 5.367188 17.179688 Z M 5.367188 17.179688 "/>
<path fill-rule="nonzero" fill="rgb(5.490196%, 5.490196%, 5.490196%)" fill-opacity="1" d="M 5.367188 8.261719 C 5.367188 9.101562 4.683594 9.789062 3.839844 9.789062 C 2.992188 9.789062 2.3125 9.101562 2.3125 8.261719 C 2.3125 7.414062 2.992188 6.730469 3.839844 6.730469 C 4.683594 6.730469 5.367188 7.414062 5.367188 8.261719 Z M 5.367188 8.261719 "/>
<path fill-rule="nonzero" fill="rgb(0%, 78.431373%, 36.862745%)" fill-opacity="1" d="M 5.367188 3.800781 C 5.367188 4.640625 4.6875 5.328125 3.839844 5.328125 C 2.996094 5.328125 2.308594 4.640625 2.308594 3.800781 C 2.308594 2.953125 2.996094 2.273438 3.839844 2.273438 C 4.6875 2.273438 5.367188 2.953125 5.367188 3.800781 Z M 5.367188 3.800781 "/>
<path fill-rule="nonzero" fill="rgb(14.901961%, 14.901961%, 14.901961%)" fill-opacity="1" d="M 0 21.230469 L 7.675781 21.230469 L 7.675781 26 L 0 26 Z M 0 21.230469 "/>
<path fill-rule="nonzero" fill="rgb(100%, 69.803922%, 0%)" fill-opacity="1" d="M 2.648438 24.808594 C 2.648438 25.113281 2.140625 25.363281 1.519531 25.363281 C 0.890625 25.363281 0.382812 25.113281 0.382812 24.808594 C 0.382812 24.5 0.890625 24.25 1.519531 24.25 C 2.140625 24.25 2.648438 24.5 2.648438 24.808594 Z M 2.648438 24.808594 "/>
<path fill-rule="nonzero" fill="rgb(100%, 69.803922%, 0%)" fill-opacity="1" d="M 4.96875 24.808594 C 4.96875 25.113281 4.464844 25.363281 3.839844 25.363281 C 3.210938 25.363281 2.707031 25.113281 2.707031 24.808594 C 2.707031 24.5 3.210938 24.253906 3.839844 24.253906 C 4.464844 24.253906 4.96875 24.5 4.96875 24.808594 Z M 4.96875 24.808594 "/>
<path fill-rule="nonzero" fill="rgb(100%, 69.803922%, 0%)" fill-opacity="1" d="M 7.296875 24.808594 C 7.296875 25.113281 6.789062 25.363281 6.160156 25.363281 C 5.535156 25.363281 5.027344 25.113281 5.027344 24.808594 C 5.027344 24.5 5.535156 24.253906 6.160156 24.253906 C 6.789062 24.253906 7.296875 24.5 7.296875 24.808594 Z M 7.296875 24.808594 "/>
<path fill-rule="nonzero" fill="rgb(0%, 78.431373%, 36.862745%)" fill-opacity="1" d="M 2.648438 22.421875 C 2.648438 22.726562 2.140625 22.976562 1.519531 22.976562 C 0.890625 22.976562 0.382812 22.726562 0.382812 22.421875 C 0.382812 22.117188 0.890625 21.867188 1.519531 21.867188 C 2.140625 21.867188 2.648438 22.117188 2.648438 22.421875 Z M 2.648438 22.421875 "/>
<path fill-rule="nonzero" fill="rgb(0%, 78.431373%, 36.862745%)" fill-opacity="1" d="M 4.96875 22.425781 C 4.96875 22.730469 4.464844 22.976562 3.839844 22.976562 C 3.210938 22.976562 2.707031 22.730469 2.707031 22.425781 C 2.707031 22.113281 3.210938 21.867188 3.839844 21.867188 C 4.464844 21.867188 4.96875 22.113281 4.96875 22.425781 Z M 4.96875 22.425781 "/>
<path fill-rule="nonzero" fill="rgb(0%, 78.431373%, 36.862745%)" fill-opacity="1" d="M 7.296875 22.425781 C 7.296875 22.730469 6.789062 22.976562 6.160156 22.976562 C 5.535156 22.976562 5.027344 22.730469 5.027344 22.425781 C 5.027344 22.113281 5.535156 21.867188 6.160156 21.867188 C 6.789062 21.867188 7.296875 22.113281 7.296875 22.425781 Z M 7.296875 22.425781 "/>
</svg>
