<?xml version="1.0" encoding="UTF-8"?>
<svg xmlns="http://www.w3.org/2000/svg" xmlns:xlink="http://www.w3.org/1999/xlink" width="7.560756" height="30" viewBox="0 0 7.560756 30">
<path fill-rule="nonzero" fill="rgb(14.901961%, 14.901961%, 14.901961%)" fill-opacity="1" d="M 0 3.742188 L 7.5625 3.742188 L 7.5625 21.3125 L 0 21.3125 Z M 0 3.742188 "/>
<path fill-rule="nonzero" fill="rgb(14.901961%, 14.901961%, 14.901961%)" fill-opacity="1" d="M 7.5625 21.3125 C 7.5625 23.378906 5.867188 25.054688 3.78125 25.054688 C 1.695312 25.054688 0 23.378906 0 21.3125 C 0 19.25 1.695312 17.570312 3.78125 17.570312 C 5.867188 17.570312 7.5625 19.25 7.5625 21.3125 Z M 7.5625 21.3125 "/>
<path fill-rule="nonzero" fill="rgb(14.901961%, 14.901961%, 14.901961%)" fill-opacity="1" d="M 7.5625 3.742188 C 7.5625 5.804688 5.867188 7.484375 3.78125 7.484375 C 1.695312 7.484375 0 5.804688 0 3.742188 C 0 1.675781 1.695312 0 3.78125 0 C 5.867188 0 7.5625 1.675781 7.5625 3.742188 Z M 7.5625 3.742188 "/>
<path fill-rule="nonzero" fill="rgb(100%, 69.803922%, 0%)" fill-opacity="1" d="M 5.285156 16.917969 C 5.285156 17.753906 4.613281 18.425781 3.78125 18.425781 C 2.945312 18.425781 2.277344 17.753906 2.277344 16.917969 C 2.277344 16.089844 2.945312 15.414062 3.78125 15.414062 C 4.613281 15.414062 5.285156 16.089844 5.285156 16.917969 Z M 5.285156 16.917969 "/>
<path fill-rule="nonzero" fill="rgb(5.490196%, 5.490196%, 5.490196%)" fill-opacity="1" d="M 5.285156 21.3125 C 5.285156 22.144531 4.613281 22.816406 3.78125 22.816406 C 2.945312 22.816406 2.277344 22.144531 2.277344 21.3125 C 2.277344 20.484375 2.945312 19.808594 3.78125 19.808594 C 4.613281 19.808594 5.285156 20.484375 5.285156 21.3125 Z M 5.285156 21.3125 "/>
<path fill-rule="nonzero" fill="rgb(5.490196%, 5.490196%, 5.490196%)" fill-opacity="1" d="M 5.285156 12.527344 C 5.285156 13.359375 4.613281 14.035156 3.78125 14.035156 C 2.945312 14.035156 2.277344 13.359375 2.277344 12.527344 C 2.277344 11.695312 2.945312 11.019531 3.78125 11.019531 C 4.613281 11.019531 5.285156 11.695312 5.285156 12.527344 Z M 5.285156 12.527344 "/>
<path fill-rule="nonzero" fill="rgb(0%, 78.431373%, 36.862745%)" fill-opacity="1" d="M 5.285156 3.742188 C 5.285156 4.570312 4.613281 5.246094 3.78125 5.246094 C 2.945312 5.246094 2.273438 4.570312 2.273438 3.742188 C 2.273438 2.910156 2.945312 2.238281 3.78125 2.238281 C 4.613281 2.238281 5.285156 2.910156 5.285156 3.742188 Z M 5.285156 3.742188 "/>
<path fill-rule="nonzero" fill="rgb(5.490196%, 5.490196%, 5.490196%)" fill-opacity="1" d="M 5.285156 8.136719 C 5.285156 8.964844 4.613281 9.640625 3.78125 9.640625 C 2.945312 9.640625 2.273438 8.964844 2.273438 8.136719 C 2.273438 7.300781 2.945312 6.628906 3.78125 6.628906 C 4.613281 6.628906 5.285156 7.300781 5.285156 8.136719 Z M 5.285156 8.136719 "/>
<path fill-rule="nonzero" fill="rgb(14.901961%, 14.901961%, 14.901961%)" fill-opacity="1" d="M 0 25.300781 L 7.5625 25.300781 L 7.5625 30 L 0 30 Z M 0 25.300781 "/>
<path fill-rule="nonzero" fill="rgb(100%, 69.803922%, 0%)" fill-opacity="1" d="M 2.609375 28.824219 C 2.609375 29.125 2.109375 29.375 1.496094 29.375 C 0.878906 29.375 0.375 29.125 0.375 28.824219 C 0.375 28.523438 0.878906 28.277344 1.496094 28.277344 C 2.109375 28.277344 2.609375 28.523438 2.609375 28.824219 Z M 2.609375 28.824219 "/>
<path fill-rule="nonzero" fill="rgb(100%, 69.803922%, 0%)" fill-opacity="1" d="M 4.894531 28.828125 C 4.894531 29.128906 4.398438 29.371094 3.78125 29.371094 C 3.164062 29.371094 2.664062 29.128906 2.664062 28.828125 C 2.664062 28.523438 3.164062 28.28125 3.78125 28.28125 C 4.398438 28.28125 4.894531 28.523438 4.894531 28.828125 Z M 4.894531 28.828125 "/>
<path fill-rule="nonzero" fill="rgb(100%, 69.803922%, 0%)" fill-opacity="1" d="M 7.1875 28.828125 C 7.1875 29.128906 6.683594 29.371094 6.066406 29.371094 C 5.449219 29.371094 4.953125 29.128906 4.953125 28.828125 C 4.953125 28.523438 5.449219 28.28125 6.066406 28.28125 C 6.683594 28.28125 7.1875 28.523438 7.1875 28.828125 Z M 7.1875 28.828125 "/>
<path fill-rule="nonzero" fill="rgb(0%, 78.431373%, 36.862745%)" fill-opacity="1" d="M 2.609375 26.476562 C 2.609375 26.777344 2.109375 27.023438 1.496094 27.023438 C 0.878906 27.023438 0.375 26.777344 0.375 26.476562 C 0.375 26.175781 0.878906 25.929688 1.496094 25.929688 C 2.109375 25.929688 2.609375 26.175781 2.609375 26.476562 Z M 2.609375 26.476562 "/>
<path fill-rule="nonzero" fill="rgb(0%, 78.431373%, 36.862745%)" fill-opacity="1" d="M 4.894531 26.476562 C 4.894531 26.777344 4.398438 27.023438 3.78125 27.023438 C 3.164062 27.023438 2.664062 26.777344 2.664062 26.476562 C 2.664062 26.171875 3.164062 25.929688 3.78125 25.929688 C 4.398438 25.929688 4.894531 26.171875 4.894531 26.476562 Z M 4.894531 26.476562 "/>
<path fill-rule="nonzero" fill="rgb(0%, 78.431373%, 36.862745%)" fill-opacity="1" d="M 7.1875 26.476562 C 7.1875 26.777344 6.683594 27.023438 6.066406 27.023438 C 5.449219 27.023438 4.953125 26.777344 4.953125 26.476562 C 4.953125 26.171875 5.449219 25.929688 6.066406 25.929688 C 6.683594 25.929688 7.1875 26.171875 7.1875 26.476562 Z M 7.1875 26.476562 "/>
</svg>
