<?xml version="1.0" encoding="UTF-8"?>
<svg xmlns="http://www.w3.org/2000/svg" xmlns:xlink="http://www.w3.org/1999/xlink" width="7.655805" height="28" viewBox="0 0 7.655805 28">
<path fill-rule="nonzero" fill="rgb(14.901961%, 14.901961%, 14.901961%)" fill-opacity="1" d="M 0 3.789062 L 7.65625 3.789062 L 7.65625 21.582031 L 0 21.582031 Z M 0 3.789062 "/>
<path fill-rule="nonzero" fill="rgb(14.901961%, 14.901961%, 14.901961%)" fill-opacity="1" d="M 7.65625 21.582031 C 7.65625 23.675781 5.941406 25.371094 3.828125 25.371094 C 1.714844 25.371094 0 23.675781 0 21.582031 C 0 19.492188 1.714844 17.792969 3.828125 17.792969 C 5.941406 17.792969 7.65625 19.492188 7.65625 21.582031 Z M 7.65625 21.582031 "/>
<path fill-rule="nonzero" fill="rgb(14.901961%, 14.901961%, 14.901961%)" fill-opacity="1" d="M 7.65625 3.789062 C 7.65625 5.878906 5.941406 7.578125 3.828125 7.578125 C 1.714844 7.578125 0 5.878906 0 3.789062 C 0 1.695312 1.714844 0 3.828125 0 C 5.941406 0 7.65625 1.695312 7.65625 3.789062 Z M 7.65625 3.789062 "/>
<path fill-rule="nonzero" fill="rgb(100%, 69.803922%, 0%)" fill-opacity="1" d="M 5.351562 17.132812 C 5.351562 17.976562 4.671875 18.660156 3.828125 18.660156 C 2.984375 18.660156 2.304688 17.976562 2.304688 17.132812 C 2.304688 16.292969 2.984375 15.609375 3.828125 15.609375 C 4.671875 15.609375 5.351562 16.292969 5.351562 17.132812 Z M 5.351562 17.132812 "/>
<path fill-rule="nonzero" fill="rgb(5.490196%, 5.490196%, 5.490196%)" fill-opacity="1" d="M 5.351562 21.582031 C 5.351562 22.425781 4.671875 23.105469 3.828125 23.105469 C 2.984375 23.105469 2.304688 22.425781 2.304688 21.582031 C 2.304688 20.742188 2.984375 20.058594 3.828125 20.058594 C 4.671875 20.058594 5.351562 20.742188 5.351562 21.582031 Z M 5.351562 21.582031 "/>
<path fill-rule="nonzero" fill="rgb(5.490196%, 5.490196%, 5.490196%)" fill-opacity="1" d="M 5.351562 12.6875 C 5.351562 13.527344 4.671875 14.210938 3.828125 14.210938 C 2.984375 14.210938 2.304688 13.527344 2.304688 12.6875 C 2.304688 11.84375 2.984375 11.160156 3.828125 11.160156 C 4.671875 11.160156 5.351562 11.84375 5.351562 12.6875 Z M 5.351562 12.6875 "/>
<path fill-rule="nonzero" fill="rgb(0%, 78.431373%, 36.862745%)" fill-opacity="1" d="M 5.351562 3.789062 C 5.351562 4.628906 4.671875 5.3125 3.828125 5.3125 C 2.984375 5.3125 2.300781 4.628906 2.300781 3.789062 C 2.300781 2.945312 2.984375 2.265625 3.828125 2.265625 C 4.671875 2.265625 5.351562 2.945312 5.351562 3.789062 Z M 5.351562 3.789062 "/>
<path fill-rule="nonzero" fill="rgb(5.490196%, 5.490196%, 5.490196%)" fill-opacity="1" d="M 5.351562 8.238281 C 5.351562 9.078125 4.671875 9.761719 3.828125 9.761719 C 2.984375 9.761719 2.300781 9.078125 2.300781 8.238281 C 2.300781 7.394531 2.984375 6.710938 3.828125 6.710938 C 4.671875 6.710938 5.351562 7.394531 5.351562 8.238281 Z M 5.351562 8.238281 "/>
<path fill-rule="nonzero" fill="rgb(14.901961%, 14.901961%, 14.901961%)" fill-opacity="1" d="M 0 25.621094 L 7.65625 25.621094 L 7.65625 28 L 0 28 Z M 0 25.621094 "/>
<path fill-rule="nonzero" fill="rgb(0%, 78.431373%, 36.862745%)" fill-opacity="1" d="M 2.640625 26.792969 C 2.640625 27.097656 2.132812 27.347656 1.511719 27.347656 C 0.886719 27.347656 0.378906 27.097656 0.378906 26.792969 C 0.378906 26.488281 0.886719 26.238281 1.511719 26.238281 C 2.132812 26.238281 2.640625 26.488281 2.640625 26.792969 Z M 2.640625 26.792969 "/>
<path fill-rule="nonzero" fill="rgb(0%, 78.431373%, 36.862745%)" fill-opacity="1" d="M 4.957031 26.8125 C 4.957031 27.117188 4.453125 27.363281 3.828125 27.363281 C 3.203125 27.363281 2.699219 27.117188 2.699219 26.8125 C 2.699219 26.503906 3.203125 26.257812 3.828125 26.257812 C 4.453125 26.257812 4.957031 26.503906 4.957031 26.8125 Z M 4.957031 26.8125 "/>
<path fill-rule="nonzero" fill="rgb(0%, 78.431373%, 36.862745%)" fill-opacity="1" d="M 7.277344 26.8125 C 7.277344 27.117188 6.769531 27.363281 6.144531 27.363281 C 5.519531 27.363281 5.015625 27.117188 5.015625 26.8125 C 5.015625 26.503906 5.519531 26.257812 6.144531 26.257812 C 6.769531 26.257812 7.277344 26.503906 7.277344 26.8125 Z M 7.277344 26.8125 "/>
</svg>
