<?xml version="1.0" encoding="UTF-8" standalone="no"?>
<!-- Created with Inkscape (http://www.inkscape.org/) -->

<svg
   width="190mm"
   height="730mm"
   viewBox="0 0 190 730"
   version="1.1"
   id="svg1"
   inkscape:version="1.3.2 (091e20ef0f, 2023-11-25, custom)"
   sodipodi:docname="s9.svg"
   xmlns:inkscape="http://www.inkscape.org/namespaces/inkscape"
   xmlns:sodipodi="http://sodipodi.sourceforge.net/DTD/sodipodi-0.dtd"
   xmlns="http://www.w3.org/2000/svg"
   xmlns:svg="http://www.w3.org/2000/svg">
  <sodipodi:namedview
     id="namedview1"
     pagecolor="#ffffff"
     bordercolor="#000000"
     borderopacity="0.25"
     inkscape:showpageshadow="2"
     inkscape:pageopacity="0.0"
     inkscape:pagecheckerboard="false"
     inkscape:deskcolor="#d1d1d1"
     inkscape:document-units="mm"
     showguides="false"
     inkscape:zoom="0.14928528"
     inkscape:cx="154.06743"
     inkscape:cy="1001.4383"
     inkscape:window-width="1707"
     inkscape:window-height="987"
     inkscape:window-x="0"
     inkscape:window-y="0"
     inkscape:window-maximized="1"
     inkscape:current-layer="layer1" />
  <defs
     id="defs1">
    <inkscape:path-effect
       effect="fillet_chamfer"
       id="path-effect10"
       is_visible="true"
       lpeversion="1"
       nodesatellites_param="F,0,0,1,0,12.5,0,1 @ F,0,0,1,0,12.5,0,1 @ F,0,0,1,0,12.5,0,1 @ F,0,0,1,0,12.5,0,1"
       radius="0"
       unit="px"
       method="auto"
       mode="F"
       chamfer_steps="1"
       flexible="false"
       use_knot_distance="true"
       apply_no_radius="true"
       apply_with_radius="true"
       only_selected="false"
       hide_knots="false" />
    <inkscape:path-effect
       effect="fillet_chamfer"
       id="path-effect9"
       is_visible="true"
       lpeversion="1"
       nodesatellites_param="F,0,0,1,0,12.5,0,1 @ F,0,0,1,0,12.5,0,1 @ F,0,0,1,0,12.5,0,1 @ F,0,0,1,0,12.5,0,1"
       radius="0"
       unit="px"
       method="auto"
       mode="F"
       chamfer_steps="1"
       flexible="false"
       use_knot_distance="true"
       apply_no_radius="true"
       apply_with_radius="true"
       only_selected="false"
       hide_knots="false" />
    <inkscape:path-effect
       effect="fillet_chamfer"
       id="path-effect8"
       is_visible="true"
       lpeversion="1"
       nodesatellites_param="F,0,0,1,0,12.5,0,1 @ F,0,0,1,0,12.5,0,1 @ F,0,0,1,0,12.5,0,1 @ F,0,0,1,0,12.5,0,1"
       radius="0"
       unit="px"
       method="auto"
       mode="F"
       chamfer_steps="1"
       flexible="false"
       use_knot_distance="true"
       apply_no_radius="true"
       apply_with_radius="true"
       only_selected="false"
       hide_knots="false" />
    <inkscape:path-effect
       effect="fillet_chamfer"
       id="path-effect4"
       is_visible="true"
       lpeversion="1"
       nodesatellites_param="F,0,0,1,0,95,0,1 @ F,0,0,1,0,95,0,1 @ F,0,0,1,0,95,0,1 @ F,0,0,1,0,95,0,1"
       radius="0"
       unit="px"
       method="auto"
       mode="F"
       chamfer_steps="1"
       flexible="false"
       use_knot_distance="true"
       apply_no_radius="true"
       apply_with_radius="true"
       only_selected="false"
       hide_knots="false" />
  </defs>
  <g
     inkscape:label="Layer 1"
     inkscape:groupmode="layer"
     id="layer1">
    <path
       id="rect1"
       transform="scale(0.95,1.0714286)"
       d="m 95,0 h 10 a 95,95 45 0 1 95,95 v 370 a 95,95 135 0 1 -95,95 H 95 A 95,95 45 0 1 0,465 V 95 A 95,95 135 0 1 95,0 Z"
       style="fill:#0e0f11;stroke-width:0.526177"
       inkscape:path-effect="#path-effect4"
       inkscape:original-d="M 0,0 H 200 V 560 H 0 Z" />
    <circle
       style="fill:none;stroke-width:0.185208"
       id="path3"
       cx="95"
       cy="300"
       r="35" />
    <circle
       style="fill:#ffcc00;stroke-width:0.185208"
       id="path3-61"
       cx="95"
       cy="195"
       r="35" />
    <path
       id="path3-2"
       style="fill:none;stroke-width:0.185208;fill-opacity:1"
       d="M 94.999886 54.999744 A 35 35 0 0 0 59.999955 90.000191 A 35 35 0 0 0 94.999886 125.00012 A 35 35 0 0 0 129.99982 90.000191 A 35 35 0 0 0 94.999886 54.999744 z " />
    <circle
       style="fill:#ffcc00;stroke-width:0.185209"
       id="path3-6"
       cx="95"
       cy="405"
       r="35" />
    <circle
       style="fill:none;stroke-width:0.185209;fill-opacity:1"
       id="path3-5"
       cx="95"
       cy="510"
       r="35" />
    <path
       id="rect6"
       style="stroke-width:0.33325"
       d="m 0,605 h 190 v 75.66591 L 140.37466,730 H 49.625344 L 0,680.66591 Z"
       sodipodi:nodetypes="ccccccc" />
    <path
       style="fill:#27ff58;fill-opacity:1;stroke-width:0.23979"
       id="rect7"
       width="55"
       height="25"
       x="5"
       y="615"
       sodipodi:type="rect"
       transform="matrix(1.0454545,0,0,1,-1.7272725,0)"
       inkscape:path-effect="#path-effect8"
       d="m 17.5,615 h 30 A 12.5,12.5 45 0 1 60,627.5 12.5,12.5 135 0 1 47.5,640 h -30 A 12.5,12.5 45 0 1 5,627.5 12.5,12.5 135 0 1 17.5,615 Z" />
    <path
       style="fill:#27ff58;fill-opacity:1;stroke-width:0.245179"
       id="rect7-4"
       width="57.5"
       height="25"
       x="66.25"
       y="615"
       inkscape:path-effect="#path-effect9"
       sodipodi:type="rect"
       d="m 78.75,615 h 32.5 a 12.5,12.5 45 0 1 12.5,12.5 12.5,12.5 135 0 1 -12.5,12.5 H 78.75 A 12.5,12.5 45 0 1 66.25,627.5 12.5,12.5 135 0 1 78.75,615 Z" />
    <path
       style="fill:#27ff58;fill-opacity:1;stroke-width:0.245179"
       id="rect7-4-5"
       width="57.5"
       height="25"
       x="129"
       y="615"
       inkscape:path-effect="#path-effect10"
       sodipodi:type="rect"
       d="M 141.5,615 H 174 A 12.5,12.5 45 0 1 186.5,627.5 12.5,12.5 135 0 1 174,640 H 141.5 A 12.5,12.5 45 0 1 129,627.5 12.5,12.5 135 0 1 141.5,615 Z" />
  </g>
</svg>
