<?xml version="1.0" encoding="UTF-8"?>
<svg xmlns="http://www.w3.org/2000/svg" xmlns:xlink="http://www.w3.org/1999/xlink" width="13.289375" height="20" viewBox="0 0 13.289375 20">
<path fill-rule="evenodd" fill="rgb(60%, 60%, 60%)" fill-opacity="1" stroke-width="2.08861" stroke-linecap="butt" stroke-linejoin="miter" stroke="rgb(40%, 40%, 40%)" stroke-opacity="1" stroke-miterlimit="4" d="M 9.051031 -0.622258 L 39.994244 -0.622258 L 39.994244 288.614755 L 9.051031 288.614755 Z M 9.051031 -0.622258 " transform="matrix(0.0690529, 0, 0, 0.0690529, 0, 0)"/>
<path fill-rule="evenodd" fill="rgb(100%, 100%, 100%)" fill-opacity="1" d="M 0.527344 0.933594 L 0.527344 2.472656 L 10.390625 2.472656 L 11.292969 2.992188 L 11.976562 2.992188 L 12.675781 2.296875 L 12.675781 1.082031 L 11.925781 0.332031 L 11.292969 0.332031 L 10.371094 0.863281 Z M 0.527344 0.933594 "/>
<path fill-rule="evenodd" fill="rgb(98.039216%, 1.176471%, 1.176471%)" fill-opacity="1" stroke-width="2" stroke-linecap="butt" stroke-linejoin="miter" stroke="rgb(40%, 40%, 40%)" stroke-opacity="1" stroke-miterlimit="4" d="M 423.106389 176.203169 C 416.09184 176.486014 409.869256 179.823581 405.683154 184.914786 L 260.018122 184.914786 L 260.018122 215.066034 L 405.683154 215.066034 C 410.038963 220.383514 416.657529 223.83422 424.068061 223.83422 C 437.248625 223.83422 447.883587 213.14269 447.883587 200.018694 C 447.883587 186.83813 437.248625 176.203169 424.068061 176.203169 C 423.898354 176.203169 423.672079 176.203169 423.445803 176.203169 C 423.332665 176.203169 423.219527 176.203169 423.106389 176.203169 Z M 266.976102 191.929335 L 419.995097 191.929335 L 419.995097 208.108053 L 266.976102 208.108053 Z M 266.976102 191.929335 " transform="matrix(0.0690529, -0.000000000000000014, 0.000000000000000014, 0.0690529, -17.708913, -12.097028)"/>
<path fill-rule="evenodd" fill="rgb(100%, 100%, 100%)" fill-opacity="1" stroke-width="2" stroke-linecap="butt" stroke-linejoin="miter" stroke="rgb(40%, 40%, 40%)" stroke-opacity="1" stroke-miterlimit="4" d="M 444.297132 200.018694 C 444.297132 211.049639 436.192572 219.987532 426.113825 219.987532 C 416.08703 219.987532 407.930518 211.049639 407.930518 200.018694 C 407.930518 188.931181 416.08703 179.993288 426.113825 179.993288 C 436.192572 179.993288 444.297132 188.931181 444.297132 200.018694 Z M 444.297132 200.018694 " transform="matrix(0.0751892, -0.000000000000000015, 0.000000000000000014, 0.0690529, -20.441482, -12.097028)"/>
<path fill-rule="evenodd" fill="rgb(98.039216%, 1.176471%, 1.176471%)" fill-opacity="1" stroke-width="1.68028" stroke-linecap="butt" stroke-linejoin="miter" stroke="rgb(40%, 40%, 40%)" stroke-opacity="1" stroke-miterlimit="4" d="M 423.445803 176.203169 C 410.604652 176.486014 400.309104 187.064406 400.309104 200.018694 C 400.309104 213.14269 410.944066 223.83422 424.068061 223.83422 C 437.248625 223.83422 447.883587 213.14269 447.883587 200.018694 C 447.883587 186.83813 437.248625 176.203169 424.068061 176.203169 C 423.898354 176.203169 423.672079 176.203169 423.445803 176.203169 Z M 423.162958 183.896545 C 423.445803 183.839976 423.785216 183.896545 424.068061 183.896545 C 433.005954 183.896545 440.246779 191.080801 440.246779 200.018694 C 440.246779 208.900019 433.005954 216.140844 424.068061 216.140844 C 415.186737 216.140844 407.945912 208.900019 407.945912 200.018694 C 407.945912 191.420215 414.677616 184.349097 423.162958 183.896545 Z M 423.162958 183.896545 " transform="matrix(0.0690529, -0.000000000000000014, 0.000000000000000014, 0.0690529, -17.708913, -12.097028)"/>
<path fill-rule="evenodd" fill="rgb(98.039216%, 1.176471%, 1.176471%)" fill-opacity="1" d="M 9.695312 1.066406 L 10.421875 1.066406 L 10.695312 0.757812 L 9.695312 0.757812 Z M 9.695312 1.066406 "/>
<path fill-rule="evenodd" fill="rgb(98.039216%, 1.176471%, 1.176471%)" fill-opacity="1" d="M 9.695312 2.34375 L 10.421875 2.34375 L 10.695312 2.65625 L 9.695312 2.65625 Z M 9.695312 2.34375 "/>
<path fill-rule="evenodd" fill="rgb(98.039216%, 1.176471%, 1.176471%)" fill-opacity="1" stroke-width="4.21621" stroke-linecap="butt" stroke-linejoin="miter" stroke="rgb(40%, 40%, 40%)" stroke-opacity="1" stroke-miterlimit="4" d="M 320.004844 89.995279 C 320.004844 95.520685 315.512967 100.012562 309.987561 100.012562 C 304.462155 100.012562 300.010029 95.520685 300.010029 89.995279 C 300.010029 84.469873 304.462155 80.017747 309.987561 80.017747 C 315.512967 80.017747 320.004844 84.469873 320.004844 89.995279 Z M 320.004844 89.995279 " transform="matrix(0.0982677, -0.000000000000000021, 0.000000000000000021, 0.0982677, -26.141441, -4.535032)"/>
</svg>
