<?xml version="1.0" encoding="UTF-8"?>
<svg xmlns="http://www.w3.org/2000/svg" xmlns:xlink="http://www.w3.org/1999/xlink" width="9.194789" height="24" viewBox="0 0 9.194789 24">
<path fill-rule="evenodd" fill="rgb(60%, 60%, 60%)" fill-opacity="1" stroke-width="2.10593" stroke-linecap="butt" stroke-linejoin="miter" stroke="rgb(40%, 40%, 40%)" stroke-opacity="1" stroke-miterlimit="4" d="M 12.863166 103.879813 L 43.721772 103.879813 L 43.721772 398.108501 L 12.863166 398.108501 Z M 12.863166 103.879813 " transform="matrix(0.0601281, 0, 0, 0.0601281, 0, 0)"/>
<path fill-rule="evenodd" fill="rgb(100%, 100%, 100%)" fill-opacity="1" d="M 0.421875 7.8125 L 1.367188 8.761719 L 7.441406 2.6875 L 8.316406 2.453125 L 8.738281 2.03125 L 8.738281 1.175781 L 7.988281 0.425781 L 7.070312 0.425781 L 6.679688 0.816406 L 6.4375 1.710938 Z M 0.421875 7.8125 "/>
<path fill-rule="evenodd" fill="rgb(98.039216%, 1.176471%, 1.176471%)" fill-opacity="1" stroke-width="2" stroke-linecap="butt" stroke-linejoin="miter" stroke="rgb(40%, 40%, 40%)" stroke-opacity="1" stroke-miterlimit="4" d="M 423.113007 176.164578 C 416.084564 176.486141 409.882997 179.839581 405.656743 184.89271 L 259.988816 184.938647 L 259.988816 215.073671 L 405.702681 215.073671 C 410.020809 220.402425 416.681752 223.84774 424.077695 223.801803 C 437.21583 223.801803 447.873339 213.144294 447.873339 200.006159 C 447.873339 186.868024 437.21583 176.210515 424.077695 176.210515 C 423.893945 176.210515 423.664257 176.164578 423.480507 176.164578 C 423.342695 176.210515 423.250819 176.210515 423.113007 176.164578 Z M 266.971322 191.921153 L 419.989254 191.875215 L 420.035192 208.091166 L 266.971322 208.091166 Z M 266.971322 191.921153 " transform="matrix(0.042517, -0.042517, 0.042517, 0.042517, -18.831032, 11.019031)"/>
<path fill-rule="evenodd" fill="rgb(100%, 100%, 100%)" fill-opacity="1" stroke-width="2" stroke-linecap="butt" stroke-linejoin="miter" stroke="rgb(40%, 40%, 40%)" stroke-opacity="1" stroke-miterlimit="4" d="M 444.289537 200.006159 C 444.289537 211.031168 436.14715 219.988987 426.106278 219.988987 C 416.065407 219.988987 407.965208 211.077105 407.92302 200.006159 C 407.965208 188.935213 416.107596 179.977393 426.148467 179.977393 C 436.189338 179.977393 444.331726 188.935213 444.289537 200.006159 Z M 444.289537 200.006159 " transform="matrix(0.0462952, -0.0462952, 0.042517, 0.042517, -20.513518, 12.701517)"/>
<path fill-rule="evenodd" fill="rgb(98.039216%, 1.176471%, 1.176471%)" fill-opacity="1" stroke-width="1.68028" stroke-linecap="butt" stroke-linejoin="miter" stroke="rgb(40%, 40%, 40%)" stroke-opacity="1" stroke-miterlimit="4" d="M 423.480507 176.164578 C 410.617997 176.532078 400.282051 187.051774 400.282051 200.006159 C 400.282051 213.144294 410.93956 223.801803 424.077695 223.801803 C 437.21583 223.801803 447.873339 213.144294 447.873339 200.006159 C 447.873339 186.868024 437.21583 176.210515 424.077695 176.210515 C 423.893945 176.210515 423.664257 176.164578 423.480507 176.164578 Z M 423.158944 183.836146 C 423.480507 183.882084 423.756132 183.882084 424.123633 183.882084 C 433.035515 183.882084 440.247708 191.094277 440.247708 200.006159 C 440.247708 208.918041 433.035515 216.130234 424.123633 216.130234 C 415.211751 216.130234 407.999558 208.918041 407.999558 200.006159 C 407.95362 191.41584 414.6605 184.341459 423.158944 183.836146 Z M 423.158944 183.836146 " transform="matrix(0.042517, -0.042517, 0.042517, 0.042517, -18.831032, 11.019031)"/>
<path fill-rule="evenodd" fill="rgb(98.039216%, 1.176471%, 1.176471%)" fill-opacity="1" d="M 6.148438 2.25 L 6.59375 1.804688 L 6.574219 1.445312 L 5.957031 2.058594 Z M 6.148438 2.25 "/>
<path fill-rule="evenodd" fill="rgb(98.039216%, 1.176471%, 1.176471%)" fill-opacity="1" d="M 6.933594 3.039062 L 7.382812 2.589844 L 7.742188 2.613281 L 7.125 3.226562 Z M 6.933594 3.039062 "/>
<path fill-rule="evenodd" fill="rgb(100%, 100%, 100%)" fill-opacity="1" d="M 1.039062 21.378906 L 2.378906 21.378906 L 2.378906 12.789062 L 2.832031 12.003906 L 2.832031 11.40625 L 2.226562 10.800781 L 1.167969 10.800781 L 0.515625 11.453125 L 0.515625 12.003906 L 0.980469 12.804688 Z M 1.039062 21.378906 "/>
<path fill-rule="evenodd" fill="rgb(98.039216%, 1.176471%, 1.176471%)" fill-opacity="1" stroke-width="2" stroke-linecap="butt" stroke-linejoin="miter" stroke="rgb(40%, 40%, 40%)" stroke-opacity="1" stroke-miterlimit="4" d="M 423.126162 176.216656 C 416.10989 176.476518 409.873203 179.789758 405.715412 184.922031 L 259.997826 184.922031 L 259.997826 215.066017 L 405.715412 215.066017 C 410.068099 220.393187 416.694579 223.836358 424.100645 223.836358 C 437.223673 223.836358 447.878013 213.117053 447.878013 199.994024 C 447.878013 186.870996 437.223673 176.216656 424.100645 176.216656 C 423.905748 176.216656 423.645886 176.151691 423.45099 176.216656 C 423.386024 176.216656 423.256093 176.151691 423.126162 176.216656 Z M 267.014098 191.938304 L 420.007819 191.938304 L 420.007819 208.11471 L 267.014098 208.11471 Z M 267.014098 191.938304 " transform="matrix(-0.000000000000000011, -0.0601281, 0.0601281, -0.000000000000000011, -10.306507, 37.25817)"/>
<path fill-rule="evenodd" fill="rgb(100%, 100%, 100%)" fill-opacity="1" stroke-width="2" stroke-linecap="butt" stroke-linejoin="miter" stroke="rgb(40%, 40%, 40%)" stroke-opacity="1" stroke-miterlimit="4" d="M 444.327751 199.994024 C 444.327751 211.038157 436.153838 220.003394 426.130353 220.003394 C 416.106869 220.003394 407.932955 211.038157 407.932955 199.994024 C 407.932955 188.949892 416.106869 179.984654 426.130353 179.984654 C 436.153838 179.984654 444.327751 188.949892 444.327751 199.994024 Z M 444.327751 199.994024 " transform="matrix(-0.000000000000000012, -0.0654712, 0.0601281, -0.000000000000000011, -10.306507, 39.637565)"/>
<path fill-rule="evenodd" fill="rgb(98.039216%, 1.176471%, 1.176471%)" fill-opacity="1" stroke-width="1.68028" stroke-linecap="butt" stroke-linejoin="miter" stroke="rgb(40%, 40%, 40%)" stroke-opacity="1" stroke-miterlimit="4" d="M 423.45099 176.216656 C 410.587823 176.541484 400.258311 187.065892 400.258311 199.994024 C 400.258311 213.117053 410.977616 223.836358 424.100645 223.836358 C 437.223673 223.836358 447.878013 213.117053 447.878013 199.994024 C 447.878013 186.870996 437.223673 176.216656 424.100645 176.216656 C 423.905748 176.216656 423.645886 176.151691 423.45099 176.216656 Z M 423.126162 183.882584 C 423.45099 183.882584 423.775817 183.882584 424.100645 183.882584 C 433.000916 183.882584 440.212085 191.093753 440.212085 199.994024 C 440.212085 208.894296 433.000916 216.105465 424.100645 216.105465 C 415.200373 216.105465 407.989204 208.894296 407.989204 199.994024 C 407.989204 191.41858 414.680649 184.337342 423.126162 183.882584 Z M 423.126162 183.882584 " transform="matrix(-0.000000000000000011, -0.0601281, 0.0601281, -0.000000000000000011, -10.306507, 37.25817)"/>
<path fill-rule="evenodd" fill="rgb(98.039216%, 1.176471%, 1.176471%)" fill-opacity="1" d="M 1.15625 13.394531 L 1.15625 12.761719 L 0.886719 12.523438 L 0.886719 13.394531 Z M 1.15625 13.394531 "/>
<path fill-rule="evenodd" fill="rgb(98.039216%, 1.176471%, 1.176471%)" fill-opacity="1" d="M 2.269531 13.394531 L 2.269531 12.761719 L 2.539062 12.523438 L 2.539062 13.394531 Z M 2.269531 13.394531 "/>
<path fill-rule="evenodd" fill="rgb(60%, 60%, 60%)" fill-opacity="1" stroke-width="6" stroke-linecap="butt" stroke-linejoin="miter" stroke="rgb(40%, 40%, 40%)" stroke-opacity="1" stroke-miterlimit="4" d="M 80.557203 376.929753 C 80.557203 384.790577 74.190586 391.157194 66.329762 391.157194 C 58.468938 391.157194 52.10232 384.790577 52.10232 376.929753 C 52.10232 369.068929 58.468938 362.702311 66.329762 362.702311 C 74.190586 362.702311 80.557203 369.068929 80.557203 376.929753 Z M 80.557203 376.929753 " transform="matrix(0.0601281, 0, 0, 0.0601281, 0, 0)"/>
<path fill-rule="evenodd" fill="rgb(40%, 100%, 0%)" fill-opacity="1" stroke-width="6" stroke-linecap="butt" stroke-linejoin="miter" stroke="rgb(40%, 40%, 40%)" stroke-opacity="1" stroke-miterlimit="4" d="M 80.557203 166.896335 C 80.557203 174.757159 74.190586 181.123776 66.329762 181.123776 C 58.468938 181.123776 52.10232 174.757159 52.10232 166.896335 C 52.10232 159.035511 58.468938 152.668893 66.329762 152.668893 C 74.190586 152.668893 80.557203 159.035511 80.557203 166.896335 Z M 80.557203 166.896335 " transform="matrix(0.0601281, 0, 0, 0.0601281, 0, 0)"/>
</svg>
