<?xml version="1.0" encoding="UTF-8"?>
<svg xmlns="http://www.w3.org/2000/svg" xmlns:xlink="http://www.w3.org/1999/xlink" width="9.291383" height="24" viewBox="0 0 9.291383 24">
<path fill-rule="evenodd" fill="rgb(60%, 60%, 60%)" fill-opacity="1" stroke-width="2.07737" stroke-linecap="butt" stroke-linejoin="miter" stroke="rgb(40%, 40%, 40%)" stroke-opacity="1" stroke-miterlimit="4" d="M 13.287447 104.345541 L 43.314473 104.345541 L 43.314473 399.144493 L 13.287447 399.144493 Z M 13.287447 104.345541 " transform="matrix(0.059972, 0, 0, 0.059972, 0, 0)"/>
<path fill-rule="evenodd" fill="rgb(100%, 100%, 100%)" fill-opacity="1" d="M 0.421875 7.792969 L 1.363281 8.738281 L 7.421875 2.679688 L 8.296875 2.445312 L 8.714844 2.027344 L 8.714844 1.171875 L 7.96875 0.425781 L 7.050781 0.425781 L 6.660156 0.8125 L 6.421875 1.707031 Z M 0.421875 7.792969 "/>
<path fill-rule="evenodd" fill="rgb(98.039216%, 1.176471%, 1.176471%)" fill-opacity="1" stroke-width="2" stroke-linecap="butt" stroke-linejoin="miter" stroke="rgb(40%, 40%, 40%)" stroke-opacity="1" stroke-miterlimit="4" d="M 423.116341 176.19971 C 416.115665 176.476053 409.851902 179.792162 405.660708 184.904498 L 260.028226 184.904498 L 259.982168 215.071884 L 405.706765 215.071884 C 410.03613 220.414506 416.66835 223.822729 424.083539 223.776672 C 437.209807 223.822729 447.895049 213.137487 447.895049 199.965163 C 447.895049 186.884952 437.209807 176.19971 424.083539 176.153653 C 423.899311 176.153653 423.669026 176.19971 423.484797 176.19971 C 423.392683 176.19971 423.208455 176.19971 423.116341 176.19971 Z M 267.028901 191.905174 L 420.030517 191.905174 L 419.984459 208.071209 L 266.982844 208.071209 Z M 267.028901 191.905174 " transform="matrix(0.0424066, -0.0424066, 0.0424066, 0.0424066, -18.782155, 10.990431)"/>
<path fill-rule="evenodd" fill="rgb(100%, 100%, 100%)" fill-opacity="1" stroke-width="2" stroke-linecap="butt" stroke-linejoin="miter" stroke="rgb(40%, 40%, 40%)" stroke-opacity="1" stroke-miterlimit="4" d="M 444.342991 200.01122 C 444.300693 211.018862 436.137117 219.999992 426.154713 219.999992 C 416.087712 219.999992 407.966434 211.064919 407.966434 200.01122 C 407.966434 188.957521 416.087712 180.022448 426.154713 180.022448 C 436.179415 179.976391 444.342991 188.957521 444.342991 200.01122 Z M 444.342991 200.01122 " transform="matrix(0.046175, -0.046175, 0.0424066, 0.0424066, -20.460275, 12.66855)"/>
<path fill-rule="evenodd" fill="rgb(98.039216%, 1.176471%, 1.176471%)" fill-opacity="1" stroke-width="1.68028" stroke-linecap="butt" stroke-linejoin="miter" stroke="rgb(40%, 40%, 40%)" stroke-opacity="1" stroke-miterlimit="4" d="M 423.484797 176.19971 C 410.634872 176.52211 400.27203 187.069181 400.27203 199.965163 C 400.27203 213.137487 410.957272 223.822729 424.083539 223.776672 C 437.209807 223.822729 447.895049 213.137487 447.895049 199.965163 C 447.895049 186.884952 437.209807 176.19971 424.083539 176.153653 C 423.899311 176.153653 423.669026 176.19971 423.484797 176.19971 Z M 423.162398 183.891242 C 423.484797 183.845185 423.807197 183.891242 424.083539 183.891242 C 433.018613 183.891242 440.203517 191.076147 440.203517 200.01122 C 440.249574 208.900236 433.018613 216.131197 424.083539 216.131197 C 415.148466 216.131197 407.963562 208.946293 407.963562 200.01122 C 407.963562 191.444603 414.687895 184.351813 423.162398 183.891242 Z M 423.162398 183.891242 " transform="matrix(0.0424066, -0.0424066, 0.0424066, 0.0424066, -18.782155, 10.990431)"/>
<path fill-rule="evenodd" fill="rgb(98.039216%, 1.176471%, 1.176471%)" fill-opacity="1" d="M 6.132812 2.242188 L 6.578125 1.796875 L 6.554688 1.441406 L 5.941406 2.054688 Z M 6.132812 2.242188 "/>
<path fill-rule="evenodd" fill="rgb(98.039216%, 1.176471%, 1.176471%)" fill-opacity="1" d="M 6.917969 3.03125 L 7.363281 2.582031 L 7.722656 2.605469 L 7.105469 3.21875 Z M 6.917969 3.03125 "/>
<path fill-rule="evenodd" fill="rgb(100%, 100%, 100%)" fill-opacity="1" d="M 0.539062 20.554688 L 1.484375 21.5 L 7.542969 15.441406 L 8.414062 15.210938 L 8.835938 14.789062 L 8.835938 13.933594 L 8.089844 13.1875 L 7.171875 13.1875 L 6.78125 13.574219 L 6.542969 14.46875 Z M 0.539062 20.554688 "/>
<path fill-rule="evenodd" fill="rgb(98.039216%, 1.176471%, 1.176471%)" fill-opacity="1" stroke-width="2" stroke-linecap="butt" stroke-linejoin="miter" stroke="rgb(40%, 40%, 40%)" stroke-opacity="1" stroke-miterlimit="4" d="M 423.135242 176.195673 C 416.134566 176.472015 409.870803 179.788125 405.679609 184.900461 L 260.00107 184.946518 L 260.00107 215.067847 L 405.679609 215.113904 C 410.055032 220.410468 416.687251 223.818692 424.056383 223.818692 C 437.228708 223.818692 447.91395 213.13345 447.867893 200.007183 C 447.91395 186.880915 437.228708 176.195673 424.056383 176.195673 C 423.872155 176.195673 423.687927 176.195673 423.503699 176.195673 C 423.31947 176.195673 423.227356 176.195673 423.135242 176.195673 Z M 267.001746 191.947194 L 420.003361 191.947194 L 420.003361 208.067171 L 267.001746 208.067171 Z M 267.001746 191.947194 " transform="matrix(0.0424066, -0.0424066, 0.0424066, 0.0424066, -18.661692, 23.753122)"/>
<path fill-rule="evenodd" fill="rgb(100%, 100%, 100%)" fill-opacity="1" stroke-width="2" stroke-linecap="butt" stroke-linejoin="miter" stroke="rgb(40%, 40%, 40%)" stroke-opacity="1" stroke-miterlimit="4" d="M 444.318051 199.961126 C 444.318051 211.014824 436.154475 219.995955 426.172071 219.995955 C 416.105071 219.995955 407.941494 211.014824 407.983793 200.007183 C 407.983793 188.953484 416.105071 180.01841 426.129773 179.972353 C 436.154475 180.01841 444.318051 188.999541 444.318051 199.961126 Z M 444.318051 199.961126 " transform="matrix(0.046175, -0.046175, 0.0424066, 0.0424066, -20.339811, 25.431242)"/>
<path fill-rule="evenodd" fill="rgb(98.039216%, 1.176471%, 1.176471%)" fill-opacity="1" stroke-width="1.68028" stroke-linecap="butt" stroke-linejoin="miter" stroke="rgb(40%, 40%, 40%)" stroke-opacity="1" stroke-miterlimit="4" d="M 423.503699 176.195673 C 410.607717 176.472015 400.290931 187.065144 400.244874 200.007183 C 400.290931 213.13345 410.976173 223.818692 424.056383 223.818692 C 437.228708 223.818692 447.91395 213.13345 447.867893 200.007183 C 447.91395 186.880915 437.228708 176.195673 424.056383 176.195673 C 423.872155 176.195673 423.687927 176.195673 423.503699 176.195673 Z M 423.181299 183.887205 C 423.457641 183.887205 423.780041 183.841148 424.102441 183.887205 C 432.991457 183.841148 440.222418 191.072109 440.222418 200.007183 C 440.222418 208.942256 433.037514 216.12716 424.102441 216.12716 C 415.167367 216.12716 407.936406 208.896199 407.982463 200.007183 C 407.936406 191.394509 414.706797 184.347776 423.181299 183.887205 Z M 423.181299 183.887205 " transform="matrix(0.0424066, -0.0424066, 0.0424066, 0.0424066, -18.661692, 23.753122)"/>
<path fill-rule="evenodd" fill="rgb(98.039216%, 1.176471%, 1.176471%)" fill-opacity="1" d="M 6.253906 15.007812 L 6.699219 14.5625 L 6.675781 14.203125 L 6.0625 14.816406 Z M 6.253906 15.007812 "/>
<path fill-rule="evenodd" fill="rgb(98.039216%, 1.176471%, 1.176471%)" fill-opacity="1" d="M 7.039062 15.792969 L 7.484375 15.347656 L 7.84375 15.367188 L 7.226562 15.980469 Z M 7.039062 15.792969 "/>
<path fill-rule="evenodd" fill="rgb(100%, 80%, 0%)" fill-opacity="1" stroke-width="6" stroke-linecap="butt" stroke-linejoin="miter" stroke="rgb(40%, 40%, 40%)" stroke-opacity="1" stroke-miterlimit="4" d="M 80.571432 376.933613 C 80.571432 384.749758 74.188247 391.132944 66.372102 391.132944 C 58.490822 391.132944 52.107636 384.749758 52.107636 376.933613 C 52.107636 369.052333 58.490822 362.669147 66.372102 362.669147 C 74.188247 362.669147 80.571432 369.052333 80.571432 376.933613 Z M 80.571432 376.933613 " transform="matrix(0.059972, 0, 0, 0.059972, 0, 0)"/>
<path fill-rule="evenodd" fill="rgb(40%, 100%, 0%)" fill-opacity="1" stroke-width="6" stroke-linecap="butt" stroke-linejoin="miter" stroke="rgb(40%, 40%, 40%)" stroke-opacity="1" stroke-miterlimit="4" d="M 80.571432 166.939839 C 80.571432 174.755985 74.188247 181.13917 66.372102 181.13917 C 58.490822 181.13917 52.107636 174.755985 52.107636 166.939839 C 52.107636 159.058559 58.490822 152.675374 66.372102 152.675374 C 74.188247 152.675374 80.571432 159.058559 80.571432 166.939839 Z M 80.571432 166.939839 " transform="matrix(0.059972, 0, 0, 0.059972, 0, 0)"/>
</svg>
