<?xml version="1.0" encoding="UTF-8"?>
<svg xmlns="http://www.w3.org/2000/svg" xmlns:xlink="http://www.w3.org/1999/xlink" width="6" height="24" viewBox="0 0 6 24">
<rect x="-0.6" y="-2.4" width="7.2" height="28.8" fill="rgb(0%, 0%, 0%)" fill-opacity="1"/>
<path fill-rule="nonzero" fill="rgb(100%, 100%, 100%)" fill-opacity="1" d="M 0.148438 0.148438 L 5.851562 0.148438 L 5.851562 0.679688 L 0.148438 3.96875 Z M 0.148438 0.148438 "/>
<path fill-rule="nonzero" fill="rgb(100%, 100%, 100%)" fill-opacity="1" d="M 5.851562 16.796875 L 5.851562 23.851562 L 0.148438 23.851562 L 0.148438 20.085938 "/>
<path fill-rule="nonzero" fill="rgb(100%, 100%, 100%)" fill-opacity="1" d="M 0.148438 15.40625 L 0.148438 18.003906 L 5.851562 14.714844 L 5.851562 12.117188 Z M 0.148438 15.40625 "/>
<path fill-rule="nonzero" fill="rgb(100%, 100%, 100%)" fill-opacity="1" d="M 0.148438 10.71875 L 0.148438 13.320312 L 5.851562 10.03125 L 5.851562 7.433594 Z M 0.148438 10.71875 "/>
<path fill-rule="nonzero" fill="rgb(100%, 100%, 100%)" fill-opacity="1" d="M 0.148438 6.046875 L 0.148438 8.644531 L 5.851562 5.359375 L 5.851562 2.757812 Z M 0.148438 6.046875 "/>
<path fill-rule="nonzero" fill="rgb(73.333333%, 12.156863%, 6.666667%)" fill-opacity="1" d="M 2.484375 19.890625 L 5.152344 10.515625 L 1.90625 12.382812 L 4.6875 3.023438 L 3.347656 3.378906 L 0.90625 13.65625 L 4.222656 11.738281 L 2.1875 19.8125 L 1.757812 19.695312 L 1.949219 21.300781 L 2.921875 20.007812 Z M 2.484375 19.890625 "/>
</svg>
