<?xml version="1.0" encoding="UTF-8"?>
<svg xmlns="http://www.w3.org/2000/svg" xmlns:xlink="http://www.w3.org/1999/xlink" width="14.349135" height="20" viewBox="0 0 14.349135 20">
<path fill-rule="evenodd" fill="rgb(100%, 100%, 100%)" fill-opacity="1" stroke-width="0.25" stroke-linecap="butt" stroke-linejoin="miter" stroke="rgb(0%, 0%, 0%)" stroke-opacity="1" stroke-miterlimit="4" d="M 9.750666 -1.498826 L 8.249584 -0.498104 L 10.872687 3.3759 L 2.002657 16.127515 L 0.721431 14.315603 L -0.719001 15.376974 L 0.90338 17.719571 L -0.749326 20.092493 L 0.751756 21.12354 L 2.002657 19.281303 L 5.906986 24.936894 L -1.750047 35.937247 L -0.248966 36.968293 L 6.998682 26.498626 L 10.903011 32.123892 L 8.249584 35.937247 L 9.750666 36.937968 L 12.002289 33.685624 L 14.24633 36.968293 L 15.747412 35.937247 L 13.093984 32.123892 L 16.998314 26.498626 L 24.253543 36.968293 L 25.747043 35.937247 L 18.090009 24.906569 L 21.971595 19.341953 L 23.283146 21.12354 L 24.715997 20.062169 L 23.032966 17.810546 L 23.093616 17.719571 L 24.746322 15.346649 L 23.252821 14.315603 L 22.00192 16.127515 L 13.093984 3.31525 L 15.747412 -0.498104 L 14.24633 -1.498826 L 12.002289 1.753519 L 11.971964 1.814168 Z M 12.002289 4.937632 L 15.906618 10.562898 L 12.032613 16.157839 L 8.128284 10.532573 L 11.934058 4.998281 Z M 6.998682 12.12463 L 10.903011 17.749896 L 6.998682 23.344838 L 3.094353 17.719571 L 3.124678 17.689246 Z M 16.998314 12.12463 L 20.902643 17.719571 L 20.841993 17.810546 L 16.998314 23.314513 L 13.124309 17.719571 Z M 12.002289 19.311628 L 15.876293 24.906569 L 12.002289 30.501511 L 8.128284 24.906569 Z M 12.002289 19.311628 " transform="matrix(0.515253, 0, 0, 0.515253, 0.991562, 0.862119)"/>
<path fill-rule="evenodd" fill="rgb(0%, 0%, 0%)" fill-opacity="1" d="M 8.332031 0.0898438 L 7.175781 1.765625 L 7.175781 3.40625 L 9.1875 6.304688 L 7.191406 9.1875 L 7.175781 9.171875 L 7.175781 10.8125 L 9.171875 13.695312 L 7.175781 16.578125 L 7.175781 18.21875 L 8.332031 19.910156 L 9.105469 19.378906 L 7.738281 17.414062 L 9.75 14.515625 L 13.488281 19.910156 L 14.257812 19.378906 L 10.3125 13.695312 L 12.3125 10.828125 L 12.988281 11.746094 L 13.726562 11.199219 L 12.859375 10.039062 L 12.890625 9.992188 L 13.742188 8.769531 L 12.972656 8.238281 L 12.328125 9.171875 L 7.738281 2.570312 L 9.105469 0.605469 Z M 9.75 7.109375 L 11.761719 9.992188 L 11.730469 10.039062 L 9.75 12.875 L 7.753906 9.992188 Z M 9.75 7.109375 "/>
</svg>
