<?xml version="1.0" encoding="UTF-8"?>
<svg xmlns="http://www.w3.org/2000/svg" xmlns:xlink="http://www.w3.org/1999/xlink" width="7.619047" height="20" viewBox="0 0 7.619047 20">
<path fill-rule="nonzero" fill="rgb(0%, 0%, 0%)" fill-opacity="1" d="M 0 0 L 7.617188 0 L 7.617188 20 L 0 20 Z M 0 0 "/>
<path fill-rule="nonzero" fill="rgb(100%, 100%, 100%)" fill-opacity="1" d="M 3.324219 11.25 L 4.292969 11.25 L 4.292969 16.8125 L 5.019531 16.8125 L 3.808594 18.992188 L 2.601562 16.8125 L 3.324219 16.8125 Z M 3.324219 11.25 "/>
<path fill-rule="nonzero" fill="rgb(100%, 100%, 100%)" fill-opacity="1" d="M 1.875 1.25 L 2.84375 1.25 L 2.84375 6.8125 L 3.566406 6.8125 L 2.359375 8.992188 L 1.148438 6.8125 L 1.875 6.8125 Z M 1.875 1.25 "/>
<path fill-rule="nonzero" fill="rgb(100%, 100%, 100%)" fill-opacity="1" d="M 4.777344 1.25 L 5.746094 1.25 L 5.746094 6.8125 L 6.46875 6.8125 L 5.261719 8.992188 L 4.050781 6.8125 L 4.777344 6.8125 Z M 4.777344 1.25 "/>
</svg>
