<?xml version="1.0" encoding="UTF-8"?>
<svg xmlns="http://www.w3.org/2000/svg" xmlns:xlink="http://www.w3.org/1999/xlink" width="16" height="16" viewBox="0 0 16 16">
<path fill-rule="nonzero" fill="rgb(0%, 0%, 0%)" fill-opacity="1" stroke-width="1" stroke-linecap="round" stroke-linejoin="miter" stroke="rgb(0%, 0%, 0%)" stroke-opacity="1" stroke-miterlimit="4" d="M 0.498916 0.498916 L 15.719825 0.498916 L 15.719825 15.719825 L 0.498916 15.719825 Z M 0.498916 0.498916 " transform="matrix(0.986513, 0, 0, 0.986513, 0, 0)"/>
<path fill-rule="nonzero" fill="rgb(100%, 100%, 100%)" fill-opacity="1" d="M 12.769531 10.167969 L 12.769531 5.839844 C 12.769531 5.351562 12.636719 4.96875 12.371094 4.691406 C 12.113281 4.417969 11.765625 4.28125 11.335938 4.28125 C 10.902344 4.28125 10.558594 4.417969 10.296875 4.691406 C 10.035156 4.96875 9.902344 5.351562 9.902344 5.839844 L 9.902344 10.167969 C 9.902344 10.660156 10.035156 11.046875 10.296875 11.320312 C 10.558594 11.589844 10.902344 11.726562 11.335938 11.726562 C 11.765625 11.726562 12.113281 11.589844 12.371094 11.320312 C 12.636719 11.046875 12.769531 10.660156 12.769531 10.167969 Z M 8.441406 10.25 L 8.441406 5.753906 C 8.441406 4.820312 8.738281 4.097656 9.324219 3.585938 C 9.910156 3.074219 10.582031 2.820312 11.335938 2.820312 C 12.089844 2.820312 12.757812 3.074219 13.34375 3.585938 C 13.9375 4.097656 14.234375 4.820312 14.234375 5.753906 L 14.234375 10.25 C 14.234375 11.1875 13.9375 11.910156 13.34375 12.417969 C 12.757812 12.925781 12.089844 13.179688 11.335938 13.179688 C 10.582031 13.179688 9.910156 12.925781 9.324219 12.417969 C 8.738281 11.910156 8.441406 11.1875 8.441406 10.25 Z M 8.441406 10.25 "/>
<path fill-rule="nonzero" fill="rgb(100%, 100%, 100%)" fill-opacity="1" d="M 1.765625 13.140625 L 1.765625 11.769531 L 5.753906 6.785156 C 5.90625 6.585938 6.007812 6.40625 6.054688 6.246094 C 6.101562 6.082031 6.125 5.921875 6.125 5.769531 C 6.125 5.414062 5.996094 5.085938 5.746094 4.785156 C 5.496094 4.476562 5.152344 4.320312 4.71875 4.320312 C 4.320312 4.320312 3.980469 4.453125 3.699219 4.71875 C 3.417969 4.980469 3.261719 5.339844 3.230469 5.796875 L 1.765625 5.796875 C 1.773438 4.972656 2.054688 4.277344 2.613281 3.714844 C 3.171875 3.144531 3.835938 2.859375 4.605469 2.859375 C 5.453125 2.859375 6.160156 3.148438 6.726562 3.71875 C 7.292969 4.289062 7.578125 4.976562 7.578125 5.785156 C 7.578125 6.472656 7.375 7.070312 6.96875 7.574219 L 3.691406 11.683594 L 7.578125 11.683594 L 7.578125 13.140625 Z M 1.765625 13.140625 "/>
</svg>
