<?xml version="1.0" encoding="UTF-8"?>
<svg xmlns="http://www.w3.org/2000/svg" xmlns:xlink="http://www.w3.org/1999/xlink" width="16" height="16" viewBox="0 0 16 16">
<path fill-rule="nonzero" fill="rgb(0%, 0%, 0%)" fill-opacity="1" stroke-width="1" stroke-linecap="round" stroke-linejoin="miter" stroke="rgb(0%, 0%, 0%)" stroke-opacity="1" stroke-miterlimit="4" d="M 0.498917 0.498917 L 15.719833 0.498917 L 15.719833 15.719833 L 0.498917 15.719833 Z M 0.498917 0.498917 " transform="matrix(0.986513, 0, 0, 0.986513, 0, 0)"/>
<path fill-rule="nonzero" fill="rgb(100%, 100%, 100%)" fill-opacity="1" d="M 4.105469 13.625 L 4.105469 4.078125 L 2.5 5.25 L 2.5 3.539062 L 4.105469 2.375 L 5.722656 2.375 L 5.722656 13.625 Z M 4.105469 13.625 "/>
<path fill-rule="nonzero" fill="rgb(100%, 100%, 100%)" fill-opacity="1" d="M 9.726562 13.726562 C 9.113281 13.589844 8.621094 13.371094 8.257812 13.070312 C 7.898438 12.773438 7.566406 12.363281 7.269531 11.839844 C 7.207031 11.664062 7.167969 11.539062 7.144531 11.46875 C 7.132812 11.398438 7.09375 11.230469 7.039062 10.96875 C 7.027344 10.894531 7.019531 10.8125 7.015625 10.722656 C 7.011719 10.625 7.007812 10.398438 7.007812 10.050781 C 7.007812 9.695312 7.007812 9.15625 7.007812 8.433594 C 7.007812 7.707031 7.007812 6.675781 7.007812 5.339844 C 7.101562 4.554688 7.328125 3.9375 7.695312 3.492188 C 8.058594 3.042969 8.601562 2.667969 9.320312 2.359375 C 10.578125 2.101562 11.71875 2.421875 12.742188 3.320312 C 13.199219 3.902344 13.449219 4.652344 13.496094 5.566406 C 13.21875 5.566406 12.945312 5.566406 12.671875 5.566406 C 12.40625 5.566406 12.136719 5.566406 11.871094 5.566406 C 11.777344 5.039062 11.640625 4.671875 11.460938 4.460938 C 11.289062 4.246094 10.941406 4.058594 10.421875 3.898438 C 9.894531 3.898438 9.488281 3.988281 9.203125 4.171875 C 8.925781 4.34375 8.71875 4.6875 8.578125 5.195312 C 8.574219 5.605469 8.570312 6.015625 8.5625 6.429688 C 8.5625 6.839844 8.5625 7.246094 8.5625 7.652344 C 9.269531 7.246094 9.996094 7.023438 10.746094 6.976562 C 11.5 6.925781 12.195312 7.214844 12.828125 7.847656 C 13.195312 8.3125 13.40625 8.820312 13.457031 9.363281 C 13.515625 9.902344 13.511719 10.464844 13.449219 11.050781 C 13.265625 11.878906 12.953125 12.484375 12.519531 12.871094 C 12.085938 13.257812 11.464844 13.542969 10.652344 13.726562 C 10.5 13.726562 10.34375 13.726562 10.191406 13.726562 C 10.035156 13.726562 9.882812 13.726562 9.726562 13.726562 Z M 10.042969 12.117188 C 10.890625 12.117188 11.4375 11.816406 11.679688 11.214844 C 11.925781 10.613281 11.917969 9.949219 11.65625 9.226562 C 11.414062 8.886719 11.167969 8.671875 10.921875 8.585938 C 10.675781 8.5 10.355469 8.457031 9.960938 8.457031 C 9.375 8.613281 9.011719 8.875 8.871094 9.234375 C 8.734375 9.589844 8.664062 10.039062 8.664062 10.589844 C 8.738281 11.082031 8.863281 11.433594 9.050781 11.636719 C 9.234375 11.84375 9.566406 12.003906 10.042969 12.117188 Z M 10.042969 12.117188 "/>
</svg>
