<?xml version="1.0" encoding="UTF-8"?>
<svg xmlns="http://www.w3.org/2000/svg" xmlns:xlink="http://www.w3.org/1999/xlink" width="16" height="16" viewBox="0 0 16 16">
<path fill-rule="nonzero" fill="rgb(0%, 0%, 0%)" fill-opacity="1" stroke-width="1" stroke-linecap="round" stroke-linejoin="miter" stroke="rgb(0%, 0%, 0%)" stroke-opacity="1" stroke-miterlimit="4" d="M 0.498917 0.498917 L 15.719833 0.498917 L 15.719833 15.719833 L 0.498917 15.719833 Z M 0.498917 0.498917 " transform="matrix(0.986513, 0, 0, 0.986513, 0, 0)"/>
<path fill-rule="nonzero" fill="rgb(100%, 100%, 100%)" fill-opacity="1" d="M 6.390625 5.511719 C 6.390625 6.039062 6.554688 6.441406 6.882812 6.714844 C 7.214844 6.984375 7.589844 7.121094 8 7.121094 C 8.410156 7.121094 8.78125 6.984375 9.109375 6.714844 C 9.445312 6.441406 9.609375 6.039062 9.609375 5.511719 C 9.609375 4.988281 9.445312 4.589844 9.109375 4.316406 C 8.78125 4.039062 8.410156 3.898438 8 3.898438 C 7.589844 3.898438 7.214844 4.039062 6.882812 4.316406 C 6.554688 4.589844 6.390625 4.988281 6.390625 5.511719 Z M 4.578125 10.34375 C 4.578125 9.25 5.019531 8.40625 5.902344 7.816406 C 5.570312 7.515625 5.296875 7.1875 5.085938 6.828125 C 4.882812 6.464844 4.777344 6.035156 4.777344 5.542969 C 4.777344 4.636719 5.085938 3.867188 5.703125 3.238281 C 6.324219 2.605469 7.089844 2.289062 8 2.289062 C 8.910156 2.289062 9.671875 2.605469 10.289062 3.238281 C 10.910156 3.867188 11.222656 4.636719 11.222656 5.542969 C 11.222656 6.035156 11.117188 6.464844 10.90625 6.828125 C 10.695312 7.1875 10.429688 7.515625 10.105469 7.816406 C 10.984375 8.410156 11.421875 9.253906 11.421875 10.34375 C 11.421875 11.339844 11.082031 12.152344 10.40625 12.777344 C 9.730469 13.398438 8.929688 13.710938 8 13.710938 C 7.066406 13.710938 6.261719 13.398438 5.585938 12.777344 C 4.914062 12.152344 4.578125 11.339844 4.578125 10.34375 Z M 6.1875 10.328125 C 6.1875 10.839844 6.367188 11.269531 6.726562 11.605469 C 7.09375 11.941406 7.515625 12.109375 8 12.109375 C 8.476562 12.109375 8.898438 11.941406 9.265625 11.605469 C 9.632812 11.269531 9.820312 10.839844 9.820312 10.328125 C 9.820312 9.8125 9.632812 9.386719 9.265625 9.046875 C 8.898438 8.710938 8.476562 8.539062 8 8.539062 C 7.515625 8.539062 7.09375 8.710938 6.726562 9.046875 C 6.367188 9.386719 6.1875 9.8125 6.1875 10.328125 Z M 6.1875 10.328125 "/>
</svg>
