<?xml version="1.0" encoding="UTF-8"?>
<svg xmlns="http://www.w3.org/2000/svg" xmlns:xlink="http://www.w3.org/1999/xlink" width="16" height="16" viewBox="0 0 16 16">
<path fill-rule="nonzero" fill="rgb(0%, 0%, 0%)" fill-opacity="1" stroke-width="1" stroke-linecap="round" stroke-linejoin="miter" stroke="rgb(0%, 0%, 0%)" stroke-opacity="1" stroke-miterlimit="4" d="M 0.498916 0.498916 L 15.719825 0.498916 L 15.719825 15.719825 L 0.498916 15.719825 Z M 0.498916 0.498916 " transform="matrix(0.986513, 0, 0, 0.986513, 0, 0)"/>
<path fill-rule="nonzero" fill="rgb(100%, 100%, 100%)" fill-opacity="1" d="M 7.277344 8.539062 L 7.277344 7.121094 L 7.832031 7.121094 C 8.363281 7.121094 8.785156 6.972656 9.09375 6.675781 C 9.40625 6.371094 9.566406 5.988281 9.566406 5.527344 C 9.566406 5.070312 9.402344 4.683594 9.078125 4.371094 C 8.753906 4.054688 8.371094 3.898438 7.921875 3.898438 C 7.582031 3.898438 7.261719 4.011719 6.960938 4.238281 C 6.65625 4.464844 6.460938 4.804688 6.375 5.257812 L 4.761719 5.257812 C 4.824219 4.464844 5.15625 3.773438 5.757812 3.183594 C 6.359375 2.585938 7.058594 2.289062 7.859375 2.289062 C 8.863281 2.289062 9.664062 2.621094 10.265625 3.285156 C 10.871094 3.941406 11.175781 4.679688 11.175781 5.496094 C 11.175781 5.925781 11.089844 6.347656 10.921875 6.757812 C 10.75 7.164062 10.433594 7.515625 9.972656 7.816406 C 10.445312 8.117188 10.785156 8.492188 10.992188 8.933594 C 11.195312 9.375 11.296875 9.820312 11.296875 10.273438 C 11.296875 11.320312 10.96875 12.15625 10.3125 12.777344 C 9.65625 13.398438 8.847656 13.710938 7.890625 13.710938 C 7.132812 13.710938 6.445312 13.46875 5.835938 12.980469 C 5.226562 12.484375 4.851562 11.769531 4.703125 10.828125 L 6.3125 10.828125 C 6.460938 11.214844 6.660156 11.523438 6.914062 11.761719 C 7.164062 11.992188 7.523438 12.109375 7.984375 12.109375 C 8.429688 12.109375 8.828125 11.953125 9.171875 11.636719 C 9.515625 11.320312 9.6875 10.882812 9.6875 10.328125 C 9.6875 9.765625 9.515625 9.332031 9.171875 9.015625 C 8.832031 8.699219 8.425781 8.539062 7.953125 8.539062 Z M 7.277344 8.539062 "/>
</svg>
