<?xml version="1.0" encoding="UTF-8"?>
<svg xmlns="http://www.w3.org/2000/svg" xmlns:xlink="http://www.w3.org/1999/xlink" width="17.142858" height="16" viewBox="0 0 17.142858 16">
<path fill-rule="nonzero" fill="rgb(0%, 0%, 0%)" fill-opacity="1" d="M 0 0 L 17.144531 0 L 17.144531 16 L 0 16 Z M 0 0 "/>
<path fill-rule="nonzero" fill="rgb(100%, 100%, 100%)" fill-opacity="1" d="M 1.523438 1.90625 L 1.523438 14.855469 L 3.046875 14.855469 L 3.046875 1.90625 L 2.285156 1.144531 Z M 1.523438 1.90625 "/>
<path fill-rule="nonzero" fill="rgb(100%, 100%, 100%)" fill-opacity="1" d="M 8 1.144531 L 7.238281 1.90625 L 8 2.667969 L 14.09375 2.667969 L 14.09375 7.238281 L 8 7.238281 L 6.476562 8.761719 L 6.476562 13.332031 L 8 14.855469 L 14.09375 14.855469 L 14.855469 14.09375 L 14.09375 13.332031 L 8 13.332031 L 8 8.761719 L 14.09375 8.761719 L 15.617188 7.238281 L 15.617188 2.667969 L 14.09375 1.144531 Z M 8 1.144531 "/>
</svg>
