<?xml version="1.0" encoding="UTF-8"?>
<svg xmlns="http://www.w3.org/2000/svg" xmlns:xlink="http://www.w3.org/1999/xlink" width="16" height="16" viewBox="0 0 16 16">
<path fill-rule="nonzero" fill="rgb(0%, 0%, 0%)" fill-opacity="1" stroke-width="1" stroke-linecap="round" stroke-linejoin="miter" stroke="rgb(0%, 0%, 0%)" stroke-opacity="1" stroke-miterlimit="4" d="M 0.498917 0.498917 L 15.719833 0.498917 L 15.719833 15.719833 L 0.498917 15.719833 Z M 0.498917 0.498917 " transform="matrix(0.986513, 0, 0, 0.986513, 0, 0)"/>
<path fill-rule="nonzero" fill="rgb(100%, 100%, 100%)" fill-opacity="1" d="M 8.535156 2.273438 C 9.140625 2.421875 9.625 2.644531 9.984375 2.941406 C 10.347656 3.234375 10.683594 3.644531 10.984375 4.167969 C 11.042969 4.347656 11.078125 4.472656 11.09375 4.546875 C 11.113281 4.617188 11.15625 4.78125 11.214844 5.039062 C 11.222656 5.117188 11.226562 5.203125 11.230469 5.300781 C 11.238281 5.394531 11.238281 5.617188 11.238281 5.972656 C 11.238281 6.320312 11.238281 6.859375 11.238281 7.589844 C 11.246094 8.316406 11.246094 9.34375 11.246094 10.671875 C 11.148438 11.460938 10.917969 12.078125 10.554688 12.523438 C 10.195312 12.96875 9.652344 13.34375 8.933594 13.640625 C 7.675781 13.898438 6.535156 13.582031 5.511719 12.691406 C 5.050781 12.105469 4.796875 11.355469 4.757812 10.441406 C 5.023438 10.441406 5.292969 10.441406 5.566406 10.441406 C 5.839844 10.441406 6.109375 10.441406 6.382812 10.441406 C 6.476562 10.964844 6.609375 11.335938 6.785156 11.550781 C 6.960938 11.769531 7.308594 11.953125 7.832031 12.105469 C 8.355469 12.105469 8.757812 12.019531 9.035156 11.84375 C 9.316406 11.671875 9.53125 11.324219 9.675781 10.8125 C 9.675781 10.40625 9.675781 9.996094 9.683594 9.585938 C 9.6875 9.175781 9.691406 8.765625 9.691406 8.355469 C 8.980469 8.757812 8.25 8.988281 7.492188 9.039062 C 6.742188 9.089844 6.054688 8.796875 5.429688 8.160156 C 5.058594 7.699219 4.84375 7.195312 4.789062 6.652344 C 4.738281 6.105469 4.742188 5.539062 4.804688 4.953125 C 4.984375 4.132812 5.289062 3.527344 5.722656 3.144531 C 6.15625 2.753906 6.785156 2.464844 7.601562 2.273438 C 7.753906 2.273438 7.910156 2.273438 8.0625 2.273438 C 8.21875 2.273438 8.375 2.273438 8.535156 2.273438 Z M 8.210938 3.898438 C 7.355469 3.898438 6.808594 4.199219 6.570312 4.800781 C 6.328125 5.402344 6.335938 6.0625 6.597656 6.78125 C 6.835938 7.121094 7.078125 7.332031 7.324219 7.421875 C 7.570312 7.507812 7.894531 7.550781 8.296875 7.550781 C 8.875 7.398438 9.234375 7.144531 9.375 6.789062 C 9.519531 6.429688 9.589844 5.972656 9.589844 5.417969 C 9.511719 4.929688 9.382812 4.582031 9.195312 4.375 C 9.011719 4.171875 8.683594 4.011719 8.210938 3.898438 Z M 8.210938 3.898438 "/>
</svg>
