<?xml version="1.0" encoding="UTF-8"?>
<svg xmlns="http://www.w3.org/2000/svg" xmlns:xlink="http://www.w3.org/1999/xlink" width="16" height="16" viewBox="0 0 16 16">
<path fill-rule="nonzero" fill="rgb(0%, 0%, 0%)" fill-opacity="1" stroke-width="1" stroke-linecap="round" stroke-linejoin="miter" stroke="rgb(0%, 0%, 0%)" stroke-opacity="1" stroke-miterlimit="4" d="M 0.498917 0.498917 L 15.719833 0.498917 L 15.719833 15.719833 L 0.498917 15.719833 Z M 0.498917 0.498917 " transform="matrix(0.986513, 0, 0, 0.986513, 0, 0)"/>
<path fill-rule="nonzero" fill="rgb(100%, 100%, 100%)" fill-opacity="1" d="M 4.796875 13.664062 L 4.796875 12.152344 L 9.191406 6.660156 C 9.359375 6.441406 9.472656 6.246094 9.523438 6.066406 C 9.574219 5.886719 9.597656 5.710938 9.597656 5.542969 C 9.597656 5.152344 9.460938 4.789062 9.183594 4.453125 C 8.90625 4.117188 8.527344 3.945312 8.050781 3.945312 C 7.613281 3.945312 7.238281 4.09375 6.925781 4.386719 C 6.617188 4.671875 6.445312 5.070312 6.410156 5.570312 L 4.796875 5.570312 C 4.804688 4.664062 5.113281 3.898438 5.730469 3.277344 C 6.347656 2.648438 7.078125 2.335938 7.925781 2.335938 C 8.863281 2.335938 9.640625 2.652344 10.261719 3.285156 C 10.890625 3.910156 11.203125 4.667969 11.203125 5.558594 C 11.203125 6.316406 10.980469 6.976562 10.53125 7.53125 L 6.917969 12.0625 L 11.203125 12.0625 L 11.203125 13.664062 Z M 4.796875 13.664062 "/>
</svg>
