<?xml version="1.0" encoding="UTF-8"?>
<svg xmlns="http://www.w3.org/2000/svg" xmlns:xlink="http://www.w3.org/1999/xlink" width="16" height="16" viewBox="0 0 16 16">
<path fill-rule="nonzero" fill="rgb(0%, 0%, 0%)" fill-opacity="1" stroke-width="1" stroke-linecap="round" stroke-linejoin="miter" stroke="rgb(0%, 0%, 0%)" stroke-opacity="1" stroke-miterlimit="4" d="M 0.498917 0.498917 L 15.719833 0.498917 L 15.719833 15.719833 L 0.498917 15.719833 Z M 0.498917 0.498917 " transform="matrix(0.986513, 0, 0, 0.986513, 0, 0)"/>
<path fill-rule="nonzero" fill="rgb(100%, 100%, 100%)" fill-opacity="1" d="M 4.289062 13.625 L 4.289062 4.078125 L 2.683594 5.25 L 2.683594 3.539062 L 4.289062 2.375 L 5.90625 2.375 L 5.90625 13.625 Z M 4.289062 13.625 "/>
<path fill-rule="nonzero" fill="rgb(100%, 100%, 100%)" fill-opacity="1" d="M 10.601562 2.273438 C 11.207031 2.421875 11.691406 2.644531 12.050781 2.941406 C 12.417969 3.234375 12.75 3.644531 13.054688 4.167969 C 13.109375 4.347656 13.144531 4.472656 13.160156 4.546875 C 13.183594 4.617188 13.222656 4.78125 13.285156 5.039062 C 13.289062 5.117188 13.296875 5.203125 13.300781 5.300781 C 13.304688 5.394531 13.308594 5.617188 13.308594 5.972656 C 13.308594 6.320312 13.308594 6.859375 13.308594 7.589844 C 13.3125 8.316406 13.316406 9.34375 13.316406 10.671875 C 13.21875 11.460938 12.988281 12.078125 12.621094 12.523438 C 12.261719 12.96875 11.722656 13.34375 11.003906 13.640625 C 9.746094 13.898438 8.605469 13.582031 7.582031 12.691406 C 7.117188 12.105469 6.867188 11.355469 6.824219 10.441406 C 7.09375 10.441406 7.363281 10.441406 7.636719 10.441406 C 7.90625 10.441406 8.179688 10.441406 8.453125 10.441406 C 8.542969 10.964844 8.679688 11.335938 8.851562 11.550781 C 9.027344 11.769531 9.378906 11.953125 9.902344 12.105469 C 10.425781 12.105469 10.824219 12.019531 11.105469 11.84375 C 11.386719 11.671875 11.597656 11.324219 11.742188 10.8125 C 11.742188 10.40625 11.746094 9.996094 11.75 9.585938 C 11.757812 9.175781 11.757812 8.765625 11.757812 8.355469 C 11.050781 8.757812 10.316406 8.988281 9.5625 9.039062 C 8.8125 9.089844 8.125 8.796875 7.496094 8.160156 C 7.125 7.699219 6.914062 7.195312 6.855469 6.652344 C 6.804688 6.105469 6.8125 5.539062 6.871094 4.953125 C 7.050781 4.132812 7.359375 3.527344 7.789062 3.144531 C 8.226562 2.753906 8.851562 2.464844 9.671875 2.273438 C 9.824219 2.273438 9.976562 2.273438 10.132812 2.273438 C 10.285156 2.273438 10.441406 2.273438 10.601562 2.273438 Z M 10.277344 3.898438 C 9.425781 3.898438 8.878906 4.199219 8.636719 4.800781 C 8.394531 5.402344 8.40625 6.0625 8.667969 6.78125 C 8.90625 7.121094 9.144531 7.332031 9.394531 7.421875 C 9.640625 7.507812 9.964844 7.550781 10.363281 7.550781 C 10.945312 7.398438 11.304688 7.144531 11.441406 6.789062 C 11.585938 6.429688 11.660156 5.972656 11.660156 5.417969 C 11.582031 4.929688 11.449219 4.582031 11.265625 4.375 C 11.082031 4.171875 10.75 4.011719 10.277344 3.898438 Z M 10.277344 3.898438 "/>
</svg>
