<?xml version="1.0" encoding="UTF-8"?>
<svg xmlns="http://www.w3.org/2000/svg" xmlns:xlink="http://www.w3.org/1999/xlink" width="16" height="16" viewBox="0 0 16 16">
<path fill-rule="nonzero" fill="rgb(0%, 0%, 0%)" fill-opacity="1" stroke-width="1" stroke-linecap="round" stroke-linejoin="miter" stroke="rgb(0%, 0%, 0%)" stroke-opacity="1" stroke-miterlimit="4" d="M 0.498917 0.498917 L 15.719833 0.498917 L 15.719833 15.719833 L 0.498917 15.719833 Z M 0.498917 0.498917 " transform="matrix(0.986513, 0, 0, 0.986513, 0, 0)"/>
<path fill-rule="nonzero" fill="rgb(100%, 100%, 100%)" fill-opacity="1" d="M 4.160156 13.625 L 4.160156 4.078125 L 2.554688 5.25 L 2.554688 3.539062 L 4.160156 2.375 L 5.777344 2.375 L 5.777344 13.625 Z M 4.160156 13.625 "/>
<path fill-rule="nonzero" fill="rgb(100%, 100%, 100%)" fill-opacity="1" d="M 9.421875 8.539062 L 9.421875 7.121094 L 9.976562 7.121094 C 10.511719 7.121094 10.933594 6.972656 11.238281 6.675781 C 11.554688 6.371094 11.710938 5.988281 11.710938 5.527344 C 11.710938 5.070312 11.546875 4.683594 11.226562 4.371094 C 10.902344 4.054688 10.515625 3.898438 10.070312 3.898438 C 9.730469 3.898438 9.410156 4.011719 9.105469 4.238281 C 8.800781 4.464844 8.605469 4.804688 8.519531 5.257812 L 6.910156 5.257812 C 6.96875 4.464844 7.300781 3.773438 7.902344 3.183594 C 8.503906 2.585938 9.207031 2.289062 10.007812 2.289062 C 11.007812 2.289062 11.808594 2.621094 12.410156 3.285156 C 13.019531 3.941406 13.320312 4.679688 13.320312 5.496094 C 13.320312 5.925781 13.234375 6.347656 13.066406 6.757812 C 12.898438 7.164062 12.582031 7.515625 12.117188 7.816406 C 12.589844 8.117188 12.929688 8.492188 13.136719 8.933594 C 13.339844 9.375 13.445312 9.820312 13.445312 10.273438 C 13.445312 11.320312 13.117188 12.15625 12.457031 12.777344 C 11.800781 13.398438 10.992188 13.710938 10.039062 13.710938 C 9.277344 13.710938 8.589844 13.46875 7.980469 12.980469 C 7.375 12.484375 6.996094 11.769531 6.847656 10.828125 L 8.457031 10.828125 C 8.605469 11.214844 8.808594 11.523438 9.058594 11.761719 C 9.3125 11.992188 9.667969 12.109375 10.128906 12.109375 C 10.578125 12.109375 10.972656 11.953125 11.316406 11.636719 C 11.660156 11.320312 11.832031 10.882812 11.832031 10.328125 C 11.832031 9.765625 11.660156 9.332031 11.316406 9.015625 C 10.976562 8.699219 10.570312 8.539062 10.097656 8.539062 Z M 9.421875 8.539062 "/>
</svg>
