<?xml version="1.0" encoding="UTF-8"?>
<svg xmlns="http://www.w3.org/2000/svg" xmlns:xlink="http://www.w3.org/1999/xlink" width="24.5" height="14" viewBox="0 0 24.5 14">
<path fill-rule="nonzero" fill="rgb(0%, 0%, 0%)" fill-opacity="1" d="M 0 0 L 24.5 0 L 24.5 14 L 0 14 Z M 0 0 "/>
<path fill-rule="nonzero" fill="rgb(100%, 0%, 0%)" fill-opacity="1" d="M 22.019531 0.699219 C 22.019531 0.703125 19.894531 6.324219 19.894531 6.324219 L 21.585938 5.777344 L 19.945312 12.246094 L 19.601562 12.089844 L 19.777344 13.300781 L 20.667969 12.566406 L 20.328125 12.402344 L 22.582031 4.757812 L 20.898438 5.519531 L 22.75 0.777344 L 22.269531 1.132812 Z M 22.019531 0.699219 "/>
<path fill-rule="nonzero" fill="rgb(100%, 0%, 0%)" fill-opacity="1" d="M 2.730469 1.820312 L 19.53125 1.820312 L 19.53125 2.660156 L 2.730469 2.660156 Z M 2.730469 1.820312 "/>
<path fill-rule="nonzero" fill="rgb(100%, 0%, 0%)" fill-opacity="1" d="M 2.800781 3.5 L 0.699219 2.273438 L 2.800781 1.050781 Z M 2.800781 3.5 "/>
<path fill-rule="nonzero" fill="rgb(100%, 0%, 0%)" fill-opacity="1" d="M 5.347656 12.125 L 3.964844 12.125 L 3.964844 6.914062 C 3.460938 7.386719 2.863281 7.738281 2.179688 7.964844 L 2.179688 6.707031 C 2.539062 6.589844 2.933594 6.367188 3.355469 6.035156 C 3.777344 5.707031 4.070312 5.320312 4.226562 4.882812 L 5.347656 4.882812 Z M 5.347656 12.125 "/>
<path fill-rule="nonzero" fill="rgb(100%, 0%, 0%)" fill-opacity="1" d="M 9.757812 4.882812 C 10.457031 4.882812 11.003906 5.132812 11.398438 5.628906 C 11.867188 6.222656 12.101562 7.199219 12.101562 8.570312 C 12.101562 9.933594 11.863281 10.914062 11.390625 11.511719 C 11.003906 12.003906 10.457031 12.25 9.757812 12.25 C 9.054688 12.25 8.488281 11.980469 8.058594 11.441406 C 7.628906 10.902344 7.414062 9.9375 7.414062 8.554688 C 7.414062 7.195312 7.652344 6.21875 8.125 5.621094 C 8.515625 5.128906 9.058594 4.882812 9.757812 4.882812 Z M 9.757812 6.027344 C 9.589844 6.027344 9.441406 6.082031 9.308594 6.1875 C 9.179688 6.296875 9.078125 6.488281 9.003906 6.761719 C 8.910156 7.121094 8.863281 7.722656 8.863281 8.570312 C 8.863281 9.414062 8.90625 9.996094 8.992188 10.3125 C 9.074219 10.628906 9.183594 10.839844 9.3125 10.945312 C 9.441406 11.050781 9.589844 11.101562 9.757812 11.101562 C 9.925781 11.101562 10.074219 11.050781 10.207031 10.941406 C 10.335938 10.835938 10.4375 10.644531 10.511719 10.371094 C 10.605469 10.015625 10.652344 9.414062 10.652344 8.570312 C 10.652344 7.722656 10.613281 7.140625 10.527344 6.824219 C 10.441406 6.507812 10.332031 6.296875 10.203125 6.1875 C 10.074219 6.082031 9.925781 6.027344 9.757812 6.027344 Z M 9.757812 6.027344 "/>
<path fill-rule="nonzero" fill="rgb(100%, 0%, 0%)" fill-opacity="1" d="M 17.71875 6.679688 L 16.378906 6.824219 C 16.34375 6.550781 16.261719 6.347656 16.121094 6.214844 C 15.984375 6.085938 15.804688 6.019531 15.585938 6.019531 C 15.292969 6.019531 15.046875 6.148438 14.84375 6.414062 C 14.644531 6.675781 14.515625 7.222656 14.464844 8.050781 C 14.808594 7.644531 15.238281 7.441406 15.75 7.441406 C 16.324219 7.441406 16.820312 7.660156 17.230469 8.101562 C 17.644531 8.539062 17.851562 9.109375 17.851562 9.804688 C 17.851562 10.542969 17.632812 11.132812 17.199219 11.582031 C 16.765625 12.027344 16.210938 12.25 15.53125 12.25 C 14.804688 12.25 14.203125 11.96875 13.734375 11.402344 C 13.265625 10.835938 13.03125 9.90625 13.03125 8.617188 C 13.03125 7.296875 13.277344 6.34375 13.765625 5.757812 C 14.253906 5.175781 14.886719 4.882812 15.667969 4.882812 C 16.21875 4.882812 16.671875 5.035156 17.03125 5.34375 C 17.390625 5.648438 17.617188 6.09375 17.71875 6.679688 Z M 14.582031 9.695312 C 14.582031 10.144531 14.683594 10.492188 14.890625 10.738281 C 15.097656 10.980469 15.335938 11.101562 15.601562 11.101562 C 15.855469 11.101562 16.070312 11.003906 16.242188 10.804688 C 16.410156 10.601562 16.496094 10.273438 16.496094 9.820312 C 16.496094 9.347656 16.40625 9.003906 16.222656 8.789062 C 16.035156 8.570312 15.808594 8.460938 15.53125 8.460938 C 15.265625 8.460938 15.042969 8.5625 14.859375 8.773438 C 14.671875 8.980469 14.582031 9.289062 14.582031 9.695312 Z M 14.582031 9.695312 "/>
</svg>
