<?xml version="1.0" encoding="UTF-8"?>
<svg xmlns="http://www.w3.org/2000/svg" xmlns:xlink="http://www.w3.org/1999/xlink" width="16" height="16" viewBox="0 0 16 16">
<rect x="-1.6" y="-1.6" width="19.2" height="19.2" fill="rgb(0%, 0%, 0%)" fill-opacity="1"/>
<path fill-rule="nonzero" fill="rgb(100%, 100%, 100%)" fill-opacity="1" d="M 0.800781 0.800781 L 15.199219 0.800781 L 15.199219 15.199219 L 0.800781 15.199219 Z M 0.800781 0.800781 "/>
<path fill-rule="nonzero" fill="rgb(0%, 0%, 0%)" fill-opacity="1" d="M 4 2.398438 L 2.398438 5.601562 L 4 5.601562 L 4 13.597656 L 5.601562 13.597656 L 5.601562 2.398438 Z M 4 2.398438 "/>
<path fill="none" stroke-width="50" stroke-linecap="butt" stroke-linejoin="miter" stroke="rgb(0%, 0%, 0%)" stroke-opacity="1" stroke-miterlimit="4" d="M 550.046825 84.975561 L 374.998038 84.975561 L 374.998038 184.951124 L 449.949192 184.951124 C 491.453089 184.951124 525.022417 218.520452 525.022417 260.024348 L 525.022417 309.951094 C 525.022417 351.45499 491.453089 385.024318 449.949192 385.024318 C 408.567366 385.024318 374.998038 351.45499 374.998038 309.951094 " transform="matrix(0.032, 0, 0, 0.032, -3.99994, 0.48)"/>
</svg>
