<?xml version="1.0" encoding="UTF-8"?>
<svg xmlns="http://www.w3.org/2000/svg" xmlns:xlink="http://www.w3.org/1999/xlink" width="16" height="16" viewBox="0 0 16 16">
<rect x="-1.6" y="-1.6" width="19.2" height="19.2" fill="rgb(0%, 0%, 0%)" fill-opacity="1"/>
<path fill-rule="nonzero" fill="rgb(100%, 100%, 100%)" fill-opacity="1" d="M 0.800781 0.800781 L 15.199219 0.800781 L 15.199219 15.199219 L 0.800781 15.199219 Z M 0.800781 0.800781 "/>
<path fill="none" stroke-width="50" stroke-linecap="square" stroke-linejoin="miter" stroke="rgb(0%, 0%, 0%)" stroke-opacity="1" stroke-miterlimit="4" d="M 524.951299 160.048914 C 524.951299 201.430748 491.381965 235.000082 450.000131 235.000082 C 408.618297 235.000082 375.048962 201.430748 375.048962 160.048914 C 375.048962 118.54501 408.618297 84.975675 450.000131 84.975675 C 491.381965 84.975675 524.951299 118.54501 524.951299 160.048914 Z M 524.951299 160.048914 L 524.951299 160.048914 M 524.951299 160.048914 L 524.951299 160.048914 M 524.951299 160.048914 L 524.951299 160.048914 M 524.951299 160.048914 " transform="matrix(0.032, 0, 0, 0.032, -6.400005, 0.479997)"/>
<path fill="none" stroke-width="50" stroke-linecap="square" stroke-linejoin="miter" stroke="rgb(0%, 0%, 0%)" stroke-opacity="1" stroke-miterlimit="4" d="M 524.951299 309.951251 C 524.951299 351.455155 491.381965 385.024489 450.000131 385.024489 C 408.618297 385.024489 375.048962 351.455155 375.048962 309.951251 C 375.048962 268.569417 408.618297 235.000082 450.000131 235.000082 C 491.381965 235.000082 524.951299 268.569417 524.951299 309.951251 Z M 524.951299 309.951251 L 524.951299 309.951251 M 524.951299 309.951251 L 524.951299 309.951251 M 524.951299 309.951251 L 524.951299 309.951251 M 524.951299 309.951251 " transform="matrix(0.032, 0, 0, 0.032, -6.400005, 0.479997)"/>
</svg>
