<?xml version="1.0" encoding="UTF-8"?>
<svg xmlns="http://www.w3.org/2000/svg" xmlns:xlink="http://www.w3.org/1999/xlink" width="16" height="16" viewBox="0 0 16 16">
<path fill-rule="nonzero" fill="rgb(100%, 100%, 100%)" fill-opacity="1" stroke-width="1" stroke-linecap="round" stroke-linejoin="miter" stroke="rgb(0%, 0%, 0%)" stroke-opacity="1" stroke-miterlimit="4" d="M 0.498917 0.498917 L 15.719833 0.498917 L 15.719833 15.719833 L 0.498917 15.719833 Z M 0.498917 0.498917 " transform="matrix(0.986513, 0, 0, 0.986513, 0, 0)"/>
<path fill-rule="nonzero" fill="rgb(0%, 0%, 0%)" fill-opacity="1" d="M 4.234375 13.625 L 4.234375 4.078125 L 2.632812 5.25 L 2.632812 3.539062 L 4.234375 2.375 L 5.851562 2.375 L 5.851562 13.625 Z M 4.234375 13.625 "/>
<path fill-rule="nonzero" fill="rgb(0%, 0%, 0%)" fill-opacity="1" d="M 7.164062 8.414062 L 7.164062 2.339844 L 13.144531 2.339844 L 13.144531 3.949219 L 8.683594 3.949219 L 8.683594 6.484375 C 9.195312 6.074219 9.796875 5.867188 10.476562 5.867188 C 10.90625 5.867188 11.292969 5.953125 11.640625 6.117188 C 11.996094 6.28125 12.277344 6.472656 12.480469 6.695312 C 12.789062 7.027344 13.015625 7.390625 13.152344 7.789062 C 13.296875 8.179688 13.367188 8.839844 13.367188 9.769531 C 13.367188 10.523438 13.3125 11.085938 13.199219 11.457031 C 13.089844 11.820312 12.917969 12.15625 12.675781 12.464844 C 12.445312 12.757812 12.121094 13.03125 11.703125 13.285156 C 11.289062 13.535156 10.800781 13.660156 10.238281 13.660156 C 9.515625 13.660156 8.816406 13.4375 8.144531 12.992188 C 7.46875 12.542969 7.074219 11.796875 6.957031 10.746094 L 8.566406 10.746094 C 8.757812 11.621094 9.292969 12.058594 10.179688 12.058594 C 10.964844 12.058594 11.421875 11.789062 11.558594 11.25 C 11.691406 10.710938 11.757812 10.175781 11.757812 9.644531 C 11.757812 9.023438 11.652344 8.507812 11.441406 8.097656 C 11.230469 7.683594 10.792969 7.480469 10.132812 7.480469 C 9.511719 7.480469 9.027344 7.789062 8.683594 8.414062 Z M 7.164062 8.414062 "/>
</svg>
