<?xml version="1.0" encoding="UTF-8"?>
<svg xmlns="http://www.w3.org/2000/svg" xmlns:xlink="http://www.w3.org/1999/xlink" width="16" height="16" viewBox="0 0 16 16">
<rect x="-1.6" y="-1.6" width="19.2" height="19.2" fill="rgb(0%, 0%, 0%)" fill-opacity="1"/>
<path fill-rule="nonzero" fill="rgb(100%, 100%, 100%)" fill-opacity="1" d="M 0.800781 0.800781 L 15.199219 0.800781 L 15.199219 15.199219 L 0.800781 15.199219 Z M 0.800781 0.800781 "/>
<path fill="none" stroke-width="50.005798" stroke-linecap="butt" stroke-linejoin="miter" stroke="rgb(0%, 0%, 0%)" stroke-opacity="1" stroke-miterlimit="4" d="M 375.055456 159.968458 C 375.055456 126.870048 396.759331 97.705466 428.365599 88.21002 C 460.107517 78.714575 494.29112 91.058654 512.603765 118.731095 C 530.78076 146.267886 528.746022 182.621877 507.584744 207.988282 L 375.055456 369.003906 L 375.055456 385.010514 L 550.04295 385.010514 " transform="matrix(0.0287967, 0, 0, 0.0287967, -8.558172, 1.23328)"/>
<path fill="none" stroke-width="42" stroke-linecap="butt" stroke-linejoin="miter" stroke="rgb(0%, 0%, 0%)" stroke-opacity="1" stroke-miterlimit="4" d="M 418.050325 223.004691 C 418.050325 257.754053 389.795106 286.009272 355.045745 286.009272 C 320.182451 286.009272 292.041164 257.754053 292.041164 223.004691 L 292.041164 96.995531 C 292.041164 62.246169 320.182451 33.990951 355.045745 33.990951 C 389.795106 33.990951 418.050325 62.246169 418.050325 96.995531 Z M 418.050325 223.004691 " transform="matrix(0.0342857, 0, 0, 0.0342857, -0.57143, 2.514284)"/>
</svg>
