<?xml version="1.0" encoding="UTF-8"?>
<svg xmlns="http://www.w3.org/2000/svg" xmlns:xlink="http://www.w3.org/1999/xlink" width="16" height="16" viewBox="0 0 16 16">
<rect x="-1.6" y="-1.6" width="19.2" height="19.2" fill="rgb(0%, 0%, 0%)" fill-opacity="1"/>
<path fill-rule="nonzero" fill="rgb(100%, 100%, 100%)" fill-opacity="1" d="M 0.800781 0.800781 L 15.199219 0.800781 L 15.199219 15.199219 L 0.800781 15.199219 Z M 0.800781 0.800781 "/>
<path fill-rule="nonzero" fill="rgb(0%, 0%, 0%)" fill-opacity="1" d="M 4 2.398438 L 2.398438 5.601562 L 4 5.601562 L 4 13.601562 L 5.601562 13.601562 L 5.601562 2.398438 Z M 4 2.398438 "/>
<path fill="none" stroke-width="50" stroke-linecap="butt" stroke-linejoin="miter" stroke="rgb(0%, 0%, 0%)" stroke-opacity="1" stroke-miterlimit="4" d="M 600.024255 309.951032 C 600.024255 351.454919 566.454935 385.024238 524.951049 385.024238 C 483.569233 385.024238 449.999913 351.454919 449.999913 309.951032 L 449.999913 160.048761 C 449.999913 118.544874 483.569233 84.975554 524.951049 84.975554 C 566.454935 84.975554 600.024255 118.544874 600.024255 160.048761 Z M 600.024255 309.951032 " transform="matrix(0.032, 0, 0, 0.032, -6.400004, 0.48)"/>
</svg>
