<?xml version="1.0" encoding="UTF-8"?>
<svg xmlns="http://www.w3.org/2000/svg" xmlns:xlink="http://www.w3.org/1999/xlink" width="16" height="16" viewBox="0 0 16 16">
<rect x="-1.6" y="-1.6" width="19.2" height="19.2" fill="rgb(0%, 0%, 0%)" fill-opacity="1"/>
<path fill-rule="nonzero" fill="rgb(100%, 100%, 100%)" fill-opacity="1" d="M 0.800781 0.800781 L 15.199219 0.800781 L 15.199219 15.199219 L 0.800781 15.199219 Z M 0.800781 0.800781 "/>
<path fill="none" stroke-width="50.005798" stroke-linecap="butt" stroke-linejoin="miter" stroke="rgb(0%, 0%, 0%)" stroke-opacity="1" stroke-miterlimit="4" d="M 374.939975 159.968491 C 375.075624 126.870081 396.779499 97.705499 428.385768 88.210053 C 460.127685 78.714608 494.311289 91.058687 512.623933 118.731128 C 530.800929 146.26792 528.766191 182.621911 507.604912 207.988315 L 374.939975 369.003939 L 374.939975 385.010547 L 550.063118 385.010547 " transform="matrix(0.0287967, 0, 0, 0.0287967, -8.558753, 1.233279)"/>
<path fill="none" stroke-width="50.005798" stroke-linecap="butt" stroke-linejoin="miter" stroke="rgb(0%, 0%, 0%)" stroke-opacity="1" stroke-miterlimit="4" d="M 375.048493 159.968491 C 375.048493 126.870081 396.752368 97.705499 428.494285 88.210053 C 460.100554 78.714608 494.284157 91.058687 512.596802 118.731128 C 530.773797 146.26792 528.739059 182.621911 507.577781 207.988315 L 375.048493 369.003939 L 375.048493 385.010547 L 550.035987 385.010547 " transform="matrix(0.0287967, 0, 0, 0.0287967, -1.358753, 1.233279)"/>
</svg>
