<?xml version="1.0" encoding="UTF-8"?>
<svg xmlns="http://www.w3.org/2000/svg" xmlns:xlink="http://www.w3.org/1999/xlink" width="16" height="16" viewBox="0 0 16 16">
<rect x="-1.6" y="-1.6" width="19.2" height="19.2" fill="rgb(0%, 0%, 0%)" fill-opacity="1"/>
<path fill-rule="nonzero" fill="rgb(100%, 100%, 100%)" fill-opacity="1" d="M 0.800781 0.800781 L 15.199219 0.800781 L 15.199219 15.199219 L 0.800781 15.199219 Z M 0.800781 0.800781 "/>
<path fill="none" stroke-width="50.005798" stroke-linecap="butt" stroke-linejoin="miter" stroke="rgb(0%, 0%, 0%)" stroke-opacity="1" stroke-miterlimit="4" d="M 374.939975 159.968491 C 375.075624 126.870081 396.779499 97.705499 428.385768 88.210053 C 460.127685 78.714608 494.311289 91.058687 512.623933 118.731128 C 530.800929 146.26792 528.766191 182.621911 507.604912 207.988315 L 374.939975 369.003939 L 374.939975 385.010547 L 550.063118 385.010547 " transform="matrix(0.0287967, 0, 0, 0.0287967, -8.558753, 1.233279)"/>
<path fill="none" stroke-width="49.999901" stroke-linecap="butt" stroke-linejoin="miter" stroke="rgb(0%, 0%, 0%)" stroke-opacity="1" stroke-miterlimit="4" d="M 375.048835 159.994545 C 375.048835 118.626271 408.550355 84.989118 450.054262 84.989118 C 491.422535 84.989118 525.059688 118.626271 525.059688 159.994545 C 525.059688 201.362818 491.422535 234.999971 450.054262 234.999971 L 424.96203 234.999971 L 450.054262 234.999971 C 491.422535 234.999971 525.059688 268.637125 525.059688 310.005398 C 525.059688 351.373671 491.422535 385.010824 450.054262 385.010824 C 408.550355 385.010824 375.048835 351.373671 375.048835 310.005398 " transform="matrix(0.0288, 0, 0, 0.0288, -1.36, 1.232001)"/>
</svg>
