<?xml version="1.0" encoding="UTF-8"?>
<svg xmlns="http://www.w3.org/2000/svg" xmlns:xlink="http://www.w3.org/1999/xlink" width="16" height="16" viewBox="0 0 16 16">
<path fill-rule="nonzero" fill="rgb(100%, 100%, 100%)" fill-opacity="1" stroke-width="1" stroke-linecap="round" stroke-linejoin="miter" stroke="rgb(0%, 0%, 0%)" stroke-opacity="1" stroke-miterlimit="4" d="M 0.498917 0.498917 L 15.719833 0.498917 L 15.719833 15.719833 L 0.498917 15.719833 Z M 0.498917 0.498917 " transform="matrix(0.986513, 0, 0, 0.986513, 0, 0)"/>
<path fill-rule="nonzero" fill="rgb(0%, 0%, 0%)" fill-opacity="1" d="M 4.332031 13.625 L 4.332031 4.078125 L 2.730469 5.25 L 2.730469 3.539062 L 4.332031 2.375 L 5.949219 2.375 L 5.949219 13.625 Z M 4.332031 13.625 "/>
<path fill-rule="nonzero" fill="rgb(0%, 0%, 0%)" fill-opacity="1" d="M 6.867188 13.664062 L 6.867188 12.152344 L 11.257812 6.660156 C 11.429688 6.441406 11.539062 6.246094 11.589844 6.066406 C 11.640625 5.886719 11.667969 5.710938 11.667969 5.542969 C 11.667969 5.152344 11.527344 4.789062 11.25 4.453125 C 10.972656 4.117188 10.597656 3.945312 10.117188 3.945312 C 9.683594 3.945312 9.308594 4.09375 8.992188 4.386719 C 8.683594 4.671875 8.511719 5.070312 8.476562 5.570312 L 6.867188 5.570312 C 6.871094 4.664062 7.183594 3.898438 7.800781 3.277344 C 8.414062 2.648438 9.148438 2.335938 9.996094 2.335938 C 10.929688 2.335938 11.710938 2.652344 12.332031 3.285156 C 12.957031 3.910156 13.269531 4.667969 13.269531 5.558594 C 13.269531 6.316406 13.046875 6.976562 12.601562 7.53125 L 8.984375 12.0625 L 13.269531 12.0625 L 13.269531 13.664062 Z M 6.867188 13.664062 "/>
</svg>
