<?xml version="1.0" encoding="UTF-8"?>
<svg xmlns="http://www.w3.org/2000/svg" xmlns:xlink="http://www.w3.org/1999/xlink" width="16" height="16" viewBox="0 0 16 16">
<rect x="-1.6" y="-1.6" width="19.2" height="19.2" fill="rgb(0%, 0%, 0%)" fill-opacity="1"/>
<path fill-rule="nonzero" fill="rgb(100%, 100%, 100%)" fill-opacity="1" d="M 0.800781 0.800781 L 15.199219 0.800781 L 15.199219 15.199219 L 0.800781 15.199219 Z M 0.800781 0.800781 "/>
<path fill-rule="nonzero" fill="rgb(0%, 0%, 0%)" fill-opacity="1" d="M 4 2.398438 L 2.398438 5.601562 L 4 5.601562 L 4 13.597656 L 5.601562 13.597656 L 5.601562 2.398438 Z M 4 2.398438 "/>
<path fill="none" stroke-width="49.999901" stroke-linecap="butt" stroke-linejoin="miter" stroke="rgb(0%, 0%, 0%)" stroke-opacity="1" stroke-miterlimit="4" d="M 525.001815 160.0489 C 525.001815 118.545014 491.432495 84.975694 450.050679 84.975694 C 408.546792 84.975694 374.977472 118.545014 374.977472 160.0489 L 374.977472 309.951173 C 374.977472 351.455059 408.546792 385.024379 450.050679 385.024379 C 491.432495 385.024379 525.001815 351.455059 525.001815 309.951173 L 525.001815 285.048841 C 525.001815 243.544954 491.432495 209.975634 450.050679 209.975634 C 408.546792 209.975634 374.977472 243.544954 374.977472 285.048841 " transform="matrix(-0.032, 0.000000000000000004, -0.000000000000000004, -0.032, 24.800066, 15.520005)"/>
</svg>
