<?xml version="1.0" encoding="UTF-8"?>
<svg xmlns="http://www.w3.org/2000/svg" xmlns:xlink="http://www.w3.org/1999/xlink" width="16" height="16" viewBox="0 0 16 16">
<rect x="-1.6" y="-1.6" width="19.2" height="19.2" fill="rgb(0%, 0%, 0%)" fill-opacity="1"/>
<path fill-rule="nonzero" fill="rgb(100%, 100%, 100%)" fill-opacity="1" d="M 0.800781 0.800781 L 15.199219 0.800781 L 15.199219 15.199219 L 0.800781 15.199219 Z M 0.800781 0.800781 "/>
<path fill="none" stroke-width="49.999901" stroke-linecap="butt" stroke-linejoin="miter" stroke="rgb(0%, 0%, 0%)" stroke-opacity="1" stroke-miterlimit="4" d="M 524.951373 160.048954 C 524.951373 118.54505 491.382039 84.975715 450.000205 84.975715 C 408.618371 84.975715 375.049037 118.54505 375.049037 160.048954 L 375.049037 309.951291 C 375.049037 351.455195 408.618371 385.024529 450.000205 385.024529 C 491.382039 385.024529 524.951373 351.455195 524.951373 309.951291 L 524.951373 285.048948 C 524.951373 243.545044 491.382039 209.975709 450.000205 209.975709 C 408.618371 209.975709 375.049037 243.545044 375.049037 285.048948 " transform="matrix(-0.032, 0.000000000000000004, -0.000000000000000004, -0.032, 22.400007, 15.520004)"/>
</svg>
