<?xml version="1.0" encoding="UTF-8"?>
<svg xmlns="http://www.w3.org/2000/svg" xmlns:xlink="http://www.w3.org/1999/xlink" width="16" height="16" viewBox="0 0 16 16">
<rect x="-1.6" y="-1.6" width="19.2" height="19.2" fill="rgb(0%, 0%, 0%)" fill-opacity="1"/>
<path fill-rule="nonzero" fill="rgb(100%, 100%, 100%)" fill-opacity="1" d="M 0.800781 0.800781 L 15.199219 0.800781 L 15.199219 15.199219 L 0.800781 15.199219 Z M 0.800781 0.800781 "/>
<path fill-rule="nonzero" fill="rgb(0%, 0%, 0%)" fill-opacity="1" d="M 4 2.398438 L 2.398438 5.601562 L 4 5.601562 L 4 13.597656 L 5.601562 13.597656 L 5.601562 2.398438 Z M 4 2.398438 "/>
<path fill="none" stroke-width="49.999901" stroke-linecap="butt" stroke-linejoin="miter" stroke="rgb(0%, 0%, 0%)" stroke-opacity="1" stroke-miterlimit="4" d="M 525.024313 160.048853 C 525.024313 118.544966 491.454993 84.975646 449.951106 84.975646 C 408.56929 84.975646 374.99997 118.544966 374.99997 160.048853 L 374.99997 309.951125 C 374.99997 351.455012 408.56929 385.024332 449.951106 385.024332 C 491.454993 385.024332 525.024313 351.455012 525.024313 309.951125 L 525.024313 285.048793 C 525.024313 243.544907 491.454993 209.975587 449.951106 209.975587 C 408.56929 209.975587 374.99997 243.544907 374.99997 285.048793 " transform="matrix(0.032, 0, 0, 0.032, -4.000005, 0.479997)"/>
</svg>
