<svg width="16" height="16" version="1.1" viewBox="0 0 4.233 4.233" xmlns="http://www.w3.org/2000/svg">
 <rect width="4.233" height="4.233"/>
 <rect x=".2117" y=".2117" width="3.81" height="3.81" fill="#fff"/>
 <g transform="matrix(.008128 0 0 .008128 -2.421 .2065)">
  <path d="m375 160c0.0115-33.1 21.73-62.29 53.43-71.81 31.71-9.52 65.9 2.873 84.15 30.5 18.25 27.62 16.22 63.94-4.977 89.37l-132.6 161v16.01h175" fill="none" stroke="#000" stroke-width="50"/>
 </g>
 <path d="m2.227 3.251v0.5756l0.2879-0.2879v-0.2879z" stroke-miterlimit="5" stroke-width=".1615"/>
 <g transform="matrix(.005757 0 0 .005757 .6435 1.178)">
  <path d="m550 85h-175v100l75 1e-5c41.42 0 75 33.58 75 75l3e-5 50c0 41.42-33.58 75-75 75s-75-33.58-75-75" fill="none" stroke="#000" stroke-width="50"/>
 </g>
</svg>
