<?xml version="1.0" encoding="UTF-8"?>
<svg xmlns="http://www.w3.org/2000/svg" xmlns:xlink="http://www.w3.org/1999/xlink" width="16" height="16" viewBox="0 0 16 16">
<path fill-rule="nonzero" fill="rgb(100%, 100%, 100%)" fill-opacity="1" stroke-width="1" stroke-linecap="round" stroke-linejoin="miter" stroke="rgb(0%, 0%, 0%)" stroke-opacity="1" stroke-miterlimit="4" d="M 0.498917 0.498917 L 15.719833 0.498917 L 15.719833 15.719833 L 0.498917 15.719833 Z M 0.498917 0.498917 " transform="matrix(0.986513, 0, 0, 0.986513, 0, 0)"/>
<path fill-rule="nonzero" fill="rgb(0%, 0%, 0%)" fill-opacity="1" d="M 4.113281 13.625 L 4.113281 4.078125 L 2.507812 5.25 L 2.507812 3.539062 L 4.113281 2.375 L 5.730469 2.375 L 5.730469 13.625 Z M 4.113281 13.625 "/>
<path fill-rule="nonzero" fill="rgb(0%, 0%, 0%)" fill-opacity="1" d="M 8.457031 5.511719 C 8.457031 6.039062 8.621094 6.441406 8.953125 6.714844 C 9.285156 6.984375 9.65625 7.121094 10.070312 7.121094 C 10.480469 7.121094 10.851562 6.984375 11.179688 6.714844 C 11.511719 6.441406 11.679688 6.039062 11.679688 5.511719 C 11.679688 4.988281 11.511719 4.589844 11.179688 4.316406 C 10.851562 4.039062 10.480469 3.898438 10.070312 3.898438 C 9.65625 3.898438 9.285156 4.039062 8.953125 4.316406 C 8.621094 4.589844 8.457031 4.988281 8.457031 5.511719 Z M 6.648438 10.34375 C 6.648438 9.25 7.089844 8.40625 7.972656 7.816406 C 7.636719 7.515625 7.367188 7.1875 7.15625 6.828125 C 6.949219 6.464844 6.847656 6.035156 6.847656 5.542969 C 6.847656 4.636719 7.15625 3.867188 7.773438 3.238281 C 8.394531 2.605469 9.160156 2.289062 10.070312 2.289062 C 10.976562 2.289062 11.742188 2.605469 12.359375 3.238281 C 12.980469 3.867188 13.289062 4.636719 13.289062 5.542969 C 13.289062 6.035156 13.183594 6.464844 12.972656 6.828125 C 12.761719 7.1875 12.496094 7.515625 12.171875 7.816406 C 13.050781 8.410156 13.492188 9.253906 13.492188 10.34375 C 13.492188 11.339844 13.152344 12.152344 12.472656 12.777344 C 11.800781 13.398438 11 13.710938 10.070312 13.710938 C 9.132812 13.710938 8.328125 13.398438 7.65625 12.777344 C 6.984375 12.152344 6.648438 11.339844 6.648438 10.34375 Z M 8.257812 10.328125 C 8.257812 10.839844 8.4375 11.269531 8.796875 11.605469 C 9.160156 11.941406 9.585938 12.109375 10.070312 12.109375 C 10.546875 12.109375 10.96875 11.941406 11.332031 11.605469 C 11.703125 11.269531 11.886719 10.839844 11.886719 10.328125 C 11.886719 9.8125 11.703125 9.386719 11.332031 9.046875 C 10.96875 8.710938 10.546875 8.539062 10.070312 8.539062 C 9.585938 8.539062 9.160156 8.710938 8.796875 9.046875 C 8.4375 9.386719 8.257812 9.8125 8.257812 10.328125 Z M 8.257812 10.328125 "/>
</svg>
