<?xml version="1.0" encoding="UTF-8"?>
<svg xmlns="http://www.w3.org/2000/svg" xmlns:xlink="http://www.w3.org/1999/xlink" width="16" height="16" viewBox="0 0 16 16">
<path fill-rule="nonzero" fill="rgb(100%, 100%, 100%)" fill-opacity="1" stroke-width="1" stroke-linecap="round" stroke-linejoin="miter" stroke="rgb(0%, 0%, 0%)" stroke-opacity="1" stroke-miterlimit="4" d="M 0.498917 0.498917 L 15.719833 0.498917 L 15.719833 15.719833 L 0.498917 15.719833 Z M 0.498917 0.498917 " transform="matrix(0.986513, 0, 0, 0.986513, 0, 0)"/>
<path fill-rule="nonzero" fill="rgb(0%, 0%, 0%)" fill-opacity="1" d="M 5 8.414062 L 5 2.339844 L 10.984375 2.339844 L 10.984375 3.949219 L 6.519531 3.949219 L 6.519531 6.484375 C 7.035156 6.074219 7.632812 5.867188 8.316406 5.867188 C 8.742188 5.867188 9.128906 5.953125 9.480469 6.117188 C 9.835938 6.28125 10.113281 6.472656 10.320312 6.695312 C 10.628906 7.027344 10.851562 7.390625 10.992188 7.789062 C 11.132812 8.179688 11.207031 8.839844 11.207031 9.769531 C 11.207031 10.523438 11.148438 11.085938 11.035156 11.457031 C 10.929688 11.820312 10.753906 12.15625 10.511719 12.464844 C 10.28125 12.757812 9.957031 13.03125 9.542969 13.285156 C 9.125 13.535156 8.636719 13.660156 8.078125 13.660156 C 7.351562 13.660156 6.652344 13.4375 5.980469 12.992188 C 5.308594 12.542969 4.910156 11.796875 4.792969 10.746094 L 6.40625 10.746094 C 6.59375 11.621094 7.132812 12.058594 8.015625 12.058594 C 8.800781 12.058594 9.261719 11.789062 9.394531 11.25 C 9.527344 10.710938 9.59375 10.175781 9.59375 9.644531 C 9.59375 9.023438 9.488281 8.507812 9.28125 8.097656 C 9.070312 7.683594 8.632812 7.480469 7.96875 7.480469 C 7.347656 7.480469 6.863281 7.789062 6.519531 8.414062 Z M 5 8.414062 "/>
</svg>
