<?xml version="1.0" encoding="UTF-8"?>
<svg xmlns="http://www.w3.org/2000/svg" xmlns:xlink="http://www.w3.org/1999/xlink" width="16" height="16" viewBox="0 0 16 16">
<rect x="-1.6" y="-1.6" width="19.2" height="19.2" fill="rgb(0%, 0%, 0%)" fill-opacity="1"/>
<path fill-rule="nonzero" fill="rgb(100%, 100%, 100%)" fill-opacity="1" d="M 0.800781 0.800781 L 15.199219 0.800781 L 15.199219 15.199219 L 0.800781 15.199219 Z M 0.800781 0.800781 "/>
<path fill="none" stroke-width="49.999901" stroke-linecap="butt" stroke-linejoin="miter" stroke="rgb(0%, 0%, 0%)" stroke-opacity="1" stroke-miterlimit="4" d="M 375.048992 160.048914 C 375.048992 118.54501 408.618326 84.975675 450.00016 84.975675 C 491.381994 84.975675 524.951329 118.54501 524.951329 160.048914 C 524.951329 201.430748 491.381994 235.000082 450.00016 235.000082 L 424.975748 235.000082 L 450.00016 235.000082 C 491.381994 235.000082 524.951329 268.569417 524.951329 309.951251 C 524.951329 351.455155 491.381994 385.024489 450.00016 385.024489 C 408.618326 385.024489 375.048992 351.455155 375.048992 309.951251 " transform="matrix(0.032, 0, 0, 0.032, -6.400006, 0.479997)"/>
</svg>
