<?xml version="1.0" encoding="UTF-8"?>
<svg xmlns="http://www.w3.org/2000/svg" xmlns:xlink="http://www.w3.org/1999/xlink" width="16" height="16" viewBox="0 0 16 16">
<rect x="-1.6" y="-1.6" width="19.2" height="19.2" fill="rgb(0%, 0%, 0%)" fill-opacity="1"/>
<path fill-rule="nonzero" fill="rgb(100%, 100%, 100%)" fill-opacity="1" d="M 0.800781 0.800781 L 15.199219 0.800781 L 15.199219 15.199219 L 0.800781 15.199219 Z M 0.800781 0.800781 "/>
<path fill-rule="nonzero" fill="rgb(0%, 0%, 0%)" fill-opacity="1" d="M 4 2.398438 L 2.398438 5.601562 L 4 5.601562 L 4 13.597656 L 5.601562 13.597656 L 5.601562 2.398438 Z M 4 2.398438 "/>
<path fill="none" stroke-width="49.999901" stroke-linecap="butt" stroke-linejoin="miter" stroke="rgb(0%, 0%, 0%)" stroke-opacity="1" stroke-miterlimit="4" d="M 374.998139 160.048848 C 374.998139 118.544961 408.567459 84.975641 449.949276 84.975641 C 491.453162 84.975641 525.022482 118.544961 525.022482 160.048848 C 525.022482 201.430664 491.453162 234.999984 449.949276 234.999984 L 425.046944 234.999984 L 449.949276 234.999984 C 491.453162 234.999984 525.022482 268.569304 525.022482 309.95112 C 525.022482 351.455007 491.453162 385.024327 449.949276 385.024327 C 408.567459 385.024327 374.998139 351.455007 374.998139 309.95112 " transform="matrix(0.032, 0, 0, 0.032, -3.999946, 0.479997)"/>
</svg>
