<?xml version="1.0" encoding="UTF-8"?>
<svg xmlns="http://www.w3.org/2000/svg" xmlns:xlink="http://www.w3.org/1999/xlink" width="16" height="16" viewBox="0 0 16 16">
<rect x="-1.6" y="-1.6" width="19.2" height="19.2" fill="rgb(0%, 0%, 0%)" fill-opacity="1"/>
<path fill-rule="nonzero" fill="rgb(100%, 100%, 100%)" fill-opacity="1" d="M 0.800781 0.800781 L 15.199219 0.800781 L 15.199219 15.199219 L 0.800781 15.199219 Z M 0.800781 0.800781 "/>
<path fill-rule="nonzero" fill="rgb(0%, 0%, 0%)" fill-opacity="1" d="M 4 2.398438 L 2.398438 5.601562 L 4 5.601562 L 4 13.597656 L 5.601562 13.597656 L 5.601562 2.398438 Z M 4 2.398438 "/>
<path fill="none" stroke-width="50" stroke-linecap="square" stroke-linejoin="miter" stroke="rgb(0%, 0%, 0%)" stroke-opacity="1" stroke-miterlimit="4" d="M 525.022494 160.048811 C 525.022494 201.430642 491.453162 234.999974 449.949261 234.999974 C 408.56743 234.999974 374.998098 201.430642 374.998098 160.048811 C 374.998098 118.54491 408.56743 84.975578 449.949261 84.975578 C 491.453162 84.975578 525.022494 118.54491 525.022494 160.048811 Z M 525.022494 160.048811 " transform="matrix(0.032, 0, 0, 0.032, -3.999941, 0.48)"/>
<path fill="none" stroke-width="50" stroke-linecap="square" stroke-linejoin="miter" stroke="rgb(0%, 0%, 0%)" stroke-opacity="1" stroke-miterlimit="4" d="M 525.022494 309.951137 C 525.022494 351.455039 491.453162 385.024371 449.949261 385.024371 C 408.56743 385.024371 374.998098 351.455039 374.998098 309.951137 C 374.998098 268.569306 408.56743 234.999974 449.949261 234.999974 C 491.453162 234.999974 525.022494 268.569306 525.022494 309.951137 Z M 525.022494 309.951137 " transform="matrix(0.032, 0, 0, 0.032, -3.999941, 0.48)"/>
</svg>
