<?xml version="1.0" encoding="UTF-8"?>
<svg xmlns="http://www.w3.org/2000/svg" xmlns:xlink="http://www.w3.org/1999/xlink" width="16" height="16" viewBox="0 0 16 16">
<path fill-rule="nonzero" fill="rgb(0%, 0%, 0%)" fill-opacity="1" d="M 16 8 C 16 12.417969 12.417969 16 8 16 C 3.582031 16 0 12.417969 0 8 C 0 3.582031 3.582031 0 8 0 C 12.417969 0 16 3.582031 16 8 Z M 16 8 "/>
<path fill="none" stroke-width="40" stroke-linecap="square" stroke-linejoin="miter" stroke="rgb(100%, 100%, 0%)" stroke-opacity="1" stroke-miterlimit="5" d="M 160.038742 419.970664 L 160.038742 180.02928 L 219.950846 180.02928 C 253.202796 180.02928 280.009434 206.835918 280.009434 239.941384 C 280.009434 273.193334 253.202796 299.999972 219.950846 299.999972 C 160.038742 299.999972 160.038742 299.999972 160.038742 299.999972 " transform="matrix(0.0266667, 0, 0, 0.0266667, -0.533325, 0)"/>
<path fill-rule="nonzero" fill="rgb(100%, 100%, 0%)" fill-opacity="1" d="M 4.265625 8.535156 C 6.398438 11.734375 6.398438 11.734375 6.398438 11.734375 L 7.464844 11.734375 L 5.332031 8.535156 Z M 4.265625 8.535156 "/>
<path fill="none" stroke-width="50" stroke-linecap="butt" stroke-linejoin="miter" stroke="rgb(100%, 100%, 0%)" stroke-opacity="1" stroke-miterlimit="4" d="M 550.036055 85.03677 L 374.987195 85.03677 L 374.987195 185.012375 L 450.060451 185.012375 C 491.442295 185.012375 524.950602 218.520682 524.950602 260.085631 L 524.950602 310.073433 C 524.950602 351.455277 491.442295 384.963584 450.060451 384.963584 C 408.495502 384.963584 374.987195 351.455277 374.987195 310.073433 " transform="matrix(0.0213333, 0, 0, 0.0213333, 1.066681, 2.986664)"/>
</svg>
