<?xml version="1.0" encoding="UTF-8"?>
<svg xmlns="http://www.w3.org/2000/svg" xmlns:xlink="http://www.w3.org/1999/xlink" width="16" height="16" viewBox="0 0 16 16">
<path fill-rule="nonzero" fill="rgb(0%, 0%, 0%)" fill-opacity="1" d="M 16 8 C 16 12.417969 12.417969 16 8 16 C 3.582031 16 0 12.417969 0 8 C 0 3.582031 3.582031 0 8 0 C 12.417969 0 16 3.582031 16 8 Z M 16 8 "/>
<path fill="none" stroke-width="40" stroke-linecap="square" stroke-linejoin="miter" stroke="rgb(100%, 100%, 0%)" stroke-opacity="1" stroke-miterlimit="5" d="M 160.029587 419.970664 L 160.029587 180.02928 L 219.941691 180.02928 C 253.193641 180.02928 280.000279 206.835918 280.000279 239.941384 C 280.000279 273.193334 253.193641 299.999972 219.941691 299.999972 C 160.029587 299.999972 160.029587 299.999972 160.029587 299.999972 " transform="matrix(0.0266667, 0, 0, 0.0266667, 0.533325, 0)"/>
<path fill-rule="nonzero" fill="rgb(100%, 100%, 0%)" fill-opacity="1" d="M 5.332031 8.535156 C 7.464844 11.734375 7.464844 11.734375 7.464844 11.734375 L 8.535156 11.734375 L 6.398438 8.535156 Z M 5.332031 8.535156 "/>
<path fill-rule="nonzero" fill="rgb(100%, 100%, 0%)" fill-opacity="1" d="M 10.667969 4.265625 L 9.601562 6.398438 L 10.667969 6.398438 L 10.667969 11.734375 L 11.734375 11.734375 L 11.734375 4.265625 Z M 10.667969 4.265625 "/>
</svg>
