<?xml version="1.0" encoding="UTF-8"?>
<svg xmlns="http://www.w3.org/2000/svg" xmlns:xlink="http://www.w3.org/1999/xlink" width="16" height="16" viewBox="0 0 16 16">
<path fill-rule="nonzero" fill="rgb(0%, 0%, 0%)" fill-opacity="1" d="M 16 8 C 16 12.417969 12.417969 16 8 16 C 3.582031 16 0 12.417969 0 8 C 0 3.582031 3.582031 0 8 0 C 12.417969 0 16 3.582031 16 8 Z M 16 8 "/>
<path fill="none" stroke-width="40" stroke-linecap="square" stroke-linejoin="miter" stroke="rgb(100%, 100%, 0%)" stroke-opacity="1" stroke-miterlimit="5" d="M 160.038742 419.970664 L 160.038742 180.02928 L 219.950846 180.02928 C 253.202796 180.02928 280.009434 206.835918 280.009434 239.941384 C 280.009434 273.193334 253.202796 299.999972 219.950846 299.999972 C 160.038742 299.999972 160.038742 299.999972 160.038742 299.999972 " transform="matrix(0.0266667, 0, 0, 0.0266667, -0.533325, 0)"/>
<path fill-rule="nonzero" fill="rgb(100%, 100%, 0%)" fill-opacity="1" d="M 4.265625 8.535156 C 6.398438 11.734375 6.398438 11.734375 6.398438 11.734375 L 7.464844 11.734375 L 5.332031 8.535156 Z M 4.265625 8.535156 "/>
<path fill="none" stroke-width="1.06666" stroke-linecap="butt" stroke-linejoin="miter" stroke="rgb(100%, 100%, 0%)" stroke-opacity="1" stroke-miterlimit="4" d="M 304.265625 303.734375 L 304.265625 296.800781 L 304 296.800781 L 301.066406 300.710938 L 301.066406 301.066406 L 304.265625 301.066406 " transform="matrix(1, 0, 0, 1, -292, -292)"/>
</svg>
