<?xml version="1.0" encoding="UTF-8"?>
<svg xmlns="http://www.w3.org/2000/svg" xmlns:xlink="http://www.w3.org/1999/xlink" width="16" height="16" viewBox="0 0 16 16">
<path fill-rule="nonzero" fill="rgb(0%, 0%, 0%)" fill-opacity="1" d="M 16 8 C 16 12.417969 12.417969 16 8 16 C 3.582031 16 0 12.417969 0 8 C 0 3.582031 3.582031 0 8 0 C 12.417969 0 16 3.582031 16 8 Z M 16 8 "/>
<path fill="none" stroke-width="40" stroke-linecap="square" stroke-linejoin="miter" stroke="rgb(100%, 100%, 0%)" stroke-opacity="1" stroke-miterlimit="5" d="M 160.038742 419.970664 L 160.038742 180.02928 L 219.950846 180.02928 C 253.202796 180.02928 280.009434 206.835918 280.009434 239.941384 C 280.009434 273.193334 253.202796 299.999972 219.950846 299.999972 C 160.038742 299.999972 160.038742 299.999972 160.038742 299.999972 " transform="matrix(0.0266667, 0, 0, 0.0266667, -0.533325, 0)"/>
<path fill-rule="nonzero" fill="rgb(100%, 100%, 0%)" fill-opacity="1" d="M 4.265625 8.535156 C 6.398438 11.734375 6.398438 11.734375 6.398438 11.734375 L 7.464844 11.734375 L 5.332031 8.535156 Z M 4.265625 8.535156 "/>
<path fill="none" stroke-width="49.999901" stroke-linecap="butt" stroke-linejoin="miter" stroke="rgb(100%, 100%, 0%)" stroke-opacity="1" stroke-miterlimit="4" d="M 374.988429 159.926837 C 374.988429 118.545015 408.496718 85.036726 450.061646 85.036726 C 491.443468 85.036726 524.951757 118.545015 524.951757 159.926837 C 524.951757 201.491765 491.443468 235.000054 450.061646 235.000054 L 424.976205 235.000054 L 450.061646 235.000054 C 491.443468 235.000054 524.951757 268.508343 524.951757 310.073271 C 524.951757 351.455093 491.443468 384.963382 450.061646 384.963382 C 408.496718 384.963382 374.988429 351.455093 374.988429 310.073271 " transform="matrix(0.0213333, 0, 0, 0.0213333, 1.06665, 2.986664)"/>
</svg>
