<?xml version="1.0" encoding="UTF-8" standalone="no"?>
<!-- Created with Inkscape (http://www.inkscape.org/) -->

<svg
   width="16"
   height="16"
   viewBox="0 0 16 16"
   version="1.1"
   id="svg1"
   xmlns="http://www.w3.org/2000/svg"
   xmlns:svg="http://www.w3.org/2000/svg">
  <defs
     id="defs1" />
  <g
     id="layer1"
     transform="translate(-292,-292)">
    <circle
       style="fill:#000000;fill-opacity:1;stroke:none;stroke-width:2.01575;stroke-linecap:square;stroke-miterlimit:5;stroke-dasharray:none"
       id="path2"
       cx="300"
       cy="300"
       r="8" />
    <path
       id="path37"
       style="fill:#ffff00;fill-opacity:1;stroke-width:1.06667;stroke-miterlimit:5"
       d="m 297.22864,296.26922 a 2.133334,2.133334 0 0 0 -1.40381,0.62228 2.133334,2.133334 0 0 0 -0.46244,2.3249 2.133334,2.133334 0 0 0 1.97093,1.31693 1.0666665,1.0666665 0 0 1 0.98547,0.65849 1.0666665,1.0666665 0 0 1 -0.23119,1.16245 1.0666665,1.0666665 0 0 1 -1.16245,0.2312 A 1.0666665,1.0666665 0 0 1 296.26667,301.6 H 295.2 a 2.133334,2.133334 0 0 0 1.31693,1.97094 2.133334,2.133334 0 0 0 0.92109,0.15984 2.133334,2.133334 0 0 0 1.4038,-0.62229 2.133334,2.133334 0 0 0 0.46245,-2.3249 2.133334,2.133334 0 0 0 -1.97095,-1.31693 1.0666665,1.0666665 0 0 1 -0.98546,-0.65848 1.0666665,1.0666665 0 0 1 0.23119,-1.16246 1.0666665,1.0666665 0 0 1 1.16246,-0.2312 1.0666665,1.0666665 0 0 1 0.65848,0.98547 h 1.06667 a 2.133334,2.133334 0 0 0 -1.31693,-1.97093 2.133334,2.133334 0 0 0 -0.92109,-0.15984 z" />
    <path
       id="path51"
       style="fill:#ffff00;fill-opacity:1;stroke:none;stroke-width:1.06667;stroke-miterlimit:5;stroke-dasharray:none;stroke-opacity:1"
       d="m 300.53333,296.26665 v 3.2 h 2.13334 a 1.0666677,1.0666677 0 0 1 1.06666,1.06666 v 1.06667 a 1.066666,1.066666 0 0 1 -0.53333,0.92375 1.066666,1.066666 0 0 1 -1.06667,0 1.066666,1.066666 0 0 1 -0.53333,-0.92375 h -1.06667 a 2.1333341,2.1333341 0 0 0 1.06667,1.8475 2.1333341,2.1333341 0 0 0 2.13333,0 2.1333341,2.1333341 0 0 0 1.06667,-1.8475 v -1.06667 a 2.1333341,2.1333341 0 0 0 -2.13333,-2.13333 H 301.6 v -1.06667 h 3.2 v -1.06666 z" />
  </g>
</svg>
