<?xml version="1.0" encoding="UTF-8"?>
<svg xmlns="http://www.w3.org/2000/svg" xmlns:xlink="http://www.w3.org/1999/xlink" width="24" height="5.570506" viewBox="0 0 24 5.570506">
<path fill-rule="nonzero" fill="rgb(92.156863%, 36.470588%, 28.627451%)" fill-opacity="1" stroke-width="1.2" stroke-linecap="butt" stroke-linejoin="round" stroke="rgb(69.019608%, 67.843137%, 70.980392%)" stroke-opacity="1" stroke-miterlimit="4" d="M 241.437089 307.260941 L 408.9915 307.260941 L 408.9915 345.221629 L 241.437089 345.221629 Z M 241.437089 307.260941 " transform="matrix(0.142211, 0, 0, 0.142211, -34.249137, -43.61003)"/>
<path fill="none" stroke-width="1.2" stroke-linecap="butt" stroke-linejoin="round" stroke="rgb(69.019608%, 67.843137%, 70.980392%)" stroke-opacity="1" stroke-miterlimit="4" d="M 241.437089 307.260941 L 408.9915 307.260941 L 408.9915 345.221629 L 241.437089 345.221629 Z M 241.437089 307.260941 " transform="matrix(0.142211, 0, 0, 0.142211, -34.249137, -43.61003)"/>
<path fill-rule="evenodd" fill="rgb(0%, 0%, 0%)" fill-opacity="1" stroke-width="0.997494" stroke-linecap="butt" stroke-linejoin="miter" stroke="rgb(0%, 0%, 0%)" stroke-opacity="1" stroke-miterlimit="4" d="M 325.049487 326.241285 L 247.205355 344.095444 L 242.48087 344.095444 L 242.535806 341.705733 L 308.10177 326.241285 L 242.535806 310.749369 L 242.48087 308.359659 L 247.205355 308.359659 Z M 325.351634 326.241285 L 403.223233 344.095444 L 407.947719 344.095444 L 407.892783 341.705733 L 342.326819 326.241285 L 407.892783 310.749369 L 407.947719 308.359659 L 403.223233 308.359659 Z M 325.214294 325.746862 L 325.214294 326.735708 " transform="matrix(0.142211, 0, 0, 0.142211, -34.249137, -43.61003)"/>
</svg>
