<?xml version="1.0" encoding="UTF-8"?>
<svg xmlns="http://www.w3.org/2000/svg" xmlns:xlink="http://www.w3.org/1999/xlink" width="16" height="15.707715" viewBox="0 0 16 15.707715">
<path fill-rule="nonzero" fill="rgb(32.549021%, 52.941179%, 92.156863%)" fill-opacity="1" stroke-width="2" stroke-linecap="butt" stroke-linejoin="round" stroke="rgb(32.156864%, 52.549022%, 92.156863%)" stroke-opacity="1" stroke-miterlimit="4" d="M 659.218537 -124.755338 L 712.212338 -124.755338 L 712.212338 -72.768258 L 659.218537 -72.768258 Z M 659.218537 -124.755338 " transform="matrix(0.291013, 0, 0, 0.291013, -191.551978, 36.594464)"/>
<path fill-rule="nonzero" fill="rgb(100%, 100%, 100%)" fill-opacity="1" stroke-width="2" stroke-linecap="butt" stroke-linejoin="round" stroke="rgb(100%, 100%, 100%)" stroke-opacity="1" stroke-miterlimit="4" d="M 567.473858 421.123408 C 567.473858 431.593308 558.977132 440.076612 548.507232 440.076612 C 538.037332 440.076612 529.554029 431.593308 529.554029 421.123408 C 529.554029 410.653509 538.037332 402.156782 548.507232 402.156782 C 558.977132 402.156782 567.473858 410.653509 567.473858 421.123408 Z M 567.473858 421.123408 " transform="matrix(0.291013, 0, 0, 0.291013, -151.642163, -114.696838)"/>
<path fill-rule="nonzero" fill="rgb(0%, 0%, 0%)" fill-opacity="1" d="M 5.820312 8.15625 L 5.820312 3.738281 L 10.171875 3.738281 L 10.171875 4.910156 L 6.921875 4.910156 L 6.921875 6.753906 C 7.296875 6.453125 7.734375 6.304688 8.230469 6.304688 C 8.539062 6.304688 8.820312 6.367188 9.078125 6.484375 C 9.335938 6.601562 9.539062 6.742188 9.6875 6.90625 C 9.914062 7.148438 10.074219 7.410156 10.175781 7.699219 C 10.277344 7.984375 10.332031 8.464844 10.332031 9.140625 C 10.332031 9.691406 10.289062 10.097656 10.207031 10.367188 C 10.132812 10.632812 10.003906 10.878906 9.828125 11.101562 C 9.660156 11.316406 9.421875 11.511719 9.121094 11.695312 C 8.820312 11.878906 8.460938 11.972656 8.054688 11.972656 C 7.527344 11.972656 7.019531 11.808594 6.53125 11.484375 C 6.042969 11.160156 5.753906 10.617188 5.667969 9.851562 L 6.839844 9.851562 C 6.976562 10.488281 7.367188 10.804688 8.011719 10.804688 C 8.582031 10.804688 8.917969 10.609375 9.015625 10.21875 C 9.109375 9.824219 9.160156 9.4375 9.160156 9.050781 C 9.160156 8.597656 9.082031 8.222656 8.929688 7.925781 C 8.777344 7.625 8.460938 7.476562 7.976562 7.476562 C 7.523438 7.476562 7.171875 7.699219 6.921875 8.15625 Z M 5.820312 8.15625 "/>
</svg>
