<?xml version="1.0" encoding="UTF-8"?>
<svg xmlns="http://www.w3.org/2000/svg" xmlns:xlink="http://www.w3.org/1999/xlink" width="23" height="23" viewBox="0 0 23 23">
<path fill-rule="nonzero" fill="rgb(100%, 100%, 100%)" fill-opacity="1" stroke-width="20" stroke-linecap="square" stroke-linejoin="miter" stroke="rgb(0%, 0%, 0%)" stroke-opacity="1" stroke-miterlimit="5" d="M 10.003397 369.996605 L 10.003397 10.003397 L 95.838995 10.003397 L 369.996605 284.161006 L 369.996605 369.996605 Z M 10.003397 369.996605 " transform="matrix(0.0605263, 0, 0, 0.0605263, 0, 0)"/>
<path fill="none" stroke-width="50" stroke-linecap="butt" stroke-linejoin="miter" stroke="rgb(0%, 0%, 0%)" stroke-opacity="1" stroke-miterlimit="4" d="M 374.999986 159.943384 C 374.999986 126.813856 396.727793 97.771738 428.351433 88.091032 C 460.1902 78.625452 494.395362 91.102807 512.68114 118.639038 C 530.751792 146.390395 528.81565 182.531698 507.518097 208.131788 L 374.999986 369.046637 L 374.999986 384.966021 L 549.898077 384.966021 " transform="matrix(0.0181579, 0, 0, 0.0181579, -3.934211, 11.318421)"/>
<path fill="none" stroke-width="50" stroke-linecap="butt" stroke-linejoin="miter" stroke="rgb(0%, 0%, 0%)" stroke-opacity="1" stroke-miterlimit="4" d="M 550.090587 85.07918 L 374.977317 85.07918 L 374.977317 184.898047 L 450.056594 184.898047 C 491.360952 184.898047 524.920744 218.672965 524.920744 259.977324 L 524.920744 310.101884 C 524.920744 351.406242 491.360952 384.966034 450.056594 384.966034 C 408.537108 384.966034 374.977317 351.406242 374.977317 310.101884 " transform="matrix(0.0181579, 0, 0, 0.0181579, 0.605266, 11.318423)"/>
<path fill="none" stroke-width="15" stroke-linecap="butt" stroke-linejoin="miter" stroke="rgb(0%, 0%, 0%)" stroke-opacity="1" stroke-miterlimit="4" d="M 242.46943 280.030572 C 242.46943 292.421876 232.401495 302.489811 220.010191 302.489811 C 207.554349 302.489811 197.486414 292.421876 197.486414 280.030572 L 197.486414 234.983017 C 197.486414 222.591713 207.554349 212.523778 220.010191 212.523778 C 232.401495 212.523778 242.46943 222.591713 242.46943 234.983017 Z M 242.46943 280.030572 " transform="matrix(0.0605263, 0, 0, 0.0605263, 0, 0)"/>
</svg>
