<?xml version="1.0" encoding="UTF-8"?>
<svg xmlns="http://www.w3.org/2000/svg" xmlns:xlink="http://www.w3.org/1999/xlink" width="23" height="23" viewBox="0 0 23 23">
<path fill-rule="nonzero" fill="rgb(100%, 100%, 100%)" fill-opacity="1" stroke-width="20" stroke-linecap="square" stroke-linejoin="miter" stroke="rgb(0%, 0%, 0%)" stroke-opacity="1" stroke-miterlimit="5" d="M 10.003626 370.005066 L 10.003626 10.003626 L 95.841187 10.003626 L 370.005066 284.167505 L 370.005066 370.005066 Z M 10.003626 370.005066 L 10.003626 370.005066 M 10.003626 370.005066 " transform="matrix(0.0605249, 0, 0, 0.0605249, 0, 0)"/>
<path fill="none" stroke-width="15" stroke-linecap="butt" stroke-linejoin="miter" stroke="rgb(0%, 0%, 0%)" stroke-opacity="1" stroke-miterlimit="4" d="M 167.480053 279.972436 C 167.480053 292.428564 157.411888 302.561268 145.020301 302.561268 C 132.564173 302.561268 122.496008 292.428564 122.496008 279.972436 L 122.496008 234.988391 C 122.496008 222.596803 132.564173 212.464099 145.020301 212.464099 C 157.411888 212.464099 167.480053 222.596803 167.480053 234.988391 Z M 167.480053 279.972436 " transform="matrix(0.0605249, 0, 0, 0.0605249, 0, 0)"/>
<path fill-rule="nonzero" fill="rgb(0%, 0%, 0%)" fill-opacity="1" d="M 4.234375 12.410156 C 3.234375 12.410156 2.421875 13.21875 2.421875 14.222656 L 2.421875 16.945312 C 2.421875 17.953125 3.234375 18.761719 4.234375 18.761719 C 5.238281 18.761719 6.054688 17.953125 6.054688 16.945312 L 6.054688 16.492188 C 6.054688 15.492188 5.238281 14.679688 4.234375 14.679688 C 3.917969 14.679688 3.605469 14.761719 3.328125 14.917969 L 3.328125 14.222656 C 3.328125 13.722656 3.734375 13.3125 4.234375 13.3125 C 4.738281 13.3125 5.144531 13.722656 5.144531 14.222656 L 6.054688 14.222656 C 6.054688 13.21875 5.238281 12.410156 4.234375 12.410156 Z M 4.234375 15.582031 C 4.738281 15.582031 5.144531 15.992188 5.144531 16.492188 L 5.144531 16.945312 C 5.144531 17.445312 4.738281 17.855469 4.234375 17.855469 C 3.734375 17.855469 3.328125 17.445312 3.328125 16.945312 L 3.328125 16.492188 C 3.328125 15.992188 3.734375 15.582031 4.234375 15.582031 Z M 4.234375 15.582031 "/>
</svg>
