<?xml version="1.0" encoding="UTF-8"?>
<svg xmlns="http://www.w3.org/2000/svg" xmlns:xlink="http://www.w3.org/1999/xlink" width="23" height="23" viewBox="0 0 23 23">
<path fill-rule="nonzero" fill="rgb(100%, 100%, 100%)" fill-opacity="1" stroke-width="20" stroke-linecap="square" stroke-linejoin="miter" stroke="rgb(0%, 0%, 0%)" stroke-opacity="1" stroke-miterlimit="5" d="M 10.003626 370.005066 L 10.003626 10.003626 L 95.841187 10.003626 L 370.005066 284.167505 L 370.005066 370.005066 Z M 10.003626 370.005066 L 10.003626 370.005066 M 10.003626 370.005066 " transform="matrix(0.0605249, 0, 0, 0.0605249, 0, 0)"/>
<path fill="none" stroke-width="50" stroke-linecap="butt" stroke-linejoin="miter" stroke="rgb(0%, 0%, 0%)" stroke-opacity="1" stroke-miterlimit="4" d="M 549.888362 84.88075 L 374.986401 84.88075 L 374.986401 185.132059 L 450.067316 185.132059 C 491.372577 185.132059 524.933101 218.477451 524.933101 259.997843 L 524.933101 309.908366 C 524.933101 351.428758 491.372577 385.204413 450.067316 385.204413 C 408.546925 385.204413 374.986401 351.428758 374.986401 309.908366 " transform="matrix(0.0181575, 0, 0, 0.0181575, 0.605249, 11.318153)"/>
<path fill="none" stroke-width="15" stroke-linecap="butt" stroke-linejoin="miter" stroke="rgb(0%, 0%, 0%)" stroke-opacity="1" stroke-miterlimit="4" d="M 242.539515 279.972436 C 242.539515 292.428564 232.40681 302.561268 219.950683 302.561268 C 207.559095 302.561268 197.49093 292.428564 197.49093 279.972436 L 197.49093 234.988391 C 197.49093 222.596803 207.559095 212.464099 219.950683 212.464099 C 232.40681 212.464099 242.539515 222.596803 242.539515 234.988391 Z M 242.539515 279.972436 " transform="matrix(0.0605249, 0, 0, 0.0605249, 0, 0)"/>
<path fill="none" stroke-width="50" stroke-linecap="butt" stroke-linejoin="miter" stroke="rgb(0%, 0%, 0%)" stroke-opacity="1" stroke-miterlimit="4" d="M 375.003135 160.090832 C 375.003135 118.57044 408.778791 84.794784 450.084051 84.794784 C 491.389311 84.794784 524.949835 118.57044 524.949835 160.090832 C 524.949835 201.396092 491.389311 234.956616 450.084051 234.956616 L 425.12879 234.956616 L 450.084051 234.956616 C 491.389311 234.956616 524.949835 268.51714 524.949835 310.037532 C 524.949835 351.342792 491.389311 385.118448 450.084051 385.118448 C 408.778791 385.118448 375.003135 351.342792 375.003135 310.037532 " transform="matrix(0.0181575, 0, 0, -0.0181575, -3.934117, 19.852161)"/>
</svg>
