<?xml version="1.0" encoding="UTF-8"?>
<svg xmlns="http://www.w3.org/2000/svg" xmlns:xlink="http://www.w3.org/1999/xlink" width="23" height="23" viewBox="0 0 23 23">
<path fill-rule="nonzero" fill="rgb(100%, 100%, 100%)" fill-opacity="1" stroke-width="20" stroke-linecap="square" stroke-linejoin="miter" stroke="rgb(0%, 0%, 0%)" stroke-opacity="1" stroke-miterlimit="5" d="M 10.003397 369.996605 L 10.003397 10.003397 L 95.838995 10.003397 L 369.996605 284.161006 L 369.996605 369.996605 Z M 10.003397 369.996605 " transform="matrix(0.0605263, 0, 0, 0.0605263, 0, 0)"/>
<path fill="none" stroke-width="50" stroke-linecap="butt" stroke-linejoin="miter" stroke="rgb(0%, 0%, 0%)" stroke-opacity="1" stroke-miterlimit="4" d="M 374.999986 159.943384 C 374.999986 126.813856 396.727793 97.771738 428.351433 88.091032 C 460.1902 78.625452 494.395362 91.102807 512.68114 118.639038 C 530.751792 146.390395 528.81565 182.531698 507.518097 208.131788 L 374.999986 369.046637 L 374.999986 384.966021 L 549.898077 384.966021 " transform="matrix(0.0181579, 0, 0, 0.0181579, -3.934211, 11.318421)"/>
<path fill="none" stroke-width="15" stroke-linecap="butt" stroke-linejoin="miter" stroke="rgb(0%, 0%, 0%)" stroke-opacity="1" stroke-miterlimit="4" d="M 242.46943 280.030572 C 242.46943 292.421876 232.401495 302.489811 220.010191 302.489811 C 207.554349 302.489811 197.486414 292.421876 197.486414 280.030572 L 197.486414 234.983017 C 197.486414 222.591713 207.554349 212.523778 220.010191 212.523778 C 232.401495 212.523778 242.46943 222.591713 242.46943 234.983017 Z M 242.46943 280.030572 " transform="matrix(0.0605263, 0, 0, 0.0605263, 0, 0)"/>
<path fill="none" stroke-width="15" stroke-linecap="butt" stroke-linejoin="miter" stroke="rgb(0%, 0%, 0%)" stroke-opacity="1" stroke-miterlimit="4" d="M 167.476223 280.030572 C 167.476223 292.421876 157.408289 302.489811 145.016984 302.489811 C 132.561142 302.489811 122.493207 292.421876 122.493207 280.030572 L 122.493207 234.983017 C 122.493207 222.591713 132.561142 212.523778 145.016984 212.523778 C 157.408289 212.523778 167.476223 222.591713 167.476223 234.983017 Z M 167.476223 280.030572 " transform="matrix(0.0605263, 0, 0, 0.0605263, 0, 0)"/>
</svg>
