<?xml version="1.0" encoding="UTF-8"?>
<svg xmlns="http://www.w3.org/2000/svg" xmlns:xlink="http://www.w3.org/1999/xlink" width="23" height="23" viewBox="0 0 23 23">
<path fill-rule="nonzero" fill="rgb(100%, 100%, 100%)" fill-opacity="1" stroke-width="20" stroke-linecap="square" stroke-linejoin="miter" stroke="rgb(0%, 0%, 0%)" stroke-opacity="1" stroke-miterlimit="5" d="M 10.003397 369.996605 L 10.003397 10.003397 L 95.838995 10.003397 L 369.996605 284.161006 L 369.996605 369.996605 Z M 10.003397 369.996605 " transform="matrix(0.0605263, 0, 0, 0.0605263, 0, 0)"/>
<path fill="none" stroke-width="50" stroke-linecap="butt" stroke-linejoin="miter" stroke="rgb(0%, 0%, 0%)" stroke-opacity="1" stroke-miterlimit="4" d="M 550.056629 85.07918 L 374.943358 85.07918 L 374.943358 184.898047 L 450.022635 184.898047 C 491.326994 184.898047 525.101912 218.672965 525.101912 259.977324 L 525.101912 310.101884 C 525.101912 351.406242 491.326994 384.966034 450.022635 384.966034 C 408.50315 384.966034 374.943358 351.406242 374.943358 310.101884 " transform="matrix(0.0181579, 0, 0, 0.0181579, -1.210524, 11.318423)"/>
<path fill="none" stroke-width="15" stroke-linecap="butt" stroke-linejoin="miter" stroke="rgb(0%, 0%, 0%)" stroke-opacity="1" stroke-miterlimit="4" d="M 212.523778 280.030572 C 212.523778 292.421876 202.455843 302.489811 190.000001 302.489811 C 177.544158 302.489811 167.476223 292.421876 167.476223 280.030572 L 167.476223 234.983017 C 167.476223 222.591713 177.544158 212.523778 190.000001 212.523778 C 202.455843 212.523778 212.523778 222.591713 212.523778 234.983017 Z M 212.523778 280.030572 " transform="matrix(0.0605263, 0, 0, 0.0605263, 0, 0)"/>
<path fill-rule="nonzero" fill="rgb(0%, 0%, 0%)" fill-opacity="1" d="M 3.328125 12.40625 L 2.421875 14.222656 L 3.328125 14.222656 L 3.328125 18.761719 L 4.238281 18.761719 L 4.238281 12.40625 Z M 3.328125 12.40625 "/>
</svg>
