<?xml version="1.0" encoding="UTF-8"?>
<svg xmlns="http://www.w3.org/2000/svg" xmlns:xlink="http://www.w3.org/1999/xlink" width="23" height="23" viewBox="0 0 23 23">
<path fill-rule="nonzero" fill="rgb(100%, 100%, 100%)" fill-opacity="1" stroke-width="20" stroke-linecap="square" stroke-linejoin="miter" stroke="rgb(0%, 0%, 0%)" stroke-opacity="1" stroke-miterlimit="5" d="M 10.003399 369.996698 L 10.003399 10.003399 L 95.839019 10.003399 L 369.996698 284.161079 L 369.996698 369.996698 Z M 10.003399 369.996698 L 10.003399 369.996698 M 10.003399 369.996698 " transform="matrix(0.0605263, 0, 0, 0.0605263, 0, 0)"/>
<path fill="none" stroke-width="15" stroke-linecap="butt" stroke-linejoin="miter" stroke="rgb(0%, 0%, 0%)" stroke-opacity="1" stroke-miterlimit="4" d="M 167.476266 280.030643 C 167.476266 292.42195 157.408329 302.489888 145.017021 302.489888 C 132.561175 302.489888 122.493238 292.42195 122.493238 280.030643 L 122.493238 234.983077 C 122.493238 222.591769 132.561175 212.523832 145.017021 212.523832 C 157.408329 212.523832 167.476266 222.591769 167.476266 234.983077 Z M 167.476266 280.030643 " transform="matrix(0.0605263, 0, 0, 0.0605263, 0, 0)"/>
<path fill-rule="nonzero" fill="rgb(0%, 0%, 0%)" fill-opacity="1" d="M 4.238281 12.410156 C 3.234375 12.410156 2.421875 13.222656 2.421875 14.222656 C 2.421875 14.746094 2.644531 15.242188 3.039062 15.585938 C 2.644531 15.929688 2.421875 16.425781 2.421875 16.949219 C 2.421875 17.949219 3.234375 18.761719 4.238281 18.761719 C 5.238281 18.761719 6.050781 17.949219 6.050781 16.949219 C 6.050781 16.425781 5.828125 15.929688 5.4375 15.585938 C 5.828125 15.242188 6.050781 14.746094 6.050781 14.222656 C 6.050781 13.222656 5.238281 12.410156 4.238281 12.410156 Z M 4.238281 13.316406 C 4.738281 13.316406 5.144531 13.722656 5.144531 14.222656 C 5.144531 14.726562 4.738281 15.132812 4.238281 15.132812 C 3.734375 15.132812 3.328125 14.726562 3.328125 14.222656 C 3.328125 13.722656 3.734375 13.316406 4.238281 13.316406 Z M 4.238281 16.039062 C 4.738281 16.039062 5.144531 16.445312 5.144531 16.949219 C 5.144531 17.449219 4.738281 17.855469 4.238281 17.855469 C 3.734375 17.855469 3.328125 17.449219 3.328125 16.949219 C 3.328125 16.445312 3.734375 16.039062 4.238281 16.039062 Z M 4.238281 16.039062 "/>
</svg>
