<?xml version="1.0" encoding="UTF-8"?>
<svg xmlns="http://www.w3.org/2000/svg" xmlns:xlink="http://www.w3.org/1999/xlink" width="23" height="23" viewBox="0 0 23 23">
<path fill-rule="nonzero" fill="rgb(100%, 100%, 100%)" fill-opacity="1" stroke-width="20" stroke-linecap="square" stroke-linejoin="miter" stroke="rgb(0%, 0%, 0%)" stroke-opacity="1" stroke-miterlimit="5" d="M 10.003397 369.996605 L 10.003397 10.003397 L 95.838995 10.003397 L 369.996605 284.161006 L 369.996605 369.996605 Z M 10.003397 369.996605 " transform="matrix(0.0605263, 0, 0, 0.0605263, 0, 0)"/>
<path fill="none" stroke-width="50" stroke-linecap="butt" stroke-linejoin="miter" stroke="rgb(0%, 0%, 0%)" stroke-opacity="1" stroke-miterlimit="4" d="M 549.898114 85.07918 L 374.99997 85.07918 L 374.99997 184.898047 L 450.079247 184.898047 C 491.383606 184.898047 524.943397 218.672965 524.943397 259.977324 L 524.943397 310.101884 C 524.943397 351.406242 491.383606 384.966034 450.079247 384.966034 C 408.559762 384.966034 374.99997 351.406242 374.99997 310.101884 " transform="matrix(0.0181579, 0, 0, 0.0181579, -3.934208, 11.318423)"/>
<path fill="none" stroke-width="15" stroke-linecap="butt" stroke-linejoin="miter" stroke="rgb(0%, 0%, 0%)" stroke-opacity="1" stroke-miterlimit="4" d="M 167.476223 280.030572 C 167.476223 292.421876 157.408289 302.489811 145.016984 302.489811 C 132.561142 302.489811 122.493207 292.421876 122.493207 280.030572 L 122.493207 234.983017 C 122.493207 222.591713 132.561142 212.523778 145.016984 212.523778 C 157.408289 212.523778 167.476223 222.591713 167.476223 234.983017 Z M 167.476223 280.030572 " transform="matrix(0.0605263, 0, 0, 0.0605263, 0, 0)"/>
</svg>
