<?xml version="1.0" encoding="UTF-8"?>
<svg xmlns="http://www.w3.org/2000/svg" xmlns:xlink="http://www.w3.org/1999/xlink" width="23" height="23" viewBox="0 0 23 23">
<path fill-rule="nonzero" fill="rgb(100%, 100%, 100%)" fill-opacity="1" stroke-width="20" stroke-linecap="square" stroke-linejoin="miter" stroke="rgb(0%, 0%, 0%)" stroke-opacity="1" stroke-miterlimit="5" d="M 10.003397 369.996605 L 10.003397 10.003397 L 95.838995 10.003397 L 369.996605 284.161006 L 369.996605 369.996605 Z M 10.003397 369.996605 " transform="matrix(0.0605263, 0, 0, 0.0605263, 0, 0)"/>
<path fill="none" stroke-width="15" stroke-linecap="butt" stroke-linejoin="miter" stroke="rgb(0%, 0%, 0%)" stroke-opacity="1" stroke-miterlimit="4" d="M 242.46943 280.030572 C 242.46943 292.421876 232.401495 302.489811 220.010191 302.489811 C 207.554349 302.489811 197.486414 292.421876 197.486414 280.030572 L 197.486414 234.983017 C 197.486414 222.591713 207.554349 212.523778 220.010191 212.523778 C 232.401495 212.523778 242.46943 222.591713 242.46943 234.983017 Z M 242.46943 280.030572 " transform="matrix(0.0605263, 0, 0, 0.0605263, 0, 0)"/>
<path fill="none" stroke-width="15" stroke-linecap="butt" stroke-linejoin="miter" stroke="rgb(0%, 0%, 0%)" stroke-opacity="1" stroke-miterlimit="4" d="M 167.476223 280.030572 C 167.476223 292.421876 157.408289 302.489811 145.016984 302.489811 C 132.561142 302.489811 122.493207 292.421876 122.493207 280.030572 L 122.493207 234.983017 C 122.493207 222.591713 132.561142 212.523778 145.016984 212.523778 C 157.408289 212.523778 167.476223 222.591713 167.476223 234.983017 Z M 167.476223 280.030572 " transform="matrix(0.0605263, 0, 0, 0.0605263, 0, 0)"/>
<path fill="none" stroke-width="49.999901" stroke-linecap="butt" stroke-linejoin="miter" stroke="rgb(0%, 0%, 0%)" stroke-opacity="1" stroke-miterlimit="4" d="M 375.000026 159.898142 C 375.000026 118.593808 408.559798 85.034037 450.079259 85.034037 C 491.383593 85.034037 524.943364 118.593808 524.943364 159.898142 C 524.943364 201.417603 491.383593 234.977374 450.079259 234.977374 L 424.90943 234.977374 L 450.079259 234.977374 C 491.383593 234.977374 524.943364 268.537146 524.943364 310.056607 C 524.943364 351.360941 491.383593 384.920712 450.079259 384.920712 C 408.559798 384.920712 375.000026 351.360941 375.000026 310.056607 " transform="matrix(0.0181579, 0, 0, -0.0181579, -3.934213, 19.852633)"/>
</svg>
