<?xml version="1.0" encoding="UTF-8"?>
<svg xmlns="http://www.w3.org/2000/svg" xmlns:xlink="http://www.w3.org/1999/xlink" width="23" height="23" viewBox="0 0 23 23">
<path fill-rule="nonzero" fill="rgb(100%, 100%, 100%)" fill-opacity="1" stroke-width="20" stroke-linecap="square" stroke-linejoin="miter" stroke="rgb(0%, 0%, 0%)" stroke-opacity="1" stroke-miterlimit="5" d="M 10.003397 369.996605 L 10.003397 10.003397 L 95.838995 10.003397 L 369.996605 284.161006 L 369.996605 369.996605 Z M 10.003397 369.996605 " transform="matrix(0.0605263, 0, 0, 0.0605263, 0, 0)"/>
<path fill="none" stroke-width="15" stroke-linecap="butt" stroke-linejoin="miter" stroke="rgb(0%, 0%, 0%)" stroke-opacity="1" stroke-miterlimit="4" d="M 212.523778 280.030572 C 212.523778 292.421876 202.455843 302.489811 190.000001 302.489811 C 177.544158 302.489811 167.476223 292.421876 167.476223 280.030572 L 167.476223 234.983017 C 167.476223 222.591713 177.544158 212.523778 190.000001 212.523778 C 202.455843 212.523778 212.523778 222.591713 212.523778 234.983017 Z M 212.523778 280.030572 " transform="matrix(0.0605263, 0, 0, 0.0605263, 0, 0)"/>
<path fill="none" stroke-width="15" stroke-linecap="butt" stroke-linejoin="miter" stroke="rgb(0%, 0%, 0%)" stroke-opacity="1" stroke-miterlimit="4" d="M 137.530571 280.030572 C 137.530571 292.421876 127.398098 302.489811 115.006794 302.489811 C 102.550951 302.489811 92.483017 292.421876 92.483017 280.030572 L 92.483017 234.983017 C 92.483017 222.591713 102.550951 212.523778 115.006794 212.523778 C 127.398098 212.523778 137.530571 222.591713 137.530571 234.983017 Z M 137.530571 280.030572 " transform="matrix(0.0605263, 0, 0, 0.0605263, 0, 0)"/>
<path fill-rule="nonzero" fill="rgb(0%, 0%, 0%)" fill-opacity="1" d="M 3.328125 12.40625 L 2.421875 14.222656 L 3.328125 14.222656 L 3.328125 18.761719 L 4.238281 18.761719 L 4.238281 12.40625 Z M 3.328125 12.40625 "/>
</svg>
