<?xml version="1.0" encoding="UTF-8"?>
<svg xmlns="http://www.w3.org/2000/svg" xmlns:xlink="http://www.w3.org/1999/xlink" width="21" height="14" viewBox="0 0 21 14">
<path fill-rule="nonzero" fill="rgb(100%, 100%, 100%)" fill-opacity="1" stroke-width="2.29487" stroke-linecap="butt" stroke-linejoin="round" stroke="rgb(0%, 0%, 0%)" stroke-opacity="1" stroke-miterlimit="4" d="M 17.155138 53.155138 L 61.000004 53.155138 L 104.84487 82.000004 L 104.84487 110.84487 L 17.155138 110.84487 Z M 17.155138 53.155138 " transform="matrix(0.233333, 0, 0, 0.233333, -3.733334, -12.133334)"/>
<path fill-rule="nonzero" fill="rgb(0%, 0%, 0%)" fill-opacity="1" d="M 5.898438 10.757812 L 5.898438 11.949219 L 1.410156 11.949219 C 1.457031 11.5 1.601562 11.074219 1.847656 10.671875 C 2.089844 10.269531 2.570312 9.734375 3.285156 9.070312 C 3.863281 8.53125 4.21875 8.167969 4.347656 7.976562 C 4.523438 7.710938 4.613281 7.449219 4.613281 7.191406 C 4.613281 6.90625 4.535156 6.6875 4.382812 6.53125 C 4.226562 6.378906 4.015625 6.300781 3.746094 6.300781 C 3.480469 6.300781 3.265625 6.382812 3.109375 6.542969 C 2.949219 6.703125 2.859375 6.972656 2.835938 7.347656 L 1.558594 7.21875 C 1.632812 6.511719 1.875 6.007812 2.273438 5.699219 C 2.675781 5.394531 3.175781 5.242188 3.777344 5.242188 C 4.4375 5.242188 4.957031 5.417969 5.332031 5.773438 C 5.707031 6.128906 5.898438 6.570312 5.898438 7.101562 C 5.898438 7.402344 5.84375 7.6875 5.734375 7.957031 C 5.628906 8.230469 5.457031 8.515625 5.222656 8.8125 C 5.066406 9.011719 4.789062 9.296875 4.382812 9.664062 C 3.980469 10.035156 3.722656 10.28125 3.617188 10.402344 C 3.507812 10.527344 3.421875 10.644531 3.355469 10.757812 Z M 5.898438 10.757812 "/>
<path fill-rule="nonzero" fill="rgb(0%, 0%, 0%)" fill-opacity="1" d="M 8.933594 5.242188 C 9.578125 5.242188 10.085938 5.472656 10.449219 5.933594 C 10.882812 6.480469 11.101562 7.386719 11.101562 8.652344 C 11.101562 9.917969 10.882812 10.828125 10.445312 11.378906 C 10.082031 11.835938 9.578125 12.0625 8.933594 12.0625 C 8.28125 12.0625 7.757812 11.8125 7.359375 11.3125 C 6.960938 10.8125 6.761719 9.921875 6.761719 8.640625 C 6.761719 7.382812 6.980469 6.476562 7.417969 5.925781 C 7.78125 5.46875 8.285156 5.242188 8.933594 5.242188 Z M 8.933594 6.300781 C 8.777344 6.300781 8.640625 6.351562 8.519531 6.449219 C 8.394531 6.550781 8.300781 6.726562 8.234375 6.980469 C 8.148438 7.3125 8.101562 7.871094 8.101562 8.652344 C 8.101562 9.4375 8.140625 9.976562 8.222656 10.269531 C 8.300781 10.5625 8.398438 10.757812 8.519531 10.855469 C 8.640625 10.953125 8.777344 11 8.933594 11 C 9.085938 11 9.226562 10.953125 9.347656 10.851562 C 9.46875 10.753906 9.5625 10.578125 9.628906 10.320312 C 9.71875 9.992188 9.761719 9.4375 9.761719 8.652344 C 9.761719 7.871094 9.722656 7.332031 9.644531 7.039062 C 9.5625 6.746094 9.464844 6.550781 9.34375 6.449219 C 9.226562 6.351562 9.085938 6.300781 8.933594 6.300781 Z M 8.933594 6.300781 "/>
<path fill-rule="nonzero" fill="rgb(0%, 0%, 0%)" fill-opacity="1" d="M 14.128906 5.242188 C 14.773438 5.242188 15.28125 5.472656 15.644531 5.933594 C 16.078125 6.480469 16.296875 7.386719 16.296875 8.652344 C 16.296875 9.917969 16.078125 10.828125 15.640625 11.378906 C 15.277344 11.835938 14.773438 12.0625 14.128906 12.0625 C 13.476562 12.0625 12.953125 11.8125 12.554688 11.3125 C 12.15625 10.8125 11.957031 9.921875 11.957031 8.640625 C 11.957031 7.382812 12.175781 6.476562 12.613281 5.925781 C 12.976562 5.46875 13.480469 5.242188 14.128906 5.242188 Z M 14.128906 6.300781 C 13.972656 6.300781 13.835938 6.351562 13.714844 6.449219 C 13.589844 6.550781 13.496094 6.726562 13.429688 6.980469 C 13.34375 7.3125 13.296875 7.871094 13.296875 8.652344 C 13.296875 9.4375 13.335938 9.976562 13.417969 10.269531 C 13.496094 10.5625 13.59375 10.757812 13.714844 10.855469 C 13.835938 10.953125 13.972656 11 14.128906 11 C 14.28125 11 14.421875 10.953125 14.542969 10.851562 C 14.664062 10.753906 14.757812 10.578125 14.824219 10.320312 C 14.914062 9.992188 14.957031 9.4375 14.957031 8.652344 C 14.957031 7.871094 14.917969 7.332031 14.839844 7.039062 C 14.757812 6.746094 14.660156 6.550781 14.539062 6.449219 C 14.421875 6.351562 14.28125 6.300781 14.128906 6.300781 Z M 14.128906 6.300781 "/>
</svg>
