<?xml version="1.0" encoding="UTF-8"?>
<svg xmlns="http://www.w3.org/2000/svg" xmlns:xlink="http://www.w3.org/1999/xlink" width="13.333333" height="20" viewBox="0 0 13.333333 20">
<path fill-rule="nonzero" fill="rgb(100%, 100%, 100%)" fill-opacity="1" stroke-width="15.568" stroke-linecap="butt" stroke-linejoin="round" stroke="rgb(0%, 0%, 0%)" stroke-opacity="1" stroke-miterlimit="4" d="M 91.875 -561.328125 L 708.046875 -561.328125 C 745.78125 -561.328125 776.25 -530.625 776.25 -493.125 L 776.25 523.125 C 776.25 560.625 745.78125 591.328125 708.046875 591.328125 L 91.875 591.328125 C 54.375 591.328125 23.671875 560.625 23.671875 523.125 L 23.671875 -493.125 C 23.671875 -530.625 54.375 -561.328125 91.875 -561.328125 Z M 91.875 -561.328125 " transform="matrix(0.0166667, 0, 0, 0.0166667, 0, 9.75)"/>
<path fill="none" stroke-width="0.1" stroke-linecap="butt" stroke-linejoin="miter" stroke="rgb(100%, 100%, 100%)" stroke-opacity="1" stroke-miterlimit="10" d="M 297.861921 67.976487 C 301.625797 66.360765 305.56838 65.282389 309.689668 64.741358 C 310.188012 110.428332 309.96969 156.11592 309.930689 201.624188 C 303.659711 201.808729 297.744609 204.859625 294.156982 209.879356 C 288.237273 218.305244 286.436703 228.698431 284.81576 238.553966 C 279.405759 279.408514 280.086801 320.974507 285.247464 361.999162 C 286.85121 372.210266 288.096622 382.421676 291.671659 392.093592 C 293.459024 397.108716 296.321387 402.122918 301.156577 404.806269 C 303.842691 406.416463 306.888059 406.951352 309.933735 407.127908 C 310.074667 451.740191 310.036587 496.173461 309.9982 540.965063 C 296.382474 539.901735 284.205607 532.387187 273.821018 524.154438 C 258.781481 511.98402 247.14933 496.04819 238.026431 479.035212 C 226.041475 456.649698 218.179342 431.93149 213.00486 407.031812 C 206.759064 377.833061 204.276223 348.093586 203.585047 318.352576 C 203.078411 282.340589 204.542452 246.506078 210.843526 211.204921 C 217.143985 176.620429 227.385798 142.390893 246.940273 112.811698 C 259.498198 93.80931 276.354581 76.594901 297.861921 67.976487 Z M 297.861921 67.976487 " transform="matrix(0.0109105, -0.0108918, 0.0109105, 0.0108918, -0.210241, 5.261689)"/>
<path fill-rule="nonzero" fill="rgb(0%, 0%, 0%)" fill-opacity="1" d="M 3.78125 2.757812 C 3.804688 2.699219 3.835938 2.644531 3.875 2.59375 C 4.378906 3.085938 4.875 3.585938 5.371094 4.082031 C 5.304688 4.152344 5.273438 4.25 5.289062 4.34375 C 5.316406 4.5 5.410156 4.632812 5.5 4.757812 C 5.886719 5.261719 6.347656 5.707031 6.851562 6.097656 C 6.980469 6.191406 7.105469 6.289062 7.25 6.355469 C 7.324219 6.390625 7.410156 6.414062 7.492188 6.390625 C 7.539062 6.378906 7.578125 6.351562 7.613281 6.320312 C 8.101562 6.804688 8.585938 7.289062 9.074219 7.777344 C 8.914062 7.914062 8.699219 7.964844 8.496094 7.988281 C 8.199219 8.019531 7.898438 7.972656 7.613281 7.886719 C 7.238281 7.773438 6.882812 7.589844 6.554688 7.375 C 6.167969 7.125 5.816406 6.828125 5.484375 6.511719 C 5.085938 6.125 4.710938 5.71875 4.394531 5.265625 C 4.085938 4.820312 3.824219 4.335938 3.714844 3.800781 C 3.644531 3.457031 3.640625 3.085938 3.78125 2.757812 Z M 3.78125 2.757812 "/>
<path fill="none" stroke-width="0.1" stroke-linecap="butt" stroke-linejoin="miter" stroke="rgb(100%, 100%, 100%)" stroke-opacity="1" stroke-miterlimit="10" d="M 320.260332 64.911465 C 332.981301 64.721396 345.52295 64.710648 358.064599 64.699899 C 365.947921 64.693143 373.108435 71.853658 373.101679 79.73698 C 373.070969 115.570262 373.040259 151.403544 373.00955 187.236826 C 373.182113 194.940828 366.009315 202.113627 358.1263 201.76205 C 345.584651 201.772799 332.68467 201.783854 320.143021 201.794603 C 320.361342 156.107014 320.221331 110.419733 320.260332 64.911465 Z M 320.260332 64.911465 " transform="matrix(0.0109105, -0.0108918, 0.0109105, 0.0108918, -0.210241, 5.261689)"/>
<path fill-rule="nonzero" fill="rgb(10.196078%, 10.196078%, 10.196078%)" fill-opacity="1" d="M 3.992188 2.480469 C 4.128906 2.339844 4.265625 2.203125 4.402344 2.066406 C 4.488281 1.980469 4.644531 1.980469 4.730469 2.066406 C 5.121094 2.457031 5.511719 2.847656 5.902344 3.238281 C 5.988281 3.320312 5.988281 3.476562 5.898438 3.558594 C 5.761719 3.695312 5.621094 3.835938 5.484375 3.972656 C 4.988281 3.472656 4.488281 2.976562 3.992188 2.480469 Z M 3.992188 2.480469 "/>
<path fill="none" stroke-width="0.1" stroke-linecap="butt" stroke-linejoin="miter" stroke="rgb(100%, 100%, 100%)" stroke-opacity="1" stroke-miterlimit="10" d="M 320.325693 406.760669 C 332.867342 406.749921 345.408991 406.739172 357.95064 406.728424 C 364.042298 406.723203 369.772245 410.659951 371.917635 416.033101 C 373.348203 419.256868 373.166119 422.661183 372.984035 426.065498 C 372.955475 459.390451 372.926915 492.715403 372.898355 526.040355 C 373.072761 531.594361 369.663839 537.151437 364.466017 539.485053 C 361.956459 540.920534 358.910476 541.102311 356.043814 541.104768 C 344.039818 540.935889 332.214835 540.946023 320.210532 541.135477 C 320.248919 496.343875 320.287306 451.552272 320.325693 406.760669 Z M 320.325693 406.760669 " transform="matrix(0.0109105, -0.0108918, 0.0109105, 0.0108918, -0.210241, 5.261689)"/>
<path fill-rule="nonzero" fill="rgb(0%, 0%, 0%)" fill-opacity="1" d="M 7.722656 6.203125 C 7.859375 6.066406 7.996094 5.929688 8.132812 5.792969 C 8.199219 5.726562 8.304688 5.707031 8.386719 5.742188 C 8.4375 5.761719 8.472656 5.800781 8.507812 5.839844 C 8.871094 6.203125 9.234375 6.566406 9.597656 6.929688 C 9.660156 6.988281 9.683594 7.085938 9.652344 7.167969 C 9.640625 7.210938 9.609375 7.246094 9.578125 7.277344 C 9.445312 7.40625 9.316406 7.535156 9.1875 7.667969 C 8.699219 7.179688 8.210938 6.691406 7.722656 6.203125 Z M 7.722656 6.203125 "/>
<path fill-rule="nonzero" fill="rgb(0%, 0%, 0%)" fill-opacity="1" d="M 3.339844 11.742188 L 3.339844 11.308594 L 4.171875 11.308594 L 4.171875 12.335938 C 4.089844 12.441406 3.972656 12.535156 3.820312 12.613281 C 3.667969 12.695312 3.511719 12.734375 3.355469 12.734375 C 3.15625 12.734375 2.980469 12.679688 2.832031 12.566406 C 2.683594 12.453125 2.574219 12.292969 2.5 12.082031 C 2.421875 11.871094 2.386719 11.640625 2.386719 11.394531 C 2.386719 11.125 2.429688 10.886719 2.511719 10.679688 C 2.59375 10.46875 2.714844 10.308594 2.878906 10.199219 C 3 10.113281 3.152344 10.070312 3.335938 10.070312 C 3.570312 10.070312 3.757812 10.136719 3.890625 10.273438 C 4.023438 10.40625 4.109375 10.589844 4.148438 10.828125 L 3.765625 10.925781 C 3.738281 10.796875 3.6875 10.699219 3.613281 10.625 C 3.539062 10.550781 3.445312 10.515625 3.335938 10.515625 C 3.164062 10.515625 3.03125 10.585938 2.933594 10.730469 C 2.832031 10.875 2.785156 11.089844 2.785156 11.375 C 2.785156 11.679688 2.832031 11.910156 2.933594 12.0625 C 3.035156 12.214844 3.167969 12.289062 3.332031 12.289062 C 3.410156 12.289062 3.492188 12.269531 3.574219 12.226562 C 3.652344 12.183594 3.722656 12.132812 3.78125 12.070312 L 3.78125 11.742188 Z M 3.339844 11.742188 "/>
<path fill-rule="nonzero" fill="rgb(0%, 0%, 0%)" fill-opacity="1" d="M 4.429688 11.851562 L 4.804688 11.804688 C 4.824219 11.972656 4.871094 12.097656 4.941406 12.179688 C 5.007812 12.257812 5.101562 12.296875 5.21875 12.296875 C 5.34375 12.296875 5.4375 12.261719 5.5 12.191406 C 5.5625 12.121094 5.59375 12.039062 5.59375 11.941406 C 5.59375 11.882812 5.582031 11.828125 5.554688 11.789062 C 5.527344 11.746094 5.480469 11.707031 5.417969 11.675781 C 5.371094 11.65625 5.269531 11.617188 5.109375 11.5625 C 4.902344 11.492188 4.757812 11.410156 4.671875 11.308594 C 4.554688 11.167969 4.496094 10.992188 4.496094 10.789062 C 4.496094 10.660156 4.523438 10.535156 4.578125 10.421875 C 4.632812 10.308594 4.714844 10.21875 4.816406 10.160156 C 4.921875 10.101562 5.046875 10.070312 5.195312 10.070312 C 5.433594 10.070312 5.613281 10.140625 5.734375 10.285156 C 5.855469 10.425781 5.917969 10.613281 5.925781 10.851562 L 5.539062 10.875 C 5.523438 10.742188 5.488281 10.644531 5.433594 10.589844 C 5.378906 10.53125 5.296875 10.5 5.191406 10.5 C 5.078125 10.5 4.988281 10.53125 4.925781 10.59375 C 4.886719 10.632812 4.867188 10.6875 4.867188 10.753906 C 4.867188 10.816406 4.882812 10.867188 4.921875 10.910156 C 4.972656 10.964844 5.089844 11.023438 5.277344 11.082031 C 5.464844 11.144531 5.601562 11.203125 5.691406 11.269531 C 5.78125 11.332031 5.851562 11.417969 5.902344 11.53125 C 5.953125 11.640625 5.980469 11.777344 5.980469 11.941406 C 5.980469 12.089844 5.949219 12.226562 5.890625 12.355469 C 5.828125 12.484375 5.742188 12.582031 5.632812 12.644531 C 5.519531 12.707031 5.382812 12.738281 5.214844 12.738281 C 4.972656 12.738281 4.789062 12.660156 4.660156 12.511719 C 4.53125 12.359375 4.453125 12.140625 4.429688 11.851562 Z M 4.429688 11.851562 "/>
<path fill-rule="nonzero" fill="rgb(0%, 0%, 0%)" fill-opacity="1" d="M 6.300781 12.691406 L 6.300781 10.113281 L 6.878906 10.113281 L 7.226562 11.871094 L 7.566406 10.113281 L 8.144531 10.113281 L 8.144531 12.691406 L 7.789062 12.691406 L 7.789062 10.664062 L 7.410156 12.691406 L 7.039062 12.691406 L 6.660156 10.664062 L 6.660156 12.691406 Z M 6.300781 12.691406 "/>
<path fill-rule="nonzero" fill="rgb(0%, 0%, 0%)" fill-opacity="1" d="M 8.488281 12.003906 L 8.488281 11.511719 L 9.207031 11.511719 L 9.207031 12.003906 Z M 8.488281 12.003906 "/>
<path fill-rule="nonzero" fill="rgb(0%, 0%, 0%)" fill-opacity="1" d="M 9.421875 12.691406 L 9.421875 10.113281 L 10.234375 10.113281 C 10.4375 10.113281 10.585938 10.136719 10.679688 10.183594 C 10.769531 10.230469 10.84375 10.3125 10.902344 10.429688 C 10.957031 10.550781 10.984375 10.683594 10.984375 10.835938 C 10.984375 11.03125 10.941406 11.191406 10.859375 11.316406 C 10.773438 11.441406 10.648438 11.519531 10.480469 11.554688 C 10.5625 11.621094 10.632812 11.691406 10.6875 11.769531 C 10.742188 11.847656 10.8125 11.988281 10.90625 12.1875 L 11.140625 12.691406 L 10.679688 12.691406 L 10.398438 12.128906 C 10.300781 11.929688 10.234375 11.804688 10.195312 11.753906 C 10.160156 11.699219 10.121094 11.664062 10.082031 11.644531 C 10.039062 11.625 9.976562 11.617188 9.886719 11.617188 L 9.808594 11.617188 L 9.808594 12.691406 Z M 9.808594 11.203125 L 10.09375 11.203125 C 10.277344 11.203125 10.394531 11.195312 10.441406 11.171875 C 10.484375 11.152344 10.523438 11.117188 10.546875 11.0625 C 10.574219 11.011719 10.585938 10.949219 10.585938 10.871094 C 10.585938 10.785156 10.570312 10.714844 10.535156 10.660156 C 10.5 10.605469 10.453125 10.574219 10.390625 10.558594 C 10.359375 10.554688 10.265625 10.550781 10.109375 10.550781 L 9.808594 10.550781 Z M 9.808594 11.203125 "/>
<path fill-rule="nonzero" fill="rgb(0%, 0%, 0%)" fill-opacity="1" d="M 5.101562 17.066406 L 5.101562 14.398438 L 5.71875 14.398438 C 5.953125 14.398438 6.105469 14.414062 6.175781 14.441406 C 6.285156 14.480469 6.375 14.566406 6.449219 14.699219 C 6.523438 14.835938 6.5625 15.007812 6.5625 15.21875 C 6.5625 15.382812 6.539062 15.523438 6.496094 15.632812 C 6.453125 15.746094 6.402344 15.832031 6.335938 15.894531 C 6.269531 15.960938 6.203125 16 6.136719 16.023438 C 6.042969 16.046875 5.910156 16.0625 5.734375 16.0625 L 5.484375 16.0625 L 5.484375 17.066406 Z M 5.484375 14.851562 L 5.484375 15.609375 L 5.695312 15.609375 C 5.847656 15.609375 5.949219 15.59375 6 15.566406 C 6.050781 15.539062 6.089844 15.496094 6.121094 15.433594 C 6.148438 15.375 6.164062 15.304688 6.164062 15.226562 C 6.164062 15.128906 6.144531 15.050781 6.101562 14.988281 C 6.0625 14.925781 6.011719 14.886719 5.949219 14.871094 C 5.902344 14.855469 5.808594 14.851562 5.671875 14.851562 Z M 5.484375 14.851562 "/>
<path fill-rule="nonzero" fill="rgb(0%, 0%, 0%)" fill-opacity="1" d="M 6.890625 17.066406 L 6.890625 14.421875 L 7.277344 14.421875 L 7.277344 16.617188 L 8.234375 16.617188 L 8.234375 17.066406 Z M 6.890625 17.066406 "/>
<path fill="none" stroke-width="19.948999" stroke-linecap="butt" stroke-linejoin="round" stroke="rgb(0%, 0%, 0%)" stroke-opacity="1" stroke-miterlimit="4" d="M -198.180065 387.56452 C -198.180065 470.29969 -317.281 537.247938 -464.025114 537.247938 C -611.063305 537.247938 -730.16424 470.29969 -730.16424 387.56452 C -730.16424 304.829349 -611.063305 237.881102 -464.025114 237.881102 C -317.281 237.881102 -198.180065 304.829349 -198.180065 387.56452 Z M -198.180065 387.56452 " transform="matrix(0.0132831, 0, 0, 0.0133615, 12.831667, 10.555919)"/>
</svg>
