<?xml version="1.0" encoding="UTF-8"?>
<svg xmlns="http://www.w3.org/2000/svg" xmlns:xlink="http://www.w3.org/1999/xlink" width="12.61592" height="30" viewBox="0 0 12.61592 30">
<path fill-rule="nonzero" fill="rgb(100%, 100%, 100%)" fill-opacity="1" stroke-width="0.259659" stroke-linecap="butt" stroke-linejoin="round" stroke="rgb(0%, 0%, 0%)" stroke-opacity="1" stroke-miterlimit="4" d="M 1.272447 11.111116 L 11.547156 11.111116 C 12.177434 11.111116 12.684827 11.622473 12.684827 12.248786 L 12.684827 29.198886 C 12.684827 29.825199 12.177434 30.336556 11.547156 30.336556 L 1.272447 30.336556 C 0.646133 30.336556 0.134776 29.825199 0.134776 29.198886 L 0.134776 12.248786 C 0.134776 11.622473 0.646133 11.111116 1.272447 11.111116 Z M 1.272447 11.111116 " transform="matrix(0.985429, 0, 0, 0.985429, 0, 0)"/>
<path fill="none" stroke-width="0.00154279" stroke-linecap="butt" stroke-linejoin="miter" stroke="rgb(100%, 100%, 100%)" stroke-opacity="1" stroke-miterlimit="10" d="M 3.524003 13.477629 C 3.543824 13.418168 3.575536 13.362672 3.615176 13.31114 C 4.118605 13.802677 4.61807 14.306106 5.113571 14.801607 C 5.046183 14.872959 5.014471 14.968096 5.030327 15.063232 C 5.058075 15.217828 5.153211 15.352604 5.240419 15.479453 C 5.628892 15.982882 6.088717 16.426851 6.59611 16.819288 C 6.722958 16.91046 6.849806 17.00956 6.992511 17.076948 C 7.067827 17.112624 7.155035 17.136408 7.234315 17.112624 C 7.281883 17.100732 7.321523 17.072984 7.3572 17.041272 C 7.844773 17.524881 8.332346 18.012454 8.819919 18.500027 C 8.657394 18.634803 8.443338 18.686336 8.241173 18.71012 C 7.943873 18.741832 7.642608 18.694264 7.3572 18.607055 C 6.980619 18.496063 6.627822 18.313719 6.298809 18.095698 C 5.910337 17.845966 5.55754 17.548665 5.228527 17.231544 C 4.828162 16.847036 4.451581 16.438743 4.134461 15.986846 C 3.825268 15.538913 3.563644 15.055304 3.456615 14.520163 C 3.385263 14.175294 3.381299 13.802677 3.524003 13.477629 Z M 3.524003 13.477629 " transform="matrix(0.985429, 0, 0, 0.985429, 0, 0)"/>
<path fill-rule="nonzero" fill="rgb(0%, 0%, 0%)" fill-opacity="1" d="M 3.472656 13.28125 C 3.492188 13.222656 3.523438 13.167969 3.5625 13.117188 C 4.058594 13.601562 4.550781 14.097656 5.039062 14.585938 C 4.972656 14.65625 4.941406 14.75 4.957031 14.84375 C 4.984375 14.996094 5.078125 15.128906 5.164062 15.253906 C 5.546875 15.75 6 16.1875 6.5 16.574219 C 6.625 16.664062 6.75 16.761719 6.890625 16.828125 C 6.964844 16.863281 7.050781 16.886719 7.128906 16.863281 C 7.175781 16.851562 7.214844 16.824219 7.25 16.792969 C 7.730469 17.269531 8.210938 17.75 8.691406 18.230469 C 8.53125 18.363281 8.320312 18.414062 8.121094 18.4375 C 7.828125 18.46875 7.53125 18.421875 7.25 18.335938 C 6.878906 18.226562 6.53125 18.046875 6.207031 17.832031 C 5.824219 17.585938 5.476562 17.292969 5.152344 16.980469 C 4.757812 16.601562 4.386719 16.199219 4.074219 15.753906 C 3.769531 15.3125 3.511719 14.835938 3.40625 14.308594 C 3.335938 13.96875 3.332031 13.601562 3.472656 13.28125 Z M 3.472656 13.28125 "/>
<path fill="none" stroke-width="0.00154279" stroke-linecap="butt" stroke-linejoin="miter" stroke="rgb(100%, 100%, 100%)" stroke-opacity="1" stroke-miterlimit="10" d="M 3.734096 13.200148 C 3.868872 13.057444 4.007612 12.922667 4.142389 12.783927 C 4.229597 12.696719 4.384193 12.696719 4.471401 12.783927 C 4.863838 13.176364 5.252311 13.564837 5.644748 13.957274 C 5.731956 14.040518 5.731956 14.195114 5.640784 14.278358 C 5.506008 14.413135 5.363303 14.555839 5.228527 14.690615 C 4.729062 14.19115 4.229597 13.695649 3.734096 13.200148 Z M 3.734096 13.200148 " transform="matrix(0.985429, 0, 0, 0.985429, 0, 0)"/>
<path fill-rule="nonzero" fill="rgb(0%, 0%, 0%)" fill-opacity="1" d="M 3.679688 13.007812 C 3.8125 12.867188 3.949219 12.734375 4.082031 12.597656 C 4.167969 12.511719 4.320312 12.511719 4.40625 12.597656 C 4.792969 12.984375 5.175781 13.367188 5.5625 13.753906 C 5.648438 13.835938 5.648438 13.988281 5.558594 14.070312 C 5.425781 14.203125 5.285156 14.34375 5.152344 14.476562 C 4.660156 13.984375 4.167969 13.496094 3.679688 13.007812 Z M 3.679688 13.007812 "/>
<path fill="none" stroke-width="0.00154279" stroke-linecap="butt" stroke-linejoin="miter" stroke="rgb(100%, 100%, 100%)" stroke-opacity="1" stroke-miterlimit="10" d="M 7.468192 16.922352 C 7.602968 16.787576 7.741708 16.648835 7.876485 16.514059 C 7.943873 16.446671 8.050901 16.426851 8.130181 16.462527 C 8.181713 16.482347 8.217389 16.521987 8.253065 16.561627 C 8.617754 16.922352 8.978479 17.287041 9.343168 17.651729 C 9.406592 17.711189 9.430376 17.806326 9.398664 17.88957 C 9.386772 17.933174 9.35506 17.96885 9.323348 18.000562 C 9.188571 18.12741 9.061723 18.258223 8.930911 18.389035 C 8.443338 17.901462 7.955765 17.413889 7.468192 16.922352 Z M 7.468192 16.922352 " transform="matrix(0.985429, 0, 0, 0.985429, 0, 0)"/>
<path fill-rule="nonzero" fill="rgb(0%, 0%, 0%)" fill-opacity="1" d="M 7.359375 16.675781 C 7.492188 16.542969 7.628906 16.40625 7.761719 16.273438 C 7.828125 16.207031 7.933594 16.1875 8.011719 16.222656 C 8.0625 16.242188 8.097656 16.28125 8.132812 16.320312 C 8.492188 16.675781 8.847656 17.035156 9.207031 17.394531 C 9.269531 17.453125 9.292969 17.546875 9.261719 17.628906 C 9.25 17.671875 9.21875 17.707031 9.1875 17.738281 C 9.054688 17.863281 8.929688 17.992188 8.800781 18.121094 C 8.320312 17.640625 7.839844 17.160156 7.359375 16.675781 Z M 7.359375 16.675781 "/>
<path fill-rule="nonzero" fill="rgb(0%, 0%, 0%)" fill-opacity="1" d="M 3.035156 22.140625 L 3.035156 21.710938 L 3.855469 21.710938 L 3.855469 22.726562 C 3.773438 22.828125 3.660156 22.921875 3.507812 23 C 3.359375 23.078125 3.203125 23.117188 3.050781 23.117188 C 2.855469 23.117188 2.679688 23.0625 2.535156 22.953125 C 2.386719 22.839844 2.28125 22.683594 2.207031 22.476562 C 2.128906 22.265625 2.09375 22.039062 2.09375 21.796875 C 2.09375 21.53125 2.136719 21.296875 2.21875 21.09375 C 2.300781 20.882812 2.417969 20.726562 2.582031 20.617188 C 2.699219 20.535156 2.851562 20.492188 3.03125 20.492188 C 3.261719 20.492188 3.449219 20.554688 3.578125 20.691406 C 3.710938 20.824219 3.792969 21.003906 3.832031 21.238281 L 3.457031 21.335938 C 3.429688 21.207031 3.378906 21.109375 3.304688 21.039062 C 3.230469 20.964844 3.140625 20.929688 3.03125 20.929688 C 2.863281 20.929688 2.730469 21 2.636719 21.140625 C 2.535156 21.285156 2.488281 21.496094 2.488281 21.777344 C 2.488281 22.078125 2.535156 22.304688 2.636719 22.457031 C 2.734375 22.605469 2.867188 22.679688 3.027344 22.679688 C 3.105469 22.679688 3.1875 22.660156 3.265625 22.617188 C 3.34375 22.574219 3.414062 22.523438 3.472656 22.464844 L 3.472656 22.140625 Z M 3.035156 22.140625 "/>
<path fill-rule="nonzero" fill="rgb(0%, 0%, 0%)" fill-opacity="1" d="M 4.109375 22.246094 L 4.480469 22.203125 C 4.5 22.367188 4.546875 22.492188 4.613281 22.570312 C 4.679688 22.648438 4.773438 22.6875 4.886719 22.6875 C 5.011719 22.6875 5.105469 22.652344 5.164062 22.582031 C 5.226562 22.511719 5.257812 22.433594 5.257812 22.335938 C 5.257812 22.277344 5.246094 22.222656 5.21875 22.1875 C 5.191406 22.144531 5.148438 22.105469 5.085938 22.074219 C 5.039062 22.054688 4.9375 22.015625 4.78125 21.960938 C 4.578125 21.894531 4.433594 21.8125 4.347656 21.710938 C 4.234375 21.574219 4.175781 21.398438 4.175781 21.199219 C 4.175781 21.074219 4.203125 20.949219 4.257812 20.835938 C 4.3125 20.726562 4.390625 20.636719 4.492188 20.578125 C 4.597656 20.523438 4.71875 20.492188 4.867188 20.492188 C 5.101562 20.492188 5.277344 20.558594 5.398438 20.703125 C 5.515625 20.839844 5.578125 21.027344 5.585938 21.261719 L 5.203125 21.285156 C 5.1875 21.152344 5.152344 21.058594 5.101562 21.003906 C 5.046875 20.945312 4.964844 20.914062 4.863281 20.914062 C 4.75 20.914062 4.660156 20.945312 4.597656 21.007812 C 4.5625 21.046875 4.542969 21.101562 4.542969 21.164062 C 4.542969 21.226562 4.558594 21.277344 4.597656 21.320312 C 4.644531 21.375 4.761719 21.429688 4.945312 21.488281 C 5.132812 21.550781 5.265625 21.609375 5.355469 21.671875 C 5.441406 21.734375 5.511719 21.820312 5.5625 21.933594 C 5.613281 22.039062 5.640625 22.175781 5.640625 22.335938 C 5.640625 22.484375 5.609375 22.617188 5.550781 22.746094 C 5.488281 22.871094 5.40625 22.96875 5.296875 23.03125 C 5.183594 23.089844 5.050781 23.121094 4.882812 23.121094 C 4.644531 23.121094 4.464844 23.046875 4.335938 22.898438 C 4.210938 22.75 4.132812 22.53125 4.109375 22.246094 Z M 4.109375 22.246094 "/>
<path fill-rule="nonzero" fill="rgb(0%, 0%, 0%)" fill-opacity="1" d="M 5.957031 23.074219 L 5.957031 20.535156 L 6.527344 20.535156 L 6.867188 22.265625 L 7.203125 20.535156 L 7.773438 20.535156 L 7.773438 23.074219 L 7.421875 23.074219 L 7.421875 21.078125 L 7.050781 23.074219 L 6.683594 23.074219 L 6.308594 21.078125 L 6.308594 23.074219 Z M 5.957031 23.074219 "/>
<path fill-rule="nonzero" fill="rgb(0%, 0%, 0%)" fill-opacity="1" d="M 8.113281 22.398438 L 8.113281 21.914062 L 8.820312 21.914062 L 8.820312 22.398438 Z M 8.113281 22.398438 "/>
<path fill-rule="nonzero" fill="rgb(0%, 0%, 0%)" fill-opacity="1" d="M 9.035156 23.074219 L 9.035156 20.535156 L 9.835938 20.535156 C 10.035156 20.535156 10.179688 20.554688 10.273438 20.601562 C 10.363281 20.648438 10.4375 20.730469 10.492188 20.84375 C 10.546875 20.964844 10.574219 21.097656 10.574219 21.246094 C 10.574219 21.4375 10.53125 21.597656 10.449219 21.71875 C 10.367188 21.84375 10.242188 21.921875 10.078125 21.953125 C 10.160156 22.019531 10.226562 22.089844 10.28125 22.167969 C 10.335938 22.242188 10.40625 22.382812 10.496094 22.578125 L 10.726562 23.074219 L 10.273438 23.074219 L 9.996094 22.519531 C 9.898438 22.324219 9.835938 22.203125 9.796875 22.152344 C 9.761719 22.097656 9.722656 22.0625 9.683594 22.042969 C 9.640625 22.023438 9.582031 22.015625 9.492188 22.015625 L 9.414062 22.015625 L 9.414062 23.074219 Z M 9.414062 21.609375 L 9.695312 21.609375 C 9.878906 21.609375 9.992188 21.601562 10.039062 21.578125 C 10.082031 21.558594 10.121094 21.523438 10.144531 21.46875 C 10.167969 21.417969 10.179688 21.359375 10.179688 21.28125 C 10.179688 21.195312 10.164062 21.125 10.132812 21.074219 C 10.097656 21.019531 10.050781 20.988281 9.988281 20.972656 C 9.957031 20.96875 9.867188 20.964844 9.710938 20.964844 L 9.414062 20.964844 Z M 9.414062 21.609375 "/>
<path fill-rule="nonzero" fill="rgb(0%, 0%, 0%)" fill-opacity="1" d="M 4.773438 27.390625 L 4.773438 24.757812 L 5.382812 24.757812 C 5.613281 24.757812 5.761719 24.773438 5.832031 24.800781 C 5.941406 24.839844 6.027344 24.925781 6.101562 25.054688 C 6.175781 25.191406 6.214844 25.359375 6.214844 25.566406 C 6.214844 25.730469 6.191406 25.867188 6.148438 25.976562 C 6.105469 26.089844 6.054688 26.171875 5.988281 26.234375 C 5.925781 26.300781 5.859375 26.339844 5.792969 26.363281 C 5.703125 26.386719 5.570312 26.398438 5.398438 26.398438 L 5.152344 26.398438 L 5.152344 27.390625 Z M 5.152344 25.207031 L 5.152344 25.953125 L 5.359375 25.953125 C 5.507812 25.953125 5.609375 25.9375 5.660156 25.910156 C 5.710938 25.882812 5.746094 25.839844 5.777344 25.78125 C 5.804688 25.722656 5.820312 25.652344 5.820312 25.574219 C 5.820312 25.480469 5.800781 25.402344 5.757812 25.339844 C 5.71875 25.28125 5.671875 25.242188 5.609375 25.226562 C 5.5625 25.210938 5.46875 25.207031 5.335938 25.207031 Z M 5.152344 25.207031 "/>
<path fill-rule="nonzero" fill="rgb(0%, 0%, 0%)" fill-opacity="1" d="M 6.539062 27.390625 L 6.539062 24.78125 L 6.917969 24.78125 L 6.917969 26.949219 L 7.863281 26.949219 L 7.863281 27.390625 Z M 6.539062 27.390625 "/>
<path fill="none" stroke-width="0.265962" stroke-linecap="butt" stroke-linejoin="round" stroke="rgb(0%, 0%, 0%)" stroke-opacity="1" stroke-miterlimit="4" d="M 9.945697 26.46372 C 9.945697 27.569678 8.360094 28.465544 6.409802 28.465544 C 4.455545 28.465544 2.873906 27.569678 2.873906 26.46372 C 2.873906 25.357762 4.455545 24.461896 6.409802 24.461896 C 8.360094 24.461896 9.945697 25.357762 9.945697 26.46372 Z M 9.945697 26.46372 " transform="matrix(0.985429, 0, 0, 0.985429, 0, 0)"/>
<path fill-rule="nonzero" fill="rgb(100%, 0%, 0%)" fill-opacity="1" d="M 11.242188 11.015625 L 12.570312 11.847656 C 12.570312 11.847656 12.570312 11.851562 12.570312 11.851562 L 1.355469 29.796875 L 0.0234375 28.964844 C 0.0234375 28.964844 0.0234375 28.964844 0.0234375 28.960938 L 11.238281 11.019531 C 11.238281 11.015625 11.242188 11.015625 11.242188 11.015625 Z M 11.242188 11.015625 "/>
<path fill-rule="nonzero" fill="rgb(100%, 0%, 0%)" fill-opacity="1" d="M 0.40625 28.921875 L 1.425781 29.554688 C 1.425781 29.554688 1.425781 29.558594 1.425781 29.558594 L 1.199219 29.917969 L 0.179688 29.285156 C 0.179688 29.28125 0.179688 29.28125 0.179688 29.28125 Z M 0.40625 28.921875 "/>
<path fill-rule="nonzero" fill="rgb(100%, 0%, 0%)" fill-opacity="1" d="M 11.421875 10.914062 L 12.4375 11.546875 C 12.441406 11.546875 12.441406 11.550781 12.441406 11.550781 L 12.214844 11.910156 L 11.199219 11.277344 C 11.195312 11.277344 11.195312 11.273438 11.195312 11.273438 Z M 11.421875 10.914062 "/>
<path fill="none" stroke-width="0.259659" stroke-linecap="butt" stroke-linejoin="round" stroke="rgb(0%, 0%, 0%)" stroke-opacity="1" stroke-miterlimit="4" d="M 1.272447 11.111116 L 11.547156 11.111116 C 12.177434 11.111116 12.684827 11.622473 12.684827 12.248786 L 12.684827 29.198886 C 12.684827 29.825199 12.177434 30.336556 11.547156 30.336556 L 1.272447 30.336556 C 0.646133 30.336556 0.134776 29.825199 0.134776 29.198886 L 0.134776 12.248786 C 0.134776 11.622473 0.646133 11.111116 1.272447 11.111116 Z M 1.272447 11.111116 " transform="matrix(0.985429, 0, 0, 0.985429, 0, 0)"/>
<path fill-rule="nonzero" fill="rgb(0%, 0%, 0%)" fill-opacity="1" d="M 11.726562 5.410156 C 11.726562 8.398438 9.304688 10.820312 6.316406 10.820312 C 3.328125 10.820312 0.90625 8.398438 0.90625 5.410156 C 0.90625 2.421875 3.328125 0 6.316406 0 C 9.304688 0 11.726562 2.421875 11.726562 5.410156 Z M 11.726562 5.410156 "/>
<path fill-rule="nonzero" fill="rgb(100%, 100%, 0%)" fill-opacity="1" d="M 3.792969 2.886719 L 3.792969 7.933594 L 4.511719 7.933594 L 4.511719 5.773438 L 5.953125 7.933594 L 6.675781 7.933594 L 5.234375 5.773438 C 6.027344 5.773438 6.675781 5.121094 6.675781 4.328125 C 6.675781 3.535156 6.027344 2.886719 5.234375 2.886719 Z M 4.511719 3.605469 L 5.234375 3.605469 C 5.636719 3.605469 5.953125 3.925781 5.953125 4.328125 C 5.953125 4.730469 5.636719 5.050781 5.234375 5.050781 L 4.511719 5.050781 Z M 4.511719 3.605469 "/>
<path fill-rule="nonzero" fill="rgb(100%, 100%, 0%)" fill-opacity="1" d="M 8.121094 2.886719 L 7.398438 4.328125 L 8.121094 4.328125 L 8.121094 7.9375 L 8.839844 7.9375 L 8.839844 2.886719 Z M 8.121094 2.886719 "/>
</svg>
