<?xml version="1.0" encoding="UTF-8"?>
<svg xmlns="http://www.w3.org/2000/svg" xmlns:xlink="http://www.w3.org/1999/xlink" width="19.933775" height="10" viewBox="0 0 19.933775 10">
<path fill-rule="nonzero" fill="rgb(100%, 100%, 100%)" fill-opacity="1" stroke-width="1" stroke-linecap="round" stroke-linejoin="miter" stroke="rgb(0%, 0%, 0%)" stroke-opacity="1" stroke-miterlimit="4" d="M 149.96187 -0.0152905 C 67.163949 -0.0152905 0.0515347 67.236093 0.0515347 149.997706 L 299.932074 149.997706 C 299.932074 67.236093 232.81966 -0.0152905 149.96187 -0.0152905 Z M 149.96187 -0.0152905 " transform="matrix(0.0652473, 0, 0, 0.0644736, 0.106012, 0.227548)"/>
<path fill-rule="nonzero" fill="rgb(0%, 0%, 0%)" fill-opacity="1" d="M 9.894531 1.195312 C 5.636719 1.195312 2.078125 4.1875 1.261719 8.15625 L 1.105469 8.933594 L 18.683594 8.933594 L 18.527344 8.15625 C 17.707031 4.1875 14.148438 1.195312 9.894531 1.195312 Z M 9.894531 2.484375 C 13.246094 2.484375 16.070312 4.65625 17.039062 7.644531 L 2.746094 7.644531 C 3.714844 4.65625 6.542969 2.484375 9.894531 2.484375 Z M 9.894531 2.484375 "/>
</svg>
