<?xml version="1.0" encoding="UTF-8"?>
<svg xmlns="http://www.w3.org/2000/svg" xmlns:xlink="http://www.w3.org/1999/xlink" width="18.377323" height="16" viewBox="0 0 18.377323 16">
<path fill-rule="nonzero" fill="rgb(100%, 100%, 100%)" fill-opacity="1" stroke-width="0.5" stroke-linecap="butt" stroke-linejoin="round" stroke="rgb(0%, 0%, 0%)" stroke-opacity="1" stroke-miterlimit="4" d="M 317.470027 184.639328 L 312.401587 209.863021 L 293.090834 192.860765 Z M 317.470027 184.639328 " transform="matrix(0.527784, -0.460847, 0.460847, 0.527784, -243.392164, 49.031165)"/>
<path fill-rule="nonzero" fill="rgb(0%, 0%, 0%)" fill-opacity="1" d="M 9.078125 3.261719 C 8.066406 4.804688 7.171875 6.429688 6.222656 8.011719 C 5.011719 10.09375 3.800781 12.171875 2.585938 14.253906 C 2.4375 14.679688 2.992188 14.65625 3.265625 14.636719 C 7.265625 14.648438 11.265625 14.714844 15.265625 14.695312 C 15.53125 14.738281 15.886719 14.523438 15.699219 14.226562 C 13.632812 10.582031 11.558594 6.9375 9.457031 3.316406 C 9.339844 3.1875 9.226562 3.171875 9.078125 3.261719 Z M 9.320312 4.980469 C 10.9375 7.6875 12.492188 10.449219 14.035156 13.207031 C 10.820312 13.257812 7.609375 13.238281 4.394531 13.210938 C 5.972656 10.417969 7.605469 7.648438 9.265625 4.902344 L 9.296875 4.949219 Z M 9.320312 4.980469 "/>
</svg>
