<?xml version="1.0" encoding="UTF-8"?>
<svg xmlns="http://www.w3.org/2000/svg" xmlns:xlink="http://www.w3.org/1999/xlink" width="18.377323" height="16" viewBox="0 0 18.377323 16">
<path fill-rule="nonzero" fill="rgb(100%, 100%, 100%)" fill-opacity="1" stroke-width="1.11206" stroke-linecap="butt" stroke-linejoin="round" stroke="rgb(0%, 0%, 0%)" stroke-opacity="1" stroke-miterlimit="4" d="M 29.374678 0.558034 L 57.782142 50.230797 L 0.558027 49.995205 Z M 29.374678 0.558034 " transform="matrix(0.315031, 0, 0, 0.315031, -0.0000142835, -0.0000164771)"/>
<path fill-rule="evenodd" fill="rgb(0%, 0%, 0%)" fill-opacity="1" stroke-width="1" stroke-linecap="butt" stroke-linejoin="miter" stroke="rgb(0%, 0%, 0%)" stroke-opacity="1" stroke-miterlimit="4" d="M 365.609822 504.955527 L 384.543998 504.955527 L 381.803688 499.561704 C 381.196108 497.788563 382.014481 495.184649 379.385768 494.564669 L 374.128341 494.564669 C 372.3552 494.391075 371.636023 495.519438 371.214437 497.094186 C 370.52006 499.561704 365.609822 499.586504 365.609822 504.955527 Z M 365.609822 504.955527 " transform="matrix(0.315031, 0, 0, 0.315031, -108.947791, -146.783443)"/>
<path fill-rule="nonzero" fill="rgb(98.823529%, 99.215686%, 99.215686%)" fill-opacity="1" d="M 6.726562 12.671875 C 6.460938 12.214844 6.5625 11.628906 6.96875 11.289062 C 7.378906 10.945312 7.96875 10.945312 8.378906 11.289062 C 8.785156 11.628906 8.886719 12.214844 8.621094 12.671875 L 7.671875 12.125 Z M 6.726562 12.671875 "/>
<path fill-rule="nonzero" fill="rgb(98.823529%, 99.215686%, 99.215686%)" fill-opacity="1" d="M 9.5 12.671875 C 9.234375 12.214844 9.335938 11.628906 9.742188 11.289062 C 10.148438 10.945312 10.742188 10.945312 11.148438 11.289062 C 11.554688 11.628906 11.660156 12.214844 11.394531 12.671875 L 10.445312 12.125 Z M 9.5 12.671875 "/>
<path fill-rule="nonzero" fill="rgb(0%, 0%, 0%)" fill-opacity="1" d="M 11.257812 12.320312 C 11.257812 12.769531 10.890625 13.132812 10.445312 13.132812 C 9.996094 13.132812 9.632812 12.769531 9.632812 12.320312 C 9.632812 11.871094 9.996094 11.507812 10.445312 11.507812 C 10.890625 11.507812 11.257812 11.871094 11.257812 12.320312 Z M 11.257812 12.320312 "/>
<path fill-rule="nonzero" fill="rgb(0%, 0%, 0%)" fill-opacity="1" d="M 8.453125 12.320312 C 8.453125 12.769531 8.089844 13.132812 7.640625 13.132812 C 7.191406 13.132812 6.828125 12.769531 6.828125 12.320312 C 6.828125 11.871094 7.191406 11.507812 7.640625 11.507812 C 8.089844 11.507812 8.453125 11.871094 8.453125 12.320312 Z M 8.453125 12.320312 "/>
<path fill-rule="nonzero" fill="rgb(0%, 0%, 0%)" fill-opacity="1" d="M 9.078125 3.261719 C 8.066406 4.804688 7.171875 6.429688 6.222656 8.011719 C 5.011719 10.09375 3.800781 12.171875 2.585938 14.253906 C 2.4375 14.679688 2.996094 14.65625 3.265625 14.636719 C 7.265625 14.648438 11.265625 14.714844 15.265625 14.695312 C 15.53125 14.738281 15.886719 14.523438 15.699219 14.226562 C 13.632812 10.582031 11.558594 6.9375 9.457031 3.316406 C 9.339844 3.1875 9.226562 3.171875 9.078125 3.261719 Z M 9.320312 4.980469 C 10.9375 7.6875 12.492188 10.449219 14.035156 13.207031 C 10.820312 13.257812 7.609375 13.238281 4.394531 13.210938 C 5.972656 10.417969 7.605469 7.648438 9.265625 4.902344 L 9.296875 4.949219 Z M 9.320312 4.980469 "/>
</svg>
