<?xml version="1.0" encoding="UTF-8"?>
<svg xmlns="http://www.w3.org/2000/svg" xmlns:xlink="http://www.w3.org/1999/xlink" width="16.08008" height="28" viewBox="0 0 16.08008 28">
<path fill-rule="nonzero" fill="rgb(100%, 100%, 100%)" fill-opacity="1" stroke-width="1.11206" stroke-linecap="butt" stroke-linejoin="round" stroke="rgb(0%, 0%, 0%)" stroke-opacity="1" stroke-miterlimit="4" d="M 29.376588 0.552722 L 57.775332 50.236145 L 0.552713 49.995239 Z M 29.376588 0.552722 " transform="matrix(0.27565, 0, 0, 0.275652, -0.0000118224, -0.0000149596)"/>
<path fill-rule="evenodd" fill="rgb(0%, 0%, 0%)" fill-opacity="1" stroke-width="1" stroke-linecap="butt" stroke-linejoin="miter" stroke="rgb(0%, 0%, 0%)" stroke-opacity="1" stroke-miterlimit="4" d="M 365.601057 504.960868 L 384.533553 504.960868 L 381.798545 499.561728 C 381.18919 497.790356 382.01111 495.182898 379.375298 494.573546 L 374.132017 494.573546 C 372.360639 494.389323 371.637916 495.50883 371.212785 497.095979 C 370.518405 499.561728 365.601057 499.59007 365.601057 504.960868 Z M 365.601057 504.960868 " transform="matrix(0.27565, 0, 0, 0.275652, -95.328858, -128.435432)"/>
<path fill-rule="nonzero" fill="rgb(98.823529%, 99.215686%, 99.215686%)" fill-opacity="1" d="M 5.886719 11.089844 C 5.652344 10.6875 5.742188 10.175781 6.097656 9.878906 C 6.453125 9.578125 6.972656 9.578125 7.328125 9.878906 C 7.6875 10.175781 7.777344 10.6875 7.542969 11.089844 L 6.714844 10.609375 Z M 5.886719 11.089844 "/>
<path fill-rule="nonzero" fill="rgb(98.823529%, 99.215686%, 99.215686%)" fill-opacity="1" d="M 8.3125 11.089844 C 8.078125 10.6875 8.167969 10.175781 8.523438 9.878906 C 8.878906 9.578125 9.398438 9.578125 9.753906 9.878906 C 10.113281 10.175781 10.203125 10.6875 9.96875 11.089844 L 9.140625 10.609375 Z M 8.3125 11.089844 "/>
<path fill-rule="nonzero" fill="rgb(0%, 0%, 0%)" fill-opacity="1" d="M 9.847656 10.777344 C 9.847656 11.171875 9.53125 11.488281 9.136719 11.488281 C 8.746094 11.488281 8.425781 11.171875 8.425781 10.777344 C 8.425781 10.386719 8.746094 10.070312 9.136719 10.070312 C 9.53125 10.070312 9.847656 10.386719 9.847656 10.777344 Z M 9.847656 10.777344 "/>
<path fill-rule="nonzero" fill="rgb(0%, 0%, 0%)" fill-opacity="1" d="M 7.394531 10.777344 C 7.394531 11.171875 7.078125 11.488281 6.683594 11.488281 C 6.292969 11.488281 5.972656 11.171875 5.972656 10.777344 C 5.972656 10.386719 6.292969 10.070312 6.683594 10.070312 C 7.078125 10.070312 7.394531 10.386719 7.394531 10.777344 Z M 7.394531 10.777344 "/>
<path fill-rule="nonzero" fill="rgb(0%, 0%, 0%)" fill-opacity="1" d="M 7.941406 2.855469 C 7.058594 4.203125 6.277344 5.625 5.445312 7.011719 C 4.386719 8.832031 3.324219 10.652344 2.265625 12.472656 C 2.132812 12.84375 2.621094 12.824219 2.855469 12.804688 C 6.355469 12.816406 9.855469 12.875 13.355469 12.859375 C 13.589844 12.894531 13.902344 12.707031 13.734375 12.449219 C 11.929688 9.257812 10.113281 6.070312 8.273438 2.902344 C 8.171875 2.789062 8.070312 2.777344 7.941406 2.855469 Z M 8.152344 4.359375 C 9.570312 6.726562 10.929688 9.144531 12.28125 11.554688 C 9.46875 11.601562 6.65625 11.585938 3.847656 11.558594 C 5.226562 9.113281 6.652344 6.691406 8.109375 4.289062 L 8.136719 4.332031 Z M 8.152344 4.359375 "/>
<path fill-rule="nonzero" fill="rgb(100%, 100%, 100%)" fill-opacity="1" stroke-width="1.11206" stroke-linecap="butt" stroke-linejoin="round" stroke="rgb(0%, 0%, 0%)" stroke-opacity="1" stroke-miterlimit="4" d="M 29.376592 0.552479 L 57.775336 50.23611 L 0.552717 49.995203 Z M 29.376592 0.552479 " transform="matrix(0.27565, 0, 0, 0.27565, -0.0000130401, 14.000053)"/>
<path fill-rule="evenodd" fill="rgb(0%, 0%, 0%)" fill-opacity="1" stroke-width="1" stroke-linecap="butt" stroke-linejoin="miter" stroke="rgb(0%, 0%, 0%)" stroke-opacity="1" stroke-miterlimit="4" d="M 365.601062 504.960785 L 384.533558 504.960785 L 381.798549 499.561623 C 381.189195 497.790244 382.011114 495.182775 379.375303 494.573421 L 374.132022 494.573421 C 372.360643 494.389197 371.637921 495.508709 371.21279 497.095864 C 370.518409 499.561623 365.601062 499.589965 365.601062 504.960785 Z M 365.601062 504.960785 " transform="matrix(0.27565, 0, 0, 0.27565, -95.328859, -114.434828)"/>
<path fill-rule="nonzero" fill="rgb(98.823529%, 99.215686%, 99.215686%)" fill-opacity="1" d="M 5.886719 25.089844 C 5.652344 24.6875 5.742188 24.175781 6.097656 23.878906 C 6.453125 23.578125 6.972656 23.578125 7.328125 23.878906 C 7.6875 24.175781 7.777344 24.6875 7.542969 25.089844 L 6.714844 24.609375 Z M 5.886719 25.089844 "/>
<path fill-rule="nonzero" fill="rgb(98.823529%, 99.215686%, 99.215686%)" fill-opacity="1" d="M 8.3125 25.089844 C 8.078125 24.6875 8.167969 24.175781 8.523438 23.878906 C 8.878906 23.578125 9.398438 23.578125 9.753906 23.878906 C 10.113281 24.175781 10.203125 24.6875 9.96875 25.089844 L 9.140625 24.609375 Z M 8.3125 25.089844 "/>
<path fill-rule="nonzero" fill="rgb(0%, 0%, 0%)" fill-opacity="1" d="M 9.847656 24.777344 C 9.847656 25.171875 9.53125 25.488281 9.136719 25.488281 C 8.746094 25.488281 8.425781 25.171875 8.425781 24.777344 C 8.425781 24.386719 8.746094 24.070312 9.136719 24.070312 C 9.53125 24.070312 9.847656 24.386719 9.847656 24.777344 Z M 9.847656 24.777344 "/>
<path fill-rule="nonzero" fill="rgb(0%, 0%, 0%)" fill-opacity="1" d="M 7.394531 24.777344 C 7.394531 25.171875 7.078125 25.488281 6.683594 25.488281 C 6.292969 25.488281 5.972656 25.171875 5.972656 24.777344 C 5.972656 24.386719 6.292969 24.070312 6.683594 24.070312 C 7.078125 24.070312 7.394531 24.386719 7.394531 24.777344 Z M 7.394531 24.777344 "/>
<path fill-rule="nonzero" fill="rgb(0%, 0%, 0%)" fill-opacity="1" d="M 7.941406 16.855469 C 7.058594 18.203125 6.277344 19.625 5.445312 21.011719 C 4.386719 22.832031 3.324219 24.652344 2.265625 26.472656 C 2.132812 26.84375 2.621094 26.824219 2.855469 26.804688 C 6.355469 26.816406 9.855469 26.875 13.355469 26.859375 C 13.589844 26.894531 13.902344 26.707031 13.734375 26.449219 C 11.929688 23.257812 10.113281 20.070312 8.273438 16.902344 C 8.171875 16.789062 8.070312 16.777344 7.941406 16.855469 Z M 8.152344 18.359375 C 9.570312 20.726562 10.929688 23.144531 12.28125 25.554688 C 9.46875 25.601562 6.65625 25.585938 3.847656 25.558594 C 5.226562 23.113281 6.652344 20.691406 8.109375 18.289062 L 8.136719 18.332031 Z M 8.152344 18.359375 "/>
</svg>
