<?xml version="1.0" encoding="UTF-8"?>
<svg xmlns="http://www.w3.org/2000/svg" xmlns:xlink="http://www.w3.org/1999/xlink" width="18.377323" height="16" viewBox="0 0 18.377323 16">
<path fill-rule="nonzero" fill="rgb(100%, 100%, 100%)" fill-opacity="1" stroke-width="1.11206" stroke-linecap="butt" stroke-linejoin="round" stroke="rgb(0%, 0%, 0%)" stroke-opacity="1" stroke-miterlimit="4" d="M 29.374678 0.558034 L 57.782142 50.230797 L 0.558027 49.995205 Z M 29.374678 0.558034 " transform="matrix(0.315031, 0, 0, 0.315031, -0.0000142835, -0.0000164771)"/>
<path fill-rule="nonzero" fill="rgb(0%, 0%, 0%)" fill-opacity="1" d="M 9.078125 3.261719 C 8.066406 4.804688 7.171875 6.429688 6.222656 8.011719 C 5.011719 10.09375 3.800781 12.171875 2.585938 14.253906 C 2.4375 14.679688 2.996094 14.65625 3.265625 14.636719 C 7.265625 14.648438 11.265625 14.714844 15.265625 14.695312 C 15.53125 14.738281 15.886719 14.523438 15.699219 14.226562 C 13.632812 10.582031 11.558594 6.9375 9.457031 3.316406 C 9.339844 3.1875 9.226562 3.171875 9.078125 3.261719 Z M 9.320312 4.980469 C 10.9375 7.6875 12.492188 10.449219 14.035156 13.207031 C 10.820312 13.257812 7.609375 13.238281 4.394531 13.210938 C 5.972656 10.417969 7.605469 7.648438 9.265625 4.902344 L 9.296875 4.949219 Z M 9.320312 4.980469 "/>
<path fill-rule="nonzero" fill="rgb(0%, 0%, 0%)" fill-opacity="1" d="M 7.5 12.734375 L 7.5 8.671875 L 9.300781 8.671875 C 9.664062 8.671875 9.941406 8.707031 10.128906 8.78125 C 10.316406 8.855469 10.46875 8.984375 10.578125 9.167969 C 10.691406 9.351562 10.75 9.554688 10.75 9.78125 C 10.75 10.066406 10.65625 10.3125 10.46875 10.507812 C 10.28125 10.707031 9.996094 10.832031 9.605469 10.886719 C 9.746094 10.953125 9.855469 11.019531 9.929688 11.089844 C 10.085938 11.230469 10.234375 11.414062 10.375 11.628906 L 11.082031 12.734375 L 10.40625 12.734375 L 9.867188 11.890625 C 9.710938 11.644531 9.582031 11.457031 9.480469 11.328125 C 9.378906 11.199219 9.285156 11.109375 9.207031 11.058594 C 9.125 11.003906 9.042969 10.96875 8.960938 10.949219 C 8.902344 10.9375 8.800781 10.929688 8.664062 10.929688 L 8.039062 10.929688 L 8.039062 12.734375 Z M 8.039062 10.464844 L 9.195312 10.464844 C 9.441406 10.464844 9.632812 10.441406 9.769531 10.390625 C 9.910156 10.339844 10.015625 10.257812 10.085938 10.144531 C 10.160156 10.035156 10.195312 9.910156 10.195312 9.78125 C 10.195312 9.589844 10.125 9.429688 9.984375 9.304688 C 9.84375 9.183594 9.625 9.121094 9.324219 9.121094 L 8.039062 9.121094 Z M 8.039062 10.464844 "/>
</svg>
