<?xml version="1.0" encoding="UTF-8"?>
<svg xmlns="http://www.w3.org/2000/svg" xmlns:xlink="http://www.w3.org/1999/xlink" width="18.475843" height="16" viewBox="0 0 18.475843 16">
<path fill-rule="nonzero" fill="rgb(0%, 0%, 0%)" fill-opacity="1" d="M 9.238281 16 L 9.828125 14.976562 L 17.886719 1.023438 L 18.476562 0 L 0 0 L 0.589844 1.023438 L 8.648438 14.976562 Z M 9.238281 16 "/>
<path fill-rule="nonzero" fill="rgb(100%, 100%, 100%)" fill-opacity="1" d="M 9.238281 13.265625 L 2.367188 1.367188 L 16.109375 1.367188 Z M 9.238281 13.265625 "/>
<path fill-rule="nonzero" fill="rgb(0%, 0%, 0%)" fill-opacity="1" d="M 7.34375 8.382812 L 7.34375 3.578125 L 6.535156 4.167969 L 6.535156 3.304688 L 7.34375 2.71875 L 8.15625 2.71875 L 8.15625 8.382812 Z M 7.34375 8.382812 "/>
<path fill-rule="nonzero" fill="rgb(0%, 0%, 0%)" fill-opacity="1" d="M 8.820312 5.753906 L 8.820312 2.703125 L 11.828125 2.703125 L 11.828125 3.507812 L 9.582031 3.507812 L 9.582031 4.785156 C 9.835938 4.578125 10.140625 4.476562 10.484375 4.476562 C 10.699219 4.476562 10.894531 4.519531 11.070312 4.601562 C 11.25 4.6875 11.390625 4.78125 11.492188 4.894531 C 11.648438 5.0625 11.757812 5.242188 11.832031 5.445312 C 11.902344 5.636719 11.941406 5.972656 11.941406 6.441406 C 11.941406 6.820312 11.910156 7.101562 11.855469 7.289062 C 11.800781 7.46875 11.710938 7.640625 11.589844 7.792969 C 11.476562 7.941406 11.3125 8.078125 11.101562 8.210938 C 10.894531 8.335938 10.644531 8.394531 10.367188 8.394531 C 10 8.394531 9.648438 8.285156 9.308594 8.0625 C 8.972656 7.835938 8.773438 7.460938 8.714844 6.933594 L 9.523438 6.933594 C 9.621094 7.371094 9.886719 7.589844 10.335938 7.589844 C 10.730469 7.589844 10.960938 7.457031 11.027344 7.1875 C 11.097656 6.914062 11.128906 6.644531 11.128906 6.378906 C 11.128906 6.0625 11.074219 5.804688 10.96875 5.597656 C 10.863281 5.390625 10.640625 5.285156 10.3125 5.285156 C 10 5.285156 9.757812 5.445312 9.582031 5.753906 Z M 8.820312 5.753906 "/>
</svg>
