<?xml version="1.0" encoding="UTF-8"?>
<svg xmlns="http://www.w3.org/2000/svg" xmlns:xlink="http://www.w3.org/1999/xlink" width="18.475843" height="16" viewBox="0 0 18.475843 16">
<path fill-rule="nonzero" fill="rgb(0%, 0%, 0%)" fill-opacity="1" d="M 9.238281 16 L 9.828125 14.976562 L 17.886719 1.023438 L 18.476562 0 L 0 0 L 0.589844 1.023438 L 8.648438 14.976562 Z M 9.238281 16 "/>
<path fill-rule="nonzero" fill="rgb(100%, 100%, 100%)" fill-opacity="1" d="M 9.238281 13.265625 L 2.367188 1.367188 L 16.109375 1.367188 Z M 9.238281 13.265625 "/>
<path fill-rule="nonzero" fill="rgb(0%, 0%, 0%)" fill-opacity="1" d="M 7.285156 8.601562 L 7.285156 3.578125 L 6.4375 4.195312 L 6.4375 3.292969 L 7.285156 2.679688 L 8.136719 2.679688 L 8.136719 8.601562 Z M 7.285156 8.601562 "/>
<path fill-rule="nonzero" fill="rgb(0%, 0%, 0%)" fill-opacity="1" d="M 10.609375 2.625 C 10.925781 2.703125 11.183594 2.820312 11.371094 2.976562 C 11.566406 3.128906 11.742188 3.347656 11.898438 3.621094 C 11.929688 3.71875 11.949219 3.785156 11.953125 3.820312 C 11.96875 3.859375 11.988281 3.945312 12.019531 4.082031 C 12.027344 4.121094 12.027344 4.167969 12.03125 4.21875 C 12.03125 4.265625 12.035156 4.382812 12.035156 4.574219 C 12.035156 4.757812 12.035156 5.039062 12.035156 5.425781 C 12.035156 5.808594 12.039062 6.351562 12.039062 7.050781 C 11.984375 7.464844 11.863281 7.789062 11.671875 8.023438 C 11.484375 8.257812 11.199219 8.457031 10.820312 8.609375 C 10.15625 8.746094 9.558594 8.578125 9.015625 8.109375 C 8.773438 7.804688 8.640625 7.40625 8.621094 6.929688 C 8.761719 6.929688 8.902344 6.929688 9.046875 6.929688 C 9.1875 6.929688 9.332031 6.929688 9.476562 6.929688 C 9.523438 7.203125 9.59375 7.398438 9.683594 7.511719 C 9.777344 7.628906 9.964844 7.722656 10.238281 7.804688 C 10.515625 7.804688 10.726562 7.757812 10.875 7.664062 C 11.019531 7.574219 11.132812 7.394531 11.210938 7.121094 C 11.210938 6.910156 11.210938 6.695312 11.214844 6.476562 C 11.21875 6.261719 11.21875 6.042969 11.21875 5.828125 C 10.84375 6.039062 10.457031 6.160156 10.058594 6.1875 C 9.667969 6.214844 9.304688 6.0625 8.972656 5.722656 C 8.777344 5.484375 8.664062 5.21875 8.632812 4.929688 C 8.605469 4.640625 8.609375 4.34375 8.640625 4.035156 C 8.738281 3.605469 8.898438 3.285156 9.125 3.085938 C 9.355469 2.878906 9.683594 2.722656 10.117188 2.625 C 10.199219 2.625 10.28125 2.625 10.359375 2.625 C 10.441406 2.625 10.523438 2.625 10.609375 2.625 Z M 10.4375 3.480469 C 9.988281 3.480469 9.703125 3.640625 9.570312 3.957031 C 9.445312 4.273438 9.449219 4.617188 9.589844 4.996094 C 9.714844 5.179688 9.84375 5.292969 9.972656 5.335938 C 10.105469 5.382812 10.269531 5.402344 10.484375 5.402344 C 10.789062 5.324219 10.980469 5.191406 11.050781 5.003906 C 11.128906 4.8125 11.164062 4.574219 11.164062 4.28125 C 11.125 4.023438 11.054688 3.84375 10.957031 3.730469 C 10.863281 3.625 10.6875 3.539062 10.4375 3.480469 Z M 10.4375 3.480469 "/>
</svg>
