<?xml version="1.0" encoding="UTF-8"?>
<svg xmlns="http://www.w3.org/2000/svg" xmlns:xlink="http://www.w3.org/1999/xlink" width="18.475843" height="16" viewBox="0 0 18.475843 16">
<path fill-rule="nonzero" fill="rgb(0%, 0%, 0%)" fill-opacity="1" d="M 9.238281 16 L 9.828125 14.976562 L 17.886719 1.023438 L 18.476562 0 L 0 0 L 0.589844 1.023438 L 8.648438 14.976562 Z M 9.238281 16 "/>
<path fill-rule="nonzero" fill="rgb(100%, 100%, 100%)" fill-opacity="1" d="M 9.238281 13.265625 L 2.367188 1.367188 L 16.109375 1.367188 Z M 9.238281 13.265625 "/>
<path fill-rule="nonzero" fill="rgb(0%, 0%, 0%)" fill-opacity="1" d="M 7.398438 7.910156 L 7.398438 2.972656 L 6.570312 3.582031 L 6.570312 2.699219 L 7.398438 2.09375 L 8.238281 2.09375 L 8.238281 7.910156 Z M 7.398438 7.910156 "/>
<path fill-rule="nonzero" fill="rgb(0%, 0%, 0%)" fill-opacity="1" d="M 11.074219 6.285156 L 11.074219 3.816406 C 11.074219 3.535156 10.996094 3.320312 10.84375 3.160156 C 10.695312 3.003906 10.496094 2.925781 10.253906 2.925781 C 10.007812 2.925781 9.8125 3.003906 9.660156 3.160156 C 9.511719 3.320312 9.4375 3.535156 9.4375 3.816406 L 9.4375 6.285156 C 9.4375 6.5625 9.511719 6.785156 9.660156 6.9375 C 9.8125 7.089844 10.007812 7.171875 10.253906 7.171875 C 10.496094 7.171875 10.695312 7.089844 10.84375 6.9375 C 10.996094 6.785156 11.074219 6.5625 11.074219 6.285156 Z M 8.605469 6.328125 L 8.605469 3.765625 C 8.605469 3.234375 8.773438 2.820312 9.105469 2.53125 C 9.441406 2.238281 9.824219 2.09375 10.253906 2.09375 C 10.679688 2.09375 11.066406 2.238281 11.398438 2.53125 C 11.738281 2.820312 11.902344 3.234375 11.902344 3.765625 L 11.902344 6.328125 C 11.902344 6.867188 11.738281 7.277344 11.398438 7.5625 C 11.066406 7.851562 10.679688 8.003906 10.253906 8.003906 C 9.824219 8.003906 9.441406 7.851562 9.105469 7.5625 C 8.773438 7.277344 8.605469 6.867188 8.605469 6.328125 Z M 8.605469 6.328125 "/>
</svg>
