<?xml version="1.0" encoding="UTF-8"?>
<svg xmlns="http://www.w3.org/2000/svg" xmlns:xlink="http://www.w3.org/1999/xlink" width="18.475843" height="16" viewBox="0 0 18.475843 16">
<path fill-rule="nonzero" fill="rgb(0%, 0%, 0%)" fill-opacity="1" d="M 9.238281 16 L 9.828125 14.976562 L 17.886719 1.023438 L 18.476562 0 L 0 0 L 0.589844 1.023438 L 8.648438 14.976562 Z M 9.238281 16 "/>
<path fill-rule="nonzero" fill="rgb(100%, 100%, 100%)" fill-opacity="1" d="M 9.238281 13.265625 L 2.367188 1.367188 L 16.109375 1.367188 Z M 9.238281 13.265625 "/>
<path fill-rule="nonzero" fill="rgb(0%, 0%, 0%)" fill-opacity="1" d="M 7.199219 8.589844 L 7.199219 3.582031 L 6.359375 4.195312 L 6.359375 3.296875 L 7.199219 2.6875 L 8.046875 2.6875 L 8.046875 8.589844 Z M 7.199219 8.589844 "/>
<path fill-rule="nonzero" fill="rgb(0%, 0%, 0%)" fill-opacity="1" d="M 9.476562 4.335938 C 9.476562 4.609375 9.5625 4.820312 9.738281 4.960938 C 9.910156 5.105469 10.109375 5.179688 10.324219 5.179688 C 10.535156 5.179688 10.730469 5.105469 10.90625 4.960938 C 11.078125 4.820312 11.167969 4.609375 11.167969 4.335938 C 11.167969 4.058594 11.078125 3.847656 10.90625 3.707031 C 10.730469 3.558594 10.535156 3.488281 10.324219 3.488281 C 10.109375 3.488281 9.910156 3.558594 9.738281 3.707031 C 9.5625 3.847656 9.476562 4.058594 9.476562 4.335938 Z M 8.53125 6.867188 C 8.53125 6.292969 8.761719 5.851562 9.222656 5.542969 C 9.046875 5.386719 8.902344 5.210938 8.796875 5.023438 C 8.6875 4.832031 8.632812 4.605469 8.632812 4.347656 C 8.632812 3.875 8.796875 3.46875 9.121094 3.140625 C 9.445312 2.808594 9.847656 2.644531 10.324219 2.644531 C 10.796875 2.644531 11.199219 2.808594 11.523438 3.140625 C 11.851562 3.46875 12.011719 3.875 12.011719 4.347656 C 12.011719 4.605469 11.957031 4.832031 11.84375 5.023438 C 11.738281 5.210938 11.597656 5.386719 11.425781 5.542969 C 11.886719 5.855469 12.117188 6.296875 12.117188 6.867188 C 12.117188 7.386719 11.941406 7.816406 11.582031 8.140625 C 11.230469 8.464844 10.8125 8.632812 10.324219 8.632812 C 9.832031 8.632812 9.410156 8.464844 9.058594 8.140625 C 8.707031 7.816406 8.53125 7.386719 8.53125 6.867188 Z M 9.375 6.859375 C 9.375 7.125 9.46875 7.351562 9.65625 7.527344 C 9.847656 7.703125 10.066406 7.792969 10.324219 7.792969 C 10.574219 7.792969 10.792969 7.703125 10.984375 7.527344 C 11.175781 7.351562 11.277344 7.125 11.277344 6.859375 C 11.277344 6.589844 11.175781 6.363281 10.984375 6.1875 C 10.792969 6.011719 10.574219 5.921875 10.324219 5.921875 C 10.066406 5.921875 9.847656 6.011719 9.65625 6.1875 C 9.46875 6.363281 9.375 6.589844 9.375 6.859375 Z M 9.375 6.859375 "/>
</svg>
