<?xml version="1.0" encoding="UTF-8"?>
<svg xmlns="http://www.w3.org/2000/svg" xmlns:xlink="http://www.w3.org/1999/xlink" width="18.475843" height="16" viewBox="0 0 18.475843 16">
<path fill-rule="nonzero" fill="rgb(0%, 0%, 0%)" fill-opacity="1" d="M 9.238281 16 L 9.828125 14.976562 L 17.886719 1.023438 L 18.476562 0 L 0 0 L 0.589844 1.023438 L 8.648438 14.976562 Z M 9.238281 16 "/>
<path fill-rule="nonzero" fill="rgb(100%, 100%, 100%)" fill-opacity="1" d="M 9.238281 13.265625 L 2.367188 1.367188 L 16.109375 1.367188 Z M 9.238281 13.265625 "/>
<path fill-rule="nonzero" fill="rgb(0%, 0%, 0%)" fill-opacity="1" d="M 7.292969 7.980469 L 7.292969 2.917969 L 6.445312 3.535156 L 6.445312 2.628906 L 7.292969 2.011719 L 8.152344 2.011719 L 8.152344 7.980469 Z M 7.292969 7.980469 "/>
<path fill-rule="nonzero" fill="rgb(0%, 0%, 0%)" fill-opacity="1" d="M 8.636719 8.003906 L 8.636719 7.199219 L 10.964844 4.285156 C 11.054688 4.167969 11.113281 4.070312 11.140625 3.96875 C 11.167969 3.875 11.183594 3.785156 11.183594 3.695312 C 11.183594 3.488281 11.109375 3.292969 10.960938 3.117188 C 10.8125 2.9375 10.613281 2.847656 10.359375 2.847656 C 10.132812 2.847656 9.933594 2.925781 9.765625 3.082031 C 9.597656 3.230469 9.507812 3.441406 9.492188 3.707031 L 8.636719 3.707031 C 8.636719 3.230469 8.804688 2.824219 9.132812 2.496094 C 9.457031 2.160156 9.847656 1.992188 10.296875 1.992188 C 10.789062 1.992188 11.203125 2.160156 11.535156 2.496094 C 11.867188 2.828125 12.03125 3.230469 12.03125 3.703125 C 12.03125 4.105469 11.914062 4.453125 11.679688 4.75 L 9.761719 7.148438 L 12.03125 7.148438 L 12.03125 8.003906 Z M 8.636719 8.003906 "/>
</svg>
