<?xml version="1.0" encoding="UTF-8"?>
<svg xmlns="http://www.w3.org/2000/svg" xmlns:xlink="http://www.w3.org/1999/xlink" width="18.475843" height="16" viewBox="0 0 18.475843 16">
<path fill-rule="nonzero" fill="rgb(0%, 0%, 0%)" fill-opacity="1" d="M 9.238281 16 L 9.828125 14.976562 L 17.886719 1.023438 L 18.476562 0 L 0 0 L 0.589844 1.023438 L 8.648438 14.976562 Z M 9.238281 16 "/>
<path fill-rule="nonzero" fill="rgb(100%, 100%, 100%)" fill-opacity="1" d="M 9.238281 13.265625 L 2.367188 1.367188 L 16.109375 1.367188 Z M 9.238281 13.265625 "/>
<path fill-rule="nonzero" fill="rgb(0%, 0%, 0%)" fill-opacity="1" d="M 11.613281 5.921875 L 11.613281 3.765625 C 11.613281 3.523438 11.546875 3.328125 11.417969 3.195312 C 11.289062 3.058594 11.113281 2.984375 10.902344 2.984375 C 10.6875 2.984375 10.515625 3.058594 10.382812 3.195312 C 10.253906 3.328125 10.183594 3.523438 10.183594 3.765625 L 10.183594 5.921875 C 10.183594 6.167969 10.253906 6.359375 10.382812 6.496094 C 10.515625 6.628906 10.6875 6.699219 10.902344 6.699219 C 11.113281 6.699219 11.289062 6.628906 11.417969 6.496094 C 11.546875 6.359375 11.613281 6.167969 11.613281 5.921875 Z M 9.457031 5.964844 L 9.457031 3.722656 C 9.457031 3.257812 9.609375 2.894531 9.894531 2.644531 C 10.191406 2.386719 10.523438 2.261719 10.902344 2.261719 C 11.277344 2.261719 11.609375 2.386719 11.902344 2.644531 C 12.195312 2.894531 12.347656 3.257812 12.347656 3.722656 L 12.347656 5.964844 C 12.347656 6.433594 12.195312 6.792969 11.902344 7.046875 C 11.609375 7.296875 11.277344 7.425781 10.902344 7.425781 C 10.523438 7.425781 10.191406 7.296875 9.894531 7.046875 C 9.609375 6.792969 9.457031 6.433594 9.457031 5.964844 Z M 9.457031 5.964844 "/>
<path fill-rule="nonzero" fill="rgb(0%, 0%, 0%)" fill-opacity="1" d="M 6.128906 7.40625 L 6.128906 6.722656 L 8.121094 4.234375 C 8.195312 4.136719 8.246094 4.046875 8.269531 3.96875 C 8.289062 3.882812 8.304688 3.808594 8.304688 3.730469 C 8.304688 3.554688 8.242188 3.386719 8.113281 3.238281 C 7.988281 3.085938 7.816406 3.007812 7.601562 3.007812 C 7.402344 3.007812 7.234375 3.070312 7.09375 3.207031 C 6.957031 3.339844 6.875 3.515625 6.859375 3.742188 L 6.128906 3.742188 C 6.132812 3.332031 6.273438 2.984375 6.554688 2.707031 C 6.828125 2.421875 7.164062 2.277344 7.546875 2.277344 C 7.96875 2.277344 8.320312 2.421875 8.601562 2.707031 C 8.886719 2.992188 9.027344 3.332031 9.027344 3.738281 C 9.027344 4.082031 8.925781 4.378906 8.722656 4.628906 L 7.089844 6.679688 L 9.027344 6.679688 L 9.027344 7.40625 Z M 6.128906 7.40625 "/>
</svg>
