<?xml version="1.0" encoding="UTF-8"?>
<svg xmlns="http://www.w3.org/2000/svg" xmlns:xlink="http://www.w3.org/1999/xlink" width="18.475843" height="16" viewBox="0 0 18.475843 16">
<path fill-rule="nonzero" fill="rgb(0%, 0%, 0%)" fill-opacity="1" d="M 9.238281 16 L 9.828125 14.976562 L 17.886719 1.023438 L 18.476562 0 L 0 0 L 0.589844 1.023438 L 8.648438 14.976562 Z M 9.238281 16 "/>
<path fill-rule="nonzero" fill="rgb(100%, 100%, 100%)" fill-opacity="1" d="M 9.238281 13.265625 L 2.367188 1.367188 L 16.109375 1.367188 Z M 9.238281 13.265625 "/>
<path fill-rule="nonzero" fill="rgb(0%, 0%, 0%)" fill-opacity="1" d="M 8.898438 9.589844 C 8.5 9.5 8.179688 9.359375 7.9375 9.164062 C 7.707031 8.972656 7.492188 8.707031 7.296875 8.363281 C 7.257812 8.25 7.230469 8.167969 7.222656 8.125 C 7.207031 8.078125 7.1875 7.96875 7.148438 7.800781 C 7.140625 7.75 7.136719 7.695312 7.136719 7.636719 C 7.132812 7.574219 7.125 7.429688 7.125 7.203125 C 7.125 6.96875 7.125 6.621094 7.125 6.152344 C 7.125 5.679688 7.125 5.007812 7.125 4.140625 C 7.191406 3.632812 7.339844 3.230469 7.574219 2.941406 C 7.8125 2.648438 8.164062 2.402344 8.632812 2.207031 C 9.449219 2.039062 10.191406 2.246094 10.851562 2.828125 C 11.152344 3.207031 11.316406 3.695312 11.34375 4.289062 C 11.164062 4.289062 10.988281 4.289062 10.808594 4.289062 C 10.636719 4.289062 10.460938 4.289062 10.289062 4.289062 C 10.226562 3.945312 10.140625 3.707031 10.023438 3.566406 C 9.910156 3.429688 9.683594 3.304688 9.347656 3.203125 C 9.003906 3.203125 8.742188 3.261719 8.558594 3.382812 C 8.375 3.496094 8.242188 3.71875 8.152344 4.046875 C 8.144531 4.3125 8.140625 4.578125 8.140625 4.847656 C 8.140625 5.113281 8.140625 5.382812 8.140625 5.644531 C 8.597656 5.382812 9.070312 5.238281 9.558594 5.207031 C 10.050781 5.167969 10.5 5.359375 10.910156 5.769531 C 11.152344 6.070312 11.285156 6.402344 11.320312 6.757812 C 11.359375 7.105469 11.351562 7.46875 11.316406 7.851562 C 11.195312 8.390625 10.992188 8.78125 10.707031 9.035156 C 10.429688 9.289062 10.023438 9.472656 9.496094 9.589844 C 9.394531 9.589844 9.296875 9.589844 9.199219 9.589844 C 9.097656 9.589844 9 9.589844 8.898438 9.589844 Z M 9.101562 8.542969 C 9.652344 8.542969 10.007812 8.347656 10.164062 7.957031 C 10.324219 7.570312 10.320312 7.136719 10.148438 6.667969 C 9.992188 6.445312 9.832031 6.304688 9.671875 6.25 C 9.511719 6.191406 9.304688 6.167969 9.046875 6.167969 C 8.664062 6.269531 8.429688 6.4375 8.339844 6.671875 C 8.25 6.902344 8.203125 7.195312 8.203125 7.550781 C 8.253906 7.871094 8.335938 8.101562 8.457031 8.230469 C 8.574219 8.367188 8.792969 8.472656 9.101562 8.542969 Z M 9.101562 8.542969 "/>
</svg>
