<?xml version="1.0" encoding="UTF-8"?>
<svg xmlns="http://www.w3.org/2000/svg" xmlns:xlink="http://www.w3.org/1999/xlink" width="18.475843" height="16" viewBox="0 0 18.475843 16">
<path fill-rule="nonzero" fill="rgb(0%, 0%, 0%)" fill-opacity="1" d="M 9.238281 16 L 9.828125 14.976562 L 17.886719 1.023438 L 18.476562 0 L 0 0 L 0.589844 1.023438 L 8.648438 14.976562 Z M 9.238281 16 "/>
<path fill-rule="nonzero" fill="rgb(100%, 100%, 100%)" fill-opacity="1" d="M 9.238281 13.265625 L 2.367188 1.367188 L 16.109375 1.367188 Z M 9.238281 13.265625 "/>
<path fill-rule="nonzero" fill="rgb(0%, 0%, 0%)" fill-opacity="1" d="M 8.203125 3.976562 C 8.203125 4.316406 8.308594 4.574219 8.519531 4.75 C 8.734375 4.921875 8.976562 5.011719 9.238281 5.011719 C 9.5 5.011719 9.738281 4.921875 9.949219 4.75 C 10.167969 4.574219 10.269531 4.316406 10.269531 3.976562 C 10.269531 3.640625 10.167969 3.382812 9.949219 3.210938 C 9.738281 3.03125 9.5 2.941406 9.238281 2.941406 C 8.976562 2.941406 8.734375 3.03125 8.519531 3.210938 C 8.308594 3.382812 8.203125 3.640625 8.203125 3.976562 Z M 7.042969 7.078125 C 7.042969 6.375 7.324219 5.832031 7.894531 5.453125 C 7.675781 5.265625 7.5 5.050781 7.367188 4.820312 C 7.238281 4.585938 7.171875 4.3125 7.171875 3.996094 C 7.171875 3.414062 7.367188 2.921875 7.761719 2.515625 C 8.164062 2.109375 8.65625 1.90625 9.238281 1.90625 C 9.820312 1.90625 10.3125 2.109375 10.707031 2.515625 C 11.105469 2.921875 11.304688 3.414062 11.304688 3.996094 C 11.304688 4.3125 11.234375 4.585938 11.101562 4.820312 C 10.964844 5.050781 10.796875 5.265625 10.589844 5.453125 C 11.15625 5.835938 11.433594 6.378906 11.433594 7.078125 C 11.433594 7.71875 11.214844 8.238281 10.78125 8.636719 C 10.347656 9.039062 9.832031 9.238281 9.238281 9.238281 C 8.636719 9.238281 8.125 9.039062 7.691406 8.636719 C 7.257812 8.238281 7.042969 7.71875 7.042969 7.078125 Z M 8.074219 7.066406 C 8.074219 7.398438 8.191406 7.671875 8.421875 7.882812 C 8.65625 8.101562 8.925781 8.210938 9.238281 8.210938 C 9.542969 8.210938 9.816406 8.101562 10.050781 7.882812 C 10.285156 7.671875 10.40625 7.398438 10.40625 7.066406 C 10.40625 6.734375 10.285156 6.464844 10.050781 6.242188 C 9.816406 6.03125 9.542969 5.917969 9.238281 5.917969 C 8.925781 5.917969 8.65625 6.03125 8.421875 6.242188 C 8.191406 6.464844 8.074219 6.734375 8.074219 7.066406 Z M 8.074219 7.066406 "/>
</svg>
