<svg width="18.24" height="16" version="1.1" viewBox="0 0 4.825 4.233" xmlns="http://www.w3.org/2000/svg">
 <g transform="translate(-63.73 -52.52)">
  <path d="m63.76 52.83c-0.03662-0.06343-0.03662-0.1416 0-0.205 0.03662-0.06343 0.1043-0.1025 0.1775-0.1025h4.415c0.07324 0 0.1409 0.03907 0.1775 0.1025 0.03662 0.06343 0.03662 0.1416 0 0.205l-2.207 3.823c-0.03661 0.06341-0.1043 0.1025-0.1775 0.1025-0.07324 0-0.1409-0.03907-0.1775-0.1025z" color="#000000"/>
  <path d="m64.38 52.98h3.527l-1.764 3.055z" fill="#fff"/>
  <g transform="translate(-.2357)">
   <g transform="matrix(.004715 0 0 .004715 63.62 52.8)">
    <path d="m450 60-50 100h50v250h50v-350z"/>
   </g>
   <path d="m66.21 54.56v0.3413l0.1707-0.1707v-0.1707z" stroke-miterlimit="5" stroke-width=".09577"/>
   <g transform="matrix(.003411 0 0 .003411 65.36 53.34)">
    <path d="m550 85h-175v100l75 1e-5c41.42 0 75 33.58 75 75l3e-5 50c0 41.42-33.58 75-75 75s-75-33.58-75-75" fill="none" stroke="#000" stroke-width="50"/>
   </g>
  </g>
 </g>
</svg>
