<?xml version="1.0" encoding="UTF-8"?>
<svg xmlns="http://www.w3.org/2000/svg" xmlns:xlink="http://www.w3.org/1999/xlink" width="18.475843" height="16" viewBox="0 0 18.475843 16">
<path fill-rule="nonzero" fill="rgb(0%, 0%, 0%)" fill-opacity="1" d="M 9.238281 16 L 9.828125 14.976562 L 17.886719 1.023438 L 18.476562 0 L 0 0 L 0.589844 1.023438 L 8.648438 14.976562 Z M 9.238281 16 "/>
<path fill-rule="nonzero" fill="rgb(100%, 100%, 100%)" fill-opacity="1" d="M 9.238281 13.265625 L 2.367188 1.367188 L 16.109375 1.367188 Z M 9.238281 13.265625 "/>
<path fill-rule="nonzero" fill="rgb(0%, 0%, 0%)" fill-opacity="1" d="M 7.296875 8.9375 L 7.296875 8.019531 L 9.960938 4.691406 C 10.0625 4.558594 10.132812 4.4375 10.164062 4.332031 C 10.191406 4.222656 10.207031 4.117188 10.207031 4.015625 C 10.207031 3.78125 10.121094 3.558594 9.957031 3.355469 C 9.789062 3.148438 9.558594 3.042969 9.269531 3.042969 C 9.003906 3.042969 8.777344 3.136719 8.589844 3.316406 C 8.398438 3.488281 8.296875 3.730469 8.273438 4.03125 L 7.296875 4.03125 C 7.304688 3.480469 7.488281 3.019531 7.863281 2.644531 C 8.238281 2.261719 8.679688 2.070312 9.191406 2.070312 C 9.761719 2.070312 10.230469 2.265625 10.609375 2.648438 C 10.988281 3.027344 11.175781 3.480469 11.175781 4.023438 C 11.175781 4.484375 11.042969 4.886719 10.773438 5.21875 L 8.582031 7.964844 L 11.175781 7.964844 L 11.175781 8.9375 Z M 7.296875 8.9375 "/>
</svg>
