<?xml version="1.0" encoding="UTF-8"?>
<svg xmlns="http://www.w3.org/2000/svg" xmlns:xlink="http://www.w3.org/1999/xlink" width="18.235485" height="16" viewBox="0 0 18.235485 16">
<path fill-rule="nonzero" fill="rgb(0%, 0%, 0%)" fill-opacity="1" d="M 0.105469 1.164062 C -0.0351562 0.921875 -0.0351562 0.628906 0.105469 0.386719 C 0.242188 0.148438 0.496094 0 0.773438 0 L 17.460938 0 C 17.738281 0 17.992188 0.148438 18.132812 0.386719 C 18.269531 0.628906 18.269531 0.921875 18.132812 1.164062 L 9.789062 15.613281 C 9.648438 15.851562 9.394531 16 9.117188 16 C 8.839844 16 8.585938 15.851562 8.445312 15.613281 Z M 0.105469 1.164062 "/>
<path fill-rule="nonzero" fill="rgb(100%, 100%, 100%)" fill-opacity="1" d="M 2.453125 1.742188 L 15.785156 1.742188 L 9.117188 13.289062 Z M 2.453125 1.742188 "/>
<path fill="none" stroke-width="50.005798" stroke-linecap="butt" stroke-linejoin="miter" stroke="rgb(0%, 0%, 0%)" stroke-opacity="1" stroke-miterlimit="4" d="M 374.94968 160.001158 C 374.94968 126.805241 396.7345 97.758814 428.374358 88.16312 C 460.014216 78.567425 494.247505 91.015894 512.660865 118.765605 C 530.814881 146.255974 528.740137 182.564007 507.733346 207.979631 L 374.94968 369.031694 L 374.94968 385.110966 L 550.006271 385.110966 " transform="matrix(0.0150621, 0, 0, 0.0150621, 0.457942, 1.226766)"/>
<path fill="none" stroke-width="42" stroke-linecap="butt" stroke-linejoin="miter" stroke="rgb(0%, 0%, 0%)" stroke-opacity="1" stroke-miterlimit="4" d="M 617.857835 354.004214 L 617.857835 81.071978 L 607.40233 81.071978 L 492.173956 235.072848 L 492.173956 249.013521 L 617.857835 249.013521 " transform="matrix(0.0179331, 0, 0, 0.0179331, 1.048777, 1.053938)"/>
</svg>
