<?xml version="1.0" encoding="UTF-8"?>
<svg xmlns="http://www.w3.org/2000/svg" xmlns:xlink="http://www.w3.org/1999/xlink" width="18.475843" height="16" viewBox="0 0 18.475843 16">
<path fill-rule="nonzero" fill="rgb(0%, 0%, 0%)" fill-opacity="1" d="M 9.238281 16 L 9.828125 14.976562 L 17.886719 1.023438 L 18.476562 0 L 0 0 L 0.589844 1.023438 L 8.648438 14.976562 Z M 9.238281 16 "/>
<path fill-rule="nonzero" fill="rgb(100%, 100%, 100%)" fill-opacity="1" d="M 9.238281 13.265625 L 2.367188 1.367188 L 16.109375 1.367188 Z M 9.238281 13.265625 "/>
<path fill-rule="nonzero" fill="rgb(0%, 0%, 0%)" fill-opacity="1" d="M 7.636719 9.238281 L 7.636719 3.726562 L 6.710938 4.402344 L 6.710938 3.414062 L 7.636719 2.742188 L 8.570312 2.742188 L 8.570312 9.238281 Z M 7.636719 9.238281 "/>
<path fill-rule="nonzero" fill="rgb(0%, 0%, 0%)" fill-opacity="1" d="M 9.238281 4.609375 L 9.238281 2.746094 L 12.925781 2.746094 L 12.925781 3.675781 L 10.730469 9.230469 L 9.6875 9.230469 L 11.890625 3.675781 L 10.167969 3.675781 L 10.167969 4.609375 Z M 9.238281 4.609375 "/>
</svg>
