<?xml version="1.0" encoding="UTF-8"?>
<svg xmlns="http://www.w3.org/2000/svg" xmlns:xlink="http://www.w3.org/1999/xlink" width="18.235485" height="16" viewBox="0 0 18.235485 16">
<path fill-rule="nonzero" fill="rgb(0%, 0%, 0%)" fill-opacity="1" d="M 0.105469 1.164062 C -0.0351562 0.921875 -0.0351562 0.628906 0.105469 0.386719 C 0.242188 0.148438 0.496094 0 0.773438 0 L 17.460938 0 C 17.738281 0 17.992188 0.148438 18.132812 0.386719 C 18.269531 0.628906 18.269531 0.921875 18.132812 1.164062 L 9.789062 15.613281 C 9.648438 15.851562 9.394531 16 9.117188 16 C 8.839844 16 8.585938 15.851562 8.445312 15.613281 Z M 0.105469 1.164062 "/>
<path fill-rule="nonzero" fill="rgb(100%, 100%, 100%)" fill-opacity="1" d="M 2.453125 1.742188 L 15.785156 1.742188 L 9.117188 13.289062 Z M 2.453125 1.742188 "/>
<path fill="none" stroke-width="50.005798" stroke-linecap="butt" stroke-linejoin="miter" stroke="rgb(0%, 0%, 0%)" stroke-opacity="1" stroke-miterlimit="4" d="M 375.031036 159.945944 C 375.031036 126.751637 396.8148 97.706618 428.453124 88.111389 C 460.091448 78.77549 494.323077 90.964025 512.476214 118.712391 C 530.888681 146.201427 528.814037 182.5077 507.548934 207.922091 L 375.031036 368.966347 L 375.031036 385.044839 L 550.07914 385.044839 " transform="matrix(0.0150628, 0, 0, 0.0150628, 0.456442, 1.227481)"/>
<path fill="none" stroke-width="42" stroke-linecap="butt" stroke-linejoin="miter" stroke="rgb(0%, 0%, 0%)" stroke-opacity="1" stroke-miterlimit="4" d="M 417.909882 223.089868 C 417.909882 257.722048 389.812076 286.037667 354.962083 286.037667 C 320.112091 286.037667 292.014284 257.722048 292.014284 223.089868 L 292.014284 96.976458 C 292.014284 62.126465 320.112091 34.028659 354.962083 34.028659 C 389.812076 34.028659 417.909882 62.126465 417.909882 96.976458 Z M 417.909882 223.089868 " transform="matrix(0.017934, 0, 0, 0.017934, 4.634108, 1.897542)"/>
</svg>
