<?xml version="1.0" encoding="UTF-8"?>
<svg xmlns="http://www.w3.org/2000/svg" xmlns:xlink="http://www.w3.org/1999/xlink" width="18.235485" height="16" viewBox="0 0 18.235485 16">
<path fill-rule="nonzero" fill="rgb(0%, 0%, 0%)" fill-opacity="1" d="M 0.105469 1.164062 C -0.0351562 0.921875 -0.0351562 0.628906 0.105469 0.386719 C 0.242188 0.148438 0.496094 0 0.773438 0 L 17.460938 0 C 17.738281 0 17.992188 0.148438 18.132812 0.386719 C 18.269531 0.628906 18.269531 0.921875 18.132812 1.164062 L 9.789062 15.613281 C 9.648438 15.851562 9.394531 16 9.117188 16 C 8.839844 16 8.585938 15.851562 8.445312 15.613281 Z M 0.105469 1.164062 "/>
<path fill-rule="nonzero" fill="rgb(100%, 100%, 100%)" fill-opacity="1" d="M 2.453125 1.742188 L 15.785156 1.742188 L 9.117188 13.289062 Z M 2.453125 1.742188 "/>
<path fill="none" stroke-width="50" stroke-linecap="butt" stroke-linejoin="miter" stroke="rgb(0%, 0%, 0%)" stroke-opacity="1" stroke-miterlimit="4" d="M 375.003251 159.869363 C 375.003251 126.770697 396.703701 97.617568 428.487187 88.19212 C 460.051478 78.547476 494.246125 91.041674 512.658628 118.660428 C 530.851934 146.279182 528.879166 182.665795 507.61711 208.092584 L 375.003251 368.982786 L 375.003251 384.984127 L 549.922026 384.984127 " transform="matrix(0.0178208, 0, 0, 0.0178208, 1.098403, 1.061161)"/>
</svg>
