<?xml version="1.0" encoding="UTF-8"?>
<svg xmlns="http://www.w3.org/2000/svg" xmlns:xlink="http://www.w3.org/1999/xlink" width="18.235485" height="16" viewBox="0 0 18.235485 16">
<path fill-rule="nonzero" fill="rgb(0%, 0%, 0%)" fill-opacity="1" d="M 0.105469 1.164062 C -0.0351562 0.921875 -0.0351562 0.628906 0.105469 0.386719 C 0.242188 0.148438 0.496094 0 0.773438 0 L 17.460938 0 C 17.738281 0 17.992188 0.148438 18.132812 0.386719 C 18.269531 0.628906 18.269531 0.921875 18.132812 1.164062 L 9.789062 15.613281 C 9.648438 15.851562 9.394531 16 9.117188 16 C 8.839844 16 8.585938 15.851562 8.445312 15.613281 Z M 0.105469 1.164062 "/>
<path fill-rule="nonzero" fill="rgb(100%, 100%, 100%)" fill-opacity="1" d="M 2.453125 1.742188 L 15.785156 1.742188 L 9.117188 13.289062 Z M 2.453125 1.742188 "/>
<path fill="none" stroke-width="50.005798" stroke-linecap="butt" stroke-linejoin="miter" stroke="rgb(0%, 0%, 0%)" stroke-opacity="1" stroke-miterlimit="4" d="M 375.078192 160.070154 C 375.078192 126.821892 396.637612 97.729663 428.327362 88.118837 C 460.017111 78.767764 494.304381 90.97611 512.487025 118.769579 C 530.92942 146.303296 528.851403 182.668582 507.551736 208.124283 L 375.078192 368.910799 L 375.078192 385.015426 L 549.891319 385.015426 " transform="matrix(0.0150384, 0, 0, 0.0150384, 0.472713, 1.233429)"/>
<path fill="none" stroke-width="50.595299" stroke-linecap="butt" stroke-linejoin="miter" stroke="rgb(0%, 0%, 0%)" stroke-opacity="1" stroke-miterlimit="4" d="M 374.949832 160.09617 C 374.949832 118.540647 409.256465 85.036506 451.807329 85.036506 C 494.092249 85.036506 528.664826 118.540647 528.664826 160.09617 C 528.664826 201.391971 494.092249 234.896112 451.807329 234.896112 L 426.276811 234.896112 L 451.807329 234.896112 C 494.092249 234.896112 528.664826 268.659975 528.664826 309.955776 C 528.664826 351.511299 494.092249 385.01544 451.807329 385.01544 C 409.256465 385.01544 374.949832 351.511299 374.949832 309.955776 " transform="matrix(0.0146883, 0, 0, 0.0150401, 4.363717, 1.23276)"/>
</svg>
