<?xml version="1.0" encoding="UTF-8"?>
<svg xmlns="http://www.w3.org/2000/svg" xmlns:xlink="http://www.w3.org/1999/xlink" width="18.235485" height="16" viewBox="0 0 18.235485 16">
<path fill-rule="nonzero" fill="rgb(0%, 0%, 0%)" fill-opacity="1" d="M 0.105469 1.164062 C -0.0351562 0.921875 -0.0351562 0.628906 0.105469 0.386719 C 0.242188 0.148438 0.496094 0 0.773438 0 L 17.460938 0 C 17.738281 0 17.992188 0.148438 18.132812 0.386719 C 18.269531 0.628906 18.269531 0.921875 18.132812 1.164062 L 9.789062 15.613281 C 9.648438 15.851562 9.394531 16 9.117188 16 C 8.839844 16 8.585938 15.851562 8.445312 15.613281 Z M 0.105469 1.164062 "/>
<path fill-rule="nonzero" fill="rgb(100%, 100%, 100%)" fill-opacity="1" d="M 2.453125 1.742188 L 15.785156 1.742188 L 9.117188 13.289062 Z M 2.453125 1.742188 "/>
<path fill="none" stroke-width="49.999901" stroke-linecap="butt" stroke-linejoin="miter" stroke="rgb(0%, 0%, 0%)" stroke-opacity="1" stroke-miterlimit="4" d="M 525.000217 159.985726 C 525.000217 118.55584 491.461737 85.017361 450.031851 85.017361 C 408.601965 85.017361 375.063486 118.55584 375.063486 159.985726 L 375.063486 309.922458 C 375.063486 351.352344 408.601965 384.890823 450.031851 384.890823 C 491.461737 384.890823 525.000217 351.352344 525.000217 309.922458 L 525.000217 284.933002 C 525.000217 243.503116 491.461737 209.964637 450.031851 209.964637 C 408.601965 209.964637 375.063486 243.503116 375.063486 284.933002 " transform="matrix(-0.01782, 0.000000000000000002, -0.000000000000000002, -0.01782, 17.136762, 9.436886)"/>
</svg>
