<?xml version="1.0" encoding="UTF-8"?>
<svg xmlns="http://www.w3.org/2000/svg" xmlns:xlink="http://www.w3.org/1999/xlink" width="18.475843" height="16" viewBox="0 0 18.475843 16">
<path fill-rule="nonzero" fill="rgb(0%, 0%, 0%)" fill-opacity="1" d="M 9.238281 16 L 9.828125 14.976562 L 17.886719 1.023438 L 18.476562 0 L 0 0 L 0.589844 1.023438 L 8.648438 14.976562 Z M 9.238281 16 "/>
<path fill-rule="nonzero" fill="rgb(100%, 100%, 100%)" fill-opacity="1" d="M 9.238281 13.265625 L 2.367188 1.367188 L 16.109375 1.367188 Z M 9.238281 13.265625 "/>
<path fill-rule="nonzero" fill="rgb(0%, 0%, 0%)" fill-opacity="1" d="M 7.234375 8.003906 L 7.234375 3.292969 L 6.441406 3.871094 L 6.441406 3.027344 L 7.234375 2.453125 L 8.035156 2.453125 L 8.035156 8.003906 Z M 7.234375 8.003906 "/>
<path fill-rule="nonzero" fill="rgb(0%, 0%, 0%)" fill-opacity="1" d="M 8.484375 7.171875 L 8.484375 6.421875 L 10.339844 2.457031 L 11.222656 2.457031 L 9.351562 6.421875 L 10.792969 6.421875 L 10.792969 4.832031 L 11.589844 4.832031 L 11.589844 6.421875 L 12.035156 6.421875 L 12.035156 7.171875 L 11.589844 7.171875 L 11.589844 7.992188 L 10.792969 7.992188 L 10.792969 7.171875 Z M 8.484375 7.171875 "/>
</svg>
