<?xml version="1.0" encoding="UTF-8"?>
<svg xmlns="http://www.w3.org/2000/svg" xmlns:xlink="http://www.w3.org/1999/xlink" width="18.235485" height="16" viewBox="0 0 18.235485 16">
<path fill-rule="nonzero" fill="rgb(0%, 0%, 0%)" fill-opacity="1" d="M 0.105469 1.164062 C -0.0351562 0.921875 -0.0351562 0.628906 0.105469 0.386719 C 0.242188 0.148438 0.496094 0 0.773438 0 L 17.460938 0 C 17.738281 0 17.992188 0.148438 18.132812 0.386719 C 18.269531 0.628906 18.269531 0.921875 18.132812 1.164062 L 9.789062 15.613281 C 9.648438 15.851562 9.394531 16 9.117188 16 C 8.839844 16 8.585938 15.851562 8.445312 15.613281 Z M 0.105469 1.164062 "/>
<path fill-rule="nonzero" fill="rgb(100%, 100%, 100%)" fill-opacity="1" d="M 2.453125 1.742188 L 15.785156 1.742188 L 9.117188 13.289062 Z M 2.453125 1.742188 "/>
<path fill-rule="nonzero" fill="rgb(0%, 0%, 0%)" fill-opacity="1" d="M 6.445312 2.128906 L 5.554688 3.914062 L 6.445312 3.914062 L 6.445312 8.367188 L 7.335938 8.367188 L 7.335938 2.128906 Z M 6.445312 2.128906 "/>
<path fill="none" stroke-width="49.999901" stroke-linecap="butt" stroke-linejoin="miter" stroke="rgb(0%, 0%, 0%)" stroke-opacity="1" stroke-miterlimit="4" d="M 524.915368 160.077542 C 524.915368 118.647656 491.376888 85.109177 449.947002 85.109177 C 408.517116 85.109177 374.978636 118.647656 374.978636 160.077542 L 374.978636 310.014274 C 374.978636 351.44416 408.517116 384.982639 449.947002 384.982639 C 491.376888 384.982639 524.915368 351.44416 524.915368 310.014274 L 524.915368 285.024818 C 524.915368 243.594932 491.376888 210.056453 449.947002 210.056453 C 408.517116 210.056453 374.978636 243.594932 374.978636 285.024818 " transform="matrix(0.01782, 0, 0, 0.01782, 1.98975, 1.061478)"/>
</svg>
