<?xml version="1.0" encoding="UTF-8"?>
<svg xmlns="http://www.w3.org/2000/svg" xmlns:xlink="http://www.w3.org/1999/xlink" width="18.475843" height="16" viewBox="0 0 18.475843 16">
<path fill-rule="nonzero" fill="rgb(0%, 0%, 0%)" fill-opacity="1" d="M 9.238281 16 L 9.828125 14.976562 L 17.886719 1.023438 L 18.476562 0 L 0 0 L 0.589844 1.023438 L 8.648438 14.976562 Z M 9.238281 16 "/>
<path fill-rule="nonzero" fill="rgb(100%, 100%, 100%)" fill-opacity="1" d="M 9.238281 13.265625 L 2.367188 1.367188 L 16.109375 1.367188 Z M 9.238281 13.265625 "/>
<path fill-rule="nonzero" fill="rgb(0%, 0%, 0%)" fill-opacity="1" d="M 7.257812 7.957031 L 7.257812 3.03125 L 6.429688 3.636719 L 6.429688 2.757812 L 7.257812 2.15625 L 8.09375 2.15625 L 8.09375 7.957031 Z M 7.257812 7.957031 "/>
<path fill-rule="nonzero" fill="rgb(0%, 0%, 0%)" fill-opacity="1" d="M 9.972656 5.332031 L 9.972656 4.601562 L 10.257812 4.601562 C 10.53125 4.601562 10.75 4.523438 10.90625 4.371094 C 11.070312 4.214844 11.152344 4.019531 11.152344 3.78125 C 11.152344 3.546875 11.066406 3.347656 10.902344 3.183594 C 10.734375 3.023438 10.535156 2.941406 10.308594 2.941406 C 10.132812 2.941406 9.964844 3 9.804688 3.117188 C 9.652344 3.234375 9.550781 3.40625 9.503906 3.640625 L 8.675781 3.640625 C 8.707031 3.234375 8.878906 2.878906 9.1875 2.570312 C 9.5 2.265625 9.859375 2.109375 10.273438 2.109375 C 10.789062 2.109375 11.199219 2.28125 11.511719 2.625 C 11.828125 2.964844 11.980469 3.34375 11.980469 3.761719 C 11.980469 3.988281 11.933594 4.203125 11.851562 4.414062 C 11.765625 4.625 11.601562 4.804688 11.363281 4.960938 C 11.605469 5.113281 11.78125 5.308594 11.886719 5.535156 C 11.988281 5.765625 12.046875 5.996094 12.046875 6.230469 C 12.046875 6.765625 11.875 7.199219 11.539062 7.519531 C 11.199219 7.839844 10.78125 8.003906 10.289062 8.003906 C 9.894531 8.003906 9.539062 7.875 9.230469 7.625 C 8.917969 7.367188 8.71875 7 8.640625 6.511719 L 9.472656 6.511719 C 9.550781 6.710938 9.652344 6.871094 9.785156 6.996094 C 9.914062 7.113281 10.097656 7.171875 10.335938 7.171875 C 10.570312 7.171875 10.773438 7.09375 10.949219 6.929688 C 11.125 6.765625 11.214844 6.539062 11.214844 6.257812 C 11.214844 5.96875 11.125 5.742188 10.949219 5.578125 C 10.773438 5.417969 10.5625 5.332031 10.320312 5.332031 Z M 9.972656 5.332031 "/>
</svg>
