<?xml version="1.0" encoding="UTF-8"?>
<svg xmlns="http://www.w3.org/2000/svg" xmlns:xlink="http://www.w3.org/1999/xlink" width="18.475843" height="16" viewBox="0 0 18.475843 16">
<path fill-rule="nonzero" fill="rgb(0%, 0%, 0%)" fill-opacity="1" d="M 9.238281 16 L 9.828125 14.976562 L 17.886719 1.023438 L 18.476562 0 L 0 0 L 0.589844 1.023438 L 8.648438 14.976562 Z M 9.238281 16 "/>
<path fill-rule="nonzero" fill="rgb(100%, 100%, 100%)" fill-opacity="1" d="M 9.238281 13.265625 L 2.367188 1.367188 L 16.109375 1.367188 Z M 9.238281 13.265625 "/>
<path fill-rule="nonzero" fill="rgb(0%, 0%, 0%)" fill-opacity="1" d="M 8.746094 6.285156 L 8.746094 5.3125 L 9.125 5.3125 C 9.484375 5.3125 9.773438 5.214844 9.980469 5.011719 C 10.199219 4.804688 10.308594 4.542969 10.308594 4.226562 C 10.308594 3.914062 10.195312 3.648438 9.972656 3.4375 C 9.753906 3.21875 9.492188 3.117188 9.183594 3.117188 C 8.953125 3.117188 8.734375 3.195312 8.53125 3.347656 C 8.320312 3.5 8.1875 3.734375 8.128906 4.042969 L 7.027344 4.042969 C 7.074219 3.5 7.296875 3.03125 7.707031 2.628906 C 8.121094 2.21875 8.597656 2.015625 9.144531 2.015625 C 9.828125 2.015625 10.375 2.242188 10.785156 2.699219 C 11.195312 3.144531 11.402344 3.648438 11.402344 4.203125 C 11.402344 4.496094 11.34375 4.785156 11.230469 5.066406 C 11.113281 5.34375 10.898438 5.585938 10.582031 5.789062 C 10.90625 5.996094 11.136719 6.25 11.28125 6.550781 C 11.417969 6.851562 11.488281 7.160156 11.488281 7.464844 C 11.488281 8.183594 11.261719 8.75 10.816406 9.175781 C 10.371094 9.597656 9.816406 9.8125 9.160156 9.8125 C 8.648438 9.8125 8.179688 9.648438 7.761719 9.316406 C 7.34375 8.976562 7.089844 8.488281 6.988281 7.84375 L 8.085938 7.84375 C 8.1875 8.109375 8.320312 8.316406 8.5 8.480469 C 8.667969 8.636719 8.914062 8.71875 9.230469 8.71875 C 9.53125 8.71875 9.800781 8.609375 10.035156 8.394531 C 10.269531 8.183594 10.386719 7.878906 10.386719 7.5 C 10.386719 7.117188 10.269531 6.824219 10.035156 6.609375 C 9.804688 6.390625 9.527344 6.285156 9.207031 6.285156 Z M 8.746094 6.285156 "/>
</svg>
