<?xml version="1.0" encoding="UTF-8"?>
<svg xmlns="http://www.w3.org/2000/svg" xmlns:xlink="http://www.w3.org/1999/xlink" width="18.475843" height="16" viewBox="0 0 18.475843 16">
<path fill-rule="nonzero" fill="rgb(0%, 0%, 0%)" fill-opacity="1" d="M 9.238281 16 L 9.828125 14.976562 L 17.886719 1.023438 L 18.476562 0 L 0 0 L 0.589844 1.023438 L 8.648438 14.976562 Z M 9.238281 16 "/>
<path fill-rule="nonzero" fill="rgb(100%, 100%, 100%)" fill-opacity="1" d="M 9.238281 13.265625 L 2.367188 1.367188 L 16.109375 1.367188 Z M 9.238281 13.265625 "/>
<path fill-rule="nonzero" fill="rgb(0%, 0%, 0%)" fill-opacity="1" d="M 7.25 8.421875 L 7.25 3.546875 L 6.433594 4.144531 L 6.433594 3.269531 L 7.25 2.675781 L 8.074219 2.675781 L 8.074219 8.421875 Z M 7.25 8.421875 "/>
<path fill-rule="nonzero" fill="rgb(0%, 0%, 0%)" fill-opacity="1" d="M 10.117188 8.472656 C 9.804688 8.402344 9.554688 8.289062 9.367188 8.136719 C 9.1875 7.984375 9.015625 7.777344 8.863281 7.511719 C 8.832031 7.421875 8.8125 7.355469 8.800781 7.320312 C 8.796875 7.285156 8.777344 7.199219 8.746094 7.0625 C 8.742188 7.027344 8.738281 6.984375 8.738281 6.9375 C 8.734375 6.886719 8.734375 6.773438 8.734375 6.59375 C 8.734375 6.414062 8.734375 6.140625 8.734375 5.769531 C 8.734375 5.398438 8.734375 4.871094 8.734375 4.191406 C 8.777344 3.789062 8.894531 3.472656 9.085938 3.246094 C 9.269531 3.019531 9.542969 2.828125 9.914062 2.671875 C 10.554688 2.539062 11.136719 2.703125 11.660156 3.15625 C 11.894531 3.457031 12.019531 3.839844 12.042969 4.308594 C 11.902344 4.308594 11.765625 4.308594 11.625 4.308594 C 11.488281 4.308594 11.347656 4.308594 11.214844 4.308594 C 11.167969 4.035156 11.097656 3.847656 11.007812 3.742188 C 10.914062 3.632812 10.738281 3.535156 10.472656 3.457031 C 10.207031 3.457031 10 3.5 9.851562 3.59375 C 9.710938 3.679688 9.601562 3.855469 9.535156 4.117188 C 9.53125 4.324219 9.53125 4.539062 9.527344 4.746094 C 9.527344 4.957031 9.527344 5.164062 9.527344 5.371094 C 9.886719 5.164062 10.257812 5.050781 10.640625 5.023438 C 11.023438 5.003906 11.378906 5.148438 11.707031 5.472656 C 11.890625 5.707031 12 5.96875 12.027344 6.242188 C 12.050781 6.519531 12.050781 6.808594 12.019531 7.105469 C 11.925781 7.527344 11.769531 7.839844 11.546875 8.035156 C 11.328125 8.230469 11.007812 8.375 10.589844 8.472656 C 10.515625 8.472656 10.433594 8.472656 10.355469 8.472656 C 10.273438 8.472656 10.199219 8.472656 10.121094 8.472656 Z M 10.28125 7.648438 C 10.714844 7.648438 10.992188 7.496094 11.117188 7.191406 C 11.242188 6.882812 11.242188 6.546875 11.105469 6.175781 C 10.980469 6 10.855469 5.890625 10.730469 5.847656 C 10.605469 5.804688 10.441406 5.78125 10.238281 5.78125 C 9.941406 5.863281 9.757812 5.996094 9.683594 6.179688 C 9.613281 6.359375 9.578125 6.589844 9.578125 6.871094 C 9.617188 7.121094 9.679688 7.304688 9.773438 7.40625 C 9.871094 7.511719 10.035156 7.589844 10.28125 7.648438 Z M 10.28125 7.648438 "/>
</svg>
