<?xml version="1.0" encoding="UTF-8"?>
<svg xmlns="http://www.w3.org/2000/svg" xmlns:xlink="http://www.w3.org/1999/xlink" width="18.235485" height="16" viewBox="0 0 18.235485 16">
<path fill-rule="nonzero" fill="rgb(0%, 0%, 0%)" fill-opacity="1" d="M 0.105469 1.164062 C -0.0351562 0.921875 -0.0351562 0.628906 0.105469 0.386719 C 0.242188 0.148438 0.496094 0 0.773438 0 L 17.460938 0 C 17.738281 0 17.992188 0.148438 18.132812 0.386719 C 18.269531 0.628906 18.269531 0.921875 18.132812 1.164062 L 9.789062 15.613281 C 9.648438 15.851562 9.394531 16 9.117188 16 C 8.839844 16 8.585938 15.851562 8.445312 15.613281 Z M 0.105469 1.164062 "/>
<path fill-rule="nonzero" fill="rgb(100%, 100%, 100%)" fill-opacity="1" d="M 2.453125 1.742188 L 15.785156 1.742188 L 9.117188 13.289062 Z M 2.453125 1.742188 "/>
<path fill="none" stroke-width="50.005798" stroke-linecap="butt" stroke-linejoin="miter" stroke="rgb(0%, 0%, 0%)" stroke-opacity="1" stroke-miterlimit="4" d="M 375.076128 159.97346 C 375.076128 126.786426 396.85512 97.74777 428.486512 88.154643 C 460.117904 78.561516 494.342034 91.006654 512.491193 118.748941 C 530.899626 146.231954 528.825437 182.530273 507.564993 207.939096 L 375.076128 368.948068 L 375.076128 385.023038 L 550.085881 385.023038 " transform="matrix(0.0150661, 0, 0, 0.0150661, 0.454525, 1.226539)"/>
<path fill="none" stroke-width="50.005798" stroke-linecap="butt" stroke-linejoin="miter" stroke="rgb(0%, 0%, 0%)" stroke-opacity="1" stroke-miterlimit="4" d="M 374.987069 159.97346 C 374.987069 126.786426 396.76606 97.74777 428.397453 88.154643 C 460.028845 78.561516 494.252974 91.006654 512.661407 118.748941 C 530.810567 146.231954 528.736377 182.530273 507.475933 207.939096 L 374.987069 368.948068 L 374.987069 385.023038 L 549.996821 385.023038 " transform="matrix(0.0150661, 0, 0, 0.0150661, 4.221492, 1.226539)"/>
</svg>
