<?xml version="1.0" encoding="UTF-8"?>
<svg xmlns="http://www.w3.org/2000/svg" xmlns:xlink="http://www.w3.org/1999/xlink" width="18.475843" height="16" viewBox="0 0 18.475843 16">
<path fill-rule="nonzero" fill="rgb(0%, 0%, 0%)" fill-opacity="1" d="M 9.238281 16 L 9.828125 14.976562 L 17.886719 1.023438 L 18.476562 0 L 0 0 L 0.589844 1.023438 L 8.648438 14.976562 Z M 9.238281 16 "/>
<path fill-rule="nonzero" fill="rgb(100%, 100%, 100%)" fill-opacity="1" d="M 9.238281 13.265625 L 2.367188 1.367188 L 16.109375 1.367188 Z M 9.238281 13.265625 "/>
<path fill-rule="nonzero" fill="rgb(0%, 0%, 0%)" fill-opacity="1" d="M 7.238281 6.160156 L 7.238281 2.109375 L 11.226562 2.109375 L 11.226562 3.183594 L 8.25 3.183594 L 8.25 4.871094 C 8.59375 4.601562 8.996094 4.460938 9.449219 4.460938 C 9.734375 4.460938 9.992188 4.519531 10.226562 4.628906 C 10.460938 4.734375 10.644531 4.867188 10.785156 5.015625 C 10.992188 5.238281 11.136719 5.476562 11.230469 5.742188 C 11.328125 6.003906 11.375 6.441406 11.375 7.0625 C 11.375 7.5625 11.335938 7.9375 11.261719 8.1875 C 11.191406 8.429688 11.074219 8.65625 10.910156 8.859375 C 10.757812 9.058594 10.542969 9.238281 10.265625 9.40625 C 9.988281 9.570312 9.660156 9.65625 9.292969 9.65625 C 8.804688 9.65625 8.339844 9.507812 7.894531 9.210938 C 7.441406 8.914062 7.175781 8.417969 7.101562 7.714844 L 8.171875 7.714844 C 8.300781 8.300781 8.660156 8.589844 9.246094 8.589844 C 9.769531 8.589844 10.078125 8.40625 10.167969 8.050781 C 10.257812 7.691406 10.300781 7.335938 10.300781 6.976562 C 10.300781 6.566406 10.230469 6.21875 10.089844 5.949219 C 9.949219 5.675781 9.660156 5.539062 9.214844 5.539062 C 8.804688 5.539062 8.480469 5.742188 8.25 6.160156 Z M 7.238281 6.160156 "/>
</svg>
