<?xml version="1.0" encoding="UTF-8"?>
<svg xmlns="http://www.w3.org/2000/svg" xmlns:xlink="http://www.w3.org/1999/xlink" width="15" height="22.5" viewBox="0 0 15 22.5">
<path fill-rule="nonzero" fill="rgb(0%, 0%, 0%)" fill-opacity="1" d="M 0 0 L 15 0 L 15 22.5 L 0 22.5 Z M 0 0 "/>
<path fill-rule="nonzero" fill="rgb(100%, 100%, 100%)" fill-opacity="1" d="M 1.5 1.5 L 13.5 1.5 L 13.5 21 L 1.5 21 Z M 1.5 1.5 "/>
<path fill-rule="evenodd" fill="rgb(0%, 0%, 0%)" fill-opacity="1" d="M 1.5 0.75 L 1.5 1.5 L 7.554688 21 L 13.5 1.5 L 13.5 0.75 L 12 0.75 L 7.5 16.5 L 3 0.75 Z M 1.5 0.75 "/>
<path fill-rule="nonzero" fill="rgb(0%, 0%, 0%)" fill-opacity="1" d="M 5.738281 7.316406 L 5.738281 2.957031 L 5.007812 3.492188 L 5.007812 2.710938 L 5.738281 2.179688 L 6.480469 2.179688 L 6.480469 7.316406 Z M 5.738281 7.316406 "/>
<path fill-rule="nonzero" fill="rgb(0%, 0%, 0%)" fill-opacity="1" d="M 6.898438 7.335938 L 6.898438 6.644531 L 8.902344 4.136719 C 8.980469 4.035156 9.03125 3.945312 9.054688 3.863281 C 9.078125 3.78125 9.089844 3.703125 9.089844 3.625 C 9.089844 3.449219 9.027344 3.28125 8.898438 3.128906 C 8.773438 2.972656 8.601562 2.894531 8.382812 2.894531 C 8.183594 2.894531 8.011719 2.964844 7.867188 3.097656 C 7.726562 3.226562 7.648438 3.410156 7.632812 3.636719 L 6.898438 3.636719 C 6.898438 3.222656 7.042969 2.875 7.324219 2.589844 C 7.605469 2.304688 7.941406 2.160156 8.328125 2.160156 C 8.753906 2.160156 9.109375 2.304688 9.394531 2.59375 C 9.679688 2.878906 9.824219 3.226562 9.824219 3.632812 C 9.824219 3.980469 9.722656 4.28125 9.515625 4.535156 L 7.863281 6.605469 L 9.824219 6.605469 L 9.824219 7.335938 Z M 6.898438 7.335938 "/>
</svg>
