<?xml version="1.0" encoding="UTF-8"?>
<svg xmlns="http://www.w3.org/2000/svg" xmlns:xlink="http://www.w3.org/1999/xlink" width="15" height="22.5" viewBox="0 0 15 22.5">
<path fill-rule="nonzero" fill="rgb(0%, 0%, 0%)" fill-opacity="1" d="M 0 0 L 15 0 L 15 22.5 L 0 22.5 Z M 0 0 "/>
<path fill-rule="nonzero" fill="rgb(100%, 100%, 100%)" fill-opacity="1" d="M 1.5 1.5 L 13.5 1.5 L 13.5 21 L 1.5 21 Z M 1.5 1.5 "/>
<path fill-rule="evenodd" fill="rgb(0%, 0%, 0%)" fill-opacity="1" d="M 1.5 0.75 L 1.5 1.5 L 7.554688 21 L 13.5 1.5 L 13.5 0.75 L 12 0.75 L 7.5 16.5 L 3 0.75 Z M 1.5 0.75 "/>
<path fill-rule="nonzero" fill="rgb(0%, 0%, 0%)" fill-opacity="1" d="M 5.679688 7.117188 L 5.679688 2.847656 L 4.964844 3.371094 L 4.964844 2.605469 L 5.679688 2.085938 L 6.40625 2.085938 L 6.40625 7.117188 Z M 5.679688 7.117188 "/>
<path fill-rule="nonzero" fill="rgb(0%, 0%, 0%)" fill-opacity="1" d="M 6.816406 6.367188 L 6.816406 5.6875 L 8.496094 2.089844 L 9.300781 2.089844 L 7.601562 5.6875 L 8.910156 5.6875 L 8.910156 4.242188 L 9.632812 4.242188 L 9.632812 5.6875 L 10.035156 5.6875 L 10.035156 6.367188 L 9.632812 6.367188 L 9.632812 7.113281 L 8.910156 7.113281 L 8.910156 6.367188 Z M 6.816406 6.367188 "/>
</svg>
