<?xml version="1.0" encoding="UTF-8"?>
<svg xmlns="http://www.w3.org/2000/svg" xmlns:xlink="http://www.w3.org/1999/xlink" width="15" height="22.5" viewBox="0 0 15 22.5">
<path fill-rule="nonzero" fill="rgb(0%, 0%, 0%)" fill-opacity="1" d="M 0 0 L 15 0 L 15 22.5 L 0 22.5 Z M 0 0 "/>
<path fill-rule="nonzero" fill="rgb(100%, 100%, 100%)" fill-opacity="1" d="M 1.5 1.5 L 13.5 1.5 L 13.5 21 L 1.5 21 Z M 1.5 1.5 "/>
<path fill-rule="evenodd" fill="rgb(0%, 0%, 0%)" fill-opacity="1" d="M 1.5 0.75 L 1.5 1.5 L 7.554688 21 L 13.5 1.5 L 13.5 0.75 L 12 0.75 L 7.5 16.5 L 3 0.75 Z M 1.5 0.75 "/>
<path fill-rule="nonzero" fill="rgb(0%, 0%, 0%)" fill-opacity="1" d="M 5.65625 7.683594 L 5.65625 3.074219 L 4.882812 3.640625 L 4.882812 2.816406 L 5.65625 2.253906 L 6.4375 2.253906 L 6.4375 7.683594 Z M 5.65625 7.683594 "/>
<path fill-rule="nonzero" fill="rgb(0%, 0%, 0%)" fill-opacity="1" d="M 9.082031 6.160156 L 9.082031 3.859375 C 9.082031 3.597656 9.007812 3.394531 8.867188 3.25 C 8.730469 3.105469 8.546875 3.03125 8.316406 3.03125 C 8.089844 3.03125 7.902344 3.105469 7.765625 3.25 C 7.625 3.394531 7.558594 3.597656 7.558594 3.859375 L 7.558594 6.160156 C 7.558594 6.421875 7.625 6.628906 7.765625 6.773438 C 7.902344 6.917969 8.089844 6.992188 8.316406 6.992188 C 8.546875 6.992188 8.730469 6.917969 8.867188 6.773438 C 9.007812 6.628906 9.082031 6.421875 9.082031 6.160156 Z M 6.78125 6.207031 L 6.78125 3.816406 C 6.78125 3.316406 6.933594 2.933594 7.25 2.664062 C 7.5625 2.390625 7.917969 2.253906 8.316406 2.253906 C 8.71875 2.253906 9.074219 2.390625 9.386719 2.664062 C 9.699219 2.933594 9.859375 3.316406 9.859375 3.816406 L 9.859375 6.207031 C 9.859375 6.703125 9.699219 7.089844 9.386719 7.359375 C 9.074219 7.628906 8.71875 7.761719 8.316406 7.761719 C 7.917969 7.761719 7.5625 7.628906 7.25 7.359375 C 6.933594 7.089844 6.78125 6.703125 6.78125 6.207031 Z M 6.78125 6.207031 "/>
</svg>
