<?xml version="1.0" encoding="UTF-8"?>
<svg xmlns="http://www.w3.org/2000/svg" xmlns:xlink="http://www.w3.org/1999/xlink" width="15" height="22.5" viewBox="0 0 15 22.5">
<path fill-rule="nonzero" fill="rgb(0%, 0%, 0%)" fill-opacity="1" d="M 0 0 L 15 0 L 15 22.5 L 0 22.5 Z M 0 0 "/>
<path fill-rule="nonzero" fill="rgb(100%, 100%, 100%)" fill-opacity="1" d="M 1.5 1.5 L 13.5 1.5 L 13.5 21 L 1.5 21 Z M 1.5 1.5 "/>
<path fill-rule="evenodd" fill="rgb(0%, 0%, 0%)" fill-opacity="1" d="M 1.5 0.75 L 1.5 1.5 L 7.554688 21 L 13.5 1.5 L 13.5 0.75 L 12 0.75 L 7.5 16.5 L 3 0.75 Z M 1.5 0.75 "/>
<path fill-rule="nonzero" fill="rgb(0%, 0%, 0%)" fill-opacity="1" d="M 5.953125 7.859375 L 5.953125 7.128906 L 8.074219 4.472656 C 8.15625 4.367188 8.210938 4.273438 8.238281 4.1875 C 8.261719 4.097656 8.273438 4.015625 8.273438 3.933594 C 8.273438 3.746094 8.207031 3.570312 8.070312 3.40625 C 7.9375 3.242188 7.753906 3.160156 7.523438 3.160156 C 7.3125 3.160156 7.132812 3.234375 6.980469 3.375 C 6.832031 3.511719 6.75 3.703125 6.730469 3.945312 L 5.953125 3.945312 C 5.957031 3.507812 6.105469 3.136719 6.402344 2.839844 C 6.699219 2.535156 7.054688 2.382812 7.464844 2.382812 C 7.917969 2.382812 8.292969 2.535156 8.59375 2.839844 C 8.898438 3.144531 9.046875 3.511719 9.046875 3.941406 C 9.046875 4.308594 8.941406 4.625 8.722656 4.894531 L 6.976562 7.085938 L 9.046875 7.085938 L 9.046875 7.859375 Z M 5.953125 7.859375 "/>
</svg>
