<?xml version="1.0" encoding="UTF-8"?>
<svg xmlns="http://www.w3.org/2000/svg" xmlns:xlink="http://www.w3.org/1999/xlink" width="15" height="22.5" viewBox="0 0 15 22.5">
<path fill-rule="nonzero" fill="rgb(0%, 0%, 0%)" fill-opacity="1" d="M 0 0 L 15 0 L 15 22.5 L 0 22.5 Z M 0 0 "/>
<path fill-rule="nonzero" fill="rgb(100%, 100%, 100%)" fill-opacity="1" d="M 1.5 1.5 L 13.5 1.5 L 13.5 21 L 1.5 21 Z M 1.5 1.5 "/>
<path fill-rule="evenodd" fill="rgb(0%, 0%, 0%)" fill-opacity="1" d="M 1.5 0.75 L 1.5 1.5 L 7.554688 21 L 13.5 1.5 L 13.5 0.75 L 12 0.75 L 7.5 16.5 L 3 0.75 Z M 1.5 0.75 "/>
<path fill-rule="nonzero" fill="rgb(0%, 0%, 0%)" fill-opacity="1" d="M 7.148438 6.125 L 7.148438 5.433594 L 7.417969 5.433594 C 7.675781 5.433594 7.882812 5.363281 8.03125 5.21875 C 8.183594 5.070312 8.261719 4.882812 8.261719 4.660156 C 8.261719 4.4375 8.183594 4.246094 8.023438 4.09375 C 7.867188 3.941406 7.679688 3.867188 7.460938 3.867188 C 7.296875 3.867188 7.140625 3.921875 6.992188 4.03125 C 6.84375 4.140625 6.75 4.308594 6.707031 4.527344 L 5.921875 4.527344 C 5.953125 4.140625 6.113281 3.804688 6.40625 3.515625 C 6.699219 3.226562 7.042969 3.082031 7.429688 3.082031 C 7.921875 3.082031 8.3125 3.242188 8.605469 3.566406 C 8.898438 3.886719 9.046875 4.246094 9.046875 4.644531 C 9.046875 4.851562 9.003906 5.058594 8.921875 5.257812 C 8.839844 5.457031 8.6875 5.628906 8.460938 5.773438 C 8.691406 5.921875 8.855469 6.101562 8.957031 6.320312 C 9.058594 6.535156 9.105469 6.75 9.105469 6.972656 C 9.105469 7.480469 8.945312 7.886719 8.625 8.191406 C 8.308594 8.492188 7.914062 8.644531 7.445312 8.644531 C 7.078125 8.644531 6.742188 8.527344 6.445312 8.289062 C 6.148438 8.046875 5.964844 7.699219 5.894531 7.242188 L 6.679688 7.242188 C 6.75 7.429688 6.847656 7.582031 6.972656 7.695312 C 7.09375 7.808594 7.269531 7.867188 7.492188 7.867188 C 7.710938 7.867188 7.902344 7.789062 8.070312 7.636719 C 8.238281 7.480469 8.320312 7.269531 8.320312 6.996094 C 8.320312 6.722656 8.238281 6.511719 8.070312 6.359375 C 7.90625 6.203125 7.707031 6.125 7.476562 6.125 Z M 7.148438 6.125 "/>
</svg>
