<?xml version="1.0" encoding="UTF-8"?>
<svg xmlns="http://www.w3.org/2000/svg" xmlns:xlink="http://www.w3.org/1999/xlink" width="15" height="22.5" viewBox="0 0 15 22.5">
<path fill-rule="nonzero" fill="rgb(0%, 0%, 0%)" fill-opacity="1" d="M 0 0 L 15 0 L 15 22.5 L 0 22.5 Z M 0 0 "/>
<path fill-rule="nonzero" fill="rgb(100%, 100%, 100%)" fill-opacity="1" d="M 1.5 1.5 L 13.5 1.5 L 13.5 21 L 1.5 21 Z M 1.5 1.5 "/>
<path fill-rule="evenodd" fill="rgb(0%, 0%, 0%)" fill-opacity="1" d="M 1.5 0.75 L 1.5 1.5 L 7.554688 21 L 13.5 1.5 L 13.5 0.75 L 12 0.75 L 7.5 16.5 L 3 0.75 Z M 1.5 0.75 "/>
<path fill-rule="nonzero" fill="rgb(0%, 0%, 0%)" fill-opacity="1" d="M 5.4375 7.863281 L 5.4375 6.992188 L 7.59375 2.382812 L 8.621094 2.382812 L 6.441406 6.992188 L 8.121094 6.992188 L 8.121094 5.140625 L 9.046875 5.140625 L 9.046875 6.992188 L 9.5625 6.992188 L 9.5625 7.863281 L 9.046875 7.863281 L 9.046875 8.820312 L 8.121094 8.820312 L 8.121094 7.863281 Z M 5.4375 7.863281 "/>
</svg>
