<?xml version="1.0" encoding="UTF-8"?>
<svg xmlns="http://www.w3.org/2000/svg" xmlns:xlink="http://www.w3.org/1999/xlink" width="15" height="22.5" viewBox="0 0 15 22.5">
<path fill-rule="nonzero" fill="rgb(0%, 0%, 0%)" fill-opacity="1" d="M 0 0 L 15 0 L 15 22.5 L 0 22.5 Z M 0 0 "/>
<path fill-rule="nonzero" fill="rgb(100%, 100%, 100%)" fill-opacity="1" d="M 1.5 1.5 L 13.5 1.5 L 13.5 21 L 1.5 21 Z M 1.5 1.5 "/>
<path fill-rule="evenodd" fill="rgb(0%, 0%, 0%)" fill-opacity="1" d="M 1.5 0.75 L 1.5 1.5 L 7.554688 21 L 13.5 1.5 L 13.5 0.75 L 12 0.75 L 7.5 16.5 L 3 0.75 Z M 1.5 0.75 "/>
<path fill-rule="nonzero" fill="rgb(0%, 0%, 0%)" fill-opacity="1" d="M 7.171875 9.605469 C 6.78125 9.515625 6.46875 9.378906 6.242188 9.191406 C 6.015625 9.003906 5.804688 8.742188 5.617188 8.414062 C 5.578125 8.300781 5.554688 8.222656 5.542969 8.179688 C 5.53125 8.136719 5.507812 8.027344 5.472656 7.863281 C 5.464844 7.816406 5.460938 7.765625 5.457031 7.707031 C 5.453125 7.648438 5.453125 7.503906 5.453125 7.285156 C 5.453125 7.0625 5.453125 6.71875 5.453125 6.265625 C 5.453125 5.804688 5.453125 5.15625 5.453125 4.3125 C 5.511719 3.816406 5.65625 3.429688 5.886719 3.148438 C 6.117188 2.863281 6.457031 2.628906 6.910156 2.433594 C 7.703125 2.269531 8.425781 2.472656 9.070312 3.039062 C 9.359375 3.40625 9.519531 3.878906 9.546875 4.457031 C 9.371094 4.457031 9.199219 4.457031 9.023438 4.457031 C 8.859375 4.457031 8.6875 4.457031 8.519531 4.457031 C 8.460938 4.125 8.378906 3.890625 8.265625 3.757812 C 8.152344 3.625 7.933594 3.503906 7.605469 3.402344 C 7.273438 3.402344 7.015625 3.460938 6.835938 3.578125 C 6.664062 3.683594 6.53125 3.902344 6.445312 4.222656 C 6.441406 4.480469 6.4375 4.738281 6.4375 5 C 6.4375 5.257812 6.4375 5.515625 6.4375 5.773438 C 6.878906 5.515625 7.335938 5.375 7.8125 5.34375 C 8.285156 5.3125 8.726562 5.496094 9.125 5.894531 C 9.355469 6.1875 9.488281 6.507812 9.523438 6.851562 C 9.558594 7.191406 9.554688 7.546875 9.519531 7.914062 C 9.398438 8.4375 9.207031 8.820312 8.929688 9.0625 C 8.65625 9.308594 8.265625 9.488281 7.75 9.605469 C 7.65625 9.605469 7.558594 9.605469 7.460938 9.605469 C 7.363281 9.605469 7.265625 9.605469 7.167969 9.605469 Z M 7.367188 8.589844 C 7.902344 8.589844 8.246094 8.398438 8.398438 8.019531 C 8.554688 7.640625 8.550781 7.222656 8.382812 6.765625 C 8.230469 6.550781 8.078125 6.414062 7.921875 6.359375 C 7.765625 6.304688 7.5625 6.28125 7.316406 6.28125 C 6.945312 6.378906 6.714844 6.542969 6.628906 6.769531 C 6.542969 6.992188 6.496094 7.277344 6.496094 7.625 C 6.542969 7.933594 6.625 8.15625 6.742188 8.285156 C 6.855469 8.414062 7.066406 8.515625 7.367188 8.589844 Z M 7.367188 8.589844 "/>
</svg>
