<?xml version="1.0" encoding="UTF-8"?>
<svg xmlns="http://www.w3.org/2000/svg" xmlns:xlink="http://www.w3.org/1999/xlink" width="15" height="22.5" viewBox="0 0 15 22.5">
<path fill-rule="nonzero" fill="rgb(0%, 0%, 0%)" fill-opacity="1" d="M 0 0 L 15 0 L 15 22.5 L 0 22.5 Z M 0 0 "/>
<path fill-rule="nonzero" fill="rgb(100%, 100%, 100%)" fill-opacity="1" d="M 1.5 1.5 L 13.5 1.5 L 13.5 21 L 1.5 21 Z M 1.5 1.5 "/>
<path fill-rule="evenodd" fill="rgb(0%, 0%, 0%)" fill-opacity="1" d="M 1.5 0.75 L 1.5 1.5 L 7.554688 21 L 13.5 1.5 L 13.5 0.75 L 12 0.75 L 7.5 16.5 L 3 0.75 Z M 1.5 0.75 "/>
<path fill-rule="nonzero" fill="rgb(0%, 0%, 0%)" fill-opacity="1" d="M 6.554688 3.988281 C 6.554688 4.296875 6.652344 4.53125 6.84375 4.691406 C 7.039062 4.851562 7.257812 4.929688 7.5 4.929688 C 7.742188 4.929688 7.957031 4.851562 8.148438 4.691406 C 8.347656 4.53125 8.445312 4.296875 8.445312 3.988281 C 8.445312 3.679688 8.347656 3.445312 8.148438 3.285156 C 7.957031 3.125 7.742188 3.042969 7.5 3.042969 C 7.257812 3.042969 7.039062 3.125 6.84375 3.285156 C 6.652344 3.445312 6.554688 3.679688 6.554688 3.988281 Z M 5.492188 6.820312 C 5.492188 6.179688 5.753906 5.683594 6.269531 5.339844 C 6.074219 5.164062 5.914062 4.96875 5.792969 4.757812 C 5.671875 4.546875 5.609375 4.292969 5.609375 4.003906 C 5.609375 3.472656 5.792969 3.023438 6.152344 2.65625 C 6.519531 2.285156 6.964844 2.097656 7.5 2.097656 C 8.035156 2.097656 8.480469 2.285156 8.84375 2.65625 C 9.207031 3.023438 9.390625 3.472656 9.390625 4.003906 C 9.390625 4.292969 9.328125 4.546875 9.203125 4.757812 C 9.078125 4.96875 8.925781 5.164062 8.734375 5.339844 C 9.25 5.6875 9.507812 6.179688 9.507812 6.820312 C 9.507812 7.402344 9.308594 7.878906 8.910156 8.246094 C 8.515625 8.609375 8.046875 8.792969 7.5 8.792969 C 6.953125 8.792969 6.480469 8.609375 6.085938 8.246094 C 5.691406 7.878906 5.492188 7.402344 5.492188 6.820312 Z M 6.4375 6.8125 C 6.4375 7.109375 6.542969 7.363281 6.753906 7.558594 C 6.96875 7.757812 7.214844 7.855469 7.5 7.855469 C 7.78125 7.855469 8.027344 7.757812 8.242188 7.558594 C 8.457031 7.363281 8.566406 7.109375 8.566406 6.8125 C 8.566406 6.507812 8.457031 6.257812 8.242188 6.058594 C 8.027344 5.863281 7.78125 5.761719 7.5 5.761719 C 7.214844 5.761719 6.96875 5.863281 6.753906 6.058594 C 6.542969 6.257812 6.4375 6.507812 6.4375 6.8125 Z M 6.4375 6.8125 "/>
</svg>
