<?xml version="1.0" encoding="UTF-8"?>
<svg xmlns="http://www.w3.org/2000/svg" xmlns:xlink="http://www.w3.org/1999/xlink" width="15.341" height="23" viewBox="0 0 15.341 23">
<path fill-rule="nonzero" fill="rgb(100%, 100%, 100%)" fill-opacity="1" stroke-width="40" stroke-linecap="round" stroke-linejoin="miter" stroke="rgb(0%, 0%, 0%)" stroke-opacity="1" stroke-miterlimit="4" d="M 19.967764 19.973482 L 379.999969 19.973482 L 379.999969 580.046225 L 19.967764 580.046225 Z M 19.967764 19.973482 " transform="matrix(-0.0383321, 0, 0, -0.0383321, 15.331812, 23)"/>
<path fill="none" stroke-width="40" stroke-linecap="butt" stroke-linejoin="miter" stroke="rgb(0%, 0%, 0%)" stroke-opacity="1" stroke-miterlimit="4" d="M 18.541087 40.04887 L 200.034819 504.941856 L 381.426647 40.04887 " transform="matrix(-0.0383321, 0, 0, -0.0383321, 15.331812, 23)"/>
<path fill-rule="nonzero" fill="rgb(0%, 0%, 0%)" fill-opacity="1" d="M 7.664062 12.414062 C 6.265625 12.414062 5.132812 13.546875 5.132812 14.945312 L 5.132812 18.742188 C 5.132812 19.648438 5.617188 20.484375 6.398438 20.9375 C 7.183594 21.386719 8.148438 21.386719 8.929688 20.9375 C 9.714844 20.484375 10.195312 19.648438 10.195312 18.742188 L 8.929688 18.742188 C 8.929688 19.195312 8.6875 19.613281 8.296875 19.839844 C 7.90625 20.066406 7.421875 20.066406 7.03125 19.839844 C 6.640625 19.613281 6.398438 19.195312 6.398438 18.742188 L 6.398438 14.945312 C 6.398438 14.246094 6.964844 13.679688 7.664062 13.679688 C 8.363281 13.679688 8.929688 14.246094 8.929688 14.945312 L 10.195312 14.945312 C 10.195312 13.546875 9.0625 12.414062 7.664062 12.414062 Z M 7.664062 12.414062 "/>
</svg>
