<?xml version="1.0" encoding="UTF-8"?>
<svg xmlns="http://www.w3.org/2000/svg" xmlns:xlink="http://www.w3.org/1999/xlink" width="15.341" height="23" viewBox="0 0 15.341 23">
<path fill-rule="nonzero" fill="rgb(100%, 100%, 100%)" fill-opacity="1" stroke-width="40" stroke-linecap="round" stroke-linejoin="miter" stroke="rgb(0%, 0%, 0%)" stroke-opacity="1" stroke-miterlimit="4" d="M 20.013693 19.973482 L 380.045898 19.973482 L 380.045898 580.046225 L 20.013693 580.046225 Z M 20.013693 19.973482 " transform="matrix(0.0383321, 0, 0, 0.0383321, -0.00154136, 0)"/>
<path fill="none" stroke-width="40" stroke-linecap="butt" stroke-linejoin="miter" stroke="rgb(0%, 0%, 0%)" stroke-opacity="1" stroke-miterlimit="4" d="M 18.48511 40.04887 L 199.978843 504.941856 L 381.472575 40.04887 " transform="matrix(0.0383321, 0, 0, 0.0383321, -0.00154136, 0)"/>
<path fill-rule="nonzero" fill="rgb(0%, 0%, 0%)" fill-opacity="1" d="M 7.664062 1.726562 C 6.273438 1.726562 5.132812 2.867188 5.132812 4.257812 L 6.398438 4.257812 C 6.398438 3.550781 6.957031 2.992188 7.664062 2.992188 C 8.371094 2.992188 8.929688 3.550781 8.929688 4.257812 C 8.929688 4.964844 8.371094 5.523438 7.664062 5.523438 L 7.03125 5.523438 L 7.03125 6.789062 L 7.664062 6.789062 C 8.371094 6.789062 8.929688 7.347656 8.929688 8.054688 C 8.929688 8.761719 8.371094 9.320312 7.664062 9.320312 C 6.957031 9.320312 6.398438 8.761719 6.398438 8.054688 L 5.132812 8.054688 C 5.132812 9.445312 6.273438 10.585938 7.664062 10.585938 C 9.054688 10.585938 10.195312 9.445312 10.195312 8.054688 C 10.195312 7.300781 9.859375 6.621094 9.332031 6.15625 C 9.859375 5.691406 10.195312 5.011719 10.195312 4.257812 C 10.195312 2.867188 9.054688 1.726562 7.664062 1.726562 Z M 7.664062 1.726562 "/>
</svg>
