<?xml version="1.0" encoding="UTF-8"?>
<svg xmlns="http://www.w3.org/2000/svg" xmlns:xlink="http://www.w3.org/1999/xlink" width="15" height="22.5" viewBox="0 0 15 22.5">
<path fill-rule="nonzero" fill="rgb(0%, 0%, 0%)" fill-opacity="1" d="M 0 0 L 15 0 L 15 22.5 L 0 22.5 Z M 0 0 "/>
<path fill-rule="nonzero" fill="rgb(100%, 100%, 100%)" fill-opacity="1" d="M 1.5 1.5 L 13.5 1.5 L 13.5 21 L 1.5 21 Z M 1.5 1.5 "/>
<path fill-rule="evenodd" fill="rgb(0%, 0%, 0%)" fill-opacity="1" d="M 1.5 0.75 L 1.5 1.5 L 7.554688 21 L 13.5 1.5 L 13.5 0.75 L 12 0.75 L 7.5 16.5 L 3 0.75 Z M 1.5 0.75 "/>
<path fill-rule="nonzero" fill="rgb(0%, 0%, 0%)" fill-opacity="1" d="M 5.773438 5.96875 L 5.773438 2.476562 L 9.21875 2.476562 L 9.21875 3.402344 L 6.648438 3.402344 L 6.648438 4.859375 C 6.945312 4.625 7.289062 4.503906 7.683594 4.503906 C 7.925781 4.503906 8.148438 4.554688 8.351562 4.648438 C 8.554688 4.742188 8.714844 4.851562 8.835938 4.980469 C 9.011719 5.171875 9.140625 5.378906 9.222656 5.609375 C 9.300781 5.835938 9.34375 6.214844 9.34375 6.75 C 9.34375 7.183594 9.3125 7.507812 9.246094 7.71875 C 9.183594 7.929688 9.085938 8.121094 8.945312 8.300781 C 8.8125 8.46875 8.625 8.625 8.386719 8.773438 C 8.148438 8.914062 7.867188 8.988281 7.546875 8.988281 C 7.128906 8.988281 6.726562 8.859375 6.339844 8.601562 C 5.953125 8.34375 5.722656 7.914062 5.65625 7.3125 L 6.582031 7.3125 C 6.691406 7.816406 7 8.066406 7.507812 8.066406 C 7.960938 8.066406 8.226562 7.910156 8.300781 7.601562 C 8.378906 7.289062 8.417969 6.984375 8.417969 6.675781 C 8.417969 6.320312 8.355469 6.023438 8.238281 5.789062 C 8.117188 5.550781 7.863281 5.433594 7.480469 5.433594 C 7.125 5.433594 6.847656 5.609375 6.648438 5.96875 Z M 5.773438 5.96875 "/>
</svg>
