<svg width="15.34" height="23" version="1.1" viewBox="0 0 4.059 6.085" xmlns="http://www.w3.org/2000/svg">
 <g transform="matrix(.01014 0 0 .01014 -.0004354 0)" stroke="#000" stroke-width="40">
  <rect x="20" y="20" width="360" height="560" fill="#fff" stroke-linecap="round"/>
  <path d="m18.53 40 181.5 465 181.5-465" fill="none"/>
 </g>
 <path d="m1.135 0.4566v0.2232h0.6452l-0.6452 1.339h0.2478l0.6452-1.339v-0.2232z" stroke-width=".02557"/>
 <path d="m2.108 1.859v0.3212l0.1606-0.1606v-0.1606z" stroke-miterlimit="5" stroke-width=".09013"/>
 <g transform="matrix(.00321 0 0 .00321 1.226 .7032)">
  <path d="m550 85h-175v100l75 1e-5c41.42 0 75 33.58 75 75l3e-5 50c0 41.42-33.58 75-75 75s-75-33.58-75-75" fill="none" stroke="#000" stroke-width="50"/>
 </g>
</svg>
