<?xml version="1.0" encoding="UTF-8"?>
<svg xmlns="http://www.w3.org/2000/svg" xmlns:xlink="http://www.w3.org/1999/xlink" width="15.341" height="23" viewBox="0 0 15.341 23">
<path fill-rule="nonzero" fill="rgb(100%, 100%, 100%)" fill-opacity="1" stroke-width="40" stroke-linecap="round" stroke-linejoin="miter" stroke="rgb(0%, 0%, 0%)" stroke-opacity="1" stroke-miterlimit="4" d="M 20.013693 19.973482 L 380.045898 19.973482 L 380.045898 580.046225 L 20.013693 580.046225 Z M 20.013693 19.973482 " transform="matrix(0.0383321, 0, 0, 0.0383321, -0.00154136, 0)"/>
<path fill="none" stroke-width="40" stroke-linecap="butt" stroke-linejoin="miter" stroke="rgb(0%, 0%, 0%)" stroke-opacity="1" stroke-miterlimit="4" d="M 18.48511 40.04887 L 199.978843 504.941856 L 381.472575 40.04887 " transform="matrix(0.0383321, 0, 0, 0.0383321, -0.00154136, 0)"/>
<path fill-rule="nonzero" fill="rgb(0%, 0%, 0%)" fill-opacity="1" d="M 5.730469 1.726562 C 5.585938 1.726562 5.445312 1.75 5.300781 1.789062 C 4.65625 1.984375 4.214844 2.585938 4.214844 3.257812 L 4.980469 3.257812 C 4.980469 2.917969 5.199219 2.625 5.523438 2.523438 C 5.851562 2.425781 6.195312 2.550781 6.386719 2.832031 C 6.574219 3.117188 6.554688 3.484375 6.339844 3.746094 L 4.210938 6.328125 L 4.210938 7.09375 L 7.28125 7.09375 L 7.28125 6.328125 L 5.207031 6.328125 L 6.929688 4.234375 C 6.601562 3.964844 6.601562 3.964844 6.929688 4.234375 C 7.359375 3.714844 7.398438 2.96875 7.023438 2.410156 C 6.742188 1.988281 6.277344 1.742188 5.792969 1.726562 C 5.769531 1.726562 5.75 1.726562 5.730469 1.726562 Z M 5.730469 1.726562 "/>
<path fill-rule="nonzero" fill="rgb(0%, 0%, 0%)" fill-opacity="1" d="M 9.582031 1.726562 C 8.734375 1.726562 8.046875 2.414062 8.046875 3.257812 L 8.046875 5.5625 C 8.046875 6.40625 8.734375 7.09375 9.582031 7.09375 C 10.429688 7.09375 11.117188 6.40625 11.117188 5.5625 L 11.117188 3.257812 C 11.117188 2.414062 10.429688 1.726562 9.582031 1.726562 Z M 9.582031 2.492188 C 10.007812 2.492188 10.347656 2.835938 10.347656 3.257812 L 10.347656 5.5625 C 10.347656 5.984375 10.007812 6.328125 9.582031 6.328125 C 9.160156 6.328125 8.816406 5.984375 8.816406 5.5625 L 8.816406 3.257812 C 8.816406 2.835938 9.160156 2.492188 9.582031 2.492188 Z M 9.582031 2.492188 "/>
</svg>
