<?xml version="1.0" encoding="UTF-8"?>
<svg xmlns="http://www.w3.org/2000/svg" xmlns:xlink="http://www.w3.org/1999/xlink" width="15.341" height="23" viewBox="0 0 15.341 23">
<path fill-rule="nonzero" fill="rgb(100%, 100%, 100%)" fill-opacity="1" stroke-width="40" stroke-linecap="round" stroke-linejoin="miter" stroke="rgb(0%, 0%, 0%)" stroke-opacity="1" stroke-miterlimit="4" d="M 20.013693 19.973482 L 380.045898 19.973482 L 380.045898 580.046225 L 20.013693 580.046225 Z M 20.013693 19.973482 " transform="matrix(0.0383321, 0, 0, 0.0383321, -0.00154136, 0)"/>
<path fill="none" stroke-width="40" stroke-linecap="butt" stroke-linejoin="miter" stroke="rgb(0%, 0%, 0%)" stroke-opacity="1" stroke-miterlimit="4" d="M 18.48511 40.04887 L 199.978843 504.941856 L 381.472575 40.04887 " transform="matrix(0.0383321, 0, 0, 0.0383321, -0.00154136, 0)"/>
<path fill-rule="nonzero" fill="rgb(0%, 0%, 0%)" fill-opacity="1" d="M 7.664062 1.726562 C 7.429688 1.726562 7.191406 1.761719 6.960938 1.832031 C 5.894531 2.15625 5.160156 3.144531 5.160156 4.257812 L 6.425781 4.257812 C 6.425781 3.695312 6.789062 3.207031 7.324219 3.046875 C 7.863281 2.882812 8.433594 3.089844 8.746094 3.554688 C 9.054688 4.019531 9.027344 4.628906 8.667969 5.0625 L 5.160156 9.320312 L 5.160156 10.585938 L 10.222656 10.585938 L 10.222656 9.320312 L 6.800781 9.320312 L 9.644531 5.867188 C 9.105469 5.421875 9.105469 5.421875 9.644531 5.867188 C 10.355469 5.007812 10.417969 3.78125 9.800781 2.851562 C 9.335938 2.160156 8.570312 1.75 7.765625 1.726562 C 7.730469 1.726562 7.699219 1.726562 7.664062 1.726562 Z M 7.664062 1.726562 "/>
</svg>
