<svg width="15.34" height="23" version="1.1" viewBox="0 0 4.059 6.085" xmlns="http://www.w3.org/2000/svg">
 <g transform="matrix(.01014 0 0 .01014 -.0004388 0)" stroke="#000" stroke-width="40">
  <rect x="20" y="20" width="360" height="560" fill="#fff"/>
  <path d="m18.53 40 181.5 465 181.5-465" fill="none"/>
 </g>
 <path d="m1.577 0.4566c-0.04149 4.027e-4 -0.08337 0.0066-0.1245 0.01905-0.1879 0.05686-0.3172 0.2311-0.3172 0.4274h0.2232c0-0.09887 0.06395-0.185 0.1586-0.2137 0.09463-0.02864 0.1956 0.00759 0.2505 0.08987 0.05482 0.08227 0.04939 0.1895-0.01347 0.2658-1.3e-6 2e-6 2e-6 8.7e-6 0 1.07e-5l-0.6188 0.7511v0.2233h0.893v-0.2233h-0.6037l0.5018-0.6091c-0.09545-0.07865-0.09547-0.07867 0-1.07e-5 0.1248-0.1515 0.1358-0.3681 0.02699-0.5315-0.08164-0.1225-0.2169-0.1944-0.3587-0.1987-0.00593-1.693e-4 -0.01183-2.433e-4 -0.01776-1.893e-4z" color="#000000"/>
 <path d="m2.108 1.859v0.3212l0.1606-0.1606v-0.1606z" stroke-miterlimit="5" stroke-width=".09013"/>
 <g transform="matrix(.00321 0 0 .00321 1.226 .7032)">
  <path d="m550 85h-175v100l75 1e-5c41.42 0 75 33.58 75 75l3e-5 50c0 41.42-33.58 75-75 75s-75-33.58-75-75" fill="none" stroke="#000" stroke-width="50"/>
 </g>
</svg>
