<?xml version="1.0" encoding="UTF-8"?>
<svg xmlns="http://www.w3.org/2000/svg" xmlns:xlink="http://www.w3.org/1999/xlink" width="15.341" height="23" viewBox="0 0 15.341 23">
<path fill-rule="nonzero" fill="rgb(100%, 100%, 100%)" fill-opacity="1" stroke-width="40" stroke-linecap="round" stroke-linejoin="miter" stroke="rgb(0%, 0%, 0%)" stroke-opacity="1" stroke-miterlimit="4" d="M 20.013693 19.973482 L 380.045898 19.973482 L 380.045898 580.046225 L 20.013693 580.046225 Z M 20.013693 19.973482 " transform="matrix(0.0383321, 0, 0, 0.0383321, -0.00154136, 0)"/>
<path fill="none" stroke-width="40" stroke-linecap="butt" stroke-linejoin="miter" stroke="rgb(0%, 0%, 0%)" stroke-opacity="1" stroke-miterlimit="4" d="M 18.48511 40.04887 L 199.978843 504.941856 L 381.472575 40.04887 " transform="matrix(0.0383321, 0, 0, 0.0383321, -0.00154136, 0)"/>
<path fill-rule="nonzero" fill="rgb(0%, 0%, 0%)" fill-opacity="1" d="M 6.226562 1.726562 L 5.269531 1.726562 L 4.308594 3.644531 L 5.269531 3.644531 L 5.269531 8.4375 L 6.226562 8.4375 Z M 6.226562 1.726562 "/>
<path fill-rule="nonzero" fill="rgb(0%, 0%, 0%)" fill-opacity="1" d="M 9.101562 1.726562 C 8.050781 1.726562 7.1875 2.589844 7.1875 3.644531 L 8.144531 3.644531 C 8.144531 3.109375 8.566406 2.683594 9.101562 2.683594 C 9.636719 2.683594 10.0625 3.109375 10.0625 3.644531 C 10.0625 4.179688 9.636719 4.601562 9.101562 4.601562 L 8.625 4.601562 L 8.625 5.5625 L 9.101562 5.5625 C 9.636719 5.5625 10.0625 5.984375 10.0625 6.519531 C 10.0625 7.054688 9.636719 7.480469 9.101562 7.480469 C 8.566406 7.480469 8.144531 7.054688 8.144531 6.519531 L 7.1875 6.519531 C 7.1875 7.574219 8.050781 8.4375 9.101562 8.4375 C 10.15625 8.4375 11.019531 7.574219 11.019531 6.519531 C 11.019531 5.949219 10.765625 5.433594 10.367188 5.082031 C 10.765625 4.730469 11.019531 4.214844 11.019531 3.644531 C 11.019531 2.589844 10.15625 1.726562 9.101562 1.726562 Z M 9.101562 1.726562 "/>
</svg>
