<?xml version="1.0" encoding="UTF-8"?>
<svg xmlns="http://www.w3.org/2000/svg" xmlns:xlink="http://www.w3.org/1999/xlink" width="15.341" height="23" viewBox="0 0 15.341 23">
<path fill-rule="nonzero" fill="rgb(100%, 100%, 100%)" fill-opacity="1" stroke-width="40" stroke-linecap="round" stroke-linejoin="miter" stroke="rgb(0%, 0%, 0%)" stroke-opacity="1" stroke-miterlimit="4" d="M 20.013693 19.973482 L 380.045898 19.973482 L 380.045898 580.046225 L 20.013693 580.046225 Z M 20.013693 19.973482 " transform="matrix(0.0383321, 0, 0, 0.0383321, -0.00154136, 0)"/>
<path fill="none" stroke-width="40" stroke-linecap="butt" stroke-linejoin="miter" stroke="rgb(0%, 0%, 0%)" stroke-opacity="1" stroke-miterlimit="4" d="M 18.48511 40.04887 L 199.978843 504.941856 L 381.472575 40.04887 " transform="matrix(0.0383321, 0, 0, 0.0383321, -0.00154136, 0)"/>
<path fill-rule="nonzero" fill="rgb(0%, 0%, 0%)" fill-opacity="1" d="M 6.226562 1.726562 L 5.269531 1.726562 L 4.308594 3.644531 L 5.269531 3.644531 L 5.269531 8.4375 L 6.226562 8.4375 Z M 6.226562 1.726562 "/>
<path fill-rule="nonzero" fill="rgb(0%, 0%, 0%)" fill-opacity="1" d="M 7.1875 1.726562 L 7.1875 4.601562 L 9.101562 4.601562 C 9.632812 4.601562 10.0625 5.03125 10.0625 5.5625 L 10.0625 6.519531 C 10.0625 6.863281 9.878906 7.179688 9.582031 7.351562 C 9.285156 7.523438 8.921875 7.523438 8.625 7.351562 C 8.328125 7.179688 8.144531 6.863281 8.144531 6.519531 L 7.1875 6.519531 C 7.1875 7.207031 7.550781 7.839844 8.144531 8.179688 C 8.738281 8.523438 9.46875 8.523438 10.0625 8.179688 C 10.65625 7.839844 11.019531 7.207031 11.019531 6.519531 L 11.019531 5.5625 C 11.019531 4.503906 10.164062 3.644531 9.101562 3.644531 L 8.144531 3.644531 L 8.144531 2.683594 L 11.019531 2.683594 L 11.019531 1.726562 Z M 7.1875 1.726562 "/>
</svg>
