<?xml version="1.0" encoding="UTF-8"?>
<svg xmlns="http://www.w3.org/2000/svg" xmlns:xlink="http://www.w3.org/1999/xlink" width="15.341" height="23" viewBox="0 0 15.341 23">
<path fill-rule="nonzero" fill="rgb(100%, 100%, 100%)" fill-opacity="1" stroke-width="40" stroke-linecap="round" stroke-linejoin="miter" stroke="rgb(0%, 0%, 0%)" stroke-opacity="1" stroke-miterlimit="4" d="M 20.013693 19.973482 L 380.045898 19.973482 L 380.045898 580.046225 L 20.013693 580.046225 Z M 20.013693 19.973482 " transform="matrix(0.0383321, 0, 0, 0.0383321, -0.00154136, 0)"/>
<path fill="none" stroke-width="40" stroke-linecap="butt" stroke-linejoin="miter" stroke="rgb(0%, 0%, 0%)" stroke-opacity="1" stroke-miterlimit="4" d="M 18.48511 40.04887 L 199.978843 504.941856 L 381.472575 40.04887 " transform="matrix(0.0383321, 0, 0, 0.0383321, -0.00154136, 0)"/>
<path fill-rule="nonzero" fill="rgb(0%, 0%, 0%)" fill-opacity="1" d="M 6.226562 1.726562 L 5.269531 1.726562 L 4.308594 3.644531 L 5.269531 3.644531 L 5.269531 8.4375 L 6.226562 8.4375 Z M 6.226562 1.726562 "/>
<path fill-rule="nonzero" fill="rgb(0%, 0%, 0%)" fill-opacity="1" d="M 7.1875 1.726562 L 7.1875 2.683594 L 9.957031 2.683594 L 7.1875 8.4375 L 8.25 8.4375 L 11.019531 2.683594 L 11.019531 1.726562 Z M 7.1875 1.726562 "/>
</svg>
