<?xml version="1.0" encoding="UTF-8"?>
<svg xmlns="http://www.w3.org/2000/svg" xmlns:xlink="http://www.w3.org/1999/xlink" width="15.341" height="23" viewBox="0 0 15.341 23">
<path fill-rule="nonzero" fill="rgb(100%, 100%, 100%)" fill-opacity="1" stroke-width="40" stroke-linecap="round" stroke-linejoin="miter" stroke="rgb(0%, 0%, 0%)" stroke-opacity="1" stroke-miterlimit="4" d="M 20.013693 19.973482 L 380.045898 19.973482 L 380.045898 580.046225 L 20.013693 580.046225 Z M 20.013693 19.973482 " transform="matrix(0.0383321, 0, 0, 0.0383321, -0.00154136, 0)"/>
<path fill="none" stroke-width="40" stroke-linecap="butt" stroke-linejoin="miter" stroke="rgb(0%, 0%, 0%)" stroke-opacity="1" stroke-miterlimit="4" d="M 18.48511 40.04887 L 199.978843 504.941856 L 381.472575 40.04887 " transform="matrix(0.0383321, 0, 0, 0.0383321, -0.00154136, 0)"/>
<path fill-rule="nonzero" fill="rgb(0%, 0%, 0%)" fill-opacity="1" d="M 6.226562 1.726562 L 5.269531 1.726562 L 4.308594 3.644531 L 5.269531 3.644531 L 5.269531 8.4375 L 6.226562 8.4375 Z M 6.226562 1.726562 "/>
<path fill-rule="nonzero" fill="rgb(0%, 0%, 0%)" fill-opacity="1" d="M 9.082031 1.726562 C 8.90625 1.726562 8.726562 1.753906 8.546875 1.808594 C 7.742188 2.050781 7.1875 2.800781 7.1875 3.644531 L 8.144531 3.644531 C 8.144531 3.21875 8.417969 2.847656 8.824219 2.726562 C 9.230469 2.601562 9.667969 2.757812 9.902344 3.113281 C 10.136719 3.464844 10.113281 3.925781 9.84375 4.253906 L 7.1875 7.480469 L 7.1875 8.4375 L 11.019531 8.4375 L 11.019531 7.480469 L 8.429688 7.480469 L 10.582031 4.863281 C 10.171875 4.523438 10.171875 4.523438 10.582031 4.863281 C 11.121094 4.210938 11.167969 3.28125 10.699219 2.582031 C 10.347656 2.054688 9.769531 1.746094 9.160156 1.726562 C 9.132812 1.726562 9.109375 1.726562 9.082031 1.726562 Z M 9.082031 1.726562 "/>
</svg>
