<?xml version="1.0" encoding="UTF-8"?>
<svg xmlns="http://www.w3.org/2000/svg" xmlns:xlink="http://www.w3.org/1999/xlink" width="15.341" height="23" viewBox="0 0 15.341 23">
<path fill-rule="nonzero" fill="rgb(100%, 100%, 100%)" fill-opacity="1" stroke-width="40" stroke-linecap="round" stroke-linejoin="miter" stroke="rgb(0%, 0%, 0%)" stroke-opacity="1" stroke-miterlimit="4" d="M 20.013693 19.973482 L 380.045898 19.973482 L 380.045898 580.046225 L 20.013693 580.046225 Z M 20.013693 19.973482 " transform="matrix(0.0383321, 0, 0, 0.0383321, -0.00154136, 0)"/>
<path fill="none" stroke-width="40" stroke-linecap="butt" stroke-linejoin="miter" stroke="rgb(0%, 0%, 0%)" stroke-opacity="1" stroke-miterlimit="4" d="M 18.48511 40.04887 L 199.978843 504.941856 L 381.472575 40.04887 " transform="matrix(0.0383321, 0, 0, 0.0383321, -0.00154136, 0)"/>
<path fill-rule="nonzero" fill="rgb(0%, 0%, 0%)" fill-opacity="1" d="M 7.664062 1.726562 C 6.265625 1.726562 5.132812 2.859375 5.132812 4.257812 L 5.132812 8.054688 C 5.132812 9.453125 6.265625 10.585938 7.664062 10.585938 C 9.0625 10.585938 10.195312 9.453125 10.195312 8.054688 L 10.195312 7.421875 C 10.195312 6.023438 9.0625 4.890625 7.664062 4.890625 C 7.21875 4.890625 6.785156 5.007812 6.398438 5.230469 L 6.398438 4.257812 C 6.398438 3.558594 6.964844 2.992188 7.664062 2.992188 C 8.363281 2.992188 8.929688 3.558594 8.929688 4.257812 L 10.195312 4.257812 C 10.195312 2.859375 9.0625 1.726562 7.664062 1.726562 Z M 7.664062 6.15625 C 8.363281 6.15625 8.929688 6.722656 8.929688 7.421875 L 8.929688 8.054688 C 8.929688 8.753906 8.363281 9.320312 7.664062 9.320312 C 6.964844 9.320312 6.398438 8.753906 6.398438 8.054688 L 6.398438 7.421875 C 6.398438 6.722656 6.964844 6.15625 7.664062 6.15625 Z M 7.664062 6.15625 "/>
</svg>
