<?xml version="1.0" encoding="UTF-8"?>
<svg xmlns="http://www.w3.org/2000/svg" xmlns:xlink="http://www.w3.org/1999/xlink" width="15.341" height="23" viewBox="0 0 15.341 23">
<path fill-rule="nonzero" fill="rgb(100%, 100%, 100%)" fill-opacity="1" stroke-width="40" stroke-linecap="round" stroke-linejoin="miter" stroke="rgb(0%, 0%, 0%)" stroke-opacity="1" stroke-miterlimit="4" d="M 20.013693 19.973482 L 380.045898 19.973482 L 380.045898 580.046225 L 20.013693 580.046225 Z M 20.013693 19.973482 " transform="matrix(0.0383321, 0, 0, 0.0383321, -0.00154136, 0)"/>
<path fill="none" stroke-width="40" stroke-linecap="butt" stroke-linejoin="miter" stroke="rgb(0%, 0%, 0%)" stroke-opacity="1" stroke-miterlimit="4" d="M 18.48511 40.04887 L 199.978843 504.941856 L 381.472575 40.04887 " transform="matrix(0.0383321, 0, 0, 0.0383321, -0.00154136, 0)"/>
<path fill-rule="nonzero" fill="rgb(0%, 0%, 0%)" fill-opacity="1" d="M 5.132812 1.726562 L 5.132812 5.523438 L 7.664062 5.523438 C 8.363281 5.523438 8.929688 6.089844 8.929688 6.789062 L 8.929688 8.054688 C 8.929688 8.507812 8.691406 8.925781 8.296875 9.148438 C 7.90625 9.375 7.425781 9.375 7.03125 9.148438 C 6.640625 8.925781 6.398438 8.507812 6.398438 8.054688 L 5.132812 8.054688 C 5.132812 8.957031 5.617188 9.792969 6.398438 10.246094 C 7.183594 10.699219 8.148438 10.699219 8.929688 10.246094 C 9.714844 9.792969 10.195312 8.957031 10.195312 8.054688 L 10.195312 6.789062 C 10.195312 5.390625 9.0625 4.257812 7.664062 4.257812 L 6.398438 4.257812 L 6.398438 2.992188 L 10.195312 2.992188 L 10.195312 1.726562 Z M 5.132812 1.726562 "/>
</svg>
