<?xml version="1.0" encoding="UTF-8"?>
<svg xmlns="http://www.w3.org/2000/svg" xmlns:xlink="http://www.w3.org/1999/xlink" width="15" height="22.5" viewBox="0 0 15 22.5">
<path fill-rule="nonzero" fill="rgb(0%, 0%, 0%)" fill-opacity="1" d="M 0 0 L 15 0 L 15 22.5 L 0 22.5 Z M 0 0 "/>
<path fill-rule="nonzero" fill="rgb(100%, 100%, 100%)" fill-opacity="1" d="M 1.5 1.5 L 13.5 1.5 L 13.5 21 L 1.5 21 Z M 1.5 1.5 "/>
<path fill-rule="evenodd" fill="rgb(0%, 0%, 0%)" fill-opacity="1" d="M 1.5 0.75 L 1.5 1.5 L 7.554688 21 L 13.5 1.5 L 13.5 0.75 L 12 0.75 L 7.5 16.5 L 3 0.75 Z M 1.5 0.75 "/>
<path fill-rule="nonzero" fill="rgb(0%, 0%, 0%)" fill-opacity="1" d="M 7.820312 2.144531 C 8.1875 2.234375 8.476562 2.367188 8.695312 2.546875 C 8.910156 2.722656 9.113281 2.96875 9.292969 3.285156 C 9.332031 3.394531 9.351562 3.46875 9.359375 3.511719 C 9.371094 3.554688 9.398438 3.652344 9.433594 3.808594 C 9.4375 3.855469 9.441406 3.90625 9.441406 3.964844 C 9.449219 4.023438 9.449219 4.15625 9.449219 4.371094 C 9.449219 4.578125 9.449219 4.902344 9.449219 5.34375 C 9.453125 5.78125 9.453125 6.398438 9.453125 7.195312 C 9.394531 7.671875 9.253906 8.042969 9.035156 8.308594 C 8.820312 8.578125 8.492188 8.804688 8.0625 8.980469 C 7.304688 9.136719 6.617188 8.945312 6.003906 8.410156 C 5.726562 8.058594 5.574219 7.609375 5.550781 7.058594 C 5.710938 7.058594 5.871094 7.058594 6.035156 7.058594 C 6.199219 7.058594 6.363281 7.058594 6.527344 7.058594 C 6.582031 7.371094 6.664062 7.597656 6.769531 7.726562 C 6.875 7.855469 7.085938 7.96875 7.398438 8.058594 C 7.714844 8.058594 7.957031 8.007812 8.121094 7.902344 C 8.292969 7.796875 8.421875 7.589844 8.507812 7.28125 C 8.507812 7.035156 8.507812 6.789062 8.511719 6.542969 C 8.515625 6.296875 8.515625 6.050781 8.515625 5.804688 C 8.089844 6.046875 7.648438 6.183594 7.195312 6.214844 C 6.742188 6.246094 6.328125 6.070312 5.953125 5.6875 C 5.730469 5.410156 5.601562 5.105469 5.570312 4.777344 C 5.539062 4.449219 5.539062 4.109375 5.578125 3.757812 C 5.6875 3.265625 5.871094 2.898438 6.128906 2.667969 C 6.390625 2.433594 6.769531 2.261719 7.261719 2.144531 C 7.351562 2.144531 7.445312 2.144531 7.539062 2.144531 C 7.632812 2.144531 7.726562 2.144531 7.820312 2.144531 Z M 7.625 3.121094 C 7.113281 3.121094 6.785156 3.304688 6.640625 3.664062 C 6.496094 4.027344 6.5 4.425781 6.65625 4.855469 C 6.800781 5.0625 6.945312 5.1875 7.09375 5.242188 C 7.242188 5.292969 7.4375 5.320312 7.679688 5.320312 C 8.027344 5.226562 8.242188 5.074219 8.328125 4.863281 C 8.414062 4.644531 8.457031 4.371094 8.457031 4.035156 C 8.410156 3.742188 8.332031 3.535156 8.21875 3.410156 C 8.109375 3.289062 7.910156 3.191406 7.625 3.121094 Z M 7.625 3.121094 "/>
</svg>
