<?xml version="1.0" encoding="UTF-8"?>
<svg xmlns="http://www.w3.org/2000/svg" xmlns:xlink="http://www.w3.org/1999/xlink" width="15.341" height="23" viewBox="0 0 15.341 23">
<path fill-rule="nonzero" fill="rgb(100%, 100%, 100%)" fill-opacity="1" stroke-width="40" stroke-linecap="round" stroke-linejoin="miter" stroke="rgb(0%, 0%, 0%)" stroke-opacity="1" stroke-miterlimit="4" d="M 20.013693 19.973482 L 380.045898 19.973482 L 380.045898 580.046225 L 20.013693 580.046225 Z M 20.013693 19.973482 " transform="matrix(0.0383321, 0, 0, 0.0383321, -0.00154136, 0)"/>
<path fill="none" stroke-width="40" stroke-linecap="butt" stroke-linejoin="miter" stroke="rgb(0%, 0%, 0%)" stroke-opacity="1" stroke-miterlimit="4" d="M 18.48511 40.04887 L 199.978843 504.941856 L 381.472575 40.04887 " transform="matrix(0.0383321, 0, 0, 0.0383321, -0.00154136, 0)"/>
<path fill-rule="nonzero" fill="rgb(0%, 0%, 0%)" fill-opacity="1" d="M 7.664062 1.726562 C 6.265625 1.726562 5.132812 2.859375 5.132812 4.257812 C 5.132812 4.984375 5.445312 5.675781 5.992188 6.15625 C 5.445312 6.636719 5.132812 7.328125 5.132812 8.054688 C 5.132812 9.453125 6.265625 10.585938 7.664062 10.585938 C 9.0625 10.585938 10.195312 9.453125 10.195312 8.054688 C 10.195312 7.328125 9.882812 6.636719 9.335938 6.15625 C 9.882812 5.675781 10.195312 4.984375 10.195312 4.257812 C 10.195312 2.859375 9.0625 1.726562 7.664062 1.726562 Z M 7.664062 2.992188 C 8.363281 2.992188 8.929688 3.558594 8.929688 4.257812 C 8.929688 4.957031 8.363281 5.523438 7.664062 5.523438 C 6.964844 5.523438 6.398438 4.957031 6.398438 4.257812 C 6.398438 3.558594 6.964844 2.992188 7.664062 2.992188 Z M 7.664062 6.789062 C 8.363281 6.789062 8.929688 7.355469 8.929688 8.054688 C 8.929688 8.753906 8.363281 9.320312 7.664062 9.320312 C 6.964844 9.320312 6.398438 8.753906 6.398438 8.054688 C 6.398438 7.355469 6.964844 6.789062 7.664062 6.789062 Z M 7.664062 6.789062 "/>
</svg>
