<?xml version="1.0" encoding="UTF-8"?>
<svg xmlns="http://www.w3.org/2000/svg" xmlns:xlink="http://www.w3.org/1999/xlink" width="15" height="22.5" viewBox="0 0 15 22.5">
<path fill-rule="nonzero" fill="rgb(0%, 0%, 0%)" fill-opacity="1" d="M 0 0 L 15 0 L 15 22.5 L 0 22.5 Z M 0 0 "/>
<path fill-rule="nonzero" fill="rgb(100%, 100%, 100%)" fill-opacity="1" d="M 1.5 1.5 L 13.5 1.5 L 13.5 21 L 1.5 21 Z M 1.5 1.5 "/>
<path fill-rule="evenodd" fill="rgb(0%, 0%, 0%)" fill-opacity="1" d="M 1.5 0.75 L 1.5 1.5 L 7.554688 21 L 13.5 1.5 L 13.5 0.75 L 12 0.75 L 7.5 16.5 L 3 0.75 Z M 1.5 0.75 "/>
<path fill-rule="nonzero" fill="rgb(0%, 0%, 0%)" fill-opacity="1" d="M 5.484375 7.683594 L 5.484375 2.9375 L 4.6875 3.519531 L 4.6875 2.667969 L 5.484375 2.089844 L 6.289062 2.089844 L 6.289062 7.683594 Z M 5.484375 7.683594 "/>
<path fill-rule="nonzero" fill="rgb(0%, 0%, 0%)" fill-opacity="1" d="M 8.101562 5.152344 L 8.101562 4.449219 L 8.375 4.449219 C 8.640625 4.449219 8.851562 4.375 9.003906 4.226562 C 9.160156 4.078125 9.238281 3.886719 9.238281 3.65625 C 9.238281 3.429688 9.15625 3.238281 8.996094 3.082031 C 8.835938 2.925781 8.644531 2.847656 8.421875 2.847656 C 8.253906 2.847656 8.09375 2.902344 7.941406 3.015625 C 7.792969 3.128906 7.695312 3.296875 7.652344 3.523438 L 6.851562 3.523438 C 6.878906 3.128906 7.046875 2.785156 7.34375 2.492188 C 7.644531 2.195312 7.992188 2.046875 8.390625 2.046875 C 8.890625 2.046875 9.285156 2.210938 9.585938 2.542969 C 9.890625 2.867188 10.039062 3.234375 10.039062 3.640625 C 10.039062 3.855469 9.996094 4.066406 9.914062 4.269531 C 9.828125 4.46875 9.671875 4.644531 9.441406 4.792969 C 9.675781 4.945312 9.84375 5.128906 9.945312 5.351562 C 10.046875 5.570312 10.101562 5.792969 10.101562 6.015625 C 10.101562 6.535156 9.9375 6.953125 9.609375 7.261719 C 9.28125 7.570312 8.882812 7.726562 8.40625 7.726562 C 8.027344 7.726562 7.6875 7.605469 7.382812 7.363281 C 7.082031 7.117188 6.894531 6.761719 6.820312 6.292969 L 7.621094 6.292969 C 7.695312 6.484375 7.796875 6.636719 7.917969 6.757812 C 8.046875 6.871094 8.222656 6.929688 8.453125 6.929688 C 8.675781 6.929688 8.871094 6.851562 9.042969 6.695312 C 9.214844 6.535156 9.296875 6.320312 9.296875 6.042969 C 9.296875 5.765625 9.214844 5.546875 9.042969 5.390625 C 8.875 5.234375 8.671875 5.152344 8.4375 5.152344 Z M 8.101562 5.152344 "/>
</svg>
