<?xml version="1.0" encoding="UTF-8"?>
<svg xmlns="http://www.w3.org/2000/svg" xmlns:xlink="http://www.w3.org/1999/xlink" width="15.341" height="23" viewBox="0 0 15.341 23">
<path fill-rule="nonzero" fill="rgb(100%, 100%, 100%)" fill-opacity="1" stroke-width="40" stroke-linecap="round" stroke-linejoin="miter" stroke="rgb(0%, 0%, 0%)" stroke-opacity="1" stroke-miterlimit="4" d="M 20.013693 19.973482 L 380.045898 19.973482 L 380.045898 580.046225 L 20.013693 580.046225 Z M 20.013693 19.973482 " transform="matrix(0.0383321, 0, 0, 0.0383321, -0.00154136, 0)"/>
<path fill="none" stroke-width="40" stroke-linecap="butt" stroke-linejoin="miter" stroke="rgb(0%, 0%, 0%)" stroke-opacity="1" stroke-miterlimit="4" d="M 18.48511 40.04887 L 199.978843 504.941856 L 381.472575 40.04887 " transform="matrix(0.0383321, 0, 0, 0.0383321, -0.00154136, 0)"/>
<path fill-rule="nonzero" fill="rgb(0%, 0%, 0%)" fill-opacity="1" d="M 6.496094 1.726562 C 6.355469 1.726562 6.210938 1.75 6.070312 1.792969 C 5.425781 1.988281 4.980469 2.585938 4.980469 3.261719 L 5.746094 3.261719 C 5.746094 2.921875 5.96875 2.625 6.292969 2.527344 C 6.617188 2.425781 6.964844 2.550781 7.152344 2.835938 C 7.339844 3.117188 7.324219 3.484375 7.105469 3.746094 L 4.980469 6.328125 L 4.980469 7.09375 L 8.046875 7.09375 L 8.046875 6.328125 L 5.972656 6.328125 L 7.699219 4.234375 C 7.371094 3.964844 7.371094 3.964844 7.699219 4.234375 C 8.128906 3.714844 8.164062 2.96875 7.792969 2.410156 C 7.511719 1.988281 7.046875 1.742188 6.558594 1.726562 C 6.539062 1.726562 6.519531 1.726562 6.5 1.726562 Z M 6.496094 1.726562 "/>
<path fill-rule="nonzero" fill="rgb(0%, 0%, 0%)" fill-opacity="1" d="M 10.351562 1.726562 L 9.582031 1.726562 L 8.816406 3.261719 L 9.582031 3.261719 L 9.582031 7.09375 L 10.351562 7.09375 Z M 10.351562 1.726562 "/>
</svg>
