<?xml version="1.0" encoding="UTF-8"?>
<svg xmlns="http://www.w3.org/2000/svg" xmlns:xlink="http://www.w3.org/1999/xlink" width="18" height="18" viewBox="0 0 18 18">
<path fill-rule="nonzero" fill="rgb(100%, 100%, 100%)" fill-opacity="1" stroke-width="0.264583" stroke-linecap="butt" stroke-linejoin="miter" stroke="rgb(0%, 0%, 0%)" stroke-opacity="1" stroke-miterlimit="4" d="M 2565.627923 1282.813962 L 1282.813962 2565.627923 L 0 1282.813962 L 1282.813962 0 Z M 2565.627923 1282.813962 " transform="matrix(0.00701583, 0, 0, 0.00701583, 0, 0)"/>
<path fill-rule="nonzero" fill="rgb(0%, 26.666667%, 66.666667%)" fill-opacity="1" stroke-width="10" stroke-linecap="butt" stroke-linejoin="miter" stroke="rgb(0%, 0%, 0%)" stroke-opacity="1" stroke-miterlimit="4" d="M 19.999961 -459.999102 L 459.999102 -459.999102 L 459.999102 -19.999961 L 19.999961 -19.999961 Z M 19.999961 -459.999102 " transform="matrix(-0.01875, 0.01875, -0.01875, -0.01875, 9, 0.0000000004763)"/>
<path fill="none" stroke-width="22" stroke-linecap="butt" stroke-linejoin="miter" stroke="rgb(100%, 100%, 100%)" stroke-opacity="1" stroke-miterlimit="4" d="M 306.413271 243.510162 C 306.413271 225.243217 321.144679 210.51181 339.411624 210.51181 C 357.678569 210.51181 372.409976 225.243217 372.409976 243.510162 C 372.409976 261.629793 357.678569 276.361201 339.411624 276.361201 L 328.510382 276.361201 L 339.411624 276.361201 C 357.678569 276.361201 372.409976 291.239922 372.409976 309.359553 C 372.409976 327.626498 357.678569 342.357905 339.411624 342.357905 C 321.144679 342.357905 306.413271 327.626498 306.413271 309.359553 " transform="matrix(0.0265165, 0, 0, 0.0265165, 0, 0)"/>
<path fill="none" stroke-width="22" stroke-linecap="square" stroke-linejoin="miter" stroke="rgb(100%, 100%, 100%)" stroke-opacity="1" stroke-miterlimit="5" d="M 251.465122 425.443042 C 427.358125 425.443042 427.358125 425.443042 427.358125 425.443042 " transform="matrix(0.0265165, 0, 0, 0.0265165, 0, 0)"/>
<path fill="none" stroke-width="22" stroke-linecap="square" stroke-linejoin="miter" stroke="rgb(100%, 100%, 100%)" stroke-opacity="1" stroke-miterlimit="5" d="M 251.465122 469.342636 C 427.358125 469.342636 427.358125 469.342636 427.358125 469.342636 " transform="matrix(0.0265165, 0, 0, 0.0265165, 0, 0)"/>
</svg>
