<?xml version="1.0" encoding="UTF-8"?>
<svg xmlns="http://www.w3.org/2000/svg" xmlns:xlink="http://www.w3.org/1999/xlink" width="18" height="18" viewBox="0 0 18 18">
<path fill-rule="nonzero" fill="rgb(100%, 100%, 100%)" fill-opacity="1" stroke-width="0.264583" stroke-linecap="butt" stroke-linejoin="miter" stroke="rgb(0%, 0%, 0%)" stroke-opacity="1" stroke-miterlimit="4" d="M 2565.627923 1282.813962 L 1282.813962 2565.627923 L 0 1282.813962 L 1282.813962 0 Z M 2565.627923 1282.813962 " transform="matrix(0.00701583, 0, 0, 0.00701583, 0, 0)"/>
<path fill-rule="nonzero" fill="rgb(0%, 26.666667%, 66.666667%)" fill-opacity="1" stroke-width="10" stroke-linecap="butt" stroke-linejoin="miter" stroke="rgb(0%, 0%, 0%)" stroke-opacity="1" stroke-miterlimit="4" d="M 19.999961 -459.999102 L 459.999102 -459.999102 L 459.999102 -19.999961 L 19.999961 -19.999961 Z M 19.999961 -459.999102 " transform="matrix(-0.01875, 0.01875, -0.01875, -0.01875, 9, 0.0000000004763)"/>
<path fill="none" stroke-width="22" stroke-linecap="butt" stroke-linejoin="miter" stroke="rgb(100%, 100%, 100%)" stroke-opacity="1" stroke-miterlimit="4" d="M 416.456884 210.51181 L 339.411624 210.51181 L 339.411624 254.411404 L 372.409976 254.411404 C 390.676921 254.411404 405.408328 269.142811 405.408328 287.409756 L 405.408328 309.359553 C 405.408328 327.626498 390.676921 342.357905 372.409976 342.357905 C 354.143031 342.357905 339.411624 327.626498 339.411624 309.359553 " transform="matrix(0.0265165, 0, 0, 0.0265165, 0, 0)"/>
<path fill-rule="nonzero" fill="rgb(100%, 100%, 100%)" fill-opacity="1" d="M 7.539062 5.285156 L 6.957031 6.457031 L 7.539062 6.457031 L 7.539062 9.367188 L 8.125 9.367188 L 8.125 5.285156 Z M 7.539062 5.285156 "/>
<path fill="none" stroke-width="22" stroke-linecap="butt" stroke-linejoin="miter" stroke="rgb(100%, 100%, 100%)" stroke-opacity="1" stroke-miterlimit="4" d="M 251.465122 458.441395 C 251.465122 452.990774 262.366364 425.443042 295.51203 425.443042 C 328.510382 425.443042 339.411624 469.342636 383.311217 469.342636 C 416.456884 469.342636 427.358125 441.794904 427.358125 436.344284 " transform="matrix(0.0265165, 0, 0, 0.0265165, 0, 0)"/>
<path fill-rule="nonzero" fill="rgb(49.803922%, 25.490196%, 66.27451%)" fill-opacity="1" stroke-width="80" stroke-linecap="butt" stroke-linejoin="bevel" stroke="rgb(73.333333%, 12.156863%, 6.666667%)" stroke-opacity="1" stroke-miterlimit="5" d="M 187.383501 491.439747 C 491.439747 187.383501 491.439747 187.383501 491.439747 187.383501 " transform="matrix(0.0265165, 0, 0, 0.0265165, 0, 0)"/>
</svg>
