<?xml version="1.0" encoding="UTF-8"?>
<svg xmlns="http://www.w3.org/2000/svg" xmlns:xlink="http://www.w3.org/1999/xlink" width="18" height="18" viewBox="0 0 18 18">
<path fill-rule="nonzero" fill="rgb(100%, 100%, 100%)" fill-opacity="1" stroke-width="0.264583" stroke-linecap="butt" stroke-linejoin="miter" stroke="rgb(0%, 0%, 0%)" stroke-opacity="1" stroke-miterlimit="4" d="M 2565.627923 1282.813962 L 1282.813962 2565.627923 L 0 1282.813962 L 1282.813962 0 Z M 2565.627923 1282.813962 " transform="matrix(0.00701583, 0, 0, 0.00701583, 0, 0)"/>
<path fill-rule="nonzero" fill="rgb(0%, 26.666667%, 66.666667%)" fill-opacity="1" stroke-width="10" stroke-linecap="butt" stroke-linejoin="miter" stroke="rgb(0%, 0%, 0%)" stroke-opacity="1" stroke-miterlimit="4" d="M 19.999961 -459.999102 L 459.999102 -459.999102 L 459.999102 -19.999961 L 19.999961 -19.999961 Z M 19.999961 -459.999102 " transform="matrix(-0.01875, 0.01875, -0.01875, -0.01875, 9, 0.0000000004763)"/>
<path fill="none" stroke-width="22" stroke-linecap="butt" stroke-linejoin="miter" stroke="rgb(100%, 100%, 100%)" stroke-opacity="1" stroke-miterlimit="4" d="M 11.0536 44.09866 C 11.0536 29.514566 20.629014 16.550928 34.476537 12.426134 C 48.471374 8.30134 63.49741 13.751961 71.452369 25.831715 C 79.554643 37.911469 78.670759 53.968703 69.389972 65.017258 L 11.0536 136.022641 L 11.0536 142.946403 L 88.09886 142.946403 " transform="matrix(0.0265165, 0, 0, 0.0265165, 6.374866, 5.28769)"/>
<path fill="none" stroke-width="50" stroke-linecap="butt" stroke-linejoin="miter" stroke="rgb(100%, 100%, 100%)" stroke-opacity="1" stroke-miterlimit="4" d="M 549.988378 85.227933 L 375.220517 85.227933 L 375.220517 184.999624 L 450.216687 184.999624 C 491.39762 184.999624 524.878053 218.480057 524.878053 259.995794 L 524.878053 309.88164 C 524.878053 351.397377 491.39762 384.87781 450.216687 384.87781 C 408.70095 384.87781 375.220517 351.397377 375.220517 309.88164 " transform="matrix(0.0116673, 0, 0, 0.0116673, 5.208141, 4.587655)"/>
<path fill="none" stroke-width="22" stroke-linecap="butt" stroke-linejoin="miter" stroke="rgb(100%, 100%, 100%)" stroke-opacity="1" stroke-miterlimit="4" d="M 251.465122 458.441395 C 251.465122 452.990774 262.366364 425.443042 295.51203 425.443042 C 328.510382 425.443042 339.411624 469.342636 383.311217 469.342636 C 416.456884 469.342636 427.358125 441.794904 427.358125 436.344284 " transform="matrix(0.0265165, 0, 0, 0.0265165, 0, 0)"/>
</svg>
