<?xml version="1.0" encoding="UTF-8"?>
<svg xmlns="http://www.w3.org/2000/svg" xmlns:xlink="http://www.w3.org/1999/xlink" width="18" height="18" viewBox="0 0 18 18">
<path fill-rule="nonzero" fill="rgb(100%, 100%, 100%)" fill-opacity="1" stroke-width="0.264583" stroke-linecap="butt" stroke-linejoin="miter" stroke="rgb(0%, 0%, 0%)" stroke-opacity="1" stroke-miterlimit="4" d="M 2565.627923 1282.813962 L 1282.813962 2565.627923 L 0 1282.813962 L 1282.813962 0 Z M 2565.627923 1282.813962 " transform="matrix(0.00701583, 0, 0, 0.00701583, 0, 0)"/>
<path fill-rule="nonzero" fill="rgb(0%, 26.666667%, 66.666667%)" fill-opacity="1" stroke-width="10" stroke-linecap="butt" stroke-linejoin="miter" stroke="rgb(0%, 0%, 0%)" stroke-opacity="1" stroke-miterlimit="4" d="M 19.999961 -459.999102 L 459.999102 -459.999102 L 459.999102 -19.999961 L 19.999961 -19.999961 Z M 19.999961 -459.999102 " transform="matrix(-0.01875, 0.01875, -0.01875, -0.01875, 9, 0.0000000004763)"/>
<path fill-rule="nonzero" fill="rgb(100%, 100%, 100%)" fill-opacity="1" d="M 9 7.875 L 10.125 9 L 9 10.125 L 7.875 9 Z M 9 7.875 "/>
<path fill="none" stroke-width="70" stroke-linecap="butt" stroke-linejoin="miter" stroke="rgb(100%, 100%, 100%)" stroke-opacity="1" stroke-miterlimit="5" d="M 354.999307 -124.999756 L 604.998819 -124.999756 L 604.998819 124.999756 L 354.999307 124.999756 Z M 354.999307 -124.999756 " transform="matrix(0.01875, 0.01875, -0.01875, 0.01875, 0, 0)"/>
</svg>
