<?xml version="1.0" encoding="UTF-8"?>
<svg xmlns="http://www.w3.org/2000/svg" xmlns:xlink="http://www.w3.org/1999/xlink" width="18" height="23.3033" viewBox="0 0 18 23.3033">
<path fill-rule="nonzero" fill="rgb(100%, 100%, 100%)" fill-opacity="1" stroke-width="0.264583" stroke-linecap="butt" stroke-linejoin="miter" stroke="rgb(0%, 0%, 0%)" stroke-opacity="1" stroke-miterlimit="4" d="M 2565.627923 2038.916982 L 1282.813962 3321.730944 L 0 2038.916982 L 1282.813962 756.103021 Z M 2565.627923 2038.916982 " transform="matrix(0.00701583, 0, 0, 0.00701583, 0, 0)"/>
<path fill-rule="nonzero" fill="rgb(0%, 26.666667%, 66.666667%)" fill-opacity="1" stroke-width="10" stroke-linecap="butt" stroke-linejoin="miter" stroke="rgb(0%, 0%, 0%)" stroke-opacity="1" stroke-miterlimit="4" d="M 20.036943 -460.036084 L 460.036084 -460.036084 L 460.036084 -20.036943 L 19.932776 -19.932776 Z M 20.036943 -460.036084 " transform="matrix(-0.01875, 0.01875, -0.01875, -0.01875, 9, 5.303301)"/>
<path fill-rule="nonzero" fill="rgb(100%, 100%, 100%)" fill-opacity="1" d="M 9 13.179688 L 10.125 14.304688 L 9 15.429688 L 7.875 14.304688 Z M 9 13.179688 "/>
<path fill="none" stroke-width="70" stroke-linecap="butt" stroke-linejoin="miter" stroke="rgb(100%, 100%, 100%)" stroke-opacity="1" stroke-miterlimit="5" d="M 496.457364 16.458301 L 746.456876 16.458301 L 746.35271 266.353647 L 496.457364 266.457813 Z M 496.457364 16.458301 " transform="matrix(0.01875, 0.01875, -0.01875, 0.01875, 0, 0)"/>
<path fill-rule="nonzero" fill="rgb(100%, 100%, 100%)" fill-opacity="1" stroke-width="0.656056" stroke-linecap="butt" stroke-linejoin="bevel" stroke="rgb(0%, 0%, 0%)" stroke-opacity="1" stroke-miterlimit="5" d="M 905.319228 0 L 1660.308695 0 L 1660.308695 756.103021 L 905.319228 756.103021 Z M 905.319228 0 " transform="matrix(0.00701583, 0, 0, 0.00701583, 0, 0)"/>
<path fill-rule="nonzero" fill="rgb(0%, 0%, 0%)" fill-opacity="1" d="M 6.351562 0 C 11.648438 2.648438 11.648438 2.648438 11.648438 2.648438 L 6.351562 5.304688 Z M 6.351562 0 "/>
</svg>
