<?xml version="1.0" encoding="UTF-8"?>
<svg xmlns="http://www.w3.org/2000/svg" xmlns:xlink="http://www.w3.org/1999/xlink" width="18" height="21.9375" viewBox="0 0 18 21.9375">
<path fill-rule="nonzero" fill="rgb(90.196078%, 90.196078%, 90.196078%)" fill-opacity="1" d="M 0 12.9375 L 9 3.9375 L 18 12.9375 L 9 21.9375 Z M 0 12.9375 "/>
<path fill-rule="nonzero" fill="rgb(100%, 100%, 100%)" fill-opacity="1" stroke-width="1" stroke-linecap="butt" stroke-linejoin="miter" stroke="rgb(0%, 0%, 0%)" stroke-opacity="1" stroke-miterlimit="4" d="M -42.072835 48.436792 L 42.072824 48.436792 L 42.072824 132.582451 L -42.072835 132.582451 Z M -42.072835 48.436792 " transform="matrix(0.0994369, -0.0994369, 0.0994369, 0.0994369, 0, 3.937499)"/>
<path fill-rule="nonzero" fill="rgb(0%, 26.666667%, 66.666667%)" fill-opacity="1" d="M 1.96875 12.9375 L 9 5.90625 L 16.03125 12.9375 L 9 19.96875 Z M 1.96875 12.9375 "/>
<path fill-rule="nonzero" fill="rgb(100%, 100%, 100%)" fill-opacity="1" d="M 5.625 10.6875 L 5.625 15.1875 L 12.375 15.1875 L 12.375 10.6875 L 10.96875 10.6875 L 10.96875 13.78125 L 7.03125 13.78125 L 7.03125 10.6875 Z M 5.625 10.6875 "/>
<path fill-rule="nonzero" fill="rgb(100%, 100%, 100%)" fill-opacity="1" stroke-width="1" stroke-linecap="butt" stroke-linejoin="miter" stroke="rgb(0%, 0%, 0%)" stroke-opacity="1" stroke-miterlimit="4" d="M 0.5 0.5 L 27.5 0.5 L 27.5 27.5 L 0.5 27.5 Z M 0.5 0.5 " transform="matrix(0.140625, 0, 0, 0.140625, 7.03125, 0.00000000419095)"/>
<path fill-rule="nonzero" fill="rgb(0%, 0%, 0%)" fill-opacity="1" d="M 7.875 0.5625 L 7.875 3.375 L 10.125 3.375 L 10.125 2.8125 L 8.4375 2.8125 L 8.4375 0.5625 Z M 7.875 0.5625 "/>
</svg>
