<?xml version="1.0" encoding="UTF-8"?>
<svg xmlns="http://www.w3.org/2000/svg" xmlns:xlink="http://www.w3.org/1999/xlink" width="17.765731" height="23" viewBox="0 0 17.765731 23">
<path fill-rule="nonzero" fill="rgb(100%, 100%, 100%)" fill-opacity="1" d="M 17.765625 14.117188 L 8.882812 23 L 0 14.117188 L 8.882812 5.234375 Z M 17.765625 14.117188 "/>
<path fill-rule="nonzero" fill="rgb(0%, 26.666667%, 66.666667%)" fill-opacity="1" stroke-width="10" stroke-linecap="butt" stroke-linejoin="miter" stroke="rgb(0%, 0%, 0%)" stroke-opacity="1" stroke-miterlimit="4" d="M 19.951404 -460.051466 L 459.948777 -459.945926 L 459.948777 -20.054094 L 19.951404 -19.948553 Z M 19.951404 -460.051466 " transform="matrix(-0.018506, 0.018506, -0.018506, -0.018506, 8.882865, 5.234269)"/>
<path fill="none" stroke-width="70" stroke-linecap="butt" stroke-linejoin="miter" stroke="rgb(100%, 100%, 100%)" stroke-opacity="1" stroke-miterlimit="4" d="M 229.445983 80.848138 L 381.423968 232.826122 L 232.928812 381.321278 L 80.950828 229.343294 " transform="matrix(0.018506, 0.018506, -0.018506, 0.018506, 8.882865, 5.234269)"/>
<path fill-rule="nonzero" fill="rgb(100%, 100%, 100%)" fill-opacity="1" d="M 4.421875 0 L 13.320312 0 L 13.320312 5.234375 L 4.421875 5.234375 Z M 4.421875 0 "/>
<path fill-rule="nonzero" fill="rgb(0%, 0%, 0%)" fill-opacity="1" d="M 6.632812 0.523438 L 4.945312 2.933594 L 4.945312 3.53125 L 6.632812 3.53125 L 6.632812 4.710938 L 7.195312 4.710938 L 7.195312 0.523438 Z M 6.632812 1.527344 L 6.632812 2.933594 L 5.648438 2.929688 Z M 6.632812 1.527344 "/>
<path fill-rule="nonzero" fill="rgb(0%, 0%, 0%)" fill-opacity="1" d="M 8.882812 0.523438 C 8.265625 0.523438 7.761719 1.0625 7.761719 1.726562 L 7.761719 3.507812 C 7.761719 4.171875 8.265625 4.710938 8.882812 4.710938 C 9.5 4.710938 10.003906 4.171875 10.003906 3.507812 L 10.003906 1.726562 C 10.003906 1.0625 9.5 0.523438 8.882812 0.523438 Z M 8.882812 1.125 C 9.195312 1.125 9.445312 1.394531 9.445312 1.726562 L 9.445312 3.53125 C 9.445312 3.867188 9.195312 4.136719 8.882812 4.136719 C 8.570312 4.136719 8.320312 3.867188 8.320312 3.53125 L 8.320312 1.726562 C 8.320312 1.394531 8.570312 1.125 8.882812 1.125 Z M 8.882812 1.125 "/>
<path fill-rule="nonzero" fill="rgb(0%, 0%, 0%)" fill-opacity="1" d="M 11.695312 0.523438 C 11.078125 0.523438 10.578125 1.0625 10.578125 1.726562 L 10.578125 3.507812 C 10.578125 4.171875 11.078125 4.710938 11.695312 4.710938 C 12.316406 4.710938 12.816406 4.171875 12.816406 3.507812 L 12.816406 1.726562 C 12.816406 1.0625 12.316406 0.523438 11.695312 0.523438 Z M 11.695312 1.125 C 12.007812 1.125 12.257812 1.394531 12.257812 1.726562 L 12.257812 3.53125 C 12.257812 3.867188 12.007812 4.136719 11.695312 4.136719 C 11.386719 4.136719 11.132812 3.867188 11.132812 3.53125 L 11.132812 1.726562 C 11.132812 1.394531 11.386719 1.125 11.695312 1.125 Z M 11.695312 1.125 "/>
</svg>
