<?xml version="1.0" encoding="UTF-8"?>
<svg xmlns="http://www.w3.org/2000/svg" xmlns:xlink="http://www.w3.org/1999/xlink" width="16" height="16" viewBox="0 0 16 16">
<path fill-rule="nonzero" fill="rgb(0%, 0%, 0%)" fill-opacity="1" d="M 0.320312 0 C 0.144531 0 0 0.144531 0 0.320312 L 0 15.679688 C 0 15.855469 0.144531 16 0.320312 16 L 15.679688 16 C 15.855469 16 16 15.855469 16 15.679688 L 16 0.320312 C 16 0.144531 15.855469 0 15.679688 0 Z M 0.558594 0.320312 L 15.441406 0.320312 C 15.574219 0.320312 15.679688 0.425781 15.679688 0.558594 L 15.679688 15.441406 C 15.679688 15.574219 15.574219 15.679688 15.441406 15.679688 L 0.558594 15.679688 C 0.425781 15.679688 0.320312 15.574219 0.320312 15.441406 L 0.320312 0.558594 C 0.320312 0.425781 0.425781 0.320312 0.558594 0.320312 Z M 0.558594 0.320312 "/>
<path fill-rule="nonzero" fill="rgb(100%, 100%, 100%)" fill-opacity="1" stroke-width="0.211666" stroke-linecap="butt" stroke-linejoin="miter" stroke="rgb(0%, 0%, 0%)" stroke-opacity="1" stroke-miterlimit="4" d="M 0.558594 0.320313 L 15.44141 0.320313 C 15.574222 0.320313 15.679691 0.425781 15.679691 0.558594 L 15.679691 15.44141 C 15.679691 15.574222 15.574222 15.679691 15.44141 15.679691 L 0.558594 15.679691 C 0.425781 15.679691 0.320313 15.574222 0.320313 15.44141 L 0.320313 0.558594 C 0.320313 0.425781 0.425781 0.320313 0.558594 0.320313 Z M 0.558594 0.320313 " transform="matrix(1, 0, 0, 1, 0, 0)"/>
<path fill-rule="nonzero" fill="rgb(0%, 0%, 0%)" fill-opacity="1" stroke-width="0.220486" stroke-linecap="butt" stroke-linejoin="miter" stroke="rgb(0%, 0%, 0%)" stroke-opacity="1" stroke-miterlimit="4" d="M 15.199222 5.375001 L 8.000002 5.375001 L 8.000002 0.800781 L 0.320313 8.000002 L 8.000002 15.199222 L 8.000002 10.625003 L 15.199222 10.625003 Z M 15.199222 5.375001 " transform="matrix(1, 0, 0, 1, 0, 0)"/>
</svg>
