<?xml version="1.0" encoding="UTF-8"?>
<svg xmlns="http://www.w3.org/2000/svg" xmlns:xlink="http://www.w3.org/1999/xlink" width="16" height="16" viewBox="0 0 16 16">
<rect x="-1.6" y="-1.6" width="19.2" height="19.2" fill="rgb(100%, 100%, 100%)" fill-opacity="1"/>
<path fill="none" stroke-width="0.264583" stroke-linecap="butt" stroke-linejoin="miter" stroke="rgb(0%, 0%, 0%)" stroke-opacity="1" stroke-miterlimit="4" d="M 0 0 L 2267.716535 0 L 2267.716535 2267.716535 L 0 2267.716535 Z M 0 0 " transform="matrix(0.00705556, 0, 0, 0.00705556, 0, 0)"/>
<path fill="none" stroke-width="24" stroke-linecap="butt" stroke-linejoin="miter" stroke="rgb(0%, 0%, 0%)" stroke-opacity="1" stroke-miterlimit="4" d="M 168.017578 107.958984 L 83.935547 107.958984 L 83.935547 180.029297 L 143.994141 180.029297 L 83.935547 180.029297 L 83.935547 251.953125 L 168.017578 251.953125 " transform="matrix(0.0266667, 0, 0, 0.0266667, 0, 0)"/>
<path fill="none" stroke-width="24" stroke-linecap="butt" stroke-linejoin="miter" stroke="rgb(0%, 0%, 0%)" stroke-opacity="1" stroke-miterlimit="4" d="M 192.041016 107.958984 L 287.988281 107.958984 L 239.941406 107.958984 L 239.941406 263.964844 " transform="matrix(0.0266667, 0, 0, 0.0266667, 0, 0)"/>
<path fill="none" stroke-width="24" stroke-linecap="butt" stroke-linejoin="miter" stroke="rgb(0%, 0%, 0%)" stroke-opacity="1" stroke-miterlimit="4" d="M 324.023438 143.994141 L 324.023438 216.064453 " transform="matrix(0.0266667, 0, 0, 0.0266667, 0, 0)"/>
<path fill="none" stroke-width="24" stroke-linecap="butt" stroke-linejoin="miter" stroke="rgb(0%, 0%, 0%)" stroke-opacity="1" stroke-miterlimit="4" d="M 480.029297 180.029297 C 465.380859 180.029297 452.34375 171.240234 446.777344 157.763672 C 441.210938 144.287109 444.287109 128.90625 454.541016 118.505859 C 464.794922 108.251953 480.322266 105.175781 493.798828 110.742188 C 507.275391 116.308594 516.064453 129.492188 516.064453 143.994141 " transform="matrix(0.0266667, 0, 0, 0.0266667, 0, 0)"/>
<path fill="none" stroke-width="24" stroke-linecap="butt" stroke-linejoin="miter" stroke="rgb(0%, 0%, 0%)" stroke-opacity="1" stroke-miterlimit="4" d="M -480.029297 -180.029297 C -494.53125 -180.029297 -507.714844 -188.818359 -513.28125 -202.294922 C -518.847656 -215.625 -515.771484 -231.152344 -505.517578 -241.40625 C -495.117188 -251.806641 -479.736328 -254.882812 -466.259766 -249.316406 C -452.783203 -243.75 -443.994141 -230.566406 -443.994141 -216.064453 " transform="matrix(-0.0266667, 0, 0, -0.0266667, 0, 0)"/>
<path fill="none" stroke-width="24" stroke-linecap="butt" stroke-linejoin="miter" stroke="rgb(0%, 0%, 0%)" stroke-opacity="1" stroke-miterlimit="4" d="M 324.023438 143.994141 C 324.023438 124.072266 340.136719 107.958984 360.058594 107.958984 C 379.833984 107.958984 395.947266 124.072266 395.947266 143.994141 " transform="matrix(0.0266667, 0, 0, 0.0266667, 0, 0)"/>
<path fill="none" stroke-width="24" stroke-linecap="butt" stroke-linejoin="miter" stroke="rgb(0%, 0%, 0%)" stroke-opacity="1" stroke-miterlimit="4" d="M -395.947266 -216.064453 C -395.947266 -235.839844 -379.833984 -251.953125 -360.058594 -251.953125 C -340.136719 -251.953125 -324.023438 -235.839844 -324.023438 -216.064453 " transform="matrix(-0.0266667, 0, 0, -0.0266667, 0, 0)"/>
<path fill="none" stroke-width="24" stroke-linecap="butt" stroke-linejoin="miter" stroke="rgb(0%, 0%, 0%)" stroke-opacity="1" stroke-miterlimit="4" d="M 287.988281 492.041016 L 204.052734 492.041016 L 204.052734 336.035156 " transform="matrix(0.0266667, 0, 0, 0.0266667, 0, 0)"/>
<path fill-rule="nonzero" fill="rgb(0%, 0%, 0%)" fill-opacity="1" stroke-width="0.264583" stroke-linecap="butt" stroke-linejoin="miter" stroke="rgb(0%, 0%, 0%)" stroke-opacity="1" stroke-miterlimit="4" d="M 1360.851378 1905.081201 L 1360.851378 1270.054134 L 1270.054134 1270.054134 L 1179.25689 1451.09498 L 1270.054134 1451.09498 C 1270.054134 1451.09498 1266.178642 1900.098425 1270.054134 1905.081201 L 1360.851378 1905.081201 " transform="matrix(0.00705556, 0, 0, 0.00705556, 0, 0)"/>
<path fill="none" stroke-width="24" stroke-linecap="butt" stroke-linejoin="miter" stroke="rgb(0%, 0%, 0%)" stroke-opacity="1" stroke-miterlimit="4" d="M 12.011719 12.011719 L 587.988281 12.011719 L 587.988281 587.988281 L 12.011719 587.988281 Z M 12.011719 12.011719 " transform="matrix(0.0266667, 0, 0, 0.0266667, 0, 0)"/>
</svg>
