<?xml version="1.0" encoding="UTF-8"?>
<svg xmlns="http://www.w3.org/2000/svg" xmlns:xlink="http://www.w3.org/1999/xlink" width="9.503247" height="16" viewBox="0 0 9.503247 16">
<path fill-rule="nonzero" fill="rgb(14.901961%, 14.901961%, 14.901961%)" fill-opacity="1" d="M 0 4.703125 L 9.503906 4.703125 L 9.503906 11.566406 L 0 11.566406 Z M 0 4.703125 "/>
<path fill-rule="nonzero" fill="rgb(14.901961%, 14.901961%, 14.901961%)" fill-opacity="1" d="M 9.503906 11.296875 C 9.503906 13.898438 7.375 16 4.753906 16 C 2.128906 16 0 13.898438 0 11.296875 C 0 8.699219 2.128906 6.59375 4.753906 6.59375 C 7.375 6.59375 9.503906 8.699219 9.503906 11.296875 Z M 9.503906 11.296875 "/>
<path fill-rule="nonzero" fill="rgb(14.901961%, 14.901961%, 14.901961%)" fill-opacity="1" d="M 9.503906 4.703125 C 9.503906 7.300781 7.375 9.40625 4.753906 9.40625 C 2.128906 9.40625 0 7.300781 0 4.703125 C 0 2.101562 2.128906 0 4.753906 0 C 7.375 0 9.503906 2.101562 9.503906 4.703125 Z M 9.503906 4.703125 "/>
<path fill-rule="nonzero" fill="rgb(0%, 0%, 0%)" fill-opacity="1" d="M 6.644531 11.296875 C 6.644531 12.34375 5.796875 13.191406 4.75 13.191406 C 3.707031 13.191406 2.859375 12.34375 2.859375 11.296875 C 2.859375 10.253906 3.707031 9.40625 4.75 9.40625 C 5.796875 9.40625 6.644531 10.253906 6.644531 11.296875 Z M 6.644531 11.296875 "/>
<path fill-rule="nonzero" fill="rgb(100%, 0%, 0%)" fill-opacity="1" d="M 6.644531 4.703125 C 6.644531 5.75 5.796875 6.59375 4.75 6.59375 C 3.707031 6.59375 2.859375 5.75 2.859375 4.703125 C 2.859375 3.660156 3.707031 2.8125 4.75 2.8125 C 5.796875 2.8125 6.644531 3.660156 6.644531 4.703125 Z M 6.644531 4.703125 "/>
</svg>
