<?xml version="1.0" encoding="UTF-8"?>
<svg xmlns="http://www.w3.org/2000/svg" xmlns:xlink="http://www.w3.org/1999/xlink" width="12" height="12" viewBox="0 0 12 12">
<path fill-rule="nonzero" fill="rgb(0%, 0%, 0%)" fill-opacity="1" stroke-width="0.5" stroke-linecap="round" stroke-linejoin="miter" stroke="rgb(0%, 0%, 0%)" stroke-opacity="1" stroke-miterlimit="4" d="M 4.994963 16.369999 L 155.005463 16.369999 L 155.005463 166.380499 L 4.994963 166.380499 Z M 4.994963 16.369999 " transform="matrix(0.079734, 0, 0, 0.079734, -0.378737, -1.285714)"/>
<path fill-rule="nonzero" fill="rgb(100%, 100%, 100%)" fill-opacity="1" stroke-width="0.547533" stroke-linecap="round" stroke-linejoin="miter" stroke="rgb(0%, 0%, 0%)" stroke-opacity="1" stroke-miterlimit="4" d="M 146.811198 21.146715 C 146.811198 51.243359 122.401264 75.653294 92.30462 75.653294 C 62.207976 75.653294 37.85169 51.243359 37.85169 21.146715 C 37.85169 -8.949929 62.207976 -33.359863 92.30462 -33.359863 C 122.401264 -33.359863 146.811198 -8.949929 146.811198 21.146715 Z M 146.811198 21.146715 " transform="matrix(0.0728123, 0, 0, 0.0728123, -0.720913, 4.460259)"/>
<path fill-rule="nonzero" fill="rgb(0%, 0%, 0%)" fill-opacity="1" stroke-width="0.5" stroke-linecap="round" stroke-linejoin="miter" stroke="rgb(0%, 0%, 0%)" stroke-opacity="1" stroke-miterlimit="4" d="M -58.031421 108.674697 L 41.944741 108.674697 L 41.979383 133.651416 L -58.066063 133.651416 Z M -58.031421 108.674697 " transform="matrix(0.0563806, -0.0563806, 0.0563806, 0.0563806, -0.378737, -1.285714)"/>
</svg>
