<?xml version="1.0" encoding="UTF-8"?>
<svg xmlns="http://www.w3.org/2000/svg" xmlns:xlink="http://www.w3.org/1999/xlink" width="12" height="12" viewBox="0 0 12 12">
<path fill-rule="nonzero" fill="rgb(0%, 0%, 0%)" fill-opacity="1" stroke-width="0.5" stroke-linecap="round" stroke-linejoin="miter" stroke="rgb(0%, 0%, 0%)" stroke-opacity="1" stroke-miterlimit="4" d="M 4.994963 -58.630205 L 155.005463 -58.630205 L 155.005463 91.380295 L 4.994963 91.380295 Z M 4.994963 -58.630205 " transform="matrix(0.079734, 0, 0, 0.079734, -0.378737, 4.694352)"/>
<path fill-rule="nonzero" fill="rgb(100%, 100%, 100%)" fill-opacity="1" stroke-width="0.547533" stroke-linecap="round" stroke-linejoin="miter" stroke="rgb(0%, 0%, 0%)" stroke-opacity="1" stroke-miterlimit="4" d="M 146.811366 21.146739 C 146.811366 51.243418 122.401404 75.65338 92.304726 75.65338 C 62.208047 75.65338 37.798085 51.243418 37.798085 21.146739 C 37.798085 -8.949939 62.208047 -33.359901 92.304726 -33.359901 C 122.401404 -33.359901 146.811366 -8.949939 146.811366 21.146739 Z M 146.811366 21.146739 " transform="matrix(0.0728122, 0, 0, 0.0728122, -0.720913, 4.460259)"/>
<path fill-rule="nonzero" fill="rgb(0%, 0%, 0%)" fill-opacity="1" stroke-width="0.5" stroke-linecap="round" stroke-linejoin="miter" stroke="rgb(0%, 0%, 0%)" stroke-opacity="1" stroke-miterlimit="4" d="M 29.980383 3.882335 L 130.020043 3.882335 L 130.020043 28.867755 L 29.980383 28.867755 Z M 29.980383 3.882335 " transform="matrix(0.079734, 0, 0, 0.079734, -0.378737, 4.694352)"/>
</svg>
