<?xml version="1.0" encoding="UTF-8"?>
<svg xmlns="http://www.w3.org/2000/svg" xmlns:xlink="http://www.w3.org/1999/xlink" width="14" height="46.022657" viewBox="0 0 14 46.022657">
<path fill-rule="evenodd" fill="rgb(0%, 0%, 0%)" fill-opacity="1" d="M 11.542969 24.847656 L 2.457031 24.847656 L 2.457031 27.371094 C 2.457031 29.890625 4.480469 31.914062 6.996094 31.914062 C 9.515625 31.914062 11.542969 29.890625 11.542969 27.371094 Z M 11.542969 24.847656 "/>
<path fill-rule="evenodd" fill="rgb(0%, 0%, 0%)" fill-opacity="1" d="M 11.542969 7.332031 L 2.457031 7.332031 L 2.457031 4.804688 C 2.457031 2.285156 4.480469 0.257812 6.996094 0.257812 C 9.515625 0.257812 11.542969 2.285156 11.542969 4.804688 Z M 11.542969 7.332031 "/>
<path fill-rule="evenodd" fill="rgb(0%, 0%, 0%)" fill-opacity="1" d="M 2.378906 7.09375 L 11.5 7.09375 L 11.5 13.386719 L 2.378906 13.386719 Z M 2.378906 7.09375 "/>
<path fill-rule="evenodd" fill="rgb(26.27451%, 26.27451%, 26.27451%)" fill-opacity="1" stroke-width="0.0988003" stroke-linecap="butt" stroke-linejoin="miter" stroke="rgb(5.490196%, 5.490196%, 5.490196%)" stroke-opacity="1" stroke-miterlimit="4" d="M 10.001844 11.786609 C 10.001844 12.882518 9.120644 13.763718 8.029208 13.763718 C 6.937773 13.763718 6.056573 12.882518 6.056573 11.786609 C 6.056573 10.695174 6.937773 9.809501 8.029208 9.809501 C 9.120644 9.809501 10.001844 10.695174 10.001844 11.786609 Z M 10.001844 11.786609 " transform="matrix(0.873276, 0, 0, 0.873276, 0, 0)"/>
<path fill-rule="evenodd" fill="rgb(26.27451%, 26.27451%, 26.27451%)" fill-opacity="1" stroke-width="0.0988003" stroke-linecap="butt" stroke-linejoin="miter" stroke="rgb(5.490196%, 5.490196%, 5.490196%)" stroke-opacity="1" stroke-miterlimit="4" d="M 9.992898 31.843974 C 9.992898 32.93541 9.107225 33.825556 8.011316 33.825556 C 6.924353 33.825556 6.03868 32.93541 6.03868 31.843974 C 6.03868 30.752539 6.924353 29.866866 8.011316 29.866866 C 9.107225 29.866866 9.992898 30.752539 9.992898 31.843974 Z M 9.992898 31.843974 " transform="matrix(0.873276, 0, 0, 0.873276, 0, 0)"/>
<path fill-rule="evenodd" fill="rgb(0%, 0%, 0%)" fill-opacity="1" d="M 2.378906 13.105469 L 11.5 13.105469 L 11.5 18.917969 L 2.378906 18.917969 Z M 2.378906 13.105469 "/>
<path fill-rule="evenodd" fill="rgb(26.27451%, 26.27451%, 26.27451%)" fill-opacity="1" stroke-width="0.0988003" stroke-linecap="butt" stroke-linejoin="miter" stroke="rgb(5.490196%, 5.490196%, 5.490196%)" stroke-opacity="1" stroke-miterlimit="4" d="M 10.001844 18.415739 C 10.001844 19.511647 9.120644 20.392847 8.029208 20.392847 C 6.937773 20.392847 6.056573 19.511647 6.056573 18.415739 C 6.056573 17.324303 6.937773 16.443103 8.029208 16.443103 C 9.120644 16.443103 10.001844 17.324303 10.001844 18.415739 Z M 10.001844 18.415739 " transform="matrix(0.873276, 0, 0, 0.873276, 0, 0)"/>
<path fill-rule="evenodd" fill="rgb(0%, 0%, 0%)" fill-opacity="1" d="M 2.378906 18.917969 L 11.5 18.917969 L 11.5 24.976562 L 2.378906 24.976562 Z M 2.378906 18.917969 "/>
<path fill="none" stroke-width="0.592802" stroke-linecap="round" stroke-linejoin="miter" stroke="rgb(84.313725%, 84.313725%, 84.313725%)" stroke-opacity="1" stroke-miterlimit="4" d="M 8.011316 0.295224 C 10.887517 0.295224 13.218 2.630181 13.218 5.501909 L 13.218 31.338514 C 13.218 34.214716 10.887517 36.545199 8.011316 36.545199 C 5.144061 36.545199 2.813578 34.214716 2.813578 31.338514 L 2.813578 5.501909 C 2.813578 2.630181 5.144061 0.295224 8.011316 0.295224 Z M 8.011316 0.295224 " transform="matrix(0.873276, 0, 0, 0.873276, 0, 0)"/>
<path fill-rule="evenodd" fill="rgb(0%, 98.039216%, 19.607843%)" fill-opacity="1" stroke-width="0.0250201" stroke-linecap="butt" stroke-linejoin="miter" stroke="rgb(0%, 0%, 0%)" stroke-opacity="1" stroke-miterlimit="4" d="M 9.975005 5.045653 C 9.975005 6.141562 9.089332 7.022762 8.00237 7.022762 C 6.906461 7.022762 6.029734 6.141562 6.029734 5.045653 C 6.029734 3.95869 6.906461 3.073017 8.00237 3.073017 C 9.089332 3.073017 9.975005 3.95869 9.975005 5.045653 Z M 9.975005 5.045653 " transform="matrix(0.873276, 0, 0, 0.873276, 0, 0)"/>
<path fill-rule="evenodd" fill="rgb(100%, 100%, 100%)" fill-opacity="1" stroke-width="0.0790404" stroke-linecap="round" stroke-linejoin="miter" stroke="rgb(0%, 0%, 0%)" stroke-opacity="1" stroke-miterlimit="4" d="M 10.037629 25.165641 C 10.037629 26.266023 9.147482 27.156169 8.047101 27.156169 C 6.951192 27.156169 6.061046 26.266023 6.061046 25.165641 C 6.061046 24.065259 6.951192 23.179586 8.047101 23.179586 C 9.147482 23.179586 10.037629 24.065259 10.037629 25.165641 Z M 10.037629 25.165641 " transform="matrix(0.873276, 0, 0, 0.873276, 0, 0)"/>
<path fill-rule="evenodd" fill="rgb(100%, 83.137255%, 0%)" fill-opacity="1" stroke-width="0.860012" stroke-linecap="butt" stroke-linejoin="round" stroke="rgb(100%, 96.470588%, 0%)" stroke-opacity="1" stroke-miterlimit="4" d="M 0.429417 37.515861 L 15.602161 37.515861 L 8.011316 52.272606 Z M 0.429417 37.515861 " transform="matrix(0.873276, 0, 0, 0.873276, 0, 0)"/>
<path fill="none" stroke-width="1.00734" stroke-linecap="round" stroke-linejoin="miter" stroke="rgb(0%, 0%, 0%)" stroke-opacity="1" stroke-miterlimit="4" d="M 8.015789 39.86871 L 8.015789 47.656371 " transform="matrix(0.873276, 0, 0, 0.873276, 0, 0)"/>
</svg>
