<?xml version="1.0" encoding="UTF-8"?>
<svg xmlns="http://www.w3.org/2000/svg" xmlns:xlink="http://www.w3.org/1999/xlink" width="11" height="36.841492" viewBox="0 0 11 36.841492">
<path fill-rule="evenodd" fill="rgb(0%, 0%, 0%)" fill-opacity="1" d="M 10.703125 28.453125 L 0.296875 28.453125 L 0.296875 31.34375 C 0.296875 34.226562 2.613281 36.546875 5.496094 36.546875 C 8.382812 36.546875 10.703125 34.226562 10.703125 31.34375 Z M 10.703125 28.453125 "/>
<path fill-rule="evenodd" fill="rgb(0%, 0%, 0%)" fill-opacity="1" d="M 10.703125 8.394531 L 0.296875 8.394531 L 0.296875 5.503906 C 0.296875 2.617188 2.613281 0.296875 5.496094 0.296875 C 8.382812 0.296875 10.703125 2.617188 10.703125 5.503906 Z M 10.703125 8.394531 "/>
<path fill-rule="evenodd" fill="rgb(0%, 0%, 0%)" fill-opacity="1" d="M 0.207031 8.125 L 10.652344 8.125 L 10.652344 15.328125 L 0.207031 15.328125 Z M 0.207031 8.125 "/>
<path fill-rule="evenodd" fill="rgb(26.27451%, 26.27451%, 26.27451%)" fill-opacity="1" stroke-width="0.090744" stroke-linecap="butt" stroke-linejoin="miter" stroke="rgb(5.490196%, 5.490196%, 5.490196%)" stroke-opacity="1" stroke-miterlimit="4" d="M 6.87768 10.827772 C 6.87768 11.832337 6.066853 12.643164 5.065876 12.643164 C 4.061312 12.643164 3.250484 11.832337 3.250484 10.827772 C 3.250484 9.823208 4.061312 9.008793 5.065876 9.008793 C 6.066853 9.008793 6.87768 9.823208 6.87768 10.827772 Z M 6.87768 10.827772 " transform="matrix(1.08878, 0, 0, 1.08878, 0, 0)"/>
<path fill-rule="evenodd" fill="rgb(0%, 98.039216%, 19.607843%)" fill-opacity="1" stroke-width="0.090744" stroke-linecap="butt" stroke-linejoin="miter" stroke="rgb(5.490196%, 5.490196%, 5.490196%)" stroke-opacity="1" stroke-miterlimit="4" d="M 6.866917 29.247184 C 6.866917 30.251748 6.052502 31.066163 5.047938 31.066163 C 4.050548 31.066163 3.236133 30.251748 3.236133 29.247184 C 3.236133 28.246207 4.050548 27.431792 5.047938 27.431792 C 6.052502 27.431792 6.866917 28.246207 6.866917 29.247184 Z M 6.866917 29.247184 " transform="matrix(1.08878, 0, 0, 1.08878, 0, 0)"/>
<path fill-rule="evenodd" fill="rgb(0%, 0%, 0%)" fill-opacity="1" d="M 0.207031 15.007812 L 10.652344 15.007812 L 10.652344 21.664062 L 0.207031 21.664062 Z M 0.207031 15.007812 "/>
<path fill-rule="evenodd" fill="rgb(0%, 98.039216%, 19.607843%)" fill-opacity="1" stroke-width="0.090744" stroke-linecap="butt" stroke-linejoin="miter" stroke="rgb(5.490196%, 5.490196%, 5.490196%)" stroke-opacity="1" stroke-miterlimit="4" d="M 6.87768 16.916152 C 6.87768 17.920717 6.066853 18.731544 5.065876 18.731544 C 4.061312 18.731544 3.250484 17.920717 3.250484 16.916152 C 3.250484 15.911587 4.061312 15.10076 5.065876 15.10076 C 6.066853 15.10076 6.87768 15.911587 6.87768 16.916152 Z M 6.87768 16.916152 " transform="matrix(1.08878, 0, 0, 1.08878, 0, 0)"/>
<path fill-rule="evenodd" fill="rgb(0%, 0%, 0%)" fill-opacity="1" d="M 0.207031 21.664062 L 10.652344 21.664062 L 10.652344 28.601562 L 0.207031 28.601562 Z M 0.207031 21.664062 "/>
<path fill="none" stroke-width="0.544464" stroke-linecap="round" stroke-linejoin="miter" stroke="rgb(84.313725%, 84.313725%, 84.313725%)" stroke-opacity="1" stroke-miterlimit="4" d="M 5.047938 0.272668 C 7.688508 0.272668 9.830383 2.414543 9.830383 5.055113 L 9.830383 28.784366 C 9.830383 31.424936 7.688508 33.566812 5.047938 33.566812 C 2.414543 33.566812 0.272668 31.424936 0.272668 28.784366 L 0.272668 5.055113 C 0.272668 2.414543 2.414543 0.272668 5.047938 0.272668 Z M 5.047938 0.272668 " transform="matrix(1.08878, 0, 0, 1.08878, 0, 0)"/>
<path fill-rule="evenodd" fill="rgb(0%, 98.039216%, 19.607843%)" fill-opacity="1" stroke-width="0.0229799" stroke-linecap="butt" stroke-linejoin="miter" stroke="rgb(0%, 0%, 0%)" stroke-opacity="1" stroke-miterlimit="4" d="M 6.848979 4.635349 C 6.848979 5.639913 6.038151 6.45074 5.037174 6.45074 C 4.03261 6.45074 3.22537 5.639913 3.22537 4.635349 C 3.22537 3.634372 4.03261 2.823544 5.037174 2.823544 C 6.038151 2.823544 6.848979 3.634372 6.848979 4.635349 Z M 6.848979 4.635349 " transform="matrix(1.08878, 0, 0, 1.08878, 0, 0)"/>
<path fill-rule="evenodd" fill="rgb(26.27451%, 26.27451%, 26.27451%)" fill-opacity="1" stroke-width="0.0725954" stroke-linecap="round" stroke-linejoin="miter" stroke="rgb(0%, 0%, 0%)" stroke-opacity="1" stroke-miterlimit="4" d="M 6.90997 23.115751 C 6.90997 24.123904 6.091967 24.941906 5.080227 24.941906 C 4.072075 24.941906 3.25766 24.123904 3.25766 23.115751 C 3.25766 22.104011 4.072075 21.289596 5.080227 21.289596 C 6.091967 21.289596 6.90997 22.104011 6.90997 23.115751 Z M 6.90997 23.115751 " transform="matrix(1.08878, 0, 0, 1.08878, 0, 0)"/>
</svg>
