<?xml version="1.0" encoding="UTF-8"?>
<svg xmlns="http://www.w3.org/2000/svg" xmlns:xlink="http://www.w3.org/1999/xlink" width="15" height="15.001416" viewBox="0 0 15 15.001416">
<path fill-rule="evenodd" fill="rgb(63.529412%, 63.529412%, 63.529412%)" fill-opacity="1" d="M 15 7.5 C 15 11.644531 11.640625 15 7.5 15 C 3.359375 15 0 11.644531 0 7.5 C 0 3.359375 3.359375 0 7.5 0 C 11.640625 0 15 3.359375 15 7.5 Z M 15 7.5 "/>
<path fill-rule="evenodd" fill="rgb(84.313725%, 84.313725%, 84.313725%)" fill-opacity="1" d="M 13.824219 7.5 C 13.824219 10.996094 10.992188 13.828125 7.5 13.828125 C 4.007812 13.828125 1.175781 10.996094 1.175781 7.5 C 1.175781 4.007812 4.007812 1.175781 7.5 1.175781 C 10.992188 1.175781 13.824219 4.007812 13.824219 7.5 Z M 13.824219 7.5 "/>
<path fill-rule="evenodd" fill="rgb(10.588235%, 10.588235%, 10.588235%)" fill-opacity="1" d="M 7.496094 0 C 5.398438 0 3.503906 0.863281 2.144531 2.253906 L 7.550781 7.617188 L 12.894531 2.292969 C 11.527344 0.882812 9.617188 0 7.496094 0 Z M 7.550781 7.617188 L 2.277344 12.875 C 3.628906 14.1875 5.464844 15 7.496094 15 C 9.558594 15 11.429688 14.167969 12.785156 12.820312 Z M 7.550781 7.617188 "/>
<path fill-rule="evenodd" fill="rgb(10.588235%, 10.588235%, 10.588235%)" fill-opacity="1" d="M 11.226562 7.5 C 11.226562 9.558594 9.558594 11.226562 7.5 11.226562 C 5.441406 11.226562 3.773438 9.558594 3.773438 7.5 C 3.773438 5.441406 5.441406 3.773438 7.5 3.773438 C 9.558594 3.773438 11.226562 5.441406 11.226562 7.5 Z M 11.226562 7.5 "/>
<path fill-rule="evenodd" fill="rgb(26.27451%, 26.27451%, 26.27451%)" fill-opacity="1" stroke-width="0.5" stroke-linecap="butt" stroke-linejoin="miter" stroke="rgb(5.490196%, 5.490196%, 5.490196%)" stroke-opacity="1" stroke-miterlimit="4" d="M 128.938457 53.760559 C 128.938457 59.276835 124.444594 63.746921 118.928318 63.746921 C 113.412042 63.746921 108.918179 59.276835 108.918179 53.760559 C 108.918179 48.220506 113.412042 43.75042 118.928318 43.75042 C 124.444594 43.75042 128.938457 48.220506 128.938457 53.760559 Z M 128.938457 53.760559 " transform="matrix(0.164287, 0, 0, 0.164287, -12.057855, -1.324325)"/>
<path fill-rule="evenodd" fill="rgb(0%, 98.039216%, 19.607843%)" fill-opacity="1" stroke-width="0.0336162" stroke-linecap="butt" stroke-linejoin="miter" stroke="rgb(0%, 0%, 0%)" stroke-opacity="1" stroke-miterlimit="4" d="M 239.974833 104.578573 C 239.974833 106.04309 238.78807 107.229853 237.323553 107.229853 C 235.859037 107.229853 234.672273 106.04309 234.672273 104.578573 C 234.672273 103.114057 235.859037 101.927293 237.323553 101.927293 C 238.78807 101.927293 239.974833 103.114057 239.974833 104.578573 Z M 239.974833 104.578573 " transform="matrix(0.618805, 0, 0, 0.618805, -139.403835, -62.600445)"/>
<path fill-rule="evenodd" fill="rgb(0%, 98.039216%, 19.607843%)" fill-opacity="1" stroke-width="0.0336162" stroke-linecap="butt" stroke-linejoin="miter" stroke="rgb(0%, 0%, 0%)" stroke-opacity="1" stroke-miterlimit="4" d="M 239.974833 104.580568 C 239.974833 106.045085 238.78807 107.231848 237.323553 107.231848 C 235.859037 107.231848 234.672273 106.045085 234.672273 104.580568 C 234.672273 103.116052 235.859037 101.929288 237.323553 101.929288 C 238.78807 101.929288 239.974833 103.116052 239.974833 104.580568 Z M 239.974833 104.580568 " transform="matrix(0.618805, 0, 0, 0.618805, -139.403835, -51.742304)"/>
</svg>
