<?xml version="1.0" encoding="UTF-8"?>
<svg xmlns="http://www.w3.org/2000/svg" xmlns:xlink="http://www.w3.org/1999/xlink" width="16" height="16" viewBox="0 0 16 16">
<path fill-rule="nonzero" fill="rgb(100%, 83.137256%, 0%)" fill-opacity="1" stroke-width="0.3" stroke-linecap="butt" stroke-linejoin="miter" stroke="rgb(0%, 0%, 0%)" stroke-opacity="1" stroke-miterlimit="100" d="M 23.792452 11.972221 C 23.792452 18.501993 18.501993 23.792452 11.972221 23.792452 C 5.44245 23.792452 0.151991 18.501993 0.151991 11.972221 C 0.151991 5.44245 5.44245 0.151991 11.972221 0.151991 C 18.501993 0.151991 23.792452 5.44245 23.792452 11.972221 Z M 23.792452 11.972221 " transform="matrix(0.668214, 0, 0, 0.668214, 0, 0)"/>
<path fill-rule="nonzero" fill="rgb(0%, 0%, 0%)" fill-opacity="1" d="M 1.929688 6.902344 L 1.929688 6.171875 C 2.269531 6.148438 2.507812 6.125 2.640625 6.097656 C 2.863281 6.050781 3.039062 5.953125 3.175781 5.804688 C 3.269531 5.707031 3.34375 5.582031 3.394531 5.417969 C 3.417969 5.3125 3.433594 5.242188 3.433594 5.199219 L 4.332031 5.199219 L 4.332031 10.703125 L 3.226562 10.703125 L 3.226562 6.902344 Z M 6.972656 9.011719 C 6.972656 9.234375 7.011719 9.417969 7.089844 9.5625 C 7.21875 9.828125 7.457031 9.960938 7.800781 9.960938 C 8.011719 9.960938 8.199219 9.886719 8.351562 9.742188 C 8.511719 9.59375 8.59375 9.386719 8.59375 9.113281 C 8.59375 8.753906 8.445312 8.507812 8.152344 8.382812 C 7.988281 8.316406 7.726562 8.28125 7.371094 8.28125 L 7.371094 7.507812 C 7.71875 7.5 7.960938 7.464844 8.101562 7.402344 C 8.34375 7.296875 8.46875 7.085938 8.46875 6.753906 C 8.46875 6.546875 8.40625 6.375 8.28125 6.242188 C 8.152344 6.113281 7.980469 6.046875 7.757812 6.046875 C 7.507812 6.046875 7.320312 6.128906 7.195312 6.296875 C 7.074219 6.457031 7.019531 6.671875 7.027344 6.941406 L 6.015625 6.941406 C 6.027344 6.671875 6.078125 6.410156 6.160156 6.160156 C 6.242188 5.945312 6.382812 5.746094 6.578125 5.566406 C 6.714844 5.441406 6.882812 5.34375 7.078125 5.273438 C 7.273438 5.203125 7.511719 5.167969 7.800781 5.167969 C 8.320312 5.167969 8.742188 5.304688 9.0625 5.574219 C 9.390625 5.847656 9.554688 6.210938 9.554688 6.671875 C 9.554688 7 9.453125 7.273438 9.261719 7.496094 C 9.140625 7.636719 9.015625 7.730469 8.886719 7.777344 C 8.980469 7.777344 9.125 7.863281 9.3125 8.027344 C 9.589844 8.289062 9.730469 8.640625 9.730469 9.082031 C 9.730469 9.550781 9.566406 9.960938 9.238281 10.316406 C 8.917969 10.664062 8.441406 10.835938 7.808594 10.835938 C 7.027344 10.835938 6.488281 10.585938 6.179688 10.074219 C 6.019531 9.804688 5.933594 9.449219 5.921875 9.011719 Z M 11.378906 7.996094 C 11.378906 8.632812 11.433594 9.121094 11.539062 9.460938 C 11.640625 9.792969 11.851562 9.960938 12.175781 9.960938 C 12.492188 9.960938 12.703125 9.792969 12.800781 9.460938 C 12.90625 9.121094 12.957031 8.632812 12.957031 7.996094 C 12.957031 7.335938 12.90625 6.847656 12.800781 6.527344 C 12.703125 6.207031 12.492188 6.046875 12.175781 6.046875 C 11.851562 6.046875 11.640625 6.207031 11.539062 6.527344 C 11.433594 6.847656 11.378906 7.335938 11.378906 7.996094 Z M 12.175781 5.15625 C 12.875 5.15625 13.367188 5.40625 13.644531 5.898438 C 13.929688 6.394531 14.074219 7.09375 14.074219 7.996094 C 14.074219 8.910156 13.929688 9.613281 13.644531 10.105469 C 13.367188 10.59375 12.875 10.835938 12.175781 10.835938 C 11.46875 10.835938 10.976562 10.59375 10.691406 10.105469 C 10.414062 9.613281 10.273438 8.910156 10.273438 7.996094 C 10.273438 7.09375 10.414062 6.394531 10.691406 5.898438 C 10.976562 5.40625 11.46875 5.15625 12.175781 5.15625 Z M 1.386719 4.714844 "/>
</svg>
