<?xml version="1.0" encoding="UTF-8"?>
<svg xmlns="http://www.w3.org/2000/svg" xmlns:xlink="http://www.w3.org/1999/xlink" width="16" height="16" viewBox="0 0 16 16">
<path fill-rule="nonzero" fill="rgb(100%, 83.137256%, 0%)" fill-opacity="1" stroke-width="0.3" stroke-linecap="butt" stroke-linejoin="miter" stroke="rgb(0%, 0%, 0%)" stroke-opacity="1" stroke-miterlimit="100" d="M 23.792452 11.972221 C 23.792452 18.501993 18.501993 23.792452 11.972221 23.792452 C 5.44245 23.792452 0.151991 18.501993 0.151991 11.972221 C 0.151991 5.44245 5.44245 0.151991 11.972221 0.151991 C 18.501993 0.151991 23.792452 5.44245 23.792452 11.972221 Z M 23.792452 11.972221 " transform="matrix(0.668214, 0, 0, 0.668214, 0, 0)"/>
<path fill-rule="nonzero" fill="rgb(0%, 0%, 0%)" fill-opacity="1" d="M 7.746094 9.792969 L 7.003906 9.792969 L 7.003906 11.191406 L 5.761719 11.191406 L 5.761719 9.792969 L 3.183594 9.792969 L 3.183594 8.675781 L 5.574219 4.738281 L 7.003906 4.738281 L 7.003906 8.792969 L 7.746094 8.792969 Z M 5.761719 8.792969 L 5.761719 5.992188 L 4.132812 8.792969 Z M 9.632812 8.007812 C 9.632812 8.753906 9.695312 9.324219 9.820312 9.71875 C 9.949219 10.117188 10.199219 10.316406 10.574219 10.316406 C 10.953125 10.316406 11.203125 10.117188 11.316406 9.71875 C 11.433594 9.324219 11.492188 8.753906 11.492188 8.007812 C 11.492188 7.222656 11.433594 6.640625 11.316406 6.265625 C 11.203125 5.886719 10.953125 5.699219 10.574219 5.699219 C 10.199219 5.699219 9.949219 5.886719 9.820312 6.265625 C 9.695312 6.640625 9.632812 7.222656 9.632812 8.007812 Z M 10.574219 4.644531 C 11.402344 4.644531 11.984375 4.9375 12.316406 5.523438 C 12.652344 6.109375 12.820312 6.9375 12.820312 8.007812 C 12.820312 9.082031 12.652344 9.90625 12.316406 10.484375 C 11.984375 11.0625 11.402344 11.347656 10.574219 11.347656 C 9.742188 11.347656 9.164062 11.0625 8.832031 10.484375 C 8.496094 9.90625 8.328125 9.082031 8.328125 8.007812 C 8.328125 6.9375 8.496094 6.109375 8.832031 5.523438 C 9.164062 4.9375 9.742188 4.644531 10.574219 4.644531 Z M 2.941406 4.125 "/>
</svg>
