<?xml version="1.0" encoding="UTF-8"?>
<svg xmlns="http://www.w3.org/2000/svg" xmlns:xlink="http://www.w3.org/1999/xlink" width="16" height="16" viewBox="0 0 16 16">
<path fill-rule="nonzero" fill="rgb(100%, 83.137256%, 0%)" fill-opacity="1" stroke-width="0.3" stroke-linecap="butt" stroke-linejoin="miter" stroke="rgb(0%, 0%, 0%)" stroke-opacity="1" stroke-miterlimit="100" d="M 23.792452 11.972221 C 23.792452 18.501993 18.501993 23.792452 11.972221 23.792452 C 5.44245 23.792452 0.151991 18.501993 0.151991 11.972221 C 0.151991 5.44245 5.44245 0.151991 11.972221 0.151991 C 18.501993 0.151991 23.792452 5.44245 23.792452 11.972221 Z M 23.792452 11.972221 " transform="matrix(0.668214, 0, 0, 0.668214, 0, 0)"/>
<path fill-rule="nonzero" fill="rgb(0%, 0%, 0%)" fill-opacity="1" d="M 4.433594 9.199219 C 4.433594 9.457031 4.476562 9.671875 4.558594 9.847656 C 4.71875 10.160156 5 10.316406 5.40625 10.316406 C 5.660156 10.316406 5.878906 10.230469 6.0625 10.066406 C 6.25 9.894531 6.34375 9.640625 6.34375 9.3125 C 6.34375 8.890625 6.171875 8.601562 5.824219 8.457031 C 5.628906 8.382812 5.316406 8.34375 4.894531 8.34375 L 4.894531 7.421875 C 5.3125 7.417969 5.597656 7.375 5.761719 7.296875 C 6.046875 7.171875 6.1875 6.917969 6.1875 6.535156 C 6.1875 6.292969 6.117188 6.09375 5.96875 5.941406 C 5.828125 5.78125 5.628906 5.699219 5.363281 5.699219 C 5.054688 5.699219 4.835938 5.800781 4.695312 5.992188 C 4.554688 6.179688 4.488281 6.4375 4.496094 6.753906 L 3.296875 6.753906 C 3.308594 6.4375 3.363281 6.128906 3.464844 5.835938 C 3.566406 5.585938 3.730469 5.355469 3.953125 5.136719 C 4.121094 4.984375 4.320312 4.871094 4.550781 4.792969 C 4.785156 4.707031 5.070312 4.667969 5.40625 4.667969 C 6.023438 4.667969 6.523438 4.828125 6.898438 5.148438 C 7.28125 5.46875 7.472656 5.898438 7.472656 6.441406 C 7.472656 6.824219 7.359375 7.148438 7.140625 7.402344 C 6.992188 7.570312 6.839844 7.683594 6.691406 7.746094 C 6.808594 7.746094 6.972656 7.847656 7.191406 8.039062 C 7.515625 8.347656 7.683594 8.761719 7.683594 9.28125 C 7.683594 9.832031 7.488281 10.316406 7.109375 10.734375 C 6.722656 11.144531 6.160156 11.347656 5.417969 11.347656 C 4.496094 11.347656 3.855469 11.050781 3.496094 10.453125 C 3.308594 10.132812 3.203125 9.714844 3.183594 9.199219 Z M 9.632812 8.007812 C 9.632812 8.753906 9.695312 9.324219 9.820312 9.71875 C 9.949219 10.117188 10.199219 10.316406 10.574219 10.316406 C 10.953125 10.316406 11.203125 10.117188 11.316406 9.71875 C 11.433594 9.324219 11.492188 8.753906 11.492188 8.007812 C 11.492188 7.222656 11.433594 6.640625 11.316406 6.265625 C 11.203125 5.886719 10.953125 5.699219 10.574219 5.699219 C 10.199219 5.699219 9.949219 5.886719 9.820312 6.265625 C 9.695312 6.640625 9.632812 7.222656 9.632812 8.007812 Z M 10.574219 4.644531 C 11.402344 4.644531 11.984375 4.9375 12.316406 5.523438 C 12.652344 6.109375 12.820312 6.9375 12.820312 8.007812 C 12.820312 9.082031 12.652344 9.90625 12.316406 10.484375 C 11.984375 11.0625 11.402344 11.347656 10.574219 11.347656 C 9.742188 11.347656 9.164062 11.0625 8.832031 10.484375 C 8.496094 9.90625 8.328125 9.082031 8.328125 8.007812 C 8.328125 6.9375 8.496094 6.109375 8.832031 5.523438 C 9.164062 4.9375 9.742188 4.644531 10.574219 4.644531 Z M 2.941406 4.125 "/>
</svg>
