<?xml version="1.0" encoding="UTF-8"?>
<svg xmlns="http://www.w3.org/2000/svg" xmlns:xlink="http://www.w3.org/1999/xlink" width="16" height="16" viewBox="0 0 16 16">
<path fill-rule="nonzero" fill="rgb(100%, 83.137256%, 0%)" fill-opacity="1" stroke-width="0.3" stroke-linecap="butt" stroke-linejoin="miter" stroke="rgb(0%, 0%, 0%)" stroke-opacity="1" stroke-miterlimit="100" d="M 23.792452 11.972221 C 23.792452 18.501993 18.501993 23.792452 11.972221 23.792452 C 5.44245 23.792452 0.151991 18.501993 0.151991 11.972221 C 0.151991 5.44245 5.44245 0.151991 11.972221 0.151991 C 18.501993 0.151991 23.792452 5.44245 23.792452 11.972221 Z M 23.792452 11.972221 " transform="matrix(0.668214, 0, 0, 0.668214, 0, 0)"/>
<path fill-rule="nonzero" fill="rgb(0%, 0%, 0%)" fill-opacity="1" d="M 2.144531 6.902344 L 2.144531 6.171875 C 2.480469 6.148438 2.71875 6.125 2.851562 6.097656 C 3.074219 6.050781 3.253906 5.953125 3.386719 5.804688 C 3.480469 5.707031 3.554688 5.582031 3.605469 5.417969 C 3.628906 5.3125 3.644531 5.242188 3.644531 5.199219 L 4.542969 5.199219 L 4.542969 10.703125 L 3.4375 10.703125 L 3.4375 6.902344 Z M 6.039062 6.902344 L 6.039062 6.171875 C 6.378906 6.148438 6.617188 6.125 6.75 6.097656 C 6.972656 6.050781 7.148438 5.953125 7.28125 5.804688 C 7.378906 5.707031 7.453125 5.582031 7.5 5.417969 C 7.527344 5.3125 7.542969 5.242188 7.542969 5.199219 L 8.441406 5.199219 L 8.441406 10.703125 L 7.335938 10.703125 L 7.335938 6.902344 Z M 11.167969 7.996094 C 11.167969 8.632812 11.222656 9.121094 11.324219 9.460938 C 11.429688 9.792969 11.640625 9.960938 11.960938 9.960938 C 12.28125 9.960938 12.488281 9.792969 12.589844 9.460938 C 12.695312 9.121094 12.746094 8.632812 12.746094 7.996094 C 12.746094 7.335938 12.695312 6.847656 12.589844 6.527344 C 12.488281 6.207031 12.28125 6.046875 11.960938 6.046875 C 11.640625 6.046875 11.429688 6.207031 11.324219 6.527344 C 11.222656 6.847656 11.167969 7.335938 11.167969 7.996094 Z M 11.960938 5.15625 C 12.664062 5.15625 13.15625 5.40625 13.433594 5.898438 C 13.71875 6.394531 13.863281 7.09375 13.863281 7.996094 C 13.863281 8.910156 13.71875 9.613281 13.433594 10.105469 C 13.15625 10.59375 12.664062 10.835938 11.960938 10.835938 C 11.257812 10.835938 10.765625 10.59375 10.480469 10.105469 C 10.199219 9.613281 10.0625 8.910156 10.0625 7.996094 C 10.0625 7.09375 10.199219 6.394531 10.480469 5.898438 C 10.765625 5.40625 11.257812 5.15625 11.960938 5.15625 Z M 1.601562 4.714844 "/>
</svg>
