<?xml version="1.0" encoding="UTF-8"?>
<svg xmlns="http://www.w3.org/2000/svg" xmlns:xlink="http://www.w3.org/1999/xlink" width="16" height="16" viewBox="0 0 16 16">
<path fill-rule="nonzero" fill="rgb(100%, 83.137256%, 0%)" fill-opacity="1" stroke-width="0.3" stroke-linecap="butt" stroke-linejoin="miter" stroke="rgb(0%, 0%, 0%)" stroke-opacity="1" stroke-miterlimit="100" d="M 23.792452 11.972221 C 23.792452 18.501993 18.501993 23.792452 11.972221 23.792452 C 5.44245 23.792452 0.151991 18.501993 0.151991 11.972221 C 0.151991 5.44245 5.44245 0.151991 11.972221 0.151991 C 18.501993 0.151991 23.792452 5.44245 23.792452 11.972221 Z M 23.792452 11.972221 " transform="matrix(0.668214, 0, 0, 0.668214, 0, 0)"/>
<path fill-rule="nonzero" fill="rgb(0%, 0%, 0%)" fill-opacity="1" d="M 3.199219 6.972656 C 3.199219 6.28125 3.398438 5.714844 3.804688 5.28125 C 4.203125 4.851562 4.726562 4.636719 5.371094 4.636719 C 6.355469 4.636719 7.035156 5.070312 7.40625 5.941406 C 7.613281 6.441406 7.71875 7.097656 7.71875 7.902344 C 7.71875 8.691406 7.617188 9.34375 7.414062 9.867188 C 7.03125 10.867188 6.328125 11.371094 5.304688 11.371094 C 4.820312 11.371094 4.378906 11.226562 3.992188 10.941406 C 3.605469 10.648438 3.386719 10.230469 3.332031 9.679688 L 4.605469 9.679688 C 4.632812 9.867188 4.714844 10.023438 4.847656 10.148438 C 4.976562 10.269531 5.152344 10.324219 5.371094 10.324219 C 5.785156 10.324219 6.082031 10.09375 6.257812 9.625 C 6.34375 9.371094 6.40625 8.996094 6.433594 8.5 C 6.3125 8.644531 6.1875 8.757812 6.058594 8.832031 C 5.820312 8.980469 5.527344 9.050781 5.171875 9.050781 C 4.652344 9.050781 4.195312 8.875 3.792969 8.519531 C 3.394531 8.160156 3.199219 7.644531 3.199219 6.972656 Z M 5.453125 8.007812 C 5.625 8.007812 5.792969 7.960938 5.953125 7.863281 C 6.238281 7.675781 6.382812 7.351562 6.382812 6.890625 C 6.382812 6.523438 6.292969 6.234375 6.121094 6.023438 C 5.953125 5.808594 5.71875 5.699219 5.421875 5.699219 C 5.203125 5.699219 5.015625 5.761719 4.859375 5.878906 C 4.613281 6.074219 4.492188 6.398438 4.492188 6.847656 C 4.492188 7.242188 4.566406 7.53125 4.722656 7.726562 C 4.882812 7.914062 5.125 8.007812 5.453125 8.007812 Z M 9.617188 7.996094 C 9.617188 8.746094 9.679688 9.3125 9.804688 9.710938 C 9.933594 10.105469 10.183594 10.304688 10.558594 10.304688 C 10.9375 10.304688 11.1875 10.105469 11.300781 9.710938 C 11.417969 9.3125 11.476562 8.746094 11.476562 7.996094 C 11.476562 7.210938 11.417969 6.628906 11.300781 6.253906 C 11.1875 5.878906 10.9375 5.691406 10.558594 5.691406 C 10.183594 5.691406 9.933594 5.878906 9.804688 6.253906 C 9.679688 6.628906 9.617188 7.210938 9.617188 7.996094 Z M 10.558594 4.636719 C 11.386719 4.636719 11.96875 4.929688 12.300781 5.511719 C 12.636719 6.097656 12.804688 6.925781 12.804688 7.996094 C 12.804688 9.070312 12.636719 9.894531 12.300781 10.472656 C 11.96875 11.050781 11.386719 11.339844 10.558594 11.339844 C 9.726562 11.339844 9.148438 11.050781 8.816406 10.472656 C 8.480469 9.894531 8.3125 9.070312 8.3125 7.996094 C 8.3125 6.925781 8.480469 6.097656 8.816406 5.511719 C 9.148438 4.929688 9.726562 4.636719 10.558594 4.636719 Z M 2.925781 4.113281 "/>
</svg>
