<?xml version="1.0" encoding="UTF-8"?>
<svg xmlns="http://www.w3.org/2000/svg" xmlns:xlink="http://www.w3.org/1999/xlink" width="16" height="16" viewBox="0 0 16 16">
<path fill-rule="nonzero" fill="rgb(100%, 83.137256%, 0%)" fill-opacity="1" stroke-width="0.3" stroke-linecap="butt" stroke-linejoin="miter" stroke="rgb(0%, 0%, 0%)" stroke-opacity="1" stroke-miterlimit="100" d="M 23.792452 11.972221 C 23.792452 18.501993 18.501993 23.792452 11.972221 23.792452 C 5.44245 23.792452 0.151991 18.501993 0.151991 11.972221 C 0.151991 5.44245 5.44245 0.151991 11.972221 0.151991 C 18.501993 0.151991 23.792452 5.44245 23.792452 11.972221 Z M 23.792452 11.972221 " transform="matrix(0.668214, 0, 0, 0.668214, 0, 0)"/>
<path fill-rule="nonzero" fill="rgb(0%, 0%, 0%)" fill-opacity="1" d="M 2.15625 6.878906 L 2.15625 6.148438 C 2.496094 6.125 2.734375 6.101562 2.867188 6.074219 C 3.085938 6.027344 3.265625 5.929688 3.398438 5.78125 C 3.496094 5.683594 3.566406 5.558594 3.617188 5.394531 C 3.644531 5.289062 3.660156 5.21875 3.660156 5.175781 L 4.558594 5.175781 L 4.558594 10.679688 L 3.449219 10.679688 L 3.449219 6.878906 Z M 6.054688 6.878906 L 6.054688 6.148438 C 6.394531 6.125 6.632812 6.101562 6.765625 6.074219 C 6.988281 6.027344 7.164062 5.929688 7.296875 5.78125 C 7.394531 5.683594 7.46875 5.558594 7.515625 5.394531 C 7.542969 5.289062 7.558594 5.21875 7.558594 5.175781 L 8.457031 5.175781 L 8.457031 10.679688 L 7.351562 10.679688 L 7.351562 6.878906 Z M 11.121094 9.207031 C 11.160156 9.445312 11.238281 9.625 11.359375 9.75 C 11.484375 9.875 11.664062 9.9375 11.902344 9.9375 C 12.167969 9.9375 12.367188 9.84375 12.507812 9.65625 C 12.644531 9.46875 12.71875 9.230469 12.71875 8.945312 C 12.71875 8.667969 12.648438 8.429688 12.519531 8.234375 C 12.394531 8.042969 12.191406 7.941406 11.914062 7.941406 C 11.78125 7.941406 11.664062 7.960938 11.570312 7.996094 C 11.402344 8.058594 11.269531 8.171875 11.183594 8.328125 L 10.210938 8.289062 L 10.597656 5.238281 L 13.636719 5.238281 L 13.636719 6.15625 L 11.378906 6.15625 L 11.183594 7.367188 C 11.347656 7.257812 11.480469 7.1875 11.578125 7.148438 C 11.730469 7.09375 11.921875 7.066406 12.152344 7.066406 C 12.605469 7.066406 13 7.21875 13.34375 7.523438 C 13.683594 7.832031 13.855469 8.277344 13.855469 8.863281 C 13.855469 9.371094 13.691406 9.828125 13.363281 10.230469 C 13.035156 10.625 12.542969 10.824219 11.890625 10.824219 C 11.371094 10.824219 10.9375 10.683594 10.597656 10.40625 C 10.261719 10.121094 10.078125 9.722656 10.042969 9.207031 Z M 1.613281 4.691406 "/>
</svg>
