<?xml version="1.0" encoding="UTF-8"?>
<svg xmlns="http://www.w3.org/2000/svg" xmlns:xlink="http://www.w3.org/1999/xlink" width="16" height="16" viewBox="0 0 16 16">
<path fill-rule="nonzero" fill="rgb(100%, 83.137256%, 0%)" fill-opacity="1" stroke-width="0.3" stroke-linecap="butt" stroke-linejoin="miter" stroke="rgb(0%, 0%, 0%)" stroke-opacity="1" stroke-miterlimit="100" d="M 23.792452 11.972221 C 23.792452 18.501993 18.501993 23.792452 11.972221 23.792452 C 5.44245 23.792452 0.151991 18.501993 0.151991 11.972221 C 0.151991 5.44245 5.44245 0.151991 11.972221 0.151991 C 18.501993 0.151991 23.792452 5.44245 23.792452 11.972221 Z M 23.792452 11.972221 " transform="matrix(0.668214, 0, 0, 0.668214, 0, 0)"/>
<path fill-rule="nonzero" fill="rgb(0%, 0%, 0%)" fill-opacity="1" d="M 1.929688 6.902344 L 1.929688 6.171875 C 2.269531 6.148438 2.507812 6.125 2.640625 6.097656 C 2.863281 6.050781 3.039062 5.953125 3.175781 5.804688 C 3.269531 5.707031 3.34375 5.582031 3.394531 5.417969 C 3.417969 5.3125 3.433594 5.242188 3.433594 5.199219 L 4.332031 5.199219 L 4.332031 10.703125 L 3.226562 10.703125 L 3.226562 6.902344 Z M 9.78125 9.523438 L 9.15625 9.523438 L 9.15625 10.703125 L 8.089844 10.703125 L 8.089844 9.523438 L 5.921875 9.523438 L 5.921875 8.570312 L 7.945312 5.230469 L 9.15625 5.230469 L 9.15625 8.664062 L 9.78125 8.664062 Z M 8.089844 8.664062 L 8.089844 6.296875 L 6.714844 8.664062 Z M 11.378906 7.996094 C 11.378906 8.632812 11.433594 9.121094 11.539062 9.460938 C 11.640625 9.792969 11.851562 9.960938 12.175781 9.960938 C 12.492188 9.960938 12.703125 9.792969 12.800781 9.460938 C 12.90625 9.121094 12.957031 8.632812 12.957031 7.996094 C 12.957031 7.335938 12.90625 6.847656 12.800781 6.527344 C 12.703125 6.207031 12.492188 6.046875 12.175781 6.046875 C 11.851562 6.046875 11.640625 6.207031 11.539062 6.527344 C 11.433594 6.847656 11.378906 7.335938 11.378906 7.996094 Z M 12.175781 5.15625 C 12.875 5.15625 13.367188 5.40625 13.644531 5.898438 C 13.929688 6.394531 14.074219 7.09375 14.074219 7.996094 C 14.074219 8.910156 13.929688 9.613281 13.644531 10.105469 C 13.367188 10.59375 12.875 10.835938 12.175781 10.835938 C 11.46875 10.835938 10.976562 10.59375 10.691406 10.105469 C 10.414062 9.613281 10.273438 8.910156 10.273438 7.996094 C 10.273438 7.09375 10.414062 6.394531 10.691406 5.898438 C 10.976562 5.40625 11.46875 5.15625 12.175781 5.15625 Z M 1.386719 4.714844 "/>
</svg>
