<?xml version="1.0" encoding="UTF-8"?>
<svg xmlns="http://www.w3.org/2000/svg" xmlns:xlink="http://www.w3.org/1999/xlink" width="16" height="16" viewBox="0 0 16 16">
<path fill-rule="nonzero" fill="rgb(100%, 83.137256%, 0%)" fill-opacity="1" stroke-width="0.3" stroke-linecap="butt" stroke-linejoin="miter" stroke="rgb(0%, 0%, 0%)" stroke-opacity="1" stroke-miterlimit="100" d="M 23.792452 11.972221 C 23.792452 18.501993 18.501993 23.792452 11.972221 23.792452 C 5.44245 23.792452 0.151991 18.501993 0.151991 11.972221 C 0.151991 5.44245 5.44245 0.151991 11.972221 0.151991 C 18.501993 0.151991 23.792452 5.44245 23.792452 11.972221 Z M 23.792452 11.972221 " transform="matrix(0.668214, 0, 0, 0.668214, 0, 0)"/>
<path fill-rule="nonzero" fill="rgb(0%, 0%, 0%)" fill-opacity="1" d="M 7.179688 10.625 L 8.902344 10.625 L 8.902344 12.285156 L 7.179688 12.285156 Z M 5.082031 6.472656 C 5.125 5.378906 5.503906 4.601562 6.230469 4.140625 C 6.683594 3.851562 7.238281 3.703125 7.902344 3.703125 C 8.761719 3.703125 9.480469 3.914062 10.050781 4.332031 C 10.628906 4.746094 10.917969 5.363281 10.917969 6.179688 C 10.917969 6.675781 10.792969 7.09375 10.542969 7.429688 C 10.402344 7.640625 10.125 7.910156 9.707031 8.234375 L 9.300781 8.546875 C 9.074219 8.722656 8.925781 8.925781 8.851562 9.152344 C 8.808594 9.300781 8.785156 9.527344 8.777344 9.832031 L 7.222656 9.832031 C 7.242188 9.183594 7.300781 8.742188 7.398438 8.496094 C 7.503906 8.246094 7.765625 7.957031 8.183594 7.628906 L 8.601562 7.304688 C 8.738281 7.203125 8.851562 7.085938 8.933594 6.960938 C 9.085938 6.753906 9.164062 6.519531 9.164062 6.261719 C 9.164062 5.96875 9.074219 5.707031 8.902344 5.46875 C 8.738281 5.234375 8.425781 5.113281 7.972656 5.113281 C 7.527344 5.113281 7.210938 5.257812 7.023438 5.550781 C 6.835938 5.84375 6.742188 6.152344 6.742188 6.472656 Z M 4.371094 3.207031 "/>
</svg>
