<?xml version="1.0" encoding="UTF-8"?>
<svg xmlns="http://www.w3.org/2000/svg" xmlns:xlink="http://www.w3.org/1999/xlink" width="16" height="16" viewBox="0 0 16 16">
<path fill-rule="nonzero" fill="rgb(100%, 83.137256%, 0%)" fill-opacity="1" stroke-width="0.3" stroke-linecap="butt" stroke-linejoin="miter" stroke="rgb(0%, 0%, 0%)" stroke-opacity="1" stroke-miterlimit="100" d="M 23.792452 11.972221 C 23.792452 18.501993 18.501993 23.792452 11.972221 23.792452 C 5.44245 23.792452 0.151991 18.501993 0.151991 11.972221 C 0.151991 5.44245 5.44245 0.151991 11.972221 0.151991 C 18.501993 0.151991 23.792452 5.44245 23.792452 11.972221 Z M 23.792452 11.972221 " transform="matrix(0.668214, 0, 0, 0.668214, 0, 0)"/>
<path fill-rule="nonzero" fill="rgb(0%, 0%, 0%)" fill-opacity="1" d="M 4.484375 9.136719 C 4.484375 9.488281 4.578125 9.773438 4.765625 9.996094 C 4.953125 10.21875 5.195312 10.328125 5.488281 10.328125 C 5.769531 10.328125 5.992188 10.222656 6.15625 10.003906 C 6.3125 9.789062 6.394531 9.511719 6.394531 9.167969 C 6.394531 8.792969 6.300781 8.507812 6.113281 8.304688 C 5.929688 8.101562 5.707031 8 5.445312 8 C 5.21875 8 5.027344 8.066406 4.859375 8.199219 C 4.609375 8.394531 4.484375 8.707031 4.484375 9.136719 Z M 6.28125 6.328125 C 6.28125 6.226562 6.242188 6.109375 6.164062 5.984375 C 6.023438 5.785156 5.816406 5.683594 5.539062 5.683594 C 5.121094 5.683594 4.824219 5.917969 4.652344 6.382812 C 4.550781 6.640625 4.488281 7.019531 4.453125 7.519531 C 4.613281 7.332031 4.796875 7.195312 5.007812 7.113281 C 5.214844 7.023438 5.457031 6.976562 5.726562 6.976562 C 6.304688 6.976562 6.777344 7.175781 7.148438 7.570312 C 7.515625 7.964844 7.699219 8.460938 7.699219 9.066406 C 7.699219 9.671875 7.515625 10.207031 7.15625 10.671875 C 6.792969 11.132812 6.230469 11.363281 5.464844 11.363281 C 4.652344 11.363281 4.046875 11.023438 3.660156 10.339844 C 3.351562 9.804688 3.199219 9.113281 3.199219 8.273438 C 3.199219 7.769531 3.222656 7.367188 3.261719 7.0625 C 3.339844 6.503906 3.484375 6.046875 3.703125 5.683594 C 3.890625 5.371094 4.132812 5.117188 4.433594 4.929688 C 4.730469 4.738281 5.089844 4.636719 5.507812 4.636719 C 6.113281 4.636719 6.59375 4.792969 6.949219 5.097656 C 7.308594 5.40625 7.511719 5.816406 7.554688 6.328125 Z M 9.609375 8.011719 C 9.609375 8.757812 9.671875 9.328125 9.796875 9.722656 C 9.925781 10.121094 10.175781 10.316406 10.550781 10.316406 C 10.929688 10.316406 11.179688 10.121094 11.292969 9.722656 C 11.410156 9.328125 11.46875 8.757812 11.46875 8.011719 C 11.46875 7.226562 11.410156 6.644531 11.292969 6.265625 C 11.179688 5.890625 10.929688 5.703125 10.550781 5.703125 C 10.175781 5.703125 9.925781 5.890625 9.796875 6.265625 C 9.671875 6.644531 9.609375 7.226562 9.609375 8.011719 Z M 10.550781 4.648438 C 11.378906 4.648438 11.960938 4.941406 12.292969 5.527344 C 12.628906 6.109375 12.796875 6.941406 12.796875 8.011719 C 12.796875 9.082031 12.628906 9.910156 12.292969 10.484375 C 11.960938 11.066406 11.378906 11.351562 10.550781 11.351562 C 9.71875 11.351562 9.140625 11.066406 8.808594 10.484375 C 8.472656 9.910156 8.304688 9.082031 8.304688 8.011719 C 8.304688 6.941406 8.472656 6.109375 8.808594 5.527344 C 9.140625 4.941406 9.71875 4.648438 10.550781 4.648438 Z M 2.917969 4.125 "/>
</svg>
