<?xml version="1.0" encoding="UTF-8"?>
<svg xmlns="http://www.w3.org/2000/svg" xmlns:xlink="http://www.w3.org/1999/xlink" width="16" height="16" viewBox="0 0 16 16">
<path fill-rule="nonzero" fill="rgb(100%, 83.137256%, 0%)" fill-opacity="1" stroke-width="0.3" stroke-linecap="butt" stroke-linejoin="miter" stroke="rgb(0%, 0%, 0%)" stroke-opacity="1" stroke-miterlimit="100" d="M 23.792452 11.972221 C 23.792452 18.501993 18.501993 23.792452 11.972221 23.792452 C 5.44245 23.792452 0.151991 18.501993 0.151991 11.972221 C 0.151991 5.44245 5.44245 0.151991 11.972221 0.151991 C 18.501993 0.151991 23.792452 5.44245 23.792452 11.972221 Z M 23.792452 11.972221 " transform="matrix(0.668214, 0, 0, 0.668214, 0, 0)"/>
<path fill-rule="nonzero" fill="rgb(0%, 0%, 0%)" fill-opacity="1" d="M 4.457031 9.445312 C 4.503906 9.722656 4.601562 9.941406 4.746094 10.089844 C 4.894531 10.246094 5.101562 10.320312 5.375 10.320312 C 5.691406 10.320312 5.933594 10.210938 6.09375 9.988281 C 6.261719 9.765625 6.34375 9.484375 6.34375 9.140625 C 6.34375 8.816406 6.265625 8.535156 6.117188 8.304688 C 5.960938 8.074219 5.71875 7.960938 5.386719 7.960938 C 5.230469 7.960938 5.097656 7.980469 4.988281 8.023438 C 4.785156 8.09375 4.632812 8.226562 4.527344 8.421875 L 3.378906 8.367188 L 3.839844 4.777344 L 7.421875 4.777344 L 7.421875 5.863281 L 4.769531 5.863281 L 4.527344 7.28125 C 4.730469 7.152344 4.886719 7.0625 5 7.019531 C 5.179688 6.953125 5.402344 6.917969 5.667969 6.917969 C 6.210938 6.917969 6.679688 7.101562 7.078125 7.460938 C 7.476562 7.824219 7.683594 8.347656 7.683594 9.035156 C 7.683594 9.640625 7.484375 10.183594 7.097656 10.65625 C 6.714844 11.121094 6.140625 11.355469 5.375 11.355469 C 4.753906 11.355469 4.246094 11.191406 3.851562 10.863281 C 3.453125 10.53125 3.230469 10.058594 3.183594 9.445312 Z M 9.632812 8.003906 C 9.632812 8.75 9.695312 9.320312 9.820312 9.714844 C 9.949219 10.113281 10.199219 10.308594 10.574219 10.308594 C 10.953125 10.308594 11.203125 10.113281 11.316406 9.714844 C 11.433594 9.320312 11.492188 8.75 11.492188 8.003906 C 11.492188 7.21875 11.433594 6.636719 11.316406 6.257812 C 11.203125 5.882812 10.953125 5.695312 10.574219 5.695312 C 10.199219 5.695312 9.949219 5.882812 9.820312 6.257812 C 9.695312 6.636719 9.632812 7.21875 9.632812 8.003906 Z M 10.574219 4.640625 C 11.402344 4.640625 11.984375 4.933594 12.316406 5.519531 C 12.652344 6.101562 12.820312 6.933594 12.820312 8.003906 C 12.820312 9.074219 12.652344 9.902344 12.316406 10.476562 C 11.984375 11.058594 11.402344 11.34375 10.574219 11.34375 C 9.742188 11.34375 9.164062 11.058594 8.832031 10.476562 C 8.496094 9.902344 8.328125 9.074219 8.328125 8.003906 C 8.328125 6.933594 8.496094 6.101562 8.832031 5.519531 C 9.164062 4.933594 9.742188 4.640625 10.574219 4.640625 Z M 2.941406 4.117188 "/>
</svg>
