<?xml version="1.0" encoding="UTF-8"?>
<svg xmlns="http://www.w3.org/2000/svg" xmlns:xlink="http://www.w3.org/1999/xlink" width="16" height="16" viewBox="0 0 16 16">
<path fill-rule="nonzero" fill="rgb(100%, 83.137256%, 0%)" fill-opacity="1" stroke-width="0.3" stroke-linecap="butt" stroke-linejoin="miter" stroke="rgb(0%, 0%, 0%)" stroke-opacity="1" stroke-miterlimit="100" d="M 23.792452 11.972221 C 23.792452 18.501993 18.501993 23.792452 11.972221 23.792452 C 5.44245 23.792452 0.151991 18.501993 0.151991 11.972221 C 0.151991 5.44245 5.44245 0.151991 11.972221 0.151991 C 18.501993 0.151991 23.792452 5.44245 23.792452 11.972221 Z M 23.792452 11.972221 " transform="matrix(0.668214, 0, 0, 0.668214, 0, 0)"/>
<path fill-rule="nonzero" fill="rgb(0%, 0%, 0%)" fill-opacity="1" d="M 7.792969 5.785156 C 7.597656 5.972656 7.328125 6.304688 6.988281 6.785156 C 6.644531 7.265625 6.359375 7.765625 6.132812 8.28125 C 5.949219 8.683594 5.785156 9.175781 5.640625 9.761719 C 5.496094 10.339844 5.421875 10.816406 5.421875 11.191406 L 4.09375 11.191406 C 4.128906 10.03125 4.511719 8.820312 5.242188 7.558594 C 5.707031 6.78125 6.101562 6.238281 6.421875 5.929688 L 3.175781 5.929688 L 3.199219 4.78125 L 7.792969 4.78125 Z M 9.640625 8.007812 C 9.640625 8.753906 9.703125 9.324219 9.828125 9.71875 C 9.953125 10.117188 10.203125 10.316406 10.578125 10.316406 C 10.960938 10.316406 11.207031 10.117188 11.320312 9.71875 C 11.4375 9.324219 11.496094 8.753906 11.496094 8.007812 C 11.496094 7.222656 11.4375 6.640625 11.320312 6.265625 C 11.207031 5.886719 10.960938 5.699219 10.578125 5.699219 C 10.203125 5.699219 9.953125 5.886719 9.828125 6.265625 C 9.703125 6.640625 9.640625 7.222656 9.640625 8.007812 Z M 10.578125 4.644531 C 11.40625 4.644531 11.988281 4.9375 12.324219 5.523438 C 12.65625 6.109375 12.824219 6.9375 12.824219 8.007812 C 12.824219 9.082031 12.65625 9.90625 12.324219 10.484375 C 11.988281 11.0625 11.40625 11.347656 10.578125 11.347656 C 9.75 11.347656 9.167969 11.0625 8.835938 10.484375 C 8.5 9.90625 8.335938 9.082031 8.335938 8.007812 C 8.335938 6.9375 8.5 6.109375 8.835938 5.523438 C 9.167969 4.9375 9.75 4.644531 10.578125 4.644531 Z M 2.945312 4.125 "/>
</svg>
