<?xml version="1.0" encoding="UTF-8"?>
<svg xmlns="http://www.w3.org/2000/svg" xmlns:xlink="http://www.w3.org/1999/xlink" width="16" height="16" viewBox="0 0 16 16">
<path fill-rule="nonzero" fill="rgb(100%, 83.137256%, 0%)" fill-opacity="1" stroke-width="0.3" stroke-linecap="butt" stroke-linejoin="miter" stroke="rgb(0%, 0%, 0%)" stroke-opacity="1" stroke-miterlimit="100" d="M 23.792452 11.972221 C 23.792452 18.501993 18.501993 23.792452 11.972221 23.792452 C 5.44245 23.792452 0.151991 18.501993 0.151991 11.972221 C 0.151991 5.44245 5.44245 0.151991 11.972221 0.151991 C 18.501993 0.151991 23.792452 5.44245 23.792452 11.972221 Z M 23.792452 11.972221 " transform="matrix(0.668214, 0, 0, 0.668214, 0, 0)"/>
<path fill-rule="nonzero" fill="rgb(0%, 0%, 0%)" fill-opacity="1" d="M 4.507812 9.296875 C 4.507812 9.617188 4.589844 9.871094 4.757812 10.050781 C 4.925781 10.222656 5.15625 10.308594 5.449219 10.308594 C 5.738281 10.308594 5.96875 10.222656 6.136719 10.050781 C 6.304688 9.871094 6.386719 9.617188 6.386719 9.296875 C 6.386719 8.972656 6.296875 8.722656 6.125 8.546875 C 5.960938 8.375 5.730469 8.285156 5.449219 8.285156 C 5.160156 8.285156 4.929688 8.375 4.757812 8.546875 C 4.589844 8.722656 4.507812 8.972656 4.507812 9.296875 Z M 3.183594 9.382812 C 3.183594 9.019531 3.265625 8.691406 3.433594 8.398438 C 3.597656 8.101562 3.84375 7.878906 4.164062 7.730469 C 3.851562 7.523438 3.644531 7.296875 3.546875 7.054688 C 3.457031 6.808594 3.410156 6.582031 3.410156 6.363281 C 3.410156 5.890625 3.589844 5.492188 3.945312 5.164062 C 4.300781 4.828125 4.800781 4.660156 5.449219 4.660156 C 6.09375 4.660156 6.597656 4.828125 6.949219 5.164062 C 7.304688 5.492188 7.484375 5.890625 7.484375 6.363281 C 7.484375 6.582031 7.433594 6.808594 7.335938 7.054688 C 7.246094 7.296875 7.046875 7.507812 6.730469 7.679688 C 7.050781 7.863281 7.289062 8.101562 7.453125 8.398438 C 7.613281 8.691406 7.691406 9.019531 7.691406 9.382812 C 7.691406 9.933594 7.488281 10.398438 7.085938 10.78125 C 6.683594 11.164062 6.117188 11.355469 5.394531 11.355469 C 4.664062 11.355469 4.109375 11.164062 3.734375 10.78125 C 3.363281 10.398438 3.183594 9.933594 3.183594 9.382812 Z M 4.621094 6.511719 C 4.621094 6.746094 4.695312 6.941406 4.84375 7.09375 C 4.988281 7.242188 5.1875 7.3125 5.449219 7.3125 C 5.703125 7.3125 5.902344 7.242188 6.042969 7.09375 C 6.1875 6.941406 6.261719 6.746094 6.261719 6.511719 C 6.261719 6.253906 6.1875 6.050781 6.042969 5.902344 C 5.902344 5.757812 5.703125 5.683594 5.449219 5.683594 C 5.1875 5.683594 4.988281 5.757812 4.84375 5.902344 C 4.695312 6.050781 4.621094 6.253906 4.621094 6.511719 Z M 9.632812 8.003906 C 9.632812 8.75 9.695312 9.320312 9.820312 9.714844 C 9.949219 10.113281 10.199219 10.308594 10.574219 10.308594 C 10.953125 10.308594 11.203125 10.113281 11.316406 9.714844 C 11.433594 9.320312 11.492188 8.75 11.492188 8.003906 C 11.492188 7.21875 11.433594 6.636719 11.316406 6.257812 C 11.203125 5.882812 10.953125 5.695312 10.574219 5.695312 C 10.199219 5.695312 9.949219 5.882812 9.820312 6.257812 C 9.695312 6.636719 9.632812 7.21875 9.632812 8.003906 Z M 10.574219 4.640625 C 11.402344 4.640625 11.984375 4.933594 12.316406 5.519531 C 12.652344 6.101562 12.820312 6.933594 12.820312 8.003906 C 12.820312 9.074219 12.652344 9.902344 12.316406 10.476562 C 11.984375 11.058594 11.402344 11.34375 10.574219 11.34375 C 9.742188 11.34375 9.164062 11.058594 8.832031 10.476562 C 8.496094 9.902344 8.328125 9.074219 8.328125 8.003906 C 8.328125 6.933594 8.496094 6.101562 8.832031 5.519531 C 9.164062 4.933594 9.742188 4.640625 10.574219 4.640625 Z M 2.941406 4.117188 "/>
</svg>
