<?xml version="1.0" encoding="UTF-8"?>
<svg xmlns="http://www.w3.org/2000/svg" xmlns:xlink="http://www.w3.org/1999/xlink" width="16" height="29.180108" viewBox="0 0 16 29.180108">
<path fill-rule="nonzero" fill="rgb(100%, 83.137256%, 0%)" fill-opacity="1" stroke-width="0.3" stroke-linecap="butt" stroke-linejoin="miter" stroke="rgb(0%, 0%, 0%)" stroke-opacity="1" stroke-miterlimit="100" d="M 23.792452 11.972221 C 23.792452 18.501993 18.501993 23.792452 11.972221 23.792452 C 5.44245 23.792452 0.151991 18.501993 0.151991 11.972221 C 0.151991 5.44245 5.44245 0.151991 11.972221 0.151991 C 18.501993 0.151991 23.792452 5.44245 23.792452 11.972221 Z M 23.792452 11.972221 " transform="matrix(0.668214, 0, 0, 0.668214, 0, 0)"/>
<path fill-rule="nonzero" fill="rgb(100%, 83.137256%, 0%)" fill-opacity="1" stroke-width="0.640432" stroke-linecap="butt" stroke-linejoin="miter" stroke="rgb(100%, 83.137256%, 0%)" stroke-opacity="1" stroke-miterlimit="3" d="M 27.252909 10.321631 L 39.025438 10.321631 L 39.025438 22.09416 L 27.252909 22.09416 Z M 27.252909 10.321631 " transform="matrix(0.472498, 0.472498, -0.472498, 0.472498, 0, 0)"/>
<path fill-rule="nonzero" fill="rgb(0%, 0%, 0%)" fill-opacity="1" d="M 8 25.40625 C 8 20.5 8 20.5 8 20.5 L 6.472656 25.40625 Z M 8 25.40625 "/>
<path fill-rule="nonzero" fill="rgb(0%, 0%, 0%)" fill-opacity="1" d="M 8 25.40625 C 8 20.5 8 20.5 8 20.5 L 9.527344 25.40625 Z M 8 25.40625 "/>
<path fill-rule="nonzero" fill="rgb(0%, 0%, 0%)" fill-opacity="1" d="M 2.136719 7.125 L 2.136719 6.414062 C 2.464844 6.402344 2.695312 6.378906 2.828125 6.34375 C 3.035156 6.300781 3.207031 6.210938 3.339844 6.070312 C 3.425781 5.976562 3.496094 5.847656 3.546875 5.683594 C 3.574219 5.597656 3.589844 5.527344 3.589844 5.476562 L 4.457031 5.476562 L 4.457031 10.789062 L 3.390625 10.789062 L 3.390625 7.125 Z M 9.714844 9.640625 L 9.109375 9.640625 L 9.109375 10.789062 L 8.085938 10.789062 L 8.085938 9.640625 L 5.988281 9.640625 L 5.988281 8.734375 L 7.941406 5.507812 L 9.109375 5.507812 L 9.109375 8.828125 L 9.714844 8.828125 Z M 8.085938 8.828125 L 8.085938 6.53125 L 6.761719 8.828125 Z M 11.269531 8.179688 C 11.269531 8.792969 11.316406 9.261719 11.417969 9.589844 C 11.511719 9.910156 11.71875 10.070312 12.03125 10.070312 C 12.347656 10.070312 12.546875 9.910156 12.636719 9.589844 C 12.734375 9.261719 12.785156 8.792969 12.785156 8.179688 C 12.785156 7.539062 12.734375 7.070312 12.636719 6.761719 C 12.546875 6.453125 12.347656 6.300781 12.03125 6.300781 C 11.71875 6.300781 11.511719 6.453125 11.417969 6.761719 C 11.316406 7.070312 11.269531 7.539062 11.269531 8.179688 Z M 12.03125 5.433594 C 12.707031 5.433594 13.179688 5.675781 13.453125 6.15625 C 13.730469 6.628906 13.871094 7.304688 13.871094 8.179688 C 13.871094 9.058594 13.730469 9.734375 13.453125 10.214844 C 13.179688 10.691406 12.707031 10.925781 12.03125 10.925781 C 11.355469 10.925781 10.878906 10.691406 10.601562 10.214844 C 10.332031 9.734375 10.195312 9.058594 10.195312 8.179688 C 10.195312 7.304688 10.332031 6.628906 10.601562 6.15625 C 10.878906 5.675781 11.355469 5.433594 12.03125 5.433594 Z M 1.617188 5.011719 "/>
</svg>
