<?xml version="1.0" encoding="UTF-8"?>
<svg xmlns="http://www.w3.org/2000/svg" xmlns:xlink="http://www.w3.org/1999/xlink" width="16" height="16" viewBox="0 0 16 16">
<path fill-rule="nonzero" fill="rgb(100%, 83.137256%, 0%)" fill-opacity="1" stroke-width="0.3" stroke-linecap="butt" stroke-linejoin="miter" stroke="rgb(0%, 0%, 0%)" stroke-opacity="1" stroke-miterlimit="100" d="M 23.792452 11.972221 C 23.792452 18.501993 18.501993 23.792452 11.972221 23.792452 C 5.44245 23.792452 0.151991 18.501993 0.151991 11.972221 C 0.151991 5.44245 5.44245 0.151991 11.972221 0.151991 C 18.501993 0.151991 23.792452 5.44245 23.792452 11.972221 Z M 23.792452 11.972221 " transform="matrix(0.668214, 0, 0, 0.668214, 0, 0)"/>
<path fill-rule="nonzero" fill="rgb(0%, 0%, 0%)" fill-opacity="1" d="M 1.945312 6.898438 L 1.945312 6.167969 C 2.285156 6.148438 2.519531 6.125 2.65625 6.09375 C 2.875 6.046875 3.054688 5.949219 3.1875 5.800781 C 3.285156 5.707031 3.355469 5.578125 3.40625 5.417969 C 3.433594 5.3125 3.449219 5.238281 3.449219 5.195312 L 4.347656 5.195312 L 4.347656 10.699219 L 3.238281 10.699219 L 3.238281 6.898438 Z M 7.070312 7.996094 C 7.070312 8.628906 7.125 9.117188 7.226562 9.457031 C 7.332031 9.789062 7.542969 9.957031 7.863281 9.957031 C 8.183594 9.957031 8.390625 9.789062 8.492188 9.457031 C 8.59375 9.117188 8.648438 8.628906 8.648438 7.996094 C 8.648438 7.335938 8.59375 6.84375 8.492188 6.523438 C 8.390625 6.203125 8.183594 6.042969 7.863281 6.042969 C 7.542969 6.042969 7.332031 6.203125 7.226562 6.523438 C 7.125 6.84375 7.070312 7.335938 7.070312 7.996094 Z M 7.863281 5.15625 C 8.566406 5.15625 9.058594 5.402344 9.335938 5.894531 C 9.621094 6.390625 9.765625 7.09375 9.765625 7.996094 C 9.765625 8.910156 9.621094 9.609375 9.335938 10.105469 C 9.058594 10.59375 8.566406 10.835938 7.863281 10.835938 C 7.160156 10.835938 6.667969 10.59375 6.382812 10.105469 C 6.101562 9.609375 5.964844 8.910156 5.964844 7.996094 C 5.964844 7.09375 6.101562 6.390625 6.382812 5.894531 C 6.667969 5.402344 7.160156 5.15625 7.863281 5.15625 Z M 11.332031 9.226562 C 11.375 9.464844 11.453125 9.644531 11.574219 9.769531 C 11.699219 9.894531 11.878906 9.957031 12.117188 9.957031 C 12.378906 9.957031 12.582031 9.863281 12.722656 9.675781 C 12.859375 9.488281 12.929688 9.253906 12.929688 8.964844 C 12.929688 8.6875 12.863281 8.453125 12.734375 8.257812 C 12.605469 8.0625 12.402344 7.964844 12.128906 7.964844 C 11.992188 7.964844 11.878906 7.980469 11.78125 8.015625 C 11.617188 8.078125 11.484375 8.191406 11.394531 8.351562 L 10.425781 8.308594 L 10.8125 5.257812 L 13.851562 5.257812 L 13.851562 6.179688 L 11.59375 6.179688 L 11.394531 7.390625 C 11.5625 7.28125 11.695312 7.207031 11.792969 7.171875 C 11.945312 7.117188 12.136719 7.085938 12.367188 7.085938 C 12.820312 7.085938 13.214844 7.242188 13.558594 7.546875 C 13.898438 7.855469 14.070312 8.296875 14.070312 8.882812 C 14.070312 9.390625 13.90625 9.847656 13.578125 10.25 C 13.25 10.648438 12.757812 10.84375 12.105469 10.84375 C 11.585938 10.84375 11.152344 10.703125 10.8125 10.429688 C 10.476562 10.144531 10.292969 9.742188 10.257812 9.226562 Z M 1.402344 4.714844 "/>
</svg>
