<?xml version="1.0" encoding="UTF-8"?>
<svg xmlns="http://www.w3.org/2000/svg" xmlns:xlink="http://www.w3.org/1999/xlink" width="16" height="16" viewBox="0 0 16 16">
<path fill-rule="nonzero" fill="rgb(100%, 83.137256%, 0%)" fill-opacity="1" stroke-width="0.3" stroke-linecap="butt" stroke-linejoin="miter" stroke="rgb(0%, 0%, 0%)" stroke-opacity="1" stroke-miterlimit="100" d="M 23.792452 11.972221 C 23.792452 18.501993 18.501993 23.792452 11.972221 23.792452 C 5.44245 23.792452 0.151991 18.501993 0.151991 11.972221 C 0.151991 5.44245 5.44245 0.151991 11.972221 0.151991 C 18.501993 0.151991 23.792452 5.44245 23.792452 11.972221 Z M 23.792452 11.972221 " transform="matrix(0.668214, 0, 0, 0.668214, 0, 0)"/>
<path fill-rule="nonzero" fill="rgb(0%, 0%, 0%)" fill-opacity="1" d="M 1.929688 6.898438 L 1.929688 6.167969 C 2.269531 6.148438 2.507812 6.125 2.640625 6.09375 C 2.863281 6.046875 3.039062 5.949219 3.175781 5.800781 C 3.269531 5.707031 3.34375 5.578125 3.394531 5.417969 C 3.417969 5.3125 3.433594 5.238281 3.433594 5.195312 L 4.332031 5.195312 L 4.332031 10.699219 L 3.226562 10.699219 L 3.226562 6.898438 Z M 6.996094 9.226562 C 7.039062 9.464844 7.117188 9.644531 7.234375 9.769531 C 7.359375 9.894531 7.539062 9.957031 7.777344 9.957031 C 8.042969 9.957031 8.242188 9.863281 8.382812 9.675781 C 8.523438 9.488281 8.59375 9.253906 8.59375 8.964844 C 8.59375 8.6875 8.523438 8.453125 8.394531 8.257812 C 8.269531 8.0625 8.066406 7.964844 7.789062 7.964844 C 7.65625 7.964844 7.539062 7.980469 7.445312 8.015625 C 7.277344 8.078125 7.148438 8.191406 7.058594 8.351562 L 6.085938 8.308594 L 6.472656 5.257812 L 9.511719 5.257812 L 9.511719 6.179688 L 7.257812 6.179688 L 7.058594 7.390625 C 7.226562 7.28125 7.355469 7.207031 7.453125 7.171875 C 7.605469 7.117188 7.800781 7.085938 8.027344 7.085938 C 8.480469 7.085938 8.878906 7.242188 9.21875 7.546875 C 9.558594 7.855469 9.730469 8.296875 9.730469 8.882812 C 9.730469 9.390625 9.566406 9.847656 9.238281 10.25 C 8.910156 10.648438 8.421875 10.84375 7.769531 10.84375 C 7.246094 10.84375 6.8125 10.703125 6.472656 10.429688 C 6.140625 10.144531 5.953125 9.742188 5.921875 9.226562 Z M 11.378906 7.996094 C 11.378906 8.628906 11.433594 9.117188 11.539062 9.457031 C 11.640625 9.789062 11.851562 9.957031 12.175781 9.957031 C 12.492188 9.957031 12.703125 9.789062 12.800781 9.457031 C 12.90625 9.117188 12.957031 8.628906 12.957031 7.996094 C 12.957031 7.335938 12.90625 6.84375 12.800781 6.523438 C 12.703125 6.203125 12.492188 6.042969 12.175781 6.042969 C 11.851562 6.042969 11.640625 6.203125 11.539062 6.523438 C 11.433594 6.84375 11.378906 7.335938 11.378906 7.996094 Z M 12.175781 5.15625 C 12.875 5.15625 13.367188 5.402344 13.644531 5.894531 C 13.929688 6.390625 14.074219 7.09375 14.074219 7.996094 C 14.074219 8.910156 13.929688 9.609375 13.644531 10.105469 C 13.367188 10.59375 12.875 10.835938 12.175781 10.835938 C 11.46875 10.835938 10.976562 10.59375 10.691406 10.105469 C 10.414062 9.609375 10.273438 8.910156 10.273438 7.996094 C 10.273438 7.09375 10.414062 6.390625 10.691406 5.894531 C 10.976562 5.402344 11.46875 5.15625 12.175781 5.15625 Z M 1.386719 4.714844 "/>
</svg>
