<?xml version="1.0" encoding="UTF-8"?>
<svg xmlns="http://www.w3.org/2000/svg" xmlns:xlink="http://www.w3.org/1999/xlink" width="16" height="29.180108" viewBox="0 0 16 29.180108">
<path fill-rule="nonzero" fill="rgb(100%, 83.137256%, 0%)" fill-opacity="1" stroke-width="0.3" stroke-linecap="butt" stroke-linejoin="miter" stroke="rgb(0%, 0%, 0%)" stroke-opacity="1" stroke-miterlimit="100" d="M 23.792452 11.972221 C 23.792452 18.501993 18.501993 23.792452 11.972221 23.792452 C 5.44245 23.792452 0.151991 18.501993 0.151991 11.972221 C 0.151991 5.44245 5.44245 0.151991 11.972221 0.151991 C 18.501993 0.151991 23.792452 5.44245 23.792452 11.972221 Z M 23.792452 11.972221 " transform="matrix(0.668214, 0, 0, 0.668214, 0, 0)"/>
<path fill-rule="nonzero" fill="rgb(100%, 83.137256%, 0%)" fill-opacity="1" stroke-width="0.640432" stroke-linecap="butt" stroke-linejoin="miter" stroke="rgb(100%, 83.137256%, 0%)" stroke-opacity="1" stroke-miterlimit="3" d="M 27.252909 10.321631 L 39.025438 10.321631 L 39.025438 22.09416 L 27.252909 22.09416 Z M 27.252909 10.321631 " transform="matrix(0.472498, 0.472498, -0.472498, 0.472498, 0, 0)"/>
<path fill-rule="nonzero" fill="rgb(0%, 0%, 0%)" fill-opacity="1" d="M 8 25.40625 C 8 20.5 8 20.5 8 20.5 L 6.472656 25.40625 Z M 8 25.40625 "/>
<path fill-rule="nonzero" fill="rgb(0%, 0%, 0%)" fill-opacity="1" d="M 8 25.40625 C 8 20.5 8 20.5 8 20.5 L 9.527344 25.40625 Z M 8 25.40625 "/>
<path fill-rule="nonzero" fill="rgb(0%, 0%, 0%)" fill-opacity="1" d="M 7.203125 10.539062 L 8.863281 10.539062 L 8.863281 12.148438 L 7.203125 12.148438 Z M 5.179688 6.53125 C 5.21875 5.464844 5.589844 4.714844 6.285156 4.277344 C 6.722656 3.992188 7.261719 3.847656 7.902344 3.847656 C 8.738281 3.847656 9.433594 4.050781 9.992188 4.453125 C 10.546875 4.859375 10.828125 5.453125 10.828125 6.238281 C 10.828125 6.71875 10.703125 7.125 10.460938 7.460938 C 10.320312 7.65625 10.050781 7.910156 9.648438 8.222656 L 9.25 8.535156 C 9.035156 8.703125 8.890625 8.898438 8.824219 9.121094 C 8.78125 9.261719 8.753906 9.480469 8.75 9.777344 L 7.246094 9.777344 C 7.265625 9.144531 7.324219 8.710938 7.421875 8.472656 C 7.519531 8.238281 7.769531 7.960938 8.175781 7.648438 L 8.582031 7.324219 C 8.710938 7.226562 8.824219 7.121094 8.90625 7 C 9.050781 6.800781 9.125 6.574219 9.125 6.320312 C 9.125 6.046875 9.042969 5.789062 8.875 5.558594 C 8.710938 5.324219 8.414062 5.203125 7.976562 5.203125 C 7.542969 5.203125 7.238281 5.347656 7.058594 5.632812 C 6.875 5.921875 6.785156 6.21875 6.785156 6.53125 Z M 4.488281 3.363281 "/>
</svg>
