<?xml version="1.0" encoding="UTF-8"?>
<svg xmlns="http://www.w3.org/2000/svg" xmlns:xlink="http://www.w3.org/1999/xlink" width="14" height="28.620802" viewBox="0 0 14 28.620802">
<path fill-rule="nonzero" fill="rgb(0%, 0%, 0%)" fill-opacity="1" stroke-width="0.785276" stroke-linecap="butt" stroke-linejoin="miter" stroke="rgb(84.313725%, 84.313725%, 84.313725%)" stroke-opacity="1" stroke-miterlimit="4" d="M 8.011316 0.393632 C 5.184319 0.393632 2.911986 2.670439 2.911986 5.501909 L 2.911986 11.178268 C 2.911986 14.005265 5.184319 16.282071 8.011316 16.282071 C 10.842786 16.282071 13.119592 14.005265 13.119592 11.178268 L 13.119592 5.501909 C 13.119592 2.670439 10.842786 0.393632 8.011316 0.393632 Z M 8.011316 0.393632 " transform="matrix(0.873276, 0, 0, 0.873276, 0, 0)"/>
<path fill-rule="evenodd" fill="rgb(100%, 0%, 0%)" fill-opacity="1" stroke-width="0.0890739" stroke-linecap="butt" stroke-linejoin="miter" stroke="rgb(5.490196%, 5.490196%, 5.490196%)" stroke-opacity="1" stroke-miterlimit="4" d="M 9.957113 11.665836 C 9.957113 12.739379 9.084859 13.611633 8.011316 13.611633 C 6.946719 13.611633 6.074465 12.739379 6.074465 11.665836 C 6.074465 10.601239 6.946719 9.728985 8.011316 9.728985 C 9.084859 9.728985 9.957113 10.601239 9.957113 11.665836 Z M 9.957113 11.665836 " transform="matrix(0.873276, 0, 0, 0.873276, 0, 0)"/>
<path fill-rule="evenodd" fill="rgb(26.27451%, 26.27451%, 26.27451%)" fill-opacity="1" stroke-width="0.0245596" stroke-linecap="butt" stroke-linejoin="miter" stroke="rgb(0%, 0%, 0%)" stroke-opacity="1" stroke-miterlimit="4" d="M 9.939221 5.054599 C 9.939221 6.128142 9.07144 6.995923 8.00237 6.995923 C 6.924353 6.995923 6.061046 6.128142 6.061046 5.054599 C 6.061046 3.981056 6.924353 3.113275 8.00237 3.113275 C 9.07144 3.113275 9.939221 3.981056 9.939221 5.054599 Z M 9.939221 5.054599 " transform="matrix(0.873276, 0, 0, 0.873276, 0, 0)"/>
<path fill-rule="evenodd" fill="rgb(100%, 83.137255%, 0%)" fill-opacity="1" stroke-width="0.860012" stroke-linecap="butt" stroke-linejoin="round" stroke="rgb(100%, 96.470588%, 0%)" stroke-opacity="1" stroke-miterlimit="4" d="M 0.429417 17.588216 L 15.602161 17.588216 L 8.011316 32.344961 Z M 0.429417 17.588216 " transform="matrix(0.873276, 0, 0, 0.873276, 0, 0)"/>
<path fill="none" stroke-width="1.00734" stroke-linecap="round" stroke-linejoin="miter" stroke="rgb(0%, 0%, 0%)" stroke-opacity="1" stroke-miterlimit="4" d="M 8.015789 19.941064 L 8.015789 27.728726 " transform="matrix(0.873276, 0, 0, 0.873276, 0, 0)"/>
</svg>
