<?xml version="1.0" encoding="UTF-8"?>
<svg xmlns="http://www.w3.org/2000/svg" xmlns:xlink="http://www.w3.org/1999/xlink" width="11" height="23.749232" viewBox="0 0 11 23.749232">
<path fill-rule="nonzero" fill="rgb(0%, 0%, 0%)" fill-opacity="1" stroke-width="0.8" stroke-linecap="butt" stroke-linejoin="miter" stroke="rgb(84.313725%, 84.313725%, 84.313725%)" stroke-opacity="1" stroke-miterlimit="4" d="M 5.599146 0.401929 C 2.717993 0.401929 0.401929 2.721973 0.401929 5.607105 L 0.401929 18.592188 C 0.401929 21.47334 2.717993 23.793384 5.599146 23.793384 C 8.484277 23.793384 10.804321 21.47334 10.804321 18.592188 L 10.804321 5.607105 C 10.804321 2.721973 8.484277 0.401929 5.599146 0.401929 Z M 5.599146 0.401929 " transform="matrix(0.981595, 0, 0, 0.981595, 0, 0)"/>
<path fill-rule="evenodd" fill="rgb(26.27451%, 26.27451%, 26.27451%)" fill-opacity="1" stroke-width="0.0988003" stroke-linecap="butt" stroke-linejoin="miter" stroke="rgb(5.490196%, 5.490196%, 5.490196%)" stroke-opacity="1" stroke-miterlimit="4" d="M 7.592871 11.890723 C 7.592871 12.985083 6.709424 13.868531 5.619043 13.868531 C 4.524683 13.868531 3.641235 12.985083 3.641235 11.890723 C 3.641235 10.800342 4.524683 9.912915 5.619043 9.912915 C 6.709424 9.912915 7.592871 10.800342 7.592871 11.890723 Z M 7.592871 11.890723 " transform="matrix(0.981595, 0, 0, 0.981595, 0, 0)"/>
<path fill-rule="evenodd" fill="rgb(0%, 98.039216%, 19.607843%)" fill-opacity="1" stroke-width="0.090744" stroke-linecap="butt" stroke-linejoin="miter" stroke="rgb(5.490196%, 5.490196%, 5.490196%)" stroke-opacity="1" stroke-miterlimit="4" d="M 7.529199 18.822998 C 7.529199 19.917359 6.641773 20.800806 5.547412 20.800806 C 4.461011 20.800806 3.577564 19.917359 3.577564 18.822998 C 3.577564 17.732617 4.461011 16.845191 5.547412 16.845191 C 6.641773 16.845191 7.529199 17.732617 7.529199 18.822998 Z M 7.529199 18.822998 " transform="matrix(0.981595, 0, 0, 0.981595, 0, 0)"/>
<path fill-rule="evenodd" fill="rgb(0%, 98.039216%, 19.607843%)" fill-opacity="1" stroke-width="0.0250201" stroke-linecap="butt" stroke-linejoin="miter" stroke="rgb(0%, 0%, 0%)" stroke-opacity="1" stroke-miterlimit="4" d="M 7.561035 5.149463 C 7.561035 6.243823 6.677588 7.127271 5.587207 7.127271 C 4.492847 7.127271 3.613379 6.243823 3.613379 5.149463 C 3.613379 4.059082 4.492847 3.175635 5.587207 3.175635 C 6.677588 3.175635 7.561035 4.059082 7.561035 5.149463 Z M 7.561035 5.149463 " transform="matrix(0.981595, 0, 0, 0.981595, 0, 0)"/>
</svg>
