<?xml version="1.0" encoding="UTF-8"?>
<svg xmlns="http://www.w3.org/2000/svg" xmlns:xlink="http://www.w3.org/1999/xlink" width="11" height="16.67868" viewBox="0 0 11 16.67868">
<path fill-rule="nonzero" fill="rgb(0%, 0%, 0%)" fill-opacity="1" stroke-width="0.8" stroke-linecap="butt" stroke-linejoin="miter" stroke="rgb(84.313725%, 84.313725%, 84.313725%)" stroke-opacity="1" stroke-miterlimit="4" d="M 5.599146 0.401929 C 2.717993 0.401929 0.401929 2.721973 0.401929 5.607105 L 0.401929 11.389307 C 0.401929 14.270459 2.717993 16.590503 5.599146 16.590503 C 8.484277 16.590503 10.804321 14.270459 10.804321 11.389307 L 10.804321 5.607105 C 10.804321 2.721973 8.484277 0.401929 5.599146 0.401929 Z M 5.599146 0.401929 " transform="matrix(0.981595, 0, 0, 0.981595, 0, 0)"/>
<path fill-rule="evenodd" fill="rgb(100%, 0%, 0%)" fill-opacity="1" stroke-width="0.090744" stroke-linecap="butt" stroke-linejoin="miter" stroke="rgb(5.490196%, 5.490196%, 5.490196%)" stroke-opacity="1" stroke-miterlimit="4" d="M 7.580933 11.886743 C 7.580933 12.981104 6.693506 13.868531 5.599146 13.868531 C 4.512744 13.868531 3.625317 12.981104 3.625317 11.886743 C 3.625317 10.800342 4.512744 9.912915 5.599146 9.912915 C 6.693506 9.912915 7.580933 10.800342 7.580933 11.886743 Z M 7.580933 11.886743 " transform="matrix(0.981595, 0, 0, 0.981595, 0, 0)"/>
<path fill-rule="evenodd" fill="rgb(26.27451%, 26.27451%, 26.27451%)" fill-opacity="1" stroke-width="0.0250201" stroke-linecap="butt" stroke-linejoin="miter" stroke="rgb(0%, 0%, 0%)" stroke-opacity="1" stroke-miterlimit="4" d="M 7.561035 5.149463 C 7.561035 6.243823 6.677588 7.127271 5.587207 7.127271 C 4.492847 7.127271 3.613379 6.243823 3.613379 5.149463 C 3.613379 4.059082 4.492847 3.175635 5.587207 3.175635 C 6.677588 3.175635 7.561035 4.059082 7.561035 5.149463 Z M 7.561035 5.149463 " transform="matrix(0.981595, 0, 0, 0.981595, 0, 0)"/>
</svg>
