<?xml version="1.0" encoding="UTF-8"?>
<svg xmlns="http://www.w3.org/2000/svg" xmlns:xlink="http://www.w3.org/1999/xlink" width="16" height="27.767088" viewBox="0 0 16 27.767088">
<path fill-rule="evenodd" fill="rgb(0%, 0%, 0%)" fill-opacity="1" stroke-width="1.084" stroke-linecap="butt" stroke-linejoin="round" stroke="rgb(100%, 83.137256%, 0%)" stroke-opacity="1" stroke-miterlimit="4" d="M 0.541386 18.105192 L 10.681959 0.541386 L 20.780887 18.089575 Z M 0.541386 18.105192 " transform="matrix(0.750389, 0, 0, 0.750389, 0, 0)"/>
<path fill-rule="nonzero" fill="rgb(100%, 83.137256%, 0%)" fill-opacity="1" stroke-width="0.905708" stroke-linecap="butt" stroke-linejoin="miter" stroke="rgb(100%, 83.137256%, 0%)" stroke-opacity="1" stroke-miterlimit="3" d="M 2.337329 19.906341 L 18.984944 19.906341 L 18.984944 36.54875 L 2.337329 36.54875 Z M 2.337329 19.906341 " transform="matrix(0.750389, 0, 0, 0.750389, 0, 0)"/>
<path fill-rule="nonzero" fill="rgb(0%, 0%, 0%)" fill-opacity="1" d="M 4.289062 22.296875 C 4.289062 22.636719 4.375 22.894531 4.546875 23.082031 C 4.726562 23.269531 4.972656 23.363281 5.285156 23.363281 C 5.59375 23.363281 5.839844 23.269531 6.011719 23.082031 C 6.191406 22.894531 6.28125 22.636719 6.28125 22.296875 C 6.28125 21.941406 6.191406 21.671875 6.011719 21.488281 C 5.832031 21.308594 5.589844 21.21875 5.285156 21.21875 C 4.980469 21.21875 4.738281 21.308594 4.558594 21.488281 C 4.375 21.671875 4.289062 21.941406 4.289062 22.296875 Z M 2.871094 22.378906 C 2.871094 22 2.953125 21.648438 3.128906 21.335938 C 3.304688 21.015625 3.566406 20.78125 3.914062 20.621094 C 3.574219 20.394531 3.355469 20.152344 3.257812 19.894531 C 3.152344 19.636719 3.105469 19.394531 3.105469 19.167969 C 3.105469 18.660156 3.292969 18.230469 3.667969 17.878906 C 4.046875 17.527344 4.585938 17.351562 5.285156 17.351562 C 5.972656 17.351562 6.503906 17.527344 6.878906 17.878906 C 7.261719 18.230469 7.453125 18.660156 7.453125 19.167969 C 7.453125 19.394531 7.402344 19.636719 7.300781 19.894531 C 7.199219 20.152344 6.984375 20.378906 6.65625 20.574219 C 6.992188 20.761719 7.246094 21.015625 7.417969 21.335938 C 7.589844 21.648438 7.675781 22 7.675781 22.378906 C 7.675781 22.964844 7.460938 23.464844 7.03125 23.867188 C 6.601562 24.277344 6 24.476562 5.226562 24.476562 C 4.453125 24.476562 3.867188 24.277344 3.46875 23.867188 C 3.070312 23.464844 2.871094 22.964844 2.871094 22.378906 Z M 4.40625 19.320312 C 4.40625 19.570312 4.480469 19.777344 4.640625 19.941406 C 4.796875 20.097656 5.007812 20.175781 5.285156 20.175781 C 5.558594 20.175781 5.769531 20.097656 5.917969 19.941406 C 6.074219 19.777344 6.152344 19.570312 6.152344 19.320312 C 6.152344 19.046875 6.074219 18.832031 5.917969 18.675781 C 5.769531 18.519531 5.558594 18.441406 5.285156 18.441406 C 5.007812 18.441406 4.796875 18.519531 4.640625 18.675781 C 4.480469 18.832031 4.40625 19.046875 4.40625 19.320312 Z M 9.75 20.902344 C 9.75 21.699219 9.8125 22.308594 9.9375 22.730469 C 10.070312 23.152344 10.339844 23.363281 10.746094 23.363281 C 11.144531 23.363281 11.40625 23.152344 11.53125 22.730469 C 11.664062 22.308594 11.730469 21.699219 11.730469 20.902344 C 11.730469 20.074219 11.664062 19.460938 11.53125 19.0625 C 11.40625 18.65625 11.144531 18.453125 10.746094 18.453125 C 10.339844 18.453125 10.070312 18.65625 9.9375 19.0625 C 9.8125 19.460938 9.75 20.074219 9.75 20.902344 Z M 10.746094 17.328125 C 11.621094 17.328125 12.234375 17.640625 12.585938 18.265625 C 12.945312 18.882812 13.125 19.761719 13.125 20.902344 C 13.125 22.050781 12.945312 22.9375 12.585938 23.550781 C 12.234375 24.171875 11.621094 24.476562 10.746094 24.476562 C 9.859375 24.476562 9.238281 24.171875 8.882812 23.550781 C 8.53125 22.9375 8.355469 22.050781 8.355469 20.902344 C 8.355469 19.761719 8.53125 18.882812 8.882812 18.265625 C 9.238281 17.640625 9.859375 17.328125 10.746094 17.328125 Z M 2.613281 16.773438 "/>
</svg>
