<?xml version="1.0" encoding="UTF-8"?>
<svg xmlns="http://www.w3.org/2000/svg" xmlns:xlink="http://www.w3.org/1999/xlink" width="16" height="42.097591" viewBox="0 0 16 42.097591">
<path fill-rule="evenodd" fill="rgb(0%, 0%, 0%)" fill-opacity="1" stroke-width="1.084" stroke-linecap="butt" stroke-linejoin="round" stroke="rgb(100%, 83.137256%, 0%)" stroke-opacity="1" stroke-miterlimit="4" d="M 0.541386 18.105191 L 10.681958 0.541386 L 20.780886 18.089574 Z M 0.541386 18.105191 " transform="matrix(0.750389, 0, 0, 0.750389, 0.000000171651, 0)"/>
<path fill-rule="nonzero" fill="rgb(100%, 83.137256%, 0%)" fill-opacity="1" stroke-width="0.905708" stroke-linecap="butt" stroke-linejoin="miter" stroke="rgb(100%, 83.137256%, 0%)" stroke-opacity="1" stroke-miterlimit="3" d="M 2.34774 20.307173 L 18.995354 20.307173 L 18.995354 36.954787 L 2.34774 36.954787 Z M 2.34774 20.307173 " transform="matrix(0.750389, 0, 0, 0.750389, 0.000000171651, 0)"/>
<path fill-rule="nonzero" fill="rgb(100%, 83.137256%, 0%)" fill-opacity="1" stroke-width="0.640432" stroke-linecap="butt" stroke-linejoin="miter" stroke="rgb(100%, 83.137256%, 0%)" stroke-opacity="1" stroke-miterlimit="3" d="M 35.123512 20.031666 L 46.895153 20.031666 L 46.895153 31.803306 L 35.123512 31.803306 Z M 35.123512 20.031666 " transform="matrix(0.530605, 0.530605, -0.530605, 0.530605, 0.000000171651, 0)"/>
<path fill-rule="nonzero" fill="rgb(0%, 0%, 0%)" fill-opacity="1" d="M 8.007812 37.859375 C 8.007812 32.347656 8.007812 32.347656 8.007812 32.347656 L 6.292969 37.859375 Z M 8.007812 37.859375 "/>
<path fill-rule="nonzero" fill="rgb(0%, 0%, 0%)" fill-opacity="1" d="M 8.007812 37.859375 C 8.007812 32.347656 8.007812 32.347656 8.007812 32.347656 L 9.726562 37.859375 Z M 8.007812 37.859375 "/>
<path fill-rule="nonzero" fill="rgb(0%, 0%, 0%)" fill-opacity="1" d="M 2.261719 19.867188 L 2.261719 19.175781 C 2.589844 19.160156 2.8125 19.140625 2.941406 19.117188 C 3.140625 19.070312 3.308594 18.976562 3.445312 18.835938 C 3.527344 18.742188 3.597656 18.621094 3.644531 18.472656 C 3.667969 18.378906 3.679688 18.308594 3.679688 18.261719 L 4.535156 18.261719 L 4.535156 23.457031 L 3.492188 23.457031 L 3.492188 19.867188 Z M 7.046875 22.058594 C 7.09375 22.289062 7.167969 22.464844 7.28125 22.585938 C 7.398438 22.707031 7.566406 22.765625 7.785156 22.765625 C 8.035156 22.765625 8.226562 22.675781 8.359375 22.492188 C 8.492188 22.316406 8.558594 22.09375 8.558594 21.824219 C 8.558594 21.5625 8.496094 21.339844 8.371094 21.15625 C 8.253906 20.96875 8.0625 20.875 7.796875 20.875 C 7.671875 20.875 7.5625 20.894531 7.46875 20.921875 C 7.308594 20.980469 7.191406 21.085938 7.117188 21.238281 L 6.191406 21.191406 L 6.554688 18.332031 L 9.425781 18.332031 L 9.425781 19.199219 L 7.292969 19.199219 L 7.117188 20.324219 C 7.273438 20.226562 7.390625 20.15625 7.480469 20.125 C 7.628906 20.074219 7.808594 20.042969 8.019531 20.042969 C 8.449219 20.042969 8.824219 20.191406 9.144531 20.476562 C 9.464844 20.769531 9.625 21.191406 9.625 21.742188 C 9.625 22.222656 9.46875 22.652344 9.15625 23.035156 C 8.851562 23.410156 8.394531 23.597656 7.785156 23.597656 C 7.285156 23.597656 6.875 23.460938 6.554688 23.199219 C 6.242188 22.933594 6.066406 22.550781 6.039062 22.058594 Z M 11.203125 20.910156 C 11.203125 21.507812 11.25 21.964844 11.34375 22.28125 C 11.445312 22.597656 11.644531 22.753906 11.941406 22.753906 C 12.246094 22.753906 12.445312 22.597656 12.539062 22.28125 C 12.632812 21.964844 12.679688 21.507812 12.679688 20.910156 C 12.679688 20.285156 12.632812 19.828125 12.539062 19.527344 C 12.445312 19.222656 12.246094 19.070312 11.941406 19.070312 C 11.644531 19.070312 11.445312 19.222656 11.34375 19.527344 C 11.25 19.828125 11.203125 20.285156 11.203125 20.910156 Z M 11.941406 18.226562 C 12.605469 18.226562 13.070312 18.460938 13.335938 18.929688 C 13.601562 19.394531 13.734375 20.050781 13.734375 20.910156 C 13.734375 21.765625 13.601562 22.421875 13.335938 22.894531 C 13.070312 23.355469 12.605469 23.585938 11.941406 23.585938 C 11.285156 23.585938 10.820312 23.355469 10.558594 22.894531 C 10.292969 22.421875 10.160156 21.765625 10.160156 20.910156 C 10.160156 20.050781 10.292969 19.394531 10.558594 18.929688 C 10.820312 18.460938 11.285156 18.226562 11.941406 18.226562 Z M 1.753906 17.800781 "/>
</svg>
