<?xml version="1.0" encoding="UTF-8"?>
<svg xmlns="http://www.w3.org/2000/svg" xmlns:xlink="http://www.w3.org/1999/xlink" width="16" height="27.767088" viewBox="0 0 16 27.767088">
<path fill-rule="evenodd" fill="rgb(0%, 0%, 0%)" fill-opacity="1" stroke-width="1.084" stroke-linecap="butt" stroke-linejoin="round" stroke="rgb(100%, 83.137256%, 0%)" stroke-opacity="1" stroke-miterlimit="4" d="M 0.541386 18.105192 L 10.681959 0.541386 L 20.780887 18.089575 Z M 0.541386 18.105192 " transform="matrix(0.750389, 0, 0, 0.750389, 0, 0)"/>
<path fill-rule="nonzero" fill="rgb(100%, 83.137256%, 0%)" fill-opacity="1" stroke-width="0.905708" stroke-linecap="butt" stroke-linejoin="miter" stroke="rgb(100%, 83.137256%, 0%)" stroke-opacity="1" stroke-miterlimit="3" d="M 2.337329 19.906341 L 18.984944 19.906341 L 18.984944 36.54875 L 2.337329 36.54875 Z M 2.337329 19.906341 " transform="matrix(0.750389, 0, 0, 0.750389, 0, 0)"/>
<path fill-rule="nonzero" fill="rgb(0%, 0%, 0%)" fill-opacity="1" d="M 7.773438 18.535156 C 7.570312 18.738281 7.285156 19.097656 6.917969 19.613281 C 6.558594 20.121094 6.253906 20.648438 6.015625 21.195312 C 5.820312 21.625 5.640625 22.152344 5.488281 22.777344 C 5.328125 23.398438 5.253906 23.902344 5.253906 24.300781 L 3.835938 24.300781 C 3.882812 23.058594 4.292969 21.769531 5.066406 20.433594 C 5.558594 19.597656 5.972656 19.019531 6.320312 18.699219 L 2.859375 18.699219 L 2.882812 17.46875 L 7.773438 17.46875 Z M 9.753906 20.902344 C 9.753906 21.699219 9.816406 22.308594 9.941406 22.730469 C 10.074219 23.152344 10.34375 23.363281 10.75 23.363281 C 11.148438 23.363281 11.410156 23.152344 11.539062 22.730469 C 11.667969 22.308594 11.738281 21.699219 11.738281 20.902344 C 11.738281 20.074219 11.667969 19.460938 11.539062 19.0625 C 11.410156 18.65625 11.148438 18.453125 10.75 18.453125 C 10.34375 18.453125 10.074219 18.65625 9.941406 19.0625 C 9.816406 19.460938 9.753906 20.074219 9.753906 20.902344 Z M 10.75 17.328125 C 11.625 17.328125 12.242188 17.640625 12.59375 18.265625 C 12.949219 18.882812 13.132812 19.761719 13.132812 20.902344 C 13.132812 22.050781 12.949219 22.9375 12.59375 23.550781 C 12.242188 24.171875 11.625 24.476562 10.75 24.476562 C 9.867188 24.476562 9.246094 24.171875 8.886719 23.550781 C 8.535156 22.9375 8.359375 22.050781 8.359375 20.902344 C 8.359375 19.761719 8.535156 18.882812 8.886719 18.265625 C 9.246094 17.640625 9.867188 17.328125 10.75 17.328125 Z M 2.613281 16.773438 "/>
</svg>
