<?xml version="1.0" encoding="UTF-8"?>
<svg xmlns="http://www.w3.org/2000/svg" xmlns:xlink="http://www.w3.org/1999/xlink" width="16" height="42.097591" viewBox="0 0 16 42.097591">
<path fill-rule="evenodd" fill="rgb(0%, 0%, 0%)" fill-opacity="1" stroke-width="1.084" stroke-linecap="butt" stroke-linejoin="round" stroke="rgb(100%, 83.137256%, 0%)" stroke-opacity="1" stroke-miterlimit="4" d="M 0.541386 18.105191 L 10.681958 0.541386 L 20.780886 18.089574 Z M 0.541386 18.105191 " transform="matrix(0.750389, 0, 0, 0.750389, 0.000000171651, 0)"/>
<path fill-rule="nonzero" fill="rgb(100%, 83.137256%, 0%)" fill-opacity="1" stroke-width="0.905708" stroke-linecap="butt" stroke-linejoin="miter" stroke="rgb(100%, 83.137256%, 0%)" stroke-opacity="1" stroke-miterlimit="3" d="M 2.34774 20.307173 L 18.995354 20.307173 L 18.995354 36.954787 L 2.34774 36.954787 Z M 2.34774 20.307173 " transform="matrix(0.750389, 0, 0, 0.750389, 0.000000171651, 0)"/>
<path fill-rule="nonzero" fill="rgb(100%, 83.137256%, 0%)" fill-opacity="1" stroke-width="0.640432" stroke-linecap="butt" stroke-linejoin="miter" stroke="rgb(100%, 83.137256%, 0%)" stroke-opacity="1" stroke-miterlimit="3" d="M 35.123512 20.031666 L 46.895153 20.031666 L 46.895153 31.803306 L 35.123512 31.803306 Z M 35.123512 20.031666 " transform="matrix(0.530605, 0.530605, -0.530605, 0.530605, 0.000000171651, 0)"/>
<path fill-rule="nonzero" fill="rgb(0%, 0%, 0%)" fill-opacity="1" d="M 8.007812 37.859375 C 8.007812 32.347656 8.007812 32.347656 8.007812 32.347656 L 6.292969 37.859375 Z M 8.007812 37.859375 "/>
<path fill-rule="nonzero" fill="rgb(0%, 0%, 0%)" fill-opacity="1" d="M 8.007812 37.859375 C 8.007812 32.347656 8.007812 32.347656 8.007812 32.347656 L 9.726562 37.859375 Z M 8.007812 37.859375 "/>
</svg>
