<?xml version="1.0" encoding="UTF-8"?>
<svg xmlns="http://www.w3.org/2000/svg" xmlns:xlink="http://www.w3.org/1999/xlink" width="16" height="27.767088" viewBox="0 0 16 27.767088">
<path fill-rule="evenodd" fill="rgb(0%, 0%, 0%)" fill-opacity="1" stroke-width="1.084" stroke-linecap="butt" stroke-linejoin="round" stroke="rgb(100%, 83.137256%, 0%)" stroke-opacity="1" stroke-miterlimit="4" d="M 0.541386 18.105192 L 10.681959 0.541386 L 20.780887 18.089575 Z M 0.541386 18.105192 " transform="matrix(0.750389, 0, 0, 0.750389, 0, 0)"/>
<path fill-rule="nonzero" fill="rgb(100%, 83.137256%, 0%)" fill-opacity="1" stroke-width="0.905708" stroke-linecap="butt" stroke-linejoin="miter" stroke="rgb(100%, 83.137256%, 0%)" stroke-opacity="1" stroke-miterlimit="3" d="M 2.337329 19.906341 L 18.984944 19.906341 L 18.984944 36.54875 L 2.337329 36.54875 Z M 2.337329 19.906341 " transform="matrix(0.750389, 0, 0, 0.750389, 0, 0)"/>
<path fill-rule="nonzero" fill="rgb(0%, 0%, 0%)" fill-opacity="1" d="M 7.316406 22.917969 L 8.734375 22.917969 L 8.734375 24.300781 L 7.316406 24.300781 Z M 5.570312 19.484375 C 5.605469 18.578125 5.925781 17.9375 6.519531 17.5625 C 6.894531 17.320312 7.355469 17.199219 7.902344 17.199219 C 8.621094 17.199219 9.21875 17.371094 9.695312 17.714844 C 10.171875 18.058594 10.410156 18.566406 10.410156 19.238281 C 10.410156 19.652344 10.308594 20 10.105469 20.28125 C 9.980469 20.453125 9.746094 20.671875 9.402344 20.9375 L 9.0625 21.207031 C 8.882812 21.347656 8.761719 21.511719 8.699219 21.699219 C 8.660156 21.824219 8.640625 22.015625 8.640625 22.273438 L 7.351562 22.273438 C 7.367188 21.734375 7.414062 21.367188 7.492188 21.160156 C 7.578125 20.949219 7.792969 20.710938 8.136719 20.445312 L 8.488281 20.175781 C 8.605469 20.089844 8.699219 19.996094 8.769531 19.894531 C 8.894531 19.714844 8.957031 19.519531 8.957031 19.308594 C 8.957031 19.066406 8.886719 18.847656 8.746094 18.652344 C 8.605469 18.457031 8.347656 18.359375 7.972656 18.359375 C 7.597656 18.359375 7.332031 18.480469 7.175781 18.722656 C 7.027344 18.964844 6.953125 19.21875 6.953125 19.484375 Z M 4.984375 16.773438 "/>
</svg>
