<?xml version="1.0" encoding="UTF-8"?>
<svg xmlns="http://www.w3.org/2000/svg" xmlns:xlink="http://www.w3.org/1999/xlink" width="15" height="25.057955" viewBox="0 0 15 25.057955">
<path fill-rule="evenodd" fill="rgb(0%, 0%, 0%)" fill-opacity="1" stroke-width="0.813422" stroke-linecap="butt" stroke-linejoin="round" stroke="rgb(100%, 83.137255%, 0%)" stroke-opacity="1" stroke-miterlimit="4" d="M 0.408355 13.584058 L 8.017094 0.408355 L 15.596665 13.575724 Z M 0.408355 13.584058 " transform="matrix(0.93745, 0, 0, 0.93745, 0, 0)"/>
<path fill-rule="evenodd" fill="rgb(63.529412%, 63.529412%, 63.529412%)" fill-opacity="1" d="M 13.246094 19.382812 C 13.246094 22.519531 10.679688 25.058594 7.519531 25.058594 C 4.355469 25.058594 1.792969 22.519531 1.792969 19.382812 C 1.792969 16.25 4.355469 13.710938 7.519531 13.710938 C 10.679688 13.710938 13.246094 16.25 13.246094 19.382812 Z M 13.246094 19.382812 "/>
<path fill-rule="evenodd" fill="rgb(84.313725%, 84.313725%, 84.313725%)" fill-opacity="1" d="M 12.347656 19.382812 C 12.347656 22.027344 10.1875 24.171875 7.519531 24.171875 C 4.851562 24.171875 2.691406 22.027344 2.691406 19.382812 C 2.691406 16.742188 4.851562 14.601562 7.519531 14.601562 C 10.1875 14.601562 12.347656 16.742188 12.347656 19.382812 Z M 12.347656 19.382812 "/>
<path fill-rule="evenodd" fill="rgb(10.588235%, 10.588235%, 10.588235%)" fill-opacity="1" d="M 7.515625 13.710938 C 5.914062 13.710938 4.46875 14.359375 3.429688 15.414062 L 7.558594 19.472656 L 11.636719 15.445312 C 10.59375 14.375 9.136719 13.710938 7.515625 13.710938 Z M 7.558594 19.472656 L 3.53125 23.453125 C 4.5625 24.445312 5.960938 25.058594 7.515625 25.058594 C 9.09375 25.058594 10.515625 24.429688 11.554688 23.40625 Z M 7.558594 19.472656 "/>
<path fill-rule="evenodd" fill="rgb(10.588235%, 10.588235%, 10.588235%)" fill-opacity="1" d="M 10.367188 19.382812 C 10.367188 20.941406 9.09375 22.203125 7.519531 22.203125 C 5.945312 22.203125 4.671875 20.941406 4.671875 19.382812 C 4.671875 17.828125 5.945312 16.5625 7.519531 16.5625 C 9.09375 16.5625 10.367188 17.828125 10.367188 19.382812 Z M 10.367188 19.382812 "/>
</svg>
