<?xml version="1.0" encoding="UTF-8"?>
<svg xmlns="http://www.w3.org/2000/svg" xmlns:xlink="http://www.w3.org/1999/xlink" width="16" height="27.767088" viewBox="0 0 16 27.767088">
<path fill-rule="evenodd" fill="rgb(0%, 0%, 0%)" fill-opacity="1" stroke-width="1.084" stroke-linecap="butt" stroke-linejoin="round" stroke="rgb(100%, 83.137256%, 0%)" stroke-opacity="1" stroke-miterlimit="4" d="M 0.541386 18.105192 L 10.681959 0.541386 L 20.780887 18.089575 Z M 0.541386 18.105192 " transform="matrix(0.750389, 0, 0, 0.750389, 0, 0)"/>
<path fill-rule="nonzero" fill="rgb(100%, 83.137256%, 0%)" fill-opacity="1" stroke-width="0.905708" stroke-linecap="butt" stroke-linejoin="miter" stroke="rgb(100%, 83.137256%, 0%)" stroke-opacity="1" stroke-miterlimit="3" d="M 2.337329 19.906341 L 18.984944 19.906341 L 18.984944 36.54875 L 2.337329 36.54875 Z M 2.337329 19.906341 " transform="matrix(0.750389, 0, 0, 0.750389, 0, 0)"/>
<path fill-rule="nonzero" fill="rgb(0%, 0%, 0%)" fill-opacity="1" d="M 2.285156 19.832031 L 2.285156 19.117188 C 2.617188 19.101562 2.851562 19.078125 2.988281 19.046875 C 3.199219 19 3.367188 18.90625 3.503906 18.765625 C 3.585938 18.671875 3.65625 18.542969 3.703125 18.378906 C 3.730469 18.285156 3.75 18.214844 3.75 18.167969 L 4.628906 18.167969 L 4.628906 23.539062 L 3.550781 23.539062 L 3.550781 19.832031 Z M 6.089844 19.832031 L 6.089844 19.117188 C 6.421875 19.101562 6.65625 19.078125 6.792969 19.046875 C 7.003906 19 7.171875 18.90625 7.308594 18.765625 C 7.390625 18.671875 7.460938 18.542969 7.507812 18.378906 C 7.535156 18.285156 7.554688 18.214844 7.554688 18.167969 L 8.433594 18.167969 L 8.433594 23.539062 L 7.355469 23.539062 L 7.355469 19.832031 Z M 11.089844 20.898438 C 11.089844 21.519531 11.140625 21.988281 11.242188 22.316406 C 11.34375 22.648438 11.550781 22.8125 11.867188 22.8125 C 12.175781 22.8125 12.382812 22.648438 12.476562 22.316406 C 12.574219 21.988281 12.628906 21.519531 12.628906 20.898438 C 12.628906 20.261719 12.574219 19.78125 12.476562 19.46875 C 12.382812 19.160156 12.175781 19 11.867188 19 C 11.550781 19 11.34375 19.160156 11.242188 19.46875 C 11.140625 19.78125 11.089844 20.261719 11.089844 20.898438 Z M 11.867188 18.132812 C 12.550781 18.132812 13.03125 18.375 13.308594 18.859375 C 13.582031 19.335938 13.71875 20.015625 13.71875 20.898438 C 13.71875 21.789062 13.582031 22.476562 13.308594 22.953125 C 13.03125 23.429688 12.550781 23.667969 11.867188 23.667969 C 11.183594 23.667969 10.703125 23.429688 10.421875 22.953125 C 10.148438 22.476562 10.011719 21.789062 10.011719 20.898438 C 10.011719 20.015625 10.148438 19.335938 10.421875 18.859375 C 10.703125 18.375 11.183594 18.132812 11.867188 18.132812 Z M 1.753906 17.695312 "/>
</svg>
