<?xml version="1.0" encoding="UTF-8"?>
<svg xmlns="http://www.w3.org/2000/svg" xmlns:xlink="http://www.w3.org/1999/xlink" width="16" height="27.767088" viewBox="0 0 16 27.767088">
<path fill-rule="evenodd" fill="rgb(0%, 0%, 0%)" fill-opacity="1" stroke-width="1.084" stroke-linecap="butt" stroke-linejoin="round" stroke="rgb(100%, 83.137256%, 0%)" stroke-opacity="1" stroke-miterlimit="4" d="M 0.541386 18.105192 L 10.681959 0.541386 L 20.780887 18.089575 Z M 0.541386 18.105192 " transform="matrix(0.750389, 0, 0, 0.750389, 0, 0)"/>
<path fill-rule="nonzero" fill="rgb(100%, 83.137256%, 0%)" fill-opacity="1" stroke-width="0.905708" stroke-linecap="butt" stroke-linejoin="miter" stroke="rgb(100%, 83.137256%, 0%)" stroke-opacity="1" stroke-miterlimit="3" d="M 2.337329 19.906341 L 18.984944 19.906341 L 18.984944 36.54875 L 2.337329 36.54875 Z M 2.337329 19.906341 " transform="matrix(0.750389, 0, 0, 0.750389, 0, 0)"/>
<path fill-rule="nonzero" fill="rgb(0%, 0%, 0%)" fill-opacity="1" d="M 2.261719 19.867188 L 2.261719 19.175781 C 2.589844 19.160156 2.8125 19.140625 2.941406 19.117188 C 3.140625 19.070312 3.308594 18.976562 3.445312 18.835938 C 3.527344 18.742188 3.597656 18.621094 3.644531 18.472656 C 3.667969 18.378906 3.679688 18.308594 3.679688 18.261719 L 4.535156 18.261719 L 4.535156 23.457031 L 3.492188 23.457031 L 3.492188 19.867188 Z M 7.117188 20.910156 C 7.117188 21.507812 7.164062 21.964844 7.257812 22.28125 C 7.355469 22.597656 7.558594 22.753906 7.855469 22.753906 C 8.160156 22.753906 8.359375 22.597656 8.453125 22.28125 C 8.546875 21.964844 8.59375 21.507812 8.59375 20.910156 C 8.59375 20.285156 8.546875 19.828125 8.453125 19.527344 C 8.359375 19.222656 8.160156 19.070312 7.855469 19.070312 C 7.558594 19.070312 7.355469 19.222656 7.257812 19.527344 C 7.164062 19.828125 7.117188 20.285156 7.117188 20.910156 Z M 7.855469 18.226562 C 8.519531 18.226562 8.984375 18.460938 9.25 18.929688 C 9.515625 19.394531 9.648438 20.050781 9.648438 20.910156 C 9.648438 21.765625 9.515625 22.421875 9.25 22.894531 C 8.984375 23.355469 8.519531 23.585938 7.855469 23.585938 C 7.199219 23.585938 6.734375 23.355469 6.472656 22.894531 C 6.207031 22.421875 6.074219 21.765625 6.074219 20.910156 C 6.074219 20.050781 6.207031 19.394531 6.472656 18.929688 C 6.734375 18.460938 7.199219 18.226562 7.855469 18.226562 Z M 11.203125 20.910156 C 11.203125 21.507812 11.25 21.964844 11.34375 22.28125 C 11.445312 22.597656 11.644531 22.753906 11.941406 22.753906 C 12.246094 22.753906 12.445312 22.597656 12.539062 22.28125 C 12.632812 21.964844 12.679688 21.507812 12.679688 20.910156 C 12.679688 20.285156 12.632812 19.828125 12.539062 19.527344 C 12.445312 19.222656 12.246094 19.070312 11.941406 19.070312 C 11.644531 19.070312 11.445312 19.222656 11.34375 19.527344 C 11.25 19.828125 11.203125 20.285156 11.203125 20.910156 Z M 11.941406 18.226562 C 12.605469 18.226562 13.070312 18.460938 13.335938 18.929688 C 13.601562 19.394531 13.734375 20.050781 13.734375 20.910156 C 13.734375 21.765625 13.601562 22.421875 13.335938 22.894531 C 13.070312 23.355469 12.605469 23.585938 11.941406 23.585938 C 11.285156 23.585938 10.820312 23.355469 10.558594 22.894531 C 10.292969 22.421875 10.160156 21.765625 10.160156 20.910156 C 10.160156 20.050781 10.292969 19.394531 10.558594 18.929688 C 10.820312 18.460938 11.285156 18.226562 11.941406 18.226562 Z M 1.753906 17.800781 "/>
</svg>
