<?xml version="1.0" encoding="UTF-8"?>
<svg xmlns="http://www.w3.org/2000/svg" xmlns:xlink="http://www.w3.org/1999/xlink" width="16" height="27.767088" viewBox="0 0 16 27.767088">
<path fill-rule="evenodd" fill="rgb(0%, 0%, 0%)" fill-opacity="1" stroke-width="1.084" stroke-linecap="butt" stroke-linejoin="round" stroke="rgb(100%, 83.137256%, 0%)" stroke-opacity="1" stroke-miterlimit="4" d="M 0.541386 18.105192 L 10.681959 0.541386 L 20.780887 18.089575 Z M 0.541386 18.105192 " transform="matrix(0.750389, 0, 0, 0.750389, 0, 0)"/>
<path fill-rule="nonzero" fill="rgb(100%, 83.137256%, 0%)" fill-opacity="1" stroke-width="0.905708" stroke-linecap="butt" stroke-linejoin="miter" stroke="rgb(100%, 83.137256%, 0%)" stroke-opacity="1" stroke-miterlimit="3" d="M 2.337329 19.906341 L 18.984944 19.906341 L 18.984944 36.54875 L 2.337329 36.54875 Z M 2.337329 19.906341 " transform="matrix(0.750389, 0, 0, 0.750389, 0, 0)"/>
<path fill-rule="nonzero" fill="rgb(0%, 0%, 0%)" fill-opacity="1" d="M 2.261719 19.867188 L 2.261719 19.175781 C 2.589844 19.160156 2.8125 19.140625 2.941406 19.117188 C 3.140625 19.070312 3.308594 18.976562 3.445312 18.835938 C 3.527344 18.742188 3.597656 18.621094 3.644531 18.472656 C 3.667969 18.378906 3.679688 18.308594 3.679688 18.261719 L 4.535156 18.261719 L 4.535156 23.457031 L 3.492188 23.457031 L 3.492188 19.867188 Z M 7.035156 21.859375 C 7.035156 22.070312 7.070312 22.246094 7.140625 22.375 C 7.261719 22.628906 7.484375 22.753906 7.808594 22.753906 C 8.011719 22.753906 8.1875 22.6875 8.335938 22.550781 C 8.484375 22.410156 8.558594 22.210938 8.558594 21.953125 C 8.558594 21.613281 8.421875 21.386719 8.148438 21.273438 C 7.992188 21.203125 7.742188 21.167969 7.398438 21.167969 L 7.398438 20.441406 C 7.734375 20.4375 7.96875 20.402344 8.101562 20.347656 C 8.328125 20.25 8.441406 20.042969 8.441406 19.738281 C 8.441406 19.535156 8.382812 19.375 8.265625 19.257812 C 8.148438 19.136719 7.984375 19.070312 7.773438 19.070312 C 7.53125 19.070312 7.351562 19.148438 7.234375 19.304688 C 7.121094 19.453125 7.074219 19.652344 7.082031 19.902344 L 6.121094 19.902344 C 6.136719 19.644531 6.183594 19.40625 6.261719 19.175781 C 6.335938 18.972656 6.464844 18.785156 6.648438 18.613281 C 6.789062 18.488281 6.945312 18.394531 7.128906 18.332031 C 7.316406 18.269531 7.542969 18.238281 7.808594 18.238281 C 8.300781 18.238281 8.699219 18.367188 9.003906 18.625 C 9.308594 18.878906 9.460938 19.21875 9.460938 19.65625 C 9.460938 19.960938 9.371094 20.21875 9.191406 20.429688 C 9.074219 20.566406 8.957031 20.652344 8.839844 20.699219 C 8.925781 20.699219 9.058594 20.78125 9.238281 20.933594 C 9.496094 21.179688 9.625 21.507812 9.625 21.917969 C 9.625 22.363281 9.472656 22.757812 9.167969 23.09375 C 8.863281 23.421875 8.414062 23.585938 7.820312 23.585938 C 7.085938 23.585938 6.570312 23.347656 6.285156 22.871094 C 6.136719 22.613281 6.054688 22.277344 6.039062 21.859375 Z M 11.203125 20.910156 C 11.203125 21.507812 11.25 21.964844 11.34375 22.28125 C 11.445312 22.597656 11.644531 22.753906 11.941406 22.753906 C 12.246094 22.753906 12.445312 22.597656 12.539062 22.28125 C 12.632812 21.964844 12.679688 21.507812 12.679688 20.910156 C 12.679688 20.285156 12.632812 19.828125 12.539062 19.527344 C 12.445312 19.222656 12.246094 19.070312 11.941406 19.070312 C 11.644531 19.070312 11.445312 19.222656 11.34375 19.527344 C 11.25 19.828125 11.203125 20.285156 11.203125 20.910156 Z M 11.941406 18.226562 C 12.605469 18.226562 13.070312 18.460938 13.335938 18.929688 C 13.601562 19.394531 13.734375 20.050781 13.734375 20.910156 C 13.734375 21.765625 13.601562 22.421875 13.335938 22.894531 C 13.070312 23.355469 12.605469 23.585938 11.941406 23.585938 C 11.285156 23.585938 10.820312 23.355469 10.558594 22.894531 C 10.292969 22.421875 10.160156 21.765625 10.160156 20.910156 C 10.160156 20.050781 10.292969 19.394531 10.558594 18.929688 C 10.820312 18.460938 11.285156 18.226562 11.941406 18.226562 Z M 1.753906 17.800781 "/>
</svg>
