<?xml version="1.0" encoding="UTF-8"?>
<svg xmlns="http://www.w3.org/2000/svg" xmlns:xlink="http://www.w3.org/1999/xlink" width="15" height="34.561827" viewBox="0 0 15 34.561827">
<path fill-rule="evenodd" fill="rgb(0%, 0%, 0%)" fill-opacity="1" stroke-width="0.813422" stroke-linecap="butt" stroke-linejoin="round" stroke="rgb(100%, 83.137255%, 0%)" stroke-opacity="1" stroke-miterlimit="4" d="M 0.408355 13.584058 L 8.017094 0.408355 L 15.596665 13.575724 Z M 0.408355 13.584058 " transform="matrix(0.93745, 0, 0, 0.93745, 0, 0)"/>
<path fill-rule="nonzero" fill="rgb(100%, 83.137255%, 0%)" fill-opacity="1" stroke-width="0.708435" stroke-linecap="butt" stroke-linejoin="miter" stroke="rgb(100%, 83.137255%, 0%)" stroke-opacity="1" stroke-miterlimit="3" d="M 2.595972 27.680643 L 13.409048 27.680643 L 13.409048 36.514447 L 2.595972 36.514447 Z M 2.595972 27.680643 " transform="matrix(0.93745, 0, 0, 0.93745, 0, 0)"/>
<path fill-rule="evenodd" fill="rgb(63.529412%, 63.529412%, 63.529412%)" fill-opacity="1" d="M 13.246094 19.382812 C 13.246094 22.519531 10.679688 25.058594 7.519531 25.058594 C 4.355469 25.058594 1.792969 22.519531 1.792969 19.382812 C 1.792969 16.25 4.355469 13.710938 7.519531 13.710938 C 10.679688 13.710938 13.246094 16.25 13.246094 19.382812 Z M 13.246094 19.382812 "/>
<path fill-rule="evenodd" fill="rgb(84.313725%, 84.313725%, 84.313725%)" fill-opacity="1" d="M 12.347656 19.382812 C 12.347656 22.027344 10.1875 24.171875 7.519531 24.171875 C 4.851562 24.171875 2.691406 22.027344 2.691406 19.382812 C 2.691406 16.742188 4.851562 14.601562 7.519531 14.601562 C 10.1875 14.601562 12.347656 16.742188 12.347656 19.382812 Z M 12.347656 19.382812 "/>
<path fill-rule="evenodd" fill="rgb(10.588235%, 10.588235%, 10.588235%)" fill-opacity="1" d="M 7.515625 13.710938 C 5.914062 13.710938 4.46875 14.359375 3.429688 15.414062 L 7.558594 19.472656 L 11.636719 15.445312 C 10.59375 14.375 9.136719 13.710938 7.515625 13.710938 Z M 7.558594 19.472656 L 3.53125 23.453125 C 4.5625 24.445312 5.960938 25.058594 7.515625 25.058594 C 9.09375 25.058594 10.515625 24.429688 11.554688 23.40625 Z M 7.558594 19.472656 "/>
<path fill-rule="evenodd" fill="rgb(10.588235%, 10.588235%, 10.588235%)" fill-opacity="1" d="M 10.367188 19.382812 C 10.367188 20.941406 9.09375 22.203125 7.519531 22.203125 C 5.945312 22.203125 4.671875 20.941406 4.671875 19.382812 C 4.671875 17.828125 5.945312 16.5625 7.519531 16.5625 C 9.09375 16.5625 10.367188 17.828125 10.367188 19.382812 Z M 10.367188 19.382812 "/>
<path fill-rule="nonzero" fill="rgb(0%, 0%, 0%)" fill-opacity="1" d="M 4.0625 29.296875 C 4.0625 29.5 4.109375 29.667969 4.222656 29.796875 C 4.328125 29.914062 4.460938 29.96875 4.632812 29.96875 C 4.785156 29.96875 4.914062 29.914062 5 29.796875 C 5.09375 29.667969 5.148438 29.511719 5.148438 29.328125 C 5.148438 29.109375 5.085938 28.945312 4.984375 28.828125 C 4.882812 28.710938 4.757812 28.652344 4.605469 28.652344 C 4.472656 28.652344 4.359375 28.691406 4.265625 28.769531 C 4.125 28.875 4.0625 29.054688 4.0625 29.296875 Z M 5.085938 27.699219 C 5.085938 27.640625 5.058594 27.578125 5.015625 27.507812 C 4.929688 27.390625 4.8125 27.335938 4.664062 27.335938 C 4.429688 27.335938 4.253906 27.464844 4.148438 27.730469 C 4.097656 27.875 4.0625 28.089844 4.046875 28.375 C 4.136719 28.277344 4.238281 28.203125 4.355469 28.15625 C 4.472656 28.09375 4.605469 28.066406 4.765625 28.066406 C 5.085938 28.066406 5.351562 28.179688 5.554688 28.402344 C 5.765625 28.628906 5.878906 28.910156 5.878906 29.253906 C 5.878906 29.605469 5.777344 29.914062 5.570312 30.175781 C 5.367188 30.4375 5.042969 30.570312 4.617188 30.570312 C 4.148438 30.570312 3.804688 30.375 3.59375 29.984375 C 3.417969 29.683594 3.328125 29.289062 3.328125 28.796875 C 3.328125 28.523438 3.34375 28.300781 3.375 28.125 C 3.40625 27.804688 3.492188 27.539062 3.609375 27.335938 C 3.710938 27.15625 3.847656 27.015625 4.019531 26.910156 C 4.195312 26.800781 4.398438 26.75 4.632812 26.75 C 4.984375 26.75 5.253906 26.835938 5.453125 27.011719 C 5.660156 27.179688 5.777344 27.40625 5.804688 27.699219 Z M 6.976562 28.652344 C 6.976562 29.082031 7.007812 29.410156 7.078125 29.632812 C 7.144531 29.859375 7.285156 29.96875 7.503906 29.96875 C 7.714844 29.96875 7.855469 29.859375 7.929688 29.632812 C 7.992188 29.410156 8.03125 29.082031 8.03125 28.652344 C 8.03125 28.210938 7.992188 27.886719 7.929688 27.671875 C 7.855469 27.457031 7.714844 27.347656 7.503906 27.347656 C 7.285156 27.347656 7.144531 27.457031 7.078125 27.671875 C 7.007812 27.886719 6.976562 28.210938 6.976562 28.652344 Z M 7.503906 26.75 C 7.972656 26.75 8.296875 26.914062 8.484375 27.246094 C 8.675781 27.578125 8.78125 28.046875 8.78125 28.652344 C 8.78125 29.265625 8.675781 29.742188 8.484375 30.074219 C 8.296875 30.394531 7.972656 30.554688 7.503906 30.554688 C 7.035156 30.554688 6.699219 30.394531 6.507812 30.074219 C 6.320312 29.742188 6.230469 29.265625 6.230469 28.652344 C 6.230469 28.046875 6.320312 27.578125 6.507812 27.246094 C 6.699219 26.914062 7.035156 26.75 7.503906 26.75 Z M 9.875 28.652344 C 9.875 29.082031 9.90625 29.410156 9.976562 29.632812 C 10.039062 29.859375 10.1875 29.96875 10.398438 29.96875 C 10.609375 29.96875 10.757812 29.859375 10.824219 29.632812 C 10.890625 29.410156 10.929688 29.082031 10.929688 28.652344 C 10.929688 28.210938 10.890625 27.886719 10.824219 27.671875 C 10.757812 27.457031 10.609375 27.347656 10.398438 27.347656 C 10.1875 27.347656 10.039062 27.457031 9.976562 27.671875 C 9.90625 27.886719 9.875 28.210938 9.875 28.652344 Z M 10.398438 26.75 C 10.867188 26.75 11.195312 26.914062 11.382812 27.246094 C 11.578125 27.578125 11.675781 28.046875 11.675781 28.652344 C 11.675781 29.265625 11.578125 29.742188 11.382812 30.074219 C 11.195312 30.394531 10.867188 30.554688 10.398438 30.554688 C 9.929688 30.554688 9.601562 30.394531 9.40625 30.074219 C 9.21875 29.742188 9.125 29.265625 9.125 28.652344 C 9.125 28.046875 9.21875 27.578125 9.40625 27.246094 C 9.601562 26.914062 9.929688 26.75 10.398438 26.75 Z M 3.167969 26.453125 "/>
<path fill-rule="nonzero" fill="rgb(0%, 0%, 0%)" fill-opacity="1" d="M 8.636719 31.011719 C 8.753906 31.011719 8.871094 31.039062 8.988281 31.085938 C 9.117188 31.136719 9.226562 31.214844 9.328125 31.332031 C 9.40625 31.4375 9.453125 31.554688 9.472656 31.699219 C 9.492188 31.789062 9.5 31.929688 9.5 32.109375 L 9.5 33.851562 L 8.753906 33.851562 L 8.753906 32.078125 C 8.753906 31.988281 8.742188 31.90625 8.710938 31.832031 C 8.640625 31.699219 8.519531 31.625 8.34375 31.625 C 8.148438 31.625 8.011719 31.714844 7.933594 31.875 C 7.894531 31.960938 7.875 32.074219 7.875 32.195312 L 7.875 33.851562 L 7.144531 33.851562 L 7.144531 32.195312 C 7.144531 32.035156 7.128906 31.917969 7.101562 31.84375 C 7.03125 31.714844 6.910156 31.640625 6.734375 31.640625 C 6.527344 31.640625 6.386719 31.714844 6.308594 31.84375 C 6.269531 31.917969 6.25 32.03125 6.25 32.183594 L 6.25 33.851562 L 5.515625 33.851562 L 5.515625 31.085938 L 6.21875 31.085938 L 6.21875 31.492188 C 6.320312 31.347656 6.40625 31.246094 6.484375 31.171875 C 6.621094 31.070312 6.800781 31.011719 7.027344 31.011719 C 7.242188 31.011719 7.414062 31.0625 7.539062 31.15625 C 7.648438 31.246094 7.730469 31.363281 7.789062 31.492188 C 7.875 31.332031 7.992188 31.210938 8.140625 31.128906 C 8.285156 31.054688 8.453125 31.011719 8.636719 31.011719 Z M 5.195312 29.839844 "/>
</svg>
