<?xml version="1.0" encoding="UTF-8"?>
<svg xmlns="http://www.w3.org/2000/svg" xmlns:xlink="http://www.w3.org/1999/xlink" width="16" height="27.767088" viewBox="0 0 16 27.767088">
<path fill-rule="evenodd" fill="rgb(0%, 0%, 0%)" fill-opacity="1" stroke-width="1.084" stroke-linecap="butt" stroke-linejoin="round" stroke="rgb(100%, 83.137256%, 0%)" stroke-opacity="1" stroke-miterlimit="4" d="M 0.541386 18.105192 L 10.681959 0.541386 L 20.780887 18.089575 Z M 0.541386 18.105192 " transform="matrix(0.750389, 0, 0, 0.750389, 0, 0)"/>
<path fill-rule="nonzero" fill="rgb(100%, 83.137256%, 0%)" fill-opacity="1" stroke-width="0.905708" stroke-linecap="butt" stroke-linejoin="miter" stroke="rgb(100%, 83.137256%, 0%)" stroke-opacity="1" stroke-miterlimit="3" d="M 2.337329 19.906341 L 18.984944 19.906341 L 18.984944 36.54875 L 2.337329 36.54875 Z M 2.337329 19.906341 " transform="matrix(0.750389, 0, 0, 0.750389, 0, 0)"/>
<path fill-rule="nonzero" fill="rgb(0%, 0%, 0%)" fill-opacity="1" d="M 2.886719 19.8125 C 2.886719 19.070312 3.097656 18.472656 3.519531 18.019531 C 3.949219 17.558594 4.507812 17.328125 5.195312 17.328125 C 6.253906 17.328125 6.972656 17.792969 7.367188 18.722656 C 7.582031 19.253906 7.695312 19.949219 7.695312 20.808594 C 7.695312 21.648438 7.589844 22.34375 7.378906 22.90625 C 6.96875 23.972656 6.222656 24.503906 5.136719 24.503906 C 4.613281 24.503906 4.144531 24.347656 3.730469 24.042969 C 3.316406 23.738281 3.082031 23.292969 3.027344 22.695312 L 4.375 22.695312 C 4.40625 22.902344 4.492188 23.070312 4.632812 23.199219 C 4.773438 23.328125 4.960938 23.386719 5.195312 23.386719 C 5.640625 23.386719 5.960938 23.140625 6.148438 22.636719 C 6.242188 22.363281 6.300781 21.964844 6.324219 21.441406 C 6.207031 21.601562 6.078125 21.71875 5.9375 21.804688 C 5.679688 21.953125 5.359375 22.027344 4.984375 22.027344 C 4.4375 22.027344 3.949219 21.839844 3.519531 21.464844 C 3.097656 21.085938 2.886719 20.53125 2.886719 19.8125 Z M 5.289062 20.925781 C 5.476562 20.925781 5.65625 20.875 5.820312 20.761719 C 6.125 20.566406 6.277344 20.222656 6.277344 19.730469 C 6.277344 19.339844 6.183594 19.03125 6.007812 18.804688 C 5.824219 18.578125 5.574219 18.464844 5.253906 18.464844 C 5.019531 18.464844 4.820312 18.527344 4.65625 18.652344 C 4.398438 18.855469 4.269531 19.203125 4.269531 19.695312 C 4.269531 20.101562 4.351562 20.410156 4.515625 20.621094 C 4.679688 20.828125 4.9375 20.925781 5.289062 20.925781 Z M 9.730469 20.902344 C 9.730469 21.699219 9.792969 22.308594 9.917969 22.730469 C 10.050781 23.152344 10.320312 23.363281 10.726562 23.363281 C 11.125 23.363281 11.386719 23.152344 11.515625 22.730469 C 11.644531 22.308594 11.714844 21.699219 11.714844 20.902344 C 11.714844 20.074219 11.644531 19.460938 11.515625 19.0625 C 11.386719 18.65625 11.125 18.453125 10.726562 18.453125 C 10.320312 18.453125 10.050781 18.65625 9.917969 19.0625 C 9.792969 19.460938 9.730469 20.074219 9.730469 20.902344 Z M 10.726562 17.328125 C 11.601562 17.328125 12.21875 17.640625 12.570312 18.265625 C 12.925781 18.882812 13.109375 19.761719 13.109375 20.902344 C 13.109375 22.050781 12.925781 22.9375 12.570312 23.550781 C 12.21875 24.171875 11.601562 24.476562 10.726562 24.476562 C 9.84375 24.476562 9.222656 24.171875 8.863281 23.550781 C 8.511719 22.9375 8.335938 22.050781 8.335938 20.902344 C 8.335938 19.761719 8.511719 18.882812 8.863281 18.265625 C 9.222656 17.640625 9.84375 17.328125 10.726562 17.328125 Z M 2.59375 16.773438 "/>
</svg>
