<?xml version="1.0" encoding="UTF-8"?>
<svg xmlns="http://www.w3.org/2000/svg" xmlns:xlink="http://www.w3.org/1999/xlink" width="16" height="27.767088" viewBox="0 0 16 27.767088">
<path fill-rule="evenodd" fill="rgb(0%, 0%, 0%)" fill-opacity="1" stroke-width="1.084" stroke-linecap="butt" stroke-linejoin="round" stroke="rgb(100%, 83.137256%, 0%)" stroke-opacity="1" stroke-miterlimit="4" d="M 0.541386 18.105192 L 10.681959 0.541386 L 20.780887 18.089575 Z M 0.541386 18.105192 " transform="matrix(0.750389, 0, 0, 0.750389, 0, 0)"/>
<path fill-rule="nonzero" fill="rgb(100%, 83.137256%, 0%)" fill-opacity="1" stroke-width="0.905708" stroke-linecap="butt" stroke-linejoin="miter" stroke="rgb(100%, 83.137256%, 0%)" stroke-opacity="1" stroke-miterlimit="3" d="M 2.337329 19.906341 L 18.984944 19.906341 L 18.984944 36.54875 L 2.337329 36.54875 Z M 2.337329 19.906341 " transform="matrix(0.750389, 0, 0, 0.750389, 0, 0)"/>
<path fill-rule="nonzero" fill="rgb(0%, 0%, 0%)" fill-opacity="1" d="M 2.261719 19.867188 L 2.261719 19.175781 C 2.589844 19.160156 2.8125 19.140625 2.941406 19.117188 C 3.140625 19.070312 3.308594 18.976562 3.445312 18.835938 C 3.527344 18.742188 3.597656 18.621094 3.644531 18.472656 C 3.667969 18.378906 3.679688 18.308594 3.679688 18.261719 L 4.535156 18.261719 L 4.535156 23.457031 L 3.492188 23.457031 L 3.492188 19.867188 Z M 6.074219 23.457031 C 6.078125 23.082031 6.160156 22.742188 6.308594 22.433594 C 6.453125 22.09375 6.800781 21.726562 7.339844 21.332031 C 7.808594 21 8.113281 20.757812 8.253906 20.605469 C 8.464844 20.378906 8.570312 20.132812 8.570312 19.867188 C 8.570312 19.652344 8.507812 19.464844 8.382812 19.316406 C 8.265625 19.171875 8.09375 19.09375 7.867188 19.09375 C 7.554688 19.09375 7.34375 19.210938 7.234375 19.445312 C 7.167969 19.582031 7.132812 19.792969 7.117188 20.078125 L 6.121094 20.078125 C 6.144531 19.640625 6.226562 19.289062 6.367188 19.011719 C 6.640625 18.496094 7.121094 18.238281 7.820312 18.238281 C 8.367188 18.238281 8.800781 18.390625 9.121094 18.695312 C 9.449219 19 9.613281 19.40625 9.613281 19.902344 C 9.613281 20.285156 9.5 20.625 9.273438 20.921875 C 9.125 21.128906 8.878906 21.351562 8.535156 21.589844 L 8.125 21.882812 C 7.867188 22.066406 7.691406 22.199219 7.597656 22.28125 C 7.503906 22.363281 7.425781 22.453125 7.363281 22.550781 L 9.625 22.550781 L 9.625 23.457031 Z M 11.203125 20.910156 C 11.203125 21.507812 11.25 21.964844 11.34375 22.28125 C 11.445312 22.597656 11.644531 22.753906 11.941406 22.753906 C 12.246094 22.753906 12.445312 22.597656 12.539062 22.28125 C 12.632812 21.964844 12.679688 21.507812 12.679688 20.910156 C 12.679688 20.285156 12.632812 19.828125 12.539062 19.527344 C 12.445312 19.222656 12.246094 19.070312 11.941406 19.070312 C 11.644531 19.070312 11.445312 19.222656 11.34375 19.527344 C 11.25 19.828125 11.203125 20.285156 11.203125 20.910156 Z M 11.941406 18.226562 C 12.605469 18.226562 13.070312 18.460938 13.335938 18.929688 C 13.601562 19.394531 13.734375 20.050781 13.734375 20.910156 C 13.734375 21.765625 13.601562 22.421875 13.335938 22.894531 C 13.070312 23.355469 12.605469 23.585938 11.941406 23.585938 C 11.285156 23.585938 10.820312 23.355469 10.558594 22.894531 C 10.292969 22.421875 10.160156 21.765625 10.160156 20.910156 C 10.160156 20.050781 10.292969 19.394531 10.558594 18.929688 C 10.820312 18.460938 11.285156 18.226562 11.941406 18.226562 Z M 1.753906 17.800781 "/>
</svg>
