<?xml version="1.0" encoding="UTF-8"?>
<svg xmlns="http://www.w3.org/2000/svg" xmlns:xlink="http://www.w3.org/1999/xlink" width="15" height="16.773959" viewBox="0 0 15 16.773959">
<path fill-rule="evenodd" fill="rgb(10.588235%, 10.588235%, 10.588235%)" fill-opacity="1" d="M 15 16.140625 L 15 1.933594 C 15 -0.203125 12.695312 -0.0390625 11.921875 0.0390625 C -0.175781 1.226562 0.0078125 9.488281 0.0078125 15.914062 C -0.0195312 16.453125 -0.0351562 16.777344 0.675781 16.777344 L 14.214844 16.777344 C 14.769531 16.777344 15 16.636719 15 16.140625 Z M 15 16.140625 "/>
<path fill-rule="evenodd" fill="rgb(6.27451%, 6.27451%, 6.27451%)" fill-opacity="1" d="M 14.132812 12.09375 C 14.132812 13.515625 12.976562 14.679688 11.546875 14.679688 C 10.113281 14.679688 8.957031 13.515625 8.957031 12.09375 C 8.957031 10.660156 10.113281 9.5 11.546875 9.5 C 12.976562 9.5 14.132812 10.660156 14.132812 12.09375 Z M 14.132812 12.09375 "/>
<path fill-rule="evenodd" fill="rgb(6.27451%, 6.27451%, 6.27451%)" fill-opacity="1" d="M 5.921875 12.09375 C 5.921875 13.515625 4.765625 14.679688 3.332031 14.679688 C 1.90625 14.679688 0.742188 13.515625 0.742188 12.09375 C 0.742188 10.660156 1.90625 9.5 3.332031 9.5 C 4.765625 9.5 5.921875 10.660156 5.921875 12.09375 Z M 5.921875 12.09375 "/>
<path fill-rule="evenodd" fill="rgb(19.215686%, 19.215686%, 19.215686%)" fill-opacity="1" stroke-width="0.379601" stroke-linecap="round" stroke-linejoin="miter" stroke="rgb(0%, 0%, 0%)" stroke-opacity="1" stroke-miterlimit="4" d="M 374.607289 236.285258 C 374.607289 241.138824 370.670507 245.075606 365.81694 245.075606 C 360.963374 245.075606 357.026592 241.138824 357.026592 236.285258 C 357.026592 231.413715 360.963374 227.458957 365.81694 227.458957 C 370.670507 227.458957 374.607289 231.413715 374.607289 236.285258 Z M 374.607289 236.285258 " transform="matrix(0.217302, 0, 0, 0.217302, -76.156646, -39.251399)"/>
<path fill-rule="evenodd" fill="rgb(6.27451%, 6.27451%, 6.27451%)" fill-opacity="1" d="M 8.167969 5.972656 C 8.167969 7.402344 7.003906 8.558594 5.578125 8.558594 C 4.148438 8.558594 2.988281 7.402344 2.988281 5.972656 C 2.988281 4.539062 4.148438 3.378906 5.578125 3.378906 C 7.003906 3.378906 8.167969 4.539062 8.167969 5.972656 Z M 8.167969 5.972656 "/>
<path fill-rule="evenodd" fill="rgb(6.27451%, 6.27451%, 6.27451%)" fill-opacity="1" d="M 14.113281 3.597656 C 14.113281 5.019531 12.953125 6.179688 11.519531 6.179688 C 10.089844 6.179688 8.933594 5.019531 8.933594 3.597656 C 8.933594 2.164062 10.089844 1.003906 11.519531 1.003906 C 12.953125 1.003906 14.113281 2.164062 14.113281 3.597656 Z M 14.113281 3.597656 "/>
<path fill-rule="evenodd" fill="rgb(19.215686%, 19.215686%, 19.215686%)" fill-opacity="1" stroke-width="0.379601" stroke-linecap="round" stroke-linejoin="miter" stroke="rgb(0%, 0%, 0%)" stroke-opacity="1" stroke-miterlimit="4" d="M 374.606573 236.284985 C 374.606573 241.138551 370.669791 245.075333 365.798248 245.075333 C 360.944682 245.075333 357.0079 241.138551 357.0079 236.284985 C 357.0079 231.395466 360.944682 227.458684 365.798248 227.458684 C 370.669791 227.458684 374.606573 231.395466 374.606573 236.284985 Z M 374.606573 236.284985 " transform="matrix(0.217302, 0, 0, 0.217302, -67.972896, -47.75134)"/>
<path fill-rule="evenodd" fill="rgb(100%, 100%, 100%)" fill-opacity="1" stroke-width="0.379601" stroke-linecap="round" stroke-linejoin="miter" stroke="rgb(0%, 0%, 0%)" stroke-opacity="1" stroke-miterlimit="4" d="M 374.631069 236.272005 C 374.631069 241.125572 370.676311 245.062354 365.822744 245.062354 C 360.951201 245.062354 357.014419 241.125572 357.014419 236.272005 C 357.014419 231.400462 360.951201 227.481656 365.822744 227.481656 C 370.676311 227.481656 374.631069 231.400462 374.631069 236.272005 Z M 374.631069 236.272005 " transform="matrix(0.217302, 0, 0, 0.217302, -73.876657, -45.369613)"/>
<path fill-rule="evenodd" fill="rgb(100%, 100%, 100%)" fill-opacity="1" stroke-width="0.379601" stroke-linecap="round" stroke-linejoin="miter" stroke="rgb(0%, 0%, 0%)" stroke-opacity="1" stroke-miterlimit="4" d="M 374.614509 236.274588 C 374.614509 241.128155 370.677727 245.082913 365.824161 245.082913 C 360.952618 245.082913 357.033812 241.128155 357.033812 236.274588 C 357.033812 231.403045 360.952618 227.466263 365.824161 227.466263 C 370.677727 227.466263 374.614509 231.403045 374.614509 236.274588 Z M 374.614509 236.274588 " transform="matrix(0.217302, 0, 0, 0.217302, -67.89259, -39.280331)"/>
</svg>
