<?xml version="1.0" encoding="UTF-8"?>
<svg xmlns="http://www.w3.org/2000/svg" xmlns:xlink="http://www.w3.org/1999/xlink" width="17" height="24.620857" viewBox="0 0 17 24.620857">
<path fill-rule="evenodd" fill="rgb(10.588235%, 10.588235%, 10.588235%)" fill-opacity="1" d="M 17 23.980469 L 17 3.769531 C 17 1.613281 14.675781 1.777344 13.894531 1.859375 C 1.683594 3.054688 1.8125 7.804688 1.871094 23.753906 C 1.84375 24.292969 1.828125 24.621094 2.542969 24.621094 L 16.207031 24.621094 C 16.769531 24.621094 17 24.480469 17 23.980469 Z M 17 23.980469 "/>
<path fill-rule="evenodd" fill="rgb(6.27451%, 6.27451%, 6.27451%)" fill-opacity="1" d="M 16.125 14.023438 C 16.125 15.460938 14.957031 16.632812 13.515625 16.632812 C 12.070312 16.632812 10.902344 15.460938 10.902344 14.023438 C 10.902344 12.574219 12.070312 11.40625 13.515625 11.40625 C 14.957031 11.40625 16.125 12.574219 16.125 14.023438 Z M 16.125 14.023438 "/>
<path fill-rule="evenodd" fill="rgb(6.27451%, 6.27451%, 6.27451%)" fill-opacity="1" d="M 7.839844 14.023438 C 7.839844 15.460938 6.671875 16.632812 5.222656 16.632812 C 3.785156 16.632812 2.613281 15.460938 2.613281 14.023438 C 2.613281 12.574219 3.785156 11.40625 5.222656 11.40625 C 6.671875 11.40625 7.839844 12.574219 7.839844 14.023438 Z M 7.839844 14.023438 "/>
<path fill-rule="evenodd" fill="rgb(19.215686%, 19.215686%, 19.215686%)" fill-opacity="1" stroke-width="0.0714895" stroke-linecap="round" stroke-linejoin="miter" stroke="rgb(0%, 0%, 0%)" stroke-opacity="1" stroke-miterlimit="4" d="M 6.145792 12.043336 C 6.145792 12.955812 5.404405 13.697198 4.488575 13.697198 C 3.576099 13.697198 2.834713 12.955812 2.834713 12.043336 C 2.834713 11.124151 3.576099 10.382764 4.488575 10.382764 C 5.404405 10.382764 6.145792 11.124151 6.145792 12.043336 Z M 6.145792 12.043336 " transform="matrix(1.164415, 0, 0, 1.164415, 0, 0.000000804141)"/>
<path fill-rule="evenodd" fill="rgb(6.27451%, 6.27451%, 6.27451%)" fill-opacity="1" d="M 7.839844 20.679688 C 7.839844 22.117188 6.671875 23.289062 5.222656 23.289062 C 3.785156 23.289062 2.613281 22.117188 2.613281 20.679688 C 2.613281 19.234375 3.785156 18.0625 5.222656 18.0625 C 6.671875 18.0625 7.839844 19.234375 7.839844 20.679688 Z M 7.839844 20.679688 "/>
<path fill-rule="evenodd" fill="rgb(0%, 98.039216%, 19.607843%)" fill-opacity="1" stroke-width="0.0714895" stroke-linecap="round" stroke-linejoin="miter" stroke="rgb(0%, 0%, 0%)" stroke-opacity="1" stroke-miterlimit="4" d="M 6.145792 17.759727 C 6.145792 18.672203 5.404405 19.41359 4.488575 19.41359 C 3.576099 19.41359 2.834713 18.672203 2.834713 17.759727 C 2.834713 16.840542 3.576099 16.099156 4.488575 16.099156 C 5.404405 16.099156 6.145792 16.840542 6.145792 17.759727 Z M 6.145792 17.759727 " transform="matrix(1.164415, 0, 0, 1.164415, 0, 0.000000804141)"/>
<path fill-rule="evenodd" fill="rgb(6.27451%, 6.27451%, 6.27451%)" fill-opacity="1" d="M 10.105469 7.84375 C 10.105469 9.285156 8.929688 10.457031 7.492188 10.457031 C 6.046875 10.457031 4.878906 9.285156 4.878906 7.84375 C 4.878906 6.398438 6.046875 5.230469 7.492188 5.230469 C 8.929688 5.230469 10.105469 6.398438 10.105469 7.84375 Z M 10.105469 7.84375 "/>
<path fill-rule="evenodd" fill="rgb(6.27451%, 6.27451%, 6.27451%)" fill-opacity="1" d="M 16.105469 5.449219 C 16.105469 6.886719 14.933594 8.054688 13.488281 8.054688 C 12.046875 8.054688 10.878906 6.886719 10.878906 5.449219 C 10.878906 4 12.046875 2.832031 13.488281 2.832031 C 14.933594 2.832031 16.105469 4 16.105469 5.449219 Z M 16.105469 5.449219 "/>
<path fill-rule="evenodd" fill="rgb(100%, 100%, 100%)" fill-opacity="1" stroke-width="0.0714895" stroke-linecap="round" stroke-linejoin="miter" stroke="rgb(0%, 0%, 0%)" stroke-opacity="1" stroke-miterlimit="4" d="M 13.240961 4.673082 C 13.240961 5.588913 12.499574 6.330299 11.580389 6.330299 C 10.664559 6.330299 9.923173 5.588913 9.923173 4.673082 C 9.923173 3.757252 10.664559 3.015866 11.580389 3.015866 C 12.499574 3.015866 13.240961 3.757252 13.240961 4.673082 Z M 13.240961 4.673082 " transform="matrix(1.164415, 0, 0, 1.164415, 0, 0.000000804141)"/>
<path fill-rule="evenodd" fill="rgb(19.215686%, 19.215686%, 19.215686%)" fill-opacity="1" stroke-width="0.0714895" stroke-linecap="round" stroke-linejoin="miter" stroke="rgb(0%, 0%, 0%)" stroke-opacity="1" stroke-miterlimit="4" d="M 8.128414 6.736217 C 8.128414 7.652047 7.380318 8.393433 6.467842 8.393433 C 5.548657 8.393433 4.810625 7.652047 4.810625 6.736217 C 4.810625 5.820386 5.548657 5.082354 6.467842 5.082354 C 7.380318 5.082354 8.128414 5.820386 8.128414 6.736217 Z M 8.128414 6.736217 " transform="matrix(1.164415, 0, 0, 1.164415, 0, 0.000000804141)"/>
<path fill-rule="evenodd" fill="rgb(6.27451%, 6.27451%, 6.27451%)" fill-opacity="1" d="M 5.226562 2.617188 C 5.226562 4.058594 4.050781 5.226562 2.617188 5.226562 C 1.167969 5.226562 0 4.058594 0 2.617188 C 0 1.167969 1.167969 0 2.617188 0 C 4.050781 0 5.226562 1.167969 5.226562 2.617188 Z M 5.226562 2.617188 "/>
<path fill-rule="evenodd" fill="rgb(19.215686%, 19.215686%, 19.215686%)" fill-opacity="1" stroke-width="0.0714895" stroke-linecap="round" stroke-linejoin="miter" stroke="rgb(0%, 0%, 0%)" stroke-opacity="1" stroke-miterlimit="4" d="M 3.938406 2.247642 C 3.938406 3.160117 3.19031 3.901504 2.277834 3.901504 C 1.358649 3.901504 0.620618 3.160117 0.620618 2.247642 C 0.620618 1.328456 1.358649 0.590425 2.277834 0.590425 C 3.19031 0.590425 3.938406 1.328456 3.938406 2.247642 Z M 3.938406 2.247642 " transform="matrix(1.164415, 0, 0, 1.164415, 0, 0.000000804141)"/>
<path fill-rule="evenodd" fill="rgb(100%, 100%, 100%)" fill-opacity="1" stroke-width="0.0714895" stroke-linecap="round" stroke-linejoin="miter" stroke="rgb(0%, 0%, 0%)" stroke-opacity="1" stroke-miterlimit="4" d="M 13.311409 12.013144 C 13.311409 12.928974 12.566668 13.673715 11.654193 13.673715 C 10.735008 13.673715 9.996976 12.928974 9.996976 12.013144 C 9.996976 11.097313 10.735008 10.359282 11.654193 10.359282 C 12.566668 10.359282 13.311409 11.097313 13.311409 12.013144 Z M 13.311409 12.013144 " transform="matrix(1.164415, 0, 0, 1.164415, 0, 0.000000804141)"/>
<path fill-rule="evenodd" fill="rgb(6.27451%, 6.27451%, 6.27451%)" fill-opacity="1" d="M 16.183594 20.679688 C 16.183594 22.117188 15.015625 23.289062 13.566406 23.289062 C 12.128906 23.289062 10.957031 22.117188 10.957031 20.679688 C 10.957031 19.234375 12.128906 18.0625 13.566406 18.0625 C 15.015625 18.0625 16.183594 19.234375 16.183594 20.679688 Z M 16.183594 20.679688 "/>
<path fill-rule="evenodd" fill="rgb(19.215686%, 19.215686%, 19.215686%)" fill-opacity="1" stroke-width="0.0714895" stroke-linecap="round" stroke-linejoin="miter" stroke="rgb(0%, 0%, 0%)" stroke-opacity="1" stroke-miterlimit="4" d="M 13.311409 17.759727 C 13.311409 18.672203 12.570023 19.41359 11.657547 19.41359 C 10.741717 19.41359 10.000331 18.672203 10.000331 17.759727 C 10.000331 16.840542 10.741717 16.099156 11.657547 16.099156 C 12.570023 16.099156 13.311409 16.840542 13.311409 17.759727 Z M 13.311409 17.759727 " transform="matrix(1.164415, 0, 0, 1.164415, 0, 0.000000804141)"/>
</svg>
