<?xml version="1.0" encoding="UTF-8"?>
<svg xmlns="http://www.w3.org/2000/svg" xmlns:xlink="http://www.w3.org/1999/xlink" width="14" height="14" viewBox="0 0 14 14">
<path fill="none" stroke-width="3" stroke-linecap="round" stroke-linejoin="round" stroke="rgb(0%, 0%, 0%)" stroke-opacity="1" stroke-miterlimit="4" d="M 18.63876 10.069538 C 18.63876 14.800872 14.800872 18.63876 10.069538 18.63876 C 5.338204 18.63876 1.500316 14.800872 1.500316 10.069538 C 1.500316 5.338204 5.338204 1.500316 10.069538 1.500316 C 14.800872 1.500316 18.63876 5.338204 18.63876 10.069538 Z M 18.63876 10.069538 " transform="matrix(0.695166, 0, 0, 0.695166, 0, 0)"/>
<path fill-rule="nonzero" fill="rgb(100%, 0%, 0%)" fill-opacity="1" d="M 12.957031 7 C 12.957031 10.289062 10.289062 12.957031 7 12.957031 C 3.710938 12.957031 1.042969 10.289062 1.042969 7 C 1.042969 3.710938 3.710938 1.042969 7 1.042969 C 10.289062 1.042969 12.957031 3.710938 12.957031 7 Z M 12.957031 7 "/>
</svg>
