<?xml version="1.0" encoding="UTF-8"?>
<svg xmlns="http://www.w3.org/2000/svg" xmlns:xlink="http://www.w3.org/1999/xlink" width="10" height="10" viewBox="0 0 10 10">
<path fill-rule="nonzero" fill="rgb(3.137255%, 0%, 0%)" fill-opacity="1" stroke-width="0.6" stroke-linecap="butt" stroke-linejoin="miter" stroke="rgb(84.313725%, 84.313725%, 84.313725%)" stroke-opacity="1" stroke-miterlimit="4" d="M 9.527156 4.91328 C 9.527156 7.462043 7.462043 9.527156 4.91328 9.527156 C 2.364516 9.527156 0.299403 7.462043 0.299403 4.91328 C 0.299403 2.364516 2.364516 0.299403 4.91328 0.299403 C 7.462043 0.299403 9.527156 2.364516 9.527156 4.91328 Z M 9.527156 4.91328 " transform="matrix(1.01765, 0, 0, 1.01765, 0, 0)"/>
<path fill-rule="evenodd" fill="rgb(100%, 0%, 0%)" fill-opacity="1" stroke-width="0.090744" stroke-linecap="butt" stroke-linejoin="miter" stroke="rgb(5.490196%, 5.490196%, 5.490196%)" stroke-opacity="1" stroke-miterlimit="4" d="M 6.85556 4.909441 C 6.85556 5.984221 5.984221 6.85556 4.909441 6.85556 C 3.842338 6.85556 2.970999 5.984221 2.970999 4.909441 C 2.970999 3.842338 3.842338 2.970999 4.909441 2.970999 C 5.984221 2.970999 6.85556 3.842338 6.85556 4.909441 Z M 6.85556 4.909441 " transform="matrix(1.01765, 0, 0, 1.01765, 0, 0)"/>
</svg>
