<?xml version="1.0" encoding="UTF-8"?>
<svg xmlns="http://www.w3.org/2000/svg" xmlns:xlink="http://www.w3.org/1999/xlink" width="14" height="28.088914" viewBox="0 0 14 28.088914">
<path fill="none" stroke-width="7" stroke-linecap="round" stroke-linejoin="round" stroke="rgb(0%, 0%, 0%)" stroke-opacity="1" stroke-miterlimit="4" d="M 10.358552 6.928901 C 10.358552 8.823522 8.823522 10.358552 6.928901 10.358552 C 5.034279 10.358552 3.49925 8.823522 3.49925 6.928901 C 3.49925 5.034279 5.034279 3.49925 6.928901 3.49925 C 8.823522 3.49925 10.358552 5.034279 10.358552 6.928901 Z M 10.358552 6.928901 " transform="matrix(1.010261, 0, 0, 1.010261, 0, 0)"/>
<path fill-rule="nonzero" fill="rgb(100%, 0%, 0%)" fill-opacity="1" d="M 10.464844 7 C 10.464844 8.914062 8.914062 10.464844 7 10.464844 C 5.085938 10.464844 3.535156 8.914062 3.535156 7 C 3.535156 5.085938 5.085938 3.535156 7 3.535156 C 8.914062 3.535156 10.464844 5.085938 10.464844 7 Z M 10.464844 7 "/>
<path fill-rule="nonzero" fill="rgb(100%, 83.137255%, 0%)" fill-opacity="1" stroke-width="0.679633" stroke-linecap="butt" stroke-linejoin="miter" stroke="rgb(100%, 83.137255%, 0%)" stroke-opacity="1" stroke-miterlimit="3" d="M 0.684384 14.975241 L 13.173418 14.975241 L 13.173418 27.464276 L 0.684384 27.464276 Z M 0.684384 14.975241 " transform="matrix(1.010261, 0, 0, 1.010261, 0, 0)"/>
<path fill-rule="nonzero" fill="rgb(0%, 0%, 0%)" fill-opacity="1" d="M 9.144531 16.589844 L 11.25 16.589844 L 7.941406 26.285156 L 6.027344 26.285156 L 2.75 16.589844 L 4.914062 16.589844 L 7.019531 23.949219 Z M 9.144531 16.589844 "/>
</svg>
