<?xml version="1.0" encoding="UTF-8"?>
<svg xmlns="http://www.w3.org/2000/svg" xmlns:xlink="http://www.w3.org/1999/xlink" width="16" height="15.041536" viewBox="0 0 16 15.041536">
<path fill-rule="evenodd" fill="rgb(16.862745%, 16.862745%, 16.862745%)" fill-opacity="1" stroke-width="5" stroke-linecap="butt" stroke-linejoin="miter" stroke="rgb(91.372549%, 73.72549%, 0%)" stroke-opacity="1" stroke-miterlimit="4" d="M 271.050524 503.453401 C 269.753171 505.748719 258.076988 526.15709 255.315953 530.897421 C 252.571551 535.621119 247.448667 538.797972 241.57731 538.797972 C 235.789117 538.797972 230.716131 535.704282 227.955096 531.063748 C 225.177429 526.439847 213.484613 505.931679 212.120728 503.603095 C 210.756844 501.257879 209.975105 498.53011 209.975105 495.636013 C 209.975105 486.870559 217.093917 479.751747 225.859371 479.751747 L 257.228718 479.751747 C 265.994171 479.751747 273.112984 486.870559 273.112984 495.636013 C 273.112984 498.480211 272.364511 501.14145 271.050524 503.453401 Z M 271.050524 503.453401 " transform="matrix(0.234853, 0, 0, 0.234853, -48.727362, -112.085235)"/>
<path fill-rule="evenodd" fill="rgb(87.843137%, 36.862745%, 2.352941%)" fill-opacity="1" stroke-width="0.0373722" stroke-linecap="butt" stroke-linejoin="miter" stroke="rgb(0%, 0%, 0%)" stroke-opacity="1" stroke-miterlimit="4" d="M 239.976445 104.580632 C 239.976445 106.043578 238.788415 107.231607 237.32056 107.231607 C 235.857615 107.231607 234.669585 106.043578 234.669585 104.580632 C 234.669585 103.112777 235.857615 101.924747 237.32056 101.924747 C 238.788415 101.924747 239.976445 103.112777 239.976445 104.580632 Z M 239.976445 104.580632 " transform="matrix(0.795698, 0, 0, 0.795698, -184.534645, -79.034882)"/>
<path fill-rule="evenodd" fill="rgb(87.843137%, 36.862745%, 2.352941%)" fill-opacity="1" stroke-width="0.0373722" stroke-linecap="butt" stroke-linejoin="miter" stroke="rgb(0%, 0%, 0%)" stroke-opacity="1" stroke-miterlimit="4" d="M 239.973888 104.579606 C 239.973888 106.042552 238.785859 107.230581 237.322913 107.230581 C 235.859967 107.230581 234.671938 106.042552 234.671938 104.579606 C 234.671938 103.111751 235.859967 101.928631 237.322913 101.928631 C 238.785859 101.928631 239.973888 103.111751 239.973888 104.579606 Z M 239.973888 104.579606 " transform="matrix(0.795698, 0, 0, 0.795698, -176.903704, -79.01844)"/>
<path fill-rule="evenodd" fill="rgb(87.843137%, 36.862745%, 2.352941%)" fill-opacity="1" stroke-width="0.0373722" stroke-linecap="butt" stroke-linejoin="miter" stroke="rgb(0%, 0%, 0%)" stroke-opacity="1" stroke-miterlimit="4" d="M 239.973684 104.576876 C 239.973684 106.044731 238.785654 107.227851 237.322708 107.227851 C 235.859763 107.227851 234.671733 106.044731 234.671733 104.576876 C 234.671733 103.11393 235.859763 101.9259 237.322708 101.9259 C 238.785654 101.9259 239.973684 103.11393 239.973684 104.576876 Z M 239.973684 104.576876 " transform="matrix(0.795698, 0, 0, 0.795698, -180.837135, -72.527986)"/>
</svg>
