<?xml version="1.0" encoding="UTF-8"?>
<svg xmlns="http://www.w3.org/2000/svg" xmlns:xlink="http://www.w3.org/1999/xlink" width="16" height="16" viewBox="0 0 16 16">
<rect x="-1.6" y="-1.6" width="19.2" height="19.2" fill="rgb(0%, 0%, 0%)" fill-opacity="1"/>
<path fill="none" stroke-width="3.93508" stroke-linecap="butt" stroke-linejoin="miter" stroke="rgb(100%, 100%, 100%)" stroke-opacity="1" stroke-miterlimit="4" d="M 2.96875 2.96875 L 61.03125 2.96875 L 61.03125 61.03125 L 2.96875 61.03125 Z M 2.96875 2.96875 " transform="matrix(0.25, 0, 0, 0.25, 0, 0)"/>
<path fill-rule="nonzero" fill="rgb(100%, 100%, 100%)" fill-opacity="1" d="M 10.480469 3.015625 C 10.414062 2.640625 8.394531 1.542969 8.394531 1.785156 L 8.394531 14.214844 C 8.394531 14.472656 10.695312 13.207031 10.464844 12.921875 C 9.429688 11.625 9.171875 9.8125 9.171875 8 C 9.171875 6.1875 9.429688 4.375 10.464844 3.078125 C 10.480469 3.0625 10.484375 3.039062 10.480469 3.015625 M 5.519531 3.015625 C 5.585938 2.640625 7.605469 1.542969 7.605469 1.785156 L 7.605469 14.214844 C 7.605469 14.472656 5.304688 13.207031 5.535156 12.921875 C 6.570312 11.625 6.828125 9.8125 6.828125 8 C 6.828125 6.1875 6.570312 4.375 5.535156 3.078125 C 5.519531 3.0625 5.515625 3.039062 5.519531 3.015625 "/>
</svg>
