<?xml version="1.0" encoding="UTF-8"?>
<svg xmlns="http://www.w3.org/2000/svg" xmlns:xlink="http://www.w3.org/1999/xlink" width="16" height="8.447201" viewBox="0 0 16 8.447201">
<path fill-rule="nonzero" fill="rgb(10.980392%, 0%, 49.803922%)" fill-opacity="1" stroke-width="0.246187" stroke-linecap="round" stroke-linejoin="round" stroke="rgb(0%, 0%, 0%)" stroke-opacity="1" stroke-miterlimit="4" d="M 4.223711 0.121124 C 3.926762 0.121124 3.629813 0.234434 3.399286 0.46496 L 0.46496 3.399286 C 0.246155 3.618091 0.121124 3.918948 0.121124 4.223711 C 0.121124 4.532382 0.246155 4.829331 0.46496 5.048136 L 3.399286 7.982462 C 3.618091 8.201267 3.918948 8.326298 4.223711 8.326298 C 4.532382 8.326298 4.829331 8.201267 5.048136 7.982462 L 7.982462 5.048136 C 7.990277 5.040321 7.994184 5.032507 8.001999 5.024692 C 8.009813 5.032507 8.01372 5.040321 8.021535 5.048136 L 10.955861 7.982462 C 11.174666 8.201267 11.471615 8.326298 11.780286 8.326298 C 12.08505 8.326298 12.385906 8.201267 12.604711 7.982462 L 15.539037 5.048136 C 15.757842 4.829331 15.882873 4.532382 15.882873 4.223711 C 15.882873 3.918948 15.757842 3.618091 15.539037 3.399286 L 12.604711 0.46496 C 12.385906 0.242248 12.08505 0.121124 11.780286 0.121124 C 11.471615 0.121124 11.174666 0.242248 10.955861 0.46496 L 8.021535 3.399286 C 8.01372 3.407101 8.009813 3.418823 8.001999 3.42273 C 7.994184 3.418823 7.990277 3.407101 7.982462 3.399286 L 5.048136 0.46496 C 4.829331 0.242248 4.532382 0.121124 4.223711 0.121124 " transform="matrix(0.99975, 0, 0, 0.99975, 0, 0)"/>
<path fill-rule="nonzero" fill="rgb(100%, 100%, 100%)" fill-opacity="1" d="M 0.355469 3.90625 L 15.601562 3.90625 C 15.671875 3.90625 15.726562 3.964844 15.726562 4.03125 L 15.726562 4.417969 C 15.726562 4.484375 15.671875 4.539062 15.601562 4.539062 L 0.355469 4.539062 C 0.289062 4.539062 0.230469 4.484375 0.230469 4.417969 L 0.230469 4.03125 C 0.230469 3.964844 0.289062 3.90625 0.355469 3.90625 Z M 0.355469 3.90625 "/>
</svg>
