<?xml version="1.0" encoding="UTF-8"?>
<svg xmlns="http://www.w3.org/2000/svg" xmlns:xlink="http://www.w3.org/1999/xlink" width="16" height="16" viewBox="0 0 16 16">
<rect x="-1.6" y="-1.6" width="19.2" height="19.2" fill="rgb(0%, 0%, 0%)" fill-opacity="1"/>
<path fill="none" stroke-width="3.93508" stroke-linecap="butt" stroke-linejoin="miter" stroke="rgb(100%, 100%, 100%)" stroke-opacity="1" stroke-miterlimit="4" d="M 2.96875 2.96875 L 61.03125 2.96875 L 61.03125 61.03125 L 2.96875 61.03125 Z M 2.96875 2.96875 " transform="matrix(0.25, 0, 0, 0.25, 0, 0)"/>
<path fill-rule="nonzero" fill="rgb(100%, 100%, 100%)" fill-opacity="1" d="M 12.894531 4.929688 C 9.222656 4.929688 9.945312 1.75 8 1.75 C 6.054688 1.75 6.777344 4.929688 3.105469 4.929688 L 3.105469 11.070312 C 6.777344 11.070312 6.054688 14.25 8 14.25 C 9.945312 14.25 9.222656 11.070312 12.894531 11.070312 Z M 12.894531 4.929688 "/>
<path fill-rule="nonzero" fill="rgb(0%, 0%, 0%)" fill-opacity="1" d="M 4.671875 5.601562 L 4.671875 10.398438 L 11.328125 10.398438 L 11.328125 5.601562 L 9.730469 5.601562 L 9.730469 8.800781 L 6.269531 8.800781 L 6.269531 5.601562 Z M 4.671875 5.601562 "/>
</svg>
