<?xml version="1.0" encoding="UTF-8"?>
<svg xmlns="http://www.w3.org/2000/svg" xmlns:xlink="http://www.w3.org/1999/xlink" width="24" height="24" viewBox="0 0 24 24">
<rect x="-2.4" y="-2.4" width="28.8" height="28.8" fill="rgb(100%, 100%, 100%)" fill-opacity="1"/>
<path fill="none" stroke-width="3.97394" stroke-linecap="butt" stroke-linejoin="miter" stroke="rgb(0%, 0%, 0%)" stroke-opacity="1" stroke-miterlimit="4" d="M -39.278418 -2.168417 L 18.742415 -2.168417 L 18.742415 55.852417 L -39.278418 55.852417 Z M -39.278418 -2.168417 " transform="matrix(0.375, 0, 0, 0.375, 15.850501, 1.93425)"/>
<path fill-rule="nonzero" fill="rgb(0%, 0%, 0%)" fill-opacity="1" d="M 7.097656 6.824219 C 7.097656 6.609375 7.050781 6.398438 6.960938 6.1875 C 6.863281 5.988281 6.738281 5.804688 6.582031 5.640625 C 6.417969 5.476562 6.230469 5.351562 6.027344 5.261719 C 5.820312 5.167969 5.609375 5.121094 5.394531 5.125 C 5.179688 5.125 4.972656 5.167969 4.765625 5.261719 C 4.558594 5.355469 4.375 5.480469 4.214844 5.640625 C 4.054688 5.804688 3.925781 5.988281 3.832031 6.1875 C 3.734375 6.394531 3.691406 6.605469 3.695312 6.824219 C 3.695312 7.039062 3.738281 7.25 3.832031 7.453125 C 3.925781 7.660156 4.054688 7.84375 4.214844 8.003906 C 4.375 8.164062 4.558594 8.292969 4.765625 8.382812 C 4.96875 8.480469 5.179688 8.527344 5.394531 8.527344 C 5.484375 8.527344 5.570312 8.546875 5.652344 8.585938 C 5.738281 8.621094 5.8125 8.675781 5.882812 8.746094 C 5.949219 8.8125 6 8.890625 6.039062 8.972656 C 6.074219 9.0625 6.097656 9.148438 6.101562 9.230469 C 6.101562 9.320312 6.078125 9.402344 6.039062 9.484375 C 6 9.570312 5.949219 9.648438 5.882812 9.710938 C 5.8125 9.78125 5.738281 9.835938 5.652344 9.875 C 5.566406 9.910156 5.480469 9.933594 5.394531 9.9375 C 5.308594 9.9375 5.222656 9.914062 5.144531 9.875 C 5.054688 9.835938 4.980469 9.78125 4.914062 9.710938 C 4.84375 9.648438 4.789062 9.570312 4.746094 9.484375 C 4.710938 9.398438 4.691406 9.316406 4.691406 9.230469 L 3.636719 9.230469 C 3.636719 9.445312 3.683594 9.65625 3.78125 9.867188 C 3.878906 10.078125 4.015625 10.269531 4.1875 10.441406 C 4.355469 10.613281 4.542969 10.746094 4.753906 10.84375 C 4.964844 10.941406 5.179688 10.992188 5.394531 10.992188 C 5.609375 10.992188 5.820312 10.941406 6.03125 10.84375 C 6.242188 10.742188 6.433594 10.609375 6.609375 10.441406 C 6.777344 10.273438 6.910156 10.082031 7.003906 9.867188 C 7.105469 9.65625 7.15625 9.445312 7.15625 9.230469 C 7.15625 9.019531 7.105469 8.804688 7.003906 8.589844 C 6.90625 8.378906 6.773438 8.1875 6.609375 8.015625 C 6.4375 7.847656 6.246094 7.714844 6.03125 7.617188 C 5.820312 7.515625 5.609375 7.46875 5.394531 7.472656 C 5.21875 7.472656 5.070312 7.40625 4.941406 7.277344 C 4.8125 7.152344 4.746094 7 4.746094 6.824219 C 4.746094 6.648438 4.8125 6.496094 4.941406 6.367188 C 5.070312 6.242188 5.21875 6.175781 5.394531 6.175781 C 5.570312 6.175781 5.722656 6.242188 5.855469 6.367188 C 5.980469 6.496094 6.042969 6.648438 6.039062 6.824219 Z M 9.175781 7.511719 L 9.175781 6.179688 L 11.640625 6.179688 L 11.640625 5.125 L 8.117188 5.125 L 8.117188 10.992188 L 11.640625 10.992188 L 11.640625 9.9375 L 9.179688 9.9375 L 9.179688 8.566406 L 10.230469 8.566406 L 10.230469 7.511719 Z M 15.835938 9.230469 L 14.78125 9.230469 C 14.78125 9.320312 14.761719 9.402344 14.71875 9.484375 C 14.679688 9.570312 14.628906 9.648438 14.5625 9.710938 C 14.496094 9.78125 14.417969 9.835938 14.335938 9.875 C 14.246094 9.910156 14.160156 9.933594 14.078125 9.9375 C 13.988281 9.9375 13.90625 9.914062 13.824219 9.875 C 13.738281 9.835938 13.660156 9.78125 13.59375 9.710938 C 13.527344 9.648438 13.472656 9.570312 13.429688 9.484375 C 13.390625 9.398438 13.371094 9.316406 13.371094 9.230469 L 13.371094 6.882812 C 13.371094 6.792969 13.390625 6.707031 13.429688 6.625 C 13.46875 6.539062 13.523438 6.464844 13.59375 6.394531 C 13.660156 6.332031 13.738281 6.277344 13.824219 6.242188 C 13.910156 6.203125 13.992188 6.179688 14.078125 6.175781 C 14.164062 6.175781 14.25 6.199219 14.335938 6.242188 C 14.417969 6.277344 14.496094 6.332031 14.5625 6.394531 C 14.628906 6.464844 14.679688 6.539062 14.71875 6.625 C 14.757812 6.710938 14.777344 6.796875 14.78125 6.882812 L 15.835938 6.882812 C 15.835938 6.667969 15.785156 6.457031 15.6875 6.246094 C 15.585938 6.035156 15.457031 5.84375 15.292969 5.667969 C 15.121094 5.5 14.925781 5.367188 14.710938 5.273438 C 14.503906 5.171875 14.289062 5.125 14.078125 5.125 C 13.863281 5.125 13.648438 5.171875 13.433594 5.273438 C 13.226562 5.371094 13.035156 5.503906 12.867188 5.667969 C 12.695312 5.839844 12.558594 6.03125 12.460938 6.246094 C 12.363281 6.457031 12.3125 6.667969 12.316406 6.882812 L 12.316406 9.230469 C 12.316406 9.445312 12.367188 9.65625 12.460938 9.867188 C 12.558594 10.078125 12.695312 10.269531 12.867188 10.441406 C 13.035156 10.613281 13.226562 10.746094 13.433594 10.84375 C 13.644531 10.941406 13.859375 10.992188 14.078125 10.992188 C 14.289062 10.992188 14.503906 10.941406 14.710938 10.84375 C 14.921875 10.742188 15.117188 10.609375 15.292969 10.441406 C 15.460938 10.273438 15.589844 10.082031 15.6875 9.867188 C 15.785156 9.65625 15.835938 9.445312 15.835938 9.230469 "/>
<path fill-rule="nonzero" fill="rgb(0%, 0%, 0%)" fill-opacity="1" d="M 19.734375 10.464844 L 19.863281 10.992188 L 20.363281 10.992188 L 19.746094 8.058594 L 19.21875 8.058594 L 18.601562 10.992188 L 19.132812 10.992188 L 19.246094 10.464844 Z M 19.480469 9.421875 L 19.605469 9.933594 L 19.367188 9.933594 Z M 19.269531 7 L 19.546875 7.53125 L 19.957031 7.53125 L 19.691406 7 Z M 19.269531 7 "/>
<path fill-rule="nonzero" fill="rgb(0%, 0%, 0%)" fill-opacity="1" d="M 5.394531 14.769531 C 5.261719 14.769531 5.171875 14.773438 5.121094 14.78125 C 5.070312 14.789062 5.023438 14.800781 4.984375 14.820312 L 4.984375 14.0625 L 6.863281 14.0625 L 6.863281 13.007812 L 3.929688 13.007812 L 3.929688 15.640625 L 4.984375 15.984375 C 4.988281 15.949219 5.015625 15.914062 5.074219 15.878906 C 5.132812 15.84375 5.238281 15.828125 5.394531 15.828125 C 5.484375 15.828125 5.570312 15.847656 5.652344 15.886719 C 5.738281 15.921875 5.8125 15.976562 5.882812 16.039062 C 5.949219 16.109375 6 16.183594 6.039062 16.269531 C 6.074219 16.355469 6.097656 16.445312 6.101562 16.527344 L 6.101562 17.117188 C 6.101562 17.207031 6.078125 17.289062 6.039062 17.371094 C 6 17.457031 5.949219 17.535156 5.882812 17.597656 C 5.8125 17.667969 5.738281 17.722656 5.652344 17.757812 C 5.566406 17.796875 5.480469 17.820312 5.394531 17.820312 C 5.308594 17.820312 5.222656 17.800781 5.144531 17.757812 C 5.054688 17.722656 4.980469 17.667969 4.914062 17.597656 C 4.84375 17.535156 4.789062 17.457031 4.746094 17.371094 C 4.710938 17.285156 4.691406 17.203125 4.691406 17.117188 L 3.636719 17.117188 C 3.636719 17.332031 3.683594 17.542969 3.78125 17.753906 C 3.878906 17.964844 4.015625 18.15625 4.1875 18.328125 C 4.355469 18.5 4.542969 18.632812 4.753906 18.726562 C 4.964844 18.828125 5.179688 18.875 5.394531 18.875 C 5.609375 18.875 5.820312 18.828125 6.03125 18.726562 C 6.242188 18.628906 6.433594 18.496094 6.609375 18.328125 C 6.777344 18.160156 6.910156 17.96875 7.003906 17.753906 C 7.105469 17.542969 7.15625 17.332031 7.15625 17.117188 L 7.15625 16.527344 C 7.15625 16.3125 7.105469 16.101562 7.003906 15.890625 C 6.90625 15.679688 6.773438 15.488281 6.609375 15.3125 C 6.4375 15.144531 6.246094 15.011719 6.03125 14.917969 C 5.820312 14.816406 5.609375 14.769531 5.394531 14.769531 M 9.675781 18.875 C 9.890625 18.875 10.101562 18.828125 10.3125 18.726562 C 10.523438 18.628906 10.714844 18.496094 10.890625 18.328125 C 11.058594 18.160156 11.191406 17.96875 11.285156 17.753906 C 11.386719 17.542969 11.433594 17.332031 11.433594 17.117188 L 11.433594 14.769531 C 11.433594 14.554688 11.386719 14.34375 11.285156 14.132812 C 11.1875 13.921875 11.054688 13.730469 10.890625 13.554688 C 10.71875 13.386719 10.527344 13.253906 10.3125 13.15625 C 10.101562 13.058594 9.890625 13.007812 9.675781 13.007812 C 9.460938 13.007812 9.25 13.058594 9.035156 13.15625 C 8.824219 13.257812 8.636719 13.390625 8.464844 13.554688 C 8.296875 13.726562 8.160156 13.917969 8.058594 14.132812 C 7.960938 14.34375 7.914062 14.554688 7.917969 14.769531 L 7.917969 17.117188 C 7.917969 17.332031 7.964844 17.542969 8.058594 17.753906 C 8.160156 17.964844 8.296875 18.15625 8.464844 18.328125 C 8.636719 18.5 8.824219 18.632812 9.035156 18.726562 C 9.25 18.828125 9.460938 18.875 9.675781 18.875 M 9.675781 17.820312 C 9.589844 17.820312 9.503906 17.800781 9.421875 17.757812 C 9.335938 17.722656 9.257812 17.667969 9.195312 17.597656 C 9.125 17.535156 9.070312 17.457031 9.027344 17.371094 C 8.992188 17.285156 8.972656 17.203125 8.972656 17.117188 L 8.972656 14.769531 C 8.972656 14.679688 8.992188 14.59375 9.027344 14.511719 C 9.066406 14.425781 9.121094 14.351562 9.195312 14.28125 C 9.257812 14.214844 9.335938 14.164062 9.421875 14.125 C 9.507812 14.089844 9.59375 14.066406 9.675781 14.0625 C 9.765625 14.0625 9.851562 14.085938 9.933594 14.125 C 10.019531 14.164062 10.09375 14.214844 10.164062 14.28125 C 10.226562 14.351562 10.28125 14.425781 10.316406 14.511719 C 10.355469 14.597656 10.378906 14.683594 10.378906 14.769531 L 10.378906 17.117188 C 10.378906 17.207031 10.359375 17.289062 10.316406 17.371094 C 10.28125 17.457031 10.226562 17.535156 10.164062 17.597656 C 10.09375 17.667969 10.019531 17.722656 9.933594 17.757812 C 9.851562 17.800781 9.765625 17.820312 9.675781 17.820312 M 13.957031 18.875 C 14.171875 18.875 14.382812 18.828125 14.59375 18.726562 C 14.800781 18.628906 14.996094 18.496094 15.171875 18.328125 C 15.339844 18.160156 15.472656 17.96875 15.566406 17.753906 C 15.664062 17.542969 15.714844 17.332031 15.714844 17.117188 L 15.714844 14.769531 C 15.714844 14.554688 15.664062 14.34375 15.566406 14.132812 C 15.46875 13.921875 15.335938 13.730469 15.171875 13.554688 C 15 13.386719 14.804688 13.253906 14.59375 13.15625 C 14.382812 13.058594 14.171875 13.007812 13.957031 13.007812 C 13.742188 13.007812 13.527344 13.058594 13.316406 13.15625 C 13.105469 13.257812 12.914062 13.390625 12.746094 13.554688 C 12.574219 13.726562 12.441406 13.917969 12.339844 14.132812 C 12.242188 14.34375 12.195312 14.554688 12.195312 14.769531 L 12.195312 17.117188 C 12.195312 17.332031 12.246094 17.542969 12.339844 17.753906 C 12.441406 17.964844 12.574219 18.15625 12.746094 18.328125 C 12.914062 18.5 13.105469 18.632812 13.316406 18.726562 C 13.527344 18.828125 13.742188 18.875 13.957031 18.875 Z M 13.957031 17.820312 C 13.867188 17.820312 13.785156 17.800781 13.703125 17.757812 C 13.617188 17.722656 13.539062 17.667969 13.476562 17.597656 C 13.40625 17.535156 13.351562 17.457031 13.308594 17.371094 C 13.269531 17.285156 13.25 17.203125 13.25 17.117188 L 13.25 14.769531 C 13.25 14.679688 13.269531 14.59375 13.308594 14.511719 C 13.347656 14.425781 13.402344 14.351562 13.476562 14.28125 C 13.539062 14.214844 13.617188 14.164062 13.703125 14.125 C 13.789062 14.089844 13.871094 14.066406 13.957031 14.0625 C 14.042969 14.0625 14.128906 14.085938 14.214844 14.125 C 14.296875 14.164062 14.375 14.214844 14.445312 14.28125 C 14.507812 14.351562 14.558594 14.425781 14.597656 14.511719 C 14.636719 14.597656 14.65625 14.683594 14.660156 14.769531 L 14.660156 17.117188 C 14.660156 17.207031 14.640625 17.289062 14.597656 17.371094 C 14.558594 17.457031 14.507812 17.535156 14.445312 17.597656 C 14.375 17.667969 14.296875 17.722656 14.214844 17.757812 C 14.128906 17.800781 14.042969 17.820312 13.957031 17.820312 Z M 18.765625 15.652344 C 18.609375 15.652344 18.484375 15.664062 18.378906 15.695312 C 18.277344 15.730469 18.1875 15.773438 18.117188 15.828125 C 18.054688 15.777344 17.972656 15.734375 17.871094 15.695312 C 17.761719 15.664062 17.632812 15.652344 17.476562 15.652344 C 17.386719 15.652344 17.320312 15.652344 17.28125 15.65625 C 17.234375 15.664062 17.191406 15.671875 17.148438 15.683594 L 17.148438 15.652344 L 16.507812 15.652344 L 16.507812 18.875 L 17.148438 18.875 L 17.148438 16.621094 C 17.148438 16.535156 17.183594 16.460938 17.25 16.394531 C 17.3125 16.332031 17.386719 16.296875 17.476562 16.292969 C 17.5625 16.292969 17.640625 16.324219 17.703125 16.390625 C 17.765625 16.453125 17.796875 16.53125 17.796875 16.617188 L 17.796875 18.875 L 18.441406 18.875 L 18.441406 16.621094 C 18.441406 16.535156 18.476562 16.460938 18.539062 16.394531 C 18.601562 16.332031 18.675781 16.296875 18.765625 16.292969 C 18.851562 16.292969 18.929688 16.324219 18.992188 16.390625 C 19.054688 16.453125 19.085938 16.53125 19.085938 16.617188 L 19.085938 18.875 L 19.734375 18.875 L 19.734375 16.621094 C 19.734375 15.972656 19.410156 15.652344 18.765625 15.652344 Z M 18.765625 15.652344 "/>
<path fill-rule="nonzero" fill="rgb(0%, 0%, 0%)" fill-opacity="1" d="M 17.214844 5.652344 L 17.832031 5.652344 L 17.832031 5.125 L 16.070312 5.125 L 16.070312 5.652344 L 16.6875 5.652344 L 16.6875 8.058594 L 17.214844 8.058594 Z M 17.214844 5.652344 "/>
</svg>
