<?xml version="1.0" encoding="UTF-8"?>
<svg xmlns="http://www.w3.org/2000/svg" xmlns:xlink="http://www.w3.org/1999/xlink" width="18" height="17.969912" viewBox="0 0 18 17.969912">
<path fill-rule="nonzero" fill="rgb(14.901961%, 14.901961%, 14.901961%)" fill-opacity="1" d="M 16.78125 16.691406 C 17.628906 15.828125 18.050781 14.742188 17.953125 13.039062 C 17.859375 11.316406 18.144531 6.90625 17.894531 4.003906 C 17.769531 2.542969 16.53125 0.695312 15.058594 0.226562 C 13.449219 -0.0664062 11.558594 -0.257812 10.300781 0.855469 C 7.054688 4.089844 2.714844 8.398438 1.164062 10 C 0.21875 10.976562 -0.101562 12.761719 0.0273438 13.90625 C 0.136719 14.890625 0.65625 16.074219 1.425781 16.800781 C 2.203125 17.527344 3.3125 17.773438 3.886719 17.796875 C 5.667969 17.871094 7.308594 17.898438 8.945312 17.910156 C 10.589844 17.925781 12.230469 17.929688 14.007812 17.96875 C 15.027344 17.992188 15.996094 17.488281 16.78125 16.691406 Z M 16.78125 16.691406 "/>
<path fill-rule="nonzero" fill="rgb(86.666667%, 21.960784%, 19.607843%)" fill-opacity="1" d="M 11.457031 6.492188 C 10.347656 5.382812 10.332031 3.597656 11.429688 2.5 C 12.527344 1.402344 14.316406 1.414062 15.425781 2.523438 C 16.535156 3.632812 16.546875 5.421875 15.449219 6.519531 C 14.351562 7.617188 12.566406 7.601562 11.457031 6.492188 Z M 11.457031 6.492188 "/>
<path fill-rule="nonzero" fill="rgb(49.803922%, 49.803922%, 49.803922%)" fill-opacity="1" d="M 11.453125 15.773438 C 10.347656 14.664062 10.335938 12.875 11.433594 11.777344 C 12.53125 10.679688 14.320312 10.691406 15.425781 11.800781 C 16.535156 12.910156 16.546875 14.699219 15.449219 15.796875 C 14.351562 16.894531 12.5625 16.882812 11.453125 15.773438 Z M 11.453125 15.773438 "/>
<path fill="none" stroke-width="0.58901" stroke-linecap="butt" stroke-linejoin="miter" stroke="rgb(100%, 100%, 100%)" stroke-opacity="1" stroke-miterlimit="4" d="M 2.125943 7.912106 L 6.253116 7.912106 L 6.253116 12.039278 L 2.125943 12.039278 Z M 2.125943 7.912106 " transform="matrix(1.346829, 0, 0, 1.346829, 0, 0)"/>
<path fill-rule="nonzero" fill="rgb(0%, 0%, 0%)" fill-opacity="1" d="M 2.863281 10.65625 L 8.421875 10.65625 L 8.421875 16.214844 L 2.863281 16.214844 Z M 2.863281 10.65625 "/>
<path fill-rule="nonzero" fill="rgb(96.078431%, 78.039216%, 5.098039%)" fill-opacity="1" d="M 8.421875 10.65625 L 5.640625 16.214844 L 2.863281 10.65625 Z M 8.421875 10.65625 "/>
</svg>
