<?xml version="1.0" encoding="UTF-8"?>
<svg xmlns="http://www.w3.org/2000/svg" xmlns:xlink="http://www.w3.org/1999/xlink" width="14.938779" height="20" viewBox="0 0 14.938779 20">
<path fill-rule="nonzero" fill="rgb(14.901961%, 14.901961%, 14.901961%)" fill-opacity="1" stroke-width="0.306371" stroke-linecap="round" stroke-linejoin="round" stroke="rgb(0%, 0%, 0%)" stroke-opacity="1" stroke-dasharray="0.604282 0.789321" stroke-miterlimit="4" d="M 6.600508 -0.0454252 L 202.466918 -0.0454252 C 205.678735 -0.0454252 208.346177 2.567579 208.346177 5.833833 L 208.346177 272.469097 C 208.346177 275.735352 205.678735 278.348356 202.466918 278.348356 L 6.600508 278.348356 C 3.334253 278.348356 0.721249 275.735352 0.721249 272.469097 L 0.721249 5.833833 C 0.721249 2.567579 3.334253 -0.0454252 6.600508 -0.0454252 Z M 6.600508 -0.0454252 " transform="matrix(0.0717565, 0, 0, 0.0717565, -0.0205043, 0.0149783)"/>
<path fill="none" stroke-width="4.180806" stroke-linecap="butt" stroke-linejoin="miter" stroke="rgb(60.392157%, 60.392157%, 60.392157%)" stroke-opacity="1" stroke-miterlimit="4" d="M 26.851287 38.714131 L 181.889513 38.714131 C 184.012579 38.714131 185.700144 40.401696 185.700144 42.470324 L 185.700144 235.832606 C 185.700144 237.901234 184.012579 239.588799 181.889513 239.588799 L 26.851287 239.588799 C 24.782659 239.588799 23.095094 237.901234 23.095094 235.832606 L 23.095094 42.470324 C 23.095094 40.401696 24.782659 38.714131 26.851287 38.714131 Z M 26.851287 38.714131 " transform="matrix(0.0717565, 0, 0, 0.0717565, -0.0205043, 0.0149783)"/>
<path fill="none" stroke-width="0.6" stroke-linecap="butt" stroke-linejoin="miter" stroke="rgb(100%, 100%, 100%)" stroke-opacity="1" stroke-miterlimit="4" d="M 3.09375 16.359375 L 7.191406 3.644531 "/>
<path fill="none" stroke-width="0.6" stroke-linecap="butt" stroke-linejoin="miter" stroke="rgb(100%, 100%, 100%)" stroke-opacity="1" stroke-miterlimit="4" d="M 11.847656 16.347656 L 7.824219 3.640625 "/>
</svg>
