<?xml version="1.0" encoding="UTF-8" standalone="no"?>
<svg
   width="14.938779"
   height="20"
   viewBox="0 0 14.938779 20"
   version="1.1"
   id="svg536"
   sodipodi:docname="270a.svg"
   inkscape:version="1.2.2 (b0a8486541, 2022-12-01)"
   xmlns:inkscape="http://www.inkscape.org/namespaces/inkscape"
   xmlns:sodipodi="http://sodipodi.sourceforge.net/DTD/sodipodi-0.dtd"
   xmlns="http://www.w3.org/2000/svg"
   xmlns:svg="http://www.w3.org/2000/svg">
  <defs
     id="defs540" />
  <sodipodi:namedview
     id="namedview538"
     pagecolor="#ffffff"
     bordercolor="#666666"
     borderopacity="1.0"
     inkscape:showpageshadow="2"
     inkscape:pageopacity="0.0"
     inkscape:pagecheckerboard="0"
     inkscape:deskcolor="#d1d1d1"
     showgrid="false"
     inkscape:zoom="45.254834"
     inkscape:cx="4.0769125"
     inkscape:cy="9.2586794"
     inkscape:window-width="2560"
     inkscape:window-height="1369"
     inkscape:window-x="0"
     inkscape:window-y="0"
     inkscape:window-maximized="1"
     inkscape:current-layer="svg536" />
  <path
     fill-rule="nonzero"
     fill="rgb(14.901961%, 14.901961%, 14.901961%)"
     fill-opacity="1"
     stroke-width="0.306371"
     stroke-linecap="round"
     stroke-linejoin="round"
     stroke="rgb(0%, 0%, 0%)"
     stroke-opacity="1"
     stroke-dasharray="0.604282 0.789321"
     stroke-miterlimit="4"
     d="M 6.600511 -0.0454256 L 202.467023 -0.0454256 C 205.678842 -0.0454256 208.346284 2.56758 208.346284 5.833836 L 208.346284 272.469238 C 208.346284 275.735494 205.678842 278.348499 202.467023 278.348499 L 6.600511 278.348499 C 3.334255 278.348499 0.721249 275.735494 0.721249 272.469238 L 0.721249 5.833836 C 0.721249 2.56758 3.334255 -0.0454256 6.600511 -0.0454256 Z M 6.600511 -0.0454256 "
     transform="matrix(0.0717565, 0, 0, 0.0717565, -0.0205043, 0.0149783)"
     id="path2" />
  <path
     fill="none"
     stroke-width="1"
     stroke-linecap="butt"
     stroke-linejoin="miter"
     stroke="rgb(60.392159%, 60.392159%, 60.392159%)"
     stroke-opacity="1"
     stroke-miterlimit="4"
     d="M 26.851301 38.714151 L 181.889607 38.714151 C 184.012674 38.714151 185.70024 40.401717 185.70024 42.470346 L 185.70024 235.832728 C 185.70024 237.901357 184.012674 239.588923 181.889607 239.588923 L 26.851301 239.588923 C 24.782672 239.588923 23.095106 237.901357 23.095106 235.832728 L 23.095106 42.470346 C 23.095106 40.401717 24.782672 38.714151 26.851301 38.714151 Z M 26.851301 38.714151 "
     transform="matrix(0.0717565, 0, 0, 0.0717565, -0.0205043, 0.0149783)"
     id="path4"
     style="stroke-width:4.18080592;stroke-dasharray:none" />
  <path
     style="fill:none;fill-opacity:1;stroke:#ffffff;stroke-width:0.6;stroke-linecap:butt;stroke-linejoin:miter;stroke-dasharray:none;stroke-opacity:1"
     d="M 3.092554,16.358686 7.191436,3.6437379"
     id="path3972"
     sodipodi:nodetypes="cc" />
  <path
     style="fill:none;fill-opacity:1;stroke:#ffffff;stroke-width:0.6;stroke-linecap:butt;stroke-linejoin:miter;stroke-dasharray:none;stroke-opacity:1"
     d="M 11.845746,16.347056 7.8227628,3.6398164"
     id="path3972-3"
     sodipodi:nodetypes="cc" />
</svg>
