<?xml version="1.0" encoding="UTF-8"?>
<svg xmlns="http://www.w3.org/2000/svg" xmlns:xlink="http://www.w3.org/1999/xlink" width="14.938779" height="20" viewBox="0 0 14.938779 20">
<path fill-rule="nonzero" fill="rgb(14.901961%, 14.901961%, 14.901961%)" fill-opacity="1" stroke-width="0.306371" stroke-linecap="round" stroke-linejoin="round" stroke="rgb(0%, 0%, 0%)" stroke-opacity="1" stroke-dasharray="0.604282 0.789321" stroke-miterlimit="4" d="M 6.600511 -0.0454256 L 202.467023 -0.0454256 C 205.678842 -0.0454256 208.346284 2.56758 208.346284 5.833836 L 208.346284 272.469238 C 208.346284 275.735494 205.678842 278.348499 202.467023 278.348499 L 6.600511 278.348499 C 3.334255 278.348499 0.721249 275.735494 0.721249 272.469238 L 0.721249 5.833836 C 0.721249 2.56758 3.334255 -0.0454256 6.600511 -0.0454256 Z M 6.600511 -0.0454256 " transform="matrix(0.0717565, 0, 0, 0.0717565, -0.0205043, 0.0149783)"/>
<path fill="none" stroke-width="1" stroke-linecap="butt" stroke-linejoin="miter" stroke="rgb(60.392159%, 60.392159%, 60.392159%)" stroke-opacity="1" stroke-miterlimit="4" d="M 26.851301 38.714151 L 181.889607 38.714151 C 184.012674 38.714151 185.70024 40.401717 185.70024 42.470346 L 185.70024 235.832728 C 185.70024 237.901357 184.012674 239.588923 181.889607 239.588923 L 26.851301 239.588923 C 24.782672 239.588923 23.095106 237.901357 23.095106 235.832728 L 23.095106 42.470346 C 23.095106 40.401717 24.782672 38.714151 26.851301 38.714151 Z M 26.851301 38.714151 " transform="matrix(0.0717565, 0, 0, 0.0717565, -0.0205043, 0.0149783)"/>
<path fill="none" stroke-width="0.941655" stroke-linecap="butt" stroke-linejoin="miter" stroke="rgb(60.392159%, 60.392159%, 60.392159%)" stroke-opacity="1" stroke-miterlimit="4" d="M 31.478498 43.722411 L 176.82691 43.722411 C 178.786664 43.722411 180.419792 45.301101 180.419792 47.260855 L 180.419792 230.062341 C 180.419792 232.022095 178.786664 233.655224 176.82691 233.655224 L 31.478498 233.655224 C 29.464306 233.655224 27.885616 232.022095 27.885616 230.062341 L 27.885616 47.260855 C 27.885616 45.301101 29.464306 43.722411 31.478498 43.722411 Z M 31.478498 43.722411 " transform="matrix(0.0717565, 0, 0, 0.0717565, -0.0205043, 0.0149783)"/>
<path fill-rule="evenodd" fill="rgb(99.215686%, 0%, 0%)" fill-opacity="1" d="M 12.523438 9.964844 C 12.523438 10.015625 12.484375 10.054688 12.433594 10.054688 C 12.382812 10.054688 12.34375 10.015625 12.34375 9.964844 C 12.34375 9.917969 12.386719 9.875 12.433594 9.875 C 12.484375 9.875 12.523438 9.917969 12.523438 9.964844 Z M 12.523438 9.964844 "/>
<path fill-rule="evenodd" fill="rgb(99.215686%, 0%, 0%)" fill-opacity="1" d="M 12.433594 9.863281 C 12.378906 9.863281 12.332031 9.910156 12.332031 9.964844 C 12.332031 10.023438 12.378906 10.066406 12.433594 10.066406 C 12.488281 10.066406 12.535156 10.023438 12.535156 9.964844 C 12.535156 9.910156 12.488281 9.863281 12.433594 9.863281 Z M 12.433594 9.886719 C 12.476562 9.886719 12.511719 9.921875 12.511719 9.964844 C 12.511719 10.007812 12.476562 10.042969 12.433594 10.042969 C 12.390625 10.042969 12.355469 10.007812 12.355469 9.964844 C 12.355469 9.921875 12.390625 9.886719 12.433594 9.886719 Z M 12.433594 9.886719 "/>
<path fill-rule="evenodd" fill="rgb(99.215686%, 0%, 0%)" fill-opacity="1" d="M 12.210938 9.964844 C 12.210938 10.015625 12.171875 10.054688 12.121094 10.054688 C 12.074219 10.054688 12.03125 10.015625 12.03125 9.964844 C 12.03125 9.917969 12.074219 9.875 12.121094 9.875 C 12.171875 9.875 12.210938 9.917969 12.210938 9.964844 Z M 12.210938 9.964844 "/>
<path fill-rule="evenodd" fill="rgb(99.215686%, 0%, 0%)" fill-opacity="1" d="M 12.121094 9.863281 C 12.066406 9.863281 12.019531 9.910156 12.019531 9.964844 C 12.019531 10.023438 12.066406 10.066406 12.121094 10.066406 C 12.179688 10.066406 12.222656 10.023438 12.222656 9.964844 C 12.222656 9.910156 12.179688 9.863281 12.121094 9.863281 Z M 12.121094 9.886719 C 12.164062 9.886719 12.199219 9.921875 12.199219 9.964844 C 12.199219 10.007812 12.164062 10.042969 12.121094 10.042969 C 12.078125 10.042969 12.046875 10.007812 12.046875 9.964844 C 12.046875 9.921875 12.082031 9.886719 12.121094 9.886719 Z M 12.121094 9.886719 "/>
<path fill-rule="evenodd" fill="rgb(99.215686%, 0%, 0%)" fill-opacity="1" d="M 11.902344 9.964844 C 11.902344 10.015625 11.859375 10.054688 11.8125 10.054688 C 11.761719 10.054688 11.722656 10.015625 11.722656 9.964844 C 11.722656 9.917969 11.761719 9.875 11.8125 9.875 C 11.859375 9.875 11.902344 9.917969 11.902344 9.964844 Z M 11.902344 9.964844 "/>
<path fill-rule="evenodd" fill="rgb(99.215686%, 0%, 0%)" fill-opacity="1" d="M 11.8125 9.863281 C 11.757812 9.863281 11.710938 9.910156 11.710938 9.964844 C 11.710938 10.023438 11.753906 10.066406 11.8125 10.066406 C 11.867188 10.066406 11.914062 10.023438 11.914062 9.964844 C 11.914062 9.910156 11.867188 9.863281 11.8125 9.863281 Z M 11.8125 9.886719 C 11.855469 9.886719 11.890625 9.921875 11.890625 9.964844 C 11.890625 10.007812 11.855469 10.042969 11.8125 10.042969 C 11.769531 10.042969 11.734375 10.007812 11.734375 9.964844 C 11.734375 9.921875 11.769531 9.886719 11.8125 9.886719 Z M 11.8125 9.886719 "/>
<path fill-rule="evenodd" fill="rgb(99.215686%, 0%, 0%)" fill-opacity="1" d="M 11.589844 9.964844 C 11.589844 10.015625 11.550781 10.054688 11.5 10.054688 C 11.449219 10.054688 11.410156 10.015625 11.410156 9.964844 C 11.410156 9.917969 11.453125 9.875 11.5 9.875 C 11.550781 9.875 11.589844 9.917969 11.589844 9.964844 Z M 11.589844 9.964844 "/>
<path fill-rule="evenodd" fill="rgb(99.215686%, 0%, 0%)" fill-opacity="1" d="M 11.5 9.863281 C 11.445312 9.863281 11.398438 9.910156 11.398438 9.964844 C 11.398438 10.023438 11.445312 10.066406 11.5 10.066406 C 11.554688 10.066406 11.601562 10.023438 11.601562 9.964844 C 11.601562 9.910156 11.554688 9.863281 11.5 9.863281 Z M 11.5 9.886719 C 11.542969 9.886719 11.578125 9.921875 11.578125 9.964844 C 11.578125 10.007812 11.542969 10.042969 11.5 10.042969 C 11.457031 10.042969 11.421875 10.007812 11.421875 9.964844 C 11.421875 9.921875 11.457031 9.886719 11.5 9.886719 Z M 11.5 9.886719 "/>
<path fill-rule="evenodd" fill="rgb(99.215686%, 0%, 0%)" fill-opacity="1" d="M 11.277344 9.964844 C 11.277344 10.015625 11.238281 10.054688 11.1875 10.054688 C 11.140625 10.054688 11.097656 10.015625 11.097656 9.964844 C 11.097656 9.917969 11.140625 9.875 11.1875 9.875 C 11.238281 9.875 11.277344 9.917969 11.277344 9.964844 Z M 11.277344 9.964844 "/>
<path fill-rule="evenodd" fill="rgb(99.215686%, 0%, 0%)" fill-opacity="1" d="M 11.1875 9.863281 C 11.132812 9.863281 11.085938 9.910156 11.085938 9.964844 C 11.085938 10.023438 11.132812 10.066406 11.1875 10.066406 C 11.246094 10.066406 11.289062 10.023438 11.289062 9.964844 C 11.289062 9.910156 11.246094 9.863281 11.1875 9.863281 Z M 11.1875 9.886719 C 11.230469 9.886719 11.265625 9.921875 11.265625 9.964844 C 11.265625 10.007812 11.230469 10.042969 11.1875 10.042969 C 11.144531 10.042969 11.109375 10.007812 11.109375 9.964844 C 11.109375 9.921875 11.148438 9.886719 11.1875 9.886719 Z M 11.1875 9.886719 "/>
<path fill-rule="evenodd" fill="rgb(99.215686%, 0%, 0%)" fill-opacity="1" d="M 10.96875 9.964844 C 10.96875 10.015625 10.925781 10.054688 10.878906 10.054688 C 10.828125 10.054688 10.789062 10.015625 10.789062 9.964844 C 10.789062 9.917969 10.828125 9.875 10.878906 9.875 C 10.925781 9.875 10.96875 9.917969 10.96875 9.964844 Z M 10.96875 9.964844 "/>
<path fill-rule="evenodd" fill="rgb(99.215686%, 0%, 0%)" fill-opacity="1" d="M 10.878906 9.863281 C 10.820312 9.863281 10.777344 9.910156 10.777344 9.964844 C 10.777344 10.023438 10.820312 10.066406 10.878906 10.066406 C 10.933594 10.066406 10.980469 10.023438 10.980469 9.964844 C 10.980469 9.910156 10.933594 9.863281 10.878906 9.863281 Z M 10.878906 9.886719 C 10.921875 9.886719 10.953125 9.921875 10.953125 9.964844 C 10.953125 10.007812 10.921875 10.042969 10.878906 10.042969 C 10.835938 10.042969 10.800781 10.007812 10.800781 9.964844 C 10.800781 9.921875 10.835938 9.886719 10.878906 9.886719 Z M 10.878906 9.886719 "/>
<path fill-rule="evenodd" fill="rgb(99.215686%, 0%, 0%)" fill-opacity="1" d="M 10.65625 9.964844 C 10.65625 10.015625 10.617188 10.054688 10.566406 10.054688 C 10.515625 10.054688 10.476562 10.015625 10.476562 9.964844 C 10.476562 9.917969 10.515625 9.875 10.566406 9.875 C 10.617188 9.875 10.65625 9.917969 10.65625 9.964844 Z M 10.65625 9.964844 "/>
<path fill-rule="evenodd" fill="rgb(99.215686%, 0%, 0%)" fill-opacity="1" d="M 10.566406 9.863281 C 10.511719 9.863281 10.464844 9.910156 10.464844 9.964844 C 10.464844 10.023438 10.511719 10.066406 10.566406 10.066406 C 10.621094 10.066406 10.667969 10.023438 10.667969 9.964844 C 10.667969 9.910156 10.621094 9.863281 10.566406 9.863281 Z M 10.566406 9.886719 C 10.609375 9.886719 10.644531 9.921875 10.644531 9.964844 C 10.644531 10.007812 10.609375 10.042969 10.566406 10.042969 C 10.523438 10.042969 10.488281 10.007812 10.488281 9.964844 C 10.488281 9.921875 10.523438 9.886719 10.566406 9.886719 Z M 10.566406 9.886719 "/>
<path fill-rule="evenodd" fill="rgb(99.215686%, 0%, 0%)" fill-opacity="1" d="M 10.34375 9.964844 C 10.34375 10.015625 10.304688 10.054688 10.253906 10.054688 C 10.203125 10.054688 10.164062 10.015625 10.164062 9.964844 C 10.164062 9.917969 10.207031 9.875 10.253906 9.875 C 10.304688 9.875 10.34375 9.917969 10.34375 9.964844 Z M 10.34375 9.964844 "/>
<path fill-rule="evenodd" fill="rgb(99.215686%, 0%, 0%)" fill-opacity="1" d="M 10.253906 9.863281 C 10.199219 9.863281 10.152344 9.910156 10.152344 9.964844 C 10.152344 10.023438 10.199219 10.066406 10.253906 10.066406 C 10.308594 10.066406 10.355469 10.023438 10.355469 9.964844 C 10.355469 9.910156 10.308594 9.863281 10.253906 9.863281 Z M 10.253906 9.886719 C 10.296875 9.886719 10.332031 9.921875 10.332031 9.964844 C 10.332031 10.007812 10.296875 10.042969 10.253906 10.042969 C 10.210938 10.042969 10.175781 10.007812 10.175781 9.964844 C 10.175781 9.921875 10.210938 9.886719 10.253906 9.886719 Z M 10.253906 9.886719 "/>
<path fill-rule="evenodd" fill="rgb(99.215686%, 0%, 0%)" fill-opacity="1" d="M 10.03125 9.964844 C 10.03125 10.015625 9.992188 10.054688 9.941406 10.054688 C 9.894531 10.054688 9.851562 10.015625 9.851562 9.964844 C 9.851562 9.917969 9.894531 9.875 9.941406 9.875 C 9.992188 9.875 10.03125 9.917969 10.03125 9.964844 Z M 10.03125 9.964844 "/>
<path fill-rule="evenodd" fill="rgb(99.215686%, 0%, 0%)" fill-opacity="1" d="M 9.941406 9.863281 C 9.886719 9.863281 9.839844 9.910156 9.839844 9.964844 C 9.839844 10.023438 9.886719 10.066406 9.941406 10.066406 C 10 10.066406 10.042969 10.023438 10.042969 9.964844 C 10.042969 9.910156 10 9.863281 9.941406 9.863281 Z M 9.941406 9.886719 C 9.984375 9.886719 10.019531 9.921875 10.019531 9.964844 C 10.019531 10.007812 9.984375 10.042969 9.941406 10.042969 C 9.898438 10.042969 9.867188 10.007812 9.867188 9.964844 C 9.867188 9.921875 9.902344 9.886719 9.941406 9.886719 Z M 9.941406 9.886719 "/>
<path fill-rule="evenodd" fill="rgb(99.215686%, 0%, 0%)" fill-opacity="1" d="M 9.722656 9.964844 C 9.722656 10.015625 9.679688 10.054688 9.632812 10.054688 C 9.582031 10.054688 9.542969 10.015625 9.542969 9.964844 C 9.542969 9.917969 9.582031 9.875 9.632812 9.875 C 9.679688 9.875 9.722656 9.917969 9.722656 9.964844 Z M 9.722656 9.964844 "/>
<path fill-rule="evenodd" fill="rgb(99.215686%, 0%, 0%)" fill-opacity="1" d="M 9.632812 9.863281 C 9.578125 9.863281 9.53125 9.910156 9.53125 9.964844 C 9.53125 10.023438 9.574219 10.066406 9.632812 10.066406 C 9.6875 10.066406 9.734375 10.023438 9.734375 9.964844 C 9.734375 9.910156 9.6875 9.863281 9.632812 9.863281 Z M 9.632812 9.886719 C 9.675781 9.886719 9.710938 9.921875 9.710938 9.964844 C 9.710938 10.007812 9.675781 10.042969 9.632812 10.042969 C 9.589844 10.042969 9.554688 10.007812 9.554688 9.964844 C 9.554688 9.921875 9.589844 9.886719 9.632812 9.886719 Z M 9.632812 9.886719 "/>
<path fill-rule="evenodd" fill="rgb(99.215686%, 0%, 0%)" fill-opacity="1" d="M 9.410156 9.964844 C 9.410156 10.015625 9.371094 10.054688 9.320312 10.054688 C 9.269531 10.054688 9.230469 10.015625 9.230469 9.964844 C 9.230469 9.917969 9.273438 9.875 9.320312 9.875 C 9.371094 9.875 9.410156 9.917969 9.410156 9.964844 Z M 9.410156 9.964844 "/>
<path fill-rule="evenodd" fill="rgb(99.215686%, 0%, 0%)" fill-opacity="1" d="M 9.320312 9.863281 C 9.265625 9.863281 9.21875 9.910156 9.21875 9.964844 C 9.21875 10.023438 9.265625 10.066406 9.320312 10.066406 C 9.375 10.066406 9.421875 10.023438 9.421875 9.964844 C 9.421875 9.910156 9.375 9.863281 9.320312 9.863281 Z M 9.320312 9.886719 C 9.363281 9.886719 9.398438 9.921875 9.398438 9.964844 C 9.398438 10.007812 9.363281 10.042969 9.320312 10.042969 C 9.277344 10.042969 9.242188 10.007812 9.242188 9.964844 C 9.242188 9.921875 9.277344 9.886719 9.320312 9.886719 Z M 9.320312 9.886719 "/>
<path fill-rule="evenodd" fill="rgb(99.215686%, 0%, 0%)" fill-opacity="1" d="M 9.097656 9.964844 C 9.097656 10.015625 9.058594 10.054688 9.007812 10.054688 C 8.960938 10.054688 8.917969 10.015625 8.917969 9.964844 C 8.917969 9.917969 8.960938 9.875 9.007812 9.875 C 9.058594 9.875 9.097656 9.917969 9.097656 9.964844 Z M 9.097656 9.964844 "/>
<path fill-rule="evenodd" fill="rgb(99.215686%, 0%, 0%)" fill-opacity="1" d="M 9.007812 9.863281 C 8.953125 9.863281 8.90625 9.910156 8.90625 9.964844 C 8.90625 10.023438 8.953125 10.066406 9.007812 10.066406 C 9.066406 10.066406 9.109375 10.023438 9.109375 9.964844 C 9.109375 9.910156 9.066406 9.863281 9.007812 9.863281 Z M 9.007812 9.886719 C 9.050781 9.886719 9.085938 9.921875 9.085938 9.964844 C 9.085938 10.007812 9.050781 10.042969 9.007812 10.042969 C 8.964844 10.042969 8.929688 10.007812 8.929688 9.964844 C 8.929688 9.921875 8.96875 9.886719 9.007812 9.886719 Z M 9.007812 9.886719 "/>
<path fill-rule="evenodd" fill="rgb(99.215686%, 0%, 0%)" fill-opacity="1" d="M 8.789062 9.964844 C 8.789062 10.015625 8.746094 10.054688 8.699219 10.054688 C 8.648438 10.054688 8.609375 10.015625 8.609375 9.964844 C 8.609375 9.917969 8.648438 9.875 8.699219 9.875 C 8.746094 9.875 8.789062 9.917969 8.789062 9.964844 Z M 8.789062 9.964844 "/>
<path fill-rule="evenodd" fill="rgb(99.215686%, 0%, 0%)" fill-opacity="1" d="M 8.699219 9.863281 C 8.640625 9.863281 8.597656 9.910156 8.597656 9.964844 C 8.597656 10.023438 8.640625 10.066406 8.699219 10.066406 C 8.753906 10.066406 8.800781 10.023438 8.800781 9.964844 C 8.800781 9.910156 8.753906 9.863281 8.699219 9.863281 Z M 8.699219 9.886719 C 8.742188 9.886719 8.777344 9.921875 8.777344 9.964844 C 8.777344 10.007812 8.742188 10.042969 8.699219 10.042969 C 8.65625 10.042969 8.621094 10.007812 8.621094 9.964844 C 8.621094 9.921875 8.65625 9.886719 8.699219 9.886719 Z M 8.699219 9.886719 "/>
<path fill-rule="evenodd" fill="rgb(99.215686%, 0%, 0%)" fill-opacity="1" d="M 8.476562 9.964844 C 8.476562 10.015625 8.4375 10.054688 8.386719 10.054688 C 8.335938 10.054688 8.296875 10.015625 8.296875 9.964844 C 8.296875 9.917969 8.335938 9.875 8.386719 9.875 C 8.4375 9.875 8.476562 9.917969 8.476562 9.964844 Z M 8.476562 9.964844 "/>
<path fill-rule="evenodd" fill="rgb(99.215686%, 0%, 0%)" fill-opacity="1" d="M 8.386719 9.863281 C 8.332031 9.863281 8.285156 9.910156 8.285156 9.964844 C 8.285156 10.023438 8.332031 10.066406 8.386719 10.066406 C 8.441406 10.066406 8.488281 10.023438 8.488281 9.964844 C 8.488281 9.910156 8.441406 9.863281 8.386719 9.863281 Z M 8.386719 9.886719 C 8.429688 9.886719 8.464844 9.921875 8.464844 9.964844 C 8.464844 10.007812 8.429688 10.042969 8.386719 10.042969 C 8.34375 10.042969 8.308594 10.007812 8.308594 9.964844 C 8.308594 9.921875 8.34375 9.886719 8.386719 9.886719 Z M 8.386719 9.886719 "/>
<path fill-rule="evenodd" fill="rgb(99.215686%, 0%, 0%)" fill-opacity="1" d="M 8.164062 9.964844 C 8.164062 10.015625 8.125 10.054688 8.074219 10.054688 C 8.027344 10.054688 7.984375 10.015625 7.984375 9.964844 C 7.984375 9.917969 8.027344 9.875 8.074219 9.875 C 8.125 9.875 8.164062 9.917969 8.164062 9.964844 Z M 8.164062 9.964844 "/>
<path fill-rule="evenodd" fill="rgb(99.215686%, 0%, 0%)" fill-opacity="1" d="M 8.074219 9.863281 C 8.019531 9.863281 7.972656 9.910156 7.972656 9.964844 C 7.972656 10.023438 8.019531 10.066406 8.074219 10.066406 C 8.132812 10.066406 8.175781 10.023438 8.175781 9.964844 C 8.175781 9.910156 8.132812 9.863281 8.074219 9.863281 Z M 8.074219 9.886719 C 8.117188 9.886719 8.152344 9.921875 8.152344 9.964844 C 8.152344 10.007812 8.117188 10.042969 8.074219 10.042969 C 8.03125 10.042969 7.996094 10.007812 7.996094 9.964844 C 7.996094 9.921875 8.03125 9.886719 8.074219 9.886719 Z M 8.074219 9.886719 "/>
<path fill-rule="evenodd" fill="rgb(99.215686%, 0%, 0%)" fill-opacity="1" d="M 7.851562 9.964844 C 7.851562 10.015625 7.8125 10.054688 7.761719 10.054688 C 7.714844 10.054688 7.675781 10.015625 7.675781 9.964844 C 7.675781 9.917969 7.714844 9.875 7.761719 9.875 C 7.8125 9.875 7.851562 9.917969 7.851562 9.964844 Z M 7.851562 9.964844 "/>
<path fill-rule="evenodd" fill="rgb(99.215686%, 0%, 0%)" fill-opacity="1" d="M 7.761719 9.863281 C 7.707031 9.863281 7.660156 9.910156 7.660156 9.964844 C 7.660156 10.023438 7.707031 10.066406 7.761719 10.066406 C 7.820312 10.066406 7.863281 10.023438 7.863281 9.964844 C 7.863281 9.910156 7.820312 9.863281 7.761719 9.863281 Z M 7.761719 9.886719 C 7.804688 9.886719 7.839844 9.921875 7.839844 9.964844 C 7.839844 10.007812 7.804688 10.042969 7.761719 10.042969 C 7.71875 10.042969 7.6875 10.007812 7.6875 9.964844 C 7.6875 9.921875 7.722656 9.886719 7.761719 9.886719 Z M 7.761719 9.886719 "/>
<path fill-rule="evenodd" fill="rgb(99.215686%, 0%, 0%)" fill-opacity="1" d="M 7.542969 9.964844 C 7.542969 10.015625 7.5 10.054688 7.453125 10.054688 C 7.402344 10.054688 7.363281 10.015625 7.363281 9.964844 C 7.363281 9.917969 7.402344 9.875 7.453125 9.875 C 7.5 9.875 7.542969 9.917969 7.542969 9.964844 Z M 7.542969 9.964844 "/>
<path fill-rule="evenodd" fill="rgb(99.215686%, 0%, 0%)" fill-opacity="1" d="M 7.453125 9.863281 C 7.398438 9.863281 7.351562 9.910156 7.351562 9.964844 C 7.351562 10.023438 7.394531 10.066406 7.453125 10.066406 C 7.507812 10.066406 7.554688 10.023438 7.554688 9.964844 C 7.554688 9.910156 7.507812 9.863281 7.453125 9.863281 Z M 7.453125 9.886719 C 7.496094 9.886719 7.53125 9.921875 7.53125 9.964844 C 7.53125 10.007812 7.496094 10.042969 7.453125 10.042969 C 7.410156 10.042969 7.375 10.007812 7.375 9.964844 C 7.375 9.921875 7.410156 9.886719 7.453125 9.886719 Z M 7.453125 9.886719 "/>
<path fill-rule="evenodd" fill="rgb(99.215686%, 0%, 0%)" fill-opacity="1" d="M 7.230469 9.964844 C 7.230469 10.015625 7.191406 10.054688 7.140625 10.054688 C 7.089844 10.054688 7.050781 10.015625 7.050781 9.964844 C 7.050781 9.917969 7.09375 9.875 7.140625 9.875 C 7.191406 9.875 7.230469 9.917969 7.230469 9.964844 Z M 7.230469 9.964844 "/>
<path fill-rule="evenodd" fill="rgb(99.215686%, 0%, 0%)" fill-opacity="1" d="M 7.140625 9.863281 C 7.085938 9.863281 7.039062 9.910156 7.039062 9.964844 C 7.039062 10.023438 7.085938 10.066406 7.140625 10.066406 C 7.195312 10.066406 7.242188 10.023438 7.242188 9.964844 C 7.242188 9.910156 7.195312 9.863281 7.140625 9.863281 Z M 7.140625 9.886719 C 7.183594 9.886719 7.21875 9.921875 7.21875 9.964844 C 7.21875 10.007812 7.183594 10.042969 7.140625 10.042969 C 7.097656 10.042969 7.0625 10.007812 7.0625 9.964844 C 7.0625 9.921875 7.097656 9.886719 7.140625 9.886719 Z M 7.140625 9.886719 "/>
<path fill-rule="evenodd" fill="rgb(99.215686%, 0%, 0%)" fill-opacity="1" d="M 6.917969 9.964844 C 6.917969 10.015625 6.878906 10.054688 6.828125 10.054688 C 6.78125 10.054688 6.738281 10.015625 6.738281 9.964844 C 6.738281 9.917969 6.78125 9.875 6.828125 9.875 C 6.878906 9.875 6.917969 9.917969 6.917969 9.964844 Z M 6.917969 9.964844 "/>
<path fill-rule="evenodd" fill="rgb(99.215686%, 0%, 0%)" fill-opacity="1" d="M 6.828125 9.863281 C 6.773438 9.863281 6.726562 9.910156 6.726562 9.964844 C 6.726562 10.023438 6.773438 10.066406 6.828125 10.066406 C 6.886719 10.066406 6.929688 10.023438 6.929688 9.964844 C 6.929688 9.910156 6.886719 9.863281 6.828125 9.863281 Z M 6.828125 9.886719 C 6.871094 9.886719 6.90625 9.921875 6.90625 9.964844 C 6.90625 10.007812 6.871094 10.042969 6.828125 10.042969 C 6.785156 10.042969 6.75 10.007812 6.75 9.964844 C 6.75 9.921875 6.789062 9.886719 6.828125 9.886719 Z M 6.828125 9.886719 "/>
<path fill-rule="evenodd" fill="rgb(99.215686%, 0%, 0%)" fill-opacity="1" d="M 6.609375 9.964844 C 6.609375 10.015625 6.566406 10.054688 6.519531 10.054688 C 6.46875 10.054688 6.429688 10.015625 6.429688 9.964844 C 6.429688 9.917969 6.46875 9.875 6.519531 9.875 C 6.566406 9.875 6.609375 9.917969 6.609375 9.964844 Z M 6.609375 9.964844 "/>
<path fill-rule="evenodd" fill="rgb(99.215686%, 0%, 0%)" fill-opacity="1" d="M 6.519531 9.863281 C 6.464844 9.863281 6.417969 9.910156 6.417969 9.964844 C 6.417969 10.023438 6.460938 10.066406 6.519531 10.066406 C 6.574219 10.066406 6.621094 10.023438 6.621094 9.964844 C 6.621094 9.910156 6.574219 9.863281 6.519531 9.863281 Z M 6.519531 9.886719 C 6.5625 9.886719 6.597656 9.921875 6.597656 9.964844 C 6.597656 10.007812 6.5625 10.042969 6.519531 10.042969 C 6.476562 10.042969 6.441406 10.007812 6.441406 9.964844 C 6.441406 9.921875 6.476562 9.886719 6.519531 9.886719 Z M 6.519531 9.886719 "/>
<path fill-rule="evenodd" fill="rgb(99.215686%, 0%, 0%)" fill-opacity="1" d="M 6.296875 9.964844 C 6.296875 10.015625 6.257812 10.054688 6.207031 10.054688 C 6.15625 10.054688 6.117188 10.015625 6.117188 9.964844 C 6.117188 9.917969 6.160156 9.875 6.207031 9.875 C 6.257812 9.875 6.296875 9.917969 6.296875 9.964844 Z M 6.296875 9.964844 "/>
<path fill-rule="evenodd" fill="rgb(99.215686%, 0%, 0%)" fill-opacity="1" d="M 6.207031 9.863281 C 6.152344 9.863281 6.105469 9.910156 6.105469 9.964844 C 6.105469 10.023438 6.152344 10.066406 6.207031 10.066406 C 6.261719 10.066406 6.308594 10.023438 6.308594 9.964844 C 6.308594 9.910156 6.261719 9.863281 6.207031 9.863281 Z M 6.207031 9.886719 C 6.25 9.886719 6.285156 9.921875 6.285156 9.964844 C 6.285156 10.007812 6.25 10.042969 6.207031 10.042969 C 6.164062 10.042969 6.128906 10.007812 6.128906 9.964844 C 6.128906 9.921875 6.164062 9.886719 6.207031 9.886719 Z M 6.207031 9.886719 "/>
<path fill-rule="evenodd" fill="rgb(99.215686%, 0%, 0%)" fill-opacity="1" d="M 5.984375 9.964844 C 5.984375 10.015625 5.945312 10.054688 5.894531 10.054688 C 5.847656 10.054688 5.804688 10.015625 5.804688 9.964844 C 5.804688 9.917969 5.847656 9.875 5.894531 9.875 C 5.945312 9.875 5.984375 9.917969 5.984375 9.964844 Z M 5.984375 9.964844 "/>
<path fill-rule="evenodd" fill="rgb(99.215686%, 0%, 0%)" fill-opacity="1" d="M 5.894531 9.863281 C 5.839844 9.863281 5.792969 9.910156 5.792969 9.964844 C 5.792969 10.023438 5.839844 10.066406 5.894531 10.066406 C 5.953125 10.066406 5.996094 10.023438 5.996094 9.964844 C 5.996094 9.910156 5.953125 9.863281 5.894531 9.863281 Z M 5.894531 9.886719 C 5.9375 9.886719 5.972656 9.921875 5.972656 9.964844 C 5.972656 10.007812 5.9375 10.042969 5.894531 10.042969 C 5.851562 10.042969 5.816406 10.007812 5.816406 9.964844 C 5.816406 9.921875 5.855469 9.886719 5.894531 9.886719 Z M 5.894531 9.886719 "/>
<path fill-rule="evenodd" fill="rgb(99.215686%, 0%, 0%)" fill-opacity="1" d="M 5.671875 9.964844 C 5.671875 10.015625 5.632812 10.054688 5.582031 10.054688 C 5.535156 10.054688 5.496094 10.015625 5.496094 9.964844 C 5.496094 9.917969 5.535156 9.875 5.582031 9.875 C 5.632812 9.875 5.671875 9.917969 5.671875 9.964844 Z M 5.671875 9.964844 "/>
<path fill-rule="evenodd" fill="rgb(99.215686%, 0%, 0%)" fill-opacity="1" d="M 5.582031 9.863281 C 5.527344 9.863281 5.480469 9.910156 5.480469 9.964844 C 5.480469 10.023438 5.527344 10.066406 5.582031 10.066406 C 5.640625 10.066406 5.683594 10.023438 5.683594 9.964844 C 5.683594 9.910156 5.640625 9.863281 5.582031 9.863281 Z M 5.582031 9.886719 C 5.628906 9.886719 5.660156 9.921875 5.660156 9.964844 C 5.660156 10.007812 5.628906 10.042969 5.582031 10.042969 C 5.539062 10.042969 5.507812 10.007812 5.507812 9.964844 C 5.507812 9.921875 5.542969 9.886719 5.582031 9.886719 Z M 5.582031 9.886719 "/>
<path fill-rule="evenodd" fill="rgb(99.215686%, 0%, 0%)" fill-opacity="1" d="M 5.363281 9.964844 C 5.363281 10.015625 5.320312 10.054688 5.273438 10.054688 C 5.222656 10.054688 5.183594 10.015625 5.183594 9.964844 C 5.183594 9.917969 5.222656 9.875 5.273438 9.875 C 5.320312 9.875 5.363281 9.917969 5.363281 9.964844 Z M 5.363281 9.964844 "/>
<path fill-rule="evenodd" fill="rgb(99.215686%, 0%, 0%)" fill-opacity="1" d="M 5.273438 9.863281 C 5.21875 9.863281 5.171875 9.910156 5.171875 9.964844 C 5.171875 10.023438 5.214844 10.066406 5.273438 10.066406 C 5.328125 10.066406 5.375 10.023438 5.375 9.964844 C 5.375 9.910156 5.328125 9.863281 5.273438 9.863281 Z M 5.273438 9.886719 C 5.316406 9.886719 5.351562 9.921875 5.351562 9.964844 C 5.351562 10.007812 5.316406 10.042969 5.273438 10.042969 C 5.230469 10.042969 5.195312 10.007812 5.195312 9.964844 C 5.195312 9.921875 5.230469 9.886719 5.273438 9.886719 Z M 5.273438 9.886719 "/>
<path fill-rule="evenodd" fill="rgb(99.215686%, 0%, 0%)" fill-opacity="1" d="M 5.050781 9.964844 C 5.050781 10.015625 5.011719 10.054688 4.960938 10.054688 C 4.910156 10.054688 4.871094 10.015625 4.871094 9.964844 C 4.871094 9.917969 4.914062 9.875 4.960938 9.875 C 5.011719 9.875 5.050781 9.917969 5.050781 9.964844 Z M 5.050781 9.964844 "/>
<path fill-rule="evenodd" fill="rgb(99.215686%, 0%, 0%)" fill-opacity="1" d="M 4.960938 9.863281 C 4.90625 9.863281 4.859375 9.910156 4.859375 9.964844 C 4.859375 10.023438 4.90625 10.066406 4.960938 10.066406 C 5.015625 10.066406 5.0625 10.023438 5.0625 9.964844 C 5.0625 9.910156 5.015625 9.863281 4.960938 9.863281 Z M 4.960938 9.886719 C 5.003906 9.886719 5.039062 9.921875 5.039062 9.964844 C 5.039062 10.007812 5.003906 10.042969 4.960938 10.042969 C 4.917969 10.042969 4.882812 10.007812 4.882812 9.964844 C 4.882812 9.921875 4.917969 9.886719 4.960938 9.886719 Z M 4.960938 9.886719 "/>
<path fill-rule="evenodd" fill="rgb(99.215686%, 0%, 0%)" fill-opacity="1" d="M 4.738281 9.964844 C 4.738281 10.015625 4.699219 10.054688 4.648438 10.054688 C 4.601562 10.054688 4.558594 10.015625 4.558594 9.964844 C 4.558594 9.917969 4.601562 9.875 4.648438 9.875 C 4.699219 9.875 4.738281 9.917969 4.738281 9.964844 Z M 4.738281 9.964844 "/>
<path fill-rule="evenodd" fill="rgb(99.215686%, 0%, 0%)" fill-opacity="1" d="M 4.648438 9.863281 C 4.59375 9.863281 4.546875 9.910156 4.546875 9.964844 C 4.546875 10.023438 4.59375 10.066406 4.648438 10.066406 C 4.707031 10.066406 4.75 10.023438 4.75 9.964844 C 4.75 9.910156 4.707031 9.863281 4.648438 9.863281 Z M 4.648438 9.886719 C 4.691406 9.886719 4.726562 9.921875 4.726562 9.964844 C 4.726562 10.007812 4.691406 10.042969 4.648438 10.042969 C 4.605469 10.042969 4.570312 10.007812 4.570312 9.964844 C 4.570312 9.921875 4.609375 9.886719 4.648438 9.886719 Z M 4.648438 9.886719 "/>
<path fill-rule="evenodd" fill="rgb(99.215686%, 0%, 0%)" fill-opacity="1" d="M 4.429688 9.964844 C 4.429688 10.015625 4.386719 10.054688 4.339844 10.054688 C 4.289062 10.054688 4.25 10.015625 4.25 9.964844 C 4.25 9.917969 4.289062 9.875 4.339844 9.875 C 4.386719 9.875 4.429688 9.917969 4.429688 9.964844 Z M 4.429688 9.964844 "/>
<path fill-rule="evenodd" fill="rgb(99.215686%, 0%, 0%)" fill-opacity="1" d="M 4.339844 9.863281 C 4.285156 9.863281 4.238281 9.910156 4.238281 9.964844 C 4.238281 10.023438 4.28125 10.066406 4.339844 10.066406 C 4.394531 10.066406 4.441406 10.023438 4.441406 9.964844 C 4.441406 9.910156 4.394531 9.863281 4.339844 9.863281 Z M 4.339844 9.886719 C 4.382812 9.886719 4.417969 9.921875 4.417969 9.964844 C 4.417969 10.007812 4.382812 10.042969 4.339844 10.042969 C 4.296875 10.042969 4.261719 10.007812 4.261719 9.964844 C 4.261719 9.921875 4.296875 9.886719 4.339844 9.886719 Z M 4.339844 9.886719 "/>
<path fill-rule="evenodd" fill="rgb(99.215686%, 0%, 0%)" fill-opacity="1" d="M 4.117188 9.964844 C 4.117188 10.015625 4.078125 10.054688 4.027344 10.054688 C 3.976562 10.054688 3.9375 10.015625 3.9375 9.964844 C 3.9375 9.917969 3.980469 9.875 4.027344 9.875 C 4.078125 9.875 4.117188 9.917969 4.117188 9.964844 Z M 4.117188 9.964844 "/>
<path fill-rule="evenodd" fill="rgb(99.215686%, 0%, 0%)" fill-opacity="1" d="M 4.027344 9.863281 C 3.972656 9.863281 3.925781 9.910156 3.925781 9.964844 C 3.925781 10.023438 3.972656 10.066406 4.027344 10.066406 C 4.082031 10.066406 4.128906 10.023438 4.128906 9.964844 C 4.128906 9.910156 4.082031 9.863281 4.027344 9.863281 Z M 4.027344 9.886719 C 4.070312 9.886719 4.105469 9.921875 4.105469 9.964844 C 4.105469 10.007812 4.070312 10.042969 4.027344 10.042969 C 3.984375 10.042969 3.949219 10.007812 3.949219 9.964844 C 3.949219 9.921875 3.984375 9.886719 4.027344 9.886719 Z M 4.027344 9.886719 "/>
<path fill-rule="evenodd" fill="rgb(99.215686%, 0%, 0%)" fill-opacity="1" d="M 3.804688 9.964844 C 3.804688 10.015625 3.765625 10.054688 3.714844 10.054688 C 3.667969 10.054688 3.625 10.015625 3.625 9.964844 C 3.625 9.917969 3.667969 9.875 3.714844 9.875 C 3.765625 9.875 3.804688 9.917969 3.804688 9.964844 Z M 3.804688 9.964844 "/>
<path fill-rule="evenodd" fill="rgb(99.215686%, 0%, 0%)" fill-opacity="1" d="M 3.714844 9.863281 C 3.660156 9.863281 3.613281 9.910156 3.613281 9.964844 C 3.613281 10.023438 3.660156 10.066406 3.714844 10.066406 C 3.773438 10.066406 3.816406 10.023438 3.816406 9.964844 C 3.816406 9.910156 3.773438 9.863281 3.714844 9.863281 Z M 3.714844 9.886719 C 3.757812 9.886719 3.792969 9.921875 3.792969 9.964844 C 3.792969 10.007812 3.757812 10.042969 3.714844 10.042969 C 3.671875 10.042969 3.636719 10.007812 3.636719 9.964844 C 3.636719 9.921875 3.671875 9.886719 3.714844 9.886719 Z M 3.714844 9.886719 "/>
<path fill-rule="evenodd" fill="rgb(99.215686%, 0%, 0%)" fill-opacity="1" d="M 3.492188 9.964844 C 3.492188 10.015625 3.453125 10.054688 3.402344 10.054688 C 3.355469 10.054688 3.316406 10.015625 3.316406 9.964844 C 3.316406 9.917969 3.355469 9.875 3.402344 9.875 C 3.453125 9.875 3.492188 9.917969 3.492188 9.964844 Z M 3.492188 9.964844 "/>
<path fill-rule="evenodd" fill="rgb(99.215686%, 0%, 0%)" fill-opacity="1" d="M 3.40625 9.863281 C 3.347656 9.863281 3.300781 9.910156 3.300781 9.964844 C 3.300781 10.023438 3.347656 10.066406 3.40625 10.066406 C 3.460938 10.066406 3.507812 10.023438 3.507812 9.964844 C 3.507812 9.910156 3.460938 9.863281 3.40625 9.863281 Z M 3.40625 9.886719 C 3.449219 9.886719 3.480469 9.921875 3.480469 9.964844 C 3.480469 10.007812 3.449219 10.042969 3.40625 10.042969 C 3.359375 10.042969 3.328125 10.007812 3.328125 9.964844 C 3.328125 9.921875 3.363281 9.886719 3.40625 9.886719 Z M 3.40625 9.886719 "/>
<path fill-rule="evenodd" fill="rgb(99.215686%, 0%, 0%)" fill-opacity="1" d="M 3.183594 9.964844 C 3.183594 10.015625 3.140625 10.054688 3.09375 10.054688 C 3.042969 10.054688 3.003906 10.015625 3.003906 9.964844 C 3.003906 9.917969 3.042969 9.875 3.09375 9.875 C 3.140625 9.875 3.183594 9.917969 3.183594 9.964844 Z M 3.183594 9.964844 "/>
<path fill-rule="evenodd" fill="rgb(99.215686%, 0%, 0%)" fill-opacity="1" d="M 3.09375 9.863281 C 3.039062 9.863281 2.992188 9.910156 2.992188 9.964844 C 2.992188 10.023438 3.035156 10.066406 3.09375 10.066406 C 3.148438 10.066406 3.195312 10.023438 3.195312 9.964844 C 3.195312 9.910156 3.148438 9.863281 3.09375 9.863281 Z M 3.09375 9.886719 C 3.136719 9.886719 3.171875 9.921875 3.171875 9.964844 C 3.171875 10.007812 3.136719 10.042969 3.09375 10.042969 C 3.050781 10.042969 3.015625 10.007812 3.015625 9.964844 C 3.015625 9.921875 3.050781 9.886719 3.09375 9.886719 Z M 3.09375 9.886719 "/>
<path fill-rule="evenodd" fill="rgb(99.215686%, 0%, 0%)" fill-opacity="1" d="M 2.871094 9.964844 C 2.871094 10.015625 2.832031 10.054688 2.78125 10.054688 C 2.730469 10.054688 2.691406 10.015625 2.691406 9.964844 C 2.691406 9.917969 2.734375 9.875 2.78125 9.875 C 2.832031 9.875 2.871094 9.917969 2.871094 9.964844 Z M 2.871094 9.964844 "/>
<path fill-rule="evenodd" fill="rgb(99.215686%, 0%, 0%)" fill-opacity="1" d="M 2.78125 9.863281 C 2.726562 9.863281 2.679688 9.910156 2.679688 9.964844 C 2.679688 10.023438 2.726562 10.066406 2.78125 10.066406 C 2.835938 10.066406 2.882812 10.023438 2.882812 9.964844 C 2.882812 9.910156 2.835938 9.863281 2.78125 9.863281 Z M 2.78125 9.886719 C 2.824219 9.886719 2.859375 9.921875 2.859375 9.964844 C 2.859375 10.007812 2.824219 10.042969 2.78125 10.042969 C 2.738281 10.042969 2.703125 10.007812 2.703125 9.964844 C 2.703125 9.921875 2.738281 9.886719 2.78125 9.886719 Z M 2.78125 9.886719 "/>
<path fill-rule="evenodd" fill="rgb(99.215686%, 0%, 0%)" fill-opacity="1" d="M 2.558594 9.964844 C 2.558594 10.015625 2.519531 10.054688 2.46875 10.054688 C 2.421875 10.054688 2.378906 10.015625 2.378906 9.964844 C 2.378906 9.917969 2.421875 9.875 2.46875 9.875 C 2.519531 9.875 2.558594 9.917969 2.558594 9.964844 Z M 2.558594 9.964844 "/>
<path fill-rule="evenodd" fill="rgb(99.215686%, 0%, 0%)" fill-opacity="1" d="M 2.46875 9.863281 C 2.414062 9.863281 2.367188 9.910156 2.367188 9.964844 C 2.367188 10.023438 2.414062 10.066406 2.46875 10.066406 C 2.527344 10.066406 2.570312 10.023438 2.570312 9.964844 C 2.570312 9.910156 2.527344 9.863281 2.46875 9.863281 Z M 2.46875 9.886719 C 2.511719 9.886719 2.546875 9.921875 2.546875 9.964844 C 2.546875 10.007812 2.511719 10.042969 2.46875 10.042969 C 2.425781 10.042969 2.390625 10.007812 2.390625 9.964844 C 2.390625 9.921875 2.429688 9.886719 2.46875 9.886719 Z M 2.46875 9.886719 "/>
<path fill-rule="evenodd" fill="rgb(99.215686%, 0%, 0%)" fill-opacity="1" d="M 12.523438 9.660156 C 12.523438 9.710938 12.484375 9.75 12.433594 9.75 C 12.382812 9.75 12.34375 9.710938 12.34375 9.660156 C 12.34375 9.609375 12.386719 9.570312 12.433594 9.570312 C 12.484375 9.570312 12.523438 9.609375 12.523438 9.660156 Z M 12.523438 9.660156 "/>
<path fill-rule="evenodd" fill="rgb(99.215686%, 0%, 0%)" fill-opacity="1" d="M 12.433594 9.558594 C 12.378906 9.558594 12.332031 9.605469 12.332031 9.660156 C 12.332031 9.714844 12.378906 9.761719 12.433594 9.761719 C 12.488281 9.761719 12.535156 9.714844 12.535156 9.660156 C 12.535156 9.605469 12.488281 9.558594 12.433594 9.558594 Z M 12.433594 9.582031 C 12.476562 9.582031 12.511719 9.617188 12.511719 9.660156 C 12.511719 9.703125 12.476562 9.738281 12.433594 9.738281 C 12.390625 9.738281 12.355469 9.703125 12.355469 9.660156 C 12.355469 9.617188 12.390625 9.582031 12.433594 9.582031 Z M 12.433594 9.582031 "/>
<path fill-rule="evenodd" fill="rgb(99.215686%, 0%, 0%)" fill-opacity="1" d="M 12.210938 9.660156 C 12.210938 9.710938 12.171875 9.75 12.121094 9.75 C 12.074219 9.75 12.03125 9.710938 12.03125 9.660156 C 12.03125 9.609375 12.074219 9.570312 12.121094 9.570312 C 12.171875 9.570312 12.210938 9.609375 12.210938 9.660156 Z M 12.210938 9.660156 "/>
<path fill-rule="evenodd" fill="rgb(99.215686%, 0%, 0%)" fill-opacity="1" d="M 12.121094 9.558594 C 12.066406 9.558594 12.019531 9.605469 12.019531 9.660156 C 12.019531 9.714844 12.066406 9.761719 12.121094 9.761719 C 12.179688 9.761719 12.222656 9.714844 12.222656 9.660156 C 12.222656 9.605469 12.179688 9.558594 12.121094 9.558594 Z M 12.121094 9.582031 C 12.164062 9.582031 12.199219 9.617188 12.199219 9.660156 C 12.199219 9.703125 12.164062 9.738281 12.121094 9.738281 C 12.078125 9.738281 12.046875 9.703125 12.046875 9.660156 C 12.046875 9.617188 12.082031 9.582031 12.121094 9.582031 Z M 12.121094 9.582031 "/>
<path fill-rule="evenodd" fill="rgb(99.215686%, 0%, 0%)" fill-opacity="1" d="M 11.902344 9.660156 C 11.902344 9.710938 11.859375 9.75 11.8125 9.75 C 11.761719 9.75 11.722656 9.710938 11.722656 9.660156 C 11.722656 9.609375 11.761719 9.570312 11.8125 9.570312 C 11.859375 9.570312 11.902344 9.609375 11.902344 9.660156 Z M 11.902344 9.660156 "/>
<path fill-rule="evenodd" fill="rgb(99.215686%, 0%, 0%)" fill-opacity="1" d="M 11.8125 9.558594 C 11.757812 9.558594 11.710938 9.605469 11.710938 9.660156 C 11.710938 9.714844 11.753906 9.761719 11.8125 9.761719 C 11.867188 9.761719 11.914062 9.714844 11.914062 9.660156 C 11.914062 9.605469 11.867188 9.558594 11.8125 9.558594 Z M 11.8125 9.582031 C 11.855469 9.582031 11.890625 9.617188 11.890625 9.660156 C 11.890625 9.703125 11.855469 9.738281 11.8125 9.738281 C 11.769531 9.738281 11.734375 9.703125 11.734375 9.660156 C 11.734375 9.617188 11.769531 9.582031 11.8125 9.582031 Z M 11.8125 9.582031 "/>
<path fill-rule="evenodd" fill="rgb(99.215686%, 0%, 0%)" fill-opacity="1" d="M 11.589844 9.660156 C 11.589844 9.710938 11.550781 9.75 11.5 9.75 C 11.449219 9.75 11.410156 9.710938 11.410156 9.660156 C 11.410156 9.609375 11.453125 9.570312 11.5 9.570312 C 11.550781 9.570312 11.589844 9.609375 11.589844 9.660156 Z M 11.589844 9.660156 "/>
<path fill-rule="evenodd" fill="rgb(99.215686%, 0%, 0%)" fill-opacity="1" d="M 11.5 9.558594 C 11.445312 9.558594 11.398438 9.605469 11.398438 9.660156 C 11.398438 9.714844 11.445312 9.761719 11.5 9.761719 C 11.554688 9.761719 11.601562 9.714844 11.601562 9.660156 C 11.601562 9.605469 11.554688 9.558594 11.5 9.558594 Z M 11.5 9.582031 C 11.542969 9.582031 11.578125 9.617188 11.578125 9.660156 C 11.578125 9.703125 11.542969 9.738281 11.5 9.738281 C 11.457031 9.738281 11.421875 9.703125 11.421875 9.660156 C 11.421875 9.617188 11.457031 9.582031 11.5 9.582031 Z M 11.5 9.582031 "/>
<path fill-rule="evenodd" fill="rgb(99.215686%, 0%, 0%)" fill-opacity="1" d="M 11.277344 9.660156 C 11.277344 9.710938 11.238281 9.75 11.1875 9.75 C 11.140625 9.75 11.097656 9.710938 11.097656 9.660156 C 11.097656 9.609375 11.140625 9.570312 11.1875 9.570312 C 11.238281 9.570312 11.277344 9.609375 11.277344 9.660156 Z M 11.277344 9.660156 "/>
<path fill-rule="evenodd" fill="rgb(99.215686%, 0%, 0%)" fill-opacity="1" d="M 11.1875 9.558594 C 11.132812 9.558594 11.085938 9.605469 11.085938 9.660156 C 11.085938 9.714844 11.132812 9.761719 11.1875 9.761719 C 11.246094 9.761719 11.289062 9.714844 11.289062 9.660156 C 11.289062 9.605469 11.246094 9.558594 11.1875 9.558594 Z M 11.1875 9.582031 C 11.230469 9.582031 11.265625 9.617188 11.265625 9.660156 C 11.265625 9.703125 11.230469 9.738281 11.1875 9.738281 C 11.144531 9.738281 11.109375 9.703125 11.109375 9.660156 C 11.109375 9.617188 11.148438 9.582031 11.1875 9.582031 Z M 11.1875 9.582031 "/>
<path fill-rule="evenodd" fill="rgb(99.215686%, 0%, 0%)" fill-opacity="1" d="M 10.96875 9.660156 C 10.96875 9.710938 10.925781 9.75 10.878906 9.75 C 10.828125 9.75 10.789062 9.710938 10.789062 9.660156 C 10.789062 9.609375 10.828125 9.570312 10.878906 9.570312 C 10.925781 9.570312 10.96875 9.609375 10.96875 9.660156 Z M 10.96875 9.660156 "/>
<path fill-rule="evenodd" fill="rgb(99.215686%, 0%, 0%)" fill-opacity="1" d="M 10.878906 9.558594 C 10.820312 9.558594 10.777344 9.605469 10.777344 9.660156 C 10.777344 9.714844 10.820312 9.761719 10.878906 9.761719 C 10.933594 9.761719 10.980469 9.714844 10.980469 9.660156 C 10.980469 9.605469 10.933594 9.558594 10.878906 9.558594 Z M 10.878906 9.582031 C 10.921875 9.582031 10.953125 9.617188 10.953125 9.660156 C 10.953125 9.703125 10.921875 9.738281 10.878906 9.738281 C 10.835938 9.738281 10.800781 9.703125 10.800781 9.660156 C 10.800781 9.617188 10.835938 9.582031 10.878906 9.582031 Z M 10.878906 9.582031 "/>
<path fill-rule="evenodd" fill="rgb(99.215686%, 0%, 0%)" fill-opacity="1" d="M 10.65625 9.660156 C 10.65625 9.710938 10.617188 9.75 10.566406 9.75 C 10.515625 9.75 10.476562 9.710938 10.476562 9.660156 C 10.476562 9.609375 10.515625 9.570312 10.566406 9.570312 C 10.617188 9.570312 10.65625 9.609375 10.65625 9.660156 Z M 10.65625 9.660156 "/>
<path fill-rule="evenodd" fill="rgb(99.215686%, 0%, 0%)" fill-opacity="1" d="M 10.566406 9.558594 C 10.511719 9.558594 10.464844 9.605469 10.464844 9.660156 C 10.464844 9.714844 10.511719 9.761719 10.566406 9.761719 C 10.621094 9.761719 10.667969 9.714844 10.667969 9.660156 C 10.667969 9.605469 10.621094 9.558594 10.566406 9.558594 Z M 10.566406 9.582031 C 10.609375 9.582031 10.644531 9.617188 10.644531 9.660156 C 10.644531 9.703125 10.609375 9.738281 10.566406 9.738281 C 10.523438 9.738281 10.488281 9.703125 10.488281 9.660156 C 10.488281 9.617188 10.523438 9.582031 10.566406 9.582031 Z M 10.566406 9.582031 "/>
<path fill-rule="evenodd" fill="rgb(99.215686%, 0%, 0%)" fill-opacity="1" d="M 10.34375 9.660156 C 10.34375 9.710938 10.304688 9.75 10.253906 9.75 C 10.203125 9.75 10.164062 9.710938 10.164062 9.660156 C 10.164062 9.609375 10.207031 9.570312 10.253906 9.570312 C 10.304688 9.570312 10.34375 9.609375 10.34375 9.660156 Z M 10.34375 9.660156 "/>
<path fill-rule="evenodd" fill="rgb(99.215686%, 0%, 0%)" fill-opacity="1" d="M 10.253906 9.558594 C 10.199219 9.558594 10.152344 9.605469 10.152344 9.660156 C 10.152344 9.714844 10.199219 9.761719 10.253906 9.761719 C 10.308594 9.761719 10.355469 9.714844 10.355469 9.660156 C 10.355469 9.605469 10.308594 9.558594 10.253906 9.558594 Z M 10.253906 9.582031 C 10.296875 9.582031 10.332031 9.617188 10.332031 9.660156 C 10.332031 9.703125 10.296875 9.738281 10.253906 9.738281 C 10.210938 9.738281 10.175781 9.703125 10.175781 9.660156 C 10.175781 9.617188 10.210938 9.582031 10.253906 9.582031 Z M 10.253906 9.582031 "/>
<path fill-rule="evenodd" fill="rgb(99.215686%, 0%, 0%)" fill-opacity="1" d="M 10.03125 9.660156 C 10.03125 9.710938 9.992188 9.75 9.941406 9.75 C 9.894531 9.75 9.851562 9.710938 9.851562 9.660156 C 9.851562 9.609375 9.894531 9.570312 9.941406 9.570312 C 9.992188 9.570312 10.03125 9.609375 10.03125 9.660156 Z M 10.03125 9.660156 "/>
<path fill-rule="evenodd" fill="rgb(99.215686%, 0%, 0%)" fill-opacity="1" d="M 9.941406 9.558594 C 9.886719 9.558594 9.839844 9.605469 9.839844 9.660156 C 9.839844 9.714844 9.886719 9.761719 9.941406 9.761719 C 10 9.761719 10.042969 9.714844 10.042969 9.660156 C 10.042969 9.605469 10 9.558594 9.941406 9.558594 Z M 9.941406 9.582031 C 9.984375 9.582031 10.019531 9.617188 10.019531 9.660156 C 10.019531 9.703125 9.984375 9.738281 9.941406 9.738281 C 9.898438 9.738281 9.867188 9.703125 9.867188 9.660156 C 9.867188 9.617188 9.902344 9.582031 9.941406 9.582031 Z M 9.941406 9.582031 "/>
<path fill-rule="evenodd" fill="rgb(99.215686%, 0%, 0%)" fill-opacity="1" d="M 9.722656 9.660156 C 9.722656 9.710938 9.679688 9.75 9.632812 9.75 C 9.582031 9.75 9.542969 9.710938 9.542969 9.660156 C 9.542969 9.609375 9.582031 9.570312 9.632812 9.570312 C 9.679688 9.570312 9.722656 9.609375 9.722656 9.660156 Z M 9.722656 9.660156 "/>
<path fill-rule="evenodd" fill="rgb(99.215686%, 0%, 0%)" fill-opacity="1" d="M 9.632812 9.558594 C 9.578125 9.558594 9.53125 9.605469 9.53125 9.660156 C 9.53125 9.714844 9.574219 9.761719 9.632812 9.761719 C 9.6875 9.761719 9.734375 9.714844 9.734375 9.660156 C 9.734375 9.605469 9.6875 9.558594 9.632812 9.558594 Z M 9.632812 9.582031 C 9.675781 9.582031 9.710938 9.617188 9.710938 9.660156 C 9.710938 9.703125 9.675781 9.738281 9.632812 9.738281 C 9.589844 9.738281 9.554688 9.703125 9.554688 9.660156 C 9.554688 9.617188 9.589844 9.582031 9.632812 9.582031 Z M 9.632812 9.582031 "/>
<path fill-rule="evenodd" fill="rgb(99.215686%, 0%, 0%)" fill-opacity="1" d="M 9.410156 9.660156 C 9.410156 9.710938 9.371094 9.75 9.320312 9.75 C 9.269531 9.75 9.230469 9.710938 9.230469 9.660156 C 9.230469 9.609375 9.273438 9.570312 9.320312 9.570312 C 9.371094 9.570312 9.410156 9.609375 9.410156 9.660156 Z M 9.410156 9.660156 "/>
<path fill-rule="evenodd" fill="rgb(99.215686%, 0%, 0%)" fill-opacity="1" d="M 9.320312 9.558594 C 9.265625 9.558594 9.21875 9.605469 9.21875 9.660156 C 9.21875 9.714844 9.265625 9.761719 9.320312 9.761719 C 9.375 9.761719 9.421875 9.714844 9.421875 9.660156 C 9.421875 9.605469 9.375 9.558594 9.320312 9.558594 Z M 9.320312 9.582031 C 9.363281 9.582031 9.398438 9.617188 9.398438 9.660156 C 9.398438 9.703125 9.363281 9.738281 9.320312 9.738281 C 9.277344 9.738281 9.242188 9.703125 9.242188 9.660156 C 9.242188 9.617188 9.277344 9.582031 9.320312 9.582031 Z M 9.320312 9.582031 "/>
<path fill-rule="evenodd" fill="rgb(99.215686%, 0%, 0%)" fill-opacity="1" d="M 9.097656 9.660156 C 9.097656 9.710938 9.058594 9.75 9.007812 9.75 C 8.960938 9.75 8.917969 9.710938 8.917969 9.660156 C 8.917969 9.609375 8.960938 9.570312 9.007812 9.570312 C 9.058594 9.570312 9.097656 9.609375 9.097656 9.660156 Z M 9.097656 9.660156 "/>
<path fill-rule="evenodd" fill="rgb(99.215686%, 0%, 0%)" fill-opacity="1" d="M 9.007812 9.558594 C 8.953125 9.558594 8.90625 9.605469 8.90625 9.660156 C 8.90625 9.714844 8.953125 9.761719 9.007812 9.761719 C 9.066406 9.761719 9.109375 9.714844 9.109375 9.660156 C 9.109375 9.605469 9.066406 9.558594 9.007812 9.558594 Z M 9.007812 9.582031 C 9.050781 9.582031 9.085938 9.617188 9.085938 9.660156 C 9.085938 9.703125 9.050781 9.738281 9.007812 9.738281 C 8.964844 9.738281 8.929688 9.703125 8.929688 9.660156 C 8.929688 9.617188 8.96875 9.582031 9.007812 9.582031 Z M 9.007812 9.582031 "/>
<path fill-rule="evenodd" fill="rgb(99.215686%, 0%, 0%)" fill-opacity="1" d="M 8.789062 9.660156 C 8.789062 9.710938 8.746094 9.75 8.699219 9.75 C 8.648438 9.75 8.609375 9.710938 8.609375 9.660156 C 8.609375 9.609375 8.648438 9.570312 8.699219 9.570312 C 8.746094 9.570312 8.789062 9.609375 8.789062 9.660156 Z M 8.789062 9.660156 "/>
<path fill-rule="evenodd" fill="rgb(99.215686%, 0%, 0%)" fill-opacity="1" d="M 8.699219 9.558594 C 8.640625 9.558594 8.597656 9.605469 8.597656 9.660156 C 8.597656 9.714844 8.640625 9.761719 8.699219 9.761719 C 8.753906 9.761719 8.800781 9.714844 8.800781 9.660156 C 8.800781 9.605469 8.753906 9.558594 8.699219 9.558594 Z M 8.699219 9.582031 C 8.742188 9.582031 8.777344 9.617188 8.777344 9.660156 C 8.777344 9.703125 8.742188 9.738281 8.699219 9.738281 C 8.65625 9.738281 8.621094 9.703125 8.621094 9.660156 C 8.621094 9.617188 8.65625 9.582031 8.699219 9.582031 Z M 8.699219 9.582031 "/>
<path fill-rule="evenodd" fill="rgb(99.215686%, 0%, 0%)" fill-opacity="1" d="M 8.476562 9.660156 C 8.476562 9.710938 8.4375 9.75 8.386719 9.75 C 8.335938 9.75 8.296875 9.710938 8.296875 9.660156 C 8.296875 9.609375 8.335938 9.570312 8.386719 9.570312 C 8.4375 9.570312 8.476562 9.609375 8.476562 9.660156 Z M 8.476562 9.660156 "/>
<path fill-rule="evenodd" fill="rgb(99.215686%, 0%, 0%)" fill-opacity="1" d="M 8.386719 9.558594 C 8.332031 9.558594 8.285156 9.605469 8.285156 9.660156 C 8.285156 9.714844 8.332031 9.761719 8.386719 9.761719 C 8.441406 9.761719 8.488281 9.714844 8.488281 9.660156 C 8.488281 9.605469 8.441406 9.558594 8.386719 9.558594 Z M 8.386719 9.582031 C 8.429688 9.582031 8.464844 9.617188 8.464844 9.660156 C 8.464844 9.703125 8.429688 9.738281 8.386719 9.738281 C 8.34375 9.738281 8.308594 9.703125 8.308594 9.660156 C 8.308594 9.617188 8.34375 9.582031 8.386719 9.582031 Z M 8.386719 9.582031 "/>
<path fill-rule="evenodd" fill="rgb(99.215686%, 0%, 0%)" fill-opacity="1" d="M 8.164062 9.660156 C 8.164062 9.710938 8.125 9.75 8.074219 9.75 C 8.027344 9.75 7.984375 9.710938 7.984375 9.660156 C 7.984375 9.609375 8.027344 9.570312 8.074219 9.570312 C 8.125 9.570312 8.164062 9.609375 8.164062 9.660156 Z M 8.164062 9.660156 "/>
<path fill-rule="evenodd" fill="rgb(99.215686%, 0%, 0%)" fill-opacity="1" d="M 8.074219 9.558594 C 8.019531 9.558594 7.972656 9.605469 7.972656 9.660156 C 7.972656 9.714844 8.019531 9.761719 8.074219 9.761719 C 8.132812 9.761719 8.175781 9.714844 8.175781 9.660156 C 8.175781 9.605469 8.132812 9.558594 8.074219 9.558594 Z M 8.074219 9.582031 C 8.117188 9.582031 8.152344 9.617188 8.152344 9.660156 C 8.152344 9.703125 8.117188 9.738281 8.074219 9.738281 C 8.03125 9.738281 7.996094 9.703125 7.996094 9.660156 C 7.996094 9.617188 8.03125 9.582031 8.074219 9.582031 Z M 8.074219 9.582031 "/>
<path fill-rule="evenodd" fill="rgb(99.215686%, 0%, 0%)" fill-opacity="1" d="M 7.851562 9.660156 C 7.851562 9.710938 7.8125 9.75 7.761719 9.75 C 7.714844 9.75 7.675781 9.710938 7.675781 9.660156 C 7.675781 9.609375 7.714844 9.570312 7.761719 9.570312 C 7.8125 9.570312 7.851562 9.609375 7.851562 9.660156 Z M 7.851562 9.660156 "/>
<path fill-rule="evenodd" fill="rgb(99.215686%, 0%, 0%)" fill-opacity="1" d="M 7.761719 9.558594 C 7.707031 9.558594 7.660156 9.605469 7.660156 9.660156 C 7.660156 9.714844 7.707031 9.761719 7.761719 9.761719 C 7.820312 9.761719 7.863281 9.714844 7.863281 9.660156 C 7.863281 9.605469 7.820312 9.558594 7.761719 9.558594 Z M 7.761719 9.582031 C 7.804688 9.582031 7.839844 9.617188 7.839844 9.660156 C 7.839844 9.703125 7.804688 9.738281 7.761719 9.738281 C 7.71875 9.738281 7.6875 9.703125 7.6875 9.660156 C 7.6875 9.617188 7.722656 9.582031 7.761719 9.582031 Z M 7.761719 9.582031 "/>
<path fill-rule="evenodd" fill="rgb(99.215686%, 0%, 0%)" fill-opacity="1" d="M 7.542969 9.660156 C 7.542969 9.710938 7.5 9.75 7.453125 9.75 C 7.402344 9.75 7.363281 9.710938 7.363281 9.660156 C 7.363281 9.609375 7.402344 9.570312 7.453125 9.570312 C 7.5 9.570312 7.542969 9.609375 7.542969 9.660156 Z M 7.542969 9.660156 "/>
<path fill-rule="evenodd" fill="rgb(99.215686%, 0%, 0%)" fill-opacity="1" d="M 7.453125 9.558594 C 7.398438 9.558594 7.351562 9.605469 7.351562 9.660156 C 7.351562 9.714844 7.394531 9.761719 7.453125 9.761719 C 7.507812 9.761719 7.554688 9.714844 7.554688 9.660156 C 7.554688 9.605469 7.507812 9.558594 7.453125 9.558594 Z M 7.453125 9.582031 C 7.496094 9.582031 7.53125 9.617188 7.53125 9.660156 C 7.53125 9.703125 7.496094 9.738281 7.453125 9.738281 C 7.410156 9.738281 7.375 9.703125 7.375 9.660156 C 7.375 9.617188 7.410156 9.582031 7.453125 9.582031 Z M 7.453125 9.582031 "/>
<path fill-rule="evenodd" fill="rgb(99.215686%, 0%, 0%)" fill-opacity="1" d="M 7.230469 9.660156 C 7.230469 9.710938 7.191406 9.75 7.140625 9.75 C 7.089844 9.75 7.050781 9.710938 7.050781 9.660156 C 7.050781 9.609375 7.09375 9.570312 7.140625 9.570312 C 7.191406 9.570312 7.230469 9.609375 7.230469 9.660156 Z M 7.230469 9.660156 "/>
<path fill-rule="evenodd" fill="rgb(99.215686%, 0%, 0%)" fill-opacity="1" d="M 7.140625 9.558594 C 7.085938 9.558594 7.039062 9.605469 7.039062 9.660156 C 7.039062 9.714844 7.085938 9.761719 7.140625 9.761719 C 7.195312 9.761719 7.242188 9.714844 7.242188 9.660156 C 7.242188 9.605469 7.195312 9.558594 7.140625 9.558594 Z M 7.140625 9.582031 C 7.183594 9.582031 7.21875 9.617188 7.21875 9.660156 C 7.21875 9.703125 7.183594 9.738281 7.140625 9.738281 C 7.097656 9.738281 7.0625 9.703125 7.0625 9.660156 C 7.0625 9.617188 7.097656 9.582031 7.140625 9.582031 Z M 7.140625 9.582031 "/>
<path fill-rule="evenodd" fill="rgb(99.215686%, 0%, 0%)" fill-opacity="1" d="M 6.917969 9.660156 C 6.917969 9.710938 6.878906 9.75 6.828125 9.75 C 6.78125 9.75 6.738281 9.710938 6.738281 9.660156 C 6.738281 9.609375 6.78125 9.570312 6.828125 9.570312 C 6.878906 9.570312 6.917969 9.609375 6.917969 9.660156 Z M 6.917969 9.660156 "/>
<path fill-rule="evenodd" fill="rgb(99.215686%, 0%, 0%)" fill-opacity="1" d="M 6.828125 9.558594 C 6.773438 9.558594 6.726562 9.605469 6.726562 9.660156 C 6.726562 9.714844 6.773438 9.761719 6.828125 9.761719 C 6.886719 9.761719 6.929688 9.714844 6.929688 9.660156 C 6.929688 9.605469 6.886719 9.558594 6.828125 9.558594 Z M 6.828125 9.582031 C 6.871094 9.582031 6.90625 9.617188 6.90625 9.660156 C 6.90625 9.703125 6.871094 9.738281 6.828125 9.738281 C 6.785156 9.738281 6.75 9.703125 6.75 9.660156 C 6.75 9.617188 6.789062 9.582031 6.828125 9.582031 Z M 6.828125 9.582031 "/>
<path fill-rule="evenodd" fill="rgb(99.215686%, 0%, 0%)" fill-opacity="1" d="M 6.609375 9.660156 C 6.609375 9.710938 6.566406 9.75 6.519531 9.75 C 6.46875 9.75 6.429688 9.710938 6.429688 9.660156 C 6.429688 9.609375 6.46875 9.570312 6.519531 9.570312 C 6.566406 9.570312 6.609375 9.609375 6.609375 9.660156 Z M 6.609375 9.660156 "/>
<path fill-rule="evenodd" fill="rgb(99.215686%, 0%, 0%)" fill-opacity="1" d="M 6.519531 9.558594 C 6.464844 9.558594 6.417969 9.605469 6.417969 9.660156 C 6.417969 9.714844 6.460938 9.761719 6.519531 9.761719 C 6.574219 9.761719 6.621094 9.714844 6.621094 9.660156 C 6.621094 9.605469 6.574219 9.558594 6.519531 9.558594 Z M 6.519531 9.582031 C 6.5625 9.582031 6.597656 9.617188 6.597656 9.660156 C 6.597656 9.703125 6.5625 9.738281 6.519531 9.738281 C 6.476562 9.738281 6.441406 9.703125 6.441406 9.660156 C 6.441406 9.617188 6.476562 9.582031 6.519531 9.582031 Z M 6.519531 9.582031 "/>
<path fill-rule="evenodd" fill="rgb(99.215686%, 0%, 0%)" fill-opacity="1" d="M 6.296875 9.660156 C 6.296875 9.710938 6.257812 9.75 6.207031 9.75 C 6.15625 9.75 6.117188 9.710938 6.117188 9.660156 C 6.117188 9.609375 6.160156 9.570312 6.207031 9.570312 C 6.257812 9.570312 6.296875 9.609375 6.296875 9.660156 Z M 6.296875 9.660156 "/>
<path fill-rule="evenodd" fill="rgb(99.215686%, 0%, 0%)" fill-opacity="1" d="M 6.207031 9.558594 C 6.152344 9.558594 6.105469 9.605469 6.105469 9.660156 C 6.105469 9.714844 6.152344 9.761719 6.207031 9.761719 C 6.261719 9.761719 6.308594 9.714844 6.308594 9.660156 C 6.308594 9.605469 6.261719 9.558594 6.207031 9.558594 Z M 6.207031 9.582031 C 6.25 9.582031 6.285156 9.617188 6.285156 9.660156 C 6.285156 9.703125 6.25 9.738281 6.207031 9.738281 C 6.164062 9.738281 6.128906 9.703125 6.128906 9.660156 C 6.128906 9.617188 6.164062 9.582031 6.207031 9.582031 Z M 6.207031 9.582031 "/>
<path fill-rule="evenodd" fill="rgb(99.215686%, 0%, 0%)" fill-opacity="1" d="M 5.984375 9.660156 C 5.984375 9.710938 5.945312 9.75 5.894531 9.75 C 5.847656 9.75 5.804688 9.710938 5.804688 9.660156 C 5.804688 9.609375 5.847656 9.570312 5.894531 9.570312 C 5.945312 9.570312 5.984375 9.609375 5.984375 9.660156 Z M 5.984375 9.660156 "/>
<path fill-rule="evenodd" fill="rgb(99.215686%, 0%, 0%)" fill-opacity="1" d="M 5.894531 9.558594 C 5.839844 9.558594 5.792969 9.605469 5.792969 9.660156 C 5.792969 9.714844 5.839844 9.761719 5.894531 9.761719 C 5.953125 9.761719 5.996094 9.714844 5.996094 9.660156 C 5.996094 9.605469 5.953125 9.558594 5.894531 9.558594 Z M 5.894531 9.582031 C 5.9375 9.582031 5.972656 9.617188 5.972656 9.660156 C 5.972656 9.703125 5.9375 9.738281 5.894531 9.738281 C 5.851562 9.738281 5.816406 9.703125 5.816406 9.660156 C 5.816406 9.617188 5.855469 9.582031 5.894531 9.582031 Z M 5.894531 9.582031 "/>
<path fill-rule="evenodd" fill="rgb(99.215686%, 0%, 0%)" fill-opacity="1" d="M 5.671875 9.660156 C 5.671875 9.710938 5.632812 9.75 5.582031 9.75 C 5.535156 9.75 5.496094 9.710938 5.496094 9.660156 C 5.496094 9.609375 5.535156 9.570312 5.582031 9.570312 C 5.632812 9.570312 5.671875 9.609375 5.671875 9.660156 Z M 5.671875 9.660156 "/>
<path fill-rule="evenodd" fill="rgb(99.215686%, 0%, 0%)" fill-opacity="1" d="M 5.582031 9.558594 C 5.527344 9.558594 5.480469 9.605469 5.480469 9.660156 C 5.480469 9.714844 5.527344 9.761719 5.582031 9.761719 C 5.640625 9.761719 5.683594 9.714844 5.683594 9.660156 C 5.683594 9.605469 5.640625 9.558594 5.582031 9.558594 Z M 5.582031 9.582031 C 5.628906 9.582031 5.660156 9.617188 5.660156 9.660156 C 5.660156 9.703125 5.628906 9.738281 5.582031 9.738281 C 5.539062 9.738281 5.507812 9.703125 5.507812 9.660156 C 5.507812 9.617188 5.542969 9.582031 5.582031 9.582031 Z M 5.582031 9.582031 "/>
<path fill-rule="evenodd" fill="rgb(99.215686%, 0%, 0%)" fill-opacity="1" d="M 5.363281 9.660156 C 5.363281 9.710938 5.320312 9.75 5.273438 9.75 C 5.222656 9.75 5.183594 9.710938 5.183594 9.660156 C 5.183594 9.609375 5.222656 9.570312 5.273438 9.570312 C 5.320312 9.570312 5.363281 9.609375 5.363281 9.660156 Z M 5.363281 9.660156 "/>
<path fill-rule="evenodd" fill="rgb(99.215686%, 0%, 0%)" fill-opacity="1" d="M 5.273438 9.558594 C 5.21875 9.558594 5.171875 9.605469 5.171875 9.660156 C 5.171875 9.714844 5.214844 9.761719 5.273438 9.761719 C 5.328125 9.761719 5.375 9.714844 5.375 9.660156 C 5.375 9.605469 5.328125 9.558594 5.273438 9.558594 Z M 5.273438 9.582031 C 5.316406 9.582031 5.351562 9.617188 5.351562 9.660156 C 5.351562 9.703125 5.316406 9.738281 5.273438 9.738281 C 5.230469 9.738281 5.195312 9.703125 5.195312 9.660156 C 5.195312 9.617188 5.230469 9.582031 5.273438 9.582031 Z M 5.273438 9.582031 "/>
<path fill-rule="evenodd" fill="rgb(99.215686%, 0%, 0%)" fill-opacity="1" d="M 5.050781 9.660156 C 5.050781 9.710938 5.011719 9.75 4.960938 9.75 C 4.910156 9.75 4.871094 9.710938 4.871094 9.660156 C 4.871094 9.609375 4.914062 9.570312 4.960938 9.570312 C 5.011719 9.570312 5.050781 9.609375 5.050781 9.660156 Z M 5.050781 9.660156 "/>
<path fill-rule="evenodd" fill="rgb(99.215686%, 0%, 0%)" fill-opacity="1" d="M 4.960938 9.558594 C 4.90625 9.558594 4.859375 9.605469 4.859375 9.660156 C 4.859375 9.714844 4.90625 9.761719 4.960938 9.761719 C 5.015625 9.761719 5.0625 9.714844 5.0625 9.660156 C 5.0625 9.605469 5.015625 9.558594 4.960938 9.558594 Z M 4.960938 9.582031 C 5.003906 9.582031 5.039062 9.617188 5.039062 9.660156 C 5.039062 9.703125 5.003906 9.738281 4.960938 9.738281 C 4.917969 9.738281 4.882812 9.703125 4.882812 9.660156 C 4.882812 9.617188 4.917969 9.582031 4.960938 9.582031 Z M 4.960938 9.582031 "/>
<path fill-rule="evenodd" fill="rgb(99.215686%, 0%, 0%)" fill-opacity="1" d="M 4.738281 9.660156 C 4.738281 9.710938 4.699219 9.75 4.648438 9.75 C 4.601562 9.75 4.558594 9.710938 4.558594 9.660156 C 4.558594 9.609375 4.601562 9.570312 4.648438 9.570312 C 4.699219 9.570312 4.738281 9.609375 4.738281 9.660156 Z M 4.738281 9.660156 "/>
<path fill-rule="evenodd" fill="rgb(99.215686%, 0%, 0%)" fill-opacity="1" d="M 4.648438 9.558594 C 4.59375 9.558594 4.546875 9.605469 4.546875 9.660156 C 4.546875 9.714844 4.59375 9.761719 4.648438 9.761719 C 4.707031 9.761719 4.75 9.714844 4.75 9.660156 C 4.75 9.605469 4.707031 9.558594 4.648438 9.558594 Z M 4.648438 9.582031 C 4.691406 9.582031 4.726562 9.617188 4.726562 9.660156 C 4.726562 9.703125 4.691406 9.738281 4.648438 9.738281 C 4.605469 9.738281 4.570312 9.703125 4.570312 9.660156 C 4.570312 9.617188 4.609375 9.582031 4.648438 9.582031 Z M 4.648438 9.582031 "/>
<path fill-rule="evenodd" fill="rgb(99.215686%, 0%, 0%)" fill-opacity="1" d="M 4.429688 9.660156 C 4.429688 9.710938 4.386719 9.75 4.339844 9.75 C 4.289062 9.75 4.25 9.710938 4.25 9.660156 C 4.25 9.609375 4.289062 9.570312 4.339844 9.570312 C 4.386719 9.570312 4.429688 9.609375 4.429688 9.660156 Z M 4.429688 9.660156 "/>
<path fill-rule="evenodd" fill="rgb(99.215686%, 0%, 0%)" fill-opacity="1" d="M 4.339844 9.558594 C 4.285156 9.558594 4.238281 9.605469 4.238281 9.660156 C 4.238281 9.714844 4.28125 9.761719 4.339844 9.761719 C 4.394531 9.761719 4.441406 9.714844 4.441406 9.660156 C 4.441406 9.605469 4.394531 9.558594 4.339844 9.558594 Z M 4.339844 9.582031 C 4.382812 9.582031 4.417969 9.617188 4.417969 9.660156 C 4.417969 9.703125 4.382812 9.738281 4.339844 9.738281 C 4.296875 9.738281 4.261719 9.703125 4.261719 9.660156 C 4.261719 9.617188 4.296875 9.582031 4.339844 9.582031 Z M 4.339844 9.582031 "/>
<path fill-rule="evenodd" fill="rgb(99.215686%, 0%, 0%)" fill-opacity="1" d="M 4.117188 9.660156 C 4.117188 9.710938 4.078125 9.75 4.027344 9.75 C 3.976562 9.75 3.9375 9.710938 3.9375 9.660156 C 3.9375 9.609375 3.980469 9.570312 4.027344 9.570312 C 4.078125 9.570312 4.117188 9.609375 4.117188 9.660156 Z M 4.117188 9.660156 "/>
<path fill-rule="evenodd" fill="rgb(99.215686%, 0%, 0%)" fill-opacity="1" d="M 4.027344 9.558594 C 3.972656 9.558594 3.925781 9.605469 3.925781 9.660156 C 3.925781 9.714844 3.972656 9.761719 4.027344 9.761719 C 4.082031 9.761719 4.128906 9.714844 4.128906 9.660156 C 4.128906 9.605469 4.082031 9.558594 4.027344 9.558594 Z M 4.027344 9.582031 C 4.070312 9.582031 4.105469 9.617188 4.105469 9.660156 C 4.105469 9.703125 4.070312 9.738281 4.027344 9.738281 C 3.984375 9.738281 3.949219 9.703125 3.949219 9.660156 C 3.949219 9.617188 3.984375 9.582031 4.027344 9.582031 Z M 4.027344 9.582031 "/>
<path fill-rule="evenodd" fill="rgb(99.215686%, 0%, 0%)" fill-opacity="1" d="M 3.804688 9.660156 C 3.804688 9.710938 3.765625 9.75 3.714844 9.75 C 3.667969 9.75 3.625 9.710938 3.625 9.660156 C 3.625 9.609375 3.667969 9.570312 3.714844 9.570312 C 3.765625 9.570312 3.804688 9.609375 3.804688 9.660156 Z M 3.804688 9.660156 "/>
<path fill-rule="evenodd" fill="rgb(99.215686%, 0%, 0%)" fill-opacity="1" d="M 3.714844 9.558594 C 3.660156 9.558594 3.613281 9.605469 3.613281 9.660156 C 3.613281 9.714844 3.660156 9.761719 3.714844 9.761719 C 3.773438 9.761719 3.816406 9.714844 3.816406 9.660156 C 3.816406 9.605469 3.773438 9.558594 3.714844 9.558594 Z M 3.714844 9.582031 C 3.757812 9.582031 3.792969 9.617188 3.792969 9.660156 C 3.792969 9.703125 3.757812 9.738281 3.714844 9.738281 C 3.671875 9.738281 3.636719 9.703125 3.636719 9.660156 C 3.636719 9.617188 3.671875 9.582031 3.714844 9.582031 Z M 3.714844 9.582031 "/>
<path fill-rule="evenodd" fill="rgb(99.215686%, 0%, 0%)" fill-opacity="1" d="M 3.492188 9.660156 C 3.492188 9.710938 3.453125 9.75 3.402344 9.75 C 3.355469 9.75 3.316406 9.710938 3.316406 9.660156 C 3.316406 9.609375 3.355469 9.570312 3.402344 9.570312 C 3.453125 9.570312 3.492188 9.609375 3.492188 9.660156 Z M 3.492188 9.660156 "/>
<path fill-rule="evenodd" fill="rgb(99.215686%, 0%, 0%)" fill-opacity="1" d="M 3.40625 9.558594 C 3.347656 9.558594 3.300781 9.605469 3.300781 9.660156 C 3.300781 9.714844 3.347656 9.761719 3.40625 9.761719 C 3.460938 9.761719 3.507812 9.714844 3.507812 9.660156 C 3.507812 9.605469 3.460938 9.558594 3.40625 9.558594 Z M 3.40625 9.582031 C 3.449219 9.582031 3.480469 9.617188 3.480469 9.660156 C 3.480469 9.703125 3.449219 9.738281 3.40625 9.738281 C 3.359375 9.738281 3.328125 9.703125 3.328125 9.660156 C 3.328125 9.617188 3.363281 9.582031 3.40625 9.582031 Z M 3.40625 9.582031 "/>
<path fill-rule="evenodd" fill="rgb(99.215686%, 0%, 0%)" fill-opacity="1" d="M 3.183594 9.660156 C 3.183594 9.710938 3.140625 9.75 3.09375 9.75 C 3.042969 9.75 3.003906 9.710938 3.003906 9.660156 C 3.003906 9.609375 3.042969 9.570312 3.09375 9.570312 C 3.140625 9.570312 3.183594 9.609375 3.183594 9.660156 Z M 3.183594 9.660156 "/>
<path fill-rule="evenodd" fill="rgb(99.215686%, 0%, 0%)" fill-opacity="1" d="M 3.09375 9.558594 C 3.039062 9.558594 2.992188 9.605469 2.992188 9.660156 C 2.992188 9.714844 3.035156 9.761719 3.09375 9.761719 C 3.148438 9.761719 3.195312 9.714844 3.195312 9.660156 C 3.195312 9.605469 3.148438 9.558594 3.09375 9.558594 Z M 3.09375 9.582031 C 3.136719 9.582031 3.171875 9.617188 3.171875 9.660156 C 3.171875 9.703125 3.136719 9.738281 3.09375 9.738281 C 3.050781 9.738281 3.015625 9.703125 3.015625 9.660156 C 3.015625 9.617188 3.050781 9.582031 3.09375 9.582031 Z M 3.09375 9.582031 "/>
<path fill-rule="evenodd" fill="rgb(99.215686%, 0%, 0%)" fill-opacity="1" d="M 2.871094 9.660156 C 2.871094 9.710938 2.832031 9.75 2.78125 9.75 C 2.730469 9.75 2.691406 9.710938 2.691406 9.660156 C 2.691406 9.609375 2.734375 9.570312 2.78125 9.570312 C 2.832031 9.570312 2.871094 9.609375 2.871094 9.660156 Z M 2.871094 9.660156 "/>
<path fill-rule="evenodd" fill="rgb(99.215686%, 0%, 0%)" fill-opacity="1" d="M 2.78125 9.558594 C 2.726562 9.558594 2.679688 9.605469 2.679688 9.660156 C 2.679688 9.714844 2.726562 9.761719 2.78125 9.761719 C 2.835938 9.761719 2.882812 9.714844 2.882812 9.660156 C 2.882812 9.605469 2.835938 9.558594 2.78125 9.558594 Z M 2.78125 9.582031 C 2.824219 9.582031 2.859375 9.617188 2.859375 9.660156 C 2.859375 9.703125 2.824219 9.738281 2.78125 9.738281 C 2.738281 9.738281 2.703125 9.703125 2.703125 9.660156 C 2.703125 9.617188 2.738281 9.582031 2.78125 9.582031 Z M 2.78125 9.582031 "/>
<path fill-rule="evenodd" fill="rgb(99.215686%, 0%, 0%)" fill-opacity="1" d="M 2.558594 9.660156 C 2.558594 9.710938 2.519531 9.75 2.46875 9.75 C 2.421875 9.75 2.378906 9.710938 2.378906 9.660156 C 2.378906 9.609375 2.421875 9.570312 2.46875 9.570312 C 2.519531 9.570312 2.558594 9.609375 2.558594 9.660156 Z M 2.558594 9.660156 "/>
<path fill-rule="evenodd" fill="rgb(99.215686%, 0%, 0%)" fill-opacity="1" d="M 2.46875 9.558594 C 2.414062 9.558594 2.367188 9.605469 2.367188 9.660156 C 2.367188 9.714844 2.414062 9.761719 2.46875 9.761719 C 2.527344 9.761719 2.570312 9.714844 2.570312 9.660156 C 2.570312 9.605469 2.527344 9.558594 2.46875 9.558594 Z M 2.46875 9.582031 C 2.511719 9.582031 2.546875 9.617188 2.546875 9.660156 C 2.546875 9.703125 2.511719 9.738281 2.46875 9.738281 C 2.425781 9.738281 2.390625 9.703125 2.390625 9.660156 C 2.390625 9.617188 2.429688 9.582031 2.46875 9.582031 Z M 2.46875 9.582031 "/>
<path fill-rule="evenodd" fill="rgb(99.215686%, 0%, 0%)" fill-opacity="1" d="M 12.523438 10.277344 C 12.523438 10.324219 12.484375 10.367188 12.433594 10.367188 C 12.382812 10.367188 12.34375 10.324219 12.34375 10.277344 C 12.34375 10.226562 12.386719 10.1875 12.433594 10.1875 C 12.484375 10.1875 12.523438 10.226562 12.523438 10.277344 Z M 12.523438 10.277344 "/>
<path fill-rule="evenodd" fill="rgb(99.215686%, 0%, 0%)" fill-opacity="1" d="M 12.433594 10.175781 C 12.378906 10.175781 12.332031 10.21875 12.332031 10.277344 C 12.332031 10.332031 12.378906 10.378906 12.433594 10.378906 C 12.488281 10.378906 12.535156 10.332031 12.535156 10.277344 C 12.535156 10.21875 12.488281 10.175781 12.433594 10.175781 Z M 12.433594 10.199219 C 12.476562 10.199219 12.511719 10.234375 12.511719 10.277344 C 12.511719 10.320312 12.476562 10.351562 12.433594 10.351562 C 12.390625 10.351562 12.355469 10.320312 12.355469 10.277344 C 12.355469 10.234375 12.390625 10.199219 12.433594 10.199219 Z M 12.433594 10.199219 "/>
<path fill-rule="evenodd" fill="rgb(99.215686%, 0%, 0%)" fill-opacity="1" d="M 12.210938 10.277344 C 12.210938 10.324219 12.171875 10.367188 12.121094 10.367188 C 12.074219 10.367188 12.03125 10.324219 12.03125 10.277344 C 12.03125 10.226562 12.074219 10.1875 12.121094 10.1875 C 12.171875 10.1875 12.210938 10.226562 12.210938 10.277344 Z M 12.210938 10.277344 "/>
<path fill-rule="evenodd" fill="rgb(99.215686%, 0%, 0%)" fill-opacity="1" d="M 12.121094 10.175781 C 12.066406 10.175781 12.019531 10.21875 12.019531 10.277344 C 12.019531 10.332031 12.066406 10.378906 12.121094 10.378906 C 12.179688 10.378906 12.222656 10.332031 12.222656 10.277344 C 12.222656 10.21875 12.179688 10.175781 12.121094 10.175781 Z M 12.121094 10.199219 C 12.164062 10.199219 12.199219 10.234375 12.199219 10.277344 C 12.199219 10.320312 12.164062 10.351562 12.121094 10.351562 C 12.078125 10.351562 12.046875 10.320312 12.046875 10.277344 C 12.046875 10.234375 12.082031 10.199219 12.121094 10.199219 Z M 12.121094 10.199219 "/>
<path fill-rule="evenodd" fill="rgb(99.215686%, 0%, 0%)" fill-opacity="1" d="M 11.902344 10.277344 C 11.902344 10.324219 11.859375 10.367188 11.8125 10.367188 C 11.761719 10.367188 11.722656 10.324219 11.722656 10.277344 C 11.722656 10.226562 11.761719 10.1875 11.8125 10.1875 C 11.859375 10.1875 11.902344 10.226562 11.902344 10.277344 Z M 11.902344 10.277344 "/>
<path fill-rule="evenodd" fill="rgb(99.215686%, 0%, 0%)" fill-opacity="1" d="M 11.8125 10.175781 C 11.757812 10.175781 11.710938 10.21875 11.710938 10.277344 C 11.710938 10.332031 11.753906 10.378906 11.8125 10.378906 C 11.867188 10.378906 11.914062 10.332031 11.914062 10.277344 C 11.914062 10.21875 11.867188 10.175781 11.8125 10.175781 Z M 11.8125 10.199219 C 11.855469 10.199219 11.890625 10.234375 11.890625 10.277344 C 11.890625 10.320312 11.855469 10.351562 11.8125 10.351562 C 11.769531 10.351562 11.734375 10.320312 11.734375 10.277344 C 11.734375 10.234375 11.769531 10.199219 11.8125 10.199219 Z M 11.8125 10.199219 "/>
<path fill-rule="evenodd" fill="rgb(99.215686%, 0%, 0%)" fill-opacity="1" d="M 11.589844 10.277344 C 11.589844 10.324219 11.550781 10.367188 11.5 10.367188 C 11.449219 10.367188 11.410156 10.324219 11.410156 10.277344 C 11.410156 10.226562 11.453125 10.1875 11.5 10.1875 C 11.550781 10.1875 11.589844 10.226562 11.589844 10.277344 Z M 11.589844 10.277344 "/>
<path fill-rule="evenodd" fill="rgb(99.215686%, 0%, 0%)" fill-opacity="1" d="M 11.5 10.175781 C 11.445312 10.175781 11.398438 10.21875 11.398438 10.277344 C 11.398438 10.332031 11.445312 10.378906 11.5 10.378906 C 11.554688 10.378906 11.601562 10.332031 11.601562 10.277344 C 11.601562 10.21875 11.554688 10.175781 11.5 10.175781 Z M 11.5 10.199219 C 11.542969 10.199219 11.578125 10.234375 11.578125 10.277344 C 11.578125 10.320312 11.542969 10.351562 11.5 10.351562 C 11.457031 10.351562 11.421875 10.320312 11.421875 10.277344 C 11.421875 10.234375 11.457031 10.199219 11.5 10.199219 Z M 11.5 10.199219 "/>
<path fill-rule="evenodd" fill="rgb(99.215686%, 0%, 0%)" fill-opacity="1" d="M 11.277344 10.277344 C 11.277344 10.324219 11.238281 10.367188 11.1875 10.367188 C 11.140625 10.367188 11.097656 10.324219 11.097656 10.277344 C 11.097656 10.226562 11.140625 10.1875 11.1875 10.1875 C 11.238281 10.1875 11.277344 10.226562 11.277344 10.277344 Z M 11.277344 10.277344 "/>
<path fill-rule="evenodd" fill="rgb(99.215686%, 0%, 0%)" fill-opacity="1" d="M 11.1875 10.175781 C 11.132812 10.175781 11.085938 10.21875 11.085938 10.277344 C 11.085938 10.332031 11.132812 10.378906 11.1875 10.378906 C 11.246094 10.378906 11.289062 10.332031 11.289062 10.277344 C 11.289062 10.21875 11.246094 10.175781 11.1875 10.175781 Z M 11.1875 10.199219 C 11.230469 10.199219 11.265625 10.234375 11.265625 10.277344 C 11.265625 10.320312 11.230469 10.351562 11.1875 10.351562 C 11.144531 10.351562 11.109375 10.320312 11.109375 10.277344 C 11.109375 10.234375 11.148438 10.199219 11.1875 10.199219 Z M 11.1875 10.199219 "/>
<path fill-rule="evenodd" fill="rgb(99.215686%, 0%, 0%)" fill-opacity="1" d="M 10.96875 10.277344 C 10.96875 10.324219 10.925781 10.367188 10.878906 10.367188 C 10.828125 10.367188 10.789062 10.324219 10.789062 10.277344 C 10.789062 10.226562 10.828125 10.1875 10.878906 10.1875 C 10.925781 10.1875 10.96875 10.226562 10.96875 10.277344 Z M 10.96875 10.277344 "/>
<path fill-rule="evenodd" fill="rgb(99.215686%, 0%, 0%)" fill-opacity="1" d="M 10.878906 10.175781 C 10.820312 10.175781 10.777344 10.21875 10.777344 10.277344 C 10.777344 10.332031 10.820312 10.378906 10.878906 10.378906 C 10.933594 10.378906 10.980469 10.332031 10.980469 10.277344 C 10.980469 10.21875 10.933594 10.175781 10.878906 10.175781 Z M 10.878906 10.199219 C 10.921875 10.199219 10.953125 10.234375 10.953125 10.277344 C 10.953125 10.320312 10.921875 10.351562 10.878906 10.351562 C 10.835938 10.351562 10.800781 10.320312 10.800781 10.277344 C 10.800781 10.234375 10.835938 10.199219 10.878906 10.199219 Z M 10.878906 10.199219 "/>
<path fill-rule="evenodd" fill="rgb(99.215686%, 0%, 0%)" fill-opacity="1" d="M 10.65625 10.277344 C 10.65625 10.324219 10.617188 10.367188 10.566406 10.367188 C 10.515625 10.367188 10.476562 10.324219 10.476562 10.277344 C 10.476562 10.226562 10.515625 10.1875 10.566406 10.1875 C 10.617188 10.1875 10.65625 10.226562 10.65625 10.277344 Z M 10.65625 10.277344 "/>
<path fill-rule="evenodd" fill="rgb(99.215686%, 0%, 0%)" fill-opacity="1" d="M 10.566406 10.175781 C 10.511719 10.175781 10.464844 10.21875 10.464844 10.277344 C 10.464844 10.332031 10.511719 10.378906 10.566406 10.378906 C 10.621094 10.378906 10.667969 10.332031 10.667969 10.277344 C 10.667969 10.21875 10.621094 10.175781 10.566406 10.175781 Z M 10.566406 10.199219 C 10.609375 10.199219 10.644531 10.234375 10.644531 10.277344 C 10.644531 10.320312 10.609375 10.351562 10.566406 10.351562 C 10.523438 10.351562 10.488281 10.320312 10.488281 10.277344 C 10.488281 10.234375 10.523438 10.199219 10.566406 10.199219 Z M 10.566406 10.199219 "/>
<path fill-rule="evenodd" fill="rgb(99.215686%, 0%, 0%)" fill-opacity="1" d="M 10.34375 10.277344 C 10.34375 10.324219 10.304688 10.367188 10.253906 10.367188 C 10.203125 10.367188 10.164062 10.324219 10.164062 10.277344 C 10.164062 10.226562 10.207031 10.1875 10.253906 10.1875 C 10.304688 10.1875 10.34375 10.226562 10.34375 10.277344 Z M 10.34375 10.277344 "/>
<path fill-rule="evenodd" fill="rgb(99.215686%, 0%, 0%)" fill-opacity="1" d="M 10.253906 10.175781 C 10.199219 10.175781 10.152344 10.21875 10.152344 10.277344 C 10.152344 10.332031 10.199219 10.378906 10.253906 10.378906 C 10.308594 10.378906 10.355469 10.332031 10.355469 10.277344 C 10.355469 10.21875 10.308594 10.175781 10.253906 10.175781 Z M 10.253906 10.199219 C 10.296875 10.199219 10.332031 10.234375 10.332031 10.277344 C 10.332031 10.320312 10.296875 10.351562 10.253906 10.351562 C 10.210938 10.351562 10.175781 10.320312 10.175781 10.277344 C 10.175781 10.234375 10.210938 10.199219 10.253906 10.199219 Z M 10.253906 10.199219 "/>
<path fill-rule="evenodd" fill="rgb(99.215686%, 0%, 0%)" fill-opacity="1" d="M 10.03125 10.277344 C 10.03125 10.324219 9.992188 10.367188 9.941406 10.367188 C 9.894531 10.367188 9.851562 10.324219 9.851562 10.277344 C 9.851562 10.226562 9.894531 10.1875 9.941406 10.1875 C 9.992188 10.1875 10.03125 10.226562 10.03125 10.277344 Z M 10.03125 10.277344 "/>
<path fill-rule="evenodd" fill="rgb(99.215686%, 0%, 0%)" fill-opacity="1" d="M 9.941406 10.175781 C 9.886719 10.175781 9.839844 10.21875 9.839844 10.277344 C 9.839844 10.332031 9.886719 10.378906 9.941406 10.378906 C 10 10.378906 10.042969 10.332031 10.042969 10.277344 C 10.042969 10.21875 10 10.175781 9.941406 10.175781 Z M 9.941406 10.199219 C 9.984375 10.199219 10.019531 10.234375 10.019531 10.277344 C 10.019531 10.320312 9.984375 10.351562 9.941406 10.351562 C 9.898438 10.351562 9.867188 10.320312 9.867188 10.277344 C 9.867188 10.234375 9.902344 10.199219 9.941406 10.199219 Z M 9.941406 10.199219 "/>
<path fill-rule="evenodd" fill="rgb(99.215686%, 0%, 0%)" fill-opacity="1" d="M 9.722656 10.277344 C 9.722656 10.324219 9.679688 10.367188 9.632812 10.367188 C 9.582031 10.367188 9.542969 10.324219 9.542969 10.277344 C 9.542969 10.226562 9.582031 10.1875 9.632812 10.1875 C 9.679688 10.1875 9.722656 10.226562 9.722656 10.277344 Z M 9.722656 10.277344 "/>
<path fill-rule="evenodd" fill="rgb(99.215686%, 0%, 0%)" fill-opacity="1" d="M 9.632812 10.175781 C 9.578125 10.175781 9.53125 10.21875 9.53125 10.277344 C 9.53125 10.332031 9.574219 10.378906 9.632812 10.378906 C 9.6875 10.378906 9.734375 10.332031 9.734375 10.277344 C 9.734375 10.21875 9.6875 10.175781 9.632812 10.175781 Z M 9.632812 10.199219 C 9.675781 10.199219 9.710938 10.234375 9.710938 10.277344 C 9.710938 10.320312 9.675781 10.351562 9.632812 10.351562 C 9.589844 10.351562 9.554688 10.320312 9.554688 10.277344 C 9.554688 10.234375 9.589844 10.199219 9.632812 10.199219 Z M 9.632812 10.199219 "/>
<path fill-rule="evenodd" fill="rgb(99.215686%, 0%, 0%)" fill-opacity="1" d="M 9.410156 10.277344 C 9.410156 10.324219 9.371094 10.367188 9.320312 10.367188 C 9.269531 10.367188 9.230469 10.324219 9.230469 10.277344 C 9.230469 10.226562 9.273438 10.1875 9.320312 10.1875 C 9.371094 10.1875 9.410156 10.226562 9.410156 10.277344 Z M 9.410156 10.277344 "/>
<path fill-rule="evenodd" fill="rgb(99.215686%, 0%, 0%)" fill-opacity="1" d="M 9.320312 10.175781 C 9.265625 10.175781 9.21875 10.21875 9.21875 10.277344 C 9.21875 10.332031 9.265625 10.378906 9.320312 10.378906 C 9.375 10.378906 9.421875 10.332031 9.421875 10.277344 C 9.421875 10.21875 9.375 10.175781 9.320312 10.175781 Z M 9.320312 10.199219 C 9.363281 10.199219 9.398438 10.234375 9.398438 10.277344 C 9.398438 10.320312 9.363281 10.351562 9.320312 10.351562 C 9.277344 10.351562 9.242188 10.320312 9.242188 10.277344 C 9.242188 10.234375 9.277344 10.199219 9.320312 10.199219 Z M 9.320312 10.199219 "/>
<path fill-rule="evenodd" fill="rgb(99.215686%, 0%, 0%)" fill-opacity="1" d="M 9.097656 10.277344 C 9.097656 10.324219 9.058594 10.367188 9.007812 10.367188 C 8.960938 10.367188 8.917969 10.324219 8.917969 10.277344 C 8.917969 10.226562 8.960938 10.1875 9.007812 10.1875 C 9.058594 10.1875 9.097656 10.226562 9.097656 10.277344 Z M 9.097656 10.277344 "/>
<path fill-rule="evenodd" fill="rgb(99.215686%, 0%, 0%)" fill-opacity="1" d="M 9.007812 10.175781 C 8.953125 10.175781 8.90625 10.21875 8.90625 10.277344 C 8.90625 10.332031 8.953125 10.378906 9.007812 10.378906 C 9.066406 10.378906 9.109375 10.332031 9.109375 10.277344 C 9.109375 10.21875 9.066406 10.175781 9.007812 10.175781 Z M 9.007812 10.199219 C 9.050781 10.199219 9.085938 10.234375 9.085938 10.277344 C 9.085938 10.320312 9.050781 10.351562 9.007812 10.351562 C 8.964844 10.351562 8.929688 10.320312 8.929688 10.277344 C 8.929688 10.234375 8.96875 10.199219 9.007812 10.199219 Z M 9.007812 10.199219 "/>
<path fill-rule="evenodd" fill="rgb(99.215686%, 0%, 0%)" fill-opacity="1" d="M 8.789062 10.277344 C 8.789062 10.324219 8.746094 10.367188 8.699219 10.367188 C 8.648438 10.367188 8.609375 10.324219 8.609375 10.277344 C 8.609375 10.226562 8.648438 10.1875 8.699219 10.1875 C 8.746094 10.1875 8.789062 10.226562 8.789062 10.277344 Z M 8.789062 10.277344 "/>
<path fill-rule="evenodd" fill="rgb(99.215686%, 0%, 0%)" fill-opacity="1" d="M 8.699219 10.175781 C 8.640625 10.175781 8.597656 10.21875 8.597656 10.277344 C 8.597656 10.332031 8.640625 10.378906 8.699219 10.378906 C 8.753906 10.378906 8.800781 10.332031 8.800781 10.277344 C 8.800781 10.21875 8.753906 10.175781 8.699219 10.175781 Z M 8.699219 10.199219 C 8.742188 10.199219 8.777344 10.234375 8.777344 10.277344 C 8.777344 10.320312 8.742188 10.351562 8.699219 10.351562 C 8.65625 10.351562 8.621094 10.320312 8.621094 10.277344 C 8.621094 10.234375 8.65625 10.199219 8.699219 10.199219 Z M 8.699219 10.199219 "/>
<path fill-rule="evenodd" fill="rgb(99.215686%, 0%, 0%)" fill-opacity="1" d="M 8.476562 10.277344 C 8.476562 10.324219 8.4375 10.367188 8.386719 10.367188 C 8.335938 10.367188 8.296875 10.324219 8.296875 10.277344 C 8.296875 10.226562 8.335938 10.1875 8.386719 10.1875 C 8.4375 10.1875 8.476562 10.226562 8.476562 10.277344 Z M 8.476562 10.277344 "/>
<path fill-rule="evenodd" fill="rgb(99.215686%, 0%, 0%)" fill-opacity="1" d="M 8.386719 10.175781 C 8.332031 10.175781 8.285156 10.21875 8.285156 10.277344 C 8.285156 10.332031 8.332031 10.378906 8.386719 10.378906 C 8.441406 10.378906 8.488281 10.332031 8.488281 10.277344 C 8.488281 10.21875 8.441406 10.175781 8.386719 10.175781 Z M 8.386719 10.199219 C 8.429688 10.199219 8.464844 10.234375 8.464844 10.277344 C 8.464844 10.320312 8.429688 10.351562 8.386719 10.351562 C 8.34375 10.351562 8.308594 10.320312 8.308594 10.277344 C 8.308594 10.234375 8.34375 10.199219 8.386719 10.199219 Z M 8.386719 10.199219 "/>
<path fill-rule="evenodd" fill="rgb(99.215686%, 0%, 0%)" fill-opacity="1" d="M 8.164062 10.277344 C 8.164062 10.324219 8.125 10.367188 8.074219 10.367188 C 8.027344 10.367188 7.984375 10.324219 7.984375 10.277344 C 7.984375 10.226562 8.027344 10.1875 8.074219 10.1875 C 8.125 10.1875 8.164062 10.226562 8.164062 10.277344 Z M 8.164062 10.277344 "/>
<path fill-rule="evenodd" fill="rgb(99.215686%, 0%, 0%)" fill-opacity="1" d="M 8.074219 10.175781 C 8.019531 10.175781 7.972656 10.21875 7.972656 10.277344 C 7.972656 10.332031 8.019531 10.378906 8.074219 10.378906 C 8.132812 10.378906 8.175781 10.332031 8.175781 10.277344 C 8.175781 10.21875 8.132812 10.175781 8.074219 10.175781 Z M 8.074219 10.199219 C 8.117188 10.199219 8.152344 10.234375 8.152344 10.277344 C 8.152344 10.320312 8.117188 10.351562 8.074219 10.351562 C 8.03125 10.351562 7.996094 10.320312 7.996094 10.277344 C 7.996094 10.234375 8.03125 10.199219 8.074219 10.199219 Z M 8.074219 10.199219 "/>
<path fill-rule="evenodd" fill="rgb(99.215686%, 0%, 0%)" fill-opacity="1" d="M 7.851562 10.277344 C 7.851562 10.324219 7.8125 10.367188 7.761719 10.367188 C 7.714844 10.367188 7.675781 10.324219 7.675781 10.277344 C 7.675781 10.226562 7.714844 10.1875 7.761719 10.1875 C 7.8125 10.1875 7.851562 10.226562 7.851562 10.277344 Z M 7.851562 10.277344 "/>
<path fill-rule="evenodd" fill="rgb(99.215686%, 0%, 0%)" fill-opacity="1" d="M 7.761719 10.175781 C 7.707031 10.175781 7.660156 10.21875 7.660156 10.277344 C 7.660156 10.332031 7.707031 10.378906 7.761719 10.378906 C 7.820312 10.378906 7.863281 10.332031 7.863281 10.277344 C 7.863281 10.21875 7.820312 10.175781 7.761719 10.175781 Z M 7.761719 10.199219 C 7.804688 10.199219 7.839844 10.234375 7.839844 10.277344 C 7.839844 10.320312 7.804688 10.351562 7.761719 10.351562 C 7.71875 10.351562 7.6875 10.320312 7.6875 10.277344 C 7.6875 10.234375 7.722656 10.199219 7.761719 10.199219 Z M 7.761719 10.199219 "/>
<path fill-rule="evenodd" fill="rgb(99.215686%, 0%, 0%)" fill-opacity="1" d="M 7.542969 10.277344 C 7.542969 10.324219 7.5 10.367188 7.453125 10.367188 C 7.402344 10.367188 7.363281 10.324219 7.363281 10.277344 C 7.363281 10.226562 7.402344 10.1875 7.453125 10.1875 C 7.5 10.1875 7.542969 10.226562 7.542969 10.277344 Z M 7.542969 10.277344 "/>
<path fill-rule="evenodd" fill="rgb(99.215686%, 0%, 0%)" fill-opacity="1" d="M 7.453125 10.175781 C 7.398438 10.175781 7.351562 10.21875 7.351562 10.277344 C 7.351562 10.332031 7.394531 10.378906 7.453125 10.378906 C 7.507812 10.378906 7.554688 10.332031 7.554688 10.277344 C 7.554688 10.21875 7.507812 10.175781 7.453125 10.175781 Z M 7.453125 10.199219 C 7.496094 10.199219 7.53125 10.234375 7.53125 10.277344 C 7.53125 10.320312 7.496094 10.351562 7.453125 10.351562 C 7.410156 10.351562 7.375 10.320312 7.375 10.277344 C 7.375 10.234375 7.410156 10.199219 7.453125 10.199219 Z M 7.453125 10.199219 "/>
<path fill-rule="evenodd" fill="rgb(99.215686%, 0%, 0%)" fill-opacity="1" d="M 7.230469 10.277344 C 7.230469 10.324219 7.191406 10.367188 7.140625 10.367188 C 7.089844 10.367188 7.050781 10.324219 7.050781 10.277344 C 7.050781 10.226562 7.09375 10.1875 7.140625 10.1875 C 7.191406 10.1875 7.230469 10.226562 7.230469 10.277344 Z M 7.230469 10.277344 "/>
<path fill-rule="evenodd" fill="rgb(99.215686%, 0%, 0%)" fill-opacity="1" d="M 7.140625 10.175781 C 7.085938 10.175781 7.039062 10.21875 7.039062 10.277344 C 7.039062 10.332031 7.085938 10.378906 7.140625 10.378906 C 7.195312 10.378906 7.242188 10.332031 7.242188 10.277344 C 7.242188 10.21875 7.195312 10.175781 7.140625 10.175781 Z M 7.140625 10.199219 C 7.183594 10.199219 7.21875 10.234375 7.21875 10.277344 C 7.21875 10.320312 7.183594 10.351562 7.140625 10.351562 C 7.097656 10.351562 7.0625 10.320312 7.0625 10.277344 C 7.0625 10.234375 7.097656 10.199219 7.140625 10.199219 Z M 7.140625 10.199219 "/>
<path fill-rule="evenodd" fill="rgb(99.215686%, 0%, 0%)" fill-opacity="1" d="M 6.917969 10.277344 C 6.917969 10.324219 6.878906 10.367188 6.828125 10.367188 C 6.78125 10.367188 6.738281 10.324219 6.738281 10.277344 C 6.738281 10.226562 6.78125 10.1875 6.828125 10.1875 C 6.878906 10.1875 6.917969 10.226562 6.917969 10.277344 Z M 6.917969 10.277344 "/>
<path fill-rule="evenodd" fill="rgb(99.215686%, 0%, 0%)" fill-opacity="1" d="M 6.828125 10.175781 C 6.773438 10.175781 6.726562 10.21875 6.726562 10.277344 C 6.726562 10.332031 6.773438 10.378906 6.828125 10.378906 C 6.886719 10.378906 6.929688 10.332031 6.929688 10.277344 C 6.929688 10.21875 6.886719 10.175781 6.828125 10.175781 Z M 6.828125 10.199219 C 6.871094 10.199219 6.90625 10.234375 6.90625 10.277344 C 6.90625 10.320312 6.871094 10.351562 6.828125 10.351562 C 6.785156 10.351562 6.75 10.320312 6.75 10.277344 C 6.75 10.234375 6.789062 10.199219 6.828125 10.199219 Z M 6.828125 10.199219 "/>
<path fill-rule="evenodd" fill="rgb(99.215686%, 0%, 0%)" fill-opacity="1" d="M 6.609375 10.277344 C 6.609375 10.324219 6.566406 10.367188 6.519531 10.367188 C 6.46875 10.367188 6.429688 10.324219 6.429688 10.277344 C 6.429688 10.226562 6.46875 10.1875 6.519531 10.1875 C 6.566406 10.1875 6.609375 10.226562 6.609375 10.277344 Z M 6.609375 10.277344 "/>
<path fill-rule="evenodd" fill="rgb(99.215686%, 0%, 0%)" fill-opacity="1" d="M 6.519531 10.175781 C 6.464844 10.175781 6.417969 10.21875 6.417969 10.277344 C 6.417969 10.332031 6.460938 10.378906 6.519531 10.378906 C 6.574219 10.378906 6.621094 10.332031 6.621094 10.277344 C 6.621094 10.21875 6.574219 10.175781 6.519531 10.175781 Z M 6.519531 10.199219 C 6.5625 10.199219 6.597656 10.234375 6.597656 10.277344 C 6.597656 10.320312 6.5625 10.351562 6.519531 10.351562 C 6.476562 10.351562 6.441406 10.320312 6.441406 10.277344 C 6.441406 10.234375 6.476562 10.199219 6.519531 10.199219 Z M 6.519531 10.199219 "/>
<path fill-rule="evenodd" fill="rgb(99.215686%, 0%, 0%)" fill-opacity="1" d="M 6.296875 10.277344 C 6.296875 10.324219 6.257812 10.367188 6.207031 10.367188 C 6.15625 10.367188 6.117188 10.324219 6.117188 10.277344 C 6.117188 10.226562 6.160156 10.1875 6.207031 10.1875 C 6.257812 10.1875 6.296875 10.226562 6.296875 10.277344 Z M 6.296875 10.277344 "/>
<path fill-rule="evenodd" fill="rgb(99.215686%, 0%, 0%)" fill-opacity="1" d="M 6.207031 10.175781 C 6.152344 10.175781 6.105469 10.21875 6.105469 10.277344 C 6.105469 10.332031 6.152344 10.378906 6.207031 10.378906 C 6.261719 10.378906 6.308594 10.332031 6.308594 10.277344 C 6.308594 10.21875 6.261719 10.175781 6.207031 10.175781 Z M 6.207031 10.199219 C 6.25 10.199219 6.285156 10.234375 6.285156 10.277344 C 6.285156 10.320312 6.25 10.351562 6.207031 10.351562 C 6.164062 10.351562 6.128906 10.320312 6.128906 10.277344 C 6.128906 10.234375 6.164062 10.199219 6.207031 10.199219 Z M 6.207031 10.199219 "/>
<path fill-rule="evenodd" fill="rgb(99.215686%, 0%, 0%)" fill-opacity="1" d="M 5.984375 10.277344 C 5.984375 10.324219 5.945312 10.367188 5.894531 10.367188 C 5.847656 10.367188 5.804688 10.324219 5.804688 10.277344 C 5.804688 10.226562 5.847656 10.1875 5.894531 10.1875 C 5.945312 10.1875 5.984375 10.226562 5.984375 10.277344 Z M 5.984375 10.277344 "/>
<path fill-rule="evenodd" fill="rgb(99.215686%, 0%, 0%)" fill-opacity="1" d="M 5.894531 10.175781 C 5.839844 10.175781 5.792969 10.21875 5.792969 10.277344 C 5.792969 10.332031 5.839844 10.378906 5.894531 10.378906 C 5.953125 10.378906 5.996094 10.332031 5.996094 10.277344 C 5.996094 10.21875 5.953125 10.175781 5.894531 10.175781 Z M 5.894531 10.199219 C 5.9375 10.199219 5.972656 10.234375 5.972656 10.277344 C 5.972656 10.320312 5.9375 10.351562 5.894531 10.351562 C 5.851562 10.351562 5.816406 10.320312 5.816406 10.277344 C 5.816406 10.234375 5.855469 10.199219 5.894531 10.199219 Z M 5.894531 10.199219 "/>
<path fill-rule="evenodd" fill="rgb(99.215686%, 0%, 0%)" fill-opacity="1" d="M 5.671875 10.277344 C 5.671875 10.324219 5.632812 10.367188 5.582031 10.367188 C 5.535156 10.367188 5.496094 10.324219 5.496094 10.277344 C 5.496094 10.226562 5.535156 10.1875 5.582031 10.1875 C 5.632812 10.1875 5.671875 10.226562 5.671875 10.277344 Z M 5.671875 10.277344 "/>
<path fill-rule="evenodd" fill="rgb(99.215686%, 0%, 0%)" fill-opacity="1" d="M 5.582031 10.175781 C 5.527344 10.175781 5.480469 10.21875 5.480469 10.277344 C 5.480469 10.332031 5.527344 10.378906 5.582031 10.378906 C 5.640625 10.378906 5.683594 10.332031 5.683594 10.277344 C 5.683594 10.21875 5.640625 10.175781 5.582031 10.175781 Z M 5.582031 10.199219 C 5.628906 10.199219 5.660156 10.234375 5.660156 10.277344 C 5.660156 10.320312 5.628906 10.351562 5.582031 10.351562 C 5.539062 10.351562 5.507812 10.320312 5.507812 10.277344 C 5.507812 10.234375 5.542969 10.199219 5.582031 10.199219 Z M 5.582031 10.199219 "/>
<path fill-rule="evenodd" fill="rgb(99.215686%, 0%, 0%)" fill-opacity="1" d="M 5.363281 10.277344 C 5.363281 10.324219 5.320312 10.367188 5.273438 10.367188 C 5.222656 10.367188 5.183594 10.324219 5.183594 10.277344 C 5.183594 10.226562 5.222656 10.1875 5.273438 10.1875 C 5.320312 10.1875 5.363281 10.226562 5.363281 10.277344 Z M 5.363281 10.277344 "/>
<path fill-rule="evenodd" fill="rgb(99.215686%, 0%, 0%)" fill-opacity="1" d="M 5.273438 10.175781 C 5.21875 10.175781 5.171875 10.21875 5.171875 10.277344 C 5.171875 10.332031 5.214844 10.378906 5.273438 10.378906 C 5.328125 10.378906 5.375 10.332031 5.375 10.277344 C 5.375 10.21875 5.328125 10.175781 5.273438 10.175781 Z M 5.273438 10.199219 C 5.316406 10.199219 5.351562 10.234375 5.351562 10.277344 C 5.351562 10.320312 5.316406 10.351562 5.273438 10.351562 C 5.230469 10.351562 5.195312 10.320312 5.195312 10.277344 C 5.195312 10.234375 5.230469 10.199219 5.273438 10.199219 Z M 5.273438 10.199219 "/>
<path fill-rule="evenodd" fill="rgb(99.215686%, 0%, 0%)" fill-opacity="1" d="M 5.050781 10.277344 C 5.050781 10.324219 5.011719 10.367188 4.960938 10.367188 C 4.910156 10.367188 4.871094 10.324219 4.871094 10.277344 C 4.871094 10.226562 4.914062 10.1875 4.960938 10.1875 C 5.011719 10.1875 5.050781 10.226562 5.050781 10.277344 Z M 5.050781 10.277344 "/>
<path fill-rule="evenodd" fill="rgb(99.215686%, 0%, 0%)" fill-opacity="1" d="M 4.960938 10.175781 C 4.90625 10.175781 4.859375 10.21875 4.859375 10.277344 C 4.859375 10.332031 4.90625 10.378906 4.960938 10.378906 C 5.015625 10.378906 5.0625 10.332031 5.0625 10.277344 C 5.0625 10.21875 5.015625 10.175781 4.960938 10.175781 Z M 4.960938 10.199219 C 5.003906 10.199219 5.039062 10.234375 5.039062 10.277344 C 5.039062 10.320312 5.003906 10.351562 4.960938 10.351562 C 4.917969 10.351562 4.882812 10.320312 4.882812 10.277344 C 4.882812 10.234375 4.917969 10.199219 4.960938 10.199219 Z M 4.960938 10.199219 "/>
<path fill-rule="evenodd" fill="rgb(99.215686%, 0%, 0%)" fill-opacity="1" d="M 4.738281 10.277344 C 4.738281 10.324219 4.699219 10.367188 4.648438 10.367188 C 4.601562 10.367188 4.558594 10.324219 4.558594 10.277344 C 4.558594 10.226562 4.601562 10.1875 4.648438 10.1875 C 4.699219 10.1875 4.738281 10.226562 4.738281 10.277344 Z M 4.738281 10.277344 "/>
<path fill-rule="evenodd" fill="rgb(99.215686%, 0%, 0%)" fill-opacity="1" d="M 4.648438 10.175781 C 4.59375 10.175781 4.546875 10.21875 4.546875 10.277344 C 4.546875 10.332031 4.59375 10.378906 4.648438 10.378906 C 4.707031 10.378906 4.75 10.332031 4.75 10.277344 C 4.75 10.21875 4.707031 10.175781 4.648438 10.175781 Z M 4.648438 10.199219 C 4.691406 10.199219 4.726562 10.234375 4.726562 10.277344 C 4.726562 10.320312 4.691406 10.351562 4.648438 10.351562 C 4.605469 10.351562 4.570312 10.320312 4.570312 10.277344 C 4.570312 10.234375 4.609375 10.199219 4.648438 10.199219 Z M 4.648438 10.199219 "/>
<path fill-rule="evenodd" fill="rgb(99.215686%, 0%, 0%)" fill-opacity="1" d="M 4.429688 10.277344 C 4.429688 10.324219 4.386719 10.367188 4.339844 10.367188 C 4.289062 10.367188 4.25 10.324219 4.25 10.277344 C 4.25 10.226562 4.289062 10.1875 4.339844 10.1875 C 4.386719 10.1875 4.429688 10.226562 4.429688 10.277344 Z M 4.429688 10.277344 "/>
<path fill-rule="evenodd" fill="rgb(99.215686%, 0%, 0%)" fill-opacity="1" d="M 4.339844 10.175781 C 4.285156 10.175781 4.238281 10.21875 4.238281 10.277344 C 4.238281 10.332031 4.28125 10.378906 4.339844 10.378906 C 4.394531 10.378906 4.441406 10.332031 4.441406 10.277344 C 4.441406 10.21875 4.394531 10.175781 4.339844 10.175781 Z M 4.339844 10.199219 C 4.382812 10.199219 4.417969 10.234375 4.417969 10.277344 C 4.417969 10.320312 4.382812 10.351562 4.339844 10.351562 C 4.296875 10.351562 4.261719 10.320312 4.261719 10.277344 C 4.261719 10.234375 4.296875 10.199219 4.339844 10.199219 Z M 4.339844 10.199219 "/>
<path fill-rule="evenodd" fill="rgb(99.215686%, 0%, 0%)" fill-opacity="1" d="M 4.117188 10.277344 C 4.117188 10.324219 4.078125 10.367188 4.027344 10.367188 C 3.976562 10.367188 3.9375 10.324219 3.9375 10.277344 C 3.9375 10.226562 3.980469 10.1875 4.027344 10.1875 C 4.078125 10.1875 4.117188 10.226562 4.117188 10.277344 Z M 4.117188 10.277344 "/>
<path fill-rule="evenodd" fill="rgb(99.215686%, 0%, 0%)" fill-opacity="1" d="M 4.027344 10.175781 C 3.972656 10.175781 3.925781 10.21875 3.925781 10.277344 C 3.925781 10.332031 3.972656 10.378906 4.027344 10.378906 C 4.082031 10.378906 4.128906 10.332031 4.128906 10.277344 C 4.128906 10.21875 4.082031 10.175781 4.027344 10.175781 Z M 4.027344 10.199219 C 4.070312 10.199219 4.105469 10.234375 4.105469 10.277344 C 4.105469 10.320312 4.070312 10.351562 4.027344 10.351562 C 3.984375 10.351562 3.949219 10.320312 3.949219 10.277344 C 3.949219 10.234375 3.984375 10.199219 4.027344 10.199219 Z M 4.027344 10.199219 "/>
<path fill-rule="evenodd" fill="rgb(99.215686%, 0%, 0%)" fill-opacity="1" d="M 3.804688 10.277344 C 3.804688 10.324219 3.765625 10.367188 3.714844 10.367188 C 3.667969 10.367188 3.625 10.324219 3.625 10.277344 C 3.625 10.226562 3.667969 10.1875 3.714844 10.1875 C 3.765625 10.1875 3.804688 10.226562 3.804688 10.277344 Z M 3.804688 10.277344 "/>
<path fill-rule="evenodd" fill="rgb(99.215686%, 0%, 0%)" fill-opacity="1" d="M 3.714844 10.175781 C 3.660156 10.175781 3.613281 10.21875 3.613281 10.277344 C 3.613281 10.332031 3.660156 10.378906 3.714844 10.378906 C 3.773438 10.378906 3.816406 10.332031 3.816406 10.277344 C 3.816406 10.21875 3.773438 10.175781 3.714844 10.175781 Z M 3.714844 10.199219 C 3.757812 10.199219 3.792969 10.234375 3.792969 10.277344 C 3.792969 10.320312 3.757812 10.351562 3.714844 10.351562 C 3.671875 10.351562 3.636719 10.320312 3.636719 10.277344 C 3.636719 10.234375 3.671875 10.199219 3.714844 10.199219 Z M 3.714844 10.199219 "/>
<path fill-rule="evenodd" fill="rgb(99.215686%, 0%, 0%)" fill-opacity="1" d="M 3.492188 10.277344 C 3.492188 10.324219 3.453125 10.367188 3.402344 10.367188 C 3.355469 10.367188 3.316406 10.324219 3.316406 10.277344 C 3.316406 10.226562 3.355469 10.1875 3.402344 10.1875 C 3.453125 10.1875 3.492188 10.226562 3.492188 10.277344 Z M 3.492188 10.277344 "/>
<path fill-rule="evenodd" fill="rgb(99.215686%, 0%, 0%)" fill-opacity="1" d="M 3.40625 10.175781 C 3.347656 10.175781 3.300781 10.21875 3.300781 10.277344 C 3.300781 10.332031 3.347656 10.378906 3.40625 10.378906 C 3.460938 10.378906 3.507812 10.332031 3.507812 10.277344 C 3.507812 10.21875 3.460938 10.175781 3.40625 10.175781 Z M 3.40625 10.199219 C 3.449219 10.199219 3.480469 10.234375 3.480469 10.277344 C 3.480469 10.320312 3.449219 10.351562 3.40625 10.351562 C 3.359375 10.351562 3.328125 10.320312 3.328125 10.277344 C 3.328125 10.234375 3.363281 10.199219 3.40625 10.199219 Z M 3.40625 10.199219 "/>
<path fill-rule="evenodd" fill="rgb(99.215686%, 0%, 0%)" fill-opacity="1" d="M 3.183594 10.277344 C 3.183594 10.324219 3.140625 10.367188 3.09375 10.367188 C 3.042969 10.367188 3.003906 10.324219 3.003906 10.277344 C 3.003906 10.226562 3.042969 10.1875 3.09375 10.1875 C 3.140625 10.1875 3.183594 10.226562 3.183594 10.277344 Z M 3.183594 10.277344 "/>
<path fill-rule="evenodd" fill="rgb(99.215686%, 0%, 0%)" fill-opacity="1" d="M 3.09375 10.175781 C 3.039062 10.175781 2.992188 10.21875 2.992188 10.277344 C 2.992188 10.332031 3.035156 10.378906 3.09375 10.378906 C 3.148438 10.378906 3.195312 10.332031 3.195312 10.277344 C 3.195312 10.21875 3.148438 10.175781 3.09375 10.175781 Z M 3.09375 10.199219 C 3.136719 10.199219 3.171875 10.234375 3.171875 10.277344 C 3.171875 10.320312 3.136719 10.351562 3.09375 10.351562 C 3.050781 10.351562 3.015625 10.320312 3.015625 10.277344 C 3.015625 10.234375 3.050781 10.199219 3.09375 10.199219 Z M 3.09375 10.199219 "/>
<path fill-rule="evenodd" fill="rgb(99.215686%, 0%, 0%)" fill-opacity="1" d="M 2.871094 10.277344 C 2.871094 10.324219 2.832031 10.367188 2.78125 10.367188 C 2.730469 10.367188 2.691406 10.324219 2.691406 10.277344 C 2.691406 10.226562 2.734375 10.1875 2.78125 10.1875 C 2.832031 10.1875 2.871094 10.226562 2.871094 10.277344 Z M 2.871094 10.277344 "/>
<path fill-rule="evenodd" fill="rgb(99.215686%, 0%, 0%)" fill-opacity="1" d="M 2.78125 10.175781 C 2.726562 10.175781 2.679688 10.21875 2.679688 10.277344 C 2.679688 10.332031 2.726562 10.378906 2.78125 10.378906 C 2.835938 10.378906 2.882812 10.332031 2.882812 10.277344 C 2.882812 10.21875 2.835938 10.175781 2.78125 10.175781 Z M 2.78125 10.199219 C 2.824219 10.199219 2.859375 10.234375 2.859375 10.277344 C 2.859375 10.320312 2.824219 10.351562 2.78125 10.351562 C 2.738281 10.351562 2.703125 10.320312 2.703125 10.277344 C 2.703125 10.234375 2.738281 10.199219 2.78125 10.199219 Z M 2.78125 10.199219 "/>
<path fill-rule="evenodd" fill="rgb(99.215686%, 0%, 0%)" fill-opacity="1" d="M 2.558594 10.277344 C 2.558594 10.324219 2.519531 10.367188 2.46875 10.367188 C 2.421875 10.367188 2.378906 10.324219 2.378906 10.277344 C 2.378906 10.226562 2.421875 10.1875 2.46875 10.1875 C 2.519531 10.1875 2.558594 10.226562 2.558594 10.277344 Z M 2.558594 10.277344 "/>
<path fill-rule="evenodd" fill="rgb(99.215686%, 0%, 0%)" fill-opacity="1" d="M 2.46875 10.175781 C 2.414062 10.175781 2.367188 10.21875 2.367188 10.277344 C 2.367188 10.332031 2.414062 10.378906 2.46875 10.378906 C 2.527344 10.378906 2.570312 10.332031 2.570312 10.277344 C 2.570312 10.21875 2.527344 10.175781 2.46875 10.175781 Z M 2.46875 10.199219 C 2.511719 10.199219 2.546875 10.234375 2.546875 10.277344 C 2.546875 10.320312 2.511719 10.351562 2.46875 10.351562 C 2.425781 10.351562 2.390625 10.320312 2.390625 10.277344 C 2.390625 10.234375 2.429688 10.199219 2.46875 10.199219 Z M 2.46875 10.199219 "/>
</svg>
