<?xml version="1.0" encoding="UTF-8"?>
<svg xmlns="http://www.w3.org/2000/svg" xmlns:xlink="http://www.w3.org/1999/xlink" width="15" height="20.081963" viewBox="0 0 15 20.081963">
<path fill-rule="nonzero" fill="rgb(14.901961%, 14.901961%, 14.901961%)" fill-opacity="1" stroke-width="0.306371" stroke-linecap="round" stroke-linejoin="round" stroke="rgb(0%, 0%, 0%)" stroke-opacity="1" stroke-dasharray="0.604282 0.789321" stroke-miterlimit="4" d="M 6.574734 -0.0460917 L 202.454965 -0.0460917 C 205.653674 -0.0460917 208.364443 2.556247 208.364443 5.809171 L 208.364443 272.494711 C 208.364443 275.747635 205.653674 278.349974 202.454965 278.349974 L 6.574734 278.349974 C 3.321811 278.349974 0.719472 275.747635 0.719472 272.494711 L 0.719472 5.809171 C 0.719472 2.556247 3.321811 -0.0460917 6.574734 -0.0460917 Z M 6.574734 -0.0460917 " transform="matrix(0.0720506, 0, 0, 0.0720506, -0.0205883, 0.0150397)"/>
<path fill-rule="nonzero" fill="rgb(100%, 100%, 100%)" fill-opacity="1" d="M 3.066406 2.351562 C 3.066406 2.808594 2.695312 3.171875 2.246094 3.171875 C 1.789062 3.171875 1.425781 2.808594 1.425781 2.351562 C 1.425781 1.902344 1.789062 1.53125 2.246094 1.53125 C 2.695312 1.53125 3.066406 1.902344 3.066406 2.351562 Z M 3.066406 2.351562 "/>
<path fill-rule="nonzero" fill="rgb(100%, 100%, 100%)" fill-opacity="1" d="M 3.066406 10.394531 C 3.066406 10.851562 2.695312 11.21875 2.246094 11.21875 C 1.789062 11.21875 1.425781 10.851562 1.425781 10.394531 C 1.425781 9.945312 1.789062 9.574219 2.246094 9.574219 C 2.695312 9.574219 3.066406 9.945312 3.066406 10.394531 Z M 3.066406 10.394531 "/>
<path fill-rule="nonzero" fill="rgb(100%, 100%, 100%)" fill-opacity="1" d="M 3.066406 17.730469 C 3.066406 18.1875 2.695312 18.550781 2.246094 18.550781 C 1.789062 18.550781 1.425781 18.1875 1.425781 17.730469 C 1.425781 17.28125 1.789062 16.910156 2.246094 16.910156 C 2.695312 16.910156 3.066406 17.28125 3.066406 17.730469 Z M 3.066406 17.730469 "/>
<path fill-rule="nonzero" fill="rgb(100%, 100%, 100%)" fill-opacity="1" d="M 8.320312 17.730469 C 8.320312 18.1875 7.949219 18.550781 7.5 18.550781 C 7.042969 18.550781 6.679688 18.1875 6.679688 17.730469 C 6.679688 17.28125 7.042969 16.910156 7.5 16.910156 C 7.949219 16.910156 8.320312 17.28125 8.320312 17.730469 Z M 8.320312 17.730469 "/>
<path fill-rule="nonzero" fill="rgb(100%, 100%, 100%)" fill-opacity="1" d="M 13.574219 17.730469 C 13.574219 18.1875 13.203125 18.550781 12.753906 18.550781 C 12.300781 18.550781 11.933594 18.1875 11.933594 17.730469 C 11.933594 17.28125 12.300781 16.910156 12.753906 16.910156 C 13.203125 16.910156 13.574219 17.28125 13.574219 17.730469 Z M 13.574219 17.730469 "/>
</svg>
