<?xml version="1.0" encoding="UTF-8"?>
<svg xmlns="http://www.w3.org/2000/svg" xmlns:xlink="http://www.w3.org/1999/xlink" width="15" height="20.081963" viewBox="0 0 15 20.081963">
<path fill-rule="nonzero" fill="rgb(14.901961%, 14.901961%, 14.901961%)" fill-opacity="1" stroke-width="0.306371" stroke-linecap="round" stroke-linejoin="round" stroke="rgb(0%, 0%, 0%)" stroke-opacity="1" stroke-dasharray="0.604282 0.789321" stroke-miterlimit="4" d="M 6.574734 -0.0460917 L 202.454965 -0.0460917 C 205.653674 -0.0460917 208.364443 2.556247 208.364443 5.809171 L 208.364443 272.494711 C 208.364443 275.747635 205.653674 278.349974 202.454965 278.349974 L 6.574734 278.349974 C 3.321811 278.349974 0.719472 275.747635 0.719472 272.494711 L 0.719472 5.809171 C 0.719472 2.556247 3.321811 -0.0460917 6.574734 -0.0460917 Z M 6.574734 -0.0460917 " transform="matrix(0.0720506, 0, 0, 0.0720506, -0.0205883, 0.0150397)"/>
<path fill-rule="nonzero" fill="rgb(100%, 100%, 100%)" fill-opacity="1" d="M 13.554688 2.25 C 13.554688 2.707031 13.183594 3.070312 12.730469 3.070312 C 12.277344 3.070312 11.910156 2.707031 11.910156 2.25 C 11.910156 1.800781 12.277344 1.429688 12.730469 1.429688 C 13.183594 1.429688 13.554688 1.800781 13.554688 2.25 Z M 13.554688 2.25 "/>
<path fill-rule="nonzero" fill="rgb(100%, 100%, 100%)" fill-opacity="1" d="M 13.554688 10.039062 C 13.554688 10.496094 13.183594 10.863281 12.730469 10.863281 C 12.277344 10.863281 11.910156 10.496094 11.910156 10.039062 C 11.910156 9.589844 12.277344 9.21875 12.730469 9.21875 C 13.183594 9.21875 13.554688 9.589844 13.554688 10.039062 Z M 13.554688 10.039062 "/>
<path fill-rule="nonzero" fill="rgb(100%, 100%, 100%)" fill-opacity="1" d="M 13.554688 17.628906 C 13.554688 18.085938 13.183594 18.449219 12.730469 18.449219 C 12.277344 18.449219 11.910156 18.085938 11.910156 17.628906 C 11.910156 17.179688 12.277344 16.808594 12.730469 16.808594 C 13.183594 16.808594 13.554688 17.179688 13.554688 17.628906 Z M 13.554688 17.628906 "/>
<path fill-rule="nonzero" fill="rgb(100%, 100%, 100%)" fill-opacity="1" d="M 8.320312 10.066406 C 8.320312 10.519531 7.949219 10.886719 7.5 10.886719 C 7.042969 10.886719 6.679688 10.519531 6.679688 10.066406 C 6.679688 9.613281 7.042969 9.242188 7.5 9.242188 C 7.949219 9.242188 8.320312 9.613281 8.320312 10.066406 Z M 8.320312 10.066406 "/>
<path fill-rule="nonzero" fill="rgb(100%, 100%, 100%)" fill-opacity="1" d="M 3.089844 10.066406 C 3.089844 10.519531 2.71875 10.886719 2.269531 10.886719 C 1.8125 10.886719 1.445312 10.519531 1.445312 10.066406 C 1.445312 9.613281 1.8125 9.242188 2.269531 9.242188 C 2.71875 9.242188 3.089844 9.613281 3.089844 10.066406 Z M 3.089844 10.066406 "/>
<path fill-rule="nonzero" fill="rgb(100%, 100%, 100%)" fill-opacity="1" d="M 3.089844 2.296875 C 3.089844 2.753906 2.71875 3.117188 2.269531 3.117188 C 1.8125 3.117188 1.449219 2.753906 1.449219 2.296875 C 1.449219 1.847656 1.8125 1.476562 2.269531 1.476562 C 2.71875 1.476562 3.089844 1.847656 3.089844 2.296875 Z M 3.089844 2.296875 "/>
<path fill-rule="nonzero" fill="rgb(100%, 100%, 100%)" fill-opacity="1" d="M 3.089844 17.832031 C 3.089844 18.289062 2.71875 18.652344 2.269531 18.652344 C 1.8125 18.652344 1.449219 18.289062 1.449219 17.832031 C 1.449219 17.382812 1.8125 17.011719 2.269531 17.011719 C 2.71875 17.011719 3.089844 17.382812 3.089844 17.832031 Z M 3.089844 17.832031 "/>
</svg>
