<?xml version="1.0" encoding="UTF-8"?>
<svg xmlns="http://www.w3.org/2000/svg" xmlns:xlink="http://www.w3.org/1999/xlink" width="16" height="21.42076" viewBox="0 0 16 21.42076">
<path fill-rule="nonzero" fill="rgb(14.901961%, 14.901961%, 14.901961%)" fill-opacity="1" stroke-width="0.306371" stroke-linecap="round" stroke-linejoin="round" stroke="rgb(0%, 0%, 0%)" stroke-opacity="1" stroke-dasharray="0.604282 0.789321" stroke-miterlimit="4" d="M 6.588288 -0.0562571 L 202.475296 -0.0562571 C 205.677393 -0.0562571 208.37122 2.586744 208.37122 5.839667 L 208.37122 272.477769 C 208.37122 275.730692 205.677393 278.373693 202.475296 278.373693 L 6.588288 278.373693 C 3.335364 278.373693 0.743191 275.730692 0.743191 272.477769 L 0.743191 5.839667 C 0.743191 2.586744 3.335364 -0.0562571 6.588288 -0.0562571 Z M 6.588288 -0.0562571 " transform="matrix(0.0768539, 0, 0, 0.0768539, -0.0219609, 0.0160423)"/>
<path fill="none" stroke-width="4.180806" stroke-linecap="butt" stroke-linejoin="miter" stroke="rgb(60.392157%, 60.392157%, 60.392157%)" stroke-opacity="1" stroke-miterlimit="4" d="M 26.868235 38.724694 L 181.890387 38.724694 C 184.025118 38.724694 185.702407 40.401983 185.702407 42.485888 L 185.702407 235.831548 C 185.702407 237.915453 184.025118 239.592742 181.890387 239.592742 L 26.868235 239.592742 C 24.784331 239.592742 23.107042 237.915453 23.107042 235.831548 L 23.107042 42.485888 C 23.107042 40.401983 24.784331 38.724694 26.868235 38.724694 Z M 26.868235 38.724694 " transform="matrix(0.0768539, 0, 0, 0.0768539, -0.0219609, 0.0160423)"/>
<path fill="none" stroke-width="1.26787" stroke-linecap="butt" stroke-linejoin="miter" stroke="rgb(100%, 100%, 100%)" stroke-opacity="1" stroke-miterlimit="4" d="M 12.323763 14.851247 L 2.615016 5.149794 " transform="matrix(1.071038, 0, 0, 1.071038, 0, 0)"/>
<path fill="none" stroke-width="1.26787" stroke-linecap="butt" stroke-linejoin="miter" stroke="rgb(100%, 100%, 100%)" stroke-opacity="1" stroke-miterlimit="4" d="M 2.615016 14.851247 L 12.323763 5.149794 " transform="matrix(1.071038, 0, 0, 1.071038, 0, 0)"/>
</svg>
