<?xml version="1.0" encoding="UTF-8"?>
<svg xmlns="http://www.w3.org/2000/svg" xmlns:xlink="http://www.w3.org/1999/xlink" width="16" height="15.753849" viewBox="0 0 16 15.753849">
<path fill="none" stroke-width="0.363416" stroke-linecap="butt" stroke-linejoin="miter" stroke="rgb(0%, 0%, 0%)" stroke-opacity="1" stroke-miterlimit="4" d="M 0.18355 0.18355 L 15.812668 0.18355 L 15.812668 15.566632 L 0.18355 15.566632 Z M 0.18355 0.18355 " transform="matrix(1.000236, 0, 0, 1.000236, 0, 0)"/>
<path fill-rule="nonzero" fill="rgb(100%, 100%, 100%)" fill-opacity="1" d="M 0.183594 0.183594 L 15.816406 0.183594 L 15.816406 15.570312 L 0.183594 15.570312 Z M 0.183594 0.183594 "/>
<path fill-rule="nonzero" fill="rgb(0%, 0%, 0%)" fill-opacity="1" d="M 14.085938 14.640625 L 14.085938 10.3125 C 14.085938 6.53125 13.953125 5.570312 13.296875 4.453125 C 12.226562 2.679688 10.28125 1.644531 7.996094 1.644531 C 5.890625 1.644531 4.148438 2.480469 3.007812 4.050781 C 2.070312 5.292969 1.914062 6.203125 1.914062 10.3125 L 1.914062 14.640625 L 3.691406 14.640625 L 3.691406 10.230469 C 3.691406 7.371094 3.847656 6.179688 4.296875 5.316406 C 4.980469 4.050781 6.449219 3.1875 7.996094 3.1875 C 9.441406 3.1875 10.839844 3.917969 11.570312 5.085938 C 12.152344 6 12.308594 7.042969 12.308594 10.230469 L 12.308594 14.640625 Z M 14.085938 14.640625 "/>
<path fill-rule="nonzero" fill="rgb(0%, 0%, 0%)" fill-opacity="1" d="M 7.992188 5.351562 C 8.726562 5.351562 9.328125 5.519531 9.792969 5.863281 C 10.261719 6.207031 10.492188 6.703125 10.492188 7.347656 C 10.492188 7.683594 10.421875 7.976562 10.269531 8.222656 C 10.132812 8.472656 9.941406 8.695312 9.699219 8.890625 C 9.457031 9.078125 9.195312 9.242188 8.90625 9.390625 C 9.246094 9.554688 9.558594 9.742188 9.839844 9.953125 C 10.117188 10.152344 10.339844 10.390625 10.503906 10.664062 C 10.675781 10.9375 10.761719 11.265625 10.761719 11.644531 C 10.761719 12.347656 10.515625 12.902344 10.015625 13.316406 C 9.523438 13.71875 8.859375 13.921875 8.027344 13.921875 C 7.136719 13.921875 6.445312 13.730469 5.960938 13.339844 C 5.480469 12.941406 5.238281 12.390625 5.238281 11.679688 C 5.238281 11.296875 5.316406 10.96875 5.472656 10.6875 C 5.636719 10.40625 5.851562 10.167969 6.113281 9.964844 C 6.378906 9.761719 6.664062 9.589844 6.964844 9.453125 C 6.5625 9.214844 6.214844 8.9375 5.925781 8.609375 C 5.644531 8.273438 5.507812 7.851562 5.507812 7.335938 C 5.507812 6.90625 5.613281 6.546875 5.832031 6.261719 C 6.050781 5.964844 6.347656 5.738281 6.722656 5.582031 C 7.09375 5.425781 7.519531 5.351562 7.992188 5.351562 Z M 7.984375 6.179688 C 7.554688 6.179688 7.203125 6.285156 6.921875 6.496094 C 6.644531 6.699219 6.511719 6.992188 6.511719 7.382812 C 6.511719 7.671875 6.578125 7.914062 6.707031 8.109375 C 6.851562 8.300781 7.039062 8.46875 7.269531 8.609375 C 7.503906 8.742188 7.761719 8.871094 8.042969 8.992188 C 8.445312 8.824219 8.785156 8.617188 9.054688 8.375 C 9.335938 8.136719 9.476562 7.800781 9.476562 7.382812 C 9.476562 6.992188 9.339844 6.699219 9.070312 6.496094 C 8.796875 6.285156 8.433594 6.179688 7.984375 6.179688 Z M 6.242188 11.691406 C 6.242188 12.097656 6.386719 12.433594 6.671875 12.707031 C 6.960938 12.972656 7.40625 13.105469 8.007812 13.105469 C 8.574219 13.105469 9.007812 12.972656 9.300781 12.707031 C 9.605469 12.433594 9.757812 12.085938 9.757812 11.65625 C 9.757812 11.253906 9.597656 10.917969 9.277344 10.652344 C 8.957031 10.378906 8.535156 10.140625 8.007812 9.941406 L 7.820312 9.871094 C 7.304688 10.085938 6.914062 10.339844 6.640625 10.628906 C 6.375 10.910156 6.242188 11.265625 6.242188 11.691406 Z M 6.242188 11.691406 "/>
</svg>
