<?xml version="1.0" encoding="UTF-8"?>
<svg xmlns="http://www.w3.org/2000/svg" xmlns:xlink="http://www.w3.org/1999/xlink" width="16" height="15.753849" viewBox="0 0 16 15.753849">
<path fill="none" stroke-width="0.363416" stroke-linecap="butt" stroke-linejoin="miter" stroke="rgb(0%, 0%, 0%)" stroke-opacity="1" stroke-miterlimit="4" d="M 0.18355 0.18355 L 15.812668 0.18355 L 15.812668 15.566632 L 0.18355 15.566632 Z M 0.18355 0.18355 " transform="matrix(1.000236, 0, 0, 1.000236, 0, 0)"/>
<path fill-rule="nonzero" fill="rgb(100%, 100%, 100%)" fill-opacity="1" d="M 0.183594 0.183594 L 15.816406 0.183594 L 15.816406 15.570312 L 0.183594 15.570312 Z M 0.183594 0.183594 "/>
<path fill-rule="nonzero" fill="rgb(0%, 0%, 0%)" fill-opacity="1" d="M 14.085938 14.640625 L 14.085938 10.3125 C 14.085938 6.53125 13.953125 5.570312 13.296875 4.453125 C 12.226562 2.679688 10.28125 1.644531 7.996094 1.644531 C 5.890625 1.644531 4.148438 2.480469 3.007812 4.050781 C 2.070312 5.292969 1.914062 6.203125 1.914062 10.3125 L 1.914062 14.640625 L 3.691406 14.640625 L 3.691406 10.230469 C 3.691406 7.371094 3.847656 6.179688 4.296875 5.316406 C 4.980469 4.050781 6.449219 3.1875 7.996094 3.1875 C 9.441406 3.1875 10.839844 3.917969 11.570312 5.085938 C 12.152344 6 12.308594 7.042969 12.308594 10.230469 L 12.308594 14.640625 Z M 14.085938 14.640625 "/>
<path fill-rule="nonzero" fill="rgb(0%, 0%, 0%)" fill-opacity="1" d="M 7.195312 11.097656 C 7.195312 10.804688 7.222656 10.554688 7.277344 10.351562 C 7.335938 10.136719 7.4375 9.929688 7.578125 9.738281 C 7.71875 9.546875 7.917969 9.351562 8.160156 9.140625 C 8.457031 8.890625 8.691406 8.679688 8.851562 8.511719 C 9.015625 8.34375 9.140625 8.175781 9.203125 8.015625 C 9.273438 7.859375 9.308594 7.660156 9.308594 7.429688 C 9.308594 7.0625 9.191406 6.78125 8.953125 6.578125 C 8.714844 6.382812 8.371094 6.28125 7.921875 6.28125 C 7.546875 6.28125 7.210938 6.332031 6.921875 6.429688 C 6.628906 6.523438 6.351562 6.636719 6.078125 6.765625 L 5.726562 5.960938 C 6.03125 5.796875 6.367188 5.667969 6.734375 5.558594 C 7.109375 5.453125 7.527344 5.394531 7.988281 5.394531 C 8.714844 5.394531 9.277344 5.578125 9.675781 5.9375 C 10.078125 6.296875 10.273438 6.789062 10.273438 7.40625 C 10.273438 7.753906 10.21875 8.046875 10.101562 8.292969 C 9.996094 8.53125 9.835938 8.753906 9.632812 8.957031 C 9.429688 9.160156 9.195312 9.371094 8.921875 9.601562 C 8.667969 9.816406 8.472656 10.003906 8.332031 10.167969 C 8.203125 10.328125 8.113281 10.484375 8.070312 10.648438 C 8.023438 10.800781 8 10.988281 8 11.210938 L 8 11.40625 L 7.195312 11.40625 Z M 6.929688 13.09375 C 6.929688 12.8125 6.996094 12.609375 7.128906 12.496094 C 7.265625 12.382812 7.4375 12.328125 7.640625 12.328125 C 7.835938 12.328125 8 12.382812 8.140625 12.496094 C 8.273438 12.609375 8.34375 12.8125 8.34375 13.09375 C 8.34375 13.371094 8.273438 13.570312 8.140625 13.691406 C 8 13.816406 7.835938 13.875 7.640625 13.875 C 7.4375 13.875 7.265625 13.816406 7.128906 13.691406 C 6.996094 13.570312 6.929688 13.371094 6.929688 13.09375 Z M 6.929688 13.09375 "/>
</svg>
