<?xml version="1.0" encoding="UTF-8"?>
<svg xmlns="http://www.w3.org/2000/svg" xmlns:xlink="http://www.w3.org/1999/xlink" width="16" height="15.753849" viewBox="0 0 16 15.753849">
<path fill="none" stroke-width="0.363416" stroke-linecap="butt" stroke-linejoin="miter" stroke="rgb(0%, 0%, 0%)" stroke-opacity="1" stroke-miterlimit="4" d="M 0.18355 0.18355 L 15.812668 0.18355 L 15.812668 15.566632 L 0.18355 15.566632 Z M 0.18355 0.18355 " transform="matrix(1.000236, 0, 0, 1.000236, 0, 0)"/>
<path fill-rule="nonzero" fill="rgb(100%, 100%, 100%)" fill-opacity="1" d="M 0.183594 0.183594 L 15.816406 0.183594 L 15.816406 15.570312 L 0.183594 15.570312 Z M 0.183594 0.183594 "/>
<path fill-rule="nonzero" fill="rgb(0%, 0%, 0%)" fill-opacity="1" d="M 14.085938 14.640625 L 14.085938 10.3125 C 14.085938 6.53125 13.953125 5.570312 13.296875 4.453125 C 12.226562 2.679688 10.28125 1.644531 7.996094 1.644531 C 5.890625 1.644531 4.148438 2.480469 3.007812 4.050781 C 2.070312 5.292969 1.914062 6.203125 1.914062 10.3125 L 1.914062 14.640625 L 3.691406 14.640625 L 3.691406 10.230469 C 3.691406 7.371094 3.847656 6.179688 4.296875 5.316406 C 4.980469 4.050781 6.449219 3.1875 7.996094 3.1875 C 9.441406 3.1875 10.839844 3.917969 11.570312 5.085938 C 12.152344 6 12.308594 7.042969 12.308594 10.230469 L 12.308594 14.640625 Z M 14.085938 14.640625 "/>
<path fill-rule="nonzero" fill="rgb(0%, 0%, 0%)" fill-opacity="1" d="M 7.835938 8.691406 C 8.695312 8.691406 9.375 8.90625 9.878906 9.332031 C 10.386719 9.761719 10.640625 10.363281 10.640625 11.140625 C 10.640625 12.007812 10.363281 12.6875 9.808594 13.1875 C 9.265625 13.675781 8.503906 13.921875 7.519531 13.921875 C 7.09375 13.921875 6.6875 13.882812 6.304688 13.804688 C 5.933594 13.730469 5.617188 13.613281 5.359375 13.46875 L 5.359375 12.496094 C 5.640625 12.671875 5.980469 12.804688 6.378906 12.90625 C 6.78125 13 7.167969 13.046875 7.53125 13.046875 C 8.148438 13.046875 8.640625 12.902344 9.015625 12.613281 C 9.394531 12.320312 9.585938 11.863281 9.585938 11.246094 C 9.585938 10.703125 9.421875 10.289062 9.085938 10 C 8.75 9.703125 8.222656 9.554688 7.496094 9.554688 C 7.28125 9.554688 7.03125 9.574219 6.75 9.613281 C 6.46875 9.652344 6.242188 9.691406 6.074219 9.730469 L 5.558594 9.402344 L 5.875 5.46875 L 10.054688 5.46875 L 10.054688 6.402344 L 6.75 6.402344 L 6.550781 8.820312 C 6.683594 8.796875 6.863281 8.765625 7.089844 8.734375 C 7.316406 8.703125 7.5625 8.691406 7.835938 8.691406 Z M 7.835938 8.691406 "/>
</svg>
