<?xml version="1.0" encoding="UTF-8"?>
<svg xmlns="http://www.w3.org/2000/svg" xmlns:xlink="http://www.w3.org/1999/xlink" width="16" height="15.753849" viewBox="0 0 16 15.753849">
<path fill="none" stroke-width="0.363416" stroke-linecap="butt" stroke-linejoin="miter" stroke="rgb(0%, 0%, 0%)" stroke-opacity="1" stroke-miterlimit="4" d="M 0.18355 0.18355 L 15.812668 0.18355 L 15.812668 15.566632 L 0.18355 15.566632 Z M 0.18355 0.18355 " transform="matrix(1.000236, 0, 0, 1.000236, 0, 0)"/>
<path fill-rule="nonzero" fill="rgb(100%, 100%, 100%)" fill-opacity="1" d="M 0.183594 0.183594 L 15.816406 0.183594 L 15.816406 15.570312 L 0.183594 15.570312 Z M 0.183594 0.183594 "/>
<path fill-rule="nonzero" fill="rgb(0%, 0%, 0%)" fill-opacity="1" d="M 14.085938 14.640625 L 14.085938 10.3125 C 14.085938 6.53125 13.953125 5.570312 13.296875 4.453125 C 12.226562 2.679688 10.28125 1.644531 7.996094 1.644531 C 5.890625 1.644531 4.148438 2.480469 3.007812 4.050781 C 2.070312 5.292969 1.914062 6.203125 1.914062 10.3125 L 1.914062 14.640625 L 3.691406 14.640625 L 3.691406 10.230469 C 3.691406 7.371094 3.847656 6.179688 4.296875 5.316406 C 4.980469 4.050781 6.449219 3.1875 7.996094 3.1875 C 9.441406 3.1875 10.839844 3.917969 11.570312 5.085938 C 12.152344 6 12.308594 7.042969 12.308594 10.230469 L 12.308594 14.640625 Z M 14.085938 14.640625 "/>
<path fill-rule="nonzero" fill="rgb(0%, 0%, 0%)" fill-opacity="1" d="M 10.484375 7.417969 C 10.484375 7.980469 10.332031 8.425781 10.019531 8.761719 C 9.707031 9.085938 9.289062 9.304688 8.761719 9.414062 L 8.761719 9.460938 C 9.425781 9.539062 9.925781 9.75 10.253906 10.09375 C 10.578125 10.433594 10.742188 10.882812 10.742188 11.433594 C 10.742188 11.917969 10.632812 12.351562 10.40625 12.734375 C 10.179688 13.105469 9.828125 13.394531 9.355469 13.609375 C 8.890625 13.816406 8.285156 13.921875 7.546875 13.921875 C 7.109375 13.921875 6.703125 13.890625 6.328125 13.816406 C 5.953125 13.753906 5.597656 13.640625 5.257812 13.46875 L 5.257812 12.511719 C 5.609375 12.679688 5.984375 12.816406 6.390625 12.917969 C 6.792969 13.011719 7.183594 13.058594 7.554688 13.058594 C 8.300781 13.058594 8.839844 12.914062 9.167969 12.625 C 9.503906 12.328125 9.671875 11.925781 9.671875 11.414062 C 9.671875 10.890625 9.464844 10.515625 9.050781 10.292969 C 8.644531 10.054688 8.074219 9.941406 7.332031 9.941406 L 6.527344 9.941406 L 6.527344 9.066406 L 7.347656 9.066406 C 8.03125 9.066406 8.546875 8.921875 8.898438 8.632812 C 9.257812 8.34375 9.4375 7.960938 9.4375 7.488281 C 9.4375 7.082031 9.296875 6.769531 9.027344 6.550781 C 8.753906 6.328125 8.386719 6.214844 7.917969 6.214844 C 7.464844 6.214844 7.078125 6.28125 6.761719 6.414062 C 6.445312 6.546875 6.128906 6.710938 5.816406 6.917969 L 5.300781 6.214844 C 5.597656 5.984375 5.964844 5.777344 6.398438 5.609375 C 6.84375 5.4375 7.347656 5.351562 7.90625 5.351562 C 8.777344 5.351562 9.421875 5.546875 9.84375 5.933594 C 10.273438 6.324219 10.484375 6.820312 10.484375 7.417969 Z M 10.484375 7.417969 "/>
</svg>
