<?xml version="1.0" encoding="UTF-8"?>
<svg xmlns="http://www.w3.org/2000/svg" xmlns:xlink="http://www.w3.org/1999/xlink" width="16" height="15.753849" viewBox="0 0 16 15.753849">
<path fill="none" stroke-width="0.363416" stroke-linecap="butt" stroke-linejoin="miter" stroke="rgb(0%, 0%, 0%)" stroke-opacity="1" stroke-miterlimit="4" d="M 0.18355 0.18355 L 15.812668 0.18355 L 15.812668 15.566632 L 0.18355 15.566632 Z M 0.18355 0.18355 " transform="matrix(1.000236, 0, 0, 1.000236, 0, 0)"/>
<path fill-rule="nonzero" fill="rgb(100%, 100%, 100%)" fill-opacity="1" d="M 0.183594 0.183594 L 15.816406 0.183594 L 15.816406 15.570312 L 0.183594 15.570312 Z M 0.183594 0.183594 "/>
<path fill-rule="nonzero" fill="rgb(0%, 0%, 0%)" fill-opacity="1" d="M 14.085938 14.640625 L 14.085938 10.3125 C 14.085938 6.53125 13.953125 5.570312 13.296875 4.453125 C 12.226562 2.679688 10.28125 1.644531 7.996094 1.644531 C 5.890625 1.644531 4.148438 2.480469 3.007812 4.050781 C 2.070312 5.292969 1.914062 6.203125 1.914062 10.3125 L 1.914062 14.640625 L 3.691406 14.640625 L 3.691406 10.230469 C 3.691406 7.371094 3.847656 6.179688 4.296875 5.316406 C 4.980469 4.050781 6.449219 3.1875 7.996094 3.1875 C 9.441406 3.1875 10.839844 3.917969 11.570312 5.085938 C 12.152344 6 12.308594 7.042969 12.308594 10.230469 L 12.308594 14.640625 Z M 14.085938 14.640625 "/>
<path fill-rule="nonzero" fill="rgb(0%, 0%, 0%)" fill-opacity="1" d="M 11.09375 11.917969 L 9.890625 11.917969 L 9.890625 13.808594 L 8.890625 13.808594 L 8.890625 11.917969 L 4.90625 11.917969 L 4.90625 11.042969 L 8.828125 5.433594 L 9.890625 5.433594 L 9.890625 10.996094 L 11.09375 10.996094 Z M 8.890625 8.371094 C 8.890625 7.964844 8.894531 7.621094 8.90625 7.339844 C 8.925781 7.058594 8.941406 6.789062 8.953125 6.527344 L 8.90625 6.527344 C 8.84375 6.675781 8.765625 6.835938 8.671875 7.011719 C 8.578125 7.179688 8.488281 7.320312 8.40625 7.433594 L 5.90625 10.996094 L 8.890625 10.996094 Z M 4.65625 1.324219 "/>
</svg>
