<?xml version="1.0" encoding="UTF-8"?>
<svg xmlns="http://www.w3.org/2000/svg" xmlns:xlink="http://www.w3.org/1999/xlink" width="16" height="15.753849" viewBox="0 0 16 15.753849">
<path fill="none" stroke-width="0.363416" stroke-linecap="butt" stroke-linejoin="miter" stroke="rgb(0%, 0%, 0%)" stroke-opacity="1" stroke-miterlimit="4" d="M 0.18355 0.18355 L 15.812668 0.18355 L 15.812668 15.566632 L 0.18355 15.566632 Z M 0.18355 0.18355 " transform="matrix(1.000236, 0, 0, 1.000236, 0, 0)"/>
<path fill-rule="nonzero" fill="rgb(100%, 100%, 100%)" fill-opacity="1" d="M 0.183594 0.183594 L 15.816406 0.183594 L 15.816406 15.570312 L 0.183594 15.570312 Z M 0.183594 0.183594 "/>
<path fill-rule="nonzero" fill="rgb(0%, 0%, 0%)" fill-opacity="1" d="M 14.085938 14.640625 L 14.085938 10.3125 C 14.085938 6.53125 13.953125 5.570312 13.296875 4.453125 C 12.226562 2.679688 10.28125 1.644531 7.996094 1.644531 C 5.890625 1.644531 4.148438 2.480469 3.007812 4.050781 C 2.070312 5.292969 1.914062 6.203125 1.914062 10.3125 L 1.914062 14.640625 L 3.691406 14.640625 L 3.691406 10.230469 C 3.691406 7.371094 3.847656 6.179688 4.296875 5.316406 C 4.980469 4.050781 6.449219 3.1875 7.996094 3.1875 C 9.441406 3.1875 10.839844 3.917969 11.570312 5.085938 C 12.152344 6 12.308594 7.042969 12.308594 10.230469 L 12.308594 14.640625 Z M 14.085938 14.640625 "/>
<path fill-rule="nonzero" fill="rgb(0%, 0%, 0%)" fill-opacity="1" d="M 6.277344 13.804688 L 9.699219 6.402344 L 5.203125 6.402344 L 5.203125 5.46875 L 10.796875 5.46875 L 10.796875 6.261719 L 7.410156 13.804688 Z M 6.277344 13.804688 "/>
</svg>
