<?xml version="1.0" encoding="UTF-8"?>
<svg xmlns="http://www.w3.org/2000/svg" xmlns:xlink="http://www.w3.org/1999/xlink" width="16" height="15.753849" viewBox="0 0 16 15.753849">
<path fill="none" stroke-width="0.363416" stroke-linecap="butt" stroke-linejoin="miter" stroke="rgb(0%, 0%, 0%)" stroke-opacity="1" stroke-miterlimit="4" d="M 0.18355 0.18355 L 15.812668 0.18355 L 15.812668 15.566632 L 0.18355 15.566632 Z M 0.18355 0.18355 " transform="matrix(1.000236, 0, 0, 1.000236, 0, 0)"/>
<path fill-rule="nonzero" fill="rgb(100%, 100%, 100%)" fill-opacity="1" d="M 0.183594 0.183594 L 15.816406 0.183594 L 15.816406 15.570312 L 0.183594 15.570312 Z M 0.183594 0.183594 "/>
<path fill-rule="nonzero" fill="rgb(0%, 0%, 0%)" fill-opacity="1" d="M 14.085938 14.640625 L 14.085938 10.3125 C 14.085938 6.53125 13.953125 5.570312 13.296875 4.453125 C 12.226562 2.679688 10.28125 1.644531 7.996094 1.644531 C 5.890625 1.644531 4.148438 2.480469 3.007812 4.050781 C 2.070312 5.292969 1.914062 6.203125 1.914062 10.3125 L 1.914062 14.640625 L 3.691406 14.640625 L 3.691406 10.230469 C 3.691406 7.371094 3.847656 6.179688 4.296875 5.316406 C 4.980469 4.050781 6.449219 3.1875 7.996094 3.1875 C 9.441406 3.1875 10.839844 3.917969 11.570312 5.085938 C 12.152344 6 12.308594 7.042969 12.308594 10.230469 L 12.308594 14.640625 Z M 14.085938 14.640625 "/>
<path fill-rule="nonzero" fill="rgb(0%, 0%, 0%)" fill-opacity="1" d="M 5.257812 10.242188 C 5.257812 9.644531 5.304688 9.054688 5.40625 8.480469 C 5.515625 7.894531 5.707031 7.371094 5.980469 6.902344 C 6.261719 6.429688 6.648438 6.050781 7.144531 5.769531 C 7.644531 5.488281 8.289062 5.351562 9.074219 5.351562 C 9.238281 5.351562 9.417969 5.359375 9.609375 5.375 C 9.8125 5.390625 9.980469 5.417969 10.101562 5.453125 L 10.101562 6.332031 C 9.960938 6.285156 9.800781 6.25 9.621094 6.226562 C 9.453125 6.203125 9.277344 6.191406 9.097656 6.191406 C 8.558594 6.191406 8.113281 6.28125 7.753906 6.460938 C 7.394531 6.640625 7.109375 6.886719 6.902344 7.195312 C 6.703125 7.507812 6.550781 7.863281 6.457031 8.269531 C 6.363281 8.671875 6.304688 9.109375 6.285156 9.566406 L 6.355469 9.566406 C 6.53125 9.296875 6.78125 9.066406 7.101562 8.878906 C 7.421875 8.683594 7.828125 8.585938 8.328125 8.585938 C 9.050781 8.585938 9.636719 8.808594 10.078125 9.25 C 10.519531 9.6875 10.742188 10.308594 10.742188 11.117188 C 10.742188 11.992188 10.503906 12.675781 10.019531 13.171875 C 9.546875 13.671875 8.902344 13.921875 8.09375 13.921875 C 7.5625 13.921875 7.085938 13.792969 6.65625 13.523438 C 6.230469 13.261719 5.886719 12.859375 5.628906 12.3125 C 5.382812 11.765625 5.257812 11.078125 5.257812 10.242188 Z M 8.082031 13.058594 C 8.574219 13.058594 8.96875 12.902344 9.273438 12.589844 C 9.578125 12.269531 9.730469 11.78125 9.730469 11.117188 C 9.730469 10.589844 9.59375 10.171875 9.320312 9.859375 C 9.054688 9.546875 8.652344 9.390625 8.117188 9.390625 C 7.75 9.390625 7.429688 9.46875 7.160156 9.625 C 6.886719 9.773438 6.671875 9.964844 6.515625 10.199219 C 6.367188 10.429688 6.296875 10.671875 6.296875 10.921875 C 6.296875 11.257812 6.359375 11.589844 6.492188 11.925781 C 6.625 12.253906 6.824219 12.523438 7.089844 12.742188 C 7.355469 12.953125 7.683594 13.058594 8.082031 13.058594 Z M 8.082031 13.058594 "/>
</svg>
