<?xml version="1.0" encoding="UTF-8"?>
<svg xmlns="http://www.w3.org/2000/svg" xmlns:xlink="http://www.w3.org/1999/xlink" width="15" height="17.410941" viewBox="0 0 15 17.410941">
<path fill-rule="nonzero" fill="rgb(100%, 100%, 100%)" fill-opacity="1" stroke-width="0.936349" stroke-linecap="round" stroke-linejoin="round" stroke="rgb(0%, 0%, 0%)" stroke-opacity="1" stroke-miterlimit="4" d="M 0.828842 0.46801 L 12.88992 0.46801 C 13.086413 0.46801 13.250752 0.610914 13.250752 0.782398 L 13.250752 15.137082 C 13.250752 15.315712 13.086413 15.458615 12.88992 15.458615 L 0.828842 15.458615 C 0.628777 15.458615 0.46801 15.315712 0.46801 15.137082 L 0.46801 0.782398 C 0.46801 0.610914 0.628777 0.46801 0.828842 0.46801 Z M 0.828842 0.46801 " transform="matrix(1.093393, 0, 0, 1.093393, 0, 0)"/>
<path fill-rule="nonzero" fill="rgb(0%, 0%, 0%)" fill-opacity="1" d="M 8.042969 12.511719 L 8.042969 11.046875 L 4.59375 11.046875 L 4.59375 9.8125 L 7.632812 4.894531 L 9.40625 4.894531 L 9.40625 9.933594 L 10.398438 9.933594 L 10.398438 11.046875 L 9.40625 11.046875 L 9.40625 12.511719 Z M 5.773438 9.933594 L 8.042969 9.933594 L 8.042969 6.296875 L 7.957031 6.296875 Z M 4.25 1.328125 "/>
<path fill-rule="nonzero" fill="rgb(0%, 0%, 0%)" fill-opacity="1" d="M 14.007812 2.046875 L 7.5 3.816406 L 0.992188 2.046875 Z M 14.007812 2.046875 "/>
<path fill-rule="nonzero" fill="rgb(0%, 0%, 0%)" fill-opacity="1" d="M 0.992188 0.683594 L 14.007812 0.683594 L 14.007812 2.046875 L 0.992188 2.046875 Z M 0.992188 0.683594 "/>
<path fill-rule="nonzero" fill="rgb(0%, 0%, 0%)" fill-opacity="1" d="M 14.007812 15.320312 L 7.5 13.550781 L 0.992188 15.320312 Z M 14.007812 15.320312 "/>
<path fill-rule="nonzero" fill="rgb(0%, 0%, 0%)" fill-opacity="1" d="M 0.992188 16.683594 L 14.007812 16.683594 L 14.007812 15.320312 L 0.992188 15.320312 Z M 0.992188 16.683594 "/>
</svg>
