<?xml version="1.0" encoding="UTF-8"?>
<svg xmlns="http://www.w3.org/2000/svg" xmlns:xlink="http://www.w3.org/1999/xlink" width="16" height="18.571669" viewBox="0 0 16 18.571669">
<path fill-rule="nonzero" fill="rgb(100%, 100%, 100%)" fill-opacity="1" stroke-width="0.936349" stroke-linecap="round" stroke-linejoin="round" stroke="rgb(0%, 0%, 0%)" stroke-opacity="1" stroke-miterlimit="4" d="M 0.827279 0.468903 L 12.89148 0.468903 C 13.089089 0.468903 13.249856 0.609574 13.249856 0.783738 L 13.249856 15.135516 C 13.249856 15.313029 13.089089 15.457049 12.89148 15.457049 L 0.827279 15.457049 C 0.62967 15.457049 0.468903 15.313029 0.468903 15.135516 L 0.468903 0.783738 C 0.468903 0.609574 0.62967 0.468903 0.827279 0.468903 Z M 0.827279 0.468903 " transform="matrix(1.166286, 0, 0, 1.166286, 0, 0)"/>
<path fill-rule="nonzero" fill="rgb(0%, 0%, 0%)" fill-opacity="1" d="M 14.941406 2.183594 L 8 4.070312 L 1.058594 2.183594 Z M 14.941406 2.183594 "/>
<path fill-rule="nonzero" fill="rgb(0%, 0%, 0%)" fill-opacity="1" d="M 1.058594 0.730469 L 14.941406 0.730469 L 14.941406 2.183594 L 1.058594 2.183594 Z M 1.058594 0.730469 "/>
<path fill-rule="nonzero" fill="rgb(0%, 0%, 0%)" fill-opacity="1" d="M 14.941406 16.339844 L 8 14.453125 L 1.058594 16.339844 Z M 14.941406 16.339844 "/>
<path fill-rule="nonzero" fill="rgb(0%, 0%, 0%)" fill-opacity="1" d="M 1.058594 17.796875 L 14.941406 17.796875 L 14.941406 16.339844 L 1.058594 16.339844 Z M 1.058594 17.796875 "/>
<path fill-rule="nonzero" fill="rgb(0%, 0%, 0%)" fill-opacity="1" d="M 7.992188 4.484375 C 8.8125 4.484375 9.484375 4.675781 10.007812 5.058594 C 10.53125 5.445312 10.792969 5.996094 10.792969 6.722656 C 10.792969 7.097656 10.707031 7.421875 10.546875 7.703125 C 10.390625 7.984375 10.171875 8.230469 9.902344 8.449219 C 9.632812 8.65625 9.335938 8.84375 9.015625 9.011719 C 9.394531 9.195312 9.746094 9.402344 10.058594 9.640625 C 10.375 9.863281 10.621094 10.132812 10.804688 10.4375 C 10.996094 10.742188 11.09375 11.109375 11.09375 11.535156 C 11.09375 12.320312 10.816406 12.945312 10.257812 13.40625 C 9.707031 13.859375 8.964844 14.085938 8.03125 14.085938 C 7.03125 14.085938 6.257812 13.867188 5.71875 13.433594 C 5.175781 12.988281 4.90625 12.367188 4.90625 11.578125 C 4.90625 11.148438 4.992188 10.777344 5.167969 10.460938 C 5.351562 10.148438 5.589844 9.878906 5.890625 9.652344 C 6.183594 9.425781 6.503906 9.234375 6.84375 9.078125 C 6.390625 8.816406 6 8.5 5.675781 8.136719 C 5.363281 7.761719 5.207031 7.285156 5.207031 6.707031 C 5.207031 6.230469 5.328125 5.828125 5.574219 5.507812 C 5.816406 5.171875 6.148438 4.921875 6.566406 4.746094 C 6.984375 4.574219 7.460938 4.484375 7.992188 4.484375 Z M 7.980469 5.414062 C 7.5 5.414062 7.105469 5.53125 6.792969 5.765625 C 6.484375 5.992188 6.332031 6.328125 6.332031 6.761719 C 6.332031 7.082031 6.40625 7.355469 6.554688 7.574219 C 6.710938 7.792969 6.921875 7.980469 7.183594 8.136719 C 7.445312 8.28125 7.734375 8.425781 8.046875 8.566406 C 8.5 8.375 8.878906 8.140625 9.183594 7.871094 C 9.496094 7.605469 9.65625 7.234375 9.65625 6.761719 C 9.65625 6.328125 9.503906 5.992188 9.199219 5.765625 C 8.890625 5.53125 8.484375 5.414062 7.980469 5.414062 Z M 6.03125 11.585938 C 6.03125 12.042969 6.191406 12.421875 6.515625 12.726562 C 6.835938 13.023438 7.332031 13.171875 8.007812 13.171875 C 8.640625 13.171875 9.128906 13.023438 9.457031 12.726562 C 9.796875 12.421875 9.96875 12.027344 9.96875 11.546875 C 9.96875 11.09375 9.792969 10.71875 9.433594 10.421875 C 9.078125 10.117188 8.601562 9.855469 8.007812 9.625 L 7.796875 9.546875 C 7.222656 9.792969 6.78125 10.078125 6.476562 10.398438 C 6.179688 10.710938 6.03125 11.109375 6.03125 11.585938 Z M 6.03125 11.585938 "/>
</svg>
