<?xml version="1.0" encoding="UTF-8"?>
<svg xmlns="http://www.w3.org/2000/svg" xmlns:xlink="http://www.w3.org/1999/xlink" width="16" height="18.571669" viewBox="0 0 16 18.571669">
<path fill-rule="nonzero" fill="rgb(100%, 100%, 100%)" fill-opacity="1" stroke-width="0.936349" stroke-linecap="round" stroke-linejoin="round" stroke="rgb(0%, 0%, 0%)" stroke-opacity="1" stroke-miterlimit="4" d="M 0.827279 0.468903 L 12.89148 0.468903 C 13.089089 0.468903 13.249856 0.609574 13.249856 0.783738 L 13.249856 15.135516 C 13.249856 15.313029 13.089089 15.457049 12.89148 15.457049 L 0.827279 15.457049 C 0.62967 15.457049 0.468903 15.313029 0.468903 15.135516 L 0.468903 0.783738 C 0.468903 0.609574 0.62967 0.468903 0.827279 0.468903 Z M 0.827279 0.468903 " transform="matrix(1.166286, 0, 0, 1.166286, 0, 0)"/>
<path fill-rule="nonzero" fill="rgb(0%, 0%, 0%)" fill-opacity="1" d="M 14.941406 2.183594 L 8 4.070312 L 1.058594 2.183594 Z M 14.941406 2.183594 "/>
<path fill-rule="nonzero" fill="rgb(0%, 0%, 0%)" fill-opacity="1" d="M 1.058594 0.730469 L 14.941406 0.730469 L 14.941406 2.183594 L 1.058594 2.183594 Z M 1.058594 0.730469 "/>
<path fill-rule="nonzero" fill="rgb(0%, 0%, 0%)" fill-opacity="1" d="M 14.941406 16.339844 L 8 14.453125 L 1.058594 16.339844 Z M 14.941406 16.339844 "/>
<path fill-rule="nonzero" fill="rgb(0%, 0%, 0%)" fill-opacity="1" d="M 1.058594 17.796875 L 14.941406 17.796875 L 14.941406 16.339844 L 1.058594 16.339844 Z M 1.058594 17.796875 "/>
<path fill-rule="nonzero" fill="rgb(0%, 0%, 0%)" fill-opacity="1" d="M 7.082031 10.949219 C 7.082031 10.613281 7.113281 10.332031 7.175781 10.097656 C 7.246094 9.855469 7.359375 9.621094 7.515625 9.402344 C 7.679688 9.183594 7.902344 8.957031 8.183594 8.722656 C 8.523438 8.433594 8.785156 8.195312 8.96875 8.003906 C 9.160156 7.8125 9.296875 7.625 9.375 7.441406 C 9.453125 7.257812 9.488281 7.035156 9.488281 6.773438 C 9.488281 6.355469 9.359375 6.03125 9.085938 5.804688 C 8.816406 5.578125 8.421875 5.464844 7.910156 5.464844 C 7.484375 5.464844 7.101562 5.523438 6.769531 5.636719 C 6.4375 5.738281 6.121094 5.867188 5.816406 6.015625 L 5.410156 5.101562 C 5.761719 4.917969 6.140625 4.765625 6.5625 4.640625 C 6.988281 4.519531 7.464844 4.457031 7.984375 4.457031 C 8.816406 4.457031 9.453125 4.664062 9.910156 5.074219 C 10.363281 5.484375 10.589844 6.042969 10.589844 6.746094 C 10.589844 7.140625 10.523438 7.476562 10.390625 7.757812 C 10.269531 8.023438 10.09375 8.277344 9.859375 8.515625 C 9.632812 8.738281 9.359375 8.984375 9.046875 9.246094 C 8.761719 9.488281 8.535156 9.703125 8.378906 9.890625 C 8.234375 10.070312 8.132812 10.253906 8.078125 10.4375 C 8.027344 10.609375 8 10.828125 8 11.078125 L 8 11.300781 L 7.082031 11.300781 Z M 6.785156 13.222656 C 6.785156 12.898438 6.859375 12.671875 7.007812 12.542969 C 7.164062 12.414062 7.359375 12.347656 7.59375 12.347656 C 7.8125 12.347656 8 12.414062 8.15625 12.542969 C 8.3125 12.671875 8.390625 12.898438 8.390625 13.222656 C 8.390625 13.539062 8.3125 13.765625 8.15625 13.902344 C 8 14.042969 7.8125 14.113281 7.59375 14.113281 C 7.359375 14.113281 7.164062 14.042969 7.007812 13.902344 C 6.859375 13.765625 6.785156 13.539062 6.785156 13.222656 Z M 6.785156 13.222656 "/>
</svg>
