<?xml version="1.0" encoding="UTF-8"?>
<svg xmlns="http://www.w3.org/2000/svg" xmlns:xlink="http://www.w3.org/1999/xlink" width="16" height="18.571669" viewBox="0 0 16 18.571669">
<path fill-rule="nonzero" fill="rgb(100%, 100%, 100%)" fill-opacity="1" stroke-width="0.936349" stroke-linecap="round" stroke-linejoin="round" stroke="rgb(0%, 0%, 0%)" stroke-opacity="1" stroke-miterlimit="4" d="M 0.827279 0.468903 L 12.89148 0.468903 C 13.089089 0.468903 13.249856 0.609574 13.249856 0.783738 L 13.249856 15.135516 C 13.249856 15.313029 13.089089 15.457049 12.89148 15.457049 L 0.827279 15.457049 C 0.62967 15.457049 0.468903 15.313029 0.468903 15.135516 L 0.468903 0.783738 C 0.468903 0.609574 0.62967 0.468903 0.827279 0.468903 Z M 0.827279 0.468903 " transform="matrix(1.166286, 0, 0, 1.166286, 0, 0)"/>
<path fill-rule="nonzero" fill="rgb(0%, 0%, 0%)" fill-opacity="1" d="M 14.941406 2.183594 L 8 4.070312 L 1.058594 2.183594 Z M 14.941406 2.183594 "/>
<path fill-rule="nonzero" fill="rgb(0%, 0%, 0%)" fill-opacity="1" d="M 1.058594 0.730469 L 14.941406 0.730469 L 14.941406 2.183594 L 1.058594 2.183594 Z M 1.058594 0.730469 "/>
<path fill-rule="nonzero" fill="rgb(0%, 0%, 0%)" fill-opacity="1" d="M 14.941406 16.339844 L 8 14.453125 L 1.058594 16.339844 Z M 14.941406 16.339844 "/>
<path fill-rule="nonzero" fill="rgb(0%, 0%, 0%)" fill-opacity="1" d="M 1.058594 17.796875 L 14.941406 17.796875 L 14.941406 16.339844 L 1.058594 16.339844 Z M 1.058594 17.796875 "/>
<path fill-rule="nonzero" fill="rgb(0%, 0%, 0%)" fill-opacity="1" d="M 5.164062 13.644531 L 4.125 13.644531 L 4.125 7.636719 C 4.125 7.289062 4.132812 7.015625 4.140625 6.804688 C 4.144531 6.59375 4.160156 6.378906 4.171875 6.152344 C 4.046875 6.28125 3.929688 6.390625 3.828125 6.480469 C 3.722656 6.566406 3.585938 6.679688 3.425781 6.816406 L 2.515625 7.5625 L 1.957031 6.851562 L 4.285156 5.046875 L 5.164062 5.046875 Z M 5.164062 13.644531 "/>
<path fill-rule="nonzero" fill="rgb(0%, 0%, 0%)" fill-opacity="1" d="M 14.042969 13.644531 L 8.355469 13.644531 L 8.355469 12.765625 L 10.609375 10.488281 C 11.042969 10.054688 11.40625 9.671875 11.703125 9.332031 C 12.003906 8.996094 12.226562 8.667969 12.378906 8.347656 C 12.53125 8.015625 12.609375 7.660156 12.609375 7.273438 C 12.609375 6.796875 12.46875 6.441406 12.1875 6.203125 C 11.90625 5.953125 11.542969 5.828125 11.089844 5.828125 C 10.671875 5.828125 10.300781 5.898438 9.984375 6.046875 C 9.671875 6.191406 9.347656 6.390625 9.015625 6.644531 L 8.453125 5.9375 C 8.789062 5.65625 9.171875 5.421875 9.609375 5.226562 C 10.046875 5.023438 10.546875 4.921875 11.089844 4.921875 C 11.890625 4.921875 12.527344 5.128906 12.992188 5.539062 C 13.457031 5.941406 13.691406 6.5 13.691406 7.214844 C 13.691406 7.664062 13.601562 8.082031 13.417969 8.480469 C 13.230469 8.871094 12.972656 9.261719 12.644531 9.644531 C 12.316406 10.023438 11.929688 10.429688 11.488281 10.863281 L 9.695312 12.636719 L 9.695312 12.683594 L 14.042969 12.683594 Z M 14.042969 13.644531 "/>
</svg>
