<?xml version="1.0" encoding="UTF-8"?>
<svg xmlns="http://www.w3.org/2000/svg" xmlns:xlink="http://www.w3.org/1999/xlink" width="16" height="18.571669" viewBox="0 0 16 18.571669">
<path fill-rule="nonzero" fill="rgb(100%, 100%, 100%)" fill-opacity="1" stroke-width="0.936349" stroke-linecap="round" stroke-linejoin="round" stroke="rgb(0%, 0%, 0%)" stroke-opacity="1" stroke-miterlimit="4" d="M 0.827279 0.468903 L 12.89148 0.468903 C 13.089089 0.468903 13.249856 0.609574 13.249856 0.783738 L 13.249856 15.135516 C 13.249856 15.313029 13.089089 15.457049 12.89148 15.457049 L 0.827279 15.457049 C 0.62967 15.457049 0.468903 15.313029 0.468903 15.135516 L 0.468903 0.783738 C 0.468903 0.609574 0.62967 0.468903 0.827279 0.468903 Z M 0.827279 0.468903 " transform="matrix(1.166286, 0, 0, 1.166286, 0, 0)"/>
<path fill-rule="nonzero" fill="rgb(0%, 0%, 0%)" fill-opacity="1" d="M 14.941406 2.183594 L 8 4.070312 L 1.058594 2.183594 Z M 14.941406 2.183594 "/>
<path fill-rule="nonzero" fill="rgb(0%, 0%, 0%)" fill-opacity="1" d="M 1.058594 0.730469 L 14.941406 0.730469 L 14.941406 2.183594 L 1.058594 2.183594 Z M 1.058594 0.730469 "/>
<path fill-rule="nonzero" fill="rgb(0%, 0%, 0%)" fill-opacity="1" d="M 14.941406 16.339844 L 8 14.453125 L 1.058594 16.339844 Z M 14.941406 16.339844 "/>
<path fill-rule="nonzero" fill="rgb(0%, 0%, 0%)" fill-opacity="1" d="M 1.058594 17.796875 L 14.941406 17.796875 L 14.941406 16.339844 L 1.058594 16.339844 Z M 1.058594 17.796875 "/>
<path fill-rule="nonzero" fill="rgb(0%, 0%, 0%)" fill-opacity="1" d="M 4.921875 9.972656 C 4.921875 9.296875 4.980469 8.632812 5.089844 7.984375 C 5.210938 7.332031 5.429688 6.746094 5.742188 6.222656 C 6.046875 5.6875 6.484375 5.265625 7.042969 4.953125 C 7.609375 4.644531 8.328125 4.484375 9.207031 4.484375 C 9.382812 4.484375 9.582031 4.5 9.808594 4.519531 C 10.027344 4.535156 10.210938 4.5625 10.359375 4.605469 L 10.359375 5.585938 C 10.203125 5.535156 10.023438 5.496094 9.828125 5.472656 C 9.625 5.4375 9.421875 5.421875 9.226562 5.421875 C 8.625 5.421875 8.125 5.519531 7.726562 5.722656 C 7.328125 5.921875 7.007812 6.203125 6.773438 6.554688 C 6.542969 6.898438 6.375 7.296875 6.273438 7.753906 C 6.171875 8.210938 6.109375 8.695312 6.078125 9.203125 L 6.160156 9.203125 C 6.359375 8.902344 6.632812 8.648438 6.992188 8.4375 C 7.347656 8.214844 7.808594 8.105469 8.375 8.105469 C 9.183594 8.105469 9.832031 8.355469 10.328125 8.855469 C 10.828125 9.347656 11.078125 10.039062 11.078125 10.9375 C 11.078125 11.917969 10.808594 12.6875 10.273438 13.253906 C 9.742188 13.8125 9.015625 14.085938 8.109375 14.085938 C 7.515625 14.085938 6.980469 13.9375 6.492188 13.640625 C 6.015625 13.335938 5.628906 12.890625 5.339844 12.289062 C 5.0625 11.679688 4.921875 10.902344 4.921875 9.972656 Z M 8.089844 13.121094 C 8.644531 13.121094 9.089844 12.945312 9.421875 12.585938 C 9.765625 12.234375 9.941406 11.683594 9.941406 10.9375 C 9.941406 10.351562 9.792969 9.882812 9.492188 9.539062 C 9.191406 9.183594 8.742188 9.003906 8.140625 9.003906 C 7.730469 9.003906 7.367188 9.097656 7.058594 9.269531 C 6.757812 9.4375 6.515625 9.652344 6.339844 9.921875 C 6.171875 10.179688 6.089844 10.445312 6.089844 10.722656 C 6.089844 11.101562 6.164062 11.480469 6.308594 11.855469 C 6.460938 12.222656 6.683594 12.527344 6.976562 12.769531 C 7.273438 13.003906 7.644531 13.121094 8.089844 13.121094 Z M 4.207031 -0.0273438 "/>
</svg>
