<?xml version="1.0" encoding="UTF-8"?>
<svg xmlns="http://www.w3.org/2000/svg" xmlns:xlink="http://www.w3.org/1999/xlink" width="16" height="18.571669" viewBox="0 0 16 18.571669">
<path fill-rule="nonzero" fill="rgb(100%, 100%, 100%)" fill-opacity="1" stroke-width="0.936349" stroke-linecap="round" stroke-linejoin="round" stroke="rgb(0%, 0%, 0%)" stroke-opacity="1" stroke-miterlimit="4" d="M 0.827279 0.468903 L 12.89148 0.468903 C 13.089089 0.468903 13.249856 0.609574 13.249856 0.783738 L 13.249856 15.135516 C 13.249856 15.313029 13.089089 15.457049 12.89148 15.457049 L 0.827279 15.457049 C 0.62967 15.457049 0.468903 15.313029 0.468903 15.135516 L 0.468903 0.783738 C 0.468903 0.609574 0.62967 0.468903 0.827279 0.468903 Z M 0.827279 0.468903 " transform="matrix(1.166286, 0, 0, 1.166286, 0, 0)"/>
<path fill-rule="nonzero" fill="rgb(0%, 0%, 0%)" fill-opacity="1" d="M 14.941406 2.183594 L 8 4.070312 L 1.058594 2.183594 Z M 14.941406 2.183594 "/>
<path fill-rule="nonzero" fill="rgb(0%, 0%, 0%)" fill-opacity="1" d="M 1.058594 0.730469 L 14.941406 0.730469 L 14.941406 2.183594 L 1.058594 2.183594 Z M 1.058594 0.730469 "/>
<path fill-rule="nonzero" fill="rgb(0%, 0%, 0%)" fill-opacity="1" d="M 14.941406 16.339844 L 8 14.453125 L 1.058594 16.339844 Z M 14.941406 16.339844 "/>
<path fill-rule="nonzero" fill="rgb(0%, 0%, 0%)" fill-opacity="1" d="M 1.058594 17.796875 L 14.941406 17.796875 L 14.941406 16.339844 L 1.058594 16.339844 Z M 1.058594 17.796875 "/>
<path fill-rule="nonzero" fill="rgb(0%, 0%, 0%)" fill-opacity="1" d="M 7.449219 13.703125 L 6.515625 13.703125 L 6.515625 8.296875 C 6.515625 7.984375 6.519531 7.734375 6.527344 7.546875 C 6.535156 7.359375 6.546875 7.164062 6.558594 6.957031 C 6.445312 7.078125 6.339844 7.171875 6.242188 7.253906 C 6.148438 7.332031 6.03125 7.433594 5.886719 7.554688 L 5.0625 8.230469 L 4.5625 7.589844 L 6.65625 5.960938 L 7.449219 5.960938 Z M 7.449219 13.703125 "/>
<path fill-rule="nonzero" fill="rgb(0%, 0%, 0%)" fill-opacity="1" d="M 10 6.515625 C 10.441406 6.515625 10.789062 6.625 11.046875 6.84375 C 11.304688 7.0625 11.4375 7.371094 11.4375 7.769531 C 11.4375 8.214844 11.296875 8.5625 11.011719 8.820312 C 10.734375 9.070312 10.34375 9.195312 9.839844 9.195312 C 9.621094 9.195312 9.414062 9.171875 9.21875 9.136719 C 9.027344 9.09375 8.863281 9.039062 8.734375 8.960938 L 8.734375 8.464844 C 8.878906 8.550781 9.050781 8.621094 9.253906 8.671875 C 9.460938 8.722656 9.660156 8.746094 9.847656 8.746094 C 10.160156 8.746094 10.414062 8.671875 10.605469 8.523438 C 10.800781 8.375 10.898438 8.140625 10.898438 7.828125 C 10.898438 7.546875 10.8125 7.332031 10.640625 7.183594 C 10.46875 7.035156 10.199219 6.957031 9.828125 6.957031 C 9.714844 6.957031 9.589844 6.96875 9.445312 6.988281 C 9.300781 7.007812 9.1875 7.027344 9.097656 7.046875 L 8.835938 6.882812 L 8.996094 4.863281 L 11.140625 4.863281 L 11.140625 5.34375 L 9.445312 5.34375 L 9.34375 6.582031 C 9.414062 6.570312 9.503906 6.554688 9.617188 6.539062 C 9.734375 6.523438 9.859375 6.515625 10 6.515625 Z M 10 6.515625 "/>
</svg>
