<?xml version="1.0" encoding="UTF-8"?>
<svg xmlns="http://www.w3.org/2000/svg" xmlns:xlink="http://www.w3.org/1999/xlink" width="16" height="18.571669" viewBox="0 0 16 18.571669">
<path fill-rule="nonzero" fill="rgb(100%, 100%, 100%)" fill-opacity="1" stroke-width="0.936349" stroke-linecap="round" stroke-linejoin="round" stroke="rgb(0%, 0%, 0%)" stroke-opacity="1" stroke-miterlimit="4" d="M 0.827279 0.468903 L 12.89148 0.468903 C 13.089089 0.468903 13.249856 0.609574 13.249856 0.783738 L 13.249856 15.135516 C 13.249856 15.313029 13.089089 15.457049 12.89148 15.457049 L 0.827279 15.457049 C 0.62967 15.457049 0.468903 15.313029 0.468903 15.135516 L 0.468903 0.783738 C 0.468903 0.609574 0.62967 0.468903 0.827279 0.468903 Z M 0.827279 0.468903 " transform="matrix(1.166286, 0, 0, 1.166286, 0, 0)"/>
<path fill-rule="nonzero" fill="rgb(0%, 0%, 0%)" fill-opacity="1" d="M 14.941406 2.183594 L 8 4.070312 L 1.058594 2.183594 Z M 14.941406 2.183594 "/>
<path fill-rule="nonzero" fill="rgb(0%, 0%, 0%)" fill-opacity="1" d="M 1.058594 0.730469 L 14.941406 0.730469 L 14.941406 2.183594 L 1.058594 2.183594 Z M 1.058594 0.730469 "/>
<path fill-rule="nonzero" fill="rgb(0%, 0%, 0%)" fill-opacity="1" d="M 14.941406 16.339844 L 8 14.453125 L 1.058594 16.339844 Z M 14.941406 16.339844 "/>
<path fill-rule="nonzero" fill="rgb(0%, 0%, 0%)" fill-opacity="1" d="M 1.058594 17.796875 L 14.941406 17.796875 L 14.941406 16.339844 L 1.058594 16.339844 Z M 1.058594 17.796875 "/>
<path fill-rule="nonzero" fill="rgb(0%, 0%, 0%)" fill-opacity="1" d="M 11.074219 8.605469 C 11.074219 9.277344 11.015625 9.941406 10.890625 10.59375 C 10.777344 11.238281 10.5625 11.828125 10.25 12.359375 C 9.945312 12.882812 9.511719 13.300781 8.941406 13.613281 C 8.386719 13.929688 7.664062 14.085938 6.785156 14.085938 C 6.609375 14.085938 6.402344 14.074219 6.171875 14.046875 C 5.941406 14.03125 5.753906 14 5.609375 13.953125 L 5.609375 12.976562 C 5.949219 13.085938 6.328125 13.144531 6.757812 13.144531 C 7.367188 13.144531 7.867188 13.046875 8.261719 12.84375 C 8.664062 12.640625 8.984375 12.371094 9.214844 12.03125 C 9.453125 11.683594 9.621094 11.28125 9.726562 10.828125 C 9.828125 10.367188 9.890625 9.882812 9.910156 9.378906 L 9.828125 9.378906 C 9.640625 9.671875 9.359375 9.929688 8.992188 10.148438 C 8.636719 10.359375 8.171875 10.460938 7.609375 10.460938 C 6.804688 10.460938 6.15625 10.21875 5.660156 9.730469 C 5.171875 9.234375 4.925781 8.535156 4.925781 7.640625 C 4.925781 6.984375 5.046875 6.421875 5.292969 5.953125 C 5.546875 5.480469 5.890625 5.117188 6.339844 4.863281 C 6.785156 4.609375 7.304688 4.484375 7.910156 4.484375 C 8.5 4.484375 9.039062 4.640625 9.515625 4.945312 C 9.996094 5.238281 10.375 5.695312 10.65625 6.300781 C 10.933594 6.90625 11.074219 7.671875 11.074219 8.605469 Z M 7.910156 5.453125 C 7.367188 5.453125 6.921875 5.632812 6.574219 5.988281 C 6.234375 6.347656 6.0625 6.890625 6.0625 7.625 C 6.0625 8.226562 6.207031 8.703125 6.496094 9.050781 C 6.792969 9.390625 7.246094 9.558594 7.859375 9.558594 C 8.273438 9.558594 8.636719 9.480469 8.941406 9.3125 C 9.246094 9.140625 9.484375 8.921875 9.648438 8.65625 C 9.824219 8.394531 9.910156 8.125 9.910156 7.847656 C 9.910156 7.472656 9.835938 7.101562 9.6875 6.734375 C 9.539062 6.367188 9.316406 6.0625 9.019531 5.820312 C 8.722656 5.578125 8.355469 5.453125 7.910156 5.453125 Z M 7.910156 5.453125 "/>
</svg>
