<?xml version="1.0" encoding="UTF-8"?>
<svg xmlns="http://www.w3.org/2000/svg" xmlns:xlink="http://www.w3.org/1999/xlink" width="16" height="18.571669" viewBox="0 0 16 18.571669">
<path fill-rule="nonzero" fill="rgb(100%, 100%, 100%)" fill-opacity="1" stroke-width="0.936349" stroke-linecap="round" stroke-linejoin="round" stroke="rgb(0%, 0%, 0%)" stroke-opacity="1" stroke-miterlimit="4" d="M 0.827279 0.468903 L 12.89148 0.468903 C 13.089089 0.468903 13.249856 0.609574 13.249856 0.783738 L 13.249856 15.135516 C 13.249856 15.313029 13.089089 15.457049 12.89148 15.457049 L 0.827279 15.457049 C 0.62967 15.457049 0.468903 15.313029 0.468903 15.135516 L 0.468903 0.783738 C 0.468903 0.609574 0.62967 0.468903 0.827279 0.468903 Z M 0.827279 0.468903 " transform="matrix(1.166286, 0, 0, 1.166286, 0, 0)"/>
<path fill-rule="nonzero" fill="rgb(0%, 0%, 0%)" fill-opacity="1" d="M 14.941406 2.183594 L 8 4.070312 L 1.058594 2.183594 Z M 14.941406 2.183594 "/>
<path fill-rule="nonzero" fill="rgb(0%, 0%, 0%)" fill-opacity="1" d="M 1.058594 0.730469 L 14.941406 0.730469 L 14.941406 2.183594 L 1.058594 2.183594 Z M 1.058594 0.730469 "/>
<path fill-rule="nonzero" fill="rgb(0%, 0%, 0%)" fill-opacity="1" d="M 14.941406 16.339844 L 8 14.453125 L 1.058594 16.339844 Z M 14.941406 16.339844 "/>
<path fill-rule="nonzero" fill="rgb(0%, 0%, 0%)" fill-opacity="1" d="M 1.058594 17.796875 L 14.941406 17.796875 L 14.941406 16.339844 L 1.058594 16.339844 Z M 1.058594 17.796875 "/>
<path fill-rule="nonzero" fill="rgb(0%, 0%, 0%)" fill-opacity="1" d="M 8.683594 7.71875 C 8.683594 8.238281 8.542969 8.65625 8.25 8.964844 C 7.960938 9.269531 7.574219 9.472656 7.078125 9.574219 L 7.078125 9.617188 C 7.703125 9.691406 8.164062 9.886719 8.46875 10.203125 C 8.769531 10.519531 8.921875 10.9375 8.921875 11.453125 C 8.921875 11.898438 8.820312 12.296875 8.609375 12.652344 C 8.398438 13 8.074219 13.269531 7.632812 13.46875 C 7.199219 13.664062 6.640625 13.761719 5.953125 13.761719 C 5.546875 13.761719 5.171875 13.730469 4.824219 13.664062 C 4.476562 13.605469 4.144531 13.496094 3.828125 13.335938 L 3.828125 12.449219 C 4.152344 12.609375 4.503906 12.734375 4.878906 12.828125 C 5.253906 12.914062 5.613281 12.957031 5.960938 12.957031 C 6.65625 12.957031 7.15625 12.824219 7.457031 12.554688 C 7.769531 12.28125 7.925781 11.90625 7.925781 11.425781 C 7.925781 10.945312 7.734375 10.597656 7.351562 10.386719 C 6.976562 10.171875 6.445312 10.0625 5.757812 10.0625 L 5.007812 10.0625 L 5.007812 9.246094 L 5.765625 9.246094 C 6.402344 9.246094 6.886719 9.113281 7.210938 8.847656 C 7.542969 8.578125 7.707031 8.226562 7.707031 7.785156 C 7.707031 7.40625 7.582031 7.117188 7.328125 6.917969 C 7.078125 6.703125 6.734375 6.601562 6.296875 6.601562 C 5.878906 6.601562 5.519531 6.664062 5.226562 6.785156 C 4.925781 6.910156 4.636719 7.066406 4.347656 7.253906 L 3.867188 6.601562 C 4.144531 6.386719 4.484375 6.199219 4.890625 6.039062 C 5.300781 5.878906 5.765625 5.796875 6.289062 5.796875 C 7.097656 5.796875 7.699219 5.980469 8.089844 6.339844 C 8.484375 6.703125 8.683594 7.164062 8.683594 7.71875 Z M 8.683594 7.71875 "/>
<path fill-rule="nonzero" fill="rgb(0%, 0%, 0%)" fill-opacity="1" d="M 10.738281 6.460938 C 11.175781 6.460938 11.527344 6.574219 11.785156 6.792969 C 12.046875 7.011719 12.171875 7.320312 12.171875 7.71875 C 12.171875 8.160156 12.03125 8.507812 11.75 8.765625 C 11.46875 9.015625 11.078125 9.140625 10.578125 9.140625 C 10.359375 9.140625 10.148438 9.121094 9.953125 9.078125 C 9.765625 9.042969 9.605469 8.984375 9.472656 8.90625 L 9.472656 8.410156 C 9.613281 8.5 9.789062 8.570312 9.992188 8.621094 C 10.199219 8.667969 10.394531 8.691406 10.582031 8.691406 C 10.898438 8.691406 11.152344 8.617188 11.34375 8.472656 C 11.539062 8.320312 11.636719 8.085938 11.636719 7.769531 C 11.636719 7.492188 11.546875 7.277344 11.378906 7.132812 C 11.207031 6.980469 10.9375 6.902344 10.566406 6.902344 C 10.453125 6.902344 10.328125 6.914062 10.183594 6.933594 C 10.039062 6.953125 9.921875 6.972656 9.835938 6.992188 L 9.574219 6.828125 L 9.734375 4.8125 L 11.875 4.8125 L 11.875 5.289062 L 10.183594 5.289062 L 10.078125 6.527344 C 10.148438 6.515625 10.238281 6.5 10.359375 6.484375 C 10.472656 6.46875 10.601562 6.460938 10.738281 6.460938 Z M 10.738281 6.460938 "/>
</svg>
