<?xml version="1.0" encoding="UTF-8"?>
<svg xmlns="http://www.w3.org/2000/svg" xmlns:xlink="http://www.w3.org/1999/xlink" width="16" height="18.571669" viewBox="0 0 16 18.571669">
<path fill-rule="nonzero" fill="rgb(100%, 100%, 100%)" fill-opacity="1" stroke-width="0.936349" stroke-linecap="round" stroke-linejoin="round" stroke="rgb(0%, 0%, 0%)" stroke-opacity="1" stroke-miterlimit="4" d="M 0.827279 0.468903 L 12.89148 0.468903 C 13.089089 0.468903 13.249856 0.609574 13.249856 0.783738 L 13.249856 15.135516 C 13.249856 15.313029 13.089089 15.457049 12.89148 15.457049 L 0.827279 15.457049 C 0.62967 15.457049 0.468903 15.313029 0.468903 15.135516 L 0.468903 0.783738 C 0.468903 0.609574 0.62967 0.468903 0.827279 0.468903 Z M 0.827279 0.468903 " transform="matrix(1.166286, 0, 0, 1.166286, 0, 0)"/>
<path fill-rule="nonzero" fill="rgb(0%, 0%, 0%)" fill-opacity="1" d="M 14.941406 2.183594 L 8 4.070312 L 1.058594 2.183594 Z M 14.941406 2.183594 "/>
<path fill-rule="nonzero" fill="rgb(0%, 0%, 0%)" fill-opacity="1" d="M 1.058594 0.730469 L 14.941406 0.730469 L 14.941406 2.183594 L 1.058594 2.183594 Z M 1.058594 0.730469 "/>
<path fill-rule="nonzero" fill="rgb(0%, 0%, 0%)" fill-opacity="1" d="M 14.941406 16.339844 L 8 14.453125 L 1.058594 16.339844 Z M 14.941406 16.339844 "/>
<path fill-rule="nonzero" fill="rgb(0%, 0%, 0%)" fill-opacity="1" d="M 1.058594 17.796875 L 14.941406 17.796875 L 14.941406 16.339844 L 1.058594 16.339844 Z M 1.058594 17.796875 "/>
<path fill-rule="nonzero" fill="rgb(0%, 0%, 0%)" fill-opacity="1" d="M 7.816406 8.160156 C 8.777344 8.160156 9.539062 8.398438 10.109375 8.882812 C 10.671875 9.359375 10.953125 10.035156 10.953125 10.90625 C 10.953125 11.875 10.644531 12.640625 10.027344 13.199219 C 9.417969 13.746094 8.5625 14.019531 7.464844 14.019531 C 6.984375 14.019531 6.53125 13.980469 6.105469 13.890625 C 5.683594 13.800781 5.328125 13.675781 5.046875 13.511719 L 5.046875 12.425781 C 5.359375 12.617188 5.734375 12.769531 6.179688 12.882812 C 6.636719 12.988281 7.066406 13.042969 7.476562 13.042969 C 8.167969 13.042969 8.71875 12.878906 9.140625 12.554688 C 9.566406 12.226562 9.777344 11.714844 9.777344 11.023438 C 9.777344 10.417969 9.589844 9.949219 9.214844 9.625 C 8.839844 9.296875 8.25 9.128906 7.4375 9.128906 C 7.195312 9.128906 6.914062 9.148438 6.601562 9.195312 C 6.285156 9.238281 6.035156 9.28125 5.839844 9.328125 L 5.265625 8.957031 L 5.617188 4.550781 L 10.300781 4.550781 L 10.300781 5.597656 L 6.601562 5.597656 L 6.378906 8.304688 C 6.527344 8.277344 6.726562 8.246094 6.980469 8.210938 C 7.234375 8.175781 7.511719 8.160156 7.816406 8.160156 Z M 7.816406 8.160156 "/>
</svg>
