<?xml version="1.0" encoding="UTF-8"?>
<svg xmlns="http://www.w3.org/2000/svg" xmlns:xlink="http://www.w3.org/1999/xlink" width="16" height="21.453593" viewBox="0 0 16 21.453593">
<path fill-rule="nonzero" fill="rgb(14.901961%, 14.901961%, 14.901961%)" fill-opacity="1" d="M 0.453125 0 L 15.546875 0 C 15.792969 0 16 0.203125 16 0.453125 L 16 21 C 16 21.253906 15.792969 21.453125 15.546875 21.453125 L 0.453125 21.453125 C 0.203125 21.453125 0 21.253906 0 21 L 0 0.453125 C 0 0.203125 0.203125 0 0.453125 0 Z M 0.453125 0 "/>
<path fill="none" stroke-width="0.204" stroke-linecap="butt" stroke-linejoin="miter" stroke="rgb(60.392157%, 60.392157%, 60.392157%)" stroke-opacity="1" stroke-miterlimit="4" d="M 1.396729 1.047547 L 13.476253 1.047547 C 13.639932 1.047547 13.770875 1.189402 13.770875 1.374905 L 13.770875 18.222949 C 13.770875 18.404815 13.639932 18.550307 13.476253 18.550307 L 1.396729 18.550307 C 1.236687 18.550307 1.105744 18.404815 1.105744 18.222949 L 1.105744 1.374905 C 1.105744 1.189402 1.236687 1.047547 1.396729 1.047547 Z M 1.396729 1.047547 " transform="matrix(1.073938, 0, 0, 1.073938, 0, 0)"/>
<path fill-rule="nonzero" fill="rgb(100%, 100%, 100%)" fill-opacity="1" stroke-width="0.468347" stroke-linecap="butt" stroke-linejoin="miter" stroke="rgb(100%, 100%, 100%)" stroke-opacity="1" stroke-dasharray="0.468347 0.468347" stroke-dashoffset="0.468347" stroke-miterlimit="4" d="M 8.536704 -0.591373 L 2.654464 9.587505 L -3.227777 -0.591373 Z M 8.536704 -0.591373 " transform="matrix(0.996777, 0, 0, 0.308927, 5.40878, 2.253004)"/>
<path fill-rule="nonzero" fill="rgb(100%, 100%, 100%)" fill-opacity="1" stroke-width="0.468347" stroke-linecap="butt" stroke-linejoin="miter" stroke="rgb(100%, 100%, 100%)" stroke-opacity="1" stroke-dasharray="0.468347 0.468347" stroke-dashoffset="0.468347" stroke-miterlimit="4" d="M 8.536704 -0.589899 L 2.654464 9.601623 L -3.227777 -0.589899 Z M 8.536704 -0.589899 " transform="matrix(0.996777, 0, 0, -0.308927, 5.40878, 19.200577)"/>
<path fill-rule="nonzero" fill="rgb(100%, 100%, 100%)" fill-opacity="1" stroke-width="0.230376" stroke-linecap="butt" stroke-linejoin="miter" stroke="rgb(100%, 100%, 100%)" stroke-opacity="1" stroke-dasharray="0.230376 0.230376" stroke-dashoffset="0.230376" stroke-miterlimit="4" d="M 7.492675 5.430908 C 8.283691 5.430908 8.931884 5.614013 9.433593 5.983886 C 9.938964 6.35376 10.19165 6.888427 10.19165 7.584228 C 10.19165 7.946777 10.111084 8.261718 9.949951 8.532715 C 9.799804 8.800048 9.594726 9.038086 9.331054 9.246826 C 9.071045 9.448242 8.789062 9.631347 8.477783 9.79248 C 8.847656 9.968261 9.18457 10.169677 9.484863 10.396728 C 9.788818 10.616455 10.030517 10.872802 10.206298 11.165771 C 10.389404 11.45874 10.480957 11.813964 10.480957 12.224121 C 10.480957 12.982177 10.209961 13.579101 9.675293 14.025878 C 9.144287 14.461669 8.430175 14.685058 7.532959 14.685058 C 6.566162 14.685058 5.819092 14.472656 5.299072 14.051513 C 4.779053 13.623046 4.519043 13.026123 4.519043 12.260742 C 4.519043 11.850585 4.603271 11.495361 4.771728 11.191406 C 4.94751 10.887451 5.178222 10.627441 5.463867 10.411377 C 5.749511 10.19165 6.057129 10.004882 6.383056 9.854736 C 5.947265 9.60205 5.57373 9.301757 5.262451 8.946533 C 4.962158 8.583984 4.808349 8.129882 4.808349 7.573242 C 4.808349 7.108154 4.925537 6.723633 5.163574 6.412353 C 5.397949 6.09375 5.716553 5.848388 6.119385 5.679931 C 6.522217 5.515136 6.983642 5.430908 7.492675 5.430908 Z M 7.481689 6.324463 C 7.016601 6.324463 6.635742 6.437988 6.335449 6.665039 C 6.038818 6.884765 5.892334 7.203369 5.892334 7.624511 C 5.892334 7.932129 5.961914 8.192138 6.108398 8.404541 C 6.258545 8.613281 6.459961 8.796386 6.712646 8.946533 C 6.96167 9.089355 7.243652 9.228515 7.543945 9.360351 C 7.983398 9.177246 8.345947 8.953857 8.638916 8.693847 C 8.942871 8.433838 9.096679 8.074951 9.096679 7.624511 C 9.096679 7.203369 8.950195 6.884765 8.653564 6.665039 C 8.360595 6.437988 7.96875 6.324463 7.481689 6.324463 Z M 5.603027 12.27539 C 5.603027 12.711181 5.756836 13.077392 6.068115 13.374023 C 6.379394 13.659667 6.859131 13.798828 7.507324 13.798828 C 8.118896 13.798828 8.587646 13.659667 8.90625 13.374023 C 9.235839 13.077392 9.396972 12.700195 9.396972 12.235107 C 9.396972 11.799316 9.224853 11.440429 8.880615 11.151123 C 8.536377 10.858154 8.078613 10.601806 7.507324 10.385742 L 7.305908 10.308837 C 6.752929 10.543212 6.324463 10.817871 6.031494 11.125488 C 5.745849 11.429443 5.603027 11.813964 5.603027 12.27539 Z M 5.603027 12.27539 " transform="matrix(1.066667, 0, 0, 1.066667, 0, 0)"/>
</svg>
