<?xml version="1.0" encoding="UTF-8"?>
<svg xmlns="http://www.w3.org/2000/svg" xmlns:xlink="http://www.w3.org/1999/xlink" width="16" height="21.453593" viewBox="0 0 16 21.453593">
<path fill-rule="nonzero" fill="rgb(14.901961%, 14.901961%, 14.901961%)" fill-opacity="1" d="M 0.453125 0 L 15.546875 0 C 15.792969 0 16 0.203125 16 0.453125 L 16 21 C 16 21.253906 15.792969 21.453125 15.546875 21.453125 L 0.453125 21.453125 C 0.203125 21.453125 0 21.253906 0 21 L 0 0.453125 C 0 0.203125 0.203125 0 0.453125 0 Z M 0.453125 0 "/>
<path fill="none" stroke-width="0.204" stroke-linecap="butt" stroke-linejoin="miter" stroke="rgb(60.392157%, 60.392157%, 60.392157%)" stroke-opacity="1" stroke-miterlimit="4" d="M 1.396729 1.047547 L 13.476253 1.047547 C 13.639932 1.047547 13.770875 1.189402 13.770875 1.374905 L 13.770875 18.222949 C 13.770875 18.404815 13.639932 18.550307 13.476253 18.550307 L 1.396729 18.550307 C 1.236687 18.550307 1.105744 18.404815 1.105744 18.222949 L 1.105744 1.374905 C 1.105744 1.189402 1.236687 1.047547 1.396729 1.047547 Z M 1.396729 1.047547 " transform="matrix(1.073938, 0, 0, 1.073938, 0, 0)"/>
<path fill-rule="nonzero" fill="rgb(100%, 100%, 100%)" fill-opacity="1" stroke-width="0.468347" stroke-linecap="butt" stroke-linejoin="miter" stroke="rgb(100%, 100%, 100%)" stroke-opacity="1" stroke-dasharray="0.468347 0.468347" stroke-dashoffset="0.468347" stroke-miterlimit="4" d="M 8.536704 -0.591373 L 2.654464 9.587505 L -3.227777 -0.591373 Z M 8.536704 -0.591373 " transform="matrix(0.996777, 0, 0, 0.308927, 5.40878, 2.253004)"/>
<path fill-rule="nonzero" fill="rgb(100%, 100%, 100%)" fill-opacity="1" stroke-width="0.468347" stroke-linecap="butt" stroke-linejoin="miter" stroke="rgb(100%, 100%, 100%)" stroke-opacity="1" stroke-dasharray="0.468347 0.468347" stroke-dashoffset="0.468347" stroke-miterlimit="4" d="M 8.536704 -0.589899 L 2.654464 9.601623 L -3.227777 -0.589899 Z M 8.536704 -0.589899 " transform="matrix(0.996777, 0, 0, -0.308927, 5.40878, 19.200577)"/>
<path fill-rule="nonzero" fill="rgb(100%, 100%, 100%)" fill-opacity="1" stroke-width="0.193734" stroke-linecap="butt" stroke-linejoin="miter" stroke="rgb(100%, 100%, 100%)" stroke-opacity="1" stroke-dasharray="0.193734 0.193734" stroke-dashoffset="0.193734" stroke-miterlimit="4" d="M 5.002441 13.831787 L 4.090576 13.831787 L 4.090576 8.540039 C 4.090576 8.236084 4.094238 7.990722 4.101562 7.807617 C 4.108887 7.628174 4.119873 7.434082 4.134521 7.236328 C 4.020996 7.349853 3.918457 7.445068 3.826904 7.521972 C 3.735351 7.602539 3.618164 7.697754 3.475342 7.818603 L 2.67334 8.477783 L 2.182617 7.851562 L 4.229736 6.258545 L 5.002441 6.258545 Z M 5.002441 13.831787 " transform="matrix(1.066667, 0, 0, 1.066667, 0, 0)"/>
<path fill-rule="nonzero" fill="rgb(100%, 100%, 100%)" fill-opacity="1" stroke-width="0.193734" stroke-linecap="butt" stroke-linejoin="miter" stroke="rgb(100%, 100%, 100%)" stroke-opacity="1" stroke-dasharray="0.193734 0.193734" stroke-dashoffset="0.193734" stroke-miterlimit="4" d="M 12.817382 13.831787 L 7.811279 13.831787 L 7.811279 13.055419 L 9.796142 11.055908 C 10.177002 10.671386 10.499267 10.33081 10.759277 10.034179 C 11.022949 9.741211 11.220703 9.448242 11.352539 9.166259 C 11.488037 8.876953 11.557617 8.562011 11.557617 8.221435 C 11.557617 7.807617 11.433105 7.489013 11.184082 7.280273 C 10.93872 7.060547 10.616455 6.950683 10.217285 6.950683 C 9.851074 6.950683 9.528808 7.016601 9.243164 7.141113 C 8.968506 7.269287 8.686523 7.445068 8.393554 7.672119 L 7.895507 7.045898 C 8.192138 6.800537 8.536377 6.588135 8.917236 6.419677 C 9.301757 6.243896 9.741211 6.156006 10.217285 6.156006 C 10.927734 6.156006 11.484375 6.335449 11.894531 6.694336 C 12.304687 7.04956 12.509765 7.540283 12.509765 8.170166 C 12.509765 8.565673 12.429199 8.935547 12.264404 9.283447 C 12.103271 9.627685 11.879882 9.971923 11.586914 10.3125 C 11.293945 10.645752 10.957031 11.000976 10.568847 11.381835 L 8.990478 12.938232 L 8.990478 12.982177 L 12.817382 12.982177 Z M 12.817382 13.831787 " transform="matrix(1.066667, 0, 0, 1.066667, 0, 0)"/>
</svg>
