<?xml version="1.0" encoding="UTF-8"?>
<svg xmlns="http://www.w3.org/2000/svg" xmlns:xlink="http://www.w3.org/1999/xlink" width="15" height="20.112743" viewBox="0 0 15 20.112743">
<path fill-rule="nonzero" fill="rgb(14.901961%, 14.901961%, 14.901961%)" fill-opacity="1" d="M 0.425781 0 L 14.574219 0 C 14.804688 0 15 0.191406 15 0.425781 L 15 19.6875 C 15 19.925781 14.804688 20.113281 14.574219 20.113281 L 0.425781 20.113281 C 0.191406 20.113281 0 19.925781 0 19.6875 L 0 0.425781 C 0 0.191406 0.191406 0 0.425781 0 Z M 0.425781 0 "/>
<path fill="none" stroke-width="0.204" stroke-linecap="butt" stroke-linejoin="miter" stroke="rgb(60.392157%, 60.392157%, 60.392157%)" stroke-opacity="1" stroke-miterlimit="4" d="M 1.396729 1.047546 L 13.474552 1.047546 C 13.641383 1.047546 13.769417 1.191099 13.769417 1.37345 L 13.769417 18.223429 C 13.769417 18.40578 13.641383 18.549333 13.474552 18.549333 L 1.396729 18.549333 C 1.237657 18.549333 1.105744 18.40578 1.105744 18.223429 L 1.105744 1.37345 C 1.105744 1.191099 1.237657 1.047546 1.396729 1.047546 Z M 1.396729 1.047546 " transform="matrix(1.006817, 0, 0, 1.006817, 0, 0)"/>
<path fill-rule="nonzero" fill="rgb(100%, 100%, 100%)" fill-opacity="1" stroke-width="0.468347" stroke-linecap="butt" stroke-linejoin="miter" stroke="rgb(100%, 100%, 100%)" stroke-opacity="1" stroke-dasharray="0.468347 0.468347" stroke-dashoffset="0.468347" stroke-miterlimit="4" d="M 8.535396 -0.589689 L 2.65394 9.593407 L -3.227516 -0.589689 Z M 8.535396 -0.589689 " transform="matrix(0.934478, 0, 0, 0.289619, 5.070731, 2.112191)"/>
<path fill-rule="nonzero" fill="rgb(100%, 100%, 100%)" fill-opacity="1" stroke-width="0.25" stroke-linecap="butt" stroke-linejoin="miter" stroke="rgb(100%, 100%, 100%)" stroke-opacity="1" stroke-dasharray="0.25 0.25" stroke-miterlimit="4" d="M 8.073868 14.460021 L 8.073868 12.72575 L 4.027234 12.72575 L 4.027234 11.290223 L 7.592772 5.524838 L 9.683985 5.524838 L 9.683985 11.429896 L 10.840166 11.429896 L 10.840166 12.72575 L 9.683985 12.72575 L 9.683985 14.460021 Z M 5.420083 11.429896 L 8.073868 11.429896 L 8.073868 7.165994 L 7.980752 7.165994 Z M 3.623735 1.330772 " transform="matrix(1.006817, 0, 0, 1.006817, 0, 0)"/>
<path fill-rule="nonzero" fill="rgb(100%, 100%, 100%)" fill-opacity="1" stroke-width="0.468347" stroke-linecap="butt" stroke-linejoin="miter" stroke="rgb(100%, 100%, 100%)" stroke-opacity="1" stroke-dasharray="0.468347 0.468347" stroke-dashoffset="0.468347" stroke-miterlimit="4" d="M 8.535396 -0.591591 L 2.65394 9.604993 L -3.227516 -0.591591 Z M 8.535396 -0.591591 " transform="matrix(0.934478, 0, 0, -0.289619, 5.070731, 18.000539)"/>
</svg>
