<?xml version="1.0" encoding="UTF-8"?>
<svg xmlns="http://www.w3.org/2000/svg" xmlns:xlink="http://www.w3.org/1999/xlink" width="16" height="21.453593" viewBox="0 0 16 21.453593">
<path fill-rule="nonzero" fill="rgb(14.901961%, 14.901961%, 14.901961%)" fill-opacity="1" d="M 0.453125 0 L 15.546875 0 C 15.792969 0 16 0.203125 16 0.453125 L 16 21 C 16 21.253906 15.792969 21.453125 15.546875 21.453125 L 0.453125 21.453125 C 0.203125 21.453125 0 21.253906 0 21 L 0 0.453125 C 0 0.203125 0.203125 0 0.453125 0 Z M 0.453125 0 "/>
<path fill="none" stroke-width="0.204" stroke-linecap="butt" stroke-linejoin="miter" stroke="rgb(60.392157%, 60.392157%, 60.392157%)" stroke-opacity="1" stroke-miterlimit="4" d="M 1.396729 1.047547 L 13.476253 1.047547 C 13.639932 1.047547 13.770875 1.189402 13.770875 1.374905 L 13.770875 18.222949 C 13.770875 18.404815 13.639932 18.550307 13.476253 18.550307 L 1.396729 18.550307 C 1.236687 18.550307 1.105744 18.404815 1.105744 18.222949 L 1.105744 1.374905 C 1.105744 1.189402 1.236687 1.047547 1.396729 1.047547 Z M 1.396729 1.047547 " transform="matrix(1.073938, 0, 0, 1.073938, 0, 0)"/>
<path fill-rule="nonzero" fill="rgb(100%, 100%, 100%)" fill-opacity="1" stroke-width="0.468347" stroke-linecap="butt" stroke-linejoin="miter" stroke="rgb(100%, 100%, 100%)" stroke-opacity="1" stroke-dasharray="0.468347 0.468347" stroke-dashoffset="0.468347" stroke-miterlimit="4" d="M 8.536704 -0.591373 L 2.654464 9.587505 L -3.227777 -0.591373 Z M 8.536704 -0.591373 " transform="matrix(0.996777, 0, 0, 0.308927, 5.40878, 2.253004)"/>
<path fill-rule="nonzero" fill="rgb(100%, 100%, 100%)" fill-opacity="1" stroke-width="0.468347" stroke-linecap="butt" stroke-linejoin="miter" stroke="rgb(100%, 100%, 100%)" stroke-opacity="1" stroke-dasharray="0.468347 0.468347" stroke-dashoffset="0.468347" stroke-miterlimit="4" d="M 8.536704 -0.589899 L 2.654464 9.601623 L -3.227777 -0.589899 Z M 8.536704 -0.589899 " transform="matrix(0.996777, 0, 0, -0.308927, 5.40878, 19.200577)"/>
<path fill-rule="nonzero" fill="rgb(100%, 100%, 100%)" fill-opacity="1" stroke-width="0.187647" stroke-linecap="butt" stroke-linejoin="miter" stroke="rgb(100%, 100%, 100%)" stroke-opacity="1" stroke-dasharray="0.187647 0.187647" stroke-dashoffset="0.187647" stroke-miterlimit="4" d="M 6.928711 13.721923 L 6.049804 13.721923 L 6.049804 8.598632 C 6.049804 8.305664 6.049804 8.067627 6.057129 7.891845 C 6.064453 7.712402 6.075439 7.525634 6.090088 7.335205 C 5.980224 7.445068 5.877685 7.536621 5.789795 7.609863 C 5.701904 7.690429 5.588379 7.781982 5.452881 7.89917 L 4.672851 8.536377 L 4.200439 7.928466 L 6.18164 6.390381 L 6.928711 6.390381 Z M 6.928711 13.721923 " transform="matrix(1.066667, 0, 0, 1.066667, 0, 0)"/>
<path fill-rule="nonzero" fill="rgb(100%, 100%, 100%)" fill-opacity="1" stroke-width="0.110445" stroke-linecap="butt" stroke-linejoin="miter" stroke="rgb(100%, 100%, 100%)" stroke-opacity="1" stroke-dasharray="0.110445 0.110445" stroke-dashoffset="0.110445" stroke-miterlimit="4" d="M 10.327161 6.63208 C 10.766614 6.63208 11.121839 6.741943 11.381849 6.96167 C 11.645521 7.185058 11.777357 7.496338 11.777357 7.89917 C 11.777357 8.349609 11.634534 8.701172 11.34889 8.957519 C 11.063245 9.213867 10.6714 9.338379 10.162366 9.338379 C 9.94264 9.338379 9.7339 9.320068 9.536146 9.276123 C 9.338392 9.239502 9.177259 9.180908 9.041761 9.104004 L 9.041761 8.602295 C 9.188245 8.690185 9.364027 8.759765 9.569105 8.814697 C 9.777845 8.862304 9.979261 8.887939 10.169691 8.887939 C 10.488294 8.887939 10.74098 8.811035 10.938734 8.660888 C 11.132825 8.510742 11.235364 8.276367 11.235364 7.954101 C 11.235364 7.672119 11.147474 7.456054 10.971693 7.30957 C 10.799573 7.155761 10.524915 7.078857 10.15138 7.078857 C 10.037855 7.078857 9.909681 7.089843 9.763197 7.108154 C 9.620374 7.130127 9.503187 7.148437 9.415296 7.17041 L 9.147962 7.001953 L 9.309095 4.96582 L 11.473402 4.96582 L 11.473402 5.445556 L 9.763197 5.445556 L 9.660657 6.697998 C 9.730238 6.687011 9.82179 6.672363 9.938978 6.657715 C 10.056165 6.639404 10.184339 6.63208 10.327161 6.63208 Z M 10.327161 6.63208 " transform="matrix(1.066667, 0, 0, 1.066667, -1.000014, 0)"/>
</svg>
