<?xml version="1.0" encoding="UTF-8"?>
<svg xmlns="http://www.w3.org/2000/svg" xmlns:xlink="http://www.w3.org/1999/xlink" width="16" height="21.453593" viewBox="0 0 16 21.453593">
<path fill-rule="nonzero" fill="rgb(14.901961%, 14.901961%, 14.901961%)" fill-opacity="1" d="M 0.453125 0 L 15.546875 0 C 15.792969 0 16 0.203125 16 0.453125 L 16 21 C 16 21.253906 15.792969 21.453125 15.546875 21.453125 L 0.453125 21.453125 C 0.203125 21.453125 0 21.253906 0 21 L 0 0.453125 C 0 0.203125 0.203125 0 0.453125 0 Z M 0.453125 0 "/>
<path fill="none" stroke-width="0.204" stroke-linecap="butt" stroke-linejoin="miter" stroke="rgb(60.392157%, 60.392157%, 60.392157%)" stroke-opacity="1" stroke-miterlimit="4" d="M 1.396729 1.047547 L 13.476253 1.047547 C 13.639932 1.047547 13.770875 1.189402 13.770875 1.374905 L 13.770875 18.222949 C 13.770875 18.404815 13.639932 18.550307 13.476253 18.550307 L 1.396729 18.550307 C 1.236687 18.550307 1.105744 18.404815 1.105744 18.222949 L 1.105744 1.374905 C 1.105744 1.189402 1.236687 1.047547 1.396729 1.047547 Z M 1.396729 1.047547 " transform="matrix(1.073938, 0, 0, 1.073938, 0, 0)"/>
<path fill-rule="nonzero" fill="rgb(100%, 100%, 100%)" fill-opacity="1" stroke-width="0.468347" stroke-linecap="butt" stroke-linejoin="miter" stroke="rgb(100%, 100%, 100%)" stroke-opacity="1" stroke-dasharray="0.468347 0.468347" stroke-dashoffset="0.468347" stroke-miterlimit="4" d="M 8.536704 -0.591373 L 2.654464 9.587505 L -3.227777 -0.591373 Z M 8.536704 -0.591373 " transform="matrix(0.996777, 0, 0, 0.308927, 5.40878, 2.253004)"/>
<path fill-rule="nonzero" fill="rgb(100%, 100%, 100%)" fill-opacity="1" stroke-width="0.468347" stroke-linecap="butt" stroke-linejoin="miter" stroke="rgb(100%, 100%, 100%)" stroke-opacity="1" stroke-dasharray="0.468347 0.468347" stroke-dashoffset="0.468347" stroke-miterlimit="4" d="M 8.536704 -0.589899 L 2.654464 9.601623 L -3.227777 -0.589899 Z M 8.536704 -0.589899 " transform="matrix(0.996777, 0, 0, -0.308927, 5.40878, 19.200577)"/>
<path fill-rule="nonzero" fill="rgb(100%, 100%, 100%)" fill-opacity="1" stroke-width="0.29238" stroke-linecap="butt" stroke-linejoin="miter" stroke="rgb(100%, 100%, 100%)" stroke-opacity="1" stroke-dasharray="0.29238 0.29238" stroke-dashoffset="0.29238" stroke-miterlimit="4" d="M 8.068359 13.759277 C 8.068359 13.420898 8.099121 13.130859 8.160645 12.893555 C 8.230957 12.643066 8.349609 12.405762 8.507812 12.186035 C 8.674805 11.966309 8.90332 11.733398 9.188965 11.491699 C 9.536133 11.197266 9.799805 10.951172 9.98877 10.757812 C 10.182129 10.564453 10.318359 10.371094 10.397461 10.186523 C 10.480957 10.001953 10.520508 9.773438 10.520508 9.509766 C 10.520508 9.079102 10.384277 8.749512 10.107422 8.520996 C 9.830566 8.288086 9.430664 8.173828 8.907715 8.173828 C 8.472656 8.173828 8.085938 8.230957 7.747559 8.349609 C 7.40918 8.455078 7.083984 8.58252 6.771973 8.736328 L 6.358887 7.800293 C 6.714844 7.611328 7.105957 7.45752 7.536621 7.330078 C 7.967285 7.207031 8.455078 7.145508 8.986816 7.145508 C 9.830566 7.145508 10.485352 7.356445 10.946777 7.773926 C 11.408203 8.191406 11.641113 8.758301 11.641113 9.479004 C 11.641113 9.878906 11.575195 10.22168 11.443359 10.507324 C 11.315918 10.779785 11.131348 11.039062 10.894043 11.276367 C 10.665527 11.513672 10.388672 11.759766 10.067871 12.027832 C 9.773438 12.273926 9.544922 12.493652 9.386719 12.678223 C 9.23291 12.867188 9.131836 13.051758 9.079102 13.236328 C 9.026367 13.416504 9 13.63623 9 13.895508 L 9 14.119629 L 8.068359 14.119629 Z M 7.760742 16.07959 C 7.760742 15.75 7.835449 15.521484 7.989258 15.385254 C 8.147461 15.253418 8.349609 15.1875 8.586914 15.1875 C 8.806641 15.1875 9 15.253418 9.158203 15.385254 C 9.320801 15.521484 9.399902 15.75 9.399902 16.07959 C 9.399902 16.400391 9.320801 16.628906 9.158203 16.773926 C 9 16.914551 8.806641 16.984863 8.586914 16.984863 C 8.349609 16.984863 8.147461 16.914551 7.989258 16.773926 C 7.835449 16.628906 7.760742 16.400391 7.760742 16.07959 Z M 7.760742 16.07959 " transform="matrix(0.888889, 0, 0, 0.888889, 0, 0)"/>
</svg>
