<?xml version="1.0" encoding="UTF-8"?>
<svg xmlns="http://www.w3.org/2000/svg" xmlns:xlink="http://www.w3.org/1999/xlink" width="16" height="21.453593" viewBox="0 0 16 21.453593">
<path fill-rule="nonzero" fill="rgb(14.901961%, 14.901961%, 14.901961%)" fill-opacity="1" d="M 0.453125 0 L 15.546875 0 C 15.792969 0 16 0.203125 16 0.453125 L 16 21 C 16 21.253906 15.792969 21.453125 15.546875 21.453125 L 0.453125 21.453125 C 0.203125 21.453125 0 21.253906 0 21 L 0 0.453125 C 0 0.203125 0.203125 0 0.453125 0 Z M 0.453125 0 "/>
<path fill="none" stroke-width="0.204" stroke-linecap="butt" stroke-linejoin="miter" stroke="rgb(60.392157%, 60.392157%, 60.392157%)" stroke-opacity="1" stroke-miterlimit="4" d="M 1.396729 1.047547 L 13.476253 1.047547 C 13.639932 1.047547 13.770875 1.189402 13.770875 1.374905 L 13.770875 18.222949 C 13.770875 18.404815 13.639932 18.550307 13.476253 18.550307 L 1.396729 18.550307 C 1.236687 18.550307 1.105744 18.404815 1.105744 18.222949 L 1.105744 1.374905 C 1.105744 1.189402 1.236687 1.047547 1.396729 1.047547 Z M 1.396729 1.047547 " transform="matrix(1.073938, 0, 0, 1.073938, 0, 0)"/>
<path fill-rule="nonzero" fill="rgb(100%, 100%, 100%)" fill-opacity="1" stroke-width="0.468347" stroke-linecap="butt" stroke-linejoin="miter" stroke="rgb(100%, 100%, 100%)" stroke-opacity="1" stroke-dasharray="0.468347 0.468347" stroke-dashoffset="0.468347" stroke-miterlimit="4" d="M 8.536704 -0.591373 L 2.654464 9.587505 L -3.227777 -0.591373 Z M 8.536704 -0.591373 " transform="matrix(0.996777, 0, 0, 0.308927, 5.40878, 2.253004)"/>
<path fill-rule="nonzero" fill="rgb(100%, 100%, 100%)" fill-opacity="1" stroke-width="0.468347" stroke-linecap="butt" stroke-linejoin="miter" stroke="rgb(100%, 100%, 100%)" stroke-opacity="1" stroke-dasharray="0.468347 0.468347" stroke-dashoffset="0.468347" stroke-miterlimit="4" d="M 8.536704 -0.589899 L 2.654464 9.601623 L -3.227777 -0.589899 Z M 8.536704 -0.589899 " transform="matrix(0.996777, 0, 0, -0.308927, 5.40878, 19.200577)"/>
<path fill-rule="nonzero" fill="rgb(100%, 100%, 100%)" fill-opacity="1" stroke-width="0.191077" stroke-linecap="butt" stroke-linejoin="miter" stroke="rgb(100%, 100%, 100%)" stroke-opacity="1" stroke-dasharray="0.191077 0.191077" stroke-dashoffset="0.191077" stroke-miterlimit="4" d="M 7.950439 8.657226 C 7.950439 9.158935 7.807617 9.561767 7.529297 9.858398 C 7.250976 10.151367 6.873779 10.349121 6.401367 10.444336 L 6.401367 10.488281 C 6.998291 10.557861 7.44873 10.744628 7.738037 11.052246 C 8.031006 11.356201 8.17749 11.759033 8.17749 12.253417 C 8.17749 12.685546 8.074951 13.07373 7.873535 13.414306 C 7.672119 13.75122 7.36084 14.01123 6.932373 14.197997 C 6.518554 14.388427 5.976562 14.483642 5.31372 14.483642 C 4.921875 14.483642 4.559326 14.450683 4.226074 14.388427 C 3.88916 14.333496 3.570556 14.223632 3.266601 14.073486 L 3.266601 13.216552 C 3.577881 13.370361 3.914795 13.49121 4.277344 13.579101 C 4.643555 13.666992 4.991455 13.707275 5.321045 13.707275 C 5.991211 13.707275 6.474609 13.579101 6.767578 13.319091 C 7.067871 13.055419 7.218017 12.692871 7.218017 12.231445 C 7.218017 11.766357 7.03125 11.433105 6.665039 11.231689 C 6.298828 11.019287 5.786133 10.913086 5.123291 10.913086 L 4.405517 10.913086 L 4.405517 10.129394 L 5.137939 10.129394 C 5.749511 10.129394 6.214599 10.004882 6.525879 9.741211 C 6.844482 9.484863 7.009277 9.144287 7.009277 8.719482 C 7.009277 8.356933 6.884765 8.078613 6.639404 7.884521 C 6.397705 7.683105 6.068115 7.580566 5.646972 7.580566 C 5.24414 7.580566 4.899902 7.63916 4.614258 7.756347 C 4.324951 7.877197 4.046631 8.027343 3.764648 8.206787 L 3.306885 7.580566 C 3.570556 7.368164 3.900146 7.192383 4.28833 7.038574 C 4.6875 6.881103 5.137939 6.807861 5.639648 6.807861 C 6.419677 6.807861 6.994629 6.97998 7.371826 7.327881 C 7.756347 7.679443 7.950439 8.122558 7.950439 8.657226 Z M 7.950439 8.657226 " transform="matrix(1.066667, 0, 0, 1.066667, 0, 0)"/>
<path fill-rule="nonzero" fill="rgb(100%, 100%, 100%)" fill-opacity="1" stroke-width="0.110445" stroke-linecap="butt" stroke-linejoin="miter" stroke="rgb(100%, 100%, 100%)" stroke-opacity="1" stroke-dasharray="0.110445 0.110445" stroke-dashoffset="0.110445" stroke-miterlimit="4" d="M 10.327148 6.63208 C 10.766601 6.63208 11.121826 6.741943 11.381835 6.96167 C 11.645507 7.185058 11.777343 7.496338 11.777343 7.89917 C 11.777343 8.349609 11.634521 8.701172 11.348877 8.957519 C 11.063232 9.213867 10.671386 9.338379 10.162353 9.338379 C 9.942627 9.338379 9.733886 9.320068 9.536132 9.276123 C 9.338379 9.239502 9.177246 9.180908 9.041748 9.104004 L 9.041748 8.602295 C 9.188232 8.690185 9.364013 8.759765 9.569091 8.814697 C 9.777832 8.862304 9.979248 8.887939 10.169677 8.887939 C 10.488281 8.887939 10.740966 8.811035 10.93872 8.660888 C 11.132812 8.510742 11.235351 8.276367 11.235351 7.954101 C 11.235351 7.672119 11.14746 7.456054 10.971679 7.30957 C 10.79956 7.155761 10.524902 7.078857 10.151367 7.078857 C 10.037841 7.078857 9.909668 7.089843 9.763183 7.108154 C 9.620361 7.130127 9.503173 7.148437 9.415283 7.17041 L 9.147949 7.001953 L 9.309082 4.96582 L 11.473388 4.96582 L 11.473388 5.445556 L 9.763183 5.445556 L 9.660644 6.697998 C 9.730224 6.687011 9.821777 6.672363 9.938964 6.657715 C 10.056152 6.639404 10.184326 6.63208 10.327148 6.63208 Z M 10.327148 6.63208 " transform="matrix(1.066667, 0, 0, 1.066667, 0, 0)"/>
</svg>
