<?xml version="1.0" encoding="UTF-8"?>
<svg xmlns="http://www.w3.org/2000/svg" xmlns:xlink="http://www.w3.org/1999/xlink" width="16" height="21.453593" viewBox="0 0 16 21.453593">
<path fill-rule="nonzero" fill="rgb(14.901961%, 14.901961%, 14.901961%)" fill-opacity="1" d="M 0.453125 0 L 15.546875 0 C 15.792969 0 16 0.203125 16 0.453125 L 16 21 C 16 21.253906 15.792969 21.453125 15.546875 21.453125 L 0.453125 21.453125 C 0.203125 21.453125 0 21.253906 0 21 L 0 0.453125 C 0 0.203125 0.203125 0 0.453125 0 Z M 0.453125 0 "/>
<path fill="none" stroke-width="0.204" stroke-linecap="butt" stroke-linejoin="miter" stroke="rgb(60.392157%, 60.392157%, 60.392157%)" stroke-opacity="1" stroke-miterlimit="4" d="M 1.396729 1.047547 L 13.476253 1.047547 C 13.639932 1.047547 13.770875 1.189402 13.770875 1.374905 L 13.770875 18.222949 C 13.770875 18.404815 13.639932 18.550307 13.476253 18.550307 L 1.396729 18.550307 C 1.236687 18.550307 1.105744 18.404815 1.105744 18.222949 L 1.105744 1.374905 C 1.105744 1.189402 1.236687 1.047547 1.396729 1.047547 Z M 1.396729 1.047547 " transform="matrix(1.073938, 0, 0, 1.073938, 0, 0)"/>
<path fill-rule="nonzero" fill="rgb(100%, 100%, 100%)" fill-opacity="1" stroke-width="0.468347" stroke-linecap="butt" stroke-linejoin="miter" stroke="rgb(100%, 100%, 100%)" stroke-opacity="1" stroke-dasharray="0.468347 0.468347" stroke-dashoffset="0.468347" stroke-miterlimit="4" d="M 8.536704 -0.591373 L 2.654464 9.587505 L -3.227777 -0.591373 Z M 8.536704 -0.591373 " transform="matrix(0.996777, 0, 0, 0.308927, 5.40878, 2.253004)"/>
<path fill-rule="nonzero" fill="rgb(100%, 100%, 100%)" fill-opacity="1" stroke-width="0.468347" stroke-linecap="butt" stroke-linejoin="miter" stroke="rgb(100%, 100%, 100%)" stroke-opacity="1" stroke-dasharray="0.468347 0.468347" stroke-dashoffset="0.468347" stroke-miterlimit="4" d="M 8.536704 -0.589899 L 2.654464 9.601623 L -3.227777 -0.589899 Z M 8.536704 -0.589899 " transform="matrix(0.996777, 0, 0, -0.308927, 5.40878, 19.200577)"/>
<path fill-rule="nonzero" fill="rgb(100%, 100%, 100%)" fill-opacity="1" stroke-width="0.230376" stroke-linecap="butt" stroke-linejoin="miter" stroke="rgb(100%, 100%, 100%)" stroke-opacity="1" stroke-dasharray="0.230376 0.230376" stroke-dashoffset="0.230376" stroke-miterlimit="4" d="M 10.462646 9.400634 C 10.462646 10.048828 10.404052 10.686035 10.286865 11.31958 C 10.177002 11.938476 9.971923 12.506103 9.667968 13.018798 C 9.375 13.520507 8.953857 13.927001 8.408203 14.227294 C 7.869873 14.531249 7.177734 14.685058 6.328125 14.685058 C 6.159668 14.685058 5.961914 14.67041 5.734863 14.644775 C 5.518799 14.630126 5.335693 14.600829 5.192871 14.556884 L 5.192871 13.608398 C 5.522461 13.721923 5.892334 13.776855 6.30249 13.776855 C 6.89209 13.776855 7.371826 13.677978 7.749023 13.487548 C 8.137207 13.289794 8.444824 13.029785 8.671875 12.703857 C 8.898925 12.366943 9.06372 11.982421 9.162597 11.542968 C 9.265136 11.096191 9.32373 10.631103 9.338379 10.144043 L 9.265136 10.144043 C 9.078369 10.429687 8.811035 10.678711 8.45581 10.887451 C 8.111572 11.088867 7.668457 11.191406 7.122802 11.191406 C 6.346435 11.191406 5.723877 10.957031 5.24414 10.484619 C 4.771728 10.004882 4.537353 9.331054 4.537353 8.466797 C 4.537353 7.836914 4.654541 7.294922 4.888916 6.84082 C 5.134277 6.386718 5.467529 6.038818 5.899658 5.793457 C 6.328125 5.551758 6.833496 5.430908 7.412109 5.430908 C 7.983398 5.430908 8.499756 5.577392 8.961181 5.870361 C 9.422607 6.156006 9.79248 6.595459 10.059814 7.181396 C 10.327148 7.760009 10.462646 8.503418 10.462646 9.400634 Z M 7.412109 6.364746 C 6.89209 6.364746 6.459961 6.533203 6.126709 6.877441 C 5.797119 7.221679 5.635986 7.749023 5.635986 8.452148 C 5.635986 9.038086 5.771484 9.492187 6.049804 9.829101 C 6.335449 10.155029 6.774902 10.323486 7.36084 10.323486 C 7.763672 10.323486 8.111572 10.239257 8.408203 10.081787 C 8.701172 9.91333 8.928222 9.704589 9.089355 9.448242 C 9.257812 9.199218 9.338379 8.939209 9.338379 8.668213 C 9.338379 8.305664 9.268798 7.950439 9.125976 7.598877 C 8.983154 7.247314 8.770752 6.950683 8.481445 6.716308 C 8.1958 6.481933 7.840576 6.364746 7.412109 6.364746 Z M 7.412109 6.364746 " transform="matrix(1.066667, 0, 0, 1.066667, 0, 0)"/>
</svg>
