<?xml version="1.0" encoding="UTF-8"?>
<svg xmlns="http://www.w3.org/2000/svg" xmlns:xlink="http://www.w3.org/1999/xlink" width="16" height="21.453593" viewBox="0 0 16 21.453593">
<path fill-rule="nonzero" fill="rgb(14.901961%, 14.901961%, 14.901961%)" fill-opacity="1" d="M 0.453125 0 L 15.546875 0 C 15.792969 0 16 0.203125 16 0.453125 L 16 21 C 16 21.253906 15.792969 21.453125 15.546875 21.453125 L 0.453125 21.453125 C 0.203125 21.453125 0 21.253906 0 21 L 0 0.453125 C 0 0.203125 0.203125 0 0.453125 0 Z M 0.453125 0 "/>
<path fill="none" stroke-width="0.204" stroke-linecap="butt" stroke-linejoin="miter" stroke="rgb(60.392157%, 60.392157%, 60.392157%)" stroke-opacity="1" stroke-miterlimit="4" d="M 1.396729 1.047547 L 13.476253 1.047547 C 13.639932 1.047547 13.770875 1.189402 13.770875 1.374905 L 13.770875 18.222949 C 13.770875 18.404815 13.639932 18.550307 13.476253 18.550307 L 1.396729 18.550307 C 1.236687 18.550307 1.105744 18.404815 1.105744 18.222949 L 1.105744 1.374905 C 1.105744 1.189402 1.236687 1.047547 1.396729 1.047547 Z M 1.396729 1.047547 " transform="matrix(1.073938, 0, 0, 1.073938, 0, 0)"/>
<path fill-rule="nonzero" fill="rgb(100%, 100%, 100%)" fill-opacity="1" stroke-width="0.468347" stroke-linecap="butt" stroke-linejoin="miter" stroke="rgb(100%, 100%, 100%)" stroke-opacity="1" stroke-dasharray="0.468347 0.468347" stroke-dashoffset="0.468347" stroke-miterlimit="4" d="M 8.536704 -0.591373 L 2.654464 9.587505 L -3.227777 -0.591373 Z M 8.536704 -0.591373 " transform="matrix(0.996777, 0, 0, 0.308927, 5.40878, 2.253004)"/>
<path fill-rule="nonzero" fill="rgb(100%, 100%, 100%)" fill-opacity="1" stroke-width="0.468347" stroke-linecap="butt" stroke-linejoin="miter" stroke="rgb(100%, 100%, 100%)" stroke-opacity="1" stroke-dasharray="0.468347 0.468347" stroke-dashoffset="0.468347" stroke-miterlimit="4" d="M 8.536704 -0.589899 L 2.654464 9.601623 L -3.227777 -0.589899 Z M 8.536704 -0.589899 " transform="matrix(0.996777, 0, 0, -0.308927, 5.40878, 19.200577)"/>
<path fill-rule="nonzero" fill="rgb(100%, 100%, 100%)" fill-opacity="1" stroke-width="0.230376" stroke-linecap="butt" stroke-linejoin="miter" stroke="rgb(100%, 100%, 100%)" stroke-opacity="1" stroke-dasharray="0.230376 0.230376" stroke-dashoffset="0.230376" stroke-miterlimit="4" d="M 8.168893 9.038086 C 9.091744 9.038086 9.827828 9.268798 10.377145 9.730224 C 10.919137 10.19165 11.193795 10.843505 11.193795 11.682128 C 11.193795 12.612304 10.897164 13.348388 10.296578 13.89038 C 9.710641 14.417724 8.886666 14.685058 7.828316 14.685058 C 7.363229 14.685058 6.927438 14.641113 6.513619 14.556884 C 6.114449 14.472656 5.773873 14.351806 5.495553 14.194335 L 5.495553 13.14331 C 5.799508 13.330078 6.162057 13.476562 6.594186 13.586425 C 7.029977 13.688964 7.447457 13.736572 7.839303 13.736572 C 8.505807 13.736572 9.036813 13.579101 9.443307 13.271484 C 9.853463 12.95288 10.058541 12.462158 10.058541 11.795654 C 10.058541 11.206054 9.879098 10.759277 9.516549 10.444336 C 9.154 10.125732 8.586373 9.968261 7.802682 9.968261 C 7.568307 9.968261 7.300973 9.990234 6.997018 10.034179 C 6.693063 10.0708 6.451363 10.114746 6.264596 10.155029 L 5.711617 9.803466 L 6.048531 5.55542 L 10.563912 5.55542 L 10.563912 6.5625 L 6.997018 6.5625 L 6.780953 9.173584 C 6.923775 9.147949 7.117867 9.118652 7.363229 9.085693 C 7.604928 9.052734 7.872262 9.038086 8.168893 9.038086 Z M 8.168893 9.038086 " transform="matrix(1.066667, 0, 0, 1.066667, -0.900986, 0)"/>
</svg>
