<?xml version="1.0" encoding="UTF-8"?>
<svg xmlns="http://www.w3.org/2000/svg" xmlns:xlink="http://www.w3.org/1999/xlink" width="16" height="21.453593" viewBox="0 0 16 21.453593">
<path fill-rule="nonzero" fill="rgb(14.901961%, 14.901961%, 14.901961%)" fill-opacity="1" d="M 0.453125 0 L 15.546875 0 C 15.792969 0 16 0.203125 16 0.453125 L 16 21 C 16 21.253906 15.792969 21.453125 15.546875 21.453125 L 0.453125 21.453125 C 0.203125 21.453125 0 21.253906 0 21 L 0 0.453125 C 0 0.203125 0.203125 0 0.453125 0 Z M 0.453125 0 "/>
<path fill="none" stroke-width="0.204" stroke-linecap="butt" stroke-linejoin="miter" stroke="rgb(60.392157%, 60.392157%, 60.392157%)" stroke-opacity="1" stroke-miterlimit="4" d="M 1.396729 1.047547 L 13.476253 1.047547 C 13.639932 1.047547 13.770875 1.189402 13.770875 1.374905 L 13.770875 18.222949 C 13.770875 18.404815 13.639932 18.550307 13.476253 18.550307 L 1.396729 18.550307 C 1.236687 18.550307 1.105744 18.404815 1.105744 18.222949 L 1.105744 1.374905 C 1.105744 1.189402 1.236687 1.047547 1.396729 1.047547 Z M 1.396729 1.047547 " transform="matrix(1.073938, 0, 0, 1.073938, 0, 0)"/>
<path fill-rule="nonzero" fill="rgb(100%, 100%, 100%)" fill-opacity="1" stroke-width="0.468347" stroke-linecap="butt" stroke-linejoin="miter" stroke="rgb(100%, 100%, 100%)" stroke-opacity="1" stroke-dasharray="0.468347 0.468347" stroke-dashoffset="0.468347" stroke-miterlimit="4" d="M 8.536704 -0.591373 L 2.654464 9.587505 L -3.227777 -0.591373 Z M 8.536704 -0.591373 " transform="matrix(0.996777, 0, 0, 0.308927, 5.40878, 2.253004)"/>
<path fill-rule="nonzero" fill="rgb(100%, 100%, 100%)" fill-opacity="1" stroke-width="0.468347" stroke-linecap="butt" stroke-linejoin="miter" stroke="rgb(100%, 100%, 100%)" stroke-opacity="1" stroke-dasharray="0.468347 0.468347" stroke-dashoffset="0.468347" stroke-miterlimit="4" d="M 8.536704 -0.589899 L 2.654464 9.601623 L -3.227777 -0.589899 Z M 8.536704 -0.589899 " transform="matrix(0.996777, 0, 0, -0.308927, 5.40878, 19.200577)"/>
<path fill-rule="nonzero" fill="rgb(100%, 100%, 100%)" fill-opacity="1" stroke-width="0.230376" stroke-linecap="butt" stroke-linejoin="miter" stroke="rgb(100%, 100%, 100%)" stroke-opacity="1" stroke-dasharray="0.230376 0.230376" stroke-dashoffset="0.230376" stroke-miterlimit="4" d="M 10.847168 12.513427 L 9.536132 12.513427 L 9.536132 14.556884 L 8.463134 14.556884 L 8.463134 12.513427 L 4.152832 12.513427 L 4.152832 11.568603 L 8.389892 5.50415 L 9.536132 5.50415 L 9.536132 11.520996 L 10.847168 11.520996 Z M 8.463134 8.682861 C 8.463134 8.24707 8.474121 7.873535 8.488769 7.573242 C 8.50708 7.261963 8.518066 6.965332 8.529052 6.690674 L 8.477783 6.690674 C 8.408203 6.848144 8.327636 7.020263 8.225097 7.207031 C 8.12622 7.393799 8.027343 7.547607 7.935791 7.672119 L 5.236816 11.520996 L 8.463134 11.520996 Z M 8.463134 8.682861 " transform="matrix(1.066667, 0, 0, 1.066667, 0, 0)"/>
</svg>
