<?xml version="1.0" encoding="UTF-8"?>
<svg xmlns="http://www.w3.org/2000/svg" xmlns:xlink="http://www.w3.org/1999/xlink" width="16" height="21.453593" viewBox="0 0 16 21.453593">
<path fill-rule="nonzero" fill="rgb(14.901961%, 14.901961%, 14.901961%)" fill-opacity="1" d="M 0.453125 0 L 15.546875 0 C 15.792969 0 16 0.203125 16 0.453125 L 16 21 C 16 21.253906 15.792969 21.453125 15.546875 21.453125 L 0.453125 21.453125 C 0.203125 21.453125 0 21.253906 0 21 L 0 0.453125 C 0 0.203125 0.203125 0 0.453125 0 Z M 0.453125 0 "/>
<path fill="none" stroke-width="0.204" stroke-linecap="butt" stroke-linejoin="miter" stroke="rgb(60.392157%, 60.392157%, 60.392157%)" stroke-opacity="1" stroke-miterlimit="4" d="M 1.396729 1.047547 L 13.476253 1.047547 C 13.639932 1.047547 13.770875 1.189402 13.770875 1.374905 L 13.770875 18.222949 C 13.770875 18.404815 13.639932 18.550307 13.476253 18.550307 L 1.396729 18.550307 C 1.236687 18.550307 1.105744 18.404815 1.105744 18.222949 L 1.105744 1.374905 C 1.105744 1.189402 1.236687 1.047547 1.396729 1.047547 Z M 1.396729 1.047547 " transform="matrix(1.073938, 0, 0, 1.073938, 0, 0)"/>
<path fill-rule="nonzero" fill="rgb(100%, 100%, 100%)" fill-opacity="1" stroke-width="0.468347" stroke-linecap="butt" stroke-linejoin="miter" stroke="rgb(100%, 100%, 100%)" stroke-opacity="1" stroke-dasharray="0.468347 0.468347" stroke-dashoffset="0.468347" stroke-miterlimit="4" d="M 8.536704 -0.591373 L 2.654464 9.587505 L -3.227777 -0.591373 Z M 8.536704 -0.591373 " transform="matrix(0.996777, 0, 0, 0.308927, 5.40878, 2.253004)"/>
<path fill-rule="nonzero" fill="rgb(100%, 100%, 100%)" fill-opacity="1" stroke-width="0.468347" stroke-linecap="butt" stroke-linejoin="miter" stroke="rgb(100%, 100%, 100%)" stroke-opacity="1" stroke-dasharray="0.468347 0.468347" stroke-dashoffset="0.468347" stroke-miterlimit="4" d="M 8.536704 -0.589899 L 2.654464 9.601623 L -3.227777 -0.589899 Z M 8.536704 -0.589899 " transform="matrix(0.996777, 0, 0, -0.308927, 5.40878, 19.200577)"/>
<path fill-rule="nonzero" fill="rgb(100%, 100%, 100%)" fill-opacity="1" stroke-width="0.230376" stroke-linecap="butt" stroke-linejoin="miter" stroke="rgb(100%, 100%, 100%)" stroke-opacity="1" stroke-dasharray="0.230376 0.230376" stroke-dashoffset="0.230376" stroke-miterlimit="4" d="M 5.394416 10.711669 C 5.394416 10.063476 5.449347 9.429931 5.559211 8.807373 C 5.676398 8.17749 5.881476 7.609863 6.174445 7.104492 C 6.4784 6.595459 6.899543 6.185302 7.434211 5.881347 C 7.976203 5.581054 8.668341 5.430908 9.514289 5.430908 C 9.693732 5.430908 9.887824 5.438232 10.100226 5.456543 C 10.316291 5.471191 10.492072 5.500488 10.62757 5.544433 L 10.62757 6.489258 C 10.477423 6.437988 10.305304 6.401367 10.10755 6.37207 C 9.924445 6.350097 9.734015 6.339111 9.543586 6.339111 C 8.96131 6.339111 8.481574 6.430664 8.09339 6.628418 C 7.705207 6.818847 7.401252 7.086181 7.170539 7.423095 C 6.954474 7.756347 6.793342 8.144531 6.694465 8.580322 C 6.591926 9.016113 6.52967 9.484863 6.504035 9.979248 L 6.580939 9.979248 C 6.771369 9.686279 7.042365 9.437255 7.386603 9.239502 C 7.730842 9.027099 8.170295 8.920898 8.712287 8.920898 C 9.492316 8.920898 10.122199 9.158935 10.598273 9.638671 C 11.081671 10.111084 11.319709 10.784912 11.319709 11.656494 C 11.319709 12.597656 11.059699 13.337402 10.539679 13.875732 C 10.026984 14.414062 9.334845 14.685058 8.459601 14.685058 C 7.88465 14.685058 7.371955 14.542236 6.906867 14.252929 C 6.445441 13.967285 6.075568 13.531494 5.797248 12.941894 C 5.529914 12.352294 5.394416 11.612548 5.394416 10.711669 Z M 8.444953 13.75122 C 8.975959 13.75122 9.404425 13.579101 9.730353 13.245849 C 10.059943 12.901611 10.221076 12.374267 10.221076 11.656494 C 10.221076 11.088867 10.074591 10.631103 9.781623 10.297851 C 9.495978 9.960937 9.063849 9.79248 8.485236 9.79248 C 8.086066 9.79248 7.74549 9.876709 7.448859 10.041504 C 7.15589 10.202636 6.925177 10.411377 6.75672 10.6604 C 6.595588 10.913086 6.518683 11.176757 6.518683 11.440429 C 6.518683 11.802978 6.588263 12.165527 6.731086 12.524414 C 6.873908 12.879638 7.08631 13.172607 7.375617 13.406982 C 7.661261 13.637695 8.016486 13.75122 8.444953 13.75122 Z M 8.444953 13.75122 " transform="matrix(1.066667, 0, 0, 1.066667, -0.9142, 0)"/>
</svg>
