<?xml version="1.0" encoding="UTF-8"?>
<svg xmlns="http://www.w3.org/2000/svg" xmlns:xlink="http://www.w3.org/1999/xlink" width="20" height="17.126584" viewBox="0 0 20 17.126584">
<path fill-rule="nonzero" fill="rgb(100%, 79.607843%, 0%)" fill-opacity="1" stroke-width="0.7" stroke-linecap="round" stroke-linejoin="round" stroke="rgb(0%, 0%, 0%)" stroke-opacity="1" stroke-miterlimit="4" d="M 21.971311 0.443554 C 13.539387 0.443554 7.114436 0.412812 0.35133 0.351329 C 3.614309 6.104361 7.834663 13.148531 11.102034 18.901563 C 14.483587 13.161706 22.133801 0.443554 22.133801 0.443554 Z M 21.971311 0.443554 " transform="matrix(0.889477, 0, 0, 0.889477, 0, 0.0000007264)"/>
<path fill-rule="nonzero" fill="rgb(0%, 0%, 0%)" fill-opacity="1" d="M 13.195312 9.328125 L 13.195312 5.730469 C 13.195312 3.734375 13.125 3.226562 12.777344 2.632812 C 12.214844 1.695312 11.183594 1.148438 9.976562 1.148438 C 8.867188 1.148438 7.945312 1.59375 7.34375 2.421875 C 6.847656 3.078125 6.765625 3.558594 6.765625 5.730469 L 6.765625 9.328125 L 7.703125 9.328125 L 7.703125 5.6875 C 7.703125 4.175781 7.785156 3.546875 8.023438 3.089844 C 8.386719 2.421875 9.164062 1.964844 9.976562 1.964844 C 10.742188 1.964844 11.480469 2.351562 11.867188 2.96875 C 12.175781 3.449219 12.257812 4 12.257812 5.6875 L 12.257812 9.328125 Z M 13.195312 9.328125 "/>
<path fill-rule="nonzero" fill="rgb(0%, 0%, 0%)" fill-opacity="1" d="M 9.976562 3.953125 C 10.320312 3.953125 10.601562 4.035156 10.824219 4.195312 C 11.042969 4.359375 11.15625 4.585938 11.15625 4.890625 C 11.15625 5.050781 11.121094 5.1875 11.050781 5.304688 C 10.980469 5.421875 10.894531 5.523438 10.78125 5.617188 C 10.664062 5.707031 10.542969 5.785156 10.402344 5.855469 C 10.570312 5.933594 10.710938 6.019531 10.847656 6.121094 C 10.976562 6.214844 11.082031 6.324219 11.160156 6.453125 C 11.238281 6.578125 11.28125 6.734375 11.28125 6.914062 C 11.28125 7.242188 11.164062 7.503906 10.929688 7.699219 C 10.699219 7.890625 10.386719 7.984375 9.996094 7.984375 C 9.574219 7.984375 9.25 7.894531 9.023438 7.710938 C 8.792969 7.527344 8.679688 7.265625 8.679688 6.929688 C 8.679688 6.753906 8.71875 6.597656 8.789062 6.460938 C 8.867188 6.332031 8.96875 6.21875 9.09375 6.125 C 9.21875 6.027344 9.351562 5.945312 9.492188 5.882812 C 9.304688 5.773438 9.140625 5.640625 9.007812 5.484375 C 8.871094 5.328125 8.804688 5.128906 8.804688 4.886719 C 8.804688 4.6875 8.859375 4.519531 8.960938 4.382812 C 9.0625 4.246094 9.203125 4.136719 9.378906 4.0625 C 9.554688 3.988281 9.753906 3.953125 9.976562 3.953125 Z M 9.972656 4.34375 C 9.769531 4.34375 9.605469 4.390625 9.46875 4.492188 C 9.34375 4.585938 9.28125 4.726562 9.28125 4.910156 C 9.28125 5.042969 9.308594 5.160156 9.375 5.25 C 9.441406 5.34375 9.527344 5.421875 9.636719 5.484375 C 9.75 5.546875 9.867188 5.609375 10 5.667969 C 10.191406 5.585938 10.347656 5.492188 10.476562 5.378906 C 10.609375 5.265625 10.671875 5.109375 10.671875 4.910156 C 10.671875 4.726562 10.613281 4.585938 10.480469 4.492188 C 10.355469 4.390625 10.183594 4.34375 9.972656 4.34375 Z M 9.152344 6.9375 C 9.152344 7.125 9.222656 7.289062 9.359375 7.414062 C 9.492188 7.539062 9.699219 7.601562 9.984375 7.601562 C 10.25 7.601562 10.453125 7.539062 10.59375 7.414062 C 10.734375 7.289062 10.808594 7.121094 10.808594 6.917969 C 10.808594 6.730469 10.734375 6.570312 10.582031 6.449219 C 10.429688 6.320312 10.230469 6.207031 9.984375 6.109375 L 9.894531 6.082031 C 9.652344 6.179688 9.46875 6.300781 9.339844 6.4375 C 9.214844 6.566406 9.152344 6.734375 9.152344 6.9375 Z M 9.152344 6.9375 "/>
</svg>
