<?xml version="1.0" encoding="UTF-8"?>
<svg xmlns="http://www.w3.org/2000/svg" xmlns:xlink="http://www.w3.org/1999/xlink" width="20" height="17.126584" viewBox="0 0 20 17.126584">
<path fill-rule="nonzero" fill="rgb(100%, 79.607843%, 0%)" fill-opacity="1" stroke-width="0.7" stroke-linecap="round" stroke-linejoin="round" stroke="rgb(0%, 0%, 0%)" stroke-opacity="1" stroke-miterlimit="4" d="M 21.971311 0.443554 C 13.539387 0.443554 7.114436 0.412812 0.35133 0.351329 C 3.614309 6.104361 7.834663 13.148531 11.102034 18.901563 C 14.483587 13.161706 22.133801 0.443554 22.133801 0.443554 Z M 21.971311 0.443554 " transform="matrix(0.889477, 0, 0, 0.889477, 0, 0.0000007264)"/>
<path fill-rule="nonzero" fill="rgb(0%, 0%, 0%)" fill-opacity="1" d="M 13.195312 9.328125 L 13.195312 5.730469 C 13.195312 3.734375 13.125 3.226562 12.777344 2.632812 C 12.214844 1.695312 11.183594 1.148438 9.976562 1.148438 C 8.867188 1.148438 7.945312 1.59375 7.34375 2.421875 C 6.847656 3.078125 6.765625 3.558594 6.765625 5.730469 L 6.765625 9.328125 L 7.703125 9.328125 L 7.703125 5.6875 C 7.703125 4.175781 7.785156 3.546875 8.023438 3.089844 C 8.386719 2.421875 9.164062 1.964844 9.976562 1.964844 C 10.742188 1.964844 11.480469 2.351562 11.867188 2.96875 C 12.175781 3.449219 12.257812 4 12.257812 5.6875 L 12.257812 9.328125 Z M 13.195312 9.328125 "/>
<path fill-rule="nonzero" fill="rgb(0%, 0%, 0%)" fill-opacity="1" d="M 9.539062 7.214844 C 9.539062 7.046875 9.554688 6.90625 9.582031 6.785156 C 9.617188 6.664062 9.679688 6.546875 9.757812 6.4375 C 9.839844 6.324219 9.953125 6.210938 10.089844 6.09375 C 10.265625 5.945312 10.394531 5.824219 10.484375 5.730469 C 10.585938 5.632812 10.652344 5.539062 10.695312 5.445312 C 10.734375 5.355469 10.75 5.242188 10.75 5.109375 C 10.75 4.898438 10.679688 4.734375 10.546875 4.621094 C 10.414062 4.507812 10.210938 4.449219 9.953125 4.449219 C 9.738281 4.449219 9.546875 4.480469 9.378906 4.535156 C 9.214844 4.585938 9.054688 4.652344 8.898438 4.726562 L 8.695312 4.265625 C 8.871094 4.175781 9.0625 4.097656 9.273438 4.035156 C 9.492188 3.976562 9.730469 3.945312 9.992188 3.945312 C 10.414062 3.945312 10.734375 4.046875 10.964844 4.253906 C 11.1875 4.460938 11.304688 4.738281 11.304688 5.09375 C 11.304688 5.296875 11.273438 5.464844 11.207031 5.601562 C 11.144531 5.742188 11.054688 5.867188 10.9375 5.984375 C 10.820312 6.101562 10.6875 6.222656 10.53125 6.359375 C 10.382812 6.480469 10.269531 6.589844 10.191406 6.679688 C 10.117188 6.769531 10.066406 6.863281 10.039062 6.957031 C 10.011719 7.042969 10 7.152344 10 7.277344 L 10 7.390625 L 9.539062 7.390625 Z M 9.386719 8.359375 C 9.386719 8.199219 9.421875 8.085938 9.5 8.015625 C 9.578125 7.953125 9.679688 7.921875 9.796875 7.921875 C 9.90625 7.921875 10 7.953125 10.078125 8.015625 C 10.15625 8.085938 10.199219 8.199219 10.199219 8.359375 C 10.199219 8.519531 10.15625 8.632812 10.078125 8.703125 C 10 8.777344 9.90625 8.8125 9.796875 8.8125 C 9.679688 8.8125 9.578125 8.777344 9.5 8.703125 C 9.421875 8.632812 9.386719 8.519531 9.386719 8.359375 Z M 9.386719 8.359375 "/>
</svg>
