<?xml version="1.0" encoding="UTF-8"?>
<svg xmlns="http://www.w3.org/2000/svg" xmlns:xlink="http://www.w3.org/1999/xlink" width="18" height="15.413925" viewBox="0 0 18 15.413925">
<path fill-rule="nonzero" fill="rgb(100%, 79.607843%, 0%)" fill-opacity="1" stroke-width="0.7" stroke-linecap="round" stroke-linejoin="round" stroke="rgb(0%, 0%, 0%)" stroke-opacity="1" stroke-miterlimit="4" d="M 21.972763 0.444041 C 13.540843 0.444041 7.114432 0.414764 0.35133 0.351329 C 3.615771 6.104358 7.83661 13.150476 11.101052 18.903504 C 14.482603 13.160235 22.133789 0.444041 22.133789 0.444041 Z M 21.972763 0.444041 " transform="matrix(0.800529, 0, 0, 0.800529, 0, 0.00000065376)"/>
<path fill-rule="nonzero" fill="rgb(0%, 0%, 0%)" fill-opacity="1" d="M 11.875 8.394531 L 11.875 5.15625 C 11.875 3.359375 11.8125 2.902344 11.5 2.371094 C 10.992188 1.527344 10.066406 1.035156 8.980469 1.035156 C 7.980469 1.035156 7.152344 1.433594 6.609375 2.179688 C 6.164062 2.769531 6.089844 3.203125 6.089844 5.15625 L 6.089844 8.394531 L 6.933594 8.394531 L 6.933594 5.117188 C 6.933594 3.757812 7.007812 3.191406 7.222656 2.78125 C 7.546875 2.179688 8.246094 1.769531 8.980469 1.769531 C 9.667969 1.769531 10.332031 2.117188 10.679688 2.671875 C 10.957031 3.105469 11.03125 3.601562 11.03125 5.117188 L 11.03125 8.394531 Z M 11.875 8.394531 "/>
<path fill-rule="nonzero" fill="rgb(0%, 0%, 0%)" fill-opacity="1" d="M 8.980469 3.558594 C 9.289062 3.558594 9.542969 3.632812 9.742188 3.777344 C 9.9375 3.921875 10.039062 4.128906 10.039062 4.402344 C 10.039062 4.546875 10.007812 4.667969 9.945312 4.773438 C 9.882812 4.878906 9.804688 4.972656 9.703125 5.054688 C 9.597656 5.136719 9.488281 5.207031 9.363281 5.269531 C 9.511719 5.339844 9.640625 5.417969 9.761719 5.507812 C 9.878906 5.59375 9.972656 5.691406 10.042969 5.808594 C 10.113281 5.921875 10.152344 6.0625 10.152344 6.222656 C 10.152344 6.519531 10.046875 6.753906 9.835938 6.929688 C 9.628906 7.101562 9.347656 7.1875 8.996094 7.1875 C 8.617188 7.1875 8.324219 7.105469 8.121094 6.941406 C 7.914062 6.773438 7.8125 6.539062 7.8125 6.238281 C 7.8125 6.078125 7.847656 5.9375 7.910156 5.816406 C 7.980469 5.699219 8.070312 5.597656 8.183594 5.511719 C 8.296875 5.425781 8.417969 5.351562 8.542969 5.292969 C 8.375 5.195312 8.226562 5.078125 8.105469 4.9375 C 7.984375 4.796875 7.925781 4.617188 7.925781 4.398438 C 7.925781 4.21875 7.972656 4.066406 8.066406 3.945312 C 8.15625 3.820312 8.28125 3.722656 8.441406 3.65625 C 8.597656 3.589844 8.777344 3.558594 8.980469 3.558594 Z M 8.976562 3.910156 C 8.792969 3.910156 8.644531 3.953125 8.523438 4.042969 C 8.410156 4.128906 8.351562 4.253906 8.351562 4.417969 C 8.351562 4.539062 8.378906 4.644531 8.4375 4.726562 C 8.496094 4.808594 8.574219 4.878906 8.671875 4.9375 C 8.773438 4.992188 8.878906 5.046875 9 5.101562 C 9.171875 5.027344 9.3125 4.941406 9.429688 4.839844 C 9.546875 4.738281 9.605469 4.597656 9.605469 4.417969 C 9.605469 4.253906 9.550781 4.128906 9.433594 4.042969 C 9.320312 3.953125 9.164062 3.910156 8.976562 3.910156 Z M 8.238281 6.242188 C 8.238281 6.414062 8.300781 6.558594 8.421875 6.671875 C 8.542969 6.785156 8.730469 6.839844 8.984375 6.839844 C 9.226562 6.839844 9.40625 6.785156 9.535156 6.671875 C 9.660156 6.558594 9.726562 6.410156 9.726562 6.226562 C 9.726562 6.058594 9.660156 5.914062 9.523438 5.804688 C 9.386719 5.6875 9.207031 5.585938 8.984375 5.5 L 8.90625 5.472656 C 8.6875 5.5625 8.523438 5.671875 8.40625 5.792969 C 8.292969 5.910156 8.238281 6.0625 8.238281 6.242188 Z M 8.238281 6.242188 "/>
</svg>
