<?xml version="1.0" encoding="UTF-8"?>
<svg xmlns="http://www.w3.org/2000/svg" xmlns:xlink="http://www.w3.org/1999/xlink" width="10" height="19.314327" viewBox="0 0 10 19.314327">
<path fill-rule="nonzero" fill="rgb(0%, 26.666667%, 66.666667%)" fill-opacity="1" stroke-width="0.4" stroke-linecap="butt" stroke-linejoin="miter" stroke="rgb(0%, 0%, 0%)" stroke-opacity="1" stroke-miterlimit="4" d="M 4.265767 2.255884 C 4.265767 3.391677 3.355039 4.314618 2.234948 4.314618 C 1.106133 4.314618 0.200639 3.391677 0.200639 2.255884 C 0.200639 1.118346 1.106133 0.200639 2.234948 0.200639 C 3.355039 0.200639 4.265767 1.118346 4.265767 2.255884 Z M 4.265767 2.255884 " transform="matrix(2.238937, 0, 0, 2.238937, 0, 0)"/>
<path fill-rule="nonzero" fill="rgb(0%, 26.666667%, 66.666667%)" fill-opacity="1" stroke-width="0.4" stroke-linecap="butt" stroke-linejoin="miter" stroke="rgb(0%, 0%, 0%)" stroke-opacity="1" stroke-miterlimit="4" d="M 4.265767 6.368118 C 4.265767 7.505656 3.355039 8.426852 2.234948 8.426852 C 1.106133 8.426852 0.200639 7.505656 0.200639 6.368118 C 0.200639 5.23058 1.106133 4.314618 2.234948 4.314618 C 3.355039 4.314618 4.265767 5.23058 4.265767 6.368118 Z M 4.265767 6.368118 " transform="matrix(2.238937, 0, 0, 2.238937, 0, 0)"/>
</svg>
