<?xml version="1.0" encoding="UTF-8"?>
<svg xmlns="http://www.w3.org/2000/svg" xmlns:xlink="http://www.w3.org/1999/xlink" width="18" height="18" viewBox="0 0 18 18">
<path fill-rule="nonzero" fill="rgb(100%, 100%, 100%)" fill-opacity="1" d="M 9 0 L 0 9 L 9 18 L 18 9 Z M 9 1.492188 L 16.507812 9 L 9 16.507812 L 1.492188 9 Z M 9 1.492188 "/>
<path fill-rule="nonzero" fill="rgb(0%, 26.666667%, 66.666667%)" fill-opacity="1" stroke-width="7" stroke-linecap="square" stroke-linejoin="miter" stroke="rgb(0%, 0%, 0%)" stroke-opacity="1" stroke-miterlimit="4" d="M 24.672199 148.419703 L 148.419703 24.672199 L 272.231626 148.419703 L 148.419703 272.231626 Z M 24.607781 148.419703 L 24.672199 148.419703 M 24.672199 148.419703 L 24.672199 148.419703 M 24.607781 148.419703 L 24.672199 148.419703 M 24.672199 148.419703 L 24.672199 148.419703 M 24.607781 148.419703 L 24.672199 148.419703 M 24.672199 148.419703 L 24.672199 148.419703 M 24.607781 148.419703 L 24.672199 148.419703 M 24.672199 148.419703 L 24.672199 148.419703 M 24.607781 148.419703 L 24.672199 148.419703 M 24.672199 148.419703 L 24.672199 148.419703 M 24.607781 148.419703 L 24.672199 148.419703 M 24.672199 148.419703 L 24.672199 148.419703 M 24.607781 148.419703 L 24.672199 148.419703 M 24.672199 148.419703 L 24.672199 148.419703 M 24.607781 148.419703 L 24.672199 148.419703 M 24.672199 148.419703 " transform="matrix(0.0606388, 0, 0, 0.0606388, 0, 0)"/>
<path fill-rule="nonzero" fill="rgb(100%, 100%, 100%)" fill-opacity="1" d="M 7.582031 11.984375 L 6.320312 11.984375 L 6.320312 8.535156 C 6.320312 8.390625 6.324219 8.203125 6.328125 7.96875 C 6.339844 7.734375 6.347656 7.53125 6.355469 7.351562 C 6.324219 7.382812 6.265625 7.445312 6.171875 7.535156 C 6.082031 7.617188 5.996094 7.695312 5.917969 7.761719 L 5.234375 8.3125 L 4.625 7.550781 L 6.546875 6.023438 L 7.582031 6.023438 Z M 7.582031 11.984375 "/>
<path fill-rule="nonzero" fill="rgb(100%, 100%, 100%)" fill-opacity="1" d="M 11.414062 8.175781 C 11.773438 8.175781 12.097656 8.246094 12.382812 8.386719 C 12.664062 8.527344 12.886719 8.730469 13.050781 8.996094 C 13.214844 9.261719 13.300781 9.59375 13.300781 9.988281 C 13.300781 10.636719 13.097656 11.144531 12.699219 11.515625 C 12.296875 11.882812 11.703125 12.066406 10.921875 12.066406 C 10.609375 12.066406 10.3125 12.039062 10.035156 11.984375 C 9.761719 11.929688 9.523438 11.847656 9.316406 11.742188 L 9.316406 10.65625 C 9.523438 10.761719 9.769531 10.855469 10.058594 10.933594 C 10.351562 11.003906 10.621094 11.042969 10.878906 11.042969 C 11.25 11.042969 11.535156 10.964844 11.730469 10.816406 C 11.929688 10.660156 12.03125 10.421875 12.03125 10.097656 C 12.03125 9.496094 11.632812 9.195312 10.835938 9.195312 C 10.679688 9.195312 10.519531 9.210938 10.351562 9.246094 C 10.183594 9.273438 10.046875 9.300781 9.933594 9.328125 L 9.433594 9.0625 L 9.660156 6.023438 L 12.890625 6.023438 L 12.890625 7.09375 L 10.761719 7.09375 L 10.652344 8.261719 C 10.746094 8.246094 10.847656 8.226562 10.953125 8.210938 C 11.066406 8.1875 11.21875 8.175781 11.414062 8.175781 Z M 11.414062 8.175781 "/>
</svg>
