<?xml version="1.0" encoding="UTF-8"?>
<svg xmlns="http://www.w3.org/2000/svg" xmlns:xlink="http://www.w3.org/1999/xlink" width="18" height="18" viewBox="0 0 18 18">
<path fill-rule="nonzero" fill="rgb(100%, 100%, 100%)" fill-opacity="1" d="M 9 0 L 0 9 L 9 18 L 18 9 Z M 9 1.492188 L 16.507812 9 L 9 16.507812 L 1.492188 9 Z M 9 1.492188 "/>
<path fill-rule="nonzero" fill="rgb(0%, 26.666667%, 66.666667%)" fill-opacity="1" stroke-width="7" stroke-linecap="square" stroke-linejoin="miter" stroke="rgb(0%, 0%, 0%)" stroke-opacity="1" stroke-miterlimit="4" d="M 24.672199 148.419703 L 148.419703 24.672199 L 272.231626 148.419703 L 148.419703 272.231626 Z M 24.607781 148.419703 L 24.672199 148.419703 M 24.672199 148.419703 L 24.672199 148.419703 M 24.607781 148.419703 L 24.672199 148.419703 M 24.672199 148.419703 L 24.672199 148.419703 M 24.607781 148.419703 L 24.672199 148.419703 M 24.672199 148.419703 L 24.672199 148.419703 M 24.607781 148.419703 L 24.672199 148.419703 M 24.672199 148.419703 L 24.672199 148.419703 M 24.607781 148.419703 L 24.672199 148.419703 M 24.672199 148.419703 L 24.672199 148.419703 M 24.607781 148.419703 L 24.672199 148.419703 M 24.672199 148.419703 L 24.672199 148.419703 M 24.607781 148.419703 L 24.672199 148.419703 M 24.672199 148.419703 L 24.672199 148.419703 M 24.607781 148.419703 L 24.672199 148.419703 M 24.672199 148.419703 " transform="matrix(0.0606388, 0, 0, 0.0606388, 0, 0)"/>
<path fill-rule="nonzero" fill="rgb(100%, 100%, 100%)" fill-opacity="1" d="M 7.582031 11.984375 L 6.320312 11.984375 L 6.320312 8.535156 C 6.320312 8.390625 6.324219 8.203125 6.328125 7.96875 C 6.339844 7.734375 6.347656 7.53125 6.355469 7.351562 C 6.324219 7.382812 6.265625 7.445312 6.171875 7.535156 C 6.082031 7.617188 5.996094 7.695312 5.917969 7.761719 L 5.234375 8.3125 L 4.625 7.550781 L 6.546875 6.023438 L 7.582031 6.023438 Z M 7.582031 11.984375 "/>
<path fill-rule="nonzero" fill="rgb(100%, 100%, 100%)" fill-opacity="1" d="M 13.375 9.003906 C 13.375 9.644531 13.304688 10.191406 13.164062 10.648438 C 13.03125 11.105469 12.8125 11.457031 12.507812 11.699219 C 12.207031 11.945312 11.800781 12.066406 11.289062 12.066406 C 10.570312 12.066406 10.042969 11.796875 9.710938 11.257812 C 9.375 10.710938 9.207031 9.960938 9.207031 9.003906 C 9.207031 8.359375 9.277344 7.808594 9.410156 7.351562 C 9.542969 6.894531 9.761719 6.542969 10.070312 6.300781 C 10.375 6.054688 10.78125 5.933594 11.289062 5.933594 C 12 5.933594 12.527344 6.203125 12.867188 6.742188 C 13.203125 7.28125 13.375 8.035156 13.375 9.003906 Z M 10.460938 9.003906 C 10.460938 9.683594 10.519531 10.195312 10.636719 10.539062 C 10.753906 10.878906 10.96875 11.050781 11.289062 11.050781 C 11.597656 11.050781 11.816406 10.878906 11.9375 10.539062 C 12.0625 10.199219 12.121094 9.6875 12.121094 9.003906 C 12.121094 8.324219 12.0625 7.8125 11.9375 7.46875 C 11.816406 7.121094 11.597656 6.949219 11.289062 6.949219 C 10.96875 6.949219 10.753906 7.121094 10.636719 7.46875 C 10.519531 7.8125 10.460938 8.324219 10.460938 9.003906 Z M 10.460938 9.003906 "/>
</svg>
