<?xml version="1.0" encoding="UTF-8"?>
<svg xmlns="http://www.w3.org/2000/svg" xmlns:xlink="http://www.w3.org/1999/xlink" width="18" height="18" viewBox="0 0 18 18">
<path fill-rule="nonzero" fill="rgb(100%, 100%, 100%)" fill-opacity="1" d="M 9 0 L 0 9 L 9 18 L 18 9 Z M 9 1.492188 L 16.507812 9 L 9 16.507812 L 1.492188 9 Z M 9 1.492188 "/>
<path fill-rule="nonzero" fill="rgb(0%, 26.666667%, 66.666667%)" fill-opacity="1" stroke-width="7" stroke-linecap="square" stroke-linejoin="miter" stroke="rgb(0%, 0%, 0%)" stroke-opacity="1" stroke-miterlimit="4" d="M 24.672199 148.419703 L 148.419703 24.672199 L 272.231626 148.419703 L 148.419703 272.231626 Z M 24.607781 148.419703 L 24.672199 148.419703 M 24.672199 148.419703 L 24.672199 148.419703 M 24.607781 148.419703 L 24.672199 148.419703 M 24.672199 148.419703 L 24.672199 148.419703 M 24.607781 148.419703 L 24.672199 148.419703 M 24.672199 148.419703 L 24.672199 148.419703 M 24.607781 148.419703 L 24.672199 148.419703 M 24.672199 148.419703 L 24.672199 148.419703 M 24.607781 148.419703 L 24.672199 148.419703 M 24.672199 148.419703 L 24.672199 148.419703 M 24.607781 148.419703 L 24.672199 148.419703 M 24.672199 148.419703 L 24.672199 148.419703 M 24.607781 148.419703 L 24.672199 148.419703 M 24.672199 148.419703 L 24.672199 148.419703 M 24.607781 148.419703 L 24.672199 148.419703 M 24.672199 148.419703 " transform="matrix(0.0606388, 0, 0, 0.0606388, 0, 0)"/>
<path fill-rule="nonzero" fill="rgb(100%, 100%, 100%)" fill-opacity="1" d="M 7.582031 11.984375 L 6.320312 11.984375 L 6.320312 8.535156 C 6.320312 8.390625 6.324219 8.203125 6.328125 7.96875 C 6.339844 7.734375 6.347656 7.53125 6.355469 7.351562 C 6.324219 7.382812 6.265625 7.445312 6.171875 7.535156 C 6.082031 7.617188 5.996094 7.695312 5.917969 7.761719 L 5.234375 8.3125 L 4.625 7.550781 L 6.546875 6.023438 L 7.582031 6.023438 Z M 7.582031 11.984375 "/>
<path fill-rule="nonzero" fill="rgb(100%, 100%, 100%)" fill-opacity="1" d="M 9.199219 9.453125 C 9.199219 9.109375 9.226562 8.769531 9.277344 8.4375 C 9.324219 8.101562 9.410156 7.789062 9.535156 7.492188 C 9.664062 7.191406 9.835938 6.929688 10.058594 6.699219 C 10.289062 6.464844 10.574219 6.285156 10.921875 6.15625 C 11.269531 6.023438 11.695312 5.957031 12.1875 5.957031 C 12.304688 5.957031 12.441406 5.960938 12.597656 5.972656 C 12.753906 5.980469 12.882812 5.992188 12.992188 6.015625 L 12.992188 7.027344 C 12.882812 6.996094 12.769531 6.976562 12.640625 6.96875 C 12.515625 6.949219 12.394531 6.941406 12.273438 6.941406 C 11.777344 6.941406 11.394531 7.019531 11.121094 7.175781 C 10.851562 7.332031 10.664062 7.550781 10.554688 7.835938 C 10.441406 8.113281 10.378906 8.4375 10.359375 8.804688 L 10.410156 8.804688 C 10.523438 8.609375 10.679688 8.445312 10.886719 8.3125 C 11.097656 8.175781 11.371094 8.109375 11.703125 8.109375 C 12.226562 8.109375 12.644531 8.273438 12.949219 8.601562 C 13.253906 8.933594 13.40625 9.398438 13.40625 9.996094 C 13.40625 10.644531 13.222656 11.148438 12.855469 11.515625 C 12.496094 11.882812 12.003906 12.066406 11.378906 12.066406 C 10.972656 12.066406 10.605469 11.976562 10.277344 11.792969 C 9.949219 11.601562 9.6875 11.316406 9.492188 10.933594 C 9.296875 10.542969 9.199219 10.050781 9.199219 9.453125 Z M 11.355469 11.058594 C 11.597656 11.058594 11.800781 10.972656 11.957031 10.808594 C 12.109375 10.636719 12.1875 10.371094 12.1875 10.015625 C 12.1875 9.726562 12.121094 9.496094 11.988281 9.328125 C 11.855469 9.164062 11.652344 9.078125 11.378906 9.078125 C 11.195312 9.078125 11.035156 9.121094 10.894531 9.203125 C 10.757812 9.28125 10.648438 9.386719 10.570312 9.511719 C 10.492188 9.640625 10.453125 9.773438 10.453125 9.90625 C 10.453125 10.089844 10.484375 10.269531 10.554688 10.449219 C 10.621094 10.621094 10.71875 10.765625 10.851562 10.882812 C 10.992188 11 11.160156 11.058594 11.355469 11.058594 Z M 11.355469 11.058594 "/>
</svg>
