<?xml version="1.0" encoding="UTF-8"?>
<svg xmlns="http://www.w3.org/2000/svg" xmlns:xlink="http://www.w3.org/1999/xlink" width="18" height="18" viewBox="0 0 18 18">
<path fill-rule="nonzero" fill="rgb(100%, 100%, 100%)" fill-opacity="1" d="M 9 0 L 0 9 L 9 18 L 18 9 Z M 9 1.492188 L 16.507812 9 L 9 16.507812 L 1.492188 9 Z M 9 1.492188 "/>
<path fill-rule="nonzero" fill="rgb(0%, 26.666667%, 66.666667%)" fill-opacity="1" stroke-width="7" stroke-linecap="square" stroke-linejoin="miter" stroke="rgb(0%, 0%, 0%)" stroke-opacity="1" stroke-miterlimit="4" d="M 24.672199 148.419703 L 148.419703 24.672199 L 272.231626 148.419703 L 148.419703 272.231626 Z M 24.607781 148.419703 L 24.672199 148.419703 M 24.672199 148.419703 L 24.672199 148.419703 M 24.607781 148.419703 L 24.672199 148.419703 M 24.672199 148.419703 L 24.672199 148.419703 M 24.607781 148.419703 L 24.672199 148.419703 M 24.672199 148.419703 L 24.672199 148.419703 M 24.607781 148.419703 L 24.672199 148.419703 M 24.672199 148.419703 L 24.672199 148.419703 M 24.607781 148.419703 L 24.672199 148.419703 M 24.672199 148.419703 L 24.672199 148.419703 M 24.607781 148.419703 L 24.672199 148.419703 M 24.672199 148.419703 L 24.672199 148.419703 M 24.607781 148.419703 L 24.672199 148.419703 M 24.672199 148.419703 L 24.672199 148.419703 M 24.607781 148.419703 L 24.672199 148.419703 M 24.672199 148.419703 " transform="matrix(0.0606388, 0, 0, 0.0606388, 0, 0)"/>
<path fill-rule="nonzero" fill="rgb(100%, 100%, 100%)" fill-opacity="1" d="M 11.089844 12.023438 L 6.925781 12.023438 L 6.925781 11.144531 L 8.417969 9.632812 C 8.71875 9.324219 8.960938 9.0625 9.144531 8.859375 C 9.328125 8.648438 9.464844 8.457031 9.546875 8.289062 C 9.628906 8.117188 9.671875 7.933594 9.671875 7.738281 C 9.671875 7.5 9.605469 7.320312 9.472656 7.207031 C 9.34375 7.089844 9.167969 7.03125 8.945312 7.03125 C 8.71875 7.03125 8.496094 7.082031 8.277344 7.1875 C 8.0625 7.292969 7.832031 7.445312 7.59375 7.640625 L 6.910156 6.828125 C 7.082031 6.679688 7.261719 6.539062 7.453125 6.410156 C 7.644531 6.285156 7.867188 6.179688 8.121094 6.101562 C 8.375 6.019531 8.679688 5.976562 9.039062 5.976562 C 9.425781 5.976562 9.761719 6.050781 10.039062 6.195312 C 10.324219 6.335938 10.539062 6.527344 10.691406 6.769531 C 10.847656 7.011719 10.925781 7.28125 10.925781 7.589844 C 10.925781 7.917969 10.859375 8.21875 10.722656 8.492188 C 10.597656 8.761719 10.40625 9.035156 10.15625 9.300781 C 9.910156 9.566406 9.613281 9.863281 9.261719 10.183594 L 8.496094 10.902344 L 8.496094 10.960938 L 11.089844 10.960938 Z M 11.089844 12.023438 "/>
</svg>
