<?xml version="1.0" encoding="UTF-8"?>
<svg xmlns="http://www.w3.org/2000/svg" xmlns:xlink="http://www.w3.org/1999/xlink" width="18" height="18" viewBox="0 0 18 18">
<path fill-rule="nonzero" fill="rgb(100%, 100%, 100%)" fill-opacity="1" d="M 9 0 L 0 9 L 9 18 L 18 9 Z M 9 1.492188 L 16.507812 9 L 9 16.507812 L 1.492188 9 Z M 9 1.492188 "/>
<path fill-rule="nonzero" fill="rgb(0%, 26.666667%, 66.666667%)" fill-opacity="1" stroke-width="7" stroke-linecap="square" stroke-linejoin="miter" stroke="rgb(0%, 0%, 0%)" stroke-opacity="1" stroke-miterlimit="4" d="M 24.672199 148.419703 L 148.419703 24.672199 L 272.231626 148.419703 L 148.419703 272.231626 Z M 24.607781 148.419703 L 24.672199 148.419703 M 24.672199 148.419703 L 24.672199 148.419703 M 24.607781 148.419703 L 24.672199 148.419703 M 24.672199 148.419703 L 24.672199 148.419703 M 24.607781 148.419703 L 24.672199 148.419703 M 24.672199 148.419703 L 24.672199 148.419703 M 24.607781 148.419703 L 24.672199 148.419703 M 24.672199 148.419703 L 24.672199 148.419703 M 24.607781 148.419703 L 24.672199 148.419703 M 24.672199 148.419703 L 24.672199 148.419703 M 24.607781 148.419703 L 24.672199 148.419703 M 24.672199 148.419703 L 24.672199 148.419703 M 24.607781 148.419703 L 24.672199 148.419703 M 24.672199 148.419703 L 24.672199 148.419703 M 24.607781 148.419703 L 24.672199 148.419703 M 24.672199 148.419703 " transform="matrix(0.0606388, 0, 0, 0.0606388, 0, 0)"/>
<path fill-rule="nonzero" fill="rgb(100%, 100%, 100%)" fill-opacity="1" d="M 6.894531 9.441406 C 6.894531 9.097656 6.921875 8.757812 6.972656 8.425781 C 7.019531 8.089844 7.109375 7.777344 7.230469 7.480469 C 7.359375 7.179688 7.535156 6.914062 7.757812 6.6875 C 7.984375 6.453125 8.269531 6.273438 8.617188 6.144531 C 8.964844 6.011719 9.390625 5.945312 9.886719 5.945312 C 10 5.945312 10.136719 5.949219 10.292969 5.960938 C 10.449219 5.964844 10.582031 5.980469 10.6875 6.003906 L 10.6875 7.011719 C 10.582031 6.984375 10.464844 6.964844 10.335938 6.953125 C 10.214844 6.9375 10.089844 6.929688 9.96875 6.929688 C 9.472656 6.929688 9.089844 7.007812 8.816406 7.164062 C 8.550781 7.320312 8.359375 7.539062 8.25 7.824219 C 8.136719 8.101562 8.074219 8.425781 8.058594 8.792969 L 8.105469 8.792969 C 8.21875 8.597656 8.375 8.433594 8.582031 8.296875 C 8.792969 8.164062 9.066406 8.097656 9.402344 8.097656 C 9.925781 8.097656 10.339844 8.261719 10.644531 8.589844 C 10.949219 8.917969 11.105469 9.382812 11.105469 9.984375 C 11.105469 10.628906 10.921875 11.136719 10.554688 11.503906 C 10.191406 11.871094 9.699219 12.054688 9.074219 12.054688 C 8.667969 12.054688 8.300781 11.964844 7.972656 11.78125 C 7.644531 11.589844 7.382812 11.304688 7.1875 10.921875 C 6.992188 10.53125 6.894531 10.039062 6.894531 9.441406 Z M 9.050781 11.046875 C 9.296875 11.046875 9.496094 10.960938 9.652344 10.792969 C 9.808594 10.621094 9.886719 10.359375 9.886719 10 C 9.886719 9.710938 9.816406 9.484375 9.683594 9.316406 C 9.550781 9.148438 9.347656 9.066406 9.074219 9.066406 C 8.890625 9.066406 8.730469 9.109375 8.589844 9.191406 C 8.453125 9.269531 8.34375 9.371094 8.265625 9.5 C 8.1875 9.628906 8.148438 9.757812 8.148438 9.894531 C 8.148438 10.078125 8.183594 10.257812 8.25 10.4375 C 8.316406 10.609375 8.414062 10.753906 8.550781 10.871094 C 8.6875 10.988281 8.855469 11.046875 9.050781 11.046875 Z M 9.050781 11.046875 "/>
</svg>
