<?xml version="1.0" encoding="UTF-8"?>
<svg xmlns="http://www.w3.org/2000/svg" xmlns:xlink="http://www.w3.org/1999/xlink" width="18" height="18" viewBox="0 0 18 18">
<path fill-rule="nonzero" fill="rgb(100%, 100%, 100%)" fill-opacity="1" d="M 9 0 L 0 9 L 9 18 L 18 9 Z M 9 1.492188 L 16.507812 9 L 9 16.507812 L 1.492188 9 Z M 9 1.492188 "/>
<path fill-rule="nonzero" fill="rgb(0%, 26.666667%, 66.666667%)" fill-opacity="1" stroke-width="7" stroke-linecap="square" stroke-linejoin="miter" stroke="rgb(0%, 0%, 0%)" stroke-opacity="1" stroke-miterlimit="4" d="M 24.672199 148.419703 L 148.419703 24.672199 L 272.231626 148.419703 L 148.419703 272.231626 Z M 24.607781 148.419703 L 24.672199 148.419703 M 24.672199 148.419703 L 24.672199 148.419703 M 24.607781 148.419703 L 24.672199 148.419703 M 24.672199 148.419703 L 24.672199 148.419703 M 24.607781 148.419703 L 24.672199 148.419703 M 24.672199 148.419703 L 24.672199 148.419703 M 24.607781 148.419703 L 24.672199 148.419703 M 24.672199 148.419703 L 24.672199 148.419703 M 24.607781 148.419703 L 24.672199 148.419703 M 24.672199 148.419703 L 24.672199 148.419703 M 24.607781 148.419703 L 24.672199 148.419703 M 24.672199 148.419703 L 24.672199 148.419703 M 24.607781 148.419703 L 24.672199 148.419703 M 24.672199 148.419703 L 24.672199 148.419703 M 24.607781 148.419703 L 24.672199 148.419703 M 24.672199 148.419703 " transform="matrix(0.0606388, 0, 0, 0.0606388, 0, 0)"/>
<path fill-rule="nonzero" fill="rgb(100%, 100%, 100%)" fill-opacity="1" d="M 7.582031 11.984375 L 6.320312 11.984375 L 6.320312 8.535156 C 6.320312 8.390625 6.324219 8.203125 6.328125 7.96875 C 6.339844 7.734375 6.347656 7.53125 6.355469 7.351562 C 6.324219 7.382812 6.265625 7.445312 6.171875 7.535156 C 6.082031 7.617188 5.996094 7.695312 5.917969 7.761719 L 5.234375 8.3125 L 4.625 7.550781 L 6.546875 6.023438 L 7.582031 6.023438 Z M 7.582031 11.984375 "/>
<path fill-rule="nonzero" fill="rgb(100%, 100%, 100%)" fill-opacity="1" d="M 13.542969 10.75 L 12.824219 10.75 L 12.824219 11.984375 L 11.597656 11.984375 L 11.597656 10.75 L 9.050781 10.75 L 9.050781 9.871094 L 11.664062 6.023438 L 12.824219 6.023438 L 12.824219 9.773438 L 13.542969 9.773438 Z M 11.597656 8.761719 C 11.597656 8.632812 11.597656 8.476562 11.605469 8.292969 C 11.609375 8.109375 11.617188 7.941406 11.621094 7.785156 C 11.632812 7.625 11.640625 7.519531 11.644531 7.46875 L 11.613281 7.46875 C 11.5625 7.578125 11.511719 7.6875 11.453125 7.792969 C 11.398438 7.898438 11.332031 8.007812 11.253906 8.121094 L 10.160156 9.773438 L 11.597656 9.773438 Z M 11.597656 8.761719 "/>
</svg>
