<?xml version="1.0" encoding="UTF-8"?>
<svg xmlns="http://www.w3.org/2000/svg" xmlns:xlink="http://www.w3.org/1999/xlink" width="18" height="18" viewBox="0 0 18 18">
<path fill-rule="nonzero" fill="rgb(100%, 100%, 100%)" fill-opacity="1" d="M 9 0 L 0 9 L 9 18 L 18 9 Z M 9 1.492188 L 16.507812 9 L 9 16.507812 L 1.492188 9 Z M 9 1.492188 "/>
<path fill-rule="nonzero" fill="rgb(0%, 26.666667%, 66.666667%)" fill-opacity="1" stroke-width="7" stroke-linecap="square" stroke-linejoin="miter" stroke="rgb(0%, 0%, 0%)" stroke-opacity="1" stroke-miterlimit="4" d="M 24.672199 148.419703 L 148.419703 24.672199 L 272.231626 148.419703 L 148.419703 272.231626 Z M 24.607781 148.419703 L 24.672199 148.419703 M 24.672199 148.419703 L 24.672199 148.419703 M 24.607781 148.419703 L 24.672199 148.419703 M 24.672199 148.419703 L 24.672199 148.419703 M 24.607781 148.419703 L 24.672199 148.419703 M 24.672199 148.419703 L 24.672199 148.419703 M 24.607781 148.419703 L 24.672199 148.419703 M 24.672199 148.419703 L 24.672199 148.419703 M 24.607781 148.419703 L 24.672199 148.419703 M 24.672199 148.419703 L 24.672199 148.419703 M 24.607781 148.419703 L 24.672199 148.419703 M 24.672199 148.419703 L 24.672199 148.419703 M 24.607781 148.419703 L 24.672199 148.419703 M 24.672199 148.419703 L 24.672199 148.419703 M 24.607781 148.419703 L 24.672199 148.419703 M 24.672199 148.419703 " transform="matrix(0.0606388, 0, 0, 0.0606388, 0, 0)"/>
<path fill-rule="nonzero" fill="rgb(100%, 100%, 100%)" fill-opacity="1" d="M 7.582031 11.984375 L 6.320312 11.984375 L 6.320312 8.535156 C 6.320312 8.390625 6.324219 8.203125 6.328125 7.96875 C 6.339844 7.734375 6.347656 7.53125 6.355469 7.351562 C 6.324219 7.382812 6.265625 7.445312 6.171875 7.535156 C 6.082031 7.617188 5.996094 7.695312 5.917969 7.761719 L 5.234375 8.3125 L 4.625 7.550781 L 6.546875 6.023438 L 7.582031 6.023438 Z M 7.582031 11.984375 "/>
<path fill-rule="nonzero" fill="rgb(100%, 100%, 100%)" fill-opacity="1" d="M 13.175781 7.359375 C 13.175781 7.769531 13.050781 8.101562 12.796875 8.34375 C 12.554688 8.589844 12.25 8.757812 11.886719 8.84375 L 11.886719 8.871094 C 12.367188 8.925781 12.730469 9.070312 12.972656 9.304688 C 13.222656 9.539062 13.347656 9.851562 13.347656 10.25 C 13.347656 10.59375 13.261719 10.90625 13.089844 11.183594 C 12.921875 11.457031 12.660156 11.671875 12.304688 11.835938 C 11.957031 11.988281 11.5 12.066406 10.945312 12.066406 C 10.300781 12.066406 9.726562 11.960938 9.226562 11.742188 L 9.226562 10.671875 C 9.480469 10.800781 9.75 10.898438 10.027344 10.964844 C 10.3125 11.03125 10.570312 11.066406 10.8125 11.066406 C 11.261719 11.066406 11.578125 10.988281 11.753906 10.832031 C 11.9375 10.675781 12.03125 10.457031 12.03125 10.171875 C 12.03125 10.007812 11.988281 9.867188 11.90625 9.753906 C 11.820312 9.636719 11.675781 9.550781 11.460938 9.496094 C 11.257812 9.433594 10.96875 9.40625 10.59375 9.40625 L 10.144531 9.40625 L 10.144531 8.4375 L 10.601562 8.4375 C 10.96875 8.4375 11.25 8.402344 11.4375 8.335938 C 11.632812 8.265625 11.761719 8.167969 11.828125 8.050781 C 11.902344 7.929688 11.9375 7.789062 11.9375 7.636719 C 11.9375 7.421875 11.871094 7.257812 11.738281 7.140625 C 11.609375 7.019531 11.394531 6.957031 11.085938 6.957031 C 10.804688 6.957031 10.554688 7.007812 10.34375 7.109375 C 10.136719 7.203125 9.960938 7.296875 9.816406 7.394531 L 9.234375 6.523438 C 9.46875 6.359375 9.738281 6.21875 10.050781 6.105469 C 10.367188 5.996094 10.746094 5.941406 11.179688 5.941406 C 11.792969 5.941406 12.273438 6.066406 12.632812 6.316406 C 12.992188 6.5625 13.175781 6.910156 13.175781 7.359375 Z M 13.175781 7.359375 "/>
</svg>
