<?xml version="1.0" encoding="UTF-8"?>
<svg xmlns="http://www.w3.org/2000/svg" xmlns:xlink="http://www.w3.org/1999/xlink" width="18" height="18" viewBox="0 0 18 18">
<path fill-rule="nonzero" fill="rgb(100%, 100%, 100%)" fill-opacity="1" d="M 9 0 L 0 9 L 9 18 L 18 9 Z M 9 1.492188 L 16.507812 9 L 9 16.507812 L 1.492188 9 Z M 9 1.492188 "/>
<path fill-rule="nonzero" fill="rgb(0%, 26.666667%, 66.666667%)" fill-opacity="1" stroke-width="7" stroke-linecap="square" stroke-linejoin="miter" stroke="rgb(0%, 0%, 0%)" stroke-opacity="1" stroke-miterlimit="4" d="M 24.672199 148.419703 L 148.419703 24.672199 L 272.231626 148.419703 L 148.419703 272.231626 Z M 24.607781 148.419703 L 24.672199 148.419703 M 24.672199 148.419703 L 24.672199 148.419703 M 24.607781 148.419703 L 24.672199 148.419703 M 24.672199 148.419703 L 24.672199 148.419703 M 24.607781 148.419703 L 24.672199 148.419703 M 24.672199 148.419703 L 24.672199 148.419703 M 24.607781 148.419703 L 24.672199 148.419703 M 24.672199 148.419703 L 24.672199 148.419703 M 24.607781 148.419703 L 24.672199 148.419703 M 24.672199 148.419703 L 24.672199 148.419703 M 24.607781 148.419703 L 24.672199 148.419703 M 24.672199 148.419703 L 24.672199 148.419703 M 24.607781 148.419703 L 24.672199 148.419703 M 24.672199 148.419703 L 24.672199 148.419703 M 24.607781 148.419703 L 24.672199 148.419703 M 24.672199 148.419703 " transform="matrix(0.0606388, 0, 0, 0.0606388, 0, 0)"/>
<path fill-rule="nonzero" fill="rgb(100%, 100%, 100%)" fill-opacity="1" d="M 9.105469 8.132812 C 9.464844 8.132812 9.789062 8.203125 10.074219 8.339844 C 10.355469 8.480469 10.578125 8.683594 10.742188 8.949219 C 10.90625 9.21875 10.992188 9.546875 10.992188 9.941406 C 10.992188 10.589844 10.789062 11.097656 10.390625 11.472656 C 9.988281 11.839844 9.398438 12.023438 8.613281 12.023438 C 8.300781 12.023438 8.003906 11.996094 7.726562 11.9375 C 7.453125 11.882812 7.214844 11.800781 7.007812 11.695312 L 7.007812 10.609375 C 7.214844 10.71875 7.460938 10.808594 7.75 10.886719 C 8.042969 10.960938 8.3125 10.996094 8.570312 10.996094 C 8.941406 10.996094 9.226562 10.921875 9.421875 10.769531 C 9.621094 10.613281 9.722656 10.375 9.722656 10.050781 C 9.722656 9.449219 9.324219 9.148438 8.527344 9.148438 C 8.371094 9.148438 8.210938 9.167969 8.042969 9.199219 C 7.878906 9.226562 7.738281 9.257812 7.625 9.285156 L 7.125 9.015625 L 7.351562 5.976562 L 10.582031 5.976562 L 10.582031 7.046875 L 8.453125 7.046875 L 8.34375 8.214844 C 8.4375 8.199219 8.539062 8.183594 8.644531 8.164062 C 8.757812 8.144531 8.910156 8.132812 9.105469 8.132812 Z M 9.105469 8.132812 "/>
</svg>
