<?xml version="1.0" encoding="UTF-8"?>
<svg xmlns="http://www.w3.org/2000/svg" xmlns:xlink="http://www.w3.org/1999/xlink" width="18" height="18" viewBox="0 0 18 18">
<path fill-rule="nonzero" fill="rgb(100%, 100%, 100%)" fill-opacity="1" d="M 9 0 L 0 9 L 9 18 L 18 9 Z M 9 1.492188 L 16.507812 9 L 9 16.507812 L 1.492188 9 Z M 9 1.492188 "/>
<path fill-rule="nonzero" fill="rgb(0%, 26.666667%, 66.666667%)" fill-opacity="1" stroke-width="7" stroke-linecap="square" stroke-linejoin="miter" stroke="rgb(0%, 0%, 0%)" stroke-opacity="1" stroke-miterlimit="4" d="M 24.672199 148.419703 L 148.419703 24.672199 L 272.231626 148.419703 L 148.419703 272.231626 Z M 24.607781 148.419703 L 24.672199 148.419703 M 24.672199 148.419703 L 24.672199 148.419703 M 24.607781 148.419703 L 24.672199 148.419703 M 24.672199 148.419703 L 24.672199 148.419703 M 24.607781 148.419703 L 24.672199 148.419703 M 24.672199 148.419703 L 24.672199 148.419703 M 24.607781 148.419703 L 24.672199 148.419703 M 24.672199 148.419703 L 24.672199 148.419703 M 24.607781 148.419703 L 24.672199 148.419703 M 24.672199 148.419703 L 24.672199 148.419703 M 24.607781 148.419703 L 24.672199 148.419703 M 24.672199 148.419703 L 24.672199 148.419703 M 24.607781 148.419703 L 24.672199 148.419703 M 24.672199 148.419703 L 24.672199 148.419703 M 24.607781 148.419703 L 24.672199 148.419703 M 24.672199 148.419703 " transform="matrix(0.0606388, 0, 0, 0.0606388, 0, 0)"/>
<path fill-rule="nonzero" fill="rgb(100%, 100%, 100%)" fill-opacity="1" d="M 10.859375 10.746094 L 10.140625 10.746094 L 10.140625 11.980469 L 8.914062 11.980469 L 8.914062 10.746094 L 6.367188 10.746094 L 6.367188 9.867188 L 8.980469 6.019531 L 10.140625 6.019531 L 10.140625 9.769531 L 10.859375 9.769531 Z M 8.914062 8.757812 C 8.914062 8.628906 8.917969 8.472656 8.921875 8.289062 C 8.929688 8.105469 8.933594 7.9375 8.941406 7.78125 C 8.949219 7.621094 8.960938 7.515625 8.964844 7.464844 L 8.929688 7.464844 C 8.882812 7.574219 8.828125 7.683594 8.773438 7.789062 C 8.71875 7.894531 8.648438 8.003906 8.574219 8.113281 L 7.480469 9.769531 L 8.914062 9.769531 Z M 8.914062 8.757812 "/>
</svg>
