<?xml version="1.0" encoding="UTF-8"?>
<svg xmlns="http://www.w3.org/2000/svg" xmlns:xlink="http://www.w3.org/1999/xlink" width="18" height="18" viewBox="0 0 18 18">
<path fill-rule="nonzero" fill="rgb(100%, 100%, 100%)" fill-opacity="1" d="M 9 0 L 0 9 L 9 18 L 18 9 Z M 9 1.492188 L 16.507812 9 L 9 16.507812 L 1.492188 9 Z M 9 1.492188 "/>
<path fill-rule="nonzero" fill="rgb(0%, 26.666667%, 66.666667%)" fill-opacity="1" stroke-width="7" stroke-linecap="square" stroke-linejoin="miter" stroke="rgb(0%, 0%, 0%)" stroke-opacity="1" stroke-miterlimit="4" d="M 24.672199 148.419703 L 148.419703 24.672199 L 272.231626 148.419703 L 148.419703 272.231626 Z M 24.607781 148.419703 L 24.672199 148.419703 M 24.672199 148.419703 L 24.672199 148.419703 M 24.607781 148.419703 L 24.672199 148.419703 M 24.672199 148.419703 L 24.672199 148.419703 M 24.607781 148.419703 L 24.672199 148.419703 M 24.672199 148.419703 L 24.672199 148.419703 M 24.607781 148.419703 L 24.672199 148.419703 M 24.672199 148.419703 L 24.672199 148.419703 M 24.607781 148.419703 L 24.672199 148.419703 M 24.672199 148.419703 L 24.672199 148.419703 M 24.607781 148.419703 L 24.672199 148.419703 M 24.672199 148.419703 L 24.672199 148.419703 M 24.607781 148.419703 L 24.672199 148.419703 M 24.672199 148.419703 L 24.672199 148.419703 M 24.607781 148.419703 L 24.672199 148.419703 M 24.672199 148.419703 " transform="matrix(0.0606388, 0, 0, 0.0606388, 0, 0)"/>
<path fill-rule="nonzero" fill="rgb(100%, 100%, 100%)" fill-opacity="1" d="M 10.886719 7.355469 C 10.886719 7.765625 10.761719 8.09375 10.511719 8.339844 C 10.265625 8.585938 9.960938 8.753906 9.601562 8.839844 L 9.601562 8.867188 C 10.078125 8.921875 10.441406 9.066406 10.6875 9.300781 C 10.9375 9.535156 11.0625 9.847656 11.0625 10.242188 C 11.0625 10.589844 10.976562 10.902344 10.804688 11.179688 C 10.636719 11.453125 10.375 11.667969 10.019531 11.828125 C 9.667969 11.984375 9.214844 12.0625 8.65625 12.0625 C 8.011719 12.0625 7.4375 11.957031 6.9375 11.738281 L 6.9375 10.667969 C 7.195312 10.796875 7.460938 10.894531 7.738281 10.960938 C 8.023438 11.027344 8.285156 11.0625 8.523438 11.0625 C 8.976562 11.0625 9.289062 10.984375 9.46875 10.828125 C 9.652344 10.671875 9.742188 10.453125 9.742188 10.167969 C 9.742188 10 9.703125 9.863281 9.617188 9.75 C 9.535156 9.632812 9.386719 9.546875 9.175781 9.492188 C 8.96875 9.429688 8.679688 9.402344 8.308594 9.402344 L 7.855469 9.402344 L 7.855469 8.433594 L 8.316406 8.433594 C 8.683594 8.433594 8.960938 8.398438 9.148438 8.332031 C 9.34375 8.261719 9.476562 8.164062 9.542969 8.046875 C 9.613281 7.925781 9.652344 7.785156 9.652344 7.632812 C 9.652344 7.417969 9.585938 7.253906 9.449219 7.136719 C 9.324219 7.015625 9.105469 6.953125 8.800781 6.953125 C 8.515625 6.953125 8.269531 7.003906 8.058594 7.105469 C 7.851562 7.199219 7.675781 7.292969 7.53125 7.390625 L 6.945312 6.519531 C 7.179688 6.355469 7.453125 6.214844 7.765625 6.101562 C 8.082031 5.992188 8.457031 5.9375 8.890625 5.9375 C 9.503906 5.9375 9.988281 6.0625 10.34375 6.3125 C 10.707031 6.558594 10.886719 6.90625 10.886719 7.355469 Z M 10.886719 7.355469 "/>
</svg>
