<?xml version="1.0" encoding="UTF-8"?>
<svg xmlns="http://www.w3.org/2000/svg" xmlns:xlink="http://www.w3.org/1999/xlink" width="18" height="18" viewBox="0 0 18 18">
<path fill-rule="nonzero" fill="rgb(100%, 100%, 100%)" fill-opacity="1" d="M 9 0 L 0 9 L 9 18 L 18 9 Z M 9 1.492188 L 16.507812 9 L 9 16.507812 L 1.492188 9 Z M 9 1.492188 "/>
<path fill-rule="nonzero" fill="rgb(0%, 26.666667%, 66.666667%)" fill-opacity="1" stroke-width="7" stroke-linecap="square" stroke-linejoin="miter" stroke="rgb(0%, 0%, 0%)" stroke-opacity="1" stroke-miterlimit="4" d="M 24.672199 148.419703 L 148.419703 24.672199 L 272.231626 148.419703 L 148.419703 272.231626 Z M 24.607781 148.419703 L 24.672199 148.419703 M 24.672199 148.419703 L 24.672199 148.419703 M 24.607781 148.419703 L 24.672199 148.419703 M 24.672199 148.419703 L 24.672199 148.419703 M 24.607781 148.419703 L 24.672199 148.419703 M 24.672199 148.419703 L 24.672199 148.419703 M 24.607781 148.419703 L 24.672199 148.419703 M 24.672199 148.419703 L 24.672199 148.419703 M 24.607781 148.419703 L 24.672199 148.419703 M 24.672199 148.419703 L 24.672199 148.419703 M 24.607781 148.419703 L 24.672199 148.419703 M 24.672199 148.419703 L 24.672199 148.419703 M 24.607781 148.419703 L 24.672199 148.419703 M 24.672199 148.419703 L 24.672199 148.419703 M 24.607781 148.419703 L 24.672199 148.419703 M 24.672199 148.419703 " transform="matrix(0.0606388, 0, 0, 0.0606388, 0, 0)"/>
<path fill-rule="nonzero" fill="rgb(100%, 100%, 100%)" fill-opacity="1" d="M 7.71875 11.695312 L 6.597656 11.695312 L 6.597656 8.621094 C 6.597656 8.492188 6.597656 8.324219 6.601562 8.113281 C 6.613281 7.90625 6.621094 7.722656 6.625 7.5625 C 6.601562 7.59375 6.546875 7.648438 6.460938 7.726562 C 6.382812 7.800781 6.308594 7.867188 6.238281 7.929688 L 5.628906 8.417969 L 5.085938 7.742188 L 6.796875 6.378906 L 7.71875 6.378906 Z M 7.71875 11.695312 "/>
<path fill-rule="nonzero" fill="rgb(100%, 100%, 100%)" fill-opacity="1" d="M 12.914062 11.695312 L 9.199219 11.695312 L 9.199219 10.914062 L 10.535156 9.566406 C 10.800781 9.289062 11.015625 9.058594 11.179688 8.875 C 11.34375 8.683594 11.464844 8.515625 11.539062 8.367188 C 11.613281 8.214844 11.648438 8.050781 11.648438 7.875 C 11.648438 7.664062 11.589844 7.503906 11.472656 7.398438 C 11.355469 7.296875 11.199219 7.242188 11.003906 7.242188 C 10.796875 7.242188 10.601562 7.289062 10.40625 7.386719 C 10.214844 7.480469 10.007812 7.613281 9.796875 7.785156 L 9.1875 7.066406 C 9.339844 6.929688 9.5 6.808594 9.667969 6.691406 C 9.84375 6.578125 10.042969 6.488281 10.265625 6.417969 C 10.492188 6.34375 10.765625 6.304688 11.085938 6.304688 C 11.429688 6.304688 11.730469 6.371094 11.976562 6.5 C 12.230469 6.625 12.421875 6.792969 12.558594 7.011719 C 12.695312 7.226562 12.765625 7.46875 12.765625 7.742188 C 12.765625 8.035156 12.707031 8.304688 12.585938 8.546875 C 12.472656 8.789062 12.304688 9.03125 12.082031 9.269531 C 11.863281 9.507812 11.597656 9.769531 11.285156 10.058594 L 10.601562 10.695312 L 10.601562 10.75 L 12.914062 10.75 Z M 12.914062 11.695312 "/>
</svg>
