<?xml version="1.0" encoding="UTF-8"?>
<svg xmlns="http://www.w3.org/2000/svg" xmlns:xlink="http://www.w3.org/1999/xlink" width="18" height="18" viewBox="0 0 18 18">
<path fill-rule="nonzero" fill="rgb(100%, 100%, 100%)" fill-opacity="1" d="M 9 0 L 0 9 L 9 18 L 18 9 Z M 9 1.492188 L 16.507812 9 L 9 16.507812 L 1.492188 9 Z M 9 1.492188 "/>
<path fill-rule="nonzero" fill="rgb(0%, 26.666667%, 66.666667%)" fill-opacity="1" stroke-width="7" stroke-linecap="square" stroke-linejoin="miter" stroke="rgb(0%, 0%, 0%)" stroke-opacity="1" stroke-miterlimit="4" d="M 24.672199 148.419703 L 148.419703 24.672199 L 272.231626 148.419703 L 148.419703 272.231626 Z M 24.607781 148.419703 L 24.672199 148.419703 M 24.672199 148.419703 L 24.672199 148.419703 M 24.607781 148.419703 L 24.672199 148.419703 M 24.672199 148.419703 L 24.672199 148.419703 M 24.607781 148.419703 L 24.672199 148.419703 M 24.672199 148.419703 L 24.672199 148.419703 M 24.607781 148.419703 L 24.672199 148.419703 M 24.672199 148.419703 L 24.672199 148.419703 M 24.607781 148.419703 L 24.672199 148.419703 M 24.672199 148.419703 L 24.672199 148.419703 M 24.607781 148.419703 L 24.672199 148.419703 M 24.672199 148.419703 L 24.672199 148.419703 M 24.607781 148.419703 L 24.672199 148.419703 M 24.672199 148.419703 L 24.672199 148.419703 M 24.607781 148.419703 L 24.672199 148.419703 M 24.672199 148.419703 " transform="matrix(0.0606388, 0, 0, 0.0606388, 0, 0)"/>
<path fill-rule="nonzero" fill="rgb(100%, 100%, 100%)" fill-opacity="1" d="M 9.003906 5.941406 C 9.347656 5.941406 9.664062 5.992188 9.949219 6.097656 C 10.238281 6.203125 10.46875 6.363281 10.640625 6.574219 C 10.820312 6.785156 10.90625 7.054688 10.90625 7.375 C 10.90625 7.734375 10.804688 8.027344 10.597656 8.261719 C 10.398438 8.488281 10.144531 8.679688 9.839844 8.828125 C 10.050781 8.941406 10.25 9.070312 10.441406 9.222656 C 10.636719 9.367188 10.789062 9.539062 10.90625 9.738281 C 11.03125 9.933594 11.089844 10.164062 11.089844 10.433594 C 11.089844 10.761719 11.003906 11.046875 10.824219 11.292969 C 10.652344 11.535156 10.40625 11.726562 10.089844 11.859375 C 9.777344 11.992188 9.417969 12.058594 9.003906 12.058594 C 8.335938 12.058594 7.820312 11.917969 7.453125 11.632812 C 7.089844 11.351562 6.910156 10.960938 6.910156 10.464844 C 6.910156 10.054688 7.019531 9.722656 7.242188 9.472656 C 7.464844 9.222656 7.734375 9.019531 8.050781 8.863281 C 7.785156 8.695312 7.558594 8.496094 7.367188 8.261719 C 7.183594 8.023438 7.09375 7.722656 7.09375 7.367188 C 7.09375 7.050781 7.179688 6.785156 7.359375 6.574219 C 7.539062 6.363281 7.769531 6.203125 8.0625 6.097656 C 8.355469 5.992188 8.671875 5.941406 9.003906 5.941406 Z M 8.996094 6.859375 C 8.789062 6.859375 8.617188 6.910156 8.476562 7.015625 C 8.34375 7.121094 8.277344 7.273438 8.277344 7.46875 C 8.277344 7.675781 8.351562 7.839844 8.496094 7.96875 C 8.640625 8.097656 8.808594 8.207031 9.003906 8.304688 C 9.195312 8.214844 9.359375 8.109375 9.503906 7.984375 C 9.648438 7.859375 9.722656 7.683594 9.722656 7.46875 C 9.722656 7.273438 9.652344 7.121094 9.511719 7.015625 C 9.378906 6.910156 9.207031 6.859375 8.996094 6.859375 Z M 8.078125 10.390625 C 8.078125 10.605469 8.152344 10.785156 8.304688 10.925781 C 8.457031 11.0625 8.6875 11.132812 8.988281 11.132812 C 9.300781 11.132812 9.53125 11.066406 9.6875 10.933594 C 9.84375 10.800781 9.921875 10.621094 9.921875 10.398438 C 9.921875 10.25 9.878906 10.117188 9.789062 10.007812 C 9.699219 9.890625 9.589844 9.785156 9.453125 9.695312 C 9.328125 9.601562 9.195312 9.515625 9.054688 9.4375 L 8.945312 9.378906 C 8.691406 9.503906 8.480469 9.644531 8.320312 9.804688 C 8.160156 9.96875 8.078125 10.160156 8.078125 10.390625 Z M 8.078125 10.390625 "/>
</svg>
