<?xml version="1.0" encoding="UTF-8"?>
<svg xmlns="http://www.w3.org/2000/svg" xmlns:xlink="http://www.w3.org/1999/xlink" width="18" height="18" viewBox="0 0 18 18">
<path fill-rule="nonzero" fill="rgb(100%, 100%, 100%)" fill-opacity="1" d="M 9 0 L 0 9 L 9 18 L 18 9 Z M 9 1.492188 L 16.507812 9 L 9 16.507812 L 1.492188 9 Z M 9 1.492188 "/>
<path fill-rule="nonzero" fill="rgb(0%, 26.666667%, 66.666667%)" fill-opacity="1" stroke-width="7" stroke-linecap="square" stroke-linejoin="miter" stroke="rgb(0%, 0%, 0%)" stroke-opacity="1" stroke-miterlimit="4" d="M 24.672199 148.419703 L 148.419703 24.672199 L 272.231626 148.419703 L 148.419703 272.231626 Z M 24.607781 148.419703 L 24.672199 148.419703 M 24.672199 148.419703 L 24.672199 148.419703 M 24.607781 148.419703 L 24.672199 148.419703 M 24.672199 148.419703 L 24.672199 148.419703 M 24.607781 148.419703 L 24.672199 148.419703 M 24.672199 148.419703 L 24.672199 148.419703 M 24.607781 148.419703 L 24.672199 148.419703 M 24.672199 148.419703 L 24.672199 148.419703 M 24.607781 148.419703 L 24.672199 148.419703 M 24.672199 148.419703 L 24.672199 148.419703 M 24.607781 148.419703 L 24.672199 148.419703 M 24.672199 148.419703 L 24.672199 148.419703 M 24.607781 148.419703 L 24.672199 148.419703 M 24.672199 148.419703 L 24.672199 148.419703 M 24.607781 148.419703 L 24.672199 148.419703 M 24.672199 148.419703 " transform="matrix(0.0606388, 0, 0, 0.0606388, 0, 0)"/>
<path fill-rule="nonzero" fill="rgb(100%, 100%, 100%)" fill-opacity="1" d="M 7.582031 11.984375 L 6.320312 11.984375 L 6.320312 8.535156 C 6.320312 8.390625 6.324219 8.203125 6.328125 7.96875 C 6.339844 7.734375 6.347656 7.53125 6.355469 7.351562 C 6.324219 7.382812 6.265625 7.445312 6.171875 7.535156 C 6.082031 7.617188 5.996094 7.695312 5.917969 7.761719 L 5.234375 8.3125 L 4.625 7.550781 L 6.546875 6.023438 L 7.582031 6.023438 Z M 7.582031 11.984375 "/>
<path fill-rule="nonzero" fill="rgb(100%, 100%, 100%)" fill-opacity="1" d="M 11.296875 5.949219 C 11.640625 5.949219 11.957031 6 12.238281 6.105469 C 12.527344 6.214844 12.757812 6.371094 12.933594 6.582031 C 13.109375 6.792969 13.199219 7.0625 13.199219 7.382812 C 13.199219 7.742188 13.097656 8.035156 12.890625 8.269531 C 12.691406 8.496094 12.4375 8.6875 12.128906 8.835938 C 12.34375 8.949219 12.542969 9.078125 12.730469 9.230469 C 12.925781 9.375 13.082031 9.546875 13.199219 9.746094 C 13.320312 9.941406 13.382812 10.171875 13.382812 10.441406 C 13.382812 10.769531 13.292969 11.054688 13.117188 11.300781 C 12.941406 11.542969 12.699219 11.734375 12.382812 11.867188 C 12.070312 12 11.707031 12.066406 11.296875 12.066406 C 10.628906 12.066406 10.109375 11.925781 9.742188 11.640625 C 9.382812 11.359375 9.199219 10.96875 9.199219 10.472656 C 9.199219 10.0625 9.3125 9.730469 9.535156 9.480469 C 9.757812 9.230469 10.027344 9.027344 10.34375 8.871094 C 10.078125 8.703125 9.847656 8.503906 9.660156 8.269531 C 9.476562 8.03125 9.382812 7.734375 9.382812 7.375 C 9.382812 7.058594 9.472656 6.792969 9.652344 6.582031 C 9.828125 6.371094 10.0625 6.214844 10.351562 6.105469 C 10.648438 6 10.960938 5.949219 11.296875 5.949219 Z M 11.289062 6.867188 C 11.082031 6.867188 10.910156 6.917969 10.769531 7.027344 C 10.636719 7.132812 10.570312 7.28125 10.570312 7.476562 C 10.570312 7.683594 10.640625 7.847656 10.785156 7.976562 C 10.929688 8.105469 11.101562 8.214844 11.296875 8.3125 C 11.484375 8.222656 11.652344 8.117188 11.796875 7.992188 C 11.941406 7.867188 12.015625 7.695312 12.015625 7.476562 C 12.015625 7.28125 11.945312 7.132812 11.804688 7.027344 C 11.671875 6.917969 11.5 6.867188 11.289062 6.867188 Z M 10.367188 10.398438 C 10.367188 10.617188 10.445312 10.792969 10.59375 10.933594 C 10.75 11.070312 10.980469 11.140625 11.277344 11.140625 C 11.589844 11.140625 11.824219 11.074219 11.980469 10.941406 C 12.136719 10.808594 12.214844 10.628906 12.214844 10.40625 C 12.214844 10.257812 12.167969 10.125 12.082031 10.015625 C 11.992188 9.898438 11.878906 9.792969 11.746094 9.707031 C 11.617188 9.609375 11.484375 9.523438 11.347656 9.445312 L 11.238281 9.386719 C 10.980469 9.511719 10.773438 9.652344 10.609375 9.8125 C 10.449219 9.976562 10.367188 10.171875 10.367188 10.398438 Z M 10.367188 10.398438 "/>
</svg>
