<?xml version="1.0" encoding="UTF-8"?>
<svg xmlns="http://www.w3.org/2000/svg" xmlns:xlink="http://www.w3.org/1999/xlink" width="18" height="18" viewBox="0 0 18 18">
<path fill-rule="nonzero" fill="rgb(100%, 100%, 100%)" fill-opacity="1" d="M 9 0 L 0 9 L 9 18 L 18 9 Z M 9 1.492188 L 16.507812 9 L 9 16.507812 L 1.492188 9 Z M 9 1.492188 "/>
<path fill-rule="nonzero" fill="rgb(0%, 26.666667%, 66.666667%)" fill-opacity="1" stroke-width="7" stroke-linecap="square" stroke-linejoin="miter" stroke="rgb(0%, 0%, 0%)" stroke-opacity="1" stroke-miterlimit="4" d="M 24.672199 148.419703 L 148.419703 24.672199 L 272.231626 148.419703 L 148.419703 272.231626 Z M 24.607781 148.419703 L 24.672199 148.419703 M 24.672199 148.419703 L 24.672199 148.419703 M 24.607781 148.419703 L 24.672199 148.419703 M 24.672199 148.419703 L 24.672199 148.419703 M 24.607781 148.419703 L 24.672199 148.419703 M 24.672199 148.419703 L 24.672199 148.419703 M 24.607781 148.419703 L 24.672199 148.419703 M 24.672199 148.419703 L 24.672199 148.419703 M 24.607781 148.419703 L 24.672199 148.419703 M 24.672199 148.419703 L 24.672199 148.419703 M 24.607781 148.419703 L 24.672199 148.419703 M 24.672199 148.419703 L 24.672199 148.419703 M 24.607781 148.419703 L 24.672199 148.419703 M 24.672199 148.419703 L 24.672199 148.419703 M 24.607781 148.419703 L 24.672199 148.419703 M 24.672199 148.419703 " transform="matrix(0.0606388, 0, 0, 0.0606388, 0, 0)"/>
<path fill-rule="nonzero" fill="rgb(100%, 100%, 100%)" fill-opacity="1" d="M 11.105469 8.558594 C 11.105469 8.898438 11.078125 9.238281 11.027344 9.574219 C 10.980469 9.910156 10.890625 10.226562 10.761719 10.527344 C 10.640625 10.824219 10.464844 11.085938 10.234375 11.320312 C 10.011719 11.550781 9.726562 11.730469 9.375 11.863281 C 9.03125 11.992188 8.609375 12.054688 8.113281 12.054688 C 8 12.054688 7.863281 12.050781 7.707031 12.039062 C 7.550781 12.035156 7.417969 12.019531 7.3125 11.996094 L 7.3125 10.988281 C 7.425781 11.007812 7.542969 11.027344 7.664062 11.046875 C 7.785156 11.0625 7.910156 11.070312 8.03125 11.070312 C 8.527344 11.070312 8.90625 10.992188 9.175781 10.835938 C 9.449219 10.675781 9.640625 10.457031 9.75 10.175781 C 9.863281 9.898438 9.925781 9.574219 9.941406 9.207031 L 9.894531 9.207031 C 9.777344 9.402344 9.621094 9.566406 9.425781 9.703125 C 9.238281 9.835938 8.953125 9.902344 8.574219 9.902344 C 8.066406 9.902344 7.660156 9.738281 7.355469 9.410156 C 7.050781 9.082031 6.894531 8.617188 6.894531 8.015625 C 6.894531 7.371094 7.078125 6.863281 7.4375 6.496094 C 7.804688 6.128906 8.300781 5.945312 8.925781 5.945312 C 9.332031 5.945312 9.699219 6.039062 10.027344 6.226562 C 10.355469 6.410156 10.617188 6.699219 10.8125 7.089844 C 11.007812 7.472656 11.105469 7.960938 11.105469 8.558594 Z M 8.949219 6.953125 C 8.703125 6.953125 8.503906 7.039062 8.347656 7.207031 C 8.191406 7.371094 8.113281 7.636719 8.113281 8 C 8.113281 8.289062 8.183594 8.515625 8.316406 8.683594 C 8.449219 8.851562 8.652344 8.933594 8.925781 8.933594 C 9.113281 8.933594 9.277344 8.890625 9.410156 8.808594 C 9.546875 8.722656 9.65625 8.621094 9.734375 8.5 C 9.8125 8.371094 9.851562 8.242188 9.851562 8.105469 C 9.851562 7.921875 9.816406 7.742188 9.75 7.5625 C 9.683594 7.386719 9.585938 7.242188 9.449219 7.128906 C 9.316406 7.011719 9.148438 6.953125 8.949219 6.953125 Z M 8.949219 6.953125 "/>
</svg>
