<?xml version="1.0" encoding="UTF-8"?>
<svg xmlns="http://www.w3.org/2000/svg" xmlns:xlink="http://www.w3.org/1999/xlink" width="12" height="25.094884" viewBox="0 0 12 25.094884">
<path fill-rule="nonzero" fill="rgb(100%, 100%, 100%)" fill-opacity="1" stroke-width="0.4" stroke-linecap="butt" stroke-linejoin="miter" stroke="rgb(0%, 0%, 0%)" stroke-opacity="1" stroke-miterlimit="4" d="M 0.193655 0.193655 L 34.801007 0.193655 L 34.801007 72.985287 L 0.193655 72.985287 Z M 0.193655 0.193655 " transform="matrix(0.342909, 0, 0, 0.342909, 0, 0)"/>
<path fill-rule="nonzero" fill="rgb(0%, 0%, 0%)" fill-opacity="1" d="M 3.425781 20.359375 C 3.503906 20.933594 3.660156 21.363281 3.894531 21.644531 C 4.320312 22.164062 5.050781 22.421875 6.082031 22.421875 C 6.703125 22.421875 7.207031 22.355469 7.59375 22.21875 C 8.328125 21.957031 8.695312 21.472656 8.695312 20.757812 C 8.695312 20.34375 8.339844 19.234375 8.144531 18.855469 C 7.285156 17.160156 3.121094 10.140625 2.144531 8.449219 C 1.628906 7.5625 1.121094 6.171875 1.121094 4.9375 C 1.121094 3.8125 1.53125 2.875 2.351562 2.132812 C 3.167969 1.390625 4.371094 1.015625 5.957031 1.015625 C 7.28125 1.015625 8.410156 1.371094 9.339844 2.074219 C 10.277344 2.773438 10.769531 3.789062 10.816406 5.125 L 8.292969 5.125 C 8.246094 4.371094 7.917969 3.832031 7.300781 3.515625 C 6.894531 3.304688 6.386719 3.199219 5.777344 3.199219 C 5.101562 3.199219 4.558594 3.335938 4.160156 3.609375 C 3.753906 3.878906 3.441406 4.535156 3.441406 5.023438 C 3.441406 5.472656 3.664062 6.121094 3.855469 6.535156 C 5.050781 9.152344 9.492188 16.167969 10.421875 17.703125 C 10.917969 18.519531 11.226562 19.441406 11.226562 20.566406 C 11.226562 21.714844 10.785156 22.667969 9.902344 23.425781 C 9.03125 24.183594 7.792969 24.5625 6.1875 24.5625 C 4.550781 24.5625 3.261719 24.191406 2.324219 23.449219 C 1.386719 22.695312 0.917969 21.667969 0.917969 20.359375 Z M 3.425781 20.359375 "/>
</svg>
