<?xml version="1.0" encoding="UTF-8"?>
<svg xmlns="http://www.w3.org/2000/svg" xmlns:xlink="http://www.w3.org/1999/xlink" width="16" height="16" viewBox="0 0 16 16">
<path fill-rule="nonzero" fill="rgb(100%, 100%, 100%)" fill-opacity="1" d="M 8.089844 0 L 0.0898438 8 L 8.089844 16 L 16.089844 8 Z M 8.089844 1.328125 L 14.765625 8 L 8.089844 14.671875 L 1.421875 8 Z M 8.089844 1.328125 "/>
<path fill-rule="nonzero" fill="rgb(0%, 26.666667%, 66.666667%)" fill-opacity="1" stroke-width="7" stroke-linecap="square" stroke-linejoin="miter" stroke="rgb(0%, 0%, 0%)" stroke-opacity="1" stroke-miterlimit="4" d="M 26.379304 148.419823 L 150.086647 24.64001 L 273.938931 148.419823 L 150.086647 272.199636 Z M 26.379304 148.419823 L 26.379304 148.419823 M 26.379304 148.419823 L 26.379304 148.419823 M 26.379304 148.419823 L 26.379304 148.419823 M 26.379304 148.419823 " transform="matrix(0.0539012, 0, 0, 0.0539012, 0, 0)"/>
<path fill-rule="nonzero" fill="rgb(100%, 100%, 100%)" fill-opacity="1" d="M 3.109375 6.539062 L 1.644531 8 L 3.109375 9.460938 L 13.0625 9.460938 L 14.523438 8 L 13.0625 6.539062 Z M 3.109375 6.539062 "/>
</svg>
