<?xml version="1.0" encoding="UTF-8"?>
<svg xmlns="http://www.w3.org/2000/svg" xmlns:xlink="http://www.w3.org/1999/xlink" width="16" height="19.248409" viewBox="0 0 16 19.248409">
<path fill="none" stroke-width="0.774274" stroke-linecap="butt" stroke-linejoin="miter" stroke="rgb(100%, 100%, 100%)" stroke-opacity="1" stroke-miterlimit="4" d="M 8.417969 0.386719 L 15.613281 0.386719 L 15.613281 11.050781 L 8.417969 11.050781 Z M 9.015625 1.273438 L 9.015625 10.164062 L 15.015625 10.164062 L 15.015625 1.273438 Z M 9.015625 1.273438 "/>
<path fill-rule="nonzero" fill="rgb(0%, 26.666667%, 66.666667%)" fill-opacity="1" stroke-width="0.317962" stroke-linecap="square" stroke-linejoin="miter" stroke="rgb(0%, 0%, 0%)" stroke-opacity="1" stroke-miterlimit="4" d="M 15.28125 0.878906 L 8.75 0.878906 L 8.75 10.558594 L 15.28125 10.558594 Z M 15.28125 0.878906 L 15.28125 0.878906 M 15.28125 0.878906 L 15.28125 0.878906 M 15.28125 0.878906 L 15.28125 0.878906 M 15.28125 0.878906 L 15.28125 0.878906 M 15.28125 0.878906 L 15.28125 0.878906 M 15.28125 0.878906 L 15.28125 0.878906 M 15.28125 0.878906 L 15.28125 0.878906 M 15.28125 0.878906 "/>
<path fill-rule="nonzero" fill="rgb(100%, 100%, 100%)" fill-opacity="1" d="M 8 3.25 L 0 11.25 L 8 19.25 L 16 11.25 Z M 8 4.578125 L 14.671875 11.25 L 8 17.921875 L 1.328125 11.25 Z M 8 4.578125 "/>
<path fill-rule="nonzero" fill="rgb(0%, 26.666667%, 66.666667%)" fill-opacity="1" stroke-width="0.377308" stroke-linecap="square" stroke-linejoin="miter" stroke="rgb(0%, 0%, 0%)" stroke-opacity="1" stroke-miterlimit="4" d="M 1.328125 11.25 L 8 4.578125 L 14.671875 11.25 L 8 17.921875 Z M 1.328125 11.25 L 1.328125 11.25 M 1.328125 11.25 L 1.328125 11.25 M 1.328125 11.25 L 1.328125 11.25 M 1.328125 11.25 L 1.328125 11.25 M 1.328125 11.25 L 1.328125 11.25 M 1.328125 11.25 L 1.328125 11.25 M 1.328125 11.25 L 1.328125 11.25 M 1.328125 11.25 "/>
<path fill-rule="nonzero" fill="rgb(100%, 100%, 100%)" fill-opacity="1" d="M 8 6.578125 L 3.328125 11.25 L 8 15.921875 L 12.671875 11.25 Z M 8 7.980469 L 11.269531 11.25 L 8 14.519531 L 4.730469 11.25 Z M 8 9.355469 L 6.105469 11.25 L 8 13.144531 L 9.894531 11.25 Z M 8 9.355469 "/>
<path fill-rule="nonzero" fill="rgb(100%, 100%, 100%)" fill-opacity="1" d="M 14.1875 2.863281 L 10.503906 1.519531 L 10.503906 2.355469 L 13.132812 3.25 L 10.503906 4.144531 L 10.503906 4.976562 L 14.1875 3.632812 Z M 14.1875 2.863281 "/>
</svg>
