<?xml version="1.0" encoding="UTF-8"?>
<svg xmlns="http://www.w3.org/2000/svg" xmlns:xlink="http://www.w3.org/1999/xlink" width="16" height="16" viewBox="0 0 16 16">
<path fill-rule="nonzero" fill="rgb(100%, 100%, 100%)" fill-opacity="1" d="M 8 0 L 0 8 L 8 16 L 16 8 Z M 8 1.328125 L 14.671875 8 L 8 14.671875 L 1.328125 8 Z M 8 1.328125 "/>
<path fill-rule="nonzero" fill="rgb(0%, 26.666667%, 66.666667%)" fill-opacity="1" stroke-width="7" stroke-linecap="square" stroke-linejoin="miter" stroke="rgb(0%, 0%, 0%)" stroke-opacity="1" stroke-miterlimit="4" d="M 24.64001 148.419823 L 148.419823 24.64001 L 272.199636 148.419823 L 148.419823 272.199636 Z M 24.64001 148.419823 L 24.64001 148.419823 M 24.64001 148.419823 L 24.64001 148.419823 M 24.64001 148.419823 L 24.64001 148.419823 M 24.64001 148.419823 " transform="matrix(0.0539012, 0, 0, 0.0539012, 0, 0)"/>
<path fill-rule="nonzero" fill="rgb(100%, 100%, 100%)" fill-opacity="1" d="M 8 3.328125 L 3.328125 8 L 8 12.671875 L 12.671875 8 Z M 8 4.730469 L 11.269531 8 L 8 11.269531 L 4.730469 8 Z M 8 6.105469 L 6.105469 8 L 8 9.894531 L 9.894531 8 Z M 8 6.105469 "/>
<path fill-rule="nonzero" fill="rgb(0%, 26.666667%, 66.666667%)" fill-opacity="1" d="M 8 4.730469 L 4.730469 8 L 8 11.269531 L 11.269531 8 Z M 8 6.105469 L 9.894531 8 L 8 9.894531 L 6.105469 8 Z M 8 6.105469 "/>
</svg>
