<?xml version="1.0" encoding="UTF-8"?>
<svg xmlns="http://www.w3.org/2000/svg" xmlns:xlink="http://www.w3.org/1999/xlink" width="18" height="15.413925" viewBox="0 0 18 15.413925">
<path fill-rule="nonzero" fill="rgb(100%, 79.607843%, 0%)" fill-opacity="1" stroke-width="0.7" stroke-linecap="round" stroke-linejoin="round" stroke="rgb(0%, 0%, 0%)" stroke-opacity="1" stroke-miterlimit="4" d="M 21.972775 0.444041 C 13.540851 0.444041 7.114436 0.414764 0.35133 0.351329 C 3.615773 6.104361 7.836615 13.150483 11.101058 18.903515 C 14.482611 13.160242 22.133801 0.444041 22.133801 0.444041 Z M 21.972775 0.444041 " transform="matrix(0.800529, 0, 0, 0.800529, 0, 0.00000065376)"/>
<path fill-rule="nonzero" fill="rgb(0%, 0%, 0%)" fill-opacity="1" d="M 7.703125 7.621094 L 6.972656 7.621094 L 6.972656 3.386719 C 6.972656 3.144531 6.972656 2.949219 6.980469 2.800781 C 6.984375 2.65625 6.996094 2.5 7.003906 2.34375 C 6.914062 2.433594 6.832031 2.511719 6.757812 2.574219 C 6.6875 2.632812 6.59375 2.714844 6.480469 2.808594 L 5.835938 3.335938 L 5.445312 2.835938 L 7.082031 1.5625 L 7.703125 1.5625 Z M 7.703125 7.621094 "/>
<path fill-rule="nonzero" fill="rgb(0%, 0%, 0%)" fill-opacity="1" d="M 12.554688 7.621094 L 11.824219 7.621094 L 11.824219 3.386719 C 11.824219 3.144531 11.828125 2.949219 11.835938 2.800781 C 11.839844 2.65625 11.847656 2.5 11.859375 2.34375 C 11.769531 2.433594 11.6875 2.511719 11.613281 2.574219 C 11.539062 2.632812 11.445312 2.714844 11.332031 2.808594 L 10.6875 3.335938 L 10.296875 2.835938 L 11.9375 1.5625 L 12.554688 1.5625 Z M 12.554688 7.621094 "/>
</svg>
