<?xml version="1.0" encoding="UTF-8"?>
<svg xmlns="http://www.w3.org/2000/svg" xmlns:xlink="http://www.w3.org/1999/xlink" width="18" height="15.413925" viewBox="0 0 18 15.413925">
<path fill-rule="nonzero" fill="rgb(100%, 79.607843%, 0%)" fill-opacity="1" stroke-width="0.7" stroke-linecap="round" stroke-linejoin="round" stroke="rgb(0%, 0%, 0%)" stroke-opacity="1" stroke-miterlimit="4" d="M 21.972775 0.444041 C 13.540851 0.444041 7.114436 0.414764 0.35133 0.351329 C 3.615773 6.104361 7.836615 13.150483 11.101058 18.903515 C 14.482611 13.160242 22.133801 0.444041 22.133801 0.444041 Z M 21.972775 0.444041 " transform="matrix(0.800529, 0, 0, 0.800529, 0, 0.00000065376)"/>
<path fill-rule="nonzero" fill="rgb(0%, 0%, 0%)" fill-opacity="1" d="M 11.910156 7.507812 L 10.769531 7.507812 L 10.769531 9.285156 L 9.839844 9.285156 L 9.839844 7.507812 L 6.089844 7.507812 L 6.089844 6.6875 L 9.773438 1.417969 L 10.769531 1.417969 L 10.769531 6.644531 L 11.910156 6.644531 Z M 9.839844 4.179688 C 9.839844 3.800781 9.84375 3.476562 9.859375 3.214844 C 9.875 2.945312 9.886719 2.6875 9.894531 2.449219 L 9.847656 2.449219 C 9.789062 2.585938 9.71875 2.734375 9.628906 2.898438 C 9.542969 3.058594 9.457031 3.191406 9.378906 3.300781 L 7.035156 6.644531 L 9.839844 6.644531 Z M 9.839844 4.179688 "/>
</svg>
