<?xml version="1.0" encoding="UTF-8"?>
<svg xmlns="http://www.w3.org/2000/svg" xmlns:xlink="http://www.w3.org/1999/xlink" width="18" height="15.413925" viewBox="0 0 18 15.413925">
<path fill-rule="nonzero" fill="rgb(100%, 79.607843%, 0%)" fill-opacity="1" stroke-width="0.7" stroke-linecap="round" stroke-linejoin="round" stroke="rgb(0%, 0%, 0%)" stroke-opacity="1" stroke-miterlimit="4" d="M 21.972775 0.444041 C 13.540851 0.444041 7.114436 0.414764 0.35133 0.351329 C 3.615773 6.104361 7.836615 13.150483 11.101058 18.903515 C 14.482611 13.160242 22.133801 0.444041 22.133801 0.444041 Z M 21.972775 0.444041 " transform="matrix(0.800529, 0, 0, 0.800529, 0, 0.00000065376)"/>
<path fill-rule="nonzero" fill="rgb(0%, 0%, 0%)" fill-opacity="1" d="M 7.761719 7.222656 C 7.761719 6.777344 7.851562 6.40625 8.039062 6.101562 C 8.226562 5.800781 8.546875 5.484375 9 5.15625 C 9.398438 4.871094 9.683594 4.628906 9.851562 4.421875 C 10.03125 4.210938 10.121094 3.960938 10.121094 3.675781 C 10.121094 3.390625 10.011719 3.179688 9.800781 3.035156 C 9.59375 2.886719 9.308594 2.808594 8.933594 2.808594 C 8.558594 2.808594 8.191406 2.867188 7.828125 2.984375 C 7.460938 3.097656 7.089844 3.253906 6.707031 3.449219 L 6 2.023438 C 6.4375 1.78125 6.90625 1.585938 7.414062 1.4375 C 7.921875 1.285156 8.476562 1.210938 9.078125 1.210938 C 10.003906 1.210938 10.71875 1.433594 11.226562 1.875 C 11.742188 2.320312 12 2.886719 12 3.570312 C 12 3.933594 11.941406 4.25 11.828125 4.515625 C 11.710938 4.78125 11.539062 5.03125 11.308594 5.261719 C 11.074219 5.484375 10.785156 5.726562 10.441406 5.984375 C 10.183594 6.167969 9.980469 6.328125 9.839844 6.464844 C 9.699219 6.597656 9.601562 6.726562 9.546875 6.851562 C 9.503906 6.972656 9.480469 7.128906 9.480469 7.316406 L 9.480469 7.703125 L 7.761719 7.703125 Z M 7.546875 9.929688 C 7.546875 9.519531 7.65625 9.238281 7.878906 9.078125 C 8.101562 8.90625 8.375 8.824219 8.691406 8.824219 C 9.003906 8.824219 9.269531 8.90625 9.492188 9.078125 C 9.714844 9.238281 9.828125 9.519531 9.828125 9.929688 C 9.828125 10.320312 9.714844 10.605469 9.492188 10.78125 C 9.269531 10.953125 9.003906 11.035156 8.691406 11.035156 C 8.375 11.035156 8.101562 10.953125 7.878906 10.78125 C 7.65625 10.605469 7.546875 10.320312 7.546875 9.929688 Z M 7.546875 9.929688 "/>
</svg>
