<?xml version="1.0" encoding="UTF-8"?>
<svg xmlns="http://www.w3.org/2000/svg" xmlns:xlink="http://www.w3.org/1999/xlink" width="18" height="15.413925" viewBox="0 0 18 15.413925">
<path fill-rule="nonzero" fill="rgb(100%, 79.607843%, 0%)" fill-opacity="1" stroke-width="0.7" stroke-linecap="round" stroke-linejoin="round" stroke="rgb(0%, 0%, 0%)" stroke-opacity="1" stroke-miterlimit="4" d="M 21.972775 0.444041 C 13.540851 0.444041 7.114436 0.414764 0.35133 0.351329 C 3.615773 6.104361 7.836615 13.150483 11.101058 18.903515 C 14.482611 13.160242 22.133801 0.444041 22.133801 0.444041 Z M 21.972775 0.444041 " transform="matrix(0.800529, 0, 0, 0.800529, 0, 0.00000065376)"/>
<path fill-rule="nonzero" fill="rgb(0%, 0%, 0%)" fill-opacity="1" d="M 6.578125 7.707031 L 5.949219 7.707031 L 5.949219 4.054688 C 5.949219 3.84375 5.949219 3.675781 5.953125 3.550781 C 5.960938 3.421875 5.96875 3.292969 5.976562 3.15625 C 5.898438 3.234375 5.828125 3.300781 5.765625 3.351562 C 5.703125 3.40625 5.621094 3.472656 5.523438 3.558594 L 4.96875 4.011719 L 4.628906 3.578125 L 6.042969 2.480469 L 6.578125 2.480469 Z M 6.578125 7.707031 "/>
<path fill-rule="nonzero" fill="rgb(0%, 0%, 0%)" fill-opacity="1" d="M 11.96875 7.707031 L 8.515625 7.707031 L 8.515625 7.171875 L 9.886719 5.789062 C 10.148438 5.527344 10.371094 5.292969 10.550781 5.085938 C 10.730469 4.882812 10.867188 4.683594 10.960938 4.488281 C 11.054688 4.285156 11.101562 4.070312 11.101562 3.835938 C 11.101562 3.546875 11.015625 3.332031 10.84375 3.183594 C 10.671875 3.03125 10.449219 2.957031 10.175781 2.957031 C 9.925781 2.957031 9.699219 3 9.503906 3.089844 C 9.3125 3.175781 9.117188 3.300781 8.917969 3.453125 L 8.574219 3.023438 C 8.78125 2.851562 9.015625 2.707031 9.277344 2.589844 C 9.546875 2.46875 9.847656 2.410156 10.175781 2.410156 C 10.664062 2.410156 11.050781 2.53125 11.332031 2.78125 C 11.617188 3.027344 11.757812 3.363281 11.757812 3.800781 C 11.757812 4.070312 11.703125 4.328125 11.589844 4.566406 C 11.476562 4.804688 11.320312 5.042969 11.121094 5.277344 C 10.921875 5.507812 10.6875 5.753906 10.417969 6.015625 L 9.328125 7.09375 L 9.328125 7.121094 L 11.96875 7.121094 Z M 11.96875 7.707031 "/>
<path fill-rule="nonzero" fill="rgb(0%, 0%, 0%)" fill-opacity="1" d="M 13.636719 2.261719 C 13.964844 2.261719 14.222656 2.34375 14.414062 2.507812 C 14.605469 2.667969 14.703125 2.898438 14.703125 3.195312 C 14.703125 3.523438 14.597656 3.78125 14.386719 3.96875 C 14.179688 4.15625 13.890625 4.25 13.519531 4.25 C 13.355469 4.25 13.203125 4.234375 13.058594 4.203125 C 12.917969 4.175781 12.796875 4.132812 12.699219 4.074219 L 12.699219 3.707031 C 12.804688 3.773438 12.933594 3.824219 13.085938 3.863281 C 13.238281 3.898438 13.382812 3.917969 13.523438 3.917969 C 13.757812 3.917969 13.945312 3.863281 14.085938 3.753906 C 14.230469 3.640625 14.304688 3.46875 14.304688 3.234375 C 14.304688 3.027344 14.238281 2.867188 14.113281 2.761719 C 13.984375 2.648438 13.785156 2.589844 13.511719 2.589844 C 13.425781 2.589844 13.332031 2.597656 13.226562 2.613281 C 13.121094 2.628906 13.035156 2.644531 12.96875 2.65625 L 12.773438 2.535156 L 12.894531 1.039062 L 14.480469 1.039062 L 14.480469 1.394531 L 13.226562 1.394531 L 13.152344 2.3125 C 13.203125 2.304688 13.269531 2.292969 13.355469 2.28125 C 13.441406 2.269531 13.535156 2.261719 13.636719 2.261719 Z M 13.636719 2.261719 "/>
</svg>
