<?xml version="1.0" encoding="UTF-8"?>
<svg xmlns="http://www.w3.org/2000/svg" xmlns:xlink="http://www.w3.org/1999/xlink" width="18" height="15.413925" viewBox="0 0 18 15.413925">
<path fill-rule="nonzero" fill="rgb(100%, 79.607843%, 0%)" fill-opacity="1" stroke-width="0.7" stroke-linecap="round" stroke-linejoin="round" stroke="rgb(0%, 0%, 0%)" stroke-opacity="1" stroke-miterlimit="4" d="M 21.972775 0.444041 C 13.540851 0.444041 7.114436 0.414764 0.35133 0.351329 C 3.615773 6.104361 7.836615 13.150483 11.101058 18.903515 C 14.482611 13.160242 22.133801 0.444041 22.133801 0.444041 Z M 21.972775 0.444041 " transform="matrix(0.800529, 0, 0, 0.800529, 0, 0.00000065376)"/>
<path fill-rule="nonzero" fill="rgb(0%, 0%, 0%)" fill-opacity="1" d="M 7 7.039062 L 6.320312 7.039062 L 6.320312 3.074219 C 6.320312 2.847656 6.320312 2.664062 6.328125 2.523438 C 6.332031 2.386719 6.339844 2.246094 6.351562 2.097656 C 6.265625 2.179688 6.1875 2.253906 6.121094 2.3125 C 6.050781 2.367188 5.964844 2.441406 5.859375 2.535156 L 5.253906 3.027344 L 4.886719 2.558594 L 6.421875 1.367188 L 7 1.367188 Z M 7 7.039062 "/>
<path fill-rule="nonzero" fill="rgb(0%, 0%, 0%)" fill-opacity="1" d="M 13.113281 5.75 L 12.285156 5.75 L 12.285156 7.039062 L 11.609375 7.039062 L 11.609375 5.75 L 8.894531 5.75 L 8.894531 5.15625 L 11.5625 1.332031 L 12.285156 1.332031 L 12.285156 5.125 L 13.113281 5.125 Z M 11.609375 3.335938 C 11.609375 3.058594 11.617188 2.828125 11.625 2.636719 C 11.636719 2.441406 11.644531 2.253906 11.648438 2.082031 L 11.617188 2.082031 C 11.574219 2.179688 11.523438 2.289062 11.460938 2.40625 C 11.394531 2.523438 11.335938 2.621094 11.277344 2.699219 L 9.574219 5.125 L 11.609375 5.125 Z M 11.609375 3.335938 "/>
</svg>
