<?xml version="1.0" encoding="UTF-8"?>
<svg xmlns="http://www.w3.org/2000/svg" xmlns:xlink="http://www.w3.org/1999/xlink" width="18" height="15.413925" viewBox="0 0 18 15.413925">
<path fill-rule="nonzero" fill="rgb(100%, 79.607843%, 0%)" fill-opacity="1" stroke-width="0.7" stroke-linecap="round" stroke-linejoin="round" stroke="rgb(0%, 0%, 0%)" stroke-opacity="1" stroke-miterlimit="4" d="M 21.972775 0.444041 C 13.540851 0.444041 7.114436 0.414764 0.35133 0.351329 C 3.615773 6.104361 7.836615 13.150483 11.101058 18.903515 C 14.482611 13.160242 22.133801 0.444041 22.133801 0.444041 Z M 21.972775 0.444041 " transform="matrix(0.800529, 0, 0, 0.800529, 0, 0.00000065376)"/>
<path fill-rule="nonzero" fill="rgb(0%, 0%, 0%)" fill-opacity="1" d="M 7.128906 7.039062 L 6.445312 7.039062 L 6.445312 3.074219 C 6.445312 2.847656 6.449219 2.664062 6.453125 2.523438 C 6.457031 2.386719 6.46875 2.246094 6.476562 2.097656 C 6.394531 2.179688 6.316406 2.253906 6.246094 2.3125 C 6.179688 2.367188 6.089844 2.441406 5.984375 2.535156 L 5.382812 3.027344 L 5.015625 2.558594 L 6.550781 1.367188 L 7.128906 1.367188 Z M 7.128906 7.039062 "/>
<path fill-rule="nonzero" fill="rgb(0%, 0%, 0%)" fill-opacity="1" d="M 12.984375 7.039062 L 9.234375 7.039062 L 9.234375 6.457031 L 10.71875 4.957031 C 11.007812 4.671875 11.246094 4.417969 11.441406 4.195312 C 11.640625 3.972656 11.789062 3.753906 11.886719 3.542969 C 11.988281 3.324219 12.039062 3.089844 12.039062 2.835938 C 12.039062 2.523438 11.945312 2.285156 11.761719 2.128906 C 11.574219 1.964844 11.335938 1.882812 11.039062 1.882812 C 10.761719 1.882812 10.519531 1.929688 10.308594 2.023438 C 10.101562 2.121094 9.886719 2.253906 9.671875 2.421875 L 9.296875 1.953125 C 9.519531 1.769531 9.773438 1.613281 10.0625 1.484375 C 10.351562 1.351562 10.679688 1.285156 11.039062 1.285156 C 11.566406 1.285156 11.984375 1.421875 12.292969 1.691406 C 12.601562 1.957031 12.753906 2.324219 12.753906 2.796875 C 12.753906 3.09375 12.691406 3.371094 12.570312 3.628906 C 12.449219 3.890625 12.28125 4.144531 12.0625 4.398438 C 11.847656 4.648438 11.589844 4.917969 11.300781 5.203125 L 10.117188 6.371094 L 10.117188 6.402344 L 12.984375 6.402344 Z M 12.984375 7.039062 "/>
</svg>
