<?xml version="1.0" encoding="UTF-8"?>
<svg xmlns="http://www.w3.org/2000/svg" xmlns:xlink="http://www.w3.org/1999/xlink" width="18" height="15.413925" viewBox="0 0 18 15.413925">
<path fill-rule="nonzero" fill="rgb(100%, 79.607843%, 0%)" fill-opacity="1" stroke-width="0.7" stroke-linecap="round" stroke-linejoin="round" stroke="rgb(0%, 0%, 0%)" stroke-opacity="1" stroke-miterlimit="4" d="M 21.972775 0.444041 C 13.540851 0.444041 7.114436 0.414764 0.35133 0.351329 C 3.615773 6.104361 7.836615 13.150483 11.101058 18.903515 C 14.482611 13.160242 22.133801 0.444041 22.133801 0.444041 Z M 21.972775 0.444041 " transform="matrix(0.800529, 0, 0, 0.800529, 0, 0.00000065376)"/>
<path fill-rule="nonzero" fill="rgb(0%, 0%, 0%)" fill-opacity="1" d="M 7.148438 7.039062 L 6.464844 7.039062 L 6.464844 3.074219 C 6.464844 2.847656 6.46875 2.664062 6.472656 2.523438 C 6.480469 2.386719 6.488281 2.246094 6.496094 2.097656 C 6.414062 2.179688 6.335938 2.253906 6.265625 2.3125 C 6.199219 2.367188 6.109375 2.441406 6.003906 2.535156 L 5.402344 3.027344 L 5.035156 2.558594 L 6.570312 1.367188 L 7.148438 1.367188 Z M 7.148438 7.039062 "/>
<path fill-rule="nonzero" fill="rgb(0%, 0%, 0%)" fill-opacity="1" d="M 12.789062 2.691406 C 12.789062 3.074219 12.683594 3.378906 12.472656 3.605469 C 12.261719 3.828125 11.972656 3.976562 11.613281 4.050781 L 11.613281 4.082031 C 12.070312 4.136719 12.410156 4.277344 12.632812 4.511719 C 12.851562 4.746094 12.964844 5.050781 12.964844 5.425781 C 12.964844 5.753906 12.886719 6.046875 12.734375 6.308594 C 12.582031 6.5625 12.34375 6.761719 12.019531 6.902344 C 11.703125 7.046875 11.289062 7.117188 10.789062 7.117188 C 10.492188 7.117188 10.214844 7.09375 9.960938 7.046875 C 9.707031 7.003906 9.464844 6.925781 9.230469 6.808594 L 9.230469 6.15625 C 9.46875 6.273438 9.726562 6.367188 10 6.433594 C 10.277344 6.496094 10.542969 6.53125 10.796875 6.53125 C 11.304688 6.53125 11.667969 6.433594 11.890625 6.234375 C 12.121094 6.035156 12.234375 5.757812 12.234375 5.410156 C 12.234375 5.054688 12.09375 4.800781 11.8125 4.648438 C 11.539062 4.488281 11.148438 4.410156 10.644531 4.410156 L 10.097656 4.410156 L 10.097656 3.8125 L 10.652344 3.8125 C 11.117188 3.8125 11.472656 3.714844 11.710938 3.519531 C 11.953125 3.324219 12.074219 3.0625 12.074219 2.738281 C 12.074219 2.464844 11.980469 2.253906 11.796875 2.105469 C 11.609375 1.949219 11.359375 1.875 11.042969 1.875 C 10.734375 1.875 10.472656 1.917969 10.253906 2.007812 C 10.039062 2.097656 9.824219 2.210938 9.613281 2.351562 L 9.261719 1.875 C 9.464844 1.714844 9.710938 1.578125 10.007812 1.460938 C 10.3125 1.34375 10.652344 1.285156 11.035156 1.285156 C 11.628906 1.285156 12.066406 1.417969 12.351562 1.683594 C 12.644531 1.949219 12.789062 2.285156 12.789062 2.691406 Z M 12.789062 2.691406 "/>
</svg>
