<?xml version="1.0" encoding="UTF-8"?>
<svg xmlns="http://www.w3.org/2000/svg" xmlns:xlink="http://www.w3.org/1999/xlink" width="16" height="15.757436" viewBox="0 0 16 15.757436">
<path fill-rule="nonzero" fill="rgb(100%, 100%, 100%)" fill-opacity="1" stroke-width="0.600002" stroke-linecap="butt" stroke-linejoin="miter" stroke="rgb(0%, 0%, 0%)" stroke-opacity="1" stroke-miterlimit="4" d="M 0.301195 0.301195 L 15.93162 0.301195 L 15.93162 15.685908 L 0.301195 15.685908 Z M 0.301195 0.301195 " transform="matrix(0.985658, 0, 0, 0.985658, 0, 0)"/>
<path fill-rule="nonzero" fill="rgb(0%, 0%, 0%)" fill-opacity="1" d="M 10.839844 5.375 C 10.839844 6.015625 10.664062 6.527344 10.304688 6.910156 C 9.953125 7.28125 9.472656 7.53125 8.867188 7.65625 L 8.867188 7.707031 C 9.632812 7.796875 10.203125 8.039062 10.574219 8.429688 C 10.949219 8.820312 11.132812 9.328125 11.132812 9.960938 C 11.132812 10.515625 11.003906 11.007812 10.746094 11.441406 C 10.488281 11.867188 10.089844 12.203125 9.546875 12.441406 C 9.015625 12.683594 8.324219 12.800781 7.480469 12.800781 C 6.984375 12.800781 6.519531 12.765625 6.09375 12.683594 C 5.667969 12.609375 5.257812 12.480469 4.867188 12.28125 L 4.867188 11.1875 C 5.265625 11.386719 5.699219 11.542969 6.160156 11.65625 C 6.621094 11.765625 7.066406 11.816406 7.492188 11.816406 C 8.347656 11.816406 8.957031 11.652344 9.332031 11.324219 C 9.714844 10.984375 9.90625 10.519531 9.90625 9.9375 C 9.90625 9.339844 9.671875 8.914062 9.203125 8.65625 C 8.734375 8.390625 8.082031 8.257812 7.238281 8.257812 L 6.320312 8.257812 L 6.320312 7.257812 L 7.253906 7.257812 C 8.035156 7.257812 8.625 7.089844 9.027344 6.765625 C 9.433594 6.433594 9.640625 5.996094 9.640625 5.453125 C 9.640625 4.992188 9.484375 4.640625 9.171875 4.390625 C 8.859375 4.132812 8.441406 4.003906 7.90625 4.003906 C 7.390625 4.003906 6.953125 4.078125 6.585938 4.230469 C 6.222656 4.382812 5.859375 4.574219 5.507812 4.800781 L 4.921875 4.003906 C 5.257812 3.734375 5.675781 3.503906 6.171875 3.308594 C 6.679688 3.113281 7.253906 3.015625 7.890625 3.015625 C 8.890625 3.015625 9.625 3.238281 10.109375 3.683594 C 10.597656 4.128906 10.839844 4.691406 10.839844 5.375 Z M 10.839844 5.375 "/>
</svg>
