<?xml version="1.0" encoding="UTF-8"?>
<svg xmlns="http://www.w3.org/2000/svg" xmlns:xlink="http://www.w3.org/1999/xlink" width="16" height="15.757436" viewBox="0 0 16 15.757436">
<path fill-rule="nonzero" fill="rgb(100%, 100%, 100%)" fill-opacity="1" stroke-width="0.600002" stroke-linecap="butt" stroke-linejoin="miter" stroke="rgb(0%, 0%, 0%)" stroke-opacity="1" stroke-miterlimit="4" d="M 0.301195 0.301195 L 15.93162 0.301195 L 15.93162 15.685908 L 0.301195 15.685908 Z M 0.301195 0.301195 " transform="matrix(0.985658, 0, 0, 0.985658, 0, 0)"/>
<path fill-rule="nonzero" fill="rgb(0%, 0%, 0%)" fill-opacity="1" d="M 4.867188 8.574219 C 4.867188 7.890625 4.921875 7.214844 5.042969 6.558594 C 5.164062 5.890625 5.382812 5.292969 5.695312 4.761719 C 6.015625 4.214844 6.457031 3.785156 7.027344 3.464844 C 7.597656 3.144531 8.328125 2.984375 9.226562 2.984375 C 9.414062 2.984375 9.617188 2.992188 9.839844 3.011719 C 10.070312 3.03125 10.257812 3.0625 10.398438 3.105469 L 10.398438 4.105469 C 10.238281 4.050781 10.058594 4.011719 9.855469 3.984375 C 9.65625 3.957031 9.457031 3.945312 9.253906 3.945312 C 8.640625 3.945312 8.128906 4.046875 7.71875 4.253906 C 7.3125 4.453125 6.984375 4.734375 6.746094 5.09375 C 6.515625 5.449219 6.347656 5.859375 6.238281 6.320312 C 6.132812 6.78125 6.066406 7.273438 6.042969 7.796875 L 6.121094 7.796875 C 6.324219 7.484375 6.609375 7.226562 6.972656 7.011719 C 7.335938 6.789062 7.804688 6.675781 8.375 6.675781 C 9.203125 6.675781 9.867188 6.929688 10.375 7.4375 C 10.878906 7.9375 11.132812 8.648438 11.132812 9.574219 C 11.132812 10.566406 10.859375 11.351562 10.304688 11.921875 C 9.765625 12.484375 9.03125 12.769531 8.109375 12.769531 C 7.503906 12.769531 6.953125 12.621094 6.464844 12.320312 C 5.980469 12.015625 5.585938 11.554688 5.292969 10.929688 C 5.011719 10.308594 4.867188 9.523438 4.867188 8.574219 Z M 8.09375 11.785156 C 8.652344 11.785156 9.109375 11.609375 9.453125 11.253906 C 9.796875 10.890625 9.972656 10.328125 9.972656 9.574219 C 9.972656 8.96875 9.820312 8.484375 9.507812 8.132812 C 9.203125 7.777344 8.746094 7.597656 8.132812 7.597656 C 7.714844 7.597656 7.351562 7.6875 7.042969 7.863281 C 6.730469 8.035156 6.484375 8.253906 6.304688 8.515625 C 6.140625 8.785156 6.050781 9.0625 6.050781 9.34375 C 6.050781 9.730469 6.128906 10.109375 6.28125 10.492188 C 6.429688 10.863281 6.65625 11.175781 6.957031 11.425781 C 7.265625 11.667969 7.640625 11.785156 8.09375 11.785156 Z M 8.09375 11.785156 "/>
</svg>
