<?xml version="1.0" encoding="UTF-8"?>
<svg xmlns="http://www.w3.org/2000/svg" xmlns:xlink="http://www.w3.org/1999/xlink" width="16" height="15.757436" viewBox="0 0 16 15.757436">
<path fill-rule="nonzero" fill="rgb(100%, 100%, 100%)" fill-opacity="1" stroke-width="0.600002" stroke-linecap="butt" stroke-linejoin="miter" stroke="rgb(0%, 0%, 0%)" stroke-opacity="1" stroke-miterlimit="4" d="M 0.301195 0.301195 L 15.93162 0.301195 L 15.93162 15.685908 L 0.301195 15.685908 Z M 0.301195 0.301195 " transform="matrix(0.985658, 0, 0, 0.985658, 0, 0)"/>
<path fill-rule="nonzero" fill="rgb(0%, 0%, 0%)" fill-opacity="1" d="M 5.074219 12.054688 L 4.074219 12.054688 L 4.074219 6.25 C 4.074219 5.917969 4.078125 5.648438 4.085938 5.449219 C 4.09375 5.246094 4.105469 5.035156 4.121094 4.820312 C 3.996094 4.945312 3.882812 5.046875 3.78125 5.132812 C 3.679688 5.21875 3.554688 5.328125 3.398438 5.457031 L 2.515625 6.179688 L 1.980469 5.492188 L 4.226562 3.75 L 5.074219 3.75 Z M 5.074219 12.054688 "/>
<path fill-rule="nonzero" fill="rgb(0%, 0%, 0%)" fill-opacity="1" d="M 14.019531 10.171875 L 12.808594 10.171875 L 12.808594 12.054688 L 11.824219 12.054688 L 11.824219 10.171875 L 7.84375 10.171875 L 7.84375 9.296875 L 11.753906 3.703125 L 12.808594 3.703125 L 12.808594 9.25 L 14.019531 9.25 Z M 11.824219 6.636719 C 11.824219 6.230469 11.828125 5.890625 11.84375 5.609375 C 11.859375 5.324219 11.871094 5.050781 11.878906 4.796875 L 11.832031 4.796875 C 11.769531 4.945312 11.695312 5.101562 11.601562 5.273438 C 11.507812 5.445312 11.417969 5.585938 11.332031 5.703125 L 8.84375 9.25 L 11.824219 9.25 Z M 11.824219 6.636719 "/>
</svg>
