<?xml version="1.0" encoding="UTF-8"?>
<svg xmlns="http://www.w3.org/2000/svg" xmlns:xlink="http://www.w3.org/1999/xlink" width="16" height="15.757436" viewBox="0 0 16 15.757436">
<path fill-rule="nonzero" fill="rgb(100%, 100%, 100%)" fill-opacity="1" stroke-width="0.600002" stroke-linecap="butt" stroke-linejoin="miter" stroke="rgb(0%, 0%, 0%)" stroke-opacity="1" stroke-miterlimit="4" d="M 0.301195 0.301195 L 15.93162 0.301195 L 15.93162 15.685908 L 0.301195 15.685908 Z M 0.301195 0.301195 " transform="matrix(0.985658, 0, 0, 0.985658, 0, 0)"/>
<path fill-rule="nonzero" fill="rgb(0%, 0%, 0%)" fill-opacity="1" d="M 6.667969 9.734375 L 6.667969 7.234375 C 7.523438 7.199219 8.167969 7.039062 8.605469 6.753906 C 9.054688 6.453125 9.28125 5.992188 9.28125 5.375 L 9.28125 5.148438 C 9.28125 4.699219 9.148438 4.351562 8.878906 4.105469 C 8.613281 3.859375 8.253906 3.738281 7.804688 3.738281 C 7.324219 3.738281 6.933594 3.882812 6.632812 4.171875 C 6.347656 4.449219 6.144531 4.8125 6.023438 5.261719 L 4.308594 4.554688 C 4.40625 4.222656 4.542969 3.902344 4.726562 3.59375 C 4.90625 3.285156 5.144531 3.011719 5.433594 2.777344 C 5.71875 2.53125 6.066406 2.335938 6.472656 2.199219 C 6.878906 2.046875 7.351562 1.972656 7.886719 1.972656 C 8.429688 1.972656 8.921875 2.054688 9.359375 2.214844 C 9.796875 2.363281 10.171875 2.582031 10.484375 2.871094 C 10.792969 3.148438 11.035156 3.484375 11.203125 3.882812 C 11.375 4.277344 11.460938 4.714844 11.460938 5.195312 C 11.460938 5.667969 11.378906 6.089844 11.21875 6.464844 C 11.070312 6.828125 10.863281 7.148438 10.59375 7.425781 C 10.328125 7.691406 10.023438 7.910156 9.679688 8.082031 C 9.339844 8.242188 8.984375 8.355469 8.621094 8.417969 L 8.621094 9.734375 Z M 7.660156 13.550781 C 7.210938 13.550781 6.886719 13.445312 6.683594 13.230469 C 6.480469 13.015625 6.378906 12.742188 6.378906 12.414062 L 6.378906 12.089844 C 6.378906 11.761719 6.480469 11.488281 6.683594 11.273438 C 6.886719 11.058594 7.210938 10.953125 7.660156 10.953125 C 8.121094 10.953125 8.453125 11.058594 8.65625 11.273438 C 8.859375 11.488281 8.960938 11.761719 8.960938 12.089844 L 8.960938 12.414062 C 8.960938 12.742188 8.859375 13.015625 8.65625 13.230469 C 8.453125 13.445312 8.121094 13.550781 7.660156 13.550781 Z M 7.660156 13.550781 "/>
</svg>
