<?xml version="1.0" encoding="UTF-8"?>
<svg xmlns="http://www.w3.org/2000/svg" xmlns:xlink="http://www.w3.org/1999/xlink" width="16" height="15.757436" viewBox="0 0 16 15.757436">
<path fill-rule="nonzero" fill="rgb(100%, 100%, 100%)" fill-opacity="1" stroke-width="0.600002" stroke-linecap="butt" stroke-linejoin="miter" stroke="rgb(0%, 0%, 0%)" stroke-opacity="1" stroke-miterlimit="4" d="M 0.301195 0.301195 L 15.93162 0.301195 L 15.93162 15.685908 L 0.301195 15.685908 Z M 0.301195 0.301195 " transform="matrix(0.985658, 0, 0, 0.985658, 0, 0)"/>
<path fill-rule="nonzero" fill="rgb(0%, 0%, 0%)" fill-opacity="1" d="M 5.234375 12.03125 L 4.230469 12.03125 L 4.230469 6.226562 C 4.230469 5.890625 4.234375 5.625 4.242188 5.421875 C 4.25 5.222656 4.261719 5.015625 4.277344 4.796875 C 4.152344 4.921875 4.042969 5.023438 3.941406 5.109375 C 3.839844 5.195312 3.710938 5.300781 3.554688 5.433594 L 2.671875 6.15625 L 2.136719 5.472656 L 4.382812 3.726562 L 5.234375 3.726562 Z M 5.234375 12.03125 "/>
<path fill-rule="nonzero" fill="rgb(0%, 0%, 0%)" fill-opacity="1" d="M 8.394531 8.484375 C 8.394531 7.886719 8.445312 7.300781 8.546875 6.726562 C 8.65625 6.144531 8.84375 5.621094 9.117188 5.15625 C 9.394531 4.683594 9.785156 4.304688 10.28125 4.027344 C 10.777344 3.75 11.417969 3.609375 12.203125 3.609375 C 12.359375 3.609375 12.542969 3.617188 12.734375 3.632812 C 12.9375 3.648438 13.101562 3.671875 13.222656 3.714844 L 13.222656 4.585938 C 13.082031 4.539062 12.921875 4.503906 12.746094 4.484375 C 12.578125 4.457031 12.402344 4.449219 12.222656 4.449219 C 11.6875 4.449219 11.242188 4.535156 10.886719 4.714844 C 10.527344 4.890625 10.246094 5.136719 10.035156 5.449219 C 9.832031 5.757812 9.6875 6.113281 9.59375 6.515625 C 9.5 6.921875 9.441406 7.351562 9.421875 7.808594 L 9.488281 7.808594 C 9.667969 7.539062 9.917969 7.308594 10.234375 7.121094 C 10.550781 6.925781 10.957031 6.832031 11.453125 6.832031 C 12.175781 6.832031 12.757812 7.050781 13.203125 7.496094 C 13.640625 7.929688 13.863281 8.546875 13.863281 9.359375 C 13.863281 10.226562 13.621094 10.90625 13.140625 11.402344 C 12.671875 11.898438 12.027344 12.148438 11.222656 12.148438 C 10.695312 12.148438 10.21875 12.015625 9.792969 11.753906 C 9.363281 11.488281 9.023438 11.085938 8.765625 10.542969 C 8.519531 10 8.394531 9.3125 8.394531 8.484375 Z M 11.210938 11.289062 C 11.699219 11.289062 12.09375 11.132812 12.394531 10.824219 C 12.703125 10.503906 12.851562 10.015625 12.851562 9.359375 C 12.851562 8.828125 12.714844 8.410156 12.445312 8.101562 C 12.179688 7.789062 11.78125 7.636719 11.246094 7.636719 C 10.882812 7.636719 10.5625 7.710938 10.292969 7.867188 C 10.019531 8.015625 9.804688 8.203125 9.652344 8.4375 C 9.503906 8.671875 9.429688 8.910156 9.429688 9.160156 C 9.429688 9.492188 9.496094 9.828125 9.628906 10.160156 C 9.761719 10.484375 9.957031 10.757812 10.222656 10.972656 C 10.484375 11.183594 10.816406 11.289062 11.210938 11.289062 Z M 11.210938 11.289062 "/>
</svg>
