<?xml version="1.0" encoding="UTF-8"?>
<svg xmlns="http://www.w3.org/2000/svg" xmlns:xlink="http://www.w3.org/1999/xlink" width="16" height="15.757436" viewBox="0 0 16 15.757436">
<path fill-rule="nonzero" fill="rgb(100%, 100%, 100%)" fill-opacity="1" stroke-width="0.600002" stroke-linecap="butt" stroke-linejoin="miter" stroke="rgb(0%, 0%, 0%)" stroke-opacity="1" stroke-miterlimit="4" d="M 0.301195 0.301195 L 15.93162 0.301195 L 15.93162 15.685908 L 0.301195 15.685908 Z M 0.301195 0.301195 " transform="matrix(0.985658, 0, 0, 0.985658, 0, 0)"/>
<path fill-rule="nonzero" fill="rgb(0%, 0%, 0%)" fill-opacity="1" d="M 11.132812 7.183594 C 11.132812 7.871094 11.070312 8.546875 10.949219 9.210938 C 10.828125 9.871094 10.613281 10.46875 10.292969 11.011719 C 9.984375 11.546875 9.539062 11.972656 8.957031 12.292969 C 8.390625 12.609375 7.65625 12.769531 6.761719 12.769531 C 6.582031 12.769531 6.375 12.761719 6.132812 12.734375 C 5.902344 12.714844 5.710938 12.683594 5.558594 12.640625 L 5.558594 11.640625 C 5.90625 11.753906 6.296875 11.8125 6.734375 11.8125 C 7.355469 11.8125 7.867188 11.707031 8.265625 11.507812 C 8.675781 11.300781 9 11.023438 9.238281 10.675781 C 9.480469 10.324219 9.652344 9.914062 9.761719 9.453125 C 9.867188 8.984375 9.929688 8.484375 9.949219 7.972656 L 9.867188 7.972656 C 9.671875 8.273438 9.386719 8.539062 9.015625 8.761719 C 8.648438 8.972656 8.175781 9.078125 7.601562 9.078125 C 6.78125 9.078125 6.121094 8.828125 5.613281 8.332031 C 5.113281 7.828125 4.867188 7.113281 4.867188 6.199219 C 4.867188 5.53125 4.988281 4.957031 5.238281 4.480469 C 5.496094 4 5.855469 3.628906 6.304688 3.371094 C 6.761719 3.113281 7.292969 2.984375 7.90625 2.984375 C 8.511719 2.984375 9.058594 3.140625 9.546875 3.453125 C 10.035156 3.753906 10.421875 4.214844 10.707031 4.839844 C 10.988281 5.453125 11.132812 6.234375 11.132812 7.183594 Z M 7.90625 3.972656 C 7.355469 3.972656 6.902344 4.152344 6.546875 4.515625 C 6.203125 4.882812 6.027344 5.4375 6.027344 6.183594 C 6.027344 6.796875 6.171875 7.285156 6.464844 7.640625 C 6.765625 7.984375 7.234375 8.160156 7.855469 8.160156 C 8.28125 8.160156 8.648438 8.074219 8.957031 7.90625 C 9.269531 7.730469 9.511719 7.507812 9.679688 7.238281 C 9.859375 6.972656 9.949219 6.699219 9.949219 6.414062 C 9.949219 6.03125 9.871094 5.652344 9.71875 5.277344 C 9.570312 4.90625 9.34375 4.59375 9.042969 4.34375 C 8.734375 4.097656 8.359375 3.972656 7.90625 3.972656 Z M 7.90625 3.972656 "/>
</svg>
