<?xml version="1.0" encoding="UTF-8"?>
<svg xmlns="http://www.w3.org/2000/svg" xmlns:xlink="http://www.w3.org/1999/xlink" width="16" height="15.757436" viewBox="0 0 16 15.757436">
<path fill-rule="nonzero" fill="rgb(100%, 100%, 100%)" fill-opacity="1" stroke-width="0.600002" stroke-linecap="butt" stroke-linejoin="miter" stroke="rgb(0%, 0%, 0%)" stroke-opacity="1" stroke-miterlimit="4" d="M 0.301195 0.301195 L 15.93162 0.301195 L 15.93162 15.685908 L 0.301195 15.685908 Z M 0.301195 0.301195 " transform="matrix(0.985658, 0, 0, 0.985658, 0, 0)"/>
<path fill-rule="nonzero" fill="rgb(0%, 0%, 0%)" fill-opacity="1" d="M 4.46875 11.605469 L 3.582031 11.605469 L 3.582031 6.46875 C 3.582031 6.171875 3.585938 5.9375 3.59375 5.761719 C 3.601562 5.578125 3.609375 5.394531 3.625 5.203125 C 3.515625 5.3125 3.417969 5.40625 3.328125 5.484375 C 3.234375 5.554688 3.125 5.652344 2.984375 5.769531 L 2.203125 6.40625 L 1.734375 5.796875 L 3.714844 4.257812 L 4.46875 4.257812 Z M 4.46875 11.605469 "/>
<path fill-rule="nonzero" fill="rgb(0%, 0%, 0%)" fill-opacity="1" d="M 12.050781 11.605469 L 7.195312 11.605469 L 7.195312 10.855469 L 9.117188 8.90625 C 9.488281 8.539062 9.800781 8.207031 10.054688 7.921875 C 10.308594 7.632812 10.5 7.351562 10.632812 7.078125 C 10.765625 6.796875 10.828125 6.488281 10.828125 6.160156 C 10.828125 5.757812 10.707031 5.453125 10.46875 5.242188 C 10.226562 5.03125 9.917969 4.925781 9.53125 4.925781 C 9.171875 4.925781 8.859375 4.984375 8.582031 5.109375 C 8.316406 5.234375 8.042969 5.40625 7.761719 5.625 L 7.277344 5.015625 C 7.566406 4.777344 7.894531 4.578125 8.265625 4.410156 C 8.640625 4.238281 9.066406 4.152344 9.53125 4.152344 C 10.214844 4.152344 10.761719 4.328125 11.15625 4.675781 C 11.554688 5.019531 11.753906 5.496094 11.753906 6.109375 C 11.753906 6.492188 11.671875 6.855469 11.515625 7.191406 C 11.359375 7.523438 11.140625 7.859375 10.859375 8.1875 C 10.578125 8.511719 10.246094 8.859375 9.871094 9.226562 L 8.335938 10.738281 L 8.335938 10.78125 L 12.050781 10.78125 Z M 12.050781 11.605469 "/>
<path fill-rule="nonzero" fill="rgb(0%, 0%, 0%)" fill-opacity="1" d="M 13.332031 3.058594 C 13.753906 3.058594 14.085938 3.164062 14.335938 3.375 C 14.582031 3.582031 14.707031 3.882812 14.707031 4.265625 C 14.707031 4.6875 14.574219 5.023438 14.300781 5.265625 C 14.035156 5.511719 13.660156 5.628906 13.175781 5.628906 C 12.964844 5.628906 12.765625 5.609375 12.578125 5.574219 C 12.394531 5.535156 12.242188 5.480469 12.113281 5.40625 L 12.113281 4.929688 C 12.253906 5.015625 12.421875 5.078125 12.613281 5.132812 C 12.8125 5.175781 13.003906 5.199219 13.183594 5.199219 C 13.484375 5.199219 13.730469 5.128906 13.914062 4.984375 C 14.101562 4.839844 14.195312 4.617188 14.195312 4.316406 C 14.195312 4.046875 14.109375 3.84375 13.945312 3.703125 C 13.78125 3.554688 13.519531 3.484375 13.167969 3.484375 C 13.058594 3.484375 12.9375 3.492188 12.796875 3.515625 C 12.660156 3.53125 12.546875 3.550781 12.464844 3.570312 L 12.210938 3.410156 L 12.367188 1.476562 L 14.421875 1.476562 L 14.421875 1.933594 L 12.796875 1.933594 L 12.703125 3.121094 C 12.765625 3.109375 12.855469 3.097656 12.964844 3.082031 C 13.078125 3.066406 13.199219 3.058594 13.332031 3.058594 Z M 13.332031 3.058594 "/>
</svg>
