<?xml version="1.0" encoding="UTF-8"?>
<svg xmlns="http://www.w3.org/2000/svg" xmlns:xlink="http://www.w3.org/1999/xlink" width="16" height="15.757436" viewBox="0 0 16 15.757436">
<path fill-rule="nonzero" fill="rgb(100%, 100%, 100%)" fill-opacity="1" stroke-width="0.600002" stroke-linecap="butt" stroke-linejoin="miter" stroke="rgb(0%, 0%, 0%)" stroke-opacity="1" stroke-miterlimit="4" d="M 0.301195 0.301195 L 15.93162 0.301195 L 15.93162 15.685908 L 0.301195 15.685908 Z M 0.301195 0.301195 " transform="matrix(0.985658, 0, 0, 0.985658, 0, 0)"/>
<path fill-rule="nonzero" fill="rgb(0%, 0%, 0%)" fill-opacity="1" d="M 5.242188 12.039062 L 4.242188 12.039062 L 4.242188 6.234375 C 4.242188 5.898438 4.246094 5.632812 4.253906 5.429688 C 4.261719 5.230469 4.273438 5.015625 4.289062 4.800781 C 4.164062 4.925781 4.050781 5.03125 3.953125 5.113281 C 3.851562 5.203125 3.722656 5.308594 3.566406 5.441406 L 2.683594 6.164062 L 2.148438 5.476562 L 4.390625 3.734375 L 5.242188 3.734375 Z M 5.242188 12.039062 "/>
<path fill-rule="nonzero" fill="rgb(0%, 0%, 0%)" fill-opacity="1" d="M 13.851562 7.871094 C 13.851562 8.765625 13.757812 9.53125 13.574219 10.175781 C 13.386719 10.8125 13.089844 11.300781 12.6875 11.640625 C 12.285156 11.984375 11.75 12.152344 11.082031 12.152344 C 10.144531 12.152344 9.453125 11.777344 9 11.023438 C 8.558594 10.265625 8.335938 9.214844 8.335938 7.871094 C 8.335938 6.972656 8.425781 6.203125 8.605469 5.570312 C 8.792969 4.933594 9.085938 4.449219 9.488281 4.113281 C 9.890625 3.773438 10.421875 3.605469 11.082031 3.605469 C 12.015625 3.605469 12.707031 3.980469 13.167969 4.734375 C 13.621094 5.476562 13.851562 6.523438 13.851562 7.871094 Z M 9.359375 7.871094 C 9.359375 9.015625 9.488281 9.863281 9.746094 10.433594 C 10.011719 11 10.453125 11.28125 11.082031 11.28125 C 11.703125 11.28125 12.144531 11.003906 12.410156 10.445312 C 12.679688 9.878906 12.816406 9.019531 12.816406 7.871094 C 12.816406 6.738281 12.679688 5.890625 12.410156 5.328125 C 12.144531 4.761719 11.703125 4.476562 11.082031 4.476562 C 10.453125 4.476562 10.011719 4.761719 9.746094 5.328125 C 9.488281 5.890625 9.359375 6.738281 9.359375 7.871094 Z M 9.359375 7.871094 "/>
</svg>
