<?xml version="1.0" encoding="UTF-8"?>
<svg xmlns="http://www.w3.org/2000/svg" xmlns:xlink="http://www.w3.org/1999/xlink" width="16" height="15.757436" viewBox="0 0 16 15.757436">
<path fill-rule="nonzero" fill="rgb(100%, 100%, 100%)" fill-opacity="1" stroke-width="0.600002" stroke-linecap="butt" stroke-linejoin="miter" stroke="rgb(0%, 0%, 0%)" stroke-opacity="1" stroke-miterlimit="4" d="M 0.301195 0.301195 L 15.93162 0.301195 L 15.93162 15.685908 L 0.301195 15.685908 Z M 0.301195 0.301195 " transform="matrix(0.985658, 0, 0, 0.985658, 0, 0)"/>
<path fill-rule="nonzero" fill="rgb(0%, 0%, 0%)" fill-opacity="1" d="M 9.621094 12.703125 L 3.328125 12.703125 L 3.328125 11.734375 L 5.820312 9.210938 C 6.300781 8.734375 6.703125 8.304688 7.035156 7.929688 C 7.359375 7.558594 7.609375 7.195312 7.78125 6.839844 C 7.949219 6.476562 8.035156 6.078125 8.035156 5.652344 C 8.035156 5.128906 7.878906 4.734375 7.566406 4.464844 C 7.257812 4.191406 6.851562 4.050781 6.355469 4.050781 C 5.890625 4.050781 5.484375 4.132812 5.128906 4.292969 C 4.78125 4.453125 4.421875 4.671875 4.058594 4.957031 L 3.433594 4.171875 C 3.804688 3.859375 4.234375 3.597656 4.714844 3.386719 C 5.203125 3.164062 5.75 3.050781 6.355469 3.050781 C 7.242188 3.050781 7.945312 3.277344 8.460938 3.734375 C 8.976562 4.175781 9.234375 4.796875 9.234375 5.585938 C 9.234375 6.082031 9.132812 6.546875 8.925781 6.984375 C 8.722656 7.421875 8.4375 7.851562 8.074219 8.277344 C 7.707031 8.699219 7.28125 9.144531 6.796875 9.625 L 4.804688 11.585938 L 4.804688 11.640625 L 9.621094 11.640625 Z M 9.621094 12.703125 "/>
<path fill-rule="nonzero" fill="rgb(0%, 0%, 0%)" fill-opacity="1" d="M 11.296875 3.109375 C 11.714844 3.109375 12.050781 3.214844 12.296875 3.425781 C 12.546875 3.640625 12.671875 3.933594 12.671875 4.316406 C 12.671875 4.738281 12.539062 5.078125 12.265625 5.320312 C 11.996094 5.5625 11.621094 5.679688 11.140625 5.679688 C 10.929688 5.679688 10.734375 5.664062 10.546875 5.625 C 10.359375 5.585938 10.203125 5.53125 10.078125 5.457031 L 10.078125 4.984375 C 10.21875 5.066406 10.382812 5.132812 10.578125 5.183594 C 10.777344 5.230469 10.964844 5.25 11.144531 5.25 C 11.449219 5.25 11.691406 5.179688 11.875 5.039062 C 12.0625 4.890625 12.15625 4.671875 12.15625 4.367188 C 12.15625 4.101562 12.074219 3.894531 11.910156 3.753906 C 11.746094 3.609375 11.484375 3.535156 11.128906 3.535156 C 11.019531 3.535156 10.898438 3.546875 10.765625 3.566406 C 10.625 3.582031 10.515625 3.605469 10.429688 3.621094 L 10.175781 3.460938 L 10.332031 1.527344 L 12.386719 1.527344 L 12.386719 1.984375 L 10.765625 1.984375 L 10.664062 3.171875 C 10.730469 3.164062 10.820312 3.148438 10.925781 3.136719 C 11.039062 3.117188 11.164062 3.109375 11.296875 3.109375 Z M 11.296875 3.109375 "/>
</svg>
