<?xml version="1.0" encoding="UTF-8"?>
<svg xmlns="http://www.w3.org/2000/svg" xmlns:xlink="http://www.w3.org/1999/xlink" width="16" height="15.757436" viewBox="0 0 16 15.757436">
<path fill-rule="nonzero" fill="rgb(100%, 100%, 100%)" fill-opacity="1" stroke-width="0.600002" stroke-linecap="butt" stroke-linejoin="miter" stroke="rgb(0%, 0%, 0%)" stroke-opacity="1" stroke-miterlimit="4" d="M 0.301195 0.301195 L 15.93162 0.301195 L 15.93162 15.685908 L 0.301195 15.685908 Z M 0.301195 0.301195 " transform="matrix(0.985658, 0, 0, 0.985658, 0, 0)"/>
<path fill-rule="nonzero" fill="rgb(0%, 0%, 0%)" fill-opacity="1" d="M 11.144531 12.671875 L 4.855469 12.671875 L 4.855469 11.695312 L 7.347656 9.175781 C 7.828125 8.695312 8.234375 8.269531 8.558594 7.894531 C 8.890625 7.519531 9.140625 7.160156 9.304688 6.800781 C 9.476562 6.4375 9.558594 6.042969 9.558594 5.613281 C 9.558594 5.089844 9.402344 4.695312 9.09375 4.429688 C 8.78125 4.152344 8.378906 4.015625 7.878906 4.015625 C 7.417969 4.015625 7.011719 4.097656 6.652344 4.257812 C 6.304688 4.417969 5.953125 4.640625 5.585938 4.921875 L 4.957031 4.136719 C 5.332031 3.828125 5.761719 3.5625 6.238281 3.351562 C 6.730469 3.128906 7.273438 3.015625 7.878906 3.015625 C 8.765625 3.015625 9.472656 3.242188 9.984375 3.695312 C 10.503906 4.140625 10.761719 4.757812 10.761719 5.546875 C 10.761719 6.046875 10.65625 6.515625 10.453125 6.949219 C 10.25 7.386719 9.964844 7.816406 9.601562 8.242188 C 9.234375 8.660156 8.808594 9.109375 8.320312 9.589844 L 6.332031 11.546875 L 6.332031 11.605469 L 11.144531 11.605469 Z M 11.144531 12.671875 "/>
</svg>
