<?xml version="1.0" encoding="UTF-8"?>
<svg xmlns="http://www.w3.org/2000/svg" xmlns:xlink="http://www.w3.org/1999/xlink" width="16" height="15.757436" viewBox="0 0 16 15.757436">
<path fill-rule="nonzero" fill="rgb(100%, 100%, 100%)" fill-opacity="1" stroke-width="0.600002" stroke-linecap="butt" stroke-linejoin="miter" stroke="rgb(0%, 0%, 0%)" stroke-opacity="1" stroke-miterlimit="4" d="M 0.301195 0.301195 L 15.93162 0.301195 L 15.93162 15.685908 L 0.301195 15.685908 Z M 0.301195 0.301195 " transform="matrix(0.985658, 0, 0, 0.985658, 0, 0)"/>
<path fill-rule="nonzero" fill="rgb(0%, 0%, 0%)" fill-opacity="1" d="M 8.015625 12.671875 L 6.863281 12.671875 L 6.863281 5.972656 C 6.863281 5.589844 6.867188 5.277344 6.878906 5.046875 C 6.882812 4.816406 6.894531 4.578125 6.917969 4.324219 C 6.769531 4.464844 6.640625 4.585938 6.527344 4.6875 C 6.410156 4.785156 6.265625 4.910156 6.082031 5.058594 L 5.066406 5.890625 L 4.449219 5.101562 L 7.035156 3.085938 L 8.015625 3.085938 Z M 8.015625 12.671875 "/>
<path fill-rule="nonzero" fill="rgb(0%, 0%, 0%)" fill-opacity="1" d="M 10.175781 3.109375 C 10.597656 3.109375 10.929688 3.214844 11.179688 3.425781 C 11.425781 3.640625 11.550781 3.933594 11.550781 4.316406 C 11.550781 4.738281 11.417969 5.078125 11.144531 5.320312 C 10.878906 5.5625 10.503906 5.679688 10.019531 5.679688 C 9.808594 5.679688 9.609375 5.664062 9.421875 5.625 C 9.238281 5.585938 9.085938 5.53125 8.957031 5.457031 L 8.957031 4.984375 C 9.097656 5.066406 9.265625 5.132812 9.457031 5.183594 C 9.65625 5.230469 9.847656 5.25 10.027344 5.25 C 10.328125 5.25 10.574219 5.179688 10.753906 5.039062 C 10.941406 4.890625 11.035156 4.671875 11.035156 4.367188 C 11.035156 4.101562 10.953125 3.894531 10.789062 3.753906 C 10.625 3.609375 10.363281 3.535156 10.011719 3.535156 C 9.902344 3.535156 9.78125 3.546875 9.640625 3.566406 C 9.503906 3.582031 9.390625 3.605469 9.308594 3.621094 L 9.054688 3.460938 L 9.210938 1.527344 L 11.265625 1.527344 L 11.265625 1.984375 L 9.640625 1.984375 L 9.546875 3.171875 C 9.609375 3.164062 9.699219 3.148438 9.808594 3.136719 C 9.921875 3.117188 10.042969 3.109375 10.175781 3.109375 Z M 10.175781 3.109375 "/>
</svg>
