<?xml version="1.0" encoding="UTF-8"?>
<svg xmlns="http://www.w3.org/2000/svg" xmlns:xlink="http://www.w3.org/1999/xlink" width="16" height="15.757436" viewBox="0 0 16 15.757436">
<path fill-rule="nonzero" fill="rgb(100%, 100%, 100%)" fill-opacity="1" stroke-width="0.600002" stroke-linecap="butt" stroke-linejoin="miter" stroke="rgb(0%, 0%, 0%)" stroke-opacity="1" stroke-miterlimit="4" d="M 0.301195 0.301195 L 15.93162 0.301195 L 15.93162 15.685908 L 0.301195 15.685908 Z M 0.301195 0.301195 " transform="matrix(0.985658, 0, 0, 0.985658, 0, 0)"/>
<path fill-rule="nonzero" fill="rgb(0%, 0%, 0%)" fill-opacity="1" d="M 11.542969 10.507812 L 10.152344 10.507812 L 10.152344 12.667969 L 9.019531 12.667969 L 9.019531 10.507812 L 4.457031 10.507812 L 4.457031 9.507812 L 8.941406 3.09375 L 10.152344 3.09375 L 10.152344 9.453125 L 11.542969 9.453125 Z M 9.019531 6.453125 C 9.019531 5.988281 9.027344 5.597656 9.046875 5.277344 C 9.066406 4.953125 9.078125 4.640625 9.085938 4.34375 L 9.035156 4.34375 C 8.960938 4.515625 8.875 4.699219 8.765625 4.890625 C 8.660156 5.085938 8.558594 5.253906 8.457031 5.386719 L 5.609375 9.453125 L 9.019531 9.453125 Z M 9.019531 6.453125 "/>
</svg>
