<?xml version="1.0" encoding="UTF-8"?>
<svg xmlns="http://www.w3.org/2000/svg" xmlns:xlink="http://www.w3.org/1999/xlink" width="16" height="15.757436" viewBox="0 0 16 15.757436">
<path fill-rule="nonzero" fill="rgb(100%, 100%, 100%)" fill-opacity="1" stroke-width="0.600002" stroke-linecap="butt" stroke-linejoin="miter" stroke="rgb(0%, 0%, 0%)" stroke-opacity="1" stroke-miterlimit="4" d="M 0.301195 0.301195 L 15.93162 0.301195 L 15.93162 15.685908 L 0.301195 15.685908 Z M 0.301195 0.301195 " transform="matrix(0.985658, 0, 0, 0.985658, 0, 0)"/>
<path fill-rule="nonzero" fill="rgb(0%, 0%, 0%)" fill-opacity="1" d="M 7.992188 2.984375 C 8.828125 2.984375 9.515625 3.179688 10.046875 3.574219 C 10.578125 3.960938 10.847656 4.527344 10.847656 5.265625 C 10.847656 5.648438 10.765625 5.984375 10.59375 6.265625 C 10.433594 6.546875 10.214844 6.800781 9.941406 7.023438 C 9.664062 7.238281 9.359375 7.429688 9.035156 7.597656 C 9.421875 7.785156 9.78125 8 10.101562 8.238281 C 10.421875 8.46875 10.671875 8.738281 10.859375 9.050781 C 11.054688 9.363281 11.152344 9.734375 11.152344 10.171875 C 11.152344 10.972656 10.867188 11.609375 10.296875 12.078125 C 9.738281 12.542969 8.984375 12.769531 8.035156 12.769531 C 7.011719 12.769531 6.226562 12.546875 5.671875 12.105469 C 5.121094 11.652344 4.847656 11.019531 4.847656 10.210938 C 4.847656 9.777344 4.933594 9.398438 5.113281 9.078125 C 5.296875 8.761719 5.546875 8.484375 5.847656 8.253906 C 6.148438 8.019531 6.472656 7.828125 6.820312 7.667969 C 6.359375 7.398438 5.960938 7.078125 5.632812 6.703125 C 5.3125 6.324219 5.152344 5.839844 5.152344 5.253906 C 5.152344 4.765625 5.277344 4.355469 5.527344 4.023438 C 5.773438 3.6875 6.113281 3.429688 6.542969 3.253906 C 6.964844 3.074219 7.453125 2.984375 7.992188 2.984375 Z M 7.980469 3.929688 C 7.488281 3.929688 7.085938 4.050781 6.765625 4.292969 C 6.453125 4.523438 6.296875 4.859375 6.296875 5.304688 C 6.296875 5.636719 6.375 5.910156 6.527344 6.132812 C 6.6875 6.355469 6.898438 6.546875 7.167969 6.703125 C 7.433594 6.859375 7.726562 7.003906 8.046875 7.144531 C 8.511719 6.953125 8.894531 6.714844 9.207031 6.4375 C 9.527344 6.164062 9.6875 5.785156 9.6875 5.304688 C 9.6875 4.859375 9.53125 4.523438 9.21875 4.292969 C 8.910156 4.050781 8.496094 3.929688 7.980469 3.929688 Z M 5.992188 10.226562 C 5.992188 10.6875 6.15625 11.074219 6.484375 11.386719 C 6.816406 11.6875 7.324219 11.839844 8.007812 11.839844 C 8.65625 11.839844 9.148438 11.6875 9.484375 11.386719 C 9.832031 11.074219 10.007812 10.671875 10.007812 10.183594 C 10.007812 9.722656 9.824219 9.339844 9.457031 9.039062 C 9.097656 8.730469 8.609375 8.453125 8.007812 8.226562 L 7.792969 8.144531 C 7.207031 8.394531 6.757812 8.683594 6.449219 9.011719 C 6.144531 9.332031 5.992188 9.734375 5.992188 10.226562 Z M 5.992188 10.226562 "/>
</svg>
