<?xml version="1.0" encoding="UTF-8"?>
<svg xmlns="http://www.w3.org/2000/svg" xmlns:xlink="http://www.w3.org/1999/xlink" width="16" height="15.757436" viewBox="0 0 16 15.757436">
<path fill-rule="nonzero" fill="rgb(100%, 100%, 100%)" fill-opacity="1" stroke-width="0.600002" stroke-linecap="butt" stroke-linejoin="miter" stroke="rgb(0%, 0%, 0%)" stroke-opacity="1" stroke-miterlimit="4" d="M 0.301195 0.301195 L 15.93162 0.301195 L 15.93162 15.685908 L 0.301195 15.685908 Z M 0.301195 0.301195 " transform="matrix(0.985658, 0, 0, 0.985658, 0, 0)"/>
<path fill-rule="nonzero" fill="rgb(0%, 0%, 0%)" fill-opacity="1" d="M 6.21875 12.03125 L 5.21875 12.03125 L 5.21875 6.226562 C 5.21875 5.890625 5.222656 5.625 5.234375 5.421875 C 5.238281 5.222656 5.25 5.015625 5.265625 4.796875 C 5.140625 4.921875 5.03125 5.023438 4.925781 5.109375 C 4.828125 5.195312 4.703125 5.300781 4.546875 5.433594 L 3.660156 6.15625 L 3.125 5.472656 L 5.371094 3.726562 L 6.21875 3.726562 Z M 6.21875 12.03125 "/>
<path fill-rule="nonzero" fill="rgb(0%, 0%, 0%)" fill-opacity="1" d="M 12.875 12.03125 L 11.875 12.03125 L 11.875 6.226562 C 11.875 5.890625 11.878906 5.625 11.886719 5.421875 C 11.890625 5.222656 11.90625 5.015625 11.921875 4.796875 C 11.796875 4.921875 11.683594 5.023438 11.582031 5.109375 C 11.484375 5.195312 11.355469 5.300781 11.199219 5.433594 L 10.316406 6.15625 L 9.78125 5.472656 L 12.023438 3.726562 L 12.875 3.726562 Z M 12.875 12.03125 "/>
</svg>
