<?xml version="1.0" encoding="UTF-8"?>
<svg xmlns="http://www.w3.org/2000/svg" xmlns:xlink="http://www.w3.org/1999/xlink" width="16" height="15.757436" viewBox="0 0 16 15.757436">
<path fill-rule="nonzero" fill="rgb(100%, 100%, 100%)" fill-opacity="1" stroke-width="0.600002" stroke-linecap="butt" stroke-linejoin="miter" stroke="rgb(0%, 0%, 0%)" stroke-opacity="1" stroke-miterlimit="4" d="M 0.301195 0.301195 L 15.93162 0.301195 L 15.93162 15.685908 L 0.301195 15.685908 Z M 0.301195 0.301195 " transform="matrix(0.985658, 0, 0, 0.985658, 0, 0)"/>
<path fill-rule="nonzero" fill="rgb(0%, 0%, 0%)" fill-opacity="1" d="M 5.289062 12.03125 L 4.289062 12.03125 L 4.289062 6.226562 C 4.289062 5.890625 4.292969 5.625 4.300781 5.421875 C 4.308594 5.222656 4.320312 5.015625 4.335938 4.796875 C 4.210938 4.921875 4.097656 5.023438 3.996094 5.109375 C 3.894531 5.195312 3.769531 5.300781 3.613281 5.433594 L 2.730469 6.15625 L 2.195312 5.472656 L 4.441406 3.726562 L 5.289062 3.726562 Z M 5.289062 12.03125 "/>
<path fill-rule="nonzero" fill="rgb(0%, 0%, 0%)" fill-opacity="1" d="M 13.546875 5.667969 C 13.546875 6.226562 13.394531 6.671875 13.082031 7.007812 C 12.773438 7.332031 12.355469 7.546875 11.828125 7.65625 L 11.828125 7.703125 C 12.492188 7.78125 12.988281 7.988281 13.316406 8.332031 C 13.640625 8.671875 13.804688 9.117188 13.804688 9.671875 C 13.804688 10.152344 13.695312 10.578125 13.46875 10.960938 C 13.242188 11.332031 12.890625 11.625 12.421875 11.832031 C 11.953125 12.046875 11.355469 12.148438 10.617188 12.148438 C 10.183594 12.148438 9.78125 12.113281 9.40625 12.046875 C 9.035156 11.984375 8.675781 11.863281 8.335938 11.695312 L 8.335938 10.738281 C 8.6875 10.910156 9.0625 11.046875 9.464844 11.148438 C 9.867188 11.238281 10.257812 11.289062 10.628906 11.289062 C 11.375 11.289062 11.910156 11.140625 12.234375 10.859375 C 12.570312 10.5625 12.734375 10.160156 12.734375 9.644531 C 12.734375 9.128906 12.527344 8.753906 12.117188 8.53125 C 11.714844 8.296875 11.144531 8.179688 10.410156 8.179688 L 9.605469 8.179688 L 9.605469 7.308594 L 10.421875 7.308594 C 11.101562 7.308594 11.617188 7.167969 11.96875 6.878906 C 12.324219 6.589844 12.503906 6.210938 12.503906 5.738281 C 12.503906 5.332031 12.367188 5.023438 12.09375 4.808594 C 11.824219 4.582031 11.453125 4.46875 10.988281 4.46875 C 10.542969 4.46875 10.15625 4.535156 9.835938 4.667969 C 9.519531 4.796875 9.203125 4.964844 8.894531 5.167969 L 8.386719 4.46875 C 8.675781 4.234375 9.042969 4.035156 9.480469 3.863281 C 9.921875 3.695312 10.421875 3.609375 10.980469 3.609375 C 11.847656 3.609375 12.488281 3.800781 12.910156 4.191406 C 13.335938 4.578125 13.546875 5.070312 13.546875 5.667969 Z M 13.546875 5.667969 "/>
</svg>
