<?xml version="1.0" encoding="UTF-8"?>
<svg xmlns="http://www.w3.org/2000/svg" xmlns:xlink="http://www.w3.org/1999/xlink" width="16" height="15.757436" viewBox="0 0 16 15.757436">
<path fill-rule="nonzero" fill="rgb(100%, 100%, 100%)" fill-opacity="1" stroke-width="0.600002" stroke-linecap="butt" stroke-linejoin="miter" stroke="rgb(0%, 0%, 0%)" stroke-opacity="1" stroke-miterlimit="4" d="M 0.301195 0.301195 L 15.93162 0.301195 L 15.93162 15.685908 L 0.301195 15.685908 Z M 0.301195 0.301195 " transform="matrix(0.985658, 0, 0, 0.985658, 0, 0)"/>
<path fill-rule="nonzero" fill="rgb(0%, 0%, 0%)" fill-opacity="1" d="M 5.261719 12.089844 L 4.261719 12.089844 L 4.261719 6.285156 C 4.261719 5.953125 4.265625 5.683594 4.269531 5.484375 C 4.277344 5.28125 4.292969 5.070312 4.304688 4.855469 C 4.179688 4.980469 4.070312 5.082031 3.96875 5.167969 C 3.867188 5.253906 3.738281 5.359375 3.582031 5.492188 L 2.703125 6.214844 L 2.167969 5.527344 L 4.410156 3.785156 L 5.261719 3.785156 Z M 5.261719 12.089844 "/>
<path fill-rule="nonzero" fill="rgb(0%, 0%, 0%)" fill-opacity="1" d="M 13.832031 12.089844 L 8.34375 12.089844 L 8.34375 11.238281 L 10.515625 9.042969 C 10.9375 8.625 11.292969 8.25 11.578125 7.921875 C 11.863281 7.601562 12.078125 7.28125 12.230469 6.972656 C 12.375 6.652344 12.453125 6.308594 12.453125 5.9375 C 12.453125 5.480469 12.3125 5.132812 12.042969 4.898438 C 11.769531 4.660156 11.417969 4.539062 10.984375 4.539062 C 10.578125 4.539062 10.226562 4.609375 9.914062 4.75 C 9.609375 4.890625 9.300781 5.082031 8.984375 5.328125 L 8.4375 4.644531 C 8.761719 4.371094 9.136719 4.144531 9.550781 3.957031 C 9.980469 3.765625 10.457031 3.667969 10.984375 3.667969 C 11.761719 3.667969 12.371094 3.863281 12.824219 4.261719 C 13.269531 4.648438 13.496094 5.1875 13.496094 5.878906 C 13.496094 6.3125 13.40625 6.71875 13.230469 7.101562 C 13.050781 7.480469 12.800781 7.855469 12.484375 8.230469 C 12.167969 8.59375 11.796875 8.984375 11.367188 9.402344 L 9.636719 11.113281 L 9.636719 11.160156 L 13.832031 11.160156 Z M 13.832031 12.089844 "/>
</svg>
