<?xml version="1.0" encoding="UTF-8"?>
<svg xmlns="http://www.w3.org/2000/svg" xmlns:xlink="http://www.w3.org/1999/xlink" width="16" height="15.757436" viewBox="0 0 16 15.757436">
<path fill-rule="nonzero" fill="rgb(100%, 100%, 100%)" fill-opacity="1" stroke-width="0.600002" stroke-linecap="butt" stroke-linejoin="miter" stroke="rgb(0%, 0%, 0%)" stroke-opacity="1" stroke-miterlimit="4" d="M 0.301195 0.301195 L 15.93162 0.301195 L 15.93162 15.685908 L 0.301195 15.685908 Z M 0.301195 0.301195 " transform="matrix(0.985658, 0, 0, 0.985658, 0, 0)"/>
<path fill-rule="nonzero" fill="rgb(0%, 0%, 0%)" fill-opacity="1" d="M 7.8125 6.734375 C 8.792969 6.734375 9.570312 6.976562 10.144531 7.464844 C 10.726562 7.953125 11.015625 8.640625 11.015625 9.53125 C 11.015625 10.515625 10.699219 11.296875 10.066406 11.863281 C 9.445312 12.425781 8.574219 12.703125 7.453125 12.703125 C 6.964844 12.703125 6.503906 12.660156 6.066406 12.574219 C 5.640625 12.484375 5.28125 12.355469 4.984375 12.183594 L 4.984375 11.078125 C 5.304688 11.273438 5.695312 11.429688 6.144531 11.546875 C 6.609375 11.652344 7.046875 11.703125 7.464844 11.703125 C 8.171875 11.703125 8.734375 11.542969 9.160156 11.210938 C 9.597656 10.875 9.8125 10.355469 9.8125 9.652344 C 9.8125 9.03125 9.621094 8.554688 9.238281 8.226562 C 8.859375 7.890625 8.253906 7.71875 7.425781 7.71875 C 7.175781 7.71875 6.890625 7.738281 6.574219 7.785156 C 6.253906 7.828125 5.996094 7.875 5.796875 7.921875 L 5.210938 7.546875 L 5.574219 3.050781 L 10.347656 3.050781 L 10.347656 4.117188 L 6.574219 4.117188 L 6.347656 6.878906 C 6.496094 6.851562 6.703125 6.820312 6.957031 6.785156 C 7.21875 6.75 7.503906 6.734375 7.8125 6.734375 Z M 7.8125 6.734375 "/>
</svg>
