<?xml version="1.0" encoding="UTF-8"?>
<svg xmlns="http://www.w3.org/2000/svg" xmlns:xlink="http://www.w3.org/1999/xlink" width="18" height="15.403672" viewBox="0 0 18 15.403672">
<path fill-rule="nonzero" fill="rgb(43.921569%, 74.901961%, 28.235294%)" fill-opacity="1" stroke-width="0.7" stroke-linecap="round" stroke-linejoin="round" stroke="rgb(0%, 0%, 0%)" stroke-opacity="1" stroke-miterlimit="4" d="M 17.661318 15.157953 C 10.906956 15.134336 5.762463 15.138272 0.350314 15.169761 C 2.979634 10.576323 6.376495 4.947688 9.005816 0.350313 C 11.698114 4.95556 17.787274 15.157953 17.787274 15.157953 Z M 17.661318 15.157953 " transform="matrix(0.992414, 0, 0, 0.992414, 0, 0.00000047322)"/>
<path fill-rule="nonzero" fill="rgb(0%, 0%, 0%)" fill-opacity="1" d="M 7.226562 13.316406 L 6.617188 13.316406 L 6.617188 9.59375 C 6.617188 9.378906 6.617188 9.207031 6.621094 9.078125 C 6.632812 8.945312 6.636719 8.816406 6.644531 8.675781 C 6.570312 8.753906 6.503906 8.824219 6.441406 8.875 C 6.382812 8.929688 6.300781 9 6.210938 9.085938 L 5.671875 9.550781 L 5.347656 9.109375 L 6.710938 7.988281 L 7.226562 7.988281 Z M 7.226562 13.316406 "/>
<path fill-rule="nonzero" fill="rgb(0%, 0%, 0%)" fill-opacity="1" d="M 12.652344 12.105469 L 11.917969 12.105469 L 11.917969 13.316406 L 11.320312 13.316406 L 11.320312 12.105469 L 8.902344 12.105469 L 8.902344 11.546875 L 11.277344 7.957031 L 11.917969 7.957031 L 11.917969 11.519531 L 12.652344 11.519531 Z M 11.320312 9.839844 C 11.320312 9.578125 11.324219 9.359375 11.332031 9.183594 C 11.34375 9 11.351562 8.824219 11.355469 8.660156 L 11.324219 8.660156 C 11.289062 8.753906 11.242188 8.855469 11.183594 8.964844 C 11.125 9.074219 11.074219 9.167969 11.023438 9.242188 L 9.507812 11.519531 L 11.320312 11.519531 Z M 11.320312 9.839844 "/>
</svg>
