<?xml version="1.0" encoding="UTF-8"?>
<svg xmlns="http://www.w3.org/2000/svg" xmlns:xlink="http://www.w3.org/1999/xlink" width="18" height="15.403672" viewBox="0 0 18 15.403672">
<path fill-rule="nonzero" fill="rgb(43.921569%, 74.901961%, 28.235294%)" fill-opacity="1" stroke-width="0.7" stroke-linecap="round" stroke-linejoin="round" stroke="rgb(0%, 0%, 0%)" stroke-opacity="1" stroke-miterlimit="4" d="M 17.661318 15.157953 C 10.906956 15.134336 5.762463 15.138272 0.350314 15.169761 C 2.979634 10.576323 6.376495 4.947688 9.005816 0.350313 C 11.698114 4.95556 17.787274 15.157953 17.787274 15.157953 Z M 17.661318 15.157953 " transform="matrix(0.992414, 0, 0, 0.992414, 0, 0.00000047322)"/>
<path fill-rule="nonzero" fill="rgb(0%, 0%, 0%)" fill-opacity="1" d="M 7.324219 13.316406 L 6.71875 13.316406 L 6.71875 9.59375 C 6.71875 9.378906 6.722656 9.207031 6.726562 9.078125 C 6.734375 8.945312 6.738281 8.816406 6.75 8.675781 C 6.671875 8.753906 6.605469 8.824219 6.542969 8.875 C 6.480469 8.929688 6.402344 9 6.3125 9.085938 L 5.773438 9.550781 L 5.449219 9.109375 L 6.8125 7.988281 L 7.324219 7.988281 Z M 7.324219 13.316406 "/>
<path fill-rule="nonzero" fill="rgb(0%, 0%, 0%)" fill-opacity="1" d="M 12.550781 10.644531 C 12.550781 11.214844 12.492188 11.707031 12.378906 12.121094 C 12.269531 12.527344 12.089844 12.839844 11.84375 13.0625 C 11.601562 13.28125 11.277344 13.390625 10.871094 13.390625 C 10.300781 13.390625 9.878906 13.148438 9.605469 12.664062 C 9.339844 12.175781 9.207031 11.503906 9.207031 10.644531 C 9.207031 10.066406 9.257812 9.574219 9.367188 9.167969 C 9.480469 8.757812 9.660156 8.449219 9.90625 8.234375 C 10.148438 8.015625 10.472656 7.90625 10.871094 7.90625 C 11.433594 7.90625 11.855469 8.148438 12.132812 8.632812 C 12.410156 9.109375 12.550781 9.777344 12.550781 10.644531 Z M 9.828125 10.644531 C 9.828125 11.378906 9.90625 11.921875 10.058594 12.289062 C 10.21875 12.648438 10.488281 12.832031 10.871094 12.832031 C 11.246094 12.832031 11.515625 12.652344 11.675781 12.292969 C 11.839844 11.929688 11.921875 11.382812 11.921875 10.644531 C 11.921875 9.917969 11.839844 9.375 11.675781 9.011719 C 11.515625 8.648438 11.246094 8.46875 10.871094 8.46875 C 10.488281 8.46875 10.21875 8.648438 10.058594 9.011719 C 9.90625 9.375 9.828125 9.917969 9.828125 10.644531 Z M 9.828125 10.644531 "/>
</svg>
