<?xml version="1.0" encoding="UTF-8"?>
<svg xmlns="http://www.w3.org/2000/svg" xmlns:xlink="http://www.w3.org/1999/xlink" width="18" height="15.403672" viewBox="0 0 18 15.403672">
<path fill-rule="nonzero" fill="rgb(43.921569%, 74.901961%, 28.235294%)" fill-opacity="1" stroke-width="0.7" stroke-linecap="round" stroke-linejoin="round" stroke="rgb(0%, 0%, 0%)" stroke-opacity="1" stroke-miterlimit="4" d="M 17.657383 15.157954 C 10.906957 15.134337 5.762463 15.138273 0.350314 15.169762 C 2.979634 10.576323 6.376496 4.947688 9.005817 0.350313 C 11.698115 4.95556 17.787275 15.157954 17.787275 15.157954 Z M 17.657383 15.157954 " transform="matrix(0.992414, 0, 0, 0.992414, 0, 0.00000047322)"/>
<path fill-rule="nonzero" fill="rgb(0%, 0%, 0%)" fill-opacity="1" d="M 7.472656 13.820312 L 6.296875 13.816406 L 6.308594 10.605469 C 6.308594 10.46875 6.3125 10.292969 6.316406 10.074219 C 6.328125 9.859375 6.339844 9.667969 6.34375 9.5 C 6.316406 9.53125 6.261719 9.589844 6.171875 9.671875 C 6.089844 9.75 6.011719 9.816406 5.9375 9.878906 L 5.296875 10.390625 L 4.734375 9.679688 L 6.527344 8.265625 L 7.492188 8.269531 Z M 7.472656 13.820312 "/>
<path fill-rule="nonzero" fill="rgb(0%, 0%, 0%)" fill-opacity="1" d="M 12.699219 9.53125 C 12.695312 9.914062 12.578125 10.21875 12.34375 10.445312 C 12.117188 10.675781 11.832031 10.828125 11.496094 10.910156 L 11.496094 10.933594 C 11.941406 10.988281 12.277344 11.125 12.503906 11.34375 C 12.738281 11.558594 12.851562 11.855469 12.851562 12.222656 C 12.851562 12.542969 12.769531 12.832031 12.605469 13.09375 C 12.449219 13.34375 12.207031 13.546875 11.875 13.695312 C 11.546875 13.839844 11.125 13.910156 10.605469 13.910156 C 10.003906 13.90625 9.46875 13.804688 9.003906 13.601562 L 9.007812 12.605469 C 9.246094 12.726562 9.496094 12.816406 9.753906 12.878906 C 10.019531 12.941406 10.261719 12.976562 10.484375 12.976562 C 10.90625 12.976562 11.199219 12.90625 11.363281 12.761719 C 11.535156 12.617188 11.621094 12.410156 11.621094 12.148438 C 11.625 11.992188 11.585938 11.863281 11.507812 11.757812 C 11.429688 11.648438 11.292969 11.570312 11.097656 11.515625 C 10.90625 11.457031 10.636719 11.429688 10.289062 11.425781 L 9.867188 11.425781 L 9.871094 10.523438 L 10.296875 10.523438 C 10.640625 10.527344 10.898438 10.496094 11.078125 10.433594 C 11.257812 10.367188 11.378906 10.28125 11.441406 10.171875 C 11.511719 10.058594 11.546875 9.929688 11.546875 9.78125 C 11.546875 9.585938 11.484375 9.433594 11.359375 9.324219 C 11.242188 9.210938 11.039062 9.152344 10.753906 9.148438 C 10.488281 9.148438 10.257812 9.195312 10.0625 9.289062 C 9.871094 9.375 9.707031 9.464844 9.570312 9.550781 L 9.03125 8.738281 C 9.246094 8.585938 9.503906 8.457031 9.792969 8.355469 C 10.089844 8.25 10.4375 8.199219 10.84375 8.203125 C 11.414062 8.203125 11.863281 8.320312 12.195312 8.554688 C 12.53125 8.785156 12.699219 9.109375 12.699219 9.53125 Z M 12.699219 9.53125 "/>
</svg>
