<?xml version="1.0" encoding="UTF-8"?>
<svg xmlns="http://www.w3.org/2000/svg" xmlns:xlink="http://www.w3.org/1999/xlink" width="18" height="15.403672" viewBox="0 0 18 15.403672">
<path fill-rule="nonzero" fill="rgb(43.921569%, 74.901961%, 28.235294%)" fill-opacity="1" stroke-width="0.7" stroke-linecap="round" stroke-linejoin="round" stroke="rgb(0%, 0%, 0%)" stroke-opacity="1" stroke-miterlimit="4" d="M 17.661318 15.157953 C 10.906956 15.134336 5.762463 15.138272 0.350314 15.169761 C 2.979634 10.576323 6.376495 4.947688 9.005816 0.350313 C 11.698114 4.95556 17.787274 15.157953 17.787274 15.157953 Z M 17.661318 15.157953 " transform="matrix(0.992414, 0, 0, 0.992414, 0, 0.00000047322)"/>
<path fill-rule="nonzero" fill="rgb(0%, 0%, 0%)" fill-opacity="1" d="M 8.996094 6.148438 C 9.585938 6.148438 10.066406 6.296875 10.445312 6.585938 C 10.824219 6.882812 11.011719 7.300781 11.011719 7.851562 C 11.011719 8.140625 10.953125 8.382812 10.832031 8.601562 C 10.71875 8.8125 10.5625 9 10.371094 9.167969 C 10.179688 9.324219 9.960938 9.46875 9.730469 9.59375 C 10.007812 9.734375 10.257812 9.890625 10.484375 10.070312 C 10.710938 10.242188 10.890625 10.449219 11.023438 10.679688 C 11.164062 10.910156 11.226562 11.191406 11.226562 11.519531 C 11.226562 12.117188 11.027344 12.589844 10.625 12.941406 C 10.230469 13.285156 9.695312 13.460938 9.023438 13.460938 C 8.300781 13.460938 7.742188 13.292969 7.355469 12.960938 C 6.964844 12.621094 6.773438 12.152344 6.773438 11.546875 C 6.773438 11.222656 6.832031 10.9375 6.960938 10.699219 C 7.09375 10.464844 7.265625 10.257812 7.480469 10.082031 C 7.691406 9.910156 7.917969 9.765625 8.164062 9.644531 C 7.839844 9.445312 7.558594 9.207031 7.324219 8.929688 C 7.101562 8.644531 6.988281 8.28125 6.988281 7.84375 C 6.988281 7.476562 7.074219 7.171875 7.25 6.925781 C 7.425781 6.675781 7.667969 6.480469 7.96875 6.351562 C 8.269531 6.214844 8.613281 6.148438 8.996094 6.148438 Z M 8.988281 6.855469 C 8.640625 6.855469 8.355469 6.949219 8.128906 7.125 C 7.910156 7.300781 7.800781 7.550781 7.800781 7.882812 C 7.800781 8.128906 7.851562 8.332031 7.957031 8.5 C 8.074219 8.664062 8.222656 8.804688 8.410156 8.929688 C 8.601562 9.039062 8.804688 9.148438 9.035156 9.253906 C 9.359375 9.109375 9.632812 8.933594 9.851562 8.726562 C 10.082031 8.519531 10.191406 8.238281 10.191406 7.882812 C 10.191406 7.550781 10.082031 7.300781 9.859375 7.125 C 9.640625 6.949219 9.351562 6.855469 8.988281 6.855469 Z M 7.582031 11.558594 C 7.582031 11.898438 7.699219 12.191406 7.933594 12.421875 C 8.160156 12.648438 8.519531 12.761719 9.003906 12.761719 C 9.460938 12.761719 9.8125 12.648438 10.050781 12.421875 C 10.296875 12.191406 10.417969 11.890625 10.417969 11.527344 C 10.417969 11.183594 10.289062 10.898438 10.03125 10.671875 C 9.773438 10.4375 9.429688 10.234375 9.003906 10.0625 L 8.855469 10 C 8.4375 10.191406 8.121094 10.40625 7.902344 10.652344 C 7.691406 10.890625 7.582031 11.191406 7.582031 11.558594 Z M 7.582031 11.558594 "/>
</svg>
