<?xml version="1.0" encoding="UTF-8"?>
<svg xmlns="http://www.w3.org/2000/svg" xmlns:xlink="http://www.w3.org/1999/xlink" width="18" height="15.403672" viewBox="0 0 18 15.403672">
<path fill-rule="nonzero" fill="rgb(43.921569%, 74.901961%, 28.235294%)" fill-opacity="1" stroke-width="0.7" stroke-linecap="round" stroke-linejoin="round" stroke="rgb(0%, 0%, 0%)" stroke-opacity="1" stroke-miterlimit="4" d="M 17.661318 15.157953 C 10.906956 15.134336 5.762463 15.138272 0.350314 15.169761 C 2.979634 10.576323 6.376495 4.947688 9.005816 0.350313 C 11.698114 4.95556 17.787274 15.157953 17.787274 15.157953 Z M 17.661318 15.157953 " transform="matrix(0.992414, 0, 0, 0.992414, 0, 0.00000047322)"/>
<path fill-rule="nonzero" fill="rgb(0%, 0%, 0%)" fill-opacity="1" d="M 11.214844 9.285156 C 11.214844 9.800781 11.171875 10.300781 11.082031 10.800781 C 11 11.289062 10.84375 11.738281 10.621094 12.148438 C 10.402344 12.542969 10.085938 12.863281 9.675781 13.101562 C 9.277344 13.34375 8.757812 13.460938 8.125 13.460938 C 8 13.460938 7.847656 13.445312 7.679688 13.429688 C 7.519531 13.417969 7.382812 13.394531 7.273438 13.359375 L 7.273438 12.613281 C 7.519531 12.699219 7.796875 12.742188 8.101562 12.742188 C 8.542969 12.742188 8.90625 12.664062 9.1875 12.511719 C 9.480469 12.363281 9.707031 12.15625 9.875 11.894531 C 10.046875 11.628906 10.167969 11.324219 10.242188 10.976562 C 10.320312 10.625 10.363281 10.261719 10.375 9.875 L 10.320312 9.875 C 10.183594 10.097656 9.980469 10.296875 9.714844 10.464844 C 9.457031 10.621094 9.128906 10.699219 8.71875 10.699219 C 8.140625 10.699219 7.671875 10.515625 7.3125 10.140625 C 6.960938 9.765625 6.785156 9.234375 6.785156 8.546875 C 6.785156 8.050781 6.875 7.625 7.046875 7.265625 C 7.230469 6.90625 7.484375 6.632812 7.804688 6.4375 C 8.125 6.246094 8.5 6.148438 8.933594 6.148438 C 9.359375 6.148438 9.746094 6.265625 10.09375 6.5 C 10.4375 6.722656 10.714844 7.070312 10.910156 7.53125 C 11.113281 7.992188 11.214844 8.578125 11.214844 9.285156 Z M 8.933594 6.886719 C 8.542969 6.886719 8.222656 7.023438 7.972656 7.296875 C 7.726562 7.566406 7.605469 7.980469 7.605469 8.539062 C 7.605469 8.996094 7.707031 9.359375 7.914062 9.625 C 8.128906 9.882812 8.453125 10.015625 8.894531 10.015625 C 9.199219 10.015625 9.457031 9.949219 9.675781 9.828125 C 9.898438 9.691406 10.066406 9.527344 10.1875 9.324219 C 10.3125 9.128906 10.375 8.921875 10.375 8.710938 C 10.375 8.425781 10.324219 8.144531 10.21875 7.863281 C 10.109375 7.585938 9.949219 7.351562 9.734375 7.164062 C 9.523438 6.976562 9.253906 6.886719 8.933594 6.886719 Z M 8.933594 6.886719 "/>
</svg>
