<?xml version="1.0" encoding="UTF-8"?>
<svg xmlns="http://www.w3.org/2000/svg" xmlns:xlink="http://www.w3.org/1999/xlink" width="18" height="15.403672" viewBox="0 0 18 15.403672">
<path fill-rule="nonzero" fill="rgb(43.921569%, 74.901961%, 28.235294%)" fill-opacity="1" stroke-width="0.7" stroke-linecap="round" stroke-linejoin="round" stroke="rgb(0%, 0%, 0%)" stroke-opacity="1" stroke-miterlimit="4" d="M 17.661318 15.157953 C 10.906956 15.134336 5.762463 15.138272 0.350314 15.169761 C 2.979634 10.576323 6.376495 4.947688 9.005816 0.350313 C 11.698114 4.95556 17.787274 15.157953 17.787274 15.157953 Z M 17.661318 15.157953 " transform="matrix(0.992414, 0, 0, 0.992414, 0, 0.00000047322)"/>
<path fill-rule="nonzero" fill="rgb(0%, 0%, 0%)" fill-opacity="1" d="M 6.109375 13.4375 L 5.625 13.4375 L 5.625 10.453125 C 5.625 10.289062 5.625 10.148438 5.628906 10.046875 C 5.632812 9.941406 5.636719 9.835938 5.648438 9.71875 C 5.585938 9.785156 5.53125 9.839844 5.480469 9.882812 C 5.429688 9.925781 5.371094 9.984375 5.296875 10.050781 L 4.863281 10.417969 L 4.605469 10.066406 L 5.695312 9.171875 L 6.109375 9.171875 Z M 6.109375 13.4375 "/>
<path fill-rule="nonzero" fill="rgb(0%, 0%, 0%)" fill-opacity="1" d="M 10.273438 13.4375 L 7.605469 13.4375 L 7.605469 13.003906 L 8.664062 11.875 C 8.867188 11.660156 9.039062 11.464844 9.179688 11.296875 C 9.320312 11.132812 9.425781 10.96875 9.496094 10.8125 C 9.566406 10.648438 9.601562 10.46875 9.601562 10.277344 C 9.601562 10.042969 9.535156 9.867188 9.40625 9.746094 C 9.273438 9.625 9.101562 9.5625 8.890625 9.5625 C 8.695312 9.5625 8.519531 9.597656 8.371094 9.667969 C 8.222656 9.738281 8.074219 9.839844 7.917969 9.96875 L 7.652344 9.617188 C 7.808594 9.476562 7.992188 9.355469 8.195312 9.265625 C 8.402344 9.164062 8.636719 9.113281 8.890625 9.113281 C 9.269531 9.113281 9.566406 9.214844 9.785156 9.417969 C 10 9.617188 10.113281 9.890625 10.113281 10.25 C 10.113281 10.472656 10.066406 10.679688 9.984375 10.875 C 9.898438 11.070312 9.773438 11.261719 9.621094 11.457031 C 9.464844 11.640625 9.285156 11.84375 9.078125 12.058594 L 8.234375 12.9375 L 8.234375 12.960938 L 10.273438 12.960938 Z M 10.273438 13.4375 "/>
<path fill-rule="nonzero" fill="rgb(0%, 0%, 0%)" fill-opacity="1" d="M 11.46875 8.929688 C 11.78125 8.929688 12.027344 9.007812 12.207031 9.171875 C 12.386719 9.339844 12.480469 9.566406 12.480469 9.859375 C 12.480469 10.191406 12.382812 10.449219 12.179688 10.640625 C 11.988281 10.828125 11.710938 10.921875 11.359375 10.921875 C 11.207031 10.921875 11.054688 10.90625 10.921875 10.875 C 10.785156 10.84375 10.675781 10.800781 10.578125 10.746094 L 10.578125 10.378906 C 10.679688 10.441406 10.800781 10.492188 10.945312 10.535156 C 11.09375 10.570312 11.234375 10.585938 11.363281 10.585938 C 11.585938 10.585938 11.765625 10.535156 11.894531 10.421875 C 12.03125 10.308594 12.101562 10.136719 12.101562 9.902344 C 12.101562 9.695312 12.039062 9.535156 11.921875 9.425781 C 11.800781 9.3125 11.609375 9.257812 11.351562 9.257812 C 11.273438 9.257812 11.179688 9.265625 11.078125 9.28125 C 10.976562 9.292969 10.898438 9.308594 10.835938 9.324219 L 10.652344 9.199219 L 10.765625 7.703125 L 12.269531 7.703125 L 12.269531 8.058594 L 11.078125 8.058594 L 11.007812 8.976562 C 11.054688 8.96875 11.121094 8.960938 11.203125 8.945312 C 11.285156 8.933594 11.375 8.929688 11.46875 8.929688 Z M 11.46875 8.929688 "/>
</svg>
