<?xml version="1.0" encoding="UTF-8"?>
<svg xmlns="http://www.w3.org/2000/svg" xmlns:xlink="http://www.w3.org/1999/xlink" width="18" height="15.403672" viewBox="0 0 18 15.403672">
<path fill-rule="nonzero" fill="rgb(43.921569%, 74.901961%, 28.235294%)" fill-opacity="1" stroke-width="0.7" stroke-linecap="round" stroke-linejoin="round" stroke="rgb(0%, 0%, 0%)" stroke-opacity="1" stroke-miterlimit="4" d="M 17.661318 15.157953 C 10.906956 15.134336 5.762463 15.138272 0.350314 15.169761 C 2.979634 10.576323 6.376495 4.947688 9.005816 0.350313 C 11.698114 4.95556 17.787274 15.157953 17.787274 15.157953 Z M 17.661318 15.157953 " transform="matrix(0.992414, 0, 0, 0.992414, 0, 0.00000047322)"/>
<path fill-rule="nonzero" fill="rgb(0%, 0%, 0%)" fill-opacity="1" d="M 7.320312 13.316406 L 6.714844 13.316406 L 6.714844 9.59375 C 6.714844 9.378906 6.714844 9.207031 6.71875 9.078125 C 6.722656 8.945312 6.734375 8.816406 6.742188 8.675781 C 6.667969 8.753906 6.597656 8.824219 6.535156 8.875 C 6.472656 8.929688 6.398438 9 6.300781 9.085938 L 5.765625 9.550781 L 5.441406 9.109375 L 6.804688 7.988281 L 7.320312 7.988281 Z M 7.320312 13.316406 "/>
<path fill-rule="nonzero" fill="rgb(0%, 0%, 0%)" fill-opacity="1" d="M 9.242188 11.039062 C 9.242188 10.65625 9.273438 10.28125 9.335938 9.914062 C 9.394531 9.539062 9.515625 9.207031 9.675781 8.90625 C 9.847656 8.605469 10.082031 8.363281 10.382812 8.183594 C 10.683594 8.003906 11.074219 7.914062 11.546875 7.914062 C 11.644531 7.914062 11.753906 7.917969 11.875 7.929688 C 11.996094 7.941406 12.09375 7.957031 12.167969 7.980469 L 12.167969 8.542969 C 12.085938 8.511719 11.988281 8.492188 11.878906 8.472656 C 11.777344 8.460938 11.671875 8.449219 11.5625 8.449219 C 11.238281 8.449219 10.96875 8.507812 10.75 8.621094 C 10.535156 8.734375 10.363281 8.894531 10.234375 9.09375 C 10.113281 9.292969 10.023438 9.523438 9.96875 9.777344 C 9.910156 10.039062 9.875 10.3125 9.859375 10.609375 L 9.90625 10.609375 C 10.011719 10.433594 10.164062 10.289062 10.351562 10.167969 C 10.546875 10.042969 10.796875 9.980469 11.097656 9.980469 C 11.535156 9.980469 11.886719 10.121094 12.15625 10.40625 C 12.421875 10.683594 12.558594 11.082031 12.558594 11.601562 C 12.558594 12.15625 12.410156 12.59375 12.121094 12.910156 C 11.835938 13.230469 11.445312 13.390625 10.957031 13.390625 C 10.632812 13.390625 10.34375 13.304688 10.085938 13.136719 C 9.828125 12.96875 9.621094 12.710938 9.464844 12.363281 C 9.316406 12.011719 9.242188 11.570312 9.242188 11.039062 Z M 10.945312 12.835938 C 11.246094 12.835938 11.484375 12.738281 11.667969 12.539062 C 11.851562 12.335938 11.945312 12.023438 11.945312 11.601562 C 11.945312 11.261719 11.859375 10.992188 11.699219 10.792969 C 11.535156 10.59375 11.292969 10.492188 10.96875 10.492188 C 10.75 10.492188 10.554688 10.546875 10.390625 10.644531 C 10.226562 10.742188 10.097656 10.863281 10 11.007812 C 9.914062 11.15625 9.871094 11.3125 9.871094 11.472656 C 9.871094 11.683594 9.910156 11.898438 9.988281 12.117188 C 10.066406 12.320312 10.1875 12.5 10.347656 12.632812 C 10.507812 12.769531 10.710938 12.835938 10.945312 12.835938 Z M 10.945312 12.835938 "/>
</svg>
