<?xml version="1.0" encoding="UTF-8"?>
<svg xmlns="http://www.w3.org/2000/svg" xmlns:xlink="http://www.w3.org/1999/xlink" width="18" height="15.403672" viewBox="0 0 18 15.403672">
<path fill-rule="nonzero" fill="rgb(43.921569%, 74.901961%, 28.235294%)" fill-opacity="1" stroke-width="0.7" stroke-linecap="round" stroke-linejoin="round" stroke="rgb(0%, 0%, 0%)" stroke-opacity="1" stroke-miterlimit="4" d="M 17.661318 15.157953 C 10.906956 15.134336 5.762463 15.138272 0.350314 15.169761 C 2.979634 10.576323 6.376495 4.947688 9.005816 0.350313 C 11.698114 4.95556 17.787274 15.157953 17.787274 15.157953 Z M 17.661318 15.157953 " transform="matrix(0.992414, 0, 0, 0.992414, 0, 0.00000047322)"/>
<path fill-rule="nonzero" fill="rgb(0%, 0%, 0%)" fill-opacity="1" d="M 7.339844 13.316406 L 6.734375 13.316406 L 6.734375 9.59375 C 6.734375 9.378906 6.734375 9.207031 6.738281 9.078125 C 6.742188 8.945312 6.75 8.816406 6.757812 8.675781 C 6.683594 8.753906 6.613281 8.824219 6.550781 8.875 C 6.492188 8.929688 6.414062 9 6.320312 9.085938 L 5.78125 9.550781 L 5.457031 9.109375 L 6.820312 7.988281 L 7.339844 7.988281 Z M 7.339844 13.316406 "/>
<path fill-rule="nonzero" fill="rgb(0%, 0%, 0%)" fill-opacity="1" d="M 12.542969 13.316406 L 9.207031 13.316406 L 9.207031 12.769531 L 10.53125 11.359375 C 10.785156 11.09375 10.996094 10.855469 11.171875 10.644531 C 11.347656 10.4375 11.476562 10.230469 11.566406 10.03125 C 11.65625 9.832031 11.699219 9.605469 11.699219 9.367188 C 11.699219 9.074219 11.617188 8.855469 11.453125 8.707031 C 11.289062 8.550781 11.074219 8.472656 10.8125 8.472656 C 10.5625 8.472656 10.347656 8.519531 10.160156 8.609375 C 9.976562 8.695312 9.789062 8.824219 9.597656 8.984375 L 9.265625 8.542969 C 9.460938 8.367188 9.691406 8.222656 9.941406 8.097656 C 10.199219 7.976562 10.488281 7.914062 10.8125 7.914062 C 11.28125 7.914062 11.65625 8.042969 11.925781 8.296875 C 12.199219 8.542969 12.335938 8.890625 12.335938 9.335938 C 12.335938 9.609375 12.28125 9.871094 12.171875 10.117188 C 12.0625 10.359375 11.914062 10.601562 11.71875 10.835938 C 11.527344 11.074219 11.304688 11.324219 11.042969 11.59375 L 9.992188 12.6875 L 9.992188 12.71875 L 12.542969 12.71875 Z M 12.542969 13.316406 "/>
</svg>
