<?xml version="1.0" encoding="UTF-8"?>
<svg xmlns="http://www.w3.org/2000/svg" xmlns:xlink="http://www.w3.org/1999/xlink" width="18" height="15.403672" viewBox="0 0 18 15.403672">
<path fill-rule="nonzero" fill="rgb(43.921569%, 74.901961%, 28.235294%)" fill-opacity="1" stroke-width="0.7" stroke-linecap="round" stroke-linejoin="round" stroke="rgb(0%, 0%, 0%)" stroke-opacity="1" stroke-miterlimit="4" d="M 17.661318 15.157953 C 10.906956 15.134336 5.762463 15.138272 0.350314 15.169761 C 2.979634 10.576323 6.376495 4.947688 9.005816 0.350313 C 11.698114 4.95556 17.787274 15.157953 17.787274 15.157953 Z M 17.661318 15.157953 " transform="matrix(0.992414, 0, 0, 0.992414, 0, 0.00000047322)"/>
<path fill-rule="nonzero" fill="rgb(0%, 0%, 0%)" fill-opacity="1" d="M 11.007812 7.910156 C 11.007812 8.390625 10.882812 8.773438 10.628906 9.058594 C 10.378906 9.339844 10.042969 9.523438 9.609375 9.617188 L 9.609375 9.65625 C 10.152344 9.71875 10.554688 9.902344 10.820312 10.191406 C 11.082031 10.484375 11.214844 10.867188 11.214844 11.335938 C 11.214844 11.75 11.121094 12.121094 10.941406 12.445312 C 10.757812 12.761719 10.476562 13.011719 10.09375 13.191406 C 9.714844 13.367188 9.226562 13.460938 8.632812 13.460938 C 8.28125 13.460938 7.953125 13.429688 7.652344 13.367188 C 7.351562 13.316406 7.0625 13.21875 6.785156 13.070312 L 6.785156 12.25 C 7.066406 12.402344 7.375 12.515625 7.699219 12.601562 C 8.023438 12.683594 8.339844 12.722656 8.640625 12.722656 C 9.246094 12.722656 9.675781 12.597656 9.941406 12.351562 C 10.210938 12.101562 10.347656 11.753906 10.347656 11.316406 C 10.347656 10.871094 10.183594 10.554688 9.847656 10.363281 C 9.523438 10.164062 9.0625 10.0625 8.464844 10.0625 L 7.8125 10.0625 L 7.8125 9.316406 L 8.472656 9.316406 C 9.027344 9.316406 9.445312 9.195312 9.726562 8.945312 C 10.015625 8.703125 10.160156 8.375 10.160156 7.972656 C 10.160156 7.625 10.050781 7.359375 9.832031 7.175781 C 9.609375 6.984375 9.3125 6.886719 8.933594 6.886719 C 8.570312 6.886719 8.257812 6.945312 8.003906 7.058594 C 7.742188 7.167969 7.488281 7.3125 7.238281 7.484375 L 6.824219 6.886719 C 7.0625 6.6875 7.355469 6.511719 7.707031 6.367188 C 8.070312 6.222656 8.472656 6.148438 8.925781 6.148438 C 9.628906 6.148438 10.152344 6.316406 10.488281 6.648438 C 10.835938 6.976562 11.007812 7.398438 11.007812 7.910156 Z M 11.007812 7.910156 "/>
</svg>
