<?xml version="1.0" encoding="UTF-8"?>
<svg xmlns="http://www.w3.org/2000/svg" xmlns:xlink="http://www.w3.org/1999/xlink" width="18" height="15.403672" viewBox="0 0 18 15.403672">
<path fill-rule="nonzero" fill="rgb(43.921569%, 74.901961%, 28.235294%)" fill-opacity="1" stroke-width="0.7" stroke-linecap="round" stroke-linejoin="round" stroke="rgb(0%, 0%, 0%)" stroke-opacity="1" stroke-miterlimit="4" d="M 17.661318 15.157953 C 10.906956 15.134336 5.762463 15.138272 0.350314 15.169761 C 2.979634 10.576323 6.376495 4.947688 9.005816 0.350313 C 11.698114 4.95556 17.787274 15.157953 17.787274 15.157953 Z M 17.661318 15.157953 " transform="matrix(0.992414, 0, 0, 0.992414, 0, 0.00000047322)"/>
<path fill-rule="nonzero" fill="rgb(0%, 0%, 0%)" fill-opacity="1" d="M 7.917969 13.316406 L 7.3125 13.316406 L 7.3125 9.59375 C 7.3125 9.378906 7.316406 9.207031 7.320312 9.078125 C 7.324219 8.945312 7.328125 8.816406 7.339844 8.675781 C 7.265625 8.753906 7.199219 8.824219 7.136719 8.875 C 7.074219 8.929688 6.996094 9 6.902344 9.085938 L 6.367188 9.550781 L 6.042969 9.109375 L 7.40625 7.988281 L 7.917969 7.988281 Z M 7.917969 13.316406 "/>
<path fill-rule="nonzero" fill="rgb(0%, 0%, 0%)" fill-opacity="1" d="M 11.957031 13.316406 L 11.351562 13.316406 L 11.351562 9.59375 C 11.351562 9.378906 11.351562 9.207031 11.359375 9.078125 C 11.363281 8.945312 11.367188 8.816406 11.378906 8.675781 C 11.304688 8.753906 11.238281 8.824219 11.175781 8.875 C 11.113281 8.929688 11.035156 9 10.941406 9.085938 L 10.40625 9.550781 L 10.082031 9.109375 L 11.445312 7.988281 L 11.957031 7.988281 Z M 11.957031 13.316406 "/>
</svg>
