<?xml version="1.0" encoding="UTF-8"?>
<svg xmlns="http://www.w3.org/2000/svg" xmlns:xlink="http://www.w3.org/1999/xlink" width="18" height="15.403672" viewBox="0 0 18 15.403672">
<path fill-rule="nonzero" fill="rgb(43.921569%, 74.901961%, 28.235294%)" fill-opacity="1" stroke-width="0.7" stroke-linecap="round" stroke-linejoin="round" stroke="rgb(0%, 0%, 0%)" stroke-opacity="1" stroke-miterlimit="4" d="M 17.661318 15.157953 C 10.906956 15.134336 5.762463 15.138272 0.350314 15.169761 C 2.979634 10.576323 6.376495 4.947688 9.005816 0.350313 C 11.698114 4.95556 17.787274 15.157953 17.787274 15.157953 Z M 17.661318 15.157953 " transform="matrix(0.992414, 0, 0, 0.992414, 0, 0.00000047322)"/>
<path fill-rule="nonzero" fill="rgb(0%, 0%, 0%)" fill-opacity="1" d="M 7.355469 13.316406 L 6.75 13.316406 L 6.75 9.59375 C 6.75 9.378906 6.75 9.207031 6.753906 9.078125 C 6.757812 8.945312 6.765625 8.816406 6.777344 8.675781 C 6.703125 8.753906 6.632812 8.824219 6.570312 8.875 C 6.507812 8.929688 6.433594 9 6.335938 9.085938 L 5.800781 9.550781 L 5.476562 9.109375 L 6.835938 7.988281 L 7.355469 7.988281 Z M 7.355469 13.316406 "/>
<path fill-rule="nonzero" fill="rgb(0%, 0%, 0%)" fill-opacity="1" d="M 12.367188 9.234375 C 12.367188 9.59375 12.273438 9.878906 12.085938 10.09375 C 11.894531 10.300781 11.640625 10.441406 11.324219 10.511719 L 11.324219 10.542969 C 11.730469 10.589844 12.027344 10.722656 12.226562 10.941406 C 12.421875 11.164062 12.523438 11.449219 12.523438 11.800781 C 12.523438 12.109375 12.453125 12.382812 12.316406 12.628906 C 12.179688 12.867188 11.96875 13.054688 11.679688 13.1875 C 11.398438 13.324219 11.035156 13.390625 10.585938 13.390625 C 10.324219 13.390625 10.082031 13.367188 9.851562 13.324219 C 9.628906 13.285156 9.414062 13.210938 9.207031 13.101562 L 9.207031 12.488281 C 9.417969 12.59375 9.644531 12.683594 9.886719 12.75 C 10.132812 12.808594 10.371094 12.835938 10.59375 12.835938 C 11.046875 12.835938 11.375 12.742188 11.570312 12.5625 C 11.773438 12.375 11.875 12.117188 11.875 11.785156 C 11.875 11.453125 11.746094 11.214844 11.5 11.070312 C 11.253906 10.921875 10.90625 10.84375 10.464844 10.84375 L 9.976562 10.84375 L 9.976562 10.289062 L 10.46875 10.289062 C 10.882812 10.289062 11.195312 10.195312 11.40625 10.011719 C 11.625 9.828125 11.734375 9.585938 11.734375 9.28125 C 11.734375 9.023438 11.648438 8.824219 11.484375 8.683594 C 11.320312 8.539062 11.097656 8.46875 10.816406 8.46875 C 10.542969 8.46875 10.308594 8.507812 10.117188 8.59375 C 9.921875 8.679688 9.734375 8.785156 9.546875 8.917969 L 9.234375 8.46875 C 9.414062 8.320312 9.632812 8.1875 9.898438 8.078125 C 10.164062 7.972656 10.46875 7.914062 10.804688 7.914062 C 11.332031 7.914062 11.726562 8.039062 11.980469 8.289062 C 12.238281 8.539062 12.367188 8.851562 12.367188 9.234375 Z M 12.367188 9.234375 "/>
</svg>
