<?xml version="1.0" encoding="UTF-8"?>
<svg xmlns="http://www.w3.org/2000/svg" xmlns:xlink="http://www.w3.org/1999/xlink" width="18" height="15.403672" viewBox="0 0 18 15.403672">
<path fill-rule="nonzero" fill="rgb(43.921569%, 74.901961%, 28.235294%)" fill-opacity="1" stroke-width="0.7" stroke-linecap="round" stroke-linejoin="round" stroke="rgb(0%, 0%, 0%)" stroke-opacity="1" stroke-miterlimit="4" d="M 17.661318 15.157953 C 10.906956 15.134336 5.762463 15.138272 0.350314 15.169761 C 2.979634 10.576323 6.376495 4.947688 9.005816 0.350313 C 11.698114 4.95556 17.787274 15.157953 17.787274 15.157953 Z M 17.661318 15.157953 " transform="matrix(0.992414, 0, 0, 0.992414, 0, 0.00000047322)"/>
<path fill-rule="nonzero" fill="rgb(0%, 0%, 0%)" fill-opacity="1" d="M 11.5 11.746094 L 10.519531 11.746094 L 10.519531 13.359375 L 9.71875 13.359375 L 9.71875 11.746094 L 6.5 11.746094 L 6.5 11 L 9.664062 6.210938 L 10.519531 6.210938 L 10.519531 10.960938 L 11.5 10.960938 Z M 9.71875 8.71875 C 9.71875 8.371094 9.730469 8.082031 9.738281 7.84375 C 9.75 7.597656 9.761719 7.367188 9.769531 7.144531 L 9.730469 7.144531 C 9.679688 7.273438 9.617188 7.410156 9.539062 7.554688 C 9.464844 7.699219 9.394531 7.820312 9.324219 7.921875 L 7.308594 10.960938 L 9.71875 10.960938 Z M 9.71875 8.71875 "/>
</svg>
