<?xml version="1.0" encoding="UTF-8"?>
<svg xmlns="http://www.w3.org/2000/svg" xmlns:xlink="http://www.w3.org/1999/xlink" width="18" height="15.433679" viewBox="0 0 18 15.433679">
<path fill-rule="nonzero" fill="rgb(43.921569%, 74.901961%, 28.235294%)" fill-opacity="1" stroke-width="0.7" stroke-linecap="round" stroke-linejoin="round" stroke="rgb(0%, 0%, 0%)" stroke-opacity="1" stroke-miterlimit="4" d="M 17.661178 15.126345 C 10.90687 15.126345 5.762417 15.149961 0.350311 15.20113 C 2.963866 10.59592 6.34102 4.955521 8.954576 0.350311 C 11.662597 4.947649 17.787133 15.126345 17.787133 15.126345 Z M 17.661178 15.126345 " transform="matrix(0.992422, 0, 0, 0.992422, 0, 0)"/>
<path fill-rule="nonzero" fill="rgb(0%, 0%, 0%)" fill-opacity="1" d="M 8.007812 10.953125 C 8.007812 10.601562 8.082031 10.296875 8.230469 10.054688 C 8.378906 9.8125 8.636719 9.5625 9 9.296875 C 9.320312 9.070312 9.546875 8.875 9.6875 8.710938 C 9.828125 8.539062 9.898438 8.339844 9.898438 8.113281 C 9.898438 7.882812 9.8125 7.710938 9.640625 7.597656 C 9.476562 7.476562 9.246094 7.417969 8.945312 7.417969 C 8.648438 7.417969 8.351562 7.464844 8.058594 7.554688 C 7.769531 7.648438 7.46875 7.773438 7.160156 7.929688 L 6.597656 6.785156 C 6.945312 6.59375 7.324219 6.4375 7.726562 6.316406 C 8.132812 6.195312 8.578125 6.132812 9.0625 6.132812 C 9.804688 6.132812 10.378906 6.3125 10.785156 6.667969 C 11.195312 7.023438 11.402344 7.476562 11.402344 8.027344 C 11.402344 8.3125 11.359375 8.570312 11.265625 8.785156 C 11.171875 9 11.035156 9.199219 10.84375 9.382812 C 10.664062 9.5625 10.433594 9.757812 10.152344 9.960938 C 9.949219 10.109375 9.789062 10.238281 9.671875 10.34375 C 9.558594 10.453125 9.480469 10.554688 9.4375 10.65625 C 9.40625 10.753906 9.382812 10.882812 9.382812 11.027344 L 9.382812 11.335938 L 8.007812 11.335938 Z M 7.835938 13.125 C 7.835938 12.796875 7.929688 12.570312 8.101562 12.4375 C 8.28125 12.304688 8.496094 12.234375 8.753906 12.234375 C 9.003906 12.234375 9.21875 12.304688 9.394531 12.4375 C 9.574219 12.570312 9.664062 12.796875 9.664062 13.125 C 9.664062 13.4375 9.574219 13.664062 9.394531 13.808594 C 9.21875 13.9375 9.003906 14.007812 8.753906 14.007812 C 8.496094 14.007812 8.28125 13.9375 8.101562 13.808594 C 7.929688 13.664062 7.835938 13.4375 7.835938 13.125 Z M 7.835938 13.125 "/>
</svg>
