<?xml version="1.0" encoding="UTF-8"?>
<svg xmlns="http://www.w3.org/2000/svg" xmlns:xlink="http://www.w3.org/1999/xlink" width="18" height="15.403672" viewBox="0 0 18 15.403672">
<path fill-rule="nonzero" fill="rgb(43.921569%, 74.901961%, 28.235294%)" fill-opacity="1" stroke-width="0.7" stroke-linecap="round" stroke-linejoin="round" stroke="rgb(0%, 0%, 0%)" stroke-opacity="1" stroke-miterlimit="4" d="M 17.661318 15.157953 C 10.906956 15.134336 5.762463 15.138272 0.350314 15.169761 C 2.979634 10.576323 6.376495 4.947688 9.005816 0.350313 C 11.698114 4.95556 17.787274 15.157953 17.787274 15.157953 Z M 17.661318 15.157953 " transform="matrix(0.992414, 0, 0, 0.992414, 0, 0.00000047322)"/>
<path fill-rule="nonzero" fill="rgb(0%, 0%, 0%)" fill-opacity="1" d="M 8.867188 8.996094 C 9.558594 8.996094 10.109375 9.179688 10.515625 9.546875 C 10.925781 9.910156 11.132812 10.421875 11.132812 11.085938 C 11.132812 11.824219 10.90625 12.40625 10.460938 12.832031 C 10.019531 13.25 9.40625 13.460938 8.613281 13.460938 C 8.265625 13.460938 7.941406 13.425781 7.632812 13.359375 C 7.328125 13.292969 7.074219 13.195312 6.867188 13.070312 L 6.867188 12.242188 C 7.097656 12.386719 7.371094 12.507812 7.691406 12.59375 C 8.015625 12.671875 8.328125 12.714844 8.621094 12.714844 C 9.117188 12.714844 9.519531 12.589844 9.820312 12.34375 C 10.128906 12.089844 10.28125 11.703125 10.28125 11.179688 C 10.28125 10.714844 10.148438 10.359375 9.875 10.113281 C 9.605469 9.859375 9.179688 9.734375 8.59375 9.734375 C 8.421875 9.734375 8.21875 9.75 7.992188 9.78125 C 7.765625 9.816406 7.585938 9.851562 7.445312 9.882812 L 7.03125 9.605469 L 7.285156 6.25 L 10.65625 6.25 L 10.65625 7.042969 L 7.992188 7.042969 L 7.832031 9.105469 C 7.9375 9.085938 8.082031 9.066406 8.265625 9.039062 C 8.445312 9.007812 8.648438 8.996094 8.867188 8.996094 Z M 8.867188 8.996094 "/>
</svg>
