<?xml version="1.0" encoding="UTF-8"?>
<svg xmlns="http://www.w3.org/2000/svg" xmlns:xlink="http://www.w3.org/1999/xlink" width="18" height="15.403672" viewBox="0 0 18 15.403672">
<path fill-rule="nonzero" fill="rgb(43.921569%, 74.901961%, 28.235294%)" fill-opacity="1" stroke-width="0.7" stroke-linecap="round" stroke-linejoin="round" stroke="rgb(0%, 0%, 0%)" stroke-opacity="1" stroke-miterlimit="4" d="M 17.661318 15.157953 C 10.906956 15.134336 5.762463 15.138272 0.350314 15.169761 C 2.979634 10.576323 6.376495 4.947688 9.005816 0.350313 C 11.698114 4.95556 17.787274 15.157953 17.787274 15.157953 Z M 17.661318 15.157953 " transform="matrix(0.992414, 0, 0, 0.992414, 0, 0.00000047322)"/>
<path fill-rule="nonzero" fill="rgb(0%, 0%, 0%)" fill-opacity="1" d="M 6.785156 10.324219 C 6.785156 9.8125 6.824219 9.308594 6.90625 8.820312 C 6.996094 8.320312 7.148438 7.871094 7.371094 7.476562 C 7.59375 7.070312 7.910156 6.746094 8.308594 6.507812 C 8.714844 6.269531 9.234375 6.148438 9.867188 6.148438 C 9.996094 6.148438 10.140625 6.15625 10.300781 6.171875 C 10.464844 6.183594 10.59375 6.203125 10.695312 6.242188 L 10.695312 6.988281 C 10.582031 6.949219 10.453125 6.917969 10.308594 6.894531 C 10.171875 6.878906 10.03125 6.863281 9.886719 6.863281 C 9.453125 6.863281 9.09375 6.945312 8.800781 7.097656 C 8.511719 7.246094 8.285156 7.457031 8.113281 7.722656 C 7.949219 7.988281 7.832031 8.292969 7.757812 8.640625 C 7.679688 8.984375 7.632812 9.351562 7.617188 9.742188 L 7.671875 9.742188 C 7.8125 9.515625 8.015625 9.316406 8.273438 9.15625 C 8.53125 8.992188 8.863281 8.90625 9.265625 8.90625 C 9.847656 8.90625 10.320312 9.097656 10.679688 9.476562 C 11.035156 9.847656 11.214844 10.378906 11.214844 11.070312 C 11.214844 11.8125 11.023438 12.398438 10.628906 12.824219 C 10.25 13.246094 9.730469 13.460938 9.074219 13.460938 C 8.648438 13.460938 8.261719 13.347656 7.914062 13.121094 C 7.570312 12.894531 7.296875 12.550781 7.089844 12.085938 C 6.886719 11.617188 6.785156 11.035156 6.785156 10.324219 Z M 9.066406 12.722656 C 9.460938 12.722656 9.78125 12.589844 10.027344 12.320312 C 10.273438 12.050781 10.394531 11.632812 10.394531 11.070312 C 10.394531 10.617188 10.28125 10.261719 10.0625 9.992188 C 9.851562 9.730469 9.527344 9.59375 9.09375 9.59375 C 8.796875 9.59375 8.542969 9.664062 8.324219 9.796875 C 8.101562 9.917969 7.929688 10.082031 7.804688 10.28125 C 7.679688 10.480469 7.625 10.6875 7.625 10.898438 C 7.625 11.183594 7.675781 11.46875 7.78125 11.753906 C 7.890625 12.035156 8.050781 12.269531 8.265625 12.453125 C 8.476562 12.632812 8.746094 12.722656 9.066406 12.722656 Z M 9.066406 12.722656 "/>
</svg>
