<?xml version="1.0" encoding="UTF-8"?>
<svg xmlns="http://www.w3.org/2000/svg" xmlns:xlink="http://www.w3.org/1999/xlink" width="16" height="15.75026" viewBox="0 0 16 15.75026">
<path fill="none" stroke-width="0.608829" stroke-linecap="butt" stroke-linejoin="miter" stroke="rgb(0%, 0%, 0%)" stroke-opacity="1" stroke-miterlimit="4" d="M 0.307573 0.307573 L 26.497125 0.307573 L 26.497125 26.084846 L 0.307573 26.084846 Z M 0.307573 0.307573 " transform="matrix(0.59691, 0, 0, 0.59691, 0, 0)"/>
<path fill-rule="nonzero" fill="rgb(100%, 100%, 100%)" fill-opacity="1" d="M 0.183594 0.183594 L 15.816406 0.183594 L 15.816406 15.570312 L 0.183594 15.570312 Z M 0.183594 0.183594 "/>
<path fill="none" stroke-width="1.86303" stroke-linecap="butt" stroke-linejoin="miter" stroke="rgb(0%, 0%, 0%)" stroke-opacity="1" stroke-miterlimit="4" d="M 21.994774 13.192938 C 21.994774 17.95051 18.140289 21.811538 13.376173 21.811538 C 8.618601 21.811538 4.757572 17.95051 4.757572 13.192938 C 4.757572 8.435365 8.618601 4.574337 13.376173 4.574337 C 18.140289 4.574337 21.994774 8.435365 21.994774 13.192938 Z M 21.994774 13.192938 " transform="matrix(0.59691, 0, 0, 0.59691, 0, 0)"/>
<path fill-rule="nonzero" fill="rgb(96.078431%, 77.647059%, 0%)" fill-opacity="1" d="M 13.128906 7.875 C 13.128906 10.714844 10.828125 13.019531 7.984375 13.019531 C 5.144531 13.019531 2.839844 10.714844 2.839844 7.875 C 2.839844 5.035156 5.144531 2.730469 7.984375 2.730469 C 10.828125 2.730469 13.128906 5.035156 13.128906 7.875 Z M 13.128906 7.875 "/>
<path fill="none" stroke-width="1" stroke-linecap="butt" stroke-linejoin="miter" stroke="rgb(0%, 0%, 0%)" stroke-opacity="1" stroke-miterlimit="4" d="M 5.569043 5.339999 L 21.183303 21.0197 " transform="matrix(0.59691, 0, 0, 0.59691, 0, 0)"/>
<path fill="none" stroke-width="1" stroke-linecap="butt" stroke-linejoin="miter" stroke="rgb(0%, 0%, 0%)" stroke-opacity="1" stroke-miterlimit="4" d="M 21.183303 5.339999 L 5.569043 21.0197 " transform="matrix(0.59691, 0, 0, 0.59691, 0, 0)"/>
</svg>
