<?xml version="1.0" encoding="UTF-8"?>
<svg xmlns="http://www.w3.org/2000/svg" xmlns:xlink="http://www.w3.org/1999/xlink" width="16" height="16" viewBox="0 0 16 16">
<path fill="none" stroke-width="0.75" stroke-linecap="butt" stroke-linejoin="miter" stroke="rgb(0%, 0%, 0%)" stroke-opacity="1" stroke-miterlimit="4" d="M 9.596215 4.985553 C 9.596215 7.531885 7.531885 9.596215 4.985553 9.596215 C 2.439221 9.596215 0.37489 7.531885 0.37489 4.985553 C 0.37489 2.439221 2.439221 0.37489 4.985553 0.37489 C 7.531885 0.37489 9.596215 2.439221 9.596215 4.985553 Z M 9.596215 4.985553 " transform="matrix(1.604637, 0, 0, 1.604637, 0, 0)"/>
<path fill-rule="nonzero" fill="rgb(100%, 100%, 100%)" fill-opacity="1" d="M 15.398438 8 C 15.398438 12.085938 12.085938 15.398438 8 15.398438 C 3.914062 15.398438 0.601562 12.085938 0.601562 8 C 0.601562 3.914062 3.914062 0.601562 8 0.601562 C 12.085938 0.601562 15.398438 3.914062 15.398438 8 Z M 15.398438 8 "/>
<path fill-rule="nonzero" fill="rgb(0%, 0%, 0%)" fill-opacity="1" d="M 2.390625 8.429688 C 2.390625 8.003906 2.425781 7.589844 2.496094 7.183594 C 2.574219 6.769531 2.707031 6.398438 2.902344 6.070312 C 3.097656 5.734375 3.375 5.464844 3.726562 5.269531 C 4.078125 5.070312 4.53125 4.972656 5.085938 4.972656 C 5.203125 4.972656 5.328125 4.976562 5.46875 4.988281 C 5.609375 5 5.726562 5.019531 5.8125 5.046875 L 5.8125 5.664062 C 5.714844 5.632812 5.601562 5.605469 5.476562 5.589844 C 5.355469 5.574219 5.230469 5.566406 5.105469 5.566406 C 4.726562 5.566406 4.410156 5.628906 4.15625 5.753906 C 3.902344 5.882812 3.699219 6.054688 3.550781 6.273438 C 3.410156 6.496094 3.304688 6.75 3.238281 7.035156 C 3.171875 7.320312 3.132812 7.625 3.113281 7.949219 L 3.164062 7.949219 C 3.292969 7.757812 3.46875 7.59375 3.691406 7.464844 C 3.917969 7.324219 4.207031 7.257812 4.558594 7.257812 C 5.070312 7.257812 5.484375 7.414062 5.796875 7.726562 C 6.109375 8.035156 6.269531 8.476562 6.269531 9.046875 C 6.269531 9.664062 6.097656 10.148438 5.757812 10.5 C 5.421875 10.851562 4.964844 11.027344 4.394531 11.027344 C 4.019531 11.027344 3.683594 10.9375 3.378906 10.75 C 3.078125 10.5625 2.835938 10.273438 2.652344 9.890625 C 2.476562 9.503906 2.390625 9.019531 2.390625 8.429688 Z M 4.386719 10.417969 C 4.734375 10.417969 5.011719 10.308594 5.226562 10.089844 C 5.441406 9.863281 5.550781 9.515625 5.550781 9.046875 C 5.550781 8.675781 5.453125 8.375 5.261719 8.15625 C 5.074219 7.9375 4.789062 7.828125 4.410156 7.828125 C 4.152344 7.828125 3.925781 7.882812 3.734375 7.992188 C 3.542969 8.097656 3.390625 8.230469 3.28125 8.394531 C 3.175781 8.5625 3.125 8.730469 3.125 8.90625 C 3.125 9.144531 3.171875 9.382812 3.265625 9.617188 C 3.355469 9.847656 3.496094 10.042969 3.683594 10.195312 C 3.871094 10.34375 4.105469 10.417969 4.386719 10.417969 Z M 4.386719 10.417969 "/>
<path fill-rule="nonzero" fill="rgb(0%, 0%, 0%)" fill-opacity="1" d="M 8.925781 7.332031 C 9.53125 7.332031 10.011719 7.484375 10.371094 7.785156 C 10.726562 8.089844 10.90625 8.515625 10.90625 9.066406 C 10.90625 9.675781 10.710938 10.15625 10.320312 10.507812 C 9.9375 10.855469 9.394531 11.027344 8.703125 11.027344 C 8.398438 11.027344 8.113281 11 7.84375 10.945312 C 7.582031 10.890625 7.359375 10.8125 7.175781 10.707031 L 7.175781 10.023438 C 7.375 10.144531 7.613281 10.238281 7.894531 10.3125 C 8.179688 10.378906 8.453125 10.410156 8.710938 10.410156 C 9.144531 10.410156 9.496094 10.308594 9.757812 10.105469 C 10.027344 9.894531 10.164062 9.574219 10.164062 9.140625 C 10.164062 8.753906 10.046875 8.460938 9.808594 8.257812 C 9.574219 8.046875 9.199219 7.941406 8.6875 7.941406 C 8.53125 7.941406 8.355469 7.957031 8.160156 7.984375 C 7.960938 8.011719 7.800781 8.039062 7.679688 8.066406 L 7.316406 7.835938 L 7.539062 5.054688 L 10.492188 5.054688 L 10.492188 5.714844 L 8.160156 5.714844 L 8.019531 7.421875 C 8.113281 7.40625 8.238281 7.386719 8.398438 7.363281 C 8.558594 7.34375 8.734375 7.332031 8.925781 7.332031 Z M 8.925781 7.332031 "/>
<path fill-rule="nonzero" fill="rgb(0%, 0%, 0%)" fill-opacity="1" d="M 13.609375 6.796875 L 11.09375 6.796875 L 11.09375 6.265625 L 11.996094 5.355469 C 12.179688 5.164062 12.324219 5.007812 12.4375 4.886719 C 12.546875 4.757812 12.628906 4.644531 12.679688 4.542969 C 12.726562 4.4375 12.753906 4.328125 12.753906 4.207031 C 12.753906 4.0625 12.714844 3.957031 12.632812 3.886719 C 12.554688 3.816406 12.449219 3.78125 12.316406 3.78125 C 12.175781 3.78125 12.042969 3.8125 11.910156 3.875 C 11.78125 3.941406 11.640625 4.03125 11.496094 4.148438 L 11.082031 3.660156 C 11.1875 3.566406 11.296875 3.484375 11.410156 3.40625 C 11.527344 3.328125 11.664062 3.265625 11.816406 3.21875 C 11.96875 3.167969 12.15625 3.144531 12.371094 3.144531 C 12.605469 3.144531 12.808594 3.1875 12.976562 3.277344 C 13.148438 3.359375 13.277344 3.476562 13.367188 3.625 C 13.464844 3.769531 13.511719 3.933594 13.511719 4.117188 C 13.511719 4.316406 13.46875 4.5 13.390625 4.664062 C 13.3125 4.828125 13.199219 4.992188 13.046875 5.152344 C 12.898438 5.3125 12.71875 5.492188 12.507812 5.6875 L 12.042969 6.121094 L 12.042969 6.15625 L 13.609375 6.15625 Z M 13.609375 6.796875 "/>
</svg>
