<?xml version="1.0" encoding="UTF-8"?>
<svg xmlns="http://www.w3.org/2000/svg" xmlns:xlink="http://www.w3.org/1999/xlink" width="20" height="20" viewBox="0 0 20 20">
<path fill-rule="nonzero" fill="rgb(100%, 100%, 100%)" fill-opacity="1" d="M 10 0 L 0 10 L 10 20 L 20 10 Z M 10 1.65625 L 18.34375 10 L 10 18.34375 L 1.65625 10 Z M 10 1.65625 "/>
<path fill-rule="nonzero" fill="rgb(0%, 26.666667%, 66.666667%)" fill-opacity="1" stroke-width="7" stroke-linecap="square" stroke-linejoin="miter" stroke="rgb(0%, 0%, 0%)" stroke-opacity="1" stroke-miterlimit="4" d="M 24.697986 148.419823 L 148.419823 24.697986 L 272.257613 148.419823 L 148.419823 272.257613 Z M 24.582033 148.419823 L 24.697986 148.419823 M 24.697986 148.419823 L 24.697986 148.419823 M 24.697986 148.419823 L 24.697986 148.419823 M 24.582033 148.419823 L 24.697986 148.419823 M 24.697986 148.419823 L 24.697986 148.419823 M 24.697986 148.419823 L 24.697986 148.419823 M 24.582033 148.419823 L 24.697986 148.419823 M 24.697986 148.419823 L 24.697986 148.419823 M 24.697986 148.419823 L 24.697986 148.419823 M 24.582033 148.419823 L 24.697986 148.419823 M 24.697986 148.419823 L 24.697986 148.419823 M 24.697986 148.419823 L 24.697986 148.419823 M 24.582033 148.419823 L 24.697986 148.419823 M 24.697986 148.419823 L 24.697986 148.419823 M 24.697986 148.419823 L 24.697986 148.419823 M 24.582033 148.419823 L 24.697986 148.419823 M 24.697986 148.419823 L 24.697986 148.419823 M 24.697986 148.419823 L 24.697986 148.419823 M 24.582033 148.419823 L 24.697986 148.419823 M 24.697986 148.419823 L 24.697986 148.419823 M 24.697986 148.419823 L 24.697986 148.419823 M 24.582033 148.419823 L 24.697986 148.419823 M 24.697986 148.419823 L 24.697986 148.419823 M 24.697986 148.419823 L 24.697986 148.419823 M 24.582033 148.419823 L 24.697986 148.419823 M 24.697986 148.419823 L 24.697986 148.419823 M 24.697986 148.419823 L 24.697986 148.419823 M 24.582033 148.419823 L 24.697986 148.419823 M 24.697986 148.419823 L 24.697986 148.419823 M 24.697986 148.419823 L 24.697986 148.419823 M 24.582033 148.419823 L 24.697986 148.419823 M 24.697986 148.419823 L 24.697986 148.419823 M 24.697986 148.419823 L 24.697986 148.419823 M 24.582033 148.419823 L 24.697986 148.419823 M 24.697986 148.419823 L 24.697986 148.419823 M 24.697986 148.419823 L 24.697986 148.419823 M 24.582033 148.419823 L 24.697986 148.419823 M 24.697986 148.419823 L 24.697986 148.419823 M 24.697986 148.419823 L 24.697986 148.419823 M 24.582033 148.419823 L 24.697986 148.419823 M 24.697986 148.419823 L 24.697986 148.419823 M 24.697986 148.419823 L 24.697986 148.419823 M 24.582033 148.419823 L 24.697986 148.419823 M 24.697986 148.419823 L 24.697986 148.419823 M 24.697986 148.419823 L 24.697986 148.419823 M 24.582033 148.419823 L 24.697986 148.419823 M 24.697986 148.419823 L 24.697986 148.419823 M 24.697986 148.419823 L 24.697986 148.419823 M 24.582033 148.419823 L 24.697986 148.419823 M 24.697986 148.419823 L 24.697986 148.419823 M 24.697986 148.419823 L 24.697986 148.419823 M 24.582033 148.419823 L 24.697986 148.419823 M 24.697986 148.419823 L 24.697986 148.419823 M 24.697986 148.419823 L 24.697986 148.419823 M 24.582033 148.419823 L 24.697986 148.419823 M 24.697986 148.419823 L 24.697986 148.419823 M 24.697986 148.419823 L 24.697986 148.419823 M 24.582033 148.419823 L 24.697986 148.419823 M 24.697986 148.419823 L 24.697986 148.419823 M 24.697986 148.419823 L 24.697986 148.419823 M 24.582033 148.419823 L 24.697986 148.419823 M 24.697986 148.419823 L 24.697986 148.419823 M 24.697986 148.419823 L 24.697986 148.419823 M 24.582033 148.419823 L 24.697986 148.419823 M 24.697986 148.419823 L 24.697986 148.419823 M 24.697986 148.419823 L 24.697986 148.419823 M 24.582033 148.419823 L 24.697986 148.419823 M 24.697986 148.419823 L 24.697986 148.419823 M 24.697986 148.419823 L 24.697986 148.419823 M 24.582033 148.419823 L 24.697986 148.419823 M 24.697986 148.419823 L 24.697986 148.419823 M 24.697986 148.419823 L 24.697986 148.419823 M 24.582033 148.419823 L 24.697986 148.419823 M 24.697986 148.419823 L 24.697986 148.419823 M 24.697986 148.419823 L 24.697986 148.419823 M 24.582033 148.419823 L 24.697986 148.419823 M 24.697986 148.419823 L 24.697986 148.419823 M 24.697986 148.419823 L 24.697986 148.419823 M 24.582033 148.419823 L 24.697986 148.419823 M 24.697986 148.419823 L 24.697986 148.419823 M 24.697986 148.419823 L 24.697986 148.419823 M 24.582033 148.419823 L 24.697986 148.419823 M 24.697986 148.419823 L 24.697986 148.419823 M 24.697986 148.419823 L 24.697986 148.419823 M 24.582033 148.419823 L 24.697986 148.419823 M 24.697986 148.419823 L 24.697986 148.419823 M 24.697986 148.419823 L 24.697986 148.419823 M 24.582033 148.419823 L 24.697986 148.419823 M 24.697986 148.419823 L 24.697986 148.419823 M 24.697986 148.419823 L 24.697986 148.419823 M 24.582033 148.419823 L 24.697986 148.419823 M 24.697986 148.419823 L 24.697986 148.419823 M 24.697986 148.419823 L 24.697986 148.419823 M 24.582033 148.419823 L 24.697986 148.419823 M 24.697986 148.419823 L 24.697986 148.419823 M 24.697986 148.419823 " transform="matrix(0.0673764, 0, 0, 0.0673764, 0, 0)"/>
<path fill-rule="nonzero" fill="rgb(100%, 100%, 100%)" fill-opacity="1" d="M 4.371094 9.25 L 4.371094 8.746094 C 4.605469 8.738281 4.765625 8.71875 4.859375 8.703125 C 5.007812 8.667969 5.125 8.597656 5.222656 8.503906 C 5.285156 8.433594 5.339844 8.34375 5.375 8.234375 C 5.386719 8.164062 5.394531 8.117188 5.394531 8.082031 L 6.015625 8.082031 L 6.015625 11.84375 L 5.25 11.84375 L 5.25 9.25 Z M 4.371094 9.25 "/>
<path fill-rule="nonzero" fill="rgb(100%, 100%, 100%)" fill-opacity="1" d="M 7.828125 10.832031 C 7.859375 11.003906 7.921875 11.125 8 11.210938 C 8.085938 11.296875 8.203125 11.339844 8.363281 11.339844 C 8.550781 11.339844 8.6875 11.277344 8.78125 11.15625 C 8.875 11.019531 8.933594 10.859375 8.933594 10.660156 C 8.933594 10.46875 8.890625 10.308594 8.792969 10.171875 C 8.703125 10.042969 8.5625 9.972656 8.367188 9.972656 C 8.285156 9.972656 8.203125 9.988281 8.140625 10.007812 C 8.019531 10.050781 7.933594 10.125 7.882812 10.242188 L 7.214844 10.207031 L 7.484375 8.128906 L 9.546875 8.128906 L 9.546875 8.757812 L 8.011719 8.757812 L 7.882812 9.578125 C 7.996094 9.503906 8.082031 9.460938 8.140625 9.4375 C 8.25 9.390625 8.386719 9.375 8.53125 9.375 C 8.84375 9.375 9.113281 9.480469 9.347656 9.6875 C 9.582031 9.90625 9.699219 10.199219 9.699219 10.597656 C 9.699219 10.949219 9.582031 11.257812 9.367188 11.53125 C 9.140625 11.804688 8.8125 11.945312 8.363281 11.945312 C 8.007812 11.945312 7.707031 11.84375 7.484375 11.65625 C 7.253906 11.46875 7.117188 11.1875 7.101562 10.832031 Z M 7.828125 10.832031 "/>
<path fill-rule="nonzero" fill="rgb(100%, 100%, 100%)" fill-opacity="1" d="M 10.832031 9.996094 C 10.832031 10.429688 10.867188 10.765625 10.9375 11 C 11.011719 11.222656 11.160156 11.335938 11.375 11.335938 C 11.597656 11.335938 11.734375 11.222656 11.804688 11 C 11.875 10.765625 11.910156 10.429688 11.910156 9.996094 C 11.910156 9.542969 11.875 9.210938 11.804688 8.992188 C 11.734375 8.777344 11.597656 8.667969 11.375 8.667969 C 11.160156 8.667969 11.011719 8.777344 10.9375 8.992188 C 10.867188 9.210938 10.832031 9.542969 10.832031 9.996094 Z M 11.375 8.054688 C 11.859375 8.054688 12.1875 8.21875 12.382812 8.558594 C 12.578125 8.902344 12.671875 9.378906 12.671875 9.996094 C 12.671875 10.621094 12.578125 11.097656 12.382812 11.4375 C 12.1875 11.769531 11.859375 11.941406 11.375 11.941406 C 10.898438 11.941406 10.558594 11.769531 10.363281 11.4375 C 10.171875 11.097656 10.078125 10.621094 10.078125 9.996094 C 10.078125 9.378906 10.171875 8.902344 10.363281 8.558594 C 10.558594 8.21875 10.898438 8.054688 11.375 8.054688 Z M 11.375 8.054688 "/>
<path fill-rule="nonzero" fill="rgb(100%, 100%, 100%)" fill-opacity="1" d="M 13.792969 9.996094 C 13.792969 10.429688 13.828125 10.765625 13.898438 11 C 13.972656 11.222656 14.109375 11.335938 14.335938 11.335938 C 14.546875 11.335938 14.691406 11.222656 14.761719 11 C 14.832031 10.765625 14.859375 10.429688 14.859375 9.996094 C 14.859375 9.542969 14.832031 9.210938 14.761719 8.992188 C 14.691406 8.777344 14.546875 8.667969 14.335938 8.667969 C 14.109375 8.667969 13.972656 8.777344 13.898438 8.992188 C 13.828125 9.210938 13.792969 9.542969 13.792969 9.996094 Z M 14.335938 8.054688 C 14.8125 8.054688 15.152344 8.21875 15.339844 8.558594 C 15.535156 8.902344 15.628906 9.378906 15.628906 9.996094 C 15.628906 10.621094 15.535156 11.097656 15.339844 11.4375 C 15.152344 11.769531 14.8125 11.941406 14.335938 11.941406 C 13.859375 11.941406 13.519531 11.769531 13.324219 11.4375 C 13.128906 11.097656 13.035156 10.621094 13.035156 9.996094 C 13.035156 9.378906 13.128906 8.902344 13.324219 8.558594 C 13.519531 8.21875 13.859375 8.054688 14.335938 8.054688 Z M 14.335938 8.054688 "/>
</svg>
