<?xml version="1.0" encoding="UTF-8"?>
<svg xmlns="http://www.w3.org/2000/svg" xmlns:xlink="http://www.w3.org/1999/xlink" width="20" height="20" viewBox="0 0 20 20">
<path fill-rule="nonzero" fill="rgb(100%, 100%, 100%)" fill-opacity="1" d="M 10 0 L 0 10 L 10 20 L 20 10 Z M 10 1.65625 L 18.34375 10 L 10 18.34375 L 1.65625 10 Z M 10 1.65625 "/>
<path fill-rule="nonzero" fill="rgb(0%, 26.666667%, 66.666667%)" fill-opacity="1" stroke-width="7" stroke-linecap="square" stroke-linejoin="miter" stroke="rgb(0%, 0%, 0%)" stroke-opacity="1" stroke-miterlimit="4" d="M 24.697986 148.419823 L 148.419823 24.697986 L 272.257613 148.419823 L 148.419823 272.257613 Z M 24.582033 148.419823 L 24.697986 148.419823 M 24.697986 148.419823 L 24.697986 148.419823 M 24.697986 148.419823 L 24.697986 148.419823 M 24.582033 148.419823 L 24.697986 148.419823 M 24.697986 148.419823 L 24.697986 148.419823 M 24.697986 148.419823 L 24.697986 148.419823 M 24.582033 148.419823 L 24.697986 148.419823 M 24.697986 148.419823 L 24.697986 148.419823 M 24.697986 148.419823 L 24.697986 148.419823 M 24.582033 148.419823 L 24.697986 148.419823 M 24.697986 148.419823 L 24.697986 148.419823 M 24.697986 148.419823 L 24.697986 148.419823 M 24.582033 148.419823 L 24.697986 148.419823 M 24.697986 148.419823 L 24.697986 148.419823 M 24.697986 148.419823 L 24.697986 148.419823 M 24.582033 148.419823 L 24.697986 148.419823 M 24.697986 148.419823 L 24.697986 148.419823 M 24.697986 148.419823 L 24.697986 148.419823 M 24.582033 148.419823 L 24.697986 148.419823 M 24.697986 148.419823 L 24.697986 148.419823 M 24.697986 148.419823 L 24.697986 148.419823 M 24.582033 148.419823 L 24.697986 148.419823 M 24.697986 148.419823 L 24.697986 148.419823 M 24.697986 148.419823 L 24.697986 148.419823 M 24.582033 148.419823 L 24.697986 148.419823 M 24.697986 148.419823 L 24.697986 148.419823 M 24.697986 148.419823 L 24.697986 148.419823 M 24.582033 148.419823 L 24.697986 148.419823 M 24.697986 148.419823 L 24.697986 148.419823 M 24.697986 148.419823 L 24.697986 148.419823 M 24.582033 148.419823 L 24.697986 148.419823 M 24.697986 148.419823 L 24.697986 148.419823 M 24.697986 148.419823 L 24.697986 148.419823 M 24.582033 148.419823 L 24.697986 148.419823 M 24.697986 148.419823 L 24.697986 148.419823 M 24.697986 148.419823 L 24.697986 148.419823 M 24.582033 148.419823 L 24.697986 148.419823 M 24.697986 148.419823 L 24.697986 148.419823 M 24.697986 148.419823 L 24.697986 148.419823 M 24.582033 148.419823 L 24.697986 148.419823 M 24.697986 148.419823 L 24.697986 148.419823 M 24.697986 148.419823 L 24.697986 148.419823 M 24.582033 148.419823 L 24.697986 148.419823 M 24.697986 148.419823 L 24.697986 148.419823 M 24.697986 148.419823 L 24.697986 148.419823 M 24.582033 148.419823 L 24.697986 148.419823 M 24.697986 148.419823 L 24.697986 148.419823 M 24.697986 148.419823 L 24.697986 148.419823 M 24.582033 148.419823 L 24.697986 148.419823 M 24.697986 148.419823 L 24.697986 148.419823 M 24.697986 148.419823 L 24.697986 148.419823 M 24.582033 148.419823 L 24.697986 148.419823 M 24.697986 148.419823 L 24.697986 148.419823 M 24.697986 148.419823 L 24.697986 148.419823 M 24.582033 148.419823 L 24.697986 148.419823 M 24.697986 148.419823 L 24.697986 148.419823 M 24.697986 148.419823 L 24.697986 148.419823 M 24.582033 148.419823 L 24.697986 148.419823 M 24.697986 148.419823 L 24.697986 148.419823 M 24.697986 148.419823 L 24.697986 148.419823 M 24.582033 148.419823 L 24.697986 148.419823 M 24.697986 148.419823 L 24.697986 148.419823 M 24.697986 148.419823 L 24.697986 148.419823 M 24.582033 148.419823 L 24.697986 148.419823 M 24.697986 148.419823 L 24.697986 148.419823 M 24.697986 148.419823 L 24.697986 148.419823 M 24.582033 148.419823 L 24.697986 148.419823 M 24.697986 148.419823 L 24.697986 148.419823 M 24.697986 148.419823 L 24.697986 148.419823 M 24.582033 148.419823 L 24.697986 148.419823 M 24.697986 148.419823 L 24.697986 148.419823 M 24.697986 148.419823 L 24.697986 148.419823 M 24.582033 148.419823 L 24.697986 148.419823 M 24.697986 148.419823 L 24.697986 148.419823 M 24.697986 148.419823 L 24.697986 148.419823 M 24.582033 148.419823 L 24.697986 148.419823 M 24.697986 148.419823 L 24.697986 148.419823 M 24.697986 148.419823 L 24.697986 148.419823 M 24.582033 148.419823 L 24.697986 148.419823 M 24.697986 148.419823 L 24.697986 148.419823 M 24.697986 148.419823 L 24.697986 148.419823 M 24.582033 148.419823 L 24.697986 148.419823 M 24.697986 148.419823 L 24.697986 148.419823 M 24.697986 148.419823 L 24.697986 148.419823 M 24.582033 148.419823 L 24.697986 148.419823 M 24.697986 148.419823 L 24.697986 148.419823 M 24.697986 148.419823 L 24.697986 148.419823 M 24.582033 148.419823 L 24.697986 148.419823 M 24.697986 148.419823 L 24.697986 148.419823 M 24.697986 148.419823 L 24.697986 148.419823 M 24.582033 148.419823 L 24.697986 148.419823 M 24.697986 148.419823 L 24.697986 148.419823 M 24.697986 148.419823 L 24.697986 148.419823 M 24.582033 148.419823 L 24.697986 148.419823 M 24.697986 148.419823 L 24.697986 148.419823 M 24.697986 148.419823 L 24.697986 148.419823 M 24.582033 148.419823 L 24.697986 148.419823 M 24.697986 148.419823 L 24.697986 148.419823 M 24.697986 148.419823 L 24.697986 148.419823 M 24.582033 148.419823 L 24.697986 148.419823 M 24.697986 148.419823 L 24.697986 148.419823 M 24.697986 148.419823 L 24.697986 148.419823 M 24.582033 148.419823 L 24.697986 148.419823 M 24.697986 148.419823 L 24.697986 148.419823 M 24.697986 148.419823 L 24.697986 148.419823 M 24.582033 148.419823 L 24.697986 148.419823 M 24.697986 148.419823 L 24.697986 148.419823 M 24.697986 148.419823 L 24.697986 148.419823 M 24.582033 148.419823 L 24.697986 148.419823 M 24.697986 148.419823 L 24.697986 148.419823 M 24.697986 148.419823 L 24.697986 148.419823 M 24.582033 148.419823 L 24.697986 148.419823 M 24.697986 148.419823 L 24.697986 148.419823 M 24.697986 148.419823 L 24.697986 148.419823 M 24.582033 148.419823 L 24.697986 148.419823 M 24.697986 148.419823 L 24.697986 148.419823 M 24.697986 148.419823 L 24.697986 148.419823 M 24.582033 148.419823 L 24.697986 148.419823 M 24.697986 148.419823 L 24.697986 148.419823 M 24.697986 148.419823 L 24.697986 148.419823 M 24.582033 148.419823 L 24.697986 148.419823 M 24.697986 148.419823 L 24.697986 148.419823 M 24.697986 148.419823 L 24.697986 148.419823 M 24.582033 148.419823 L 24.697986 148.419823 M 24.697986 148.419823 L 24.697986 148.419823 M 24.697986 148.419823 L 24.697986 148.419823 M 24.582033 148.419823 L 24.697986 148.419823 M 24.697986 148.419823 L 24.697986 148.419823 M 24.697986 148.419823 L 24.697986 148.419823 M 24.582033 148.419823 L 24.697986 148.419823 M 24.697986 148.419823 L 24.697986 148.419823 M 24.697986 148.419823 L 24.697986 148.419823 M 24.582033 148.419823 L 24.697986 148.419823 M 24.697986 148.419823 L 24.697986 148.419823 M 24.697986 148.419823 L 24.697986 148.419823 M 24.582033 148.419823 L 24.697986 148.419823 M 24.697986 148.419823 L 24.697986 148.419823 M 24.697986 148.419823 L 24.697986 148.419823 M 24.582033 148.419823 L 24.697986 148.419823 M 24.697986 148.419823 L 24.697986 148.419823 M 24.697986 148.419823 L 24.697986 148.419823 M 24.582033 148.419823 L 24.697986 148.419823 M 24.697986 148.419823 L 24.697986 148.419823 M 24.697986 148.419823 L 24.697986 148.419823 M 24.582033 148.419823 L 24.697986 148.419823 M 24.697986 148.419823 L 24.697986 148.419823 M 24.697986 148.419823 L 24.697986 148.419823 M 24.582033 148.419823 L 24.697986 148.419823 M 24.697986 148.419823 L 24.697986 148.419823 M 24.697986 148.419823 L 24.697986 148.419823 M 24.582033 148.419823 L 24.697986 148.419823 M 24.697986 148.419823 L 24.697986 148.419823 M 24.697986 148.419823 L 24.697986 148.419823 M 24.582033 148.419823 L 24.697986 148.419823 M 24.697986 148.419823 L 24.697986 148.419823 M 24.697986 148.419823 L 24.697986 148.419823 M 24.582033 148.419823 L 24.697986 148.419823 M 24.697986 148.419823 L 24.697986 148.419823 M 24.697986 148.419823 L 24.697986 148.419823 M 24.582033 148.419823 L 24.697986 148.419823 M 24.697986 148.419823 L 24.697986 148.419823 M 24.697986 148.419823 L 24.697986 148.419823 M 24.582033 148.419823 L 24.697986 148.419823 M 24.697986 148.419823 L 24.697986 148.419823 M 24.697986 148.419823 L 24.697986 148.419823 M 24.582033 148.419823 L 24.697986 148.419823 M 24.697986 148.419823 L 24.697986 148.419823 M 24.697986 148.419823 L 24.697986 148.419823 M 24.582033 148.419823 L 24.697986 148.419823 M 24.697986 148.419823 L 24.697986 148.419823 M 24.697986 148.419823 L 24.697986 148.419823 M 24.582033 148.419823 L 24.697986 148.419823 M 24.697986 148.419823 L 24.697986 148.419823 M 24.697986 148.419823 L 24.697986 148.419823 M 24.582033 148.419823 L 24.697986 148.419823 M 24.697986 148.419823 L 24.697986 148.419823 M 24.697986 148.419823 L 24.697986 148.419823 M 24.582033 148.419823 L 24.697986 148.419823 M 24.697986 148.419823 L 24.697986 148.419823 M 24.697986 148.419823 L 24.697986 148.419823 M 24.582033 148.419823 L 24.697986 148.419823 M 24.697986 148.419823 L 24.697986 148.419823 M 24.697986 148.419823 L 24.697986 148.419823 M 24.582033 148.419823 L 24.697986 148.419823 M 24.697986 148.419823 L 24.697986 148.419823 M 24.697986 148.419823 L 24.697986 148.419823 M 24.582033 148.419823 L 24.697986 148.419823 M 24.697986 148.419823 L 24.697986 148.419823 M 24.697986 148.419823 L 24.697986 148.419823 M 24.582033 148.419823 L 24.697986 148.419823 M 24.697986 148.419823 L 24.697986 148.419823 M 24.697986 148.419823 " transform="matrix(0.0673764, 0, 0, 0.0673764, 0, 0)"/>
<path fill-rule="nonzero" fill="rgb(100%, 100%, 100%)" fill-opacity="1" d="M 4.246094 11.761719 C 4.253906 11.5 4.304688 11.265625 4.402344 11.058594 C 4.5 10.824219 4.738281 10.582031 5.121094 10.316406 C 5.433594 10.082031 5.636719 9.917969 5.746094 9.808594 C 5.890625 9.652344 5.964844 9.488281 5.964844 9.300781 C 5.964844 9.15625 5.910156 9.035156 5.824219 8.933594 C 5.746094 8.828125 5.628906 8.777344 5.472656 8.777344 C 5.265625 8.777344 5.121094 8.863281 5.042969 9.027344 C 4.992188 9.125 4.964844 9.261719 4.964844 9.457031 L 4.285156 9.457031 C 4.292969 9.15625 4.34375 8.910156 4.441406 8.714844 C 4.636719 8.363281 4.964844 8.191406 5.433594 8.191406 C 5.8125 8.191406 6.105469 8.292969 6.332031 8.503906 C 6.554688 8.710938 6.667969 8.988281 6.667969 9.339844 C 6.667969 9.605469 6.589844 9.832031 6.433594 10.027344 C 6.324219 10.167969 6.160156 10.324219 5.925781 10.496094 L 5.652344 10.691406 C 5.476562 10.808594 5.359375 10.898438 5.300781 10.964844 C 5.230469 11.015625 5.167969 11.082031 5.121094 11.160156 L 6.683594 11.160156 L 6.683594 11.761719 Z M 7.699219 10.808594 C 7.738281 10.964844 7.800781 11.089844 7.878906 11.175781 C 7.957031 11.253906 8.058594 11.292969 8.207031 11.292969 C 8.371094 11.292969 8.507812 11.238281 8.597656 11.121094 C 8.683594 10.988281 8.738281 10.832031 8.738281 10.652344 C 8.738281 10.46875 8.683594 10.316406 8.597656 10.199219 C 8.519531 10.074219 8.394531 10.003906 8.230469 10.003906 C 8.132812 10.003906 8.054688 10.011719 7.996094 10.027344 C 7.886719 10.066406 7.808594 10.140625 7.761719 10.238281 L 7.113281 10.222656 L 7.371094 8.246094 L 9.324219 8.246094 L 9.324219 8.855469 L 7.878906 8.855469 L 7.761719 9.636719 C 7.859375 9.558594 7.9375 9.503906 7.996094 9.480469 C 8.09375 9.453125 8.214844 9.441406 8.363281 9.441406 C 8.664062 9.441406 8.917969 9.535156 9.144531 9.730469 C 9.367188 9.925781 9.480469 10.21875 9.480469 10.589844 C 9.480469 10.921875 9.367188 11.210938 9.144531 11.472656 C 8.9375 11.730469 8.625 11.863281 8.207031 11.863281 C 7.863281 11.863281 7.585938 11.765625 7.371094 11.589844 C 7.15625 11.40625 7.039062 11.144531 7.019531 10.808594 Z M 9.992188 8.167969 L 10.671875 8.167969 L 10.671875 10.105469 L 11.554688 9.105469 L 12.414062 9.105469 L 11.476562 10.121094 L 12.453125 11.761719 L 11.609375 11.761719 L 10.96875 10.628906 L 10.671875 10.925781 L 10.671875 11.761719 L 9.992188 11.761719 Z M 14.96875 8.152344 L 15.75 8.152344 L 14.523438 11.761719 L 13.796875 11.761719 L 12.585938 8.152344 L 13.390625 8.152344 L 14.171875 10.886719 Z M 4.089844 7.894531 "/>
</svg>
