<?xml version="1.0" encoding="UTF-8"?>
<svg xmlns="http://www.w3.org/2000/svg" xmlns:xlink="http://www.w3.org/1999/xlink" width="16" height="16" viewBox="0 0 16 16">
<path fill-rule="nonzero" fill="rgb(100%, 100%, 100%)" fill-opacity="1" d="M 8 0 L 0 8 L 8 16 L 16 8 Z M 8 1.328125 L 14.671875 8 L 8 14.671875 L 1.328125 8 Z M 8 1.328125 "/>
<path fill-rule="nonzero" fill="rgb(0%, 26.666667%, 66.666667%)" fill-opacity="1" stroke-width="7" stroke-linecap="square" stroke-linejoin="miter" stroke="rgb(0%, 0%, 0%)" stroke-opacity="1" stroke-miterlimit="4" d="M 24.63999 148.419703 L 148.419703 24.63999 L 272.199417 148.419703 L 148.419703 272.199417 Z M 24.63999 148.419703 L 24.63999 148.419703 M 24.63999 148.419703 L 24.63999 148.419703 M 24.63999 148.419703 L 24.63999 148.419703 M 24.63999 148.419703 L 24.63999 148.419703 M 24.63999 148.419703 L 24.63999 148.419703 M 24.63999 148.419703 L 24.63999 148.419703 M 24.63999 148.419703 L 24.63999 148.419703 M 24.63999 148.419703 L 24.63999 148.419703 M 24.63999 148.419703 L 24.63999 148.419703 M 24.63999 148.419703 L 24.63999 148.419703 M 24.63999 148.419703 L 24.63999 148.419703 M 24.63999 148.419703 L 24.63999 148.419703 M 24.63999 148.419703 L 24.63999 148.419703 M 24.63999 148.419703 L 24.63999 148.419703 M 24.63999 148.419703 L 24.63999 148.419703 M 24.63999 148.419703 L 24.63999 148.419703 M 24.63999 148.419703 L 24.63999 148.419703 M 24.63999 148.419703 L 24.63999 148.419703 M 24.63999 148.419703 L 24.63999 148.419703 M 24.63999 148.419703 L 24.63999 148.419703 M 24.63999 148.419703 L 24.63999 148.419703 M 24.63999 148.419703 L 24.63999 148.419703 M 24.63999 148.419703 L 24.63999 148.419703 M 24.63999 148.419703 L 24.63999 148.419703 M 24.63999 148.419703 L 24.63999 148.419703 M 24.63999 148.419703 L 24.63999 148.419703 M 24.63999 148.419703 L 24.63999 148.419703 M 24.63999 148.419703 L 24.63999 148.419703 M 24.63999 148.419703 L 24.63999 148.419703 M 24.63999 148.419703 L 24.63999 148.419703 M 24.63999 148.419703 L 24.63999 148.419703 M 24.63999 148.419703 L 24.63999 148.419703 M 24.63999 148.419703 L 24.63999 148.419703 M 24.63999 148.419703 L 24.63999 148.419703 M 24.63999 148.419703 L 24.63999 148.419703 M 24.63999 148.419703 L 24.63999 148.419703 M 24.63999 148.419703 L 24.63999 148.419703 M 24.63999 148.419703 L 24.63999 148.419703 M 24.63999 148.419703 L 24.63999 148.419703 M 24.63999 148.419703 L 24.63999 148.419703 M 24.63999 148.419703 L 24.63999 148.419703 M 24.63999 148.419703 L 24.63999 148.419703 M 24.63999 148.419703 L 24.63999 148.419703 M 24.63999 148.419703 L 24.63999 148.419703 M 24.63999 148.419703 L 24.63999 148.419703 M 24.63999 148.419703 L 24.63999 148.419703 M 24.63999 148.419703 L 24.63999 148.419703 M 24.63999 148.419703 L 24.63999 148.419703 M 24.63999 148.419703 L 24.63999 148.419703 M 24.63999 148.419703 L 24.63999 148.419703 M 24.63999 148.419703 L 24.63999 148.419703 M 24.63999 148.419703 L 24.63999 148.419703 M 24.63999 148.419703 L 24.63999 148.419703 M 24.63999 148.419703 L 24.63999 148.419703 M 24.63999 148.419703 L 24.63999 148.419703 M 24.63999 148.419703 L 24.63999 148.419703 M 24.63999 148.419703 L 24.63999 148.419703 M 24.63999 148.419703 L 24.63999 148.419703 M 24.63999 148.419703 L 24.63999 148.419703 M 24.63999 148.419703 L 24.63999 148.419703 M 24.63999 148.419703 L 24.63999 148.419703 M 24.63999 148.419703 L 24.63999 148.419703 M 24.63999 148.419703 L 24.63999 148.419703 M 24.63999 148.419703 " transform="matrix(0.0539012, 0, 0, 0.0539012, 0, 0)"/>
<path fill-rule="nonzero" fill="rgb(0%, 26.666667%, 66.666667%)" fill-opacity="1" d="M 8 4.730469 L 4.730469 8 L 8 11.269531 L 11.269531 8 Z M 8 6.105469 L 9.894531 8 L 8 9.894531 L 6.105469 8 Z M 8 6.105469 "/>
<path fill-rule="nonzero" fill="rgb(100%, 100%, 100%)" fill-opacity="1" d="M 7.378906 9.988281 L 8.679688 9.988281 L 8.679688 11.25 L 7.378906 11.25 Z M 5.785156 6.84375 C 5.820312 6.015625 6.109375 5.429688 6.65625 5.082031 C 7 4.859375 7.421875 4.75 7.921875 4.75 C 8.578125 4.75 9.125 4.90625 9.558594 5.222656 C 9.996094 5.535156 10.214844 6 10.214844 6.617188 C 10.214844 6.996094 10.117188 7.316406 9.929688 7.574219 C 9.820312 7.730469 9.605469 7.933594 9.292969 8.175781 L 8.980469 8.417969 C 8.8125 8.546875 8.703125 8.699219 8.644531 8.875 C 8.609375 8.984375 8.59375 9.15625 8.589844 9.390625 L 7.410156 9.390625 C 7.429688 8.898438 7.476562 8.558594 7.550781 8.375 C 7.625 8.183594 7.820312 7.96875 8.136719 7.722656 L 8.453125 7.472656 C 8.558594 7.394531 8.644531 7.308594 8.707031 7.214844 C 8.824219 7.054688 8.882812 6.878906 8.882812 6.6875 C 8.882812 6.46875 8.816406 6.265625 8.683594 6.085938 C 8.558594 5.902344 8.320312 5.8125 7.976562 5.8125 C 7.640625 5.8125 7.402344 5.921875 7.257812 6.148438 C 7.117188 6.371094 7.046875 6.605469 7.046875 6.84375 Z M 5.785156 6.84375 "/>
</svg>
