<?xml version="1.0" encoding="UTF-8"?>
<svg xmlns="http://www.w3.org/2000/svg" xmlns:xlink="http://www.w3.org/1999/xlink" width="18" height="17.991795" viewBox="0 0 18 17.991795">
<path fill-rule="nonzero" fill="rgb(0%, 26.666667%, 66.666667%)" fill-opacity="1" stroke-width="0.472" stroke-linecap="round" stroke-linejoin="round" stroke="rgb(0%, 0%, 0%)" stroke-opacity="1" stroke-miterlimit="4" d="M 0.24205 8.572292 L 8.57974 0.234602 L 16.924877 8.572292 L 8.57974 16.917429 Z M 0.234602 8.572292 L 0.24205 8.572292 M 0.24205 8.572292 L 0.24205 8.572292 M 0.24205 8.572292 L 0.24205 8.572292 M 0.234602 8.572292 L 0.24205 8.572292 M 0.24205 8.572292 L 0.24205 8.572292 M 0.24205 8.572292 L 0.24205 8.572292 M 0.234602 8.572292 L 0.24205 8.572292 M 0.24205 8.572292 L 0.24205 8.572292 M 0.24205 8.572292 L 0.24205 8.572292 M 0.234602 8.572292 L 0.24205 8.572292 M 0.24205 8.572292 L 0.24205 8.572292 M 0.24205 8.572292 L 0.24205 8.572292 M 0.234602 8.572292 L 0.24205 8.572292 M 0.24205 8.572292 L 0.24205 8.572292 M 0.24205 8.572292 L 0.24205 8.572292 M 0.234602 8.572292 L 0.24205 8.572292 M 0.24205 8.572292 L 0.24205 8.572292 M 0.24205 8.572292 L 0.24205 8.572292 M 0.234602 8.572292 L 0.24205 8.572292 M 0.24205 8.572292 L 0.24205 8.572292 M 0.24205 8.572292 L 0.24205 8.572292 M 0.234602 8.572292 L 0.24205 8.572292 M 0.24205 8.572292 L 0.24205 8.572292 M 0.24205 8.572292 L 0.24205 8.572292 M 0.234602 8.572292 L 0.24205 8.572292 M 0.24205 8.572292 L 0.24205 8.572292 M 0.24205 8.572292 L 0.24205 8.572292 M 0.234602 8.572292 L 0.24205 8.572292 M 0.24205 8.572292 L 0.24205 8.572292 M 0.24205 8.572292 L 0.24205 8.572292 M 0.234602 8.572292 L 0.24205 8.572292 M 0.24205 8.572292 L 0.24205 8.572292 M 0.24205 8.572292 L 0.24205 8.572292 M 0.234602 8.572292 L 0.24205 8.572292 M 0.24205 8.572292 L 0.24205 8.572292 M 0.24205 8.572292 L 0.24205 8.572292 M 0.234602 8.572292 L 0.24205 8.572292 M 0.24205 8.572292 L 0.24205 8.572292 M 0.24205 8.572292 L 0.24205 8.572292 M 0.234602 8.572292 L 0.24205 8.572292 M 0.24205 8.572292 L 0.24205 8.572292 M 0.24205 8.572292 L 0.24205 8.572292 M 0.234602 8.572292 L 0.24205 8.572292 M 0.24205 8.572292 L 0.24205 8.572292 M 0.24205 8.572292 L 0.24205 8.572292 M 0.234602 8.572292 L 0.24205 8.572292 M 0.24205 8.572292 L 0.24205 8.572292 M 0.24205 8.572292 L 0.24205 8.572292 M 0.234602 8.572292 L 0.24205 8.572292 M 0.24205 8.572292 L 0.24205 8.572292 M 0.24205 8.572292 L 0.24205 8.572292 M 0.234602 8.572292 L 0.24205 8.572292 M 0.24205 8.572292 L 0.24205 8.572292 M 0.24205 8.572292 L 0.24205 8.572292 M 0.234602 8.572292 L 0.24205 8.572292 M 0.24205 8.572292 L 0.24205 8.572292 " transform="matrix(1.048983, 0, 0, 1.048983, 0, 0)"/>
<path fill-rule="nonzero" fill="rgb(100%, 100%, 100%)" fill-opacity="1" d="M 9.003906 0.601562 L 0.554688 9.046875 L 9.003906 17.496094 L 17.453125 9.046875 Z M 9.003906 2 L 16.050781 9.046875 L 9.003906 16.097656 L 1.957031 9.046875 Z M 9.003906 2 "/>
<path fill-rule="nonzero" fill="rgb(96.078431%, 78.039216%, 5.098039%)" fill-opacity="1" d="M 16.050781 9.046875 L 9.007812 9.066406 L 9.003906 2 Z M 16.050781 9.046875 "/>
<path fill-rule="nonzero" fill="rgb(96.078431%, 78.039216%, 5.098039%)" fill-opacity="1" d="M 1.957031 9.046875 L 9.007812 9.066406 L 9.003906 16.097656 Z M 1.957031 9.046875 "/>
<path fill-rule="nonzero" fill="rgb(100%, 100%, 100%)" fill-opacity="1" d="M 11.824219 10.628906 C 11.824219 11.28125 11.292969 11.8125 10.636719 11.8125 C 9.984375 11.8125 9.453125 11.28125 9.453125 10.628906 C 9.453125 9.972656 9.984375 9.441406 10.636719 9.441406 C 11.292969 9.441406 11.824219 9.972656 11.824219 10.628906 Z M 11.824219 10.628906 "/>
<path fill-rule="nonzero" fill="rgb(100%, 100%, 100%)" fill-opacity="1" d="M 8.691406 7.574219 C 8.691406 8.230469 8.160156 8.761719 7.503906 8.761719 C 6.851562 8.761719 6.320312 8.230469 6.320312 7.574219 C 6.320312 6.921875 6.851562 6.390625 7.503906 6.390625 C 8.160156 6.390625 8.691406 6.921875 8.691406 7.574219 Z M 8.691406 7.574219 "/>
</svg>
