<?xml version="1.0" encoding="UTF-8"?>
<svg xmlns="http://www.w3.org/2000/svg" xmlns:xlink="http://www.w3.org/1999/xlink" width="18" height="17.991896" viewBox="0 0 18 17.991896">
<path fill-rule="nonzero" fill="rgb(96.078431%, 78.039216%, 5.098039%)" fill-opacity="1" stroke-width="0.7" stroke-linecap="round" stroke-linejoin="round" stroke="rgb(0%, 0%, 0%)" stroke-opacity="1" stroke-miterlimit="4" d="M 0.358466 8.68619 L 8.693737 0.350919 L 17.036555 8.68619 L 8.693737 17.029008 Z M 0.350919 8.68619 L 0.358466 8.68619 M 0.358466 8.68619 L 0.358466 8.68619 M 0.358466 8.68619 L 0.358466 8.68619 M 0.350919 8.68619 L 0.358466 8.68619 M 0.358466 8.68619 L 0.358466 8.68619 M 0.358466 8.68619 L 0.358466 8.68619 M 0.350919 8.68619 L 0.358466 8.68619 M 0.358466 8.68619 L 0.358466 8.68619 M 0.358466 8.68619 L 0.358466 8.68619 M 0.350919 8.68619 L 0.358466 8.68619 M 0.358466 8.68619 L 0.358466 8.68619 M 0.358466 8.68619 L 0.358466 8.68619 M 0.350919 8.68619 L 0.358466 8.68619 M 0.358466 8.68619 L 0.358466 8.68619 M 0.358466 8.68619 L 0.358466 8.68619 M 0.350919 8.68619 L 0.358466 8.68619 M 0.358466 8.68619 L 0.358466 8.68619 M 0.358466 8.68619 L 0.358466 8.68619 M 0.350919 8.68619 L 0.358466 8.68619 M 0.358466 8.68619 L 0.358466 8.68619 M 0.358466 8.68619 L 0.358466 8.68619 M 0.350919 8.68619 L 0.358466 8.68619 M 0.358466 8.68619 L 0.358466 8.68619 M 0.358466 8.68619 L 0.358466 8.68619 M 0.350919 8.68619 L 0.358466 8.68619 M 0.358466 8.68619 L 0.358466 8.68619 M 0.358466 8.68619 L 0.358466 8.68619 M 0.350919 8.68619 L 0.358466 8.68619 M 0.358466 8.68619 L 0.358466 8.68619 M 0.358466 8.68619 L 0.358466 8.68619 M 0.350919 8.68619 L 0.358466 8.68619 M 0.358466 8.68619 L 0.358466 8.68619 M 0.358466 8.68619 L 0.358466 8.68619 M 0.350919 8.68619 L 0.358466 8.68619 M 0.358466 8.68619 L 0.358466 8.68619 M 0.358466 8.68619 L 0.358466 8.68619 M 0.350919 8.68619 L 0.358466 8.68619 M 0.358466 8.68619 L 0.358466 8.68619 M 0.358466 8.68619 L 0.358466 8.68619 M 0.350919 8.68619 L 0.358466 8.68619 M 0.358466 8.68619 L 0.358466 8.68619 M 0.358466 8.68619 L 0.358466 8.68619 M 0.350919 8.68619 L 0.358466 8.68619 M 0.358466 8.68619 L 0.358466 8.68619 M 0.358466 8.68619 L 0.358466 8.68619 M 0.350919 8.68619 L 0.358466 8.68619 M 0.358466 8.68619 L 0.358466 8.68619 M 0.358466 8.68619 L 0.358466 8.68619 M 0.350919 8.68619 L 0.358466 8.68619 M 0.358466 8.68619 L 0.358466 8.68619 M 0.358466 8.68619 L 0.358466 8.68619 M 0.350919 8.68619 L 0.358466 8.68619 M 0.358466 8.68619 L 0.358466 8.68619 M 0.358466 8.68619 L 0.358466 8.68619 M 0.350919 8.68619 L 0.358466 8.68619 M 0.358466 8.68619 L 0.358466 8.68619 " transform="matrix(1.035228, 0, 0, 1.035228, 0, 0)"/>
<path fill-rule="nonzero" fill="rgb(0%, 0%, 0%)" fill-opacity="1" d="M 4.558594 7.535156 C 4.167969 7.535156 3.863281 7.664062 3.636719 7.921875 C 3.410156 8.179688 3.296875 8.542969 3.296875 9.003906 C 3.296875 9.449219 3.398438 9.804688 3.601562 10.074219 C 3.816406 10.332031 4.136719 10.460938 4.558594 10.460938 C 4.707031 10.460938 4.851562 10.453125 4.996094 10.429688 C 5.144531 10.398438 5.285156 10.359375 5.414062 10.316406 L 5.414062 10.71875 C 5.285156 10.777344 5.144531 10.8125 4.996094 10.832031 C 4.851562 10.855469 4.6875 10.867188 4.492188 10.867188 C 4.113281 10.867188 3.800781 10.792969 3.554688 10.640625 C 3.304688 10.488281 3.117188 10.277344 2.988281 9.992188 C 2.867188 9.714844 2.808594 9.378906 2.808594 8.988281 C 2.808594 8.625 2.875 8.300781 3.003906 8.019531 C 3.140625 7.738281 3.34375 7.527344 3.601562 7.371094 C 3.871094 7.210938 4.1875 7.128906 4.558594 7.128906 C 4.945312 7.128906 5.277344 7.203125 5.558594 7.339844 L 5.382812 7.726562 C 5.273438 7.675781 5.148438 7.628906 5.011719 7.597656 C 4.867188 7.558594 4.71875 7.535156 4.558594 7.535156 Z M 8.96875 8.988281 C 8.96875 9.371094 8.90625 9.695312 8.773438 9.976562 C 8.644531 10.257812 8.457031 10.476562 8.210938 10.640625 C 7.957031 10.792969 7.652344 10.867188 7.285156 10.867188 C 6.90625 10.867188 6.59375 10.792969 6.347656 10.640625 C 6.097656 10.476562 5.914062 10.257812 5.78125 9.976562 C 5.660156 9.695312 5.605469 9.371094 5.605469 8.988281 C 5.605469 8.613281 5.660156 8.289062 5.78125 8.019531 C 5.914062 7.738281 6.097656 7.527344 6.347656 7.371094 C 6.59375 7.210938 6.90625 7.128906 7.285156 7.128906 C 7.652344 7.128906 7.957031 7.207031 8.210938 7.355469 C 8.457031 7.507812 8.644531 7.722656 8.773438 8.003906 C 8.90625 8.285156 8.96875 8.613281 8.96875 8.988281 Z M 6.089844 8.988281 C 6.089844 9.453125 6.1875 9.824219 6.382812 10.089844 C 6.574219 10.347656 6.875 10.476562 7.285156 10.476562 C 7.707031 10.476562 8.007812 10.347656 8.191406 10.089844 C 8.386719 9.824219 8.484375 9.453125 8.484375 8.988281 C 8.484375 8.535156 8.386719 8.179688 8.191406 7.921875 C 8.007812 7.664062 7.707031 7.535156 7.285156 7.535156 C 6.875 7.535156 6.574219 7.664062 6.382812 7.921875 C 6.1875 8.179688 6.089844 8.535156 6.089844 8.988281 Z M 12.363281 8.957031 C 12.363281 9.570312 12.191406 10.035156 11.859375 10.347656 C 11.523438 10.664062 11.054688 10.816406 10.453125 10.816406 L 9.449219 10.816406 L 9.449219 7.179688 L 10.566406 7.179688 C 10.929688 7.179688 11.25 7.25 11.519531 7.386719 C 11.789062 7.515625 11.992188 7.71875 12.136719 7.988281 C 12.285156 8.246094 12.363281 8.570312 12.363281 8.957031 Z M 11.875 8.972656 C 11.875 8.488281 11.75 8.132812 11.503906 7.90625 C 11.265625 7.679688 10.929688 7.566406 10.5 7.566406 L 9.902344 7.566406 L 9.902344 10.429688 L 10.390625 10.429688 C 11.378906 10.429688 11.875 9.945312 11.875 8.972656 Z M 14.863281 10.816406 L 12.84375 10.816406 L 12.84375 7.179688 L 14.863281 7.179688 L 14.863281 7.582031 L 13.296875 7.582031 L 13.296875 8.714844 L 14.785156 8.714844 L 14.785156 9.117188 L 13.296875 9.117188 L 13.296875 10.414062 L 14.863281 10.414062 Z M 2.503906 5.378906 "/>
</svg>
