<?xml version="1.0" encoding="UTF-8"?>
<svg xmlns="http://www.w3.org/2000/svg" xmlns:xlink="http://www.w3.org/1999/xlink" width="18" height="17.991896" viewBox="0 0 18 17.991896">
<path fill-rule="nonzero" fill="rgb(96.078431%, 78.039216%, 5.098039%)" fill-opacity="1" stroke-width="0.7" stroke-linecap="round" stroke-linejoin="round" stroke="rgb(0%, 0%, 0%)" stroke-opacity="1" stroke-miterlimit="4" d="M 0.358466 8.68619 L 8.693737 0.350919 L 17.036555 8.68619 L 8.693737 17.029008 Z M 0.350919 8.68619 L 0.358466 8.68619 M 0.358466 8.68619 L 0.358466 8.68619 M 0.358466 8.68619 L 0.358466 8.68619 M 0.350919 8.68619 L 0.358466 8.68619 M 0.358466 8.68619 L 0.358466 8.68619 M 0.358466 8.68619 L 0.358466 8.68619 M 0.350919 8.68619 L 0.358466 8.68619 M 0.358466 8.68619 L 0.358466 8.68619 M 0.358466 8.68619 L 0.358466 8.68619 M 0.350919 8.68619 L 0.358466 8.68619 M 0.358466 8.68619 L 0.358466 8.68619 M 0.358466 8.68619 L 0.358466 8.68619 M 0.350919 8.68619 L 0.358466 8.68619 M 0.358466 8.68619 L 0.358466 8.68619 M 0.358466 8.68619 L 0.358466 8.68619 M 0.350919 8.68619 L 0.358466 8.68619 M 0.358466 8.68619 L 0.358466 8.68619 M 0.358466 8.68619 L 0.358466 8.68619 M 0.350919 8.68619 L 0.358466 8.68619 M 0.358466 8.68619 L 0.358466 8.68619 M 0.358466 8.68619 L 0.358466 8.68619 M 0.350919 8.68619 L 0.358466 8.68619 M 0.358466 8.68619 L 0.358466 8.68619 M 0.358466 8.68619 L 0.358466 8.68619 M 0.350919 8.68619 L 0.358466 8.68619 M 0.358466 8.68619 L 0.358466 8.68619 M 0.358466 8.68619 L 0.358466 8.68619 M 0.350919 8.68619 L 0.358466 8.68619 M 0.358466 8.68619 L 0.358466 8.68619 M 0.358466 8.68619 L 0.358466 8.68619 M 0.350919 8.68619 L 0.358466 8.68619 M 0.358466 8.68619 L 0.358466 8.68619 M 0.358466 8.68619 L 0.358466 8.68619 M 0.350919 8.68619 L 0.358466 8.68619 M 0.358466 8.68619 L 0.358466 8.68619 M 0.358466 8.68619 L 0.358466 8.68619 M 0.350919 8.68619 L 0.358466 8.68619 M 0.358466 8.68619 L 0.358466 8.68619 M 0.358466 8.68619 L 0.358466 8.68619 M 0.350919 8.68619 L 0.358466 8.68619 M 0.358466 8.68619 L 0.358466 8.68619 M 0.358466 8.68619 L 0.358466 8.68619 M 0.350919 8.68619 L 0.358466 8.68619 M 0.358466 8.68619 L 0.358466 8.68619 M 0.358466 8.68619 L 0.358466 8.68619 M 0.350919 8.68619 L 0.358466 8.68619 M 0.358466 8.68619 L 0.358466 8.68619 M 0.358466 8.68619 L 0.358466 8.68619 M 0.350919 8.68619 L 0.358466 8.68619 M 0.358466 8.68619 L 0.358466 8.68619 M 0.358466 8.68619 L 0.358466 8.68619 M 0.350919 8.68619 L 0.358466 8.68619 M 0.358466 8.68619 L 0.358466 8.68619 M 0.358466 8.68619 L 0.358466 8.68619 M 0.350919 8.68619 L 0.358466 8.68619 M 0.358466 8.68619 L 0.358466 8.68619 " transform="matrix(1.035228, 0, 0, 1.035228, 0, 0)"/>
<path fill-rule="nonzero" fill="rgb(0%, 0%, 0%)" fill-opacity="1" d="M 6.566406 11.28125 L 6.234375 10.195312 L 4.578125 10.195312 L 4.246094 11.28125 L 3.207031 11.28125 L 4.8125 6.710938 L 5.992188 6.710938 L 7.605469 11.28125 Z M 5.671875 8.328125 C 5.652344 8.257812 5.625 8.167969 5.589844 8.054688 C 5.558594 7.945312 5.523438 7.832031 5.488281 7.71875 C 5.453125 7.605469 5.425781 7.503906 5.40625 7.417969 C 5.386719 7.503906 5.355469 7.609375 5.316406 7.738281 C 5.28125 7.859375 5.25 7.980469 5.214844 8.09375 C 5.183594 8.203125 5.160156 8.285156 5.144531 8.328125 L 4.820312 9.386719 L 6.003906 9.386719 Z M 5.671875 8.328125 "/>
<path fill-rule="nonzero" fill="rgb(0%, 0%, 0%)" fill-opacity="1" d="M 9.484375 11.28125 L 8.523438 11.28125 L 8.523438 7.535156 L 7.285156 7.535156 L 7.285156 6.730469 L 10.71875 6.730469 L 10.71875 7.535156 L 9.484375 7.535156 Z M 9.484375 11.28125 "/>
<path fill-rule="nonzero" fill="rgb(0%, 0%, 0%)" fill-opacity="1" d="M 12.835938 6.730469 C 13.445312 6.730469 13.902344 6.816406 14.210938 6.984375 C 14.523438 7.15625 14.675781 7.453125 14.675781 7.882812 C 14.675781 8.144531 14.617188 8.363281 14.492188 8.539062 C 14.375 8.71875 14.203125 8.828125 13.976562 8.867188 L 13.976562 8.898438 C 14.128906 8.925781 14.269531 8.980469 14.390625 9.054688 C 14.515625 9.132812 14.613281 9.242188 14.683594 9.386719 C 14.757812 9.53125 14.792969 9.722656 14.792969 9.960938 C 14.792969 10.375 14.644531 10.695312 14.347656 10.929688 C 14.046875 11.164062 13.640625 11.28125 13.121094 11.28125 L 11.421875 11.28125 L 11.421875 6.730469 Z M 12.945312 8.535156 C 13.226562 8.535156 13.417969 8.488281 13.523438 8.398438 C 13.632812 8.3125 13.691406 8.179688 13.691406 8.011719 C 13.691406 7.835938 13.625 7.710938 13.5 7.636719 C 13.371094 7.558594 13.167969 7.519531 12.894531 7.519531 L 12.382812 7.519531 L 12.382812 8.535156 Z M 12.382812 9.296875 L 12.382812 10.484375 L 13.015625 10.484375 C 13.304688 10.484375 13.503906 10.429688 13.621094 10.316406 C 13.734375 10.203125 13.792969 10.050781 13.792969 9.867188 C 13.792969 9.695312 13.730469 9.558594 13.613281 9.457031 C 13.5 9.351562 13.289062 9.296875 12.984375 9.296875 Z M 12.382812 9.296875 "/>
<path fill="none" stroke-width="2" stroke-linecap="butt" stroke-linejoin="miter" stroke="rgb(0%, 0%, 0%)" stroke-opacity="1" stroke-miterlimit="4" d="M 4.524215 12.859486 L 12.867033 4.516668 " transform="matrix(1.035228, 0, 0, 1.035228, 0, 0)"/>
</svg>
