<?xml version="1.0" encoding="UTF-8"?>
<svg xmlns="http://www.w3.org/2000/svg" xmlns:xlink="http://www.w3.org/1999/xlink" width="18" height="17.992171" viewBox="0 0 18 17.992171">
<path fill-rule="nonzero" fill="rgb(100%, 100%, 100%)" fill-opacity="1" stroke-width="0.72466" stroke-linecap="round" stroke-linejoin="round" stroke="rgb(0%, 0%, 0%)" stroke-opacity="1" stroke-miterlimit="4" d="M 0.371054 8.991229 L 8.999041 0.363243 L 17.634839 8.991229 L 8.999041 17.627027 Z M 0.363243 8.991229 L 0.371054 8.991229 M 0.371054 8.991229 L 0.371054 8.991229 M 0.371054 8.991229 L 0.371054 8.991229 M 0.363243 8.991229 L 0.371054 8.991229 M 0.371054 8.991229 L 0.371054 8.991229 M 0.371054 8.991229 L 0.371054 8.991229 M 0.363243 8.991229 L 0.371054 8.991229 M 0.371054 8.991229 L 0.371054 8.991229 M 0.371054 8.991229 L 0.371054 8.991229 M 0.363243 8.991229 L 0.371054 8.991229 M 0.371054 8.991229 L 0.371054 8.991229 M 0.371054 8.991229 L 0.371054 8.991229 M 0.363243 8.991229 L 0.371054 8.991229 M 0.371054 8.991229 L 0.371054 8.991229 M 0.371054 8.991229 L 0.371054 8.991229 M 0.363243 8.991229 L 0.371054 8.991229 M 0.371054 8.991229 L 0.371054 8.991229 M 0.371054 8.991229 L 0.371054 8.991229 M 0.363243 8.991229 L 0.371054 8.991229 M 0.371054 8.991229 L 0.371054 8.991229 M 0.371054 8.991229 L 0.371054 8.991229 M 0.363243 8.991229 L 0.371054 8.991229 M 0.371054 8.991229 L 0.371054 8.991229 M 0.371054 8.991229 L 0.371054 8.991229 M 0.363243 8.991229 L 0.371054 8.991229 M 0.371054 8.991229 L 0.371054 8.991229 M 0.371054 8.991229 L 0.371054 8.991229 M 0.363243 8.991229 L 0.371054 8.991229 M 0.371054 8.991229 L 0.371054 8.991229 M 0.371054 8.991229 L 0.371054 8.991229 M 0.363243 8.991229 L 0.371054 8.991229 M 0.371054 8.991229 L 0.371054 8.991229 M 0.371054 8.991229 L 0.371054 8.991229 M 0.363243 8.991229 L 0.371054 8.991229 M 0.371054 8.991229 L 0.371054 8.991229 M 0.371054 8.991229 L 0.371054 8.991229 M 0.363243 8.991229 L 0.371054 8.991229 M 0.371054 8.991229 L 0.371054 8.991229 M 0.371054 8.991229 L 0.371054 8.991229 M 0.363243 8.991229 L 0.371054 8.991229 M 0.371054 8.991229 L 0.371054 8.991229 M 0.371054 8.991229 L 0.371054 8.991229 M 0.363243 8.991229 L 0.371054 8.991229 M 0.371054 8.991229 L 0.371054 8.991229 M 0.371054 8.991229 L 0.371054 8.991229 M 0.363243 8.991229 L 0.371054 8.991229 M 0.371054 8.991229 L 0.371054 8.991229 M 0.371054 8.991229 L 0.371054 8.991229 M 0.363243 8.991229 L 0.371054 8.991229 M 0.371054 8.991229 L 0.371054 8.991229 M 0.371054 8.991229 L 0.371054 8.991229 M 0.363243 8.991229 L 0.371054 8.991229 M 0.371054 8.991229 L 0.371054 8.991229 M 0.371054 8.991229 L 0.371054 8.991229 M 0.363243 8.991229 L 0.371054 8.991229 M 0.371054 8.991229 L 0.371054 8.991229 " transform="matrix(1.000107, 0, 0, 1.000107, 0, 0)"/>
<path fill="none" stroke-width="2.07046" stroke-linecap="butt" stroke-linejoin="miter" stroke="rgb(0%, 0%, 0%)" stroke-opacity="1" stroke-miterlimit="4" d="M 4.683094 13.311081 L 13.318893 4.675283 " transform="matrix(1.000107, 0, 0, 1.000107, 0, 0)"/>
<path fill="none" stroke-width="0.623942" stroke-linecap="round" stroke-linejoin="round" stroke="rgb(0%, 0%, 0%)" stroke-opacity="1" stroke-miterlimit="4" d="M 10.416858 4.644036 C 10.416858 5.425203 9.784113 6.057948 9.002946 6.057948 C 8.217874 6.057948 7.585129 5.425203 7.585129 4.644036 C 7.585129 3.862869 8.217874 3.226219 9.002946 3.226219 C 9.784113 3.226219 10.416858 3.862869 10.416858 4.644036 Z M 10.416858 4.644036 " transform="matrix(1.000107, 0, 0, 1.000107, 0, 0)"/>
<path fill-rule="nonzero" fill="rgb(100%, 100%, 100%)" fill-opacity="1" d="M 10.417969 4.644531 C 10.417969 5.425781 9.785156 6.058594 9.003906 6.058594 C 8.21875 6.058594 7.585938 5.425781 7.585938 4.644531 C 7.585938 3.863281 8.21875 3.226562 9.003906 3.226562 C 9.785156 3.226562 10.417969 3.863281 10.417969 4.644531 Z M 10.417969 4.644531 "/>
<path fill="none" stroke-width="0.416516" stroke-linecap="butt" stroke-linejoin="miter" stroke="rgb(0%, 0%, 0%)" stroke-opacity="1" stroke-miterlimit="4" d="M 9.002946 6.18684 L 9.002946 13.682135 " transform="matrix(1.000107, 0, 0, 1.000107, 0, 0)"/>
<path fill="none" stroke-width="0.4" stroke-linecap="butt" stroke-linejoin="miter" stroke="rgb(0%, 0%, 0%)" stroke-opacity="1" stroke-miterlimit="4" d="M 7.717927 13.682135 L 10.28406 13.682135 " transform="matrix(1.000107, 0, 0, 1.000107, 0, 0)"/>
</svg>
