<?xml version="1.0" encoding="UTF-8"?>
<svg xmlns="http://www.w3.org/2000/svg" xmlns:xlink="http://www.w3.org/1999/xlink" width="18" height="12.134022" viewBox="0 0 18 12.134022">
<path fill-rule="nonzero" fill="rgb(100%, 100%, 100%)" fill-opacity="1" stroke-width="2.47276" stroke-linecap="round" stroke-linejoin="round" stroke="rgb(0%, 0%, 0%)" stroke-opacity="1" stroke-miterlimit="4" d="M 1.239146 1.239146 L 49.291703 1.239146 L 49.291703 32.831893 L 1.239146 32.831893 Z M 1.239146 1.239146 " transform="matrix(0.356218, 0, 0, 0.356218, 0, 0)"/>
<path fill-rule="nonzero" fill="rgb(0%, 0%, 0%)" fill-opacity="1" d="M 4.742188 4.476562 C 4.359375 4.476562 4.066406 4.621094 3.863281 4.90625 C 3.660156 5.191406 3.5625 5.585938 3.5625 6.082031 C 3.5625 6.582031 3.652344 6.96875 3.839844 7.242188 C 4.027344 7.519531 4.328125 7.65625 4.742188 7.65625 C 4.933594 7.65625 5.125 7.632812 5.3125 7.589844 C 5.507812 7.542969 5.714844 7.484375 5.941406 7.40625 L 5.941406 8.242188 C 5.734375 8.328125 5.527344 8.386719 5.324219 8.425781 C 5.125 8.464844 4.898438 8.484375 4.652344 8.484375 C 4.164062 8.484375 3.765625 8.386719 3.449219 8.183594 C 3.136719 7.984375 2.90625 7.703125 2.757812 7.34375 C 2.609375 6.980469 2.535156 6.554688 2.535156 6.070312 C 2.535156 5.597656 2.621094 5.183594 2.792969 4.816406 C 2.960938 4.449219 3.210938 4.164062 3.539062 3.960938 C 3.863281 3.753906 4.265625 3.648438 4.742188 3.648438 C 4.972656 3.648438 5.207031 3.679688 5.441406 3.738281 C 5.679688 3.796875 5.90625 3.875 6.121094 3.976562 L 5.796875 4.789062 C 5.621094 4.703125 5.441406 4.632812 5.265625 4.574219 C 5.085938 4.511719 4.910156 4.476562 4.742188 4.476562 Z M 10.316406 8.417969 L 9.972656 7.300781 L 8.261719 7.300781 L 7.917969 8.417969 L 6.84375 8.417969 L 8.5 3.691406 L 9.722656 3.691406 L 11.390625 8.417969 Z M 9.390625 5.367188 C 9.371094 5.292969 9.339844 5.199219 9.304688 5.085938 C 9.269531 4.96875 9.234375 4.851562 9.199219 4.734375 C 9.164062 4.617188 9.136719 4.511719 9.113281 4.421875 C 9.09375 4.511719 9.066406 4.621094 9.023438 4.75 C 8.988281 4.882812 8.953125 5.003906 8.917969 5.125 C 8.890625 5.238281 8.863281 5.320312 8.847656 5.367188 L 8.511719 6.460938 L 9.738281 6.460938 Z M 13.9375 3.714844 C 14.566406 3.714844 15.042969 3.804688 15.363281 3.976562 C 15.683594 4.152344 15.847656 4.460938 15.847656 4.90625 C 15.847656 5.171875 15.78125 5.398438 15.65625 5.585938 C 15.53125 5.773438 15.351562 5.882812 15.117188 5.917969 L 15.117188 5.953125 C 15.277344 5.984375 15.417969 6.039062 15.546875 6.121094 C 15.675781 6.199219 15.777344 6.3125 15.851562 6.464844 C 15.925781 6.613281 15.964844 6.808594 15.964844 7.054688 C 15.964844 7.480469 15.808594 7.816406 15.5 8.058594 C 15.191406 8.296875 14.773438 8.417969 14.238281 8.417969 L 12.480469 8.417969 L 12.480469 3.714844 Z M 14.054688 5.578125 C 14.34375 5.578125 14.542969 5.535156 14.65625 5.441406 C 14.765625 5.347656 14.820312 5.214844 14.820312 5.039062 C 14.820312 4.859375 14.753906 4.726562 14.621094 4.648438 C 14.492188 4.570312 14.285156 4.527344 14 4.527344 L 13.46875 4.527344 L 13.46875 5.578125 Z M 13.46875 6.371094 L 13.46875 7.59375 L 14.125 7.59375 C 14.421875 7.59375 14.628906 7.539062 14.75 7.421875 C 14.867188 7.304688 14.929688 7.148438 14.929688 6.953125 C 14.929688 6.78125 14.867188 6.640625 14.742188 6.53125 C 14.625 6.425781 14.40625 6.371094 14.09375 6.371094 Z M 2.152344 1.375 "/>
<path fill="none" stroke-width="3" stroke-linecap="butt" stroke-linejoin="miter" stroke="rgb(0%, 0%, 0%)" stroke-opacity="1" stroke-miterlimit="4" d="M 1.239146 32.831893 C 49.291703 1.239146 49.291703 1.239146 49.291703 1.239146 " transform="matrix(0.356218, 0, 0, 0.356218, 0, 0)"/>
</svg>
