<?xml version="1.0" encoding="UTF-8"?>
<svg xmlns="http://www.w3.org/2000/svg" xmlns:xlink="http://www.w3.org/1999/xlink" width="14.641672" height="20" viewBox="0 0 14.641672 20">
<path fill-rule="nonzero" fill="rgb(14.901961%, 14.901961%, 14.901961%)" fill-opacity="1" stroke-width="0.271818" stroke-linecap="round" stroke-linejoin="round" stroke="rgb(0%, 0%, 0%)" stroke-opacity="1" stroke-dasharray="0.543452 0.704643" stroke-miterlimit="4" d="M 18.557118 14.488317 L 190.511459 14.488317 C 193.387928 14.488317 195.728106 16.828496 195.728106 19.753718 L 195.728106 258.549398 C 195.728106 261.47462 193.387928 263.814798 190.511459 263.814798 L 18.557118 263.814798 C 15.631896 263.814798 13.291717 261.47462 13.291717 258.549398 L 13.291717 19.753718 C 13.291717 16.828496 15.631896 14.488317 18.557118 14.488317 Z M 18.557118 14.488317 " transform="matrix(0.0801221, 0, 0, 0.0801221, -1.053242, -1.149116)"/>
<path fill-rule="nonzero" fill="rgb(100%, 100%, 100%)" fill-opacity="1" stroke-width="0.264999" stroke-linecap="round" stroke-linejoin="round" stroke="rgb(0%, 0%, 0%)" stroke-opacity="1" stroke-dasharray="0.549478 0.698617" stroke-miterlimit="4" d="M 81.351899 205.212837 C 81.351899 209.893193 77.549109 213.695983 72.868753 213.695983 C 68.23715 213.695983 64.434361 209.893193 64.434361 205.212837 C 64.434361 200.581235 68.23715 196.778445 72.868753 196.778445 C 77.549109 196.778445 81.351899 200.581235 81.351899 205.212837 Z M 81.351899 205.212837 " transform="matrix(0.0801221, 0, 0, 0.0801221, -1.053242, -1.149116)"/>
<path fill-rule="nonzero" fill="rgb(100%, 100%, 100%)" fill-opacity="1" stroke-width="0.264999" stroke-linecap="round" stroke-linejoin="round" stroke="rgb(0%, 0%, 0%)" stroke-opacity="1" stroke-dasharray="0.549478 0.698617" stroke-miterlimit="4" d="M 146.486857 205.212837 C 146.486857 209.893193 142.684068 213.695983 138.052465 213.695983 C 133.372109 213.695983 129.618073 209.893193 129.618073 205.212837 C 129.618073 200.581235 133.372109 196.778445 138.052465 196.778445 C 142.684068 196.778445 146.486857 200.581235 146.486857 205.212837 Z M 146.486857 205.212837 " transform="matrix(0.0801221, 0, 0, 0.0801221, -1.053242, -1.149116)"/>
<path fill-rule="nonzero" fill="rgb(100%, 100%, 100%)" fill-opacity="1" stroke-width="0.264999" stroke-linecap="round" stroke-linejoin="round" stroke="rgb(0%, 0%, 0%)" stroke-opacity="1" stroke-dasharray="0.549478 0.698617" stroke-miterlimit="4" d="M 48.735666 172.645358 C 48.735666 177.325714 44.98163 181.07975 40.301274 181.07975 C 35.620917 181.07975 31.866882 177.325714 31.866882 172.645358 C 31.866882 168.013755 35.620917 164.210966 40.301274 164.210966 C 44.98163 164.210966 48.735666 168.013755 48.735666 172.645358 Z M 48.735666 172.645358 " transform="matrix(0.0801221, 0, 0, 0.0801221, -1.053242, -1.149116)"/>
<path fill-rule="nonzero" fill="rgb(100%, 100%, 100%)" fill-opacity="1" stroke-width="0.264999" stroke-linecap="round" stroke-linejoin="round" stroke="rgb(0%, 0%, 0%)" stroke-opacity="1" stroke-dasharray="0.549478 0.698617" stroke-miterlimit="4" d="M 179.054337 172.645358 C 179.054337 177.325714 175.300301 181.07975 170.619945 181.07975 C 165.939588 181.07975 162.185553 177.325714 162.185553 172.645358 C 162.185553 168.013755 165.939588 164.210966 170.619945 164.210966 C 175.300301 164.210966 179.054337 168.013755 179.054337 172.645358 Z M 179.054337 172.645358 " transform="matrix(0.0801221, 0, 0, 0.0801221, -1.053242, -1.149116)"/>
<path fill-rule="nonzero" fill="rgb(100%, 100%, 100%)" fill-opacity="1" stroke-width="0.264999" stroke-linecap="round" stroke-linejoin="round" stroke="rgb(0%, 0%, 0%)" stroke-opacity="1" stroke-dasharray="0.549478 0.698617" stroke-miterlimit="4" d="M 113.919378 143.978175 C 113.919378 148.658532 110.116589 152.461321 105.484986 152.461321 C 100.80463 152.461321 97.00184 148.658532 97.00184 143.978175 C 97.00184 139.346573 100.80463 135.543783 105.484986 135.543783 C 110.116589 135.543783 113.919378 139.346573 113.919378 143.978175 Z M 113.919378 143.978175 " transform="matrix(0.0801221, 0, 0, 0.0801221, -1.053242, -1.149116)"/>
<path fill-rule="nonzero" fill="rgb(100%, 100%, 100%)" fill-opacity="1" stroke-width="0.264999" stroke-linecap="round" stroke-linejoin="round" stroke="rgb(0%, 0%, 0%)" stroke-opacity="1" stroke-dasharray="0.549478 0.698617" stroke-miterlimit="4" d="M 115.235728 111.410696 C 115.235728 116.091052 111.481693 119.845088 106.801336 119.845088 C 102.12098 119.845088 98.366944 116.091052 98.366944 111.410696 C 98.366944 106.73034 102.12098 102.976304 106.801336 102.976304 C 111.481693 102.976304 115.235728 106.73034 115.235728 111.410696 Z M 115.235728 111.410696 " transform="matrix(0.0801221, 0, 0, 0.0801221, -1.053242, -1.149116)"/>
<path fill-rule="nonzero" fill="rgb(100%, 100%, 100%)" fill-opacity="1" stroke-width="0.264999" stroke-linecap="round" stroke-linejoin="round" stroke="rgb(0%, 0%, 0%)" stroke-opacity="1" stroke-dasharray="0.549478 0.698617" stroke-miterlimit="4" d="M 115.235728 78.843217 C 115.235728 83.523573 111.481693 87.277609 106.801336 87.277609 C 102.12098 87.277609 98.366944 83.523573 98.366944 78.843217 C 98.366944 74.16286 102.12098 70.408825 106.801336 70.408825 C 111.481693 70.408825 115.235728 74.16286 115.235728 78.843217 Z M 115.235728 78.843217 " transform="matrix(0.0801221, 0, 0, 0.0801221, -1.053242, -1.149116)"/>
<path fill-rule="nonzero" fill="rgb(100%, 100%, 100%)" fill-opacity="1" stroke-width="0.264999" stroke-linecap="round" stroke-linejoin="round" stroke="rgb(0%, 0%, 0%)" stroke-opacity="1" stroke-dasharray="0.549478 0.698617" stroke-miterlimit="4" d="M 115.235728 46.275737 C 115.235728 50.90734 111.481693 54.710129 106.801336 54.710129 C 102.12098 54.710129 98.366944 50.90734 98.366944 46.275737 C 98.366944 41.595381 102.12098 37.841345 106.801336 37.841345 C 111.481693 37.841345 115.235728 41.595381 115.235728 46.275737 Z M 115.235728 46.275737 " transform="matrix(0.0801221, 0, 0, 0.0801221, -1.053242, -1.149116)"/>
<path fill-rule="nonzero" fill="rgb(100%, 100%, 100%)" fill-opacity="1" stroke-width="0.264999" stroke-linecap="round" stroke-linejoin="round" stroke="rgb(0%, 0%, 0%)" stroke-opacity="1" stroke-dasharray="0.549478 0.698617" stroke-miterlimit="4" d="M 113.919378 205.212837 C 113.919378 209.893193 110.116589 213.695983 105.484986 213.695983 C 100.80463 213.695983 97.00184 209.893193 97.00184 205.212837 C 97.00184 200.581235 100.80463 196.778445 105.484986 196.778445 C 110.116589 196.778445 113.919378 200.581235 113.919378 205.212837 Z M 113.919378 205.212837 " transform="matrix(0.0801221, 0, 0, 0.0801221, -1.053242, -1.149116)"/>
<path fill-rule="nonzero" fill="rgb(100%, 100%, 100%)" fill-opacity="1" stroke-width="0.264999" stroke-linecap="round" stroke-linejoin="round" stroke="rgb(0%, 0%, 0%)" stroke-opacity="1" stroke-dasharray="0.549478 0.698617" stroke-miterlimit="4" d="M 113.919378 174.25423 C 113.919378 178.885833 110.116589 182.688622 105.484986 182.688622 C 100.80463 182.688622 97.00184 178.885833 97.00184 174.25423 C 97.00184 169.573874 100.80463 165.771084 105.484986 165.771084 C 110.116589 165.771084 113.919378 169.573874 113.919378 174.25423 Z M 113.919378 174.25423 " transform="matrix(0.0801221, 0, 0, 0.0801221, -1.053242, -1.149116)"/>
<path fill-rule="nonzero" fill="rgb(100%, 100%, 100%)" fill-opacity="1" stroke-width="0.264999" stroke-linecap="round" stroke-linejoin="round" stroke="rgb(0%, 0%, 0%)" stroke-opacity="1" stroke-dasharray="0.549478 0.698617" stroke-miterlimit="4" d="M 113.919378 236.951503 C 113.919378 241.583106 110.116589 245.385895 105.484986 245.385895 C 100.80463 245.385895 97.00184 241.583106 97.00184 236.951503 C 97.00184 232.271147 100.80463 228.517111 105.484986 228.517111 C 110.116589 228.517111 113.919378 232.271147 113.919378 236.951503 Z M 113.919378 236.951503 " transform="matrix(0.0801221, 0, 0, 0.0801221, -1.053242, -1.149116)"/>
</svg>
