<?xml version="1.0" encoding="UTF-8"?>
<svg xmlns="http://www.w3.org/2000/svg" xmlns:xlink="http://www.w3.org/1999/xlink" width="5.593364" height="11" viewBox="0 0 5.593364 11">
<path fill-rule="nonzero" fill="rgb(0%, 0.392157%, 0%)" fill-opacity="1" d="M 5.59375 5.582031 L 0 5.582031 L 0 0 L 5.59375 0 Z M 5.59375 5.582031 "/>
<path fill-rule="nonzero" fill="rgb(80.000001%, 80.000001%, 80.000001%)" fill-opacity="1" d="M 16.59375 11 L 5.59375 11 L 5.59375 0 L 16.59375 0 Z M 16.59375 11 "/>
<path fill-rule="nonzero" fill="rgb(10.196079%, 10.196079%, 10.196079%)" fill-opacity="1" d="M 16.363281 10.742188 L 5.867188 10.742188 L 5.867188 0.234375 L 16.363281 0.234375 Z M 16.363281 10.742188 "/>
<path fill-rule="nonzero" fill="rgb(100%, 100%, 100%)" fill-opacity="1" stroke-width="1.51181" stroke-linecap="round" stroke-linejoin="round" stroke="rgb(0%, 0%, 0%)" stroke-opacity="1" stroke-miterlimit="4" d="M 207.053925 265.375723 L 90.802488 265.375723 L 90.802488 149.124285 L 207.053925 149.124285 Z M 207.053925 265.375723 " transform="matrix(0.0474793, 0, 0, 0.0474793, -4.272172, -1.634997)"/>
<path fill-rule="nonzero" fill="rgb(0%, 0%, 0%)" fill-opacity="1" stroke-width="0.265" stroke-linecap="butt" stroke-linejoin="miter" stroke="rgb(0%, 0%, 0%)" stroke-opacity="1" stroke-miterlimit="4" d="M 13.605085 58.769861 L 3.799987 33.063232 L 7.432446 33.063232 L 15.561024 54.705572 L 23.740406 33.063232 L 27.347462 33.063232 L 17.542365 58.769861 Z M 13.605085 58.769861 " transform="matrix(0.153778, 0, 0, 0.153778, 0.372675, 1.146057)"/>
<path fill-rule="nonzero" fill="rgb(100%, 100%, 100%)" fill-opacity="1" stroke-width="0.4" stroke-linecap="round" stroke-linejoin="round" stroke="rgb(0%, 0%, 0%)" stroke-opacity="1" stroke-miterlimit="4" d="M 27.404125 15.441449 C 27.404125 21.993618 22.092732 27.305012 15.540562 27.305012 C 8.966625 27.305012 3.655232 21.993618 3.655232 15.441449 C 3.655232 8.867511 8.966625 3.556118 15.540562 3.556118 C 22.092732 3.556118 27.404125 8.867511 27.404125 15.441449 Z M 27.404125 15.441449 " transform="matrix(0.179449, 0, 0, 0.179449, -0.027022, -0.0326736)"/>
</svg>
