<?xml version="1.0" encoding="UTF-8"?>
<svg xmlns="http://www.w3.org/2000/svg" xmlns:xlink="http://www.w3.org/1999/xlink" width="10.08928" height="36" viewBox="0 0 10.08928 36">
<path fill-rule="nonzero" fill="rgb(14.901961%, 14.901961%, 14.901961%)" fill-opacity="1" d="M 0 0 L 10.089844 0 L 10.089844 21.804688 L 0 21.804688 Z M 0 0 "/>
<path fill-rule="nonzero" fill="rgb(14.901961%, 14.901961%, 14.901961%)" fill-opacity="1" d="M 5.054688 31.292969 L 10.089844 31.292969 L 10.089844 36 L 5.054688 36 Z M 5.054688 31.292969 "/>
<path fill-rule="nonzero" fill="rgb(14.901961%, 14.901961%, 14.901961%)" fill-opacity="1" d="M 10.039062 31.007812 C 10.039062 33.765625 7.789062 36 5.019531 36 C 2.246094 36 0 33.765625 0 31.007812 C 0 28.253906 2.246094 26.015625 5.019531 26.015625 C 7.789062 26.015625 10.039062 28.253906 10.039062 31.007812 Z M 10.039062 31.007812 "/>
<path fill-rule="nonzero" fill="rgb(49.803922%, 49.803922%, 49.803922%)" fill-opacity="1" d="M 7.023438 4.847656 C 7.023438 5.953125 6.136719 6.847656 5.042969 6.847656 C 3.953125 6.847656 3.066406 5.953125 3.066406 4.847656 C 3.066406 3.742188 3.953125 2.84375 5.042969 2.84375 C 6.136719 2.84375 7.023438 3.742188 7.023438 4.847656 Z M 7.023438 4.847656 "/>
<path fill-rule="nonzero" fill="rgb(99.607843%, 75.294119%, 0%)" fill-opacity="1" d="M 7.023438 10.640625 C 7.023438 11.746094 6.136719 12.640625 5.042969 12.640625 C 3.953125 12.640625 3.066406 11.746094 3.066406 10.640625 C 3.066406 9.535156 3.953125 8.636719 5.042969 8.636719 C 6.136719 8.636719 7.023438 9.535156 7.023438 10.640625 Z M 7.023438 10.640625 "/>
<path fill-rule="nonzero" fill="rgb(49.803922%, 49.803922%, 49.803922%)" fill-opacity="1" d="M 7 16.433594 C 7 17.539062 6.113281 18.433594 5.019531 18.433594 C 3.925781 18.433594 3.039062 17.539062 3.039062 16.433594 C 3.039062 15.328125 3.925781 14.429688 5.019531 14.429688 C 6.113281 14.429688 7 15.328125 7 16.433594 Z M 7 16.433594 "/>
<path fill-rule="nonzero" fill="rgb(14.901961%, 14.901961%, 14.901961%)" fill-opacity="1" stroke-width="0.065303" stroke-linecap="round" stroke-linejoin="round" stroke="rgb(0%, 0%, 0%)" stroke-opacity="1" stroke-dasharray="0.263977 0.248364" stroke-miterlimit="4" d="M 79.194293 189.907895 L 130.808587 189.907895 L 130.808587 240.781698 L 79.194293 240.781698 Z M 79.194293 189.907895 " transform="matrix(0.195183, 0, 0, 0.195183, -15.449546, -15.637053)"/>
<path fill-rule="nonzero" fill="rgb(24.705882%, 24.705882%, 24.705882%)" fill-opacity="1" stroke-width="0.065303" stroke-linecap="round" stroke-linejoin="round" stroke="rgb(0%, 0%, 0%)" stroke-opacity="1" stroke-dasharray="0.263977 0.248364" stroke-miterlimit="4" d="M 87.039506 195.211419 C 87.039506 196.352177 86.098881 197.272789 84.958123 197.272789 C 83.797351 197.272789 82.87674 196.352177 82.87674 195.211419 C 82.87674 194.050648 83.797351 193.130036 84.958123 193.130036 C 86.098881 193.130036 87.039506 194.050648 87.039506 195.211419 Z M 87.039506 195.211419 " transform="matrix(0.195183, 0, 0, 0.195183, -15.449546, -15.637053)"/>
<path fill-rule="nonzero" fill="rgb(24.705882%, 24.705882%, 24.705882%)" fill-opacity="1" stroke-width="0.065303" stroke-linecap="round" stroke-linejoin="round" stroke="rgb(0%, 0%, 0%)" stroke-opacity="1" stroke-dasharray="0.263977 0.248364" stroke-miterlimit="4" d="M 93.543827 195.431565 C 93.543827 196.572323 92.623216 197.512948 91.462444 197.512948 C 90.321686 197.512948 89.381061 196.572323 89.381061 195.431565 C 89.381061 194.270794 90.321686 193.350182 91.462444 193.350182 C 92.623216 193.350182 93.543827 194.270794 93.543827 195.431565 Z M 93.543827 195.431565 " transform="matrix(0.195183, 0, 0, 0.195183, -15.449546, -15.637053)"/>
<path fill-rule="nonzero" fill="rgb(100%, 100%, 100%)" fill-opacity="1" stroke-width="0.065303" stroke-linecap="round" stroke-linejoin="round" stroke="rgb(0%, 0%, 0%)" stroke-opacity="1" stroke-dasharray="0.263977 0.248364" stroke-miterlimit="4" d="M 100.028136 195.231432 C 100.028136 196.392203 99.107524 197.312815 97.946753 197.312815 C 96.805995 197.312815 95.86537 196.392203 95.86537 195.231432 C 95.86537 194.090674 96.805995 193.150049 97.946753 193.150049 C 99.107524 193.150049 100.028136 194.090674 100.028136 195.231432 Z M 100.028136 195.231432 " transform="matrix(0.195183, 0, 0, 0.195183, -15.449546, -15.637053)"/>
<path fill-rule="nonzero" fill="rgb(100%, 100%, 100%)" fill-opacity="1" stroke-width="0.065303" stroke-linecap="round" stroke-linejoin="round" stroke="rgb(0%, 0%, 0%)" stroke-opacity="1" stroke-dasharray="0.263977 0.248364" stroke-miterlimit="4" d="M 106.752604 195.251446 C 106.752604 196.412217 105.811979 197.332828 104.671221 197.332828 C 103.51045 197.332828 102.589838 196.412217 102.589838 195.251446 C 102.589838 194.110688 103.51045 193.170063 104.671221 193.170063 C 105.811979 193.170063 106.752604 194.110688 106.752604 195.251446 Z M 106.752604 195.251446 " transform="matrix(0.195183, 0, 0, 0.195183, -15.449546, -15.637053)"/>
<path fill-rule="nonzero" fill="rgb(100%, 100%, 100%)" fill-opacity="1" stroke-width="0.065303" stroke-linecap="round" stroke-linejoin="round" stroke="rgb(0%, 0%, 0%)" stroke-opacity="1" stroke-dasharray="0.263977 0.248364" stroke-miterlimit="4" d="M 113.397019 195.291472 C 113.397019 196.452243 112.456394 197.372855 111.315636 197.372855 C 110.154864 197.372855 109.234253 196.452243 109.234253 195.291472 C 109.234253 194.150714 110.154864 193.210089 111.315636 193.210089 C 112.456394 193.210089 113.397019 194.150714 113.397019 195.291472 Z M 113.397019 195.291472 " transform="matrix(0.195183, 0, 0, 0.195183, -15.449546, -15.637053)"/>
<path fill-rule="nonzero" fill="rgb(24.705882%, 24.705882%, 24.705882%)" fill-opacity="1" stroke-width="0.065303" stroke-linecap="round" stroke-linejoin="round" stroke="rgb(0%, 0%, 0%)" stroke-opacity="1" stroke-dasharray="0.263977 0.248364" stroke-miterlimit="4" d="M 120.08146 195.371525 C 120.08146 196.512283 119.140835 197.452908 118.000077 197.452908 C 116.839306 197.452908 115.918694 196.512283 115.918694 195.371525 C 115.918694 194.210754 116.839306 193.290142 118.000077 193.290142 C 119.140835 193.290142 120.08146 194.210754 120.08146 195.371525 Z M 120.08146 195.371525 " transform="matrix(0.195183, 0, 0, 0.195183, -15.449546, -15.637053)"/>
<path fill-rule="nonzero" fill="rgb(24.705882%, 24.705882%, 24.705882%)" fill-opacity="1" stroke-width="0.065303" stroke-linecap="round" stroke-linejoin="round" stroke="rgb(0%, 0%, 0%)" stroke-opacity="1" stroke-dasharray="0.263977 0.248364" stroke-miterlimit="4" d="M 126.705861 195.271459 C 126.705861 196.412217 125.78525 197.352842 124.624478 197.352842 C 123.483721 197.352842 122.543096 196.412217 122.543096 195.271459 C 122.543096 194.130701 123.483721 193.190076 124.624478 193.190076 C 125.78525 193.190076 126.705861 194.130701 126.705861 195.271459 Z M 126.705861 195.271459 " transform="matrix(0.195183, 0, 0, 0.195183, -15.449546, -15.637053)"/>
<path fill-rule="nonzero" fill="rgb(24.705882%, 24.705882%, 24.705882%)" fill-opacity="1" stroke-width="0.065303" stroke-linecap="round" stroke-linejoin="round" stroke="rgb(0%, 0%, 0%)" stroke-opacity="1" stroke-dasharray="0.263977 0.248364" stroke-miterlimit="4" d="M 86.899413 201.555634 C 86.899413 202.716406 85.958788 203.637017 84.81803 203.637017 C 83.677272 203.637017 82.736647 202.716406 82.736647 201.555634 C 82.736647 200.414876 83.677272 199.474251 84.81803 199.474251 C 85.958788 199.474251 86.899413 200.414876 86.899413 201.555634 Z M 86.899413 201.555634 " transform="matrix(0.195183, 0, 0, 0.195183, -15.449546, -15.637053)"/>
<path fill-rule="nonzero" fill="rgb(100%, 100%, 100%)" fill-opacity="1" stroke-width="0.065303" stroke-linecap="round" stroke-linejoin="round" stroke="rgb(0%, 0%, 0%)" stroke-opacity="1" stroke-dasharray="0.263977 0.248364" stroke-miterlimit="4" d="M 93.423748 201.775781 C 93.423748 202.936552 92.483123 203.857164 91.342365 203.857164 C 90.181593 203.857164 89.260982 202.936552 89.260982 201.775781 C 89.260982 200.635023 90.181593 199.694398 91.342365 199.694398 C 92.483123 199.694398 93.423748 200.635023 93.423748 201.775781 Z M 93.423748 201.775781 " transform="matrix(0.195183, 0, 0, 0.195183, -15.449546, -15.637053)"/>
<path fill-rule="nonzero" fill="rgb(24.705882%, 24.705882%, 24.705882%)" fill-opacity="1" stroke-width="0.065303" stroke-linecap="round" stroke-linejoin="round" stroke="rgb(0%, 0%, 0%)" stroke-opacity="1" stroke-dasharray="0.263977 0.248364" stroke-miterlimit="4" d="M 99.908056 201.595661 C 99.908056 202.756432 98.967431 203.677044 97.826673 203.677044 C 96.665902 203.677044 95.74529 202.756432 95.74529 201.595661 C 95.74529 200.454903 96.665902 199.514278 97.826673 199.514278 C 98.967431 199.514278 99.908056 200.454903 99.908056 201.595661 Z M 99.908056 201.595661 " transform="matrix(0.195183, 0, 0, 0.195183, -15.449546, -15.637053)"/>
<path fill-rule="nonzero" fill="rgb(24.705882%, 24.705882%, 24.705882%)" fill-opacity="1" stroke-width="0.065303" stroke-linecap="round" stroke-linejoin="round" stroke="rgb(0%, 0%, 0%)" stroke-opacity="1" stroke-dasharray="0.263977 0.248364" stroke-miterlimit="4" d="M 106.612511 201.615674 C 106.612511 202.756432 105.671886 203.697057 104.531128 203.697057 C 103.39037 203.697057 102.449745 202.756432 102.449745 201.615674 C 102.449745 200.454903 103.39037 199.534291 104.531128 199.534291 C 105.671886 199.534291 106.612511 200.454903 106.612511 201.615674 Z M 106.612511 201.615674 " transform="matrix(0.195183, 0, 0, 0.195183, -15.449546, -15.637053)"/>
<path fill-rule="nonzero" fill="rgb(24.705882%, 24.705882%, 24.705882%)" fill-opacity="1" stroke-width="0.065303" stroke-linecap="round" stroke-linejoin="round" stroke="rgb(0%, 0%, 0%)" stroke-opacity="1" stroke-dasharray="0.263977 0.248364" stroke-miterlimit="4" d="M 113.256925 201.655701 C 113.256925 202.796459 112.3163 203.737084 111.175543 203.737084 C 110.014771 203.737084 109.09416 202.796459 109.09416 201.655701 C 109.09416 200.49493 110.014771 199.574318 111.175543 199.574318 C 112.3163 199.574318 113.256925 200.49493 113.256925 201.655701 Z M 113.256925 201.655701 " transform="matrix(0.195183, 0, 0, 0.195183, -15.449546, -15.637053)"/>
<path fill-rule="nonzero" fill="rgb(24.705882%, 24.705882%, 24.705882%)" fill-opacity="1" stroke-width="0.065303" stroke-linecap="round" stroke-linejoin="round" stroke="rgb(0%, 0%, 0%)" stroke-opacity="1" stroke-dasharray="0.263977 0.248364" stroke-miterlimit="4" d="M 119.941367 201.715741 C 119.941367 202.876512 119.000742 203.797124 117.859984 203.797124 C 116.699213 203.797124 115.778601 202.876512 115.778601 201.715741 C 115.778601 200.574983 116.699213 199.634358 117.859984 199.634358 C 119.000742 199.634358 119.941367 200.574983 119.941367 201.715741 Z M 119.941367 201.715741 " transform="matrix(0.195183, 0, 0, 0.195183, -15.449546, -15.637053)"/>
<path fill-rule="nonzero" fill="rgb(24.705882%, 24.705882%, 24.705882%)" fill-opacity="1" stroke-width="0.065303" stroke-linecap="round" stroke-linejoin="round" stroke="rgb(0%, 0%, 0%)" stroke-opacity="1" stroke-dasharray="0.263977 0.248364" stroke-miterlimit="4" d="M 126.565768 201.635687 C 126.565768 202.776445 125.645157 203.71707 124.484385 203.71707 C 123.343627 203.71707 122.403002 202.776445 122.403002 201.635687 C 122.403002 200.474916 123.343627 199.554305 124.484385 199.554305 C 125.645157 199.554305 126.565768 200.474916 126.565768 201.635687 Z M 126.565768 201.635687 " transform="matrix(0.195183, 0, 0, 0.195183, -15.449546, -15.637053)"/>
<path fill-rule="nonzero" fill="rgb(24.705882%, 24.705882%, 24.705882%)" fill-opacity="1" stroke-width="0.065303" stroke-linecap="round" stroke-linejoin="round" stroke="rgb(0%, 0%, 0%)" stroke-opacity="1" stroke-dasharray="0.263977 0.248364" stroke-miterlimit="4" d="M 86.939439 208.440209 C 86.939439 209.580967 86.018827 210.521592 84.858056 210.521592 C 83.717298 210.521592 82.776673 209.580967 82.776673 208.440209 C 82.776673 207.279437 83.717298 206.358826 84.858056 206.358826 C 86.018827 206.358826 86.939439 207.279437 86.939439 208.440209 Z M 86.939439 208.440209 " transform="matrix(0.195183, 0, 0, 0.195183, -15.449546, -15.637053)"/>
<path fill-rule="nonzero" fill="rgb(100%, 100%, 100%)" fill-opacity="1" stroke-width="0.065303" stroke-linecap="round" stroke-linejoin="round" stroke="rgb(0%, 0%, 0%)" stroke-opacity="1" stroke-dasharray="0.263977 0.248364" stroke-miterlimit="4" d="M 93.463774 208.660355 C 93.463774 209.801113 92.523149 210.741738 91.382391 210.741738 C 90.241633 210.741738 89.301008 209.801113 89.301008 208.660355 C 89.301008 207.499584 90.241633 206.578972 91.382391 206.578972 C 92.523149 206.578972 93.463774 207.499584 93.463774 208.660355 Z M 93.463774 208.660355 " transform="matrix(0.195183, 0, 0, 0.195183, -15.449546, -15.637053)"/>
<path fill-rule="nonzero" fill="rgb(24.705882%, 24.705882%, 24.705882%)" fill-opacity="1" stroke-width="0.065303" stroke-linecap="round" stroke-linejoin="round" stroke="rgb(0%, 0%, 0%)" stroke-opacity="1" stroke-dasharray="0.263977 0.248364" stroke-miterlimit="4" d="M 99.948083 208.480235 C 99.948083 209.620993 99.007458 210.561618 97.8667 210.561618 C 96.725942 210.561618 95.785317 209.620993 95.785317 208.480235 C 95.785317 207.319464 96.725942 206.398852 97.8667 206.398852 C 99.007458 206.398852 99.948083 207.319464 99.948083 208.480235 Z M 99.948083 208.480235 " transform="matrix(0.195183, 0, 0, 0.195183, -15.449546, -15.637053)"/>
<path fill-rule="nonzero" fill="rgb(24.705882%, 24.705882%, 24.705882%)" fill-opacity="1" stroke-width="0.065303" stroke-linecap="round" stroke-linejoin="round" stroke="rgb(0%, 0%, 0%)" stroke-opacity="1" stroke-dasharray="0.263977 0.248364" stroke-miterlimit="4" d="M 106.652537 208.480235 C 106.652537 209.641007 105.731926 210.561618 104.571154 210.561618 C 103.430396 210.561618 102.489771 209.641007 102.489771 208.480235 C 102.489771 207.339477 103.430396 206.398852 104.571154 206.398852 C 105.731926 206.398852 106.652537 207.339477 106.652537 208.480235 Z M 106.652537 208.480235 " transform="matrix(0.195183, 0, 0, 0.195183, -15.449546, -15.637053)"/>
<path fill-rule="nonzero" fill="rgb(24.705882%, 24.705882%, 24.705882%)" fill-opacity="1" stroke-width="0.065303" stroke-linecap="round" stroke-linejoin="round" stroke="rgb(0%, 0%, 0%)" stroke-opacity="1" stroke-dasharray="0.263977 0.248364" stroke-miterlimit="4" d="M 113.296952 208.520262 C 113.296952 209.681033 112.37634 210.601645 111.215569 210.601645 C 110.074811 210.601645 109.134186 209.681033 109.134186 208.520262 C 109.134186 207.379504 110.074811 206.438879 111.215569 206.438879 C 112.37634 206.438879 113.296952 207.379504 113.296952 208.520262 Z M 113.296952 208.520262 " transform="matrix(0.195183, 0, 0, 0.195183, -15.449546, -15.637053)"/>
<path fill-rule="nonzero" fill="rgb(24.705882%, 24.705882%, 24.705882%)" fill-opacity="1" stroke-width="0.065303" stroke-linecap="round" stroke-linejoin="round" stroke="rgb(0%, 0%, 0%)" stroke-opacity="1" stroke-dasharray="0.263977 0.248364" stroke-miterlimit="4" d="M 119.981393 208.600315 C 119.981393 209.741073 119.060782 210.681698 117.900011 210.681698 C 116.759253 210.681698 115.818628 209.741073 115.818628 208.600315 C 115.818628 207.439544 116.759253 206.518932 117.900011 206.518932 C 119.060782 206.518932 119.981393 207.439544 119.981393 208.600315 Z M 119.981393 208.600315 " transform="matrix(0.195183, 0, 0, 0.195183, -15.449546, -15.637053)"/>
<path fill-rule="nonzero" fill="rgb(24.705882%, 24.705882%, 24.705882%)" fill-opacity="1" stroke-width="0.065303" stroke-linecap="round" stroke-linejoin="round" stroke="rgb(0%, 0%, 0%)" stroke-opacity="1" stroke-dasharray="0.263977 0.248364" stroke-miterlimit="4" d="M 126.625808 208.500249 C 126.625808 209.66102 125.685183 210.581631 124.544425 210.581631 C 123.383654 210.581631 122.463042 209.66102 122.463042 208.500249 C 122.463042 207.359491 123.383654 206.418866 124.544425 206.418866 C 125.685183 206.418866 126.625808 207.359491 126.625808 208.500249 Z M 126.625808 208.500249 " transform="matrix(0.195183, 0, 0, 0.195183, -15.449546, -15.637053)"/>
<path fill-rule="nonzero" fill="rgb(24.705882%, 24.705882%, 24.705882%)" fill-opacity="1" stroke-width="0.065303" stroke-linecap="round" stroke-linejoin="round" stroke="rgb(0%, 0%, 0%)" stroke-opacity="1" stroke-dasharray="0.263977 0.248364" stroke-miterlimit="4" d="M 87.099546 215.104637 C 87.099546 216.265408 86.178934 217.18602 85.018163 217.18602 C 83.877405 217.18602 82.93678 216.265408 82.93678 215.104637 C 82.93678 213.963879 83.877405 213.023254 85.018163 213.023254 C 86.178934 213.023254 87.099546 213.963879 87.099546 215.104637 Z M 87.099546 215.104637 " transform="matrix(0.195183, 0, 0, 0.195183, -15.449546, -15.637053)"/>
<path fill-rule="nonzero" fill="rgb(24.705882%, 24.705882%, 24.705882%)" fill-opacity="1" stroke-width="0.065303" stroke-linecap="round" stroke-linejoin="round" stroke="rgb(0%, 0%, 0%)" stroke-opacity="1" stroke-dasharray="0.263977 0.248364" stroke-miterlimit="4" d="M 93.623881 215.324783 C 93.623881 216.485554 92.683256 217.406166 91.542498 217.406166 C 90.381726 217.406166 89.461115 216.485554 89.461115 215.324783 C 89.461115 214.184025 90.381726 213.2434 91.542498 213.2434 C 92.683256 213.2434 93.623881 214.184025 93.623881 215.324783 Z M 93.623881 215.324783 " transform="matrix(0.195183, 0, 0, 0.195183, -15.449546, -15.637053)"/>
<path fill-rule="nonzero" fill="rgb(100%, 100%, 100%)" fill-opacity="1" stroke-width="0.065303" stroke-linecap="round" stroke-linejoin="round" stroke="rgb(0%, 0%, 0%)" stroke-opacity="1" stroke-dasharray="0.263977 0.248364" stroke-miterlimit="4" d="M 100.108189 215.144663 C 100.108189 216.305435 99.167564 217.226046 98.026806 217.226046 C 96.866035 217.226046 95.945423 216.305435 95.945423 215.144663 C 95.945423 214.003905 96.866035 213.06328 98.026806 213.06328 C 99.167564 213.06328 100.108189 214.003905 100.108189 215.144663 Z M 100.108189 215.144663 " transform="matrix(0.195183, 0, 0, 0.195183, -15.449546, -15.637053)"/>
<path fill-rule="nonzero" fill="rgb(100%, 100%, 100%)" fill-opacity="1" stroke-width="0.065303" stroke-linecap="round" stroke-linejoin="round" stroke="rgb(0%, 0%, 0%)" stroke-opacity="1" stroke-dasharray="0.263977 0.248364" stroke-miterlimit="4" d="M 106.812644 215.164677 C 106.812644 216.325448 105.892032 217.24606 104.731261 217.24606 C 103.590503 217.24606 102.649878 216.325448 102.649878 215.164677 C 102.649878 214.023919 103.590503 213.083294 104.731261 213.083294 C 105.892032 213.083294 106.812644 214.023919 106.812644 215.164677 Z M 106.812644 215.164677 " transform="matrix(0.195183, 0, 0, 0.195183, -15.449546, -15.637053)"/>
<path fill-rule="nonzero" fill="rgb(100%, 100%, 100%)" fill-opacity="1" stroke-width="0.065303" stroke-linecap="round" stroke-linejoin="round" stroke="rgb(0%, 0%, 0%)" stroke-opacity="1" stroke-dasharray="0.263977 0.248364" stroke-miterlimit="4" d="M 113.457058 215.204703 C 113.457058 216.345461 112.536447 217.286086 111.375675 217.286086 C 110.234918 217.286086 109.294293 216.345461 109.294293 215.204703 C 109.294293 214.063945 110.234918 213.12332 111.375675 213.12332 C 112.536447 213.12332 113.457058 214.063945 113.457058 215.204703 Z M 113.457058 215.204703 " transform="matrix(0.195183, 0, 0, 0.195183, -15.449546, -15.637053)"/>
<path fill-rule="nonzero" fill="rgb(24.705882%, 24.705882%, 24.705882%)" fill-opacity="1" stroke-width="0.065303" stroke-linecap="round" stroke-linejoin="round" stroke="rgb(0%, 0%, 0%)" stroke-opacity="1" stroke-dasharray="0.263977 0.248364" stroke-miterlimit="4" d="M 120.1415 215.284756 C 120.1415 216.425514 119.220888 217.366139 118.060117 217.366139 C 116.919359 217.366139 115.978734 216.425514 115.978734 215.284756 C 115.978734 214.123985 116.919359 213.203373 118.060117 213.203373 C 119.220888 213.203373 120.1415 214.123985 120.1415 215.284756 Z M 120.1415 215.284756 " transform="matrix(0.195183, 0, 0, 0.195183, -15.449546, -15.637053)"/>
<path fill-rule="nonzero" fill="rgb(24.705882%, 24.705882%, 24.705882%)" fill-opacity="1" stroke-width="0.065303" stroke-linecap="round" stroke-linejoin="round" stroke="rgb(0%, 0%, 0%)" stroke-opacity="1" stroke-dasharray="0.263977 0.248364" stroke-miterlimit="4" d="M 126.785915 215.18469 C 126.785915 216.325448 125.84529 217.266073 124.704532 217.266073 C 123.54376 217.266073 122.623149 216.325448 122.623149 215.18469 C 122.623149 214.023919 123.54376 213.103307 124.704532 213.103307 C 125.84529 213.103307 126.785915 214.023919 126.785915 215.18469 Z M 126.785915 215.18469 " transform="matrix(0.195183, 0, 0, 0.195183, -15.449546, -15.637053)"/>
<path fill-rule="nonzero" fill="rgb(24.705882%, 24.705882%, 24.705882%)" fill-opacity="1" stroke-width="0.065303" stroke-linecap="round" stroke-linejoin="round" stroke="rgb(0%, 0%, 0%)" stroke-opacity="1" stroke-dasharray="0.263977 0.248364" stroke-miterlimit="4" d="M 86.899413 221.528905 C 86.899413 222.669663 85.978801 223.610288 84.81803 223.610288 C 83.677272 223.610288 82.736647 222.669663 82.736647 221.528905 C 82.736647 220.388147 83.677272 219.447522 84.81803 219.447522 C 85.978801 219.447522 86.899413 220.388147 86.899413 221.528905 Z M 86.899413 221.528905 " transform="matrix(0.195183, 0, 0, 0.195183, -15.449546, -15.637053)"/>
<path fill-rule="nonzero" fill="rgb(100%, 100%, 100%)" fill-opacity="1" stroke-width="0.065303" stroke-linecap="round" stroke-linejoin="round" stroke="rgb(0%, 0%, 0%)" stroke-opacity="1" stroke-dasharray="0.263977 0.248364" stroke-miterlimit="4" d="M 93.423748 221.749052 C 93.423748 222.88981 92.483123 223.830435 91.342365 223.830435 C 90.201607 223.830435 89.260982 222.88981 89.260982 221.749052 C 89.260982 220.608294 90.201607 219.667669 91.342365 219.667669 C 92.483123 219.667669 93.423748 220.608294 93.423748 221.749052 Z M 93.423748 221.749052 " transform="matrix(0.195183, 0, 0, 0.195183, -15.449546, -15.637053)"/>
<path fill-rule="nonzero" fill="rgb(24.705882%, 24.705882%, 24.705882%)" fill-opacity="1" stroke-width="0.065303" stroke-linecap="round" stroke-linejoin="round" stroke="rgb(0%, 0%, 0%)" stroke-opacity="1" stroke-dasharray="0.263977 0.248364" stroke-miterlimit="4" d="M 99.908056 221.568932 C 99.908056 222.70969 98.967431 223.650315 97.826673 223.650315 C 96.685915 223.650315 95.74529 222.70969 95.74529 221.568932 C 95.74529 220.408161 96.685915 219.487549 97.826673 219.487549 C 98.967431 219.487549 99.908056 220.408161 99.908056 221.568932 Z M 99.908056 221.568932 " transform="matrix(0.195183, 0, 0, 0.195183, -15.449546, -15.637053)"/>
<path fill-rule="nonzero" fill="rgb(24.705882%, 24.705882%, 24.705882%)" fill-opacity="1" stroke-width="0.065303" stroke-linecap="round" stroke-linejoin="round" stroke="rgb(0%, 0%, 0%)" stroke-opacity="1" stroke-dasharray="0.263977 0.248364" stroke-miterlimit="4" d="M 106.612511 221.588945 C 106.612511 222.729703 105.691899 223.670328 104.531128 223.670328 C 103.39037 223.670328 102.469758 222.729703 102.469758 221.588945 C 102.469758 220.428174 103.39037 219.507562 104.531128 219.507562 C 105.691899 219.507562 106.612511 220.428174 106.612511 221.588945 Z M 106.612511 221.588945 " transform="matrix(0.195183, 0, 0, 0.195183, -15.449546, -15.637053)"/>
<path fill-rule="nonzero" fill="rgb(24.705882%, 24.705882%, 24.705882%)" fill-opacity="1" stroke-width="0.065303" stroke-linecap="round" stroke-linejoin="round" stroke="rgb(0%, 0%, 0%)" stroke-opacity="1" stroke-dasharray="0.263977 0.248364" stroke-miterlimit="4" d="M 113.256925 221.628972 C 113.256925 222.76973 112.336314 223.710355 111.175543 223.710355 C 110.034785 223.710355 109.09416 222.76973 109.09416 221.628972 C 109.09416 220.468201 110.034785 219.547589 111.175543 219.547589 C 112.336314 219.547589 113.256925 220.468201 113.256925 221.628972 Z M 113.256925 221.628972 " transform="matrix(0.195183, 0, 0, 0.195183, -15.449546, -15.637053)"/>
<path fill-rule="nonzero" fill="rgb(100%, 100%, 100%)" fill-opacity="1" stroke-width="0.065303" stroke-linecap="round" stroke-linejoin="round" stroke="rgb(0%, 0%, 0%)" stroke-opacity="1" stroke-dasharray="0.263977 0.248364" stroke-miterlimit="4" d="M 119.941367 221.689012 C 119.941367 222.849783 119.020755 223.770395 117.859984 223.770395 C 116.719226 223.770395 115.778601 222.849783 115.778601 221.689012 C 115.778601 220.548254 116.719226 219.607629 117.859984 219.607629 C 119.020755 219.607629 119.941367 220.548254 119.941367 221.689012 Z M 119.941367 221.689012 " transform="matrix(0.195183, 0, 0, 0.195183, -15.449546, -15.637053)"/>
<path fill-rule="nonzero" fill="rgb(24.705882%, 24.705882%, 24.705882%)" fill-opacity="1" stroke-width="0.065303" stroke-linecap="round" stroke-linejoin="round" stroke="rgb(0%, 0%, 0%)" stroke-opacity="1" stroke-dasharray="0.263977 0.248364" stroke-miterlimit="4" d="M 126.585782 221.588945 C 126.585782 222.749716 125.645157 223.670328 124.504399 223.670328 C 123.343627 223.670328 122.423016 222.749716 122.423016 221.588945 C 122.423016 220.448187 123.343627 219.507562 124.504399 219.507562 C 125.645157 219.507562 126.585782 220.448187 126.585782 221.588945 Z M 126.585782 221.588945 " transform="matrix(0.195183, 0, 0, 0.195183, -15.449546, -15.637053)"/>
<path fill-rule="nonzero" fill="rgb(24.705882%, 24.705882%, 24.705882%)" fill-opacity="1" stroke-width="0.065303" stroke-linecap="round" stroke-linejoin="round" stroke="rgb(0%, 0%, 0%)" stroke-opacity="1" stroke-dasharray="0.263977 0.248364" stroke-miterlimit="4" d="M 86.919426 228.333426 C 86.919426 229.474184 85.998814 230.414809 84.838043 230.414809 C 83.697285 230.414809 82.75666 229.474184 82.75666 228.333426 C 82.75666 227.172655 83.697285 226.252044 84.838043 226.252044 C 85.998814 226.252044 86.919426 227.172655 86.919426 228.333426 Z M 86.919426 228.333426 " transform="matrix(0.195183, 0, 0, 0.195183, -15.449546, -15.637053)"/>
<path fill-rule="nonzero" fill="rgb(100%, 100%, 100%)" fill-opacity="1" stroke-width="0.065303" stroke-linecap="round" stroke-linejoin="round" stroke="rgb(0%, 0%, 0%)" stroke-opacity="1" stroke-dasharray="0.263977 0.248364" stroke-miterlimit="4" d="M 93.443761 228.553573 C 93.443761 229.694331 92.503136 230.634956 91.362378 230.634956 C 90.201607 230.634956 89.280995 229.694331 89.280995 228.553573 C 89.280995 227.392801 90.201607 226.47219 91.362378 226.47219 C 92.503136 226.47219 93.443761 227.392801 93.443761 228.553573 Z M 93.443761 228.553573 " transform="matrix(0.195183, 0, 0, 0.195183, -15.449546, -15.637053)"/>
<path fill-rule="nonzero" fill="rgb(24.705882%, 24.705882%, 24.705882%)" fill-opacity="1" stroke-width="0.065303" stroke-linecap="round" stroke-linejoin="round" stroke="rgb(0%, 0%, 0%)" stroke-opacity="1" stroke-dasharray="0.263977 0.248364" stroke-miterlimit="4" d="M 99.928069 228.373453 C 99.928069 229.514211 98.987444 230.454836 97.846686 230.454836 C 96.685915 230.454836 95.765303 229.514211 95.765303 228.373453 C 95.765303 227.212682 96.685915 226.29207 97.846686 226.29207 C 98.987444 226.29207 99.928069 227.212682 99.928069 228.373453 Z M 99.928069 228.373453 " transform="matrix(0.195183, 0, 0, 0.195183, -15.449546, -15.637053)"/>
<path fill-rule="nonzero" fill="rgb(24.705882%, 24.705882%, 24.705882%)" fill-opacity="1" stroke-width="0.065303" stroke-linecap="round" stroke-linejoin="round" stroke="rgb(0%, 0%, 0%)" stroke-opacity="1" stroke-dasharray="0.263977 0.248364" stroke-miterlimit="4" d="M 106.632524 228.393466 C 106.632524 229.534224 105.711912 230.474849 104.551141 230.474849 C 103.410383 230.474849 102.469758 229.534224 102.469758 228.393466 C 102.469758 227.232695 103.410383 226.312083 104.551141 226.312083 C 105.711912 226.312083 106.632524 227.232695 106.632524 228.393466 Z M 106.632524 228.393466 " transform="matrix(0.195183, 0, 0, 0.195183, -15.449546, -15.637053)"/>
<path fill-rule="nonzero" fill="rgb(24.705882%, 24.705882%, 24.705882%)" fill-opacity="1" stroke-width="0.065303" stroke-linecap="round" stroke-linejoin="round" stroke="rgb(0%, 0%, 0%)" stroke-opacity="1" stroke-dasharray="0.263977 0.248364" stroke-miterlimit="4" d="M 113.276939 228.41348 C 113.276939 229.574251 112.336314 230.494863 111.195556 230.494863 C 110.054798 230.494863 109.114173 229.574251 109.114173 228.41348 C 109.114173 227.272722 110.054798 226.332097 111.195556 226.332097 C 112.336314 226.332097 113.276939 227.272722 113.276939 228.41348 Z M 113.276939 228.41348 " transform="matrix(0.195183, 0, 0, 0.195183, -15.449546, -15.637053)"/>
<path fill-rule="nonzero" fill="rgb(100%, 100%, 100%)" fill-opacity="1" stroke-width="0.065303" stroke-linecap="round" stroke-linejoin="round" stroke="rgb(0%, 0%, 0%)" stroke-opacity="1" stroke-dasharray="0.263977 0.248364" stroke-miterlimit="4" d="M 119.96138 228.493533 C 119.96138 229.634291 119.020755 230.574916 117.879997 230.574916 C 116.739239 230.574916 115.798614 229.634291 115.798614 228.493533 C 115.798614 227.352775 116.739239 226.41215 117.879997 226.41215 C 119.020755 226.41215 119.96138 227.352775 119.96138 228.493533 Z M 119.96138 228.493533 " transform="matrix(0.195183, 0, 0, 0.195183, -15.449546, -15.637053)"/>
<path fill-rule="nonzero" fill="rgb(24.705882%, 24.705882%, 24.705882%)" fill-opacity="1" stroke-width="0.065303" stroke-linecap="round" stroke-linejoin="round" stroke="rgb(0%, 0%, 0%)" stroke-opacity="1" stroke-dasharray="0.263977 0.248364" stroke-miterlimit="4" d="M 126.605795 228.393466 C 126.605795 229.554238 125.66517 230.474849 124.524412 230.474849 C 123.363641 230.474849 122.443029 229.554238 122.443029 228.393466 C 122.443029 227.252708 123.363641 226.312083 124.524412 226.312083 C 125.66517 226.312083 126.605795 227.252708 126.605795 228.393466 Z M 126.605795 228.393466 " transform="matrix(0.195183, 0, 0, 0.195183, -15.449546, -15.637053)"/>
<path fill-rule="nonzero" fill="rgb(24.705882%, 24.705882%, 24.705882%)" fill-opacity="1" stroke-width="0.065303" stroke-linecap="round" stroke-linejoin="round" stroke="rgb(0%, 0%, 0%)" stroke-opacity="1" stroke-dasharray="0.263977 0.248364" stroke-miterlimit="4" d="M 87.059519 235.157961 C 87.059519 236.298719 86.118894 237.239344 84.978136 237.239344 C 83.817365 237.239344 82.896753 236.298719 82.896753 235.157961 C 82.896753 234.017203 83.817365 233.076578 84.978136 233.076578 C 86.118894 233.076578 87.059519 234.017203 87.059519 235.157961 Z M 87.059519 235.157961 " transform="matrix(0.195183, 0, 0, 0.195183, -15.449546, -15.637053)"/>
<path fill-rule="nonzero" fill="rgb(24.705882%, 24.705882%, 24.705882%)" fill-opacity="1" stroke-width="0.065303" stroke-linecap="round" stroke-linejoin="round" stroke="rgb(0%, 0%, 0%)" stroke-opacity="1" stroke-dasharray="0.263977 0.248364" stroke-miterlimit="4" d="M 93.563841 235.378107 C 93.563841 236.518865 92.643229 237.45949 91.502471 237.45949 C 90.3417 237.45949 89.421088 236.518865 89.421088 235.378107 C 89.421088 234.237349 90.3417 233.296724 91.502471 233.296724 C 92.643229 233.296724 93.563841 234.237349 93.563841 235.378107 Z M 93.563841 235.378107 " transform="matrix(0.195183, 0, 0, 0.195183, -15.449546, -15.637053)"/>
<path fill-rule="nonzero" fill="rgb(100%, 100%, 100%)" fill-opacity="1" stroke-width="0.065303" stroke-linecap="round" stroke-linejoin="round" stroke="rgb(0%, 0%, 0%)" stroke-opacity="1" stroke-dasharray="0.263977 0.248364" stroke-miterlimit="4" d="M 100.048149 235.197988 C 100.048149 236.338746 99.127537 237.27937 97.966766 237.27937 C 96.826008 237.27937 95.905396 236.338746 95.905396 235.197988 C 95.905396 234.05723 96.826008 233.116605 97.966766 233.116605 C 99.127537 233.116605 100.048149 234.05723 100.048149 235.197988 Z M 100.048149 235.197988 " transform="matrix(0.195183, 0, 0, 0.195183, -15.449546, -15.637053)"/>
<path fill-rule="nonzero" fill="rgb(100%, 100%, 100%)" fill-opacity="1" stroke-width="0.065303" stroke-linecap="round" stroke-linejoin="round" stroke="rgb(0%, 0%, 0%)" stroke-opacity="1" stroke-dasharray="0.263977 0.248364" stroke-miterlimit="4" d="M 106.772617 235.218001 C 106.772617 236.358759 105.831992 237.299384 104.691234 237.299384 C 103.550476 237.299384 102.609851 236.358759 102.609851 235.218001 C 102.609851 234.05723 103.550476 233.136618 104.691234 233.136618 C 105.831992 233.136618 106.772617 234.05723 106.772617 235.218001 Z M 106.772617 235.218001 " transform="matrix(0.195183, 0, 0, 0.195183, -15.449546, -15.637053)"/>
<path fill-rule="nonzero" fill="rgb(100%, 100%, 100%)" fill-opacity="1" stroke-width="0.065303" stroke-linecap="round" stroke-linejoin="round" stroke="rgb(0%, 0%, 0%)" stroke-opacity="1" stroke-dasharray="0.263977 0.248364" stroke-miterlimit="4" d="M 113.417032 235.258027 C 113.417032 236.398785 112.476407 237.33941 111.335649 237.33941 C 110.174878 237.33941 109.254266 236.398785 109.254266 235.258027 C 109.254266 234.097256 110.174878 233.176644 111.335649 233.176644 C 112.476407 233.176644 113.417032 234.097256 113.417032 235.258027 Z M 113.417032 235.258027 " transform="matrix(0.195183, 0, 0, 0.195183, -15.449546, -15.637053)"/>
<path fill-rule="nonzero" fill="rgb(24.705882%, 24.705882%, 24.705882%)" fill-opacity="1" stroke-width="0.065303" stroke-linecap="round" stroke-linejoin="round" stroke="rgb(0%, 0%, 0%)" stroke-opacity="1" stroke-dasharray="0.263977 0.248364" stroke-miterlimit="4" d="M 120.101473 235.318067 C 120.101473 236.478839 119.160848 237.39945 118.02009 237.39945 C 116.859319 237.39945 115.938707 236.478839 115.938707 235.318067 C 115.938707 234.177309 116.859319 233.236684 118.02009 233.236684 C 119.160848 233.236684 120.101473 234.177309 120.101473 235.318067 Z M 120.101473 235.318067 " transform="matrix(0.195183, 0, 0, 0.195183, -15.449546, -15.637053)"/>
<path fill-rule="nonzero" fill="rgb(24.705882%, 24.705882%, 24.705882%)" fill-opacity="1" stroke-width="0.065303" stroke-linecap="round" stroke-linejoin="round" stroke="rgb(0%, 0%, 0%)" stroke-opacity="1" stroke-dasharray="0.263977 0.248364" stroke-miterlimit="4" d="M 126.725875 235.218001 C 126.725875 236.378772 125.805263 237.299384 124.644492 237.299384 C 123.503734 237.299384 122.563109 236.378772 122.563109 235.218001 C 122.563109 234.077243 123.503734 233.136618 124.644492 233.136618 C 125.805263 233.136618 126.725875 234.077243 126.725875 235.218001 Z M 126.725875 235.218001 " transform="matrix(0.195183, 0, 0, 0.195183, -15.449546, -15.637053)"/>
</svg>
