<?xml version="1.0" encoding="UTF-8"?>
<svg xmlns="http://www.w3.org/2000/svg" xmlns:xlink="http://www.w3.org/1999/xlink" width="10.360739" height="22" viewBox="0 0 10.360739 22">
<path fill-rule="nonzero" fill="rgb(14.901961%, 14.901961%, 14.901961%)" fill-opacity="1" d="M 0 0 L 10.359375 0 L 10.359375 17.167969 L 0 17.167969 Z M 0 0 "/>
<path fill-rule="nonzero" fill="rgb(14.901961%, 14.901961%, 14.901961%)" fill-opacity="1" d="M 5.191406 17.167969 L 10.359375 17.167969 L 10.359375 22 L 5.191406 22 Z M 5.191406 17.167969 "/>
<path fill-rule="nonzero" fill="rgb(14.901961%, 14.901961%, 14.901961%)" fill-opacity="1" d="M 10.308594 16.875 C 10.308594 19.707031 8 22 5.152344 22 C 2.308594 22 0 19.707031 0 16.875 C 0 14.042969 2.308594 11.75 5.152344 11.75 C 8 11.75 10.308594 14.042969 10.308594 16.875 Z M 10.308594 16.875 "/>
<path fill-rule="nonzero" fill="rgb(49.803922%, 49.803922%, 49.803922%)" fill-opacity="1" d="M 7.214844 4.976562 C 7.214844 6.113281 6.304688 7.035156 5.179688 7.035156 C 4.058594 7.035156 3.148438 6.113281 3.148438 4.976562 C 3.148438 3.84375 4.058594 2.921875 5.179688 2.921875 C 6.304688 2.921875 7.214844 3.84375 7.214844 4.976562 Z M 7.214844 4.976562 "/>
<path fill-rule="nonzero" fill="rgb(99.607843%, 75.294119%, 0%)" fill-opacity="1" d="M 7.214844 10.925781 C 7.214844 12.0625 6.304688 12.980469 5.179688 12.980469 C 4.058594 12.980469 3.148438 12.0625 3.148438 10.925781 C 3.148438 9.789062 4.058594 8.871094 5.179688 8.871094 C 6.304688 8.871094 7.214844 9.789062 7.214844 10.925781 Z M 7.214844 10.925781 "/>
<path fill-rule="nonzero" fill="rgb(49.803922%, 49.803922%, 49.803922%)" fill-opacity="1" d="M 7.1875 16.875 C 7.1875 18.011719 6.277344 18.929688 5.152344 18.929688 C 4.03125 18.929688 3.121094 18.011719 3.121094 16.875 C 3.121094 15.738281 4.03125 14.816406 5.152344 14.816406 C 6.277344 14.816406 7.1875 15.738281 7.1875 16.875 Z M 7.1875 16.875 "/>
</svg>
