<?xml version="1.0" encoding="UTF-8"?>
<svg xmlns="http://www.w3.org/2000/svg" xmlns:xlink="http://www.w3.org/1999/xlink" width="12.5" height="26.54251" viewBox="0 0 12.5 26.54251">
<path fill-rule="nonzero" fill="rgb(14.901961%, 14.901961%, 14.901961%)" fill-opacity="1" d="M 0 0 L 12.5 0 L 12.5 20.714844 L 0 20.714844 Z M 0 0 "/>
<path fill-rule="nonzero" fill="rgb(14.901961%, 14.901961%, 14.901961%)" fill-opacity="1" d="M 6.265625 20.714844 L 12.5 20.714844 L 12.5 26.539062 L 6.265625 26.539062 Z M 6.265625 20.714844 "/>
<path fill-rule="nonzero" fill="rgb(14.901961%, 14.901961%, 14.901961%)" fill-opacity="1" d="M 12.4375 20.359375 C 12.4375 23.777344 9.652344 26.539062 6.21875 26.539062 C 2.785156 26.539062 0 23.777344 0 20.359375 C 0 16.941406 2.785156 14.175781 6.21875 14.175781 C 9.652344 14.175781 12.4375 16.941406 12.4375 20.359375 Z M 12.4375 20.359375 "/>
<path fill-rule="nonzero" fill="rgb(49.803922%, 49.803922%, 49.803922%)" fill-opacity="1" d="M 8.707031 6.003906 C 8.707031 7.375 7.605469 8.488281 6.25 8.488281 C 4.898438 8.488281 3.796875 7.375 3.796875 6.003906 C 3.796875 4.636719 4.898438 3.527344 6.25 3.527344 C 7.605469 3.527344 8.707031 4.636719 8.707031 6.003906 Z M 8.707031 6.003906 "/>
<path fill-rule="nonzero" fill="rgb(99.607843%, 75.294118%, 0%)" fill-opacity="1" d="M 8.707031 13.179688 C 8.707031 14.554688 7.605469 15.660156 6.25 15.660156 C 4.898438 15.660156 3.796875 14.554688 3.796875 13.179688 C 3.796875 11.808594 4.898438 10.703125 6.25 10.703125 C 7.605469 10.703125 8.707031 11.808594 8.707031 13.179688 Z M 8.707031 13.179688 "/>
<path fill-rule="nonzero" fill="rgb(49.803922%, 49.803922%, 49.803922%)" fill-opacity="1" d="M 8.671875 20.359375 C 8.671875 21.730469 7.574219 22.835938 6.21875 22.835938 C 4.863281 22.835938 3.765625 21.730469 3.765625 20.359375 C 3.765625 18.988281 4.863281 17.875 6.21875 17.875 C 7.574219 17.875 8.671875 18.988281 8.671875 20.359375 Z M 8.671875 20.359375 "/>
</svg>
