<?xml version="1.0" encoding="UTF-8"?>
<svg xmlns="http://www.w3.org/2000/svg" xmlns:xlink="http://www.w3.org/1999/xlink" width="14.938779" height="20" viewBox="0 0 14.938779 20">
<path fill-rule="nonzero" fill="rgb(14.901961%, 14.901961%, 14.901961%)" fill-opacity="1" stroke-width="0.306371" stroke-linecap="round" stroke-linejoin="round" stroke="rgb(0%, 0%, 0%)" stroke-opacity="1" stroke-dasharray="0.604282 0.789321" stroke-miterlimit="4" d="M 6.600511 -0.0454256 L 202.467023 -0.0454256 C 205.678842 -0.0454256 208.346284 2.56758 208.346284 5.833836 L 208.346284 272.469238 C 208.346284 275.735494 205.678842 278.348499 202.467023 278.348499 L 6.600511 278.348499 C 3.334255 278.348499 0.721249 275.735494 0.721249 272.469238 L 0.721249 5.833836 C 0.721249 2.56758 3.334255 -0.0454256 6.600511 -0.0454256 Z M 6.600511 -0.0454256 " transform="matrix(0.0717565, 0, 0, 0.0717565, -0.0205043, 0.0149783)"/>
<path fill-rule="nonzero" fill="rgb(100%, 100%, 100%)" fill-opacity="1" stroke-width="0.264999" stroke-linecap="round" stroke-linejoin="round" stroke="rgb(0%, 0%, 0%)" stroke-opacity="1" stroke-dasharray="0.640836 0.752767" stroke-miterlimit="4" d="M 41.331705 32.508264 C 41.331705 37.189898 37.521072 40.946093 32.839438 40.946093 C 28.212241 40.946093 24.401609 37.189898 24.401609 32.508264 C 24.401609 27.881067 28.212241 24.070435 32.839438 24.070435 C 37.521072 24.070435 41.331705 27.881067 41.331705 32.508264 Z M 41.331705 32.508264 " transform="matrix(0.0717565, 0, 0, 0.0717565, -0.0205043, 0.0149783)"/>
<path fill-rule="nonzero" fill="rgb(100%, 100%, 100%)" fill-opacity="1" stroke-width="0.264999" stroke-linecap="round" stroke-linejoin="round" stroke="rgb(0%, 0%, 0%)" stroke-opacity="1" stroke-dasharray="0.640836 0.752767" stroke-miterlimit="4" d="M 41.331705 245.958123 C 41.331705 250.585319 37.521072 254.395952 32.839438 254.395952 C 28.212241 254.395952 24.401609 250.585319 24.401609 245.958123 C 24.401609 241.276489 28.212241 237.520294 32.839438 237.520294 C 37.521072 237.520294 41.331705 241.276489 41.331705 245.958123 Z M 41.331705 245.958123 " transform="matrix(0.0717565, 0, 0, 0.0717565, -0.0205043, 0.0149783)"/>
<path fill-rule="nonzero" fill="rgb(100%, 100%, 100%)" fill-opacity="1" stroke-width="0.264999" stroke-linecap="round" stroke-linejoin="round" stroke="rgb(0%, 0%, 0%)" stroke-opacity="1" stroke-dasharray="0.640836 0.752767" stroke-miterlimit="4" d="M 41.331705 140.947978 C 41.331705 145.629612 37.521072 149.440245 32.839438 149.440245 C 28.212241 149.440245 24.401609 145.629612 24.401609 140.947978 C 24.401609 136.320781 28.212241 132.510149 32.839438 132.510149 C 37.521072 132.510149 41.331705 136.320781 41.331705 140.947978 Z M 41.331705 140.947978 " transform="matrix(0.0717565, 0, 0, 0.0717565, -0.0205043, 0.0149783)"/>
<path fill-rule="nonzero" fill="rgb(100%, 100%, 100%)" fill-opacity="1" stroke-width="0.264999" stroke-linecap="round" stroke-linejoin="round" stroke="rgb(0%, 0%, 0%)" stroke-opacity="1" stroke-dasharray="0.640836 0.752767" stroke-miterlimit="4" d="M 113.897035 140.947978 C 113.897035 145.629612 110.140841 149.440245 105.459206 149.440245 C 100.777572 149.440245 97.021377 145.629612 97.021377 140.947978 C 97.021377 136.320781 100.777572 132.510149 105.459206 132.510149 C 110.140841 132.510149 113.897035 136.320781 113.897035 140.947978 Z M 113.897035 140.947978 " transform="matrix(0.0717565, 0, 0, 0.0717565, -0.0205043, 0.0149783)"/>
<path fill-rule="nonzero" fill="rgb(100%, 100%, 100%)" fill-opacity="1" stroke-width="0.264999" stroke-linecap="round" stroke-linejoin="round" stroke="rgb(0%, 0%, 0%)" stroke-opacity="1" stroke-dasharray="0.640836 0.752767" stroke-miterlimit="4" d="M 186.516804 140.947978 C 186.516804 145.629612 182.706171 149.440245 178.078975 149.440245 C 173.39734 149.440245 169.641146 145.629612 169.641146 140.947978 C 169.641146 136.320781 173.39734 132.510149 178.078975 132.510149 C 182.706171 132.510149 186.516804 136.320781 186.516804 140.947978 Z M 186.516804 140.947978 " transform="matrix(0.0717565, 0, 0, 0.0717565, -0.0205043, 0.0149783)"/>
<path fill-rule="nonzero" fill="rgb(100%, 100%, 100%)" fill-opacity="1" stroke-width="0.264999" stroke-linecap="round" stroke-linejoin="round" stroke="rgb(0%, 0%, 0%)" stroke-opacity="1" stroke-dasharray="0.640836 0.752767" stroke-miterlimit="4" d="M 186.516804 32.508264 C 186.516804 37.189898 182.706171 40.946093 178.078975 40.946093 C 173.39734 40.946093 169.641146 37.189898 169.641146 32.508264 C 169.641146 27.881067 173.39734 24.070435 178.078975 24.070435 C 182.706171 24.070435 186.516804 27.881067 186.516804 32.508264 Z M 186.516804 32.508264 " transform="matrix(0.0717565, 0, 0, 0.0717565, -0.0205043, 0.0149783)"/>
<path fill-rule="nonzero" fill="rgb(100%, 100%, 100%)" fill-opacity="1" stroke-width="0.264999" stroke-linecap="round" stroke-linejoin="round" stroke="rgb(0%, 0%, 0%)" stroke-opacity="1" stroke-dasharray="0.640836 0.752767" stroke-miterlimit="4" d="M 184.3393 245.958123 C 184.3393 250.585319 180.583105 254.395952 175.90147 254.395952 C 171.219836 254.395952 167.463641 250.585319 167.463641 245.958123 C 167.463641 241.276489 171.219836 237.520294 175.90147 237.520294 C 180.583105 237.520294 184.3393 241.276489 184.3393 245.958123 Z M 184.3393 245.958123 " transform="matrix(0.0717565, 0, 0, 0.0717565, -0.0205043, 0.0149783)"/>
</svg>
