<?xml version="1.0" encoding="UTF-8"?>
<svg xmlns="http://www.w3.org/2000/svg" xmlns:xlink="http://www.w3.org/1999/xlink" width="16" height="16.978547" viewBox="0 0 16 16.978547">
<path fill-rule="nonzero" fill="rgb(14.901961%, 14.901961%, 14.901961%)" fill-opacity="1" d="M 7.765625 0 C 6.855469 0.0078125 6.054688 0.359375 5.199219 1.320312 C 4.332031 2.285156 2.179688 4.777344 0.765625 6.457031 C 0.0546875 7.296875 -0.269531 8.964844 0.265625 10 C 0.46875 10.394531 1.519531 11.875 2.785156 11.875 C 6.238281 11.882812 10.839844 11.902344 12.519531 11.875 C 13.539062 11.855469 14.664062 11.078125 15.203125 10.402344 C 15.667969 9.820312 16.023438 8.910156 16 8.113281 C 15.972656 7.316406 15.515625 6.59375 15.21875 6.273438 C 14.3125 5.289062 13.453125 4.402344 12.585938 3.519531 C 11.71875 2.640625 10.847656 1.761719 9.925781 0.796875 C 9.394531 0.242188 8.609375 -0.0078125 7.765625 0 Z M 7.765625 0 "/>
<path fill-rule="nonzero" fill="rgb(49.803922%, 49.803922%, 49.803922%)" fill-opacity="1" d="M 14.734375 8.582031 C 14.734375 9.765625 13.789062 10.722656 12.621094 10.722656 C 11.453125 10.722656 10.507812 9.765625 10.507812 8.582031 C 10.507812 7.402344 11.453125 6.445312 12.621094 6.445312 C 13.789062 6.445312 14.734375 7.402344 14.734375 8.582031 Z M 14.734375 8.582031 "/>
<path fill-rule="nonzero" fill="rgb(49.803922%, 49.803922%, 49.803922%)" fill-opacity="1" d="M 5.496094 8.582031 C 5.496094 9.765625 4.546875 10.722656 3.382812 10.722656 C 2.214844 10.722656 1.269531 9.765625 1.269531 8.582031 C 1.269531 7.402344 2.214844 6.445312 3.382812 6.445312 C 4.546875 6.445312 5.496094 7.402344 5.496094 8.582031 Z M 5.496094 8.582031 "/>
<path fill-rule="nonzero" fill="rgb(49.803922%, 49.803922%, 49.803922%)" fill-opacity="1" d="M 10.113281 3.320312 C 10.113281 4.503906 9.167969 5.460938 8 5.460938 C 6.832031 5.460938 5.886719 4.503906 5.886719 3.320312 C 5.886719 2.140625 6.832031 1.183594 8 1.183594 C 9.167969 1.183594 10.113281 2.140625 10.113281 3.320312 Z M 10.113281 3.320312 "/>
<path fill-rule="nonzero" fill="rgb(14.901961%, 14.901961%, 14.901961%)" fill-opacity="1" stroke-width="0.5" stroke-linecap="round" stroke-linejoin="miter" stroke="rgb(100%, 100%, 100%)" stroke-opacity="1" stroke-miterlimit="3" d="M 36.726577 42.856064 C 36.726577 49.262448 31.666918 54.460555 25.424155 54.460555 C 19.168806 54.460555 14.109148 49.262448 14.109148 42.856064 C 14.109148 36.44968 19.168806 31.264159 25.424155 31.264159 C 31.666918 31.264159 36.726577 36.44968 36.726577 42.856064 Z M 36.726577 42.856064 " transform="matrix(0.310359, 0, 0, 0.310359, 0, 0)"/>
<path fill-rule="nonzero" fill="rgb(100%, 100%, 100%)" fill-opacity="1" d="M 10.003906 13.300781 C 10.003906 14.46875 9.054688 15.414062 7.890625 15.414062 C 6.722656 15.414062 5.777344 14.46875 5.777344 13.300781 C 5.777344 12.136719 6.722656 11.1875 7.890625 11.1875 C 9.054688 11.1875 10.003906 12.136719 10.003906 13.300781 Z M 10.003906 13.300781 "/>
</svg>
