<?xml version="1.0" encoding="UTF-8"?>
<svg xmlns="http://www.w3.org/2000/svg" xmlns:xlink="http://www.w3.org/1999/xlink" width="9.418854" height="20" viewBox="0 0 9.418854 20">
<path fill-rule="nonzero" fill="rgb(14.901961%, 14.901961%, 14.901961%)" fill-opacity="1" d="M 0 4.660156 L 9.417969 4.660156 L 9.417969 15.605469 L 0 15.605469 Z M 0 4.660156 "/>
<path fill-rule="nonzero" fill="rgb(14.901961%, 14.901961%, 14.901961%)" fill-opacity="1" d="M 9.417969 15.339844 C 9.417969 17.914062 7.308594 20 4.710938 20 C 2.109375 20 0 17.914062 0 15.339844 C 0 12.765625 2.109375 10.679688 4.710938 10.679688 C 7.308594 10.679688 9.417969 12.765625 9.417969 15.339844 Z M 9.417969 15.339844 "/>
<path fill-rule="nonzero" fill="rgb(14.901961%, 14.901961%, 14.901961%)" fill-opacity="1" d="M 9.417969 4.660156 C 9.417969 7.234375 7.308594 9.320312 4.710938 9.320312 C 2.109375 9.320312 0 7.234375 0 4.660156 C 0 2.085938 2.109375 0 4.710938 0 C 7.308594 0 9.417969 2.085938 9.417969 4.660156 Z M 9.417969 4.660156 "/>
<path fill-rule="nonzero" fill="rgb(100%, 100%, 100%)" fill-opacity="1" d="M 6.558594 4.523438 C 6.558594 5.558594 5.730469 6.394531 4.710938 6.394531 C 3.6875 6.394531 2.863281 5.558594 2.863281 4.523438 C 2.863281 3.492188 3.6875 2.65625 4.710938 2.65625 C 5.730469 2.65625 6.558594 3.492188 6.558594 4.523438 Z M 6.558594 4.523438 "/>
<path fill-rule="nonzero" fill="rgb(49.803922%, 49.803922%, 49.803922%)" fill-opacity="1" d="M 6.558594 9.933594 C 6.558594 10.964844 5.730469 11.800781 4.710938 11.800781 C 3.6875 11.800781 2.863281 10.964844 2.863281 9.933594 C 2.863281 8.898438 3.6875 8.0625 4.710938 8.0625 C 5.730469 8.0625 6.558594 8.898438 6.558594 9.933594 Z M 6.558594 9.933594 "/>
<path fill-rule="nonzero" fill="rgb(49.803922%, 49.803922%, 49.803922%)" fill-opacity="1" d="M 6.535156 15.339844 C 6.535156 16.371094 5.707031 17.210938 4.683594 17.210938 C 3.664062 17.210938 2.835938 16.371094 2.835938 15.339844 C 2.835938 14.308594 3.664062 13.472656 4.683594 13.472656 C 5.707031 13.472656 6.535156 14.308594 6.535156 15.339844 Z M 6.535156 15.339844 "/>
</svg>
