<?xml version="1.0" encoding="UTF-8"?>
<svg xmlns="http://www.w3.org/2000/svg" xmlns:xlink="http://www.w3.org/1999/xlink" width="9.418854" height="20" viewBox="0 0 9.418854 20">
<path fill-rule="nonzero" fill="rgb(14.901961%, 14.901961%, 14.901961%)" fill-opacity="1" d="M 0 4.660156 L 9.417969 4.660156 L 9.417969 15.605469 L 0 15.605469 Z M 0 4.660156 "/>
<path fill-rule="nonzero" fill="rgb(14.901961%, 14.901961%, 14.901961%)" fill-opacity="1" d="M 9.417969 15.339844 C 9.417969 17.914062 7.308594 20 4.710938 20 C 2.109375 20 0 17.914062 0 15.339844 C 0 12.765625 2.109375 10.679688 4.710938 10.679688 C 7.308594 10.679688 9.417969 12.765625 9.417969 15.339844 Z M 9.417969 15.339844 "/>
<path fill-rule="nonzero" fill="rgb(14.901961%, 14.901961%, 14.901961%)" fill-opacity="1" d="M 9.417969 4.660156 C 9.417969 7.234375 7.308594 9.320312 4.710938 9.320312 C 2.109375 9.320312 0 7.234375 0 4.660156 C 0 2.085938 2.109375 0 4.710938 0 C 7.308594 0 9.417969 2.085938 9.417969 4.660156 Z M 9.417969 4.660156 "/>
<path fill-rule="nonzero" fill="rgb(49.803922%, 49.803922%, 49.803922%)" fill-opacity="1" d="M 8.40625 4.523438 C 8.40625 5.558594 7.578125 6.394531 6.558594 6.394531 C 5.535156 6.394531 4.710938 5.558594 4.710938 4.523438 C 4.710938 3.492188 5.535156 2.65625 6.558594 2.65625 C 7.578125 2.65625 8.40625 3.492188 8.40625 4.523438 Z M 8.40625 4.523438 "/>
<path fill-rule="nonzero" fill="rgb(49.803922%, 49.803922%, 49.803922%)" fill-opacity="1" d="M 8.40625 9.933594 C 8.40625 10.964844 7.578125 11.800781 6.558594 11.800781 C 5.535156 11.800781 4.710938 10.964844 4.710938 9.933594 C 4.710938 8.898438 5.535156 8.0625 6.558594 8.0625 C 7.578125 8.0625 8.40625 8.898438 8.40625 9.933594 Z M 8.40625 9.933594 "/>
<path fill-rule="nonzero" fill="rgb(49.803922%, 49.803922%, 49.803922%)" fill-opacity="1" d="M 8.382812 15.339844 C 8.382812 16.371094 7.554688 17.210938 6.535156 17.210938 C 5.511719 17.210938 4.683594 16.371094 4.683594 15.339844 C 4.683594 14.308594 5.511719 13.472656 6.535156 13.472656 C 7.554688 13.472656 8.382812 14.308594 8.382812 15.339844 Z M 8.382812 15.339844 "/>
<path fill-rule="evenodd" fill="rgb(100%, 100%, 100%)" fill-opacity="1" d="M 1.957031 15.71875 C 1.707031 15.71875 1.503906 15.515625 1.503906 15.261719 C 1.503906 15.011719 1.707031 14.808594 1.960938 14.808594 C 2.210938 14.808594 2.414062 15.019531 2.414062 15.265625 C 2.414062 15.515625 2.210938 15.71875 1.957031 15.71875 Z M 1.957031 15.71875 "/>
<path fill-rule="evenodd" fill="rgb(100%, 100%, 100%)" fill-opacity="1" d="M 1.960938 14.746094 C 1.675781 14.746094 1.445312 14.976562 1.441406 15.261719 C 1.441406 15.546875 1.675781 15.78125 1.957031 15.78125 C 2.242188 15.78125 2.476562 15.550781 2.476562 15.265625 C 2.476562 14.984375 2.246094 14.746094 1.960938 14.746094 Z M 1.960938 14.867188 C 2.179688 14.871094 2.355469 15.050781 2.355469 15.265625 C 2.355469 15.484375 2.175781 15.660156 1.957031 15.660156 C 1.738281 15.65625 1.5625 15.480469 1.566406 15.261719 C 1.566406 15.042969 1.742188 14.867188 1.960938 14.867188 Z M 1.960938 14.867188 "/>
<path fill-rule="evenodd" fill="rgb(100%, 100%, 100%)" fill-opacity="1" d="M 1.957031 14.203125 C 1.707031 14.203125 1.503906 14 1.503906 13.746094 C 1.503906 13.496094 1.710938 13.292969 1.960938 13.292969 C 2.210938 13.292969 2.414062 13.503906 2.414062 13.75 C 2.414062 14 2.210938 14.203125 1.957031 14.203125 Z M 1.957031 14.203125 "/>
<path fill-rule="evenodd" fill="rgb(100%, 100%, 100%)" fill-opacity="1" d="M 1.960938 13.234375 C 1.675781 13.230469 1.445312 13.464844 1.441406 13.746094 C 1.441406 14.03125 1.675781 14.265625 1.957031 14.265625 C 2.242188 14.265625 2.476562 14.035156 2.476562 13.75 C 2.476562 13.46875 2.246094 13.234375 1.960938 13.234375 Z M 1.960938 13.355469 C 2.179688 13.355469 2.355469 13.539062 2.355469 13.75 C 2.355469 13.96875 2.175781 14.144531 1.957031 14.144531 C 1.738281 14.144531 1.5625 13.964844 1.566406 13.746094 C 1.566406 13.53125 1.742188 13.355469 1.960938 13.355469 Z M 1.960938 13.355469 "/>
<path fill-rule="evenodd" fill="rgb(100%, 100%, 100%)" fill-opacity="1" d="M 1.957031 12.691406 C 1.707031 12.6875 1.503906 12.484375 1.503906 12.234375 C 1.503906 11.980469 1.710938 11.777344 1.960938 11.777344 C 2.210938 11.777344 2.414062 11.988281 2.414062 12.234375 C 2.414062 12.488281 2.210938 12.691406 1.957031 12.691406 Z M 1.957031 12.691406 "/>
<path fill-rule="evenodd" fill="rgb(100%, 100%, 100%)" fill-opacity="1" d="M 1.960938 11.71875 C 1.675781 11.71875 1.445312 11.949219 1.441406 12.234375 C 1.441406 12.515625 1.675781 12.75 1.957031 12.75 C 2.242188 12.75 2.476562 12.519531 2.476562 12.234375 C 2.476562 11.957031 2.246094 11.71875 1.960938 11.71875 Z M 1.960938 11.839844 C 2.179688 11.839844 2.355469 12.023438 2.355469 12.234375 C 2.355469 12.453125 2.175781 12.628906 1.957031 12.628906 C 1.738281 12.628906 1.5625 12.453125 1.566406 12.234375 C 1.566406 12.015625 1.742188 11.839844 1.960938 11.839844 Z M 1.960938 11.839844 "/>
<path fill-rule="evenodd" fill="rgb(100%, 100%, 100%)" fill-opacity="1" d="M 1.957031 11.175781 C 1.707031 11.175781 1.503906 10.96875 1.503906 10.71875 C 1.503906 10.464844 1.710938 10.261719 1.960938 10.261719 C 2.210938 10.265625 2.414062 10.472656 2.414062 10.71875 C 2.414062 10.972656 2.210938 11.175781 1.957031 11.175781 Z M 1.957031 11.175781 "/>
<path fill-rule="evenodd" fill="rgb(100%, 100%, 100%)" fill-opacity="1" d="M 1.960938 10.203125 C 1.675781 10.203125 1.445312 10.433594 1.441406 10.71875 C 1.441406 11.003906 1.675781 11.234375 1.957031 11.234375 C 2.242188 11.234375 2.476562 11.003906 2.476562 10.71875 C 2.476562 10.441406 2.246094 10.203125 1.960938 10.203125 Z M 1.960938 10.324219 C 2.179688 10.324219 2.355469 10.507812 2.355469 10.71875 C 2.355469 10.9375 2.175781 11.113281 1.957031 11.113281 C 1.738281 11.113281 1.5625 10.9375 1.566406 10.71875 C 1.566406 10.5 1.742188 10.324219 1.960938 10.324219 Z M 1.960938 10.324219 "/>
<path fill-rule="evenodd" fill="rgb(100%, 100%, 100%)" fill-opacity="1" d="M 1.957031 9.660156 C 1.707031 9.660156 1.503906 9.453125 1.503906 9.203125 C 1.503906 8.953125 1.710938 8.75 1.960938 8.75 C 2.210938 8.75 2.414062 8.960938 2.414062 9.207031 C 2.414062 9.457031 2.210938 9.660156 1.957031 9.660156 Z M 1.957031 9.660156 "/>
<path fill-rule="evenodd" fill="rgb(100%, 100%, 100%)" fill-opacity="1" d="M 1.960938 8.6875 C 1.675781 8.6875 1.445312 8.917969 1.441406 9.203125 C 1.441406 9.488281 1.675781 9.71875 1.957031 9.71875 C 2.242188 9.722656 2.476562 9.488281 2.476562 9.207031 C 2.476562 8.925781 2.246094 8.6875 1.960938 8.6875 Z M 1.960938 8.808594 C 2.179688 8.808594 2.355469 8.992188 2.355469 9.203125 C 2.355469 9.421875 2.175781 9.597656 1.957031 9.597656 C 1.738281 9.597656 1.5625 9.421875 1.566406 9.203125 C 1.566406 8.984375 1.742188 8.808594 1.960938 8.808594 Z M 1.960938 8.808594 "/>
<path fill-rule="evenodd" fill="rgb(100%, 100%, 100%)" fill-opacity="1" d="M 1.957031 8.144531 C 1.707031 8.144531 1.503906 7.941406 1.503906 7.6875 C 1.503906 7.4375 1.710938 7.234375 1.960938 7.234375 C 2.210938 7.234375 2.414062 7.445312 2.414062 7.691406 C 2.414062 7.941406 2.210938 8.144531 1.957031 8.144531 Z M 1.957031 8.144531 "/>
<path fill-rule="evenodd" fill="rgb(100%, 100%, 100%)" fill-opacity="1" d="M 1.960938 7.171875 C 1.675781 7.171875 1.445312 7.402344 1.441406 7.6875 C 1.441406 7.972656 1.675781 8.207031 1.957031 8.207031 C 2.242188 8.207031 2.476562 7.976562 2.476562 7.691406 C 2.476562 7.410156 2.246094 7.171875 1.960938 7.171875 Z M 1.960938 7.292969 C 2.179688 7.296875 2.355469 7.476562 2.355469 7.691406 C 2.355469 7.910156 2.175781 8.085938 1.957031 8.085938 C 1.738281 8.082031 1.5625 7.90625 1.566406 7.6875 C 1.566406 7.46875 1.742188 7.292969 1.960938 7.292969 Z M 1.960938 7.292969 "/>
<path fill-rule="evenodd" fill="rgb(100%, 100%, 100%)" fill-opacity="1" d="M 1.957031 6.628906 C 1.707031 6.628906 1.503906 6.425781 1.503906 6.171875 C 1.503906 5.921875 1.710938 5.71875 1.960938 5.71875 C 2.210938 5.71875 2.414062 5.929688 2.414062 6.175781 C 2.414062 6.425781 2.210938 6.628906 1.957031 6.628906 Z M 1.957031 6.628906 "/>
<path fill-rule="evenodd" fill="rgb(100%, 100%, 100%)" fill-opacity="1" d="M 1.960938 5.660156 C 1.675781 5.65625 1.445312 5.890625 1.441406 6.171875 C 1.441406 6.457031 1.675781 6.691406 1.957031 6.691406 C 2.242188 6.691406 2.476562 6.460938 2.476562 6.175781 C 2.476562 5.894531 2.246094 5.660156 1.960938 5.660156 Z M 1.960938 5.78125 C 2.179688 5.78125 2.355469 5.964844 2.355469 6.175781 C 2.355469 6.394531 2.175781 6.570312 1.957031 6.570312 C 1.738281 6.570312 1.5625 6.390625 1.566406 6.171875 C 1.566406 5.953125 1.742188 5.777344 1.960938 5.78125 Z M 1.960938 5.78125 "/>
<path fill-rule="evenodd" fill="rgb(100%, 100%, 100%)" fill-opacity="1" d="M 1.957031 5.113281 C 1.707031 5.113281 1.503906 4.910156 1.503906 4.660156 C 1.503906 4.40625 1.707031 4.203125 1.960938 4.203125 C 2.210938 4.203125 2.414062 4.414062 2.414062 4.660156 C 2.414062 4.910156 2.210938 5.117188 1.957031 5.113281 Z M 1.957031 5.113281 "/>
<path fill-rule="evenodd" fill="rgb(100%, 100%, 100%)" fill-opacity="1" d="M 1.960938 4.144531 C 1.675781 4.144531 1.445312 4.375 1.441406 4.660156 C 1.441406 4.941406 1.675781 5.175781 1.957031 5.175781 C 2.242188 5.175781 2.476562 4.945312 2.476562 4.660156 C 2.476562 4.382812 2.246094 4.144531 1.960938 4.144531 Z M 1.960938 4.265625 C 2.179688 4.265625 2.355469 4.449219 2.355469 4.660156 C 2.355469 4.878906 2.175781 5.054688 1.957031 5.054688 C 1.738281 5.054688 1.5625 4.878906 1.566406 4.660156 C 1.566406 4.441406 1.742188 4.265625 1.960938 4.265625 Z M 1.960938 4.265625 "/>
</svg>
