<?xml version="1.0" encoding="UTF-8"?>
<svg xmlns="http://www.w3.org/2000/svg" xmlns:xlink="http://www.w3.org/1999/xlink" width="16" height="12.349744" viewBox="0 0 16 12.349744">
<path fill-rule="nonzero" fill="rgb(14.901961%, 14.901961%, 14.901961%)" fill-opacity="1" d="M 7.878906 0 C 6.980469 0.0078125 6.191406 0.355469 5.347656 1.300781 C 4.492188 2.253906 2.367188 4.710938 0.972656 6.367188 C 0.273438 7.199219 -0.046875 8.84375 0.480469 9.863281 C 0.683594 10.253906 1.71875 11.710938 2.96875 11.714844 C 6.371094 11.722656 10.910156 11.738281 12.566406 11.710938 C 13.574219 11.695312 14.679688 10.925781 15.214844 10.257812 C 15.671875 9.683594 16.023438 8.789062 16 8.003906 C 15.972656 7.214844 15.519531 6.503906 15.230469 6.1875 C 14.335938 5.214844 13.488281 4.339844 12.632812 3.472656 C 11.777344 2.601562 10.917969 1.738281 10.007812 0.785156 C 9.484375 0.238281 8.710938 -0.0078125 7.878906 0 Z M 7.878906 0 "/>
<path fill-rule="nonzero" fill="rgb(49.803922%, 49.803922%, 49.803922%)" fill-opacity="1" d="M 14.75 8.464844 C 14.75 9.628906 13.820312 10.574219 12.667969 10.574219 C 11.515625 10.574219 10.582031 9.628906 10.582031 8.464844 C 10.582031 7.300781 11.515625 6.355469 12.667969 6.355469 C 13.820312 6.355469 14.75 7.300781 14.75 8.464844 Z M 14.75 8.464844 "/>
<path fill-rule="nonzero" fill="rgb(86.666667%, 21.960784%, 19.607843%)" fill-opacity="1" d="M 5.636719 8.464844 C 5.636719 9.628906 4.707031 10.574219 3.554688 10.574219 C 2.402344 10.574219 1.46875 9.628906 1.46875 8.464844 C 1.46875 7.300781 2.402344 6.355469 3.554688 6.355469 C 4.707031 6.355469 5.636719 7.300781 5.636719 8.464844 Z M 5.636719 8.464844 "/>
<path fill-rule="nonzero" fill="rgb(49.803922%, 49.803922%, 49.803922%)" fill-opacity="1" d="M 10.195312 3.277344 C 10.195312 4.441406 9.261719 5.386719 8.109375 5.386719 C 6.957031 5.386719 6.023438 4.441406 6.023438 3.277344 C 6.023438 2.113281 6.957031 1.167969 8.109375 1.167969 C 9.261719 1.167969 10.195312 2.113281 10.195312 3.277344 Z M 10.195312 3.277344 "/>
</svg>
