<?xml version="1.0" encoding="UTF-8"?>
<svg xmlns="http://www.w3.org/2000/svg" xmlns:xlink="http://www.w3.org/1999/xlink" width="10.113465" height="36" viewBox="0 0 10.113465 36">
<path fill-rule="nonzero" fill="rgb(14.901961%, 14.901961%, 14.901961%)" fill-opacity="1" d="M 0 5 L 10.117188 5 L 10.117188 21.433594 L 0 21.433594 Z M 0 5 "/>
<path fill-rule="nonzero" fill="rgb(14.901961%, 14.901961%, 14.901961%)" fill-opacity="1" d="M 10.117188 31 C 10.117188 33.757812 7.847656 36 5.058594 36 C 2.261719 36 0 33.757812 0 31 C 0 28.234375 2.261719 25.992188 5.058594 25.992188 C 7.847656 25.992188 10.117188 28.234375 10.117188 31 Z M 10.117188 31 "/>
<path fill-rule="nonzero" fill="rgb(14.901961%, 14.901961%, 14.901961%)" fill-opacity="1" d="M 10.117188 5 C 10.117188 7.765625 7.847656 10.007812 5.058594 10.007812 C 2.261719 10.007812 0 7.765625 0 5 C 0 2.242188 2.261719 0 5.058594 0 C 7.847656 0 10.117188 2.242188 10.117188 5 Z M 10.117188 5 "/>
<path fill-rule="nonzero" fill="rgb(0%, 69.01961%, 31.37255%)" fill-opacity="1" d="M 7.039062 4.855469 C 7.039062 5.96875 6.152344 6.863281 5.058594 6.863281 C 3.964844 6.863281 3.070312 5.96875 3.070312 4.855469 C 3.070312 3.753906 3.964844 2.851562 5.058594 2.851562 C 6.152344 2.851562 7.039062 3.753906 7.039062 4.855469 Z M 7.039062 4.855469 "/>
<path fill-rule="nonzero" fill="rgb(49.803922%, 49.803922%, 49.803922%)" fill-opacity="1" d="M 7.039062 10.664062 C 7.039062 11.773438 6.152344 12.667969 5.058594 12.667969 C 3.964844 12.667969 3.070312 11.773438 3.070312 10.664062 C 3.070312 9.558594 3.964844 8.65625 5.058594 8.65625 C 6.152344 8.65625 7.039062 9.558594 7.039062 10.664062 Z M 7.039062 10.664062 "/>
<path fill-rule="nonzero" fill="rgb(49.803922%, 49.803922%, 49.803922%)" fill-opacity="1" d="M 7.015625 16.476562 C 7.015625 17.578125 6.125 18.480469 5.03125 18.480469 C 3.9375 18.480469 3.050781 17.578125 3.050781 16.476562 C 3.050781 15.363281 3.9375 14.460938 5.03125 14.460938 C 6.125 14.460938 7.015625 15.363281 7.015625 16.476562 Z M 7.015625 16.476562 "/>
<path fill-rule="nonzero" fill="rgb(14.901961%, 14.901961%, 14.901961%)" fill-opacity="1" stroke-width="0.0653029" stroke-linecap="round" stroke-linejoin="round" stroke="rgb(0%, 0%, 0%)" stroke-opacity="1" stroke-dasharray="0.354895 0.302253" stroke-miterlimit="4" d="M 79.174066 189.485228 L 130.784617 189.485228 L 130.784617 240.35706 L 79.174066 240.35706 Z M 79.174066 189.485228 " transform="matrix(0.195651, 0, 0, 0.195651, -15.486579, -15.674538)"/>
<path fill-rule="nonzero" fill="rgb(24.705882%, 24.705882%, 24.705882%)" fill-opacity="1" stroke-width="0.0653029" stroke-linecap="round" stroke-linejoin="round" stroke="rgb(0%, 0%, 0%)" stroke-opacity="1" stroke-dasharray="0.354895 0.302253" stroke-miterlimit="4" d="M 87.040432 194.756093 C 87.040432 195.894121 86.122024 196.872425 84.944065 196.872425 C 83.806038 196.872425 82.887629 195.894121 82.887629 194.756093 C 82.887629 193.618065 83.806038 192.659726 84.944065 192.659726 C 86.122024 192.659726 87.040432 193.618065 87.040432 194.756093 Z M 87.040432 194.756093 " transform="matrix(0.195651, 0, 0, 0.195651, -15.486579, -15.674538)"/>
<path fill-rule="nonzero" fill="rgb(24.705882%, 24.705882%, 24.705882%)" fill-opacity="1" stroke-width="0.0653029" stroke-linecap="round" stroke-linejoin="round" stroke="rgb(0%, 0%, 0%)" stroke-opacity="1" stroke-dasharray="0.354895 0.302253" stroke-miterlimit="4" d="M 93.549152 194.975712 C 93.549152 196.153671 92.610778 197.072079 91.492716 197.072079 C 90.314757 197.072079 89.396349 196.153671 89.396349 194.975712 C 89.396349 193.837685 90.314757 192.919277 91.492716 192.919277 C 92.610778 192.919277 93.549152 193.837685 93.549152 194.975712 Z M 93.549152 194.975712 " transform="matrix(0.195651, 0, 0, 0.195651, -15.486579, -15.674538)"/>
<path fill-rule="nonzero" fill="rgb(100%, 100%, 100%)" fill-opacity="1" stroke-width="0.0653029" stroke-linecap="round" stroke-linejoin="round" stroke="rgb(0%, 0%, 0%)" stroke-opacity="1" stroke-dasharray="0.354895 0.302253" stroke-miterlimit="4" d="M 100.01794 194.796024 C 100.01794 195.954017 99.099532 196.892391 97.98147 196.892391 C 96.803511 196.892391 95.865138 195.954017 95.865138 194.796024 C 95.865138 193.657996 96.803511 192.739588 97.98147 192.739588 C 99.099532 192.739588 100.01794 193.657996 100.01794 194.796024 Z M 100.01794 194.796024 " transform="matrix(0.195651, 0, 0, 0.195651, -15.486579, -15.674538)"/>
<path fill-rule="nonzero" fill="rgb(100%, 100%, 100%)" fill-opacity="1" stroke-width="0.0653029" stroke-linecap="round" stroke-linejoin="round" stroke="rgb(0%, 0%, 0%)" stroke-opacity="1" stroke-dasharray="0.354895 0.302253" stroke-miterlimit="4" d="M 106.766244 194.796024 C 106.766244 195.973982 105.807905 196.892391 104.669878 196.892391 C 103.53185 196.892391 102.573511 195.973982 102.573511 194.796024 C 102.573511 193.677962 103.53185 192.739588 104.669878 192.739588 C 105.807905 192.739588 106.766244 193.677962 106.766244 194.796024 Z M 106.766244 194.796024 " transform="matrix(0.195651, 0, 0, 0.195651, -15.486579, -15.674538)"/>
<path fill-rule="nonzero" fill="rgb(100%, 100%, 100%)" fill-opacity="1" stroke-width="0.0653029" stroke-linecap="round" stroke-linejoin="round" stroke="rgb(0%, 0%, 0%)" stroke-opacity="1" stroke-dasharray="0.354895 0.302253" stroke-miterlimit="4" d="M 113.414722 194.875885 C 113.414722 196.013913 112.456383 196.932321 111.318355 196.932321 C 110.180327 196.932321 109.202023 196.013913 109.202023 194.875885 C 109.202023 193.697927 110.180327 192.779519 111.318355 192.779519 C 112.456383 192.779519 113.414722 193.697927 113.414722 194.875885 Z M 113.414722 194.875885 " transform="matrix(0.195651, 0, 0, 0.195651, -15.486579, -15.674538)"/>
<path fill-rule="nonzero" fill="rgb(24.705882%, 24.705882%, 24.705882%)" fill-opacity="1" stroke-width="0.0653029" stroke-linecap="round" stroke-linejoin="round" stroke="rgb(0%, 0%, 0%)" stroke-opacity="1" stroke-dasharray="0.354895 0.302253" stroke-miterlimit="4" d="M 120.083164 194.935782 C 120.083164 196.053844 119.164756 197.032148 117.986798 197.032148 C 116.84877 197.032148 115.950327 196.053844 115.950327 194.935782 C 115.950327 193.797754 116.84877 192.81945 117.986798 192.81945 C 119.164756 192.81945 120.083164 193.797754 120.083164 194.935782 Z M 120.083164 194.935782 " transform="matrix(0.195651, 0, 0, 0.195651, -15.486579, -15.674538)"/>
<path fill-rule="nonzero" fill="rgb(24.705882%, 24.705882%, 24.705882%)" fill-opacity="1" stroke-width="0.0653029" stroke-linecap="round" stroke-linejoin="round" stroke="rgb(0%, 0%, 0%)" stroke-opacity="1" stroke-dasharray="0.354895 0.302253" stroke-miterlimit="4" d="M 126.751607 194.815989 C 126.751607 195.993948 125.753337 196.912356 124.61531 196.912356 C 123.497247 196.912356 122.518943 195.993948 122.518943 194.815989 C 122.518943 193.677962 123.497247 192.779519 124.61531 192.779519 C 125.753337 192.779519 126.751607 193.677962 126.751607 194.815989 Z M 126.751607 194.815989 " transform="matrix(0.195651, 0, 0, 0.195651, -15.486579, -15.674538)"/>
<path fill-rule="nonzero" fill="rgb(24.705882%, 24.705882%, 24.705882%)" fill-opacity="1" stroke-width="0.0653029" stroke-linecap="round" stroke-linejoin="round" stroke="rgb(0%, 0%, 0%)" stroke-opacity="1" stroke-dasharray="0.354895 0.302253" stroke-miterlimit="4" d="M 86.900674 201.105089 C 86.900674 202.283048 85.962301 203.201456 84.844238 203.201456 C 83.686245 203.201456 82.747872 202.283048 82.747872 201.105089 C 82.747872 199.967062 83.686245 199.048653 84.844238 199.048653 C 85.962301 199.048653 86.900674 199.967062 86.900674 201.105089 Z M 86.900674 201.105089 " transform="matrix(0.195651, 0, 0, 0.195651, -15.486579, -15.674538)"/>
<path fill-rule="nonzero" fill="rgb(100%, 100%, 100%)" fill-opacity="1" stroke-width="0.0653029" stroke-linecap="round" stroke-linejoin="round" stroke="rgb(0%, 0%, 0%)" stroke-opacity="1" stroke-dasharray="0.354895 0.302253" stroke-miterlimit="4" d="M 93.409394 201.36464 C 93.409394 202.482702 92.47102 203.40111 91.332992 203.40111 C 90.174999 203.40111 89.236626 202.482702 89.236626 201.36464 C 89.236626 200.186681 90.174999 199.248307 91.332992 199.248307 C 92.47102 199.248307 93.409394 200.186681 93.409394 201.36464 Z M 93.409394 201.36464 " transform="matrix(0.195651, 0, 0, 0.195651, -15.486579, -15.674538)"/>
<path fill-rule="nonzero" fill="rgb(24.705882%, 24.705882%, 24.705882%)" fill-opacity="1" stroke-width="0.0653029" stroke-linecap="round" stroke-linejoin="round" stroke="rgb(0%, 0%, 0%)" stroke-opacity="1" stroke-dasharray="0.354895 0.302253" stroke-miterlimit="4" d="M 99.878182 201.164986 C 99.878182 202.303013 98.959774 203.221421 97.821747 203.221421 C 96.643788 203.221421 95.72538 202.303013 95.72538 201.164986 C 95.72538 200.006993 96.643788 199.068619 97.821747 199.068619 C 98.959774 199.068619 99.878182 200.006993 99.878182 201.164986 Z M 99.878182 201.164986 " transform="matrix(0.195651, 0, 0, 0.195651, -15.486579, -15.674538)"/>
<path fill-rule="nonzero" fill="rgb(24.705882%, 24.705882%, 24.705882%)" fill-opacity="1" stroke-width="0.0653029" stroke-linecap="round" stroke-linejoin="round" stroke="rgb(0%, 0%, 0%)" stroke-opacity="1" stroke-dasharray="0.354895 0.302253" stroke-miterlimit="4" d="M 106.626487 201.184951 C 106.626487 202.322979 105.688113 203.241387 104.53012 203.241387 C 103.392092 203.241387 102.473684 202.322979 102.473684 201.184951 C 102.473684 200.006993 103.392092 199.088584 104.53012 199.088584 C 105.688113 199.088584 106.626487 200.006993 106.626487 201.184951 Z M 106.626487 201.184951 " transform="matrix(0.195651, 0, 0, 0.195651, -15.486579, -15.674538)"/>
<path fill-rule="nonzero" fill="rgb(24.705882%, 24.705882%, 24.705882%)" fill-opacity="1" stroke-width="0.0653029" stroke-linecap="round" stroke-linejoin="round" stroke="rgb(0%, 0%, 0%)" stroke-opacity="1" stroke-dasharray="0.354895 0.302253" stroke-miterlimit="4" d="M 113.274964 201.204916 C 113.274964 202.362909 112.33659 203.321248 111.158632 203.321248 C 110.020604 203.321248 109.102196 202.362909 109.102196 201.204916 C 109.102196 200.086854 110.020604 199.10855 111.158632 199.10855 C 112.33659 199.10855 113.274964 200.086854 113.274964 201.204916 Z M 113.274964 201.204916 " transform="matrix(0.195651, 0, 0, 0.195651, -15.486579, -15.674538)"/>
<path fill-rule="nonzero" fill="rgb(24.705882%, 24.705882%, 24.705882%)" fill-opacity="1" stroke-width="0.0653029" stroke-linecap="round" stroke-linejoin="round" stroke="rgb(0%, 0%, 0%)" stroke-opacity="1" stroke-dasharray="0.354895 0.302253" stroke-miterlimit="4" d="M 119.943407 201.264813 C 119.943407 202.442771 119.005033 203.361179 117.84704 203.361179 C 116.709012 203.361179 115.790604 202.442771 115.790604 201.264813 C 115.790604 200.14675 116.709012 199.208377 117.84704 199.208377 C 119.005033 199.208377 119.943407 200.14675 119.943407 201.264813 Z M 119.943407 201.264813 " transform="matrix(0.195651, 0, 0, 0.195651, -15.486579, -15.674538)"/>
<path fill-rule="nonzero" fill="rgb(24.705882%, 24.705882%, 24.705882%)" fill-opacity="1" stroke-width="0.0653029" stroke-linecap="round" stroke-linejoin="round" stroke="rgb(0%, 0%, 0%)" stroke-opacity="1" stroke-dasharray="0.354895 0.302253" stroke-miterlimit="4" d="M 126.571918 201.204916 C 126.571918 202.322979 125.65351 203.261352 124.475552 203.261352 C 123.337524 203.261352 122.419116 202.322979 122.419116 201.204916 C 122.419116 200.026958 123.337524 199.088584 124.475552 199.088584 C 125.65351 199.088584 126.571918 200.026958 126.571918 201.204916 Z M 126.571918 201.204916 " transform="matrix(0.195651, 0, 0, 0.195651, -15.486579, -15.674538)"/>
<path fill-rule="nonzero" fill="rgb(24.705882%, 24.705882%, 24.705882%)" fill-opacity="1" stroke-width="0.0653029" stroke-linecap="round" stroke-linejoin="round" stroke="rgb(0%, 0%, 0%)" stroke-opacity="1" stroke-dasharray="0.354895 0.302253" stroke-miterlimit="4" d="M 86.980536 208.013117 C 86.980536 209.131179 86.002231 210.069553 84.884169 210.069553 C 83.706211 210.069553 82.767837 209.131179 82.767837 208.013117 C 82.767837 206.855124 83.706211 205.91675 84.884169 205.91675 C 86.002231 205.91675 86.980536 206.855124 86.980536 208.013117 Z M 86.980536 208.013117 " transform="matrix(0.195651, 0, 0, 0.195651, -15.486579, -15.674538)"/>
<path fill-rule="nonzero" fill="rgb(100%, 100%, 100%)" fill-opacity="1" stroke-width="0.0653029" stroke-linecap="round" stroke-linejoin="round" stroke="rgb(0%, 0%, 0%)" stroke-opacity="1" stroke-dasharray="0.354895 0.302253" stroke-miterlimit="4" d="M 93.489255 208.212771 C 93.489255 209.350798 92.510951 210.269207 91.372923 210.269207 C 90.254861 210.269207 89.276557 209.350798 89.276557 208.212771 C 89.276557 207.074743 90.254861 206.116404 91.372923 206.116404 C 92.510951 206.116404 93.489255 207.074743 93.489255 208.212771 Z M 93.489255 208.212771 " transform="matrix(0.195651, 0, 0, 0.195651, -15.486579, -15.674538)"/>
<path fill-rule="nonzero" fill="rgb(24.705882%, 24.705882%, 24.705882%)" fill-opacity="1" stroke-width="0.0653029" stroke-linecap="round" stroke-linejoin="round" stroke="rgb(0%, 0%, 0%)" stroke-opacity="1" stroke-dasharray="0.354895 0.302253" stroke-miterlimit="4" d="M 99.958044 208.033082 C 99.958044 209.17111 99.039636 210.089518 97.861677 210.089518 C 96.72365 210.089518 95.805241 209.17111 95.805241 208.033082 C 95.805241 206.855124 96.72365 205.936715 97.861677 205.936715 C 99.039636 205.936715 99.958044 206.855124 99.958044 208.033082 Z M 99.958044 208.033082 " transform="matrix(0.195651, 0, 0, 0.195651, -15.486579, -15.674538)"/>
<path fill-rule="nonzero" fill="rgb(24.705882%, 24.705882%, 24.705882%)" fill-opacity="1" stroke-width="0.0653029" stroke-linecap="round" stroke-linejoin="round" stroke="rgb(0%, 0%, 0%)" stroke-opacity="1" stroke-dasharray="0.354895 0.302253" stroke-miterlimit="4" d="M 106.666417 208.053048 C 106.666417 209.191075 105.748009 210.149414 104.609982 210.149414 C 103.432023 210.149414 102.493649 209.191075 102.493649 208.053048 C 102.493649 206.91502 103.432023 205.956681 104.609982 205.956681 C 105.748009 205.956681 106.666417 206.91502 106.666417 208.053048 Z M 106.666417 208.053048 " transform="matrix(0.195651, 0, 0, 0.195651, -15.486579, -15.674538)"/>
<path fill-rule="nonzero" fill="rgb(24.705882%, 24.705882%, 24.705882%)" fill-opacity="1" stroke-width="0.0653029" stroke-linecap="round" stroke-linejoin="round" stroke="rgb(0%, 0%, 0%)" stroke-opacity="1" stroke-dasharray="0.354895 0.302253" stroke-miterlimit="4" d="M 113.294929 208.073013 C 113.294929 209.250971 112.376521 210.16938 111.198563 210.16938 C 110.060535 210.16938 109.142127 209.250971 109.142127 208.073013 C 109.142127 206.934985 110.060535 206.016577 111.198563 206.016577 C 112.376521 206.016577 113.294929 206.934985 113.294929 208.073013 Z M 113.294929 208.073013 " transform="matrix(0.195651, 0, 0, 0.195651, -15.486579, -15.674538)"/>
<path fill-rule="nonzero" fill="rgb(24.705882%, 24.705882%, 24.705882%)" fill-opacity="1" stroke-width="0.0653029" stroke-linecap="round" stroke-linejoin="round" stroke="rgb(0%, 0%, 0%)" stroke-opacity="1" stroke-dasharray="0.354895 0.302253" stroke-miterlimit="4" d="M 119.983337 208.17284 C 119.983337 209.310868 119.044964 210.229276 117.926901 210.229276 C 116.748943 210.229276 115.830535 209.310868 115.830535 208.17284 C 115.830535 206.994882 116.748943 206.076473 117.926901 206.076473 C 119.044964 206.076473 119.983337 206.994882 119.983337 208.17284 Z M 119.983337 208.17284 " transform="matrix(0.195651, 0, 0, 0.195651, -15.486579, -15.674538)"/>
<path fill-rule="nonzero" fill="rgb(24.705882%, 24.705882%, 24.705882%)" fill-opacity="1" stroke-width="0.0653029" stroke-linecap="round" stroke-linejoin="round" stroke="rgb(0%, 0%, 0%)" stroke-opacity="1" stroke-dasharray="0.354895 0.302253" stroke-miterlimit="4" d="M 126.611849 208.053048 C 126.611849 209.191075 125.693441 210.149414 124.555413 210.149414 C 123.377455 210.149414 122.459047 209.191075 122.459047 208.053048 C 122.459047 206.934985 123.377455 205.956681 124.555413 205.956681 C 125.693441 205.956681 126.611849 206.934985 126.611849 208.053048 Z M 126.611849 208.053048 " transform="matrix(0.195651, 0, 0, 0.195651, -15.486579, -15.674538)"/>
<path fill-rule="nonzero" fill="rgb(24.705882%, 24.705882%, 24.705882%)" fill-opacity="1" stroke-width="0.0653029" stroke-linecap="round" stroke-linejoin="round" stroke="rgb(0%, 0%, 0%)" stroke-opacity="1" stroke-dasharray="0.354895 0.302253" stroke-miterlimit="4" d="M 87.100328 214.681559 C 87.100328 215.839552 86.161955 216.737995 85.043892 216.737995 C 83.885899 216.737995 82.947526 215.839552 82.947526 214.681559 C 82.947526 213.503601 83.885899 212.585193 85.043892 212.585193 C 86.161955 212.585193 87.100328 213.503601 87.100328 214.681559 Z M 87.100328 214.681559 " transform="matrix(0.195651, 0, 0, 0.195651, -15.486579, -15.674538)"/>
<path fill-rule="nonzero" fill="rgb(24.705882%, 24.705882%, 24.705882%)" fill-opacity="1" stroke-width="0.0653029" stroke-linecap="round" stroke-linejoin="round" stroke="rgb(0%, 0%, 0%)" stroke-opacity="1" stroke-dasharray="0.354895 0.302253" stroke-miterlimit="4" d="M 93.648979 214.881213 C 93.648979 216.059172 92.670674 216.97758 91.552612 216.97758 C 90.414584 216.97758 89.43628 216.059172 89.43628 214.881213 C 89.43628 213.763151 90.414584 212.784847 91.552612 212.784847 C 92.670674 212.784847 93.648979 213.763151 93.648979 214.881213 Z M 93.648979 214.881213 " transform="matrix(0.195651, 0, 0, 0.195651, -15.486579, -15.674538)"/>
<path fill-rule="nonzero" fill="rgb(100%, 100%, 100%)" fill-opacity="1" stroke-width="0.0653029" stroke-linecap="round" stroke-linejoin="round" stroke="rgb(0%, 0%, 0%)" stroke-opacity="1" stroke-dasharray="0.354895 0.302253" stroke-miterlimit="4" d="M 100.117767 214.701525 C 100.117767 215.839552 99.159428 216.797892 98.0214 216.797892 C 96.883373 216.797892 95.964965 215.839552 95.964965 214.701525 C 95.964965 213.583463 96.883373 212.605158 98.0214 212.605158 C 99.159428 212.605158 100.117767 213.583463 100.117767 214.701525 Z M 100.117767 214.701525 " transform="matrix(0.195651, 0, 0, 0.195651, -15.486579, -15.674538)"/>
<path fill-rule="nonzero" fill="rgb(100%, 100%, 100%)" fill-opacity="1" stroke-width="0.0653029" stroke-linecap="round" stroke-linejoin="round" stroke="rgb(0%, 0%, 0%)" stroke-opacity="1" stroke-dasharray="0.354895 0.302253" stroke-miterlimit="4" d="M 106.826141 214.72149 C 106.826141 215.899449 105.887767 216.817857 104.729774 216.817857 C 103.591746 216.817857 102.673338 215.899449 102.673338 214.72149 C 102.673338 213.583463 103.591746 212.665054 104.729774 212.665054 C 105.887767 212.665054 106.826141 213.583463 106.826141 214.72149 Z M 106.826141 214.72149 " transform="matrix(0.195651, 0, 0, 0.195651, -15.486579, -15.674538)"/>
<path fill-rule="nonzero" fill="rgb(100%, 100%, 100%)" fill-opacity="1" stroke-width="0.0653029" stroke-linecap="round" stroke-linejoin="round" stroke="rgb(0%, 0%, 0%)" stroke-opacity="1" stroke-dasharray="0.354895 0.302253" stroke-miterlimit="4" d="M 113.454652 214.741456 C 113.454652 215.919414 112.536244 216.857788 111.358286 216.857788 C 110.240224 216.857788 109.30185 215.919414 109.30185 214.741456 C 109.30185 213.623393 110.240224 212.68502 111.358286 212.68502 C 112.536244 212.68502 113.454652 213.623393 113.454652 214.741456 Z M 113.454652 214.741456 " transform="matrix(0.195651, 0, 0, 0.195651, -15.486579, -15.674538)"/>
<path fill-rule="nonzero" fill="rgb(24.705882%, 24.705882%, 24.705882%)" fill-opacity="1" stroke-width="0.0653029" stroke-linecap="round" stroke-linejoin="round" stroke="rgb(0%, 0%, 0%)" stroke-opacity="1" stroke-dasharray="0.354895 0.302253" stroke-miterlimit="4" d="M 120.143061 214.841283 C 120.143061 215.97931 119.204687 216.897718 118.086625 216.897718 C 116.908666 216.897718 115.990258 215.97931 115.990258 214.841283 C 115.990258 213.663324 116.908666 212.744916 118.086625 212.744916 C 119.204687 212.744916 120.143061 213.663324 120.143061 214.841283 Z M 120.143061 214.841283 " transform="matrix(0.195651, 0, 0, 0.195651, -15.486579, -15.674538)"/>
<path fill-rule="nonzero" fill="rgb(24.705882%, 24.705882%, 24.705882%)" fill-opacity="1" stroke-width="0.0653029" stroke-linecap="round" stroke-linejoin="round" stroke="rgb(0%, 0%, 0%)" stroke-opacity="1" stroke-dasharray="0.354895 0.302253" stroke-miterlimit="4" d="M 126.771572 214.741456 C 126.771572 215.899449 125.853164 216.857788 124.675206 216.857788 C 123.537178 216.857788 122.61877 215.899449 122.61877 214.741456 C 122.61877 213.603428 123.537178 212.665054 124.675206 212.665054 C 125.853164 212.665054 126.771572 213.603428 126.771572 214.741456 Z M 126.771572 214.741456 " transform="matrix(0.195651, 0, 0, 0.195651, -15.486579, -15.674538)"/>
<path fill-rule="nonzero" fill="rgb(24.705882%, 24.705882%, 24.705882%)" fill-opacity="1" stroke-width="0.0653029" stroke-linecap="round" stroke-linejoin="round" stroke="rgb(0%, 0%, 0%)" stroke-opacity="1" stroke-dasharray="0.354895 0.302253" stroke-miterlimit="4" d="M 86.900674 221.110417 C 86.900674 222.248445 85.982266 223.166853 84.844238 223.166853 C 83.686245 223.166853 82.747872 222.248445 82.747872 221.110417 C 82.747872 219.932459 83.686245 219.014051 84.844238 219.014051 C 85.982266 219.014051 86.900674 219.932459 86.900674 221.110417 Z M 86.900674 221.110417 " transform="matrix(0.195651, 0, 0, 0.195651, -15.486579, -15.674538)"/>
<path fill-rule="nonzero" fill="rgb(100%, 100%, 100%)" fill-opacity="1" stroke-width="0.0653029" stroke-linecap="round" stroke-linejoin="round" stroke="rgb(0%, 0%, 0%)" stroke-opacity="1" stroke-dasharray="0.354895 0.302253" stroke-miterlimit="4" d="M 93.409394 221.310071 C 93.409394 222.448099 92.490985 223.366507 91.352958 223.366507 C 90.174999 223.366507 89.256591 222.448099 89.256591 221.310071 C 89.256591 220.152078 90.174999 219.213705 91.352958 219.213705 C 92.490985 219.213705 93.409394 220.152078 93.409394 221.310071 Z M 93.409394 221.310071 " transform="matrix(0.195651, 0, 0, 0.195651, -15.486579, -15.674538)"/>
<path fill-rule="nonzero" fill="rgb(24.705882%, 24.705882%, 24.705882%)" fill-opacity="1" stroke-width="0.0653029" stroke-linecap="round" stroke-linejoin="round" stroke="rgb(0%, 0%, 0%)" stroke-opacity="1" stroke-dasharray="0.354895 0.302253" stroke-miterlimit="4" d="M 99.938079 221.150348 C 99.938079 222.26841 98.959774 223.186819 97.821747 223.186819 C 96.703684 223.186819 95.72538 222.26841 95.72538 221.150348 C 95.72538 219.952424 96.703684 219.034016 97.821747 219.034016 C 98.959774 219.034016 99.938079 219.952424 99.938079 221.150348 Z M 99.938079 221.150348 " transform="matrix(0.195651, 0, 0, 0.195651, -15.486579, -15.674538)"/>
<path fill-rule="nonzero" fill="rgb(24.705882%, 24.705882%, 24.705882%)" fill-opacity="1" stroke-width="0.0653029" stroke-linecap="round" stroke-linejoin="round" stroke="rgb(0%, 0%, 0%)" stroke-opacity="1" stroke-dasharray="0.354895 0.302253" stroke-miterlimit="4" d="M 106.626487 221.150348 C 106.626487 222.288376 105.708078 223.206784 104.53012 223.206784 C 103.392092 223.206784 102.473684 222.288376 102.473684 221.150348 C 102.473684 219.97239 103.392092 219.053981 104.53012 219.053981 C 105.708078 219.053981 106.626487 219.97239 106.626487 221.150348 Z M 106.626487 221.150348 " transform="matrix(0.195651, 0, 0, 0.195651, -15.486579, -15.674538)"/>
<path fill-rule="nonzero" fill="rgb(24.705882%, 24.705882%, 24.705882%)" fill-opacity="1" stroke-width="0.0653029" stroke-linecap="round" stroke-linejoin="round" stroke="rgb(0%, 0%, 0%)" stroke-opacity="1" stroke-dasharray="0.354895 0.302253" stroke-miterlimit="4" d="M 113.274964 221.170313 C 113.274964 222.308341 112.33659 223.26668 111.178597 223.26668 C 110.04057 223.26668 109.122161 222.308341 109.122161 221.170313 C 109.122161 220.052251 110.04057 219.073947 111.178597 219.073947 C 112.33659 219.073947 113.274964 220.052251 113.274964 221.170313 Z M 113.274964 221.170313 " transform="matrix(0.195651, 0, 0, 0.195651, -15.486579, -15.674538)"/>
<path fill-rule="nonzero" fill="rgb(100%, 100%, 100%)" fill-opacity="1" stroke-width="0.0653029" stroke-linecap="round" stroke-linejoin="round" stroke="rgb(0%, 0%, 0%)" stroke-opacity="1" stroke-dasharray="0.354895 0.302253" stroke-miterlimit="4" d="M 119.943407 221.23021 C 119.943407 222.408168 119.024998 223.326576 117.84704 223.326576 C 116.709012 223.326576 115.790604 222.408168 115.790604 221.23021 C 115.790604 220.092182 116.709012 219.173774 117.84704 219.173774 C 119.024998 219.173774 119.943407 220.092182 119.943407 221.23021 Z M 119.943407 221.23021 " transform="matrix(0.195651, 0, 0, 0.195651, -15.486579, -15.674538)"/>
<path fill-rule="nonzero" fill="rgb(24.705882%, 24.705882%, 24.705882%)" fill-opacity="1" stroke-width="0.0653029" stroke-linecap="round" stroke-linejoin="round" stroke="rgb(0%, 0%, 0%)" stroke-opacity="1" stroke-dasharray="0.354895 0.302253" stroke-miterlimit="4" d="M 126.591884 221.150348 C 126.591884 222.288376 125.65351 223.26668 124.495517 223.26668 C 123.357489 223.26668 122.459047 222.288376 122.459047 221.150348 C 122.459047 220.032286 123.357489 219.053981 124.495517 219.053981 C 125.65351 219.053981 126.591884 220.032286 126.591884 221.150348 Z M 126.591884 221.150348 " transform="matrix(0.195651, 0, 0, 0.195651, -15.486579, -15.674538)"/>
<path fill-rule="nonzero" fill="rgb(24.705882%, 24.705882%, 24.705882%)" fill-opacity="1" stroke-width="0.0653029" stroke-linecap="round" stroke-linejoin="round" stroke="rgb(0%, 0%, 0%)" stroke-opacity="1" stroke-dasharray="0.354895 0.302253" stroke-miterlimit="4" d="M 86.92064 227.878687 C 86.92064 229.03668 85.982266 229.975054 84.864204 229.975054 C 83.686245 229.975054 82.767837 229.03668 82.767837 227.878687 C 82.767837 226.740659 83.686245 225.842216 84.864204 225.842216 C 85.982266 225.842216 86.92064 226.740659 86.92064 227.878687 Z M 86.92064 227.878687 " transform="matrix(0.195651, 0, 0, 0.195651, -15.486579, -15.674538)"/>
<path fill-rule="nonzero" fill="rgb(100%, 100%, 100%)" fill-opacity="1" stroke-width="0.0653029" stroke-linecap="round" stroke-linejoin="round" stroke="rgb(0%, 0%, 0%)" stroke-opacity="1" stroke-dasharray="0.354895 0.302253" stroke-miterlimit="4" d="M 93.409394 228.118272 C 93.409394 229.256299 92.490985 230.174708 91.352958 230.174708 C 90.234896 230.174708 89.256591 229.256299 89.256591 228.118272 C 89.256591 226.960279 90.234896 226.04187 91.352958 226.04187 C 92.490985 226.04187 93.409394 226.960279 93.409394 228.118272 Z M 93.409394 228.118272 " transform="matrix(0.195651, 0, 0, 0.195651, -15.486579, -15.674538)"/>
<path fill-rule="nonzero" fill="rgb(24.705882%, 24.705882%, 24.705882%)" fill-opacity="1" stroke-width="0.0653029" stroke-linecap="round" stroke-linejoin="round" stroke="rgb(0%, 0%, 0%)" stroke-opacity="1" stroke-dasharray="0.354895 0.302253" stroke-miterlimit="4" d="M 99.938079 227.938583 C 99.938079 229.076611 98.97974 229.995019 97.841712 229.995019 C 96.703684 229.995019 95.745345 229.076611 95.745345 227.938583 C 95.745345 226.760625 96.703684 225.842216 97.841712 225.842216 C 98.97974 225.842216 99.938079 226.760625 99.938079 227.938583 Z M 99.938079 227.938583 " transform="matrix(0.195651, 0, 0, 0.195651, -15.486579, -15.674538)"/>
<path fill-rule="nonzero" fill="rgb(24.705882%, 24.705882%, 24.705882%)" fill-opacity="1" stroke-width="0.0653029" stroke-linecap="round" stroke-linejoin="round" stroke="rgb(0%, 0%, 0%)" stroke-opacity="1" stroke-dasharray="0.354895 0.302253" stroke-miterlimit="4" d="M 106.646452 227.958549 C 106.646452 229.096576 105.708078 230.014984 104.550085 230.014984 C 103.412058 230.014984 102.473684 229.096576 102.473684 227.958549 C 102.473684 226.78059 103.412058 225.862182 104.550085 225.862182 C 105.708078 225.862182 106.646452 226.78059 106.646452 227.958549 Z M 106.646452 227.958549 " transform="matrix(0.195651, 0, 0, 0.195651, -15.486579, -15.674538)"/>
<path fill-rule="nonzero" fill="rgb(24.705882%, 24.705882%, 24.705882%)" fill-opacity="1" stroke-width="0.0653029" stroke-linecap="round" stroke-linejoin="round" stroke="rgb(0%, 0%, 0%)" stroke-opacity="1" stroke-dasharray="0.354895 0.302253" stroke-miterlimit="4" d="M 113.274964 227.978514 C 113.274964 229.116542 112.356556 230.03495 111.178597 230.03495 C 110.04057 230.03495 109.122161 229.116542 109.122161 227.978514 C 109.122161 226.860452 110.04057 225.882147 111.178597 225.882147 C 112.356556 225.882147 113.274964 226.860452 113.274964 227.978514 Z M 113.274964 227.978514 " transform="matrix(0.195651, 0, 0, 0.195651, -15.486579, -15.674538)"/>
<path fill-rule="nonzero" fill="rgb(100%, 100%, 100%)" fill-opacity="1" stroke-width="0.0653029" stroke-linecap="round" stroke-linejoin="round" stroke="rgb(0%, 0%, 0%)" stroke-opacity="1" stroke-dasharray="0.354895 0.302253" stroke-miterlimit="4" d="M 119.963372 228.03841 C 119.963372 229.216369 119.024998 230.134777 117.906936 230.134777 C 116.748943 230.134777 115.810569 229.216369 115.810569 228.03841 C 115.810569 226.900382 116.748943 225.981974 117.906936 225.981974 C 119.024998 225.981974 119.963372 226.900382 119.963372 228.03841 Z M 119.963372 228.03841 " transform="matrix(0.195651, 0, 0, 0.195651, -15.486579, -15.674538)"/>
<path fill-rule="nonzero" fill="rgb(24.705882%, 24.705882%, 24.705882%)" fill-opacity="1" stroke-width="0.0653029" stroke-linecap="round" stroke-linejoin="round" stroke="rgb(0%, 0%, 0%)" stroke-opacity="1" stroke-dasharray="0.354895 0.302253" stroke-miterlimit="4" d="M 126.591884 227.958549 C 126.591884 229.096576 125.673476 230.014984 124.495517 230.014984 C 123.357489 230.014984 122.459047 229.096576 122.459047 227.958549 C 122.459047 226.800555 123.357489 225.862182 124.495517 225.862182 C 125.673476 225.862182 126.591884 226.800555 126.591884 227.958549 Z M 126.591884 227.958549 " transform="matrix(0.195651, 0, 0, 0.195651, -15.486579, -15.674538)"/>
<path fill-rule="nonzero" fill="rgb(24.705882%, 24.705882%, 24.705882%)" fill-opacity="1" stroke-width="0.0653029" stroke-linecap="round" stroke-linejoin="round" stroke="rgb(0%, 0%, 0%)" stroke-opacity="1" stroke-dasharray="0.354895 0.302253" stroke-miterlimit="4" d="M 87.060397 234.706853 C 87.060397 235.864846 86.161955 236.803219 84.964031 236.803219 C 83.826003 236.803219 82.907595 235.864846 82.907595 234.706853 C 82.907595 233.568825 83.826003 232.650417 84.964031 232.650417 C 86.161955 232.650417 87.060397 233.568825 87.060397 234.706853 Z M 87.060397 234.706853 " transform="matrix(0.195651, 0, 0, 0.195651, -15.486579, -15.674538)"/>
<path fill-rule="nonzero" fill="rgb(24.705882%, 24.705882%, 24.705882%)" fill-opacity="1" stroke-width="0.0653029" stroke-linecap="round" stroke-linejoin="round" stroke="rgb(0%, 0%, 0%)" stroke-opacity="1" stroke-dasharray="0.354895 0.302253" stroke-miterlimit="4" d="M 93.569117 234.946438 C 93.569117 236.084465 92.630743 237.002873 91.512681 237.002873 C 90.334723 237.002873 89.416314 236.084465 89.416314 234.946438 C 89.416314 233.788444 90.334723 232.850071 91.512681 232.850071 C 92.630743 232.850071 93.569117 233.788444 93.569117 234.946438 Z M 93.569117 234.946438 " transform="matrix(0.195651, 0, 0, 0.195651, -15.486579, -15.674538)"/>
<path fill-rule="nonzero" fill="rgb(100%, 100%, 100%)" fill-opacity="1" stroke-width="0.0653029" stroke-linecap="round" stroke-linejoin="round" stroke="rgb(0%, 0%, 0%)" stroke-opacity="1" stroke-dasharray="0.354895 0.302253" stroke-miterlimit="4" d="M 100.037906 234.766749 C 100.037906 235.904777 99.119497 236.84315 97.98147 236.84315 C 96.803511 236.84315 95.885103 235.904777 95.885103 234.766749 C 95.885103 233.588791 96.803511 232.670382 97.98147 232.670382 C 99.119497 232.670382 100.037906 233.588791 100.037906 234.766749 Z M 100.037906 234.766749 " transform="matrix(0.195651, 0, 0, 0.195651, -15.486579, -15.674538)"/>
<path fill-rule="nonzero" fill="rgb(100%, 100%, 100%)" fill-opacity="1" stroke-width="0.0653029" stroke-linecap="round" stroke-linejoin="round" stroke="rgb(0%, 0%, 0%)" stroke-opacity="1" stroke-dasharray="0.354895 0.302253" stroke-miterlimit="4" d="M 106.78621 234.786714 C 106.78621 235.924742 105.867802 236.84315 104.689843 236.84315 C 103.551816 236.84315 102.633407 235.924742 102.633407 234.786714 C 102.633407 233.608756 103.551816 232.690348 104.689843 232.690348 C 105.867802 232.690348 106.78621 233.608756 106.78621 234.786714 Z M 106.78621 234.786714 " transform="matrix(0.195651, 0, 0, 0.195651, -15.486579, -15.674538)"/>
<path fill-rule="nonzero" fill="rgb(100%, 100%, 100%)" fill-opacity="1" stroke-width="0.0653029" stroke-linecap="round" stroke-linejoin="round" stroke="rgb(0%, 0%, 0%)" stroke-opacity="1" stroke-dasharray="0.354895 0.302253" stroke-miterlimit="4" d="M 113.434687 234.826645 C 113.434687 235.944707 112.456383 236.863116 111.318355 236.863116 C 110.200293 236.863116 109.221988 235.944707 109.221988 234.826645 C 109.221988 233.688618 110.200293 232.710313 111.318355 232.710313 C 112.456383 232.710313 113.434687 233.688618 113.434687 234.826645 Z M 113.434687 234.826645 " transform="matrix(0.195651, 0, 0, 0.195651, -15.486579, -15.674538)"/>
<path fill-rule="nonzero" fill="rgb(24.705882%, 24.705882%, 24.705882%)" fill-opacity="1" stroke-width="0.0653029" stroke-linecap="round" stroke-linejoin="round" stroke="rgb(0%, 0%, 0%)" stroke-opacity="1" stroke-dasharray="0.354895 0.302253" stroke-miterlimit="4" d="M 120.10313 234.866576 C 120.10313 236.044534 119.184721 236.962943 118.006763 236.962943 C 116.868735 236.962943 115.950327 236.044534 115.950327 234.866576 C 115.950327 233.728548 116.868735 232.81014 118.006763 232.81014 C 119.184721 232.81014 120.10313 233.728548 120.10313 234.866576 Z M 120.10313 234.866576 " transform="matrix(0.195651, 0, 0, 0.195651, -15.486579, -15.674538)"/>
<path fill-rule="nonzero" fill="rgb(24.705882%, 24.705882%, 24.705882%)" fill-opacity="1" stroke-width="0.0653029" stroke-linecap="round" stroke-linejoin="round" stroke="rgb(0%, 0%, 0%)" stroke-opacity="1" stroke-dasharray="0.354895 0.302253" stroke-miterlimit="4" d="M 126.751607 234.786714 C 126.751607 235.924742 125.813233 236.84315 124.635275 236.84315 C 123.517213 236.84315 122.578839 235.924742 122.578839 234.786714 C 122.578839 233.628721 123.517213 232.690348 124.635275 232.690348 C 125.813233 232.690348 126.751607 233.628721 126.751607 234.786714 Z M 126.751607 234.786714 " transform="matrix(0.195651, 0, 0, 0.195651, -15.486579, -15.674538)"/>
</svg>
