<?xml version="1.0" encoding="UTF-8"?>
<svg xmlns="http://www.w3.org/2000/svg" xmlns:xlink="http://www.w3.org/1999/xlink" width="14" height="20.540851" viewBox="0 0 14 20.540851">
<path fill-rule="nonzero" fill="rgb(14.901961%, 14.901961%, 14.901961%)" fill-opacity="1" d="M 0 0 L 14 0 L 14 20.539062 L 0 20.539062 Z M 0 0 "/>
<path fill-rule="nonzero" fill="rgb(100%, 100%, 100%)" fill-opacity="1" d="M 8.160156 10.414062 C 8.160156 10.996094 7.6875 11.464844 7.109375 11.464844 C 6.527344 11.464844 6.058594 10.996094 6.058594 10.414062 C 6.058594 9.835938 6.527344 9.363281 7.109375 9.363281 C 7.6875 9.363281 8.160156 9.835938 8.160156 10.414062 Z M 8.160156 10.414062 "/>
<path fill-rule="nonzero" fill="rgb(100%, 100%, 100%)" fill-opacity="1" d="M 13.121094 5.164062 C 13.121094 5.742188 12.652344 6.210938 12.070312 6.210938 C 11.492188 6.210938 11.019531 5.742188 11.019531 5.164062 C 11.019531 4.582031 11.492188 4.113281 12.070312 4.113281 C 12.652344 4.113281 13.121094 4.582031 13.121094 5.164062 Z M 13.121094 5.164062 "/>
<path fill-rule="nonzero" fill="rgb(100%, 100%, 100%)" fill-opacity="1" d="M 3.074219 15.410156 C 3.074219 15.988281 2.605469 16.460938 2.027344 16.460938 C 1.445312 16.460938 0.976562 15.988281 0.976562 15.410156 C 0.976562 14.828125 1.445312 14.363281 2.027344 14.363281 C 2.605469 14.363281 3.074219 14.828125 3.074219 15.410156 Z M 3.074219 15.410156 "/>
<path fill-rule="nonzero" fill="rgb(100%, 100%, 100%)" fill-opacity="1" d="M 5.53125 12.738281 C 5.53125 13.320312 5.0625 13.789062 4.484375 13.789062 C 3.902344 13.789062 3.429688 13.320312 3.429688 12.738281 C 3.429688 12.160156 3.902344 11.6875 4.484375 11.6875 C 5.0625 11.6875 5.53125 12.160156 5.53125 12.738281 Z M 5.53125 12.738281 "/>
<path fill-rule="nonzero" fill="rgb(100%, 100%, 100%)" fill-opacity="1" d="M 10.679688 7.597656 C 10.679688 8.175781 10.210938 8.644531 9.628906 8.644531 C 9.050781 8.644531 8.582031 8.175781 8.582031 7.597656 C 8.582031 7.015625 9.050781 6.542969 9.628906 6.542969 C 10.210938 6.542969 10.679688 7.015625 10.679688 7.597656 Z M 10.679688 7.597656 "/>
</svg>
