<?xml version="1.0" encoding="UTF-8"?>
<svg xmlns="http://www.w3.org/2000/svg" xmlns:xlink="http://www.w3.org/1999/xlink" width="13.654229" height="20" viewBox="0 0 13.654229 20">
<path fill-rule="nonzero" fill="rgb(14.901961%, 14.901961%, 14.901961%)" fill-opacity="1" stroke-width="0.264999" stroke-linecap="round" stroke-linejoin="round" stroke="rgb(0%, 0%, 0%)" stroke-opacity="1" stroke-dasharray="0.264999 0.53" stroke-miterlimit="4" d="M 0.710229 0.574255 L 47.161915 0.574255 L 47.161915 68.72834 L 0.710229 68.72834 Z M 0.710229 0.574255 " transform="matrix(0.292306, 0, 0, 0.292306, -0.168542, -0.128796)"/>
<path fill-rule="nonzero" fill="rgb(100%, 100%, 100%)" fill-opacity="1" stroke-width="0.243891" stroke-linecap="round" stroke-linejoin="round" stroke="rgb(0%, 0%, 0%)" stroke-opacity="1" stroke-dasharray="0.243891 0.487784" stroke-miterlimit="4" d="M 27.784773 35.132385 C 27.784773 37.056736 26.221238 38.620271 24.296887 38.620271 C 22.372537 38.620271 20.809002 37.056736 20.809002 35.132385 C 20.809002 33.208035 22.372537 31.6445 24.296887 31.6445 C 26.221238 31.6445 27.784773 33.208035 27.784773 35.132385 Z M 27.784773 35.132385 " transform="matrix(0.292306, 0, 0, 0.292306, -0.168542, -0.128796)"/>
<path fill-rule="nonzero" fill="rgb(100%, 100%, 100%)" fill-opacity="1" stroke-width="0.243891" stroke-linecap="round" stroke-linejoin="round" stroke="rgb(0%, 0%, 0%)" stroke-opacity="1" stroke-dasharray="0.243891 0.487784" stroke-miterlimit="4" d="M 44.248662 17.706321 C 44.248662 19.630672 42.685127 21.180843 40.760776 21.180843 C 38.836426 21.180843 37.272891 19.630672 37.272891 17.706321 C 37.272891 15.78197 38.836426 14.218436 40.760776 14.218436 C 42.685127 14.218436 44.248662 15.78197 44.248662 17.706321 Z M 44.248662 17.706321 " transform="matrix(0.292306, 0, 0, 0.292306, -0.168542, -0.128796)"/>
<path fill-rule="nonzero" fill="rgb(100%, 100%, 100%)" fill-opacity="1" stroke-width="0.243891" stroke-linecap="round" stroke-linejoin="round" stroke="rgb(0%, 0%, 0%)" stroke-opacity="1" stroke-dasharray="0.243891 0.487784" stroke-miterlimit="4" d="M 10.906614 51.703182 C 10.906614 53.627533 9.356443 55.191068 7.432092 55.191068 C 5.507742 55.191068 3.944207 53.627533 3.944207 51.703182 C 3.944207 49.778832 5.507742 48.22866 7.432092 48.22866 C 9.356443 48.22866 10.906614 49.778832 10.906614 51.703182 Z M 10.906614 51.703182 " transform="matrix(0.292306, 0, 0, 0.292306, -0.168542, -0.128796)"/>
<path fill-rule="nonzero" fill="rgb(100%, 100%, 100%)" fill-opacity="1" stroke-width="0.243891" stroke-linecap="round" stroke-linejoin="round" stroke="rgb(0%, 0%, 0%)" stroke-opacity="1" stroke-dasharray="0.243891 0.487784" stroke-miterlimit="4" d="M 19.058377 42.843151 C 19.058377 44.767502 17.508206 46.331037 15.583855 46.331037 C 13.659505 46.331037 12.09597 44.767502 12.09597 42.843151 C 12.09597 40.918801 13.659505 39.355266 15.583855 39.355266 C 17.508206 39.355266 19.058377 40.918801 19.058377 42.843151 Z M 19.058377 42.843151 " transform="matrix(0.292306, 0, 0, 0.292306, -0.168542, -0.128796)"/>
<path fill-rule="nonzero" fill="rgb(100%, 100%, 100%)" fill-opacity="1" stroke-width="0.243891" stroke-linecap="round" stroke-linejoin="round" stroke="rgb(0%, 0%, 0%)" stroke-opacity="1" stroke-dasharray="0.243891 0.487784" stroke-miterlimit="4" d="M 36.150353 25.777903 C 36.150353 27.702254 34.586818 29.252425 32.662467 29.252425 C 30.738117 29.252425 29.187945 27.702254 29.187945 25.777903 C 29.187945 23.853552 30.738117 22.290017 32.662467 22.290017 C 34.586818 22.290017 36.150353 23.853552 36.150353 25.777903 Z M 36.150353 25.777903 " transform="matrix(0.292306, 0, 0, 0.292306, -0.168542, -0.128796)"/>
</svg>
