<?xml version="1.0" encoding="UTF-8"?>
<svg xmlns="http://www.w3.org/2000/svg" xmlns:xlink="http://www.w3.org/1999/xlink" width="18" height="17.735493" viewBox="0 0 18 17.735493">
<path fill-rule="nonzero" fill="rgb(14.901961%, 14.901961%, 14.901961%)" fill-opacity="1" stroke-width="0.0227397" stroke-linecap="round" stroke-linejoin="round" stroke="rgb(0%, 0%, 0%)" stroke-opacity="1" stroke-dasharray="0.576893 0.714866" stroke-miterlimit="4" d="M 0.0117188 0.0117188 L 17.988281 0.0117188 L 17.988281 17.722656 C 17.988281 17.722656 13.089844 17.734375 8.894531 17.734375 C 6.007812 17.734375 3.394531 16.878906 1.972656 15.476562 C 0.550781 14.078125 0 11.324219 0 8.867188 C 0 4.507812 0.0117188 0.0117188 0.0117188 0.0117188 Z M 0.0117188 0.0117188 "/>
<path fill-rule="nonzero" fill="rgb(100%, 100%, 100%)" fill-opacity="1" d="M 7.269531 1.867188 C 7.269531 2.269531 6.945312 2.59375 6.546875 2.59375 C 6.144531 2.59375 5.820312 2.269531 5.820312 1.867188 C 5.820312 1.46875 6.144531 1.144531 6.546875 1.144531 C 6.945312 1.144531 7.269531 1.46875 7.269531 1.867188 Z M 7.269531 1.867188 "/>
<path fill-rule="nonzero" fill="rgb(100%, 100%, 100%)" fill-opacity="1" d="M 9.609375 1.875 C 9.609375 2.273438 9.285156 2.597656 8.886719 2.597656 C 8.480469 2.597656 8.15625 2.273438 8.15625 1.875 C 8.15625 1.472656 8.480469 1.148438 8.886719 1.148438 C 9.285156 1.148438 9.609375 1.472656 9.609375 1.875 Z M 9.609375 1.875 "/>
<path fill-rule="nonzero" fill="rgb(100%, 100%, 100%)" fill-opacity="1" d="M 11.921875 1.886719 C 11.921875 2.285156 11.59375 2.609375 11.195312 2.609375 C 10.792969 2.609375 10.46875 2.285156 10.46875 1.886719 C 10.46875 1.484375 10.792969 1.160156 11.195312 1.160156 C 11.59375 1.160156 11.921875 1.484375 11.921875 1.886719 Z M 11.921875 1.886719 "/>
<path fill-rule="nonzero" fill="rgb(100%, 100%, 100%)" fill-opacity="1" d="M 4.964844 4.144531 C 4.964844 4.546875 4.640625 4.871094 4.238281 4.871094 C 3.839844 4.871094 3.515625 4.546875 3.515625 4.144531 C 3.515625 3.746094 3.839844 3.421875 4.238281 3.421875 C 4.640625 3.421875 4.964844 3.746094 4.964844 4.144531 Z M 4.964844 4.144531 "/>
<path fill-rule="nonzero" fill="rgb(100%, 100%, 100%)" fill-opacity="1" d="M 14.203125 4.125 C 14.203125 4.523438 13.878906 4.847656 13.476562 4.847656 C 13.078125 4.847656 12.75 4.523438 12.75 4.125 C 12.75 3.722656 13.078125 3.398438 13.476562 3.398438 C 13.878906 3.398438 14.203125 3.722656 14.203125 4.125 Z M 14.203125 4.125 "/>
<path fill-rule="nonzero" fill="rgb(100%, 100%, 100%)" fill-opacity="1" d="M 4.984375 6.539062 C 4.984375 6.9375 4.660156 7.261719 4.257812 7.261719 C 3.859375 7.261719 3.535156 6.9375 3.535156 6.539062 C 3.535156 6.140625 3.859375 5.816406 4.257812 5.816406 C 4.660156 5.816406 4.984375 6.140625 4.984375 6.539062 Z M 4.984375 6.539062 "/>
<path fill-rule="nonzero" fill="rgb(100%, 100%, 100%)" fill-opacity="1" d="M 14.21875 6.515625 C 14.21875 6.917969 13.894531 7.242188 13.492188 7.242188 C 13.09375 7.242188 12.769531 6.917969 12.769531 6.515625 C 12.769531 6.117188 13.09375 5.792969 13.492188 5.792969 C 13.894531 5.792969 14.21875 6.117188 14.21875 6.515625 Z M 14.21875 6.515625 "/>
<path fill-rule="nonzero" fill="rgb(100%, 100%, 100%)" fill-opacity="1" d="M 7.296875 8.804688 C 7.296875 9.199219 6.972656 9.527344 6.574219 9.527344 C 6.171875 9.527344 5.84375 9.199219 5.84375 8.804688 C 5.84375 8.398438 6.171875 8.074219 6.574219 8.074219 C 6.972656 8.074219 7.296875 8.398438 7.296875 8.804688 Z M 7.296875 8.804688 "/>
<path fill-rule="nonzero" fill="rgb(100%, 100%, 100%)" fill-opacity="1" d="M 9.632812 8.808594 C 9.632812 9.207031 9.308594 9.53125 8.90625 9.53125 C 8.507812 9.53125 8.183594 9.207031 8.183594 8.808594 C 8.183594 8.410156 8.507812 8.085938 8.90625 8.085938 C 9.308594 8.085938 9.632812 8.410156 9.632812 8.808594 Z M 9.632812 8.808594 "/>
<path fill-rule="nonzero" fill="rgb(100%, 100%, 100%)" fill-opacity="1" d="M 11.945312 8.820312 C 11.945312 9.21875 11.621094 9.542969 11.222656 9.542969 C 10.820312 9.542969 10.496094 9.21875 10.496094 8.820312 C 10.496094 8.421875 10.820312 8.097656 11.222656 8.097656 C 11.621094 8.097656 11.945312 8.421875 11.945312 8.820312 Z M 11.945312 8.820312 "/>
<path fill-rule="nonzero" fill="rgb(100%, 100%, 100%)" fill-opacity="1" d="M 4.972656 11.097656 C 4.972656 11.5 4.644531 11.824219 4.242188 11.824219 C 3.84375 11.824219 3.519531 11.5 3.519531 11.097656 C 3.519531 10.699219 3.84375 10.375 4.242188 10.375 C 4.644531 10.375 4.972656 10.699219 4.972656 11.097656 Z M 4.972656 11.097656 "/>
<path fill-rule="nonzero" fill="rgb(100%, 100%, 100%)" fill-opacity="1" d="M 14.207031 11.082031 C 14.207031 11.480469 13.882812 11.804688 13.480469 11.804688 C 13.082031 11.804688 12.757812 11.480469 12.757812 11.082031 C 12.757812 10.675781 13.082031 10.351562 13.480469 10.351562 C 13.882812 10.351562 14.207031 10.675781 14.207031 11.082031 Z M 14.207031 11.082031 "/>
<path fill-rule="nonzero" fill="rgb(100%, 100%, 100%)" fill-opacity="1" d="M 4.976562 13.464844 C 4.976562 13.867188 4.648438 14.195312 4.246094 14.195312 C 3.847656 14.195312 3.523438 13.867188 3.523438 13.464844 C 3.523438 13.066406 3.847656 12.742188 4.246094 12.742188 C 4.648438 12.742188 4.976562 13.066406 4.976562 13.464844 Z M 4.976562 13.464844 "/>
<path fill-rule="nonzero" fill="rgb(100%, 100%, 100%)" fill-opacity="1" d="M 14.210938 13.449219 C 14.210938 13.847656 13.886719 14.171875 13.484375 14.171875 C 13.085938 14.171875 12.761719 13.847656 12.761719 13.449219 C 12.761719 13.046875 13.085938 12.722656 13.484375 12.722656 C 13.886719 12.722656 14.210938 13.046875 14.210938 13.449219 Z M 14.210938 13.449219 "/>
<path fill-rule="nonzero" fill="rgb(100%, 100%, 100%)" fill-opacity="1" d="M 7.277344 15.78125 C 7.277344 16.179688 6.953125 16.503906 6.554688 16.503906 C 6.152344 16.503906 5.828125 16.179688 5.828125 15.78125 C 5.828125 15.378906 6.152344 15.054688 6.554688 15.054688 C 6.953125 15.054688 7.277344 15.378906 7.277344 15.78125 Z M 7.277344 15.78125 "/>
<path fill-rule="nonzero" fill="rgb(100%, 100%, 100%)" fill-opacity="1" d="M 9.617188 15.785156 C 9.617188 16.183594 9.292969 16.511719 8.894531 16.511719 C 8.492188 16.511719 8.167969 16.183594 8.167969 15.785156 C 8.167969 15.386719 8.492188 15.0625 8.894531 15.0625 C 9.292969 15.0625 9.617188 15.386719 9.617188 15.785156 Z M 9.617188 15.785156 "/>
<path fill-rule="nonzero" fill="rgb(100%, 100%, 100%)" fill-opacity="1" d="M 11.929688 15.800781 C 11.929688 16.199219 11.605469 16.523438 11.207031 16.523438 C 10.804688 16.523438 10.476562 16.199219 10.476562 15.800781 C 10.476562 15.402344 10.804688 15.078125 11.207031 15.078125 C 11.605469 15.078125 11.929688 15.402344 11.929688 15.800781 Z M 11.929688 15.800781 "/>
</svg>
