<?xml version="1.0" encoding="UTF-8"?>
<svg xmlns="http://www.w3.org/2000/svg" xmlns:xlink="http://www.w3.org/1999/xlink" width="18" height="17.735492" viewBox="0 0 18 17.735492">
<path fill-rule="nonzero" fill="rgb(14.901961%, 14.901961%, 14.901961%)" fill-opacity="1" stroke-width="0.264999" stroke-linecap="round" stroke-linejoin="round" stroke="rgb(0%, 0%, 0%)" stroke-opacity="1" stroke-dasharray="0.576893 0.714866" stroke-miterlimit="4" d="M 0.717671 -0.0509273 L 210.208499 -0.0509273 L 210.208499 206.344426 L 0.717671 206.344426 Z M 0.717671 -0.0509273 " transform="matrix(0.0858107, 0, 0, 0.0858107, -0.0498651, 0.0160889)"/>
<path fill-rule="nonzero" fill="rgb(100%, 100%, 100%)" fill-opacity="1" d="M 4.011719 1.894531 C 4.011719 2.296875 3.6875 2.621094 3.285156 2.621094 C 2.886719 2.621094 2.5625 2.296875 2.5625 1.894531 C 2.5625 1.496094 2.886719 1.171875 3.285156 1.171875 C 3.6875 1.171875 4.011719 1.496094 4.011719 1.894531 Z M 4.011719 1.894531 "/>
<path fill-rule="nonzero" fill="rgb(100%, 100%, 100%)" fill-opacity="1" d="M 8.535156 1.90625 C 8.535156 2.308594 8.210938 2.636719 7.8125 2.636719 C 7.410156 2.636719 7.085938 2.308594 7.085938 1.90625 C 7.085938 1.507812 7.410156 1.183594 7.8125 1.183594 C 8.210938 1.183594 8.535156 1.507812 8.535156 1.90625 Z M 8.535156 1.90625 "/>
<path fill-rule="nonzero" fill="rgb(100%, 100%, 100%)" fill-opacity="1" d="M 10.875 1.914062 C 10.875 2.3125 10.550781 2.640625 10.152344 2.640625 C 9.75 2.640625 9.425781 2.3125 9.425781 1.914062 C 9.425781 1.511719 9.75 1.1875 10.152344 1.1875 C 10.550781 1.1875 10.875 1.511719 10.875 1.914062 Z M 10.875 1.914062 "/>
<path fill-rule="nonzero" fill="rgb(100%, 100%, 100%)" fill-opacity="1" d="M 13.1875 1.929688 C 13.1875 2.328125 12.863281 2.652344 12.464844 2.652344 C 12.0625 2.652344 11.738281 2.328125 11.738281 1.929688 C 11.738281 1.527344 12.0625 1.203125 12.464844 1.203125 C 12.863281 1.203125 13.1875 1.527344 13.1875 1.929688 Z M 13.1875 1.929688 "/>
<path fill-rule="nonzero" fill="rgb(100%, 100%, 100%)" fill-opacity="1" d="M 3.964844 4.109375 C 3.964844 4.507812 3.640625 4.835938 3.238281 4.835938 C 2.839844 4.835938 2.515625 4.507812 2.515625 4.109375 C 2.515625 3.707031 2.839844 3.382812 3.238281 3.382812 C 3.640625 3.382812 3.964844 3.707031 3.964844 4.109375 Z M 3.964844 4.109375 "/>
<path fill-rule="nonzero" fill="rgb(100%, 100%, 100%)" fill-opacity="1" d="M 15.46875 4.167969 C 15.46875 4.566406 15.144531 4.890625 14.742188 4.890625 C 14.34375 4.890625 14.019531 4.566406 14.019531 4.167969 C 14.019531 3.765625 14.34375 3.441406 14.742188 3.441406 C 15.144531 3.441406 15.46875 3.765625 15.46875 4.167969 Z M 15.46875 4.167969 "/>
<path fill-rule="nonzero" fill="rgb(100%, 100%, 100%)" fill-opacity="1" d="M 3.980469 6.5 C 3.980469 6.902344 3.65625 7.230469 3.253906 7.230469 C 2.855469 7.230469 2.53125 6.902344 2.53125 6.5 C 2.53125 6.101562 2.855469 5.777344 3.253906 5.777344 C 3.65625 5.777344 3.980469 6.101562 3.980469 6.5 Z M 3.980469 6.5 "/>
<path fill-rule="nonzero" fill="rgb(100%, 100%, 100%)" fill-opacity="1" d="M 15.484375 6.558594 C 15.484375 6.960938 15.160156 7.285156 14.757812 7.285156 C 14.359375 7.285156 14.035156 6.960938 14.035156 6.558594 C 14.035156 6.160156 14.359375 5.835938 14.757812 5.835938 C 15.160156 5.835938 15.484375 6.160156 15.484375 6.558594 Z M 15.484375 6.558594 "/>
<path fill-rule="nonzero" fill="rgb(100%, 100%, 100%)" fill-opacity="1" d="M 4.035156 8.828125 C 4.035156 9.230469 3.707031 9.554688 3.308594 9.554688 C 2.910156 9.554688 2.585938 9.230469 2.585938 8.828125 C 2.585938 8.429688 2.910156 8.101562 3.308594 8.101562 C 3.707031 8.101562 4.035156 8.429688 4.035156 8.828125 Z M 4.035156 8.828125 "/>
<path fill-rule="nonzero" fill="rgb(100%, 100%, 100%)" fill-opacity="1" d="M 8.5625 8.84375 C 8.5625 9.242188 8.238281 9.566406 7.839844 9.566406 C 7.4375 9.566406 7.113281 9.242188 7.113281 8.84375 C 7.113281 8.441406 7.4375 8.117188 7.839844 8.117188 C 8.238281 8.117188 8.5625 8.441406 8.5625 8.84375 Z M 8.5625 8.84375 "/>
<path fill-rule="nonzero" fill="rgb(100%, 100%, 100%)" fill-opacity="1" d="M 10.902344 8.847656 C 10.902344 9.246094 10.574219 9.570312 10.171875 9.570312 C 9.773438 9.570312 9.449219 9.246094 9.449219 8.847656 C 9.449219 8.449219 9.773438 8.125 10.171875 8.125 C 10.574219 8.125 10.902344 8.449219 10.902344 8.847656 Z M 10.902344 8.847656 "/>
<path fill-rule="nonzero" fill="rgb(100%, 100%, 100%)" fill-opacity="1" d="M 13.214844 8.859375 C 13.214844 9.257812 12.886719 9.585938 12.488281 9.585938 C 12.085938 9.585938 11.761719 9.257812 11.761719 8.859375 C 11.761719 8.464844 12.085938 8.136719 12.488281 8.136719 C 12.886719 8.136719 13.214844 8.464844 13.214844 8.859375 Z M 13.214844 8.859375 "/>
<path fill-rule="nonzero" fill="rgb(100%, 100%, 100%)" fill-opacity="1" d="M 3.96875 11.0625 C 3.96875 11.464844 3.644531 11.789062 3.242188 11.789062 C 2.84375 11.789062 2.519531 11.464844 2.519531 11.0625 C 2.519531 10.664062 2.84375 10.335938 3.242188 10.335938 C 3.644531 10.335938 3.96875 10.664062 3.96875 11.0625 Z M 3.96875 11.0625 "/>
<path fill-rule="nonzero" fill="rgb(100%, 100%, 100%)" fill-opacity="1" d="M 15.472656 11.121094 C 15.472656 11.519531 15.148438 11.84375 14.746094 11.84375 C 14.347656 11.84375 14.023438 11.519531 14.023438 11.121094 C 14.023438 10.71875 14.347656 10.394531 14.746094 10.394531 C 15.148438 10.394531 15.472656 10.71875 15.472656 11.121094 Z M 15.472656 11.121094 "/>
<path fill-rule="nonzero" fill="rgb(100%, 100%, 100%)" fill-opacity="1" d="M 3.972656 13.429688 C 3.972656 13.832031 3.648438 14.15625 3.246094 14.15625 C 2.847656 14.15625 2.523438 13.832031 2.523438 13.429688 C 2.523438 13.03125 2.847656 12.707031 3.246094 12.707031 C 3.648438 12.707031 3.972656 13.03125 3.972656 13.429688 Z M 3.972656 13.429688 "/>
<path fill-rule="nonzero" fill="rgb(100%, 100%, 100%)" fill-opacity="1" d="M 15.476562 13.488281 C 15.476562 13.886719 15.152344 14.214844 14.75 14.214844 C 14.351562 14.214844 14.027344 13.886719 14.027344 13.488281 C 14.027344 13.085938 14.351562 12.761719 14.75 12.761719 C 15.152344 12.761719 15.476562 13.085938 15.476562 13.488281 Z M 15.476562 13.488281 "/>
<path fill-rule="nonzero" fill="rgb(100%, 100%, 100%)" fill-opacity="1" d="M 4.019531 15.8125 C 4.019531 16.210938 3.695312 16.535156 3.292969 16.535156 C 2.894531 16.535156 2.570312 16.210938 2.570312 15.8125 C 2.570312 15.40625 2.894531 15.082031 3.292969 15.082031 C 3.695312 15.082031 4.019531 15.40625 4.019531 15.8125 Z M 4.019531 15.8125 "/>
<path fill-rule="nonzero" fill="rgb(100%, 100%, 100%)" fill-opacity="1" d="M 8.546875 15.824219 C 8.546875 16.222656 8.21875 16.546875 7.820312 16.546875 C 7.417969 16.546875 7.09375 16.222656 7.09375 15.824219 C 7.09375 15.421875 7.417969 15.097656 7.820312 15.097656 C 8.21875 15.097656 8.546875 15.421875 8.546875 15.824219 Z M 8.546875 15.824219 "/>
<path fill-rule="nonzero" fill="rgb(100%, 100%, 100%)" fill-opacity="1" d="M 10.882812 15.828125 C 10.882812 16.226562 10.558594 16.550781 10.160156 16.550781 C 9.757812 16.550781 9.433594 16.226562 9.433594 15.828125 C 9.433594 15.429688 9.757812 15.105469 10.160156 15.105469 C 10.558594 15.105469 10.882812 15.429688 10.882812 15.828125 Z M 10.882812 15.828125 "/>
<path fill-rule="nonzero" fill="rgb(100%, 100%, 100%)" fill-opacity="1" d="M 13.195312 15.839844 C 13.195312 16.238281 12.871094 16.5625 12.472656 16.5625 C 12.070312 16.5625 11.746094 16.238281 11.746094 15.839844 C 11.746094 15.441406 12.070312 15.117188 12.472656 15.117188 C 12.871094 15.117188 13.195312 15.441406 13.195312 15.839844 Z M 13.195312 15.839844 "/>
</svg>
