<?xml version="1.0" encoding="UTF-8"?>
<svg xmlns="http://www.w3.org/2000/svg" xmlns:xlink="http://www.w3.org/1999/xlink" width="18" height="17.735493" viewBox="0 0 18 17.735493">
<path fill-rule="nonzero" fill="rgb(14.901961%, 14.901961%, 14.901961%)" fill-opacity="1" stroke-width="0.0227397" stroke-linecap="round" stroke-linejoin="round" stroke="rgb(0%, 0%, 0%)" stroke-opacity="1" stroke-dasharray="0.576893 0.714866" stroke-miterlimit="4" d="M 0.0117188 0.0117188 L 17.988281 0.0117188 L 17.988281 17.722656 C 17.988281 17.722656 13.089844 17.734375 8.894531 17.734375 C 6.007812 17.734375 3.394531 16.878906 1.972656 15.476562 C 0.550781 14.078125 0 11.324219 0 8.867188 C 0 4.507812 0.0117188 0.0117188 0.0117188 0.0117188 Z M 0.0117188 0.0117188 "/>
<path fill-rule="nonzero" fill="rgb(100%, 100%, 100%)" fill-opacity="1" d="M 7.40625 1.902344 C 7.40625 2.304688 7.082031 2.628906 6.683594 2.628906 C 6.28125 2.628906 5.957031 2.304688 5.957031 1.902344 C 5.957031 1.503906 6.28125 1.179688 6.683594 1.179688 C 7.082031 1.179688 7.40625 1.503906 7.40625 1.902344 Z M 7.40625 1.902344 "/>
<path fill-rule="nonzero" fill="rgb(100%, 100%, 100%)" fill-opacity="1" d="M 9.746094 1.910156 C 9.746094 2.308594 9.421875 2.632812 9.023438 2.632812 C 8.617188 2.632812 8.292969 2.308594 8.292969 1.910156 C 8.292969 1.507812 8.617188 1.183594 9.023438 1.183594 C 9.421875 1.183594 9.746094 1.507812 9.746094 1.910156 Z M 9.746094 1.910156 "/>
<path fill-rule="nonzero" fill="rgb(100%, 100%, 100%)" fill-opacity="1" d="M 12.058594 1.921875 C 12.058594 2.320312 11.730469 2.644531 11.332031 2.644531 C 10.929688 2.644531 10.605469 2.320312 10.605469 1.921875 C 10.605469 1.519531 10.929688 1.195312 11.332031 1.195312 C 11.730469 1.195312 12.058594 1.519531 12.058594 1.921875 Z M 12.058594 1.921875 "/>
<path fill-rule="nonzero" fill="rgb(100%, 100%, 100%)" fill-opacity="1" d="M 5.101562 4.179688 C 5.101562 4.582031 4.777344 4.90625 4.375 4.90625 C 3.976562 4.90625 3.652344 4.582031 3.652344 4.179688 C 3.652344 3.78125 3.976562 3.457031 4.375 3.457031 C 4.777344 3.457031 5.101562 3.78125 5.101562 4.179688 Z M 5.101562 4.179688 "/>
<path fill-rule="nonzero" fill="rgb(100%, 100%, 100%)" fill-opacity="1" d="M 5.121094 6.574219 C 5.121094 6.972656 4.796875 7.296875 4.394531 7.296875 C 3.996094 7.296875 3.667969 6.972656 3.667969 6.574219 C 3.667969 6.175781 3.996094 5.851562 4.394531 5.851562 C 4.796875 5.851562 5.121094 6.175781 5.121094 6.574219 Z M 5.121094 6.574219 "/>
<path fill-rule="nonzero" fill="rgb(100%, 100%, 100%)" fill-opacity="1" d="M 7.433594 8.835938 C 7.433594 9.234375 7.109375 9.558594 6.710938 9.558594 C 6.308594 9.558594 5.980469 9.234375 5.980469 8.835938 C 5.980469 8.433594 6.308594 8.109375 6.710938 8.109375 C 7.109375 8.109375 7.433594 8.433594 7.433594 8.835938 Z M 7.433594 8.835938 "/>
<path fill-rule="nonzero" fill="rgb(100%, 100%, 100%)" fill-opacity="1" d="M 9.769531 8.839844 C 9.769531 9.238281 9.445312 9.566406 9.042969 9.566406 C 8.644531 9.566406 8.320312 9.238281 8.320312 8.839844 C 8.320312 8.445312 8.644531 8.117188 9.042969 8.117188 C 9.445312 8.117188 9.769531 8.445312 9.769531 8.839844 Z M 9.769531 8.839844 "/>
<path fill-rule="nonzero" fill="rgb(100%, 100%, 100%)" fill-opacity="1" d="M 12.082031 8.855469 C 12.082031 9.253906 11.757812 9.578125 11.359375 9.578125 C 10.957031 9.578125 10.632812 9.253906 10.632812 8.855469 C 10.632812 8.457031 10.957031 8.132812 11.359375 8.132812 C 11.757812 8.132812 12.082031 8.457031 12.082031 8.855469 Z M 12.082031 8.855469 "/>
<path fill-rule="nonzero" fill="rgb(100%, 100%, 100%)" fill-opacity="1" d="M 5.105469 11.132812 C 5.105469 11.535156 4.78125 11.859375 4.378906 11.859375 C 3.980469 11.859375 3.65625 11.535156 3.65625 11.132812 C 3.65625 10.734375 3.980469 10.410156 4.378906 10.410156 C 4.78125 10.410156 5.105469 10.734375 5.105469 11.132812 Z M 5.105469 11.132812 "/>
<path fill-rule="nonzero" fill="rgb(100%, 100%, 100%)" fill-opacity="1" d="M 5.09375 8.96875 C 5.09375 9.367188 4.769531 9.691406 4.367188 9.691406 C 3.96875 9.691406 3.644531 9.367188 3.644531 8.96875 C 3.644531 8.566406 3.96875 8.238281 4.367188 8.238281 C 4.769531 8.238281 5.09375 8.566406 5.09375 8.96875 Z M 5.09375 8.96875 "/>
<path fill-rule="nonzero" fill="rgb(100%, 100%, 100%)" fill-opacity="1" d="M 14.574219 13.195312 C 14.574219 13.59375 14.25 13.917969 13.847656 13.917969 C 13.449219 13.917969 13.125 13.59375 13.125 13.195312 C 13.125 12.792969 13.449219 12.46875 13.847656 12.46875 C 14.25 12.46875 14.574219 12.792969 14.574219 13.195312 Z M 14.574219 13.195312 "/>
<path fill-rule="nonzero" fill="rgb(100%, 100%, 100%)" fill-opacity="1" d="M 5.113281 13.5 C 5.113281 13.902344 4.785156 14.226562 4.382812 14.226562 C 3.984375 14.226562 3.660156 13.902344 3.660156 13.5 C 3.660156 13.101562 3.984375 12.777344 4.382812 12.777344 C 4.785156 12.777344 5.113281 13.101562 5.113281 13.5 Z M 5.113281 13.5 "/>
<path fill-rule="nonzero" fill="rgb(100%, 100%, 100%)" fill-opacity="1" d="M 14.574219 11.136719 C 14.574219 11.535156 14.25 11.859375 13.847656 11.859375 C 13.449219 11.859375 13.125 11.535156 13.125 11.136719 C 13.125 10.734375 13.449219 10.410156 13.847656 10.410156 C 14.25 10.410156 14.574219 10.734375 14.574219 11.136719 Z M 14.574219 11.136719 "/>
<path fill-rule="nonzero" fill="rgb(100%, 100%, 100%)" fill-opacity="1" d="M 7.414062 15.816406 C 7.414062 16.214844 7.089844 16.539062 6.691406 16.539062 C 6.289062 16.539062 5.964844 16.214844 5.964844 15.816406 C 5.964844 15.414062 6.289062 15.089844 6.691406 15.089844 C 7.089844 15.089844 7.414062 15.414062 7.414062 15.816406 Z M 7.414062 15.816406 "/>
<path fill-rule="nonzero" fill="rgb(100%, 100%, 100%)" fill-opacity="1" d="M 9.753906 15.820312 C 9.753906 16.21875 9.429688 16.542969 9.03125 16.542969 C 8.628906 16.542969 8.304688 16.21875 8.304688 15.820312 C 8.304688 15.421875 8.628906 15.097656 9.03125 15.097656 C 9.429688 15.097656 9.753906 15.421875 9.753906 15.820312 Z M 9.753906 15.820312 "/>
<path fill-rule="nonzero" fill="rgb(100%, 100%, 100%)" fill-opacity="1" d="M 12.066406 15.835938 C 12.066406 16.234375 11.742188 16.558594 11.34375 16.558594 C 10.941406 16.558594 10.613281 16.234375 10.613281 15.835938 C 10.613281 15.4375 10.941406 15.113281 11.34375 15.113281 C 11.742188 15.113281 12.066406 15.4375 12.066406 15.835938 Z M 12.066406 15.835938 "/>
</svg>
