<?xml version="1.0" encoding="UTF-8"?>
<svg xmlns="http://www.w3.org/2000/svg" xmlns:xlink="http://www.w3.org/1999/xlink" width="18" height="17.735492" viewBox="0 0 18 17.735492">
<path fill-rule="nonzero" fill="rgb(14.901961%, 14.901961%, 14.901961%)" fill-opacity="1" stroke-width="0.264999" stroke-linecap="round" stroke-linejoin="round" stroke="rgb(0%, 0%, 0%)" stroke-opacity="1" stroke-dasharray="0.576893 0.714866" stroke-miterlimit="4" d="M 0.717671 -0.0509273 L 210.208499 -0.0509273 L 210.208499 206.344426 L 0.717671 206.344426 Z M 0.717671 -0.0509273 " transform="matrix(0.0858107, 0, 0, 0.0858107, -0.0498651, 0.0160889)"/>
<path fill-rule="nonzero" fill="rgb(100%, 100%, 100%)" fill-opacity="1" d="M 7.269531 1.867188 C 7.269531 2.269531 6.945312 2.59375 6.546875 2.59375 C 6.144531 2.59375 5.820312 2.269531 5.820312 1.867188 C 5.820312 1.46875 6.144531 1.144531 6.546875 1.144531 C 6.945312 1.144531 7.269531 1.46875 7.269531 1.867188 Z M 7.269531 1.867188 "/>
<path fill-rule="nonzero" fill="rgb(100%, 100%, 100%)" fill-opacity="1" d="M 9.609375 1.875 C 9.609375 2.273438 9.285156 2.597656 8.886719 2.597656 C 8.480469 2.597656 8.15625 2.273438 8.15625 1.875 C 8.15625 1.472656 8.480469 1.148438 8.886719 1.148438 C 9.285156 1.148438 9.609375 1.472656 9.609375 1.875 Z M 9.609375 1.875 "/>
<path fill-rule="nonzero" fill="rgb(100%, 100%, 100%)" fill-opacity="1" d="M 11.921875 1.886719 C 11.921875 2.285156 11.59375 2.609375 11.195312 2.609375 C 10.792969 2.609375 10.46875 2.285156 10.46875 1.886719 C 10.46875 1.484375 10.792969 1.160156 11.195312 1.160156 C 11.59375 1.160156 11.921875 1.484375 11.921875 1.886719 Z M 11.921875 1.886719 "/>
<path fill-rule="nonzero" fill="rgb(100%, 100%, 100%)" fill-opacity="1" d="M 4.964844 4.144531 C 4.964844 4.546875 4.640625 4.871094 4.238281 4.871094 C 3.839844 4.871094 3.515625 4.546875 3.515625 4.144531 C 3.515625 3.746094 3.839844 3.421875 4.238281 3.421875 C 4.640625 3.421875 4.964844 3.746094 4.964844 4.144531 Z M 4.964844 4.144531 "/>
<path fill-rule="nonzero" fill="rgb(100%, 100%, 100%)" fill-opacity="1" d="M 14.203125 4.125 C 14.203125 4.523438 13.878906 4.847656 13.476562 4.847656 C 13.078125 4.847656 12.75 4.523438 12.75 4.125 C 12.75 3.722656 13.078125 3.398438 13.476562 3.398438 C 13.878906 3.398438 14.203125 3.722656 14.203125 4.125 Z M 14.203125 4.125 "/>
<path fill-rule="nonzero" fill="rgb(100%, 100%, 100%)" fill-opacity="1" d="M 4.984375 6.539062 C 4.984375 6.9375 4.660156 7.261719 4.257812 7.261719 C 3.859375 7.261719 3.535156 6.9375 3.535156 6.539062 C 3.535156 6.140625 3.859375 5.816406 4.257812 5.816406 C 4.660156 5.816406 4.984375 6.140625 4.984375 6.539062 Z M 4.984375 6.539062 "/>
<path fill-rule="nonzero" fill="rgb(100%, 100%, 100%)" fill-opacity="1" d="M 14.21875 6.515625 C 14.21875 6.917969 13.894531 7.242188 13.492188 7.242188 C 13.09375 7.242188 12.769531 6.917969 12.769531 6.515625 C 12.769531 6.117188 13.09375 5.792969 13.492188 5.792969 C 13.894531 5.792969 14.21875 6.117188 14.21875 6.515625 Z M 14.21875 6.515625 "/>
<path fill-rule="nonzero" fill="rgb(100%, 100%, 100%)" fill-opacity="1" d="M 11.945312 8.820312 C 11.945312 9.21875 11.621094 9.542969 11.222656 9.542969 C 10.820312 9.542969 10.496094 9.21875 10.496094 8.820312 C 10.496094 8.421875 10.820312 8.097656 11.222656 8.097656 C 11.621094 8.097656 11.945312 8.421875 11.945312 8.820312 Z M 11.945312 8.820312 "/>
<path fill-rule="nonzero" fill="rgb(100%, 100%, 100%)" fill-opacity="1" d="M 9.566406 11.042969 C 9.566406 11.441406 9.238281 11.765625 8.839844 11.765625 C 8.4375 11.765625 8.113281 11.441406 8.113281 11.042969 C 8.113281 10.640625 8.4375 10.316406 8.839844 10.316406 C 9.238281 10.316406 9.566406 10.640625 9.566406 11.042969 Z M 9.566406 11.042969 "/>
<path fill-rule="nonzero" fill="rgb(100%, 100%, 100%)" fill-opacity="1" d="M 9.617188 15.785156 C 9.617188 16.183594 9.292969 16.511719 8.894531 16.511719 C 8.492188 16.511719 8.167969 16.183594 8.167969 15.785156 C 8.167969 15.386719 8.492188 15.0625 8.894531 15.0625 C 9.292969 15.0625 9.617188 15.386719 9.617188 15.785156 Z M 9.617188 15.785156 "/>
</svg>
