<?xml version="1.0" encoding="UTF-8"?>
<svg xmlns="http://www.w3.org/2000/svg" xmlns:xlink="http://www.w3.org/1999/xlink" width="16.238625" height="16" viewBox="0 0 16.238625 16">
<path fill-rule="nonzero" fill="rgb(14.901961%, 14.901961%, 14.901961%)" fill-opacity="1" stroke-width="0.264999" stroke-linecap="round" stroke-linejoin="round" stroke="rgb(0%, 0%, 0%)" stroke-opacity="1" stroke-dasharray="0.576893 0.714866" stroke-miterlimit="4" d="M 0.732484 -0.0361144 L 210.189251 -0.0361144 L 210.189251 206.342633 L 0.732484 206.342633 Z M 0.732484 -0.0361144 " transform="matrix(0.0774138, 0, 0, 0.0774138, -0.0449856, 0.0145145)"/>
<path fill-rule="nonzero" fill="rgb(24.705882%, 24.705882%, 24.705882%)" fill-opacity="1" stroke-width="0.264999" stroke-linecap="round" stroke-linejoin="round" stroke="rgb(0%, 0%, 0%)" stroke-opacity="1" stroke-dasharray="0.576893 0.714866" stroke-miterlimit="4" d="M 32.572334 21.40911 C 32.572334 26.10183 28.787883 29.886281 24.095163 29.886281 C 19.452903 29.886281 15.668452 26.10183 15.668452 21.40911 C 15.668452 16.76685 19.452903 12.982398 24.095163 12.982398 C 28.787883 12.982398 32.572334 16.76685 32.572334 21.40911 Z M 32.572334 21.40911 " transform="matrix(0.0774138, 0, 0, 0.0774138, -0.0449856, 0.0145145)"/>
<path fill-rule="nonzero" fill="rgb(24.705882%, 24.705882%, 24.705882%)" fill-opacity="1" stroke-width="0.264999" stroke-linecap="round" stroke-linejoin="round" stroke="rgb(0%, 0%, 0%)" stroke-opacity="1" stroke-dasharray="0.576893 0.714866" stroke-miterlimit="4" d="M 59.013035 22.317378 C 59.013035 26.959639 55.228583 30.74409 50.535864 30.74409 C 45.893603 30.74409 42.109152 26.959639 42.109152 22.317378 C 42.109152 17.675118 45.893603 13.890667 50.535864 13.890667 C 55.228583 13.890667 59.013035 17.675118 59.013035 22.317378 Z M 59.013035 22.317378 " transform="matrix(0.0774138, 0, 0, 0.0774138, -0.0449856, 0.0145145)"/>
<path fill-rule="nonzero" fill="rgb(100%, 100%, 100%)" fill-opacity="1" stroke-width="0.264999" stroke-linecap="round" stroke-linejoin="round" stroke="rgb(0%, 0%, 0%)" stroke-opacity="1" stroke-dasharray="0.576893 0.714866" stroke-miterlimit="4" d="M 85.302357 21.560488 C 85.302357 26.253208 81.517905 30.037659 76.875645 30.037659 C 72.182925 30.037659 68.398474 26.253208 68.398474 21.560488 C 68.398474 16.918228 72.182925 13.133776 76.875645 13.133776 C 81.517905 13.133776 85.302357 16.918228 85.302357 21.560488 Z M 85.302357 21.560488 " transform="matrix(0.0774138, 0, 0, 0.0774138, -0.0449856, 0.0145145)"/>
<path fill-rule="nonzero" fill="rgb(100%, 100%, 100%)" fill-opacity="1" stroke-width="0.264999" stroke-linecap="round" stroke-linejoin="round" stroke="rgb(0%, 0%, 0%)" stroke-opacity="1" stroke-dasharray="0.576893 0.714866" stroke-miterlimit="4" d="M 112.550406 21.661407 C 112.550406 26.303667 108.765955 30.088118 104.123695 30.088118 C 99.430975 30.088118 95.646524 26.303667 95.646524 21.661407 C 95.646524 16.968687 99.430975 13.184236 104.123695 13.184236 C 108.765955 13.184236 112.550406 16.968687 112.550406 21.661407 Z M 112.550406 21.661407 " transform="matrix(0.0774138, 0, 0, 0.0774138, -0.0449856, 0.0145145)"/>
<path fill-rule="nonzero" fill="rgb(100%, 100%, 100%)" fill-opacity="1" stroke-width="0.264999" stroke-linecap="round" stroke-linejoin="round" stroke="rgb(0%, 0%, 0%)" stroke-opacity="1" stroke-dasharray="0.576893 0.714866" stroke-miterlimit="4" d="M 139.4957 21.812785 C 139.4957 26.455045 135.711249 30.239496 131.068988 30.239496 C 126.376269 30.239496 122.591817 26.455045 122.591817 21.812785 C 122.591817 17.120065 126.376269 13.335614 131.068988 13.335614 C 135.711249 13.335614 139.4957 17.120065 139.4957 21.812785 Z M 139.4957 21.812785 " transform="matrix(0.0774138, 0, 0, 0.0774138, -0.0449856, 0.0145145)"/>
<path fill-rule="nonzero" fill="rgb(24.705882%, 24.705882%, 24.705882%)" fill-opacity="1" stroke-width="0.264999" stroke-linecap="round" stroke-linejoin="round" stroke="rgb(0%, 0%, 0%)" stroke-opacity="1" stroke-dasharray="0.576893 0.714866" stroke-miterlimit="4" d="M 166.642831 22.065082 C 166.642831 26.757801 162.85838 30.542253 158.16566 30.542253 C 153.5234 30.542253 149.738948 26.757801 149.738948 22.065082 C 149.738948 17.422821 153.5234 13.63837 158.16566 13.63837 C 162.85838 13.63837 166.642831 17.422821 166.642831 22.065082 Z M 166.642831 22.065082 " transform="matrix(0.0774138, 0, 0, 0.0774138, -0.0449856, 0.0145145)"/>
<path fill-rule="nonzero" fill="rgb(24.705882%, 24.705882%, 24.705882%)" fill-opacity="1" stroke-width="0.264999" stroke-linecap="round" stroke-linejoin="round" stroke="rgb(0%, 0%, 0%)" stroke-opacity="1" stroke-dasharray="0.576893 0.714866" stroke-miterlimit="4" d="M 193.537665 21.711866 C 193.537665 26.354126 189.753214 30.138578 185.110954 30.138578 C 180.468693 30.138578 176.684242 26.354126 176.684242 21.711866 C 176.684242 17.019146 180.468693 13.285154 185.110954 13.285154 C 189.753214 13.285154 193.537665 17.019146 193.537665 21.711866 Z M 193.537665 21.711866 " transform="matrix(0.0774138, 0, 0, 0.0774138, -0.0449856, 0.0145145)"/>
<path fill-rule="nonzero" fill="rgb(24.705882%, 24.705882%, 24.705882%)" fill-opacity="1" stroke-width="0.264999" stroke-linecap="round" stroke-linejoin="round" stroke="rgb(0%, 0%, 0%)" stroke-opacity="1" stroke-dasharray="0.576893 0.714866" stroke-miterlimit="4" d="M 32.017282 47.244298 C 32.017282 51.886558 28.23283 55.67101 23.540111 55.67101 C 18.89785 55.67101 15.113399 51.886558 15.113399 47.244298 C 15.113399 42.551578 18.89785 38.767127 23.540111 38.767127 C 28.23283 38.767127 32.017282 42.551578 32.017282 47.244298 Z M 32.017282 47.244298 " transform="matrix(0.0774138, 0, 0, 0.0774138, -0.0449856, 0.0145145)"/>
<path fill-rule="nonzero" fill="rgb(100%, 100%, 100%)" fill-opacity="1" stroke-width="0.264999" stroke-linecap="round" stroke-linejoin="round" stroke="rgb(0%, 0%, 0%)" stroke-opacity="1" stroke-dasharray="0.576893 0.714866" stroke-miterlimit="4" d="M 58.457982 48.102107 C 58.457982 52.794826 54.67353 56.579278 49.980811 56.579278 C 45.33855 56.579278 41.554099 52.794826 41.554099 48.102107 C 41.554099 43.459846 45.33855 39.675395 49.980811 39.675395 C 54.67353 39.675395 58.457982 43.459846 58.457982 48.102107 Z M 58.457982 48.102107 " transform="matrix(0.0774138, 0, 0, 0.0774138, -0.0449856, 0.0145145)"/>
<path fill-rule="nonzero" fill="rgb(24.705882%, 24.705882%, 24.705882%)" fill-opacity="1" stroke-width="0.264999" stroke-linecap="round" stroke-linejoin="round" stroke="rgb(0%, 0%, 0%)" stroke-opacity="1" stroke-dasharray="0.576893 0.714866" stroke-miterlimit="4" d="M 84.747304 47.395676 C 84.747304 52.037936 80.962852 55.822388 76.320592 55.822388 C 71.627872 55.822388 67.89388 52.037936 67.89388 47.395676 C 67.89388 42.702956 71.627872 38.918505 76.320592 38.918505 C 80.962852 38.918505 84.747304 42.702956 84.747304 47.395676 Z M 84.747304 47.395676 " transform="matrix(0.0774138, 0, 0, 0.0774138, -0.0449856, 0.0145145)"/>
<path fill-rule="nonzero" fill="rgb(24.705882%, 24.705882%, 24.705882%)" fill-opacity="1" stroke-width="0.264999" stroke-linecap="round" stroke-linejoin="round" stroke="rgb(0%, 0%, 0%)" stroke-opacity="1" stroke-dasharray="0.576893 0.714866" stroke-miterlimit="4" d="M 111.995353 47.446135 C 111.995353 52.088396 108.210902 55.872847 103.568642 55.872847 C 98.875922 55.872847 95.091471 52.088396 95.091471 47.446135 C 95.091471 42.803875 98.875922 39.019424 103.568642 39.019424 C 108.210902 39.019424 111.995353 42.803875 111.995353 47.446135 Z M 111.995353 47.446135 " transform="matrix(0.0774138, 0, 0, 0.0774138, -0.0449856, 0.0145145)"/>
<path fill-rule="nonzero" fill="rgb(24.705882%, 24.705882%, 24.705882%)" fill-opacity="1" stroke-width="0.264999" stroke-linecap="round" stroke-linejoin="round" stroke="rgb(0%, 0%, 0%)" stroke-opacity="1" stroke-dasharray="0.576893 0.714866" stroke-miterlimit="4" d="M 138.940647 47.597513 C 138.940647 52.239774 135.156196 56.024225 130.513935 56.024225 C 125.821216 56.024225 122.087224 52.239774 122.087224 47.597513 C 122.087224 42.955253 125.821216 39.170802 130.513935 39.170802 C 135.156196 39.170802 138.940647 42.955253 138.940647 47.597513 Z M 138.940647 47.597513 " transform="matrix(0.0774138, 0, 0, 0.0774138, -0.0449856, 0.0145145)"/>
<path fill-rule="nonzero" fill="rgb(24.705882%, 24.705882%, 24.705882%)" fill-opacity="1" stroke-width="0.264999" stroke-linecap="round" stroke-linejoin="round" stroke="rgb(0%, 0%, 0%)" stroke-opacity="1" stroke-dasharray="0.576893 0.714866" stroke-miterlimit="4" d="M 166.087778 47.900269 C 166.087778 52.54253 162.303327 56.326981 157.610607 56.326981 C 152.968347 56.326981 149.183895 52.54253 149.183895 47.900269 C 149.183895 43.20755 152.968347 39.423098 157.610607 39.423098 C 162.303327 39.423098 166.087778 43.20755 166.087778 47.900269 Z M 166.087778 47.900269 " transform="matrix(0.0774138, 0, 0, 0.0774138, -0.0449856, 0.0145145)"/>
<path fill-rule="nonzero" fill="rgb(24.705882%, 24.705882%, 24.705882%)" fill-opacity="1" stroke-width="0.264999" stroke-linecap="round" stroke-linejoin="round" stroke="rgb(0%, 0%, 0%)" stroke-opacity="1" stroke-dasharray="0.576893 0.714866" stroke-miterlimit="4" d="M 192.982612 47.496595 C 192.982612 52.189314 189.24862 55.973766 184.555901 55.973766 C 179.91364 55.973766 176.129189 52.189314 176.129189 47.496595 C 176.129189 42.854334 179.91364 39.069883 184.555901 39.069883 C 189.24862 39.069883 192.982612 42.854334 192.982612 47.496595 Z M 192.982612 47.496595 " transform="matrix(0.0774138, 0, 0, 0.0774138, -0.0449856, 0.0145145)"/>
<path fill-rule="nonzero" fill="rgb(24.705882%, 24.705882%, 24.705882%)" fill-opacity="1" stroke-width="0.264999" stroke-linecap="round" stroke-linejoin="round" stroke="rgb(0%, 0%, 0%)" stroke-opacity="1" stroke-dasharray="0.576893 0.714866" stroke-miterlimit="4" d="M 32.219119 75.09786 C 32.219119 79.790579 28.434668 83.575031 23.741948 83.575031 C 19.099688 83.575031 15.315236 79.790579 15.315236 75.09786 C 15.315236 70.455599 19.099688 66.671148 23.741948 66.671148 C 28.434668 66.671148 32.219119 70.455599 32.219119 75.09786 Z M 32.219119 75.09786 " transform="matrix(0.0774138, 0, 0, 0.0774138, -0.0449856, 0.0145145)"/>
<path fill-rule="nonzero" fill="rgb(100%, 100%, 100%)" fill-opacity="1" stroke-width="0.264999" stroke-linecap="round" stroke-linejoin="round" stroke="rgb(0%, 0%, 0%)" stroke-opacity="1" stroke-dasharray="0.576893 0.714866" stroke-miterlimit="4" d="M 58.659819 76.006128 C 58.659819 80.648388 54.875368 84.43284 50.182648 84.43284 C 45.540388 84.43284 41.755936 80.648388 41.755936 76.006128 C 41.755936 71.363868 45.540388 67.579416 50.182648 67.579416 C 54.875368 67.579416 58.659819 71.363868 58.659819 76.006128 Z M 58.659819 76.006128 " transform="matrix(0.0774138, 0, 0, 0.0774138, -0.0449856, 0.0145145)"/>
<path fill-rule="nonzero" fill="rgb(24.705882%, 24.705882%, 24.705882%)" fill-opacity="1" stroke-width="0.264999" stroke-linecap="round" stroke-linejoin="round" stroke="rgb(0%, 0%, 0%)" stroke-opacity="1" stroke-dasharray="0.576893 0.714866" stroke-miterlimit="4" d="M 84.949141 75.249238 C 84.949141 79.941957 81.16469 83.726409 76.522429 83.726409 C 71.82971 83.726409 68.095718 79.941957 68.095718 75.249238 C 68.095718 70.606978 71.82971 66.822526 76.522429 66.822526 C 81.16469 66.822526 84.949141 70.606978 84.949141 75.249238 Z M 84.949141 75.249238 " transform="matrix(0.0774138, 0, 0, 0.0774138, -0.0449856, 0.0145145)"/>
<path fill-rule="nonzero" fill="rgb(24.705882%, 24.705882%, 24.705882%)" fill-opacity="1" stroke-width="0.264999" stroke-linecap="round" stroke-linejoin="round" stroke="rgb(0%, 0%, 0%)" stroke-opacity="1" stroke-dasharray="0.576893 0.714866" stroke-miterlimit="4" d="M 112.197191 75.350157 C 112.197191 79.992417 108.41274 83.776868 103.770479 83.776868 C 99.07776 83.776868 95.293308 79.992417 95.293308 75.350157 C 95.293308 70.657437 99.07776 66.872986 103.770479 66.872986 C 108.41274 66.872986 112.197191 70.657437 112.197191 75.350157 Z M 112.197191 75.350157 " transform="matrix(0.0774138, 0, 0, 0.0774138, -0.0449856, 0.0145145)"/>
<path fill-rule="nonzero" fill="rgb(24.705882%, 24.705882%, 24.705882%)" fill-opacity="1" stroke-width="0.264999" stroke-linecap="round" stroke-linejoin="round" stroke="rgb(0%, 0%, 0%)" stroke-opacity="1" stroke-dasharray="0.576893 0.714866" stroke-miterlimit="4" d="M 139.142484 75.501535 C 139.142484 80.143795 135.358033 83.928246 130.715773 83.928246 C 126.023053 83.928246 122.289061 80.143795 122.289061 75.501535 C 122.289061 70.808815 126.023053 67.024364 130.715773 67.024364 C 135.358033 67.024364 139.142484 70.808815 139.142484 75.501535 Z M 139.142484 75.501535 " transform="matrix(0.0774138, 0, 0, 0.0774138, -0.0449856, 0.0145145)"/>
<path fill-rule="nonzero" fill="rgb(24.705882%, 24.705882%, 24.705882%)" fill-opacity="1" stroke-width="0.264999" stroke-linecap="round" stroke-linejoin="round" stroke="rgb(0%, 0%, 0%)" stroke-opacity="1" stroke-dasharray="0.576893 0.714866" stroke-miterlimit="4" d="M 166.289615 75.753831 C 166.289615 80.446551 162.505164 84.231002 157.812444 84.231002 C 153.170184 84.231002 149.385733 80.446551 149.385733 75.753831 C 149.385733 71.111571 153.170184 67.32712 157.812444 67.32712 C 162.505164 67.32712 166.289615 71.111571 166.289615 75.753831 Z M 166.289615 75.753831 " transform="matrix(0.0774138, 0, 0, 0.0774138, -0.0449856, 0.0145145)"/>
<path fill-rule="nonzero" fill="rgb(24.705882%, 24.705882%, 24.705882%)" fill-opacity="1" stroke-width="0.264999" stroke-linecap="round" stroke-linejoin="round" stroke="rgb(0%, 0%, 0%)" stroke-opacity="1" stroke-dasharray="0.576893 0.714866" stroke-miterlimit="4" d="M 193.18445 75.400616 C 193.18445 80.042876 189.450458 83.827328 184.757738 83.827328 C 180.115478 83.827328 176.331026 80.042876 176.331026 75.400616 C 176.331026 70.758356 180.115478 66.973904 184.757738 66.973904 C 189.450458 66.973904 193.18445 70.758356 193.18445 75.400616 Z M 193.18445 75.400616 " transform="matrix(0.0774138, 0, 0, 0.0774138, -0.0449856, 0.0145145)"/>
<path fill-rule="nonzero" fill="rgb(24.705882%, 24.705882%, 24.705882%)" fill-opacity="1" stroke-width="0.264999" stroke-linecap="round" stroke-linejoin="round" stroke="rgb(0%, 0%, 0%)" stroke-opacity="1" stroke-dasharray="0.576893 0.714866" stroke-miterlimit="4" d="M 32.824631 102.194531 C 32.824631 106.887251 29.04018 110.671702 24.39792 110.671702 C 19.755659 110.671702 15.971208 106.887251 15.971208 102.194531 C 15.971208 97.552271 19.755659 93.76782 24.39792 93.76782 C 29.04018 93.76782 32.824631 97.552271 32.824631 102.194531 Z M 32.824631 102.194531 " transform="matrix(0.0774138, 0, 0, 0.0774138, -0.0449856, 0.0145145)"/>
<path fill-rule="nonzero" fill="rgb(24.705882%, 24.705882%, 24.705882%)" fill-opacity="1" stroke-width="0.264999" stroke-linecap="round" stroke-linejoin="round" stroke="rgb(0%, 0%, 0%)" stroke-opacity="1" stroke-dasharray="0.576893 0.714866" stroke-miterlimit="4" d="M 59.265331 103.1028 C 59.265331 107.795519 55.531339 111.579971 50.83862 111.579971 C 46.196359 111.579971 42.411908 107.795519 42.411908 103.1028 C 42.411908 98.460539 46.196359 94.676088 50.83862 94.676088 C 55.531339 94.676088 59.265331 98.460539 59.265331 103.1028 Z M 59.265331 103.1028 " transform="matrix(0.0774138, 0, 0, 0.0774138, -0.0449856, 0.0145145)"/>
<path fill-rule="nonzero" fill="rgb(100%, 100%, 100%)" fill-opacity="1" stroke-width="0.264999" stroke-linecap="round" stroke-linejoin="round" stroke="rgb(0%, 0%, 0%)" stroke-opacity="1" stroke-dasharray="0.576893 0.714866" stroke-miterlimit="4" d="M 85.605113 102.396369 C 85.605113 107.038629 81.820661 110.823081 77.178401 110.823081 C 72.485681 110.823081 68.70123 107.038629 68.70123 102.396369 C 68.70123 97.703649 72.485681 93.919198 77.178401 93.919198 C 81.820661 93.919198 85.605113 97.703649 85.605113 102.396369 Z M 85.605113 102.396369 " transform="matrix(0.0774138, 0, 0, 0.0774138, -0.0449856, 0.0145145)"/>
<path fill-rule="nonzero" fill="rgb(100%, 100%, 100%)" fill-opacity="1" stroke-width="0.264999" stroke-linecap="round" stroke-linejoin="round" stroke="rgb(0%, 0%, 0%)" stroke-opacity="1" stroke-dasharray="0.576893 0.714866" stroke-miterlimit="4" d="M 112.853162 102.446828 C 112.853162 107.089089 109.068711 110.87354 104.375991 110.87354 C 99.733731 110.87354 95.94928 107.089089 95.94928 102.446828 C 95.94928 97.804568 99.733731 94.020117 104.375991 94.020117 C 109.068711 94.020117 112.853162 97.804568 112.853162 102.446828 Z M 112.853162 102.446828 " transform="matrix(0.0774138, 0, 0, 0.0774138, -0.0449856, 0.0145145)"/>
<path fill-rule="nonzero" fill="rgb(100%, 100%, 100%)" fill-opacity="1" stroke-width="0.264999" stroke-linecap="round" stroke-linejoin="round" stroke="rgb(0%, 0%, 0%)" stroke-opacity="1" stroke-dasharray="0.576893 0.714866" stroke-miterlimit="4" d="M 139.798456 102.598206 C 139.798456 107.240467 136.014005 111.024918 131.371744 111.024918 C 126.679025 111.024918 122.894573 107.240467 122.894573 102.598206 C 122.894573 97.955946 126.679025 94.171495 131.371744 94.171495 C 136.014005 94.171495 139.798456 97.955946 139.798456 102.598206 Z M 139.798456 102.598206 " transform="matrix(0.0774138, 0, 0, 0.0774138, -0.0449856, 0.0145145)"/>
<path fill-rule="nonzero" fill="rgb(24.705882%, 24.705882%, 24.705882%)" fill-opacity="1" stroke-width="0.264999" stroke-linecap="round" stroke-linejoin="round" stroke="rgb(0%, 0%, 0%)" stroke-opacity="1" stroke-dasharray="0.576893 0.714866" stroke-miterlimit="4" d="M 166.895128 102.900962 C 166.895128 107.543223 163.110676 111.327674 158.468416 111.327674 C 153.826156 111.327674 150.041704 107.543223 150.041704 102.900962 C 150.041704 98.208243 153.826156 94.423791 158.468416 94.423791 C 163.110676 94.423791 166.895128 98.208243 166.895128 102.900962 Z M 166.895128 102.900962 " transform="matrix(0.0774138, 0, 0, 0.0774138, -0.0449856, 0.0145145)"/>
<path fill-rule="nonzero" fill="rgb(24.705882%, 24.705882%, 24.705882%)" fill-opacity="1" stroke-width="0.264999" stroke-linecap="round" stroke-linejoin="round" stroke="rgb(0%, 0%, 0%)" stroke-opacity="1" stroke-dasharray="0.576893 0.714866" stroke-miterlimit="4" d="M 193.840421 102.497288 C 193.840421 107.190007 190.05597 110.974459 185.41371 110.974459 C 180.72099 110.974459 176.936539 107.190007 176.936539 102.497288 C 176.936539 97.855027 180.72099 94.070576 185.41371 94.070576 C 190.05597 94.070576 193.840421 97.855027 193.840421 102.497288 Z M 193.840421 102.497288 " transform="matrix(0.0774138, 0, 0, 0.0774138, -0.0449856, 0.0145145)"/>
<path fill-rule="nonzero" fill="rgb(24.705882%, 24.705882%, 24.705882%)" fill-opacity="1" stroke-width="0.264999" stroke-linecap="round" stroke-linejoin="round" stroke="rgb(0%, 0%, 0%)" stroke-opacity="1" stroke-dasharray="0.576893 0.714866" stroke-miterlimit="4" d="M 32.067741 128.231557 C 32.067741 132.924276 28.28329 136.708728 23.59057 136.708728 C 18.94831 136.708728 15.163858 132.924276 15.163858 128.231557 C 15.163858 123.589296 18.94831 119.804845 23.59057 119.804845 C 28.28329 119.804845 32.067741 123.589296 32.067741 128.231557 Z M 32.067741 128.231557 " transform="matrix(0.0774138, 0, 0, 0.0774138, -0.0449856, 0.0145145)"/>
<path fill-rule="nonzero" fill="rgb(100%, 100%, 100%)" fill-opacity="1" stroke-width="0.264999" stroke-linecap="round" stroke-linejoin="round" stroke="rgb(0%, 0%, 0%)" stroke-opacity="1" stroke-dasharray="0.576893 0.714866" stroke-miterlimit="4" d="M 58.508441 129.139825 C 58.508441 133.832545 54.72399 137.616996 50.03127 137.616996 C 45.38901 137.616996 41.604558 133.832545 41.604558 129.139825 C 41.604558 124.497565 45.38901 120.713113 50.03127 120.713113 C 54.72399 120.713113 58.508441 124.497565 58.508441 129.139825 Z M 58.508441 129.139825 " transform="matrix(0.0774138, 0, 0, 0.0774138, -0.0449856, 0.0145145)"/>
<path fill-rule="nonzero" fill="rgb(24.705882%, 24.705882%, 24.705882%)" fill-opacity="1" stroke-width="0.264999" stroke-linecap="round" stroke-linejoin="round" stroke="rgb(0%, 0%, 0%)" stroke-opacity="1" stroke-dasharray="0.576893 0.714866" stroke-miterlimit="4" d="M 84.797763 128.433394 C 84.797763 133.075654 81.013312 136.860106 76.371051 136.860106 C 71.678332 136.860106 67.89388 133.075654 67.89388 128.433394 C 67.89388 123.740674 71.678332 119.956223 76.371051 119.956223 C 81.013312 119.956223 84.797763 123.740674 84.797763 128.433394 Z M 84.797763 128.433394 " transform="matrix(0.0774138, 0, 0, 0.0774138, -0.0449856, 0.0145145)"/>
<path fill-rule="nonzero" fill="rgb(24.705882%, 24.705882%, 24.705882%)" fill-opacity="1" stroke-width="0.264999" stroke-linecap="round" stroke-linejoin="round" stroke="rgb(0%, 0%, 0%)" stroke-opacity="1" stroke-dasharray="0.576893 0.714866" stroke-miterlimit="4" d="M 112.045813 128.483853 C 112.045813 133.126114 108.261361 136.910565 103.619101 136.910565 C 98.926381 136.910565 95.14193 133.126114 95.14193 128.483853 C 95.14193 123.791134 98.926381 120.057142 103.619101 120.057142 C 108.261361 120.057142 112.045813 123.791134 112.045813 128.483853 Z M 112.045813 128.483853 " transform="matrix(0.0774138, 0, 0, 0.0774138, -0.0449856, 0.0145145)"/>
<path fill-rule="nonzero" fill="rgb(24.705882%, 24.705882%, 24.705882%)" fill-opacity="1" stroke-width="0.264999" stroke-linecap="round" stroke-linejoin="round" stroke="rgb(0%, 0%, 0%)" stroke-opacity="1" stroke-dasharray="0.576893 0.714866" stroke-miterlimit="4" d="M 138.991106 128.635232 C 138.991106 133.277492 135.206655 137.061943 130.564395 137.061943 C 125.871675 137.061943 122.087224 133.277492 122.087224 128.635232 C 122.087224 123.992971 125.871675 120.20852 130.564395 120.20852 C 135.206655 120.20852 138.991106 123.992971 138.991106 128.635232 Z M 138.991106 128.635232 " transform="matrix(0.0774138, 0, 0, 0.0774138, -0.0449856, 0.0145145)"/>
<path fill-rule="nonzero" fill="rgb(100%, 100%, 100%)" fill-opacity="1" stroke-width="0.264999" stroke-linecap="round" stroke-linejoin="round" stroke="rgb(0%, 0%, 0%)" stroke-opacity="1" stroke-dasharray="0.576893 0.714866" stroke-miterlimit="4" d="M 166.138237 128.937988 C 166.138237 133.580248 162.353786 137.364699 157.661066 137.364699 C 153.018806 137.364699 149.234355 133.580248 149.234355 128.937988 C 149.234355 124.245268 153.018806 120.460817 157.661066 120.460817 C 162.353786 120.460817 166.138237 124.245268 166.138237 128.937988 Z M 166.138237 128.937988 " transform="matrix(0.0774138, 0, 0, 0.0774138, -0.0449856, 0.0145145)"/>
<path fill-rule="nonzero" fill="rgb(24.705882%, 24.705882%, 24.705882%)" fill-opacity="1" stroke-width="0.264999" stroke-linecap="round" stroke-linejoin="round" stroke="rgb(0%, 0%, 0%)" stroke-opacity="1" stroke-dasharray="0.576893 0.714866" stroke-miterlimit="4" d="M 193.033072 128.534313 C 193.033072 133.227033 189.24862 136.961025 184.60636 136.961025 C 179.9641 136.961025 176.179648 133.227033 176.179648 128.534313 C 176.179648 123.892053 179.9641 120.107601 184.60636 120.107601 C 189.24862 120.107601 193.033072 123.892053 193.033072 128.534313 Z M 193.033072 128.534313 " transform="matrix(0.0774138, 0, 0, 0.0774138, -0.0449856, 0.0145145)"/>
<path fill-rule="nonzero" fill="rgb(24.705882%, 24.705882%, 24.705882%)" fill-opacity="1" stroke-width="0.264999" stroke-linecap="round" stroke-linejoin="round" stroke="rgb(0%, 0%, 0%)" stroke-opacity="1" stroke-dasharray="0.576893 0.714866" stroke-miterlimit="4" d="M 32.1182 155.832822 C 32.1182 160.525542 28.333749 164.309993 23.641029 164.309993 C 18.998769 164.309993 15.214318 160.525542 15.214318 155.832822 C 15.214318 151.190562 18.998769 147.40611 23.641029 147.40611 C 28.333749 147.40611 32.1182 151.190562 32.1182 155.832822 Z M 32.1182 155.832822 " transform="matrix(0.0774138, 0, 0, 0.0774138, -0.0449856, 0.0145145)"/>
<path fill-rule="nonzero" fill="rgb(100%, 100%, 100%)" fill-opacity="1" stroke-width="0.264999" stroke-linecap="round" stroke-linejoin="round" stroke="rgb(0%, 0%, 0%)" stroke-opacity="1" stroke-dasharray="0.576893 0.714866" stroke-miterlimit="4" d="M 58.5589 156.74109 C 58.5589 161.43381 54.774449 165.218261 50.081729 165.218261 C 45.439469 165.218261 41.655018 161.43381 41.655018 156.74109 C 41.655018 152.09883 45.439469 148.314379 50.081729 148.314379 C 54.774449 148.314379 58.5589 152.09883 58.5589 156.74109 Z M 58.5589 156.74109 " transform="matrix(0.0774138, 0, 0, 0.0774138, -0.0449856, 0.0145145)"/>
<path fill-rule="nonzero" fill="rgb(24.705882%, 24.705882%, 24.705882%)" fill-opacity="1" stroke-width="0.264999" stroke-linecap="round" stroke-linejoin="round" stroke="rgb(0%, 0%, 0%)" stroke-opacity="1" stroke-dasharray="0.576893 0.714866" stroke-miterlimit="4" d="M 84.848222 156.034659 C 84.848222 160.67692 81.063771 164.461371 76.421511 164.461371 C 71.728791 164.461371 67.994799 160.67692 67.994799 156.034659 C 67.994799 151.34194 71.728791 147.557488 76.421511 147.557488 C 81.063771 147.557488 84.848222 151.34194 84.848222 156.034659 Z M 84.848222 156.034659 " transform="matrix(0.0774138, 0, 0, 0.0774138, -0.0449856, 0.0145145)"/>
<path fill-rule="nonzero" fill="rgb(24.705882%, 24.705882%, 24.705882%)" fill-opacity="1" stroke-width="0.264999" stroke-linecap="round" stroke-linejoin="round" stroke="rgb(0%, 0%, 0%)" stroke-opacity="1" stroke-dasharray="0.576893 0.714866" stroke-miterlimit="4" d="M 112.096272 156.085119 C 112.096272 160.727379 108.311821 164.51183 103.66956 164.51183 C 98.976841 164.51183 95.192389 160.727379 95.192389 156.085119 C 95.192389 151.392399 98.976841 147.607948 103.66956 147.607948 C 108.311821 147.607948 112.096272 151.392399 112.096272 156.085119 Z M 112.096272 156.085119 " transform="matrix(0.0774138, 0, 0, 0.0774138, -0.0449856, 0.0145145)"/>
<path fill-rule="nonzero" fill="rgb(24.705882%, 24.705882%, 24.705882%)" fill-opacity="1" stroke-width="0.264999" stroke-linecap="round" stroke-linejoin="round" stroke="rgb(0%, 0%, 0%)" stroke-opacity="1" stroke-dasharray="0.576893 0.714866" stroke-miterlimit="4" d="M 139.041566 156.236497 C 139.041566 160.878757 135.257114 164.663208 130.614854 164.663208 C 125.922134 164.663208 122.188142 160.878757 122.188142 156.236497 C 122.188142 151.543777 125.922134 147.809785 130.614854 147.809785 C 135.257114 147.809785 139.041566 151.543777 139.041566 156.236497 Z M 139.041566 156.236497 " transform="matrix(0.0774138, 0, 0, 0.0774138, -0.0449856, 0.0145145)"/>
<path fill-rule="nonzero" fill="rgb(100%, 100%, 100%)" fill-opacity="1" stroke-width="0.264999" stroke-linecap="round" stroke-linejoin="round" stroke="rgb(0%, 0%, 0%)" stroke-opacity="1" stroke-dasharray="0.576893 0.714866" stroke-miterlimit="4" d="M 166.188697 156.539253 C 166.188697 161.181513 162.404245 164.965964 157.711526 164.965964 C 153.069265 164.965964 149.284814 161.181513 149.284814 156.539253 C 149.284814 151.846533 153.069265 148.062082 157.711526 148.062082 C 162.404245 148.062082 166.188697 151.846533 166.188697 156.539253 Z M 166.188697 156.539253 " transform="matrix(0.0774138, 0, 0, 0.0774138, -0.0449856, 0.0145145)"/>
<path fill-rule="nonzero" fill="rgb(24.705882%, 24.705882%, 24.705882%)" fill-opacity="1" stroke-width="0.264999" stroke-linecap="round" stroke-linejoin="round" stroke="rgb(0%, 0%, 0%)" stroke-opacity="1" stroke-dasharray="0.576893 0.714866" stroke-miterlimit="4" d="M 193.13399 156.135578 C 193.13399 160.777838 189.349539 164.56229 184.656819 164.56229 C 180.014559 164.56229 176.230108 160.777838 176.230108 156.135578 C 176.230108 151.493318 180.014559 147.708866 184.656819 147.708866 C 189.349539 147.708866 193.13399 151.493318 193.13399 156.135578 Z M 193.13399 156.135578 " transform="matrix(0.0774138, 0, 0, 0.0774138, -0.0449856, 0.0145145)"/>
<path fill-rule="nonzero" fill="rgb(24.705882%, 24.705882%, 24.705882%)" fill-opacity="1" stroke-width="0.264999" stroke-linecap="round" stroke-linejoin="round" stroke="rgb(0%, 0%, 0%)" stroke-opacity="1" stroke-dasharray="0.576893 0.714866" stroke-miterlimit="4" d="M 32.673253 183.585465 C 32.673253 188.227725 28.888802 192.012177 24.196082 192.012177 C 19.553822 192.012177 15.76937 188.227725 15.76937 183.585465 C 15.76937 178.892745 19.553822 175.108294 24.196082 175.108294 C 28.888802 175.108294 32.673253 178.892745 32.673253 183.585465 Z M 32.673253 183.585465 " transform="matrix(0.0774138, 0, 0, 0.0774138, -0.0449856, 0.0145145)"/>
<path fill-rule="nonzero" fill="rgb(24.705882%, 24.705882%, 24.705882%)" fill-opacity="1" stroke-width="0.264999" stroke-linecap="round" stroke-linejoin="round" stroke="rgb(0%, 0%, 0%)" stroke-opacity="1" stroke-dasharray="0.576893 0.714866" stroke-miterlimit="4" d="M 59.113953 184.443274 C 59.113953 189.135994 55.329502 192.920445 50.636782 192.920445 C 45.994522 192.920445 42.210071 189.135994 42.210071 184.443274 C 42.210071 179.801014 45.994522 176.016562 50.636782 176.016562 C 55.329502 176.016562 59.113953 179.801014 59.113953 184.443274 Z M 59.113953 184.443274 " transform="matrix(0.0774138, 0, 0, 0.0774138, -0.0449856, 0.0145145)"/>
<path fill-rule="nonzero" fill="rgb(100%, 100%, 100%)" fill-opacity="1" stroke-width="0.264999" stroke-linecap="round" stroke-linejoin="round" stroke="rgb(0%, 0%, 0%)" stroke-opacity="1" stroke-dasharray="0.576893 0.714866" stroke-miterlimit="4" d="M 85.403275 183.736843 C 85.403275 188.379104 81.618824 192.163555 76.976564 192.163555 C 72.283844 192.163555 68.499393 188.379104 68.499393 183.736843 C 68.499393 179.044124 72.283844 175.259672 76.976564 175.259672 C 81.618824 175.259672 85.403275 179.044124 85.403275 183.736843 Z M 85.403275 183.736843 " transform="matrix(0.0774138, 0, 0, 0.0774138, -0.0449856, 0.0145145)"/>
<path fill-rule="nonzero" fill="rgb(100%, 100%, 100%)" fill-opacity="1" stroke-width="0.264999" stroke-linecap="round" stroke-linejoin="round" stroke="rgb(0%, 0%, 0%)" stroke-opacity="1" stroke-dasharray="0.576893 0.714866" stroke-miterlimit="4" d="M 112.651325 183.787303 C 112.651325 188.429563 108.866874 192.214014 104.224613 192.214014 C 99.531894 192.214014 95.747442 188.429563 95.747442 183.787303 C 95.747442 179.145042 99.531894 175.360591 104.224613 175.360591 C 108.866874 175.360591 112.651325 179.145042 112.651325 183.787303 Z M 112.651325 183.787303 " transform="matrix(0.0774138, 0, 0, 0.0774138, -0.0449856, 0.0145145)"/>
<path fill-rule="nonzero" fill="rgb(100%, 100%, 100%)" fill-opacity="1" stroke-width="0.264999" stroke-linecap="round" stroke-linejoin="round" stroke="rgb(0%, 0%, 0%)" stroke-opacity="1" stroke-dasharray="0.576893 0.714866" stroke-miterlimit="4" d="M 139.596619 183.938681 C 139.596619 188.580941 135.812167 192.365392 131.169907 192.365392 C 126.477187 192.365392 122.692736 188.580941 122.692736 183.938681 C 122.692736 179.29642 126.477187 175.511969 131.169907 175.511969 C 135.812167 175.511969 139.596619 179.29642 139.596619 183.938681 Z M 139.596619 183.938681 " transform="matrix(0.0774138, 0, 0, 0.0774138, -0.0449856, 0.0145145)"/>
<path fill-rule="nonzero" fill="rgb(24.705882%, 24.705882%, 24.705882%)" fill-opacity="1" stroke-width="0.264999" stroke-linecap="round" stroke-linejoin="round" stroke="rgb(0%, 0%, 0%)" stroke-opacity="1" stroke-dasharray="0.576893 0.714866" stroke-miterlimit="4" d="M 166.74375 184.241437 C 166.74375 188.883697 162.959298 192.668148 158.266579 192.668148 C 153.624318 192.668148 149.839867 188.883697 149.839867 184.241437 C 149.839867 179.548717 153.624318 175.764266 158.266579 175.764266 C 162.959298 175.764266 166.74375 179.548717 166.74375 184.241437 Z M 166.74375 184.241437 " transform="matrix(0.0774138, 0, 0, 0.0774138, -0.0449856, 0.0145145)"/>
<path fill-rule="nonzero" fill="rgb(24.705882%, 24.705882%, 24.705882%)" fill-opacity="1" stroke-width="0.264999" stroke-linecap="round" stroke-linejoin="round" stroke="rgb(0%, 0%, 0%)" stroke-opacity="1" stroke-dasharray="0.576893 0.714866" stroke-miterlimit="4" d="M 193.638584 183.837762 C 193.638584 188.530482 189.854133 192.314933 185.211872 192.314933 C 180.569612 192.314933 176.785161 188.530482 176.785161 183.837762 C 176.785161 179.195502 180.569612 175.41105 185.211872 175.41105 C 189.854133 175.41105 193.638584 179.195502 193.638584 183.837762 Z M 193.638584 183.837762 " transform="matrix(0.0774138, 0, 0, 0.0774138, -0.0449856, 0.0145145)"/>
</svg>
