<?xml version="1.0" encoding="UTF-8"?>
<svg xmlns="http://www.w3.org/2000/svg" xmlns:xlink="http://www.w3.org/1999/xlink" width="18" height="17.735493" viewBox="0 0 18 17.735493">
<path fill-rule="nonzero" fill="rgb(14.901961%, 14.901961%, 14.901961%)" fill-opacity="1" stroke-width="0.0227397" stroke-linecap="round" stroke-linejoin="round" stroke="rgb(0%, 0%, 0%)" stroke-opacity="1" stroke-dasharray="0.576893 0.714866" stroke-miterlimit="4" d="M 0.0117188 0.0117188 L 17.988281 0.0117188 L 17.988281 17.722656 C 17.988281 17.722656 13.089844 17.734375 8.894531 17.734375 C 6.007812 17.734375 3.394531 16.878906 1.972656 15.476562 C 0.550781 14.078125 0 11.324219 0 8.867188 C 0 4.507812 0.0117188 0.0117188 0.0117188 0.0117188 Z M 0.0117188 0.0117188 "/>
<path fill-rule="nonzero" fill="rgb(100%, 100%, 100%)" fill-opacity="1" d="M 4.5 2.578125 C 4.5 2.941406 4.207031 3.234375 3.84375 3.234375 C 3.484375 3.234375 3.191406 2.941406 3.191406 2.578125 C 3.191406 2.21875 3.484375 1.925781 3.84375 1.925781 C 4.207031 1.925781 4.5 2.21875 4.5 2.578125 Z M 4.5 2.578125 "/>
<path fill-rule="nonzero" fill="rgb(100%, 100%, 100%)" fill-opacity="1" d="M 8.582031 2.589844 C 8.582031 2.953125 8.289062 3.246094 7.929688 3.246094 C 7.566406 3.246094 7.273438 2.953125 7.273438 2.589844 C 7.273438 2.230469 7.566406 1.9375 7.929688 1.9375 C 8.289062 1.9375 8.582031 2.230469 8.582031 2.589844 Z M 8.582031 2.589844 "/>
<path fill-rule="nonzero" fill="rgb(100%, 100%, 100%)" fill-opacity="1" d="M 10.691406 2.597656 C 10.691406 2.957031 10.398438 3.25 10.039062 3.25 C 9.675781 3.25 9.382812 2.957031 9.382812 2.597656 C 9.382812 2.234375 9.675781 1.941406 10.039062 1.941406 C 10.398438 1.941406 10.691406 2.234375 10.691406 2.597656 Z M 10.691406 2.597656 "/>
<path fill-rule="nonzero" fill="rgb(100%, 100%, 100%)" fill-opacity="1" d="M 12.777344 2.609375 C 12.777344 2.96875 12.484375 3.261719 12.125 3.261719 C 11.761719 3.261719 11.46875 2.96875 11.46875 2.609375 C 11.46875 2.246094 11.761719 1.953125 12.125 1.953125 C 12.484375 1.953125 12.777344 2.246094 12.777344 2.609375 Z M 12.777344 2.609375 "/>
<path fill-rule="nonzero" fill="rgb(100%, 100%, 100%)" fill-opacity="1" d="M 4.457031 4.578125 C 4.457031 4.9375 4.164062 5.230469 3.800781 5.230469 C 3.441406 5.230469 3.148438 4.9375 3.148438 4.578125 C 3.148438 4.214844 3.441406 3.921875 3.800781 3.921875 C 4.164062 3.921875 4.457031 4.214844 4.457031 4.578125 Z M 4.457031 4.578125 "/>
<path fill-rule="nonzero" fill="rgb(100%, 100%, 100%)" fill-opacity="1" d="M 14.835938 4.628906 C 14.835938 4.988281 14.542969 5.28125 14.179688 5.28125 C 13.820312 5.28125 13.527344 4.988281 13.527344 4.628906 C 13.527344 4.265625 13.820312 3.972656 14.179688 3.972656 C 14.542969 3.972656 14.835938 4.265625 14.835938 4.628906 Z M 14.835938 4.628906 "/>
<path fill-rule="nonzero" fill="rgb(100%, 100%, 100%)" fill-opacity="1" d="M 4.472656 6.734375 C 4.472656 7.097656 4.179688 7.390625 3.816406 7.390625 C 3.457031 7.390625 3.164062 7.097656 3.164062 6.734375 C 3.164062 6.375 3.457031 6.082031 3.816406 6.082031 C 4.179688 6.082031 4.472656 6.375 4.472656 6.734375 Z M 4.472656 6.734375 "/>
<path fill-rule="nonzero" fill="rgb(100%, 100%, 100%)" fill-opacity="1" d="M 14.851562 6.785156 C 14.851562 7.148438 14.558594 7.441406 14.195312 7.441406 C 13.835938 7.441406 13.542969 7.148438 13.542969 6.785156 C 13.542969 6.425781 13.835938 6.132812 14.195312 6.132812 C 14.558594 6.132812 14.851562 6.425781 14.851562 6.785156 Z M 14.851562 6.785156 "/>
<path fill-rule="nonzero" fill="rgb(100%, 100%, 100%)" fill-opacity="1" d="M 4.519531 8.832031 C 4.519531 9.195312 4.226562 9.488281 3.867188 9.488281 C 3.507812 9.488281 3.214844 9.195312 3.214844 8.832031 C 3.214844 8.472656 3.507812 8.179688 3.867188 8.179688 C 4.226562 8.179688 4.519531 8.472656 4.519531 8.832031 Z M 4.519531 8.832031 "/>
<path fill-rule="nonzero" fill="rgb(100%, 100%, 100%)" fill-opacity="1" d="M 8.605469 8.847656 C 8.605469 9.207031 8.3125 9.5 7.953125 9.5 C 7.589844 9.5 7.296875 9.207031 7.296875 8.847656 C 7.296875 8.484375 7.589844 8.191406 7.953125 8.191406 C 8.3125 8.191406 8.605469 8.484375 8.605469 8.847656 Z M 8.605469 8.847656 "/>
<path fill-rule="nonzero" fill="rgb(100%, 100%, 100%)" fill-opacity="1" d="M 10.714844 8.851562 C 10.714844 9.210938 10.421875 9.503906 10.058594 9.503906 C 9.699219 9.503906 9.40625 9.210938 9.40625 8.851562 C 9.40625 8.492188 9.699219 8.199219 10.058594 8.199219 C 10.421875 8.199219 10.714844 8.492188 10.714844 8.851562 Z M 10.714844 8.851562 "/>
<path fill-rule="nonzero" fill="rgb(100%, 100%, 100%)" fill-opacity="1" d="M 12.800781 8.863281 C 12.800781 9.222656 12.507812 9.515625 12.148438 9.515625 C 11.785156 9.515625 11.492188 9.222656 11.492188 8.863281 C 11.492188 8.503906 11.785156 8.210938 12.148438 8.210938 C 12.507812 8.210938 12.800781 8.503906 12.800781 8.863281 Z M 12.800781 8.863281 "/>
<path fill-rule="nonzero" fill="rgb(100%, 100%, 100%)" fill-opacity="1" d="M 4.460938 10.847656 C 4.460938 11.210938 4.167969 11.503906 3.804688 11.503906 C 3.445312 11.503906 3.152344 11.210938 3.152344 10.847656 C 3.152344 10.488281 3.445312 10.195312 3.804688 10.195312 C 4.167969 10.195312 4.460938 10.488281 4.460938 10.847656 Z M 4.460938 10.847656 "/>
<path fill-rule="nonzero" fill="rgb(100%, 100%, 100%)" fill-opacity="1" d="M 14.839844 10.902344 C 14.839844 11.261719 14.546875 11.554688 14.183594 11.554688 C 13.824219 11.554688 13.53125 11.261719 13.53125 10.902344 C 13.53125 10.539062 13.824219 10.246094 14.183594 10.246094 C 14.546875 10.246094 14.839844 10.539062 14.839844 10.902344 Z M 14.839844 10.902344 "/>
<path fill-rule="nonzero" fill="rgb(100%, 100%, 100%)" fill-opacity="1" d="M 4.464844 12.984375 C 4.464844 13.347656 4.171875 13.640625 3.808594 13.640625 C 3.449219 13.640625 3.15625 13.347656 3.15625 12.984375 C 3.15625 12.625 3.449219 12.332031 3.808594 12.332031 C 4.171875 12.332031 4.464844 12.625 4.464844 12.984375 Z M 4.464844 12.984375 "/>
<path fill-rule="nonzero" fill="rgb(100%, 100%, 100%)" fill-opacity="1" d="M 14.84375 13.039062 C 14.84375 13.398438 14.550781 13.691406 14.1875 13.691406 C 13.828125 13.691406 13.535156 13.398438 13.535156 13.039062 C 13.535156 12.675781 13.828125 12.382812 14.1875 12.382812 C 14.550781 12.382812 14.84375 12.675781 14.84375 13.039062 Z M 14.84375 13.039062 "/>
<path fill-rule="nonzero" fill="rgb(100%, 100%, 100%)" fill-opacity="1" d="M 4.507812 15.132812 C 4.507812 15.492188 4.214844 15.785156 3.851562 15.785156 C 3.492188 15.785156 3.199219 15.492188 3.199219 15.132812 C 3.199219 14.769531 3.492188 14.476562 3.851562 14.476562 C 4.214844 14.476562 4.507812 14.769531 4.507812 15.132812 Z M 4.507812 15.132812 "/>
<path fill-rule="nonzero" fill="rgb(100%, 100%, 100%)" fill-opacity="1" d="M 8.589844 15.144531 C 8.589844 15.503906 8.296875 15.796875 7.9375 15.796875 C 7.574219 15.796875 7.28125 15.503906 7.28125 15.144531 C 7.28125 14.78125 7.574219 14.488281 7.9375 14.488281 C 8.296875 14.488281 8.589844 14.78125 8.589844 15.144531 Z M 8.589844 15.144531 "/>
<path fill-rule="nonzero" fill="rgb(100%, 100%, 100%)" fill-opacity="1" d="M 10.699219 15.148438 C 10.699219 15.507812 10.40625 15.800781 10.046875 15.800781 C 9.683594 15.800781 9.390625 15.507812 9.390625 15.148438 C 9.390625 14.789062 9.683594 14.496094 10.046875 14.496094 C 10.40625 14.496094 10.699219 14.789062 10.699219 15.148438 Z M 10.699219 15.148438 "/>
<path fill-rule="nonzero" fill="rgb(100%, 100%, 100%)" fill-opacity="1" d="M 12.785156 15.160156 C 12.785156 15.519531 12.492188 15.8125 12.132812 15.8125 C 11.769531 15.8125 11.476562 15.519531 11.476562 15.160156 C 11.476562 14.800781 11.769531 14.507812 12.132812 14.507812 C 12.492188 14.507812 12.785156 14.800781 12.785156 15.160156 Z M 12.785156 15.160156 "/>
</svg>
