<?xml version="1.0" encoding="UTF-8"?>
<svg xmlns="http://www.w3.org/2000/svg" xmlns:xlink="http://www.w3.org/1999/xlink" width="18" height="17.735492" viewBox="0 0 18 17.735492">
<path fill-rule="nonzero" fill="rgb(14.901961%, 14.901961%, 14.901961%)" fill-opacity="1" stroke-width="0.264999" stroke-linecap="round" stroke-linejoin="round" stroke="rgb(0%, 0%, 0%)" stroke-opacity="1" stroke-dasharray="0.576893 0.714866" stroke-miterlimit="4" d="M 0.717671 -0.0509273 L 210.208499 -0.0509273 L 210.208499 206.344426 L 0.717671 206.344426 Z M 0.717671 -0.0509273 " transform="matrix(0.0858107, 0, 0, 0.0858107, -0.0498651, 0.0160889)"/>
<path fill-rule="nonzero" fill="rgb(100%, 100%, 100%)" fill-opacity="1" d="M 10.878906 1.90625 C 10.878906 2.304688 10.554688 2.628906 10.15625 2.628906 C 9.753906 2.628906 9.429688 2.304688 9.429688 1.90625 C 9.429688 1.503906 9.753906 1.179688 10.15625 1.179688 C 10.554688 1.179688 10.878906 1.503906 10.878906 1.90625 Z M 10.878906 1.90625 "/>
<path fill-rule="nonzero" fill="rgb(100%, 100%, 100%)" fill-opacity="1" d="M 13.191406 1.921875 C 13.191406 2.320312 12.867188 2.644531 12.46875 2.644531 C 12.066406 2.644531 11.742188 2.320312 11.742188 1.921875 C 11.742188 1.519531 12.066406 1.191406 12.46875 1.191406 C 12.867188 1.191406 13.191406 1.519531 13.191406 1.921875 Z M 13.191406 1.921875 "/>
<path fill-rule="nonzero" fill="rgb(100%, 100%, 100%)" fill-opacity="1" d="M 8.492188 4.117188 C 8.492188 4.515625 8.167969 4.839844 7.769531 4.839844 C 7.367188 4.839844 7.046875 4.515625 7.046875 4.117188 C 7.046875 3.714844 7.367188 3.386719 7.769531 3.386719 C 8.167969 3.386719 8.492188 3.714844 8.492188 4.117188 Z M 8.492188 4.117188 "/>
<path fill-rule="nonzero" fill="rgb(100%, 100%, 100%)" fill-opacity="1" d="M 13.144531 4.132812 C 13.144531 4.53125 12.820312 4.855469 12.421875 4.855469 C 12.019531 4.855469 11.699219 4.53125 11.699219 4.132812 C 11.699219 3.734375 12.019531 3.410156 12.421875 3.410156 C 12.820312 3.410156 13.144531 3.734375 13.144531 4.132812 Z M 13.144531 4.132812 "/>
<path fill-rule="nonzero" fill="rgb(100%, 100%, 100%)" fill-opacity="1" d="M 6.253906 6.570312 C 6.253906 6.96875 5.929688 7.292969 5.527344 7.292969 C 5.128906 7.292969 4.804688 6.96875 4.804688 6.570312 C 4.804688 6.171875 5.128906 5.847656 5.527344 5.847656 C 5.929688 5.847656 6.253906 6.171875 6.253906 6.570312 Z M 6.253906 6.570312 "/>
<path fill-rule="nonzero" fill="rgb(100%, 100%, 100%)" fill-opacity="1" d="M 13.160156 6.527344 C 13.160156 6.925781 12.835938 7.25 12.4375 7.25 C 12.035156 7.25 11.714844 6.925781 11.714844 6.527344 C 11.714844 6.125 12.035156 5.800781 12.4375 5.800781 C 12.835938 5.800781 13.160156 6.125 13.160156 6.527344 Z M 13.160156 6.527344 "/>
<path fill-rule="nonzero" fill="rgb(100%, 100%, 100%)" fill-opacity="1" d="M 4.039062 8.816406 C 4.039062 9.21875 3.714844 9.546875 3.316406 9.546875 C 2.917969 9.546875 2.589844 9.21875 2.589844 8.816406 C 2.589844 8.417969 2.917969 8.09375 3.316406 8.09375 C 3.714844 8.09375 4.039062 8.417969 4.039062 8.816406 Z M 4.039062 8.816406 "/>
<path fill-rule="nonzero" fill="rgb(100%, 100%, 100%)" fill-opacity="1" d="M 13.21875 8.851562 C 13.21875 9.25 12.894531 9.574219 12.496094 9.574219 C 12.089844 9.574219 11.765625 9.25 11.765625 8.851562 C 11.765625 8.453125 12.089844 8.128906 12.496094 8.128906 C 12.894531 8.128906 13.21875 8.453125 13.21875 8.851562 Z M 13.21875 8.851562 "/>
<path fill-rule="nonzero" fill="rgb(100%, 100%, 100%)" fill-opacity="1" d="M 3.972656 11.050781 C 3.972656 11.453125 3.648438 11.78125 3.246094 11.78125 C 2.847656 11.78125 2.523438 11.453125 2.523438 11.050781 C 2.523438 10.652344 2.847656 10.328125 3.246094 10.328125 C 3.648438 10.328125 3.972656 10.652344 3.972656 11.050781 Z M 3.972656 11.050781 "/>
<path fill-rule="nonzero" fill="rgb(100%, 100%, 100%)" fill-opacity="1" d="M 6.242188 11.128906 C 6.242188 11.53125 5.917969 11.859375 5.515625 11.859375 C 5.117188 11.859375 4.792969 11.53125 4.792969 11.128906 C 4.792969 10.730469 5.117188 10.40625 5.515625 10.40625 C 5.917969 10.40625 6.242188 10.730469 6.242188 11.128906 Z M 6.242188 11.128906 "/>
<path fill-rule="nonzero" fill="rgb(100%, 100%, 100%)" fill-opacity="1" d="M 8.496094 11.070312 C 8.496094 11.46875 8.171875 11.792969 7.773438 11.792969 C 7.371094 11.792969 7.046875 11.46875 7.046875 11.070312 C 7.046875 10.667969 7.371094 10.34375 7.773438 10.34375 C 8.171875 10.34375 8.496094 10.667969 8.496094 11.070312 Z M 8.496094 11.070312 "/>
<path fill-rule="nonzero" fill="rgb(100%, 100%, 100%)" fill-opacity="1" d="M 10.835938 11.074219 C 10.835938 11.472656 10.511719 11.796875 10.113281 11.796875 C 9.710938 11.796875 9.386719 11.472656 9.386719 11.074219 C 9.386719 10.671875 9.710938 10.351562 10.113281 10.351562 C 10.511719 10.351562 10.835938 10.671875 10.835938 11.074219 Z M 10.835938 11.074219 "/>
<path fill-rule="nonzero" fill="rgb(100%, 100%, 100%)" fill-opacity="1" d="M 13.148438 11.085938 C 13.148438 11.484375 12.824219 11.808594 12.425781 11.808594 C 12.023438 11.808594 11.699219 11.484375 11.699219 11.085938 C 11.699219 10.6875 12.023438 10.363281 12.425781 10.363281 C 12.824219 10.363281 13.148438 10.6875 13.148438 11.085938 Z M 13.148438 11.085938 "/>
<path fill-rule="nonzero" fill="rgb(100%, 100%, 100%)" fill-opacity="1" d="M 15.476562 11.113281 C 15.476562 11.511719 15.152344 11.835938 14.75 11.835938 C 14.351562 11.835938 14.027344 11.511719 14.027344 11.113281 C 14.027344 10.710938 14.351562 10.386719 14.75 10.386719 C 15.152344 10.386719 15.476562 10.710938 15.476562 11.113281 Z M 15.476562 11.113281 "/>
<path fill-rule="nonzero" fill="rgb(100%, 100%, 100%)" fill-opacity="1" d="M 13.152344 13.457031 C 13.152344 13.855469 12.828125 14.179688 12.429688 14.179688 C 12.027344 14.179688 11.707031 13.855469 11.707031 13.457031 C 11.707031 13.050781 12.027344 12.730469 12.429688 12.730469 C 12.828125 12.730469 13.152344 13.050781 13.152344 13.457031 Z M 13.152344 13.457031 "/>
<path fill-rule="nonzero" fill="rgb(100%, 100%, 100%)" fill-opacity="1" d="M 13.199219 15.832031 C 13.199219 16.230469 12.875 16.554688 12.476562 16.554688 C 12.074219 16.554688 11.75 16.230469 11.75 15.832031 C 11.75 15.433594 12.074219 15.109375 12.476562 15.109375 C 12.875 15.109375 13.199219 15.433594 13.199219 15.832031 Z M 13.199219 15.832031 "/>
</svg>
