<?xml version="1.0" encoding="UTF-8"?>
<svg xmlns="http://www.w3.org/2000/svg" xmlns:xlink="http://www.w3.org/1999/xlink" width="18" height="17.735493" viewBox="0 0 18 17.735493">
<path fill-rule="nonzero" fill="rgb(14.901961%, 14.901961%, 14.901961%)" fill-opacity="1" stroke-width="0.0227397" stroke-linecap="round" stroke-linejoin="round" stroke="rgb(0%, 0%, 0%)" stroke-opacity="1" stroke-dasharray="0.576893 0.714866" stroke-miterlimit="4" d="M 0.0117188 0.0117188 L 17.988281 0.0117188 L 17.988281 17.722656 C 17.988281 17.722656 13.089844 17.734375 8.894531 17.734375 C 6.007812 17.734375 3.394531 16.878906 1.972656 15.476562 C 0.550781 14.078125 0 11.324219 0 8.867188 C 0 4.507812 0.0117188 0.0117188 0.0117188 0.0117188 Z M 0.0117188 0.0117188 "/>
<path fill-rule="nonzero" fill="rgb(100%, 100%, 100%)" fill-opacity="1" d="M 10.695312 2.589844 C 10.695312 2.949219 10.402344 3.242188 10.042969 3.242188 C 9.679688 3.242188 9.386719 2.949219 9.386719 2.589844 C 9.386719 2.226562 9.679688 1.933594 10.042969 1.933594 C 10.402344 1.933594 10.695312 2.226562 10.695312 2.589844 Z M 10.695312 2.589844 "/>
<path fill-rule="nonzero" fill="rgb(100%, 100%, 100%)" fill-opacity="1" d="M 12.78125 2.601562 C 12.78125 2.960938 12.488281 3.253906 12.128906 3.253906 C 11.765625 3.253906 11.472656 2.960938 11.472656 2.601562 C 11.472656 2.238281 11.765625 1.945312 12.128906 1.945312 C 12.488281 1.945312 12.78125 2.238281 12.78125 2.601562 Z M 12.78125 2.601562 "/>
<path fill-rule="nonzero" fill="rgb(100%, 100%, 100%)" fill-opacity="1" d="M 8.542969 4.582031 C 8.542969 4.941406 8.25 5.234375 7.890625 5.234375 C 7.527344 5.234375 7.238281 4.941406 7.238281 4.582031 C 7.238281 4.21875 7.527344 3.925781 7.890625 3.925781 C 8.25 3.925781 8.542969 4.21875 8.542969 4.582031 Z M 8.542969 4.582031 "/>
<path fill-rule="nonzero" fill="rgb(100%, 100%, 100%)" fill-opacity="1" d="M 12.738281 4.597656 C 12.738281 4.957031 12.445312 5.25 12.085938 5.25 C 11.722656 5.25 11.433594 4.957031 11.433594 4.597656 C 11.433594 4.238281 11.722656 3.945312 12.085938 3.945312 C 12.445312 3.945312 12.738281 4.238281 12.738281 4.597656 Z M 12.738281 4.597656 "/>
<path fill-rule="nonzero" fill="rgb(100%, 100%, 100%)" fill-opacity="1" d="M 6.523438 6.796875 C 6.523438 7.15625 6.230469 7.449219 5.867188 7.449219 C 5.507812 7.449219 5.214844 7.15625 5.214844 6.796875 C 5.214844 6.4375 5.507812 6.144531 5.867188 6.144531 C 6.230469 6.144531 6.523438 6.4375 6.523438 6.796875 Z M 6.523438 6.796875 "/>
<path fill-rule="nonzero" fill="rgb(100%, 100%, 100%)" fill-opacity="1" d="M 12.753906 6.757812 C 12.753906 7.117188 12.460938 7.410156 12.101562 7.410156 C 11.738281 7.410156 11.449219 7.117188 11.449219 6.757812 C 11.449219 6.394531 11.738281 6.101562 12.101562 6.101562 C 12.460938 6.101562 12.753906 6.394531 12.753906 6.757812 Z M 12.753906 6.757812 "/>
<path fill-rule="nonzero" fill="rgb(100%, 100%, 100%)" fill-opacity="1" d="M 4.523438 8.824219 C 4.523438 9.1875 4.230469 9.480469 3.871094 9.480469 C 3.511719 9.480469 3.21875 9.1875 3.21875 8.824219 C 3.21875 8.464844 3.511719 8.171875 3.871094 8.171875 C 4.230469 8.171875 4.523438 8.464844 4.523438 8.824219 Z M 4.523438 8.824219 "/>
<path fill-rule="nonzero" fill="rgb(100%, 100%, 100%)" fill-opacity="1" d="M 12.804688 8.855469 C 12.804688 9.214844 12.511719 9.507812 12.152344 9.507812 C 11.789062 9.507812 11.496094 9.214844 11.496094 8.855469 C 11.496094 8.496094 11.789062 8.203125 12.152344 8.203125 C 12.511719 8.203125 12.804688 8.496094 12.804688 8.855469 Z M 12.804688 8.855469 "/>
<path fill-rule="nonzero" fill="rgb(100%, 100%, 100%)" fill-opacity="1" d="M 4.464844 10.839844 C 4.464844 11.203125 4.171875 11.496094 3.808594 11.496094 C 3.449219 11.496094 3.15625 11.203125 3.15625 10.839844 C 3.15625 10.480469 3.449219 10.1875 3.808594 10.1875 C 4.171875 10.1875 4.464844 10.480469 4.464844 10.839844 Z M 4.464844 10.839844 "/>
<path fill-rule="nonzero" fill="rgb(100%, 100%, 100%)" fill-opacity="1" d="M 6.511719 10.910156 C 6.511719 11.273438 6.21875 11.566406 5.855469 11.566406 C 5.496094 11.566406 5.203125 11.273438 5.203125 10.910156 C 5.203125 10.550781 5.496094 10.257812 5.855469 10.257812 C 6.21875 10.257812 6.511719 10.550781 6.511719 10.910156 Z M 6.511719 10.910156 "/>
<path fill-rule="nonzero" fill="rgb(100%, 100%, 100%)" fill-opacity="1" d="M 8.546875 10.855469 C 8.546875 11.214844 8.253906 11.507812 7.894531 11.507812 C 7.53125 11.507812 7.238281 11.214844 7.238281 10.855469 C 7.238281 10.492188 7.53125 10.199219 7.894531 10.199219 C 8.253906 10.199219 8.546875 10.492188 8.546875 10.855469 Z M 8.546875 10.855469 "/>
<path fill-rule="nonzero" fill="rgb(100%, 100%, 100%)" fill-opacity="1" d="M 10.65625 10.859375 C 10.65625 11.21875 10.363281 11.511719 10.003906 11.511719 C 9.640625 11.511719 9.347656 11.21875 9.347656 10.859375 C 9.347656 10.496094 9.640625 10.207031 10.003906 10.207031 C 10.363281 10.207031 10.65625 10.496094 10.65625 10.859375 Z M 10.65625 10.859375 "/>
<path fill-rule="nonzero" fill="rgb(100%, 100%, 100%)" fill-opacity="1" d="M 12.742188 10.871094 C 12.742188 11.230469 12.449219 11.523438 12.089844 11.523438 C 11.726562 11.523438 11.433594 11.230469 11.433594 10.871094 C 11.433594 10.511719 11.726562 10.21875 12.089844 10.21875 C 12.449219 10.21875 12.742188 10.511719 12.742188 10.871094 Z M 12.742188 10.871094 "/>
<path fill-rule="nonzero" fill="rgb(100%, 100%, 100%)" fill-opacity="1" d="M 14.84375 10.894531 C 14.84375 11.253906 14.550781 11.546875 14.1875 11.546875 C 13.828125 11.546875 13.535156 11.253906 13.535156 10.894531 C 13.535156 10.53125 13.828125 10.238281 14.1875 10.238281 C 14.550781 10.238281 14.84375 10.53125 14.84375 10.894531 Z M 14.84375 10.894531 "/>
<path fill-rule="nonzero" fill="rgb(100%, 100%, 100%)" fill-opacity="1" d="M 12.746094 13.007812 C 12.746094 13.367188 12.453125 13.660156 12.09375 13.660156 C 11.730469 13.660156 11.441406 13.367188 11.441406 13.007812 C 11.441406 12.644531 11.730469 12.355469 12.09375 12.355469 C 12.453125 12.355469 12.746094 12.644531 12.746094 13.007812 Z M 12.746094 13.007812 "/>
<path fill-rule="nonzero" fill="rgb(100%, 100%, 100%)" fill-opacity="1" d="M 12.789062 15.152344 C 12.789062 15.511719 12.496094 15.804688 12.136719 15.804688 C 11.773438 15.804688 11.480469 15.511719 11.480469 15.152344 C 11.480469 14.792969 11.773438 14.5 12.136719 14.5 C 12.496094 14.5 12.789062 14.792969 12.789062 15.152344 Z M 12.789062 15.152344 "/>
</svg>
