<?xml version="1.0" encoding="UTF-8"?>
<svg xmlns="http://www.w3.org/2000/svg" xmlns:xlink="http://www.w3.org/1999/xlink" width="16.238624" height="16" viewBox="0 0 16.238624 16">
<path fill-rule="nonzero" fill="rgb(14.901961%, 14.901961%, 14.901961%)" fill-opacity="1" stroke-width="0.264999" stroke-linecap="round" stroke-linejoin="round" stroke="rgb(0%, 0%, 0%)" stroke-opacity="1" stroke-dasharray="0.576893 0.714866" stroke-miterlimit="4" d="M 0.732484 -0.0361148 L 210.189267 -0.0361148 L 210.189267 206.342648 L 0.732484 206.342648 Z M 0.732484 -0.0361148 " transform="matrix(0.0774138, 0, 0, 0.0774138, -0.0449856, 0.0145145)"/>
<path fill-rule="nonzero" fill="rgb(24.705882%, 24.705882%, 24.705882%)" fill-opacity="1" stroke-width="0.264999" stroke-linecap="round" stroke-linejoin="round" stroke="rgb(0%, 0%, 0%)" stroke-opacity="1" stroke-dasharray="0.576893 0.714866" stroke-miterlimit="4" d="M 32.572337 21.409111 C 32.572337 26.101831 28.787885 29.886283 24.095165 29.886283 C 19.452904 29.886283 15.668453 26.101831 15.668453 21.409111 C 15.668453 16.76685 19.452904 12.982399 24.095165 12.982399 C 28.787885 12.982399 32.572337 16.76685 32.572337 21.409111 Z M 32.572337 21.409111 " transform="matrix(0.0774138, 0, 0, 0.0774138, -0.0449856, 0.0145145)"/>
<path fill-rule="nonzero" fill="rgb(24.705882%, 24.705882%, 24.705882%)" fill-opacity="1" stroke-width="0.264999" stroke-linecap="round" stroke-linejoin="round" stroke="rgb(0%, 0%, 0%)" stroke-opacity="1" stroke-dasharray="0.576893 0.714866" stroke-miterlimit="4" d="M 59.013039 22.317379 C 59.013039 26.95964 55.228587 30.744092 50.535867 30.744092 C 45.893606 30.744092 42.109155 26.95964 42.109155 22.317379 C 42.109155 17.675119 45.893606 13.890667 50.535867 13.890667 C 55.228587 13.890667 59.013039 17.675119 59.013039 22.317379 Z M 59.013039 22.317379 " transform="matrix(0.0774138, 0, 0, 0.0774138, -0.0449856, 0.0145145)"/>
<path fill-rule="nonzero" fill="rgb(100%, 100%, 100%)" fill-opacity="1" stroke-width="0.264999" stroke-linecap="round" stroke-linejoin="round" stroke="rgb(0%, 0%, 0%)" stroke-opacity="1" stroke-dasharray="0.576893 0.714866" stroke-miterlimit="4" d="M 85.302363 21.560489 C 85.302363 26.253209 81.517911 30.037661 76.87565 30.037661 C 72.18293 30.037661 68.398479 26.253209 68.398479 21.560489 C 68.398479 16.918228 72.18293 13.133777 76.87565 13.133777 C 81.517911 13.133777 85.302363 16.918228 85.302363 21.560489 Z M 85.302363 21.560489 " transform="matrix(0.0774138, 0, 0, 0.0774138, -0.0449856, 0.0145145)"/>
<path fill-rule="nonzero" fill="rgb(100%, 100%, 100%)" fill-opacity="1" stroke-width="0.264999" stroke-linecap="round" stroke-linejoin="round" stroke="rgb(0%, 0%, 0%)" stroke-opacity="1" stroke-dasharray="0.576893 0.714866" stroke-miterlimit="4" d="M 112.550415 21.661408 C 112.550415 26.303669 108.765963 30.08812 104.123702 30.08812 C 99.430982 30.08812 95.646531 26.303669 95.646531 21.661408 C 95.646531 16.968688 99.430982 13.184236 104.123702 13.184236 C 108.765963 13.184236 112.550415 16.968688 112.550415 21.661408 Z M 112.550415 21.661408 " transform="matrix(0.0774138, 0, 0, 0.0774138, -0.0449856, 0.0145145)"/>
<path fill-rule="nonzero" fill="rgb(100%, 100%, 100%)" fill-opacity="1" stroke-width="0.264999" stroke-linecap="round" stroke-linejoin="round" stroke="rgb(0%, 0%, 0%)" stroke-opacity="1" stroke-dasharray="0.576893 0.714866" stroke-miterlimit="4" d="M 139.49571 21.812786 C 139.49571 26.455047 135.711259 30.239498 131.068998 30.239498 C 126.376278 30.239498 122.591826 26.455047 122.591826 21.812786 C 122.591826 17.120066 126.376278 13.335614 131.068998 13.335614 C 135.711259 13.335614 139.49571 17.120066 139.49571 21.812786 Z M 139.49571 21.812786 " transform="matrix(0.0774138, 0, 0, 0.0774138, -0.0449856, 0.0145145)"/>
<path fill-rule="nonzero" fill="rgb(24.705882%, 24.705882%, 24.705882%)" fill-opacity="1" stroke-width="0.264999" stroke-linecap="round" stroke-linejoin="round" stroke="rgb(0%, 0%, 0%)" stroke-opacity="1" stroke-dasharray="0.576893 0.714866" stroke-miterlimit="4" d="M 166.642843 22.065083 C 166.642843 26.757803 162.858392 30.542254 158.165672 30.542254 C 153.523411 30.542254 149.738959 26.757803 149.738959 22.065083 C 149.738959 17.422822 153.523411 13.63837 158.165672 13.63837 C 162.858392 13.63837 166.642843 17.422822 166.642843 22.065083 Z M 166.642843 22.065083 " transform="matrix(0.0774138, 0, 0, 0.0774138, -0.0449856, 0.0145145)"/>
<path fill-rule="nonzero" fill="rgb(24.705882%, 24.705882%, 24.705882%)" fill-opacity="1" stroke-width="0.264999" stroke-linecap="round" stroke-linejoin="round" stroke="rgb(0%, 0%, 0%)" stroke-opacity="1" stroke-dasharray="0.576893 0.714866" stroke-miterlimit="4" d="M 193.537679 21.711867 C 193.537679 26.354128 189.753228 30.13858 185.110967 30.13858 C 180.468707 30.13858 176.684255 26.354128 176.684255 21.711867 C 176.684255 17.019147 180.468707 13.285155 185.110967 13.285155 C 189.753228 13.285155 193.537679 17.019147 193.537679 21.711867 Z M 193.537679 21.711867 " transform="matrix(0.0774138, 0, 0, 0.0774138, -0.0449856, 0.0145145)"/>
<path fill-rule="nonzero" fill="rgb(24.705882%, 24.705882%, 24.705882%)" fill-opacity="1" stroke-width="0.264999" stroke-linecap="round" stroke-linejoin="round" stroke="rgb(0%, 0%, 0%)" stroke-opacity="1" stroke-dasharray="0.576893 0.714866" stroke-miterlimit="4" d="M 32.017284 47.244301 C 32.017284 51.886562 28.232832 55.671013 23.540112 55.671013 C 18.897851 55.671013 15.1134 51.886562 15.1134 47.244301 C 15.1134 42.551581 18.897851 38.767129 23.540112 38.767129 C 28.232832 38.767129 32.017284 42.551581 32.017284 47.244301 Z M 32.017284 47.244301 " transform="matrix(0.0774138, 0, 0, 0.0774138, -0.0449856, 0.0145145)"/>
<path fill-rule="nonzero" fill="rgb(100%, 100%, 100%)" fill-opacity="1" stroke-width="0.264999" stroke-linecap="round" stroke-linejoin="round" stroke="rgb(0%, 0%, 0%)" stroke-opacity="1" stroke-dasharray="0.576893 0.714866" stroke-miterlimit="4" d="M 58.457986 48.10211 C 58.457986 52.79483 54.673534 56.579282 49.980814 56.579282 C 45.338554 56.579282 41.554102 52.79483 41.554102 48.10211 C 41.554102 43.459849 45.338554 39.675398 49.980814 39.675398 C 54.673534 39.675398 58.457986 43.459849 58.457986 48.10211 Z M 58.457986 48.10211 " transform="matrix(0.0774138, 0, 0, 0.0774138, -0.0449856, 0.0145145)"/>
<path fill-rule="nonzero" fill="rgb(24.705882%, 24.705882%, 24.705882%)" fill-opacity="1" stroke-width="0.264999" stroke-linecap="round" stroke-linejoin="round" stroke="rgb(0%, 0%, 0%)" stroke-opacity="1" stroke-dasharray="0.576893 0.714866" stroke-miterlimit="4" d="M 84.74731 47.395679 C 84.74731 52.03794 80.962858 55.822391 76.320598 55.822391 C 71.627878 55.822391 67.893885 52.03794 67.893885 47.395679 C 67.893885 42.702959 71.627878 38.918507 76.320598 38.918507 C 80.962858 38.918507 84.74731 42.702959 84.74731 47.395679 Z M 84.74731 47.395679 " transform="matrix(0.0774138, 0, 0, 0.0774138, -0.0449856, 0.0145145)"/>
<path fill-rule="nonzero" fill="rgb(24.705882%, 24.705882%, 24.705882%)" fill-opacity="1" stroke-width="0.264999" stroke-linecap="round" stroke-linejoin="round" stroke="rgb(0%, 0%, 0%)" stroke-opacity="1" stroke-dasharray="0.576893 0.714866" stroke-miterlimit="4" d="M 111.995362 47.446138 C 111.995362 52.088399 108.21091 55.872851 103.568649 55.872851 C 98.875929 55.872851 95.091478 52.088399 95.091478 47.446138 C 95.091478 42.803878 98.875929 39.019426 103.568649 39.019426 C 108.21091 39.019426 111.995362 42.803878 111.995362 47.446138 Z M 111.995362 47.446138 " transform="matrix(0.0774138, 0, 0, 0.0774138, -0.0449856, 0.0145145)"/>
<path fill-rule="nonzero" fill="rgb(24.705882%, 24.705882%, 24.705882%)" fill-opacity="1" stroke-width="0.264999" stroke-linecap="round" stroke-linejoin="round" stroke="rgb(0%, 0%, 0%)" stroke-opacity="1" stroke-dasharray="0.576893 0.714866" stroke-miterlimit="4" d="M 138.940657 47.597516 C 138.940657 52.239777 135.156206 56.024229 130.513945 56.024229 C 125.821225 56.024229 122.087233 52.239777 122.087233 47.597516 C 122.087233 42.955256 125.821225 39.170804 130.513945 39.170804 C 135.156206 39.170804 138.940657 42.955256 138.940657 47.597516 Z M 138.940657 47.597516 " transform="matrix(0.0774138, 0, 0, 0.0774138, -0.0449856, 0.0145145)"/>
<path fill-rule="nonzero" fill="rgb(24.705882%, 24.705882%, 24.705882%)" fill-opacity="1" stroke-width="0.264999" stroke-linecap="round" stroke-linejoin="round" stroke="rgb(0%, 0%, 0%)" stroke-opacity="1" stroke-dasharray="0.576893 0.714866" stroke-miterlimit="4" d="M 166.08779 47.900273 C 166.08779 52.542533 162.303339 56.326985 157.610619 56.326985 C 152.968358 56.326985 149.183906 52.542533 149.183906 47.900273 C 149.183906 43.207552 152.968358 39.423101 157.610619 39.423101 C 162.303339 39.423101 166.08779 43.207552 166.08779 47.900273 Z M 166.08779 47.900273 " transform="matrix(0.0774138, 0, 0, 0.0774138, -0.0449856, 0.0145145)"/>
<path fill-rule="nonzero" fill="rgb(24.705882%, 24.705882%, 24.705882%)" fill-opacity="1" stroke-width="0.264999" stroke-linecap="round" stroke-linejoin="round" stroke="rgb(0%, 0%, 0%)" stroke-opacity="1" stroke-dasharray="0.576893 0.714866" stroke-miterlimit="4" d="M 192.982627 47.496598 C 192.982627 52.189318 189.248634 55.973769 184.555914 55.973769 C 179.913654 55.973769 176.129202 52.189318 176.129202 47.496598 C 176.129202 42.854337 179.913654 39.069885 184.555914 39.069885 C 189.248634 39.069885 192.982627 42.854337 192.982627 47.496598 Z M 192.982627 47.496598 " transform="matrix(0.0774138, 0, 0, 0.0774138, -0.0449856, 0.0145145)"/>
<path fill-rule="nonzero" fill="rgb(24.705882%, 24.705882%, 24.705882%)" fill-opacity="1" stroke-width="0.264999" stroke-linecap="round" stroke-linejoin="round" stroke="rgb(0%, 0%, 0%)" stroke-opacity="1" stroke-dasharray="0.576893 0.714866" stroke-miterlimit="4" d="M 32.219121 75.097865 C 32.219121 79.790585 28.43467 83.575037 23.74195 83.575037 C 19.099689 83.575037 15.315237 79.790585 15.315237 75.097865 C 15.315237 70.455604 19.099689 66.671153 23.74195 66.671153 C 28.43467 66.671153 32.219121 70.455604 32.219121 75.097865 Z M 32.219121 75.097865 " transform="matrix(0.0774138, 0, 0, 0.0774138, -0.0449856, 0.0145145)"/>
<path fill-rule="nonzero" fill="rgb(100%, 100%, 100%)" fill-opacity="1" stroke-width="0.264999" stroke-linecap="round" stroke-linejoin="round" stroke="rgb(0%, 0%, 0%)" stroke-opacity="1" stroke-dasharray="0.576893 0.714866" stroke-miterlimit="4" d="M 58.659823 76.006133 C 58.659823 80.648394 54.875372 84.432846 50.182652 84.432846 C 45.540391 84.432846 41.755939 80.648394 41.755939 76.006133 C 41.755939 71.363873 45.540391 67.579421 50.182652 67.579421 C 54.875372 67.579421 58.659823 71.363873 58.659823 76.006133 Z M 58.659823 76.006133 " transform="matrix(0.0774138, 0, 0, 0.0774138, -0.0449856, 0.0145145)"/>
<path fill-rule="nonzero" fill="rgb(24.705882%, 24.705882%, 24.705882%)" fill-opacity="1" stroke-width="0.264999" stroke-linecap="round" stroke-linejoin="round" stroke="rgb(0%, 0%, 0%)" stroke-opacity="1" stroke-dasharray="0.576893 0.714866" stroke-miterlimit="4" d="M 84.949147 75.249243 C 84.949147 79.941963 81.164696 83.726415 76.522435 83.726415 C 71.829715 83.726415 68.095723 79.941963 68.095723 75.249243 C 68.095723 70.606982 71.829715 66.822531 76.522435 66.822531 C 81.164696 66.822531 84.949147 70.606982 84.949147 75.249243 Z M 84.949147 75.249243 " transform="matrix(0.0774138, 0, 0, 0.0774138, -0.0449856, 0.0145145)"/>
<path fill-rule="nonzero" fill="rgb(24.705882%, 24.705882%, 24.705882%)" fill-opacity="1" stroke-width="0.264999" stroke-linecap="round" stroke-linejoin="round" stroke="rgb(0%, 0%, 0%)" stroke-opacity="1" stroke-dasharray="0.576893 0.714866" stroke-miterlimit="4" d="M 112.197199 75.350162 C 112.197199 79.992422 108.412747 83.776874 103.770487 83.776874 C 99.077767 83.776874 95.293315 79.992422 95.293315 75.350162 C 95.293315 70.657442 99.077767 66.87299 103.770487 66.87299 C 108.412747 66.87299 112.197199 70.657442 112.197199 75.350162 Z M 112.197199 75.350162 " transform="matrix(0.0774138, 0, 0, 0.0774138, -0.0449856, 0.0145145)"/>
<path fill-rule="nonzero" fill="rgb(24.705882%, 24.705882%, 24.705882%)" fill-opacity="1" stroke-width="0.264999" stroke-linecap="round" stroke-linejoin="round" stroke="rgb(0%, 0%, 0%)" stroke-opacity="1" stroke-dasharray="0.576893 0.714866" stroke-miterlimit="4" d="M 139.142495 75.50154 C 139.142495 80.1438 135.358043 83.928252 130.715782 83.928252 C 126.023062 83.928252 122.28907 80.1438 122.28907 75.50154 C 122.28907 70.80882 126.023062 67.024368 130.715782 67.024368 C 135.358043 67.024368 139.142495 70.80882 139.142495 75.50154 Z M 139.142495 75.50154 " transform="matrix(0.0774138, 0, 0, 0.0774138, -0.0449856, 0.0145145)"/>
<path fill-rule="nonzero" fill="rgb(24.705882%, 24.705882%, 24.705882%)" fill-opacity="1" stroke-width="0.264999" stroke-linecap="round" stroke-linejoin="round" stroke="rgb(0%, 0%, 0%)" stroke-opacity="1" stroke-dasharray="0.576893 0.714866" stroke-miterlimit="4" d="M 166.289628 75.753837 C 166.289628 80.446557 162.505176 84.231008 157.812456 84.231008 C 153.170195 84.231008 149.385744 80.446557 149.385744 75.753837 C 149.385744 71.111576 153.170195 67.327124 157.812456 67.327124 C 162.505176 67.327124 166.289628 71.111576 166.289628 75.753837 Z M 166.289628 75.753837 " transform="matrix(0.0774138, 0, 0, 0.0774138, -0.0449856, 0.0145145)"/>
<path fill-rule="nonzero" fill="rgb(24.705882%, 24.705882%, 24.705882%)" fill-opacity="1" stroke-width="0.264999" stroke-linecap="round" stroke-linejoin="round" stroke="rgb(0%, 0%, 0%)" stroke-opacity="1" stroke-dasharray="0.576893 0.714866" stroke-miterlimit="4" d="M 193.184464 75.400621 C 193.184464 80.042882 189.450472 83.827333 184.757752 83.827333 C 180.115491 83.827333 176.331039 80.042882 176.331039 75.400621 C 176.331039 70.75836 180.115491 66.973909 184.757752 66.973909 C 189.450472 66.973909 193.184464 70.75836 193.184464 75.400621 Z M 193.184464 75.400621 " transform="matrix(0.0774138, 0, 0, 0.0774138, -0.0449856, 0.0145145)"/>
<path fill-rule="nonzero" fill="rgb(24.705882%, 24.705882%, 24.705882%)" fill-opacity="1" stroke-width="0.264999" stroke-linecap="round" stroke-linejoin="round" stroke="rgb(0%, 0%, 0%)" stroke-opacity="1" stroke-dasharray="0.576893 0.714866" stroke-miterlimit="4" d="M 32.824633 102.194539 C 32.824633 106.887259 29.040182 110.67171 24.397921 110.67171 C 19.75566 110.67171 15.971209 106.887259 15.971209 102.194539 C 15.971209 97.552278 19.75566 93.767826 24.397921 93.767826 C 29.040182 93.767826 32.824633 97.552278 32.824633 102.194539 Z M 32.824633 102.194539 " transform="matrix(0.0774138, 0, 0, 0.0774138, -0.0449856, 0.0145145)"/>
<path fill-rule="nonzero" fill="rgb(24.705882%, 24.705882%, 24.705882%)" fill-opacity="1" stroke-width="0.264999" stroke-linecap="round" stroke-linejoin="round" stroke="rgb(0%, 0%, 0%)" stroke-opacity="1" stroke-dasharray="0.576893 0.714866" stroke-miterlimit="4" d="M 59.265336 103.102807 C 59.265336 107.795527 55.531343 111.579979 50.838623 111.579979 C 46.196363 111.579979 42.411911 107.795527 42.411911 103.102807 C 42.411911 98.460546 46.196363 94.676095 50.838623 94.676095 C 55.531343 94.676095 59.265336 98.460546 59.265336 103.102807 Z M 59.265336 103.102807 " transform="matrix(0.0774138, 0, 0, 0.0774138, -0.0449856, 0.0145145)"/>
<path fill-rule="nonzero" fill="rgb(100%, 100%, 100%)" fill-opacity="1" stroke-width="0.264999" stroke-linecap="round" stroke-linejoin="round" stroke="rgb(0%, 0%, 0%)" stroke-opacity="1" stroke-dasharray="0.576893 0.714866" stroke-miterlimit="4" d="M 85.605119 102.396376 C 85.605119 107.038637 81.820667 110.823088 77.178407 110.823088 C 72.485687 110.823088 68.701235 107.038637 68.701235 102.396376 C 68.701235 97.703656 72.485687 93.919204 77.178407 93.919204 C 81.820667 93.919204 85.605119 97.703656 85.605119 102.396376 Z M 85.605119 102.396376 " transform="matrix(0.0774138, 0, 0, 0.0774138, -0.0449856, 0.0145145)"/>
<path fill-rule="nonzero" fill="rgb(100%, 100%, 100%)" fill-opacity="1" stroke-width="0.264999" stroke-linecap="round" stroke-linejoin="round" stroke="rgb(0%, 0%, 0%)" stroke-opacity="1" stroke-dasharray="0.576893 0.714866" stroke-miterlimit="4" d="M 112.853171 102.446835 C 112.853171 107.089096 109.068719 110.873548 104.375999 110.873548 C 99.733738 110.873548 95.949287 107.089096 95.949287 102.446835 C 95.949287 97.804575 99.733738 94.020123 104.375999 94.020123 C 109.068719 94.020123 112.853171 97.804575 112.853171 102.446835 Z M 112.853171 102.446835 " transform="matrix(0.0774138, 0, 0, 0.0774138, -0.0449856, 0.0145145)"/>
<path fill-rule="nonzero" fill="rgb(100%, 100%, 100%)" fill-opacity="1" stroke-width="0.264999" stroke-linecap="round" stroke-linejoin="round" stroke="rgb(0%, 0%, 0%)" stroke-opacity="1" stroke-dasharray="0.576893 0.714866" stroke-miterlimit="4" d="M 139.798466 102.598213 C 139.798466 107.240474 136.014015 111.024926 131.371754 111.024926 C 126.679034 111.024926 122.894582 107.240474 122.894582 102.598213 C 122.894582 97.955953 126.679034 94.171501 131.371754 94.171501 C 136.014015 94.171501 139.798466 97.955953 139.798466 102.598213 Z M 139.798466 102.598213 " transform="matrix(0.0774138, 0, 0, 0.0774138, -0.0449856, 0.0145145)"/>
<path fill-rule="nonzero" fill="rgb(24.705882%, 24.705882%, 24.705882%)" fill-opacity="1" stroke-width="0.264999" stroke-linecap="round" stroke-linejoin="round" stroke="rgb(0%, 0%, 0%)" stroke-opacity="1" stroke-dasharray="0.576893 0.714866" stroke-miterlimit="4" d="M 166.89514 102.90097 C 166.89514 107.54323 163.110688 111.327682 158.468428 111.327682 C 153.826167 111.327682 150.041715 107.54323 150.041715 102.90097 C 150.041715 98.20825 153.826167 94.423798 158.468428 94.423798 C 163.110688 94.423798 166.89514 98.20825 166.89514 102.90097 Z M 166.89514 102.90097 " transform="matrix(0.0774138, 0, 0, 0.0774138, -0.0449856, 0.0145145)"/>
<path fill-rule="nonzero" fill="rgb(24.705882%, 24.705882%, 24.705882%)" fill-opacity="1" stroke-width="0.264999" stroke-linecap="round" stroke-linejoin="round" stroke="rgb(0%, 0%, 0%)" stroke-opacity="1" stroke-dasharray="0.576893 0.714866" stroke-miterlimit="4" d="M 193.840436 102.497295 C 193.840436 107.190015 190.055984 110.974466 185.413723 110.974466 C 180.721003 110.974466 176.936552 107.190015 176.936552 102.497295 C 176.936552 97.855034 180.721003 94.070582 185.413723 94.070582 C 190.055984 94.070582 193.840436 97.855034 193.840436 102.497295 Z M 193.840436 102.497295 " transform="matrix(0.0774138, 0, 0, 0.0774138, -0.0449856, 0.0145145)"/>
<path fill-rule="nonzero" fill="rgb(24.705882%, 24.705882%, 24.705882%)" fill-opacity="1" stroke-width="0.264999" stroke-linecap="round" stroke-linejoin="round" stroke="rgb(0%, 0%, 0%)" stroke-opacity="1" stroke-dasharray="0.576893 0.714866" stroke-miterlimit="4" d="M 32.067743 128.231566 C 32.067743 132.924286 28.283291 136.708738 23.590571 136.708738 C 18.948311 136.708738 15.163859 132.924286 15.163859 128.231566 C 15.163859 123.589305 18.948311 119.804854 23.590571 119.804854 C 28.283291 119.804854 32.067743 123.589305 32.067743 128.231566 Z M 32.067743 128.231566 " transform="matrix(0.0774138, 0, 0, 0.0774138, -0.0449856, 0.0145145)"/>
<path fill-rule="nonzero" fill="rgb(100%, 100%, 100%)" fill-opacity="1" stroke-width="0.264999" stroke-linecap="round" stroke-linejoin="round" stroke="rgb(0%, 0%, 0%)" stroke-opacity="1" stroke-dasharray="0.576893 0.714866" stroke-miterlimit="4" d="M 58.508445 129.139834 C 58.508445 133.832554 54.723994 137.617006 50.031274 137.617006 C 45.389013 137.617006 41.604561 133.832554 41.604561 129.139834 C 41.604561 124.497574 45.389013 120.713122 50.031274 120.713122 C 54.723994 120.713122 58.508445 124.497574 58.508445 129.139834 Z M 58.508445 129.139834 " transform="matrix(0.0774138, 0, 0, 0.0774138, -0.0449856, 0.0145145)"/>
<path fill-rule="nonzero" fill="rgb(24.705882%, 24.705882%, 24.705882%)" fill-opacity="1" stroke-width="0.264999" stroke-linecap="round" stroke-linejoin="round" stroke="rgb(0%, 0%, 0%)" stroke-opacity="1" stroke-dasharray="0.576893 0.714866" stroke-miterlimit="4" d="M 84.797769 128.433403 C 84.797769 133.075664 81.013318 136.860116 76.371057 136.860116 C 71.678337 136.860116 67.893885 133.075664 67.893885 128.433403 C 67.893885 123.740683 71.678337 119.956232 76.371057 119.956232 C 81.013318 119.956232 84.797769 123.740683 84.797769 128.433403 Z M 84.797769 128.433403 " transform="matrix(0.0774138, 0, 0, 0.0774138, -0.0449856, 0.0145145)"/>
<path fill-rule="nonzero" fill="rgb(24.705882%, 24.705882%, 24.705882%)" fill-opacity="1" stroke-width="0.264999" stroke-linecap="round" stroke-linejoin="round" stroke="rgb(0%, 0%, 0%)" stroke-opacity="1" stroke-dasharray="0.576893 0.714866" stroke-miterlimit="4" d="M 112.045821 128.483863 C 112.045821 133.126123 108.261369 136.910575 103.619109 136.910575 C 98.926389 136.910575 95.141937 133.126123 95.141937 128.483863 C 95.141937 123.791143 98.926389 120.05715 103.619109 120.05715 C 108.261369 120.05715 112.045821 123.791143 112.045821 128.483863 Z M 112.045821 128.483863 " transform="matrix(0.0774138, 0, 0, 0.0774138, -0.0449856, 0.0145145)"/>
<path fill-rule="nonzero" fill="rgb(24.705882%, 24.705882%, 24.705882%)" fill-opacity="1" stroke-width="0.264999" stroke-linecap="round" stroke-linejoin="round" stroke="rgb(0%, 0%, 0%)" stroke-opacity="1" stroke-dasharray="0.576893 0.714866" stroke-miterlimit="4" d="M 138.991117 128.635241 C 138.991117 133.277501 135.206665 137.061953 130.564404 137.061953 C 125.871684 137.061953 122.087233 133.277501 122.087233 128.635241 C 122.087233 123.99298 125.871684 120.208528 130.564404 120.208528 C 135.206665 120.208528 138.991117 123.99298 138.991117 128.635241 Z M 138.991117 128.635241 " transform="matrix(0.0774138, 0, 0, 0.0774138, -0.0449856, 0.0145145)"/>
<path fill-rule="nonzero" fill="rgb(100%, 100%, 100%)" fill-opacity="1" stroke-width="0.264999" stroke-linecap="round" stroke-linejoin="round" stroke="rgb(0%, 0%, 0%)" stroke-opacity="1" stroke-dasharray="0.576893 0.714866" stroke-miterlimit="4" d="M 166.13825 128.937997 C 166.13825 133.580258 162.353798 137.364709 157.661078 137.364709 C 153.018817 137.364709 149.234366 133.580258 149.234366 128.937997 C 149.234366 124.245277 153.018817 120.460825 157.661078 120.460825 C 162.353798 120.460825 166.13825 124.245277 166.13825 128.937997 Z M 166.13825 128.937997 " transform="matrix(0.0774138, 0, 0, 0.0774138, -0.0449856, 0.0145145)"/>
<path fill-rule="nonzero" fill="rgb(24.705882%, 24.705882%, 24.705882%)" fill-opacity="1" stroke-width="0.264999" stroke-linecap="round" stroke-linejoin="round" stroke="rgb(0%, 0%, 0%)" stroke-opacity="1" stroke-dasharray="0.576893 0.714866" stroke-miterlimit="4" d="M 193.033086 128.534322 C 193.033086 133.227042 189.248634 136.961034 184.606374 136.961034 C 179.964113 136.961034 176.179661 133.227042 176.179661 128.534322 C 176.179661 123.892061 179.964113 120.10761 184.606374 120.10761 C 189.248634 120.10761 193.033086 123.892061 193.033086 128.534322 Z M 193.033086 128.534322 " transform="matrix(0.0774138, 0, 0, 0.0774138, -0.0449856, 0.0145145)"/>
<path fill-rule="nonzero" fill="rgb(24.705882%, 24.705882%, 24.705882%)" fill-opacity="1" stroke-width="0.264999" stroke-linecap="round" stroke-linejoin="round" stroke="rgb(0%, 0%, 0%)" stroke-opacity="1" stroke-dasharray="0.576893 0.714866" stroke-miterlimit="4" d="M 32.118202 155.832833 C 32.118202 160.525553 28.333751 164.310005 23.641031 164.310005 C 18.99877 164.310005 15.214319 160.525553 15.214319 155.832833 C 15.214319 151.190572 18.99877 147.406121 23.641031 147.406121 C 28.333751 147.406121 32.118202 151.190572 32.118202 155.832833 Z M 32.118202 155.832833 " transform="matrix(0.0774138, 0, 0, 0.0774138, -0.0449856, 0.0145145)"/>
<path fill-rule="nonzero" fill="rgb(100%, 100%, 100%)" fill-opacity="1" stroke-width="0.264999" stroke-linecap="round" stroke-linejoin="round" stroke="rgb(0%, 0%, 0%)" stroke-opacity="1" stroke-dasharray="0.576893 0.714866" stroke-miterlimit="4" d="M 58.558905 156.741102 C 58.558905 161.433822 54.774453 165.218273 50.081733 165.218273 C 45.439472 165.218273 41.655021 161.433822 41.655021 156.741102 C 41.655021 152.098841 45.439472 148.314389 50.081733 148.314389 C 54.774453 148.314389 58.558905 152.098841 58.558905 156.741102 Z M 58.558905 156.741102 " transform="matrix(0.0774138, 0, 0, 0.0774138, -0.0449856, 0.0145145)"/>
<path fill-rule="nonzero" fill="rgb(24.705882%, 24.705882%, 24.705882%)" fill-opacity="1" stroke-width="0.264999" stroke-linecap="round" stroke-linejoin="round" stroke="rgb(0%, 0%, 0%)" stroke-opacity="1" stroke-dasharray="0.576893 0.714866" stroke-miterlimit="4" d="M 84.848229 156.034671 C 84.848229 160.676931 81.063777 164.461383 76.421516 164.461383 C 71.728796 164.461383 67.994804 160.676931 67.994804 156.034671 C 67.994804 151.341951 71.728796 147.557499 76.421516 147.557499 C 81.063777 147.557499 84.848229 151.341951 84.848229 156.034671 Z M 84.848229 156.034671 " transform="matrix(0.0774138, 0, 0, 0.0774138, -0.0449856, 0.0145145)"/>
<path fill-rule="nonzero" fill="rgb(24.705882%, 24.705882%, 24.705882%)" fill-opacity="1" stroke-width="0.264999" stroke-linecap="round" stroke-linejoin="round" stroke="rgb(0%, 0%, 0%)" stroke-opacity="1" stroke-dasharray="0.576893 0.714866" stroke-miterlimit="4" d="M 112.09628 156.08513 C 112.09628 160.727391 108.311829 164.511842 103.669568 164.511842 C 98.976848 164.511842 95.192396 160.727391 95.192396 156.08513 C 95.192396 151.39241 98.976848 147.607958 103.669568 147.607958 C 108.311829 147.607958 112.09628 151.39241 112.09628 156.08513 Z M 112.09628 156.08513 " transform="matrix(0.0774138, 0, 0, 0.0774138, -0.0449856, 0.0145145)"/>
<path fill-rule="nonzero" fill="rgb(24.705882%, 24.705882%, 24.705882%)" fill-opacity="1" stroke-width="0.264999" stroke-linecap="round" stroke-linejoin="round" stroke="rgb(0%, 0%, 0%)" stroke-opacity="1" stroke-dasharray="0.576893 0.714866" stroke-miterlimit="4" d="M 139.041576 156.236508 C 139.041576 160.878769 135.257124 164.66322 130.614864 164.66322 C 125.922144 164.66322 122.188151 160.878769 122.188151 156.236508 C 122.188151 151.543788 125.922144 147.809796 130.614864 147.809796 C 135.257124 147.809796 139.041576 151.543788 139.041576 156.236508 Z M 139.041576 156.236508 " transform="matrix(0.0774138, 0, 0, 0.0774138, -0.0449856, 0.0145145)"/>
<path fill-rule="nonzero" fill="rgb(100%, 100%, 100%)" fill-opacity="1" stroke-width="0.264999" stroke-linecap="round" stroke-linejoin="round" stroke="rgb(0%, 0%, 0%)" stroke-opacity="1" stroke-dasharray="0.576893 0.714866" stroke-miterlimit="4" d="M 166.188709 156.539264 C 166.188709 161.181525 162.404257 164.965976 157.711537 164.965976 C 153.069277 164.965976 149.284825 161.181525 149.284825 156.539264 C 149.284825 151.846544 153.069277 148.062092 157.711537 148.062092 C 162.404257 148.062092 166.188709 151.846544 166.188709 156.539264 Z M 166.188709 156.539264 " transform="matrix(0.0774138, 0, 0, 0.0774138, -0.0449856, 0.0145145)"/>
<path fill-rule="nonzero" fill="rgb(24.705882%, 24.705882%, 24.705882%)" fill-opacity="1" stroke-width="0.264999" stroke-linecap="round" stroke-linejoin="round" stroke="rgb(0%, 0%, 0%)" stroke-opacity="1" stroke-dasharray="0.576893 0.714866" stroke-miterlimit="4" d="M 193.134005 156.135589 C 193.134005 160.77785 189.349553 164.562302 184.656833 164.562302 C 180.014572 164.562302 176.230121 160.77785 176.230121 156.135589 C 176.230121 151.493329 180.014572 147.708877 184.656833 147.708877 C 189.349553 147.708877 193.134005 151.493329 193.134005 156.135589 Z M 193.134005 156.135589 " transform="matrix(0.0774138, 0, 0, 0.0774138, -0.0449856, 0.0145145)"/>
<path fill-rule="nonzero" fill="rgb(24.705882%, 24.705882%, 24.705882%)" fill-opacity="1" stroke-width="0.264999" stroke-linecap="round" stroke-linejoin="round" stroke="rgb(0%, 0%, 0%)" stroke-opacity="1" stroke-dasharray="0.576893 0.714866" stroke-miterlimit="4" d="M 32.673255 183.585478 C 32.673255 188.227739 28.888804 192.012191 24.196084 192.012191 C 19.553823 192.012191 15.769371 188.227739 15.769371 183.585478 C 15.769371 178.892758 19.553823 175.108307 24.196084 175.108307 C 28.888804 175.108307 32.673255 178.892758 32.673255 183.585478 Z M 32.673255 183.585478 " transform="matrix(0.0774138, 0, 0, 0.0774138, -0.0449856, 0.0145145)"/>
<path fill-rule="nonzero" fill="rgb(24.705882%, 24.705882%, 24.705882%)" fill-opacity="1" stroke-width="0.264999" stroke-linecap="round" stroke-linejoin="round" stroke="rgb(0%, 0%, 0%)" stroke-opacity="1" stroke-dasharray="0.576893 0.714866" stroke-miterlimit="4" d="M 59.113957 184.443287 C 59.113957 189.136007 55.329506 192.920459 50.636786 192.920459 C 45.994525 192.920459 42.210074 189.136007 42.210074 184.443287 C 42.210074 179.801027 45.994525 176.016575 50.636786 176.016575 C 55.329506 176.016575 59.113957 179.801027 59.113957 184.443287 Z M 59.113957 184.443287 " transform="matrix(0.0774138, 0, 0, 0.0774138, -0.0449856, 0.0145145)"/>
<path fill-rule="nonzero" fill="rgb(100%, 100%, 100%)" fill-opacity="1" stroke-width="0.264999" stroke-linecap="round" stroke-linejoin="round" stroke="rgb(0%, 0%, 0%)" stroke-opacity="1" stroke-dasharray="0.576893 0.714866" stroke-miterlimit="4" d="M 85.403281 183.736856 C 85.403281 188.379117 81.61883 192.163569 76.976569 192.163569 C 72.283849 192.163569 68.499398 188.379117 68.499398 183.736856 C 68.499398 179.044136 72.283849 175.259685 76.976569 175.259685 C 81.61883 175.259685 85.403281 179.044136 85.403281 183.736856 Z M 85.403281 183.736856 " transform="matrix(0.0774138, 0, 0, 0.0774138, -0.0449856, 0.0145145)"/>
<path fill-rule="nonzero" fill="rgb(100%, 100%, 100%)" fill-opacity="1" stroke-width="0.264999" stroke-linecap="round" stroke-linejoin="round" stroke="rgb(0%, 0%, 0%)" stroke-opacity="1" stroke-dasharray="0.576893 0.714866" stroke-miterlimit="4" d="M 112.651333 183.787316 C 112.651333 188.429577 108.866882 192.214028 104.224621 192.214028 C 99.531901 192.214028 95.747449 188.429577 95.747449 183.787316 C 95.747449 179.145055 99.531901 175.360604 104.224621 175.360604 C 108.866882 175.360604 112.651333 179.145055 112.651333 183.787316 Z M 112.651333 183.787316 " transform="matrix(0.0774138, 0, 0, 0.0774138, -0.0449856, 0.0145145)"/>
<path fill-rule="nonzero" fill="rgb(100%, 100%, 100%)" fill-opacity="1" stroke-width="0.264999" stroke-linecap="round" stroke-linejoin="round" stroke="rgb(0%, 0%, 0%)" stroke-opacity="1" stroke-dasharray="0.576893 0.714866" stroke-miterlimit="4" d="M 139.596629 183.938694 C 139.596629 188.580955 135.812177 192.365406 131.169917 192.365406 C 126.477197 192.365406 122.692745 188.580955 122.692745 183.938694 C 122.692745 179.296433 126.477197 175.511982 131.169917 175.511982 C 135.812177 175.511982 139.596629 179.296433 139.596629 183.938694 Z M 139.596629 183.938694 " transform="matrix(0.0774138, 0, 0, 0.0774138, -0.0449856, 0.0145145)"/>
<path fill-rule="nonzero" fill="rgb(24.705882%, 24.705882%, 24.705882%)" fill-opacity="1" stroke-width="0.264999" stroke-linecap="round" stroke-linejoin="round" stroke="rgb(0%, 0%, 0%)" stroke-opacity="1" stroke-dasharray="0.576893 0.714866" stroke-miterlimit="4" d="M 166.743762 184.24145 C 166.743762 188.883711 162.95931 192.668162 158.26659 192.668162 C 153.62433 192.668162 149.839878 188.883711 149.839878 184.24145 C 149.839878 179.54873 153.62433 175.764278 158.26659 175.764278 C 162.95931 175.764278 166.743762 179.54873 166.743762 184.24145 Z M 166.743762 184.24145 " transform="matrix(0.0774138, 0, 0, 0.0774138, -0.0449856, 0.0145145)"/>
<path fill-rule="nonzero" fill="rgb(24.705882%, 24.705882%, 24.705882%)" fill-opacity="1" stroke-width="0.264999" stroke-linecap="round" stroke-linejoin="round" stroke="rgb(0%, 0%, 0%)" stroke-opacity="1" stroke-dasharray="0.576893 0.714866" stroke-miterlimit="4" d="M 193.638598 183.837775 C 193.638598 188.530495 189.854147 192.314947 185.211886 192.314947 C 180.569625 192.314947 176.785174 188.530495 176.785174 183.837775 C 176.785174 179.195515 180.569625 175.411063 185.211886 175.411063 C 189.854147 175.411063 193.638598 179.195515 193.638598 183.837775 Z M 193.638598 183.837775 " transform="matrix(0.0774138, 0, 0, 0.0774138, -0.0449856, 0.0145145)"/>
</svg>
