<?xml version="1.0" encoding="UTF-8"?>
<svg xmlns="http://www.w3.org/2000/svg" xmlns:xlink="http://www.w3.org/1999/xlink" width="10.2" height="17" viewBox="0 0 10.2 17">
<path fill-rule="nonzero" fill="rgb(0%, 0%, 0%)" fill-opacity="1" d="M 1.785156 0 L 8.414062 0 C 9.398438 0 10.199219 0.800781 10.199219 1.785156 L 10.199219 15.214844 C 10.199219 16.199219 9.398438 17 8.414062 17 L 1.785156 17 C 0.800781 17 0 16.199219 0 15.214844 L 0 1.785156 C 0 0.800781 0.800781 0 1.785156 0 Z M 1.785156 0 "/>
<path fill-rule="nonzero" fill="rgb(60%, 24.313725%, 100%)" fill-opacity="1" d="M 7.265625 5.140625 C 7.265625 6.332031 6.296875 7.296875 5.101562 7.296875 C 3.90625 7.296875 2.933594 6.332031 2.933594 5.140625 C 2.933594 3.945312 3.90625 2.976562 5.101562 2.976562 C 6.296875 2.976562 7.265625 3.945312 7.265625 5.140625 Z M 7.265625 5.140625 "/>
<path fill-rule="nonzero" fill="rgb(92.941176%, 81.568627%, 0%)" fill-opacity="1" d="M 7.265625 11.859375 C 7.265625 13.054688 6.296875 14.023438 5.101562 14.023438 C 3.90625 14.023438 2.933594 13.054688 2.933594 11.859375 C 2.933594 10.667969 3.90625 9.703125 5.101562 9.703125 C 6.296875 9.703125 7.265625 10.667969 7.265625 11.859375 Z M 7.265625 11.859375 "/>
</svg>
