<?xml version="1.0" encoding="UTF-8"?>
<svg xmlns="http://www.w3.org/2000/svg" xmlns:xlink="http://www.w3.org/1999/xlink" width="12.5" height="20" viewBox="0 0 12.5 20">
<path fill-rule="nonzero" fill="rgb(0%, 0%, 0%)" fill-opacity="1" d="M 6.25 0 C 9.703125 0 12.5 2.796875 12.5 6.25 L 12.5 13.75 C 12.5 17.203125 9.703125 20 6.25 20 C 2.796875 20 0 17.203125 0 13.75 L 0 6.25 C 0 2.796875 2.796875 0 6.25 0 Z M 6.25 0 "/>
<path fill="none" stroke-width="3.9391" stroke-linecap="round" stroke-linejoin="miter" stroke="rgb(100%, 100%, 100%)" stroke-opacity="1" stroke-miterlimit="4" d="M 369.170585 41.081817 C 382.089355 41.081817 392.570622 51.544334 392.570622 64.463104 L 392.570622 98.663159 C 392.570622 111.581929 382.089355 122.044446 369.170585 122.044446 C 356.251814 122.044446 345.789297 111.581929 345.789297 98.663159 L 345.789297 64.463104 C 345.789297 51.544334 356.251814 41.081817 369.170585 41.081817 Z M 369.170585 41.081817 " transform="matrix(0.208333, 0, 0, 0.208333, -70.660416, -6.992292)"/>
<path fill-rule="nonzero" fill="rgb(95.686275%, 1.568627%, 0%)" fill-opacity="1" d="M 8.238281 6.828125 C 8.238281 7.925781 7.347656 8.8125 6.25 8.8125 C 5.152344 8.8125 4.261719 7.925781 4.261719 6.828125 C 4.261719 5.734375 5.152344 4.84375 6.25 4.84375 C 7.347656 4.84375 8.238281 5.734375 8.238281 6.828125 Z M 8.238281 6.828125 "/>
<path fill-rule="nonzero" fill="rgb(92.941176%, 81.568627%, 0%)" fill-opacity="1" d="M 8.238281 13.007812 C 8.238281 14.105469 7.347656 14.992188 6.25 14.992188 C 5.152344 14.992188 4.261719 14.105469 4.261719 13.007812 C 4.261719 11.914062 5.152344 11.023438 6.25 11.023438 C 7.347656 11.023438 8.238281 11.914062 8.238281 13.007812 Z M 8.238281 13.007812 "/>
</svg>
