<?xml version="1.0" encoding="UTF-8"?>
<svg xmlns="http://www.w3.org/2000/svg" xmlns:xlink="http://www.w3.org/1999/xlink" width="12.5" height="20" viewBox="0 0 12.5 20">
<path fill-rule="nonzero" fill="rgb(0%, 0%, 0%)" fill-opacity="1" d="M 6.25 0 C 9.703125 0 12.5 2.796875 12.5 6.25 L 12.5 13.75 C 12.5 17.203125 9.703125 20 6.25 20 C 2.796875 20 0 17.203125 0 13.75 L 0 6.25 C 0 2.796875 2.796875 0 6.25 0 Z M 6.25 0 "/>
<path fill="none" stroke-width="3.9391" stroke-linecap="round" stroke-linejoin="miter" stroke="rgb(100%, 100%, 100%)" stroke-opacity="1" stroke-miterlimit="4" d="M 369.170013 41.08175 C 382.088763 41.08175 392.570013 51.54425 392.570013 64.463 L 392.570013 98.663 C 392.570013 111.58175 382.088763 122.04425 369.170013 122.04425 C 356.251263 122.04425 345.788763 111.58175 345.788763 98.663 L 345.788763 64.463 C 345.788763 51.54425 356.251263 41.08175 369.170013 41.08175 Z M 369.170013 41.08175 " transform="matrix(0.208333, 0, 0, 0.208333, -70.660419, -6.992292)"/>
<path fill-rule="nonzero" fill="rgb(100%, 100%, 100%)" fill-opacity="1" d="M 5.269531 11.777344 C 5.269531 11.421875 5.300781 11.121094 5.367188 10.867188 C 5.441406 10.605469 5.5625 10.359375 5.730469 10.125 C 5.910156 9.894531 6.148438 9.648438 6.445312 9.398438 C 6.808594 9.089844 7.089844 8.832031 7.285156 8.628906 C 7.492188 8.421875 7.636719 8.222656 7.71875 8.027344 C 7.804688 7.828125 7.847656 7.589844 7.847656 7.3125 C 7.847656 6.863281 7.703125 6.519531 7.414062 6.273438 C 7.121094 6.03125 6.703125 5.910156 6.152344 5.910156 C 5.695312 5.910156 5.289062 5.972656 4.933594 6.09375 C 4.578125 6.207031 4.238281 6.339844 3.910156 6.5 L 3.476562 5.519531 C 3.851562 5.324219 4.261719 5.160156 4.710938 5.027344 C 5.167969 4.898438 5.675781 4.832031 6.234375 4.832031 C 7.121094 4.832031 7.808594 5.050781 8.292969 5.492188 C 8.78125 5.929688 9.023438 6.527344 9.023438 7.285156 C 9.023438 7.703125 8.953125 8.0625 8.8125 8.363281 C 8.683594 8.652344 8.492188 8.921875 8.238281 9.171875 C 7.996094 9.417969 7.707031 9.679688 7.371094 9.957031 C 7.0625 10.21875 6.824219 10.449219 6.65625 10.644531 C 6.496094 10.839844 6.390625 11.035156 6.335938 11.230469 C 6.277344 11.417969 6.25 11.648438 6.25 11.917969 L 6.25 12.15625 L 5.269531 12.15625 Z M 4.949219 14.214844 C 4.949219 13.871094 5.027344 13.625 5.1875 13.488281 C 5.355469 13.347656 5.5625 13.277344 5.816406 13.277344 C 6.050781 13.277344 6.25 13.347656 6.417969 13.488281 C 6.585938 13.625 6.671875 13.871094 6.671875 14.214844 C 6.671875 14.550781 6.585938 14.792969 6.417969 14.941406 C 6.25 15.09375 6.050781 15.167969 5.816406 15.167969 C 5.5625 15.167969 5.355469 15.09375 5.1875 14.941406 C 5.027344 14.792969 4.949219 14.550781 4.949219 14.214844 Z M 4.949219 14.214844 "/>
</svg>
