<?xml version="1.0" encoding="UTF-8"?>
<svg xmlns="http://www.w3.org/2000/svg" xmlns:xlink="http://www.w3.org/1999/xlink" width="9.375" height="20" viewBox="0 0 9.375 20">
<path fill-rule="nonzero" fill="rgb(0%, 0%, 0%)" fill-opacity="1" d="M 4.6875 0 C 7.277344 0 9.375 2.09375 9.375 4.675781 L 9.375 15.324219 C 9.375 17.90625 7.277344 20 4.6875 20 C 2.097656 20 0 17.90625 0 15.324219 L 0 4.675781 C 0 2.09375 2.097656 0 4.6875 0 Z M 4.6875 0 "/>
<path fill="none" stroke-width="3.9391" stroke-linecap="round" stroke-linejoin="miter" stroke="rgb(100%, 100%, 100%)" stroke-opacity="1" stroke-miterlimit="4" d="M 369.17002 40.513 C 382.09502 40.513 392.57002 50.963 392.57002 63.838 L 392.57002 131.288 C 392.57002 144.163 382.09502 154.613 369.17002 154.613 C 356.24502 154.613 345.77002 144.163 345.77002 131.288 L 345.77002 63.838 C 345.77002 50.963 356.24502 40.513 369.17002 40.513 Z M 369.17002 40.513 " transform="matrix(0.15625, 0, 0, 0.15625, -52.995316, -5.244219)"/>
<path fill-rule="nonzero" fill="rgb(10.196078%, 10.196078%, 10.196078%)" fill-opacity="1" d="M 6.179688 5.121094 C 6.179688 5.945312 5.511719 6.609375 4.6875 6.609375 C 3.863281 6.609375 3.195312 5.945312 3.195312 5.121094 C 3.195312 4.300781 3.863281 3.632812 4.6875 3.632812 C 5.511719 3.632812 6.179688 4.300781 6.179688 5.121094 Z M 6.179688 5.121094 "/>
<path fill-rule="nonzero" fill="rgb(97.647059%, 97.647059%, 97.647059%)" fill-opacity="1" d="M 6.179688 14.390625 C 6.179688 15.214844 5.511719 15.878906 4.6875 15.878906 C 3.863281 15.878906 3.195312 15.214844 3.195312 14.390625 C 3.195312 13.570312 3.863281 12.902344 4.6875 12.902344 C 5.511719 12.902344 6.179688 13.570312 6.179688 14.390625 Z M 6.179688 14.390625 "/>
<path fill-rule="nonzero" fill="rgb(95.686275%, 1.568627%, 0%)" fill-opacity="1" d="M 6.179688 9.757812 C 6.179688 10.578125 5.511719 11.246094 4.6875 11.246094 C 3.863281 11.246094 3.195312 10.578125 3.195312 9.757812 C 3.195312 8.933594 3.863281 8.269531 4.6875 8.269531 C 5.511719 8.269531 6.179688 8.933594 6.179688 9.757812 Z M 6.179688 9.757812 "/>
</svg>
