<?xml version="1.0" encoding="UTF-8"?>
<svg xmlns="http://www.w3.org/2000/svg" xmlns:xlink="http://www.w3.org/1999/xlink" width="9.132632" height="15" viewBox="0 0 9.132632 15">
<path fill-rule="evenodd" fill="rgb(0%, 0%, 0%)" fill-opacity="1" stroke-width="2" stroke-linecap="butt" stroke-linejoin="miter" stroke="rgb(84.313726%, 84.313726%, 84.313726%)" stroke-opacity="1" stroke-miterlimit="4" d="M 5.064757 107.661463 L 61.088331 107.661463 L 65.162773 103.587022 L 65.162773 5.064757 L 61.088331 0.990316 L 5.064757 0.990316 L 0.990316 5.064757 L 0.990316 103.587022 Z M 5.064757 107.661463 " transform="matrix(0.138056, 0, 0, 0.138056, 0, 0)"/>
<path fill-rule="evenodd" fill="rgb(84.313726%, 84.313726%, 84.313726%)" fill-opacity="1" d="M 5.484375 9.976562 L 8.390625 9.976562 C 8.480469 9.976562 8.550781 10.046875 8.550781 10.136719 L 8.550781 13.613281 C 8.550781 13.699219 8.480469 13.773438 8.390625 13.773438 L 5.484375 13.773438 C 5.394531 13.773438 5.324219 13.699219 5.324219 13.613281 L 5.324219 10.136719 C 5.324219 10.046875 5.394531 9.976562 5.484375 9.976562 Z M 5.484375 9.976562 "/>
<path fill-rule="evenodd" fill="rgb(5.098039%, 59.215689%, 38.431373%)" fill-opacity="1" d="M 8.007812 2.734375 C 8.007812 3.496094 7.390625 4.113281 6.628906 4.113281 C 5.867188 4.113281 5.25 3.496094 5.25 2.734375 C 5.25 1.972656 5.867188 1.351562 6.628906 1.351562 C 7.390625 1.351562 8.007812 1.972656 8.007812 2.734375 Z M 8.007812 2.734375 "/>
<path fill-rule="evenodd" fill="rgb(5.098039%, 59.215689%, 38.431373%)" fill-opacity="1" d="M 4.136719 8.453125 C 4.140625 9.214844 3.519531 9.832031 2.757812 9.832031 C 1.996094 9.832031 1.378906 9.214844 1.378906 8.453125 C 1.378906 7.691406 1.996094 7.074219 2.757812 7.074219 C 3.519531 7.074219 4.140625 7.691406 4.136719 8.453125 Z M 4.136719 8.453125 "/>
</svg>
