<?xml version="1.0" encoding="UTF-8"?>
<svg xmlns="http://www.w3.org/2000/svg" xmlns:xlink="http://www.w3.org/1999/xlink" width="12.187497" height="15" viewBox="0 0 12.187497 15">
<path fill-rule="evenodd" fill="rgb(0%, 0%, 0%)" fill-opacity="1" stroke-width="0.941832" stroke-linecap="round" stroke-linejoin="miter" stroke="rgb(84.313726%, 84.313726%, 84.313726%)" stroke-opacity="1" stroke-miterlimit="4" d="M -375.609975 309.826932 C -376.334975 308.735265 -386.193312 294.251927 -387.393312 292.451926 C -388.584979 290.643592 -390.601647 289.468591 -392.876647 289.468591 C -396.543315 289.468591 -399.518316 292.535259 -399.518316 296.310261 C -399.518316 300.093595 -399.518316 309.893599 -399.518316 313.676933 C -399.518316 317.451935 -396.543315 320.518603 -392.876647 320.518603 C -389.209979 320.518603 -384.776645 320.518603 -381.109977 320.518603 C -377.443309 320.518603 -374.468308 317.451935 -374.468308 313.676933 C -374.468308 312.251933 -374.884974 310.926932 -375.609975 309.826932 Z M -375.609975 309.826932 " transform="matrix(0.46875, 0, 0, 0.46875, 187.4968, -135.465697)"/>
<path fill-rule="evenodd" fill="rgb(5.098039%, 59.215689%, 38.431373%)" fill-opacity="1" stroke-width="0.040336" stroke-linecap="butt" stroke-linejoin="miter" stroke="rgb(0%, 0%, 0%)" stroke-opacity="1" stroke-miterlimit="4" d="M -378.584976 314.426934 C -378.584976 316.185268 -380.009976 317.610268 -381.76831 317.610268 C -383.518311 317.610268 -384.943311 316.185268 -384.943311 314.426934 C -384.943311 312.6686 -383.518311 311.243599 -381.76831 311.243599 C -380.009976 311.243599 -378.584976 312.6686 -378.584976 314.426934 Z M -378.584976 314.426934 " transform="matrix(0.46875, 0, 0, 0.46875, 187.4968, -135.465697)"/>
</svg>
