<?xml version="1.0" encoding="UTF-8"?>
<svg xmlns="http://www.w3.org/2000/svg" xmlns:xlink="http://www.w3.org/1999/xlink" width="16" height="15.627906" viewBox="0 0 16 15.627906">
<path fill="none" stroke-width="10" stroke-linecap="butt" stroke-linejoin="round" stroke="rgb(0%, 0%, 0%)" stroke-opacity="1" stroke-miterlimit="4" d="M 384.801891 416.312116 L 363.594634 437.519373 L 363.594634 560.040476 L 384.801891 581.247733 L 511.520719 581.247733 L 532.727976 560.040476 L 532.727976 437.519373 L 511.520719 416.312116 Z M 384.801891 416.312116 " transform="matrix(0.0893341, 0, 0, 0.0893341, -32.036087, -36.745556)"/>
<path fill-rule="nonzero" fill="rgb(13.333333%, 13.333333%, 13.333333%)" fill-opacity="1" stroke-width="8" stroke-linecap="butt" stroke-linejoin="round" stroke="rgb(85.490196%, 85.490196%, 85.490196%)" stroke-opacity="1" stroke-miterlimit="4" d="M 384.801891 416.312116 L 363.594634 437.519373 L 363.594634 560.040476 L 384.801891 581.247733 L 511.520719 581.247733 L 532.727976 560.040476 L 532.727976 437.519373 L 511.520719 416.312116 Z M 384.801891 416.312116 " transform="matrix(0.0893341, 0, 0, 0.0893341, -32.036087, -36.745556)"/>
<path fill-rule="evenodd" fill="rgb(100%, 100%, 100%)" fill-opacity="1" stroke-width="0.193277" stroke-linecap="round" stroke-linejoin="miter" stroke="rgb(0%, 0%, 0%)" stroke-opacity="1" stroke-miterlimit="4" d="M 374.609304 236.26778 C 374.609304 241.131916 370.685747 245.055472 365.821612 245.055472 C 360.957476 245.055472 357.007046 241.131916 357.007046 236.26778 C 357.007046 231.403645 360.957476 227.480089 365.821612 227.480089 C 370.685747 227.480089 374.609304 231.403645 374.609304 236.26778 Z M 374.609304 236.26778 " transform="matrix(0.145356, 0, 0, 0.145356, -49.522022, -30.803877)"/>
<path fill-rule="evenodd" fill="rgb(100%, 100%, 100%)" fill-opacity="1" stroke-width="0.193277" stroke-linecap="round" stroke-linejoin="miter" stroke="rgb(0%, 0%, 0%)" stroke-opacity="1" stroke-miterlimit="4" d="M 374.616337 236.267334 C 374.616337 241.13147 370.665907 245.0819 365.828645 245.0819 C 360.96451 245.0819 357.014079 241.13147 357.014079 236.267334 C 357.014079 231.403199 360.96451 227.479642 365.828645 227.479642 C 370.665907 227.479642 374.616337 231.403199 374.616337 236.267334 Z M 374.616337 236.267334 " transform="matrix(0.145356, 0, 0, 0.145356, -40.745701, -22.338968)"/>
<path fill-rule="evenodd" fill="rgb(100%, 100%, 100%)" fill-opacity="1" stroke-width="0.193277" stroke-linecap="round" stroke-linejoin="miter" stroke="rgb(0%, 0%, 0%)" stroke-opacity="1" stroke-miterlimit="4" d="M 374.609304 236.26034 C 374.609304 241.124476 370.685747 245.074906 365.821612 245.074906 C 360.957476 245.074906 357.007046 241.124476 357.007046 236.26034 C 357.007046 231.396205 360.957476 227.472648 365.821612 227.472648 C 370.685747 227.472648 374.609304 231.396205 374.609304 236.26034 Z M 374.609304 236.26034 " transform="matrix(0.145356, 0, 0, 0.145356, -49.522022, -22.279358)"/>
<path fill-rule="evenodd" fill="rgb(100%, 100%, 100%)" fill-opacity="1" stroke-width="0.193277" stroke-linecap="round" stroke-linejoin="miter" stroke="rgb(0%, 0%, 0%)" stroke-opacity="1" stroke-miterlimit="4" d="M 374.616337 236.274788 C 374.616337 241.138923 370.665907 245.06248 365.828645 245.06248 C 360.96451 245.06248 357.014079 241.138923 357.014079 236.274788 C 357.014079 231.410652 360.96451 227.460222 365.828645 227.460222 C 370.665907 227.460222 374.616337 231.410652 374.616337 236.274788 Z M 374.616337 236.274788 " transform="matrix(0.145356, 0, 0, 0.145356, -40.745701, -30.863489)"/>
</svg>
