<?xml version="1.0" encoding="UTF-8"?>
<svg xmlns="http://www.w3.org/2000/svg" xmlns:xlink="http://www.w3.org/1999/xlink" width="7" height="12" viewBox="0 0 7 12">
<path fill-rule="evenodd" fill="rgb(0%, 0%, 0%)" fill-opacity="1" d="M 0.324219 0 L 6.675781 0 C 6.855469 0 7 0.148438 7 0.328125 L 7 11.671875 C 7 11.851562 6.855469 12 6.675781 12 L 0.324219 12 C 0.144531 12 0 11.851562 0 11.671875 L 0 0.328125 C 0 0.148438 0.144531 0 0.324219 0 Z M 0.324219 0 "/>
<path fill-rule="evenodd" fill="rgb(87.450981%, 5.882353%, 5.882353%)" fill-opacity="1" d="M 4.742188 3.097656 C 4.742188 3.789062 4.179688 4.351562 3.484375 4.351562 C 2.792969 4.351562 2.230469 3.789062 2.230469 3.097656 C 2.230469 2.402344 2.792969 1.839844 3.484375 1.839844 C 4.179688 1.839844 4.742188 2.402344 4.742188 3.097656 Z M 4.742188 3.097656 "/>
</svg>
