<?xml version="1.0" encoding="UTF-8"?>
<svg xmlns="http://www.w3.org/2000/svg" xmlns:xlink="http://www.w3.org/1999/xlink" width="9.132632" height="15" viewBox="0 0 9.132632 15">
<path fill-rule="evenodd" fill="rgb(0%, 0%, 0%)" fill-opacity="1" stroke-width="2" stroke-linecap="butt" stroke-linejoin="miter" stroke="rgb(84.313726%, 84.313726%, 84.313726%)" stroke-opacity="1" stroke-miterlimit="4" d="M 5.064757 107.661463 L 61.088331 107.661463 L 65.162773 103.587022 L 65.162773 5.064757 L 61.088331 0.990316 L 5.064757 0.990316 L 0.990316 5.064757 L 0.990316 103.587022 Z M 5.064757 107.661463 " transform="matrix(0.138056, 0, 0, 0.138056, 0, 0)"/>
<path fill-rule="evenodd" fill="rgb(84.313726%, 84.313726%, 84.313726%)" fill-opacity="1" d="M 5.484375 9.976562 L 8.390625 9.976562 C 8.480469 9.976562 8.550781 10.046875 8.550781 10.136719 L 8.550781 13.613281 C 8.550781 13.699219 8.480469 13.773438 8.390625 13.773438 L 5.484375 13.773438 C 5.394531 13.773438 5.324219 13.699219 5.324219 13.613281 L 5.324219 10.136719 C 5.324219 10.046875 5.394531 9.976562 5.484375 9.976562 Z M 5.484375 9.976562 "/>
<path fill-rule="evenodd" fill="rgb(83.529413%, 7.058824%, 7.058824%)" fill-opacity="1" stroke-width="0.151943" stroke-linecap="butt" stroke-linejoin="miter" stroke="rgb(0%, 0%, 0%)" stroke-opacity="1" stroke-miterlimit="4" d="M 32.001344 55.627447 C 32.001344 62.248415 26.625345 67.624415 20.004377 67.624415 C 13.383409 67.624415 8.00741 62.248415 8.00741 55.627447 C 8.00741 49.00648 13.383409 43.63048 20.004377 43.63048 C 26.625345 43.63048 32.001344 49.00648 32.001344 55.627447 Z M 32.001344 55.627447 " transform="matrix(0.138056, 0, 0, 0.138056, 0, 0)"/>
</svg>
