<?xml version="1.0" encoding="UTF-8"?>
<svg xmlns="http://www.w3.org/2000/svg" xmlns:xlink="http://www.w3.org/1999/xlink" width="6.93454" height="16" viewBox="0 0 6.93454 16">
<path fill-rule="nonzero" fill="rgb(0%, 0%, 0%)" fill-opacity="1" stroke-width="3.933" stroke-linecap="butt" stroke-linejoin="round" stroke="rgb(84.313726%, 84.313726%, 84.313726%)" stroke-opacity="1" stroke-miterlimit="4" d="M 55.380511 103.652672 C 55.380511 118.418654 43.425558 130.373607 28.691887 130.373607 C 13.925904 130.373607 1.970952 118.418654 1.970952 103.652672 L 1.970952 28.691887 C 1.970952 13.925904 13.925904 1.970952 28.691887 1.970952 C 43.425558 1.970952 55.380511 13.925904 55.380511 28.691887 Z M 55.380511 103.652672 " transform="matrix(0.120897, 0, 0, 0.120897, 0, 0)"/>
<path fill-rule="evenodd" fill="rgb(5.098039%, 59.215689%, 38.431373%)" fill-opacity="1" d="M 4.667969 3.757812 C 4.667969 4.421875 4.125 4.964844 3.460938 4.964844 C 2.792969 4.964844 2.25 4.421875 2.25 3.757812 C 2.25 3.089844 2.792969 2.546875 3.460938 2.546875 C 4.125 2.546875 4.667969 3.089844 4.667969 3.757812 Z M 4.667969 3.757812 "/>
</svg>
