<?xml version="1.0" encoding="UTF-8"?>
<svg xmlns="http://www.w3.org/2000/svg" xmlns:xlink="http://www.w3.org/1999/xlink" width="9.132631" height="15" viewBox="0 0 9.132631 15">
<defs>
<filter id="filter-remove-color" x="0%" y="0%" width="100%" height="100%">
<feColorMatrix color-interpolation-filters="sRGB" values="0 0 0 0 1 0 0 0 0 1 0 0 0 0 1 0 0 0 1 0" />
</filter>
<mask id="mask-0">
<g filter="url(#filter-remove-color)">
<rect x="-0.913263" y="-1.5" width="10.959157" height="18" fill="rgb(0%, 0%, 0%)" fill-opacity="0.211268"/>
</g>
</mask>
<clipPath id="clip-0">
<rect x="0" y="0" width="10" height="15"/>
</clipPath>
<g id="source-5" clip-path="url(#clip-0)">
<path fill-rule="evenodd" fill="rgb(14.117648%, 63.921571%, 41.176471%)" fill-opacity="1" d="M 2.734375 2.722656 L 2.433594 1.398438 C 2.238281 1.46875 2.042969 1.523438 1.8125 1.75 Z M 2.734375 2.722656 "/>
</g>
</defs>
<path fill-rule="evenodd" fill="rgb(0%, 0%, 0%)" fill-opacity="1" stroke-width="2" stroke-linecap="butt" stroke-linejoin="miter" stroke="rgb(84.313726%, 84.313726%, 84.313726%)" stroke-opacity="1" stroke-miterlimit="4" d="M 5.064758 107.661471 L 61.088335 107.661471 L 65.162777 103.587029 L 65.162777 5.064758 L 61.088335 0.990316 L 5.064758 0.990316 L 0.990316 5.064758 L 0.990316 103.587029 Z M 5.064758 107.661471 " transform="matrix(0.138056, 0, 0, 0.138056, 0, 0)"/>
<path fill-rule="evenodd" fill="rgb(84.313726%, 84.313726%, 84.313726%)" fill-opacity="1" d="M 5.484375 9.976562 L 8.390625 9.976562 C 8.480469 9.976562 8.550781 10.046875 8.550781 10.136719 L 8.550781 13.613281 C 8.550781 13.699219 8.480469 13.773438 8.390625 13.773438 L 5.484375 13.773438 C 5.394531 13.773438 5.324219 13.699219 5.324219 13.613281 L 5.324219 10.136719 C 5.324219 10.046875 5.394531 9.976562 5.484375 9.976562 Z M 5.484375 9.976562 "/>
<path fill-rule="evenodd" fill="rgb(5.098039%, 59.215689%, 38.431373%)" fill-opacity="1" d="M 4.140625 2.734375 C 4.140625 3.496094 3.523438 4.113281 2.761719 4.113281 C 2 4.113281 1.382812 3.496094 1.382812 2.734375 C 1.382812 1.972656 2 1.351562 2.761719 1.351562 C 3.523438 1.351562 4.140625 1.972656 4.140625 2.734375 Z M 4.140625 2.734375 "/>
<g mask="url(#mask-0)">
<use xlink:href="#source-5"/>
</g>
</svg>
