<?xml version="1.0" encoding="UTF-8"?>
<svg xmlns="http://www.w3.org/2000/svg" xmlns:xlink="http://www.w3.org/1999/xlink" width="9.132631" height="15" viewBox="0 0 9.132631 15">
<path fill-rule="evenodd" fill="rgb(0%, 0%, 0%)" fill-opacity="1" stroke-width="1.999189" stroke-linecap="butt" stroke-linejoin="miter" stroke="rgb(84.313725%, 84.313725%, 84.313725%)" stroke-opacity="1" stroke-miterlimit="4" d="M 5.064747 107.661252 L 61.088211 107.661252 L 65.162645 103.586818 L 65.162645 5.064747 L 61.088211 0.990314 L 5.064747 0.990314 L 0.990314 5.064747 L 0.990314 103.586818 Z M 5.064747 107.661252 " transform="matrix(0.138056, 0, 0, 0.138056, 0, 0)"/>
<path fill-rule="evenodd" fill="rgb(84.313725%, 84.313725%, 84.313725%)" fill-opacity="1" d="M 5.484375 9.976562 L 8.390625 9.976562 C 8.480469 9.976562 8.550781 10.046875 8.550781 10.136719 L 8.550781 13.613281 C 8.550781 13.699219 8.480469 13.773438 8.390625 13.773438 L 5.484375 13.773438 C 5.394531 13.773438 5.324219 13.699219 5.324219 13.613281 L 5.324219 10.136719 C 5.324219 10.046875 5.394531 9.976562 5.484375 9.976562 Z M 5.484375 9.976562 "/>
<path fill-rule="evenodd" fill="rgb(5.098039%, 59.215686%, 38.431373%)" fill-opacity="1" d="M 4.140625 2.734375 C 4.140625 3.496094 3.523438 4.113281 2.761719 4.113281 C 2 4.113281 1.382812 3.496094 1.382812 2.734375 C 1.382812 1.972656 2 1.351562 2.761719 1.351562 C 3.523438 1.351562 4.140625 1.972656 4.140625 2.734375 Z M 4.140625 2.734375 "/>
<path fill-rule="evenodd" fill="rgb(14.117647%, 63.921569%, 41.176471%)" fill-opacity="1" d="M 2.734375 2.722656 L 2.433594 1.398438 C 2.238281 1.46875 2.042969 1.523438 1.8125 1.75 Z M 2.734375 2.722656 "/>
</svg>
