<?xml version="1.0" encoding="UTF-8"?>
<svg xmlns="http://www.w3.org/2000/svg" xmlns:xlink="http://www.w3.org/1999/xlink" width="6.93454" height="16" viewBox="0 0 6.93454 16">
<defs>
<radialGradient id="radial-pattern-0" gradientUnits="userSpaceOnUse" cx="118.928574" cy="53.75" fx="118.928574" fy="53.75" r="10" gradientTransform="matrix(1, 0, 0, 1, -90.094246, 50.982025)">
<stop offset="0" stop-color="rgb(26.274511%, 26.274511%, 26.274511%)" stop-opacity="1"/>
<stop offset="0.5" stop-color="rgb(14.117648%, 14.117648%, 14.117648%)" stop-opacity="1"/>
<stop offset="1" stop-color="rgb(19.215687%, 19.215687%, 19.215687%)" stop-opacity="1"/>
</radialGradient>
</defs>
<path fill-rule="nonzero" fill="rgb(0%, 0%, 0%)" fill-opacity="1" stroke-width="3.933" stroke-linecap="butt" stroke-linejoin="round" stroke="rgb(84.313726%, 84.313726%, 84.313726%)" stroke-opacity="1" stroke-miterlimit="4" d="M 55.380511 103.652672 C 55.380511 118.418654 43.425558 130.373607 28.691887 130.373607 C 13.925904 130.373607 1.970952 118.418654 1.970952 103.652672 L 1.970952 28.691887 C 1.970952 13.925904 13.925904 1.970952 28.691887 1.970952 C 43.425558 1.970952 55.380511 13.925904 55.380511 28.691887 Z M 55.380511 103.652672 " transform="matrix(0.120897, 0, 0, 0.120897, 0, 0)"/>
<path fill-rule="evenodd" fill="url(#radial-pattern-0)" stroke-width="0.5" stroke-linecap="butt" stroke-linejoin="miter" stroke="rgb(5.490196%, 5.490196%, 5.490196%)" stroke-opacity="1" stroke-miterlimit="4" d="M 38.837441 104.718925 C 38.837441 110.244051 34.346256 114.735236 28.821129 114.735236 C 23.296003 114.735236 18.837128 110.244051 18.837128 104.718925 C 18.837128 99.193798 23.296003 94.734923 28.821129 94.734923 C 34.346256 94.734923 38.837441 99.193798 38.837441 104.718925 Z M 38.837441 104.718925 " transform="matrix(0.120897, 0, 0, 0.120897, 0, 0)"/>
<path fill-rule="evenodd" fill="rgb(91.764706%, 69.411767%, 4.705882%)" fill-opacity="1" d="M 4.6875 12.625 C 4.6875 13.289062 4.144531 13.832031 3.480469 13.832031 C 2.8125 13.832031 2.269531 13.289062 2.269531 12.625 C 2.269531 11.957031 2.8125 11.414062 3.480469 11.414062 C 4.144531 11.414062 4.6875 11.957031 4.6875 12.625 Z M 4.6875 12.625 "/>
<path fill-rule="evenodd" fill="rgb(5.098039%, 59.215689%, 38.431373%)" fill-opacity="1" d="M 4.667969 3.757812 C 4.667969 4.421875 4.125 4.964844 3.460938 4.964844 C 2.792969 4.964844 2.25 4.421875 2.25 3.757812 C 2.25 3.089844 2.792969 2.546875 3.460938 2.546875 C 4.125 2.546875 4.667969 3.089844 4.667969 3.757812 Z M 4.667969 3.757812 "/>
</svg>
