<?xml version="1.0" encoding="UTF-8"?>
<svg xmlns="http://www.w3.org/2000/svg" xmlns:xlink="http://www.w3.org/1999/xlink" width="9.132632" height="15" viewBox="0 0 9.132632 15">
<path fill-rule="evenodd" fill="rgb(0%, 0%, 0%)" fill-opacity="1" stroke-width="2" stroke-linecap="butt" stroke-linejoin="miter" stroke="rgb(84.313726%, 84.313726%, 84.313726%)" stroke-opacity="1" stroke-miterlimit="4" d="M 5.064757 107.661463 L 61.088331 107.661463 L 65.162773 103.587022 L 65.162773 5.064757 L 61.088331 0.990316 L 5.064757 0.990316 L 0.990316 5.064757 L 0.990316 103.587022 Z M 5.064757 107.661463 " transform="matrix(0.138056, 0, 0, 0.138056, 0, 0)"/>
<path fill-rule="evenodd" fill="rgb(84.313726%, 84.313726%, 84.313726%)" fill-opacity="1" d="M 5.484375 9.976562 L 8.390625 9.976562 C 8.480469 9.976562 8.550781 10.046875 8.550781 10.136719 L 8.550781 13.613281 C 8.550781 13.699219 8.480469 13.773438 8.390625 13.773438 L 5.484375 13.773438 C 5.394531 13.773438 5.324219 13.699219 5.324219 13.613281 L 5.324219 10.136719 C 5.324219 10.046875 5.394531 9.976562 5.484375 9.976562 Z M 5.484375 9.976562 "/>
<path fill-rule="evenodd" fill="rgb(91.764706%, 69.411767%, 4.705882%)" fill-opacity="1" stroke-width="0.126619" stroke-linecap="butt" stroke-linejoin="miter" stroke="rgb(0%, 0%, 0%)" stroke-opacity="1" stroke-miterlimit="4" d="M 29.992418 89.807486 C 29.992418 95.324959 25.52185 99.795527 20.004377 99.795527 C 14.486904 99.795527 10.016336 95.324959 10.016336 89.807486 C 10.016336 84.290013 14.486904 79.79115 20.004377 79.79115 C 25.52185 79.79115 29.992418 84.290013 29.992418 89.807486 Z M 29.992418 89.807486 " transform="matrix(0.138056, 0, 0, 0.138056, 0, 0)"/>
<path fill-rule="evenodd" fill="rgb(5.098039%, 59.215689%, 38.431373%)" fill-opacity="1" d="M 4.140625 2.734375 C 4.140625 3.496094 3.523438 4.113281 2.761719 4.113281 C 2 4.113281 1.382812 3.496094 1.382812 2.734375 C 1.382812 1.972656 2 1.351562 2.761719 1.351562 C 3.523438 1.351562 4.140625 1.972656 4.140625 2.734375 Z M 4.140625 2.734375 "/>
</svg>
