<?xml version="1.0" encoding="UTF-8"?>
<svg xmlns="http://www.w3.org/2000/svg" xmlns:xlink="http://www.w3.org/1999/xlink" width="11.000006" height="12" viewBox="0 0 11.000006 12">
<path fill-rule="evenodd" fill="rgb(0%, 0%, 0%)" fill-opacity="1" d="M 11 11.546875 L 11 1.382812 C 11 -0.144531 9.3125 -0.03125 8.742188 0.0273438 C -0.128906 0.875 0.0078125 6.785156 0.0078125 11.386719 C -0.0117188 11.769531 -0.0273438 12 0.496094 12 L 10.425781 12 C 10.832031 12 11 11.902344 11 11.546875 Z M 11 11.546875 "/>
<path fill-rule="evenodd" fill="rgb(100%, 100%, 100%)" fill-opacity="1" stroke-width="0.121405" stroke-linecap="round" stroke-linejoin="miter" stroke="rgb(0%, 0%, 0%)" stroke-opacity="1" stroke-miterlimit="4" d="M -443.631838 262.173155 C -443.631838 263.735655 -444.88965 265.00128 -446.436525 265.00128 C -447.991212 265.00128 -449.241212 263.735655 -449.241212 262.173155 C -449.241212 260.618468 -447.991212 259.352843 -446.436525 259.352843 C -444.88965 259.352843 -443.631838 260.618468 -443.631838 262.173155 Z M -443.631838 262.173155 " transform="matrix(0.5, 0, 0, 0.5, 231.726093, -122.422526)"/>
</svg>
