<?xml version="1.0" encoding="UTF-8"?>
<svg xmlns="http://www.w3.org/2000/svg" xmlns:xlink="http://www.w3.org/1999/xlink" width="18.000006" height="18" viewBox="0 0 18.000006 18">
<path fill-rule="nonzero" fill="rgb(100%, 100%, 100%)" fill-opacity="1" stroke-width="7.180233" stroke-linecap="butt" stroke-linejoin="miter" stroke="rgb(99.607843%, 8.627451%, 6.27451%)" stroke-opacity="1" stroke-miterlimit="4" d="M 3196.134582 -1310.833509 C 3196.134582 -1280.703908 3171.707903 -1256.302463 3141.578301 -1256.302463 C 3111.4487 -1256.302463 3087.047255 -1280.703908 3087.047255 -1310.833509 C 3087.047255 -1340.963111 3111.4487 -1365.364556 3141.578301 -1365.364556 C 3171.707903 -1365.364556 3196.134582 -1340.963111 3196.134582 -1310.833509 Z M 3196.134582 -1310.833509 " transform="matrix(0.1548, 0, 0, 0.1548, -477.316338, 211.917034)"/>
<path fill-rule="nonzero" fill="rgb(99.607843%, 8.627451%, 6.27451%)" fill-opacity="1" d="M 8.601562 11.179688 L 10.128906 11.179688 L 10.128906 12.65625 L 8.601562 12.65625 Z M 6.738281 7.488281 C 6.773438 6.515625 7.109375 5.828125 7.757812 5.414062 C 8.152344 5.160156 8.644531 5.027344 9.234375 5.027344 C 10.007812 5.027344 10.644531 5.214844 11.148438 5.589844 C 11.664062 5.953125 11.921875 6.5 11.921875 7.226562 C 11.921875 7.671875 11.808594 8.046875 11.589844 8.351562 C 11.457031 8.523438 11.210938 8.761719 10.851562 9.054688 L 10.480469 9.335938 C 10.277344 9.488281 10.152344 9.664062 10.09375 9.859375 C 10.046875 9.992188 10.023438 10.195312 10.023438 10.476562 L 8.636719 10.476562 C 8.65625 9.90625 8.710938 9.503906 8.792969 9.28125 C 8.886719 9.0625 9.117188 8.800781 9.496094 8.507812 L 9.867188 8.226562 C 9.980469 8.132812 10.082031 8.03125 10.164062 7.929688 C 10.304688 7.742188 10.375 7.53125 10.375 7.296875 C 10.375 7.039062 10.296875 6.804688 10.148438 6.59375 C 9.992188 6.382812 9.710938 6.273438 9.304688 6.273438 C 8.902344 6.273438 8.621094 6.410156 8.460938 6.679688 C 8.292969 6.9375 8.214844 7.207031 8.214844 7.488281 Z M 6.105469 4.570312 "/>
</svg>
