<?xml version="1.0" encoding="UTF-8"?>
<svg xmlns="http://www.w3.org/2000/svg" xmlns:xlink="http://www.w3.org/1999/xlink" width="20.630219" height="18" viewBox="0 0 20.630219 18">
<path fill-rule="nonzero" fill="rgb(100%, 100%, 100%)" fill-opacity="1" stroke-width="10.1564" stroke-linecap="butt" stroke-linejoin="round" stroke="rgb(99.607843%, 8.627451%, 6.27451%)" stroke-opacity="1" stroke-miterlimit="4" d="M 3468.547795 663.873642 L 3556.412158 816.032318 L 3380.71862 816.032318 Z M 3468.547795 663.873642 " transform="matrix(0.111011, 0, 0, 0.110904, -374.73428, -73.063717)"/>
<path fill-rule="nonzero" fill="rgb(99.607843%, 8.627451%, 6.27451%)" fill-opacity="1" d="M 9.320312 14 C 9.320312 14.261719 9.363281 14.476562 9.449219 14.648438 C 9.601562 14.964844 9.886719 15.117188 10.296875 15.117188 C 10.546875 15.117188 10.761719 15.035156 10.953125 14.859375 C 11.140625 14.6875 11.234375 14.441406 11.234375 14.121094 C 11.234375 13.6875 11.0625 13.402344 10.714844 13.261719 C 10.511719 13.179688 10.203125 13.140625 9.777344 13.140625 L 9.777344 12.226562 C 10.195312 12.222656 10.484375 12.179688 10.648438 12.105469 C 10.933594 11.980469 11.074219 11.726562 11.074219 11.34375 C 11.074219 11.097656 11.003906 10.894531 10.859375 10.734375 C 10.714844 10.582031 10.507812 10.503906 10.242188 10.503906 C 9.945312 10.503906 9.71875 10.601562 9.578125 10.792969 C 9.433594 10.980469 9.367188 11.238281 9.378906 11.558594 L 8.183594 11.558594 C 8.195312 11.238281 8.25 10.929688 8.351562 10.640625 C 8.453125 10.382812 8.617188 10.152344 8.84375 9.9375 C 9.007812 9.78125 9.207031 9.667969 9.433594 9.585938 C 9.667969 9.503906 9.949219 9.464844 10.289062 9.464844 C 10.90625 9.464844 11.40625 9.625 11.789062 9.949219 C 12.171875 10.269531 12.363281 10.699219 12.363281 11.242188 C 12.363281 11.625 12.246094 11.945312 12.019531 12.207031 C 11.878906 12.375 11.730469 12.484375 11.574219 12.546875 C 11.6875 12.546875 11.855469 12.644531 12.070312 12.84375 C 12.402344 13.148438 12.5625 13.5625 12.5625 14.085938 C 12.5625 14.632812 12.371094 15.117188 11.992188 15.535156 C 11.609375 15.949219 11.046875 16.160156 10.300781 16.160156 C 9.378906 16.160156 8.742188 15.855469 8.378906 15.257812 C 8.191406 14.9375 8.085938 14.519531 8.070312 14 Z M 7.820312 8.925781 "/>
</svg>
