<?xml version="1.0" encoding="UTF-8"?>
<svg xmlns="http://www.w3.org/2000/svg" xmlns:xlink="http://www.w3.org/1999/xlink" width="18.000006" height="18" viewBox="0 0 18.000006 18">
<path fill-rule="nonzero" fill="rgb(100%, 100%, 100%)" fill-opacity="1" stroke-width="7.180233" stroke-linecap="butt" stroke-linejoin="miter" stroke="rgb(99.607843%, 8.627451%, 6.27451%)" stroke-opacity="1" stroke-miterlimit="4" d="M 3196.134582 -1310.833509 C 3196.134582 -1280.703908 3171.707903 -1256.302463 3141.578301 -1256.302463 C 3111.4487 -1256.302463 3087.047255 -1280.703908 3087.047255 -1310.833509 C 3087.047255 -1340.963111 3111.4487 -1365.364556 3141.578301 -1365.364556 C 3171.707903 -1365.364556 3196.134582 -1340.963111 3196.134582 -1310.833509 Z M 3196.134582 -1310.833509 " transform="matrix(0.1548, 0, 0, 0.1548, -477.316338, 211.917034)"/>
<path fill-rule="nonzero" fill="rgb(99.607843%, 8.627451%, 6.27451%)" fill-opacity="1" d="M 6.460938 12.734375 C 6.46875 12.207031 6.582031 11.726562 6.792969 11.277344 C 7.003906 10.785156 7.496094 10.257812 8.269531 9.695312 C 8.945312 9.214844 9.382812 8.875 9.570312 8.675781 C 9.875 8.351562 10.027344 7.988281 10.027344 7.601562 C 10.027344 7.285156 9.941406 7.03125 9.765625 6.828125 C 9.597656 6.617188 9.351562 6.511719 9.027344 6.511719 C 8.578125 6.511719 8.273438 6.679688 8.113281 7.003906 C 8.027344 7.195312 7.976562 7.496094 7.953125 7.917969 L 6.53125 7.917969 C 6.550781 7.285156 6.671875 6.777344 6.882812 6.390625 C 7.269531 5.640625 7.957031 5.265625 8.957031 5.265625 C 9.738281 5.265625 10.363281 5.488281 10.820312 5.933594 C 11.285156 6.367188 11.523438 6.945312 11.523438 7.65625 C 11.523438 8.210938 11.355469 8.691406 11.03125 9.113281 C 10.820312 9.394531 10.46875 9.710938 9.976562 10.0625 L 9.394531 10.484375 C 9.015625 10.746094 8.761719 10.933594 8.621094 11.046875 C 8.492188 11.167969 8.382812 11.304688 8.304688 11.453125 L 11.539062 11.453125 L 11.539062 12.734375 Z M 6.125 4.648438 "/>
</svg>
