<?xml version="1.0" encoding="UTF-8"?>
<svg xmlns="http://www.w3.org/2000/svg" xmlns:xlink="http://www.w3.org/1999/xlink" width="20.630219" height="18" viewBox="0 0 20.630219 18">
<path fill-rule="nonzero" fill="rgb(100%, 100%, 100%)" fill-opacity="1" stroke-width="10.1564" stroke-linecap="butt" stroke-linejoin="round" stroke="rgb(99.607843%, 8.627451%, 6.27451%)" stroke-opacity="1" stroke-miterlimit="4" d="M 3468.547795 663.873642 L 3556.412158 816.032318 L 3380.71862 816.032318 Z M 3468.547795 663.873642 " transform="matrix(0.111011, 0, 0, 0.110904, -374.73428, -73.063717)"/>
<path fill-rule="nonzero" fill="rgb(99.607843%, 8.627451%, 6.27451%)" fill-opacity="1" d="M 9.324219 14.214844 C 9.375 14.5 9.476562 14.71875 9.621094 14.871094 C 9.765625 15.023438 9.980469 15.101562 10.257812 15.101562 C 10.582031 15.101562 10.828125 14.988281 10.996094 14.761719 C 11.164062 14.539062 11.246094 14.25 11.246094 13.910156 C 11.246094 13.570312 11.167969 13.285156 11.007812 13.050781 C 10.851562 12.820312 10.605469 12.703125 10.273438 12.703125 C 10.117188 12.703125 9.976562 12.722656 9.859375 12.761719 C 9.660156 12.835938 9.503906 12.972656 9.398438 13.171875 L 8.234375 13.113281 L 8.703125 9.464844 L 12.339844 9.464844 L 12.339844 10.570312 L 9.636719 10.570312 L 9.398438 12.011719 C 9.601562 11.882812 9.761719 11.796875 9.871094 11.75 C 10.058594 11.679688 10.289062 11.648438 10.558594 11.648438 C 11.105469 11.648438 11.585938 11.828125 11.988281 12.199219 C 12.398438 12.570312 12.597656 13.101562 12.597656 13.804688 C 12.597656 14.414062 12.40625 14.960938 12.011719 15.4375 C 11.617188 15.921875 11.035156 16.160156 10.253906 16.160156 C 9.625 16.160156 9.105469 15.992188 8.707031 15.652344 C 8.300781 15.316406 8.078125 14.835938 8.027344 14.214844 Z M 7.78125 8.796875 "/>
</svg>
