<?xml version="1.0" encoding="UTF-8"?>
<svg xmlns="http://www.w3.org/2000/svg" xmlns:xlink="http://www.w3.org/1999/xlink" width="18.000006" height="18" viewBox="0 0 18.000006 18">
<path fill-rule="nonzero" fill="rgb(100%, 100%, 100%)" fill-opacity="1" stroke-width="7.180233" stroke-linecap="butt" stroke-linejoin="miter" stroke="rgb(99.607843%, 8.627451%, 6.27451%)" stroke-opacity="1" stroke-miterlimit="4" d="M 3196.134582 -1310.833509 C 3196.134582 -1280.703908 3171.707903 -1256.302463 3141.578301 -1256.302463 C 3111.4487 -1256.302463 3087.047255 -1280.703908 3087.047255 -1310.833509 C 3087.047255 -1340.963111 3111.4487 -1365.364556 3141.578301 -1365.364556 C 3171.707903 -1365.364556 3196.134582 -1340.963111 3196.134582 -1310.833509 Z M 3196.134582 -1310.833509 " transform="matrix(0.1548, 0, 0, 0.1548, -477.316338, 211.917034)"/>
<path fill-rule="nonzero" fill="rgb(99.607843%, 8.627451%, 6.27451%)" fill-opacity="1" d="M 11.601562 11.097656 L 10.757812 11.097656 L 10.757812 12.695312 L 9.335938 12.695312 L 9.335938 11.097656 L 6.398438 11.097656 L 6.398438 9.8125 L 9.125 5.3125 L 10.757812 5.3125 L 10.757812 9.953125 L 11.601562 9.953125 Z M 9.335938 9.953125 L 9.335938 6.753906 L 7.46875 9.953125 Z M 6.117188 4.609375 "/>
</svg>
