<?xml version="1.0" encoding="UTF-8"?>
<svg xmlns="http://www.w3.org/2000/svg" xmlns:xlink="http://www.w3.org/1999/xlink" width="20.630219" height="18" viewBox="0 0 20.630219 18">
<path fill-rule="nonzero" fill="rgb(100%, 100%, 100%)" fill-opacity="1" stroke-width="10.1564" stroke-linecap="butt" stroke-linejoin="round" stroke="rgb(99.607843%, 8.627451%, 6.27451%)" stroke-opacity="1" stroke-miterlimit="4" d="M 3468.547795 663.873642 L 3556.412158 816.032318 L 3380.71862 816.032318 Z M 3468.547795 663.873642 " transform="matrix(0.111011, 0, 0, 0.110904, -374.73428, -73.063717)"/>
<path fill-rule="nonzero" fill="rgb(99.607843%, 8.627451%, 6.27451%)" fill-opacity="1" d="M 8.03125 16.160156 C 8.046875 15.679688 8.152344 15.246094 8.339844 14.847656 C 8.53125 14.40625 8.96875 13.933594 9.664062 13.4375 C 10.269531 13.007812 10.65625 12.695312 10.835938 12.511719 C 11.109375 12.222656 11.246094 11.898438 11.246094 11.554688 C 11.246094 11.273438 11.167969 11.039062 11.011719 10.855469 C 10.855469 10.664062 10.628906 10.574219 10.339844 10.574219 C 9.941406 10.574219 9.671875 10.722656 9.527344 11.015625 C 9.445312 11.1875 9.394531 11.460938 9.382812 11.835938 L 8.109375 11.835938 C 8.128906 11.265625 8.230469 10.8125 8.414062 10.464844 C 8.765625 9.800781 9.386719 9.464844 10.277344 9.464844 C 10.980469 9.464844 11.539062 9.660156 11.957031 10.050781 C 12.371094 10.441406 12.582031 10.960938 12.582031 11.601562 C 12.582031 12.09375 12.4375 12.53125 12.140625 12.914062 C 11.949219 13.171875 11.632812 13.453125 11.1875 13.765625 L 10.664062 14.136719 C 10.339844 14.371094 10.117188 14.539062 9.992188 14.640625 C 9.875 14.742188 9.769531 14.867188 9.691406 15.003906 L 12.59375 15.003906 L 12.59375 16.160156 Z M 7.742188 8.917969 "/>
</svg>
