<?xml version="1.0" encoding="UTF-8"?>
<svg xmlns="http://www.w3.org/2000/svg" xmlns:xlink="http://www.w3.org/1999/xlink" width="20.630219" height="18" viewBox="0 0 20.630219 18">
<path fill-rule="nonzero" fill="rgb(100%, 100%, 100%)" fill-opacity="1" stroke-width="10.1564" stroke-linecap="butt" stroke-linejoin="round" stroke="rgb(99.607843%, 8.627451%, 6.27451%)" stroke-opacity="1" stroke-miterlimit="4" d="M 3468.547795 663.873642 L 3556.412158 816.032318 L 3380.71862 816.032318 Z M 3468.547795 663.873642 " transform="matrix(0.111011, 0, 0, 0.110904, -374.73428, -73.063717)"/>
<path fill-rule="nonzero" fill="rgb(99.607843%, 8.627451%, 6.27451%)" fill-opacity="1" d="M 9.355469 13.945312 C 9.355469 14.289062 9.449219 14.578125 9.636719 14.796875 C 9.828125 15.015625 10.0625 15.125 10.347656 15.125 C 10.632812 15.125 10.855469 15.019531 11.015625 14.804688 C 11.179688 14.59375 11.257812 14.316406 11.257812 13.980469 C 11.257812 13.601562 11.167969 13.3125 10.980469 13.113281 C 10.796875 12.910156 10.574219 12.808594 10.304688 12.808594 C 10.089844 12.808594 9.898438 12.875 9.734375 13.007812 C 9.484375 13.203125 9.355469 13.511719 9.355469 13.945312 Z M 11.144531 11.152344 C 11.144531 11.050781 11.105469 10.933594 11.023438 10.8125 C 10.886719 10.609375 10.679688 10.507812 10.40625 10.507812 C 9.992188 10.507812 9.699219 10.742188 9.523438 11.203125 C 9.425781 11.460938 9.359375 11.839844 9.324219 12.335938 C 9.484375 12.148438 9.664062 12.011719 9.875 11.925781 C 10.082031 11.839844 10.320312 11.796875 10.585938 11.796875 C 11.164062 11.796875 11.632812 11.992188 11.996094 12.378906 C 12.363281 12.769531 12.546875 13.265625 12.546875 13.875 C 12.546875 14.476562 12.367188 15.007812 12.007812 15.46875 C 11.648438 15.929688 11.09375 16.160156 10.332031 16.160156 C 9.519531 16.160156 8.917969 15.820312 8.535156 15.140625 C 8.230469 14.609375 8.082031 13.921875 8.082031 13.078125 C 8.082031 12.585938 8.101562 12.1875 8.148438 11.878906 C 8.21875 11.324219 8.363281 10.867188 8.578125 10.503906 C 8.761719 10.191406 9.003906 9.941406 9.304688 9.75 C 9.601562 9.558594 9.957031 9.464844 10.375 9.464844 C 10.972656 9.464844 11.453125 9.621094 11.808594 9.925781 C 12.164062 10.234375 12.367188 10.644531 12.410156 11.152344 Z M 7.796875 8.960938 "/>
</svg>
