<?xml version="1.0" encoding="UTF-8"?>
<svg xmlns="http://www.w3.org/2000/svg" xmlns:xlink="http://www.w3.org/1999/xlink" width="18.000006" height="18" viewBox="0 0 18.000006 18">
<path fill-rule="nonzero" fill="rgb(100%, 100%, 100%)" fill-opacity="1" stroke-width="7.180233" stroke-linecap="butt" stroke-linejoin="miter" stroke="rgb(99.607843%, 8.627451%, 6.27451%)" stroke-opacity="1" stroke-miterlimit="4" d="M 3196.134582 -1310.833509 C 3196.134582 -1280.703908 3171.707903 -1256.302463 3141.578301 -1256.302463 C 3111.4487 -1256.302463 3087.047255 -1280.703908 3087.047255 -1310.833509 C 3087.047255 -1340.963111 3111.4487 -1365.364556 3141.578301 -1365.364556 C 3171.707903 -1365.364556 3196.134582 -1340.963111 3196.134582 -1310.833509 Z M 3196.134582 -1310.833509 " transform="matrix(0.1548, 0, 0, 0.1548, -477.316338, 211.917034)"/>
<path fill-rule="nonzero" fill="rgb(99.607843%, 8.627451%, 6.27451%)" fill-opacity="1" d="M 7.890625 10.585938 C 7.9375 10.902344 8.042969 11.148438 8.210938 11.324219 C 8.371094 11.492188 8.613281 11.570312 8.929688 11.570312 C 9.289062 11.570312 9.566406 11.449219 9.757812 11.203125 C 9.953125 10.945312 10.054688 10.621094 10.054688 10.234375 C 10.054688 9.859375 9.957031 9.546875 9.773438 9.285156 C 9.597656 9.015625 9.320312 8.882812 8.945312 8.882812 C 8.773438 8.882812 8.617188 8.90625 8.492188 8.953125 C 8.253906 9.035156 8.078125 9.1875 7.960938 9.410156 L 6.664062 9.339844 L 7.1875 5.242188 L 11.285156 5.242188 L 11.285156 6.472656 L 8.242188 6.472656 L 7.960938 8.109375 C 8.195312 7.957031 8.375 7.859375 8.507812 7.808594 C 8.71875 7.730469 8.972656 7.6875 9.28125 7.6875 C 9.886719 7.6875 10.421875 7.898438 10.882812 8.320312 C 11.335938 8.730469 11.566406 9.328125 11.566406 10.113281 C 11.566406 10.804688 11.34375 11.421875 10.898438 11.957031 C 10.464844 12.5 9.808594 12.765625 8.929688 12.765625 C 8.226562 12.765625 7.648438 12.578125 7.1875 12.203125 C 6.734375 11.816406 6.476562 11.28125 6.433594 10.585938 Z M 6.152344 4.488281 "/>
</svg>
