<?xml version="1.0" encoding="UTF-8"?>
<svg xmlns="http://www.w3.org/2000/svg" xmlns:xlink="http://www.w3.org/1999/xlink" width="18.000006" height="18" viewBox="0 0 18.000006 18">
<path fill-rule="nonzero" fill="rgb(100%, 100%, 100%)" fill-opacity="1" stroke-width="7.180233" stroke-linecap="butt" stroke-linejoin="miter" stroke="rgb(99.607843%, 8.627451%, 6.27451%)" stroke-opacity="1" stroke-miterlimit="4" d="M 3196.134582 -1310.833509 C 3196.134582 -1280.703908 3171.707903 -1256.302463 3141.578301 -1256.302463 C 3111.4487 -1256.302463 3087.047255 -1280.703908 3087.047255 -1310.833509 C 3087.047255 -1340.963111 3111.4487 -1365.364556 3141.578301 -1365.364556 C 3171.707903 -1365.364556 3196.134582 -1340.963111 3196.134582 -1310.833509 Z M 3196.134582 -1310.833509 " transform="matrix(0.1548, 0, 0, 0.1548, -477.316338, 211.917034)"/>
<path fill-rule="nonzero" fill="rgb(99.607843%, 8.627451%, 6.27451%)" fill-opacity="1" d="M 7.898438 10.300781 C 7.898438 10.699219 8.003906 11.03125 8.214844 11.285156 C 8.433594 11.53125 8.710938 11.65625 9.039062 11.65625 C 9.363281 11.65625 9.621094 11.539062 9.796875 11.304688 C 9.980469 11.054688 10.078125 10.742188 10.078125 10.351562 C 10.078125 9.921875 9.972656 9.589844 9.761719 9.351562 C 9.550781 9.117188 9.289062 9 8.988281 9 C 8.742188 9 8.519531 9.078125 8.335938 9.226562 C 8.042969 9.453125 7.898438 9.808594 7.898438 10.300781 Z M 9.953125 7.101562 C 9.953125 6.988281 9.90625 6.851562 9.8125 6.695312 C 9.660156 6.464844 9.425781 6.34375 9.109375 6.34375 C 8.625 6.34375 8.289062 6.617188 8.089844 7.15625 C 7.972656 7.449219 7.898438 7.882812 7.863281 8.453125 C 8.039062 8.242188 8.238281 8.09375 8.476562 8 C 8.722656 7.890625 8.996094 7.839844 9.304688 7.839844 C 9.972656 7.839844 10.515625 8.0625 10.9375 8.507812 C 11.359375 8.957031 11.570312 9.527344 11.570312 10.230469 C 11.570312 10.925781 11.359375 11.53125 10.9375 12.058594 C 10.523438 12.585938 9.886719 12.851562 9.023438 12.851562 C 8.082031 12.851562 7.390625 12.457031 6.949219 11.671875 C 6.605469 11.066406 6.4375 10.277344 6.4375 9.316406 C 6.4375 8.746094 6.460938 8.28125 6.507812 7.929688 C 6.585938 7.296875 6.753906 6.765625 7 6.34375 C 7.210938 5.992188 7.484375 5.707031 7.828125 5.484375 C 8.179688 5.265625 8.585938 5.148438 9.058594 5.148438 C 9.746094 5.148438 10.296875 5.335938 10.710938 5.695312 C 11.117188 6.046875 11.351562 6.515625 11.414062 7.101562 Z M 6.105469 4.570312 "/>
</svg>
