<?xml version="1.0" encoding="UTF-8"?>
<svg xmlns="http://www.w3.org/2000/svg" xmlns:xlink="http://www.w3.org/1999/xlink" width="18.000006" height="18" viewBox="0 0 18.000006 18">
<path fill-rule="nonzero" fill="rgb(100%, 100%, 100%)" fill-opacity="1" stroke-width="7.180233" stroke-linecap="butt" stroke-linejoin="miter" stroke="rgb(99.607843%, 8.627451%, 6.27451%)" stroke-opacity="1" stroke-miterlimit="4" d="M 3196.134582 -1310.833509 C 3196.134582 -1280.703908 3171.707903 -1256.302463 3141.578301 -1256.302463 C 3111.4487 -1256.302463 3087.047255 -1280.703908 3087.047255 -1310.833509 C 3087.047255 -1340.963111 3111.4487 -1365.364556 3141.578301 -1365.364556 C 3171.707903 -1365.364556 3196.134582 -1340.963111 3196.134582 -1310.833509 Z M 3196.134582 -1310.833509 " transform="matrix(0.1548, 0, 0, 0.1548, -477.316338, 211.917034)"/>
<path fill-rule="nonzero" fill="rgb(99.607843%, 8.627451%, 6.27451%)" fill-opacity="1" d="M 7.859375 10.359375 C 7.859375 10.664062 7.910156 10.910156 8.015625 11.097656 C 8.191406 11.460938 8.511719 11.640625 8.984375 11.640625 C 9.265625 11.640625 9.507812 11.542969 9.71875 11.34375 C 9.941406 11.144531 10.054688 10.863281 10.054688 10.5 C 10.054688 10.007812 9.851562 9.679688 9.457031 9.515625 C 9.21875 9.421875 8.863281 9.375 8.382812 9.375 L 8.382812 8.335938 C 8.863281 8.328125 9.199219 8.28125 9.386719 8.195312 C 9.703125 8.054688 9.859375 7.765625 9.859375 7.316406 C 9.859375 7.035156 9.777344 6.808594 9.617188 6.632812 C 9.449219 6.457031 9.214844 6.367188 8.914062 6.367188 C 8.570312 6.367188 8.320312 6.480469 8.15625 6.703125 C 7.988281 6.914062 7.914062 7.203125 7.929688 7.5625 L 6.554688 7.5625 C 6.566406 7.203125 6.632812 6.855469 6.75 6.527344 C 6.863281 6.234375 7.054688 5.964844 7.3125 5.71875 C 7.496094 5.542969 7.722656 5.410156 7.980469 5.3125 C 8.25 5.21875 8.578125 5.171875 8.964844 5.171875 C 9.675781 5.171875 10.253906 5.359375 10.6875 5.734375 C 11.117188 6.101562 11.335938 6.59375 11.335938 7.210938 C 11.335938 7.648438 11.207031 8.015625 10.953125 8.320312 C 10.785156 8.507812 10.617188 8.636719 10.441406 8.707031 C 10.570312 8.707031 10.757812 8.820312 11.003906 9.039062 C 11.378906 9.390625 11.566406 9.867188 11.566406 10.464844 C 11.566406 11.085938 11.347656 11.636719 10.914062 12.117188 C 10.480469 12.585938 9.835938 12.820312 8.984375 12.820312 C 7.929688 12.820312 7.195312 12.480469 6.785156 11.800781 C 6.574219 11.4375 6.457031 10.957031 6.433594 10.359375 Z M 6.152344 4.558594 "/>
</svg>
