<?xml version="1.0" encoding="UTF-8"?>
<svg xmlns="http://www.w3.org/2000/svg" xmlns:xlink="http://www.w3.org/1999/xlink" width="20.630219" height="18" viewBox="0 0 20.630219 18">
<path fill-rule="nonzero" fill="rgb(100%, 100%, 100%)" fill-opacity="1" stroke-width="10.1564" stroke-linecap="butt" stroke-linejoin="round" stroke="rgb(99.607843%, 8.627451%, 6.27451%)" stroke-opacity="1" stroke-miterlimit="4" d="M 3468.547795 663.873642 L 3556.412158 816.032318 L 3380.71862 816.032318 Z M 3468.547795 663.873642 " transform="matrix(0.111011, 0, 0, 0.110904, -374.73428, -73.063717)"/>
<path fill-rule="nonzero" fill="rgb(99.607843%, 8.627451%, 6.27451%)" fill-opacity="1" d="M 9.675781 14.859375 L 11.015625 14.859375 L 11.015625 16.160156 L 9.675781 16.160156 Z M 8.039062 11.625 C 8.074219 10.765625 8.371094 10.164062 8.929688 9.804688 C 9.285156 9.578125 9.714844 9.460938 10.234375 9.460938 C 10.910156 9.460938 11.472656 9.625 11.921875 9.949219 C 12.371094 10.273438 12.59375 10.753906 12.59375 11.390625 C 12.59375 11.777344 12.5 12.105469 12.300781 12.371094 C 12.191406 12.53125 11.96875 12.738281 11.644531 12.996094 L 11.328125 13.242188 C 11.152344 13.375 11.039062 13.535156 10.980469 13.710938 C 10.941406 13.824219 10.925781 14.003906 10.921875 14.242188 L 9.707031 14.242188 C 9.726562 13.738281 9.773438 13.386719 9.851562 13.191406 C 9.929688 13 10.128906 12.78125 10.453125 12.523438 L 10.785156 12.269531 C 10.890625 12.191406 10.976562 12.097656 11.042969 12.007812 C 11.164062 11.839844 11.222656 11.660156 11.222656 11.460938 C 11.222656 11.234375 11.15625 11.027344 11.023438 10.835938 C 10.890625 10.652344 10.644531 10.554688 10.292969 10.554688 C 9.945312 10.554688 9.699219 10.675781 9.554688 10.902344 C 9.410156 11.136719 9.335938 11.375 9.335938 11.625 Z M 7.484375 9.070312 "/>
</svg>
