<?xml version="1.0" encoding="UTF-8"?>
<svg xmlns="http://www.w3.org/2000/svg" xmlns:xlink="http://www.w3.org/1999/xlink" width="18" height="18" viewBox="0 0 18 18">
<path fill-rule="evenodd" fill="rgb(99.215686%, 10.588235%, 5.098039%)" fill-opacity="1" d="M 17.226562 9 C 17.226562 13.542969 13.542969 17.226562 9 17.226562 C 4.457031 17.226562 0.773438 13.542969 0.773438 9 C 0.773438 4.457031 4.457031 0.773438 9 0.773438 C 13.542969 0.773438 17.226562 4.457031 17.226562 9 Z M 17.226562 9 "/>
<path fill-rule="evenodd" fill="rgb(100%, 100%, 100%)" fill-opacity="1" d="M 16.199219 9 C 16.199219 12.976562 12.976562 16.199219 9 16.199219 C 5.023438 16.199219 1.800781 12.976562 1.800781 9 C 1.800781 5.023438 5.023438 1.800781 9 1.800781 C 12.976562 1.800781 16.199219 5.023438 16.199219 9 Z M 16.199219 9 "/>
<path fill-rule="nonzero" fill="rgb(99.215686%, 10.588235%, 5.098039%)" fill-opacity="1" d="M 2.710938 9.832031 L 2.710938 10.328125 C 2.710938 10.792969 2.96875 11.578125 4.140625 11.578125 C 4.816406 11.578125 5.585938 11.261719 5.585938 10.085938 L 5.585938 6.421875 L 4.910156 6.421875 L 4.910156 10.128906 C 4.910156 10.617188 4.734375 10.996094 4.105469 10.996094 C 3.632812 10.996094 3.347656 10.78125 3.347656 10.179688 L 3.347656 9.832031 Z M 2.710938 9.832031 "/>
<path fill-rule="nonzero" fill="rgb(99.215686%, 10.588235%, 5.098039%)" fill-opacity="1" d="M 7.300781 9.679688 L 8.089844 8.925781 L 9.847656 11.445312 L 10.726562 11.445312 L 8.582031 8.449219 L 10.671875 6.421875 L 9.734375 6.421875 L 7.300781 8.855469 L 7.300781 6.421875 L 6.621094 6.421875 L 6.621094 11.445312 L 7.300781 11.445312 Z M 7.300781 9.679688 "/>
<path fill-rule="nonzero" fill="rgb(99.215686%, 10.588235%, 5.098039%)" fill-opacity="1" d="M 13.105469 10.703125 L 13.089844 10.703125 L 11.660156 6.421875 L 10.902344 6.421875 L 12.734375 11.445312 L 13.457031 11.445312 L 15.289062 6.421875 L 14.523438 6.421875 Z M 13.105469 10.703125 "/>
</svg>
