<?xml version="1.0" encoding="UTF-8"?>
<svg xmlns="http://www.w3.org/2000/svg" xmlns:xlink="http://www.w3.org/1999/xlink" width="16" height="16" viewBox="0 0 16 16">
<path fill-rule="evenodd" fill="rgb(100%, 100%, 100%)" fill-opacity="1" stroke-width="2" stroke-linecap="butt" stroke-linejoin="miter" stroke="rgb(0%, 0%, 0%)" stroke-opacity="1" stroke-miterlimit="4" d="M 239.059448 194.267136 L 758.184937 194.267136 C 780.194214 194.267136 798.095093 212.168015 798.095093 234.177292 L 798.095093 753.30278 C 798.095093 775.312057 780.194214 793.212936 758.184937 793.212936 L 239.059448 793.212936 C 217.050171 793.212936 199.149292 775.312057 199.149292 753.30278 L 199.149292 234.177292 C 199.149292 212.168015 217.050171 194.267136 239.059448 194.267136 Z M 239.059448 194.267136 " transform="matrix(0.0266223, 0, 0, 0.0266223, -5.274468, -5.144493)"/>
<path fill-rule="evenodd" fill="rgb(3.137255%, 25.490196%, 69.411765%)" fill-opacity="1" d="M 1.757812 1.757812 L 14.242188 1.757812 L 14.242188 14.242188 L 1.757812 14.242188 Z M 1.757812 1.757812 "/>
<path fill-rule="evenodd" fill="rgb(100%, 100%, 100%)" fill-opacity="1" d="M 6.335938 3.222656 L 9.664062 3.222656 L 9.664062 7.75 L 6.335938 7.75 Z M 6.335938 3.222656 "/>
<path fill-rule="evenodd" fill="rgb(100%, 100%, 100%)" fill-opacity="1" d="M 4.671875 10.472656 L 11.328125 10.472656 L 11.328125 12.605469 L 4.671875 12.605469 Z M 4.671875 10.472656 "/>
</svg>
