<?xml version="1.0" encoding="UTF-8"?>
<svg xmlns="http://www.w3.org/2000/svg" xmlns:xlink="http://www.w3.org/1999/xlink" width="16" height="16" viewBox="0 0 16 16">
<path fill-rule="evenodd" fill="rgb(99.607843%, 8.627451%, 6.27451%)" fill-opacity="1" d="M 1.066406 0 L 14.933594 0 C 15.523438 0 16 0.476562 16 1.066406 L 16 14.933594 C 16 15.523438 15.523438 16 14.933594 16 L 1.066406 16 C 0.476562 16 0 15.523438 0 14.933594 L 0 1.066406 C 0 0.476562 0.476562 0 1.066406 0 Z M 1.066406 0 "/>
<path fill-rule="evenodd" fill="rgb(100%, 100%, 100%)" fill-opacity="1" d="M 1.199219 1.199219 L 14.800781 1.199219 L 14.800781 14.800781 L 1.199219 14.800781 Z M 1.199219 1.199219 "/>
<path fill-rule="evenodd" fill="rgb(99.607843%, 8.627451%, 6.27451%)" fill-opacity="1" d="M 8.011719 1.792969 L 11.40625 5.1875 L 8.011719 8.582031 L 4.617188 5.1875 Z M 8.011719 1.792969 "/>
<path fill-rule="evenodd" fill="rgb(100%, 100%, 100%)" fill-opacity="1" d="M 8.011719 2.8125 L 10.386719 5.1875 L 8.011719 7.5625 L 5.636719 5.1875 Z M 8.011719 2.8125 "/>
<path fill="none" stroke-width="30" stroke-linecap="butt" stroke-linejoin="miter" stroke="rgb(99.607843%, 8.627451%, 6.27451%)" stroke-opacity="1" stroke-miterlimit="4" d="M 384.716217 365.791946 L 589.794342 365.791946 " transform="matrix(0.0266667, 0, 0, 0.0266667, -4.981755, -4.566952)"/>
<path fill-rule="nonzero" fill="rgb(99.607843%, 8.627451%, 6.27451%)" fill-opacity="1" d="M 7.601562 9.867188 L 7.601562 13.199219 C 7.234375 13.203125 6.941406 13.207031 6.933594 13.214844 C 6.910156 13.234375 7.957031 14.265625 8 14.265625 C 8.042969 14.265625 9.089844 13.234375 9.066406 13.214844 C 9.058594 13.207031 8.765625 13.203125 8.398438 13.199219 L 8.398438 9.867188 Z M 7.601562 9.867188 "/>
<path fill-rule="nonzero" fill="rgb(99.607843%, 8.627451%, 6.27451%)" fill-opacity="1" d="M 11.601562 9.867188 L 11.601562 13.199219 C 11.234375 13.203125 10.941406 13.207031 10.933594 13.214844 C 10.914062 13.234375 11.957031 14.265625 12 14.265625 C 12.042969 14.265625 13.089844 13.234375 13.066406 13.214844 C 13.058594 13.207031 12.765625 13.203125 12.398438 13.199219 L 12.398438 9.867188 Z M 11.601562 9.867188 "/>
<path fill-rule="nonzero" fill="rgb(99.607843%, 8.627451%, 6.27451%)" fill-opacity="1" d="M 3.601562 9.867188 L 3.601562 13.199219 C 3.234375 13.203125 2.941406 13.207031 2.933594 13.214844 C 2.910156 13.234375 3.957031 14.265625 4 14.265625 C 4.042969 14.265625 5.085938 13.234375 5.066406 13.214844 C 5.058594 13.207031 4.765625 13.203125 4.398438 13.199219 L 4.398438 9.867188 Z M 3.601562 9.867188 "/>
</svg>
