<?xml version="1.0" encoding="UTF-8"?>
<svg xmlns="http://www.w3.org/2000/svg" xmlns:xlink="http://www.w3.org/1999/xlink" width="11.501568" height="16" viewBox="0 0 11.501568 16">
<path fill-rule="nonzero" fill="rgb(98.823529%, 82.745098%, 0%)" fill-opacity="1" stroke-width="10.55" stroke-linecap="butt" stroke-linejoin="round" stroke="rgb(0%, 0%, 0%)" stroke-opacity="1" stroke-miterlimit="4" d="M 392.126207 433.181554 L 489.999794 433.181554 C 500.281463 433.181554 508.585889 441.485979 508.585889 451.718218 L 508.585889 606.536436 C 508.585889 616.768675 500.281463 625.0731 489.999794 625.0731 L 392.126207 625.0731 C 381.893969 625.0731 373.589543 616.768675 373.589543 606.536436 L 373.589543 451.718218 C 373.589543 441.485979 381.893969 433.181554 392.126207 433.181554 Z M 392.126207 433.181554 " transform="matrix(0.0790241, 0, 0, 0.0790241, -29.10462, -33.813827)"/>
<path fill-rule="nonzero" fill="rgb(0%, 0%, 0%)" fill-opacity="1" d="M 1.964844 3.382812 L 5.632812 3.382812 C 6.359375 3.382812 6.898438 3.414062 7.253906 3.476562 C 7.613281 3.535156 7.933594 3.660156 8.210938 3.851562 C 8.496094 4.042969 8.730469 4.300781 8.917969 4.621094 C 9.105469 4.941406 9.199219 5.296875 9.199219 5.691406 C 9.199219 6.121094 9.082031 6.515625 8.851562 6.875 C 8.621094 7.234375 8.308594 7.503906 7.910156 7.683594 C 8.46875 7.84375 8.898438 8.121094 9.199219 8.515625 C 9.5 8.90625 9.652344 9.367188 9.652344 9.898438 C 9.652344 10.316406 9.550781 10.722656 9.355469 11.117188 C 9.164062 11.507812 8.898438 11.824219 8.5625 12.0625 C 8.226562 12.296875 7.816406 12.441406 7.324219 12.492188 C 7.015625 12.527344 6.269531 12.546875 5.089844 12.558594 L 1.964844 12.558594 Z M 3.820312 4.910156 L 3.820312 7.03125 L 5.03125 7.03125 C 5.753906 7.03125 6.203125 7.019531 6.378906 7 C 6.695312 6.960938 6.941406 6.855469 7.121094 6.675781 C 7.304688 6.492188 7.398438 6.25 7.398438 5.957031 C 7.398438 5.671875 7.320312 5.441406 7.160156 5.265625 C 7.007812 5.085938 6.773438 4.980469 6.464844 4.941406 C 6.28125 4.921875 5.753906 4.910156 4.882812 4.910156 Z M 3.820312 8.558594 L 3.820312 11.011719 L 5.535156 11.011719 C 6.199219 11.011719 6.625 10.992188 6.804688 10.953125 C 7.078125 10.90625 7.300781 10.785156 7.472656 10.59375 C 7.648438 10.394531 7.734375 10.136719 7.734375 9.808594 C 7.734375 9.535156 7.667969 9.300781 7.535156 9.109375 C 7.402344 8.917969 7.207031 8.777344 6.953125 8.691406 C 6.703125 8.601562 6.15625 8.558594 5.3125 8.558594 Z M 3.820312 8.558594 "/>
</svg>
