<?xml version="1.0" encoding="UTF-8"?>
<svg xmlns="http://www.w3.org/2000/svg" xmlns:xlink="http://www.w3.org/1999/xlink" width="20" height="14.560487" viewBox="0 0 20 14.560487">
<path fill-rule="evenodd" fill="rgb(48.235294%, 32.54902%, 0.392157%)" fill-opacity="1" stroke-width="2" stroke-linecap="butt" stroke-linejoin="round" stroke="rgb(0%, 0%, 0%)" stroke-opacity="1" stroke-miterlimit="4" d="M 535.709147 75.145464 C 535.709147 84.307859 528.416628 91.749968 519.403823 91.749968 C 510.391018 91.749968 503.061102 84.307859 503.061102 75.145464 C 503.061102 65.983068 510.391018 58.540959 519.403823 58.540959 C 528.416628 58.540959 535.709147 65.983068 535.709147 75.145464 Z M 535.709147 75.145464 " transform="matrix(0.104452, 0, 0, 0.104452, -49.686403, 3.646994)"/>
<path fill-rule="nonzero" fill="rgb(98.823529%, 82.745098%, 0%)" fill-opacity="1" stroke-width="5.95" stroke-linecap="butt" stroke-linejoin="round" stroke="rgb(0%, 0%, 0%)" stroke-opacity="1" stroke-miterlimit="4" d="M 63.829795 481.140283 L 296.170221 481.140283 C 303.980858 481.140283 310.33351 486.868084 310.33351 493.897658 L 310.33351 656.567198 C 310.33351 663.596772 303.980858 669.272502 296.170221 669.272502 L 63.829795 669.272502 C 56.019157 669.272502 49.666506 663.596772 49.666506 656.567198 L 49.666506 493.897658 C 49.666506 486.868084 56.019157 481.140283 63.829795 481.140283 Z M 63.829795 481.140283 " transform="matrix(0.0750179, 0, 0, 0.0750179, -3.50322, -35.871471)"/>
<path fill-rule="nonzero" fill="rgb(0%, 0%, 0%)" fill-opacity="1" d="M 7.140625 3.230469 L 7.773438 3.230469 L 7.773438 5.15625 C 7.773438 5.40625 7.75 5.601562 7.707031 5.734375 C 7.644531 5.914062 7.53125 6.054688 7.371094 6.164062 C 7.207031 6.269531 6.996094 6.324219 6.730469 6.324219 C 6.417969 6.324219 6.179688 6.238281 6.011719 6.070312 C 5.847656 5.902344 5.761719 5.65625 5.761719 5.332031 L 6.359375 5.265625 C 6.367188 5.4375 6.394531 5.5625 6.4375 5.632812 C 6.507812 5.742188 6.613281 5.796875 6.753906 5.796875 C 6.894531 5.796875 6.992188 5.757812 7.050781 5.683594 C 7.109375 5.601562 7.140625 5.441406 7.140625 5.195312 Z M 7.140625 3.230469 "/>
<path fill-rule="nonzero" fill="rgb(0%, 0%, 0%)" fill-opacity="1" d="M 8.460938 6.269531 L 8.460938 3.230469 L 9.097656 3.230469 L 9.097656 4.582031 L 10.382812 3.230469 L 11.234375 3.230469 L 10.050781 4.414062 L 11.300781 6.269531 L 10.476562 6.269531 L 9.613281 4.84375 L 9.097656 5.351562 L 9.097656 6.269531 Z M 8.460938 6.269531 "/>
<path fill-rule="nonzero" fill="rgb(0%, 0%, 0%)" fill-opacity="1" d="M 12.433594 6.269531 L 11.308594 3.230469 L 12 3.230469 L 12.792969 5.480469 L 13.566406 3.230469 L 14.238281 3.230469 L 13.113281 6.269531 Z M 12.433594 6.269531 "/>
<path fill-rule="nonzero" fill="rgb(0%, 0%, 0%)" fill-opacity="1" d="M 5.238281 10.660156 L 4.121094 10.660156 L 3.785156 11.328125 L 3.191406 11.328125 L 4.78125 8.308594 L 5.425781 8.308594 L 5.882812 11.328125 L 5.332031 11.328125 Z M 5.167969 10.160156 L 5.003906 8.945312 L 4.324219 10.160156 Z M 5.167969 10.160156 "/>
<path fill-rule="nonzero" fill="rgb(0%, 0%, 0%)" fill-opacity="1" d="M 6.253906 11.328125 L 6.839844 8.308594 L 7.417969 8.308594 L 6.929688 10.824219 L 8.363281 10.824219 L 8.265625 11.328125 Z M 6.253906 11.328125 "/>
<path fill-rule="nonzero" fill="rgb(0%, 0%, 0%)" fill-opacity="1" d="M 8.636719 11.328125 L 9.222656 8.308594 L 9.800781 8.308594 L 9.550781 9.59375 L 10.855469 8.308594 L 11.628906 8.308594 L 10.367188 9.492188 L 11.292969 11.328125 L 10.640625 11.328125 L 9.945312 9.890625 L 9.398438 10.40625 L 9.214844 11.328125 Z M 8.636719 11.328125 "/>
<path fill-rule="nonzero" fill="rgb(0%, 0%, 0%)" fill-opacity="1" d="M 13.324219 10.660156 L 12.210938 10.660156 L 11.871094 11.328125 L 11.277344 11.328125 L 12.867188 8.308594 L 13.511719 8.308594 L 13.96875 11.328125 L 13.417969 11.328125 Z M 13.253906 10.160156 L 13.089844 8.945312 L 12.410156 10.160156 Z M 13.253906 10.160156 "/>
<path fill-rule="nonzero" fill="rgb(0%, 0%, 0%)" fill-opacity="1" d="M 16.167969 10.660156 L 15.050781 10.660156 L 14.714844 11.328125 L 14.117188 11.328125 L 15.710938 8.308594 L 16.351562 8.308594 L 16.808594 11.328125 L 16.261719 11.328125 Z M 16.097656 10.160156 L 15.933594 8.945312 L 15.253906 10.160156 Z M 16.097656 10.160156 "/>
</svg>
