<?xml version="1.0" encoding="UTF-8"?>
<svg xmlns="http://www.w3.org/2000/svg" xmlns:xlink="http://www.w3.org/1999/xlink" width="20" height="14.560487" viewBox="0 0 20 14.560487">
<path fill-rule="nonzero" fill="rgb(98.823529%, 82.745098%, 0%)" fill-opacity="1" stroke-width="5.95" stroke-linecap="butt" stroke-linejoin="round" stroke="rgb(0%, 0%, 0%)" stroke-opacity="1" stroke-miterlimit="4" d="M 113.383742 398.188715 L 345.724168 398.188715 C 353.534805 398.188715 359.887457 403.916516 359.887457 410.946089 L 359.887457 573.61563 C 359.887457 580.645203 353.534805 586.320933 345.724168 586.320933 L 113.383742 586.320933 C 105.573105 586.320933 99.220453 580.645203 99.220453 573.61563 L 99.220453 410.946089 C 99.220453 403.916516 105.573105 398.188715 113.383742 398.188715 Z M 113.383742 398.188715 " transform="matrix(0.0750179, 0, 0, 0.0750179, -7.220652, -29.648619)"/>
<path fill-rule="nonzero" fill="rgb(0%, 0%, 0%)" fill-opacity="1" d="M 7.140625 3.15625 L 7.773438 3.15625 L 7.773438 5.082031 C 7.773438 5.332031 7.75 5.527344 7.707031 5.660156 C 7.644531 5.839844 7.53125 5.980469 7.371094 6.089844 C 7.207031 6.195312 6.996094 6.246094 6.730469 6.246094 C 6.417969 6.246094 6.179688 6.164062 6.011719 5.996094 C 5.847656 5.828125 5.761719 5.582031 5.761719 5.257812 L 6.359375 5.191406 C 6.367188 5.363281 6.394531 5.488281 6.4375 5.558594 C 6.507812 5.667969 6.613281 5.722656 6.75 5.722656 C 6.894531 5.722656 6.992188 5.683594 7.050781 5.605469 C 7.109375 5.527344 7.140625 5.367188 7.140625 5.121094 Z M 7.140625 3.15625 "/>
<path fill-rule="nonzero" fill="rgb(0%, 0%, 0%)" fill-opacity="1" d="M 8.460938 6.195312 L 8.460938 3.15625 L 9.097656 3.15625 L 9.097656 4.507812 L 10.382812 3.15625 L 11.234375 3.15625 L 10.050781 4.339844 L 11.300781 6.195312 L 10.476562 6.195312 L 9.613281 4.769531 L 9.097656 5.277344 L 9.097656 6.195312 Z M 8.460938 6.195312 "/>
<path fill-rule="nonzero" fill="rgb(0%, 0%, 0%)" fill-opacity="1" d="M 12.433594 6.195312 L 11.308594 3.15625 L 12 3.15625 L 12.792969 5.40625 L 13.566406 3.15625 L 14.238281 3.15625 L 13.113281 6.195312 Z M 12.433594 6.195312 "/>
<path fill-rule="nonzero" fill="rgb(99.607843%, 8.627451%, 6.27451%)" fill-opacity="1" d="M 1.664062 11.402344 L 1.113281 11.402344 L 1.671875 8.382812 L 2.761719 8.382812 C 2.957031 8.382812 3.109375 8.410156 3.222656 8.460938 C 3.335938 8.511719 3.425781 8.597656 3.492188 8.71875 C 3.554688 8.835938 3.589844 8.976562 3.589844 9.140625 C 3.589844 9.292969 3.5625 9.441406 3.511719 9.585938 C 3.457031 9.730469 3.394531 9.847656 3.316406 9.933594 C 3.242188 10.019531 3.160156 10.085938 3.070312 10.128906 C 2.984375 10.175781 2.867188 10.207031 2.71875 10.230469 C 2.632812 10.246094 2.46875 10.253906 2.230469 10.253906 L 1.878906 10.253906 Z M 1.96875 9.75 L 2.140625 9.75 C 2.429688 9.75 2.625 9.730469 2.722656 9.691406 C 2.820312 9.648438 2.898438 9.582031 2.953125 9.492188 C 3.007812 9.402344 3.039062 9.300781 3.039062 9.195312 C 3.039062 9.121094 3.023438 9.0625 2.992188 9.015625 C 2.964844 8.96875 2.925781 8.933594 2.871094 8.914062 C 2.820312 8.890625 2.707031 8.878906 2.527344 8.878906 L 2.132812 8.878906 Z M 1.96875 9.75 "/>
<path fill-rule="nonzero" fill="rgb(99.607843%, 8.627451%, 6.27451%)" fill-opacity="1" d="M 5.371094 10.738281 L 4.308594 10.738281 L 3.984375 11.402344 L 3.417969 11.402344 L 4.933594 8.382812 L 5.546875 8.382812 L 5.980469 11.402344 L 5.460938 11.402344 Z M 5.300781 10.234375 L 5.148438 9.019531 L 4.5 10.234375 Z M 4.789062 7.707031 L 5.238281 7.707031 L 5.148438 8.210938 L 4.695312 8.210938 Z M 5.558594 7.707031 L 6.007812 7.707031 L 5.917969 8.210938 L 5.464844 8.210938 Z M 5.558594 7.707031 "/>
<path fill-rule="nonzero" fill="rgb(99.607843%, 8.627451%, 6.27451%)" fill-opacity="1" d="M 8.074219 10.738281 L 7.011719 10.738281 L 6.691406 11.402344 L 6.125 11.402344 L 7.640625 8.382812 L 8.253906 8.382812 L 8.6875 11.402344 L 8.164062 11.402344 Z M 8.007812 10.234375 L 7.851562 9.019531 L 7.203125 10.234375 Z M 7.496094 7.707031 L 7.945312 7.707031 L 7.851562 8.210938 L 7.402344 8.210938 Z M 8.265625 7.707031 L 8.714844 7.707031 L 8.621094 8.210938 L 8.171875 8.210938 Z M 8.265625 7.707031 "/>
<path fill-rule="nonzero" fill="rgb(99.607843%, 8.627451%, 6.27451%)" fill-opacity="1" d="M 10.191406 11.402344 L 9.640625 11.402344 L 10.109375 8.886719 L 9.320312 8.886719 L 9.414062 8.382812 L 11.527344 8.382812 L 11.433594 8.886719 L 10.65625 8.886719 Z M 10.191406 11.402344 "/>
<path fill-rule="nonzero" fill="rgb(99.607843%, 8.627451%, 6.27451%)" fill-opacity="1" d="M 12.480469 11.402344 L 11.929688 11.402344 L 12.394531 8.886719 L 11.609375 8.886719 L 11.703125 8.382812 L 13.816406 8.382812 L 13.722656 8.886719 L 12.945312 8.886719 Z M 12.480469 11.402344 "/>
<path fill-rule="nonzero" fill="rgb(99.607843%, 8.627451%, 6.27451%)" fill-opacity="1" d="M 14.949219 11.402344 L 14.398438 11.402344 L 14.617188 10.226562 L 13.878906 8.382812 L 14.464844 8.382812 L 14.796875 9.238281 C 14.878906 9.441406 14.929688 9.589844 14.957031 9.679688 C 15.003906 9.589844 15.054688 9.496094 15.113281 9.394531 L 15.367188 8.996094 L 15.746094 8.382812 L 16.386719 8.382812 L 15.160156 10.285156 Z M 14.949219 11.402344 "/>
<path fill-rule="nonzero" fill="rgb(99.607843%, 8.627451%, 6.27451%)" fill-opacity="1" d="M 17.449219 11.402344 L 16.902344 11.402344 L 17.117188 10.226562 L 16.378906 8.382812 L 16.964844 8.382812 L 17.300781 9.238281 C 17.378906 9.441406 17.429688 9.589844 17.457031 9.679688 C 17.503906 9.589844 17.554688 9.496094 17.613281 9.394531 L 17.871094 8.996094 L 18.246094 8.382812 L 18.886719 8.382812 L 17.660156 10.285156 Z M 17.449219 11.402344 "/>
</svg>
