<?xml version="1.0" encoding="UTF-8"?>
<svg xmlns="http://www.w3.org/2000/svg" xmlns:xlink="http://www.w3.org/1999/xlink" width="20" height="14.560487" viewBox="0 0 20 14.560487">
<path fill-rule="nonzero" fill="rgb(98.823529%, 82.745098%, 0%)" fill-opacity="1" stroke-width="5.95" stroke-linecap="butt" stroke-linejoin="round" stroke="rgb(0%, 0%, 0%)" stroke-opacity="1" stroke-miterlimit="4" d="M 157.223388 498.094599 L 389.563813 498.094599 C 397.374451 498.094599 403.727102 503.822399 403.727102 510.851973 L 403.727102 673.521514 C 403.727102 680.551087 397.374451 686.226817 389.563813 686.226817 L 157.223388 686.226817 C 149.41275 686.226817 143.060098 680.551087 143.060098 673.521514 L 143.060098 510.851973 C 143.060098 503.822399 149.41275 498.094599 157.223388 498.094599 Z M 157.223388 498.094599 " transform="matrix(0.0750179, 0, 0, 0.0750179, -10.50941, -37.143347)"/>
<path fill-rule="nonzero" fill="rgb(0%, 0%, 0%)" fill-opacity="1" d="M 7.140625 1.652344 L 7.773438 1.652344 L 7.773438 3.578125 C 7.773438 3.828125 7.75 4.023438 7.707031 4.160156 C 7.644531 4.335938 7.53125 4.476562 7.371094 4.585938 C 7.207031 4.691406 6.996094 4.746094 6.730469 4.746094 C 6.417969 4.746094 6.179688 4.660156 6.011719 4.496094 C 5.847656 4.324219 5.761719 4.078125 5.761719 3.753906 L 6.359375 3.6875 C 6.367188 3.863281 6.394531 3.984375 6.4375 4.058594 C 6.507812 4.164062 6.613281 4.21875 6.753906 4.21875 C 6.894531 4.21875 6.992188 4.183594 7.050781 4.105469 C 7.113281 4.027344 7.140625 3.863281 7.140625 3.617188 Z M 7.140625 1.652344 "/>
<path fill-rule="nonzero" fill="rgb(0%, 0%, 0%)" fill-opacity="1" d="M 8.460938 4.691406 L 8.460938 1.652344 L 9.097656 1.652344 L 9.097656 3.003906 L 10.382812 1.652344 L 11.234375 1.652344 L 10.050781 2.835938 L 11.300781 4.691406 L 10.476562 4.691406 L 9.613281 3.265625 L 9.097656 3.773438 L 9.097656 4.691406 Z M 8.460938 4.691406 "/>
<path fill-rule="nonzero" fill="rgb(0%, 0%, 0%)" fill-opacity="1" d="M 12.433594 4.691406 L 11.308594 1.652344 L 12 1.652344 L 12.796875 3.902344 L 13.566406 1.652344 L 14.238281 1.652344 L 13.113281 4.691406 Z M 12.433594 4.691406 "/>
<path fill-rule="nonzero" fill="rgb(0%, 0%, 0%)" fill-opacity="1" d="M 1.617188 7.660156 L 1.617188 6.042969 L 2.234375 6.042969 C 2.386719 6.042969 2.5 6.058594 2.570312 6.085938 C 2.640625 6.117188 2.699219 6.167969 2.738281 6.242188 C 2.78125 6.316406 2.804688 6.402344 2.804688 6.496094 C 2.804688 6.617188 2.769531 6.71875 2.707031 6.796875 C 2.644531 6.875 2.546875 6.925781 2.417969 6.945312 C 2.484375 6.988281 2.535156 7.035156 2.578125 7.082031 C 2.617188 7.132812 2.671875 7.21875 2.742188 7.34375 L 2.921875 7.660156 L 2.570312 7.660156 L 2.359375 7.308594 C 2.285156 7.183594 2.230469 7.105469 2.203125 7.070312 C 2.175781 7.039062 2.148438 7.015625 2.117188 7.003906 C 2.085938 6.992188 2.035156 6.984375 1.96875 6.984375 L 1.910156 6.984375 L 1.910156 7.660156 Z M 1.910156 6.726562 L 2.125 6.726562 C 2.265625 6.726562 2.355469 6.71875 2.390625 6.707031 C 2.425781 6.695312 2.453125 6.671875 2.472656 6.640625 C 2.492188 6.605469 2.5 6.566406 2.5 6.519531 C 2.5 6.464844 2.488281 6.417969 2.460938 6.386719 C 2.4375 6.351562 2.398438 6.332031 2.351562 6.324219 C 2.328125 6.320312 2.257812 6.316406 2.136719 6.316406 L 1.910156 6.316406 Z M 1.910156 6.726562 "/>
<path fill-rule="nonzero" fill="rgb(0%, 0%, 0%)" fill-opacity="1" d="M 4.386719 7.660156 L 4.070312 7.660156 L 3.941406 7.292969 L 3.363281 7.292969 L 3.242188 7.660156 L 2.933594 7.660156 L 3.496094 6.042969 L 3.808594 6.042969 Z M 3.847656 7.019531 L 3.648438 6.421875 L 3.453125 7.019531 Z M 3.847656 7.019531 "/>
<path fill-rule="nonzero" fill="rgb(0%, 0%, 0%)" fill-opacity="1" d="M 4.546875 7.660156 L 4.546875 6.042969 L 4.839844 6.042969 L 4.839844 6.761719 L 5.433594 6.042969 L 5.828125 6.042969 L 5.28125 6.671875 L 5.855469 7.660156 L 5.476562 7.660156 L 5.078125 6.902344 L 4.839844 7.171875 L 4.839844 7.660156 Z M 4.546875 7.660156 "/>
<path fill-rule="nonzero" fill="rgb(0%, 0%, 0%)" fill-opacity="1" d="M 6.007812 7.660156 L 6.007812 6.042969 L 7.085938 6.042969 L 7.085938 6.316406 L 6.300781 6.316406 L 6.300781 6.675781 L 7.03125 6.675781 L 7.03125 6.949219 L 6.300781 6.949219 L 6.300781 7.386719 L 7.113281 7.386719 L 7.113281 7.660156 Z M 6.007812 7.660156 "/>
<path fill-rule="nonzero" fill="rgb(0%, 0%, 0%)" fill-opacity="1" d="M 7.367188 7.660156 L 7.367188 6.042969 L 7.652344 6.042969 L 8.246094 7.125 L 8.246094 6.042969 L 8.515625 6.042969 L 8.515625 7.660156 L 8.222656 7.660156 L 7.636719 6.605469 L 7.636719 7.660156 Z M 7.367188 7.660156 "/>
<path fill-rule="nonzero" fill="rgb(0%, 0%, 0%)" fill-opacity="1" d="M 8.832031 7.660156 L 8.832031 6.042969 L 9.117188 6.042969 L 9.710938 7.125 L 9.710938 6.042969 L 9.980469 6.042969 L 9.980469 7.660156 L 9.6875 7.660156 L 9.101562 6.605469 L 9.101562 7.660156 Z M 8.832031 7.660156 "/>
<path fill-rule="nonzero" fill="rgb(0%, 0%, 0%)" fill-opacity="1" d="M 10.289062 6.042969 L 10.582031 6.042969 L 10.582031 6.917969 C 10.582031 7.058594 10.585938 7.148438 10.59375 7.191406 C 10.605469 7.257812 10.636719 7.308594 10.683594 7.351562 C 10.730469 7.390625 10.796875 7.410156 10.878906 7.410156 C 10.960938 7.410156 11.023438 7.390625 11.066406 7.351562 C 11.109375 7.316406 11.132812 7.269531 11.140625 7.210938 C 11.152344 7.15625 11.15625 7.066406 11.15625 6.9375 L 11.15625 6.042969 L 11.449219 6.042969 L 11.449219 6.894531 C 11.449219 7.085938 11.441406 7.222656 11.425781 7.304688 C 11.410156 7.382812 11.378906 7.453125 11.335938 7.507812 C 11.292969 7.5625 11.238281 7.605469 11.164062 7.640625 C 11.09375 7.671875 11 7.6875 10.886719 7.6875 C 10.75 7.6875 10.644531 7.671875 10.570312 7.636719 C 10.5 7.597656 10.445312 7.554688 10.402344 7.496094 C 10.359375 7.4375 10.332031 7.378906 10.320312 7.316406 C 10.300781 7.222656 10.289062 7.085938 10.289062 6.90625 Z M 10.289062 6.042969 "/>
<path fill-rule="nonzero" fill="rgb(0%, 0%, 0%)" fill-opacity="1" d="M 11.683594 7.132812 L 11.96875 7.105469 C 11.984375 7.210938 12.019531 7.289062 12.074219 7.339844 C 12.125 7.390625 12.195312 7.414062 12.285156 7.414062 C 12.378906 7.414062 12.449219 7.390625 12.496094 7.347656 C 12.546875 7.300781 12.570312 7.25 12.570312 7.191406 C 12.570312 7.152344 12.558594 7.121094 12.539062 7.09375 C 12.519531 7.066406 12.484375 7.042969 12.433594 7.023438 C 12.398438 7.011719 12.320312 6.984375 12.199219 6.953125 C 12.042969 6.910156 11.933594 6.855469 11.871094 6.792969 C 11.78125 6.703125 11.734375 6.59375 11.734375 6.46875 C 11.734375 6.382812 11.757812 6.308594 11.796875 6.234375 C 11.839844 6.164062 11.902344 6.109375 11.980469 6.070312 C 12.058594 6.035156 12.152344 6.015625 12.265625 6.015625 C 12.449219 6.015625 12.585938 6.058594 12.675781 6.148438 C 12.769531 6.238281 12.816406 6.355469 12.820312 6.503906 L 12.527344 6.519531 C 12.515625 6.4375 12.488281 6.378906 12.449219 6.339844 C 12.40625 6.304688 12.34375 6.285156 12.261719 6.285156 C 12.175781 6.285156 12.109375 6.304688 12.0625 6.34375 C 12.03125 6.371094 12.015625 6.402344 12.015625 6.445312 C 12.015625 6.484375 12.03125 6.515625 12.058594 6.542969 C 12.097656 6.578125 12.1875 6.613281 12.328125 6.652344 C 12.472656 6.6875 12.578125 6.726562 12.644531 6.769531 C 12.714844 6.808594 12.765625 6.863281 12.804688 6.933594 C 12.84375 7 12.863281 7.085938 12.863281 7.191406 C 12.863281 7.28125 12.839844 7.371094 12.792969 7.449219 C 12.746094 7.53125 12.683594 7.589844 12.597656 7.632812 C 12.511719 7.671875 12.410156 7.691406 12.28125 7.691406 C 12.097656 7.691406 11.957031 7.640625 11.859375 7.546875 C 11.761719 7.453125 11.703125 7.316406 11.683594 7.132812 Z M 11.683594 7.132812 "/>
<path fill-rule="nonzero" fill="rgb(0%, 0%, 0%)" fill-opacity="1" d="M 14.421875 7.660156 L 14.101562 7.660156 L 13.976562 7.292969 L 13.394531 7.292969 L 13.273438 7.660156 L 12.964844 7.660156 L 13.527344 6.042969 L 13.839844 6.042969 Z M 13.878906 7.019531 L 13.679688 6.421875 L 13.484375 7.019531 Z M 13.878906 7.019531 "/>
<path fill-rule="nonzero" fill="rgb(0%, 0%, 0%)" fill-opacity="1" d="M 14.585938 7.660156 L 14.585938 6.054688 L 14.878906 6.054688 L 14.878906 7.386719 L 15.605469 7.386719 L 15.605469 7.660156 Z M 14.585938 7.660156 "/>
<path fill-rule="nonzero" fill="rgb(0%, 0%, 0%)" fill-opacity="1" d="M 15.8125 6.042969 L 16.105469 6.042969 L 16.105469 6.917969 C 16.105469 7.058594 16.109375 7.148438 16.117188 7.191406 C 16.128906 7.257812 16.160156 7.308594 16.207031 7.351562 C 16.253906 7.390625 16.320312 7.410156 16.398438 7.410156 C 16.484375 7.410156 16.546875 7.390625 16.589844 7.351562 C 16.628906 7.316406 16.65625 7.269531 16.664062 7.210938 C 16.671875 7.15625 16.675781 7.066406 16.675781 6.9375 L 16.675781 6.042969 L 16.96875 6.042969 L 16.96875 6.894531 C 16.96875 7.085938 16.960938 7.222656 16.945312 7.304688 C 16.929688 7.382812 16.902344 7.453125 16.859375 7.507812 C 16.816406 7.5625 16.757812 7.605469 16.6875 7.640625 C 16.617188 7.671875 16.523438 7.6875 16.410156 7.6875 C 16.269531 7.6875 16.164062 7.671875 16.09375 7.636719 C 16.023438 7.597656 15.964844 7.554688 15.925781 7.496094 C 15.882812 7.4375 15.855469 7.378906 15.84375 7.316406 C 15.824219 7.222656 15.8125 7.085938 15.8125 6.90625 Z M 15.8125 6.042969 "/>
<path fill-rule="nonzero" fill="rgb(0%, 0%, 0%)" fill-opacity="1" d="M 17.28125 7.660156 L 17.28125 6.042969 L 18.355469 6.042969 L 18.355469 6.316406 L 17.574219 6.316406 L 17.574219 6.675781 L 18.300781 6.675781 L 18.300781 6.949219 L 17.574219 6.949219 L 17.574219 7.386719 L 18.382812 7.386719 L 18.382812 7.660156 Z M 17.28125 7.660156 "/>
<path fill-rule="nonzero" fill="rgb(0%, 0%, 0%)" fill-opacity="1" d="M 5.238281 12.21875 L 4.121094 12.21875 L 3.785156 12.886719 L 3.191406 12.886719 L 4.78125 9.867188 L 5.425781 9.867188 L 5.882812 12.886719 L 5.332031 12.886719 Z M 5.167969 11.714844 L 5.003906 10.5 L 4.324219 11.714844 Z M 5.167969 11.714844 "/>
<path fill-rule="nonzero" fill="rgb(0%, 0%, 0%)" fill-opacity="1" d="M 6.253906 12.886719 L 6.839844 9.867188 L 7.417969 9.867188 L 6.929688 12.382812 L 8.363281 12.382812 L 8.265625 12.886719 Z M 6.253906 12.886719 "/>
<path fill-rule="nonzero" fill="rgb(0%, 0%, 0%)" fill-opacity="1" d="M 8.636719 12.886719 L 9.222656 9.867188 L 9.800781 9.867188 L 9.550781 11.148438 L 10.855469 9.867188 L 11.628906 9.867188 L 10.367188 11.050781 L 11.292969 12.886719 L 10.640625 12.886719 L 9.945312 11.449219 L 9.398438 11.960938 L 9.214844 12.886719 Z M 8.636719 12.886719 "/>
<path fill-rule="nonzero" fill="rgb(0%, 0%, 0%)" fill-opacity="1" d="M 13.324219 12.21875 L 12.210938 12.21875 L 11.871094 12.886719 L 11.277344 12.886719 L 12.867188 9.867188 L 13.511719 9.867188 L 13.96875 12.886719 L 13.417969 12.886719 Z M 13.253906 11.714844 L 13.089844 10.5 L 12.410156 11.714844 Z M 13.253906 11.714844 "/>
<path fill-rule="nonzero" fill="rgb(0%, 0%, 0%)" fill-opacity="1" d="M 16.167969 12.21875 L 15.050781 12.21875 L 14.714844 12.886719 L 14.117188 12.886719 L 15.710938 9.867188 L 16.351562 9.867188 L 16.808594 12.886719 L 16.261719 12.886719 Z M 16.097656 11.714844 L 15.933594 10.5 L 15.253906 11.714844 Z M 16.097656 11.714844 "/>
</svg>
