<?xml version="1.0" encoding="UTF-8"?>
<svg xmlns="http://www.w3.org/2000/svg" xmlns:xlink="http://www.w3.org/1999/xlink" width="14" height="14" viewBox="0 0 14 14">
<path fill-rule="evenodd" fill="rgb(99.607843%, 8.627451%, 6.27451%)" fill-opacity="1" d="M 0.621094 0 L 13.378906 0 C 13.722656 0 14 0.277344 14 0.621094 L 14 13.378906 C 14 13.722656 13.722656 14 13.378906 14 L 0.621094 14 C 0.277344 14 0 13.722656 0 13.378906 L 0 0.621094 C 0 0.277344 0.277344 0 0.621094 0 Z M 0.621094 0 "/>
<path fill-rule="evenodd" fill="rgb(100%, 100%, 100%)" fill-opacity="1" d="M 0.542969 0.542969 L 13.457031 0.542969 L 13.457031 13.457031 L 0.542969 13.457031 Z M 0.542969 0.542969 "/>
<path fill-rule="evenodd" fill="rgb(100%, 2.352941%, 0%)" fill-opacity="1" d="M 12.054688 7 C 12.054688 9.792969 9.792969 12.058594 7 12.058594 C 4.207031 12.058594 1.945312 9.792969 1.945312 7 C 1.945312 4.207031 4.207031 1.941406 7 1.941406 C 9.792969 1.941406 12.054688 4.207031 12.054688 7 Z M 12.054688 7 "/>
</svg>
