<?xml version="1.0" encoding="UTF-8"?>
<svg xmlns="http://www.w3.org/2000/svg" xmlns:xlink="http://www.w3.org/1999/xlink" width="14" height="14" viewBox="0 0 14 14">
<path fill-rule="evenodd" fill="rgb(99.607843%, 8.627451%, 6.27451%)" fill-opacity="1" d="M 0.621094 0 L 13.378906 0 C 13.722656 0 14 0.277344 14 0.621094 L 14 13.378906 C 14 13.722656 13.722656 14 13.378906 14 L 0.621094 14 C 0.277344 14 0 13.722656 0 13.378906 L 0 0.621094 C 0 0.277344 0.277344 0 0.621094 0 Z M 0.621094 0 "/>
<path fill-rule="evenodd" fill="rgb(100%, 100%, 100%)" fill-opacity="1" d="M 0.542969 0.542969 L 13.457031 0.542969 L 13.457031 13.457031 L 0.542969 13.457031 Z M 0.542969 0.542969 "/>
<path fill-rule="nonzero" fill="rgb(99.607843%, 8.627451%, 6.27451%)" fill-opacity="1" d="M 7.003906 2.214844 C 6.167969 2.214844 5.34375 2.257812 4.53125 2.34375 C 3.292969 2.492188 2.335938 3.542969 2.335938 4.8125 C 2.335938 6.003906 3.171875 7 4.285156 7.242188 L 9.371094 8.265625 C 9.792969 8.355469 10.109375 8.726562 10.109375 9.175781 C 10.109375 9.65625 9.75 10.046875 9.289062 10.105469 C 8.535156 10.1875 7.769531 10.230469 6.996094 10.230469 C 6.226562 10.230469 5.464844 10.1875 4.714844 10.105469 C 4.25 10.046875 3.890625 9.652344 3.890625 9.179688 L 3.890625 8.722656 L 2.335938 8.722656 L 2.335938 9.183594 C 2.335938 10.480469 3.328125 11.546875 4.578125 11.660156 C 5.363281 11.742188 6.175781 11.785156 6.996094 11.785156 C 7.832031 11.785156 8.65625 11.742188 9.46875 11.65625 C 10.707031 11.507812 11.664062 10.457031 11.664062 9.1875 C 11.664062 7.984375 10.816406 6.984375 9.683594 6.75 L 4.640625 5.734375 C 4.214844 5.65625 3.890625 5.277344 3.890625 4.824219 C 3.890625 4.34375 4.25 3.953125 4.710938 3.894531 C 5.464844 3.8125 6.230469 3.769531 7.003906 3.769531 C 7.773438 3.769531 8.535156 3.8125 9.285156 3.894531 C 9.75 3.953125 10.109375 4.347656 10.109375 4.820312 L 10.109375 5.046875 L 11.664062 5.046875 L 11.664062 4.816406 C 11.664062 3.519531 10.671875 2.453125 9.421875 2.339844 C 8.636719 2.257812 7.824219 2.214844 7.003906 2.214844 Z M 7.003906 2.214844 "/>
</svg>
