<?xml version="1.0" encoding="UTF-8"?>
<svg xmlns="http://www.w3.org/2000/svg" xmlns:xlink="http://www.w3.org/1999/xlink" width="14" height="14" viewBox="0 0 14 14">
<path fill-rule="nonzero" fill="rgb(100%, 100%, 100%)" fill-opacity="1" stroke-width="1" stroke-linecap="butt" stroke-linejoin="miter" stroke="rgb(0%, 0%, 0%)" stroke-opacity="1" stroke-miterlimit="4" d="M 70.494978 -19.5 C 70.494978 30.194196 30.194196 70.494978 -19.5 70.494978 C -69.194196 70.494978 -109.494978 30.194196 -109.494978 -19.5 C -109.494978 -69.194196 -69.194196 -109.494978 -19.5 -109.494978 C 30.194196 -109.494978 70.494978 -69.194196 70.494978 -19.5 Z M 70.494978 -19.5 " transform="matrix(0.0773481, 0, 0, 0.0773481, 8.508287, 8.508287)"/>
<path fill-rule="nonzero" fill="rgb(99.607843%, 8.627451%, 6.27451%)" fill-opacity="1" d="M 12.722656 7 C 12.722656 10.160156 10.160156 12.722656 7 12.722656 C 3.839844 12.722656 1.277344 10.160156 1.277344 7 C 1.277344 3.839844 3.839844 1.277344 7 1.277344 C 10.160156 1.277344 12.722656 3.839844 12.722656 7 Z M 12.722656 7 "/>
</svg>
