<?xml version="1.0" encoding="UTF-8"?>
<svg xmlns="http://www.w3.org/2000/svg" xmlns:xlink="http://www.w3.org/1999/xlink" width="14" height="15.710148" viewBox="0 0 14 15.710148">
<path fill-rule="nonzero" fill="rgb(100%, 100%, 100%)" fill-opacity="1" stroke-width="3" stroke-linecap="butt" stroke-linejoin="miter" stroke="rgb(0%, 0%, 0%)" stroke-opacity="1" stroke-miterlimit="4" d="M 201.984639 292.230778 L 201.984639 221.153344 C 203.255013 212.197207 209.606884 208.322565 218.054872 206.480523 C 287.607856 185.328793 352.460456 188.631766 414.454715 206.480523 C 423.791964 210.228127 426.777344 216.45296 426.586788 224.011686 L 426.586788 252.213992 C 426.586788 258.375307 422.076959 259.518643 419.282136 259.518643 L 384.791478 259.518643 C 382.123693 247.89472 373.675704 241.288774 359.129921 238.303395 C 327.434086 232.078562 292.117684 232.205599 261.247593 239.319695 C 225.99471 247.513608 242.827168 279.463517 261.247593 281.877228 L 412.295078 305.061557 C 420.870104 306.522487 426.586788 314.7164 426.586788 323.609019 L 426.586788 415.012439 C 425.316413 423.905058 418.964543 427.843218 410.516555 429.68526 C 340.96357 450.83699 276.11097 447.470498 214.116712 429.68526 C 204.779462 425.937656 201.794083 419.712823 201.984639 412.154097 L 201.984639 383.951791 C 201.984639 377.726958 206.494467 376.64714 209.28929 376.64714 L 243.779948 376.64714 C 246.447734 388.271063 254.895722 394.81349 269.441506 397.862388 C 301.137341 404.087221 333.277807 403.896665 364.08438 396.78257 C 395.081509 389.731993 385.744259 343.871487 367.323834 341.457776 L 219.452283 318.972153 C 208.082435 316.939555 201.984639 311.794539 201.984639 292.230778 Z M 201.984639 292.230778 " transform="matrix(0.0614976, 0, 0, 0.0614976, -12.327827, -11.705875)"/>
</svg>
