<?xml version="1.0" encoding="UTF-8"?>
<svg xmlns="http://www.w3.org/2000/svg" xmlns:xlink="http://www.w3.org/1999/xlink" width="14" height="14" viewBox="0 0 14 14">
<path fill-rule="evenodd" fill="rgb(95.686275%, 39.215686%, 5.490196%)" fill-opacity="1" stroke-width="0.484848" stroke-linecap="round" stroke-linejoin="miter" stroke="rgb(0%, 0%, 0%)" stroke-opacity="1" stroke-miterlimit="4" d="M 1.209572 0.239479 L 13.33776 0.239479 C 13.873544 0.239479 14.307853 0.673788 14.307853 1.209572 L 14.307853 13.33776 C 14.307853 13.873544 13.873544 14.307853 13.33776 14.307853 L 1.209572 14.307853 C 0.673788 14.307853 0.239479 13.873544 0.239479 13.33776 L 0.239479 1.209572 C 0.239479 0.673788 0.673788 0.239479 1.209572 0.239479 Z M 1.209572 0.239479 " transform="matrix(0.962376, 0, 0, 0.962376, 0, 0)"/>
<path fill-rule="nonzero" fill="rgb(0%, 0%, 0%)" fill-opacity="1" d="M 3.886719 7.507812 L 4.464844 6.957031 L 5.742188 8.789062 L 6.382812 8.789062 L 4.820312 6.609375 L 6.34375 5.132812 L 5.660156 5.132812 L 3.886719 6.90625 L 3.886719 5.132812 L 3.394531 5.132812 L 3.394531 8.789062 L 3.886719 8.789062 Z M 3.886719 7.507812 "/>
<path fill-rule="nonzero" fill="rgb(0%, 0%, 0%)" fill-opacity="1" d="M 7.367188 7.238281 C 7.367188 6.851562 7.632812 6.53125 8.050781 6.53125 L 8.214844 6.53125 L 8.214844 6.0625 C 8.179688 6.054688 8.15625 6.050781 8.097656 6.050781 C 7.761719 6.050781 7.53125 6.257812 7.347656 6.574219 L 7.339844 6.574219 L 7.339844 6.128906 L 6.917969 6.128906 L 6.917969 8.789062 L 7.367188 8.789062 Z M 7.367188 7.238281 "/>
<path fill-rule="nonzero" fill="rgb(0%, 0%, 0%)" fill-opacity="1" d="M 10.515625 6.886719 C 10.515625 6.75 10.457031 6.050781 9.5 6.050781 C 8.980469 6.050781 8.492188 6.316406 8.492188 6.902344 C 8.492188 7.265625 8.734375 7.453125 9.109375 7.550781 L 9.628906 7.671875 C 10.011719 7.769531 10.15625 7.839844 10.15625 8.054688 C 10.15625 8.351562 9.867188 8.480469 9.546875 8.480469 C 8.917969 8.480469 8.851562 8.140625 8.839844 7.9375 L 8.40625 7.9375 C 8.421875 8.253906 8.496094 8.867188 9.554688 8.867188 C 10.15625 8.867188 10.605469 8.535156 10.605469 7.984375 C 10.605469 7.625 10.414062 7.421875 9.859375 7.28125 L 9.410156 7.167969 C 9.0625 7.082031 8.925781 7.035156 8.925781 6.816406 C 8.925781 6.484375 9.320312 6.4375 9.453125 6.4375 C 10.019531 6.4375 10.082031 6.71875 10.085938 6.886719 Z M 10.515625 6.886719 "/>
<path fill="none" stroke-width="0.727272" stroke-linecap="butt" stroke-linejoin="miter" stroke="rgb(0%, 0%, 0%)" stroke-opacity="1" stroke-miterlimit="4" d="M 0.560137 13.987195 L 13.987195 0.560137 " transform="matrix(0.962376, 0, 0, 0.962376, 0, 0)"/>
</svg>
