<?xml version="1.0" encoding="UTF-8"?>
<svg xmlns="http://www.w3.org/2000/svg" xmlns:xlink="http://www.w3.org/1999/xlink" width="1.91955" height="24" viewBox="0 0 1.91955 24">
<path fill-rule="evenodd" fill="rgb(3.137255%, 25.490196%, 69.411765%)" fill-opacity="1" d="M 0.160156 0 L 1.757812 0 C 1.847656 0 1.917969 0.0703125 1.917969 0.160156 L 1.917969 23.839844 C 1.917969 23.929688 1.847656 24 1.757812 24 L 0.160156 24 C 0.0703125 24 0 23.929688 0 23.839844 L 0 0.160156 C 0 0.0703125 0.0703125 0 0.160156 0 Z M 0.160156 0 "/>
<path fill-rule="nonzero" fill="rgb(100%, 100%, 100%)" fill-opacity="1" d="M 0.453125 1.113281 L 0.875 1.113281 L 0.875 2.214844 L 1.042969 2.214844 L 1.042969 1.113281 L 1.46875 1.113281 L 1.46875 0.960938 L 0.453125 0.960938 Z M 0.453125 1.113281 "/>
<path fill-rule="nonzero" fill="rgb(100%, 100%, 100%)" fill-opacity="1" d="M 1.328125 4.082031 L 1.328125 3.167969 L 1.171875 3.167969 L 1.171875 3.671875 C 1.171875 3.804688 1.117188 3.976562 0.921875 3.976562 C 0.824219 3.976562 0.746094 3.925781 0.746094 3.773438 L 0.746094 3.167969 L 0.59375 3.167969 L 0.59375 3.824219 C 0.59375 4.042969 0.753906 4.109375 0.890625 4.109375 C 1.035156 4.109375 1.113281 4.050781 1.179688 3.945312 L 1.183594 3.949219 L 1.183594 4.082031 Z M 1.328125 4.082031 "/>
<path fill-rule="nonzero" fill="rgb(100%, 100%, 100%)" fill-opacity="1" d="M 0.535156 5.488281 C 0.535156 5.726562 0.667969 5.972656 0.957031 5.972656 C 1.25 5.972656 1.382812 5.726562 1.382812 5.488281 C 1.382812 5.253906 1.25 5.007812 0.957031 5.007812 C 0.667969 5.007812 0.535156 5.253906 0.535156 5.488281 Z M 0.695312 5.488281 C 0.695312 5.367188 0.738281 5.140625 0.957031 5.140625 C 1.179688 5.140625 1.222656 5.367188 1.222656 5.488281 C 1.222656 5.613281 1.179688 5.839844 0.957031 5.839844 C 0.738281 5.839844 0.695312 5.613281 0.695312 5.488281 Z M 0.695312 5.488281 "/>
<path fill-rule="nonzero" fill="rgb(100%, 100%, 100%)" fill-opacity="1" d="M 0.347656 7.8125 L 0.5 7.8125 L 0.5 7.316406 C 0.5 7.070312 0.652344 7.011719 0.738281 7.011719 C 0.851562 7.011719 0.882812 7.105469 0.882812 7.183594 L 0.882812 7.8125 L 1.035156 7.8125 L 1.035156 7.257812 C 1.035156 7.132812 1.121094 7.011719 1.25 7.011719 C 1.382812 7.011719 1.421875 7.097656 1.421875 7.222656 L 1.421875 7.8125 L 1.574219 7.8125 L 1.574219 7.183594 C 1.574219 6.925781 1.386719 6.875 1.292969 6.875 C 1.148438 6.875 1.089844 6.9375 1.011719 7.023438 C 0.984375 6.972656 0.933594 6.875 0.769531 6.875 C 0.605469 6.875 0.527344 6.980469 0.496094 7.03125 L 0.492188 7.03125 L 0.492188 6.902344 L 0.347656 6.902344 Z M 0.347656 7.8125 "/>
<path fill-rule="nonzero" fill="rgb(100%, 100%, 100%)" fill-opacity="1" d="M 0.722656 9.042969 C 0.734375 8.976562 0.757812 8.867188 0.933594 8.867188 C 1.078125 8.867188 1.148438 8.921875 1.148438 9.015625 C 1.148438 9.109375 1.105469 9.121094 1.066406 9.125 L 0.8125 9.15625 C 0.558594 9.1875 0.535156 9.367188 0.535156 9.441406 C 0.535156 9.597656 0.65625 9.707031 0.824219 9.707031 C 1 9.707031 1.09375 9.621094 1.152344 9.558594 C 1.15625 9.628906 1.179688 9.695312 1.316406 9.695312 C 1.351562 9.695312 1.371094 9.6875 1.398438 9.679688 L 1.398438 9.566406 C 1.382812 9.570312 1.363281 9.574219 1.347656 9.574219 C 1.316406 9.574219 1.296875 9.558594 1.296875 9.519531 L 1.296875 8.996094 C 1.296875 8.761719 1.03125 8.742188 0.957031 8.742188 C 0.734375 8.742188 0.589844 8.828125 0.582031 9.042969 Z M 1.144531 9.363281 C 1.144531 9.484375 1.003906 9.578125 0.863281 9.578125 C 0.746094 9.578125 0.695312 9.519531 0.695312 9.417969 C 0.695312 9.304688 0.816406 9.28125 0.890625 9.273438 C 1.082031 9.246094 1.121094 9.234375 1.144531 9.214844 Z M 1.144531 9.363281 "/>
<path fill-rule="nonzero" fill="rgb(100%, 100%, 100%)" fill-opacity="1" d="M 0.957031 11.015625 C 0.957031 10.882812 1.046875 10.769531 1.191406 10.769531 L 1.246094 10.769531 L 1.246094 10.613281 C 1.234375 10.609375 1.226562 10.609375 1.207031 10.609375 C 1.09375 10.609375 1.011719 10.679688 0.953125 10.785156 L 0.949219 10.785156 L 0.949219 10.632812 L 0.804688 10.632812 L 0.804688 11.546875 L 0.957031 11.546875 Z M 0.957031 11.015625 "/>
<path fill-rule="nonzero" fill="rgb(100%, 100%, 100%)" fill-opacity="1" d="M 1.035156 12.5 L 0.882812 12.5 L 0.882812 13.410156 L 1.035156 13.410156 Z M 1.035156 12.332031 L 1.035156 12.160156 L 0.882812 12.160156 L 0.882812 12.332031 Z M 1.035156 12.332031 "/>
<path fill-rule="nonzero" fill="rgb(100%, 100%, 100%)" fill-opacity="1" d="M 1.035156 14.027344 L 0.882812 14.027344 L 0.882812 15.277344 L 1.035156 15.277344 Z M 1.035156 14.027344 "/>
<path fill-rule="nonzero" fill="rgb(100%, 100%, 100%)" fill-opacity="1" d="M 0.722656 16.507812 C 0.734375 16.4375 0.757812 16.332031 0.933594 16.332031 C 1.078125 16.332031 1.148438 16.386719 1.148438 16.480469 C 1.148438 16.570312 1.105469 16.585938 1.066406 16.589844 L 0.8125 16.621094 C 0.558594 16.652344 0.535156 16.832031 0.535156 16.90625 C 0.535156 17.0625 0.65625 17.167969 0.824219 17.167969 C 1 17.167969 1.09375 17.085938 1.152344 17.023438 C 1.15625 17.089844 1.179688 17.160156 1.316406 17.160156 C 1.351562 17.160156 1.371094 17.152344 1.398438 17.144531 L 1.398438 17.03125 C 1.382812 17.035156 1.363281 17.039062 1.347656 17.039062 C 1.316406 17.039062 1.296875 17.023438 1.296875 16.984375 L 1.296875 16.460938 C 1.296875 16.226562 1.03125 16.207031 0.957031 16.207031 C 0.734375 16.207031 0.589844 16.289062 0.582031 16.507812 Z M 1.144531 16.828125 C 1.144531 16.949219 1.003906 17.042969 0.863281 17.042969 C 0.746094 17.042969 0.695312 16.984375 0.695312 16.882812 C 0.695312 16.769531 0.816406 16.746094 0.890625 16.734375 C 1.082031 16.710938 1.121094 16.695312 1.144531 16.679688 Z M 1.144531 16.828125 "/>
</svg>
