<?xml version="1.0" encoding="UTF-8"?>
<svg xmlns="http://www.w3.org/2000/svg" xmlns:xlink="http://www.w3.org/1999/xlink" width="5.640538" height="18" viewBox="0 0 5.640538 18">
<path fill-rule="nonzero" fill="rgb(95.686275%, 39.215686%, 5.490196%)" fill-opacity="1" d="M 3.894531 0.820312 L 3.875 0.851562 L 3.769531 1 L 0.984375 5.050781 L 0.820312 5.285156 L 0.851562 5.328125 L 0.988281 5.519531 L 1.160156 5.757812 L 1.3125 5.972656 L 1.34375 6.015625 L 1.394531 5.996094 L 1.640625 5.902344 L 4.179688 4.929688 L 4.820312 4.929688 L 4.820312 0.820312 Z M 3.894531 0.820312 "/>
<path fill-rule="nonzero" fill="rgb(0%, 0%, 0%)" fill-opacity="1" d="M 4.820312 1.234375 L 4.109375 1.234375 L 1.324219 5.28125 L 1.492188 5.519531 L 4.101562 4.519531 L 4.820312 4.519531 Z M 4.820312 1.234375 "/>
<path fill-rule="evenodd" fill="rgb(95.686275%, 39.215686%, 5.490196%)" fill-opacity="1" d="M 4.28125 4.519531 L 4.820312 4.519531 L 4.820312 7.804688 L 4.28125 7.804688 Z M 4.28125 4.519531 "/>
<path fill-rule="evenodd" fill="rgb(95.686275%, 39.215686%, 5.490196%)" fill-opacity="1" d="M 4.28125 10.914062 L 4.820312 10.914062 L 4.820312 14.203125 L 4.28125 14.203125 Z M 4.28125 10.914062 "/>
<path fill-rule="evenodd" fill="rgb(0%, 0%, 0%)" fill-opacity="1" d="M 4.28125 7.75 L 4.820312 7.75 L 4.820312 11.039062 L 4.28125 11.039062 Z M 4.28125 7.75 "/>
<path fill-rule="evenodd" fill="rgb(0%, 0%, 0%)" fill-opacity="1" d="M 4.28125 13.890625 L 4.820312 13.890625 L 4.820312 17.179688 L 4.28125 17.179688 Z M 4.28125 13.890625 "/>
</svg>
