<?xml version="1.0" encoding="UTF-8"?>
<svg xmlns="http://www.w3.org/2000/svg" xmlns:xlink="http://www.w3.org/1999/xlink" width="12" height="15.338637" viewBox="0 0 12 15.338637">
<path fill-rule="nonzero" fill="rgb(100%, 100%, 0%)" fill-opacity="1" d="M 0.0585938 0 L 11.941406 0 C 11.972656 0 12 0.015625 12 0.0390625 L 12 15.296875 C 12 15.320312 11.972656 15.339844 11.941406 15.339844 L 0.0585938 15.339844 C 0.0273438 15.339844 0 15.320312 0 15.296875 L 0 0.0390625 C 0 0.015625 0.0273438 0 0.0585938 0 Z M 0.0585938 0 "/>
<path fill-rule="nonzero" fill="rgb(0%, 0%, 0%)" fill-opacity="1" d="M 11.253906 14.589844 L 0.746094 14.589844 L 6 0.746094 Z M 11.253906 14.589844 "/>
<path fill-rule="nonzero" fill="rgb(100%, 100%, 0%)" fill-opacity="1" d="M 0.574219 7.785156 L 11.425781 7.785156 C 11.457031 7.785156 11.480469 7.804688 11.480469 7.828125 L 11.480469 8.894531 C 11.480469 8.914062 11.457031 8.933594 11.425781 8.933594 L 0.574219 8.933594 C 0.542969 8.933594 0.519531 8.914062 0.519531 8.894531 L 0.519531 7.828125 C 0.519531 7.804688 0.542969 7.785156 0.574219 7.785156 Z M 0.574219 7.785156 "/>
</svg>
