<?xml version="1.0" encoding="UTF-8"?>
<svg xmlns="http://www.w3.org/2000/svg" xmlns:xlink="http://www.w3.org/1999/xlink" width="4.885163" height="18" viewBox="0 0 4.885163 18">
<path fill="none" stroke-width="7.55906" stroke-linecap="butt" stroke-linejoin="miter" stroke="rgb(0%, 0%, 0%)" stroke-opacity="1" stroke-miterlimit="4" d="M 4.293725 3.772058 L 20.80651 3.772058 C 21.087408 3.772058 21.308114 3.932571 21.308114 4.133212 L 21.308114 88.322331 C 21.308114 88.522973 21.087408 88.683486 20.80651 88.683486 L 4.293725 88.683486 C 4.012827 88.683486 3.772058 88.522973 3.772058 88.322331 L 3.772058 4.133212 C 3.772058 3.932571 4.012827 3.772058 4.293725 3.772058 Z M 4.293725 3.772058 " transform="matrix(0.194688, 0, 0, 0.194688, 0, 0)"/>
<path fill-rule="nonzero" fill="rgb(100%, 100%, 100%)" fill-opacity="1" d="M 0.835938 0.734375 L 4.050781 0.734375 C 4.105469 0.734375 4.148438 0.765625 4.148438 0.804688 L 4.148438 17.195312 C 4.148438 17.234375 4.105469 17.265625 4.050781 17.265625 L 0.835938 17.265625 C 0.78125 17.265625 0.734375 17.234375 0.734375 17.195312 L 0.734375 0.804688 C 0.734375 0.765625 0.78125 0.734375 0.835938 0.734375 Z M 0.835938 0.734375 "/>
<path fill-rule="nonzero" fill="rgb(0%, 0%, 0%)" fill-opacity="1" d="M 2.265625 5.085938 L 1.5 5.085938 L 1.5 1.425781 L 3.597656 1.425781 L 3.597656 2.0625 L 2.265625 2.0625 L 2.265625 3.003906 L 3.503906 3.003906 L 3.503906 3.640625 L 2.265625 3.640625 Z M 1.039062 -0.394531 "/>
<path fill-rule="nonzero" fill="rgb(0%, 0%, 0%)" fill-opacity="1" d="M 3.742188 10.214844 L 1.183594 10.214844 L 1.183594 9.675781 L 2.101562 8.746094 C 2.285156 8.558594 2.433594 8.398438 2.546875 8.269531 C 2.660156 8.140625 2.742188 8.023438 2.792969 7.917969 C 2.847656 7.816406 2.871094 7.707031 2.871094 7.585938 C 2.871094 7.4375 2.832031 7.328125 2.75 7.257812 C 2.671875 7.183594 2.5625 7.148438 2.425781 7.148438 C 2.285156 7.148438 2.148438 7.179688 2.015625 7.246094 C 1.882812 7.308594 1.742188 7.402344 1.59375 7.519531 L 1.175781 7.027344 C 1.28125 6.933594 1.390625 6.847656 1.507812 6.769531 C 1.628906 6.691406 1.765625 6.628906 1.921875 6.578125 C 2.074219 6.527344 2.265625 6.503906 2.484375 6.503906 C 2.722656 6.503906 2.929688 6.546875 3.101562 6.632812 C 3.273438 6.71875 3.40625 6.839844 3.5 6.988281 C 3.59375 7.136719 3.640625 7.304688 3.640625 7.492188 C 3.640625 7.695312 3.601562 7.878906 3.519531 8.046875 C 3.4375 8.214844 3.324219 8.378906 3.171875 8.542969 C 3.019531 8.707031 2.835938 8.890625 2.621094 9.085938 L 2.148438 9.527344 L 2.148438 9.5625 L 3.742188 9.5625 Z M 0.980469 4.734375 "/>
</svg>
