<?xml version="1.0" encoding="UTF-8"?>
<svg xmlns="http://www.w3.org/2000/svg" xmlns:xlink="http://www.w3.org/1999/xlink" width="14" height="14.012489" viewBox="0 0 14 14.012489">
<path fill-rule="nonzero" fill="rgb(100%, 100%, 100%)" fill-opacity="1" stroke-width="3.72396" stroke-linecap="butt" stroke-linejoin="miter" stroke="rgb(99.607843%, 8.627451%, 6.27451%)" stroke-opacity="1" stroke-miterlimit="4" d="M 3470.716711 493.801595 C 3470.743659 519.455949 3449.939918 540.259689 3424.285564 540.259689 C 3398.631211 540.259689 3377.82747 519.455949 3377.854418 493.801595 C 3377.82747 468.120293 3398.631211 447.316553 3424.285564 447.316553 C 3449.939918 447.316553 3470.743659 468.120293 3470.716711 493.801595 Z M 3470.716711 493.801595 " transform="matrix(0.144956, 0, 0, 0.144956, -489.370406, -64.571644)"/>
<path fill-rule="nonzero" fill="rgb(99.607843%, 8.627451%, 6.27451%)" fill-opacity="1" d="M 0.691406 4.65625 C 0.417969 5.390625 0.269531 6.183594 0.269531 7.007812 C 0.269531 7.832031 0.417969 8.621094 0.691406 9.355469 L 13.3125 9.355469 C 13.582031 8.621094 13.730469 7.832031 13.730469 7.007812 C 13.730469 6.183594 13.582031 5.390625 13.3125 4.65625 Z M 0.691406 4.65625 "/>
</svg>
