<?xml version="1.0" encoding="UTF-8"?>
<svg xmlns="http://www.w3.org/2000/svg" xmlns:xlink="http://www.w3.org/1999/xlink" width="7" height="12" viewBox="0 0 7 12">
<path fill-rule="evenodd" fill="rgb(10.588235%, 10.588235%, 10.588235%)" fill-opacity="1" d="M 0.324219 0 L 6.675781 0 C 6.855469 0 7 0.148438 7 0.328125 L 7 11.671875 C 7 11.851562 6.855469 12 6.675781 12 L 0.324219 12 C 0.144531 12 0 11.851562 0 11.671875 L 0 0.328125 C 0 0.148438 0.144531 0 0.324219 0 Z M 0.324219 0 "/>
<path fill-rule="evenodd" fill="rgb(81.568629%, 82.352942%, 56.862748%)" fill-opacity="1" d="M 4.757812 2.957031 C 4.757812 3.648438 4.195312 4.214844 3.5 4.214844 C 2.804688 4.214844 2.242188 3.648438 2.242188 2.957031 C 2.242188 2.261719 2.804688 1.699219 3.5 1.699219 C 4.195312 1.699219 4.757812 2.261719 4.757812 2.957031 Z M 4.757812 2.957031 "/>
<path fill-rule="evenodd" fill="rgb(81.568629%, 82.352942%, 56.862748%)" fill-opacity="1" d="M 4.757812 9.042969 C 4.757812 9.738281 4.195312 10.300781 3.5 10.300781 C 2.804688 10.300781 2.242188 9.738281 2.242188 9.042969 C 2.242188 8.351562 2.804688 7.785156 3.5 7.785156 C 4.195312 7.785156 4.757812 8.351562 4.757812 9.042969 Z M 4.757812 9.042969 "/>
</svg>
