<?xml version="1.0" encoding="UTF-8"?>
<svg xmlns="http://www.w3.org/2000/svg" xmlns:xlink="http://www.w3.org/1999/xlink" width="3.804328" height="36" viewBox="0 0 3.804328 36">
<path fill="none" stroke-width="0.3" stroke-linecap="butt" stroke-linejoin="miter" stroke="rgb(100%, 100%, 100%)" stroke-opacity="1" stroke-miterlimit="4" d="M 0.149831 0.149831 L 2.282423 0.149831 L 2.282423 8.969872 L 0.149831 8.969872 Z M 0.149831 0.149831 " transform="matrix(1.564264, 0, 0, 1.564264, 0, 0)"/>
<path fill-rule="nonzero" fill="rgb(0%, 0%, 0%)" fill-opacity="1" d="M 0.234375 0.234375 L 3.566406 0.234375 L 3.566406 14.03125 L 0.234375 14.03125 Z M 0.234375 0.234375 "/>
<path fill="none" stroke-width="0.219551" stroke-linecap="butt" stroke-linejoin="miter" stroke="rgb(100%, 100%, 100%)" stroke-opacity="1" stroke-miterlimit="4" d="M 0.109876 9.229578 L 2.322378 9.229578 L 2.322378 13.784435 L 0.109876 13.784435 Z M 0.109876 9.229578 " transform="matrix(1.564264, 0, 0, 1.564264, 0, 0)"/>
<path fill-rule="nonzero" fill="rgb(100%, 100%, 100%)" fill-opacity="1" d="M 0.171875 14.4375 L 3.632812 14.4375 L 3.632812 21.5625 L 0.171875 21.5625 Z M 0.171875 14.4375 "/>
<path fill="none" stroke-width="0.3" stroke-linecap="butt" stroke-linejoin="miter" stroke="rgb(100%, 100%, 100%)" stroke-opacity="1" stroke-miterlimit="4" d="M 0.149831 14.044142 L 2.282423 14.044142 L 2.282423 22.864183 L 0.149831 22.864183 Z M 0.149831 14.044142 " transform="matrix(1.564264, 0, 0, 1.564264, 0, 0)"/>
<path fill-rule="nonzero" fill="rgb(0%, 0%, 0%)" fill-opacity="1" d="M 0.234375 21.96875 L 3.566406 21.96875 L 3.566406 35.765625 L 0.234375 35.765625 Z M 0.234375 21.96875 "/>
<path fill-rule="evenodd" fill="rgb(0%, 68.235294%, 41.960784%)" fill-opacity="1" d="M 3.300781 23.695312 C 3.300781 24.46875 2.671875 25.097656 1.902344 25.097656 C 1.128906 25.097656 0.511719 24.46875 0.511719 23.695312 C 0.511719 22.925781 1.128906 22.300781 1.902344 22.300781 C 2.671875 22.300781 3.300781 22.925781 3.300781 23.695312 Z M 3.300781 23.695312 "/>
<path fill-rule="evenodd" fill="rgb(100%, 74.509804%, 0%)" fill-opacity="1" d="M 3.300781 34.035156 C 3.300781 34.804688 2.671875 35.433594 1.902344 35.433594 C 1.128906 35.433594 0.511719 34.804688 0.511719 34.035156 C 0.511719 33.261719 1.128906 32.636719 1.902344 32.636719 C 2.671875 32.636719 3.300781 33.261719 3.300781 34.035156 Z M 3.300781 34.035156 "/>
</svg>
