<?xml version="1.0" encoding="UTF-8"?>
<svg xmlns="http://www.w3.org/2000/svg" xmlns:xlink="http://www.w3.org/1999/xlink" width="10" height="26" viewBox="0 0 10 26">
<path fill-rule="nonzero" fill="rgb(100%, 89.803922%, 0%)" fill-opacity="0.96078" stroke-width="1.51552" stroke-linecap="round" stroke-linejoin="round" stroke="rgb(100%, 100%, 100%)" stroke-opacity="0.96078" stroke-miterlimit="4" d="M -0.200845 -1.206959 L 10.228843 -1.206959 L 10.228843 11.976635 L -0.200845 11.976635 Z M -0.200845 -1.206959 " transform="matrix(1, 0, 0, 1, -0.0452489, 13.265553)"/>
<path fill-rule="evenodd" fill="rgb(0%, 0%, 0%)" fill-opacity="1" d="M 2.101562 14.347656 L 4.375 22.835938 L 5.554688 22.835938 L 7.828125 14.347656 L 6.738281 14.347656 L 4.964844 20.871094 L 3.191406 14.347656 Z M 2.101562 14.347656 "/>
<path fill-rule="nonzero" fill="rgb(51.372549%, 51.372549%, 51.372549%)" fill-opacity="1" d="M -0.960938 0 L 10.996094 0 L 10.996094 11.941406 L -0.960938 11.941406 Z M -0.960938 0 "/>
<path fill-rule="nonzero" fill="rgb(0%, 0%, 0%)" fill-opacity="1" d="M 0.902344 4.359375 C 1.789062 2.085938 4.355469 0.960938 6.628906 1.851562 C 8.90625 2.742188 10.023438 5.308594 9.136719 7.582031 C 8.242188 9.863281 5.683594 10.980469 3.402344 10.089844 C 1.128906 9.199219 0.0078125 6.640625 0.902344 4.359375 Z M 0.902344 4.359375 "/>
<path fill-rule="nonzero" fill="rgb(100%, 100%, 100%)" fill-opacity="1" stroke-width="0.0633648" stroke-linecap="round" stroke-linejoin="round" stroke="rgb(100%, 100%, 100%)" stroke-opacity="1" stroke-miterlimit="4" d="M 6.947402 13.871123 C 7.588027 13.871123 8.107559 14.390655 8.107559 15.03128 C 8.107559 15.675811 7.588027 16.191436 6.947402 16.191436 C 6.310684 16.191436 5.787246 15.675811 5.787246 15.03128 C 5.787246 14.390655 6.310684 13.871123 6.947402 13.871123 Z M 6.947402 13.871123 " transform="matrix(0.000000000000000061, 1, -1, 0.000000000000000061, 20.050811, 1.009629)"/>
<path fill-rule="nonzero" fill="rgb(100%, 100%, 100%)" fill-opacity="1" stroke-width="0.0633648" stroke-linecap="round" stroke-linejoin="round" stroke="rgb(100%, 100%, 100%)" stroke-opacity="1" stroke-miterlimit="4" d="M 3.021621 13.871123 C 3.666152 13.871123 4.181777 14.390655 4.181777 15.03128 C 4.181777 15.675811 3.666152 16.191436 3.021621 16.191436 C 2.37709 16.191436 1.861465 15.675811 1.861465 15.03128 C 1.861465 14.390655 2.37709 13.871123 3.021621 13.871123 Z M 3.021621 13.871123 " transform="matrix(0.000000000000000061, 1, -1, 0.000000000000000061, 20.050811, 1.009629)"/>
</svg>
