<?xml version="1.0" encoding="UTF-8"?>
<svg xmlns="http://www.w3.org/2000/svg" xmlns:xlink="http://www.w3.org/1999/xlink" width="10" height="28.814242" viewBox="0 0 10 28.814242">
<path fill-rule="nonzero" fill="rgb(51.372549%, 51.372549%, 51.372549%)" fill-opacity="1" d="M 0 0 L 10.003906 0 L 10.003906 19.996094 L 0 19.996094 Z M 0 0 "/>
<path fill-rule="nonzero" fill="rgb(0%, 0%, 0%)" fill-opacity="1" d="M 9.371094 15 C 9.371094 17.417969 7.414062 19.375 4.996094 19.375 C 2.582031 19.375 0.621094 17.417969 0.621094 15 C 0.621094 12.582031 2.582031 10.625 4.996094 10.625 C 7.414062 10.625 9.371094 12.582031 9.371094 15 Z M 9.371094 15 "/>
<path fill-rule="nonzero" fill="rgb(0%, 0%, 0%)" fill-opacity="1" d="M 4.996094 9.371094 C 2.582031 9.371094 0.621094 7.414062 0.621094 4.996094 C 0.621094 2.582031 2.582031 0.621094 4.996094 0.621094 C 7.414062 0.621094 9.371094 2.582031 9.371094 4.996094 C 9.371094 7.414062 7.414062 9.371094 4.996094 9.371094 Z M 4.996094 9.371094 "/>
<path fill-rule="nonzero" fill="rgb(100%, 100%, 100%)" fill-opacity="1" stroke-width="1" stroke-linecap="round" stroke-linejoin="round" stroke="rgb(0%, 0%, 0%)" stroke-opacity="1" stroke-miterlimit="4" d="M 1.65625 1052.587103 L 15.031247 1052.587103 L 15.031247 1065.9621 L 1.65625 1065.9621 Z M 1.65625 1052.587103 " transform="matrix(0.625, 0, 0, 0.625, 0, -637.726435)"/>
<path fill-rule="nonzero" fill="rgb(0%, 0%, 0%)" fill-opacity="1" d="M 2.144531 22.570312 L 2.144531 26.242188 L 3.863281 26.242188 C 5.140625 26.242188 5.273438 24.890625 4.503906 24.410156 C 5.273438 23.921875 5.140625 22.570312 3.863281 22.570312 Z M 3.9375 23 C 4.824219 23 4.726562 24.207031 3.9375 24.207031 L 2.558594 24.207031 L 2.558594 23 Z M 2.558594 24.613281 C 3.046875 24.613281 3.453125 24.613281 3.9375 24.613281 C 4.726562 24.613281 4.824219 25.8125 3.9375 25.8125 L 2.558594 25.8125 Z M 2.558594 24.613281 "/>
<path fill-rule="evenodd" fill="rgb(0%, 0%, 0%)" fill-opacity="1" d="M 5.597656 22.570312 L 5.597656 24.917969 C 5.597656 25.550781 6.027344 26.242188 6.957031 26.242188 C 7.886719 26.242188 8.320312 25.550781 8.320312 24.917969 L 8.320312 22.570312 L 7.78125 22.570312 L 7.78125 24.761719 C 7.78125 25.511719 7.359375 25.664062 6.957031 25.671875 C 6.550781 25.664062 6.128906 25.511719 6.128906 24.761719 L 6.128906 22.570312 Z M 5.597656 22.570312 "/>
<path fill-rule="nonzero" fill="rgb(0%, 0%, 0%)" fill-opacity="1" d="M 6.273438 21.714844 L 6.746094 21.714844 L 6.746094 22.179688 L 6.273438 22.179688 Z M 6.273438 21.714844 "/>
<path fill-rule="nonzero" fill="rgb(0%, 0%, 0%)" fill-opacity="1" d="M 7.171875 21.714844 L 7.640625 21.714844 L 7.640625 22.179688 L 7.171875 22.179688 Z M 7.171875 21.714844 "/>
<path fill-rule="nonzero" fill="rgb(100%, 100%, 100%)" fill-opacity="1" d="M 4.464844 11.910156 L 5.746094 11.910156 L 5.746094 18.324219 L 4.464844 18.324219 Z M 4.464844 11.910156 "/>
</svg>
