<?xml version="1.0" encoding="UTF-8"?>
<svg xmlns="http://www.w3.org/2000/svg" xmlns:xlink="http://www.w3.org/1999/xlink" width="5.205759" height="15" viewBox="0 0 5.205759 15">
<path fill-rule="nonzero" fill="rgb(51.372549%, 51.372549%, 51.372549%)" fill-opacity="1" d="M 0 0 L 5.207031 0 L 5.207031 10.410156 L 0 10.410156 Z M 0 0 "/>
<path fill-rule="nonzero" fill="rgb(0%, 0%, 0%)" fill-opacity="1" d="M 4.878906 7.808594 C 4.878906 9.066406 3.859375 10.085938 2.601562 10.085938 C 1.34375 10.085938 0.324219 9.066406 0.324219 7.808594 C 0.324219 6.550781 1.34375 5.53125 2.601562 5.53125 C 3.859375 5.53125 4.878906 6.550781 4.878906 7.808594 Z M 4.878906 7.808594 "/>
<path fill-rule="nonzero" fill="rgb(0%, 0%, 0%)" fill-opacity="1" d="M 2.601562 4.878906 C 1.34375 4.878906 0.324219 3.859375 0.324219 2.601562 C 0.324219 1.34375 1.34375 0.324219 2.601562 0.324219 C 3.859375 0.324219 4.878906 1.34375 4.878906 2.601562 C 4.878906 3.859375 3.859375 4.878906 2.601562 4.878906 Z M 2.601562 4.878906 "/>
<path fill-rule="nonzero" fill="rgb(100%, 100%, 100%)" fill-opacity="1" stroke-width="1" stroke-linecap="round" stroke-linejoin="round" stroke="rgb(0%, 0%, 0%)" stroke-opacity="1" stroke-miterlimit="4" d="M 1.656819 1052.58603 L 15.031427 1052.58603 L 15.031427 1065.960638 L 1.656819 1065.960638 Z M 1.656819 1052.58603 " transform="matrix(0.32536, 0, 0, 0.32536, 0, -331.985016)"/>
<path fill-rule="nonzero" fill="rgb(0%, 0%, 0%)" fill-opacity="1" d="M 1.117188 11.75 L 1.117188 13.660156 L 2.011719 13.660156 C 2.675781 13.660156 2.746094 12.957031 2.34375 12.707031 C 2.746094 12.453125 2.675781 11.75 2.011719 11.75 Z M 2.050781 11.972656 C 2.511719 11.972656 2.460938 12.601562 2.050781 12.601562 L 1.332031 12.601562 L 1.332031 11.972656 Z M 1.332031 12.8125 C 1.585938 12.8125 1.796875 12.8125 2.050781 12.8125 C 2.460938 12.8125 2.511719 13.4375 2.050781 13.4375 L 1.332031 13.4375 Z M 1.332031 12.8125 "/>
<path fill-rule="evenodd" fill="rgb(0%, 0%, 0%)" fill-opacity="1" d="M 2.914062 11.75 L 2.914062 12.972656 C 2.914062 13.300781 3.136719 13.660156 3.621094 13.660156 C 4.105469 13.660156 4.332031 13.300781 4.332031 12.972656 L 4.332031 11.75 L 4.050781 11.75 L 4.050781 12.890625 C 4.050781 13.28125 3.832031 13.359375 3.621094 13.363281 C 3.410156 13.359375 3.191406 13.28125 3.191406 12.890625 L 3.191406 11.75 Z M 2.914062 11.75 "/>
<path fill-rule="nonzero" fill="rgb(0%, 0%, 0%)" fill-opacity="1" d="M 3.265625 11.304688 L 3.511719 11.304688 L 3.511719 11.546875 L 3.265625 11.546875 Z M 3.265625 11.304688 "/>
<path fill-rule="nonzero" fill="rgb(0%, 0%, 0%)" fill-opacity="1" d="M 3.734375 11.304688 L 3.976562 11.304688 L 3.976562 11.546875 L 3.734375 11.546875 Z M 3.734375 11.304688 "/>
<path fill-rule="nonzero" fill="rgb(100%, 100%, 100%)" fill-opacity="1" d="M 2.324219 6.199219 L 2.992188 6.199219 L 2.992188 9.539062 L 2.324219 9.539062 Z M 2.324219 6.199219 "/>
</svg>
