<?xml version="1.0" encoding="UTF-8"?>
<svg xmlns="http://www.w3.org/2000/svg" xmlns:xlink="http://www.w3.org/1999/xlink" width="10" height="13" viewBox="0 0 10 13">
<path fill-rule="nonzero" fill="rgb(51.372549%, 51.372549%, 51.372549%)" fill-opacity="1" d="M 0 0 L 10 0 L 10 10.132812 L 0 10.132812 Z M 0 0 "/>
<path fill-rule="nonzero" fill="rgb(0%, 0%, 0%)" fill-opacity="1" d="M -0.015625 10.125 L 10.015625 10.125 L 10.015625 13.011719 L -0.015625 13.011719 Z M -0.015625 10.125 "/>
<path fill-rule="nonzero" fill="rgb(100%, 100%, 100%)" fill-opacity="1" d="M 0.222656 10.300781 L 9.777344 10.300781 L 9.777344 12.835938 L 0.222656 12.835938 Z M 0.222656 10.300781 "/>
<path fill-rule="nonzero" fill="rgb(100%, 100%, 100%)" fill-opacity="1" d="M 9.375 5.066406 C 9.375 7.484375 7.417969 9.441406 5 9.441406 C 2.582031 9.441406 0.625 7.484375 0.625 5.066406 C 0.625 2.652344 2.582031 0.691406 5 0.691406 C 7.417969 0.691406 9.375 2.652344 9.375 5.066406 Z M 9.375 5.066406 "/>
<path fill-rule="nonzero" fill="rgb(10.196078%, 10.196078%, 10.196078%)" fill-opacity="1" d="M 1.261719 12.378906 L 1.433594 12.378906 L 1.433594 11.238281 L 1.261719 11.238281 L 1.261719 11.726562 L 0.808594 11.726562 L 0.808594 11.238281 L 0.636719 11.238281 L 0.636719 12.378906 L 0.808594 12.378906 L 0.808594 11.878906 L 1.261719 11.878906 Z M 1.261719 12.378906 "/>
<path fill-rule="nonzero" fill="rgb(10.196078%, 10.196078%, 10.196078%)" fill-opacity="1" d="M 2.109375 12.378906 L 2.273438 12.378906 L 2.273438 11.824219 C 2.273438 11.722656 2.242188 11.65625 2.179688 11.613281 C 2.117188 11.574219 2.039062 11.554688 1.933594 11.554688 C 1.8125 11.554688 1.722656 11.59375 1.660156 11.675781 L 1.789062 11.773438 C 1.804688 11.75 1.824219 11.734375 1.847656 11.722656 C 1.871094 11.714844 1.902344 11.710938 1.941406 11.710938 C 2.054688 11.707031 2.109375 11.742188 2.109375 11.8125 L 2.109375 11.898438 L 1.882812 11.898438 C 1.796875 11.898438 1.730469 11.925781 1.6875 11.96875 C 1.640625 12.015625 1.621094 12.070312 1.621094 12.140625 C 1.621094 12.210938 1.644531 12.269531 1.695312 12.316406 C 1.746094 12.363281 1.816406 12.386719 1.90625 12.386719 C 1.960938 12.386719 2.003906 12.378906 2.035156 12.367188 C 2.066406 12.355469 2.089844 12.332031 2.105469 12.304688 L 2.109375 12.304688 Z M 2.109375 12.09375 C 2.109375 12.152344 2.097656 12.191406 2.070312 12.210938 C 2.042969 12.226562 1.996094 12.234375 1.925781 12.234375 C 1.871094 12.234375 1.832031 12.222656 1.808594 12.203125 C 1.785156 12.183594 1.773438 12.160156 1.773438 12.132812 C 1.773438 12.070312 1.820312 12.035156 1.914062 12.035156 L 2.109375 12.035156 Z M 2.109375 12.09375 "/>
<path fill-rule="nonzero" fill="rgb(10.196078%, 10.196078%, 10.196078%)" fill-opacity="1" d="M 2.507812 12.179688 C 2.507812 12.253906 2.527344 12.304688 2.570312 12.332031 C 2.609375 12.363281 2.65625 12.378906 2.714844 12.378906 L 2.789062 12.378906 L 2.789062 12.222656 L 2.734375 12.222656 C 2.691406 12.222656 2.671875 12.207031 2.671875 12.167969 L 2.671875 11.238281 L 2.507812 11.238281 Z M 2.507812 12.179688 "/>
<path fill-rule="nonzero" fill="rgb(10.196078%, 10.196078%, 10.196078%)" fill-opacity="1" d="M 2.953125 11.566406 L 2.875 11.566406 L 2.875 11.691406 L 2.953125 11.691406 L 2.953125 12.175781 C 2.953125 12.242188 2.972656 12.289062 3.011719 12.324219 C 3.046875 12.359375 3.09375 12.378906 3.152344 12.378906 L 3.238281 12.378906 L 3.238281 12.222656 L 3.175781 12.222656 C 3.136719 12.226562 3.117188 12.203125 3.117188 12.164062 L 3.117188 11.691406 L 3.238281 11.691406 L 3.238281 11.566406 L 3.117188 11.566406 L 3.117188 11.320312 L 2.953125 11.320312 Z M 2.953125 11.566406 "/>
<path fill-rule="nonzero" fill="rgb(10.196078%, 10.196078%, 10.196078%)" fill-opacity="1" d="M 4.042969 12.035156 L 4.042969 11.898438 C 4.042969 11.792969 4.007812 11.707031 3.945312 11.648438 C 3.878906 11.585938 3.800781 11.558594 3.707031 11.554688 C 3.671875 11.554688 3.632812 11.5625 3.589844 11.578125 C 3.550781 11.589844 3.515625 11.613281 3.484375 11.644531 C 3.449219 11.675781 3.425781 11.71875 3.40625 11.773438 C 3.382812 11.828125 3.375 11.894531 3.375 11.972656 C 3.375 12.058594 3.386719 12.125 3.410156 12.175781 C 3.429688 12.230469 3.457031 12.273438 3.492188 12.304688 C 3.511719 12.320312 3.53125 12.332031 3.550781 12.339844 C 3.570312 12.351562 3.589844 12.363281 3.609375 12.367188 C 3.648438 12.382812 3.691406 12.386719 3.734375 12.386719 C 3.847656 12.386719 3.945312 12.34375 4.027344 12.253906 L 3.910156 12.15625 C 3.855469 12.207031 3.796875 12.234375 3.730469 12.234375 C 3.675781 12.234375 3.628906 12.214844 3.59375 12.183594 C 3.554688 12.148438 3.539062 12.097656 3.539062 12.035156 Z M 3.539062 11.898438 C 3.539062 11.835938 3.558594 11.789062 3.589844 11.757812 C 3.621094 11.726562 3.660156 11.710938 3.707031 11.710938 C 3.757812 11.710938 3.796875 11.726562 3.828125 11.757812 C 3.859375 11.789062 3.878906 11.835938 3.878906 11.898438 Z M 3.539062 11.898438 "/>
<path fill-rule="nonzero" fill="rgb(10.196078%, 10.196078%, 10.196078%)" fill-opacity="1" d="M 4.882812 12.378906 L 5.027344 12.378906 L 5.285156 11.566406 L 5.113281 11.566406 L 4.957031 12.132812 L 4.953125 12.132812 L 4.769531 11.566406 L 4.652344 11.566406 L 4.46875 12.132812 L 4.464844 12.132812 L 4.308594 11.566406 L 4.136719 11.566406 L 4.394531 12.378906 L 4.539062 12.378906 L 4.710938 11.808594 Z M 4.882812 12.378906 "/>
<path fill-rule="nonzero" fill="rgb(10.196078%, 10.196078%, 10.196078%)" fill-opacity="1" d="M 5.417969 12.105469 C 5.417969 12.199219 5.449219 12.265625 5.507812 12.3125 C 5.5625 12.363281 5.625 12.386719 5.691406 12.386719 C 5.777344 12.386719 5.847656 12.355469 5.902344 12.289062 L 5.90625 12.289062 L 5.90625 12.378906 L 6.066406 12.378906 L 6.066406 11.566406 L 5.90625 11.566406 L 5.90625 12.050781 C 5.90625 12.105469 5.890625 12.148438 5.859375 12.175781 C 5.828125 12.207031 5.789062 12.222656 5.742188 12.222656 C 5.695312 12.222656 5.660156 12.207031 5.628906 12.175781 C 5.597656 12.148438 5.582031 12.105469 5.582031 12.050781 L 5.582031 11.566406 L 5.417969 11.566406 Z M 5.417969 12.105469 "/>
<path fill-rule="nonzero" fill="rgb(10.196078%, 10.196078%, 10.196078%)" fill-opacity="1" d="M 6.304688 12.378906 L 6.464844 12.378906 L 6.464844 11.894531 C 6.464844 11.835938 6.480469 11.792969 6.511719 11.765625 C 6.542969 11.734375 6.582031 11.71875 6.628906 11.71875 C 6.675781 11.71875 6.714844 11.734375 6.742188 11.765625 C 6.773438 11.792969 6.789062 11.835938 6.789062 11.894531 L 6.789062 12.378906 L 6.953125 12.378906 L 6.953125 11.839844 C 6.949219 11.746094 6.921875 11.675781 6.863281 11.628906 C 6.808594 11.578125 6.746094 11.554688 6.679688 11.554688 C 6.59375 11.554688 6.523438 11.589844 6.46875 11.652344 L 6.464844 11.652344 L 6.464844 11.566406 L 6.304688 11.566406 Z M 6.304688 12.378906 "/>
<path fill-rule="nonzero" fill="rgb(10.196078%, 10.196078%, 10.196078%)" fill-opacity="1" d="M 7.210938 12.128906 L 7.097656 12.242188 C 7.203125 12.339844 7.320312 12.386719 7.453125 12.386719 C 7.550781 12.386719 7.632812 12.363281 7.695312 12.320312 C 7.757812 12.277344 7.789062 12.214844 7.789062 12.136719 C 7.789062 12.070312 7.773438 12.015625 7.738281 11.972656 C 7.699219 11.925781 7.640625 11.902344 7.554688 11.894531 L 7.421875 11.882812 C 7.382812 11.878906 7.351562 11.871094 7.335938 11.855469 C 7.320312 11.84375 7.3125 11.824219 7.3125 11.808594 C 7.3125 11.777344 7.324219 11.753906 7.34375 11.738281 C 7.367188 11.71875 7.402344 11.710938 7.453125 11.710938 C 7.496094 11.710938 7.539062 11.714844 7.570312 11.730469 C 7.605469 11.746094 7.640625 11.761719 7.671875 11.785156 L 7.773438 11.667969 C 7.730469 11.632812 7.6875 11.605469 7.636719 11.585938 C 7.609375 11.574219 7.582031 11.570312 7.554688 11.5625 C 7.523438 11.558594 7.492188 11.554688 7.453125 11.554688 C 7.367188 11.554688 7.292969 11.578125 7.238281 11.617188 C 7.179688 11.660156 7.152344 11.722656 7.148438 11.804688 C 7.152344 11.875 7.171875 11.929688 7.21875 11.96875 C 7.261719 12.007812 7.316406 12.03125 7.382812 12.035156 L 7.527344 12.050781 C 7.558594 12.050781 7.582031 12.058594 7.601562 12.070312 C 7.617188 12.082031 7.628906 12.101562 7.628906 12.128906 C 7.628906 12.164062 7.613281 12.1875 7.582031 12.207031 C 7.554688 12.226562 7.515625 12.234375 7.46875 12.234375 C 7.363281 12.234375 7.277344 12.199219 7.210938 12.128906 Z M 7.210938 12.128906 "/>
<path fill-rule="nonzero" fill="rgb(10.196078%, 10.196078%, 10.196078%)" fill-opacity="1" d="M 8.457031 12.140625 C 8.414062 12.195312 8.359375 12.222656 8.292969 12.222656 C 8.152344 12.226562 8.082031 12.144531 8.082031 11.972656 C 8.082031 11.800781 8.152344 11.71875 8.292969 11.71875 C 8.359375 11.722656 8.414062 11.75 8.457031 11.804688 L 8.578125 11.699219 C 8.542969 11.65625 8.5 11.621094 8.453125 11.59375 C 8.402344 11.570312 8.347656 11.558594 8.285156 11.554688 C 8.1875 11.554688 8.105469 11.585938 8.03125 11.652344 C 7.957031 11.71875 7.917969 11.824219 7.917969 11.972656 C 7.917969 12.117188 7.957031 12.222656 8.03125 12.289062 C 8.105469 12.355469 8.1875 12.386719 8.285156 12.386719 C 8.347656 12.386719 8.402344 12.371094 8.453125 12.347656 C 8.5 12.320312 8.542969 12.289062 8.578125 12.246094 Z M 8.457031 12.140625 "/>
<path fill-rule="nonzero" fill="rgb(10.196078%, 10.196078%, 10.196078%)" fill-opacity="1" d="M 8.714844 12.378906 L 8.878906 12.378906 L 8.878906 11.894531 C 8.878906 11.835938 8.894531 11.792969 8.921875 11.765625 C 8.953125 11.734375 8.992188 11.71875 9.039062 11.71875 C 9.085938 11.71875 9.125 11.734375 9.15625 11.765625 C 9.183594 11.792969 9.199219 11.835938 9.199219 11.894531 L 9.199219 12.378906 L 9.363281 12.378906 L 9.363281 11.839844 C 9.359375 11.746094 9.332031 11.675781 9.277344 11.628906 C 9.21875 11.578125 9.160156 11.554688 9.09375 11.554688 C 9.003906 11.554688 8.933594 11.589844 8.878906 11.652344 L 8.878906 11.238281 L 8.714844 11.238281 Z M 8.714844 12.378906 "/>
</svg>
