<?xml version="1.0" encoding="UTF-8"?>
<svg xmlns="http://www.w3.org/2000/svg" xmlns:xlink="http://www.w3.org/1999/xlink" width="21.58054" height="15" viewBox="0 0 21.58054 15">
<path fill-rule="nonzero" fill="rgb(100%, 100%, 100%)" fill-opacity="1" stroke-width="2" stroke-linecap="round" stroke-linejoin="round" stroke="rgb(0%, 0%, 0%)" stroke-opacity="1" stroke-miterlimit="4" d="M 0.993236 44.907286 C 0.993236 -12.863218 88.951596 -14.410061 88.951596 44.907286 L 88.951596 61.531774 L 0.993236 61.531774 Z M 0.993236 44.907286 " transform="matrix(0.239904, 0, 0, 0.239904, 0, 0)"/>
<path fill-rule="nonzero" fill="rgb(0%, 0%, 0%)" fill-opacity="1" d="M 15.9375 6.773438 L 15.578125 6.773438 L 15.4375 3.648438 L 16.078125 3.648438 Z M 15.375 7.664062 C 15.375 7.519531 15.410156 7.414062 15.484375 7.351562 C 15.554688 7.289062 15.644531 7.257812 15.75 7.257812 C 15.851562 7.257812 15.941406 7.289062 16.015625 7.351562 C 16.085938 7.414062 16.125 7.519531 16.125 7.664062 C 16.125 7.8125 16.085938 7.914062 16.015625 7.976562 C 15.941406 8.039062 15.851562 8.070312 15.75 8.070312 C 15.644531 8.070312 15.554688 8.039062 15.484375 7.976562 C 15.410156 7.914062 15.375 7.8125 15.375 7.664062 Z M 14.9375 1.480469 "/>
<path fill-rule="nonzero" fill="rgb(0%, 0%, 0%)" fill-opacity="1" d="M 6.855469 8.070312 L 6.855469 6.136719 L 5.476562 6.136719 L 5.476562 8.070312 L 4.804688 8.070312 L 4.804688 3.644531 L 5.476562 3.644531 L 5.476562 5.539062 L 6.855469 5.539062 L 6.855469 3.644531 L 7.527344 3.644531 L 7.527344 8.070312 L 6.855469 8.070312 "/>
<path fill-rule="nonzero" fill="rgb(0%, 0%, 0%)" fill-opacity="1" d="M 10.042969 8.082031 L 10.042969 7.816406 L 10.03125 7.816406 C 9.976562 7.921875 9.894531 7.996094 9.78125 8.042969 C 9.664062 8.089844 9.507812 8.117188 9.316406 8.117188 C 8.988281 8.109375 8.742188 8.019531 8.570312 7.851562 C 8.386719 7.683594 8.296875 7.46875 8.296875 7.207031 C 8.296875 6.957031 8.375 6.75 8.535156 6.582031 C 8.695312 6.414062 8.929688 6.328125 9.238281 6.324219 L 10.042969 6.324219 L 10.042969 6.007812 C 10.046875 5.742188 9.847656 5.613281 9.449219 5.621094 C 9.3125 5.621094 9.199219 5.636719 9.105469 5.667969 C 9.015625 5.707031 8.949219 5.769531 8.902344 5.855469 L 8.441406 5.492188 C 8.664062 5.195312 8.992188 5.050781 9.421875 5.058594 C 9.78125 5.054688 10.074219 5.125 10.292969 5.273438 C 10.511719 5.421875 10.621094 5.679688 10.625 6.042969 L 10.625 8.082031 L 10.042969 8.082031 M 10.042969 7.035156 L 10.042969 6.816406 L 9.347656 6.816406 C 9.007812 6.824219 8.835938 6.945312 8.839844 7.179688 C 8.839844 7.277344 8.886719 7.363281 8.972656 7.4375 C 9.058594 7.515625 9.195312 7.554688 9.390625 7.554688 C 9.632812 7.558594 9.808594 7.527344 9.90625 7.464844 C 10 7.402344 10.042969 7.257812 10.042969 7.035156 "/>
<path fill-rule="nonzero" fill="rgb(0%, 0%, 0%)" fill-opacity="1" d="M 11.503906 7.308594 L 11.503906 3.644531 L 12.136719 3.644531 L 12.136719 7.257812 C 12.136719 7.402344 12.21875 7.476562 12.375 7.476562 L 12.589844 7.476562 L 12.589844 8.070312 L 12.3125 8.070312 C 12.082031 8.070312 11.886719 8.015625 11.734375 7.902344 C 11.578125 7.789062 11.503906 7.589844 11.503906 7.308594 "/>
<path fill-rule="nonzero" fill="rgb(0%, 0%, 0%)" fill-opacity="1" d="M 13.238281 3.84375 L 13.238281 4.804688 L 12.832031 4.804688 L 12.832031 5.28125 L 13.238281 5.28125 L 13.238281 7.308594 C 13.238281 7.589844 13.316406 7.789062 13.46875 7.902344 C 13.625 8.015625 13.816406 8.070312 14.046875 8.070312 L 14.328125 8.070312 L 14.328125 7.472656 L 14.113281 7.472656 C 13.953125 7.472656 13.875 7.402344 13.875 7.257812 L 13.875 5.28125 L 14.398438 5.28125 L 14.398438 4.804688 L 13.875 4.804688 L 13.875 3.84375 Z M 13.238281 3.84375 "/>
<path fill-rule="nonzero" fill="rgb(0%, 0%, 0%)" fill-opacity="1" d="M 12.609375 9.449219 L 12.609375 11.0625 L 11.339844 11.0625 L 11.339844 10.078125 L 11.335938 10.078125 C 11.335938 9.84375 11.144531 9.652344 10.90625 9.652344 C 10.667969 9.652344 10.472656 9.84375 10.46875 10.078125 L 10.46875 11.0625 L 9.253906 11.0625 L 9.253906 9.8125 L 8.535156 9.8125 L 8.535156 11.0625 L 8.1875 11.0625 C 8.171875 10.871094 8.015625 10.722656 7.820312 10.722656 L 7.820312 11.464844 C 7.933594 11.464844 8.035156 11.410156 8.105469 11.328125 L 8.105469 12.671875 L 15.050781 12.671875 L 15.050781 9.449219 Z M 13.023438 9.917969 L 14.734375 9.917969 L 14.734375 11.527344 L 14.21875 11.527344 L 14.21875 10.621094 L 13.679688 10.621094 L 13.679688 11.527344 L 13.023438 11.527344 Z M 8.660156 13.007812 C 8.652344 13.046875 8.648438 13.082031 8.648438 13.121094 C 8.648438 13.453125 8.917969 13.71875 9.246094 13.71875 C 9.574219 13.71875 9.839844 13.453125 9.839844 13.121094 C 9.839844 13.082031 9.835938 13.042969 9.828125 13.007812 Z M 11.097656 13.007812 C 11.089844 13.046875 11.085938 13.082031 11.085938 13.121094 C 11.085938 13.453125 11.355469 13.71875 11.683594 13.71875 C 12.011719 13.71875 12.28125 13.453125 12.28125 13.121094 C 12.28125 13.082031 12.273438 13.042969 12.265625 13.007812 Z M 13.289062 13.007812 C 13.28125 13.046875 13.277344 13.082031 13.277344 13.121094 C 13.277344 13.453125 13.542969 13.71875 13.871094 13.71875 C 14.203125 13.71875 14.46875 13.453125 14.46875 13.121094 C 14.46875 13.082031 14.464844 13.042969 14.457031 13.007812 Z M 13.289062 13.007812 "/>
</svg>
