<?xml version="1.0" encoding="UTF-8"?>
<svg xmlns="http://www.w3.org/2000/svg" xmlns:xlink="http://www.w3.org/1999/xlink" width="7.5" height="15" viewBox="0 0 7.5 15">
<path fill-rule="nonzero" fill="rgb(51.372552%, 51.372552%, 51.372552%)" fill-opacity="1" d="M 0 0 L 7.5 0 L 7.5 15 L 0 15 Z M 0 0 "/>
<path fill-rule="nonzero" fill="rgb(0%, 0%, 0%)" fill-opacity="1" d="M 7.03125 11.25 C 7.03125 13.0625 5.5625 14.53125 3.75 14.53125 C 1.9375 14.53125 0.46875 13.0625 0.46875 11.25 C 0.46875 9.4375 1.9375 7.96875 3.75 7.96875 C 5.5625 7.96875 7.03125 9.4375 7.03125 11.25 Z M 7.03125 11.25 "/>
<path fill-rule="nonzero" fill="rgb(0%, 0%, 0%)" fill-opacity="1" d="M 3.75 7.03125 C 1.9375 7.03125 0.46875 5.5625 0.46875 3.75 C 0.46875 1.9375 1.9375 0.46875 3.75 0.46875 C 5.5625 0.46875 7.03125 1.9375 7.03125 3.75 C 7.03125 5.5625 5.5625 7.03125 3.75 7.03125 Z M 3.75 7.03125 "/>
<path fill-rule="evenodd" fill="rgb(99.215686%, 94.117647%, 45.882353%)" fill-opacity="1" d="M 1.542969 9.726562 L 2.34375 12.71875 L 3.339844 12.71875 L 3.75 11.191406 L 4.160156 12.71875 L 5.15625 12.71875 L 5.957031 9.726562 L 4.972656 9.726562 L 4.648438 10.898438 L 4.367188 9.851562 L 3.132812 9.851562 L 2.851562 10.898438 L 2.527344 9.726562 Z M 1.542969 9.726562 "/>
</svg>
