<?xml version="1.0" encoding="UTF-8"?>
<svg xmlns="http://www.w3.org/2000/svg" viewBox="0 0 10 10" width="10" height="10">
  <rect x="0" y="0" width="10" height="10" fill="#eb0" stroke="#999" stroke-width="0.5px"/>
  <circle cx="5" cy="5" r="2.7" fill="#111"/>
  <path fill="#fff" d="M 4.1429 7 L 3.6 7 L 3.6 3 L 4.9886 3 Q 5.4114 3 5.7086 3.1686 Q 6.0057 3.3371 6.1629 3.6057 Q 6.32 3.8743 6.32 4.1829 Q 6.32 4.3886 6.2457 4.5971 Q 6.1714 4.8057 6.0143 4.98 Q 5.8571 5.1543 5.6029 5.26 Q 5.3486 5.3657 4.9886 5.3657 L 4.1429 5.3657 L 4.1429 7 Z M 4.1429 3.4229 L 4.1429 4.9429 L 4.9657 4.9429 Q 5.4 4.9429 5.5971 4.7229 Q 5.7943 4.5029 5.7943 4.2057 Q 5.7943 3.8857 5.5829 3.6543 Q 5.3714 3.4229 4.9543 3.4229 L 4.1429 3.4229 Z M 6.5029 7 L 5.9257 7 L 5.6743 6.5429 L 4.7314 5.1943 L 5.299 5.196 L 6.5029 7 Z" />
  <path fill="none" stroke="#555" stroke-width="0.7px" d="M 1.8182 5 L 2.7273 2.2727 L 7.2727 2.2727 L 8.1818 5"/>
</svg>
