<?xml version="1.0" encoding="UTF-8"?>
<svg xmlns="http://www.w3.org/2000/svg" width="10" height="10" viewBox="0 0 10 10">
  <path fill="#000" stroke="#777" stroke-width="0.5" d="M 0 0 L 10 0 L 10 10 L 0 10 Z M 0 0"/>
  <path fill="#fff" d="M 1.2143 7.5 L 0.5 7.5 L 2.05 5.0071 L 0.6 2.5 L 1.3 2.5 L 2.45 4.5786 L 2.5071 4.7929 L 2.5643 4.7929 L 2.6214 4.5786 L 3.7786 2.5 L 4.4786 2.5 L 3.0357 5 L 4.5857 7.5 L 3.8929 7.5 L 2.6429 5.4214 L 2.5714 5.2071 L 2.5286 5.2071 L 2.4571 5.4214 L 1.2143 7.5"/>
  <path fill="#fff" d="M 6.2143 7.5 L 5.5 7.5 L 7.05 5.0071 L 5.6 2.5 L 6.3 2.5 L 7.45 4.5786 L 7.5071 4.7929 L 7.5643 4.7929 L 7.6214 4.5786 L 8.7786 2.5 L 9.4786 2.5 L 8.0357 5 L 9.5857 7.5 L 8.8929 7.5 L 7.6429 5.4214 L 7.5714 5.2071 L 7.5286 5.2071 L 7.4571 5.4214 L 6.2143 7.5"/>
</svg>
