<?xml version="1.0" encoding="UTF-8"?>
<svg xmlns="http://www.w3.org/2000/svg" width="10" height="10" viewBox="0 0 10 10">
  <path stroke="#777" stroke-width=".5" d="M0 0h10v10H0Zm0 0"/>
  <path fill="#fff" d="m1.82 5.06.2-.06v-.03q-.2-.11-.37-.25-.19-.13-.3-.35-.11-.21-.11-.55 0-.45.2-.74.21-.3.55-.44.35-.14.76-.14.41 0 .76.14.34.15.55.43.2.29.2.72 0 .28-.08.5-.1.22-.25.37t-.35.24l-.14.04v.03q.18.07.37.17.18.1.34.26.16.16.26.38.1.23.1.54 0 .46-.23.76t-.63.45q-.4.14-.9.14-.46 0-.86-.13-.4-.14-.64-.44Q1 6.8 1 6.3q0-.33.11-.58.12-.25.3-.41.19-.17.41-.25Zm.94 2.08q.51 0 .83-.18.31-.18.31-.61 0-.28-.13-.48-.13-.2-.33-.32-.2-.13-.43-.2-.23-.06-.45-.07-.26.02-.47.15-.22.13-.35.35-.13.22-.13.52 0 .34.16.52.17.18.43.25t.56.07Zm.11-2.35q.4-.08.6-.33.2-.25.2-.64 0-.43-.24-.61-.25-.18-.67-.18-.42 0-.68.18-.26.18-.26.58 0 .3.14.5.15.21.39.33.24.12.52.17ZM6.32 5.06l.2-.06v-.03q-.2-.11-.37-.25-.19-.13-.3-.35-.11-.21-.11-.55 0-.45.2-.74.21-.3.55-.44.35-.14.76-.14.41 0 .76.14.34.15.55.43.2.29.2.72 0 .28-.08.5-.1.22-.25.37t-.35.24l-.14.04v.03q.18.07.37.17.18.1.34.26.16.16.26.38.1.23.1.54 0 .46-.23.76t-.63.45q-.4.14-.9.14-.46 0-.86-.13-.4-.14-.64-.44-.25-.3-.25-.8 0-.33.11-.58.12-.25.3-.41.19-.17.41-.25Zm.94 2.08q.51 0 .83-.18.31-.18.31-.61 0-.28-.13-.48-.13-.2-.33-.32-.2-.13-.43-.2-.23-.06-.45-.07-.26.02-.47.15-.22.13-.35.35-.13.22-.13.52 0 .34.17.52.16.18.42.25t.56.07Zm.11-2.35q.4-.08.6-.33.2-.25.2-.64 0-.43-.24-.61-.25-.18-.67-.18-.42 0-.68.18-.26.18-.26.58 0 .3.14.5.15.21.39.33.24.12.52.17Z"/>
</svg>
