<?xml version="1.0" encoding="UTF-8"?>
<svg xmlns="http://www.w3.org/2000/svg" xmlns:xlink="http://www.w3.org/1999/xlink" width="5.25" height="21" viewBox="0 0 5.25 21">
<path fill-rule="nonzero" fill="rgb(10.196078%, 10.196078%, 10.196078%)" fill-opacity="1" d="M 0 0 L 5.25 0 L 5.25 21 L 0 21 Z M 0 0 "/>
<path fill-rule="nonzero" fill="rgb(10.196078%, 10.196078%, 10.196078%)" fill-opacity="1" stroke-width="0.0481541" stroke-linecap="butt" stroke-linejoin="miter" stroke="rgb(40.392157%, 40.392157%, 40.392157%)" stroke-opacity="1" stroke-miterlimit="4" d="M 1.481391 0.926042 C 1.481391 1.233344 1.233344 1.481391 0.926042 1.481391 C 0.618739 1.481391 0.370692 1.233344 0.370692 0.926042 C 0.370692 0.618739 0.618739 0.370692 0.926042 0.370692 C 1.233344 0.370692 1.481391 0.618739 1.481391 0.926042 Z M 1.481391 0.926042 " transform="matrix(2.834646, 0, 0, 2.834646, 0, 0)"/>
<path fill-rule="nonzero" fill="rgb(0%, 100%, 0%)" fill-opacity="1" stroke-width="0.0481541" stroke-linecap="butt" stroke-linejoin="miter" stroke="rgb(40%, 40%, 40%)" stroke-opacity="1" stroke-miterlimit="4" d="M 1.481391 2.778125 C 1.481391 3.085428 1.233344 3.333474 0.926042 3.333474 C 0.618739 3.333474 0.370692 3.085428 0.370692 2.778125 C 0.370692 2.470822 0.618739 2.222776 0.926042 2.222776 C 1.233344 2.222776 1.481391 2.470822 1.481391 2.778125 Z M 1.481391 2.778125 " transform="matrix(2.834646, 0, 0, 2.834646, 0, 0)"/>
<path fill-rule="nonzero" fill="rgb(10.588235%, 10.588235%, 10.588235%)" fill-opacity="1" stroke-width="0.0481541" stroke-linecap="butt" stroke-linejoin="miter" stroke="rgb(40%, 40%, 40%)" stroke-opacity="1" stroke-miterlimit="4" d="M 1.481391 4.630208 C 1.481391 4.937511 1.233344 5.185558 0.926042 5.185558 C 0.618739 5.185558 0.370692 4.937511 0.370692 4.630208 C 0.370692 4.322906 0.618739 4.074859 0.926042 4.074859 C 1.233344 4.074859 1.481391 4.322906 1.481391 4.630208 Z M 1.481391 4.630208 " transform="matrix(2.834646, 0, 0, 2.834646, 0, 0)"/>
<path fill-rule="nonzero" fill="rgb(100%, 100%, 0%)" fill-opacity="1" stroke-width="0.0481541" stroke-linecap="butt" stroke-linejoin="miter" stroke="rgb(40%, 40%, 40%)" stroke-opacity="1" stroke-miterlimit="4" d="M 1.481391 6.482292 C 1.481391 6.789594 1.233344 7.037641 0.926042 7.037641 C 0.618739 7.037641 0.370692 6.789594 0.370692 6.482292 C 0.370692 6.174989 0.618739 5.926942 0.926042 5.926942 C 1.233344 5.926942 1.481391 6.174989 1.481391 6.482292 Z M 1.481391 6.482292 " transform="matrix(2.834646, 0, 0, 2.834646, 0, 0)"/>
</svg>
