<?xml version="1.0" encoding="UTF-8"?>
<svg xmlns="http://www.w3.org/2000/svg" xmlns:xlink="http://www.w3.org/1999/xlink" width="10" height="26" viewBox="0 0 10 26">
<path fill-rule="nonzero" fill="rgb(51.372549%, 51.372549%, 51.372549%)" fill-opacity="1" d="M -0.960938 14.691406 L 10.996094 14.691406 L 10.996094 26.632812 L -0.960938 26.632812 Z M -0.960938 14.691406 "/>
<path fill-rule="nonzero" fill="rgb(0%, 0%, 0%)" fill-opacity="1" d="M 0.902344 19.050781 C 1.789062 16.777344 4.355469 15.652344 6.628906 16.539062 C 8.90625 17.433594 10.023438 20 9.136719 22.273438 C 8.242188 24.550781 5.683594 25.671875 3.402344 24.78125 C 1.128906 23.890625 0.0078125 21.328125 0.902344 19.050781 Z M 0.902344 19.050781 "/>
<path fill-rule="nonzero" fill="rgb(100%, 100%, 100%)" fill-opacity="1" stroke-width="0.169311" stroke-linecap="round" stroke-linejoin="round" stroke="rgb(100%, 100%, 100%)" stroke-opacity="1" stroke-miterlimit="4" d="M 7.413141 16.710968 C 7.413141 17.351593 6.897516 17.867218 6.256891 17.867218 C 5.616266 17.867218 5.100641 17.351593 5.100641 16.710968 C 5.100641 16.074249 5.616266 15.554718 6.256891 15.554718 C 6.897516 15.554718 7.413141 16.074249 7.413141 16.710968 Z M 7.413141 16.710968 " transform="matrix(0.000000000000000061, 1, -1, 0.000000000000000061, 20.050811, 15.70014)"/>
<path fill-rule="nonzero" fill="rgb(100%, 100%, 100%)" fill-opacity="1" stroke-width="0.169311" stroke-linecap="round" stroke-linejoin="round" stroke="rgb(100%, 100%, 100%)" stroke-opacity="1" stroke-miterlimit="4" d="M 4.928766 13.355499 C 4.928766 13.996124 4.413141 14.511749 3.772516 14.511749 C 3.131891 14.511749 2.616266 13.996124 2.616266 13.355499 C 2.616266 12.714874 3.131891 12.199249 3.772516 12.199249 C 4.413141 12.199249 4.928766 12.714874 4.928766 13.355499 Z M 4.928766 13.355499 " transform="matrix(0.000000000000000061, 1, -1, 0.000000000000000061, 20.050811, 15.70014)"/>
<path fill-rule="nonzero" fill="rgb(100%, 89.803922%, 0%)" fill-opacity="0.96078" stroke-width="1.51552" stroke-linecap="round" stroke-linejoin="round" stroke="rgb(100%, 100%, 100%)" stroke-opacity="0.96078" stroke-miterlimit="4" d="M -0.200845 -1.205986 L 10.228843 -1.205986 L 10.228843 11.977607 L -0.200845 11.977607 Z M -0.200845 -1.205986 " transform="matrix(1, 0, 0, 1, -0.0452489, 1.963799)"/>
<path fill-rule="evenodd" fill="rgb(0%, 0%, 0%)" fill-opacity="1" d="M 2.101562 3.046875 L 4.375 11.53125 L 5.554688 11.53125 L 7.828125 3.046875 L 6.738281 3.046875 L 4.964844 9.566406 L 3.191406 3.046875 Z M 2.101562 3.046875 "/>
</svg>
