<?xml version="1.0" encoding="UTF-8"?>
<svg xmlns="http://www.w3.org/2000/svg" xmlns:xlink="http://www.w3.org/1999/xlink" width="10" height="26" viewBox="0 0 10 26">
<path fill-rule="nonzero" fill="rgb(51.372549%, 51.372549%, 51.372549%)" fill-opacity="1" d="M -0.960938 14.691406 L 10.996094 14.691406 L 10.996094 26.632812 L -0.960938 26.632812 Z M -0.960938 14.691406 "/>
<path fill-rule="nonzero" fill="rgb(0%, 0%, 0%)" fill-opacity="1" d="M 5.019531 25.082031 C 2.578125 25.082031 0.59375 23.105469 0.59375 20.664062 C 0.59375 18.21875 2.578125 16.238281 5.019531 16.238281 C 7.464844 16.238281 9.441406 18.21875 9.441406 20.664062 C 9.441406 23.105469 7.464844 25.082031 5.019531 25.082031 Z M 5.019531 25.082031 "/>
<path fill-rule="nonzero" fill="rgb(100%, 100%, 100%)" fill-opacity="1" stroke-width="0.169311" stroke-linecap="round" stroke-linejoin="round" stroke="rgb(100%, 100%, 100%)" stroke-opacity="1" stroke-miterlimit="4" d="M 7.416095 16.710886 C 7.416095 17.351511 6.90047 17.867136 6.255939 17.867136 C 5.615314 17.867136 5.099689 17.351511 5.099689 16.710886 C 5.099689 16.074168 5.615314 15.554636 6.255939 15.554636 C 6.90047 15.554636 7.416095 16.074168 7.416095 16.710886 Z M 7.416095 16.710886 " transform="matrix(1, 0, 0, 1, 0.0565611, 5.628957)"/>
<path fill-rule="nonzero" fill="rgb(100%, 100%, 100%)" fill-opacity="1" stroke-width="0.169311" stroke-linecap="round" stroke-linejoin="round" stroke="rgb(100%, 100%, 100%)" stroke-opacity="1" stroke-miterlimit="4" d="M 4.927814 13.355418 C 4.927814 13.996043 4.412189 14.511668 3.771564 14.511668 C 3.130939 14.511668 2.615314 13.996043 2.615314 13.355418 C 2.615314 12.714793 3.130939 12.199168 3.771564 12.199168 C 4.412189 12.199168 4.927814 12.714793 4.927814 13.355418 Z M 4.927814 13.355418 " transform="matrix(1, 0, 0, 1, 0.0565611, 5.628957)"/>
<path fill-rule="nonzero" fill="rgb(100%, 89.803922%, 0%)" fill-opacity="0.96078" stroke-width="1.51552" stroke-linecap="round" stroke-linejoin="round" stroke="rgb(100%, 100%, 100%)" stroke-opacity="0.96078" stroke-miterlimit="4" d="M -0.200845 -1.205986 L 10.228843 -1.205986 L 10.228843 11.977607 L -0.200845 11.977607 Z M -0.200845 -1.205986 " transform="matrix(1, 0, 0, 1, -0.0452489, 1.963799)"/>
<path fill-rule="evenodd" fill="rgb(0%, 0%, 0%)" fill-opacity="1" d="M 2.101562 3.046875 L 4.375 11.53125 L 5.554688 11.53125 L 7.828125 3.046875 L 6.738281 3.046875 L 4.964844 9.566406 L 3.191406 3.046875 Z M 2.101562 3.046875 "/>
</svg>
