<?xml version="1.0" encoding="UTF-8"?>
<svg xmlns="http://www.w3.org/2000/svg" xmlns:xlink="http://www.w3.org/1999/xlink" width="14.668913" height="16" viewBox="0 0 14.668913 16">
<path fill-rule="nonzero" fill="rgb(7.843137%, 40.392157%, 89.411765%)" fill-opacity="1" stroke-width="1" stroke-linecap="butt" stroke-linejoin="miter" stroke="rgb(100%, 100%, 100%)" stroke-opacity="1" stroke-miterlimit="4" d="M 0.498085 18.04879 L 0.498085 0.498085 L 16.504726 0.498085 L 16.504726 18.04879 Z M 0.498085 18.04879 " transform="matrix(0.862679, 0, 0, 0.862679, 0, 0)"/>
<path fill-rule="nonzero" fill="rgb(100%, 100%, 100%)" fill-opacity="1" d="M 6.054688 6.257812 L 6.054688 6.867188 C 5.914062 6.996094 5.78125 7.074219 5.660156 7.109375 C 5.539062 7.144531 5.414062 7.136719 5.28125 7.089844 C 5.132812 7.035156 4.960938 6.90625 4.761719 6.703125 C 4.746094 6.6875 4.734375 6.675781 4.730469 6.671875 C 4.71875 6.660156 4.703125 6.644531 4.683594 6.628906 C 4.476562 6.410156 4.304688 6.28125 4.179688 6.234375 C 4.058594 6.191406 3.941406 6.195312 3.824219 6.242188 C 3.710938 6.285156 3.585938 6.378906 3.453125 6.519531 L 3.453125 5.914062 C 3.59375 5.785156 3.726562 5.703125 3.847656 5.667969 C 3.96875 5.632812 4.09375 5.640625 4.226562 5.6875 C 4.375 5.738281 4.546875 5.871094 4.746094 6.078125 C 4.761719 6.089844 4.769531 6.101562 4.777344 6.109375 C 4.789062 6.121094 4.804688 6.132812 4.824219 6.152344 C 5.03125 6.367188 5.199219 6.5 5.328125 6.542969 C 5.445312 6.585938 5.558594 6.585938 5.671875 6.539062 C 5.789062 6.492188 5.914062 6.398438 6.054688 6.257812 Z M 6.054688 6.257812 "/>
<path fill-rule="nonzero" fill="rgb(100%, 100%, 100%)" fill-opacity="1" d="M 6.054688 6.769531 L 6.054688 7.378906 C 5.914062 7.503906 5.78125 7.585938 5.660156 7.621094 C 5.539062 7.65625 5.414062 7.648438 5.28125 7.601562 C 5.132812 7.546875 4.960938 7.417969 4.761719 7.214844 C 4.746094 7.199219 4.734375 7.1875 4.730469 7.183594 C 4.71875 7.171875 4.703125 7.15625 4.683594 7.136719 C 4.476562 6.921875 4.304688 6.792969 4.179688 6.746094 C 4.058594 6.703125 3.941406 6.707031 3.824219 6.753906 C 3.710938 6.796875 3.585938 6.890625 3.453125 7.03125 L 3.453125 6.425781 C 3.59375 6.296875 3.726562 6.214844 3.847656 6.179688 C 3.96875 6.144531 4.09375 6.152344 4.226562 6.199219 C 4.375 6.25 4.546875 6.382812 4.746094 6.589844 C 4.761719 6.601562 4.769531 6.613281 4.777344 6.621094 C 4.789062 6.628906 4.804688 6.644531 4.824219 6.664062 C 5.03125 6.878906 5.199219 7.011719 5.328125 7.054688 C 5.445312 7.097656 5.558594 7.09375 5.671875 7.050781 C 5.789062 7.003906 5.914062 6.910156 6.054688 6.769531 Z M 6.054688 6.769531 "/>
<path fill-rule="nonzero" fill="rgb(100%, 100%, 100%)" fill-opacity="1" d="M 8.65625 6.257812 L 8.65625 6.867188 C 8.515625 6.996094 8.382812 7.074219 8.261719 7.109375 C 8.140625 7.144531 8.015625 7.136719 7.882812 7.089844 C 7.734375 7.035156 7.5625 6.90625 7.363281 6.703125 C 7.347656 6.6875 7.335938 6.675781 7.332031 6.671875 C 7.320312 6.660156 7.304688 6.644531 7.285156 6.628906 C 7.078125 6.410156 6.90625 6.28125 6.78125 6.234375 C 6.660156 6.191406 6.542969 6.195312 6.425781 6.242188 C 6.3125 6.285156 6.1875 6.378906 6.054688 6.519531 L 6.054688 5.914062 C 6.195312 5.785156 6.328125 5.703125 6.449219 5.667969 C 6.570312 5.632812 6.695312 5.640625 6.828125 5.6875 C 6.976562 5.738281 7.148438 5.871094 7.347656 6.078125 C 7.363281 6.089844 7.371094 6.101562 7.378906 6.109375 C 7.390625 6.121094 7.40625 6.132812 7.425781 6.152344 C 7.632812 6.367188 7.800781 6.5 7.929688 6.542969 C 8.046875 6.585938 8.160156 6.585938 8.273438 6.539062 C 8.390625 6.492188 8.515625 6.398438 8.65625 6.257812 Z M 8.65625 6.257812 "/>
<path fill-rule="nonzero" fill="rgb(100%, 100%, 100%)" fill-opacity="1" d="M 8.65625 6.769531 L 8.65625 7.378906 C 8.515625 7.503906 8.382812 7.585938 8.261719 7.621094 C 8.140625 7.65625 8.015625 7.648438 7.882812 7.601562 C 7.734375 7.546875 7.5625 7.417969 7.363281 7.214844 C 7.347656 7.199219 7.335938 7.1875 7.332031 7.183594 C 7.320312 7.171875 7.304688 7.15625 7.285156 7.136719 C 7.078125 6.921875 6.90625 6.792969 6.78125 6.746094 C 6.660156 6.703125 6.542969 6.707031 6.425781 6.753906 C 6.3125 6.796875 6.1875 6.890625 6.054688 7.03125 L 6.054688 6.425781 C 6.195312 6.296875 6.328125 6.214844 6.449219 6.179688 C 6.570312 6.144531 6.695312 6.152344 6.828125 6.199219 C 6.976562 6.25 7.148438 6.382812 7.347656 6.589844 C 7.363281 6.601562 7.371094 6.613281 7.378906 6.621094 C 7.390625 6.628906 7.40625 6.644531 7.425781 6.664062 C 7.632812 6.878906 7.800781 7.011719 7.929688 7.054688 C 8.046875 7.097656 8.160156 7.09375 8.273438 7.050781 C 8.390625 7.003906 8.515625 6.910156 8.65625 6.769531 Z M 8.65625 6.769531 "/>
<path fill-rule="nonzero" fill="rgb(100%, 100%, 100%)" fill-opacity="1" d="M 11.257812 6.257812 L 11.257812 6.867188 C 11.117188 6.996094 10.984375 7.074219 10.863281 7.109375 C 10.742188 7.144531 10.617188 7.136719 10.484375 7.089844 C 10.335938 7.035156 10.164062 6.90625 9.964844 6.703125 C 9.949219 6.6875 9.9375 6.675781 9.933594 6.671875 C 9.921875 6.660156 9.90625 6.644531 9.886719 6.628906 C 9.679688 6.410156 9.507812 6.28125 9.382812 6.234375 C 9.261719 6.191406 9.144531 6.195312 9.03125 6.242188 C 8.914062 6.285156 8.789062 6.378906 8.65625 6.519531 L 8.65625 5.914062 C 8.796875 5.785156 8.929688 5.703125 9.050781 5.667969 C 9.171875 5.632812 9.296875 5.640625 9.429688 5.6875 C 9.578125 5.738281 9.75 5.871094 9.949219 6.078125 C 9.964844 6.089844 9.972656 6.101562 9.980469 6.109375 C 9.992188 6.121094 10.007812 6.132812 10.027344 6.152344 C 10.234375 6.367188 10.402344 6.5 10.53125 6.542969 C 10.648438 6.585938 10.761719 6.585938 10.875 6.539062 C 10.992188 6.492188 11.117188 6.398438 11.257812 6.257812 Z M 11.257812 6.257812 "/>
<path fill-rule="nonzero" fill="rgb(100%, 100%, 100%)" fill-opacity="1" d="M 11.257812 6.769531 L 11.257812 7.378906 C 11.117188 7.503906 10.984375 7.585938 10.863281 7.621094 C 10.742188 7.65625 10.617188 7.648438 10.484375 7.601562 C 10.335938 7.546875 10.164062 7.417969 9.964844 7.214844 C 9.949219 7.199219 9.9375 7.1875 9.933594 7.183594 C 9.921875 7.171875 9.90625 7.15625 9.886719 7.136719 C 9.679688 6.921875 9.507812 6.792969 9.382812 6.746094 C 9.261719 6.703125 9.144531 6.707031 9.03125 6.753906 C 8.914062 6.796875 8.789062 6.890625 8.65625 7.03125 L 8.65625 6.425781 C 8.796875 6.296875 8.929688 6.214844 9.050781 6.179688 C 9.171875 6.144531 9.296875 6.152344 9.429688 6.199219 C 9.578125 6.25 9.75 6.382812 9.949219 6.589844 C 9.964844 6.601562 9.972656 6.613281 9.980469 6.621094 C 9.992188 6.628906 10.007812 6.644531 10.027344 6.664062 C 10.234375 6.878906 10.402344 7.011719 10.53125 7.054688 C 10.648438 7.097656 10.761719 7.09375 10.875 7.050781 C 10.992188 7.003906 11.117188 6.910156 11.257812 6.769531 Z M 11.257812 6.769531 "/>
<path fill-rule="nonzero" fill="rgb(100%, 100%, 100%)" fill-opacity="1" d="M 6.007812 8.96875 L 6.007812 9.574219 C 5.867188 9.703125 5.734375 9.785156 5.613281 9.820312 C 5.492188 9.851562 5.367188 9.847656 5.238281 9.800781 C 5.085938 9.746094 4.914062 9.617188 4.71875 9.414062 C 4.703125 9.398438 4.691406 9.386719 4.683594 9.378906 C 4.675781 9.371094 4.660156 9.355469 4.640625 9.335938 C 4.429688 9.121094 4.261719 8.992188 4.132812 8.945312 C 4.015625 8.902344 3.898438 8.90625 3.78125 8.953125 C 3.664062 8.996094 3.539062 9.089844 3.40625 9.230469 L 3.40625 8.625 C 3.550781 8.496094 3.679688 8.414062 3.800781 8.378906 C 3.921875 8.34375 4.050781 8.347656 4.179688 8.394531 C 4.328125 8.449219 4.503906 8.582031 4.703125 8.789062 C 4.714844 8.800781 4.726562 8.8125 4.734375 8.820312 C 4.742188 8.828125 4.757812 8.84375 4.777344 8.863281 C 4.988281 9.078125 5.15625 9.207031 5.28125 9.253906 C 5.398438 9.296875 5.515625 9.292969 5.628906 9.25 C 5.742188 9.203125 5.871094 9.109375 6.007812 8.96875 Z M 6.007812 8.96875 "/>
<path fill-rule="nonzero" fill="rgb(100%, 100%, 100%)" fill-opacity="1" d="M 6.007812 9.480469 L 6.007812 10.085938 C 5.867188 10.214844 5.734375 10.296875 5.613281 10.332031 C 5.492188 10.363281 5.367188 10.359375 5.238281 10.3125 C 5.085938 10.257812 4.914062 10.128906 4.71875 9.925781 C 4.703125 9.910156 4.691406 9.898438 4.683594 9.890625 C 4.675781 9.882812 4.660156 9.867188 4.640625 9.847656 C 4.429688 9.632812 4.261719 9.503906 4.132812 9.457031 C 4.015625 9.414062 3.898438 9.417969 3.78125 9.464844 C 3.664062 9.507812 3.539062 9.601562 3.40625 9.742188 L 3.40625 9.136719 C 3.550781 9.007812 3.679688 8.925781 3.800781 8.890625 C 3.921875 8.855469 4.050781 8.859375 4.179688 8.90625 C 4.328125 8.960938 4.503906 9.089844 4.703125 9.300781 C 4.714844 9.3125 4.726562 9.324219 4.734375 9.332031 C 4.742188 9.339844 4.757812 9.355469 4.777344 9.375 C 4.988281 9.589844 5.15625 9.71875 5.28125 9.765625 C 5.398438 9.808594 5.515625 9.804688 5.628906 9.761719 C 5.742188 9.714844 5.871094 9.621094 6.007812 9.480469 Z M 6.007812 9.480469 "/>
<path fill-rule="nonzero" fill="rgb(100%, 100%, 100%)" fill-opacity="1" d="M 8.609375 8.96875 L 8.609375 9.574219 C 8.46875 9.703125 8.335938 9.785156 8.214844 9.820312 C 8.09375 9.851562 7.96875 9.847656 7.839844 9.800781 C 7.6875 9.746094 7.515625 9.617188 7.320312 9.414062 C 7.304688 9.398438 7.292969 9.386719 7.285156 9.378906 C 7.277344 9.371094 7.261719 9.355469 7.242188 9.335938 C 7.03125 9.121094 6.863281 8.992188 6.734375 8.945312 C 6.617188 8.902344 6.5 8.90625 6.382812 8.953125 C 6.265625 8.996094 6.140625 9.089844 6.007812 9.230469 L 6.007812 8.625 C 6.152344 8.496094 6.28125 8.414062 6.402344 8.378906 C 6.523438 8.34375 6.652344 8.347656 6.78125 8.394531 C 6.929688 8.449219 7.105469 8.582031 7.304688 8.789062 C 7.316406 8.800781 7.328125 8.8125 7.335938 8.820312 C 7.34375 8.828125 7.359375 8.84375 7.378906 8.863281 C 7.589844 9.078125 7.757812 9.207031 7.886719 9.253906 C 8 9.296875 8.117188 9.292969 8.230469 9.25 C 8.34375 9.203125 8.472656 9.109375 8.609375 8.96875 Z M 8.609375 8.96875 "/>
<path fill-rule="nonzero" fill="rgb(100%, 100%, 100%)" fill-opacity="1" d="M 8.609375 9.480469 L 8.609375 10.085938 C 8.46875 10.214844 8.335938 10.296875 8.214844 10.332031 C 8.09375 10.363281 7.96875 10.359375 7.839844 10.3125 C 7.6875 10.257812 7.515625 10.128906 7.320312 9.925781 C 7.304688 9.910156 7.292969 9.898438 7.285156 9.890625 C 7.277344 9.882812 7.261719 9.867188 7.242188 9.847656 C 7.03125 9.632812 6.863281 9.503906 6.734375 9.457031 C 6.617188 9.414062 6.5 9.417969 6.382812 9.464844 C 6.265625 9.507812 6.140625 9.601562 6.007812 9.742188 L 6.007812 9.136719 C 6.152344 9.007812 6.28125 8.925781 6.402344 8.890625 C 6.523438 8.855469 6.652344 8.859375 6.78125 8.90625 C 6.929688 8.960938 7.105469 9.089844 7.304688 9.300781 C 7.316406 9.3125 7.328125 9.324219 7.335938 9.332031 C 7.34375 9.339844 7.359375 9.355469 7.378906 9.375 C 7.589844 9.589844 7.757812 9.71875 7.886719 9.765625 C 8 9.808594 8.117188 9.804688 8.230469 9.761719 C 8.34375 9.714844 8.472656 9.621094 8.609375 9.480469 Z M 8.609375 9.480469 "/>
<path fill-rule="nonzero" fill="rgb(100%, 100%, 100%)" fill-opacity="1" d="M 11.214844 8.96875 L 11.214844 9.574219 C 11.070312 9.703125 10.9375 9.785156 10.816406 9.820312 C 10.695312 9.851562 10.570312 9.847656 10.441406 9.800781 C 10.289062 9.746094 10.117188 9.617188 9.921875 9.414062 C 9.90625 9.398438 9.894531 9.386719 9.886719 9.378906 C 9.878906 9.371094 9.863281 9.355469 9.84375 9.335938 C 9.632812 9.121094 9.464844 8.992188 9.335938 8.945312 C 9.21875 8.902344 9.101562 8.90625 8.984375 8.953125 C 8.867188 8.996094 8.742188 9.089844 8.609375 9.230469 L 8.609375 8.625 C 8.753906 8.496094 8.882812 8.414062 9.003906 8.378906 C 9.125 8.34375 9.253906 8.347656 9.382812 8.394531 C 9.535156 8.449219 9.707031 8.582031 9.90625 8.789062 C 9.917969 8.800781 9.929688 8.8125 9.9375 8.820312 C 9.949219 8.828125 9.960938 8.84375 9.980469 8.863281 C 10.191406 9.078125 10.359375 9.207031 10.488281 9.253906 C 10.601562 9.296875 10.71875 9.292969 10.832031 9.25 C 10.945312 9.203125 11.074219 9.109375 11.214844 8.96875 Z M 11.214844 8.96875 "/>
<path fill-rule="nonzero" fill="rgb(100%, 100%, 100%)" fill-opacity="1" d="M 11.214844 9.480469 L 11.214844 10.085938 C 11.070312 10.214844 10.9375 10.296875 10.816406 10.332031 C 10.695312 10.363281 10.570312 10.359375 10.441406 10.3125 C 10.289062 10.257812 10.117188 10.128906 9.921875 9.925781 C 9.90625 9.910156 9.894531 9.898438 9.886719 9.890625 C 9.878906 9.882812 9.863281 9.867188 9.84375 9.847656 C 9.632812 9.632812 9.464844 9.503906 9.335938 9.457031 C 9.21875 9.414062 9.101562 9.417969 8.984375 9.464844 C 8.867188 9.507812 8.742188 9.601562 8.609375 9.742188 L 8.609375 9.136719 C 8.753906 9.007812 8.882812 8.925781 9.003906 8.890625 C 9.125 8.855469 9.253906 8.859375 9.382812 8.90625 C 9.535156 8.960938 9.707031 9.089844 9.90625 9.300781 C 9.917969 9.3125 9.929688 9.324219 9.9375 9.332031 C 9.949219 9.339844 9.960938 9.355469 9.980469 9.375 C 10.191406 9.589844 10.359375 9.71875 10.488281 9.765625 C 10.601562 9.808594 10.71875 9.804688 10.832031 9.761719 C 10.945312 9.714844 11.074219 9.621094 11.214844 9.480469 Z M 11.214844 9.480469 "/>
</svg>
