<?xml version="1.0" encoding="UTF-8"?>
<svg xmlns="http://www.w3.org/2000/svg" xmlns:xlink="http://www.w3.org/1999/xlink" width="10" height="10.135228" viewBox="0 0 10 10.135228">
<path fill-rule="nonzero" fill="rgb(51.372549%, 51.372549%, 51.372549%)" fill-opacity="1" d="M 0 0 L 10 0 L 10 10.132812 L 0 10.132812 Z M 0 0 "/>
<path fill-rule="nonzero" fill="rgb(0%, 0%, 0%)" fill-opacity="1" d="M 9.375 5.066406 C 9.375 7.484375 7.417969 9.441406 5 9.441406 C 2.582031 9.441406 0.625 7.484375 0.625 5.066406 C 0.625 2.652344 2.582031 0.691406 5 0.691406 C 7.417969 0.691406 9.375 2.652344 9.375 5.066406 Z M 9.375 5.066406 "/>
<path fill-rule="nonzero" fill="rgb(100%, 100%, 100%)" fill-opacity="1" stroke-width="0.564068" stroke-linecap="butt" stroke-linejoin="miter" stroke="rgb(100%, 100%, 100%)" stroke-opacity="1" stroke-miterlimit="4" d="M 6.515625 2.859375 C 6.394531 3.15625 6.058594 3.300781 5.757812 3.183594 C 5.460938 3.0625 5.316406 2.722656 5.433594 2.425781 C 5.554688 2.128906 5.894531 1.984375 6.191406 2.105469 C 6.488281 2.222656 6.632812 2.5625 6.515625 2.859375 Z M 4.507812 2.4375 C 4.636719 2.730469 4.5 3.070312 4.203125 3.199219 C 3.90625 3.324219 3.566406 3.1875 3.441406 2.890625 C 3.316406 2.597656 3.453125 2.253906 3.746094 2.128906 C 4.042969 2.003906 4.382812 2.140625 4.507812 2.4375 Z M 2.792969 3.554688 C 3.089844 3.675781 3.234375 4.011719 3.117188 4.308594 C 2.996094 4.605469 2.65625 4.75 2.359375 4.632812 C 2.0625 4.511719 1.917969 4.175781 2.039062 3.875 C 2.15625 3.578125 2.496094 3.433594 2.792969 3.554688 Z M 2.367188 5.558594 C 2.664062 5.433594 3.003906 5.570312 3.128906 5.867188 C 3.257812 6.160156 3.121094 6.5 2.824219 6.625 C 2.53125 6.753906 2.1875 6.613281 2.0625 6.320312 C 1.9375 6.023438 2.074219 5.683594 2.367188 5.558594 Z M 3.484375 7.273438 C 3.605469 6.976562 3.941406 6.832031 4.242188 6.953125 C 4.539062 7.074219 4.683594 7.410156 4.566406 7.707031 C 4.445312 8.007812 4.105469 8.152344 3.808594 8.03125 C 3.511719 7.910156 3.367188 7.574219 3.484375 7.273438 Z M 5.492188 7.699219 C 5.363281 7.402344 5.5 7.0625 5.796875 6.9375 C 6.09375 6.8125 6.433594 6.949219 6.558594 7.242188 C 6.683594 7.539062 6.546875 7.878906 6.253906 8.003906 C 5.957031 8.128906 5.617188 7.992188 5.492188 7.699219 Z M 7.207031 6.582031 C 6.910156 6.460938 6.765625 6.121094 6.886719 5.824219 C 7.003906 5.527344 7.34375 5.382812 7.640625 5.503906 C 7.9375 5.621094 8.082031 5.960938 7.960938 6.257812 C 7.84375 6.554688 7.503906 6.699219 7.207031 6.582031 Z M 7.632812 4.574219 C 7.335938 4.703125 6.996094 4.566406 6.871094 4.269531 C 6.742188 3.972656 6.878906 3.632812 7.175781 3.507812 C 7.46875 3.382812 7.8125 3.519531 7.9375 3.816406 C 8.0625 4.109375 7.925781 4.449219 7.632812 4.574219 Z M 7.632812 4.574219 "/>
</svg>
