<?xml version="1.0" encoding="UTF-8"?>
<svg xmlns="http://www.w3.org/2000/svg" xmlns:xlink="http://www.w3.org/1999/xlink" width="10" height="29.977179" viewBox="0 0 10 29.977179">
<path fill-rule="nonzero" fill="rgb(51.372549%, 51.372549%, 51.372549%)" fill-opacity="1" d="M 0.0390625 0 L 10 0 L 10 29.976562 L 0.0390625 29.976562 Z M 0.0390625 0 "/>
<path fill-rule="nonzero" fill="rgb(0%, 0%, 0%)" fill-opacity="1" d="M 5 9.320312 C 2.585938 9.320312 0.625 7.363281 0.625 4.945312 C 0.625 2.527344 2.585938 0.566406 5 0.566406 C 7.417969 0.566406 9.375 2.527344 9.375 4.945312 C 9.375 7.363281 7.417969 9.320312 5 9.320312 Z M 5 9.320312 "/>
<path fill-rule="evenodd" fill="rgb(100%, 100%, 100%)" fill-opacity="1" d="M 4.035156 2.183594 L 2.128906 7.292969 L 3.289062 7.292969 L 3.882812 5.878906 L 6.117188 5.878906 L 6.714844 7.292969 L 7.875 7.292969 L 5.96875 2.183594 Z M 5 3.222656 L 5.628906 4.714844 L 4.375 4.714844 Z M 5 3.222656 "/>
<path fill-rule="nonzero" fill="rgb(0%, 0%, 0%)" fill-opacity="1" d="M 9.375 24.996094 C 9.375 27.40625 7.425781 29.355469 5.019531 29.355469 C 2.609375 29.355469 0.660156 27.40625 0.660156 24.996094 C 0.660156 22.589844 2.609375 20.640625 5.019531 20.640625 C 7.425781 20.640625 9.375 22.589844 9.375 24.996094 Z M 9.375 24.996094 "/>
<path fill-rule="nonzero" fill="rgb(100%, 100%, 100%)" fill-opacity="1" d="M 4.167969 21.917969 L 6.082031 21.917969 L 6.082031 28.308594 L 4.167969 28.308594 Z M 4.167969 21.917969 "/>
<path fill-rule="nonzero" fill="rgb(0%, 0%, 0%)" fill-opacity="1" d="M 5.019531 19.394531 C 2.609375 19.394531 0.660156 17.445312 0.660156 15.035156 C 0.660156 12.628906 2.609375 10.679688 5.019531 10.679688 C 7.425781 10.679688 9.375 12.628906 9.375 15.035156 C 9.375 17.445312 7.425781 19.394531 5.019531 19.394531 Z M 5.019531 19.394531 "/>
</svg>
