<?xml version="1.0" encoding="UTF-8"?>
<svg xmlns="http://www.w3.org/2000/svg" xmlns:xlink="http://www.w3.org/1999/xlink" width="10" height="20" viewBox="0 0 10 20">
<rect x="-1" y="-2" width="12" height="24" fill="rgb(51.372549%, 51.372549%, 51.372549%)" fill-opacity="1"/>
<path fill-rule="nonzero" fill="rgb(0%, 0%, 0%)" fill-opacity="1" d="M 9.375 15 C 9.375 17.417969 7.417969 19.375 5 19.375 C 2.582031 19.375 0.625 17.417969 0.625 15 C 0.625 12.582031 2.582031 10.625 5 10.625 C 7.417969 10.625 9.375 12.582031 9.375 15 Z M 9.375 15 "/>
<path fill-rule="nonzero" fill="rgb(100%, 100%, 100%)" fill-opacity="1" d="M 7.402344 12.679688 L 8.367188 14.347656 L 2.808594 17.554688 L 1.847656 15.886719 Z M 7.402344 12.679688 "/>
<path fill-rule="nonzero" fill="rgb(0%, 0%, 0%)" fill-opacity="1" d="M 5 9.375 C 2.582031 9.375 0.625 7.417969 0.625 5 C 0.625 2.582031 2.582031 0.625 5 0.625 C 7.417969 0.625 9.375 2.582031 9.375 5 C 9.375 7.417969 7.417969 9.375 5 9.375 Z M 5 9.375 "/>
</svg>
