<?xml version="1.0" encoding="UTF-8"?>
<svg xmlns="http://www.w3.org/2000/svg" xmlns:xlink="http://www.w3.org/1999/xlink" width="10" height="30.092033" viewBox="0 0 10 30.092033">
<path fill-rule="nonzero" fill="rgb(51.372549%, 51.372549%, 51.372549%)" fill-opacity="1" d="M 0 0 L 10 0 L 10 30.089844 L 0 30.089844 Z M 0 0 "/>
<path fill-rule="nonzero" fill="rgb(0%, 0%, 0%)" fill-opacity="1" d="M 4.980469 9.355469 C 2.558594 9.355469 0.589844 7.390625 0.589844 4.964844 C 0.589844 2.535156 2.558594 0.570312 4.980469 0.570312 C 7.40625 0.570312 9.371094 2.535156 9.371094 4.964844 C 9.371094 7.390625 7.40625 9.355469 4.980469 9.355469 Z M 4.980469 9.355469 "/>
<path fill-rule="evenodd" fill="rgb(100%, 100%, 100%)" fill-opacity="1" d="M 4.011719 2.191406 L 2.097656 7.324219 L 3.261719 7.324219 L 3.859375 5.898438 L 6.101562 5.898438 L 6.699219 7.324219 L 7.867188 7.324219 L 5.953125 2.191406 Z M 4.980469 3.238281 L 5.609375 4.734375 L 4.351562 4.734375 Z M 4.980469 3.238281 "/>
<path fill-rule="nonzero" fill="rgb(0%, 0%, 0%)" fill-opacity="1" d="M 9.371094 25.09375 C 9.371094 27.511719 7.417969 29.464844 5 29.464844 C 2.582031 29.464844 0.625 27.511719 0.625 25.09375 C 0.625 22.675781 2.582031 20.71875 5 20.71875 C 7.417969 20.71875 9.371094 22.675781 9.371094 25.09375 Z M 9.371094 25.09375 "/>
<path fill-rule="nonzero" fill="rgb(100%, 100%, 100%)" fill-opacity="1" d="M 1.84375 24.441406 L 2.808594 22.769531 L 8.363281 25.980469 L 7.402344 27.652344 Z M 1.84375 24.441406 "/>
<path fill-rule="nonzero" fill="rgb(0%, 0%, 0%)" fill-opacity="1" d="M 5 19.46875 C 2.582031 19.46875 0.625 17.511719 0.625 15.09375 C 0.625 12.675781 2.582031 10.71875 5 10.71875 C 7.417969 10.71875 9.371094 12.675781 9.371094 15.09375 C 9.371094 17.511719 7.417969 19.46875 5 19.46875 Z M 5 19.46875 "/>
</svg>
