<?xml version="1.0" encoding="UTF-8"?>
<svg xmlns="http://www.w3.org/2000/svg" xmlns:xlink="http://www.w3.org/1999/xlink" width="7.5" height="15" viewBox="0 0 7.5 15">
<path fill-rule="nonzero" fill="rgb(51.372552%, 51.372552%, 51.372552%)" fill-opacity="1" d="M 0 0 L 7.5 0 L 7.5 15 L 0 15 Z M 0 0 "/>
<path fill-rule="nonzero" fill="rgb(0%, 0%, 0%)" fill-opacity="1" d="M 7.03125 11.25 C 7.03125 13.0625 5.5625 14.53125 3.75 14.53125 C 1.9375 14.53125 0.46875 13.0625 0.46875 11.25 C 0.46875 9.4375 1.9375 7.96875 3.75 7.96875 C 5.5625 7.96875 7.03125 9.4375 7.03125 11.25 Z M 7.03125 11.25 "/>
<path fill-rule="nonzero" fill="rgb(100%, 100%, 100%)" fill-opacity="1" d="M 1.382812 10.761719 L 2.105469 9.507812 L 6.273438 11.914062 L 5.550781 13.167969 Z M 1.382812 10.761719 "/>
<path fill-rule="nonzero" fill="rgb(0%, 0%, 0%)" fill-opacity="1" d="M 3.75 7.03125 C 1.9375 7.03125 0.46875 5.5625 0.46875 3.75 C 0.46875 1.9375 1.9375 0.46875 3.75 0.46875 C 5.5625 0.46875 7.03125 1.9375 7.03125 3.75 C 7.03125 5.5625 5.5625 7.03125 3.75 7.03125 Z M 3.75 7.03125 "/>
</svg>
