<?xml version="1.0" encoding="UTF-8"?>
<svg xmlns="http://www.w3.org/2000/svg" xmlns:xlink="http://www.w3.org/1999/xlink" width="17.569022" height="15" viewBox="0 0 17.569022 15">
<path fill-rule="nonzero" fill="rgb(100%, 84.705883%, 8.235294%)" fill-opacity="1" stroke-width="22.5" stroke-linecap="butt" stroke-linejoin="miter" stroke="rgb(100%, 100%, 100%)" stroke-opacity="1" stroke-miterlimit="4" d="M 164.732743 -115.146473 C 71.747279 -115.00841 -19.23627 -115.698725 -106.63018 -115.90582 C -63.485477 -39.902111 -15.715662 39.415111 27.429041 115.487851 Z M 164.732743 -115.146473 " transform="matrix(0.0565865, 0, 0, 0.0565865, 7.127575, 7.199326)"/>
<path fill="none" stroke-width="8.040658" stroke-linecap="butt" stroke-linejoin="miter" stroke="rgb(0%, 0%, 0%)" stroke-opacity="1" stroke-miterlimit="4" d="M 165.423058 -115.767757 C 71.954374 -115.560662 -19.443365 -116.250977 -107.320496 -116.527103 C -63.968698 -40.109206 -15.922757 39.622205 27.429041 116.040103 Z M 165.423058 -115.767757 " transform="matrix(0.0565865, 0, 0, 0.0565865, 7.127575, 7.199326)"/>
<path fill-rule="nonzero" fill="rgb(0%, 0%, 0%)" fill-opacity="1" d="M 8.582031 1.785156 C 7.523438 1.785156 6.640625 2.558594 6.554688 3.5625 L 7.582031 3.5625 C 7.667969 3.113281 8.085938 2.769531 8.582031 2.769531 C 9.144531 2.769531 9.601562 3.203125 9.601562 3.738281 C 9.601562 4.382812 9.132812 4.765625 8.585938 4.765625 L 8.128906 4.765625 L 8.128906 5.597656 L 8.585938 5.59375 C 9.132812 5.597656 9.601562 5.976562 9.601562 6.625 C 9.601562 7.15625 9.144531 7.589844 8.582031 7.589844 C 8.085938 7.589844 7.667969 7.25 7.582031 6.800781 L 6.554688 6.800781 C 6.640625 7.804688 7.523438 8.578125 8.582031 8.578125 C 9.707031 8.578125 10.621094 7.710938 10.621094 6.644531 C 10.621094 6.042969 10.328125 5.519531 9.875 5.179688 C 10.328125 4.839844 10.621094 4.320312 10.621094 3.714844 C 10.621094 2.648438 9.707031 1.785156 8.582031 1.785156 Z M 8.582031 1.785156 "/>
</svg>
