<?xml version="1.0" encoding="UTF-8"?>
<svg xmlns="http://www.w3.org/2000/svg" xmlns:xlink="http://www.w3.org/1999/xlink" width="22.254094" height="19" viewBox="0 0 22.254094 19">
<path fill-rule="nonzero" fill="rgb(100%, 84.705883%, 8.235294%)" fill-opacity="1" stroke-width="22.5" stroke-linecap="butt" stroke-linejoin="miter" stroke="rgb(100%, 100%, 100%)" stroke-opacity="1" stroke-miterlimit="4" d="M 164.736278 -115.128243 C 71.761771 -115.019245 -19.250789 -115.673228 -106.611947 -115.891222 C -63.503603 -39.920259 -15.708384 39.429613 27.454459 115.509574 Z M 164.736278 -115.128243 " transform="matrix(0.0716762, 0, 0, 0.0716762, 9.028262, 9.119146)"/>
<path fill="none" stroke-width="8.040658" stroke-linecap="butt" stroke-linejoin="miter" stroke="rgb(0%, 0%, 0%)" stroke-opacity="1" stroke-miterlimit="4" d="M 165.444759 -115.782225 C 71.979765 -115.564231 -19.468783 -116.272712 -107.320428 -116.545205 C -63.99409 -40.083755 -15.926378 39.647608 27.454459 116.054559 Z M 165.444759 -115.782225 " transform="matrix(0.0716762, 0, 0, 0.0716762, 9.028262, 9.119146)"/>
<path fill-rule="nonzero" fill="rgb(0%, 0%, 0%)" fill-opacity="1" d="M 11.296875 2.703125 L 9.019531 8.621094 L 9.019531 9.703125 L 11.75 9.703125 L 11.75 10.972656 L 12.660156 10.972656 L 12.660156 9.703125 L 13.199219 9.703125 L 13.199219 8.621094 L 12.660156 8.621094 L 12.660156 6.285156 L 11.75 6.285156 L 11.75 8.621094 L 10.074219 8.621094 L 12.339844 2.710938 Z M 11.296875 2.703125 "/>
</svg>
