<?xml version="1.0" encoding="UTF-8"?>
<svg xmlns="http://www.w3.org/2000/svg" xmlns:xlink="http://www.w3.org/1999/xlink" width="22.254094" height="19" viewBox="0 0 22.254094 19">
<path fill-rule="nonzero" fill="rgb(100%, 84.705883%, 8.235294%)" fill-opacity="1" stroke-width="22.5" stroke-linecap="butt" stroke-linejoin="miter" stroke="rgb(100%, 100%, 100%)" stroke-opacity="1" stroke-miterlimit="4" d="M 164.736278 -115.128243 C 71.761771 -115.019245 -19.250789 -115.673228 -106.611947 -115.891222 C -63.503603 -39.920259 -15.708384 39.429613 27.454459 115.509574 Z M 164.736278 -115.128243 " transform="matrix(0.0716762, 0, 0, 0.0716762, 9.028262, 9.119146)"/>
<path fill="none" stroke-width="8.040658" stroke-linecap="butt" stroke-linejoin="miter" stroke="rgb(0%, 0%, 0%)" stroke-opacity="1" stroke-miterlimit="4" d="M 165.444759 -115.782225 C 71.979765 -115.564231 -19.468783 -116.272712 -107.320428 -116.545205 C -63.99409 -40.083755 -15.926378 39.647608 27.454459 116.054559 Z M 165.444759 -115.782225 " transform="matrix(0.0716762, 0, 0, 0.0716762, 9.028262, 9.119146)"/>
<path fill-rule="nonzero" fill="rgb(0%, 0%, 0%)" fill-opacity="1" d="M 10.871094 2.261719 C 9.53125 2.261719 8.410156 3.242188 8.300781 4.511719 L 9.605469 4.511719 C 9.710938 3.945312 10.242188 3.507812 10.871094 3.507812 C 11.582031 3.507812 12.160156 4.058594 12.160156 4.734375 C 12.160156 5.550781 11.566406 6.035156 10.875 6.035156 L 10.296875 6.035156 L 10.296875 7.089844 L 10.875 7.085938 C 11.566406 7.089844 12.160156 7.570312 12.160156 8.390625 C 12.160156 9.066406 11.582031 9.613281 10.871094 9.613281 C 10.242188 9.613281 9.710938 9.183594 9.605469 8.613281 L 8.300781 8.613281 C 8.410156 9.886719 9.53125 10.867188 10.871094 10.867188 C 12.296875 10.867188 13.453125 9.765625 13.453125 8.417969 C 13.453125 7.65625 13.082031 6.992188 12.507812 6.5625 C 13.082031 6.128906 13.453125 5.472656 13.453125 4.707031 C 13.453125 3.355469 12.296875 2.261719 10.871094 2.261719 Z M 10.871094 2.261719 "/>
</svg>
