<?xml version="1.0" encoding="UTF-8"?>
<svg xmlns="http://www.w3.org/2000/svg" xmlns:xlink="http://www.w3.org/1999/xlink" width="17.569022" height="15" viewBox="0 0 17.569022 15">
<path fill-rule="nonzero" fill="rgb(100%, 84.705883%, 8.235294%)" fill-opacity="1" stroke-width="22.5" stroke-linecap="butt" stroke-linejoin="miter" stroke="rgb(100%, 100%, 100%)" stroke-opacity="1" stroke-miterlimit="4" d="M 164.732743 -115.146473 C 71.747279 -115.00841 -19.23627 -115.698725 -106.63018 -115.90582 C -63.485477 -39.902111 -15.715662 39.415111 27.429041 115.487851 Z M 164.732743 -115.146473 " transform="matrix(0.0565865, 0, 0, 0.0565865, 7.127575, 7.199326)"/>
<path fill-rule="nonzero" fill="rgb(0%, 0%, 0%)" fill-opacity="1" d="M 7.730469 3.785156 L 6.953125 4.316406 L 6.953125 3.292969 L 7.726562 2.753906 L 8.570312 2.753906 L 8.570312 8.1875 L 7.722656 8.1875 Z M 7.730469 3.785156 "/>
<path fill-rule="nonzero" fill="rgb(0%, 0%, 0%)" fill-opacity="1" d="M 9.34375 1.878906 L 9.34375 3.441406 L 9.792969 3.433594 C 9.792969 3.3125 9.988281 3.242188 10.207031 3.242188 C 10.429688 3.242188 10.585938 3.457031 10.585938 3.566406 L 10.582031 4.023438 C 10.582031 4.203125 10.339844 4.347656 10.175781 4.347656 C 10.015625 4.347656 9.785156 4.234375 9.785156 4.023438 L 9.34375 4.023438 C 9.34375 4.402344 9.730469 4.75 10.183594 4.75 C 10.558594 4.75 10.980469 4.488281 10.980469 4.167969 C 10.980469 3.914062 10.984375 3.660156 10.980469 3.40625 C 10.976562 3.074219 10.539062 2.84375 10.296875 2.835938 C 10.164062 2.835938 9.890625 2.875 9.792969 2.964844 L 9.792969 2.261719 L 10.96875 2.261719 L 10.96875 1.882812 L 9.714844 1.882812 L 9.714844 1.878906 Z M 9.34375 1.878906 "/>
<path fill="none" stroke-width="8.040658" stroke-linecap="butt" stroke-linejoin="miter" stroke="rgb(0%, 0%, 0%)" stroke-opacity="1" stroke-miterlimit="4" d="M 165.423058 -115.767757 C 71.954374 -115.560662 -19.443365 -116.250977 -107.320496 -116.527103 C -63.968698 -40.109206 -15.922757 39.622205 27.429041 116.040103 Z M 165.423058 -115.767757 " transform="matrix(0.0565865, 0, 0, 0.0565865, 7.127575, 7.199326)"/>
</svg>
