<?xml version="1.0" encoding="UTF-8"?>
<svg xmlns="http://www.w3.org/2000/svg" xmlns:xlink="http://www.w3.org/1999/xlink" width="17.569022" height="15" viewBox="0 0 17.569022 15">
<path fill-rule="nonzero" fill="rgb(100%, 84.705883%, 8.235294%)" fill-opacity="1" stroke-width="22.5" stroke-linecap="butt" stroke-linejoin="miter" stroke="rgb(100%, 100%, 100%)" stroke-opacity="1" stroke-miterlimit="4" d="M 164.732743 -115.146473 C 71.747279 -115.00841 -19.23627 -115.698725 -106.63018 -115.90582 C -63.485477 -39.902111 -15.715662 39.415111 27.429041 115.487851 Z M 164.732743 -115.146473 " transform="matrix(0.0565865, 0, 0, 0.0565865, 7.127575, 7.199326)"/>
<path fill="none" stroke-width="8.040658" stroke-linecap="butt" stroke-linejoin="miter" stroke="rgb(0%, 0%, 0%)" stroke-opacity="1" stroke-miterlimit="4" d="M 165.423058 -115.767757 C 71.954374 -115.560662 -19.443365 -116.250977 -107.320496 -116.527103 C -63.968698 -40.109206 -15.922757 39.622205 27.429041 116.040103 Z M 165.423058 -115.767757 " transform="matrix(0.0565865, 0, 0, 0.0565865, 7.127575, 7.199326)"/>
<path fill-rule="nonzero" fill="rgb(0%, 0%, 0%)" fill-opacity="1" d="M 8.742188 2.410156 C 7.949219 2.410156 7.15625 3.160156 7.15625 3.875 L 7.15625 7.726562 C 7.15625 8.207031 7.632812 8.972656 8.714844 8.972656 C 9.589844 8.972656 10.269531 8.261719 10.269531 7.726562 L 10.269531 5.894531 C 10.269531 4.597656 8.746094 4.570312 8.210938 4.753906 L 8.210938 3.785156 C 8.210938 3.269531 9.382812 3.285156 9.382812 3.785156 L 10.328125 3.785156 C 10.328125 3.160156 9.535156 2.410156 8.742188 2.410156 Z M 8.683594 5.636719 C 8.953125 5.625 9.242188 5.75 9.242188 6 L 9.242188 7.492188 C 9.242188 8.148438 8.21875 8.1875 8.21875 7.492188 L 8.21875 5.988281 C 8.21875 5.761719 8.445312 5.644531 8.683594 5.636719 Z M 8.683594 5.636719 "/>
</svg>
