<?xml version="1.0" encoding="UTF-8"?>
<svg xmlns="http://www.w3.org/2000/svg" xmlns:xlink="http://www.w3.org/1999/xlink" width="17.569022" height="15" viewBox="0 0 17.569022 15">
<path fill-rule="nonzero" fill="rgb(100%, 84.705883%, 8.235294%)" fill-opacity="1" stroke-width="22.5" stroke-linecap="butt" stroke-linejoin="miter" stroke="rgb(100%, 100%, 100%)" stroke-opacity="1" stroke-miterlimit="4" d="M 164.732743 -115.146473 C 71.747279 -115.00841 -19.23627 -115.698725 -106.63018 -115.90582 C -63.485477 -39.902111 -15.715662 39.415111 27.429041 115.487851 Z M 164.732743 -115.146473 " transform="matrix(0.0565865, 0, 0, 0.0565865, 7.127575, 7.199326)"/>
<path fill="none" stroke-width="8.040658" stroke-linecap="butt" stroke-linejoin="miter" stroke="rgb(0%, 0%, 0%)" stroke-opacity="1" stroke-miterlimit="4" d="M 165.423058 -115.767757 C 71.954374 -115.560662 -19.443365 -116.250977 -107.320496 -116.527103 C -63.968698 -40.109206 -15.922757 39.622205 27.429041 116.040103 Z M 165.423058 -115.767757 " transform="matrix(0.0565865, 0, 0, 0.0565865, 7.127575, 7.199326)"/>
<path fill-rule="nonzero" fill="rgb(0%, 0%, 0%)" fill-opacity="1" d="M 10.25 1.878906 L 10.25 3.441406 L 10.703125 3.433594 C 10.703125 3.3125 10.894531 3.242188 11.117188 3.242188 C 11.335938 3.242188 11.492188 3.457031 11.492188 3.566406 L 11.488281 4.023438 C 11.488281 4.203125 11.246094 4.347656 11.085938 4.347656 C 10.925781 4.347656 10.691406 4.234375 10.691406 4.023438 L 10.253906 4.023438 C 10.253906 4.402344 10.640625 4.75 11.09375 4.75 C 11.464844 4.75 11.890625 4.488281 11.890625 4.167969 C 11.890625 3.914062 11.890625 3.660156 11.890625 3.40625 C 11.882812 3.074219 11.445312 2.84375 11.203125 2.835938 C 11.074219 2.835938 10.796875 2.875 10.703125 2.964844 L 10.703125 2.261719 L 11.875 2.261719 L 11.875 1.882812 L 10.625 1.882812 L 10.625 1.878906 Z M 10.25 1.878906 "/>
<path fill-rule="nonzero" fill="rgb(0%, 0%, 0%)" fill-opacity="1" d="M 9.691406 8.257812 L 7 8.257812 L 7 7.484375 L 8.828125 4.730469 C 9.691406 3.40625 7.613281 2.925781 7.613281 4.222656 L 7.613281 4.726562 L 6.933594 4.726562 L 6.933594 4.277344 C 6.933594 3.535156 7.222656 2.824219 8.410156 2.824219 C 9.59375 2.824219 10.175781 4.105469 9.484375 5.140625 L 7.871094 7.492188 L 9.691406 7.492188 L 9.691406 8.257812 "/>
</svg>
