<?xml version="1.0" encoding="UTF-8"?>
<svg xmlns="http://www.w3.org/2000/svg" xmlns:xlink="http://www.w3.org/1999/xlink" width="22.254093" height="19" viewBox="0 0 22.254093 19">
<path fill-rule="nonzero" fill="rgb(100%, 84.705882%, 8.235294%)" fill-opacity="1" stroke-width="22.5" stroke-linecap="butt" stroke-linejoin="miter" stroke="rgb(100%, 100%, 100%)" stroke-opacity="1" stroke-miterlimit="4" d="M 164.736342 -115.128294 C 71.761794 -115.019297 -19.250806 -115.673279 -106.612002 -115.891274 C -63.503639 -39.920277 -15.708399 39.42963 27.454463 115.509624 Z M 164.736342 -115.128294 " transform="matrix(0.0716762, 0, 0, 0.0716762, 9.028262, 9.119146)"/>
<path fill="none" stroke-width="8.040658" stroke-linecap="butt" stroke-linejoin="miter" stroke="rgb(0%, 0%, 0%)" stroke-opacity="1" stroke-miterlimit="4" d="M 165.444824 -115.782276 C 71.979788 -115.564282 -19.4688 -116.272763 -107.320483 -116.545256 C -63.994126 -40.083773 -15.926393 39.647625 27.454463 116.05461 Z M 165.444824 -115.782276 " transform="matrix(0.0716762, 0, 0, 0.0716762, 9.028262, 9.119146)"/>
<path fill-rule="nonzero" fill="rgb(0%, 0%, 0%)" fill-opacity="1" d="M 9.121094 3.054688 L 9.121094 5.363281 L 10.140625 5.363281 L 10.140625 4.179688 L 12.105469 4.179688 L 9.625 11.355469 L 10.65625 11.367188 L 13.136719 4.179688 L 13.136719 3.066406 L 10.207031 3.066406 L 10.207031 3.054688 Z M 9.121094 3.054688 "/>
</svg>
