<?xml version="1.0" encoding="UTF-8"?>
<svg xmlns="http://www.w3.org/2000/svg" xmlns:xlink="http://www.w3.org/1999/xlink" width="22.254094" height="19" viewBox="0 0 22.254094 19">
<path fill-rule="nonzero" fill="rgb(100%, 84.705883%, 8.235294%)" fill-opacity="1" stroke-width="22.5" stroke-linecap="butt" stroke-linejoin="miter" stroke="rgb(100%, 100%, 100%)" stroke-opacity="1" stroke-miterlimit="4" d="M 164.736278 -115.128243 C 71.761771 -115.019245 -19.250789 -115.673228 -106.611947 -115.891222 C -63.503603 -39.920259 -15.708384 39.429613 27.454459 115.509574 Z M 164.736278 -115.128243 " transform="matrix(0.0716762, 0, 0, 0.0716762, 9.028262, 9.119146)"/>
<path fill-rule="nonzero" fill="rgb(0%, 0%, 0%)" fill-opacity="1" d="M 9.792969 4.792969 L 8.808594 5.46875 L 8.808594 4.171875 L 9.785156 3.488281 L 10.855469 3.488281 L 10.855469 10.371094 L 9.78125 10.371094 Z M 9.792969 4.792969 "/>
<path fill-rule="nonzero" fill="rgb(0%, 0%, 0%)" fill-opacity="1" d="M 11.835938 2.378906 L 11.835938 4.359375 L 12.40625 4.347656 C 12.40625 4.195312 12.652344 4.105469 12.929688 4.105469 C 13.210938 4.105469 13.410156 4.378906 13.410156 4.515625 L 13.402344 5.097656 C 13.402344 5.324219 13.097656 5.507812 12.890625 5.507812 C 12.6875 5.507812 12.394531 5.363281 12.394531 5.097656 L 11.835938 5.097656 C 11.835938 5.578125 12.324219 6.015625 12.898438 6.015625 C 13.375 6.015625 13.910156 5.683594 13.910156 5.28125 C 13.910156 4.957031 13.914062 4.636719 13.910156 4.316406 C 13.902344 3.894531 13.347656 3.601562 13.042969 3.59375 C 12.875 3.59375 12.527344 3.640625 12.40625 3.753906 L 12.40625 2.863281 L 13.894531 2.863281 L 13.894531 2.386719 L 12.304688 2.386719 L 12.304688 2.378906 Z M 11.835938 2.378906 "/>
<path fill="none" stroke-width="8.040658" stroke-linecap="butt" stroke-linejoin="miter" stroke="rgb(0%, 0%, 0%)" stroke-opacity="1" stroke-miterlimit="4" d="M 165.444759 -115.782225 C 71.979765 -115.564231 -19.468783 -116.272712 -107.320428 -116.545205 C -63.99409 -40.083755 -15.926378 39.647608 27.454459 116.054559 Z M 165.444759 -115.782225 " transform="matrix(0.0716762, 0, 0, 0.0716762, 9.028262, 9.119146)"/>
</svg>
