<?xml version="1.0" encoding="UTF-8"?>
<svg xmlns="http://www.w3.org/2000/svg" xmlns:xlink="http://www.w3.org/1999/xlink" width="22.254093" height="19" viewBox="0 0 22.254093 19">
<path fill-rule="nonzero" fill="rgb(100%, 84.705883%, 8.235294%)" fill-opacity="1" stroke-width="22.5" stroke-linecap="butt" stroke-linejoin="miter" stroke="rgb(100%, 100%, 100%)" stroke-opacity="1" stroke-miterlimit="4" d="M 164.736342 -115.128294 C 71.761794 -115.019297 -19.250806 -115.673279 -106.612002 -115.891274 C -63.503639 -39.920277 -15.708399 39.42963 27.454463 115.509624 Z M 164.736342 -115.128294 " transform="matrix(0.0716762, 0, 0, 0.0716762, 9.028262, 9.119146)"/>
<path fill="none" stroke-width="8.040658" stroke-linecap="butt" stroke-linejoin="miter" stroke="rgb(0%, 0%, 0%)" stroke-opacity="1" stroke-miterlimit="4" d="M 165.444824 -115.782276 C 71.979788 -115.564282 -19.4688 -116.272763 -107.320483 -116.545256 C -63.994126 -40.083773 -15.926393 39.647625 27.454463 116.05461 Z M 165.444824 -115.782276 " transform="matrix(0.0716762, 0, 0, 0.0716762, 9.028262, 9.119146)"/>
<path fill-rule="nonzero" fill="rgb(0%, 0%, 0%)" fill-opacity="1" d="M 8.363281 3.097656 L 8.363281 3.101562 L 8.359375 3.101562 L 8.359375 4.195312 L 8.363281 4.195312 L 8.363281 7.554688 L 9.457031 7.554688 L 9.457031 7.519531 C 9.585938 7.074219 9.988281 6.769531 10.453125 6.769531 C 11.007812 6.769531 11.46875 7.210938 11.492188 7.761719 L 11.488281 9.273438 C 11.4375 9.816406 11.019531 10.238281 10.472656 10.238281 C 9.925781 10.238281 9.46875 9.816406 9.425781 9.273438 L 8.367188 9.273438 C 8.375 10.429688 9.316406 11.367188 10.472656 11.367188 C 11.625 11.367188 12.5625 10.433594 12.578125 9.289062 L 12.578125 7.761719 C 12.582031 7.714844 12.582031 7.664062 12.582031 7.621094 C 12.582031 6.546875 11.710938 5.675781 10.636719 5.675781 C 10.195312 5.675781 9.785156 5.824219 9.460938 6.074219 L 9.460938 4.195312 L 12.410156 4.195312 L 12.410156 3.101562 L 9.457031 3.101562 L 9.457031 3.097656 Z M 8.363281 3.097656 "/>
<path fill-rule="nonzero" fill="rgb(0%, 0%, 0%)" fill-opacity="1" d="M 13.257812 2.378906 L 13.257812 4.359375 L 13.828125 4.347656 C 13.828125 4.195312 14.074219 4.105469 14.351562 4.105469 C 14.632812 4.105469 14.832031 4.378906 14.832031 4.515625 L 14.824219 5.097656 C 14.824219 5.324219 14.519531 5.507812 14.3125 5.507812 C 14.109375 5.507812 13.816406 5.363281 13.816406 5.097656 L 13.257812 5.097656 C 13.257812 5.578125 13.746094 6.015625 14.320312 6.015625 C 14.796875 6.015625 15.332031 5.683594 15.332031 5.28125 C 15.332031 4.957031 15.335938 4.636719 15.332031 4.316406 C 15.324219 3.894531 14.769531 3.601562 14.464844 3.59375 C 14.296875 3.59375 13.949219 3.640625 13.828125 3.753906 L 13.828125 2.863281 L 15.316406 2.863281 L 15.316406 2.386719 L 13.726562 2.386719 L 13.726562 2.378906 Z M 13.257812 2.378906 "/>
</svg>
