<?xml version="1.0" encoding="UTF-8"?>
<svg xmlns="http://www.w3.org/2000/svg" xmlns:xlink="http://www.w3.org/1999/xlink" width="17.569022" height="15" viewBox="0 0 17.569022 15">
<path fill-rule="nonzero" fill="rgb(100%, 84.705883%, 8.235294%)" fill-opacity="1" stroke-width="22.5" stroke-linecap="butt" stroke-linejoin="miter" stroke="rgb(100%, 100%, 100%)" stroke-opacity="1" stroke-miterlimit="4" d="M 164.732743 -115.146473 C 71.747279 -115.00841 -19.23627 -115.698725 -106.63018 -115.90582 C -63.485477 -39.902111 -15.715662 39.415111 27.429041 115.487851 Z M 164.732743 -115.146473 " transform="matrix(0.0565865, 0, 0, 0.0565865, 7.127575, 7.199326)"/>
<path fill="none" stroke-width="8.040658" stroke-linecap="butt" stroke-linejoin="miter" stroke="rgb(0%, 0%, 0%)" stroke-opacity="1" stroke-miterlimit="4" d="M 165.423058 -115.767757 C 71.954374 -115.560662 -19.443365 -116.250977 -107.320496 -116.527103 C -63.968698 -40.109206 -15.922757 39.622205 27.429041 116.040103 Z M 165.423058 -115.767757 " transform="matrix(0.0565865, 0, 0, 0.0565865, 7.127575, 7.199326)"/>
<path fill-rule="nonzero" fill="rgb(0%, 0%, 0%)" fill-opacity="1" d="M 8.917969 2.132812 L 7.121094 6.804688 L 7.121094 7.660156 L 9.277344 7.660156 L 9.277344 8.664062 L 9.996094 8.664062 L 9.996094 7.660156 L 10.421875 7.660156 L 10.421875 6.804688 L 9.996094 6.804688 L 9.996094 4.960938 L 9.277344 4.960938 L 9.277344 6.804688 L 7.953125 6.804688 L 9.742188 2.140625 Z M 8.917969 2.132812 "/>
</svg>
