<?xml version="1.0" encoding="UTF-8"?>
<svg xmlns="http://www.w3.org/2000/svg" xmlns:xlink="http://www.w3.org/1999/xlink" width="22.254093" height="19" viewBox="0 0 22.254093 19">
<path fill-rule="nonzero" fill="rgb(100%, 84.705883%, 8.235294%)" fill-opacity="1" stroke-width="22.5" stroke-linecap="butt" stroke-linejoin="miter" stroke="rgb(100%, 100%, 100%)" stroke-opacity="1" stroke-miterlimit="4" d="M 164.736342 -115.128294 C 71.761794 -115.019297 -19.250806 -115.673279 -106.612002 -115.891274 C -63.503639 -39.920277 -15.708399 39.42963 27.454463 115.509624 Z M 164.736342 -115.128294 " transform="matrix(0.0716762, 0, 0, 0.0716762, 9.028262, 9.119146)"/>
<path fill="none" stroke-width="8.040658" stroke-linecap="butt" stroke-linejoin="miter" stroke="rgb(0%, 0%, 0%)" stroke-opacity="1" stroke-miterlimit="4" d="M 165.444824 -115.782276 C 71.979788 -115.564282 -19.4688 -116.272763 -107.320483 -116.545256 C -63.994126 -40.083773 -15.926393 39.647625 27.454463 116.05461 Z M 165.444824 -115.782276 " transform="matrix(0.0716762, 0, 0, 0.0716762, 9.028262, 9.119146)"/>
<path fill-rule="nonzero" fill="rgb(0%, 0%, 0%)" fill-opacity="1" d="M 10.550781 2.703125 L 8.273438 8.621094 L 8.273438 9.703125 L 11.003906 9.703125 L 11.003906 10.972656 L 11.914062 10.972656 L 11.914062 9.703125 L 12.453125 9.703125 L 12.453125 8.621094 L 11.914062 8.621094 L 11.914062 6.285156 L 11.003906 6.285156 L 11.003906 8.621094 L 9.328125 8.621094 L 11.59375 2.710938 Z M 10.550781 2.703125 "/>
<path fill-rule="nonzero" fill="rgb(0%, 0%, 0%)" fill-opacity="1" d="M 13.125 2.378906 L 13.125 4.359375 L 13.695312 4.347656 C 13.695312 4.195312 13.941406 4.105469 14.21875 4.105469 C 14.5 4.105469 14.699219 4.378906 14.699219 4.515625 L 14.691406 5.097656 C 14.691406 5.324219 14.386719 5.507812 14.179688 5.507812 C 13.976562 5.507812 13.683594 5.363281 13.683594 5.097656 L 13.125 5.097656 C 13.125 5.578125 13.613281 6.015625 14.1875 6.015625 C 14.664062 6.015625 15.199219 5.683594 15.199219 5.28125 C 15.199219 4.957031 15.203125 4.636719 15.199219 4.316406 C 15.191406 3.894531 14.636719 3.601562 14.332031 3.59375 C 14.164062 3.59375 13.816406 3.640625 13.695312 3.753906 L 13.695312 2.863281 L 15.183594 2.863281 L 15.183594 2.386719 L 13.59375 2.386719 L 13.59375 2.378906 Z M 13.125 2.378906 "/>
</svg>
