<?xml version="1.0" encoding="UTF-8"?>
<svg xmlns="http://www.w3.org/2000/svg" xmlns:xlink="http://www.w3.org/1999/xlink" width="22.254093" height="19" viewBox="0 0 22.254093 19">
<path fill-rule="nonzero" fill="rgb(100%, 84.705883%, 8.235294%)" fill-opacity="1" stroke-width="22.5" stroke-linecap="butt" stroke-linejoin="miter" stroke="rgb(100%, 100%, 100%)" stroke-opacity="1" stroke-miterlimit="4" d="M 164.736342 -115.128294 C 71.761794 -115.019297 -19.250806 -115.673279 -106.612002 -115.891274 C -63.503639 -39.920277 -15.708399 39.42963 27.454463 115.509624 Z M 164.736342 -115.128294 " transform="matrix(0.0716762, 0, 0, 0.0716762, 9.028262, 9.119146)"/>
<path fill-rule="nonzero" fill="rgb(0%, 0%, 0%)" fill-opacity="1" d="M 11.851562 2.378906 L 11.851562 4.359375 L 12.421875 4.347656 C 12.421875 4.195312 12.667969 4.105469 12.945312 4.105469 C 13.226562 4.105469 13.425781 4.378906 13.425781 4.515625 L 13.417969 5.097656 C 13.417969 5.324219 13.113281 5.507812 12.90625 5.507812 C 12.703125 5.507812 12.410156 5.363281 12.410156 5.097656 L 11.851562 5.097656 C 11.851562 5.578125 12.339844 6.015625 12.914062 6.015625 C 13.390625 6.015625 13.925781 5.683594 13.925781 5.28125 C 13.925781 4.957031 13.929688 4.636719 13.925781 4.316406 C 13.917969 3.894531 13.363281 3.601562 13.058594 3.59375 C 12.890625 3.59375 12.542969 3.640625 12.421875 3.753906 L 12.421875 2.863281 L 13.910156 2.863281 L 13.910156 2.386719 L 12.320312 2.386719 L 12.320312 2.378906 Z M 11.851562 2.378906 "/>
<path fill="none" stroke-width="8.040658" stroke-linecap="butt" stroke-linejoin="miter" stroke="rgb(0%, 0%, 0%)" stroke-opacity="1" stroke-miterlimit="4" d="M 165.444824 -115.782276 C 71.979788 -115.564282 -19.4688 -116.272763 -107.320483 -116.545256 C -63.994126 -40.083773 -15.926393 39.647625 27.454463 116.05461 Z M 165.444824 -115.782276 " transform="matrix(0.0716762, 0, 0, 0.0716762, 9.028262, 9.119146)"/>
<path fill-rule="nonzero" fill="rgb(0%, 0%, 0%)" fill-opacity="1" d="M 9.769531 3.492188 C 9.054688 3.496094 8.339844 3.984375 8.339844 4.945312 L 8.328125 4.945312 L 8.328125 8.921875 L 8.339844 8.921875 C 8.355469 10.863281 11.203125 10.839844 11.203125 8.921875 L 11.210938 8.921875 L 11.210938 4.945312 L 11.203125 4.945312 C 11.203125 3.96875 10.484375 3.488281 9.769531 3.492188 Z M 9.769531 4.355469 C 10.070312 4.351562 10.375 4.550781 10.375 4.945312 L 10.375 8.921875 C 10.375 9.703125 9.167969 9.703125 9.167969 8.902344 L 9.167969 4.945312 L 9.164062 4.945312 C 9.164062 4.558594 9.464844 4.359375 9.769531 4.355469 Z M 9.769531 4.355469 "/>
</svg>
