<?xml version="1.0" encoding="UTF-8"?>
<svg xmlns="http://www.w3.org/2000/svg" xmlns:xlink="http://www.w3.org/1999/xlink" width="17.569022" height="15" viewBox="0 0 17.569022 15">
<path fill-rule="nonzero" fill="rgb(100%, 84.705883%, 8.235294%)" fill-opacity="1" stroke-width="22.5" stroke-linecap="butt" stroke-linejoin="miter" stroke="rgb(100%, 100%, 100%)" stroke-opacity="1" stroke-miterlimit="4" d="M 164.732743 -115.146473 C 71.747279 -115.00841 -19.23627 -115.698725 -106.63018 -115.90582 C -63.485477 -39.902111 -15.715662 39.415111 27.429041 115.487851 Z M 164.732743 -115.146473 " transform="matrix(0.0565865, 0, 0, 0.0565865, 7.127575, 7.199326)"/>
<path fill="none" stroke-width="8.040658" stroke-linecap="butt" stroke-linejoin="miter" stroke="rgb(0%, 0%, 0%)" stroke-opacity="1" stroke-miterlimit="4" d="M 165.423058 -115.767757 C 71.954374 -115.560662 -19.443365 -116.250977 -107.320496 -116.527103 C -63.968698 -40.109206 -15.922757 39.622205 27.429041 116.040103 Z M 165.423058 -115.767757 " transform="matrix(0.0565865, 0, 0, 0.0565865, 7.127575, 7.199326)"/>
<path fill-rule="nonzero" fill="rgb(0%, 0%, 0%)" fill-opacity="1" d="M 7.128906 2.445312 L 7.128906 2.449219 L 7.125 2.449219 L 7.125 3.3125 L 7.128906 3.3125 L 7.128906 5.964844 L 7.992188 5.964844 L 7.992188 5.9375 C 8.09375 5.585938 8.414062 5.34375 8.78125 5.34375 C 9.21875 5.34375 9.582031 5.691406 9.601562 6.128906 L 9.59375 7.320312 C 9.554688 7.75 9.222656 8.082031 8.792969 8.082031 C 8.359375 8.082031 8 7.75 7.964844 7.320312 L 7.128906 7.320312 C 7.136719 8.234375 7.878906 8.972656 8.792969 8.972656 C 9.703125 8.972656 10.441406 8.238281 10.453125 7.332031 L 10.453125 6.128906 C 10.457031 6.089844 10.457031 6.050781 10.457031 6.015625 C 10.457031 5.167969 9.769531 4.480469 8.921875 4.480469 C 8.574219 4.480469 8.25 4.597656 7.992188 4.796875 L 7.992188 3.3125 L 10.324219 3.3125 L 10.324219 2.449219 L 7.992188 2.449219 L 7.992188 2.445312 Z M 7.128906 2.445312 "/>
</svg>
