<?xml version="1.0" encoding="UTF-8"?>
<svg xmlns="http://www.w3.org/2000/svg" xmlns:xlink="http://www.w3.org/1999/xlink" width="22.254094" height="19" viewBox="0 0 22.254094 19">
<path fill-rule="nonzero" fill="rgb(100%, 84.705883%, 8.235294%)" fill-opacity="1" stroke-width="22.5" stroke-linecap="butt" stroke-linejoin="miter" stroke="rgb(100%, 100%, 100%)" stroke-opacity="1" stroke-miterlimit="4" d="M 164.736278 -115.128243 C 71.761771 -115.019245 -19.250789 -115.673228 -106.611947 -115.891222 C -63.503603 -39.920259 -15.708384 39.429613 27.454459 115.509574 Z M 164.736278 -115.128243 " transform="matrix(0.0716762, 0, 0, 0.0716762, 9.028262, 9.119146)"/>
<path fill="none" stroke-width="8.040658" stroke-linecap="butt" stroke-linejoin="miter" stroke="rgb(0%, 0%, 0%)" stroke-opacity="1" stroke-miterlimit="4" d="M 165.444759 -115.782225 C 71.979765 -115.564231 -19.468783 -116.272712 -107.320428 -116.545205 C -63.99409 -40.083755 -15.926378 39.647608 27.454459 116.054559 Z M 165.444759 -115.782225 " transform="matrix(0.0716762, 0, 0, 0.0716762, 9.028262, 9.119146)"/>
<path fill-rule="nonzero" fill="rgb(0%, 0%, 0%)" fill-opacity="1" d="M 12.984375 2.378906 L 12.984375 4.359375 L 13.558594 4.347656 C 13.558594 4.195312 13.800781 4.105469 14.082031 4.105469 C 14.359375 4.105469 14.558594 4.378906 14.558594 4.515625 L 14.550781 5.097656 C 14.550781 5.324219 14.246094 5.507812 14.042969 5.507812 C 13.839844 5.507812 13.542969 5.363281 13.542969 5.097656 L 12.988281 5.097656 C 12.988281 5.578125 13.476562 6.015625 14.050781 6.015625 C 14.523438 6.015625 15.0625 5.683594 15.0625 5.28125 C 15.0625 4.957031 15.0625 4.636719 15.0625 4.316406 C 15.050781 3.894531 14.496094 3.601562 14.191406 3.59375 C 14.027344 3.59375 13.675781 3.640625 13.558594 3.753906 L 13.558594 2.863281 L 15.042969 2.863281 L 15.042969 2.386719 L 13.457031 2.386719 L 13.457031 2.378906 Z M 12.984375 2.378906 "/>
<path fill-rule="nonzero" fill="rgb(0%, 0%, 0%)" fill-opacity="1" d="M 10.355469 3.578125 C 9.28125 3.578125 8.386719 4.359375 8.300781 5.378906 L 9.339844 5.378906 C 9.429688 4.921875 9.851562 4.578125 10.355469 4.578125 C 10.925781 4.578125 11.390625 5.015625 11.390625 5.554688 C 11.390625 6.210938 10.914062 6.59375 10.359375 6.59375 L 9.894531 6.59375 L 9.894531 7.441406 L 10.359375 7.4375 C 10.914062 7.441406 11.390625 7.828125 11.390625 8.480469 C 11.390625 9.019531 10.925781 9.460938 10.355469 9.460938 C 9.851562 9.460938 9.429688 9.113281 9.339844 8.660156 L 8.300781 8.660156 C 8.386719 9.671875 9.28125 10.460938 10.355469 10.460938 C 11.5 10.460938 12.417969 9.585938 12.417969 8.5 C 12.417969 7.890625 12.128906 7.363281 11.664062 7.015625 C 12.128906 6.675781 12.417969 6.144531 12.417969 5.535156 C 12.417969 4.453125 11.5 3.578125 10.355469 3.578125 Z M 10.355469 3.578125 "/>
</svg>
