<?xml version="1.0" encoding="UTF-8"?>
<svg xmlns="http://www.w3.org/2000/svg" xmlns:xlink="http://www.w3.org/1999/xlink" width="22.254093" height="19" viewBox="0 0 22.254093 19">
<path fill-rule="nonzero" fill="rgb(100%, 84.705883%, 8.235294%)" fill-opacity="1" stroke-width="22.5" stroke-linecap="butt" stroke-linejoin="miter" stroke="rgb(100%, 100%, 100%)" stroke-opacity="1" stroke-miterlimit="4" d="M 164.736342 -115.128294 C 71.761794 -115.019297 -19.250806 -115.673279 -106.612002 -115.891274 C -63.503639 -39.920277 -15.708399 39.42963 27.454463 115.509624 Z M 164.736342 -115.128294 " transform="matrix(0.0716762, 0, 0, 0.0716762, 9.028262, 9.119146)"/>
<path fill="none" stroke-width="8.040658" stroke-linecap="butt" stroke-linejoin="miter" stroke="rgb(0%, 0%, 0%)" stroke-opacity="1" stroke-miterlimit="4" d="M 165.444824 -115.782276 C 71.979788 -115.564282 -19.4688 -116.272763 -107.320483 -116.545256 C -63.994126 -40.083773 -15.926393 39.647625 27.454463 116.05461 Z M 165.444824 -115.782276 " transform="matrix(0.0716762, 0, 0, 0.0716762, 9.028262, 9.119146)"/>
<path fill-rule="nonzero" fill="rgb(0%, 0%, 0%)" fill-opacity="1" d="M 10.5625 3.054688 C 9.558594 3.054688 8.554688 4.003906 8.554688 4.910156 L 8.554688 9.785156 C 8.554688 10.394531 9.15625 11.367188 10.527344 11.367188 C 11.636719 11.367188 12.496094 10.464844 12.496094 9.785156 L 12.496094 7.464844 C 12.496094 5.824219 10.566406 5.789062 9.890625 6.023438 L 9.890625 4.792969 C 9.890625 4.140625 11.375 4.160156 11.375 4.792969 L 12.570312 4.792969 C 12.570312 4.003906 11.566406 3.054688 10.5625 3.054688 Z M 10.488281 7.140625 C 10.828125 7.125 11.195312 7.285156 11.195312 7.601562 L 11.195312 9.488281 C 11.195312 10.320312 9.898438 10.371094 9.898438 9.488281 L 9.898438 7.585938 C 9.898438 7.296875 10.1875 7.148438 10.488281 7.140625 Z M 10.488281 7.140625 "/>
<path fill-rule="nonzero" fill="rgb(0%, 0%, 0%)" fill-opacity="1" d="M 13.304688 2.378906 L 13.304688 4.359375 L 13.875 4.347656 C 13.875 4.195312 14.121094 4.105469 14.398438 4.105469 C 14.679688 4.105469 14.878906 4.378906 14.878906 4.515625 L 14.871094 5.097656 C 14.871094 5.324219 14.566406 5.507812 14.359375 5.507812 C 14.15625 5.507812 13.863281 5.363281 13.863281 5.097656 L 13.304688 5.097656 C 13.304688 5.578125 13.792969 6.015625 14.367188 6.015625 C 14.84375 6.015625 15.378906 5.683594 15.378906 5.28125 C 15.378906 4.957031 15.382812 4.636719 15.378906 4.316406 C 15.371094 3.894531 14.816406 3.601562 14.511719 3.59375 C 14.34375 3.59375 13.996094 3.640625 13.875 3.753906 L 13.875 2.863281 L 15.363281 2.863281 L 15.363281 2.386719 L 13.773438 2.386719 L 13.773438 2.378906 Z M 13.304688 2.378906 "/>
</svg>
