<?xml version="1.0" encoding="UTF-8"?>
<svg xmlns="http://www.w3.org/2000/svg" xmlns:xlink="http://www.w3.org/1999/xlink" width="21.936259" height="19" viewBox="0 0 21.936259 19">
<path fill-rule="nonzero" fill="rgb(54.901963%, 54.901963%, 54.901963%)" fill-opacity="1" stroke-width="0.189223" stroke-linecap="square" stroke-linejoin="miter" stroke="rgb(0%, 0%, 0%)" stroke-opacity="1" stroke-miterlimit="4" d="M 0.163014 0.0931508 L 18.517049 0.0931508 L 9.341695 15.991997 Z M 0.163014 0.0931508 " transform="matrix(1.174171, 0, 0, 1.174171, 0, 0)"/>
<path fill-rule="nonzero" fill="rgb(100%, 100%, 0%)" fill-opacity="1" stroke-width="0.095" stroke-linecap="butt" stroke-linejoin="miter" stroke="rgb(0%, 0%, 0%)" stroke-opacity="1" stroke-miterlimit="4" d="M 7.445411 1.490413 C 7.445411 1.696675 7.275743 1.86967 7.062827 1.86967 C 6.856565 1.86967 6.68357 1.696675 6.68357 1.490413 C 6.68357 1.277497 6.856565 1.107829 7.062827 1.107829 C 7.275743 1.107829 7.445411 1.277497 7.445411 1.490413 Z M 7.445411 1.490413 " transform="matrix(1.174171, 0, 0, 1.174171, 0, 0)"/>
<path fill-rule="nonzero" fill="rgb(100%, 100%, 0%)" fill-opacity="1" stroke-width="0.095" stroke-linecap="butt" stroke-linejoin="miter" stroke="rgb(0%, 0%, 0%)" stroke-opacity="1" stroke-miterlimit="4" d="M 8.583181 1.490413 C 8.583181 1.696675 8.410187 1.86967 8.203924 1.86967 C 7.994335 1.86967 7.821341 1.696675 7.821341 1.490413 C 7.821341 1.277497 7.994335 1.107829 8.203924 1.107829 C 8.410187 1.107829 8.583181 1.277497 8.583181 1.490413 Z M 8.583181 1.490413 " transform="matrix(1.174171, 0, 0, 1.174171, 0, 0)"/>
<path fill-rule="nonzero" fill="rgb(100%, 100%, 0%)" fill-opacity="1" stroke-width="0.095" stroke-linecap="butt" stroke-linejoin="miter" stroke="rgb(0%, 0%, 0%)" stroke-opacity="1" stroke-miterlimit="4" d="M 11.996493 1.490413 C 11.996493 1.696675 11.826825 1.86967 11.617236 1.86967 C 11.407647 1.86967 11.234652 1.696675 11.234652 1.490413 C 11.234652 1.277497 11.407647 1.107829 11.617236 1.107829 C 11.826825 1.107829 11.996493 1.277497 11.996493 1.490413 Z M 11.996493 1.490413 " transform="matrix(1.174171, 0, 0, 1.174171, 0, 0)"/>
<path fill-rule="nonzero" fill="rgb(36.078432%, 36.078432%, 36.078432%)" fill-opacity="1" stroke-width="0.095" stroke-linecap="butt" stroke-linejoin="miter" stroke="rgb(0%, 0%, 0%)" stroke-opacity="1" stroke-miterlimit="4" d="M 8.583181 2.634837 C 8.583181 2.8411 8.410187 3.014094 8.203924 3.014094 C 7.994335 3.014094 7.821341 2.8411 7.821341 2.634837 C 7.821341 2.421921 7.994335 2.252253 8.203924 2.252253 C 8.410187 2.252253 8.583181 2.421921 8.583181 2.634837 Z M 8.583181 2.634837 " transform="matrix(1.174171, 0, 0, 1.174171, 0, 0)"/>
<path fill-rule="nonzero" fill="rgb(36.078432%, 36.078432%, 36.078432%)" fill-opacity="1" stroke-width="0.095" stroke-linecap="butt" stroke-linejoin="miter" stroke="rgb(0%, 0%, 0%)" stroke-opacity="1" stroke-miterlimit="4" d="M 9.720952 2.634837 C 9.720952 2.8411 9.551284 3.014094 9.341695 3.014094 C 9.128779 3.014094 8.962438 2.8411 8.962438 2.634837 C 8.962438 2.421921 9.128779 2.252253 9.341695 2.252253 C 9.551284 2.252253 9.720952 2.421921 9.720952 2.634837 Z M 9.720952 2.634837 " transform="matrix(1.174171, 0, 0, 1.174171, 0, 0)"/>
<path fill-rule="nonzero" fill="rgb(36.078432%, 36.078432%, 36.078432%)" fill-opacity="1" stroke-width="0.095" stroke-linecap="butt" stroke-linejoin="miter" stroke="rgb(0%, 0%, 0%)" stroke-opacity="1" stroke-miterlimit="4" d="M 10.862049 2.634837 C 10.862049 2.8411 10.689055 3.014094 10.479465 3.014094 C 10.269876 3.014094 10.100209 2.8411 10.100209 2.634837 C 10.100209 2.421921 10.269876 2.252253 10.479465 2.252253 C 10.689055 2.252253 10.862049 2.421921 10.862049 2.634837 Z M 10.862049 2.634837 " transform="matrix(1.174171, 0, 0, 1.174171, 0, 0)"/>
<path fill-rule="nonzero" fill="rgb(100%, 100%, 0%)" fill-opacity="1" stroke-width="0.095" stroke-linecap="butt" stroke-linejoin="miter" stroke="rgb(0%, 0%, 0%)" stroke-opacity="1" stroke-miterlimit="4" d="M 7.445411 3.779261 C 7.445411 3.985524 7.275743 4.158518 7.062827 4.158518 C 6.856565 4.158518 6.68357 3.985524 6.68357 3.779261 C 6.68357 3.566345 6.856565 3.396678 7.062827 3.396678 C 7.275743 3.396678 7.445411 3.566345 7.445411 3.779261 Z M 7.445411 3.779261 " transform="matrix(1.174171, 0, 0, 1.174171, 0, 0)"/>
<path fill-rule="nonzero" fill="rgb(36.078432%, 36.078432%, 36.078432%)" fill-opacity="1" stroke-width="0.095" stroke-linecap="butt" stroke-linejoin="miter" stroke="rgb(0%, 0%, 0%)" stroke-opacity="1" stroke-miterlimit="4" d="M 8.583181 3.779261 C 8.583181 3.985524 8.410187 4.158518 8.203924 4.158518 C 7.994335 4.158518 7.821341 3.985524 7.821341 3.779261 C 7.821341 3.566345 7.994335 3.396678 8.203924 3.396678 C 8.410187 3.396678 8.583181 3.566345 8.583181 3.779261 Z M 8.583181 3.779261 " transform="matrix(1.174171, 0, 0, 1.174171, 0, 0)"/>
<path fill-rule="nonzero" fill="rgb(36.078432%, 36.078432%, 36.078432%)" fill-opacity="1" stroke-width="0.095" stroke-linecap="butt" stroke-linejoin="miter" stroke="rgb(0%, 0%, 0%)" stroke-opacity="1" stroke-miterlimit="4" d="M 9.720952 3.779261 C 9.720952 3.985524 9.551284 4.158518 9.341695 4.158518 C 9.128779 4.158518 8.962438 3.985524 8.962438 3.779261 C 8.962438 3.566345 9.128779 3.396678 9.341695 3.396678 C 9.551284 3.396678 9.720952 3.566345 9.720952 3.779261 Z M 9.720952 3.779261 " transform="matrix(1.174171, 0, 0, 1.174171, 0, 0)"/>
<path fill-rule="nonzero" fill="rgb(36.078432%, 36.078432%, 36.078432%)" fill-opacity="1" stroke-width="0.095" stroke-linecap="butt" stroke-linejoin="miter" stroke="rgb(0%, 0%, 0%)" stroke-opacity="1" stroke-miterlimit="4" d="M 10.862049 3.779261 C 10.862049 3.985524 10.689055 4.158518 10.479465 4.158518 C 10.269876 4.158518 10.100209 3.985524 10.100209 3.779261 C 10.100209 3.566345 10.269876 3.396678 10.479465 3.396678 C 10.689055 3.396678 10.862049 3.566345 10.862049 3.779261 Z M 10.862049 3.779261 " transform="matrix(1.174171, 0, 0, 1.174171, 0, 0)"/>
<path fill-rule="nonzero" fill="rgb(36.078432%, 36.078432%, 36.078432%)" fill-opacity="1" stroke-width="0.095" stroke-linecap="butt" stroke-linejoin="miter" stroke="rgb(0%, 0%, 0%)" stroke-opacity="1" stroke-miterlimit="4" d="M 11.996493 4.923685 C 11.996493 5.129948 11.826825 5.302942 11.617236 5.302942 C 11.407647 5.302942 11.234652 5.129948 11.234652 4.923685 C 11.234652 4.710769 11.407647 4.541102 11.617236 4.541102 C 11.826825 4.541102 11.996493 4.710769 11.996493 4.923685 Z M 11.996493 4.923685 " transform="matrix(1.174171, 0, 0, 1.174171, 0, 0)"/>
<path fill-rule="nonzero" fill="rgb(100%, 100%, 0%)" fill-opacity="1" stroke-width="0.095" stroke-linecap="butt" stroke-linejoin="miter" stroke="rgb(0%, 0%, 0%)" stroke-opacity="1" stroke-miterlimit="4" d="M 8.583181 4.923685 C 8.583181 5.129948 8.410187 5.302942 8.203924 5.302942 C 7.994335 5.302942 7.821341 5.129948 7.821341 4.923685 C 7.821341 4.710769 7.994335 4.541102 8.203924 4.541102 C 8.410187 4.541102 8.583181 4.710769 8.583181 4.923685 Z M 8.583181 4.923685 " transform="matrix(1.174171, 0, 0, 1.174171, 0, 0)"/>
<path fill-rule="nonzero" fill="rgb(100%, 100%, 0%)" fill-opacity="1" stroke-width="0.095" stroke-linecap="butt" stroke-linejoin="miter" stroke="rgb(0%, 0%, 0%)" stroke-opacity="1" stroke-miterlimit="4" d="M 7.445411 4.923685 C 7.445411 5.129948 7.275743 5.302942 7.062827 5.302942 C 6.856565 5.302942 6.68357 5.129948 6.68357 4.923685 C 6.68357 4.710769 6.856565 4.541102 7.062827 4.541102 C 7.275743 4.541102 7.445411 4.710769 7.445411 4.923685 Z M 7.445411 4.923685 " transform="matrix(1.174171, 0, 0, 1.174171, 0, 0)"/>
<path fill-rule="nonzero" fill="rgb(36.078432%, 36.078432%, 36.078432%)" fill-opacity="1" stroke-width="0.095" stroke-linecap="butt" stroke-linejoin="miter" stroke="rgb(0%, 0%, 0%)" stroke-opacity="1" stroke-miterlimit="4" d="M 10.862049 6.064783 C 10.862049 6.274372 10.689055 6.447366 10.479465 6.447366 C 10.269876 6.447366 10.100209 6.274372 10.100209 6.064783 C 10.100209 5.855193 10.269876 5.685526 10.479465 5.685526 C 10.689055 5.685526 10.862049 5.855193 10.862049 6.064783 Z M 10.862049 6.064783 " transform="matrix(1.174171, 0, 0, 1.174171, 0, 0)"/>
<path fill-rule="nonzero" fill="rgb(36.078432%, 36.078432%, 36.078432%)" fill-opacity="1" stroke-width="0.095" stroke-linecap="butt" stroke-linejoin="miter" stroke="rgb(0%, 0%, 0%)" stroke-opacity="1" stroke-miterlimit="4" d="M 9.720952 6.064783 C 9.720952 6.274372 9.551284 6.447366 9.341695 6.447366 C 9.128779 6.447366 8.962438 6.274372 8.962438 6.064783 C 8.962438 5.855193 9.128779 5.685526 9.341695 5.685526 C 9.551284 5.685526 9.720952 5.855193 9.720952 6.064783 Z M 9.720952 6.064783 " transform="matrix(1.174171, 0, 0, 1.174171, 0, 0)"/>
<path fill-rule="nonzero" fill="rgb(36.078432%, 36.078432%, 36.078432%)" fill-opacity="1" stroke-width="0.095" stroke-linecap="butt" stroke-linejoin="miter" stroke="rgb(0%, 0%, 0%)" stroke-opacity="1" stroke-miterlimit="4" d="M 8.583181 6.064783 C 8.583181 6.274372 8.410187 6.447366 8.203924 6.447366 C 7.994335 6.447366 7.821341 6.274372 7.821341 6.064783 C 7.821341 5.855193 7.994335 5.685526 8.203924 5.685526 C 8.410187 5.685526 8.583181 5.855193 8.583181 6.064783 Z M 8.583181 6.064783 " transform="matrix(1.174171, 0, 0, 1.174171, 0, 0)"/>
<path fill-rule="nonzero" fill="rgb(100%, 100%, 0%)" fill-opacity="1" stroke-width="0.095" stroke-linecap="butt" stroke-linejoin="miter" stroke="rgb(0%, 0%, 0%)" stroke-opacity="1" stroke-miterlimit="4" d="M 7.445411 6.064783 C 7.445411 6.274372 7.275743 6.447366 7.062827 6.447366 C 6.856565 6.447366 6.68357 6.274372 6.68357 6.064783 C 6.68357 5.855193 6.856565 5.685526 7.062827 5.685526 C 7.275743 5.685526 7.445411 5.855193 7.445411 6.064783 Z M 7.445411 6.064783 " transform="matrix(1.174171, 0, 0, 1.174171, 0, 0)"/>
<path fill-rule="nonzero" fill="rgb(36.078432%, 36.078432%, 36.078432%)" fill-opacity="1" stroke-width="0.095" stroke-linecap="butt" stroke-linejoin="miter" stroke="rgb(0%, 0%, 0%)" stroke-opacity="1" stroke-miterlimit="4" d="M 8.583181 7.209207 C 8.583181 7.418796 8.410187 7.591791 8.203924 7.591791 C 7.994335 7.591791 7.821341 7.418796 7.821341 7.209207 C 7.821341 6.999618 7.994335 6.82995 8.203924 6.82995 C 8.410187 6.82995 8.583181 6.999618 8.583181 7.209207 Z M 8.583181 7.209207 " transform="matrix(1.174171, 0, 0, 1.174171, 0, 0)"/>
<path fill-rule="nonzero" fill="rgb(36.078432%, 36.078432%, 36.078432%)" fill-opacity="1" stroke-width="0.095" stroke-linecap="butt" stroke-linejoin="miter" stroke="rgb(0%, 0%, 0%)" stroke-opacity="1" stroke-miterlimit="4" d="M 9.720952 7.209207 C 9.720952 7.418796 9.551284 7.591791 9.341695 7.591791 C 9.128779 7.591791 8.962438 7.418796 8.962438 7.209207 C 8.962438 6.999618 9.128779 6.82995 9.341695 6.82995 C 9.551284 6.82995 9.720952 6.999618 9.720952 7.209207 Z M 9.720952 7.209207 " transform="matrix(1.174171, 0, 0, 1.174171, 0, 0)"/>
<path fill-rule="nonzero" fill="rgb(36.078432%, 36.078432%, 36.078432%)" fill-opacity="1" stroke-width="0.095" stroke-linecap="butt" stroke-linejoin="miter" stroke="rgb(0%, 0%, 0%)" stroke-opacity="1" stroke-miterlimit="4" d="M 10.862049 7.209207 C 10.862049 7.418796 10.689055 7.591791 10.479465 7.591791 C 10.269876 7.591791 10.100209 7.418796 10.100209 7.209207 C 10.100209 6.999618 10.269876 6.82995 10.479465 6.82995 C 10.689055 6.82995 10.862049 6.999618 10.862049 7.209207 Z M 10.862049 7.209207 " transform="matrix(1.174171, 0, 0, 1.174171, 0, 0)"/>
<path fill-rule="nonzero" fill="rgb(36.078432%, 36.078432%, 36.078432%)" fill-opacity="1" stroke-width="0.095" stroke-linecap="butt" stroke-linejoin="miter" stroke="rgb(0%, 0%, 0%)" stroke-opacity="1" stroke-miterlimit="4" d="M 8.583181 8.353631 C 8.583181 8.56322 8.410187 8.736215 8.203924 8.736215 C 7.994335 8.736215 7.821341 8.56322 7.821341 8.353631 C 7.821341 8.144042 7.994335 7.974374 8.203924 7.974374 C 8.410187 7.974374 8.583181 8.144042 8.583181 8.353631 Z M 8.583181 8.353631 " transform="matrix(1.174171, 0, 0, 1.174171, 0, 0)"/>
<path fill-rule="nonzero" fill="rgb(36.078432%, 36.078432%, 36.078432%)" fill-opacity="1" stroke-width="0.095" stroke-linecap="butt" stroke-linejoin="miter" stroke="rgb(0%, 0%, 0%)" stroke-opacity="1" stroke-miterlimit="4" d="M 9.720952 8.353631 C 9.720952 8.56322 9.551284 8.736215 9.341695 8.736215 C 9.128779 8.736215 8.962438 8.56322 8.962438 8.353631 C 8.962438 8.144042 9.128779 7.974374 9.341695 7.974374 C 9.551284 7.974374 9.720952 8.144042 9.720952 8.353631 Z M 9.720952 8.353631 " transform="matrix(1.174171, 0, 0, 1.174171, 0, 0)"/>
<path fill-rule="nonzero" fill="rgb(36.078432%, 36.078432%, 36.078432%)" fill-opacity="1" stroke-width="0.095" stroke-linecap="butt" stroke-linejoin="miter" stroke="rgb(0%, 0%, 0%)" stroke-opacity="1" stroke-miterlimit="4" d="M 10.862049 8.353631 C 10.862049 8.56322 10.689055 8.736215 10.479465 8.736215 C 10.269876 8.736215 10.100209 8.56322 10.100209 8.353631 C 10.100209 8.144042 10.269876 7.974374 10.479465 7.974374 C 10.689055 7.974374 10.862049 8.144042 10.862049 8.353631 Z M 10.862049 8.353631 " transform="matrix(1.174171, 0, 0, 1.174171, 0, 0)"/>
<path fill-rule="nonzero" fill="rgb(36.078432%, 36.078432%, 36.078432%)" fill-opacity="1" stroke-width="0.095" stroke-linecap="butt" stroke-linejoin="miter" stroke="rgb(0%, 0%, 0%)" stroke-opacity="1" stroke-miterlimit="4" d="M 7.445411 9.498055 C 7.445411 9.707644 7.275743 9.880639 7.062827 9.880639 C 6.856565 9.880639 6.68357 9.707644 6.68357 9.498055 C 6.68357 9.291793 6.856565 9.118798 7.062827 9.118798 C 7.275743 9.118798 7.445411 9.291793 7.445411 9.498055 Z M 7.445411 9.498055 " transform="matrix(1.174171, 0, 0, 1.174171, 0, 0)"/>
<path fill-rule="nonzero" fill="rgb(36.078432%, 36.078432%, 36.078432%)" fill-opacity="1" stroke-width="0.095" stroke-linecap="butt" stroke-linejoin="miter" stroke="rgb(0%, 0%, 0%)" stroke-opacity="1" stroke-miterlimit="4" d="M 11.996493 9.498055 C 11.996493 9.707644 11.826825 9.880639 11.617236 9.880639 C 11.407647 9.880639 11.234652 9.707644 11.234652 9.498055 C 11.234652 9.291793 11.407647 9.118798 11.617236 9.118798 C 11.826825 9.118798 11.996493 9.291793 11.996493 9.498055 Z M 11.996493 9.498055 " transform="matrix(1.174171, 0, 0, 1.174171, 0, 0)"/>
<path fill-rule="nonzero" fill="rgb(100%, 100%, 0%)" fill-opacity="1" stroke-width="0.095" stroke-linecap="butt" stroke-linejoin="miter" stroke="rgb(0%, 0%, 0%)" stroke-opacity="1" stroke-miterlimit="4" d="M 9.720952 1.490413 C 9.720952 1.696675 9.551284 1.86967 9.341695 1.86967 C 9.128779 1.86967 8.962438 1.696675 8.962438 1.490413 C 8.962438 1.277497 9.128779 1.107829 9.341695 1.107829 C 9.551284 1.107829 9.720952 1.277497 9.720952 1.490413 Z M 9.720952 1.490413 " transform="matrix(1.174171, 0, 0, 1.174171, 0, 0)"/>
<path fill-rule="nonzero" fill="rgb(100%, 100%, 0%)" fill-opacity="1" stroke-width="0.095" stroke-linecap="butt" stroke-linejoin="miter" stroke="rgb(0%, 0%, 0%)" stroke-opacity="1" stroke-miterlimit="4" d="M 10.862049 1.490413 C 10.862049 1.696675 10.689055 1.86967 10.479465 1.86967 C 10.269876 1.86967 10.100209 1.696675 10.100209 1.490413 C 10.100209 1.277497 10.269876 1.107829 10.479465 1.107829 C 10.689055 1.107829 10.862049 1.277497 10.862049 1.490413 Z M 10.862049 1.490413 " transform="matrix(1.174171, 0, 0, 1.174171, 0, 0)"/>
<path fill-rule="nonzero" fill="rgb(100%, 100%, 0%)" fill-opacity="1" stroke-width="0.095" stroke-linecap="butt" stroke-linejoin="miter" stroke="rgb(0%, 0%, 0%)" stroke-opacity="1" stroke-miterlimit="4" d="M 7.445411 2.634837 C 7.445411 2.8411 7.275743 3.014094 7.062827 3.014094 C 6.856565 3.014094 6.68357 2.8411 6.68357 2.634837 C 6.68357 2.421921 6.856565 2.252253 7.062827 2.252253 C 7.275743 2.252253 7.445411 2.421921 7.445411 2.634837 Z M 7.445411 2.634837 " transform="matrix(1.174171, 0, 0, 1.174171, 0, 0)"/>
<path fill-rule="nonzero" fill="rgb(36.078432%, 36.078432%, 36.078432%)" fill-opacity="1" stroke-width="0.095" stroke-linecap="butt" stroke-linejoin="miter" stroke="rgb(0%, 0%, 0%)" stroke-opacity="1" stroke-miterlimit="4" d="M 11.996493 2.634837 C 11.996493 2.8411 11.826825 3.014094 11.617236 3.014094 C 11.407647 3.014094 11.234652 2.8411 11.234652 2.634837 C 11.234652 2.421921 11.407647 2.252253 11.617236 2.252253 C 11.826825 2.252253 11.996493 2.421921 11.996493 2.634837 Z M 11.996493 2.634837 " transform="matrix(1.174171, 0, 0, 1.174171, 0, 0)"/>
<path fill-rule="nonzero" fill="rgb(36.078432%, 36.078432%, 36.078432%)" fill-opacity="1" stroke-width="0.095" stroke-linecap="butt" stroke-linejoin="miter" stroke="rgb(0%, 0%, 0%)" stroke-opacity="1" stroke-miterlimit="4" d="M 11.996493 3.779261 C 11.996493 3.985524 11.826825 4.158518 11.617236 4.158518 C 11.407647 4.158518 11.234652 3.985524 11.234652 3.779261 C 11.234652 3.566345 11.407647 3.396678 11.617236 3.396678 C 11.826825 3.396678 11.996493 3.566345 11.996493 3.779261 Z M 11.996493 3.779261 " transform="matrix(1.174171, 0, 0, 1.174171, 0, 0)"/>
<path fill-rule="nonzero" fill="rgb(100%, 100%, 0%)" fill-opacity="1" stroke-width="0.095" stroke-linecap="butt" stroke-linejoin="miter" stroke="rgb(0%, 0%, 0%)" stroke-opacity="1" stroke-miterlimit="4" d="M 9.720952 4.923685 C 9.720952 5.129948 9.551284 5.302942 9.341695 5.302942 C 9.128779 5.302942 8.962438 5.129948 8.962438 4.923685 C 8.962438 4.710769 9.128779 4.541102 9.341695 4.541102 C 9.551284 4.541102 9.720952 4.710769 9.720952 4.923685 Z M 9.720952 4.923685 " transform="matrix(1.174171, 0, 0, 1.174171, 0, 0)"/>
<path fill-rule="nonzero" fill="rgb(100%, 100%, 0%)" fill-opacity="1" stroke-width="0.095" stroke-linecap="butt" stroke-linejoin="miter" stroke="rgb(0%, 0%, 0%)" stroke-opacity="1" stroke-miterlimit="4" d="M 10.862049 4.923685 C 10.862049 5.129948 10.689055 5.302942 10.479465 5.302942 C 10.269876 5.302942 10.100209 5.129948 10.100209 4.923685 C 10.100209 4.710769 10.269876 4.541102 10.479465 4.541102 C 10.689055 4.541102 10.862049 4.710769 10.862049 4.923685 Z M 10.862049 4.923685 " transform="matrix(1.174171, 0, 0, 1.174171, 0, 0)"/>
<path fill-rule="nonzero" fill="rgb(100%, 100%, 0%)" fill-opacity="1" stroke-width="0.095" stroke-linecap="butt" stroke-linejoin="miter" stroke="rgb(0%, 0%, 0%)" stroke-opacity="1" stroke-miterlimit="4" d="M 11.996493 6.064783 C 11.996493 6.274372 11.826825 6.447366 11.617236 6.447366 C 11.407647 6.447366 11.234652 6.274372 11.234652 6.064783 C 11.234652 5.855193 11.407647 5.685526 11.617236 5.685526 C 11.826825 5.685526 11.996493 5.855193 11.996493 6.064783 Z M 11.996493 6.064783 " transform="matrix(1.174171, 0, 0, 1.174171, 0, 0)"/>
<path fill-rule="nonzero" fill="rgb(100%, 100%, 0%)" fill-opacity="1" stroke-width="0.095" stroke-linecap="butt" stroke-linejoin="miter" stroke="rgb(0%, 0%, 0%)" stroke-opacity="1" stroke-miterlimit="4" d="M 11.996493 7.209207 C 11.996493 7.418796 11.826825 7.591791 11.617236 7.591791 C 11.407647 7.591791 11.234652 7.418796 11.234652 7.209207 C 11.234652 6.999618 11.407647 6.82995 11.617236 6.82995 C 11.826825 6.82995 11.996493 6.999618 11.996493 7.209207 Z M 11.996493 7.209207 " transform="matrix(1.174171, 0, 0, 1.174171, 0, 0)"/>
<path fill-rule="nonzero" fill="rgb(100%, 100%, 0%)" fill-opacity="1" stroke-width="0.095" stroke-linecap="butt" stroke-linejoin="miter" stroke="rgb(0%, 0%, 0%)" stroke-opacity="1" stroke-miterlimit="4" d="M 11.996493 8.353631 C 11.996493 8.56322 11.826825 8.736215 11.617236 8.736215 C 11.407647 8.736215 11.234652 8.56322 11.234652 8.353631 C 11.234652 8.144042 11.407647 7.974374 11.617236 7.974374 C 11.826825 7.974374 11.996493 8.144042 11.996493 8.353631 Z M 11.996493 8.353631 " transform="matrix(1.174171, 0, 0, 1.174171, 0, 0)"/>
<path fill-rule="nonzero" fill="rgb(100%, 100%, 0%)" fill-opacity="1" stroke-width="0.095" stroke-linecap="butt" stroke-linejoin="miter" stroke="rgb(0%, 0%, 0%)" stroke-opacity="1" stroke-miterlimit="4" d="M 10.862049 9.498055 C 10.862049 9.707644 10.689055 9.880639 10.479465 9.880639 C 10.269876 9.880639 10.100209 9.707644 10.100209 9.498055 C 10.100209 9.291793 10.269876 9.118798 10.479465 9.118798 C 10.689055 9.118798 10.862049 9.291793 10.862049 9.498055 Z M 10.862049 9.498055 " transform="matrix(1.174171, 0, 0, 1.174171, 0, 0)"/>
<path fill-rule="nonzero" fill="rgb(100%, 100%, 0%)" fill-opacity="1" stroke-width="0.095" stroke-linecap="butt" stroke-linejoin="miter" stroke="rgb(0%, 0%, 0%)" stroke-opacity="1" stroke-miterlimit="4" d="M 9.720952 9.498055 C 9.720952 9.707644 9.551284 9.880639 9.341695 9.880639 C 9.128779 9.880639 8.962438 9.707644 8.962438 9.498055 C 8.962438 9.291793 9.128779 9.118798 9.341695 9.118798 C 9.551284 9.118798 9.720952 9.291793 9.720952 9.498055 Z M 9.720952 9.498055 " transform="matrix(1.174171, 0, 0, 1.174171, 0, 0)"/>
<path fill-rule="nonzero" fill="rgb(100%, 100%, 0%)" fill-opacity="1" stroke-width="0.095" stroke-linecap="butt" stroke-linejoin="miter" stroke="rgb(0%, 0%, 0%)" stroke-opacity="1" stroke-miterlimit="4" d="M 8.583181 9.498055 C 8.583181 9.707644 8.410187 9.880639 8.203924 9.880639 C 7.994335 9.880639 7.821341 9.707644 7.821341 9.498055 C 7.821341 9.291793 7.994335 9.118798 8.203924 9.118798 C 8.410187 9.118798 8.583181 9.291793 8.583181 9.498055 Z M 8.583181 9.498055 " transform="matrix(1.174171, 0, 0, 1.174171, 0, 0)"/>
<path fill-rule="nonzero" fill="rgb(100%, 100%, 0%)" fill-opacity="1" stroke-width="0.095" stroke-linecap="butt" stroke-linejoin="miter" stroke="rgb(0%, 0%, 0%)" stroke-opacity="1" stroke-miterlimit="4" d="M 7.445411 8.353631 C 7.445411 8.56322 7.275743 8.736215 7.062827 8.736215 C 6.856565 8.736215 6.68357 8.56322 6.68357 8.353631 C 6.68357 8.144042 6.856565 7.974374 7.062827 7.974374 C 7.275743 7.974374 7.445411 8.144042 7.445411 8.353631 Z M 7.445411 8.353631 " transform="matrix(1.174171, 0, 0, 1.174171, 0, 0)"/>
<path fill-rule="nonzero" fill="rgb(36.078432%, 36.078432%, 36.078432%)" fill-opacity="1" stroke-width="0.095" stroke-linecap="butt" stroke-linejoin="miter" stroke="rgb(0%, 0%, 0%)" stroke-opacity="1" stroke-miterlimit="4" d="M 7.445411 7.209207 C 7.445411 7.418796 7.275743 7.591791 7.062827 7.591791 C 6.856565 7.591791 6.68357 7.418796 6.68357 7.209207 C 6.68357 6.999618 6.856565 6.82995 7.062827 6.82995 C 7.275743 6.82995 7.445411 6.999618 7.445411 7.209207 Z M 7.445411 7.209207 " transform="matrix(1.174171, 0, 0, 1.174171, 0, 0)"/>
</svg>
