<?xml version="1.0" encoding="UTF-8"?>
<svg xmlns="http://www.w3.org/2000/svg" xmlns:xlink="http://www.w3.org/1999/xlink" width="21.936259" height="19" viewBox="0 0 21.936259 19">
<path fill-rule="nonzero" fill="rgb(54.901963%, 54.901963%, 54.901963%)" fill-opacity="1" stroke-width="0.189223" stroke-linecap="square" stroke-linejoin="miter" stroke="rgb(0%, 0%, 0%)" stroke-opacity="1" stroke-miterlimit="4" d="M 0.163014 0.0931508 L 18.517049 0.0931508 L 9.341695 15.991997 Z M 0.163014 0.0931508 " transform="matrix(1.174171, 0, 0, 1.174171, 0, 0)"/>
<path fill-rule="nonzero" fill="rgb(36.078432%, 36.078432%, 36.078432%)" fill-opacity="1" stroke-width="0.095" stroke-linecap="butt" stroke-linejoin="miter" stroke="rgb(0%, 0%, 0%)" stroke-opacity="1" stroke-miterlimit="4" d="M 7.445411 1.823094 C 7.445411 2.029357 7.275743 2.202351 7.062827 2.202351 C 6.856565 2.202351 6.68357 2.029357 6.68357 1.823094 C 6.68357 1.610178 6.856565 1.440511 7.062827 1.440511 C 7.275743 1.440511 7.445411 1.610178 7.445411 1.823094 Z M 7.445411 1.823094 " transform="matrix(1.174171, 0, 0, 1.174171, 0, 0)"/>
<path fill-rule="nonzero" fill="rgb(100%, 100%, 0%)" fill-opacity="1" stroke-width="0.095" stroke-linecap="butt" stroke-linejoin="miter" stroke="rgb(0%, 0%, 0%)" stroke-opacity="1" stroke-miterlimit="4" d="M 8.583181 1.823094 C 8.583181 2.029357 8.410187 2.202351 8.203924 2.202351 C 7.994335 2.202351 7.821341 2.029357 7.821341 1.823094 C 7.821341 1.610178 7.994335 1.440511 8.203924 1.440511 C 8.410187 1.440511 8.583181 1.610178 8.583181 1.823094 Z M 8.583181 1.823094 " transform="matrix(1.174171, 0, 0, 1.174171, 0, 0)"/>
<path fill-rule="nonzero" fill="rgb(36.078432%, 36.078432%, 36.078432%)" fill-opacity="1" stroke-width="0.095" stroke-linecap="butt" stroke-linejoin="miter" stroke="rgb(0%, 0%, 0%)" stroke-opacity="1" stroke-miterlimit="4" d="M 11.996493 1.823094 C 11.996493 2.029357 11.826825 2.202351 11.617236 2.202351 C 11.407647 2.202351 11.234652 2.029357 11.234652 1.823094 C 11.234652 1.610178 11.407647 1.440511 11.617236 1.440511 C 11.826825 1.440511 11.996493 1.610178 11.996493 1.823094 Z M 11.996493 1.823094 " transform="matrix(1.174171, 0, 0, 1.174171, 0, 0)"/>
<path fill-rule="nonzero" fill="rgb(36.078432%, 36.078432%, 36.078432%)" fill-opacity="1" stroke-width="0.095" stroke-linecap="butt" stroke-linejoin="miter" stroke="rgb(0%, 0%, 0%)" stroke-opacity="1" stroke-miterlimit="4" d="M 8.583181 2.967518 C 8.583181 3.173781 8.410187 3.346775 8.203924 3.346775 C 7.994335 3.346775 7.821341 3.173781 7.821341 2.967518 C 7.821341 2.754602 7.994335 2.584935 8.203924 2.584935 C 8.410187 2.584935 8.583181 2.754602 8.583181 2.967518 Z M 8.583181 2.967518 " transform="matrix(1.174171, 0, 0, 1.174171, 0, 0)"/>
<path fill-rule="nonzero" fill="rgb(36.078432%, 36.078432%, 36.078432%)" fill-opacity="1" stroke-width="0.095" stroke-linecap="butt" stroke-linejoin="miter" stroke="rgb(0%, 0%, 0%)" stroke-opacity="1" stroke-miterlimit="4" d="M 9.720952 2.967518 C 9.720952 3.173781 9.551284 3.346775 9.341695 3.346775 C 9.128779 3.346775 8.962438 3.173781 8.962438 2.967518 C 8.962438 2.754602 9.128779 2.584935 9.341695 2.584935 C 9.551284 2.584935 9.720952 2.754602 9.720952 2.967518 Z M 9.720952 2.967518 " transform="matrix(1.174171, 0, 0, 1.174171, 0, 0)"/>
<path fill-rule="nonzero" fill="rgb(36.078432%, 36.078432%, 36.078432%)" fill-opacity="1" stroke-width="0.095" stroke-linecap="butt" stroke-linejoin="miter" stroke="rgb(0%, 0%, 0%)" stroke-opacity="1" stroke-miterlimit="4" d="M 10.862049 2.967518 C 10.862049 3.173781 10.689055 3.346775 10.479465 3.346775 C 10.269876 3.346775 10.100209 3.173781 10.100209 2.967518 C 10.100209 2.754602 10.269876 2.584935 10.479465 2.584935 C 10.689055 2.584935 10.862049 2.754602 10.862049 2.967518 Z M 10.862049 2.967518 " transform="matrix(1.174171, 0, 0, 1.174171, 0, 0)"/>
<path fill-rule="nonzero" fill="rgb(36.078432%, 36.078432%, 36.078432%)" fill-opacity="1" stroke-width="0.095" stroke-linecap="butt" stroke-linejoin="miter" stroke="rgb(0%, 0%, 0%)" stroke-opacity="1" stroke-miterlimit="4" d="M 7.445411 4.111943 C 7.445411 4.318205 7.275743 4.491199 7.062827 4.491199 C 6.856565 4.491199 6.68357 4.318205 6.68357 4.111943 C 6.68357 3.899027 6.856565 3.729359 7.062827 3.729359 C 7.275743 3.729359 7.445411 3.899027 7.445411 4.111943 Z M 7.445411 4.111943 " transform="matrix(1.174171, 0, 0, 1.174171, 0, 0)"/>
<path fill-rule="nonzero" fill="rgb(36.078432%, 36.078432%, 36.078432%)" fill-opacity="1" stroke-width="0.095" stroke-linecap="butt" stroke-linejoin="miter" stroke="rgb(0%, 0%, 0%)" stroke-opacity="1" stroke-miterlimit="4" d="M 8.583181 4.111943 C 8.583181 4.318205 8.410187 4.491199 8.203924 4.491199 C 7.994335 4.491199 7.821341 4.318205 7.821341 4.111943 C 7.821341 3.899027 7.994335 3.729359 8.203924 3.729359 C 8.410187 3.729359 8.583181 3.899027 8.583181 4.111943 Z M 8.583181 4.111943 " transform="matrix(1.174171, 0, 0, 1.174171, 0, 0)"/>
<path fill-rule="nonzero" fill="rgb(36.078432%, 36.078432%, 36.078432%)" fill-opacity="1" stroke-width="0.095" stroke-linecap="butt" stroke-linejoin="miter" stroke="rgb(0%, 0%, 0%)" stroke-opacity="1" stroke-miterlimit="4" d="M 9.720952 4.111943 C 9.720952 4.318205 9.551284 4.491199 9.341695 4.491199 C 9.128779 4.491199 8.962438 4.318205 8.962438 4.111943 C 8.962438 3.899027 9.128779 3.729359 9.341695 3.729359 C 9.551284 3.729359 9.720952 3.899027 9.720952 4.111943 Z M 9.720952 4.111943 " transform="matrix(1.174171, 0, 0, 1.174171, 0, 0)"/>
<path fill-rule="nonzero" fill="rgb(36.078432%, 36.078432%, 36.078432%)" fill-opacity="1" stroke-width="0.095" stroke-linecap="butt" stroke-linejoin="miter" stroke="rgb(0%, 0%, 0%)" stroke-opacity="1" stroke-miterlimit="4" d="M 10.862049 4.111943 C 10.862049 4.318205 10.689055 4.491199 10.479465 4.491199 C 10.269876 4.491199 10.100209 4.318205 10.100209 4.111943 C 10.100209 3.899027 10.269876 3.729359 10.479465 3.729359 C 10.689055 3.729359 10.862049 3.899027 10.862049 4.111943 Z M 10.862049 4.111943 " transform="matrix(1.174171, 0, 0, 1.174171, 0, 0)"/>
<path fill-rule="nonzero" fill="rgb(36.078432%, 36.078432%, 36.078432%)" fill-opacity="1" stroke-width="0.095" stroke-linecap="butt" stroke-linejoin="miter" stroke="rgb(0%, 0%, 0%)" stroke-opacity="1" stroke-miterlimit="4" d="M 11.996493 5.256367 C 11.996493 5.462629 11.826825 5.635624 11.617236 5.635624 C 11.407647 5.635624 11.234652 5.462629 11.234652 5.256367 C 11.234652 5.043451 11.407647 4.873783 11.617236 4.873783 C 11.826825 4.873783 11.996493 5.043451 11.996493 5.256367 Z M 11.996493 5.256367 " transform="matrix(1.174171, 0, 0, 1.174171, 0, 0)"/>
<path fill-rule="nonzero" fill="rgb(36.078432%, 36.078432%, 36.078432%)" fill-opacity="1" stroke-width="0.095" stroke-linecap="butt" stroke-linejoin="miter" stroke="rgb(0%, 0%, 0%)" stroke-opacity="1" stroke-miterlimit="4" d="M 8.583181 5.256367 C 8.583181 5.462629 8.410187 5.635624 8.203924 5.635624 C 7.994335 5.635624 7.821341 5.462629 7.821341 5.256367 C 7.821341 5.043451 7.994335 4.873783 8.203924 4.873783 C 8.410187 4.873783 8.583181 5.043451 8.583181 5.256367 Z M 8.583181 5.256367 " transform="matrix(1.174171, 0, 0, 1.174171, 0, 0)"/>
<path fill-rule="nonzero" fill="rgb(36.078432%, 36.078432%, 36.078432%)" fill-opacity="1" stroke-width="0.095" stroke-linecap="butt" stroke-linejoin="miter" stroke="rgb(0%, 0%, 0%)" stroke-opacity="1" stroke-miterlimit="4" d="M 7.445411 5.256367 C 7.445411 5.462629 7.275743 5.635624 7.062827 5.635624 C 6.856565 5.635624 6.68357 5.462629 6.68357 5.256367 C 6.68357 5.043451 6.856565 4.873783 7.062827 4.873783 C 7.275743 4.873783 7.445411 5.043451 7.445411 5.256367 Z M 7.445411 5.256367 " transform="matrix(1.174171, 0, 0, 1.174171, 0, 0)"/>
<path fill-rule="nonzero" fill="rgb(36.078432%, 36.078432%, 36.078432%)" fill-opacity="1" stroke-width="0.095" stroke-linecap="butt" stroke-linejoin="miter" stroke="rgb(0%, 0%, 0%)" stroke-opacity="1" stroke-miterlimit="4" d="M 10.862049 6.397464 C 10.862049 6.607053 10.689055 6.780048 10.479465 6.780048 C 10.269876 6.780048 10.100209 6.607053 10.100209 6.397464 C 10.100209 6.191202 10.269876 6.018207 10.479465 6.018207 C 10.689055 6.018207 10.862049 6.191202 10.862049 6.397464 Z M 10.862049 6.397464 " transform="matrix(1.174171, 0, 0, 1.174171, 0, 0)"/>
<path fill-rule="nonzero" fill="rgb(100%, 100%, 0%)" fill-opacity="1" stroke-width="0.095" stroke-linecap="butt" stroke-linejoin="miter" stroke="rgb(0%, 0%, 0%)" stroke-opacity="1" stroke-miterlimit="4" d="M 9.720952 6.397464 C 9.720952 6.607053 9.551284 6.780048 9.341695 6.780048 C 9.128779 6.780048 8.962438 6.607053 8.962438 6.397464 C 8.962438 6.191202 9.128779 6.018207 9.341695 6.018207 C 9.551284 6.018207 9.720952 6.191202 9.720952 6.397464 Z M 9.720952 6.397464 " transform="matrix(1.174171, 0, 0, 1.174171, 0, 0)"/>
<path fill-rule="nonzero" fill="rgb(36.078432%, 36.078432%, 36.078432%)" fill-opacity="1" stroke-width="0.095" stroke-linecap="butt" stroke-linejoin="miter" stroke="rgb(0%, 0%, 0%)" stroke-opacity="1" stroke-miterlimit="4" d="M 8.583181 6.397464 C 8.583181 6.607053 8.410187 6.780048 8.203924 6.780048 C 7.994335 6.780048 7.821341 6.607053 7.821341 6.397464 C 7.821341 6.191202 7.994335 6.018207 8.203924 6.018207 C 8.410187 6.018207 8.583181 6.191202 8.583181 6.397464 Z M 8.583181 6.397464 " transform="matrix(1.174171, 0, 0, 1.174171, 0, 0)"/>
<path fill-rule="nonzero" fill="rgb(36.078432%, 36.078432%, 36.078432%)" fill-opacity="1" stroke-width="0.095" stroke-linecap="butt" stroke-linejoin="miter" stroke="rgb(0%, 0%, 0%)" stroke-opacity="1" stroke-miterlimit="4" d="M 7.445411 6.397464 C 7.445411 6.607053 7.275743 6.780048 7.062827 6.780048 C 6.856565 6.780048 6.68357 6.607053 6.68357 6.397464 C 6.68357 6.191202 6.856565 6.018207 7.062827 6.018207 C 7.275743 6.018207 7.445411 6.191202 7.445411 6.397464 Z M 7.445411 6.397464 " transform="matrix(1.174171, 0, 0, 1.174171, 0, 0)"/>
<path fill-rule="nonzero" fill="rgb(100%, 100%, 0%)" fill-opacity="1" stroke-width="0.095" stroke-linecap="butt" stroke-linejoin="miter" stroke="rgb(0%, 0%, 0%)" stroke-opacity="1" stroke-miterlimit="4" d="M 8.583181 7.541888 C 8.583181 7.751478 8.410187 7.924472 8.203924 7.924472 C 7.994335 7.924472 7.821341 7.751478 7.821341 7.541888 C 7.821341 7.335626 7.994335 7.162631 8.203924 7.162631 C 8.410187 7.162631 8.583181 7.335626 8.583181 7.541888 Z M 8.583181 7.541888 " transform="matrix(1.174171, 0, 0, 1.174171, 0, 0)"/>
<path fill-rule="nonzero" fill="rgb(36.078432%, 36.078432%, 36.078432%)" fill-opacity="1" stroke-width="0.095" stroke-linecap="butt" stroke-linejoin="miter" stroke="rgb(0%, 0%, 0%)" stroke-opacity="1" stroke-miterlimit="4" d="M 9.720952 7.541888 C 9.720952 7.751478 9.551284 7.924472 9.341695 7.924472 C 9.128779 7.924472 8.962438 7.751478 8.962438 7.541888 C 8.962438 7.335626 9.128779 7.162631 9.341695 7.162631 C 9.551284 7.162631 9.720952 7.335626 9.720952 7.541888 Z M 9.720952 7.541888 " transform="matrix(1.174171, 0, 0, 1.174171, 0, 0)"/>
<path fill-rule="nonzero" fill="rgb(36.078432%, 36.078432%, 36.078432%)" fill-opacity="1" stroke-width="0.095" stroke-linecap="butt" stroke-linejoin="miter" stroke="rgb(0%, 0%, 0%)" stroke-opacity="1" stroke-miterlimit="4" d="M 10.862049 7.541888 C 10.862049 7.751478 10.689055 7.924472 10.479465 7.924472 C 10.269876 7.924472 10.100209 7.751478 10.100209 7.541888 C 10.100209 7.335626 10.269876 7.162631 10.479465 7.162631 C 10.689055 7.162631 10.862049 7.335626 10.862049 7.541888 Z M 10.862049 7.541888 " transform="matrix(1.174171, 0, 0, 1.174171, 0, 0)"/>
<path fill-rule="nonzero" fill="rgb(36.078432%, 36.078432%, 36.078432%)" fill-opacity="1" stroke-width="0.095" stroke-linecap="butt" stroke-linejoin="miter" stroke="rgb(0%, 0%, 0%)" stroke-opacity="1" stroke-miterlimit="4" d="M 8.583181 8.686312 C 8.583181 8.895902 8.410187 9.068896 8.203924 9.068896 C 7.994335 9.068896 7.821341 8.895902 7.821341 8.686312 C 7.821341 8.48005 7.994335 8.307056 8.203924 8.307056 C 8.410187 8.307056 8.583181 8.48005 8.583181 8.686312 Z M 8.583181 8.686312 " transform="matrix(1.174171, 0, 0, 1.174171, 0, 0)"/>
<path fill-rule="nonzero" fill="rgb(36.078432%, 36.078432%, 36.078432%)" fill-opacity="1" stroke-width="0.095" stroke-linecap="butt" stroke-linejoin="miter" stroke="rgb(0%, 0%, 0%)" stroke-opacity="1" stroke-miterlimit="4" d="M 9.720952 8.686312 C 9.720952 8.895902 9.551284 9.068896 9.341695 9.068896 C 9.128779 9.068896 8.962438 8.895902 8.962438 8.686312 C 8.962438 8.48005 9.128779 8.307056 9.341695 8.307056 C 9.551284 8.307056 9.720952 8.48005 9.720952 8.686312 Z M 9.720952 8.686312 " transform="matrix(1.174171, 0, 0, 1.174171, 0, 0)"/>
<path fill-rule="nonzero" fill="rgb(36.078432%, 36.078432%, 36.078432%)" fill-opacity="1" stroke-width="0.095" stroke-linecap="butt" stroke-linejoin="miter" stroke="rgb(0%, 0%, 0%)" stroke-opacity="1" stroke-miterlimit="4" d="M 10.862049 8.686312 C 10.862049 8.895902 10.689055 9.068896 10.479465 9.068896 C 10.269876 9.068896 10.100209 8.895902 10.100209 8.686312 C 10.100209 8.48005 10.269876 8.307056 10.479465 8.307056 C 10.689055 8.307056 10.862049 8.48005 10.862049 8.686312 Z M 10.862049 8.686312 " transform="matrix(1.174171, 0, 0, 1.174171, 0, 0)"/>
<path fill-rule="nonzero" fill="rgb(100%, 100%, 0%)" fill-opacity="1" stroke-width="0.095" stroke-linecap="butt" stroke-linejoin="miter" stroke="rgb(0%, 0%, 0%)" stroke-opacity="1" stroke-miterlimit="4" d="M 7.445411 9.830737 C 7.445411 10.040326 7.275743 10.21332 7.062827 10.21332 C 6.856565 10.21332 6.68357 10.040326 6.68357 9.830737 C 6.68357 9.624474 6.856565 9.45148 7.062827 9.45148 C 7.275743 9.45148 7.445411 9.624474 7.445411 9.830737 Z M 7.445411 9.830737 " transform="matrix(1.174171, 0, 0, 1.174171, 0, 0)"/>
<path fill-rule="nonzero" fill="rgb(100%, 100%, 0%)" fill-opacity="1" stroke-width="0.095" stroke-linecap="butt" stroke-linejoin="miter" stroke="rgb(0%, 0%, 0%)" stroke-opacity="1" stroke-miterlimit="4" d="M 11.996493 9.830737 C 11.996493 10.040326 11.826825 10.21332 11.617236 10.21332 C 11.407647 10.21332 11.234652 10.040326 11.234652 9.830737 C 11.234652 9.624474 11.407647 9.45148 11.617236 9.45148 C 11.826825 9.45148 11.996493 9.624474 11.996493 9.830737 Z M 11.996493 9.830737 " transform="matrix(1.174171, 0, 0, 1.174171, 0, 0)"/>
<path fill-rule="nonzero" fill="rgb(100%, 100%, 0%)" fill-opacity="1" stroke-width="0.095" stroke-linecap="butt" stroke-linejoin="miter" stroke="rgb(0%, 0%, 0%)" stroke-opacity="1" stroke-miterlimit="4" d="M 9.720952 1.823094 C 9.720952 2.029357 9.551284 2.202351 9.341695 2.202351 C 9.128779 2.202351 8.962438 2.029357 8.962438 1.823094 C 8.962438 1.610178 9.128779 1.440511 9.341695 1.440511 C 9.551284 1.440511 9.720952 1.610178 9.720952 1.823094 Z M 9.720952 1.823094 " transform="matrix(1.174171, 0, 0, 1.174171, 0, 0)"/>
<path fill-rule="nonzero" fill="rgb(100%, 100%, 0%)" fill-opacity="1" stroke-width="0.095" stroke-linecap="butt" stroke-linejoin="miter" stroke="rgb(0%, 0%, 0%)" stroke-opacity="1" stroke-miterlimit="4" d="M 10.862049 1.823094 C 10.862049 2.029357 10.689055 2.202351 10.479465 2.202351 C 10.269876 2.202351 10.100209 2.029357 10.100209 1.823094 C 10.100209 1.610178 10.269876 1.440511 10.479465 1.440511 C 10.689055 1.440511 10.862049 1.610178 10.862049 1.823094 Z M 10.862049 1.823094 " transform="matrix(1.174171, 0, 0, 1.174171, 0, 0)"/>
<path fill-rule="nonzero" fill="rgb(100%, 100%, 0%)" fill-opacity="1" stroke-width="0.095" stroke-linecap="butt" stroke-linejoin="miter" stroke="rgb(0%, 0%, 0%)" stroke-opacity="1" stroke-miterlimit="4" d="M 7.445411 2.967518 C 7.445411 3.173781 7.275743 3.346775 7.062827 3.346775 C 6.856565 3.346775 6.68357 3.173781 6.68357 2.967518 C 6.68357 2.754602 6.856565 2.584935 7.062827 2.584935 C 7.275743 2.584935 7.445411 2.754602 7.445411 2.967518 Z M 7.445411 2.967518 " transform="matrix(1.174171, 0, 0, 1.174171, 0, 0)"/>
<path fill-rule="nonzero" fill="rgb(100%, 100%, 0%)" fill-opacity="1" stroke-width="0.095" stroke-linecap="butt" stroke-linejoin="miter" stroke="rgb(0%, 0%, 0%)" stroke-opacity="1" stroke-miterlimit="4" d="M 11.996493 2.967518 C 11.996493 3.173781 11.826825 3.346775 11.617236 3.346775 C 11.407647 3.346775 11.234652 3.173781 11.234652 2.967518 C 11.234652 2.754602 11.407647 2.584935 11.617236 2.584935 C 11.826825 2.584935 11.996493 2.754602 11.996493 2.967518 Z M 11.996493 2.967518 " transform="matrix(1.174171, 0, 0, 1.174171, 0, 0)"/>
<path fill-rule="nonzero" fill="rgb(100%, 100%, 0%)" fill-opacity="1" stroke-width="0.095" stroke-linecap="butt" stroke-linejoin="miter" stroke="rgb(0%, 0%, 0%)" stroke-opacity="1" stroke-miterlimit="4" d="M 11.996493 4.111943 C 11.996493 4.318205 11.826825 4.491199 11.617236 4.491199 C 11.407647 4.491199 11.234652 4.318205 11.234652 4.111943 C 11.234652 3.899027 11.407647 3.729359 11.617236 3.729359 C 11.826825 3.729359 11.996493 3.899027 11.996493 4.111943 Z M 11.996493 4.111943 " transform="matrix(1.174171, 0, 0, 1.174171, 0, 0)"/>
<path fill-rule="nonzero" fill="rgb(36.078432%, 36.078432%, 36.078432%)" fill-opacity="1" stroke-width="0.095" stroke-linecap="butt" stroke-linejoin="miter" stroke="rgb(0%, 0%, 0%)" stroke-opacity="1" stroke-miterlimit="4" d="M 9.720952 5.256367 C 9.720952 5.462629 9.551284 5.635624 9.341695 5.635624 C 9.128779 5.635624 8.962438 5.462629 8.962438 5.256367 C 8.962438 5.043451 9.128779 4.873783 9.341695 4.873783 C 9.551284 4.873783 9.720952 5.043451 9.720952 5.256367 Z M 9.720952 5.256367 " transform="matrix(1.174171, 0, 0, 1.174171, 0, 0)"/>
<path fill-rule="nonzero" fill="rgb(100%, 100%, 0%)" fill-opacity="1" stroke-width="0.095" stroke-linecap="butt" stroke-linejoin="miter" stroke="rgb(0%, 0%, 0%)" stroke-opacity="1" stroke-miterlimit="4" d="M 10.862049 5.256367 C 10.862049 5.462629 10.689055 5.635624 10.479465 5.635624 C 10.269876 5.635624 10.100209 5.462629 10.100209 5.256367 C 10.100209 5.043451 10.269876 4.873783 10.479465 4.873783 C 10.689055 4.873783 10.862049 5.043451 10.862049 5.256367 Z M 10.862049 5.256367 " transform="matrix(1.174171, 0, 0, 1.174171, 0, 0)"/>
<path fill-rule="nonzero" fill="rgb(36.078432%, 36.078432%, 36.078432%)" fill-opacity="1" stroke-width="0.095" stroke-linecap="butt" stroke-linejoin="miter" stroke="rgb(0%, 0%, 0%)" stroke-opacity="1" stroke-miterlimit="4" d="M 11.996493 6.397464 C 11.996493 6.607053 11.826825 6.780048 11.617236 6.780048 C 11.407647 6.780048 11.234652 6.607053 11.234652 6.397464 C 11.234652 6.191202 11.407647 6.018207 11.617236 6.018207 C 11.826825 6.018207 11.996493 6.191202 11.996493 6.397464 Z M 11.996493 6.397464 " transform="matrix(1.174171, 0, 0, 1.174171, 0, 0)"/>
<path fill-rule="nonzero" fill="rgb(36.078432%, 36.078432%, 36.078432%)" fill-opacity="1" stroke-width="0.095" stroke-linecap="butt" stroke-linejoin="miter" stroke="rgb(0%, 0%, 0%)" stroke-opacity="1" stroke-miterlimit="4" d="M 11.996493 7.541888 C 11.996493 7.751478 11.826825 7.924472 11.617236 7.924472 C 11.407647 7.924472 11.234652 7.751478 11.234652 7.541888 C 11.234652 7.335626 11.407647 7.162631 11.617236 7.162631 C 11.826825 7.162631 11.996493 7.335626 11.996493 7.541888 Z M 11.996493 7.541888 " transform="matrix(1.174171, 0, 0, 1.174171, 0, 0)"/>
<path fill-rule="nonzero" fill="rgb(36.078432%, 36.078432%, 36.078432%)" fill-opacity="1" stroke-width="0.095" stroke-linecap="butt" stroke-linejoin="miter" stroke="rgb(0%, 0%, 0%)" stroke-opacity="1" stroke-miterlimit="4" d="M 11.996493 8.686312 C 11.996493 8.895902 11.826825 9.068896 11.617236 9.068896 C 11.407647 9.068896 11.234652 8.895902 11.234652 8.686312 C 11.234652 8.48005 11.407647 8.307056 11.617236 8.307056 C 11.826825 8.307056 11.996493 8.48005 11.996493 8.686312 Z M 11.996493 8.686312 " transform="matrix(1.174171, 0, 0, 1.174171, 0, 0)"/>
<path fill-rule="nonzero" fill="rgb(100%, 100%, 0%)" fill-opacity="1" stroke-width="0.095" stroke-linecap="butt" stroke-linejoin="miter" stroke="rgb(0%, 0%, 0%)" stroke-opacity="1" stroke-miterlimit="4" d="M 10.862049 9.830737 C 10.862049 10.040326 10.689055 10.21332 10.479465 10.21332 C 10.269876 10.21332 10.100209 10.040326 10.100209 9.830737 C 10.100209 9.624474 10.269876 9.45148 10.479465 9.45148 C 10.689055 9.45148 10.862049 9.624474 10.862049 9.830737 Z M 10.862049 9.830737 " transform="matrix(1.174171, 0, 0, 1.174171, 0, 0)"/>
<path fill-rule="nonzero" fill="rgb(100%, 100%, 0%)" fill-opacity="1" stroke-width="0.095" stroke-linecap="butt" stroke-linejoin="miter" stroke="rgb(0%, 0%, 0%)" stroke-opacity="1" stroke-miterlimit="4" d="M 9.720952 9.830737 C 9.720952 10.040326 9.551284 10.21332 9.341695 10.21332 C 9.128779 10.21332 8.962438 10.040326 8.962438 9.830737 C 8.962438 9.624474 9.128779 9.45148 9.341695 9.45148 C 9.551284 9.45148 9.720952 9.624474 9.720952 9.830737 Z M 9.720952 9.830737 " transform="matrix(1.174171, 0, 0, 1.174171, 0, 0)"/>
<path fill-rule="nonzero" fill="rgb(100%, 100%, 0%)" fill-opacity="1" stroke-width="0.095" stroke-linecap="butt" stroke-linejoin="miter" stroke="rgb(0%, 0%, 0%)" stroke-opacity="1" stroke-miterlimit="4" d="M 8.583181 9.830737 C 8.583181 10.040326 8.410187 10.21332 8.203924 10.21332 C 7.994335 10.21332 7.821341 10.040326 7.821341 9.830737 C 7.821341 9.624474 7.994335 9.45148 8.203924 9.45148 C 8.410187 9.45148 8.583181 9.624474 8.583181 9.830737 Z M 8.583181 9.830737 " transform="matrix(1.174171, 0, 0, 1.174171, 0, 0)"/>
<path fill-rule="nonzero" fill="rgb(100%, 100%, 0%)" fill-opacity="1" stroke-width="0.095" stroke-linecap="butt" stroke-linejoin="miter" stroke="rgb(0%, 0%, 0%)" stroke-opacity="1" stroke-miterlimit="4" d="M 7.445411 8.686312 C 7.445411 8.895902 7.275743 9.068896 7.062827 9.068896 C 6.856565 9.068896 6.68357 8.895902 6.68357 8.686312 C 6.68357 8.48005 6.856565 8.307056 7.062827 8.307056 C 7.275743 8.307056 7.445411 8.48005 7.445411 8.686312 Z M 7.445411 8.686312 " transform="matrix(1.174171, 0, 0, 1.174171, 0, 0)"/>
<path fill-rule="nonzero" fill="rgb(36.078432%, 36.078432%, 36.078432%)" fill-opacity="1" stroke-width="0.095" stroke-linecap="butt" stroke-linejoin="miter" stroke="rgb(0%, 0%, 0%)" stroke-opacity="1" stroke-miterlimit="4" d="M 7.445411 7.541888 C 7.445411 7.751478 7.275743 7.924472 7.062827 7.924472 C 6.856565 7.924472 6.68357 7.751478 6.68357 7.541888 C 6.68357 7.335626 6.856565 7.162631 7.062827 7.162631 C 7.275743 7.162631 7.445411 7.335626 7.445411 7.541888 Z M 7.445411 7.541888 " transform="matrix(1.174171, 0, 0, 1.174171, 0, 0)"/>
</svg>
