<?xml version="1.0" encoding="UTF-8"?>
<svg xmlns="http://www.w3.org/2000/svg" xmlns:xlink="http://www.w3.org/1999/xlink" width="21.936259" height="19" viewBox="0 0 21.936259 19">
<path fill-rule="nonzero" fill="rgb(54.901963%, 54.901963%, 54.901963%)" fill-opacity="1" stroke-width="0.189223" stroke-linecap="square" stroke-linejoin="miter" stroke="rgb(0%, 0%, 0%)" stroke-opacity="1" stroke-miterlimit="4" d="M 0.163014 0.0931508 L 18.517049 0.0931508 L 9.341695 15.991997 Z M 0.163014 0.0931508 " transform="matrix(1.174171, 0, 0, 1.174171, 0, 0)"/>
<path fill-rule="nonzero" fill="rgb(36.078432%, 36.078432%, 36.078432%)" fill-opacity="1" stroke-width="0.095" stroke-linecap="butt" stroke-linejoin="miter" stroke="rgb(0%, 0%, 0%)" stroke-opacity="1" stroke-miterlimit="4" d="M 7.225841 1.377301 C 7.225841 1.58689 7.052847 1.756558 6.843257 1.756558 C 6.633668 1.756558 6.464 1.58689 6.464 1.377301 C 6.464 1.167712 6.633668 0.994718 6.843257 0.994718 C 7.052847 0.994718 7.225841 1.167712 7.225841 1.377301 Z M 7.225841 1.377301 " transform="matrix(1.174171, 0, 0, 1.174171, 0, 0)"/>
<path fill-rule="nonzero" fill="rgb(36.078432%, 36.078432%, 36.078432%)" fill-opacity="1" stroke-width="0.095" stroke-linecap="butt" stroke-linejoin="miter" stroke="rgb(0%, 0%, 0%)" stroke-opacity="1" stroke-miterlimit="4" d="M 8.360285 1.377301 C 8.360285 1.58689 8.190617 1.756558 7.981028 1.756558 C 7.771438 1.756558 7.598444 1.58689 7.598444 1.377301 C 7.598444 1.167712 7.771438 0.994718 7.981028 0.994718 C 8.190617 0.994718 8.360285 1.167712 8.360285 1.377301 Z M 8.360285 1.377301 " transform="matrix(1.174171, 0, 0, 1.174171, 0, 0)"/>
<path fill-rule="nonzero" fill="rgb(36.078432%, 36.078432%, 36.078432%)" fill-opacity="1" stroke-width="0.095" stroke-linecap="butt" stroke-linejoin="miter" stroke="rgb(0%, 0%, 0%)" stroke-opacity="1" stroke-miterlimit="4" d="M 11.776923 1.377301 C 11.776923 1.58689 11.603929 1.756558 11.397666 1.756558 C 11.18475 1.756558 11.015083 1.58689 11.015083 1.377301 C 11.015083 1.167712 11.18475 0.994718 11.397666 0.994718 C 11.603929 0.994718 11.776923 1.167712 11.776923 1.377301 Z M 11.776923 1.377301 " transform="matrix(1.174171, 0, 0, 1.174171, 0, 0)"/>
<path fill-rule="nonzero" fill="rgb(36.078432%, 36.078432%, 36.078432%)" fill-opacity="1" stroke-width="0.095" stroke-linecap="butt" stroke-linejoin="miter" stroke="rgb(0%, 0%, 0%)" stroke-opacity="1" stroke-miterlimit="4" d="M 8.360285 2.521725 C 8.360285 2.731315 8.190617 2.900982 7.981028 2.900982 C 7.771438 2.900982 7.598444 2.731315 7.598444 2.521725 C 7.598444 2.312136 7.771438 2.139142 7.981028 2.139142 C 8.190617 2.139142 8.360285 2.312136 8.360285 2.521725 Z M 8.360285 2.521725 " transform="matrix(1.174171, 0, 0, 1.174171, 0, 0)"/>
<path fill-rule="nonzero" fill="rgb(100%, 100%, 0%)" fill-opacity="1" stroke-width="0.095" stroke-linecap="butt" stroke-linejoin="miter" stroke="rgb(0%, 0%, 0%)" stroke-opacity="1" stroke-miterlimit="4" d="M 9.498055 2.521725 C 9.498055 2.731315 9.331714 2.900982 9.118798 2.900982 C 8.909209 2.900982 8.739541 2.731315 8.739541 2.521725 C 8.739541 2.312136 8.909209 2.139142 9.118798 2.139142 C 9.331714 2.139142 9.498055 2.312136 9.498055 2.521725 Z M 9.498055 2.521725 " transform="matrix(1.174171, 0, 0, 1.174171, 0, 0)"/>
<path fill-rule="nonzero" fill="rgb(36.078432%, 36.078432%, 36.078432%)" fill-opacity="1" stroke-width="0.095" stroke-linecap="butt" stroke-linejoin="miter" stroke="rgb(0%, 0%, 0%)" stroke-opacity="1" stroke-miterlimit="4" d="M 10.639153 2.521725 C 10.639153 2.731315 10.466158 2.900982 10.256569 2.900982 C 10.050306 2.900982 9.877312 2.731315 9.877312 2.521725 C 9.877312 2.312136 10.050306 2.139142 10.256569 2.139142 C 10.466158 2.139142 10.639153 2.312136 10.639153 2.521725 Z M 10.639153 2.521725 " transform="matrix(1.174171, 0, 0, 1.174171, 0, 0)"/>
<path fill-rule="nonzero" fill="rgb(36.078432%, 36.078432%, 36.078432%)" fill-opacity="1" stroke-width="0.095" stroke-linecap="butt" stroke-linejoin="miter" stroke="rgb(0%, 0%, 0%)" stroke-opacity="1" stroke-miterlimit="4" d="M 7.225841 3.666149 C 7.225841 3.875739 7.052847 4.045406 6.843257 4.045406 C 6.633668 4.045406 6.464 3.875739 6.464 3.666149 C 6.464 3.45656 6.633668 3.283566 6.843257 3.283566 C 7.052847 3.283566 7.225841 3.45656 7.225841 3.666149 Z M 7.225841 3.666149 " transform="matrix(1.174171, 0, 0, 1.174171, 0, 0)"/>
<path fill-rule="nonzero" fill="rgb(100%, 100%, 0%)" fill-opacity="1" stroke-width="0.095" stroke-linecap="butt" stroke-linejoin="miter" stroke="rgb(0%, 0%, 0%)" stroke-opacity="1" stroke-miterlimit="4" d="M 8.360285 3.666149 C 8.360285 3.875739 8.190617 4.045406 7.981028 4.045406 C 7.771438 4.045406 7.598444 3.875739 7.598444 3.666149 C 7.598444 3.45656 7.771438 3.283566 7.981028 3.283566 C 8.190617 3.283566 8.360285 3.45656 8.360285 3.666149 Z M 8.360285 3.666149 " transform="matrix(1.174171, 0, 0, 1.174171, 0, 0)"/>
<path fill-rule="nonzero" fill="rgb(36.078432%, 36.078432%, 36.078432%)" fill-opacity="1" stroke-width="0.095" stroke-linecap="butt" stroke-linejoin="miter" stroke="rgb(0%, 0%, 0%)" stroke-opacity="1" stroke-miterlimit="4" d="M 9.498055 3.666149 C 9.498055 3.875739 9.331714 4.045406 9.118798 4.045406 C 8.909209 4.045406 8.739541 3.875739 8.739541 3.666149 C 8.739541 3.45656 8.909209 3.283566 9.118798 3.283566 C 9.331714 3.283566 9.498055 3.45656 9.498055 3.666149 Z M 9.498055 3.666149 " transform="matrix(1.174171, 0, 0, 1.174171, 0, 0)"/>
<path fill-rule="nonzero" fill="rgb(36.078432%, 36.078432%, 36.078432%)" fill-opacity="1" stroke-width="0.095" stroke-linecap="butt" stroke-linejoin="miter" stroke="rgb(0%, 0%, 0%)" stroke-opacity="1" stroke-miterlimit="4" d="M 10.639153 3.666149 C 10.639153 3.875739 10.466158 4.045406 10.256569 4.045406 C 10.050306 4.045406 9.877312 3.875739 9.877312 3.666149 C 9.877312 3.45656 10.050306 3.283566 10.256569 3.283566 C 10.466158 3.283566 10.639153 3.45656 10.639153 3.666149 Z M 10.639153 3.666149 " transform="matrix(1.174171, 0, 0, 1.174171, 0, 0)"/>
<path fill-rule="nonzero" fill="rgb(36.078432%, 36.078432%, 36.078432%)" fill-opacity="1" stroke-width="0.095" stroke-linecap="butt" stroke-linejoin="miter" stroke="rgb(0%, 0%, 0%)" stroke-opacity="1" stroke-miterlimit="4" d="M 11.776923 4.810574 C 11.776923 5.020163 11.603929 5.189831 11.397666 5.189831 C 11.18475 5.189831 11.015083 5.020163 11.015083 4.810574 C 11.015083 4.600984 11.18475 4.42799 11.397666 4.42799 C 11.603929 4.42799 11.776923 4.600984 11.776923 4.810574 Z M 11.776923 4.810574 " transform="matrix(1.174171, 0, 0, 1.174171, 0, 0)"/>
<path fill-rule="nonzero" fill="rgb(36.078432%, 36.078432%, 36.078432%)" fill-opacity="1" stroke-width="0.095" stroke-linecap="butt" stroke-linejoin="miter" stroke="rgb(0%, 0%, 0%)" stroke-opacity="1" stroke-miterlimit="4" d="M 8.360285 4.810574 C 8.360285 5.020163 8.190617 5.189831 7.981028 5.189831 C 7.771438 5.189831 7.598444 5.020163 7.598444 4.810574 C 7.598444 4.600984 7.771438 4.42799 7.981028 4.42799 C 8.190617 4.42799 8.360285 4.600984 8.360285 4.810574 Z M 8.360285 4.810574 " transform="matrix(1.174171, 0, 0, 1.174171, 0, 0)"/>
<path fill-rule="nonzero" fill="rgb(100%, 100%, 0%)" fill-opacity="1" stroke-width="0.095" stroke-linecap="butt" stroke-linejoin="miter" stroke="rgb(0%, 0%, 0%)" stroke-opacity="1" stroke-miterlimit="4" d="M 7.225841 4.810574 C 7.225841 5.020163 7.052847 5.189831 6.843257 5.189831 C 6.633668 5.189831 6.464 5.020163 6.464 4.810574 C 6.464 4.600984 6.633668 4.42799 6.843257 4.42799 C 7.052847 4.42799 7.225841 4.600984 7.225841 4.810574 Z M 7.225841 4.810574 " transform="matrix(1.174171, 0, 0, 1.174171, 0, 0)"/>
<path fill-rule="nonzero" fill="rgb(100%, 100%, 0%)" fill-opacity="1" stroke-width="0.095" stroke-linecap="butt" stroke-linejoin="miter" stroke="rgb(0%, 0%, 0%)" stroke-opacity="1" stroke-miterlimit="4" d="M 10.639153 5.951671 C 10.639153 6.164587 10.466158 6.334255 10.256569 6.334255 C 10.050306 6.334255 9.877312 6.164587 9.877312 5.951671 C 9.877312 5.745409 10.050306 5.572414 10.256569 5.572414 C 10.466158 5.572414 10.639153 5.745409 10.639153 5.951671 Z M 10.639153 5.951671 " transform="matrix(1.174171, 0, 0, 1.174171, 0, 0)"/>
<path fill-rule="nonzero" fill="rgb(36.078432%, 36.078432%, 36.078432%)" fill-opacity="1" stroke-width="0.095" stroke-linecap="butt" stroke-linejoin="miter" stroke="rgb(0%, 0%, 0%)" stroke-opacity="1" stroke-miterlimit="4" d="M 9.498055 5.951671 C 9.498055 6.164587 9.331714 6.334255 9.118798 6.334255 C 8.909209 6.334255 8.739541 6.164587 8.739541 5.951671 C 8.739541 5.745409 8.909209 5.572414 9.118798 5.572414 C 9.331714 5.572414 9.498055 5.745409 9.498055 5.951671 Z M 9.498055 5.951671 " transform="matrix(1.174171, 0, 0, 1.174171, 0, 0)"/>
<path fill-rule="nonzero" fill="rgb(36.078432%, 36.078432%, 36.078432%)" fill-opacity="1" stroke-width="0.095" stroke-linecap="butt" stroke-linejoin="miter" stroke="rgb(0%, 0%, 0%)" stroke-opacity="1" stroke-miterlimit="4" d="M 8.360285 5.951671 C 8.360285 6.164587 8.190617 6.334255 7.981028 6.334255 C 7.771438 6.334255 7.598444 6.164587 7.598444 5.951671 C 7.598444 5.745409 7.771438 5.572414 7.981028 5.572414 C 8.190617 5.572414 8.360285 5.745409 8.360285 5.951671 Z M 8.360285 5.951671 " transform="matrix(1.174171, 0, 0, 1.174171, 0, 0)"/>
<path fill-rule="nonzero" fill="rgb(100%, 100%, 0%)" fill-opacity="1" stroke-width="0.095" stroke-linecap="butt" stroke-linejoin="miter" stroke="rgb(0%, 0%, 0%)" stroke-opacity="1" stroke-miterlimit="4" d="M 7.225841 5.951671 C 7.225841 6.164587 7.052847 6.334255 6.843257 6.334255 C 6.633668 6.334255 6.464 6.164587 6.464 5.951671 C 6.464 5.745409 6.633668 5.572414 6.843257 5.572414 C 7.052847 5.572414 7.225841 5.745409 7.225841 5.951671 Z M 7.225841 5.951671 " transform="matrix(1.174171, 0, 0, 1.174171, 0, 0)"/>
<path fill-rule="nonzero" fill="rgb(100%, 100%, 0%)" fill-opacity="1" stroke-width="0.095" stroke-linecap="butt" stroke-linejoin="miter" stroke="rgb(0%, 0%, 0%)" stroke-opacity="1" stroke-miterlimit="4" d="M 8.360285 7.096095 C 8.360285 7.309011 8.190617 7.478679 7.981028 7.478679 C 7.771438 7.478679 7.598444 7.309011 7.598444 7.096095 C 7.598444 6.889833 7.771438 6.716838 7.981028 6.716838 C 8.190617 6.716838 8.360285 6.889833 8.360285 7.096095 Z M 8.360285 7.096095 " transform="matrix(1.174171, 0, 0, 1.174171, 0, 0)"/>
<path fill-rule="nonzero" fill="rgb(100%, 100%, 0%)" fill-opacity="1" stroke-width="0.095" stroke-linecap="butt" stroke-linejoin="miter" stroke="rgb(0%, 0%, 0%)" stroke-opacity="1" stroke-miterlimit="4" d="M 9.498055 7.096095 C 9.498055 7.309011 9.331714 7.478679 9.118798 7.478679 C 8.909209 7.478679 8.739541 7.309011 8.739541 7.096095 C 8.739541 6.889833 8.909209 6.716838 9.118798 6.716838 C 9.331714 6.716838 9.498055 6.889833 9.498055 7.096095 Z M 9.498055 7.096095 " transform="matrix(1.174171, 0, 0, 1.174171, 0, 0)"/>
<path fill-rule="nonzero" fill="rgb(100%, 100%, 0%)" fill-opacity="1" stroke-width="0.095" stroke-linecap="butt" stroke-linejoin="miter" stroke="rgb(0%, 0%, 0%)" stroke-opacity="1" stroke-miterlimit="4" d="M 10.639153 7.096095 C 10.639153 7.309011 10.466158 7.478679 10.256569 7.478679 C 10.050306 7.478679 9.877312 7.309011 9.877312 7.096095 C 9.877312 6.889833 10.050306 6.716838 10.256569 6.716838 C 10.466158 6.716838 10.639153 6.889833 10.639153 7.096095 Z M 10.639153 7.096095 " transform="matrix(1.174171, 0, 0, 1.174171, 0, 0)"/>
<path fill-rule="nonzero" fill="rgb(36.078432%, 36.078432%, 36.078432%)" fill-opacity="1" stroke-width="0.095" stroke-linecap="butt" stroke-linejoin="miter" stroke="rgb(0%, 0%, 0%)" stroke-opacity="1" stroke-miterlimit="4" d="M 8.360285 8.240519 C 8.360285 8.453435 8.190617 8.623103 7.981028 8.623103 C 7.771438 8.623103 7.598444 8.453435 7.598444 8.240519 C 7.598444 8.034257 7.771438 7.861262 7.981028 7.861262 C 8.190617 7.861262 8.360285 8.034257 8.360285 8.240519 Z M 8.360285 8.240519 " transform="matrix(1.174171, 0, 0, 1.174171, 0, 0)"/>
<path fill-rule="nonzero" fill="rgb(36.078432%, 36.078432%, 36.078432%)" fill-opacity="1" stroke-width="0.095" stroke-linecap="butt" stroke-linejoin="miter" stroke="rgb(0%, 0%, 0%)" stroke-opacity="1" stroke-miterlimit="4" d="M 9.498055 8.240519 C 9.498055 8.453435 9.331714 8.623103 9.118798 8.623103 C 8.909209 8.623103 8.739541 8.453435 8.739541 8.240519 C 8.739541 8.034257 8.909209 7.861262 9.118798 7.861262 C 9.331714 7.861262 9.498055 8.034257 9.498055 8.240519 Z M 9.498055 8.240519 " transform="matrix(1.174171, 0, 0, 1.174171, 0, 0)"/>
<path fill-rule="nonzero" fill="rgb(100%, 100%, 0%)" fill-opacity="1" stroke-width="0.095" stroke-linecap="butt" stroke-linejoin="miter" stroke="rgb(0%, 0%, 0%)" stroke-opacity="1" stroke-miterlimit="4" d="M 10.639153 8.240519 C 10.639153 8.453435 10.466158 8.623103 10.256569 8.623103 C 10.050306 8.623103 9.877312 8.453435 9.877312 8.240519 C 9.877312 8.034257 10.050306 7.861262 10.256569 7.861262 C 10.466158 7.861262 10.639153 8.034257 10.639153 8.240519 Z M 10.639153 8.240519 " transform="matrix(1.174171, 0, 0, 1.174171, 0, 0)"/>
<path fill-rule="nonzero" fill="rgb(36.078432%, 36.078432%, 36.078432%)" fill-opacity="1" stroke-width="0.095" stroke-linecap="butt" stroke-linejoin="miter" stroke="rgb(0%, 0%, 0%)" stroke-opacity="1" stroke-miterlimit="4" d="M 7.225841 9.384943 C 7.225841 9.59786 7.052847 9.767527 6.843257 9.767527 C 6.633668 9.767527 6.464 9.59786 6.464 9.384943 C 6.464 9.178681 6.633668 9.005687 6.843257 9.005687 C 7.052847 9.005687 7.225841 9.178681 7.225841 9.384943 Z M 7.225841 9.384943 " transform="matrix(1.174171, 0, 0, 1.174171, 0, 0)"/>
<path fill-rule="nonzero" fill="rgb(36.078432%, 36.078432%, 36.078432%)" fill-opacity="1" stroke-width="0.095" stroke-linecap="butt" stroke-linejoin="miter" stroke="rgb(0%, 0%, 0%)" stroke-opacity="1" stroke-miterlimit="4" d="M 11.776923 9.384943 C 11.776923 9.59786 11.603929 9.767527 11.397666 9.767527 C 11.18475 9.767527 11.015083 9.59786 11.015083 9.384943 C 11.015083 9.178681 11.18475 9.005687 11.397666 9.005687 C 11.603929 9.005687 11.776923 9.178681 11.776923 9.384943 Z M 11.776923 9.384943 " transform="matrix(1.174171, 0, 0, 1.174171, 0, 0)"/>
<path fill-rule="nonzero" fill="rgb(36.078432%, 36.078432%, 36.078432%)" fill-opacity="1" stroke-width="0.095" stroke-linecap="butt" stroke-linejoin="miter" stroke="rgb(0%, 0%, 0%)" stroke-opacity="1" stroke-miterlimit="4" d="M 9.498055 1.377301 C 9.498055 1.58689 9.331714 1.756558 9.118798 1.756558 C 8.909209 1.756558 8.739541 1.58689 8.739541 1.377301 C 8.739541 1.167712 8.909209 0.994718 9.118798 0.994718 C 9.331714 0.994718 9.498055 1.167712 9.498055 1.377301 Z M 9.498055 1.377301 " transform="matrix(1.174171, 0, 0, 1.174171, 0, 0)"/>
<path fill-rule="nonzero" fill="rgb(100%, 100%, 0%)" fill-opacity="1" stroke-width="0.095" stroke-linecap="butt" stroke-linejoin="miter" stroke="rgb(0%, 0%, 0%)" stroke-opacity="1" stroke-miterlimit="4" d="M 10.639153 1.377301 C 10.639153 1.58689 10.466158 1.756558 10.256569 1.756558 C 10.050306 1.756558 9.877312 1.58689 9.877312 1.377301 C 9.877312 1.167712 10.050306 0.994718 10.256569 0.994718 C 10.466158 0.994718 10.639153 1.167712 10.639153 1.377301 Z M 10.639153 1.377301 " transform="matrix(1.174171, 0, 0, 1.174171, 0, 0)"/>
<path fill-rule="nonzero" fill="rgb(36.078432%, 36.078432%, 36.078432%)" fill-opacity="1" stroke-width="0.095" stroke-linecap="butt" stroke-linejoin="miter" stroke="rgb(0%, 0%, 0%)" stroke-opacity="1" stroke-miterlimit="4" d="M 7.225841 2.521725 C 7.225841 2.731315 7.052847 2.900982 6.843257 2.900982 C 6.633668 2.900982 6.464 2.731315 6.464 2.521725 C 6.464 2.312136 6.633668 2.139142 6.843257 2.139142 C 7.052847 2.139142 7.225841 2.312136 7.225841 2.521725 Z M 7.225841 2.521725 " transform="matrix(1.174171, 0, 0, 1.174171, 0, 0)"/>
<path fill-rule="nonzero" fill="rgb(36.078432%, 36.078432%, 36.078432%)" fill-opacity="1" stroke-width="0.095" stroke-linecap="butt" stroke-linejoin="miter" stroke="rgb(0%, 0%, 0%)" stroke-opacity="1" stroke-miterlimit="4" d="M 11.776923 2.521725 C 11.776923 2.731315 11.603929 2.900982 11.397666 2.900982 C 11.18475 2.900982 11.015083 2.731315 11.015083 2.521725 C 11.015083 2.312136 11.18475 2.139142 11.397666 2.139142 C 11.603929 2.139142 11.776923 2.312136 11.776923 2.521725 Z M 11.776923 2.521725 " transform="matrix(1.174171, 0, 0, 1.174171, 0, 0)"/>
<path fill-rule="nonzero" fill="rgb(36.078432%, 36.078432%, 36.078432%)" fill-opacity="1" stroke-width="0.095" stroke-linecap="butt" stroke-linejoin="miter" stroke="rgb(0%, 0%, 0%)" stroke-opacity="1" stroke-miterlimit="4" d="M 11.776923 3.666149 C 11.776923 3.875739 11.603929 4.045406 11.397666 4.045406 C 11.18475 4.045406 11.015083 3.875739 11.015083 3.666149 C 11.015083 3.45656 11.18475 3.283566 11.397666 3.283566 C 11.603929 3.283566 11.776923 3.45656 11.776923 3.666149 Z M 11.776923 3.666149 " transform="matrix(1.174171, 0, 0, 1.174171, 0, 0)"/>
<path fill-rule="nonzero" fill="rgb(36.078432%, 36.078432%, 36.078432%)" fill-opacity="1" stroke-width="0.095" stroke-linecap="butt" stroke-linejoin="miter" stroke="rgb(0%, 0%, 0%)" stroke-opacity="1" stroke-miterlimit="4" d="M 9.498055 4.810574 C 9.498055 5.020163 9.331714 5.189831 9.118798 5.189831 C 8.909209 5.189831 8.739541 5.020163 8.739541 4.810574 C 8.739541 4.600984 8.909209 4.42799 9.118798 4.42799 C 9.331714 4.42799 9.498055 4.600984 9.498055 4.810574 Z M 9.498055 4.810574 " transform="matrix(1.174171, 0, 0, 1.174171, 0, 0)"/>
<path fill-rule="nonzero" fill="rgb(36.078432%, 36.078432%, 36.078432%)" fill-opacity="1" stroke-width="0.095" stroke-linecap="butt" stroke-linejoin="miter" stroke="rgb(0%, 0%, 0%)" stroke-opacity="1" stroke-miterlimit="4" d="M 10.639153 4.810574 C 10.639153 5.020163 10.466158 5.189831 10.256569 5.189831 C 10.050306 5.189831 9.877312 5.020163 9.877312 4.810574 C 9.877312 4.600984 10.050306 4.42799 10.256569 4.42799 C 10.466158 4.42799 10.639153 4.600984 10.639153 4.810574 Z M 10.639153 4.810574 " transform="matrix(1.174171, 0, 0, 1.174171, 0, 0)"/>
<path fill-rule="nonzero" fill="rgb(36.078432%, 36.078432%, 36.078432%)" fill-opacity="1" stroke-width="0.095" stroke-linecap="butt" stroke-linejoin="miter" stroke="rgb(0%, 0%, 0%)" stroke-opacity="1" stroke-miterlimit="4" d="M 11.776923 5.951671 C 11.776923 6.164587 11.603929 6.334255 11.397666 6.334255 C 11.18475 6.334255 11.015083 6.164587 11.015083 5.951671 C 11.015083 5.745409 11.18475 5.572414 11.397666 5.572414 C 11.603929 5.572414 11.776923 5.745409 11.776923 5.951671 Z M 11.776923 5.951671 " transform="matrix(1.174171, 0, 0, 1.174171, 0, 0)"/>
<path fill-rule="nonzero" fill="rgb(100%, 100%, 0%)" fill-opacity="1" stroke-width="0.095" stroke-linecap="butt" stroke-linejoin="miter" stroke="rgb(0%, 0%, 0%)" stroke-opacity="1" stroke-miterlimit="4" d="M 11.776923 7.096095 C 11.776923 7.309011 11.603929 7.478679 11.397666 7.478679 C 11.18475 7.478679 11.015083 7.309011 11.015083 7.096095 C 11.015083 6.889833 11.18475 6.716838 11.397666 6.716838 C 11.603929 6.716838 11.776923 6.889833 11.776923 7.096095 Z M 11.776923 7.096095 " transform="matrix(1.174171, 0, 0, 1.174171, 0, 0)"/>
<path fill-rule="nonzero" fill="rgb(36.078432%, 36.078432%, 36.078432%)" fill-opacity="1" stroke-width="0.095" stroke-linecap="butt" stroke-linejoin="miter" stroke="rgb(0%, 0%, 0%)" stroke-opacity="1" stroke-miterlimit="4" d="M 11.776923 8.240519 C 11.776923 8.453435 11.603929 8.623103 11.397666 8.623103 C 11.18475 8.623103 11.015083 8.453435 11.015083 8.240519 C 11.015083 8.034257 11.18475 7.861262 11.397666 7.861262 C 11.603929 7.861262 11.776923 8.034257 11.776923 8.240519 Z M 11.776923 8.240519 " transform="matrix(1.174171, 0, 0, 1.174171, 0, 0)"/>
<path fill-rule="nonzero" fill="rgb(100%, 100%, 0%)" fill-opacity="1" stroke-width="0.095" stroke-linecap="butt" stroke-linejoin="miter" stroke="rgb(0%, 0%, 0%)" stroke-opacity="1" stroke-miterlimit="4" d="M 10.639153 9.384943 C 10.639153 9.59786 10.466158 9.767527 10.256569 9.767527 C 10.050306 9.767527 9.877312 9.59786 9.877312 9.384943 C 9.877312 9.178681 10.050306 9.005687 10.256569 9.005687 C 10.466158 9.005687 10.639153 9.178681 10.639153 9.384943 Z M 10.639153 9.384943 " transform="matrix(1.174171, 0, 0, 1.174171, 0, 0)"/>
<path fill-rule="nonzero" fill="rgb(36.078432%, 36.078432%, 36.078432%)" fill-opacity="1" stroke-width="0.095" stroke-linecap="butt" stroke-linejoin="miter" stroke="rgb(0%, 0%, 0%)" stroke-opacity="1" stroke-miterlimit="4" d="M 9.498055 9.384943 C 9.498055 9.59786 9.331714 9.767527 9.118798 9.767527 C 8.909209 9.767527 8.739541 9.59786 8.739541 9.384943 C 8.739541 9.178681 8.909209 9.005687 9.118798 9.005687 C 9.331714 9.005687 9.498055 9.178681 9.498055 9.384943 Z M 9.498055 9.384943 " transform="matrix(1.174171, 0, 0, 1.174171, 0, 0)"/>
<path fill-rule="nonzero" fill="rgb(36.078432%, 36.078432%, 36.078432%)" fill-opacity="1" stroke-width="0.095" stroke-linecap="butt" stroke-linejoin="miter" stroke="rgb(0%, 0%, 0%)" stroke-opacity="1" stroke-miterlimit="4" d="M 8.360285 9.384943 C 8.360285 9.59786 8.190617 9.767527 7.981028 9.767527 C 7.771438 9.767527 7.598444 9.59786 7.598444 9.384943 C 7.598444 9.178681 7.771438 9.005687 7.981028 9.005687 C 8.190617 9.005687 8.360285 9.178681 8.360285 9.384943 Z M 8.360285 9.384943 " transform="matrix(1.174171, 0, 0, 1.174171, 0, 0)"/>
<path fill-rule="nonzero" fill="rgb(36.078432%, 36.078432%, 36.078432%)" fill-opacity="1" stroke-width="0.095" stroke-linecap="butt" stroke-linejoin="miter" stroke="rgb(0%, 0%, 0%)" stroke-opacity="1" stroke-miterlimit="4" d="M 7.225841 8.240519 C 7.225841 8.453435 7.052847 8.623103 6.843257 8.623103 C 6.633668 8.623103 6.464 8.453435 6.464 8.240519 C 6.464 8.034257 6.633668 7.861262 6.843257 7.861262 C 7.052847 7.861262 7.225841 8.034257 7.225841 8.240519 Z M 7.225841 8.240519 " transform="matrix(1.174171, 0, 0, 1.174171, 0, 0)"/>
<path fill-rule="nonzero" fill="rgb(100%, 100%, 0%)" fill-opacity="1" stroke-width="0.095" stroke-linecap="butt" stroke-linejoin="miter" stroke="rgb(0%, 0%, 0%)" stroke-opacity="1" stroke-miterlimit="4" d="M 7.225841 7.096095 C 7.225841 7.309011 7.052847 7.478679 6.843257 7.478679 C 6.633668 7.478679 6.464 7.309011 6.464 7.096095 C 6.464 6.889833 6.633668 6.716838 6.843257 6.716838 C 7.052847 6.716838 7.225841 6.889833 7.225841 7.096095 Z M 7.225841 7.096095 " transform="matrix(1.174171, 0, 0, 1.174171, 0, 0)"/>
</svg>
