<?xml version="1.0" encoding="UTF-8"?>
<svg xmlns="http://www.w3.org/2000/svg" xmlns:xlink="http://www.w3.org/1999/xlink" width="21.936259" height="19" viewBox="0 0 21.936259 19">
<path fill-rule="nonzero" fill="rgb(54.901963%, 54.901963%, 54.901963%)" fill-opacity="1" stroke-width="0.189223" stroke-linecap="square" stroke-linejoin="miter" stroke="rgb(0%, 0%, 0%)" stroke-opacity="1" stroke-miterlimit="4" d="M 0.163014 0.0931508 L 18.517049 0.0931508 L 9.341695 15.991997 Z M 0.163014 0.0931508 " transform="matrix(1.174171, 0, 0, 1.174171, 0, 0)"/>
<path fill-rule="nonzero" fill="rgb(36.078432%, 36.078432%, 36.078432%)" fill-opacity="1" stroke-width="0.095" stroke-linecap="butt" stroke-linejoin="miter" stroke="rgb(0%, 0%, 0%)" stroke-opacity="1" stroke-miterlimit="4" d="M 7.445411 1.224268 C 7.445411 1.433857 7.275743 1.603525 7.062827 1.603525 C 6.856565 1.603525 6.68357 1.433857 6.68357 1.224268 C 6.68357 1.014678 6.856565 0.841684 7.062827 0.841684 C 7.275743 0.841684 7.445411 1.014678 7.445411 1.224268 Z M 7.445411 1.224268 " transform="matrix(1.174171, 0, 0, 1.174171, 0, 0)"/>
<path fill-rule="nonzero" fill="rgb(100%, 100%, 0%)" fill-opacity="1" stroke-width="0.095" stroke-linecap="butt" stroke-linejoin="miter" stroke="rgb(0%, 0%, 0%)" stroke-opacity="1" stroke-miterlimit="4" d="M 8.583181 1.224268 C 8.583181 1.433857 8.410187 1.603525 8.203924 1.603525 C 7.994335 1.603525 7.821341 1.433857 7.821341 1.224268 C 7.821341 1.014678 7.994335 0.841684 8.203924 0.841684 C 8.410187 0.841684 8.583181 1.014678 8.583181 1.224268 Z M 8.583181 1.224268 " transform="matrix(1.174171, 0, 0, 1.174171, 0, 0)"/>
<path fill-rule="nonzero" fill="rgb(36.078432%, 36.078432%, 36.078432%)" fill-opacity="1" stroke-width="0.095" stroke-linecap="butt" stroke-linejoin="miter" stroke="rgb(0%, 0%, 0%)" stroke-opacity="1" stroke-miterlimit="4" d="M 11.996493 1.224268 C 11.996493 1.433857 11.826825 1.603525 11.617236 1.603525 C 11.407647 1.603525 11.234652 1.433857 11.234652 1.224268 C 11.234652 1.014678 11.407647 0.841684 11.617236 0.841684 C 11.826825 0.841684 11.996493 1.014678 11.996493 1.224268 Z M 11.996493 1.224268 " transform="matrix(1.174171, 0, 0, 1.174171, 0, 0)"/>
<path fill-rule="nonzero" fill="rgb(36.078432%, 36.078432%, 36.078432%)" fill-opacity="1" stroke-width="0.095" stroke-linecap="butt" stroke-linejoin="miter" stroke="rgb(0%, 0%, 0%)" stroke-opacity="1" stroke-miterlimit="4" d="M 8.583181 2.368692 C 8.583181 2.578281 8.410187 2.747949 8.203924 2.747949 C 7.994335 2.747949 7.821341 2.578281 7.821341 2.368692 C 7.821341 2.159103 7.994335 1.986108 8.203924 1.986108 C 8.410187 1.986108 8.583181 2.159103 8.583181 2.368692 Z M 8.583181 2.368692 " transform="matrix(1.174171, 0, 0, 1.174171, 0, 0)"/>
<path fill-rule="nonzero" fill="rgb(36.078432%, 36.078432%, 36.078432%)" fill-opacity="1" stroke-width="0.095" stroke-linecap="butt" stroke-linejoin="miter" stroke="rgb(0%, 0%, 0%)" stroke-opacity="1" stroke-miterlimit="4" d="M 9.720952 2.368692 C 9.720952 2.578281 9.551284 2.747949 9.341695 2.747949 C 9.128779 2.747949 8.962438 2.578281 8.962438 2.368692 C 8.962438 2.159103 9.128779 1.986108 9.341695 1.986108 C 9.551284 1.986108 9.720952 2.159103 9.720952 2.368692 Z M 9.720952 2.368692 " transform="matrix(1.174171, 0, 0, 1.174171, 0, 0)"/>
<path fill-rule="nonzero" fill="rgb(36.078432%, 36.078432%, 36.078432%)" fill-opacity="1" stroke-width="0.095" stroke-linecap="butt" stroke-linejoin="miter" stroke="rgb(0%, 0%, 0%)" stroke-opacity="1" stroke-miterlimit="4" d="M 10.862049 2.368692 C 10.862049 2.578281 10.689055 2.747949 10.479465 2.747949 C 10.269876 2.747949 10.100209 2.578281 10.100209 2.368692 C 10.100209 2.159103 10.269876 1.986108 10.479465 1.986108 C 10.689055 1.986108 10.862049 2.159103 10.862049 2.368692 Z M 10.862049 2.368692 " transform="matrix(1.174171, 0, 0, 1.174171, 0, 0)"/>
<path fill-rule="nonzero" fill="rgb(100%, 100%, 0%)" fill-opacity="1" stroke-width="0.095" stroke-linecap="butt" stroke-linejoin="miter" stroke="rgb(0%, 0%, 0%)" stroke-opacity="1" stroke-miterlimit="4" d="M 7.445411 3.513116 C 7.445411 3.722705 7.275743 3.892373 7.062827 3.892373 C 6.856565 3.892373 6.68357 3.722705 6.68357 3.513116 C 6.68357 3.303527 6.856565 3.130532 7.062827 3.130532 C 7.275743 3.130532 7.445411 3.303527 7.445411 3.513116 Z M 7.445411 3.513116 " transform="matrix(1.174171, 0, 0, 1.174171, 0, 0)"/>
<path fill-rule="nonzero" fill="rgb(36.078432%, 36.078432%, 36.078432%)" fill-opacity="1" stroke-width="0.095" stroke-linecap="butt" stroke-linejoin="miter" stroke="rgb(0%, 0%, 0%)" stroke-opacity="1" stroke-miterlimit="4" d="M 8.583181 3.513116 C 8.583181 3.722705 8.410187 3.892373 8.203924 3.892373 C 7.994335 3.892373 7.821341 3.722705 7.821341 3.513116 C 7.821341 3.303527 7.994335 3.130532 8.203924 3.130532 C 8.410187 3.130532 8.583181 3.303527 8.583181 3.513116 Z M 8.583181 3.513116 " transform="matrix(1.174171, 0, 0, 1.174171, 0, 0)"/>
<path fill-rule="nonzero" fill="rgb(36.078432%, 36.078432%, 36.078432%)" fill-opacity="1" stroke-width="0.095" stroke-linecap="butt" stroke-linejoin="miter" stroke="rgb(0%, 0%, 0%)" stroke-opacity="1" stroke-miterlimit="4" d="M 9.720952 3.513116 C 9.720952 3.722705 9.551284 3.892373 9.341695 3.892373 C 9.128779 3.892373 8.962438 3.722705 8.962438 3.513116 C 8.962438 3.303527 9.128779 3.130532 9.341695 3.130532 C 9.551284 3.130532 9.720952 3.303527 9.720952 3.513116 Z M 9.720952 3.513116 " transform="matrix(1.174171, 0, 0, 1.174171, 0, 0)"/>
<path fill-rule="nonzero" fill="rgb(36.078432%, 36.078432%, 36.078432%)" fill-opacity="1" stroke-width="0.095" stroke-linecap="butt" stroke-linejoin="miter" stroke="rgb(0%, 0%, 0%)" stroke-opacity="1" stroke-miterlimit="4" d="M 10.862049 3.513116 C 10.862049 3.722705 10.689055 3.892373 10.479465 3.892373 C 10.269876 3.892373 10.100209 3.722705 10.100209 3.513116 C 10.100209 3.303527 10.269876 3.130532 10.479465 3.130532 C 10.689055 3.130532 10.862049 3.303527 10.862049 3.513116 Z M 10.862049 3.513116 " transform="matrix(1.174171, 0, 0, 1.174171, 0, 0)"/>
<path fill-rule="nonzero" fill="rgb(36.078432%, 36.078432%, 36.078432%)" fill-opacity="1" stroke-width="0.095" stroke-linecap="butt" stroke-linejoin="miter" stroke="rgb(0%, 0%, 0%)" stroke-opacity="1" stroke-miterlimit="4" d="M 11.996493 4.65754 C 11.996493 4.86713 11.826825 5.036797 11.617236 5.036797 C 11.407647 5.036797 11.234652 4.86713 11.234652 4.65754 C 11.234652 4.447951 11.407647 4.274957 11.617236 4.274957 C 11.826825 4.274957 11.996493 4.447951 11.996493 4.65754 Z M 11.996493 4.65754 " transform="matrix(1.174171, 0, 0, 1.174171, 0, 0)"/>
<path fill-rule="nonzero" fill="rgb(100%, 100%, 0%)" fill-opacity="1" stroke-width="0.095" stroke-linecap="butt" stroke-linejoin="miter" stroke="rgb(0%, 0%, 0%)" stroke-opacity="1" stroke-miterlimit="4" d="M 8.583181 4.65754 C 8.583181 4.86713 8.410187 5.036797 8.203924 5.036797 C 7.994335 5.036797 7.821341 4.86713 7.821341 4.65754 C 7.821341 4.447951 7.994335 4.274957 8.203924 4.274957 C 8.410187 4.274957 8.583181 4.447951 8.583181 4.65754 Z M 8.583181 4.65754 " transform="matrix(1.174171, 0, 0, 1.174171, 0, 0)"/>
<path fill-rule="nonzero" fill="rgb(100%, 100%, 0%)" fill-opacity="1" stroke-width="0.095" stroke-linecap="butt" stroke-linejoin="miter" stroke="rgb(0%, 0%, 0%)" stroke-opacity="1" stroke-miterlimit="4" d="M 7.445411 4.65754 C 7.445411 4.86713 7.275743 5.036797 7.062827 5.036797 C 6.856565 5.036797 6.68357 4.86713 6.68357 4.65754 C 6.68357 4.447951 6.856565 4.274957 7.062827 4.274957 C 7.275743 4.274957 7.445411 4.447951 7.445411 4.65754 Z M 7.445411 4.65754 " transform="matrix(1.174171, 0, 0, 1.174171, 0, 0)"/>
<path fill-rule="nonzero" fill="rgb(36.078432%, 36.078432%, 36.078432%)" fill-opacity="1" stroke-width="0.095" stroke-linecap="butt" stroke-linejoin="miter" stroke="rgb(0%, 0%, 0%)" stroke-opacity="1" stroke-miterlimit="4" d="M 10.862049 5.798638 C 10.862049 6.011554 10.689055 6.181221 10.479465 6.181221 C 10.269876 6.181221 10.100209 6.011554 10.100209 5.798638 C 10.100209 5.592375 10.269876 5.419381 10.479465 5.419381 C 10.689055 5.419381 10.862049 5.592375 10.862049 5.798638 Z M 10.862049 5.798638 " transform="matrix(1.174171, 0, 0, 1.174171, 0, 0)"/>
<path fill-rule="nonzero" fill="rgb(36.078432%, 36.078432%, 36.078432%)" fill-opacity="1" stroke-width="0.095" stroke-linecap="butt" stroke-linejoin="miter" stroke="rgb(0%, 0%, 0%)" stroke-opacity="1" stroke-miterlimit="4" d="M 9.720952 5.798638 C 9.720952 6.011554 9.551284 6.181221 9.341695 6.181221 C 9.128779 6.181221 8.962438 6.011554 8.962438 5.798638 C 8.962438 5.592375 9.128779 5.419381 9.341695 5.419381 C 9.551284 5.419381 9.720952 5.592375 9.720952 5.798638 Z M 9.720952 5.798638 " transform="matrix(1.174171, 0, 0, 1.174171, 0, 0)"/>
<path fill-rule="nonzero" fill="rgb(36.078432%, 36.078432%, 36.078432%)" fill-opacity="1" stroke-width="0.095" stroke-linecap="butt" stroke-linejoin="miter" stroke="rgb(0%, 0%, 0%)" stroke-opacity="1" stroke-miterlimit="4" d="M 8.583181 5.798638 C 8.583181 6.011554 8.410187 6.181221 8.203924 6.181221 C 7.994335 6.181221 7.821341 6.011554 7.821341 5.798638 C 7.821341 5.592375 7.994335 5.419381 8.203924 5.419381 C 8.410187 5.419381 8.583181 5.592375 8.583181 5.798638 Z M 8.583181 5.798638 " transform="matrix(1.174171, 0, 0, 1.174171, 0, 0)"/>
<path fill-rule="nonzero" fill="rgb(100%, 100%, 0%)" fill-opacity="1" stroke-width="0.095" stroke-linecap="butt" stroke-linejoin="miter" stroke="rgb(0%, 0%, 0%)" stroke-opacity="1" stroke-miterlimit="4" d="M 7.445411 5.798638 C 7.445411 6.011554 7.275743 6.181221 7.062827 6.181221 C 6.856565 6.181221 6.68357 6.011554 6.68357 5.798638 C 6.68357 5.592375 6.856565 5.419381 7.062827 5.419381 C 7.275743 5.419381 7.445411 5.592375 7.445411 5.798638 Z M 7.445411 5.798638 " transform="matrix(1.174171, 0, 0, 1.174171, 0, 0)"/>
<path fill-rule="nonzero" fill="rgb(36.078432%, 36.078432%, 36.078432%)" fill-opacity="1" stroke-width="0.095" stroke-linecap="butt" stroke-linejoin="miter" stroke="rgb(0%, 0%, 0%)" stroke-opacity="1" stroke-miterlimit="4" d="M 8.583181 6.943062 C 8.583181 7.155978 8.410187 7.325645 8.203924 7.325645 C 7.994335 7.325645 7.821341 7.155978 7.821341 6.943062 C 7.821341 6.736799 7.994335 6.563805 8.203924 6.563805 C 8.410187 6.563805 8.583181 6.736799 8.583181 6.943062 Z M 8.583181 6.943062 " transform="matrix(1.174171, 0, 0, 1.174171, 0, 0)"/>
<path fill-rule="nonzero" fill="rgb(36.078432%, 36.078432%, 36.078432%)" fill-opacity="1" stroke-width="0.095" stroke-linecap="butt" stroke-linejoin="miter" stroke="rgb(0%, 0%, 0%)" stroke-opacity="1" stroke-miterlimit="4" d="M 9.720952 6.943062 C 9.720952 7.155978 9.551284 7.325645 9.341695 7.325645 C 9.128779 7.325645 8.962438 7.155978 8.962438 6.943062 C 8.962438 6.736799 9.128779 6.563805 9.341695 6.563805 C 9.551284 6.563805 9.720952 6.736799 9.720952 6.943062 Z M 9.720952 6.943062 " transform="matrix(1.174171, 0, 0, 1.174171, 0, 0)"/>
<path fill-rule="nonzero" fill="rgb(36.078432%, 36.078432%, 36.078432%)" fill-opacity="1" stroke-width="0.095" stroke-linecap="butt" stroke-linejoin="miter" stroke="rgb(0%, 0%, 0%)" stroke-opacity="1" stroke-miterlimit="4" d="M 10.862049 6.943062 C 10.862049 7.155978 10.689055 7.325645 10.479465 7.325645 C 10.269876 7.325645 10.100209 7.155978 10.100209 6.943062 C 10.100209 6.736799 10.269876 6.563805 10.479465 6.563805 C 10.689055 6.563805 10.862049 6.736799 10.862049 6.943062 Z M 10.862049 6.943062 " transform="matrix(1.174171, 0, 0, 1.174171, 0, 0)"/>
<path fill-rule="nonzero" fill="rgb(36.078432%, 36.078432%, 36.078432%)" fill-opacity="1" stroke-width="0.095" stroke-linecap="butt" stroke-linejoin="miter" stroke="rgb(0%, 0%, 0%)" stroke-opacity="1" stroke-miterlimit="4" d="M 8.583181 8.087486 C 8.583181 8.300402 8.410187 8.47007 8.203924 8.47007 C 7.994335 8.47007 7.821341 8.300402 7.821341 8.087486 C 7.821341 7.881223 7.994335 7.711556 8.203924 7.711556 C 8.410187 7.711556 8.583181 7.881223 8.583181 8.087486 Z M 8.583181 8.087486 " transform="matrix(1.174171, 0, 0, 1.174171, 0, 0)"/>
<path fill-rule="nonzero" fill="rgb(36.078432%, 36.078432%, 36.078432%)" fill-opacity="1" stroke-width="0.095" stroke-linecap="butt" stroke-linejoin="miter" stroke="rgb(0%, 0%, 0%)" stroke-opacity="1" stroke-miterlimit="4" d="M 9.720952 8.087486 C 9.720952 8.300402 9.551284 8.47007 9.341695 8.47007 C 9.128779 8.47007 8.962438 8.300402 8.962438 8.087486 C 8.962438 7.881223 9.128779 7.711556 9.341695 7.711556 C 9.551284 7.711556 9.720952 7.881223 9.720952 8.087486 Z M 9.720952 8.087486 " transform="matrix(1.174171, 0, 0, 1.174171, 0, 0)"/>
<path fill-rule="nonzero" fill="rgb(36.078432%, 36.078432%, 36.078432%)" fill-opacity="1" stroke-width="0.095" stroke-linecap="butt" stroke-linejoin="miter" stroke="rgb(0%, 0%, 0%)" stroke-opacity="1" stroke-miterlimit="4" d="M 10.862049 8.087486 C 10.862049 8.300402 10.689055 8.47007 10.479465 8.47007 C 10.269876 8.47007 10.100209 8.300402 10.100209 8.087486 C 10.100209 7.881223 10.269876 7.711556 10.479465 7.711556 C 10.689055 7.711556 10.862049 7.881223 10.862049 8.087486 Z M 10.862049 8.087486 " transform="matrix(1.174171, 0, 0, 1.174171, 0, 0)"/>
<path fill-rule="nonzero" fill="rgb(36.078432%, 36.078432%, 36.078432%)" fill-opacity="1" stroke-width="0.095" stroke-linecap="butt" stroke-linejoin="miter" stroke="rgb(0%, 0%, 0%)" stroke-opacity="1" stroke-miterlimit="4" d="M 7.445411 9.23191 C 7.445411 9.444826 7.275743 9.617821 7.062827 9.617821 C 6.856565 9.617821 6.68357 9.444826 6.68357 9.23191 C 6.68357 9.025648 6.856565 8.85598 7.062827 8.85598 C 7.275743 8.85598 7.445411 9.025648 7.445411 9.23191 Z M 7.445411 9.23191 " transform="matrix(1.174171, 0, 0, 1.174171, 0, 0)"/>
<path fill-rule="nonzero" fill="rgb(36.078432%, 36.078432%, 36.078432%)" fill-opacity="1" stroke-width="0.095" stroke-linecap="butt" stroke-linejoin="miter" stroke="rgb(0%, 0%, 0%)" stroke-opacity="1" stroke-miterlimit="4" d="M 11.996493 9.23191 C 11.996493 9.444826 11.826825 9.617821 11.617236 9.617821 C 11.407647 9.617821 11.234652 9.444826 11.234652 9.23191 C 11.234652 9.025648 11.407647 8.85598 11.617236 8.85598 C 11.826825 8.85598 11.996493 9.025648 11.996493 9.23191 Z M 11.996493 9.23191 " transform="matrix(1.174171, 0, 0, 1.174171, 0, 0)"/>
<path fill-rule="nonzero" fill="rgb(100%, 100%, 0%)" fill-opacity="1" stroke-width="0.095" stroke-linecap="butt" stroke-linejoin="miter" stroke="rgb(0%, 0%, 0%)" stroke-opacity="1" stroke-miterlimit="4" d="M 9.720952 1.224268 C 9.720952 1.433857 9.551284 1.603525 9.341695 1.603525 C 9.128779 1.603525 8.962438 1.433857 8.962438 1.224268 C 8.962438 1.014678 9.128779 0.841684 9.341695 0.841684 C 9.551284 0.841684 9.720952 1.014678 9.720952 1.224268 Z M 9.720952 1.224268 " transform="matrix(1.174171, 0, 0, 1.174171, 0, 0)"/>
<path fill-rule="nonzero" fill="rgb(100%, 100%, 0%)" fill-opacity="1" stroke-width="0.095" stroke-linecap="butt" stroke-linejoin="miter" stroke="rgb(0%, 0%, 0%)" stroke-opacity="1" stroke-miterlimit="4" d="M 10.862049 1.224268 C 10.862049 1.433857 10.689055 1.603525 10.479465 1.603525 C 10.269876 1.603525 10.100209 1.433857 10.100209 1.224268 C 10.100209 1.014678 10.269876 0.841684 10.479465 0.841684 C 10.689055 0.841684 10.862049 1.014678 10.862049 1.224268 Z M 10.862049 1.224268 " transform="matrix(1.174171, 0, 0, 1.174171, 0, 0)"/>
<path fill-rule="nonzero" fill="rgb(100%, 100%, 0%)" fill-opacity="1" stroke-width="0.095" stroke-linecap="butt" stroke-linejoin="miter" stroke="rgb(0%, 0%, 0%)" stroke-opacity="1" stroke-miterlimit="4" d="M 7.445411 2.368692 C 7.445411 2.578281 7.275743 2.747949 7.062827 2.747949 C 6.856565 2.747949 6.68357 2.578281 6.68357 2.368692 C 6.68357 2.159103 6.856565 1.986108 7.062827 1.986108 C 7.275743 1.986108 7.445411 2.159103 7.445411 2.368692 Z M 7.445411 2.368692 " transform="matrix(1.174171, 0, 0, 1.174171, 0, 0)"/>
<path fill-rule="nonzero" fill="rgb(100%, 100%, 0%)" fill-opacity="1" stroke-width="0.095" stroke-linecap="butt" stroke-linejoin="miter" stroke="rgb(0%, 0%, 0%)" stroke-opacity="1" stroke-miterlimit="4" d="M 11.996493 2.368692 C 11.996493 2.578281 11.826825 2.747949 11.617236 2.747949 C 11.407647 2.747949 11.234652 2.578281 11.234652 2.368692 C 11.234652 2.159103 11.407647 1.986108 11.617236 1.986108 C 11.826825 1.986108 11.996493 2.159103 11.996493 2.368692 Z M 11.996493 2.368692 " transform="matrix(1.174171, 0, 0, 1.174171, 0, 0)"/>
<path fill-rule="nonzero" fill="rgb(36.078432%, 36.078432%, 36.078432%)" fill-opacity="1" stroke-width="0.095" stroke-linecap="butt" stroke-linejoin="miter" stroke="rgb(0%, 0%, 0%)" stroke-opacity="1" stroke-miterlimit="4" d="M 11.996493 3.513116 C 11.996493 3.722705 11.826825 3.892373 11.617236 3.892373 C 11.407647 3.892373 11.234652 3.722705 11.234652 3.513116 C 11.234652 3.303527 11.407647 3.130532 11.617236 3.130532 C 11.826825 3.130532 11.996493 3.303527 11.996493 3.513116 Z M 11.996493 3.513116 " transform="matrix(1.174171, 0, 0, 1.174171, 0, 0)"/>
<path fill-rule="nonzero" fill="rgb(100%, 100%, 0%)" fill-opacity="1" stroke-width="0.095" stroke-linecap="butt" stroke-linejoin="miter" stroke="rgb(0%, 0%, 0%)" stroke-opacity="1" stroke-miterlimit="4" d="M 9.720952 4.65754 C 9.720952 4.86713 9.551284 5.036797 9.341695 5.036797 C 9.128779 5.036797 8.962438 4.86713 8.962438 4.65754 C 8.962438 4.447951 9.128779 4.274957 9.341695 4.274957 C 9.551284 4.274957 9.720952 4.447951 9.720952 4.65754 Z M 9.720952 4.65754 " transform="matrix(1.174171, 0, 0, 1.174171, 0, 0)"/>
<path fill-rule="nonzero" fill="rgb(100%, 100%, 0%)" fill-opacity="1" stroke-width="0.095" stroke-linecap="butt" stroke-linejoin="miter" stroke="rgb(0%, 0%, 0%)" stroke-opacity="1" stroke-miterlimit="4" d="M 10.862049 4.65754 C 10.862049 4.86713 10.689055 5.036797 10.479465 5.036797 C 10.269876 5.036797 10.100209 4.86713 10.100209 4.65754 C 10.100209 4.447951 10.269876 4.274957 10.479465 4.274957 C 10.689055 4.274957 10.862049 4.447951 10.862049 4.65754 Z M 10.862049 4.65754 " transform="matrix(1.174171, 0, 0, 1.174171, 0, 0)"/>
<path fill-rule="nonzero" fill="rgb(100%, 100%, 0%)" fill-opacity="1" stroke-width="0.095" stroke-linecap="butt" stroke-linejoin="miter" stroke="rgb(0%, 0%, 0%)" stroke-opacity="1" stroke-miterlimit="4" d="M 11.996493 5.798638 C 11.996493 6.011554 11.826825 6.181221 11.617236 6.181221 C 11.407647 6.181221 11.234652 6.011554 11.234652 5.798638 C 11.234652 5.592375 11.407647 5.419381 11.617236 5.419381 C 11.826825 5.419381 11.996493 5.592375 11.996493 5.798638 Z M 11.996493 5.798638 " transform="matrix(1.174171, 0, 0, 1.174171, 0, 0)"/>
<path fill-rule="nonzero" fill="rgb(100%, 100%, 0%)" fill-opacity="1" stroke-width="0.095" stroke-linecap="butt" stroke-linejoin="miter" stroke="rgb(0%, 0%, 0%)" stroke-opacity="1" stroke-miterlimit="4" d="M 11.996493 6.943062 C 11.996493 7.155978 11.826825 7.325645 11.617236 7.325645 C 11.407647 7.325645 11.234652 7.155978 11.234652 6.943062 C 11.234652 6.736799 11.407647 6.563805 11.617236 6.563805 C 11.826825 6.563805 11.996493 6.736799 11.996493 6.943062 Z M 11.996493 6.943062 " transform="matrix(1.174171, 0, 0, 1.174171, 0, 0)"/>
<path fill-rule="nonzero" fill="rgb(100%, 100%, 0%)" fill-opacity="1" stroke-width="0.095" stroke-linecap="butt" stroke-linejoin="miter" stroke="rgb(0%, 0%, 0%)" stroke-opacity="1" stroke-miterlimit="4" d="M 11.996493 8.087486 C 11.996493 8.300402 11.826825 8.47007 11.617236 8.47007 C 11.407647 8.47007 11.234652 8.300402 11.234652 8.087486 C 11.234652 7.881223 11.407647 7.711556 11.617236 7.711556 C 11.826825 7.711556 11.996493 7.881223 11.996493 8.087486 Z M 11.996493 8.087486 " transform="matrix(1.174171, 0, 0, 1.174171, 0, 0)"/>
<path fill-rule="nonzero" fill="rgb(100%, 100%, 0%)" fill-opacity="1" stroke-width="0.095" stroke-linecap="butt" stroke-linejoin="miter" stroke="rgb(0%, 0%, 0%)" stroke-opacity="1" stroke-miterlimit="4" d="M 10.862049 9.23191 C 10.862049 9.444826 10.689055 9.617821 10.479465 9.617821 C 10.269876 9.617821 10.100209 9.444826 10.100209 9.23191 C 10.100209 9.025648 10.269876 8.85598 10.479465 8.85598 C 10.689055 8.85598 10.862049 9.025648 10.862049 9.23191 Z M 10.862049 9.23191 " transform="matrix(1.174171, 0, 0, 1.174171, 0, 0)"/>
<path fill-rule="nonzero" fill="rgb(100%, 100%, 0%)" fill-opacity="1" stroke-width="0.095" stroke-linecap="butt" stroke-linejoin="miter" stroke="rgb(0%, 0%, 0%)" stroke-opacity="1" stroke-miterlimit="4" d="M 9.720952 9.23191 C 9.720952 9.444826 9.551284 9.617821 9.341695 9.617821 C 9.128779 9.617821 8.962438 9.444826 8.962438 9.23191 C 8.962438 9.025648 9.128779 8.85598 9.341695 8.85598 C 9.551284 8.85598 9.720952 9.025648 9.720952 9.23191 Z M 9.720952 9.23191 " transform="matrix(1.174171, 0, 0, 1.174171, 0, 0)"/>
<path fill-rule="nonzero" fill="rgb(100%, 100%, 0%)" fill-opacity="1" stroke-width="0.095" stroke-linecap="butt" stroke-linejoin="miter" stroke="rgb(0%, 0%, 0%)" stroke-opacity="1" stroke-miterlimit="4" d="M 8.583181 9.23191 C 8.583181 9.444826 8.410187 9.617821 8.203924 9.617821 C 7.994335 9.617821 7.821341 9.444826 7.821341 9.23191 C 7.821341 9.025648 7.994335 8.85598 8.203924 8.85598 C 8.410187 8.85598 8.583181 9.025648 8.583181 9.23191 Z M 8.583181 9.23191 " transform="matrix(1.174171, 0, 0, 1.174171, 0, 0)"/>
<path fill-rule="nonzero" fill="rgb(100%, 100%, 0%)" fill-opacity="1" stroke-width="0.095" stroke-linecap="butt" stroke-linejoin="miter" stroke="rgb(0%, 0%, 0%)" stroke-opacity="1" stroke-miterlimit="4" d="M 7.445411 8.087486 C 7.445411 8.300402 7.275743 8.47007 7.062827 8.47007 C 6.856565 8.47007 6.68357 8.300402 6.68357 8.087486 C 6.68357 7.881223 6.856565 7.711556 7.062827 7.711556 C 7.275743 7.711556 7.445411 7.881223 7.445411 8.087486 Z M 7.445411 8.087486 " transform="matrix(1.174171, 0, 0, 1.174171, 0, 0)"/>
<path fill-rule="nonzero" fill="rgb(100%, 100%, 0%)" fill-opacity="1" stroke-width="0.095" stroke-linecap="butt" stroke-linejoin="miter" stroke="rgb(0%, 0%, 0%)" stroke-opacity="1" stroke-miterlimit="4" d="M 7.445411 6.943062 C 7.445411 7.155978 7.275743 7.325645 7.062827 7.325645 C 6.856565 7.325645 6.68357 7.155978 6.68357 6.943062 C 6.68357 6.736799 6.856565 6.563805 7.062827 6.563805 C 7.275743 6.563805 7.445411 6.736799 7.445411 6.943062 Z M 7.445411 6.943062 " transform="matrix(1.174171, 0, 0, 1.174171, 0, 0)"/>
</svg>
