<?xml version="1.0" encoding="UTF-8"?>
<svg xmlns="http://www.w3.org/2000/svg" xmlns:xlink="http://www.w3.org/1999/xlink" width="21.936259" height="19" viewBox="0 0 21.936259 19">
<path fill-rule="nonzero" fill="rgb(54.901963%, 54.901963%, 54.901963%)" fill-opacity="1" stroke-width="0.189223" stroke-linecap="square" stroke-linejoin="miter" stroke="rgb(0%, 0%, 0%)" stroke-opacity="1" stroke-miterlimit="4" d="M 0.163014 0.0931508 L 18.517049 0.0931508 L 9.341695 15.991997 Z M 0.163014 0.0931508 " transform="matrix(1.174171, 0, 0, 1.174171, 0, 0)"/>
<path fill-rule="nonzero" fill="rgb(36.078432%, 36.078432%, 36.078432%)" fill-opacity="1" stroke-width="0.1" stroke-linecap="butt" stroke-linejoin="miter" stroke="rgb(0%, 0%, 0%)" stroke-opacity="1" stroke-miterlimit="4" d="M 7.445411 1.337379 C 7.445411 1.543642 7.275743 1.716636 7.062827 1.716636 C 6.856565 1.716636 6.68357 1.543642 6.68357 1.337379 C 6.68357 1.12779 6.856565 0.954796 7.062827 0.954796 C 7.275743 0.954796 7.445411 1.12779 7.445411 1.337379 Z M 7.445411 1.337379 " transform="matrix(1.174171, 0, 0, 1.174171, 0, 0)"/>
<path fill-rule="nonzero" fill="rgb(36.078432%, 36.078432%, 36.078432%)" fill-opacity="1" stroke-width="0.1" stroke-linecap="butt" stroke-linejoin="miter" stroke="rgb(0%, 0%, 0%)" stroke-opacity="1" stroke-miterlimit="4" d="M 8.583181 1.337379 C 8.583181 1.543642 8.410187 1.716636 8.203924 1.716636 C 7.994335 1.716636 7.821341 1.543642 7.821341 1.337379 C 7.821341 1.12779 7.994335 0.954796 8.203924 0.954796 C 8.410187 0.954796 8.583181 1.12779 8.583181 1.337379 Z M 8.583181 1.337379 " transform="matrix(1.174171, 0, 0, 1.174171, 0, 0)"/>
<path fill-rule="nonzero" fill="rgb(36.078432%, 36.078432%, 36.078432%)" fill-opacity="1" stroke-width="0.1" stroke-linecap="butt" stroke-linejoin="miter" stroke="rgb(0%, 0%, 0%)" stroke-opacity="1" stroke-miterlimit="4" d="M 11.996493 1.337379 C 11.996493 1.543642 11.826825 1.716636 11.617236 1.716636 C 11.407647 1.716636 11.234652 1.543642 11.234652 1.337379 C 11.234652 1.12779 11.407647 0.954796 11.617236 0.954796 C 11.826825 0.954796 11.996493 1.12779 11.996493 1.337379 Z M 11.996493 1.337379 " transform="matrix(1.174171, 0, 0, 1.174171, 0, 0)"/>
<path fill-rule="nonzero" fill="rgb(100%, 100%, 0%)" fill-opacity="1" stroke-width="0.1" stroke-linecap="butt" stroke-linejoin="miter" stroke="rgb(0%, 0%, 0%)" stroke-opacity="1" stroke-miterlimit="4" d="M 8.583181 2.481804 C 8.583181 2.688066 8.410187 2.86106 8.203924 2.86106 C 7.994335 2.86106 7.821341 2.688066 7.821341 2.481804 C 7.821341 2.272214 7.994335 2.09922 8.203924 2.09922 C 8.410187 2.09922 8.583181 2.272214 8.583181 2.481804 Z M 8.583181 2.481804 " transform="matrix(1.174171, 0, 0, 1.174171, 0, 0)"/>
<path fill-rule="nonzero" fill="rgb(100%, 100%, 0%)" fill-opacity="1" stroke-width="0.1" stroke-linecap="butt" stroke-linejoin="miter" stroke="rgb(0%, 0%, 0%)" stroke-opacity="1" stroke-miterlimit="4" d="M 9.720952 2.481804 C 9.720952 2.688066 9.551284 2.86106 9.341695 2.86106 C 9.128779 2.86106 8.962438 2.688066 8.962438 2.481804 C 8.962438 2.272214 9.128779 2.09922 9.341695 2.09922 C 9.551284 2.09922 9.720952 2.272214 9.720952 2.481804 Z M 9.720952 2.481804 " transform="matrix(1.174171, 0, 0, 1.174171, 0, 0)"/>
<path fill-rule="nonzero" fill="rgb(36.078432%, 36.078432%, 36.078432%)" fill-opacity="1" stroke-width="0.1" stroke-linecap="butt" stroke-linejoin="miter" stroke="rgb(0%, 0%, 0%)" stroke-opacity="1" stroke-miterlimit="4" d="M 10.862049 2.481804 C 10.862049 2.688066 10.689055 2.86106 10.479465 2.86106 C 10.269876 2.86106 10.100209 2.688066 10.100209 2.481804 C 10.100209 2.272214 10.269876 2.09922 10.479465 2.09922 C 10.689055 2.09922 10.862049 2.272214 10.862049 2.481804 Z M 10.862049 2.481804 " transform="matrix(1.174171, 0, 0, 1.174171, 0, 0)"/>
<path fill-rule="nonzero" fill="rgb(100%, 100%, 0%)" fill-opacity="1" stroke-width="0.1" stroke-linecap="butt" stroke-linejoin="miter" stroke="rgb(0%, 0%, 0%)" stroke-opacity="1" stroke-miterlimit="4" d="M 7.445411 3.626228 C 7.445411 3.83249 7.275743 4.005485 7.062827 4.005485 C 6.856565 4.005485 6.68357 3.83249 6.68357 3.626228 C 6.68357 3.416638 6.856565 3.243644 7.062827 3.243644 C 7.275743 3.243644 7.445411 3.416638 7.445411 3.626228 Z M 7.445411 3.626228 " transform="matrix(1.174171, 0, 0, 1.174171, 0, 0)"/>
<path fill-rule="nonzero" fill="rgb(36.078432%, 36.078432%, 36.078432%)" fill-opacity="1" stroke-width="0.1" stroke-linecap="butt" stroke-linejoin="miter" stroke="rgb(0%, 0%, 0%)" stroke-opacity="1" stroke-miterlimit="4" d="M 8.583181 3.626228 C 8.583181 3.83249 8.410187 4.005485 8.203924 4.005485 C 7.994335 4.005485 7.821341 3.83249 7.821341 3.626228 C 7.821341 3.416638 7.994335 3.243644 8.203924 3.243644 C 8.410187 3.243644 8.583181 3.416638 8.583181 3.626228 Z M 8.583181 3.626228 " transform="matrix(1.174171, 0, 0, 1.174171, 0, 0)"/>
<path fill-rule="nonzero" fill="rgb(100%, 100%, 0%)" fill-opacity="1" stroke-width="0.1" stroke-linecap="butt" stroke-linejoin="miter" stroke="rgb(0%, 0%, 0%)" stroke-opacity="1" stroke-miterlimit="4" d="M 9.720952 3.626228 C 9.720952 3.83249 9.551284 4.005485 9.341695 4.005485 C 9.128779 4.005485 8.962438 3.83249 8.962438 3.626228 C 8.962438 3.416638 9.128779 3.243644 9.341695 3.243644 C 9.551284 3.243644 9.720952 3.416638 9.720952 3.626228 Z M 9.720952 3.626228 " transform="matrix(1.174171, 0, 0, 1.174171, 0, 0)"/>
<path fill-rule="nonzero" fill="rgb(36.078432%, 36.078432%, 36.078432%)" fill-opacity="1" stroke-width="0.1" stroke-linecap="butt" stroke-linejoin="miter" stroke="rgb(0%, 0%, 0%)" stroke-opacity="1" stroke-miterlimit="4" d="M 10.862049 3.626228 C 10.862049 3.83249 10.689055 4.005485 10.479465 4.005485 C 10.269876 4.005485 10.100209 3.83249 10.100209 3.626228 C 10.100209 3.416638 10.269876 3.243644 10.479465 3.243644 C 10.689055 3.243644 10.862049 3.416638 10.862049 3.626228 Z M 10.862049 3.626228 " transform="matrix(1.174171, 0, 0, 1.174171, 0, 0)"/>
<path fill-rule="nonzero" fill="rgb(36.078432%, 36.078432%, 36.078432%)" fill-opacity="1" stroke-width="0.1" stroke-linecap="butt" stroke-linejoin="miter" stroke="rgb(0%, 0%, 0%)" stroke-opacity="1" stroke-miterlimit="4" d="M 11.996493 4.770652 C 11.996493 4.976914 11.826825 5.149909 11.617236 5.149909 C 11.407647 5.149909 11.234652 4.976914 11.234652 4.770652 C 11.234652 4.561063 11.407647 4.388068 11.617236 4.388068 C 11.826825 4.388068 11.996493 4.561063 11.996493 4.770652 Z M 11.996493 4.770652 " transform="matrix(1.174171, 0, 0, 1.174171, 0, 0)"/>
<path fill-rule="nonzero" fill="rgb(36.078432%, 36.078432%, 36.078432%)" fill-opacity="1" stroke-width="0.1" stroke-linecap="butt" stroke-linejoin="miter" stroke="rgb(0%, 0%, 0%)" stroke-opacity="1" stroke-miterlimit="4" d="M 8.583181 4.770652 C 8.583181 4.976914 8.410187 5.149909 8.203924 5.149909 C 7.994335 5.149909 7.821341 4.976914 7.821341 4.770652 C 7.821341 4.561063 7.994335 4.388068 8.203924 4.388068 C 8.410187 4.388068 8.583181 4.561063 8.583181 4.770652 Z M 8.583181 4.770652 " transform="matrix(1.174171, 0, 0, 1.174171, 0, 0)"/>
<path fill-rule="nonzero" fill="rgb(36.078432%, 36.078432%, 36.078432%)" fill-opacity="1" stroke-width="0.1" stroke-linecap="butt" stroke-linejoin="miter" stroke="rgb(0%, 0%, 0%)" stroke-opacity="1" stroke-miterlimit="4" d="M 7.445411 4.770652 C 7.445411 4.976914 7.275743 5.149909 7.062827 5.149909 C 6.856565 5.149909 6.68357 4.976914 6.68357 4.770652 C 6.68357 4.561063 6.856565 4.388068 7.062827 4.388068 C 7.275743 4.388068 7.445411 4.561063 7.445411 4.770652 Z M 7.445411 4.770652 " transform="matrix(1.174171, 0, 0, 1.174171, 0, 0)"/>
<path fill-rule="nonzero" fill="rgb(36.078432%, 36.078432%, 36.078432%)" fill-opacity="1" stroke-width="0.1" stroke-linecap="butt" stroke-linejoin="miter" stroke="rgb(0%, 0%, 0%)" stroke-opacity="1" stroke-miterlimit="4" d="M 10.862049 5.911749 C 10.862049 6.121339 10.689055 6.294333 10.479465 6.294333 C 10.269876 6.294333 10.100209 6.121339 10.100209 5.911749 C 10.100209 5.705487 10.269876 5.532492 10.479465 5.532492 C 10.689055 5.532492 10.862049 5.705487 10.862049 5.911749 Z M 10.862049 5.911749 " transform="matrix(1.174171, 0, 0, 1.174171, 0, 0)"/>
<path fill-rule="nonzero" fill="rgb(100%, 100%, 0%)" fill-opacity="1" stroke-width="0.1" stroke-linecap="butt" stroke-linejoin="miter" stroke="rgb(0%, 0%, 0%)" stroke-opacity="1" stroke-miterlimit="4" d="M 9.720952 5.911749 C 9.720952 6.121339 9.551284 6.294333 9.341695 6.294333 C 9.128779 6.294333 8.962438 6.121339 8.962438 5.911749 C 8.962438 5.705487 9.128779 5.532492 9.341695 5.532492 C 9.551284 5.532492 9.720952 5.705487 9.720952 5.911749 Z M 9.720952 5.911749 " transform="matrix(1.174171, 0, 0, 1.174171, 0, 0)"/>
<path fill-rule="nonzero" fill="rgb(36.078432%, 36.078432%, 36.078432%)" fill-opacity="1" stroke-width="0.1" stroke-linecap="butt" stroke-linejoin="miter" stroke="rgb(0%, 0%, 0%)" stroke-opacity="1" stroke-miterlimit="4" d="M 8.583181 5.911749 C 8.583181 6.121339 8.410187 6.294333 8.203924 6.294333 C 7.994335 6.294333 7.821341 6.121339 7.821341 5.911749 C 7.821341 5.705487 7.994335 5.532492 8.203924 5.532492 C 8.410187 5.532492 8.583181 5.705487 8.583181 5.911749 Z M 8.583181 5.911749 " transform="matrix(1.174171, 0, 0, 1.174171, 0, 0)"/>
<path fill-rule="nonzero" fill="rgb(36.078432%, 36.078432%, 36.078432%)" fill-opacity="1" stroke-width="0.1" stroke-linecap="butt" stroke-linejoin="miter" stroke="rgb(0%, 0%, 0%)" stroke-opacity="1" stroke-miterlimit="4" d="M 7.445411 5.911749 C 7.445411 6.121339 7.275743 6.294333 7.062827 6.294333 C 6.856565 6.294333 6.68357 6.121339 6.68357 5.911749 C 6.68357 5.705487 6.856565 5.532492 7.062827 5.532492 C 7.275743 5.532492 7.445411 5.705487 7.445411 5.911749 Z M 7.445411 5.911749 " transform="matrix(1.174171, 0, 0, 1.174171, 0, 0)"/>
<path fill-rule="nonzero" fill="rgb(36.078432%, 36.078432%, 36.078432%)" fill-opacity="1" stroke-width="0.1" stroke-linecap="butt" stroke-linejoin="miter" stroke="rgb(0%, 0%, 0%)" stroke-opacity="1" stroke-miterlimit="4" d="M 8.583181 7.056173 C 8.583181 7.265763 8.410187 7.438757 8.203924 7.438757 C 7.994335 7.438757 7.821341 7.265763 7.821341 7.056173 C 7.821341 6.849911 7.994335 6.676917 8.203924 6.676917 C 8.410187 6.676917 8.583181 6.849911 8.583181 7.056173 Z M 8.583181 7.056173 " transform="matrix(1.174171, 0, 0, 1.174171, 0, 0)"/>
<path fill-rule="nonzero" fill="rgb(100%, 100%, 0%)" fill-opacity="1" stroke-width="0.1" stroke-linecap="butt" stroke-linejoin="miter" stroke="rgb(0%, 0%, 0%)" stroke-opacity="1" stroke-miterlimit="4" d="M 9.720952 7.056173 C 9.720952 7.265763 9.551284 7.438757 9.341695 7.438757 C 9.128779 7.438757 8.962438 7.265763 8.962438 7.056173 C 8.962438 6.849911 9.128779 6.676917 9.341695 6.676917 C 9.551284 6.676917 9.720952 6.849911 9.720952 7.056173 Z M 9.720952 7.056173 " transform="matrix(1.174171, 0, 0, 1.174171, 0, 0)"/>
<path fill-rule="nonzero" fill="rgb(36.078432%, 36.078432%, 36.078432%)" fill-opacity="1" stroke-width="0.1" stroke-linecap="butt" stroke-linejoin="miter" stroke="rgb(0%, 0%, 0%)" stroke-opacity="1" stroke-miterlimit="4" d="M 10.862049 7.056173 C 10.862049 7.265763 10.689055 7.438757 10.479465 7.438757 C 10.269876 7.438757 10.100209 7.265763 10.100209 7.056173 C 10.100209 6.849911 10.269876 6.676917 10.479465 6.676917 C 10.689055 6.676917 10.862049 6.849911 10.862049 7.056173 Z M 10.862049 7.056173 " transform="matrix(1.174171, 0, 0, 1.174171, 0, 0)"/>
<path fill-rule="nonzero" fill="rgb(36.078432%, 36.078432%, 36.078432%)" fill-opacity="1" stroke-width="0.1" stroke-linecap="butt" stroke-linejoin="miter" stroke="rgb(0%, 0%, 0%)" stroke-opacity="1" stroke-miterlimit="4" d="M 8.583181 8.200598 C 8.583181 8.410187 8.410187 8.583181 8.203924 8.583181 C 7.994335 8.583181 7.821341 8.410187 7.821341 8.200598 C 7.821341 7.994335 7.994335 7.821341 8.203924 7.821341 C 8.410187 7.821341 8.583181 7.994335 8.583181 8.200598 Z M 8.583181 8.200598 " transform="matrix(1.174171, 0, 0, 1.174171, 0, 0)"/>
<path fill-rule="nonzero" fill="rgb(100%, 100%, 0%)" fill-opacity="1" stroke-width="0.1" stroke-linecap="butt" stroke-linejoin="miter" stroke="rgb(0%, 0%, 0%)" stroke-opacity="1" stroke-miterlimit="4" d="M 9.720952 8.200598 C 9.720952 8.410187 9.551284 8.583181 9.341695 8.583181 C 9.128779 8.583181 8.962438 8.410187 8.962438 8.200598 C 8.962438 7.994335 9.128779 7.821341 9.341695 7.821341 C 9.551284 7.821341 9.720952 7.994335 9.720952 8.200598 Z M 9.720952 8.200598 " transform="matrix(1.174171, 0, 0, 1.174171, 0, 0)"/>
<path fill-rule="nonzero" fill="rgb(36.078432%, 36.078432%, 36.078432%)" fill-opacity="1" stroke-width="0.1" stroke-linecap="butt" stroke-linejoin="miter" stroke="rgb(0%, 0%, 0%)" stroke-opacity="1" stroke-miterlimit="4" d="M 10.862049 8.200598 C 10.862049 8.410187 10.689055 8.583181 10.479465 8.583181 C 10.269876 8.583181 10.100209 8.410187 10.100209 8.200598 C 10.100209 7.994335 10.269876 7.821341 10.479465 7.821341 C 10.689055 7.821341 10.862049 7.994335 10.862049 8.200598 Z M 10.862049 8.200598 " transform="matrix(1.174171, 0, 0, 1.174171, 0, 0)"/>
<path fill-rule="nonzero" fill="rgb(100%, 100%, 0%)" fill-opacity="1" stroke-width="0.1" stroke-linecap="butt" stroke-linejoin="miter" stroke="rgb(0%, 0%, 0%)" stroke-opacity="1" stroke-miterlimit="4" d="M 7.445411 9.345022 C 7.445411 9.554611 7.275743 9.727605 7.062827 9.727605 C 6.856565 9.727605 6.68357 9.554611 6.68357 9.345022 C 6.68357 9.138759 6.856565 8.965765 7.062827 8.965765 C 7.275743 8.965765 7.445411 9.138759 7.445411 9.345022 Z M 7.445411 9.345022 " transform="matrix(1.174171, 0, 0, 1.174171, 0, 0)"/>
<path fill-rule="nonzero" fill="rgb(100%, 100%, 0%)" fill-opacity="1" stroke-width="0.1" stroke-linecap="butt" stroke-linejoin="miter" stroke="rgb(0%, 0%, 0%)" stroke-opacity="1" stroke-miterlimit="4" d="M 11.996493 9.345022 C 11.996493 9.554611 11.826825 9.727605 11.617236 9.727605 C 11.407647 9.727605 11.234652 9.554611 11.234652 9.345022 C 11.234652 9.138759 11.407647 8.965765 11.617236 8.965765 C 11.826825 8.965765 11.996493 9.138759 11.996493 9.345022 Z M 11.996493 9.345022 " transform="matrix(1.174171, 0, 0, 1.174171, 0, 0)"/>
<path fill-rule="nonzero" fill="rgb(100%, 100%, 0%)" fill-opacity="1" stroke-width="0.1" stroke-linecap="butt" stroke-linejoin="miter" stroke="rgb(0%, 0%, 0%)" stroke-opacity="1" stroke-miterlimit="4" d="M 9.720952 1.337379 C 9.720952 1.543642 9.551284 1.716636 9.341695 1.716636 C 9.128779 1.716636 8.962438 1.543642 8.962438 1.337379 C 8.962438 1.12779 9.128779 0.954796 9.341695 0.954796 C 9.551284 0.954796 9.720952 1.12779 9.720952 1.337379 Z M 9.720952 1.337379 " transform="matrix(1.174171, 0, 0, 1.174171, 0, 0)"/>
<path fill-rule="nonzero" fill="rgb(36.078432%, 36.078432%, 36.078432%)" fill-opacity="1" stroke-width="0.1" stroke-linecap="butt" stroke-linejoin="miter" stroke="rgb(0%, 0%, 0%)" stroke-opacity="1" stroke-miterlimit="4" d="M 10.862049 1.337379 C 10.862049 1.543642 10.689055 1.716636 10.479465 1.716636 C 10.269876 1.716636 10.100209 1.543642 10.100209 1.337379 C 10.100209 1.12779 10.269876 0.954796 10.479465 0.954796 C 10.689055 0.954796 10.862049 1.12779 10.862049 1.337379 Z M 10.862049 1.337379 " transform="matrix(1.174171, 0, 0, 1.174171, 0, 0)"/>
<path fill-rule="nonzero" fill="rgb(36.078432%, 36.078432%, 36.078432%)" fill-opacity="1" stroke-width="0.1" stroke-linecap="butt" stroke-linejoin="miter" stroke="rgb(0%, 0%, 0%)" stroke-opacity="1" stroke-miterlimit="4" d="M 7.445411 2.481804 C 7.445411 2.688066 7.275743 2.86106 7.062827 2.86106 C 6.856565 2.86106 6.68357 2.688066 6.68357 2.481804 C 6.68357 2.272214 6.856565 2.09922 7.062827 2.09922 C 7.275743 2.09922 7.445411 2.272214 7.445411 2.481804 Z M 7.445411 2.481804 " transform="matrix(1.174171, 0, 0, 1.174171, 0, 0)"/>
<path fill-rule="nonzero" fill="rgb(36.078432%, 36.078432%, 36.078432%)" fill-opacity="1" stroke-width="0.1" stroke-linecap="butt" stroke-linejoin="miter" stroke="rgb(0%, 0%, 0%)" stroke-opacity="1" stroke-miterlimit="4" d="M 11.996493 2.481804 C 11.996493 2.688066 11.826825 2.86106 11.617236 2.86106 C 11.407647 2.86106 11.234652 2.688066 11.234652 2.481804 C 11.234652 2.272214 11.407647 2.09922 11.617236 2.09922 C 11.826825 2.09922 11.996493 2.272214 11.996493 2.481804 Z M 11.996493 2.481804 " transform="matrix(1.174171, 0, 0, 1.174171, 0, 0)"/>
<path fill-rule="nonzero" fill="rgb(36.078432%, 36.078432%, 36.078432%)" fill-opacity="1" stroke-width="0.1" stroke-linecap="butt" stroke-linejoin="miter" stroke="rgb(0%, 0%, 0%)" stroke-opacity="1" stroke-miterlimit="4" d="M 11.996493 3.626228 C 11.996493 3.83249 11.826825 4.005485 11.617236 4.005485 C 11.407647 4.005485 11.234652 3.83249 11.234652 3.626228 C 11.234652 3.416638 11.407647 3.243644 11.617236 3.243644 C 11.826825 3.243644 11.996493 3.416638 11.996493 3.626228 Z M 11.996493 3.626228 " transform="matrix(1.174171, 0, 0, 1.174171, 0, 0)"/>
<path fill-rule="nonzero" fill="rgb(100%, 100%, 0%)" fill-opacity="1" stroke-width="0.1" stroke-linecap="butt" stroke-linejoin="miter" stroke="rgb(0%, 0%, 0%)" stroke-opacity="1" stroke-miterlimit="4" d="M 9.720952 4.770652 C 9.720952 4.976914 9.551284 5.149909 9.341695 5.149909 C 9.128779 5.149909 8.962438 4.976914 8.962438 4.770652 C 8.962438 4.561063 9.128779 4.388068 9.341695 4.388068 C 9.551284 4.388068 9.720952 4.561063 9.720952 4.770652 Z M 9.720952 4.770652 " transform="matrix(1.174171, 0, 0, 1.174171, 0, 0)"/>
<path fill-rule="nonzero" fill="rgb(36.078432%, 36.078432%, 36.078432%)" fill-opacity="1" stroke-width="0.1" stroke-linecap="butt" stroke-linejoin="miter" stroke="rgb(0%, 0%, 0%)" stroke-opacity="1" stroke-miterlimit="4" d="M 10.862049 4.770652 C 10.862049 4.976914 10.689055 5.149909 10.479465 5.149909 C 10.269876 5.149909 10.100209 4.976914 10.100209 4.770652 C 10.100209 4.561063 10.269876 4.388068 10.479465 4.388068 C 10.689055 4.388068 10.862049 4.561063 10.862049 4.770652 Z M 10.862049 4.770652 " transform="matrix(1.174171, 0, 0, 1.174171, 0, 0)"/>
<path fill-rule="nonzero" fill="rgb(36.078432%, 36.078432%, 36.078432%)" fill-opacity="1" stroke-width="0.1" stroke-linecap="butt" stroke-linejoin="miter" stroke="rgb(0%, 0%, 0%)" stroke-opacity="1" stroke-miterlimit="4" d="M 11.996493 5.911749 C 11.996493 6.121339 11.826825 6.294333 11.617236 6.294333 C 11.407647 6.294333 11.234652 6.121339 11.234652 5.911749 C 11.234652 5.705487 11.407647 5.532492 11.617236 5.532492 C 11.826825 5.532492 11.996493 5.705487 11.996493 5.911749 Z M 11.996493 5.911749 " transform="matrix(1.174171, 0, 0, 1.174171, 0, 0)"/>
<path fill-rule="nonzero" fill="rgb(36.078432%, 36.078432%, 36.078432%)" fill-opacity="1" stroke-width="0.1" stroke-linecap="butt" stroke-linejoin="miter" stroke="rgb(0%, 0%, 0%)" stroke-opacity="1" stroke-miterlimit="4" d="M 11.996493 7.056173 C 11.996493 7.265763 11.826825 7.438757 11.617236 7.438757 C 11.407647 7.438757 11.234652 7.265763 11.234652 7.056173 C 11.234652 6.849911 11.407647 6.676917 11.617236 6.676917 C 11.826825 6.676917 11.996493 6.849911 11.996493 7.056173 Z M 11.996493 7.056173 " transform="matrix(1.174171, 0, 0, 1.174171, 0, 0)"/>
<path fill-rule="nonzero" fill="rgb(36.078432%, 36.078432%, 36.078432%)" fill-opacity="1" stroke-width="0.1" stroke-linecap="butt" stroke-linejoin="miter" stroke="rgb(0%, 0%, 0%)" stroke-opacity="1" stroke-miterlimit="4" d="M 11.996493 8.200598 C 11.996493 8.410187 11.826825 8.583181 11.617236 8.583181 C 11.407647 8.583181 11.234652 8.410187 11.234652 8.200598 C 11.234652 7.994335 11.407647 7.821341 11.617236 7.821341 C 11.826825 7.821341 11.996493 7.994335 11.996493 8.200598 Z M 11.996493 8.200598 " transform="matrix(1.174171, 0, 0, 1.174171, 0, 0)"/>
<path fill-rule="nonzero" fill="rgb(100%, 100%, 0%)" fill-opacity="1" stroke-width="0.1" stroke-linecap="butt" stroke-linejoin="miter" stroke="rgb(0%, 0%, 0%)" stroke-opacity="1" stroke-miterlimit="4" d="M 10.862049 9.345022 C 10.862049 9.554611 10.689055 9.727605 10.479465 9.727605 C 10.269876 9.727605 10.100209 9.554611 10.100209 9.345022 C 10.100209 9.138759 10.269876 8.965765 10.479465 8.965765 C 10.689055 8.965765 10.862049 9.138759 10.862049 9.345022 Z M 10.862049 9.345022 " transform="matrix(1.174171, 0, 0, 1.174171, 0, 0)"/>
<path fill-rule="nonzero" fill="rgb(100%, 100%, 0%)" fill-opacity="1" stroke-width="0.1" stroke-linecap="butt" stroke-linejoin="miter" stroke="rgb(0%, 0%, 0%)" stroke-opacity="1" stroke-miterlimit="4" d="M 9.720952 9.345022 C 9.720952 9.554611 9.551284 9.727605 9.341695 9.727605 C 9.128779 9.727605 8.962438 9.554611 8.962438 9.345022 C 8.962438 9.138759 9.128779 8.965765 9.341695 8.965765 C 9.551284 8.965765 9.720952 9.138759 9.720952 9.345022 Z M 9.720952 9.345022 " transform="matrix(1.174171, 0, 0, 1.174171, 0, 0)"/>
<path fill-rule="nonzero" fill="rgb(100%, 100%, 0%)" fill-opacity="1" stroke-width="0.1" stroke-linecap="butt" stroke-linejoin="miter" stroke="rgb(0%, 0%, 0%)" stroke-opacity="1" stroke-miterlimit="4" d="M 8.583181 9.345022 C 8.583181 9.554611 8.410187 9.727605 8.203924 9.727605 C 7.994335 9.727605 7.821341 9.554611 7.821341 9.345022 C 7.821341 9.138759 7.994335 8.965765 8.203924 8.965765 C 8.410187 8.965765 8.583181 9.138759 8.583181 9.345022 Z M 8.583181 9.345022 " transform="matrix(1.174171, 0, 0, 1.174171, 0, 0)"/>
<path fill-rule="nonzero" fill="rgb(36.078432%, 36.078432%, 36.078432%)" fill-opacity="1" stroke-width="0.1" stroke-linecap="butt" stroke-linejoin="miter" stroke="rgb(0%, 0%, 0%)" stroke-opacity="1" stroke-miterlimit="4" d="M 7.445411 8.200598 C 7.445411 8.410187 7.275743 8.583181 7.062827 8.583181 C 6.856565 8.583181 6.68357 8.410187 6.68357 8.200598 C 6.68357 7.994335 6.856565 7.821341 7.062827 7.821341 C 7.275743 7.821341 7.445411 7.994335 7.445411 8.200598 Z M 7.445411 8.200598 " transform="matrix(1.174171, 0, 0, 1.174171, 0, 0)"/>
<path fill-rule="nonzero" fill="rgb(36.078432%, 36.078432%, 36.078432%)" fill-opacity="1" stroke-width="0.1" stroke-linecap="butt" stroke-linejoin="miter" stroke="rgb(0%, 0%, 0%)" stroke-opacity="1" stroke-miterlimit="4" d="M 7.445411 7.056173 C 7.445411 7.265763 7.275743 7.438757 7.062827 7.438757 C 6.856565 7.438757 6.68357 7.265763 6.68357 7.056173 C 6.68357 6.849911 6.856565 6.676917 7.062827 6.676917 C 7.275743 6.676917 7.445411 6.849911 7.445411 7.056173 Z M 7.445411 7.056173 " transform="matrix(1.174171, 0, 0, 1.174171, 0, 0)"/>
</svg>
