<?xml version="1.0" encoding="UTF-8"?>
<svg xmlns="http://www.w3.org/2000/svg" xmlns:xlink="http://www.w3.org/1999/xlink" width="21.936259" height="19" viewBox="0 0 21.936259 19">
<path fill-rule="nonzero" fill="rgb(54.901963%, 54.901963%, 54.901963%)" fill-opacity="1" stroke-width="0.189223" stroke-linecap="square" stroke-linejoin="miter" stroke="rgb(0%, 0%, 0%)" stroke-opacity="1" stroke-miterlimit="4" d="M 0.163014 0.0931508 L 18.517049 0.0931508 L 9.341695 15.991997 Z M 0.163014 0.0931508 " transform="matrix(1.174171, 0, 0, 1.174171, 0, 0)"/>
<path fill-rule="nonzero" fill="rgb(36.078432%, 36.078432%, 36.078432%)" fill-opacity="1" stroke-width="0.095" stroke-linecap="butt" stroke-linejoin="miter" stroke="rgb(0%, 0%, 0%)" stroke-opacity="1" stroke-miterlimit="4" d="M 7.445411 1.467125 C 7.445411 1.673388 7.275743 1.846382 7.062827 1.846382 C 6.856565 1.846382 6.68357 1.673388 6.68357 1.467125 C 6.68357 1.257536 6.856565 1.084542 7.062827 1.084542 C 7.275743 1.084542 7.445411 1.257536 7.445411 1.467125 Z M 7.445411 1.467125 " transform="matrix(1.174171, 0, 0, 1.174171, 0, 0)"/>
<path fill-rule="nonzero" fill="rgb(100%, 100%, 0%)" fill-opacity="1" stroke-width="0.095" stroke-linecap="butt" stroke-linejoin="miter" stroke="rgb(0%, 0%, 0%)" stroke-opacity="1" stroke-miterlimit="4" d="M 8.583181 1.467125 C 8.583181 1.673388 8.410187 1.846382 8.203924 1.846382 C 7.994335 1.846382 7.821341 1.673388 7.821341 1.467125 C 7.821341 1.257536 7.994335 1.084542 8.203924 1.084542 C 8.410187 1.084542 8.583181 1.257536 8.583181 1.467125 Z M 8.583181 1.467125 " transform="matrix(1.174171, 0, 0, 1.174171, 0, 0)"/>
<path fill-rule="nonzero" fill="rgb(36.078432%, 36.078432%, 36.078432%)" fill-opacity="1" stroke-width="0.095" stroke-linecap="butt" stroke-linejoin="miter" stroke="rgb(0%, 0%, 0%)" stroke-opacity="1" stroke-miterlimit="4" d="M 11.996493 1.467125 C 11.996493 1.673388 11.826825 1.846382 11.617236 1.846382 C 11.407647 1.846382 11.234652 1.673388 11.234652 1.467125 C 11.234652 1.257536 11.407647 1.084542 11.617236 1.084542 C 11.826825 1.084542 11.996493 1.257536 11.996493 1.467125 Z M 11.996493 1.467125 " transform="matrix(1.174171, 0, 0, 1.174171, 0, 0)"/>
<path fill-rule="nonzero" fill="rgb(36.078432%, 36.078432%, 36.078432%)" fill-opacity="1" stroke-width="0.095" stroke-linecap="butt" stroke-linejoin="miter" stroke="rgb(0%, 0%, 0%)" stroke-opacity="1" stroke-miterlimit="4" d="M 8.583181 2.611549 C 8.583181 2.817812 8.410187 2.990806 8.203924 2.990806 C 7.994335 2.990806 7.821341 2.817812 7.821341 2.611549 C 7.821341 2.40196 7.994335 2.228966 8.203924 2.228966 C 8.410187 2.228966 8.583181 2.40196 8.583181 2.611549 Z M 8.583181 2.611549 " transform="matrix(1.174171, 0, 0, 1.174171, 0, 0)"/>
<path fill-rule="nonzero" fill="rgb(36.078432%, 36.078432%, 36.078432%)" fill-opacity="1" stroke-width="0.095" stroke-linecap="butt" stroke-linejoin="miter" stroke="rgb(0%, 0%, 0%)" stroke-opacity="1" stroke-miterlimit="4" d="M 9.720952 2.611549 C 9.720952 2.817812 9.551284 2.990806 9.341695 2.990806 C 9.128779 2.990806 8.962438 2.817812 8.962438 2.611549 C 8.962438 2.40196 9.128779 2.228966 9.341695 2.228966 C 9.551284 2.228966 9.720952 2.40196 9.720952 2.611549 Z M 9.720952 2.611549 " transform="matrix(1.174171, 0, 0, 1.174171, 0, 0)"/>
<path fill-rule="nonzero" fill="rgb(36.078432%, 36.078432%, 36.078432%)" fill-opacity="1" stroke-width="0.095" stroke-linecap="butt" stroke-linejoin="miter" stroke="rgb(0%, 0%, 0%)" stroke-opacity="1" stroke-miterlimit="4" d="M 10.862049 2.611549 C 10.862049 2.817812 10.689055 2.990806 10.479465 2.990806 C 10.269876 2.990806 10.100209 2.817812 10.100209 2.611549 C 10.100209 2.40196 10.269876 2.228966 10.479465 2.228966 C 10.689055 2.228966 10.862049 2.40196 10.862049 2.611549 Z M 10.862049 2.611549 " transform="matrix(1.174171, 0, 0, 1.174171, 0, 0)"/>
<path fill-rule="nonzero" fill="rgb(36.078432%, 36.078432%, 36.078432%)" fill-opacity="1" stroke-width="0.095" stroke-linecap="butt" stroke-linejoin="miter" stroke="rgb(0%, 0%, 0%)" stroke-opacity="1" stroke-miterlimit="4" d="M 7.445411 3.755973 C 7.445411 3.962236 7.275743 4.13523 7.062827 4.13523 C 6.856565 4.13523 6.68357 3.962236 6.68357 3.755973 C 6.68357 3.546384 6.856565 3.37339 7.062827 3.37339 C 7.275743 3.37339 7.445411 3.546384 7.445411 3.755973 Z M 7.445411 3.755973 " transform="matrix(1.174171, 0, 0, 1.174171, 0, 0)"/>
<path fill-rule="nonzero" fill="rgb(36.078432%, 36.078432%, 36.078432%)" fill-opacity="1" stroke-width="0.095" stroke-linecap="butt" stroke-linejoin="miter" stroke="rgb(0%, 0%, 0%)" stroke-opacity="1" stroke-miterlimit="4" d="M 8.583181 3.755973 C 8.583181 3.962236 8.410187 4.13523 8.203924 4.13523 C 7.994335 4.13523 7.821341 3.962236 7.821341 3.755973 C 7.821341 3.546384 7.994335 3.37339 8.203924 3.37339 C 8.410187 3.37339 8.583181 3.546384 8.583181 3.755973 Z M 8.583181 3.755973 " transform="matrix(1.174171, 0, 0, 1.174171, 0, 0)"/>
<path fill-rule="nonzero" fill="rgb(36.078432%, 36.078432%, 36.078432%)" fill-opacity="1" stroke-width="0.095" stroke-linecap="butt" stroke-linejoin="miter" stroke="rgb(0%, 0%, 0%)" stroke-opacity="1" stroke-miterlimit="4" d="M 9.720952 3.755973 C 9.720952 3.962236 9.551284 4.13523 9.341695 4.13523 C 9.128779 4.13523 8.962438 3.962236 8.962438 3.755973 C 8.962438 3.546384 9.128779 3.37339 9.341695 3.37339 C 9.551284 3.37339 9.720952 3.546384 9.720952 3.755973 Z M 9.720952 3.755973 " transform="matrix(1.174171, 0, 0, 1.174171, 0, 0)"/>
<path fill-rule="nonzero" fill="rgb(36.078432%, 36.078432%, 36.078432%)" fill-opacity="1" stroke-width="0.095" stroke-linecap="butt" stroke-linejoin="miter" stroke="rgb(0%, 0%, 0%)" stroke-opacity="1" stroke-miterlimit="4" d="M 10.862049 3.755973 C 10.862049 3.962236 10.689055 4.13523 10.479465 4.13523 C 10.269876 4.13523 10.100209 3.962236 10.100209 3.755973 C 10.100209 3.546384 10.269876 3.37339 10.479465 3.37339 C 10.689055 3.37339 10.862049 3.546384 10.862049 3.755973 Z M 10.862049 3.755973 " transform="matrix(1.174171, 0, 0, 1.174171, 0, 0)"/>
<path fill-rule="nonzero" fill="rgb(36.078432%, 36.078432%, 36.078432%)" fill-opacity="1" stroke-width="0.095" stroke-linecap="butt" stroke-linejoin="miter" stroke="rgb(0%, 0%, 0%)" stroke-opacity="1" stroke-miterlimit="4" d="M 11.996493 4.900398 C 11.996493 5.10666 11.826825 5.279654 11.617236 5.279654 C 11.407647 5.279654 11.234652 5.10666 11.234652 4.900398 C 11.234652 4.690808 11.407647 4.517814 11.617236 4.517814 C 11.826825 4.517814 11.996493 4.690808 11.996493 4.900398 Z M 11.996493 4.900398 " transform="matrix(1.174171, 0, 0, 1.174171, 0, 0)"/>
<path fill-rule="nonzero" fill="rgb(36.078432%, 36.078432%, 36.078432%)" fill-opacity="1" stroke-width="0.095" stroke-linecap="butt" stroke-linejoin="miter" stroke="rgb(0%, 0%, 0%)" stroke-opacity="1" stroke-miterlimit="4" d="M 8.583181 4.900398 C 8.583181 5.10666 8.410187 5.279654 8.203924 5.279654 C 7.994335 5.279654 7.821341 5.10666 7.821341 4.900398 C 7.821341 4.690808 7.994335 4.517814 8.203924 4.517814 C 8.410187 4.517814 8.583181 4.690808 8.583181 4.900398 Z M 8.583181 4.900398 " transform="matrix(1.174171, 0, 0, 1.174171, 0, 0)"/>
<path fill-rule="nonzero" fill="rgb(36.078432%, 36.078432%, 36.078432%)" fill-opacity="1" stroke-width="0.095" stroke-linecap="butt" stroke-linejoin="miter" stroke="rgb(0%, 0%, 0%)" stroke-opacity="1" stroke-miterlimit="4" d="M 7.445411 4.900398 C 7.445411 5.10666 7.275743 5.279654 7.062827 5.279654 C 6.856565 5.279654 6.68357 5.10666 6.68357 4.900398 C 6.68357 4.690808 6.856565 4.517814 7.062827 4.517814 C 7.275743 4.517814 7.445411 4.690808 7.445411 4.900398 Z M 7.445411 4.900398 " transform="matrix(1.174171, 0, 0, 1.174171, 0, 0)"/>
<path fill-rule="nonzero" fill="rgb(36.078432%, 36.078432%, 36.078432%)" fill-opacity="1" stroke-width="0.095" stroke-linecap="butt" stroke-linejoin="miter" stroke="rgb(0%, 0%, 0%)" stroke-opacity="1" stroke-miterlimit="4" d="M 10.862049 6.041495 C 10.862049 6.251084 10.689055 6.424079 10.479465 6.424079 C 10.269876 6.424079 10.100209 6.251084 10.100209 6.041495 C 10.100209 5.835233 10.269876 5.662238 10.479465 5.662238 C 10.689055 5.662238 10.862049 5.835233 10.862049 6.041495 Z M 10.862049 6.041495 " transform="matrix(1.174171, 0, 0, 1.174171, 0, 0)"/>
<path fill-rule="nonzero" fill="rgb(36.078432%, 36.078432%, 36.078432%)" fill-opacity="1" stroke-width="0.095" stroke-linecap="butt" stroke-linejoin="miter" stroke="rgb(0%, 0%, 0%)" stroke-opacity="1" stroke-miterlimit="4" d="M 9.720952 6.041495 C 9.720952 6.251084 9.551284 6.424079 9.341695 6.424079 C 9.128779 6.424079 8.962438 6.251084 8.962438 6.041495 C 8.962438 5.835233 9.128779 5.662238 9.341695 5.662238 C 9.551284 5.662238 9.720952 5.835233 9.720952 6.041495 Z M 9.720952 6.041495 " transform="matrix(1.174171, 0, 0, 1.174171, 0, 0)"/>
<path fill-rule="nonzero" fill="rgb(36.078432%, 36.078432%, 36.078432%)" fill-opacity="1" stroke-width="0.095" stroke-linecap="butt" stroke-linejoin="miter" stroke="rgb(0%, 0%, 0%)" stroke-opacity="1" stroke-miterlimit="4" d="M 8.583181 6.041495 C 8.583181 6.251084 8.410187 6.424079 8.203924 6.424079 C 7.994335 6.424079 7.821341 6.251084 7.821341 6.041495 C 7.821341 5.835233 7.994335 5.662238 8.203924 5.662238 C 8.410187 5.662238 8.583181 5.835233 8.583181 6.041495 Z M 8.583181 6.041495 " transform="matrix(1.174171, 0, 0, 1.174171, 0, 0)"/>
<path fill-rule="nonzero" fill="rgb(36.078432%, 36.078432%, 36.078432%)" fill-opacity="1" stroke-width="0.095" stroke-linecap="butt" stroke-linejoin="miter" stroke="rgb(0%, 0%, 0%)" stroke-opacity="1" stroke-miterlimit="4" d="M 7.445411 6.041495 C 7.445411 6.251084 7.275743 6.424079 7.062827 6.424079 C 6.856565 6.424079 6.68357 6.251084 6.68357 6.041495 C 6.68357 5.835233 6.856565 5.662238 7.062827 5.662238 C 7.275743 5.662238 7.445411 5.835233 7.445411 6.041495 Z M 7.445411 6.041495 " transform="matrix(1.174171, 0, 0, 1.174171, 0, 0)"/>
<path fill-rule="nonzero" fill="rgb(36.078432%, 36.078432%, 36.078432%)" fill-opacity="1" stroke-width="0.095" stroke-linecap="butt" stroke-linejoin="miter" stroke="rgb(0%, 0%, 0%)" stroke-opacity="1" stroke-miterlimit="4" d="M 8.583181 7.185919 C 8.583181 7.395508 8.410187 7.568503 8.203924 7.568503 C 7.994335 7.568503 7.821341 7.395508 7.821341 7.185919 C 7.821341 6.979657 7.994335 6.806662 8.203924 6.806662 C 8.410187 6.806662 8.583181 6.979657 8.583181 7.185919 Z M 8.583181 7.185919 " transform="matrix(1.174171, 0, 0, 1.174171, 0, 0)"/>
<path fill-rule="nonzero" fill="rgb(36.078432%, 36.078432%, 36.078432%)" fill-opacity="1" stroke-width="0.095" stroke-linecap="butt" stroke-linejoin="miter" stroke="rgb(0%, 0%, 0%)" stroke-opacity="1" stroke-miterlimit="4" d="M 9.720952 7.185919 C 9.720952 7.395508 9.551284 7.568503 9.341695 7.568503 C 9.128779 7.568503 8.962438 7.395508 8.962438 7.185919 C 8.962438 6.979657 9.128779 6.806662 9.341695 6.806662 C 9.551284 6.806662 9.720952 6.979657 9.720952 7.185919 Z M 9.720952 7.185919 " transform="matrix(1.174171, 0, 0, 1.174171, 0, 0)"/>
<path fill-rule="nonzero" fill="rgb(36.078432%, 36.078432%, 36.078432%)" fill-opacity="1" stroke-width="0.095" stroke-linecap="butt" stroke-linejoin="miter" stroke="rgb(0%, 0%, 0%)" stroke-opacity="1" stroke-miterlimit="4" d="M 10.862049 7.185919 C 10.862049 7.395508 10.689055 7.568503 10.479465 7.568503 C 10.269876 7.568503 10.100209 7.395508 10.100209 7.185919 C 10.100209 6.979657 10.269876 6.806662 10.479465 6.806662 C 10.689055 6.806662 10.862049 6.979657 10.862049 7.185919 Z M 10.862049 7.185919 " transform="matrix(1.174171, 0, 0, 1.174171, 0, 0)"/>
<path fill-rule="nonzero" fill="rgb(36.078432%, 36.078432%, 36.078432%)" fill-opacity="1" stroke-width="0.095" stroke-linecap="butt" stroke-linejoin="miter" stroke="rgb(0%, 0%, 0%)" stroke-opacity="1" stroke-miterlimit="4" d="M 8.583181 8.330343 C 8.583181 8.539933 8.410187 8.712927 8.203924 8.712927 C 7.994335 8.712927 7.821341 8.539933 7.821341 8.330343 C 7.821341 8.124081 7.994335 7.951086 8.203924 7.951086 C 8.410187 7.951086 8.583181 8.124081 8.583181 8.330343 Z M 8.583181 8.330343 " transform="matrix(1.174171, 0, 0, 1.174171, 0, 0)"/>
<path fill-rule="nonzero" fill="rgb(36.078432%, 36.078432%, 36.078432%)" fill-opacity="1" stroke-width="0.095" stroke-linecap="butt" stroke-linejoin="miter" stroke="rgb(0%, 0%, 0%)" stroke-opacity="1" stroke-miterlimit="4" d="M 9.720952 8.330343 C 9.720952 8.539933 9.551284 8.712927 9.341695 8.712927 C 9.128779 8.712927 8.962438 8.539933 8.962438 8.330343 C 8.962438 8.124081 9.128779 7.951086 9.341695 7.951086 C 9.551284 7.951086 9.720952 8.124081 9.720952 8.330343 Z M 9.720952 8.330343 " transform="matrix(1.174171, 0, 0, 1.174171, 0, 0)"/>
<path fill-rule="nonzero" fill="rgb(36.078432%, 36.078432%, 36.078432%)" fill-opacity="1" stroke-width="0.095" stroke-linecap="butt" stroke-linejoin="miter" stroke="rgb(0%, 0%, 0%)" stroke-opacity="1" stroke-miterlimit="4" d="M 10.862049 8.330343 C 10.862049 8.539933 10.689055 8.712927 10.479465 8.712927 C 10.269876 8.712927 10.100209 8.539933 10.100209 8.330343 C 10.100209 8.124081 10.269876 7.951086 10.479465 7.951086 C 10.689055 7.951086 10.862049 8.124081 10.862049 8.330343 Z M 10.862049 8.330343 " transform="matrix(1.174171, 0, 0, 1.174171, 0, 0)"/>
<path fill-rule="nonzero" fill="rgb(36.078432%, 36.078432%, 36.078432%)" fill-opacity="1" stroke-width="0.095" stroke-linecap="butt" stroke-linejoin="miter" stroke="rgb(0%, 0%, 0%)" stroke-opacity="1" stroke-miterlimit="4" d="M 7.445411 9.474767 C 7.445411 9.684357 7.275743 9.857351 7.062827 9.857351 C 6.856565 9.857351 6.68357 9.684357 6.68357 9.474767 C 6.68357 9.268505 6.856565 9.095511 7.062827 9.095511 C 7.275743 9.095511 7.445411 9.268505 7.445411 9.474767 Z M 7.445411 9.474767 " transform="matrix(1.174171, 0, 0, 1.174171, 0, 0)"/>
<path fill-rule="nonzero" fill="rgb(36.078432%, 36.078432%, 36.078432%)" fill-opacity="1" stroke-width="0.095" stroke-linecap="butt" stroke-linejoin="miter" stroke="rgb(0%, 0%, 0%)" stroke-opacity="1" stroke-miterlimit="4" d="M 11.996493 9.474767 C 11.996493 9.684357 11.826825 9.857351 11.617236 9.857351 C 11.407647 9.857351 11.234652 9.684357 11.234652 9.474767 C 11.234652 9.268505 11.407647 9.095511 11.617236 9.095511 C 11.826825 9.095511 11.996493 9.268505 11.996493 9.474767 Z M 11.996493 9.474767 " transform="matrix(1.174171, 0, 0, 1.174171, 0, 0)"/>
<path fill-rule="nonzero" fill="rgb(100%, 100%, 0%)" fill-opacity="1" stroke-width="0.095" stroke-linecap="butt" stroke-linejoin="miter" stroke="rgb(0%, 0%, 0%)" stroke-opacity="1" stroke-miterlimit="4" d="M 9.720952 1.467125 C 9.720952 1.673388 9.551284 1.846382 9.341695 1.846382 C 9.128779 1.846382 8.962438 1.673388 8.962438 1.467125 C 8.962438 1.257536 9.128779 1.084542 9.341695 1.084542 C 9.551284 1.084542 9.720952 1.257536 9.720952 1.467125 Z M 9.720952 1.467125 " transform="matrix(1.174171, 0, 0, 1.174171, 0, 0)"/>
<path fill-rule="nonzero" fill="rgb(100%, 100%, 0%)" fill-opacity="1" stroke-width="0.095" stroke-linecap="butt" stroke-linejoin="miter" stroke="rgb(0%, 0%, 0%)" stroke-opacity="1" stroke-miterlimit="4" d="M 10.862049 1.467125 C 10.862049 1.673388 10.689055 1.846382 10.479465 1.846382 C 10.269876 1.846382 10.100209 1.673388 10.100209 1.467125 C 10.100209 1.257536 10.269876 1.084542 10.479465 1.084542 C 10.689055 1.084542 10.862049 1.257536 10.862049 1.467125 Z M 10.862049 1.467125 " transform="matrix(1.174171, 0, 0, 1.174171, 0, 0)"/>
<path fill-rule="nonzero" fill="rgb(100%, 100%, 0%)" fill-opacity="1" stroke-width="0.095" stroke-linecap="butt" stroke-linejoin="miter" stroke="rgb(0%, 0%, 0%)" stroke-opacity="1" stroke-miterlimit="4" d="M 7.445411 2.611549 C 7.445411 2.817812 7.275743 2.990806 7.062827 2.990806 C 6.856565 2.990806 6.68357 2.817812 6.68357 2.611549 C 6.68357 2.40196 6.856565 2.228966 7.062827 2.228966 C 7.275743 2.228966 7.445411 2.40196 7.445411 2.611549 Z M 7.445411 2.611549 " transform="matrix(1.174171, 0, 0, 1.174171, 0, 0)"/>
<path fill-rule="nonzero" fill="rgb(100%, 100%, 0%)" fill-opacity="1" stroke-width="0.095" stroke-linecap="butt" stroke-linejoin="miter" stroke="rgb(0%, 0%, 0%)" stroke-opacity="1" stroke-miterlimit="4" d="M 11.996493 2.611549 C 11.996493 2.817812 11.826825 2.990806 11.617236 2.990806 C 11.407647 2.990806 11.234652 2.817812 11.234652 2.611549 C 11.234652 2.40196 11.407647 2.228966 11.617236 2.228966 C 11.826825 2.228966 11.996493 2.40196 11.996493 2.611549 Z M 11.996493 2.611549 " transform="matrix(1.174171, 0, 0, 1.174171, 0, 0)"/>
<path fill-rule="nonzero" fill="rgb(100%, 100%, 0%)" fill-opacity="1" stroke-width="0.095" stroke-linecap="butt" stroke-linejoin="miter" stroke="rgb(0%, 0%, 0%)" stroke-opacity="1" stroke-miterlimit="4" d="M 11.996493 3.755973 C 11.996493 3.962236 11.826825 4.13523 11.617236 4.13523 C 11.407647 4.13523 11.234652 3.962236 11.234652 3.755973 C 11.234652 3.546384 11.407647 3.37339 11.617236 3.37339 C 11.826825 3.37339 11.996493 3.546384 11.996493 3.755973 Z M 11.996493 3.755973 " transform="matrix(1.174171, 0, 0, 1.174171, 0, 0)"/>
<path fill-rule="nonzero" fill="rgb(36.078432%, 36.078432%, 36.078432%)" fill-opacity="1" stroke-width="0.095" stroke-linecap="butt" stroke-linejoin="miter" stroke="rgb(0%, 0%, 0%)" stroke-opacity="1" stroke-miterlimit="4" d="M 9.720952 4.900398 C 9.720952 5.10666 9.551284 5.279654 9.341695 5.279654 C 9.128779 5.279654 8.962438 5.10666 8.962438 4.900398 C 8.962438 4.690808 9.128779 4.517814 9.341695 4.517814 C 9.551284 4.517814 9.720952 4.690808 9.720952 4.900398 Z M 9.720952 4.900398 " transform="matrix(1.174171, 0, 0, 1.174171, 0, 0)"/>
<path fill-rule="nonzero" fill="rgb(100%, 100%, 0%)" fill-opacity="1" stroke-width="0.095" stroke-linecap="butt" stroke-linejoin="miter" stroke="rgb(0%, 0%, 0%)" stroke-opacity="1" stroke-miterlimit="4" d="M 10.862049 4.900398 C 10.862049 5.10666 10.689055 5.279654 10.479465 5.279654 C 10.269876 5.279654 10.100209 5.10666 10.100209 4.900398 C 10.100209 4.690808 10.269876 4.517814 10.479465 4.517814 C 10.689055 4.517814 10.862049 4.690808 10.862049 4.900398 Z M 10.862049 4.900398 " transform="matrix(1.174171, 0, 0, 1.174171, 0, 0)"/>
<path fill-rule="nonzero" fill="rgb(100%, 100%, 0%)" fill-opacity="1" stroke-width="0.095" stroke-linecap="butt" stroke-linejoin="miter" stroke="rgb(0%, 0%, 0%)" stroke-opacity="1" stroke-miterlimit="4" d="M 11.996493 6.041495 C 11.996493 6.251084 11.826825 6.424079 11.617236 6.424079 C 11.407647 6.424079 11.234652 6.251084 11.234652 6.041495 C 11.234652 5.835233 11.407647 5.662238 11.617236 5.662238 C 11.826825 5.662238 11.996493 5.835233 11.996493 6.041495 Z M 11.996493 6.041495 " transform="matrix(1.174171, 0, 0, 1.174171, 0, 0)"/>
<path fill-rule="nonzero" fill="rgb(100%, 100%, 0%)" fill-opacity="1" stroke-width="0.095" stroke-linecap="butt" stroke-linejoin="miter" stroke="rgb(0%, 0%, 0%)" stroke-opacity="1" stroke-miterlimit="4" d="M 11.996493 7.185919 C 11.996493 7.395508 11.826825 7.568503 11.617236 7.568503 C 11.407647 7.568503 11.234652 7.395508 11.234652 7.185919 C 11.234652 6.979657 11.407647 6.806662 11.617236 6.806662 C 11.826825 6.806662 11.996493 6.979657 11.996493 7.185919 Z M 11.996493 7.185919 " transform="matrix(1.174171, 0, 0, 1.174171, 0, 0)"/>
<path fill-rule="nonzero" fill="rgb(100%, 100%, 0%)" fill-opacity="1" stroke-width="0.095" stroke-linecap="butt" stroke-linejoin="miter" stroke="rgb(0%, 0%, 0%)" stroke-opacity="1" stroke-miterlimit="4" d="M 11.996493 8.330343 C 11.996493 8.539933 11.826825 8.712927 11.617236 8.712927 C 11.407647 8.712927 11.234652 8.539933 11.234652 8.330343 C 11.234652 8.124081 11.407647 7.951086 11.617236 7.951086 C 11.826825 7.951086 11.996493 8.124081 11.996493 8.330343 Z M 11.996493 8.330343 " transform="matrix(1.174171, 0, 0, 1.174171, 0, 0)"/>
<path fill-rule="nonzero" fill="rgb(100%, 100%, 0%)" fill-opacity="1" stroke-width="0.095" stroke-linecap="butt" stroke-linejoin="miter" stroke="rgb(0%, 0%, 0%)" stroke-opacity="1" stroke-miterlimit="4" d="M 10.862049 9.474767 C 10.862049 9.684357 10.689055 9.857351 10.479465 9.857351 C 10.269876 9.857351 10.100209 9.684357 10.100209 9.474767 C 10.100209 9.268505 10.269876 9.095511 10.479465 9.095511 C 10.689055 9.095511 10.862049 9.268505 10.862049 9.474767 Z M 10.862049 9.474767 " transform="matrix(1.174171, 0, 0, 1.174171, 0, 0)"/>
<path fill-rule="nonzero" fill="rgb(100%, 100%, 0%)" fill-opacity="1" stroke-width="0.095" stroke-linecap="butt" stroke-linejoin="miter" stroke="rgb(0%, 0%, 0%)" stroke-opacity="1" stroke-miterlimit="4" d="M 9.720952 9.474767 C 9.720952 9.684357 9.551284 9.857351 9.341695 9.857351 C 9.128779 9.857351 8.962438 9.684357 8.962438 9.474767 C 8.962438 9.268505 9.128779 9.095511 9.341695 9.095511 C 9.551284 9.095511 9.720952 9.268505 9.720952 9.474767 Z M 9.720952 9.474767 " transform="matrix(1.174171, 0, 0, 1.174171, 0, 0)"/>
<path fill-rule="nonzero" fill="rgb(100%, 100%, 0%)" fill-opacity="1" stroke-width="0.095" stroke-linecap="butt" stroke-linejoin="miter" stroke="rgb(0%, 0%, 0%)" stroke-opacity="1" stroke-miterlimit="4" d="M 8.583181 9.474767 C 8.583181 9.684357 8.410187 9.857351 8.203924 9.857351 C 7.994335 9.857351 7.821341 9.684357 7.821341 9.474767 C 7.821341 9.268505 7.994335 9.095511 8.203924 9.095511 C 8.410187 9.095511 8.583181 9.268505 8.583181 9.474767 Z M 8.583181 9.474767 " transform="matrix(1.174171, 0, 0, 1.174171, 0, 0)"/>
<path fill-rule="nonzero" fill="rgb(100%, 100%, 0%)" fill-opacity="1" stroke-width="0.095" stroke-linecap="butt" stroke-linejoin="miter" stroke="rgb(0%, 0%, 0%)" stroke-opacity="1" stroke-miterlimit="4" d="M 7.445411 8.330343 C 7.445411 8.539933 7.275743 8.712927 7.062827 8.712927 C 6.856565 8.712927 6.68357 8.539933 6.68357 8.330343 C 6.68357 8.124081 6.856565 7.951086 7.062827 7.951086 C 7.275743 7.951086 7.445411 8.124081 7.445411 8.330343 Z M 7.445411 8.330343 " transform="matrix(1.174171, 0, 0, 1.174171, 0, 0)"/>
<path fill-rule="nonzero" fill="rgb(36.078432%, 36.078432%, 36.078432%)" fill-opacity="1" stroke-width="0.095" stroke-linecap="butt" stroke-linejoin="miter" stroke="rgb(0%, 0%, 0%)" stroke-opacity="1" stroke-miterlimit="4" d="M 7.445411 7.185919 C 7.445411 7.395508 7.275743 7.568503 7.062827 7.568503 C 6.856565 7.568503 6.68357 7.395508 6.68357 7.185919 C 6.68357 6.979657 6.856565 6.806662 7.062827 6.806662 C 7.275743 6.806662 7.445411 6.979657 7.445411 7.185919 Z M 7.445411 7.185919 " transform="matrix(1.174171, 0, 0, 1.174171, 0, 0)"/>
</svg>
