<?xml version="1.0" encoding="UTF-8"?>
<svg xmlns="http://www.w3.org/2000/svg" xmlns:xlink="http://www.w3.org/1999/xlink" width="21.936258" height="19" viewBox="0 0 21.936258 19">
<path fill-rule="nonzero" fill="rgb(54.901963%, 54.901963%, 54.901963%)" fill-opacity="1" stroke-width="0.189223" stroke-linecap="square" stroke-linejoin="miter" stroke="rgb(0%, 0%, 0%)" stroke-opacity="1" stroke-miterlimit="4" d="M 0.163014 0.0931508 L 18.517054 0.0931508 L 9.341697 15.992001 Z M 0.163014 0.0931508 L 0.163014 0.0931508 M 0.163014 0.0931508 " transform="matrix(1.174171, 0, 0, 1.174171, 0, 0)"/>
<path fill-rule="nonzero" fill="rgb(100%, 100%, 0%)" fill-opacity="1" stroke-width="0.095" stroke-linecap="butt" stroke-linejoin="miter" stroke="rgb(0%, 0%, 0%)" stroke-opacity="1" stroke-miterlimit="4" d="M 7.445413 1.224268 C 7.445413 1.433857 7.275745 1.603525 7.062829 1.603525 C 6.856566 1.603525 6.683572 1.433857 6.683572 1.224268 C 6.683572 1.014679 6.856566 0.841684 7.062829 0.841684 C 7.275745 0.841684 7.445413 1.014679 7.445413 1.224268 Z M 7.445413 1.224268 " transform="matrix(1.174171, 0, 0, 1.174171, 0, 0)"/>
<path fill-rule="nonzero" fill="rgb(100%, 100%, 0%)" fill-opacity="1" stroke-width="0.095" stroke-linecap="butt" stroke-linejoin="miter" stroke="rgb(0%, 0%, 0%)" stroke-opacity="1" stroke-miterlimit="4" d="M 8.583184 1.224268 C 8.583184 1.433857 8.410189 1.603525 8.203927 1.603525 C 7.994337 1.603525 7.821343 1.433857 7.821343 1.224268 C 7.821343 1.014679 7.994337 0.841684 8.203927 0.841684 C 8.410189 0.841684 8.583184 1.014679 8.583184 1.224268 Z M 8.583184 1.224268 " transform="matrix(1.174171, 0, 0, 1.174171, 0, 0)"/>
<path fill-rule="nonzero" fill="rgb(100%, 100%, 0%)" fill-opacity="1" stroke-width="0.095" stroke-linecap="butt" stroke-linejoin="miter" stroke="rgb(0%, 0%, 0%)" stroke-opacity="1" stroke-miterlimit="4" d="M 11.996496 1.224268 C 11.996496 1.433857 11.826829 1.603525 11.617239 1.603525 C 11.40765 1.603525 11.234655 1.433857 11.234655 1.224268 C 11.234655 1.014679 11.40765 0.841684 11.617239 0.841684 C 11.826829 0.841684 11.996496 1.014679 11.996496 1.224268 Z M 11.996496 1.224268 " transform="matrix(1.174171, 0, 0, 1.174171, 0, 0)"/>
<path fill-rule="nonzero" fill="rgb(36.078432%, 36.078432%, 36.078432%)" fill-opacity="1" stroke-width="0.095" stroke-linecap="butt" stroke-linejoin="miter" stroke="rgb(0%, 0%, 0%)" stroke-opacity="1" stroke-miterlimit="4" d="M 8.583184 2.368693 C 8.583184 2.578282 8.410189 2.747949 8.203927 2.747949 C 7.994337 2.747949 7.821343 2.578282 7.821343 2.368693 C 7.821343 2.159103 7.994337 1.986109 8.203927 1.986109 C 8.410189 1.986109 8.583184 2.159103 8.583184 2.368693 Z M 8.583184 2.368693 " transform="matrix(1.174171, 0, 0, 1.174171, 0, 0)"/>
<path fill-rule="nonzero" fill="rgb(36.078432%, 36.078432%, 36.078432%)" fill-opacity="1" stroke-width="0.095" stroke-linecap="butt" stroke-linejoin="miter" stroke="rgb(0%, 0%, 0%)" stroke-opacity="1" stroke-miterlimit="4" d="M 9.720954 2.368693 C 9.720954 2.578282 9.551287 2.747949 9.341697 2.747949 C 9.128781 2.747949 8.962441 2.578282 8.962441 2.368693 C 8.962441 2.159103 9.128781 1.986109 9.341697 1.986109 C 9.551287 1.986109 9.720954 2.159103 9.720954 2.368693 Z M 9.720954 2.368693 " transform="matrix(1.174171, 0, 0, 1.174171, 0, 0)"/>
<path fill-rule="nonzero" fill="rgb(36.078432%, 36.078432%, 36.078432%)" fill-opacity="1" stroke-width="0.095" stroke-linecap="butt" stroke-linejoin="miter" stroke="rgb(0%, 0%, 0%)" stroke-opacity="1" stroke-miterlimit="4" d="M 10.862052 2.368693 C 10.862052 2.578282 10.689058 2.747949 10.479468 2.747949 C 10.269879 2.747949 10.100211 2.578282 10.100211 2.368693 C 10.100211 2.159103 10.269879 1.986109 10.479468 1.986109 C 10.689058 1.986109 10.862052 2.159103 10.862052 2.368693 Z M 10.862052 2.368693 " transform="matrix(1.174171, 0, 0, 1.174171, 0, 0)"/>
<path fill-rule="nonzero" fill="rgb(36.078432%, 36.078432%, 36.078432%)" fill-opacity="1" stroke-width="0.095" stroke-linecap="butt" stroke-linejoin="miter" stroke="rgb(0%, 0%, 0%)" stroke-opacity="1" stroke-miterlimit="4" d="M 7.445413 3.513117 C 7.445413 3.722706 7.275745 3.892374 7.062829 3.892374 C 6.856566 3.892374 6.683572 3.722706 6.683572 3.513117 C 6.683572 3.303528 6.856566 3.130533 7.062829 3.130533 C 7.275745 3.130533 7.445413 3.303528 7.445413 3.513117 Z M 7.445413 3.513117 " transform="matrix(1.174171, 0, 0, 1.174171, 0, 0)"/>
<path fill-rule="nonzero" fill="rgb(36.078432%, 36.078432%, 36.078432%)" fill-opacity="1" stroke-width="0.095" stroke-linecap="butt" stroke-linejoin="miter" stroke="rgb(0%, 0%, 0%)" stroke-opacity="1" stroke-miterlimit="4" d="M 8.583184 3.513117 C 8.583184 3.722706 8.410189 3.892374 8.203927 3.892374 C 7.994337 3.892374 7.821343 3.722706 7.821343 3.513117 C 7.821343 3.303528 7.994337 3.130533 8.203927 3.130533 C 8.410189 3.130533 8.583184 3.303528 8.583184 3.513117 Z M 8.583184 3.513117 " transform="matrix(1.174171, 0, 0, 1.174171, 0, 0)"/>
<path fill-rule="nonzero" fill="rgb(36.078432%, 36.078432%, 36.078432%)" fill-opacity="1" stroke-width="0.095" stroke-linecap="butt" stroke-linejoin="miter" stroke="rgb(0%, 0%, 0%)" stroke-opacity="1" stroke-miterlimit="4" d="M 9.720954 3.513117 C 9.720954 3.722706 9.551287 3.892374 9.341697 3.892374 C 9.128781 3.892374 8.962441 3.722706 8.962441 3.513117 C 8.962441 3.303528 9.128781 3.130533 9.341697 3.130533 C 9.551287 3.130533 9.720954 3.303528 9.720954 3.513117 Z M 9.720954 3.513117 " transform="matrix(1.174171, 0, 0, 1.174171, 0, 0)"/>
<path fill-rule="nonzero" fill="rgb(36.078432%, 36.078432%, 36.078432%)" fill-opacity="1" stroke-width="0.095" stroke-linecap="butt" stroke-linejoin="miter" stroke="rgb(0%, 0%, 0%)" stroke-opacity="1" stroke-miterlimit="4" d="M 10.862052 3.513117 C 10.862052 3.722706 10.689058 3.892374 10.479468 3.892374 C 10.269879 3.892374 10.100211 3.722706 10.100211 3.513117 C 10.100211 3.303528 10.269879 3.130533 10.479468 3.130533 C 10.689058 3.130533 10.862052 3.303528 10.862052 3.513117 Z M 10.862052 3.513117 " transform="matrix(1.174171, 0, 0, 1.174171, 0, 0)"/>
<path fill-rule="nonzero" fill="rgb(36.078432%, 36.078432%, 36.078432%)" fill-opacity="1" stroke-width="0.095" stroke-linecap="butt" stroke-linejoin="miter" stroke="rgb(0%, 0%, 0%)" stroke-opacity="1" stroke-miterlimit="4" d="M 11.996496 4.657541 C 11.996496 4.867131 11.826829 5.036798 11.617239 5.036798 C 11.40765 5.036798 11.234655 4.867131 11.234655 4.657541 C 11.234655 4.447952 11.40765 4.274958 11.617239 4.274958 C 11.826829 4.274958 11.996496 4.447952 11.996496 4.657541 Z M 11.996496 4.657541 " transform="matrix(1.174171, 0, 0, 1.174171, 0, 0)"/>
<path fill-rule="nonzero" fill="rgb(36.078432%, 36.078432%, 36.078432%)" fill-opacity="1" stroke-width="0.095" stroke-linecap="butt" stroke-linejoin="miter" stroke="rgb(0%, 0%, 0%)" stroke-opacity="1" stroke-miterlimit="4" d="M 8.583184 4.657541 C 8.583184 4.867131 8.410189 5.036798 8.203927 5.036798 C 7.994337 5.036798 7.821343 4.867131 7.821343 4.657541 C 7.821343 4.447952 7.994337 4.274958 8.203927 4.274958 C 8.410189 4.274958 8.583184 4.447952 8.583184 4.657541 Z M 8.583184 4.657541 " transform="matrix(1.174171, 0, 0, 1.174171, 0, 0)"/>
<path fill-rule="nonzero" fill="rgb(36.078432%, 36.078432%, 36.078432%)" fill-opacity="1" stroke-width="0.095" stroke-linecap="butt" stroke-linejoin="miter" stroke="rgb(0%, 0%, 0%)" stroke-opacity="1" stroke-miterlimit="4" d="M 7.445413 4.657541 C 7.445413 4.867131 7.275745 5.036798 7.062829 5.036798 C 6.856566 5.036798 6.683572 4.867131 6.683572 4.657541 C 6.683572 4.447952 6.856566 4.274958 7.062829 4.274958 C 7.275745 4.274958 7.445413 4.447952 7.445413 4.657541 Z M 7.445413 4.657541 " transform="matrix(1.174171, 0, 0, 1.174171, 0, 0)"/>
<path fill-rule="nonzero" fill="rgb(36.078432%, 36.078432%, 36.078432%)" fill-opacity="1" stroke-width="0.095" stroke-linecap="butt" stroke-linejoin="miter" stroke="rgb(0%, 0%, 0%)" stroke-opacity="1" stroke-miterlimit="4" d="M 10.862052 5.798639 C 10.862052 6.011555 10.689058 6.181223 10.479468 6.181223 C 10.269879 6.181223 10.100211 6.011555 10.100211 5.798639 C 10.100211 5.592377 10.269879 5.419382 10.479468 5.419382 C 10.689058 5.419382 10.862052 5.592377 10.862052 5.798639 Z M 10.862052 5.798639 " transform="matrix(1.174171, 0, 0, 1.174171, 0, 0)"/>
<path fill-rule="nonzero" fill="rgb(100%, 100%, 0%)" fill-opacity="1" stroke-width="0.095" stroke-linecap="butt" stroke-linejoin="miter" stroke="rgb(0%, 0%, 0%)" stroke-opacity="1" stroke-miterlimit="4" d="M 9.720954 5.798639 C 9.720954 6.011555 9.551287 6.181223 9.341697 6.181223 C 9.128781 6.181223 8.962441 6.011555 8.962441 5.798639 C 8.962441 5.592377 9.128781 5.419382 9.341697 5.419382 C 9.551287 5.419382 9.720954 5.592377 9.720954 5.798639 Z M 9.720954 5.798639 " transform="matrix(1.174171, 0, 0, 1.174171, 0, 0)"/>
<path fill-rule="nonzero" fill="rgb(36.078432%, 36.078432%, 36.078432%)" fill-opacity="1" stroke-width="0.095" stroke-linecap="butt" stroke-linejoin="miter" stroke="rgb(0%, 0%, 0%)" stroke-opacity="1" stroke-miterlimit="4" d="M 8.583184 5.798639 C 8.583184 6.011555 8.410189 6.181223 8.203927 6.181223 C 7.994337 6.181223 7.821343 6.011555 7.821343 5.798639 C 7.821343 5.592377 7.994337 5.419382 8.203927 5.419382 C 8.410189 5.419382 8.583184 5.592377 8.583184 5.798639 Z M 8.583184 5.798639 " transform="matrix(1.174171, 0, 0, 1.174171, 0, 0)"/>
<path fill-rule="nonzero" fill="rgb(36.078432%, 36.078432%, 36.078432%)" fill-opacity="1" stroke-width="0.095" stroke-linecap="butt" stroke-linejoin="miter" stroke="rgb(0%, 0%, 0%)" stroke-opacity="1" stroke-miterlimit="4" d="M 7.445413 5.798639 C 7.445413 6.011555 7.275745 6.181223 7.062829 6.181223 C 6.856566 6.181223 6.683572 6.011555 6.683572 5.798639 C 6.683572 5.592377 6.856566 5.419382 7.062829 5.419382 C 7.275745 5.419382 7.445413 5.592377 7.445413 5.798639 Z M 7.445413 5.798639 " transform="matrix(1.174171, 0, 0, 1.174171, 0, 0)"/>
<path fill-rule="nonzero" fill="rgb(100%, 100%, 0%)" fill-opacity="1" stroke-width="0.095" stroke-linecap="butt" stroke-linejoin="miter" stroke="rgb(0%, 0%, 0%)" stroke-opacity="1" stroke-miterlimit="4" d="M 8.583184 6.943064 C 8.583184 7.15598 8.410189 7.325647 8.203927 7.325647 C 7.994337 7.325647 7.821343 7.15598 7.821343 6.943064 C 7.821343 6.736801 7.994337 6.563807 8.203927 6.563807 C 8.410189 6.563807 8.583184 6.736801 8.583184 6.943064 Z M 8.583184 6.943064 " transform="matrix(1.174171, 0, 0, 1.174171, 0, 0)"/>
<path fill-rule="nonzero" fill="rgb(36.078432%, 36.078432%, 36.078432%)" fill-opacity="1" stroke-width="0.095" stroke-linecap="butt" stroke-linejoin="miter" stroke="rgb(0%, 0%, 0%)" stroke-opacity="1" stroke-miterlimit="4" d="M 9.720954 6.943064 C 9.720954 7.15598 9.551287 7.325647 9.341697 7.325647 C 9.128781 7.325647 8.962441 7.15598 8.962441 6.943064 C 8.962441 6.736801 9.128781 6.563807 9.341697 6.563807 C 9.551287 6.563807 9.720954 6.736801 9.720954 6.943064 Z M 9.720954 6.943064 " transform="matrix(1.174171, 0, 0, 1.174171, 0, 0)"/>
<path fill-rule="nonzero" fill="rgb(36.078432%, 36.078432%, 36.078432%)" fill-opacity="1" stroke-width="0.095" stroke-linecap="butt" stroke-linejoin="miter" stroke="rgb(0%, 0%, 0%)" stroke-opacity="1" stroke-miterlimit="4" d="M 10.862052 6.943064 C 10.862052 7.15598 10.689058 7.325647 10.479468 7.325647 C 10.269879 7.325647 10.100211 7.15598 10.100211 6.943064 C 10.100211 6.736801 10.269879 6.563807 10.479468 6.563807 C 10.689058 6.563807 10.862052 6.736801 10.862052 6.943064 Z M 10.862052 6.943064 " transform="matrix(1.174171, 0, 0, 1.174171, 0, 0)"/>
<path fill-rule="nonzero" fill="rgb(36.078432%, 36.078432%, 36.078432%)" fill-opacity="1" stroke-width="0.095" stroke-linecap="butt" stroke-linejoin="miter" stroke="rgb(0%, 0%, 0%)" stroke-opacity="1" stroke-miterlimit="4" d="M 8.583184 8.087488 C 8.583184 8.300404 8.410189 8.470072 8.203927 8.470072 C 7.994337 8.470072 7.821343 8.300404 7.821343 8.087488 C 7.821343 7.881226 7.994337 7.711558 8.203927 7.711558 C 8.410189 7.711558 8.583184 7.881226 8.583184 8.087488 Z M 8.583184 8.087488 " transform="matrix(1.174171, 0, 0, 1.174171, 0, 0)"/>
<path fill-rule="nonzero" fill="rgb(36.078432%, 36.078432%, 36.078432%)" fill-opacity="1" stroke-width="0.095" stroke-linecap="butt" stroke-linejoin="miter" stroke="rgb(0%, 0%, 0%)" stroke-opacity="1" stroke-miterlimit="4" d="M 9.720954 8.087488 C 9.720954 8.300404 9.551287 8.470072 9.341697 8.470072 C 9.128781 8.470072 8.962441 8.300404 8.962441 8.087488 C 8.962441 7.881226 9.128781 7.711558 9.341697 7.711558 C 9.551287 7.711558 9.720954 7.881226 9.720954 8.087488 Z M 9.720954 8.087488 " transform="matrix(1.174171, 0, 0, 1.174171, 0, 0)"/>
<path fill-rule="nonzero" fill="rgb(36.078432%, 36.078432%, 36.078432%)" fill-opacity="1" stroke-width="0.095" stroke-linecap="butt" stroke-linejoin="miter" stroke="rgb(0%, 0%, 0%)" stroke-opacity="1" stroke-miterlimit="4" d="M 10.862052 8.087488 C 10.862052 8.300404 10.689058 8.470072 10.479468 8.470072 C 10.269879 8.470072 10.100211 8.300404 10.100211 8.087488 C 10.100211 7.881226 10.269879 7.711558 10.479468 7.711558 C 10.689058 7.711558 10.862052 7.881226 10.862052 8.087488 Z M 10.862052 8.087488 " transform="matrix(1.174171, 0, 0, 1.174171, 0, 0)"/>
<path fill-rule="nonzero" fill="rgb(100%, 100%, 0%)" fill-opacity="1" stroke-width="0.095" stroke-linecap="butt" stroke-linejoin="miter" stroke="rgb(0%, 0%, 0%)" stroke-opacity="1" stroke-miterlimit="4" d="M 7.445413 9.231913 C 7.445413 9.444829 7.275745 9.617823 7.062829 9.617823 C 6.856566 9.617823 6.683572 9.444829 6.683572 9.231913 C 6.683572 9.02565 6.856566 8.855982 7.062829 8.855982 C 7.275745 8.855982 7.445413 9.02565 7.445413 9.231913 Z M 7.445413 9.231913 " transform="matrix(1.174171, 0, 0, 1.174171, 0, 0)"/>
<path fill-rule="nonzero" fill="rgb(36.078432%, 36.078432%, 36.078432%)" fill-opacity="1" stroke-width="0.095" stroke-linecap="butt" stroke-linejoin="miter" stroke="rgb(0%, 0%, 0%)" stroke-opacity="1" stroke-miterlimit="4" d="M 11.996496 9.231913 C 11.996496 9.444829 11.826829 9.617823 11.617239 9.617823 C 11.40765 9.617823 11.234655 9.444829 11.234655 9.231913 C 11.234655 9.02565 11.40765 8.855982 11.617239 8.855982 C 11.826829 8.855982 11.996496 9.02565 11.996496 9.231913 Z M 11.996496 9.231913 " transform="matrix(1.174171, 0, 0, 1.174171, 0, 0)"/>
<path fill-rule="nonzero" fill="rgb(100%, 100%, 0%)" fill-opacity="1" stroke-width="0.095" stroke-linecap="butt" stroke-linejoin="miter" stroke="rgb(0%, 0%, 0%)" stroke-opacity="1" stroke-miterlimit="4" d="M 9.720954 1.224268 C 9.720954 1.433857 9.551287 1.603525 9.341697 1.603525 C 9.128781 1.603525 8.962441 1.433857 8.962441 1.224268 C 8.962441 1.014679 9.128781 0.841684 9.341697 0.841684 C 9.551287 0.841684 9.720954 1.014679 9.720954 1.224268 Z M 9.720954 1.224268 " transform="matrix(1.174171, 0, 0, 1.174171, 0, 0)"/>
<path fill-rule="nonzero" fill="rgb(100%, 100%, 0%)" fill-opacity="1" stroke-width="0.095" stroke-linecap="butt" stroke-linejoin="miter" stroke="rgb(0%, 0%, 0%)" stroke-opacity="1" stroke-miterlimit="4" d="M 10.862052 1.224268 C 10.862052 1.433857 10.689058 1.603525 10.479468 1.603525 C 10.269879 1.603525 10.100211 1.433857 10.100211 1.224268 C 10.100211 1.014679 10.269879 0.841684 10.479468 0.841684 C 10.689058 0.841684 10.862052 1.014679 10.862052 1.224268 Z M 10.862052 1.224268 " transform="matrix(1.174171, 0, 0, 1.174171, 0, 0)"/>
<path fill-rule="nonzero" fill="rgb(36.078432%, 36.078432%, 36.078432%)" fill-opacity="1" stroke-width="0.095" stroke-linecap="butt" stroke-linejoin="miter" stroke="rgb(0%, 0%, 0%)" stroke-opacity="1" stroke-miterlimit="4" d="M 7.445413 2.368693 C 7.445413 2.578282 7.275745 2.747949 7.062829 2.747949 C 6.856566 2.747949 6.683572 2.578282 6.683572 2.368693 C 6.683572 2.159103 6.856566 1.986109 7.062829 1.986109 C 7.275745 1.986109 7.445413 2.159103 7.445413 2.368693 Z M 7.445413 2.368693 " transform="matrix(1.174171, 0, 0, 1.174171, 0, 0)"/>
<path fill-rule="nonzero" fill="rgb(100%, 100%, 0%)" fill-opacity="1" stroke-width="0.095" stroke-linecap="butt" stroke-linejoin="miter" stroke="rgb(0%, 0%, 0%)" stroke-opacity="1" stroke-miterlimit="4" d="M 11.996496 2.368693 C 11.996496 2.578282 11.826829 2.747949 11.617239 2.747949 C 11.40765 2.747949 11.234655 2.578282 11.234655 2.368693 C 11.234655 2.159103 11.40765 1.986109 11.617239 1.986109 C 11.826829 1.986109 11.996496 2.159103 11.996496 2.368693 Z M 11.996496 2.368693 " transform="matrix(1.174171, 0, 0, 1.174171, 0, 0)"/>
<path fill-rule="nonzero" fill="rgb(100%, 100%, 0%)" fill-opacity="1" stroke-width="0.095" stroke-linecap="butt" stroke-linejoin="miter" stroke="rgb(0%, 0%, 0%)" stroke-opacity="1" stroke-miterlimit="4" d="M 11.996496 3.513117 C 11.996496 3.722706 11.826829 3.892374 11.617239 3.892374 C 11.40765 3.892374 11.234655 3.722706 11.234655 3.513117 C 11.234655 3.303528 11.40765 3.130533 11.617239 3.130533 C 11.826829 3.130533 11.996496 3.303528 11.996496 3.513117 Z M 11.996496 3.513117 " transform="matrix(1.174171, 0, 0, 1.174171, 0, 0)"/>
<path fill-rule="nonzero" fill="rgb(36.078432%, 36.078432%, 36.078432%)" fill-opacity="1" stroke-width="0.095" stroke-linecap="butt" stroke-linejoin="miter" stroke="rgb(0%, 0%, 0%)" stroke-opacity="1" stroke-miterlimit="4" d="M 9.720954 4.657541 C 9.720954 4.867131 9.551287 5.036798 9.341697 5.036798 C 9.128781 5.036798 8.962441 4.867131 8.962441 4.657541 C 8.962441 4.447952 9.128781 4.274958 9.341697 4.274958 C 9.551287 4.274958 9.720954 4.447952 9.720954 4.657541 Z M 9.720954 4.657541 " transform="matrix(1.174171, 0, 0, 1.174171, 0, 0)"/>
<path fill-rule="nonzero" fill="rgb(100%, 100%, 0%)" fill-opacity="1" stroke-width="0.095" stroke-linecap="butt" stroke-linejoin="miter" stroke="rgb(0%, 0%, 0%)" stroke-opacity="1" stroke-miterlimit="4" d="M 10.862052 4.657541 C 10.862052 4.867131 10.689058 5.036798 10.479468 5.036798 C 10.269879 5.036798 10.100211 4.867131 10.100211 4.657541 C 10.100211 4.447952 10.269879 4.274958 10.479468 4.274958 C 10.689058 4.274958 10.862052 4.447952 10.862052 4.657541 Z M 10.862052 4.657541 " transform="matrix(1.174171, 0, 0, 1.174171, 0, 0)"/>
<path fill-rule="nonzero" fill="rgb(36.078432%, 36.078432%, 36.078432%)" fill-opacity="1" stroke-width="0.095" stroke-linecap="butt" stroke-linejoin="miter" stroke="rgb(0%, 0%, 0%)" stroke-opacity="1" stroke-miterlimit="4" d="M 11.996496 5.798639 C 11.996496 6.011555 11.826829 6.181223 11.617239 6.181223 C 11.40765 6.181223 11.234655 6.011555 11.234655 5.798639 C 11.234655 5.592377 11.40765 5.419382 11.617239 5.419382 C 11.826829 5.419382 11.996496 5.592377 11.996496 5.798639 Z M 11.996496 5.798639 " transform="matrix(1.174171, 0, 0, 1.174171, 0, 0)"/>
<path fill-rule="nonzero" fill="rgb(36.078432%, 36.078432%, 36.078432%)" fill-opacity="1" stroke-width="0.095" stroke-linecap="butt" stroke-linejoin="miter" stroke="rgb(0%, 0%, 0%)" stroke-opacity="1" stroke-miterlimit="4" d="M 11.996496 6.943064 C 11.996496 7.15598 11.826829 7.325647 11.617239 7.325647 C 11.40765 7.325647 11.234655 7.15598 11.234655 6.943064 C 11.234655 6.736801 11.40765 6.563807 11.617239 6.563807 C 11.826829 6.563807 11.996496 6.736801 11.996496 6.943064 Z M 11.996496 6.943064 " transform="matrix(1.174171, 0, 0, 1.174171, 0, 0)"/>
<path fill-rule="nonzero" fill="rgb(36.078432%, 36.078432%, 36.078432%)" fill-opacity="1" stroke-width="0.095" stroke-linecap="butt" stroke-linejoin="miter" stroke="rgb(0%, 0%, 0%)" stroke-opacity="1" stroke-miterlimit="4" d="M 11.996496 8.087488 C 11.996496 8.300404 11.826829 8.470072 11.617239 8.470072 C 11.40765 8.470072 11.234655 8.300404 11.234655 8.087488 C 11.234655 7.881226 11.40765 7.711558 11.617239 7.711558 C 11.826829 7.711558 11.996496 7.881226 11.996496 8.087488 Z M 11.996496 8.087488 " transform="matrix(1.174171, 0, 0, 1.174171, 0, 0)"/>
<path fill-rule="nonzero" fill="rgb(36.078432%, 36.078432%, 36.078432%)" fill-opacity="1" stroke-width="0.095" stroke-linecap="butt" stroke-linejoin="miter" stroke="rgb(0%, 0%, 0%)" stroke-opacity="1" stroke-miterlimit="4" d="M 10.862052 9.231913 C 10.862052 9.444829 10.689058 9.617823 10.479468 9.617823 C 10.269879 9.617823 10.100211 9.444829 10.100211 9.231913 C 10.100211 9.02565 10.269879 8.855982 10.479468 8.855982 C 10.689058 8.855982 10.862052 9.02565 10.862052 9.231913 Z M 10.862052 9.231913 " transform="matrix(1.174171, 0, 0, 1.174171, 0, 0)"/>
<path fill-rule="nonzero" fill="rgb(36.078432%, 36.078432%, 36.078432%)" fill-opacity="1" stroke-width="0.095" stroke-linecap="butt" stroke-linejoin="miter" stroke="rgb(0%, 0%, 0%)" stroke-opacity="1" stroke-miterlimit="4" d="M 9.720954 9.231913 C 9.720954 9.444829 9.551287 9.617823 9.341697 9.617823 C 9.128781 9.617823 8.962441 9.444829 8.962441 9.231913 C 8.962441 9.02565 9.128781 8.855982 9.341697 8.855982 C 9.551287 8.855982 9.720954 9.02565 9.720954 9.231913 Z M 9.720954 9.231913 " transform="matrix(1.174171, 0, 0, 1.174171, 0, 0)"/>
<path fill-rule="nonzero" fill="rgb(36.078432%, 36.078432%, 36.078432%)" fill-opacity="1" stroke-width="0.095" stroke-linecap="butt" stroke-linejoin="miter" stroke="rgb(0%, 0%, 0%)" stroke-opacity="1" stroke-miterlimit="4" d="M 8.583184 9.231913 C 8.583184 9.444829 8.410189 9.617823 8.203927 9.617823 C 7.994337 9.617823 7.821343 9.444829 7.821343 9.231913 C 7.821343 9.02565 7.994337 8.855982 8.203927 8.855982 C 8.410189 8.855982 8.583184 9.02565 8.583184 9.231913 Z M 8.583184 9.231913 " transform="matrix(1.174171, 0, 0, 1.174171, 0, 0)"/>
<path fill-rule="nonzero" fill="rgb(100%, 100%, 0%)" fill-opacity="1" stroke-width="0.095" stroke-linecap="butt" stroke-linejoin="miter" stroke="rgb(0%, 0%, 0%)" stroke-opacity="1" stroke-miterlimit="4" d="M 7.445413 8.087488 C 7.445413 8.300404 7.275745 8.470072 7.062829 8.470072 C 6.856566 8.470072 6.683572 8.300404 6.683572 8.087488 C 6.683572 7.881226 6.856566 7.711558 7.062829 7.711558 C 7.275745 7.711558 7.445413 7.881226 7.445413 8.087488 Z M 7.445413 8.087488 " transform="matrix(1.174171, 0, 0, 1.174171, 0, 0)"/>
<path fill-rule="nonzero" fill="rgb(36.078432%, 36.078432%, 36.078432%)" fill-opacity="1" stroke-width="0.095" stroke-linecap="butt" stroke-linejoin="miter" stroke="rgb(0%, 0%, 0%)" stroke-opacity="1" stroke-miterlimit="4" d="M 7.445413 6.943064 C 7.445413 7.15598 7.275745 7.325647 7.062829 7.325647 C 6.856566 7.325647 6.683572 7.15598 6.683572 6.943064 C 6.683572 6.736801 6.856566 6.563807 7.062829 6.563807 C 7.275745 6.563807 7.445413 6.736801 7.445413 6.943064 Z M 7.445413 6.943064 " transform="matrix(1.174171, 0, 0, 1.174171, 0, 0)"/>
</svg>
