<?xml version="1.0" encoding="UTF-8"?>
<svg xmlns="http://www.w3.org/2000/svg" xmlns:xlink="http://www.w3.org/1999/xlink" width="10.190868" height="15" viewBox="0 0 10.190868 15">
<path fill-rule="nonzero" fill="rgb(100%, 84.705883%, 8.235294%)" fill-opacity="1" stroke-width="16" stroke-linecap="round" stroke-linejoin="round" stroke="rgb(100%, 100%, 100%)" stroke-opacity="1" stroke-miterlimit="4" d="M 123.267156 -99.276423 L 264.06585 -99.276423 L 264.06585 115.497172 L 123.267156 115.497172 Z M 123.267156 -99.276423 " transform="matrix(0.065003, 0, 0, 0.065003, -7.493209, 6.972801)"/>
<path fill-rule="nonzero" fill="rgb(0%, 0%, 0%)" fill-opacity="1" d="M 6.335938 2.824219 L 6.335938 5.160156 L 6.953125 5.160156 C 6.953125 4.972656 7.144531 4.917969 7.285156 4.917969 C 7.472656 4.917969 7.636719 5.03125 7.636719 5.203125 L 7.632812 6.121094 C 7.632812 6.394531 7.539062 6.621094 7.292969 6.621094 C 7.042969 6.621094 6.9375 6.449219 6.9375 6.121094 L 6.335938 6.121094 C 6.335938 6.707031 6.59375 7.238281 7.292969 7.238281 C 7.867188 7.238281 8.246094 6.835938 8.246094 6.339844 C 8.246094 5.953125 8.25 5.5625 8.246094 5.171875 C 8.234375 4.664062 7.910156 4.394531 7.539062 4.386719 C 7.339844 4.386719 7.101562 4.476562 6.953125 4.609375 L 6.953125 3.410156 L 8.246094 3.410156 L 8.246094 2.828125 L 6.832031 2.828125 L 6.832031 2.824219 Z M 6.335938 2.824219 "/>
<path fill-rule="nonzero" fill="rgb(0%, 0%, 0%)" fill-opacity="1" d="M 4.113281 5.992188 L 2.917969 6.808594 L 2.914062 5.230469 L 4.105469 4.40625 L 5.40625 4.40625 L 5.40625 12.761719 L 4.101562 12.761719 Z M 4.113281 5.992188 "/>
</svg>
