<?xml version="1.0" encoding="UTF-8"?>
<svg xmlns="http://www.w3.org/2000/svg" xmlns:xlink="http://www.w3.org/1999/xlink" width="10.87026" height="16" viewBox="0 0 10.87026 16">
<path fill-rule="nonzero" fill="rgb(100%, 84.705883%, 8.235294%)" fill-opacity="1" stroke-width="16" stroke-linecap="round" stroke-linejoin="round" stroke="rgb(100%, 100%, 100%)" stroke-opacity="1" stroke-miterlimit="4" d="M 123.27481 -99.269041 L 264.062408 -99.269041 L 264.062408 115.489792 L 123.27481 115.489792 Z M 123.27481 -99.269041 " transform="matrix(0.0693365, 0, 0, 0.0693365, -7.992756, 7.437655)"/>
<path fill-rule="nonzero" fill="rgb(0%, 0%, 0%)" fill-opacity="1" d="M 6.757812 3.011719 L 6.757812 5.503906 L 7.417969 5.503906 C 7.417969 5.304688 7.621094 5.246094 7.769531 5.246094 C 7.972656 5.246094 8.144531 5.367188 8.144531 5.550781 L 8.140625 6.527344 C 8.140625 6.820312 8.042969 7.0625 7.777344 7.0625 C 7.511719 7.0625 7.398438 6.878906 7.398438 6.527344 L 6.757812 6.527344 C 6.757812 7.152344 7.035156 7.722656 7.777344 7.722656 C 8.390625 7.722656 8.796875 7.292969 8.796875 6.761719 C 8.796875 6.351562 8.800781 5.933594 8.796875 5.515625 C 8.785156 4.976562 8.4375 4.6875 8.042969 4.679688 C 7.828125 4.679688 7.574219 4.773438 7.417969 4.917969 L 7.417969 3.636719 L 8.796875 3.636719 L 8.796875 3.015625 L 7.289062 3.015625 L 7.289062 3.011719 Z M 6.757812 3.011719 "/>
<path fill-rule="nonzero" fill="rgb(0%, 0%, 0%)" fill-opacity="1" d="M 4.316406 4.492188 C 3.128906 4.492188 2.136719 5.527344 2.046875 6.878906 L 3.195312 6.878906 C 3.292969 6.273438 3.757812 5.816406 4.316406 5.816406 C 4.945312 5.816406 5.453125 6.394531 5.453125 7.113281 C 5.453125 7.984375 4.933594 8.492188 4.320312 8.496094 L 3.804688 8.496094 L 3.804688 9.609375 L 4.320312 9.609375 C 4.933594 9.613281 5.453125 10.121094 5.453125 10.992188 C 5.453125 11.703125 4.945312 12.289062 4.316406 12.289062 C 3.757812 12.289062 3.292969 11.828125 3.195312 11.226562 L 2.046875 11.226562 C 2.136719 12.570312 3.128906 13.609375 4.316406 13.613281 C 5.574219 13.613281 6.597656 12.449219 6.597656 11.015625 C 6.597656 10.207031 6.269531 9.507812 5.757812 9.050781 C 6.269531 8.597656 6.597656 7.894531 6.597656 7.085938 C 6.597656 5.652344 5.574219 4.492188 4.316406 4.492188 Z M 4.316406 4.492188 "/>
</svg>
