<?xml version="1.0" encoding="UTF-8"?>
<svg xmlns="http://www.w3.org/2000/svg" xmlns:xlink="http://www.w3.org/1999/xlink" width="10.87026" height="16" viewBox="0 0 10.87026 16">
<path fill-rule="nonzero" fill="rgb(100%, 84.705883%, 8.235294%)" fill-opacity="1" stroke-width="16" stroke-linecap="round" stroke-linejoin="round" stroke="rgb(100%, 100%, 100%)" stroke-opacity="1" stroke-miterlimit="4" d="M -34.927327 -96.990291 L 105.860259 -96.990291 L 105.860259 117.768523 L -34.927327 117.768523 Z M -34.927327 -96.990291 " transform="matrix(0.0693365, 0, 0, 0.0693365, 2.976426, 7.279655)"/>
<path fill-rule="nonzero" fill="rgb(0%, 0%, 0%)" fill-opacity="1" d="M 4.320312 4.402344 C 3.246094 4.402344 2.171875 5.367188 2.171875 6.28125 L 2.171875 11.226562 C 2.171875 11.84375 2.8125 12.828125 4.28125 12.828125 C 5.46875 12.828125 6.394531 11.910156 6.394531 11.226562 L 6.394531 8.878906 C 6.394531 7.214844 4.324219 7.175781 3.597656 7.414062 L 3.597656 6.171875 C 3.597656 5.507812 5.1875 5.53125 5.1875 6.171875 L 6.472656 6.171875 C 6.472656 5.367188 5.398438 4.402344 4.320312 4.402344 Z M 4.238281 8.542969 C 4.609375 8.53125 4.996094 8.695312 4.996094 9.011719 L 4.996094 10.925781 C 4.996094 11.765625 3.613281 11.824219 3.613281 10.925781 L 3.613281 8.996094 C 3.613281 8.707031 3.917969 8.554688 4.238281 8.542969 Z M 4.238281 8.542969 "/>
<path fill-rule="nonzero" fill="rgb(0%, 0%, 0%)" fill-opacity="1" d="M 7.15625 3.011719 L 7.15625 5.503906 L 7.816406 5.503906 C 7.816406 5.304688 8.019531 5.246094 8.167969 5.246094 C 8.371094 5.246094 8.542969 5.367188 8.542969 5.550781 L 8.539062 6.527344 C 8.539062 6.820312 8.441406 7.0625 8.175781 7.0625 C 7.910156 7.0625 7.796875 6.878906 7.796875 6.527344 L 7.15625 6.527344 C 7.15625 7.152344 7.433594 7.722656 8.175781 7.722656 C 8.789062 7.722656 9.195312 7.292969 9.195312 6.761719 C 9.195312 6.351562 9.199219 5.933594 9.195312 5.515625 C 9.183594 4.976562 8.835938 4.6875 8.441406 4.679688 C 8.226562 4.679688 7.972656 4.773438 7.816406 4.917969 L 7.816406 3.636719 L 9.195312 3.636719 L 9.195312 3.015625 L 7.6875 3.015625 L 7.6875 3.011719 Z M 7.15625 3.011719 "/>
</svg>
