<?xml version="1.0" encoding="UTF-8"?>
<svg xmlns="http://www.w3.org/2000/svg" xmlns:xlink="http://www.w3.org/1999/xlink" width="10.87026" height="16" viewBox="0 0 10.87026 16">
<path fill-rule="nonzero" fill="rgb(100%, 84.705883%, 8.235294%)" fill-opacity="1" stroke-width="16" stroke-linecap="round" stroke-linejoin="round" stroke="rgb(100%, 100%, 100%)" stroke-opacity="1" stroke-miterlimit="4" d="M -34.927304 -96.990253 L 105.860218 -96.990253 L 105.860218 117.768464 L -34.927304 117.768464 Z M -34.927304 -96.990253 " transform="matrix(0.0693365, 0, 0, 0.0693365, 2.976426, 7.279655)"/>
<path fill-rule="nonzero" fill="rgb(0%, 0%, 0%)" fill-opacity="1" d="M 2.972656 3.164062 L 2.972656 3.175781 L 2.964844 3.175781 L 2.964844 4.449219 L 2.972656 4.449219 L 2.972656 8.382812 L 4.25 8.382812 L 4.25 8.335938 C 4.398438 7.820312 4.875 7.460938 5.417969 7.460938 C 6.066406 7.460938 6.605469 7.976562 6.632812 8.625 L 6.621094 10.390625 C 6.566406 11.027344 6.074219 11.515625 5.433594 11.515625 C 4.796875 11.515625 4.261719 11.023438 4.207031 10.386719 L 2.972656 10.386719 C 2.980469 11.742188 4.078125 12.835938 5.433594 12.835938 C 6.785156 12.835938 7.878906 11.75 7.894531 10.402344 L 7.898438 10.402344 L 7.898438 8.625 L 7.894531 8.625 C 7.898438 8.566406 7.898438 8.507812 7.902344 8.453125 C 7.902344 7.199219 6.882812 6.179688 5.628906 6.179688 C 5.113281 6.183594 4.632812 6.359375 4.25 6.648438 L 4.25 4.449219 L 7.703125 4.449219 L 7.703125 3.175781 L 4.25 3.175781 L 4.25 3.164062 Z M 2.972656 3.164062 "/>
</svg>
