<?xml version="1.0" encoding="UTF-8"?>
<svg xmlns="http://www.w3.org/2000/svg" xmlns:xlink="http://www.w3.org/1999/xlink" width="10.190868" height="15" viewBox="0 0 10.190868 15">
<path fill-rule="nonzero" fill="rgb(100%, 84.705883%, 8.235294%)" fill-opacity="1" stroke-width="16" stroke-linecap="round" stroke-linejoin="round" stroke="rgb(100%, 100%, 100%)" stroke-opacity="1" stroke-miterlimit="4" d="M -38.239931 -97.778912 L 102.558763 -97.778912 L 102.558763 116.994683 L -38.239931 116.994683 Z M -38.239931 -97.778912 " transform="matrix(0.065003, 0, 0, 0.065003, 2.790399, 6.824677)"/>
<path fill-rule="nonzero" fill="rgb(0%, 0%, 0%)" fill-opacity="1" d="M 7.828125 13.046875 L 1.890625 13.046875 L 1.890625 11.15625 L 5.917969 5.980469 C 7.828125 3.496094 3.242188 2.589844 3.242188 5.03125 L 3.242188 5.972656 L 1.742188 5.972656 C 1.742188 5.972656 1.742188 6.53125 1.742188 5.132812 C 1.742188 3.730469 2.378906 1.851562 4.996094 1.851562 C 7.613281 1.851562 8.890625 4.808594 7.367188 6.75 L 3.808594 11.167969 L 7.828125 11.167969 L 7.828125 13.046875 "/>
</svg>
