<?xml version="1.0" encoding="UTF-8"?>
<svg xmlns="http://www.w3.org/2000/svg" xmlns:xlink="http://www.w3.org/1999/xlink" width="10.190868" height="15" viewBox="0 0 10.190868 15">
<path fill-rule="nonzero" fill="rgb(100%, 84.705883%, 8.235294%)" fill-opacity="1" stroke-width="16" stroke-linecap="round" stroke-linejoin="round" stroke="rgb(100%, 100%, 100%)" stroke-opacity="1" stroke-miterlimit="4" d="M -34.934798 -97.778912 L 105.863896 -97.778912 L 105.863896 116.994683 L -34.934798 116.994683 Z M -34.934798 -97.778912 " transform="matrix(0.065003, 0, 0, 0.065003, 2.790399, 6.824677)"/>
<path fill-rule="nonzero" fill="rgb(0%, 0%, 0%)" fill-opacity="1" d="M 5.089844 2.136719 C 3.429688 2.140625 2.050781 3.347656 1.917969 4.917969 L 3.523438 4.917969 C 3.660156 4.214844 4.308594 3.679688 5.089844 3.679688 C 5.96875 3.679688 6.683594 4.359375 6.683594 5.191406 C 6.683594 6.203125 5.949219 6.796875 5.09375 6.800781 L 4.378906 6.800781 L 4.378906 8.097656 L 5.09375 8.097656 C 5.949219 8.101562 6.683594 8.695312 6.683594 9.707031 C 6.683594 10.539062 5.96875 11.21875 5.089844 11.21875 C 4.308594 11.21875 3.660156 10.683594 3.523438 9.980469 L 1.917969 9.980469 C 2.050781 11.550781 3.429688 12.757812 5.089844 12.761719 C 6.847656 12.761719 8.273438 11.40625 8.273438 9.738281 C 8.273438 8.796875 7.820312 7.980469 7.105469 7.449219 C 7.820312 6.917969 8.273438 6.101562 8.273438 5.160156 C 8.273438 3.492188 6.847656 2.136719 5.089844 2.136719 Z M 5.089844 2.136719 "/>
</svg>
