<?xml version="1.0" encoding="UTF-8"?>
<svg xmlns="http://www.w3.org/2000/svg" xmlns:xlink="http://www.w3.org/1999/xlink" width="10.87026" height="16" viewBox="0 0 10.87026 16">
<path fill-rule="nonzero" fill="rgb(100%, 84.705883%, 8.235294%)" fill-opacity="1" stroke-width="16" stroke-linecap="round" stroke-linejoin="round" stroke="rgb(100%, 100%, 100%)" stroke-opacity="1" stroke-miterlimit="4" d="M -38.251219 -97.778979 L 102.536303 -97.778979 L 102.536303 116.979738 L -38.251219 116.979738 Z M -38.251219 -97.778979 " transform="matrix(0.0693365, 0, 0, 0.0693365, 2.976426, 7.279655)"/>
<path fill-rule="nonzero" fill="rgb(0%, 0%, 0%)" fill-opacity="1" d="M 8.351562 13.917969 L 2.015625 13.917969 L 2.015625 11.898438 L 6.3125 6.378906 C 8.351562 3.730469 3.457031 2.761719 3.457031 5.367188 L 3.457031 6.371094 L 1.859375 6.371094 C 1.859375 6.371094 1.859375 6.964844 1.859375 5.476562 C 1.859375 3.980469 2.539062 1.976562 5.328125 1.976562 C 8.121094 1.976562 9.484375 5.128906 7.859375 7.199219 L 4.0625 11.914062 L 8.351562 11.914062 L 8.351562 13.917969 "/>
</svg>
