<?xml version="1.0" encoding="UTF-8"?>
<svg xmlns="http://www.w3.org/2000/svg" xmlns:xlink="http://www.w3.org/1999/xlink" width="10.87026" height="16" viewBox="0 0 10.87026 16">
<path fill-rule="nonzero" fill="rgb(100%, 84.705883%, 8.235294%)" fill-opacity="1" stroke-width="16" stroke-linecap="round" stroke-linejoin="round" stroke="rgb(100%, 100%, 100%)" stroke-opacity="1" stroke-miterlimit="4" d="M -34.927327 -96.990291 L 105.860259 -96.990291 L 105.860259 117.768523 L -34.927327 117.768523 Z M -34.927327 -96.990291 " transform="matrix(0.0693365, 0, 0, 0.0693365, 2.976426, 7.279655)"/>
<path fill-rule="nonzero" fill="rgb(0%, 0%, 0%)" fill-opacity="1" d="M 2.132812 4.488281 L 2.132812 4.5 L 2.125 4.5 L 2.125 5.597656 L 2.132812 5.597656 L 2.132812 8.992188 L 3.234375 8.992188 L 3.234375 8.953125 C 3.363281 8.511719 3.773438 8.199219 4.242188 8.199219 C 4.800781 8.199219 5.265625 8.644531 5.289062 9.203125 L 5.28125 10.726562 C 5.234375 11.277344 4.808594 11.699219 4.257812 11.699219 C 3.707031 11.699219 3.242188 11.273438 3.199219 10.722656 L 2.132812 10.722656 C 2.136719 11.890625 3.085938 12.835938 4.257812 12.835938 C 5.421875 12.835938 6.363281 11.898438 6.378906 10.738281 L 6.382812 10.738281 L 6.382812 9.203125 L 6.378906 9.203125 C 6.382812 9.152344 6.382812 9.101562 6.386719 9.054688 C 6.386719 7.972656 5.507812 7.09375 4.425781 7.09375 C 3.980469 7.09375 3.566406 7.246094 3.234375 7.496094 L 3.234375 5.597656 L 6.214844 5.597656 L 6.214844 4.5 L 3.234375 4.5 L 3.234375 4.488281 Z M 2.132812 4.488281 "/>
<path fill-rule="nonzero" fill="rgb(0%, 0%, 0%)" fill-opacity="1" d="M 6.851562 3.011719 L 6.851562 5.503906 L 7.511719 5.503906 C 7.511719 5.304688 7.714844 5.246094 7.863281 5.246094 C 8.066406 5.246094 8.238281 5.367188 8.238281 5.550781 L 8.234375 6.527344 C 8.234375 6.820312 8.136719 7.0625 7.871094 7.0625 C 7.605469 7.0625 7.492188 6.878906 7.492188 6.527344 L 6.851562 6.527344 C 6.851562 7.152344 7.128906 7.722656 7.871094 7.722656 C 8.484375 7.722656 8.890625 7.292969 8.890625 6.761719 C 8.890625 6.351562 8.894531 5.933594 8.890625 5.515625 C 8.878906 4.976562 8.53125 4.6875 8.136719 4.679688 C 7.921875 4.679688 7.667969 4.773438 7.511719 4.917969 L 7.511719 3.636719 L 8.890625 3.636719 L 8.890625 3.015625 L 7.382812 3.015625 L 7.382812 3.011719 Z M 6.851562 3.011719 "/>
</svg>
