<?xml version="1.0" encoding="UTF-8"?>
<svg xmlns="http://www.w3.org/2000/svg" xmlns:xlink="http://www.w3.org/1999/xlink" width="10.87026" height="16" viewBox="0 0 10.87026 16">
<path fill-rule="nonzero" fill="rgb(100%, 84.705883%, 8.235294%)" fill-opacity="1" stroke-width="16" stroke-linecap="round" stroke-linejoin="round" stroke="rgb(100%, 100%, 100%)" stroke-opacity="1" stroke-miterlimit="4" d="M -34.927327 -96.990291 L 105.860259 -96.990291 L 105.860259 117.768523 L -34.927327 117.768523 Z M -34.927327 -96.990291 " transform="matrix(0.0693365, 0, 0, 0.0693365, 2.976426, 7.279655)"/>
<path fill-rule="nonzero" fill="rgb(0%, 0%, 0%)" fill-opacity="1" d="M 4.816406 4.191406 L 1.988281 10.421875 L 1.988281 11.550781 L 5.382812 11.550781 L 5.382812 12.894531 L 6.519531 12.894531 L 6.519531 11.550781 L 7.1875 11.550781 L 7.1875 10.421875 L 6.519531 10.421875 L 6.519531 7.960938 L 5.382812 7.960938 L 5.382812 10.421875 L 3.296875 10.421875 L 6.121094 4.199219 Z M 4.816406 4.191406 "/>
<path fill-rule="nonzero" fill="rgb(0%, 0%, 0%)" fill-opacity="1" d="M 7.039062 3.011719 L 7.039062 5.503906 L 7.699219 5.503906 C 7.699219 5.304688 7.902344 5.246094 8.050781 5.246094 C 8.253906 5.246094 8.425781 5.367188 8.425781 5.550781 L 8.421875 6.527344 C 8.421875 6.820312 8.324219 7.0625 8.058594 7.0625 C 7.792969 7.0625 7.675781 6.878906 7.675781 6.527344 L 7.039062 6.527344 C 7.039062 7.152344 7.316406 7.722656 8.058594 7.722656 C 8.671875 7.722656 9.078125 7.292969 9.078125 6.761719 C 9.078125 6.351562 9.082031 5.933594 9.078125 5.515625 C 9.066406 4.976562 8.71875 4.6875 8.324219 4.679688 C 8.109375 4.679688 7.855469 4.773438 7.699219 4.917969 L 7.699219 3.636719 L 9.078125 3.636719 L 9.078125 3.015625 L 7.570312 3.015625 L 7.570312 3.011719 Z M 7.039062 3.011719 "/>
</svg>
