<?xml version="1.0" encoding="UTF-8"?>
<svg xmlns="http://www.w3.org/2000/svg" xmlns:xlink="http://www.w3.org/1999/xlink" width="10.190868" height="15" viewBox="0 0 10.190868 15">
<path fill-rule="nonzero" fill="rgb(100%, 84.705883%, 8.235294%)" fill-opacity="1" stroke-width="16" stroke-linecap="round" stroke-linejoin="round" stroke="rgb(100%, 100%, 100%)" stroke-opacity="1" stroke-miterlimit="4" d="M -34.934798 -96.997698 L 105.863896 -96.997698 L 105.863896 117.775896 L -34.934798 117.775896 Z M -34.934798 -96.997698 " transform="matrix(0.065003, 0, 0, 0.065003, 2.790399, 6.824677)"/>
<path fill-rule="nonzero" fill="rgb(0%, 0%, 0%)" fill-opacity="1" d="M 2.785156 2.964844 L 2.785156 2.976562 L 2.78125 2.976562 L 2.78125 4.171875 L 2.785156 4.171875 L 2.785156 7.859375 L 3.984375 7.859375 L 3.984375 7.816406 C 4.125 7.332031 4.570312 6.996094 5.078125 6.996094 C 5.6875 6.996094 6.191406 7.476562 6.21875 8.085938 L 6.207031 9.742188 C 6.15625 10.339844 5.695312 10.796875 5.09375 10.796875 C 4.496094 10.796875 3.996094 10.335938 3.945312 9.738281 L 2.785156 9.738281 C 2.792969 11.007812 3.824219 12.035156 5.09375 12.035156 C 6.359375 12.035156 7.386719 11.015625 7.402344 9.753906 L 7.40625 9.753906 L 7.40625 8.085938 L 7.402344 8.085938 C 7.40625 8.03125 7.40625 7.976562 7.410156 7.925781 C 7.410156 6.75 6.453125 5.792969 5.277344 5.792969 C 4.792969 5.796875 4.34375 5.960938 3.984375 6.234375 L 3.984375 4.171875 L 7.222656 4.171875 L 7.222656 2.976562 L 3.984375 2.976562 L 3.984375 2.964844 Z M 2.785156 2.964844 "/>
</svg>
