<?xml version="1.0" encoding="UTF-8"?>
<svg xmlns="http://www.w3.org/2000/svg" xmlns:xlink="http://www.w3.org/1999/xlink" width="10.87026" height="16" viewBox="0 0 10.87026 16">
<path fill-rule="nonzero" fill="rgb(100%, 84.705883%, 8.235294%)" fill-opacity="1" stroke-width="16" stroke-linecap="round" stroke-linejoin="round" stroke="rgb(100%, 100%, 100%)" stroke-opacity="1" stroke-miterlimit="4" d="M -34.927327 -97.779017 L 105.860259 -97.779017 L 105.860259 116.979797 L -34.927327 116.979797 Z M -34.927327 -97.779017 " transform="matrix(0.0693365, 0, 0, 0.0693365, 2.976426, 7.279655)"/>
<path fill-rule="nonzero" fill="rgb(0%, 0%, 0%)" fill-opacity="1" d="M 5.429688 2.277344 C 3.660156 2.285156 2.1875 3.570312 2.046875 5.246094 L 3.757812 5.246094 C 3.902344 4.496094 4.597656 3.925781 5.429688 3.925781 C 6.367188 3.925781 7.128906 4.648438 7.128906 5.539062 C 7.128906 6.617188 6.347656 7.25 5.433594 7.253906 L 4.671875 7.253906 L 4.671875 8.636719 L 5.433594 8.636719 C 6.347656 8.640625 7.128906 9.273438 7.128906 10.355469 C 7.128906 11.242188 6.367188 11.964844 5.429688 11.964844 C 4.597656 11.964844 3.902344 11.394531 3.757812 10.644531 L 2.046875 10.644531 C 2.1875 12.320312 3.660156 13.609375 5.429688 13.613281 C 7.304688 13.613281 8.824219 12.167969 8.824219 10.386719 C 8.824219 9.382812 8.339844 8.511719 7.578125 7.945312 C 8.339844 7.378906 8.824219 6.507812 8.824219 5.503906 C 8.824219 3.726562 7.304688 2.277344 5.429688 2.277344 Z M 5.429688 2.277344 "/>
</svg>
