<?xml version="1.0" encoding="UTF-8"?>
<svg xmlns="http://www.w3.org/2000/svg" xmlns:xlink="http://www.w3.org/1999/xlink" width="10.190868" height="15" viewBox="0 0 10.190868 15">
<path fill-rule="nonzero" fill="rgb(100%, 84.705883%, 8.235294%)" fill-opacity="1" stroke-width="16" stroke-linecap="round" stroke-linejoin="round" stroke="rgb(100%, 100%, 100%)" stroke-opacity="1" stroke-miterlimit="4" d="M -34.934798 -96.997698 L 105.863896 -96.997698 L 105.863896 117.775896 L -34.934798 117.775896 Z M -34.934798 -96.997698 " transform="matrix(0.065003, 0, 0, 0.065003, 2.790399, 6.824677)"/>
<path fill-rule="nonzero" fill="rgb(0%, 0%, 0%)" fill-opacity="1" d="M 5.054688 2.988281 C 3.902344 2.988281 2.75 4.023438 2.75 5.007812 L 2.75 10.308594 C 2.75 10.972656 3.4375 12.027344 5.011719 12.027344 C 6.289062 12.027344 7.28125 11.042969 7.28125 10.308594 L 7.28125 7.789062 C 7.28125 6.003906 5.058594 5.960938 4.28125 6.21875 L 4.28125 4.886719 C 4.28125 4.171875 5.988281 4.195312 5.988281 4.886719 L 7.363281 4.886719 C 7.363281 4.023438 6.210938 2.988281 5.054688 2.988281 Z M 4.96875 7.429688 C 5.363281 7.414062 5.78125 7.589844 5.78125 7.933594 L 5.78125 9.984375 C 5.78125 10.886719 4.296875 10.945312 4.296875 9.984375 L 4.296875 7.917969 C 4.296875 7.605469 4.625 7.445312 4.96875 7.429688 Z M 4.96875 7.429688 "/>
</svg>
