<?xml version="1.0" encoding="UTF-8"?>
<svg xmlns="http://www.w3.org/2000/svg" xmlns:xlink="http://www.w3.org/1999/xlink" width="10.87026" height="16" viewBox="0 0 10.87026 16">
<path fill-rule="nonzero" fill="rgb(100%, 84.705883%, 8.235294%)" fill-opacity="1" stroke-width="16" stroke-linecap="round" stroke-linejoin="round" stroke="rgb(100%, 100%, 100%)" stroke-opacity="1" stroke-miterlimit="4" d="M -34.927327 -96.990291 L 105.860259 -96.990291 L 105.860259 117.768523 L -34.927327 117.768523 Z M -34.927327 -96.990291 " transform="matrix(0.0693365, 0, 0, 0.0693365, 2.976426, 7.279655)"/>
<path fill-rule="nonzero" fill="rgb(0%, 0%, 0%)" fill-opacity="1" d="M 2.132812 5.09375 L 2.132812 7.238281 L 3.175781 7.238281 L 3.175781 6.140625 L 5.179688 6.140625 L 2.652344 12.804688 L 3.699219 12.8125 L 6.234375 6.140625 L 6.234375 5.101562 L 3.242188 5.101562 L 3.242188 5.09375 Z M 2.132812 5.09375 "/>
<path fill-rule="nonzero" fill="rgb(0%, 0%, 0%)" fill-opacity="1" d="M 6.757812 3.011719 L 6.757812 5.503906 L 7.417969 5.503906 C 7.417969 5.304688 7.621094 5.246094 7.769531 5.246094 C 7.972656 5.246094 8.144531 5.367188 8.144531 5.550781 L 8.140625 6.527344 C 8.140625 6.820312 8.042969 7.0625 7.777344 7.0625 C 7.511719 7.0625 7.398438 6.878906 7.398438 6.527344 L 6.757812 6.527344 C 6.757812 7.152344 7.035156 7.722656 7.777344 7.722656 C 8.390625 7.722656 8.796875 7.292969 8.796875 6.761719 C 8.796875 6.351562 8.800781 5.933594 8.796875 5.515625 C 8.785156 4.976562 8.4375 4.6875 8.042969 4.679688 C 7.828125 4.679688 7.574219 4.773438 7.417969 4.917969 L 7.417969 3.636719 L 8.796875 3.636719 L 8.796875 3.015625 L 7.289062 3.015625 L 7.289062 3.011719 Z M 6.757812 3.011719 "/>
</svg>
