<?xml version="1.0" encoding="UTF-8"?>
<svg xmlns="http://www.w3.org/2000/svg" xmlns:xlink="http://www.w3.org/1999/xlink" width="10.87026" height="16" viewBox="0 0 10.87026 16">
<path fill-rule="nonzero" fill="rgb(100%, 84.705883%, 8.235294%)" fill-opacity="1" stroke-width="16" stroke-linecap="round" stroke-linejoin="round" stroke="rgb(100%, 100%, 100%)" stroke-opacity="1" stroke-miterlimit="4" d="M -34.927304 -96.990253 L 105.860218 -96.990253 L 105.860218 117.768464 L -34.927304 117.768464 Z M -34.927304 -96.990253 " transform="matrix(0.0693365, 0, 0, 0.0693365, 2.976426, 7.279655)"/>
<path fill-rule="nonzero" fill="rgb(0%, 0%, 0%)" fill-opacity="1" d="M 5.390625 3.1875 C 4.164062 3.1875 2.933594 4.292969 2.933594 5.339844 L 2.933594 10.996094 C 2.933594 11.703125 3.667969 12.828125 5.347656 12.828125 C 6.707031 12.828125 7.765625 11.777344 7.765625 10.996094 L 7.765625 8.308594 C 7.765625 6.402344 5.394531 6.359375 4.566406 6.632812 L 4.566406 5.210938 C 4.566406 4.449219 6.386719 4.476562 6.386719 5.210938 L 7.855469 5.210938 C 7.855469 4.292969 6.625 3.1875 5.390625 3.1875 Z M 5.300781 7.925781 C 5.722656 7.910156 6.167969 8.097656 6.167969 8.460938 L 6.167969 10.648438 C 6.167969 11.613281 4.582031 11.675781 4.582031 10.648438 L 4.582031 8.445312 C 4.582031 8.113281 4.933594 7.941406 5.300781 7.925781 Z M 5.300781 7.925781 "/>
</svg>
