<?xml version="1.0" encoding="UTF-8"?>
<svg xmlns="http://www.w3.org/2000/svg" xmlns:xlink="http://www.w3.org/1999/xlink" width="10.87026" height="16" viewBox="0 0 10.87026 16">
<path fill-rule="nonzero" fill="rgb(100%, 84.705883%, 8.235294%)" fill-opacity="1" stroke-width="16" stroke-linecap="round" stroke-linejoin="round" stroke="rgb(100%, 100%, 100%)" stroke-opacity="1" stroke-miterlimit="4" d="M 123.274802 -99.269033 L 264.062388 -99.269033 L 264.062388 115.489782 L 123.274802 115.489782 Z M 123.274802 -99.269033 " transform="matrix(0.0693365, 0, 0, 0.0693365, -7.992756, 7.437655)"/>
<path fill-rule="nonzero" fill="rgb(0%, 0%, 0%)" fill-opacity="1" d="M 6.757812 3.011719 L 6.757812 5.503906 L 7.417969 5.503906 C 7.417969 5.304688 7.621094 5.246094 7.769531 5.246094 C 7.972656 5.246094 8.144531 5.367188 8.144531 5.550781 L 8.140625 6.527344 C 8.140625 6.820312 8.042969 7.0625 7.777344 7.0625 C 7.511719 7.0625 7.398438 6.878906 7.398438 6.527344 L 6.757812 6.527344 C 6.757812 7.152344 7.035156 7.722656 7.777344 7.722656 C 8.390625 7.722656 8.796875 7.292969 8.796875 6.761719 C 8.796875 6.351562 8.800781 5.933594 8.796875 5.515625 C 8.785156 4.976562 8.4375 4.6875 8.042969 4.679688 C 7.828125 4.679688 7.574219 4.773438 7.417969 4.917969 L 7.417969 3.636719 L 8.796875 3.636719 L 8.796875 3.015625 L 7.289062 3.015625 L 7.289062 3.011719 Z M 6.757812 3.011719 "/>
<path fill-rule="nonzero" fill="rgb(0%, 0%, 0%)" fill-opacity="1" d="M 3.898438 4.699219 C 2.972656 4.707031 2.042969 5.339844 2.042969 6.585938 L 2.027344 6.585938 L 2.027344 11.734375 L 2.042969 11.734375 C 2.0625 14.25 5.753906 14.222656 5.753906 11.734375 L 5.765625 11.734375 L 5.765625 6.585938 L 5.753906 6.585938 C 5.753906 5.320312 4.824219 4.695312 3.898438 4.699219 Z M 3.894531 5.820312 C 4.289062 5.816406 4.683594 6.070312 4.683594 6.585938 L 4.679688 6.585938 L 4.679688 11.734375 L 4.683594 11.734375 C 4.683594 12.746094 3.117188 12.746094 3.117188 11.710938 L 3.117188 6.585938 L 3.113281 6.585938 C 3.113281 6.082031 3.503906 5.824219 3.894531 5.820312 Z M 3.894531 5.820312 "/>
</svg>
