<?xml version="1.0" encoding="UTF-8"?>
<svg xmlns="http://www.w3.org/2000/svg" xmlns:xlink="http://www.w3.org/1999/xlink" width="13.216742" height="19" viewBox="0 0 13.216742 19">
<path fill-rule="nonzero" fill="rgb(54.901963%, 54.901963%, 54.901963%)" fill-opacity="1" stroke-width="0.19" stroke-linecap="butt" stroke-linejoin="miter" stroke="rgb(0%, 0%, 0%)" stroke-opacity="1" stroke-miterlimit="4" d="M 0.0934325 0.0934325 L 12.063569 0.0934325 L 12.063569 17.385627 L 0.0934325 17.385627 Z M 0.0934325 0.0934325 " transform="matrix(1.087015, 0, 0, 1.087015, 0, 0)"/>
<path fill-rule="nonzero" fill="rgb(100%, 100%, 100%)" fill-opacity="1" stroke-width="0.095" stroke-linecap="butt" stroke-linejoin="miter" stroke="rgb(0%, 0%, 0%)" stroke-opacity="1" stroke-miterlimit="4" d="M 4.186493 4.736308 C 4.186493 4.94114 4.014003 5.113631 3.801983 5.113631 C 3.593557 5.113631 3.424659 4.94114 3.424659 4.736308 C 3.424659 4.524288 3.593557 4.351797 3.801983 4.351797 C 4.014003 4.351797 4.186493 4.524288 4.186493 4.736308 Z M 4.186493 4.736308 " transform="matrix(1.087015, 0, 0, 1.087015, 0, 0)"/>
<path fill-rule="nonzero" fill="rgb(100%, 100%, 100%)" fill-opacity="1" stroke-width="0.095" stroke-linecap="butt" stroke-linejoin="miter" stroke="rgb(0%, 0%, 0%)" stroke-opacity="1" stroke-miterlimit="4" d="M 5.322057 4.736308 C 5.322057 4.94114 5.149567 5.113631 4.94114 5.113631 C 4.732714 5.113631 4.560223 4.94114 4.560223 4.736308 C 4.560223 4.524288 4.732714 4.351797 4.94114 4.351797 C 5.149567 4.351797 5.322057 4.524288 5.322057 4.736308 Z M 5.322057 4.736308 " transform="matrix(1.087015, 0, 0, 1.087015, 0, 0)"/>
<path fill-rule="nonzero" fill="rgb(100%, 100%, 100%)" fill-opacity="1" stroke-width="0.095" stroke-linecap="butt" stroke-linejoin="miter" stroke="rgb(0%, 0%, 0%)" stroke-opacity="1" stroke-miterlimit="4" d="M 8.735936 4.736308 C 8.735936 4.94114 8.563445 5.113631 8.355019 5.113631 C 8.146593 5.113631 7.974102 4.94114 7.974102 4.736308 C 7.974102 4.524288 8.146593 4.351797 8.355019 4.351797 C 8.563445 4.351797 8.735936 4.524288 8.735936 4.736308 Z M 8.735936 4.736308 " transform="matrix(1.087015, 0, 0, 1.087015, 0, 0)"/>
<path fill-rule="nonzero" fill="rgb(36.078432%, 36.078432%, 36.078432%)" fill-opacity="1" stroke-width="0.095" stroke-linecap="butt" stroke-linejoin="miter" stroke="rgb(0%, 0%, 0%)" stroke-opacity="1" stroke-miterlimit="4" d="M 5.322057 5.879059 C 5.322057 6.087485 5.149567 6.259976 4.94114 6.259976 C 4.732714 6.259976 4.560223 6.087485 4.560223 5.879059 C 4.560223 5.670632 4.732714 5.498142 4.94114 5.498142 C 5.149567 5.498142 5.322057 5.670632 5.322057 5.879059 Z M 5.322057 5.879059 " transform="matrix(1.087015, 0, 0, 1.087015, 0, 0)"/>
<path fill-rule="nonzero" fill="rgb(36.078432%, 36.078432%, 36.078432%)" fill-opacity="1" stroke-width="0.095" stroke-linecap="butt" stroke-linejoin="miter" stroke="rgb(0%, 0%, 0%)" stroke-opacity="1" stroke-miterlimit="4" d="M 6.457621 5.879059 C 6.457621 6.087485 6.288724 6.259976 6.080298 6.259976 C 5.868278 6.259976 5.699381 6.087485 5.699381 5.879059 C 5.699381 5.670632 5.868278 5.498142 6.080298 5.498142 C 6.288724 5.498142 6.457621 5.670632 6.457621 5.879059 Z M 6.457621 5.879059 " transform="matrix(1.087015, 0, 0, 1.087015, 0, 0)"/>
<path fill-rule="nonzero" fill="rgb(36.078432%, 36.078432%, 36.078432%)" fill-opacity="1" stroke-width="0.095" stroke-linecap="butt" stroke-linejoin="miter" stroke="rgb(0%, 0%, 0%)" stroke-opacity="1" stroke-miterlimit="4" d="M 7.600372 5.879059 C 7.600372 6.087485 7.427881 6.259976 7.215862 6.259976 C 7.007435 6.259976 6.838538 6.087485 6.838538 5.879059 C 6.838538 5.670632 7.007435 5.498142 7.215862 5.498142 C 7.427881 5.498142 7.600372 5.670632 7.600372 5.879059 Z M 7.600372 5.879059 " transform="matrix(1.087015, 0, 0, 1.087015, 0, 0)"/>
<path fill-rule="nonzero" fill="rgb(36.078432%, 36.078432%, 36.078432%)" fill-opacity="1" stroke-width="0.095" stroke-linecap="butt" stroke-linejoin="miter" stroke="rgb(0%, 0%, 0%)" stroke-opacity="1" stroke-miterlimit="4" d="M 4.186493 7.025403 C 4.186493 7.230236 4.014003 7.402727 3.801983 7.402727 C 3.593557 7.402727 3.424659 7.230236 3.424659 7.025403 C 3.424659 6.813383 3.593557 6.640893 3.801983 6.640893 C 4.014003 6.640893 4.186493 6.813383 4.186493 7.025403 Z M 4.186493 7.025403 " transform="matrix(1.087015, 0, 0, 1.087015, 0, 0)"/>
<path fill-rule="nonzero" fill="rgb(36.078432%, 36.078432%, 36.078432%)" fill-opacity="1" stroke-width="0.095" stroke-linecap="butt" stroke-linejoin="miter" stroke="rgb(0%, 0%, 0%)" stroke-opacity="1" stroke-miterlimit="4" d="M 5.322057 7.025403 C 5.322057 7.230236 5.149567 7.402727 4.94114 7.402727 C 4.732714 7.402727 4.560223 7.230236 4.560223 7.025403 C 4.560223 6.813383 4.732714 6.640893 4.94114 6.640893 C 5.149567 6.640893 5.322057 6.813383 5.322057 7.025403 Z M 5.322057 7.025403 " transform="matrix(1.087015, 0, 0, 1.087015, 0, 0)"/>
<path fill-rule="nonzero" fill="rgb(36.078432%, 36.078432%, 36.078432%)" fill-opacity="1" stroke-width="0.095" stroke-linecap="butt" stroke-linejoin="miter" stroke="rgb(0%, 0%, 0%)" stroke-opacity="1" stroke-miterlimit="4" d="M 6.457621 7.025403 C 6.457621 7.230236 6.288724 7.402727 6.080298 7.402727 C 5.868278 7.402727 5.699381 7.230236 5.699381 7.025403 C 5.699381 6.813383 5.868278 6.640893 6.080298 6.640893 C 6.288724 6.640893 6.457621 6.813383 6.457621 7.025403 Z M 6.457621 7.025403 " transform="matrix(1.087015, 0, 0, 1.087015, 0, 0)"/>
<path fill-rule="nonzero" fill="rgb(36.078432%, 36.078432%, 36.078432%)" fill-opacity="1" stroke-width="0.095" stroke-linecap="butt" stroke-linejoin="miter" stroke="rgb(0%, 0%, 0%)" stroke-opacity="1" stroke-miterlimit="4" d="M 7.600372 7.025403 C 7.600372 7.230236 7.427881 7.402727 7.215862 7.402727 C 7.007435 7.402727 6.838538 7.230236 6.838538 7.025403 C 6.838538 6.813383 7.007435 6.640893 7.215862 6.640893 C 7.427881 6.640893 7.600372 6.813383 7.600372 7.025403 Z M 7.600372 7.025403 " transform="matrix(1.087015, 0, 0, 1.087015, 0, 0)"/>
<path fill-rule="nonzero" fill="rgb(36.078432%, 36.078432%, 36.078432%)" fill-opacity="1" stroke-width="0.095" stroke-linecap="butt" stroke-linejoin="miter" stroke="rgb(0%, 0%, 0%)" stroke-opacity="1" stroke-miterlimit="4" d="M 8.735936 8.168154 C 8.735936 8.37658 8.563445 8.549071 8.355019 8.549071 C 8.146593 8.549071 7.974102 8.37658 7.974102 8.168154 C 7.974102 7.959728 8.146593 7.787237 8.355019 7.787237 C 8.563445 7.787237 8.735936 7.959728 8.735936 8.168154 Z M 8.735936 8.168154 " transform="matrix(1.087015, 0, 0, 1.087015, 0, 0)"/>
<path fill-rule="nonzero" fill="rgb(36.078432%, 36.078432%, 36.078432%)" fill-opacity="1" stroke-width="0.095" stroke-linecap="butt" stroke-linejoin="miter" stroke="rgb(0%, 0%, 0%)" stroke-opacity="1" stroke-miterlimit="4" d="M 5.322057 8.168154 C 5.322057 8.37658 5.149567 8.549071 4.94114 8.549071 C 4.732714 8.549071 4.560223 8.37658 4.560223 8.168154 C 4.560223 7.959728 4.732714 7.787237 4.94114 7.787237 C 5.149567 7.787237 5.322057 7.959728 5.322057 8.168154 Z M 5.322057 8.168154 " transform="matrix(1.087015, 0, 0, 1.087015, 0, 0)"/>
<path fill-rule="nonzero" fill="rgb(36.078432%, 36.078432%, 36.078432%)" fill-opacity="1" stroke-width="0.095" stroke-linecap="butt" stroke-linejoin="miter" stroke="rgb(0%, 0%, 0%)" stroke-opacity="1" stroke-miterlimit="4" d="M 4.186493 8.168154 C 4.186493 8.37658 4.014003 8.549071 3.801983 8.549071 C 3.593557 8.549071 3.424659 8.37658 3.424659 8.168154 C 3.424659 7.959728 3.593557 7.787237 3.801983 7.787237 C 4.014003 7.787237 4.186493 7.959728 4.186493 8.168154 Z M 4.186493 8.168154 " transform="matrix(1.087015, 0, 0, 1.087015, 0, 0)"/>
<path fill-rule="nonzero" fill="rgb(36.078432%, 36.078432%, 36.078432%)" fill-opacity="1" stroke-width="0.095" stroke-linecap="butt" stroke-linejoin="miter" stroke="rgb(0%, 0%, 0%)" stroke-opacity="1" stroke-miterlimit="4" d="M 7.600372 9.310905 C 7.600372 9.519331 7.427881 9.691822 7.215862 9.691822 C 7.007435 9.691822 6.838538 9.519331 6.838538 9.310905 C 6.838538 9.102479 7.007435 8.929988 7.215862 8.929988 C 7.427881 8.929988 7.600372 9.102479 7.600372 9.310905 Z M 7.600372 9.310905 " transform="matrix(1.087015, 0, 0, 1.087015, 0, 0)"/>
<path fill-rule="nonzero" fill="rgb(100%, 100%, 100%)" fill-opacity="1" stroke-width="0.095" stroke-linecap="butt" stroke-linejoin="miter" stroke="rgb(0%, 0%, 0%)" stroke-opacity="1" stroke-miterlimit="4" d="M 6.457621 9.310905 C 6.457621 9.519331 6.288724 9.691822 6.080298 9.691822 C 5.868278 9.691822 5.699381 9.519331 5.699381 9.310905 C 5.699381 9.102479 5.868278 8.929988 6.080298 8.929988 C 6.288724 8.929988 6.457621 9.102479 6.457621 9.310905 Z M 6.457621 9.310905 " transform="matrix(1.087015, 0, 0, 1.087015, 0, 0)"/>
<path fill-rule="nonzero" fill="rgb(36.078432%, 36.078432%, 36.078432%)" fill-opacity="1" stroke-width="0.095" stroke-linecap="butt" stroke-linejoin="miter" stroke="rgb(0%, 0%, 0%)" stroke-opacity="1" stroke-miterlimit="4" d="M 5.322057 9.310905 C 5.322057 9.519331 5.149567 9.691822 4.94114 9.691822 C 4.732714 9.691822 4.560223 9.519331 4.560223 9.310905 C 4.560223 9.102479 4.732714 8.929988 4.94114 8.929988 C 5.149567 8.929988 5.322057 9.102479 5.322057 9.310905 Z M 5.322057 9.310905 " transform="matrix(1.087015, 0, 0, 1.087015, 0, 0)"/>
<path fill-rule="nonzero" fill="rgb(36.078432%, 36.078432%, 36.078432%)" fill-opacity="1" stroke-width="0.095" stroke-linecap="butt" stroke-linejoin="miter" stroke="rgb(0%, 0%, 0%)" stroke-opacity="1" stroke-miterlimit="4" d="M 4.186493 9.310905 C 4.186493 9.519331 4.014003 9.691822 3.801983 9.691822 C 3.593557 9.691822 3.424659 9.519331 3.424659 9.310905 C 3.424659 9.102479 3.593557 8.929988 3.801983 8.929988 C 4.014003 8.929988 4.186493 9.102479 4.186493 9.310905 Z M 4.186493 9.310905 " transform="matrix(1.087015, 0, 0, 1.087015, 0, 0)"/>
<path fill-rule="nonzero" fill="rgb(100%, 100%, 100%)" fill-opacity="1" stroke-width="0.095" stroke-linecap="butt" stroke-linejoin="miter" stroke="rgb(0%, 0%, 0%)" stroke-opacity="1" stroke-miterlimit="4" d="M 5.322057 10.453656 C 5.322057 10.665676 5.149567 10.838167 4.94114 10.838167 C 4.732714 10.838167 4.560223 10.665676 4.560223 10.453656 C 4.560223 10.248823 4.732714 10.076333 4.94114 10.076333 C 5.149567 10.076333 5.322057 10.248823 5.322057 10.453656 Z M 5.322057 10.453656 " transform="matrix(1.087015, 0, 0, 1.087015, 0, 0)"/>
<path fill-rule="nonzero" fill="rgb(36.078432%, 36.078432%, 36.078432%)" fill-opacity="1" stroke-width="0.095" stroke-linecap="butt" stroke-linejoin="miter" stroke="rgb(0%, 0%, 0%)" stroke-opacity="1" stroke-miterlimit="4" d="M 6.457621 10.453656 C 6.457621 10.665676 6.288724 10.838167 6.080298 10.838167 C 5.868278 10.838167 5.699381 10.665676 5.699381 10.453656 C 5.699381 10.248823 5.868278 10.076333 6.080298 10.076333 C 6.288724 10.076333 6.457621 10.248823 6.457621 10.453656 Z M 6.457621 10.453656 " transform="matrix(1.087015, 0, 0, 1.087015, 0, 0)"/>
<path fill-rule="nonzero" fill="rgb(36.078432%, 36.078432%, 36.078432%)" fill-opacity="1" stroke-width="0.095" stroke-linecap="butt" stroke-linejoin="miter" stroke="rgb(0%, 0%, 0%)" stroke-opacity="1" stroke-miterlimit="4" d="M 7.600372 10.453656 C 7.600372 10.665676 7.427881 10.838167 7.215862 10.838167 C 7.007435 10.838167 6.838538 10.665676 6.838538 10.453656 C 6.838538 10.248823 7.007435 10.076333 7.215862 10.076333 C 7.427881 10.076333 7.600372 10.248823 7.600372 10.453656 Z M 7.600372 10.453656 " transform="matrix(1.087015, 0, 0, 1.087015, 0, 0)"/>
<path fill-rule="nonzero" fill="rgb(36.078432%, 36.078432%, 36.078432%)" fill-opacity="1" stroke-width="0.095" stroke-linecap="butt" stroke-linejoin="miter" stroke="rgb(0%, 0%, 0%)" stroke-opacity="1" stroke-miterlimit="4" d="M 5.322057 11.600001 C 5.322057 11.808427 5.149567 11.980918 4.94114 11.980918 C 4.732714 11.980918 4.560223 11.808427 4.560223 11.600001 C 4.560223 11.391574 4.732714 11.219084 4.94114 11.219084 C 5.149567 11.219084 5.322057 11.391574 5.322057 11.600001 Z M 5.322057 11.600001 " transform="matrix(1.087015, 0, 0, 1.087015, 0, 0)"/>
<path fill-rule="nonzero" fill="rgb(36.078432%, 36.078432%, 36.078432%)" fill-opacity="1" stroke-width="0.095" stroke-linecap="butt" stroke-linejoin="miter" stroke="rgb(0%, 0%, 0%)" stroke-opacity="1" stroke-miterlimit="4" d="M 6.457621 11.600001 C 6.457621 11.808427 6.288724 11.980918 6.080298 11.980918 C 5.868278 11.980918 5.699381 11.808427 5.699381 11.600001 C 5.699381 11.391574 5.868278 11.219084 6.080298 11.219084 C 6.288724 11.219084 6.457621 11.391574 6.457621 11.600001 Z M 6.457621 11.600001 " transform="matrix(1.087015, 0, 0, 1.087015, 0, 0)"/>
<path fill-rule="nonzero" fill="rgb(36.078432%, 36.078432%, 36.078432%)" fill-opacity="1" stroke-width="0.095" stroke-linecap="butt" stroke-linejoin="miter" stroke="rgb(0%, 0%, 0%)" stroke-opacity="1" stroke-miterlimit="4" d="M 7.600372 11.600001 C 7.600372 11.808427 7.427881 11.980918 7.215862 11.980918 C 7.007435 11.980918 6.838538 11.808427 6.838538 11.600001 C 6.838538 11.391574 7.007435 11.219084 7.215862 11.219084 C 7.427881 11.219084 7.600372 11.391574 7.600372 11.600001 Z M 7.600372 11.600001 " transform="matrix(1.087015, 0, 0, 1.087015, 0, 0)"/>
<path fill-rule="nonzero" fill="rgb(100%, 100%, 100%)" fill-opacity="1" stroke-width="0.095" stroke-linecap="butt" stroke-linejoin="miter" stroke="rgb(0%, 0%, 0%)" stroke-opacity="1" stroke-miterlimit="4" d="M 4.186493 12.742752 C 4.186493 12.954771 4.014003 13.127262 3.801983 13.127262 C 3.593557 13.127262 3.424659 12.954771 3.424659 12.742752 C 3.424659 12.537919 3.593557 12.365428 3.801983 12.365428 C 4.014003 12.365428 4.186493 12.537919 4.186493 12.742752 Z M 4.186493 12.742752 " transform="matrix(1.087015, 0, 0, 1.087015, 0, 0)"/>
<path fill-rule="nonzero" fill="rgb(36.078432%, 36.078432%, 36.078432%)" fill-opacity="1" stroke-width="0.095" stroke-linecap="butt" stroke-linejoin="miter" stroke="rgb(0%, 0%, 0%)" stroke-opacity="1" stroke-miterlimit="4" d="M 8.735936 12.742752 C 8.735936 12.954771 8.563445 13.127262 8.355019 13.127262 C 8.146593 13.127262 7.974102 12.954771 7.974102 12.742752 C 7.974102 12.537919 8.146593 12.365428 8.355019 12.365428 C 8.563445 12.365428 8.735936 12.537919 8.735936 12.742752 Z M 8.735936 12.742752 " transform="matrix(1.087015, 0, 0, 1.087015, 0, 0)"/>
<path fill-rule="nonzero" fill="rgb(100%, 100%, 100%)" fill-opacity="1" stroke-width="0.095" stroke-linecap="butt" stroke-linejoin="miter" stroke="rgb(0%, 0%, 0%)" stroke-opacity="1" stroke-miterlimit="4" d="M 6.457621 4.736308 C 6.457621 4.94114 6.288724 5.113631 6.080298 5.113631 C 5.868278 5.113631 5.699381 4.94114 5.699381 4.736308 C 5.699381 4.524288 5.868278 4.351797 6.080298 4.351797 C 6.288724 4.351797 6.457621 4.524288 6.457621 4.736308 Z M 6.457621 4.736308 " transform="matrix(1.087015, 0, 0, 1.087015, 0, 0)"/>
<path fill-rule="nonzero" fill="rgb(100%, 100%, 100%)" fill-opacity="1" stroke-width="0.095" stroke-linecap="butt" stroke-linejoin="miter" stroke="rgb(0%, 0%, 0%)" stroke-opacity="1" stroke-miterlimit="4" d="M 7.600372 4.736308 C 7.600372 4.94114 7.427881 5.113631 7.215862 5.113631 C 7.007435 5.113631 6.838538 4.94114 6.838538 4.736308 C 6.838538 4.524288 7.007435 4.351797 7.215862 4.351797 C 7.427881 4.351797 7.600372 4.524288 7.600372 4.736308 Z M 7.600372 4.736308 " transform="matrix(1.087015, 0, 0, 1.087015, 0, 0)"/>
<path fill-rule="nonzero" fill="rgb(36.078432%, 36.078432%, 36.078432%)" fill-opacity="1" stroke-width="0.095" stroke-linecap="butt" stroke-linejoin="miter" stroke="rgb(0%, 0%, 0%)" stroke-opacity="1" stroke-miterlimit="4" d="M 4.186493 5.879059 C 4.186493 6.087485 4.014003 6.259976 3.801983 6.259976 C 3.593557 6.259976 3.424659 6.087485 3.424659 5.879059 C 3.424659 5.670632 3.593557 5.498142 3.801983 5.498142 C 4.014003 5.498142 4.186493 5.670632 4.186493 5.879059 Z M 4.186493 5.879059 " transform="matrix(1.087015, 0, 0, 1.087015, 0, 0)"/>
<path fill-rule="nonzero" fill="rgb(100%, 100%, 100%)" fill-opacity="1" stroke-width="0.095" stroke-linecap="butt" stroke-linejoin="miter" stroke="rgb(0%, 0%, 0%)" stroke-opacity="1" stroke-miterlimit="4" d="M 8.735936 5.879059 C 8.735936 6.087485 8.563445 6.259976 8.355019 6.259976 C 8.146593 6.259976 7.974102 6.087485 7.974102 5.879059 C 7.974102 5.670632 8.146593 5.498142 8.355019 5.498142 C 8.563445 5.498142 8.735936 5.670632 8.735936 5.879059 Z M 8.735936 5.879059 " transform="matrix(1.087015, 0, 0, 1.087015, 0, 0)"/>
<path fill-rule="nonzero" fill="rgb(100%, 100%, 100%)" fill-opacity="1" stroke-width="0.095" stroke-linecap="butt" stroke-linejoin="miter" stroke="rgb(0%, 0%, 0%)" stroke-opacity="1" stroke-miterlimit="4" d="M 8.735936 7.025403 C 8.735936 7.230236 8.563445 7.402727 8.355019 7.402727 C 8.146593 7.402727 7.974102 7.230236 7.974102 7.025403 C 7.974102 6.813383 8.146593 6.640893 8.355019 6.640893 C 8.563445 6.640893 8.735936 6.813383 8.735936 7.025403 Z M 8.735936 7.025403 " transform="matrix(1.087015, 0, 0, 1.087015, 0, 0)"/>
<path fill-rule="nonzero" fill="rgb(36.078432%, 36.078432%, 36.078432%)" fill-opacity="1" stroke-width="0.095" stroke-linecap="butt" stroke-linejoin="miter" stroke="rgb(0%, 0%, 0%)" stroke-opacity="1" stroke-miterlimit="4" d="M 6.457621 8.168154 C 6.457621 8.37658 6.288724 8.549071 6.080298 8.549071 C 5.868278 8.549071 5.699381 8.37658 5.699381 8.168154 C 5.699381 7.959728 5.868278 7.787237 6.080298 7.787237 C 6.288724 7.787237 6.457621 7.959728 6.457621 8.168154 Z M 6.457621 8.168154 " transform="matrix(1.087015, 0, 0, 1.087015, 0, 0)"/>
<path fill-rule="nonzero" fill="rgb(100%, 100%, 100%)" fill-opacity="1" stroke-width="0.095" stroke-linecap="butt" stroke-linejoin="miter" stroke="rgb(0%, 0%, 0%)" stroke-opacity="1" stroke-miterlimit="4" d="M 7.600372 8.168154 C 7.600372 8.37658 7.427881 8.549071 7.215862 8.549071 C 7.007435 8.549071 6.838538 8.37658 6.838538 8.168154 C 6.838538 7.959728 7.007435 7.787237 7.215862 7.787237 C 7.427881 7.787237 7.600372 7.959728 7.600372 8.168154 Z M 7.600372 8.168154 " transform="matrix(1.087015, 0, 0, 1.087015, 0, 0)"/>
<path fill-rule="nonzero" fill="rgb(36.078432%, 36.078432%, 36.078432%)" fill-opacity="1" stroke-width="0.095" stroke-linecap="butt" stroke-linejoin="miter" stroke="rgb(0%, 0%, 0%)" stroke-opacity="1" stroke-miterlimit="4" d="M 8.735936 9.310905 C 8.735936 9.519331 8.563445 9.691822 8.355019 9.691822 C 8.146593 9.691822 7.974102 9.519331 7.974102 9.310905 C 7.974102 9.102479 8.146593 8.929988 8.355019 8.929988 C 8.563445 8.929988 8.735936 9.102479 8.735936 9.310905 Z M 8.735936 9.310905 " transform="matrix(1.087015, 0, 0, 1.087015, 0, 0)"/>
<path fill-rule="nonzero" fill="rgb(36.078432%, 36.078432%, 36.078432%)" fill-opacity="1" stroke-width="0.095" stroke-linecap="butt" stroke-linejoin="miter" stroke="rgb(0%, 0%, 0%)" stroke-opacity="1" stroke-miterlimit="4" d="M 8.735936 10.453656 C 8.735936 10.665676 8.563445 10.838167 8.355019 10.838167 C 8.146593 10.838167 7.974102 10.665676 7.974102 10.453656 C 7.974102 10.248823 8.146593 10.076333 8.355019 10.076333 C 8.563445 10.076333 8.735936 10.248823 8.735936 10.453656 Z M 8.735936 10.453656 " transform="matrix(1.087015, 0, 0, 1.087015, 0, 0)"/>
<path fill-rule="nonzero" fill="rgb(36.078432%, 36.078432%, 36.078432%)" fill-opacity="1" stroke-width="0.095" stroke-linecap="butt" stroke-linejoin="miter" stroke="rgb(0%, 0%, 0%)" stroke-opacity="1" stroke-miterlimit="4" d="M 8.735936 11.600001 C 8.735936 11.808427 8.563445 11.980918 8.355019 11.980918 C 8.146593 11.980918 7.974102 11.808427 7.974102 11.600001 C 7.974102 11.391574 8.146593 11.219084 8.355019 11.219084 C 8.563445 11.219084 8.735936 11.391574 8.735936 11.600001 Z M 8.735936 11.600001 " transform="matrix(1.087015, 0, 0, 1.087015, 0, 0)"/>
<path fill-rule="nonzero" fill="rgb(36.078432%, 36.078432%, 36.078432%)" fill-opacity="1" stroke-width="0.095" stroke-linecap="butt" stroke-linejoin="miter" stroke="rgb(0%, 0%, 0%)" stroke-opacity="1" stroke-miterlimit="4" d="M 7.600372 12.742752 C 7.600372 12.954771 7.427881 13.127262 7.215862 13.127262 C 7.007435 13.127262 6.838538 12.954771 6.838538 12.742752 C 6.838538 12.537919 7.007435 12.365428 7.215862 12.365428 C 7.427881 12.365428 7.600372 12.537919 7.600372 12.742752 Z M 7.600372 12.742752 " transform="matrix(1.087015, 0, 0, 1.087015, 0, 0)"/>
<path fill-rule="nonzero" fill="rgb(36.078432%, 36.078432%, 36.078432%)" fill-opacity="1" stroke-width="0.095" stroke-linecap="butt" stroke-linejoin="miter" stroke="rgb(0%, 0%, 0%)" stroke-opacity="1" stroke-miterlimit="4" d="M 6.457621 12.742752 C 6.457621 12.954771 6.288724 13.127262 6.080298 13.127262 C 5.868278 13.127262 5.699381 12.954771 5.699381 12.742752 C 5.699381 12.537919 5.868278 12.365428 6.080298 12.365428 C 6.288724 12.365428 6.457621 12.537919 6.457621 12.742752 Z M 6.457621 12.742752 " transform="matrix(1.087015, 0, 0, 1.087015, 0, 0)"/>
<path fill-rule="nonzero" fill="rgb(36.078432%, 36.078432%, 36.078432%)" fill-opacity="1" stroke-width="0.095" stroke-linecap="butt" stroke-linejoin="miter" stroke="rgb(0%, 0%, 0%)" stroke-opacity="1" stroke-miterlimit="4" d="M 5.322057 12.742752 C 5.322057 12.954771 5.149567 13.127262 4.94114 13.127262 C 4.732714 13.127262 4.560223 12.954771 4.560223 12.742752 C 4.560223 12.537919 4.732714 12.365428 4.94114 12.365428 C 5.149567 12.365428 5.322057 12.537919 5.322057 12.742752 Z M 5.322057 12.742752 " transform="matrix(1.087015, 0, 0, 1.087015, 0, 0)"/>
<path fill-rule="nonzero" fill="rgb(100%, 100%, 100%)" fill-opacity="1" stroke-width="0.095" stroke-linecap="butt" stroke-linejoin="miter" stroke="rgb(0%, 0%, 0%)" stroke-opacity="1" stroke-miterlimit="4" d="M 4.186493 11.600001 C 4.186493 11.808427 4.014003 11.980918 3.801983 11.980918 C 3.593557 11.980918 3.424659 11.808427 3.424659 11.600001 C 3.424659 11.391574 3.593557 11.219084 3.801983 11.219084 C 4.014003 11.219084 4.186493 11.391574 4.186493 11.600001 Z M 4.186493 11.600001 " transform="matrix(1.087015, 0, 0, 1.087015, 0, 0)"/>
<path fill-rule="nonzero" fill="rgb(36.078432%, 36.078432%, 36.078432%)" fill-opacity="1" stroke-width="0.095" stroke-linecap="butt" stroke-linejoin="miter" stroke="rgb(0%, 0%, 0%)" stroke-opacity="1" stroke-miterlimit="4" d="M 4.186493 10.453656 C 4.186493 10.665676 4.014003 10.838167 3.801983 10.838167 C 3.593557 10.838167 3.424659 10.665676 3.424659 10.453656 C 3.424659 10.248823 3.593557 10.076333 3.801983 10.076333 C 4.014003 10.076333 4.186493 10.248823 4.186493 10.453656 Z M 4.186493 10.453656 " transform="matrix(1.087015, 0, 0, 1.087015, 0, 0)"/>
</svg>
