<?xml version="1.0" encoding="UTF-8"?>
<svg xmlns="http://www.w3.org/2000/svg" xmlns:xlink="http://www.w3.org/1999/xlink" width="13.216742" height="19" viewBox="0 0 13.216742 19">
<path fill-rule="nonzero" fill="rgb(54.901963%, 54.901963%, 54.901963%)" fill-opacity="1" stroke-width="0.19" stroke-linecap="butt" stroke-linejoin="miter" stroke="rgb(0%, 0%, 0%)" stroke-opacity="1" stroke-miterlimit="4" d="M 0.0934325 0.0934325 L 12.063572 0.0934325 L 12.063572 17.385631 L 0.0934325 17.385631 Z M 0.0934325 0.0934325 " transform="matrix(1.087015, 0, 0, 1.087015, 0, 0)"/>
<path fill-rule="nonzero" fill="rgb(36.078432%, 36.078432%, 36.078432%)" fill-opacity="1" stroke-width="0.095" stroke-linecap="butt" stroke-linejoin="miter" stroke="rgb(0%, 0%, 0%)" stroke-opacity="1" stroke-miterlimit="4" d="M 4.186494 4.736309 C 4.186494 4.941141 4.014004 5.113632 3.801984 5.113632 C 3.593557 5.113632 3.42466 4.941141 3.42466 4.736309 C 3.42466 4.524289 3.593557 4.351798 3.801984 4.351798 C 4.014004 4.351798 4.186494 4.524289 4.186494 4.736309 Z M 4.186494 4.736309 " transform="matrix(1.087015, 0, 0, 1.087015, 0, 0)"/>
<path fill-rule="nonzero" fill="rgb(100%, 100%, 100%)" fill-opacity="1" stroke-width="0.095" stroke-linecap="butt" stroke-linejoin="miter" stroke="rgb(0%, 0%, 0%)" stroke-opacity="1" stroke-miterlimit="4" d="M 5.322058 4.736309 C 5.322058 4.941141 5.149568 5.113632 4.941141 5.113632 C 4.732715 5.113632 4.560224 4.941141 4.560224 4.736309 C 4.560224 4.524289 4.732715 4.351798 4.941141 4.351798 C 5.149568 4.351798 5.322058 4.524289 5.322058 4.736309 Z M 5.322058 4.736309 " transform="matrix(1.087015, 0, 0, 1.087015, 0, 0)"/>
<path fill-rule="nonzero" fill="rgb(36.078432%, 36.078432%, 36.078432%)" fill-opacity="1" stroke-width="0.095" stroke-linecap="butt" stroke-linejoin="miter" stroke="rgb(0%, 0%, 0%)" stroke-opacity="1" stroke-miterlimit="4" d="M 8.735938 4.736309 C 8.735938 4.941141 8.563447 5.113632 8.355021 5.113632 C 8.146595 5.113632 7.974104 4.941141 7.974104 4.736309 C 7.974104 4.524289 8.146595 4.351798 8.355021 4.351798 C 8.563447 4.351798 8.735938 4.524289 8.735938 4.736309 Z M 8.735938 4.736309 " transform="matrix(1.087015, 0, 0, 1.087015, 0, 0)"/>
<path fill-rule="nonzero" fill="rgb(36.078432%, 36.078432%, 36.078432%)" fill-opacity="1" stroke-width="0.095" stroke-linecap="butt" stroke-linejoin="miter" stroke="rgb(0%, 0%, 0%)" stroke-opacity="1" stroke-miterlimit="4" d="M 5.322058 5.87906 C 5.322058 6.087486 5.149568 6.259977 4.941141 6.259977 C 4.732715 6.259977 4.560224 6.087486 4.560224 5.87906 C 4.560224 5.670634 4.732715 5.498143 4.941141 5.498143 C 5.149568 5.498143 5.322058 5.670634 5.322058 5.87906 Z M 5.322058 5.87906 " transform="matrix(1.087015, 0, 0, 1.087015, 0, 0)"/>
<path fill-rule="nonzero" fill="rgb(36.078432%, 36.078432%, 36.078432%)" fill-opacity="1" stroke-width="0.095" stroke-linecap="butt" stroke-linejoin="miter" stroke="rgb(0%, 0%, 0%)" stroke-opacity="1" stroke-miterlimit="4" d="M 6.457623 5.87906 C 6.457623 6.087486 6.288725 6.259977 6.080299 6.259977 C 5.868279 6.259977 5.699382 6.087486 5.699382 5.87906 C 5.699382 5.670634 5.868279 5.498143 6.080299 5.498143 C 6.288725 5.498143 6.457623 5.670634 6.457623 5.87906 Z M 6.457623 5.87906 " transform="matrix(1.087015, 0, 0, 1.087015, 0, 0)"/>
<path fill-rule="nonzero" fill="rgb(36.078432%, 36.078432%, 36.078432%)" fill-opacity="1" stroke-width="0.095" stroke-linecap="butt" stroke-linejoin="miter" stroke="rgb(0%, 0%, 0%)" stroke-opacity="1" stroke-miterlimit="4" d="M 7.600374 5.87906 C 7.600374 6.087486 7.427883 6.259977 7.215863 6.259977 C 7.007437 6.259977 6.83854 6.087486 6.83854 5.87906 C 6.83854 5.670634 7.007437 5.498143 7.215863 5.498143 C 7.427883 5.498143 7.600374 5.670634 7.600374 5.87906 Z M 7.600374 5.87906 " transform="matrix(1.087015, 0, 0, 1.087015, 0, 0)"/>
<path fill-rule="nonzero" fill="rgb(100%, 100%, 100%)" fill-opacity="1" stroke-width="0.095" stroke-linecap="butt" stroke-linejoin="miter" stroke="rgb(0%, 0%, 0%)" stroke-opacity="1" stroke-miterlimit="4" d="M 4.186494 7.025405 C 4.186494 7.230237 4.014004 7.402728 3.801984 7.402728 C 3.593557 7.402728 3.42466 7.230237 3.42466 7.025405 C 3.42466 6.813385 3.593557 6.640894 3.801984 6.640894 C 4.014004 6.640894 4.186494 6.813385 4.186494 7.025405 Z M 4.186494 7.025405 " transform="matrix(1.087015, 0, 0, 1.087015, 0, 0)"/>
<path fill-rule="nonzero" fill="rgb(36.078432%, 36.078432%, 36.078432%)" fill-opacity="1" stroke-width="0.095" stroke-linecap="butt" stroke-linejoin="miter" stroke="rgb(0%, 0%, 0%)" stroke-opacity="1" stroke-miterlimit="4" d="M 5.322058 7.025405 C 5.322058 7.230237 5.149568 7.402728 4.941141 7.402728 C 4.732715 7.402728 4.560224 7.230237 4.560224 7.025405 C 4.560224 6.813385 4.732715 6.640894 4.941141 6.640894 C 5.149568 6.640894 5.322058 6.813385 5.322058 7.025405 Z M 5.322058 7.025405 " transform="matrix(1.087015, 0, 0, 1.087015, 0, 0)"/>
<path fill-rule="nonzero" fill="rgb(36.078432%, 36.078432%, 36.078432%)" fill-opacity="1" stroke-width="0.095" stroke-linecap="butt" stroke-linejoin="miter" stroke="rgb(0%, 0%, 0%)" stroke-opacity="1" stroke-miterlimit="4" d="M 6.457623 7.025405 C 6.457623 7.230237 6.288725 7.402728 6.080299 7.402728 C 5.868279 7.402728 5.699382 7.230237 5.699382 7.025405 C 5.699382 6.813385 5.868279 6.640894 6.080299 6.640894 C 6.288725 6.640894 6.457623 6.813385 6.457623 7.025405 Z M 6.457623 7.025405 " transform="matrix(1.087015, 0, 0, 1.087015, 0, 0)"/>
<path fill-rule="nonzero" fill="rgb(36.078432%, 36.078432%, 36.078432%)" fill-opacity="1" stroke-width="0.095" stroke-linecap="butt" stroke-linejoin="miter" stroke="rgb(0%, 0%, 0%)" stroke-opacity="1" stroke-miterlimit="4" d="M 7.600374 7.025405 C 7.600374 7.230237 7.427883 7.402728 7.215863 7.402728 C 7.007437 7.402728 6.83854 7.230237 6.83854 7.025405 C 6.83854 6.813385 7.007437 6.640894 7.215863 6.640894 C 7.427883 6.640894 7.600374 6.813385 7.600374 7.025405 Z M 7.600374 7.025405 " transform="matrix(1.087015, 0, 0, 1.087015, 0, 0)"/>
<path fill-rule="nonzero" fill="rgb(36.078432%, 36.078432%, 36.078432%)" fill-opacity="1" stroke-width="0.095" stroke-linecap="butt" stroke-linejoin="miter" stroke="rgb(0%, 0%, 0%)" stroke-opacity="1" stroke-miterlimit="4" d="M 8.735938 8.168156 C 8.735938 8.376582 8.563447 8.549073 8.355021 8.549073 C 8.146595 8.549073 7.974104 8.376582 7.974104 8.168156 C 7.974104 7.95973 8.146595 7.787239 8.355021 7.787239 C 8.563447 7.787239 8.735938 7.95973 8.735938 8.168156 Z M 8.735938 8.168156 " transform="matrix(1.087015, 0, 0, 1.087015, 0, 0)"/>
<path fill-rule="nonzero" fill="rgb(100%, 100%, 100%)" fill-opacity="1" stroke-width="0.095" stroke-linecap="butt" stroke-linejoin="miter" stroke="rgb(0%, 0%, 0%)" stroke-opacity="1" stroke-miterlimit="4" d="M 5.322058 8.168156 C 5.322058 8.376582 5.149568 8.549073 4.941141 8.549073 C 4.732715 8.549073 4.560224 8.376582 4.560224 8.168156 C 4.560224 7.95973 4.732715 7.787239 4.941141 7.787239 C 5.149568 7.787239 5.322058 7.95973 5.322058 8.168156 Z M 5.322058 8.168156 " transform="matrix(1.087015, 0, 0, 1.087015, 0, 0)"/>
<path fill-rule="nonzero" fill="rgb(100%, 100%, 100%)" fill-opacity="1" stroke-width="0.095" stroke-linecap="butt" stroke-linejoin="miter" stroke="rgb(0%, 0%, 0%)" stroke-opacity="1" stroke-miterlimit="4" d="M 4.186494 8.168156 C 4.186494 8.376582 4.014004 8.549073 3.801984 8.549073 C 3.593557 8.549073 3.42466 8.376582 3.42466 8.168156 C 3.42466 7.95973 3.593557 7.787239 3.801984 7.787239 C 4.014004 7.787239 4.186494 7.95973 4.186494 8.168156 Z M 4.186494 8.168156 " transform="matrix(1.087015, 0, 0, 1.087015, 0, 0)"/>
<path fill-rule="nonzero" fill="rgb(36.078432%, 36.078432%, 36.078432%)" fill-opacity="1" stroke-width="0.095" stroke-linecap="butt" stroke-linejoin="miter" stroke="rgb(0%, 0%, 0%)" stroke-opacity="1" stroke-miterlimit="4" d="M 7.600374 9.310907 C 7.600374 9.519333 7.427883 9.691824 7.215863 9.691824 C 7.007437 9.691824 6.83854 9.519333 6.83854 9.310907 C 6.83854 9.102481 7.007437 8.92999 7.215863 8.92999 C 7.427883 8.92999 7.600374 9.102481 7.600374 9.310907 Z M 7.600374 9.310907 " transform="matrix(1.087015, 0, 0, 1.087015, 0, 0)"/>
<path fill-rule="nonzero" fill="rgb(36.078432%, 36.078432%, 36.078432%)" fill-opacity="1" stroke-width="0.095" stroke-linecap="butt" stroke-linejoin="miter" stroke="rgb(0%, 0%, 0%)" stroke-opacity="1" stroke-miterlimit="4" d="M 6.457623 9.310907 C 6.457623 9.519333 6.288725 9.691824 6.080299 9.691824 C 5.868279 9.691824 5.699382 9.519333 5.699382 9.310907 C 5.699382 9.102481 5.868279 8.92999 6.080299 8.92999 C 6.288725 8.92999 6.457623 9.102481 6.457623 9.310907 Z M 6.457623 9.310907 " transform="matrix(1.087015, 0, 0, 1.087015, 0, 0)"/>
<path fill-rule="nonzero" fill="rgb(36.078432%, 36.078432%, 36.078432%)" fill-opacity="1" stroke-width="0.095" stroke-linecap="butt" stroke-linejoin="miter" stroke="rgb(0%, 0%, 0%)" stroke-opacity="1" stroke-miterlimit="4" d="M 5.322058 9.310907 C 5.322058 9.519333 5.149568 9.691824 4.941141 9.691824 C 4.732715 9.691824 4.560224 9.519333 4.560224 9.310907 C 4.560224 9.102481 4.732715 8.92999 4.941141 8.92999 C 5.149568 8.92999 5.322058 9.102481 5.322058 9.310907 Z M 5.322058 9.310907 " transform="matrix(1.087015, 0, 0, 1.087015, 0, 0)"/>
<path fill-rule="nonzero" fill="rgb(100%, 100%, 100%)" fill-opacity="1" stroke-width="0.095" stroke-linecap="butt" stroke-linejoin="miter" stroke="rgb(0%, 0%, 0%)" stroke-opacity="1" stroke-miterlimit="4" d="M 4.186494 9.310907 C 4.186494 9.519333 4.014004 9.691824 3.801984 9.691824 C 3.593557 9.691824 3.42466 9.519333 3.42466 9.310907 C 3.42466 9.102481 3.593557 8.92999 3.801984 8.92999 C 4.014004 8.92999 4.186494 9.102481 4.186494 9.310907 Z M 4.186494 9.310907 " transform="matrix(1.087015, 0, 0, 1.087015, 0, 0)"/>
<path fill-rule="nonzero" fill="rgb(36.078432%, 36.078432%, 36.078432%)" fill-opacity="1" stroke-width="0.095" stroke-linecap="butt" stroke-linejoin="miter" stroke="rgb(0%, 0%, 0%)" stroke-opacity="1" stroke-miterlimit="4" d="M 5.322058 10.453658 C 5.322058 10.665678 5.149568 10.838169 4.941141 10.838169 C 4.732715 10.838169 4.560224 10.665678 4.560224 10.453658 C 4.560224 10.248826 4.732715 10.076335 4.941141 10.076335 C 5.149568 10.076335 5.322058 10.248826 5.322058 10.453658 Z M 5.322058 10.453658 " transform="matrix(1.087015, 0, 0, 1.087015, 0, 0)"/>
<path fill-rule="nonzero" fill="rgb(36.078432%, 36.078432%, 36.078432%)" fill-opacity="1" stroke-width="0.095" stroke-linecap="butt" stroke-linejoin="miter" stroke="rgb(0%, 0%, 0%)" stroke-opacity="1" stroke-miterlimit="4" d="M 6.457623 10.453658 C 6.457623 10.665678 6.288725 10.838169 6.080299 10.838169 C 5.868279 10.838169 5.699382 10.665678 5.699382 10.453658 C 5.699382 10.248826 5.868279 10.076335 6.080299 10.076335 C 6.288725 10.076335 6.457623 10.248826 6.457623 10.453658 Z M 6.457623 10.453658 " transform="matrix(1.087015, 0, 0, 1.087015, 0, 0)"/>
<path fill-rule="nonzero" fill="rgb(36.078432%, 36.078432%, 36.078432%)" fill-opacity="1" stroke-width="0.095" stroke-linecap="butt" stroke-linejoin="miter" stroke="rgb(0%, 0%, 0%)" stroke-opacity="1" stroke-miterlimit="4" d="M 7.600374 10.453658 C 7.600374 10.665678 7.427883 10.838169 7.215863 10.838169 C 7.007437 10.838169 6.83854 10.665678 6.83854 10.453658 C 6.83854 10.248826 7.007437 10.076335 7.215863 10.076335 C 7.427883 10.076335 7.600374 10.248826 7.600374 10.453658 Z M 7.600374 10.453658 " transform="matrix(1.087015, 0, 0, 1.087015, 0, 0)"/>
<path fill-rule="nonzero" fill="rgb(36.078432%, 36.078432%, 36.078432%)" fill-opacity="1" stroke-width="0.095" stroke-linecap="butt" stroke-linejoin="miter" stroke="rgb(0%, 0%, 0%)" stroke-opacity="1" stroke-miterlimit="4" d="M 5.322058 11.600003 C 5.322058 11.80843 5.149568 11.98092 4.941141 11.98092 C 4.732715 11.98092 4.560224 11.80843 4.560224 11.600003 C 4.560224 11.391577 4.732715 11.219086 4.941141 11.219086 C 5.149568 11.219086 5.322058 11.391577 5.322058 11.600003 Z M 5.322058 11.600003 " transform="matrix(1.087015, 0, 0, 1.087015, 0, 0)"/>
<path fill-rule="nonzero" fill="rgb(36.078432%, 36.078432%, 36.078432%)" fill-opacity="1" stroke-width="0.095" stroke-linecap="butt" stroke-linejoin="miter" stroke="rgb(0%, 0%, 0%)" stroke-opacity="1" stroke-miterlimit="4" d="M 6.457623 11.600003 C 6.457623 11.80843 6.288725 11.98092 6.080299 11.98092 C 5.868279 11.98092 5.699382 11.80843 5.699382 11.600003 C 5.699382 11.391577 5.868279 11.219086 6.080299 11.219086 C 6.288725 11.219086 6.457623 11.391577 6.457623 11.600003 Z M 6.457623 11.600003 " transform="matrix(1.087015, 0, 0, 1.087015, 0, 0)"/>
<path fill-rule="nonzero" fill="rgb(36.078432%, 36.078432%, 36.078432%)" fill-opacity="1" stroke-width="0.095" stroke-linecap="butt" stroke-linejoin="miter" stroke="rgb(0%, 0%, 0%)" stroke-opacity="1" stroke-miterlimit="4" d="M 7.600374 11.600003 C 7.600374 11.80843 7.427883 11.98092 7.215863 11.98092 C 7.007437 11.98092 6.83854 11.80843 6.83854 11.600003 C 6.83854 11.391577 7.007437 11.219086 7.215863 11.219086 C 7.427883 11.219086 7.600374 11.391577 7.600374 11.600003 Z M 7.600374 11.600003 " transform="matrix(1.087015, 0, 0, 1.087015, 0, 0)"/>
<path fill-rule="nonzero" fill="rgb(36.078432%, 36.078432%, 36.078432%)" fill-opacity="1" stroke-width="0.095" stroke-linecap="butt" stroke-linejoin="miter" stroke="rgb(0%, 0%, 0%)" stroke-opacity="1" stroke-miterlimit="4" d="M 4.186494 12.742754 C 4.186494 12.954774 4.014004 13.127265 3.801984 13.127265 C 3.593557 13.127265 3.42466 12.954774 3.42466 12.742754 C 3.42466 12.537922 3.593557 12.365431 3.801984 12.365431 C 4.014004 12.365431 4.186494 12.537922 4.186494 12.742754 Z M 4.186494 12.742754 " transform="matrix(1.087015, 0, 0, 1.087015, 0, 0)"/>
<path fill-rule="nonzero" fill="rgb(36.078432%, 36.078432%, 36.078432%)" fill-opacity="1" stroke-width="0.095" stroke-linecap="butt" stroke-linejoin="miter" stroke="rgb(0%, 0%, 0%)" stroke-opacity="1" stroke-miterlimit="4" d="M 8.735938 12.742754 C 8.735938 12.954774 8.563447 13.127265 8.355021 13.127265 C 8.146595 13.127265 7.974104 12.954774 7.974104 12.742754 C 7.974104 12.537922 8.146595 12.365431 8.355021 12.365431 C 8.563447 12.365431 8.735938 12.537922 8.735938 12.742754 Z M 8.735938 12.742754 " transform="matrix(1.087015, 0, 0, 1.087015, 0, 0)"/>
<path fill-rule="nonzero" fill="rgb(100%, 100%, 100%)" fill-opacity="1" stroke-width="0.095" stroke-linecap="butt" stroke-linejoin="miter" stroke="rgb(0%, 0%, 0%)" stroke-opacity="1" stroke-miterlimit="4" d="M 6.457623 4.736309 C 6.457623 4.941141 6.288725 5.113632 6.080299 5.113632 C 5.868279 5.113632 5.699382 4.941141 5.699382 4.736309 C 5.699382 4.524289 5.868279 4.351798 6.080299 4.351798 C 6.288725 4.351798 6.457623 4.524289 6.457623 4.736309 Z M 6.457623 4.736309 " transform="matrix(1.087015, 0, 0, 1.087015, 0, 0)"/>
<path fill-rule="nonzero" fill="rgb(100%, 100%, 100%)" fill-opacity="1" stroke-width="0.095" stroke-linecap="butt" stroke-linejoin="miter" stroke="rgb(0%, 0%, 0%)" stroke-opacity="1" stroke-miterlimit="4" d="M 7.600374 4.736309 C 7.600374 4.941141 7.427883 5.113632 7.215863 5.113632 C 7.007437 5.113632 6.83854 4.941141 6.83854 4.736309 C 6.83854 4.524289 7.007437 4.351798 7.215863 4.351798 C 7.427883 4.351798 7.600374 4.524289 7.600374 4.736309 Z M 7.600374 4.736309 " transform="matrix(1.087015, 0, 0, 1.087015, 0, 0)"/>
<path fill-rule="nonzero" fill="rgb(100%, 100%, 100%)" fill-opacity="1" stroke-width="0.095" stroke-linecap="butt" stroke-linejoin="miter" stroke="rgb(0%, 0%, 0%)" stroke-opacity="1" stroke-miterlimit="4" d="M 4.186494 5.87906 C 4.186494 6.087486 4.014004 6.259977 3.801984 6.259977 C 3.593557 6.259977 3.42466 6.087486 3.42466 5.87906 C 3.42466 5.670634 3.593557 5.498143 3.801984 5.498143 C 4.014004 5.498143 4.186494 5.670634 4.186494 5.87906 Z M 4.186494 5.87906 " transform="matrix(1.087015, 0, 0, 1.087015, 0, 0)"/>
<path fill-rule="nonzero" fill="rgb(100%, 100%, 100%)" fill-opacity="1" stroke-width="0.095" stroke-linecap="butt" stroke-linejoin="miter" stroke="rgb(0%, 0%, 0%)" stroke-opacity="1" stroke-miterlimit="4" d="M 8.735938 5.87906 C 8.735938 6.087486 8.563447 6.259977 8.355021 6.259977 C 8.146595 6.259977 7.974104 6.087486 7.974104 5.87906 C 7.974104 5.670634 8.146595 5.498143 8.355021 5.498143 C 8.563447 5.498143 8.735938 5.670634 8.735938 5.87906 Z M 8.735938 5.87906 " transform="matrix(1.087015, 0, 0, 1.087015, 0, 0)"/>
<path fill-rule="nonzero" fill="rgb(36.078432%, 36.078432%, 36.078432%)" fill-opacity="1" stroke-width="0.095" stroke-linecap="butt" stroke-linejoin="miter" stroke="rgb(0%, 0%, 0%)" stroke-opacity="1" stroke-miterlimit="4" d="M 8.735938 7.025405 C 8.735938 7.230237 8.563447 7.402728 8.355021 7.402728 C 8.146595 7.402728 7.974104 7.230237 7.974104 7.025405 C 7.974104 6.813385 8.146595 6.640894 8.355021 6.640894 C 8.563447 6.640894 8.735938 6.813385 8.735938 7.025405 Z M 8.735938 7.025405 " transform="matrix(1.087015, 0, 0, 1.087015, 0, 0)"/>
<path fill-rule="nonzero" fill="rgb(100%, 100%, 100%)" fill-opacity="1" stroke-width="0.095" stroke-linecap="butt" stroke-linejoin="miter" stroke="rgb(0%, 0%, 0%)" stroke-opacity="1" stroke-miterlimit="4" d="M 6.457623 8.168156 C 6.457623 8.376582 6.288725 8.549073 6.080299 8.549073 C 5.868279 8.549073 5.699382 8.376582 5.699382 8.168156 C 5.699382 7.95973 5.868279 7.787239 6.080299 7.787239 C 6.288725 7.787239 6.457623 7.95973 6.457623 8.168156 Z M 6.457623 8.168156 " transform="matrix(1.087015, 0, 0, 1.087015, 0, 0)"/>
<path fill-rule="nonzero" fill="rgb(100%, 100%, 100%)" fill-opacity="1" stroke-width="0.095" stroke-linecap="butt" stroke-linejoin="miter" stroke="rgb(0%, 0%, 0%)" stroke-opacity="1" stroke-miterlimit="4" d="M 7.600374 8.168156 C 7.600374 8.376582 7.427883 8.549073 7.215863 8.549073 C 7.007437 8.549073 6.83854 8.376582 6.83854 8.168156 C 6.83854 7.95973 7.007437 7.787239 7.215863 7.787239 C 7.427883 7.787239 7.600374 7.95973 7.600374 8.168156 Z M 7.600374 8.168156 " transform="matrix(1.087015, 0, 0, 1.087015, 0, 0)"/>
<path fill-rule="nonzero" fill="rgb(100%, 100%, 100%)" fill-opacity="1" stroke-width="0.095" stroke-linecap="butt" stroke-linejoin="miter" stroke="rgb(0%, 0%, 0%)" stroke-opacity="1" stroke-miterlimit="4" d="M 8.735938 9.310907 C 8.735938 9.519333 8.563447 9.691824 8.355021 9.691824 C 8.146595 9.691824 7.974104 9.519333 7.974104 9.310907 C 7.974104 9.102481 8.146595 8.92999 8.355021 8.92999 C 8.563447 8.92999 8.735938 9.102481 8.735938 9.310907 Z M 8.735938 9.310907 " transform="matrix(1.087015, 0, 0, 1.087015, 0, 0)"/>
<path fill-rule="nonzero" fill="rgb(100%, 100%, 100%)" fill-opacity="1" stroke-width="0.095" stroke-linecap="butt" stroke-linejoin="miter" stroke="rgb(0%, 0%, 0%)" stroke-opacity="1" stroke-miterlimit="4" d="M 8.735938 10.453658 C 8.735938 10.665678 8.563447 10.838169 8.355021 10.838169 C 8.146595 10.838169 7.974104 10.665678 7.974104 10.453658 C 7.974104 10.248826 8.146595 10.076335 8.355021 10.076335 C 8.563447 10.076335 8.735938 10.248826 8.735938 10.453658 Z M 8.735938 10.453658 " transform="matrix(1.087015, 0, 0, 1.087015, 0, 0)"/>
<path fill-rule="nonzero" fill="rgb(100%, 100%, 100%)" fill-opacity="1" stroke-width="0.095" stroke-linecap="butt" stroke-linejoin="miter" stroke="rgb(0%, 0%, 0%)" stroke-opacity="1" stroke-miterlimit="4" d="M 8.735938 11.600003 C 8.735938 11.80843 8.563447 11.98092 8.355021 11.98092 C 8.146595 11.98092 7.974104 11.80843 7.974104 11.600003 C 7.974104 11.391577 8.146595 11.219086 8.355021 11.219086 C 8.563447 11.219086 8.735938 11.391577 8.735938 11.600003 Z M 8.735938 11.600003 " transform="matrix(1.087015, 0, 0, 1.087015, 0, 0)"/>
<path fill-rule="nonzero" fill="rgb(100%, 100%, 100%)" fill-opacity="1" stroke-width="0.095" stroke-linecap="butt" stroke-linejoin="miter" stroke="rgb(0%, 0%, 0%)" stroke-opacity="1" stroke-miterlimit="4" d="M 7.600374 12.742754 C 7.600374 12.954774 7.427883 13.127265 7.215863 13.127265 C 7.007437 13.127265 6.83854 12.954774 6.83854 12.742754 C 6.83854 12.537922 7.007437 12.365431 7.215863 12.365431 C 7.427883 12.365431 7.600374 12.537922 7.600374 12.742754 Z M 7.600374 12.742754 " transform="matrix(1.087015, 0, 0, 1.087015, 0, 0)"/>
<path fill-rule="nonzero" fill="rgb(100%, 100%, 100%)" fill-opacity="1" stroke-width="0.095" stroke-linecap="butt" stroke-linejoin="miter" stroke="rgb(0%, 0%, 0%)" stroke-opacity="1" stroke-miterlimit="4" d="M 6.457623 12.742754 C 6.457623 12.954774 6.288725 13.127265 6.080299 13.127265 C 5.868279 13.127265 5.699382 12.954774 5.699382 12.742754 C 5.699382 12.537922 5.868279 12.365431 6.080299 12.365431 C 6.288725 12.365431 6.457623 12.537922 6.457623 12.742754 Z M 6.457623 12.742754 " transform="matrix(1.087015, 0, 0, 1.087015, 0, 0)"/>
<path fill-rule="nonzero" fill="rgb(100%, 100%, 100%)" fill-opacity="1" stroke-width="0.095" stroke-linecap="butt" stroke-linejoin="miter" stroke="rgb(0%, 0%, 0%)" stroke-opacity="1" stroke-miterlimit="4" d="M 5.322058 12.742754 C 5.322058 12.954774 5.149568 13.127265 4.941141 13.127265 C 4.732715 13.127265 4.560224 12.954774 4.560224 12.742754 C 4.560224 12.537922 4.732715 12.365431 4.941141 12.365431 C 5.149568 12.365431 5.322058 12.537922 5.322058 12.742754 Z M 5.322058 12.742754 " transform="matrix(1.087015, 0, 0, 1.087015, 0, 0)"/>
<path fill-rule="nonzero" fill="rgb(100%, 100%, 100%)" fill-opacity="1" stroke-width="0.095" stroke-linecap="butt" stroke-linejoin="miter" stroke="rgb(0%, 0%, 0%)" stroke-opacity="1" stroke-miterlimit="4" d="M 4.186494 11.600003 C 4.186494 11.80843 4.014004 11.98092 3.801984 11.98092 C 3.593557 11.98092 3.42466 11.80843 3.42466 11.600003 C 3.42466 11.391577 3.593557 11.219086 3.801984 11.219086 C 4.014004 11.219086 4.186494 11.391577 4.186494 11.600003 Z M 4.186494 11.600003 " transform="matrix(1.087015, 0, 0, 1.087015, 0, 0)"/>
<path fill-rule="nonzero" fill="rgb(100%, 100%, 100%)" fill-opacity="1" stroke-width="0.095" stroke-linecap="butt" stroke-linejoin="miter" stroke="rgb(0%, 0%, 0%)" stroke-opacity="1" stroke-miterlimit="4" d="M 4.186494 10.453658 C 4.186494 10.665678 4.014004 10.838169 3.801984 10.838169 C 3.593557 10.838169 3.42466 10.665678 3.42466 10.453658 C 3.42466 10.248826 3.593557 10.076335 3.801984 10.076335 C 4.014004 10.076335 4.186494 10.248826 4.186494 10.453658 Z M 4.186494 10.453658 " transform="matrix(1.087015, 0, 0, 1.087015, 0, 0)"/>
</svg>
