<?xml version="1.0" encoding="UTF-8"?>
<svg xmlns="http://www.w3.org/2000/svg" xmlns:xlink="http://www.w3.org/1999/xlink" width="10.190868" height="15" viewBox="0 0 10.190868 15">
<path fill-rule="nonzero" fill="rgb(100%, 100%, 100%)" fill-opacity="1" stroke-width="8.48" stroke-linecap="round" stroke-linejoin="round" stroke="rgb(0%, 0%, 0%)" stroke-opacity="1" stroke-miterlimit="4" d="M -39.501891 -101.144139 L 111.031923 -101.144139 L 111.031923 121.26131 L -39.501891 121.26131 Z M -39.501891 -101.144139 " transform="matrix(0.065003, 0, 0, 0.065003, 2.790399, 6.824677)"/>
<path fill-rule="nonzero" fill="rgb(0%, 0%, 0%)" fill-opacity="1" d="M 6.136719 12.433594 L 1.890625 12.433594 L 1.890625 11.214844 L 4.773438 6.867188 C 6.136719 4.78125 2.855469 4.019531 2.855469 6.070312 L 2.855469 6.863281 L 1.785156 6.863281 L 1.785156 6.15625 C 1.785156 4.980469 2.242188 3.859375 4.113281 3.859375 C 5.984375 3.859375 6.898438 5.882812 5.808594 7.515625 L 3.261719 11.222656 L 6.136719 11.222656 L 6.136719 12.433594 "/>
<path fill-rule="nonzero" fill="rgb(0%, 0%, 0%)" fill-opacity="1" d="M 6.539062 2.527344 L 6.539062 4.863281 L 7.15625 4.863281 C 7.15625 4.675781 7.34375 4.621094 7.488281 4.621094 C 7.675781 4.621094 7.839844 4.734375 7.839844 4.902344 L 7.832031 5.824219 C 7.832031 6.097656 7.742188 6.320312 7.496094 6.320312 C 7.246094 6.320312 7.140625 6.152344 7.140625 5.824219 L 6.539062 5.824219 C 6.539062 6.40625 6.796875 6.941406 7.496094 6.941406 C 8.070312 6.941406 8.449219 6.539062 8.449219 6.042969 C 8.449219 5.65625 8.453125 5.265625 8.449219 4.875 C 8.4375 4.367188 8.113281 4.09375 7.742188 4.085938 C 7.539062 4.085938 7.304688 4.179688 7.15625 4.3125 L 7.15625 3.113281 L 8.449219 3.113281 L 8.449219 2.53125 L 7.035156 2.53125 L 7.035156 2.527344 Z M 6.539062 2.527344 "/>
</svg>
