<?xml version="1.0" encoding="UTF-8"?>
<svg xmlns="http://www.w3.org/2000/svg" xmlns:xlink="http://www.w3.org/1999/xlink" width="10.87026" height="16" viewBox="0 0 10.87026 16">
<path fill-rule="nonzero" fill="rgb(100%, 100%, 100%)" fill-opacity="1" stroke-width="8.48" stroke-linecap="round" stroke-linejoin="round" stroke="rgb(0%, 0%, 0%)" stroke-opacity="1" stroke-miterlimit="4" d="M -39.490645 -101.159232 L 111.043272 -101.159232 L 111.043272 121.261392 L -39.490645 121.261392 Z M -39.490645 -101.159232 " transform="matrix(0.0693365, 0, 0, 0.0693365, 2.976426, 7.279655)"/>
<path fill-rule="nonzero" fill="rgb(0%, 0%, 0%)" fill-opacity="1" d="M 6.546875 13.261719 L 2.015625 13.261719 L 2.015625 11.960938 L 5.089844 7.324219 C 6.546875 5.101562 3.046875 4.289062 3.046875 6.476562 L 3.046875 7.320312 L 1.902344 7.320312 L 1.902344 6.566406 C 1.902344 5.3125 2.390625 4.117188 4.386719 4.117188 C 6.382812 4.117188 7.359375 6.273438 6.195312 8.015625 L 3.480469 11.972656 L 6.546875 11.972656 L 6.546875 13.261719 "/>
<path fill-rule="nonzero" fill="rgb(0%, 0%, 0%)" fill-opacity="1" d="M 6.976562 2.695312 L 6.976562 5.1875 L 7.632812 5.1875 C 7.632812 4.988281 7.832031 4.929688 7.988281 4.929688 C 8.1875 4.929688 8.363281 5.050781 8.363281 5.230469 L 8.355469 6.210938 C 8.355469 6.503906 8.257812 6.742188 7.996094 6.742188 C 7.730469 6.742188 7.617188 6.5625 7.617188 6.210938 L 6.976562 6.210938 C 6.976562 6.832031 7.25 7.402344 7.996094 7.402344 C 8.609375 7.402344 9.011719 6.976562 9.011719 6.445312 C 9.011719 6.035156 9.015625 5.617188 9.011719 5.199219 C 9 4.660156 8.652344 4.367188 8.257812 4.359375 C 8.042969 4.359375 7.792969 4.457031 7.632812 4.601562 L 7.632812 3.320312 L 9.011719 3.320312 L 9.011719 2.699219 L 7.503906 2.699219 L 7.503906 2.695312 Z M 6.976562 2.695312 "/>
</svg>
