<?xml version="1.0" encoding="UTF-8"?>
<svg xmlns="http://www.w3.org/2000/svg" xmlns:xlink="http://www.w3.org/1999/xlink" width="10.190868" height="15" viewBox="0 0 10.190868 15">
<path fill-rule="nonzero" fill="rgb(100%, 100%, 100%)" fill-opacity="1" stroke-width="8.48" stroke-linecap="round" stroke-linejoin="round" stroke="rgb(0%, 0%, 0%)" stroke-opacity="1" stroke-miterlimit="4" d="M -39.501891 -101.144139 L 111.031923 -101.144139 L 111.031923 121.26131 L -39.501891 121.26131 Z M -39.501891 -101.144139 " transform="matrix(0.065003, 0, 0, 0.065003, 2.790399, 6.824677)"/>
<path fill-rule="nonzero" fill="rgb(0%, 0%, 0%)" fill-opacity="1" d="M 8.0625 13.074219 L 2.125 13.074219 L 2.125 11.1875 L 6.15625 6.007812 C 8.0625 3.527344 3.476562 2.621094 3.476562 5.058594 L 3.476562 6.003906 L 1.976562 6.003906 C 1.976562 6.003906 1.976562 6.5625 1.976562 5.160156 C 1.976562 3.761719 2.617188 1.882812 5.230469 1.882812 C 7.847656 1.882812 9.125 4.835938 7.601562 6.78125 L 4.042969 11.195312 L 8.0625 11.195312 L 8.0625 13.074219 "/>
</svg>
