<?xml version="1.0" encoding="UTF-8"?>
<svg xmlns="http://www.w3.org/2000/svg" xmlns:xlink="http://www.w3.org/1999/xlink" width="10.87026" height="16" viewBox="0 0 10.87026 16">
<path fill-rule="nonzero" fill="rgb(100%, 100%, 100%)" fill-opacity="1" stroke-width="8.48" stroke-linecap="round" stroke-linejoin="round" stroke="rgb(0%, 0%, 0%)" stroke-opacity="1" stroke-miterlimit="4" d="M -39.490645 -101.159232 L 111.043272 -101.159232 L 111.043272 121.261392 L -39.490645 121.261392 Z M -39.490645 -101.159232 " transform="matrix(0.0693365, 0, 0, 0.0693365, 2.976426, 7.279655)"/>
<path fill-rule="nonzero" fill="rgb(0%, 0%, 0%)" fill-opacity="1" d="M 6.796875 2.679688 L 6.796875 5.171875 L 7.453125 5.171875 C 7.453125 4.972656 7.652344 4.914062 7.808594 4.914062 C 8.007812 4.914062 8.183594 5.035156 8.183594 5.210938 L 8.175781 6.195312 C 8.175781 6.488281 8.078125 6.726562 7.816406 6.726562 C 7.550781 6.726562 7.4375 6.546875 7.4375 6.195312 L 6.796875 6.195312 C 6.796875 6.816406 7.070312 7.386719 7.816406 7.386719 C 8.429688 7.386719 8.832031 6.957031 8.832031 6.429688 C 8.832031 6.015625 8.835938 5.601562 8.832031 5.183594 C 8.820312 4.640625 8.476562 4.355469 8.078125 4.339844 C 7.867188 4.339844 7.613281 4.441406 7.453125 4.582031 L 7.453125 3.304688 L 8.832031 3.304688 L 8.832031 2.683594 L 7.324219 2.683594 L 7.324219 2.679688 Z M 6.796875 2.679688 "/>
<path fill-rule="nonzero" fill="rgb(0%, 0%, 0%)" fill-opacity="1" d="M 4.355469 4.160156 C 3.167969 4.160156 2.175781 5.195312 2.078125 6.546875 L 3.234375 6.546875 C 3.328125 5.941406 3.796875 5.484375 4.355469 5.484375 C 4.984375 5.484375 5.492188 6.0625 5.492188 6.777344 C 5.492188 7.648438 4.964844 8.160156 4.359375 8.164062 L 3.839844 8.160156 L 3.839844 9.273438 L 4.359375 9.273438 C 4.964844 9.277344 5.492188 9.789062 5.492188 10.652344 C 5.492188 11.371094 4.984375 11.953125 4.355469 11.953125 C 3.796875 11.953125 3.328125 11.496094 3.234375 10.890625 L 2.078125 10.890625 C 2.175781 12.238281 3.167969 13.273438 4.355469 13.273438 C 5.613281 13.273438 6.632812 12.117188 6.632812 10.683594 C 6.632812 9.875 6.308594 9.175781 5.796875 8.714844 C 6.308594 8.261719 6.632812 7.5625 6.632812 6.75 C 6.632812 5.320312 5.613281 4.160156 4.355469 4.160156 Z M 4.355469 4.160156 "/>
</svg>
