<?xml version="1.0" encoding="UTF-8"?>
<svg xmlns="http://www.w3.org/2000/svg" xmlns:xlink="http://www.w3.org/1999/xlink" width="10.190868" height="15" viewBox="0 0 10.190868 15">
<path fill-rule="nonzero" fill="rgb(100%, 100%, 100%)" fill-opacity="1" stroke-width="8.48" stroke-linecap="round" stroke-linejoin="round" stroke="rgb(0%, 0%, 0%)" stroke-opacity="1" stroke-miterlimit="4" d="M -39.501891 -101.144139 L 111.031923 -101.144139 L 111.031923 121.26131 L -39.501891 121.26131 Z M -39.501891 -101.144139 " transform="matrix(0.065003, 0, 0, 0.065003, 2.790399, 6.824677)"/>
<path fill-rule="nonzero" fill="rgb(0%, 0%, 0%)" fill-opacity="1" d="M 5.109375 2.167969 C 3.453125 2.167969 2.070312 3.378906 1.9375 4.945312 L 3.546875 4.945312 C 3.683594 4.242188 4.332031 3.710938 5.109375 3.710938 C 5.992188 3.710938 6.703125 4.386719 6.703125 5.222656 C 6.703125 6.234375 5.972656 6.828125 5.117188 6.828125 L 4.398438 6.828125 L 4.398438 8.128906 L 5.117188 8.128906 C 5.972656 8.128906 6.703125 8.722656 6.703125 9.734375 C 6.703125 10.570312 5.992188 11.246094 5.109375 11.246094 C 4.332031 11.246094 3.683594 10.714844 3.546875 10.011719 L 1.9375 10.011719 C 2.070312 11.578125 3.453125 12.789062 5.109375 12.789062 C 6.871094 12.789062 8.296875 11.4375 8.296875 9.769531 C 8.296875 8.824219 7.839844 8.007812 7.128906 7.480469 C 7.839844 6.949219 8.296875 6.132812 8.296875 5.1875 C 8.296875 3.519531 6.871094 2.167969 5.109375 2.167969 Z M 5.109375 2.167969 "/>
</svg>
