<?xml version="1.0" encoding="UTF-8"?>
<svg xmlns="http://www.w3.org/2000/svg" xmlns:xlink="http://www.w3.org/1999/xlink" width="10.190868" height="15" viewBox="0 0 10.190868 15">
<path fill-rule="nonzero" fill="rgb(100%, 100%, 100%)" fill-opacity="1" stroke-width="8.48" stroke-linecap="round" stroke-linejoin="round" stroke="rgb(0%, 0%, 0%)" stroke-opacity="1" stroke-miterlimit="4" d="M -39.501891 -101.144139 L 111.031923 -101.144139 L 111.031923 121.26131 L -39.501891 121.26131 Z M -39.501891 -101.144139 " transform="matrix(0.065003, 0, 0, 0.065003, 2.790399, 6.824677)"/>
<path fill-rule="nonzero" fill="rgb(0%, 0%, 0%)" fill-opacity="1" d="M 6.371094 2.511719 L 6.371094 4.847656 L 6.988281 4.847656 C 6.988281 4.660156 7.175781 4.605469 7.320312 4.605469 C 7.507812 4.605469 7.671875 4.71875 7.671875 4.886719 L 7.664062 5.808594 C 7.664062 6.082031 7.574219 6.304688 7.328125 6.304688 C 7.078125 6.304688 6.972656 6.136719 6.972656 5.808594 L 6.371094 5.808594 C 6.371094 6.390625 6.628906 6.925781 7.328125 6.925781 C 7.902344 6.925781 8.28125 6.523438 8.28125 6.027344 C 8.28125 5.640625 8.285156 5.25 8.28125 4.859375 C 8.269531 4.351562 7.945312 4.082031 7.574219 4.070312 C 7.375 4.070312 7.136719 4.164062 6.988281 4.296875 L 6.988281 3.097656 L 8.28125 3.097656 L 8.28125 2.515625 L 6.867188 2.515625 L 6.867188 2.511719 Z M 6.371094 2.511719 "/>
<path fill-rule="nonzero" fill="rgb(0%, 0%, 0%)" fill-opacity="1" d="M 4.082031 3.898438 C 2.96875 3.898438 2.039062 4.871094 1.949219 6.136719 L 3.03125 6.136719 C 3.121094 5.570312 3.558594 5.140625 4.082031 5.140625 C 4.671875 5.140625 5.148438 5.683594 5.148438 6.355469 C 5.148438 7.171875 4.65625 7.648438 4.085938 7.652344 L 3.601562 7.648438 L 3.601562 8.695312 L 4.085938 8.695312 C 4.65625 8.699219 5.148438 9.175781 5.148438 9.988281 C 5.148438 10.660156 4.671875 11.207031 4.082031 11.207031 C 3.558594 11.207031 3.121094 10.777344 3.03125 10.210938 L 1.949219 10.210938 C 2.039062 11.472656 2.96875 12.445312 4.082031 12.445312 C 5.261719 12.445312 6.21875 11.359375 6.21875 10.015625 C 6.21875 9.257812 5.914062 8.601562 5.433594 8.171875 C 5.914062 7.746094 6.21875 7.089844 6.21875 6.328125 C 6.21875 4.988281 5.261719 3.898438 4.082031 3.898438 Z M 4.082031 3.898438 "/>
</svg>
