<?xml version="1.0" encoding="UTF-8"?>
<svg xmlns="http://www.w3.org/2000/svg" xmlns:xlink="http://www.w3.org/1999/xlink" width="10.87026" height="16" viewBox="0 0 10.87026 16">
<path fill-rule="nonzero" fill="rgb(100%, 100%, 100%)" fill-opacity="1" stroke-width="8.48" stroke-linecap="round" stroke-linejoin="round" stroke="rgb(0%, 0%, 0%)" stroke-opacity="1" stroke-miterlimit="4" d="M -39.490645 -101.159232 L 111.043272 -101.159232 L 111.043272 121.261392 L -39.490645 121.261392 Z M -39.490645 -101.159232 " transform="matrix(0.0693365, 0, 0, 0.0693365, 2.976426, 7.279655)"/>
<path fill-rule="nonzero" fill="rgb(0%, 0%, 0%)" fill-opacity="1" d="M 5.449219 2.3125 C 3.683594 2.3125 2.207031 3.605469 2.066406 5.273438 L 3.785156 5.273438 C 3.929688 4.523438 4.621094 3.957031 5.449219 3.957031 C 6.390625 3.957031 7.148438 4.679688 7.148438 5.570312 C 7.148438 6.648438 6.371094 7.285156 5.457031 7.285156 L 4.691406 7.285156 L 4.691406 8.671875 L 5.457031 8.671875 C 6.371094 8.671875 7.148438 9.304688 7.148438 10.382812 C 7.148438 11.273438 6.390625 11.996094 5.449219 11.996094 C 4.621094 11.996094 3.929688 11.429688 3.785156 10.679688 L 2.066406 10.679688 C 2.207031 12.351562 3.683594 13.640625 5.449219 13.640625 C 7.328125 13.640625 8.851562 12.199219 8.851562 10.421875 C 8.851562 9.414062 8.363281 8.542969 7.605469 7.980469 C 8.363281 7.414062 8.851562 6.542969 8.851562 5.535156 C 8.851562 3.753906 7.328125 2.3125 5.449219 2.3125 Z M 5.449219 2.3125 "/>
</svg>
