<?xml version="1.0" encoding="UTF-8"?>
<svg xmlns="http://www.w3.org/2000/svg" xmlns:xlink="http://www.w3.org/1999/xlink" width="10.190868" height="15" viewBox="0 0 10.190868 15">
<path fill-rule="nonzero" fill="rgb(100%, 100%, 100%)" fill-opacity="1" stroke-width="8.48" stroke-linecap="round" stroke-linejoin="round" stroke="rgb(0%, 0%, 0%)" stroke-opacity="1" stroke-miterlimit="4" d="M -39.501891 -101.144139 L 111.031923 -101.144139 L 111.031923 121.26131 L -39.501891 121.26131 Z M -39.501891 -101.144139 " transform="matrix(0.065003, 0, 0, 0.065003, 2.790399, 6.824677)"/>
<path fill-rule="nonzero" fill="rgb(0%, 0%, 0%)" fill-opacity="1" d="M 2.804688 2.945312 L 2.804688 7.839844 L 4.003906 7.839844 L 4.003906 7.796875 C 4.148438 7.3125 4.589844 6.976562 5.097656 6.972656 C 5.710938 6.976562 6.210938 7.453125 6.242188 8.0625 L 6.226562 9.71875 C 6.175781 10.316406 5.714844 10.773438 5.117188 10.777344 C 4.515625 10.773438 4.015625 10.316406 3.96875 9.71875 L 2.808594 9.71875 C 2.816406 10.988281 3.847656 12.011719 5.117188 12.011719 C 6.382812 12.011719 7.410156 10.996094 7.425781 9.734375 L 7.425781 8.0625 L 7.421875 8.0625 C 7.425781 8.011719 7.429688 7.957031 7.429688 7.902344 C 7.429688 6.726562 6.476562 5.773438 5.300781 5.773438 C 4.8125 5.773438 4.363281 5.9375 4.003906 6.214844 L 4.003906 4.152344 L 7.246094 4.152344 L 7.246094 2.953125 L 4.003906 2.953125 L 4.003906 2.945312 Z M 2.804688 2.945312 "/>
</svg>
