<?xml version="1.0" encoding="UTF-8"?>
<svg xmlns="http://www.w3.org/2000/svg" xmlns:xlink="http://www.w3.org/1999/xlink" width="10.87026" height="16" viewBox="0 0 10.87026 16">
<path fill-rule="nonzero" fill="rgb(100%, 100%, 100%)" fill-opacity="1" stroke-width="8.48" stroke-linecap="round" stroke-linejoin="round" stroke="rgb(0%, 0%, 0%)" stroke-opacity="1" stroke-miterlimit="4" d="M -39.490645 -101.159232 L 111.043272 -101.159232 L 111.043272 121.261392 L -39.490645 121.261392 Z M -39.490645 -101.159232 " transform="matrix(0.0693365, 0, 0, 0.0693365, 2.976426, 7.279655)"/>
<path fill-rule="nonzero" fill="rgb(0%, 0%, 0%)" fill-opacity="1" d="M 2.992188 3.140625 L 2.992188 8.363281 L 4.269531 8.363281 L 4.269531 8.316406 C 4.425781 7.800781 4.894531 7.441406 5.4375 7.4375 C 6.089844 7.441406 6.625 7.949219 6.660156 8.601562 L 6.640625 10.367188 C 6.585938 11.003906 6.097656 11.492188 5.457031 11.496094 C 4.816406 11.492188 4.285156 11.003906 4.234375 10.367188 L 2.996094 10.367188 C 3.003906 11.722656 4.105469 12.8125 5.457031 12.8125 C 6.808594 12.8125 7.902344 11.730469 7.921875 10.382812 L 7.921875 8.601562 L 7.917969 8.601562 C 7.921875 8.546875 7.925781 8.488281 7.925781 8.429688 C 7.925781 7.175781 6.910156 6.160156 5.652344 6.160156 C 5.132812 6.160156 4.652344 6.332031 4.269531 6.628906 L 4.269531 4.429688 L 7.730469 4.429688 L 7.730469 3.148438 L 4.269531 3.148438 L 4.269531 3.140625 Z M 2.992188 3.140625 "/>
</svg>
