<?xml version="1.0" encoding="UTF-8"?>
<svg xmlns="http://www.w3.org/2000/svg" xmlns:xlink="http://www.w3.org/1999/xlink" width="10.190868" height="15" viewBox="0 0 10.190868 15">
<path fill-rule="nonzero" fill="rgb(100%, 100%, 100%)" fill-opacity="1" stroke-width="8.48" stroke-linecap="round" stroke-linejoin="round" stroke="rgb(0%, 0%, 0%)" stroke-opacity="1" stroke-miterlimit="4" d="M -39.501891 -101.144139 L 111.031923 -101.144139 L 111.031923 121.26131 L -39.501891 121.26131 Z M -39.501891 -101.144139 " transform="matrix(0.065003, 0, 0, 0.065003, 2.790399, 6.824677)"/>
<path fill-rule="nonzero" fill="rgb(0%, 0%, 0%)" fill-opacity="1" d="M 5.027344 3.019531 C 3.875 3.019531 2.722656 4.054688 2.722656 5.039062 L 2.722656 10.335938 C 2.722656 11.003906 3.414062 12.054688 4.988281 12.054688 C 6.261719 12.054688 7.253906 11.074219 7.253906 10.335938 L 7.253906 7.816406 C 7.253906 6.035156 5.03125 5.992188 4.253906 6.246094 L 4.253906 4.917969 C 4.253906 4.203125 5.964844 4.226562 5.964844 4.917969 L 7.335938 4.917969 C 7.335938 4.054688 6.183594 3.019531 5.027344 3.019531 Z M 4.945312 7.460938 C 5.335938 7.445312 5.753906 7.617188 5.753906 7.964844 L 5.753906 10.015625 C 5.753906 10.917969 4.269531 10.976562 4.269531 10.015625 L 4.269531 7.945312 C 4.269531 7.632812 4.597656 7.476562 4.945312 7.460938 Z M 4.945312 7.460938 "/>
</svg>
