<?xml version="1.0" encoding="UTF-8"?>
<svg xmlns="http://www.w3.org/2000/svg" xmlns:xlink="http://www.w3.org/1999/xlink" width="10.87026" height="16" viewBox="0 0 10.87026 16">
<path fill-rule="nonzero" fill="rgb(100%, 100%, 100%)" fill-opacity="1" stroke-width="8.48" stroke-linecap="round" stroke-linejoin="round" stroke="rgb(0%, 0%, 0%)" stroke-opacity="1" stroke-miterlimit="4" d="M -39.49067 -101.159272 L 111.043315 -101.159272 L 111.043315 121.261452 L -39.49067 121.261452 Z M -39.49067 -101.159272 " transform="matrix(0.0693365, 0, 0, 0.0693365, 2.976426, 7.279655)"/>
<path fill-rule="nonzero" fill="rgb(0%, 0%, 0%)" fill-opacity="1" d="M 5.457031 3.265625 C 4.300781 3.265625 3.460938 4.039062 3.445312 5.28125 C 3.441406 5.28125 3.441406 5.28125 3.441406 5.28125 L 3.441406 6.335938 C 3.441406 6.800781 3.644531 7.351562 4.03125 7.730469 C 3.644531 8.109375 3.441406 8.636719 3.441406 9.101562 L 3.445312 10.722656 C 3.445312 11.957031 4.300781 12.734375 5.457031 12.734375 C 6.53125 12.734375 7.425781 11.976562 7.425781 10.722656 L 7.425781 9.101562 C 7.425781 8.636719 7.175781 8.03125 6.835938 7.722656 C 7.253906 7.324219 7.425781 6.785156 7.425781 6.320312 L 7.425781 5.28125 C 7.425781 4.023438 6.53125 3.265625 5.457031 3.265625 Z M 5.414062 4.457031 C 5.898438 4.453125 6.269531 4.757812 6.269531 5.25 L 6.269531 6.300781 C 6.269531 6.722656 5.960938 7.148438 5.433594 7.148438 C 4.90625 7.148438 4.59375 6.722656 4.59375 6.300781 L 4.597656 5.234375 C 4.597656 4.746094 5.027344 4.464844 5.414062 4.457031 Z M 5.433594 8.304688 C 5.921875 8.304688 6.269531 8.699219 6.269531 9.152344 L 6.269531 10.75 C 6.269531 11.238281 5.898438 11.546875 5.414062 11.542969 C 5.027344 11.535156 4.597656 11.253906 4.597656 10.757812 L 4.59375 9.152344 C 4.59375 8.695312 4.960938 8.304688 5.433594 8.304688 Z M 5.433594 8.304688 "/>
</svg>
