<?xml version="1.0" encoding="UTF-8"?>
<svg xmlns="http://www.w3.org/2000/svg" xmlns:xlink="http://www.w3.org/1999/xlink" width="10.87026" height="16" viewBox="0 0 10.87026 16">
<path fill-rule="nonzero" fill="rgb(100%, 100%, 100%)" fill-opacity="1" stroke-width="8.48" stroke-linecap="round" stroke-linejoin="round" stroke="rgb(0%, 0%, 0%)" stroke-opacity="1" stroke-miterlimit="4" d="M -39.490669 -101.159279 L 111.043329 -101.159279 L 111.043329 121.261464 L -39.490669 121.261464 Z M -39.490669 -101.159279 " transform="matrix(0.0693365, 0, 0, 0.0693365, 2.976426, 7.279655)"/>
<path fill-rule="nonzero" fill="rgb(0%, 0%, 0%)" fill-opacity="1" d="M 8.601562 13.945312 L 2.265625 13.945312 L 2.265625 11.933594 L 6.566406 6.410156 C 8.601562 3.761719 3.707031 2.796875 3.707031 5.394531 L 3.707031 6.402344 L 2.109375 6.402344 C 2.109375 6.402344 2.109375 7 2.109375 5.503906 C 2.109375 4.011719 2.792969 2.007812 5.578125 2.007812 C 8.371094 2.007812 9.734375 5.160156 8.109375 7.234375 L 4.3125 11.941406 L 8.601562 11.941406 L 8.601562 13.945312 "/>
</svg>
