<?xml version="1.0" encoding="UTF-8"?>
<svg xmlns="http://www.w3.org/2000/svg" xmlns:xlink="http://www.w3.org/1999/xlink" width="10.87026" height="16" viewBox="0 0 10.87026 16">
<path fill-rule="nonzero" fill="rgb(100%, 100%, 100%)" fill-opacity="1" stroke-width="8.48" stroke-linecap="round" stroke-linejoin="round" stroke="rgb(0%, 0%, 0%)" stroke-opacity="1" stroke-miterlimit="4" d="M -39.490669 -101.159279 L 111.043329 -101.159279 L 111.043329 121.261464 L -39.490669 121.261464 Z M -39.490669 -101.159279 " transform="matrix(0.0693365, 0, 0, 0.0693365, 2.976426, 7.279655)"/>
<path fill-rule="nonzero" fill="rgb(0%, 0%, 0%)" fill-opacity="1" d="M 6.425781 1.855469 L 6.425781 4.347656 L 7.085938 4.347656 C 7.085938 4.148438 7.289062 4.089844 7.4375 4.089844 C 7.640625 4.089844 7.8125 4.210938 7.8125 4.394531 L 7.808594 5.371094 C 7.808594 5.664062 7.710938 5.90625 7.445312 5.90625 C 7.179688 5.90625 7.066406 5.722656 7.066406 5.371094 L 6.425781 5.371094 C 6.425781 5.996094 6.703125 6.566406 7.445312 6.566406 C 8.058594 6.566406 8.464844 6.136719 8.464844 5.605469 C 8.464844 5.195312 8.46875 4.777344 8.464844 4.359375 C 8.453125 3.820312 8.105469 3.53125 7.710938 3.523438 C 7.496094 3.523438 7.242188 3.617188 7.085938 3.761719 L 7.085938 2.480469 L 8.464844 2.480469 L 8.464844 1.859375 L 6.957031 1.859375 L 6.957031 1.855469 Z M 6.425781 1.855469 "/>
<path fill-rule="nonzero" fill="rgb(0%, 0%, 0%)" fill-opacity="1" d="M 4.054688 5.234375 L 2.78125 6.105469 L 2.777344 4.421875 L 4.046875 3.542969 L 5.433594 3.542969 L 5.433594 12.457031 L 4.042969 12.457031 Z M 4.054688 5.234375 "/>
</svg>
