<?xml version="1.0" encoding="UTF-8"?>
<svg xmlns="http://www.w3.org/2000/svg" xmlns:xlink="http://www.w3.org/1999/xlink" width="10.87026" height="16" viewBox="0 0 10.87026 16">
<path fill-rule="nonzero" fill="rgb(100%, 100%, 100%)" fill-opacity="1" stroke-width="8.48" stroke-linecap="round" stroke-linejoin="round" stroke="rgb(0%, 0%, 0%)" stroke-opacity="1" stroke-miterlimit="4" d="M -39.490669 -101.159279 L 111.043329 -101.159279 L 111.043329 121.261464 L -39.490669 121.261464 Z M -39.490669 -101.159279 " transform="matrix(0.0693365, 0, 0, 0.0693365, 2.976426, 7.279655)"/>
<path fill-rule="nonzero" fill="rgb(0%, 0%, 0%)" fill-opacity="1" d="M 7.578125 1.855469 L 7.578125 4.347656 L 8.238281 4.347656 C 8.238281 4.148438 8.441406 4.089844 8.589844 4.089844 C 8.792969 4.089844 8.964844 4.210938 8.964844 4.394531 L 8.960938 5.371094 C 8.960938 5.664062 8.863281 5.90625 8.597656 5.90625 C 8.332031 5.90625 8.21875 5.722656 8.21875 5.371094 L 7.578125 5.371094 C 7.578125 5.996094 7.855469 6.566406 8.597656 6.566406 C 9.210938 6.566406 9.617188 6.136719 9.617188 5.605469 C 9.617188 5.195312 9.621094 4.777344 9.617188 4.359375 C 9.605469 3.820312 9.257812 3.53125 8.863281 3.523438 C 8.648438 3.523438 8.394531 3.617188 8.238281 3.761719 L 8.238281 2.480469 L 9.617188 2.480469 L 9.617188 1.859375 L 8.109375 1.859375 L 8.109375 1.855469 Z M 7.578125 1.855469 "/>
<path fill-rule="nonzero" fill="rgb(0%, 0%, 0%)" fill-opacity="1" d="M 4.601562 3.261719 C 3.621094 3.269531 2.632812 3.945312 2.632812 5.265625 L 2.617188 5.265625 L 2.617188 10.734375 L 2.632812 10.734375 C 2.652344 13.410156 6.574219 13.382812 6.574219 10.734375 L 6.585938 10.734375 L 6.585938 5.265625 L 6.574219 5.265625 C 6.574219 3.921875 5.585938 3.257812 4.601562 3.261719 Z M 4.601562 4.453125 C 5.015625 4.449219 5.4375 4.71875 5.4375 5.265625 L 5.433594 5.265625 L 5.433594 10.734375 L 5.4375 10.734375 C 5.4375 11.8125 3.773438 11.8125 3.773438 10.714844 L 3.773438 5.265625 L 3.765625 5.265625 C 3.765625 4.730469 4.183594 4.457031 4.601562 4.453125 Z M 4.601562 4.453125 "/>
</svg>
