<?xml version="1.0" encoding="UTF-8"?>
<svg xmlns="http://www.w3.org/2000/svg" xmlns:xlink="http://www.w3.org/1999/xlink" width="10.87026" height="16" viewBox="0 0 10.87026 16">
<path fill-rule="nonzero" fill="rgb(100%, 100%, 100%)" fill-opacity="1" stroke-width="8.48" stroke-linecap="round" stroke-linejoin="round" stroke="rgb(0%, 0%, 0%)" stroke-opacity="1" stroke-miterlimit="4" d="M -39.49067 -101.159272 L 111.043315 -101.159272 L 111.043315 121.261452 L -39.49067 121.261452 Z M -39.49067 -101.159272 " transform="matrix(0.0693365, 0, 0, 0.0693365, 2.976426, 7.279655)"/>
<path fill-rule="nonzero" fill="rgb(0%, 0%, 0%)" fill-opacity="1" d="M 7.507812 2.757812 L 7.507812 5.25 L 8.160156 5.25 C 8.160156 5.050781 8.363281 4.988281 8.515625 4.988281 C 8.71875 4.988281 8.890625 5.113281 8.890625 5.285156 L 8.886719 6.273438 C 8.886719 6.566406 8.785156 6.800781 8.527344 6.800781 C 8.261719 6.800781 8.148438 6.625 8.148438 6.273438 L 7.507812 6.273438 C 7.507812 6.894531 7.78125 7.464844 8.527344 7.464844 C 9.136719 7.464844 9.542969 7.03125 9.542969 6.507812 C 9.542969 6.09375 9.546875 5.675781 9.542969 5.261719 C 9.53125 4.71875 9.183594 4.429688 8.785156 4.417969 C 8.574219 4.417969 8.324219 4.519531 8.160156 4.65625 L 8.160156 3.382812 L 9.542969 3.382812 L 9.542969 2.761719 L 8.03125 2.761719 L 8.03125 2.757812 Z M 7.507812 2.757812 "/>
<path fill-rule="nonzero" fill="rgb(0%, 0%, 0%)" fill-opacity="1" d="M 1.984375 3.140625 L 1.984375 8.363281 L 3.261719 8.363281 L 3.261719 8.316406 C 3.417969 7.800781 3.886719 7.441406 4.425781 7.4375 C 5.078125 7.441406 5.613281 7.949219 5.652344 8.601562 L 5.632812 10.367188 C 5.574219 11.003906 5.089844 11.492188 4.449219 11.496094 C 3.804688 11.492188 3.277344 11.003906 3.222656 10.367188 L 1.988281 10.367188 C 1.992188 11.722656 3.09375 12.8125 4.449219 12.8125 C 5.800781 12.8125 6.890625 11.730469 6.910156 10.382812 L 6.910156 8.601562 L 6.90625 8.601562 C 6.910156 8.546875 6.917969 8.488281 6.917969 8.429688 C 6.917969 7.175781 5.902344 6.160156 4.640625 6.160156 C 4.121094 6.160156 3.640625 6.332031 3.261719 6.628906 L 3.261719 4.429688 L 6.71875 4.429688 L 6.71875 3.148438 L 3.261719 3.148438 L 3.261719 3.140625 Z M 1.984375 3.140625 "/>
</svg>
