<?xml version="1.0" encoding="UTF-8"?>
<svg xmlns="http://www.w3.org/2000/svg" xmlns:xlink="http://www.w3.org/1999/xlink" width="10.87026" height="16" viewBox="0 0 10.87026 16">
<path fill-rule="nonzero" fill="rgb(100%, 100%, 100%)" fill-opacity="1" stroke-width="8.48" stroke-linecap="round" stroke-linejoin="round" stroke="rgb(0%, 0%, 0%)" stroke-opacity="1" stroke-miterlimit="4" d="M -39.490669 -101.159279 L 111.043329 -101.159279 L 111.043329 121.261464 L -39.490669 121.261464 Z M -39.490669 -101.159279 " transform="matrix(0.0693365, 0, 0, 0.0693365, 2.976426, 7.279655)"/>
<path fill-rule="nonzero" fill="rgb(0%, 0%, 0%)" fill-opacity="1" d="M 5.363281 3.222656 C 4.132812 3.222656 2.902344 4.324219 2.902344 5.375 L 2.902344 11.023438 C 2.902344 11.738281 3.640625 12.859375 5.320312 12.859375 C 6.679688 12.859375 7.738281 11.8125 7.738281 11.023438 L 7.738281 8.335938 C 7.738281 6.4375 5.367188 6.390625 4.539062 6.664062 L 4.539062 5.246094 C 4.539062 4.484375 6.363281 4.507812 6.363281 5.246094 L 7.824219 5.246094 C 7.824219 4.324219 6.597656 3.222656 5.363281 3.222656 Z M 5.273438 7.957031 C 5.691406 7.941406 6.136719 8.125 6.136719 8.496094 L 6.136719 10.683594 C 6.136719 11.644531 4.554688 11.707031 4.554688 10.683594 L 4.554688 8.476562 C 4.554688 8.140625 4.902344 7.976562 5.273438 7.957031 Z M 5.273438 7.957031 "/>
</svg>
