<?xml version="1.0" encoding="UTF-8"?>
<svg xmlns="http://www.w3.org/2000/svg" xmlns:xlink="http://www.w3.org/1999/xlink" width="10.87026" height="16" viewBox="0 0 10.87026 16">
<path fill-rule="nonzero" fill="rgb(100%, 100%, 100%)" fill-opacity="1" stroke-width="8.48" stroke-linecap="round" stroke-linejoin="round" stroke="rgb(0%, 0%, 0%)" stroke-opacity="1" stroke-miterlimit="4" d="M -39.49067 -101.159272 L 111.043315 -101.159272 L 111.043315 121.261452 L -39.49067 121.261452 Z M -39.49067 -101.159272 " transform="matrix(0.0693365, 0, 0, 0.0693365, 2.976426, 7.279655)"/>
<path fill-rule="nonzero" fill="rgb(0%, 0%, 0%)" fill-opacity="1" d="M 6.886719 3.265625 C 5.90625 3.273438 4.917969 3.949219 4.917969 5.269531 L 4.902344 5.269531 L 4.902344 10.738281 L 4.917969 10.738281 C 4.9375 13.414062 8.859375 13.386719 8.859375 10.738281 L 8.871094 10.738281 L 8.871094 5.269531 L 8.859375 5.269531 C 8.859375 3.925781 7.871094 3.261719 6.886719 3.265625 Z M 6.886719 4.457031 C 7.300781 4.453125 7.722656 4.722656 7.722656 5.269531 L 7.71875 5.269531 L 7.71875 10.738281 L 7.722656 10.738281 C 7.722656 11.816406 6.058594 11.816406 6.058594 10.71875 L 6.058594 5.269531 L 6.050781 5.269531 C 6.050781 4.734375 6.46875 4.460938 6.886719 4.457031 Z M 6.886719 4.457031 "/>
<path fill-rule="nonzero" fill="rgb(0%, 0%, 0%)" fill-opacity="1" d="M 3.058594 5.0625 L 1.996094 5.988281 L 1.996094 4.199219 L 3.050781 3.265625 L 4.210938 3.265625 L 4.210938 12.734375 L 3.050781 12.734375 Z M 3.058594 5.0625 "/>
</svg>
