<?xml version="1.0" encoding="UTF-8"?>
<svg xmlns="http://www.w3.org/2000/svg" xmlns:xlink="http://www.w3.org/1999/xlink" width="10.87026" height="16" viewBox="0 0 10.87026 16">
<path fill-rule="nonzero" fill="rgb(100%, 100%, 100%)" fill-opacity="1" stroke-width="8.48" stroke-linecap="round" stroke-linejoin="round" stroke="rgb(0%, 0%, 0%)" stroke-opacity="1" stroke-miterlimit="4" d="M -39.49067 -101.159272 L 111.043315 -101.159272 L 111.043315 121.261452 L -39.49067 121.261452 Z M -39.49067 -101.159272 " transform="matrix(0.0693365, 0, 0, 0.0693365, 2.976426, 7.279655)"/>
<path fill-rule="nonzero" fill="rgb(0%, 0%, 0%)" fill-opacity="1" d="M 5.433594 12.746094 C 6.464844 12.746094 7.492188 11.660156 7.492188 10.628906 L 7.492188 5.058594 C 7.492188 4.359375 6.875 3.253906 5.46875 3.253906 C 4.339844 3.253906 3.449219 4.28125 3.449219 5.058594 L 3.449219 7.703125 C 3.449219 9.585938 5.433594 9.628906 6.121094 9.351562 L 6.121094 10.757812 C 6.121094 11.507812 4.597656 11.484375 4.597656 10.757812 L 3.375 10.757812 C 3.375 11.660156 4.40625 12.746094 5.433594 12.746094 Z M 5.511719 8.085938 C 5.15625 8.097656 4.785156 7.914062 4.785156 7.550781 L 4.785156 5.398438 C 4.785156 4.449219 6.109375 4.386719 6.109375 5.398438 L 6.109375 7.570312 C 6.109375 7.902344 5.820312 8.070312 5.511719 8.085938 Z M 5.511719 8.085938 "/>
</svg>
