<?xml version="1.0" encoding="UTF-8"?>
<svg xmlns="http://www.w3.org/2000/svg" xmlns:xlink="http://www.w3.org/1999/xlink" width="22.254093" height="19" viewBox="0 0 22.254093 19">
<path fill-rule="nonzero" fill="rgb(100%, 84.705883%, 8.235294%)" fill-opacity="1" stroke-width="1.613" stroke-linecap="butt" stroke-linejoin="miter" stroke="rgb(100%, 100%, 100%)" stroke-opacity="1" stroke-miterlimit="4" d="M 20.835938 18.136719 C 14.171875 18.128906 7.648438 18.175781 1.386719 18.191406 C 4.476562 12.746094 7.902344 7.058594 10.996094 1.605469 Z M 20.835938 18.136719 "/>
<path fill="none" stroke-width="0.576" stroke-linecap="butt" stroke-linejoin="miter" stroke="rgb(0%, 0%, 0%)" stroke-opacity="1" stroke-miterlimit="4" d="M 20.886719 18.222656 C 14.1875 18.207031 7.632812 18.257812 1.335938 18.277344 C 4.441406 12.796875 7.886719 7.082031 10.996094 1.605469 Z M 20.886719 18.222656 "/>
<path fill-rule="nonzero" fill="rgb(0%, 0%, 0%)" fill-opacity="1" d="M 11.683594 8.734375 L 11.683594 10.714844 L 12.257812 10.703125 C 12.257812 10.550781 12.5 10.460938 12.78125 10.460938 C 13.058594 10.460938 13.257812 10.734375 13.257812 10.871094 L 13.25 11.453125 C 13.25 11.679688 12.945312 11.863281 12.742188 11.863281 C 12.539062 11.863281 12.242188 11.71875 12.242188 11.453125 L 11.6875 11.453125 C 11.6875 11.933594 12.175781 12.371094 12.75 12.371094 C 13.222656 12.371094 13.761719 12.039062 13.761719 11.636719 C 13.761719 11.3125 13.761719 10.992188 13.761719 10.671875 C 13.75 10.25 13.195312 9.957031 12.890625 9.949219 C 12.726562 9.949219 12.375 9.996094 12.257812 10.109375 L 12.257812 9.21875 L 13.742188 9.21875 L 13.742188 8.742188 L 12.15625 8.742188 L 12.15625 8.734375 Z M 11.683594 8.734375 "/>
<path fill-rule="nonzero" fill="rgb(0%, 0%, 0%)" fill-opacity="1" d="M 9.054688 9.933594 C 7.980469 9.933594 7.085938 10.714844 7 11.734375 L 8.039062 11.734375 C 8.128906 11.277344 8.550781 10.933594 9.054688 10.933594 C 9.625 10.933594 10.089844 11.371094 10.089844 11.910156 C 10.089844 12.566406 9.613281 12.949219 9.058594 12.949219 L 8.59375 12.949219 L 8.59375 13.796875 L 9.058594 13.792969 C 9.613281 13.796875 10.089844 14.183594 10.089844 14.835938 C 10.089844 15.375 9.625 15.816406 9.054688 15.816406 C 8.550781 15.816406 8.128906 15.46875 8.039062 15.015625 L 7 15.015625 C 7.085938 16.027344 7.980469 16.816406 9.054688 16.816406 C 10.199219 16.816406 11.117188 15.941406 11.117188 14.855469 C 11.117188 14.246094 10.828125 13.71875 10.363281 13.371094 C 10.828125 13.03125 11.117188 12.5 11.117188 11.890625 C 11.117188 10.808594 10.199219 9.933594 9.054688 9.933594 Z M 9.054688 9.933594 "/>
</svg>
