<?xml version="1.0" encoding="UTF-8"?>
<svg xmlns="http://www.w3.org/2000/svg" xmlns:xlink="http://www.w3.org/1999/xlink" width="22.254093" height="19" viewBox="0 0 22.254093 19">
<path fill-rule="nonzero" fill="rgb(100%, 84.705883%, 8.235294%)" fill-opacity="1" stroke-width="1.613" stroke-linecap="butt" stroke-linejoin="miter" stroke="rgb(100%, 100%, 100%)" stroke-opacity="1" stroke-miterlimit="4" d="M 20.835938 18.136719 C 14.171875 18.128906 7.648438 18.175781 1.386719 18.191406 C 4.476562 12.746094 7.902344 7.058594 10.996094 1.605469 Z M 20.835938 18.136719 "/>
<path fill="none" stroke-width="0.576" stroke-linecap="butt" stroke-linejoin="miter" stroke="rgb(0%, 0%, 0%)" stroke-opacity="1" stroke-miterlimit="4" d="M 20.886719 18.222656 C 14.1875 18.207031 7.632812 18.257812 1.335938 18.277344 C 4.441406 12.796875 7.886719 7.082031 10.996094 1.605469 Z M 20.886719 18.222656 "/>
<path fill-rule="nonzero" fill="rgb(0%, 0%, 0%)" fill-opacity="1" d="M 8.839844 8.480469 L 6.5625 14.398438 L 6.5625 15.480469 L 9.292969 15.480469 L 9.292969 16.75 L 10.203125 16.75 L 10.203125 15.480469 L 10.742188 15.480469 L 10.742188 14.398438 L 10.203125 14.398438 L 10.203125 12.0625 L 9.292969 12.0625 L 9.292969 14.398438 L 7.617188 14.398438 L 9.882812 8.488281 Z M 8.839844 8.480469 "/>
<path fill-rule="nonzero" fill="rgb(0%, 0%, 0%)" fill-opacity="1" d="M 11.414062 8.15625 L 11.414062 10.136719 L 11.984375 10.125 C 11.984375 9.972656 12.230469 9.882812 12.507812 9.882812 C 12.789062 9.882812 12.988281 10.15625 12.988281 10.292969 L 12.980469 10.875 C 12.980469 11.101562 12.675781 11.285156 12.46875 11.285156 C 12.265625 11.285156 11.972656 11.140625 11.972656 10.875 L 11.414062 10.875 C 11.414062 11.355469 11.902344 11.792969 12.476562 11.792969 C 12.953125 11.792969 13.488281 11.460938 13.488281 11.058594 C 13.488281 10.734375 13.492188 10.414062 13.488281 10.09375 C 13.480469 9.671875 12.925781 9.378906 12.621094 9.371094 C 12.453125 9.371094 12.105469 9.417969 11.984375 9.53125 L 11.984375 8.640625 L 13.472656 8.640625 L 13.472656 8.164062 L 11.882812 8.164062 L 11.882812 8.15625 Z M 11.414062 8.15625 "/>
</svg>
