<?xml version="1.0" encoding="UTF-8"?>
<svg xmlns="http://www.w3.org/2000/svg" xmlns:xlink="http://www.w3.org/1999/xlink" width="22.254093" height="19" viewBox="0 0 22.254093 19">
<path fill-rule="nonzero" fill="rgb(100%, 84.705883%, 8.235294%)" fill-opacity="1" stroke-width="1.613" stroke-linecap="butt" stroke-linejoin="miter" stroke="rgb(100%, 100%, 100%)" stroke-opacity="1" stroke-miterlimit="4" d="M 20.835938 18.136719 C 14.171875 18.128906 7.648438 18.175781 1.386719 18.191406 C 4.476562 12.746094 7.902344 7.058594 10.996094 1.605469 Z M 20.835938 18.136719 "/>
<path fill="none" stroke-width="0.576" stroke-linecap="butt" stroke-linejoin="miter" stroke="rgb(0%, 0%, 0%)" stroke-opacity="1" stroke-miterlimit="4" d="M 20.886719 18.222656 C 14.1875 18.207031 7.632812 18.257812 1.335938 18.277344 C 4.441406 12.796875 7.886719 7.082031 10.996094 1.605469 Z M 20.886719 18.222656 "/>
<path fill-rule="nonzero" fill="rgb(0%, 0%, 0%)" fill-opacity="1" d="M 9.03125 8.179688 L 9.03125 8.183594 L 9.023438 8.183594 L 9.023438 9.277344 L 9.03125 9.277344 L 9.03125 12.636719 L 10.125 12.636719 L 10.125 12.601562 C 10.253906 12.15625 10.65625 11.851562 11.121094 11.851562 C 11.675781 11.851562 12.136719 12.292969 12.160156 12.84375 L 12.152344 14.355469 C 12.101562 14.898438 11.683594 15.320312 11.136719 15.320312 C 10.589844 15.320312 10.132812 14.898438 10.089844 14.355469 L 9.03125 14.355469 C 9.039062 15.511719 9.980469 16.449219 11.136719 16.449219 C 12.289062 16.449219 13.226562 15.515625 13.242188 14.371094 L 13.242188 12.84375 C 13.246094 12.796875 13.246094 12.746094 13.246094 12.703125 C 13.246094 11.628906 12.375 10.757812 11.300781 10.757812 C 10.859375 10.757812 10.449219 10.90625 10.125 11.15625 L 10.125 9.277344 L 13.078125 9.277344 L 13.078125 8.183594 L 10.125 8.183594 L 10.125 8.179688 Z M 9.03125 8.179688 "/>
</svg>
