<?xml version="1.0" encoding="UTF-8"?>
<svg xmlns="http://www.w3.org/2000/svg" xmlns:xlink="http://www.w3.org/1999/xlink" width="22.254093" height="19" viewBox="0 0 22.254093 19">
<path fill-rule="nonzero" fill="rgb(100%, 84.705883%, 8.235294%)" fill-opacity="1" stroke-width="1.613" stroke-linecap="butt" stroke-linejoin="miter" stroke="rgb(100%, 100%, 100%)" stroke-opacity="1" stroke-miterlimit="4" d="M 20.835938 18.136719 C 14.171875 18.128906 7.648438 18.175781 1.386719 18.191406 C 4.476562 12.746094 7.902344 7.058594 10.996094 1.605469 Z M 20.835938 18.136719 "/>
<path fill="none" stroke-width="0.576" stroke-linecap="butt" stroke-linejoin="miter" stroke="rgb(0%, 0%, 0%)" stroke-opacity="1" stroke-miterlimit="4" d="M 20.886719 18.222656 C 14.1875 18.207031 7.632812 18.257812 1.335938 18.277344 C 4.441406 12.796875 7.886719 7.082031 10.996094 1.605469 Z M 20.886719 18.222656 "/>
<path fill-rule="nonzero" fill="rgb(0%, 0%, 0%)" fill-opacity="1" d="M 11.074219 8.160156 C 10.070312 8.160156 9.066406 9.109375 9.066406 10.015625 L 9.066406 14.890625 C 9.066406 15.5 9.667969 16.472656 11.039062 16.472656 C 12.148438 16.472656 13.007812 15.570312 13.007812 14.890625 L 13.007812 12.570312 C 13.007812 10.929688 11.078125 10.894531 10.402344 11.128906 L 10.402344 9.898438 C 10.402344 9.246094 11.886719 9.265625 11.886719 9.898438 L 13.082031 9.898438 C 13.082031 9.109375 12.078125 8.160156 11.074219 8.160156 Z M 11 12.246094 C 11.339844 12.230469 11.707031 12.390625 11.707031 12.707031 L 11.707031 14.59375 C 11.707031 15.425781 10.410156 15.476562 10.410156 14.59375 L 10.410156 12.691406 C 10.410156 12.402344 10.699219 12.253906 11 12.246094 Z M 11 12.246094 "/>
</svg>
