<?xml version="1.0" encoding="UTF-8"?>
<svg xmlns="http://www.w3.org/2000/svg" xmlns:xlink="http://www.w3.org/1999/xlink" width="22.254093" height="19" viewBox="0 0 22.254093 19">
<path fill-rule="nonzero" fill="rgb(100%, 84.705883%, 8.235294%)" fill-opacity="1" stroke-width="1.613" stroke-linecap="butt" stroke-linejoin="miter" stroke="rgb(100%, 100%, 100%)" stroke-opacity="1" stroke-miterlimit="4" d="M 20.835938 18.136719 C 14.171875 18.128906 7.648438 18.175781 1.386719 18.191406 C 4.476562 12.746094 7.902344 7.058594 10.996094 1.605469 Z M 20.835938 18.136719 "/>
<path fill="none" stroke-width="0.576" stroke-linecap="butt" stroke-linejoin="miter" stroke="rgb(0%, 0%, 0%)" stroke-opacity="1" stroke-miterlimit="4" d="M 20.886719 18.222656 C 14.1875 18.207031 7.632812 18.257812 1.335938 18.277344 C 4.441406 12.796875 7.886719 7.082031 10.996094 1.605469 Z M 20.886719 18.222656 "/>
<path fill-rule="nonzero" fill="rgb(0%, 0%, 0%)" fill-opacity="1" d="M 11.710938 8.601562 L 11.710938 10.582031 L 12.285156 10.570312 C 12.285156 10.417969 12.527344 10.328125 12.808594 10.328125 C 13.085938 10.328125 13.285156 10.601562 13.285156 10.738281 L 13.277344 11.320312 C 13.277344 11.546875 12.972656 11.730469 12.769531 11.730469 C 12.566406 11.730469 12.269531 11.585938 12.269531 11.320312 L 11.714844 11.320312 C 11.714844 11.800781 12.203125 12.238281 12.777344 12.238281 C 13.25 12.238281 13.789062 11.90625 13.789062 11.503906 C 13.789062 11.179688 13.789062 10.859375 13.789062 10.539062 C 13.777344 10.117188 13.222656 9.824219 12.917969 9.816406 C 12.753906 9.816406 12.402344 9.863281 12.285156 9.976562 L 12.285156 9.085938 L 13.769531 9.085938 L 13.769531 8.609375 L 12.183594 8.609375 L 12.183594 8.601562 Z M 11.710938 8.601562 "/>
<path fill-rule="nonzero" fill="rgb(0%, 0%, 0%)" fill-opacity="1" d="M 11.003906 16.683594 L 7.59375 16.683594 L 7.59375 15.703125 L 9.910156 12.214844 C 11.003906 10.539062 8.371094 9.929688 8.371094 11.570312 L 8.371094 12.210938 L 7.507812 12.210938 L 7.507812 11.640625 C 7.507812 10.699219 7.875 9.800781 9.378906 9.800781 C 10.878906 9.800781 11.617188 11.421875 10.738281 12.734375 L 8.695312 15.710938 L 11.003906 15.710938 L 11.003906 16.683594 "/>
</svg>
