<?xml version="1.0" encoding="UTF-8"?>
<svg xmlns="http://www.w3.org/2000/svg" xmlns:xlink="http://www.w3.org/1999/xlink" width="22.254757" height="19" viewBox="0 0 22.254757 19">
<path fill-rule="nonzero" fill="rgb(100%, 84.705883%, 8.235294%)" fill-opacity="1" stroke-width="1.613" stroke-linecap="butt" stroke-linejoin="miter" stroke="rgb(100%, 100%, 100%)" stroke-opacity="1" stroke-miterlimit="4" d="M 20.836829 18.137494 C 14.172481 18.129682 7.648765 18.176559 1.386778 18.192184 C 4.476754 12.746639 7.902682 7.058896 10.996564 1.605537 Z M 20.836829 18.137494 " transform="matrix(0.999957, 0, 0, 0.999957, 0, 0)"/>
<path fill-rule="nonzero" fill="rgb(0%, 0%, 0%)" fill-opacity="1" d="M 11.851562 8.683594 L 11.851562 10.664062 L 12.421875 10.652344 C 12.421875 10.5 12.667969 10.410156 12.945312 10.410156 C 13.226562 10.410156 13.425781 10.683594 13.425781 10.820312 L 13.417969 11.402344 C 13.417969 11.628906 13.113281 11.8125 12.90625 11.8125 C 12.703125 11.8125 12.410156 11.667969 12.410156 11.402344 L 11.851562 11.402344 C 11.851562 11.882812 12.339844 12.320312 12.914062 12.320312 C 13.390625 12.320312 13.925781 11.988281 13.925781 11.585938 C 13.925781 11.261719 13.929688 10.941406 13.925781 10.621094 C 13.917969 10.199219 13.363281 9.90625 13.058594 9.898438 C 12.890625 9.898438 12.542969 9.945312 12.421875 10.058594 L 12.421875 9.167969 L 13.910156 9.167969 L 13.910156 8.691406 L 12.320312 8.691406 L 12.320312 8.683594 Z M 11.851562 8.683594 "/>
<path fill="none" stroke-width="0.576" stroke-linecap="butt" stroke-linejoin="miter" stroke="rgb(0%, 0%, 0%)" stroke-opacity="1" stroke-miterlimit="4" d="M 20.887612 18.223436 C 14.188107 18.20781 7.633139 18.258593 1.335995 18.278125 C 4.441596 12.797422 7.887056 7.082334 10.996564 1.605537 Z M 20.887612 18.223436 " transform="matrix(0.999957, 0, 0, 0.999957, 0, 0)"/>
<path fill-rule="nonzero" fill="rgb(0%, 0%, 0%)" fill-opacity="1" d="M 9.769531 9.796875 C 9.054688 9.800781 8.339844 10.289062 8.339844 11.25 L 8.328125 11.25 L 8.328125 15.226562 L 8.339844 15.226562 C 8.355469 17.167969 11.203125 17.144531 11.203125 15.226562 L 11.210938 15.226562 L 11.210938 11.25 L 11.203125 11.25 C 11.203125 10.273438 10.484375 9.792969 9.769531 9.796875 Z M 9.769531 10.660156 C 10.070312 10.65625 10.375 10.855469 10.375 11.25 L 10.375 15.226562 C 10.375 16.007812 9.167969 16.007812 9.167969 15.207031 L 9.167969 11.25 L 9.164062 11.25 C 9.164062 10.863281 9.464844 10.664062 9.769531 10.660156 Z M 9.769531 10.660156 "/>
</svg>
