<?xml version="1.0" encoding="UTF-8"?>
<svg xmlns="http://www.w3.org/2000/svg" xmlns:xlink="http://www.w3.org/1999/xlink" width="22.254093" height="19" viewBox="0 0 22.254093 19">
<path fill-rule="nonzero" fill="rgb(100%, 84.705883%, 8.235294%)" fill-opacity="1" stroke-width="1.613" stroke-linecap="butt" stroke-linejoin="miter" stroke="rgb(100%, 100%, 100%)" stroke-opacity="1" stroke-miterlimit="4" d="M 20.835938 18.136719 C 14.171875 18.128906 7.648438 18.175781 1.386719 18.191406 C 4.476562 12.746094 7.902344 7.058594 10.996094 1.605469 Z M 20.835938 18.136719 "/>
<path fill="none" stroke-width="0.576" stroke-linecap="butt" stroke-linejoin="miter" stroke="rgb(0%, 0%, 0%)" stroke-opacity="1" stroke-miterlimit="4" d="M 20.886719 18.222656 C 14.1875 18.207031 7.632812 18.257812 1.335938 18.277344 C 4.441406 12.796875 7.886719 7.082031 10.996094 1.605469 Z M 20.886719 18.222656 "/>
<path fill-rule="nonzero" fill="rgb(0%, 0%, 0%)" fill-opacity="1" d="M 7.855469 9.578125 L 7.855469 9.582031 L 7.851562 9.582031 L 7.851562 10.558594 L 7.855469 10.558594 L 7.855469 13.5625 L 8.835938 13.5625 L 8.835938 13.53125 C 8.949219 13.132812 9.308594 12.859375 9.722656 12.859375 C 10.21875 12.859375 10.632812 13.253906 10.652344 13.746094 L 10.648438 15.097656 C 10.605469 15.582031 10.230469 15.960938 9.742188 15.960938 C 9.253906 15.960938 8.84375 15.582031 8.804688 15.097656 L 7.859375 15.097656 C 7.867188 16.132812 8.707031 16.96875 9.742188 16.96875 C 10.773438 16.96875 11.609375 16.132812 11.625 15.113281 L 11.625 13.746094 C 11.628906 13.703125 11.628906 13.660156 11.628906 13.621094 C 11.628906 12.660156 10.847656 11.882812 9.886719 11.882812 C 9.492188 11.882812 9.128906 12.015625 8.835938 12.238281 L 8.835938 10.558594 L 11.472656 10.558594 L 11.472656 9.582031 L 8.835938 9.582031 L 8.835938 9.578125 Z M 7.855469 9.578125 "/>
<path fill-rule="nonzero" fill="rgb(0%, 0%, 0%)" fill-opacity="1" d="M 12.230469 8.933594 L 12.230469 10.707031 L 12.742188 10.695312 C 12.742188 10.558594 12.960938 10.480469 13.207031 10.480469 C 13.460938 10.480469 13.636719 10.722656 13.636719 10.84375 L 13.632812 11.367188 C 13.632812 11.566406 13.359375 11.730469 13.175781 11.730469 C 12.992188 11.730469 12.730469 11.601562 12.730469 11.367188 L 12.230469 11.367188 C 12.230469 11.792969 12.667969 12.1875 13.179688 12.1875 C 13.605469 12.1875 14.085938 11.890625 14.085938 11.53125 C 14.085938 11.238281 14.089844 10.953125 14.085938 10.667969 C 14.078125 10.289062 13.582031 10.027344 13.308594 10.019531 C 13.160156 10.019531 12.847656 10.0625 12.742188 10.164062 L 12.742188 9.367188 L 14.070312 9.367188 L 14.070312 8.941406 L 12.648438 8.941406 L 12.648438 8.933594 Z M 12.230469 8.933594 "/>
</svg>
