<?xml version="1.0" encoding="UTF-8"?>
<svg xmlns="http://www.w3.org/2000/svg" xmlns:xlink="http://www.w3.org/1999/xlink" width="22.254093" height="19" viewBox="0 0 22.254093 19">
<path fill-rule="nonzero" fill="rgb(100%, 84.705883%, 8.235294%)" fill-opacity="1" stroke-width="1.613" stroke-linecap="butt" stroke-linejoin="miter" stroke="rgb(100%, 100%, 100%)" stroke-opacity="1" stroke-miterlimit="4" d="M 20.835938 18.136719 C 14.171875 18.128906 7.648438 18.175781 1.386719 18.191406 C 4.476562 12.746094 7.902344 7.058594 10.996094 1.605469 Z M 20.835938 18.136719 "/>
<path fill="none" stroke-width="0.576" stroke-linecap="butt" stroke-linejoin="miter" stroke="rgb(0%, 0%, 0%)" stroke-opacity="1" stroke-miterlimit="4" d="M 20.886719 18.222656 C 14.1875 18.207031 7.632812 18.257812 1.335938 18.277344 C 4.441406 12.796875 7.886719 7.082031 10.996094 1.605469 Z M 20.886719 18.222656 "/>
<path fill-rule="nonzero" fill="rgb(0%, 0%, 0%)" fill-opacity="1" d="M 9.242188 9.171875 C 8.300781 9.171875 7.359375 10.0625 7.359375 10.910156 L 7.359375 15.484375 C 7.359375 16.054688 7.925781 16.96875 9.210938 16.96875 C 10.25 16.96875 11.058594 16.121094 11.058594 15.484375 L 11.058594 13.308594 C 11.058594 11.769531 9.246094 11.734375 8.613281 11.957031 L 8.613281 10.800781 C 8.613281 10.1875 10.003906 10.207031 10.003906 10.800781 L 11.128906 10.800781 C 11.128906 10.0625 10.183594 9.171875 9.242188 9.171875 Z M 9.171875 13.003906 C 9.492188 12.988281 9.835938 13.140625 9.835938 13.4375 L 9.835938 15.207031 C 9.835938 15.988281 8.621094 16.035156 8.621094 15.207031 L 8.621094 13.421875 C 8.621094 13.148438 8.890625 13.011719 9.171875 13.003906 Z M 9.171875 13.003906 "/>
<path fill-rule="nonzero" fill="rgb(0%, 0%, 0%)" fill-opacity="1" d="M 11.816406 8.535156 L 11.816406 10.394531 L 12.351562 10.382812 C 12.351562 10.242188 12.582031 10.15625 12.84375 10.15625 C 13.105469 10.15625 13.292969 10.414062 13.292969 10.539062 L 13.285156 11.085938 C 13.285156 11.300781 13 11.472656 12.804688 11.472656 C 12.613281 11.472656 12.339844 11.335938 12.339844 11.085938 L 11.816406 11.085938 C 11.816406 11.539062 12.273438 11.949219 12.8125 11.949219 C 13.261719 11.949219 13.761719 11.636719 13.761719 11.257812 C 13.761719 10.953125 13.765625 10.65625 13.761719 10.355469 C 13.753906 9.957031 13.234375 9.683594 12.949219 9.675781 C 12.789062 9.675781 12.464844 9.71875 12.351562 9.828125 L 12.351562 8.992188 L 13.746094 8.992188 L 13.746094 8.542969 L 12.257812 8.542969 L 12.257812 8.535156 Z M 11.816406 8.535156 "/>
</svg>
