<?xml version="1.0" encoding="UTF-8"?>
<svg xmlns="http://www.w3.org/2000/svg" xmlns:xlink="http://www.w3.org/1999/xlink" width="22.254093" height="19" viewBox="0 0 22.254093 19">
<path fill-rule="nonzero" fill="rgb(100%, 84.705883%, 8.235294%)" fill-opacity="1" stroke-width="1.613" stroke-linecap="butt" stroke-linejoin="miter" stroke="rgb(100%, 100%, 100%)" stroke-opacity="1" stroke-miterlimit="4" d="M 20.835938 18.136719 C 14.171875 18.128906 7.648438 18.175781 1.386719 18.191406 C 4.476562 12.746094 7.902344 7.058594 10.996094 1.605469 Z M 20.835938 18.136719 "/>
<path fill="none" stroke-width="0.576" stroke-linecap="butt" stroke-linejoin="miter" stroke="rgb(0%, 0%, 0%)" stroke-opacity="1" stroke-miterlimit="4" d="M 20.886719 18.222656 C 14.1875 18.207031 7.632812 18.257812 1.335938 18.277344 C 4.441406 12.796875 7.886719 7.082031 10.996094 1.605469 Z M 20.886719 18.222656 "/>
<path fill-rule="nonzero" fill="rgb(0%, 0%, 0%)" fill-opacity="1" d="M 9.328125 11.105469 L 8.34375 11.78125 L 8.34375 10.484375 L 9.320312 9.800781 L 10.390625 9.800781 L 10.390625 16.683594 L 9.316406 16.683594 Z M 9.328125 11.105469 "/>
<path fill-rule="nonzero" fill="rgb(0%, 0%, 0%)" fill-opacity="1" d="M 11.371094 8.691406 L 11.371094 10.671875 L 11.941406 10.660156 C 11.941406 10.507812 12.1875 10.417969 12.464844 10.417969 C 12.746094 10.417969 12.945312 10.691406 12.945312 10.828125 L 12.9375 11.410156 C 12.9375 11.636719 12.632812 11.820312 12.425781 11.820312 C 12.222656 11.820312 11.929688 11.675781 11.929688 11.410156 L 11.371094 11.410156 C 11.371094 11.890625 11.859375 12.328125 12.433594 12.328125 C 12.910156 12.328125 13.445312 11.996094 13.445312 11.59375 C 13.445312 11.269531 13.449219 10.949219 13.445312 10.628906 C 13.4375 10.207031 12.882812 9.914062 12.578125 9.90625 C 12.410156 9.90625 12.0625 9.953125 11.941406 10.066406 L 11.941406 9.175781 L 13.429688 9.175781 L 13.429688 8.699219 L 11.839844 8.699219 L 11.839844 8.691406 Z M 11.371094 8.691406 "/>
</svg>
