<?xml version="1.0" encoding="UTF-8"?>
<svg xmlns="http://www.w3.org/2000/svg" xmlns:xlink="http://www.w3.org/1999/xlink" width="22.254093" height="19" viewBox="0 0 22.254093 19">
<path fill-rule="nonzero" fill="rgb(100%, 84.705883%, 8.235294%)" fill-opacity="1" stroke-width="1.613" stroke-linecap="butt" stroke-linejoin="miter" stroke="rgb(100%, 100%, 100%)" stroke-opacity="1" stroke-miterlimit="4" d="M 20.835938 18.136719 C 14.171875 18.128906 7.648438 18.175781 1.386719 18.191406 C 4.476562 12.746094 7.902344 7.058594 10.996094 1.605469 Z M 20.835938 18.136719 "/>
<path fill="none" stroke-width="0.576" stroke-linecap="butt" stroke-linejoin="miter" stroke="rgb(0%, 0%, 0%)" stroke-opacity="1" stroke-miterlimit="4" d="M 20.886719 18.222656 C 14.1875 18.207031 7.632812 18.257812 1.335938 18.277344 C 4.441406 12.796875 7.886719 7.082031 10.996094 1.605469 Z M 20.886719 18.222656 "/>
<path fill-rule="nonzero" fill="rgb(0%, 0%, 0%)" fill-opacity="1" d="M 10.871094 8.1875 C 9.53125 8.1875 8.410156 9.167969 8.300781 10.4375 L 9.605469 10.4375 C 9.710938 9.871094 10.242188 9.433594 10.871094 9.433594 C 11.582031 9.433594 12.160156 9.984375 12.160156 10.660156 C 12.160156 11.476562 11.566406 11.960938 10.875 11.960938 L 10.296875 11.960938 L 10.296875 13.015625 L 10.875 13.011719 C 11.566406 13.015625 12.160156 13.496094 12.160156 14.316406 C 12.160156 14.992188 11.582031 15.539062 10.871094 15.539062 C 10.242188 15.539062 9.710938 15.109375 9.605469 14.539062 L 8.300781 14.539062 C 8.410156 15.8125 9.53125 16.792969 10.871094 16.792969 C 12.296875 16.792969 13.453125 15.691406 13.453125 14.34375 C 13.453125 13.582031 13.082031 12.917969 12.507812 12.488281 C 13.082031 12.054688 13.453125 11.398438 13.453125 10.632812 C 13.453125 9.28125 12.296875 8.1875 10.871094 8.1875 Z M 10.871094 8.1875 "/>
</svg>
