<?xml version="1.0" encoding="UTF-8"?>
<svg xmlns="http://www.w3.org/2000/svg" xmlns:xlink="http://www.w3.org/1999/xlink" width="22.254093" height="19" viewBox="0 0 22.254093 19">
<path fill-rule="nonzero" fill="rgb(100%, 84.705883%, 8.235294%)" fill-opacity="1" stroke-width="1.613" stroke-linecap="butt" stroke-linejoin="miter" stroke="rgb(100%, 100%, 100%)" stroke-opacity="1" stroke-miterlimit="4" d="M 20.835938 18.136719 C 14.171875 18.128906 7.648438 18.175781 1.386719 18.191406 C 4.476562 12.746094 7.902344 7.058594 10.996094 1.605469 Z M 20.835938 18.136719 "/>
<path fill="none" stroke-width="0.576" stroke-linecap="butt" stroke-linejoin="miter" stroke="rgb(0%, 0%, 0%)" stroke-opacity="1" stroke-miterlimit="4" d="M 20.886719 18.222656 C 14.1875 18.207031 7.632812 18.257812 1.335938 18.277344 C 4.441406 12.796875 7.886719 7.082031 10.996094 1.605469 Z M 20.886719 18.222656 "/>
<path fill-rule="nonzero" fill="rgb(0%, 0%, 0%)" fill-opacity="1" d="M 13.242188 16.527344 L 8.980469 16.527344 L 8.980469 15.304688 L 11.875 10.941406 C 13.242188 8.839844 9.949219 8.078125 9.949219 10.136719 L 9.949219 10.933594 L 8.871094 10.933594 L 8.871094 10.222656 C 8.871094 9.042969 9.332031 7.921875 11.210938 7.921875 C 13.085938 7.921875 14.007812 9.949219 12.914062 11.585938 L 10.355469 15.308594 L 13.242188 15.308594 L 13.242188 16.527344 "/>
</svg>
