<?xml version="1.0" encoding="UTF-8"?>
<svg xmlns="http://www.w3.org/2000/svg" xmlns:xlink="http://www.w3.org/1999/xlink" width="7" height="21" viewBox="0 0 7 21">
<rect x="-0.7" y="-2.1" width="8.4" height="25.2" fill="rgb(10.196078%, 10.196078%, 10.196078%)" fill-opacity="1"/>
<path fill-rule="nonzero" fill="rgb(0%, 100%, 0%)" fill-opacity="1" stroke-width="0.0481541" stroke-linecap="butt" stroke-linejoin="miter" stroke="rgb(40.392157%, 40.392157%, 40.392157%)" stroke-opacity="1" stroke-miterlimit="4" d="M 1.48208 0.926042 C 1.48208 1.233 1.233 1.48208 0.926042 1.48208 C 0.619084 1.48208 0.370003 1.233 0.370003 0.926042 C 0.370003 0.619084 0.619084 0.370003 0.926042 0.370003 C 1.233 0.370003 1.48208 0.619084 1.48208 0.926042 Z M 1.48208 0.926042 " transform="matrix(3.779528, 0, 0, 3.779528, 0, 0.000000225277)"/>
<path fill-rule="nonzero" fill="rgb(9.803922%, 9.803922%, 9.803922%)" fill-opacity="1" stroke-width="0.0481541" stroke-linecap="butt" stroke-linejoin="miter" stroke="rgb(40%, 40%, 40%)" stroke-opacity="1" stroke-miterlimit="4" d="M 1.48208 2.778125 C 1.48208 3.085083 1.233 3.334163 0.926042 3.334163 C 0.619084 3.334163 0.370003 3.085083 0.370003 2.778125 C 0.370003 2.471167 0.619084 2.222086 0.926042 2.222086 C 1.233 2.222086 1.48208 2.471167 1.48208 2.778125 Z M 1.48208 2.778125 " transform="matrix(3.779528, 0, 0, 3.779528, 0, 0.000000225277)"/>
<path fill-rule="nonzero" fill="rgb(100%, 100%, 0%)" fill-opacity="1" stroke-width="0.0481541" stroke-linecap="butt" stroke-linejoin="miter" stroke="rgb(40%, 40%, 40%)" stroke-opacity="1" stroke-miterlimit="4" d="M 1.48208 4.630208 C 1.48208 4.937166 1.233 5.186246 0.926042 5.186246 C 0.619084 5.186246 0.370003 4.937166 0.370003 4.630208 C 0.370003 4.32325 0.619084 4.074169 0.926042 4.074169 C 1.233 4.074169 1.48208 4.32325 1.48208 4.630208 Z M 1.48208 4.630208 " transform="matrix(3.779528, 0, 0, 3.779528, 0, 0.000000225277)"/>
</svg>
