<?xml version="1.0" encoding="UTF-8"?>
<svg xmlns="http://www.w3.org/2000/svg" xmlns:xlink="http://www.w3.org/1999/xlink" width="11.839891" height="12" viewBox="0 0 11.839891 12">
<defs>
<filter id="filter-remove-color" x="0%" y="0%" width="100%" height="100%">
<feColorMatrix color-interpolation-filters="sRGB" values="0 0 0 0 1 0 0 0 0 1 0 0 0 0 1 0 0 0 1 0" />
</filter>
<mask id="mask-0">
<g filter="url(#filter-remove-color)">
<rect x="-1.183989" y="-1.2" width="14.207869" height="14.4" fill="rgb(0%, 0%, 0%)" fill-opacity="0.96"/>
</g>
</mask>
<clipPath id="clip-0">
<rect x="0" y="0" width="12" height="12"/>
</clipPath>
<g id="source-5" clip-path="url(#clip-0)">
<path fill-rule="nonzero" fill="rgb(100%, 1.176471%, 0%)" fill-opacity="1" d="M 11.476562 0 L 0 11.457031 L 0 12 L 0.578125 12 L 11.839844 0.753906 L 11.839844 0 Z M 11.476562 0 "/>
</g>
<mask id="mask-1">
<g filter="url(#filter-remove-color)">
<rect x="-1.183989" y="-1.2" width="14.207869" height="14.4" fill="rgb(0%, 0%, 0%)" fill-opacity="0.96"/>
</g>
</mask>
<clipPath id="clip-1">
<rect x="0" y="0" width="12" height="12"/>
</clipPath>
<g id="source-8" clip-path="url(#clip-1)">
<path fill-rule="nonzero" fill="rgb(0%, 0%, 0%)" fill-opacity="1" d="M 7.164062 9.445312 C 7.164062 10.132812 6.605469 10.6875 5.921875 10.6875 C 5.234375 10.6875 4.675781 10.132812 4.675781 9.445312 C 4.675781 8.757812 5.234375 8.203125 5.921875 8.203125 C 6.605469 8.203125 7.164062 8.757812 7.164062 9.445312 Z M 7.164062 9.445312 "/>
</g>
<mask id="mask-2">
<g filter="url(#filter-remove-color)">
<rect x="-1.183989" y="-1.2" width="14.207869" height="14.4" fill="rgb(0%, 0%, 0%)" fill-opacity="0.96"/>
</g>
</mask>
<clipPath id="clip-2">
<rect x="0" y="0" width="12" height="12"/>
</clipPath>
<g id="source-11" clip-path="url(#clip-2)">
<path fill-rule="nonzero" fill="rgb(0%, 0%, 0%)" fill-opacity="1" d="M 7.164062 2.554688 C 7.164062 3.242188 6.605469 3.796875 5.921875 3.796875 C 5.234375 3.796875 4.675781 3.242188 4.675781 2.554688 C 4.675781 1.867188 5.234375 1.3125 5.921875 1.3125 C 6.605469 1.3125 7.164062 1.867188 7.164062 2.554688 Z M 7.164062 2.554688 "/>
</g>
</defs>
<path fill-rule="nonzero" fill="rgb(100%, 100%, 100%)" fill-opacity="1" d="M 0 0 L 11.839844 0 L 11.839844 12 L 0 12 Z M 0 0 "/>
<g mask="url(#mask-0)">
<use xlink:href="#source-5"/>
</g>
<g mask="url(#mask-1)">
<use xlink:href="#source-8"/>
</g>
<g mask="url(#mask-2)">
<use xlink:href="#source-11"/>
</g>
</svg>
