<?xml version="1.0" encoding="UTF-8"?>
<svg xmlns="http://www.w3.org/2000/svg" xmlns:xlink="http://www.w3.org/1999/xlink" width="11.839891" height="12" viewBox="0 0 11.839891 12">
<path fill-rule="nonzero" fill="rgb(100%, 100%, 100%)" fill-opacity="1" d="M 0 0 L 11.839844 0 L 11.839844 12 L 0 12 Z M 0 0 "/>
<path fill-rule="nonzero" fill="rgb(100%, 0%, 0%)" fill-opacity="1" d="M 11.484375 -0.351562 L -0.355469 11.648438 L 0.355469 12.351562 L 12.195312 0.351562 Z M 11.484375 -0.351562 "/>
<path fill-rule="nonzero" fill="rgb(0%, 0%, 0%)" fill-opacity="1" d="M 7.164062 2.554688 C 7.164062 3.222656 6.605469 3.765625 5.921875 3.765625 C 5.234375 3.765625 4.675781 3.222656 4.675781 2.554688 C 4.675781 1.886719 5.234375 1.34375 5.921875 1.34375 C 6.605469 1.34375 7.164062 1.886719 7.164062 2.554688 Z M 7.164062 2.554688 "/>
<path fill-rule="nonzero" fill="rgb(0%, 0%, 0%)" fill-opacity="1" d="M 7.164062 9.445312 C 7.164062 10.113281 6.605469 10.65625 5.921875 10.65625 C 5.234375 10.65625 4.675781 10.113281 4.675781 9.445312 C 4.675781 8.777344 5.234375 8.234375 5.921875 8.234375 C 6.605469 8.234375 7.164062 8.777344 7.164062 9.445312 Z M 7.164062 9.445312 "/>
</svg>
