<?xml version="1.0" encoding="UTF-8"?>
<svg xmlns="http://www.w3.org/2000/svg" xmlns:xlink="http://www.w3.org/1999/xlink" width="14.900223" height="15" viewBox="0 0 14.900223 15">
<path fill-rule="nonzero" fill="rgb(51.372552%, 51.372552%, 51.372552%)" fill-opacity="1" d="M 0 0 L 14.898438 0 L 14.898438 15 L 0 15 Z M 0 0 "/>
<path fill-rule="nonzero" fill="rgb(0%, 0%, 0%)" fill-opacity="1" d="M 7.449219 13.886719 C 3.851562 13.886719 0.929688 10.96875 0.929688 7.367188 C 0.929688 3.765625 3.851562 0.847656 7.449219 0.847656 C 11.050781 0.847656 13.96875 3.765625 13.96875 7.367188 C 13.96875 10.96875 11.050781 13.886719 7.449219 13.886719 Z M 7.449219 13.886719 "/>
<path fill-rule="evenodd" fill="rgb(100%, 100%, 100%)" fill-opacity="1" d="M 6.007812 2.714844 L 3.167969 10.332031 L 4.898438 10.332031 L 5.785156 8.21875 L 9.113281 8.21875 L 10 10.332031 L 11.730469 10.332031 L 8.890625 2.714844 Z M 7.449219 4.265625 L 8.382812 6.488281 L 6.515625 6.488281 Z M 7.449219 4.265625 "/>
</svg>
