<?xml version="1.0" encoding="UTF-8"?>
<svg xmlns="http://www.w3.org/2000/svg" xmlns:xlink="http://www.w3.org/1999/xlink" width="10" height="10.066964" viewBox="0 0 10 10.066964">
<path fill-rule="nonzero" fill="rgb(51.372549%, 51.372549%, 51.372549%)" fill-opacity="1" d="M 0 0 L 10 0 L 10 10.066406 L 0 10.066406 Z M 0 0 "/>
<path fill-rule="nonzero" fill="rgb(0%, 0%, 0%)" fill-opacity="1" d="M 5 9.320312 C 2.585938 9.320312 0.625 7.363281 0.625 4.945312 C 0.625 2.527344 2.585938 0.570312 5 0.570312 C 7.417969 0.570312 9.375 2.527344 9.375 4.945312 C 9.375 7.363281 7.417969 9.320312 5 9.320312 Z M 5 9.320312 "/>
<path fill-rule="evenodd" fill="rgb(100%, 100%, 100%)" fill-opacity="1" d="M 4.03125 2.183594 L 2.125 7.292969 L 3.289062 7.292969 L 3.882812 5.875 L 6.117188 5.875 L 6.710938 7.292969 L 7.875 7.292969 L 5.96875 2.183594 Z M 5 3.222656 L 5.625 4.714844 L 4.375 4.714844 Z M 5 3.222656 "/>
</svg>
