<?xml version="1.0" encoding="UTF-8"?>
<svg xmlns="http://www.w3.org/2000/svg" xmlns:xlink="http://www.w3.org/1999/xlink" width="10" height="14" viewBox="0 0 10 14">
<rect x="-1" y="-1.4" width="12" height="16.8" fill="rgb(0%, 0%, 0%)" fill-opacity="1"/>
<path fill-rule="nonzero" fill="rgb(99.215686%, 79.215686%, 1.960784%)" fill-opacity="1" d="M 9.113281 2.992188 C 9.113281 3.980469 8.308594 4.78125 7.320312 4.78125 C 6.332031 4.78125 5.53125 3.980469 5.53125 2.992188 C 5.53125 2.003906 6.332031 1.199219 7.320312 1.199219 C 8.308594 1.199219 9.113281 2.003906 9.113281 2.992188 Z M 9.113281 2.992188 "/>
<path fill-rule="nonzero" fill="rgb(23.529412%, 87.843137%, 71.764706%)" fill-opacity="1" d="M 4.46875 11.011719 C 4.46875 12 3.664062 12.800781 2.675781 12.800781 C 1.6875 12.800781 0.886719 12 0.886719 11.011719 C 0.886719 10.023438 1.6875 9.21875 2.675781 9.21875 C 3.664062 9.21875 4.46875 10.023438 4.46875 11.011719 Z M 4.46875 11.011719 "/>
</svg>
