<?xml version="1.0" encoding="UTF-8"?>
<svg xmlns="http://www.w3.org/2000/svg" xmlns:xlink="http://www.w3.org/1999/xlink" width="14.900221" height="15" viewBox="0 0 14.900221 15">
<path fill-rule="nonzero" fill="rgb(51.372552%, 51.372552%, 51.372552%)" fill-opacity="0.513726" d="M 0 0 L 14.898438 0 L 14.898438 15 L 0 15 Z M 0 0 "/>
<path fill-rule="nonzero" fill="rgb(0%, 0%, 0%)" fill-opacity="0.513726" d="M 7.449219 13.96875 C 3.851562 13.96875 0.929688 11.050781 0.929688 7.449219 C 0.929688 3.851562 3.851562 0.929688 7.449219 0.929688 C 11.050781 0.929688 13.96875 3.851562 13.96875 7.449219 C 13.96875 11.050781 11.050781 13.96875 7.449219 13.96875 Z M 7.449219 13.96875 "/>
<path fill-rule="nonzero" fill="rgb(99.215686%, 45.882353%, 1.176471%)" fill-opacity="1" d="M 6.667969 2.929688 L 8.125 2.929688 L 8.125 11.996094 L 6.667969 11.996094 Z M 6.667969 2.929688 "/>
<path fill-rule="nonzero" fill="rgb(99.215686%, 45.882353%, 1.176471%)" fill-opacity="1" d="M 2.863281 8.191406 L 2.863281 6.734375 L 11.929688 6.734375 L 11.929688 8.191406 Z M 2.863281 8.191406 "/>
</svg>
