<?xml version="1.0" encoding="UTF-8"?>
<svg xmlns="http://www.w3.org/2000/svg" xmlns:xlink="http://www.w3.org/1999/xlink" width="16" height="16" viewBox="0 0 16 16">
<path fill-rule="nonzero" fill="rgb(100%, 100%, 100%)" fill-opacity="1" stroke-width="0.781956" stroke-linecap="round" stroke-linejoin="miter" stroke="rgb(0%, 0%, 0%)" stroke-opacity="1" stroke-miterlimit="4" d="M 0.390625 0.390625 L 15.609375 0.390625 L 15.609375 15.609375 L 0.390625 15.609375 Z M 0.390625 0.390625 "/>
<path fill-rule="nonzero" fill="rgb(0%, 0%, 0%)" fill-opacity="1" d="M 13.125 10.316406 L 13.125 5.691406 C 13.125 5.167969 12.984375 4.757812 12.699219 4.464844 C 12.417969 4.167969 12.050781 4.023438 11.59375 4.023438 C 11.128906 4.023438 10.757812 4.167969 10.476562 4.464844 C 10.199219 4.757812 10.058594 5.167969 10.058594 5.691406 L 10.058594 10.316406 C 10.058594 10.847656 10.199219 11.257812 10.476562 11.550781 C 10.757812 11.839844 11.128906 11.984375 11.59375 11.984375 C 12.050781 11.984375 12.417969 11.839844 12.699219 11.550781 C 12.984375 11.257812 13.125 10.847656 13.125 10.316406 Z M 8.496094 10.40625 L 8.496094 5.601562 C 8.496094 4.597656 8.8125 3.824219 9.4375 3.28125 C 10.066406 2.734375 10.785156 2.460938 11.59375 2.460938 C 12.394531 2.460938 13.109375 2.734375 13.738281 3.28125 C 14.371094 3.824219 14.6875 4.597656 14.6875 5.601562 L 14.6875 10.40625 C 14.6875 11.410156 14.371094 12.183594 13.738281 12.726562 C 13.109375 13.269531 12.394531 13.539062 11.59375 13.539062 C 10.785156 13.539062 10.066406 13.269531 9.4375 12.726562 C 8.8125 12.183594 8.496094 11.410156 8.496094 10.40625 Z M 8.496094 10.40625 "/>
<path fill-rule="nonzero" fill="rgb(0%, 0%, 0%)" fill-opacity="1" d="M 3.117188 5.585938 C 3.117188 6.097656 3.277344 6.488281 3.597656 6.75 C 3.921875 7.015625 4.28125 7.148438 4.679688 7.148438 C 5.078125 7.148438 5.4375 7.015625 5.757812 6.75 C 6.082031 6.488281 6.242188 6.097656 6.242188 5.585938 C 6.242188 5.078125 6.082031 4.691406 5.757812 4.425781 C 5.4375 4.15625 5.078125 4.023438 4.679688 4.023438 C 4.28125 4.023438 3.921875 4.15625 3.597656 4.425781 C 3.277344 4.691406 3.117188 5.078125 3.117188 5.585938 Z M 1.359375 10.273438 C 1.359375 9.210938 1.789062 8.394531 2.648438 7.820312 C 2.324219 7.53125 2.058594 7.210938 1.855469 6.863281 C 1.65625 6.507812 1.554688 6.09375 1.554688 5.613281 C 1.554688 4.738281 1.855469 3.992188 2.453125 3.378906 C 3.054688 2.765625 3.796875 2.460938 4.679688 2.460938 C 5.5625 2.460938 6.304688 2.765625 6.902344 3.378906 C 7.503906 3.992188 7.804688 4.738281 7.804688 5.613281 C 7.804688 6.09375 7.703125 6.507812 7.5 6.863281 C 7.292969 7.210938 7.035156 7.53125 6.722656 7.820312 C 7.574219 8.398438 8 9.214844 8 10.273438 C 8 11.238281 7.671875 12.027344 7.011719 12.636719 C 6.359375 13.238281 5.582031 13.539062 4.679688 13.539062 C 3.773438 13.539062 2.992188 13.238281 2.339844 12.636719 C 1.6875 12.027344 1.359375 11.238281 1.359375 10.273438 Z M 2.921875 10.257812 C 2.921875 10.757812 3.097656 11.171875 3.445312 11.5 C 3.800781 11.824219 4.210938 11.984375 4.679688 11.984375 C 5.144531 11.984375 5.554688 11.824219 5.90625 11.5 C 6.265625 11.171875 6.445312 10.757812 6.445312 10.257812 C 6.445312 9.757812 6.265625 9.347656 5.90625 9.015625 C 5.554688 8.6875 5.144531 8.523438 4.679688 8.523438 C 4.210938 8.523438 3.800781 8.6875 3.445312 9.015625 C 3.097656 9.347656 2.921875 9.757812 2.921875 10.257812 Z M 2.921875 10.257812 "/>
</svg>
