<?xml version="1.0" encoding="UTF-8"?>
<svg xmlns="http://www.w3.org/2000/svg" xmlns:xlink="http://www.w3.org/1999/xlink" width="16" height="16" viewBox="0 0 16 16">
<path fill-rule="nonzero" fill="rgb(100%, 100%, 100%)" fill-opacity="1" stroke-width="1.77778" stroke-linecap="butt" stroke-linejoin="bevel" stroke="rgb(100%, 51.764709%, 0%)" stroke-opacity="1" stroke-miterlimit="3" d="M 15.109377 8.000001 C 15.109377 11.925783 11.925783 15.109377 8.000001 15.109377 C 4.074219 15.109377 0.890625 11.925783 0.890625 8.000001 C 0.890625 4.074219 4.074219 0.890625 8.000001 0.890625 C 11.925783 0.890625 15.109377 4.074219 15.109377 8.000001 Z M 15.109377 8.000001 " transform="matrix(1, 0, 0, 1, 0, 0)"/>
<path fill-rule="nonzero" fill="rgb(0%, 0%, 0%)" fill-opacity="1" d="M 4.019531 11.03125 L 4.019531 5.886719 L 3.152344 6.515625 L 3.152344 5.59375 L 4.019531 4.96875 L 4.894531 4.96875 L 4.894531 11.03125 Z M 4.019531 11.03125 "/>
<path fill-rule="nonzero" fill="rgb(0%, 0%, 0%)" fill-opacity="1" d="M 7.171875 11.03125 L 7.171875 5.886719 L 6.304688 6.515625 L 6.304688 5.59375 L 7.171875 4.96875 L 8.042969 4.96875 L 8.042969 11.03125 Z M 7.171875 11.03125 "/>
<path fill-rule="nonzero" fill="rgb(0%, 0%, 0%)" fill-opacity="1" d="M 11.988281 9.269531 L 11.988281 6.734375 C 11.988281 6.449219 11.910156 6.226562 11.757812 6.0625 C 11.605469 5.902344 11.402344 5.820312 11.152344 5.820312 C 10.898438 5.820312 10.691406 5.902344 10.539062 6.0625 C 10.386719 6.226562 10.3125 6.449219 10.3125 6.734375 L 10.3125 9.269531 C 10.3125 9.558594 10.386719 9.78125 10.539062 9.945312 C 10.691406 10.105469 10.898438 10.179688 11.152344 10.179688 C 11.402344 10.179688 11.605469 10.105469 11.757812 9.945312 C 11.910156 9.78125 11.988281 9.558594 11.988281 9.269531 Z M 9.457031 9.320312 L 9.457031 6.6875 C 9.457031 6.136719 9.628906 5.714844 9.972656 5.414062 C 10.316406 5.117188 10.710938 4.96875 11.152344 4.96875 C 11.589844 4.96875 11.980469 5.117188 12.328125 5.414062 C 12.671875 5.714844 12.847656 6.136719 12.847656 6.6875 L 12.847656 9.320312 C 12.847656 9.867188 12.671875 10.289062 12.328125 10.585938 C 11.980469 10.886719 11.589844 11.03125 11.152344 11.03125 C 10.710938 11.03125 10.316406 10.886719 9.972656 10.585938 C 9.628906 10.289062 9.457031 9.867188 9.457031 9.320312 Z M 9.457031 9.320312 "/>
</svg>
