<?xml version="1.0" encoding="UTF-8"?>
<svg xmlns="http://www.w3.org/2000/svg" xmlns:xlink="http://www.w3.org/1999/xlink" width="16" height="16" viewBox="0 0 16 16">
<path fill-rule="nonzero" fill="rgb(100%, 100%, 100%)" fill-opacity="1" stroke-width="1.77778" stroke-linecap="butt" stroke-linejoin="bevel" stroke="rgb(100%, 51.764709%, 0%)" stroke-opacity="1" stroke-miterlimit="3" d="M 15.109377 8.000001 C 15.109377 11.925783 11.925783 15.109377 8.000001 15.109377 C 4.074219 15.109377 0.890625 11.925783 0.890625 8.000001 C 0.890625 4.074219 4.074219 0.890625 8.000001 0.890625 C 11.925783 0.890625 15.109377 4.074219 15.109377 8.000001 Z M 15.109377 8.000001 " transform="matrix(1, 0, 0, 1, 0, 0)"/>
<path fill-rule="nonzero" fill="rgb(0%, 0%, 0%)" fill-opacity="1" d="M 4.019531 11.03125 L 4.019531 5.886719 L 3.152344 6.515625 L 3.152344 5.59375 L 4.019531 4.96875 L 4.894531 4.96875 L 4.894531 11.03125 Z M 4.019531 11.03125 "/>
<path fill-rule="nonzero" fill="rgb(0%, 0%, 0%)" fill-opacity="1" d="M 11.988281 9.269531 L 11.988281 6.734375 C 11.988281 6.449219 11.910156 6.226562 11.757812 6.0625 C 11.605469 5.902344 11.402344 5.820312 11.152344 5.820312 C 10.898438 5.820312 10.691406 5.902344 10.539062 6.0625 C 10.386719 6.226562 10.3125 6.449219 10.3125 6.734375 L 10.3125 9.269531 C 10.3125 9.558594 10.386719 9.78125 10.539062 9.945312 C 10.691406 10.105469 10.898438 10.179688 11.152344 10.179688 C 11.402344 10.179688 11.605469 10.105469 11.757812 9.945312 C 11.910156 9.78125 11.988281 9.558594 11.988281 9.269531 Z M 9.457031 9.320312 L 9.457031 6.6875 C 9.457031 6.136719 9.628906 5.714844 9.972656 5.414062 C 10.316406 5.117188 10.710938 4.96875 11.152344 4.96875 C 11.589844 4.96875 11.980469 5.117188 12.328125 5.414062 C 12.671875 5.714844 12.847656 6.136719 12.847656 6.6875 L 12.847656 9.320312 C 12.847656 9.867188 12.671875 10.289062 12.328125 10.585938 C 11.980469 10.886719 11.589844 11.03125 11.152344 11.03125 C 10.710938 11.03125 10.316406 10.886719 9.972656 10.585938 C 9.628906 10.289062 9.457031 9.867188 9.457031 9.320312 Z M 9.457031 9.320312 "/>
<path fill-rule="nonzero" fill="rgb(0%, 0%, 0%)" fill-opacity="1" d="M 6.792969 8.289062 L 6.792969 7.53125 L 7.085938 7.53125 C 7.367188 7.53125 7.589844 7.457031 7.753906 7.296875 C 7.921875 7.136719 8.007812 6.933594 8.007812 6.6875 C 8.007812 6.445312 7.917969 6.238281 7.746094 6.074219 C 7.574219 5.902344 7.371094 5.824219 7.132812 5.824219 C 6.953125 5.824219 6.78125 5.886719 6.625 6.003906 C 6.460938 6.121094 6.355469 6.304688 6.3125 6.542969 L 5.453125 6.542969 C 5.492188 6.121094 5.664062 5.757812 5.984375 5.445312 C 6.304688 5.125 6.675781 4.96875 7.101562 4.96875 C 7.632812 4.96875 8.058594 5.144531 8.378906 5.5 C 8.695312 5.84375 8.859375 6.238281 8.859375 6.667969 C 8.859375 6.898438 8.8125 7.121094 8.722656 7.339844 C 8.632812 7.554688 8.464844 7.746094 8.21875 7.902344 C 8.472656 8.0625 8.652344 8.261719 8.765625 8.496094 C 8.871094 8.730469 8.925781 8.96875 8.925781 9.207031 C 8.925781 9.765625 8.75 10.207031 8.402344 10.539062 C 8.054688 10.867188 7.625 11.03125 7.113281 11.03125 C 6.714844 11.03125 6.351562 10.90625 6.027344 10.648438 C 5.699219 10.382812 5.503906 10.003906 5.425781 9.5 L 6.277344 9.5 C 6.355469 9.707031 6.460938 9.867188 6.601562 9.996094 C 6.730469 10.117188 6.921875 10.183594 7.167969 10.183594 C 7.402344 10.183594 7.613281 10.097656 7.792969 9.929688 C 7.976562 9.765625 8.066406 9.527344 8.066406 9.234375 C 8.066406 8.9375 7.976562 8.707031 7.792969 8.539062 C 7.617188 8.371094 7.398438 8.289062 7.152344 8.289062 Z M 6.792969 8.289062 "/>
</svg>
