<?xml version="1.0" encoding="UTF-8"?>
<svg xmlns="http://www.w3.org/2000/svg" xmlns:xlink="http://www.w3.org/1999/xlink" width="16" height="15.657013" viewBox="0 0 16 15.657013">
<path fill-rule="nonzero" fill="rgb(100%, 94.901961%, 0%)" fill-opacity="1" stroke-width="0.8" stroke-linecap="butt" stroke-linejoin="miter" stroke="rgb(0%, 0%, 0%)" stroke-opacity="1" stroke-miterlimit="4" d="M 69.769932 78.486102 L 101.180065 78.486102 C 104.391735 78.486102 107.003894 81.098261 107.003894 84.309931 L 107.003894 114.777974 C 107.003894 118.00035 104.391735 120.601803 101.180065 120.601803 L 69.769932 120.601803 C 66.558262 120.601803 63.946103 118.00035 63.946103 114.777974 L 63.946103 84.309931 C 63.946103 81.098261 66.558262 78.486102 69.769932 78.486102 Z M 69.769932 78.486102 " transform="matrix(0.36488, 0, 0, 0.36488, -23.188139, -28.493498)"/>
<path fill-rule="nonzero" fill="rgb(0%, 0%, 0%)" fill-opacity="1" d="M 1.417969 1.1875 L 4.40625 1.1875 L 4.40625 7.660156 L 1.417969 7.660156 Z M 1.417969 1.1875 "/>
<path fill-rule="nonzero" fill="rgb(0%, 0%, 0%)" fill-opacity="1" d="M 11.59375 1.191406 L 14.582031 1.191406 L 14.582031 7.664062 L 11.59375 7.664062 Z M 11.59375 1.191406 "/>
<path fill-rule="nonzero" fill="rgb(0%, 0%, 0%)" fill-opacity="1" d="M 1.417969 1.191406 L 4.40625 1.191406 L 4.40625 7.664062 L 1.417969 7.664062 Z M 1.417969 1.191406 "/>
</svg>
