<?xml version="1.0" encoding="UTF-8"?>
<svg xmlns="http://www.w3.org/2000/svg" xmlns:xlink="http://www.w3.org/1999/xlink" width="16" height="16" viewBox="0 0 16 16">
<path fill-rule="nonzero" fill="rgb(0%, 0%, 0%)" fill-opacity="1" stroke-width="1" stroke-linecap="round" stroke-linejoin="miter" stroke="rgb(0%, 0%, 0%)" stroke-opacity="1" stroke-miterlimit="4" d="M 0.498917 0.498917 L 15.719833 0.498917 L 15.719833 15.719833 L 0.498917 15.719833 Z M 0.498917 0.498917 " transform="matrix(0.986513, 0, 0, 0.986513, 0, 0)"/>
<path fill-rule="nonzero" fill="rgb(90.588236%, 47.450981%, 9.803922%)" fill-opacity="1" d="M 7.476562 13.726562 C 6.859375 13.589844 6.367188 13.371094 6.003906 13.070312 C 5.644531 12.773438 5.3125 12.363281 5.015625 11.839844 C 4.953125 11.664062 4.914062 11.539062 4.894531 11.46875 C 4.878906 11.398438 4.839844 11.230469 4.785156 10.96875 C 4.773438 10.894531 4.765625 10.8125 4.761719 10.722656 C 4.757812 10.625 4.753906 10.398438 4.753906 10.050781 C 4.753906 9.695312 4.753906 9.15625 4.753906 8.433594 C 4.753906 7.707031 4.753906 6.675781 4.753906 5.339844 C 4.847656 4.554688 5.074219 3.9375 5.441406 3.492188 C 5.804688 3.042969 6.347656 2.667969 7.066406 2.359375 C 8.324219 2.101562 9.464844 2.421875 10.488281 3.320312 C 10.945312 3.902344 11.199219 4.652344 11.242188 5.566406 C 10.964844 5.566406 10.691406 5.566406 10.417969 5.566406 C 10.152344 5.566406 9.882812 5.566406 9.617188 5.566406 C 9.523438 5.039062 9.390625 4.671875 9.210938 4.460938 C 9.035156 4.246094 8.6875 4.058594 8.167969 3.898438 C 7.640625 3.898438 7.234375 3.988281 6.949219 4.171875 C 6.671875 4.34375 6.464844 4.6875 6.328125 5.195312 C 6.320312 5.605469 6.316406 6.015625 6.3125 6.429688 C 6.3125 6.839844 6.3125 7.246094 6.3125 7.652344 C 7.015625 7.246094 7.742188 7.023438 8.492188 6.976562 C 9.246094 6.925781 9.941406 7.214844 10.574219 7.847656 C 10.941406 8.3125 11.152344 8.820312 11.207031 9.363281 C 11.261719 9.902344 11.257812 10.464844 11.199219 11.050781 C 11.011719 11.878906 10.703125 12.484375 10.265625 12.871094 C 9.832031 13.257812 9.210938 13.542969 8.398438 13.726562 C 8.246094 13.726562 8.089844 13.726562 7.9375 13.726562 C 7.78125 13.726562 7.628906 13.726562 7.476562 13.726562 Z M 7.789062 12.117188 C 8.640625 12.117188 9.183594 11.816406 9.425781 11.214844 C 9.671875 10.613281 9.664062 9.949219 9.402344 9.226562 C 9.160156 8.886719 8.917969 8.671875 8.667969 8.585938 C 8.421875 8.5 8.101562 8.457031 7.707031 8.457031 C 7.121094 8.613281 6.757812 8.875 6.621094 9.234375 C 6.480469 9.589844 6.410156 10.039062 6.410156 10.589844 C 6.484375 11.082031 6.613281 11.433594 6.796875 11.636719 C 6.980469 11.84375 7.3125 12.003906 7.789062 12.117188 Z M 7.789062 12.117188 "/>
</svg>
