<?xml version="1.0" encoding="UTF-8"?>
<svg xmlns="http://www.w3.org/2000/svg" xmlns:xlink="http://www.w3.org/1999/xlink" width="16" height="16" viewBox="0 0 16 16">
<path fill-rule="nonzero" fill="rgb(100%, 100%, 100%)" fill-opacity="1" stroke-width="0.781956" stroke-linecap="round" stroke-linejoin="miter" stroke="rgb(0%, 0%, 0%)" stroke-opacity="1" stroke-miterlimit="4" d="M 0.390625 0.390625 L 15.609375 0.390625 L 15.609375 15.609375 L 0.390625 15.609375 Z M 0.390625 0.390625 "/>
<path fill-rule="nonzero" fill="rgb(0%, 0%, 0%)" fill-opacity="1" d="M 3.953125 13.554688 C 3.355469 13.421875 2.878906 13.207031 2.523438 12.917969 C 2.175781 12.628906 1.855469 12.230469 1.566406 11.722656 C 1.507812 11.554688 1.46875 11.433594 1.449219 11.363281 C 1.433594 11.296875 1.398438 11.132812 1.34375 10.878906 C 1.332031 10.808594 1.324219 10.730469 1.320312 10.640625 C 1.316406 10.542969 1.3125 10.328125 1.3125 9.988281 C 1.3125 9.644531 1.3125 9.121094 1.3125 8.417969 C 1.3125 7.714844 1.3125 6.71875 1.3125 5.421875 C 1.402344 4.660156 1.625 4.058594 1.976562 3.625 C 2.332031 3.191406 2.859375 2.828125 3.554688 2.527344 C 4.777344 2.277344 5.882812 2.589844 6.875 3.460938 C 7.320312 4.027344 7.5625 4.75 7.609375 5.636719 C 7.339844 5.636719 7.070312 5.636719 6.808594 5.636719 C 6.546875 5.636719 6.289062 5.636719 6.03125 5.636719 C 5.941406 5.128906 5.808594 4.773438 5.632812 4.570312 C 5.464844 4.359375 5.128906 4.175781 4.625 4.023438 C 4.113281 4.023438 3.71875 4.109375 3.445312 4.285156 C 3.175781 4.453125 2.972656 4.785156 2.839844 5.277344 C 2.832031 5.679688 2.828125 6.078125 2.824219 6.476562 C 2.824219 6.875 2.824219 7.269531 2.824219 7.664062 C 3.503906 7.269531 4.210938 7.050781 4.9375 7.007812 C 5.671875 6.957031 6.34375 7.238281 6.957031 7.851562 C 7.316406 8.304688 7.519531 8.796875 7.570312 9.324219 C 7.625 9.847656 7.621094 10.394531 7.5625 10.960938 C 7.382812 11.761719 7.082031 12.351562 6.660156 12.726562 C 6.238281 13.097656 5.636719 13.375 4.847656 13.554688 C 4.699219 13.554688 4.550781 13.554688 4.402344 13.554688 C 4.25 13.554688 4.101562 13.554688 3.953125 13.554688 Z M 4.257812 11.992188 C 5.082031 11.992188 5.609375 11.703125 5.84375 11.117188 C 6.082031 10.535156 6.074219 9.890625 5.820312 9.1875 C 5.585938 8.859375 5.351562 8.652344 5.109375 8.570312 C 4.871094 8.484375 4.558594 8.441406 4.175781 8.441406 C 3.609375 8.597656 3.257812 8.847656 3.121094 9.195312 C 2.988281 9.539062 2.921875 9.980469 2.921875 10.511719 C 2.988281 10.992188 3.113281 11.328125 3.292969 11.527344 C 3.472656 11.730469 3.792969 11.882812 4.257812 11.992188 Z M 4.257812 11.992188 "/>
<path fill-rule="nonzero" fill="rgb(0%, 0%, 0%)" fill-opacity="1" d="M 13.125 10.316406 L 13.125 5.691406 C 13.125 5.167969 12.984375 4.757812 12.699219 4.464844 C 12.417969 4.167969 12.050781 4.023438 11.59375 4.023438 C 11.128906 4.023438 10.757812 4.167969 10.476562 4.464844 C 10.199219 4.757812 10.058594 5.167969 10.058594 5.691406 L 10.058594 10.316406 C 10.058594 10.847656 10.199219 11.257812 10.476562 11.550781 C 10.757812 11.839844 11.128906 11.984375 11.59375 11.984375 C 12.050781 11.984375 12.417969 11.839844 12.699219 11.550781 C 12.984375 11.257812 13.125 10.847656 13.125 10.316406 Z M 8.496094 10.40625 L 8.496094 5.601562 C 8.496094 4.597656 8.8125 3.824219 9.4375 3.28125 C 10.066406 2.734375 10.785156 2.460938 11.59375 2.460938 C 12.394531 2.460938 13.109375 2.734375 13.738281 3.28125 C 14.371094 3.824219 14.6875 4.597656 14.6875 5.601562 L 14.6875 10.40625 C 14.6875 11.410156 14.371094 12.183594 13.738281 12.726562 C 13.109375 13.269531 12.394531 13.539062 11.59375 13.539062 C 10.785156 13.539062 10.066406 13.269531 9.4375 12.726562 C 8.8125 12.183594 8.496094 11.410156 8.496094 10.40625 Z M 8.496094 10.40625 "/>
</svg>
