<?xml version="1.0" encoding="UTF-8"?>
<svg xmlns="http://www.w3.org/2000/svg" xmlns:xlink="http://www.w3.org/1999/xlink" width="16" height="15.475022" viewBox="0 0 16 15.475022">
<path fill-rule="nonzero" fill="rgb(0%, 0%, 0%)" fill-opacity="1" d="M 0 0 L 16 0 L 16 15.476562 L 0 15.476562 Z M 0 0 "/>
<path fill-rule="nonzero" fill="rgb(100%, 94.901961%, 0%)" fill-opacity="1" d="M 7.8125 9.664062 L 7.8125 10.722656 L 3.5 10.722656 C 3.5 10.390625 3.550781 10.089844 3.65625 9.804688 C 3.765625 9.496094 3.910156 9.238281 4.101562 9.027344 C 4.25 8.863281 4.421875 8.710938 4.621094 8.566406 C 4.816406 8.402344 5.210938 8.109375 5.800781 7.683594 C 6.089844 7.496094 6.292969 7.316406 6.402344 7.15625 C 6.519531 6.96875 6.574219 6.765625 6.574219 6.554688 C 6.574219 6.292969 6.496094 6.082031 6.34375 5.917969 C 6.1875 5.753906 5.988281 5.667969 5.734375 5.667969 C 5.121094 5.667969 4.800781 6.109375 4.78125 6.980469 L 3.628906 6.980469 C 3.628906 6.929688 3.628906 6.894531 3.628906 6.871094 C 3.628906 6.144531 3.835938 5.574219 4.242188 5.171875 C 4.636719 4.796875 5.148438 4.609375 5.777344 4.609375 C 6.335938 4.609375 6.800781 4.761719 7.175781 5.070312 C 7.582031 5.421875 7.785156 5.882812 7.785156 6.445312 C 7.785156 6.96875 7.625 7.402344 7.296875 7.753906 C 7.191406 7.875 7.089844 7.980469 6.996094 8.074219 C 6.90625 8.144531 6.660156 8.308594 6.261719 8.566406 C 5.890625 8.828125 5.617188 9.027344 5.453125 9.171875 C 5.289062 9.308594 5.140625 9.472656 5.003906 9.664062 Z M 7.8125 9.664062 "/>
<path fill-rule="nonzero" fill="rgb(100%, 94.901961%, 0%)" fill-opacity="1" d="M 12.175781 4.75 L 12.175781 5.8125 L 9.765625 5.8125 L 9.503906 7.15625 C 9.796875 6.847656 10.167969 6.695312 10.617188 6.695312 C 11.058594 6.695312 11.445312 6.8125 11.769531 7.050781 C 12.253906 7.402344 12.5 7.945312 12.5 8.671875 C 12.5 9.378906 12.238281 9.945312 11.71875 10.367188 C 11.316406 10.699219 10.835938 10.867188 10.273438 10.867188 C 9.636719 10.867188 9.128906 10.699219 8.746094 10.367188 C 8.359375 10.019531 8.15625 9.558594 8.136719 8.992188 L 9.3125 8.992188 C 9.335938 9.203125 9.402344 9.378906 9.515625 9.519531 C 9.695312 9.757812 9.949219 9.875 10.277344 9.875 C 10.589844 9.875 10.835938 9.757812 11.023438 9.519531 C 11.199219 9.308594 11.285156 9.039062 11.285156 8.710938 C 11.285156 8.378906 11.195312 8.109375 11.003906 7.898438 C 10.824219 7.683594 10.574219 7.578125 10.269531 7.578125 C 9.890625 7.578125 9.597656 7.753906 9.390625 8.109375 L 8.316406 8.074219 L 8.886719 4.75 Z M 12.175781 4.75 "/>
</svg>
