<?xml version="1.0" encoding="UTF-8"?>
<svg xmlns="http://www.w3.org/2000/svg" xmlns:xlink="http://www.w3.org/1999/xlink" width="10" height="23.047256" viewBox="0 0 10 23.047256">
<path fill-rule="nonzero" fill="rgb(20%, 20%, 20%)" fill-opacity="1" stroke-width="1.02693" stroke-linecap="butt" stroke-linejoin="miter" stroke="rgb(0%, 0%, 0%)" stroke-opacity="1" stroke-miterlimit="4" d="M 0.514921 8.190157 L 6.538524 0.514921 L 18.508007 0.514921 L 24.356732 8.190157 L 24.356732 56.806466 L 0.514921 56.806466 Z M 0.514921 8.190157 " transform="matrix(0.402064, 0, 0, 0.402064, 0, 0)"/>
<path fill="none" stroke-width="0.831652" stroke-linecap="butt" stroke-linejoin="miter" stroke="rgb(0%, 0%, 0%)" stroke-opacity="1" stroke-miterlimit="4" d="M 21.743265 18.449714 C 21.743265 23.589208 17.57532 27.747437 12.435826 27.747437 C 7.296332 27.747437 3.128388 23.589208 3.128388 18.449714 C 3.128388 13.31022 7.296332 9.142275 12.435826 9.142275 C 17.57532 9.142275 21.743265 13.31022 21.743265 18.449714 Z M 21.743265 18.449714 " transform="matrix(0.402064, 0, 0, 0.402064, 0, 0)"/>
<path fill-rule="nonzero" fill="rgb(90.588235%, 47.45098%, 9.803922%)" fill-opacity="1" d="M 8.742188 7.417969 C 8.742188 9.484375 7.066406 11.15625 5 11.15625 C 2.933594 11.15625 1.257812 9.484375 1.257812 7.417969 C 1.257812 5.351562 2.933594 3.675781 5 3.675781 C 7.066406 3.675781 8.742188 5.351562 8.742188 7.417969 Z M 8.742188 7.417969 "/>
</svg>
