<?xml version="1.0" encoding="UTF-8"?>
<svg xmlns="http://www.w3.org/2000/svg" xmlns:xlink="http://www.w3.org/1999/xlink" width="16" height="16" viewBox="0 0 16 16">
<path fill-rule="nonzero" fill="rgb(100%, 94.901961%, 0%)" fill-opacity="1" stroke-width="0.80049" stroke-linecap="butt" stroke-linejoin="miter" stroke="rgb(0%, 0%, 0%)" stroke-opacity="1" stroke-miterlimit="4" d="M 132.542277 5.463265 L 168.451317 5.452075 C 172.132861 5.463265 175.109428 8.506973 175.098238 12.255657 L 175.098238 47.862564 C 175.098238 51.622439 172.121671 54.666147 168.451317 54.666147 L 132.553467 54.666147 C 128.883113 54.666147 125.906546 51.622439 125.906546 47.862564 L 125.906546 12.255657 C 125.895356 8.506973 128.871923 5.463265 132.542277 5.463265 Z M 132.542277 5.463265 " transform="matrix(0.17454, 0.17454, -0.17454, 0.17454, -13.028078, -23.521136)"/>
<path fill-rule="nonzero" fill="rgb(0%, 0%, 0%)" fill-opacity="1" d="M 1.203125 6.199219 L 0.59375 6.808594 C -0.0664062 7.464844 -0.0703125 8.515625 0.558594 9.144531 L 1.222656 9.808594 L 14.765625 9.808594 L 15.394531 9.179688 C 16.050781 8.523438 16.058594 7.46875 15.429688 6.839844 L 14.785156 6.195312 Z M 1.203125 6.199219 "/>
</svg>
