<?xml version="1.0" encoding="UTF-8"?>
<svg xmlns="http://www.w3.org/2000/svg" xmlns:xlink="http://www.w3.org/1999/xlink" width="16" height="16" viewBox="0 0 16 16">
<path fill-rule="nonzero" fill="rgb(100%, 100%, 100%)" fill-opacity="1" stroke-width="0.781956" stroke-linecap="round" stroke-linejoin="miter" stroke="rgb(0%, 0%, 0%)" stroke-opacity="1" stroke-miterlimit="4" d="M 0.390625 0.390625 L 15.609375 0.390625 L 15.609375 15.609375 L 0.390625 15.609375 Z M 0.390625 0.390625 "/>
<path fill-rule="nonzero" fill="rgb(0%, 0%, 0%)" fill-opacity="1" d="M 2.375 12.285156 L 2.375 5.011719 L 1.152344 5.902344 L 1.152344 4.601562 L 2.375 3.714844 L 3.609375 3.714844 L 3.609375 12.285156 Z M 2.375 12.285156 "/>
<path fill-rule="nonzero" fill="rgb(0%, 0%, 0%)" fill-opacity="1" d="M 8.101562 9.792969 L 8.101562 6.210938 C 8.101562 5.808594 7.992188 5.492188 7.769531 5.261719 C 7.554688 5.035156 7.269531 4.921875 6.914062 4.921875 C 6.554688 4.921875 6.269531 5.035156 6.050781 5.261719 C 5.835938 5.492188 5.726562 5.808594 5.726562 6.210938 L 5.726562 9.792969 C 5.726562 10.203125 5.835938 10.519531 6.050781 10.75 C 6.269531 10.972656 6.554688 11.082031 6.914062 11.082031 C 7.269531 11.082031 7.554688 10.972656 7.769531 10.75 C 7.992188 10.519531 8.101562 10.203125 8.101562 9.792969 Z M 4.519531 9.863281 L 4.519531 6.144531 C 4.519531 5.367188 4.761719 4.769531 5.246094 4.347656 C 5.734375 3.925781 6.289062 3.714844 6.914062 3.714844 C 7.535156 3.714844 8.089844 3.925781 8.574219 4.347656 C 9.066406 4.769531 9.308594 5.367188 9.308594 6.144531 L 9.308594 9.863281 C 9.308594 10.636719 9.066406 11.234375 8.574219 11.65625 C 8.089844 12.078125 7.535156 12.285156 6.914062 12.285156 C 6.289062 12.285156 5.734375 12.078125 5.246094 11.65625 C 4.761719 11.234375 4.519531 10.636719 4.519531 9.863281 Z M 4.519531 9.863281 "/>
<path fill-rule="nonzero" fill="rgb(0%, 0%, 0%)" fill-opacity="1" d="M 10.097656 8.308594 L 10.097656 3.738281 L 14.597656 3.738281 L 14.597656 4.953125 L 11.242188 4.953125 L 11.242188 6.859375 C 11.628906 6.550781 12.078125 6.394531 12.59375 6.394531 C 12.914062 6.394531 13.207031 6.457031 13.46875 6.582031 C 13.734375 6.707031 13.945312 6.851562 14.101562 7.015625 C 14.332031 7.269531 14.5 7.542969 14.605469 7.839844 C 14.714844 8.132812 14.765625 8.632812 14.765625 9.332031 C 14.765625 9.898438 14.726562 10.324219 14.640625 10.601562 C 14.558594 10.875 14.425781 11.128906 14.246094 11.359375 C 14.070312 11.582031 13.828125 11.785156 13.515625 11.976562 C 13.203125 12.164062 12.835938 12.261719 12.414062 12.261719 C 11.867188 12.261719 11.339844 12.09375 10.835938 11.753906 C 10.328125 11.417969 10.03125 10.855469 9.941406 10.066406 L 11.152344 10.066406 C 11.296875 10.726562 11.699219 11.054688 12.367188 11.054688 C 12.957031 11.054688 13.304688 10.851562 13.40625 10.445312 C 13.503906 10.039062 13.554688 9.636719 13.554688 9.238281 C 13.554688 8.769531 13.476562 8.382812 13.316406 8.074219 C 13.160156 7.761719 12.832031 7.609375 12.332031 7.609375 C 11.863281 7.609375 11.5 7.84375 11.242188 8.308594 Z M 10.097656 8.308594 "/>
</svg>
