<?xml version="1.0" encoding="UTF-8"?>
<svg xmlns="http://www.w3.org/2000/svg" xmlns:xlink="http://www.w3.org/1999/xlink" width="18" height="24.523449" viewBox="0 0 18 24.523449">
<path fill-rule="nonzero" fill="rgb(100%, 100%, 100%)" fill-opacity="1" stroke-width="0.38563" stroke-linecap="round" stroke-linejoin="round" stroke="rgb(0%, 0%, 0%)" stroke-opacity="1" stroke-miterlimit="4" d="M 9.063848 0.193435 L 8.455907 0.801376 L 8.455907 6.903814 L 8.460512 6.899208 L 9.073059 7.507149 L 9.063848 7.51636 L 12.15882 7.51636 L 12.766761 6.903814 L 12.766761 0.773742 L 12.762155 0.787559 L 12.168031 0.193435 Z M 9.063848 0.193435 " transform="matrix(0.84815, 0, 0, 0.84815, 0, 0.00000080886)"/>
<path fill-rule="nonzero" fill="rgb(0%, 0%, 0%)" fill-opacity="1" d="M 10.144531 3.269531 C 10.144531 3.902344 9.632812 4.410156 9 4.410156 C 8.367188 4.410156 7.855469 3.902344 7.855469 3.269531 C 7.855469 2.636719 8.367188 2.125 9 2.125 C 9.632812 2.125 10.144531 2.636719 10.144531 3.269531 Z M 10.144531 3.269531 "/>
<path fill-rule="nonzero" fill="rgb(0%, 0%, 0%)" fill-opacity="1" d="M 1.59375 6.523438 L 0 8.117188 L 0 22.933594 L 1.59375 24.523438 L 16.40625 24.523438 L 18 22.933594 L 18 8.117188 L 16.40625 6.523438 Z M 1.59375 6.523438 "/>
<path fill="none" stroke-width="0.611253" stroke-linecap="square" stroke-linejoin="miter" stroke="rgb(100%, 100%, 100%)" stroke-opacity="1" stroke-miterlimit="4" d="M 2.523876 8.474328 L 0.782954 10.21525 L 0.782954 26.390165 L 2.523876 28.131087 L 18.698791 28.131087 L 20.439713 26.390165 L 20.439713 10.21525 L 18.698791 8.474328 Z M 2.519271 8.474328 L 2.523876 8.474328 M 2.523876 8.474328 L 2.523876 8.474328 M 2.519271 8.474328 L 2.523876 8.474328 M 2.523876 8.474328 " transform="matrix(0.84815, 0, 0, 0.84815, 0, 0.00000080886)"/>
<path fill-rule="nonzero" fill="rgb(100%, 0%, 0%)" fill-opacity="1" d="M 10.550781 15.523438 C 10.550781 16.382812 9.859375 17.074219 9 17.074219 C 8.140625 17.074219 7.449219 16.382812 7.449219 15.523438 C 7.449219 14.664062 8.140625 13.972656 9 13.972656 C 9.859375 13.972656 10.550781 14.664062 10.550781 15.523438 Z M 10.550781 15.523438 "/>
<path fill-rule="nonzero" fill="rgb(21.176471%, 21.176471%, 21.176471%)" fill-opacity="1" d="M 10.550781 10.476562 C 10.550781 11.335938 9.859375 12.027344 9 12.027344 C 8.140625 12.027344 7.449219 11.335938 7.449219 10.476562 C 7.449219 9.621094 8.140625 8.929688 9 8.929688 C 9.859375 8.929688 10.550781 9.621094 10.550781 10.476562 Z M 10.550781 10.476562 "/>
<path fill-rule="nonzero" fill="rgb(21.176471%, 21.176471%, 21.176471%)" fill-opacity="1" d="M 6.042969 10.476562 C 6.042969 11.335938 5.347656 12.027344 4.488281 12.027344 C 3.632812 12.027344 2.9375 11.335938 2.9375 10.476562 C 2.9375 9.621094 3.632812 8.929688 4.488281 8.929688 C 5.347656 8.929688 6.042969 9.621094 6.042969 10.476562 Z M 6.042969 10.476562 "/>
<path fill-rule="nonzero" fill="rgb(21.176471%, 21.176471%, 21.176471%)" fill-opacity="1" d="M 6.042969 20.21875 C 6.042969 21.078125 5.347656 21.773438 4.488281 21.773438 C 3.632812 21.773438 2.9375 21.078125 2.9375 20.21875 C 2.9375 19.367188 3.632812 18.671875 4.488281 18.671875 C 5.347656 18.671875 6.042969 19.367188 6.042969 20.21875 Z M 6.042969 20.21875 "/>
<path fill-rule="nonzero" fill="rgb(21.176471%, 21.176471%, 21.176471%)" fill-opacity="1" d="M 10.550781 20.21875 C 10.550781 21.078125 9.859375 21.773438 9 21.773438 C 8.140625 21.773438 7.449219 21.078125 7.449219 20.21875 C 7.449219 19.367188 8.140625 18.671875 9 18.671875 C 9.859375 18.671875 10.550781 19.367188 10.550781 20.21875 Z M 10.550781 20.21875 "/>
<path fill-rule="nonzero" fill="rgb(21.176471%, 21.176471%, 21.176471%)" fill-opacity="1" d="M 15.0625 15.347656 C 15.0625 16.207031 14.367188 16.898438 13.511719 16.898438 C 12.652344 16.898438 11.957031 16.207031 11.957031 15.347656 C 11.957031 14.496094 12.652344 13.800781 13.511719 13.800781 C 14.367188 13.800781 15.0625 14.496094 15.0625 15.347656 Z M 15.0625 15.347656 "/>
<path fill-rule="nonzero" fill="rgb(21.176471%, 21.176471%, 21.176471%)" fill-opacity="1" d="M 15.0625 20.21875 C 15.0625 21.078125 14.367188 21.773438 13.511719 21.773438 C 12.652344 21.773438 11.957031 21.078125 11.957031 20.21875 C 11.957031 19.367188 12.652344 18.671875 13.511719 18.671875 C 14.367188 18.671875 15.0625 19.367188 15.0625 20.21875 Z M 15.0625 20.21875 "/>
<path fill-rule="nonzero" fill="rgb(21.176471%, 21.176471%, 21.176471%)" fill-opacity="1" d="M 15.0625 10.476562 C 15.0625 11.335938 14.367188 12.027344 13.511719 12.027344 C 12.652344 12.027344 11.957031 11.335938 11.957031 10.476562 C 11.957031 9.621094 12.652344 8.929688 13.511719 8.929688 C 14.367188 8.929688 15.0625 9.621094 15.0625 10.476562 Z M 15.0625 10.476562 "/>
</svg>
