<?xml version="1.0" encoding="UTF-8"?>
<svg xmlns="http://www.w3.org/2000/svg" xmlns:xlink="http://www.w3.org/1999/xlink" width="12" height="11.660505" viewBox="0 0 12 11.660505">
<path fill-rule="nonzero" fill="rgb(0%, 0%, 0%)" fill-opacity="1" d="M 0 0 L 4.539062 0 L 4.539062 11.660156 L 0 11.660156 Z M 0 0 "/>
<path fill-rule="nonzero" fill="rgb(0%, 0%, 0%)" fill-opacity="1" d="M 0 7.5 L 12 7.5 L 12 11.660156 L 0 11.660156 Z M 0 7.5 "/>
<path fill-rule="nonzero" fill="rgb(0%, 0%, 0%)" fill-opacity="1" d="M 4.539062 0 L 12 7.5 L 4.539062 7.539062 Z M 4.539062 0 "/>
<path fill-rule="nonzero" fill="rgb(100%, 100%, 100%)" fill-opacity="1" d="M 4.175781 9.058594 C 4.175781 9.917969 3.480469 10.613281 2.621094 10.613281 C 1.761719 10.613281 1.066406 9.917969 1.066406 9.058594 C 1.066406 8.199219 1.761719 7.5 2.621094 7.5 C 3.480469 7.5 4.175781 8.199219 4.175781 9.058594 Z M 4.175781 9.058594 "/>
<path fill-rule="nonzero" fill="rgb(21.176471%, 21.176471%, 21.176471%)" fill-opacity="1" d="M 4.175781 2.082031 C 4.175781 2.941406 3.480469 3.636719 2.621094 3.636719 C 1.761719 3.636719 1.066406 2.941406 1.066406 2.082031 C 1.066406 1.222656 1.761719 0.527344 2.621094 0.527344 C 3.480469 0.527344 4.175781 1.222656 4.175781 2.082031 Z M 4.175781 2.082031 "/>
<path fill-rule="nonzero" fill="rgb(100%, 100%, 100%)" fill-opacity="1" d="M 11.042969 9.058594 C 11.042969 9.917969 10.34375 10.613281 9.484375 10.613281 C 8.625 10.613281 7.929688 9.917969 7.929688 9.058594 C 7.929688 8.199219 8.625 7.5 9.484375 7.5 C 10.34375 7.5 11.042969 8.199219 11.042969 9.058594 Z M 11.042969 9.058594 "/>
</svg>
