<?xml version="1.0" encoding="UTF-8"?>
<svg xmlns="http://www.w3.org/2000/svg" xmlns:xlink="http://www.w3.org/1999/xlink" width="16" height="16" viewBox="0 0 16 16">
<path fill-rule="nonzero" fill="rgb(100%, 100%, 100%)" fill-opacity="1" stroke-width="0.781956" stroke-linecap="round" stroke-linejoin="miter" stroke="rgb(0%, 0%, 0%)" stroke-opacity="1" stroke-miterlimit="4" d="M 0.390625 0.390625 L 15.609375 0.390625 L 15.609375 15.609375 L 0.390625 15.609375 Z M 0.390625 0.390625 "/>
<path fill-rule="nonzero" fill="rgb(0%, 0%, 0%)" fill-opacity="1" d="M 2.65625 12.515625 L 2.65625 3.484375 L 3.539062 3.484375 L 3.539062 9.105469 L 3.558594 9.105469 L 5.246094 6.085938 L 6.304688 6.085938 L 4.789062 8.601562 L 6.511719 12.515625 L 5.40625 12.515625 L 4.234375 9.511719 L 3.539062 10.664062 L 3.539062 12.515625 Z M 2.65625 12.515625 "/>
<path fill-rule="nonzero" fill="rgb(0%, 0%, 0%)" fill-opacity="1" d="M 7.203125 12.515625 L 7.203125 6.085938 L 8.085938 6.085938 L 8.085938 6.773438 L 8.105469 6.773438 C 8.386719 6.265625 8.769531 6.011719 9.25 6.011719 C 9.558594 6.011719 9.800781 6.09375 9.984375 6.25 C 10.164062 6.414062 10.332031 6.609375 10.492188 6.84375 C 10.839844 6.289062 11.296875 6.011719 11.882812 6.011719 C 12.21875 6.011719 12.550781 6.199219 12.867188 6.578125 C 13.183594 6.957031 13.34375 7.515625 13.34375 8.238281 L 13.34375 12.515625 L 12.460938 12.515625 L 12.460938 8.6875 C 12.460938 8.25 12.378906 7.914062 12.207031 7.667969 C 12.046875 7.425781 11.835938 7.300781 11.59375 7.300781 C 11.335938 7.300781 11.128906 7.425781 10.960938 7.667969 C 10.796875 7.914062 10.714844 8.25 10.714844 8.6875 L 10.714844 12.515625 L 9.832031 12.515625 L 9.832031 8.6875 C 9.832031 8.25 9.75 7.914062 9.585938 7.667969 C 9.417969 7.425781 9.210938 7.300781 8.964844 7.300781 C 8.714844 7.300781 8.5 7.425781 8.332031 7.667969 C 8.167969 7.914062 8.085938 8.25 8.085938 8.6875 L 8.085938 12.515625 Z M 7.203125 12.515625 "/>
</svg>
