<?xml version="1.0" encoding="UTF-8"?>
<svg xmlns="http://www.w3.org/2000/svg" xmlns:xlink="http://www.w3.org/1999/xlink" width="16" height="16" viewBox="0 0 16 16">
<path fill-rule="nonzero" fill="rgb(100%, 100%, 100%)" fill-opacity="1" stroke-width="0.781956" stroke-linecap="round" stroke-linejoin="miter" stroke="rgb(0%, 0%, 0%)" stroke-opacity="1" stroke-miterlimit="4" d="M 0.390625 0.390625 L 15.609375 0.390625 L 15.609375 15.609375 L 0.390625 15.609375 Z M 0.390625 0.390625 "/>
<path fill-rule="nonzero" fill="rgb(0%, 0%, 0%)" fill-opacity="1" d="M 3.117188 5.585938 C 3.117188 6.097656 3.277344 6.488281 3.597656 6.75 C 3.921875 7.015625 4.28125 7.148438 4.679688 7.148438 C 5.078125 7.148438 5.4375 7.015625 5.757812 6.75 C 6.082031 6.488281 6.242188 6.097656 6.242188 5.585938 C 6.242188 5.078125 6.082031 4.691406 5.757812 4.425781 C 5.4375 4.15625 5.078125 4.023438 4.679688 4.023438 C 4.28125 4.023438 3.921875 4.15625 3.597656 4.425781 C 3.277344 4.691406 3.117188 5.078125 3.117188 5.585938 Z M 1.359375 10.273438 C 1.359375 9.210938 1.789062 8.394531 2.648438 7.820312 C 2.324219 7.53125 2.058594 7.210938 1.855469 6.863281 C 1.65625 6.507812 1.554688 6.09375 1.554688 5.613281 C 1.554688 4.738281 1.855469 3.992188 2.453125 3.378906 C 3.054688 2.765625 3.796875 2.460938 4.679688 2.460938 C 5.5625 2.460938 6.304688 2.765625 6.902344 3.378906 C 7.503906 3.992188 7.804688 4.738281 7.804688 5.613281 C 7.804688 6.09375 7.703125 6.507812 7.5 6.863281 C 7.292969 7.210938 7.035156 7.53125 6.722656 7.820312 C 7.574219 8.398438 8 9.214844 8 10.273438 C 8 11.238281 7.671875 12.027344 7.011719 12.636719 C 6.359375 13.238281 5.582031 13.539062 4.679688 13.539062 C 3.773438 13.539062 2.992188 13.238281 2.339844 12.636719 C 1.6875 12.027344 1.359375 11.238281 1.359375 10.273438 Z M 2.921875 10.257812 C 2.921875 10.757812 3.097656 11.171875 3.445312 11.5 C 3.800781 11.824219 4.210938 11.984375 4.679688 11.984375 C 5.144531 11.984375 5.554688 11.824219 5.90625 11.5 C 6.265625 11.171875 6.445312 10.757812 6.445312 10.257812 C 6.445312 9.757812 6.265625 9.347656 5.90625 9.015625 C 5.554688 8.6875 5.144531 8.523438 4.679688 8.523438 C 4.210938 8.523438 3.800781 8.6875 3.445312 9.015625 C 3.097656 9.347656 2.921875 9.757812 2.921875 10.257812 Z M 2.921875 10.257812 "/>
<path fill-rule="nonzero" fill="rgb(0%, 0%, 0%)" fill-opacity="1" d="M 8.421875 8.40625 L 8.421875 2.414062 L 14.324219 2.414062 L 14.324219 4.003906 L 9.921875 4.003906 L 9.921875 6.503906 C 10.425781 6.097656 11.019531 5.898438 11.691406 5.898438 C 12.113281 5.898438 12.496094 5.976562 12.839844 6.140625 C 13.191406 6.300781 13.46875 6.492188 13.671875 6.710938 C 13.976562 7.039062 14.195312 7.398438 14.332031 7.789062 C 14.476562 8.175781 14.546875 8.828125 14.546875 9.746094 C 14.546875 10.492188 14.488281 11.046875 14.378906 11.410156 C 14.273438 11.773438 14.097656 12.105469 13.859375 12.410156 C 13.632812 12.699219 13.3125 12.964844 12.902344 13.214844 C 12.492188 13.464844 12.011719 13.585938 11.457031 13.585938 C 10.742188 13.585938 10.050781 13.367188 9.386719 12.925781 C 8.722656 12.484375 8.332031 11.746094 8.214844 10.710938 L 9.804688 10.710938 C 9.992188 11.574219 10.523438 12.003906 11.394531 12.003906 C 12.171875 12.003906 12.625 11.738281 12.757812 11.207031 C 12.890625 10.675781 12.957031 10.148438 12.957031 9.625 C 12.957031 9.011719 12.851562 8.5 12.644531 8.09375 C 12.4375 7.6875 12.003906 7.488281 11.351562 7.488281 C 10.738281 7.488281 10.261719 7.792969 9.921875 8.40625 Z M 8.421875 8.40625 "/>
</svg>
