<?xml version="1.0" encoding="UTF-8"?>
<svg xmlns="http://www.w3.org/2000/svg" xmlns:xlink="http://www.w3.org/1999/xlink" width="12" height="20.37736" viewBox="0 0 12 20.37736">
<path fill-rule="nonzero" fill="rgb(0%, 0%, 0%)" fill-opacity="1" d="M 1.695312 0 L 0 1.695312 L 0 18.683594 L 0.0234375 18.667969 L 1.710938 20.359375 L 1.695312 20.378906 L 10.308594 20.378906 L 12.003906 18.683594 L 12.003906 1.628906 L 11.980469 1.648438 L 10.328125 0 Z M 1.695312 0 "/>
<path fill="none" stroke-width="0.625654" stroke-linecap="round" stroke-linejoin="round" stroke="rgb(100%, 100%, 100%)" stroke-opacity="1" stroke-miterlimit="4" d="M 2.118025 0.789709 L 0.742401 2.238119 L 0.742401 16.747683 L 0.756957 16.733126 L 2.128943 18.177896 L 2.118025 18.196092 L 9.112604 18.196092 L 10.484589 16.747683 L 10.484589 2.18353 L 10.466393 2.198087 L 9.134439 0.789709 Z M 2.118025 0.789709 " transform="matrix(1.073376, 0, 0, 1.073376, 0, 0.00000102365)"/>
<path fill-rule="nonzero" fill="rgb(21.176471%, 21.176471%, 21.176471%)" fill-opacity="1" d="M 8.089844 5.617188 C 8.089844 6.777344 7.160156 7.710938 6 7.710938 C 4.84375 7.710938 3.90625 6.777344 3.90625 5.617188 C 3.90625 4.464844 4.84375 3.527344 6 3.527344 C 7.160156 3.527344 8.089844 4.464844 8.089844 5.617188 Z M 8.089844 5.617188 "/>
<path fill-rule="nonzero" fill="rgb(90.588235%, 47.45098%, 9.803922%)" fill-opacity="1" d="M 7.964844 14.082031 C 7.964844 15.171875 7.085938 16.042969 6 16.042969 C 4.910156 16.042969 4.039062 15.171875 4.039062 14.082031 C 4.039062 12.996094 4.910156 12.121094 6 12.121094 C 7.085938 12.121094 7.964844 12.996094 7.964844 14.082031 Z M 7.964844 14.082031 "/>
</svg>
