<?xml version="1.0" encoding="UTF-8"?>
<svg xmlns="http://www.w3.org/2000/svg" xmlns:xlink="http://www.w3.org/1999/xlink" width="14" height="28.099134" viewBox="0 0 14 28.099134">
<path fill-rule="nonzero" fill="rgb(0%, 0%, 0%)" fill-opacity="1" stroke-width="0.969125" stroke-linecap="round" stroke-linejoin="miter" stroke="rgb(0%, 0%, 0%)" stroke-opacity="1" stroke-miterlimit="4" d="M 0.481372 0.481372 L 15.488579 0.481372 L 15.488579 15.519779 L 0.481372 15.519779 Z M 0.481372 0.481372 " transform="matrix(0.876402, 0, 0, 0.876402, 0, 0)"/>
<path fill-rule="nonzero" fill="rgb(0%, 0%, 0%)" fill-opacity="1" stroke-width="0.969125" stroke-linecap="round" stroke-linejoin="miter" stroke="rgb(0%, 0%, 0%)" stroke-opacity="1" stroke-miterlimit="4" d="M 0.481372 16.540466 L 15.488579 16.540466 L 15.488579 31.578873 L 0.481372 31.578873 Z M 0.481372 16.540466 " transform="matrix(0.876402, 0, 0, 0.876402, 0, 0)"/>
<path fill="none" stroke-width="1.31406" stroke-linecap="round" stroke-linejoin="miter" stroke="rgb(100%, 100%, 100%)" stroke-opacity="1" stroke-miterlimit="4" d="M 15.319208 8.000576 C 15.319208 12.056578 12.034292 15.350408 7.987204 15.350408 C 3.940116 15.350408 0.6552 12.056578 0.6552 8.000576 C 0.6552 3.944573 3.940116 0.6552 7.987204 0.6552 C 12.034292 0.6552 15.319208 3.944573 15.319208 8.000576 Z M 15.319208 8.000576 " transform="matrix(0.876402, 0, 0, 0.876402, 0, 0)"/>
<path fill-rule="nonzero" fill="rgb(21.176471%, 21.176471%, 21.176471%)" fill-opacity="1" d="M 8.707031 4.222656 C 8.707031 5.164062 7.945312 5.929688 7 5.929688 C 6.054688 5.929688 5.292969 5.164062 5.292969 4.222656 C 5.292969 3.28125 6.054688 2.515625 7 2.515625 C 7.945312 2.515625 8.707031 3.28125 8.707031 4.222656 Z M 8.707031 4.222656 "/>
<path fill-rule="nonzero" fill="rgb(21.176471%, 21.176471%, 21.176471%)" fill-opacity="1" d="M 11.425781 8.851562 C 11.425781 9.796875 10.660156 10.558594 9.71875 10.558594 C 8.777344 10.558594 8.011719 9.796875 8.011719 8.851562 C 8.011719 7.910156 8.777344 7.148438 9.71875 7.148438 C 10.660156 7.148438 11.425781 7.910156 11.425781 8.851562 Z M 11.425781 8.851562 "/>
<path fill-rule="nonzero" fill="rgb(90.588235%, 47.45098%, 9.803922%)" fill-opacity="1" d="M 6.113281 8.851562 C 6.113281 9.796875 5.351562 10.558594 4.410156 10.558594 C 3.464844 10.558594 2.703125 9.796875 2.703125 8.851562 C 2.703125 7.910156 3.464844 7.148438 4.410156 7.148438 C 5.351562 7.148438 6.113281 7.910156 6.113281 8.851562 Z M 6.113281 8.851562 "/>
<path fill-rule="nonzero" fill="rgb(90.588235%, 47.45098%, 9.803922%)" fill-opacity="1" d="M 0.421875 20.085938 L 13.578125 20.085938 L 13.578125 22.457031 L 0.421875 22.457031 Z M 0.421875 20.085938 "/>
</svg>
