<?xml version="1.0" encoding="UTF-8"?>
<svg xmlns="http://www.w3.org/2000/svg" xmlns:xlink="http://www.w3.org/1999/xlink" width="16" height="16" viewBox="0 0 16 16">
<path fill-rule="nonzero" fill="rgb(100%, 94.901961%, 0%)" fill-opacity="1" stroke-width="0.80049" stroke-linecap="butt" stroke-linejoin="miter" stroke="rgb(0%, 0%, 0%)" stroke-opacity="1" stroke-miterlimit="4" d="M -48.075176 125.895356 L -12.166136 125.906546 C -8.495783 125.906546 -5.519215 128.950254 -5.519215 132.687748 L -5.519215 168.294655 C -5.519215 172.05453 -8.495783 175.098238 -12.166136 175.098238 L -48.063986 175.098238 C -51.73434 175.098238 -54.710907 172.05453 -54.722097 168.305846 L -54.722097 132.698938 C -54.722097 128.939064 -51.74553 125.895356 -48.075176 125.895356 Z M -48.075176 125.895356 " transform="matrix(0.17454, -0.17454, 0.17454, 0.17454, -13.028078, -23.521136)"/>
<path fill-rule="nonzero" fill="rgb(0%, 0%, 0%)" fill-opacity="1" d="M 7.0625 13.628906 L 8.902344 13.628906 L 8.902344 6.320312 L 11.902344 6.320312 L 7.984375 2.445312 L 4.066406 6.320312 L 7.0625 6.320312 Z M 7.0625 13.628906 "/>
</svg>
