<?xml version="1.0" encoding="UTF-8"?>
<svg xmlns="http://www.w3.org/2000/svg" xmlns:xlink="http://www.w3.org/1999/xlink" width="16" height="16.587582" viewBox="0 0 16 16.587582">
<path fill-rule="nonzero" fill="rgb(20%, 20%, 20%)" fill-opacity="1" stroke-width="0.8" stroke-linecap="butt" stroke-linejoin="miter" stroke="rgb(0%, 0%, 0%)" stroke-opacity="1" stroke-miterlimit="4" d="M 117.504128 78.504153 L 158.085709 78.504153 L 158.085709 120.611585 L 117.504128 120.611585 Z M 117.504128 78.504153 " transform="matrix(0.386567, 0, 0, 0.386567, -45.266968, -30.190865)"/>
<path fill-rule="nonzero" fill="rgb(100%, 94.901961%, 0%)" fill-opacity="1" stroke-width="0.7" stroke-linecap="butt" stroke-linejoin="miter" stroke="rgb(0%, 0%, 0%)" stroke-opacity="1" stroke-miterlimit="4" d="M 127.558578 86.497188 C 127.558578 87.911885 126.416716 89.063852 125.00202 89.063852 C 123.587323 89.063852 122.435356 87.911885 122.435356 86.497188 C 122.435356 85.082492 123.587323 83.94063 125.00202 83.94063 C 126.416716 83.94063 127.558578 85.082492 127.558578 86.497188 Z M 127.558578 86.497188 " transform="matrix(0.386567, 0, 0, 0.386567, -45.266968, -30.190865)"/>
<path fill-rule="nonzero" fill="rgb(100%, 94.901961%, 0%)" fill-opacity="1" stroke-width="0.7" stroke-linecap="butt" stroke-linejoin="miter" stroke="rgb(0%, 0%, 0%)" stroke-opacity="1" stroke-miterlimit="4" d="M 127.558578 92.994688 C 127.558578 94.409384 126.416716 95.551246 125.00202 95.551246 C 123.587323 95.551246 122.435356 94.409384 122.435356 92.994688 C 122.435356 91.569886 123.587323 90.428024 125.00202 90.428024 C 126.416716 90.428024 127.558578 91.569886 127.558578 92.994688 Z M 127.558578 92.994688 " transform="matrix(0.386567, 0, 0, 0.386567, -45.266968, -30.190865)"/>
<path fill-rule="nonzero" fill="rgb(100%, 94.901961%, 0%)" fill-opacity="1" stroke-width="0.7" stroke-linecap="butt" stroke-linejoin="miter" stroke="rgb(0%, 0%, 0%)" stroke-opacity="1" stroke-miterlimit="4" d="M 127.558578 99.482082 C 127.558578 100.896778 126.416716 102.038641 125.00202 102.038641 C 123.587323 102.038641 122.435356 100.896778 122.435356 99.482082 C 122.435356 98.067385 123.587323 96.915418 125.00202 96.915418 C 126.416716 96.915418 127.558578 98.067385 127.558578 99.482082 Z M 127.558578 99.482082 " transform="matrix(0.386567, 0, 0, 0.386567, -45.266968, -30.190865)"/>
<path fill-rule="nonzero" fill="rgb(100%, 94.901961%, 0%)" fill-opacity="1" stroke-width="0.7" stroke-linecap="butt" stroke-linejoin="miter" stroke="rgb(0%, 0%, 0%)" stroke-opacity="1" stroke-miterlimit="4" d="M 153.164586 86.497188 C 153.164586 87.911885 152.012619 89.063852 150.597922 89.063852 C 149.183226 89.063852 148.041364 87.911885 148.041364 86.497188 C 148.041364 85.082492 149.183226 83.94063 150.597922 83.94063 C 152.012619 83.94063 153.164586 85.082492 153.164586 86.497188 Z M 153.164586 86.497188 " transform="matrix(0.386567, 0, 0, 0.386567, -45.266968, -30.190865)"/>
<path fill-rule="nonzero" fill="rgb(100%, 94.901961%, 0%)" fill-opacity="1" stroke-width="0.7" stroke-linecap="butt" stroke-linejoin="miter" stroke="rgb(0%, 0%, 0%)" stroke-opacity="1" stroke-miterlimit="4" d="M 153.164586 92.994688 C 153.164586 94.409384 152.012619 95.551246 150.597922 95.551246 C 149.183226 95.551246 148.041364 94.409384 148.041364 92.994688 C 148.041364 91.569886 149.183226 90.428024 150.597922 90.428024 C 152.012619 90.428024 153.164586 91.569886 153.164586 92.994688 Z M 153.164586 92.994688 " transform="matrix(0.386567, 0, 0, 0.386567, -45.266968, -30.190865)"/>
<path fill-rule="nonzero" fill="rgb(100%, 94.901961%, 0%)" fill-opacity="1" stroke-width="0.7" stroke-linecap="butt" stroke-linejoin="miter" stroke="rgb(0%, 0%, 0%)" stroke-opacity="1" stroke-miterlimit="4" d="M 153.164586 99.482082 C 153.164586 100.896778 152.012619 102.038641 150.597922 102.038641 C 149.183226 102.038641 148.041364 100.896778 148.041364 99.482082 C 148.041364 98.067385 149.183226 96.915418 150.597922 96.915418 C 152.012619 96.915418 153.164586 98.067385 153.164586 99.482082 Z M 153.164586 99.482082 " transform="matrix(0.386567, 0, 0, 0.386567, -45.266968, -30.190865)"/>
<path fill-rule="nonzero" fill="rgb(100%, 94.901961%, 0%)" fill-opacity="1" stroke-width="0.7" stroke-linecap="butt" stroke-linejoin="miter" stroke="rgb(0%, 0%, 0%)" stroke-opacity="1" stroke-miterlimit="4" d="M 146.758032 99.482082 C 146.758032 100.896778 145.616169 102.038641 144.201473 102.038641 C 142.786776 102.038641 141.634809 100.896778 141.634809 99.482082 C 141.634809 98.067385 142.786776 96.915418 144.201473 96.915418 C 145.616169 96.915418 146.758032 98.067385 146.758032 99.482082 Z M 146.758032 99.482082 " transform="matrix(0.386567, 0, 0, 0.386567, -45.266968, -30.190865)"/>
<path fill-rule="nonzero" fill="rgb(100%, 94.901961%, 0%)" fill-opacity="1" stroke-width="0.7" stroke-linecap="butt" stroke-linejoin="miter" stroke="rgb(0%, 0%, 0%)" stroke-opacity="1" stroke-miterlimit="4" d="M 140.361582 99.482082 C 140.361582 100.896778 139.21972 102.038641 137.794918 102.038641 C 136.380222 102.038641 135.23836 100.896778 135.23836 99.482082 C 135.23836 98.067385 136.380222 96.915418 137.794918 96.915418 C 139.21972 96.915418 140.361582 98.067385 140.361582 99.482082 Z M 140.361582 99.482082 " transform="matrix(0.386567, 0, 0, 0.386567, -45.266968, -30.190865)"/>
<path fill-rule="nonzero" fill="rgb(100%, 94.901961%, 0%)" fill-opacity="1" stroke-width="0.7" stroke-linecap="butt" stroke-linejoin="miter" stroke="rgb(0%, 0%, 0%)" stroke-opacity="1" stroke-miterlimit="4" d="M 133.965133 99.482082 C 133.965133 100.896778 132.813166 102.038641 131.398469 102.038641 C 129.983772 102.038641 128.84191 100.896778 128.84191 99.482082 C 128.84191 98.067385 129.983772 96.915418 131.398469 96.915418 C 132.813166 96.915418 133.965133 98.067385 133.965133 99.482082 Z M 133.965133 99.482082 " transform="matrix(0.386567, 0, 0, 0.386567, -45.266968, -30.190865)"/>
</svg>
