<?xml version="1.0" encoding="UTF-8"?>
<svg xmlns="http://www.w3.org/2000/svg" xmlns:xlink="http://www.w3.org/1999/xlink" width="16" height="16" viewBox="0 0 16 16">
<path fill-rule="nonzero" fill="rgb(100%, 94.901961%, 0%)" fill-opacity="1" stroke-width="0.80049" stroke-linecap="butt" stroke-linejoin="miter" stroke="rgb(0%, 0%, 0%)" stroke-opacity="1" stroke-miterlimit="4" d="M 132.542277 5.463265 L 168.451317 5.452075 C 172.121671 5.452075 175.098238 8.495783 175.098238 12.255657 L 175.098238 47.862564 C 175.098238 51.622439 172.121671 54.666147 168.451317 54.666147 L 132.542277 54.654957 C 128.871923 54.654957 125.895356 51.611249 125.906546 47.862564 L 125.906546 12.255657 C 125.895356 8.506973 128.871923 5.463265 132.542277 5.463265 Z M 132.542277 5.463265 " transform="matrix(0.17454, 0.17454, -0.17454, 0.17454, -13.028078, -23.521136)"/>
<path fill-rule="nonzero" fill="rgb(0%, 0%, 0%)" fill-opacity="1" d="M 3.707031 3.703125 L 0.601562 6.816406 C -0.0625 7.480469 -0.0703125 8.519531 0.574219 9.160156 L 3.707031 12.296875 L 8 8 Z M 3.707031 3.703125 "/>
<path fill-rule="nonzero" fill="rgb(0%, 0%, 0%)" fill-opacity="1" d="M 12.296875 3.703125 L 8.003906 8 L 12.296875 12.296875 L 15.40625 9.183594 C 16.074219 8.519531 16.074219 7.480469 15.40625 6.839844 Z M 12.296875 3.703125 "/>
</svg>
