<?xml version="1.0" encoding="UTF-8"?>
<svg xmlns="http://www.w3.org/2000/svg" xmlns:xlink="http://www.w3.org/1999/xlink" width="18" height="33.881104" viewBox="0 0 18 33.881104">
<path fill-rule="nonzero" fill="rgb(100%, 100%, 100%)" fill-opacity="1" stroke-width="0.38563" stroke-linecap="round" stroke-linejoin="round" stroke="rgb(0%, 0%, 0%)" stroke-opacity="1" stroke-miterlimit="4" d="M 9.063856 0.193436 L 8.455914 0.801377 L 8.455914 6.89461 L 8.465125 6.89461 L 9.068461 7.511762 L 9.063856 7.516368 L 12.158831 7.516368 L 12.766772 6.89461 L 12.766772 0.773744 L 12.757561 0.787561 L 12.158831 0.193436 Z M 9.063856 0.193436 " transform="matrix(0.848149, 0, 0, 0.848149, 0, 0)"/>
<path fill-rule="nonzero" fill="rgb(0%, 0%, 0%)" fill-opacity="1" d="M 10.148438 3.269531 C 10.148438 3.902344 9.632812 4.40625 9 4.40625 C 8.367188 4.40625 7.851562 3.902344 7.851562 3.269531 C 7.851562 2.636719 8.367188 2.132812 9 2.132812 C 9.632812 2.132812 10.148438 2.636719 10.148438 3.269531 Z M 10.148438 3.269531 "/>
<path fill-rule="nonzero" fill="rgb(0%, 0%, 0%)" fill-opacity="1" d="M 1.59375 6.515625 L 0 8.113281 L 0 32.296875 L 1.59375 33.878906 L 16.40625 33.878906 L 18 32.296875 L 18 8.113281 L 16.40625 6.515625 Z M 1.59375 6.515625 "/>
<path fill="none" stroke-width="0.611253" stroke-linecap="square" stroke-linejoin="miter" stroke="rgb(100%, 100%, 100%)" stroke-opacity="1" stroke-miterlimit="4" d="M 2.519273 8.469731 L 0.778349 10.210654 L 0.778349 37.420643 L 2.519273 39.161567 L 18.703413 39.161567 L 20.444337 37.420643 L 20.444337 10.210654 L 18.703413 8.469731 Z M 2.519273 8.469731 L 2.523878 8.469731 M 2.519273 8.469731 L 2.519273 8.469731 M 2.519273 8.469731 L 2.519273 8.469731 M 2.519273 8.469731 L 2.519273 8.469731 M 2.519273 8.469731 L 2.519273 8.469731 M 2.519273 8.469731 L 2.523878 8.469731 M 2.519273 8.469731 L 2.519273 8.469731 M 2.519273 8.469731 L 2.519273 8.469731 M 2.519273 8.469731 L 2.519273 8.469731 M 2.519273 8.469731 L 2.519273 8.469731 M 2.519273 8.469731 L 2.523878 8.469731 M 2.519273 8.469731 L 2.519273 8.469731 M 2.519273 8.469731 L 2.519273 8.469731 M 2.519273 8.469731 L 2.519273 8.469731 M 2.519273 8.469731 L 2.519273 8.469731 M 2.519273 8.469731 L 2.523878 8.469731 M 2.519273 8.469731 L 2.519273 8.469731 M 2.519273 8.469731 L 2.519273 8.469731 M 2.519273 8.469731 L 2.519273 8.469731 M 2.519273 8.469731 L 2.519273 8.469731 M 2.519273 8.469731 L 2.523878 8.469731 M 2.519273 8.469731 L 2.519273 8.469731 M 2.519273 8.469731 L 2.519273 8.469731 M 2.519273 8.469731 L 2.519273 8.469731 M 2.519273 8.469731 L 2.519273 8.469731 M 2.519273 8.469731 L 2.523878 8.469731 M 2.519273 8.469731 L 2.519273 8.469731 M 2.519273 8.469731 L 2.519273 8.469731 M 2.519273 8.469731 L 2.519273 8.469731 M 2.519273 8.469731 L 2.519273 8.469731 M 2.519273 8.469731 L 2.523878 8.469731 M 2.519273 8.469731 L 2.519273 8.469731 M 2.519273 8.469731 L 2.519273 8.469731 M 2.519273 8.469731 L 2.519273 8.469731 M 2.519273 8.469731 L 2.519273 8.469731 M 2.519273 8.469731 L 2.523878 8.469731 M 2.519273 8.469731 L 2.519273 8.469731 M 2.519273 8.469731 L 2.519273 8.469731 M 2.519273 8.469731 L 2.519273 8.469731 M 2.519273 8.469731 " transform="matrix(0.848149, 0, 0, 0.848149, 0, 0)"/>
<path fill-rule="nonzero" fill="rgb(21.176471%, 21.176471%, 21.176471%)" fill-opacity="1" d="M 10.554688 15.515625 C 10.554688 16.382812 9.867188 17.074219 9 17.074219 C 8.132812 17.074219 7.445312 16.382812 7.445312 15.515625 C 7.445312 14.667969 8.132812 13.96875 9 13.96875 C 9.867188 13.96875 10.554688 14.667969 10.554688 15.515625 Z M 10.554688 15.515625 "/>
<path fill-rule="nonzero" fill="rgb(21.176471%, 21.176471%, 21.176471%)" fill-opacity="1" d="M 10.554688 24.917969 C 10.554688 25.78125 9.867188 26.472656 9 26.472656 C 8.132812 26.472656 7.445312 25.78125 7.445312 24.917969 C 7.445312 24.070312 8.132812 23.367188 9 23.367188 C 9.867188 23.367188 10.554688 24.070312 10.554688 24.917969 Z M 10.554688 24.917969 "/>
<path fill-rule="nonzero" fill="rgb(0%, 96.470588%, 0%)" fill-opacity="1" d="M 10.554688 10.476562 C 10.554688 11.34375 9.867188 12.03125 9 12.03125 C 8.132812 12.03125 7.445312 11.34375 7.445312 10.476562 C 7.445312 9.621094 8.132812 8.929688 9 8.929688 C 9.867188 8.929688 10.554688 9.621094 10.554688 10.476562 Z M 10.554688 10.476562 "/>
<path fill-rule="nonzero" fill="rgb(21.176471%, 21.176471%, 21.176471%)" fill-opacity="1" d="M 6.039062 10.476562 C 6.039062 11.34375 5.351562 12.03125 4.488281 12.03125 C 3.632812 12.03125 2.929688 11.34375 2.929688 10.476562 C 2.929688 9.621094 3.632812 8.929688 4.488281 8.929688 C 5.351562 8.929688 6.039062 9.621094 6.039062 10.476562 Z M 6.039062 10.476562 "/>
<path fill-rule="nonzero" fill="rgb(21.176471%, 21.176471%, 21.176471%)" fill-opacity="1" d="M 6.039062 20.222656 C 6.039062 21.070312 5.351562 21.773438 4.488281 21.773438 C 3.632812 21.773438 2.929688 21.070312 2.929688 20.222656 C 2.929688 19.363281 3.632812 18.675781 4.488281 18.675781 C 5.351562 18.675781 6.039062 19.363281 6.039062 20.222656 Z M 6.039062 20.222656 "/>
<path fill-rule="nonzero" fill="rgb(0%, 96.470588%, 0%)" fill-opacity="1" d="M 10.554688 20.222656 C 10.554688 21.070312 9.867188 21.773438 9 21.773438 C 8.132812 21.773438 7.445312 21.070312 7.445312 20.222656 C 7.445312 19.363281 8.132812 18.675781 9 18.675781 C 9.867188 18.675781 10.554688 19.363281 10.554688 20.222656 Z M 10.554688 20.222656 "/>
<path fill-rule="nonzero" fill="rgb(0%, 96.470588%, 0%)" fill-opacity="1" d="M 10.554688 29.976562 C 10.554688 30.820312 9.867188 31.523438 9 31.523438 C 8.132812 31.523438 7.445312 30.820312 7.445312 29.976562 C 7.445312 29.109375 8.132812 28.417969 9 28.417969 C 9.867188 28.417969 10.554688 29.109375 10.554688 29.976562 Z M 10.554688 29.976562 "/>
<path fill-rule="nonzero" fill="rgb(21.176471%, 21.176471%, 21.176471%)" fill-opacity="1" d="M 15.070312 15.351562 C 15.070312 16.207031 14.367188 16.898438 13.511719 16.898438 C 12.648438 16.898438 11.960938 16.207031 11.960938 15.351562 C 11.960938 14.496094 12.648438 13.804688 13.511719 13.804688 C 14.367188 13.804688 15.070312 14.496094 15.070312 15.351562 Z M 15.070312 15.351562 "/>
<path fill-rule="nonzero" fill="rgb(21.176471%, 21.176471%, 21.176471%)" fill-opacity="1" d="M 15.070312 10.476562 C 15.070312 11.34375 14.367188 12.03125 13.511719 12.03125 C 12.648438 12.03125 11.960938 11.34375 11.960938 10.476562 C 11.960938 9.621094 12.648438 8.929688 13.511719 8.929688 C 14.367188 8.929688 15.070312 9.621094 15.070312 10.476562 Z M 15.070312 10.476562 "/>
</svg>
