<?xml version="1.0" encoding="UTF-8"?>
<svg xmlns="http://www.w3.org/2000/svg" xmlns:xlink="http://www.w3.org/1999/xlink" width="10" height="29.651538" viewBox="0 0 10 29.651538">
<path fill-rule="nonzero" fill="rgb(0%, 0%, 0%)" fill-opacity="1" d="M 2.089844 0 L 2.121094 0.0234375 L 0.0234375 2.121094 L 0 2.089844 L 0 27.558594 L 2.089844 29.652344 L 7.910156 29.652344 L 7.878906 29.628906 L 9.976562 27.53125 L 10 27.558594 L 10 2.089844 L 7.910156 0 Z M 2.089844 0 "/>
<path fill="none" stroke-width="0.603331" stroke-linecap="round" stroke-linejoin="round" stroke="rgb(100%, 100%, 100%)" stroke-opacity="1" stroke-miterlimit="4" d="M 1.927566 0.544069 L 1.943111 0.565832 L 0.519199 2.017725 L 0.506763 21.737972 L 1.958656 23.127685 L 6.000327 23.127685 L 5.984783 23.11214 L 7.439784 21.716209 L 7.45222 21.737972 L 7.45222 1.890257 L 6.000327 0.544069 Z M 1.927566 0.544069 " transform="matrix(1.256442, 0, 0, 1.256442, 0, 0.00000208647)"/>
<path fill-rule="nonzero" fill="rgb(21.176471%, 21.176471%, 21.176471%)" fill-opacity="1" d="M 6.828125 14.871094 C 6.828125 15.882812 6.011719 16.699219 5 16.699219 C 3.988281 16.699219 3.171875 15.882812 3.171875 14.871094 C 3.171875 13.855469 3.988281 13.039062 5 13.039062 C 6.011719 13.039062 6.828125 13.855469 6.828125 14.871094 Z M 6.828125 14.871094 "/>
<path fill-rule="nonzero" fill="rgb(0%, 96.470588%, 0%)" fill-opacity="1" d="M 6.828125 4.386719 C 6.828125 5.398438 6.011719 6.214844 5 6.214844 C 3.988281 6.214844 3.171875 5.398438 3.171875 4.386719 C 3.171875 3.371094 3.988281 2.554688 5 2.554688 C 6.011719 2.554688 6.828125 3.371094 6.828125 4.386719 Z M 6.828125 4.386719 "/>
<path fill-rule="nonzero" fill="rgb(21.176471%, 21.176471%, 21.176471%)" fill-opacity="1" d="M 6.828125 25.363281 C 6.828125 26.375 6.011719 27.195312 5 27.195312 C 3.988281 27.195312 3.171875 26.375 3.171875 25.363281 C 3.171875 24.347656 3.988281 23.53125 5 23.53125 C 6.011719 23.53125 6.828125 24.347656 6.828125 25.363281 Z M 6.828125 25.363281 "/>
<path fill-rule="nonzero" fill="rgb(21.176471%, 21.176471%, 21.176471%)" fill-opacity="1" d="M 6.828125 9.628906 C 6.828125 10.644531 6.011719 11.460938 5 11.460938 C 3.988281 11.460938 3.171875 10.644531 3.171875 9.628906 C 3.171875 8.613281 3.988281 7.792969 5 7.792969 C 6.011719 7.792969 6.828125 8.613281 6.828125 9.628906 Z M 6.828125 9.628906 "/>
<path fill-rule="nonzero" fill="rgb(21.176471%, 21.176471%, 21.176471%)" fill-opacity="1" d="M 6.828125 20.117188 C 6.828125 21.128906 6.011719 21.945312 5 21.945312 C 3.988281 21.945312 3.171875 21.128906 3.171875 20.117188 C 3.171875 19.105469 3.988281 18.285156 5 18.285156 C 6.011719 18.285156 6.828125 19.105469 6.828125 20.117188 Z M 6.828125 20.117188 "/>
</svg>
