<?xml version="1.0" encoding="UTF-8"?>
<svg xmlns="http://www.w3.org/2000/svg" xmlns:xlink="http://www.w3.org/1999/xlink" width="16" height="16" viewBox="0 0 16 16">
<path fill-rule="nonzero" fill="rgb(100%, 100%, 100%)" fill-opacity="1" stroke-width="0.781956" stroke-linecap="round" stroke-linejoin="miter" stroke="rgb(0%, 0%, 0%)" stroke-opacity="1" stroke-miterlimit="4" d="M 0.390625 0.390625 L 15.609375 0.390625 L 15.609375 15.609375 L 0.390625 15.609375 Z M 0.390625 0.390625 "/>
<path fill-rule="nonzero" fill="rgb(0%, 0%, 0%)" fill-opacity="1" d="M 2.375 12.285156 L 2.375 5.011719 L 1.152344 5.902344 L 1.152344 4.601562 L 2.375 3.714844 L 3.609375 3.714844 L 3.609375 12.285156 Z M 2.375 12.285156 "/>
<path fill-rule="nonzero" fill="rgb(0%, 0%, 0%)" fill-opacity="1" d="M 6.828125 12.285156 L 6.828125 5.011719 L 5.605469 5.902344 L 5.605469 4.601562 L 6.828125 3.714844 L 8.058594 3.714844 L 8.058594 12.285156 Z M 6.828125 12.285156 "/>
<path fill-rule="nonzero" fill="rgb(0%, 0%, 0%)" fill-opacity="1" d="M 13.636719 9.792969 L 13.636719 6.210938 C 13.636719 5.808594 13.527344 5.492188 13.308594 5.261719 C 13.09375 5.035156 12.808594 4.921875 12.453125 4.921875 C 12.09375 4.921875 11.804688 5.035156 11.589844 5.261719 C 11.375 5.492188 11.265625 5.808594 11.265625 6.210938 L 11.265625 9.792969 C 11.265625 10.203125 11.375 10.519531 11.589844 10.75 C 11.804688 10.972656 12.09375 11.082031 12.453125 11.082031 C 12.808594 11.082031 13.09375 10.972656 13.308594 10.75 C 13.527344 10.519531 13.636719 10.203125 13.636719 9.792969 Z M 10.058594 9.863281 L 10.058594 6.144531 C 10.058594 5.367188 10.300781 4.769531 10.785156 4.347656 C 11.273438 3.925781 11.828125 3.714844 12.453125 3.714844 C 13.074219 3.714844 13.625 3.925781 14.113281 4.347656 C 14.601562 4.769531 14.847656 5.367188 14.847656 6.144531 L 14.847656 9.863281 C 14.847656 10.636719 14.601562 11.234375 14.113281 11.65625 C 13.625 12.078125 13.074219 12.285156 12.453125 12.285156 C 11.828125 12.285156 11.273438 12.078125 10.785156 11.65625 C 10.300781 11.234375 10.058594 10.636719 10.058594 9.863281 Z M 10.058594 9.863281 "/>
</svg>
