<?xml version="1.0" encoding="UTF-8"?>
<svg xmlns="http://www.w3.org/2000/svg" xmlns:xlink="http://www.w3.org/1999/xlink" width="16" height="16" viewBox="0 0 16 16">
<path fill-rule="nonzero" fill="rgb(100%, 100%, 100%)" fill-opacity="1" stroke-width="0.781956" stroke-linecap="round" stroke-linejoin="miter" stroke="rgb(0%, 0%, 0%)" stroke-opacity="1" stroke-miterlimit="4" d="M 0.390625 0.390625 L 15.609375 0.390625 L 15.609375 15.609375 L 0.390625 15.609375 Z M 0.390625 0.390625 "/>
<path fill-rule="nonzero" fill="rgb(0%, 0%, 0%)" fill-opacity="1" d="M 1.597656 5.640625 L 1.597656 2.449219 L 7.914062 2.449219 L 7.914062 4.042969 L 4.15625 13.550781 L 2.375 13.550781 L 6.140625 4.042969 L 3.191406 4.042969 L 3.191406 5.640625 Z M 1.597656 5.640625 "/>
<path fill-rule="nonzero" fill="rgb(0%, 0%, 0%)" fill-opacity="1" d="M 8.421875 8.40625 L 8.421875 2.414062 L 14.324219 2.414062 L 14.324219 4.003906 L 9.921875 4.003906 L 9.921875 6.503906 C 10.425781 6.097656 11.019531 5.898438 11.691406 5.898438 C 12.113281 5.898438 12.496094 5.976562 12.839844 6.140625 C 13.191406 6.300781 13.46875 6.492188 13.671875 6.710938 C 13.976562 7.039062 14.195312 7.398438 14.332031 7.789062 C 14.476562 8.175781 14.546875 8.828125 14.546875 9.746094 C 14.546875 10.492188 14.488281 11.046875 14.378906 11.410156 C 14.273438 11.773438 14.097656 12.105469 13.859375 12.410156 C 13.632812 12.699219 13.3125 12.964844 12.902344 13.214844 C 12.492188 13.464844 12.011719 13.585938 11.457031 13.585938 C 10.742188 13.585938 10.050781 13.367188 9.386719 12.925781 C 8.722656 12.484375 8.332031 11.746094 8.214844 10.710938 L 9.804688 10.710938 C 9.992188 11.574219 10.523438 12.003906 11.394531 12.003906 C 12.171875 12.003906 12.625 11.738281 12.757812 11.207031 C 12.890625 10.675781 12.957031 10.148438 12.957031 9.625 C 12.957031 9.011719 12.851562 8.5 12.644531 8.09375 C 12.4375 7.6875 12.003906 7.488281 11.351562 7.488281 C 10.738281 7.488281 10.261719 7.792969 9.921875 8.40625 Z M 8.421875 8.40625 "/>
</svg>
