<?xml version="1.0" encoding="UTF-8"?>
<svg xmlns="http://www.w3.org/2000/svg" xmlns:xlink="http://www.w3.org/1999/xlink" width="14" height="14" viewBox="0 0 14 14">
<path fill-rule="nonzero" fill="rgb(0%, 0%, 0%)" fill-opacity="1" d="M 1.238281 0 L 0 1.238281 L 0 12.761719 L 1.238281 14 L 12.761719 14 L 14 12.761719 L 14 1.238281 L 12.761719 0 Z M 1.238281 0 "/>
<path fill="none" stroke-width="0.611253" stroke-linecap="square" stroke-linejoin="miter" stroke="rgb(100%, 100%, 100%)" stroke-opacity="1" stroke-miterlimit="4" d="M 2.52256 0.781637 L 0.781638 2.522559 L 0.781638 18.700106 L 2.52256 20.441028 L 18.700107 20.441028 L 20.441029 18.700106 L 20.441029 2.522559 L 18.700107 0.781637 Z M 2.52256 0.781637 L 2.52256 0.781637 M 2.52256 0.781637 " transform="matrix(0.659672, 0, 0, 0.659672, 0, 0.000000629113)"/>
<path fill-rule="nonzero" fill="rgb(21.176471%, 21.176471%, 21.176471%)" fill-opacity="1" d="M 4.699219 3.074219 C 4.699219 3.742188 4.160156 4.28125 3.492188 4.28125 C 2.824219 4.28125 2.285156 3.742188 2.285156 3.074219 C 2.285156 2.410156 2.824219 1.871094 3.492188 1.871094 C 4.160156 1.871094 4.699219 2.410156 4.699219 3.074219 Z M 4.699219 3.074219 "/>
<path fill-rule="nonzero" fill="rgb(90.588235%, 47.45098%, 9.803922%)" fill-opacity="1" d="M 11.714844 10.65625 C 11.714844 11.320312 11.175781 11.859375 10.507812 11.859375 C 9.839844 11.859375 9.300781 11.320312 9.300781 10.65625 C 9.300781 9.988281 9.839844 9.449219 10.507812 9.449219 C 11.175781 9.449219 11.714844 9.988281 11.714844 10.65625 Z M 11.714844 10.65625 "/>
<path fill-rule="nonzero" fill="rgb(0%, 96.470588%, 0%)" fill-opacity="1" d="M 4.699219 10.65625 C 4.699219 11.320312 4.160156 11.859375 3.492188 11.859375 C 2.824219 11.859375 2.285156 11.320312 2.285156 10.65625 C 2.285156 9.988281 2.824219 9.449219 3.492188 9.449219 C 4.160156 9.449219 4.699219 9.988281 4.699219 10.65625 Z M 4.699219 10.65625 "/>
<path fill-rule="nonzero" fill="rgb(0%, 96.470588%, 0%)" fill-opacity="1" d="M 11.714844 6.867188 C 11.714844 7.53125 11.175781 8.070312 10.507812 8.070312 C 9.839844 8.070312 9.300781 7.53125 9.300781 6.867188 C 9.300781 6.199219 9.839844 5.660156 10.507812 5.660156 C 11.175781 5.660156 11.714844 6.199219 11.714844 6.867188 Z M 11.714844 6.867188 "/>
<path fill-rule="nonzero" fill="rgb(21.176471%, 21.176471%, 21.176471%)" fill-opacity="1" d="M 11.714844 3.074219 C 11.714844 3.742188 11.175781 4.28125 10.507812 4.28125 C 9.839844 4.28125 9.300781 3.742188 9.300781 3.074219 C 9.300781 2.410156 9.839844 1.871094 10.507812 1.871094 C 11.175781 1.871094 11.714844 2.410156 11.714844 3.074219 Z M 11.714844 3.074219 "/>
</svg>
