<?xml version="1.0" encoding="UTF-8"?>
<svg xmlns="http://www.w3.org/2000/svg" xmlns:xlink="http://www.w3.org/1999/xlink" width="16" height="16" viewBox="0 0 16 16">
<path fill-rule="nonzero" fill="rgb(100%, 94.901961%, 0%)" fill-opacity="1" stroke-width="0.80049" stroke-linecap="butt" stroke-linejoin="miter" stroke="rgb(0%, 0%, 0%)" stroke-opacity="1" stroke-miterlimit="4" d="M -48.075176 125.895356 L -12.166136 125.906546 C -8.495783 125.906546 -5.519215 128.950254 -5.519215 132.687748 L -5.519215 168.294655 C -5.519215 172.05453 -8.495783 175.098238 -12.166136 175.098238 L -48.063986 175.098238 C -51.73434 175.098238 -54.710907 172.05453 -54.722097 168.305846 L -54.722097 132.698938 C -54.722097 128.939064 -51.74553 125.895356 -48.075176 125.895356 Z M -48.075176 125.895356 " transform="matrix(0.17454, -0.17454, 0.17454, 0.17454, -13.028078, -23.521136)"/>
<path fill-rule="nonzero" fill="rgb(0%, 0%, 0%)" fill-opacity="1" d="M 6.1875 14.789062 L 6.796875 15.40625 C 7.457031 16.070312 8.507812 16.070312 9.136719 15.429688 L 9.800781 14.789062 L 9.800781 1.238281 L 9.171875 0.605469 C 8.511719 -0.0546875 7.460938 -0.0585938 6.832031 0.570312 L 6.1875 1.210938 Z M 6.1875 14.789062 "/>
</svg>
