<?xml version="1.0" encoding="UTF-8"?>
<svg xmlns="http://www.w3.org/2000/svg" xmlns:xlink="http://www.w3.org/1999/xlink" width="16" height="22.66054" viewBox="0 0 16 22.66054">
<path fill-rule="nonzero" fill="rgb(0%, 0%, 0%)" fill-opacity="1" stroke-width="0.800565" stroke-linecap="butt" stroke-linejoin="miter" stroke="rgb(100%, 94.901961%, 0%)" stroke-opacity="1" stroke-miterlimit="4" d="M 62.671584 95.791588 L 107.558445 95.791588 L 107.558445 159.697361 L 62.671584 159.697361 Z M 62.671584 95.791588 " transform="matrix(0.350186, 0, 0, 0.350186, -21.806086, -33.404247)"/>
<path fill-rule="nonzero" fill="rgb(100%, 94.901961%, 0%)" fill-opacity="1" d="M 7.816406 19.753906 L 7.816406 20.804688 L 3.542969 20.804688 C 3.542969 20.476562 3.59375 20.175781 3.699219 19.894531 C 3.804688 19.589844 3.949219 19.332031 4.140625 19.125 C 4.285156 18.960938 4.457031 18.808594 4.652344 18.667969 C 4.847656 18.503906 5.238281 18.214844 5.824219 17.792969 C 6.109375 17.605469 6.308594 17.429688 6.417969 17.269531 C 6.535156 17.082031 6.589844 16.882812 6.589844 16.671875 C 6.589844 16.414062 6.511719 16.207031 6.359375 16.042969 C 6.207031 15.878906 6.007812 15.796875 5.757812 15.796875 C 5.148438 15.796875 4.832031 16.230469 4.8125 17.09375 L 3.671875 17.09375 C 3.671875 17.046875 3.671875 17.011719 3.671875 16.988281 C 3.671875 16.265625 3.875 15.703125 4.277344 15.304688 C 4.667969 14.933594 5.175781 14.746094 5.800781 14.746094 C 6.351562 14.746094 6.8125 14.898438 7.183594 15.203125 C 7.585938 15.550781 7.789062 16.007812 7.789062 16.566406 C 7.789062 17.082031 7.628906 17.511719 7.304688 17.863281 C 7.199219 17.980469 7.101562 18.085938 7.007812 18.179688 C 6.917969 18.25 6.675781 18.410156 6.28125 18.667969 C 5.910156 18.925781 5.640625 19.125 5.476562 19.265625 C 5.316406 19.402344 5.167969 19.566406 5.03125 19.753906 Z M 7.816406 19.753906 "/>
<path fill-rule="nonzero" fill="rgb(100%, 94.901961%, 0%)" fill-opacity="1" d="M 12.140625 14.886719 L 12.140625 15.9375 L 9.75 15.9375 L 9.492188 17.269531 C 9.78125 16.964844 10.148438 16.8125 10.59375 16.8125 C 11.03125 16.8125 11.414062 16.929688 11.738281 17.164062 C 12.21875 17.511719 12.460938 18.050781 12.460938 18.773438 C 12.460938 19.472656 12.203125 20.035156 11.6875 20.453125 C 11.289062 20.78125 10.8125 20.945312 10.253906 20.945312 C 9.625 20.945312 9.121094 20.78125 8.742188 20.453125 C 8.359375 20.105469 8.15625 19.648438 8.136719 19.089844 L 9.300781 19.089844 C 9.324219 19.296875 9.390625 19.472656 9.503906 19.613281 C 9.683594 19.847656 9.933594 19.964844 10.257812 19.964844 C 10.566406 19.964844 10.8125 19.847656 10.996094 19.613281 C 11.171875 19.402344 11.257812 19.136719 11.257812 18.808594 C 11.257812 18.480469 11.167969 18.214844 10.980469 18.003906 C 10.800781 17.792969 10.554688 17.6875 10.25 17.6875 C 9.875 17.6875 9.585938 17.863281 9.378906 18.214844 L 8.316406 18.179688 L 8.878906 14.886719 Z M 12.140625 14.886719 "/>
<path fill-rule="nonzero" fill="rgb(100%, 94.901961%, 0%)" fill-opacity="1" d="M 5.953125 13.03125 L 10.050781 13.03125 L 10.050781 1.964844 L 5.949219 1.964844 Z M 5.953125 13.03125 "/>
</svg>
