<?xml version="1.0" encoding="UTF-8"?>
<svg xmlns="http://www.w3.org/2000/svg" xmlns:xlink="http://www.w3.org/1999/xlink" width="16" height="16" viewBox="0 0 16 16">
<path fill-rule="nonzero" fill="rgb(0%, 0%, 0%)" fill-opacity="1" stroke-width="1" stroke-linecap="round" stroke-linejoin="miter" stroke="rgb(0%, 0%, 0%)" stroke-opacity="1" stroke-miterlimit="4" d="M 0.498917 0.498917 L 15.719833 0.498917 L 15.719833 15.719833 L 0.498917 15.719833 Z M 0.498917 0.498917 " transform="matrix(0.986513, 0, 0, 0.986513, 0, 0)"/>
<path fill-rule="nonzero" fill="rgb(90.588236%, 47.450981%, 9.803922%)" fill-opacity="1" d="M 4.445312 13.542969 L 4.445312 3.992188 L 2.84375 5.164062 L 2.84375 3.453125 L 4.445312 2.289062 L 6.066406 2.289062 L 6.066406 13.542969 Z M 4.445312 13.542969 "/>
<path fill-rule="nonzero" fill="rgb(90.588236%, 47.450981%, 9.803922%)" fill-opacity="1" d="M 11.546875 10.390625 L 11.546875 5.617188 C 11.546875 5.078125 11.398438 4.65625 11.105469 4.355469 C 10.820312 4.050781 10.4375 3.898438 9.964844 3.898438 C 9.488281 3.898438 9.105469 4.050781 8.816406 4.355469 C 8.53125 4.65625 8.386719 5.078125 8.386719 5.617188 L 8.386719 10.390625 C 8.386719 10.933594 8.53125 11.359375 8.816406 11.660156 C 9.105469 11.957031 9.488281 12.109375 9.964844 12.109375 C 10.4375 12.109375 10.820312 11.957031 11.105469 11.660156 C 11.398438 11.359375 11.546875 10.933594 11.546875 10.390625 Z M 6.777344 10.480469 L 6.777344 5.527344 C 6.777344 4.492188 7.097656 3.695312 7.746094 3.136719 C 8.394531 2.570312 9.132812 2.289062 9.964844 2.289062 C 10.792969 2.289062 11.53125 2.570312 12.179688 3.136719 C 12.832031 3.695312 13.15625 4.492188 13.15625 5.527344 L 13.15625 10.480469 C 13.15625 11.515625 12.832031 12.3125 12.179688 12.871094 C 11.53125 13.429688 10.792969 13.710938 9.964844 13.710938 C 9.132812 13.710938 8.394531 13.429688 7.746094 12.871094 C 7.097656 12.3125 6.777344 11.515625 6.777344 10.480469 Z M 6.777344 10.480469 "/>
</svg>
