<?xml version="1.0" encoding="UTF-8"?>
<svg xmlns="http://www.w3.org/2000/svg" xmlns:xlink="http://www.w3.org/1999/xlink" width="16" height="16.587582" viewBox="0 0 16 16.587582">
<path fill-rule="nonzero" fill="rgb(20%, 20%, 20%)" fill-opacity="1" stroke-width="0.8" stroke-linecap="butt" stroke-linejoin="miter" stroke="rgb(0%, 0%, 0%)" stroke-opacity="1" stroke-miterlimit="4" d="M 117.504128 78.504153 L 158.085709 78.504153 L 158.085709 120.611585 L 117.504128 120.611585 Z M 117.504128 78.504153 " transform="matrix(0.386567, 0, 0, 0.386567, -45.266968, -30.190865)"/>
<path fill-rule="nonzero" fill="rgb(100%, 94.901961%, 0%)" fill-opacity="1" stroke-width="0.7" stroke-linecap="butt" stroke-linejoin="miter" stroke="rgb(0%, 0%, 0%)" stroke-opacity="1" stroke-miterlimit="4" d="M 127.558578 86.497188 C 127.558578 87.911885 126.416716 89.063852 125.00202 89.063852 C 123.587323 89.063852 122.435356 87.911885 122.435356 86.497188 C 122.435356 85.082492 123.587323 83.94063 125.00202 83.94063 C 126.416716 83.94063 127.558578 85.082492 127.558578 86.497188 Z M 127.558578 86.497188 " transform="matrix(0.386567, 0, 0, 0.386567, -45.266968, -30.190865)"/>
<path fill-rule="nonzero" fill="rgb(100%, 94.901961%, 0%)" fill-opacity="1" stroke-width="0.7" stroke-linecap="butt" stroke-linejoin="miter" stroke="rgb(0%, 0%, 0%)" stroke-opacity="1" stroke-miterlimit="4" d="M 127.558578 92.994688 C 127.558578 94.409384 126.416716 95.551246 125.00202 95.551246 C 123.587323 95.551246 122.435356 94.409384 122.435356 92.994688 C 122.435356 91.569886 123.587323 90.428024 125.00202 90.428024 C 126.416716 90.428024 127.558578 91.569886 127.558578 92.994688 Z M 127.558578 92.994688 " transform="matrix(0.386567, 0, 0, 0.386567, -45.266968, -30.190865)"/>
<path fill-rule="nonzero" fill="rgb(100%, 94.901961%, 0%)" fill-opacity="1" stroke-width="0.7" stroke-linecap="butt" stroke-linejoin="miter" stroke="rgb(0%, 0%, 0%)" stroke-opacity="1" stroke-miterlimit="4" d="M 127.558578 113.002539 C 127.558578 114.417235 126.416716 115.559098 125.00202 115.559098 C 123.587323 115.559098 122.435356 114.417235 122.435356 113.002539 C 122.435356 111.587842 123.587323 110.435875 125.00202 110.435875 C 126.416716 110.435875 127.558578 111.587842 127.558578 113.002539 Z M 127.558578 113.002539 " transform="matrix(0.386567, 0, 0, 0.386567, -45.266968, -30.190865)"/>
<path fill-rule="nonzero" fill="rgb(100%, 94.901961%, 0%)" fill-opacity="1" stroke-width="0.7" stroke-linecap="butt" stroke-linejoin="miter" stroke="rgb(0%, 0%, 0%)" stroke-opacity="1" stroke-miterlimit="4" d="M 153.164586 86.497188 C 153.164586 87.911885 152.012619 89.063852 150.597922 89.063852 C 149.183226 89.063852 148.041364 87.911885 148.041364 86.497188 C 148.041364 85.082492 149.183226 83.94063 150.597922 83.94063 C 152.012619 83.94063 153.164586 85.082492 153.164586 86.497188 Z M 153.164586 86.497188 " transform="matrix(0.386567, 0, 0, 0.386567, -45.266968, -30.190865)"/>
<path fill-rule="nonzero" fill="rgb(100%, 94.901961%, 0%)" fill-opacity="1" stroke-width="0.7" stroke-linecap="butt" stroke-linejoin="miter" stroke="rgb(0%, 0%, 0%)" stroke-opacity="1" stroke-miterlimit="4" d="M 153.164586 92.994688 C 153.164586 94.409384 152.012619 95.551246 150.597922 95.551246 C 149.183226 95.551246 148.041364 94.409384 148.041364 92.994688 C 148.041364 91.569886 149.183226 90.428024 150.597922 90.428024 C 152.012619 90.428024 153.164586 91.569886 153.164586 92.994688 Z M 153.164586 92.994688 " transform="matrix(0.386567, 0, 0, 0.386567, -45.266968, -30.190865)"/>
<path fill-rule="nonzero" fill="rgb(100%, 94.901961%, 0%)" fill-opacity="1" stroke-width="0.7" stroke-linecap="butt" stroke-linejoin="miter" stroke="rgb(0%, 0%, 0%)" stroke-opacity="1" stroke-miterlimit="4" d="M 153.164586 113.002539 C 153.164586 114.417235 152.012619 115.559098 150.597922 115.559098 C 149.183226 115.559098 148.041364 114.417235 148.041364 113.002539 C 148.041364 111.587842 149.183226 110.435875 150.597922 110.435875 C 152.012619 110.435875 153.164586 111.587842 153.164586 113.002539 Z M 153.164586 113.002539 " transform="matrix(0.386567, 0, 0, 0.386567, -45.266968, -30.190865)"/>
<path fill-rule="nonzero" fill="rgb(100%, 94.901961%, 0%)" fill-opacity="1" stroke-width="0.7" stroke-linecap="butt" stroke-linejoin="miter" stroke="rgb(0%, 0%, 0%)" stroke-opacity="1" stroke-miterlimit="4" d="M 146.758032 113.002539 C 146.758032 114.417235 145.616169 115.559098 144.201473 115.559098 C 142.786776 115.559098 141.634809 114.417235 141.634809 113.002539 C 141.634809 111.587842 142.786776 110.435875 144.201473 110.435875 C 145.616169 110.435875 146.758032 111.587842 146.758032 113.002539 Z M 146.758032 113.002539 " transform="matrix(0.386567, 0, 0, 0.386567, -45.266968, -30.190865)"/>
<path fill-rule="nonzero" fill="rgb(100%, 94.901961%, 0%)" fill-opacity="1" stroke-width="0.7" stroke-linecap="butt" stroke-linejoin="miter" stroke="rgb(0%, 0%, 0%)" stroke-opacity="1" stroke-miterlimit="4" d="M 140.361582 113.002539 C 140.361582 114.417235 139.21972 115.559098 137.794918 115.559098 C 136.380222 115.559098 135.23836 114.417235 135.23836 113.002539 C 135.23836 111.587842 136.380222 110.435875 137.794918 110.435875 C 139.21972 110.435875 140.361582 111.587842 140.361582 113.002539 Z M 140.361582 113.002539 " transform="matrix(0.386567, 0, 0, 0.386567, -45.266968, -30.190865)"/>
<path fill-rule="nonzero" fill="rgb(100%, 94.901961%, 0%)" fill-opacity="1" stroke-width="0.7" stroke-linecap="butt" stroke-linejoin="miter" stroke="rgb(0%, 0%, 0%)" stroke-opacity="1" stroke-miterlimit="4" d="M 133.965133 113.002539 C 133.965133 114.417235 132.813166 115.559098 131.398469 115.559098 C 129.983772 115.559098 128.84191 114.417235 128.84191 113.002539 C 128.84191 111.587842 129.983772 110.435875 131.398469 110.435875 C 132.813166 110.435875 133.965133 111.587842 133.965133 113.002539 Z M 133.965133 113.002539 " transform="matrix(0.386567, 0, 0, 0.386567, -45.266968, -30.190865)"/>
</svg>
