<?xml version="1.0" encoding="UTF-8"?>
<svg xmlns="http://www.w3.org/2000/svg" xmlns:xlink="http://www.w3.org/1999/xlink" width="16" height="16" viewBox="0 0 16 16">
<path fill-rule="nonzero" fill="rgb(100%, 100%, 100%)" fill-opacity="1" stroke-width="0.781956" stroke-linecap="round" stroke-linejoin="miter" stroke="rgb(0%, 0%, 0%)" stroke-opacity="1" stroke-miterlimit="4" d="M 0.390625 0.390625 L 15.609375 0.390625 L 15.609375 15.609375 L 0.390625 15.609375 Z M 0.390625 0.390625 "/>
<path fill-rule="nonzero" fill="rgb(0%, 0%, 0%)" fill-opacity="1" d="M 2.375 12.285156 L 2.375 5.011719 L 1.152344 5.902344 L 1.152344 4.601562 L 2.375 3.714844 L 3.609375 3.714844 L 3.609375 12.285156 Z M 2.375 12.285156 "/>
<path fill-rule="nonzero" fill="rgb(0%, 0%, 0%)" fill-opacity="1" d="M 8.101562 9.792969 L 8.101562 6.210938 C 8.101562 5.808594 7.992188 5.492188 7.769531 5.261719 C 7.554688 5.035156 7.269531 4.921875 6.914062 4.921875 C 6.554688 4.921875 6.269531 5.035156 6.050781 5.261719 C 5.835938 5.492188 5.726562 5.808594 5.726562 6.210938 L 5.726562 9.792969 C 5.726562 10.203125 5.835938 10.519531 6.050781 10.75 C 6.269531 10.972656 6.554688 11.082031 6.914062 11.082031 C 7.269531 11.082031 7.554688 10.972656 7.769531 10.75 C 7.992188 10.519531 8.101562 10.203125 8.101562 9.792969 Z M 4.519531 9.863281 L 4.519531 6.144531 C 4.519531 5.367188 4.761719 4.769531 5.246094 4.347656 C 5.734375 3.925781 6.289062 3.714844 6.914062 3.714844 C 7.535156 3.714844 8.089844 3.925781 8.574219 4.347656 C 9.066406 4.769531 9.308594 5.367188 9.308594 6.144531 L 9.308594 9.863281 C 9.308594 10.636719 9.066406 11.234375 8.574219 11.65625 C 8.089844 12.078125 7.535156 12.285156 6.914062 12.285156 C 6.289062 12.285156 5.734375 12.078125 5.246094 11.65625 C 4.761719 11.234375 4.519531 10.636719 4.519531 9.863281 Z M 4.519531 9.863281 "/>
<path fill-rule="nonzero" fill="rgb(0%, 0%, 0%)" fill-opacity="1" d="M 13.636719 9.792969 L 13.636719 6.210938 C 13.636719 5.808594 13.527344 5.492188 13.308594 5.261719 C 13.09375 5.035156 12.808594 4.921875 12.453125 4.921875 C 12.09375 4.921875 11.804688 5.035156 11.589844 5.261719 C 11.375 5.492188 11.265625 5.808594 11.265625 6.210938 L 11.265625 9.792969 C 11.265625 10.203125 11.375 10.519531 11.589844 10.75 C 11.804688 10.972656 12.09375 11.082031 12.453125 11.082031 C 12.808594 11.082031 13.09375 10.972656 13.308594 10.75 C 13.527344 10.519531 13.636719 10.203125 13.636719 9.792969 Z M 10.058594 9.863281 L 10.058594 6.144531 C 10.058594 5.367188 10.300781 4.769531 10.785156 4.347656 C 11.273438 3.925781 11.828125 3.714844 12.453125 3.714844 C 13.074219 3.714844 13.625 3.925781 14.113281 4.347656 C 14.601562 4.769531 14.847656 5.367188 14.847656 6.144531 L 14.847656 9.863281 C 14.847656 10.636719 14.601562 11.234375 14.113281 11.65625 C 13.625 12.078125 13.074219 12.285156 12.453125 12.285156 C 11.828125 12.285156 11.273438 12.078125 10.785156 11.65625 C 10.300781 11.234375 10.058594 10.636719 10.058594 9.863281 Z M 10.058594 9.863281 "/>
</svg>
