<?xml version="1.0" encoding="UTF-8"?>
<svg xmlns="http://www.w3.org/2000/svg" xmlns:xlink="http://www.w3.org/1999/xlink" width="16" height="16" viewBox="0 0 16 16">
<path fill-rule="nonzero" fill="rgb(100%, 100%, 100%)" fill-opacity="1" stroke-width="0.781956" stroke-linecap="round" stroke-linejoin="miter" stroke="rgb(0%, 0%, 0%)" stroke-opacity="1" stroke-miterlimit="4" d="M 0.390625 0.390625 L 15.609375 0.390625 L 15.609375 15.609375 L 0.390625 15.609375 Z M 0.390625 0.390625 "/>
<path fill-rule="nonzero" fill="rgb(0%, 0%, 0%)" fill-opacity="1" d="M 2.375 12.285156 L 2.375 5.011719 L 1.152344 5.902344 L 1.152344 4.601562 L 2.375 3.714844 L 3.609375 3.714844 L 3.609375 12.285156 Z M 2.375 12.285156 "/>
<path fill-rule="nonzero" fill="rgb(0%, 0%, 0%)" fill-opacity="1" d="M 6.828125 12.285156 L 6.828125 5.011719 L 5.605469 5.902344 L 5.605469 4.601562 L 6.828125 3.714844 L 8.058594 3.714844 L 8.058594 12.285156 Z M 6.828125 12.285156 "/>
<path fill-rule="nonzero" fill="rgb(0%, 0%, 0%)" fill-opacity="1" d="M 10.097656 8.308594 L 10.097656 3.738281 L 14.597656 3.738281 L 14.597656 4.953125 L 11.242188 4.953125 L 11.242188 6.859375 C 11.628906 6.550781 12.078125 6.394531 12.59375 6.394531 C 12.914062 6.394531 13.207031 6.457031 13.46875 6.582031 C 13.734375 6.707031 13.945312 6.851562 14.101562 7.015625 C 14.332031 7.269531 14.5 7.542969 14.605469 7.839844 C 14.714844 8.132812 14.765625 8.632812 14.765625 9.332031 C 14.765625 9.898438 14.726562 10.324219 14.640625 10.601562 C 14.558594 10.875 14.425781 11.128906 14.246094 11.359375 C 14.070312 11.582031 13.828125 11.785156 13.515625 11.976562 C 13.203125 12.164062 12.835938 12.261719 12.414062 12.261719 C 11.867188 12.261719 11.339844 12.09375 10.835938 11.753906 C 10.328125 11.417969 10.03125 10.855469 9.941406 10.066406 L 11.152344 10.066406 C 11.296875 10.726562 11.699219 11.054688 12.367188 11.054688 C 12.957031 11.054688 13.304688 10.851562 13.40625 10.445312 C 13.503906 10.039062 13.554688 9.636719 13.554688 9.238281 C 13.554688 8.769531 13.476562 8.382812 13.316406 8.074219 C 13.160156 7.761719 12.832031 7.609375 12.332031 7.609375 C 11.863281 7.609375 11.5 7.84375 11.242188 8.308594 Z M 10.097656 8.308594 "/>
</svg>
