<?xml version="1.0" encoding="UTF-8"?>
<svg xmlns="http://www.w3.org/2000/svg" xmlns:xlink="http://www.w3.org/1999/xlink" width="16" height="16" viewBox="0 0 16 16">
<path fill-rule="nonzero" fill="rgb(100%, 100%, 100%)" fill-opacity="1" d="M 15.109375 8 C 15.109375 11.925781 11.925781 15.109375 8 15.109375 C 4.074219 15.109375 0.890625 11.925781 0.890625 8 C 0.890625 4.074219 4.074219 0.890625 8 0.890625 C 11.925781 0.890625 15.109375 4.074219 15.109375 8 Z M 15.109375 8 "/>
<path fill-rule="nonzero" fill="rgb(0%, 0%, 0%)" fill-opacity="1" d="M 0.898438 8.394531 L 8.039062 1.207031 L 10.179688 1.230469 L 1.324219 10.453125 Z M 0.898438 8.394531 "/>
<path fill-rule="nonzero" fill="rgb(0%, 0%, 0%)" fill-opacity="1" d="M 2.453125 12.449219 L 12.386719 2.402344 L 13.472656 3.460938 L 3.703125 13.664062 Z M 2.453125 12.449219 "/>
<path fill-rule="nonzero" fill="rgb(0%, 0%, 0%)" fill-opacity="1" d="M 14.382812 8.355469 L 7.917969 15.019531 L 5.777344 14.996094 L 14.628906 5.769531 Z M 14.382812 8.355469 "/>
<path fill="none" stroke-width="1.77778" stroke-linecap="butt" stroke-linejoin="bevel" stroke="rgb(100%, 51.764709%, 0%)" stroke-opacity="1" stroke-miterlimit="3" d="M 15.109377 8.000001 C 15.109377 11.925783 11.925783 15.109377 8.000001 15.109377 C 4.074219 15.109377 0.890625 11.925783 0.890625 8.000001 C 0.890625 4.074219 4.074219 0.890625 8.000001 0.890625 C 11.925783 0.890625 15.109377 4.074219 15.109377 8.000001 Z M 15.109377 8.000001 " transform="matrix(1, 0, 0, 1, 0, 0)"/>
</svg>
