<?xml version="1.0" encoding="UTF-8"?>
<svg xmlns="http://www.w3.org/2000/svg" xmlns:xlink="http://www.w3.org/1999/xlink" width="16" height="16" viewBox="0 0 16 16">
<path fill-rule="nonzero" fill="rgb(100%, 100%, 100%)" fill-opacity="1" stroke-width="0.781956" stroke-linecap="round" stroke-linejoin="miter" stroke="rgb(0%, 0%, 0%)" stroke-opacity="1" stroke-miterlimit="4" d="M 0.390625 0.390625 L 15.609375 0.390625 L 15.609375 15.609375 L 0.390625 15.609375 Z M 0.390625 0.390625 "/>
<path fill-rule="nonzero" fill="rgb(0%, 0%, 0%)" fill-opacity="1" d="M 5.144531 2.460938 C 5.730469 2.605469 6.199219 2.820312 6.546875 3.109375 C 6.898438 3.390625 7.222656 3.785156 7.515625 4.292969 C 7.570312 4.46875 7.605469 4.589844 7.621094 4.660156 C 7.640625 4.730469 7.679688 4.886719 7.738281 5.136719 C 7.746094 5.210938 7.75 5.296875 7.753906 5.390625 C 7.757812 5.480469 7.761719 5.695312 7.761719 6.039062 C 7.761719 6.375 7.761719 6.898438 7.761719 7.605469 C 7.765625 8.304688 7.769531 9.300781 7.769531 10.585938 C 7.675781 11.347656 7.453125 11.941406 7.097656 12.375 C 6.75 12.808594 6.230469 13.167969 5.53125 13.457031 C 4.316406 13.703125 3.210938 13.398438 2.222656 12.539062 C 1.777344 11.972656 1.53125 11.246094 1.492188 10.363281 C 1.75 10.363281 2.011719 10.363281 2.273438 10.363281 C 2.539062 10.363281 2.800781 10.363281 3.066406 10.363281 C 3.15625 10.871094 3.285156 11.226562 3.453125 11.4375 C 3.621094 11.644531 3.960938 11.824219 4.46875 11.972656 C 4.972656 11.972656 5.363281 11.886719 5.628906 11.71875 C 5.902344 11.550781 6.109375 11.21875 6.25 10.71875 C 6.25 10.328125 6.25 9.933594 6.257812 9.535156 C 6.261719 9.136719 6.261719 8.738281 6.261719 8.34375 C 5.578125 8.734375 4.871094 8.957031 4.140625 9.003906 C 3.414062 9.054688 2.746094 8.773438 2.140625 8.15625 C 1.78125 7.707031 1.578125 7.222656 1.523438 6.695312 C 1.472656 6.167969 1.476562 5.621094 1.535156 5.054688 C 1.710938 4.257812 2.007812 3.675781 2.425781 3.300781 C 2.847656 2.925781 3.453125 2.644531 4.242188 2.460938 C 4.390625 2.460938 4.542969 2.460938 4.691406 2.460938 C 4.839844 2.460938 4.992188 2.460938 5.144531 2.460938 Z M 4.832031 4.03125 C 4.007812 4.03125 3.476562 4.324219 3.246094 4.90625 C 3.011719 5.488281 3.019531 6.125 3.273438 6.820312 C 3.503906 7.148438 3.734375 7.355469 3.976562 7.441406 C 4.214844 7.523438 4.527344 7.566406 4.914062 7.566406 C 5.476562 7.417969 5.824219 7.171875 5.957031 6.828125 C 6.097656 6.480469 6.167969 6.039062 6.167969 5.5 C 6.09375 5.03125 5.964844 4.695312 5.785156 4.496094 C 5.609375 4.296875 5.289062 4.140625 4.832031 4.03125 Z M 4.832031 4.03125 "/>
<path fill-rule="nonzero" fill="rgb(0%, 0%, 0%)" fill-opacity="1" d="M 8.421875 8.40625 L 8.421875 2.414062 L 14.324219 2.414062 L 14.324219 4.003906 L 9.921875 4.003906 L 9.921875 6.503906 C 10.425781 6.097656 11.019531 5.898438 11.691406 5.898438 C 12.113281 5.898438 12.496094 5.976562 12.839844 6.140625 C 13.191406 6.300781 13.46875 6.492188 13.671875 6.710938 C 13.976562 7.039062 14.195312 7.398438 14.332031 7.789062 C 14.476562 8.175781 14.546875 8.828125 14.546875 9.746094 C 14.546875 10.492188 14.488281 11.046875 14.378906 11.410156 C 14.273438 11.773438 14.097656 12.105469 13.859375 12.410156 C 13.632812 12.699219 13.3125 12.964844 12.902344 13.214844 C 12.492188 13.464844 12.011719 13.585938 11.457031 13.585938 C 10.742188 13.585938 10.050781 13.367188 9.386719 12.925781 C 8.722656 12.484375 8.332031 11.746094 8.214844 10.710938 L 9.804688 10.710938 C 9.992188 11.574219 10.523438 12.003906 11.394531 12.003906 C 12.171875 12.003906 12.625 11.738281 12.757812 11.207031 C 12.890625 10.675781 12.957031 10.148438 12.957031 9.625 C 12.957031 9.011719 12.851562 8.5 12.644531 8.09375 C 12.4375 7.6875 12.003906 7.488281 11.351562 7.488281 C 10.738281 7.488281 10.261719 7.792969 9.921875 8.40625 Z M 8.421875 8.40625 "/>
</svg>
