<?xml version="1.0" encoding="UTF-8"?>
<svg xmlns="http://www.w3.org/2000/svg" xmlns:xlink="http://www.w3.org/1999/xlink" width="16" height="16" viewBox="0 0 16 16">
<path fill-rule="nonzero" fill="rgb(0%, 0%, 0%)" fill-opacity="1" stroke-width="1" stroke-linecap="round" stroke-linejoin="miter" stroke="rgb(0%, 0%, 0%)" stroke-opacity="1" stroke-miterlimit="4" d="M 0.498916 0.498916 L 15.719825 0.498916 L 15.719825 15.719825 L 0.498916 15.719825 Z M 0.498916 0.498916 " transform="matrix(0.986513, 0, 0, 0.986513, 0, 0)"/>
<path fill-rule="nonzero" fill="rgb(90.588235%, 47.45098%, 9.803922%)" fill-opacity="1" d="M 3.6875 4.070312 C 3.6875 4.382812 3.433594 4.640625 3.117188 4.640625 C 2.800781 4.640625 2.542969 4.382812 2.542969 4.070312 C 2.542969 3.753906 2.800781 3.496094 3.117188 3.496094 C 3.433594 3.496094 3.6875 3.753906 3.6875 4.070312 Z M 3.6875 4.070312 "/>
<path fill-rule="nonzero" fill="rgb(90.588235%, 47.45098%, 9.803922%)" fill-opacity="1" d="M 4.910156 4.070312 C 4.910156 4.382812 4.65625 4.640625 4.339844 4.640625 C 4.023438 4.640625 3.765625 4.382812 3.765625 4.070312 C 3.765625 3.753906 4.023438 3.496094 4.339844 3.496094 C 4.65625 3.496094 4.910156 3.753906 4.910156 4.070312 Z M 4.910156 4.070312 "/>
<path fill-rule="nonzero" fill="rgb(90.588235%, 47.45098%, 9.803922%)" fill-opacity="1" d="M 2.625 5.214844 C 2.625 5.527344 2.367188 5.785156 2.054688 5.785156 C 1.738281 5.785156 1.480469 5.527344 1.480469 5.214844 C 1.480469 4.898438 1.738281 4.640625 2.054688 4.640625 C 2.367188 4.640625 2.625 4.898438 2.625 5.214844 Z M 2.625 5.214844 "/>
<path fill-rule="nonzero" fill="rgb(90.588235%, 47.45098%, 9.803922%)" fill-opacity="1" d="M 2.625 6.4375 C 2.625 6.753906 2.367188 7.011719 2.054688 7.011719 C 1.738281 7.011719 1.480469 6.753906 1.480469 6.4375 C 1.480469 6.121094 1.738281 5.867188 2.054688 5.867188 C 2.367188 5.867188 2.625 6.121094 2.625 6.4375 Z M 2.625 6.4375 "/>
<path fill-rule="nonzero" fill="rgb(90.588235%, 47.45098%, 9.803922%)" fill-opacity="1" d="M 7.199219 5.128906 C 7.199219 5.445312 6.941406 5.699219 6.625 5.699219 C 6.308594 5.699219 6.054688 5.445312 6.054688 5.128906 C 6.054688 4.8125 6.308594 4.554688 6.625 4.554688 C 6.941406 4.554688 7.199219 4.8125 7.199219 5.128906 Z M 7.199219 5.128906 "/>
<path fill-rule="nonzero" fill="rgb(90.588235%, 47.45098%, 9.803922%)" fill-opacity="1" d="M 9.785156 5.214844 C 9.785156 5.527344 9.53125 5.785156 9.214844 5.785156 C 8.898438 5.785156 8.640625 5.527344 8.640625 5.214844 C 8.640625 4.898438 8.898438 4.640625 9.214844 4.640625 C 9.53125 4.640625 9.785156 4.898438 9.785156 5.214844 Z M 9.785156 5.214844 "/>
<path fill-rule="nonzero" fill="rgb(90.588235%, 47.45098%, 9.803922%)" fill-opacity="1" d="M 7.199219 6.335938 C 7.199219 6.652344 6.941406 6.90625 6.625 6.90625 C 6.308594 6.90625 6.054688 6.652344 6.054688 6.335938 C 6.054688 6.019531 6.308594 5.761719 6.625 5.761719 C 6.941406 5.761719 7.199219 6.019531 7.199219 6.335938 Z M 7.199219 6.335938 "/>
<path fill-rule="nonzero" fill="rgb(90.588235%, 47.45098%, 9.803922%)" fill-opacity="1" d="M 9.785156 6.335938 C 9.785156 6.652344 9.53125 6.90625 9.214844 6.90625 C 8.898438 6.90625 8.640625 6.652344 8.640625 6.335938 C 8.640625 6.019531 8.898438 5.761719 9.214844 5.761719 C 9.53125 5.761719 9.785156 6.019531 9.785156 6.335938 Z M 9.785156 6.335938 "/>
<path fill-rule="nonzero" fill="rgb(90.588235%, 47.45098%, 9.803922%)" fill-opacity="1" d="M 6.136719 7.40625 C 6.136719 7.722656 5.878906 7.980469 5.5625 7.980469 C 5.246094 7.980469 4.992188 7.722656 4.992188 7.40625 C 4.992188 7.09375 5.246094 6.835938 5.5625 6.835938 C 5.878906 6.835938 6.136719 7.09375 6.136719 7.40625 Z M 6.136719 7.40625 "/>
<path fill-rule="nonzero" fill="rgb(90.588235%, 47.45098%, 9.803922%)" fill-opacity="1" d="M 9.785156 7.40625 C 9.785156 7.722656 9.53125 7.980469 9.214844 7.980469 C 8.898438 7.980469 8.640625 7.722656 8.640625 7.40625 C 8.640625 7.09375 8.898438 6.835938 9.214844 6.835938 C 9.53125 6.835938 9.785156 7.09375 9.785156 7.40625 Z M 9.785156 7.40625 "/>
<path fill-rule="nonzero" fill="rgb(90.588235%, 47.45098%, 9.803922%)" fill-opacity="1" d="M 10.917969 7.40625 C 10.917969 7.722656 10.664062 7.980469 10.347656 7.980469 C 10.03125 7.980469 9.773438 7.722656 9.773438 7.40625 C 9.773438 7.09375 10.03125 6.835938 10.347656 6.835938 C 10.664062 6.835938 10.917969 7.09375 10.917969 7.40625 Z M 10.917969 7.40625 "/>
<path fill-rule="nonzero" fill="rgb(90.588235%, 47.45098%, 9.803922%)" fill-opacity="1" d="M 12.050781 7.40625 C 12.050781 7.722656 11.796875 7.980469 11.480469 7.980469 C 11.164062 7.980469 10.90625 7.722656 10.90625 7.40625 C 10.90625 7.09375 11.164062 6.835938 11.480469 6.835938 C 11.796875 6.835938 12.050781 7.09375 12.050781 7.40625 Z M 12.050781 7.40625 "/>
<path fill-rule="nonzero" fill="rgb(90.588235%, 47.45098%, 9.803922%)" fill-opacity="1" d="M 13.296875 7.40625 C 13.296875 7.722656 13.039062 7.980469 12.722656 7.980469 C 12.40625 7.980469 12.152344 7.722656 12.152344 7.40625 C 12.152344 7.09375 12.40625 6.835938 12.722656 6.835938 C 13.039062 6.835938 13.296875 7.09375 13.296875 7.40625 Z M 13.296875 7.40625 "/>
<path fill-rule="nonzero" fill="rgb(90.588235%, 47.45098%, 9.803922%)" fill-opacity="1" d="M 14.316406 8.550781 C 14.316406 8.867188 14.058594 9.121094 13.742188 9.121094 C 13.429688 9.121094 13.171875 8.867188 13.171875 8.550781 C 13.171875 8.234375 13.429688 7.976562 13.742188 7.976562 C 14.058594 7.976562 14.316406 8.234375 14.316406 8.550781 Z M 14.316406 8.550781 "/>
<path fill-rule="nonzero" fill="rgb(90.588235%, 47.45098%, 9.803922%)" fill-opacity="1" d="M 14.316406 9.746094 C 14.316406 10.0625 14.058594 10.316406 13.742188 10.316406 C 13.429688 10.316406 13.171875 10.0625 13.171875 9.746094 C 13.171875 9.429688 13.429688 9.171875 13.742188 9.171875 C 14.058594 9.171875 14.316406 9.429688 14.316406 9.746094 Z M 14.316406 9.746094 "/>
<path fill-rule="nonzero" fill="rgb(90.588235%, 47.45098%, 9.803922%)" fill-opacity="1" d="M 14.316406 10.941406 C 14.316406 11.257812 14.058594 11.515625 13.742188 11.515625 C 13.429688 11.515625 13.171875 11.257812 13.171875 10.941406 C 13.171875 10.625 13.429688 10.371094 13.742188 10.371094 C 14.058594 10.371094 14.316406 10.625 14.316406 10.941406 Z M 14.316406 10.941406 "/>
<path fill-rule="nonzero" fill="rgb(90.588235%, 47.45098%, 9.803922%)" fill-opacity="1" d="M 4.910156 8.550781 C 4.910156 8.867188 4.65625 9.121094 4.339844 9.121094 C 4.023438 9.121094 3.765625 8.867188 3.765625 8.550781 C 3.765625 8.234375 4.023438 7.976562 4.339844 7.976562 C 4.65625 7.976562 4.910156 8.234375 4.910156 8.550781 Z M 4.910156 8.550781 "/>
<path fill-rule="nonzero" fill="rgb(90.588235%, 47.45098%, 9.803922%)" fill-opacity="1" d="M 3.6875 9.683594 C 3.6875 10 3.433594 10.257812 3.117188 10.257812 C 2.800781 10.257812 2.542969 10 2.542969 9.683594 C 2.542969 9.367188 2.800781 9.113281 3.117188 9.113281 C 3.433594 9.113281 3.6875 9.367188 3.6875 9.683594 Z M 3.6875 9.683594 "/>
<path fill-rule="nonzero" fill="rgb(90.588235%, 47.45098%, 9.803922%)" fill-opacity="1" d="M 2.625 10.683594 C 2.625 11 2.367188 11.253906 2.054688 11.253906 C 1.738281 11.253906 1.480469 11 1.480469 10.683594 C 1.480469 10.367188 1.738281 10.109375 2.054688 10.109375 C 2.367188 10.109375 2.625 10.367188 2.625 10.683594 Z M 2.625 10.683594 "/>
<path fill-rule="nonzero" fill="rgb(90.588235%, 47.45098%, 9.803922%)" fill-opacity="1" d="M 2.625 11.929688 C 2.625 12.246094 2.367188 12.503906 2.054688 12.503906 C 1.738281 12.503906 1.480469 12.246094 1.480469 11.929688 C 1.480469 11.617188 1.738281 11.359375 2.054688 11.359375 C 2.367188 11.359375 2.625 11.617188 2.625 11.929688 Z M 2.625 11.929688 "/>
<path fill-rule="nonzero" fill="rgb(90.588235%, 47.45098%, 9.803922%)" fill-opacity="1" d="M 3.757812 11.929688 C 3.757812 12.246094 3.5 12.503906 3.183594 12.503906 C 2.867188 12.503906 2.613281 12.246094 2.613281 11.929688 C 2.613281 11.617188 2.867188 11.359375 3.183594 11.359375 C 3.5 11.359375 3.757812 11.617188 3.757812 11.929688 Z M 3.757812 11.929688 "/>
<path fill-rule="nonzero" fill="rgb(90.588235%, 47.45098%, 9.803922%)" fill-opacity="1" d="M 4.910156 11.929688 C 4.910156 12.246094 4.65625 12.503906 4.339844 12.503906 C 4.023438 12.503906 3.765625 12.246094 3.765625 11.929688 C 3.765625 11.617188 4.023438 11.359375 4.339844 11.359375 C 4.65625 11.359375 4.910156 11.617188 4.910156 11.929688 Z M 4.910156 11.929688 "/>
<path fill-rule="nonzero" fill="rgb(90.588235%, 47.45098%, 9.803922%)" fill-opacity="1" d="M 6.136719 11.929688 C 6.136719 12.246094 5.878906 12.503906 5.5625 12.503906 C 5.246094 12.503906 4.992188 12.246094 4.992188 11.929688 C 4.992188 11.617188 5.246094 11.359375 5.5625 11.359375 C 5.878906 11.359375 6.136719 11.617188 6.136719 11.929688 Z M 6.136719 11.929688 "/>
<path fill-rule="nonzero" fill="rgb(90.588235%, 47.45098%, 9.803922%)" fill-opacity="1" d="M 7.359375 11.929688 C 7.359375 12.246094 7.101562 12.503906 6.785156 12.503906 C 6.46875 12.503906 6.214844 12.246094 6.214844 11.929688 C 6.214844 11.617188 6.46875 11.359375 6.785156 11.359375 C 7.101562 11.359375 7.359375 11.617188 7.359375 11.929688 Z M 7.359375 11.929688 "/>
<path fill-rule="nonzero" fill="rgb(90.588235%, 47.45098%, 9.803922%)" fill-opacity="1" d="M 9.785156 4.070312 C 9.785156 4.382812 9.53125 4.640625 9.214844 4.640625 C 8.898438 4.640625 8.640625 4.382812 8.640625 4.070312 C 8.640625 3.753906 8.898438 3.496094 9.214844 3.496094 C 9.53125 3.496094 9.785156 3.753906 9.785156 4.070312 Z M 9.785156 4.070312 "/>
<path fill-rule="nonzero" fill="rgb(90.588235%, 47.45098%, 9.803922%)" fill-opacity="1" d="M 10.917969 4.070312 C 10.917969 4.382812 10.664062 4.640625 10.347656 4.640625 C 10.03125 4.640625 9.773438 4.382812 9.773438 4.070312 C 9.773438 3.753906 10.03125 3.496094 10.347656 3.496094 C 10.664062 3.496094 10.917969 3.753906 10.917969 4.070312 Z M 10.917969 4.070312 "/>
<path fill-rule="nonzero" fill="rgb(90.588235%, 47.45098%, 9.803922%)" fill-opacity="1" d="M 12.074219 4.070312 C 12.074219 4.382812 11.816406 4.640625 11.5 4.640625 C 11.183594 4.640625 10.929688 4.382812 10.929688 4.070312 C 10.929688 3.753906 11.183594 3.496094 11.5 3.496094 C 11.816406 3.496094 12.074219 3.753906 12.074219 4.070312 Z M 12.074219 4.070312 "/>
<path fill-rule="nonzero" fill="rgb(90.588235%, 47.45098%, 9.803922%)" fill-opacity="1" d="M 13.296875 4.070312 C 13.296875 4.382812 13.039062 4.640625 12.722656 4.640625 C 12.40625 4.640625 12.152344 4.382812 12.152344 4.070312 C 12.152344 3.753906 12.40625 3.496094 12.722656 3.496094 C 13.039062 3.496094 13.296875 3.753906 13.296875 4.070312 Z M 13.296875 4.070312 "/>
<path fill-rule="nonzero" fill="rgb(90.588235%, 47.45098%, 9.803922%)" fill-opacity="1" d="M 14.519531 4.070312 C 14.519531 4.382812 14.261719 4.640625 13.945312 4.640625 C 13.632812 4.640625 13.375 4.382812 13.375 4.070312 C 13.375 3.753906 13.632812 3.496094 13.945312 3.496094 C 14.261719 3.496094 14.519531 3.753906 14.519531 4.070312 Z M 14.519531 4.070312 "/>
<path fill-rule="nonzero" fill="rgb(90.588235%, 47.45098%, 9.803922%)" fill-opacity="1" d="M 9.804688 11.929688 C 9.804688 12.246094 9.546875 12.503906 9.234375 12.503906 C 8.917969 12.503906 8.660156 12.246094 8.660156 11.929688 C 8.660156 11.617188 8.917969 11.359375 9.234375 11.359375 C 9.546875 11.359375 9.804688 11.617188 9.804688 11.929688 Z M 9.804688 11.929688 "/>
<path fill-rule="nonzero" fill="rgb(90.588235%, 47.45098%, 9.803922%)" fill-opacity="1" d="M 10.957031 11.929688 C 10.957031 12.246094 10.703125 12.503906 10.386719 12.503906 C 10.070312 12.503906 9.8125 12.246094 9.8125 11.929688 C 9.8125 11.617188 10.070312 11.359375 10.386719 11.359375 C 10.703125 11.359375 10.957031 11.617188 10.957031 11.929688 Z M 10.957031 11.929688 "/>
<path fill-rule="nonzero" fill="rgb(90.588235%, 47.45098%, 9.803922%)" fill-opacity="1" d="M 12.183594 11.929688 C 12.183594 12.246094 11.925781 12.503906 11.609375 12.503906 C 11.292969 12.503906 11.039062 12.246094 11.039062 11.929688 C 11.039062 11.617188 11.292969 11.359375 11.609375 11.359375 C 11.925781 11.359375 12.183594 11.617188 12.183594 11.929688 Z M 12.183594 11.929688 "/>
<path fill-rule="nonzero" fill="rgb(90.588235%, 47.45098%, 9.803922%)" fill-opacity="1" d="M 13.40625 11.929688 C 13.40625 12.246094 13.148438 12.503906 12.832031 12.503906 C 12.515625 12.503906 12.261719 12.246094 12.261719 11.929688 C 12.261719 11.617188 12.515625 11.359375 12.832031 11.359375 C 13.148438 11.359375 13.40625 11.617188 13.40625 11.929688 Z M 13.40625 11.929688 "/>
<path fill-rule="nonzero" fill="rgb(90.588235%, 47.45098%, 9.803922%)" fill-opacity="1" d="M 6.136719 4.070312 C 6.136719 4.382812 5.878906 4.640625 5.5625 4.640625 C 5.246094 4.640625 4.992188 4.382812 4.992188 4.070312 C 4.992188 3.753906 5.246094 3.496094 5.5625 3.496094 C 5.878906 3.496094 6.136719 3.753906 6.136719 4.070312 Z M 6.136719 4.070312 "/>
</svg>
