<?xml version="1.0" encoding="UTF-8"?>
<svg xmlns="http://www.w3.org/2000/svg" xmlns:xlink="http://www.w3.org/1999/xlink" width="14" height="14.02834" viewBox="0 0 14 14.02834">
<path fill-rule="nonzero" fill="rgb(0%, 0%, 0%)" fill-opacity="1" stroke-width="0.969125" stroke-linecap="round" stroke-linejoin="miter" stroke="rgb(0%, 0%, 0%)" stroke-opacity="1" stroke-miterlimit="4" d="M 0.481372 0.481372 L 15.488579 0.481372 L 15.488579 15.519779 L 0.481372 15.519779 Z M 0.481372 0.481372 " transform="matrix(0.876402, 0, 0, 0.876402, 0, 0)"/>
<path fill-rule="nonzero" fill="rgb(21.176471%, 21.176471%, 21.176471%)" fill-opacity="1" d="M 11.425781 8.851562 C 11.425781 9.796875 10.660156 10.558594 9.71875 10.558594 C 8.777344 10.558594 8.011719 9.796875 8.011719 8.851562 C 8.011719 7.910156 8.777344 7.148438 9.71875 7.148438 C 10.660156 7.148438 11.425781 7.910156 11.425781 8.851562 Z M 11.425781 8.851562 "/>
<path fill-rule="nonzero" fill="rgb(90.588235%, 47.45098%, 9.803922%)" fill-opacity="1" d="M 6.113281 8.851562 C 6.113281 9.796875 5.351562 10.558594 4.410156 10.558594 C 3.464844 10.558594 2.703125 9.796875 2.703125 8.851562 C 2.703125 7.910156 3.464844 7.148438 4.410156 7.148438 C 5.351562 7.148438 6.113281 7.910156 6.113281 8.851562 Z M 6.113281 8.851562 "/>
<path fill="none" stroke-width="0.891863" stroke-linecap="round" stroke-linejoin="miter" stroke="rgb(100%, 100%, 100%)" stroke-opacity="1" stroke-miterlimit="4" d="M 0.864686 0.864686 L 15.109722 0.864686 L 15.109722 15.140922 L 0.864686 15.140922 Z M 0.864686 0.864686 " transform="matrix(0.876402, 0, 0, 0.876402, 0, 0)"/>
</svg>
