<?xml version="1.0" encoding="UTF-8"?>
<svg xmlns="http://www.w3.org/2000/svg" xmlns:xlink="http://www.w3.org/1999/xlink" width="16" height="16" viewBox="0 0 16 16">
<path fill-rule="nonzero" fill="rgb(100%, 100%, 100%)" fill-opacity="1" stroke-width="0.781956" stroke-linecap="round" stroke-linejoin="miter" stroke="rgb(0%, 0%, 0%)" stroke-opacity="1" stroke-miterlimit="4" d="M 0.390625 0.390625 L 15.609375 0.390625 L 15.609375 15.609375 L 0.390625 15.609375 Z M 0.390625 0.390625 "/>
<path fill-rule="nonzero" fill="rgb(0%, 0%, 0%)" fill-opacity="1" d="M 12.839844 10.316406 L 12.839844 5.691406 C 12.839844 5.167969 12.699219 4.757812 12.414062 4.464844 C 12.132812 4.167969 11.765625 4.023438 11.308594 4.023438 C 10.84375 4.023438 10.472656 4.167969 10.191406 4.464844 C 9.914062 4.757812 9.773438 5.167969 9.773438 5.691406 L 9.773438 10.316406 C 9.773438 10.847656 9.914062 11.257812 10.191406 11.550781 C 10.472656 11.839844 10.84375 11.984375 11.308594 11.984375 C 11.765625 11.984375 12.132812 11.839844 12.414062 11.550781 C 12.699219 11.257812 12.839844 10.847656 12.839844 10.316406 Z M 8.210938 10.40625 L 8.210938 5.601562 C 8.210938 4.597656 8.527344 3.824219 9.152344 3.28125 C 9.78125 2.734375 10.5 2.460938 11.308594 2.460938 C 12.109375 2.460938 12.824219 2.734375 13.453125 3.28125 C 14.085938 3.824219 14.402344 4.597656 14.402344 5.601562 L 14.402344 10.40625 C 14.402344 11.410156 14.085938 12.183594 13.453125 12.726562 C 12.824219 13.269531 12.109375 13.539062 11.308594 13.539062 C 10.5 13.539062 9.78125 13.269531 9.152344 12.726562 C 8.527344 12.183594 8.210938 11.410156 8.210938 10.40625 Z M 8.210938 10.40625 "/>
<path fill-rule="nonzero" fill="rgb(0%, 0%, 0%)" fill-opacity="1" d="M 1.597656 5.640625 L 1.597656 2.449219 L 7.914062 2.449219 L 7.914062 4.042969 L 4.15625 13.550781 L 2.375 13.550781 L 6.140625 4.042969 L 3.191406 4.042969 L 3.191406 5.640625 Z M 1.597656 5.640625 "/>
</svg>
