<?xml version="1.0" encoding="UTF-8" standalone="no"?>
<!-- Created with Inkscape (http://www.inkscape.org/) -->

<svg
   xmlns:dc="http://purl.org/dc/elements/1.1/"
   xmlns:cc="http://creativecommons.org/ns#"
   xmlns:rdf="http://www.w3.org/1999/02/22-rdf-syntax-ns#"
   xmlns:svg="http://www.w3.org/2000/svg"
   xmlns="http://www.w3.org/2000/svg"
   xmlns:sodipodi="http://sodipodi.sourceforge.net/DTD/sodipodi-0.dtd"
   xmlns:inkscape="http://www.inkscape.org/namespaces/inkscape"
   version="1.1"
   width="34"
   height="34"
   id="svg2984"
   sodipodi:docname="blockkennzeichen-3x2.svg"
   inkscape:version="0.92.4 5da689c313, 2019-01-14">
  <sodipodi:namedview
     pagecolor="#ffffff"
     bordercolor="#666666"
     borderopacity="1"
     objecttolerance="10"
     gridtolerance="10"
     guidetolerance="10"
     inkscape:pageopacity="0"
     inkscape:pageshadow="2"
     inkscape:window-width="1366"
     inkscape:window-height="713"
     id="namedview31"
     showgrid="false"
     fit-margin-top="0"
     fit-margin-left="0"
     fit-margin-right="0"
     fit-margin-bottom="0"
     inkscape:zoom="6.0959708"
     inkscape:cx="2.5435147"
     inkscape:cy="19.577461"
     inkscape:window-x="0"
     inkscape:window-y="31"
     inkscape:window-maximized="1"
     inkscape:current-layer="svg2984" />
  <defs
     id="defs2986" />
  <metadata
     id="metadata2989">
    <rdf:RDF>
      <cc:Work
         rdf:about="">
        <dc:format>image/svg+xml</dc:format>
        <dc:type
           rdf:resource="http://purl.org/dc/dcmitype/StillImage" />
        <dc:title></dc:title>
      </cc:Work>
    </rdf:RDF>
  </metadata>
  <g
     transform="translate(2.9217756,-124.28079)"
     id="layer2"
     style="display:none">
    <g
       transform="translate(-18.993843,-63.561877)"
       id="layer6"
       style="display:inline">
      <path
         d="m -41.416254,164.19525 a 6.8185296,6.8185296 0 1 1 -13.637059,0 6.8185296,6.8185296 0 1 1 13.637059,0 z"
         transform="matrix(1.4190262,0,0,1.4190262,109.98314,-94.142948)"
         id="path4907"
         style="fill:#3de0b7;fill-opacity:1;stroke:none"
         inkscape:connector-curvature="0" />
    </g>
  </g>
  <g
     transform="translate(2.9217756,-124.28079)"
     id="layer4"
     style="display:none">
    <g
       transform="translate(20.314107,-839.13317)"
       id="layer3-9"
       style="fill:#fdf42b;fill-opacity:1">
      <path
         d="m -41.416254,164.19525 a 6.8185296,6.8185296 0 1 1 -13.637059,0 6.8185296,6.8185296 0 1 1 13.637059,0 z"
         transform="matrix(1.4190262,0,0,1.4190262,110.24728,681.42835)"
         id="path4900-0"
         style="display:inline;fill:#fdf42b;fill-opacity:1;stroke:none"
         inkscape:connector-curvature="0" />
    </g>
  </g>
  <g
     transform="translate(2.9217756,-124.28079)"
     id="layer5"
     style="display:none">
    <g
       transform="translate(-21.406023,-178.91122)"
       id="g3972"
       style="display:inline">
      <path
         d="m -41.416254,164.19525 a 6.8185296,6.8185296 0 1 1 -13.637059,0 6.8185296,6.8185296 0 1 1 13.637059,0 z"
         transform="translate(90.844825,29.261212)"
         id="path3974"
         style="fill:#ffffff;fill-opacity:1;stroke:none"
         inkscape:connector-curvature="0" />
    </g>
  </g>
  <g
     transform="translate(2.9217756,-124.28079)"
     id="layer8"
     style="display:none">
    <g
       transform="translate(0.70124717,-88.953011)"
       id="g3956"
       style="display:inline">
      <path
         d="m -41.416254,164.19525 a 6.8185296,6.8185296 0 1 1 -13.637059,0 6.8185296,6.8185296 0 1 1 13.637059,0 z"
         transform="translate(90.844825,29.261212)"
         id="path3958"
         style="fill:#ffffff;fill-opacity:1;stroke:none"
         inkscape:connector-curvature="0" />
    </g>
    <g
       transform="translate(-28.302853,-64.569033)"
       id="g3968"
       style="display:inline">
      <path
         d="m -41.416254,164.19525 a 6.8185296,6.8185296 0 1 1 -13.637059,0 6.8185296,6.8185296 0 1 1 13.637059,0 z"
         transform="translate(90.844825,29.261212)"
         id="path3970"
         style="fill:#ffffff;fill-opacity:1;stroke:none"
         inkscape:connector-curvature="0" />
    </g>
  </g>
  <g
     transform="translate(2.9217756,-124.28079)"
     id="layer9"
     style="display:none">
    <g
       transform="translate(0.70124717,-64.569033)"
       id="layer7"
       style="display:inline">
      <path
         d="m -41.416254,164.19525 a 6.8185296,6.8185296 0 1 1 -13.637059,0 6.8185296,6.8185296 0 1 1 13.637059,0 z"
         transform="translate(90.844825,29.261212)"
         id="path4878"
         style="fill:#ffffff;fill-opacity:1;stroke:none"
         inkscape:connector-curvature="0" />
    </g>
    <g
       transform="translate(-15.212507,-88.953011)"
       id="g3960"
       style="display:inline">
      <path
         d="m -41.416254,164.19525 a 6.8185296,6.8185296 0 1 1 -13.637059,0 6.8185296,6.8185296 0 1 1 13.637059,0 z"
         transform="translate(90.844825,29.261212)"
         id="path3962"
         style="fill:#ffffff;fill-opacity:1;stroke:none"
         inkscape:connector-curvature="0" />
    </g>
    <g
       transform="translate(16.871674,-88.953011)"
       id="g3964"
       style="display:inline">
      <path
         d="m -41.416254,164.19525 a 6.8185296,6.8185296 0 1 1 -13.637059,0 6.8185296,6.8185296 0 1 1 13.637059,0 z"
         transform="translate(90.844825,29.261212)"
         id="path3966"
         style="fill:#ffffff;fill-opacity:1;stroke:none"
         inkscape:connector-curvature="0" />
    </g>
  </g>
  <g
     transform="translate(2.9217756,-124.28079)"
     id="layer10"
     style="display:none">
    <g
       transform="translate(0.70124717,-88.953011)"
       id="g4116"
       style="display:inline">
      <path
         d="m -41.416254,164.19525 a 6.8185296,6.8185296 0 1 1 -13.637059,0 6.8185296,6.8185296 0 1 1 13.637059,0 z"
         transform="translate(90.844825,29.261212)"
         id="path4118"
         style="fill:#ffffff;fill-opacity:1;stroke:none"
         inkscape:connector-curvature="0" />
    </g>
  </g>
  <rect
     width="33.689484"
     height="33.689484"
     rx="1.2495948"
     ry="1.2495948"
     x="0.15525746"
     y="0.15525746"
     id="rect3863"
     style="fill:#ffffff;fill-opacity:1;stroke:#000000;stroke-width:0.31051493;stroke-opacity:1" />
  <path
     d="m 31.548478,16.999998 a 14.548479,14.548479 0 1 1 -29.0969576,0 14.548479,14.548479 0 1 1 29.0969576,0 z"
     id="path3861"
     style="fill:none;stroke:#000000;stroke-width:2.48411942;stroke-miterlimit:4;stroke-dasharray:none;stroke-opacity:1"
     inkscape:connector-curvature="0" />
</svg>
