<?xml version="1.0" encoding="UTF-8"?>
<svg xmlns="http://www.w3.org/2000/svg" xmlns:xlink="http://www.w3.org/1999/xlink" width="16" height="16.007826" viewBox="0 0 16 16.007826">
<path fill-rule="evenodd" fill="rgb(1.568627%, 1.568627%, 1.568627%)" fill-opacity="1" d="M 2.753906 0.0585938 C 2.054688 0.210938 1.480469 0.515625 0.996094 1.003906 C 0.480469 1.515625 0.136719 2.179688 0.03125 2.871094 C 0.00390625 3.058594 -0.00390625 4.519531 0.00390625 8.171875 L 0.015625 13.21875 L 0.09375 13.480469 C 0.222656 13.890625 0.34375 14.15625 0.550781 14.476562 C 0.996094 15.15625 1.660156 15.644531 2.480469 15.90625 L 2.800781 16.007812 L 13.171875 16.007812 L 13.453125 15.925781 C 13.863281 15.804688 14.136719 15.683594 14.46875 15.46875 C 15.148438 15.023438 15.636719 14.359375 15.894531 13.535156 L 16 13.21875 L 16 8.027344 C 16 2.296875 16.015625 2.757812 15.777344 2.148438 C 15.355469 1.082031 14.375 0.273438 13.230469 0.0546875 C 12.84375 -0.0195312 3.09375 -0.015625 2.753906 0.0585938 M 4.058594 3.203125 C 3.835938 3.261719 3.648438 3.421875 3.535156 3.632812 L 3.445312 3.808594 L 3.445312 12.21875 L 3.535156 12.394531 C 3.851562 13.007812 4.71875 13.007812 5.039062 12.394531 L 5.128906 12.21875 L 5.136719 8.121094 C 5.144531 5.253906 5.132812 3.96875 5.109375 3.835938 C 5.007812 3.367188 4.523438 3.074219 4.058594 3.203125 M 7.207031 3.199219 C 6.984375 3.261719 6.792969 3.421875 6.683594 3.632812 L 6.589844 3.808594 L 6.582031 7.90625 C 6.574219 10.769531 6.585938 12.058594 6.609375 12.1875 C 6.664062 12.433594 6.828125 12.648438 7.054688 12.769531 C 7.234375 12.855469 7.238281 12.859375 8.148438 12.855469 C 9.179688 12.851562 9.492188 12.8125 10.113281 12.605469 C 11.796875 12.042969 13.046875 10.589844 13.351562 8.835938 C 13.433594 8.390625 13.433594 7.636719 13.351562 7.191406 C 13.003906 5.1875 11.421875 3.597656 9.417969 3.238281 C 8.972656 3.15625 7.449219 3.128906 7.207031 3.199219 M 8.292969 8.011719 L 8.292969 11.160156 L 8.644531 11.160156 C 9.867188 11.160156 11.027344 10.371094 11.492188 9.21875 C 11.878906 8.265625 11.78125 7.132812 11.230469 6.304688 C 10.644531 5.410156 9.664062 4.867188 8.644531 4.867188 L 8.292969 4.867188 L 8.292969 8.011719 "/>
</svg>
