<?xml version="1.0" encoding="UTF-8"?>
<svg xmlns="http://www.w3.org/2000/svg" xmlns:xlink="http://www.w3.org/1999/xlink" width="18" height="18" viewBox="0 0 18 18">
<path fill-rule="evenodd" fill="rgb(1.568627%, 1.568627%, 1.568627%)" fill-opacity="1" d="M 3.835938 1.179688 C 3.148438 1.328125 2.585938 1.628906 2.109375 2.109375 C 1.601562 2.613281 1.265625 3.265625 1.160156 3.945312 C 1.132812 4.128906 1.125 5.566406 1.132812 9.15625 L 1.144531 14.117188 L 1.222656 14.375 C 1.347656 14.777344 1.46875 15.039062 1.671875 15.355469 C 2.109375 16.023438 2.761719 16.503906 3.570312 16.757812 L 3.882812 16.859375 L 14.078125 16.859375 L 14.355469 16.777344 C 14.757812 16.660156 15.027344 16.539062 15.355469 16.328125 C 16.023438 15.890625 16.503906 15.238281 16.757812 14.429688 L 16.859375 14.117188 L 16.859375 9.015625 C 16.859375 3.378906 16.875 3.832031 16.640625 3.234375 C 16.226562 2.1875 15.261719 1.390625 14.136719 1.175781 C 13.757812 1.101562 4.171875 1.105469 3.835938 1.179688 M 5.121094 4.269531 C 4.902344 4.328125 4.714844 4.484375 4.605469 4.695312 L 4.515625 4.867188 L 4.515625 13.132812 L 4.605469 13.308594 C 4.917969 13.910156 5.769531 13.910156 6.082031 13.308594 L 6.171875 13.132812 L 6.179688 9.105469 C 6.1875 6.289062 6.175781 5.023438 6.152344 4.894531 C 6.054688 4.433594 5.578125 4.144531 5.121094 4.269531 M 8.214844 4.265625 C 7.996094 4.328125 7.808594 4.484375 7.699219 4.695312 L 7.609375 4.867188 L 7.601562 8.894531 C 7.59375 11.710938 7.605469 12.976562 7.628906 13.105469 C 7.679688 13.34375 7.84375 13.558594 8.066406 13.675781 C 8.242188 13.761719 8.246094 13.765625 9.140625 13.761719 C 10.15625 13.757812 10.460938 13.71875 11.074219 13.515625 C 12.726562 12.960938 13.957031 11.53125 14.257812 9.808594 C 14.335938 9.371094 14.335938 8.628906 14.257812 8.191406 C 13.914062 6.222656 12.359375 4.660156 10.390625 4.304688 C 9.949219 4.226562 8.453125 4.199219 8.214844 4.265625 M 9.28125 9 L 9.28125 12.09375 L 9.628906 12.09375 C 10.832031 12.09375 11.972656 11.316406 12.429688 10.183594 C 12.808594 9.246094 12.710938 8.132812 12.171875 7.320312 C 11.59375 6.441406 10.628906 5.90625 9.628906 5.90625 L 9.28125 5.90625 L 9.28125 9 "/>
</svg>
