<?xml version="1.0" encoding="UTF-8"?>
<svg xmlns="http://www.w3.org/2000/svg" xmlns:xlink="http://www.w3.org/1999/xlink" width="24" height="24" viewBox="0 0 24 24">
<path fill-rule="nonzero" fill="rgb(0%, 0%, 0%)" fill-opacity="1" d="M 12 0 C 5.375 0 0 5.375 0 12 C 0 18.625 5.375 24 12 24 C 18.625 24 24 18.625 24 12 C 24 5.375 18.625 0 12 0 Z M 5.070312 3.625 L 18.929688 3.625 L 18.929688 20.375 L 16.898438 20.375 L 16.898438 18.171875 L 15.390625 18.171875 L 15.390625 20.375 L 8.609375 20.375 L 8.609375 18.171875 L 7.101562 18.171875 L 7.101562 20.375 L 5.070312 20.375 Z M 5.070312 3.625 "/>
<path fill-rule="nonzero" fill="rgb(0%, 0%, 0%)" fill-opacity="1" d="M 13.296875 11.347656 L 12.652344 10.703125 L 14.140625 9.207031 L 13.824219 8.886719 C 13.316406 8.382812 12.628906 8.101562 11.914062 8.101562 C 9.816406 8.101562 8.101562 9.839844 8.101562 11.957031 C 8.101562 14.117188 9.851562 15.898438 12 15.898438 C 13 15.898438 13.996094 15.519531 14.761719 14.761719 L 15.679688 15.679688 C 14.664062 16.691406 13.332031 17.203125 12 17.203125 C 9.117188 17.203125 6.796875 14.820312 6.796875 11.957031 C 6.796875 9.140625 9.078125 6.796875 11.914062 6.796875 C 12.976562 6.796875 13.992188 7.21875 14.742188 7.96875 L 15.0625 8.289062 L 16.550781 6.796875 L 17.203125 7.449219 L 17.203125 11.347656 Z M 13.296875 11.347656 "/>
</svg>
