<?xml version="1.0" encoding="UTF-8"?>
<svg xmlns="http://www.w3.org/2000/svg" xmlns:xlink="http://www.w3.org/1999/xlink" width="20" height="6.532917" viewBox="0 0 20 6.532917">
<path fill-rule="nonzero" fill="rgb(0%, 0%, 0%)" fill-opacity="1" d="M 2.542969 6.519531 C 2.128906 6.472656 1.800781 6.308594 1.46875 5.972656 C 1.050781 5.566406 0.847656 4.9375 0.949219 4.394531 C 1.167969 3.222656 2.34375 2.535156 3.4375 2.949219 C 3.566406 2.996094 3.75 3.097656 3.847656 3.171875 L 4.03125 3.308594 L 4.230469 3.167969 C 5.109375 2.542969 6.34375 2.8125 6.890625 3.75 C 7.671875 5.0625 6.589844 6.691406 5.050781 6.515625 C 4.769531 6.488281 4.40625 6.339844 4.175781 6.167969 L 4.042969 6.0625 L 3.90625 6.167969 C 3.546875 6.4375 3.019531 6.578125 2.542969 6.519531 Z M 3.113281 5.234375 C 3.300781 5.121094 3.417969 4.917969 3.417969 4.703125 C 3.417969 4.484375 3.371094 4.371094 3.230469 4.222656 C 2.78125 3.777344 1.996094 4.230469 2.160156 4.847656 C 2.207031 5.019531 2.375 5.21875 2.519531 5.28125 C 2.675781 5.34375 2.972656 5.324219 3.113281 5.234375 Z M 5.625 5.222656 C 5.699219 5.171875 5.800781 5.078125 5.84375 5.019531 C 5.953125 4.871094 5.957031 4.542969 5.847656 4.355469 C 5.761719 4.203125 5.46875 4.027344 5.296875 4.027344 C 5.128906 4.027344 4.84375 4.1875 4.75 4.332031 C 4.636719 4.515625 4.636719 4.832031 4.75 5.015625 C 4.933594 5.3125 5.34375 5.410156 5.625 5.222656 Z M 14.441406 6.515625 C 13.886719 6.449219 13.300781 6.015625 13.046875 5.511719 C 12.855469 5.121094 12.800781 4.714844 12.890625 4.308594 C 13.183594 2.996094 14.6875 2.394531 15.769531 3.167969 L 15.96875 3.308594 L 16.152344 3.171875 C 16.84375 2.640625 17.886719 2.738281 18.53125 3.386719 C 18.949219 3.800781 19.144531 4.417969 19.046875 4.980469 C 18.886719 5.890625 18.136719 6.53125 17.222656 6.53125 C 16.78125 6.53125 16.433594 6.417969 16.09375 6.160156 L 15.957031 6.0625 L 15.824219 6.167969 C 15.457031 6.449219 14.925781 6.578125 14.441406 6.515625 Z M 15.03125 5.234375 C 15.425781 4.996094 15.441406 4.371094 15.050781 4.140625 C 14.839844 4.015625 14.628906 4.011719 14.417969 4.121094 C 14.183594 4.238281 14.066406 4.433594 14.066406 4.703125 C 14.066406 5.171875 14.625 5.484375 15.03125 5.234375 Z M 17.59375 5.214844 C 17.984375 4.921875 17.933594 4.339844 17.5 4.121094 C 17.074219 3.894531 16.625 4.160156 16.59375 4.652344 C 16.574219 4.917969 16.667969 5.097656 16.886719 5.238281 C 17.058594 5.347656 17.425781 5.332031 17.59375 5.214844 Z M 17.59375 5.214844 "/>
<path fill-rule="nonzero" fill="rgb(0%, 0%, 0%)" fill-opacity="1" d="M 8.207031 4.621094 C 8.097656 4.578125 7.953125 4.425781 7.878906 4.277344 C 7.839844 4.199219 7.636719 3.683594 7.4375 3.140625 L 7.074219 2.152344 L 1.21875 2.152344 L 1.199219 2.425781 C 1.175781 2.71875 1.109375 2.847656 0.90625 3 C 0.746094 3.121094 0.433594 3.113281 0.261719 2.988281 C 0.0117188 2.8125 0 2.765625 0 1.535156 C 0 0.496094 0.00390625 0.410156 0.0820312 0.285156 C 0.191406 0.105469 0.488281 -0.0273438 0.683594 0.00390625 C 1.003906 0.0664062 1.207031 0.359375 1.207031 0.765625 L 1.207031 0.941406 L 1.875 0.941406 C 18.066406 0.949219 1.875 0.941406 18.125 0.941406 L 18.792969 0.941406 L 18.792969 0.765625 C 18.792969 0.359375 18.988281 0.0664062 19.308594 0.0117188 C 19.515625 -0.0273438 19.800781 0.0976562 19.917969 0.285156 C 19.996094 0.410156 20 0.496094 20 1.535156 C 20 2.765625 19.988281 2.8125 19.738281 2.988281 C 19.566406 3.113281 19.253906 3.121094 19.09375 3 C 18.890625 2.847656 18.824219 2.71875 18.800781 2.425781 L 18.78125 2.152344 L 12.925781 2.152344 L 12.5625 3.140625 C 12.140625 4.265625 12.09375 4.378906 11.9375 4.527344 L 11.824219 4.628906 L 10.050781 4.640625 C 9.074219 4.640625 8.238281 4.636719 8.207031 4.621094 Z M 11.375 2.847656 C 11.496094 2.519531 11.605469 2.230469 11.613281 2.203125 C 11.628906 2.160156 11.292969 2.152344 10 2.152344 C 8.707031 2.152344 8.371094 2.160156 8.386719 2.203125 C 8.394531 2.230469 8.503906 2.519531 8.625 2.847656 L 8.84375 3.441406 L 11.15625 3.441406 Z M 11.375 2.847656 "/>
</svg>
