<?xml version="1.0" encoding="UTF-8"?>
<svg xmlns="http://www.w3.org/2000/svg" xmlns:xlink="http://www.w3.org/1999/xlink" width="12" height="12" viewBox="0 0 12 12">
<path fill-rule="nonzero" fill="rgb(0%, 0%, 0%)" fill-opacity="1" d="M 6 0 C 2.695312 0 0 2.695312 0 6 C 0 9.304688 2.695312 12 6 12 C 8.484375 12 10.625 10.476562 11.53125 8.3125 L 9.609375 8.3125 C 8.851562 9.5 7.523438 10.28125 6 10.28125 C 3.625 10.28125 1.710938 8.375 1.71875 6 C 1.71875 3.625 3.625 1.71875 6 1.71875 C 7.523438 1.71875 8.851562 2.5 9.609375 3.6875 L 11.53125 3.6875 C 10.625 1.523438 8.484375 0 6 0 Z M 6 0 "/>
<path fill-rule="nonzero" fill="rgb(0%, 0%, 0%)" fill-opacity="0.960784" d="M 8.382812 6 C 8.382812 7.3125 7.3125 8.382812 6 8.382812 C 4.6875 8.382812 3.617188 7.3125 3.617188 6 C 3.617188 4.6875 4.6875 3.617188 6 3.617188 C 7.3125 3.617188 8.382812 4.6875 8.382812 6 Z M 8.382812 6 "/>
<path fill-rule="nonzero" fill="rgb(0%, 0%, 0%)" fill-opacity="0.960784" d="M 5.929688 5.023438 L 12 5.023438 L 12 6.976562 L 5.929688 6.976562 Z M 5.929688 5.023438 "/>
</svg>
