<?xml version="1.0" encoding="UTF-8"?>
<svg xmlns="http://www.w3.org/2000/svg" xmlns:xlink="http://www.w3.org/1999/xlink" width="23.838339" height="24" viewBox="0 0 23.838339 24">
<path fill-rule="nonzero" fill="rgb(0%, 0%, 0%)" fill-opacity="1" d="M 0.265625 0 L 2.039062 0 L 2.304688 24 L 0 24 Z M 0.265625 0 "/>
<path fill="none" stroke-width="0.37746" stroke-linecap="round" stroke-linejoin="miter" stroke="rgb(0%, 0%, 0%)" stroke-opacity="1" stroke-miterlimit="4" d="M 0.289062 1.984375 L 2.683594 2.816406 L 10.417969 2.988281 " transform="matrix(2, 0, 0, 2, 0, 0)"/>
<path fill="none" stroke-width="0.37746" stroke-linecap="round" stroke-linejoin="miter" stroke="rgb(0%, 0%, 0%)" stroke-opacity="1" stroke-miterlimit="4" d="M 0.261719 9.402344 L 3.199219 8.09375 L 11.730469 2.0625 " transform="matrix(2, 0, 0, 2, 0, 0)"/>
<path fill="none" stroke-width="0.37746" stroke-linecap="round" stroke-linejoin="miter" stroke="rgb(0%, 0%, 0%)" stroke-opacity="1" stroke-miterlimit="4" d="M 4.707031 7.027344 L 9.507812 7.339844 L 10.976562 8.332031 " transform="matrix(2, 0, 0, 2, 0, 0)"/>
<path fill="none" stroke-width="0.37746" stroke-linecap="round" stroke-linejoin="miter" stroke="rgb(0%, 0%, 0%)" stroke-opacity="1" stroke-miterlimit="4" d="M 2.09375 7.792969 L 2.8125 9.023438 " transform="matrix(2, 0, 0, 2, 0, 0)"/>
<path fill="none" stroke-width="0.37746" stroke-linecap="round" stroke-linejoin="miter" stroke="rgb(0%, 0%, 0%)" stroke-opacity="1" stroke-miterlimit="4" d="M 2.578125 7.503906 L 3.292969 8.734375 " transform="matrix(2, 0, 0, 2, 0, 0)"/>
<path fill="none" stroke-width="0.37746" stroke-linecap="round" stroke-linejoin="miter" stroke="rgb(0%, 0%, 0%)" stroke-opacity="1" stroke-miterlimit="4" d="M 3.0625 7.203125 L 3.777344 8.433594 " transform="matrix(2, 0, 0, 2, 0, 0)"/>
<path fill="none" stroke-width="0.37746" stroke-linecap="round" stroke-linejoin="miter" stroke="rgb(0%, 0%, 0%)" stroke-opacity="1" stroke-miterlimit="4" d="M 2.730469 2.105469 L 2.640625 3.527344 " transform="matrix(2, 0, 0, 2, 0, 0)"/>
<path fill="none" stroke-width="0.37746" stroke-linecap="round" stroke-linejoin="miter" stroke="rgb(0%, 0%, 0%)" stroke-opacity="1" stroke-miterlimit="4" d="M 3.292969 2.136719 L 3.199219 3.558594 " transform="matrix(2, 0, 0, 2, 0, 0)"/>
<path fill="none" stroke-width="0.37746" stroke-linecap="round" stroke-linejoin="miter" stroke="rgb(0%, 0%, 0%)" stroke-opacity="1" stroke-miterlimit="4" d="M 3.863281 2.15625 L 3.769531 3.578125 " transform="matrix(2, 0, 0, 2, 0, 0)"/>
</svg>
