<?xml version="1.0" encoding="UTF-8"?>
<svg xmlns="http://www.w3.org/2000/svg" xmlns:xlink="http://www.w3.org/1999/xlink" width="18" height="18" viewBox="0 0 18 18">
<path fill-rule="evenodd" fill="rgb(1.568627%, 1.568627%, 1.568627%)" fill-opacity="1" d="M 8.15625 1.375 C 8.15625 1.429688 9.390625 7.855469 9.402344 7.867188 C 9.414062 7.878906 14.304688 4.03125 14.304688 4.007812 C 14.3125 3.988281 8.226562 1.335938 8.183594 1.335938 C 8.167969 1.335938 8.15625 1.355469 8.15625 1.375 M 3.40625 3.625 C 1.757812 4.789062 0.34375 5.792969 0.273438 5.863281 C 0.203125 5.933594 0.109375 6.058594 0.0703125 6.140625 C 0 6.289062 0 6.347656 0 10.046875 L 0 13.804688 L 0.0976562 13.992188 C 0.148438 14.09375 0.25 14.226562 0.320312 14.28125 C 0.484375 14.414062 6.21875 16.570312 6.242188 16.511719 C 6.25 16.484375 6.636719 14.882812 7.101562 12.941406 L 7.949219 9.414062 L 7.191406 5.472656 C 6.773438 3.308594 6.429688 1.53125 6.421875 1.523438 C 6.417969 1.519531 5.0625 2.464844 3.40625 3.625 M 12.5 7.621094 L 9.585938 9.929688 L 8.785156 13.273438 C 8.34375 15.109375 7.984375 16.625 7.988281 16.648438 C 7.996094 16.671875 9.9375 16.164062 12.722656 15.410156 C 16.402344 14.417969 17.484375 14.113281 17.609375 14.035156 C 17.839844 13.894531 17.976562 13.660156 17.992188 13.375 C 18.007812 13.15625 17.960938 13.007812 16.730469 9.230469 C 16.027344 7.074219 15.445312 5.3125 15.4375 5.3125 C 15.425781 5.3125 14.105469 6.351562 12.5 7.621094 "/>
</svg>
