<?xml version="1.0" encoding="UTF-8"?>
<svg xmlns="http://www.w3.org/2000/svg" xmlns:xlink="http://www.w3.org/1999/xlink" width="15" height="12.765196" viewBox="0 0 15 12.765196">
<path fill-rule="evenodd" fill="rgb(1.568627%, 1.568627%, 1.568627%)" fill-opacity="1" d="M 6.800781 0.03125 C 6.800781 0.078125 7.828125 5.433594 7.835938 5.445312 C 7.847656 5.453125 11.925781 2.246094 11.925781 2.226562 C 11.929688 2.210938 6.859375 0 6.820312 0 C 6.808594 0 6.800781 0.015625 6.800781 0.03125 M 2.839844 1.90625 C 1.464844 2.878906 0.285156 3.714844 0.226562 3.773438 C 0.167969 3.832031 0.0898438 3.9375 0.0585938 4.003906 C 0 4.128906 0 4.179688 0 7.261719 L 0 10.394531 L 0.0820312 10.550781 C 0.125 10.636719 0.207031 10.746094 0.265625 10.792969 C 0.402344 10.902344 5.183594 12.699219 5.203125 12.652344 C 5.210938 12.628906 5.53125 11.292969 5.917969 9.675781 L 6.625 6.734375 L 5.996094 3.449219 C 5.644531 1.644531 5.359375 0.164062 5.351562 0.15625 C 5.351562 0.152344 4.21875 0.941406 2.839844 1.90625 M 10.421875 5.238281 L 7.992188 7.164062 L 7.324219 9.949219 C 6.957031 11.480469 6.65625 12.746094 6.660156 12.765625 C 6.664062 12.785156 8.285156 12.359375 10.605469 11.730469 C 13.671875 10.90625 14.574219 10.652344 14.679688 10.585938 C 14.871094 10.46875 14.984375 10.273438 15 10.035156 C 15.011719 9.851562 14.972656 9.730469 13.945312 6.582031 C 13.359375 4.785156 12.875 3.316406 12.867188 3.316406 C 12.859375 3.316406 11.757812 4.179688 10.421875 5.238281 "/>
</svg>
