<?xml version="1.0" encoding="UTF-8"?>
<svg xmlns="http://www.w3.org/2000/svg" xmlns:xlink="http://www.w3.org/1999/xlink" width="18" height="18" viewBox="0 0 18 18">
<path fill-rule="evenodd" fill="rgb(1.568627%, 1.568627%, 1.568627%)" fill-opacity="1" d="M 2.882812 0.527344 L 2.882812 1.054688 L 3.726562 1.054688 L 3.726562 1.648438 C 3.726562 2.203125 3.722656 2.246094 3.660156 2.265625 C 3.554688 2.300781 3.273438 2.621094 3.1875 2.804688 C 3.128906 2.929688 3.113281 3.039062 3.113281 3.253906 C 3.113281 3.5 3.125 3.5625 3.226562 3.769531 C 3.351562 4.023438 3.542969 4.214844 3.769531 4.3125 C 3.921875 4.382812 3.898438 4.410156 3.648438 4.445312 C 3.003906 4.539062 2.226562 5 1.761719 5.5625 C 1.453125 5.9375 1.089844 6.675781 1.089844 6.929688 C 1.089844 6.992188 1.207031 6.996094 4.273438 6.996094 C 6.902344 6.996094 7.453125 6.988281 7.453125 6.949219 C 7.453125 6.773438 7.1875 6.152344 6.980469 5.835938 C 6.480469 5.085938 5.667969 4.570312 4.730469 4.414062 L 4.59375 4.390625 L 4.738281 4.324219 C 5.082031 4.167969 5.300781 3.90625 5.398438 3.519531 C 5.46875 3.246094 5.429688 2.96875 5.285156 2.703125 C 5.195312 2.539062 4.917969 2.25 4.847656 2.25 C 4.828125 2.25 4.816406 1.980469 4.816406 1.652344 L 4.816406 1.054688 L 5.660156 1.054688 L 5.660156 0 L 2.882812 0 L 2.882812 0.527344 M 14.0625 0.0546875 C 13.460938 0.214844 12.925781 0.648438 12.664062 1.195312 C 12.585938 1.359375 12.503906 1.582031 12.484375 1.6875 C 12.410156 2.050781 12.199219 3.898438 12.199219 4.15625 C 12.199219 4.699219 12.429688 5.234375 12.847656 5.640625 C 13.164062 5.953125 13.503906 6.136719 13.964844 6.238281 L 14.0625 6.257812 L 14.046875 15.273438 L 13.96875 15.503906 C 13.554688 16.710938 12.261719 17.265625 11.148438 16.714844 C 10.808594 16.546875 10.4375 16.179688 10.273438 15.855469 C 10.042969 15.394531 10.054688 15.722656 10.054688 10.390625 C 10.054688 7.527344 10.039062 5.40625 10.019531 5.214844 C 9.949219 4.558594 9.707031 4.039062 9.25 3.582031 C 8.945312 3.277344 8.613281 3.070312 8.210938 2.929688 C 7.941406 2.835938 7.886719 2.832031 7.183594 2.820312 L 6.441406 2.804688 L 6.445312 3.152344 C 6.449219 3.34375 6.4375 3.582031 6.421875 3.683594 L 6.394531 3.867188 L 6.878906 3.867188 C 7.148438 3.867188 7.472656 3.882812 7.609375 3.902344 C 8.191406 3.988281 8.6875 4.40625 8.890625 4.984375 C 8.941406 5.132812 8.949219 5.644531 8.964844 10.320312 L 8.984375 15.484375 L 9.0625 15.75 C 9.375 16.769531 10.089844 17.511719 11.109375 17.867188 C 11.4375 17.980469 11.453125 17.980469 12.039062 17.980469 C 12.601562 17.980469 12.65625 17.972656 12.9375 17.878906 C 13.789062 17.597656 14.421875 17.058594 14.800781 16.296875 C 15.125 15.636719 15.097656 16.128906 15.109375 10.890625 L 15.117188 6.257812 L 15.214844 6.238281 C 15.683594 6.132812 16.015625 5.953125 16.351562 5.625 C 16.769531 5.214844 16.980469 4.710938 16.980469 4.136719 C 16.980469 3.800781 16.753906 1.898438 16.675781 1.601562 C 16.492188 0.871094 15.835938 0.222656 15.113281 0.0546875 C 14.832031 -0.0117188 14.316406 -0.0117188 14.0625 0.0546875 M 14.0625 3.128906 L 14.0625 4.253906 L 15.117188 4.253906 L 15.117188 2.003906 L 14.0625 2.003906 L 14.0625 3.128906 M 1.019531 11.425781 L 1.019531 14.835938 L 7.523438 14.835938 L 7.523438 8.015625 L 1.019531 8.015625 L 1.019531 11.425781 M 1.019531 16.945312 L 1.019531 18 L 7.523438 18 L 7.523438 15.890625 L 1.019531 15.890625 L 1.019531 16.945312 "/>
</svg>
