<?xml version="1.0" encoding="UTF-8" standalone="no"?>
<svg
   width="18.331696"
   height="18.36084"
   viewBox="0 0 18.331696 18.36084"
   version="1.1"
   id="svg32"
   sodipodi:docname="crossing.svg"
   inkscape:version="1.2.2 (b0a8486541, 2022-12-01)"
   xmlns:inkscape="http://www.inkscape.org/namespaces/inkscape"
   xmlns:sodipodi="http://sodipodi.sourceforge.net/DTD/sodipodi-0.dtd"
   xmlns="http://www.w3.org/2000/svg"
   xmlns:svg="http://www.w3.org/2000/svg">
  <defs
     id="defs36" />
  <sodipodi:namedview
     id="namedview34"
     pagecolor="#ffffff"
     bordercolor="#666666"
     borderopacity="1.0"
     inkscape:showpageshadow="2"
     inkscape:pageopacity="0.0"
     inkscape:pagecheckerboard="0"
     inkscape:deskcolor="#d1d1d1"
     showgrid="false"
     inkscape:zoom="46.277778"
     inkscape:cx="9.2593037"
     inkscape:cy="9.1944778"
     inkscape:window-width="1920"
     inkscape:window-height="1008"
     inkscape:window-x="0"
     inkscape:window-y="0"
     inkscape:window-maximized="1"
     inkscape:current-layer="svg32" />
  <path
     fill="none"
     stroke-width="1.058313"
     stroke-linecap="round"
     stroke-linejoin="miter"
     stroke="#ffffff"
     stroke-opacity="1"
     stroke-miterlimit="4"
     d="M 3.8806946,2.1260289 2.1189765,3.8955591 7.4041308,9.1807134 2.1267886,14.458055 3.8885067,16.219773 9.1658489,10.94243 10.931473,12.704149 14.451002,16.235398 16.21272,14.465867 12.689284,10.94243 10.931473,9.1807134 16.21272,3.8955591 14.451002,2.1260289 12.689284,3.8955591 10.931473,5.6572772 9.1658489,7.4189953 5.6424127,3.8955591 Z m 0,0"
     id="path2"
     style="stroke-width:3;stroke-dasharray:none" />
  <path
     fill="none"
     stroke-width="0.562503"
     stroke-linecap="round"
     stroke-linejoin="miter"
     stroke="#000000"
     stroke-opacity="1"
     stroke-miterlimit="4"
     d="M 3.8806946,2.1260289 2.1189765,3.8955591 7.4041308,9.1807134 2.1267886,14.458055 3.8885067,16.219773 9.1658489,10.94243 10.931473,12.704149 14.451002,16.235398 16.21272,14.465867 12.689284,10.94243 10.931473,9.1807134 16.21272,3.8955591 14.451002,2.1260289 12.689284,3.8955591 10.931473,5.6572772 9.1658489,7.4189953 5.6424127,3.8955591 Z m 0,0"
     id="path4" />
  <path
     fill-rule="nonzero"
     fill="#000000"
     fill-opacity="1"
     d="m 2.1267901,14.458061 1.761718,-1.761719 1.765626,1.761719 -1.765626,1.761718 z m 0,0"
     id="path6" />
  <path
     fill-rule="nonzero"
     fill="#ffffff"
     fill-opacity="1"
     d="m 3.8806961,12.704155 1.761719,-1.761719 1.761719,1.761719 -1.761719,1.761718 z m 0,0"
     id="path8" />
  <path
     fill-rule="nonzero"
     fill="#000000"
     fill-opacity="1"
     d="m 5.6424151,10.942436 1.761719,-1.761719 1.765624,1.761719 -1.765624,1.761719 z m 0,0"
     id="path10" />
  <path
     fill-rule="nonzero"
     fill="#ffffff"
     fill-opacity="1"
     d="m 7.4041341,9.180717 1.765624,-1.761719 1.7617189,1.761719 -1.7617189,1.761719 z m 0,0"
     id="path12" />
  <path
     fill-rule="nonzero"
     fill="#000000"
     fill-opacity="1"
     d="m 9.1697581,7.418998 1.7617189,-1.761719 1.761719,1.761719 -1.761719,1.761719 z m 0,0"
     id="path14" />
  <path
     fill-rule="nonzero"
     fill="#ffffff"
     fill-opacity="1"
     d="m 10.931477,5.657279 1.761719,-1.761718 1.757812,1.761718 -1.757812,1.761719 z m 0,0"
     id="path16" />
  <path
     fill-rule="nonzero"
     fill="#000000"
     fill-opacity="1"
     d="m 12.693196,3.895561 1.757812,-1.761719 1.761719,1.761719 -1.761719,1.761718 z m 0,0"
     id="path18" />
  <path
     fill-rule="nonzero"
     fill="#000000"
     fill-opacity="1"
     d="m 3.8806961,2.133842 1.761719,1.761719 -1.761719,1.761718 -1.761719,-1.761718 z m 0,0"
     id="path20" />
  <path
     fill-rule="nonzero"
     fill="#ffffff"
     fill-opacity="1"
     d="m 5.6424151,3.895561 1.761719,1.761718 -1.761719,1.761719 -1.761719,-1.761719 z m 0,0"
     id="path22" />
  <path
     fill-rule="nonzero"
     fill="#000000"
     fill-opacity="1"
     d="m 7.4041341,5.657279 1.765624,1.761719 -1.765624,1.761719 -1.761719,-1.761719 z m 0,0"
     id="path24" />
  <path
     fill-rule="nonzero"
     fill="#000000"
     fill-opacity="1"
     d="m 10.931477,9.180717 1.757813,1.761719 -1.757813,1.761719 -1.7617189,-1.761719 z m 0,0"
     id="path26" />
  <path
     fill-rule="nonzero"
     fill="#ffffff"
     fill-opacity="1"
     d="m 12.693196,10.942436 1.757812,1.761719 -1.757812,1.761718 -1.761719,-1.761718 z m 0,0"
     id="path28" />
  <path
     fill-rule="nonzero"
     fill="#000000"
     fill-opacity="1"
     d="m 14.451008,12.704155 1.761719,1.761718 -1.761719,1.761719 -1.761718,-1.761719 z m 0,0"
     id="path30" />
</svg>
