<?xml version="1.0" encoding="UTF-8"?>
<svg xmlns="http://www.w3.org/2000/svg" xmlns:xlink="http://www.w3.org/1999/xlink" width="20" height="20" viewBox="0 0 20 20">
<path fill-rule="evenodd" fill="rgb(1.568627%, 1.568627%, 1.568627%)" fill-opacity="1" d="M 13.65625 0.0859375 C 13.613281 0.28125 13.160156 3.835938 13.175781 3.851562 C 13.191406 3.871094 14.855469 0.414062 14.851562 0.363281 C 14.851562 0.347656 14.632812 0.265625 14.367188 0.1875 C 13.667969 -0.0234375 13.679688 -0.0234375 13.65625 0.0859375 M 9.558594 2.671875 C 9.507812 2.757812 9.320312 3.101562 9.140625 3.429688 L 8.820312 4.023438 L 8.457031 4.023438 C 8.007812 4.023438 7.609375 4.074219 7.054688 4.207031 L 6.632812 4.304688 L 6.035156 3.710938 L 5.4375 3.113281 L 5.222656 3.199219 C 4.890625 3.335938 4.199219 3.730469 3.796875 4.015625 C 3.601562 4.15625 3.4375 4.277344 3.4375 4.285156 C 3.4375 4.296875 3.542969 4.664062 3.671875 5.105469 L 3.90625 5.90625 L 3.648438 6.183594 C 3.3125 6.546875 2.964844 7.011719 2.742188 7.394531 L 2.5625 7.703125 L 1.734375 7.671875 L 0.90625 7.644531 L 0.847656 7.757812 C 0.675781 8.097656 0.3125 9.507812 0.3125 9.828125 C 0.3125 9.933594 0.359375 9.964844 1.046875 10.339844 L 1.777344 10.734375 L 1.796875 10.945312 L 1.816406 11.160156 L 2.796875 10.882812 L 3.773438 10.609375 L 3.824219 10.238281 C 4 8.933594 4.765625 7.660156 5.820312 6.917969 C 6.683594 6.308594 7.613281 6.015625 8.671875 6.015625 C 9.453125 6.015625 10.0625 6.148438 10.773438 6.46875 L 11.054688 6.597656 L 11.664062 5.8125 C 12.125 5.214844 12.261719 5.019531 12.21875 4.992188 C 12.191406 4.972656 12.097656 4.921875 12.015625 4.878906 L 11.863281 4.796875 L 11.910156 3.117188 L 11.695312 3.023438 C 11.390625 2.886719 10.625 2.675781 10.175781 2.601562 C 9.960938 2.5625 9.753906 2.527344 9.71875 2.519531 C 9.671875 2.511719 9.621094 2.5625 9.558594 2.671875 M 14.039062 4.484375 C 13.441406 5.335938 12.605469 6.535156 12.179688 7.144531 C 11.753906 7.753906 11.410156 8.261719 11.421875 8.269531 C 11.441406 8.289062 16.570312 4.722656 16.699219 4.601562 C 16.773438 4.53125 16.765625 4.519531 15.976562 3.730469 C 15.535156 3.289062 15.164062 2.929688 15.148438 2.929688 C 15.132812 2.929688 14.632812 3.628906 14.039062 4.484375 M 17.542969 5.675781 C 16.589844 6.132812 15.84375 6.507812 15.882812 6.515625 C 15.984375 6.527344 19.640625 6.039062 19.671875 6.007812 C 19.707031 5.96875 19.367188 4.84375 19.320312 4.84375 C 19.296875 4.847656 18.496094 5.21875 17.542969 5.675781 M 13.898438 7.992188 C 13.613281 8.265625 13.292969 8.566406 13.191406 8.667969 L 13.003906 8.851562 L 13.183594 9.121094 C 14.132812 10.558594 14.253906 12.472656 13.484375 14.003906 C 13.253906 14.46875 12.972656 14.847656 12.542969 15.277344 C 11.550781 16.273438 10.300781 16.765625 8.90625 16.707031 C 7.621094 16.648438 6.5625 16.183594 5.660156 15.277344 C 5.070312 14.6875 4.699219 14.101562 4.453125 13.359375 C 4.355469 13.074219 4.21875 12.402344 4.21875 12.226562 C 4.21875 12.125 4.203125 12.109375 4.109375 12.109375 C 3.929688 12.109375 2.285156 12.3125 2.257812 12.339844 C 2.246094 12.351562 2.246094 12.46875 2.257812 12.597656 L 2.285156 12.832031 L 1.59375 13.332031 L 0.90625 13.832031 L 0.984375 14.113281 C 1.109375 14.5625 1.320312 15.101562 1.546875 15.554688 C 1.722656 15.902344 1.773438 15.976562 1.847656 15.976562 C 1.894531 15.976562 2.257812 15.933594 2.652344 15.878906 C 3.046875 15.824219 3.390625 15.78125 3.421875 15.78125 C 3.449219 15.78125 3.523438 15.855469 3.585938 15.945312 C 3.828125 16.292969 4.382812 16.867188 4.855469 17.246094 L 5 17.363281 L 4.863281 18.199219 C 4.753906 18.863281 4.734375 19.042969 4.773438 19.070312 C 4.96875 19.203125 6 19.671875 6.382812 19.804688 C 6.636719 19.890625 6.847656 19.960938 6.855469 19.960938 C 6.859375 19.960938 7.097656 19.65625 7.382812 19.285156 L 7.898438 18.609375 L 8.296875 18.664062 C 8.683594 18.714844 9.832031 18.707031 10.023438 18.652344 C 10.09375 18.628906 10.171875 18.722656 10.585938 19.296875 C 10.851562 19.667969 11.09375 19.976562 11.125 19.992188 C 11.21875 20.027344 12.25 19.664062 12.785156 19.40625 C 13.257812 19.179688 13.28125 19.160156 13.265625 19.066406 C 13.253906 19.011719 13.207031 18.683594 13.164062 18.339844 C 13.121094 17.996094 13.078125 17.660156 13.066406 17.59375 C 13.046875 17.480469 13.066406 17.457031 13.269531 17.300781 C 13.726562 16.960938 14.292969 16.398438 14.582031 16.003906 C 14.632812 15.933594 14.660156 15.933594 15.414062 16.054688 C 15.839844 16.121094 16.21875 16.183594 16.253906 16.195312 C 16.414062 16.238281 17.34375 14.121094 17.203125 14.03125 C 17.179688 14.015625 16.875 13.785156 16.523438 13.515625 L 15.890625 13.027344 L 15.921875 12.851562 C 15.941406 12.753906 15.957031 12.25 15.957031 11.730469 L 15.957031 10.785156 L 16.621094 10.308594 C 16.988281 10.046875 17.289062 9.828125 17.292969 9.828125 C 17.3125 9.8125 17.054688 8.996094 16.9375 8.703125 C 16.777344 8.308594 16.457031 7.65625 16.417969 7.65625 C 16.375 7.65625 14.910156 7.851562 14.824219 7.867188 C 14.765625 7.878906 14.710938 7.835938 14.609375 7.691406 C 14.535156 7.585938 14.460938 7.5 14.445312 7.5 C 14.433594 7.5 14.1875 7.722656 13.898438 7.992188 M 8.371094 7.929688 C 8.15625 8.015625 8.15625 7.972656 8.296875 10.113281 L 8.425781 12.082031 L 8.53125 12.175781 C 8.628906 12.257812 8.671875 12.265625 9.101562 12.265625 C 9.53125 12.265625 9.574219 12.257812 9.671875 12.171875 L 9.78125 12.082031 L 9.910156 10.113281 C 10.046875 7.957031 10.050781 8.015625 9.820312 7.929688 C 9.695312 7.882812 8.488281 7.882812 8.371094 7.929688 M 8.90625 13.523438 C 8.347656 13.683594 8.171875 14.382812 8.589844 14.789062 C 8.832031 15.023438 9.242188 15.058594 9.53125 14.871094 C 9.863281 14.648438 9.949219 14.109375 9.699219 13.800781 C 9.492188 13.542969 9.195312 13.4375 8.90625 13.523438 "/>
</svg>
