<?xml version="1.0" encoding="UTF-8"?>
<svg xmlns="http://www.w3.org/2000/svg" xmlns:xlink="http://www.w3.org/1999/xlink" width="12" height="18.796039" viewBox="0 0 12 18.796039">
<path fill-rule="evenodd" fill="rgb(1.568627%, 1.568627%, 1.568627%)" fill-opacity="1" d="M 4.867188 6.476562 C 3.785156 6.546875 3.140625 6.652344 2.546875 6.855469 C 1.597656 7.1875 1.066406 7.691406 0.859375 8.464844 L 0.804688 8.664062 L 0.800781 12.019531 C 0.792969 15.679688 0.789062 15.589844 0.929688 15.980469 C 1.078125 16.410156 1.414062 16.851562 1.789062 17.097656 C 2.085938 17.3125 2.515625 17.464844 2.855469 17.484375 L 3.0625 17.503906 L 2.09375 18.472656 L 2.09375 18.796875 L 3.550781 18.796875 L 4.859375 17.496094 L 7.289062 17.496094 L 7.941406 18.144531 L 8.59375 18.796875 L 9.902344 18.796875 L 9.902344 18.472656 L 9.421875 17.984375 L 8.933594 17.503906 L 9.148438 17.484375 C 9.484375 17.464844 9.914062 17.3125 10.21875 17.097656 C 10.582031 16.851562 10.925781 16.410156 11.070312 15.984375 C 11.210938 15.59375 11.207031 15.671875 11.207031 12.128906 C 11.207031 10.027344 11.199219 8.804688 11.179688 8.679688 C 11.101562 8.066406 10.78125 7.546875 10.292969 7.21875 C 9.648438 6.792969 8.773438 6.570312 7.351562 6.484375 C 7 6.460938 5.164062 6.453125 4.867188 6.476562 M 2.117188 10.351562 L 2.117188 11.640625 L 5.347656 11.640625 L 5.347656 9.0625 L 2.117188 9.0625 L 2.117188 10.351562 M 6.652344 10.351562 L 6.652344 11.640625 L 9.878906 11.640625 L 9.878906 9.0625 L 6.652344 9.0625 L 6.652344 10.351562 M 2.804688 14.300781 C 2.640625 14.351562 2.523438 14.425781 2.402344 14.546875 C 2.214844 14.738281 2.117188 14.957031 2.117188 15.230469 C 2.117188 15.828125 2.683594 16.289062 3.269531 16.160156 C 4.015625 16.003906 4.292969 15.089844 3.765625 14.550781 C 3.578125 14.367188 3.363281 14.28125 3.105469 14.273438 C 2.988281 14.269531 2.867188 14.277344 2.804688 14.300781 M 8.660156 14.300781 C 8.179688 14.449219 7.902344 14.894531 7.976562 15.375 C 8.09375 16.097656 8.945312 16.429688 9.523438 15.976562 C 9.882812 15.683594 9.984375 15.183594 9.765625 14.757812 C 9.703125 14.632812 9.507812 14.441406 9.386719 14.378906 C 9.164062 14.265625 8.871094 14.234375 8.660156 14.300781 "/>
<path fill-rule="nonzero" fill="rgb(1.568627%, 1.568627%, 1.568627%)" fill-opacity="1" d="M 12 4.792969 L 11.101562 5.484375 L 6 1.382812 L 0.898438 5.484375 L 0 4.792969 L 6 0 Z M 12 4.792969 "/>
</svg>
