<?xml version="1.0" encoding="UTF-8"?>
<svg xmlns="http://www.w3.org/2000/svg" xmlns:xlink="http://www.w3.org/1999/xlink" width="18" height="18" viewBox="0 0 18 18">
<path fill-rule="nonzero" fill="rgb(0%, 0%, 0%)" fill-opacity="1" d="M 6.394531 13.199219 C 7.207031 13.210938 7.988281 13.492188 8.617188 14.003906 L 8.929688 14.28125 L 8.988281 14.28125 L 9.359375 13.945312 C 10.539062 12.96875 12.214844 12.882812 13.488281 13.726562 L 16.199219 8.398438 L 14.398438 7.199219 L 14.398438 2.941406 C 14.34375 1.980469 13.5625 1.222656 12.601562 1.199219 L 12 1.199219 C 12.042969 0.578125 11.570312 0.0429688 10.949219 0 C 10.898438 -0.00390625 10.847656 -0.00390625 10.800781 0 L 7.199219 0 C 6.578125 -0.0429688 6.042969 0.429688 6 1.050781 C 5.996094 1.101562 5.996094 1.152344 6 1.199219 L 5.398438 1.199219 C 4.4375 1.222656 3.65625 1.980469 3.601562 2.941406 L 3.601562 7.199219 L 1.800781 8.398438 L 4.5 13.835938 C 5.058594 13.445312 5.714844 13.222656 6.394531 13.199219 Z M 4.800781 2.941406 C 4.8125 2.628906 5.074219 2.386719 5.386719 2.398438 C 5.390625 2.398438 5.394531 2.398438 5.398438 2.398438 L 12.601562 2.398438 C 12.910156 2.378906 13.179688 2.613281 13.199219 2.925781 C 13.203125 2.949219 13.203125 2.976562 13.199219 3 L 13.199219 6.601562 L 9 4.199219 L 4.800781 6.539062 C 4.800781 6.539062 4.800781 2.941406 4.800781 2.941406 Z M 16.800781 15.601562 L 16.800781 16.800781 C 16.484375 16.824219 16.191406 16.96875 15.984375 17.207031 C 15.65625 17.554688 15.242188 17.804688 14.785156 17.929688 C 14.046875 18.144531 13.25 17.980469 12.660156 17.484375 L 12.191406 17.0625 C 11.828125 16.699219 11.238281 16.699219 10.871094 17.0625 C 10.703125 17.207031 10.546875 17.363281 10.367188 17.507812 C 9.488281 18.210938 8.230469 18.175781 7.390625 17.425781 L 6.925781 17.003906 C 6.582031 16.703125 6.066406 16.703125 5.722656 17.003906 C 5.496094 17.183594 5.292969 17.386719 5.0625 17.566406 C 4.21875 18.195312 3.054688 18.164062 2.242188 17.496094 L 1.871094 17.171875 C 1.699219 16.972656 1.460938 16.839844 1.199219 16.800781 L 1.199219 15.601562 C 1.511719 15.5625 1.824219 15.621094 2.101562 15.769531 C 2.433594 15.976562 2.75 16.207031 3.046875 16.464844 C 3.292969 16.730469 3.664062 16.847656 4.019531 16.765625 C 4.15625 16.722656 4.28125 16.660156 4.390625 16.570312 C 4.585938 16.429688 4.738281 16.261719 4.933594 16.105469 C 5.785156 15.398438 7.019531 15.398438 7.871094 16.105469 C 8.0625 16.261719 8.242188 16.441406 8.4375 16.597656 C 8.78125 16.894531 9.292969 16.894531 9.636719 16.597656 C 9.828125 16.441406 10.007812 16.261719 10.199219 16.105469 C 11.054688 15.390625 12.296875 15.390625 13.152344 16.105469 C 13.332031 16.261719 13.5 16.429688 13.679688 16.570312 C 14.023438 16.871094 14.535156 16.871094 14.878906 16.570312 L 15.445312 16.078125 C 15.828125 15.769531 16.304688 15.597656 16.800781 15.601562 Z M 16.800781 15.601562 "/>
</svg>
