<?xml version="1.0" encoding="UTF-8"?>
<svg xmlns="http://www.w3.org/2000/svg" xmlns:xlink="http://www.w3.org/1999/xlink" width="15" height="16.070901" viewBox="0 0 15 16.070901">
<path fill-rule="evenodd" fill="rgb(1.568627%, 1.568627%, 1.568627%)" fill-opacity="1" d="M 0.753906 0.03125 C 0.472656 0.117188 0.21875 0.328125 0.0820312 0.601562 L 0 0.753906 L 0 15.332031 L 0.0820312 15.484375 C 0.1875 15.6875 0.371094 15.875 0.570312 15.980469 L 0.734375 16.070312 L 9.953125 16.070312 L 10.121094 15.980469 C 10.324219 15.875 10.507812 15.6875 10.613281 15.484375 L 10.695312 15.332031 L 10.699219 10.882812 L 10.710938 6.433594 L 11.78125 6.433594 L 11.78125 10.527344 C 11.78125 15.054688 11.765625 14.761719 11.996094 14.921875 C 12.101562 14.996094 12.109375 15 13.390625 15 C 14.671875 15 14.679688 14.996094 14.789062 14.921875 C 15.019531 14.757812 15 15.265625 15 8.582031 C 15 2.691406 14.996094 2.542969 14.933594 2.421875 C 14.902344 2.351562 14.359375 1.789062 13.738281 1.164062 C 12.742188 0.179688 12.585938 0.03125 12.476562 0.015625 C 12.078125 -0.0585938 11.78125 0.160156 11.78125 0.53125 C 11.78125 0.734375 11.828125 0.824219 12.066406 1.070312 L 12.28125 1.292969 L 12.171875 1.449219 C 11.714844 2.089844 11.652344 3.019531 12.023438 3.683594 C 12.234375 4.070312 12.601562 4.425781 12.957031 4.605469 C 13.175781 4.71875 13.570312 4.828125 13.765625 4.828125 L 13.925781 4.828125 L 13.925781 13.941406 L 12.855469 13.941406 L 12.855469 9.832031 C 12.855469 5.746094 12.855469 5.71875 12.785156 5.609375 C 12.746094 5.546875 12.667969 5.46875 12.605469 5.429688 C 12.503906 5.363281 12.445312 5.359375 11.601562 5.359375 L 10.710938 5.359375 L 10.699219 3.058594 L 10.695312 0.753906 L 10.601562 0.585938 C 10.496094 0.382812 10.3125 0.203125 10.109375 0.09375 L 9.953125 0.015625 L 5.398438 0.0117188 C 2.890625 0.0078125 0.800781 0.015625 0.753906 0.03125 M 3.003906 2.179688 C 2.773438 2.226562 2.578125 2.335938 2.417969 2.515625 C 2.148438 2.8125 2.144531 2.851562 2.144531 4.289062 C 2.144531 5.722656 2.152344 5.769531 2.414062 6.058594 C 2.578125 6.242188 2.78125 6.355469 3.042969 6.402344 C 3.164062 6.421875 4.035156 6.433594 5.472656 6.425781 C 8 6.414062 7.882812 6.425781 8.1875 6.148438 C 8.375 5.984375 8.484375 5.777344 8.53125 5.511719 C 8.554688 5.394531 8.566406 4.890625 8.554688 4.160156 C 8.539062 2.800781 8.539062 2.78125 8.234375 2.476562 C 7.898438 2.144531 8.054688 2.164062 5.429688 2.15625 C 4.175781 2.152344 3.082031 2.164062 3.003906 2.179688 "/>
</svg>
