<?xml version="1.0" encoding="UTF-8"?>
<svg xmlns="http://www.w3.org/2000/svg" xmlns:xlink="http://www.w3.org/1999/xlink" width="20" height="20" viewBox="0 0 20 20">
<path fill-rule="nonzero" fill="rgb(0%, 0%, 0%)" fill-opacity="1" d="M 5 16 C 4.304688 16 3.714844 15.757812 3.230469 15.269531 C 2.742188 14.785156 2.5 14.195312 2.5 13.5 L 1 13.5 L 1 5 C 1 4.585938 1.148438 4.234375 1.441406 3.941406 C 1.734375 3.648438 2.085938 3.5 2.5 3.5 L 14 3.5 L 14 6.5 L 16.5 6.5 L 19 10 L 19 13.5 L 17.5 13.5 C 17.5 14.195312 17.257812 14.785156 16.769531 15.269531 C 16.285156 15.757812 15.695312 16 15 16 C 14.304688 16 13.714844 15.757812 13.230469 15.269531 C 12.742188 14.785156 12.5 14.195312 12.5 13.5 L 7.5 13.5 C 7.5 14.195312 7.257812 14.785156 6.769531 15.269531 C 6.285156 15.757812 5.695312 16 5 16 Z M 5 14.5 C 5.285156 14.5 5.519531 14.402344 5.710938 14.210938 C 5.902344 14.019531 6 13.785156 6 13.5 C 6 13.214844 5.902344 12.980469 5.710938 12.789062 C 5.519531 12.597656 5.285156 12.5 5 12.5 C 4.714844 12.5 4.480469 12.597656 4.289062 12.789062 C 4.097656 12.980469 4 13.214844 4 13.5 C 4 13.785156 4.097656 14.019531 4.289062 14.210938 C 4.480469 14.402344 4.714844 14.5 5 14.5 Z M 2.5 12 L 3 12 C 3.234375 11.679688 3.527344 11.433594 3.875 11.261719 C 4.222656 11.085938 4.597656 11 5 11 C 5.402344 11 5.777344 11.085938 6.125 11.261719 C 6.472656 11.433594 6.761719 11.679688 6.988281 12 L 12.5 12 L 12.5 5 L 2.5 5 Z M 15 14.5 C 15.285156 14.5 15.519531 14.402344 15.710938 14.210938 C 15.902344 14.019531 16 13.785156 16 13.5 C 16 13.214844 15.902344 12.980469 15.710938 12.789062 C 15.519531 12.597656 15.285156 12.5 15 12.5 C 14.714844 12.5 14.480469 12.597656 14.289062 12.789062 C 14.097656 12.980469 14 13.214844 14 13.5 C 14 13.785156 14.097656 14.019531 14.289062 14.210938 C 14.480469 14.402344 14.714844 14.5 15 14.5 Z M 14 10.5 L 17.5 10.480469 L 15.730469 8 L 14 8 Z M 7.542969 8.5625 Z M 7.542969 8.5625 "/>
</svg>
