<?xml version="1.0" encoding="UTF-8"?>
<svg xmlns="http://www.w3.org/2000/svg" xmlns:xlink="http://www.w3.org/1999/xlink" width="18" height="6.384988" viewBox="0 0 18 6.384988">
<path fill-rule="evenodd" fill="rgb(1.568627%, 1.568627%, 1.568627%)" fill-opacity="1" d="M 7.921875 0.0585938 C 5.28125 0.363281 3.210938 1.785156 2.691406 3.648438 L 2.585938 4.027344 L 1.417969 4.027344 C -0.0976562 4.027344 0 3.945312 0 5.207031 C 0 6.054688 0.0117188 6.148438 0.125 6.261719 C 0.25 6.382812 0.332031 6.386719 8.996094 6.386719 L 17.742188 6.386719 L 17.871094 6.222656 C 17.988281 6.074219 18 5.972656 18 5.207031 C 18 4.4375 17.988281 4.335938 17.871094 4.191406 L 17.742188 4.027344 L 15.394531 4.027344 L 15.359375 3.855469 C 15.074219 2.566406 14.101562 1.484375 12.589844 0.773438 C 11.242188 0.136719 9.519531 -0.128906 7.921875 0.0585938 "/>
</svg>
