<?xml version="1.0" encoding="UTF-8"?>
<svg xmlns="http://www.w3.org/2000/svg" xmlns:xlink="http://www.w3.org/1999/xlink" width="16" height="16" viewBox="0 0 16 16">
<path fill-rule="nonzero" fill="rgb(0%, 0%, 0%)" fill-opacity="1" d="M 1.332031 1.332031 L 2.207031 6.875 L 3.769531 5.3125 L 5.207031 6.730469 C 5.609375 7.128906 5.925781 7.535156 6.125 8 C 6.390625 7.199219 6.742188 6.394531 7.207031 5.730469 C 7.074219 5.53125 6.863281 5.339844 6.730469 5.207031 L 5.3125 3.769531 L 6.875 2.207031 Z M 14.667969 1.332031 L 9.125 2.207031 L 10.5 3.582031 L 9.4375 4.667969 L 9.125 5 C 7.558594 6.570312 6.667969 8.660156 6.667969 10.875 L 6.667969 14.667969 L 9.332031 14.667969 L 9.332031 10.875 C 9.332031 9.355469 9.902344 7.972656 11 6.875 L 12.394531 5.480469 L 13.792969 6.875 Z M 14.667969 1.332031 "/>
</svg>
