<?xml version="1.0" encoding="UTF-8" standalone="no"?>
<svg
   width="18.331696"
   height="18.36084"
   viewBox="0 0 18.331696 18.36084"
   version="1.1"
   id="svg30"
   sodipodi:docname="level-crossing.svg"
   inkscape:version="1.2.2 (b0a8486541, 2022-12-01)"
   xmlns:inkscape="http://www.inkscape.org/namespaces/inkscape"
   xmlns:sodipodi="http://sodipodi.sourceforge.net/DTD/sodipodi-0.dtd"
   xmlns="http://www.w3.org/2000/svg"
   xmlns:svg="http://www.w3.org/2000/svg">
  <defs
     id="defs34" />
  <sodipodi:namedview
     id="namedview32"
     pagecolor="#ffffff"
     bordercolor="#666666"
     borderopacity="1.0"
     inkscape:showpageshadow="2"
     inkscape:pageopacity="0.0"
     inkscape:pagecheckerboard="0"
     inkscape:deskcolor="#d1d1d1"
     showgrid="false"
     inkscape:zoom="46.277778"
     inkscape:cx="9.7130852"
     inkscape:cy="9.6482593"
     inkscape:window-width="1920"
     inkscape:window-height="1008"
     inkscape:window-x="0"
     inkscape:window-y="0"
     inkscape:window-maximized="1"
     inkscape:current-layer="svg30" />
  <path
     fill="none"
     stroke-width="0.52916"
     stroke-linecap="round"
     stroke-linejoin="miter"
     stroke="rgb(0%, 0%, 0%)"
     stroke-opacity="1"
     stroke-miterlimit="4"
     d="m 3.8806946,2.126029 -1.7617181,1.7695302 5.2851542,5.2851542 -5.2773422,5.2773416 1.7617181,1.761718 5.2773422,-5.277342 1.7656232,1.761718 3.51953,3.531249 L 16.21272,14.465867 12.689284,10.942431 10.931472,9.1807134 16.21272,3.8955592 14.451002,2.126029 12.689284,3.8955592 10.931472,5.6572773 9.1658488,7.4189953 5.6424127,3.8955592 Z m 0,0"
     id="path2-6"
     style="font-variation-settings:normal;fill:none;fill-opacity:1;stroke:#ffffff;stroke-width:3;stroke-linecap:round;stroke-linejoin:miter;stroke-miterlimit:4;stroke-dasharray:none;stroke-dashoffset:0;stroke-opacity:1;stop-color:#000000" />
  <path
     fill="none"
     stroke-width="0.52916"
     stroke-linecap="round"
     stroke-linejoin="miter"
     stroke="rgb(0%, 0%, 0%)"
     stroke-opacity="1"
     stroke-miterlimit="4"
     d="m 3.8806946,2.126029 -1.7617181,1.7695302 5.2851542,5.2851542 -5.2773422,5.2773416 1.7617181,1.761718 5.2773422,-5.277342 1.7656232,1.761718 3.51953,3.531249 L 16.21272,14.465867 12.689284,10.942431 10.931472,9.1807134 16.21272,3.8955592 14.451002,2.126029 12.689284,3.8955592 10.931472,5.6572773 9.1658488,7.4189953 5.6424127,3.8955592 Z m 0,0"
     id="path2"
     style="font-variation-settings:normal;opacity:1;vector-effect:none;fill:none;fill-opacity:1;stroke:#000000;stroke-width:0.562503;stroke-linecap:round;stroke-linejoin:miter;stroke-miterlimit:4;stroke-dasharray:none;stroke-dashoffset:0;stroke-opacity:1;-inkscape-stroke:none;stop-color:#000000;stop-opacity:1" />
  <path
     fill-rule="nonzero"
     fill="#cb1414"
     fill-opacity="1"
     d="m 2.1267843,14.458059 1.761718,-1.761719 1.765626,1.761719 -1.765626,1.761718 z m 0,0"
     id="path4" />
  <path
     fill-rule="nonzero"
     fill="#ffffff"
     fill-opacity="1"
     d="m 3.8806903,12.704153 1.761719,-1.761719 1.761719,1.761719 -1.761719,1.761718 z m 0,0"
     id="path6" />
  <path
     fill-rule="nonzero"
     fill="#cb1414"
     fill-opacity="1"
     d="m 5.6424093,10.942434 1.761719,-1.7617192 1.765624,1.7617192 -1.765624,1.761719 z m 0,0"
     id="path8" />
  <path
     fill-rule="nonzero"
     fill="#ffffff"
     fill-opacity="1"
     d="m 7.4041283,9.1807148 1.765624,-1.761719 1.7617187,1.761719 -1.7617187,1.7617192 z m 0,0"
     id="path10" />
  <path
     fill-rule="nonzero"
     fill="#cb1414"
     fill-opacity="1"
     d="m 9.1697523,7.4189958 1.7617187,-1.761719 1.761719,1.761719 -1.761719,1.761719 z m 0,0"
     id="path12" />
  <path
     fill-rule="nonzero"
     fill="#ffffff"
     fill-opacity="1"
     d="m 10.931471,5.6572768 1.761719,-1.761718 1.757812,1.761718 -1.757812,1.761719 z m 0,0"
     id="path14" />
  <path
     fill-rule="nonzero"
     fill="#cb1414"
     fill-opacity="1"
     d="m 12.69319,3.8955588 1.757812,-1.761719 1.761719,1.761719 -1.761719,1.761718 z m 0,0"
     id="path16" />
  <path
     fill-rule="nonzero"
     fill="#cb1414"
     fill-opacity="1"
     d="m 3.8806903,2.1338398 1.761719,1.761719 -1.761719,1.761718 -1.761719,-1.761718 z m 0,0"
     id="path18" />
  <path
     fill-rule="nonzero"
     fill="#ffffff"
     fill-opacity="1"
     d="m 5.6424093,3.8955588 1.761719,1.761718 -1.761719,1.761719 -1.761719,-1.761719 z m 0,0"
     id="path20" />
  <path
     fill-rule="nonzero"
     fill="#cb1414"
     fill-opacity="1"
     d="m 7.4041283,5.6572768 1.765624,1.761719 -1.765624,1.761719 -1.761719,-1.761719 z m 0,0"
     id="path22" />
  <path
     fill-rule="nonzero"
     fill="#cb1414"
     fill-opacity="1"
     d="m 10.931471,9.1807148 1.757813,1.7617192 -1.757813,1.761719 -1.7617187,-1.761719 z m 0,0"
     id="path24" />
  <path
     fill-rule="nonzero"
     fill="#ffffff"
     fill-opacity="1"
     d="m 12.69319,10.942434 1.757812,1.761719 -1.757812,1.761718 -1.761719,-1.761718 z m 0,0"
     id="path26" />
  <path
     fill-rule="nonzero"
     fill="#cb1414"
     fill-opacity="1"
     d="m 14.451002,12.704153 1.761719,1.761718 -1.761719,1.761719 -1.761718,-1.761719 z m 0,0"
     id="path28" />
</svg>
