<?xml version="1.0" encoding="UTF-8" standalone="no"?>
<svg
   width="18.429346"
   height="18.36084"
   viewBox="0 0 18.429346 18.36084"
   version="1.1"
   id="svg2136"
   sodipodi:docname="level-crossing-barrier.svg"
   inkscape:version="1.2.2 (b0a8486541, 2022-12-01)"
   xmlns:inkscape="http://www.inkscape.org/namespaces/inkscape"
   xmlns:sodipodi="http://sodipodi.sourceforge.net/DTD/sodipodi-0.dtd"
   xmlns="http://www.w3.org/2000/svg"
   xmlns:svg="http://www.w3.org/2000/svg">
  <defs
     id="defs2140" />
  <sodipodi:namedview
     id="namedview2138"
     pagecolor="#ffffff"
     bordercolor="#666666"
     borderopacity="1.0"
     inkscape:showpageshadow="2"
     inkscape:pageopacity="0.0"
     inkscape:pagecheckerboard="0"
     inkscape:deskcolor="#d1d1d1"
     showgrid="false"
     inkscape:zoom="47.722222"
     inkscape:cx="9.104773"
     inkscape:cy="9.0209546"
     inkscape:window-width="1920"
     inkscape:window-height="1008"
     inkscape:window-x="0"
     inkscape:window-y="0"
     inkscape:window-maximized="1"
     inkscape:current-layer="svg2136" />
  <path
     fill="none"
     stroke-width="0.52916"
     stroke-linecap="round"
     stroke-linejoin="miter"
     stroke="rgb(0%, 0%, 0%)"
     stroke-opacity="1"
     stroke-miterlimit="4"
     d="m 3.978344,2.126029 -1.7617181,1.7695302 5.2851542,5.2851542 -5.2773422,5.2773416 1.7617181,1.761718 5.2773422,-5.277342 1.7656228,1.761718 3.51953,3.531249 1.761718,-1.769531 L 12.786933,10.942431 11.029121,9.1807134 16.310369,3.8955592 14.548651,2.126029 12.786933,3.8955592 11.029121,5.6572773 9.2634982,7.4189953 5.7400621,3.8955592 Z m 0,0"
     id="path2-6"
     style="font-variation-settings:normal;fill:none;fill-opacity:1;stroke:#ffffff;stroke-width:3;stroke-linecap:round;stroke-linejoin:miter;stroke-miterlimit:4;stroke-dasharray:none;stroke-dashoffset:0;stroke-opacity:1;stop-color:#000000" />
  <path
     fill="none"
     stroke-width="0.562503"
     stroke-linecap="round"
     stroke-linejoin="miter"
     stroke="#000000"
     stroke-opacity="1"
     stroke-miterlimit="4"
     d="m 17.480454,8.8906209 c 0,1.3984371 -1.132812,2.5351551 -2.531249,2.5351551 -1.398436,0 -2.535155,-1.136718 -2.535155,-2.5351551 0,-1.3984369 1.136719,-2.535155 2.535155,-2.535155 1.398437,0 2.531249,1.1367181 2.531249,2.535155 z m 0,0"
     id="path2080" />
  <path
     fill-rule="nonzero"
     fill="#000000"
     fill-opacity="1"
     d="m 17.480461,8.890625 c 0,1.398437 -1.132812,2.535156 -2.53125,2.535156 -1.398437,0 -2.535156,-1.136719 -2.535156,-2.535156 0,-1.398437 1.136719,-2.535156 2.535156,-2.535156 1.398438,0 2.53125,1.136719 2.53125,2.535156 z m 0,0"
     id="path2082" />
  <path
     fill-rule="nonzero"
     fill="#dc2929"
     fill-opacity="1"
     d="m 16.789055,8.890625 c 0,1.015625 -0.828125,1.835937 -1.839844,1.835937 -1.011718,0 -1.835937,-0.820312 -1.835937,-1.835937 0,-1.015625 0.824219,-1.835937 1.835937,-1.835937 1.011719,0 1.839844,0.820312 1.839844,1.835937 z m 0,0"
     id="path2084" />
  <path
     fill="none"
     stroke-width="0.562503"
     stroke-linecap="round"
     stroke-linejoin="miter"
     stroke="#000000"
     stroke-opacity="1"
     stroke-miterlimit="4"
     d="m 5.7538969,8.8906209 c 0,1.3984371 -1.1328126,2.5351551 -2.5312485,2.5351551 -1.4023435,0 -2.53515601,-1.136718 -2.53515601,-2.5351551 0,-1.3984369 1.13281251,-2.535155 2.53515601,-2.535155 1.3984359,0 2.5312485,1.1367181 2.5312485,2.535155 z m 0,0"
     id="path2086" />
  <path
     fill-rule="nonzero"
     fill="#000000"
     fill-opacity="1"
     d="m 5.7538994,8.890625 c 0,1.398437 -1.132812,2.535156 -2.53125,2.535156 -1.402344,0 -2.53515604,-1.136719 -2.53515604,-2.535156 0,-1.398437 1.13281204,-2.535156 2.53515604,-2.535156 1.398438,0 2.53125,1.136719 2.53125,2.535156 z m 0,0"
     id="path2088" />
  <path
     fill-rule="nonzero"
     fill="#dc2929"
     fill-opacity="1"
     d="m 5.0585874,8.890625 c 0,1.015625 -0.824219,1.835937 -1.835938,1.835937 -1.015625,0 -1.835938,-0.820312 -1.835938,-1.835937 0,-1.015625 0.820313,-1.835937 1.835938,-1.835937 1.011719,0 1.835938,0.820312 1.835938,1.835937 z m 0,0"
     id="path2090" />
  <path
     fill="none"
     stroke-width="0.562503"
     stroke-linecap="round"
     stroke-linejoin="miter"
     stroke="#000000"
     stroke-opacity="1"
     stroke-miterlimit="4"
     d="M 3.7226478,1.9453119 1.9609297,3.7148421 7.246084,8.9999964 1.9687418,14.277338 l 1.7617181,1.761718 5.2773422,-5.277343 1.7656239,1.761718 3.519529,3.53125 L 16.054673,14.28515 12.531237,10.761713 10.773426,8.9999964 16.054673,3.7148421 14.292955,1.9453119 12.531237,3.7148421 10.773426,5.4765602 9.0078021,7.2382783 5.4843659,3.7148421 Z m 0,0"
     id="path2092" />
  <path
     fill-rule="nonzero"
     fill="#cb1414"
     fill-opacity="1"
     d="m 1.9687434,14.277344 1.761718,-1.761719 1.765626,1.761719 -1.765626,1.761718 z m 0,0"
     id="path2094" />
  <path
     fill-rule="nonzero"
     fill="#ffffff"
     fill-opacity="1"
     d="m 3.7226494,12.523438 1.761719,-1.761719 1.761719,1.761719 -1.761719,1.761718 z m 0,0"
     id="path2096" />
  <path
     fill-rule="nonzero"
     fill="#cb1414"
     fill-opacity="1"
     d="M 5.4843684,10.761719 7.2460874,9 l 1.765624,1.761719 -1.765624,1.761719 z m 0,0"
     id="path2098" />
  <path
     fill-rule="nonzero"
     fill="#ffffff"
     fill-opacity="1"
     d="M 7.2460874,9 9.0117114,7.238281 10.77343,9 9.0117114,10.761719 Z m 0,0"
     id="path2100" />
  <path
     fill-rule="nonzero"
     fill="#cb1414"
     fill-opacity="1"
     d="M 9.0117114,7.238281 10.77343,5.476562 12.535149,7.238281 10.77343,9 Z m 0,0"
     id="path2102" />
  <path
     fill-rule="nonzero"
     fill="#ffffff"
     fill-opacity="1"
     d="m 10.77343,5.476562 1.761719,-1.761718 1.757812,1.761718 -1.757812,1.761719 z m 0,0"
     id="path2104" />
  <path
     fill-rule="nonzero"
     fill="#cb1414"
     fill-opacity="1"
     d="m 12.535149,3.714844 1.757812,-1.761719 1.761719,1.761719 -1.761719,1.761718 z m 0,0"
     id="path2106" />
  <path
     fill-rule="nonzero"
     fill="#cb1414"
     fill-opacity="1"
     d="m 3.7226494,1.953125 1.761719,1.761719 -1.761719,1.761718 -1.761719,-1.761718 z m 0,0"
     id="path2108" />
  <path
     fill-rule="nonzero"
     fill="#ffffff"
     fill-opacity="1"
     d="m 5.4843684,3.714844 1.761719,1.761718 -1.761719,1.761719 -1.761719,-1.761719 z m 0,0"
     id="path2110" />
  <path
     fill-rule="nonzero"
     fill="#cb1414"
     fill-opacity="1"
     d="M 7.2460874,5.476562 9.0117114,7.238281 7.2460874,9 5.4843684,7.238281 Z m 0,0"
     id="path2112" />
  <path
     fill-rule="nonzero"
     fill="#cb1414"
     fill-opacity="1"
     d="m 10.77343,9 1.757813,1.761719 -1.757813,1.761719 -1.7617186,-1.761719 z m 0,0"
     id="path2114" />
  <path
     fill-rule="nonzero"
     fill="#ffffff"
     fill-opacity="1"
     d="m 12.535149,10.761719 1.757812,1.761719 -1.757812,1.761718 -1.761719,-1.761718 z m 0,0"
     id="path2116" />
  <path
     fill-rule="nonzero"
     fill="#cb1414"
     fill-opacity="1"
     d="m 14.292961,12.523438 1.761719,1.761718 -1.761719,1.761719 -1.761718,-1.761719 z m 0,0"
     id="path2118" />
  <path
     fill="none"
     stroke-width="1.12499"
     stroke-linecap="round"
     stroke-linejoin="miter"
     stroke="#000000"
     stroke-opacity="1"
     stroke-miterlimit="4"
     d="M 12.761706,13.777337 H 0.56249281 v 0.984375 H 17.648423 v -0.984375 z m 0,0"
     id="path2120" />
  <path
     fill-rule="nonzero"
     fill="#cb1414"
     fill-opacity="1"
     d="M 0.56639936,13.777344 H 3.0078054 v 0.984375 H 0.56249336 Z m 0,0"
     id="path2122" />
  <path
     fill-rule="nonzero"
     fill="#ffffff"
     fill-opacity="1"
     d="m 2.9921804,13.777344 h 2.445313 v 0.984375 h -2.445313 z m 0,0"
     id="path2124" />
  <path
     fill-rule="nonzero"
     fill="#cb1414"
     fill-opacity="1"
     d="m 5.4374934,13.777344 h 2.441406 v 0.984375 h -2.441406 z m 0,0"
     id="path2126" />
  <path
     fill-rule="nonzero"
     fill="#ffffff"
     fill-opacity="1"
     d="m 7.8788994,13.777344 h 2.4453116 v 0.984375 H 7.8788994 Z m 0,0"
     id="path2128" />
  <path
     fill-rule="nonzero"
     fill="#cb1414"
     fill-opacity="1"
     d="m 10.324211,13.777344 h 2.4375 v 0.984375 h -2.4375 z m 0,0"
     id="path2130" />
  <path
     fill-rule="nonzero"
     fill="#ffffff"
     fill-opacity="1"
     d="m 12.765618,13.777344 h 2.441406 v 0.984375 h -2.445313 z m 0,0"
     id="path2132" />
  <path
     fill-rule="nonzero"
     fill="#cb1414"
     fill-opacity="1"
     d="m 15.207024,13.777344 h 2.441406 v 0.984375 h -2.441406 z m 0,0"
     id="path2134" />
</svg>
