<?xml version="1.0" encoding="UTF-8"?>
<svg xmlns="http://www.w3.org/2000/svg" xmlns:xlink="http://www.w3.org/1999/xlink" width="15" height="12.278229" viewBox="0 0 15 12.278229">
<path fill="none" stroke-width="0.562503" stroke-linecap="round" stroke-linejoin="miter" stroke="rgb(0%, 0%, 0%)" stroke-opacity="1" stroke-miterlimit="4" d="M 3.722803 0.398364 L 1.958621 2.167288 L 7.246425 7.455092 L 1.968106 12.728668 L 3.732288 14.49285 L 9.005865 9.214531 L 10.774789 10.978713 L 14.293668 14.507077 L 16.053108 12.738153 L 12.529486 9.214531 L 10.774789 7.455092 L 16.053108 2.167288 L 14.293668 0.398364 L 12.529486 2.167288 L 10.774789 3.93147 L 9.005865 5.69091 L 5.482243 2.167288 Z M 3.722803 0.398364 " transform="matrix(0.823682, 0, 0, 0.823682, 0, 0)"/>
<path fill-rule="nonzero" fill="rgb(79.607843%, 7.843137%, 7.843137%)" fill-opacity="1" d="M 1.621094 10.484375 L 3.074219 9.035156 L 4.527344 10.484375 L 3.074219 11.9375 Z M 1.621094 10.484375 "/>
<path fill-rule="nonzero" fill="rgb(100%, 100%, 100%)" fill-opacity="1" d="M 3.066406 9.042969 L 4.515625 7.589844 L 5.96875 9.042969 L 4.515625 10.492188 Z M 3.066406 9.042969 "/>
<path fill-rule="nonzero" fill="rgb(79.607843%, 7.843137%, 7.843137%)" fill-opacity="1" d="M 4.515625 7.589844 L 5.96875 6.140625 L 7.421875 7.589844 L 5.96875 9.042969 Z M 4.515625 7.589844 "/>
<path fill-rule="nonzero" fill="rgb(100%, 100%, 100%)" fill-opacity="1" d="M 5.96875 6.140625 L 7.421875 4.6875 L 8.875 6.140625 L 7.421875 7.589844 Z M 5.96875 6.140625 "/>
<path fill-rule="nonzero" fill="rgb(79.607843%, 7.843137%, 7.843137%)" fill-opacity="1" d="M 7.421875 4.6875 L 8.875 3.238281 L 10.324219 4.6875 L 8.875 6.140625 Z M 7.421875 4.6875 "/>
<path fill-rule="nonzero" fill="rgb(100%, 100%, 100%)" fill-opacity="1" d="M 8.875 3.238281 L 10.324219 1.785156 L 11.773438 3.238281 L 10.324219 4.6875 Z M 8.875 3.238281 "/>
<path fill-rule="nonzero" fill="rgb(79.607843%, 7.843137%, 7.843137%)" fill-opacity="1" d="M 10.324219 1.785156 L 11.773438 0.335938 L 13.222656 1.785156 L 11.773438 3.238281 Z M 10.324219 1.785156 "/>
<path fill-rule="nonzero" fill="rgb(79.607843%, 7.843137%, 7.843137%)" fill-opacity="1" d="M 3.066406 0.335938 L 4.515625 1.785156 L 3.066406 3.238281 L 1.613281 1.785156 Z M 3.066406 0.335938 "/>
<path fill-rule="nonzero" fill="rgb(100%, 100%, 100%)" fill-opacity="1" d="M 4.515625 1.785156 L 5.96875 3.238281 L 4.515625 4.6875 L 3.066406 3.238281 Z M 4.515625 1.785156 "/>
<path fill-rule="nonzero" fill="rgb(79.607843%, 7.843137%, 7.843137%)" fill-opacity="1" d="M 5.96875 3.238281 L 7.421875 4.6875 L 5.96875 6.140625 L 4.515625 4.6875 Z M 5.96875 3.238281 "/>
<path fill-rule="nonzero" fill="rgb(79.607843%, 7.843137%, 7.843137%)" fill-opacity="1" d="M 8.875 6.140625 L 10.320312 7.589844 L 8.875 9.042969 L 7.421875 7.589844 Z M 8.875 6.140625 "/>
<path fill-rule="nonzero" fill="rgb(100%, 100%, 100%)" fill-opacity="1" d="M 10.324219 7.589844 L 11.773438 9.042969 L 10.324219 10.492188 L 8.875 9.042969 Z M 10.324219 7.589844 "/>
<path fill-rule="nonzero" fill="rgb(79.607843%, 7.843137%, 7.843137%)" fill-opacity="1" d="M 11.773438 9.042969 L 13.222656 10.492188 L 11.773438 11.945312 L 10.320312 10.492188 Z M 11.773438 9.042969 "/>
<path fill="none" stroke-width="1.12499" stroke-linecap="round" stroke-linejoin="miter" stroke="rgb(0%, 0%, 0%)" stroke-opacity="1" stroke-miterlimit="4" d="M 12.761865 12.230714 L 0.564349 12.230714 L 0.564349 13.217138 L 17.646563 13.217138 L 17.646563 12.230714 Z M 12.761865 12.230714 " transform="matrix(0.823682, 0, 0, 0.823682, 0, 0)"/>
<path fill-rule="nonzero" fill="rgb(79.607843%, 7.843137%, 7.843137%)" fill-opacity="1" d="M 0.464844 10.074219 L 2.476562 10.074219 L 2.476562 10.886719 L 0.464844 10.886719 Z M 0.464844 10.074219 "/>
<path fill-rule="nonzero" fill="rgb(100%, 100%, 100%)" fill-opacity="1" d="M 2.464844 10.074219 L 4.480469 10.074219 L 4.480469 10.886719 L 2.464844 10.886719 Z M 2.464844 10.074219 "/>
<path fill-rule="nonzero" fill="rgb(79.607843%, 7.843137%, 7.843137%)" fill-opacity="1" d="M 4.480469 10.074219 L 6.488281 10.074219 L 6.488281 10.886719 L 4.480469 10.886719 Z M 4.480469 10.074219 "/>
<path fill-rule="nonzero" fill="rgb(100%, 100%, 100%)" fill-opacity="1" d="M 6.488281 10.074219 L 8.503906 10.074219 L 8.503906 10.886719 L 6.488281 10.886719 Z M 6.488281 10.074219 "/>
<path fill-rule="nonzero" fill="rgb(79.607843%, 7.843137%, 7.843137%)" fill-opacity="1" d="M 8.503906 10.074219 L 10.511719 10.074219 L 10.511719 10.886719 L 8.503906 10.886719 Z M 8.503906 10.074219 "/>
<path fill-rule="nonzero" fill="rgb(100%, 100%, 100%)" fill-opacity="1" d="M 10.515625 10.074219 L 12.527344 10.074219 L 12.527344 10.886719 L 10.511719 10.886719 Z M 10.515625 10.074219 "/>
<path fill-rule="nonzero" fill="rgb(79.607843%, 7.843137%, 7.843137%)" fill-opacity="1" d="M 12.527344 10.074219 L 14.535156 10.074219 L 14.535156 10.886719 L 12.527344 10.886719 Z M 12.527344 10.074219 "/>
</svg>
