<?xml version="1.0" encoding="UTF-8"?>
<svg xmlns="http://www.w3.org/2000/svg" xmlns:xlink="http://www.w3.org/1999/xlink" width="15" height="12.278229" viewBox="0 0 15 12.278229">
<path fill="none" stroke-width="0.562503" stroke-linecap="round" stroke-linejoin="miter" stroke="rgb(0%, 0%, 0%)" stroke-opacity="1" stroke-miterlimit="4" d="M 17.480578 7.346016 C 17.480578 8.740289 16.347138 9.878471 14.948123 9.878471 C 13.549108 9.878471 12.415668 8.740289 12.415668 7.346016 C 12.415668 5.947001 13.549108 4.808819 14.948123 4.808819 C 16.347138 4.808819 17.480578 5.947001 17.480578 7.346016 Z M 17.480578 7.346016 " transform="matrix(0.823682, 0, 0, 0.823682, 0, 0)"/>
<path fill-rule="nonzero" fill="rgb(0%, 0%, 0%)" fill-opacity="1" d="M 14.398438 6.050781 C 14.398438 7.199219 13.464844 8.136719 12.3125 8.136719 C 11.160156 8.136719 10.226562 7.199219 10.226562 6.050781 C 10.226562 4.898438 11.160156 3.960938 12.3125 3.960938 C 13.464844 3.960938 14.398438 4.898438 14.398438 6.050781 Z M 14.398438 6.050781 "/>
<path fill-rule="nonzero" fill="rgb(86.27451%, 16.078431%, 16.078431%)" fill-opacity="1" d="M 13.828125 6.050781 C 13.828125 6.886719 13.148438 7.5625 12.3125 7.5625 C 11.480469 7.5625 10.800781 6.886719 10.800781 6.050781 C 10.800781 5.210938 11.480469 4.535156 12.3125 4.535156 C 13.148438 4.535156 13.828125 5.210938 13.828125 6.050781 Z M 13.828125 6.050781 "/>
<path fill="none" stroke-width="0.562503" stroke-linecap="round" stroke-linejoin="miter" stroke="rgb(0%, 0%, 0%)" stroke-opacity="1" stroke-miterlimit="4" d="M 5.752561 7.346016 C 5.752561 8.740289 4.619122 9.878471 3.224849 9.878471 C 1.821091 9.878471 0.687652 8.740289 0.687652 7.346016 C 0.687652 5.947001 1.821091 4.808819 3.224849 4.808819 C 4.619122 4.808819 5.752561 5.947001 5.752561 7.346016 Z M 5.752561 7.346016 " transform="matrix(0.823682, 0, 0, 0.823682, 0, 0)"/>
<path fill-rule="nonzero" fill="rgb(0%, 0%, 0%)" fill-opacity="1" d="M 4.738281 6.050781 C 4.738281 7.199219 3.804688 8.136719 2.65625 8.136719 C 1.5 8.136719 0.566406 7.199219 0.566406 6.050781 C 0.566406 4.898438 1.5 3.960938 2.65625 3.960938 C 3.804688 3.960938 4.738281 4.898438 4.738281 6.050781 Z M 4.738281 6.050781 "/>
<path fill-rule="nonzero" fill="rgb(86.27451%, 16.078431%, 16.078431%)" fill-opacity="1" d="M 4.167969 6.050781 C 4.167969 6.886719 3.488281 7.5625 2.65625 7.5625 C 1.816406 7.5625 1.140625 6.886719 1.140625 6.050781 C 1.140625 5.210938 1.816406 4.535156 2.65625 4.535156 C 3.488281 4.535156 4.167969 5.210938 4.167969 6.050781 Z M 4.167969 6.050781 "/>
<path fill="none" stroke-width="0.562503" stroke-linecap="round" stroke-linejoin="miter" stroke="rgb(0%, 0%, 0%)" stroke-opacity="1" stroke-miterlimit="4" d="M 3.722803 0.398364 L 1.958621 2.167288 L 7.246425 7.455092 L 1.968106 12.728668 L 3.732288 14.49285 L 9.005865 9.214531 L 10.774789 10.978713 L 14.293668 14.507077 L 16.053108 12.738153 L 12.529486 9.214531 L 10.774789 7.455092 L 16.053108 2.167288 L 14.293668 0.398364 L 12.529486 2.167288 L 10.774789 3.93147 L 9.005865 5.69091 L 5.482243 2.167288 Z M 3.722803 0.398364 " transform="matrix(0.823682, 0, 0, 0.823682, 0, 0)"/>
<path fill-rule="nonzero" fill="rgb(79.607843%, 7.843137%, 7.843137%)" fill-opacity="1" d="M 1.621094 10.484375 L 3.074219 9.035156 L 4.527344 10.484375 L 3.074219 11.9375 Z M 1.621094 10.484375 "/>
<path fill-rule="nonzero" fill="rgb(100%, 100%, 100%)" fill-opacity="1" d="M 3.066406 9.042969 L 4.515625 7.589844 L 5.96875 9.042969 L 4.515625 10.492188 Z M 3.066406 9.042969 "/>
<path fill-rule="nonzero" fill="rgb(79.607843%, 7.843137%, 7.843137%)" fill-opacity="1" d="M 4.515625 7.589844 L 5.96875 6.140625 L 7.421875 7.589844 L 5.96875 9.042969 Z M 4.515625 7.589844 "/>
<path fill-rule="nonzero" fill="rgb(100%, 100%, 100%)" fill-opacity="1" d="M 5.96875 6.140625 L 7.421875 4.6875 L 8.875 6.140625 L 7.421875 7.589844 Z M 5.96875 6.140625 "/>
<path fill-rule="nonzero" fill="rgb(79.607843%, 7.843137%, 7.843137%)" fill-opacity="1" d="M 7.421875 4.6875 L 8.875 3.238281 L 10.324219 4.6875 L 8.875 6.140625 Z M 7.421875 4.6875 "/>
<path fill-rule="nonzero" fill="rgb(100%, 100%, 100%)" fill-opacity="1" d="M 8.875 3.238281 L 10.324219 1.785156 L 11.773438 3.238281 L 10.324219 4.6875 Z M 8.875 3.238281 "/>
<path fill-rule="nonzero" fill="rgb(79.607843%, 7.843137%, 7.843137%)" fill-opacity="1" d="M 10.324219 1.785156 L 11.773438 0.335938 L 13.222656 1.785156 L 11.773438 3.238281 Z M 10.324219 1.785156 "/>
<path fill-rule="nonzero" fill="rgb(79.607843%, 7.843137%, 7.843137%)" fill-opacity="1" d="M 3.066406 0.335938 L 4.515625 1.785156 L 3.066406 3.238281 L 1.613281 1.785156 Z M 3.066406 0.335938 "/>
<path fill-rule="nonzero" fill="rgb(100%, 100%, 100%)" fill-opacity="1" d="M 4.515625 1.785156 L 5.96875 3.238281 L 4.515625 4.6875 L 3.066406 3.238281 Z M 4.515625 1.785156 "/>
<path fill-rule="nonzero" fill="rgb(79.607843%, 7.843137%, 7.843137%)" fill-opacity="1" d="M 5.96875 3.238281 L 7.421875 4.6875 L 5.96875 6.140625 L 4.515625 4.6875 Z M 5.96875 3.238281 "/>
<path fill-rule="nonzero" fill="rgb(79.607843%, 7.843137%, 7.843137%)" fill-opacity="1" d="M 8.875 6.140625 L 10.320312 7.589844 L 8.875 9.042969 L 7.421875 7.589844 Z M 8.875 6.140625 "/>
<path fill-rule="nonzero" fill="rgb(100%, 100%, 100%)" fill-opacity="1" d="M 10.324219 7.589844 L 11.773438 9.042969 L 10.324219 10.492188 L 8.875 9.042969 Z M 10.324219 7.589844 "/>
<path fill-rule="nonzero" fill="rgb(79.607843%, 7.843137%, 7.843137%)" fill-opacity="1" d="M 11.773438 9.042969 L 13.222656 10.492188 L 11.773438 11.945312 L 10.320312 10.492188 Z M 11.773438 9.042969 "/>
<path fill="none" stroke-width="1.12499" stroke-linecap="round" stroke-linejoin="miter" stroke="rgb(0%, 0%, 0%)" stroke-opacity="1" stroke-miterlimit="4" d="M 12.761865 12.230714 L 0.564349 12.230714 L 0.564349 13.217138 L 17.646563 13.217138 L 17.646563 12.230714 Z M 12.761865 12.230714 " transform="matrix(0.823682, 0, 0, 0.823682, 0, 0)"/>
<path fill-rule="nonzero" fill="rgb(79.607843%, 7.843137%, 7.843137%)" fill-opacity="1" d="M 0.464844 10.074219 L 2.476562 10.074219 L 2.476562 10.886719 L 0.464844 10.886719 Z M 0.464844 10.074219 "/>
<path fill-rule="nonzero" fill="rgb(100%, 100%, 100%)" fill-opacity="1" d="M 2.464844 10.074219 L 4.480469 10.074219 L 4.480469 10.886719 L 2.464844 10.886719 Z M 2.464844 10.074219 "/>
<path fill-rule="nonzero" fill="rgb(79.607843%, 7.843137%, 7.843137%)" fill-opacity="1" d="M 4.480469 10.074219 L 6.488281 10.074219 L 6.488281 10.886719 L 4.480469 10.886719 Z M 4.480469 10.074219 "/>
<path fill-rule="nonzero" fill="rgb(100%, 100%, 100%)" fill-opacity="1" d="M 6.488281 10.074219 L 8.503906 10.074219 L 8.503906 10.886719 L 6.488281 10.886719 Z M 6.488281 10.074219 "/>
<path fill-rule="nonzero" fill="rgb(79.607843%, 7.843137%, 7.843137%)" fill-opacity="1" d="M 8.503906 10.074219 L 10.511719 10.074219 L 10.511719 10.886719 L 8.503906 10.886719 Z M 8.503906 10.074219 "/>
<path fill-rule="nonzero" fill="rgb(100%, 100%, 100%)" fill-opacity="1" d="M 10.515625 10.074219 L 12.527344 10.074219 L 12.527344 10.886719 L 10.511719 10.886719 Z M 10.515625 10.074219 "/>
<path fill-rule="nonzero" fill="rgb(79.607843%, 7.843137%, 7.843137%)" fill-opacity="1" d="M 12.527344 10.074219 L 14.535156 10.074219 L 14.535156 10.886719 L 12.527344 10.886719 Z M 12.527344 10.074219 "/>
</svg>
