<?xml version="1.0" encoding="UTF-8"?>
<svg xmlns="http://www.w3.org/2000/svg" xmlns:xlink="http://www.w3.org/1999/xlink" width="15" height="12.278229" viewBox="0 0 15 12.278229">
<path fill="none" stroke-width="0.562503" stroke-linecap="round" stroke-linejoin="miter" stroke="rgb(0%, 0%, 0%)" stroke-opacity="1" stroke-miterlimit="4" d="M 17.480587 7.34602 C 17.480587 8.740293 16.347146 9.878476 14.94813 9.878476 C 13.549114 9.878476 12.415674 8.740293 12.415674 7.34602 C 12.415674 5.947004 13.549114 4.808821 14.94813 4.808821 C 16.347146 4.808821 17.480587 5.947004 17.480587 7.34602 Z M 17.480587 7.34602 " transform="matrix(0.823682, 0, 0, 0.823682, 0, 0)"/>
<path fill-rule="nonzero" fill="rgb(0%, 0%, 0%)" fill-opacity="1" d="M 14.398438 6.050781 C 14.398438 7.199219 13.464844 8.136719 12.3125 8.136719 C 11.160156 8.136719 10.226562 7.199219 10.226562 6.050781 C 10.226562 4.898438 11.160156 3.960938 12.3125 3.960938 C 13.464844 3.960938 14.398438 4.898438 14.398438 6.050781 Z M 14.398438 6.050781 "/>
<path fill-rule="nonzero" fill="rgb(86.27451%, 16.078431%, 16.078431%)" fill-opacity="1" d="M 13.828125 6.050781 C 13.828125 6.886719 13.148438 7.5625 12.3125 7.5625 C 11.480469 7.5625 10.800781 6.886719 10.800781 6.050781 C 10.800781 5.210938 11.480469 4.535156 12.3125 4.535156 C 13.148438 4.535156 13.828125 5.210938 13.828125 6.050781 Z M 13.828125 6.050781 "/>
<path fill="none" stroke-width="0.562503" stroke-linecap="round" stroke-linejoin="miter" stroke="rgb(0%, 0%, 0%)" stroke-opacity="1" stroke-miterlimit="4" d="M 5.752564 7.34602 C 5.752564 8.740293 4.619124 9.878476 3.22485 9.878476 C 1.821092 9.878476 0.687652 8.740293 0.687652 7.34602 C 0.687652 5.947004 1.821092 4.808821 3.22485 4.808821 C 4.619124 4.808821 5.752564 5.947004 5.752564 7.34602 Z M 5.752564 7.34602 " transform="matrix(0.823682, 0, 0, 0.823682, 0, 0)"/>
<path fill-rule="nonzero" fill="rgb(0%, 0%, 0%)" fill-opacity="1" d="M 4.738281 6.050781 C 4.738281 7.199219 3.804688 8.136719 2.65625 8.136719 C 1.5 8.136719 0.566406 7.199219 0.566406 6.050781 C 0.566406 4.898438 1.5 3.960938 2.65625 3.960938 C 3.804688 3.960938 4.738281 4.898438 4.738281 6.050781 Z M 4.738281 6.050781 "/>
<path fill-rule="nonzero" fill="rgb(86.27451%, 16.078431%, 16.078431%)" fill-opacity="1" d="M 4.167969 6.050781 C 4.167969 6.886719 3.488281 7.5625 2.65625 7.5625 C 1.816406 7.5625 1.140625 6.886719 1.140625 6.050781 C 1.140625 5.210938 1.816406 4.535156 2.65625 4.535156 C 3.488281 4.535156 4.167969 5.210938 4.167969 6.050781 Z M 4.167969 6.050781 "/>
<path fill="none" stroke-width="0.562503" stroke-linecap="round" stroke-linejoin="miter" stroke="rgb(0%, 0%, 0%)" stroke-opacity="1" stroke-miterlimit="4" d="M 3.722805 0.398364 L 1.958622 2.167289 L 7.246429 7.455096 L 1.968107 12.728675 L 3.73229 14.492857 L 9.005869 9.214536 L 10.774795 10.978719 L 14.293675 14.507085 L 16.053116 12.738159 L 12.529493 9.214536 L 10.774795 7.455096 L 16.053116 2.167289 L 14.293675 0.398364 L 12.529493 2.167289 L 10.774795 3.931472 L 9.005869 5.690913 L 5.482246 2.167289 Z M 3.722805 0.398364 " transform="matrix(0.823682, 0, 0, 0.823682, 0, 0)"/>
<path fill-rule="nonzero" fill="rgb(79.607843%, 7.843137%, 7.843137%)" fill-opacity="1" d="M 1.621094 10.484375 L 3.074219 9.035156 L 4.527344 10.484375 L 3.074219 11.9375 Z M 1.621094 10.484375 "/>
<path fill-rule="nonzero" fill="rgb(100%, 100%, 100%)" fill-opacity="1" d="M 3.066406 9.042969 L 4.515625 7.589844 L 5.96875 9.042969 L 4.515625 10.492188 Z M 3.066406 9.042969 "/>
<path fill-rule="nonzero" fill="rgb(79.607843%, 7.843137%, 7.843137%)" fill-opacity="1" d="M 4.515625 7.589844 L 5.96875 6.140625 L 7.421875 7.589844 L 5.96875 9.042969 Z M 4.515625 7.589844 "/>
<path fill-rule="nonzero" fill="rgb(100%, 100%, 100%)" fill-opacity="1" d="M 5.96875 6.140625 L 7.421875 4.6875 L 8.875 6.140625 L 7.421875 7.589844 Z M 5.96875 6.140625 "/>
<path fill-rule="nonzero" fill="rgb(79.607843%, 7.843137%, 7.843137%)" fill-opacity="1" d="M 7.421875 4.6875 L 8.875 3.238281 L 10.324219 4.6875 L 8.875 6.140625 Z M 7.421875 4.6875 "/>
<path fill-rule="nonzero" fill="rgb(100%, 100%, 100%)" fill-opacity="1" d="M 8.875 3.238281 L 10.324219 1.785156 L 11.773438 3.238281 L 10.324219 4.6875 Z M 8.875 3.238281 "/>
<path fill-rule="nonzero" fill="rgb(79.607843%, 7.843137%, 7.843137%)" fill-opacity="1" d="M 10.324219 1.785156 L 11.773438 0.335938 L 13.222656 1.785156 L 11.773438 3.238281 Z M 10.324219 1.785156 "/>
<path fill-rule="nonzero" fill="rgb(79.607843%, 7.843137%, 7.843137%)" fill-opacity="1" d="M 3.066406 0.335938 L 4.515625 1.785156 L 3.066406 3.238281 L 1.613281 1.785156 Z M 3.066406 0.335938 "/>
<path fill-rule="nonzero" fill="rgb(100%, 100%, 100%)" fill-opacity="1" d="M 4.515625 1.785156 L 5.96875 3.238281 L 4.515625 4.6875 L 3.066406 3.238281 Z M 4.515625 1.785156 "/>
<path fill-rule="nonzero" fill="rgb(79.607843%, 7.843137%, 7.843137%)" fill-opacity="1" d="M 5.96875 3.238281 L 7.421875 4.6875 L 5.96875 6.140625 L 4.515625 4.6875 Z M 5.96875 3.238281 "/>
<path fill-rule="nonzero" fill="rgb(79.607843%, 7.843137%, 7.843137%)" fill-opacity="1" d="M 8.875 6.140625 L 10.320312 7.589844 L 8.875 9.042969 L 7.421875 7.589844 Z M 8.875 6.140625 "/>
<path fill-rule="nonzero" fill="rgb(100%, 100%, 100%)" fill-opacity="1" d="M 10.324219 7.589844 L 11.773438 9.042969 L 10.324219 10.492188 L 8.875 9.042969 Z M 10.324219 7.589844 "/>
<path fill-rule="nonzero" fill="rgb(79.607843%, 7.843137%, 7.843137%)" fill-opacity="1" d="M 11.773438 9.042969 L 13.222656 10.492188 L 11.773438 11.945312 L 10.320312 10.492188 Z M 11.773438 9.042969 "/>
<path fill="none" stroke-width="1.12499" stroke-linecap="round" stroke-linejoin="miter" stroke="rgb(0%, 0%, 0%)" stroke-opacity="1" stroke-miterlimit="4" d="M 12.761872 12.23072 L 0.564349 12.23072 L 0.564349 13.217145 L 17.646572 13.217145 L 17.646572 12.23072 Z M 12.761872 12.23072 " transform="matrix(0.823682, 0, 0, 0.823682, 0, 0)"/>
<path fill-rule="nonzero" fill="rgb(79.607843%, 7.843137%, 7.843137%)" fill-opacity="1" d="M 0.464844 10.074219 L 2.476562 10.074219 L 2.476562 10.886719 L 0.464844 10.886719 Z M 0.464844 10.074219 "/>
<path fill-rule="nonzero" fill="rgb(100%, 100%, 100%)" fill-opacity="1" d="M 2.464844 10.074219 L 4.480469 10.074219 L 4.480469 10.886719 L 2.464844 10.886719 Z M 2.464844 10.074219 "/>
<path fill-rule="nonzero" fill="rgb(79.607843%, 7.843137%, 7.843137%)" fill-opacity="1" d="M 4.480469 10.074219 L 6.488281 10.074219 L 6.488281 10.886719 L 4.480469 10.886719 Z M 4.480469 10.074219 "/>
<path fill-rule="nonzero" fill="rgb(100%, 100%, 100%)" fill-opacity="1" d="M 6.488281 10.074219 L 8.503906 10.074219 L 8.503906 10.886719 L 6.488281 10.886719 Z M 6.488281 10.074219 "/>
<path fill-rule="nonzero" fill="rgb(79.607843%, 7.843137%, 7.843137%)" fill-opacity="1" d="M 8.503906 10.074219 L 10.511719 10.074219 L 10.511719 10.886719 L 8.503906 10.886719 Z M 8.503906 10.074219 "/>
<path fill-rule="nonzero" fill="rgb(100%, 100%, 100%)" fill-opacity="1" d="M 10.515625 10.074219 L 12.527344 10.074219 L 12.527344 10.886719 L 10.511719 10.886719 Z M 10.515625 10.074219 "/>
<path fill-rule="nonzero" fill="rgb(79.607843%, 7.843137%, 7.843137%)" fill-opacity="1" d="M 12.527344 10.074219 L 14.535156 10.074219 L 14.535156 10.886719 L 12.527344 10.886719 Z M 12.527344 10.074219 "/>
</svg>
