<?xml version="1.0" encoding="UTF-8"?>
<svg xmlns="http://www.w3.org/2000/svg" xmlns:xlink="http://www.w3.org/1999/xlink" width="15" height="15.018296" viewBox="0 0 15 15.018296">
<path fill="none" stroke-width="0.562503" stroke-linecap="round" stroke-linejoin="miter" stroke="rgb(0%, 0%, 0%)" stroke-opacity="1" stroke-miterlimit="4" d="M 2.159589 0.399349 L 0.395472 2.167343 L 5.683944 7.451938 L 0.403227 12.728778 L 2.167343 14.492894 L 7.444183 9.216054 L 9.2083 10.976293 L 12.728778 14.508403 L 14.492894 12.74041 L 10.968539 9.216054 L 9.2083 7.451938 L 14.492894 2.167343 L 12.728778 0.399349 L 10.968539 2.167343 L 9.2083 3.931459 L 7.444183 5.691698 L 3.919828 2.167343 Z M 2.159589 0.399349 " transform="matrix(1.007498, 0, 0, 1.007498, 0, 0)"/>
<path fill-rule="nonzero" fill="rgb(79.607843%, 7.843137%, 7.843137%)" fill-opacity="1" d="M 0.40625 12.824219 L 2.183594 11.050781 L 3.960938 12.824219 L 2.183594 14.601562 Z M 0.40625 12.824219 "/>
<path fill-rule="nonzero" fill="rgb(100%, 100%, 100%)" fill-opacity="1" d="M 2.175781 11.058594 L 3.949219 9.285156 L 5.726562 11.058594 L 3.949219 12.835938 Z M 2.175781 11.058594 "/>
<path fill-rule="nonzero" fill="rgb(79.607843%, 7.843137%, 7.843137%)" fill-opacity="1" d="M 3.949219 9.285156 L 5.726562 7.507812 L 7.503906 9.285156 L 5.726562 11.058594 Z M 3.949219 9.285156 "/>
<path fill-rule="nonzero" fill="rgb(100%, 100%, 100%)" fill-opacity="1" d="M 5.726562 7.507812 L 7.503906 5.734375 L 9.277344 7.507812 L 7.503906 9.285156 Z M 5.726562 7.507812 "/>
<path fill-rule="nonzero" fill="rgb(79.607843%, 7.843137%, 7.843137%)" fill-opacity="1" d="M 7.503906 5.734375 L 9.277344 3.960938 L 11.054688 5.734375 L 9.277344 7.507812 Z M 7.503906 5.734375 "/>
<path fill-rule="nonzero" fill="rgb(100%, 100%, 100%)" fill-opacity="1" d="M 9.277344 3.960938 L 11.054688 2.183594 L 12.824219 3.960938 L 11.054688 5.734375 Z M 9.277344 3.960938 "/>
<path fill-rule="nonzero" fill="rgb(79.607843%, 7.843137%, 7.843137%)" fill-opacity="1" d="M 11.054688 2.183594 L 12.824219 0.410156 L 14.601562 2.183594 L 12.824219 3.960938 Z M 11.054688 2.183594 "/>
<path fill-rule="nonzero" fill="rgb(79.607843%, 7.843137%, 7.843137%)" fill-opacity="1" d="M 2.175781 0.410156 L 3.949219 2.183594 L 2.175781 3.960938 L 0.398438 2.183594 Z M 2.175781 0.410156 "/>
<path fill-rule="nonzero" fill="rgb(100%, 100%, 100%)" fill-opacity="1" d="M 3.949219 2.183594 L 5.726562 3.960938 L 3.949219 5.734375 L 2.175781 3.960938 Z M 3.949219 2.183594 "/>
<path fill-rule="nonzero" fill="rgb(79.607843%, 7.843137%, 7.843137%)" fill-opacity="1" d="M 5.726562 3.960938 L 7.503906 5.734375 L 5.726562 7.507812 L 3.949219 5.734375 Z M 5.726562 3.960938 "/>
<path fill-rule="nonzero" fill="rgb(79.607843%, 7.843137%, 7.843137%)" fill-opacity="1" d="M 9.277344 7.507812 L 11.050781 9.285156 L 9.277344 11.058594 L 7.503906 9.285156 Z M 9.277344 7.507812 "/>
<path fill-rule="nonzero" fill="rgb(100%, 100%, 100%)" fill-opacity="1" d="M 11.054688 9.285156 L 12.824219 11.058594 L 11.054688 12.835938 L 9.277344 11.058594 Z M 11.054688 9.285156 "/>
<path fill-rule="nonzero" fill="rgb(79.607843%, 7.843137%, 7.843137%)" fill-opacity="1" d="M 12.824219 11.058594 L 14.601562 12.835938 L 12.824219 14.609375 L 11.050781 12.835938 Z M 12.824219 11.058594 "/>
</svg>
