<?xml version="1.0" encoding="UTF-8"?>
<svg xmlns="http://www.w3.org/2000/svg" xmlns:xlink="http://www.w3.org/1999/xlink" width="15" height="12.883426" viewBox="0 0 15 12.883426">
<path fill="none" stroke-width="0.562503" stroke-linecap="round" stroke-linejoin="miter" stroke="rgb(0%, 0%, 0%)" stroke-opacity="1" stroke-miterlimit="4" d="M 17.075246 7.344435 C 17.075246 8.741008 15.940814 9.87996 14.544241 9.87996 C 13.143149 9.87996 12.008716 8.741008 12.008716 7.344435 C 12.008716 5.943343 13.143149 4.80891 14.544241 4.80891 C 15.940814 4.80891 17.075246 5.943343 17.075246 7.344435 Z M 17.075246 7.344435 " transform="matrix(0.864281, 0, 0, 0.864281, 0, 0)"/>
<path fill-rule="nonzero" fill="rgb(0%, 0%, 0%)" fill-opacity="1" d="M 14.757812 6.347656 C 14.757812 7.554688 13.777344 8.539062 12.570312 8.539062 C 11.359375 8.539062 10.378906 7.554688 10.378906 6.347656 C 10.378906 5.136719 11.359375 4.15625 12.570312 4.15625 C 13.777344 4.15625 14.757812 5.136719 14.757812 6.347656 Z M 14.757812 6.347656 "/>
<path fill-rule="nonzero" fill="rgb(86.27451%, 16.078431%, 16.078431%)" fill-opacity="1" d="M 14.160156 6.347656 C 14.160156 7.226562 13.445312 7.933594 12.570312 7.933594 C 11.695312 7.933594 10.984375 7.226562 10.984375 6.347656 C 10.984375 5.46875 11.695312 4.761719 12.570312 4.761719 C 13.445312 4.761719 14.160156 5.46875 14.160156 6.347656 Z M 14.160156 6.347656 "/>
<path fill="none" stroke-width="0.562503" stroke-linecap="round" stroke-linejoin="miter" stroke="rgb(0%, 0%, 0%)" stroke-opacity="1" stroke-miterlimit="4" d="M 5.346749 7.344435 C 5.346749 8.741008 4.216836 9.87996 2.815743 9.87996 C 1.414651 9.87996 0.280218 8.741008 0.280218 7.344435 C 0.280218 5.943343 1.414651 4.80891 2.815743 4.80891 C 4.216836 4.80891 5.346749 5.943343 5.346749 7.344435 Z M 5.346749 7.344435 " transform="matrix(0.864281, 0, 0, 0.864281, 0, 0)"/>
<path fill-rule="nonzero" fill="rgb(0%, 0%, 0%)" fill-opacity="1" d="M 4.621094 6.347656 C 4.621094 7.554688 3.644531 8.539062 2.433594 8.539062 C 1.222656 8.539062 0.242188 7.554688 0.242188 6.347656 C 0.242188 5.136719 1.222656 4.15625 2.433594 4.15625 C 3.644531 4.15625 4.621094 5.136719 4.621094 6.347656 Z M 4.621094 6.347656 "/>
<path fill-rule="nonzero" fill="rgb(86.27451%, 16.078431%, 16.078431%)" fill-opacity="1" d="M 4.019531 6.347656 C 4.019531 7.226562 3.308594 7.933594 2.433594 7.933594 C 1.554688 7.933594 0.847656 7.226562 0.847656 6.347656 C 0.847656 5.46875 1.554688 4.761719 2.433594 4.761719 C 3.308594 4.761719 4.019531 5.46875 4.019531 6.347656 Z M 4.019531 6.347656 "/>
<path fill="none" stroke-width="0.562503" stroke-linecap="round" stroke-linejoin="miter" stroke="rgb(0%, 0%, 0%)" stroke-opacity="1" stroke-miterlimit="4" d="M 3.317425 0.397729 L 1.55476 2.169433 L 6.838234 7.452907 L 1.5638 12.731861 L 3.326464 14.494525 L 8.600898 9.215571 L 10.368082 10.978236 L 13.888892 14.508084 L 15.647036 12.73638 L 12.126227 9.215571 L 10.368082 7.452907 L 15.647036 2.169433 L 13.888892 0.397729 L 12.126227 2.169433 L 10.368082 3.932098 L 8.600898 5.690242 L 5.080089 2.169433 Z M 3.317425 0.397729 " transform="matrix(0.864281, 0, 0, 0.864281, 0, 0)"/>
<path fill-rule="nonzero" fill="rgb(79.607843%, 7.843137%, 7.843137%)" fill-opacity="1" d="M 1.351562 11.003906 L 2.875 9.480469 L 4.398438 11.003906 L 2.875 12.527344 Z M 1.351562 11.003906 "/>
<path fill-rule="nonzero" fill="rgb(100%, 100%, 100%)" fill-opacity="1" d="M 2.867188 9.488281 L 4.390625 7.964844 L 5.910156 9.488281 L 4.390625 11.007812 Z M 2.867188 9.488281 "/>
<path fill-rule="nonzero" fill="rgb(79.607843%, 7.843137%, 7.843137%)" fill-opacity="1" d="M 4.390625 7.964844 L 5.910156 6.441406 L 7.4375 7.964844 L 5.910156 9.488281 Z M 4.390625 7.964844 "/>
<path fill-rule="nonzero" fill="rgb(100%, 100%, 100%)" fill-opacity="1" d="M 5.910156 6.441406 L 7.4375 4.917969 L 8.960938 6.441406 L 7.4375 7.964844 Z M 5.910156 6.441406 "/>
<path fill-rule="nonzero" fill="rgb(79.607843%, 7.843137%, 7.843137%)" fill-opacity="1" d="M 7.4375 4.917969 L 8.960938 3.398438 L 10.484375 4.917969 L 8.960938 6.441406 Z M 7.4375 4.917969 "/>
<path fill-rule="nonzero" fill="rgb(100%, 100%, 100%)" fill-opacity="1" d="M 8.960938 3.398438 L 10.484375 1.875 L 12.003906 3.398438 L 10.484375 4.917969 Z M 8.960938 3.398438 "/>
<path fill-rule="nonzero" fill="rgb(79.607843%, 7.843137%, 7.843137%)" fill-opacity="1" d="M 10.484375 1.875 L 12.003906 0.351562 L 13.523438 1.875 L 12.003906 3.398438 Z M 10.484375 1.875 "/>
<path fill-rule="nonzero" fill="rgb(79.607843%, 7.843137%, 7.843137%)" fill-opacity="1" d="M 2.867188 0.351562 L 4.390625 1.875 L 2.867188 3.398438 L 1.34375 1.875 Z M 2.867188 0.351562 "/>
<path fill-rule="nonzero" fill="rgb(100%, 100%, 100%)" fill-opacity="1" d="M 4.390625 1.875 L 5.910156 3.398438 L 4.390625 4.917969 L 2.867188 3.398438 Z M 4.390625 1.875 "/>
<path fill-rule="nonzero" fill="rgb(79.607843%, 7.843137%, 7.843137%)" fill-opacity="1" d="M 5.910156 3.398438 L 7.4375 4.917969 L 5.910156 6.441406 L 4.390625 4.917969 Z M 5.910156 3.398438 "/>
<path fill-rule="nonzero" fill="rgb(79.607843%, 7.843137%, 7.843137%)" fill-opacity="1" d="M 8.960938 6.441406 L 10.480469 7.964844 L 8.960938 9.488281 L 7.4375 7.964844 Z M 8.960938 6.441406 "/>
<path fill-rule="nonzero" fill="rgb(100%, 100%, 100%)" fill-opacity="1" d="M 10.484375 7.964844 L 12.003906 9.488281 L 10.484375 11.007812 L 8.960938 9.488281 Z M 10.484375 7.964844 "/>
<path fill-rule="nonzero" fill="rgb(79.607843%, 7.843137%, 7.843137%)" fill-opacity="1" d="M 12.003906 9.488281 L 13.523438 11.007812 L 12.003906 12.53125 L 10.480469 11.007812 Z M 12.003906 9.488281 "/>
</svg>
