<?xml version="1.0" encoding="UTF-8" standalone="no"?>
<svg
   width="18.331696"
   height="18.36084"
   viewBox="0 0 18.331696 18.36084"
   version="1.1"
   id="svg3115"
   sodipodi:docname="level-crossing-light.svg"
   inkscape:version="1.2.2 (b0a8486541, 2022-12-01)"
   xmlns:inkscape="http://www.inkscape.org/namespaces/inkscape"
   xmlns:sodipodi="http://sodipodi.sourceforge.net/DTD/sodipodi-0.dtd"
   xmlns="http://www.w3.org/2000/svg"
   xmlns:svg="http://www.w3.org/2000/svg">
  <defs
     id="defs3119" />
  <sodipodi:namedview
     id="namedview3117"
     pagecolor="#ffffff"
     bordercolor="#666666"
     borderopacity="1.0"
     inkscape:showpageshadow="2"
     inkscape:pageopacity="0.0"
     inkscape:pagecheckerboard="0"
     inkscape:deskcolor="#d1d1d1"
     showgrid="false"
     inkscape:zoom="47.722222"
     inkscape:cx="9"
     inkscape:cy="9.0209546"
     inkscape:window-width="1920"
     inkscape:window-height="1008"
     inkscape:window-x="0"
     inkscape:window-y="0"
     inkscape:window-maximized="1"
     inkscape:current-layer="svg3115" />
  <path
     fill="none"
     stroke-width="0.52916"
     stroke-linecap="round"
     stroke-linejoin="miter"
     stroke="rgb(0%, 0%, 0%)"
     stroke-opacity="1"
     stroke-miterlimit="4"
     d="m 3.8806946,2.126029 -1.7617181,1.7695302 5.2851542,5.2851542 -5.2773422,5.2773416 1.7617181,1.761718 5.2773422,-5.277342 1.7656232,1.761718 3.51953,3.531249 L 16.21272,14.465867 12.689284,10.942431 10.931472,9.1807134 16.21272,3.8955592 14.451002,2.126029 12.689284,3.8955592 10.931472,5.6572773 9.1658488,7.4189953 5.6424127,3.8955592 Z m 0,0"
     id="path2-6"
     style="font-variation-settings:normal;fill:none;fill-opacity:1;stroke:#ffffff;stroke-width:3;stroke-linecap:round;stroke-linejoin:miter;stroke-miterlimit:4;stroke-dasharray:none;stroke-dashoffset:0;stroke-opacity:1;stop-color:#000000" />
  <path
     fill="none"
     stroke-width="0.562503"
     stroke-linecap="round"
     stroke-linejoin="miter"
     stroke="#000000"
     stroke-opacity="1"
     stroke-miterlimit="4"
     d="m 17.382805,8.8906209 c 0,1.3984371 -1.132813,2.5351551 -2.53125,2.5351551 -1.398436,0 -2.535155,-1.136718 -2.535155,-2.5351551 0,-1.3984369 1.136719,-2.535155 2.535155,-2.535155 1.398437,0 2.53125,1.1367181 2.53125,2.535155 z m 0,0"
     id="path3075" />
  <path
     fill-rule="nonzero"
     fill="#000000"
     fill-opacity="1"
     d="m 17.382812,8.890625 c 0,1.398437 -1.132812,2.535156 -2.53125,2.535156 -1.398437,0 -2.535156,-1.136719 -2.535156,-2.535156 0,-1.398437 1.136719,-2.535156 2.535156,-2.535156 1.398438,0 2.53125,1.136719 2.53125,2.535156 z m 0,0"
     id="path3077" />
  <path
     fill-rule="nonzero"
     fill="#dc2929"
     fill-opacity="1"
     d="m 16.691406,8.890625 c 0,1.015625 -0.828125,1.835937 -1.839844,1.835937 -1.011718,0 -1.835937,-0.820312 -1.835937,-1.835937 0,-1.015625 0.824219,-1.835937 1.835937,-1.835937 1.011719,0 1.839844,0.820312 1.839844,1.835937 z m 0,0"
     id="path3079" />
  <path
     fill="none"
     stroke-width="0.562503"
     stroke-linecap="round"
     stroke-linejoin="miter"
     stroke="#000000"
     stroke-opacity="1"
     stroke-miterlimit="4"
     d="m 5.6562475,8.8906209 c 0,1.3984371 -1.1328126,2.5351551 -2.5312484,2.5351551 -1.4023435,0 -2.5351561,-1.136718 -2.5351561,-2.5351551 0,-1.3984369 1.1328126,-2.535155 2.5351561,-2.535155 1.3984358,0 2.5312484,1.1367181 2.5312484,2.535155 z m 0,0"
     id="path3081" />
  <path
     fill-rule="nonzero"
     fill="#000000"
     fill-opacity="1"
     d="m 5.65625,8.890625 c 0,1.398437 -1.132812,2.535156 -2.53125,2.535156 -1.402344,0 -2.53515604,-1.136719 -2.53515604,-2.535156 0,-1.398437 1.13281204,-2.535156 2.53515604,-2.535156 1.398438,0 2.53125,1.136719 2.53125,2.535156 z m 0,0"
     id="path3083" />
  <path
     fill-rule="nonzero"
     fill="#dc2929"
     fill-opacity="1"
     d="m 4.960938,8.890625 c 0,1.015625 -0.824219,1.835937 -1.835938,1.835937 -1.015625,0 -1.835938,-0.820312 -1.835938,-1.835937 0,-1.015625 0.820313,-1.835937 1.835938,-1.835937 1.011719,0 1.835938,0.820312 1.835938,1.835937 z m 0,0"
     id="path3085" />
  <path
     fill="none"
     stroke-width="0.562503"
     stroke-linecap="round"
     stroke-linejoin="miter"
     stroke="#000000"
     stroke-opacity="1"
     stroke-miterlimit="4"
     d="m 3.6249984,1.9453119 -1.761718,1.7695302 5.2851542,5.2851543 -5.2773422,5.2773416 1.7617181,1.761718 5.2773422,-5.277343 1.7656233,1.761718 3.51953,3.53125 L 15.957024,14.28515 12.433588,10.761713 10.675776,8.9999964 15.957024,3.7148421 14.195306,1.9453119 12.433588,3.7148421 10.675776,5.4765602 8.9101527,7.2382783 5.3867165,3.7148421 Z m 0,0"
     id="path3087" />
  <path
     fill-rule="nonzero"
     fill="#cb1414"
     fill-opacity="1"
     d="m 1.871094,14.277344 1.761718,-1.761719 1.765626,1.761719 -1.765626,1.761718 z m 0,0"
     id="path3089" />
  <path
     fill-rule="nonzero"
     fill="#ffffff"
     fill-opacity="1"
     d="m 3.625,12.523438 1.761719,-1.761719 1.761719,1.761719 -1.761719,1.761718 z m 0,0"
     id="path3091" />
  <path
     fill-rule="nonzero"
     fill="#cb1414"
     fill-opacity="1"
     d="M 5.386719,10.761719 7.148438,9 8.914062,10.761719 7.148438,12.523438 Z m 0,0"
     id="path3093" />
  <path
     fill-rule="nonzero"
     fill="#ffffff"
     fill-opacity="1"
     d="M 7.148438,9 8.914062,7.238281 10.675781,9 8.914062,10.761719 Z m 0,0"
     id="path3095" />
  <path
     fill-rule="nonzero"
     fill="#cb1414"
     fill-opacity="1"
     d="M 8.914062,7.238281 10.675781,5.476562 12.4375,7.238281 10.675781,9 Z m 0,0"
     id="path3097" />
  <path
     fill-rule="nonzero"
     fill="#ffffff"
     fill-opacity="1"
     d="M 10.675781,5.476562 12.4375,3.714844 14.195312,5.476562 12.4375,7.238281 Z m 0,0"
     id="path3099" />
  <path
     fill-rule="nonzero"
     fill="#cb1414"
     fill-opacity="1"
     d="m 12.4375,3.714844 1.757812,-1.761719 1.761719,1.761719 -1.761719,1.761718 z m 0,0"
     id="path3101" />
  <path
     fill-rule="nonzero"
     fill="#cb1414"
     fill-opacity="1"
     d="M 3.625,1.953125 5.386719,3.714844 3.625,5.476562 1.863281,3.714844 Z m 0,0"
     id="path3103" />
  <path
     fill-rule="nonzero"
     fill="#ffffff"
     fill-opacity="1"
     d="M 5.386719,3.714844 7.148438,5.476562 5.386719,7.238281 3.625,5.476562 Z m 0,0"
     id="path3105" />
  <path
     fill-rule="nonzero"
     fill="#cb1414"
     fill-opacity="1"
     d="M 7.148438,5.476562 8.914062,7.238281 7.148438,9 5.386719,7.238281 Z m 0,0"
     id="path3107" />
  <path
     fill-rule="nonzero"
     fill="#cb1414"
     fill-opacity="1"
     d="m 10.675781,9 1.757813,1.761719 -1.757813,1.761719 -1.761719,-1.761719 z m 0,0"
     id="path3109" />
  <path
     fill-rule="nonzero"
     fill="#ffffff"
     fill-opacity="1"
     d="m 12.4375,10.761719 1.757812,1.761719 -1.757812,1.761718 -1.761719,-1.761718 z m 0,0"
     id="path3111" />
  <path
     fill-rule="nonzero"
     fill="#cb1414"
     fill-opacity="1"
     d="m 14.195312,12.523438 1.761719,1.761718 -1.761719,1.761719 -1.761718,-1.761719 z m 0,0"
     id="path3113" />
</svg>
