<?xml version="1.0" encoding="UTF-8"?>
<svg xmlns="http://www.w3.org/2000/svg" xmlns:xlink="http://www.w3.org/1999/xlink" width="18" height="18" viewBox="0 0 18 18">
<path fill-rule="evenodd" fill="rgb(1.568627%, 1.568627%, 1.568627%)" fill-opacity="1" d="M 2.867188 4.886719 C 2.828125 4.902344 2.417969 5.292969 1.960938 5.753906 L 1.125 6.59375 L 1.125 6.90625 L 1.972656 7.757812 C 2.453125 8.234375 2.859375 8.617188 2.910156 8.628906 C 3.03125 8.660156 3.21875 8.589844 3.304688 8.484375 C 3.351562 8.421875 3.375 8.339844 3.375 8.234375 C 3.375 8.082031 3.367188 8.070312 2.910156 7.609375 L 2.449219 7.136719 L 15.554688 7.136719 L 15.089844 7.605469 C 14.632812 8.066406 14.625 8.078125 14.625 8.234375 C 14.625 8.339844 14.648438 8.421875 14.695312 8.484375 C 14.78125 8.59375 14.996094 8.667969 15.105469 8.625 C 15.203125 8.585938 16.71875 7.117188 16.808594 6.972656 C 16.894531 6.835938 16.894531 6.664062 16.808594 6.527344 C 16.707031 6.363281 15.230469 4.921875 15.121094 4.882812 C 14.996094 4.832031 14.789062 4.898438 14.695312 5.015625 C 14.648438 5.078125 14.625 5.160156 14.625 5.265625 C 14.625 5.417969 14.632812 5.429688 15.089844 5.890625 L 15.550781 6.363281 L 2.449219 6.363281 L 2.910156 5.890625 C 3.363281 5.433594 3.375 5.417969 3.375 5.265625 C 3.375 5.082031 3.300781 4.96875 3.144531 4.902344 C 3.011719 4.84375 2.964844 4.84375 2.867188 4.886719 M 1.347656 9.402344 C 1.117188 9.503906 1.125 9.441406 1.125 11.25 C 1.125 13.066406 1.117188 13 1.355469 13.097656 C 1.53125 13.171875 16.46875 13.171875 16.644531 13.097656 C 16.882812 13 16.875 13.066406 16.875 11.25 C 16.875 9.433594 16.882812 9.5 16.644531 9.402344 C 16.578125 9.375 16.429688 9.351562 16.3125 9.351562 L 16.101562 9.351562 L 16.101562 9.996094 C 16.101562 10.628906 16.101562 10.644531 16.015625 10.734375 C 15.863281 10.902344 15.636719 10.902344 15.484375 10.734375 C 15.398438 10.644531 15.398438 10.628906 15.398438 9.996094 L 15.398438 9.351562 L 14.625 9.351562 L 14.625 9.933594 C 14.625 10.589844 14.59375 10.71875 14.414062 10.8125 C 14.269531 10.886719 14.101562 10.855469 13.988281 10.738281 C 13.90625 10.648438 13.902344 10.628906 13.894531 10 L 13.882812 9.351562 L 13.117188 9.351562 L 13.105469 10 C 13.097656 10.628906 13.09375 10.648438 13.011719 10.738281 C 12.898438 10.855469 12.730469 10.886719 12.585938 10.8125 C 12.40625 10.71875 12.375 10.589844 12.375 9.933594 L 12.375 9.351562 L 11.601562 9.351562 L 11.601562 9.996094 C 11.601562 10.628906 11.601562 10.644531 11.515625 10.734375 C 11.363281 10.902344 11.136719 10.902344 10.984375 10.734375 C 10.898438 10.644531 10.898438 10.628906 10.898438 9.996094 L 10.898438 9.351562 L 10.125 9.351562 L 10.125 9.933594 C 10.125 10.589844 10.09375 10.71875 9.914062 10.8125 C 9.769531 10.886719 9.601562 10.855469 9.488281 10.738281 C 9.40625 10.648438 9.402344 10.628906 9.394531 10 L 9.382812 9.351562 L 8.617188 9.351562 L 8.605469 10 C 8.597656 10.628906 8.59375 10.648438 8.511719 10.738281 C 8.398438 10.855469 8.230469 10.886719 8.085938 10.8125 C 7.90625 10.71875 7.875 10.589844 7.875 9.933594 L 7.875 9.351562 L 7.101562 9.351562 L 7.101562 9.996094 C 7.101562 10.628906 7.101562 10.644531 7.015625 10.734375 C 6.863281 10.902344 6.636719 10.902344 6.484375 10.734375 C 6.398438 10.644531 6.398438 10.628906 6.398438 9.996094 L 6.398438 9.351562 L 5.625 9.351562 L 5.625 9.933594 C 5.625 10.589844 5.59375 10.71875 5.414062 10.8125 C 5.269531 10.886719 5.101562 10.855469 4.988281 10.738281 C 4.90625 10.648438 4.902344 10.628906 4.894531 10 L 4.882812 9.351562 L 4.117188 9.351562 L 4.105469 10 C 4.097656 10.628906 4.09375 10.648438 4.011719 10.738281 C 3.898438 10.855469 3.730469 10.886719 3.585938 10.8125 C 3.40625 10.71875 3.375 10.589844 3.375 9.933594 L 3.375 9.351562 L 2.601562 9.351562 L 2.601562 9.996094 C 2.601562 10.628906 2.601562 10.644531 2.515625 10.734375 C 2.417969 10.839844 2.289062 10.878906 2.160156 10.847656 C 2.109375 10.835938 2.03125 10.785156 1.984375 10.734375 C 1.898438 10.644531 1.898438 10.628906 1.898438 9.996094 L 1.898438 9.351562 L 1.679688 9.351562 C 1.558594 9.355469 1.410156 9.375 1.347656 9.402344 "/>
</svg>
