<?xml version="1.0" encoding="UTF-8"?>
<svg xmlns="http://www.w3.org/2000/svg" xmlns:xlink="http://www.w3.org/1999/xlink" width="16" height="8.428768" viewBox="0 0 16 8.428768">
<path fill-rule="evenodd" fill="rgb(1.568627%, 1.568627%, 1.568627%)" fill-opacity="1" d="M 1.769531 0.03125 C 1.730469 0.046875 1.3125 0.445312 0.847656 0.910156 L 0 1.765625 L 0 2.082031 L 0.859375 2.949219 C 1.347656 3.433594 1.761719 3.820312 1.8125 3.832031 C 1.9375 3.863281 2.128906 3.792969 2.214844 3.6875 C 2.261719 3.621094 2.285156 3.539062 2.285156 3.433594 C 2.285156 3.277344 2.277344 3.265625 1.8125 2.796875 L 1.34375 2.316406 L 14.660156 2.316406 L 14.1875 2.792969 C 13.722656 3.261719 13.714844 3.273438 13.714844 3.433594 C 13.714844 3.539062 13.738281 3.621094 13.785156 3.6875 C 13.871094 3.796875 14.089844 3.871094 14.203125 3.828125 C 14.300781 3.789062 15.839844 2.296875 15.933594 2.148438 C 16.019531 2.011719 16.019531 1.835938 15.933594 1.699219 C 15.828125 1.53125 14.328125 0.0664062 14.21875 0.0273438 C 14.089844 -0.0234375 13.882812 0.0429688 13.785156 0.160156 C 13.738281 0.226562 13.714844 0.308594 13.714844 0.414062 C 13.714844 0.570312 13.722656 0.582031 14.1875 1.050781 L 14.65625 1.53125 L 1.34375 1.53125 L 1.8125 1.050781 C 2.273438 0.585938 2.285156 0.570312 2.285156 0.414062 C 2.285156 0.230469 2.210938 0.113281 2.050781 0.046875 C 1.917969 -0.0117188 1.867188 -0.0117188 1.769531 0.03125 M 0.226562 4.617188 C -0.0078125 4.722656 0 4.65625 0 6.496094 C 0 8.339844 -0.0078125 8.273438 0.234375 8.371094 C 0.414062 8.449219 15.585938 8.449219 15.765625 8.371094 C 16.007812 8.273438 16 8.339844 16 6.496094 C 16 4.648438 16.007812 4.71875 15.765625 4.617188 C 15.699219 4.589844 15.546875 4.566406 15.429688 4.566406 L 15.214844 4.566406 L 15.214844 5.222656 C 15.214844 5.863281 15.214844 5.878906 15.128906 5.972656 C 14.972656 6.140625 14.742188 6.140625 14.585938 5.972656 C 14.5 5.878906 14.5 5.863281 14.5 5.222656 L 14.5 4.566406 L 13.714844 4.566406 L 13.714844 5.15625 C 13.714844 5.824219 13.683594 5.957031 13.5 6.050781 C 13.351562 6.125 13.183594 6.09375 13.066406 5.976562 C 12.984375 5.882812 12.980469 5.863281 12.972656 5.226562 L 12.960938 4.566406 L 12.183594 4.566406 L 12.171875 5.226562 C 12.164062 5.863281 12.160156 5.882812 12.074219 5.976562 C 11.960938 6.09375 11.789062 6.125 11.644531 6.050781 C 11.460938 5.957031 11.429688 5.824219 11.429688 5.15625 L 11.429688 4.566406 L 10.644531 4.566406 L 10.644531 5.222656 C 10.644531 5.863281 10.644531 5.878906 10.554688 5.972656 C 10.402344 6.140625 10.171875 6.140625 10.015625 5.972656 C 9.929688 5.878906 9.929688 5.863281 9.929688 5.222656 L 9.929688 4.566406 L 9.144531 4.566406 L 9.144531 5.15625 C 9.144531 5.824219 9.109375 5.957031 8.929688 6.050781 C 8.78125 6.125 8.609375 6.09375 8.496094 5.976562 C 8.414062 5.882812 8.410156 5.863281 8.402344 5.226562 L 8.390625 4.566406 L 7.609375 4.566406 L 7.597656 5.226562 C 7.589844 5.863281 7.585938 5.882812 7.503906 5.976562 C 7.390625 6.09375 7.21875 6.125 7.070312 6.050781 C 6.890625 5.957031 6.855469 5.824219 6.855469 5.15625 L 6.855469 4.566406 L 6.070312 4.566406 L 6.070312 5.222656 C 6.070312 5.863281 6.070312 5.878906 5.984375 5.972656 C 5.828125 6.140625 5.597656 6.140625 5.445312 5.972656 C 5.355469 5.878906 5.355469 5.863281 5.355469 5.222656 L 5.355469 4.566406 L 4.570312 4.566406 L 4.570312 5.15625 C 4.570312 5.824219 4.539062 5.957031 4.355469 6.050781 C 4.210938 6.125 4.039062 6.09375 3.925781 5.976562 C 3.839844 5.882812 3.835938 5.863281 3.828125 5.226562 L 3.816406 4.566406 L 3.039062 4.566406 L 3.027344 5.226562 C 3.019531 5.863281 3.015625 5.882812 2.933594 5.976562 C 2.816406 6.09375 2.648438 6.125 2.5 6.050781 C 2.316406 5.957031 2.285156 5.824219 2.285156 5.15625 L 2.285156 4.566406 L 1.5 4.566406 L 1.5 5.222656 C 1.5 5.863281 1.5 5.878906 1.414062 5.972656 C 1.3125 6.078125 1.183594 6.117188 1.050781 6.085938 C 1 6.074219 0.921875 6.023438 0.871094 5.972656 C 0.785156 5.878906 0.785156 5.863281 0.785156 5.222656 L 0.785156 4.566406 L 0.5625 4.566406 C 0.441406 4.570312 0.289062 4.589844 0.226562 4.617188 "/>
</svg>
