<?xml version="1.0" encoding="UTF-8"?>
<svg xmlns="http://www.w3.org/2000/svg" xmlns:xlink="http://www.w3.org/1999/xlink" width="20.121628" height="10" viewBox="0 0 20.121628 10">
<path fill-rule="nonzero" fill="rgb(0%, 0%, 0%)" fill-opacity="1" d="M 10.765625 0.0273438 L 10.765625 0.757812 L 11.527344 0.757812 C 11.84375 0.796875 11.769531 0.929688 11.804688 1.039062 L 11.804688 2.21875 L 12.742188 2.21875 L 12.742188 1.015625 C 12.707031 0.859375 12.765625 0.753906 12.921875 0.710938 L 13.703125 0.710938 L 13.703125 0 Z M 10.765625 0.0273438 "/>
<path fill-rule="nonzero" fill="rgb(0%, 0%, 0%)" fill-opacity="1" d="M 0 2.964844 C 0 2.964844 4.152344 7.523438 5.308594 8.65625 C 6.460938 9.792969 7.414062 9.972656 8.125 9.996094 C 8.832031 10.015625 13.351562 9.972656 14 9.972656 C 14.648438 9.972656 15.820312 9.222656 15.800781 8.453125 C 15.78125 7.683594 15.832031 4.40625 15.820312 4.199219 C 15.8125 3.996094 15.851562 3.988281 16.085938 3.976562 C 16.316406 3.96875 17.625 3.957031 17.96875 3.976562 C 18.3125 3.996094 18.980469 4.4375 18.980469 5.019531 C 18.980469 5.597656 19.0625 8.109375 19.0625 8.109375 L 20.117188 8.089844 C 20.117188 8.089844 20.136719 5.191406 20.097656 4.746094 C 20.054688 4.300781 19.40625 2.925781 18.171875 2.945312 C 16.9375 2.964844 10.917969 2.925781 9.804688 2.925781 C 8.691406 2.925781 8.367188 3.410156 8.082031 3.671875 C 7.800781 3.9375 7.191406 4.523438 6.988281 4.707031 C 6.785156 4.890625 6.484375 5.246094 5.855469 5.019531 C 5.226562 4.789062 1.15625 3.066406 0.6875 2.984375 C 0.222656 2.902344 0 2.964844 0 2.964844 Z M 0 2.964844 "/>
<path fill-rule="nonzero" fill="rgb(100%, 100%, 100%)" fill-opacity="1" d="M 11.355469 4.988281 C 11.355469 4.988281 10.46875 6.875 10.46875 7.433594 C 10.46875 7.992188 10.851562 8.234375 11.386719 8.234375 C 11.902344 8.234375 12.160156 7.890625 12.160156 7.390625 C 12.160156 6.800781 11.355469 4.988281 11.355469 4.988281 Z M 11.355469 4.988281 "/>
</svg>
