<?xml version="1.0" encoding="UTF-8"?>
<svg xmlns="http://www.w3.org/2000/svg" xmlns:xlink="http://www.w3.org/1999/xlink" width="14" height="14" viewBox="0 0 14 14">
<path fill-rule="nonzero" fill="rgb(0%, 0%, 0%)" fill-opacity="1" d="M 7 1 L 1 3 L 1 4 L 13 4 L 13 3 Z M 1 5 L 1 6 L 2 6 L 2 11 L 1 11 L 0 13 L 14 13 L 13 11 L 12 11 L 12 6 L 13 6 L 13 5 Z M 5 6 C 5.496094 6 6 6.53125 6 7 L 6 11 L 4 11 L 4 7 C 4 6.472656 4.503906 6 5 6 Z M 9 6 C 9.503906 6 10 6.472656 10 7 L 10 11 L 8 11 L 8 7 C 8 6.472656 8.496094 6 9 6 Z M 9 6 "/>
</svg>
