<?xml version="1.0" encoding="UTF-8"?>
<svg xmlns="http://www.w3.org/2000/svg" xmlns:xlink="http://www.w3.org/1999/xlink" width="16" height="16" viewBox="0 0 16 16">
<path fill-rule="nonzero" fill="rgb(100%, 100%, 100%)" fill-opacity="1" d="M 14.054688 8 C 14.054688 11.339844 11.339844 14.054688 8 14.054688 C 4.660156 14.054688 1.945312 11.339844 1.945312 8 C 1.945312 4.660156 4.660156 1.945312 8 1.945312 C 11.339844 1.945312 14.054688 4.660156 14.054688 8 Z M 14.054688 8 "/>
<path fill-rule="nonzero" fill="rgb(0%, 0%, 0%)" fill-opacity="1" d="M 0.945312 6.515625 L 14.835938 6.515625 L 14.835938 9.574219 L 0.945312 9.574219 Z M 0.945312 6.515625 "/>
<path fill-rule="nonzero" fill="rgb(40%, 40%, 40%)" fill-opacity="1" d="M 8 0 C 3.582031 0 0 3.582031 0 8 C 0 12.417969 3.582031 16 8 16 C 12.417969 16 16 12.417969 16 8 C 16 3.582031 12.417969 0 8 0 Z M 8 2.0625 C 11.277344 2.0625 13.9375 4.722656 13.9375 8 C 13.9375 11.277344 11.277344 13.9375 8 13.9375 C 4.722656 13.9375 2.0625 11.277344 2.0625 8 C 2.0625 4.722656 4.722656 2.0625 8 2.0625 Z M 8 2.0625 "/>
</svg>
