<?xml version="1.0" encoding="UTF-8"?>
<svg xmlns="http://www.w3.org/2000/svg" xmlns:xlink="http://www.w3.org/1999/xlink" width="11.846375" height="16" viewBox="0 0 11.846375 16">
<path fill-rule="nonzero" fill="rgb(100%, 100%, 100%)" fill-opacity="1" d="M 0 0 L 11.816406 0 L 11.816406 16 L 0 16 Z M 0 0 "/>
<path fill-rule="nonzero" fill="rgb(0%, 0%, 0%)" fill-opacity="1" d="M 7.746094 15.988281 C 6.527344 15.875 5.234375 15.082031 3.910156 13.636719 C 3.410156 13.09375 2.894531 12.445312 2.34375 11.660156 C 2.105469 11.320312 1.644531 10.632812 1.558594 10.480469 C 0.839844 9.261719 0.324219 7.386719 0.109375 5.210938 C 0.0273438 4.390625 -0.0195312 3.261719 0.0078125 2.894531 C 0.0429688 2.453125 0.125 2.121094 0.289062 1.777344 C 0.632812 1.066406 1.261719 0.554688 2.164062 0.25 C 2.519531 0.132812 2.96875 0.046875 3.355469 0.0195312 L 3.445312 0.015625 L 3.445312 0.0976562 C 3.445312 0.144531 3.464844 0.847656 3.492188 1.664062 C 3.515625 2.476562 3.539062 3.34375 3.546875 3.585938 C 3.554688 3.832031 3.5625 4.109375 3.566406 4.199219 C 3.570312 4.292969 3.574219 4.429688 3.574219 4.507812 L 3.574219 4.644531 L 3.460938 4.707031 C 3.03125 4.941406 2.792969 5.273438 2.734375 5.730469 C 2.707031 5.9375 2.734375 6.226562 2.804688 6.46875 C 2.84375 6.613281 3.34375 7.605469 4.050781 8.949219 C 4.828125 10.429688 5.289062 11.25 5.609375 11.714844 C 5.804688 12.003906 6.015625 12.164062 6.292969 12.242188 C 6.414062 12.273438 6.699219 12.28125 6.839844 12.253906 C 6.980469 12.226562 7.214844 12.144531 7.328125 12.085938 L 7.433594 12.03125 L 7.96875 12.449219 C 8.261719 12.683594 8.773438 13.082031 9.105469 13.34375 C 9.433594 13.601562 10.019531 14.0625 10.402344 14.363281 C 10.785156 14.660156 11.097656 14.910156 11.097656 14.914062 C 11.097656 14.929688 10.761719 15.125 10.5625 15.226562 C 9.996094 15.511719 9.285156 15.769531 8.617188 15.9375 C 8.378906 15.996094 8.054688 16.015625 7.746094 15.988281 Z M 9.820312 13.34375 C 8.898438 12.609375 8.054688 11.9375 7.945312 11.851562 C 7.832031 11.761719 7.753906 11.691406 7.757812 11.683594 C 7.765625 11.679688 7.988281 11.558594 8.253906 11.414062 L 8.742188 11.15625 L 8.828125 11.15625 C 9.003906 11.164062 9.21875 11.253906 9.46875 11.433594 C 9.710938 11.605469 10.332031 12.082031 10.941406 12.558594 C 11.121094 12.699219 11.339844 12.875 11.433594 12.945312 C 11.632812 13.105469 11.714844 13.191406 11.773438 13.304688 C 11.832031 13.414062 11.851562 13.507812 11.84375 13.59375 C 11.835938 13.6875 11.527344 14.675781 11.507812 14.675781 C 11.503906 14.675781 10.742188 14.074219 9.820312 13.339844 Z M 4.015625 4.535156 C 3.988281 4.511719 3.980469 4.488281 3.972656 4.417969 C 3.933594 4.105469 3.898438 3.015625 3.871094 1.320312 C 3.867188 0.859375 3.859375 0.375 3.855469 0.246094 L 3.851562 0.0117188 L 3.90625 0.00390625 C 4.179688 -0.0351562 4.726562 0.199219 4.976562 0.460938 C 5.121094 0.613281 5.113281 0.582031 5.125 1.117188 C 5.136719 1.808594 5.160156 3.398438 5.160156 3.65625 L 5.160156 3.878906 L 5.039062 4.019531 C 4.882812 4.207031 4.773438 4.304688 4.640625 4.382812 C 4.355469 4.542969 4.097656 4.605469 4.015625 4.535156 Z M 4.015625 4.535156 "/>
</svg>
