<?xml version="1.0" encoding="UTF-8"?>
<svg xmlns="http://www.w3.org/2000/svg" xmlns:xlink="http://www.w3.org/1999/xlink" width="12" height="16.207489" viewBox="0 0 12 16.207489">
<path fill-rule="nonzero" fill="rgb(0%, 0%, 0%)" fill-opacity="1" d="M 7.847656 16.195312 C 6.613281 16.082031 5.300781 15.277344 3.960938 13.8125 C 3.453125 13.261719 2.933594 12.605469 2.375 11.8125 C 2.132812 11.46875 1.664062 10.769531 1.578125 10.617188 C 0.851562 9.382812 0.328125 7.484375 0.109375 5.277344 C 0.0273438 4.449219 -0.0195312 3.304688 0.0078125 2.933594 C 0.0429688 2.484375 0.125 2.148438 0.292969 1.800781 C 0.640625 1.082031 1.277344 0.5625 2.191406 0.253906 C 2.550781 0.132812 3.007812 0.046875 3.398438 0.0195312 L 3.488281 0.015625 L 3.488281 0.0976562 C 3.488281 0.144531 3.511719 0.859375 3.539062 1.6875 C 3.5625 2.507812 3.585938 3.386719 3.59375 3.632812 C 3.601562 3.882812 3.609375 4.164062 3.613281 4.253906 C 3.617188 4.347656 3.621094 4.488281 3.621094 4.566406 L 3.621094 4.703125 L 3.503906 4.769531 C 3.070312 5.003906 2.828125 5.34375 2.769531 5.804688 C 2.742188 6.015625 2.769531 6.308594 2.839844 6.550781 C 2.878906 6.699219 3.386719 7.703125 4.101562 9.066406 C 4.890625 10.566406 5.359375 11.394531 5.683594 11.867188 C 5.878906 12.160156 6.09375 12.320312 6.375 12.402344 C 6.496094 12.433594 6.785156 12.441406 6.929688 12.414062 C 7.070312 12.386719 7.308594 12.300781 7.421875 12.242188 L 7.53125 12.1875 L 8.070312 12.609375 C 8.367188 12.847656 8.886719 13.25 9.222656 13.515625 C 9.554688 13.777344 10.148438 14.246094 10.539062 14.550781 C 10.925781 14.851562 11.242188 15.101562 11.242188 15.109375 C 11.242188 15.125 10.902344 15.320312 10.699219 15.425781 C 10.125 15.710938 9.40625 15.972656 8.730469 16.144531 C 8.488281 16.203125 8.160156 16.222656 7.847656 16.195312 Z M 9.949219 13.515625 C 9.015625 12.773438 8.160156 12.09375 8.046875 12.003906 C 7.933594 11.914062 7.855469 11.84375 7.859375 11.835938 C 7.867188 11.832031 8.09375 11.707031 8.359375 11.5625 L 8.855469 11.300781 L 8.941406 11.300781 C 9.121094 11.308594 9.339844 11.398438 9.589844 11.582031 C 9.835938 11.757812 10.464844 12.238281 11.082031 12.722656 C 11.265625 12.863281 11.488281 13.042969 11.582031 13.113281 C 11.785156 13.277344 11.867188 13.363281 11.925781 13.476562 C 11.984375 13.589844 12.003906 13.683594 11.996094 13.769531 C 11.988281 13.863281 11.675781 14.867188 11.65625 14.867188 C 11.652344 14.867188 10.882812 14.257812 9.949219 13.511719 Z M 4.066406 4.59375 C 4.039062 4.570312 4.03125 4.546875 4.023438 4.476562 C 3.984375 4.160156 3.949219 3.054688 3.921875 1.335938 C 3.917969 0.871094 3.910156 0.378906 3.90625 0.25 L 3.902344 0.0117188 L 3.957031 0.00390625 C 4.234375 -0.0351562 4.789062 0.203125 5.042969 0.46875 C 5.1875 0.621094 5.179688 0.589844 5.191406 1.132812 C 5.203125 1.832031 5.226562 3.441406 5.226562 3.703125 L 5.226562 3.929688 L 5.105469 4.070312 C 4.945312 4.261719 4.835938 4.359375 4.699219 4.441406 C 4.410156 4.601562 4.152344 4.664062 4.066406 4.59375 Z M 4.066406 4.59375 "/>
</svg>
