<?xml version="1.0" encoding="UTF-8"?>
<svg xmlns="http://www.w3.org/2000/svg" xmlns:xlink="http://www.w3.org/1999/xlink" width="10" height="13.766053" viewBox="0 0 10 13.766053">
<path fill-rule="evenodd" fill="rgb(1.568627%, 1.568627%, 1.568627%)" fill-opacity="1" d="M 4.023438 0.371094 C 3.941406 1.726562 3.632812 2.882812 3.050781 4.035156 C 2.84375 4.453125 2.300781 5.324219 2.265625 5.292969 C 2.261719 5.285156 2.203125 5.125 2.140625 4.9375 C 2.039062 4.636719 1.6875 3.921875 1.558594 3.742188 C 1.5 3.660156 1.515625 3.601562 1.371094 4.316406 C 1.199219 5.15625 1.039062 5.597656 0.625 6.425781 C 0.328125 7.035156 0.191406 7.402344 0.0820312 7.910156 C -0.0195312 8.371094 -0.0273438 9.347656 0.0625 9.804688 C 0.269531 10.835938 0.734375 11.691406 1.476562 12.421875 C 1.773438 12.710938 2.144531 12.992188 2.484375 13.1875 C 2.722656 13.324219 3.746094 13.78125 3.769531 13.761719 C 3.777344 13.753906 3.671875 13.574219 3.542969 13.359375 C 3.113281 12.65625 2.953125 12.214844 2.882812 11.570312 C 2.816406 10.953125 2.90625 10.398438 3.199219 9.695312 C 3.527344 8.882812 3.707031 8.101562 3.710938 7.472656 C 3.710938 7.34375 3.726562 7.25 3.742188 7.25 C 3.785156 7.25 3.953125 7.507812 4.085938 7.792969 C 4.261719 8.167969 4.363281 8.527344 4.4375 9.105469 C 4.480469 9.398438 4.523438 9.652344 4.539062 9.671875 C 4.570312 9.707031 5.011719 8.804688 5.136719 8.445312 C 5.308594 7.972656 5.367188 7.582031 5.367188 6.988281 C 5.367188 6.414062 5.308594 6.027344 5.164062 5.59375 L 5.097656 5.402344 L 5.289062 5.566406 C 5.6875 5.910156 6.183594 6.53125 6.472656 7.046875 C 7.304688 8.527344 7.484375 10.246094 6.972656 11.847656 C 6.824219 12.308594 6.679688 12.625 6.339844 13.226562 C 6.179688 13.515625 6.054688 13.757812 6.0625 13.765625 C 6.078125 13.785156 7.09375 13.214844 7.375 13.027344 C 8.847656 12.03125 9.761719 10.484375 9.976562 8.636719 C 10.023438 8.214844 9.996094 7.277344 9.925781 6.804688 C 9.753906 5.714844 9.320312 4.5625 8.753906 3.691406 C 8.507812 3.316406 7.953125 2.574219 7.921875 2.570312 C 7.90625 2.570312 7.894531 2.828125 7.894531 3.136719 C 7.894531 3.609375 7.886719 3.75 7.828125 3.953125 C 7.765625 4.183594 7.632812 4.472656 7.507812 4.65625 L 7.445312 4.746094 L 7.371094 4.421875 C 7.015625 2.898438 6.097656 1.46875 4.867188 0.53125 C 4.59375 0.320312 4.113281 0 4.074219 0 C 4.058594 0 4.035156 0.167969 4.023438 0.371094 "/>
</svg>
