<?xml version="1.0" encoding="UTF-8"?>
<svg xmlns="http://www.w3.org/2000/svg" xmlns:xlink="http://www.w3.org/1999/xlink" width="18" height="18" viewBox="0 0 18 18">
<path fill-rule="evenodd" fill="rgb(1.568627%, 1.568627%, 1.568627%)" fill-opacity="1" d="M 7.964844 2.082031 C 7.875 3.527344 7.546875 4.761719 6.925781 5.992188 C 6.703125 6.4375 6.125 7.367188 6.089844 7.332031 C 6.082031 7.324219 6.019531 7.152344 5.953125 6.953125 C 5.847656 6.632812 5.472656 5.871094 5.332031 5.679688 C 5.269531 5.59375 5.289062 5.53125 5.132812 6.292969 C 4.949219 7.1875 4.78125 7.660156 4.339844 8.542969 C 4.019531 9.191406 3.875 9.582031 3.757812 10.125 C 3.652344 10.617188 3.640625 11.660156 3.738281 12.144531 C 3.960938 13.246094 4.453125 14.160156 5.246094 14.9375 C 5.5625 15.246094 5.957031 15.546875 6.320312 15.753906 C 6.574219 15.898438 7.667969 16.386719 7.691406 16.367188 C 7.699219 16.359375 7.589844 16.167969 7.449219 15.9375 C 6.992188 15.1875 6.820312 14.71875 6.746094 14.03125 C 6.675781 13.371094 6.773438 12.78125 7.082031 12.027344 C 7.433594 11.164062 7.625 10.328125 7.628906 9.660156 C 7.628906 9.519531 7.644531 9.421875 7.664062 9.421875 C 7.710938 9.421875 7.886719 9.695312 8.03125 10 C 8.21875 10.398438 8.324219 10.785156 8.40625 11.398438 C 8.449219 11.710938 8.496094 11.984375 8.511719 12.003906 C 8.546875 12.042969 9.015625 11.078125 9.152344 10.695312 C 9.332031 10.191406 9.398438 9.773438 9.398438 9.140625 C 9.398438 8.53125 9.335938 8.117188 9.179688 7.652344 L 9.109375 7.449219 L 9.3125 7.625 C 9.738281 7.992188 10.265625 8.65625 10.574219 9.203125 C 11.464844 10.785156 11.65625 12.617188 11.109375 14.324219 C 10.949219 14.816406 10.796875 15.15625 10.433594 15.796875 C 10.261719 16.105469 10.128906 16.363281 10.136719 16.371094 C 10.15625 16.390625 11.238281 15.785156 11.539062 15.582031 C 13.109375 14.519531 14.085938 12.871094 14.3125 10.898438 C 14.363281 10.449219 14.335938 9.449219 14.257812 8.945312 C 14.074219 7.785156 13.613281 6.554688 13.007812 5.625 C 12.746094 5.226562 12.15625 4.433594 12.121094 4.429688 C 12.105469 4.429688 12.09375 4.703125 12.09375 5.035156 C 12.09375 5.539062 12.082031 5.6875 12.023438 5.902344 C 11.953125 6.148438 11.8125 6.457031 11.679688 6.652344 L 11.613281 6.75 L 11.535156 6.40625 C 11.15625 4.777344 10.175781 3.253906 8.863281 2.253906 C 8.570312 2.027344 8.058594 1.6875 8.015625 1.6875 C 8 1.6875 7.976562 1.867188 7.964844 2.082031 "/>
</svg>
