<?xml version="1.0" encoding="UTF-8"?>
<svg xmlns="http://www.w3.org/2000/svg" xmlns:xlink="http://www.w3.org/1999/xlink" width="13" height="19.492453" viewBox="0 0 13 19.492453">
<path fill-rule="nonzero" fill="rgb(14.117647%, 14.117647%, 14.117647%)" fill-opacity="1" d="M 5.398438 2.316406 L 7.988281 2.316406 L 7.988281 19.496094 L 5.398438 19.496094 Z M 5.398438 2.316406 "/>
<path fill="none" stroke-width="0.990818" stroke-linecap="round" stroke-linejoin="round" stroke="rgb(0%, 0%, 0%)" stroke-opacity="1" stroke-miterlimit="4" d="M 7.127988 2.130583 C 7.852207 3.500888 7.882257 4.42945 7.127988 5.394072 " transform="matrix(1.299893, 0, 0, 1.299893, 0, 0)"/>
<path fill="none" stroke-width="0.990818" stroke-linecap="round" stroke-linejoin="round" stroke="rgb(0%, 0%, 0%)" stroke-opacity="1" stroke-miterlimit="4" d="M 8.396121 0.495834 C 9.844557 3.233438 9.907664 5.102582 8.396121 7.028822 " transform="matrix(1.299893, 0, 0, 1.299893, 0, 0)"/>
<path fill="none" stroke-width="0.990818" stroke-linecap="round" stroke-linejoin="round" stroke="rgb(0%, 0%, 0%)" stroke-opacity="1" stroke-miterlimit="4" d="M 2.869827 2.130583 C 2.148614 3.500888 2.118563 4.42945 2.869827 5.394072 " transform="matrix(1.299893, 0, 0, 1.299893, 0, 0)"/>
<path fill="none" stroke-width="0.990818" stroke-linecap="round" stroke-linejoin="round" stroke="rgb(0%, 0%, 0%)" stroke-opacity="1" stroke-miterlimit="4" d="M 1.604699 0.495834 C 0.156263 3.233438 0.0931567 5.102582 1.604699 7.028822 " transform="matrix(1.299893, 0, 0, 1.299893, 0, 0)"/>
</svg>
