<?xml version="1.0" encoding="UTF-8"?>
<svg xmlns="http://www.w3.org/2000/svg" xmlns:xlink="http://www.w3.org/1999/xlink" width="10.000012" height="15" viewBox="0 0 10.000012 15">
<path fill-rule="nonzero" fill="rgb(100%, 100%, 100%)" fill-opacity="1" d="M 0 0 L 10 0 L 10 15 L 0 15 Z M 0 0 "/>
<path fill-rule="nonzero" fill="rgb(14.117648%, 14.117648%, 14.117648%)" fill-opacity="1" d="M 4.152344 1.785156 L 6.144531 1.785156 L 6.144531 15 L 4.152344 15 Z M 4.152344 1.785156 "/>
<path fill="none" stroke-width="0.524307" stroke-linecap="round" stroke-linejoin="round" stroke="rgb(0%, 0%, 0%)" stroke-opacity="1" stroke-miterlimit="4" d="M 4.344425 290.905437 C 4.72683 291.630973 4.743367 292.122932 4.344425 292.633495 " transform="matrix(1.889766, 0, 0, 1.889766, -1.081041, -547.610406)"/>
<path fill="none" stroke-width="0.524307" stroke-linecap="round" stroke-linejoin="round" stroke="rgb(0%, 0%, 0%)" stroke-opacity="1" stroke-miterlimit="4" d="M 5.014151 290.041408 C 5.781028 291.490413 5.814101 292.478466 5.014151 293.497524 " transform="matrix(1.889766, 0, 0, 1.889766, -1.081041, -547.610406)"/>
<path fill="none" stroke-width="0.524307" stroke-linecap="round" stroke-linejoin="round" stroke="rgb(0%, 0%, 0%)" stroke-opacity="1" stroke-miterlimit="4" d="M 2.091336 290.905437 C 1.70893 291.630973 1.692394 292.122932 2.091336 292.633495 " transform="matrix(1.889766, 0, 0, 1.889766, -1.081041, -547.610406)"/>
<path fill="none" stroke-width="0.524307" stroke-linecap="round" stroke-linejoin="round" stroke="rgb(0%, 0%, 0%)" stroke-opacity="1" stroke-miterlimit="4" d="M 1.42161 290.041408 C 0.654732 291.490413 0.62166 292.478466 1.42161 293.497524 " transform="matrix(1.889766, 0, 0, 1.889766, -1.081041, -547.610406)"/>
</svg>
