<?xml version="1.0" encoding="UTF-8"?>
<svg xmlns="http://www.w3.org/2000/svg" xmlns:xlink="http://www.w3.org/1999/xlink" width="16" height="16" viewBox="0 0 16 16">
<path fill-rule="nonzero" fill="rgb(0%, 0%, 0%)" fill-opacity="1" d="M 0.460938 0 L 0.738281 0 C 0.992188 0 1.199219 0.277344 1.199219 0.617188 L 1.199219 15.382812 C 1.199219 15.722656 0.992188 16 0.738281 16 L 0.460938 16 C 0.207031 16 0 15.722656 0 15.382812 L 0 0.617188 C 0 0.277344 0.207031 0 0.460938 0 Z M 0.460938 0 "/>
<path fill-rule="nonzero" fill="rgb(0%, 0%, 0%)" fill-opacity="1" d="M 3.1875 0 L 3.46875 0 C 3.722656 0 3.929688 0.277344 3.929688 0.617188 L 3.929688 15.382812 C 3.929688 15.722656 3.722656 16 3.46875 16 L 3.1875 16 C 2.9375 16 2.730469 15.722656 2.730469 15.382812 L 2.730469 0.617188 C 2.730469 0.277344 2.9375 0 3.1875 0 Z M 3.1875 0 "/>
<path fill-rule="nonzero" fill="rgb(0%, 0%, 0%)" fill-opacity="1" d="M 12.53125 0 L 12.8125 0 C 13.066406 0 13.273438 0.277344 13.273438 0.617188 L 13.273438 15.382812 C 13.273438 15.722656 13.066406 16 12.8125 16 L 12.53125 16 C 12.277344 16 12.070312 15.722656 12.070312 15.382812 L 12.070312 0.617188 C 12.070312 0.277344 12.277344 0 12.53125 0 Z M 12.53125 0 "/>
<path fill-rule="nonzero" fill="rgb(0%, 0%, 0%)" fill-opacity="1" d="M 15.261719 0 L 15.542969 0 C 15.796875 0 16.003906 0.277344 16.003906 0.617188 L 16.003906 15.382812 C 16.003906 15.722656 15.796875 16 15.542969 16 L 15.261719 16 C 15.007812 16 14.800781 15.722656 14.800781 15.382812 L 14.800781 0.617188 C 14.800781 0.277344 15.007812 0 15.261719 0 Z M 15.261719 0 "/>
</svg>
