<?xml version="1.0" encoding="UTF-8"?>
<svg xmlns="http://www.w3.org/2000/svg" xmlns:xlink="http://www.w3.org/1999/xlink" width="16" height="12.223371" viewBox="0 0 16 12.223371">
<path fill-rule="evenodd" fill="rgb(1.568627%, 1.568627%, 1.568627%)" fill-opacity="1" d="M 7.5 0.0429688 C 6.128906 0.347656 4.769531 1.695312 3.296875 4.207031 C 2.34375 5.839844 1.328125 8.035156 0.449219 10.382812 C -0.03125 11.667969 -0.0664062 11.808594 0.0703125 12.007812 C 0.109375 12.066406 0.191406 12.140625 0.25 12.167969 C 0.351562 12.21875 0.785156 12.222656 7.984375 12.222656 C 15.183594 12.222656 15.617188 12.21875 15.71875 12.167969 C 15.882812 12.089844 15.996094 11.898438 16 11.714844 C 16 11.628906 15.988281 11.570312 15.976562 11.582031 C 15.957031 11.589844 15.921875 11.515625 15.890625 11.417969 C 15.863281 11.324219 15.710938 10.90625 15.558594 10.492188 C 14.65625 8.078125 13.648438 5.878906 12.667969 4.207031 C 11.007812 1.367188 9.464844 -0.015625 7.964844 0 C 7.8125 0 7.601562 0.0195312 7.5 0.0429688 M 8.746094 2.878906 C 8.695312 2.902344 8.609375 2.964844 8.5625 3.027344 C 8.488281 3.121094 8.476562 3.148438 8.488281 3.308594 C 8.5 3.46875 8.519531 3.507812 8.613281 3.605469 C 8.894531 3.886719 9.367188 3.695312 9.367188 3.296875 C 9.367188 2.972656 9.042969 2.75 8.746094 2.878906 M 5.90625 3.832031 C 5.769531 3.902344 5.644531 4.085938 5.644531 4.210938 C 5.648438 4.339844 5.761719 4.546875 5.871094 4.613281 C 5.949219 4.664062 6.007812 4.675781 6.140625 4.664062 C 6.292969 4.65625 6.324219 4.640625 6.429688 4.527344 C 6.535156 4.410156 6.550781 4.378906 6.550781 4.25 C 6.550781 3.886719 6.214844 3.671875 5.90625 3.832031 M 7.84375 4.738281 C 7.488281 4.851562 7.425781 5.355469 7.746094 5.546875 C 8.035156 5.730469 8.429688 5.519531 8.429688 5.1875 C 8.429688 4.871094 8.136719 4.648438 7.84375 4.738281 M 10.605469 4.921875 C 10.308594 5.078125 10.269531 5.433594 10.523438 5.667969 C 10.636719 5.777344 10.890625 5.792969 11.035156 5.707031 C 11.160156 5.628906 11.257812 5.46875 11.257812 5.347656 C 11.257812 5.195312 11.148438 5.003906 11.011719 4.933594 C 10.863281 4.847656 10.746094 4.84375 10.605469 4.921875 M 8.675781 6.675781 C 8.550781 6.757812 8.484375 6.882812 8.484375 7.046875 C 8.484375 7.308594 8.667969 7.492188 8.925781 7.492188 C 9.269531 7.492188 9.472656 7.144531 9.3125 6.835938 C 9.199219 6.617188 8.886719 6.539062 8.675781 6.675781 M 4.960938 6.835938 C 4.648438 7 4.628906 7.398438 4.925781 7.601562 C 5.191406 7.777344 5.570312 7.605469 5.605469 7.285156 C 5.648438 6.910156 5.289062 6.65625 4.960938 6.835938 M 10.585938 7.605469 C 10.433594 7.695312 10.355469 7.820312 10.355469 7.957031 C 10.355469 8.328125 10.695312 8.546875 11.007812 8.378906 C 11.238281 8.253906 11.316406 8.019531 11.203125 7.792969 C 11.089844 7.566406 10.792969 7.476562 10.585938 7.605469 M 6.835938 8.527344 C 6.550781 8.679688 6.507812 9.042969 6.753906 9.257812 C 6.953125 9.4375 7.171875 9.421875 7.371094 9.226562 C 7.488281 9.109375 7.492188 9.101562 7.476562 8.917969 C 7.46875 8.75 7.449219 8.710938 7.351562 8.617188 C 7.261719 8.527344 7.214844 8.5 7.089844 8.492188 C 6.988281 8.484375 6.90625 8.496094 6.835938 8.527344 M 4.023438 9.472656 C 3.710938 9.628906 3.695312 10.054688 3.988281 10.25 C 4.261719 10.429688 4.679688 10.214844 4.679688 9.886719 C 4.679688 9.539062 4.328125 9.316406 4.023438 9.472656 M 12.480469 9.472656 C 12.25 9.585938 12.171875 9.835938 12.285156 10.0625 C 12.363281 10.222656 12.464844 10.292969 12.636719 10.308594 C 12.992188 10.34375 13.234375 9.984375 13.074219 9.664062 C 12.964844 9.441406 12.699219 9.355469 12.480469 9.472656 M 9.652344 9.601562 C 9.492188 9.695312 9.417969 9.8125 9.417969 9.972656 C 9.417969 10.222656 9.574219 10.402344 9.820312 10.433594 C 10.054688 10.464844 10.324219 10.234375 10.324219 10.003906 C 10.320312 9.875 10.207031 9.667969 10.097656 9.601562 C 9.96875 9.523438 9.777344 9.523438 9.652344 9.601562 M 0.0078125 11.753906 C 0.0078125 11.847656 0.0117188 11.886719 0.0195312 11.84375 C 0.03125 11.792969 0.03125 11.71875 0.0195312 11.667969 C 0.0117188 11.625 0.0078125 11.660156 0.0078125 11.753906 "/>
</svg>
