<?xml version="1.0" encoding="UTF-8"?>
<svg xmlns="http://www.w3.org/2000/svg" xmlns:xlink="http://www.w3.org/1999/xlink" width="18" height="18" viewBox="0 0 18 18">
<path fill-rule="evenodd" fill="rgb(1.568627%, 1.568627%, 1.568627%)" fill-opacity="1" d="M 8.453125 2.160156 C 6.910156 2.503906 5.375 4.023438 3.71875 6.855469 C 2.644531 8.695312 1.5 11.171875 0.507812 13.816406 C -0.0351562 15.265625 -0.0742188 15.421875 0.078125 15.648438 C 0.125 15.714844 0.214844 15.796875 0.28125 15.828125 C 0.398438 15.886719 0.886719 15.890625 9 15.890625 C 17.113281 15.890625 17.601562 15.886719 17.71875 15.828125 C 17.902344 15.738281 18.03125 15.523438 18.035156 15.316406 C 18.035156 15.222656 18.023438 15.15625 18.007812 15.167969 C 17.988281 15.175781 17.949219 15.09375 17.914062 14.984375 C 17.878906 14.875 17.710938 14.40625 17.539062 13.941406 C 16.519531 11.21875 15.382812 8.738281 14.28125 6.855469 C 12.410156 3.65625 10.667969 2.097656 8.976562 2.113281 C 8.804688 2.113281 8.570312 2.136719 8.453125 2.160156 M 9.859375 5.359375 C 9.800781 5.382812 9.707031 5.457031 9.652344 5.523438 C 9.566406 5.628906 9.554688 5.660156 9.570312 5.84375 C 9.582031 6.023438 9.601562 6.066406 9.710938 6.175781 C 10.027344 6.492188 10.558594 6.277344 10.558594 5.828125 C 10.558594 5.464844 10.191406 5.214844 9.859375 5.359375 M 6.660156 6.433594 C 6.503906 6.511719 6.363281 6.71875 6.363281 6.859375 C 6.367188 7.003906 6.496094 7.238281 6.617188 7.3125 C 6.707031 7.371094 6.773438 7.382812 6.921875 7.371094 C 7.09375 7.359375 7.128906 7.34375 7.246094 7.214844 C 7.367188 7.085938 7.382812 7.046875 7.382812 6.902344 C 7.382812 6.496094 7.007812 6.253906 6.660156 6.433594 M 8.84375 7.453125 C 8.441406 7.582031 8.371094 8.148438 8.730469 8.367188 C 9.058594 8.570312 9.503906 8.335938 9.503906 7.960938 C 9.503906 7.605469 9.171875 7.351562 8.84375 7.453125 M 11.953125 7.660156 C 11.621094 7.835938 11.578125 8.238281 11.863281 8.503906 C 11.988281 8.625 12.277344 8.644531 12.4375 8.546875 C 12.578125 8.457031 12.691406 8.277344 12.691406 8.140625 C 12.691406 7.96875 12.566406 7.753906 12.414062 7.671875 C 12.246094 7.578125 12.113281 7.574219 11.953125 7.660156 M 9.78125 9.636719 C 9.636719 9.730469 9.5625 9.871094 9.5625 10.054688 C 9.5625 10.351562 9.769531 10.558594 10.0625 10.558594 C 10.449219 10.558594 10.679688 10.167969 10.496094 9.816406 C 10.371094 9.570312 10.019531 9.484375 9.78125 9.636719 M 5.59375 9.816406 C 5.238281 10.003906 5.21875 10.453125 5.550781 10.679688 C 5.851562 10.878906 6.277344 10.683594 6.320312 10.324219 C 6.367188 9.902344 5.960938 9.617188 5.59375 9.816406 M 11.933594 10.683594 C 11.761719 10.789062 11.671875 10.925781 11.671875 11.082031 C 11.671875 11.5 12.054688 11.746094 12.40625 11.558594 C 12.667969 11.417969 12.757812 11.152344 12.628906 10.898438 C 12.5 10.640625 12.167969 10.539062 11.933594 10.683594 M 7.707031 11.726562 C 7.382812 11.894531 7.335938 12.304688 7.613281 12.546875 C 7.839844 12.75 8.085938 12.734375 8.308594 12.511719 C 8.441406 12.378906 8.445312 12.371094 8.429688 12.164062 C 8.417969 11.976562 8.398438 11.933594 8.289062 11.824219 C 8.1875 11.722656 8.132812 11.695312 7.992188 11.683594 C 7.878906 11.675781 7.785156 11.6875 7.707031 11.726562 M 4.535156 12.789062 C 4.183594 12.964844 4.164062 13.445312 4.496094 13.667969 C 4.804688 13.871094 5.273438 13.625 5.273438 13.257812 C 5.273438 12.863281 4.878906 12.613281 4.535156 12.789062 M 14.066406 12.789062 C 13.808594 12.917969 13.71875 13.199219 13.847656 13.457031 C 13.9375 13.636719 14.050781 13.714844 14.246094 13.734375 C 14.644531 13.773438 14.917969 13.367188 14.738281 13.007812 C 14.613281 12.753906 14.316406 12.660156 14.066406 12.789062 M 10.878906 12.933594 C 10.699219 13.042969 10.617188 13.171875 10.617188 13.355469 C 10.617188 13.636719 10.792969 13.839844 11.070312 13.875 C 11.335938 13.910156 11.636719 13.648438 11.636719 13.390625 C 11.632812 13.242188 11.503906 13.011719 11.382812 12.9375 C 11.238281 12.847656 11.019531 12.847656 10.878906 12.933594 M 0.0117188 15.363281 C 0.0117188 15.46875 0.015625 15.511719 0.0234375 15.460938 C 0.0351562 15.40625 0.0351562 15.320312 0.0234375 15.265625 C 0.015625 15.214844 0.0117188 15.257812 0.0117188 15.363281 "/>
</svg>
