<?xml version="1.0" encoding="UTF-8"?>
<svg xmlns="http://www.w3.org/2000/svg" xmlns:xlink="http://www.w3.org/1999/xlink" width="16" height="16" viewBox="0 0 16 16">
<path fill-rule="nonzero" fill="rgb(0%, 0%, 0%)" fill-opacity="1" d="M 4.078125 13.832031 C 3.574219 13.832031 3.09375 13.632812 2.726562 13.273438 C 2.367188 12.914062 2.167969 12.429688 2.167969 11.921875 C 2.167969 11.417969 2.367188 10.929688 2.726562 10.574219 L 6.398438 6.898438 C 6.066406 5.605469 6.425781 4.214844 7.375 3.265625 C 8.328125 2.3125 9.722656 1.941406 11.027344 2.292969 C 11.199219 2.339844 11.332031 2.472656 11.378906 2.648438 C 11.425781 2.820312 11.378906 3 11.253906 3.125 L 9.621094 4.761719 L 9.964844 6.035156 L 11.238281 6.378906 L 12.875 4.746094 C 13 4.621094 13.1875 4.574219 13.351562 4.621094 C 13.527344 4.667969 13.660156 4.800781 13.707031 4.972656 C 14.058594 6.273438 13.691406 7.671875 12.734375 8.625 C 11.785156 9.574219 10.394531 9.933594 9.101562 9.601562 L 5.425781 13.273438 C 5.066406 13.632812 4.585938 13.832031 4.078125 13.832031 Z M 9.785156 3.179688 C 9.148438 3.234375 8.539062 3.511719 8.074219 3.980469 C 7.3125 4.738281 7.066406 5.851562 7.433594 6.878906 C 7.5 7.058594 7.453125 7.265625 7.3125 7.398438 L 3.425781 11.285156 C 3.074219 11.640625 3.074219 12.21875 3.425781 12.574219 C 3.601562 12.746094 3.828125 12.839844 4.074219 12.839844 C 4.3125 12.839844 4.546875 12.746094 4.714844 12.574219 L 8.601562 8.6875 C 8.738281 8.546875 8.941406 8.507812 9.121094 8.566406 C 10.148438 8.925781 11.261719 8.6875 12.019531 7.925781 C 12.488281 7.460938 12.761719 6.851562 12.820312 6.214844 L 11.734375 7.300781 C 11.605469 7.425781 11.421875 7.472656 11.246094 7.425781 L 9.421875 6.925781 C 9.246094 6.878906 9.113281 6.746094 9.066406 6.574219 L 8.566406 4.746094 C 8.519531 4.574219 8.566406 4.386719 8.691406 4.261719 L 9.78125 3.171875 Z M 9.785156 3.179688 "/>
</svg>
