<?xml version="1.0" encoding="UTF-8"?>
<svg xmlns="http://www.w3.org/2000/svg" xmlns:xlink="http://www.w3.org/1999/xlink" width="18" height="17.119019" viewBox="0 0 18 17.119019">
<path fill="none" stroke-width="0.82332" stroke-linecap="butt" stroke-linejoin="miter" stroke="rgb(34.901961%, 34.901961%, 34.901961%)" stroke-opacity="1" stroke-miterlimit="4" d="M 6.218137 3.628133 L 8.94317 5.60643 L 7.902475 8.812105 L 4.533799 8.812105 L 3.493104 5.60643 Z M 6.218137 3.628133 " transform="matrix(2.803865, 0, 0, 2.803865, -8.434817, -8.743109)"/>
<path fill-rule="nonzero" fill="rgb(100%, 100%, 100%)" fill-opacity="1" d="M 9 1.429688 L 16.640625 6.976562 L 13.722656 15.964844 L 4.277344 15.964844 L 1.359375 6.976562 Z M 9 1.429688 "/>
<path fill-rule="nonzero" fill="rgb(34.901961%, 34.901961%, 34.901961%)" fill-opacity="1" d="M 7.8125 10.558594 C 7.8125 10.152344 7.898438 9.804688 8.070312 9.527344 C 8.242188 9.246094 8.539062 8.957031 8.957031 8.652344 C 9.324219 8.390625 9.589844 8.164062 9.742188 7.976562 C 9.910156 7.777344 9.992188 7.550781 9.992188 7.285156 C 9.992188 7.023438 9.890625 6.824219 9.695312 6.695312 C 9.503906 6.554688 9.242188 6.484375 8.894531 6.484375 C 8.550781 6.484375 8.210938 6.539062 7.875 6.644531 C 7.535156 6.753906 7.195312 6.894531 6.835938 7.074219 L 6.1875 5.761719 C 6.585938 5.539062 7.023438 5.355469 7.492188 5.214844 C 7.957031 5.078125 8.472656 5.007812 9.03125 5.007812 C 9.882812 5.007812 10.546875 5.210938 11.011719 5.625 C 11.488281 6.035156 11.730469 6.554688 11.730469 7.1875 C 11.730469 7.523438 11.671875 7.816406 11.566406 8.0625 C 11.460938 8.308594 11.296875 8.539062 11.085938 8.75 C 10.871094 8.957031 10.609375 9.179688 10.289062 9.417969 C 10.050781 9.589844 9.867188 9.738281 9.734375 9.859375 C 9.601562 9.984375 9.507812 10.101562 9.460938 10.21875 C 9.421875 10.332031 9.398438 10.476562 9.398438 10.648438 L 9.398438 11.003906 L 7.8125 11.003906 Z M 7.617188 13.0625 C 7.617188 12.683594 7.71875 12.417969 7.921875 12.273438 C 8.128906 12.117188 8.378906 12.035156 8.675781 12.035156 C 8.960938 12.035156 9.207031 12.117188 9.414062 12.273438 C 9.621094 12.417969 9.71875 12.683594 9.71875 13.0625 C 9.71875 13.421875 9.621094 13.683594 9.414062 13.847656 C 9.207031 14.003906 8.960938 14.085938 8.675781 14.085938 C 8.378906 14.085938 8.128906 14.003906 7.921875 13.847656 C 7.71875 13.683594 7.617188 13.421875 7.617188 13.0625 Z M 7.617188 13.0625 "/>
</svg>
