<?xml version="1.0" encoding="UTF-8"?>
<svg xmlns="http://www.w3.org/2000/svg" xmlns:xlink="http://www.w3.org/1999/xlink" width="16" height="16" viewBox="0 0 16 16">
<path fill-rule="nonzero" fill="rgb(0%, 0%, 0%)" fill-opacity="1" d="M 7.792969 15.9375 C 7.695312 15.898438 7.5625 15.757812 7.078125 15.171875 C 5.371094 13.117188 4.027344 11.09375 3.195312 9.320312 C 2.351562 7.539062 2.085938 6.210938 2.292969 4.90625 C 2.597656 3.054688 3.738281 1.492188 5.40625 0.644531 C 6.621094 0.0234375 8.050781 -0.136719 9.390625 0.191406 C 11.421875 0.6875 13.078125 2.335938 13.59375 4.375 C 13.976562 5.894531 13.753906 7.316406 12.804688 9.320312 C 11.972656 11.09375 10.628906 13.117188 8.921875 15.171875 C 8.421875 15.773438 8.304688 15.898438 8.195312 15.941406 C 8.101562 15.976562 7.882812 15.976562 7.792969 15.9375 Z M 8.789062 8.613281 C 9.851562 8.300781 10.632812 7.460938 10.863281 6.414062 C 10.925781 6.121094 10.933594 5.539062 10.878906 5.25 C 10.648438 4.058594 9.667969 3.097656 8.492188 2.90625 C 8.242188 2.867188 7.757812 2.867188 7.507812 2.90625 C 6.332031 3.097656 5.351562 4.058594 5.121094 5.25 C 5.066406 5.539062 5.074219 6.121094 5.136719 6.414062 C 5.359375 7.4375 6.140625 8.289062 7.148438 8.59375 C 7.496094 8.699219 7.640625 8.714844 8.09375 8.703125 C 8.433594 8.695312 8.570312 8.679688 8.789062 8.613281 Z M 8.789062 8.613281 "/>
</svg>
