<?xml version="1.0" encoding="UTF-8"?>
<svg xmlns="http://www.w3.org/2000/svg" xmlns:xlink="http://www.w3.org/1999/xlink" width="16" height="16" viewBox="0 0 16 16">
<path fill-rule="nonzero" fill="rgb(0%, 0%, 0%)" fill-opacity="1" d="M 16 0 L 9.347656 1.050781 L 11 2.699219 L 9.726562 4 L 9.347656 4.398438 C 7.464844 6.261719 6.40625 8.800781 6.402344 11.449219 L 6.402344 15.996094 L 9.597656 15.996094 L 9.597656 11.445312 C 9.597656 9.625 10.28125 7.964844 11.601562 6.648438 L 13.277344 4.972656 L 14.949219 6.648438 Z M 16 0 "/>
<path fill-rule="nonzero" fill="rgb(0%, 0%, 0%)" fill-opacity="1" d="M 1.265625 1.839844 L 2.074219 6.960938 L 3.519531 5.515625 L 4.847656 6.824219 C 5.21875 7.191406 5.507812 7.566406 5.695312 8 C 5.929688 7.257812 6.265625 6.546875 6.695312 5.898438 C 6.574219 5.71875 6.375 5.542969 6.253906 5.417969 L 4.941406 4.085938 L 6.386719 2.644531 Z M 1.265625 1.839844 "/>
</svg>
