<?xml version="1.0" encoding="UTF-8"?>
<svg xmlns="http://www.w3.org/2000/svg" xmlns:xlink="http://www.w3.org/1999/xlink" width="12" height="12" viewBox="0 0 12 12">
<path fill-rule="nonzero" fill="rgb(0%, 0%, 0%)" fill-opacity="0.960784" d="M 8.945312 6 C 8.945312 7.625 7.625 8.945312 6 8.945312 C 4.375 8.945312 3.058594 7.625 3.058594 6 C 3.058594 4.375 4.375 3.058594 6 3.058594 C 7.625 3.058594 8.945312 4.375 8.945312 6 Z M 8.945312 6 "/>
<path fill-rule="nonzero" fill="rgb(0%, 0%, 0%)" fill-opacity="1" d="M 6 0 C 2.691406 0 0 2.691406 0 6 C 0 9.308594 2.691406 12 6 12 C 9.308594 12 12 9.308594 12 6 C 12 2.691406 9.308594 0 6 0 Z M 6 0.875 C 8.835938 0.875 11.125 3.164062 11.125 6 C 11.125 8.835938 8.835938 11.125 6 11.125 C 3.164062 11.125 0.875 8.835938 0.875 6 C 0.875 3.164062 3.164062 0.875 6 0.875 Z M 6 0.875 "/>
</svg>
