<?xml version="1.0" encoding="UTF-8"?>
<svg xmlns="http://www.w3.org/2000/svg" xmlns:xlink="http://www.w3.org/1999/xlink" width="16" height="16" viewBox="0 0 16 16">
<path fill-rule="nonzero" fill="rgb(0%, 0%, 0%)" fill-opacity="1" d="M 3.796875 14.949219 C 3.652344 14.875 3.601562 14.816406 3.542969 14.667969 C 3.503906 14.5625 3.5 14.507812 3.523438 14.414062 C 3.539062 14.351562 3.875 13.777344 4.261719 13.140625 C 4.652344 12.507812 4.976562 11.972656 4.976562 11.960938 C 4.980469 11.945312 4.886719 11.902344 4.765625 11.863281 C 4.082031 11.640625 3.589844 11.21875 3.28125 10.578125 C 3.003906 10.003906 3.015625 10.21875 3.015625 6.484375 C 3.015625 2.929688 3.007812 3.054688 3.191406 2.601562 C 3.496094 1.824219 4.183594 1.242188 5.015625 1.054688 C 5.289062 0.996094 10.710938 0.996094 10.984375 1.054688 C 11.949219 1.273438 12.664062 1.972656 12.925781 2.953125 C 12.980469 3.160156 12.984375 3.347656 12.984375 6.46875 C 12.984375 10.21875 12.996094 10.003906 12.71875 10.578125 C 12.542969 10.941406 12.300781 11.242188 12.023438 11.457031 C 11.804688 11.621094 11.394531 11.828125 11.164062 11.886719 C 11.085938 11.910156 11.019531 11.941406 11.023438 11.957031 C 11.023438 11.972656 11.351562 12.511719 11.742188 13.15625 C 12.164062 13.839844 12.472656 14.378906 12.484375 14.445312 C 12.5 14.523438 12.488281 14.597656 12.445312 14.695312 C 12.304688 15.019531 11.914062 15.097656 11.679688 14.851562 C 11.632812 14.800781 11.492188 14.59375 11.367188 14.386719 L 11.136719 14.015625 L 4.863281 14.015625 L 4.632812 14.386719 C 4.375 14.8125 4.304688 14.898438 4.164062 14.957031 C 4.035156 15.011719 3.914062 15.011719 3.796875 14.949219 Z M 10.5 12.984375 C 10.5 12.976562 10.367188 12.757812 10.210938 12.492188 L 9.914062 12.015625 L 6.085938 12.015625 L 5.792969 12.492188 C 5.632812 12.757812 5.5 12.976562 5.5 12.984375 C 5.5 12.992188 6.625 13 8 13 C 9.375 13 10.5 12.992188 10.5 12.984375 Z M 5.773438 9.9375 C 5.925781 9.84375 6 9.703125 6 9.5 C 6 9.1875 5.8125 9 5.5 9 C 5.1875 9 5 9.1875 5 9.496094 C 5 9.695312 5.082031 9.851562 5.230469 9.941406 C 5.367188 10.023438 5.636719 10.023438 5.773438 9.9375 Z M 10.773438 9.9375 C 10.925781 9.84375 11 9.703125 11 9.5 C 11 9.1875 10.8125 9 10.5 9 C 10.1875 9 10 9.1875 10 9.5 C 10 9.8125 10.1875 10 10.5 10 C 10.617188 10 10.707031 9.980469 10.773438 9.9375 Z M 10.863281 7.445312 C 10.96875 7.414062 11.070312 7.335938 11.207031 7.207031 C 11.511719 6.898438 11.5 6.992188 11.5 5 C 11.5 3.007812 11.511719 3.101562 11.207031 2.792969 C 10.886719 2.476562 11.125 2.496094 7.949219 2.507812 L 5.203125 2.515625 L 5.054688 2.585938 C 4.867188 2.679688 4.679688 2.867188 4.585938 3.054688 L 4.515625 3.203125 L 4.507812 4.949219 C 4.496094 6.992188 4.484375 6.898438 4.792969 7.207031 C 5.105469 7.515625 4.867188 7.492188 7.988281 7.496094 C 10.449219 7.5 10.722656 7.492188 10.863281 7.445312 Z M 10.863281 7.445312 "/>
</svg>
