<?xml version="1.0" encoding="UTF-8"?>
<svg xmlns="http://www.w3.org/2000/svg" xmlns:xlink="http://www.w3.org/1999/xlink" width="16" height="12" viewBox="0 0 16 12">
<path fill-rule="nonzero" fill="rgb(0%, 21.176471%, 52.941176%)" fill-opacity="1" d="M 10.253906 0 C 10.253906 2.96875 9.898438 3.371094 8.792969 5.425781 L 8.789062 5.433594 L 8.785156 5.4375 C 7.273438 8.359375 7.226562 9.148438 7.203125 11.992188 L 8.796875 12.007812 C 8.824219 9.152344 8.726562 9.027344 10.203125 6.175781 C 11.292969 4.152344 11.855469 3.121094 11.855469 0 Z M 10.253906 0 "/>
<path fill-rule="nonzero" fill="rgb(0%, 21.176471%, 52.941176%)" fill-opacity="1" d="M 4.148438 0 C 4.148438 3.121094 4.707031 4.152344 5.796875 6.175781 C 7.273438 9.027344 7.175781 9.152344 7.203125 12.007812 L 8.796875 11.992188 C 8.773438 9.148438 8.726562 8.359375 7.210938 5.4375 L 7.210938 5.429688 L 7.207031 5.425781 C 6.101562 3.371094 5.742188 2.96875 5.742188 0 Z M 4.148438 0 "/>
</svg>
