<?xml version="1.0" encoding="UTF-8"?>
<svg xmlns="http://www.w3.org/2000/svg" xmlns:xlink="http://www.w3.org/1999/xlink" width="16" height="12" viewBox="0 0 16 12">
<path fill-rule="nonzero" fill="rgb(0%, 21.176471%, 52.941176%)" fill-opacity="1" d="M 0.015625 1.972656 L -0.015625 3.570312 C -0.015625 3.570312 1.660156 3.605469 3.34375 4.652344 C 5.027344 5.695312 6.734375 7.667969 6.734375 12 L 8.328125 12 C 8.328125 7.226562 6.269531 4.585938 4.1875 3.292969 C 2.105469 2 0.015625 1.972656 0.015625 1.972656 Z M 0.015625 1.972656 "/>
<path fill-rule="nonzero" fill="rgb(0%, 21.176471%, 52.941176%)" fill-opacity="1" d="M 15.984375 1.957031 C 15.984375 1.957031 13.894531 1.984375 11.8125 3.277344 C 9.730469 4.566406 7.671875 7.210938 7.671875 11.984375 L 9.265625 11.984375 C 9.265625 7.652344 10.972656 5.679688 12.65625 4.632812 C 14.339844 3.585938 16.015625 3.554688 16.015625 3.554688 Z M 15.984375 1.957031 "/>
</svg>
