<?xml version="1.0" encoding="UTF-8"?>
<svg xmlns="http://www.w3.org/2000/svg" xmlns:xlink="http://www.w3.org/1999/xlink" width="16" height="12" viewBox="0 0 16 12">
<path fill-rule="nonzero" fill="rgb(0%, 21.176471%, 52.941176%)" fill-opacity="1" d="M 10.328125 -1.636719 C 10.328125 -1.636719 9.625 -0.492188 8.96875 1.742188 C 8.316406 3.976562 7.671875 7.355469 7.671875 11.984375 L 9.265625 11.984375 C 9.265625 7.503906 9.890625 4.28125 10.503906 2.195312 C 11.117188 0.105469 11.683594 -0.796875 11.683594 -0.796875 Z M 10.328125 -1.636719 "/>
<path fill-rule="nonzero" fill="rgb(0%, 21.176471%, 52.941176%)" fill-opacity="1" d="M 5.671875 -1.636719 L 4.316406 -0.796875 C 4.316406 -0.796875 4.882812 0.105469 5.496094 2.195312 C 6.109375 4.28125 6.734375 7.503906 6.734375 11.984375 L 8.328125 11.984375 C 8.328125 7.355469 7.683594 3.976562 7.03125 1.742188 C 6.375 -0.492188 5.671875 -1.636719 5.671875 -1.636719 Z M 5.671875 -1.636719 "/>
</svg>
