<?xml version="1.0" encoding="UTF-8"?>
<svg xmlns="http://www.w3.org/2000/svg" xmlns:xlink="http://www.w3.org/1999/xlink" width="16" height="12" viewBox="0 0 16 12">
<path fill-rule="nonzero" fill="rgb(0%, 21.176471%, 52.941176%)" fill-opacity="1" d="M 0.015625 1.972656 L -0.015625 3.570312 C -0.015625 3.570312 1.660156 3.605469 3.34375 4.652344 C 5.027344 5.695312 6.734375 7.667969 6.734375 12 L 8.328125 12 C 8.328125 7.226562 6.269531 4.585938 4.1875 3.292969 C 2.105469 2 0.015625 1.972656 0.015625 1.972656 Z M 0.015625 1.972656 "/>
<path fill-rule="nonzero" fill="rgb(0%, 21.176471%, 52.941176%)" fill-opacity="1" d="M 15.984375 1.957031 C 15.984375 1.957031 13.894531 1.984375 11.8125 3.277344 C 9.730469 4.566406 7.671875 7.210938 7.671875 11.984375 L 9.265625 11.984375 C 9.265625 7.652344 10.972656 5.679688 12.65625 4.632812 C 14.339844 3.585938 16.015625 3.554688 16.015625 3.554688 Z M 15.984375 1.957031 "/>
<path fill-rule="nonzero" fill="rgb(0%, 21.176471%, 52.941176%)" fill-opacity="1" d="M 10.328125 -1.636719 C 10.328125 -1.636719 9.625 -0.492188 8.96875 1.742188 C 8.316406 3.976562 7.671875 7.355469 7.671875 11.984375 L 9.265625 11.984375 C 9.265625 7.503906 9.890625 4.28125 10.503906 2.195312 C 11.117188 0.105469 11.683594 -0.796875 11.683594 -0.796875 Z M 10.328125 -1.636719 "/>
<path fill-rule="nonzero" fill="rgb(0%, 21.176471%, 52.941176%)" fill-opacity="1" d="M 5.671875 -1.636719 L 4.316406 -0.796875 C 4.316406 -0.796875 4.882812 0.105469 5.496094 2.195312 C 6.109375 4.28125 6.734375 7.503906 6.734375 11.984375 L 8.328125 11.984375 C 8.328125 7.355469 7.683594 3.976562 7.03125 1.742188 C 6.375 -0.492188 5.671875 -1.636719 5.671875 -1.636719 Z M 5.671875 -1.636719 "/>
</svg>
