<?xml version="1.0" encoding="UTF-8"?>
<svg xmlns="http://www.w3.org/2000/svg" xmlns:xlink="http://www.w3.org/1999/xlink" width="9.322266" height="12" viewBox="0 0 9.322266 12">
<path fill-rule="nonzero" fill="rgb(0%, 21.176471%, 52.941176%)" fill-opacity="1" d="M 8.851562 -0.367188 L 8.125 0.566406 C 7.660156 1.167969 7.304688 2.070312 7.015625 3.066406 C 6.722656 4.0625 6.527344 5.125 6.527344 6 C 6.527344 7.75 7.253906 10.046875 8.105469 11.285156 L 8.828125 12.339844 L 9.816406 11.660156 L 9.089844 10.605469 C 8.488281 9.730469 7.726562 7.367188 7.726562 6 C 7.726562 5.316406 7.898438 4.3125 8.164062 3.398438 C 8.429688 2.488281 8.808594 1.636719 9.070312 1.300781 L 9.796875 0.367188 Z M 8.851562 -0.367188 "/>
<path fill-rule="nonzero" fill="rgb(0%, 21.176471%, 52.941176%)" fill-opacity="1" d="M 0.472656 -0.367188 L -0.472656 0.367188 L 8.847656 12.367188 L 9.796875 11.632812 Z M 0.472656 -0.367188 "/>
<path fill-rule="nonzero" fill="rgb(0%, 21.176471%, 52.941176%)" fill-opacity="1" d="M 8.851562 -0.367188 L -0.472656 11.632812 L 0.472656 12.367188 L 9.796875 0.367188 Z M 8.851562 -0.367188 "/>
</svg>
