<?xml version="1.0" encoding="UTF-8"?>
<svg xmlns="http://www.w3.org/2000/svg" xmlns:xlink="http://www.w3.org/1999/xlink" width="9.322266" height="12" viewBox="0 0 9.322266 12">
<path fill-rule="nonzero" fill="rgb(0%, 21.176471%, 52.941176%)" fill-opacity="1" d="M 8.851562 -0.367188 L 8.125 0.566406 C 7.660156 1.164062 7.300781 2.066406 7.007812 3.066406 C 6.71875 4.0625 6.515625 5.125 6.515625 6 C 6.515625 7.753906 7.257812 10.050781 8.105469 11.285156 L 8.828125 12.339844 L 9.816406 11.660156 L 9.089844 10.605469 C 8.488281 9.726562 7.714844 7.367188 7.714844 6 C 7.714844 5.316406 7.890625 4.3125 8.160156 3.402344 C 8.425781 2.488281 8.808594 1.640625 9.070312 1.300781 L 9.796875 0.367188 Z M 8.851562 -0.367188 "/>
<path fill-rule="nonzero" fill="rgb(0%, 21.176471%, 52.941176%)" fill-opacity="1" d="M 0.488281 -0.351562 L -0.457031 0.382812 L 0.269531 1.316406 C 0.527344 1.652344 0.90625 2.496094 1.164062 3.40625 C 1.425781 4.3125 1.597656 5.3125 1.597656 6 C 1.597656 7.371094 0.84375 9.75 0.246094 10.621094 L -0.476562 11.675781 L 0.507812 12.351562 L 1.234375 11.296875 C 2.085938 10.054688 2.796875 7.746094 2.796875 6 C 2.796875 5.125 2.601562 4.066406 2.316406 3.074219 C 2.03125 2.082031 1.679688 1.179688 1.214844 0.582031 Z M 0.488281 -0.351562 "/>
<path fill-rule="nonzero" fill="rgb(0%, 21.176471%, 52.941176%)" fill-opacity="1" d="M 0.472656 -0.367188 L -0.472656 0.367188 L 8.847656 12.367188 L 9.796875 11.632812 Z M 0.472656 -0.367188 "/>
<path fill-rule="nonzero" fill="rgb(0%, 21.176471%, 52.941176%)" fill-opacity="1" d="M 8.851562 -0.367188 L -0.472656 11.632812 L 0.472656 12.367188 L 9.796875 0.367188 Z M 8.851562 -0.367188 "/>
</svg>
