<?xml version="1.0" encoding="UTF-8"?>
<svg xmlns="http://www.w3.org/2000/svg" xmlns:xlink="http://www.w3.org/1999/xlink" width="14" height="14" viewBox="0 0 14 14">
<path fill-rule="nonzero" fill="rgb(0%, 0%, 0%)" fill-opacity="1" d="M 13.953125 12.191406 L 11.957031 4.203125 C 11.851562 3.789062 11.507812 3.5 11.113281 3.5 L 9.464844 3.5 C 9.5625 3.226562 9.625 2.933594 9.625 2.625 C 9.625 1.175781 8.449219 0 7 0 C 5.550781 0 4.375 1.175781 4.375 2.625 C 4.375 2.933594 4.4375 3.226562 4.535156 3.5 L 2.886719 3.5 C 2.492188 3.5 2.148438 3.789062 2.042969 4.203125 L 0.046875 12.191406 C -0.179688 13.101562 0.449219 14 1.3125 14 L 12.6875 14 C 13.550781 14 14.179688 13.101562 13.953125 12.191406 Z M 7 3.5 C 6.519531 3.5 6.125 3.105469 6.125 2.625 C 6.125 2.144531 6.519531 1.75 7 1.75 C 7.480469 1.75 7.875 2.144531 7.875 2.625 C 7.875 3.105469 7.480469 3.5 7 3.5 Z M 7 3.5 "/>
</svg>
