<?xml version="1.0" encoding="UTF-8"?>
<svg xmlns="http://www.w3.org/2000/svg" xmlns:xlink="http://www.w3.org/1999/xlink" width="16" height="16" viewBox="0 0 16 16">
<path fill-rule="nonzero" fill="rgb(0%, 0%, 0%)" fill-opacity="1" d="M 5.734375 15.972656 C 5.496094 15.914062 5.375 15.761719 5.375 15.53125 C 5.375 15.359375 5.460938 15.210938 5.601562 15.132812 C 5.691406 15.085938 5.804688 15.078125 6.617188 15.070312 L 7.53125 15.058594 L 7.53125 10.007812 L 6.226562 9.992188 C 4.8125 9.976562 4.773438 9.972656 4.410156 9.789062 C 4.15625 9.664062 3.785156 9.289062 3.664062 9.03125 C 3.476562 8.628906 3.484375 8.792969 3.484375 5 C 3.484375 1.207031 3.476562 1.371094 3.664062 0.96875 C 3.792969 0.691406 4.160156 0.324219 4.4375 0.195312 C 4.835938 0.0078125 4.714844 0.015625 8 0.015625 C 11.285156 0.015625 11.164062 0.0078125 11.5625 0.195312 C 11.839844 0.324219 12.207031 0.691406 12.335938 0.96875 C 12.523438 1.371094 12.515625 1.207031 12.515625 5 C 12.515625 8.792969 12.523438 8.628906 12.335938 9.03125 C 12.210938 9.289062 11.84375 9.671875 11.589844 9.792969 C 11.21875 9.972656 11.183594 9.976562 9.773438 9.992188 L 8.46875 10.007812 L 8.46875 15.058594 L 9.382812 15.070312 C 10.195312 15.078125 10.308594 15.085938 10.398438 15.132812 C 10.699219 15.300781 10.699219 15.761719 10.398438 15.929688 C 10.304688 15.980469 10.148438 15.984375 8.0625 15.992188 C 6.835938 15.992188 5.789062 15.984375 5.734375 15.972656 Z M 6.773438 7.992188 L 6.890625 7.875 L 6.898438 7.53125 L 6.914062 7.1875 L 9.085938 7.1875 L 9.101562 7.53125 L 9.109375 7.875 L 9.226562 7.992188 C 9.339844 8.105469 9.351562 8.109375 9.5625 8.109375 C 9.773438 8.109375 9.785156 8.105469 9.898438 7.992188 L 10.015625 7.875 L 10.023438 7.535156 L 10.039062 7.195312 L 10.222656 7.179688 C 10.386719 7.167969 10.421875 7.152344 10.523438 7.054688 L 10.640625 6.9375 L 10.640625 2.640625 L 10.554688 2.476562 C 10.429688 2.242188 10.308594 2.117188 10.085938 1.996094 L 9.890625 1.890625 L 6.109375 1.890625 L 5.914062 1.996094 C 5.691406 2.117188 5.570312 2.242188 5.445312 2.476562 L 5.359375 2.640625 L 5.359375 6.9375 L 5.476562 7.054688 C 5.578125 7.152344 5.613281 7.167969 5.777344 7.179688 L 5.960938 7.195312 L 5.976562 7.535156 C 5.984375 7.859375 5.988281 7.875 6.078125 7.96875 C 6.207031 8.101562 6.265625 8.125 6.476562 8.117188 C 6.640625 8.105469 6.671875 8.09375 6.773438 7.992188 Z M 6.773438 7.992188 "/>
<path fill-rule="nonzero" fill="rgb(0%, 0%, 0%)" fill-opacity="1" d="M 6.28125 5.78125 L 6.28125 5.3125 L 9.71875 5.3125 L 9.71875 6.25 L 6.28125 6.25 Z M 6.289062 3.640625 C 6.292969 3.09375 6.304688 2.898438 6.335938 2.867188 C 6.398438 2.808594 9.601562 2.808594 9.664062 2.867188 C 9.695312 2.898438 9.707031 3.09375 9.710938 3.640625 L 9.722656 4.375 L 6.277344 4.375 Z M 6.289062 3.640625 "/>
</svg>
