<?xml version="1.0" encoding="UTF-8"?>
<svg xmlns="http://www.w3.org/2000/svg" xmlns:xlink="http://www.w3.org/1999/xlink" width="16" height="16" viewBox="0 0 16 16">
<path fill-rule="nonzero" fill="rgb(0%, 0%, 0%)" fill-opacity="1" d="M 10 7 L 9 6 L 11.292969 3.707031 L 10.800781 3.214844 C 10.023438 2.4375 8.96875 2 7.867188 2 C 4.640625 2 2 4.679688 2 7.933594 C 2 11.257812 4.699219 14 8 14 C 9.535156 14 11.070312 13.414062 12.242188 12.242188 L 13.65625 13.65625 C 12.09375 15.21875 10.046875 16 8 16 C 3.570312 16 0 12.339844 0 7.933594 C 0 3.601562 3.507812 0 7.867188 0 C 9.496094 0 11.0625 0.648438 12.214844 1.800781 L 12.707031 2.292969 L 15 0 L 16 1 L 16 7 Z M 10 7 "/>
</svg>
