<?xml version="1.0" encoding="UTF-8"?>
<svg xmlns="http://www.w3.org/2000/svg" xmlns:xlink="http://www.w3.org/1999/xlink" width="16.371737" height="12" viewBox="0 0 16.371737 12">
<path fill-rule="nonzero" fill="rgb(29.803922%, 29.803922%, 29.803922%)" fill-opacity="1" stroke-width="1.43966" stroke-linecap="butt" stroke-linejoin="miter" stroke="rgb(100%, 100%, 100%)" stroke-opacity="1" stroke-miterlimit="4" d="M 0.722234 7.594404 L 11.468207 7.594404 L 11.468207 9.219432 L 0.722234 9.219432 Z M 0.722234 7.594404 " transform="matrix(0.71393, 0, 0, 0.71393, 0, 0)"/>
<path fill-rule="nonzero" fill="rgb(29.803922%, 29.803922%, 29.803922%)" fill-opacity="1" stroke-width="2.1891" stroke-linecap="butt" stroke-linejoin="miter" stroke="rgb(100%, 100%, 100%)" stroke-opacity="1" stroke-miterlimit="4" d="M 3.572872 1.105238 C 3.572872 1.105238 3.239112 1.504655 2.604421 1.646913 C 2.084631 1.767286 1.772757 1.822 1.772757 1.822 L 1.663328 8.404182 L 3.972289 8.404182 L 3.972289 1.110709 Z M 3.572872 1.105238 " transform="matrix(0.71393, 0, 0, 0.71393, 0, 0)"/>
<path fill-rule="nonzero" fill="rgb(29.803922%, 29.803922%, 29.803922%)" fill-opacity="1" stroke-width="2.1891" stroke-linecap="butt" stroke-linejoin="miter" stroke="rgb(100%, 100%, 100%)" stroke-opacity="1" stroke-miterlimit="4" d="M 3.578343 15.703127 C 3.578343 15.703127 3.244583 15.309181 2.609893 15.166923 C 2.090103 15.046551 1.778229 14.991836 1.778229 14.991836 L 1.668799 8.409654 L 3.977761 8.409654 L 3.977761 15.697656 Z M 3.578343 15.703127 " transform="matrix(0.71393, 0, 0, 0.71393, 0, 0)"/>
<path fill-rule="nonzero" fill="rgb(29.803922%, 29.803922%, 29.803922%)" fill-opacity="1" stroke-width="1.43966" stroke-linecap="butt" stroke-linejoin="miter" stroke="rgb(100%, 100%, 100%)" stroke-opacity="1" stroke-miterlimit="4" d="M 22.21418 7.594404 L 11.468207 7.594404 L 11.468207 9.219432 L 22.21418 9.219432 Z M 22.21418 7.594404 " transform="matrix(0.71393, 0, 0, 0.71393, 0, 0)"/>
<path fill-rule="nonzero" fill="rgb(29.803922%, 29.803922%, 29.803922%)" fill-opacity="1" stroke-width="2.1891" stroke-linecap="butt" stroke-linejoin="miter" stroke="rgb(100%, 100%, 100%)" stroke-opacity="1" stroke-miterlimit="4" d="M 19.358071 1.105238 C 19.358071 1.105238 19.691831 1.504655 20.326522 1.646913 C 20.846312 1.767286 21.158186 1.822 21.158186 1.822 L 21.267615 8.404182 L 18.958654 8.404182 L 18.958654 1.110709 Z M 19.358071 1.105238 " transform="matrix(0.71393, 0, 0, 0.71393, 0, 0)"/>
<path fill-rule="nonzero" fill="rgb(29.803922%, 29.803922%, 29.803922%)" fill-opacity="1" stroke-width="2.1891" stroke-linecap="butt" stroke-linejoin="miter" stroke="rgb(100%, 100%, 100%)" stroke-opacity="1" stroke-miterlimit="4" d="M 19.358071 15.703127 C 19.358071 15.703127 19.68636 15.309181 20.32105 15.166923 C 20.84084 15.046551 21.152714 14.991836 21.152714 14.991836 L 21.267615 8.409654 L 18.953182 8.409654 L 18.953182 15.697656 Z M 19.358071 15.703127 " transform="matrix(0.71393, 0, 0, 0.71393, 0, 0)"/>
<path fill-rule="nonzero" fill="rgb(29.803922%, 29.803922%, 29.803922%)" fill-opacity="1" d="M 0.515625 5.421875 L 8.1875 5.421875 L 8.1875 6.582031 L 0.515625 6.582031 Z M 0.515625 5.421875 "/>
<path fill-rule="nonzero" fill="rgb(29.803922%, 29.803922%, 29.803922%)" fill-opacity="1" d="M 2.550781 0.789062 C 2.550781 0.789062 2.3125 1.074219 1.859375 1.175781 C 1.488281 1.261719 1.265625 1.300781 1.265625 1.300781 L 1.1875 6 L 2.835938 6 L 2.835938 0.792969 Z M 2.550781 0.789062 "/>
<path fill-rule="nonzero" fill="rgb(29.803922%, 29.803922%, 29.803922%)" fill-opacity="1" d="M 2.554688 11.210938 C 2.554688 11.210938 2.316406 10.929688 1.863281 10.828125 C 1.492188 10.742188 1.269531 10.703125 1.269531 10.703125 L 1.191406 6.003906 L 2.839844 6.003906 L 2.839844 11.207031 Z M 2.554688 11.210938 "/>
<path fill-rule="nonzero" fill="rgb(29.803922%, 29.803922%, 29.803922%)" fill-opacity="1" d="M 15.859375 5.421875 L 8.1875 5.421875 L 8.1875 6.582031 L 15.859375 6.582031 Z M 15.859375 5.421875 "/>
<path fill-rule="nonzero" fill="rgb(29.803922%, 29.803922%, 29.803922%)" fill-opacity="1" d="M 13.820312 0.789062 C 13.820312 0.789062 14.058594 1.074219 14.511719 1.175781 C 14.882812 1.261719 15.105469 1.300781 15.105469 1.300781 L 15.183594 6 L 13.535156 6 L 13.535156 0.792969 Z M 13.820312 0.789062 "/>
<path fill-rule="nonzero" fill="rgb(29.803922%, 29.803922%, 29.803922%)" fill-opacity="1" d="M 13.820312 11.210938 C 13.820312 11.210938 14.054688 10.929688 14.507812 10.828125 C 14.878906 10.742188 15.101562 10.703125 15.101562 10.703125 L 15.183594 6.003906 L 13.53125 6.003906 L 13.53125 11.207031 Z M 13.820312 11.210938 "/>
</svg>
