<?xml version="1.0" encoding="UTF-8"?>
<svg xmlns="http://www.w3.org/2000/svg" xmlns:xlink="http://www.w3.org/1999/xlink" width="18.551367" height="12.6" viewBox="0 0 18.551367 12.6">
<path fill-rule="nonzero" fill="rgb(29.803922%, 29.803922%, 29.803922%)" fill-opacity="1" d="M 2.597656 0.0234375 C 2.597656 0.0234375 2.304688 0.367188 1.757812 0.492188 C 1.3125 0.59375 1.042969 0.644531 1.042969 0.644531 L 0.949219 6.324219 L 2.941406 6.324219 L 2.941406 0.0273438 Z M 2.597656 0.0234375 "/>
<path fill-rule="nonzero" fill="rgb(29.803922%, 29.803922%, 29.803922%)" fill-opacity="1" d="M 2.601562 12.625 C 2.601562 12.625 2.308594 12.285156 1.761719 12.160156 C 1.316406 12.058594 1.046875 12.007812 1.046875 12.007812 L 0.953125 6.328125 L 2.945312 6.328125 L 2.945312 12.621094 Z M 2.601562 12.625 "/>
<path fill-rule="nonzero" fill="rgb(29.803922%, 29.803922%, 29.803922%)" fill-opacity="1" d="M 16.367188 0.0195312 C 16.367188 0.0195312 16.660156 0.363281 17.203125 0.488281 C 17.652344 0.589844 17.921875 0.636719 17.921875 0.636719 L 18.015625 6.320312 L 16.023438 6.320312 L 16.023438 0.0234375 Z M 16.367188 0.0195312 "/>
<path fill-rule="nonzero" fill="rgb(29.803922%, 29.803922%, 29.803922%)" fill-opacity="1" d="M 16.363281 12.617188 C 16.363281 12.617188 16.65625 12.277344 17.199219 12.15625 C 17.648438 12.054688 17.917969 12.003906 17.917969 12.003906 L 18.011719 6.324219 L 16.019531 6.324219 L 16.019531 12.613281 Z M 16.363281 12.617188 "/>
<path fill-rule="nonzero" fill="rgb(29.803922%, 29.803922%, 29.803922%)" fill-opacity="1" d="M 18.550781 5.625 L 0 5.625 L 0 7.027344 L 18.550781 7.027344 Z M 18.550781 5.625 "/>
</svg>
