<?xml version="1.0" encoding="UTF-8"?>
<svg xmlns="http://www.w3.org/2000/svg" xmlns:xlink="http://www.w3.org/1999/xlink" width="25.172513" height="8" viewBox="0 0 25.172513 8">
<path fill-rule="nonzero" fill="rgb(5.098039%, 5.098039%, 5.098039%)" fill-opacity="1" stroke-width="1" stroke-linecap="butt" stroke-linejoin="miter" stroke="rgb(100%, 100%, 100%)" stroke-opacity="1" stroke-miterlimit="4" d="M 0.498539 2.075115 L 13.264544 2.075115 L 13.264544 6.651447 L 0.498539 6.651447 Z M 0.498539 2.075115 " transform="matrix(0.916741, 0, 0, 0.916741, 0, 0)"/>
<path fill-rule="nonzero" fill="rgb(5.098039%, 5.098039%, 5.098039%)" fill-opacity="1" stroke-width="1" stroke-linecap="butt" stroke-linejoin="miter" stroke="rgb(100%, 100%, 100%)" stroke-opacity="1" stroke-miterlimit="4" d="M 26.959451 2.075115 L 14.193446 2.075115 L 14.193446 6.651447 L 26.959451 6.651447 Z M 26.959451 2.075115 " transform="matrix(0.916741, 0, 0, 0.916741, 0, 0)"/>
<path fill-rule="nonzero" fill="rgb(100%, 73.72549%, 0%)" fill-opacity="1" stroke-width="1" stroke-linecap="butt" stroke-linejoin="miter" stroke="rgb(100%, 100%, 100%)" stroke-opacity="1" stroke-miterlimit="4" d="M 12.591303 0.498539 L 14.866686 0.498539 L 14.866686 8.228023 L 12.591303 8.228023 Z M 12.591303 0.498539 " transform="matrix(0.916741, 0, 0, 0.916741, 0, 0)"/>
<path fill-rule="nonzero" fill="rgb(5.098039%, 5.098039%, 5.098039%)" fill-opacity="1" d="M 0.457031 1.902344 L 12.160156 1.902344 L 12.160156 6.097656 L 0.457031 6.097656 Z M 0.457031 1.902344 "/>
<path fill-rule="nonzero" fill="rgb(5.098039%, 5.098039%, 5.098039%)" fill-opacity="1" d="M 24.714844 1.902344 L 13.011719 1.902344 L 13.011719 6.097656 L 24.714844 6.097656 Z M 24.714844 1.902344 "/>
<path fill-rule="nonzero" fill="rgb(100%, 73.72549%, 0%)" fill-opacity="1" d="M 11.542969 0.457031 L 13.628906 0.457031 L 13.628906 7.542969 L 11.542969 7.542969 Z M 11.542969 0.457031 "/>
</svg>
