<?xml version="1.0" encoding="UTF-8"?>
<svg xmlns="http://www.w3.org/2000/svg" xmlns:xlink="http://www.w3.org/1999/xlink" width="12.038281" height="20" viewBox="0 0 12.038281 20">
<path fill-rule="evenodd" fill="rgb(1.568627%, 1.568627%, 1.568627%)" fill-opacity="1" d="M 4.882812 7.640625 C 3.796875 7.710938 3.152344 7.816406 2.554688 8.019531 C 1.601562 8.355469 1.070312 8.859375 0.863281 9.636719 L 0.808594 9.835938 L 0.804688 13.203125 C 0.796875 16.875 0.792969 16.785156 0.933594 17.175781 C 1.082031 17.605469 1.417969 18.050781 1.792969 18.296875 C 2.09375 18.511719 2.523438 18.664062 2.863281 18.683594 L 3.074219 18.703125 L 2.101562 19.675781 L 2.101562 20 L 3.5625 20 L 4.875 18.695312 L 7.3125 18.695312 L 7.964844 19.347656 L 8.621094 20 L 9.933594 20 L 9.933594 19.675781 L 9.453125 19.1875 L 8.960938 18.703125 L 9.175781 18.683594 C 9.515625 18.664062 9.945312 18.511719 10.25 18.296875 C 10.617188 18.050781 10.960938 17.605469 11.105469 17.179688 C 11.246094 16.789062 11.242188 16.867188 11.242188 13.3125 C 11.242188 11.203125 11.234375 9.976562 11.214844 9.851562 C 11.136719 9.234375 10.816406 8.714844 10.324219 8.386719 C 9.679688 7.957031 8.800781 7.734375 7.375 7.648438 C 7.023438 7.625 5.179688 7.617188 4.882812 7.640625 M 2.125 11.527344 L 2.125 12.820312 L 5.363281 12.820312 L 5.363281 10.234375 L 2.125 10.234375 L 2.125 11.527344 M 6.671875 11.527344 L 6.671875 12.820312 L 9.910156 12.820312 L 9.910156 10.234375 L 6.671875 10.234375 L 6.671875 11.527344 M 2.8125 15.492188 C 2.648438 15.542969 2.53125 15.617188 2.410156 15.738281 C 2.222656 15.929688 2.125 16.148438 2.125 16.421875 C 2.125 17.023438 2.691406 17.484375 3.28125 17.355469 C 4.027344 17.199219 4.308594 16.28125 3.777344 15.742188 C 3.589844 15.558594 3.375 15.472656 3.117188 15.464844 C 2.996094 15.460938 2.875 15.46875 2.8125 15.492188 M 8.6875 15.492188 C 8.207031 15.640625 7.925781 16.085938 8.003906 16.566406 C 8.121094 17.292969 8.972656 17.625 9.554688 17.171875 C 9.914062 16.878906 10.015625 16.375 9.796875 15.949219 C 9.734375 15.824219 9.539062 15.632812 9.417969 15.570312 C 9.191406 15.457031 8.898438 15.421875 8.6875 15.492188 "/>
<path fill-rule="evenodd" fill="rgb(1.568627%, 1.568627%, 1.568627%)" fill-opacity="1" d="M 5.984375 0.03125 C 5.921875 0.101562 5.691406 0.386719 5.515625 0.621094 C 4.671875 1.730469 4.117188 2.773438 3.96875 3.527344 C 3.933594 3.722656 3.933594 3.765625 3.933594 3.972656 C 3.933594 4.132812 3.933594 4.183594 3.941406 4.234375 C 4.050781 4.816406 4.359375 5.351562 4.800781 5.710938 C 5.164062 6.003906 5.628906 6.148438 6.097656 6.136719 C 6.683594 6.105469 7.195312 5.835938 7.589844 5.34375 C 7.84375 5.03125 8.035156 4.601562 8.09375 4.214844 C 8.117188 4.0625 8.113281 3.820312 8.074219 3.621094 C 7.953125 2.859375 7.398438 1.800781 6.527344 0.636719 C 6.332031 0.375 6.03125 0 6.019531 0 C 6.015625 0 6.003906 0.0117188 5.984375 0.03125 "/>
<path fill-rule="evenodd" fill="rgb(1.568627%, 1.568627%, 1.568627%)" fill-opacity="1" d="M 9.792969 2.660156 C 9.851562 2.703125 10.070312 2.859375 10.234375 2.992188 C 11.042969 3.621094 11.632812 4.25 11.878906 4.757812 C 11.945312 4.886719 11.953125 4.917969 11.988281 5.0625 C 12.019531 5.171875 12.027344 5.207031 12.03125 5.246094 C 12.070312 5.679688 11.949219 6.121094 11.703125 6.453125 C 11.5 6.726562 11.203125 6.917969 10.867188 7 C 10.445312 7.09375 10.039062 6.996094 9.664062 6.722656 C 9.421875 6.550781 9.210938 6.285156 9.097656 6.023438 C 9.050781 5.914062 9.007812 5.746094 8.992188 5.597656 C 8.941406 5.039062 9.128906 4.183594 9.527344 3.195312 C 9.613281 2.972656 9.753906 2.652344 9.761719 2.648438 C 9.765625 2.648438 9.777344 2.65625 9.792969 2.660156 "/>
<path fill-rule="evenodd" fill="rgb(1.568627%, 1.568627%, 1.568627%)" fill-opacity="1" d="M 2.25 2.660156 C 2.1875 2.703125 1.96875 2.859375 1.804688 2.992188 C 0.992188 3.621094 0.40625 4.25 0.160156 4.757812 C 0.101562 4.886719 0.0898438 4.917969 0.0507812 5.0625 C 0.0234375 5.171875 0.0078125 5.207031 0.00390625 5.246094 C -0.0273438 5.679688 0.09375 6.121094 0.335938 6.453125 C 0.539062 6.726562 0.832031 6.917969 1.171875 7 C 1.59375 7.09375 2 6.996094 2.378906 6.722656 C 2.617188 6.550781 2.828125 6.285156 2.945312 6.023438 C 2.992188 5.914062 3.035156 5.746094 3.046875 5.597656 C 3.097656 5.039062 2.914062 4.183594 2.515625 3.195312 C 2.425781 2.972656 2.289062 2.652344 2.277344 2.648438 C 2.273438 2.648438 2.261719 2.65625 2.25 2.660156 "/>
</svg>
