<?xml version="1.0" encoding="UTF-8"?>
<svg xmlns="http://www.w3.org/2000/svg" xmlns:xlink="http://www.w3.org/1999/xlink" width="16" height="15.260341" viewBox="0 0 16 15.260341">
<path fill-rule="evenodd" fill="rgb(1.568627%, 1.568627%, 1.568627%)" fill-opacity="1" d="M 7.660156 0.0195312 C 6.988281 0.125 6.402344 0.484375 6.027344 1.019531 C 5.835938 1.289062 4.722656 3.222656 4.746094 3.242188 C 4.757812 3.253906 5.136719 3.480469 5.597656 3.746094 C 6.179688 4.082031 6.441406 4.214844 6.457031 4.191406 C 6.476562 4.167969 6.734375 3.71875 7.039062 3.1875 C 7.339844 2.660156 7.617188 2.191406 7.65625 2.148438 C 7.851562 1.925781 8.148438 1.925781 8.347656 2.148438 C 8.425781 2.238281 10.335938 5.539062 10.316406 5.554688 C 10.308594 5.5625 10.121094 5.671875 9.898438 5.800781 C 9.675781 5.929688 9.476562 6.058594 9.449219 6.089844 C 9.390625 6.167969 9.394531 6.339844 9.464844 6.414062 C 9.53125 6.496094 12.457031 7.695312 12.582031 7.695312 C 12.683594 7.695312 12.792969 7.601562 12.816406 7.492188 C 12.828125 7.453125 12.929688 6.71875 13.046875 5.855469 C 13.265625 4.222656 13.265625 4.214844 13.132812 4.113281 C 13.027344 4.03125 12.898438 4.070312 12.476562 4.3125 C 12.050781 4.558594 12.050781 4.558594 12.003906 4.484375 C 11.980469 4.445312 11.542969 3.695312 11.039062 2.8125 C 10.53125 1.933594 10.058594 1.132812 9.992188 1.035156 C 9.773438 0.707031 9.386719 0.390625 9.003906 0.214844 C 8.605469 0.0390625 8.0625 -0.0429688 7.660156 0.0195312 M 2.839844 6.082031 C 1.9375 6.457031 1.367188 6.710938 1.332031 6.753906 C 1.246094 6.851562 1.257812 7.019531 1.34375 7.097656 C 1.382812 7.136719 1.589844 7.265625 1.800781 7.382812 C 2.011719 7.503906 2.1875 7.609375 2.1875 7.613281 C 2.1875 7.621094 1.75 8.378906 1.21875 9.300781 C 0.171875 11.109375 0.125 11.199219 0.046875 11.519531 C -0.0351562 11.828125 -0.00390625 12.371094 0.105469 12.667969 C 0.339844 13.296875 0.816406 13.765625 1.433594 13.976562 C 1.640625 14.046875 1.699219 14.046875 3.175781 14.058594 L 4.703125 14.070312 L 4.703125 12.074219 L 3.34375 12.074219 C 2.253906 12.074219 1.988281 12.066406 1.972656 12.03125 C 1.960938 12 3.816406 8.722656 3.902344 8.613281 C 3.910156 8.613281 4.109375 8.714844 4.351562 8.855469 C 4.589844 8.988281 4.816406 9.101562 4.851562 9.101562 C 4.9375 9.101562 5.058594 9.015625 5.09375 8.921875 C 5.113281 8.875 5.046875 8.320312 4.914062 7.320312 C 4.800781 6.476562 4.699219 5.738281 4.6875 5.683594 C 4.660156 5.546875 4.558594 5.476562 4.40625 5.480469 C 4.339844 5.480469 3.707031 5.726562 2.839844 6.082031 M 13.734375 9.414062 C 13.289062 9.671875 12.90625 9.894531 12.890625 9.914062 C 12.871094 9.933594 13.066406 10.300781 13.398438 10.867188 C 14.03125 11.957031 14.050781 12 14.027344 12.042969 C 14.015625 12.0625 13.222656 12.074219 11.882812 12.074219 L 9.765625 12.074219 L 9.765625 11.601562 C 9.765625 11.320312 9.75 11.097656 9.730469 11.050781 C 9.683594 10.953125 9.535156 10.882812 9.429688 10.910156 C 9.363281 10.925781 7.042969 12.703125 6.851562 12.882812 C 6.761719 12.964844 6.734375 13.082031 6.78125 13.199219 C 6.800781 13.246094 9.007812 14.976562 9.320312 15.191406 C 9.476562 15.292969 9.578125 15.28125 9.691406 15.160156 C 9.761719 15.078125 9.765625 15.046875 9.765625 14.570312 L 9.765625 14.070312 L 12.058594 14.058594 C 14.335938 14.046875 14.355469 14.046875 14.566406 13.976562 C 15.199219 13.761719 15.710938 13.246094 15.914062 12.628906 C 15.996094 12.371094 16.027344 11.839844 15.976562 11.582031 C 15.953125 11.480469 15.902344 11.324219 15.863281 11.222656 C 15.78125 11.03125 14.59375 8.941406 14.566406 8.941406 C 14.558594 8.941406 14.1875 9.152344 13.734375 9.414062 "/>
</svg>
