<?xml version="1.0" encoding="UTF-8"?>
<svg xmlns="http://www.w3.org/2000/svg" xmlns:xlink="http://www.w3.org/1999/xlink" width="18" height="18" viewBox="0 0 18 18">
<path fill-rule="evenodd" fill="rgb(1.568627%, 1.568627%, 1.568627%)" fill-opacity="1" d="M 8.632812 0.808594 C 7.910156 0.921875 7.277344 1.308594 6.875 1.882812 C 6.667969 2.171875 5.472656 4.253906 5.496094 4.277344 C 5.507812 4.289062 5.917969 4.53125 6.414062 4.816406 C 7.039062 5.179688 7.320312 5.324219 7.339844 5.296875 C 7.359375 5.273438 7.636719 4.789062 7.964844 4.21875 C 8.289062 3.648438 8.585938 3.144531 8.628906 3.097656 C 8.839844 2.859375 9.160156 2.859375 9.371094 3.097656 C 9.457031 3.195312 11.511719 6.746094 11.492188 6.765625 C 11.484375 6.773438 11.28125 6.890625 11.042969 7.03125 C 10.800781 7.167969 10.585938 7.308594 10.558594 7.339844 C 10.496094 7.425781 10.5 7.609375 10.574219 7.691406 C 10.648438 7.777344 13.796875 9.070312 13.929688 9.070312 C 14.039062 9.070312 14.15625 8.96875 14.183594 8.851562 C 14.195312 8.808594 14.304688 8.015625 14.429688 7.089844 C 14.667969 5.332031 14.667969 5.324219 14.523438 5.214844 C 14.410156 5.125 14.269531 5.167969 13.816406 5.429688 C 13.359375 5.691406 13.359375 5.691406 13.308594 5.613281 C 13.28125 5.570312 12.8125 4.761719 12.269531 3.8125 C 11.722656 2.867188 11.214844 2.003906 11.144531 1.898438 C 10.90625 1.546875 10.492188 1.207031 10.078125 1.019531 C 9.648438 0.828125 9.066406 0.742188 8.632812 0.808594 M 3.445312 7.332031 C 2.472656 7.734375 1.859375 8.007812 1.820312 8.054688 C 1.730469 8.160156 1.742188 8.339844 1.835938 8.425781 C 1.878906 8.46875 2.101562 8.605469 2.328125 8.734375 C 2.554688 8.863281 2.742188 8.976562 2.742188 8.980469 C 2.742188 8.988281 2.273438 9.804688 1.699219 10.796875 C 0.574219 12.742188 0.523438 12.839844 0.4375 13.183594 C 0.351562 13.515625 0.382812 14.101562 0.5 14.421875 C 0.753906 15.097656 1.265625 15.601562 1.933594 15.828125 C 2.152344 15.90625 2.21875 15.90625 3.804688 15.917969 L 5.449219 15.929688 L 5.449219 13.78125 L 3.988281 13.78125 C 2.8125 13.78125 2.527344 13.773438 2.511719 13.734375 C 2.5 13.703125 4.496094 10.175781 4.589844 10.058594 C 4.597656 10.054688 4.8125 10.167969 5.070312 10.316406 C 5.328125 10.460938 5.570312 10.582031 5.609375 10.582031 C 5.703125 10.582031 5.832031 10.488281 5.871094 10.390625 C 5.890625 10.339844 5.820312 9.742188 5.675781 8.664062 C 5.554688 7.757812 5.445312 6.960938 5.433594 6.902344 C 5.40625 6.757812 5.296875 6.679688 5.132812 6.683594 C 5.058594 6.683594 4.378906 6.949219 3.445312 7.332031 M 15.171875 10.917969 C 14.691406 11.195312 14.28125 11.4375 14.261719 11.457031 C 14.242188 11.476562 14.453125 11.875 14.808594 12.484375 C 15.488281 13.65625 15.511719 13.703125 15.484375 13.746094 C 15.472656 13.769531 14.621094 13.78125 13.179688 13.78125 L 10.898438 13.78125 L 10.898438 13.273438 C 10.898438 12.96875 10.882812 12.730469 10.859375 12.679688 C 10.8125 12.574219 10.652344 12.5 10.539062 12.527344 C 10.464844 12.546875 7.96875 14.457031 7.761719 14.652344 C 7.664062 14.742188 7.636719 14.867188 7.6875 14.992188 C 7.707031 15.042969 10.082031 16.90625 10.421875 17.136719 C 10.585938 17.246094 10.699219 17.234375 10.820312 17.101562 C 10.894531 17.015625 10.898438 16.980469 10.898438 16.46875 L 10.898438 15.929688 L 13.367188 15.917969 C 15.816406 15.90625 15.839844 15.90625 16.066406 15.828125 C 16.746094 15.597656 17.296875 15.042969 17.515625 14.378906 C 17.605469 14.101562 17.636719 13.527344 17.582031 13.25 C 17.558594 13.144531 17.503906 12.972656 17.460938 12.863281 C 17.375 12.660156 16.097656 10.410156 16.066406 10.410156 C 16.058594 10.410156 15.65625 10.636719 15.171875 10.917969 "/>
</svg>
