<?xml version="1.0" encoding="UTF-8"?>
<svg xmlns="http://www.w3.org/2000/svg" xmlns:xlink="http://www.w3.org/1999/xlink" width="18" height="11.420967" viewBox="0 0 18 11.420967">
<path fill-rule="nonzero" fill="rgb(0%, 0%, 0%)" fill-opacity="1" d="M 0 0 L 17.070312 0 L 17.070312 2.226562 L 0 2.226562 Z M 0 0 "/>
<path fill-rule="nonzero" fill="rgb(0%, 0%, 0%)" fill-opacity="1" d="M 17.070312 0 L 17.070312 5.265625 L 15.394531 5.265625 L 15.394531 0 Z M 17.070312 0 "/>
<path fill-rule="evenodd" fill="rgb(1.568627%, 1.568627%, 1.568627%)" fill-opacity="1" d="M 16.207031 6.257812 C 16.148438 6.320312 15.957031 6.5625 15.808594 6.757812 C 15.09375 7.699219 14.628906 8.582031 14.5 9.21875 C 14.46875 9.382812 14.46875 9.421875 14.46875 9.59375 C 14.46875 9.726562 14.46875 9.769531 14.476562 9.816406 C 14.566406 10.308594 14.832031 10.761719 15.203125 11.0625 C 15.511719 11.308594 15.902344 11.433594 16.300781 11.421875 C 16.796875 11.398438 17.226562 11.171875 17.5625 10.753906 C 17.777344 10.488281 17.9375 10.125 17.988281 9.800781 C 18.007812 9.671875 18.003906 9.464844 17.972656 9.296875 C 17.867188 8.652344 17.402344 7.757812 16.664062 6.773438 C 16.496094 6.550781 16.246094 6.234375 16.234375 6.234375 C 16.230469 6.234375 16.21875 6.246094 16.207031 6.257812 "/>
</svg>
