<?xml version="1.0" encoding="UTF-8"?>
<svg xmlns="http://www.w3.org/2000/svg" xmlns:xlink="http://www.w3.org/1999/xlink" width="18" height="18" viewBox="0 0 18 18">
<path fill-rule="nonzero" fill="rgb(0%, 0%, 0%)" fill-opacity="1" d="M 3.375 1.125 L 3.375 5.0625 C 3.375 6.6875 4.261719 7.851562 5.519531 8.578125 L 4.5 16.875 L 6.1875 16.875 L 6.398438 15.222656 L 9 13.5 L 11.601562 15.257812 L 11.8125 16.875 L 13.5 16.875 L 12.480469 8.613281 C 13.746094 7.886719 14.625 6.707031 14.625 5.0625 L 14.625 1.125 L 12.9375 1.125 L 12.9375 2.8125 L 12.375 2.8125 C 11.105469 3.375 10.125 3.375 9 2.8125 C 7.875 2.25 6.792969 2.25 5.625 2.8125 L 5.0625 2.8125 L 5.0625 1.125 Z M 7.136719 9.210938 C 8.339844 9.507812 9.660156 9.539062 10.863281 9.246094 L 11.074219 11.003906 L 9 12.375 L 6.925781 11.003906 Z M 6.785156 12.023438 L 8.15625 12.9375 L 6.539062 14.027344 Z M 11.214844 12.023438 L 11.460938 14.027344 L 9.84375 12.9375 Z M 11.214844 12.023438 "/>
</svg>
