<?xml version="1.0" encoding="UTF-8"?>
<svg xmlns="http://www.w3.org/2000/svg" xmlns:xlink="http://www.w3.org/1999/xlink" width="13" height="18.2" viewBox="0 0 13 18.2">
<path fill-rule="nonzero" fill="rgb(0%, 0%, 0%)" fill-opacity="1" d="M 0 0 L 0 4.550781 C 0 6.425781 1.023438 7.773438 2.480469 8.613281 L 1.300781 18.199219 L 3.25 18.199219 L 3.496094 16.292969 L 6.5 14.300781 L 9.503906 16.332031 L 9.75 18.199219 L 11.699219 18.199219 L 10.519531 8.652344 C 11.984375 7.8125 13 6.449219 13 4.550781 L 13 0 L 11.050781 0 L 11.050781 1.949219 L 10.402344 1.949219 C 8.933594 2.597656 7.800781 2.597656 6.5 1.949219 C 5.199219 1.300781 3.949219 1.300781 2.597656 1.949219 L 1.949219 1.949219 L 1.949219 0 Z M 4.347656 9.34375 C 5.738281 9.6875 7.261719 9.722656 8.652344 9.386719 L 8.894531 11.417969 L 6.5 13 L 4.105469 11.417969 Z M 3.941406 12.59375 L 5.527344 13.652344 L 3.65625 14.910156 Z M 9.058594 12.59375 L 9.34375 14.910156 L 7.472656 13.652344 Z M 9.058594 12.59375 "/>
</svg>
