<?xml version="1.0" encoding="UTF-8"?>
<svg xmlns="http://www.w3.org/2000/svg" xmlns:xlink="http://www.w3.org/1999/xlink" width="16" height="16" viewBox="0 0 16 16">
<path fill-rule="nonzero" fill="rgb(0%, 0%, 0%)" fill-opacity="1" d="M 14.164062 16 L 9.4375 11.140625 L 11.25 9.277344 L 15.976562 14.136719 Z M 2.246094 16 L 0.433594 14.136719 L 6.390625 8.011719 L 4.921875 6.503906 L 4.320312 7.125 L 3.21875 5.992188 L 3.21875 7.8125 L 2.613281 8.433594 L 0 5.746094 L 0.605469 5.125 L 2.375 5.125 L 1.296875 4.015625 L 4.363281 0.867188 C 4.648438 0.570312 4.960938 0.355469 5.289062 0.222656 C 5.621094 0.0898438 5.960938 0.0234375 6.304688 0.0234375 C 6.652344 0.0234375 6.988281 0.0898438 7.320312 0.222656 C 7.652344 0.355469 7.960938 0.570312 8.25 0.867188 L 6.261719 2.90625 L 7.339844 4.015625 L 6.738281 4.636719 L 8.207031 6.148438 L 10.148438 4.148438 C 10.089844 3.988281 10.042969 3.816406 10.007812 3.640625 C 9.972656 3.460938 9.953125 3.285156 9.953125 3.105469 C 9.953125 2.234375 10.246094 1.496094 10.828125 0.898438 C 11.410156 0.300781 12.128906 0 12.976562 0 C 13.191406 0 13.398438 0.0234375 13.59375 0.0664062 C 13.785156 0.109375 13.984375 0.175781 14.1875 0.265625 L 12.046875 2.464844 L 13.601562 4.0625 L 15.742188 1.863281 C 15.839844 2.070312 15.910156 2.273438 15.945312 2.472656 C 15.980469 2.675781 16 2.886719 16 3.105469 C 16 3.980469 15.707031 4.714844 15.125 5.316406 C 14.542969 5.914062 13.828125 6.214844 12.976562 6.214844 C 12.804688 6.214844 12.632812 6.199219 12.457031 6.167969 C 12.285156 6.140625 12.121094 6.085938 11.960938 6.015625 Z M 2.246094 16 "/>
</svg>
