<?xml version="1.0" encoding="UTF-8"?>
<svg xmlns="http://www.w3.org/2000/svg" xmlns:xlink="http://www.w3.org/1999/xlink" width="16" height="16" viewBox="0 0 16 16">
<path fill-rule="nonzero" fill="rgb(0%, 0%, 0%)" fill-opacity="1" d="M 2.40625 15.964844 C 2.097656 15.929688 1.851562 15.804688 1.601562 15.554688 C 1.289062 15.25 1.136719 14.777344 1.210938 14.371094 C 1.375 13.492188 2.257812 12.976562 3.078125 13.285156 C 3.175781 13.320312 3.3125 13.398438 3.386719 13.453125 L 3.523438 13.554688 L 3.671875 13.449219 C 4.332031 12.980469 5.257812 13.183594 5.667969 13.886719 C 6.253906 14.871094 5.441406 16.09375 4.289062 15.960938 C 4.078125 15.941406 3.804688 15.828125 3.632812 15.699219 L 3.53125 15.621094 L 3.429688 15.699219 C 3.160156 15.902344 2.765625 16.007812 2.40625 15.964844 Z M 2.835938 15 C 2.976562 14.914062 3.0625 14.761719 3.0625 14.601562 C 3.0625 14.4375 3.027344 14.351562 2.921875 14.242188 C 2.585938 13.90625 1.996094 14.246094 2.121094 14.710938 C 2.15625 14.839844 2.28125 14.988281 2.390625 15.035156 C 2.507812 15.082031 2.730469 15.066406 2.835938 15 Z M 4.71875 14.992188 C 4.773438 14.953125 4.851562 14.882812 4.882812 14.839844 C 4.964844 14.726562 4.96875 14.480469 4.886719 14.339844 C 4.820312 14.226562 4.601562 14.09375 4.472656 14.09375 C 4.347656 14.09375 4.132812 14.214844 4.0625 14.324219 C 3.976562 14.460938 3.976562 14.699219 4.0625 14.835938 C 4.199219 15.058594 4.507812 15.132812 4.71875 14.992188 Z M 11.332031 15.960938 C 10.914062 15.910156 10.476562 15.585938 10.285156 15.207031 C 10.140625 14.914062 10.101562 14.609375 10.167969 14.304688 C 10.386719 13.320312 11.515625 12.871094 12.328125 13.449219 L 12.476562 13.554688 L 12.613281 13.453125 C 13.132812 13.054688 13.914062 13.128906 14.398438 13.613281 C 14.710938 13.925781 14.859375 14.386719 14.785156 14.808594 C 14.664062 15.492188 14.101562 15.972656 13.417969 15.972656 C 13.085938 15.972656 12.824219 15.886719 12.570312 15.695312 L 12.46875 15.621094 L 12.367188 15.699219 C 12.09375 15.910156 11.695312 16.007812 11.332031 15.960938 Z M 11.773438 15 C 12.070312 14.820312 12.082031 14.351562 11.789062 14.179688 C 11.628906 14.085938 11.472656 14.082031 11.3125 14.164062 C 11.136719 14.253906 11.050781 14.398438 11.050781 14.601562 C 11.050781 14.953125 11.46875 15.1875 11.773438 15 Z M 13.695312 14.984375 C 13.988281 14.765625 13.949219 14.328125 13.625 14.164062 C 13.304688 13.996094 12.96875 14.195312 12.945312 14.5625 C 12.929688 14.761719 13 14.898438 13.164062 15.003906 C 13.292969 15.085938 13.570312 15.074219 13.695312 14.984375 Z M 13.695312 14.984375 "/>
<path fill-rule="nonzero" fill="rgb(0%, 0%, 0%)" fill-opacity="1" d="M 6.65625 14.539062 C 6.574219 14.507812 6.464844 14.394531 6.410156 14.28125 C 6.378906 14.222656 6.226562 13.835938 6.078125 13.429688 L 5.804688 12.6875 L 1.414062 12.6875 L 1.398438 12.894531 C 1.382812 13.113281 1.332031 13.210938 1.179688 13.324219 C 1.058594 13.414062 0.824219 13.410156 0.695312 13.316406 C 0.507812 13.183594 0.5 13.148438 0.5 12.226562 C 0.5 11.445312 0.503906 11.382812 0.5625 11.289062 C 0.644531 11.152344 0.867188 11.054688 1.011719 11.078125 C 1.253906 11.125 1.40625 11.34375 1.40625 11.648438 L 1.40625 11.78125 L 1.90625 11.78125 L 1.90625 9.117188 C 1.90625 6.5 1.90625 6.449219 1.96875 6.351562 C 2.007812 6.289062 2.085938 6.222656 2.164062 6.1875 C 2.292969 6.128906 2.445312 6.125 8 6.125 C 13.554688 6.125 13.707031 6.128906 13.835938 6.1875 C 13.914062 6.222656 13.992188 6.289062 14.03125 6.351562 C 14.09375 6.449219 14.09375 6.5 14.09375 9.117188 L 14.09375 11.78125 L 14.59375 11.78125 L 14.59375 11.648438 C 14.59375 11.34375 14.742188 11.125 14.980469 11.082031 C 15.136719 11.054688 15.351562 11.148438 15.4375 11.289062 C 15.496094 11.382812 15.5 11.445312 15.5 12.226562 C 15.5 13.148438 15.492188 13.183594 15.304688 13.316406 C 15.175781 13.410156 14.941406 13.414062 14.820312 13.324219 C 14.667969 13.210938 14.617188 13.113281 14.601562 12.894531 L 14.585938 12.6875 L 10.195312 12.6875 L 9.921875 13.429688 C 9.605469 14.273438 9.570312 14.359375 9.453125 14.46875 L 9.367188 14.546875 L 8.039062 14.554688 C 7.304688 14.554688 6.679688 14.550781 6.65625 14.539062 Z M 9.03125 13.210938 C 9.121094 12.964844 9.203125 12.746094 9.210938 12.726562 C 9.222656 12.695312 8.96875 12.6875 8 12.6875 C 7.03125 12.6875 6.777344 12.695312 6.789062 12.726562 C 6.796875 12.746094 6.878906 12.964844 6.96875 13.210938 L 7.132812 13.65625 L 8.867188 13.65625 Z M 4.6875 10.773438 C 4.769531 10.730469 4.851562 10.660156 4.890625 10.59375 C 4.949219 10.488281 4.953125 10.429688 4.953125 9.171875 C 4.953125 7.878906 4.953125 7.859375 4.882812 7.75 C 4.773438 7.574219 4.632812 7.511719 4.363281 7.523438 C 4.304688 7.53125 4.226562 7.574219 4.136719 7.667969 L 4 7.804688 L 4 9.15625 C 4 10.488281 4 10.507812 4.070312 10.617188 C 4.136719 10.730469 4.335938 10.839844 4.46875 10.84375 C 4.511719 10.84375 4.613281 10.8125 4.6875 10.773438 Z M 7.085938 10.757812 C 7.132812 10.726562 7.195312 10.660156 7.230469 10.613281 C 7.292969 10.527344 7.296875 10.492188 7.296875 9.179688 L 7.296875 7.828125 L 7.226562 7.726562 C 7.023438 7.445312 6.609375 7.460938 6.414062 7.75 C 6.34375 7.851562 6.34375 7.855469 6.34375 9.164062 C 6.34375 10.566406 6.34375 10.558594 6.507812 10.710938 C 6.542969 10.746094 6.613281 10.792969 6.65625 10.808594 C 6.765625 10.855469 6.992188 10.832031 7.085938 10.757812 Z M 9.433594 10.757812 C 9.476562 10.726562 9.546875 10.648438 9.585938 10.59375 C 9.65625 10.492188 9.65625 10.488281 9.65625 9.171875 C 9.65625 7.855469 9.65625 7.851562 9.585938 7.75 C 9.390625 7.460938 8.976562 7.445312 8.773438 7.726562 L 8.703125 7.828125 L 8.695312 9.09375 C 8.6875 9.789062 8.695312 10.402344 8.703125 10.460938 C 8.726562 10.585938 8.855469 10.742188 8.984375 10.800781 C 9.105469 10.855469 9.328125 10.835938 9.433594 10.757812 Z M 11.742188 10.78125 C 11.820312 10.746094 11.898438 10.679688 11.9375 10.617188 C 11.996094 10.519531 12 10.464844 12 9.160156 L 12 7.804688 L 11.863281 7.667969 C 11.773438 7.574219 11.695312 7.53125 11.636719 7.523438 C 11.367188 7.511719 11.226562 7.574219 11.117188 7.75 C 11.046875 7.859375 11.046875 7.878906 11.046875 9.171875 C 11.046875 10.429688 11.050781 10.488281 11.109375 10.59375 C 11.179688 10.710938 11.398438 10.84375 11.53125 10.84375 C 11.574219 10.84375 11.667969 10.816406 11.742188 10.78125 Z M 0.265625 4.160156 C 0.132812 4.078125 0.0585938 3.988281 0.0351562 3.867188 C 0 3.710938 0.046875 3.558594 0.164062 3.453125 C 0.304688 3.320312 7.84375 0.0234375 8 0.0234375 C 8.078125 0.0234375 9.257812 0.523438 11.921875 1.691406 C 16.195312 3.558594 15.96875 3.441406 15.96875 3.757812 C 15.96875 3.898438 15.953125 3.949219 15.886719 4.03125 C 15.785156 4.148438 15.65625 4.21875 15.53125 4.21875 C 15.46875 4.21875 14.015625 3.601562 11.714844 2.59375 L 8 0.964844 L 4.285156 2.59375 C 1.820312 3.671875 0.53125 4.21875 0.460938 4.21875 C 0.40625 4.21875 0.320312 4.195312 0.265625 4.160156 Z M 0.265625 4.160156 "/>
</svg>
