<?xml version="1.0" encoding="UTF-8"?>
<svg xmlns="http://www.w3.org/2000/svg" xmlns:xlink="http://www.w3.org/1999/xlink" width="9.166827" height="14" viewBox="0 0 9.166827 14">
<path fill-rule="nonzero" fill="rgb(100%, 100%, 100%)" fill-opacity="1" d="M 0 0 L 9.167969 0 L 9.167969 14 L 0 14 Z M 0 0 "/>
<path fill-rule="nonzero" fill="rgb(0%, 0%, 0%)" fill-opacity="1" d="M 0.453125 0.539062 L 8.714844 0.539062 L 8.714844 13.460938 L 0.453125 13.460938 Z M 0.453125 0.539062 "/>
<path fill-rule="nonzero" fill="rgb(0%, 0%, 0%)" fill-opacity="1" stroke-width="0.0883454" stroke-linecap="butt" stroke-linejoin="miter" stroke="rgb(0%, 0%, 0%)" stroke-opacity="1" stroke-miterlimit="10" d="M 30.878526 21.110357 L 30.878526 21.388125 L 30.600759 21.388125 L 30.600759 85.36732 L 30.878526 85.36732 L 30.878526 85.598794 L 42.637366 85.598794 L 42.637366 85.36732 L 42.868839 85.36732 L 43.054017 83.330356 L 43.609553 81.385981 L 44.396562 79.58049 L 45.553928 77.913883 L 46.942767 76.525044 L 48.609374 75.460267 L 50.368571 74.580669 L 52.312946 74.025133 L 54.34991 73.839955 L 56.294285 74.025133 L 58.23866 74.580669 L 59.997856 75.460267 L 61.710758 76.525044 L 63.099598 77.913883 L 64.256964 79.58049 L 65.043972 81.385981 L 65.599508 83.330356 L 65.784687 85.36732 L 65.784687 121.014195 L 65.599508 123.051159 L 65.043972 124.995534 L 64.256964 126.801025 L 63.099598 128.375043 L 61.710758 129.763882 L 59.997856 130.921249 L 58.23866 131.800847 L 56.294285 132.356382 L 54.34991 132.541561 L 52.312946 132.356382 L 50.368571 131.800847 L 48.609374 130.921249 L 46.942767 129.763882 L 45.553928 128.375043 L 44.396562 126.801025 L 43.609553 124.995534 L 43.054017 123.051159 L 42.868839 121.014195 L 42.637366 121.014195 L 42.637366 120.782722 L 30.878526 120.782722 L 30.878526 121.014195 L 30.600759 121.014195 L 30.785937 123.930758 L 31.202589 126.801025 L 32.082187 129.43982 L 33.332142 132.078615 L 34.767276 134.532231 L 36.526473 136.846963 L 38.563437 138.791338 L 40.831875 140.550534 L 43.331785 142.078257 L 45.877991 143.281918 L 48.609374 144.115222 L 51.433348 144.624463 L 54.34991 144.809641 L 57.173883 144.624463 L 59.997856 144.115222 L 62.775535 143.281918 L 65.32174 142.078257 L 67.775356 140.550534 L 70.090089 138.791338 L 72.127053 136.846963 L 73.886249 134.532231 L 75.321383 132.078615 L 76.525044 129.43982 L 77.358347 126.801025 L 77.867588 123.930758 L 78.052767 121.014195 L 78.052767 85.36732 L 77.867588 82.450758 L 77.358347 79.58049 L 76.525044 76.849106 L 75.321383 74.302901 L 73.886249 71.849285 L 72.127053 69.534553 L 70.090089 67.497589 L 67.775356 65.738392 L 67.451294 66.247633 L 71.664106 69.951205 L 73.377008 72.173347 L 74.858437 74.580669 L 76.015803 77.126874 L 76.802812 79.765669 L 77.358347 82.497053 L 77.404642 85.36732 L 77.404642 121.014195 L 77.358347 123.884463 L 76.802812 126.615847 L 76.015803 129.254641 L 74.858437 131.800847 L 73.377008 134.208168 L 71.664106 136.430311 L 69.627142 138.374686 L 67.451294 140.133882 L 65.043972 141.615311 L 62.497767 142.680088 L 59.858973 143.559686 L 57.081294 144.022632 L 54.34991 144.161516 L 51.525937 144.022632 L 48.794553 143.559686 L 46.063169 142.680088 L 43.609553 141.615311 L 41.202232 140.133882 L 38.980089 138.374686 L 36.943125 136.430311 L 35.276517 134.208168 L 33.795089 131.800847 L 32.730312 129.254641 L 31.850714 126.615847 L 31.295178 123.884463 L 31.156294 121.384552 L 42.313303 121.384552 L 42.544776 123.143749 L 43.054017 125.180713 L 43.933616 127.032499 L 45.090982 128.791695 L 46.57241 130.226829 L 48.285312 131.476784 L 50.229687 132.356382 L 52.266651 132.865624 L 54.34991 133.050802 L 56.386874 132.865624 L 58.423839 132.356382 L 60.368214 131.476784 L 62.034821 130.226829 L 63.562544 128.791695 L 64.71991 127.032499 L 65.599508 125.180713 L 66.201339 123.143749 L 66.386517 121.014195 L 66.386517 85.36732 L 66.201339 83.237767 L 65.599508 81.200803 L 64.71991 79.349017 L 63.562544 77.589821 L 62.034821 76.062097 L 60.368214 74.904731 L 58.423839 74.025133 L 56.386874 73.515892 L 54.34991 73.330713 L 52.266651 73.515892 L 50.229687 74.025133 L 48.285312 74.904731 L 46.57241 76.062097 L 45.090982 77.589821 L 43.933616 79.349017 L 43.054017 81.200803 L 42.544776 83.237767 L 42.313303 84.996963 L 31.11 84.996963 L 31.11 21.758482 L 77.404642 21.758482 L 77.404642 32.776607 L 42.637366 32.776607 L 42.637366 33.146964 L 42.267008 33.146964 L 42.267008 64.951383 L 42.591071 64.951383 L 42.68366 65.182856 L 45.461339 63.886606 L 48.377901 62.914419 L 51.294464 62.358883 L 54.34991 62.12741 L 57.081294 62.266294 L 59.858973 62.82183 L 62.497767 63.608839 L 65.043972 64.766205 L 67.451294 66.247633 L 67.775356 65.738392 L 65.32174 64.303258 L 62.775535 63.099598 L 59.997856 62.266294 L 57.173883 61.757053 L 54.34991 61.571874 L 51.201874 61.757053 L 48.192723 62.358883 L 45.27616 63.331071 L 42.868839 64.442142 L 42.868839 33.378437 L 77.774999 33.378437 L 77.774999 33.146964 L 78.052767 33.146964 L 78.052767 21.388125 L 77.774999 21.388125 L 77.774999 21.110357 Z M 53.470312 59.720089 L 53.562901 59.720089 Z M 53.470312 79.534196 L 53.562901 79.534196 Z M 53.470312 133.513749 L 53.562901 133.513749 Z M 31.943303 144.531873 L 32.035893 144.531873 Z M 31.943303 144.531873 " transform="matrix(0.084378, 0, 0, 0.084378, 0, 0)"/>
<path fill-rule="nonzero" fill="rgb(100%, 100%, 100%)" fill-opacity="1" d="M 3.492188 11.824219 C 3.425781 11.773438 3.300781 11.671875 3.222656 11.597656 C 3.070312 11.457031 2.890625 11.203125 2.816406 11.023438 C 2.714844 10.773438 2.652344 10.539062 2.640625 10.34375 L 2.636719 10.25 L 3.5625 10.25 L 3.570312 10.324219 C 3.601562 10.550781 3.714844 10.789062 3.859375 10.929688 C 4.085938 11.152344 4.371094 11.253906 4.675781 11.226562 C 4.914062 11.203125 5.101562 11.121094 5.292969 10.945312 C 5.40625 10.839844 5.511719 10.664062 5.574219 10.46875 L 5.601562 10.371094 L 5.601562 7.046875 L 5.570312 6.945312 C 5.539062 6.835938 5.484375 6.71875 5.414062 6.613281 C 5.265625 6.378906 4.984375 6.21875 4.675781 6.1875 C 4.449219 6.164062 4.195312 6.230469 4.003906 6.359375 C 3.777344 6.511719 3.613281 6.789062 3.574219 7.082031 C 3.570312 7.117188 3.566406 7.148438 3.566406 7.152344 C 3.566406 7.15625 3.355469 7.160156 3.097656 7.160156 L 2.628906 7.160156 L 2.628906 1.839844 L 6.523438 1.839844 L 6.523438 2.761719 L 5.054688 2.761719 C 3.59375 2.761719 3.589844 2.761719 3.589844 2.777344 C 3.589844 2.785156 3.582031 2.792969 3.574219 2.792969 C 3.558594 2.792969 3.558594 2.796875 3.558594 4.140625 C 3.558594 5.46875 3.558594 5.484375 3.574219 5.484375 C 3.582031 5.484375 3.589844 5.492188 3.59375 5.5 C 3.601562 5.507812 3.621094 5.5 3.722656 5.453125 C 3.953125 5.339844 4.15625 5.289062 4.441406 5.261719 C 4.570312 5.25 4.605469 5.25 4.71875 5.257812 C 5.027344 5.28125 5.347656 5.382812 5.589844 5.535156 C 5.640625 5.570312 5.6875 5.59375 5.691406 5.59375 C 5.96875 5.839844 5.894531 5.761719 5.96875 5.835938 C 6.074219 5.945312 6.152344 6.046875 6.246094 6.195312 C 6.359375 6.375 6.445312 6.601562 6.5 6.851562 L 6.519531 6.960938 L 6.519531 10.449219 L 6.5 10.558594 C 6.433594 10.882812 6.320312 11.136719 6.128906 11.394531 C 6.027344 11.527344 5.851562 11.695312 5.683594 11.816406 L 5.648438 11.839844 L 3.515625 11.839844 Z M 4.523438 11.265625 C 4.523438 11.261719 4.519531 11.257812 4.515625 11.257812 C 4.511719 11.257812 4.507812 11.261719 4.507812 11.265625 C 4.507812 11.269531 4.511719 11.273438 4.515625 11.273438 C 4.519531 11.273438 4.523438 11.269531 4.523438 11.265625 Z M 4.523438 11.265625 "/>
<path fill-rule="nonzero" fill="rgb(100%, 100%, 100%)" fill-opacity="1" d="M 4.464844 12.152344 C 4.375 12.148438 4.332031 12.140625 4.234375 12.125 C 4.117188 12.109375 4.113281 12.105469 4.003906 12.070312 C 3.921875 12.046875 3.859375 12.019531 3.785156 11.988281 C 3.683594 11.945312 3.675781 11.941406 3.578125 11.878906 C 3.449219 11.800781 3.335938 11.707031 3.210938 11.589844 C 3.128906 11.511719 3.117188 11.5 3.054688 11.414062 C 3.007812 11.355469 2.960938 11.285156 2.917969 11.222656 C 2.855469 11.121094 2.855469 11.117188 2.8125 11.015625 C 2.789062 10.960938 2.753906 10.863281 2.730469 10.800781 C 2.695312 10.691406 2.691406 10.675781 2.667969 10.566406 C 2.652344 10.46875 2.644531 10.433594 2.640625 10.375 C 2.640625 10.339844 2.636719 10.292969 2.636719 10.277344 L 2.632812 10.25 L 3.097656 10.25 C 3.355469 10.25 3.566406 10.25 3.566406 10.25 C 3.566406 10.25 3.570312 10.285156 3.574219 10.324219 C 3.585938 10.398438 3.609375 10.511719 3.632812 10.566406 C 3.652344 10.621094 3.710938 10.734375 3.75 10.792969 C 3.800781 10.871094 3.804688 10.875 3.867188 10.9375 C 3.945312 11.007812 4.039062 11.078125 4.105469 11.109375 C 4.191406 11.15625 4.238281 11.171875 4.320312 11.195312 C 4.394531 11.214844 4.40625 11.214844 4.496094 11.222656 L 4.589844 11.230469 L 4.675781 11.222656 C 4.757812 11.214844 4.773438 11.214844 4.851562 11.195312 C 4.921875 11.175781 4.945312 11.167969 5.003906 11.140625 C 5.046875 11.121094 5.085938 11.101562 5.101562 11.09375 C 5.144531 11.066406 5.246094 10.988281 5.289062 10.945312 C 5.359375 10.882812 5.367188 10.871094 5.417969 10.796875 C 5.484375 10.691406 5.527344 10.597656 5.566406 10.480469 C 5.589844 10.402344 5.589844 10.390625 5.597656 10.339844 C 5.601562 10.292969 5.601562 10.019531 5.601562 9.007812 L 5.601562 7.734375 L 6.527344 7.734375 L 6.527344 8.96875 C 6.527344 9.753906 6.527344 10.246094 6.523438 10.324219 L 6.519531 10.449219 L 6.5 10.5625 C 6.480469 10.648438 6.46875 10.695312 6.441406 10.789062 C 6.410156 10.894531 6.402344 10.914062 6.359375 11.011719 C 6.316406 11.109375 6.304688 11.128906 6.25 11.21875 C 6.210938 11.28125 6.15625 11.355469 6.113281 11.414062 C 6.050781 11.5 6.039062 11.511719 5.964844 11.582031 C 5.914062 11.628906 5.84375 11.691406 5.785156 11.738281 C 5.707031 11.804688 5.671875 11.828125 5.585938 11.878906 C 5.488281 11.941406 5.484375 11.945312 5.382812 11.988281 C 5.328125 12.011719 5.230469 12.046875 5.164062 12.070312 L 5.050781 12.109375 L 4.933594 12.125 C 4.839844 12.140625 4.796875 12.148438 4.71875 12.152344 C 4.664062 12.15625 4.609375 12.160156 4.597656 12.160156 C 4.589844 12.160156 4.527344 12.15625 4.464844 12.152344 Z M 4.523438 11.265625 C 4.523438 11.261719 4.519531 11.257812 4.515625 11.257812 C 4.515625 11.257812 4.511719 11.261719 4.511719 11.265625 C 4.511719 11.265625 4.515625 11.269531 4.515625 11.269531 C 4.519531 11.269531 4.523438 11.265625 4.523438 11.265625 Z M 4.523438 11.265625 "/>
</svg>
