<?xml version="1.0" encoding="UTF-8"?>
<svg xmlns="http://www.w3.org/2000/svg" xmlns:xlink="http://www.w3.org/1999/xlink" width="10" height="40.696579" viewBox="0 0 10 40.696579">
<path fill-rule="nonzero" fill="rgb(0%, 0%, 0%)" fill-opacity="0.960784" d="M 0 35.484375 L 10.003906 35.484375 L 10.003906 40.695312 L 0 40.695312 Z M 0 35.484375 "/>
<path fill-rule="nonzero" fill="rgb(0%, 0%, 0%)" fill-opacity="0.960784" d="M 2.582031 0.046875 L 0 1.324219 L 0 34.148438 L 2.582031 35.484375 L 7.746094 35.484375 L 10.003906 34.148438 L 10.003906 1.324219 L 7.746094 0 Z M 2.582031 0.046875 "/>
<path fill-rule="nonzero" fill="rgb(17.647059%, 17.647059%, 17.647059%)" fill-opacity="1" d="M 7.195312 4.742188 C 7.195312 5.957031 6.210938 6.925781 5 6.925781 C 3.792969 6.925781 2.808594 5.957031 2.808594 4.742188 C 2.808594 3.527344 3.792969 2.550781 5 2.550781 C 6.210938 2.550781 7.195312 3.527344 7.195312 4.742188 Z M 7.195312 4.742188 "/>
<path fill-rule="nonzero" fill="rgb(0%, 78.431373%, 36.862745%)" fill-opacity="1" d="M 7.195312 9.941406 C 7.195312 11.152344 6.210938 12.132812 5 12.132812 C 3.785156 12.132812 2.808594 11.152344 2.808594 9.941406 C 2.808594 8.71875 3.785156 7.75 5 7.75 C 6.210938 7.75 7.195312 8.71875 7.195312 9.941406 Z M 7.195312 9.941406 "/>
<path fill-rule="nonzero" fill="rgb(17.647059%, 17.647059%, 17.647059%)" fill-opacity="1" d="M 7.195312 15.140625 C 7.195312 16.34375 6.210938 17.332031 5 17.332031 C 3.785156 17.332031 2.808594 16.34375 2.808594 15.140625 C 2.808594 13.933594 3.785156 12.949219 5 12.949219 C 6.210938 12.949219 7.195312 13.933594 7.195312 15.140625 Z M 7.195312 15.140625 "/>
<path fill-rule="nonzero" fill="rgb(17.647059%, 17.647059%, 17.647059%)" fill-opacity="1" d="M 7.195312 20.34375 C 7.195312 21.5625 6.210938 22.535156 5 22.535156 C 3.792969 22.535156 2.808594 21.5625 2.808594 20.34375 C 2.808594 19.128906 3.792969 18.152344 5 18.152344 C 6.210938 18.152344 7.195312 19.128906 7.195312 20.34375 Z M 7.195312 20.34375 "/>
<path fill-rule="nonzero" fill="rgb(17.647059%, 17.647059%, 17.647059%)" fill-opacity="1" d="M 7.195312 25.542969 C 7.195312 26.753906 6.210938 27.734375 5 27.734375 C 3.785156 27.734375 2.808594 26.753906 2.808594 25.542969 C 2.808594 24.328125 3.785156 23.355469 5 23.355469 C 6.210938 23.355469 7.195312 24.328125 7.195312 25.542969 Z M 7.195312 25.542969 "/>
<path fill-rule="nonzero" fill="rgb(17.647059%, 17.647059%, 17.647059%)" fill-opacity="1" d="M 2.570312 37.277344 C 2.570312 37.621094 2.300781 37.886719 1.957031 37.886719 C 1.628906 37.886719 1.351562 37.621094 1.351562 37.277344 C 1.351562 36.949219 1.628906 36.675781 1.957031 36.675781 C 2.300781 36.675781 2.570312 36.949219 2.570312 37.277344 Z M 2.570312 37.277344 "/>
<path fill-rule="nonzero" fill="rgb(17.647059%, 17.647059%, 17.647059%)" fill-opacity="1" d="M 4.597656 37.277344 C 4.597656 37.621094 4.328125 37.886719 3.984375 37.886719 C 3.652344 37.886719 3.378906 37.621094 3.378906 37.277344 C 3.378906 36.949219 3.652344 36.675781 3.984375 36.675781 C 4.328125 36.675781 4.597656 36.949219 4.597656 37.277344 Z M 4.597656 37.277344 "/>
<path fill-rule="nonzero" fill="rgb(17.647059%, 17.647059%, 17.647059%)" fill-opacity="1" d="M 6.621094 37.277344 C 6.621094 37.621094 6.351562 37.886719 6.011719 37.886719 C 5.675781 37.886719 5.40625 37.621094 5.40625 37.277344 C 5.40625 36.949219 5.675781 36.675781 6.011719 36.675781 C 6.351562 36.675781 6.621094 36.949219 6.621094 37.277344 Z M 6.621094 37.277344 "/>
<path fill-rule="nonzero" fill="rgb(17.647059%, 17.647059%, 17.647059%)" fill-opacity="1" d="M 8.640625 37.277344 C 8.640625 37.621094 8.375 37.886719 8.039062 37.886719 C 7.703125 37.886719 7.433594 37.621094 7.433594 37.277344 C 7.433594 36.949219 7.703125 36.675781 8.039062 36.675781 C 8.375 36.675781 8.640625 36.949219 8.640625 37.277344 Z M 8.640625 37.277344 "/>
<path fill-rule="nonzero" fill="rgb(17.647059%, 17.647059%, 17.647059%)" fill-opacity="1" d="M 2.570312 39.101562 C 2.570312 39.429688 2.300781 39.707031 1.957031 39.707031 C 1.628906 39.707031 1.351562 39.429688 1.351562 39.101562 C 1.351562 38.761719 1.628906 38.492188 1.957031 38.492188 C 2.300781 38.492188 2.570312 38.761719 2.570312 39.101562 Z M 2.570312 39.101562 "/>
<path fill-rule="nonzero" fill="rgb(17.647059%, 17.647059%, 17.647059%)" fill-opacity="1" d="M 4.597656 39.101562 C 4.597656 39.429688 4.328125 39.707031 3.984375 39.707031 C 3.652344 39.707031 3.378906 39.429688 3.378906 39.101562 C 3.378906 38.761719 3.652344 38.492188 3.984375 38.492188 C 4.328125 38.492188 4.597656 38.761719 4.597656 39.101562 Z M 4.597656 39.101562 "/>
<path fill-rule="nonzero" fill="rgb(17.647059%, 17.647059%, 17.647059%)" fill-opacity="1" d="M 6.621094 39.101562 C 6.621094 39.429688 6.351562 39.707031 6.011719 39.707031 C 5.675781 39.707031 5.40625 39.429688 5.40625 39.101562 C 5.40625 38.761719 5.675781 38.492188 6.011719 38.492188 C 6.351562 38.492188 6.621094 38.761719 6.621094 39.101562 Z M 6.621094 39.101562 "/>
<path fill-rule="nonzero" fill="rgb(17.647059%, 17.647059%, 17.647059%)" fill-opacity="1" d="M 8.640625 39.101562 C 8.640625 39.429688 8.375 39.707031 8.039062 39.707031 C 7.703125 39.707031 7.433594 39.429688 7.433594 39.101562 C 7.433594 38.761719 7.703125 38.492188 8.039062 38.492188 C 8.375 38.492188 8.640625 38.761719 8.640625 39.101562 Z M 8.640625 39.101562 "/>
<path fill-rule="nonzero" fill="rgb(17.647059%, 17.647059%, 17.647059%)" fill-opacity="1" d="M 7.195312 30.75 C 7.195312 31.953125 6.210938 32.933594 5 32.933594 C 3.785156 32.933594 2.808594 31.953125 2.808594 30.75 C 2.808594 29.527344 3.785156 28.558594 5 28.558594 C 6.210938 28.558594 7.195312 29.527344 7.195312 30.75 Z M 7.195312 30.75 "/>
</svg>
