<?xml version="1.0" encoding="UTF-8"?>
<svg xmlns="http://www.w3.org/2000/svg" xmlns:xlink="http://www.w3.org/1999/xlink" width="8" height="31.848401" viewBox="0 0 8 31.848401">
<path fill-rule="nonzero" fill="rgb(100%, 100%, 100%)" fill-opacity="1" d="M 0 0 L 8 0 L 8 31.847656 L 0 31.847656 Z M 0 0 "/>
<path fill-rule="nonzero" fill="rgb(100%, 100%, 100%)" fill-opacity="1" d="M 0.132812 31.710938 L 7.863281 31.710938 L 7.863281 0.136719 L 0.132812 0.136719 Z M 0.132812 31.710938 "/>
<path fill="none" stroke-width="3.45398" stroke-linecap="round" stroke-linejoin="miter" stroke="rgb(12.156863%, 10.196078%, 9.019608%)" stroke-opacity="1" stroke-miterlimit="10" d="M 2750.073125 -4903.762918 L 2848.407143 -4903.762918 L 2848.407143 -5305.647057 L 2750.073125 -5305.647057 Z M 2750.073125 -4903.762918 " transform="matrix(0.0785747, 0, 0, 0.0785655, -215.949355, 416.977407)"/>
<path fill-rule="nonzero" fill="rgb(12.156863%, 10.196078%, 9.019608%)" fill-opacity="1" d="M 0.132812 19.980469 L 7.863281 19.980469 L 7.863281 17.496094 L 0.132812 17.496094 Z M 0.132812 19.980469 "/>
<path fill="none" stroke-width="3.45398" stroke-linecap="round" stroke-linejoin="miter" stroke="rgb(12.156863%, 10.196078%, 9.019608%)" stroke-opacity="1" stroke-miterlimit="10" d="M 2750.072981 -5053.07118 L 2848.406995 -5053.07118 L 2848.406995 -5084.692894 L 2750.072981 -5084.692894 Z M 2750.072981 -5053.07118 " transform="matrix(0.0785747, 0, 0, 0.0785655, -215.949355, 416.977407)"/>
<path fill-rule="nonzero" fill="rgb(12.156863%, 10.196078%, 9.019608%)" fill-opacity="1" d="M 0.132812 14.269531 L 7.863281 14.269531 L 7.863281 11.773438 L 0.132812 11.773438 Z M 0.132812 14.269531 "/>
<path fill="none" stroke-width="3.45398" stroke-linecap="round" stroke-linejoin="miter" stroke="rgb(12.156863%, 10.196078%, 9.019608%)" stroke-opacity="1" stroke-miterlimit="10" d="M 2750.072981 -5125.761346 L 2848.406995 -5125.761346 L 2848.406995 -5157.53222 L 2750.072981 -5157.53222 Z M 2750.072981 -5125.761346 " transform="matrix(0.0785747, 0, 0, 0.0785655, -215.949355, 416.977407)"/>
</svg>
