<?xml version="1.0" encoding="UTF-8"?>
<svg xmlns="http://www.w3.org/2000/svg" xmlns:xlink="http://www.w3.org/1999/xlink" width="8" height="31.171929" viewBox="0 0 8 31.171929">
<path fill-rule="nonzero" fill="rgb(100%, 100%, 100%)" fill-opacity="1" d="M 0 0 L 8 0 L 8 31.171875 L 0 31.171875 Z M 0 0 "/>
<path fill-rule="nonzero" fill="rgb(100%, 100%, 100%)" fill-opacity="1" d="M 0.136719 31.039062 L 7.863281 31.039062 L 7.863281 0.136719 L 0.136719 0.136719 Z M 0.136719 31.039062 "/>
<path fill="none" stroke-width="3.4274" stroke-linecap="round" stroke-linejoin="miter" stroke="rgb(12.156863%, 10.196078%, 9.019608%)" stroke-opacity="1" stroke-miterlimit="10" d="M 3408.18099 -6197.681467 L 3506.209249 -6197.681467 L 3506.209249 -6589.6891 L 3408.18099 -6589.6891 Z M 3408.18099 -6197.681467 " transform="matrix(0.0788197, 0, 0, 0.078821, -268.495242, 519.542668)"/>
<path fill-rule="nonzero" fill="rgb(12.156863%, 10.196078%, 9.019608%)" fill-opacity="1" d="M 0.136719 24.714844 L 7.835938 20.417969 L 7.835938 23.136719 L 0.136719 27.367188 Z M 0.136719 24.714844 "/>
<path fill="none" stroke-width="3.4274" stroke-linecap="round" stroke-linejoin="miter" stroke="rgb(12.156863%, 10.196078%, 9.019608%)" stroke-opacity="1" stroke-miterlimit="10" d="M 3408.18066 -6277.866819 L 3505.861995 -6332.43071 L 3505.861995 -6297.888446 L 3408.18066 -6244.216607 Z M 3408.18066 -6277.866819 " transform="matrix(0.0788198, 0, 0, 0.078821, -268.495242, 519.542668)"/>
<path fill-rule="nonzero" fill="rgb(12.156863%, 10.196078%, 9.019608%)" fill-opacity="1" d="M 0.136719 19.109375 L 7.835938 14.785156 L 7.835938 17.542969 L 0.136719 21.75 Z M 0.136719 19.109375 "/>
<path fill="none" stroke-width="3.4274" stroke-linecap="round" stroke-linejoin="miter" stroke="rgb(12.156863%, 10.196078%, 9.019608%)" stroke-opacity="1" stroke-miterlimit="10" d="M 3408.18066 -6349.032803 L 3505.861995 -6403.844487 L 3505.861995 -6368.856197 L 3408.18066 -6315.531267 Z M 3408.18066 -6349.032803 " transform="matrix(0.0788198, 0, 0, 0.078821, -268.495242, 519.542668)"/>
<path fill-rule="nonzero" fill="rgb(12.156863%, 10.196078%, 9.019608%)" fill-opacity="1" d="M 0.136719 13.515625 L 7.835938 9.191406 L 7.835938 11.949219 L 0.136719 16.15625 Z M 0.136719 13.515625 "/>
<path fill="none" stroke-width="3.4274" stroke-linecap="round" stroke-linejoin="miter" stroke="rgb(12.156863%, 10.196078%, 9.019608%)" stroke-opacity="1" stroke-miterlimit="10" d="M 3408.18066 -6420.000553 L 3505.861995 -6474.812237 L 3505.861995 -6439.823947 L 3408.18066 -6386.499017 Z M 3408.18066 -6420.000553 " transform="matrix(0.0788198, 0, 0, 0.078821, -268.495242, 519.542668)"/>
<path fill-rule="nonzero" fill="rgb(12.156863%, 10.196078%, 9.019608%)" fill-opacity="1" d="M 0.136719 7.898438 L 7.835938 3.601562 L 7.835938 6.320312 L 0.136719 10.554688 Z M 0.136719 7.898438 "/>
<path fill="none" stroke-width="3.4274" stroke-linecap="round" stroke-linejoin="miter" stroke="rgb(12.156863%, 10.196078%, 9.019608%)" stroke-opacity="1" stroke-miterlimit="10" d="M 3408.18066 -6491.265654 L 3505.861995 -6545.779988 L 3505.861995 -6511.287282 L 3408.18066 -6457.516326 Z M 3408.18066 -6491.265654 " transform="matrix(0.0788198, 0, 0, 0.078821, -268.495242, 519.542668)"/>
</svg>
