<?xml version="1.0" encoding="UTF-8"?>
<svg xmlns="http://www.w3.org/2000/svg" xmlns:xlink="http://www.w3.org/1999/xlink" width="8" height="31.745693" viewBox="0 0 8 31.745693">
<path fill-rule="nonzero" fill="rgb(100%, 100%, 100%)" fill-opacity="1" d="M 0.132812 0.132812 L 8 0.132812 L 8 31.746094 L 0.132812 31.746094 Z M 0.132812 0.132812 "/>
<path fill-rule="nonzero" fill="rgb(100%, 100%, 100%)" fill-opacity="1" stroke-width="3.45398" stroke-linecap="round" stroke-linejoin="miter" stroke="rgb(12.156863%, 10.196078%, 9.019608%)" stroke-opacity="1" stroke-miterlimit="10" d="M 3405.98317 -4904.10818 L 3505.557437 -4904.10818 L 3505.557437 -5309.442963 L 3405.98317 -5309.442963 Z M 3405.98317 -4904.10818 " transform="matrix(0.0776744, 0, 0, 0.0776654, -264.425007, 412.492571)"/>
<path fill-rule="nonzero" fill="rgb(12.156863%, 10.196078%, 9.019608%)" fill-opacity="1" d="M 0.132812 25.644531 L 7.867188 25.644531 L 7.867188 23.125 L 0.132812 23.125 Z M 0.132812 25.644531 "/>
<path fill="none" stroke-width="3.45398" stroke-linecap="round" stroke-linejoin="miter" stroke="rgb(12.156863%, 10.196078%, 9.019608%)" stroke-opacity="1" stroke-miterlimit="10" d="M 3405.982992 -4981.010709 L 3505.557255 -4981.010709 L 3505.557255 -5013.401279 L 3405.982992 -5013.401279 Z M 3405.982992 -4981.010709 " transform="matrix(0.0776744, 0, 0, 0.0776654, -264.425007, 412.492571)"/>
<path fill-rule="nonzero" fill="rgb(12.156863%, 10.196078%, 9.019608%)" fill-opacity="1" stroke-width="3.45398" stroke-linecap="round" stroke-linejoin="miter" stroke="rgb(12.156863%, 10.196078%, 9.019608%)" stroke-opacity="1" stroke-miterlimit="10" d="M 3405.982992 -5054.543339 L 3505.557255 -5054.543339 L 3505.557255 -5086.632133 L 3405.982992 -5086.632133 Z M 3405.982992 -5054.543339 " transform="matrix(0.0776744, 0, 0, 0.0776654, -264.425007, 412.492571)"/>
<path fill-rule="nonzero" fill="rgb(12.156863%, 10.196078%, 9.019608%)" fill-opacity="1" stroke-width="3.45398" stroke-linecap="round" stroke-linejoin="miter" stroke="rgb(12.156863%, 10.196078%, 9.019608%)" stroke-opacity="1" stroke-miterlimit="10" d="M 3405.982992 -5128.075968 L 3505.557255 -5128.075968 L 3505.557255 -5160.064171 L 3405.982992 -5160.064171 Z M 3405.982992 -5128.075968 " transform="matrix(0.0776744, 0, 0, 0.0776654, -264.425007, 412.492571)"/>
<path fill-rule="nonzero" fill="rgb(12.156863%, 10.196078%, 9.019608%)" fill-opacity="1" stroke-width="3.45398" stroke-linecap="round" stroke-linejoin="miter" stroke="rgb(12.156863%, 10.196078%, 9.019608%)" stroke-opacity="1" stroke-miterlimit="10" d="M 3405.982992 -5201.558302 L 3505.557255 -5201.558302 L 3505.557255 -5233.5968 L 3405.982992 -5233.5968 Z M 3405.982992 -5201.558302 " transform="matrix(0.0776744, 0, 0, 0.0776654, -264.425007, 412.492571)"/>
</svg>
