<?xml version="1.0" encoding="UTF-8"?>
<svg xmlns="http://www.w3.org/2000/svg" xmlns:xlink="http://www.w3.org/1999/xlink" width="8" height="31.175163" viewBox="0 0 8 31.175163">
<path fill-rule="nonzero" fill="rgb(100%, 100%, 100%)" fill-opacity="1" stroke-width="3.4274" stroke-linecap="round" stroke-linejoin="miter" stroke="rgb(12.156863%, 10.196078%, 9.019608%)" stroke-opacity="1" stroke-miterlimit="10" d="M 2739.99114 -6198.373134 L 2838.029056 -6198.373134 L 2838.029056 -6590.468951 L 2739.99114 -6590.468951 Z M 2739.99114 -6198.373134 " transform="matrix(0.078812, 0, 0, 0.0788132, -215.807413, 519.552965)"/>
<path fill-rule="nonzero" fill="rgb(12.156863%, 10.196078%, 9.019608%)" fill-opacity="1" d="M 0.136719 19.089844 L 7.839844 14.792969 L 7.839844 17.511719 L 0.136719 21.746094 Z M 0.136719 19.089844 "/>
<path fill="none" stroke-width="3.4274" stroke-linecap="round" stroke-linejoin="miter" stroke="rgb(12.156863%, 10.196078%, 9.019608%)" stroke-opacity="1" stroke-miterlimit="10" d="M 2739.990874 -6350.036761 L 2837.731396 -6404.556465 L 2837.731396 -6370.060362 L 2739.990874 -6316.284108 Z M 2739.990874 -6350.036761 " transform="matrix(0.078812, 0, 0, 0.0788132, -215.807413, 519.552965)"/>
<path fill-rule="nonzero" fill="rgb(12.156863%, 10.196078%, 9.019608%)" fill-opacity="1" d="M 0.136719 13.488281 L 7.839844 9.199219 L 7.839844 11.917969 L 0.136719 16.152344 Z M 0.136719 13.488281 "/>
<path fill="none" stroke-width="3.4274" stroke-linecap="round" stroke-linejoin="miter" stroke="rgb(12.156863%, 10.196078%, 9.019608%)" stroke-opacity="1" stroke-miterlimit="10" d="M 2739.990874 -6421.061067 L 2837.731396 -6475.531207 L 2837.731396 -6440.98554 L 2739.990874 -6387.25885 Z M 2739.990874 -6421.061067 " transform="matrix(0.078812, 0, 0, 0.0788132, -215.807413, 519.552965)"/>
</svg>
