<?xml version="1.0" encoding="UTF-8"?>
<svg xmlns="http://www.w3.org/2000/svg" xmlns:xlink="http://www.w3.org/1999/xlink" width="8" height="31.080801" viewBox="0 0 8 31.080801">
<path fill-rule="nonzero" fill="rgb(100%, 100%, 100%)" fill-opacity="1" d="M 0 0 L 8 0 L 8 31.082031 L 0 31.082031 Z M 0 0 "/>
<path fill-rule="nonzero" fill="rgb(100%, 100%, 100%)" fill-opacity="1" d="M 0.132812 30.949219 L 7.828125 30.949219 L 7.828125 0.101562 L 0.132812 0.101562 Z M 0.132812 30.949219 "/>
<path fill="none" stroke-width="3.4274" stroke-linecap="round" stroke-linejoin="miter" stroke="rgb(12.156863%, 10.196078%, 9.019608%)" stroke-opacity="1" stroke-miterlimit="10" d="M 3077.640956 -6197.955207 L 3176.448305 -6197.955207 L 3176.448305 -6593.829953 L 3077.640956 -6593.829953 Z M 3077.640956 -6197.955207 " transform="matrix(0.0779215, 0, 0, 0.0779228, -239.681647, 513.911048)"/>
<path fill-rule="nonzero" fill="rgb(12.156863%, 10.196078%, 9.019608%)" fill-opacity="1" d="M 0.164062 23.660156 L 7.867188 19.363281 L 7.867188 22.085938 L 0.164062 26.300781 Z M 0.164062 23.660156 "/>
<path fill="none" stroke-width="3.4274" stroke-linecap="round" stroke-linejoin="miter" stroke="rgb(12.156863%, 10.196078%, 9.019608%)" stroke-opacity="1" stroke-miterlimit="10" d="M 3078.041703 -6291.547195 L 3176.899173 -6346.689933 L 3176.899173 -6311.699359 L 3078.041703 -6257.659476 Z M 3078.041703 -6291.547195 " transform="matrix(0.0779215, 0, 0, 0.0779228, -239.681647, 513.911048)"/>
<path fill-rule="nonzero" fill="rgb(12.156863%, 10.196078%, 9.019608%)" fill-opacity="1" d="M 0.164062 18.070312 L 7.867188 13.773438 L 7.867188 16.492188 L 0.164062 20.734375 Z M 0.164062 18.070312 "/>
<path fill="none" stroke-width="3.4274" stroke-linecap="round" stroke-linejoin="miter" stroke="rgb(12.156863%, 10.196078%, 9.019608%)" stroke-opacity="1" stroke-miterlimit="10" d="M 3078.041703 -6363.282884 L 3176.899173 -6418.425622 L 3176.899173 -6383.535308 L 3078.041703 -6329.094386 Z M 3078.041703 -6363.282884 " transform="matrix(0.0779215, 0, 0, 0.0779228, -239.681647, 513.911048)"/>
<path fill-rule="nonzero" fill="rgb(12.156863%, 10.196078%, 9.019608%)" fill-opacity="1" d="M 0.164062 12.480469 L 7.867188 8.175781 L 7.867188 10.902344 L 0.164062 15.113281 Z M 0.164062 12.480469 "/>
<path fill="none" stroke-width="3.4274" stroke-linecap="round" stroke-linejoin="miter" stroke="rgb(12.156863%, 10.196078%, 9.019608%)" stroke-opacity="1" stroke-miterlimit="10" d="M 3078.041703 -6435.018573 L 3176.899173 -6490.26157 L 3176.899173 -6455.270997 L 3078.041703 -6401.180984 Z M 3078.041703 -6435.018573 " transform="matrix(0.0779215, 0, 0, 0.0779228, -239.681647, 513.911048)"/>
</svg>
