<?xml version="1.0" encoding="UTF-8"?>
<svg xmlns="http://www.w3.org/2000/svg" xmlns:xlink="http://www.w3.org/1999/xlink" width="10" height="10.003389" viewBox="0 0 10 10.003389">
<path fill="none" stroke-width="0.6" stroke-linecap="butt" stroke-linejoin="miter" stroke="rgb(100%, 100%, 100%)" stroke-opacity="1" stroke-miterlimit="4" d="M 0.182899 0.0609587 L 156.073792 0.0609587 L 156.073792 156.13475 L 0.182899 156.13475 Z M 0.182899 0.0609587 " transform="matrix(0.0640723, 0, 0, 0.0640723, 0, 0.000000488833)"/>
<path fill-rule="nonzero" fill="rgb(100%, 100%, 100%)" fill-opacity="1" d="M 0.0117188 0.00390625 L 10 0.00390625 L 10 10.003906 L 0.0117188 10.003906 Z M 0.0117188 0.00390625 "/>
<path fill="none" stroke-width="0.16" stroke-linecap="butt" stroke-linejoin="miter" stroke="rgb(0%, 0%, 0%)" stroke-opacity="1" stroke-miterlimit="10" d="M 148.513967 7.437884 L 148.513967 148.392027 " transform="matrix(0.0640723, 0, 0, 0.0640723, 0, 0.000000488833)"/>
<path fill="none" stroke-width="0.16" stroke-linecap="butt" stroke-linejoin="miter" stroke="rgb(0%, 0%, 0%)" stroke-opacity="1" stroke-miterlimit="10" d="M 148.513967 148.392027 L 7.742723 148.392027 " transform="matrix(0.0640723, 0, 0, 0.0640723, 0, 0.000000488833)"/>
<path fill="none" stroke-width="0.16" stroke-linecap="butt" stroke-linejoin="miter" stroke="rgb(0%, 0%, 0%)" stroke-opacity="1" stroke-miterlimit="10" d="M 7.742723 148.392027 L 7.742723 7.437884 " transform="matrix(0.0640723, 0, 0, 0.0640723, 0, 0.000000488833)"/>
<path fill="none" stroke-width="0.16" stroke-linecap="butt" stroke-linejoin="miter" stroke="rgb(0%, 0%, 0%)" stroke-opacity="1" stroke-miterlimit="10" d="M 7.742723 7.437884 L 148.513967 7.437884 " transform="matrix(0.0640723, 0, 0, 0.0640723, 0, 0.000000488833)"/>
<path fill="none" stroke-width="0.16" stroke-linecap="butt" stroke-linejoin="miter" stroke="rgb(0%, 0%, 0%)" stroke-opacity="1" stroke-miterlimit="10" d="M 155.890893 149.67232 L 156.073792 149.67232 " transform="matrix(0.0640723, 0, 0, 0.0640723, 0, 0.000000488833)"/>
<path fill="none" stroke-width="0.16" stroke-linecap="butt" stroke-linejoin="miter" stroke="rgb(0%, 0%, 0%)" stroke-opacity="1" stroke-miterlimit="10" d="M 29.629634 148.392027 L 148.513967 29.507694 " transform="matrix(0.0640723, 0, 0, 0.0640723, 0, 0.000000488833)"/>
<path fill="none" stroke-width="0.16" stroke-linecap="butt" stroke-linejoin="miter" stroke="rgb(0%, 0%, 0%)" stroke-opacity="1" stroke-miterlimit="10" d="M 7.742723 126.322217 L 126.444158 7.437884 " transform="matrix(0.0640723, 0, 0, 0.0640723, 0, 0.000000488833)"/>
<path fill="none" stroke-width="0.16" stroke-linecap="butt" stroke-linejoin="miter" stroke="rgb(0%, 0%, 0%)" stroke-opacity="1" stroke-miterlimit="10" d="M 148.513967 29.507694 L 148.513967 7.437884 " transform="matrix(0.0640723, 0, 0, 0.0640723, 0, 0.000000488833)"/>
<path fill="none" stroke-width="0.16" stroke-linecap="butt" stroke-linejoin="miter" stroke="rgb(0%, 0%, 0%)" stroke-opacity="1" stroke-miterlimit="10" d="M 148.513967 7.437884 L 126.444158 7.437884 " transform="matrix(0.0640723, 0, 0, 0.0640723, 0, 0.000000488833)"/>
<path fill="none" stroke-width="0.16" stroke-linecap="butt" stroke-linejoin="miter" stroke="rgb(0%, 0%, 0%)" stroke-opacity="1" stroke-miterlimit="10" d="M 29.629634 148.392027 L 7.742723 148.392027 " transform="matrix(0.0640723, 0, 0, 0.0640723, 0, 0.000000488833)"/>
<path fill="none" stroke-width="0.16" stroke-linecap="butt" stroke-linejoin="miter" stroke="rgb(0%, 0%, 0%)" stroke-opacity="1" stroke-miterlimit="10" d="M 7.742723 148.392027 L 7.742723 126.322217 " transform="matrix(0.0640723, 0, 0, 0.0640723, 0, 0.000000488833)"/>
<path fill="none" stroke-width="0.16" stroke-linecap="butt" stroke-linejoin="miter" stroke="rgb(0%, 0%, 0%)" stroke-opacity="1" stroke-miterlimit="10" d="M 0.182899 155.890885 L 155.890893 155.890885 " transform="matrix(0.0640723, 0, 0, 0.0640723, 0, 0.000000488833)"/>
<path fill="none" stroke-width="0.16" stroke-linecap="butt" stroke-linejoin="miter" stroke="rgb(0%, 0%, 0%)" stroke-opacity="1" stroke-miterlimit="10" d="M 155.890893 155.890885 L 155.890893 0.0609587 " transform="matrix(0.0640723, 0, 0, 0.0640723, 0, 0.000000488833)"/>
<path fill="none" stroke-width="0.16" stroke-linecap="butt" stroke-linejoin="miter" stroke="rgb(0%, 0%, 0%)" stroke-opacity="1" stroke-miterlimit="10" d="M 155.890893 0.0609587 L 0.182899 0.0609587 " transform="matrix(0.0640723, 0, 0, 0.0640723, 0, 0.000000488833)"/>
<path fill="none" stroke-width="0.16" stroke-linecap="butt" stroke-linejoin="miter" stroke="rgb(0%, 0%, 0%)" stroke-opacity="1" stroke-miterlimit="10" d="M 0.182899 0.0609587 L 0.182899 155.890885 " transform="matrix(0.0640723, 0, 0, 0.0640723, 0, 0.000000488833)"/>
<path fill-rule="evenodd" fill="rgb(0%, 0%, 0%)" fill-opacity="1" d="M 0.496094 8.105469 L 0.496094 9.507812 L 8.101562 0.476562 L 0.496094 8.105469 "/>
<path fill="none" stroke-width="0.16" stroke-linecap="butt" stroke-linejoin="miter" stroke="rgb(0%, 0%, 0%)" stroke-opacity="1" stroke-miterlimit="10" d="M 7.742723 126.322217 L 7.742723 148.392027 L 126.444158 7.437884 L 7.742723 126.322217 " transform="matrix(0.0640723, 0, 0, 0.0640723, 0, 0.000000488833)"/>
<path fill-rule="evenodd" fill="rgb(0%, 0%, 0%)" fill-opacity="1" stroke-width="0.16" stroke-linecap="butt" stroke-linejoin="miter" stroke="rgb(0%, 0%, 0%)" stroke-opacity="1" stroke-miterlimit="10" d="M 29.629634 148.392027 L 126.444158 7.437884 L 7.742723 148.392027 L 29.629634 148.392027 " transform="matrix(0.0640723, 0, 0, 0.0640723, 0, 0.000000488833)"/>
<path fill-rule="evenodd" fill="rgb(0%, 0%, 0%)" fill-opacity="1" stroke-width="0.16" stroke-linecap="butt" stroke-linejoin="miter" stroke="rgb(0%, 0%, 0%)" stroke-opacity="1" stroke-miterlimit="10" d="M 126.444158 7.437884 L 29.629634 148.392027 L 148.513967 7.437884 L 126.444158 7.437884 " transform="matrix(0.0640723, 0, 0, 0.0640723, 0, 0.000000488833)"/>
<path fill-rule="evenodd" fill="rgb(0%, 0%, 0%)" fill-opacity="1" stroke-width="0.16" stroke-linecap="butt" stroke-linejoin="miter" stroke="rgb(0%, 0%, 0%)" stroke-opacity="1" stroke-miterlimit="10" d="M 148.513967 29.507694 L 148.513967 7.437884 L 29.629634 148.392027 L 148.513967 29.507694 " transform="matrix(0.0640723, 0, 0, 0.0640723, 0, 0.000000488833)"/>
<path fill-rule="evenodd" fill="rgb(0%, 0%, 0%)" fill-opacity="1" stroke-width="0.16" stroke-linecap="butt" stroke-linejoin="miter" stroke="rgb(0%, 0%, 0%)" stroke-opacity="1" stroke-miterlimit="10" d="M 148.513967 148.392027 L 0.182899 155.890885 L 155.890893 155.890885 L 148.513967 148.392027 " transform="matrix(0.0640723, 0, 0, 0.0640723, 0, 0.000000488833)"/>
<path fill-rule="evenodd" fill="rgb(0%, 0%, 0%)" fill-opacity="1" stroke-width="0.16" stroke-linecap="butt" stroke-linejoin="miter" stroke="rgb(0%, 0%, 0%)" stroke-opacity="1" stroke-miterlimit="10" d="M 7.742723 148.392027 L 0.182899 155.890885 L 148.513967 148.392027 L 7.742723 148.392027 " transform="matrix(0.0640723, 0, 0, 0.0640723, 0, 0.000000488833)"/>
<path fill-rule="evenodd" fill="rgb(0%, 0%, 0%)" fill-opacity="1" stroke-width="0.16" stroke-linecap="butt" stroke-linejoin="miter" stroke="rgb(0%, 0%, 0%)" stroke-opacity="1" stroke-miterlimit="10" d="M 7.742723 7.437884 L 0.182899 155.890885 L 7.742723 148.392027 L 7.742723 7.437884 " transform="matrix(0.0640723, 0, 0, 0.0640723, 0, 0.000000488833)"/>
<path fill-rule="evenodd" fill="rgb(0%, 0%, 0%)" fill-opacity="1" stroke-width="0.16" stroke-linecap="butt" stroke-linejoin="miter" stroke="rgb(0%, 0%, 0%)" stroke-opacity="1" stroke-miterlimit="10" d="M 148.513967 7.437884 L 148.513967 148.392027 L 155.890893 155.890885 L 148.513967 7.437884 " transform="matrix(0.0640723, 0, 0, 0.0640723, 0, 0.000000488833)"/>
<path fill-rule="evenodd" fill="rgb(0%, 0%, 0%)" fill-opacity="1" stroke-width="0.16" stroke-linecap="butt" stroke-linejoin="miter" stroke="rgb(0%, 0%, 0%)" stroke-opacity="1" stroke-miterlimit="10" d="M 155.890893 0.0609587 L 7.742723 7.437884 L 148.513967 7.437884 L 155.890893 0.0609587 " transform="matrix(0.0640723, 0, 0, 0.0640723, 0, 0.000000488833)"/>
<path fill-rule="evenodd" fill="rgb(0%, 0%, 0%)" fill-opacity="1" stroke-width="0.16" stroke-linecap="butt" stroke-linejoin="miter" stroke="rgb(0%, 0%, 0%)" stroke-opacity="1" stroke-miterlimit="10" d="M 155.890893 0.0609587 L 148.513967 7.437884 L 155.890893 155.890885 L 155.890893 0.0609587 " transform="matrix(0.0640723, 0, 0, 0.0640723, 0, 0.000000488833)"/>
<path fill-rule="evenodd" fill="rgb(0%, 0%, 0%)" fill-opacity="1" stroke-width="0.16" stroke-linecap="butt" stroke-linejoin="miter" stroke="rgb(0%, 0%, 0%)" stroke-opacity="1" stroke-miterlimit="10" d="M 0.182899 0.0609587 L 7.742723 7.437884 L 155.890893 0.0609587 L 0.182899 0.0609587 " transform="matrix(0.0640723, 0, 0, 0.0640723, 0, 0.000000488833)"/>
<path fill-rule="evenodd" fill="rgb(0%, 0%, 0%)" fill-opacity="1" stroke-width="0.16" stroke-linecap="butt" stroke-linejoin="miter" stroke="rgb(0%, 0%, 0%)" stroke-opacity="1" stroke-miterlimit="10" d="M 0.182899 0.0609587 L 0.182899 155.890885 L 7.742723 7.437884 L 0.182899 0.0609587 " transform="matrix(0.0640723, 0, 0, 0.0640723, 0, 0.000000488833)"/>
</svg>
