<?xml version="1.0" encoding="UTF-8"?>
<svg xmlns="http://www.w3.org/2000/svg" xmlns:xlink="http://www.w3.org/1999/xlink" width="18" height="17.994029" viewBox="0 0 18 17.994029">
<path fill-rule="nonzero" fill="rgb(12.156863%, 10.196078%, 9.019608%)" fill-opacity="1" stroke-width="1.27463" stroke-linecap="round" stroke-linejoin="miter" stroke="rgb(12.156863%, 10.196078%, 9.019608%)" stroke-opacity="1" stroke-miterlimit="10" d="M 2681.463419 -5134.657521 L 3124.991579 -5134.657521 L 3124.991579 -5578.078484 L 2681.463419 -5578.078484 Z M 2681.463419 -5134.657521 " transform="matrix(0.0404604, 0, 0, 0.0404613, -108.465653, 225.723872)"/>
<path fill-rule="nonzero" fill="rgb(100%, 100%, 100%)" fill-opacity="1" stroke-width="1.27463" stroke-linecap="round" stroke-linejoin="miter" stroke="rgb(12.156863%, 10.196078%, 9.019608%)" stroke-opacity="1" stroke-miterlimit="10" d="M 2705.792681 -5162.558152 L 3096.896841 -5162.558152 L 3096.896841 -5546.89492 L 2705.792681 -5546.89492 Z M 2705.792681 -5162.558152 " transform="matrix(0.0404604, 0, 0, 0.0404613, -108.465653, 225.723872)"/>
<path fill-rule="nonzero" fill="rgb(12.156863%, 10.196078%, 9.019608%)" fill-opacity="1" d="M 0.171875 0.0195312 L 2.996094 0.0195312 L 9.078125 11.039062 L 15.011719 0.0195312 L 17.835938 0.0195312 L 9.078125 16.835938 "/>
<path fill="none" stroke-width="1.27463" stroke-linecap="round" stroke-linejoin="miter" stroke="rgb(12.156863%, 10.196078%, 9.019608%)" stroke-opacity="1" stroke-miterlimit="10" d="M 2905.158401 -5162.654925 L 2685.035587 -5578.27157 L 2754.83769 -5578.27157 L 2905.158401 -5305.924403 L 3051.810398 -5578.27157 L 3121.6125 -5578.27157 Z M 2905.158401 -5162.654925 " transform="matrix(0.0404604, 0, 0, 0.0404613, -108.465653, 225.723872)"/>
</svg>
