<?xml version="1.0" encoding="UTF-8"?>
<svg xmlns="http://www.w3.org/2000/svg" xmlns:xlink="http://www.w3.org/1999/xlink" width="18" height="18.000011" viewBox="0 0 18 18.000011">
<path fill-rule="nonzero" fill="rgb(12.156863%, 10.196078%, 9.019608%)" fill-opacity="1" d="M 0.0273438 17.964844 L 17.972656 17.964844 L 17.972656 0.0234375 L 0.0273438 0.0234375 Z M 0.0273438 17.964844 "/>
<path fill="none" stroke-width="1.27463" stroke-linecap="round" stroke-linejoin="miter" stroke="rgb(12.156863%, 10.196078%, 9.019608%)" stroke-opacity="1" stroke-miterlimit="10" d="M 2681.371855 -6306.342191 L 3128.908642 -6306.342191 L 3128.908642 -6753.576109 L 2681.371855 -6753.576109 Z M 2681.371855 -6306.342191 " transform="matrix(0.0401154, 0, 0, 0.0401164, -107.540914, 270.956376)"/>
<path fill-rule="nonzero" fill="rgb(100%, 100%, 100%)" fill-opacity="1" stroke-width="1.27463" stroke-linecap="round" stroke-linejoin="miter" stroke="rgb(12.156863%, 10.196078%, 9.019608%)" stroke-opacity="1" stroke-miterlimit="10" d="M 2709.70796 -6337.89074 L 3104.175205 -6337.89074 L 3104.175205 -6725.532401 L 2709.70796 -6725.532401 Z M 2709.70796 -6337.89074 " transform="matrix(0.0401154, 0, 0, 0.0401164, -107.540914, 270.956376)"/>
<path fill-rule="nonzero" fill="rgb(12.156863%, 10.196078%, 9.019608%)" fill-opacity="1" d="M 15.003906 17.972656 L 8.921875 6.949219 L 2.988281 17.972656 L 0.164062 17.972656 L 8.921875 1.164062 L 17.828125 17.972656 "/>
<path fill="none" stroke-width="1.27463" stroke-linecap="round" stroke-linejoin="miter" stroke="rgb(12.156863%, 10.196078%, 9.019608%)" stroke-opacity="1" stroke-miterlimit="10" d="M 2903.192634 -6725.240282 L 3125.208264 -6306.244536 L 3054.80594 -6306.244536 L 2903.192634 -6581.030963 L 2755.27959 -6306.244536 L 2684.877265 -6306.244536 Z M 2903.192634 -6725.240282 " transform="matrix(0.0401154, 0, 0, 0.0401164, -107.540914, 270.956376)"/>
</svg>
