<?xml version="1.0" encoding="UTF-8"?>
<svg xmlns="http://www.w3.org/2000/svg" xmlns:xlink="http://www.w3.org/1999/xlink" width="8" height="31.955804" viewBox="0 0 8 31.955804">
<path fill-rule="nonzero" fill="rgb(100%, 100%, 100%)" fill-opacity="1" d="M 0 0 L 8 0 L 8 31.957031 L 0 31.957031 Z M 0 0 "/>
<path fill="none" stroke-width="0.16" stroke-linecap="butt" stroke-linejoin="miter" stroke="rgb(0%, 0%, 0%)" stroke-opacity="1" stroke-miterlimit="10" d="M 0.0848437 231.28404 L 57.835151 231.28404 " transform="matrix(0.138122, 0, 0, 0.138122, 0, 0)"/>
<path fill="none" stroke-width="0.16" stroke-linecap="butt" stroke-linejoin="miter" stroke="rgb(0%, 0%, 0%)" stroke-opacity="1" stroke-miterlimit="10" d="M 57.835151 231.28404 L 57.835151 0.0848437 " transform="matrix(0.138122, 0, 0, 0.138122, 0, 0)"/>
<path fill="none" stroke-width="0.16" stroke-linecap="butt" stroke-linejoin="miter" stroke="rgb(0%, 0%, 0%)" stroke-opacity="1" stroke-miterlimit="10" d="M 57.835151 0.0848437 L 0.0848437 0.0848437 " transform="matrix(0.138122, 0, 0, 0.138122, 0, 0)"/>
<path fill="none" stroke-width="0.16" stroke-linecap="butt" stroke-linejoin="miter" stroke="rgb(0%, 0%, 0%)" stroke-opacity="1" stroke-miterlimit="10" d="M 0.0848437 0.0848437 L 0.0848437 231.28404 " transform="matrix(0.138122, 0, 0, 0.138122, 0, 0)"/>
<path fill="none" stroke-width="0.16" stroke-linecap="butt" stroke-linejoin="miter" stroke="rgb(0%, 0%, 0%)" stroke-opacity="1" stroke-miterlimit="10" d="M 54.950463 228.399353 L 54.950463 2.969531 " transform="matrix(0.138122, 0, 0, 0.138122, 0, 0)"/>
<path fill="none" stroke-width="0.16" stroke-linecap="butt" stroke-linejoin="miter" stroke="rgb(0%, 0%, 0%)" stroke-opacity="1" stroke-miterlimit="10" d="M 54.950463 2.969531 L 3.110937 2.969531 " transform="matrix(0.138122, 0, 0, 0.138122, 0, 0)"/>
<path fill="none" stroke-width="0.16" stroke-linecap="butt" stroke-linejoin="miter" stroke="rgb(0%, 0%, 0%)" stroke-opacity="1" stroke-miterlimit="10" d="M 3.110937 2.969531 L 3.110937 228.399353 " transform="matrix(0.138122, 0, 0, 0.138122, 0, 0)"/>
<path fill="none" stroke-width="0.16" stroke-linecap="butt" stroke-linejoin="miter" stroke="rgb(0%, 0%, 0%)" stroke-opacity="1" stroke-miterlimit="10" d="M 3.110937 228.399353 L 54.950463 228.399353 " transform="matrix(0.138122, 0, 0, 0.138122, 0, 0)"/>
<path fill="none" stroke-width="0.16" stroke-linecap="butt" stroke-linejoin="miter" stroke="rgb(0%, 0%, 0%)" stroke-opacity="1" stroke-miterlimit="10" d="M 0.0848437 229.841696 L 0.22625 229.841696 " transform="matrix(0.138122, 0, 0, 0.138122, 0, 0)"/>
<path fill="none" stroke-width="0.16" stroke-linecap="butt" stroke-linejoin="miter" stroke="rgb(0%, 0%, 0%)" stroke-opacity="1" stroke-miterlimit="10" d="M 5.203749 195.282012 L 52.885932 195.282012 " transform="matrix(0.138122, 0, 0, 0.138122, 0, 0)"/>
<path fill="none" stroke-width="0.16" stroke-linecap="butt" stroke-linejoin="miter" stroke="rgb(0%, 0%, 0%)" stroke-opacity="1" stroke-miterlimit="10" d="M 5.203749 195.282012 L 29.044841 153.849985 " transform="matrix(0.138122, 0, 0, 0.138122, 0, 0)"/>
<path fill="none" stroke-width="0.16" stroke-linecap="butt" stroke-linejoin="miter" stroke="rgb(0%, 0%, 0%)" stroke-opacity="1" stroke-miterlimit="10" d="M 52.885932 195.282012 L 29.044841 153.849985 " transform="matrix(0.138122, 0, 0, 0.138122, 0, 0)"/>
<path fill="none" stroke-width="0.16" stroke-linecap="butt" stroke-linejoin="miter" stroke="rgb(0%, 0%, 0%)" stroke-opacity="1" stroke-miterlimit="10" d="M 5.203749 130.1503 L 52.885932 130.1503 " transform="matrix(0.138122, 0, 0, 0.138122, 0, 0)"/>
<path fill="none" stroke-width="0.16" stroke-linecap="butt" stroke-linejoin="miter" stroke="rgb(0%, 0%, 0%)" stroke-opacity="1" stroke-miterlimit="10" d="M 5.203749 130.1503 L 29.044841 88.88796 " transform="matrix(0.138122, 0, 0, 0.138122, 0, 0)"/>
<path fill="none" stroke-width="0.16" stroke-linecap="butt" stroke-linejoin="miter" stroke="rgb(0%, 0%, 0%)" stroke-opacity="1" stroke-miterlimit="10" d="M 52.885932 130.1503 L 29.044841 88.88796 " transform="matrix(0.138122, 0, 0, 0.138122, 0, 0)"/>
<path fill="none" stroke-width="0.16" stroke-linecap="butt" stroke-linejoin="miter" stroke="rgb(0%, 0%, 0%)" stroke-opacity="1" stroke-miterlimit="10" d="M 5.203749 65.188275 L 52.885932 65.188275 " transform="matrix(0.138122, 0, 0, 0.138122, 0, 0)"/>
<path fill="none" stroke-width="0.16" stroke-linecap="butt" stroke-linejoin="miter" stroke="rgb(0%, 0%, 0%)" stroke-opacity="1" stroke-miterlimit="10" d="M 5.203749 65.188275 L 29.044841 23.925935 " transform="matrix(0.138122, 0, 0, 0.138122, 0, 0)"/>
<path fill="none" stroke-width="0.16" stroke-linecap="butt" stroke-linejoin="miter" stroke="rgb(0%, 0%, 0%)" stroke-opacity="1" stroke-miterlimit="10" d="M 52.885932 65.188275 L 29.044841 23.925935 " transform="matrix(0.138122, 0, 0, 0.138122, 0, 0)"/>
<path fill-rule="evenodd" fill="rgb(0%, 0%, 0%)" fill-opacity="1" stroke-width="0.16" stroke-linecap="butt" stroke-linejoin="miter" stroke="rgb(0%, 0%, 0%)" stroke-opacity="1" stroke-miterlimit="10" d="M 5.203749 195.282012 L 3.110937 228.399353 L 54.950463 228.399353 L 5.203749 195.282012 " transform="matrix(0.138122, 0, 0, 0.138122, 0, 0)"/>
<path fill-rule="evenodd" fill="rgb(0%, 0%, 0%)" fill-opacity="1" stroke-width="0.16" stroke-linecap="butt" stroke-linejoin="miter" stroke="rgb(0%, 0%, 0%)" stroke-opacity="1" stroke-miterlimit="10" d="M 52.885932 195.282012 L 5.203749 195.282012 L 54.950463 228.399353 L 52.885932 195.282012 " transform="matrix(0.138122, 0, 0, 0.138122, 0, 0)"/>
<path fill-rule="evenodd" fill="rgb(0%, 0%, 0%)" fill-opacity="1" stroke-width="0.16" stroke-linecap="butt" stroke-linejoin="miter" stroke="rgb(0%, 0%, 0%)" stroke-opacity="1" stroke-miterlimit="10" d="M 52.885932 130.1503 L 29.044841 153.849985 L 52.885932 195.282012 L 52.885932 130.1503 " transform="matrix(0.138122, 0, 0, 0.138122, 0, 0)"/>
<path fill-rule="evenodd" fill="rgb(0%, 0%, 0%)" fill-opacity="1" stroke-width="0.16" stroke-linecap="butt" stroke-linejoin="miter" stroke="rgb(0%, 0%, 0%)" stroke-opacity="1" stroke-miterlimit="10" d="M 52.885932 130.1503 L 52.885932 195.282012 L 54.950463 228.399353 L 52.885932 130.1503 " transform="matrix(0.138122, 0, 0, 0.138122, 0, 0)"/>
<path fill-rule="evenodd" fill="rgb(0%, 0%, 0%)" fill-opacity="1" stroke-width="0.16" stroke-linecap="butt" stroke-linejoin="miter" stroke="rgb(0%, 0%, 0%)" stroke-opacity="1" stroke-miterlimit="10" d="M 5.203749 130.1503 L 29.044841 153.849985 L 52.885932 130.1503 L 5.203749 130.1503 " transform="matrix(0.138122, 0, 0, 0.138122, 0, 0)"/>
<path fill-rule="evenodd" fill="rgb(0%, 0%, 0%)" fill-opacity="1" stroke-width="0.16" stroke-linecap="butt" stroke-linejoin="miter" stroke="rgb(0%, 0%, 0%)" stroke-opacity="1" stroke-miterlimit="10" d="M 5.203749 130.1503 L 5.203749 195.282012 L 29.044841 153.849985 L 5.203749 130.1503 " transform="matrix(0.138122, 0, 0, 0.138122, 0, 0)"/>
<path fill-rule="evenodd" fill="rgb(0%, 0%, 0%)" fill-opacity="1" stroke-width="0.16" stroke-linecap="butt" stroke-linejoin="miter" stroke="rgb(0%, 0%, 0%)" stroke-opacity="1" stroke-miterlimit="10" d="M 5.203749 130.1503 L 3.110937 228.399353 L 5.203749 195.282012 L 5.203749 130.1503 " transform="matrix(0.138122, 0, 0, 0.138122, 0, 0)"/>
<path fill-rule="evenodd" fill="rgb(0%, 0%, 0%)" fill-opacity="1" stroke-width="0.16" stroke-linecap="butt" stroke-linejoin="miter" stroke="rgb(0%, 0%, 0%)" stroke-opacity="1" stroke-miterlimit="10" d="M 29.044841 88.88796 L 52.885932 65.188275 L 5.203749 65.188275 L 29.044841 88.88796 " transform="matrix(0.138122, 0, 0, 0.138122, 0, 0)"/>
<path fill-rule="evenodd" fill="rgb(0%, 0%, 0%)" fill-opacity="1" stroke-width="0.16" stroke-linecap="butt" stroke-linejoin="miter" stroke="rgb(0%, 0%, 0%)" stroke-opacity="1" stroke-miterlimit="10" d="M 52.885932 65.188275 L 29.044841 88.88796 L 52.885932 130.1503 L 52.885932 65.188275 " transform="matrix(0.138122, 0, 0, 0.138122, 0, 0)"/>
<path fill-rule="evenodd" fill="rgb(0%, 0%, 0%)" fill-opacity="1" stroke-width="0.16" stroke-linecap="butt" stroke-linejoin="miter" stroke="rgb(0%, 0%, 0%)" stroke-opacity="1" stroke-miterlimit="10" d="M 52.885932 65.188275 L 52.885932 130.1503 L 54.950463 228.399353 L 52.885932 65.188275 " transform="matrix(0.138122, 0, 0, 0.138122, 0, 0)"/>
<path fill-rule="evenodd" fill="rgb(0%, 0%, 0%)" fill-opacity="1" stroke-width="0.16" stroke-linecap="butt" stroke-linejoin="miter" stroke="rgb(0%, 0%, 0%)" stroke-opacity="1" stroke-miterlimit="10" d="M 5.203749 65.188275 L 5.203749 130.1503 L 29.044841 88.88796 L 5.203749 65.188275 " transform="matrix(0.138122, 0, 0, 0.138122, 0, 0)"/>
<path fill-rule="evenodd" fill="rgb(0%, 0%, 0%)" fill-opacity="1" stroke-width="0.16" stroke-linecap="butt" stroke-linejoin="miter" stroke="rgb(0%, 0%, 0%)" stroke-opacity="1" stroke-miterlimit="10" d="M 5.203749 65.188275 L 3.110937 228.399353 L 5.203749 130.1503 L 5.203749 65.188275 " transform="matrix(0.138122, 0, 0, 0.138122, 0, 0)"/>
<path fill-rule="evenodd" fill="rgb(0%, 0%, 0%)" fill-opacity="1" stroke-width="0.16" stroke-linecap="butt" stroke-linejoin="miter" stroke="rgb(0%, 0%, 0%)" stroke-opacity="1" stroke-miterlimit="10" d="M 3.110937 2.969531 L 5.203749 65.188275 L 29.044841 23.925935 L 3.110937 2.969531 " transform="matrix(0.138122, 0, 0, 0.138122, 0, 0)"/>
<path fill-rule="evenodd" fill="rgb(0%, 0%, 0%)" fill-opacity="1" stroke-width="0.16" stroke-linecap="butt" stroke-linejoin="miter" stroke="rgb(0%, 0%, 0%)" stroke-opacity="1" stroke-miterlimit="10" d="M 3.110937 2.969531 L 3.110937 228.399353 L 5.203749 65.188275 L 3.110937 2.969531 " transform="matrix(0.138122, 0, 0, 0.138122, 0, 0)"/>
<path fill-rule="evenodd" fill="rgb(0%, 0%, 0%)" fill-opacity="1" stroke-width="0.16" stroke-linecap="butt" stroke-linejoin="miter" stroke="rgb(0%, 0%, 0%)" stroke-opacity="1" stroke-miterlimit="10" d="M 29.044841 23.925935 L 54.950463 2.969531 L 3.110937 2.969531 L 29.044841 23.925935 " transform="matrix(0.138122, 0, 0, 0.138122, 0, 0)"/>
<path fill-rule="evenodd" fill="rgb(0%, 0%, 0%)" fill-opacity="1" stroke-width="0.16" stroke-linecap="butt" stroke-linejoin="miter" stroke="rgb(0%, 0%, 0%)" stroke-opacity="1" stroke-miterlimit="10" d="M 54.950463 2.969531 L 29.044841 23.925935 L 52.885932 65.188275 L 54.950463 2.969531 " transform="matrix(0.138122, 0, 0, 0.138122, 0, 0)"/>
<path fill-rule="evenodd" fill="rgb(0%, 0%, 0%)" fill-opacity="1" stroke-width="0.16" stroke-linecap="butt" stroke-linejoin="miter" stroke="rgb(0%, 0%, 0%)" stroke-opacity="1" stroke-miterlimit="10" d="M 54.950463 2.969531 L 52.885932 65.188275 L 54.950463 228.399353 L 54.950463 2.969531 " transform="matrix(0.138122, 0, 0, 0.138122, 0, 0)"/>
</svg>
