<?xml version="1.0" encoding="UTF-8"?>
<svg xmlns="http://www.w3.org/2000/svg" xmlns:xlink="http://www.w3.org/1999/xlink" width="8" height="31.955802" viewBox="0 0 8 31.955802">
<path fill-rule="nonzero" fill="rgb(100%, 100%, 100%)" fill-opacity="1" d="M 0 0 L 8 0 L 8 31.957031 L 0 31.957031 Z M 0 0 "/>
<path fill="none" stroke-width="0.16" stroke-linecap="butt" stroke-linejoin="miter" stroke="rgb(0%, 0%, 0%)" stroke-opacity="1" stroke-miterlimit="10" d="M 5.034062 65.188279 L 52.716248 65.188279 " transform="matrix(0.138122, 0, 0, 0.138122, 0, 0)"/>
<path fill="none" stroke-width="0.16" stroke-linecap="butt" stroke-linejoin="miter" stroke="rgb(0%, 0%, 0%)" stroke-opacity="1" stroke-miterlimit="10" d="M 5.034062 65.188279 L 28.875155 23.925937 " transform="matrix(0.138122, 0, 0, 0.138122, 0, 0)"/>
<path fill="none" stroke-width="0.16" stroke-linecap="butt" stroke-linejoin="miter" stroke="rgb(0%, 0%, 0%)" stroke-opacity="1" stroke-miterlimit="10" d="M 54.950467 228.399368 L 54.950467 2.969531 " transform="matrix(0.138122, 0, 0, 0.138122, 0, 0)"/>
<path fill="none" stroke-width="0.16" stroke-linecap="butt" stroke-linejoin="miter" stroke="rgb(0%, 0%, 0%)" stroke-opacity="1" stroke-miterlimit="10" d="M 54.950467 2.969531 L 2.969531 2.969531 " transform="matrix(0.138122, 0, 0, 0.138122, 0, 0)"/>
<path fill="none" stroke-width="0.16" stroke-linecap="butt" stroke-linejoin="miter" stroke="rgb(0%, 0%, 0%)" stroke-opacity="1" stroke-miterlimit="10" d="M 2.969531 2.969531 L 2.969531 228.399368 " transform="matrix(0.138122, 0, 0, 0.138122, 0, 0)"/>
<path fill="none" stroke-width="0.16" stroke-linecap="butt" stroke-linejoin="miter" stroke="rgb(0%, 0%, 0%)" stroke-opacity="1" stroke-miterlimit="10" d="M 2.969531 228.399368 L 54.950467 228.399368 " transform="matrix(0.138122, 0, 0, 0.138122, 0, 0)"/>
<path fill="none" stroke-width="0.16" stroke-linecap="butt" stroke-linejoin="miter" stroke="rgb(0%, 0%, 0%)" stroke-opacity="1" stroke-miterlimit="10" d="M 0.0848437 231.284055 L 57.835154 231.284055 " transform="matrix(0.138122, 0, 0, 0.138122, 0, 0)"/>
<path fill="none" stroke-width="0.16" stroke-linecap="butt" stroke-linejoin="miter" stroke="rgb(0%, 0%, 0%)" stroke-opacity="1" stroke-miterlimit="10" d="M 57.835154 231.284055 L 57.835154 0.0848437 " transform="matrix(0.138122, 0, 0, 0.138122, 0, 0)"/>
<path fill="none" stroke-width="0.16" stroke-linecap="butt" stroke-linejoin="miter" stroke="rgb(0%, 0%, 0%)" stroke-opacity="1" stroke-miterlimit="10" d="M 57.835154 0.0848437 L 0.0848437 0.0848437 " transform="matrix(0.138122, 0, 0, 0.138122, 0, 0)"/>
<path fill="none" stroke-width="0.16" stroke-linecap="butt" stroke-linejoin="miter" stroke="rgb(0%, 0%, 0%)" stroke-opacity="1" stroke-miterlimit="10" d="M 0.0848437 0.0848437 L 0.0848437 231.284055 " transform="matrix(0.138122, 0, 0, 0.138122, 0, 0)"/>
<path fill="none" stroke-width="0.16" stroke-linecap="butt" stroke-linejoin="miter" stroke="rgb(0%, 0%, 0%)" stroke-opacity="1" stroke-miterlimit="10" d="M 52.716248 65.188279 L 28.875155 23.925937 " transform="matrix(0.138122, 0, 0, 0.138122, 0, 0)"/>
<path fill-rule="evenodd" fill="rgb(0%, 0%, 0%)" fill-opacity="1" stroke-width="0.16" stroke-linecap="butt" stroke-linejoin="miter" stroke="rgb(0%, 0%, 0%)" stroke-opacity="1" stroke-miterlimit="10" d="M 52.716248 65.188279 L 2.969531 228.399368 L 54.950467 228.399368 L 52.716248 65.188279 " transform="matrix(0.138122, 0, 0, 0.138122, 0, 0)"/>
<path fill-rule="evenodd" fill="rgb(0%, 0%, 0%)" fill-opacity="1" stroke-width="0.16" stroke-linecap="butt" stroke-linejoin="miter" stroke="rgb(0%, 0%, 0%)" stroke-opacity="1" stroke-miterlimit="10" d="M 2.969531 228.399368 L 52.716248 65.188279 L 5.034062 65.188279 L 2.969531 228.399368 " transform="matrix(0.138122, 0, 0, 0.138122, 0, 0)"/>
<path fill-rule="evenodd" fill="rgb(0%, 0%, 0%)" fill-opacity="1" stroke-width="0.16" stroke-linecap="butt" stroke-linejoin="miter" stroke="rgb(0%, 0%, 0%)" stroke-opacity="1" stroke-miterlimit="10" d="M 2.969531 2.969531 L 5.034062 65.188279 L 28.875155 23.925937 L 2.969531 2.969531 " transform="matrix(0.138122, 0, 0, 0.138122, 0, 0)"/>
<path fill-rule="evenodd" fill="rgb(0%, 0%, 0%)" fill-opacity="1" stroke-width="0.16" stroke-linecap="butt" stroke-linejoin="miter" stroke="rgb(0%, 0%, 0%)" stroke-opacity="1" stroke-miterlimit="10" d="M 2.969531 2.969531 L 2.969531 228.399368 L 5.034062 65.188279 L 2.969531 2.969531 " transform="matrix(0.138122, 0, 0, 0.138122, 0, 0)"/>
<path fill-rule="evenodd" fill="rgb(0%, 0%, 0%)" fill-opacity="1" stroke-width="0.16" stroke-linecap="butt" stroke-linejoin="miter" stroke="rgb(0%, 0%, 0%)" stroke-opacity="1" stroke-miterlimit="10" d="M 28.875155 23.925937 L 54.950467 2.969531 L 2.969531 2.969531 L 28.875155 23.925937 " transform="matrix(0.138122, 0, 0, 0.138122, 0, 0)"/>
<path fill-rule="evenodd" fill="rgb(0%, 0%, 0%)" fill-opacity="1" stroke-width="0.16" stroke-linecap="butt" stroke-linejoin="miter" stroke="rgb(0%, 0%, 0%)" stroke-opacity="1" stroke-miterlimit="10" d="M 54.950467 2.969531 L 28.875155 23.925937 L 52.716248 65.188279 L 54.950467 2.969531 " transform="matrix(0.138122, 0, 0, 0.138122, 0, 0)"/>
<path fill-rule="evenodd" fill="rgb(0%, 0%, 0%)" fill-opacity="1" stroke-width="0.16" stroke-linecap="butt" stroke-linejoin="miter" stroke="rgb(0%, 0%, 0%)" stroke-opacity="1" stroke-miterlimit="10" d="M 54.950467 2.969531 L 52.716248 65.188279 L 54.950467 228.399368 L 54.950467 2.969531 " transform="matrix(0.138122, 0, 0, 0.138122, 0, 0)"/>
</svg>
