<?xml version="1.0" encoding="UTF-8"?>
<svg xmlns="http://www.w3.org/2000/svg" xmlns:xlink="http://www.w3.org/1999/xlink" width="10" height="19.385002" viewBox="0 0 10 19.385002">
<path fill-rule="nonzero" fill="rgb(0%, 0%, 0%)" fill-opacity="0.960784" d="M 2.566406 0.046875 L 0 1.316406 L 0.0507812 18.054688 L 2.617188 19.386719 L 7.753906 19.386719 L 10 18.054688 L 9.949219 1.316406 L 7.703125 0 Z M 2.566406 0.046875 "/>
<path fill-rule="nonzero" fill="rgb(17.647059%, 17.647059%, 17.647059%)" fill-opacity="1" d="M 7.15625 4.519531 C 7.15625 5.730469 6.175781 6.691406 4.972656 6.691406 C 3.769531 6.691406 2.792969 5.730469 2.792969 4.519531 C 2.792969 3.3125 3.769531 2.339844 4.972656 2.339844 C 6.175781 2.339844 7.15625 3.3125 7.15625 4.519531 Z M 7.15625 4.519531 "/>
<path fill-rule="nonzero" fill="rgb(0%, 78.431373%, 36.862745%)" fill-opacity="1" d="M 7.15625 9.691406 C 7.15625 10.898438 6.175781 11.871094 4.972656 11.871094 C 3.761719 11.871094 2.792969 10.898438 2.792969 9.691406 C 2.792969 8.476562 3.761719 7.511719 4.972656 7.511719 C 6.175781 7.511719 7.15625 8.476562 7.15625 9.691406 Z M 7.15625 9.691406 "/>
<path fill-rule="nonzero" fill="rgb(17.647059%, 17.647059%, 17.647059%)" fill-opacity="1" d="M 7.15625 14.863281 C 7.15625 16.0625 6.175781 17.042969 4.972656 17.042969 C 3.761719 17.042969 2.792969 16.0625 2.792969 14.863281 C 2.792969 13.664062 3.761719 12.683594 4.972656 12.683594 C 6.175781 12.683594 7.15625 13.664062 7.15625 14.863281 Z M 7.15625 14.863281 "/>
</svg>
