<?xml version="1.0" encoding="UTF-8"?>
<svg xmlns="http://www.w3.org/2000/svg" xmlns:xlink="http://www.w3.org/1999/xlink" width="8" height="32" viewBox="0 0 8 32">
<rect x="-0.8" y="-3.2" width="9.6" height="38.4" fill="rgb(100%, 100%, 100%)" fill-opacity="1"/>
<path fill="none" stroke-width="0.16" stroke-linecap="butt" stroke-linejoin="miter" stroke="rgb(0%, 0%, 0%)" stroke-opacity="1" stroke-miterlimit="10" d="M 5.027109 130.168243 L 52.728164 130.168243 " transform="matrix(0.138313, 0, 0, 0.138313, 0, 0)"/>
<path fill="none" stroke-width="0.16" stroke-linecap="butt" stroke-linejoin="miter" stroke="rgb(0%, 0%, 0%)" stroke-opacity="1" stroke-miterlimit="10" d="M 5.027109 130.168243 L 28.891758 88.878164 " transform="matrix(0.138313, 0, 0, 0.138313, 0, 0)"/>
<path fill="none" stroke-width="0.16" stroke-linecap="butt" stroke-linejoin="miter" stroke="rgb(0%, 0%, 0%)" stroke-opacity="1" stroke-miterlimit="10" d="M 5.027109 65.211211 L 52.728164 65.211211 " transform="matrix(0.138313, 0, 0, 0.138313, 0, 0)"/>
<path fill="none" stroke-width="0.16" stroke-linecap="butt" stroke-linejoin="miter" stroke="rgb(0%, 0%, 0%)" stroke-opacity="1" stroke-miterlimit="10" d="M 5.027109 65.211211 L 28.891758 23.921133 " transform="matrix(0.138313, 0, 0, 0.138313, 0, 0)"/>
<path fill="none" stroke-width="0.16" stroke-linecap="butt" stroke-linejoin="miter" stroke="rgb(0%, 0%, 0%)" stroke-opacity="1" stroke-miterlimit="10" d="M 54.789844 228.394571 L 54.789844 2.96543 " transform="matrix(0.138313, 0, 0, 0.138313, 0, 0)"/>
<path fill="none" stroke-width="0.16" stroke-linecap="butt" stroke-linejoin="miter" stroke="rgb(0%, 0%, 0%)" stroke-opacity="1" stroke-miterlimit="10" d="M 54.789844 2.96543 L 2.96543 2.96543 " transform="matrix(0.138313, 0, 0, 0.138313, 0, 0)"/>
<path fill="none" stroke-width="0.16" stroke-linecap="butt" stroke-linejoin="miter" stroke="rgb(0%, 0%, 0%)" stroke-opacity="1" stroke-miterlimit="10" d="M 2.96543 2.96543 L 2.96543 228.394571 " transform="matrix(0.138313, 0, 0, 0.138313, 0, 0)"/>
<path fill="none" stroke-width="0.16" stroke-linecap="butt" stroke-linejoin="miter" stroke="rgb(0%, 0%, 0%)" stroke-opacity="1" stroke-miterlimit="10" d="M 2.96543 228.394571 L 54.789844 228.394571 " transform="matrix(0.138313, 0, 0, 0.138313, 0, 0)"/>
<path fill="none" stroke-width="0.16" stroke-linecap="butt" stroke-linejoin="miter" stroke="rgb(0%, 0%, 0%)" stroke-opacity="1" stroke-miterlimit="10" d="M 0.0847266 231.275274 L 57.670547 231.275274 " transform="matrix(0.138313, 0, 0, 0.138313, 0, 0)"/>
<path fill="none" stroke-width="0.16" stroke-linecap="butt" stroke-linejoin="miter" stroke="rgb(0%, 0%, 0%)" stroke-opacity="1" stroke-miterlimit="10" d="M 57.670547 231.275274 L 57.670547 0.0847266 " transform="matrix(0.138313, 0, 0, 0.138313, 0, 0)"/>
<path fill="none" stroke-width="0.16" stroke-linecap="butt" stroke-linejoin="miter" stroke="rgb(0%, 0%, 0%)" stroke-opacity="1" stroke-miterlimit="10" d="M 57.670547 0.0847266 L 0.0847266 0.0847266 " transform="matrix(0.138313, 0, 0, 0.138313, 0, 0)"/>
<path fill="none" stroke-width="0.16" stroke-linecap="butt" stroke-linejoin="miter" stroke="rgb(0%, 0%, 0%)" stroke-opacity="1" stroke-miterlimit="10" d="M 0.0847266 0.0847266 L 0.0847266 231.275274 " transform="matrix(0.138313, 0, 0, 0.138313, 0, 0)"/>
<path fill="none" stroke-width="0.16" stroke-linecap="butt" stroke-linejoin="miter" stroke="rgb(0%, 0%, 0%)" stroke-opacity="1" stroke-miterlimit="10" d="M 52.728164 65.211211 L 28.891758 23.921133 " transform="matrix(0.138313, 0, 0, 0.138313, 0, 0)"/>
<path fill="none" stroke-width="0.16" stroke-linecap="butt" stroke-linejoin="miter" stroke="rgb(0%, 0%, 0%)" stroke-opacity="1" stroke-miterlimit="10" d="M 52.728164 130.168243 L 28.891758 88.878164 " transform="matrix(0.138313, 0, 0, 0.138313, 0, 0)"/>
<path fill="none" stroke-width="0.16" stroke-linecap="butt" stroke-linejoin="miter" stroke="rgb(0%, 0%, 0%)" stroke-opacity="1" stroke-miterlimit="10" d="M 57.670547 231.275274 L 57.84 231.275274 " transform="matrix(0.138313, 0, 0, 0.138313, 0, 0)"/>
<path fill-rule="evenodd" fill="rgb(0%, 0%, 0%)" fill-opacity="1" stroke-width="0.16" stroke-linecap="butt" stroke-linejoin="miter" stroke="rgb(0%, 0%, 0%)" stroke-opacity="1" stroke-miterlimit="10" d="M 52.728164 130.168243 L 2.96543 228.394571 L 54.789844 228.394571 L 52.728164 130.168243 " transform="matrix(0.138313, 0, 0, 0.138313, 0, 0)"/>
<path fill-rule="evenodd" fill="rgb(0%, 0%, 0%)" fill-opacity="1" stroke-width="0.16" stroke-linecap="butt" stroke-linejoin="miter" stroke="rgb(0%, 0%, 0%)" stroke-opacity="1" stroke-miterlimit="10" d="M 2.96543 228.394571 L 52.728164 130.168243 L 5.027109 130.168243 L 2.96543 228.394571 " transform="matrix(0.138313, 0, 0, 0.138313, 0, 0)"/>
<path fill-rule="evenodd" fill="rgb(0%, 0%, 0%)" fill-opacity="1" stroke-width="0.16" stroke-linecap="butt" stroke-linejoin="miter" stroke="rgb(0%, 0%, 0%)" stroke-opacity="1" stroke-miterlimit="10" d="M 28.891758 88.878164 L 52.728164 65.211211 L 5.027109 65.211211 L 28.891758 88.878164 " transform="matrix(0.138313, 0, 0, 0.138313, 0, 0)"/>
<path fill-rule="evenodd" fill="rgb(0%, 0%, 0%)" fill-opacity="1" stroke-width="0.16" stroke-linecap="butt" stroke-linejoin="miter" stroke="rgb(0%, 0%, 0%)" stroke-opacity="1" stroke-miterlimit="10" d="M 52.728164 65.211211 L 28.891758 88.878164 L 52.728164 130.168243 L 52.728164 65.211211 " transform="matrix(0.138313, 0, 0, 0.138313, 0, 0)"/>
<path fill-rule="evenodd" fill="rgb(0%, 0%, 0%)" fill-opacity="1" stroke-width="0.16" stroke-linecap="butt" stroke-linejoin="miter" stroke="rgb(0%, 0%, 0%)" stroke-opacity="1" stroke-miterlimit="10" d="M 52.728164 65.211211 L 52.728164 130.168243 L 54.789844 228.394571 L 52.728164 65.211211 " transform="matrix(0.138313, 0, 0, 0.138313, 0, 0)"/>
<path fill-rule="evenodd" fill="rgb(0%, 0%, 0%)" fill-opacity="1" stroke-width="0.16" stroke-linecap="butt" stroke-linejoin="miter" stroke="rgb(0%, 0%, 0%)" stroke-opacity="1" stroke-miterlimit="10" d="M 5.027109 65.211211 L 5.027109 130.168243 L 28.891758 88.878164 L 5.027109 65.211211 " transform="matrix(0.138313, 0, 0, 0.138313, 0, 0)"/>
<path fill-rule="evenodd" fill="rgb(0%, 0%, 0%)" fill-opacity="1" stroke-width="0.16" stroke-linecap="butt" stroke-linejoin="miter" stroke="rgb(0%, 0%, 0%)" stroke-opacity="1" stroke-miterlimit="10" d="M 5.027109 65.211211 L 2.96543 228.394571 L 5.027109 130.168243 L 5.027109 65.211211 " transform="matrix(0.138313, 0, 0, 0.138313, 0, 0)"/>
<path fill-rule="evenodd" fill="rgb(0%, 0%, 0%)" fill-opacity="1" stroke-width="0.16" stroke-linecap="butt" stroke-linejoin="miter" stroke="rgb(0%, 0%, 0%)" stroke-opacity="1" stroke-miterlimit="10" d="M 2.96543 2.96543 L 5.027109 65.211211 L 28.891758 23.921133 L 2.96543 2.96543 " transform="matrix(0.138313, 0, 0, 0.138313, 0, 0)"/>
<path fill-rule="evenodd" fill="rgb(0%, 0%, 0%)" fill-opacity="1" stroke-width="0.16" stroke-linecap="butt" stroke-linejoin="miter" stroke="rgb(0%, 0%, 0%)" stroke-opacity="1" stroke-miterlimit="10" d="M 2.96543 2.96543 L 2.96543 228.394571 L 5.027109 65.211211 L 2.96543 2.96543 " transform="matrix(0.138313, 0, 0, 0.138313, 0, 0)"/>
<path fill-rule="evenodd" fill="rgb(0%, 0%, 0%)" fill-opacity="1" stroke-width="0.16" stroke-linecap="butt" stroke-linejoin="miter" stroke="rgb(0%, 0%, 0%)" stroke-opacity="1" stroke-miterlimit="10" d="M 28.891758 23.921133 L 54.789844 2.96543 L 2.96543 2.96543 L 28.891758 23.921133 " transform="matrix(0.138313, 0, 0, 0.138313, 0, 0)"/>
<path fill-rule="evenodd" fill="rgb(0%, 0%, 0%)" fill-opacity="1" stroke-width="0.16" stroke-linecap="butt" stroke-linejoin="miter" stroke="rgb(0%, 0%, 0%)" stroke-opacity="1" stroke-miterlimit="10" d="M 54.789844 2.96543 L 28.891758 23.921133 L 52.728164 65.211211 L 54.789844 2.96543 " transform="matrix(0.138313, 0, 0, 0.138313, 0, 0)"/>
<path fill-rule="evenodd" fill="rgb(0%, 0%, 0%)" fill-opacity="1" stroke-width="0.16" stroke-linecap="butt" stroke-linejoin="miter" stroke="rgb(0%, 0%, 0%)" stroke-opacity="1" stroke-miterlimit="10" d="M 54.789844 2.96543 L 52.728164 65.211211 L 54.789844 228.394571 L 54.789844 2.96543 " transform="matrix(0.138313, 0, 0, 0.138313, 0, 0)"/>
</svg>
