<?xml version="1.0" encoding="UTF-8"?>
<svg xmlns="http://www.w3.org/2000/svg" xmlns:xlink="http://www.w3.org/1999/xlink" width="18" height="14.426988" viewBox="0 0 18 14.426988">
<path fill-rule="nonzero" fill="rgb(100%, 100%, 100%)" fill-opacity="1" d="M 0.742188 14.296875 L 0.617188 14.277344 L 0.488281 14.25 L 0.386719 14.1875 L 0.296875 14.109375 L 0.21875 14.019531 L 0.167969 13.914062 L 0.128906 13.804688 L 0.128906 0.621094 L 0.167969 0.511719 L 0.21875 0.40625 L 0.296875 0.316406 L 0.386719 0.238281 L 0.488281 0.175781 L 0.617188 0.140625 L 0.742188 0.128906 L 17.257812 0.128906 L 17.382812 0.140625 L 17.503906 0.175781 L 17.59375 0.238281 L 17.691406 0.316406 L 17.765625 0.40625 L 17.824219 0.511719 L 17.871094 0.621094 L 17.871094 13.804688 L 17.824219 13.914062 L 17.765625 14.019531 L 17.691406 14.109375 L 17.59375 14.1875 L 17.503906 14.25 L 17.382812 14.277344 L 17.257812 14.296875 "/>
<path fill="none" stroke-width="4.46411" stroke-linecap="round" stroke-linejoin="miter" stroke="rgb(12.156863%, 10.196078%, 9.019608%)" stroke-opacity="1" stroke-miterlimit="10" d="M 2093.159886 -3341.895276 L 2379.832603 -3341.895276 L 2382.001798 -3341.691918 L 2384.103206 -3341.081846 L 2385.662315 -3339.997272 L 2387.356999 -3338.641555 L 2388.644959 -3337.08248 L 2389.661769 -3335.252261 L 2390.475217 -3333.354257 L 2390.475217 -3104.576972 L 2389.661769 -3102.678968 L 2388.644959 -3100.848749 L 2387.356999 -3099.289675 L 2385.662315 -3097.933957 L 2384.103206 -3096.849383 L 2382.001798 -3096.374882 L 2379.832603 -3096.035953 L 2093.159886 -3096.035953 L 2090.990691 -3096.374882 L 2088.821495 -3096.849383 L 2087.059024 -3097.933957 L 2085.499915 -3099.289675 L 2084.144168 -3100.848749 L 2083.33072 -3102.678968 L 2082.585059 -3104.576972 L 2082.585059 -3333.354257 L 2083.33072 -3335.252261 L 2084.144168 -3337.08248 L 2085.499915 -3338.641555 L 2087.059024 -3339.997272 L 2088.821495 -3341.081846 L 2090.990691 -3341.691918 Z M 2093.159886 -3341.895276 " transform="matrix(0.0576251, 0, 0, 0.0576263, -119.880174, 192.710043)"/>
<path fill-rule="nonzero" fill="rgb(12.156863%, 10.196078%, 9.019608%)" fill-opacity="1" d="M 11.738281 8.371094 L 11.855469 7.390625 L 11.675781 7.289062 L 11.496094 7.183594 L 11.320312 7.105469 L 11.15625 7.03125 L 10.988281 6.953125 L 10.808594 6.890625 L 10.632812 6.84375 L 10.46875 6.800781 L 10.132812 6.738281 L 9.777344 6.691406 L 9.425781 6.675781 L 9.0625 6.664062 L 8.660156 6.675781 L 8.296875 6.691406 L 7.929688 6.722656 L 7.5625 6.78125 L 7.207031 6.855469 L 6.859375 6.96875 L 6.488281 7.105469 L 6.121094 7.273438 L 6.363281 8.371094 L 4.246094 8.742188 L 4.132812 8.589844 L 4.042969 8.421875 L 3.964844 8.253906 L 3.917969 8.066406 L 3.875 7.886719 L 3.839844 7.699219 L 3.828125 7.546875 L 3.8125 7.390625 L 4.210938 7.136719 L 4.578125 6.90625 L 4.933594 6.703125 L 5.253906 6.523438 L 5.558594 6.371094 L 5.851562 6.246094 L 6.136719 6.128906 L 6.414062 6.035156 L 6.707031 5.960938 L 6.976562 5.898438 L 7.269531 5.847656 L 7.5625 5.808594 L 8.199219 5.746094 L 8.9375 5.683594 L 9.675781 5.746094 L 10.347656 5.820312 L 10.667969 5.863281 L 10.988281 5.925781 L 11.292969 6 L 11.601562 6.078125 L 11.90625 6.1875 L 12.210938 6.292969 L 12.519531 6.433594 L 12.824219 6.585938 L 13.144531 6.753906 L 13.484375 6.933594 L 13.816406 7.148438 L 14.171875 7.390625 L 14.1875 7.441406 L 14.152344 7.824219 L 14.125 8.082031 L 14.046875 8.332031 L 14 8.449219 L 13.957031 8.558594 L 13.878906 8.652344 L 13.804688 8.742188 "/>
<path fill="none" stroke-width="1.56847" stroke-linecap="round" stroke-linejoin="miter" stroke="rgb(12.156863%, 10.196078%, 9.019608%)" stroke-opacity="1" stroke-miterlimit="10" d="M 2154.032881 -3226.657616 L 2190.773626 -3233.097273 L 2186.57081 -3252.145099 L 2193.010608 -3255.059891 L 2199.382619 -3257.432396 L 2205.415694 -3259.398186 L 2211.516555 -3260.686118 L 2217.956354 -3261.702906 L 2224.328365 -3262.245192 L 2230.632589 -3262.516336 L 2237.614686 -3262.719693 L 2243.91891 -3262.516336 L 2250.019771 -3262.245192 L 2256.18842 -3261.431762 L 2262.018132 -3260.347188 L 2264.865201 -3259.601544 L 2267.915632 -3258.788114 L 2271.03385 -3257.70354 L 2273.948706 -3256.347823 L 2276.863563 -3255.059891 L 2279.846206 -3253.704174 L 2282.964424 -3251.873956 L 2286.15043 -3250.111524 L 2284.049022 -3233.097273 L 2319.908531 -3226.657616 L 2321.196491 -3228.216691 L 2322.552238 -3229.843552 L 2323.297898 -3231.741556 L 2324.111347 -3233.775132 L 2325.467094 -3238.113427 L 2325.941605 -3242.587293 L 2326.551691 -3249.230307 L 2326.280542 -3250.111524 L 2320.111893 -3254.314247 L 2314.349968 -3258.042469 L 2308.452468 -3261.160619 L 2302.893906 -3264.075411 L 2297.606492 -3266.719059 L 2292.251291 -3269.15935 L 2286.963878 -3270.989568 L 2281.676464 -3272.887572 L 2276.321264 -3274.24329 L 2271.03385 -3275.531221 L 2265.475287 -3276.615795 L 2259.916725 -3277.361439 L 2248.2573 -3278.64937 L 2235.445491 -3279.733944 L 2222.633681 -3278.64937 L 2211.516555 -3277.564797 L 2206.500291 -3276.886938 L 2201.41624 -3276.005722 L 2196.738913 -3274.921148 L 2191.654861 -3273.633217 L 2186.841959 -3272.074142 L 2181.893483 -3269.97278 L 2176.809431 -3267.803633 L 2171.522018 -3265.159984 L 2165.963455 -3262.041835 L 2159.794806 -3258.51697 L 2153.422795 -3254.517605 L 2146.508485 -3250.111524 L 2146.779634 -3247.400089 L 2146.982997 -3244.756441 L 2147.593083 -3241.50272 L 2148.338744 -3238.38457 L 2149.152192 -3235.130849 L 2150.507939 -3232.216057 L 2152.067048 -3229.301265 Z M 2154.032881 -3226.657616 " transform="matrix(0.0576251, 0, 0, 0.0576263, -119.880174, 194.68261)"/>
</svg>
