<?xml version="1.0" encoding="UTF-8"?>
<svg xmlns="http://www.w3.org/2000/svg" xmlns:xlink="http://www.w3.org/1999/xlink" width="10" height="14.720244" viewBox="0 0 10 14.720244">
<path fill-rule="nonzero" fill="rgb(0%, 0%, 0%)" fill-opacity="0.960784" d="M 2.582031 0.0429688 L 0 1.324219 L 0 13.386719 L 2.582031 14.722656 L 7.738281 14.722656 L 10 13.386719 L 10 1.324219 L 7.738281 0 Z M 2.582031 0.0429688 "/>
<path fill-rule="nonzero" fill="rgb(17.647059%, 17.647059%, 17.647059%)" fill-opacity="1" d="M 7.191406 4.78125 C 7.191406 5.992188 6.210938 6.976562 5 6.976562 C 3.785156 6.976562 2.808594 5.992188 2.808594 4.78125 C 2.808594 3.566406 3.785156 2.59375 5 2.59375 C 6.210938 2.59375 7.191406 3.566406 7.191406 4.78125 Z M 7.191406 4.78125 "/>
<path fill-rule="nonzero" fill="rgb(0%, 63.137255%, 100%)" fill-opacity="1" d="M 7.191406 9.988281 C 7.191406 11.1875 6.210938 12.171875 5 12.171875 C 3.785156 12.171875 2.808594 11.1875 2.808594 9.988281 C 2.808594 8.765625 3.785156 7.796875 5 7.796875 C 6.210938 7.796875 7.191406 8.765625 7.191406 9.988281 Z M 7.191406 9.988281 "/>
</svg>
