<?xml version="1.0" encoding="UTF-8"?>
<svg xmlns="http://www.w3.org/2000/svg" xmlns:xlink="http://www.w3.org/1999/xlink" width="18" height="18" viewBox="0 0 18 18">
<path fill-rule="nonzero" fill="rgb(100%, 100%, 100%)" fill-opacity="1" d="M 9 0 L 0 9 L 9 18 L 18 9 Z M 9 1.492188 L 16.507812 9 L 9 16.507812 L 1.492188 9 Z M 9 1.492188 "/>
<path fill-rule="nonzero" fill="rgb(0%, 26.666667%, 66.666667%)" fill-opacity="1" stroke-width="7" stroke-linecap="square" stroke-linejoin="miter" stroke="rgb(100%, 100%, 100%)" stroke-opacity="1" stroke-miterlimit="4" d="M 24.672198 148.419697 L 148.419697 24.672198 L 272.231615 148.419697 L 148.419697 272.231615 Z M 24.60778 148.419697 L 24.672198 148.419697 M 24.672198 148.419697 L 24.672198 148.419697 M 24.60778 148.419697 L 24.672198 148.419697 M 24.672198 148.419697 L 24.672198 148.419697 M 24.60778 148.419697 L 24.672198 148.419697 M 24.672198 148.419697 L 24.672198 148.419697 M 24.60778 148.419697 L 24.672198 148.419697 M 24.672198 148.419697 L 24.672198 148.419697 M 24.60778 148.419697 L 24.672198 148.419697 M 24.672198 148.419697 L 24.672198 148.419697 M 24.60778 148.419697 L 24.672198 148.419697 M 24.672198 148.419697 L 24.672198 148.419697 M 24.60778 148.419697 L 24.672198 148.419697 M 24.672198 148.419697 L 24.672198 148.419697 M 24.60778 148.419697 L 24.672198 148.419697 M 24.672198 148.419697 " transform="matrix(0.0606389, 0, 0, 0.0606389, 0, 0)"/>
<path fill-rule="nonzero" fill="rgb(0%, 26.666667%, 66.666667%)" fill-opacity="1" d="M 9 5.324219 L 5.324219 9 L 9 12.675781 L 12.675781 9 Z M 9 6.871094 L 11.128906 9 L 9 11.128906 L 6.871094 9 Z M 9 6.871094 "/>
</svg>
