<?xml version="1.0" encoding="UTF-8"?>
<svg xmlns="http://www.w3.org/2000/svg" xmlns:xlink="http://www.w3.org/1999/xlink" width="18" height="17.760156" viewBox="0 0 18 17.760156">
<path fill-rule="nonzero" fill="rgb(0%, 26.666667%, 66.666667%)" fill-opacity="1" stroke-width="0.367316" stroke-linecap="butt" stroke-linejoin="miter" stroke="rgb(100%, 100%, 100%)" stroke-opacity="1" stroke-miterlimit="4" d="M 0.384522 2.373782 L 5.906256 9.172128 L 11.42799 2.373782 L 8.756845 2.373782 L 5.906256 5.885748 L 3.055667 2.373782 Z M 0.384522 2.373782 " transform="matrix(1.523808, 0, 0, 1.523808, 0, 0)"/>
<path fill-rule="nonzero" fill="rgb(0%, 0%, 0%)" fill-opacity="1" d="M 1.1875 0 L 4.523438 0 L 4.523438 3.335938 L 1.1875 3.335938 Z M 1.1875 0 "/>
<path fill-rule="nonzero" fill="rgb(0%, 0%, 0%)" fill-opacity="1" d="M 13.480469 0 L 16.816406 0 L 16.816406 3.335938 L 13.480469 3.335938 Z M 13.480469 0 "/>
<path fill-rule="nonzero" fill="rgb(0%, 0%, 0%)" fill-opacity="1" d="M 7.328125 14.421875 L 10.671875 14.421875 L 10.671875 17.761719 L 7.328125 17.761719 Z M 7.328125 14.421875 "/>
<path fill-rule="nonzero" fill="rgb(100%, 100%, 100%)" fill-opacity="1" d="M 4.09375 1.671875 C 4.09375 2.351562 3.539062 2.90625 2.859375 2.90625 C 2.171875 2.90625 1.621094 2.351562 1.621094 1.671875 C 1.621094 0.984375 2.171875 0.433594 2.859375 0.433594 C 3.539062 0.433594 4.09375 0.984375 4.09375 1.671875 Z M 4.09375 1.671875 "/>
<path fill-rule="nonzero" fill="rgb(100%, 100%, 100%)" fill-opacity="1" d="M 16.382812 1.671875 C 16.382812 2.351562 15.832031 2.90625 15.144531 2.90625 C 14.464844 2.90625 13.90625 2.351562 13.90625 1.671875 C 13.90625 0.984375 14.464844 0.433594 15.144531 0.433594 C 15.832031 0.433594 16.382812 0.984375 16.382812 1.671875 Z M 16.382812 1.671875 "/>
<path fill-rule="nonzero" fill="rgb(100%, 100%, 100%)" fill-opacity="1" d="M 10.238281 16.089844 C 10.238281 16.777344 9.683594 17.328125 9 17.328125 C 8.316406 17.328125 7.761719 16.777344 7.761719 16.089844 C 7.761719 15.410156 8.316406 14.851562 9 14.851562 C 9.683594 14.851562 10.238281 15.410156 10.238281 16.089844 Z M 10.238281 16.089844 "/>
</svg>
