<?xml version="1.0" encoding="UTF-8"?>
<svg xmlns="http://www.w3.org/2000/svg" xmlns:xlink="http://www.w3.org/1999/xlink" width="20" height="19.987982" viewBox="0 0 20 19.987982">
<path fill-rule="nonzero" fill="rgb(100%, 100%, 100%)" fill-opacity="1" d="M 0.203125 9.996094 L 10 0.199219 L 19.796875 10.003906 L 10 19.789062 Z M 0.203125 9.996094 "/>
<path fill-rule="nonzero" fill="rgb(12.156863%, 10.196078%, 9.019608%)" fill-opacity="1" d="M 0.105469 9.902344 L 9.902344 0.101562 L 10.097656 0.101562 L 10.097656 0.300781 L 0.300781 10.097656 Z M 9.902344 0.101562 L 9.996094 0 L 10.097656 0.101562 "/>
<path fill-rule="nonzero" fill="rgb(12.156863%, 10.196078%, 9.019608%)" fill-opacity="1" d="M 19.894531 9.902344 L 19.988281 10.003906 L 19.894531 10.097656 Z M 19.699219 10.097656 L 9.902344 0.300781 L 10.097656 0.101562 L 19.894531 9.902344 L 19.894531 10.097656 "/>
<path fill-rule="nonzero" fill="rgb(12.156863%, 10.196078%, 9.019608%)" fill-opacity="1" d="M 9.902344 19.894531 L 10.097656 19.894531 L 9.996094 19.988281 Z M 10.097656 19.894531 L 9.902344 19.894531 L 9.902344 19.695312 L 19.699219 9.902344 L 19.894531 10.097656 "/>
<path fill-rule="nonzero" fill="rgb(12.156863%, 10.196078%, 9.019608%)" fill-opacity="1" d="M 0.105469 10.097656 L 0.105469 9.902344 L 0.300781 9.902344 L 10.097656 19.695312 L 9.902344 19.894531 Z M 0 9.996094 L 0.105469 9.902344 L 0.105469 10.097656 "/>
<path fill-rule="nonzero" fill="rgb(12.156863%, 10.196078%, 9.019608%)" fill-opacity="1" d="M 0.199219 9.996094 L 2.648438 7.546875 L 5.097656 9.996094 L 2.648438 12.441406 Z M 0.199219 9.996094 "/>
<path fill-rule="nonzero" fill="rgb(12.156863%, 10.196078%, 9.019608%)" fill-opacity="1" d="M 0.105469 9.902344 L 2.554688 7.449219 L 2.75 7.449219 L 2.75 7.648438 L 0.300781 10.097656 Z M 2.554688 7.449219 L 2.648438 7.347656 L 2.75 7.449219 "/>
<path fill-rule="nonzero" fill="rgb(12.156863%, 10.196078%, 9.019608%)" fill-opacity="1" d="M 5.199219 9.902344 L 5.292969 9.996094 L 5.199219 10.089844 Z M 5.003906 10.089844 L 2.554688 7.648438 L 2.75 7.449219 L 5.199219 9.902344 L 5.199219 10.089844 "/>
<path fill-rule="nonzero" fill="rgb(12.156863%, 10.196078%, 9.019608%)" fill-opacity="1" d="M 2.554688 12.546875 L 2.75 12.546875 L 2.648438 12.640625 Z M 2.75 12.546875 L 2.554688 12.546875 L 2.554688 12.347656 L 5.003906 9.902344 L 5.199219 10.089844 "/>
<path fill-rule="nonzero" fill="rgb(12.156863%, 10.196078%, 9.019608%)" fill-opacity="1" d="M 0.105469 10.097656 L 0.105469 9.902344 L 0.300781 9.902344 L 2.75 12.347656 L 2.554688 12.546875 Z M 0 9.996094 L 0.105469 9.902344 L 0.105469 10.097656 "/>
<path fill-rule="nonzero" fill="rgb(12.156863%, 10.196078%, 9.019608%)" fill-opacity="1" d="M 7.554688 17.339844 L 10.003906 14.882812 L 12.453125 17.332031 L 9.996094 19.78125 Z M 7.554688 17.339844 "/>
<path fill-rule="nonzero" fill="rgb(12.156863%, 10.196078%, 9.019608%)" fill-opacity="1" d="M 7.449219 17.234375 L 9.902344 14.789062 L 10.097656 14.789062 L 10.097656 14.984375 L 7.648438 17.433594 Z M 9.902344 14.789062 L 10.003906 14.695312 L 10.097656 14.789062 "/>
<path fill-rule="nonzero" fill="rgb(12.156863%, 10.196078%, 9.019608%)" fill-opacity="1" d="M 12.550781 17.234375 L 12.644531 17.332031 L 12.550781 17.433594 Z M 12.351562 17.433594 L 9.902344 14.984375 L 10.097656 14.789062 L 12.550781 17.234375 L 12.550781 17.433594 "/>
<path fill-rule="nonzero" fill="rgb(12.156863%, 10.196078%, 9.019608%)" fill-opacity="1" d="M 9.949219 19.882812 L 10.144531 19.882812 L 10.042969 19.980469 Z M 10.144531 19.882812 L 9.949219 19.882812 L 9.949219 19.683594 L 12.398438 17.234375 L 12.59375 17.433594 "/>
<path fill-rule="nonzero" fill="rgb(12.156863%, 10.196078%, 9.019608%)" fill-opacity="1" d="M 7.5 17.433594 L 7.5 17.234375 L 7.699219 17.234375 L 10.144531 19.683594 L 9.949219 19.882812 Z M 7.40625 17.339844 L 7.5 17.234375 L 7.5 17.433594 "/>
<path fill-rule="nonzero" fill="rgb(12.156863%, 10.196078%, 9.019608%)" fill-opacity="1" d="M 7.554688 2.648438 L 10.003906 0.199219 L 12.453125 2.648438 L 9.996094 5.097656 Z M 7.554688 2.648438 "/>
<path fill-rule="nonzero" fill="rgb(12.156863%, 10.196078%, 9.019608%)" fill-opacity="1" d="M 7.449219 2.550781 L 9.902344 0.09375 L 10.097656 0.09375 L 10.097656 0.292969 L 7.648438 2.742188 Z M 9.902344 0.09375 L 10.003906 0 L 10.097656 0.09375 "/>
<path fill-rule="nonzero" fill="rgb(12.156863%, 10.196078%, 9.019608%)" fill-opacity="1" d="M 12.550781 2.542969 L 12.644531 2.648438 L 12.550781 2.742188 Z M 12.351562 2.742188 L 9.902344 0.292969 L 10.097656 0.09375 L 12.550781 2.542969 L 12.550781 2.742188 "/>
<path fill-rule="nonzero" fill="rgb(12.156863%, 10.196078%, 9.019608%)" fill-opacity="1" d="M 9.902344 5.191406 L 10.097656 5.191406 L 9.996094 5.292969 Z M 10.097656 5.191406 L 9.902344 5.191406 L 9.902344 4.992188 L 12.351562 2.542969 L 12.550781 2.742188 "/>
<path fill-rule="nonzero" fill="rgb(12.156863%, 10.196078%, 9.019608%)" fill-opacity="1" d="M 7.449219 2.742188 L 7.449219 2.550781 L 7.648438 2.550781 L 10.097656 4.992188 L 9.902344 5.191406 Z M 7.355469 2.648438 L 7.449219 2.550781 L 7.449219 2.742188 "/>
<path fill-rule="nonzero" fill="rgb(12.156863%, 10.196078%, 9.019608%)" fill-opacity="1" d="M 4.203125 13.988281 L 5.585938 12.601562 L 7.375 14.394531 L 5.992188 15.777344 Z M 4.203125 13.988281 "/>
<path fill-rule="nonzero" fill="rgb(12.156863%, 10.196078%, 9.019608%)" fill-opacity="1" d="M 4.097656 13.882812 L 5.480469 12.5 L 5.683594 12.5 L 5.683594 12.699219 L 4.296875 14.082031 Z M 5.480469 12.5 L 5.585938 12.40625 L 5.683594 12.5 "/>
<path fill-rule="nonzero" fill="rgb(12.156863%, 10.196078%, 9.019608%)" fill-opacity="1" d="M 7.480469 14.300781 L 7.574219 14.394531 L 7.480469 14.496094 Z M 7.28125 14.496094 L 5.480469 12.699219 L 5.683594 12.5 L 7.480469 14.300781 L 7.480469 14.496094 "/>
<path fill-rule="nonzero" fill="rgb(12.156863%, 10.196078%, 9.019608%)" fill-opacity="1" d="M 5.898438 15.882812 L 6.097656 15.882812 L 5.992188 15.976562 Z M 6.097656 15.882812 L 5.898438 15.882812 L 5.898438 15.683594 L 7.28125 14.300781 L 7.480469 14.496094 "/>
<path fill-rule="nonzero" fill="rgb(12.156863%, 10.196078%, 9.019608%)" fill-opacity="1" d="M 4.097656 14.082031 L 4.097656 13.882812 L 4.296875 13.882812 L 6.097656 15.683594 L 5.898438 15.882812 Z M 4.003906 13.988281 L 4.097656 13.882812 L 4.097656 14.082031 "/>
<path fill-rule="nonzero" fill="rgb(12.156863%, 10.196078%, 9.019608%)" fill-opacity="1" d="M 12.605469 5.585938 L 13.988281 4.199219 L 15.789062 5.988281 L 14.402344 7.375 Z M 12.605469 5.585938 "/>
<path fill-rule="nonzero" fill="rgb(12.156863%, 10.196078%, 9.019608%)" fill-opacity="1" d="M 12.507812 5.492188 L 13.894531 4.097656 L 14.09375 4.097656 L 14.09375 4.296875 L 12.707031 5.679688 Z M 13.894531 4.097656 L 13.988281 4.003906 L 14.09375 4.097656 "/>
<path fill-rule="nonzero" fill="rgb(12.156863%, 10.196078%, 9.019608%)" fill-opacity="1" d="M 15.882812 5.894531 L 15.984375 5.988281 L 15.882812 6.09375 Z M 15.695312 6.09375 L 13.894531 4.296875 L 14.09375 4.097656 L 15.882812 5.894531 L 15.882812 6.09375 "/>
<path fill-rule="nonzero" fill="rgb(12.156863%, 10.196078%, 9.019608%)" fill-opacity="1" d="M 14.308594 7.480469 L 14.496094 7.480469 L 14.402344 7.574219 Z M 14.496094 7.480469 L 14.308594 7.480469 L 14.308594 7.28125 L 15.695312 5.894531 L 15.882812 6.09375 "/>
<path fill-rule="nonzero" fill="rgb(12.156863%, 10.196078%, 9.019608%)" fill-opacity="1" d="M 12.507812 5.679688 L 12.507812 5.492188 L 12.707031 5.492188 L 14.496094 7.28125 L 14.308594 7.480469 Z M 12.414062 5.585938 L 12.507812 5.492188 L 12.507812 5.679688 "/>
<path fill-rule="nonzero" fill="rgb(12.156863%, 10.196078%, 9.019608%)" fill-opacity="1" d="M 14.902344 9.996094 L 17.351562 7.546875 L 19.800781 9.996094 L 17.351562 12.441406 Z M 14.902344 9.996094 "/>
<path fill-rule="nonzero" fill="rgb(12.156863%, 10.196078%, 9.019608%)" fill-opacity="1" d="M 14.800781 9.902344 L 17.257812 7.449219 L 17.445312 7.449219 L 17.445312 7.648438 L 14.996094 10.097656 Z M 17.257812 7.449219 L 17.351562 7.347656 L 17.445312 7.449219 "/>
<path fill-rule="nonzero" fill="rgb(12.156863%, 10.196078%, 9.019608%)" fill-opacity="1" d="M 19.894531 9.902344 L 20 9.996094 L 19.894531 10.089844 Z M 19.699219 10.089844 L 17.257812 7.648438 L 17.445312 7.449219 L 19.894531 9.902344 L 19.894531 10.089844 "/>
<path fill-rule="nonzero" fill="rgb(12.156863%, 10.196078%, 9.019608%)" fill-opacity="1" d="M 17.25 12.546875 L 17.445312 12.546875 L 17.351562 12.640625 Z M 17.445312 12.546875 L 17.25 12.546875 L 17.25 12.347656 L 19.699219 9.902344 L 19.894531 10.089844 "/>
<path fill-rule="nonzero" fill="rgb(12.156863%, 10.196078%, 9.019608%)" fill-opacity="1" d="M 14.800781 10.097656 L 14.800781 9.902344 L 14.996094 9.902344 L 17.445312 12.347656 L 17.25 12.546875 Z M 14.707031 9.996094 L 14.800781 9.902344 L 14.800781 10.097656 "/>
<path fill-rule="nonzero" fill="rgb(12.156863%, 10.196078%, 9.019608%)" fill-opacity="1" d="M 12.613281 14.394531 L 14.410156 12.601562 L 15.800781 13.988281 L 14 15.777344 Z M 12.613281 14.394531 "/>
<path fill-rule="nonzero" fill="rgb(12.156863%, 10.196078%, 9.019608%)" fill-opacity="1" d="M 12.519531 14.496094 L 12.519531 14.300781 L 12.707031 14.300781 L 14.09375 15.683594 L 13.902344 15.882812 Z M 12.414062 14.394531 L 12.519531 14.300781 L 12.519531 14.496094 "/>
<path fill-rule="nonzero" fill="rgb(12.156863%, 10.196078%, 9.019608%)" fill-opacity="1" d="M 12.519531 14.300781 L 14.308594 12.5 L 14.507812 12.5 L 14.507812 12.699219 L 12.707031 14.496094 Z M 14.308594 12.5 L 14.410156 12.40625 L 14.507812 12.5 "/>
<path fill-rule="nonzero" fill="rgb(12.156863%, 10.196078%, 9.019608%)" fill-opacity="1" d="M 15.890625 13.882812 L 15.984375 13.988281 L 15.890625 14.082031 Z M 15.695312 14.082031 L 14.308594 12.699219 L 14.507812 12.5 L 15.890625 13.882812 L 15.890625 14.082031 "/>
<path fill-rule="nonzero" fill="rgb(12.156863%, 10.196078%, 9.019608%)" fill-opacity="1" d="M 13.902344 15.882812 L 14.09375 15.882812 L 14 15.976562 Z M 14.09375 15.882812 L 13.902344 15.882812 L 13.902344 15.683594 L 15.695312 13.882812 L 15.890625 14.082031 "/>
<path fill-rule="nonzero" fill="rgb(12.156863%, 10.196078%, 9.019608%)" fill-opacity="1" d="M 4.210938 5.980469 L 6.011719 4.179688 L 7.398438 5.566406 L 5.597656 7.367188 Z M 4.210938 5.980469 "/>
<path fill-rule="nonzero" fill="rgb(12.156863%, 10.196078%, 9.019608%)" fill-opacity="1" d="M 4.117188 6.074219 L 4.117188 5.875 L 4.316406 5.875 L 5.699219 7.261719 L 5.503906 7.460938 Z M 4.015625 5.980469 L 4.117188 5.875 L 4.117188 6.074219 "/>
<path fill-rule="nonzero" fill="rgb(12.156863%, 10.196078%, 9.019608%)" fill-opacity="1" d="M 4.117188 5.875 L 5.90625 4.085938 L 6.105469 4.085938 L 6.105469 4.277344 L 4.316406 6.074219 Z M 5.90625 4.085938 L 6.011719 3.984375 L 6.105469 4.085938 "/>
<path fill-rule="nonzero" fill="rgb(12.156863%, 10.196078%, 9.019608%)" fill-opacity="1" d="M 7.492188 5.472656 L 7.59375 5.566406 L 7.492188 5.660156 Z M 7.292969 5.660156 L 5.90625 4.277344 L 6.105469 4.085938 L 7.492188 5.472656 L 7.492188 5.660156 "/>
<path fill-rule="nonzero" fill="rgb(12.156863%, 10.196078%, 9.019608%)" fill-opacity="1" d="M 5.503906 7.460938 L 5.699219 7.460938 L 5.597656 7.554688 Z M 5.699219 7.460938 L 5.503906 7.460938 L 5.503906 7.261719 L 7.292969 5.472656 L 7.492188 5.660156 "/>
<path fill-rule="nonzero" fill="rgb(12.156863%, 10.196078%, 9.019608%)" fill-opacity="1" d="M 2.875 9.902344 L 9.902344 2.871094 L 10.097656 2.871094 L 10.097656 3.070312 L 3.070312 10.097656 Z M 9.902344 2.871094 L 9.996094 2.777344 L 10.097656 2.871094 "/>
<path fill-rule="nonzero" fill="rgb(12.156863%, 10.196078%, 9.019608%)" fill-opacity="1" d="M 17.117188 9.902344 L 17.222656 9.996094 L 17.117188 10.097656 Z M 16.917969 10.097656 L 9.902344 3.070312 L 10.097656 2.871094 L 17.117188 9.902344 L 17.117188 10.097656 "/>
<path fill-rule="nonzero" fill="rgb(12.156863%, 10.196078%, 9.019608%)" fill-opacity="1" d="M 9.902344 17.113281 L 10.097656 17.113281 L 9.996094 17.21875 Z M 10.097656 17.113281 L 9.902344 17.113281 L 9.902344 16.917969 L 16.917969 9.902344 L 17.117188 10.097656 "/>
<path fill-rule="nonzero" fill="rgb(12.156863%, 10.196078%, 9.019608%)" fill-opacity="1" d="M 2.875 10.097656 L 2.875 9.902344 L 3.070312 9.902344 L 10.097656 16.917969 L 9.902344 17.113281 Z M 2.777344 9.996094 L 2.875 9.902344 L 2.875 10.097656 "/>
<path fill-rule="nonzero" fill="rgb(12.156863%, 10.196078%, 9.019608%)" fill-opacity="1" d="M 2.820312 11.039062 L 17.136719 11.039062 L 17.136719 8.957031 L 2.820312 8.957031 Z M 2.820312 11.039062 "/>
<path fill-rule="nonzero" fill="rgb(12.156863%, 10.196078%, 9.019608%)" fill-opacity="1" d="M 17.136719 11.179688 L 17.277344 11.039062 L 17.277344 11.179688 Z M 2.820312 11.179688 L 2.820312 10.898438 L 17.136719 10.898438 L 17.277344 11.039062 L 17.136719 11.179688 "/>
<path fill-rule="nonzero" fill="rgb(12.156863%, 10.196078%, 9.019608%)" fill-opacity="1" d="M 16.996094 11.039062 L 16.996094 8.957031 L 17.136719 8.816406 L 17.277344 8.816406 L 17.277344 8.957031 L 17.136719 8.816406 L 17.277344 8.957031 L 17.277344 11.039062 "/>
<path fill-rule="nonzero" fill="rgb(12.156863%, 10.196078%, 9.019608%)" fill-opacity="1" d="M 2.820312 9.097656 L 2.675781 8.957031 L 2.820312 8.816406 L 17.136719 8.816406 L 17.136719 9.097656 Z M 2.675781 8.816406 L 2.820312 8.816406 L 2.675781 8.957031 "/>
<path fill-rule="nonzero" fill="rgb(12.156863%, 10.196078%, 9.019608%)" fill-opacity="1" d="M 2.675781 11.179688 L 2.675781 11.039062 L 2.820312 11.179688 Z M 2.675781 11.039062 L 2.675781 8.957031 L 2.957031 8.957031 L 2.957031 11.039062 L 2.820312 11.179688 "/>
<path fill-rule="nonzero" fill="rgb(12.156863%, 10.196078%, 9.019608%)" fill-opacity="1" d="M 8.6875 17.152344 L 11.3125 17.152344 L 11.3125 2.832031 L 8.6875 2.832031 Z M 8.6875 17.152344 "/>
<path fill-rule="nonzero" fill="rgb(12.156863%, 10.196078%, 9.019608%)" fill-opacity="1" d="M 8.941406 2.976562 L 8.941406 2.695312 L 11.023438 2.695312 L 11.164062 2.832031 L 11.023438 2.976562 Z M 11.023438 2.695312 L 11.164062 2.695312 L 11.164062 2.832031 "/>
<path fill-rule="nonzero" fill="rgb(12.156863%, 10.196078%, 9.019608%)" fill-opacity="1" d="M 8.988281 17.292969 L 8.847656 17.152344 L 8.988281 17.011719 L 11.070312 17.011719 L 11.070312 17.292969 Z M 8.847656 17.292969 L 8.847656 17.152344 L 8.988281 17.292969 "/>
<path fill-rule="nonzero" fill="rgb(100%, 100%, 100%)" fill-opacity="1" d="M 5.125 11.039062 L 7.441406 11.039062 L 7.441406 8.957031 L 5.125 8.957031 Z M 5.125 11.039062 "/>
<path fill-rule="nonzero" fill="rgb(12.156863%, 10.196078%, 9.019608%)" fill-opacity="1" d="M 7.441406 11.179688 L 7.585938 11.039062 L 7.585938 11.179688 Z M 5.125 11.179688 L 5.125 10.898438 L 7.441406 10.898438 L 7.585938 11.039062 L 7.441406 11.179688 "/>
<path fill-rule="nonzero" fill="rgb(12.156863%, 10.196078%, 9.019608%)" fill-opacity="1" d="M 7.300781 11.039062 L 7.300781 8.957031 L 7.441406 8.816406 L 7.585938 8.816406 L 7.585938 8.957031 L 7.441406 8.816406 L 7.585938 8.957031 L 7.585938 11.039062 "/>
<path fill-rule="nonzero" fill="rgb(12.156863%, 10.196078%, 9.019608%)" fill-opacity="1" d="M 5.125 9.097656 L 4.996094 8.957031 L 5.125 8.816406 L 7.441406 8.816406 L 7.441406 9.097656 Z M 4.996094 8.816406 L 5.125 8.816406 L 4.996094 8.957031 "/>
<path fill-rule="nonzero" fill="rgb(12.156863%, 10.196078%, 9.019608%)" fill-opacity="1" d="M 4.996094 11.179688 L 4.996094 11.039062 L 5.125 11.179688 Z M 4.996094 11.039062 L 4.996094 8.957031 L 5.265625 8.957031 L 5.265625 11.039062 L 5.125 11.179688 "/>
<path fill-rule="nonzero" fill="rgb(100%, 100%, 100%)" fill-opacity="1" d="M 12.632812 11.039062 L 14.828125 11.039062 L 14.828125 8.957031 L 12.632812 8.957031 Z M 12.632812 11.039062 "/>
<path fill-rule="nonzero" fill="rgb(12.156863%, 10.196078%, 9.019608%)" fill-opacity="1" d="M 14.828125 11.179688 L 14.96875 11.039062 L 14.96875 11.179688 Z M 12.632812 11.179688 L 12.632812 10.898438 L 14.828125 10.898438 L 14.96875 11.039062 L 14.828125 11.179688 "/>
<path fill-rule="nonzero" fill="rgb(12.156863%, 10.196078%, 9.019608%)" fill-opacity="1" d="M 14.6875 11.039062 L 14.6875 8.957031 L 14.828125 8.816406 L 14.96875 8.816406 L 14.96875 8.957031 L 14.828125 8.816406 L 14.96875 8.957031 L 14.96875 11.039062 "/>
<path fill-rule="nonzero" fill="rgb(12.156863%, 10.196078%, 9.019608%)" fill-opacity="1" d="M 12.632812 9.097656 L 12.5 8.957031 L 12.632812 8.816406 L 14.828125 8.816406 L 14.828125 9.097656 Z M 12.5 8.816406 L 12.632812 8.816406 L 12.5 8.957031 "/>
<path fill-rule="nonzero" fill="rgb(12.156863%, 10.196078%, 9.019608%)" fill-opacity="1" d="M 12.5 11.179688 L 12.5 11.039062 L 12.632812 11.179688 Z M 12.5 11.039062 L 12.5 8.957031 L 12.773438 8.957031 L 12.773438 11.039062 L 12.632812 11.179688 "/>
<path fill-rule="nonzero" fill="rgb(100%, 100%, 100%)" fill-opacity="1" d="M 8.980469 7.140625 L 11.023438 7.140625 L 11.023438 4.964844 L 8.980469 4.964844 Z M 8.980469 7.140625 "/>
<path fill-rule="nonzero" fill="rgb(100%, 100%, 100%)" fill-opacity="1" d="M 8.980469 15.117188 L 11.023438 15.117188 L 11.023438 12.941406 L 8.980469 12.941406 Z M 8.980469 15.117188 "/>
</svg>
