<?xml version="1.0" encoding="UTF-8"?>
<svg xmlns="http://www.w3.org/2000/svg" xmlns:xlink="http://www.w3.org/1999/xlink" width="20" height="10.008638" viewBox="0 0 20 10.008638">
<path fill-rule="nonzero" fill="rgb(12.156863%, 10.196078%, 9.019608%)" fill-opacity="1" d="M 0.328125 0.144531 L 19.675781 0.136719 L 9.984375 9.808594 "/>
<path fill-rule="nonzero" fill="rgb(12.156863%, 10.196078%, 9.019608%)" fill-opacity="1" d="M 0.328125 0.015625 L 15.257812 0 L 19.679688 0 L 19.769531 0.226562 L 19.675781 0.269531 L 0.328125 0.285156 Z M 19.679688 0 L 20 0 L 19.769531 0.226562 "/>
<path fill-rule="nonzero" fill="rgb(12.156863%, 10.196078%, 9.019608%)" fill-opacity="1" d="M 9.886719 9.914062 L 10.082031 9.914062 L 9.984375 10.007812 Z M 10.082031 9.914062 L 9.886719 9.914062 L 9.886719 9.714844 L 19.582031 0.03125 L 19.769531 0.226562 "/>
<path fill-rule="nonzero" fill="rgb(12.156863%, 10.196078%, 9.019608%)" fill-opacity="1" d="M 0.222656 0.246094 L 0.328125 0.015625 L 0.421875 0.0507812 L 10.082031 9.714844 L 9.886719 9.914062 Z M 0 0.015625 L 0.328125 0.015625 L 0.222656 0.246094 "/>
<path fill-rule="nonzero" fill="rgb(100%, 100%, 100%)" fill-opacity="1" d="M 12.46875 2.007812 L 15.175781 2.007812 L 15.175781 0.171875 L 12.46875 0.171875 Z M 12.46875 2.007812 "/>
<path fill-rule="nonzero" fill="rgb(12.156863%, 10.196078%, 9.019608%)" fill-opacity="1" d="M 15.175781 2.140625 L 15.316406 2.007812 L 15.316406 2.140625 Z M 12.46875 2.140625 L 12.46875 1.867188 L 15.175781 1.867188 L 15.316406 2.007812 L 15.175781 2.140625 "/>
<path fill-rule="nonzero" fill="rgb(12.156863%, 10.196078%, 9.019608%)" fill-opacity="1" d="M 15.035156 2.007812 L 15.035156 0.171875 L 15.175781 0.03125 L 15.316406 0.03125 L 15.316406 0.171875 L 15.175781 0.03125 L 15.316406 0.171875 L 15.316406 2.007812 "/>
<path fill-rule="nonzero" fill="rgb(12.156863%, 10.196078%, 9.019608%)" fill-opacity="1" d="M 12.46875 0.3125 L 12.335938 0.171875 L 12.46875 0.03125 L 15.175781 0.03125 L 15.175781 0.3125 Z M 12.335938 0.03125 L 12.46875 0.03125 L 12.335938 0.171875 "/>
<path fill-rule="nonzero" fill="rgb(12.156863%, 10.196078%, 9.019608%)" fill-opacity="1" d="M 12.335938 2.140625 L 12.335938 2.007812 L 12.46875 2.140625 Z M 12.335938 2.007812 L 12.335938 0.171875 L 12.609375 0.171875 L 12.609375 2.007812 L 12.46875 2.140625 "/>
<path fill-rule="nonzero" fill="rgb(100%, 100%, 100%)" fill-opacity="1" d="M 4.742188 2.019531 L 7.574219 2.019531 L 7.574219 0.15625 L 4.742188 0.15625 Z M 4.742188 2.019531 "/>
<path fill-rule="nonzero" fill="rgb(12.156863%, 10.196078%, 9.019608%)" fill-opacity="1" d="M 7.574219 2.148438 L 7.714844 2.019531 L 7.714844 2.148438 Z M 4.742188 2.148438 L 4.742188 1.878906 L 7.574219 1.878906 L 7.714844 2.019531 L 7.574219 2.148438 "/>
<path fill-rule="nonzero" fill="rgb(12.156863%, 10.196078%, 9.019608%)" fill-opacity="1" d="M 7.441406 2.019531 L 7.441406 0.15625 L 7.574219 0.015625 L 7.714844 0.015625 L 7.714844 0.15625 L 7.574219 0.015625 L 7.714844 0.15625 L 7.714844 2.019531 "/>
<path fill-rule="nonzero" fill="rgb(12.156863%, 10.196078%, 9.019608%)" fill-opacity="1" d="M 4.742188 0.296875 L 4.601562 0.15625 L 4.742188 0.015625 L 7.574219 0.015625 L 7.574219 0.296875 Z M 4.601562 0.015625 L 4.742188 0.015625 L 4.601562 0.15625 "/>
<path fill-rule="nonzero" fill="rgb(12.156863%, 10.196078%, 9.019608%)" fill-opacity="1" d="M 4.601562 2.148438 L 4.601562 2.019531 L 4.742188 2.148438 Z M 4.601562 2.019531 L 4.601562 0.15625 L 4.871094 0.15625 L 4.871094 2.019531 L 4.742188 2.148438 "/>
<path fill-rule="nonzero" fill="rgb(100%, 100%, 100%)" fill-opacity="1" d="M 3.457031 3.285156 L 4.777344 1.953125 L 6.28125 3.464844 L 4.957031 4.785156 Z M 3.457031 3.285156 "/>
<path fill-rule="nonzero" fill="rgb(12.156863%, 10.196078%, 9.019608%)" fill-opacity="1" d="M 6.382812 3.359375 L 6.476562 3.464844 L 6.382812 3.558594 Z M 6.183594 3.558594 L 4.683594 2.058594 L 4.871094 1.859375 L 6.382812 3.359375 L 6.382812 3.558594 "/>
<path fill-rule="nonzero" fill="rgb(12.156863%, 10.196078%, 9.019608%)" fill-opacity="1" d="M 4.863281 4.878906 L 5.050781 4.878906 L 4.957031 4.984375 Z M 5.050781 4.878906 L 4.863281 4.878906 L 4.863281 4.683594 L 6.183594 3.359375 L 6.382812 3.558594 "/>
<path fill-rule="nonzero" fill="rgb(12.156863%, 10.196078%, 9.019608%)" fill-opacity="1" d="M 3.355469 3.382812 L 3.355469 3.179688 L 3.554688 3.179688 L 5.050781 4.683594 L 4.863281 4.878906 Z M 3.257812 3.285156 L 3.355469 3.179688 L 3.355469 3.382812 "/>
<path fill-rule="nonzero" fill="rgb(12.156863%, 10.196078%, 9.019608%)" fill-opacity="1" d="M 3.355469 3.179688 L 4.683594 1.859375 L 4.871094 1.859375 L 4.871094 2.058594 L 3.554688 3.382812 Z M 4.683594 1.859375 L 4.777344 1.769531 L 4.871094 1.859375 "/>
<path fill-rule="nonzero" fill="rgb(100%, 100%, 100%)" fill-opacity="1" d="M 6.128906 5.9375 L 7.453125 4.617188 L 8.960938 6.117188 L 7.628906 7.4375 Z M 6.128906 5.9375 "/>
<path fill-rule="nonzero" fill="rgb(12.156863%, 10.196078%, 9.019608%)" fill-opacity="1" d="M 9.054688 6.019531 L 9.148438 6.117188 L 9.054688 6.214844 Z M 8.859375 6.214844 L 7.355469 4.710938 L 7.554688 4.523438 L 9.054688 6.019531 L 9.054688 6.214844 "/>
<path fill-rule="nonzero" fill="rgb(12.156863%, 10.196078%, 9.019608%)" fill-opacity="1" d="M 7.535156 7.539062 L 7.734375 7.539062 L 7.628906 7.632812 Z M 7.734375 7.539062 L 7.535156 7.539062 L 7.535156 7.34375 L 8.859375 6.019531 L 9.054688 6.214844 "/>
<path fill-rule="nonzero" fill="rgb(12.156863%, 10.196078%, 9.019608%)" fill-opacity="1" d="M 6.035156 6.039062 L 6.035156 5.84375 L 6.234375 5.84375 L 7.734375 7.34375 L 7.535156 7.539062 Z M 5.933594 5.9375 L 6.035156 5.84375 L 6.035156 6.039062 "/>
<path fill-rule="nonzero" fill="rgb(12.156863%, 10.196078%, 9.019608%)" fill-opacity="1" d="M 6.035156 5.84375 L 7.355469 4.523438 L 7.554688 4.523438 L 7.554688 4.710938 L 6.234375 6.039062 Z M 7.355469 4.523438 L 7.453125 4.417969 L 7.554688 4.523438 "/>
<path fill-rule="nonzero" fill="rgb(100%, 100%, 100%)" fill-opacity="1" d="M 4.863281 2.007812 L 15.109375 2.019531 L 10 7.140625 "/>
<path fill-rule="nonzero" fill="rgb(12.156863%, 10.196078%, 9.019608%)" fill-opacity="1" d="M 4.863281 2.148438 L 4.863281 1.878906 L 15.109375 1.878906 L 15.210938 2.121094 L 15.109375 2.160156 Z M 15.109375 1.878906 L 15.433594 1.878906 L 15.210938 2.121094 "/>
<path fill-rule="nonzero" fill="rgb(12.156863%, 10.196078%, 9.019608%)" fill-opacity="1" d="M 9.90625 7.242188 L 10.09375 7.230469 L 10 7.335938 Z M 9.90625 7.042969 L 15.015625 1.925781 L 15.210938 2.121094 L 10.09375 7.230469 L 9.90625 7.242188 "/>
<path fill-rule="nonzero" fill="rgb(12.156863%, 10.196078%, 9.019608%)" fill-opacity="1" d="M 4.769531 2.113281 L 4.863281 1.878906 L 4.964844 1.917969 L 10.09375 7.042969 L 9.90625 7.242188 Z M 4.535156 1.878906 L 4.863281 1.878906 L 4.769531 2.113281 "/>
<path fill-rule="nonzero" fill="rgb(100%, 100%, 100%)" fill-opacity="1" d="M 13.777344 3.371094 L 15.117188 2.027344 L 16.457031 3.371094 L 15.109375 4.710938 Z M 13.777344 3.371094 "/>
<path fill-rule="nonzero" fill="rgb(12.156863%, 10.196078%, 9.019608%)" fill-opacity="1" d="M 16.554688 3.269531 L 16.65625 3.371094 L 16.554688 3.464844 Z M 16.359375 3.464844 L 15.027344 2.121094 L 15.222656 1.9375 L 16.554688 3.269531 L 16.554688 3.464844 "/>
<path fill-rule="nonzero" fill="rgb(12.156863%, 10.196078%, 9.019608%)" fill-opacity="1" d="M 15.015625 4.804688 L 15.210938 4.804688 L 15.109375 4.90625 Z M 15.210938 4.804688 L 15.015625 4.804688 L 15.015625 4.609375 L 16.359375 3.269531 L 16.554688 3.464844 "/>
<path fill-rule="nonzero" fill="rgb(12.156863%, 10.196078%, 9.019608%)" fill-opacity="1" d="M 13.671875 3.472656 L 13.671875 3.277344 L 13.871094 3.277344 L 15.210938 4.609375 L 15.015625 4.804688 Z M 13.582031 3.371094 L 13.671875 3.277344 L 13.671875 3.472656 "/>
<path fill-rule="nonzero" fill="rgb(12.156863%, 10.196078%, 9.019608%)" fill-opacity="1" d="M 13.671875 3.277344 L 15.027344 1.9375 L 15.222656 1.9375 L 15.222656 2.121094 L 13.871094 3.472656 Z M 15.027344 1.9375 L 15.117188 1.832031 L 15.222656 1.9375 "/>
<path fill-rule="nonzero" fill="rgb(100%, 100%, 100%)" fill-opacity="1" d="M 11.105469 6.03125 L 12.449219 4.695312 L 13.777344 6.019531 L 12.441406 7.363281 Z M 11.105469 6.03125 "/>
<path fill-rule="nonzero" fill="rgb(12.156863%, 10.196078%, 9.019608%)" fill-opacity="1" d="M 13.882812 5.929688 L 13.972656 6.019531 L 13.882812 6.125 Z M 13.683594 6.125 L 12.34375 4.785156 L 12.539062 4.589844 L 13.882812 5.929688 L 13.882812 6.125 "/>
<path fill-rule="nonzero" fill="rgb(12.156863%, 10.196078%, 9.019608%)" fill-opacity="1" d="M 12.34375 7.464844 L 12.539062 7.464844 L 12.441406 7.558594 Z M 12.539062 7.464844 L 12.34375 7.464844 L 12.34375 7.269531 L 13.683594 5.929688 L 13.882812 6.125 "/>
<path fill-rule="nonzero" fill="rgb(12.156863%, 10.196078%, 9.019608%)" fill-opacity="1" d="M 11.003906 6.125 L 11.003906 5.929688 L 11.199219 5.929688 L 12.539062 7.269531 L 12.34375 7.464844 Z M 10.910156 6.03125 L 11.003906 5.929688 L 11.003906 6.125 "/>
<path fill-rule="nonzero" fill="rgb(12.156863%, 10.196078%, 9.019608%)" fill-opacity="1" d="M 11.003906 5.929688 L 12.34375 4.589844 L 12.539062 4.589844 L 12.539062 4.785156 L 11.199219 6.125 Z M 12.34375 4.589844 L 12.449219 4.496094 L 12.539062 4.589844 "/>
</svg>
