<?xml version="1.0" encoding="UTF-8"?>
<svg xmlns="http://www.w3.org/2000/svg" xmlns:xlink="http://www.w3.org/1999/xlink" width="18" height="12.050143" viewBox="0 0 18 12.050143">
<path fill-rule="nonzero" fill="rgb(100%, 100%, 100%)" fill-opacity="1" stroke-width="0.2" stroke-linecap="butt" stroke-linejoin="miter" stroke="rgb(0%, 0%, 0%)" stroke-opacity="1" stroke-miterlimit="4" d="M 0.0999583 0.099958 L 13.857858 0.099958 L 13.857858 9.24463 L 0.0999583 9.24463 Z M 0.0999583 0.099958 " transform="matrix(1.2896, 0, 0, 1.2896, 0, 0.000000411666)"/>
<path fill-rule="nonzero" fill="rgb(0%, 0%, 0%)" fill-opacity="1" d="M 4.441406 7.554688 C 4.441406 7.890625 4.496094 8.164062 4.601562 8.382812 C 4.804688 8.785156 5.160156 8.988281 5.683594 8.988281 C 6.007812 8.988281 6.289062 8.875 6.527344 8.65625 C 6.769531 8.433594 6.882812 8.121094 6.882812 7.707031 C 6.882812 7.160156 6.664062 6.796875 6.21875 6.609375 C 5.96875 6.507812 5.570312 6.453125 5.03125 6.453125 L 5.03125 5.285156 C 5.558594 5.28125 5.933594 5.222656 6.140625 5.128906 C 6.507812 4.972656 6.6875 4.644531 6.6875 4.15625 C 6.6875 3.839844 6.59375 3.582031 6.40625 3.378906 C 6.222656 3.183594 5.960938 3.082031 5.625 3.082031 C 5.238281 3.082031 4.953125 3.203125 4.773438 3.449219 C 4.59375 3.691406 4.507812 4.019531 4.511719 4.433594 L 2.984375 4.433594 C 3 4.019531 3.070312 3.628906 3.195312 3.253906 C 3.332031 2.933594 3.542969 2.628906 3.832031 2.351562 C 4.042969 2.160156 4.300781 2.011719 4.59375 1.910156 C 4.882812 1.804688 5.246094 1.753906 5.675781 1.753906 C 6.472656 1.753906 7.109375 1.960938 7.597656 2.367188 C 8.089844 2.78125 8.328125 3.328125 8.328125 4.023438 C 8.328125 4.515625 8.1875 4.925781 7.898438 5.265625 C 7.710938 5.472656 7.519531 5.617188 7.324219 5.691406 C 7.472656 5.691406 7.683594 5.820312 7.960938 6.074219 C 8.378906 6.464844 8.59375 6.992188 8.59375 7.664062 C 8.59375 8.363281 8.34375 8.980469 7.855469 9.515625 C 7.371094 10.050781 6.648438 10.316406 5.695312 10.316406 C 4.515625 10.316406 3.695312 9.929688 3.238281 9.164062 C 2.996094 8.753906 2.863281 8.214844 2.839844 7.554688 Z M 11.09375 6.03125 C 11.09375 6.988281 11.175781 7.71875 11.332031 8.226562 C 11.488281 8.730469 11.8125 8.988281 12.292969 8.988281 C 12.78125 8.988281 13.101562 8.730469 13.25 8.226562 C 13.402344 7.71875 13.476562 6.988281 13.476562 6.03125 C 13.476562 5.027344 13.402344 4.289062 13.25 3.804688 C 13.101562 3.324219 12.78125 3.082031 12.292969 3.082031 C 11.8125 3.082031 11.488281 3.324219 11.332031 3.804688 C 11.175781 4.289062 11.09375 5.027344 11.09375 6.03125 Z M 12.292969 1.734375 C 13.351562 1.734375 14.097656 2.105469 14.519531 2.851562 C 14.949219 3.597656 15.160156 4.660156 15.160156 6.03125 C 15.160156 7.40625 14.949219 8.464844 14.519531 9.203125 C 14.097656 9.945312 13.351562 10.316406 12.292969 10.316406 C 11.238281 10.316406 10.492188 9.945312 10.066406 9.203125 C 9.640625 8.464844 9.429688 7.40625 9.429688 6.03125 C 9.429688 4.660156 9.640625 3.597656 10.066406 2.851562 C 10.492188 2.105469 11.238281 1.734375 12.292969 1.734375 Z M 2.527344 1.0625 "/>
</svg>
