<?xml version="1.0" encoding="UTF-8"?>
<svg xmlns="http://www.w3.org/2000/svg" xmlns:xlink="http://www.w3.org/1999/xlink" width="18" height="12.050142" viewBox="0 0 18 12.050142">
<path fill-rule="nonzero" fill="rgb(100%, 100%, 100%)" fill-opacity="1" stroke-width="0.2" stroke-linecap="butt" stroke-linejoin="miter" stroke="rgb(0%, 0%, 0%)" stroke-opacity="1" stroke-miterlimit="4" d="M 0.0999583 0.0999583 L 13.857858 0.0999583 L 13.857858 9.24463 L 0.0999583 9.24463 Z M 0.0999583 0.0999583 " transform="matrix(1.2896, 0, 0, 1.2896, 0, 0)"/>
<path fill-rule="nonzero" fill="rgb(0%, 0%, 0%)" fill-opacity="1" d="M 2.859375 4.714844 C 2.859375 3.828125 3.117188 3.101562 3.628906 2.554688 C 4.144531 2 4.808594 1.722656 5.636719 1.722656 C 6.898438 1.722656 7.765625 2.28125 8.238281 3.40625 C 8.507812 4.039062 8.636719 4.875 8.636719 5.910156 C 8.636719 6.917969 8.511719 7.757812 8.253906 8.429688 C 7.765625 9.707031 6.863281 10.351562 5.558594 10.351562 C 4.933594 10.351562 4.375 10.164062 3.875 9.796875 C 3.382812 9.425781 3.097656 8.890625 3.027344 8.179688 L 4.652344 8.179688 C 4.691406 8.429688 4.792969 8.625 4.960938 8.78125 C 5.132812 8.933594 5.351562 9.007812 5.636719 9.007812 C 6.175781 9.007812 6.550781 8.710938 6.769531 8.117188 C 6.890625 7.78125 6.960938 7.304688 6.988281 6.675781 C 6.84375 6.859375 6.683594 7.003906 6.515625 7.101562 C 6.210938 7.289062 5.832031 7.378906 5.386719 7.378906 C 4.722656 7.378906 4.140625 7.148438 3.625 6.695312 C 3.109375 6.238281 2.859375 5.578125 2.859375 4.714844 Z M 5.742188 6.050781 C 5.96875 6.050781 6.179688 5.984375 6.378906 5.855469 C 6.75 5.617188 6.933594 5.203125 6.933594 4.621094 C 6.933594 4.152344 6.824219 3.777344 6.605469 3.5 C 6.386719 3.222656 6.082031 3.089844 5.699219 3.089844 C 5.421875 3.089844 5.179688 3.167969 4.984375 3.324219 C 4.671875 3.566406 4.515625 3.984375 4.515625 4.570312 C 4.515625 5.0625 4.617188 5.429688 4.8125 5.675781 C 5.015625 5.925781 5.328125 6.050781 5.742188 6.050781 Z M 11.074219 6.03125 C 11.074219 6.988281 11.15625 7.71875 11.3125 8.226562 C 11.46875 8.730469 11.789062 8.988281 12.273438 8.988281 C 12.761719 8.988281 13.082031 8.730469 13.230469 8.226562 C 13.382812 7.71875 13.457031 6.988281 13.457031 6.03125 C 13.457031 5.027344 13.382812 4.289062 13.230469 3.804688 C 13.082031 3.324219 12.761719 3.082031 12.273438 3.082031 C 11.789062 3.082031 11.46875 3.324219 11.3125 3.804688 C 11.15625 4.289062 11.074219 5.027344 11.074219 6.03125 Z M 12.273438 1.734375 C 13.332031 1.734375 14.078125 2.105469 14.5 2.851562 C 14.929688 3.597656 15.140625 4.660156 15.140625 6.03125 C 15.140625 7.40625 14.929688 8.464844 14.5 9.203125 C 14.078125 9.945312 13.332031 10.316406 12.273438 10.316406 C 11.214844 10.316406 10.472656 9.945312 10.046875 9.203125 C 9.621094 8.464844 9.40625 7.40625 9.40625 6.03125 C 9.40625 4.660156 9.621094 3.597656 10.046875 2.851562 C 10.472656 2.105469 11.214844 1.734375 12.273438 1.734375 Z M 2.507812 1.0625 "/>
</svg>
