<?xml version="1.0" encoding="UTF-8"?>
<svg xmlns="http://www.w3.org/2000/svg" xmlns:xlink="http://www.w3.org/1999/xlink" width="18" height="15.413925" viewBox="0 0 18 15.413925">
<path fill-rule="nonzero" fill="rgb(100%, 79.607843%, 0%)" fill-opacity="1" stroke-width="0.7" stroke-linecap="round" stroke-linejoin="round" stroke="rgb(100%, 79.607843%, 0%)" stroke-opacity="1" stroke-miterlimit="4" d="M 21.972775 0.444041 C 13.540851 0.444041 7.114436 0.414764 0.35133 0.351329 C 3.615773 6.104361 7.836615 13.150483 11.101058 18.903515 C 14.482611 13.160242 22.133801 0.444041 22.133801 0.444041 Z M 21.972775 0.444041 " transform="matrix(0.800529, 0, 0, 0.800529, 0, 0.00000065376)"/>
<path fill-rule="nonzero" fill="rgb(0%, 0%, 0%)" fill-opacity="1" d="M 11.332031 3.292969 C 11.332031 3.816406 11.1875 4.238281 10.894531 4.550781 C 10.601562 4.859375 10.207031 5.0625 9.710938 5.164062 L 9.710938 5.207031 C 10.339844 5.28125 10.808594 5.480469 11.113281 5.800781 C 11.421875 6.121094 11.574219 6.542969 11.574219 7.058594 C 11.574219 7.511719 11.46875 7.917969 11.257812 8.277344 C 11.046875 8.628906 10.714844 8.902344 10.269531 9.097656 C 9.832031 9.296875 9.265625 9.394531 8.574219 9.394531 C 8.164062 9.394531 7.785156 9.359375 7.433594 9.296875 C 7.082031 9.238281 6.746094 9.128906 6.425781 8.964844 L 6.425781 8.066406 C 6.753906 8.230469 7.109375 8.355469 7.488281 8.453125 C 7.867188 8.539062 8.234375 8.582031 8.582031 8.582031 C 9.285156 8.582031 9.789062 8.449219 10.09375 8.179688 C 10.410156 7.898438 10.566406 7.519531 10.566406 7.039062 C 10.566406 6.550781 10.375 6.199219 9.984375 5.988281 C 9.605469 5.765625 9.070312 5.65625 8.375 5.65625 L 7.621094 5.65625 L 7.621094 4.835938 L 8.386719 4.835938 C 9.027344 4.835938 9.515625 4.699219 9.84375 4.429688 C 10.179688 4.160156 10.347656 3.800781 10.347656 3.355469 C 10.347656 2.976562 10.21875 2.683594 9.964844 2.480469 C 9.707031 2.269531 9.363281 2.164062 8.921875 2.164062 C 8.5 2.164062 8.136719 2.226562 7.839844 2.347656 C 7.539062 2.472656 7.242188 2.628906 6.953125 2.820312 L 6.46875 2.164062 C 6.746094 1.945312 7.089844 1.753906 7.5 1.59375 C 7.914062 1.433594 8.386719 1.351562 8.914062 1.351562 C 9.730469 1.351562 10.335938 1.535156 10.730469 1.898438 C 11.132812 2.265625 11.332031 2.730469 11.332031 3.292969 Z M 11.332031 3.292969 "/>
</svg>
