<?xml version="1.0" encoding="UTF-8"?>
<svg xmlns="http://www.w3.org/2000/svg" xmlns:xlink="http://www.w3.org/1999/xlink" width="8" height="28.95763" viewBox="0 0 8 28.95763">
<path fill-rule="nonzero" fill="rgb(100%, 100%, 100%)" fill-opacity="1" stroke-width="0.163668" stroke-linecap="butt" stroke-linejoin="miter" stroke="rgb(0%, 0%, 0%)" stroke-opacity="1" stroke-miterlimit="4" d="M 0.0834056 0.0834056 L 6.243066 0.0834056 L 6.243066 22.816073 L 0.0834056 22.816073 Z M 0.0834056 0.0834056 " transform="matrix(1.264528, 0, 0, 1.264528, 0, 0)"/>
<path fill-rule="nonzero" fill="rgb(0%, 0%, 0%)" fill-opacity="1" d="M 1.246094 3.707031 L 1.246094 2.601562 C 1.753906 2.578125 2.109375 2.546875 2.328125 2.496094 C 2.648438 2.425781 2.917969 2.277344 3.125 2.058594 C 3.265625 1.914062 3.378906 1.714844 3.441406 1.460938 C 3.480469 1.316406 3.507812 1.203125 3.507812 1.132812 L 4.863281 1.132812 L 4.863281 9.4375 L 3.191406 9.4375 L 3.191406 3.707031 Z M 2.8125 14.390625 C 2.8125 15.34375 2.890625 16.070312 3.046875 16.578125 C 3.199219 17.082031 3.53125 17.339844 4.015625 17.339844 C 4.5 17.339844 4.816406 17.082031 4.96875 16.578125 C 5.113281 16.070312 5.1875 15.34375 5.1875 14.390625 C 5.1875 13.386719 5.113281 12.652344 4.96875 12.167969 C 4.816406 11.683594 4.5 11.441406 4.015625 11.441406 C 3.53125 11.441406 3.199219 11.683594 3.046875 12.167969 C 2.890625 12.652344 2.8125 13.386719 2.8125 14.390625 Z M 4.015625 10.101562 C 5.074219 10.101562 5.808594 10.472656 6.238281 11.214844 C 6.65625 11.957031 6.875 13.015625 6.875 14.390625 C 6.875 15.753906 6.65625 16.8125 6.238281 17.558594 C 5.808594 18.292969 5.074219 18.664062 4.015625 18.664062 C 2.957031 18.664062 2.214844 18.292969 1.792969 17.558594 C 1.355469 16.8125 1.15625 15.753906 1.15625 14.390625 C 1.15625 13.015625 1.355469 11.957031 1.792969 11.214844 C 2.214844 10.472656 2.957031 10.101562 4.015625 10.101562 Z M 2.796875 23.550781 C 2.796875 24.503906 2.867188 25.234375 3.03125 25.742188 C 3.183594 26.242188 3.507812 26.5 3.992188 26.5 C 4.476562 26.5 4.800781 26.242188 4.945312 25.742188 C 5.097656 25.234375 5.171875 24.503906 5.171875 23.550781 C 5.171875 22.550781 5.097656 21.816406 4.945312 21.332031 C 4.800781 20.84375 4.476562 20.609375 3.992188 20.609375 C 3.507812 20.609375 3.183594 20.84375 3.03125 21.332031 C 2.867188 21.816406 2.796875 22.550781 2.796875 23.550781 Z M 3.992188 19.261719 C 5.050781 19.261719 5.792969 19.632812 6.214844 20.378906 C 6.640625 21.121094 6.851562 22.179688 6.851562 23.550781 C 6.851562 24.917969 6.640625 25.976562 6.214844 26.71875 C 5.792969 27.453125 5.050781 27.828125 3.992188 27.828125 C 2.933594 27.828125 2.191406 27.453125 1.769531 26.71875 C 1.339844 25.976562 1.125 24.917969 1.125 23.550781 C 1.125 22.179688 1.339844 21.121094 1.769531 20.378906 C 2.191406 19.632812 2.933594 19.261719 3.992188 19.261719 Z M 3.992188 19.261719 "/>
</svg>
