<?xml version="1.0" encoding="UTF-8"?>
<svg xmlns="http://www.w3.org/2000/svg" xmlns:xlink="http://www.w3.org/1999/xlink" width="18" height="12.050141" viewBox="0 0 18 12.050141">
<path fill-rule="nonzero" fill="rgb(100%, 100%, 100%)" fill-opacity="1" stroke-width="0.2" stroke-linecap="butt" stroke-linejoin="miter" stroke="rgb(0%, 0%, 0%)" stroke-opacity="1" stroke-miterlimit="4" d="M 0.0999583 0.0999583 L 13.857858 0.0999583 L 13.857858 9.24463 L 0.0999583 9.24463 Z M 0.0999583 0.0999583 " transform="matrix(1.2896, 0, 0, 1.2896, 0, 0)"/>
<path fill-rule="nonzero" fill="rgb(0%, 0%, 0%)" fill-opacity="1" d="M 1.324219 4.71875 L 1.324219 3.84375 C 1.730469 3.824219 2.011719 3.796875 2.179688 3.761719 C 2.4375 3.703125 2.648438 3.585938 2.8125 3.414062 C 2.925781 3.300781 3.011719 3.144531 3.066406 2.945312 C 3.09375 2.828125 3.117188 2.742188 3.117188 2.683594 L 4.1875 2.683594 L 4.1875 9.25 L 2.863281 9.25 L 2.863281 4.71875 Z M 6.128906 9.25 C 6.136719 8.78125 6.238281 8.347656 6.429688 7.960938 C 6.613281 7.519531 7.050781 7.058594 7.734375 6.570312 C 8.328125 6.140625 8.710938 5.839844 8.890625 5.652344 C 9.15625 5.363281 9.292969 5.054688 9.292969 4.710938 C 9.292969 4.433594 9.214844 4.203125 9.058594 4.019531 C 8.902344 3.832031 8.6875 3.742188 8.398438 3.742188 C 8.007812 3.742188 7.742188 3.890625 7.597656 4.179688 C 7.511719 4.351562 7.46875 4.621094 7.453125 4.988281 L 6.199219 4.988281 C 6.21875 4.429688 6.320312 3.980469 6.5 3.632812 C 6.84375 2.976562 7.457031 2.648438 8.335938 2.648438 C 9.03125 2.648438 9.582031 2.847656 9.992188 3.230469 C 10.40625 3.613281 10.605469 4.125 10.605469 4.753906 C 10.605469 5.246094 10.464844 5.675781 10.171875 6.050781 C 9.980469 6.300781 9.667969 6.585938 9.238281 6.890625 L 8.722656 7.257812 C 8.394531 7.484375 8.179688 7.652344 8.058594 7.753906 C 7.9375 7.859375 7.835938 7.972656 7.753906 8.109375 L 10.621094 8.109375 L 10.621094 9.25 Z M 6.128906 9.25 "/>
<path fill-rule="nonzero" fill="rgb(0%, 0%, 0%)" fill-opacity="1" d="M 13.246094 7.496094 C 13.300781 7.792969 13.402344 8.015625 13.554688 8.175781 C 13.703125 8.34375 13.933594 8.417969 14.222656 8.417969 C 14.558594 8.417969 14.816406 8.304688 14.988281 8.066406 C 15.164062 7.824219 15.253906 7.53125 15.253906 7.171875 C 15.253906 6.816406 15.175781 6.523438 15.007812 6.277344 C 14.84375 6.035156 14.585938 5.914062 14.238281 5.914062 C 14.070312 5.914062 13.929688 5.933594 13.804688 5.976562 C 13.589844 6.050781 13.433594 6.195312 13.324219 6.398438 L 12.109375 6.339844 L 12.59375 2.523438 L 16.402344 2.523438 L 16.402344 3.679688 L 13.574219 3.679688 L 13.324219 5.191406 C 13.53125 5.050781 13.699219 4.964844 13.820312 4.917969 C 14.015625 4.847656 14.253906 4.808594 14.535156 4.808594 C 15.105469 4.808594 15.605469 5.003906 16.03125 5.386719 C 16.460938 5.769531 16.675781 6.328125 16.675781 7.058594 C 16.675781 7.699219 16.464844 8.269531 16.058594 8.773438 C 15.648438 9.273438 15.03125 9.527344 14.21875 9.527344 C 13.558594 9.527344 13.019531 9.351562 12.59375 8.996094 C 12.171875 8.644531 11.941406 8.144531 11.894531 7.496094 Z M 13.246094 7.496094 "/>
</svg>
