<?xml version="1.0" encoding="UTF-8"?>
<svg xmlns="http://www.w3.org/2000/svg" xmlns:xlink="http://www.w3.org/1999/xlink" width="18" height="15.413925" viewBox="0 0 18 15.413925">
<path fill-rule="nonzero" fill="rgb(100%, 79.607843%, 0%)" fill-opacity="1" stroke-width="0.7" stroke-linecap="round" stroke-linejoin="round" stroke="rgb(100%, 79.607843%, 0%)" stroke-opacity="1" stroke-miterlimit="4" d="M 21.972775 0.444041 C 13.540851 0.444041 7.114436 0.414764 0.35133 0.351329 C 3.615773 6.104361 7.836615 13.150483 11.101058 18.903515 C 14.482611 13.160242 22.133801 0.444041 22.133801 0.444041 Z M 21.972775 0.444041 " transform="matrix(0.800529, 0, 0, 0.800529, 0, 0.00000065376)"/>
<path fill-rule="nonzero" fill="rgb(0%, 0%, 0%)" fill-opacity="1" d="M 10.457031 9.285156 L 9.515625 9.285156 L 9.515625 3.816406 C 9.515625 3.503906 9.519531 3.25 9.527344 3.0625 C 9.53125 2.871094 9.542969 2.675781 9.558594 2.46875 C 9.441406 2.585938 9.335938 2.683594 9.242188 2.765625 C 9.144531 2.847656 9.027344 2.949219 8.878906 3.070312 L 8.046875 3.75 L 7.542969 3.105469 L 9.65625 1.460938 L 10.457031 1.460938 Z M 10.457031 9.285156 "/>
</svg>
