<?xml version="1.0" encoding="UTF-8"?>
<svg xmlns="http://www.w3.org/2000/svg" xmlns:xlink="http://www.w3.org/1999/xlink" width="8" height="22.406135" viewBox="0 0 8 22.406135">
<path fill-rule="nonzero" fill="rgb(100%, 79.607843%, 0%)" fill-opacity="1" stroke-width="0.153622" stroke-linecap="butt" stroke-linejoin="miter" stroke="rgb(0%, 0%, 0%)" stroke-opacity="1" stroke-miterlimit="4" d="M 0.0790238 0.0790238 L 6.66763 0.0790238 L 6.66763 18.807655 L 0.0790238 18.807655 Z M 0.0790238 0.0790238 " transform="matrix(1.186352, 0, 0, 1.186352, 0, 0)"/>
<path fill-rule="nonzero" fill="rgb(0%, 0%, 0%)" fill-opacity="1" d="M 2.808594 14.503906 L 4.375 14.503906 L 4.375 16.460938 L 2.808594 16.460938 Z M 4.328125 13.367188 L 2.855469 13.367188 L 2.855469 12.171875 C 2.855469 11.652344 2.925781 11.226562 3.070312 10.890625 C 3.214844 10.558594 3.519531 10.164062 3.980469 9.726562 L 4.675781 9.039062 C 4.96875 8.769531 5.183594 8.507812 5.308594 8.269531 C 5.4375 8.027344 5.507812 7.777344 5.507812 7.527344 C 5.507812 7.070312 5.339844 6.695312 5 6.414062 C 4.671875 6.132812 4.21875 5.988281 3.664062 5.988281 C 3.257812 5.988281 2.824219 6.082031 2.355469 6.257812 C 1.902344 6.4375 1.425781 6.703125 0.925781 7.046875 L 0.925781 5.59375 C 1.40625 5.300781 1.894531 5.082031 2.394531 4.9375 C 2.886719 4.796875 3.402344 4.71875 3.933594 4.71875 C 4.882812 4.71875 5.640625 4.96875 6.207031 5.46875 C 6.789062 5.96875 7.078125 6.625 7.078125 7.445312 C 7.078125 7.839844 6.984375 8.214844 6.800781 8.570312 C 6.613281 8.914062 6.289062 9.316406 5.828125 9.753906 L 5.144531 10.421875 C 4.902344 10.664062 4.734375 10.851562 4.632812 10.992188 C 4.53125 11.128906 4.464844 11.257812 4.421875 11.382812 C 4.390625 11.492188 4.363281 11.628906 4.351562 11.777344 C 4.332031 11.933594 4.328125 12.148438 4.328125 12.414062 Z M 4.328125 13.367188 "/>
</svg>
