<?xml version="1.0" encoding="UTF-8"?>
<svg xmlns="http://www.w3.org/2000/svg" xmlns:xlink="http://www.w3.org/1999/xlink" width="18" height="12.050143" viewBox="0 0 18 12.050143">
<path fill-rule="nonzero" fill="rgb(100%, 100%, 100%)" fill-opacity="1" stroke-width="0.2" stroke-linecap="butt" stroke-linejoin="miter" stroke="rgb(0%, 0%, 0%)" stroke-opacity="1" stroke-miterlimit="4" d="M 0.0999583 0.099958 L 13.857858 0.099958 L 13.857858 9.24463 L 0.0999583 9.24463 Z M 0.0999583 0.099958 " transform="matrix(1.2896, 0, 0, 1.2896, 0, 0.000000411666)"/>
<path fill-rule="nonzero" fill="rgb(0%, 0%, 0%)" fill-opacity="1" d="M 7.996094 9.320312 L 9.316406 9.320312 L 9.316406 10.972656 L 7.996094 10.972656 Z M 9.277344 8.363281 L 8.035156 8.363281 L 8.035156 7.359375 C 8.035156 6.921875 8.09375 6.5625 8.214844 6.277344 C 8.335938 5.996094 8.59375 5.667969 8.984375 5.296875 L 9.570312 4.714844 C 9.816406 4.488281 9.996094 4.269531 10.101562 4.066406 C 10.214844 3.863281 10.273438 3.652344 10.273438 3.441406 C 10.273438 3.054688 10.128906 2.742188 9.84375 2.503906 C 9.5625 2.265625 9.183594 2.144531 8.71875 2.144531 C 8.375 2.144531 8.007812 2.222656 7.617188 2.371094 C 7.230469 2.523438 6.828125 2.746094 6.40625 3.035156 L 6.40625 1.8125 C 6.8125 1.566406 7.226562 1.382812 7.644531 1.257812 C 8.0625 1.136719 8.496094 1.078125 8.945312 1.078125 C 9.742188 1.078125 10.382812 1.289062 10.863281 1.707031 C 11.351562 2.128906 11.59375 2.683594 11.59375 3.375 C 11.59375 3.707031 11.515625 4.019531 11.359375 4.320312 C 11.203125 4.613281 10.929688 4.949219 10.539062 5.320312 L 9.964844 5.882812 C 9.761719 6.085938 9.617188 6.246094 9.53125 6.363281 C 9.449219 6.476562 9.390625 6.585938 9.355469 6.695312 C 9.328125 6.785156 9.308594 6.898438 9.296875 7.027344 C 9.28125 7.15625 9.277344 7.335938 9.277344 7.5625 Z M 9.277344 8.363281 "/>
</svg>
