<?xml version="1.0" encoding="UTF-8"?>
<svg xmlns="http://www.w3.org/2000/svg" xmlns:xlink="http://www.w3.org/1999/xlink" width="8" height="21.965221" viewBox="0 0 8 21.965221">
<path fill-rule="nonzero" fill="rgb(100%, 79.607843%, 0%)" fill-opacity="1" stroke-width="0.136188" stroke-linecap="butt" stroke-linejoin="miter" stroke="rgb(0%, 0%, 0%)" stroke-opacity="1" stroke-miterlimit="4" d="M 0.0692361 0.0692361 L 7.024006 0.0692361 L 7.024006 19.396503 L 0.0692361 19.396503 Z M 0.0692361 0.0692361 " transform="matrix(1.128385, 0, 0, 1.128385, 0, 0)"/>
<path fill-rule="nonzero" fill="rgb(0%, 0%, 0%)" fill-opacity="1" d="M 2.566406 7.507812 C 2.566406 7.886719 2.628906 8.195312 2.746094 8.4375 C 2.972656 8.898438 3.375 9.125 3.964844 9.125 C 4.332031 9.125 4.652344 8.996094 4.921875 8.75 C 5.191406 8.5 5.320312 8.144531 5.320312 7.679688 C 5.320312 7.058594 5.074219 6.648438 4.570312 6.441406 C 4.289062 6.324219 3.835938 6.261719 3.230469 6.261719 L 3.230469 4.945312 C 3.824219 4.941406 4.246094 4.878906 4.480469 4.769531 C 4.898438 4.597656 5.097656 4.222656 5.097656 3.671875 C 5.097656 3.316406 4.996094 3.027344 4.78125 2.792969 C 4.578125 2.574219 4.277344 2.464844 3.898438 2.464844 C 3.460938 2.464844 3.144531 2.597656 2.941406 2.875 C 2.738281 3.148438 2.640625 3.519531 2.648438 3.984375 L 0.917969 3.984375 C 0.9375 3.519531 1.015625 3.078125 1.160156 2.652344 C 1.3125 2.292969 1.550781 1.949219 1.875 1.636719 C 2.113281 1.421875 2.410156 1.25 2.738281 1.140625 C 3.0625 1.015625 3.476562 0.960938 3.960938 0.960938 C 4.859375 0.960938 5.578125 1.195312 6.128906 1.65625 C 6.679688 2.121094 6.949219 2.738281 6.949219 3.523438 C 6.949219 4.074219 6.789062 4.542969 6.464844 4.925781 C 6.257812 5.160156 6.035156 5.320312 5.816406 5.40625 C 5.988281 5.40625 6.226562 5.550781 6.539062 5.835938 C 7.011719 6.277344 7.25 6.871094 7.25 7.628906 C 7.25 8.421875 6.96875 9.113281 6.417969 9.71875 C 5.871094 10.328125 5.054688 10.621094 3.976562 10.621094 C 2.648438 10.621094 1.722656 10.1875 1.207031 9.320312 C 0.929688 8.863281 0.785156 8.253906 0.761719 7.507812 Z M 2.628906 16.167969 C 2.628906 17.246094 2.722656 18.074219 2.898438 18.644531 C 3.070312 19.214844 3.4375 19.5 3.976562 19.5 C 4.527344 19.5 4.890625 19.214844 5.0625 18.644531 C 5.234375 18.074219 5.3125 17.246094 5.3125 16.167969 C 5.3125 15.035156 5.234375 14.199219 5.0625 13.65625 C 4.890625 13.117188 4.527344 12.839844 3.976562 12.839844 C 3.4375 12.839844 3.070312 13.117188 2.898438 13.65625 C 2.722656 14.199219 2.628906 15.035156 2.628906 16.167969 Z M 3.976562 11.320312 C 5.171875 11.320312 6.019531 11.738281 6.492188 12.582031 C 6.972656 13.421875 7.214844 14.625 7.214844 16.167969 C 7.214844 17.71875 6.972656 18.914062 6.492188 19.746094 C 6.019531 20.585938 5.171875 21.003906 3.976562 21.003906 C 2.789062 21.003906 1.949219 20.585938 1.464844 19.746094 C 0.988281 18.914062 0.746094 17.71875 0.746094 16.167969 C 0.746094 14.625 0.988281 13.421875 1.464844 12.582031 C 1.949219 11.738281 2.789062 11.320312 3.976562 11.320312 Z M 3.976562 11.320312 "/>
</svg>
