<?xml version="1.0" encoding="UTF-8"?>
<svg xmlns="http://www.w3.org/2000/svg" xmlns:xlink="http://www.w3.org/1999/xlink" width="18" height="15.413925" viewBox="0 0 18 15.413925">
<path fill-rule="nonzero" fill="rgb(100%, 79.607843%, 0%)" fill-opacity="1" stroke-width="0.7" stroke-linecap="round" stroke-linejoin="round" stroke="rgb(100%, 79.607843%, 0%)" stroke-opacity="1" stroke-miterlimit="4" d="M 21.972775 0.444041 C 13.540851 0.444041 7.114436 0.414764 0.35133 0.351329 C 3.615773 6.104361 7.836615 13.150483 11.101058 18.903515 C 14.482611 13.160242 22.133801 0.444041 22.133801 0.444041 Z M 21.972775 0.444041 " transform="matrix(0.800529, 0, 0, 0.800529, 0, 0.00000065376)"/>
<path fill-rule="nonzero" fill="rgb(0%, 0%, 0%)" fill-opacity="1" d="M 11.574219 4.804688 C 11.574219 5.367188 11.523438 5.921875 11.421875 6.46875 C 11.328125 7.007812 11.148438 7.503906 10.882812 7.949219 C 10.628906 8.386719 10.261719 8.738281 9.789062 9 C 9.320312 9.261719 8.71875 9.394531 7.980469 9.394531 C 7.835938 9.394531 7.664062 9.382812 7.464844 9.359375 C 7.277344 9.347656 7.121094 9.320312 6.996094 9.285156 L 6.996094 8.460938 C 7.28125 8.558594 7.601562 8.605469 7.960938 8.605469 C 8.46875 8.605469 8.890625 8.519531 9.21875 8.351562 C 9.554688 8.183594 9.820312 7.957031 10.019531 7.675781 C 10.214844 7.382812 10.359375 7.046875 10.445312 6.664062 C 10.535156 6.277344 10.585938 5.875 10.597656 5.449219 L 10.535156 5.449219 C 10.375 5.699219 10.140625 5.914062 9.832031 6.097656 C 9.53125 6.269531 9.144531 6.359375 8.671875 6.359375 C 8 6.359375 7.457031 6.15625 7.039062 5.746094 C 6.628906 5.328125 6.425781 4.746094 6.425781 3.992188 C 6.425781 3.445312 6.527344 2.972656 6.730469 2.578125 C 6.945312 2.183594 7.234375 1.882812 7.609375 1.667969 C 7.980469 1.457031 8.417969 1.351562 8.921875 1.351562 C 9.421875 1.351562 9.871094 1.480469 10.269531 1.734375 C 10.671875 1.984375 10.992188 2.363281 11.222656 2.875 C 11.457031 3.378906 11.574219 4.023438 11.574219 4.804688 Z M 8.921875 2.164062 C 8.46875 2.164062 8.097656 2.3125 7.804688 2.613281 C 7.519531 2.910156 7.378906 3.367188 7.378906 3.980469 C 7.378906 4.484375 7.5 4.882812 7.738281 5.175781 C 7.988281 5.460938 8.367188 5.601562 8.878906 5.601562 C 9.230469 5.601562 9.53125 5.535156 9.789062 5.394531 C 10.042969 5.25 10.242188 5.066406 10.378906 4.847656 C 10.527344 4.628906 10.597656 4.402344 10.597656 4.167969 C 10.597656 3.855469 10.539062 3.542969 10.414062 3.238281 C 10.289062 2.929688 10.101562 2.675781 9.855469 2.46875 C 9.605469 2.265625 9.296875 2.164062 8.921875 2.164062 Z M 8.921875 2.164062 "/>
</svg>
