<?xml version="1.0" encoding="UTF-8"?>
<svg xmlns="http://www.w3.org/2000/svg" xmlns:xlink="http://www.w3.org/1999/xlink" width="8" height="22.334074" viewBox="0 0 8 22.334074">
<path fill-rule="nonzero" fill="rgb(100%, 79.607843%, 0%)" fill-opacity="1" stroke-width="0.164353" stroke-linecap="butt" stroke-linejoin="miter" stroke="rgb(0%, 0%, 0%)" stroke-opacity="1" stroke-miterlimit="4" d="M 0.0846795 0.0846795 L 7.141302 0.0846795 L 7.141302 20.090205 L 0.0846795 20.090205 Z M 0.0846795 0.0846795 " transform="matrix(1.107116, 0, 0, 1.107116, 0, 0)"/>
<path fill-rule="nonzero" fill="rgb(0%, 0%, 0%)" fill-opacity="1" d="M 2.617188 7.933594 C 2.691406 8.332031 2.828125 8.628906 3.027344 8.84375 C 3.226562 9.0625 3.535156 9.167969 3.917969 9.167969 C 4.367188 9.167969 4.710938 9.011719 4.941406 8.691406 C 5.179688 8.375 5.289062 7.976562 5.289062 7.503906 C 5.289062 7.027344 5.191406 6.636719 4.964844 6.3125 C 4.75 5.988281 4.398438 5.828125 3.9375 5.828125 C 3.714844 5.828125 3.527344 5.851562 3.363281 5.90625 C 3.078125 6.007812 2.867188 6.199219 2.722656 6.46875 L 1.101562 6.394531 L 1.746094 1.308594 L 6.824219 1.308594 L 6.824219 2.847656 L 3.058594 2.847656 L 2.722656 4.859375 C 3.003906 4.671875 3.222656 4.5625 3.382812 4.5 C 3.644531 4.40625 3.964844 4.351562 4.335938 4.351562 C 5.097656 4.351562 5.765625 4.613281 6.332031 5.121094 C 6.90625 5.632812 7.183594 6.375 7.183594 7.351562 C 7.183594 8.207031 6.910156 8.96875 6.363281 9.632812 C 5.820312 10.300781 4.996094 10.636719 3.914062 10.636719 C 3.035156 10.636719 2.316406 10.40625 1.75 9.933594 C 1.191406 9.464844 0.878906 8.800781 0.816406 7.933594 Z M 2.65625 16.28125 C 2.65625 17.34375 2.75 18.152344 2.917969 18.714844 C 3.089844 19.273438 3.453125 19.554688 3.980469 19.554688 C 4.523438 19.554688 4.878906 19.273438 5.042969 18.714844 C 5.210938 18.152344 5.289062 17.34375 5.289062 16.28125 C 5.289062 15.175781 5.210938 14.359375 5.042969 13.816406 C 4.878906 13.285156 4.523438 13.019531 3.980469 13.019531 C 3.453125 13.019531 3.089844 13.285156 2.917969 13.816406 C 2.871094 13.957031 2.835938 14.113281 2.796875 14.296875 C 2.703125 14.800781 2.65625 15.460938 2.65625 16.28125 Z M 3.980469 11.527344 C 5.152344 11.527344 5.980469 11.941406 6.449219 12.761719 C 6.921875 13.589844 7.160156 14.761719 7.160156 16.28125 C 7.160156 17.804688 6.921875 18.976562 6.449219 19.796875 C 5.980469 20.613281 5.152344 21.027344 3.980469 21.027344 C 2.816406 21.027344 1.988281 20.613281 1.519531 19.796875 C 1.046875 18.976562 0.808594 17.804688 0.808594 16.28125 C 0.808594 14.761719 1.046875 13.589844 1.519531 12.761719 C 1.988281 11.941406 2.816406 11.527344 3.980469 11.527344 Z M 3.980469 11.527344 "/>
</svg>
