<?xml version="1.0" encoding="UTF-8"?>
<svg xmlns="http://www.w3.org/2000/svg" xmlns:xlink="http://www.w3.org/1999/xlink" width="8" height="22.586182" viewBox="0 0 8 22.586182">
<path fill-rule="nonzero" fill="rgb(100%, 100%, 100%)" fill-opacity="1" stroke-width="0.161762" stroke-linecap="butt" stroke-linejoin="miter" stroke="rgb(0%, 0%, 0%)" stroke-opacity="1" stroke-miterlimit="4" d="M 0.0828816 0.0828816 L 6.993132 0.0828816 L 6.993132 19.884669 L 0.0828816 19.884669 Z M 0.0828816 0.0828816 " transform="matrix(1.131132, 0, 0, 1.131132, 0, 0)"/>
<path fill-rule="nonzero" fill="rgb(0%, 0%, 0%)" fill-opacity="1" d="M 2.601562 7.652344 C 2.601562 8.160156 2.742188 8.570312 3.019531 8.898438 C 3.285156 9.214844 3.628906 9.371094 4.050781 9.371094 C 4.460938 9.371094 4.789062 9.21875 5.015625 8.910156 C 5.25 8.601562 5.371094 8.199219 5.371094 7.699219 C 5.371094 7.160156 5.242188 6.738281 4.964844 6.441406 C 4.703125 6.15625 4.378906 6.003906 3.984375 6.003906 C 3.667969 6.003906 3.390625 6.101562 3.152344 6.296875 C 2.785156 6.574219 2.601562 7.027344 2.601562 7.652344 Z M 5.207031 3.585938 C 5.207031 3.441406 5.148438 3.277344 5.027344 3.09375 C 4.832031 2.796875 4.53125 2.652344 4.128906 2.652344 C 3.527344 2.652344 3.101562 2.988281 2.84375 3.660156 C 2.710938 4.035156 2.609375 4.585938 2.558594 5.3125 C 2.785156 5.035156 3.054688 4.839844 3.359375 4.714844 C 3.65625 4.585938 4.007812 4.523438 4.390625 4.523438 C 5.230469 4.523438 5.917969 4.808594 6.445312 5.375 C 6.984375 5.941406 7.246094 6.667969 7.246094 7.550781 C 7.246094 8.425781 6.984375 9.207031 6.460938 9.875 C 5.941406 10.542969 5.128906 10.878906 4.019531 10.878906 C 2.84375 10.878906 1.964844 10.386719 1.40625 9.390625 C 0.96875 8.613281 0.742188 7.617188 0.742188 6.394531 C 0.742188 5.671875 0.78125 5.097656 0.839844 4.644531 C 0.945312 3.835938 1.152344 3.175781 1.46875 2.640625 C 1.738281 2.1875 2.085938 1.828125 2.527344 1.550781 C 2.957031 1.265625 3.480469 1.132812 4.082031 1.132812 C 4.953125 1.132812 5.652344 1.355469 6.167969 1.808594 C 6.6875 2.25 6.984375 2.847656 7.050781 3.585938 Z M 2.652344 16.605469 C 2.652344 17.683594 2.742188 18.507812 2.917969 19.089844 C 3.09375 19.65625 3.460938 19.945312 4.007812 19.945312 C 4.5625 19.945312 4.914062 19.65625 5.09375 19.089844 C 5.253906 18.507812 5.34375 17.683594 5.34375 16.605469 C 5.34375 15.464844 5.253906 14.632812 5.09375 14.085938 C 4.914062 13.542969 4.5625 13.265625 4.007812 13.265625 C 3.460938 13.265625 3.09375 13.542969 2.917969 14.085938 C 2.742188 14.632812 2.652344 15.464844 2.652344 16.605469 Z M 4.007812 11.742188 C 5.210938 11.742188 6.042969 12.164062 6.527344 13.007812 C 7.007812 13.851562 7.253906 15.050781 7.253906 16.605469 C 7.253906 18.15625 7.007812 19.351562 6.527344 20.191406 C 6.042969 21.03125 5.210938 21.453125 4.007812 21.453125 C 2.8125 21.453125 1.972656 21.03125 1.488281 20.191406 C 1.003906 19.351562 0.761719 18.15625 0.761719 16.605469 C 0.761719 15.050781 1.003906 13.851562 1.488281 13.007812 C 1.972656 12.164062 2.8125 11.742188 4.007812 11.742188 Z M 4.007812 11.742188 "/>
</svg>
