<?xml version="1.0" encoding="UTF-8"?>
<svg xmlns="http://www.w3.org/2000/svg" xmlns:xlink="http://www.w3.org/1999/xlink" width="18" height="15.413925" viewBox="0 0 18 15.413925">
<path fill-rule="nonzero" fill="rgb(100%, 79.607843%, 0%)" fill-opacity="1" stroke-width="0.7" stroke-linecap="round" stroke-linejoin="round" stroke="rgb(100%, 79.607843%, 0%)" stroke-opacity="1" stroke-miterlimit="4" d="M 21.972775 0.444041 C 13.540851 0.444041 7.114436 0.414764 0.35133 0.351329 C 3.615773 6.104361 7.836615 13.150483 11.101058 18.903515 C 14.482611 13.160242 22.133801 0.444041 22.133801 0.444041 Z M 21.972775 0.444041 " transform="matrix(0.800529, 0, 0, 0.800529, 0, 0.00000065376)"/>
<path fill-rule="nonzero" fill="rgb(0%, 0%, 0%)" fill-opacity="1" d="M 11.585938 9.285156 L 6.414062 9.285156 L 6.414062 8.484375 L 8.464844 6.414062 C 8.859375 6.019531 9.191406 5.667969 9.460938 5.363281 C 9.730469 5.054688 9.933594 4.753906 10.074219 4.464844 C 10.210938 4.164062 10.28125 3.839844 10.28125 3.488281 C 10.28125 3.058594 10.152344 2.734375 9.898438 2.511719 C 9.644531 2.285156 9.308594 2.175781 8.902344 2.175781 C 8.523438 2.175781 8.1875 2.238281 7.894531 2.371094 C 7.609375 2.503906 7.316406 2.683594 7.015625 2.917969 L 6.503906 2.273438 C 6.808594 2.015625 7.160156 1.800781 7.554688 1.625 C 7.957031 1.445312 8.40625 1.351562 8.902344 1.351562 C 9.632812 1.351562 10.207031 1.539062 10.632812 1.910156 C 11.054688 2.277344 11.269531 2.785156 11.269531 3.433594 C 11.269531 3.84375 11.183594 4.226562 11.015625 4.585938 C 10.847656 4.941406 10.613281 5.296875 10.316406 5.648438 C 10.015625 5.992188 9.664062 6.359375 9.261719 6.753906 L 7.628906 8.363281 L 7.628906 8.40625 L 11.585938 8.40625 Z M 11.585938 9.285156 "/>
</svg>
