<?xml version="1.0" encoding="UTF-8"?>
<svg xmlns="http://www.w3.org/2000/svg" xmlns:xlink="http://www.w3.org/1999/xlink" width="8" height="21.60789" viewBox="0 0 8 21.60789">
<path fill-rule="nonzero" fill="rgb(100%, 100%, 100%)" fill-opacity="1" stroke-width="0.161518" stroke-linecap="butt" stroke-linejoin="miter" stroke="rgb(0%, 0%, 0%)" stroke-opacity="1" stroke-miterlimit="4" d="M 0.0810704 0.0810704 L 7.137718 0.0810704 L 7.137718 19.414592 L 0.0810704 19.414592 Z M 0.0810704 0.0810704 " transform="matrix(1.108219, 0, 0, 1.108219, 0, 0)"/>
<path fill-rule="nonzero" fill="rgb(0%, 0%, 0%)" fill-opacity="1" d="M 7.222656 8.222656 L 6.179688 8.222656 L 6.179688 10.214844 L 4.40625 10.214844 L 4.40625 8.222656 L 0.757812 8.222656 L 0.757812 6.644531 L 4.140625 1.054688 L 6.179688 1.054688 L 6.179688 6.8125 L 7.222656 6.8125 Z M 4.40625 6.8125 L 4.40625 2.832031 L 2.097656 6.8125 Z M 2.730469 15.800781 C 2.730469 16.863281 2.828125 17.671875 2.996094 18.238281 C 3.171875 18.792969 3.53125 19.082031 4.0625 19.082031 C 4.605469 19.082031 4.960938 18.792969 5.125 18.238281 C 5.292969 17.671875 5.371094 16.863281 5.371094 15.800781 C 5.371094 14.691406 5.292969 13.871094 5.125 13.335938 C 4.960938 12.804688 4.605469 12.539062 4.0625 12.539062 C 3.53125 12.539062 3.171875 12.804688 2.996094 13.335938 C 2.828125 13.871094 2.730469 14.691406 2.730469 15.800781 Z M 4.0625 11.039062 C 5.234375 11.039062 6.066406 11.453125 6.53125 12.28125 C 7.003906 13.105469 7.242188 14.28125 7.242188 15.800781 C 7.242188 17.328125 7.003906 18.496094 6.53125 19.324219 C 6.066406 20.144531 5.234375 20.554688 4.0625 20.554688 C 2.894531 20.554688 2.066406 20.144531 1.597656 19.324219 C 1.121094 18.496094 0.890625 17.328125 0.890625 15.800781 C 0.890625 14.28125 1.121094 13.105469 1.597656 12.28125 C 2.066406 11.453125 2.894531 11.039062 4.0625 11.039062 Z M 4.0625 11.039062 "/>
</svg>
