<?xml version="1.0" encoding="UTF-8"?>
<svg xmlns="http://www.w3.org/2000/svg" xmlns:xlink="http://www.w3.org/1999/xlink" width="18" height="12.050143" viewBox="0 0 18 12.050143">
<path fill-rule="nonzero" fill="rgb(100%, 100%, 100%)" fill-opacity="1" stroke-width="0.2" stroke-linecap="butt" stroke-linejoin="miter" stroke="rgb(0%, 0%, 0%)" stroke-opacity="1" stroke-miterlimit="4" d="M 0.0999583 0.0999583 L 13.857858 0.0999583 L 13.857858 9.24463 L 0.0999583 9.24463 Z M 0.0999583 0.0999583 " transform="matrix(1.2896, 0, 0, 1.2896, 0, 0)"/>
<path fill-rule="nonzero" fill="rgb(0%, 0%, 0%)" fill-opacity="1" d="M 4.464844 7.882812 C 4.53125 8.242188 4.65625 8.511719 4.839844 8.703125 C 5.019531 8.902344 5.292969 8.996094 5.640625 8.996094 C 6.046875 8.996094 6.355469 8.855469 6.566406 8.570312 C 6.777344 8.28125 6.882812 7.925781 6.882812 7.496094 C 6.882812 7.066406 6.789062 6.710938 6.585938 6.417969 C 6.390625 6.125 6.078125 5.980469 5.660156 5.980469 C 5.457031 5.980469 5.289062 6.003906 5.140625 6.054688 C 4.882812 6.144531 4.691406 6.316406 4.5625 6.5625 L 3.097656 6.492188 L 3.679688 1.898438 L 8.265625 1.898438 L 8.265625 3.289062 L 4.863281 3.289062 L 4.5625 5.109375 C 4.8125 4.941406 5.011719 4.835938 5.15625 4.78125 C 5.394531 4.695312 5.679688 4.648438 6.019531 4.648438 C 6.707031 4.648438 7.308594 4.882812 7.820312 5.34375 C 8.335938 5.804688 8.59375 6.476562 8.59375 7.359375 C 8.59375 8.128906 8.34375 8.816406 7.851562 9.421875 C 7.359375 10.023438 6.617188 10.328125 5.636719 10.328125 C 4.84375 10.328125 4.195312 10.117188 3.683594 9.691406 C 3.175781 9.265625 2.894531 8.664062 2.839844 7.882812 Z M 11.09375 6.03125 C 11.09375 6.988281 11.175781 7.71875 11.332031 8.226562 C 11.488281 8.730469 11.8125 8.988281 12.292969 8.988281 C 12.78125 8.988281 13.101562 8.730469 13.25 8.226562 C 13.402344 7.71875 13.476562 6.988281 13.476562 6.03125 C 13.476562 5.027344 13.402344 4.289062 13.25 3.804688 C 13.101562 3.324219 12.78125 3.082031 12.292969 3.082031 C 11.8125 3.082031 11.488281 3.324219 11.332031 3.804688 C 11.175781 4.289062 11.09375 5.027344 11.09375 6.03125 Z M 12.292969 1.734375 C 13.351562 1.734375 14.097656 2.105469 14.519531 2.851562 C 14.949219 3.597656 15.160156 4.660156 15.160156 6.03125 C 15.160156 7.40625 14.949219 8.464844 14.519531 9.203125 C 14.097656 9.945312 13.351562 10.316406 12.292969 10.316406 C 11.238281 10.316406 10.492188 9.945312 10.066406 9.203125 C 9.640625 8.464844 9.429688 7.40625 9.429688 6.03125 C 9.429688 4.660156 9.640625 3.597656 10.066406 2.851562 C 10.492188 2.105469 11.238281 1.734375 12.292969 1.734375 Z M 2.527344 1.0625 "/>
</svg>
