<?xml version="1.0" encoding="UTF-8"?>
<svg xmlns="http://www.w3.org/2000/svg" xmlns:xlink="http://www.w3.org/1999/xlink" width="18" height="12.050141" viewBox="0 0 18 12.050141">
<path fill-rule="nonzero" fill="rgb(100%, 100%, 100%)" fill-opacity="1" stroke-width="0.2" stroke-linecap="butt" stroke-linejoin="miter" stroke="rgb(0%, 0%, 0%)" stroke-opacity="1" stroke-miterlimit="4" d="M 0.0999583 0.0999583 L 13.857858 0.0999583 L 13.857858 9.24463 L 0.0999583 9.24463 Z M 0.0999583 0.0999583 " transform="matrix(1.2896, 0, 0, 1.2896, 0, 0)"/>
<path fill-rule="nonzero" fill="rgb(0%, 0%, 0%)" fill-opacity="1" d="M 2.007812 4.71875 L 2.007812 3.84375 C 2.414062 3.824219 2.703125 3.796875 2.863281 3.761719 C 3.125 3.703125 3.335938 3.585938 3.5 3.414062 C 3.609375 3.300781 3.695312 3.144531 3.75 2.945312 C 3.785156 2.828125 3.800781 2.742188 3.800781 2.683594 L 4.875 2.683594 L 4.875 9.25 L 3.554688 9.25 L 3.554688 4.71875 Z M 6.65625 4.71875 L 6.65625 3.84375 C 7.066406 3.824219 7.351562 3.796875 7.515625 3.761719 C 7.777344 3.703125 7.988281 3.585938 8.148438 3.414062 C 8.257812 3.300781 8.34375 3.144531 8.402344 2.945312 C 8.4375 2.828125 8.449219 2.742188 8.449219 2.683594 L 9.523438 2.683594 L 9.523438 9.25 L 8.203125 9.25 L 8.203125 4.71875 Z M 12.78125 6.03125 C 12.78125 6.785156 12.84375 7.359375 12.964844 7.761719 C 13.089844 8.160156 13.34375 8.363281 13.726562 8.363281 C 14.109375 8.363281 14.359375 8.160156 14.480469 7.761719 C 14.601562 7.359375 14.664062 6.785156 14.664062 6.03125 C 14.664062 5.238281 14.601562 4.65625 14.480469 4.273438 C 14.359375 3.894531 14.109375 3.703125 13.726562 3.703125 C 13.34375 3.703125 13.089844 3.894531 12.964844 4.273438 C 12.84375 4.65625 12.78125 5.238281 12.78125 6.03125 Z M 13.726562 2.640625 C 14.5625 2.640625 15.152344 2.933594 15.488281 3.519531 C 15.820312 4.109375 15.992188 4.945312 15.992188 6.03125 C 15.992188 7.113281 15.820312 7.949219 15.488281 8.535156 C 15.152344 9.117188 14.5625 9.410156 13.726562 9.410156 C 12.890625 9.410156 12.304688 9.117188 11.96875 8.535156 C 11.628906 7.949219 11.464844 7.113281 11.464844 6.03125 C 11.464844 4.945312 11.628906 4.109375 11.96875 3.519531 C 12.304688 2.933594 12.890625 2.640625 13.726562 2.640625 Z M 1.367188 2.109375 "/>
</svg>
