<?xml version="1.0" encoding="UTF-8"?>
<svg xmlns="http://www.w3.org/2000/svg" xmlns:xlink="http://www.w3.org/1999/xlink" width="8" height="33.283279" viewBox="0 0 8 33.283279">
<path fill-rule="nonzero" fill="rgb(100%, 100%, 100%)" fill-opacity="1" stroke-width="0.161762" stroke-linecap="butt" stroke-linejoin="miter" stroke="rgb(0%, 0%, 0%)" stroke-opacity="1" stroke-miterlimit="4" d="M 0.0814162 0.0814162 L 7.858604 0.0814162 L 7.858604 32.954187 L 0.0814162 32.954187 Z M 0.0814162 0.0814162 " transform="matrix(1.007554, 0, 0, 1.007554, 0, 0)"/>
<path fill-rule="nonzero" fill="rgb(0%, 0%, 0%)" fill-opacity="1" d="M 2.644531 27.078125 C 2.644531 28.164062 2.734375 28.996094 2.910156 29.582031 C 3.089844 30.152344 3.457031 30.445312 4.011719 30.445312 C 4.570312 30.445312 4.921875 30.152344 5.105469 29.582031 C 5.265625 28.996094 5.355469 28.164062 5.355469 27.078125 C 5.355469 25.929688 5.265625 25.089844 5.105469 24.539062 C 4.921875 23.992188 4.570312 23.714844 4.011719 23.714844 C 3.457031 23.714844 3.089844 23.992188 2.910156 24.539062 C 2.734375 25.089844 2.644531 25.929688 2.644531 27.078125 Z M 4.011719 22.179688 C 5.222656 22.179688 6.058594 22.605469 6.546875 23.453125 C 7.03125 24.304688 7.28125 25.511719 7.28125 27.078125 C 7.28125 28.640625 7.03125 29.84375 6.546875 30.691406 C 6.058594 31.539062 5.222656 31.964844 4.011719 31.964844 C 2.804688 31.964844 1.960938 31.539062 1.472656 30.691406 C 0.984375 29.84375 0.738281 28.640625 0.738281 27.078125 C 0.738281 25.511719 0.984375 24.304688 1.472656 23.453125 C 1.960938 22.605469 2.804688 22.179688 4.011719 22.179688 Z M 4.011719 22.179688 "/>
<path fill-rule="nonzero" fill="rgb(0%, 0%, 0%)" fill-opacity="1" d="M 1.957031 4.226562 L 1.957031 2.976562 C 2.535156 2.949219 2.933594 2.90625 3.175781 2.851562 C 3.542969 2.773438 3.84375 2.601562 4.085938 2.363281 C 4.238281 2.195312 4.359375 1.96875 4.441406 1.695312 C 4.484375 1.515625 4.511719 1.390625 4.511719 1.320312 L 6.042969 1.320312 L 6.042969 10.679688 L 4.15625 10.679688 L 4.15625 4.226562 Z M 1.957031 4.226562 "/>
<path fill-rule="nonzero" fill="rgb(0%, 0%, 0%)" fill-opacity="1" d="M 2.617188 18.605469 C 2.691406 19.003906 2.828125 19.300781 3.027344 19.515625 C 3.226562 19.734375 3.535156 19.839844 3.917969 19.839844 C 4.367188 19.839844 4.710938 19.683594 4.941406 19.363281 C 5.179688 19.046875 5.289062 18.648438 5.289062 18.175781 C 5.289062 17.699219 5.191406 17.304688 4.964844 16.980469 C 4.75 16.65625 4.398438 16.496094 3.9375 16.496094 C 3.714844 16.496094 3.527344 16.519531 3.363281 16.574219 C 3.078125 16.675781 2.867188 16.867188 2.722656 17.136719 L 1.097656 17.0625 L 1.742188 11.972656 L 6.828125 11.972656 L 6.828125 13.511719 L 3.058594 13.511719 L 2.722656 15.527344 C 3.003906 15.339844 3.222656 15.230469 3.382812 15.167969 C 3.644531 15.074219 3.964844 15.019531 4.335938 15.019531 C 5.097656 15.019531 5.769531 15.28125 6.335938 15.789062 C 6.910156 16.300781 7.1875 17.042969 7.1875 18.023438 C 7.1875 18.878906 6.914062 19.640625 6.367188 20.304688 C 5.824219 20.976562 4.996094 21.3125 3.914062 21.3125 C 3.035156 21.3125 2.316406 21.082031 1.746094 20.605469 C 1.1875 20.136719 0.875 19.472656 0.8125 18.605469 Z M 2.617188 18.605469 "/>
</svg>
