<?xml version="1.0" encoding="UTF-8"?>
<svg xmlns="http://www.w3.org/2000/svg" xmlns:xlink="http://www.w3.org/1999/xlink" width="18" height="12.050141" viewBox="0 0 18 12.050141">
<path fill-rule="nonzero" fill="rgb(100%, 100%, 100%)" fill-opacity="1" stroke-width="0.2" stroke-linecap="butt" stroke-linejoin="miter" stroke="rgb(0%, 0%, 0%)" stroke-opacity="1" stroke-miterlimit="4" d="M 0.0999583 0.0999583 L 13.857858 0.0999583 L 13.857858 9.24463 L 0.0999583 9.24463 Z M 0.0999583 0.0999583 " transform="matrix(1.2896, 0, 0, 1.2896, 0, 0)"/>
<path fill-rule="nonzero" fill="rgb(0%, 0%, 0%)" fill-opacity="1" d="M 1.757812 4.71875 L 1.757812 3.84375 C 2.164062 3.824219 2.445312 3.796875 2.613281 3.761719 C 2.871094 3.703125 3.082031 3.585938 3.246094 3.414062 C 3.359375 3.300781 3.445312 3.144531 3.5 2.945312 C 3.527344 2.828125 3.550781 2.742188 3.550781 2.683594 L 4.621094 2.683594 L 4.621094 9.25 L 3.296875 9.25 L 3.296875 4.71875 Z M 6.5625 9.25 C 6.570312 8.78125 6.671875 8.347656 6.863281 7.960938 C 7.046875 7.519531 7.484375 7.058594 8.167969 6.570312 C 8.761719 6.140625 9.144531 5.839844 9.324219 5.652344 C 9.589844 5.363281 9.726562 5.054688 9.726562 4.710938 C 9.726562 4.433594 9.648438 4.203125 9.492188 4.019531 C 9.335938 3.832031 9.121094 3.742188 8.832031 3.742188 C 8.441406 3.742188 8.175781 3.890625 8.03125 4.179688 C 7.945312 4.351562 7.902344 4.621094 7.886719 4.988281 L 6.632812 4.988281 C 6.652344 4.429688 6.753906 3.980469 6.933594 3.632812 C 7.277344 2.976562 7.890625 2.648438 8.769531 2.648438 C 9.464844 2.648438 10.015625 2.847656 10.425781 3.230469 C 10.839844 3.613281 11.039062 4.125 11.039062 4.753906 C 11.039062 5.246094 10.898438 5.675781 10.605469 6.050781 C 10.414062 6.300781 10.101562 6.585938 9.671875 6.890625 L 9.15625 7.257812 C 8.828125 7.484375 8.613281 7.652344 8.492188 7.753906 C 8.371094 7.859375 8.269531 7.972656 8.1875 8.109375 L 11.054688 8.109375 L 11.054688 9.25 Z M 13.035156 6.03125 C 13.035156 6.785156 13.09375 7.359375 13.222656 7.761719 C 13.34375 8.160156 13.597656 8.363281 13.980469 8.363281 C 14.363281 8.363281 14.617188 8.160156 14.734375 7.761719 C 14.855469 7.359375 14.914062 6.785156 14.914062 6.03125 C 14.914062 5.238281 14.855469 4.65625 14.734375 4.273438 C 14.617188 3.894531 14.363281 3.703125 13.980469 3.703125 C 13.597656 3.703125 13.34375 3.894531 13.222656 4.273438 C 13.09375 4.65625 13.035156 5.238281 13.035156 6.03125 Z M 13.980469 2.640625 C 14.816406 2.640625 15.402344 2.933594 15.738281 3.519531 C 16.078125 4.109375 16.242188 4.945312 16.242188 6.03125 C 16.242188 7.113281 16.078125 7.949219 15.738281 8.535156 C 15.402344 9.117188 14.816406 9.410156 13.980469 9.410156 C 13.144531 9.410156 12.554688 9.117188 12.222656 8.535156 C 11.886719 7.949219 11.714844 7.113281 11.714844 6.03125 C 11.714844 4.945312 11.886719 4.109375 12.222656 3.519531 C 12.554688 2.933594 13.144531 2.640625 13.980469 2.640625 Z M 1.109375 2.109375 "/>
</svg>
