<?xml version="1.0" encoding="UTF-8"?>
<svg xmlns="http://www.w3.org/2000/svg" xmlns:xlink="http://www.w3.org/1999/xlink" width="18" height="12.050141" viewBox="0 0 18 12.050141">
<path fill-rule="nonzero" fill="rgb(100%, 100%, 100%)" fill-opacity="1" stroke-width="0.2" stroke-linecap="butt" stroke-linejoin="miter" stroke="rgb(0%, 0%, 0%)" stroke-opacity="1" stroke-miterlimit="4" d="M 0.0999583 0.0999583 L 13.857858 0.0999583 L 13.857858 9.24463 L 0.0999583 9.24463 Z M 0.0999583 0.0999583 " transform="matrix(1.2896, 0, 0, 1.2896, 0, 0)"/>
<path fill-rule="nonzero" fill="rgb(0%, 0%, 0%)" fill-opacity="1" d="M 2.078125 4.679688 L 2.078125 3.804688 C 2.488281 3.785156 2.769531 3.757812 2.933594 3.722656 C 3.191406 3.664062 3.402344 3.546875 3.570312 3.375 C 3.679688 3.257812 3.765625 3.101562 3.820312 2.90625 C 3.851562 2.785156 3.871094 2.699219 3.871094 2.644531 L 4.945312 2.644531 L 4.945312 9.207031 L 3.621094 9.207031 L 3.621094 4.679688 Z M 8.101562 7.195312 C 8.101562 7.457031 8.148438 7.671875 8.230469 7.847656 C 8.386719 8.160156 8.671875 8.320312 9.085938 8.320312 C 9.34375 8.320312 9.558594 8.238281 9.75 8.058594 C 9.9375 7.890625 10.03125 7.636719 10.03125 7.308594 C 10.03125 6.882812 9.855469 6.59375 9.507812 6.449219 C 9.308594 6.367188 8.996094 6.320312 8.566406 6.320312 L 8.566406 5.398438 C 8.984375 5.394531 9.277344 5.355469 9.441406 5.28125 C 9.730469 5.152344 9.875 4.898438 9.875 4.507812 C 9.875 4.257812 9.800781 4.054688 9.65625 3.898438 C 9.507812 3.742188 9.300781 3.664062 9.035156 3.664062 C 8.734375 3.664062 8.507812 3.757812 8.367188 3.953125 C 8.21875 4.144531 8.152344 4.402344 8.160156 4.726562 L 6.953125 4.726562 C 6.964844 4.398438 7.019531 4.089844 7.121094 3.796875 C 7.226562 3.542969 7.394531 3.304688 7.621094 3.089844 C 7.789062 2.933594 7.988281 2.816406 8.222656 2.734375 C 8.457031 2.65625 8.738281 2.609375 9.074219 2.609375 C 9.707031 2.609375 10.214844 2.777344 10.597656 3.097656 C 10.980469 3.421875 11.175781 3.859375 11.175781 4.402344 C 11.175781 4.789062 11.058594 5.117188 10.828125 5.378906 C 10.6875 5.546875 10.535156 5.664062 10.375 5.722656 C 10.496094 5.722656 10.664062 5.824219 10.882812 6.023438 C 11.210938 6.332031 11.378906 6.746094 11.378906 7.273438 C 11.378906 7.828125 11.1875 8.316406 10.796875 8.738281 C 10.414062 9.164062 9.847656 9.371094 9.089844 9.371094 C 8.164062 9.371094 7.515625 9.066406 7.152344 8.464844 C 6.964844 8.140625 6.859375 7.71875 6.832031 7.195312 Z M 13.359375 5.988281 C 13.359375 6.746094 13.417969 7.320312 13.542969 7.722656 C 13.664062 8.121094 13.921875 8.320312 14.304688 8.320312 C 14.6875 8.320312 14.9375 8.121094 15.054688 7.722656 C 15.175781 7.320312 15.238281 6.746094 15.238281 5.988281 C 15.238281 5.199219 15.175781 4.613281 15.054688 4.230469 C 14.9375 3.855469 14.6875 3.664062 14.304688 3.664062 C 13.921875 3.664062 13.664062 3.855469 13.542969 4.230469 C 13.417969 4.613281 13.359375 5.199219 13.359375 5.988281 Z M 14.304688 2.597656 C 15.140625 2.597656 15.726562 2.890625 16.0625 3.480469 C 16.398438 4.070312 16.566406 4.90625 16.566406 5.988281 C 16.566406 7.074219 16.398438 7.910156 16.0625 8.492188 C 15.726562 9.078125 15.140625 9.371094 14.304688 9.371094 C 13.46875 9.371094 12.878906 9.078125 12.546875 8.492188 C 12.207031 7.910156 12.039062 7.074219 12.039062 5.988281 C 12.039062 4.90625 12.207031 4.070312 12.546875 3.480469 C 12.878906 2.890625 13.46875 2.597656 14.304688 2.597656 Z M 1.433594 2.070312 "/>
</svg>
