<?xml version="1.0" encoding="UTF-8"?>
<svg xmlns="http://www.w3.org/2000/svg" xmlns:xlink="http://www.w3.org/1999/xlink" width="18" height="15.413925" viewBox="0 0 18 15.413925">
<path fill-rule="nonzero" fill="rgb(100%, 79.607843%, 0%)" fill-opacity="1" stroke-width="0.7" stroke-linecap="round" stroke-linejoin="round" stroke="rgb(100%, 79.607843%, 0%)" stroke-opacity="1" stroke-miterlimit="4" d="M 21.972775 0.444041 C 13.540851 0.444041 7.114436 0.414764 0.35133 0.351329 C 3.615773 6.104361 7.836615 13.150483 11.101058 18.903515 C 14.482611 13.160242 22.133801 0.444041 22.133801 0.444041 Z M 21.972775 0.444041 " transform="matrix(0.800529, 0, 0, 0.800529, 0, 0.00000065376)"/>
<path fill-rule="nonzero" fill="rgb(0%, 0%, 0%)" fill-opacity="1" d="M 6.988281 7.621094 L 6.257812 7.621094 L 6.257812 3.386719 C 6.257812 3.144531 6.261719 2.949219 6.265625 2.800781 C 6.273438 2.65625 6.28125 2.5 6.292969 2.34375 C 6.203125 2.433594 6.121094 2.511719 6.046875 2.574219 C 5.972656 2.632812 5.878906 2.714844 5.765625 2.808594 L 5.121094 3.335938 L 4.730469 2.835938 L 6.367188 1.5625 L 6.988281 1.5625 Z M 6.988281 7.621094 "/>
<path fill-rule="nonzero" fill="rgb(0%, 0%, 0%)" fill-opacity="1" d="M 13.269531 4.582031 C 13.269531 5.234375 13.199219 5.792969 13.066406 6.265625 C 12.929688 6.726562 12.714844 7.085938 12.421875 7.332031 C 12.125 7.582031 11.734375 7.707031 11.25 7.707031 C 10.5625 7.707031 10.058594 7.433594 9.730469 6.882812 C 9.40625 6.328125 9.246094 5.5625 9.246094 4.582031 C 9.246094 3.925781 9.3125 3.367188 9.441406 2.902344 C 9.578125 2.441406 9.792969 2.085938 10.085938 1.84375 C 10.378906 1.59375 10.769531 1.46875 11.25 1.46875 C 11.929688 1.46875 12.433594 1.742188 12.769531 2.292969 C 13.101562 2.835938 13.269531 3.597656 13.269531 4.582031 Z M 9.992188 4.582031 C 9.992188 5.414062 10.085938 6.039062 10.273438 6.449219 C 10.464844 6.863281 10.789062 7.070312 11.25 7.070312 C 11.703125 7.070312 12.023438 6.867188 12.214844 6.460938 C 12.414062 6.046875 12.511719 5.421875 12.511719 4.582031 C 12.511719 3.757812 12.414062 3.136719 12.214844 2.726562 C 12.023438 2.3125 11.703125 2.105469 11.25 2.105469 C 10.789062 2.105469 10.464844 2.3125 10.273438 2.726562 C 10.085938 3.136719 9.992188 3.757812 9.992188 4.582031 Z M 9.992188 4.582031 "/>
</svg>
