<?xml version="1.0" encoding="UTF-8"?>
<svg xmlns="http://www.w3.org/2000/svg" xmlns:xlink="http://www.w3.org/1999/xlink" width="8" height="23.014368" viewBox="0 0 8 23.014368">
<path fill-rule="nonzero" fill="rgb(100%, 79.607843%, 0%)" fill-opacity="1" stroke-width="0.157092" stroke-linecap="butt" stroke-linejoin="miter" stroke="rgb(0%, 0%, 0%)" stroke-opacity="1" stroke-miterlimit="4" d="M 0.0764193 0.0764193 L 6.724902 0.0764193 L 6.724902 19.500224 L 0.0764193 19.500224 Z M 0.0764193 0.0764193 " transform="matrix(1.175668, 0, 0, 1.175668, 0, 0)"/>
<path fill-rule="nonzero" fill="rgb(0%, 0%, 0%)" fill-opacity="1" d="M 2.613281 7.941406 C 2.613281 8.429688 2.734375 8.804688 2.984375 9.0625 C 3.238281 9.332031 3.582031 9.464844 4.019531 9.464844 C 4.460938 9.464844 4.808594 9.332031 5.054688 9.0625 C 5.304688 8.804688 5.433594 8.429688 5.433594 7.941406 C 5.433594 7.449219 5.304688 7.0625 5.046875 6.8125 C 4.789062 6.550781 4.449219 6.421875 4.019531 6.421875 C 3.589844 6.421875 3.242188 6.550781 2.992188 6.8125 C 2.734375 7.0625 2.613281 7.449219 2.613281 7.941406 Z M 0.617188 8.078125 C 0.617188 7.527344 0.746094 7.03125 0.988281 6.582031 C 1.238281 6.140625 1.605469 5.804688 2.085938 5.582031 C 1.613281 5.265625 1.304688 4.925781 1.164062 4.558594 C 1.019531 4.191406 0.957031 3.851562 0.957031 3.53125 C 0.957031 2.824219 1.21875 2.207031 1.753906 1.714844 C 2.285156 1.214844 3.050781 0.964844 4.019531 0.964844 C 4.996094 0.964844 5.753906 1.214844 6.285156 1.714844 C 6.820312 2.207031 7.089844 2.824219 7.089844 3.53125 C 7.089844 3.851562 7.019531 4.191406 6.878906 4.558594 C 6.734375 4.925781 6.429688 5.238281 5.953125 5.507812 C 6.441406 5.785156 6.800781 6.140625 7.042969 6.582031 C 7.289062 7.03125 7.402344 7.527344 7.402344 8.078125 C 7.402344 8.898438 7.101562 9.59375 6.492188 10.179688 C 5.882812 10.757812 5.035156 11.042969 3.9375 11.042969 C 2.84375 11.042969 2.023438 10.757812 1.457031 10.179688 C 0.890625 9.59375 0.617188 8.898438 0.617188 8.078125 Z M 2.785156 3.742188 C 2.785156 4.097656 2.894531 4.390625 3.113281 4.617188 C 3.328125 4.839844 3.632812 4.949219 4.019531 4.949219 C 4.410156 4.949219 4.714844 4.839844 4.933594 4.617188 C 5.144531 4.390625 5.246094 4.097656 5.246094 3.742188 C 5.246094 3.359375 5.144531 3.054688 4.933594 2.839844 C 4.714844 2.621094 4.410156 2.515625 4.019531 2.515625 C 3.632812 2.515625 3.328125 2.621094 3.113281 2.839844 C 2.894531 3.054688 2.785156 3.359375 2.785156 3.742188 Z M 2.550781 17.015625 C 2.550781 18.140625 2.644531 19 2.832031 19.589844 C 3.011719 20.1875 3.398438 20.492188 3.960938 20.492188 C 4.535156 20.492188 4.914062 20.1875 5.085938 19.589844 C 5.265625 19 5.347656 18.140625 5.347656 17.015625 C 5.347656 15.835938 5.265625 14.96875 5.085938 14.398438 C 4.914062 13.832031 4.535156 13.550781 3.960938 13.550781 C 3.398438 13.550781 3.011719 13.832031 2.832031 14.398438 C 2.644531 14.96875 2.550781 15.835938 2.550781 17.015625 Z M 3.960938 11.964844 C 5.203125 11.964844 6.082031 12.398438 6.574219 13.273438 C 7.082031 14.152344 7.332031 15.40625 7.332031 17.015625 C 7.332031 18.628906 7.082031 19.875 6.574219 20.742188 C 6.082031 21.613281 5.203125 22.050781 3.960938 22.050781 C 2.722656 22.050781 1.84375 21.613281 1.34375 20.742188 C 0.839844 19.875 0.589844 18.628906 0.589844 17.015625 C 0.589844 15.40625 0.839844 14.152344 1.34375 13.273438 C 1.84375 12.398438 2.722656 11.964844 3.960938 11.964844 Z M 3.960938 11.964844 "/>
</svg>
