<?xml version="1.0" encoding="UTF-8"?>
<svg xmlns="http://www.w3.org/2000/svg" xmlns:xlink="http://www.w3.org/1999/xlink" width="8" height="21.056292" viewBox="0 0 8 21.056292">
<path fill-rule="nonzero" fill="rgb(100%, 100%, 100%)" fill-opacity="1" stroke-width="0.165541" stroke-linecap="butt" stroke-linejoin="miter" stroke="rgb(0%, 0%, 0%)" stroke-opacity="1" stroke-miterlimit="4" d="M 0.0841632 0.0841632 L 7.413684 0.0841632 L 7.413684 19.64297 L 0.0841632 19.64297 Z M 0.0841632 0.0841632 " transform="matrix(1.067494, 0, 0, 1.067494, 0, 0)"/>
<path fill-rule="nonzero" fill="rgb(0%, 0%, 0%)" fill-opacity="1" d="M 7.171875 2.566406 C 6.910156 2.824219 6.550781 3.277344 6.082031 3.941406 C 5.621094 4.605469 5.230469 5.28125 4.917969 5.988281 C 4.660156 6.539062 4.441406 7.207031 4.242188 8.007812 C 4.042969 8.800781 3.941406 9.457031 3.941406 9.964844 L 2.132812 9.964844 C 2.183594 8.378906 2.703125 6.714844 3.695312 5 C 4.328125 3.929688 4.871094 3.191406 5.304688 2.773438 L 0.875 2.773438 L 0.90625 1.199219 L 7.171875 1.199219 Z M 2.609375 15.28125 C 2.609375 16.304688 2.691406 17.085938 2.859375 17.625 C 3.027344 18.164062 3.371094 18.4375 3.890625 18.4375 C 4.414062 18.4375 4.746094 18.164062 4.910156 17.625 C 5.070312 17.085938 5.152344 16.304688 5.152344 15.28125 C 5.152344 14.210938 5.070312 13.425781 4.910156 12.90625 C 4.746094 12.390625 4.414062 12.132812 3.890625 12.132812 C 3.371094 12.132812 3.027344 12.390625 2.859375 12.90625 C 2.691406 13.425781 2.609375 14.210938 2.609375 15.28125 Z M 3.890625 10.691406 C 5.023438 10.691406 5.808594 11.09375 6.269531 11.886719 C 6.722656 12.683594 6.957031 13.816406 6.957031 15.28125 C 6.957031 16.75 6.722656 17.878906 6.269531 18.664062 C 5.808594 19.457031 5.023438 19.859375 3.890625 19.859375 C 2.761719 19.859375 1.96875 19.457031 1.511719 18.664062 C 1.050781 17.878906 0.828125 16.75 0.828125 15.28125 C 0.828125 13.816406 1.050781 12.683594 1.511719 11.886719 C 1.96875 11.09375 2.761719 10.691406 3.890625 10.691406 Z M 3.890625 10.691406 "/>
</svg>
