<?xml version="1.0" encoding="UTF-8"?>
<svg xmlns="http://www.w3.org/2000/svg" xmlns:xlink="http://www.w3.org/1999/xlink" width="8" height="31.684029" viewBox="0 0 8 31.684029">
<path fill-rule="nonzero" fill="rgb(100%, 79.607843%, 0%)" fill-opacity="1" stroke-width="0.15274" stroke-linecap="butt" stroke-linejoin="miter" stroke="rgb(0%, 0%, 0%)" stroke-opacity="1" stroke-miterlimit="4" d="M 0.0744454 0.0744454 L 5.572375 0.0744454 L 5.572375 22.289501 L 0.0744454 22.289501 Z M 0.0744454 0.0744454 " transform="matrix(1.416726, 0, 0, 1.416726, 0, 0)"/>
<path fill-rule="nonzero" fill="rgb(0%, 0%, 0%)" fill-opacity="1" d="M 1.484375 3.785156 L 1.484375 2.546875 C 2.058594 2.519531 2.457031 2.476562 2.695312 2.421875 C 3.058594 2.34375 3.359375 2.175781 3.597656 1.9375 C 3.75 1.769531 3.871094 1.546875 3.953125 1.273438 C 3.996094 1.097656 4.023438 0.972656 4.023438 0.902344 L 5.542969 0.902344 L 5.542969 10.191406 L 3.667969 10.191406 L 3.667969 3.785156 Z M 2.582031 17.363281 C 2.582031 17.734375 2.652344 18.035156 2.765625 18.289062 C 2.988281 18.734375 3.386719 18.953125 3.976562 18.953125 C 4.339844 18.953125 4.648438 18.839844 4.914062 18.582031 C 5.179688 18.34375 5.3125 17.992188 5.3125 17.523438 C 5.3125 16.921875 5.066406 16.515625 4.570312 16.300781 C 4.289062 16.1875 3.84375 16.125 3.246094 16.125 L 3.246094 14.816406 C 3.835938 14.808594 4.242188 14.753906 4.480469 14.648438 C 4.890625 14.472656 5.09375 14.109375 5.09375 13.550781 C 5.09375 13.199219 4.984375 12.914062 4.78125 12.695312 C 4.570312 12.472656 4.277344 12.359375 3.90625 12.359375 C 3.472656 12.359375 3.15625 12.492188 2.960938 12.765625 C 2.75 13.039062 2.652344 13.402344 2.660156 13.863281 L 0.953125 13.863281 C 0.972656 13.402344 1.050781 12.960938 1.195312 12.542969 C 1.34375 12.191406 1.582031 11.855469 1.902344 11.546875 C 2.140625 11.324219 2.421875 11.15625 2.75 11.042969 C 3.085938 10.9375 3.484375 10.863281 3.960938 10.863281 C 4.851562 10.863281 5.578125 11.105469 6.117188 11.554688 C 6.65625 12.015625 6.941406 12.632812 6.941406 13.402344 C 6.941406 13.949219 6.773438 14.417969 6.445312 14.789062 C 6.242188 15.027344 6.027344 15.195312 5.800781 15.277344 C 5.976562 15.277344 6.214844 15.417969 6.523438 15.699219 C 6.984375 16.144531 7.222656 16.726562 7.222656 17.476562 C 7.222656 18.253906 6.957031 18.953125 6.402344 19.546875 C 5.859375 20.15625 5.058594 20.449219 3.976562 20.449219 C 2.667969 20.449219 1.75 20.015625 1.238281 19.15625 C 0.972656 18.707031 0.820312 18.105469 0.785156 17.363281 Z M 2.644531 25.992188 C 2.644531 27.070312 2.730469 27.882812 2.910156 28.449219 C 3.078125 29.015625 3.4375 29.296875 3.988281 29.296875 C 4.527344 29.296875 4.878906 29.015625 5.046875 28.449219 C 5.214844 27.882812 5.304688 27.070312 5.304688 25.992188 C 5.304688 24.875 5.214844 24.046875 5.046875 23.496094 C 4.878906 22.96875 4.527344 22.703125 3.988281 22.703125 C 3.4375 22.703125 3.078125 22.96875 2.910156 23.496094 C 2.730469 24.046875 2.644531 24.875 2.644531 25.992188 Z M 3.988281 21.191406 C 5.171875 21.191406 6.003906 21.605469 6.472656 22.4375 C 6.949219 23.277344 7.1875 24.460938 7.1875 25.992188 C 7.1875 27.527344 6.949219 28.714844 6.472656 29.535156 C 6.003906 30.367188 5.171875 30.78125 3.988281 30.78125 C 2.800781 30.78125 1.960938 30.367188 1.492188 29.535156 C 1.015625 28.714844 0.777344 27.527344 0.777344 25.992188 C 0.777344 24.460938 1.015625 23.277344 1.492188 22.4375 C 1.960938 21.605469 2.800781 21.191406 3.988281 21.191406 Z M 3.988281 21.191406 "/>
</svg>
