<?xml version="1.0" encoding="UTF-8"?>
<svg xmlns="http://www.w3.org/2000/svg" xmlns:xlink="http://www.w3.org/1999/xlink" width="8" height="21.030375" viewBox="0 0 8 21.030375">
<path fill-rule="nonzero" fill="rgb(100%, 100%, 100%)" fill-opacity="1" stroke-width="0.162275" stroke-linecap="butt" stroke-linejoin="miter" stroke="rgb(0%, 0%, 0%)" stroke-opacity="1" stroke-miterlimit="4" d="M 0.0825535 0.0825535 L 7.268293 0.0825535 L 7.268293 19.242133 L 0.0825535 19.242133 Z M 0.0825535 0.0825535 " transform="matrix(1.08831, 0, 0, 1.08831, 0, 0)"/>
<path fill-rule="nonzero" fill="rgb(0%, 0%, 0%)" fill-opacity="1" d="M 0.839844 3.976562 C 0.839844 3.015625 1.121094 2.222656 1.679688 1.625 C 2.234375 1.027344 2.957031 0.722656 3.859375 0.722656 C 5.234375 0.722656 6.179688 1.332031 6.6875 2.550781 C 6.984375 3.246094 7.125 4.15625 7.125 5.28125 C 7.125 6.378906 6.988281 7.289062 6.707031 8.019531 C 6.179688 9.410156 5.191406 10.109375 3.773438 10.109375 C 3.097656 10.109375 2.488281 9.910156 1.941406 9.511719 C 1.410156 9.105469 1.097656 8.527344 1.019531 7.75 L 2.789062 7.75 C 2.835938 8.019531 2.941406 8.234375 3.128906 8.402344 C 3.316406 8.574219 3.550781 8.648438 3.859375 8.648438 C 4.449219 8.648438 4.859375 8.328125 5.09375 7.679688 C 5.226562 7.316406 5.304688 6.796875 5.332031 6.113281 C 5.175781 6.3125 5 6.472656 4.816406 6.578125 C 4.484375 6.777344 4.074219 6.878906 3.589844 6.878906 C 2.863281 6.878906 2.234375 6.625 1.671875 6.132812 C 1.109375 5.640625 0.839844 4.917969 0.839844 3.976562 Z M 3.976562 5.433594 C 4.226562 5.433594 4.453125 5.363281 4.671875 5.222656 C 5.070312 4.957031 5.273438 4.511719 5.273438 3.878906 C 5.273438 3.367188 5.152344 2.957031 4.917969 2.65625 C 4.675781 2.351562 4.347656 2.210938 3.929688 2.210938 C 3.625 2.210938 3.363281 2.292969 3.152344 2.464844 C 2.8125 2.730469 2.640625 3.1875 2.640625 3.820312 C 2.640625 4.359375 2.753906 4.757812 2.964844 5.023438 C 3.1875 5.296875 3.527344 5.433594 3.976562 5.433594 Z M 2.613281 17.554688 C 2.6875 17.953125 2.824219 18.25 3.023438 18.464844 C 3.222656 18.683594 3.53125 18.789062 3.914062 18.789062 C 4.363281 18.789062 4.707031 18.632812 4.9375 18.3125 C 5.175781 17.996094 5.285156 17.597656 5.285156 17.125 C 5.285156 16.648438 5.1875 16.257812 4.960938 15.933594 C 4.746094 15.609375 4.394531 15.449219 3.933594 15.449219 C 3.710938 15.449219 3.523438 15.472656 3.359375 15.527344 C 3.074219 15.628906 2.863281 15.820312 2.71875 16.089844 L 1.097656 16.015625 L 1.742188 10.929688 L 6.820312 10.929688 L 6.820312 12.46875 L 3.054688 12.46875 L 2.71875 14.480469 C 3 14.292969 3.21875 14.183594 3.378906 14.121094 C 3.640625 14.027344 3.960938 13.972656 4.332031 13.972656 C 5.09375 13.972656 5.761719 14.234375 6.328125 14.742188 C 6.902344 15.253906 7.179688 15.996094 7.179688 16.972656 C 7.179688 17.828125 6.90625 18.589844 6.359375 19.253906 C 5.816406 19.921875 4.992188 20.257812 3.910156 20.257812 C 3.03125 20.257812 2.3125 20.027344 1.746094 19.554688 C 1.1875 19.085938 0.875 18.421875 0.8125 17.554688 Z M 2.613281 17.554688 "/>
</svg>
