<?xml version="1.0" encoding="UTF-8"?>
<svg xmlns="http://www.w3.org/2000/svg" xmlns:xlink="http://www.w3.org/1999/xlink" width="8" height="31.684029" viewBox="0 0 8 31.684029">
<path fill-rule="nonzero" fill="rgb(100%, 100%, 100%)" fill-opacity="1" stroke-width="0.15274" stroke-linecap="butt" stroke-linejoin="miter" stroke="rgb(0%, 0%, 0%)" stroke-opacity="1" stroke-miterlimit="4" d="M 0.0744454 0.0744454 L 5.572377 0.0744454 L 5.572377 22.289508 L 0.0744454 22.289508 Z M 0.0744454 0.0744454 " transform="matrix(1.416726, 0, 0, 1.416726, 0, 0)"/>
<path fill-rule="nonzero" fill="rgb(0%, 0%, 0%)" fill-opacity="1" d="M 1.484375 3.785156 L 1.484375 2.546875 C 2.058594 2.519531 2.457031 2.476562 2.695312 2.421875 C 3.058594 2.34375 3.359375 2.175781 3.597656 1.9375 C 3.75 1.769531 3.871094 1.546875 3.953125 1.273438 C 3.996094 1.097656 4.023438 0.972656 4.023438 0.902344 L 5.542969 0.902344 L 5.542969 10.191406 L 3.667969 10.191406 L 3.667969 3.785156 Z M 2.582031 17.363281 C 2.582031 17.734375 2.652344 18.035156 2.765625 18.289062 C 2.988281 18.734375 3.386719 18.953125 3.976562 18.953125 C 4.339844 18.953125 4.648438 18.839844 4.914062 18.582031 C 5.179688 18.34375 5.3125 17.992188 5.3125 17.523438 C 5.3125 16.921875 5.066406 16.515625 4.570312 16.300781 C 4.289062 16.1875 3.84375 16.125 3.246094 16.125 L 3.246094 14.816406 C 3.835938 14.808594 4.242188 14.753906 4.480469 14.648438 C 4.890625 14.472656 5.09375 14.109375 5.09375 13.550781 C 5.09375 13.199219 4.984375 12.914062 4.78125 12.695312 C 4.570312 12.472656 4.277344 12.359375 3.90625 12.359375 C 3.472656 12.359375 3.15625 12.492188 2.960938 12.765625 C 2.75 13.039062 2.652344 13.402344 2.660156 13.863281 L 0.953125 13.863281 C 0.972656 13.402344 1.050781 12.960938 1.195312 12.542969 C 1.34375 12.191406 1.582031 11.855469 1.902344 11.546875 C 2.140625 11.324219 2.421875 11.15625 2.75 11.042969 C 3.085938 10.9375 3.484375 10.863281 3.960938 10.863281 C 4.851562 10.863281 5.578125 11.105469 6.117188 11.554688 C 6.65625 12.015625 6.941406 12.632812 6.941406 13.402344 C 6.941406 13.949219 6.773438 14.417969 6.445312 14.789062 C 6.242188 15.027344 6.027344 15.195312 5.800781 15.277344 C 5.976562 15.277344 6.214844 15.417969 6.523438 15.699219 C 6.984375 16.144531 7.222656 16.726562 7.222656 17.476562 C 7.222656 18.253906 6.957031 18.953125 6.402344 19.546875 C 5.859375 20.15625 5.058594 20.449219 3.976562 20.449219 C 2.667969 20.449219 1.75 20.015625 1.238281 19.15625 C 0.972656 18.707031 0.820312 18.105469 0.785156 17.363281 Z M 2.53125 27.851562 C 2.605469 28.25 2.742188 28.546875 2.941406 28.761719 C 3.140625 28.980469 3.449219 29.085938 3.832031 29.085938 C 4.28125 29.085938 4.625 28.929688 4.855469 28.609375 C 5.09375 28.292969 5.203125 27.894531 5.203125 27.421875 C 5.203125 26.945312 5.105469 26.554688 4.878906 26.230469 C 4.664062 25.90625 4.3125 25.746094 3.851562 25.746094 C 3.628906 25.746094 3.441406 25.769531 3.277344 25.824219 C 2.992188 25.925781 2.78125 26.117188 2.636719 26.386719 L 1.015625 26.3125 L 1.660156 21.226562 L 6.738281 21.226562 L 6.738281 22.765625 L 2.972656 22.765625 L 2.636719 24.777344 C 2.917969 24.589844 3.136719 24.480469 3.296875 24.417969 C 3.558594 24.324219 3.878906 24.269531 4.25 24.269531 C 5.011719 24.269531 5.679688 24.53125 6.246094 25.039062 C 6.820312 25.550781 7.097656 26.292969 7.097656 27.269531 C 7.097656 28.125 6.824219 28.886719 6.277344 29.550781 C 5.734375 30.21875 4.910156 30.554688 3.828125 30.554688 C 2.949219 30.554688 2.230469 30.324219 1.664062 29.851562 C 1.105469 29.382812 0.792969 28.71875 0.730469 27.851562 Z M 2.53125 27.851562 "/>
</svg>
