<?xml version="1.0" encoding="UTF-8"?>
<svg xmlns="http://www.w3.org/2000/svg" xmlns:xlink="http://www.w3.org/1999/xlink" width="18" height="12.050141" viewBox="0 0 18 12.050141">
<path fill-rule="nonzero" fill="rgb(100%, 100%, 100%)" fill-opacity="1" stroke-width="0.2" stroke-linecap="butt" stroke-linejoin="miter" stroke="rgb(0%, 0%, 0%)" stroke-opacity="1" stroke-miterlimit="4" d="M 0.0999583 0.0999583 L 13.857858 0.0999583 L 13.857858 9.24463 L 0.0999583 9.24463 Z M 0.0999583 0.0999583 " transform="matrix(1.2896, 0, 0, 1.2896, 0, 0)"/>
<path fill-rule="nonzero" fill="rgb(0%, 0%, 0%)" fill-opacity="1" d="M 1.757812 4.71875 L 1.757812 3.84375 C 2.164062 3.824219 2.445312 3.796875 2.613281 3.761719 C 2.871094 3.703125 3.082031 3.585938 3.246094 3.414062 C 3.359375 3.300781 3.445312 3.144531 3.5 2.945312 C 3.527344 2.828125 3.550781 2.742188 3.550781 2.683594 L 4.621094 2.683594 L 4.621094 9.25 L 3.296875 9.25 L 3.296875 4.71875 Z M 13.035156 6.03125 C 13.035156 6.785156 13.09375 7.359375 13.222656 7.761719 C 13.34375 8.160156 13.597656 8.363281 13.980469 8.363281 C 14.363281 8.363281 14.617188 8.160156 14.734375 7.761719 C 14.855469 7.359375 14.914062 6.785156 14.914062 6.03125 C 14.914062 5.238281 14.855469 4.65625 14.734375 4.273438 C 14.617188 3.894531 14.363281 3.703125 13.980469 3.703125 C 13.597656 3.703125 13.34375 3.894531 13.222656 4.273438 C 13.09375 4.65625 13.035156 5.238281 13.035156 6.03125 Z M 13.980469 2.640625 C 14.816406 2.640625 15.402344 2.933594 15.738281 3.519531 C 16.078125 4.109375 16.242188 4.945312 16.242188 6.03125 C 16.242188 7.113281 16.078125 7.949219 15.738281 8.535156 C 15.402344 9.117188 14.816406 9.410156 13.980469 9.410156 C 13.144531 9.410156 12.554688 9.117188 12.222656 8.535156 C 11.886719 7.949219 11.714844 7.113281 11.714844 6.03125 C 11.714844 4.945312 11.886719 4.109375 12.222656 3.519531 C 12.554688 2.933594 13.144531 2.640625 13.980469 2.640625 Z M 13.980469 2.640625 "/>
<path fill-rule="nonzero" fill="rgb(0%, 0%, 0%)" fill-opacity="1" d="M 7.402344 7.167969 C 7.402344 7.519531 7.496094 7.804688 7.6875 8.03125 C 7.871094 8.253906 8.113281 8.363281 8.40625 8.363281 C 8.691406 8.363281 8.921875 8.253906 9.078125 8.042969 C 9.242188 7.828125 9.324219 7.546875 9.324219 7.203125 C 9.324219 6.824219 9.234375 6.53125 9.042969 6.328125 C 8.855469 6.128906 8.632812 6.023438 8.359375 6.023438 C 8.144531 6.023438 7.949219 6.09375 7.78125 6.222656 C 7.527344 6.417969 7.402344 6.734375 7.402344 7.167969 Z M 9.210938 4.34375 C 9.210938 4.242188 9.167969 4.125 9.089844 4 C 8.949219 3.796875 8.742188 3.695312 8.460938 3.695312 C 8.042969 3.695312 7.746094 3.925781 7.566406 4.398438 C 7.472656 4.652344 7.40625 5.039062 7.371094 5.539062 C 7.527344 5.351562 7.714844 5.214844 7.925781 5.125 C 8.132812 5.039062 8.375 4.996094 8.644531 4.996094 C 9.226562 4.996094 9.703125 5.191406 10.070312 5.585938 C 10.441406 5.980469 10.628906 6.484375 10.628906 7.097656 C 10.628906 7.707031 10.441406 8.246094 10.082031 8.714844 C 9.71875 9.175781 9.15625 9.410156 8.390625 9.410156 C 7.566406 9.410156 6.957031 9.066406 6.566406 8.375 C 6.265625 7.835938 6.109375 7.144531 6.109375 6.292969 C 6.109375 5.792969 6.132812 5.394531 6.171875 5.078125 C 6.246094 4.519531 6.394531 4.054688 6.613281 3.6875 C 6.800781 3.371094 7.039062 3.121094 7.347656 2.929688 C 7.648438 2.734375 8.003906 2.640625 8.429688 2.640625 C 9.035156 2.640625 9.523438 2.792969 9.878906 3.105469 C 10.238281 3.414062 10.441406 3.832031 10.488281 4.34375 Z M 9.210938 4.34375 "/>
</svg>
