<?xml version="1.0" encoding="UTF-8"?>
<svg xmlns="http://www.w3.org/2000/svg" xmlns:xlink="http://www.w3.org/1999/xlink" width="18" height="12.050141" viewBox="0 0 18 12.050141">
<path fill-rule="nonzero" fill="rgb(100%, 100%, 100%)" fill-opacity="1" stroke-width="0.2" stroke-linecap="butt" stroke-linejoin="miter" stroke="rgb(0%, 0%, 0%)" stroke-opacity="1" stroke-miterlimit="4" d="M 0.0999583 0.0999583 L 13.857858 0.0999583 L 13.857858 9.24463 L 0.0999583 9.24463 Z M 0.0999583 0.0999583 " transform="matrix(1.2896, 0, 0, 1.2896, 0, 0)"/>
<path fill-rule="nonzero" fill="rgb(0%, 0%, 0%)" fill-opacity="1" d="M 8.839844 3.105469 C 8.59375 3.347656 8.257812 3.773438 7.816406 4.394531 C 7.386719 5.015625 7.015625 5.648438 6.722656 6.308594 C 6.484375 6.824219 6.28125 7.453125 6.09375 8.199219 C 5.902344 8.941406 5.808594 9.558594 5.808594 10.035156 L 4.117188 10.035156 C 4.164062 8.546875 4.652344 6.992188 5.582031 5.382812 C 6.179688 4.382812 6.679688 3.6875 7.089844 3.296875 L 2.9375 3.296875 L 2.96875 1.824219 L 8.839844 1.824219 Z M 10.929688 7.792969 C 10.996094 8.152344 11.121094 8.421875 11.308594 8.613281 C 11.484375 8.816406 11.761719 8.90625 12.105469 8.90625 C 12.515625 8.90625 12.824219 8.769531 13.03125 8.484375 C 13.242188 8.195312 13.347656 7.835938 13.347656 7.40625 C 13.347656 6.976562 13.253906 6.625 13.050781 6.332031 C 12.855469 6.035156 12.542969 5.890625 12.128906 5.890625 C 11.921875 5.890625 11.753906 5.914062 11.605469 5.96875 C 11.351562 6.054688 11.160156 6.226562 11.027344 6.476562 L 9.566406 6.40625 L 10.148438 1.808594 L 14.734375 1.808594 L 14.734375 3.199219 L 11.332031 3.199219 L 11.027344 5.019531 C 11.28125 4.851562 11.480469 4.746094 11.625 4.695312 C 11.863281 4.605469 12.148438 4.558594 12.488281 4.558594 C 13.171875 4.558594 13.773438 4.792969 14.285156 5.253906 C 14.804688 5.714844 15.058594 6.386719 15.058594 7.273438 C 15.058594 8.039062 14.808594 8.726562 14.320312 9.332031 C 13.824219 9.933594 13.082031 10.242188 12.105469 10.242188 C 11.308594 10.242188 10.660156 10.03125 10.152344 9.601562 C 9.644531 9.179688 9.359375 8.578125 9.304688 7.792969 Z M 10.929688 7.792969 "/>
</svg>
