<?xml version="1.0" encoding="UTF-8"?>
<svg xmlns="http://www.w3.org/2000/svg" xmlns:xlink="http://www.w3.org/1999/xlink" width="18" height="12.050141" viewBox="0 0 18 12.050141">
<path fill-rule="nonzero" fill="rgb(100%, 100%, 100%)" fill-opacity="1" stroke-width="0.2" stroke-linecap="butt" stroke-linejoin="miter" stroke="rgb(0%, 0%, 0%)" stroke-opacity="1" stroke-miterlimit="4" d="M 0.0999583 0.0999583 L 13.857858 0.0999583 L 13.857858 9.24463 L 0.0999583 9.24463 Z M 0.0999583 0.0999583 " transform="matrix(1.2896, 0, 0, 1.2896, 0, 0)"/>
<path fill-rule="nonzero" fill="rgb(0%, 0%, 0%)" fill-opacity="1" d="M 8.726562 3.179688 C 8.480469 3.421875 8.144531 3.847656 7.707031 4.46875 C 7.273438 5.089844 6.90625 5.722656 6.613281 6.382812 C 6.375 6.898438 6.167969 7.527344 5.984375 8.273438 C 5.792969 9.015625 5.699219 9.632812 5.699219 10.109375 L 4.003906 10.109375 C 4.054688 8.621094 4.542969 7.066406 5.46875 5.457031 C 6.066406 4.457031 6.570312 3.761719 6.980469 3.371094 L 2.828125 3.371094 L 2.855469 1.898438 L 8.726562 1.898438 Z M 11.101562 6.03125 C 11.101562 6.988281 11.179688 7.71875 11.335938 8.226562 C 11.492188 8.730469 11.816406 8.988281 12.300781 8.988281 C 12.789062 8.988281 13.105469 8.730469 13.257812 8.226562 C 13.40625 7.71875 13.484375 6.988281 13.484375 6.03125 C 13.484375 5.027344 13.40625 4.289062 13.257812 3.804688 C 13.105469 3.324219 12.789062 3.082031 12.300781 3.082031 C 11.816406 3.082031 11.492188 3.324219 11.335938 3.804688 C 11.179688 4.289062 11.101562 5.027344 11.101562 6.03125 Z M 12.300781 1.734375 C 13.363281 1.734375 14.101562 2.105469 14.53125 2.851562 C 14.953125 3.597656 15.171875 4.660156 15.171875 6.03125 C 15.171875 7.40625 14.953125 8.464844 14.53125 9.203125 C 14.101562 9.945312 13.363281 10.316406 12.300781 10.316406 C 11.242188 10.316406 10.5 9.945312 10.074219 9.203125 C 9.644531 8.464844 9.433594 7.40625 9.433594 6.03125 C 9.433594 4.660156 9.644531 3.597656 10.074219 2.851562 C 10.5 2.105469 11.242188 1.734375 12.300781 1.734375 Z M 2.53125 1.0625 "/>
</svg>
