<?xml version="1.0" encoding="UTF-8"?>
<svg xmlns="http://www.w3.org/2000/svg" xmlns:xlink="http://www.w3.org/1999/xlink" width="18" height="12.050143" viewBox="0 0 18 12.050143">
<path fill-rule="nonzero" fill="rgb(100%, 100%, 100%)" fill-opacity="1" stroke-width="0.2" stroke-linecap="butt" stroke-linejoin="miter" stroke="rgb(0%, 0%, 0%)" stroke-opacity="1" stroke-miterlimit="4" d="M 0.0999583 0.0999583 L 13.857858 0.0999583 L 13.857858 9.24463 L 0.0999583 9.24463 Z M 0.0999583 0.0999583 " transform="matrix(1.2896, 0, 0, 1.2896, 0, 0)"/>
<path fill-rule="nonzero" fill="rgb(0%, 0%, 0%)" fill-opacity="1" d="M 1.757812 4.71875 L 1.757812 3.84375 C 2.164062 3.824219 2.445312 3.796875 2.613281 3.761719 C 2.871094 3.703125 3.082031 3.585938 3.246094 3.414062 C 3.359375 3.300781 3.445312 3.144531 3.5 2.945312 C 3.527344 2.828125 3.550781 2.742188 3.550781 2.683594 L 4.621094 2.683594 L 4.621094 9.25 L 3.296875 9.25 L 3.296875 4.71875 Z M 7.875 6.03125 C 7.875 6.785156 7.9375 7.359375 8.0625 7.761719 C 8.183594 8.160156 8.441406 8.363281 8.824219 8.363281 C 9.207031 8.363281 9.457031 8.160156 9.578125 7.761719 C 9.695312 7.359375 9.753906 6.785156 9.753906 6.03125 C 9.753906 5.238281 9.695312 4.65625 9.578125 4.273438 C 9.457031 3.894531 9.207031 3.703125 8.824219 3.703125 C 8.441406 3.703125 8.183594 3.894531 8.0625 4.273438 C 7.9375 4.65625 7.875 5.238281 7.875 6.03125 Z M 8.824219 2.640625 C 9.660156 2.640625 10.246094 2.933594 10.582031 3.519531 C 10.917969 4.109375 11.085938 4.945312 11.085938 6.03125 C 11.085938 7.113281 10.917969 7.949219 10.582031 8.535156 C 10.246094 9.117188 9.660156 9.410156 8.824219 9.410156 C 7.988281 9.410156 7.402344 9.117188 7.066406 8.535156 C 6.726562 7.949219 6.5625 7.113281 6.5625 6.03125 C 6.5625 4.945312 6.726562 4.109375 7.066406 3.519531 C 7.402344 2.933594 7.988281 2.640625 8.824219 2.640625 Z M 8.824219 2.640625 "/>
<path fill-rule="nonzero" fill="rgb(0%, 0%, 0%)" fill-opacity="1" d="M 13.480469 7.449219 C 13.53125 7.734375 13.632812 7.953125 13.78125 8.105469 C 13.925781 8.265625 14.144531 8.339844 14.425781 8.339844 C 14.75 8.339844 15 8.226562 15.167969 8 C 15.335938 7.765625 15.421875 7.480469 15.421875 7.132812 C 15.421875 6.792969 15.34375 6.507812 15.183594 6.269531 C 15.027344 6.035156 14.777344 5.917969 14.441406 5.917969 C 14.277344 5.917969 14.140625 5.9375 14.023438 5.976562 C 13.816406 6.046875 13.660156 6.191406 13.558594 6.386719 L 12.382812 6.328125 L 12.851562 2.640625 L 16.53125 2.640625 L 16.53125 3.757812 L 13.796875 3.757812 L 13.558594 5.21875 C 13.757812 5.082031 13.917969 5 14.035156 4.957031 C 14.226562 4.886719 14.453125 4.847656 14.730469 4.847656 C 15.28125 4.847656 15.761719 5.035156 16.175781 5.40625 C 16.589844 5.777344 16.792969 6.316406 16.792969 7.027344 C 16.792969 7.640625 16.597656 8.195312 16.199219 8.679688 C 15.804688 9.164062 15.207031 9.410156 14.421875 9.410156 C 13.785156 9.410156 13.265625 9.238281 12.855469 8.898438 C 12.445312 8.558594 12.21875 8.074219 12.175781 7.449219 Z M 13.480469 7.449219 "/>
</svg>
