<?xml version="1.0" encoding="UTF-8"?>
<svg xmlns="http://www.w3.org/2000/svg" xmlns:xlink="http://www.w3.org/1999/xlink" width="18" height="12.050143" viewBox="0 0 18 12.050143">
<path fill-rule="nonzero" fill="rgb(100%, 100%, 100%)" fill-opacity="1" stroke-width="0.2" stroke-linecap="butt" stroke-linejoin="miter" stroke="rgb(0%, 0%, 0%)" stroke-opacity="1" stroke-miterlimit="4" d="M 0.0999583 0.0999583 L 13.857858 0.0999583 L 13.857858 9.24463 L 0.0999583 9.24463 Z M 0.0999583 0.0999583 " transform="matrix(1.2896, 0, 0, 1.2896, 0, 0)"/>
<path fill-rule="nonzero" fill="rgb(0%, 0%, 0%)" fill-opacity="1" d="M 1.757812 4.71875 L 1.757812 3.84375 C 2.164062 3.824219 2.445312 3.796875 2.613281 3.761719 C 2.871094 3.703125 3.082031 3.585938 3.246094 3.414062 C 3.359375 3.300781 3.445312 3.144531 3.5 2.945312 C 3.527344 2.828125 3.550781 2.742188 3.550781 2.683594 L 4.621094 2.683594 L 4.621094 9.25 L 3.296875 9.25 L 3.296875 4.71875 Z M 7.875 6.03125 C 7.875 6.785156 7.9375 7.359375 8.0625 7.761719 C 8.183594 8.160156 8.441406 8.363281 8.824219 8.363281 C 9.207031 8.363281 9.457031 8.160156 9.578125 7.761719 C 9.695312 7.359375 9.753906 6.785156 9.753906 6.03125 C 9.753906 5.238281 9.695312 4.65625 9.578125 4.273438 C 9.457031 3.894531 9.207031 3.703125 8.824219 3.703125 C 8.441406 3.703125 8.183594 3.894531 8.0625 4.273438 C 7.9375 4.65625 7.875 5.238281 7.875 6.03125 Z M 8.824219 2.640625 C 9.660156 2.640625 10.246094 2.933594 10.582031 3.519531 C 10.917969 4.109375 11.085938 4.945312 11.085938 6.03125 C 11.085938 7.113281 10.917969 7.949219 10.582031 8.535156 C 10.246094 9.117188 9.660156 9.410156 8.824219 9.410156 C 7.988281 9.410156 7.402344 9.117188 7.066406 8.535156 C 6.726562 7.949219 6.5625 7.113281 6.5625 6.03125 C 6.5625 4.945312 6.726562 4.109375 7.066406 3.519531 C 7.402344 2.933594 7.988281 2.640625 8.824219 2.640625 Z M 13.035156 6.03125 C 13.035156 6.785156 13.09375 7.359375 13.222656 7.761719 C 13.34375 8.160156 13.597656 8.363281 13.980469 8.363281 C 14.363281 8.363281 14.617188 8.160156 14.734375 7.761719 C 14.855469 7.359375 14.914062 6.785156 14.914062 6.03125 C 14.914062 5.238281 14.855469 4.65625 14.734375 4.273438 C 14.617188 3.894531 14.363281 3.703125 13.980469 3.703125 C 13.597656 3.703125 13.34375 3.894531 13.222656 4.273438 C 13.09375 4.65625 13.035156 5.238281 13.035156 6.03125 Z M 13.980469 2.640625 C 14.816406 2.640625 15.402344 2.933594 15.738281 3.519531 C 16.078125 4.109375 16.242188 4.945312 16.242188 6.03125 C 16.242188 7.113281 16.078125 7.949219 15.738281 8.535156 C 15.402344 9.117188 14.816406 9.410156 13.980469 9.410156 C 13.144531 9.410156 12.554688 9.117188 12.222656 8.535156 C 11.886719 7.949219 11.714844 7.113281 11.714844 6.03125 C 11.714844 4.945312 11.886719 4.109375 12.222656 3.519531 C 12.554688 2.933594 13.144531 2.640625 13.980469 2.640625 Z M 1.109375 2.109375 "/>
</svg>
