<?xml version="1.0" encoding="UTF-8"?>
<svg xmlns="http://www.w3.org/2000/svg" xmlns:xlink="http://www.w3.org/1999/xlink" width="8" height="33.283278" viewBox="0 0 8 33.283278">
<path fill-rule="nonzero" fill="rgb(100%, 100%, 100%)" fill-opacity="1" stroke-width="0.161762" stroke-linecap="butt" stroke-linejoin="miter" stroke="rgb(0%, 0%, 0%)" stroke-opacity="1" stroke-miterlimit="4" d="M 0.0814162 0.0814162 L 7.858604 0.0814162 L 7.858604 32.954185 L 0.0814162 32.954185 Z M 0.0814162 0.0814162 " transform="matrix(1.007554, 0, 0, 1.007554, 0, 0)"/>
<path fill-rule="nonzero" fill="rgb(0%, 0%, 0%)" fill-opacity="1" d="M 2.59375 18.058594 C 2.59375 18.570312 2.734375 18.984375 3.015625 19.3125 C 3.28125 19.632812 3.628906 19.789062 4.054688 19.789062 C 4.464844 19.789062 4.796875 19.636719 5.023438 19.324219 C 5.261719 19.015625 5.382812 18.609375 5.382812 18.105469 C 5.382812 17.5625 5.253906 17.136719 4.972656 16.835938 C 4.710938 16.550781 4.382812 16.398438 3.984375 16.398438 C 3.667969 16.398438 3.386719 16.496094 3.148438 16.691406 C 2.777344 16.972656 2.59375 17.429688 2.59375 18.058594 Z M 5.21875 13.960938 C 5.21875 13.816406 5.160156 13.648438 5.035156 13.464844 C 4.839844 13.164062 4.539062 13.019531 4.132812 13.019531 C 3.527344 13.019531 3.097656 13.359375 2.835938 14.035156 C 2.703125 14.414062 2.601562 14.96875 2.550781 15.699219 C 2.777344 15.421875 3.050781 15.222656 3.355469 15.097656 C 3.65625 14.96875 4.011719 14.90625 4.394531 14.90625 C 5.242188 14.90625 5.933594 15.191406 6.464844 15.761719 C 7.007812 16.335938 7.273438 17.066406 7.273438 17.957031 C 7.273438 18.835938 7.007812 19.625 6.480469 20.296875 C 5.957031 20.96875 5.140625 21.308594 4.023438 21.308594 C 2.835938 21.308594 1.953125 20.8125 1.386719 19.808594 C 0.949219 19.027344 0.71875 18.023438 0.71875 16.789062 C 0.71875 16.0625 0.757812 15.484375 0.816406 15.027344 C 0.925781 14.210938 1.132812 13.546875 1.453125 13.007812 C 1.722656 12.550781 2.074219 12.191406 2.519531 11.910156 C 2.949219 11.621094 3.480469 11.488281 4.085938 11.488281 C 4.960938 11.488281 5.667969 11.714844 6.1875 12.171875 C 6.710938 12.613281 7.007812 13.21875 7.074219 13.960938 Z M 2.644531 27.078125 C 2.644531 28.164062 2.734375 28.996094 2.910156 29.582031 C 3.089844 30.152344 3.457031 30.445312 4.011719 30.445312 C 4.570312 30.445312 4.921875 30.152344 5.105469 29.582031 C 5.265625 28.996094 5.355469 28.164062 5.355469 27.078125 C 5.355469 25.929688 5.265625 25.089844 5.105469 24.539062 C 4.921875 23.992188 4.570312 23.714844 4.011719 23.714844 C 3.457031 23.714844 3.089844 23.992188 2.910156 24.539062 C 2.734375 25.089844 2.644531 25.929688 2.644531 27.078125 Z M 4.011719 22.179688 C 5.222656 22.179688 6.058594 22.605469 6.546875 23.453125 C 7.03125 24.304688 7.28125 25.511719 7.28125 27.078125 C 7.28125 28.640625 7.03125 29.84375 6.546875 30.691406 C 6.058594 31.539062 5.222656 31.964844 4.011719 31.964844 C 2.804688 31.964844 1.960938 31.539062 1.472656 30.691406 C 0.984375 29.84375 0.738281 28.640625 0.738281 27.078125 C 0.738281 25.511719 0.984375 24.304688 1.472656 23.453125 C 1.960938 22.605469 2.804688 22.179688 4.011719 22.179688 Z M 4.011719 22.179688 "/>
<path fill-rule="nonzero" fill="rgb(0%, 0%, 0%)" fill-opacity="1" d="M 1.957031 4.226562 L 1.957031 2.976562 C 2.535156 2.949219 2.933594 2.90625 3.175781 2.851562 C 3.542969 2.773438 3.84375 2.601562 4.085938 2.363281 C 4.238281 2.195312 4.359375 1.96875 4.441406 1.695312 C 4.484375 1.515625 4.511719 1.390625 4.511719 1.320312 L 6.042969 1.320312 L 6.042969 10.679688 L 4.15625 10.679688 L 4.15625 4.226562 Z M 1.957031 4.226562 "/>
</svg>
