<?xml version="1.0" encoding="UTF-8"?>
<svg xmlns="http://www.w3.org/2000/svg" xmlns:xlink="http://www.w3.org/1999/xlink" width="18" height="15.413925" viewBox="0 0 18 15.413925">
<path fill-rule="nonzero" fill="rgb(100%, 79.607843%, 0%)" fill-opacity="1" stroke-width="0.7" stroke-linecap="round" stroke-linejoin="round" stroke="rgb(100%, 79.607843%, 0%)" stroke-opacity="1" stroke-miterlimit="4" d="M 21.972775 0.444041 C 13.540851 0.444041 7.114436 0.414764 0.35133 0.351329 C 3.615773 6.104361 7.836615 13.150483 11.101058 18.903515 C 14.482611 13.160242 22.133801 0.444041 22.133801 0.444041 Z M 21.972775 0.444041 " transform="matrix(0.800529, 0, 0, 0.800529, 0, 0.00000065376)"/>
<path fill-rule="nonzero" fill="rgb(0%, 0%, 0%)" fill-opacity="1" d="M 8.847656 4.484375 C 9.648438 4.484375 10.289062 4.6875 10.765625 5.089844 C 11.238281 5.488281 11.476562 6.054688 11.476562 6.785156 C 11.476562 7.597656 11.21875 8.234375 10.699219 8.703125 C 10.1875 9.164062 9.472656 9.394531 8.550781 9.394531 C 8.148438 9.394531 7.769531 9.359375 7.410156 9.285156 C 7.0625 9.210938 6.765625 9.105469 6.523438 8.964844 L 6.523438 8.058594 C 6.785156 8.21875 7.105469 8.347656 7.476562 8.441406 C 7.855469 8.527344 8.21875 8.574219 8.5625 8.574219 C 9.140625 8.574219 9.601562 8.4375 9.953125 8.167969 C 10.3125 7.890625 10.488281 7.460938 10.488281 6.886719 C 10.488281 6.375 10.332031 5.984375 10.019531 5.710938 C 9.703125 5.433594 9.207031 5.296875 8.527344 5.296875 C 8.324219 5.296875 8.089844 5.316406 7.828125 5.351562 C 7.566406 5.386719 7.351562 5.425781 7.191406 5.460938 L 6.710938 5.152344 L 7.007812 1.460938 L 10.929688 1.460938 L 10.929688 2.339844 L 7.828125 2.339844 L 7.640625 4.605469 C 7.765625 4.585938 7.933594 4.558594 8.144531 4.53125 C 8.355469 4.5 8.589844 4.484375 8.847656 4.484375 Z M 8.847656 4.484375 "/>
</svg>
