<?xml version="1.0" encoding="UTF-8"?>
<svg xmlns="http://www.w3.org/2000/svg" xmlns:xlink="http://www.w3.org/1999/xlink" width="18" height="12.050142" viewBox="0 0 18 12.050142">
<path fill-rule="nonzero" fill="rgb(100%, 100%, 100%)" fill-opacity="1" stroke-width="0.2" stroke-linecap="butt" stroke-linejoin="miter" stroke="rgb(0%, 0%, 0%)" stroke-opacity="1" stroke-miterlimit="4" d="M 0.0999583 0.0999583 L 13.857858 0.0999583 L 13.857858 9.24463 L 0.0999583 9.24463 Z M 0.0999583 0.0999583 " transform="matrix(1.2896, 0, 0, 1.2896, 0, 0)"/>
<path fill-rule="nonzero" fill="rgb(0%, 0%, 0%)" fill-opacity="1" d="M 4.4375 7.683594 C 4.4375 8.097656 4.542969 8.414062 4.757812 8.636719 C 4.96875 8.863281 5.261719 8.980469 5.636719 8.980469 C 6.011719 8.980469 6.304688 8.863281 6.515625 8.636719 C 6.726562 8.414062 6.835938 8.097656 6.835938 7.683594 C 6.835938 7.261719 6.726562 6.9375 6.507812 6.722656 C 6.292969 6.5 6 6.390625 5.636719 6.390625 C 5.269531 6.390625 4.976562 6.5 4.761719 6.722656 C 4.542969 6.9375 4.4375 7.261719 4.4375 7.683594 Z M 2.742188 7.796875 C 2.742188 7.328125 2.847656 6.910156 3.058594 6.527344 C 3.269531 6.148438 3.582031 5.867188 3.992188 5.675781 C 3.585938 5.40625 3.324219 5.117188 3.203125 4.804688 C 3.085938 4.492188 3.027344 4.203125 3.027344 3.933594 C 3.027344 3.328125 3.253906 2.808594 3.707031 2.386719 C 4.160156 1.957031 4.808594 1.746094 5.636719 1.746094 C 6.464844 1.746094 7.109375 1.957031 7.5625 2.386719 C 8.015625 2.808594 8.246094 3.328125 8.246094 3.933594 C 8.246094 4.203125 8.1875 4.492188 8.066406 4.804688 C 7.945312 5.117188 7.683594 5.386719 7.28125 5.613281 C 7.691406 5.847656 8 6.148438 8.207031 6.527344 C 8.414062 6.910156 8.515625 7.328125 8.515625 7.796875 C 8.515625 8.496094 8.257812 9.089844 7.738281 9.582031 C 7.21875 10.074219 6.496094 10.320312 5.566406 10.320312 C 4.636719 10.320312 3.933594 10.074219 3.457031 9.582031 C 2.976562 9.089844 2.742188 8.496094 2.742188 7.796875 Z M 4.585938 4.113281 C 4.585938 4.414062 4.679688 4.664062 4.863281 4.855469 C 5.046875 5.046875 5.304688 5.140625 5.636719 5.140625 C 5.96875 5.140625 6.226562 5.046875 6.410156 4.855469 C 6.589844 4.664062 6.679688 4.414062 6.679688 4.113281 C 6.679688 3.785156 6.589844 3.527344 6.410156 3.34375 C 6.226562 3.15625 5.96875 3.066406 5.636719 3.066406 C 5.304688 3.066406 5.046875 3.15625 4.863281 3.34375 C 4.679688 3.527344 4.585938 3.785156 4.585938 4.113281 Z M 4.585938 4.113281 "/>
<path fill-rule="nonzero" fill="rgb(0%, 0%, 0%)" fill-opacity="1" d="M 11.050781 7.820312 C 11.121094 8.1875 11.246094 8.460938 11.433594 8.65625 C 11.617188 8.859375 11.894531 8.953125 12.25 8.953125 C 12.664062 8.953125 12.976562 8.808594 13.191406 8.519531 C 13.40625 8.226562 13.515625 7.863281 13.515625 7.425781 C 13.515625 6.988281 13.417969 6.628906 13.210938 6.328125 C 13.011719 6.03125 12.695312 5.882812 12.269531 5.882812 C 12.0625 5.882812 11.890625 5.90625 11.742188 5.960938 C 11.476562 6.050781 11.285156 6.226562 11.152344 6.476562 L 9.660156 6.40625 L 10.253906 1.726562 L 14.921875 1.726562 L 14.921875 3.144531 L 11.457031 3.144531 L 11.152344 4.996094 C 11.40625 4.824219 11.609375 4.71875 11.757812 4.664062 C 12 4.574219 12.289062 4.527344 12.636719 4.527344 C 13.335938 4.527344 13.949219 4.765625 14.46875 5.234375 C 14.992188 5.703125 15.257812 6.390625 15.257812 7.289062 C 15.257812 8.070312 15 8.769531 14.5 9.386719 C 14 10 13.242188 10.308594 12.246094 10.308594 C 11.4375 10.308594 10.777344 10.09375 10.257812 9.660156 C 9.742188 9.226562 9.453125 8.617188 9.398438 7.820312 Z M 11.050781 7.820312 "/>
<path fill-rule="nonzero" fill="rgb(0%, 0%, 0%)" fill-opacity="1" d="M 11.050781 7.820312 C 11.121094 8.1875 11.246094 8.460938 11.433594 8.65625 C 11.617188 8.859375 11.894531 8.953125 12.25 8.953125 C 12.664062 8.953125 12.976562 8.808594 13.191406 8.519531 C 13.40625 8.226562 13.515625 7.863281 13.515625 7.425781 C 13.515625 6.988281 13.417969 6.628906 13.210938 6.328125 C 13.011719 6.03125 12.695312 5.882812 12.269531 5.882812 C 12.0625 5.882812 11.890625 5.90625 11.742188 5.960938 C 11.476562 6.050781 11.285156 6.226562 11.152344 6.476562 L 9.660156 6.40625 L 10.253906 1.726562 L 14.921875 1.726562 L 14.921875 3.144531 L 11.457031 3.144531 L 11.152344 4.996094 C 11.40625 4.824219 11.609375 4.71875 11.757812 4.664062 C 12 4.574219 12.289062 4.527344 12.636719 4.527344 C 13.335938 4.527344 13.949219 4.765625 14.46875 5.234375 C 14.992188 5.703125 15.257812 6.390625 15.257812 7.289062 C 15.257812 8.070312 15 8.769531 14.5 9.386719 C 14 10 13.242188 10.308594 12.246094 10.308594 C 11.4375 10.308594 10.777344 10.09375 10.257812 9.660156 C 9.742188 9.226562 9.453125 8.617188 9.398438 7.820312 Z M 11.050781 7.820312 "/>
</svg>
