<?xml version="1.0" encoding="UTF-8"?>
<svg xmlns="http://www.w3.org/2000/svg" xmlns:xlink="http://www.w3.org/1999/xlink" width="18" height="12.050142" viewBox="0 0 18 12.050142">
<path fill-rule="nonzero" fill="rgb(100%, 100%, 100%)" fill-opacity="1" stroke-width="0.2" stroke-linecap="butt" stroke-linejoin="miter" stroke="rgb(0%, 0%, 0%)" stroke-opacity="1" stroke-miterlimit="4" d="M 0.0999583 0.0999583 L 13.857858 0.0999583 L 13.857858 9.24463 L 0.0999583 9.24463 Z M 0.0999583 0.0999583 " transform="matrix(1.2896, 0, 0, 1.2896, 0, 0)"/>
<path fill-rule="nonzero" fill="rgb(0%, 0%, 0%)" fill-opacity="1" d="M 4.535156 7.691406 C 4.535156 8.105469 4.640625 8.421875 4.855469 8.644531 C 5.066406 8.871094 5.359375 8.988281 5.734375 8.988281 C 6.109375 8.988281 6.402344 8.871094 6.613281 8.644531 C 6.824219 8.421875 6.933594 8.105469 6.933594 7.691406 C 6.933594 7.269531 6.824219 6.945312 6.605469 6.730469 C 6.390625 6.507812 6.097656 6.398438 5.734375 6.398438 C 5.367188 6.398438 5.074219 6.507812 4.859375 6.730469 C 4.640625 6.945312 4.535156 7.269531 4.535156 7.691406 Z M 2.839844 7.804688 C 2.839844 7.335938 2.945312 6.917969 3.15625 6.535156 C 3.367188 6.15625 3.679688 5.875 4.089844 5.683594 C 3.683594 5.414062 3.421875 5.125 3.300781 4.8125 C 3.183594 4.5 3.125 4.210938 3.125 3.941406 C 3.125 3.335938 3.351562 2.816406 3.804688 2.394531 C 4.257812 1.964844 4.90625 1.753906 5.734375 1.753906 C 6.5625 1.753906 7.207031 1.964844 7.660156 2.394531 C 8.113281 2.816406 8.34375 3.335938 8.34375 3.941406 C 8.34375 4.210938 8.285156 4.5 8.164062 4.8125 C 8.042969 5.125 7.78125 5.394531 7.378906 5.621094 C 7.789062 5.855469 8.097656 6.15625 8.304688 6.535156 C 8.511719 6.917969 8.613281 7.335938 8.613281 7.804688 C 8.613281 8.503906 8.355469 9.097656 7.835938 9.589844 C 7.316406 10.082031 6.59375 10.328125 5.664062 10.328125 C 4.734375 10.328125 4.03125 10.082031 3.554688 9.589844 C 3.074219 9.097656 2.839844 8.503906 2.839844 7.804688 Z M 4.683594 4.121094 C 4.683594 4.421875 4.777344 4.671875 4.960938 4.863281 C 5.144531 5.054688 5.402344 5.148438 5.734375 5.148438 C 6.066406 5.148438 6.324219 5.054688 6.507812 4.863281 C 6.6875 4.671875 6.777344 4.421875 6.777344 4.121094 C 6.777344 3.792969 6.6875 3.535156 6.507812 3.351562 C 6.324219 3.164062 6.066406 3.074219 5.734375 3.074219 C 5.402344 3.074219 5.144531 3.164062 4.960938 3.351562 C 4.777344 3.535156 4.683594 3.792969 4.683594 4.121094 Z M 11.09375 6.03125 C 11.09375 6.988281 11.175781 7.71875 11.332031 8.226562 C 11.488281 8.730469 11.8125 8.988281 12.292969 8.988281 C 12.78125 8.988281 13.101562 8.730469 13.25 8.226562 C 13.402344 7.71875 13.476562 6.988281 13.476562 6.03125 C 13.476562 5.027344 13.402344 4.289062 13.25 3.804688 C 13.101562 3.324219 12.78125 3.082031 12.292969 3.082031 C 11.8125 3.082031 11.488281 3.324219 11.332031 3.804688 C 11.175781 4.289062 11.09375 5.027344 11.09375 6.03125 Z M 12.292969 1.734375 C 13.351562 1.734375 14.097656 2.105469 14.519531 2.851562 C 14.949219 3.597656 15.160156 4.660156 15.160156 6.03125 C 15.160156 7.40625 14.949219 8.464844 14.519531 9.203125 C 14.097656 9.945312 13.351562 10.316406 12.292969 10.316406 C 11.238281 10.316406 10.492188 9.945312 10.066406 9.203125 C 9.640625 8.464844 9.429688 7.40625 9.429688 6.03125 C 9.429688 4.660156 9.640625 3.597656 10.066406 2.851562 C 10.492188 2.105469 11.238281 1.734375 12.292969 1.734375 Z M 2.527344 1.0625 "/>
</svg>
