<?xml version="1.0" encoding="UTF-8"?>
<svg xmlns="http://www.w3.org/2000/svg" xmlns:xlink="http://www.w3.org/1999/xlink" width="8" height="31.882844" viewBox="0 0 8 31.882844">
<path fill-rule="nonzero" fill="rgb(100%, 79.607843%, 0%)" fill-opacity="1" stroke-width="0.158452" stroke-linecap="butt" stroke-linejoin="miter" stroke="rgb(0%, 0%, 0%)" stroke-opacity="1" stroke-miterlimit="4" d="M 0.0769912 0.0769912 L 5.760082 0.0769912 L 5.760082 23.197164 L 0.0769912 23.197164 Z M 0.0769912 0.0769912 " transform="matrix(1.369881, 0, 0, 1.369881, 0, 0)"/>
<path fill-rule="nonzero" fill="rgb(0%, 0%, 0%)" fill-opacity="1" d="M 1.699219 4.171875 L 1.699219 2.972656 C 2.25 2.945312 2.652344 2.910156 2.875 2.863281 C 3.230469 2.785156 3.515625 2.625 3.746094 2.382812 C 3.886719 2.234375 4.011719 2.019531 4.082031 1.742188 C 4.136719 1.582031 4.15625 1.46875 4.15625 1.386719 L 5.621094 1.386719 L 5.621094 10.382812 L 3.816406 10.382812 L 3.816406 4.171875 Z M 1.679688 14.011719 L 1.679688 12.820312 C 2.242188 12.792969 2.632812 12.746094 2.855469 12.703125 C 3.210938 12.625 3.503906 12.464844 3.726562 12.222656 C 3.871094 12.070312 3.996094 11.859375 4.074219 11.582031 C 4.117188 11.421875 4.136719 11.308594 4.136719 11.226562 L 5.605469 11.226562 L 5.605469 20.21875 L 3.796875 20.21875 L 3.796875 14.011719 Z M 2.703125 25.871094 C 2.703125 26.902344 2.785156 27.683594 2.953125 28.234375 C 3.121094 28.785156 3.46875 29.0625 3.996094 29.0625 C 4.519531 29.0625 4.867188 28.785156 5.027344 28.234375 C 5.195312 27.683594 5.285156 26.902344 5.285156 25.871094 C 5.285156 24.785156 5.195312 23.984375 5.027344 23.457031 C 4.867188 22.941406 4.519531 22.675781 3.996094 22.675781 C 3.46875 22.675781 3.121094 22.941406 2.953125 23.457031 C 2.785156 23.984375 2.703125 24.785156 2.703125 25.871094 Z M 3.996094 21.226562 C 5.140625 21.226562 5.953125 21.625 6.414062 22.425781 C 6.867188 23.234375 7.097656 24.382812 7.097656 25.871094 C 7.097656 27.355469 6.867188 28.492188 6.414062 29.304688 C 5.953125 30.09375 5.140625 30.496094 3.996094 30.496094 C 2.855469 30.496094 2.046875 30.09375 1.59375 29.304688 C 1.121094 28.492188 0.898438 27.355469 0.898438 25.871094 C 0.898438 24.382812 1.121094 23.234375 1.59375 22.425781 C 2.046875 21.625 2.855469 21.226562 3.996094 21.226562 Z M 3.996094 21.226562 "/>
</svg>
