<?xml version="1.0" encoding="UTF-8"?>
<svg xmlns="http://www.w3.org/2000/svg" xmlns:xlink="http://www.w3.org/1999/xlink" width="18" height="12.050143" viewBox="0 0 18 12.050143">
<path fill-rule="nonzero" fill="rgb(100%, 100%, 100%)" fill-opacity="1" stroke-width="0.2" stroke-linecap="butt" stroke-linejoin="miter" stroke="rgb(0%, 0%, 0%)" stroke-opacity="1" stroke-miterlimit="4" d="M 0.0999583 0.099958 L 13.857858 0.099958 L 13.857858 9.24463 L 0.0999583 9.24463 Z M 0.0999583 0.099958 " transform="matrix(1.2896, 0, 0, 1.2896, 0, 0.000000411666)"/>
<path fill-rule="nonzero" fill="rgb(0%, 0%, 0%)" fill-opacity="1" d="M 3.265625 4.386719 L 3.265625 3.242188 C 3.796875 3.214844 4.167969 3.175781 4.386719 3.132812 C 4.726562 3.054688 5 2.902344 5.214844 2.675781 C 5.363281 2.527344 5.476562 2.324219 5.546875 2.0625 C 5.585938 1.90625 5.617188 1.796875 5.617188 1.71875 L 7.019531 1.71875 L 7.019531 10.332031 L 5.28125 10.332031 L 5.28125 4.386719 Z M 3.265625 4.386719 "/>
<path fill-rule="nonzero" fill="rgb(0%, 0%, 0%)" fill-opacity="1" d="M 10.65625 6.03125 C 10.65625 6.992188 10.730469 7.71875 10.894531 8.234375 C 11.050781 8.742188 11.371094 8.996094 11.859375 8.996094 C 12.34375 8.996094 12.667969 8.742188 12.816406 8.234375 C 12.96875 7.71875 13.042969 6.992188 13.042969 6.03125 C 13.042969 5.019531 12.96875 4.28125 12.816406 3.792969 C 12.667969 3.316406 12.34375 3.070312 11.859375 3.070312 C 11.371094 3.070312 11.050781 3.316406 10.894531 3.792969 C 10.730469 4.28125 10.65625 5.019531 10.65625 6.03125 Z M 11.859375 1.71875 C 12.917969 1.71875 13.664062 2.089844 14.09375 2.835938 C 14.527344 3.585938 14.734375 4.648438 14.734375 6.03125 C 14.734375 7.410156 14.527344 8.472656 14.09375 9.214844 C 13.664062 9.957031 12.917969 10.332031 11.859375 10.332031 C 10.792969 10.332031 10.042969 9.957031 9.621094 9.214844 C 9.191406 8.472656 8.972656 7.410156 8.972656 6.03125 C 8.972656 4.648438 9.191406 3.585938 9.621094 2.835938 C 10.042969 2.089844 10.792969 1.71875 11.859375 1.71875 Z M 11.859375 1.71875 "/>
</svg>
