<?xml version="1.0" encoding="UTF-8"?>
<svg xmlns="http://www.w3.org/2000/svg" xmlns:xlink="http://www.w3.org/1999/xlink" width="8" height="21.030375" viewBox="0 0 8 21.030375">
<path fill-rule="nonzero" fill="rgb(100%, 79.607843%, 0%)" fill-opacity="1" stroke-width="0.162275" stroke-linecap="butt" stroke-linejoin="miter" stroke="rgb(0%, 0%, 0%)" stroke-opacity="1" stroke-miterlimit="4" d="M 0.0825535 0.0825535 L 7.268294 0.0825535 L 7.268294 19.242135 L 0.0825535 19.242135 Z M 0.0825535 0.0825535 " transform="matrix(1.08831, 0, 0, 1.08831, 0, 0)"/>
<path fill-rule="nonzero" fill="rgb(0%, 0%, 0%)" fill-opacity="1" d="M 0.839844 3.976562 C 0.839844 3.015625 1.121094 2.222656 1.679688 1.625 C 2.234375 1.027344 2.957031 0.722656 3.859375 0.722656 C 5.234375 0.722656 6.179688 1.332031 6.6875 2.550781 C 6.984375 3.246094 7.125 4.15625 7.125 5.28125 C 7.125 6.378906 6.988281 7.289062 6.707031 8.019531 C 6.179688 9.410156 5.191406 10.109375 3.773438 10.109375 C 3.097656 10.109375 2.488281 9.910156 1.941406 9.511719 C 1.410156 9.105469 1.097656 8.527344 1.019531 7.75 L 2.789062 7.75 C 2.835938 8.019531 2.941406 8.234375 3.128906 8.402344 C 3.316406 8.574219 3.550781 8.648438 3.859375 8.648438 C 4.449219 8.648438 4.859375 8.328125 5.09375 7.679688 C 5.226562 7.316406 5.304688 6.796875 5.332031 6.113281 C 5.175781 6.3125 5 6.472656 4.816406 6.578125 C 4.484375 6.777344 4.074219 6.878906 3.589844 6.878906 C 2.863281 6.878906 2.234375 6.625 1.671875 6.132812 C 1.109375 5.640625 0.839844 4.917969 0.839844 3.976562 Z M 3.976562 5.433594 C 4.226562 5.433594 4.453125 5.363281 4.671875 5.222656 C 5.070312 4.957031 5.273438 4.511719 5.273438 3.878906 C 5.273438 3.367188 5.152344 2.957031 4.917969 2.65625 C 4.675781 2.351562 4.347656 2.210938 3.929688 2.210938 C 3.625 2.210938 3.363281 2.292969 3.152344 2.464844 C 2.8125 2.730469 2.640625 3.1875 2.640625 3.820312 C 2.640625 4.359375 2.753906 4.757812 2.964844 5.023438 C 3.1875 5.296875 3.527344 5.433594 3.976562 5.433594 Z M 2.734375 15.644531 C 2.734375 16.6875 2.828125 17.480469 2.992188 18.03125 C 3.164062 18.582031 3.515625 18.863281 4.042969 18.863281 C 4.570312 18.863281 4.921875 18.582031 5.082031 18.03125 C 5.246094 17.480469 5.328125 16.6875 5.328125 15.644531 C 5.328125 14.550781 5.246094 13.75 5.082031 13.21875 C 4.921875 12.699219 4.570312 12.433594 4.042969 12.433594 C 3.515625 12.433594 3.164062 12.699219 2.992188 13.21875 C 2.828125 13.75 2.734375 14.550781 2.734375 15.644531 Z M 4.042969 10.96875 C 5.191406 10.96875 6.003906 11.371094 6.464844 12.183594 C 6.929688 12.996094 7.160156 14.152344 7.160156 15.644531 C 7.160156 17.140625 6.929688 18.289062 6.464844 19.09375 C 6.003906 19.902344 5.191406 20.308594 4.042969 20.308594 C 2.886719 20.308594 2.082031 19.902344 1.621094 19.09375 C 1.15625 18.289062 0.921875 17.140625 0.921875 15.644531 C 0.921875 14.152344 1.15625 12.996094 1.621094 12.183594 C 2.082031 11.371094 2.886719 10.96875 4.042969 10.96875 Z M 4.042969 10.96875 "/>
</svg>
