<?xml version="1.0" encoding="UTF-8"?>
<svg xmlns="http://www.w3.org/2000/svg" xmlns:xlink="http://www.w3.org/1999/xlink" width="18" height="12.050141" viewBox="0 0 18 12.050141">
<path fill-rule="nonzero" fill="rgb(100%, 100%, 100%)" fill-opacity="1" stroke-width="0.2" stroke-linecap="butt" stroke-linejoin="miter" stroke="rgb(0%, 0%, 0%)" stroke-opacity="1" stroke-miterlimit="4" d="M 0.0999583 0.0999583 L 13.857858 0.0999583 L 13.857858 9.24463 L 0.0999583 9.24463 Z M 0.0999583 0.0999583 " transform="matrix(1.2896, 0, 0, 1.2896, 0, 0)"/>
<path fill-rule="nonzero" fill="rgb(0%, 0%, 0%)" fill-opacity="1" d="M 4.507812 7.476562 C 4.507812 7.925781 4.628906 8.285156 4.871094 8.574219 C 5.105469 8.855469 5.414062 8.996094 5.785156 8.996094 C 6.148438 8.996094 6.4375 8.859375 6.640625 8.585938 C 6.847656 8.3125 6.953125 7.960938 6.953125 7.519531 C 6.953125 7.039062 6.839844 6.664062 6.597656 6.40625 C 6.359375 6.152344 6.074219 6.019531 5.726562 6.019531 C 5.449219 6.019531 5.203125 6.105469 4.988281 6.273438 C 4.667969 6.519531 4.507812 6.921875 4.507812 7.476562 Z M 6.808594 3.882812 C 6.808594 3.753906 6.753906 3.605469 6.652344 3.445312 C 6.476562 3.183594 6.210938 3.054688 5.851562 3.054688 C 5.324219 3.054688 4.945312 3.351562 4.71875 3.949219 C 4.597656 4.277344 4.511719 4.765625 4.464844 5.40625 C 4.667969 5.164062 4.90625 4.988281 5.171875 4.875 C 5.4375 4.765625 5.746094 4.710938 6.089844 4.710938 C 6.828125 4.710938 7.433594 4.960938 7.902344 5.460938 C 8.375 5.964844 8.613281 6.605469 8.613281 7.386719 C 8.613281 8.160156 8.378906 8.847656 7.917969 9.441406 C 7.457031 10.03125 6.738281 10.328125 5.761719 10.328125 C 4.714844 10.328125 3.941406 9.890625 3.445312 9.011719 C 3.0625 8.328125 2.863281 7.445312 2.863281 6.363281 C 2.863281 5.726562 2.894531 5.214844 2.945312 4.816406 C 3.039062 4.105469 3.226562 3.515625 3.503906 3.046875 C 3.742188 2.644531 4.046875 2.324219 4.4375 2.082031 C 4.820312 1.832031 5.277344 1.714844 5.816406 1.714844 C 6.585938 1.714844 7.203125 1.910156 7.660156 2.308594 C 8.117188 2.699219 8.375 3.230469 8.4375 3.882812 Z M 11.066406 6.03125 C 11.066406 6.988281 11.144531 7.71875 11.300781 8.226562 C 11.457031 8.730469 11.78125 8.988281 12.265625 8.988281 C 12.753906 8.988281 13.070312 8.730469 13.222656 8.226562 C 13.371094 7.71875 13.449219 6.988281 13.449219 6.03125 C 13.449219 5.027344 13.371094 4.289062 13.222656 3.804688 C 13.070312 3.324219 12.753906 3.082031 12.265625 3.082031 C 11.78125 3.082031 11.457031 3.324219 11.300781 3.804688 C 11.144531 4.289062 11.066406 5.027344 11.066406 6.03125 Z M 12.265625 1.734375 C 13.328125 1.734375 14.066406 2.105469 14.496094 2.851562 C 14.917969 3.597656 15.136719 4.660156 15.136719 6.03125 C 15.136719 7.40625 14.917969 8.464844 14.496094 9.203125 C 14.066406 9.945312 13.328125 10.316406 12.265625 10.316406 C 11.207031 10.316406 10.464844 9.945312 10.039062 9.203125 C 9.609375 8.464844 9.398438 7.40625 9.398438 6.03125 C 9.398438 4.660156 9.609375 3.597656 10.039062 2.851562 C 10.464844 2.105469 11.207031 1.734375 12.265625 1.734375 Z M 2.496094 1.0625 "/>
</svg>
