<?xml version="1.0" encoding="UTF-8"?>
<svg xmlns="http://www.w3.org/2000/svg" xmlns:xlink="http://www.w3.org/1999/xlink" width="18" height="15.413925" viewBox="0 0 18 15.413925">
<path fill-rule="nonzero" fill="rgb(100%, 79.607843%, 0%)" fill-opacity="1" stroke-width="0.7" stroke-linecap="round" stroke-linejoin="round" stroke="rgb(100%, 79.607843%, 0%)" stroke-opacity="1" stroke-miterlimit="4" d="M 21.972775 0.444041 C 13.540851 0.444041 7.114436 0.414764 0.35133 0.351329 C 3.615773 6.104361 7.836615 13.150483 11.101058 18.903515 C 14.482611 13.160242 22.133801 0.444041 22.133801 0.444041 Z M 21.972775 0.444041 " transform="matrix(0.800529, 0, 0, 0.800529, 0, 0.00000065376)"/>
<path fill-rule="nonzero" fill="rgb(0%, 0%, 0%)" fill-opacity="1" d="M 8.976562 1.429688 C 9.648438 1.429688 10.199219 1.589844 10.632812 1.90625 C 11.058594 2.21875 11.277344 2.667969 11.277344 3.261719 C 11.277344 3.578125 11.210938 3.839844 11.074219 4.070312 C 10.9375 4.300781 10.769531 4.503906 10.546875 4.679688 C 10.320312 4.859375 10.082031 5.011719 9.808594 5.148438 C 10.132812 5.300781 10.414062 5.46875 10.675781 5.664062 C 10.929688 5.851562 11.132812 6.066406 11.285156 6.320312 C 11.441406 6.566406 11.523438 6.871094 11.523438 7.21875 C 11.523438 7.863281 11.296875 8.375 10.835938 8.753906 C 10.386719 9.128906 9.777344 9.316406 9.011719 9.316406 C 8.1875 9.316406 7.550781 9.136719 7.109375 8.78125 C 6.660156 8.417969 6.441406 7.90625 6.441406 7.253906 C 6.441406 6.90625 6.515625 6.601562 6.652344 6.335938 C 6.804688 6.082031 7 5.859375 7.246094 5.675781 C 7.492188 5.488281 7.753906 5.328125 8.027344 5.199219 C 7.664062 4.988281 7.339844 4.730469 7.078125 4.425781 C 6.8125 4.121094 6.6875 3.730469 6.6875 3.253906 C 6.6875 2.863281 6.789062 2.535156 6.992188 2.269531 C 7.1875 2 7.457031 1.785156 7.808594 1.640625 C 8.144531 1.496094 8.535156 1.429688 8.976562 1.429688 Z M 8.96875 2.195312 C 8.570312 2.195312 8.25 2.289062 7.984375 2.484375 C 7.738281 2.667969 7.613281 2.941406 7.613281 3.296875 C 7.613281 3.5625 7.671875 3.789062 7.796875 3.96875 C 7.925781 4.144531 8.09375 4.300781 8.308594 4.425781 C 8.527344 4.546875 8.757812 4.664062 9.019531 4.78125 C 9.394531 4.621094 9.699219 4.433594 9.953125 4.214844 C 10.210938 3.992188 10.335938 3.6875 10.335938 3.296875 C 10.335938 2.941406 10.21875 2.667969 9.960938 2.484375 C 9.714844 2.289062 9.378906 2.195312 8.96875 2.195312 Z M 7.367188 7.261719 C 7.367188 7.636719 7.5 7.949219 7.765625 8.195312 C 8.027344 8.441406 8.433594 8.558594 8.988281 8.558594 C 9.511719 8.558594 9.902344 8.441406 10.183594 8.195312 C 10.457031 7.949219 10.597656 7.625 10.597656 7.226562 C 10.597656 6.863281 10.457031 6.546875 10.15625 6.3125 C 9.859375 6.054688 9.46875 5.835938 8.988281 5.648438 L 8.816406 5.589844 C 8.339844 5.785156 7.984375 6.023438 7.730469 6.285156 C 7.484375 6.539062 7.367188 6.871094 7.367188 7.261719 Z M 7.367188 7.261719 "/>
</svg>
