<?xml version="1.0" encoding="UTF-8"?>
<svg xmlns="http://www.w3.org/2000/svg" xmlns:xlink="http://www.w3.org/1999/xlink" width="18" height="12.050143" viewBox="0 0 18 12.050143">
<path fill-rule="nonzero" fill="rgb(100%, 100%, 100%)" fill-opacity="1" stroke-width="0.2" stroke-linecap="butt" stroke-linejoin="miter" stroke="rgb(0%, 0%, 0%)" stroke-opacity="1" stroke-miterlimit="4" d="M 0.0999583 0.099958 L 13.857858 0.099958 L 13.857858 9.24463 L 0.0999583 9.24463 Z M 0.0999583 0.099958 " transform="matrix(1.2896, 0, 0, 1.2896, 0, 0.000000411666)"/>
<path fill-rule="nonzero" fill="rgb(0%, 0%, 0%)" fill-opacity="1" d="M 10.304688 7.832031 C 10.375 8.199219 10.5 8.476562 10.6875 8.671875 C 10.875 8.875 11.152344 8.96875 11.507812 8.96875 C 11.921875 8.96875 12.238281 8.824219 12.453125 8.535156 C 12.667969 8.242188 12.777344 7.878906 12.777344 7.4375 C 12.777344 7 12.683594 6.636719 12.472656 6.335938 C 12.277344 6.039062 11.957031 5.890625 11.527344 5.890625 C 11.320312 5.890625 11.148438 5.914062 10.996094 5.964844 C 10.730469 6.054688 10.539062 6.234375 10.40625 6.484375 L 8.910156 6.410156 L 9.503906 1.71875 L 14.1875 1.71875 L 14.1875 3.140625 L 10.710938 3.140625 L 10.40625 5 C 10.660156 4.828125 10.867188 4.71875 11.011719 4.664062 C 11.257812 4.574219 11.550781 4.527344 11.894531 4.527344 C 12.597656 4.527344 13.214844 4.769531 13.734375 5.238281 C 14.261719 5.710938 14.523438 6.394531 14.523438 7.300781 C 14.523438 8.085938 14.269531 8.785156 13.769531 9.402344 C 13.265625 10.019531 12.503906 10.332031 11.503906 10.332031 C 10.691406 10.332031 10.03125 10.117188 9.507812 9.679688 C 8.992188 9.246094 8.703125 8.628906 8.644531 7.832031 Z M 10.304688 7.832031 "/>
<path fill-rule="nonzero" fill="rgb(0%, 0%, 0%)" fill-opacity="1" d="M 3.476562 4.386719 L 3.476562 3.242188 C 4.007812 3.214844 4.378906 3.175781 4.597656 3.132812 C 4.9375 3.054688 5.210938 2.902344 5.425781 2.675781 C 5.574219 2.527344 5.6875 2.324219 5.757812 2.0625 C 5.796875 1.90625 5.828125 1.796875 5.828125 1.71875 L 7.230469 1.71875 L 7.230469 10.332031 L 5.492188 10.332031 L 5.492188 4.386719 Z M 3.476562 4.386719 "/>
</svg>
