<?xml version="1.0" encoding="UTF-8"?>
<svg xmlns="http://www.w3.org/2000/svg" xmlns:xlink="http://www.w3.org/1999/xlink" width="18" height="12.050141" viewBox="0 0 18 12.050141">
<path fill-rule="nonzero" fill="rgb(100%, 100%, 100%)" fill-opacity="1" stroke-width="0.2" stroke-linecap="butt" stroke-linejoin="miter" stroke="rgb(0%, 0%, 0%)" stroke-opacity="1" stroke-miterlimit="4" d="M 0.0999583 0.0999583 L 13.857858 0.0999583 L 13.857858 9.24463 L 0.0999583 9.24463 Z M 0.0999583 0.0999583 " transform="matrix(1.2896, 0, 0, 1.2896, 0, 0)"/>
<path fill-rule="nonzero" fill="rgb(0%, 0%, 0%)" fill-opacity="1" d="M 4.417969 7.480469 C 4.417969 7.929688 4.539062 8.289062 4.78125 8.578125 C 5.015625 8.859375 5.324219 9 5.695312 9 C 6.058594 9 6.347656 8.863281 6.554688 8.589844 C 6.757812 8.316406 6.867188 7.964844 6.867188 7.523438 C 6.867188 7.042969 6.75 6.667969 6.507812 6.410156 C 6.269531 6.15625 5.984375 6.023438 5.636719 6.023438 C 5.359375 6.023438 5.113281 6.109375 4.898438 6.277344 C 4.578125 6.523438 4.417969 6.925781 4.417969 7.480469 Z M 6.722656 3.886719 C 6.722656 3.757812 6.664062 3.609375 6.5625 3.449219 C 6.386719 3.1875 6.121094 3.058594 5.761719 3.058594 C 5.234375 3.058594 4.855469 3.355469 4.628906 3.953125 C 4.507812 4.28125 4.421875 4.769531 4.375 5.410156 C 4.578125 5.167969 4.816406 4.992188 5.082031 4.878906 C 5.347656 4.769531 5.660156 4.714844 6 4.714844 C 6.738281 4.714844 7.34375 4.964844 7.8125 5.464844 C 8.285156 5.96875 8.523438 6.609375 8.523438 7.390625 C 8.523438 8.164062 8.292969 8.851562 7.832031 9.445312 C 7.367188 10.035156 6.652344 10.332031 5.671875 10.332031 C 4.625 10.332031 3.851562 9.894531 3.355469 9.015625 C 2.972656 8.332031 2.773438 7.449219 2.773438 6.367188 C 2.773438 5.730469 2.804688 5.21875 2.859375 4.820312 C 2.949219 4.109375 3.136719 3.519531 3.414062 3.050781 C 3.65625 2.648438 3.957031 2.328125 4.347656 2.085938 C 4.730469 1.835938 5.1875 1.71875 5.726562 1.71875 C 6.496094 1.71875 7.113281 1.914062 7.570312 2.3125 C 8.027344 2.703125 8.285156 3.234375 8.347656 3.886719 Z M 6.722656 3.886719 "/>
<path fill-rule="nonzero" fill="rgb(0%, 0%, 0%)" fill-opacity="1" d="M 11.007812 7.832031 C 11.074219 8.199219 11.203125 8.476562 11.390625 8.671875 C 11.574219 8.875 11.851562 8.96875 12.207031 8.96875 C 12.621094 8.96875 12.9375 8.824219 13.152344 8.535156 C 13.367188 8.242188 13.480469 7.878906 13.480469 7.4375 C 13.480469 7 13.382812 6.636719 13.171875 6.335938 C 12.976562 6.039062 12.65625 5.890625 12.226562 5.890625 C 12.019531 5.890625 11.847656 5.914062 11.695312 5.964844 C 11.433594 6.054688 11.238281 6.234375 11.105469 6.484375 L 9.609375 6.410156 L 10.203125 1.71875 L 14.890625 1.71875 L 14.890625 3.140625 L 11.414062 3.140625 L 11.105469 5 C 11.359375 4.828125 11.566406 4.71875 11.714844 4.664062 C 11.957031 4.574219 12.25 4.527344 12.59375 4.527344 C 13.296875 4.527344 13.914062 4.769531 14.433594 5.238281 C 14.960938 5.710938 15.222656 6.394531 15.222656 7.300781 C 15.222656 8.085938 14.972656 8.785156 14.46875 9.402344 C 13.964844 10.019531 13.207031 10.332031 12.203125 10.332031 C 11.394531 10.332031 10.730469 10.117188 10.207031 9.679688 C 9.691406 9.246094 9.402344 8.628906 9.347656 7.832031 Z M 11.007812 7.832031 "/>
</svg>
