<?xml version="1.0" encoding="UTF-8"?>
<svg xmlns="http://www.w3.org/2000/svg" xmlns:xlink="http://www.w3.org/1999/xlink" width="18" height="15.413925" viewBox="0 0 18 15.413925">
<path fill-rule="nonzero" fill="rgb(100%, 79.607843%, 0%)" fill-opacity="1" stroke-width="0.7" stroke-linecap="round" stroke-linejoin="round" stroke="rgb(100%, 79.607843%, 0%)" stroke-opacity="1" stroke-miterlimit="4" d="M 21.972775 0.444041 C 13.540851 0.444041 7.114436 0.414764 0.35133 0.351329 C 3.615773 6.104361 7.836615 13.150483 11.101058 18.903515 C 14.482611 13.160242 22.133801 0.444041 22.133801 0.444041 Z M 21.972775 0.444041 " transform="matrix(0.800529, 0, 0, 0.800529, 0, 0.00000065376)"/>
<path fill-rule="nonzero" fill="rgb(0%, 0%, 0%)" fill-opacity="1" d="M 6.425781 5.941406 C 6.425781 5.378906 6.472656 4.828125 6.566406 4.289062 C 6.671875 3.742188 6.847656 3.246094 7.105469 2.808594 C 7.367188 2.363281 7.734375 2.007812 8.199219 1.746094 C 8.667969 1.484375 9.269531 1.351562 10.007812 1.351562 C 10.160156 1.351562 10.328125 1.359375 10.511719 1.375 C 10.703125 1.386719 10.855469 1.414062 10.972656 1.449219 L 10.972656 2.273438 C 10.839844 2.230469 10.691406 2.195312 10.523438 2.175781 C 10.363281 2.152344 10.199219 2.140625 10.03125 2.140625 C 9.527344 2.140625 9.105469 2.226562 8.769531 2.394531 C 8.433594 2.5625 8.167969 2.792969 7.96875 3.082031 C 7.78125 3.375 7.640625 3.710938 7.554688 4.089844 C 7.464844 4.472656 7.410156 4.875 7.390625 5.308594 L 7.457031 5.308594 C 7.625 5.050781 7.855469 4.835938 8.15625 4.660156 C 8.457031 4.476562 8.839844 4.386719 9.308594 4.386719 C 9.984375 4.386719 10.535156 4.59375 10.949219 5.011719 C 11.367188 5.421875 11.574219 6.003906 11.574219 6.765625 C 11.574219 7.582031 11.347656 8.226562 10.894531 8.691406 C 10.449219 9.160156 9.847656 9.394531 9.085938 9.394531 C 8.589844 9.394531 8.140625 9.269531 7.738281 9.019531 C 7.339844 8.773438 7.015625 8.394531 6.777344 7.882812 C 6.542969 7.371094 6.425781 6.722656 6.425781 5.941406 Z M 9.078125 8.582031 C 9.535156 8.582031 9.910156 8.4375 10.195312 8.144531 C 10.480469 7.84375 10.621094 7.386719 10.621094 6.765625 C 10.621094 6.269531 10.492188 5.875 10.238281 5.582031 C 9.988281 5.289062 9.613281 5.144531 9.109375 5.144531 C 8.765625 5.144531 8.46875 5.214844 8.210938 5.363281 C 7.957031 5.5 7.753906 5.679688 7.609375 5.898438 C 7.46875 6.117188 7.402344 6.34375 7.402344 6.578125 C 7.402344 6.890625 7.460938 7.207031 7.585938 7.519531 C 7.710938 7.828125 7.898438 8.082031 8.144531 8.289062 C 8.394531 8.484375 8.703125 8.582031 9.078125 8.582031 Z M 9.078125 8.582031 "/>
</svg>
