<?xml version="1.0" encoding="UTF-8"?>
<svg xmlns="http://www.w3.org/2000/svg" xmlns:xlink="http://www.w3.org/1999/xlink" width="18" height="12.050142" viewBox="0 0 18 12.050142">
<path fill-rule="nonzero" fill="rgb(100%, 100%, 100%)" fill-opacity="1" stroke-width="0.2" stroke-linecap="butt" stroke-linejoin="miter" stroke="rgb(0%, 0%, 0%)" stroke-opacity="1" stroke-miterlimit="4" d="M 0.0999583 0.099958 L 13.857858 0.099958 L 13.857858 9.24463 L 0.0999583 9.24463 Z M 0.0999583 0.099958 " transform="matrix(1.2896, 0, 0, 1.2896, 0, 0.000000411666)"/>
<path fill-rule="nonzero" fill="rgb(0%, 0%, 0%)" fill-opacity="1" d="M 8.828125 8.398438 L 7.886719 8.398438 L 7.886719 10.191406 L 6.285156 10.191406 L 6.285156 8.398438 L 2.996094 8.398438 L 2.996094 6.972656 L 6.046875 1.925781 L 7.886719 1.925781 L 7.886719 7.121094 L 8.828125 7.121094 Z M 6.285156 7.121094 L 6.285156 3.53125 L 4.203125 7.121094 Z M 11.25 6.109375 C 11.25 7.066406 11.332031 7.796875 11.488281 8.308594 C 11.644531 8.808594 11.96875 9.066406 12.449219 9.066406 C 12.9375 9.066406 13.257812 8.808594 13.40625 8.308594 C 13.558594 7.796875 13.632812 7.066406 13.632812 6.109375 C 13.632812 5.109375 13.558594 4.367188 13.40625 3.882812 C 13.257812 3.40625 12.9375 3.164062 12.449219 3.164062 C 11.96875 3.164062 11.644531 3.40625 11.488281 3.882812 C 11.332031 4.367188 11.25 5.109375 11.25 6.109375 Z M 12.449219 1.8125 C 13.507812 1.8125 14.253906 2.1875 14.675781 2.933594 C 15.105469 3.675781 15.316406 4.738281 15.316406 6.109375 C 15.316406 7.484375 15.105469 8.542969 14.675781 9.285156 C 14.253906 10.023438 13.507812 10.398438 12.449219 10.398438 C 11.394531 10.398438 10.648438 10.023438 10.222656 9.285156 C 9.796875 8.542969 9.585938 7.484375 9.585938 6.109375 C 9.585938 4.738281 9.796875 3.675781 10.222656 2.933594 C 10.648438 2.1875 11.394531 1.8125 12.449219 1.8125 Z M 2.683594 1.144531 "/>
</svg>
