<?xml version="1.0" encoding="UTF-8"?>
<svg xmlns="http://www.w3.org/2000/svg" xmlns:xlink="http://www.w3.org/1999/xlink" width="18" height="12.050143" viewBox="0 0 18 12.050143">
<path fill-rule="nonzero" fill="rgb(100%, 100%, 100%)" fill-opacity="1" stroke-width="0.2" stroke-linecap="butt" stroke-linejoin="miter" stroke="rgb(0%, 0%, 0%)" stroke-opacity="1" stroke-miterlimit="4" d="M 0.0999583 0.099958 L 13.857858 0.099958 L 13.857858 9.24463 L 0.0999583 9.24463 Z M 0.0999583 0.099958 " transform="matrix(1.2896, 0, 0, 1.2896, 0, 0.000000411666)"/>
<path fill-rule="nonzero" fill="rgb(0%, 0%, 0%)" fill-opacity="1" d="M 2.949219 10.054688 C 2.957031 9.472656 3.085938 8.929688 3.324219 8.445312 C 3.554688 7.894531 4.101562 7.316406 4.957031 6.707031 C 5.699219 6.167969 6.175781 5.792969 6.402344 5.558594 C 6.734375 5.199219 6.90625 4.8125 6.90625 4.382812 C 6.90625 4.035156 6.808594 3.746094 6.609375 3.515625 C 6.414062 3.28125 6.144531 3.171875 5.785156 3.171875 C 5.300781 3.171875 4.964844 3.355469 4.785156 3.71875 C 4.675781 3.933594 4.621094 4.269531 4.601562 4.726562 L 3.035156 4.726562 C 3.058594 4.03125 3.1875 3.46875 3.414062 3.03125 C 3.84375 2.210938 4.609375 1.800781 5.710938 1.800781 C 6.578125 1.800781 7.265625 2.050781 7.78125 2.53125 C 8.296875 3.007812 8.546875 3.648438 8.546875 4.433594 C 8.546875 5.050781 8.367188 5.589844 8.003906 6.054688 C 7.761719 6.367188 7.375 6.722656 6.835938 7.109375 L 6.191406 7.566406 C 5.78125 7.851562 5.515625 8.058594 5.363281 8.1875 C 5.210938 8.316406 5.082031 8.460938 4.980469 8.628906 L 8.566406 8.628906 L 8.566406 10.054688 Z M 11.042969 6.03125 C 11.042969 6.976562 11.117188 7.691406 11.277344 8.195312 C 11.429688 8.695312 11.746094 8.945312 12.226562 8.945312 C 12.703125 8.945312 13.019531 8.695312 13.167969 8.195312 C 13.316406 7.691406 13.390625 6.976562 13.390625 6.03125 C 13.390625 5.039062 13.316406 4.3125 13.167969 3.832031 C 13.019531 3.363281 12.703125 3.121094 12.226562 3.121094 C 11.746094 3.121094 11.429688 3.363281 11.277344 3.832031 C 11.117188 4.3125 11.042969 5.039062 11.042969 6.03125 Z M 12.226562 1.792969 C 13.265625 1.792969 14 2.160156 14.421875 2.890625 C 14.847656 3.628906 15.050781 4.671875 15.050781 6.03125 C 15.050781 7.386719 14.847656 8.429688 14.421875 9.160156 C 14 9.890625 13.265625 10.257812 12.226562 10.257812 C 11.179688 10.257812 10.441406 9.890625 10.027344 9.160156 C 9.605469 8.429688 9.390625 7.386719 9.390625 6.03125 C 9.390625 4.671875 9.605469 3.628906 10.027344 2.890625 C 10.441406 2.160156 11.179688 1.792969 12.226562 1.792969 Z M 12.226562 1.792969 "/>
</svg>
