<?xml version="1.0" encoding="UTF-8"?>
<svg xmlns="http://www.w3.org/2000/svg" xmlns:xlink="http://www.w3.org/1999/xlink" width="8" height="29.997929" viewBox="0 0 8 29.997929">
<path fill-rule="nonzero" fill="rgb(100%, 79.607843%, 0%)" fill-opacity="1" stroke-width="0.159112" stroke-linecap="butt" stroke-linejoin="miter" stroke="rgb(0%, 0%, 0%)" stroke-opacity="1" stroke-miterlimit="4" d="M 0.0826304 0.0826304 L 5.964145 0.0826304 L 5.964145 22.581713 L 0.0826304 22.581713 Z M 0.0826304 0.0826304 " transform="matrix(1.323665, 0, 0, 1.323665, 0, 0)"/>
<path fill-rule="nonzero" fill="rgb(0%, 0%, 0%)" fill-opacity="1" d="M 1.691406 3.785156 L 1.691406 2.628906 C 2.226562 2.601562 2.601562 2.5625 2.820312 2.519531 C 3.164062 2.445312 3.449219 2.285156 3.667969 2.058594 C 3.808594 1.910156 3.925781 1.699219 4 1.441406 C 4.035156 1.28125 4.066406 1.171875 4.066406 1.089844 L 5.480469 1.089844 L 5.480469 9.785156 L 3.734375 9.785156 L 3.734375 3.785156 Z M 1.03125 19.300781 C 1.039062 18.683594 1.179688 18.105469 1.429688 17.59375 C 1.675781 17.007812 2.25 16.398438 3.15625 15.753906 C 3.941406 15.183594 4.453125 14.789062 4.6875 14.539062 C 5.039062 14.152344 5.222656 13.742188 5.222656 13.292969 C 5.222656 12.921875 5.113281 12.621094 4.914062 12.378906 C 4.703125 12.128906 4.417969 12.011719 4.035156 12.011719 C 3.515625 12.011719 3.164062 12.203125 2.980469 12.589844 C 2.863281 12.8125 2.804688 13.175781 2.789062 13.660156 L 1.121094 13.660156 C 1.148438 12.921875 1.289062 12.328125 1.523438 11.867188 C 1.976562 11 2.789062 10.5625 3.949219 10.5625 C 4.871094 10.5625 5.597656 10.824219 6.144531 11.332031 C 6.695312 11.84375 6.957031 12.511719 6.957031 13.351562 C 6.957031 14.003906 6.769531 14.570312 6.386719 15.066406 C 6.125 15.402344 5.714844 15.777344 5.148438 16.179688 L 4.460938 16.664062 C 4.035156 16.964844 3.75 17.183594 3.582031 17.316406 C 3.421875 17.460938 3.289062 17.609375 3.179688 17.792969 L 6.980469 17.792969 L 6.980469 19.300781 Z M 2.753906 24.433594 C 2.753906 25.429688 2.828125 26.191406 2.996094 26.726562 C 3.164062 27.253906 3.5 27.519531 4 27.519531 C 4.511719 27.519531 4.847656 27.253906 4.996094 26.726562 C 5.164062 26.191406 5.238281 25.429688 5.238281 24.433594 C 5.238281 23.386719 5.164062 22.617188 4.996094 22.105469 C 4.847656 21.601562 4.511719 21.351562 4 21.351562 C 3.5 21.351562 3.164062 21.601562 2.996094 22.105469 C 2.828125 22.617188 2.753906 23.386719 2.753906 24.433594 Z M 4 19.945312 C 5.105469 19.945312 5.882812 20.332031 6.328125 21.109375 C 6.78125 21.886719 6.996094 23 6.996094 24.433594 C 6.996094 25.863281 6.78125 26.976562 6.328125 27.746094 C 5.882812 28.515625 5.105469 28.910156 4 28.910156 C 2.894531 28.910156 2.117188 28.515625 1.675781 27.746094 C 1.230469 26.976562 1.003906 25.863281 1.003906 24.433594 C 1.003906 23 1.230469 21.886719 1.675781 21.109375 C 2.117188 20.332031 2.894531 19.945312 4 19.945312 Z M 4 19.945312 "/>
</svg>
