<?xml version="1.0" encoding="UTF-8"?>
<svg xmlns="http://www.w3.org/2000/svg" xmlns:xlink="http://www.w3.org/1999/xlink" width="11" height="11" viewBox="0 0 11 11">
<path fill-rule="nonzero" fill="rgb(0%, 0%, 0%)" fill-opacity="1" stroke-width="0.6" stroke-linecap="square" stroke-linejoin="miter" stroke="rgb(0%, 0%, 0%)" stroke-opacity="1" stroke-miterlimit="5" d="M 0.30071 0.30071 L 11.299291 0.30071 L 11.299291 11.299291 L 0.30071 11.299291 Z M 0.30071 0.30071 L 0.30071 0.30071 M 0.30071 0.30071 " transform="matrix(0.948276, 0, 0, 0.948276, 0, 0)"/>
<path fill-rule="nonzero" fill="rgb(0%, 0%, 0%)" fill-opacity="1" stroke-width="1" stroke-linecap="square" stroke-linejoin="miter" stroke="rgb(100%, 100%, 100%)" stroke-opacity="1" stroke-miterlimit="5" d="M 9.425001 5.800001 C 9.425001 7.80199 7.80199 9.425001 5.800001 9.425001 C 3.798012 9.425001 2.175 7.80199 2.175 5.800001 C 2.175 3.798012 3.798012 2.175 5.800001 2.175 C 7.80199 2.175 9.425001 3.798012 9.425001 5.800001 Z M 9.425001 5.800001 L 9.425001 5.800001 M 9.425001 5.800001 " transform="matrix(0.948276, 0, 0, 0.948276, 0, 0)"/>
<path fill-rule="nonzero" fill="rgb(100%, 100%, 100%)" fill-opacity="1" d="M 7.632812 5.5 C 7.632812 6.679688 6.679688 7.632812 5.5 7.632812 C 4.320312 7.632812 3.367188 6.679688 3.367188 5.5 C 3.367188 4.320312 4.320312 3.367188 5.5 3.367188 C 6.679688 3.367188 7.632812 4.320312 7.632812 5.5 Z M 7.632812 5.5 "/>
</svg>
