<?xml version="1.0" encoding="UTF-8"?>
<svg xmlns="http://www.w3.org/2000/svg" xmlns:xlink="http://www.w3.org/1999/xlink" width="20" height="13.044824" viewBox="0 0 20 13.044824">
<path fill-rule="nonzero" fill="rgb(100%, 100%, 100%)" fill-opacity="1" d="M 3.507812 12.972656 L 0.0820312 6.484375 L 3.589844 0.0703125 L 16.410156 0.0703125 L 19.917969 6.558594 L 16.492188 12.972656 "/>
<path fill="none" stroke-width="3.64687" stroke-linecap="round" stroke-linejoin="miter" stroke="rgb(12.156863%, 10.196078%, 9.019608%)" stroke-opacity="1" stroke-miterlimit="10" d="M 2794.867378 -4742.487034 L 2881.651854 -4578.124944 L 3210.581842 -4578.124944 L 3297.366318 -4740.606913 L 3208.503764 -4904.969003 L 2883.729932 -4904.969003 Z M 2794.867378 -4742.487034 " transform="matrix(0.0394746, 0, 0, 0.0394755, -110.244201, 193.696583)"/>
<path fill-rule="nonzero" fill="rgb(96.078431%, 85.882353%, 0%)" fill-opacity="1" d="M 3.941406 12.449219 L 0.6875 6.558594 L 3.941406 0.679688 L 15.96875 0.679688 L 19.21875 6.558594 L 16.058594 12.449219 "/>
<path fill-rule="nonzero" fill="rgb(12.156863%, 10.196078%, 9.019608%)" fill-opacity="1" d="M 3.941406 0.753906 L 3.941406 0.601562 L 15.96875 0.601562 L 16.035156 0.640625 L 15.96875 0.753906 Z M 15.96875 0.601562 L 16.011719 0.601562 L 16.035156 0.640625 "/>
<path fill="none" stroke-width="2.47846" stroke-linecap="round" stroke-linejoin="miter" stroke="rgb(12.156863%, 10.196078%, 9.019608%)" stroke-opacity="1" stroke-miterlimit="10" d="M 3199.003862 -4890.521545 L 3197.321609 -4891.511082 L 2892.635871 -4891.511082 L 2892.635871 -4887.651888 L 3197.321609 -4887.651888 L 3199.003862 -4890.521545 L 3198.410126 -4891.511082 L 3197.321609 -4891.511082 Z M 3199.003862 -4890.521545 " transform="matrix(0.0394746, 0, 0, 0.0394755, -110.244201, 193.696583)"/>
<path fill-rule="nonzero" fill="rgb(12.156863%, 10.196078%, 9.019608%)" fill-opacity="1" d="M 19.289062 6.523438 L 19.3125 6.558594 L 19.289062 6.597656 Z M 19.152344 6.597656 L 15.898438 0.714844 L 16.035156 0.640625 L 19.289062 6.523438 L 19.289062 6.597656 "/>
<path fill="none" stroke-width="2.47846" stroke-linecap="round" stroke-linejoin="miter" stroke="rgb(12.156863%, 10.196078%, 9.019608%)" stroke-opacity="1" stroke-miterlimit="10" d="M 3281.434268 -4739.617165 L 3281.434268 -4741.497285 L 3199.003862 -4890.521545 L 3195.5404 -4888.641425 L 3277.970806 -4739.617165 L 3281.434268 -4739.617165 L 3282.028005 -4740.606702 L 3281.434268 -4741.497285 Z M 3281.434268 -4739.617165 " transform="matrix(0.0394746, 0, 0, 0.0394755, -110.244201, 193.696583)"/>
<path fill-rule="nonzero" fill="rgb(12.156863%, 10.196078%, 9.019608%)" fill-opacity="1" d="M 16.058594 12.53125 L 16.128906 12.484375 L 16.105469 12.53125 Z M 15.992188 12.417969 L 19.152344 6.53125 L 19.289062 6.597656 L 16.128906 12.484375 L 16.058594 12.53125 "/>
<path fill="none" stroke-width="2.47846" stroke-linecap="round" stroke-linejoin="miter" stroke="rgb(12.156863%, 10.196078%, 9.019608%)" stroke-opacity="1" stroke-miterlimit="10" d="M 3199.597599 -4589.306507 L 3201.378808 -4590.493951 L 3281.434268 -4739.617165 L 3277.970806 -4741.299377 L 3197.915346 -4592.176164 L 3199.597599 -4589.306507 L 3200.785072 -4589.306507 L 3201.378808 -4590.493951 Z M 3199.597599 -4589.306507 " transform="matrix(0.0394746, 0, 0, 0.0394755, -110.244201, 193.696583)"/>
<path fill-rule="nonzero" fill="rgb(12.156863%, 10.196078%, 9.019608%)" fill-opacity="1" d="M 3.941406 12.53125 L 3.871094 12.484375 L 3.941406 12.371094 L 16.058594 12.371094 L 16.058594 12.53125 Z M 3.894531 12.53125 L 3.871094 12.484375 L 3.941406 12.53125 "/>
<path fill="none" stroke-width="2.47846" stroke-linecap="round" stroke-linejoin="miter" stroke="rgb(12.156863%, 10.196078%, 9.019608%)" stroke-opacity="1" stroke-miterlimit="10" d="M 2890.854662 -4590.493951 L 2892.635871 -4589.306507 L 3199.597599 -4589.306507 L 3199.597599 -4593.363608 L 2892.635871 -4593.363608 L 2890.854662 -4590.493951 L 2891.448398 -4589.306507 L 2892.635871 -4589.306507 Z M 2890.854662 -4590.493951 " transform="matrix(0.0394746, 0, 0, 0.0394755, -110.244201, 193.696583)"/>
<path fill-rule="nonzero" fill="rgb(12.156863%, 10.196078%, 9.019608%)" fill-opacity="1" d="M 0.621094 6.597656 L 0.621094 6.519531 L 0.757812 6.519531 L 4.007812 12.417969 L 3.871094 12.484375 Z M 0.605469 6.558594 L 0.621094 6.519531 L 0.621094 6.597656 "/>
<path fill="none" stroke-width="2.47846" stroke-linecap="round" stroke-linejoin="miter" stroke="rgb(12.156863%, 10.196078%, 9.019608%)" stroke-opacity="1" stroke-miterlimit="10" d="M 2808.523212 -4741.497285 L 2808.523212 -4739.617165 L 2890.854662 -4590.493951 L 2894.318124 -4592.176164 L 2811.986674 -4741.497285 L 2808.523212 -4741.497285 L 2808.127387 -4740.606702 L 2808.523212 -4739.617165 Z M 2808.523212 -4741.497285 " transform="matrix(0.0394746, 0, 0, 0.0394755, -110.244201, 193.696583)"/>
<path fill-rule="nonzero" fill="rgb(12.156863%, 10.196078%, 9.019608%)" fill-opacity="1" d="M 0.621094 6.519531 L 3.871094 0.640625 L 3.941406 0.601562 L 4.007812 0.714844 L 0.757812 6.597656 Z M 3.894531 0.601562 L 3.941406 0.601562 L 3.871094 0.640625 "/>
<path fill="none" stroke-width="2.47846" stroke-linecap="round" stroke-linejoin="miter" stroke="rgb(12.156863%, 10.196078%, 9.019608%)" stroke-opacity="1" stroke-miterlimit="10" d="M 2892.635871 -4891.511082 L 2890.854662 -4890.521545 L 2808.523212 -4741.497285 L 2811.986674 -4739.617165 L 2894.318124 -4888.641425 L 2892.635871 -4891.511082 L 2891.448398 -4891.511082 L 2890.854662 -4890.521545 Z M 2892.635871 -4891.511082 " transform="matrix(0.0394746, 0, 0, 0.0394755, -110.244201, 193.696583)"/>
<path fill-rule="nonzero" fill="rgb(12.156863%, 10.196078%, 9.019608%)" fill-opacity="1" d="M 3.847656 12.363281 L 3.152344 11.21875 L 8.25 6.484375 L 3.242188 1.824219 L 3.847656 0.59375 L 5.695312 0.675781 L 10.003906 4.804688 L 14.039062 0.59375 L 15.96875 0.59375 L 16.582031 1.824219 L 11.667969 6.484375 L 16.675781 11.21875 L 15.96875 12.363281 L 14.128906 12.363281 L 10.003906 8.238281 L 5.785156 12.445312 "/>
</svg>
