<?xml version="1.0" encoding="UTF-8"?>
<svg xmlns="http://www.w3.org/2000/svg" xmlns:xlink="http://www.w3.org/1999/xlink" width="16" height="24.241883" viewBox="0 0 16 24.241883">
<path fill-rule="nonzero" fill="rgb(19.607843%, 29.019608%, 59.215686%)" fill-opacity="1" d="M 0.0390625 24.21875 L 15.960938 24.21875 L 15.960938 0.0585938 L 0.0390625 0.0585938 Z M 0.0390625 24.21875 "/>
<path fill="none" stroke-width="0.14" stroke-linecap="butt" stroke-linejoin="miter" stroke="rgb(19.607843%, 29.019608%, 59.215686%)" stroke-opacity="1" stroke-miterlimit="10" d="M -0.0014864 -0.00280952 L 27.925482 -0.00280952 L 27.925482 41.886288 L -0.0014864 41.886288 Z M -0.0014864 -0.00280952 " transform="matrix(0.570125, 0, 0, -0.576858, 0.0399099, 24.201504)"/>
<path fill-rule="nonzero" fill="rgb(100%, 100%, 100%)" fill-opacity="1" d="M 6.011719 14.882812 L 9.988281 14.882812 L 9.988281 9.394531 L 6.011719 9.394531 Z M 6.011719 14.882812 "/>
<path fill="none" stroke-width="0.14" stroke-linecap="butt" stroke-linejoin="miter" stroke="rgb(100%, 100%, 100%)" stroke-opacity="1" stroke-miterlimit="10" d="M -0.00329192 0.00033764 L 6.97845 0.00033764 L 6.97845 9.521203 L -0.00329192 9.521203 Z M -0.00329192 0.00033764 " transform="matrix(0.570125, 0, 0, -0.576858, 6.009689, 14.867382)"/>
<path fill-rule="nonzero" fill="rgb(100%, 100%, 100%)" fill-opacity="1" d="M 6.011719 8.019531 L 9.988281 8.019531 L 9.988281 1.433594 L 6.011719 1.433594 Z M 6.011719 8.019531 "/>
<path fill="none" stroke-width="0.14" stroke-linecap="butt" stroke-linejoin="miter" stroke="rgb(100%, 100%, 100%)" stroke-opacity="1" stroke-miterlimit="10" d="M -0.00329192 -0.00296773 L 6.97845 -0.00296773 L 6.97845 11.420716 L -0.00329192 11.420716 Z M -0.00329192 -0.00296773 " transform="matrix(0.570125, 0, 0, -0.576858, 6.009689, 8.002194)"/>
<path fill-rule="nonzero" fill="rgb(100%, 100%, 100%)" fill-opacity="1" d="M 6.011719 22.84375 L 9.988281 22.84375 L 9.988281 16.257812 L 6.011719 16.257812 Z M 6.011719 22.84375 "/>
<path fill="none" stroke-width="0.14" stroke-linecap="butt" stroke-linejoin="miter" stroke="rgb(100%, 100%, 100%)" stroke-opacity="1" stroke-miterlimit="10" d="M -0.00329192 0.00078768 L 6.97845 0.00078768 L 6.97845 11.4177 L -0.00329192 11.4177 Z M -0.00329192 0.00078768 " transform="matrix(0.570125, 0, 0, -0.576858, 6.009689, 22.828579)"/>
<path fill-rule="evenodd" fill="rgb(100%, 100%, 100%)" fill-opacity="1" d="M 4.019531 8.019531 L 8 5.277344 L 11.980469 8.019531 "/>
<path fill="none" stroke-width="0.14" stroke-linecap="butt" stroke-linejoin="miter" stroke="rgb(100%, 100%, 100%)" stroke-opacity="1" stroke-miterlimit="10" d="M -0.000548642 0.0000229958 L 6.981194 4.753684 L 13.962936 0.0000229958 Z M -0.000548642 0.0000229958 " transform="matrix(0.570125, 0, 0, -0.576858, 4.019844, 8.00392)"/>
<path fill-rule="evenodd" fill="rgb(100%, 100%, 100%)" fill-opacity="1" d="M 11.980469 16.257812 L 8 19.003906 L 4.019531 16.257812 "/>
<path fill="none" stroke-width="0.14" stroke-linecap="butt" stroke-linejoin="miter" stroke="rgb(100%, 100%, 100%)" stroke-opacity="1" stroke-miterlimit="10" d="M 0.00193724 0.000707728 L -6.979805 -4.759725 L -13.961547 0.000707728 Z M 0.00193724 0.000707728 " transform="matrix(0.570125, 0, 0, -0.576858, 11.979364, 16.242596)"/>
</svg>
