<?xml version="1.0" encoding="UTF-8"?>
<svg xmlns="http://www.w3.org/2000/svg" xmlns:xlink="http://www.w3.org/1999/xlink" width="16" height="15.995985" viewBox="0 0 16 15.995985">
<path fill-rule="evenodd" fill="rgb(19.607843%, 29.019608%, 59.215686%)" fill-opacity="1" d="M 8 0.0195312 C 12.40625 0.0195312 15.976562 3.589844 15.976562 7.992188 C 15.976562 12.398438 12.40625 15.96875 8 15.96875 C 3.59375 15.96875 0.0234375 12.398438 0.0234375 7.992188 C 0.0234375 3.589844 3.59375 0.0195312 8 0.0195312 "/>
<path fill="none" stroke-width="0.068" stroke-linecap="butt" stroke-linejoin="miter" stroke="rgb(100%, 100%, 100%)" stroke-opacity="1" stroke-miterlimit="10" d="M -0.0000103092 -0.000776864 C 6.53556 -0.000776864 11.831226 -5.298219 11.831226 -11.830185 C 11.831226 -18.367947 6.53556 -23.665389 -0.0000103092 -23.665389 C -6.535581 -23.665389 -11.831247 -18.367947 -11.831247 -11.830185 C -11.831247 -5.298219 -6.535581 -0.000776864 -0.0000103092 -0.000776864 Z M -0.0000103092 -0.000776864 " transform="matrix(0.674195, 0, 0, -0.673969, 8.000007, 0.0229139)"/>
<path fill-rule="evenodd" fill="rgb(100%, 100%, 100%)" fill-opacity="1" d="M 8 1.15625 C 11.777344 1.15625 14.839844 4.21875 14.839844 7.992188 C 14.839844 11.769531 11.777344 14.828125 8 14.828125 C 4.222656 14.828125 1.164062 11.769531 1.164062 7.992188 C 1.164062 4.21875 4.222656 1.15625 8 1.15625 "/>
<path fill="none" stroke-width="0.068" stroke-linecap="butt" stroke-linejoin="miter" stroke="rgb(100%, 100%, 100%)" stroke-opacity="1" stroke-miterlimit="10" d="M -0.0000103092 -0.00216675 C 5.602735 -0.00216675 10.145188 -4.540347 10.145188 -10.139176 C 10.145188 -15.7438 5.602735 -20.28198 -0.0000103092 -20.28198 C -5.602756 -20.28198 -10.139415 -15.7438 -10.139415 -10.139176 C -10.139415 -4.540347 -5.602756 -0.00216675 -0.0000103092 -0.00216675 Z M -0.0000103092 -0.00216675 " transform="matrix(0.674195, 0, 0, -0.673969, 8.000007, 1.162602)"/>
<path fill-rule="evenodd" fill="rgb(19.607843%, 29.019608%, 59.215686%)" fill-opacity="1" d="M 8.023438 3.4375 L 14.011719 3.4375 L 15.207031 6.171875 L 8.023438 6.171875 "/>
<path fill="none" stroke-width="0.068" stroke-linecap="butt" stroke-linejoin="miter" stroke="rgb(19.607843%, 29.019608%, 59.215686%)" stroke-opacity="1" stroke-miterlimit="10" d="M -0.000250299 -0.000188225 L 8.881868 -0.000188225 L 10.654815 -4.05731 L -0.000250299 -4.05731 Z M -0.000250299 -0.000188225 " transform="matrix(0.674195, 0, 0, -0.673969, 8.023606, 3.441279)"/>
<path fill-rule="evenodd" fill="rgb(19.607843%, 29.019608%, 59.215686%)" fill-opacity="1" d="M 7.980469 12.550781 L 1.992188 12.550781 L 0.796875 9.816406 L 7.980469 9.816406 "/>
<path fill="none" stroke-width="0.068" stroke-linecap="butt" stroke-linejoin="miter" stroke="rgb(19.607843%, 29.019608%, 59.215686%)" stroke-opacity="1" stroke-miterlimit="10" d="M 0.00191901 0.0000989211 L -8.880199 0.0000989211 L -10.653147 4.057221 L 0.00191901 4.057221 Z M 0.00191901 0.0000989211 " transform="matrix(0.674195, 0, 0, -0.673969, 7.979175, 12.554754)"/>
</svg>
