<?xml version="1.0" encoding="UTF-8"?>
<svg xmlns="http://www.w3.org/2000/svg" xmlns:xlink="http://www.w3.org/1999/xlink" width="26" height="26" viewBox="0 0 26 26">
<path fill-rule="nonzero" fill="rgb(100%, 100%, 100%)" fill-opacity="1" stroke-width="0.219187" stroke-linecap="butt" stroke-linejoin="miter" stroke="rgb(0%, 0%, 0%)" stroke-opacity="1" stroke-miterlimit="4" d="M 0.995192 0.111779 L 23.004797 0.111779 C 23.495181 0.111779 23.88821 0.504807 23.88821 0.995192 L 23.88821 23.004797 C 23.88821 23.495181 23.495181 23.88821 23.004797 23.88821 L 0.995192 23.88821 C 0.504807 23.88821 0.111779 23.495181 0.111779 23.004797 L 0.111779 0.995192 C 0.111779 0.504807 0.504807 0.111779 0.995192 0.111779 Z M 0.995192 0.111779 " transform="matrix(1.083334, 0, 0, 1.083334, 0, 0)"/>
<path fill="none" stroke-width="1.753496" stroke-linecap="butt" stroke-linejoin="miter" stroke="rgb(0%, 0%, 0%)" stroke-opacity="1" stroke-miterlimit="4" d="M 22.272826 11.999994 C 22.272826 17.671867 17.671867 22.276432 11.999994 22.276432 C 6.328122 22.276432 1.727163 17.671867 1.727163 11.999994 C 1.727163 6.328122 6.328122 1.723557 11.999994 1.723557 C 17.671867 1.723557 22.272826 6.328122 22.272826 11.999994 Z M 22.272826 11.999994 " transform="matrix(1.083334, 0, 0, 1.083334, 0, 0)"/>
</svg>
