<?xml version="1.0" encoding="UTF-8"?>
<svg xmlns="http://www.w3.org/2000/svg" xmlns:xlink="http://www.w3.org/1999/xlink" width="26" height="26" viewBox="0 0 26 26">
<path fill-rule="nonzero" fill="rgb(100%, 100%, 100%)" fill-opacity="1" stroke-width="0.310515" stroke-linecap="butt" stroke-linejoin="miter" stroke="rgb(0%, 0%, 0%)" stroke-opacity="1" stroke-miterlimit="4" d="M 1.404748 0.153245 L 32.595268 0.153245 C 33.284872 0.153245 33.846771 0.715145 33.846771 1.404748 L 33.846771 32.595268 C 33.846771 33.284872 33.284872 33.846771 32.595268 33.846771 L 1.404748 33.846771 C 0.715145 33.846771 0.153245 33.284872 0.153245 32.595268 L 0.153245 1.404748 C 0.153245 0.715145 0.715145 0.153245 1.404748 0.153245 Z M 1.404748 0.153245 " transform="matrix(0.764706, 0, 0, 0.764706, 0, 0)"/>
<path fill="none" stroke-width="2.484119" stroke-linecap="butt" stroke-linejoin="miter" stroke="rgb(0%, 0%, 0%)" stroke-opacity="1" stroke-miterlimit="4" d="M 31.548092 17.000008 C 31.548092 25.035168 25.035168 31.548092 17.000008 31.548092 C 8.964848 31.548092 2.451924 25.035168 2.451924 17.000008 C 2.451924 8.964848 8.964848 2.451924 17.000008 2.451924 C 25.035168 2.451924 31.548092 8.964848 31.548092 17.000008 Z M 31.548092 17.000008 " transform="matrix(0.764706, 0, 0, 0.764706, 0, 0)"/>
</svg>
