<?xml version="1.0" encoding="UTF-8"?>
<svg xmlns="http://www.w3.org/2000/svg" xmlns:xlink="http://www.w3.org/1999/xlink" width="34" height="34" viewBox="0 0 34 34">
<path fill-rule="nonzero" fill="rgb(100%, 100%, 100%)" fill-opacity="1" stroke-width="0.401843" stroke-linecap="butt" stroke-linejoin="miter" stroke="rgb(0%, 0%, 0%)" stroke-opacity="1" stroke-miterlimit="4" d="M 1.819853 0.202206 L 42.180147 0.202206 C 43.074908 0.202206 43.797794 0.925092 43.797794 1.819853 L 43.797794 42.180147 C 43.797794 43.074908 43.074908 43.797794 42.180147 43.797794 L 1.819853 43.797794 C 0.925092 43.797794 0.202206 43.074908 0.202206 42.180147 L 0.202206 1.819853 C 0.202206 0.925092 0.925092 0.202206 1.819853 0.202206 Z M 1.819853 0.202206 " transform="matrix(0.772727, 0, 0, 0.772727, 0, 0)"/>
<path fill="none" stroke-width="3.214743" stroke-linecap="butt" stroke-linejoin="miter" stroke="rgb(0%, 0%, 0%)" stroke-opacity="1" stroke-miterlimit="4" d="M 40.825368 22 C 40.830423 32.398438 32.398438 40.830423 22 40.830423 C 11.601562 40.830423 3.169577 32.398438 3.174632 22 C 3.169577 11.601562 11.601562 3.169577 22 3.169577 C 32.398438 3.169577 40.830423 11.601562 40.825368 22 Z M 40.825368 22 " transform="matrix(0.772727, 0, 0, 0.772727, 0, 0)"/>
</svg>
