<?xml version="1.0" encoding="UTF-8"?>
<svg xmlns="http://www.w3.org/2000/svg" xmlns:xlink="http://www.w3.org/1999/xlink" width="14" height="14" viewBox="0 0 14 14">
<path fill-rule="nonzero" fill="rgb(100%, 100%, 100%)" fill-opacity="1" stroke-width="0.182656" stroke-linecap="butt" stroke-linejoin="miter" stroke="rgb(0%, 0%, 0%)" stroke-opacity="1" stroke-miterlimit="4" d="M 0.825893 0.0892857 L 19.174107 0.0892857 C 19.581473 0.0892857 19.910714 0.418527 19.910714 0.825893 L 19.910714 19.174107 C 19.910714 19.581473 19.581473 19.910714 19.174107 19.910714 L 0.825893 19.910714 C 0.418527 19.910714 0.0892857 19.581473 0.0892857 19.174107 L 0.0892857 0.825893 C 0.0892857 0.418527 0.418527 0.0892857 0.825893 0.0892857 Z M 0.825893 0.0892857 " transform="matrix(0.7, 0, 0, 0.7, 0, 0)"/>
<path fill="none" stroke-width="1.461247" stroke-linecap="butt" stroke-linejoin="miter" stroke="rgb(0%, 0%, 0%)" stroke-opacity="1" stroke-miterlimit="4" d="M 18.560268 10 C 18.560268 14.726562 14.726562 18.560268 10 18.560268 C 5.273438 18.560268 1.439732 14.726562 1.439732 10 C 1.439732 5.273438 5.273438 1.439732 10 1.439732 C 14.726562 1.439732 18.560268 5.273438 18.560268 10 Z M 18.560268 10 " transform="matrix(0.7, 0, 0, 0.7, 0, 0)"/>
</svg>
