<?xml version="1.0" encoding="UTF-8"?>
<svg xmlns="http://www.w3.org/2000/svg" xmlns:xlink="http://www.w3.org/1999/xlink" width="26" height="26" viewBox="0 0 26 26">
<path fill-rule="nonzero" fill="rgb(100%, 100%, 100%)" fill-opacity="1" stroke-width="0.219187" stroke-linecap="butt" stroke-linejoin="miter" stroke="rgb(0%, 0%, 0%)" stroke-opacity="1" stroke-miterlimit="4" d="M 0.991587 0.108173 L 23.008413 0.108173 C 23.495192 0.108173 23.891827 0.504808 23.891827 0.991587 L 23.891827 23.008413 C 23.891827 23.495192 23.495192 23.891827 23.008413 23.891827 L 0.991587 23.891827 C 0.504808 23.891827 0.108173 23.495192 0.108173 23.008413 L 0.108173 0.991587 C 0.108173 0.504808 0.504808 0.108173 0.991587 0.108173 Z M 0.991587 0.108173 " transform="matrix(1.083333, 0, 0, 1.083333, 0, 0)"/>
<path fill="none" stroke-width="1.753496" stroke-linecap="butt" stroke-linejoin="miter" stroke="rgb(0%, 0%, 0%)" stroke-opacity="1" stroke-miterlimit="4" d="M 22.269231 12 C 22.272837 17.671875 17.671875 22.272837 12 22.272837 C 6.328125 22.272837 1.727163 17.671875 1.730769 12 C 1.727163 6.328125 6.328125 1.727163 12 1.727163 C 17.671875 1.727163 22.272837 6.328125 22.269231 12 Z M 22.269231 12 " transform="matrix(1.083333, 0, 0, 1.083333, 0, 0)"/>
</svg>
