<?xml version="1.0" encoding="UTF-8"?>
<svg xmlns="http://www.w3.org/2000/svg" xmlns:xlink="http://www.w3.org/1999/xlink" width="36" height="36" viewBox="0 0 36 36">
<path fill-rule="nonzero" fill="rgb(100%, 100%, 100%)" fill-opacity="1" stroke-width="0.401843" stroke-linecap="butt" stroke-linejoin="miter" stroke="rgb(0%, 0%, 0%)" stroke-opacity="1" stroke-miterlimit="4" d="M 1.819011 0.200521 L 42.181004 0.200521 C 43.073799 0.200521 43.799494 0.926216 43.799494 1.819011 L 43.799494 42.181004 C 43.799494 43.073799 43.073799 43.799494 42.181004 43.799494 L 1.819011 43.799494 C 0.926216 43.799494 0.200521 43.073799 0.200521 42.181004 L 0.200521 1.819011 C 0.200521 0.926216 0.926216 0.200521 1.819011 0.200521 Z M 1.819011 0.200521 " transform="matrix(0.818182, 0, 0, 0.818182, 0, 0)"/>
<path fill="none" stroke-width="3.214743" stroke-linecap="butt" stroke-linejoin="miter" stroke="rgb(0%, 0%, 0%)" stroke-opacity="1" stroke-miterlimit="4" d="M 40.825101 22.000007 C 40.829875 32.398448 32.398448 40.829875 22.000007 40.829875 C 11.601566 40.829875 3.17014 32.398448 3.174914 22.000007 C 3.17014 11.601566 11.601566 3.17014 22.000007 3.17014 C 32.398448 3.17014 40.829875 11.601566 40.825101 22.000007 Z M 40.825101 22.000007 " transform="matrix(0.818182, 0, 0, 0.818182, 0, 0)"/>
</svg>
