<?xml version="1.0" encoding="UTF-8"?>
<svg xmlns="http://www.w3.org/2000/svg" xmlns:xlink="http://www.w3.org/1999/xlink" width="34" height="34" viewBox="0 0 34 34">
<path fill-rule="nonzero" fill="rgb(100%, 100%, 100%)" fill-opacity="1" stroke-width="0.310515" stroke-linecap="butt" stroke-linejoin="miter" stroke="rgb(0%, 0%, 0%)" stroke-opacity="1" stroke-miterlimit="4" d="M 1.40625 0.15625 L 32.59375 0.15625 C 33.285156 0.15625 33.84375 0.714844 33.84375 1.40625 L 33.84375 32.59375 C 33.84375 33.285156 33.285156 33.84375 32.59375 33.84375 L 1.40625 33.84375 C 0.714844 33.84375 0.15625 33.285156 0.15625 32.59375 L 0.15625 1.40625 C 0.15625 0.714844 0.714844 0.15625 1.40625 0.15625 Z M 1.40625 0.15625 "/>
<path fill="none" stroke-width="2.484119" stroke-linecap="butt" stroke-linejoin="miter" stroke="rgb(0%, 0%, 0%)" stroke-opacity="1" stroke-miterlimit="4" d="M 31.546875 17 C 31.550781 25.035156 25.035156 31.550781 17 31.550781 C 8.964844 31.550781 2.449219 25.035156 2.453125 17 C 2.449219 8.964844 8.964844 2.449219 17 2.449219 C 25.035156 2.449219 31.550781 8.964844 31.546875 17 Z M 31.546875 17 "/>
</svg>
