<?xml version="1.0" encoding="UTF-8"?>
<svg xmlns="http://www.w3.org/2000/svg" xmlns:xlink="http://www.w3.org/1999/xlink" width="13" height="13" viewBox="0 0 13 13">
<path fill-rule="nonzero" fill="rgb(100%, 100%, 100%)" fill-opacity="1" stroke-width="0.0688373" stroke-linecap="butt" stroke-linejoin="round" stroke="rgb(0%, 0%, 0%)" stroke-opacity="1" stroke-miterlimit="4" d="M 0.0733805 0.0382406 L 3.372404 0.0382406 C 3.392041 0.0382406 3.408577 0.0537435 3.408577 0.0733805 L 3.408577 3.372404 C 3.408577 3.392041 3.392041 3.408577 3.372404 3.408577 L 0.0733805 3.408577 C 0.0537435 3.408577 0.0382406 3.392041 0.0382406 3.372404 L 0.0382406 0.0733805 C 0.0382406 0.0537435 0.0537435 0.0382406 0.0733805 0.0382406 Z M 0.0733805 0.0382406 " transform="matrix(3.779528, 0, 0, 3.779528, 0, 0)"/>
<path fill-rule="nonzero" fill="rgb(0%, 0%, 0%)" fill-opacity="1" d="M 3.578125 3.449219 C 4.347656 3.449219 4.929688 3.566406 5.320312 3.792969 C 5.714844 4.019531 5.914062 4.410156 5.914062 4.976562 C 5.914062 5.335938 5.8125 5.636719 5.613281 5.878906 C 5.410156 6.113281 5.121094 6.265625 4.742188 6.335938 L 4.742188 6.378906 C 5 6.417969 5.234375 6.496094 5.441406 6.601562 C 5.652344 6.710938 5.820312 6.867188 5.941406 7.070312 C 6.0625 7.269531 6.121094 7.53125 6.121094 7.851562 C 6.121094 8.410156 5.929688 8.839844 5.542969 9.144531 C 5.164062 9.449219 4.644531 9.601562 3.984375 9.601562 L 1.820312 9.601562 L 1.820312 3.449219 Z M 3.734375 6.070312 C 4.261719 6.070312 4.625 5.984375 4.820312 5.820312 C 5.015625 5.648438 5.113281 5.394531 5.113281 5.0625 C 5.113281 4.722656 4.992188 4.480469 4.75 4.335938 C 4.515625 4.1875 4.136719 4.113281 3.613281 4.113281 L 2.597656 4.113281 L 2.597656 6.070312 Z M 2.597656 6.714844 L 2.597656 8.945312 L 3.835938 8.945312 C 4.382812 8.945312 4.761719 8.839844 4.976562 8.628906 C 5.1875 8.414062 5.292969 8.136719 5.292969 7.792969 C 5.292969 7.472656 5.183594 7.210938 4.957031 7.015625 C 4.738281 6.816406 4.347656 6.714844 3.777344 6.714844 Z M 11.179688 4.984375 L 11.179688 9.601562 L 10.558594 9.601562 L 10.445312 8.988281 L 10.410156 8.988281 C 10.261719 9.230469 10.054688 9.410156 9.792969 9.523438 C 9.527344 9.632812 9.246094 9.6875 8.945312 9.6875 C 8.390625 9.6875 7.96875 9.554688 7.6875 9.292969 C 7.40625 9.023438 7.265625 8.59375 7.265625 8.007812 L 7.265625 4.984375 L 8.035156 4.984375 L 8.035156 7.957031 C 8.035156 8.691406 8.375 9.058594 9.058594 9.058594 C 9.570312 9.058594 9.921875 8.914062 10.117188 8.628906 C 10.320312 8.339844 10.421875 7.925781 10.421875 7.386719 L 10.421875 4.984375 Z M 8.042969 3.734375 C 8.042969 3.585938 8.082031 3.480469 8.164062 3.414062 C 8.242188 3.347656 8.339844 3.3125 8.445312 3.3125 C 8.554688 3.3125 8.652344 3.347656 8.730469 3.414062 C 8.8125 3.480469 8.851562 3.585938 8.851562 3.734375 C 8.851562 3.878906 8.8125 3.988281 8.730469 4.0625 C 8.652344 4.128906 8.554688 4.164062 8.445312 4.164062 C 8.339844 4.164062 8.242188 4.128906 8.164062 4.0625 C 8.082031 3.988281 8.042969 3.878906 8.042969 3.734375 Z M 9.660156 3.734375 C 9.660156 3.585938 9.699219 3.480469 9.773438 3.414062 C 9.855469 3.347656 9.949219 3.3125 10.058594 3.3125 C 10.167969 3.3125 10.261719 3.347656 10.34375 3.414062 C 10.421875 3.480469 10.464844 3.585938 10.464844 3.734375 C 10.464844 3.878906 10.421875 3.988281 10.34375 4.0625 C 10.261719 4.128906 10.167969 4.164062 10.058594 4.164062 C 9.949219 4.164062 9.855469 4.128906 9.773438 4.0625 C 9.699219 3.988281 9.660156 3.878906 9.660156 3.734375 Z M 9.660156 3.734375 "/>
</svg>
