<?xml version="1.0" encoding="UTF-8"?>
<svg xmlns="http://www.w3.org/2000/svg" xmlns:xlink="http://www.w3.org/1999/xlink" width="7.114175" height="16" viewBox="0 0 7.114175 16">
<path fill-rule="nonzero" fill="rgb(38.431373%, 38.431373%, 38.431373%)" fill-opacity="1" d="M 2.980469 13.71875 L 4.136719 13.71875 L 4.136719 16 L 2.980469 16 Z M 2.980469 13.71875 "/>
<path fill-rule="nonzero" fill="rgb(0%, 0%, 0%)" fill-opacity="1" d="M 0.359375 -0.0234375 L 6.765625 -0.0234375 L 6.765625 14.382812 L 0.359375 14.382812 Z M 0.359375 -0.0234375 "/>
<path fill-rule="nonzero" fill="rgb(100%, 70.980394%, 0%)" fill-opacity="1" d="M 5.015625 10.902344 C 5.011719 11.703125 4.363281 12.351562 3.5625 12.351562 C 2.761719 12.351562 2.113281 11.703125 2.113281 10.902344 C 2.109375 10.097656 2.761719 9.449219 3.5625 9.449219 C 4.363281 9.449219 5.015625 10.097656 5.015625 10.902344 Z M 5.015625 10.902344 "/>
<path fill="none" stroke-width="13.507025" stroke-linecap="butt" stroke-linejoin="miter" stroke="rgb(100%, 70.980394%, 0%)" stroke-opacity="1" stroke-miterlimit="4" d="M 45.379435 26.545486 L 225.117588 26.545486 L 225.117588 505.402332 L 45.379435 505.847229 Z M 45.379435 26.545486 " transform="matrix(0.0263404, 0, 0, 0.0263404, 0, 0)"/>
</svg>
