<?xml version="1.0" encoding="UTF-8"?>
<svg xmlns="http://www.w3.org/2000/svg" xmlns:xlink="http://www.w3.org/1999/xlink" width="6.798189" height="15" viewBox="0 0 6.798189 15">
<path fill-rule="nonzero" fill="rgb(38.431373%, 38.431373%, 38.431373%)" fill-opacity="1" d="M 2.855469 12.859375 L 3.941406 12.859375 L 3.941406 15 L 2.855469 15 Z M 2.855469 12.859375 "/>
<path fill-rule="nonzero" fill="rgb(0%, 0%, 0%)" fill-opacity="1" d="M 0 0.828125 L 0.855469 0 L 6.105469 0 L 6.796875 0.710938 L 6.796875 13.515625 L 0 13.515625 Z M 0 0.828125 "/>
<path fill-rule="nonzero" fill="rgb(100%, 70.980394%, 0%)" fill-opacity="1" d="M 6.601562 11.40625 C 6.601562 12.042969 6.082031 12.558594 5.449219 12.558594 C 4.8125 12.558594 4.292969 12.042969 4.292969 11.40625 C 4.292969 10.769531 4.8125 10.253906 5.449219 10.253906 C 6.082031 10.253906 6.601562 10.769531 6.601562 11.40625 Z M 6.601562 11.40625 "/>
<path fill-rule="nonzero" fill="rgb(100%, 70.980394%, 0%)" fill-opacity="1" d="M 2.503906 11.40625 C 2.503906 12.042969 1.988281 12.558594 1.351562 12.558594 C 0.714844 12.558594 0.199219 12.042969 0.199219 11.40625 C 0.199219 10.769531 0.714844 10.253906 1.351562 10.253906 C 1.988281 10.253906 2.503906 10.769531 2.503906 11.40625 Z M 2.503906 11.40625 "/>
</svg>
