<?xml version="1.0" encoding="UTF-8"?>
<svg xmlns="http://www.w3.org/2000/svg" xmlns:xlink="http://www.w3.org/1999/xlink" width="6.798189" height="15" viewBox="0 0 6.798189 15">
<path fill-rule="nonzero" fill="rgb(38.431373%, 38.431373%, 38.431373%)" fill-opacity="1" d="M 2.855469 9.902344 L 3.941406 9.902344 L 3.941406 15 L 2.855469 15 Z M 2.855469 9.902344 "/>
<path fill-rule="nonzero" fill="rgb(0%, 0%, 0%)" fill-opacity="1" d="M 0 0.828125 L 0.855469 0 L 6.105469 0 L 6.796875 0.710938 L 6.796875 10.117188 L 0 10.117188 Z M 0 0.828125 "/>
<path fill-rule="nonzero" fill="rgb(100%, 70.980394%, 0%)" fill-opacity="1" d="M 6.601562 8.070312 C 6.601562 8.707031 6.082031 9.222656 5.449219 9.222656 C 4.8125 9.222656 4.292969 8.707031 4.292969 8.070312 C 4.292969 7.433594 4.8125 6.917969 5.449219 6.917969 C 6.082031 6.917969 6.601562 7.433594 6.601562 8.070312 Z M 6.601562 8.070312 "/>
<path fill-rule="nonzero" fill="rgb(100%, 70.980394%, 0%)" fill-opacity="1" d="M 2.503906 8.070312 C 2.503906 8.707031 1.988281 9.222656 1.351562 9.222656 C 0.714844 9.222656 0.199219 8.707031 0.199219 8.070312 C 0.199219 7.433594 0.714844 6.917969 1.351562 6.917969 C 1.988281 6.917969 2.503906 7.433594 2.503906 8.070312 Z M 2.503906 8.070312 "/>
<path fill-rule="nonzero" fill="rgb(0%, 0%, 0%)" fill-opacity="1" d="M 0.664062 10.5625 L 3.359375 15 L 6.132812 10.5625 Z M 1.285156 10.957031 L 5.488281 10.957031 L 3.359375 14.367188 Z M 1.285156 10.957031 "/>
<path fill-rule="nonzero" fill="rgb(100%, 100%, 100%)" fill-opacity="1" d="M 3.367188 14.367188 L 1.296875 10.957031 L 5.5 10.957031 Z M 3.367188 14.367188 "/>
</svg>
