<?xml version="1.0" encoding="UTF-8"?>
<svg xmlns="http://www.w3.org/2000/svg" xmlns:xlink="http://www.w3.org/1999/xlink" width="9.337355" height="21" viewBox="0 0 9.337355 21">
<path fill-rule="nonzero" fill="rgb(38.431373%, 38.431373%, 38.431373%)" fill-opacity="1" d="M 3.910156 12.90625 L 5.429688 12.90625 L 5.429688 21 L 3.910156 21 Z M 3.910156 12.90625 "/>
<path fill-rule="nonzero" fill="rgb(0%, 0%, 0%)" fill-opacity="1" d="M 0.472656 -0.03125 L 8.878906 -0.03125 L 8.878906 13.582031 L 0.472656 13.582031 Z M 0.472656 -0.03125 "/>
<path fill-rule="nonzero" fill="rgb(100%, 70.980394%, 0%)" fill-opacity="1" d="M 6.390625 9.28125 C 6.390625 10.226562 5.621094 10.992188 4.675781 10.992188 C 3.730469 10.992188 2.960938 10.226562 2.960938 9.28125 C 2.960938 8.332031 3.730469 7.566406 4.675781 7.566406 C 5.621094 7.566406 6.390625 8.332031 6.390625 9.28125 Z M 6.390625 9.28125 "/>
<path fill="none" stroke-width="13.507025" stroke-linecap="butt" stroke-linejoin="miter" stroke="rgb(100%, 70.980394%, 0%)" stroke-opacity="1" stroke-miterlimit="4" d="M 45.421906 26.552607 L 225.075714 26.552607 L 225.075714 362.47133 L 45.421906 362.923289 Z M 45.421906 26.552607 " transform="matrix(0.0345717, 0, 0, 0.0345717, 0, 0)"/>
<path fill-rule="nonzero" fill="rgb(0%, 0%, 0%)" fill-opacity="1" d="M 0.421875 14.105469 L 4.605469 21 L 8.914062 14.105469 Z M 1.386719 14.714844 L 7.917969 14.714844 L 4.605469 20.019531 Z M 1.386719 14.714844 "/>
<path fill-rule="nonzero" fill="rgb(100%, 100%, 100%)" fill-opacity="1" d="M 4.617188 20.019531 L 1.402344 14.71875 L 7.933594 14.71875 Z M 4.617188 20.019531 "/>
</svg>
