<?xml version="1.0" encoding="UTF-8"?>
<svg xmlns="http://www.w3.org/2000/svg" xmlns:xlink="http://www.w3.org/1999/xlink" width="6.396194" height="16" viewBox="0 0 6.396194 16">
<path fill-rule="nonzero" fill="rgb(38.431373%, 38.431373%, 38.431373%)" fill-opacity="1" d="M 2.613281 13.722656 L 3.769531 13.722656 L 3.769531 16 L 2.613281 16 Z M 2.613281 13.722656 "/>
<path fill-rule="nonzero" fill="rgb(0%, 0%, 0%)" fill-opacity="1" d="M 0 0 L 6.394531 0 L 6.394531 14.386719 L 0 14.386719 Z M 0 0 "/>
<path fill-rule="nonzero" fill="rgb(100%, 70.980394%, 0%)" fill-opacity="1" d="M 4.648438 10.910156 C 4.648438 11.707031 4 12.359375 3.199219 12.359375 C 2.398438 12.359375 1.75 11.707031 1.75 10.910156 C 1.75 10.109375 2.398438 9.460938 3.199219 9.460938 C 4 9.460938 4.648438 10.109375 4.648438 10.910156 Z M 4.648438 10.910156 "/>
<path fill="none" stroke-width="13.507025" stroke-linecap="butt" stroke-linejoin="miter" stroke="rgb(100%, 70.980394%, 0%)" stroke-opacity="1" stroke-miterlimit="4" d="M 31.785058 27.477737 L 211.504313 27.477737 L 211.504313 506.333007 L 31.785058 506.778592 Z M 31.785058 27.477737 " transform="matrix(0.0262997, 0, 0, 0.0262997, 0, 0)"/>
<path fill-rule="nonzero" fill="rgb(100%, 100%, 100%)" fill-opacity="1" d="M 4.371094 2.90625 C 4.371094 3.558594 3.84375 4.085938 3.191406 4.085938 C 2.542969 4.085938 2.015625 3.558594 2.015625 2.90625 C 2.015625 2.257812 2.542969 1.730469 3.191406 1.730469 C 3.84375 1.730469 4.371094 2.257812 4.371094 2.90625 Z M 4.371094 2.90625 "/>
</svg>
