<?xml version="1.0" encoding="UTF-8"?>
<svg xmlns="http://www.w3.org/2000/svg" xmlns:xlink="http://www.w3.org/1999/xlink" width="7.251401" height="16" viewBox="0 0 7.251401 16">
<path fill-rule="nonzero" fill="rgb(38.431373%, 38.431373%, 38.431373%)" fill-opacity="1" d="M 3.046875 13.714844 L 4.203125 13.714844 L 4.203125 16 L 3.046875 16 Z M 3.046875 13.714844 "/>
<path fill-rule="nonzero" fill="rgb(0%, 0%, 0%)" fill-opacity="1" d="M 0 0.882812 L 0.914062 0 L 6.511719 0 L 7.25 0.757812 L 7.25 14.417969 L 0 14.417969 Z M 0 0.882812 "/>
<path fill-rule="nonzero" fill="rgb(100%, 70.980394%, 0%)" fill-opacity="1" d="M 7.039062 12.167969 C 7.039062 12.847656 6.488281 13.394531 5.808594 13.394531 C 5.132812 13.394531 4.582031 12.847656 4.582031 12.167969 C 4.582031 11.488281 5.132812 10.9375 5.808594 10.9375 C 6.488281 10.9375 7.039062 11.488281 7.039062 12.167969 Z M 7.039062 12.167969 "/>
<path fill-rule="nonzero" fill="rgb(100%, 70.980394%, 0%)" fill-opacity="1" d="M 2.671875 12.167969 C 2.671875 12.847656 2.121094 13.394531 1.441406 13.394531 C 0.761719 13.394531 0.210938 12.847656 0.210938 12.167969 C 0.210938 11.488281 0.761719 10.9375 1.441406 10.9375 C 2.121094 10.9375 2.671875 11.488281 2.671875 12.167969 Z M 2.671875 12.167969 "/>
<path fill-rule="nonzero" fill="rgb(100%, 100%, 100%)" fill-opacity="1" d="M 5.171875 3.042969 C 5.171875 3.898438 4.480469 4.589844 3.625 4.589844 C 2.773438 4.589844 2.082031 3.898438 2.082031 3.042969 C 2.082031 2.191406 2.773438 1.5 3.625 1.5 C 4.480469 1.5 5.171875 2.191406 5.171875 3.042969 Z M 5.171875 3.042969 "/>
</svg>
