<?xml version="1.0" encoding="UTF-8"?>
<svg xmlns="http://www.w3.org/2000/svg" xmlns:xlink="http://www.w3.org/1999/xlink" width="9.517465" height="21" viewBox="0 0 9.517465 21">
<path fill-rule="nonzero" fill="rgb(38.431373%, 38.431373%, 38.431373%)" fill-opacity="1" d="M 4 13.863281 L 5.519531 13.863281 L 5.519531 21 L 4 21 Z M 4 13.863281 "/>
<path fill-rule="nonzero" fill="rgb(0%, 0%, 0%)" fill-opacity="1" d="M 0 1.160156 L 1.199219 0 L 8.546875 0 L 9.515625 0.992188 L 9.515625 14.164062 L 0 14.164062 Z M 0 1.160156 "/>
<path fill-rule="nonzero" fill="rgb(100%, 70.980394%, 0%)" fill-opacity="1" d="M 9.238281 11.296875 C 9.238281 12.1875 8.515625 12.910156 7.625 12.910156 C 6.734375 12.910156 6.011719 12.1875 6.011719 11.296875 C 6.011719 10.40625 6.734375 9.683594 7.625 9.683594 C 8.515625 9.683594 9.238281 10.40625 9.238281 11.296875 Z M 9.238281 11.296875 "/>
<path fill-rule="nonzero" fill="rgb(100%, 70.980394%, 0%)" fill-opacity="1" d="M 3.503906 11.296875 C 3.503906 12.1875 2.78125 12.910156 1.890625 12.910156 C 1 12.910156 0.277344 12.1875 0.277344 11.296875 C 0.277344 10.40625 1 9.683594 1.890625 9.683594 C 2.78125 9.683594 3.503906 10.40625 3.503906 11.296875 Z M 3.503906 11.296875 "/>
<path fill-rule="nonzero" fill="rgb(0%, 0%, 0%)" fill-opacity="1" d="M 2.175781 15.496094 L 7.339844 15.496094 L 7.339844 20.660156 L 2.175781 20.660156 Z M 2.175781 15.496094 "/>
<path fill-rule="nonzero" fill="rgb(100%, 100%, 100%)" fill-opacity="1" d="M 6.519531 18.078125 C 6.519531 19.050781 5.730469 19.839844 4.757812 19.839844 C 3.785156 19.839844 2.996094 19.050781 2.996094 18.078125 C 2.996094 17.105469 3.785156 16.316406 4.757812 16.316406 C 5.730469 16.316406 6.519531 17.105469 6.519531 18.078125 Z M 6.519531 18.078125 "/>
<path fill-rule="nonzero" fill="rgb(100%, 100%, 100%)" fill-opacity="1" d="M 6.28125 3.203125 C 6.28125 4.042969 5.597656 4.726562 4.757812 4.726562 C 3.917969 4.726562 3.238281 4.042969 3.238281 3.203125 C 3.238281 2.363281 3.917969 1.683594 4.757812 1.683594 C 5.597656 1.683594 6.28125 2.363281 6.28125 3.203125 Z M 6.28125 3.203125 "/>
</svg>
