<?xml version="1.0" encoding="UTF-8"?>
<svg xmlns="http://www.w3.org/2000/svg" xmlns:xlink="http://www.w3.org/1999/xlink" width="7.003447" height="28" viewBox="0 0 7.003447 28">
<path fill-rule="nonzero" fill="rgb(0%, 0%, 0%)" fill-opacity="1" d="M 0 0 L 0 28 L 7.003906 28 L 7.003906 0 Z M 3.511719 1.882812 L 5.210938 4.488281 L 3.511719 7.09375 L 1.816406 4.472656 Z M 3.511719 8.171875 L 5.210938 10.777344 L 3.511719 13.382812 L 1.816406 10.757812 Z M 3.511719 14.457031 L 5.210938 17.0625 L 3.511719 19.667969 L 1.816406 17.042969 Z M 3.511719 20.742188 L 5.210938 23.347656 L 3.511719 25.953125 L 1.816406 23.332031 Z M 3.511719 20.742188 "/>
<path fill-rule="nonzero" fill="rgb(100%, 100%, 100%)" fill-opacity="1" d="M 1.816406 4.46875 L 3.511719 1.882812 L 5.210938 4.492188 L 3.511719 7.09375 Z M 1.816406 4.46875 "/>
<path fill-rule="nonzero" fill="rgb(100%, 100%, 100%)" fill-opacity="1" d="M 1.816406 10.757812 L 3.511719 8.171875 L 5.210938 10.777344 L 3.511719 13.382812 Z M 1.816406 10.757812 "/>
<path fill-rule="nonzero" fill="rgb(100%, 100%, 100%)" fill-opacity="1" d="M 1.816406 17.042969 L 3.511719 14.457031 L 5.210938 17.0625 L 3.511719 19.667969 Z M 1.816406 17.042969 "/>
<path fill-rule="nonzero" fill="rgb(100%, 100%, 100%)" fill-opacity="1" d="M 1.816406 23.332031 L 3.511719 20.746094 L 5.210938 23.351562 L 3.511719 25.953125 Z M 1.816406 23.332031 "/>
<path fill="none" stroke-width="3.5" stroke-linecap="butt" stroke-linejoin="miter" stroke="rgb(100%, 100%, 100%)" stroke-opacity="1" stroke-miterlimit="4" d="M 4.595463 3.692309 L 43.138914 3.692309 L 43.138914 185.996724 L 4.595463 185.996724 Z M 4.595463 3.692309 " transform="matrix(0.147054, 0, 0, 0.147054, 0, 0)"/>
<path fill="none" stroke-width="3.5" stroke-linecap="butt" stroke-linejoin="miter" stroke="rgb(100%, 100%, 100%)" stroke-opacity="1" stroke-miterlimit="4" d="M 4.595463 3.692309 L 43.138914 3.692309 L 43.138914 185.996724 L 4.595463 185.996724 Z M 4.595463 3.692309 " transform="matrix(0.147054, 0, 0, 0.147054, 0, 0)"/>
</svg>
