<?xml version="1.0" encoding="UTF-8"?>
<svg xmlns="http://www.w3.org/2000/svg" xmlns:xlink="http://www.w3.org/1999/xlink" width="7.032813" height="28" viewBox="0 0 7.032813 28">
<path fill="none" stroke-width="3.5" stroke-linecap="butt" stroke-linejoin="miter" stroke="rgb(100%, 100%, 100%)" stroke-opacity="0.152941" stroke-miterlimit="4" d="M 10.446399 53.269936 L 48.984234 53.269936 L 48.984234 235.579679 L 10.446399 235.579679 Z M 10.446399 53.269936 " transform="matrix(0.116667, 0, 0, 0.116667, 0, 0)"/>
<path fill-rule="nonzero" fill="rgb(0%, 0%, 0%)" fill-opacity="1" d="M 0.683594 5.785156 L 0.683594 28 L 6.238281 28 L 6.238281 5.785156 Z M 3.46875 7.28125 L 4.816406 9.347656 L 3.46875 11.414062 L 2.121094 9.332031 Z M 3.46875 12.269531 L 4.816406 14.335938 L 3.46875 16.402344 L 2.121094 14.320312 Z M 3.46875 17.253906 L 4.816406 19.324219 L 3.46875 21.390625 L 2.121094 19.308594 Z M 3.46875 22.242188 L 4.816406 24.308594 L 3.46875 26.378906 L 2.121094 24.296875 Z M 3.46875 22.242188 "/>
<path fill-rule="nonzero" fill="rgb(100%, 100%, 100%)" fill-opacity="1" d="M 2.121094 9.332031 L 3.46875 7.28125 L 4.816406 9.347656 L 3.46875 11.414062 Z M 2.121094 9.332031 "/>
<path fill-rule="nonzero" fill="rgb(100%, 100%, 100%)" fill-opacity="1" d="M 2.121094 14.320312 L 3.46875 12.269531 L 4.816406 14.335938 L 3.46875 16.402344 Z M 2.121094 14.320312 "/>
<path fill-rule="nonzero" fill="rgb(100%, 100%, 100%)" fill-opacity="1" d="M 2.121094 19.308594 L 3.46875 17.257812 L 4.816406 19.324219 L 3.46875 21.390625 Z M 2.121094 19.308594 "/>
<path fill-rule="nonzero" fill="rgb(100%, 100%, 100%)" fill-opacity="1" d="M 2.121094 24.296875 L 3.46875 22.246094 L 4.816406 24.3125 L 3.46875 26.378906 Z M 2.121094 24.296875 "/>
<path fill="none" stroke-width="3.5" stroke-linecap="butt" stroke-linejoin="miter" stroke="rgb(100%, 100%, 100%)" stroke-opacity="1" stroke-miterlimit="4" d="M 10.446399 53.269936 L 48.984234 53.269936 L 48.984234 235.579679 L 10.446399 235.579679 Z M 10.446399 53.269936 " transform="matrix(0.116667, 0, 0, 0.116667, 0, 0)"/>
<path fill-rule="nonzero" fill="rgb(0%, 0%, 0%)" fill-opacity="1" d="M 0 0 L 3.464844 5.710938 L 7.03125 0 Z M 0.796875 0.507812 L 6.207031 0.507812 L 3.464844 4.894531 Z M 0.796875 0.507812 "/>
<path fill-rule="nonzero" fill="rgb(100%, 100%, 100%)" fill-opacity="1" d="M 3.460938 4.898438 L 0.800781 0.507812 L 6.207031 0.507812 Z M 3.460938 4.898438 "/>
</svg>
