<?xml version="1.0" encoding="UTF-8"?>
<svg xmlns="http://www.w3.org/2000/svg" xmlns:xlink="http://www.w3.org/1999/xlink" width="2.389107" height="15" viewBox="0 0 2.389107 15">
<path fill-rule="nonzero" fill="rgb(100%, 100%, 100%)" fill-opacity="1" d="M 0 0 L 0 2.085938 L 2.390625 2.085938 L 2.390625 0 Z M 0 4.277344 L 0 6.378906 L 2.390625 6.378906 L 2.390625 4.277344 Z M 0 8.566406 L 0 10.597656 L 2.390625 10.597656 L 2.390625 8.566406 Z M 0 12.789062 L 0 15 L 2.390625 15 L 2.390625 12.789062 Z M 0 12.789062 "/>
<path fill-rule="nonzero" fill="rgb(0%, 0%, 0%)" fill-opacity="1" d="M 0 2.085938 L 2.390625 2.085938 L 2.390625 4.277344 L 0 4.277344 Z M 0 2.085938 "/>
<path fill-rule="nonzero" fill="rgb(0%, 0%, 0%)" fill-opacity="1" d="M 0 6.378906 L 2.390625 6.378906 L 2.390625 8.570312 L 0 8.570312 Z M 0 6.378906 "/>
<path fill-rule="nonzero" fill="rgb(0%, 0%, 0%)" fill-opacity="1" d="M 0 10.597656 L 2.390625 10.597656 L 2.390625 12.789062 L 0 12.789062 Z M 0 10.597656 "/>
</svg>
