<?xml version="1.0" encoding="UTF-8"?>
<svg xmlns="http://www.w3.org/2000/svg" xmlns:xlink="http://www.w3.org/1999/xlink" width="2.389107" height="15" viewBox="0 0 2.389107 15">
<defs>
<filter id="filter-remove-color" x="0%" y="0%" width="100%" height="100%">
<feColorMatrix color-interpolation-filters="sRGB" values="0 0 0 0 1 0 0 0 0 1 0 0 0 0 1 0 0 0 1 0" />
</filter>
<mask id="mask-0">
<g filter="url(#filter-remove-color)">
<rect x="-0.238911" y="-1.5" width="2.866928" height="18" fill="rgb(0%, 0%, 0%)" fill-opacity="0.99"/>
</g>
</mask>
<clipPath id="clip-0">
<rect x="0" y="0" width="3" height="15"/>
</clipPath>
<g id="source-5" clip-path="url(#clip-0)">
<path fill-rule="nonzero" fill="rgb(100%, 100%, 100%)" fill-opacity="1" d="M 0 0 L 0 2.085938 L 2.390625 2.085938 L 2.390625 0 Z M 0 4.277344 L 0 6.378906 L 2.390625 6.378906 L 2.390625 4.277344 Z M 0 8.566406 L 0 10.597656 L 2.390625 10.597656 L 2.390625 8.566406 Z M 0 12.789062 L 0 15 L 2.390625 15 L 2.390625 12.789062 Z M 0 12.789062 "/>
</g>
</defs>
<g mask="url(#mask-0)">
<use xlink:href="#source-5"/>
</g>
<path fill-rule="nonzero" fill="rgb(0%, 0%, 0%)" fill-opacity="1" d="M 0 2.085938 L 2.390625 2.085938 L 2.390625 4.277344 L 0 4.277344 Z M 0 2.085938 "/>
<path fill-rule="nonzero" fill="rgb(0%, 0%, 0%)" fill-opacity="1" d="M 0 6.378906 L 2.390625 6.378906 L 2.390625 8.570312 L 0 8.570312 Z M 0 6.378906 "/>
<path fill-rule="nonzero" fill="rgb(0%, 0%, 0%)" fill-opacity="1" d="M 0 10.597656 L 2.390625 10.597656 L 2.390625 12.789062 L 0 12.789062 Z M 0 10.597656 "/>
</svg>
