<?xml version="1.0" encoding="UTF-8"?>
<svg xmlns="http://www.w3.org/2000/svg" xmlns:xlink="http://www.w3.org/1999/xlink" width="11.813783" height="21" viewBox="0 0 11.813783 21">
<path fill-rule="nonzero" fill="rgb(41.568628%, 41.568628%, 41.568628%)" fill-opacity="1" d="M 4.703125 3.984375 L 7.109375 3.984375 L 7.109375 7.375 L 4.703125 7.375 Z M 4.703125 3.984375 "/>
<path fill-rule="nonzero" fill="rgb(100%, 100%, 100%)" fill-opacity="1" stroke-width="1.8" stroke-linecap="round" stroke-linejoin="round" stroke="rgb(0%, 0%, 0%)" stroke-opacity="1" stroke-miterlimit="4" d="M 9.18706 86.141588 L 139.715565 86.141588 L 139.715565 276.540819 L 9.18706 276.540819 Z M 9.18706 86.141588 " transform="matrix(0.0756839, 0, 0, 0.0756839, 0, 0)"/>
<path fill-rule="nonzero" fill="rgb(2.352941%, 0%, 0%)" fill-opacity="1" d="M 2.398438 8.78125 L 2.398438 19 L 4.019531 19 L 4.019531 14.636719 L 6.234375 14.636719 L 6.234375 14.632812 C 9.914062 14.628906 10.046875 8.785156 6.234375 8.78125 Z M 6.234375 10.402344 C 7.777344 10.40625 7.796875 13.007812 6.234375 13.011719 C 6.234375 13.011719 6.230469 13.011719 6.230469 13.011719 L 4.019531 13.011719 L 4.019531 10.402344 Z M 6.234375 10.402344 "/>
<path fill-rule="nonzero" fill="rgb(100%, 100%, 100%)" fill-opacity="1" stroke-width="1.8" stroke-linecap="round" stroke-linejoin="round" stroke="rgb(0%, 0%, 0%)" stroke-opacity="1" stroke-miterlimit="4" d="M 0.877416 0.929029 L 155.199374 0.929029 L 155.199374 58.838472 L 0.877416 58.838472 Z M 0.877416 0.929029 " transform="matrix(0.0756839, 0, 0, 0.0756839, 0, 0)"/>
<path fill-rule="nonzero" fill="rgb(2.352941%, 0%, 0%)" fill-opacity="1" d="M 1.519531 0.0703125 L 1.519531 4.453125 L 3 4.453125 L 3 0.0703125 Z M 1.519531 0.0703125 "/>
<path fill-rule="nonzero" fill="rgb(2.352941%, 0%, 0%)" fill-opacity="1" d="M 8.84375 0.0703125 L 8.84375 4.453125 L 10.257812 4.453125 L 10.257812 0.0703125 Z M 8.84375 0.0703125 "/>
</svg>
