<?xml version="1.0" encoding="UTF-8"?>
<svg xmlns="http://www.w3.org/2000/svg" xmlns:xlink="http://www.w3.org/1999/xlink" width="11.948356" height="21" viewBox="0 0 11.948356 21">
<path fill-rule="nonzero" fill="rgb(41.568628%, 41.568628%, 41.568628%)" fill-opacity="1" d="M 4.757812 4.03125 L 7.1875 4.03125 L 7.1875 7.460938 L 4.757812 7.460938 Z M 4.757812 4.03125 "/>
<path fill-rule="nonzero" fill="rgb(100%, 100%, 100%)" fill-opacity="1" stroke-width="1.8" stroke-linecap="round" stroke-linejoin="round" stroke="rgb(0%, 0%, 0%)" stroke-opacity="1" stroke-miterlimit="4" d="M 12.145475 83.028099 L 142.734845 83.028099 L 142.734845 273.426279 L 12.145475 273.426279 Z M 12.145475 83.028099 " transform="matrix(0.076546, 0, 0, 0.076546, 0, 0)"/>
<path fill-rule="nonzero" fill="rgb(0%, 0%, 0%)" fill-opacity="1" d="M 2.652344 8.113281 L 2.652344 18.976562 L 9.023438 18.976562 L 9.023438 17.335938 L 4.292969 17.335938 L 4.292969 8.113281 Z M 2.652344 8.113281 "/>
<path fill-rule="nonzero" fill="rgb(100%, 100%, 100%)" fill-opacity="1" stroke-width="1.8" stroke-linecap="round" stroke-linejoin="round" stroke="rgb(0%, 0%, 0%)" stroke-opacity="1" stroke-miterlimit="4" d="M 0.867534 0.918565 L 155.186509 0.918565 L 155.186509 58.839212 L 0.867534 58.839212 Z M 0.867534 0.918565 " transform="matrix(0.076546, 0, 0, 0.076546, 0, 0)"/>
<path fill-rule="nonzero" fill="rgb(2.352941%, 0%, 0%)" fill-opacity="1" d="M 1.535156 0.0703125 L 1.535156 4.503906 L 3.035156 4.503906 L 3.035156 0.0703125 Z M 1.535156 0.0703125 "/>
<path fill-rule="nonzero" fill="rgb(2.352941%, 0%, 0%)" fill-opacity="1" d="M 8.941406 0.0703125 L 8.941406 4.503906 L 10.375 4.503906 L 10.375 0.0703125 Z M 8.941406 0.0703125 "/>
</svg>
