<?xml version="1.0" encoding="UTF-8"?>
<svg xmlns="http://www.w3.org/2000/svg" xmlns:xlink="http://www.w3.org/1999/xlink" width="16" height="32.023975" viewBox="0 0 16 32.023975">
<path fill-rule="nonzero" fill="rgb(100%, 100%, 100%)" fill-opacity="1" d="M 8 0 L 0 8 L 8 16 L 16 8 Z M 8 1.328125 L 14.671875 8 L 8 14.671875 L 1.328125 8 Z M 8 1.328125 "/>
<path fill-rule="nonzero" fill="rgb(0%, 26.666667%, 66.666667%)" fill-opacity="1" stroke-width="0.377308" stroke-linecap="square" stroke-linejoin="miter" stroke="rgb(0%, 0%, 0%)" stroke-opacity="1" stroke-miterlimit="4" d="M 1.328125 8 L 8 1.328125 L 14.671875 8 L 8 14.671875 Z M 1.328125 8 L 1.328125 8 M 1.328125 8 L 1.328125 8 M 1.328125 8 L 1.328125 8 M 1.328125 8 L 1.328125 8 M 1.328125 8 L 1.328125 8 M 1.328125 8 L 1.328125 8 M 1.328125 8 L 1.328125 8 M 1.328125 8 "/>
<path fill-rule="nonzero" fill="rgb(100%, 100%, 100%)" fill-opacity="1" d="M 4.742188 4.726562 L 6.398438 4.726562 L 6.398438 7.753906 L 4.742188 7.753906 Z M 4.742188 4.726562 "/>
<path fill-rule="nonzero" fill="rgb(100%, 100%, 100%)" fill-opacity="1" d="M 9.464844 4.726562 L 11.121094 4.726562 L 11.121094 7.753906 L 9.464844 7.753906 Z M 9.464844 4.726562 "/>
<path fill-rule="nonzero" fill="rgb(100%, 100%, 100%)" fill-opacity="1" d="M 11.121094 9.484375 L 11.121094 11.140625 L 4.742188 11.140625 L 4.742188 9.484375 Z M 11.121094 9.484375 "/>
<path fill-rule="nonzero" fill="rgb(100%, 100%, 100%)" fill-opacity="1" d="M 8 16.023438 L 0 24.023438 L 8 32.023438 L 16 24.023438 Z M 8 17.351562 L 14.671875 24.023438 L 8 30.695312 L 1.328125 24.023438 Z M 8 17.351562 "/>
<path fill-rule="nonzero" fill="rgb(0%, 26.666667%, 66.666667%)" fill-opacity="1" stroke-width="0.377308" stroke-linecap="square" stroke-linejoin="miter" stroke="rgb(0%, 0%, 0%)" stroke-opacity="1" stroke-miterlimit="4" d="M 1.328125 24.023438 L 8 17.351562 L 14.671875 24.023438 L 8 30.695312 Z M 1.328125 24.023438 L 1.328125 24.023438 M 1.328125 24.023438 L 1.328125 24.023438 M 1.328125 24.023438 L 1.328125 24.023438 M 1.328125 24.023438 L 1.328125 24.023438 M 1.328125 24.023438 L 1.328125 24.023438 M 1.328125 24.023438 L 1.328125 24.023438 M 1.328125 24.023438 L 1.328125 24.023438 M 1.328125 24.023438 "/>
<path fill-rule="nonzero" fill="rgb(100%, 100%, 100%)" fill-opacity="1" d="M 4.742188 20.898438 L 4.742188 27.164062 L 11.121094 27.164062 L 11.121094 20.898438 L 9.464844 20.898438 L 9.464844 25.546875 L 6.398438 25.546875 L 6.398438 20.898438 Z M 4.742188 20.898438 "/>
</svg>
