<?xml version="1.0" encoding="UTF-8"?>
<svg xmlns="http://www.w3.org/2000/svg" xmlns:xlink="http://www.w3.org/1999/xlink" width="15" height="15" viewBox="0 0 15 15">
<path fill-rule="nonzero" fill="rgb(100%, 100%, 100%)" fill-opacity="1" d="M 7.5 0 L 0 7.5 L 7.5 15 L 15 7.5 Z M 7.5 1.246094 L 13.753906 7.5 L 7.5 13.753906 L 1.246094 7.5 Z M 7.5 1.246094 "/>
<path fill-rule="nonzero" fill="rgb(5.098039%, 55.686277%, 96.862745%)" fill-opacity="1" stroke-width="7" stroke-linecap="square" stroke-linejoin="miter" stroke="rgb(0%, 0%, 0%)" stroke-opacity="1" stroke-miterlimit="4" d="M 24.659352 148.419922 L 148.419922 24.659352 L 272.180492 148.419922 L 148.419922 272.180492 Z M 24.659352 148.419922 " transform="matrix(0.0505323, 0, 0, 0.0505323, 0, 0)"/>
<path fill-rule="nonzero" fill="rgb(100%, 100%, 100%)" fill-opacity="1" d="M 4.445312 4.429688 L 6 4.429688 L 6 7.269531 L 4.445312 7.269531 Z M 4.445312 4.429688 "/>
<path fill-rule="nonzero" fill="rgb(100%, 100%, 100%)" fill-opacity="1" d="M 8.875 4.429688 L 10.425781 4.429688 L 10.425781 7.269531 L 8.875 7.269531 Z M 8.875 4.429688 "/>
<path fill-rule="nonzero" fill="rgb(100%, 100%, 100%)" fill-opacity="1" d="M 10.425781 8.894531 L 10.425781 10.445312 L 4.445312 10.445312 L 4.445312 8.894531 Z M 10.425781 8.894531 "/>
</svg>
