<?xml version="1.0" encoding="UTF-8"?>
<svg xmlns="http://www.w3.org/2000/svg" xmlns:xlink="http://www.w3.org/1999/xlink" width="18" height="18" viewBox="0 0 18 18">
<path fill-rule="nonzero" fill="rgb(100%, 100%, 100%)" fill-opacity="1" d="M 9 0 L 0 9 L 9 18 L 18 9 Z M 9 1.496094 L 16.503906 9 L 9 16.503906 L 1.496094 9 Z M 9 1.496094 "/>
<path fill-rule="nonzero" fill="rgb(5.098039%, 55.686277%, 96.862745%)" fill-opacity="1" stroke-width="7" stroke-linecap="square" stroke-linejoin="miter" stroke="rgb(0%, 0%, 0%)" stroke-opacity="1" stroke-miterlimit="4" d="M 24.672235 148.419921 L 148.419921 24.672235 L 272.167608 148.419921 L 148.419921 272.167608 Z M 24.672235 148.419921 L 24.672235 148.419921 M 24.672235 148.419921 " transform="matrix(0.0606388, 0, 0, 0.0606388, 0, 0)"/>
<path fill-rule="nonzero" fill="rgb(100%, 100%, 100%)" fill-opacity="1" d="M 5.394531 7.328125 L 7.261719 7.328125 L 7.261719 10.738281 L 5.394531 10.738281 Z M 5.394531 7.328125 "/>
<path fill-rule="nonzero" fill="rgb(100%, 100%, 100%)" fill-opacity="1" d="M 10.632812 7.328125 L 12.496094 7.328125 L 12.496094 10.738281 L 10.632812 10.738281 Z M 10.632812 7.328125 "/>
</svg>
