<?xml version="1.0" encoding="UTF-8"?>
<svg xmlns="http://www.w3.org/2000/svg" xmlns:xlink="http://www.w3.org/1999/xlink" width="17.564261" height="23" viewBox="0 0 17.564261 23">
<path fill-rule="nonzero" fill="rgb(100%, 100%, 100%)" fill-opacity="1" d="M 8.78125 5.441406 L 0 14.21875 L 8.78125 23 L 17.558594 14.21875 Z M 8.78125 6.894531 L 16.105469 14.21875 L 8.78125 21.542969 L 1.457031 14.21875 Z M 8.78125 6.894531 "/>
<path fill-rule="nonzero" fill="rgb(5.098039%, 55.686277%, 96.862745%)" fill-opacity="1" stroke-width="7" stroke-linecap="square" stroke-linejoin="miter" stroke="rgb(0%, 0%, 0%)" stroke-opacity="1" stroke-miterlimit="4" d="M 24.745159 240.262948 L 148.359353 116.566619 L 272.219954 240.262948 L 148.359353 364.041414 Z M 24.745159 240.262948 L 24.745159 240.262948 M 24.745159 240.262948 L 24.745159 240.262948 M 24.745159 240.262948 L 24.745159 240.262948 M 24.745159 240.262948 " transform="matrix(0.0475585, 0, 0, 0.0475585, 1.659095, 4.675016)"/>
<path fill-rule="nonzero" fill="rgb(100%, 100%, 100%)" fill-opacity="1" d="M 8.714844 11.980469 L 4.59375 16.101562 L 8.714844 20.21875 L 12.84375 16.101562 Z M 8.714844 13.21875 L 11.601562 16.101562 L 8.714844 18.988281 L 5.835938 16.101562 Z M 8.714844 14.429688 L 7.042969 16.101562 L 8.714844 17.777344 L 10.390625 16.101562 Z M 8.714844 14.429688 "/>
<path fill-rule="nonzero" fill="rgb(5.098039%, 55.686277%, 96.862745%)" fill-opacity="1" d="M 8.714844 13.21875 L 5.835938 16.101562 L 8.714844 18.988281 L 11.601562 16.101562 Z M 8.714844 14.429688 L 10.390625 16.101562 L 8.714844 17.777344 L 7.042969 16.101562 Z M 8.714844 14.429688 "/>
<path fill-rule="nonzero" fill="rgb(100%, 100%, 100%)" fill-opacity="1" d="M 10.5 9.535156 L 10.5 1.621094 L 8.714844 0.175781 L 6.9375 1.621094 L 6.9375 9.535156 Z M 10.5 9.535156 "/>
<path fill-rule="nonzero" fill="rgb(5.098039%, 55.686277%, 96.862745%)" fill-opacity="1" d="M 9.933594 2.527344 L 9.3125 3.144531 L 9.3125 9.042969 L 8.367188 9.042969 L 8.367188 3.144531 L 7.757812 2.527344 L 8.839844 1.4375 Z M 9.933594 2.527344 "/>
</svg>
