<?xml version="1.0" encoding="UTF-8"?>
<svg xmlns="http://www.w3.org/2000/svg" xmlns:xlink="http://www.w3.org/1999/xlink" width="11.454952" height="15" viewBox="0 0 11.454952 15">
<path fill-rule="nonzero" fill="rgb(100%, 100%, 100%)" fill-opacity="1" d="M 5.726562 3.546875 L 0 9.273438 L 5.726562 15 L 11.453125 9.273438 Z M 5.726562 4.496094 L 10.503906 9.273438 L 5.726562 14.050781 L 0.949219 9.273438 Z M 5.726562 4.496094 "/>
<path fill-rule="nonzero" fill="rgb(5.098039%, 55.686277%, 96.862745%)" fill-opacity="1" stroke-width="7" stroke-linecap="square" stroke-linejoin="miter" stroke="rgb(0%, 0%, 0%)" stroke-opacity="1" stroke-miterlimit="4" d="M 24.684947 240.230123 L 148.359381 116.555689 L 272.159757 240.230123 L 148.359381 364.030499 Z M 24.684947 240.230123 " transform="matrix(0.0310164, 0, 0, 0.0310164, 1.082018, 3.048923)"/>
<path fill-rule="nonzero" fill="rgb(100%, 100%, 100%)" fill-opacity="1" d="M 5.683594 7.8125 L 2.996094 10.5 L 5.683594 13.1875 L 8.375 10.5 Z M 5.683594 8.621094 L 7.566406 10.5 L 5.683594 12.382812 L 3.804688 10.5 Z M 5.683594 9.410156 L 4.59375 10.5 L 5.683594 11.59375 L 6.777344 10.5 Z M 5.683594 9.410156 "/>
<path fill-rule="nonzero" fill="rgb(5.098039%, 55.686277%, 96.862745%)" fill-opacity="1" d="M 5.683594 8.621094 L 3.804688 10.5 L 5.683594 12.382812 L 7.566406 10.5 Z M 5.683594 9.410156 L 6.777344 10.5 L 5.683594 11.59375 L 4.59375 10.5 Z M 5.683594 9.410156 "/>
<path fill-rule="nonzero" fill="rgb(100%, 100%, 100%)" fill-opacity="1" d="M 6.847656 6.21875 L 6.847656 1.058594 L 5.683594 0.113281 L 4.523438 1.058594 L 4.523438 6.21875 Z M 6.847656 6.21875 "/>
<path fill-rule="nonzero" fill="rgb(5.098039%, 55.686277%, 96.862745%)" fill-opacity="1" d="M 6.476562 1.648438 L 6.074219 2.050781 L 6.074219 5.898438 L 5.457031 5.898438 L 5.457031 2.050781 L 5.058594 1.648438 L 5.765625 0.9375 Z M 6.476562 1.648438 "/>
</svg>
