<?xml version="1.0" encoding="UTF-8"?>
<svg xmlns="http://www.w3.org/2000/svg" xmlns:xlink="http://www.w3.org/1999/xlink" width="11.454952" height="15" viewBox="0 0 11.454952 15">
<path fill-rule="nonzero" fill="rgb(100%, 100%, 100%)" fill-opacity="1" d="M 5.726562 3.546875 L 0 9.273438 L 5.726562 15 L 11.453125 9.273438 Z M 5.726562 4.496094 L 10.503906 9.273438 L 5.726562 14.050781 L 0.949219 9.273438 Z M 5.726562 4.496094 "/>
<path fill-rule="nonzero" fill="rgb(5.098039%, 55.686277%, 96.862745%)" fill-opacity="1" stroke-width="7" stroke-linecap="square" stroke-linejoin="miter" stroke="rgb(0%, 0%, 0%)" stroke-opacity="1" stroke-miterlimit="4" d="M 24.597753 240.308911 L 148.39632 116.510344 L 272.194887 240.308911 L 148.39632 364.107478 Z M 24.597753 240.308911 " transform="matrix(0.0385897, 0, 0, 0.0385897, 0, 0)"/>
<path fill-rule="nonzero" fill="rgb(100%, 100%, 100%)" fill-opacity="1" d="M 5.726562 5.929688 L 2.382812 9.273438 L 5.726562 12.617188 L 9.070312 9.273438 Z M 5.726562 6.933594 L 8.066406 9.273438 L 5.726562 11.613281 L 3.386719 9.273438 Z M 5.726562 7.914062 L 4.371094 9.273438 L 5.726562 10.628906 L 7.085938 9.273438 Z M 5.726562 7.914062 "/>
<path fill-rule="nonzero" fill="rgb(5.098039%, 55.686277%, 96.862745%)" fill-opacity="1" d="M 5.726562 6.933594 L 3.386719 9.273438 L 5.726562 11.613281 L 8.066406 9.273438 Z M 5.726562 7.914062 L 7.085938 9.273438 L 5.726562 10.628906 L 4.371094 9.273438 Z M 5.726562 7.914062 "/>
<path fill-rule="nonzero" fill="rgb(100%, 100%, 100%)" fill-opacity="1" d="M 0 0 L 9.683594 0 L 11.453125 1.773438 L 9.683594 3.546875 L 0 3.546875 Z M 0 0 "/>
<path fill-rule="nonzero" fill="rgb(5.098039%, 55.686277%, 96.862745%)" fill-opacity="1" d="M 9.484375 0.484375 L 8.617188 1.347656 L 0.308594 1.347656 L 0.308594 2.679688 L 8.617188 2.679688 L 9.484375 3.546875 L 11.015625 2.015625 Z M 9.484375 0.484375 "/>
</svg>
