<?xml version="1.0" encoding="UTF-8"?>
<svg xmlns="http://www.w3.org/2000/svg" xmlns:xlink="http://www.w3.org/1999/xlink" width="17.564261" height="23" viewBox="0 0 17.564261 23">
<path fill-rule="nonzero" fill="rgb(100%, 100%, 100%)" fill-opacity="1" d="M 8.78125 5.441406 L 0 14.21875 L 8.78125 23 L 17.558594 14.21875 Z M 8.78125 6.894531 L 16.105469 14.21875 L 8.78125 21.542969 L 1.457031 14.21875 Z M 8.78125 6.894531 "/>
<path fill-rule="nonzero" fill="rgb(5.098039%, 55.686277%, 96.862745%)" fill-opacity="1" stroke-width="7" stroke-linecap="square" stroke-linejoin="miter" stroke="rgb(0%, 0%, 0%)" stroke-opacity="1" stroke-miterlimit="4" d="M 24.62415 240.300019 L 148.405066 116.519102 L 272.185983 240.300019 L 148.405066 364.080935 Z M 24.62415 240.300019 L 24.62415 240.300019 M 24.62415 240.300019 L 24.62415 240.300019 M 24.62415 240.300019 L 24.62415 240.300019 M 24.62415 240.300019 " transform="matrix(0.0591708, 0, 0, 0.0591708, 0, 0)"/>
<path fill-rule="nonzero" fill="rgb(100%, 100%, 100%)" fill-opacity="1" d="M 8.78125 9.09375 L 3.652344 14.21875 L 8.78125 19.347656 L 13.90625 14.21875 Z M 8.78125 10.632812 L 12.367188 14.21875 L 8.78125 17.808594 L 5.191406 14.21875 Z M 8.78125 12.132812 L 6.703125 14.21875 L 8.78125 16.296875 L 10.867188 14.21875 Z M 8.78125 12.132812 "/>
<path fill-rule="nonzero" fill="rgb(5.098039%, 55.686277%, 96.862745%)" fill-opacity="1" d="M 8.78125 10.632812 L 5.191406 14.21875 L 8.78125 17.808594 L 12.367188 14.21875 Z M 8.78125 12.132812 L 10.867188 14.21875 L 8.78125 16.296875 L 6.703125 14.21875 Z M 8.78125 12.132812 "/>
<path fill-rule="nonzero" fill="rgb(100%, 100%, 100%)" fill-opacity="1" d="M 17.558594 0 L 2.71875 0 L 0 2.71875 L 2.71875 5.441406 L 17.558594 5.441406 Z M 17.558594 0 "/>
<path fill-rule="nonzero" fill="rgb(5.098039%, 55.686277%, 96.862745%)" fill-opacity="1" d="M 3.023438 0.742188 L 4.351562 2.066406 L 17.089844 2.066406 L 17.089844 4.109375 L 4.351562 4.109375 L 3.023438 5.441406 L 0.679688 3.089844 Z M 3.023438 0.742188 "/>
</svg>
