<?xml version="1.0" encoding="UTF-8"?>
<svg xmlns="http://www.w3.org/2000/svg" xmlns:xlink="http://www.w3.org/1999/xlink" width="16" height="16" viewBox="0 0 16 16">
<path fill-rule="nonzero" fill="rgb(100%, 100%, 100%)" fill-opacity="1" d="M 8 0 L 0 8 L 8 16 L 16 8 Z M 8 1.328125 L 14.671875 8 L 8 14.671875 L 1.328125 8 Z M 8 1.328125 "/>
<path fill="none" stroke-width="7" stroke-linecap="square" stroke-linejoin="miter" stroke="rgb(0%, 0%, 0%)" stroke-opacity="1" stroke-miterlimit="4" d="M 24.63999 148.419703 L 148.419703 24.63999 L 272.199417 148.419703 L 148.419703 272.199417 Z M 24.63999 148.419703 L 24.63999 148.419703 M 24.63999 148.419703 L 24.63999 148.419703 M 24.63999 148.419703 L 24.63999 148.419703 M 24.63999 148.419703 L 24.63999 148.419703 M 24.63999 148.419703 L 24.63999 148.419703 M 24.63999 148.419703 L 24.63999 148.419703 M 24.63999 148.419703 L 24.63999 148.419703 M 24.63999 148.419703 " transform="matrix(0.0539012, 0, 0, 0.0539012, 0, 0)"/>
<path fill-rule="nonzero" fill="rgb(97.647059%, 97.647059%, 97.647059%)" fill-opacity="1" d="M 1.597656 8 L 3.730469 5.867188 L 5.867188 8 L 3.730469 10.132812 Z M 1.597656 8 "/>
<path fill-rule="nonzero" fill="rgb(97.647059%, 97.647059%, 97.647059%)" fill-opacity="1" d="M 5.867188 8 L 8 5.867188 L 10.132812 8 L 8 10.132812 Z M 5.867188 8 "/>
<path fill-rule="nonzero" fill="rgb(97.647059%, 97.647059%, 97.647059%)" fill-opacity="1" d="M 10.132812 8 L 12.269531 5.867188 L 14.402344 8 L 12.269531 10.132812 Z M 10.132812 8 "/>
<path fill-rule="nonzero" fill="rgb(97.647059%, 97.647059%, 97.647059%)" fill-opacity="1" d="M 5.867188 3.730469 L 8 1.597656 L 10.132812 3.730469 L 8 5.867188 Z M 5.867188 3.730469 "/>
<path fill-rule="nonzero" fill="rgb(97.647059%, 97.647059%, 97.647059%)" fill-opacity="1" d="M 5.867188 12.269531 L 8 10.132812 L 10.132812 12.269531 L 8 14.402344 Z M 5.867188 12.269531 "/>
<path fill-rule="nonzero" fill="rgb(0%, 26.666667%, 66.666667%)" fill-opacity="1" d="M 3.730469 5.867188 L 5.867188 3.730469 L 8 5.867188 L 5.867188 8 Z M 3.730469 5.867188 "/>
<path fill-rule="nonzero" fill="rgb(0%, 26.666667%, 66.666667%)" fill-opacity="1" d="M 3.730469 10.132812 L 5.867188 8 L 8 10.132812 L 5.867188 12.269531 Z M 3.730469 10.132812 "/>
<path fill-rule="nonzero" fill="rgb(0%, 26.666667%, 66.666667%)" fill-opacity="1" d="M 8 10.132812 L 10.132812 8 L 12.269531 10.132812 L 10.132812 12.269531 Z M 8 10.132812 "/>
<path fill-rule="nonzero" fill="rgb(0%, 26.666667%, 66.666667%)" fill-opacity="1" d="M 8 5.867188 L 10.132812 3.730469 L 12.269531 5.867188 L 10.132812 8 Z M 8 5.867188 "/>
</svg>
