<?xml version="1.0" encoding="UTF-8"?>
<svg xmlns="http://www.w3.org/2000/svg" xmlns:xlink="http://www.w3.org/1999/xlink" width="8.5" height="13.036842" viewBox="0 0 8.5 13.036842">
<path fill-rule="nonzero" fill="rgb(0%, 0%, 0%)" fill-opacity="1" d="M 0.0117188 0 L 8.5 0 L 8.5 13.003906 L 0.0117188 13.003906 Z M 0.0117188 0 "/>
<path fill-rule="nonzero" fill="rgb(41.176471%, 93.333333%, 44.313725%)" fill-opacity="1" d="M 7.664062 2.171875 C 7.664062 3.136719 6.882812 3.914062 5.925781 3.914062 C 4.960938 3.914062 4.183594 3.136719 4.183594 2.171875 C 4.183594 1.214844 4.960938 0.433594 5.925781 0.433594 C 6.882812 0.433594 7.664062 1.214844 7.664062 2.171875 Z M 7.664062 2.171875 "/>
<path fill-rule="nonzero" fill="rgb(100%, 100%, 100%)" fill-opacity="1" d="M 0 6.941406 L 3.976562 6.941406 L 3.976562 13.035156 L 0 13.035156 Z M 0 6.941406 "/>
<path fill-rule="nonzero" fill="rgb(100%, 100%, 100%)" fill-opacity="1" stroke-width="10.623008" stroke-linecap="round" stroke-linejoin="round" stroke="rgb(0%, 0%, 0%)" stroke-opacity="1" stroke-miterlimit="4" d="M 5.321327 364.627401 L 124.822771 364.627401 L 124.822771 557.742843 L 5.321327 557.742843 Z M 5.321327 364.627401 " transform="matrix(0.028177, 0, 0, 0.028177, 0.0141237, -2.977217)"/>
<path fill="none" stroke-width="21.246016" stroke-linecap="butt" stroke-linejoin="miter" stroke="rgb(0%, 0%, 0%)" stroke-opacity="1" stroke-miterlimit="4" d="M 17.52101 364.627401 L 64.517518 441.429953 L 113.316251 365.320564 " transform="matrix(0.028177, 0, 0, 0.028177, 0.0141237, -2.977217)"/>
<path fill="none" stroke-width="21.246016" stroke-linecap="butt" stroke-linejoin="miter" stroke="rgb(0%, 0%, 0%)" stroke-opacity="1" stroke-miterlimit="4" d="M 114.841212 557.60421 L 64.378885 480.801658 L 16.827846 556.356515 " transform="matrix(0.028177, 0, 0, 0.028177, 0.0141237, -2.977217)"/>
</svg>
