<?xml version="1.0" encoding="UTF-8"?>
<svg xmlns="http://www.w3.org/2000/svg" xmlns:xlink="http://www.w3.org/1999/xlink" width="8.5" height="25.3475" viewBox="0 0 8.5 25.3475">
<path fill-rule="nonzero" fill="rgb(0%, 0%, 0%)" fill-opacity="1" d="M 0.160156 1.109375 L 1.269531 0 L 7.351562 0.0195312 L 8.34375 1.109375 L 8.34375 17.613281 L 0.160156 17.613281 Z M 0.160156 1.109375 "/>
<path fill-rule="nonzero" fill="rgb(100%, 94.117647%, 23.529412%)" fill-opacity="1" d="M 4.152344 15.074219 C 4.152344 16.003906 3.402344 16.75 2.476562 16.75 C 1.546875 16.75 0.796875 16.003906 0.796875 15.074219 C 0.796875 14.148438 1.546875 13.398438 2.476562 13.398438 C 3.402344 13.398438 4.152344 14.148438 4.152344 15.074219 Z M 4.152344 15.074219 "/>
<path fill-rule="nonzero" fill="rgb(0%, 0%, 0%)" fill-opacity="1" d="M 0.160156 18.1875 L 8.347656 18.1875 L 8.347656 25.347656 L 0.160156 25.347656 Z M 0.160156 18.1875 "/>
<path fill-rule="nonzero" fill="rgb(41.176471%, 93.333333%, 44.313725%)" fill-opacity="1" d="M 2.136719 20.125 C 2.136719 20.65625 1.703125 21.089844 1.164062 21.089844 C 0.632812 21.089844 0.199219 20.65625 0.199219 20.125 C 0.199219 19.59375 0.632812 19.160156 1.164062 19.160156 C 1.703125 19.160156 2.136719 19.59375 2.136719 20.125 Z M 2.136719 20.125 "/>
<path fill-rule="nonzero" fill="rgb(41.176471%, 93.333333%, 44.313725%)" fill-opacity="1" d="M 4.191406 20.125 C 4.191406 20.65625 3.757812 21.089844 3.222656 21.089844 C 2.6875 21.089844 2.253906 20.65625 2.253906 20.125 C 2.253906 19.59375 2.6875 19.160156 3.222656 19.160156 C 3.757812 19.160156 4.191406 19.59375 4.191406 20.125 Z M 4.191406 20.125 "/>
<path fill-rule="nonzero" fill="rgb(41.176471%, 93.333333%, 44.313725%)" fill-opacity="1" d="M 6.242188 20.125 C 6.242188 20.65625 5.8125 21.089844 5.277344 21.089844 C 4.746094 21.089844 4.3125 20.65625 4.3125 20.125 C 4.3125 19.59375 4.746094 19.160156 5.277344 19.160156 C 5.8125 19.160156 6.242188 19.59375 6.242188 20.125 Z M 6.242188 20.125 "/>
<path fill-rule="nonzero" fill="rgb(41.176471%, 93.333333%, 44.313725%)" fill-opacity="1" d="M 8.296875 20.125 C 8.296875 20.65625 7.867188 21.089844 7.332031 21.089844 C 6.800781 21.089844 6.367188 20.65625 6.367188 20.125 C 6.367188 19.59375 6.800781 19.160156 7.332031 19.160156 C 7.867188 19.160156 8.296875 19.59375 8.296875 20.125 Z M 8.296875 20.125 "/>
<path fill-rule="nonzero" fill="rgb(100%, 94.117647%, 23.529412%)" fill-opacity="1" d="M 4.152344 3 C 4.152344 3.929688 3.402344 4.679688 2.476562 4.679688 C 1.546875 4.679688 0.796875 3.929688 0.796875 3 C 0.796875 2.074219 1.546875 1.324219 2.476562 1.324219 C 3.402344 1.324219 4.152344 2.074219 4.152344 3 Z M 4.152344 3 "/>
</svg>
