<?xml version="1.0" encoding="UTF-8"?>
<svg xmlns="http://www.w3.org/2000/svg" xmlns:xlink="http://www.w3.org/1999/xlink" width="5.365421" height="16" viewBox="0 0 5.365421 16">
<path fill-rule="nonzero" fill="rgb(0%, 0%, 0%)" fill-opacity="1" d="M 0.101562 0.699219 L 0.800781 0 L 4.640625 0.0117188 L 5.265625 0.699219 L 5.265625 11.117188 L 0.101562 11.117188 Z M 0.101562 0.699219 "/>
<path fill-rule="nonzero" fill="rgb(100%, 94.117647%, 23.529412%)" fill-opacity="1" d="M 2.621094 9.515625 C 2.621094 10.101562 2.148438 10.574219 1.5625 10.574219 C 0.976562 10.574219 0.503906 10.101562 0.503906 9.515625 C 0.503906 8.929688 0.976562 8.457031 1.5625 8.457031 C 2.148438 8.457031 2.621094 8.929688 2.621094 9.515625 Z M 2.621094 9.515625 "/>
<path fill-rule="nonzero" fill="rgb(0%, 0%, 0%)" fill-opacity="1" d="M 0.101562 11.480469 L 5.269531 11.480469 L 5.269531 16 L 0.101562 16 Z M 0.101562 11.480469 "/>
<path fill-rule="nonzero" fill="rgb(41.176471%, 93.333334%, 44.313726%)" fill-opacity="1" d="M 1.347656 12.703125 C 1.347656 13.039062 1.074219 13.3125 0.734375 13.3125 C 0.398438 13.3125 0.125 13.039062 0.125 12.703125 C 0.125 12.367188 0.398438 12.09375 0.734375 12.09375 C 1.074219 12.09375 1.347656 12.367188 1.347656 12.703125 Z M 1.347656 12.703125 "/>
<path fill-rule="nonzero" fill="rgb(41.176471%, 93.333334%, 44.313726%)" fill-opacity="1" d="M 2.644531 12.703125 C 2.644531 13.039062 2.371094 13.3125 2.035156 13.3125 C 1.695312 13.3125 1.421875 13.039062 1.421875 12.703125 C 1.421875 12.367188 1.695312 12.09375 2.035156 12.09375 C 2.371094 12.09375 2.644531 12.367188 2.644531 12.703125 Z M 2.644531 12.703125 "/>
<path fill-rule="nonzero" fill="rgb(41.176471%, 93.333334%, 44.313726%)" fill-opacity="1" d="M 3.941406 12.703125 C 3.941406 13.039062 3.667969 13.3125 3.332031 13.3125 C 2.996094 13.3125 2.722656 13.039062 2.722656 12.703125 C 2.722656 12.367188 2.996094 12.09375 3.332031 12.09375 C 3.667969 12.09375 3.941406 12.367188 3.941406 12.703125 Z M 3.941406 12.703125 "/>
<path fill-rule="nonzero" fill="rgb(41.176471%, 93.333334%, 44.313726%)" fill-opacity="1" d="M 5.238281 12.703125 C 5.238281 13.039062 4.964844 13.3125 4.628906 13.3125 C 4.292969 13.3125 4.019531 13.039062 4.019531 12.703125 C 4.019531 12.367188 4.292969 12.09375 4.628906 12.09375 C 4.964844 12.09375 5.238281 12.367188 5.238281 12.703125 Z M 5.238281 12.703125 "/>
<path fill-rule="nonzero" fill="rgb(100%, 94.117647%, 23.529412%)" fill-opacity="1" d="M 2.621094 1.894531 C 2.621094 2.480469 2.148438 2.953125 1.5625 2.953125 C 0.976562 2.953125 0.503906 2.480469 0.503906 1.894531 C 0.503906 1.308594 0.976562 0.835938 1.5625 0.835938 C 2.148438 0.835938 2.621094 1.308594 2.621094 1.894531 Z M 2.621094 1.894531 "/>
</svg>
