<?xml version="1.0" encoding="UTF-8"?>
<svg xmlns="http://www.w3.org/2000/svg" xmlns:xlink="http://www.w3.org/1999/xlink" width="5.365421" height="16" viewBox="0 0 5.365421 16">
<path fill-rule="nonzero" fill="rgb(0%, 0%, 0%)" fill-opacity="1" d="M 0.101562 0.699219 L 0.800781 0 L 4.640625 0.0117188 L 5.265625 0.699219 L 5.265625 11.117188 L 0.101562 11.117188 Z M 0.101562 0.699219 "/>
<path fill-rule="nonzero" fill="rgb(100%, 94.117647%, 23.529412%)" fill-opacity="1" d="M 2.621094 9.515625 C 2.621094 10.101562 2.148438 10.574219 1.5625 10.574219 C 0.976562 10.574219 0.503906 10.101562 0.503906 9.515625 C 0.503906 8.929688 0.976562 8.457031 1.5625 8.457031 C 2.148438 8.457031 2.621094 8.929688 2.621094 9.515625 Z M 2.621094 9.515625 "/>
<path fill-rule="nonzero" fill="rgb(0%, 0%, 0%)" fill-opacity="1" d="M 0.101562 11.480469 L 5.269531 11.480469 L 5.269531 16 L 0.101562 16 Z M 0.101562 11.480469 "/>
<path fill-rule="nonzero" fill="rgb(100%, 94.117647%, 23.529412%)" fill-opacity="1" d="M 1.347656 14.523438 C 1.347656 14.859375 1.074219 15.132812 0.734375 15.132812 C 0.398438 15.132812 0.125 14.859375 0.125 14.523438 C 0.125 14.183594 0.398438 13.910156 0.734375 13.910156 C 1.074219 13.910156 1.347656 14.183594 1.347656 14.523438 Z M 1.347656 14.523438 "/>
<path fill-rule="nonzero" fill="rgb(100%, 94.117647%, 23.529412%)" fill-opacity="1" d="M 2.644531 14.523438 C 2.644531 14.859375 2.371094 15.132812 2.035156 15.132812 C 1.695312 15.132812 1.421875 14.859375 1.421875 14.523438 C 1.421875 14.183594 1.695312 13.910156 2.035156 13.910156 C 2.371094 13.910156 2.644531 14.183594 2.644531 14.523438 Z M 2.644531 14.523438 "/>
<path fill-rule="nonzero" fill="rgb(100%, 94.117647%, 23.529412%)" fill-opacity="1" d="M 3.941406 14.523438 C 3.941406 14.859375 3.667969 15.132812 3.332031 15.132812 C 2.996094 15.132812 2.722656 14.859375 2.722656 14.523438 C 2.722656 14.183594 2.996094 13.910156 3.332031 13.910156 C 3.667969 13.910156 3.941406 14.183594 3.941406 14.523438 Z M 3.941406 14.523438 "/>
<path fill-rule="nonzero" fill="rgb(100%, 94.117647%, 23.529412%)" fill-opacity="1" d="M 5.238281 14.523438 C 5.238281 14.859375 4.964844 15.132812 4.628906 15.132812 C 4.292969 15.132812 4.019531 14.859375 4.019531 14.523438 C 4.019531 14.183594 4.292969 13.910156 4.628906 13.910156 C 4.964844 13.910156 5.238281 14.183594 5.238281 14.523438 Z M 5.238281 14.523438 "/>
<path fill-rule="nonzero" fill="rgb(100%, 94.117647%, 23.529412%)" fill-opacity="1" d="M 2.621094 1.894531 C 2.621094 2.480469 2.148438 2.953125 1.5625 2.953125 C 0.976562 2.953125 0.503906 2.480469 0.503906 1.894531 C 0.503906 1.308594 0.976562 0.835938 1.5625 0.835938 C 2.148438 0.835938 2.621094 1.308594 2.621094 1.894531 Z M 2.621094 1.894531 "/>
</svg>
