<?xml version="1.0" encoding="UTF-8"?>
<svg xmlns="http://www.w3.org/2000/svg" xmlns:xlink="http://www.w3.org/1999/xlink" width="8.5" height="25.3475" viewBox="0 0 8.5 25.3475">
<path fill-rule="nonzero" fill="rgb(0%, 0%, 0%)" fill-opacity="1" d="M 0.160156 1.109375 L 1.269531 0 L 7.351562 0.0195312 L 8.34375 1.109375 L 8.34375 17.613281 L 0.160156 17.613281 Z M 0.160156 1.109375 "/>
<path fill-rule="nonzero" fill="rgb(100%, 94.117647%, 23.529412%)" fill-opacity="1" d="M 4.152344 15.074219 C 4.152344 16.003906 3.402344 16.75 2.476562 16.75 C 1.546875 16.75 0.796875 16.003906 0.796875 15.074219 C 0.796875 14.148438 1.546875 13.398438 2.476562 13.398438 C 3.402344 13.398438 4.152344 14.148438 4.152344 15.074219 Z M 4.152344 15.074219 "/>
<path fill-rule="nonzero" fill="rgb(0%, 0%, 0%)" fill-opacity="1" d="M 0.160156 18.1875 L 8.347656 18.1875 L 8.347656 25.347656 L 0.160156 25.347656 Z M 0.160156 18.1875 "/>
<path fill-rule="nonzero" fill="rgb(100%, 94.117647%, 23.529412%)" fill-opacity="1" d="M 2.136719 23.007812 C 2.136719 23.539062 1.703125 23.972656 1.164062 23.972656 C 0.632812 23.972656 0.199219 23.539062 0.199219 23.007812 C 0.199219 22.46875 0.632812 22.035156 1.164062 22.035156 C 1.703125 22.035156 2.136719 22.46875 2.136719 23.007812 Z M 2.136719 23.007812 "/>
<path fill-rule="nonzero" fill="rgb(100%, 94.117647%, 23.529412%)" fill-opacity="1" d="M 4.191406 23.007812 C 4.191406 23.539062 3.757812 23.972656 3.222656 23.972656 C 2.6875 23.972656 2.253906 23.539062 2.253906 23.007812 C 2.253906 22.46875 2.6875 22.035156 3.222656 22.035156 C 3.757812 22.035156 4.191406 22.46875 4.191406 23.007812 Z M 4.191406 23.007812 "/>
<path fill-rule="nonzero" fill="rgb(100%, 94.117647%, 23.529412%)" fill-opacity="1" d="M 6.242188 23.007812 C 6.242188 23.539062 5.8125 23.972656 5.277344 23.972656 C 4.746094 23.972656 4.3125 23.539062 4.3125 23.007812 C 4.3125 22.46875 4.746094 22.035156 5.277344 22.035156 C 5.8125 22.035156 6.242188 22.46875 6.242188 23.007812 Z M 6.242188 23.007812 "/>
<path fill-rule="nonzero" fill="rgb(100%, 94.117647%, 23.529412%)" fill-opacity="1" d="M 8.296875 23.007812 C 8.296875 23.539062 7.867188 23.972656 7.332031 23.972656 C 6.800781 23.972656 6.367188 23.539062 6.367188 23.007812 C 6.367188 22.46875 6.800781 22.035156 7.332031 22.035156 C 7.867188 22.035156 8.296875 22.46875 8.296875 23.007812 Z M 8.296875 23.007812 "/>
<path fill-rule="nonzero" fill="rgb(100%, 94.117647%, 23.529412%)" fill-opacity="1" d="M 4.152344 3 C 4.152344 3.929688 3.402344 4.679688 2.476562 4.679688 C 1.546875 4.679688 0.796875 3.929688 0.796875 3 C 0.796875 2.074219 1.546875 1.324219 2.476562 1.324219 C 3.402344 1.324219 4.152344 2.074219 4.152344 3 Z M 4.152344 3 "/>
</svg>
