<?xml version="1.0" encoding="UTF-8"?>
<svg xmlns="http://www.w3.org/2000/svg" xmlns:xlink="http://www.w3.org/1999/xlink" width="8.5" height="18.296614" viewBox="0 0 8.5 18.296614">
<path fill-rule="nonzero" fill="rgb(0%, 0%, 0%)" fill-opacity="1" d="M 0 1.152344 L 1.152344 0 L 7.472656 0.0195312 L 8.5 1.152344 L 8.5 18.296875 L 0 18.296875 Z M 0 1.152344 "/>
<path fill-rule="nonzero" fill="rgb(100%, 94.117647%, 23.529412%)" fill-opacity="1" d="M 4.144531 3.117188 C 4.144531 4.082031 3.367188 4.859375 2.402344 4.859375 C 1.4375 4.859375 0.660156 4.082031 0.660156 3.117188 C 0.660156 2.152344 1.4375 1.375 2.402344 1.375 C 3.367188 1.375 4.144531 2.152344 4.144531 3.117188 Z M 4.144531 3.117188 "/>
<path fill-rule="nonzero" fill="rgb(100%, 94.117647%, 23.529412%)" fill-opacity="1" d="M 4.144531 15.660156 C 4.144531 16.621094 3.367188 17.402344 2.402344 17.402344 C 1.4375 17.402344 0.660156 16.621094 0.660156 15.660156 C 0.660156 14.695312 1.4375 13.917969 2.402344 13.917969 C 3.367188 13.917969 4.144531 14.695312 4.144531 15.660156 Z M 4.144531 15.660156 "/>
</svg>
