<?xml version="1.0" encoding="UTF-8"?>
<svg xmlns="http://www.w3.org/2000/svg" xmlns:xlink="http://www.w3.org/1999/xlink" width="7.433069" height="16" viewBox="0 0 7.433069 16">
<path fill-rule="nonzero" fill="rgb(0%, 0%, 0%)" fill-opacity="1" d="M 0 1.007812 L 1.007812 0 L 6.535156 0.015625 L 7.433594 1.007812 L 7.433594 16 L 0 16 Z M 0 1.007812 "/>
<path fill-rule="nonzero" fill="rgb(100%, 94.117647%, 23.529412%)" fill-opacity="1" d="M 3.625 2.726562 C 3.625 3.570312 2.945312 4.25 2.101562 4.25 C 1.257812 4.25 0.578125 3.570312 0.578125 2.726562 C 0.578125 1.882812 1.257812 1.203125 2.101562 1.203125 C 2.945312 1.203125 3.625 1.882812 3.625 2.726562 Z M 3.625 2.726562 "/>
<path fill-rule="nonzero" fill="rgb(100%, 94.117647%, 23.529412%)" fill-opacity="1" d="M 3.625 13.695312 C 3.625 14.535156 2.945312 15.21875 2.101562 15.21875 C 1.257812 15.21875 0.578125 14.535156 0.578125 13.695312 C 0.578125 12.851562 1.257812 12.171875 2.101562 12.171875 C 2.945312 12.171875 3.625 12.851562 3.625 13.695312 Z M 3.625 13.695312 "/>
</svg>
