<?xml version="1.0" encoding="UTF-8"?>
<svg xmlns="http://www.w3.org/2000/svg" xmlns:xlink="http://www.w3.org/1999/xlink" width="8.048131" height="24" viewBox="0 0 8.048131 24">
<path fill-rule="nonzero" fill="rgb(0%, 0%, 0%)" fill-opacity="1" d="M 0.152344 1.050781 L 1.203125 0 L 6.964844 0.015625 L 7.898438 1.050781 L 7.898438 16.675781 L 0.152344 16.675781 Z M 0.152344 1.050781 "/>
<path fill-rule="nonzero" fill="rgb(41.176471%, 93.333334%, 44.313726%)" fill-opacity="1" d="M 7.125 2.839844 C 7.125 3.71875 6.414062 4.429688 5.535156 4.429688 C 4.660156 4.429688 3.949219 3.71875 3.949219 2.839844 C 3.949219 1.964844 4.660156 1.253906 5.535156 1.253906 C 6.414062 1.253906 7.125 1.964844 7.125 2.839844 Z M 7.125 2.839844 "/>
<path fill-rule="nonzero" fill="rgb(100%, 94.117647%, 23.529412%)" fill-opacity="1" d="M 3.929688 14.273438 C 3.929688 15.148438 3.21875 15.859375 2.34375 15.859375 C 1.464844 15.859375 0.753906 15.148438 0.753906 14.273438 C 0.753906 13.394531 1.464844 12.683594 2.34375 12.683594 C 3.21875 12.683594 3.929688 13.394531 3.929688 14.273438 Z M 3.929688 14.273438 "/>
<path fill-rule="nonzero" fill="rgb(0%, 0%, 0%)" fill-opacity="1" d="M 0.152344 17.222656 L 7.90625 17.222656 L 7.90625 24 L 0.152344 24 Z M 0.152344 17.222656 "/>
<path fill-rule="nonzero" fill="rgb(41.176471%, 93.333334%, 44.313726%)" fill-opacity="1" d="M 2.019531 19.054688 C 2.019531 19.5625 1.609375 19.972656 1.105469 19.972656 C 0.597656 19.972656 0.1875 19.5625 0.1875 19.054688 C 0.1875 18.550781 0.597656 18.140625 1.105469 18.140625 C 1.609375 18.140625 2.019531 18.550781 2.019531 19.054688 Z M 2.019531 19.054688 "/>
<path fill-rule="nonzero" fill="rgb(41.176471%, 93.333334%, 44.313726%)" fill-opacity="1" d="M 3.964844 19.054688 C 3.964844 19.5625 3.554688 19.972656 3.050781 19.972656 C 2.546875 19.972656 2.136719 19.5625 2.136719 19.054688 C 2.136719 18.550781 2.546875 18.140625 3.050781 18.140625 C 3.554688 18.140625 3.964844 18.550781 3.964844 19.054688 Z M 3.964844 19.054688 "/>
<path fill-rule="nonzero" fill="rgb(41.176471%, 93.333334%, 44.313726%)" fill-opacity="1" d="M 5.914062 19.054688 C 5.914062 19.5625 5.503906 19.972656 4.996094 19.972656 C 4.492188 19.972656 4.082031 19.5625 4.082031 19.054688 C 4.082031 18.550781 4.492188 18.140625 4.996094 18.140625 C 5.503906 18.140625 5.914062 18.550781 5.914062 19.054688 Z M 5.914062 19.054688 "/>
<path fill-rule="nonzero" fill="rgb(41.176471%, 93.333334%, 44.313726%)" fill-opacity="1" d="M 7.859375 19.054688 C 7.859375 19.5625 7.449219 19.972656 6.945312 19.972656 C 6.4375 19.972656 6.027344 19.5625 6.027344 19.054688 C 6.027344 18.550781 6.4375 18.140625 6.945312 18.140625 C 7.449219 18.140625 7.859375 18.550781 7.859375 19.054688 Z M 7.859375 19.054688 "/>
</svg>
