<?xml version="1.0" encoding="UTF-8"?>
<svg xmlns="http://www.w3.org/2000/svg" xmlns:xlink="http://www.w3.org/1999/xlink" width="8.5" height="25.3475" viewBox="0 0 8.5 25.3475">
<path fill-rule="nonzero" fill="rgb(0%, 0%, 0%)" fill-opacity="1" d="M 0.160156 1.109375 L 1.269531 0 L 7.355469 0.015625 L 8.34375 1.109375 L 8.34375 17.613281 L 0.160156 17.613281 Z M 0.160156 1.109375 "/>
<path fill-rule="nonzero" fill="rgb(41.176471%, 93.333333%, 44.313725%)" fill-opacity="1" d="M 7.523438 3 C 7.523438 3.925781 6.773438 4.679688 5.847656 4.679688 C 4.921875 4.679688 4.171875 3.925781 4.171875 3 C 4.171875 2.074219 4.921875 1.324219 5.847656 1.324219 C 6.773438 1.324219 7.523438 2.074219 7.523438 3 Z M 7.523438 3 "/>
<path fill-rule="nonzero" fill="rgb(100%, 94.117647%, 23.529412%)" fill-opacity="1" d="M 4.148438 15.074219 C 4.148438 16 3.398438 16.75 2.476562 16.75 C 1.546875 16.75 0.796875 16 0.796875 15.074219 C 0.796875 14.148438 1.546875 13.394531 2.476562 13.394531 C 3.398438 13.394531 4.148438 14.148438 4.148438 15.074219 Z M 4.148438 15.074219 "/>
<path fill-rule="nonzero" fill="rgb(0%, 0%, 0%)" fill-opacity="1" d="M 0.160156 18.191406 L 8.351562 18.191406 L 8.351562 25.347656 L 0.160156 25.347656 Z M 0.160156 18.191406 "/>
<path fill-rule="nonzero" fill="rgb(41.176471%, 93.333333%, 44.313725%)" fill-opacity="1" d="M 2.132812 20.125 C 2.132812 20.660156 1.699219 21.09375 1.167969 21.09375 C 0.632812 21.09375 0.199219 20.660156 0.199219 20.125 C 0.199219 19.59375 0.632812 19.160156 1.167969 19.160156 C 1.699219 19.160156 2.132812 19.59375 2.132812 20.125 Z M 2.132812 20.125 "/>
<path fill-rule="nonzero" fill="rgb(41.176471%, 93.333333%, 44.313725%)" fill-opacity="1" d="M 4.1875 20.125 C 4.1875 20.660156 3.753906 21.09375 3.222656 21.09375 C 2.691406 21.09375 2.257812 20.660156 2.257812 20.125 C 2.257812 19.59375 2.691406 19.160156 3.222656 19.160156 C 3.753906 19.160156 4.1875 19.59375 4.1875 20.125 Z M 4.1875 20.125 "/>
<path fill-rule="nonzero" fill="rgb(41.176471%, 93.333333%, 44.313725%)" fill-opacity="1" d="M 6.246094 20.125 C 6.246094 20.660156 5.8125 21.09375 5.277344 21.09375 C 4.746094 21.09375 4.3125 20.660156 4.3125 20.125 C 4.3125 19.59375 4.746094 19.160156 5.277344 19.160156 C 5.8125 19.160156 6.246094 19.59375 6.246094 20.125 Z M 6.246094 20.125 "/>
<path fill-rule="nonzero" fill="rgb(41.176471%, 93.333333%, 44.313725%)" fill-opacity="1" d="M 8.300781 20.125 C 8.300781 20.660156 7.867188 21.09375 7.335938 21.09375 C 6.800781 21.09375 6.367188 20.660156 6.367188 20.125 C 6.367188 19.59375 6.800781 19.160156 7.335938 19.160156 C 7.867188 19.160156 8.300781 19.59375 8.300781 20.125 Z M 8.300781 20.125 "/>
</svg>
