<?xml version="1.0" encoding="UTF-8"?>
<svg xmlns="http://www.w3.org/2000/svg" xmlns:xlink="http://www.w3.org/1999/xlink" width="7.433069" height="16" viewBox="0 0 7.433069 16">
<path fill-rule="nonzero" fill="rgb(0%, 0%, 0%)" fill-opacity="1" d="M 0 1.007812 L 1.007812 0 L 6.535156 0.015625 L 7.433594 1.007812 L 7.433594 16 L 0 16 Z M 0 1.007812 "/>
<path fill-rule="nonzero" fill="rgb(41.176471%, 93.333334%, 44.313726%)" fill-opacity="1" d="M 6.691406 2.726562 C 6.691406 3.570312 6.007812 4.25 5.167969 4.25 C 4.324219 4.25 3.640625 3.570312 3.640625 2.726562 C 3.640625 1.882812 4.324219 1.203125 5.167969 1.203125 C 6.007812 1.203125 6.691406 1.882812 6.691406 2.726562 Z M 6.691406 2.726562 "/>
<path fill-rule="nonzero" fill="rgb(100%, 94.117647%, 23.529412%)" fill-opacity="1" d="M 3.625 13.695312 C 3.625 14.535156 2.945312 15.21875 2.101562 15.21875 C 1.257812 15.21875 0.578125 14.535156 0.578125 13.695312 C 0.578125 12.851562 1.257812 12.171875 2.101562 12.171875 C 2.945312 12.171875 3.625 12.851562 3.625 13.695312 Z M 3.625 13.695312 "/>
</svg>
