<?xml version="1.0" encoding="UTF-8"?>
<svg xmlns="http://www.w3.org/2000/svg" xmlns:xlink="http://www.w3.org/1999/xlink" width="8.5" height="25.3475" viewBox="0 0 8.5 25.3475">
<path fill-rule="nonzero" fill="rgb(0%, 0%, 0%)" fill-opacity="1" d="M 0.160156 1.109375 L 1.269531 0 L 7.355469 0.015625 L 8.34375 1.109375 L 8.34375 17.613281 L 0.160156 17.613281 Z M 0.160156 1.109375 "/>
<path fill-rule="nonzero" fill="rgb(41.176471%, 93.333333%, 44.313725%)" fill-opacity="1" d="M 7.523438 3 C 7.523438 3.925781 6.773438 4.679688 5.847656 4.679688 C 4.921875 4.679688 4.171875 3.925781 4.171875 3 C 4.171875 2.074219 4.921875 1.324219 5.847656 1.324219 C 6.773438 1.324219 7.523438 2.074219 7.523438 3 Z M 7.523438 3 "/>
<path fill-rule="nonzero" fill="rgb(100%, 94.117647%, 23.529412%)" fill-opacity="1" d="M 4.148438 15.074219 C 4.148438 16 3.398438 16.75 2.476562 16.75 C 1.546875 16.75 0.796875 16 0.796875 15.074219 C 0.796875 14.148438 1.546875 13.394531 2.476562 13.394531 C 3.398438 13.394531 4.148438 14.148438 4.148438 15.074219 Z M 4.148438 15.074219 "/>
<path fill-rule="nonzero" fill="rgb(0%, 0%, 0%)" fill-opacity="1" d="M 0.160156 18.191406 L 8.351562 18.191406 L 8.351562 25.347656 L 0.160156 25.347656 Z M 0.160156 18.191406 "/>
<path fill-rule="nonzero" fill="rgb(100%, 94.117647%, 23.529412%)" fill-opacity="1" d="M 2.132812 23.007812 C 2.132812 23.539062 1.699219 23.972656 1.167969 23.972656 C 0.632812 23.972656 0.199219 23.539062 0.199219 23.007812 C 0.199219 22.472656 0.632812 22.039062 1.167969 22.039062 C 1.699219 22.039062 2.132812 22.472656 2.132812 23.007812 Z M 2.132812 23.007812 "/>
<path fill-rule="nonzero" fill="rgb(100%, 94.117647%, 23.529412%)" fill-opacity="1" d="M 4.1875 23.007812 C 4.1875 23.539062 3.753906 23.972656 3.222656 23.972656 C 2.691406 23.972656 2.257812 23.539062 2.257812 23.007812 C 2.257812 22.472656 2.691406 22.039062 3.222656 22.039062 C 3.753906 22.039062 4.1875 22.472656 4.1875 23.007812 Z M 4.1875 23.007812 "/>
<path fill-rule="nonzero" fill="rgb(100%, 94.117647%, 23.529412%)" fill-opacity="1" d="M 6.246094 23.007812 C 6.246094 23.539062 5.8125 23.972656 5.277344 23.972656 C 4.746094 23.972656 4.3125 23.539062 4.3125 23.007812 C 4.3125 22.472656 4.746094 22.039062 5.277344 22.039062 C 5.8125 22.039062 6.246094 22.472656 6.246094 23.007812 Z M 6.246094 23.007812 "/>
<path fill-rule="nonzero" fill="rgb(100%, 94.117647%, 23.529412%)" fill-opacity="1" d="M 8.300781 23.007812 C 8.300781 23.539062 7.867188 23.972656 7.335938 23.972656 C 6.800781 23.972656 6.367188 23.539062 6.367188 23.007812 C 6.367188 22.472656 6.800781 22.039062 7.335938 22.039062 C 7.867188 22.039062 8.300781 22.472656 8.300781 23.007812 Z M 8.300781 23.007812 "/>
</svg>
