<?xml version="1.0" encoding="UTF-8"?>
<svg xmlns="http://www.w3.org/2000/svg" xmlns:xlink="http://www.w3.org/1999/xlink" width="8.048131" height="24" viewBox="0 0 8.048131 24">
<path fill-rule="nonzero" fill="rgb(0%, 0%, 0%)" fill-opacity="1" d="M 0.152344 1.050781 L 1.203125 0 L 6.964844 0.015625 L 7.898438 1.050781 L 7.898438 16.675781 L 0.152344 16.675781 Z M 0.152344 1.050781 "/>
<path fill-rule="nonzero" fill="rgb(41.176471%, 93.333334%, 44.313726%)" fill-opacity="1" d="M 7.125 2.839844 C 7.125 3.71875 6.414062 4.429688 5.535156 4.429688 C 4.660156 4.429688 3.949219 3.71875 3.949219 2.839844 C 3.949219 1.964844 4.660156 1.253906 5.535156 1.253906 C 6.414062 1.253906 7.125 1.964844 7.125 2.839844 Z M 7.125 2.839844 "/>
<path fill-rule="nonzero" fill="rgb(100%, 94.117647%, 23.529412%)" fill-opacity="1" d="M 3.929688 14.273438 C 3.929688 15.148438 3.21875 15.859375 2.34375 15.859375 C 1.464844 15.859375 0.753906 15.148438 0.753906 14.273438 C 0.753906 13.394531 1.464844 12.683594 2.34375 12.683594 C 3.21875 12.683594 3.929688 13.394531 3.929688 14.273438 Z M 3.929688 14.273438 "/>
<path fill-rule="nonzero" fill="rgb(0%, 0%, 0%)" fill-opacity="1" d="M 0.152344 17.222656 L 7.90625 17.222656 L 7.90625 24 L 0.152344 24 Z M 0.152344 17.222656 "/>
<path fill-rule="nonzero" fill="rgb(100%, 94.117647%, 23.529412%)" fill-opacity="1" d="M 2.019531 21.785156 C 2.019531 22.289062 1.609375 22.699219 1.105469 22.699219 C 0.597656 22.699219 0.1875 22.289062 0.1875 21.785156 C 0.1875 21.277344 0.597656 20.867188 1.105469 20.867188 C 1.609375 20.867188 2.019531 21.277344 2.019531 21.785156 Z M 2.019531 21.785156 "/>
<path fill-rule="nonzero" fill="rgb(100%, 94.117647%, 23.529412%)" fill-opacity="1" d="M 3.964844 21.785156 C 3.964844 22.289062 3.554688 22.699219 3.050781 22.699219 C 2.546875 22.699219 2.136719 22.289062 2.136719 21.785156 C 2.136719 21.277344 2.546875 20.867188 3.050781 20.867188 C 3.554688 20.867188 3.964844 21.277344 3.964844 21.785156 Z M 3.964844 21.785156 "/>
<path fill-rule="nonzero" fill="rgb(100%, 94.117647%, 23.529412%)" fill-opacity="1" d="M 5.914062 21.785156 C 5.914062 22.289062 5.503906 22.699219 4.996094 22.699219 C 4.492188 22.699219 4.082031 22.289062 4.082031 21.785156 C 4.082031 21.277344 4.492188 20.867188 4.996094 20.867188 C 5.503906 20.867188 5.914062 21.277344 5.914062 21.785156 Z M 5.914062 21.785156 "/>
<path fill-rule="nonzero" fill="rgb(100%, 94.117647%, 23.529412%)" fill-opacity="1" d="M 7.859375 21.785156 C 7.859375 22.289062 7.449219 22.699219 6.945312 22.699219 C 6.4375 22.699219 6.027344 22.289062 6.027344 21.785156 C 6.027344 21.277344 6.4375 20.867188 6.945312 20.867188 C 7.449219 20.867188 7.859375 21.277344 7.859375 21.785156 Z M 7.859375 21.785156 "/>
</svg>
