<?xml version="1.0" encoding="UTF-8"?>
<svg xmlns="http://www.w3.org/2000/svg" xmlns:xlink="http://www.w3.org/1999/xlink" width="16" height="16" viewBox="0 0 16 16">
<path fill-rule="nonzero" fill="rgb(0%, 0%, 0%)" fill-opacity="1" d="M 1.972656 0 L 3.347656 0 L 3.347656 16 L 1.972656 16 Z M 1.972656 0 "/>
<path fill-rule="nonzero" fill="rgb(100%, 100%, 100%)" fill-opacity="1" stroke-width="54.789864" stroke-linecap="butt" stroke-linejoin="miter" stroke="rgb(74.901962%, 13.333334%, 20.392157%)" stroke-opacity="1" stroke-miterlimit="4" d="M 615.652445 280.12633 L 27.476506 280.12633 L 27.476506 129.787399 L 615.652445 129.787399 " transform="matrix(0.0174865, 0, 0, 0.0174865, 0, 0)"/>
<path fill-rule="nonzero" fill="rgb(100%, 100%, 100%)" fill-opacity="1" stroke-width="59.132637" stroke-linecap="round" stroke-linejoin="round" stroke="rgb(74.901962%, 13.333334%, 20.392157%)" stroke-opacity="1" stroke-miterlimit="4" d="M 882.598987 204.398399 C 882.598987 298.667387 806.200897 375.065477 711.931909 375.065477 C 617.662921 375.065477 541.264831 298.667387 541.264831 204.398399 C 541.264831 110.12941 617.662921 33.73132 711.931909 33.73132 C 806.200897 33.73132 882.598987 110.12941 882.598987 204.398399 Z M 882.598987 204.398399 " transform="matrix(0.0174865, 0, 0, 0.0174865, 0, 0)"/>
</svg>
