<?xml version="1.0" encoding="UTF-8"?>
<svg xmlns="http://www.w3.org/2000/svg" xmlns:xlink="http://www.w3.org/1999/xlink" width="8.610568" height="16" viewBox="0 0 8.610568 16">
<path fill-rule="nonzero" fill="rgb(0%, 0%, 0%)" fill-opacity="1" d="M 0 0 L 8.609375 0 L 8.609375 16 L 0 16 Z M 0 0 "/>
<path fill-rule="nonzero" fill="rgb(23.529412%, 87.843138%, 71.764708%)" fill-opacity="1" d="M 4.46875 2.992188 C 4.46875 3.980469 3.664062 4.78125 2.675781 4.78125 C 1.6875 4.78125 0.886719 3.980469 0.886719 2.992188 C 0.886719 2.003906 1.6875 1.199219 2.675781 1.199219 C 3.664062 1.199219 4.46875 2.003906 4.46875 2.992188 Z M 4.46875 2.992188 "/>
<path fill-rule="nonzero" fill="rgb(99.215686%, 79.215688%, 1.960784%)" fill-opacity="1" d="M 4.46875 13.324219 C 4.46875 14.3125 3.664062 15.113281 2.675781 15.113281 C 1.6875 15.113281 0.886719 14.3125 0.886719 13.324219 C 0.886719 12.335938 1.6875 11.53125 2.675781 11.53125 C 3.664062 11.53125 4.46875 12.335938 4.46875 13.324219 Z M 4.46875 13.324219 "/>
</svg>
