<?xml version="1.0" encoding="UTF-8"?>
<svg xmlns="http://www.w3.org/2000/svg" xmlns:xlink="http://www.w3.org/1999/xlink" width="12.19873" height="20" viewBox="0 0 12.19873 20">
<path fill-rule="nonzero" fill="rgb(0%, 0%, 0%)" fill-opacity="1" d="M 1.769531 1.863281 L 2.90625 1.863281 L 2.90625 20 L 1.769531 20 Z M 1.769531 1.863281 "/>
<path fill-rule="nonzero" fill="rgb(100%, 100%, 100%)" fill-opacity="1" stroke-width="54.789864" stroke-linecap="butt" stroke-linejoin="miter" stroke="rgb(74.901962%, 13.333334%, 20.392157%)" stroke-opacity="1" stroke-miterlimit="4" d="M 553.230958 876.604075 L 102.731275 1163.655317 L 27.376936 1033.276046 L 478.147677 746.495864 " transform="matrix(0.0144111, 0, 0, 0.0144111, 0, 0)"/>
<path fill-rule="nonzero" fill="rgb(100%, 100%, 100%)" fill-opacity="1" stroke-width="54.789864" stroke-linecap="butt" stroke-linejoin="miter" stroke="rgb(74.901962%, 13.333334%, 20.392157%)" stroke-opacity="1" stroke-miterlimit="4" d="M 553.230958 325.812646 L 102.731275 612.592829 L 27.376936 482.484618 L 478.147677 195.433376 " transform="matrix(0.0144111, 0, 0, 0.0144111, 0, 0)"/>
<path fill-rule="nonzero" fill="rgb(100%, 100%, 100%)" fill-opacity="1" stroke-width="57.826591" stroke-linecap="round" stroke-linejoin="round" stroke="rgb(74.901962%, 13.333334%, 20.392157%)" stroke-opacity="1" stroke-miterlimit="4" d="M 795.286443 112.489391 C 841.366434 192.180671 813.989498 294.369829 734.02716 340.44982 C 654.33588 386.529812 552.146723 359.152876 506.066731 279.190537 C 459.986739 199.499258 487.363676 97.3101 567.326014 51.230108 C 647.017294 5.150117 749.206451 32.527053 795.286443 112.489391 Z M 795.286443 112.489391 " transform="matrix(0.0144111, 0, 0, 0.0144111, 0, 0)"/>
<path fill-rule="nonzero" fill="rgb(100%, 100%, 100%)" fill-opacity="1" stroke-width="57.827114" stroke-linecap="round" stroke-linejoin="round" stroke="rgb(74.901962%, 13.333334%, 20.392157%)" stroke-opacity="1" stroke-miterlimit="4" d="M 795.286443 645.390941 C 841.366434 725.08222 813.989498 827.271378 734.02716 873.35137 C 654.33588 919.431361 552.146723 892.054425 506.066731 812.092087 C 459.986739 732.400807 487.363676 630.21165 567.326014 584.131658 C 647.017294 538.051666 749.206451 565.428603 795.286443 645.390941 Z M 795.286443 645.390941 " transform="matrix(0.0144111, 0, 0, 0.0144111, 0, 0)"/>
</svg>
