<?xml version="1.0" encoding="UTF-8"?>
<svg xmlns="http://www.w3.org/2000/svg" xmlns:xlink="http://www.w3.org/1999/xlink" width="16" height="16" viewBox="0 0 16 16">
<path fill-rule="nonzero" fill="rgb(100%, 100%, 100%)" fill-opacity="1" d="M 8 0 L 0 8 L 8 16 L 16 8 Z M 8 1.328125 L 14.671875 8 L 8 14.671875 L 1.328125 8 Z M 8 1.328125 "/>
<path fill-rule="nonzero" fill="rgb(100%, 100%, 100%)" fill-opacity="1" stroke-width="0.322558" stroke-linecap="square" stroke-linejoin="miter" stroke="rgb(0%, 0%, 0%)" stroke-opacity="1" stroke-miterlimit="4" d="M 0.828125 8 L 8 0.828125 L 15.171875 8 L 8 15.171875 Z M 0.824219 8 L 0.828125 8 M 0.828125 8 L 0.828125 8 M 0.824219 8 L 0.828125 8 M 0.828125 8 L 0.828125 8 M 0.824219 8 L 0.828125 8 M 0.828125 8 L 0.828125 8 M 0.824219 8 L 0.828125 8 M 0.828125 8 "/>
<path fill-rule="nonzero" fill="rgb(0%, 0%, 0%)" fill-opacity="1" d="M 4.632812 9.902344 L 3.835938 9.902344 L 3.835938 6.0625 L 4.632812 6.0625 Z M 4.234375 5.988281 Z M 4.234375 5.988281 "/>
<path fill-rule="nonzero" fill="rgb(0%, 0%, 0%)" fill-opacity="1" d="M 5.214844 8.015625 C 5.214844 7.34375 5.394531 6.828125 5.753906 6.464844 C 6.066406 6.148438 6.460938 5.992188 6.945312 5.992188 C 7.589844 5.992188 8.0625 6.203125 8.363281 6.625 C 8.527344 6.863281 8.617188 7.101562 8.628906 7.34375 L 7.824219 7.34375 C 7.773438 7.160156 7.707031 7.019531 7.625 6.925781 C 7.480469 6.757812 7.261719 6.675781 6.976562 6.675781 C 6.683594 6.675781 6.453125 6.792969 6.285156 7.03125 C 6.117188 7.265625 6.035156 7.597656 6.035156 8.027344 C 6.035156 8.457031 6.121094 8.78125 6.300781 8.996094 C 6.476562 9.210938 6.703125 9.316406 6.980469 9.316406 C 7.261719 9.316406 7.476562 9.222656 7.621094 9.039062 C 7.703125 8.941406 7.773438 8.792969 7.824219 8.59375 L 8.621094 8.59375 C 8.550781 9.011719 8.371094 9.355469 8.085938 9.617188 C 7.800781 9.878906 7.4375 10.007812 6.988281 10.007812 C 6.4375 10.007812 6.003906 9.832031 5.6875 9.476562 C 5.371094 9.121094 5.214844 8.632812 5.214844 8.015625 Z M 6.921875 5.945312 Z M 6.921875 5.945312 "/>
<path fill-rule="nonzero" fill="rgb(0%, 0%, 0%)" fill-opacity="1" d="M 12.070312 6.742188 L 10.039062 6.742188 L 10.039062 7.558594 L 11.902344 7.558594 L 11.902344 8.226562 L 10.039062 8.226562 L 10.039062 9.210938 L 12.164062 9.210938 L 12.164062 9.902344 L 9.253906 9.902344 L 9.253906 6.0625 L 12.070312 6.0625 Z M 12.070312 6.742188 "/>
</svg>
