<?xml version="1.0" encoding="UTF-8"?>
<svg xmlns="http://www.w3.org/2000/svg" xmlns:xlink="http://www.w3.org/1999/xlink" width="10.316603" height="16" viewBox="0 0 10.316603 16">
<path fill-rule="nonzero" fill="rgb(0%, 0%, 0%)" fill-opacity="1" d="M 0 0 L 10.316406 0 L 10.316406 16 L 0 16 Z M 0 0 "/>
<path fill-rule="nonzero" fill="rgb(99.215686%, 95.686275%, 16.862746%)" fill-opacity="1" d="M 9.414062 6.601562 C 9.414062 7.5 8.683594 8.230469 7.785156 8.230469 C 6.882812 8.230469 6.15625 7.5 6.15625 6.601562 C 6.15625 5.699219 6.882812 4.96875 7.785156 4.96875 C 8.683594 4.96875 9.414062 5.699219 9.414062 6.601562 Z M 9.414062 6.601562 "/>
<path fill-rule="nonzero" fill="rgb(100%, 100%, 100%)" fill-opacity="1" d="M 3.441406 12.148438 C 3.441406 12.539062 3.125 12.855469 2.730469 12.855469 C 2.339844 12.855469 2.019531 12.539062 2.023438 12.148438 C 2.019531 11.753906 2.339844 11.4375 2.730469 11.4375 C 3.125 11.4375 3.441406 11.753906 3.441406 12.148438 Z M 3.441406 12.148438 "/>
</svg>
