<?xml version="1.0" encoding="UTF-8"?>
<svg xmlns="http://www.w3.org/2000/svg" xmlns:xlink="http://www.w3.org/1999/xlink" width="13" height="18.436634" viewBox="0 0 13 18.436634">
<path fill-rule="nonzero" fill="rgb(100%, 83.92157%, 0%)" fill-opacity="1" stroke-width="0.417785" stroke-linecap="round" stroke-linejoin="round" stroke="rgb(0%, 0%, 0%)" stroke-opacity="1" stroke-miterlimit="4" d="M 0.209616 0.209616 L 12.708933 0.209616 L 12.708933 18.112364 L 0.209616 18.112364 Z M 0.209616 0.209616 " transform="matrix(1.006305, 0, 0, 1.006305, 0, 0)"/>
<path fill-rule="nonzero" fill="rgb(85.09804%, 44.313726%, 0%)" fill-opacity="1" stroke-width="0.493949" stroke-linecap="round" stroke-linejoin="round" stroke="rgb(100%, 100%, 100%)" stroke-opacity="1" stroke-miterlimit="4" d="M 0.450286 0.558976 L 12.468263 0.558976 L 12.468263 17.763005 L 0.450286 17.763005 Z M 0.450286 0.558976 " transform="matrix(1.006305, 0, 0, 1.006305, 0, 0)"/>
<path fill-rule="nonzero" fill="rgb(0%, 0%, 0%)" fill-opacity="1" d="M 8.261719 9.640625 L 8.261719 11.945312 C 8.269531 12.878906 7.484375 13.707031 6.5 13.707031 C 5.46875 13.707031 4.738281 12.871094 4.738281 11.945312 L 4.738281 11.414062 L 5.839844 11.414062 L 5.839844 11.945312 C 5.839844 12.320312 6.140625 12.601562 6.492188 12.601562 C 6.863281 12.601562 7.15625 12.300781 7.15625 11.945312 L 7.15625 9.679688 C 7.15625 9.292969 6.835938 9.019531 6.5 9.019531 C 6.226562 9.019531 5.945312 9.179688 5.839844 9.492188 L 4.742188 9.492188 L 4.742188 4.730469 L 8.261719 4.730469 L 8.261719 5.835938 L 5.839844 5.835938 L 5.839844 8.3125 C 6.140625 8.046875 6.460938 7.960938 6.863281 7.960938 C 7.789062 7.960938 8.261719 8.792969 8.261719 9.640625 Z M 8.261719 9.640625 "/>
</svg>
