<?xml version="1.0" encoding="UTF-8"?>
<svg xmlns="http://www.w3.org/2000/svg" xmlns:xlink="http://www.w3.org/1999/xlink" width="13" height="18.436634" viewBox="0 0 13 18.436634">
<path fill-rule="nonzero" fill="rgb(100%, 83.92157%, 0%)" fill-opacity="1" stroke-width="0.417785" stroke-linecap="round" stroke-linejoin="round" stroke="rgb(0%, 0%, 0%)" stroke-opacity="1" stroke-miterlimit="4" d="M 0.209616 0.209616 L 12.708933 0.209616 L 12.708933 18.112364 L 0.209616 18.112364 Z M 0.209616 0.209616 " transform="matrix(1.006305, 0, 0, 1.006305, 0, 0)"/>
<path fill-rule="nonzero" fill="rgb(85.09804%, 44.313726%, 0%)" fill-opacity="1" stroke-width="0.493949" stroke-linecap="round" stroke-linejoin="round" stroke="rgb(100%, 100%, 100%)" stroke-opacity="1" stroke-miterlimit="4" d="M 0.450286 0.558976 L 12.468263 0.558976 L 12.468263 17.763005 L 0.450286 17.763005 Z M 0.450286 0.558976 " transform="matrix(1.006305, 0, 0, 1.006305, 0, 0)"/>
<path fill-rule="nonzero" fill="rgb(0%, 0%, 0%)" fill-opacity="1" d="M 6.519531 4.699219 C 5.417969 4.699219 4.617188 5.4375 4.601562 6.621094 C 4.597656 6.621094 4.597656 6.621094 4.597656 6.621094 L 4.597656 7.628906 C 4.597656 8.074219 4.792969 8.597656 5.160156 8.960938 C 4.792969 9.320312 4.597656 9.824219 4.597656 10.269531 L 4.601562 11.816406 C 4.601562 12.992188 5.417969 13.734375 6.519531 13.734375 C 7.542969 13.734375 8.402344 13.011719 8.402344 11.816406 L 8.402344 10.269531 C 8.402344 9.824219 8.164062 9.246094 7.835938 8.953125 C 8.234375 8.570312 8.402344 8.058594 8.402344 7.613281 L 8.402344 6.621094 C 8.402344 5.421875 7.542969 4.699219 6.519531 4.699219 Z M 6.480469 5.835938 C 6.941406 5.832031 7.296875 6.121094 7.296875 6.59375 L 7.296875 7.59375 C 7.296875 8 7 8.402344 6.5 8.402344 C 5.996094 8.402344 5.699219 8 5.699219 7.59375 L 5.703125 6.578125 C 5.703125 6.113281 6.109375 5.84375 6.480469 5.835938 Z M 6.5 9.507812 C 6.964844 9.507812 7.296875 9.886719 7.296875 10.316406 L 7.296875 11.839844 C 7.296875 12.308594 6.941406 12.601562 6.480469 12.597656 C 6.109375 12.589844 5.703125 12.320312 5.703125 11.847656 L 5.699219 10.316406 C 5.699219 9.878906 6.046875 9.507812 6.5 9.507812 Z M 6.5 9.507812 "/>
</svg>
