<?xml version="1.0" encoding="UTF-8"?>
<svg xmlns="http://www.w3.org/2000/svg" xmlns:xlink="http://www.w3.org/1999/xlink" width="22.229904" height="19" viewBox="0 0 22.229904 19">
<path fill-rule="nonzero" fill="rgb(85.09804%, 44.313726%, 0%)" fill-opacity="1" stroke-width="15" stroke-linecap="round" stroke-linejoin="round" stroke="rgb(100%, 100%, 100%)" stroke-opacity="1" stroke-miterlimit="4" d="M 432.394138 -196.124225 C 290.026236 -195.88734 150.895763 -196.913841 17.213645 -197.30865 C 83.225607 -80.998101 156.344119 40.365995 222.35608 156.755506 C 290.65793 40.523919 364.17125 -79.734714 432.4731 -195.88734 C 430.341135 -192.176141 425.208626 -196.124225 432.394138 -196.124225 Z M 432.394138 -196.124225 " transform="matrix(0.0494702, 0, 0, 0.0494702, 0, 10.358555)"/>
<path fill="none" stroke-width="9" stroke-linecap="round" stroke-linejoin="round" stroke="rgb(0%, 0%, 0%)" stroke-opacity="1" stroke-miterlimit="4" d="M 441.553693 -202.99389 C 271.154396 -202.99389 141.262439 -203.625584 4.500816 -204.888971 C 70.512777 -88.578422 155.791387 53.868442 221.803348 170.178991 C 290.18416 54.026365 444.870083 -202.99389 444.870083 -202.99389 Z M 441.553693 -202.99389 " transform="matrix(0.0494702, 0, 0, 0.0494702, 0, 10.358555)"/>
<path fill-rule="nonzero" fill="rgb(0%, 0%, 0%)" fill-opacity="1" d="M 10.09375 2.386719 C 9.148438 2.390625 8.203125 3.03125 8.199219 4.300781 L 8.1875 4.300781 L 8.1875 9.542969 L 8.199219 9.542969 C 8.222656 12.101562 11.980469 12.074219 11.984375 9.542969 L 11.992188 9.542969 L 11.992188 4.300781 L 11.984375 4.300781 C 11.980469 3.011719 11.035156 2.378906 10.09375 2.386719 Z M 10.089844 3.523438 C 10.488281 3.519531 10.890625 3.773438 10.890625 4.300781 L 10.886719 4.300781 L 10.886719 9.542969 L 10.890625 9.542969 C 10.890625 10.574219 9.292969 10.574219 9.292969 9.519531 L 9.292969 4.300781 C 9.292969 3.789062 9.6875 3.527344 10.089844 3.523438 Z M 10.089844 3.523438 "/>
<path fill-rule="nonzero" fill="rgb(0%, 0%, 0%)" fill-opacity="1" d="M 15.347656 5.746094 L 15.347656 7.308594 C 15.351562 7.941406 14.824219 8.5 14.15625 8.5 C 13.457031 8.5 12.964844 7.929688 12.964844 7.308594 L 12.964844 6.945312 L 13.710938 6.945312 L 13.710938 7.308594 C 13.710938 7.558594 13.914062 7.753906 14.152344 7.75 C 14.402344 7.75 14.601562 7.550781 14.601562 7.308594 L 14.601562 5.769531 C 14.601562 5.511719 14.382812 5.328125 14.15625 5.328125 C 13.972656 5.328125 13.78125 5.433594 13.710938 5.644531 L 12.964844 5.644531 L 12.964844 2.417969 L 15.347656 2.417969 L 15.347656 3.167969 L 13.710938 3.167969 L 13.710938 4.847656 C 13.914062 4.664062 14.125 4.613281 14.402344 4.613281 C 15.027344 4.613281 15.347656 5.171875 15.347656 5.746094 Z M 15.347656 5.746094 "/>
<path fill-rule="nonzero" fill="rgb(96.862745%, 100%, 10.980392%)" fill-opacity="1" stroke-width="0.5" stroke-linecap="round" stroke-linejoin="miter" stroke="rgb(0%, 0%, 0%)" stroke-opacity="1" stroke-miterlimit="3" d="M 6.050781 12.066406 C 6.050781 13.1875 5.144531 14.09375 4.023438 14.09375 C 2.90625 14.09375 2 13.1875 2 12.066406 C 2 10.949219 2.90625 10.042969 4.023438 10.042969 C 5.144531 10.042969 6.050781 10.949219 6.050781 12.066406 Z M 6.050781 12.066406 "/>
<path fill-rule="nonzero" fill="rgb(96.862745%, 100%, 10.980392%)" fill-opacity="1" stroke-width="0.5" stroke-linecap="round" stroke-linejoin="miter" stroke="rgb(0%, 0%, 0%)" stroke-opacity="1" stroke-miterlimit="3" d="M 19.824219 16.722656 C 19.824219 17.84375 18.914062 18.75 17.796875 18.75 C 16.679688 18.75 15.769531 17.84375 15.769531 16.722656 C 15.769531 15.605469 16.679688 14.699219 17.796875 14.699219 C 18.914062 14.699219 19.824219 15.605469 19.824219 16.722656 Z M 19.824219 16.722656 "/>
</svg>
