<?xml version="1.0" encoding="UTF-8"?>
<svg xmlns="http://www.w3.org/2000/svg" xmlns:xlink="http://www.w3.org/1999/xlink" width="22.229904" height="19" viewBox="0 0 22.229904 19">
<path fill-rule="nonzero" fill="rgb(100%, 100%, 100%)" fill-opacity="1" stroke-width="9" stroke-linecap="round" stroke-linejoin="round" stroke="rgb(0%, 0%, 0%)" stroke-opacity="1" stroke-miterlimit="4" d="M 4.500816 -205.283779 L 224.567007 170.178991 L 444.475275 -205.283779 Z M 4.500816 -205.283779 " transform="matrix(0.0494702, 0, 0, 0.0494702, 0, 10.358555)"/>
<path fill-rule="nonzero" fill="rgb(85.09804%, 44.313726%, 0%)" fill-opacity="1" d="M 1.839844 1.144531 L 11.109375 16.957031 L 20.371094 1.144531 Z M 1.839844 1.144531 "/>
<path fill-rule="nonzero" fill="rgb(0%, 0%, 0%)" fill-opacity="1" d="M 8.222656 2.359375 L 6.964844 3.597656 L 6.964844 5.085938 L 8.144531 3.894531 L 8.144531 11.265625 L 9.246094 11.265625 L 9.246094 2.359375 Z M 8.222656 2.359375 "/>
<path fill-rule="nonzero" fill="rgb(0%, 0%, 0%)" fill-opacity="1" d="M 12.621094 2.386719 C 11.519531 2.386719 10.71875 3.128906 10.703125 4.304688 C 10.699219 4.304688 10.699219 4.304688 10.699219 4.304688 L 10.699219 5.3125 C 10.699219 5.757812 10.890625 6.285156 11.261719 6.644531 C 10.890625 7.007812 10.699219 7.511719 10.699219 7.957031 L 10.703125 9.5 C 10.703125 10.683594 11.519531 11.417969 12.621094 11.417969 C 13.644531 11.417969 14.503906 10.699219 14.503906 9.5 L 14.503906 7.957031 C 14.503906 7.511719 14.265625 6.933594 13.9375 6.644531 C 14.335938 6.257812 14.503906 5.75 14.503906 5.304688 L 14.503906 4.304688 C 14.503906 3.105469 13.644531 2.386719 12.621094 2.386719 Z M 12.582031 3.523438 C 13.042969 3.519531 13.398438 3.808594 13.398438 4.28125 L 13.398438 5.285156 C 13.398438 5.683594 13.101562 6.085938 12.601562 6.085938 C 12.097656 6.085938 11.800781 5.683594 11.800781 5.285156 L 11.804688 4.269531 C 11.804688 3.800781 12.210938 3.527344 12.582031 3.523438 Z M 12.601562 7.195312 C 13.066406 7.195312 13.398438 7.570312 13.398438 8.003906 L 13.398438 9.523438 C 13.398438 10 13.042969 10.285156 12.582031 10.28125 C 12.210938 10.277344 11.804688 10.003906 11.804688 9.539062 L 11.800781 8.003906 C 11.800781 7.566406 12.148438 7.195312 12.601562 7.195312 Z M 12.601562 7.195312 "/>
<path fill-rule="nonzero" fill="rgb(96.862745%, 100%, 10.980392%)" fill-opacity="1" stroke-width="0.5" stroke-linecap="round" stroke-linejoin="miter" stroke="rgb(0%, 0%, 0%)" stroke-opacity="1" stroke-miterlimit="3" d="M 6.050781 12.066406 C 6.050781 13.1875 5.144531 14.09375 4.023438 14.09375 C 2.90625 14.09375 2 13.1875 2 12.066406 C 2 10.949219 2.90625 10.042969 4.023438 10.042969 C 5.144531 10.042969 6.050781 10.949219 6.050781 12.066406 Z M 6.050781 12.066406 "/>
<path fill-rule="nonzero" fill="rgb(96.862745%, 100%, 10.980392%)" fill-opacity="1" stroke-width="0.5" stroke-linecap="round" stroke-linejoin="miter" stroke="rgb(0%, 0%, 0%)" stroke-opacity="1" stroke-miterlimit="3" d="M 19.824219 16.722656 C 19.824219 17.84375 18.914062 18.75 17.796875 18.75 C 16.679688 18.75 15.769531 17.84375 15.769531 16.722656 C 15.769531 15.605469 16.679688 14.699219 17.796875 14.699219 C 18.914062 14.699219 19.824219 15.605469 19.824219 16.722656 Z M 19.824219 16.722656 "/>
</svg>
