<?xml version="1.0" encoding="UTF-8"?>
<svg xmlns="http://www.w3.org/2000/svg" xmlns:xlink="http://www.w3.org/1999/xlink" width="13" height="18.436634" viewBox="0 0 13 18.436634">
<path fill-rule="nonzero" fill="rgb(100%, 83.92157%, 0%)" fill-opacity="1" stroke-width="0.417785" stroke-linecap="round" stroke-linejoin="round" stroke="rgb(0%, 0%, 0%)" stroke-opacity="1" stroke-miterlimit="4" d="M 0.209616 0.209616 L 12.708933 0.209616 L 12.708933 18.112364 L 0.209616 18.112364 Z M 0.209616 0.209616 " transform="matrix(1.006305, 0, 0, 1.006305, 0, 0)"/>
<path fill-rule="nonzero" fill="rgb(85.09804%, 44.313726%, 0%)" fill-opacity="1" stroke-width="0.493949" stroke-linecap="round" stroke-linejoin="round" stroke="rgb(100%, 100%, 100%)" stroke-opacity="1" stroke-miterlimit="4" d="M 0.450286 0.558976 L 12.468263 0.558976 L 12.468263 17.763005 L 0.450286 17.763005 Z M 0.450286 0.558976 " transform="matrix(1.006305, 0, 0, 1.006305, 0, 0)"/>
<path fill-rule="nonzero" fill="rgb(0%, 0%, 0%)" fill-opacity="1" d="M 6.5 4.46875 C 5.46875 4.46875 4.441406 5.554688 4.441406 6.59375 L 4.441406 12.160156 C 4.441406 12.855469 5.058594 13.964844 6.464844 13.964844 C 7.597656 13.964844 8.484375 12.929688 8.484375 12.160156 L 8.484375 9.511719 C 8.484375 7.636719 6.5 7.59375 5.8125 7.859375 L 5.8125 6.464844 C 5.8125 5.710938 7.332031 5.738281 7.332031 6.464844 L 8.558594 6.464844 C 8.558594 5.554688 7.527344 4.46875 6.5 4.46875 Z M 6.421875 9.136719 C 6.773438 9.121094 7.144531 9.300781 7.144531 9.664062 L 7.144531 11.816406 C 7.144531 12.769531 5.816406 12.828125 5.816406 11.816406 L 5.816406 9.644531 C 5.816406 9.320312 6.109375 9.152344 6.421875 9.136719 Z M 6.421875 9.136719 "/>
</svg>
