<?xml version="1.0" encoding="UTF-8"?>
<svg xmlns="http://www.w3.org/2000/svg" xmlns:xlink="http://www.w3.org/1999/xlink" width="13" height="18.436634" viewBox="0 0 13 18.436634">
<path fill-rule="nonzero" fill="rgb(100%, 83.92157%, 0%)" fill-opacity="1" stroke-width="0.417785" stroke-linecap="round" stroke-linejoin="round" stroke="rgb(0%, 0%, 0%)" stroke-opacity="1" stroke-miterlimit="4" d="M 0.209616 0.209616 L 12.708933 0.209616 L 12.708933 18.112364 L 0.209616 18.112364 Z M 0.209616 0.209616 " transform="matrix(1.006305, 0, 0, 1.006305, 0, 0)"/>
<path fill-rule="nonzero" fill="rgb(85.09804%, 44.313726%, 0%)" fill-opacity="1" stroke-width="0.493949" stroke-linecap="round" stroke-linejoin="round" stroke="rgb(100%, 100%, 100%)" stroke-opacity="1" stroke-miterlimit="4" d="M 0.450286 0.558976 L 12.468263 0.558976 L 12.468263 17.763005 L 0.450286 17.763005 Z M 0.450286 0.558976 " transform="matrix(1.006305, 0, 0, 1.006305, 0, 0)"/>
<path fill-rule="nonzero" fill="rgb(0%, 0%, 0%)" fill-opacity="1" d="M 6.5 13.964844 C 7.527344 13.964844 8.558594 12.878906 8.558594 11.84375 L 8.558594 6.277344 C 8.558594 5.574219 7.941406 4.46875 6.535156 4.46875 C 5.402344 4.46875 4.515625 5.5 4.515625 6.277344 L 4.515625 8.921875 C 4.515625 10.800781 6.5 10.84375 7.1875 10.570312 L 7.1875 11.972656 C 7.1875 12.722656 5.664062 12.699219 5.664062 11.972656 L 4.441406 11.972656 C 4.441406 12.878906 5.472656 13.964844 6.5 13.964844 Z M 6.578125 9.300781 C 6.222656 9.316406 5.851562 9.132812 5.851562 8.769531 L 5.851562 6.613281 C 5.851562 5.667969 7.171875 5.605469 7.171875 6.613281 L 7.171875 8.785156 C 7.171875 9.117188 6.882812 9.285156 6.578125 9.300781 Z M 6.578125 9.300781 "/>
</svg>
