<?xml version="1.0" encoding="UTF-8"?>
<svg xmlns="http://www.w3.org/2000/svg" xmlns:xlink="http://www.w3.org/1999/xlink" width="13" height="18.436634" viewBox="0 0 13 18.436634">
<path fill-rule="nonzero" fill="rgb(100%, 83.92157%, 0%)" fill-opacity="1" stroke-width="0.417785" stroke-linecap="round" stroke-linejoin="round" stroke="rgb(0%, 0%, 0%)" stroke-opacity="1" stroke-miterlimit="4" d="M 0.209616 0.209616 L 12.708933 0.209616 L 12.708933 18.112364 L 0.209616 18.112364 Z M 0.209616 0.209616 " transform="matrix(1.006305, 0, 0, 1.006305, 0, 0)"/>
<path fill-rule="nonzero" fill="rgb(85.09804%, 44.313726%, 0%)" fill-opacity="1" stroke-width="0.493949" stroke-linecap="round" stroke-linejoin="round" stroke="rgb(100%, 100%, 100%)" stroke-opacity="1" stroke-miterlimit="4" d="M 0.450286 0.558976 L 12.468263 0.558976 L 12.468263 17.763005 L 0.450286 17.763005 Z M 0.450286 0.558976 " transform="matrix(1.006305, 0, 0, 1.006305, 0, 0)"/>
<path fill-rule="nonzero" fill="rgb(0%, 0%, 0%)" fill-opacity="1" d="M 6.71875 4.753906 L 4.351562 11.203125 L 4.351562 12.277344 L 7.046875 12.277344 L 7.046875 13.679688 L 8.121094 13.679688 L 8.121094 12.277344 L 8.648438 12.277344 L 8.648438 11.203125 L 8.121094 11.203125 L 8.121094 8.804688 L 7.046875 8.804688 L 7.046875 11.203125 L 5.539062 11.203125 L 7.890625 4.753906 Z M 6.71875 4.753906 "/>
</svg>
