<?xml version="1.0" encoding="UTF-8"?>
<svg xmlns="http://www.w3.org/2000/svg" xmlns:xlink="http://www.w3.org/1999/xlink" width="13" height="18.436634" viewBox="0 0 13 18.436634">
<path fill-rule="nonzero" fill="rgb(100%, 83.92157%, 0%)" fill-opacity="1" stroke-width="0.417785" stroke-linecap="round" stroke-linejoin="round" stroke="rgb(0%, 0%, 0%)" stroke-opacity="1" stroke-miterlimit="4" d="M 0.209616 0.209616 L 12.708933 0.209616 L 12.708933 18.112364 L 0.209616 18.112364 Z M 0.209616 0.209616 " transform="matrix(1.006305, 0, 0, 1.006305, 0, 0)"/>
<path fill-rule="nonzero" fill="rgb(85.09804%, 44.313726%, 0%)" fill-opacity="1" stroke-width="0.493949" stroke-linecap="round" stroke-linejoin="round" stroke="rgb(100%, 100%, 100%)" stroke-opacity="1" stroke-miterlimit="4" d="M 0.450286 0.558976 L 12.468263 0.558976 L 12.468263 17.763005 L 0.450286 17.763005 Z M 0.450286 0.558976 " transform="matrix(1.006305, 0, 0, 1.006305, 0, 0)"/>
<path fill-rule="nonzero" fill="rgb(0%, 0%, 0%)" fill-opacity="1" d="M 6.324219 8.6875 L 6.324219 9.910156 C 6.324219 9.910156 7.25 9.984375 7.25 10.507812 C 7.25 11.039062 7.25 10.539062 7.25 11.613281 C 7.25 12.859375 5.765625 12.867188 5.765625 12.007812 C 5.363281 12.007812 5.226562 12.007812 4.449219 12.007812 C 4.449219 14.304688 8.421875 14.316406 8.421875 12.007812 C 8.421875 11.195312 8.421875 10.898438 8.421875 10.410156 C 8.421875 9.925781 8.292969 9.539062 7.914062 9.164062 C 8.292969 8.78125 8.550781 8.433594 8.550781 7.828125 C 8.550781 7.511719 8.550781 7.148438 8.550781 6.566406 C 8.550781 4.027344 4.5625 4.125 4.5625 6.566406 C 5.136719 6.566406 5.398438 6.566406 5.734375 6.566406 C 5.734375 5.402344 7.375 5.625 7.375 6.566406 C 7.375 7.5 7.375 7.4375 7.375 8 C 7.375 8.335938 6.875 8.6875 6.324219 8.6875 Z M 6.324219 8.6875 "/>
</svg>
