<?xml version="1.0" encoding="UTF-8"?>
<svg xmlns="http://www.w3.org/2000/svg" xmlns:xlink="http://www.w3.org/1999/xlink" width="22.229904" height="19" viewBox="0 0 22.229904 19">
<path fill-rule="nonzero" fill="rgb(85.09804%, 44.313726%, 0%)" fill-opacity="1" stroke-width="15" stroke-linecap="round" stroke-linejoin="round" stroke="rgb(100%, 100%, 100%)" stroke-opacity="1" stroke-miterlimit="4" d="M 432.394138 -196.124225 C 290.026236 -195.88734 150.895763 -196.913841 17.213645 -197.30865 C 83.225607 -80.998101 156.344119 40.365995 222.35608 156.755506 C 290.65793 40.523919 364.17125 -79.734714 432.4731 -195.88734 C 430.341135 -192.176141 425.208626 -196.124225 432.394138 -196.124225 Z M 432.394138 -196.124225 " transform="matrix(0.0494702, 0, 0, 0.0494702, 0, 10.358555)"/>
<path fill="none" stroke-width="9" stroke-linecap="round" stroke-linejoin="round" stroke="rgb(0%, 0%, 0%)" stroke-opacity="1" stroke-miterlimit="4" d="M 441.553693 -202.99389 C 271.154396 -202.99389 141.262439 -203.625584 4.500816 -204.888971 C 70.512777 -88.578422 155.791387 53.868442 221.803348 170.178991 C 290.18416 54.026365 444.870083 -202.99389 444.870083 -202.99389 Z M 441.553693 -202.99389 " transform="matrix(0.0494702, 0, 0, 0.0494702, 0, 10.358555)"/>
<path fill-rule="nonzero" fill="rgb(0%, 0%, 0%)" fill-opacity="1" d="M 11.359375 2.042969 C 10.257812 2.042969 9.457031 2.78125 9.441406 3.964844 C 9.4375 3.964844 9.4375 3.964844 9.4375 3.964844 L 9.4375 4.972656 C 9.4375 5.417969 9.632812 5.941406 10 6.304688 C 9.632812 6.664062 9.4375 7.167969 9.4375 7.613281 L 9.441406 9.160156 C 9.441406 10.335938 10.257812 11.078125 11.359375 11.078125 C 12.382812 11.078125 13.242188 10.355469 13.242188 9.160156 L 13.242188 7.613281 C 13.242188 7.167969 13.003906 6.589844 12.675781 6.296875 C 13.074219 5.914062 13.242188 5.402344 13.242188 4.957031 L 13.242188 3.964844 C 13.242188 2.765625 12.382812 2.042969 11.359375 2.042969 Z M 11.320312 3.179688 C 11.78125 3.175781 12.136719 3.464844 12.136719 3.9375 L 12.136719 4.9375 C 12.136719 5.34375 11.839844 5.746094 11.339844 5.746094 C 10.835938 5.746094 10.539062 5.34375 10.539062 4.9375 L 10.542969 3.921875 C 10.542969 3.457031 10.949219 3.1875 11.320312 3.179688 Z M 11.339844 6.851562 C 11.804688 6.851562 12.136719 7.230469 12.136719 7.660156 L 12.136719 9.183594 C 12.136719 9.652344 11.78125 9.945312 11.320312 9.941406 C 10.949219 9.933594 10.542969 9.664062 10.542969 9.191406 L 10.539062 7.660156 C 10.539062 7.222656 10.886719 6.851562 11.339844 6.851562 Z M 11.339844 6.851562 "/>
<path fill-rule="nonzero" fill="rgb(96.862745%, 100%, 10.980392%)" fill-opacity="1" stroke-width="0.5" stroke-linecap="round" stroke-linejoin="miter" stroke="rgb(0%, 0%, 0%)" stroke-opacity="1" stroke-miterlimit="3" d="M 6.050781 12.066406 C 6.050781 13.1875 5.144531 14.09375 4.023438 14.09375 C 2.90625 14.09375 2 13.1875 2 12.066406 C 2 10.949219 2.90625 10.042969 4.023438 10.042969 C 5.144531 10.042969 6.050781 10.949219 6.050781 12.066406 Z M 6.050781 12.066406 "/>
<path fill-rule="nonzero" fill="rgb(96.862745%, 100%, 10.980392%)" fill-opacity="1" stroke-width="0.5" stroke-linecap="round" stroke-linejoin="miter" stroke="rgb(0%, 0%, 0%)" stroke-opacity="1" stroke-miterlimit="3" d="M 19.824219 16.722656 C 19.824219 17.84375 18.914062 18.75 17.796875 18.75 C 16.679688 18.75 15.769531 17.84375 15.769531 16.722656 C 15.769531 15.605469 16.679688 14.699219 17.796875 14.699219 C 18.914062 14.699219 19.824219 15.605469 19.824219 16.722656 Z M 19.824219 16.722656 "/>
</svg>
