<?xml version="1.0" encoding="UTF-8"?>
<svg xmlns="http://www.w3.org/2000/svg" xmlns:xlink="http://www.w3.org/1999/xlink" width="13" height="18.436634" viewBox="0 0 13 18.436634">
<path fill-rule="nonzero" fill="rgb(100%, 83.92157%, 0%)" fill-opacity="1" stroke-width="0.417785" stroke-linecap="round" stroke-linejoin="round" stroke="rgb(0%, 0%, 0%)" stroke-opacity="1" stroke-miterlimit="4" d="M 0.209616 0.209616 L 12.708933 0.209616 L 12.708933 18.112364 L 0.209616 18.112364 Z M 0.209616 0.209616 " transform="matrix(1.006305, 0, 0, 1.006305, 0, 0)"/>
<path fill-rule="nonzero" fill="rgb(85.09804%, 44.313726%, 0%)" fill-opacity="1" stroke-width="0.493949" stroke-linecap="round" stroke-linejoin="round" stroke="rgb(100%, 100%, 100%)" stroke-opacity="1" stroke-miterlimit="4" d="M 0.450286 0.558976 L 12.468263 0.558976 L 12.468263 17.763005 L 0.450286 17.763005 Z M 0.450286 0.558976 " transform="matrix(1.006305, 0, 0, 1.006305, 0, 0)"/>
<path fill-rule="nonzero" fill="rgb(0%, 0%, 0%)" fill-opacity="1" d="M 3.988281 4.804688 L 2.730469 6.042969 L 2.730469 7.53125 L 3.910156 6.339844 L 3.910156 13.710938 L 5.011719 13.710938 L 5.011719 4.804688 Z M 3.988281 4.804688 "/>
<path fill-rule="nonzero" fill="rgb(0%, 0%, 0%)" fill-opacity="1" d="M 10.234375 13.703125 L 6.492188 13.703125 L 6.492188 12.582031 L 8.921875 7.9375 C 9.03125 7.726562 9.164062 7.507812 9.164062 7.285156 L 9.164062 6.640625 C 9.164062 6.167969 8.808594 5.871094 8.347656 5.878906 C 7.980469 5.882812 7.570312 6.15625 7.570312 6.632812 L 7.570312 7.347656 L 6.46875 7.347656 L 6.46875 6.710938 C 6.46875 5.488281 7.273438 4.726562 8.386719 4.726562 C 9.417969 4.726562 10.269531 5.457031 10.269531 6.664062 L 10.269531 7.429688 C 10.269531 7.808594 10.039062 8.191406 9.867188 8.519531 L 7.738281 12.59375 L 10.234375 12.59375 L 10.234375 13.703125 "/>
</svg>
