<?xml version="1.0" encoding="UTF-8"?>
<svg xmlns="http://www.w3.org/2000/svg" xmlns:xlink="http://www.w3.org/1999/xlink" width="22.229904" height="19" viewBox="0 0 22.229904 19">
<path fill-rule="nonzero" fill="rgb(85.09804%, 44.313726%, 0%)" fill-opacity="1" stroke-width="15" stroke-linecap="round" stroke-linejoin="round" stroke="rgb(100%, 100%, 100%)" stroke-opacity="1" stroke-miterlimit="4" d="M 432.394138 -196.124225 C 290.026236 -195.88734 150.895763 -196.913841 17.213645 -197.30865 C 83.225607 -80.998101 156.344119 40.365995 222.35608 156.755506 C 290.65793 40.523919 364.17125 -79.734714 432.4731 -195.88734 C 430.341135 -192.176141 425.208626 -196.124225 432.394138 -196.124225 Z M 432.394138 -196.124225 " transform="matrix(0.0494702, 0, 0, 0.0494702, 0, 10.358555)"/>
<path fill="none" stroke-width="9" stroke-linecap="round" stroke-linejoin="round" stroke="rgb(0%, 0%, 0%)" stroke-opacity="1" stroke-miterlimit="4" d="M 441.553693 -202.99389 C 271.154396 -202.99389 141.262439 -203.625584 4.500816 -204.888971 C 70.512777 -88.578422 155.791387 53.868442 221.803348 170.178991 C 290.18416 54.026365 444.870083 -202.99389 444.870083 -202.99389 Z M 441.553693 -202.99389 " transform="matrix(0.0494702, 0, 0, 0.0494702, 0, 10.358555)"/>
<path fill-rule="nonzero" fill="rgb(0%, 0%, 0%)" fill-opacity="1" d="M 10.964844 1.398438 C 9.933594 1.398438 8.910156 2.484375 8.910156 3.523438 L 8.910156 9.089844 C 8.910156 9.785156 9.523438 10.894531 10.929688 10.894531 C 12.066406 10.894531 12.949219 9.859375 12.949219 9.089844 L 12.949219 6.441406 C 12.949219 4.566406 10.96875 4.523438 10.277344 4.789062 L 10.277344 3.394531 C 10.277344 2.640625 11.800781 2.667969 11.800781 3.394531 L 13.023438 3.394531 C 13.023438 2.484375 11.992188 1.398438 10.964844 1.398438 Z M 10.890625 6.066406 C 11.242188 6.050781 11.613281 6.230469 11.613281 6.59375 L 11.613281 8.746094 C 11.613281 9.699219 10.285156 9.757812 10.285156 8.746094 L 10.285156 6.574219 C 10.285156 6.25 10.578125 6.082031 10.890625 6.066406 Z M 10.890625 6.066406 "/>
<path fill-rule="nonzero" fill="rgb(96.862745%, 100%, 10.980392%)" fill-opacity="1" stroke-width="0.5" stroke-linecap="round" stroke-linejoin="miter" stroke="rgb(0%, 0%, 0%)" stroke-opacity="1" stroke-miterlimit="3" d="M 6.050781 12.066406 C 6.050781 13.1875 5.144531 14.09375 4.023438 14.09375 C 2.90625 14.09375 2 13.1875 2 12.066406 C 2 10.949219 2.90625 10.042969 4.023438 10.042969 C 5.144531 10.042969 6.050781 10.949219 6.050781 12.066406 Z M 6.050781 12.066406 "/>
<path fill-rule="nonzero" fill="rgb(96.862745%, 100%, 10.980392%)" fill-opacity="1" stroke-width="0.5" stroke-linecap="round" stroke-linejoin="miter" stroke="rgb(0%, 0%, 0%)" stroke-opacity="1" stroke-miterlimit="3" d="M 19.824219 16.722656 C 19.824219 17.84375 18.914062 18.75 17.796875 18.75 C 16.679688 18.75 15.769531 17.84375 15.769531 16.722656 C 15.769531 15.605469 16.679688 14.699219 17.796875 14.699219 C 18.914062 14.699219 19.824219 15.605469 19.824219 16.722656 Z M 19.824219 16.722656 "/>
</svg>
