<?xml version="1.0" encoding="UTF-8"?>
<svg xmlns="http://www.w3.org/2000/svg" xmlns:xlink="http://www.w3.org/1999/xlink" width="13" height="18.436634" viewBox="0 0 13 18.436634">
<path fill-rule="nonzero" fill="rgb(100%, 83.92157%, 0%)" fill-opacity="1" stroke-width="0.417785" stroke-linecap="round" stroke-linejoin="round" stroke="rgb(0%, 0%, 0%)" stroke-opacity="1" stroke-miterlimit="4" d="M 0.209616 0.209616 L 12.708933 0.209616 L 12.708933 18.112364 L 0.209616 18.112364 Z M 0.209616 0.209616 " transform="matrix(1.006305, 0, 0, 1.006305, 0, 0)"/>
<path fill-rule="nonzero" fill="rgb(85.09804%, 44.313726%, 0%)" fill-opacity="1" stroke-width="0.493949" stroke-linecap="round" stroke-linejoin="round" stroke="rgb(100%, 100%, 100%)" stroke-opacity="1" stroke-miterlimit="4" d="M 0.450286 0.558976 L 12.468263 0.558976 L 12.468263 17.763005 L 0.450286 17.763005 Z M 0.450286 0.558976 " transform="matrix(1.006305, 0, 0, 1.006305, 0, 0)"/>
<path fill-rule="nonzero" fill="rgb(0%, 0%, 0%)" fill-opacity="1" d="M 8.363281 13.707031 L 4.625 13.707031 L 4.625 12.585938 L 7.050781 7.9375 C 7.160156 7.726562 7.296875 7.503906 7.296875 7.28125 L 7.296875 6.644531 C 7.296875 6.164062 6.9375 5.871094 6.476562 5.878906 C 6.109375 5.882812 5.703125 6.160156 5.703125 6.636719 L 5.703125 7.351562 L 4.597656 7.351562 L 4.597656 6.710938 C 4.597656 5.492188 5.40625 4.730469 6.515625 4.730469 C 7.546875 4.730469 8.402344 5.457031 8.402344 6.667969 L 8.402344 7.429688 C 8.402344 7.8125 8.171875 8.195312 8 8.523438 L 5.871094 12.59375 L 8.363281 12.59375 L 8.363281 13.707031 "/>
</svg>
