<?xml version="1.0" encoding="UTF-8"?>
<svg xmlns="http://www.w3.org/2000/svg" xmlns:xlink="http://www.w3.org/1999/xlink" width="13" height="18.436634" viewBox="0 0 13 18.436634">
<path fill-rule="nonzero" fill="rgb(100%, 83.92157%, 0%)" fill-opacity="1" stroke-width="0.417785" stroke-linecap="round" stroke-linejoin="round" stroke="rgb(0%, 0%, 0%)" stroke-opacity="1" stroke-miterlimit="4" d="M 0.209616 0.209616 L 12.708933 0.209616 L 12.708933 18.112364 L 0.209616 18.112364 Z M 0.209616 0.209616 " transform="matrix(1.006305, 0, 0, 1.006305, 0, 0)"/>
<path fill-rule="nonzero" fill="rgb(85.09804%, 44.313726%, 0%)" fill-opacity="1" stroke-width="0.493949" stroke-linecap="round" stroke-linejoin="round" stroke="rgb(100%, 100%, 100%)" stroke-opacity="1" stroke-miterlimit="4" d="M 0.450286 0.558976 L 12.468263 0.558976 L 12.468263 17.763005 L 0.450286 17.763005 Z M 0.450286 0.558976 " transform="matrix(1.006305, 0, 0, 1.006305, 0, 0)"/>
<path fill-rule="nonzero" fill="rgb(0%, 0%, 0%)" fill-opacity="1" d="M 4.824219 4.6875 C 3.878906 4.691406 2.933594 5.332031 2.929688 6.601562 L 2.917969 6.601562 L 2.917969 11.84375 L 2.929688 11.84375 C 2.953125 14.402344 6.710938 14.375 6.714844 11.84375 L 6.722656 11.84375 L 6.722656 6.601562 L 6.714844 6.601562 C 6.710938 5.3125 5.765625 4.679688 4.824219 4.6875 Z M 4.820312 5.824219 C 5.21875 5.820312 5.621094 6.074219 5.621094 6.601562 L 5.621094 11.84375 C 5.621094 12.875 4.023438 12.875 4.023438 11.820312 L 4.023438 6.601562 C 4.023438 6.089844 4.417969 5.828125 4.820312 5.824219 Z M 4.820312 5.824219 "/>
<path fill-rule="nonzero" fill="rgb(0%, 0%, 0%)" fill-opacity="1" d="M 10.078125 8.046875 L 10.078125 9.609375 C 10.082031 10.242188 9.554688 10.800781 8.886719 10.800781 C 8.1875 10.800781 7.695312 10.230469 7.695312 9.609375 L 7.695312 9.246094 L 8.441406 9.246094 L 8.441406 9.609375 C 8.441406 9.859375 8.644531 10.054688 8.882812 10.050781 C 9.132812 10.050781 9.332031 9.851562 9.332031 9.609375 L 9.332031 8.070312 C 9.332031 7.8125 9.113281 7.628906 8.886719 7.628906 C 8.703125 7.628906 8.511719 7.734375 8.441406 7.945312 L 7.695312 7.945312 L 7.695312 4.71875 L 10.078125 4.71875 L 10.078125 5.46875 L 8.441406 5.46875 L 8.441406 7.148438 C 8.644531 6.964844 8.855469 6.914062 9.132812 6.914062 C 9.757812 6.914062 10.078125 7.472656 10.078125 8.046875 Z M 10.078125 8.046875 "/>
</svg>
