<?xml version="1.0" encoding="UTF-8"?>
<svg xmlns="http://www.w3.org/2000/svg" xmlns:xlink="http://www.w3.org/1999/xlink" width="13" height="18.436634" viewBox="0 0 13 18.436634">
<path fill-rule="nonzero" fill="rgb(100%, 83.92157%, 0%)" fill-opacity="1" stroke-width="0.417785" stroke-linecap="round" stroke-linejoin="round" stroke="rgb(0%, 0%, 0%)" stroke-opacity="1" stroke-miterlimit="4" d="M 0.209616 0.209616 L 12.708933 0.209616 L 12.708933 18.112364 L 0.209616 18.112364 Z M 0.209616 0.209616 " transform="matrix(1.006305, 0, 0, 1.006305, 0, 0)"/>
<path fill-rule="nonzero" fill="rgb(85.09804%, 44.313726%, 0%)" fill-opacity="1" stroke-width="0.493949" stroke-linecap="round" stroke-linejoin="round" stroke="rgb(100%, 100%, 100%)" stroke-opacity="1" stroke-miterlimit="4" d="M 0.450286 0.558976 L 12.468263 0.558976 L 12.468263 17.763005 L 0.450286 17.763005 Z M 0.450286 0.558976 " transform="matrix(1.006305, 0, 0, 1.006305, 0, 0)"/>
<path fill-rule="nonzero" fill="rgb(0%, 0%, 0%)" fill-opacity="1" d="M 8.371094 4.699219 C 7.429688 4.703125 6.480469 5.34375 6.480469 6.613281 L 6.46875 6.613281 L 6.46875 11.855469 L 6.480469 11.855469 C 6.503906 14.414062 10.261719 14.386719 10.265625 11.855469 L 10.265625 6.613281 C 10.261719 5.324219 9.316406 4.691406 8.371094 4.699219 Z M 8.371094 5.835938 C 8.769531 5.832031 9.167969 6.085938 9.171875 6.613281 L 9.167969 6.613281 L 9.167969 11.855469 L 9.171875 11.855469 C 9.171875 12.886719 7.574219 12.886719 7.574219 11.832031 L 7.574219 6.613281 C 7.574219 6.101562 7.96875 5.839844 8.371094 5.835938 Z M 8.371094 5.835938 "/>
<path fill-rule="nonzero" fill="rgb(0%, 0%, 0%)" fill-opacity="1" d="M 3.925781 4.671875 L 2.734375 5.851562 L 2.734375 7.695312 L 3.910156 6.503906 L 3.910156 13.578125 L 5.183594 13.578125 L 5.183594 4.671875 Z M 3.925781 4.671875 "/>
</svg>
