<?xml version="1.0" encoding="UTF-8"?>
<svg xmlns="http://www.w3.org/2000/svg" xmlns:xlink="http://www.w3.org/1999/xlink" width="22.229904" height="19" viewBox="0 0 22.229904 19">
<path fill-rule="nonzero" fill="rgb(85.09804%, 44.313726%, 0%)" fill-opacity="1" stroke-width="15" stroke-linecap="round" stroke-linejoin="round" stroke="rgb(100%, 100%, 100%)" stroke-opacity="1" stroke-miterlimit="4" d="M 432.394138 -196.124225 C 290.026236 -195.88734 150.895763 -196.913841 17.213645 -197.30865 C 83.225607 -80.998101 156.344119 40.365995 222.35608 156.755506 C 290.65793 40.523919 364.17125 -79.734714 432.4731 -195.88734 C 430.341135 -192.176141 425.208626 -196.124225 432.394138 -196.124225 Z M 432.394138 -196.124225 " transform="matrix(0.0494702, 0, 0, 0.0494702, 0, 10.358555)"/>
<path fill="none" stroke-width="9" stroke-linecap="round" stroke-linejoin="round" stroke="rgb(0%, 0%, 0%)" stroke-opacity="1" stroke-miterlimit="4" d="M 441.553693 -202.99389 C 271.154396 -202.99389 141.262439 -203.625584 4.500816 -204.888971 C 70.512777 -88.578422 155.791387 53.868442 221.803348 170.178991 C 290.18416 54.026365 444.870083 -202.99389 444.870083 -202.99389 Z M 441.553693 -202.99389 " transform="matrix(0.0494702, 0, 0, 0.0494702, 0, 10.358555)"/>
<path fill-rule="nonzero" fill="rgb(0%, 0%, 0%)" fill-opacity="1" d="M 10.894531 6.382812 L 10.894531 7.605469 C 10.894531 7.605469 11.820312 7.679688 11.820312 8.203125 C 11.820312 8.734375 11.820312 8.234375 11.820312 9.308594 C 11.820312 10.554688 10.335938 10.5625 10.335938 9.703125 C 9.933594 9.703125 9.796875 9.703125 9.019531 9.703125 C 9.019531 12 12.992188 12.011719 12.992188 9.703125 C 12.992188 8.890625 12.992188 8.59375 12.992188 8.105469 C 12.992188 7.621094 12.863281 7.234375 12.484375 6.859375 C 12.863281 6.476562 13.121094 6.128906 13.121094 5.523438 C 13.121094 5.207031 13.121094 4.84375 13.121094 4.261719 C 13.121094 1.722656 9.132812 1.820312 9.132812 4.261719 C 9.707031 4.261719 9.96875 4.261719 10.304688 4.261719 C 10.304688 3.097656 11.945312 3.320312 11.945312 4.261719 C 11.945312 5.195312 11.945312 5.132812 11.945312 5.695312 C 11.945312 6.03125 11.445312 6.382812 10.894531 6.382812 Z M 10.894531 6.382812 "/>
<path fill-rule="nonzero" fill="rgb(96.862745%, 100%, 10.980392%)" fill-opacity="1" stroke-width="0.5" stroke-linecap="round" stroke-linejoin="miter" stroke="rgb(0%, 0%, 0%)" stroke-opacity="1" stroke-miterlimit="3" d="M 6.050781 12.066406 C 6.050781 13.1875 5.144531 14.09375 4.023438 14.09375 C 2.90625 14.09375 2 13.1875 2 12.066406 C 2 10.949219 2.90625 10.042969 4.023438 10.042969 C 5.144531 10.042969 6.050781 10.949219 6.050781 12.066406 Z M 6.050781 12.066406 "/>
<path fill-rule="nonzero" fill="rgb(96.862745%, 100%, 10.980392%)" fill-opacity="1" stroke-width="0.5" stroke-linecap="round" stroke-linejoin="miter" stroke="rgb(0%, 0%, 0%)" stroke-opacity="1" stroke-miterlimit="3" d="M 19.824219 16.722656 C 19.824219 17.84375 18.914062 18.75 17.796875 18.75 C 16.679688 18.75 15.769531 17.84375 15.769531 16.722656 C 15.769531 15.605469 16.679688 14.699219 17.796875 14.699219 C 18.914062 14.699219 19.824219 15.605469 19.824219 16.722656 Z M 19.824219 16.722656 "/>
</svg>
