<?xml version="1.0" encoding="UTF-8"?>
<svg xmlns="http://www.w3.org/2000/svg" xmlns:xlink="http://www.w3.org/1999/xlink" width="13.397239" height="19" viewBox="0 0 13.397239 19">
<path fill-rule="nonzero" fill="rgb(100%, 83.92157%, 0%)" fill-opacity="1" stroke-width="0.417785" stroke-linecap="round" stroke-linejoin="round" stroke="rgb(0%, 0%, 0%)" stroke-opacity="1" stroke-miterlimit="4" d="M 0.210934 0.210934 L 12.70877 0.210934 L 12.70877 18.113953 L 0.210934 18.113953 Z M 0.210934 0.210934 " transform="matrix(1.037055, 0, 0, 1.037055, 0, 0)"/>
<path fill-rule="nonzero" fill="rgb(85.09804%, 44.313726%, 0%)" fill-opacity="1" stroke-width="0.493949" stroke-linecap="round" stroke-linejoin="round" stroke="rgb(100%, 100%, 100%)" stroke-opacity="1" stroke-miterlimit="4" d="M 0.452001 0.557468 L 12.467703 0.557468 L 12.467703 17.763651 L 0.452001 17.763651 Z M 0.452001 0.557468 " transform="matrix(1.037055, 0, 0, 1.037055, 0, 0)"/>
<path fill-rule="nonzero" fill="rgb(0%, 0%, 0%)" fill-opacity="1" d="M 9.039062 14.105469 L 8.371094 11.917969 L 5.027344 11.917969 L 4.359375 14.105469 L 2.265625 14.105469 L 5.503906 4.894531 L 7.882812 4.894531 L 11.128906 14.105469 Z M 7.238281 8.15625 C 7.195312 8.011719 7.140625 7.828125 7.074219 7.605469 C 7.003906 7.382812 6.9375 7.15625 6.863281 6.925781 C 6.796875 6.695312 6.742188 6.492188 6.699219 6.320312 C 6.65625 6.492188 6.59375 6.707031 6.515625 6.964844 C 6.449219 7.210938 6.378906 7.453125 6.3125 7.679688 C 6.25 7.90625 6.207031 8.0625 6.171875 8.15625 L 5.515625 10.289062 L 7.90625 10.289062 Z M 7.238281 8.15625 "/>
</svg>
