<?xml version="1.0" encoding="UTF-8"?>
<svg xmlns="http://www.w3.org/2000/svg" xmlns:xlink="http://www.w3.org/1999/xlink" width="22.229905" height="19" viewBox="0 0 22.229905 19">
<path fill-rule="nonzero" fill="rgb(100%, 100%, 100%)" fill-opacity="1" stroke-width="9" stroke-linecap="round" stroke-linejoin="round" stroke="rgb(0%, 0%, 0%)" stroke-opacity="1" stroke-miterlimit="4" d="M 441.553946 -202.994017 C 271.154551 -202.994017 141.262519 -203.625711 4.500818 -204.889098 C 70.512817 -88.578483 155.791476 53.868463 221.803475 170.179078 C 290.184326 54.026386 444.870338 -202.994017 444.870338 -202.994017 Z M 441.553946 -202.994017 " transform="matrix(0.0494702, 0, 0, 0.0494702, 0, 10.358555)"/>
<path fill-rule="nonzero" fill="rgb(0%, 0%, 0%)" fill-opacity="1" d="M 10.894531 6.382812 L 10.894531 7.605469 C 10.894531 7.605469 11.820312 7.679688 11.820312 8.203125 C 11.820312 8.734375 11.820312 8.234375 11.820312 9.308594 C 11.820312 10.554688 10.335938 10.5625 10.335938 9.703125 C 9.933594 9.703125 9.796875 9.703125 9.019531 9.703125 C 9.019531 12 12.992188 12.011719 12.992188 9.703125 C 12.992188 8.890625 12.992188 8.59375 12.992188 8.105469 C 12.992188 7.621094 12.863281 7.234375 12.484375 6.859375 C 12.863281 6.476562 13.121094 6.128906 13.121094 5.523438 C 13.121094 5.207031 13.121094 4.84375 13.121094 4.261719 C 13.121094 1.722656 9.132812 1.820312 9.132812 4.261719 C 9.707031 4.261719 9.96875 4.261719 10.304688 4.261719 C 10.304688 3.097656 11.945312 3.320312 11.945312 4.261719 C 11.945312 5.195312 11.945312 5.132812 11.945312 5.695312 C 11.945312 6.03125 11.445312 6.382812 10.894531 6.382812 Z M 10.894531 6.382812 "/>
</svg>
