<?xml version="1.0" encoding="UTF-8"?>
<svg xmlns="http://www.w3.org/2000/svg" xmlns:xlink="http://www.w3.org/1999/xlink" width="22.229904" height="19" viewBox="0 0 22.229904 19">
<path fill-rule="nonzero" fill="rgb(100%, 100%, 100%)" fill-opacity="1" stroke-width="9" stroke-linecap="round" stroke-linejoin="round" stroke="rgb(0%, 0%, 0%)" stroke-opacity="1" stroke-miterlimit="4" d="M 441.553693 -202.99389 C 271.154396 -202.99389 141.262439 -203.625584 4.500816 -204.888971 C 70.512777 -88.578422 155.791387 53.868442 221.803348 170.178991 C 290.18416 54.026365 444.870083 -202.99389 444.870083 -202.99389 Z M 441.553693 -202.99389 " transform="matrix(0.0494702, 0, 0, 0.0494702, 0, 10.358555)"/>
<path fill-rule="nonzero" fill="rgb(0%, 0%, 0%)" fill-opacity="1" d="M 8.492188 2.378906 L 7.28125 3.578125 L 7.28125 5.453125 L 8.472656 4.242188 L 8.472656 11.425781 L 9.765625 11.425781 L 9.765625 2.378906 Z M 8.492188 2.378906 "/>
<path fill-rule="nonzero" fill="rgb(0%, 0%, 0%)" fill-opacity="1" d="M 13.046875 2.367188 C 12.101562 2.371094 11.15625 3.015625 11.15625 4.285156 L 11.144531 4.285156 L 11.144531 9.527344 L 11.15625 9.527344 C 11.175781 12.082031 14.9375 12.058594 14.9375 9.527344 L 14.949219 9.527344 L 14.949219 4.285156 L 14.9375 4.285156 C 14.9375 2.996094 13.992188 2.359375 13.046875 2.367188 Z M 13.042969 3.503906 C 13.445312 3.5 13.84375 3.757812 13.84375 4.285156 L 13.84375 9.527344 L 13.847656 9.527344 C 13.84375 10.554688 12.25 10.554688 12.25 9.5 L 12.25 4.285156 L 12.246094 4.285156 C 12.246094 3.769531 12.648438 3.507812 13.042969 3.503906 Z M 13.042969 3.503906 "/>
</svg>
