<?xml version="1.0" encoding="UTF-8"?>
<svg xmlns="http://www.w3.org/2000/svg" xmlns:xlink="http://www.w3.org/1999/xlink" width="22.229905" height="19" viewBox="0 0 22.229905 19">
<path fill-rule="nonzero" fill="rgb(100%, 100%, 100%)" fill-opacity="1" stroke-width="9" stroke-linecap="round" stroke-linejoin="round" stroke="rgb(0%, 0%, 0%)" stroke-opacity="1" stroke-miterlimit="4" d="M 441.553946 -202.994017 C 271.154551 -202.994017 141.262519 -203.625711 4.500818 -204.889098 C 70.512817 -88.578483 155.791476 53.868463 221.803475 170.179078 C 290.184326 54.026386 444.870338 -202.994017 444.870338 -202.994017 Z M 441.553946 -202.994017 " transform="matrix(0.0494702, 0, 0, 0.0494702, 0, 10.358555)"/>
<path fill-rule="nonzero" fill="rgb(0%, 0%, 0%)" fill-opacity="1" d="M 9.421875 2.378906 L 8.207031 3.578125 L 8.207031 5.453125 L 9.402344 4.242188 L 9.402344 11.425781 L 10.691406 11.425781 L 10.691406 2.378906 Z M 9.421875 2.378906 "/>
<path fill-rule="nonzero" fill="rgb(0%, 0%, 0%)" fill-opacity="1" d="M 14.753906 5.324219 L 14.753906 6.714844 C 14.757812 7.277344 14.289062 7.777344 13.691406 7.777344 C 13.074219 7.777344 12.632812 7.273438 12.632812 6.714844 L 12.632812 6.398438 L 13.296875 6.398438 L 13.296875 6.714844 C 13.296875 6.941406 13.476562 7.109375 13.691406 7.109375 C 13.914062 7.109375 14.085938 6.933594 14.085938 6.714844 L 14.085938 5.347656 C 14.085938 5.117188 13.898438 4.953125 13.691406 4.953125 C 13.53125 4.953125 13.359375 5.046875 13.296875 5.234375 L 12.632812 5.234375 L 12.632812 2.363281 L 14.753906 2.363281 L 14.753906 3.027344 L 13.296875 3.027344 L 13.296875 4.527344 C 13.476562 4.363281 13.667969 4.316406 13.914062 4.316406 C 14.472656 4.316406 14.753906 4.8125 14.753906 5.324219 Z M 14.753906 5.324219 "/>
</svg>
