<?xml version="1.0" encoding="UTF-8"?>
<svg xmlns="http://www.w3.org/2000/svg" xmlns:xlink="http://www.w3.org/1999/xlink" width="22.229904" height="19" viewBox="0 0 22.229904 19">
<path fill-rule="nonzero" fill="rgb(100%, 100%, 100%)" fill-opacity="1" stroke-width="9" stroke-linecap="round" stroke-linejoin="round" stroke="rgb(0%, 0%, 0%)" stroke-opacity="1" stroke-miterlimit="4" d="M 441.553693 -202.99389 C 271.154396 -202.99389 141.262439 -203.625584 4.500816 -204.888971 C 70.512777 -88.578422 155.791387 53.868442 221.803348 170.178991 C 290.18416 54.026365 444.870083 -202.99389 444.870083 -202.99389 Z M 441.553693 -202.99389 " transform="matrix(0.0494702, 0, 0, 0.0494702, 0, 10.358555)"/>
<path fill-rule="nonzero" fill="rgb(0%, 0%, 0%)" fill-opacity="1" d="M 10.71875 11.015625 L 6.976562 11.015625 L 6.976562 9.894531 L 9.40625 5.246094 C 9.515625 5.035156 9.648438 4.8125 9.648438 4.589844 L 9.648438 3.953125 C 9.648438 3.472656 9.292969 3.179688 8.832031 3.1875 C 8.464844 3.191406 8.054688 3.46875 8.054688 3.945312 L 8.054688 4.660156 L 6.953125 4.660156 L 6.953125 4.019531 C 6.953125 2.800781 7.757812 2.039062 8.871094 2.039062 C 9.902344 2.039062 10.753906 2.765625 10.753906 3.976562 L 10.753906 4.738281 C 10.753906 5.121094 10.523438 5.503906 10.351562 5.832031 L 8.222656 9.902344 L 10.71875 9.902344 L 10.71875 11.015625 "/>
<path fill-rule="nonzero" fill="rgb(0%, 0%, 0%)" fill-opacity="1" d="M 13.375 2.066406 C 12.429688 2.070312 11.484375 2.714844 11.484375 3.984375 L 11.472656 3.984375 L 11.472656 9.226562 L 11.484375 9.226562 C 11.503906 11.78125 15.265625 11.757812 15.265625 9.226562 L 15.277344 9.226562 L 15.277344 3.984375 L 15.265625 3.984375 C 15.265625 2.695312 14.320312 2.058594 13.375 2.066406 Z M 13.371094 3.203125 C 13.773438 3.199219 14.171875 3.457031 14.171875 3.984375 L 14.171875 9.226562 L 14.175781 9.226562 C 14.171875 10.253906 12.578125 10.253906 12.578125 9.199219 L 12.578125 3.984375 L 12.574219 3.984375 C 12.574219 3.46875 12.976562 3.207031 13.371094 3.203125 Z M 13.371094 3.203125 "/>
</svg>
