<?xml version="1.0" encoding="UTF-8"?>
<svg xmlns="http://www.w3.org/2000/svg" xmlns:xlink="http://www.w3.org/1999/xlink" width="22.229904" height="19" viewBox="0 0 22.229904 19">
<path fill-rule="nonzero" fill="rgb(100%, 100%, 100%)" fill-opacity="1" stroke-width="9" stroke-linecap="round" stroke-linejoin="round" stroke="rgb(0%, 0%, 0%)" stroke-opacity="1" stroke-miterlimit="4" d="M 441.553693 -202.99389 C 271.154396 -202.99389 141.262439 -203.625584 4.500816 -204.888971 C 70.512777 -88.578422 155.791387 53.868442 221.803348 170.178991 C 290.18416 54.026365 444.870083 -202.99389 444.870083 -202.99389 Z M 441.553693 -202.99389 " transform="matrix(0.0494702, 0, 0, 0.0494702, 0, 10.358555)"/>
<path fill-rule="nonzero" fill="rgb(0%, 0%, 0%)" fill-opacity="1" d="M 8.710938 6.382812 L 8.710938 7.605469 C 8.710938 7.605469 9.636719 7.679688 9.636719 8.203125 C 9.636719 8.734375 9.636719 8.234375 9.636719 9.308594 C 9.636719 10.554688 8.152344 10.5625 8.152344 9.703125 C 7.75 9.703125 7.613281 9.703125 6.835938 9.703125 C 6.835938 12 10.808594 12.011719 10.808594 9.703125 C 10.808594 8.890625 10.808594 8.59375 10.808594 8.105469 C 10.808594 7.621094 10.679688 7.234375 10.300781 6.859375 C 10.679688 6.476562 10.9375 6.128906 10.9375 5.523438 C 10.9375 5.207031 10.9375 4.84375 10.9375 4.261719 C 10.9375 1.722656 6.949219 1.820312 6.949219 4.261719 C 7.523438 4.261719 7.785156 4.261719 8.121094 4.261719 C 8.121094 3.097656 9.761719 3.320312 9.761719 4.261719 C 9.761719 5.195312 9.761719 5.132812 9.761719 5.695312 C 9.761719 6.03125 9.261719 6.382812 8.710938 6.382812 Z M 8.710938 6.382812 "/>
<path fill-rule="nonzero" fill="rgb(0%, 0%, 0%)" fill-opacity="1" d="M 13.488281 2.378906 C 12.542969 2.382812 11.597656 3.027344 11.597656 4.296875 L 11.585938 4.296875 L 11.585938 9.539062 L 11.597656 9.539062 C 11.617188 12.09375 15.378906 12.070312 15.378906 9.539062 L 15.390625 9.539062 L 15.390625 4.296875 L 15.378906 4.296875 C 15.378906 3.007812 14.433594 2.371094 13.488281 2.378906 Z M 13.484375 3.515625 C 13.886719 3.511719 14.285156 3.769531 14.285156 4.296875 L 14.285156 9.539062 L 14.289062 9.539062 C 14.285156 10.566406 12.691406 10.566406 12.691406 9.511719 L 12.691406 4.296875 L 12.6875 4.296875 C 12.6875 3.78125 13.089844 3.519531 13.484375 3.515625 Z M 13.484375 3.515625 "/>
</svg>
