<?xml version="1.0" encoding="UTF-8"?>
<svg xmlns="http://www.w3.org/2000/svg" xmlns:xlink="http://www.w3.org/1999/xlink" width="22.229905" height="19" viewBox="0 0 22.229905 19">
<path fill-rule="nonzero" fill="rgb(100%, 100%, 100%)" fill-opacity="1" stroke-width="9" stroke-linecap="round" stroke-linejoin="round" stroke="rgb(0%, 0%, 0%)" stroke-opacity="1" stroke-miterlimit="4" d="M 441.553946 -202.994017 C 271.154551 -202.994017 141.262519 -203.625711 4.500818 -204.889098 C 70.512817 -88.578483 155.791476 53.868463 221.803475 170.179078 C 290.184326 54.026386 444.870338 -202.994017 444.870338 -202.994017 Z M 441.553946 -202.994017 " transform="matrix(0.0494702, 0, 0, 0.0494702, 0, 10.358555)"/>
<path fill-rule="nonzero" fill="rgb(0%, 0%, 0%)" fill-opacity="1" d="M 10.894531 2.574219 C 9.949219 2.578125 9.003906 3.222656 9.003906 4.492188 L 8.992188 4.492188 L 8.992188 9.734375 L 9.003906 9.734375 C 9.023438 12.289062 12.785156 12.265625 12.785156 9.734375 L 12.796875 9.734375 L 12.796875 4.492188 L 12.785156 4.492188 C 12.785156 3.203125 11.839844 2.566406 10.894531 2.574219 Z M 10.890625 3.710938 C 11.292969 3.707031 11.691406 3.964844 11.691406 4.492188 L 11.691406 9.734375 L 11.695312 9.734375 C 11.691406 10.761719 10.097656 10.761719 10.097656 9.707031 L 10.097656 4.492188 L 10.09375 4.492188 C 10.09375 3.976562 10.496094 3.714844 10.890625 3.710938 Z M 10.890625 3.710938 "/>
</svg>
