<?xml version="1.0" encoding="UTF-8"?>
<svg xmlns="http://www.w3.org/2000/svg" xmlns:xlink="http://www.w3.org/1999/xlink" width="22.229905" height="19" viewBox="0 0 22.229905 19">
<path fill-rule="nonzero" fill="rgb(100%, 100%, 100%)" fill-opacity="1" stroke-width="9" stroke-linecap="round" stroke-linejoin="round" stroke="rgb(0%, 0%, 0%)" stroke-opacity="1" stroke-miterlimit="4" d="M 441.553946 -202.994017 C 271.154551 -202.994017 141.262519 -203.625711 4.500818 -204.889098 C 70.512817 -88.578483 155.791476 53.868463 221.803475 170.179078 C 290.184326 54.026386 444.870338 -202.994017 444.870338 -202.994017 Z M 441.553946 -202.994017 " transform="matrix(0.0494702, 0, 0, 0.0494702, 0, 10.358555)"/>
<path fill-rule="nonzero" fill="rgb(0%, 0%, 0%)" fill-opacity="1" d="M 10.964844 1.398438 C 9.933594 1.398438 8.910156 2.484375 8.910156 3.523438 L 8.910156 9.089844 C 8.910156 9.785156 9.523438 10.894531 10.929688 10.894531 C 12.066406 10.894531 12.949219 9.859375 12.949219 9.089844 L 12.949219 6.441406 C 12.949219 4.566406 10.96875 4.523438 10.277344 4.789062 L 10.277344 3.394531 C 10.277344 2.640625 11.800781 2.667969 11.800781 3.394531 L 13.023438 3.394531 C 13.023438 2.484375 11.992188 1.398438 10.964844 1.398438 Z M 10.890625 6.066406 C 11.242188 6.050781 11.613281 6.230469 11.613281 6.59375 L 11.613281 8.746094 C 11.613281 9.699219 10.285156 9.757812 10.285156 8.746094 L 10.285156 6.574219 C 10.285156 6.25 10.578125 6.082031 10.890625 6.066406 Z M 10.890625 6.066406 "/>
</svg>
