<?xml version="1.0" encoding="UTF-8"?>
<svg xmlns="http://www.w3.org/2000/svg" xmlns:xlink="http://www.w3.org/1999/xlink" width="17.549925" height="15" viewBox="0 0 17.549925 15">
<path fill-rule="nonzero" fill="rgb(100%, 100%, 100%)" fill-opacity="1" stroke-width="9" stroke-linecap="round" stroke-linejoin="round" stroke="rgb(0%, 0%, 0%)" stroke-opacity="1" stroke-miterlimit="4" d="M 441.58049 -202.988848 C 271.149424 -202.988848 141.225742 -203.588957 4.50082 -204.889194 C 70.512853 -88.567992 155.828404 53.85797 221.840437 170.179172 C 290.152888 54.058006 444.881092 -202.988848 444.881092 -202.988848 Z M 441.58049 -202.988848 " transform="matrix(0.0390554, 0, 0, 0.0390554, 0, 8.177807)"/>
<path fill-rule="nonzero" fill="rgb(0%, 0%, 0%)" fill-opacity="1" d="M 8.601562 5.039062 L 8.601562 6.003906 C 8.601562 6.003906 9.332031 6.0625 9.332031 6.476562 C 9.332031 6.894531 9.332031 6.5 9.332031 7.347656 C 9.332031 8.332031 8.160156 8.339844 8.160156 7.660156 C 7.84375 7.660156 7.734375 7.660156 7.121094 7.660156 C 7.121094 9.472656 10.257812 9.484375 10.257812 7.660156 C 10.257812 7.019531 10.257812 6.785156 10.257812 6.398438 C 10.257812 6.015625 10.15625 5.710938 9.855469 5.414062 C 10.15625 5.113281 10.359375 4.839844 10.359375 4.359375 C 10.359375 4.109375 10.359375 3.824219 10.359375 3.363281 C 10.359375 1.359375 7.210938 1.4375 7.210938 3.363281 C 7.664062 3.363281 7.871094 3.363281 8.136719 3.363281 C 8.136719 2.445312 9.429688 2.621094 9.429688 3.363281 C 9.429688 4.101562 9.429688 4.050781 9.429688 4.496094 C 9.429688 4.761719 9.035156 5.039062 8.601562 5.039062 Z M 8.601562 5.039062 "/>
</svg>
