<?xml version="1.0" encoding="UTF-8"?>
<svg xmlns="http://www.w3.org/2000/svg" xmlns:xlink="http://www.w3.org/1999/xlink" width="17.549925" height="15" viewBox="0 0 17.549925 15">
<path fill-rule="nonzero" fill="rgb(100%, 100%, 100%)" fill-opacity="1" stroke-width="9" stroke-linecap="round" stroke-linejoin="round" stroke="rgb(0%, 0%, 0%)" stroke-opacity="1" stroke-miterlimit="4" d="M 441.58049 -202.988848 C 271.149424 -202.988848 141.225742 -203.588957 4.50082 -204.889194 C 70.512853 -88.567992 155.828404 53.85797 221.840437 170.179172 C 290.152888 54.058006 444.881092 -202.988848 444.881092 -202.988848 Z M 441.58049 -202.988848 " transform="matrix(0.0390554, 0, 0, 0.0390554, 0, 8.177807)"/>
<path fill-rule="nonzero" fill="rgb(0%, 0%, 0%)" fill-opacity="1" d="M 10.335938 5.546875 L 10.335938 7.367188 C 10.34375 8.105469 9.722656 8.757812 8.945312 8.757812 C 8.132812 8.757812 7.554688 8.097656 7.554688 7.367188 L 7.554688 6.949219 L 8.425781 6.949219 L 8.425781 7.367188 C 8.425781 7.664062 8.664062 7.886719 8.941406 7.886719 C 9.234375 7.886719 9.464844 7.648438 9.464844 7.367188 L 9.464844 5.578125 C 9.464844 5.273438 9.210938 5.058594 8.945312 5.058594 C 8.730469 5.058594 8.507812 5.183594 8.425781 5.429688 L 7.558594 5.429688 L 7.558594 1.671875 L 10.335938 1.671875 L 10.335938 2.542969 L 8.425781 2.542969 L 8.425781 4.5 C 8.664062 4.289062 8.914062 4.222656 9.234375 4.222656 C 9.964844 4.222656 10.335938 4.878906 10.335938 5.546875 Z M 10.335938 5.546875 "/>
</svg>
