<?xml version="1.0" encoding="UTF-8"?>
<svg xmlns="http://www.w3.org/2000/svg" xmlns:xlink="http://www.w3.org/1999/xlink" width="17.549925" height="15" viewBox="0 0 17.549925 15">
<path fill-rule="nonzero" fill="rgb(100%, 100%, 100%)" fill-opacity="1" stroke-width="9" stroke-linecap="round" stroke-linejoin="round" stroke="rgb(0%, 0%, 0%)" stroke-opacity="1" stroke-miterlimit="4" d="M 441.58049 -202.988848 C 271.149424 -202.988848 141.225742 -203.588957 4.50082 -204.889194 C 70.512853 -88.567992 155.828404 53.85797 221.840437 170.179172 C 290.152888 54.058006 444.881092 -202.988848 444.881092 -202.988848 Z M 441.58049 -202.988848 " transform="matrix(0.0390554, 0, 0, 0.0390554, 0, 8.177807)"/>
<path fill-rule="nonzero" fill="rgb(0%, 0%, 0%)" fill-opacity="1" d="M 8.601562 2.03125 C 7.855469 2.035156 7.109375 2.542969 7.109375 3.546875 L 7.097656 3.546875 L 7.097656 7.683594 L 7.109375 7.683594 C 7.125 9.703125 10.09375 9.683594 10.09375 7.683594 L 10.101562 7.683594 L 10.101562 3.546875 L 10.09375 3.546875 C 10.09375 2.527344 9.347656 2.027344 8.601562 2.03125 Z M 8.597656 2.929688 C 8.914062 2.925781 9.230469 3.128906 9.230469 3.546875 L 9.230469 7.683594 L 9.234375 7.683594 C 9.230469 8.496094 7.972656 8.496094 7.972656 7.664062 L 7.972656 3.546875 L 7.96875 3.546875 C 7.96875 3.140625 8.285156 2.933594 8.597656 2.929688 Z M 8.597656 2.929688 "/>
</svg>
