<?xml version="1.0" encoding="UTF-8"?>
<svg xmlns="http://www.w3.org/2000/svg" xmlns:xlink="http://www.w3.org/1999/xlink" width="22.229904" height="19" viewBox="0 0 22.229904 19">
<path fill-rule="nonzero" fill="rgb(100%, 100%, 100%)" fill-opacity="1" stroke-width="9" stroke-linecap="round" stroke-linejoin="round" stroke="rgb(0%, 0%, 0%)" stroke-opacity="1" stroke-miterlimit="4" d="M 441.553693 -202.99389 C 271.154396 -202.99389 141.262439 -203.625584 4.500816 -204.888971 C 70.512777 -88.578422 155.791387 53.868442 221.803348 170.178991 C 290.18416 54.026365 444.870083 -202.99389 444.870083 -202.99389 Z M 441.553693 -202.99389 " transform="matrix(0.0494702, 0, 0, 0.0494702, 0, 10.358555)"/>
<path fill-rule="nonzero" fill="rgb(0%, 0%, 0%)" fill-opacity="1" d="M 13.09375 7.027344 L 13.09375 9.332031 C 13.101562 10.265625 12.316406 11.09375 11.332031 11.09375 C 10.300781 11.09375 9.570312 10.257812 9.570312 9.332031 L 9.570312 8.800781 L 10.671875 8.800781 L 10.671875 9.332031 C 10.671875 9.707031 10.972656 9.988281 11.324219 9.988281 C 11.695312 9.988281 11.988281 9.6875 11.988281 9.332031 L 11.988281 7.066406 C 11.988281 6.679688 11.667969 6.40625 11.332031 6.40625 C 11.058594 6.40625 10.777344 6.566406 10.671875 6.878906 L 9.574219 6.878906 L 9.574219 2.117188 L 13.09375 2.117188 L 13.09375 3.222656 L 10.671875 3.222656 L 10.671875 5.699219 C 10.972656 5.433594 11.292969 5.347656 11.695312 5.347656 C 12.621094 5.347656 13.09375 6.179688 13.09375 7.027344 Z M 13.09375 7.027344 "/>
</svg>
