<?xml version="1.0" encoding="UTF-8"?>
<svg xmlns="http://www.w3.org/2000/svg" xmlns:xlink="http://www.w3.org/1999/xlink" width="22.229904" height="19" viewBox="0 0 22.229904 19">
<path fill-rule="nonzero" fill="rgb(100%, 100%, 100%)" fill-opacity="1" stroke-width="9" stroke-linecap="round" stroke-linejoin="round" stroke="rgb(0%, 0%, 0%)" stroke-opacity="1" stroke-miterlimit="4" d="M 441.553693 -202.99389 C 271.154396 -202.99389 141.262439 -203.625584 4.500816 -204.888971 C 70.512777 -88.578422 155.791387 53.868442 221.803348 170.178991 C 290.18416 54.026365 444.870083 -202.99389 444.870083 -202.99389 Z M 441.553693 -202.99389 " transform="matrix(0.0494702, 0, 0, 0.0494702, 0, 10.358555)"/>
<path fill-rule="nonzero" fill="rgb(0%, 0%, 0%)" fill-opacity="1" d="M 8.765625 2.042969 C 7.664062 2.042969 6.863281 2.78125 6.847656 3.964844 C 6.84375 3.964844 6.84375 3.964844 6.84375 3.964844 L 6.84375 4.972656 C 6.84375 5.417969 7.039062 5.941406 7.40625 6.304688 C 7.039062 6.664062 6.84375 7.167969 6.84375 7.613281 L 6.847656 9.160156 C 6.847656 10.335938 7.664062 11.078125 8.765625 11.078125 C 9.789062 11.078125 10.648438 10.355469 10.648438 9.160156 L 10.648438 7.613281 C 10.648438 7.167969 10.410156 6.589844 10.082031 6.296875 C 10.480469 5.914062 10.648438 5.402344 10.648438 4.957031 L 10.648438 3.964844 C 10.648438 2.765625 9.789062 2.042969 8.765625 2.042969 Z M 8.726562 3.179688 C 9.1875 3.175781 9.542969 3.464844 9.542969 3.9375 L 9.542969 4.9375 C 9.542969 5.34375 9.246094 5.746094 8.746094 5.746094 C 8.242188 5.746094 7.945312 5.34375 7.945312 4.9375 L 7.949219 3.921875 C 7.949219 3.457031 8.355469 3.1875 8.726562 3.179688 Z M 8.746094 6.851562 C 9.210938 6.851562 9.542969 7.230469 9.542969 7.660156 L 9.542969 9.183594 C 9.542969 9.652344 9.1875 9.945312 8.726562 9.941406 C 8.355469 9.933594 7.949219 9.664062 7.949219 9.191406 L 7.945312 7.660156 C 7.945312 7.222656 8.292969 6.851562 8.746094 6.851562 Z M 8.746094 6.851562 "/>
<path fill-rule="nonzero" fill="rgb(0%, 0%, 0%)" fill-opacity="1" d="M 13.519531 2.042969 C 12.59375 2.046875 11.667969 2.679688 11.667969 3.921875 L 11.65625 3.921875 L 11.65625 9.0625 L 11.667969 9.0625 C 11.683594 11.570312 15.375 11.546875 15.375 9.0625 L 15.386719 9.0625 L 15.386719 3.921875 L 15.375 3.921875 C 15.375 2.660156 14.445312 2.035156 13.519531 2.042969 Z M 13.515625 3.15625 C 13.910156 3.152344 14.300781 3.40625 14.300781 3.921875 L 14.300781 9.0625 L 14.304688 9.0625 C 14.300781 10.070312 12.738281 10.070312 12.738281 9.039062 L 12.738281 3.921875 L 12.734375 3.921875 C 12.734375 3.417969 13.128906 3.160156 13.515625 3.15625 Z M 13.515625 3.15625 "/>
</svg>
