<?xml version="1.0" encoding="UTF-8"?>
<svg xmlns="http://www.w3.org/2000/svg" xmlns:xlink="http://www.w3.org/1999/xlink" width="17.549925" height="15" viewBox="0 0 17.549925 15">
<path fill-rule="nonzero" fill="rgb(100%, 100%, 100%)" fill-opacity="1" stroke-width="9" stroke-linecap="round" stroke-linejoin="round" stroke="rgb(0%, 0%, 0%)" stroke-opacity="1" stroke-miterlimit="4" d="M 441.58049 -202.988848 C 271.149424 -202.988848 141.225742 -203.588957 4.50082 -204.889194 C 70.512853 -88.567992 155.828404 53.85797 221.840437 170.179172 C 290.152888 54.058006 444.881092 -202.988848 444.881092 -202.988848 Z M 441.58049 -202.988848 " transform="matrix(0.0390554, 0, 0, 0.0390554, 0, 8.177807)"/>
<path fill-rule="nonzero" fill="rgb(0%, 0%, 0%)" fill-opacity="1" d="M 7.4375 1.878906 L 6.480469 2.824219 L 6.480469 4.304688 L 7.421875 3.347656 L 7.421875 9.019531 L 8.441406 9.019531 L 8.441406 1.878906 Z M 7.4375 1.878906 "/>
<path fill-rule="nonzero" fill="rgb(0%, 0%, 0%)" fill-opacity="1" d="M 11.648438 4.203125 L 11.648438 5.300781 C 11.652344 5.746094 11.28125 6.140625 10.808594 6.140625 C 10.320312 6.140625 9.972656 5.742188 9.972656 5.300781 L 9.972656 5.050781 L 10.496094 5.050781 L 10.496094 5.300781 C 10.496094 5.480469 10.640625 5.613281 10.808594 5.613281 C 10.984375 5.613281 11.121094 5.472656 11.121094 5.300781 L 11.121094 4.222656 C 11.121094 4.039062 10.972656 3.910156 10.808594 3.910156 C 10.683594 3.910156 10.546875 3.984375 10.496094 4.132812 L 9.972656 4.132812 L 9.972656 1.867188 L 11.648438 1.867188 L 11.648438 2.390625 L 10.496094 2.390625 L 10.496094 3.574219 C 10.640625 3.445312 10.789062 3.40625 10.984375 3.40625 C 11.425781 3.40625 11.648438 3.800781 11.648438 4.203125 Z M 11.648438 4.203125 "/>
</svg>
