<?xml version="1.0" encoding="UTF-8"?>
<svg xmlns="http://www.w3.org/2000/svg" xmlns:xlink="http://www.w3.org/1999/xlink" width="17.549925" height="15" viewBox="0 0 17.549925 15">
<path fill-rule="nonzero" fill="rgb(100%, 100%, 100%)" fill-opacity="1" stroke-width="9" stroke-linecap="round" stroke-linejoin="round" stroke="rgb(0%, 0%, 0%)" stroke-opacity="1" stroke-miterlimit="4" d="M 441.58049 -202.988848 C 271.149424 -202.988848 141.225742 -203.588957 4.50082 -204.889194 C 70.512853 -88.567992 155.828404 53.85797 221.840437 170.179172 C 290.152888 54.058006 444.881092 -202.988848 444.881092 -202.988848 Z M 441.58049 -202.988848 " transform="matrix(0.0390554, 0, 0, 0.0390554, 0, 8.177807)"/>
<path fill-rule="nonzero" fill="rgb(0%, 0%, 0%)" fill-opacity="1" d="M 10.425781 8.695312 L 7.472656 8.695312 L 7.472656 7.8125 L 9.390625 4.140625 C 9.476562 3.976562 9.582031 3.800781 9.582031 3.625 L 9.582031 3.121094 C 9.582031 2.742188 9.300781 2.511719 8.9375 2.515625 C 8.648438 2.519531 8.324219 2.738281 8.324219 3.113281 L 8.324219 3.679688 L 7.453125 3.679688 L 7.453125 3.171875 C 7.453125 2.210938 8.089844 1.609375 8.96875 1.609375 C 9.78125 1.609375 10.453125 2.183594 10.453125 3.140625 L 10.453125 3.742188 C 10.453125 4.042969 10.273438 4.34375 10.136719 4.605469 L 8.457031 7.816406 L 10.425781 7.816406 L 10.425781 8.695312 "/>
</svg>
