<?xml version="1.0" encoding="UTF-8"?>
<svg xmlns="http://www.w3.org/2000/svg" xmlns:xlink="http://www.w3.org/1999/xlink" width="22.229904" height="19" viewBox="0 0 22.229904 19">
<path fill-rule="nonzero" fill="rgb(100%, 100%, 100%)" fill-opacity="1" stroke-width="9" stroke-linecap="round" stroke-linejoin="round" stroke="rgb(0%, 0%, 0%)" stroke-opacity="1" stroke-miterlimit="4" d="M 441.553693 -202.99389 C 271.154396 -202.99389 141.262439 -203.625584 4.500816 -204.888971 C 70.512777 -88.578422 155.791387 53.868442 221.803348 170.178991 C 290.18416 54.026365 444.870083 -202.99389 444.870083 -202.99389 Z M 441.553693 -202.99389 " transform="matrix(0.0494702, 0, 0, 0.0494702, 0, 10.358555)"/>
<path fill-rule="nonzero" fill="rgb(0%, 0%, 0%)" fill-opacity="1" d="M 9.023438 1.867188 L 6.652344 8.316406 L 6.652344 9.390625 L 9.351562 9.390625 L 9.351562 10.792969 L 10.425781 10.792969 L 10.425781 9.390625 L 10.953125 9.390625 L 10.953125 8.316406 L 10.425781 8.316406 L 10.425781 5.917969 L 9.351562 5.917969 L 9.351562 8.316406 L 7.839844 8.316406 L 10.195312 1.867188 Z M 9.023438 1.867188 "/>
<path fill-rule="nonzero" fill="rgb(0%, 0%, 0%)" fill-opacity="1" d="M 13.675781 1.726562 C 12.730469 1.730469 11.785156 2.375 11.785156 3.644531 L 11.773438 3.644531 L 11.773438 8.886719 L 11.785156 8.886719 C 11.804688 11.441406 15.566406 11.417969 15.566406 8.886719 L 15.578125 8.886719 L 15.578125 3.644531 L 15.566406 3.644531 C 15.566406 2.355469 14.621094 1.71875 13.675781 1.726562 Z M 13.671875 2.863281 C 14.074219 2.859375 14.472656 3.117188 14.472656 3.644531 L 14.472656 8.886719 L 14.476562 8.886719 C 14.472656 9.914062 12.878906 9.914062 12.878906 8.859375 L 12.878906 3.644531 L 12.875 3.644531 C 12.875 3.128906 13.277344 2.867188 13.671875 2.863281 Z M 13.671875 2.863281 "/>
</svg>
