<?xml version="1.0" encoding="UTF-8"?>
<svg xmlns="http://www.w3.org/2000/svg" xmlns:xlink="http://www.w3.org/1999/xlink" width="22.229904" height="19" viewBox="0 0 22.229904 19">
<path fill-rule="nonzero" fill="rgb(100%, 100%, 100%)" fill-opacity="1" stroke-width="9" stroke-linecap="round" stroke-linejoin="round" stroke="rgb(0%, 0%, 0%)" stroke-opacity="1" stroke-miterlimit="4" d="M 441.553693 -202.99389 C 271.154396 -202.99389 141.262439 -203.625584 4.500816 -204.888971 C 70.512777 -88.578422 155.791387 53.868442 221.803348 170.178991 C 290.18416 54.026365 444.870083 -202.99389 444.870083 -202.99389 Z M 441.553693 -202.99389 " transform="matrix(0.0494702, 0, 0, 0.0494702, 0, 10.358555)"/>
<path fill-rule="nonzero" fill="rgb(0%, 0%, 0%)" fill-opacity="1" d="M 10.542969 7.027344 L 10.542969 9.332031 C 10.550781 10.265625 9.765625 11.09375 8.78125 11.09375 C 7.75 11.09375 7.019531 10.257812 7.019531 9.332031 L 7.019531 8.800781 L 8.121094 8.800781 L 8.121094 9.332031 C 8.121094 9.707031 8.421875 9.988281 8.773438 9.988281 C 9.144531 9.988281 9.4375 9.6875 9.4375 9.332031 L 9.4375 7.066406 C 9.4375 6.679688 9.117188 6.40625 8.78125 6.40625 C 8.507812 6.40625 8.226562 6.566406 8.121094 6.878906 L 7.023438 6.878906 L 7.023438 2.117188 L 10.542969 2.117188 L 10.542969 3.222656 L 8.121094 3.222656 L 8.121094 5.699219 C 8.421875 5.433594 8.742188 5.347656 9.144531 5.347656 C 10.070312 5.347656 10.542969 6.179688 10.542969 7.027344 Z M 10.542969 7.027344 "/>
<path fill-rule="nonzero" fill="rgb(0%, 0%, 0%)" fill-opacity="1" d="M 13.308594 2.070312 C 12.363281 2.074219 11.417969 2.71875 11.417969 3.988281 L 11.40625 3.988281 L 11.40625 9.230469 L 11.417969 9.230469 C 11.4375 11.785156 15.199219 11.761719 15.199219 9.230469 L 15.210938 9.230469 L 15.210938 3.988281 L 15.199219 3.988281 C 15.199219 2.699219 14.253906 2.0625 13.308594 2.070312 Z M 13.304688 3.207031 C 13.707031 3.203125 14.105469 3.460938 14.105469 3.988281 L 14.105469 9.230469 L 14.109375 9.230469 C 14.105469 10.257812 12.511719 10.257812 12.511719 9.203125 L 12.511719 3.988281 L 12.507812 3.988281 C 12.507812 3.472656 12.910156 3.210938 13.304688 3.207031 Z M 13.304688 3.207031 "/>
</svg>
