<?xml version="1.0" encoding="UTF-8"?>
<svg xmlns="http://www.w3.org/2000/svg" xmlns:xlink="http://www.w3.org/1999/xlink" width="22.229905" height="19" viewBox="0 0 22.229905 19">
<path fill-rule="nonzero" fill="rgb(100%, 100%, 100%)" fill-opacity="1" stroke-width="9" stroke-linecap="round" stroke-linejoin="round" stroke="rgb(0%, 0%, 0%)" stroke-opacity="1" stroke-miterlimit="4" d="M 441.553946 -202.994017 C 271.154551 -202.994017 141.262519 -203.625711 4.500818 -204.889098 C 70.512817 -88.578483 155.791476 53.868463 221.803475 170.179078 C 290.184326 54.026386 444.870338 -202.994017 444.870338 -202.994017 Z M 441.553946 -202.994017 " transform="matrix(0.0494702, 0, 0, 0.0494702, 0, 10.358555)"/>
<path fill-rule="nonzero" fill="rgb(0%, 0%, 0%)" fill-opacity="1" d="M 11.359375 2.042969 C 10.257812 2.042969 9.457031 2.78125 9.441406 3.964844 C 9.4375 3.964844 9.4375 3.964844 9.4375 3.964844 L 9.4375 4.972656 C 9.4375 5.417969 9.632812 5.941406 10 6.304688 C 9.632812 6.664062 9.4375 7.167969 9.4375 7.613281 L 9.441406 9.160156 C 9.441406 10.335938 10.257812 11.078125 11.359375 11.078125 C 12.382812 11.078125 13.242188 10.355469 13.242188 9.160156 L 13.242188 7.613281 C 13.242188 7.167969 13.003906 6.589844 12.675781 6.296875 C 13.074219 5.914062 13.242188 5.402344 13.242188 4.957031 L 13.242188 3.964844 C 13.242188 2.765625 12.382812 2.042969 11.359375 2.042969 Z M 11.320312 3.179688 C 11.78125 3.175781 12.136719 3.464844 12.136719 3.9375 L 12.136719 4.9375 C 12.136719 5.34375 11.839844 5.746094 11.339844 5.746094 C 10.835938 5.746094 10.539062 5.34375 10.539062 4.9375 L 10.542969 3.921875 C 10.542969 3.457031 10.949219 3.1875 11.320312 3.179688 Z M 11.339844 6.851562 C 11.804688 6.851562 12.136719 7.230469 12.136719 7.660156 L 12.136719 9.183594 C 12.136719 9.652344 11.78125 9.945312 11.320312 9.941406 C 10.949219 9.933594 10.542969 9.664062 10.542969 9.191406 L 10.539062 7.660156 C 10.539062 7.222656 10.886719 6.851562 11.339844 6.851562 Z M 11.339844 6.851562 "/>
</svg>
