<?xml version="1.0" encoding="UTF-8"?>
<svg xmlns="http://www.w3.org/2000/svg" xmlns:xlink="http://www.w3.org/1999/xlink" width="22.229904" height="19" viewBox="0 0 22.229904 19">
<path fill-rule="nonzero" fill="rgb(100%, 100%, 100%)" fill-opacity="1" stroke-width="9" stroke-linecap="round" stroke-linejoin="round" stroke="rgb(0%, 0%, 0%)" stroke-opacity="1" stroke-miterlimit="4" d="M 441.553693 -202.99389 C 271.154396 -202.99389 141.262439 -203.625584 4.500816 -204.888971 C 70.512777 -88.578422 155.791387 53.868442 221.803348 170.178991 C 290.18416 54.026365 444.870083 -202.99389 444.870083 -202.99389 Z M 441.553693 -202.99389 " transform="matrix(0.0494702, 0, 0, 0.0494702, 0, 10.358555)"/>
<path fill-rule="nonzero" fill="rgb(0%, 0%, 0%)" fill-opacity="1" d="M 6.839844 2.035156 L 5.792969 3.074219 L 5.792969 4.695312 L 6.824219 3.648438 L 6.824219 9.863281 L 7.941406 9.863281 L 7.941406 2.035156 Z M 6.839844 2.035156 "/>
<path fill-rule="nonzero" fill="rgb(0%, 0%, 0%)" fill-opacity="1" d="M 10.683594 2.042969 C 9.867188 2.046875 9.050781 2.601562 9.050781 3.699219 L 9.039062 3.699219 L 9.039062 8.234375 L 9.050781 8.234375 C 9.066406 10.441406 12.320312 10.421875 12.320312 8.234375 L 12.328125 8.234375 L 12.328125 3.699219 L 12.320312 3.699219 C 12.320312 2.585938 11.5 2.035156 10.683594 2.042969 Z M 10.679688 3.023438 C 11.027344 3.019531 11.375 3.246094 11.375 3.699219 L 11.375 8.234375 C 11.375 9.121094 9.996094 9.121094 9.996094 8.210938 L 9.996094 3.699219 L 9.992188 3.699219 C 9.992188 3.253906 10.339844 3.027344 10.679688 3.023438 Z M 10.679688 3.023438 "/>
<path fill-rule="nonzero" fill="rgb(0%, 0%, 0%)" fill-opacity="1" d="M 14.792969 2.042969 C 13.972656 2.046875 13.15625 2.601562 13.15625 3.699219 L 13.148438 3.699219 L 13.148438 8.234375 L 13.15625 8.234375 C 13.171875 10.441406 16.425781 10.421875 16.425781 8.234375 L 16.4375 8.234375 L 16.4375 3.699219 L 16.425781 3.699219 C 16.425781 2.585938 15.609375 2.035156 14.792969 2.042969 Z M 14.789062 3.023438 C 15.136719 3.019531 15.480469 3.246094 15.480469 3.699219 L 15.480469 8.234375 L 15.484375 8.234375 C 15.480469 9.121094 14.101562 9.121094 14.101562 8.210938 L 14.101562 3.699219 L 14.097656 3.699219 C 14.097656 3.253906 14.445312 3.027344 14.789062 3.023438 Z M 14.789062 3.023438 "/>
</svg>
