<?xml version="1.0" encoding="UTF-8"?>
<svg xmlns="http://www.w3.org/2000/svg" xmlns:xlink="http://www.w3.org/1999/xlink" width="17.549925" height="15" viewBox="0 0 17.549925 15">
<path fill-rule="nonzero" fill="rgb(100%, 100%, 100%)" fill-opacity="1" stroke-width="9" stroke-linecap="round" stroke-linejoin="round" stroke="rgb(0%, 0%, 0%)" stroke-opacity="1" stroke-miterlimit="4" d="M 441.58049 -202.988848 C 271.149424 -202.988848 141.225742 -203.588957 4.50082 -204.889194 C 70.512853 -88.567992 155.828404 53.85797 221.840437 170.179172 C 290.152888 54.058006 444.881092 -202.988848 444.881092 -202.988848 Z M 441.58049 -202.988848 " transform="matrix(0.0390554, 0, 0, 0.0390554, 0, 8.177807)"/>
<path fill-rule="nonzero" fill="rgb(0%, 0%, 0%)" fill-opacity="1" d="M 8.796875 1.472656 L 6.925781 6.566406 L 6.925781 7.414062 L 9.058594 7.414062 L 9.058594 8.519531 L 9.90625 8.519531 L 9.90625 7.414062 L 10.320312 7.414062 L 10.320312 6.566406 L 9.90625 6.566406 L 9.90625 4.671875 L 9.058594 4.671875 L 9.058594 6.566406 L 7.863281 6.566406 L 9.722656 1.472656 Z M 8.796875 1.472656 "/>
</svg>
