<?xml version="1.0" encoding="UTF-8"?>
<svg xmlns="http://www.w3.org/2000/svg" xmlns:xlink="http://www.w3.org/1999/xlink" width="22.229904" height="19" viewBox="0 0 22.229904 19">
<path fill-rule="nonzero" fill="rgb(100%, 100%, 100%)" fill-opacity="1" stroke-width="9" stroke-linecap="round" stroke-linejoin="round" stroke="rgb(0%, 0%, 0%)" stroke-opacity="1" stroke-miterlimit="4" d="M 441.553693 -202.99389 C 271.154396 -202.99389 141.262439 -203.625584 4.500816 -204.888971 C 70.512777 -88.578422 155.791387 53.868442 221.803348 170.178991 C 290.18416 54.026365 444.870083 -202.99389 444.870083 -202.99389 Z M 441.553693 -202.99389 " transform="matrix(0.0494702, 0, 0, 0.0494702, 0, 10.358555)"/>
<path fill-rule="nonzero" fill="rgb(0%, 0%, 0%)" fill-opacity="1" d="M 14.753906 5.324219 L 14.753906 6.714844 C 14.757812 7.277344 14.289062 7.777344 13.691406 7.777344 C 13.074219 7.777344 12.632812 7.273438 12.632812 6.714844 L 12.632812 6.398438 L 13.296875 6.398438 L 13.296875 6.714844 C 13.296875 6.941406 13.476562 7.109375 13.691406 7.109375 C 13.914062 7.109375 14.085938 6.933594 14.085938 6.714844 L 14.085938 5.347656 C 14.085938 5.117188 13.898438 4.953125 13.691406 4.953125 C 13.53125 4.953125 13.359375 5.046875 13.296875 5.234375 L 12.632812 5.234375 L 12.632812 2.363281 L 14.753906 2.363281 L 14.753906 3.027344 L 13.296875 3.027344 L 13.296875 4.527344 C 13.476562 4.363281 13.667969 4.316406 13.914062 4.316406 C 14.472656 4.316406 14.753906 4.8125 14.753906 5.324219 Z M 14.753906 5.324219 "/>
<path fill-rule="nonzero" fill="rgb(0%, 0%, 0%)" fill-opacity="1" d="M 9.820312 2.382812 C 8.875 2.386719 7.929688 3.03125 7.929688 4.300781 L 7.917969 4.300781 L 7.917969 9.542969 L 7.929688 9.542969 C 7.949219 12.097656 11.710938 12.074219 11.710938 9.542969 L 11.722656 9.542969 L 11.722656 4.300781 L 11.710938 4.300781 C 11.710938 3.011719 10.765625 2.375 9.820312 2.382812 Z M 9.816406 3.519531 C 10.21875 3.515625 10.617188 3.773438 10.617188 4.300781 L 10.617188 9.542969 L 10.621094 9.542969 C 10.617188 10.570312 9.023438 10.570312 9.023438 9.515625 L 9.023438 4.300781 L 9.019531 4.300781 C 9.019531 3.785156 9.421875 3.523438 9.816406 3.519531 Z M 9.816406 3.519531 "/>
</svg>
