<?xml version="1.0" encoding="UTF-8"?>
<svg xmlns="http://www.w3.org/2000/svg" xmlns:xlink="http://www.w3.org/1999/xlink" width="22.229904" height="19" viewBox="0 0 22.229904 19">
<path fill-rule="nonzero" fill="rgb(100%, 100%, 100%)" fill-opacity="1" stroke-width="9" stroke-linecap="round" stroke-linejoin="round" stroke="rgb(0%, 0%, 0%)" stroke-opacity="1" stroke-miterlimit="4" d="M 441.553693 -202.99389 C 271.154396 -202.99389 141.262439 -203.625584 4.500816 -204.888971 C 70.512777 -88.578422 155.791387 53.868442 221.803348 170.178991 C 290.18416 54.026365 444.870083 -202.99389 444.870083 -202.99389 Z M 441.553693 -202.99389 " transform="matrix(0.0494702, 0, 0, 0.0494702, 0, 10.358555)"/>
<path fill-rule="nonzero" fill="rgb(0%, 0%, 0%)" fill-opacity="1" d="M 8.859375 1.835938 C 7.875 1.835938 6.898438 2.871094 6.898438 3.863281 L 6.898438 9.171875 C 6.898438 9.835938 7.484375 10.894531 8.824219 10.894531 C 9.910156 10.894531 10.75 9.90625 10.75 9.171875 L 10.75 6.648438 C 10.75 4.859375 8.863281 4.816406 8.203125 5.070312 L 8.203125 3.742188 C 8.203125 3.019531 9.65625 3.046875 9.65625 3.742188 L 10.820312 3.742188 C 10.820312 2.871094 9.839844 1.835938 8.859375 1.835938 Z M 8.789062 6.289062 C 9.121094 6.273438 9.476562 6.445312 9.476562 6.792969 L 9.476562 8.84375 C 9.476562 9.753906 8.210938 9.808594 8.210938 8.84375 L 8.210938 6.773438 C 8.210938 6.464844 8.488281 6.304688 8.789062 6.289062 Z M 8.789062 6.289062 "/>
<path fill-rule="nonzero" fill="rgb(0%, 0%, 0%)" fill-opacity="1" d="M 13.40625 1.714844 C 12.449219 1.71875 11.492188 2.371094 11.492188 3.65625 L 11.480469 3.65625 L 11.480469 8.964844 L 11.492188 8.964844 C 11.511719 11.550781 15.320312 11.527344 15.320312 8.964844 L 15.332031 8.964844 L 15.332031 3.65625 L 15.320312 3.65625 C 15.320312 2.351562 14.363281 1.707031 13.40625 1.714844 Z M 13.402344 2.863281 C 13.808594 2.859375 14.210938 3.121094 14.210938 3.65625 L 14.210938 8.964844 L 14.214844 8.964844 C 14.210938 10.003906 12.597656 10.003906 12.597656 8.9375 L 12.597656 3.65625 L 12.59375 3.65625 C 12.59375 3.132812 13 2.867188 13.402344 2.863281 Z M 13.402344 2.863281 "/>
</svg>
