<?xml version="1.0" encoding="UTF-8"?>
<svg xmlns="http://www.w3.org/2000/svg" xmlns:xlink="http://www.w3.org/1999/xlink" width="22.229904" height="19" viewBox="0 0 22.229904 19">
<path fill-rule="nonzero" fill="rgb(100%, 100%, 100%)" fill-opacity="1" stroke-width="9" stroke-linecap="round" stroke-linejoin="round" stroke="rgb(0%, 0%, 0%)" stroke-opacity="1" stroke-miterlimit="4" d="M 441.553693 -202.99389 C 271.154396 -202.99389 141.262439 -203.625584 4.500816 -204.888971 C 70.512777 -88.578422 155.791387 53.868442 221.803348 170.178991 C 290.18416 54.026365 444.870083 -202.99389 444.870083 -202.99389 Z M 441.553693 -202.99389 " transform="matrix(0.0494702, 0, 0, 0.0494702, 0, 10.358555)"/>
<path fill-rule="nonzero" fill="rgb(0%, 0%, 0%)" fill-opacity="1" d="M 8.453125 2.378906 L 7.238281 3.578125 L 7.238281 5.453125 L 8.433594 4.242188 L 8.433594 11.425781 L 9.722656 11.425781 L 9.722656 2.378906 Z M 8.453125 2.378906 "/>
<path fill-rule="nonzero" fill="rgb(0%, 0%, 0%)" fill-opacity="1" d="M 14.988281 7.359375 L 14.988281 9.664062 C 14.996094 10.597656 14.210938 11.425781 13.226562 11.425781 C 12.195312 11.425781 11.464844 10.589844 11.464844 9.664062 L 11.464844 9.132812 L 12.566406 9.132812 L 12.566406 9.664062 C 12.566406 10.039062 12.867188 10.320312 13.21875 10.320312 C 13.589844 10.320312 13.882812 10.019531 13.882812 9.664062 L 13.882812 7.398438 C 13.882812 7.011719 13.5625 6.738281 13.226562 6.738281 C 12.953125 6.738281 12.671875 6.898438 12.566406 7.210938 L 11.46875 7.210938 L 11.46875 2.449219 L 14.988281 2.449219 L 14.988281 3.554688 L 12.566406 3.554688 L 12.566406 6.03125 C 12.867188 5.765625 13.1875 5.679688 13.589844 5.679688 C 14.515625 5.679688 14.988281 6.511719 14.988281 7.359375 Z M 14.988281 7.359375 "/>
</svg>
