<?xml version="1.0" encoding="UTF-8"?>
<svg xmlns="http://www.w3.org/2000/svg" xmlns:xlink="http://www.w3.org/1999/xlink" width="22.229904" height="19" viewBox="0 0 22.229904 19">
<path fill-rule="nonzero" fill="rgb(100%, 100%, 100%)" fill-opacity="1" stroke-width="9" stroke-linecap="round" stroke-linejoin="round" stroke="rgb(0%, 0%, 0%)" stroke-opacity="1" stroke-miterlimit="4" d="M 441.553693 -202.99389 C 271.154396 -202.99389 141.262439 -203.625584 4.500816 -204.888971 C 70.512777 -88.578422 155.791387 53.868442 221.803348 170.178991 C 290.18416 54.026365 444.870083 -202.99389 444.870083 -202.99389 Z M 441.553693 -202.99389 " transform="matrix(0.0494702, 0, 0, 0.0494702, 0, 10.358555)"/>
<path fill-rule="nonzero" fill="rgb(0%, 0%, 0%)" fill-opacity="1" d="M 8.230469 10.894531 L 10.882812 2.671875 L 10.882812 1.398438 L 6.632812 1.398438 L 6.632812 3.523438 L 8.007812 3.523438 L 8.007812 2.597656 L 9.429688 2.597656 L 6.804688 10.894531 Z M 8.230469 10.894531 "/>
<path fill-rule="nonzero" fill="rgb(0%, 0%, 0%)" fill-opacity="1" d="M 13.605469 1.398438 C 12.617188 1.402344 11.625 2.078125 11.625 3.40625 L 11.613281 3.40625 L 11.613281 8.898438 L 11.625 8.898438 C 11.648438 11.574219 15.585938 11.546875 15.585938 8.898438 L 15.597656 8.898438 L 15.597656 3.40625 L 15.585938 3.40625 C 15.585938 2.058594 14.597656 1.390625 13.605469 1.398438 Z M 13.601562 2.589844 C 14.023438 2.585938 14.441406 2.855469 14.441406 3.40625 L 14.441406 8.898438 L 14.445312 8.898438 C 14.441406 9.972656 12.773438 9.972656 12.773438 8.867188 L 12.773438 3.40625 L 12.765625 3.40625 C 12.765625 2.867188 13.1875 2.59375 13.601562 2.589844 Z M 13.601562 2.589844 "/>
</svg>
