<?xml version="1.0" encoding="UTF-8"?>
<svg xmlns="http://www.w3.org/2000/svg" xmlns:xlink="http://www.w3.org/1999/xlink" width="17.549925" height="15" viewBox="0 0 17.549925 15">
<path fill-rule="nonzero" fill="rgb(100%, 100%, 100%)" fill-opacity="1" stroke-width="9" stroke-linecap="round" stroke-linejoin="round" stroke="rgb(0%, 0%, 0%)" stroke-opacity="1" stroke-miterlimit="4" d="M 441.58049 -202.988848 C 271.149424 -202.988848 141.225742 -203.588957 4.50082 -204.889194 C 70.512853 -88.567992 155.828404 53.85797 221.840437 170.179172 C 290.152888 54.058006 444.881092 -202.988848 444.881092 -202.988848 Z M 441.58049 -202.988848 " transform="matrix(0.0390554, 0, 0, 0.0390554, 0, 8.177807)"/>
<path fill-rule="nonzero" fill="rgb(0%, 0%, 0%)" fill-opacity="1" d="M 8.96875 1.613281 C 8.097656 1.613281 7.464844 2.195312 7.453125 3.128906 C 7.449219 3.128906 7.449219 3.128906 7.449219 3.128906 L 7.449219 3.925781 C 7.449219 4.277344 7.605469 4.691406 7.894531 4.976562 C 7.605469 5.261719 7.449219 5.660156 7.449219 6.011719 L 7.453125 7.230469 C 7.453125 8.160156 8.097656 8.746094 8.96875 8.746094 C 9.777344 8.746094 10.453125 8.175781 10.453125 7.230469 L 10.453125 6.011719 C 10.453125 5.660156 10.265625 5.203125 10.007812 4.972656 C 10.320312 4.667969 10.453125 4.265625 10.453125 3.914062 L 10.453125 3.128906 C 10.453125 2.183594 9.777344 1.613281 8.96875 1.613281 Z M 8.9375 2.511719 C 9.300781 2.507812 9.582031 2.734375 9.582031 3.109375 L 9.582031 3.898438 C 9.582031 4.21875 9.347656 4.535156 8.953125 4.535156 C 8.554688 4.535156 8.320312 4.21875 8.320312 3.898438 L 8.324219 3.097656 C 8.324219 2.730469 8.644531 2.515625 8.9375 2.511719 Z M 8.953125 5.410156 C 9.320312 5.410156 9.582031 5.707031 9.582031 6.046875 L 9.582031 7.25 C 9.582031 7.621094 9.300781 7.851562 8.9375 7.847656 C 8.644531 7.84375 8.324219 7.628906 8.324219 7.257812 L 8.320312 6.046875 C 8.320312 5.703125 8.59375 5.410156 8.953125 5.410156 Z M 8.953125 5.410156 "/>
</svg>
