<?xml version="1.0" encoding="UTF-8"?>
<svg xmlns="http://www.w3.org/2000/svg" xmlns:xlink="http://www.w3.org/1999/xlink" width="10.826375" height="15" viewBox="0 0 10.826375 15">
<defs>
<filter id="filter-remove-color" x="0%" y="0%" width="100%" height="100%">
<feColorMatrix color-interpolation-filters="sRGB" values="0 0 0 0 1 0 0 0 0 1 0 0 0 0 1 0 0 0 1 0" />
</filter>
<mask id="mask-0">
<g filter="url(#filter-remove-color)">
<rect x="-1.082638" y="-1.5" width="12.99165" height="18" fill="rgb(0%, 0%, 0%)" fill-opacity="0.96"/>
</g>
</mask>
<clipPath id="clip-0">
<path clip-rule="nonzero" d="M 0 0 L 11 0 L 11 15 L 0 15 Z M 0 0 "/>
</clipPath>
<clipPath id="clip-1">
<rect x="0" y="0" width="11" height="15"/>
</clipPath>
<g id="source-5" clip-path="url(#clip-1)">
<path fill-rule="nonzero" fill="rgb(100%, 100%, 100%)" fill-opacity="1" d="M 0.25 0.00390625 L 10.578125 0.00390625 C 10.710938 0.00390625 10.820312 0.09375 10.820312 0.203125 L 10.820312 14.796875 C 10.820312 14.90625 10.710938 14.996094 10.578125 14.996094 L 0.25 14.996094 C 0.113281 14.996094 0.00390625 14.90625 0.00390625 14.796875 L 0.00390625 0.203125 C 0.00390625 0.09375 0.113281 0.00390625 0.25 0.00390625 Z M 0.25 0.00390625 "/>
<g clip-path="url(#clip-0)">
<path fill="none" stroke-width="0.181272" stroke-linecap="round" stroke-linejoin="round" stroke="rgb(100%, 100%, 100%)" stroke-opacity="1" stroke-miterlimit="4" d="M 4.427835 0.0691849 L 187.352772 0.0691849 C 189.705059 0.0691849 191.642237 1.660438 191.642237 3.597616 L 191.642237 262.072489 C 191.642237 264.009667 189.705059 265.60092 187.352772 265.60092 L 4.427835 265.60092 C 2.006363 265.60092 0.0691849 264.009667 0.0691849 262.072489 L 0.0691849 3.597616 C 0.0691849 1.660438 2.006363 0.0691849 4.427835 0.0691849 Z M 4.427835 0.0691849 " transform="matrix(0.056461, 0, 0, 0.056461, 0, 0)"/>
</g>
</g>
</defs>
<g mask="url(#mask-0)">
<use xlink:href="#source-5"/>
</g>
<path fill-rule="nonzero" fill="rgb(100%, 100%, 100%)" fill-opacity="1" d="M 0 0 L 10.828125 0 L 10.828125 15 L 0 15 Z M 0 0 "/>
<path fill-rule="evenodd" fill="rgb(0%, 0%, 0%)" fill-opacity="1" d="M 0 0 L 3.386719 0 L 0 3.386719 Z M 0 0 "/>
<path fill-rule="evenodd" fill="rgb(0%, 0%, 0%)" fill-opacity="1" d="M 10.828125 0 L 7.4375 0 L 10.828125 3.386719 Z M 10.828125 0 "/>
<path fill-rule="evenodd" fill="rgb(0%, 0%, 0%)" fill-opacity="1" d="M 0 15 L 3.386719 15 L 0 11.613281 Z M 0 15 "/>
<path fill-rule="evenodd" fill="rgb(0%, 0%, 0%)" fill-opacity="1" d="M 10.828125 15 L 7.4375 15 L 10.828125 11.613281 Z M 10.828125 15 "/>
</svg>
