<?xml version="1.0" encoding="UTF-8"?>
<svg xmlns="http://www.w3.org/2000/svg" xmlns:xlink="http://www.w3.org/1999/xlink" width="17.549925" height="15" viewBox="0 0 17.549925 15">
<path fill-rule="nonzero" fill="rgb(100%, 100%, 100%)" fill-opacity="1" stroke-width="9" stroke-linecap="round" stroke-linejoin="round" stroke="rgb(0%, 0%, 0%)" stroke-opacity="1" stroke-miterlimit="4" d="M 4.50082 -205.289267 L 224.540929 170.179172 L 444.481019 -205.289267 Z M 4.50082 -205.289267 " transform="matrix(0.0390554, 0, 0, 0.0390554, 0, 8.177807)"/>
<path fill-rule="nonzero" fill="rgb(85.09804%, 44.313726%, 0%)" fill-opacity="1" d="M 1.453125 0.902344 L 8.769531 13.386719 L 16.082031 0.902344 Z M 1.453125 0.902344 "/>
<path fill-rule="nonzero" fill="rgb(0%, 0%, 0%)" fill-opacity="1" d="M 6.492188 1.863281 L 5.5 2.839844 L 5.5 4.015625 L 6.429688 3.074219 L 6.429688 8.894531 L 7.300781 8.894531 L 7.300781 1.863281 Z M 6.492188 1.863281 "/>
<path fill-rule="nonzero" fill="rgb(0%, 0%, 0%)" fill-opacity="1" d="M 9.964844 1.882812 C 9.09375 1.882812 8.460938 2.46875 8.449219 3.398438 C 8.445312 3.398438 8.445312 3.398438 8.445312 3.398438 L 8.445312 4.195312 C 8.445312 4.546875 8.597656 4.960938 8.890625 5.246094 C 8.597656 5.53125 8.445312 5.929688 8.445312 6.28125 L 8.449219 7.5 C 8.449219 8.433594 9.09375 9.015625 9.964844 9.015625 C 10.773438 9.015625 11.449219 8.445312 11.449219 7.5 L 11.449219 6.28125 C 11.449219 5.929688 11.261719 5.472656 11.003906 5.246094 C 11.316406 4.941406 11.449219 4.539062 11.449219 4.1875 L 11.449219 3.398438 C 11.449219 2.453125 10.773438 1.882812 9.964844 1.882812 Z M 9.933594 2.78125 C 10.296875 2.777344 10.578125 3.007812 10.578125 3.378906 L 10.578125 4.171875 C 10.578125 4.488281 10.34375 4.804688 9.949219 4.804688 C 9.550781 4.804688 9.316406 4.488281 9.316406 4.171875 L 9.320312 3.371094 C 9.320312 3 9.640625 2.785156 9.933594 2.78125 Z M 9.949219 5.679688 C 10.316406 5.679688 10.578125 5.976562 10.578125 6.320312 L 10.578125 7.519531 C 10.578125 7.894531 10.296875 8.121094 9.933594 8.117188 C 9.640625 8.113281 9.320312 7.898438 9.320312 7.53125 L 9.316406 6.320312 C 9.316406 5.972656 9.589844 5.679688 9.949219 5.679688 Z M 9.949219 5.679688 "/>
</svg>
