<?xml version="1.0" encoding="UTF-8"?>
<svg xmlns="http://www.w3.org/2000/svg" xmlns:xlink="http://www.w3.org/1999/xlink" width="17.549925" height="15" viewBox="0 0 17.549925 15">
<path fill-rule="nonzero" fill="rgb(100%, 100%, 100%)" fill-opacity="1" stroke-width="9" stroke-linecap="round" stroke-linejoin="round" stroke="rgb(0%, 0%, 0%)" stroke-opacity="1" stroke-miterlimit="4" d="M 4.50082 -205.289267 L 224.540929 170.179172 L 444.481019 -205.289267 Z M 4.50082 -205.289267 " transform="matrix(0.0390554, 0, 0, 0.0390554, 0, 8.177807)"/>
<path fill-rule="nonzero" fill="rgb(85.09804%, 44.313726%, 0%)" fill-opacity="1" d="M 1.453125 0.902344 L 8.769531 13.386719 L 16.082031 0.902344 Z M 1.453125 0.902344 "/>
<path fill-rule="nonzero" fill="rgb(0%, 0%, 0%)" fill-opacity="1" d="M 6.492188 1.863281 L 5.5 2.839844 L 5.5 4.015625 L 6.429688 3.074219 L 6.429688 8.894531 L 7.300781 8.894531 L 7.300781 1.863281 Z M 6.492188 1.863281 "/>
<path fill-rule="nonzero" fill="rgb(0%, 0%, 0%)" fill-opacity="1" d="M 10.019531 8.949219 C 10.800781 8.949219 11.417969 8.300781 11.410156 7.5625 L 11.410156 3.253906 C 11.410156 2.527344 10.832031 1.863281 10.019531 1.863281 C 9.238281 1.863281 8.621094 2.515625 8.628906 3.253906 L 8.628906 5.074219 C 8.628906 5.742188 9 6.398438 9.730469 6.398438 C 10.050781 6.398438 10.300781 6.332031 10.535156 6.121094 L 10.535156 7.585938 C 10.523438 7.859375 10.300781 8.078125 10.015625 8.078125 C 9.738281 8.078125 9.5 7.859375 9.5 7.5625 L 9.5 7.144531 L 8.628906 7.144531 L 8.628906 7.5625 C 8.628906 8.289062 9.207031 8.949219 10.019531 8.949219 Z M 10.019531 5.5625 C 9.75 5.5625 9.5 5.347656 9.5 5.046875 L 9.5 3.253906 C 9.5 2.972656 9.726562 2.738281 10.023438 2.734375 C 10.296875 2.734375 10.535156 2.957031 10.535156 3.253906 L 10.535156 5.046875 C 10.535156 5.351562 10.269531 5.5625 10.019531 5.5625 Z M 10.019531 5.5625 "/>
</svg>
