<?xml version="1.0" encoding="UTF-8"?>
<svg xmlns="http://www.w3.org/2000/svg" xmlns:xlink="http://www.w3.org/1999/xlink" width="17.549925" height="15" viewBox="0 0 17.549925 15">
<path fill-rule="nonzero" fill="rgb(100%, 100%, 100%)" fill-opacity="1" stroke-width="9" stroke-linecap="round" stroke-linejoin="round" stroke="rgb(0%, 0%, 0%)" stroke-opacity="1" stroke-miterlimit="4" d="M 4.50082 -205.289267 L 224.540929 170.179172 L 444.481019 -205.289267 Z M 4.50082 -205.289267 " transform="matrix(0.0390554, 0, 0, 0.0390554, 0, 8.177807)"/>
<path fill-rule="nonzero" fill="rgb(85.09804%, 44.313726%, 0%)" fill-opacity="1" d="M 1.453125 0.902344 L 8.769531 13.386719 L 16.082031 0.902344 Z M 1.453125 0.902344 "/>
<path fill-rule="nonzero" fill="rgb(0%, 0%, 0%)" fill-opacity="1" d="M 10.714844 1.804688 C 10.011719 1.804688 9.308594 2.289062 9.308594 3.230469 L 9.308594 7.121094 C 9.308594 9.019531 12.113281 9.007812 12.117188 7.121094 L 12.117188 3.230469 C 12.113281 2.273438 11.414062 1.804688 10.714844 1.804688 Z M 10.710938 2.652344 C 10.996094 2.652344 11.304688 2.839844 11.304688 3.230469 L 11.304688 7.121094 C 11.308594 7.882812 10.121094 7.886719 10.121094 7.101562 L 10.117188 3.230469 C 10.117188 2.882812 10.414062 2.652344 10.710938 2.652344 Z M 10.710938 2.652344 "/>
<path fill-rule="nonzero" fill="rgb(0%, 0%, 0%)" fill-opacity="1" d="M 8.664062 8.46875 L 5.890625 8.46875 L 5.890625 7.636719 L 7.691406 4.1875 C 7.773438 4.03125 7.875 3.867188 7.875 3.703125 L 7.875 3.230469 C 7.875 2.875 7.609375 2.65625 7.265625 2.660156 C 6.992188 2.664062 6.691406 2.867188 6.691406 3.21875 L 6.691406 3.753906 L 5.871094 3.753906 L 5.871094 3.277344 C 5.871094 2.375 6.46875 1.804688 7.292969 1.804688 C 8.058594 1.804688 8.691406 2.347656 8.691406 3.246094 L 8.691406 3.8125 C 8.691406 4.09375 8.519531 4.378906 8.390625 4.625 L 6.816406 7.644531 L 8.664062 7.644531 L 8.664062 8.46875 "/>
</svg>
