<?xml version="1.0" encoding="UTF-8"?>
<svg xmlns="http://www.w3.org/2000/svg" xmlns:xlink="http://www.w3.org/1999/xlink" width="17.549925" height="15" viewBox="0 0 17.549925 15">
<path fill-rule="nonzero" fill="rgb(85.09804%, 44.313726%, 0%)" fill-opacity="1" stroke-width="15" stroke-linecap="round" stroke-linejoin="round" stroke="rgb(100%, 100%, 100%)" stroke-opacity="1" stroke-miterlimit="4" d="M 432.378813 -196.08759 C 290.05287 -195.887553 150.927511 -196.887736 17.203136 -197.287809 C 83.215168 -80.966606 156.328495 40.355508 222.340528 156.776729 C 290.65298 40.555545 364.166379 -79.766387 432.478831 -195.887553 C 430.378448 -192.186879 425.1775 -196.08759 432.378813 -196.08759 Z M 432.378813 -196.08759 " transform="matrix(0.0390554, 0, 0, 0.0390554, 0, 8.177807)"/>
<path fill="none" stroke-width="9" stroke-linecap="round" stroke-linejoin="round" stroke="rgb(0%, 0%, 0%)" stroke-opacity="1" stroke-miterlimit="4" d="M 441.58049 -202.988848 C 271.149424 -202.988848 141.225742 -203.588957 4.50082 -204.889194 C 70.512853 -88.567992 155.828404 53.85797 221.840437 170.179172 C 290.152888 54.058006 444.881092 -202.988848 444.881092 -202.988848 Z M 441.58049 -202.988848 " transform="matrix(0.0390554, 0, 0, 0.0390554, 0, 8.177807)"/>
<path fill-rule="nonzero" fill="rgb(0%, 0%, 0%)" fill-opacity="1" d="M 8.65625 1.105469 C 7.84375 1.105469 7.035156 1.960938 7.035156 2.78125 L 7.035156 7.175781 C 7.035156 7.726562 7.519531 8.601562 8.628906 8.601562 C 9.527344 8.601562 10.222656 7.785156 10.222656 7.175781 L 10.222656 5.085938 C 10.222656 3.605469 8.660156 3.570312 8.113281 3.78125 L 8.113281 2.679688 C 8.113281 2.085938 9.316406 2.105469 9.316406 2.679688 L 10.28125 2.679688 C 10.28125 1.960938 9.46875 1.105469 8.65625 1.105469 Z M 8.597656 4.789062 C 8.875 4.777344 9.167969 4.917969 9.167969 5.207031 L 9.167969 6.90625 C 9.167969 7.65625 8.121094 7.703125 8.121094 6.90625 L 8.121094 5.191406 C 8.121094 4.933594 8.351562 4.800781 8.597656 4.789062 Z M 8.597656 4.789062 "/>
</svg>
