<?xml version="1.0" encoding="UTF-8"?>
<svg xmlns="http://www.w3.org/2000/svg" xmlns:xlink="http://www.w3.org/1999/xlink" width="17.549925" height="15" viewBox="0 0 17.549925 15">
<path fill-rule="nonzero" fill="rgb(85.09804%, 44.313726%, 0%)" fill-opacity="1" stroke-width="15" stroke-linecap="round" stroke-linejoin="round" stroke="rgb(100%, 100%, 100%)" stroke-opacity="1" stroke-miterlimit="4" d="M 432.378813 -196.08759 C 290.05287 -195.887553 150.927511 -196.887736 17.203136 -197.287809 C 83.215168 -80.966606 156.328495 40.355508 222.340528 156.776729 C 290.65298 40.555545 364.166379 -79.766387 432.478831 -195.887553 C 430.378448 -192.186879 425.1775 -196.08759 432.378813 -196.08759 Z M 432.378813 -196.08759 " transform="matrix(0.0390554, 0, 0, 0.0390554, 0, 8.177807)"/>
<path fill="none" stroke-width="9" stroke-linecap="round" stroke-linejoin="round" stroke="rgb(0%, 0%, 0%)" stroke-opacity="1" stroke-miterlimit="4" d="M 441.58049 -202.988848 C 271.149424 -202.988848 141.225742 -203.588957 4.50082 -204.889194 C 70.512853 -88.567992 155.828404 53.85797 221.840437 170.179172 C 290.152888 54.058006 444.881092 -202.988848 444.881092 -202.988848 Z M 441.58049 -202.988848 " transform="matrix(0.0390554, 0, 0, 0.0390554, 0, 8.177807)"/>
<path fill-rule="nonzero" fill="rgb(0%, 0%, 0%)" fill-opacity="1" d="M 8.796875 1.472656 L 6.925781 6.566406 L 6.925781 7.414062 L 9.058594 7.414062 L 9.058594 8.519531 L 9.90625 8.519531 L 9.90625 7.414062 L 10.320312 7.414062 L 10.320312 6.566406 L 9.90625 6.566406 L 9.90625 4.671875 L 9.058594 4.671875 L 9.058594 6.566406 L 7.863281 6.566406 L 9.722656 1.472656 Z M 8.796875 1.472656 "/>
</svg>
