<?xml version="1.0" encoding="UTF-8"?>
<svg xmlns="http://www.w3.org/2000/svg" xmlns:xlink="http://www.w3.org/1999/xlink" width="17.549925" height="15" viewBox="0 0 17.549925 15">
<path fill-rule="nonzero" fill="rgb(85.09804%, 44.313726%, 0%)" fill-opacity="1" stroke-width="15" stroke-linecap="round" stroke-linejoin="round" stroke="rgb(100%, 100%, 100%)" stroke-opacity="1" stroke-miterlimit="4" d="M 432.378813 -196.08759 C 290.05287 -195.887553 150.927511 -196.887736 17.203136 -197.287809 C 83.215168 -80.966606 156.328495 40.355508 222.340528 156.776729 C 290.65298 40.555545 364.166379 -79.766387 432.478831 -195.887553 C 430.378448 -192.186879 425.1775 -196.08759 432.378813 -196.08759 Z M 432.378813 -196.08759 " transform="matrix(0.0390554, 0, 0, 0.0390554, 0, 8.177807)"/>
<path fill="none" stroke-width="9" stroke-linecap="round" stroke-linejoin="round" stroke="rgb(0%, 0%, 0%)" stroke-opacity="1" stroke-miterlimit="4" d="M 441.58049 -202.988848 C 271.149424 -202.988848 141.225742 -203.588957 4.50082 -204.889194 C 70.512853 -88.567992 155.828404 53.85797 221.840437 170.179172 C 290.152888 54.058006 444.881092 -202.988848 444.881092 -202.988848 Z M 441.58049 -202.988848 " transform="matrix(0.0390554, 0, 0, 0.0390554, 0, 8.177807)"/>
<path fill-rule="nonzero" fill="rgb(0%, 0%, 0%)" fill-opacity="1" d="M 7.96875 1.882812 C 7.222656 1.886719 6.476562 2.394531 6.472656 3.394531 L 6.464844 3.394531 L 6.464844 7.535156 L 6.472656 7.535156 C 6.492188 9.554688 9.457031 9.53125 9.460938 7.535156 L 9.46875 7.535156 L 9.46875 3.394531 L 9.460938 3.394531 C 9.457031 2.378906 8.710938 1.878906 7.96875 1.882812 Z M 7.964844 2.78125 C 8.28125 2.777344 8.597656 2.980469 8.597656 3.394531 L 8.59375 3.394531 L 8.59375 7.535156 L 8.597656 7.535156 C 8.597656 8.347656 7.335938 8.347656 7.335938 7.515625 L 7.335938 3.394531 C 7.335938 2.992188 7.648438 2.785156 7.964844 2.78125 Z M 7.964844 2.78125 "/>
<path fill-rule="nonzero" fill="rgb(0%, 0%, 0%)" fill-opacity="1" d="M 12.117188 4.535156 L 12.117188 5.769531 C 12.121094 6.269531 11.703125 6.710938 11.175781 6.710938 C 10.625 6.710938 10.234375 6.261719 10.234375 5.769531 L 10.234375 5.484375 L 10.824219 5.484375 L 10.824219 5.769531 C 10.824219 5.96875 10.984375 6.121094 11.171875 6.117188 C 11.371094 6.117188 11.527344 5.960938 11.527344 5.769531 L 11.527344 4.554688 C 11.527344 4.351562 11.355469 4.207031 11.175781 4.207031 C 11.03125 4.207031 10.878906 4.289062 10.824219 4.457031 L 10.234375 4.457031 L 10.234375 1.910156 L 12.117188 1.910156 L 12.117188 2.5 L 10.824219 2.5 L 10.824219 3.828125 C 10.984375 3.683594 11.152344 3.640625 11.371094 3.640625 C 11.863281 3.640625 12.117188 4.082031 12.117188 4.535156 Z M 12.117188 4.535156 "/>
</svg>
