<?xml version="1.0" encoding="UTF-8"?>
<svg xmlns="http://www.w3.org/2000/svg" xmlns:xlink="http://www.w3.org/1999/xlink" width="17.549925" height="15" viewBox="0 0 17.549925 15">
<path fill-rule="nonzero" fill="rgb(85.09804%, 44.313726%, 0%)" fill-opacity="1" stroke-width="15" stroke-linecap="round" stroke-linejoin="round" stroke="rgb(100%, 100%, 100%)" stroke-opacity="1" stroke-miterlimit="4" d="M 432.378813 -196.08759 C 290.05287 -195.887553 150.927511 -196.887736 17.203136 -197.287809 C 83.215168 -80.966606 156.328495 40.355508 222.340528 156.776729 C 290.65298 40.555545 364.166379 -79.766387 432.478831 -195.887553 C 430.378448 -192.186879 425.1775 -196.08759 432.378813 -196.08759 Z M 432.378813 -196.08759 " transform="matrix(0.0390554, 0, 0, 0.0390554, 0, 8.177807)"/>
<path fill="none" stroke-width="9" stroke-linecap="round" stroke-linejoin="round" stroke="rgb(0%, 0%, 0%)" stroke-opacity="1" stroke-miterlimit="4" d="M 441.58049 -202.988848 C 271.149424 -202.988848 141.225742 -203.588957 4.50082 -204.889194 C 70.512853 -88.567992 155.828404 53.85797 221.840437 170.179172 C 290.152888 54.058006 444.881092 -202.988848 444.881092 -202.988848 Z M 441.58049 -202.988848 " transform="matrix(0.0390554, 0, 0, 0.0390554, 0, 8.177807)"/>
<path fill-rule="nonzero" fill="rgb(0%, 0%, 0%)" fill-opacity="1" d="M 8.660156 8.601562 C 9.46875 8.601562 10.28125 7.742188 10.28125 6.925781 L 10.28125 2.53125 C 10.28125 1.976562 9.796875 1.105469 8.6875 1.105469 C 7.789062 1.105469 7.09375 1.917969 7.09375 2.53125 L 7.09375 4.621094 C 7.09375 6.101562 8.65625 6.136719 9.203125 5.921875 L 9.203125 7.027344 C 9.203125 7.621094 8 7.601562 8 7.027344 L 7.035156 7.027344 C 7.035156 7.742188 7.847656 8.601562 8.660156 8.601562 Z M 8.71875 4.917969 C 8.441406 4.929688 8.148438 4.785156 8.148438 4.5 L 8.148438 2.796875 C 8.148438 2.050781 9.191406 2 9.191406 2.796875 L 9.191406 4.511719 C 9.191406 4.773438 8.960938 4.90625 8.71875 4.917969 Z M 8.71875 4.917969 "/>
</svg>
