<?xml version="1.0" encoding="UTF-8"?>
<svg xmlns="http://www.w3.org/2000/svg" xmlns:xlink="http://www.w3.org/1999/xlink" width="22.229905" height="19" viewBox="0 0 22.229905 19">
<path fill-rule="nonzero" fill="rgb(100%, 100%, 100%)" fill-opacity="1" stroke-width="9" stroke-linecap="round" stroke-linejoin="round" stroke="rgb(0%, 0%, 0%)" stroke-opacity="1" stroke-miterlimit="4" d="M 4.500818 -205.283907 L 224.567135 170.179078 L 444.475529 -205.283907 Z M 4.500818 -205.283907 " transform="matrix(0.0494702, 0, 0, 0.0494702, 0, 10.358555)"/>
<path fill-rule="nonzero" fill="rgb(85.09804%, 44.313726%, 0%)" fill-opacity="1" d="M 1.839844 1.144531 L 11.109375 16.957031 L 20.371094 1.144531 Z M 1.839844 1.144531 "/>
<path fill-rule="nonzero" fill="rgb(0%, 0%, 0%)" fill-opacity="1" d="M 8.222656 2.359375 L 6.964844 3.597656 L 6.964844 5.085938 L 8.144531 3.894531 L 8.144531 11.265625 L 9.246094 11.265625 L 9.246094 2.359375 Z M 8.222656 2.359375 "/>
<path fill-rule="nonzero" fill="rgb(0%, 0%, 0%)" fill-opacity="1" d="M 14.453125 7.269531 L 14.453125 9.574219 C 14.460938 10.515625 13.675781 11.335938 12.691406 11.335938 C 11.664062 11.335938 10.929688 10.5 10.929688 9.574219 L 10.929688 9.050781 L 12.035156 9.050781 L 12.035156 9.574219 C 12.035156 9.949219 12.335938 10.230469 12.679688 10.230469 C 13.058594 10.230469 13.347656 9.933594 13.347656 9.574219 L 13.347656 7.308594 C 13.347656 6.925781 13.027344 6.65625 12.6875 6.65625 C 12.417969 6.65625 12.136719 6.808594 12.035156 7.121094 L 10.929688 7.121094 L 10.929688 2.359375 L 14.453125 2.359375 L 14.453125 3.464844 L 12.035156 3.464844 L 12.035156 5.941406 C 12.335938 5.675781 12.648438 5.589844 13.058594 5.589844 C 13.984375 5.589844 14.453125 6.421875 14.453125 7.269531 Z M 14.453125 7.269531 "/>
</svg>
