<?xml version="1.0" encoding="UTF-8"?>
<svg xmlns="http://www.w3.org/2000/svg" xmlns:xlink="http://www.w3.org/1999/xlink" width="22.229905" height="19" viewBox="0 0 22.229905 19">
<path fill-rule="nonzero" fill="rgb(100%, 100%, 100%)" fill-opacity="1" stroke-width="9" stroke-linecap="round" stroke-linejoin="round" stroke="rgb(0%, 0%, 0%)" stroke-opacity="1" stroke-miterlimit="4" d="M 4.500818 -205.283907 L 224.567135 170.179078 L 444.475529 -205.283907 Z M 4.500818 -205.283907 " transform="matrix(0.0494702, 0, 0, 0.0494702, 0, 10.358555)"/>
<path fill-rule="nonzero" fill="rgb(85.09804%, 44.313726%, 0%)" fill-opacity="1" d="M 1.839844 1.144531 L 11.109375 16.957031 L 20.371094 1.144531 Z M 1.839844 1.144531 "/>
<path fill-rule="nonzero" fill="rgb(0%, 0%, 0%)" fill-opacity="1" d="M 8.222656 2.359375 L 6.964844 3.597656 L 6.964844 5.085938 L 8.144531 3.894531 L 8.144531 11.265625 L 9.246094 11.265625 L 9.246094 2.359375 Z M 8.222656 2.359375 "/>
<path fill-rule="nonzero" fill="rgb(0%, 0%, 0%)" fill-opacity="1" d="M 12.621094 2.386719 C 11.507812 2.386719 10.699219 3.140625 10.699219 4.34375 L 10.699219 5.011719 L 11.804688 5.011719 L 11.804688 4.269531 C 11.804688 3.800781 12.214844 3.527344 12.582031 3.523438 C 13.042969 3.519531 13.398438 3.808594 13.398438 4.28125 L 13.398438 5.480469 C 13.398438 5.980469 12.933594 6.214844 12.210938 6.214844 L 12.210938 7.269531 C 12.933594 7.269531 13.398438 7.507812 13.398438 8.003906 L 13.398438 9.523438 C 13.398438 10 13.042969 10.285156 12.582031 10.28125 C 12.214844 10.277344 11.804688 10.003906 11.804688 9.539062 L 11.804688 8.792969 L 10.699219 8.792969 L 10.699219 9.460938 C 10.699219 10.664062 11.507812 11.417969 12.621094 11.417969 C 13.652344 11.417969 14.503906 10.699219 14.503906 9.5 L 14.503906 7.957031 C 14.503906 7.511719 14.308594 7.0625 13.785156 6.742188 C 14.308594 6.425781 14.503906 5.972656 14.503906 5.527344 L 14.503906 4.304688 C 14.503906 3.105469 13.652344 2.386719 12.621094 2.386719 Z M 12.621094 2.386719 "/>
</svg>
