<?xml version="1.0" encoding="UTF-8"?>
<svg xmlns="http://www.w3.org/2000/svg" xmlns:xlink="http://www.w3.org/1999/xlink" width="22.229905" height="19" viewBox="0 0 22.229905 19">
<path fill-rule="nonzero" fill="rgb(100%, 100%, 100%)" fill-opacity="1" stroke-width="9" stroke-linecap="round" stroke-linejoin="round" stroke="rgb(0%, 0%, 0%)" stroke-opacity="1" stroke-miterlimit="4" d="M 4.500818 -205.283907 L 224.567135 170.179078 L 444.475529 -205.283907 Z M 4.500818 -205.283907 " transform="matrix(0.0494702, 0, 0, 0.0494702, 0, 10.358555)"/>
<path fill-rule="nonzero" fill="rgb(85.09804%, 44.313726%, 0%)" fill-opacity="1" d="M 1.839844 1.144531 L 11.109375 16.957031 L 20.371094 1.144531 Z M 1.839844 1.144531 "/>
<path fill-rule="nonzero" fill="rgb(0%, 0%, 0%)" fill-opacity="1" d="M 13.570312 2.285156 C 12.679688 2.285156 11.789062 2.898438 11.789062 4.09375 L 11.789062 9.019531 C 11.789062 11.425781 15.34375 11.410156 15.347656 9.019531 L 15.347656 4.09375 C 15.34375 2.878906 14.457031 2.285156 13.570312 2.285156 Z M 13.566406 3.359375 C 13.929688 3.359375 14.320312 3.597656 14.320312 4.09375 L 14.320312 9.019531 C 14.324219 9.984375 12.820312 9.988281 12.820312 8.996094 L 12.816406 4.09375 C 12.816406 3.652344 13.191406 3.359375 13.566406 3.359375 Z M 13.566406 3.359375 "/>
<path fill-rule="nonzero" fill="rgb(0%, 0%, 0%)" fill-opacity="1" d="M 10.972656 10.726562 L 7.460938 10.726562 L 7.460938 9.671875 L 9.742188 5.304688 C 9.847656 5.105469 9.976562 4.898438 9.976562 4.691406 L 9.976562 4.09375 C 9.976562 3.640625 9.636719 3.363281 9.203125 3.371094 C 8.855469 3.375 8.476562 3.632812 8.476562 4.078125 L 8.476562 4.753906 L 7.4375 4.753906 L 7.4375 4.152344 C 7.4375 3.007812 8.195312 2.285156 9.238281 2.285156 C 10.207031 2.285156 11.007812 2.972656 11.007812 4.113281 L 11.007812 4.828125 C 11.007812 5.183594 10.792969 5.546875 10.628906 5.859375 L 8.632812 9.683594 L 10.972656 9.683594 L 10.972656 10.726562 "/>
</svg>
