<?xml version="1.0" encoding="UTF-8"?>
<svg xmlns="http://www.w3.org/2000/svg" xmlns:xlink="http://www.w3.org/1999/xlink" width="17.549925" height="15" viewBox="0 0 17.549925 15">
<path fill-rule="nonzero" fill="rgb(100%, 100%, 100%)" fill-opacity="1" stroke-width="9" stroke-linecap="round" stroke-linejoin="round" stroke="rgb(0%, 0%, 0%)" stroke-opacity="1" stroke-miterlimit="4" d="M 4.50082 -205.289267 L 224.540929 170.179172 L 444.481019 -205.289267 Z M 4.50082 -205.289267 " transform="matrix(0.0390554, 0, 0, 0.0390554, 0, 8.177807)"/>
<path fill-rule="nonzero" fill="rgb(85.09804%, 44.313726%, 0%)" fill-opacity="1" d="M 1.453125 0.902344 L 8.769531 13.386719 L 16.082031 0.902344 Z M 1.453125 0.902344 "/>
<path fill-rule="nonzero" fill="rgb(0%, 0%, 0%)" fill-opacity="1" d="M 6.492188 1.863281 L 5.5 2.839844 L 5.5 4.015625 L 6.429688 3.074219 L 6.429688 8.894531 L 7.300781 8.894531 L 7.300781 1.863281 Z M 6.492188 1.863281 "/>
<path fill-rule="nonzero" fill="rgb(0%, 0%, 0%)" fill-opacity="1" d="M 11.410156 5.738281 L 11.410156 7.558594 C 11.417969 8.300781 10.796875 8.949219 10.019531 8.949219 C 9.207031 8.949219 8.628906 8.289062 8.628906 7.558594 L 8.628906 7.144531 L 9.5 7.144531 L 9.5 7.558594 C 9.5 7.855469 9.738281 8.078125 10.011719 8.078125 C 10.308594 8.078125 10.539062 7.84375 10.539062 7.558594 L 10.539062 5.769531 C 10.539062 5.46875 10.285156 5.253906 10.015625 5.253906 C 9.804688 5.253906 9.582031 5.375 9.5 5.621094 L 8.628906 5.621094 L 8.628906 1.863281 L 11.410156 1.863281 L 11.410156 2.734375 L 9.5 2.734375 L 9.5 4.691406 C 9.738281 4.480469 9.984375 4.414062 10.308594 4.414062 C 11.039062 4.414062 11.410156 5.070312 11.410156 5.738281 Z M 11.410156 5.738281 "/>
</svg>
