<?xml version="1.0" encoding="UTF-8"?>
<svg xmlns="http://www.w3.org/2000/svg" xmlns:xlink="http://www.w3.org/1999/xlink" width="22.229905" height="19" viewBox="0 0 22.229905 19">
<path fill-rule="nonzero" fill="rgb(100%, 100%, 100%)" fill-opacity="1" stroke-width="9" stroke-linecap="round" stroke-linejoin="round" stroke="rgb(0%, 0%, 0%)" stroke-opacity="1" stroke-miterlimit="4" d="M 4.500818 -205.283907 L 224.567135 170.179078 L 444.475529 -205.283907 Z M 4.500818 -205.283907 " transform="matrix(0.0494702, 0, 0, 0.0494702, 0, 10.358555)"/>
<path fill-rule="nonzero" fill="rgb(85.09804%, 44.313726%, 0%)" fill-opacity="1" d="M 1.839844 1.144531 L 11.109375 16.957031 L 20.371094 1.144531 Z M 1.839844 1.144531 "/>
<path fill-rule="nonzero" fill="rgb(0%, 0%, 0%)" fill-opacity="1" d="M 8.222656 2.359375 L 6.964844 3.597656 L 6.964844 5.085938 L 8.144531 3.894531 L 8.144531 11.265625 L 9.246094 11.265625 L 9.246094 2.359375 Z M 8.222656 2.359375 "/>
<path fill-rule="nonzero" fill="rgb(0%, 0%, 0%)" fill-opacity="1" d="M 14.46875 11.257812 L 10.726562 11.257812 L 10.726562 10.136719 L 13.15625 5.492188 C 13.265625 5.28125 13.398438 5.0625 13.398438 4.839844 L 13.398438 4.195312 C 13.398438 3.722656 13.042969 3.425781 12.582031 3.433594 C 12.214844 3.4375 11.804688 3.710938 11.804688 4.1875 L 11.804688 4.902344 L 10.703125 4.902344 L 10.703125 4.265625 C 10.703125 3.042969 11.507812 2.28125 12.621094 2.28125 C 13.652344 2.28125 14.503906 3.011719 14.503906 4.21875 L 14.503906 4.984375 C 14.503906 5.363281 14.273438 5.746094 14.101562 6.074219 L 11.972656 10.148438 L 14.46875 10.148438 L 14.46875 11.257812 "/>
</svg>
