<?xml version="1.0" encoding="UTF-8"?>
<svg xmlns="http://www.w3.org/2000/svg" xmlns:xlink="http://www.w3.org/1999/xlink" width="22.229905" height="19" viewBox="0 0 22.229905 19">
<path fill-rule="nonzero" fill="rgb(100%, 100%, 100%)" fill-opacity="1" stroke-width="9" stroke-linecap="round" stroke-linejoin="round" stroke="rgb(0%, 0%, 0%)" stroke-opacity="1" stroke-miterlimit="4" d="M 4.500818 -205.283907 L 224.567135 170.179078 L 444.475529 -205.283907 Z M 4.500818 -205.283907 " transform="matrix(0.0494702, 0, 0, 0.0494702, 0, 10.358555)"/>
<path fill-rule="nonzero" fill="rgb(85.09804%, 44.313726%, 0%)" fill-opacity="1" d="M 1.839844 1.144531 L 11.109375 16.957031 L 20.371094 1.144531 Z M 1.839844 1.144531 "/>
<path fill-rule="nonzero" fill="rgb(0%, 0%, 0%)" fill-opacity="1" d="M 8.71875 2.359375 L 7.460938 3.597656 L 7.460938 5.085938 L 8.640625 3.894531 L 8.640625 11.265625 L 9.742188 11.265625 L 9.742188 2.359375 Z M 8.71875 2.359375 "/>
<path fill-rule="nonzero" fill="rgb(0%, 0%, 0%)" fill-opacity="1" d="M 13.019531 11.265625 L 15.488281 3.558594 L 15.488281 2.359375 L 11.492188 2.359375 L 11.492188 4.359375 L 12.597656 4.359375 L 12.597656 3.464844 L 14.359375 3.464844 L 11.859375 11.265625 Z M 13.019531 11.265625 "/>
</svg>
