<?xml version="1.0" encoding="UTF-8"?>
<svg xmlns="http://www.w3.org/2000/svg" xmlns:xlink="http://www.w3.org/1999/xlink" width="22.229905" height="19" viewBox="0 0 22.229905 19">
<path fill-rule="nonzero" fill="rgb(85.09804%, 44.313726%, 0%)" fill-opacity="1" stroke-width="15" stroke-linecap="round" stroke-linejoin="round" stroke="rgb(100%, 100%, 100%)" stroke-opacity="1" stroke-miterlimit="4" d="M 432.394386 -196.124347 C 290.026402 -195.887462 150.895849 -196.913964 17.213655 -197.308773 C 83.225654 -80.998157 156.344208 40.366008 222.356207 156.755585 C 290.658096 40.523932 364.171459 -79.73477 432.473348 -195.887462 C 430.341381 -192.176261 425.208869 -196.124347 432.394386 -196.124347 Z M 432.394386 -196.124347 " transform="matrix(0.0494702, 0, 0, 0.0494702, 0, 10.358555)"/>
<path fill="none" stroke-width="9" stroke-linecap="round" stroke-linejoin="round" stroke="rgb(0%, 0%, 0%)" stroke-opacity="1" stroke-miterlimit="4" d="M 441.553946 -202.994017 C 271.154551 -202.994017 141.262519 -203.625711 4.500818 -204.889098 C 70.512817 -88.578483 155.791476 53.868463 221.803475 170.179078 C 290.184326 54.026386 444.870338 -202.994017 444.870338 -202.994017 Z M 441.553946 -202.994017 " transform="matrix(0.0494702, 0, 0, 0.0494702, 0, 10.358555)"/>
<path fill-rule="nonzero" fill="rgb(0%, 0%, 0%)" fill-opacity="1" d="M 10.96875 10.894531 C 11.992188 10.894531 13.023438 9.808594 13.023438 8.773438 L 13.023438 3.207031 C 13.023438 2.503906 12.410156 1.398438 11.003906 1.398438 C 9.867188 1.398438 8.984375 2.429688 8.984375 3.207031 L 8.984375 5.851562 C 8.984375 7.730469 10.964844 7.773438 11.65625 7.5 L 11.65625 8.902344 C 11.65625 9.652344 10.132812 9.628906 10.132812 8.902344 L 8.910156 8.902344 C 8.910156 9.808594 9.941406 10.894531 10.96875 10.894531 Z M 11.042969 6.230469 C 10.691406 6.246094 10.320312 6.0625 10.320312 5.699219 L 10.320312 3.542969 C 10.320312 2.597656 11.640625 2.535156 11.640625 3.542969 L 11.640625 5.714844 C 11.640625 6.046875 11.351562 6.214844 11.042969 6.230469 Z M 11.042969 6.230469 "/>
</svg>
