<?xml version="1.0" encoding="UTF-8"?>
<svg xmlns="http://www.w3.org/2000/svg" xmlns:xlink="http://www.w3.org/1999/xlink" width="17.549925" height="15" viewBox="0 0 17.549925 15">
<path fill-rule="nonzero" fill="rgb(85.09804%, 44.313726%, 0%)" fill-opacity="1" stroke-width="15" stroke-linecap="round" stroke-linejoin="round" stroke="rgb(100%, 100%, 100%)" stroke-opacity="1" stroke-miterlimit="4" d="M 432.378813 -196.08759 C 290.05287 -195.887553 150.927511 -196.887736 17.203136 -197.287809 C 83.215168 -80.966606 156.328495 40.355508 222.340528 156.776729 C 290.65298 40.555545 364.166379 -79.766387 432.478831 -195.887553 C 430.378448 -192.186879 425.1775 -196.08759 432.378813 -196.08759 Z M 432.378813 -196.08759 " transform="matrix(0.0390554, 0, 0, 0.0390554, 0, 8.177807)"/>
<path fill="none" stroke-width="9" stroke-linecap="round" stroke-linejoin="round" stroke="rgb(0%, 0%, 0%)" stroke-opacity="1" stroke-miterlimit="4" d="M 441.58049 -202.988848 C 271.149424 -202.988848 141.225742 -203.588957 4.50082 -204.889194 C 70.512853 -88.567992 155.828404 53.85797 221.840437 170.179172 C 290.152888 54.058006 444.881092 -202.988848 444.881092 -202.988848 Z M 441.58049 -202.988848 " transform="matrix(0.0390554, 0, 0, 0.0390554, 0, 8.177807)"/>
<path fill-rule="nonzero" fill="rgb(0%, 0%, 0%)" fill-opacity="1" d="M 11.648438 4.316406 L 11.648438 5.445312 C 11.652344 5.902344 11.269531 6.308594 10.785156 6.308594 C 10.28125 6.308594 9.921875 5.898438 9.921875 5.445312 L 9.921875 5.1875 L 10.464844 5.1875 L 10.464844 5.445312 C 10.464844 5.628906 10.613281 5.765625 10.78125 5.765625 C 10.964844 5.765625 11.105469 5.621094 11.105469 5.445312 L 11.105469 4.332031 C 11.105469 4.144531 10.949219 4.011719 10.785156 4.011719 C 10.652344 4.011719 10.511719 4.089844 10.464844 4.242188 L 9.925781 4.242188 L 9.925781 1.910156 L 11.648438 1.910156 L 11.648438 2.449219 L 10.464844 2.449219 L 10.464844 3.667969 C 10.609375 3.535156 10.765625 3.496094 10.964844 3.496094 C 11.417969 3.496094 11.648438 3.902344 11.648438 4.316406 Z M 11.648438 4.316406 "/>
<path fill-rule="nonzero" fill="rgb(0%, 0%, 0%)" fill-opacity="1" d="M 7.667969 1.859375 L 6.675781 2.835938 L 6.675781 4.011719 L 7.605469 3.070312 L 7.605469 8.890625 L 8.472656 8.890625 L 8.472656 1.859375 Z M 7.667969 1.859375 "/>
</svg>
