<?xml version="1.0" encoding="UTF-8"?>
<svg xmlns="http://www.w3.org/2000/svg" xmlns:xlink="http://www.w3.org/1999/xlink" width="17.549925" height="15" viewBox="0 0 17.549925 15">
<path fill-rule="nonzero" fill="rgb(85.09804%, 44.313726%, 0%)" fill-opacity="1" stroke-width="15" stroke-linecap="round" stroke-linejoin="round" stroke="rgb(100%, 100%, 100%)" stroke-opacity="1" stroke-miterlimit="4" d="M 432.378813 -196.08759 C 290.05287 -195.887553 150.927511 -196.887736 17.203136 -197.287809 C 83.215168 -80.966606 156.328495 40.355508 222.340528 156.776729 C 290.65298 40.555545 364.166379 -79.766387 432.478831 -195.887553 C 430.378448 -192.186879 425.1775 -196.08759 432.378813 -196.08759 Z M 432.378813 -196.08759 " transform="matrix(0.0390554, 0, 0, 0.0390554, 0, 8.177807)"/>
<path fill="none" stroke-width="9" stroke-linecap="round" stroke-linejoin="round" stroke="rgb(0%, 0%, 0%)" stroke-opacity="1" stroke-miterlimit="4" d="M 441.58049 -202.988848 C 271.149424 -202.988848 141.225742 -203.588957 4.50082 -204.889194 C 70.512853 -88.567992 155.828404 53.85797 221.840437 170.179172 C 290.152888 54.058006 444.881092 -202.988848 444.881092 -202.988848 Z M 441.58049 -202.988848 " transform="matrix(0.0390554, 0, 0, 0.0390554, 0, 8.177807)"/>
<path fill-rule="nonzero" fill="rgb(0%, 0%, 0%)" fill-opacity="1" d="M 10.074219 1.882812 C 9.332031 1.886719 8.582031 2.394531 8.582031 3.394531 L 8.574219 3.394531 L 8.574219 7.535156 L 8.582031 7.535156 C 8.601562 9.554688 11.566406 9.53125 11.570312 7.535156 L 11.574219 7.535156 L 11.574219 3.394531 L 11.570312 3.394531 C 11.566406 2.378906 10.820312 1.878906 10.074219 1.882812 Z M 10.074219 2.78125 C 10.390625 2.777344 10.703125 2.980469 10.707031 3.394531 L 10.703125 3.394531 L 10.703125 7.535156 L 10.707031 7.535156 C 10.707031 8.347656 9.445312 8.347656 9.445312 7.515625 L 9.445312 3.394531 C 9.445312 2.992188 9.757812 2.785156 10.074219 2.78125 Z M 10.074219 2.78125 "/>
<path fill-rule="nonzero" fill="rgb(0%, 0%, 0%)" fill-opacity="1" d="M 6.566406 1.863281 L 5.625 2.792969 L 5.625 4.25 L 6.554688 3.308594 L 6.554688 8.894531 L 7.558594 8.894531 L 7.558594 1.863281 Z M 6.566406 1.863281 "/>
</svg>
