<?xml version="1.0" encoding="UTF-8"?>
<svg xmlns="http://www.w3.org/2000/svg" xmlns:xlink="http://www.w3.org/1999/xlink" width="17.549925" height="15" viewBox="0 0 17.549925 15">
<path fill-rule="nonzero" fill="rgb(100%, 100%, 100%)" fill-opacity="1" stroke-width="9" stroke-linecap="round" stroke-linejoin="round" stroke="rgb(0%, 0%, 0%)" stroke-opacity="1" stroke-miterlimit="4" d="M 4.50082 -205.289267 L 224.540929 170.179172 L 444.481019 -205.289267 Z M 4.50082 -205.289267 " transform="matrix(0.0390554, 0, 0, 0.0390554, 0, 8.177807)"/>
<path fill-rule="nonzero" fill="rgb(85.09804%, 44.313726%, 0%)" fill-opacity="1" d="M 1.453125 0.902344 L 8.769531 13.386719 L 16.082031 0.902344 Z M 1.453125 0.902344 "/>
<path fill-rule="nonzero" fill="rgb(0%, 0%, 0%)" fill-opacity="1" d="M 6.492188 1.863281 L 5.5 2.839844 L 5.5 4.015625 L 6.429688 3.074219 L 6.429688 8.894531 L 7.300781 8.894531 L 7.300781 1.863281 Z M 6.492188 1.863281 "/>
<path fill-rule="nonzero" fill="rgb(0%, 0%, 0%)" fill-opacity="1" d="M 10.136719 8.894531 L 10.136719 7.78125 L 8.140625 7.78125 L 8.140625 6.878906 L 9.53125 1.863281 L 10.449219 1.863281 L 9.003906 6.90625 L 10.136719 6.90625 L 10.136719 4.875 L 11.003906 4.875 L 11.003906 6.90625 L 11.492188 6.90625 L 11.492188 7.78125 L 11.003906 7.78125 L 11.003906 8.894531 Z M 10.136719 8.894531 "/>
</svg>
