<?xml version="1.0" encoding="UTF-8"?>
<svg xmlns="http://www.w3.org/2000/svg" xmlns:xlink="http://www.w3.org/1999/xlink" width="17.549925" height="15" viewBox="0 0 17.549925 15">
<path fill-rule="nonzero" fill="rgb(100%, 100%, 100%)" fill-opacity="1" stroke-width="9" stroke-linecap="round" stroke-linejoin="round" stroke="rgb(0%, 0%, 0%)" stroke-opacity="1" stroke-miterlimit="4" d="M 4.50082 -205.289267 L 224.540929 170.179172 L 444.481019 -205.289267 Z M 4.50082 -205.289267 " transform="matrix(0.0390554, 0, 0, 0.0390554, 0, 8.177807)"/>
<path fill-rule="nonzero" fill="rgb(85.09804%, 44.313726%, 0%)" fill-opacity="1" d="M 1.453125 0.902344 L 8.769531 13.386719 L 16.082031 0.902344 Z M 1.453125 0.902344 "/>
<path fill-rule="nonzero" fill="rgb(0%, 0%, 0%)" fill-opacity="1" d="M 6.492188 1.863281 L 5.5 2.839844 L 5.5 4.015625 L 6.429688 3.074219 L 6.429688 8.894531 L 7.300781 8.894531 L 7.300781 1.863281 Z M 6.492188 1.863281 "/>
<path fill-rule="nonzero" fill="rgb(0%, 0%, 0%)" fill-opacity="1" d="M 11.421875 8.886719 L 8.46875 8.886719 L 8.46875 8.003906 L 10.386719 4.335938 C 10.472656 4.167969 10.578125 3.996094 10.578125 3.820312 L 10.578125 3.3125 C 10.578125 2.9375 10.296875 2.703125 9.933594 2.710938 C 9.644531 2.714844 9.320312 2.929688 9.320312 3.304688 L 9.320312 3.871094 L 8.449219 3.871094 L 8.449219 3.367188 C 8.449219 2.402344 9.085938 1.800781 9.964844 1.800781 C 10.777344 1.800781 11.449219 2.378906 11.449219 3.332031 L 11.449219 3.933594 C 11.449219 4.234375 11.269531 4.535156 11.132812 4.796875 L 9.453125 8.011719 L 11.421875 8.011719 L 11.421875 8.886719 "/>
</svg>
