<?xml version="1.0" encoding="UTF-8"?>
<svg xmlns="http://www.w3.org/2000/svg" xmlns:xlink="http://www.w3.org/1999/xlink" width="22.229905" height="19" viewBox="0 0 22.229905 19">
<path fill-rule="nonzero" fill="rgb(85.09804%, 44.313726%, 0%)" fill-opacity="1" stroke-width="15" stroke-linecap="round" stroke-linejoin="round" stroke="rgb(100%, 100%, 100%)" stroke-opacity="1" stroke-miterlimit="4" d="M 432.394386 -196.124347 C 290.026402 -195.887462 150.895849 -196.913964 17.213655 -197.308773 C 83.225654 -80.998157 156.344208 40.366008 222.356207 156.755585 C 290.658096 40.523932 364.171459 -79.73477 432.473348 -195.887462 C 430.341381 -192.176261 425.208869 -196.124347 432.394386 -196.124347 Z M 432.394386 -196.124347 " transform="matrix(0.0494702, 0, 0, 0.0494702, 0, 10.358555)"/>
<path fill="none" stroke-width="9" stroke-linecap="round" stroke-linejoin="round" stroke="rgb(0%, 0%, 0%)" stroke-opacity="1" stroke-miterlimit="4" d="M 441.553946 -202.994017 C 271.154551 -202.994017 141.262519 -203.625711 4.500818 -204.889098 C 70.512817 -88.578483 155.791476 53.868463 221.803475 170.179078 C 290.184326 54.026386 444.870338 -202.994017 444.870338 -202.994017 Z M 441.553946 -202.994017 " transform="matrix(0.0494702, 0, 0, 0.0494702, 0, 10.358555)"/>
<path fill-rule="nonzero" fill="rgb(0%, 0%, 0%)" fill-opacity="1" d="M 14.753906 5.46875 L 14.753906 6.898438 C 14.757812 7.476562 14.273438 7.992188 13.660156 7.992188 C 13.023438 7.992188 12.566406 7.472656 12.566406 6.898438 L 12.566406 6.570312 L 13.253906 6.570312 L 13.253906 6.898438 C 13.253906 7.128906 13.445312 7.304688 13.65625 7.304688 C 13.890625 7.304688 14.066406 7.121094 14.066406 6.898438 L 14.066406 5.488281 C 14.066406 5.25 13.867188 5.082031 13.660156 5.082031 C 13.492188 5.082031 13.316406 5.179688 13.253906 5.375 L 12.574219 5.375 L 12.574219 2.417969 L 14.753906 2.417969 L 14.753906 3.101562 L 13.253906 3.101562 L 13.253906 4.644531 C 13.4375 4.476562 13.636719 4.429688 13.890625 4.429688 C 14.460938 4.429688 14.753906 4.941406 14.753906 5.46875 Z M 14.753906 5.46875 "/>
<path fill-rule="nonzero" fill="rgb(0%, 0%, 0%)" fill-opacity="1" d="M 9.710938 2.355469 L 8.457031 3.59375 L 8.457031 5.082031 L 9.632812 3.890625 L 9.632812 11.261719 L 10.730469 11.261719 L 10.730469 2.355469 Z M 9.710938 2.355469 "/>
</svg>
