<?xml version="1.0" encoding="UTF-8"?>
<svg xmlns="http://www.w3.org/2000/svg" xmlns:xlink="http://www.w3.org/1999/xlink" width="22.229905" height="19" viewBox="0 0 22.229905 19">
<path fill-rule="nonzero" fill="rgb(85.09804%, 44.313726%, 0%)" fill-opacity="1" stroke-width="15" stroke-linecap="round" stroke-linejoin="round" stroke="rgb(100%, 100%, 100%)" stroke-opacity="1" stroke-miterlimit="4" d="M 432.394386 -196.124347 C 290.026402 -195.887462 150.895849 -196.913964 17.213655 -197.308773 C 83.225654 -80.998157 156.344208 40.366008 222.356207 156.755585 C 290.658096 40.523932 364.171459 -79.73477 432.473348 -195.887462 C 430.341381 -192.176261 425.208869 -196.124347 432.394386 -196.124347 Z M 432.394386 -196.124347 " transform="matrix(0.0494702, 0, 0, 0.0494702, 0, 10.358555)"/>
<path fill="none" stroke-width="9" stroke-linecap="round" stroke-linejoin="round" stroke="rgb(0%, 0%, 0%)" stroke-opacity="1" stroke-miterlimit="4" d="M 441.553946 -202.994017 C 271.154551 -202.994017 141.262519 -203.625711 4.500818 -204.889098 C 70.512817 -88.578483 155.791476 53.868463 221.803475 170.179078 C 290.184326 54.026386 444.870338 -202.994017 444.870338 -202.994017 Z M 441.553946 -202.994017 " transform="matrix(0.0494702, 0, 0, 0.0494702, 0, 10.358555)"/>
<path fill-rule="nonzero" fill="rgb(0%, 0%, 0%)" fill-opacity="1" d="M 13.09375 7.027344 L 13.09375 9.332031 C 13.101562 10.265625 12.316406 11.09375 11.332031 11.09375 C 10.300781 11.09375 9.570312 10.257812 9.570312 9.332031 L 9.570312 8.800781 L 10.671875 8.800781 L 10.671875 9.332031 C 10.671875 9.707031 10.972656 9.988281 11.324219 9.988281 C 11.695312 9.988281 11.988281 9.6875 11.988281 9.332031 L 11.988281 7.066406 C 11.988281 6.679688 11.667969 6.40625 11.332031 6.40625 C 11.058594 6.40625 10.777344 6.566406 10.671875 6.878906 L 9.574219 6.878906 L 9.574219 2.117188 L 13.09375 2.117188 L 13.09375 3.222656 L 10.671875 3.222656 L 10.671875 5.699219 C 10.972656 5.433594 11.292969 5.347656 11.695312 5.347656 C 12.621094 5.347656 13.09375 6.179688 13.09375 7.027344 Z M 13.09375 7.027344 "/>
</svg>
