<?xml version="1.0" encoding="UTF-8"?>
<svg xmlns="http://www.w3.org/2000/svg" xmlns:xlink="http://www.w3.org/1999/xlink" width="22.229905" height="19" viewBox="0 0 22.229905 19">
<path fill-rule="nonzero" fill="rgb(85.09804%, 44.313726%, 0%)" fill-opacity="1" stroke-width="15" stroke-linecap="round" stroke-linejoin="round" stroke="rgb(100%, 100%, 100%)" stroke-opacity="1" stroke-miterlimit="4" d="M 432.394386 -196.124347 C 290.026402 -195.887462 150.895849 -196.913964 17.213655 -197.308773 C 83.225654 -80.998157 156.344208 40.366008 222.356207 156.755585 C 290.658096 40.523932 364.171459 -79.73477 432.473348 -195.887462 C 430.341381 -192.176261 425.208869 -196.124347 432.394386 -196.124347 Z M 432.394386 -196.124347 " transform="matrix(0.0494702, 0, 0, 0.0494702, 0, 10.358555)"/>
<path fill="none" stroke-width="9" stroke-linecap="round" stroke-linejoin="round" stroke="rgb(0%, 0%, 0%)" stroke-opacity="1" stroke-miterlimit="4" d="M 441.553946 -202.994017 C 271.154551 -202.994017 141.262519 -203.625711 4.500818 -204.889098 C 70.512817 -88.578483 155.791476 53.868463 221.803475 170.179078 C 290.184326 54.026386 444.870338 -202.994017 444.870338 -202.994017 Z M 441.553946 -202.994017 " transform="matrix(0.0494702, 0, 0, 0.0494702, 0, 10.358555)"/>
<path fill-rule="nonzero" fill="rgb(0%, 0%, 0%)" fill-opacity="1" d="M 12.761719 2.386719 C 11.820312 2.390625 10.871094 3.03125 10.871094 4.300781 L 10.859375 4.300781 L 10.859375 9.542969 L 10.871094 9.542969 C 10.894531 12.101562 14.652344 12.074219 14.65625 9.542969 L 14.660156 9.542969 L 14.660156 4.300781 L 14.65625 4.300781 C 14.652344 3.011719 13.707031 2.378906 12.761719 2.386719 Z M 12.761719 3.523438 C 13.160156 3.519531 13.558594 3.773438 13.5625 4.300781 L 13.558594 4.300781 L 13.558594 9.542969 L 13.5625 9.542969 C 13.5625 10.574219 11.964844 10.574219 11.964844 9.519531 L 11.964844 4.300781 C 11.964844 3.789062 12.359375 3.527344 12.761719 3.523438 Z M 12.761719 3.523438 "/>
<path fill-rule="nonzero" fill="rgb(0%, 0%, 0%)" fill-opacity="1" d="M 8.316406 2.359375 L 7.125 3.539062 L 7.125 5.382812 L 8.300781 4.191406 L 8.300781 11.265625 L 9.574219 11.265625 L 9.574219 2.359375 Z M 8.316406 2.359375 "/>
</svg>
