<?xml version="1.0" encoding="UTF-8"?>
<svg xmlns="http://www.w3.org/2000/svg" xmlns:xlink="http://www.w3.org/1999/xlink" width="22.229905" height="19" viewBox="0 0 22.229905 19">
<path fill-rule="nonzero" fill="rgb(85.09804%, 44.313726%, 0%)" fill-opacity="1" stroke-width="15" stroke-linecap="round" stroke-linejoin="round" stroke="rgb(100%, 100%, 100%)" stroke-opacity="1" stroke-miterlimit="4" d="M 432.394386 -196.124347 C 290.026402 -195.887462 150.895849 -196.913964 17.213655 -197.308773 C 83.225654 -80.998157 156.344208 40.366008 222.356207 156.755585 C 290.658096 40.523932 364.171459 -79.73477 432.473348 -195.887462 C 430.341381 -192.176261 425.208869 -196.124347 432.394386 -196.124347 Z M 432.394386 -196.124347 " transform="matrix(0.0494702, 0, 0, 0.0494702, 0, 10.358555)"/>
<path fill="none" stroke-width="9" stroke-linecap="round" stroke-linejoin="round" stroke="rgb(0%, 0%, 0%)" stroke-opacity="1" stroke-miterlimit="4" d="M 441.553946 -202.994017 C 271.154551 -202.994017 141.262519 -203.625711 4.500818 -204.889098 C 70.512817 -88.578483 155.791476 53.868463 221.803475 170.179078 C 290.184326 54.026386 444.870338 -202.994017 444.870338 -202.994017 Z M 441.553946 -202.994017 " transform="matrix(0.0494702, 0, 0, 0.0494702, 0, 10.358555)"/>
<path fill-rule="nonzero" fill="rgb(0%, 0%, 0%)" fill-opacity="1" d="M 13.207031 11.015625 L 9.464844 11.015625 L 9.464844 9.894531 L 11.894531 5.246094 C 12.003906 5.035156 12.136719 4.8125 12.136719 4.589844 L 12.136719 3.953125 C 12.136719 3.472656 11.78125 3.179688 11.320312 3.1875 C 10.953125 3.191406 10.542969 3.46875 10.542969 3.945312 L 10.542969 4.660156 L 9.441406 4.660156 L 9.441406 4.019531 C 9.441406 2.800781 10.246094 2.039062 11.359375 2.039062 C 12.390625 2.039062 13.242188 2.765625 13.242188 3.976562 L 13.242188 4.738281 C 13.242188 5.121094 13.011719 5.503906 12.839844 5.832031 L 10.710938 9.902344 L 13.207031 9.902344 L 13.207031 11.015625 "/>
</svg>
