<?xml version="1.0" encoding="UTF-8"?>
<svg xmlns="http://www.w3.org/2000/svg" xmlns:xlink="http://www.w3.org/1999/xlink" width="22.229905" height="19" viewBox="0 0 22.229905 19">
<path fill-rule="nonzero" fill="rgb(100%, 100%, 100%)" fill-opacity="1" stroke-width="9" stroke-linecap="round" stroke-linejoin="round" stroke="rgb(0%, 0%, 0%)" stroke-opacity="1" stroke-miterlimit="4" d="M 4.500818 -205.283907 L 224.567135 170.179078 L 444.475529 -205.283907 Z M 4.500818 -205.283907 " transform="matrix(0.0494702, 0, 0, 0.0494702, 0, 10.358555)"/>
<path fill-rule="nonzero" fill="rgb(85.09804%, 44.313726%, 0%)" fill-opacity="1" d="M 1.839844 1.144531 L 11.109375 16.957031 L 20.371094 1.144531 Z M 1.839844 1.144531 "/>
<path fill-rule="nonzero" fill="rgb(0%, 0%, 0%)" fill-opacity="1" d="M 8.222656 2.359375 L 6.964844 3.597656 L 6.964844 5.085938 L 8.144531 3.894531 L 8.144531 11.265625 L 9.246094 11.265625 L 9.246094 2.359375 Z M 8.222656 2.359375 "/>
<path fill-rule="nonzero" fill="rgb(0%, 0%, 0%)" fill-opacity="1" d="M 12.691406 11.335938 C 13.679688 11.335938 14.460938 10.515625 14.453125 9.578125 L 14.453125 4.121094 C 14.453125 3.203125 13.71875 2.359375 12.691406 2.359375 C 11.703125 2.359375 10.921875 3.1875 10.929688 4.121094 L 10.929688 6.425781 C 10.929688 7.273438 11.398438 8.105469 12.324219 8.105469 C 12.730469 8.105469 13.046875 8.019531 13.34375 7.753906 L 13.34375 9.609375 C 13.328125 9.957031 13.046875 10.230469 12.6875 10.230469 C 12.335938 10.230469 12.035156 9.957031 12.035156 9.578125 L 12.035156 9.050781 L 10.929688 9.050781 L 10.929688 9.578125 C 10.929688 10.5 11.664062 11.335938 12.691406 11.335938 Z M 12.691406 7.046875 C 12.351562 7.046875 12.035156 6.773438 12.035156 6.394531 L 12.035156 4.121094 C 12.035156 3.765625 12.320312 3.46875 12.695312 3.464844 C 13.042969 3.464844 13.34375 3.746094 13.34375 4.121094 L 13.34375 6.394531 C 13.34375 6.777344 13.007812 7.046875 12.691406 7.046875 Z M 12.691406 7.046875 "/>
</svg>
