<?xml version="1.0" encoding="UTF-8"?>
<svg xmlns="http://www.w3.org/2000/svg" xmlns:xlink="http://www.w3.org/1999/xlink" width="17.549925" height="15" viewBox="0 0 17.549925 15">
<path fill-rule="nonzero" fill="rgb(85.09804%, 44.313726%, 0%)" fill-opacity="1" stroke-width="15" stroke-linecap="round" stroke-linejoin="round" stroke="rgb(100%, 100%, 100%)" stroke-opacity="1" stroke-miterlimit="4" d="M 432.378813 -196.08759 C 290.05287 -195.887553 150.927511 -196.887736 17.203136 -197.287809 C 83.215168 -80.966606 156.328495 40.355508 222.340528 156.776729 C 290.65298 40.555545 364.166379 -79.766387 432.478831 -195.887553 C 430.378448 -192.186879 425.1775 -196.08759 432.378813 -196.08759 Z M 432.378813 -196.08759 " transform="matrix(0.0390554, 0, 0, 0.0390554, 0, 8.177807)"/>
<path fill-rule="nonzero" fill="rgb(0%, 0%, 0%)" fill-opacity="1" d="M 8.261719 8.5625 L 10.335938 2.109375 L 10.335938 1.105469 L 6.980469 1.105469 L 6.980469 2.78125 L 8.066406 2.78125 L 8.066406 2.050781 L 9.191406 2.050781 L 7.117188 8.601562 Z M 8.261719 8.5625 "/>
<path fill="none" stroke-width="9" stroke-linecap="round" stroke-linejoin="round" stroke="rgb(0%, 0%, 0%)" stroke-opacity="1" stroke-miterlimit="4" d="M 441.58049 -202.988848 C 271.149424 -202.988848 141.225742 -203.588957 4.50082 -204.889194 C 70.512853 -88.567992 155.828404 53.85797 221.840437 170.179172 C 290.152888 54.058006 444.881092 -202.988848 444.881092 -202.988848 Z M 441.58049 -202.988848 " transform="matrix(0.0390554, 0, 0, 0.0390554, 0, 8.177807)"/>
</svg>
