<?xml version="1.0" encoding="UTF-8"?>
<svg xmlns="http://www.w3.org/2000/svg" xmlns:xlink="http://www.w3.org/1999/xlink" width="22.229905" height="19" viewBox="0 0 22.229905 19">
<path fill-rule="nonzero" fill="rgb(85.09804%, 44.313726%, 0%)" fill-opacity="1" stroke-width="15" stroke-linecap="round" stroke-linejoin="round" stroke="rgb(100%, 100%, 100%)" stroke-opacity="1" stroke-miterlimit="4" d="M 432.394386 -196.124347 C 290.026402 -195.887462 150.895849 -196.913964 17.213655 -197.308773 C 83.225654 -80.998157 156.344208 40.366008 222.356207 156.755585 C 290.658096 40.523932 364.171459 -79.73477 432.473348 -195.887462 C 430.341381 -192.176261 425.208869 -196.124347 432.394386 -196.124347 Z M 432.394386 -196.124347 " transform="matrix(0.0494702, 0, 0, 0.0494702, 0, 10.358555)"/>
<path fill="none" stroke-width="9" stroke-linecap="round" stroke-linejoin="round" stroke="rgb(0%, 0%, 0%)" stroke-opacity="1" stroke-miterlimit="4" d="M 441.553946 -202.994017 C 271.154551 -202.994017 141.262519 -203.625711 4.500818 -204.889098 C 70.512817 -88.578483 155.791476 53.868463 221.803475 170.179078 C 290.184326 54.026386 444.870338 -202.994017 444.870338 -202.994017 Z M 441.553946 -202.994017 " transform="matrix(0.0494702, 0, 0, 0.0494702, 0, 10.358555)"/>
<path fill-rule="nonzero" fill="rgb(0%, 0%, 0%)" fill-opacity="1" d="M 10.09375 2.386719 C 9.148438 2.390625 8.203125 3.03125 8.199219 4.300781 L 8.1875 4.300781 L 8.1875 9.542969 L 8.199219 9.542969 C 8.222656 12.101562 11.980469 12.074219 11.984375 9.542969 L 11.992188 9.542969 L 11.992188 4.300781 L 11.984375 4.300781 C 11.980469 3.011719 11.035156 2.378906 10.09375 2.386719 Z M 10.089844 3.523438 C 10.488281 3.519531 10.890625 3.773438 10.890625 4.300781 L 10.886719 4.300781 L 10.886719 9.542969 L 10.890625 9.542969 C 10.890625 10.574219 9.292969 10.574219 9.292969 9.519531 L 9.292969 4.300781 C 9.292969 3.789062 9.6875 3.527344 10.089844 3.523438 Z M 10.089844 3.523438 "/>
<path fill-rule="nonzero" fill="rgb(0%, 0%, 0%)" fill-opacity="1" d="M 15.347656 5.746094 L 15.347656 7.308594 C 15.351562 7.941406 14.824219 8.5 14.15625 8.5 C 13.457031 8.5 12.964844 7.929688 12.964844 7.308594 L 12.964844 6.945312 L 13.710938 6.945312 L 13.710938 7.308594 C 13.710938 7.558594 13.914062 7.753906 14.152344 7.75 C 14.402344 7.75 14.601562 7.550781 14.601562 7.308594 L 14.601562 5.769531 C 14.601562 5.511719 14.382812 5.328125 14.15625 5.328125 C 13.972656 5.328125 13.78125 5.433594 13.710938 5.644531 L 12.964844 5.644531 L 12.964844 2.417969 L 15.347656 2.417969 L 15.347656 3.167969 L 13.710938 3.167969 L 13.710938 4.847656 C 13.914062 4.664062 14.125 4.613281 14.402344 4.613281 C 15.027344 4.613281 15.347656 5.171875 15.347656 5.746094 Z M 15.347656 5.746094 "/>
</svg>
