<?xml version="1.0" encoding="UTF-8"?>
<svg xmlns="http://www.w3.org/2000/svg" xmlns:xlink="http://www.w3.org/1999/xlink" width="11.72633" height="15" viewBox="0 0 11.72633 15">
<path fill-rule="nonzero" fill="rgb(100%, 100%, 100%)" fill-opacity="1" stroke-width="12" stroke-linecap="round" stroke-linejoin="round" stroke="rgb(0%, 0%, 0%)" stroke-opacity="1" stroke-miterlimit="4" d="M 6.001722 -96.988291 L 211.072596 -96.988291 L 211.072596 168.678279 L 6.001722 168.678279 Z M 6.001722 -96.988291 " transform="matrix(0.054021, 0, 0, 0.054021, 0, 5.563619)"/>
<path fill-rule="nonzero" fill="rgb(0%, 0%, 0%)" fill-opacity="1" d="M 5.597656 6.871094 L 5.597656 8.269531 C 5.597656 8.269531 6.652344 8.355469 6.652344 8.957031 C 6.652344 9.554688 6.652344 8.984375 6.652344 10.210938 C 6.652344 11.640625 4.957031 11.648438 4.957031 10.667969 C 4.5 10.667969 4.339844 10.667969 3.453125 10.667969 C 3.453125 13.289062 7.996094 13.308594 7.996094 10.667969 C 7.996094 9.742188 7.996094 9.398438 7.996094 8.839844 C 7.996094 8.285156 7.847656 7.84375 7.414062 7.414062 C 7.847656 6.980469 8.144531 6.582031 8.144531 5.882812 C 8.144531 5.527344 8.144531 5.113281 8.144531 4.441406 C 8.144531 1.542969 3.582031 1.65625 3.582031 4.441406 C 4.238281 4.441406 4.539062 4.441406 4.925781 4.441406 C 4.925781 3.113281 6.796875 3.371094 6.796875 4.441406 C 6.796875 5.515625 6.796875 5.441406 6.796875 6.085938 C 6.796875 6.46875 6.222656 6.871094 5.597656 6.871094 Z M 5.597656 6.871094 "/>
</svg>
