<?xml version="1.0" encoding="UTF-8"?>
<svg xmlns="http://www.w3.org/2000/svg" xmlns:xlink="http://www.w3.org/1999/xlink" width="12.508085" height="16" viewBox="0 0 12.508085 16">
<path fill-rule="nonzero" fill="rgb(100%, 100%, 100%)" fill-opacity="1" stroke-width="12" stroke-linecap="round" stroke-linejoin="round" stroke="rgb(0%, 0%, 0%)" stroke-opacity="1" stroke-miterlimit="4" d="M 6.033352 -96.956578 L 211.099543 -96.956578 L 211.099543 168.646508 L 6.033352 168.646508 Z M 6.033352 -96.956578 " transform="matrix(0.0576224, 0, 0, 0.0576224, 0, 5.934527)"/>
<path fill-rule="nonzero" fill="rgb(0%, 0%, 0%)" fill-opacity="1" d="M 8.316406 8.523438 L 8.316406 11.210938 C 8.328125 12.304688 7.417969 13.265625 6.265625 13.265625 C 5.066406 13.265625 4.210938 12.289062 4.210938 11.210938 L 4.210938 10.601562 L 5.5 10.601562 L 5.5 11.210938 C 5.5 11.648438 5.855469 11.980469 6.257812 11.980469 C 6.695312 11.980469 7.035156 11.628906 7.035156 11.210938 L 7.035156 8.570312 C 7.035156 8.125 6.664062 7.808594 6.265625 7.808594 C 5.953125 7.808594 5.621094 7.992188 5.5 8.355469 L 4.214844 8.355469 L 4.214844 2.808594 L 8.316406 2.808594 L 8.316406 4.089844 L 5.5 4.089844 L 5.5 6.984375 C 5.851562 6.671875 6.214844 6.574219 6.691406 6.574219 C 7.769531 6.574219 8.316406 7.542969 8.316406 8.523438 Z M 8.316406 8.523438 "/>
</svg>
