<?xml version="1.0" encoding="UTF-8"?>
<svg xmlns="http://www.w3.org/2000/svg" xmlns:xlink="http://www.w3.org/1999/xlink" width="11.72633" height="15" viewBox="0 0 11.72633 15">
<path fill-rule="nonzero" fill="rgb(100%, 100%, 100%)" fill-opacity="1" stroke-width="12" stroke-linecap="round" stroke-linejoin="round" stroke="rgb(0%, 0%, 0%)" stroke-opacity="1" stroke-miterlimit="4" d="M 6.001722 -96.988291 L 211.072596 -96.988291 L 211.072596 168.678279 L 6.001722 168.678279 Z M 6.001722 -96.988291 " transform="matrix(0.054021, 0, 0, 0.054021, 0, 5.563619)"/>
<path fill-rule="nonzero" fill="rgb(0%, 0%, 0%)" fill-opacity="1" d="M 8 2.484375 C 6.964844 2.492188 5.933594 3.195312 5.933594 4.578125 L 5.921875 4.578125 L 5.921875 10.304688 L 5.933594 10.304688 C 5.957031 13.101562 10.0625 13.070312 10.0625 10.304688 L 10.074219 10.304688 L 10.074219 4.578125 L 10.0625 4.578125 C 10.058594 3.171875 9.03125 2.480469 8 2.484375 Z M 7.996094 3.730469 C 8.429688 3.726562 8.867188 4.003906 8.871094 4.578125 L 8.867188 4.578125 L 8.867188 10.304688 L 8.871094 10.304688 C 8.871094 11.429688 7.125 11.429688 7.125 10.277344 L 7.125 4.578125 C 7.125 4.019531 7.558594 3.734375 7.996094 3.730469 Z M 7.996094 3.730469 "/>
<path fill-rule="nonzero" fill="rgb(0%, 0%, 0%)" fill-opacity="1" d="M 3.144531 2.460938 L 1.839844 3.746094 L 1.839844 5.761719 L 3.125 4.460938 L 3.125 12.183594 L 4.515625 12.183594 L 4.515625 2.460938 Z M 3.144531 2.460938 "/>
</svg>
