<?xml version="1.0" encoding="UTF-8"?>
<svg xmlns="http://www.w3.org/2000/svg" xmlns:xlink="http://www.w3.org/1999/xlink" width="11.72633" height="15" viewBox="0 0 11.72633 15">
<path fill-rule="nonzero" fill="rgb(100%, 100%, 100%)" fill-opacity="1" stroke-width="12" stroke-linecap="round" stroke-linejoin="round" stroke="rgb(0%, 0%, 0%)" stroke-opacity="1" stroke-miterlimit="4" d="M 6.001722 -96.988291 L 211.072596 -96.988291 L 211.072596 168.678279 L 6.001722 168.678279 Z M 6.001722 -96.988291 " transform="matrix(0.054021, 0, 0, 0.054021, 0, 5.563619)"/>
<path fill-rule="nonzero" fill="rgb(0%, 0%, 0%)" fill-opacity="1" d="M 3.078125 2.652344 L 1.707031 4.003906 L 1.707031 5.628906 L 2.988281 4.328125 L 2.988281 12.375 L 4.195312 12.375 L 4.195312 2.652344 Z M 3.078125 2.652344 "/>
<path fill-rule="nonzero" fill="rgb(0%, 0%, 0%)" fill-opacity="1" d="M 9.894531 12.367188 L 5.808594 12.367188 L 5.808594 11.144531 L 8.464844 6.070312 C 8.582031 5.839844 8.730469 5.597656 8.730469 5.355469 L 8.730469 4.65625 C 8.730469 4.136719 8.339844 3.8125 7.835938 3.820312 C 7.433594 3.828125 6.988281 4.125 6.988281 4.644531 L 6.988281 5.429688 L 5.78125 5.429688 L 5.78125 4.726562 C 5.78125 3.398438 6.664062 2.5625 7.878906 2.5625 C 9 2.5625 9.933594 3.363281 9.933594 4.683594 L 9.933594 5.515625 C 9.933594 5.929688 9.683594 6.347656 9.492188 6.710938 L 7.171875 11.152344 L 9.894531 11.152344 L 9.894531 12.367188 "/>
</svg>
