<?xml version="1.0" encoding="UTF-8"?>
<svg xmlns="http://www.w3.org/2000/svg" xmlns:xlink="http://www.w3.org/1999/xlink" width="12.508085" height="16" viewBox="0 0 12.508085 16">
<path fill-rule="nonzero" fill="rgb(100%, 100%, 100%)" fill-opacity="1" stroke-width="12" stroke-linecap="round" stroke-linejoin="round" stroke="rgb(0%, 0%, 0%)" stroke-opacity="1" stroke-miterlimit="4" d="M 6.033353 -96.956579 L 211.099549 -96.956579 L 211.099549 168.646515 L 6.033353 168.646515 Z M 6.033353 -96.956579 " transform="matrix(0.0576224, 0, 0, 0.0576224, 0, 5.934527)"/>
<path fill-rule="nonzero" fill="rgb(0%, 0%, 0%)" fill-opacity="1" d="M 3.285156 2.828125 L 1.820312 4.269531 L 1.820312 6.003906 L 3.1875 4.617188 L 3.1875 13.199219 L 4.476562 13.199219 L 4.476562 2.828125 Z M 3.285156 2.828125 "/>
<path fill-rule="nonzero" fill="rgb(0%, 0%, 0%)" fill-opacity="1" d="M 10.539062 8.546875 L 10.539062 11.234375 C 10.550781 12.320312 9.632812 13.285156 8.488281 13.285156 C 7.289062 13.285156 6.433594 12.308594 6.433594 11.234375 L 6.433594 10.617188 L 7.722656 10.617188 L 7.722656 11.234375 C 7.722656 11.671875 8.070312 11.996094 8.480469 11.996094 C 8.917969 11.996094 9.25 11.648438 9.25 11.234375 L 9.25 8.585938 C 9.25 8.144531 8.878906 7.828125 8.484375 7.828125 C 8.171875 7.828125 7.835938 8.007812 7.722656 8.375 L 6.4375 8.375 L 6.4375 2.828125 L 10.539062 2.828125 L 10.539062 4.113281 L 7.722656 4.113281 L 7.722656 7.003906 C 8.070312 6.691406 8.4375 6.589844 8.910156 6.589844 C 9.988281 6.589844 10.539062 7.5625 10.539062 8.546875 Z M 10.539062 8.546875 "/>
</svg>
