<?xml version="1.0" encoding="UTF-8"?>
<svg xmlns="http://www.w3.org/2000/svg" xmlns:xlink="http://www.w3.org/1999/xlink" width="11.72633" height="15" viewBox="0 0 11.72633 15">
<path fill-rule="nonzero" fill="rgb(100%, 100%, 100%)" fill-opacity="1" stroke-width="12" stroke-linecap="round" stroke-linejoin="round" stroke="rgb(0%, 0%, 0%)" stroke-opacity="1" stroke-miterlimit="4" d="M 6.001722 -96.988291 L 211.072596 -96.988291 L 211.072596 168.678279 L 6.001722 168.678279 Z M 6.001722 -96.988291 " transform="matrix(0.054021, 0, 0, 0.054021, 0, 5.563619)"/>
<path fill-rule="nonzero" fill="rgb(0%, 0%, 0%)" fill-opacity="1" d="M 3.894531 2.484375 C 2.859375 2.492188 1.828125 3.195312 1.828125 4.578125 L 1.816406 4.578125 L 1.816406 10.304688 L 1.828125 10.304688 C 1.851562 13.101562 5.953125 13.070312 5.957031 10.304688 L 5.96875 10.304688 L 5.96875 4.578125 L 5.957031 4.578125 C 5.953125 3.171875 4.925781 2.480469 3.894531 2.484375 Z M 3.890625 3.730469 C 4.324219 3.726562 4.761719 4.003906 4.765625 4.578125 L 4.761719 4.578125 L 4.761719 10.304688 L 4.765625 10.304688 C 4.765625 11.429688 3.019531 11.429688 3.019531 10.277344 L 3.019531 4.578125 C 3.019531 4.019531 3.453125 3.734375 3.890625 3.730469 Z M 3.890625 3.730469 "/>
<path fill-rule="nonzero" fill="rgb(0%, 0%, 0%)" fill-opacity="1" d="M 9.652344 6.210938 L 9.652344 7.875 C 9.660156 8.546875 9.09375 9.144531 8.382812 9.144531 C 7.644531 9.144531 7.113281 8.539062 7.113281 7.875 L 7.113281 7.496094 L 7.910156 7.496094 L 7.910156 7.875 C 7.910156 8.144531 8.128906 8.347656 8.378906 8.347656 C 8.648438 8.347656 8.855469 8.132812 8.855469 7.875 L 8.855469 6.242188 C 8.855469 5.964844 8.628906 5.769531 8.382812 5.769531 C 8.191406 5.769531 7.984375 5.882812 7.910156 6.105469 L 7.117188 6.105469 L 7.117188 2.675781 L 9.652344 2.675781 L 9.652344 3.472656 L 7.910156 3.472656 L 7.910156 5.257812 C 8.125 5.066406 8.355469 5.003906 8.648438 5.003906 C 9.3125 5.003906 9.652344 5.605469 9.652344 6.210938 Z M 9.652344 6.210938 "/>
</svg>
