<?xml version="1.0" encoding="UTF-8"?>
<svg xmlns="http://www.w3.org/2000/svg" xmlns:xlink="http://www.w3.org/1999/xlink" width="12.508085" height="16" viewBox="0 0 12.508085 16">
<path fill-rule="nonzero" fill="rgb(100%, 100%, 100%)" fill-opacity="1" stroke-width="12" stroke-linecap="round" stroke-linejoin="round" stroke="rgb(0%, 0%, 0%)" stroke-opacity="1" stroke-miterlimit="4" d="M 6.033353 -96.956579 L 211.099549 -96.956579 L 211.099549 168.646515 L 6.033353 168.646515 Z M 6.033353 -96.956579 " transform="matrix(0.0576224, 0, 0, 0.0576224, 0, 5.934527)"/>
<path fill-rule="nonzero" fill="rgb(0%, 0%, 0%)" fill-opacity="1" d="M 3.160156 2.828125 L 1.695312 4.269531 L 1.695312 6.003906 L 3.066406 4.617188 L 3.066406 13.199219 L 4.351562 13.199219 L 4.351562 2.828125 Z M 3.160156 2.828125 "/>
<path fill-rule="nonzero" fill="rgb(0%, 0%, 0%)" fill-opacity="1" d="M 8.367188 13.285156 C 9.511719 13.285156 10.425781 12.324219 10.414062 11.234375 L 10.414062 4.878906 C 10.414062 3.804688 9.558594 2.828125 8.363281 2.828125 C 7.210938 2.828125 6.296875 3.792969 6.308594 4.878906 L 6.308594 7.566406 C 6.308594 8.550781 6.859375 9.519531 7.9375 9.519531 C 8.410156 9.519531 8.773438 9.421875 9.125 9.109375 L 9.125 11.273438 C 9.105469 11.671875 8.777344 11.996094 8.355469 11.996094 C 7.949219 11.996094 7.597656 11.671875 7.597656 11.234375 L 7.597656 10.617188 L 6.308594 10.617188 L 6.308594 11.234375 C 6.308594 12.308594 7.167969 13.285156 8.367188 13.285156 Z M 8.363281 8.289062 C 7.964844 8.289062 7.597656 7.964844 7.597656 7.519531 L 7.597656 4.878906 C 7.597656 4.460938 7.929688 4.117188 8.367188 4.117188 C 8.773438 4.117188 9.125 4.441406 9.125 4.878906 L 9.125 7.519531 C 9.125 7.976562 8.734375 8.289062 8.363281 8.289062 Z M 8.363281 8.289062 "/>
</svg>
