<?xml version="1.0" encoding="UTF-8"?>
<svg xmlns="http://www.w3.org/2000/svg" xmlns:xlink="http://www.w3.org/1999/xlink" width="11.72633" height="15" viewBox="0 0 11.72633 15">
<path fill-rule="nonzero" fill="rgb(100%, 100%, 100%)" fill-opacity="1" stroke-width="12" stroke-linecap="round" stroke-linejoin="round" stroke="rgb(0%, 0%, 0%)" stroke-opacity="1" stroke-miterlimit="4" d="M 6.001722 -96.988291 L 211.072596 -96.988291 L 211.072596 168.678279 L 6.001722 168.678279 Z M 6.001722 -96.988291 " transform="matrix(0.054021, 0, 0, 0.054021, 0, 5.563619)"/>
<path fill-rule="nonzero" fill="rgb(0%, 0%, 0%)" fill-opacity="1" d="M 8.441406 2.597656 C 7.40625 2.597656 6.375 3.308594 6.375 4.695312 L 6.375 10.417969 C 6.375 13.210938 10.503906 13.195312 10.503906 10.417969 L 10.503906 4.695312 C 10.5 3.285156 9.472656 2.597656 8.441406 2.597656 Z M 8.4375 3.84375 C 8.859375 3.84375 9.308594 4.121094 9.3125 4.695312 L 9.3125 10.417969 C 9.3125 11.542969 7.570312 11.542969 7.570312 10.390625 L 7.566406 4.695312 C 7.566406 4.179688 8 3.84375 8.4375 3.84375 Z M 8.4375 3.84375 "/>
<path fill-rule="nonzero" fill="rgb(0%, 0%, 0%)" fill-opacity="1" d="M 5.308594 12.402344 L 1.226562 12.402344 L 1.226562 11.179688 L 3.878906 6.105469 C 4 5.875 4.144531 5.632812 4.144531 5.390625 L 4.144531 4.691406 C 4.144531 4.171875 3.753906 3.851562 3.253906 3.855469 C 2.851562 3.863281 2.40625 4.160156 2.40625 4.679688 L 2.40625 5.464844 L 1.195312 5.464844 L 1.195312 4.765625 C 1.195312 3.433594 2.078125 2.597656 3.292969 2.597656 C 4.417969 2.597656 5.351562 3.398438 5.351562 4.71875 L 5.351562 5.550781 C 5.351562 5.964844 5.097656 6.382812 4.910156 6.746094 L 2.585938 11.1875 L 5.308594 11.1875 L 5.308594 12.402344 "/>
</svg>
