<?xml version="1.0" encoding="UTF-8"?>
<svg xmlns="http://www.w3.org/2000/svg" xmlns:xlink="http://www.w3.org/1999/xlink" width="11.72633" height="15" viewBox="0 0 11.72633 15">
<path fill-rule="nonzero" fill="rgb(100%, 100%, 100%)" fill-opacity="1" stroke-width="12" stroke-linecap="round" stroke-linejoin="round" stroke="rgb(0%, 0%, 0%)" stroke-opacity="1" stroke-miterlimit="4" d="M 6.001722 -96.988291 L 211.072596 -96.988291 L 211.072596 168.678279 L 6.001722 168.678279 Z M 6.001722 -96.988291 " transform="matrix(0.054021, 0, 0, 0.054021, 0, 5.563619)"/>
<path fill-rule="nonzero" fill="rgb(0%, 0%, 0%)" fill-opacity="1" d="M 7.796875 7.992188 L 7.796875 10.511719 C 7.808594 11.535156 6.953125 12.4375 5.875 12.4375 C 4.75 12.4375 3.949219 11.519531 3.949219 10.511719 L 3.949219 9.9375 L 5.15625 9.9375 L 5.15625 10.511719 C 5.15625 10.921875 5.488281 11.230469 5.867188 11.230469 C 6.277344 11.230469 6.59375 10.902344 6.59375 10.511719 L 6.59375 8.035156 C 6.59375 7.617188 6.246094 7.320312 5.875 7.320312 C 5.582031 7.320312 5.269531 7.492188 5.15625 7.832031 L 3.953125 7.832031 L 3.953125 2.632812 L 7.796875 2.632812 L 7.796875 3.835938 L 5.15625 3.835938 L 5.15625 6.546875 C 5.484375 6.253906 5.828125 6.164062 6.273438 6.164062 C 7.285156 6.164062 7.796875 7.070312 7.796875 7.992188 Z M 7.796875 7.992188 "/>
</svg>
