<?xml version="1.0" encoding="UTF-8"?>
<svg xmlns="http://www.w3.org/2000/svg" xmlns:xlink="http://www.w3.org/1999/xlink" width="12.508085" height="16" viewBox="0 0 12.508085 16">
<path fill-rule="nonzero" fill="rgb(100%, 100%, 100%)" fill-opacity="1" stroke-width="12" stroke-linecap="round" stroke-linejoin="round" stroke="rgb(0%, 0%, 0%)" stroke-opacity="1" stroke-miterlimit="4" d="M 6.033353 -96.956579 L 211.099549 -96.956579 L 211.099549 168.646515 L 6.033353 168.646515 Z M 6.033353 -96.956579 " transform="matrix(0.0576224, 0, 0, 0.0576224, 0, 5.934527)"/>
<path fill-rule="nonzero" fill="rgb(0%, 0%, 0%)" fill-opacity="1" d="M 3.285156 2.828125 L 1.820312 4.269531 L 1.820312 6.003906 L 3.1875 4.617188 L 3.1875 13.199219 L 4.476562 13.199219 L 4.476562 2.828125 Z M 3.285156 2.828125 "/>
<path fill-rule="nonzero" fill="rgb(0%, 0%, 0%)" fill-opacity="1" d="M 8.402344 2.734375 C 7.109375 2.734375 6.167969 3.617188 6.167969 5.015625 L 6.167969 5.796875 L 7.453125 5.796875 L 7.453125 4.929688 C 7.453125 4.382812 7.929688 4.066406 8.359375 4.058594 C 8.894531 4.054688 9.3125 4.390625 9.3125 4.941406 L 9.3125 6.335938 C 9.3125 6.921875 8.769531 7.195312 7.925781 7.195312 L 7.925781 8.421875 C 8.769531 8.421875 9.3125 8.695312 9.3125 9.277344 L 9.3125 11.050781 C 9.3125 11.605469 8.894531 11.941406 8.359375 11.933594 C 7.929688 11.925781 7.453125 11.613281 7.453125 11.066406 L 7.453125 10.199219 L 6.167969 10.199219 L 6.167969 10.976562 C 6.167969 12.378906 7.109375 13.257812 8.402344 13.257812 C 9.601562 13.257812 10.597656 12.417969 10.597656 11.023438 L 10.597656 9.226562 C 10.597656 8.703125 10.371094 8.179688 9.757812 7.808594 C 10.371094 7.441406 10.597656 6.914062 10.597656 6.390625 L 10.597656 4.972656 C 10.597656 3.578125 9.601562 2.734375 8.402344 2.734375 Z M 8.402344 2.734375 "/>
</svg>
