<?xml version="1.0" encoding="UTF-8"?>
<svg xmlns="http://www.w3.org/2000/svg" xmlns:xlink="http://www.w3.org/1999/xlink" width="12.508085" height="16" viewBox="0 0 12.508085 16">
<path fill-rule="nonzero" fill="rgb(100%, 100%, 100%)" fill-opacity="1" stroke-width="12" stroke-linecap="round" stroke-linejoin="round" stroke="rgb(0%, 0%, 0%)" stroke-opacity="1" stroke-miterlimit="4" d="M 6.033352 -96.956578 L 211.099543 -96.956578 L 211.099543 168.646508 L 6.033352 168.646508 Z M 6.033352 -96.956578 " transform="matrix(0.0576224, 0, 0, 0.0576224, 0, 5.934527)"/>
<path fill-rule="nonzero" fill="rgb(0%, 0%, 0%)" fill-opacity="1" d="M 5.972656 7.328125 L 5.972656 8.820312 C 5.972656 8.820312 7.097656 8.914062 7.097656 9.554688 C 7.097656 10.191406 7.097656 9.582031 7.097656 10.890625 C 7.097656 12.417969 5.289062 12.425781 5.289062 11.378906 C 4.800781 11.378906 4.628906 11.378906 3.683594 11.378906 C 3.683594 14.175781 8.527344 14.195312 8.527344 11.378906 C 8.527344 10.390625 8.527344 10.023438 8.527344 9.429688 C 8.527344 8.835938 8.371094 8.367188 7.910156 7.910156 C 8.371094 7.445312 8.6875 7.019531 8.6875 6.273438 C 8.6875 5.894531 8.6875 5.453125 8.6875 4.738281 C 8.6875 1.644531 3.820312 1.765625 3.820312 4.738281 C 4.519531 4.738281 4.839844 4.738281 5.253906 4.738281 C 5.253906 3.320312 7.25 3.597656 7.25 4.738281 C 7.25 5.882812 7.25 5.804688 7.25 6.492188 C 7.25 6.898438 6.636719 7.328125 5.972656 7.328125 Z M 5.972656 7.328125 "/>
</svg>
