<?xml version="1.0" encoding="UTF-8"?>
<svg xmlns="http://www.w3.org/2000/svg" xmlns:xlink="http://www.w3.org/1999/xlink" width="11.72633" height="15" viewBox="0 0 11.72633 15">
<path fill-rule="nonzero" fill="rgb(100%, 100%, 100%)" fill-opacity="1" stroke-width="12" stroke-linecap="round" stroke-linejoin="round" stroke="rgb(0%, 0%, 0%)" stroke-opacity="1" stroke-miterlimit="4" d="M 6.001722 -96.988291 L 211.072596 -96.988291 L 211.072596 168.678279 L 6.001722 168.678279 Z M 6.001722 -96.988291 " transform="matrix(0.054021, 0, 0, 0.054021, 0, 5.563619)"/>
<path fill-rule="nonzero" fill="rgb(0%, 0%, 0%)" fill-opacity="1" d="M 2.960938 2.652344 L 1.589844 4.003906 L 1.589844 5.628906 L 2.875 4.328125 L 2.875 12.375 L 4.078125 12.375 L 4.078125 2.652344 Z M 2.960938 2.652344 "/>
<path fill-rule="nonzero" fill="rgb(0%, 0%, 0%)" fill-opacity="1" d="M 7.84375 12.453125 C 8.917969 12.453125 9.773438 11.554688 9.761719 10.53125 L 9.761719 4.574219 C 9.761719 3.566406 8.960938 2.652344 7.839844 2.652344 C 6.761719 2.652344 5.902344 3.554688 5.914062 4.574219 L 5.914062 7.09375 C 5.914062 8.015625 6.429688 8.925781 7.441406 8.925781 C 7.882812 8.925781 8.226562 8.832031 8.554688 8.539062 L 8.554688 10.570312 C 8.535156 10.941406 8.230469 11.246094 7.832031 11.246094 C 7.453125 11.246094 7.121094 10.941406 7.121094 10.53125 L 7.121094 9.953125 L 5.914062 9.953125 L 5.914062 10.53125 C 5.914062 11.539062 6.71875 12.453125 7.84375 12.453125 Z M 7.839844 7.769531 C 7.46875 7.769531 7.121094 7.46875 7.121094 7.050781 L 7.121094 4.574219 C 7.121094 4.183594 7.433594 3.859375 7.84375 3.859375 C 8.226562 3.859375 8.554688 4.164062 8.554688 4.574219 L 8.554688 7.050781 C 8.554688 7.476562 8.1875 7.769531 7.839844 7.769531 Z M 7.839844 7.769531 "/>
</svg>
