<?xml version="1.0" encoding="UTF-8"?>
<svg xmlns="http://www.w3.org/2000/svg" xmlns:xlink="http://www.w3.org/1999/xlink" width="12.508085" height="16" viewBox="0 0 12.508085 16">
<path fill-rule="nonzero" fill="rgb(100%, 100%, 100%)" fill-opacity="1" stroke-width="12" stroke-linecap="round" stroke-linejoin="round" stroke="rgb(0%, 0%, 0%)" stroke-opacity="1" stroke-miterlimit="4" d="M 6.033352 -96.956578 L 211.099543 -96.956578 L 211.099543 168.646508 L 6.033352 168.646508 Z M 6.033352 -96.956578 " transform="matrix(0.0576224, 0, 0, 0.0576224, 0, 5.934527)"/>
<path fill-rule="nonzero" fill="rgb(0%, 0%, 0%)" fill-opacity="1" d="M 6.207031 13.527344 C 7.402344 13.527344 8.605469 12.261719 8.605469 11.058594 L 8.605469 4.570312 C 8.605469 3.757812 7.882812 2.464844 6.25 2.464844 C 4.925781 2.464844 3.894531 3.667969 3.894531 4.570312 L 3.894531 7.652344 C 3.894531 9.835938 6.203125 9.890625 7.011719 9.574219 L 7.011719 11.207031 C 7.011719 12.078125 5.238281 12.050781 5.238281 11.207031 L 3.8125 11.207031 C 3.8125 12.261719 5.007812 13.527344 6.207031 13.527344 Z M 6.296875 8.089844 C 5.886719 8.109375 5.453125 7.898438 5.453125 7.476562 L 5.453125 4.964844 C 5.453125 3.863281 6.996094 3.792969 6.996094 4.964844 L 6.996094 7.496094 C 6.996094 7.878906 6.652344 8.074219 6.296875 8.089844 Z M 6.296875 8.089844 "/>
</svg>
