<?xml version="1.0" encoding="UTF-8"?>
<svg xmlns="http://www.w3.org/2000/svg" xmlns:xlink="http://www.w3.org/1999/xlink" width="12.508085" height="16" viewBox="0 0 12.508085 16">
<path fill-rule="nonzero" fill="rgb(100%, 100%, 100%)" fill-opacity="1" stroke-width="12" stroke-linecap="round" stroke-linejoin="round" stroke="rgb(0%, 0%, 0%)" stroke-opacity="1" stroke-miterlimit="4" d="M 6.033353 -96.956579 L 211.099549 -96.956579 L 211.099549 168.646515 L 6.033353 168.646515 Z M 6.033353 -96.956579 " transform="matrix(0.0576224, 0, 0, 0.0576224, 0, 5.934527)"/>
<path fill-rule="nonzero" fill="rgb(0%, 0%, 0%)" fill-opacity="1" d="M 9.003906 2.769531 C 7.898438 2.769531 6.800781 3.527344 6.800781 5.007812 L 6.800781 11.113281 C 6.800781 14.089844 11.203125 14.074219 11.203125 11.113281 L 11.203125 5.007812 C 11.199219 3.503906 10.105469 2.769531 9.003906 2.769531 Z M 9 4.101562 C 9.449219 4.101562 9.929688 4.394531 9.933594 5.007812 L 9.933594 11.113281 C 9.933594 12.3125 8.074219 12.3125 8.074219 11.082031 L 8.070312 5.007812 C 8.070312 4.457031 8.535156 4.101562 9 4.101562 Z M 9 4.101562 "/>
<path fill-rule="nonzero" fill="rgb(0%, 0%, 0%)" fill-opacity="1" d="M 5.664062 13.230469 L 1.308594 13.230469 L 1.308594 11.925781 L 4.136719 6.511719 C 4.265625 6.265625 4.421875 6.007812 4.421875 5.75 L 4.421875 5.003906 C 4.421875 4.449219 4.003906 4.109375 3.472656 4.113281 C 3.042969 4.121094 2.566406 4.4375 2.566406 4.992188 L 2.566406 5.828125 L 1.273438 5.828125 L 1.273438 5.082031 C 1.273438 3.664062 2.214844 2.769531 3.511719 2.769531 C 4.710938 2.769531 5.707031 3.625 5.707031 5.035156 L 5.707031 5.921875 C 5.707031 6.363281 5.4375 6.808594 5.238281 7.195312 L 2.757812 11.933594 L 5.664062 11.933594 L 5.664062 13.230469 "/>
</svg>
