<?xml version="1.0" encoding="UTF-8"?>
<svg xmlns="http://www.w3.org/2000/svg" xmlns:xlink="http://www.w3.org/1999/xlink" width="11.72633" height="15" viewBox="0 0 11.72633 15">
<path fill-rule="nonzero" fill="rgb(100%, 100%, 100%)" fill-opacity="1" stroke-width="12" stroke-linecap="round" stroke-linejoin="round" stroke="rgb(0%, 0%, 0%)" stroke-opacity="1" stroke-miterlimit="4" d="M 6.001722 -96.988291 L 211.072596 -96.988291 L 211.072596 168.678279 L 6.001722 168.678279 Z M 6.001722 -96.988291 " transform="matrix(0.054021, 0, 0, 0.054021, 0, 5.563619)"/>
<path fill-rule="nonzero" fill="rgb(0%, 0%, 0%)" fill-opacity="1" d="M 3.078125 2.652344 L 1.707031 4.003906 L 1.707031 5.628906 L 2.988281 4.328125 L 2.988281 12.375 L 4.195312 12.375 L 4.195312 2.652344 Z M 3.078125 2.652344 "/>
<path fill-rule="nonzero" fill="rgb(0%, 0%, 0%)" fill-opacity="1" d="M 7.878906 2.5625 C 6.664062 2.5625 5.78125 3.390625 5.78125 4.703125 L 5.78125 5.433594 L 6.988281 5.433594 L 6.988281 4.621094 C 6.988281 4.109375 7.433594 3.8125 7.835938 3.804688 C 8.339844 3.800781 8.730469 4.117188 8.730469 4.632812 L 8.730469 5.941406 C 8.730469 6.488281 8.222656 6.746094 7.429688 6.746094 L 7.429688 7.894531 C 8.222656 7.894531 8.730469 8.152344 8.730469 8.699219 L 8.730469 10.359375 C 8.730469 10.878906 8.339844 11.195312 7.835938 11.1875 C 7.433594 11.179688 6.988281 10.886719 6.988281 10.375 L 6.988281 9.5625 L 5.78125 9.5625 L 5.78125 10.289062 C 5.78125 11.605469 6.664062 12.429688 7.878906 12.429688 C 9 12.429688 9.933594 11.640625 9.933594 10.335938 L 9.933594 8.648438 C 9.933594 8.160156 9.722656 7.667969 9.148438 7.320312 C 9.722656 6.976562 9.933594 6.480469 9.933594 5.992188 L 9.933594 4.660156 C 9.933594 3.355469 9 2.5625 7.878906 2.5625 Z M 7.878906 2.5625 "/>
</svg>
