<?xml version="1.0" encoding="UTF-8"?>
<svg xmlns="http://www.w3.org/2000/svg" xmlns:xlink="http://www.w3.org/1999/xlink" width="12.508085" height="16" viewBox="0 0 12.508085 16">
<path fill-rule="nonzero" fill="rgb(100%, 100%, 100%)" fill-opacity="1" stroke-width="12" stroke-linecap="round" stroke-linejoin="round" stroke="rgb(0%, 0%, 0%)" stroke-opacity="1" stroke-miterlimit="4" d="M 6.033353 -96.956579 L 211.099549 -96.956579 L 211.099549 168.646515 L 6.033353 168.646515 Z M 6.033353 -96.956579 " transform="matrix(0.0576224, 0, 0, 0.0576224, 0, 5.934527)"/>
<path fill-rule="nonzero" fill="rgb(0%, 0%, 0%)" fill-opacity="1" d="M 3.285156 2.828125 L 1.820312 4.269531 L 1.820312 6.003906 L 3.1875 4.617188 L 3.1875 13.199219 L 4.476562 13.199219 L 4.476562 2.828125 Z M 3.285156 2.828125 "/>
<path fill-rule="nonzero" fill="rgb(0%, 0%, 0%)" fill-opacity="1" d="M 8.660156 13.199219 L 8.660156 11.5625 L 5.710938 11.5625 L 5.710938 10.226562 L 7.765625 2.828125 L 9.117188 2.828125 L 6.988281 10.265625 L 8.660156 10.265625 L 8.660156 7.269531 L 9.941406 7.269531 L 9.941406 10.265625 L 10.652344 10.265625 L 10.652344 11.5625 L 9.941406 11.5625 L 9.941406 13.199219 Z M 8.660156 13.199219 "/>
</svg>
