<?xml version="1.0" encoding="UTF-8"?>
<svg xmlns="http://www.w3.org/2000/svg" xmlns:xlink="http://www.w3.org/1999/xlink" width="11.72633" height="15" viewBox="0 0 11.72633 15">
<path fill-rule="nonzero" fill="rgb(100%, 100%, 100%)" fill-opacity="1" stroke-width="12" stroke-linecap="round" stroke-linejoin="round" stroke="rgb(0%, 0%, 0%)" stroke-opacity="1" stroke-miterlimit="4" d="M 6.001722 -96.988291 L 211.072596 -96.988291 L 211.072596 168.678279 L 6.001722 168.678279 Z M 6.001722 -96.988291 " transform="matrix(0.054021, 0, 0, 0.054021, 0, 5.563619)"/>
<path fill-rule="nonzero" fill="rgb(0%, 0%, 0%)" fill-opacity="1" d="M 4.480469 2.652344 L 3.109375 4.003906 L 3.109375 5.628906 L 4.394531 4.328125 L 4.394531 12.375 L 5.597656 12.375 L 5.597656 2.652344 Z M 4.480469 2.652344 "/>
<path fill-rule="nonzero" fill="rgb(0%, 0%, 0%)" fill-opacity="1" d="M 9.554688 5.453125 L 9.554688 6.769531 C 9.558594 7.304688 9.113281 7.773438 8.550781 7.773438 C 7.960938 7.773438 7.542969 7.296875 7.542969 6.769531 L 7.542969 6.46875 L 8.171875 6.46875 L 8.171875 6.769531 C 8.171875 6.984375 8.347656 7.144531 8.542969 7.144531 C 8.757812 7.144531 8.921875 6.972656 8.921875 6.769531 L 8.921875 5.472656 C 8.921875 5.257812 8.742188 5.101562 8.546875 5.101562 C 8.394531 5.101562 8.230469 5.191406 8.171875 5.367188 L 7.546875 5.367188 L 7.546875 2.652344 L 9.554688 2.652344 L 9.554688 3.28125 L 8.171875 3.28125 L 8.171875 4.695312 C 8.34375 4.542969 8.523438 4.496094 8.757812 4.496094 C 9.285156 4.496094 9.554688 4.96875 9.554688 5.453125 Z M 9.554688 5.453125 "/>
</svg>
