<?xml version="1.0" encoding="UTF-8"?>
<svg xmlns="http://www.w3.org/2000/svg" xmlns:xlink="http://www.w3.org/1999/xlink" width="11.72633" height="15" viewBox="0 0 11.72633 15">
<path fill-rule="nonzero" fill="rgb(100%, 100%, 100%)" fill-opacity="1" stroke-width="12" stroke-linecap="round" stroke-linejoin="round" stroke="rgb(0%, 0%, 0%)" stroke-opacity="1" stroke-miterlimit="4" d="M 6.001722 -96.988291 L 211.072596 -96.988291 L 211.072596 168.678279 L 6.001722 168.678279 Z M 6.001722 -96.988291 " transform="matrix(0.054021, 0, 0, 0.054021, 0, 5.563619)"/>
<path fill-rule="nonzero" fill="rgb(0%, 0%, 0%)" fill-opacity="1" d="M 3.078125 2.652344 L 1.707031 4.003906 L 1.707031 5.628906 L 2.988281 4.328125 L 2.988281 12.375 L 4.195312 12.375 L 4.195312 2.652344 Z M 3.078125 2.652344 "/>
<path fill-rule="nonzero" fill="rgb(0%, 0%, 0%)" fill-opacity="1" d="M 8.117188 12.375 L 8.117188 10.839844 L 5.355469 10.839844 L 5.355469 9.585938 L 7.28125 2.652344 L 8.546875 2.652344 L 6.550781 9.625 L 8.117188 9.625 L 8.117188 6.816406 L 9.320312 6.816406 L 9.320312 9.625 L 9.988281 9.625 L 9.988281 10.839844 L 9.320312 10.839844 L 9.320312 12.375 Z M 8.117188 12.375 "/>
</svg>
