<?xml version="1.0" encoding="UTF-8"?>
<svg xmlns="http://www.w3.org/2000/svg" xmlns:xlink="http://www.w3.org/1999/xlink" width="11.72633" height="15" viewBox="0 0 11.72633 15">
<path fill-rule="nonzero" fill="rgb(100%, 100%, 100%)" fill-opacity="1" stroke-width="12" stroke-linecap="round" stroke-linejoin="round" stroke="rgb(0%, 0%, 0%)" stroke-opacity="1" stroke-miterlimit="4" d="M 6.001722 -96.988291 L 211.072596 -96.988291 L 211.072596 168.678279 L 6.001722 168.678279 Z M 6.001722 -96.988291 " transform="matrix(0.054021, 0, 0, 0.054021, 0, 5.563619)"/>
<path fill-rule="nonzero" fill="rgb(0%, 0%, 0%)" fill-opacity="1" d="M 5.878906 2.519531 C 4.675781 2.519531 3.800781 3.328125 3.78125 4.617188 L 3.78125 5.71875 C 3.78125 6.203125 3.992188 6.777344 4.398438 7.171875 C 3.992188 7.566406 3.78125 8.117188 3.78125 8.605469 L 3.78125 10.289062 C 3.785156 11.578125 4.679688 12.386719 5.878906 12.386719 C 7.003906 12.386719 7.9375 11.597656 7.9375 10.289062 L 7.9375 8.605469 C 7.9375 8.117188 7.675781 7.488281 7.320312 7.167969 C 7.753906 6.746094 7.9375 6.191406 7.9375 5.703125 L 7.9375 4.617188 C 7.9375 3.308594 7.003906 2.519531 5.878906 2.519531 Z M 5.835938 3.761719 C 6.339844 3.753906 6.730469 4.074219 6.730469 4.589844 L 6.730469 5.683594 C 6.730469 6.121094 6.40625 6.5625 5.859375 6.5625 C 5.3125 6.5625 4.984375 6.125 4.988281 5.683594 L 4.988281 4.574219 C 4.992188 4.0625 5.433594 3.765625 5.835938 3.761719 Z M 5.859375 7.769531 C 6.367188 7.769531 6.730469 8.179688 6.730469 8.652344 L 6.730469 10.316406 C 6.730469 10.832031 6.339844 11.148438 5.835938 11.140625 C 5.433594 11.136719 4.992188 10.84375 4.988281 10.332031 L 4.988281 8.652344 C 4.984375 8.179688 5.363281 7.769531 5.859375 7.769531 Z M 5.859375 7.769531 "/>
</svg>
