<?xml version="1.0" encoding="UTF-8"?>
<svg xmlns="http://www.w3.org/2000/svg" xmlns:xlink="http://www.w3.org/1999/xlink" width="12.508085" height="16" viewBox="0 0 12.508085 16">
<path fill-rule="nonzero" fill="rgb(100%, 100%, 100%)" fill-opacity="1" stroke-width="12" stroke-linecap="round" stroke-linejoin="round" stroke="rgb(0%, 0%, 0%)" stroke-opacity="1" stroke-miterlimit="4" d="M 6.033352 -96.956578 L 211.099543 -96.956578 L 211.099543 168.646508 L 6.033352 168.646508 Z M 6.033352 -96.956578 " transform="matrix(0.0576224, 0, 0, 0.0576224, 0, 5.934527)"/>
<path fill-rule="nonzero" fill="rgb(0%, 0%, 0%)" fill-opacity="1" d="M 6.203125 2.457031 C 5.003906 2.457031 3.808594 3.726562 3.808594 4.929688 L 3.808594 11.417969 C 3.808594 12.234375 4.523438 13.519531 6.164062 13.519531 C 7.488281 13.519531 8.515625 12.320312 8.515625 11.417969 L 8.515625 8.332031 C 8.515625 6.148438 6.207031 6.101562 5.398438 6.414062 L 5.398438 4.777344 C 5.398438 3.910156 7.175781 3.9375 7.175781 4.777344 L 8.601562 4.777344 C 8.601562 3.726562 7.402344 2.457031 6.203125 2.457031 Z M 6.117188 7.894531 C 6.523438 7.878906 6.957031 8.085938 6.957031 8.511719 L 6.957031 11.019531 C 6.957031 12.128906 5.417969 12.195312 5.417969 11.019531 L 5.417969 8.492188 C 5.417969 8.109375 5.753906 7.914062 6.117188 7.894531 Z M 6.117188 7.894531 "/>
</svg>
