<?xml version="1.0" encoding="UTF-8"?>
<svg xmlns="http://www.w3.org/2000/svg" xmlns:xlink="http://www.w3.org/1999/xlink" width="12.508085" height="16" viewBox="0 0 12.508085 16">
<path fill-rule="nonzero" fill="rgb(100%, 100%, 100%)" fill-opacity="1" stroke-width="12" stroke-linecap="round" stroke-linejoin="round" stroke="rgb(0%, 0%, 0%)" stroke-opacity="1" stroke-miterlimit="4" d="M 6.033353 -96.956579 L 211.099549 -96.956579 L 211.099549 168.646515 L 6.033353 168.646515 Z M 6.033353 -96.956579 " transform="matrix(0.0576224, 0, 0, 0.0576224, 0, 5.934527)"/>
<path fill-rule="nonzero" fill="rgb(0%, 0%, 0%)" fill-opacity="1" d="M 6.269531 2.6875 C 4.988281 2.6875 4.054688 3.550781 4.035156 4.925781 L 4.035156 6.101562 C 4.035156 6.617188 4.257812 7.230469 4.691406 7.648438 C 4.257812 8.070312 4.035156 8.660156 4.035156 9.179688 L 4.035156 10.976562 C 4.039062 12.351562 4.992188 13.210938 6.269531 13.210938 C 7.472656 13.210938 8.464844 12.371094 8.464844 10.976562 L 8.464844 9.179688 C 8.464844 8.660156 8.1875 7.988281 7.808594 7.644531 C 8.269531 7.195312 8.464844 6.605469 8.464844 6.082031 L 8.464844 4.925781 C 8.464844 3.527344 7.472656 2.6875 6.269531 2.6875 Z M 6.226562 4.011719 C 6.761719 4.003906 7.179688 4.347656 7.179688 4.894531 L 7.179688 6.0625 C 7.179688 6.527344 6.832031 7 6.25 7 C 5.667969 7 5.316406 6.535156 5.320312 6.0625 L 5.320312 4.878906 C 5.324219 4.332031 5.796875 4.015625 6.226562 4.011719 Z M 6.25 8.289062 C 6.792969 8.289062 7.179688 8.726562 7.179688 9.230469 L 7.179688 11.003906 C 7.179688 11.554688 6.761719 11.890625 6.226562 11.882812 C 5.796875 11.878906 5.324219 11.566406 5.320312 11.019531 L 5.320312 9.230469 C 5.316406 8.726562 5.722656 8.289062 6.25 8.289062 Z M 6.25 8.289062 "/>
</svg>
