<?xml version="1.0" encoding="UTF-8"?>
<svg xmlns="http://www.w3.org/2000/svg" xmlns:xlink="http://www.w3.org/1999/xlink" width="11.72633" height="15" viewBox="0 0 11.72633 15">
<path fill-rule="nonzero" fill="rgb(100%, 100%, 100%)" fill-opacity="1" stroke-width="12" stroke-linecap="round" stroke-linejoin="round" stroke="rgb(0%, 0%, 0%)" stroke-opacity="1" stroke-miterlimit="4" d="M 6.001722 -96.988291 L 211.072596 -96.988291 L 211.072596 168.678279 L 6.001722 168.678279 Z M 6.001722 -96.988291 " transform="matrix(0.054021, 0, 0, 0.054021, 0, 5.563619)"/>
<path fill-rule="nonzero" fill="rgb(0%, 0%, 0%)" fill-opacity="1" d="M 5.820312 12.683594 C 6.941406 12.683594 8.066406 11.496094 8.066406 10.367188 L 8.066406 4.285156 C 8.066406 3.523438 7.390625 2.3125 5.859375 2.3125 C 4.617188 2.3125 3.652344 3.4375 3.652344 4.285156 L 3.652344 7.175781 C 3.652344 9.222656 5.816406 9.273438 6.574219 8.976562 L 6.574219 10.507812 C 6.574219 11.324219 4.910156 11.296875 4.910156 10.507812 L 3.574219 10.507812 C 3.574219 11.496094 4.695312 12.683594 5.820312 12.683594 Z M 5.902344 7.585938 C 5.519531 7.601562 5.113281 7.40625 5.113281 7.007812 L 5.113281 4.65625 C 5.113281 3.621094 6.558594 3.554688 6.558594 4.65625 L 6.558594 7.027344 C 6.558594 7.386719 6.238281 7.570312 5.902344 7.585938 Z M 5.902344 7.585938 "/>
</svg>
