<?xml version="1.0" encoding="UTF-8"?>
<svg xmlns="http://www.w3.org/2000/svg" xmlns:xlink="http://www.w3.org/1999/xlink" width="12.508085" height="16" viewBox="0 0 12.508085 16">
<path fill-rule="nonzero" fill="rgb(100%, 100%, 100%)" fill-opacity="1" stroke-width="12" stroke-linecap="round" stroke-linejoin="round" stroke="rgb(0%, 0%, 0%)" stroke-opacity="1" stroke-miterlimit="4" d="M 6.033352 -96.956578 L 211.099543 -96.956578 L 211.099543 168.646508 L 6.033352 168.646508 Z M 6.033352 -96.956578 " transform="matrix(0.0576224, 0, 0, 0.0576224, 0, 5.934527)"/>
<path fill-rule="nonzero" fill="rgb(0%, 0%, 0%)" fill-opacity="1" d="M 8.421875 13.171875 L 4.066406 13.171875 L 4.066406 11.867188 L 6.894531 6.453125 C 7.023438 6.207031 7.179688 5.953125 7.179688 5.691406 L 7.179688 4.949219 C 7.179688 4.390625 6.761719 4.050781 6.230469 4.058594 C 5.800781 4.0625 5.324219 4.382812 5.324219 4.933594 L 5.324219 5.769531 L 4.035156 5.769531 L 4.035156 5.023438 C 4.035156 3.609375 4.976562 2.714844 6.269531 2.714844 C 7.472656 2.714844 8.460938 3.566406 8.460938 4.980469 L 8.460938 5.863281 C 8.460938 6.304688 8.195312 6.75 7.996094 7.136719 L 5.515625 11.875 L 8.421875 11.875 L 8.421875 13.171875 "/>
</svg>
