<?xml version="1.0" encoding="UTF-8"?>
<svg xmlns="http://www.w3.org/2000/svg" xmlns:xlink="http://www.w3.org/1999/xlink" width="11.72633" height="15" viewBox="0 0 11.72633 15">
<path fill-rule="nonzero" fill="rgb(100%, 100%, 100%)" fill-opacity="1" stroke-width="12" stroke-linecap="round" stroke-linejoin="round" stroke="rgb(0%, 0%, 0%)" stroke-opacity="1" stroke-miterlimit="4" d="M 6.001722 -96.988291 L 211.072596 -96.988291 L 211.072596 168.678279 L 6.001722 168.678279 Z M 6.001722 -96.988291 " transform="matrix(0.054021, 0, 0, 0.054021, 0, 5.563619)"/>
<path fill-rule="nonzero" fill="rgb(0%, 0%, 0%)" fill-opacity="1" d="M 7.894531 12.347656 L 3.8125 12.347656 L 3.8125 11.125 L 6.464844 6.050781 C 6.585938 5.820312 6.730469 5.582031 6.730469 5.335938 L 6.730469 4.640625 C 6.730469 4.117188 6.339844 3.796875 5.839844 3.804688 C 5.4375 3.808594 4.992188 4.109375 4.992188 4.625 L 4.992188 5.410156 L 3.78125 5.410156 L 3.78125 4.710938 C 3.78125 3.382812 4.664062 2.546875 5.878906 2.546875 C 7.003906 2.546875 7.933594 3.34375 7.933594 4.667969 L 7.933594 5.496094 C 7.933594 5.910156 7.683594 6.328125 7.496094 6.691406 L 5.171875 11.132812 L 7.894531 11.132812 L 7.894531 12.347656 "/>
</svg>
