<?xml version="1.0" encoding="UTF-8"?>
<svg xmlns="http://www.w3.org/2000/svg" xmlns:xlink="http://www.w3.org/1999/xlink" width="12.508085" height="16" viewBox="0 0 12.508085 16">
<path fill-rule="nonzero" fill="rgb(100%, 100%, 100%)" fill-opacity="1" stroke-width="12" stroke-linecap="round" stroke-linejoin="round" stroke="rgb(0%, 0%, 0%)" stroke-opacity="1" stroke-miterlimit="4" d="M 6.033353 -96.956579 L 211.099549 -96.956579 L 211.099549 168.646515 L 6.033353 168.646515 Z M 6.033353 -96.956579 " transform="matrix(0.0576224, 0, 0, 0.0576224, 0, 5.934527)"/>
<path fill-rule="nonzero" fill="rgb(0%, 0%, 0%)" fill-opacity="1" d="M 3.285156 2.828125 L 1.820312 4.269531 L 1.820312 6.003906 L 3.1875 4.617188 L 3.1875 13.199219 L 4.476562 13.199219 L 4.476562 2.828125 Z M 3.285156 2.828125 "/>
<path fill-rule="nonzero" fill="rgb(0%, 0%, 0%)" fill-opacity="1" d="M 10.554688 13.191406 L 6.195312 13.191406 L 6.195312 11.886719 L 9.027344 6.476562 C 9.152344 6.230469 9.3125 5.972656 9.3125 5.710938 L 9.3125 4.964844 C 9.3125 4.414062 8.894531 4.066406 8.359375 4.074219 C 7.929688 4.082031 7.453125 4.398438 7.453125 4.953125 L 7.453125 5.792969 L 6.167969 5.792969 L 6.167969 5.042969 C 6.167969 3.625 7.109375 2.734375 8.402344 2.734375 C 9.601562 2.734375 10.597656 3.585938 10.597656 4.996094 L 10.597656 5.882812 C 10.597656 6.324219 10.328125 6.769531 10.125 7.160156 L 7.648438 11.894531 L 10.554688 11.894531 L 10.554688 13.191406 "/>
</svg>
