<?xml version="1.0" encoding="UTF-8"?>
<svg xmlns="http://www.w3.org/2000/svg" xmlns:xlink="http://www.w3.org/1999/xlink" width="11.72633" height="15" viewBox="0 0 11.72633 15">
<path fill-rule="nonzero" fill="rgb(100%, 100%, 100%)" fill-opacity="1" stroke-width="12" stroke-linecap="round" stroke-linejoin="round" stroke="rgb(0%, 0%, 0%)" stroke-opacity="1" stroke-miterlimit="4" d="M 6.001722 -96.988291 L 211.072596 -96.988291 L 211.072596 168.678279 L 6.001722 168.678279 Z M 6.001722 -96.988291 " transform="matrix(0.054021, 0, 0, 0.054021, 0, 5.563619)"/>
<path fill-rule="nonzero" fill="rgb(0%, 0%, 0%)" fill-opacity="1" d="M 3.078125 2.652344 L 1.707031 4.003906 L 1.707031 5.628906 L 2.988281 4.328125 L 2.988281 12.375 L 4.195312 12.375 L 4.195312 2.652344 Z M 3.078125 2.652344 "/>
<path fill-rule="nonzero" fill="rgb(0%, 0%, 0%)" fill-opacity="1" d="M 9.878906 8.011719 L 9.878906 10.53125 C 9.890625 11.550781 9.03125 12.453125 7.957031 12.453125 C 6.832031 12.453125 6.03125 11.539062 6.03125 10.53125 L 6.03125 9.953125 L 7.238281 9.953125 L 7.238281 10.53125 C 7.238281 10.941406 7.566406 11.246094 7.949219 11.246094 C 8.359375 11.246094 8.671875 10.921875 8.671875 10.53125 L 8.671875 8.050781 C 8.671875 7.636719 8.324219 7.339844 7.953125 7.339844 C 7.660156 7.339844 7.347656 7.507812 7.238281 7.851562 L 6.035156 7.851562 L 6.035156 2.652344 L 9.878906 2.652344 L 9.878906 3.855469 L 7.238281 3.855469 L 7.238281 6.566406 C 7.566406 6.273438 7.910156 6.179688 8.351562 6.179688 C 9.363281 6.179688 9.878906 7.089844 9.878906 8.011719 Z M 9.878906 8.011719 "/>
</svg>
