<?xml version="1.0" encoding="UTF-8"?>
<svg xmlns="http://www.w3.org/2000/svg" xmlns:xlink="http://www.w3.org/1999/xlink" width="12.508085" height="16" viewBox="0 0 12.508085 16">
<path fill-rule="nonzero" fill="rgb(100%, 100%, 100%)" fill-opacity="1" stroke-width="12" stroke-linecap="round" stroke-linejoin="round" stroke="rgb(0%, 0%, 0%)" stroke-opacity="1" stroke-miterlimit="4" d="M 6.033352 -96.956578 L 211.099543 -96.956578 L 211.099543 168.646508 L 6.033352 168.646508 Z M 6.033352 -96.956578 " transform="matrix(0.0576224, 0, 0, 0.0576224, 0, 5.934527)"/>
<path fill-rule="nonzero" fill="rgb(0%, 0%, 0%)" fill-opacity="1" d="M 4.152344 2.648438 C 3.050781 2.660156 1.949219 3.410156 1.949219 4.882812 L 1.9375 4.882812 L 1.9375 10.992188 L 1.949219 10.992188 C 1.976562 13.976562 6.351562 13.941406 6.355469 10.992188 L 6.367188 10.992188 L 6.367188 4.882812 L 6.355469 4.882812 C 6.351562 3.382812 5.253906 2.644531 4.152344 2.648438 Z M 4.148438 3.980469 C 4.613281 3.976562 5.078125 4.269531 5.082031 4.882812 L 5.078125 4.882812 L 5.078125 10.992188 L 5.082031 10.992188 C 5.082031 12.191406 3.222656 12.191406 3.222656 10.960938 L 3.222656 4.882812 C 3.222656 4.289062 3.683594 3.984375 4.148438 3.980469 Z M 4.148438 3.980469 "/>
<path fill-rule="nonzero" fill="rgb(0%, 0%, 0%)" fill-opacity="1" d="M 10.296875 6.625 L 10.296875 8.398438 C 10.304688 9.117188 9.699219 9.753906 8.941406 9.753906 C 8.152344 9.753906 7.585938 9.109375 7.585938 8.398438 L 7.585938 7.996094 L 8.4375 7.996094 L 8.4375 8.398438 C 8.4375 8.6875 8.671875 8.902344 8.9375 8.902344 C 9.226562 8.902344 9.445312 8.675781 9.445312 8.398438 L 9.445312 6.660156 C 9.445312 6.363281 9.203125 6.152344 8.941406 6.152344 C 8.738281 6.152344 8.515625 6.273438 8.4375 6.511719 L 7.589844 6.511719 L 7.589844 2.855469 L 10.296875 2.855469 L 10.296875 3.703125 L 8.4375 3.703125 L 8.4375 5.609375 C 8.667969 5.402344 8.914062 5.335938 9.226562 5.335938 C 9.933594 5.335938 10.296875 5.980469 10.296875 6.625 Z M 10.296875 6.625 "/>
</svg>
