<?xml version="1.0" encoding="UTF-8"?>
<svg xmlns="http://www.w3.org/2000/svg" xmlns:xlink="http://www.w3.org/1999/xlink" width="12.508085" height="16" viewBox="0 0 12.508085 16">
<path fill-rule="nonzero" fill="rgb(100%, 100%, 100%)" fill-opacity="1" stroke-width="12" stroke-linecap="round" stroke-linejoin="round" stroke="rgb(0%, 0%, 0%)" stroke-opacity="1" stroke-miterlimit="4" d="M 6.033352 -96.956578 L 211.099543 -96.956578 L 211.099543 168.646508 L 6.033352 168.646508 Z M 6.033352 -96.956578 " transform="matrix(0.0576224, 0, 0, 0.0576224, 0, 5.934527)"/>
<path fill-rule="nonzero" fill="rgb(0%, 0%, 0%)" fill-opacity="1" d="M 4.777344 2.828125 L 3.316406 4.269531 L 3.316406 6.003906 L 4.6875 4.617188 L 4.6875 13.199219 L 5.972656 13.199219 L 5.972656 2.828125 Z M 4.777344 2.828125 "/>
<path fill-rule="nonzero" fill="rgb(0%, 0%, 0%)" fill-opacity="1" d="M 10.191406 5.816406 L 10.191406 7.222656 C 10.195312 7.792969 9.722656 8.292969 9.121094 8.292969 C 8.492188 8.292969 8.046875 7.785156 8.046875 7.222656 L 8.046875 6.898438 L 8.714844 6.898438 L 8.714844 7.222656 C 8.714844 7.449219 8.902344 7.621094 9.113281 7.621094 C 9.339844 7.621094 9.515625 7.4375 9.515625 7.222656 L 9.515625 5.835938 C 9.515625 5.609375 9.324219 5.441406 9.117188 5.441406 C 8.953125 5.441406 8.777344 5.539062 8.714844 5.726562 L 8.050781 5.726562 L 8.050781 2.828125 L 10.191406 2.828125 L 10.191406 3.5 L 8.714844 3.5 L 8.714844 5.007812 C 8.898438 4.847656 9.089844 4.796875 9.339844 4.796875 C 9.902344 4.796875 10.191406 5.300781 10.191406 5.816406 Z M 10.191406 5.816406 "/>
</svg>
