<?xml version="1.0" encoding="UTF-8"?>
<svg xmlns="http://www.w3.org/2000/svg" xmlns:xlink="http://www.w3.org/1999/xlink" width="12.508085" height="16" viewBox="0 0 12.508085 16">
<path fill-rule="nonzero" fill="rgb(100%, 100%, 100%)" fill-opacity="1" stroke-width="12" stroke-linecap="round" stroke-linejoin="round" stroke="rgb(0%, 0%, 0%)" stroke-opacity="1" stroke-miterlimit="4" d="M 6.033352 -96.956578 L 211.099543 -96.956578 L 211.099543 168.646508 L 6.033352 168.646508 Z M 6.033352 -96.956578 " transform="matrix(0.0576224, 0, 0, 0.0576224, 0, 5.934527)"/>
<path fill-rule="nonzero" fill="rgb(0%, 0%, 0%)" fill-opacity="1" d="M 3.160156 2.828125 L 1.695312 4.269531 L 1.695312 6.003906 L 3.066406 4.617188 L 3.066406 13.199219 L 4.351562 13.199219 L 4.351562 2.828125 Z M 3.160156 2.828125 "/>
<path fill-rule="nonzero" fill="rgb(0%, 0%, 0%)" fill-opacity="1" d="M 8.359375 2.828125 C 7.207031 2.828125 6.296875 3.789062 6.308594 4.878906 L 6.308594 11.234375 C 6.308594 12.308594 7.164062 13.285156 8.363281 13.285156 C 9.511719 13.285156 10.425781 12.320312 10.414062 11.234375 L 10.414062 8.546875 C 10.414062 7.5625 9.867188 6.589844 8.789062 6.589844 C 8.316406 6.589844 7.945312 6.691406 7.597656 7.003906 L 7.597656 4.835938 C 7.617188 4.441406 7.945312 4.117188 8.367188 4.117188 C 8.773438 4.117188 9.125 4.441406 9.125 4.878906 L 9.125 5.496094 L 10.414062 5.496094 L 10.414062 4.878906 C 10.414062 3.804688 9.558594 2.828125 8.359375 2.828125 Z M 8.363281 7.824219 C 8.757812 7.824219 9.128906 8.144531 9.128906 8.589844 L 9.128906 11.234375 C 9.128906 11.648438 8.792969 11.996094 8.355469 11.996094 C 7.949219 11.996094 7.597656 11.671875 7.597656 11.234375 L 7.597656 8.589844 C 7.597656 8.136719 7.992188 7.824219 8.363281 7.824219 Z M 8.363281 7.824219 "/>
</svg>
