<?xml version="1.0" encoding="UTF-8"?>
<svg xmlns="http://www.w3.org/2000/svg" xmlns:xlink="http://www.w3.org/1999/xlink" width="11.72633" height="15" viewBox="0 0 11.72633 15">
<path fill-rule="nonzero" fill="rgb(100%, 100%, 100%)" fill-opacity="1" stroke-width="12" stroke-linecap="round" stroke-linejoin="round" stroke="rgb(0%, 0%, 0%)" stroke-opacity="1" stroke-miterlimit="4" d="M 6.001722 -96.988291 L 211.072596 -96.988291 L 211.072596 168.678279 L 6.001722 168.678279 Z M 6.001722 -96.988291 " transform="matrix(0.054021, 0, 0, 0.054021, 0, 5.563619)"/>
<path fill-rule="nonzero" fill="rgb(0%, 0%, 0%)" fill-opacity="1" d="M 5.816406 2.304688 C 4.691406 2.304688 3.570312 3.492188 3.570312 4.621094 L 3.570312 10.703125 C 3.570312 11.46875 4.242188 12.675781 5.777344 12.675781 C 7.019531 12.675781 7.984375 11.550781 7.984375 10.703125 L 7.984375 7.8125 C 7.984375 5.765625 5.820312 5.71875 5.0625 6.011719 L 5.0625 4.480469 C 5.0625 3.664062 6.726562 3.691406 6.726562 4.480469 L 8.0625 4.480469 C 8.0625 3.492188 6.941406 2.304688 5.816406 2.304688 Z M 5.734375 7.402344 C 6.117188 7.386719 6.523438 7.582031 6.523438 7.980469 L 6.523438 10.332031 C 6.523438 11.371094 5.078125 11.433594 5.078125 10.332031 L 5.078125 7.960938 C 5.078125 7.601562 5.394531 7.417969 5.734375 7.402344 Z M 5.734375 7.402344 "/>
</svg>
