<?xml version="1.0" encoding="UTF-8"?>
<svg xmlns="http://www.w3.org/2000/svg" xmlns:xlink="http://www.w3.org/1999/xlink" width="12.508085" height="16" viewBox="0 0 12.508085 16">
<path fill-rule="nonzero" fill="rgb(100%, 100%, 100%)" fill-opacity="1" stroke-width="12" stroke-linecap="round" stroke-linejoin="round" stroke="rgb(0%, 0%, 0%)" stroke-opacity="1" stroke-miterlimit="4" d="M 6.033352 -96.956578 L 211.099543 -96.956578 L 211.099543 168.646508 L 6.033352 168.646508 Z M 6.033352 -96.956578 " transform="matrix(0.0576224, 0, 0, 0.0576224, 0, 5.934527)"/>
<path fill-rule="nonzero" fill="rgb(0%, 0%, 0%)" fill-opacity="1" d="M 8.535156 2.648438 C 7.429688 2.660156 6.328125 3.410156 6.328125 4.882812 L 6.316406 4.882812 L 6.316406 10.992188 L 6.328125 10.992188 C 6.355469 13.976562 10.734375 13.941406 10.734375 10.992188 L 10.746094 10.992188 L 10.746094 4.882812 L 10.734375 4.882812 C 10.730469 3.382812 9.632812 2.644531 8.535156 2.648438 Z M 8.527344 3.980469 C 8.992188 3.976562 9.457031 4.269531 9.460938 4.882812 L 9.457031 4.882812 L 9.457031 10.992188 L 9.460938 10.992188 C 9.460938 12.191406 7.601562 12.191406 7.601562 10.960938 L 7.601562 4.882812 C 7.601562 4.289062 8.0625 3.984375 8.527344 3.980469 Z M 8.527344 3.980469 "/>
<path fill-rule="nonzero" fill="rgb(0%, 0%, 0%)" fill-opacity="1" d="M 3.355469 2.625 L 1.960938 3.996094 L 1.960938 6.144531 L 3.332031 4.757812 L 3.332031 12.996094 L 4.816406 12.996094 L 4.816406 2.625 Z M 3.355469 2.625 "/>
</svg>
