<?xml version="1.0" encoding="UTF-8"?>
<svg xmlns="http://www.w3.org/2000/svg" xmlns:xlink="http://www.w3.org/1999/xlink" width="12.508085" height="16" viewBox="0 0 12.508085 16">
<path fill-rule="nonzero" fill="rgb(100%, 100%, 100%)" fill-opacity="1" stroke-width="12" stroke-linecap="round" stroke-linejoin="round" stroke="rgb(0%, 0%, 0%)" stroke-opacity="1" stroke-miterlimit="4" d="M 6.033352 -96.956578 L 211.099543 -96.956578 L 211.099543 168.646508 L 6.033352 168.646508 Z M 6.033352 -96.956578 " transform="matrix(0.0576224, 0, 0, 0.0576224, 0, 5.934527)"/>
<path fill-rule="nonzero" fill="rgb(0%, 0%, 0%)" fill-opacity="1" d="M 3.285156 2.828125 L 1.820312 4.269531 L 1.820312 6.003906 L 3.1875 4.617188 L 3.1875 13.199219 L 4.476562 13.199219 L 4.476562 2.828125 Z M 3.285156 2.828125 "/>
<path fill-rule="nonzero" fill="rgb(0%, 0%, 0%)" fill-opacity="1" d="M 8.402344 2.734375 C 7.121094 2.734375 6.1875 3.597656 6.167969 4.972656 L 6.167969 6.144531 C 6.167969 6.664062 6.390625 7.273438 6.820312 7.695312 C 6.390625 8.121094 6.167969 8.707031 6.167969 9.226562 L 6.167969 11.023438 C 6.171875 12.398438 7.121094 13.257812 8.402344 13.257812 C 9.601562 13.257812 10.597656 12.417969 10.597656 11.023438 L 10.597656 9.226562 C 10.597656 8.707031 10.320312 8.035156 9.9375 7.695312 C 10.402344 7.246094 10.597656 6.648438 10.597656 6.132812 L 10.597656 4.972656 C 10.597656 3.578125 9.601562 2.734375 8.402344 2.734375 Z M 8.359375 4.0625 C 8.894531 4.054688 9.3125 4.390625 9.3125 4.941406 L 9.3125 6.109375 C 9.3125 6.578125 8.964844 7.046875 8.382812 7.050781 C 7.796875 7.050781 7.449219 6.578125 7.449219 6.109375 L 7.453125 4.929688 C 7.457031 4.382812 7.929688 4.066406 8.359375 4.0625 Z M 8.382812 8.335938 C 8.925781 8.335938 9.3125 8.773438 9.3125 9.277344 L 9.3125 11.054688 C 9.3125 11.605469 8.894531 11.941406 8.359375 11.933594 C 7.929688 11.929688 7.453125 11.613281 7.453125 11.066406 L 7.449219 9.277344 C 7.449219 8.769531 7.855469 8.335938 8.382812 8.335938 Z M 8.382812 8.335938 "/>
</svg>
