<?xml version="1.0" encoding="UTF-8"?>
<svg xmlns="http://www.w3.org/2000/svg" xmlns:xlink="http://www.w3.org/1999/xlink" width="18" height="12.700437" viewBox="0 0 18 12.700437">
<path fill-rule="nonzero" fill="rgb(100%, 100%, 100%)" fill-opacity="1" stroke-width="3" stroke-linecap="round" stroke-linejoin="round" stroke="rgb(0%, 0%, 0%)" stroke-opacity="1" stroke-miterlimit="4" d="M -14.662259 857.336301 L 150.949301 857.336301 L 150.949301 973.330257 L -14.662259 973.330257 Z M -14.662259 857.336301 " transform="matrix(0.106754, 0, 0, 0.106754, 1.72541, -91.363877)"/>
<path fill-rule="nonzero" fill="rgb(0%, 0%, 0%)" fill-opacity="1" d="M 1.699219 3.214844 L 1.699219 9.523438 L 5.675781 9.523438 L 5.675781 8.6875 L 2.535156 8.6875 L 2.535156 3.214844 Z M 1.699219 3.214844 "/>
<path fill-rule="nonzero" fill="rgb(0%, 0%, 0%)" fill-opacity="1" d="M 6.566406 3.214844 L 6.566406 4.050781 L 9.40625 4.050781 L 6.566406 8.6875 L 6.566406 9.523438 L 10.515625 9.523438 L 10.515625 8.6875 L 7.636719 8.6875 L 10.515625 4.050781 L 10.515625 3.214844 Z M 6.566406 3.214844 "/>
<path fill-rule="nonzero" fill="rgb(0%, 0%, 0%)" fill-opacity="1" d="M 11.808594 3.214844 L 11.808594 9.523438 L 14.558594 9.523438 L 14.558594 9.515625 C 16.5 9.375 16.613281 7.28125 15.519531 6.371094 C 16.613281 5.460938 16.5 3.363281 14.558594 3.226562 L 14.558594 3.214844 Z M 12.644531 4.050781 L 14.347656 4.050781 C 15.445312 4.050781 15.570312 5.949219 14.347656 5.949219 L 12.644531 5.949219 Z M 12.644531 6.785156 L 14.347656 6.785156 C 15.570312 6.785156 15.445312 8.6875 14.347656 8.6875 L 12.644531 8.6875 Z M 12.644531 6.785156 "/>
</svg>
