<?xml version="1.0" encoding="UTF-8"?>
<svg xmlns="http://www.w3.org/2000/svg" xmlns:xlink="http://www.w3.org/1999/xlink" width="21.259111" height="15" viewBox="0 0 21.259111 15">
<path fill-rule="nonzero" fill="rgb(100%, 100%, 100%)" fill-opacity="1" stroke-width="3" stroke-linecap="round" stroke-linejoin="round" stroke="rgb(0%, 0%, 0%)" stroke-opacity="1" stroke-miterlimit="4" d="M -14.675329 857.320302 L 150.951616 857.320302 L 150.951616 973.314929 L -14.675329 973.314929 Z M -14.675329 857.320302 " transform="matrix(0.126083, 0, 0, 0.126083, 2.037816, -107.90638)"/>
<path fill-rule="nonzero" fill="rgb(0%, 0%, 0%)" fill-opacity="1" d="M 2.007812 3.796875 L 2.007812 11.25 L 6.703125 11.25 L 6.703125 10.261719 L 2.992188 10.261719 L 2.992188 3.796875 Z M 2.007812 3.796875 "/>
<path fill-rule="nonzero" fill="rgb(0%, 0%, 0%)" fill-opacity="1" d="M 7.753906 3.796875 L 7.753906 4.785156 L 11.109375 4.785156 L 7.753906 10.261719 L 7.753906 11.25 L 12.417969 11.25 L 12.417969 10.261719 L 9.019531 10.261719 L 12.417969 4.785156 L 12.417969 3.796875 Z M 7.753906 3.796875 "/>
<path fill-rule="nonzero" fill="rgb(0%, 0%, 0%)" fill-opacity="1" d="M 13.945312 3.796875 L 13.945312 11.25 L 17.195312 11.25 L 17.195312 11.238281 C 19.488281 11.070312 19.621094 8.597656 18.328125 7.523438 C 19.621094 6.449219 19.488281 3.972656 17.195312 3.808594 L 17.195312 3.796875 Z M 14.933594 4.785156 L 16.945312 4.785156 C 18.242188 4.785156 18.390625 7.027344 16.945312 7.027344 L 14.933594 7.027344 Z M 14.933594 8.015625 L 16.945312 8.015625 C 18.390625 8.015625 18.242188 10.261719 16.945312 10.261719 L 14.933594 10.261719 Z M 14.933594 8.015625 "/>
</svg>
