<?xml version="1.0" encoding="UTF-8"?>
<svg xmlns="http://www.w3.org/2000/svg" xmlns:xlink="http://www.w3.org/1999/xlink" width="14.055347" height="9" viewBox="0 0 14.055347 9">
<path fill-rule="nonzero" fill="rgb(0%, 0%, 0%)" fill-opacity="1" d="M 0.253906 3.480469 L 3.484375 0.257812 C 3.703125 0.0546875 3.960938 0.00390625 4.230469 0.00390625 L 10.078125 0 C 10.289062 0 10.460938 0.152344 10.574219 0.269531 L 13.757812 3.457031 C 13.9375 3.640625 14.054688 3.871094 14.054688 4.125 L 14.054688 8.542969 C 14.054688 8.796875 13.851562 9 13.597656 9 L 0.457031 9 C 0.203125 9 0 8.796875 0 8.542969 L 0 4.125 C 0 3.871094 0.0742188 3.65625 0.253906 3.480469 Z M 0.253906 3.480469 "/>
<path fill-rule="nonzero" fill="rgb(100%, 100%, 100%)" fill-opacity="1" d="M 8.996094 2.386719 C 8.996094 2.820312 8.648438 3.171875 8.21875 3.171875 C 7.789062 3.171875 7.4375 2.820312 7.4375 2.386719 C 7.4375 1.957031 7.789062 1.609375 8.21875 1.609375 C 8.648438 1.609375 8.996094 1.957031 8.996094 2.386719 Z M 8.996094 2.386719 "/>
<path fill-rule="nonzero" fill="rgb(80.392158%, 32.549021%, 6.27451%)" fill-opacity="1" d="M 0.960938 5.070312 L 13.089844 5.070312 L 13.089844 7.285156 L 0.960938 7.285156 Z M 0.960938 5.070312 "/>
</svg>
