<?xml version="1.0" encoding="UTF-8"?>
<svg xmlns="http://www.w3.org/2000/svg" xmlns:xlink="http://www.w3.org/1999/xlink" width="23.425579" height="15" viewBox="0 0 23.425579 15">
<path fill-rule="nonzero" fill="rgb(0%, 0%, 0%)" fill-opacity="1" d="M 0.425781 5.800781 L 5.804688 0.433594 C 6.171875 0.0859375 6.601562 0.0078125 7.050781 0.0078125 L 16.796875 0 C 17.144531 0 17.429688 0.253906 17.625 0.449219 L 22.929688 5.765625 C 23.230469 6.0625 23.425781 6.453125 23.425781 6.878906 L 23.425781 14.238281 C 23.425781 14.660156 23.085938 15 22.664062 15 L 0.761719 15 C 0.339844 15 0 14.660156 0 14.238281 L 0 6.878906 C 0 6.453125 0.121094 6.09375 0.425781 5.800781 Z M 0.425781 5.800781 "/>
<path fill-rule="nonzero" fill="rgb(100%, 100%, 100%)" fill-opacity="1" d="M 14.996094 3.980469 C 14.996094 4.699219 14.414062 5.285156 13.695312 5.285156 C 12.976562 5.285156 12.390625 4.699219 12.394531 3.980469 C 12.390625 3.261719 12.976562 2.679688 13.695312 2.679688 C 14.414062 2.679688 14.996094 3.261719 14.996094 3.980469 Z M 14.996094 3.980469 "/>
<path fill-rule="nonzero" fill="rgb(80.392158%, 32.549021%, 6.27451%)" fill-opacity="1" d="M 1.605469 8.453125 L 21.820312 8.453125 L 21.820312 12.140625 L 1.605469 12.140625 Z M 1.605469 8.453125 "/>
</svg>
