<?xml version="1.0" encoding="UTF-8"?>
<svg xmlns="http://www.w3.org/2000/svg" xmlns:xlink="http://www.w3.org/1999/xlink" width="10.177" height="16" viewBox="0 0 10.177 16">
<path fill-rule="nonzero" fill="rgb(100%, 100%, 100%)" fill-opacity="1" stroke-width="0.831" stroke-linecap="round" stroke-linejoin="round" stroke="rgb(0%, 0%, 0%)" stroke-opacity="1" stroke-miterlimit="4" d="M 0.417969 0.4375 L 9.761719 0.4375 L 9.761719 15.542969 L 0.417969 15.542969 Z M 0.417969 0.4375 "/>
<path fill-rule="nonzero" fill="rgb(0%, 0%, 0%)" fill-opacity="1" stroke-width="0.0255919" stroke-linecap="square" stroke-linejoin="round" stroke="rgb(0%, 0%, 0%)" stroke-opacity="0.537255" stroke-miterlimit="3.8636" d="M 5.085938 5.128906 C 3.503906 5.128906 2.21875 6.417969 2.21875 8 C 2.21875 9.582031 3.503906 10.871094 5.085938 10.871094 C 6.671875 10.871094 7.957031 9.582031 7.957031 8 C 7.957031 6.417969 6.671875 5.128906 5.085938 5.128906 Z M 5.085938 5.847656 C 6.277344 5.847656 7.242188 6.8125 7.242188 8 C 7.242188 9.1875 6.277344 10.152344 5.085938 10.152344 C 3.898438 10.152344 2.9375 9.1875 2.9375 8 C 2.9375 6.8125 3.898438 5.847656 5.085938 5.847656 Z M 5.085938 5.847656 L 5.085938 5.847656 M 5.085938 5.847656 "/>
<path fill="none" stroke-width="1.662" stroke-linecap="butt" stroke-linejoin="miter" stroke="rgb(0%, 0%, 0%)" stroke-opacity="1" stroke-miterlimit="4" d="M 1.34375 0.433594 L 4.367188 5.554688 M 5.683594 5.601562 L 8.84375 0.488281 "/>
<path fill="none" stroke-width="1.662" stroke-linecap="butt" stroke-linejoin="miter" stroke="rgb(0%, 0%, 0%)" stroke-opacity="1" stroke-miterlimit="4" d="M 1.34375 15.578125 L 4.367188 10.453125 M 5.683594 10.40625 L 8.84375 15.519531 "/>
</svg>
