<?xml version="1.0" encoding="UTF-8"?>
<svg xmlns="http://www.w3.org/2000/svg" xmlns:xlink="http://www.w3.org/1999/xlink" width="9.541175" height="15" viewBox="0 0 9.541175 15">
<path fill-rule="nonzero" fill="rgb(100%, 100%, 100%)" fill-opacity="1" stroke-width="15" stroke-linecap="round" stroke-linejoin="round" stroke="rgb(0%, 0%, 0%)" stroke-opacity="1" stroke-miterlimit="4" d="M 7.520345 -112.978638 L 176.201685 -112.978638 L 176.201685 159.709074 L 7.520345 159.709074 Z M 7.520345 -112.978638 " transform="matrix(0.0519424, 0, 0, 0.0519424, 0, 6.278541)"/>
<path fill-rule="nonzero" fill="rgb(0%, 0%, 0%)" fill-opacity="1" stroke-width="0.461948" stroke-linecap="square" stroke-linejoin="round" stroke="rgb(0%, 0%, 0%)" stroke-opacity="0.537255" stroke-miterlimit="3.8636" d="M 91.823413 849.382638 C 63.246102 849.382638 40.083439 872.620504 40.083439 901.197815 C 40.083439 929.775126 63.246102 953.012992 91.823413 953.012992 C 120.475928 953.012992 143.63859 929.775126 143.63859 901.197815 C 143.63859 872.620504 120.475928 849.382638 91.823413 849.382638 Z M 91.823413 862.317631 C 113.3316 862.317631 130.703597 879.764832 130.703597 901.197815 C 130.703597 922.630798 113.3316 940.077999 91.823413 940.077999 C 70.39043 940.077999 53.018433 922.630798 53.018433 901.197815 C 53.018433 879.764832 70.39043 862.317631 91.823413 862.317631 Z M 91.823413 862.317631 " transform="matrix(0.0519424, 0, 0, 0.0519424, 0, -39.310405)"/>
<path fill="none" stroke-width="30" stroke-linecap="butt" stroke-linejoin="miter" stroke="rgb(0%, 0%, 0%)" stroke-opacity="1" stroke-miterlimit="4" d="M 24.741935 -113.053841 L 79.33964 -20.6288 M 103.103931 -19.726359 L 160.108146 -112.076196 " transform="matrix(0.0519424, 0, 0, 0.0519424, 0, 6.278541)"/>
<path fill="none" stroke-width="30" stroke-linecap="butt" stroke-linejoin="miter" stroke="rgb(0%, 0%, 0%)" stroke-opacity="1" stroke-miterlimit="4" d="M 24.741935 160.310701 L 79.33964 67.810457 M 103.103931 66.983219 L 160.108146 159.257853 " transform="matrix(0.0519424, 0, 0, 0.0519424, 0, 6.278541)"/>
</svg>
