<?xml version="1.0" encoding="UTF-8"?>
<svg xmlns="http://www.w3.org/2000/svg" xmlns:xlink="http://www.w3.org/1999/xlink" width="6" height="24" viewBox="0 0 6 24">
<rect x="-0.6" y="-2.4" width="7.2" height="28.8" fill="rgb(0%, 0%, 0%)" fill-opacity="1"/>
<path fill-rule="nonzero" fill="rgb(100%, 100%, 100%)" fill-opacity="1" d="M 0.148438 -0.5 L 5.851562 -0.5 L 5.851562 0.03125 L 0.148438 3.320312 Z M 0.148438 -0.5 "/>
<path fill-rule="nonzero" fill="rgb(100%, 100%, 100%)" fill-opacity="1" d="M 0.148438 14.6875 L 0.148438 17.285156 L 5.851562 13.996094 L 5.851562 11.398438 Z M 0.148438 14.6875 "/>
<path fill-rule="nonzero" fill="rgb(100%, 100%, 100%)" fill-opacity="1" d="M 0.148438 10 L 0.148438 12.601562 L 5.851562 9.3125 L 5.851562 6.714844 Z M 0.148438 10 "/>
<path fill-rule="nonzero" fill="rgb(100%, 100%, 100%)" fill-opacity="1" d="M 0.148438 5.328125 L 0.148438 7.925781 L 5.851562 4.640625 L 5.851562 2.039062 Z M 0.148438 5.328125 "/>
<path fill-rule="nonzero" fill="rgb(100%, 100%, 100%)" fill-opacity="1" d="M 5.851562 24.582031 L 0.148438 24.582031 L 0.148438 24.050781 L 5.851562 20.761719 Z M 5.851562 24.582031 "/>
<path fill-rule="nonzero" fill="rgb(100%, 100%, 100%)" fill-opacity="1" d="M 0.148438 19.371094 L 0.148438 21.96875 L 5.851562 18.679688 L 5.851562 16.082031 Z M 0.148438 19.371094 "/>
</svg>
