<?xml version="1.0" encoding="UTF-8"?>
<svg xmlns="http://www.w3.org/2000/svg" xmlns:xlink="http://www.w3.org/1999/xlink" width="8.438416" height="15" viewBox="0 0 8.438416 15">
<path fill-rule="nonzero" fill="rgb(41.568628%, 41.568628%, 41.568628%)" fill-opacity="1" d="M 3.359375 2.847656 L 5.078125 2.847656 L 5.078125 5.269531 L 3.359375 5.269531 Z M 3.359375 2.847656 "/>
<path fill-rule="nonzero" fill="rgb(0%, 0%, 0%)" fill-opacity="1" d="M 0.496094 4.65625 L 7.554688 4.65625 L 7.554688 14.949219 L 0.496094 14.949219 Z M 0.496094 4.65625 "/>
<path fill-rule="nonzero" fill="rgb(100%, 100%, 100%)" fill-opacity="1" d="M 1.710938 6.273438 L 1.710938 13.570312 L 2.871094 13.570312 L 2.871094 10.453125 L 4.453125 10.453125 C 7.082031 10.449219 7.175781 6.277344 4.453125 6.273438 Z M 4.453125 7.429688 C 5.554688 7.433594 5.570312 9.292969 4.453125 9.296875 C 4.453125 9.296875 4.449219 9.296875 4.449219 9.296875 L 2.871094 9.296875 L 2.871094 7.429688 Z M 4.453125 7.429688 "/>
<path fill-rule="nonzero" fill="rgb(100%, 100%, 100%)" fill-opacity="1" stroke-width="1.8" stroke-linecap="round" stroke-linejoin="round" stroke="rgb(0%, 0%, 0%)" stroke-opacity="1" stroke-miterlimit="4" d="M 0.867094 0.939352 L 155.209782 0.939352 L 155.209782 58.890117 L 0.867094 58.890117 Z M 0.867094 0.939352 " transform="matrix(0.0540599, 0, 0, 0.0540599, 0, 0)"/>
<path fill-rule="nonzero" fill="rgb(2.352941%, 0%, 0%)" fill-opacity="1" d="M 1.085938 0.0507812 L 1.085938 3.179688 L 2.144531 3.179688 L 2.144531 0.0507812 Z M 1.085938 0.0507812 "/>
<path fill-rule="nonzero" fill="rgb(2.352941%, 0%, 0%)" fill-opacity="1" d="M 6.316406 0.0507812 L 6.316406 3.179688 L 7.328125 3.179688 L 7.328125 0.0507812 Z M 6.316406 0.0507812 "/>
</svg>
