<?xml version="1.0" encoding="UTF-8"?>
<svg xmlns="http://www.w3.org/2000/svg" xmlns:xlink="http://www.w3.org/1999/xlink" width="12" height="21.330624" viewBox="0 0 12 21.330624">
<path fill-rule="nonzero" fill="rgb(41.568627%, 41.568627%, 41.568627%)" fill-opacity="1" d="M 4.777344 4.046875 L 7.222656 4.046875 L 7.222656 7.492188 L 4.777344 7.492188 Z M 4.777344 4.046875 "/>
<path fill-rule="nonzero" fill="rgb(0%, 0%, 0%)" fill-opacity="1" d="M 0.707031 6.621094 L 10.742188 6.621094 L 10.742188 21.253906 L 0.707031 21.253906 Z M 0.707031 6.621094 "/>
<path fill-rule="nonzero" fill="rgb(100%, 100%, 100%)" fill-opacity="1" d="M 2.433594 8.917969 L 2.433594 19.292969 L 4.082031 19.292969 L 4.082031 14.863281 L 6.332031 14.863281 C 10.070312 14.855469 10.203125 8.925781 6.332031 8.917969 Z M 6.332031 10.5625 C 7.898438 10.570312 7.921875 13.210938 6.332031 13.21875 C 6.332031 13.21875 6.328125 13.21875 6.328125 13.21875 L 4.082031 13.21875 L 4.082031 10.5625 Z M 6.332031 10.5625 "/>
<path fill-rule="nonzero" fill="rgb(100%, 100%, 100%)" fill-opacity="1" stroke-width="0.136211" stroke-linecap="round" stroke-linejoin="round" stroke="rgb(0%, 0%, 0%)" stroke-opacity="1" stroke-miterlimit="4" d="M 0.065377 0.0692218 L 11.744778 0.0692218 L 11.744778 4.457169 L 0.065377 4.457169 Z M 0.065377 0.0692218 " transform="matrix(1.015744, 0, 0, 1.015744, 0, 0.000000860947)"/>
<path fill-rule="nonzero" fill="rgb(2.352941%, 0%, 0%)" fill-opacity="1" d="M 1.542969 0.0703125 L 1.542969 4.519531 L 3.050781 4.519531 L 3.050781 0.0703125 Z M 1.542969 0.0703125 "/>
<path fill-rule="nonzero" fill="rgb(2.352941%, 0%, 0%)" fill-opacity="1" d="M 8.980469 0.0703125 L 8.980469 4.519531 L 10.421875 4.519531 L 10.421875 0.0703125 Z M 8.980469 0.0703125 "/>
</svg>
