<?xml version="1.0" encoding="UTF-8"?>
<svg xmlns="http://www.w3.org/2000/svg" xmlns:xlink="http://www.w3.org/1999/xlink" width="8" height="23.471882" viewBox="0 0 8 23.471882">
<path fill-rule="nonzero" fill="rgb(100%, 100%, 100%)" fill-opacity="1" stroke-width="0.147829" stroke-linecap="round" stroke-linejoin="round" stroke="rgb(0%, 0%, 0%)" stroke-opacity="1" stroke-miterlimit="4" d="M 0.0758887 0.0758887 L 8.108106 0.0758887 L 8.108106 11.790704 L 0.0758887 11.790704 Z M 0.0758887 0.0758887 " transform="matrix(0.977995, 0, 0, 0.977995, 0, 0)"/>
<path fill-rule="nonzero" fill="rgb(0%, 0%, 0%)" fill-opacity="1" d="M 1.449219 1.898438 L 1.449219 10.140625 L 2.753906 10.140625 L 2.753906 6.621094 L 4.542969 6.621094 L 4.542969 6.617188 C 7.511719 6.613281 7.617188 1.902344 4.542969 1.898438 Z M 4.542969 3.203125 C 5.785156 3.210938 5.804688 5.308594 4.542969 5.3125 C 4.539062 5.3125 4.539062 5.3125 4.539062 5.3125 L 2.753906 5.3125 L 2.753906 3.207031 L 4.542969 3.207031 Z M 4.542969 3.203125 "/>
<path fill-rule="nonzero" fill="rgb(100%, 100%, 100%)" fill-opacity="1" stroke-width="0.147829" stroke-linecap="round" stroke-linejoin="round" stroke="rgb(0%, 0%, 0%)" stroke-opacity="1" stroke-miterlimit="4" d="M 0.0758887 12.210088 L 8.108106 12.210088 L 8.108106 23.924903 L 0.0758887 23.924903 Z M 0.0758887 12.210088 " transform="matrix(0.977995, 0, 0, 0.977995, 0, 0)"/>
<path fill-rule="nonzero" fill="rgb(0%, 0%, 0%)" fill-opacity="1" d="M 1.449219 13.765625 L 1.449219 22.011719 L 2.753906 22.011719 L 2.753906 18.488281 L 4.542969 18.488281 L 4.542969 18.484375 C 7.511719 18.484375 7.617188 13.769531 4.542969 13.765625 Z M 4.542969 15.074219 C 5.785156 15.078125 5.804688 17.175781 4.542969 17.179688 C 4.539062 17.179688 4.539062 17.179688 4.539062 17.179688 L 2.753906 17.179688 L 2.753906 15.078125 L 4.542969 15.078125 Z M 4.542969 15.074219 "/>
</svg>
