<?xml version="1.0" encoding="UTF-8"?>
<svg xmlns="http://www.w3.org/2000/svg" xmlns:xlink="http://www.w3.org/1999/xlink" width="16" height="11.716247" viewBox="0 0 16 11.716247">
<path fill-rule="nonzero" fill="rgb(100%, 100%, 100%)" fill-opacity="1" stroke-width="0.15" stroke-linecap="butt" stroke-linejoin="miter" stroke="rgb(0%, 0%, 0%)" stroke-opacity="1" stroke-miterlimit="4" d="M 0.0746826 0.0746826 L 10.925 0.0746826 L 10.925 15.923401 L 0.0746826 15.923401 Z M 0.0746826 0.0746826 " transform="matrix(0.732265, 0, 0, 0.732265, 0, 0)"/>
<path fill-rule="nonzero" fill="rgb(0%, 0%, 0%)" fill-opacity="1" d="M 1.429688 1.464844 L 1.429688 10.105469 L 6.480469 10.105469 L 6.480469 8.789062 L 2.746094 8.789062 L 2.746094 6.445312 L 5.820312 6.445312 L 5.820312 5.125 L 2.746094 5.125 L 2.746094 2.78125 L 6.480469 2.78125 L 6.480469 1.464844 Z M 1.429688 1.464844 "/>
<path fill-rule="nonzero" fill="rgb(100%, 100%, 100%)" fill-opacity="1" stroke-width="0.15" stroke-linecap="butt" stroke-linejoin="miter" stroke="rgb(0%, 0%, 0%)" stroke-opacity="1" stroke-miterlimit="4" d="M 10.925 0.0746826 L 21.775318 0.0746826 L 21.775318 15.923401 L 10.925 15.923401 Z M 10.925 0.0746826 " transform="matrix(0.732265, 0, 0, 0.732265, 0, 0)"/>
<path fill-rule="nonzero" fill="rgb(0%, 0%, 0%)" fill-opacity="1" d="M 9.371094 1.464844 L 9.371094 10.105469 L 14.425781 10.105469 L 14.425781 8.789062 L 10.691406 8.789062 L 10.691406 6.445312 L 13.765625 6.445312 L 13.765625 5.125 L 10.691406 5.125 L 10.691406 2.78125 L 14.425781 2.78125 L 14.425781 1.464844 Z M 9.371094 1.464844 "/>
</svg>
