<?xml version="1.0" encoding="UTF-8"?>
<svg xmlns="http://www.w3.org/2000/svg" xmlns:xlink="http://www.w3.org/1999/xlink" width="13.65439" height="15" viewBox="0 0 13.65439 15">
<path fill-rule="evenodd" fill="rgb(0%, 0%, 0%)" fill-opacity="1" d="M 10.675781 3.578125 L 11.398438 2.324219 L 11.398438 0 L 13.65625 0 L 13.65625 2.640625 L 13.042969 3.671875 Z M 10.675781 3.578125 "/>
<path fill-rule="evenodd" fill="rgb(0%, 0%, 0%)" fill-opacity="1" d="M 6.484375 9.261719 L 6.484375 9.449219 L 5.039062 11.949219 L 5.039062 15 L 6.539062 14.992188 L 8.035156 15 L 8.035156 11.949219 L 6.589844 9.449219 L 6.589844 9.261719 L 6.539062 9.355469 Z M 6.484375 9.261719 "/>
<path fill-rule="evenodd" fill="rgb(87.843138%, 45.09804%, 18.431373%)" fill-opacity="1" stroke-width="4" stroke-linecap="butt" stroke-linejoin="miter" stroke="rgb(0%, 0%, 0%)" stroke-opacity="1" stroke-miterlimit="4" d="M 91.841616 136.536977 L 146.251423 42.333593 L 111.181383 42.333593 L 88.677736 81.235936 L 74.863617 55.880342 L 61.004935 81.235936 L 38.54585 42.333593 L 3.475811 42.333593 L 57.885618 136.536977 L 74.863617 105.566612 Z M 91.841616 136.536977 " transform="matrix(0.0876594, 0, 0, 0.0876594, 0, 0)"/>
<path fill-rule="nonzero" fill="rgb(100%, 100%, 100%)" fill-opacity="1" d="M 13.28125 1.199219 C 13.28125 1.621094 12.9375 1.964844 12.511719 1.964844 C 12.089844 1.964844 11.746094 1.621094 11.746094 1.199219 C 11.746094 0.773438 12.089844 0.429688 12.511719 0.429688 C 12.9375 0.429688 13.28125 0.773438 13.28125 1.199219 Z M 13.28125 1.199219 "/>
<path fill-rule="nonzero" fill="rgb(100%, 100%, 100%)" fill-opacity="1" d="M 7.328125 13.277344 C 7.328125 13.703125 6.984375 14.046875 6.5625 14.046875 C 6.136719 14.046875 5.792969 13.703125 5.792969 13.277344 C 5.792969 12.851562 6.136719 12.507812 6.5625 12.507812 C 6.984375 12.507812 7.328125 12.851562 7.328125 13.277344 Z M 7.328125 13.277344 "/>
</svg>
