<?xml version="1.0" encoding="UTF-8"?>
<svg xmlns="http://www.w3.org/2000/svg" xmlns:xlink="http://www.w3.org/1999/xlink" width="16" height="16" viewBox="0 0 16 16">
<path fill-rule="evenodd" fill="rgb(100%, 100%, 100%)" fill-opacity="1" stroke-width="0.303727" stroke-linecap="butt" stroke-linejoin="miter" stroke="rgb(0%, 0%, 0%)" stroke-opacity="1" stroke-miterlimit="4" d="M 17.237491 9.388931 C 17.237491 13.725811 13.725811 17.237491 9.388931 17.237491 C 5.052052 17.237491 1.540372 13.725811 1.540372 9.388931 C 1.540372 5.052052 5.052052 1.540372 9.388931 1.540372 C 13.725811 1.540372 17.237491 5.052052 17.237491 9.388931 Z M 17.237491 9.388931 " transform="matrix(0.852067, 0, 0, 0.852067, 0, 0)"/>
<path fill-rule="evenodd" fill="rgb(0%, 0%, 0%)" fill-opacity="1" stroke-width="1.64854" stroke-linecap="butt" stroke-linejoin="miter" stroke="rgb(0%, 0%, 0%)" stroke-opacity="1" stroke-miterlimit="4" d="M 15.797977 9.388931 C 15.797977 12.928118 12.928118 15.797977 9.388931 15.797977 C 5.849744 15.797977 2.979885 12.928118 2.979885 9.388931 C 2.979885 5.849744 5.849744 2.979885 9.388931 2.979885 C 12.928118 2.979885 15.797977 5.849744 15.797977 9.388931 Z M 15.797977 9.388931 " transform="matrix(0.852067, 0, 0, 0.852067, 0, 0)"/>
<path fill="none" stroke-width="0.761731" stroke-linecap="round" stroke-linejoin="miter" stroke="rgb(0%, 0%, 0%)" stroke-opacity="1" stroke-miterlimit="4" d="M -11.362116 12.120671 L 11.362116 12.120671 L 11.362116 14.435237 L -11.362116 14.435237 Z M -11.362116 12.120671 " transform="matrix(0.602502, -0.602502, 0.602502, 0.602502, 0, 0)"/>
<path fill-rule="nonzero" fill="rgb(100%, 100%, 100%)" fill-opacity="1" d="M 0.457031 14.148438 L 14.148438 0.457031 L 15.542969 1.851562 L 1.851562 15.542969 Z M 0.457031 14.148438 "/>
</svg>
