<?xml version="1.0" encoding="UTF-8"?>
<svg xmlns="http://www.w3.org/2000/svg" xmlns:xlink="http://www.w3.org/1999/xlink" width="11.830019" height="11" viewBox="0 0 11.830019 11">
<path fill-rule="nonzero" fill="rgb(0%, 0%, 0%)" fill-opacity="1" stroke-width="0.1" stroke-linecap="round" stroke-linejoin="round" stroke="rgb(100%, 100%, 100%)" stroke-opacity="1" stroke-miterlimit="4" d="M 0.0814764 0.0814764 L 0.0814764 114.637274 L 123.314509 114.637274 L 123.314509 0.0814764 Z M 62.085005 11.284479 C 86.813088 11.284479 106.856279 31.32767 106.856279 56.055753 C 106.856279 80.783836 86.813088 100.827026 62.085005 100.827026 C 37.356922 100.827026 17.313732 80.783836 17.313732 56.055753 C 17.313732 31.32767 37.356922 11.284479 62.085005 11.284479 Z M 62.085005 11.284479 " transform="matrix(0.0958867, 0, 0, 0.0958867, 0, 0)"/>
<path fill-rule="nonzero" fill="rgb(100%, 100%, 100%)" fill-opacity="1" d="M 10.25 5.375 C 10.25 7.746094 8.328125 9.667969 5.957031 9.667969 C 3.582031 9.667969 1.660156 7.746094 1.660156 5.375 C 1.660156 3.003906 3.582031 1.082031 5.957031 1.082031 C 8.328125 1.082031 10.25 3.003906 10.25 5.375 Z M 10.25 5.375 "/>
<path fill-rule="nonzero" fill="rgb(100%, 100%, 100%)" fill-opacity="0.545098" d="M 10.25 5.375 C 10.25 7.746094 8.328125 9.667969 5.957031 9.667969 C 3.582031 9.667969 1.660156 7.746094 1.660156 5.375 C 1.660156 3.003906 3.582031 1.082031 5.957031 1.082031 C 8.328125 1.082031 10.25 3.003906 10.25 5.375 Z M 10.25 5.375 "/>
<path fill-rule="nonzero" fill="rgb(0%, 0%, 0%)" fill-opacity="1" d="M 1 4.277344 L 10.800781 4.277344 L 10.800781 6.542969 L 1 6.542969 Z M 1 4.277344 "/>
</svg>
