<?xml version="1.0" encoding="UTF-8"?>
<svg xmlns="http://www.w3.org/2000/svg" xmlns:xlink="http://www.w3.org/1999/xlink" width="12.493642" height="8" viewBox="0 0 12.493642 8">
<path fill-rule="nonzero" fill="rgb(0%, 0%, 0%)" fill-opacity="1" d="M 0.226562 3.09375 L 3.097656 0.230469 C 3.292969 0.0429688 3.519531 0.00390625 3.757812 0.00390625 L 8.957031 0 C 9.144531 0 9.296875 0.136719 9.398438 0.238281 L 12.230469 3.074219 C 12.390625 3.234375 12.492188 3.441406 12.492188 3.667969 L 12.492188 7.59375 C 12.492188 7.820312 12.3125 8 12.085938 8 L 0.40625 8 C 0.179688 8 0 7.820312 0 7.59375 L 0 3.667969 C 0 3.441406 0.0664062 3.25 0.226562 3.09375 Z M 0.226562 3.09375 "/>
<path fill-rule="nonzero" fill="rgb(100%, 0%, 0%)" fill-opacity="1" d="M 9.730469 2.386719 C 9.730469 3.117188 9.140625 3.707031 8.410156 3.707031 C 7.683594 3.707031 7.089844 3.117188 7.089844 2.386719 C 7.089844 1.660156 7.683594 1.066406 8.410156 1.066406 C 9.140625 1.066406 9.730469 1.660156 9.730469 2.386719 Z M 9.730469 2.386719 "/>
</svg>
