<?xml version="1.0" encoding="UTF-8"?>
<svg xmlns="http://www.w3.org/2000/svg" xmlns:xlink="http://www.w3.org/1999/xlink" width="12" height="7.68464" viewBox="0 0 12 7.68464">
<path fill-rule="nonzero" fill="rgb(0%, 0%, 0%)" fill-opacity="1" d="M 0.21875 2.972656 L 2.976562 0.21875 C 3.164062 0.0429688 3.382812 0.00390625 3.609375 0.00390625 L 8.601562 0 C 8.78125 0 8.929688 0.132812 9.027344 0.230469 L 11.746094 2.949219 C 11.898438 3.105469 12 3.304688 12 3.519531 L 12 7.292969 C 12 7.507812 11.824219 7.683594 11.609375 7.683594 L 0.390625 7.683594 C 0.175781 7.683594 0 7.507812 0 7.292969 L 0 3.519531 C 0 3.304688 0.0625 3.121094 0.21875 2.972656 Z M 0.21875 2.972656 "/>
<path fill-rule="nonzero" fill="rgb(100%, 100%, 100%)" fill-opacity="1" d="M 4.148438 5.9375 C 4.148438 6.636719 3.574219 7.210938 2.871094 7.210938 C 2.167969 7.210938 1.597656 6.636719 1.597656 5.9375 C 1.597656 5.230469 2.167969 4.65625 2.871094 4.65625 C 3.574219 4.65625 4.148438 5.230469 4.148438 5.9375 Z M 4.148438 5.9375 "/>
<path fill-rule="nonzero" fill="rgb(100%, 100%, 100%)" fill-opacity="1" d="M 7.523438 2.394531 C 7.523438 3.097656 6.949219 3.667969 6.246094 3.667969 C 5.535156 3.667969 4.972656 3.097656 4.972656 2.394531 C 4.972656 1.691406 5.535156 1.117188 6.246094 1.117188 C 6.949219 1.117188 7.523438 1.691406 7.523438 2.394531 Z M 7.523438 2.394531 "/>
</svg>
