<?xml version="1.0" encoding="UTF-8"?>
<svg xmlns="http://www.w3.org/2000/svg" xmlns:xlink="http://www.w3.org/1999/xlink" width="11.753837" height="9" viewBox="0 0 11.753837 9">
<path fill-rule="nonzero" fill="rgb(26.666668%, 26.666668%, 26.666668%)" fill-opacity="1" d="M 5.351562 7.007812 L 6.402344 7.007812 L 6.402344 9 L 5.351562 9 Z M 5.351562 7.007812 "/>
<path fill-rule="nonzero" fill="rgb(0%, 0%, 0%)" fill-opacity="1" d="M 0.214844 2.910156 L 2.914062 0.214844 C 3.097656 0.0429688 3.3125 0.00390625 3.535156 0.00390625 L 8.425781 0 C 8.601562 0 8.746094 0.128906 8.84375 0.226562 L 11.503906 2.890625 C 11.65625 3.042969 11.753906 3.238281 11.753906 3.449219 L 11.753906 7.144531 C 11.753906 7.355469 11.582031 7.527344 11.371094 7.527344 L 0.382812 7.527344 C 0.171875 7.527344 0 7.355469 0 7.144531 L 0 3.449219 C 0 3.238281 0.0625 3.058594 0.214844 2.910156 Z M 0.214844 2.910156 "/>
<path fill-rule="nonzero" fill="rgb(100%, 100%, 100%)" fill-opacity="1" d="M 3.996094 5.714844 C 3.996094 6.074219 3.703125 6.367188 3.34375 6.367188 C 2.984375 6.367188 2.691406 6.074219 2.691406 5.714844 C 2.691406 5.351562 2.984375 5.058594 3.34375 5.058594 C 3.703125 5.058594 3.996094 5.351562 3.996094 5.714844 Z M 3.996094 5.714844 "/>
<path fill-rule="nonzero" fill="rgb(100%, 100%, 100%)" fill-opacity="1" d="M 7.34375 2.246094 C 7.34375 2.605469 7.050781 2.898438 6.691406 2.898438 C 6.328125 2.898438 6.039062 2.605469 6.039062 2.246094 C 6.039062 1.886719 6.328125 1.59375 6.691406 1.59375 C 7.050781 1.59375 7.34375 1.886719 7.34375 2.246094 Z M 7.34375 2.246094 "/>
</svg>
