<?xml version="1.0" encoding="UTF-8"?>
<svg xmlns="http://www.w3.org/2000/svg" xmlns:xlink="http://www.w3.org/1999/xlink" width="16.131184" height="11" viewBox="0 0 16.131184 11">
<path fill-rule="nonzero" fill="rgb(100%, 100%, 100%)" fill-opacity="1" d="M 4.199219 0 L 7.921875 3.75 L 11.324219 0 Z M 7.921875 3.75 L 6.25 5.589844 L 8 7.355469 L 9.667969 5.515625 Z M 9.667969 5.515625 L 13.964844 9.847656 L 16.132812 5.5 L 13.84375 0.914062 Z M 8 7.355469 L 4.691406 11 L 11.613281 11 Z M 6.25 5.589844 L 2.0625 1.363281 L 0 5.5 L 2.246094 10.003906 Z M 6.25 5.589844 "/>
<path fill-rule="nonzero" fill="rgb(0%, 0%, 0%)" fill-opacity="1" d="M 2.742188 0 L 2.0625 1.363281 L 11.613281 11 L 13.390625 11 L 13.964844 9.847656 L 4.199219 0 Z M 2.742188 0 "/>
<path fill-rule="nonzero" fill="rgb(0%, 0%, 0%)" fill-opacity="1" d="M 11.324219 0 L 2.246094 10.003906 L 2.742188 11 L 4.691406 11 L 13.84375 0.914062 L 13.390625 0 Z M 11.324219 0 "/>
</svg>
