<?xml version="1.0" encoding="UTF-8"?>
<svg xmlns="http://www.w3.org/2000/svg" xmlns:xlink="http://www.w3.org/1999/xlink" width="4.643885" height="20" viewBox="0 0 4.643885 20">
<path fill-rule="nonzero" fill="rgb(0%, 0%, 0%)" fill-opacity="1" d="M 0 16.941406 L 4.644531 16.941406 L 4.644531 20 L 0 20 Z M 0 16.941406 "/>
<path fill-rule="nonzero" fill="rgb(100%, 100%, 100%)" fill-opacity="1" d="M 0 13.882812 L 4.644531 13.882812 L 4.644531 16.941406 L 0 16.941406 Z M 0 13.882812 "/>
<path fill-rule="nonzero" fill="rgb(0%, 0%, 0%)" fill-opacity="1" d="M 0 11.140625 L 4.644531 11.140625 L 4.644531 14.199219 L 0 14.199219 Z M 0 11.140625 "/>
<path fill-rule="nonzero" fill="rgb(100%, 100%, 100%)" fill-opacity="1" d="M 0 8.085938 L 4.644531 8.085938 L 4.644531 11.140625 L 0 11.140625 Z M 0 8.085938 "/>
<path fill-rule="nonzero" fill="rgb(0%, 0%, 0%)" fill-opacity="1" d="M 0 5.339844 L 4.644531 5.339844 L 4.644531 8.398438 L 0 8.398438 Z M 0 5.339844 "/>
<path fill-rule="nonzero" fill="rgb(100%, 100%, 100%)" fill-opacity="1" d="M 0 2.285156 L 4.644531 2.285156 L 4.644531 5.339844 L 0 5.339844 Z M 0 2.285156 "/>
<path fill-rule="nonzero" fill="rgb(100%, 100%, 100%)" fill-opacity="1" d="M 2.320312 0 L 4.605469 2.285156 L 2.320312 4.566406 L 0.0390625 2.285156 Z M 2.320312 0 "/>
</svg>
