<?xml version="1.0" encoding="UTF-8"?>
<svg xmlns="http://www.w3.org/2000/svg" xmlns:xlink="http://www.w3.org/1999/xlink" width="4.141119" height="26" viewBox="0 0 4.141119 26">
<path fill-rule="nonzero" fill="rgb(100%, 100%, 100%)" fill-opacity="1" d="M 0 0 L 0 3.617188 L 4.144531 3.617188 L 4.144531 0 Z M 0 7.414062 L 0 11.054688 L 4.144531 11.054688 L 4.144531 7.414062 Z M 0 14.847656 L 0 18.367188 L 4.144531 18.367188 L 4.144531 14.847656 Z M 0 22.164062 L 0 26 L 4.144531 26 L 4.144531 22.164062 Z M 0 22.164062 "/>
<path fill-rule="nonzero" fill="rgb(0%, 0%, 0%)" fill-opacity="1" d="M 0 3.617188 L 4.144531 3.617188 L 4.144531 7.414062 L 0 7.414062 Z M 0 3.617188 "/>
<path fill-rule="nonzero" fill="rgb(0%, 0%, 0%)" fill-opacity="1" d="M 0 11.054688 L 4.144531 11.054688 L 4.144531 14.851562 L 0 14.851562 Z M 0 11.054688 "/>
<path fill-rule="nonzero" fill="rgb(0%, 0%, 0%)" fill-opacity="1" d="M 0 18.367188 L 4.144531 18.367188 L 4.144531 22.164062 L 0 22.164062 Z M 0 18.367188 "/>
</svg>
