<?xml version="1.0" encoding="UTF-8"?>
<svg xmlns="http://www.w3.org/2000/svg" xmlns:xlink="http://www.w3.org/1999/xlink" width="7.857508" height="16" viewBox="0 0 7.857508 16">
<path fill-rule="nonzero" fill="rgb(0%, 0%, 0%)" fill-opacity="1" d="M 0 0 L 7.859375 0 L 7.859375 16 L 0 16 Z M 0 0 "/>
<path fill-rule="nonzero" fill="rgb(99.215686%, 79.215688%, 1.960784%)" fill-opacity="1" d="M 3.125 2.886719 C 3.125 3.527344 2.605469 4.046875 1.964844 4.046875 C 1.324219 4.046875 0.808594 3.527344 0.808594 2.886719 C 0.808594 2.246094 1.324219 1.726562 1.964844 1.726562 C 2.605469 1.726562 3.125 2.246094 3.125 2.886719 Z M 3.125 2.886719 "/>
<path fill-rule="nonzero" fill="rgb(99.215686%, 79.215688%, 1.960784%)" fill-opacity="1" d="M 7.210938 2.886719 C 7.210938 3.527344 6.695312 4.046875 6.054688 4.046875 C 5.414062 4.046875 4.894531 3.527344 4.894531 2.886719 C 4.894531 2.246094 5.414062 1.726562 6.054688 1.726562 C 6.695312 1.726562 7.210938 2.246094 7.210938 2.886719 Z M 7.210938 2.886719 "/>
</svg>
