<?xml version="1.0" encoding="UTF-8"?>
<svg xmlns="http://www.w3.org/2000/svg" xmlns:xlink="http://www.w3.org/1999/xlink" width="14.431379" height="15" viewBox="0 0 14.431379 15">
<path fill-rule="nonzero" fill="rgb(0%, 0%, 0%)" fill-opacity="1" d="M 0.0078125 8.726562 L 8.234375 0 L 12.335938 0 L 14.417969 1.976562 L 14.429688 6.15625 L 5.996094 14.988281 L 2.484375 15 L 0 12.421875 Z M 0.0078125 8.726562 "/>
<path fill-rule="nonzero" fill="rgb(99.215686%, 79.215688%, 1.960784%)" fill-opacity="1" d="M 3.707031 11.246094 C 3.707031 11.878906 3.195312 12.390625 2.566406 12.390625 C 1.9375 12.390625 1.425781 11.878906 1.425781 11.246094 C 1.425781 10.617188 1.9375 10.105469 2.566406 10.105469 C 3.195312 10.105469 3.707031 10.617188 3.707031 11.246094 Z M 3.707031 11.246094 "/>
<path fill-rule="nonzero" fill="rgb(99.215686%, 79.215688%, 1.960784%)" fill-opacity="1" d="M 10.417969 3.632812 C 10.417969 4.265625 9.90625 4.777344 9.273438 4.777344 C 8.644531 4.777344 8.132812 4.265625 8.132812 3.632812 C 8.132812 3.003906 8.644531 2.492188 9.273438 2.492188 C 9.90625 2.492188 10.417969 3.003906 10.417969 3.632812 Z M 10.417969 3.632812 "/>
<path fill-rule="nonzero" fill="rgb(23.921569%, 87.843138%, 71.764708%)" fill-opacity="1" d="M 6.765625 11.246094 C 6.765625 11.878906 6.253906 12.390625 5.625 12.390625 C 4.992188 12.390625 4.484375 11.878906 4.484375 11.246094 C 4.484375 10.617188 4.992188 10.105469 5.625 10.105469 C 6.253906 10.105469 6.765625 10.617188 6.765625 11.246094 Z M 6.765625 11.246094 "/>
<path fill-rule="nonzero" fill="rgb(23.921569%, 87.843138%, 71.764708%)" fill-opacity="1" d="M 13.410156 3.632812 C 13.410156 4.265625 12.902344 4.777344 12.269531 4.777344 C 11.640625 4.777344 11.128906 4.265625 11.128906 3.632812 C 11.128906 3.003906 11.640625 2.492188 12.269531 2.492188 C 12.902344 2.492188 13.410156 3.003906 13.410156 3.632812 Z M 13.410156 3.632812 "/>
<path fill-rule="nonzero" fill="rgb(99.215686%, 79.215688%, 1.960784%)" fill-opacity="1" d="M 3.863281 11.246094 C 3.863281 11.878906 3.351562 12.390625 2.722656 12.390625 C 2.09375 12.390625 1.582031 11.878906 1.582031 11.246094 C 1.582031 10.617188 2.09375 10.105469 2.722656 10.105469 C 3.351562 10.105469 3.863281 10.617188 3.863281 11.246094 Z M 3.863281 11.246094 "/>
<path fill-rule="nonzero" fill="rgb(23.921569%, 87.843138%, 71.764708%)" fill-opacity="1" d="M 13.410156 3.632812 C 13.410156 4.265625 12.902344 4.777344 12.269531 4.777344 C 11.640625 4.777344 11.128906 4.265625 11.128906 3.632812 C 11.128906 3.003906 11.640625 2.492188 12.269531 2.492188 C 12.902344 2.492188 13.410156 3.003906 13.410156 3.632812 Z M 13.410156 3.632812 "/>
</svg>
