<?xml version="1.0" encoding="UTF-8"?>
<svg xmlns="http://www.w3.org/2000/svg" xmlns:xlink="http://www.w3.org/1999/xlink" width="11.890398" height="26" viewBox="0 0 11.890398 26">
<path fill-rule="nonzero" fill="rgb(0%, 0%, 0%)" fill-opacity="1" d="M 5.585938 5.792969 L 6.613281 5.792969 L 6.613281 26 L 5.585938 26 Z M 5.585938 5.792969 "/>
<path fill-rule="nonzero" fill="rgb(100%, 100%, 100%)" fill-opacity="1" d="M 11.890625 5.945312 C 11.890625 9.230469 9.230469 11.890625 5.945312 11.890625 C 2.660156 11.890625 0 9.230469 0 5.945312 C 0 2.660156 2.660156 0 5.945312 0 C 9.230469 0 11.890625 2.660156 11.890625 5.945312 Z M 11.890625 5.945312 "/>
<path fill-rule="nonzero" fill="rgb(86.666667%, 58.431375%, 0.392157%)" fill-opacity="1" stroke-width="13" stroke-linecap="butt" stroke-linejoin="miter" stroke="rgb(0%, 0%, 0%)" stroke-opacity="1" stroke-miterlimit="4" d="M 187.186348 253.111595 C 187.186348 326.077376 128.030782 385.232942 54.956259 385.232942 C -18.009522 385.232942 -77.165088 326.077376 -77.165088 253.111595 C -77.165088 180.145814 -18.009522 120.881506 54.956259 120.881506 C 128.030782 120.881506 187.186348 180.145814 187.186348 253.111595 Z M 187.186348 253.111595 " transform="matrix(0.0359222, 0, 0, 0.0359222, 3.943817, -3.068896)"/>
<path fill-rule="nonzero" fill="rgb(100%, 100%, 100%)" fill-opacity="1" stroke-width="15" stroke-linecap="round" stroke-linejoin="round" stroke="rgb(0%, 0%, 0%)" stroke-opacity="1" stroke-miterlimit="4" d="M 82.765315 443.557528 L 251.532484 443.557528 L 251.532484 716.281794 L 82.765315 716.281794 Z M 82.765315 443.557528 " transform="matrix(0.0359223, 0, 0, 0.0359223, -0.0590556, 0)"/>
<path fill="none" stroke-width="30.136185" stroke-linecap="round" stroke-linejoin="miter" stroke="rgb(0%, 0%, 0%)" stroke-opacity="1" stroke-miterlimit="4" d="M 100.05525 454.322959 L 166.387707 554.582837 L 235.329966 455.301635 " transform="matrix(0.0359223, 0, 0, 0.0359223, -0.0590556, 0)"/>
<path fill="none" stroke-width="30" stroke-linecap="round" stroke-linejoin="miter" stroke="rgb(0%, 0%, 0%)" stroke-opacity="1" stroke-miterlimit="4" d="M 237.396059 708.126164 L 166.278965 607.648803 L 98.967833 706.060071 " transform="matrix(0.0359223, 0, 0, 0.0359223, -0.0590556, 0)"/>
</svg>
