<?xml version="1.0" encoding="UTF-8"?>
<svg xmlns="http://www.w3.org/2000/svg" xmlns:xlink="http://www.w3.org/1999/xlink" width="15" height="23.070682" viewBox="0 0 15 23.070682">
<path fill-rule="nonzero" fill="rgb(0%, 0%, 0%)" fill-opacity="1" d="M 0.0117188 9.070312 C 0.0117188 9.070312 1.570312 7.449219 2.34375 6.632812 C 3.328125 5.597656 4.304688 4.558594 5.28125 3.515625 C 6.378906 2.347656 8.558594 0 8.558594 0 L 12.820312 0 L 14.984375 2.054688 L 15 6.398438 L 6.234375 15.578125 L 2.582031 15.589844 L 0 12.910156 Z M 0.0117188 9.070312 "/>
<path fill-rule="nonzero" fill="rgb(99.215686%, 79.215686%, 1.960784%)" fill-opacity="1" d="M 3.851562 11.6875 C 3.851562 12.34375 3.324219 12.875 2.667969 12.875 C 2.011719 12.875 1.480469 12.34375 1.480469 11.6875 C 1.480469 11.035156 2.011719 10.503906 2.667969 10.503906 C 3.324219 10.503906 3.851562 11.035156 3.851562 11.6875 Z M 3.851562 11.6875 "/>
<path fill-rule="nonzero" fill="rgb(99.215686%, 79.215686%, 1.960784%)" fill-opacity="1" d="M 10.824219 3.777344 C 10.824219 4.429688 10.296875 4.964844 9.640625 4.964844 C 8.984375 4.964844 8.453125 4.429688 8.453125 3.777344 C 8.453125 3.121094 8.984375 2.59375 9.640625 2.59375 C 10.296875 2.59375 10.824219 3.121094 10.824219 3.777344 Z M 10.824219 3.777344 "/>
<path fill="none" stroke-width="0.8" stroke-linecap="round" stroke-linejoin="miter" stroke="rgb(0%, 0%, 0%)" stroke-opacity="1" stroke-miterlimit="4" d="M 4.670478 17.122412 L 10.820274 17.122412 L 10.820274 23.276218 L 4.670478 23.276218 Z M 4.670478 17.122412 " transform="matrix(0.974372, 0, 0, 0.974372, 0, 0)"/>
<path fill-rule="nonzero" fill="rgb(100%, 100%, 100%)" fill-opacity="1" d="M 4.550781 16.683594 L 10.542969 16.683594 L 10.542969 22.679688 L 4.550781 22.679688 Z M 4.550781 16.683594 "/>
<path fill="none" stroke-width="0.642368" stroke-linecap="round" stroke-linejoin="miter" stroke="rgb(0%, 0%, 0%)" stroke-opacity="1" stroke-miterlimit="4" d="M 10.214916 20.20132 C 10.214916 21.564377 9.108434 22.67086 7.745376 22.67086 C 6.382318 22.67086 5.275836 21.564377 5.275836 20.20132 C 5.275836 18.838262 6.382318 17.731779 7.745376 17.731779 C 9.108434 17.731779 10.214916 18.838262 10.214916 20.20132 Z M 10.214916 20.20132 " transform="matrix(0.974372, 0, 0, 0.974372, 0, 0)"/>
<path fill-rule="nonzero" fill="rgb(100%, 100%, 100%)" fill-opacity="1" d="M 9.953125 19.683594 C 9.953125 21.011719 8.875 22.089844 7.546875 22.089844 C 6.21875 22.089844 5.140625 21.011719 5.140625 19.683594 C 5.140625 18.355469 6.21875 17.277344 7.546875 17.277344 C 8.875 17.277344 9.953125 18.355469 9.953125 19.683594 Z M 9.953125 19.683594 "/>
</svg>
