<?xml version="1.0" encoding="UTF-8"?>
<svg xmlns="http://www.w3.org/2000/svg" xmlns:xlink="http://www.w3.org/1999/xlink" width="15.39347" height="16" viewBox="0 0 15.39347 16">
<path fill-rule="nonzero" fill="rgb(0%, 0%, 0%)" fill-opacity="1" d="M 0.0117188 9.308594 L 8.785156 0 L 13.15625 0 L 15.378906 2.109375 L 15.394531 6.566406 L 6.398438 15.988281 L 2.648438 16 L 0 13.25 Z M 0.0117188 9.308594 "/>
<path fill-rule="nonzero" fill="rgb(99.215686%, 79.215688%, 1.960784%)" fill-opacity="1" d="M 3.953125 11.996094 C 3.953125 12.667969 3.410156 13.214844 2.738281 13.214844 C 2.066406 13.214844 1.519531 12.667969 1.519531 11.996094 C 1.519531 11.324219 2.066406 10.78125 2.738281 10.78125 C 3.410156 10.78125 3.953125 11.324219 3.953125 11.996094 Z M 3.953125 11.996094 "/>
<path fill-rule="nonzero" fill="rgb(99.215686%, 79.215688%, 1.960784%)" fill-opacity="1" d="M 11.109375 3.875 C 11.109375 4.546875 10.566406 5.09375 9.894531 5.09375 C 9.222656 5.09375 8.675781 4.546875 8.675781 3.875 C 8.675781 3.203125 9.222656 2.660156 9.894531 2.660156 C 10.566406 2.660156 11.109375 3.203125 11.109375 3.875 Z M 11.109375 3.875 "/>
</svg>
