<?xml version="1.0" encoding="UTF-8"?>
<svg xmlns="http://www.w3.org/2000/svg" xmlns:xlink="http://www.w3.org/1999/xlink" width="15.39347" height="16" viewBox="0 0 15.39347 16">
<path fill-rule="nonzero" fill="rgb(0%, 0%, 0%)" fill-opacity="1" d="M 0.0117188 9.308594 L 8.785156 0 L 13.15625 0 L 15.378906 2.109375 L 15.394531 6.566406 L 6.398438 15.988281 L 2.648438 16 L 0 13.25 Z M 0.0117188 9.308594 "/>
<path fill-rule="nonzero" fill="rgb(23.921569%, 87.843138%, 71.764708%)" fill-opacity="1" d="M 7.214844 11.996094 C 7.214844 12.667969 6.671875 13.214844 6 13.214844 C 5.328125 13.214844 4.78125 12.667969 4.78125 11.996094 C 4.78125 11.324219 5.328125 10.78125 6 10.78125 C 6.671875 10.78125 7.214844 11.324219 7.214844 11.996094 Z M 7.214844 11.996094 "/>
<path fill-rule="nonzero" fill="rgb(23.921569%, 87.843138%, 71.764708%)" fill-opacity="1" d="M 14.304688 3.875 C 14.304688 4.546875 13.761719 5.09375 13.089844 5.09375 C 12.414062 5.09375 11.871094 4.546875 11.871094 3.875 C 11.871094 3.203125 12.414062 2.660156 13.089844 2.660156 C 13.761719 2.660156 14.304688 3.203125 14.304688 3.875 Z M 14.304688 3.875 "/>
</svg>
