<?xml version="1.0" encoding="UTF-8"?>
<svg xmlns="http://www.w3.org/2000/svg" xmlns:xlink="http://www.w3.org/1999/xlink" width="12.464617" height="19" viewBox="0 0 12.464617 19">
<path fill-rule="nonzero" fill="rgb(0%, 0%, 0%)" fill-opacity="1" d="M 5.632812 1.820312 L 6.726562 1.820312 L 6.726562 17.203125 L 5.632812 17.203125 Z M 5.632812 1.820312 "/>
<path fill-rule="nonzero" fill="rgb(86.666667%, 58.431375%, 0.392157%)" fill-opacity="1" stroke-width="8" stroke-linecap="butt" stroke-linejoin="miter" stroke="rgb(0%, 0%, 0%)" stroke-opacity="1" stroke-miterlimit="4" d="M 498.089488 242.302254 C 498.089488 247.763099 438.927967 252.198642 365.901811 252.198642 C 292.96177 252.198642 233.800249 247.763099 233.800249 242.302254 C 233.800249 236.863699 292.96177 232.428156 365.901811 232.428156 C 438.927967 232.428156 498.089488 236.863699 498.089488 242.302254 Z M 498.089488 242.302254 " transform="matrix(0.0453605, 0, 0, 0.175253, -10.367005, -40.49553)"/>
<path fill-rule="nonzero" fill="rgb(100%, 100%, 100%)" fill-opacity="1" stroke-width="15" stroke-linecap="round" stroke-linejoin="round" stroke="rgb(0%, 0%, 0%)" stroke-opacity="1" stroke-miterlimit="4" d="M 82.792938 443.560021 L 251.47898 443.560021 L 251.47898 716.335454 L 82.792938 716.335454 Z M 82.792938 443.560021 " transform="matrix(0.0382784, 0, 0, 0.0382784, -0.165275, -8.705329)"/>
<path fill="none" stroke-width="30.136185" stroke-linecap="round" stroke-linejoin="miter" stroke="rgb(0%, 0%, 0%)" stroke-opacity="1" stroke-miterlimit="4" d="M 100.14117 454.275105 L 166.370596 554.588704 L 235.355329 455.29559 " transform="matrix(0.0382784, 0, 0, 0.0382784, -0.165275, -8.705329)"/>
<path fill="none" stroke-width="30" stroke-linecap="round" stroke-linejoin="miter" stroke="rgb(0%, 0%, 0%)" stroke-opacity="1" stroke-miterlimit="4" d="M 237.396298 708.069531 L 166.268547 607.653884 L 99.018637 706.028563 " transform="matrix(0.0382784, 0, 0, 0.0382784, -0.165275, -8.705329)"/>
</svg>
