<?xml version="1.0" encoding="UTF-8"?>
<svg xmlns="http://www.w3.org/2000/svg" xmlns:xlink="http://www.w3.org/1999/xlink" width="11.728196" height="26" viewBox="0 0 11.728196 26">
<path fill-rule="nonzero" fill="rgb(0%, 0%, 0%)" fill-opacity="1" d="M 5.429688 4.882812 L 6.296875 4.882812 L 6.296875 26 L 5.429688 26 Z M 5.429688 4.882812 "/>
<path fill-rule="nonzero" fill="rgb(100%, 100%, 100%)" fill-opacity="1" d="M 11.609375 19.511719 L 10.167969 19.667969 L -0.00390625 9.582031 L 1.601562 7.976562 L 11.730469 18.109375 Z M 11.609375 19.511719 "/>
<path fill-rule="nonzero" fill="rgb(86.666667%, 58.431375%, 0.392157%)" fill-opacity="1" stroke-width="8.5" stroke-linecap="butt" stroke-linejoin="miter" stroke="rgb(0%, 0%, 0%)" stroke-opacity="1" stroke-miterlimit="4" d="M 38.669802 461.602441 L 81.509872 461.517609 L 81.509872 880.07781 L 60.047421 896.959342 L 38.669802 880.162642 Z M 38.669802 461.602441 " transform="matrix(0.0230235, -0.0230235, 0.0230235, 0.0230235, -10.861766, -0.143638)"/>
<path fill-rule="nonzero" fill="rgb(100%, 100%, 100%)" fill-opacity="1" d="M 11.089844 5.246094 C 11.089844 8.140625 8.75 10.492188 5.863281 10.492188 C 2.976562 10.492188 0.636719 8.140625 0.636719 5.246094 C 0.636719 2.347656 2.976562 0 5.863281 0 C 8.75 0 11.089844 2.347656 11.089844 5.246094 Z M 11.089844 5.246094 "/>
<path fill-rule="nonzero" fill="rgb(86.666667%, 58.431375%, 0.392157%)" fill-opacity="1" stroke-width="13" stroke-linecap="butt" stroke-linejoin="miter" stroke="rgb(0%, 0%, 0%)" stroke-opacity="1" stroke-miterlimit="4" d="M 187.155052 253.058455 C 187.155052 326.025417 128.038362 385.187818 54.946388 385.187818 C -18.021911 385.187818 -77.138601 326.025417 -77.138601 253.058455 C -77.138601 180.091493 -18.021911 120.929091 54.946388 120.929091 C 128.038362 120.929091 187.155052 180.091493 187.155052 253.058455 Z M 187.155052 253.058455 " transform="matrix(0.0315848, 0, 0, 0.0316924, 4.104374, -2.707536)"/>
<path fill-rule="nonzero" fill="rgb(100%, 100%, 100%)" fill-opacity="1" stroke-width="15" stroke-linecap="round" stroke-linejoin="round" stroke="rgb(0%, 0%, 0%)" stroke-opacity="1" stroke-miterlimit="4" d="M 82.778898 443.554784 L 251.458644 443.554784 L 251.458644 716.30529 L 82.778898 716.30529 Z M 82.778898 443.554784 " transform="matrix(0.0302904, 0, 0, 0.0302904, 0.801189, 4.076272)"/>
<path fill="none" stroke-width="30.136185" stroke-linecap="round" stroke-linejoin="miter" stroke="rgb(0%, 0%, 0%)" stroke-opacity="1" stroke-miterlimit="4" d="M 100.059545 454.258468 L 166.345011 554.589387 L 235.338638 455.290149 " transform="matrix(0.0302904, 0, 0, 0.0302904, 0.801189, 4.076272)"/>
<path fill="none" stroke-width="30" stroke-linecap="round" stroke-linejoin="miter" stroke="rgb(0%, 0%, 0%)" stroke-opacity="1" stroke-miterlimit="4" d="M 237.401998 708.051847 L 166.345011 607.720928 L 99.027865 706.117446 " transform="matrix(0.0302904, 0, 0, 0.0302904, 0.801189, 4.076272)"/>
</svg>
