<?xml version="1.0" encoding="UTF-8"?>
<svg xmlns="http://www.w3.org/2000/svg" xmlns:xlink="http://www.w3.org/1999/xlink" width="15.39347" height="16" viewBox="0 0 15.39347 16">
<path fill-rule="nonzero" fill="rgb(0%, 0%, 0%)" fill-opacity="1" d="M 0.0117188 9.308594 L 8.785156 0 L 13.15625 0 L 15.378906 2.109375 L 15.394531 6.566406 L 6.398438 15.988281 L 2.648438 16 L 0 13.25 Z M 0.0117188 9.308594 "/>
<path fill-rule="nonzero" fill="rgb(99.215686%, 79.215688%, 1.960784%)" fill-opacity="1" d="M 4.121094 11.996094 C 4.121094 12.667969 3.578125 13.214844 2.902344 13.214844 C 2.230469 13.214844 1.6875 12.667969 1.6875 11.996094 C 1.6875 11.324219 2.230469 10.78125 2.902344 10.78125 C 3.578125 10.78125 4.121094 11.324219 4.121094 11.996094 Z M 4.121094 11.996094 "/>
<path fill-rule="nonzero" fill="rgb(23.921569%, 87.843138%, 71.764708%)" fill-opacity="1" d="M 14.304688 3.875 C 14.304688 4.546875 13.761719 5.09375 13.089844 5.09375 C 12.414062 5.09375 11.871094 4.546875 11.871094 3.875 C 11.871094 3.203125 12.414062 2.660156 13.089844 2.660156 C 13.761719 2.660156 14.304688 3.203125 14.304688 3.875 Z M 14.304688 3.875 "/>
</svg>
