<?xml version="1.0" encoding="UTF-8"?>
<svg xmlns="http://www.w3.org/2000/svg" xmlns:xlink="http://www.w3.org/1999/xlink" width="9.466412" height="11" viewBox="0 0 9.466412 11">
<path fill-rule="nonzero" fill="rgb(26.666668%, 26.666668%, 26.666668%)" fill-opacity="1" d="M 3.964844 8.085938 L 5.503906 8.085938 L 5.503906 11 L 3.964844 11 Z M 3.964844 8.085938 "/>
<path fill-rule="nonzero" fill="rgb(0%, 0%, 0%)" fill-opacity="1" stroke-width="0.08" stroke-linecap="round" stroke-linejoin="round" stroke="rgb(100%, 100%, 100%)" stroke-opacity="1" stroke-miterlimit="4" d="M 0.0814764 0.0814764 L 0.0814764 91.742409 L 98.667902 91.742409 L 98.667902 0.0814764 Z M 49.700595 9.043879 C 69.458618 9.043879 85.509466 25.094727 85.509466 44.85275 C 85.509466 64.651511 69.458618 80.702359 49.700595 80.702359 C 29.901833 80.702359 13.850985 64.651511 13.850985 44.85275 C 13.850985 25.094727 29.901833 9.043879 49.700595 9.043879 Z M 49.700595 9.043879 " transform="matrix(0.0958867, 0, 0, 0.0958867, 0, 0)"/>
<path fill-rule="nonzero" fill="rgb(100%, 100%, 100%)" fill-opacity="1" d="M 8.199219 4.300781 C 8.199219 6.199219 6.664062 7.738281 4.765625 7.738281 C 2.867188 7.738281 1.332031 6.199219 1.332031 4.300781 C 1.332031 2.40625 2.867188 0.867188 4.765625 0.867188 C 6.664062 0.867188 8.199219 2.40625 8.199219 4.300781 Z M 8.199219 4.300781 "/>
<path fill-rule="nonzero" fill="rgb(100%, 100%, 100%)" fill-opacity="0.545098" d="M 7.183594 1.84375 C 8.523438 3.183594 8.523438 5.359375 7.183594 6.699219 C 5.839844 8.042969 3.664062 8.042969 2.324219 6.699219 C 0.984375 5.359375 0.984375 3.183594 2.324219 1.84375 C 3.664062 0.5 5.839844 0.5 7.183594 1.84375 Z M 7.183594 1.84375 "/>
<path fill-rule="nonzero" fill="rgb(0%, 0%, 0%)" fill-opacity="1" d="M 3.835938 8.242188 L 3.835938 0.402344 L 5.648438 0.402344 L 5.648438 8.242188 Z M 3.835938 8.242188 "/>
</svg>
