<?xml version="1.0" encoding="UTF-8"?>
<svg xmlns="http://www.w3.org/2000/svg" xmlns:xlink="http://www.w3.org/1999/xlink" width="12.434287" height="16" viewBox="0 0 12.434287 16">
<path fill-rule="nonzero" fill="rgb(0%, 0%, 0%)" fill-opacity="1" d="M 0 0 L 12.433594 0 L 12.433594 16 L 0 16 Z M 0 0 "/>
<path fill-rule="nonzero" fill="rgb(100%, 100%, 100%)" fill-opacity="1" d="M 6.933594 13.53125 C 6.933594 13.925781 6.613281 14.246094 6.21875 14.246094 C 5.820312 14.246094 5.5 13.925781 5.5 13.53125 C 5.5 13.136719 5.820312 12.816406 6.21875 12.816406 C 6.613281 12.816406 6.933594 13.136719 6.933594 13.53125 Z M 6.933594 13.53125 "/>
<path fill-rule="nonzero" fill="rgb(100%, 100%, 100%)" fill-opacity="1" d="M 8.726562 2.796875 C 8.726562 3.191406 8.40625 3.511719 8.011719 3.511719 C 7.613281 3.511719 7.292969 3.191406 7.292969 2.796875 C 7.292969 2.402344 7.613281 2.082031 8.011719 2.082031 C 8.40625 2.082031 8.726562 2.402344 8.726562 2.796875 Z M 8.726562 2.796875 "/>
<path fill-rule="nonzero" fill="rgb(100%, 100%, 100%)" fill-opacity="1" d="M 10.519531 2.777344 C 10.519531 3.171875 10.199219 3.492188 9.804688 3.492188 C 9.40625 3.492188 9.085938 3.171875 9.085938 2.777344 C 9.085938 2.382812 9.40625 2.0625 9.804688 2.0625 C 10.199219 2.0625 10.519531 2.382812 10.519531 2.777344 Z M 10.519531 2.777344 "/>
<path fill-rule="nonzero" fill="rgb(100%, 100%, 100%)" fill-opacity="1" d="M 6.933594 9.949219 C 6.933594 10.347656 6.613281 10.667969 6.214844 10.667969 C 5.820312 10.667969 5.5 10.347656 5.5 9.949219 C 5.5 9.554688 5.820312 9.234375 6.214844 9.234375 C 6.613281 9.234375 6.933594 9.554688 6.933594 9.949219 Z M 6.933594 9.949219 "/>
<path fill-rule="nonzero" fill="rgb(100%, 100%, 100%)" fill-opacity="1" d="M 6.933594 11.742188 C 6.933594 12.136719 6.613281 12.457031 6.21875 12.457031 C 5.824219 12.457031 5.503906 12.136719 5.503906 11.742188 C 5.503906 11.347656 5.824219 11.027344 6.21875 11.027344 C 6.613281 11.027344 6.933594 11.347656 6.933594 11.742188 Z M 6.933594 11.742188 "/>
<path fill-rule="nonzero" fill="rgb(100%, 100%, 100%)" fill-opacity="1" d="M 6.933594 8.160156 C 6.933594 8.554688 6.613281 8.875 6.21875 8.875 C 5.824219 8.875 5.503906 8.554688 5.503906 8.160156 C 5.503906 7.765625 5.824219 7.445312 6.21875 7.445312 C 6.613281 7.445312 6.933594 7.765625 6.933594 8.160156 Z M 6.933594 8.160156 "/>
<path fill-rule="nonzero" fill="rgb(100%, 100%, 100%)" fill-opacity="1" d="M 6.933594 6.371094 C 6.933594 6.765625 6.609375 7.085938 6.214844 7.085938 C 5.820312 7.085938 5.5 6.765625 5.5 6.371094 C 5.5 5.976562 5.820312 5.65625 6.214844 5.65625 C 6.609375 5.65625 6.933594 5.976562 6.933594 6.371094 Z M 6.933594 6.371094 "/>
<path fill-rule="nonzero" fill="rgb(100%, 100%, 100%)" fill-opacity="1" d="M 6.933594 4.578125 C 6.933594 4.972656 6.613281 5.292969 6.21875 5.292969 C 5.820312 5.292969 5.5 4.972656 5.5 4.578125 C 5.5 4.183594 5.820312 3.863281 6.21875 3.863281 C 6.613281 3.863281 6.933594 4.183594 6.933594 4.578125 Z M 6.933594 4.578125 "/>
<path fill-rule="nonzero" fill="rgb(100%, 100%, 100%)" fill-opacity="1" d="M 6.933594 2.789062 C 6.933594 3.183594 6.613281 3.503906 6.21875 3.503906 C 5.820312 3.503906 5.5 3.183594 5.5 2.789062 C 5.5 2.394531 5.820312 2.074219 6.21875 2.074219 C 6.613281 2.074219 6.933594 2.394531 6.933594 2.789062 Z M 6.933594 2.789062 "/>
<path fill-rule="nonzero" fill="rgb(100%, 100%, 100%)" fill-opacity="1" d="M 5.140625 2.8125 C 5.140625 3.207031 4.820312 3.527344 4.425781 3.527344 C 4.027344 3.527344 3.707031 3.207031 3.707031 2.8125 C 3.707031 2.417969 4.027344 2.097656 4.425781 2.097656 C 4.820312 2.097656 5.140625 2.417969 5.140625 2.8125 Z M 5.140625 2.8125 "/>
<path fill-rule="nonzero" fill="rgb(100%, 100%, 100%)" fill-opacity="1" d="M 3.351562 2.804688 C 3.351562 3.199219 3.03125 3.519531 2.636719 3.519531 C 2.238281 3.519531 1.917969 3.199219 1.917969 2.804688 C 1.917969 2.410156 2.238281 2.089844 2.636719 2.089844 C 3.03125 2.089844 3.351562 2.410156 3.351562 2.804688 Z M 3.351562 2.804688 "/>
</svg>
