<?xml version="1.0" encoding="UTF-8"?>
<svg xmlns="http://www.w3.org/2000/svg" xmlns:xlink="http://www.w3.org/1999/xlink" width="7.492486" height="15" viewBox="0 0 7.492486 15">
<path fill-rule="nonzero" fill="rgb(0%, 0%, 0%)" fill-opacity="1" d="M 0 0 L 7.492188 0 L 7.492188 15 L 0 15 Z M 0 0 "/>
<path fill-rule="nonzero" fill="rgb(100%, 100%, 100%)" fill-opacity="1" d="M 4.730469 12.613281 C 4.730469 13.15625 4.289062 13.597656 3.746094 13.597656 C 3.203125 13.597656 2.761719 13.15625 2.761719 12.613281 C 2.761719 12.066406 3.203125 11.628906 3.746094 11.628906 C 4.289062 11.628906 4.730469 12.066406 4.730469 12.613281 Z M 4.730469 12.613281 "/>
<path fill-rule="nonzero" fill="rgb(100%, 100%, 100%)" fill-opacity="1" d="M 4.730469 7.554688 C 4.730469 8.101562 4.289062 8.542969 3.746094 8.542969 C 3.203125 8.542969 2.761719 8.101562 2.761719 7.554688 C 2.761719 7.011719 3.203125 6.570312 3.746094 6.570312 C 4.289062 6.570312 4.730469 7.011719 4.730469 7.554688 Z M 4.730469 7.554688 "/>
<path fill-rule="nonzero" fill="rgb(100%, 100%, 100%)" fill-opacity="1" d="M 4.730469 2.386719 C 4.730469 2.933594 4.289062 3.371094 3.746094 3.371094 C 3.203125 3.371094 2.761719 2.933594 2.761719 2.386719 C 2.761719 1.84375 3.203125 1.402344 3.746094 1.402344 C 4.289062 1.402344 4.730469 1.84375 4.730469 2.386719 Z M 4.730469 2.386719 "/>
</svg>
