<?xml version="1.0" encoding="UTF-8"?>
<svg xmlns="http://www.w3.org/2000/svg" xmlns:xlink="http://www.w3.org/1999/xlink" width="12" height="15.441175" viewBox="0 0 12 15.441175">
<path fill-rule="nonzero" fill="rgb(0%, 0%, 0%)" fill-opacity="1" d="M 0 0 L 12 0 L 12 15.441406 L 0 15.441406 Z M 0 0 "/>
<path fill-rule="nonzero" fill="rgb(0%, 0%, 0%)" fill-opacity="1" d="M 7.03125 7.71875 C 7.03125 8.289062 6.570312 8.75 6 8.75 C 5.429688 8.75 4.96875 8.289062 4.96875 7.71875 C 4.96875 7.152344 5.429688 6.691406 6 6.691406 C 6.570312 6.691406 7.03125 7.152344 7.03125 7.71875 Z M 7.03125 7.71875 "/>
<path fill-rule="nonzero" fill="rgb(0%, 94.509804%, 64.705882%)" fill-opacity="1" d="M 7.03125 3.089844 C 7.03125 3.65625 6.570312 4.117188 6 4.117188 C 5.429688 4.117188 4.96875 3.65625 4.96875 3.089844 C 4.96875 2.519531 5.429688 2.058594 6 2.058594 C 6.570312 2.058594 7.03125 2.519531 7.03125 3.089844 Z M 3.453125 3.71875 C 3.855469 4.117188 3.855469 4.769531 3.453125 5.171875 C 3.050781 5.574219 2.398438 5.574219 1.996094 5.171875 C 1.59375 4.769531 1.59375 4.117188 1.996094 3.71875 C 2.398438 3.316406 3.050781 3.316406 3.453125 3.71875 Z M 1.367188 6.691406 C 1.9375 6.691406 2.398438 7.152344 2.398438 7.71875 C 2.398438 8.289062 1.9375 8.75 1.367188 8.75 C 0.800781 8.75 0.339844 8.289062 0.339844 7.71875 C 0.339844 7.152344 0.800781 6.691406 1.367188 6.691406 Z M 1.996094 10.269531 C 2.398438 9.867188 3.050781 9.867188 3.453125 10.269531 C 3.855469 10.671875 3.855469 11.320312 3.453125 11.722656 C 3.050781 12.125 2.398438 12.125 1.996094 11.722656 C 1.59375 11.320312 1.59375 10.671875 1.996094 10.269531 Z M 4.96875 12.351562 C 4.96875 11.785156 5.429688 11.324219 6 11.324219 C 6.570312 11.324219 7.03125 11.785156 7.03125 12.351562 C 7.03125 12.921875 6.570312 13.382812 6 13.382812 C 5.429688 13.382812 4.96875 12.921875 4.96875 12.351562 Z M 8.546875 11.722656 C 8.144531 11.320312 8.144531 10.671875 8.546875 10.269531 C 8.949219 9.867188 9.601562 9.867188 10.003906 10.269531 C 10.40625 10.671875 10.40625 11.320312 10.003906 11.722656 C 9.601562 12.125 8.949219 12.125 8.546875 11.722656 Z M 10.632812 8.75 C 10.0625 8.75 9.601562 8.289062 9.601562 7.71875 C 9.601562 7.152344 10.0625 6.691406 10.632812 6.691406 C 11.199219 6.691406 11.660156 7.152344 11.660156 7.71875 C 11.660156 8.289062 11.199219 8.75 10.632812 8.75 Z M 10.003906 5.171875 C 9.601562 5.574219 8.949219 5.574219 8.546875 5.171875 C 8.144531 4.769531 8.144531 4.117188 8.546875 3.71875 C 8.949219 3.316406 9.601562 3.316406 10.003906 3.71875 C 10.40625 4.117188 10.40625 4.769531 10.003906 5.171875 Z M 10.003906 5.171875 "/>
</svg>
