<?xml version="1.0" encoding="UTF-8"?>
<svg xmlns="http://www.w3.org/2000/svg" xmlns:xlink="http://www.w3.org/1999/xlink" width="15" height="15" viewBox="0 0 15 15">
<rect x="-1.5" y="-1.5" width="18" height="18" fill="rgb(0%, 0%, 0%)" fill-opacity="1"/>
<path fill-rule="nonzero" fill="rgb(100%, 100%, 100%)" fill-opacity="1" d="M 5.171875 11.6875 C 5.171875 12.714844 4.339844 13.546875 3.3125 13.546875 C 2.285156 13.546875 1.453125 12.714844 1.453125 11.6875 C 1.453125 10.660156 2.285156 9.828125 3.3125 9.828125 C 4.339844 9.828125 5.171875 10.660156 5.171875 11.6875 Z M 5.171875 11.6875 "/>
<path fill-rule="nonzero" fill="rgb(100%, 100%, 100%)" fill-opacity="1" d="M 13.351562 11.6875 C 13.351562 12.714844 12.519531 13.546875 11.492188 13.546875 C 10.464844 13.546875 9.632812 12.714844 9.632812 11.6875 C 9.632812 10.660156 10.464844 9.828125 11.492188 9.828125 C 12.519531 9.828125 13.351562 10.660156 13.351562 11.6875 Z M 13.351562 11.6875 "/>
<path fill-rule="nonzero" fill="rgb(100%, 100%, 100%)" fill-opacity="1" d="M 9.410156 4.089844 C 9.410156 5.117188 8.574219 5.949219 7.546875 5.949219 C 6.523438 5.949219 5.6875 5.117188 5.6875 4.089844 C 5.6875 3.0625 6.523438 2.230469 7.546875 2.230469 C 8.574219 2.230469 9.410156 3.0625 9.410156 4.089844 Z M 9.410156 4.089844 "/>
</svg>
