<?xml version="1.0" encoding="UTF-8"?>
<svg xmlns="http://www.w3.org/2000/svg" xmlns:xlink="http://www.w3.org/1999/xlink" width="10.052451" height="22" viewBox="0 0 10.052451 22">
<path fill-rule="nonzero" fill="rgb(49.411765%, 49.411765%, 49.411765%)" fill-opacity="1" d="M 0 0 L 10.054688 0 L 10.054688 22 L 0 22 Z M 0 0 "/>
<path fill-rule="nonzero" fill="rgb(100%, 100%, 100%)" fill-opacity="1" d="M 5.464844 2.164062 C 5.464844 2.40625 5.269531 2.601562 5.023438 2.601562 C 4.785156 2.601562 4.589844 2.40625 4.589844 2.164062 C 4.589844 1.917969 4.785156 1.722656 5.023438 1.722656 C 5.269531 1.722656 5.464844 1.917969 5.464844 2.164062 Z M 5.464844 2.164062 "/>
<path fill-rule="nonzero" fill="rgb(100%, 100%, 100%)" fill-opacity="1" d="M 4.554688 3.066406 C 4.554688 3.304688 4.359375 3.507812 4.113281 3.507812 C 3.871094 3.507812 3.679688 3.304688 3.679688 3.066406 C 3.679688 2.824219 3.871094 2.625 4.113281 2.625 C 4.359375 2.625 4.554688 2.824219 4.554688 3.066406 Z M 4.554688 3.066406 "/>
<path fill-rule="nonzero" fill="rgb(100%, 100%, 100%)" fill-opacity="1" d="M 3.644531 3.96875 C 3.644531 4.210938 3.441406 4.40625 3.203125 4.40625 C 2.960938 4.40625 2.765625 4.210938 2.765625 3.96875 C 2.765625 3.722656 2.960938 3.527344 3.203125 3.527344 C 3.441406 3.527344 3.644531 3.722656 3.644531 3.96875 Z M 3.644531 3.96875 "/>
<path fill-rule="nonzero" fill="rgb(100%, 100%, 100%)" fill-opacity="1" d="M 2.734375 4.871094 C 2.734375 5.109375 2.53125 5.3125 2.292969 5.3125 C 2.050781 5.3125 1.855469 5.109375 1.855469 4.871094 C 1.855469 4.628906 2.050781 4.433594 2.292969 4.433594 C 2.53125 4.433594 2.734375 4.628906 2.734375 4.871094 Z M 2.734375 4.871094 "/>
<path fill-rule="nonzero" fill="rgb(100%, 100%, 100%)" fill-opacity="1" d="M 5.464844 17.128906 C 5.464844 17.371094 5.269531 17.570312 5.023438 17.570312 C 4.785156 17.570312 4.589844 17.371094 4.589844 17.128906 C 4.589844 16.890625 4.785156 16.6875 5.023438 16.6875 C 5.269531 16.6875 5.464844 16.890625 5.464844 17.128906 Z M 5.464844 17.128906 "/>
<path fill-rule="nonzero" fill="rgb(100%, 100%, 100%)" fill-opacity="1" d="M 4.554688 18.035156 C 4.554688 18.277344 4.359375 18.472656 4.113281 18.472656 C 3.871094 18.472656 3.679688 18.277344 3.679688 18.035156 C 3.679688 17.789062 3.871094 17.59375 4.113281 17.59375 C 4.359375 17.59375 4.554688 17.789062 4.554688 18.035156 Z M 4.554688 18.035156 "/>
<path fill-rule="nonzero" fill="rgb(100%, 100%, 100%)" fill-opacity="1" d="M 3.644531 18.933594 C 3.644531 19.175781 3.441406 19.375 3.203125 19.375 C 2.960938 19.375 2.765625 19.175781 2.765625 18.933594 C 2.765625 18.695312 2.960938 18.492188 3.203125 18.492188 C 3.441406 18.492188 3.644531 18.695312 3.644531 18.933594 Z M 3.644531 18.933594 "/>
<path fill-rule="nonzero" fill="rgb(100%, 100%, 100%)" fill-opacity="1" d="M 2.734375 19.839844 C 2.734375 20.082031 2.53125 20.277344 2.292969 20.277344 C 2.050781 20.277344 1.855469 20.082031 1.855469 19.839844 C 1.855469 19.59375 2.050781 19.398438 2.292969 19.398438 C 2.53125 19.398438 2.734375 19.59375 2.734375 19.839844 Z M 2.734375 19.839844 "/>
<path fill-rule="nonzero" fill="rgb(100%, 100%, 100%)" fill-opacity="1" d="M 2.734375 6.117188 C 2.734375 6.359375 2.53125 6.554688 2.292969 6.554688 C 2.050781 6.554688 1.855469 6.359375 1.855469 6.117188 C 1.855469 5.878906 2.050781 5.675781 2.292969 5.675781 C 2.53125 5.675781 2.734375 5.878906 2.734375 6.117188 Z M 2.734375 6.117188 "/>
<path fill-rule="nonzero" fill="rgb(100%, 100%, 100%)" fill-opacity="1" d="M 2.734375 7.367188 C 2.734375 7.609375 2.53125 7.804688 2.292969 7.804688 C 2.050781 7.804688 1.855469 7.609375 1.855469 7.367188 C 1.855469 7.121094 2.050781 6.925781 2.292969 6.925781 C 2.53125 6.925781 2.734375 7.121094 2.734375 7.367188 Z M 2.734375 7.367188 "/>
<path fill-rule="nonzero" fill="rgb(100%, 100%, 100%)" fill-opacity="1" d="M 2.734375 8.609375 C 2.734375 8.855469 2.53125 9.050781 2.292969 9.050781 C 2.050781 9.050781 1.855469 8.855469 1.855469 8.609375 C 1.855469 8.371094 2.050781 8.175781 2.292969 8.175781 C 2.53125 8.175781 2.734375 8.371094 2.734375 8.609375 Z M 2.734375 8.609375 "/>
<path fill-rule="nonzero" fill="rgb(100%, 100%, 100%)" fill-opacity="1" d="M 2.734375 9.859375 C 2.734375 10.101562 2.53125 10.300781 2.292969 10.300781 C 2.050781 10.300781 1.855469 10.101562 1.855469 9.859375 C 1.855469 9.621094 2.050781 9.417969 2.292969 9.417969 C 2.53125 9.417969 2.734375 9.621094 2.734375 9.859375 Z M 2.734375 9.859375 "/>
<path fill-rule="nonzero" fill="rgb(100%, 100%, 100%)" fill-opacity="1" d="M 2.734375 11.109375 C 2.734375 11.347656 2.53125 11.542969 2.292969 11.542969 C 2.050781 11.542969 1.855469 11.347656 1.855469 11.109375 C 1.855469 10.863281 2.050781 10.667969 2.292969 10.667969 C 2.53125 10.667969 2.734375 10.863281 2.734375 11.109375 Z M 2.734375 11.109375 "/>
<path fill-rule="nonzero" fill="rgb(100%, 100%, 100%)" fill-opacity="1" d="M 2.734375 12.351562 C 2.734375 12.597656 2.53125 12.792969 2.292969 12.792969 C 2.050781 12.792969 1.855469 12.597656 1.855469 12.351562 C 1.855469 12.113281 2.050781 11.917969 2.292969 11.917969 C 2.53125 11.917969 2.734375 12.113281 2.734375 12.351562 Z M 2.734375 12.351562 "/>
<path fill-rule="nonzero" fill="rgb(100%, 100%, 100%)" fill-opacity="1" d="M 2.734375 13.601562 C 2.734375 13.839844 2.53125 14.042969 2.292969 14.042969 C 2.050781 14.042969 1.855469 13.839844 1.855469 13.601562 C 1.855469 13.359375 2.050781 13.160156 2.292969 13.160156 C 2.53125 13.160156 2.734375 13.359375 2.734375 13.601562 Z M 2.734375 13.601562 "/>
<path fill-rule="nonzero" fill="rgb(100%, 100%, 100%)" fill-opacity="1" d="M 2.734375 14.851562 C 2.734375 15.089844 2.53125 15.285156 2.292969 15.285156 C 2.050781 15.285156 1.855469 15.089844 1.855469 14.851562 C 1.855469 14.605469 2.050781 14.410156 2.292969 14.410156 C 2.53125 14.410156 2.734375 14.605469 2.734375 14.851562 Z M 2.734375 14.851562 "/>
<path fill-rule="nonzero" fill="rgb(100%, 100%, 100%)" fill-opacity="1" d="M 2.734375 16.097656 C 2.734375 16.339844 2.53125 16.535156 2.292969 16.535156 C 2.050781 16.535156 1.855469 16.339844 1.855469 16.097656 C 1.855469 15.851562 2.050781 15.65625 2.292969 15.65625 C 2.53125 15.65625 2.734375 15.851562 2.734375 16.097656 Z M 2.734375 16.097656 "/>
<path fill-rule="nonzero" fill="rgb(100%, 100%, 100%)" fill-opacity="1" d="M 2.734375 17.34375 C 2.734375 17.589844 2.53125 17.785156 2.292969 17.785156 C 2.050781 17.785156 1.855469 17.589844 1.855469 17.34375 C 1.855469 17.101562 2.050781 16.90625 2.292969 16.90625 C 2.53125 16.90625 2.734375 17.101562 2.734375 17.34375 Z M 2.734375 17.34375 "/>
<path fill-rule="nonzero" fill="rgb(100%, 100%, 100%)" fill-opacity="1" d="M 2.734375 18.589844 C 2.734375 18.832031 2.53125 19.03125 2.292969 19.03125 C 2.050781 19.03125 1.855469 18.832031 1.855469 18.589844 C 1.855469 18.351562 2.050781 18.148438 2.292969 18.148438 C 2.53125 18.148438 2.734375 18.351562 2.734375 18.589844 Z M 2.734375 18.589844 "/>
<path fill-rule="nonzero" fill="rgb(100%, 100%, 100%)" fill-opacity="1" d="M 6.375 3.066406 C 6.375 3.304688 6.183594 3.507812 5.933594 3.507812 C 5.695312 3.507812 5.5 3.304688 5.5 3.066406 C 5.5 2.824219 5.695312 2.628906 5.933594 2.628906 C 6.183594 2.628906 6.375 2.824219 6.375 3.066406 Z M 6.375 3.066406 "/>
<path fill-rule="nonzero" fill="rgb(100%, 100%, 100%)" fill-opacity="1" d="M 7.289062 3.96875 C 7.289062 4.210938 7.09375 4.40625 6.847656 4.40625 C 6.605469 4.40625 6.410156 4.210938 6.410156 3.96875 C 6.410156 3.722656 6.605469 3.527344 6.847656 3.527344 C 7.09375 3.527344 7.289062 3.722656 7.289062 3.96875 Z M 7.289062 3.96875 "/>
<path fill-rule="nonzero" fill="rgb(100%, 100%, 100%)" fill-opacity="1" d="M 8.199219 4.871094 C 8.199219 5.109375 8.003906 5.3125 7.757812 5.3125 C 7.515625 5.3125 7.320312 5.109375 7.320312 4.871094 C 7.320312 4.628906 7.515625 4.429688 7.757812 4.429688 C 8.003906 4.429688 8.199219 4.628906 8.199219 4.871094 Z M 8.199219 4.871094 "/>
<path fill-rule="nonzero" fill="rgb(100%, 100%, 100%)" fill-opacity="1" d="M 6.375 18.035156 C 6.375 18.277344 6.183594 18.472656 5.933594 18.472656 C 5.695312 18.472656 5.5 18.277344 5.5 18.035156 C 5.5 17.789062 5.695312 17.59375 5.933594 17.59375 C 6.183594 17.59375 6.375 17.789062 6.375 18.035156 Z M 6.375 18.035156 "/>
<path fill-rule="nonzero" fill="rgb(100%, 100%, 100%)" fill-opacity="1" d="M 7.289062 18.933594 C 7.289062 19.175781 7.09375 19.375 6.847656 19.375 C 6.605469 19.375 6.410156 19.175781 6.410156 18.933594 C 6.410156 18.695312 6.605469 18.492188 6.847656 18.492188 C 7.09375 18.492188 7.289062 18.695312 7.289062 18.933594 Z M 7.289062 18.933594 "/>
<path fill-rule="nonzero" fill="rgb(100%, 100%, 100%)" fill-opacity="1" d="M 8.199219 19.839844 C 8.199219 20.082031 8.003906 20.277344 7.757812 20.277344 C 7.515625 20.277344 7.320312 20.082031 7.320312 19.839844 C 7.320312 19.59375 7.515625 19.398438 7.757812 19.398438 C 8.003906 19.398438 8.199219 19.59375 8.199219 19.839844 Z M 8.199219 19.839844 "/>
<path fill-rule="nonzero" fill="rgb(100%, 100%, 100%)" fill-opacity="1" d="M 8.199219 6.117188 C 8.199219 6.359375 8.003906 6.554688 7.757812 6.554688 C 7.515625 6.554688 7.320312 6.359375 7.320312 6.117188 C 7.320312 5.871094 7.515625 5.675781 7.757812 5.675781 C 8.003906 5.675781 8.199219 5.871094 8.199219 6.117188 Z M 8.199219 6.117188 "/>
<path fill-rule="nonzero" fill="rgb(100%, 100%, 100%)" fill-opacity="1" d="M 8.199219 7.367188 C 8.199219 7.609375 8.003906 7.804688 7.757812 7.804688 C 7.515625 7.804688 7.320312 7.609375 7.320312 7.367188 C 7.320312 7.121094 7.515625 6.925781 7.757812 6.925781 C 8.003906 6.925781 8.199219 7.121094 8.199219 7.367188 Z M 8.199219 7.367188 "/>
<path fill-rule="nonzero" fill="rgb(100%, 100%, 100%)" fill-opacity="1" d="M 8.199219 8.609375 C 8.199219 8.855469 8.003906 9.050781 7.757812 9.050781 C 7.515625 9.050781 7.320312 8.855469 7.320312 8.609375 C 7.320312 8.371094 7.515625 8.175781 7.757812 8.175781 C 8.003906 8.175781 8.199219 8.371094 8.199219 8.609375 Z M 8.199219 8.609375 "/>
<path fill-rule="nonzero" fill="rgb(100%, 100%, 100%)" fill-opacity="1" d="M 8.199219 9.859375 C 8.199219 10.101562 8.003906 10.300781 7.757812 10.300781 C 7.515625 10.300781 7.320312 10.101562 7.320312 9.859375 C 7.320312 9.621094 7.515625 9.417969 7.757812 9.417969 C 8.003906 9.417969 8.199219 9.621094 8.199219 9.859375 Z M 8.199219 9.859375 "/>
<path fill-rule="nonzero" fill="rgb(100%, 100%, 100%)" fill-opacity="1" d="M 8.199219 11.109375 C 8.199219 11.347656 8.003906 11.542969 7.757812 11.542969 C 7.515625 11.542969 7.320312 11.347656 7.320312 11.109375 C 7.320312 10.863281 7.515625 10.667969 7.757812 10.667969 C 8.003906 10.667969 8.199219 10.863281 8.199219 11.109375 Z M 8.199219 11.109375 "/>
<path fill-rule="nonzero" fill="rgb(100%, 100%, 100%)" fill-opacity="1" d="M 8.199219 12.351562 C 8.199219 12.597656 8.003906 12.792969 7.757812 12.792969 C 7.515625 12.792969 7.320312 12.597656 7.320312 12.351562 C 7.320312 12.113281 7.515625 11.917969 7.757812 11.917969 C 8.003906 11.917969 8.199219 12.113281 8.199219 12.351562 Z M 8.199219 12.351562 "/>
<path fill-rule="nonzero" fill="rgb(100%, 100%, 100%)" fill-opacity="1" d="M 8.199219 13.601562 C 8.199219 13.839844 8.003906 14.042969 7.757812 14.042969 C 7.515625 14.042969 7.320312 13.839844 7.320312 13.601562 C 7.320312 13.359375 7.515625 13.160156 7.757812 13.160156 C 8.003906 13.160156 8.199219 13.359375 8.199219 13.601562 Z M 8.199219 13.601562 "/>
<path fill-rule="nonzero" fill="rgb(100%, 100%, 100%)" fill-opacity="1" d="M 8.199219 14.851562 C 8.199219 15.089844 8.003906 15.285156 7.757812 15.285156 C 7.515625 15.285156 7.320312 15.089844 7.320312 14.851562 C 7.320312 14.605469 7.515625 14.410156 7.757812 14.410156 C 8.003906 14.410156 8.199219 14.605469 8.199219 14.851562 Z M 8.199219 14.851562 "/>
<path fill-rule="nonzero" fill="rgb(100%, 100%, 100%)" fill-opacity="1" d="M 8.199219 16.097656 C 8.199219 16.339844 8.003906 16.535156 7.757812 16.535156 C 7.515625 16.535156 7.320312 16.339844 7.320312 16.097656 C 7.320312 15.851562 7.515625 15.65625 7.757812 15.65625 C 8.003906 15.65625 8.199219 15.851562 8.199219 16.097656 Z M 8.199219 16.097656 "/>
<path fill-rule="nonzero" fill="rgb(100%, 100%, 100%)" fill-opacity="1" d="M 8.199219 17.34375 C 8.199219 17.589844 8.003906 17.785156 7.757812 17.785156 C 7.515625 17.785156 7.320312 17.589844 7.320312 17.34375 C 7.320312 17.101562 7.515625 16.90625 7.757812 16.90625 C 8.003906 16.90625 8.199219 17.101562 8.199219 17.34375 Z M 8.199219 17.34375 "/>
<path fill-rule="nonzero" fill="rgb(100%, 100%, 100%)" fill-opacity="1" d="M 8.199219 18.589844 C 8.199219 18.832031 8.003906 19.03125 7.757812 19.03125 C 7.515625 19.03125 7.320312 18.832031 7.320312 18.589844 C 7.320312 18.351562 7.515625 18.148438 7.757812 18.148438 C 8.003906 18.148438 8.199219 18.351562 8.199219 18.589844 Z M 8.199219 18.589844 "/>
</svg>
