<?xml version="1.0" encoding="UTF-8"?>
<svg xmlns="http://www.w3.org/2000/svg" xmlns:xlink="http://www.w3.org/1999/xlink" width="2.714911" height="15" viewBox="0 0 2.714911 15">
<path fill-rule="nonzero" fill="rgb(0%, 0%, 0%)" fill-opacity="1" stroke-width="0.5111" stroke-linecap="butt" stroke-linejoin="miter" stroke="rgb(0%, 0%, 0%)" stroke-opacity="1" stroke-miterlimit="10" d="M 7.346335 7.321302 L 24.918967 7.321302 L 24.918967 106.821448 L 7.346335 106.821448 Z M 7.346335 7.321302 " transform="matrix(0.150047, 0, 0, 0.150047, -1.063232, -1.063382)"/>
<path fill-rule="nonzero" fill="rgb(100%, 100%, 100%)" fill-opacity="1" stroke-width="0.249998" stroke-linecap="butt" stroke-linejoin="miter" stroke="rgb(0%, 0%, 0%)" stroke-opacity="1" stroke-miterlimit="10" d="M -4.362104 -29.51641 L 6.701396 -29.498002 L 6.701396 -18.452911 L -4.362104 -18.434502 Z M -4.362104 -29.51641 " transform="matrix(-0.106099, 0.106099, -0.106099, -0.106099, -1.063232, -1.063382)"/>
<path fill-rule="nonzero" fill="rgb(100%, 100%, 100%)" fill-opacity="1" stroke-width="0.249998" stroke-linecap="butt" stroke-linejoin="miter" stroke="rgb(0%, 0%, 0%)" stroke-opacity="1" stroke-miterlimit="10" d="M 6.701396 -40.543093 L 17.764895 -40.561501 L 17.746487 -29.498002 L 6.701396 -29.498002 Z M 6.701396 -40.543093 " transform="matrix(-0.106099, 0.106099, -0.106099, -0.106099, -1.063232, -1.063382)"/>
<path fill-rule="nonzero" fill="rgb(100%, 100%, 100%)" fill-opacity="1" stroke-width="0.249998" stroke-linecap="butt" stroke-linejoin="miter" stroke="rgb(0%, 0%, 0%)" stroke-opacity="1" stroke-miterlimit="10" d="M 17.764895 -51.606592 L 28.809986 -51.606592 L 28.809986 -40.561501 L 17.764895 -40.561501 Z M 17.764895 -51.606592 " transform="matrix(-0.106099, 0.106099, -0.106099, -0.106099, -1.063232, -1.063382)"/>
<path fill-rule="nonzero" fill="rgb(100%, 100%, 100%)" fill-opacity="1" stroke-width="0.250015" stroke-linecap="butt" stroke-linejoin="miter" stroke="rgb(0%, 0%, 0%)" stroke-opacity="1" stroke-miterlimit="10" d="M 28.814417 -62.649645 L 39.859508 -62.648864 L 39.858727 -51.603773 L 28.813636 -51.604554 Z M 28.814417 -62.649645 " transform="matrix(-0.106092, 0.106107, -0.106107, -0.106092, -1.063232, -1.063382)"/>
<path fill-rule="nonzero" fill="rgb(100%, 100%, 100%)" fill-opacity="1" stroke-width="0.249998" stroke-linecap="butt" stroke-linejoin="miter" stroke="rgb(0%, 0%, 0%)" stroke-opacity="1" stroke-miterlimit="10" d="M 39.873485 -73.715182 L 50.918576 -73.715182 L 50.918576 -62.670091 L 39.873485 -62.670091 Z M 39.873485 -73.715182 " transform="matrix(-0.106099, 0.106099, -0.106099, -0.106099, -1.063232, -1.063382)"/>
<path fill-rule="nonzero" fill="rgb(100%, 100%, 100%)" fill-opacity="1" stroke-width="0.250015" stroke-linecap="butt" stroke-linejoin="miter" stroke="rgb(0%, 0%, 0%)" stroke-opacity="1" stroke-miterlimit="10" d="M 50.912582 -84.763874 L 61.97608 -84.783065 L 61.958454 -73.719564 L 50.913363 -73.718783 Z M 50.912582 -84.763874 " transform="matrix(-0.106107, 0.106092, -0.106092, -0.106107, -1.063232, -1.063382)"/>
</svg>
