<?xml version="1.0" encoding="UTF-8"?>
<svg xmlns="http://www.w3.org/2000/svg" xmlns:xlink="http://www.w3.org/1999/xlink" width="6.853944" height="15" viewBox="0 0 6.853944 15">
<path fill-rule="nonzero" fill="rgb(49.411765%, 49.411765%, 49.411765%)" fill-opacity="1" d="M 0 0 L 6.855469 0 L 6.855469 15 L 0 15 Z M 0 0 "/>
<path fill-rule="nonzero" fill="rgb(100%, 100%, 100%)" fill-opacity="1" d="M 3.726562 1.476562 C 3.726562 1.640625 3.59375 1.773438 3.425781 1.773438 C 3.261719 1.773438 3.128906 1.640625 3.128906 1.476562 C 3.128906 1.308594 3.261719 1.175781 3.425781 1.175781 C 3.59375 1.175781 3.726562 1.308594 3.726562 1.476562 Z M 3.726562 1.476562 "/>
<path fill-rule="nonzero" fill="rgb(100%, 100%, 100%)" fill-opacity="1" d="M 3.105469 2.089844 C 3.105469 2.253906 2.972656 2.390625 2.804688 2.390625 C 2.640625 2.390625 2.507812 2.253906 2.507812 2.089844 C 2.507812 1.925781 2.640625 1.789062 2.804688 1.789062 C 2.972656 1.789062 3.105469 1.925781 3.105469 2.089844 Z M 3.105469 2.089844 "/>
<path fill-rule="nonzero" fill="rgb(100%, 100%, 100%)" fill-opacity="1" d="M 2.484375 2.707031 C 2.484375 2.871094 2.347656 3.003906 2.183594 3.003906 C 2.019531 3.003906 1.886719 2.871094 1.886719 2.707031 C 1.886719 2.539062 2.019531 2.40625 2.183594 2.40625 C 2.347656 2.40625 2.484375 2.539062 2.484375 2.707031 Z M 2.484375 2.707031 "/>
<path fill-rule="nonzero" fill="rgb(100%, 100%, 100%)" fill-opacity="1" d="M 1.863281 3.320312 C 1.863281 3.484375 1.726562 3.621094 1.5625 3.621094 C 1.398438 3.621094 1.265625 3.484375 1.265625 3.320312 C 1.265625 3.15625 1.398438 3.023438 1.5625 3.023438 C 1.726562 3.023438 1.863281 3.15625 1.863281 3.320312 Z M 1.863281 3.320312 "/>
<path fill-rule="nonzero" fill="rgb(100%, 100%, 100%)" fill-opacity="1" d="M 3.726562 11.679688 C 3.726562 11.84375 3.59375 11.980469 3.425781 11.980469 C 3.261719 11.980469 3.128906 11.84375 3.128906 11.679688 C 3.128906 11.515625 3.261719 11.378906 3.425781 11.378906 C 3.59375 11.378906 3.726562 11.515625 3.726562 11.679688 Z M 3.726562 11.679688 "/>
<path fill-rule="nonzero" fill="rgb(100%, 100%, 100%)" fill-opacity="1" d="M 3.105469 12.296875 C 3.105469 12.460938 2.972656 12.59375 2.804688 12.59375 C 2.640625 12.59375 2.507812 12.460938 2.507812 12.296875 C 2.507812 12.128906 2.640625 11.996094 2.804688 11.996094 C 2.972656 11.996094 3.105469 12.128906 3.105469 12.296875 Z M 3.105469 12.296875 "/>
<path fill-rule="nonzero" fill="rgb(100%, 100%, 100%)" fill-opacity="1" d="M 2.484375 12.910156 C 2.484375 13.074219 2.347656 13.210938 2.183594 13.210938 C 2.019531 13.210938 1.886719 13.074219 1.886719 12.910156 C 1.886719 12.746094 2.019531 12.609375 2.183594 12.609375 C 2.347656 12.609375 2.484375 12.746094 2.484375 12.910156 Z M 2.484375 12.910156 "/>
<path fill-rule="nonzero" fill="rgb(100%, 100%, 100%)" fill-opacity="1" d="M 1.863281 13.527344 C 1.863281 13.691406 1.726562 13.824219 1.5625 13.824219 C 1.398438 13.824219 1.265625 13.691406 1.265625 13.527344 C 1.265625 13.359375 1.398438 13.226562 1.5625 13.226562 C 1.726562 13.226562 1.863281 13.359375 1.863281 13.527344 Z M 1.863281 13.527344 "/>
<path fill-rule="nonzero" fill="rgb(100%, 100%, 100%)" fill-opacity="1" d="M 1.863281 4.171875 C 1.863281 4.335938 1.726562 4.46875 1.5625 4.46875 C 1.398438 4.46875 1.265625 4.335938 1.265625 4.171875 C 1.265625 4.007812 1.398438 3.871094 1.5625 3.871094 C 1.726562 3.871094 1.863281 4.007812 1.863281 4.171875 Z M 1.863281 4.171875 "/>
<path fill-rule="nonzero" fill="rgb(100%, 100%, 100%)" fill-opacity="1" d="M 1.863281 5.023438 C 1.863281 5.1875 1.726562 5.320312 1.5625 5.320312 C 1.398438 5.320312 1.265625 5.1875 1.265625 5.023438 C 1.265625 4.855469 1.398438 4.722656 1.5625 4.722656 C 1.726562 4.722656 1.863281 4.855469 1.863281 5.023438 Z M 1.863281 5.023438 "/>
<path fill-rule="nonzero" fill="rgb(100%, 100%, 100%)" fill-opacity="1" d="M 1.863281 5.871094 C 1.863281 6.039062 1.726562 6.171875 1.5625 6.171875 C 1.398438 6.171875 1.265625 6.039062 1.265625 5.871094 C 1.265625 5.707031 1.398438 5.574219 1.5625 5.574219 C 1.726562 5.574219 1.863281 5.707031 1.863281 5.871094 Z M 1.863281 5.871094 "/>
<path fill-rule="nonzero" fill="rgb(100%, 100%, 100%)" fill-opacity="1" d="M 1.863281 6.722656 C 1.863281 6.886719 1.726562 7.023438 1.5625 7.023438 C 1.398438 7.023438 1.265625 6.886719 1.265625 6.722656 C 1.265625 6.558594 1.398438 6.421875 1.5625 6.421875 C 1.726562 6.421875 1.863281 6.558594 1.863281 6.722656 Z M 1.863281 6.722656 "/>
<path fill-rule="nonzero" fill="rgb(100%, 100%, 100%)" fill-opacity="1" d="M 1.863281 7.574219 C 1.863281 7.738281 1.726562 7.871094 1.5625 7.871094 C 1.398438 7.871094 1.265625 7.738281 1.265625 7.574219 C 1.265625 7.40625 1.398438 7.273438 1.5625 7.273438 C 1.726562 7.273438 1.863281 7.40625 1.863281 7.574219 Z M 1.863281 7.574219 "/>
<path fill-rule="nonzero" fill="rgb(100%, 100%, 100%)" fill-opacity="1" d="M 1.863281 8.421875 C 1.863281 8.589844 1.726562 8.722656 1.5625 8.722656 C 1.398438 8.722656 1.265625 8.589844 1.265625 8.421875 C 1.265625 8.257812 1.398438 8.125 1.5625 8.125 C 1.726562 8.125 1.863281 8.257812 1.863281 8.421875 Z M 1.863281 8.421875 "/>
<path fill-rule="nonzero" fill="rgb(100%, 100%, 100%)" fill-opacity="1" d="M 1.863281 9.273438 C 1.863281 9.4375 1.726562 9.574219 1.5625 9.574219 C 1.398438 9.574219 1.265625 9.4375 1.265625 9.273438 C 1.265625 9.109375 1.398438 8.972656 1.5625 8.972656 C 1.726562 8.972656 1.863281 9.109375 1.863281 9.273438 Z M 1.863281 9.273438 "/>
<path fill-rule="nonzero" fill="rgb(100%, 100%, 100%)" fill-opacity="1" d="M 1.863281 10.125 C 1.863281 10.289062 1.726562 10.421875 1.5625 10.421875 C 1.398438 10.421875 1.265625 10.289062 1.265625 10.125 C 1.265625 9.957031 1.398438 9.824219 1.5625 9.824219 C 1.726562 9.824219 1.863281 9.957031 1.863281 10.125 Z M 1.863281 10.125 "/>
<path fill-rule="nonzero" fill="rgb(100%, 100%, 100%)" fill-opacity="1" d="M 1.863281 10.976562 C 1.863281 11.140625 1.726562 11.273438 1.5625 11.273438 C 1.398438 11.273438 1.265625 11.140625 1.265625 10.976562 C 1.265625 10.808594 1.398438 10.675781 1.5625 10.675781 C 1.726562 10.675781 1.863281 10.808594 1.863281 10.976562 Z M 1.863281 10.976562 "/>
<path fill-rule="nonzero" fill="rgb(100%, 100%, 100%)" fill-opacity="1" d="M 1.863281 11.824219 C 1.863281 11.992188 1.726562 12.125 1.5625 12.125 C 1.398438 12.125 1.265625 11.992188 1.265625 11.824219 C 1.265625 11.660156 1.398438 11.527344 1.5625 11.527344 C 1.726562 11.527344 1.863281 11.660156 1.863281 11.824219 Z M 1.863281 11.824219 "/>
<path fill-rule="nonzero" fill="rgb(100%, 100%, 100%)" fill-opacity="1" d="M 1.863281 12.675781 C 1.863281 12.839844 1.726562 12.976562 1.5625 12.976562 C 1.398438 12.976562 1.265625 12.839844 1.265625 12.675781 C 1.265625 12.511719 1.398438 12.375 1.5625 12.375 C 1.726562 12.375 1.863281 12.511719 1.863281 12.675781 Z M 1.863281 12.675781 "/>
<path fill-rule="nonzero" fill="rgb(100%, 100%, 100%)" fill-opacity="1" d="M 4.347656 2.089844 C 4.347656 2.253906 4.214844 2.390625 4.046875 2.390625 C 3.882812 2.390625 3.75 2.253906 3.75 2.089844 C 3.75 1.925781 3.882812 1.792969 4.046875 1.792969 C 4.214844 1.792969 4.347656 1.925781 4.347656 2.089844 Z M 4.347656 2.089844 "/>
<path fill-rule="nonzero" fill="rgb(100%, 100%, 100%)" fill-opacity="1" d="M 4.96875 2.707031 C 4.96875 2.871094 4.835938 3.003906 4.667969 3.003906 C 4.503906 3.003906 4.371094 2.871094 4.371094 2.707031 C 4.371094 2.539062 4.503906 2.40625 4.667969 2.40625 C 4.835938 2.40625 4.96875 2.539062 4.96875 2.707031 Z M 4.96875 2.707031 "/>
<path fill-rule="nonzero" fill="rgb(100%, 100%, 100%)" fill-opacity="1" d="M 5.589844 3.320312 C 5.589844 3.484375 5.457031 3.621094 5.289062 3.621094 C 5.125 3.621094 4.992188 3.484375 4.992188 3.320312 C 4.992188 3.15625 5.125 3.019531 5.289062 3.019531 C 5.457031 3.019531 5.589844 3.15625 5.589844 3.320312 Z M 5.589844 3.320312 "/>
<path fill-rule="nonzero" fill="rgb(100%, 100%, 100%)" fill-opacity="1" d="M 4.347656 12.296875 C 4.347656 12.460938 4.214844 12.59375 4.046875 12.59375 C 3.882812 12.59375 3.75 12.460938 3.75 12.296875 C 3.75 12.128906 3.882812 11.996094 4.046875 11.996094 C 4.214844 11.996094 4.347656 12.128906 4.347656 12.296875 Z M 4.347656 12.296875 "/>
<path fill-rule="nonzero" fill="rgb(100%, 100%, 100%)" fill-opacity="1" d="M 4.96875 12.910156 C 4.96875 13.074219 4.835938 13.210938 4.667969 13.210938 C 4.503906 13.210938 4.371094 13.074219 4.371094 12.910156 C 4.371094 12.746094 4.503906 12.609375 4.667969 12.609375 C 4.835938 12.609375 4.96875 12.746094 4.96875 12.910156 Z M 4.96875 12.910156 "/>
<path fill-rule="nonzero" fill="rgb(100%, 100%, 100%)" fill-opacity="1" d="M 5.589844 13.527344 C 5.589844 13.691406 5.457031 13.824219 5.289062 13.824219 C 5.125 13.824219 4.992188 13.691406 4.992188 13.527344 C 4.992188 13.359375 5.125 13.226562 5.289062 13.226562 C 5.457031 13.226562 5.589844 13.359375 5.589844 13.527344 Z M 5.589844 13.527344 "/>
<path fill-rule="nonzero" fill="rgb(100%, 100%, 100%)" fill-opacity="1" d="M 5.589844 4.171875 C 5.589844 4.335938 5.457031 4.46875 5.289062 4.46875 C 5.125 4.46875 4.992188 4.335938 4.992188 4.171875 C 4.992188 4.003906 5.125 3.871094 5.289062 3.871094 C 5.457031 3.871094 5.589844 4.003906 5.589844 4.171875 Z M 5.589844 4.171875 "/>
<path fill-rule="nonzero" fill="rgb(100%, 100%, 100%)" fill-opacity="1" d="M 5.589844 5.023438 C 5.589844 5.1875 5.457031 5.320312 5.289062 5.320312 C 5.125 5.320312 4.992188 5.1875 4.992188 5.023438 C 4.992188 4.855469 5.125 4.722656 5.289062 4.722656 C 5.457031 4.722656 5.589844 4.855469 5.589844 5.023438 Z M 5.589844 5.023438 "/>
<path fill-rule="nonzero" fill="rgb(100%, 100%, 100%)" fill-opacity="1" d="M 5.589844 5.871094 C 5.589844 6.039062 5.457031 6.171875 5.289062 6.171875 C 5.125 6.171875 4.992188 6.039062 4.992188 5.871094 C 4.992188 5.707031 5.125 5.574219 5.289062 5.574219 C 5.457031 5.574219 5.589844 5.707031 5.589844 5.871094 Z M 5.589844 5.871094 "/>
<path fill-rule="nonzero" fill="rgb(100%, 100%, 100%)" fill-opacity="1" d="M 5.589844 6.722656 C 5.589844 6.886719 5.457031 7.023438 5.289062 7.023438 C 5.125 7.023438 4.992188 6.886719 4.992188 6.722656 C 4.992188 6.558594 5.125 6.421875 5.289062 6.421875 C 5.457031 6.421875 5.589844 6.558594 5.589844 6.722656 Z M 5.589844 6.722656 "/>
<path fill-rule="nonzero" fill="rgb(100%, 100%, 100%)" fill-opacity="1" d="M 5.589844 7.574219 C 5.589844 7.738281 5.457031 7.871094 5.289062 7.871094 C 5.125 7.871094 4.992188 7.738281 4.992188 7.574219 C 4.992188 7.40625 5.125 7.273438 5.289062 7.273438 C 5.457031 7.273438 5.589844 7.40625 5.589844 7.574219 Z M 5.589844 7.574219 "/>
<path fill-rule="nonzero" fill="rgb(100%, 100%, 100%)" fill-opacity="1" d="M 5.589844 8.421875 C 5.589844 8.589844 5.457031 8.722656 5.289062 8.722656 C 5.125 8.722656 4.992188 8.589844 4.992188 8.421875 C 4.992188 8.257812 5.125 8.125 5.289062 8.125 C 5.457031 8.125 5.589844 8.257812 5.589844 8.421875 Z M 5.589844 8.421875 "/>
<path fill-rule="nonzero" fill="rgb(100%, 100%, 100%)" fill-opacity="1" d="M 5.589844 9.273438 C 5.589844 9.4375 5.457031 9.574219 5.289062 9.574219 C 5.125 9.574219 4.992188 9.4375 4.992188 9.273438 C 4.992188 9.109375 5.125 8.972656 5.289062 8.972656 C 5.457031 8.972656 5.589844 9.109375 5.589844 9.273438 Z M 5.589844 9.273438 "/>
<path fill-rule="nonzero" fill="rgb(100%, 100%, 100%)" fill-opacity="1" d="M 5.589844 10.125 C 5.589844 10.289062 5.457031 10.421875 5.289062 10.421875 C 5.125 10.421875 4.992188 10.289062 4.992188 10.125 C 4.992188 9.957031 5.125 9.824219 5.289062 9.824219 C 5.457031 9.824219 5.589844 9.957031 5.589844 10.125 Z M 5.589844 10.125 "/>
<path fill-rule="nonzero" fill="rgb(100%, 100%, 100%)" fill-opacity="1" d="M 5.589844 10.976562 C 5.589844 11.140625 5.457031 11.273438 5.289062 11.273438 C 5.125 11.273438 4.992188 11.140625 4.992188 10.976562 C 4.992188 10.808594 5.125 10.675781 5.289062 10.675781 C 5.457031 10.675781 5.589844 10.808594 5.589844 10.976562 Z M 5.589844 10.976562 "/>
<path fill-rule="nonzero" fill="rgb(100%, 100%, 100%)" fill-opacity="1" d="M 5.589844 11.824219 C 5.589844 11.992188 5.457031 12.125 5.289062 12.125 C 5.125 12.125 4.992188 11.992188 4.992188 11.824219 C 4.992188 11.660156 5.125 11.527344 5.289062 11.527344 C 5.457031 11.527344 5.589844 11.660156 5.589844 11.824219 Z M 5.589844 11.824219 "/>
<path fill-rule="nonzero" fill="rgb(100%, 100%, 100%)" fill-opacity="1" d="M 5.589844 12.675781 C 5.589844 12.839844 5.457031 12.976562 5.289062 12.976562 C 5.125 12.976562 4.992188 12.839844 4.992188 12.675781 C 4.992188 12.511719 5.125 12.375 5.289062 12.375 C 5.457031 12.375 5.589844 12.511719 5.589844 12.675781 Z M 5.589844 12.675781 "/>
</svg>
