<?xml version="1.0" encoding="UTF-8"?>
<svg xmlns="http://www.w3.org/2000/svg" xmlns:xlink="http://www.w3.org/1999/xlink" width="4.484327" height="23" viewBox="0 0 4.484327 23">
<path fill-rule="nonzero" fill="rgb(0%, 0%, 0%)" fill-opacity="1" stroke-width="0.5111" stroke-linecap="butt" stroke-linejoin="miter" stroke="rgb(0%, 0%, 0%)" stroke-opacity="1" stroke-miterlimit="10" d="M 0.256759 0.256759 L 4.209289 0.256759 L 4.209289 22.649241 L 0.256759 22.649241 Z M 0.256759 0.256759 " transform="matrix(1.004104, 0, 0, 1.004104, 0, 0)"/>
<path fill-rule="nonzero" fill="rgb(100%, 100%, 100%)" fill-opacity="1" stroke-width="0.0926502" stroke-linecap="butt" stroke-linejoin="miter" stroke="rgb(0%, 0%, 0%)" stroke-opacity="1" stroke-miterlimit="10" d="M 4.115922 1.952923 L 2.229134 3.835821 L 0.350126 1.952923 L 2.229134 0.0661349 Z M 4.115922 1.952923 " transform="matrix(1.004104, 0, 0, 1.004104, 0, 0)"/>
<path fill-rule="nonzero" fill="rgb(100%, 100%, 100%)" fill-opacity="1" stroke-width="0.0926502" stroke-linecap="butt" stroke-linejoin="miter" stroke="rgb(0%, 0%, 0%)" stroke-opacity="1" stroke-miterlimit="10" d="M 4.115922 5.753732 L 2.229134 7.63663 L 0.350126 5.753732 L 2.229134 3.866944 Z M 4.115922 5.753732 " transform="matrix(1.004104, 0, 0, 1.004104, 0, 0)"/>
<path fill-rule="nonzero" fill="rgb(100%, 100%, 100%)" fill-opacity="1" stroke-width="0.0926502" stroke-linecap="butt" stroke-linejoin="miter" stroke="rgb(0%, 0%, 0%)" stroke-opacity="1" stroke-miterlimit="10" d="M 4.115922 9.554541 L 2.229134 11.437439 L 0.350126 9.554541 L 2.229134 7.667752 Z M 4.115922 9.554541 " transform="matrix(1.004104, 0, 0, 1.004104, 0, 0)"/>
<path fill-rule="nonzero" fill="rgb(100%, 100%, 100%)" fill-opacity="1" stroke-width="0.0926502" stroke-linecap="butt" stroke-linejoin="miter" stroke="rgb(0%, 0%, 0%)" stroke-opacity="1" stroke-miterlimit="10" d="M 4.115922 13.35535 L 2.229134 15.238248 L 0.350126 13.35535 L 2.229134 11.468561 Z M 4.115922 13.35535 " transform="matrix(1.004104, 0, 0, 1.004104, 0, 0)"/>
<path fill-rule="nonzero" fill="rgb(100%, 100%, 100%)" fill-opacity="1" stroke-width="0.0926502" stroke-linecap="butt" stroke-linejoin="miter" stroke="rgb(0%, 0%, 0%)" stroke-opacity="1" stroke-miterlimit="10" d="M 4.115922 20.960857 L 2.229134 22.839865 L 0.350126 20.960857 L 2.229134 19.070179 Z M 4.115922 20.960857 " transform="matrix(1.004104, 0, 0, 1.004104, 0, 0)"/>
<path fill-rule="nonzero" fill="rgb(100%, 100%, 100%)" fill-opacity="1" stroke-width="0.0926502" stroke-linecap="butt" stroke-linejoin="miter" stroke="rgb(0%, 0%, 0%)" stroke-opacity="1" stroke-miterlimit="10" d="M 4.115922 17.156158 L 2.229134 19.039057 L 0.350126 17.156158 L 2.229134 15.26937 Z M 4.115922 17.156158 " transform="matrix(1.004104, 0, 0, 1.004104, 0, 0)"/>
</svg>
