<?xml version="1.0" encoding="UTF-8"?>
<svg xmlns="http://www.w3.org/2000/svg" xmlns:xlink="http://www.w3.org/1999/xlink" width="11.999999" height="12" viewBox="0 0 11.999999 12">
<rect x="-1.2" y="-1.2" width="14.399999" height="14.4" fill="rgb(0%, 0%, 0%)" fill-opacity="1"/>
<path fill-rule="nonzero" fill="rgb(100%, 100%, 100%)" fill-opacity="1" d="M 5.863281 1.101562 C 5.171875 1.136719 4.515625 1.425781 4.023438 1.917969 C 3.222656 2.71875 2.980469 3.921875 3.414062 4.96875 C 3.847656 6.015625 4.867188 6.699219 6 6.699219 C 6.566406 6.699219 7.078125 7.039062 7.292969 7.5625 C 7.507812 8.085938 7.390625 8.6875 6.988281 9.089844 C 6.589844 9.488281 5.984375 9.609375 5.460938 9.394531 C 4.9375 9.175781 4.597656 8.664062 4.597656 8.101562 L 3.199219 8.101562 C 3.199219 9.230469 3.878906 10.253906 4.925781 10.6875 C 5.308594 10.84375 5.722656 10.917969 6.136719 10.898438 C 6.828125 10.863281 7.484375 10.574219 7.976562 10.082031 C 8.78125 9.28125 9.019531 8.078125 8.585938 7.03125 C 8.152344 5.984375 7.132812 5.300781 6 5.300781 C 5.433594 5.300781 4.921875 4.960938 4.707031 4.4375 C 4.492188 3.914062 4.609375 3.3125 5.011719 2.910156 C 5.410156 2.511719 6.015625 2.390625 6.539062 2.605469 C 7.0625 2.824219 7.402344 3.335938 7.402344 3.898438 L 8.800781 3.898438 C 8.800781 2.769531 8.121094 1.746094 7.074219 1.3125 C 6.691406 1.152344 6.277344 1.082031 5.863281 1.101562 Z M 5.863281 1.101562 "/>
</svg>
