<?xml version="1.0" encoding="UTF-8"?>
<svg xmlns="http://www.w3.org/2000/svg" xmlns:xlink="http://www.w3.org/1999/xlink" width="11.657144" height="15" viewBox="0 0 11.657144 15">
<defs>
<filter id="filter-remove-color" x="0%" y="0%" width="100%" height="100%">
<feColorMatrix color-interpolation-filters="sRGB" values="0 0 0 0 1 0 0 0 0 1 0 0 0 0 1 0 0 0 1 0" />
</filter>
<mask id="mask-0">
<g filter="url(#filter-remove-color)">
<rect x="-1.165714" y="-1.5" width="13.988573" height="18" fill="rgb(0%, 0%, 0%)" fill-opacity="0.99"/>
</g>
</mask>
<clipPath id="clip-0">
<rect x="0" y="0" width="12" height="16"/>
</clipPath>
<g id="source-5" clip-path="url(#clip-0)">
<path fill-rule="nonzero" fill="rgb(100%, 100%, 100%)" fill-opacity="1" d="M 10.15625 5.710938 C 10.15625 6.082031 9.855469 6.382812 9.484375 6.382812 C 9.113281 6.382812 8.8125 6.082031 8.8125 5.710938 C 8.8125 5.339844 9.113281 5.042969 9.484375 5.042969 C 9.855469 5.042969 10.15625 5.339844 10.15625 5.710938 Z M 10.15625 5.710938 "/>
</g>
<mask id="mask-1">
<g filter="url(#filter-remove-color)">
<rect x="-1.165714" y="-1.5" width="13.988573" height="18" fill="rgb(0%, 0%, 0%)" fill-opacity="0.99"/>
</g>
</mask>
<clipPath id="clip-1">
<rect x="0" y="0" width="12" height="16"/>
</clipPath>
<g id="source-8" clip-path="url(#clip-1)">
<path fill-rule="nonzero" fill="rgb(100%, 100%, 100%)" fill-opacity="1" d="M 10.15625 3.925781 C 10.15625 4.296875 9.855469 4.597656 9.484375 4.597656 C 9.113281 4.597656 8.8125 4.296875 8.8125 3.925781 C 8.8125 3.554688 9.113281 3.253906 9.484375 3.253906 C 9.855469 3.253906 10.15625 3.554688 10.15625 3.925781 Z M 10.15625 3.925781 "/>
</g>
<mask id="mask-2">
<g filter="url(#filter-remove-color)">
<rect x="-1.165714" y="-1.5" width="13.988573" height="18" fill="rgb(0%, 0%, 0%)" fill-opacity="0.99"/>
</g>
</mask>
<clipPath id="clip-2">
<rect x="0" y="0" width="12" height="16"/>
</clipPath>
<g id="source-11" clip-path="url(#clip-2)">
<path fill-rule="nonzero" fill="rgb(100%, 100%, 100%)" fill-opacity="1" d="M 8.328125 7.511719 C 8.328125 7.878906 8.027344 8.179688 7.65625 8.179688 C 7.285156 8.179688 6.984375 7.878906 6.984375 7.511719 C 6.984375 7.140625 7.285156 6.839844 7.65625 6.839844 C 8.027344 6.839844 8.328125 7.140625 8.328125 7.511719 Z M 8.328125 7.511719 "/>
</g>
<mask id="mask-3">
<g filter="url(#filter-remove-color)">
<rect x="-1.165714" y="-1.5" width="13.988573" height="18" fill="rgb(0%, 0%, 0%)" fill-opacity="0.99"/>
</g>
</mask>
<clipPath id="clip-3">
<rect x="0" y="0" width="12" height="16"/>
</clipPath>
<g id="source-14" clip-path="url(#clip-3)">
<path fill-rule="nonzero" fill="rgb(100%, 100%, 100%)" fill-opacity="1" d="M 8.328125 2.140625 C 8.328125 2.507812 8.027344 2.808594 7.65625 2.808594 C 7.285156 2.808594 6.984375 2.507812 6.984375 2.140625 C 6.984375 1.769531 7.285156 1.46875 7.65625 1.46875 C 8.027344 1.46875 8.328125 1.769531 8.328125 2.140625 Z M 8.328125 2.140625 "/>
</g>
<mask id="mask-4">
<g filter="url(#filter-remove-color)">
<rect x="-1.165714" y="-1.5" width="13.988573" height="18" fill="rgb(0%, 0%, 0%)" fill-opacity="0.99"/>
</g>
</mask>
<clipPath id="clip-4">
<rect x="0" y="0" width="12" height="16"/>
</clipPath>
<g id="source-17" clip-path="url(#clip-4)">
<path fill-rule="nonzero" fill="rgb(100%, 100%, 100%)" fill-opacity="1" d="M 6.539062 2.140625 C 6.539062 2.507812 6.238281 2.808594 5.867188 2.808594 C 5.5 2.808594 5.199219 2.507812 5.199219 2.140625 C 5.199219 1.769531 5.5 1.46875 5.867188 1.46875 C 6.238281 1.46875 6.539062 1.769531 6.539062 2.140625 Z M 6.539062 2.140625 "/>
</g>
<mask id="mask-5">
<g filter="url(#filter-remove-color)">
<rect x="-1.165714" y="-1.5" width="13.988573" height="18" fill="rgb(0%, 0%, 0%)" fill-opacity="0.99"/>
</g>
</mask>
<clipPath id="clip-5">
<rect x="0" y="0" width="12" height="16"/>
</clipPath>
<g id="source-20" clip-path="url(#clip-5)">
<path fill-rule="nonzero" fill="rgb(100%, 100%, 100%)" fill-opacity="1" d="M 6.539062 9.285156 C 6.539062 9.65625 6.238281 9.957031 5.867188 9.957031 C 5.5 9.957031 5.199219 9.65625 5.199219 9.285156 C 5.199219 8.914062 5.5 8.613281 5.867188 8.613281 C 6.238281 8.613281 6.539062 8.914062 6.539062 9.285156 Z M 6.539062 9.285156 "/>
</g>
<mask id="mask-6">
<g filter="url(#filter-remove-color)">
<rect x="-1.165714" y="-1.5" width="13.988573" height="18" fill="rgb(0%, 0%, 0%)" fill-opacity="0.99"/>
</g>
</mask>
<clipPath id="clip-6">
<rect x="0" y="0" width="12" height="16"/>
</clipPath>
<g id="source-23" clip-path="url(#clip-6)">
<path fill-rule="nonzero" fill="rgb(100%, 100%, 100%)" fill-opacity="1" d="M 6.539062 12.9375 C 6.539062 13.308594 6.238281 13.609375 5.867188 13.609375 C 5.5 13.609375 5.199219 13.308594 5.199219 12.9375 C 5.199219 12.566406 5.5 12.265625 5.867188 12.265625 C 6.238281 12.265625 6.539062 12.566406 6.539062 12.9375 Z M 6.539062 12.9375 "/>
</g>
<mask id="mask-7">
<g filter="url(#filter-remove-color)">
<rect x="-1.165714" y="-1.5" width="13.988573" height="18" fill="rgb(0%, 0%, 0%)" fill-opacity="0.99"/>
</g>
</mask>
<clipPath id="clip-7">
<rect x="0" y="0" width="12" height="16"/>
</clipPath>
<g id="source-26" clip-path="url(#clip-7)">
<path fill-rule="nonzero" fill="rgb(100%, 100%, 100%)" fill-opacity="1" d="M 2.84375 3.925781 C 2.84375 4.296875 2.542969 4.597656 2.171875 4.597656 C 1.800781 4.597656 1.5 4.296875 1.5 3.925781 C 1.5 3.554688 1.800781 3.253906 2.171875 3.253906 C 2.542969 3.253906 2.84375 3.554688 2.84375 3.925781 Z M 2.84375 3.925781 "/>
</g>
<mask id="mask-8">
<g filter="url(#filter-remove-color)">
<rect x="-1.165714" y="-1.5" width="13.988573" height="18" fill="rgb(0%, 0%, 0%)" fill-opacity="0.99"/>
</g>
</mask>
<clipPath id="clip-8">
<rect x="0" y="0" width="12" height="16"/>
</clipPath>
<g id="source-29" clip-path="url(#clip-8)">
<path fill-rule="nonzero" fill="rgb(100%, 100%, 100%)" fill-opacity="1" d="M 4.679688 2.140625 C 4.679688 2.507812 4.382812 2.808594 4.011719 2.808594 C 3.640625 2.808594 3.339844 2.507812 3.339844 2.140625 C 3.339844 1.769531 3.640625 1.46875 4.011719 1.46875 C 4.382812 1.46875 4.679688 1.769531 4.679688 2.140625 Z M 4.679688 2.140625 "/>
</g>
</defs>
<path fill-rule="nonzero" fill="rgb(0%, 0%, 0%)" fill-opacity="1" d="M 0 0 L 11.65625 0 L 11.65625 15 L 0 15 Z M 0 0 "/>
<g mask="url(#mask-0)">
<use xlink:href="#source-5"/>
</g>
<g mask="url(#mask-1)">
<use xlink:href="#source-8"/>
</g>
<g mask="url(#mask-2)">
<use xlink:href="#source-11"/>
</g>
<g mask="url(#mask-3)">
<use xlink:href="#source-14"/>
</g>
<g mask="url(#mask-4)">
<use xlink:href="#source-17"/>
</g>
<g mask="url(#mask-5)">
<use xlink:href="#source-20"/>
</g>
<g mask="url(#mask-6)">
<use xlink:href="#source-23"/>
</g>
<g mask="url(#mask-7)">
<use xlink:href="#source-26"/>
</g>
<g mask="url(#mask-8)">
<use xlink:href="#source-29"/>
</g>
</svg>
