<?xml version="1.0" encoding="UTF-8"?>
<svg xmlns="http://www.w3.org/2000/svg" xmlns:xlink="http://www.w3.org/1999/xlink" width="11.999999" height="12" viewBox="0 0 11.999999 12">
<rect x="-1.2" y="-1.2" width="14.399999" height="14.4" fill="rgb(0%, 0%, 0%)" fill-opacity="1"/>
<path fill-rule="nonzero" fill="rgb(100%, 100%, 100%)" fill-opacity="1" d="M 6 1.101562 C 4.453125 1.101562 3.199219 2.351562 3.199219 3.898438 L 3.199219 8.101562 C 3.199219 9.101562 3.734375 10.023438 4.601562 10.523438 C 5.464844 11.023438 6.535156 11.023438 7.398438 10.523438 C 8.265625 10.023438 8.800781 9.101562 8.800781 8.101562 L 8.800781 3.898438 C 8.800781 2.351562 7.546875 1.101562 6 1.101562 Z M 6 2.5 C 6.773438 2.5 7.398438 3.125 7.398438 3.898438 L 7.398438 8.101562 C 7.398438 8.601562 7.132812 9.0625 6.699219 9.3125 C 6.265625 9.5625 5.730469 9.5625 5.296875 9.3125 C 4.863281 9.0625 4.597656 8.601562 4.597656 8.101562 L 4.597656 3.898438 C 4.597656 3.125 5.222656 2.5 5.996094 2.5 Z M 6 2.5 "/>
</svg>
