<?xml version="1.0" encoding="UTF-8"?>
<svg xmlns="http://www.w3.org/2000/svg" xmlns:xlink="http://www.w3.org/1999/xlink" width="14.765715" height="19" viewBox="0 0 14.765715 19">
<path fill-rule="nonzero" fill="rgb(0%, 0%, 0%)" fill-opacity="1" d="M 0 0 L 14.765625 0 L 14.765625 19 L 0 19 Z M 0 0 "/>
<path fill-rule="nonzero" fill="rgb(100%, 100%, 100%)" fill-opacity="1" d="M 12.863281 7.234375 C 12.863281 7.703125 12.484375 8.085938 12.011719 8.085938 C 11.542969 8.085938 11.164062 7.703125 11.164062 7.234375 C 11.164062 6.765625 11.542969 6.386719 12.011719 6.386719 C 12.484375 6.386719 12.863281 6.765625 12.863281 7.234375 Z M 12.863281 7.234375 "/>
<path fill-rule="nonzero" fill="rgb(100%, 100%, 100%)" fill-opacity="1" d="M 12.863281 4.972656 C 12.863281 5.441406 12.484375 5.824219 12.011719 5.824219 C 11.542969 5.824219 11.164062 5.441406 11.164062 4.972656 C 11.164062 4.503906 11.542969 4.121094 12.011719 4.121094 C 12.484375 4.121094 12.863281 4.503906 12.863281 4.972656 Z M 12.863281 4.972656 "/>
<path fill-rule="nonzero" fill="rgb(100%, 100%, 100%)" fill-opacity="1" d="M 10.550781 9.515625 C 10.550781 9.980469 10.167969 10.359375 9.699219 10.359375 C 9.226562 10.359375 8.847656 9.980469 8.847656 9.515625 C 8.847656 9.042969 9.226562 8.664062 9.699219 8.664062 C 10.167969 8.664062 10.550781 9.042969 10.550781 9.515625 Z M 10.550781 9.515625 "/>
<path fill-rule="nonzero" fill="rgb(100%, 100%, 100%)" fill-opacity="1" d="M 10.550781 2.710938 C 10.550781 3.175781 10.167969 3.558594 9.699219 3.558594 C 9.226562 3.558594 8.847656 3.175781 8.847656 2.710938 C 8.847656 2.242188 9.226562 1.859375 9.699219 1.859375 C 10.167969 1.859375 10.550781 2.242188 10.550781 2.710938 Z M 10.550781 2.710938 "/>
<path fill-rule="nonzero" fill="rgb(100%, 100%, 100%)" fill-opacity="1" d="M 8.28125 2.710938 C 8.28125 3.175781 7.902344 3.558594 7.433594 3.558594 C 6.964844 3.558594 6.585938 3.175781 6.585938 2.710938 C 6.585938 2.242188 6.964844 1.859375 7.433594 1.859375 C 7.902344 1.859375 8.28125 2.242188 8.28125 2.710938 Z M 8.28125 2.710938 "/>
<path fill-rule="nonzero" fill="rgb(100%, 100%, 100%)" fill-opacity="1" d="M 8.28125 11.761719 C 8.28125 12.230469 7.902344 12.613281 7.433594 12.613281 C 6.964844 12.613281 6.585938 12.230469 6.585938 11.761719 C 6.585938 11.292969 6.964844 10.910156 7.433594 10.910156 C 7.902344 10.910156 8.28125 11.292969 8.28125 11.761719 Z M 8.28125 11.761719 "/>
<path fill-rule="nonzero" fill="rgb(100%, 100%, 100%)" fill-opacity="1" d="M 8.28125 16.386719 C 8.28125 16.859375 7.902344 17.238281 7.433594 17.238281 C 6.964844 17.238281 6.585938 16.859375 6.585938 16.386719 C 6.585938 15.917969 6.964844 15.535156 7.433594 15.535156 C 7.902344 15.535156 8.28125 15.917969 8.28125 16.386719 Z M 8.28125 16.386719 "/>
<path fill-rule="nonzero" fill="rgb(100%, 100%, 100%)" fill-opacity="1" d="M 3.601562 4.972656 C 3.601562 5.441406 3.222656 5.824219 2.75 5.824219 C 2.28125 5.824219 1.898438 5.441406 1.898438 4.972656 C 1.898438 4.503906 2.28125 4.121094 2.75 4.121094 C 3.222656 4.121094 3.601562 4.503906 3.601562 4.972656 Z M 3.601562 4.972656 "/>
<path fill-rule="nonzero" fill="rgb(100%, 100%, 100%)" fill-opacity="1" d="M 5.925781 2.710938 C 5.925781 3.175781 5.550781 3.558594 5.082031 3.558594 C 4.613281 3.558594 4.230469 3.175781 4.230469 2.710938 C 4.230469 2.242188 4.613281 1.859375 5.082031 1.859375 C 5.550781 1.859375 5.925781 2.242188 5.925781 2.710938 Z M 5.925781 2.710938 "/>
</svg>
