<?xml version="1.0" encoding="UTF-8"?>
<svg xmlns="http://www.w3.org/2000/svg" xmlns:xlink="http://www.w3.org/1999/xlink" width="11.999999" height="12" viewBox="0 0 11.999999 12">
<rect x="-1.2" y="-1.2" width="14.399999" height="14.4" fill="rgb(0%, 0%, 0%)" fill-opacity="1"/>
<path fill-rule="nonzero" fill="rgb(100%, 100%, 100%)" fill-opacity="1" d="M 4.914062 9.558594 L 6.339844 9.558594 L 6.339844 11.34375 L 4.914062 11.34375 Z M 6.300781 8.523438 L 4.957031 8.523438 L 4.957031 7.441406 C 4.957031 6.96875 5.019531 6.578125 5.152344 6.273438 C 5.285156 5.96875 5.558594 5.617188 5.980469 5.210938 L 6.617188 4.585938 C 6.882812 4.335938 7.074219 4.101562 7.191406 3.882812 C 7.3125 3.664062 7.375 3.4375 7.375 3.207031 C 7.375 2.789062 7.21875 2.453125 6.910156 2.195312 C 6.605469 1.9375 6.199219 1.808594 5.695312 1.808594 C 5.324219 1.808594 4.925781 1.890625 4.503906 2.054688 C 4.089844 2.21875 3.652344 2.457031 3.199219 2.773438 L 3.199219 1.449219 C 3.636719 1.183594 4.082031 0.984375 4.535156 0.851562 C 4.988281 0.71875 5.457031 0.65625 5.941406 0.65625 C 6.804688 0.65625 7.496094 0.882812 8.015625 1.335938 C 8.539062 1.792969 8.800781 2.390625 8.800781 3.136719 C 8.800781 3.492188 8.71875 3.832031 8.550781 4.15625 C 8.378906 4.476562 8.085938 4.835938 7.664062 5.242188 L 7.042969 5.84375 C 6.824219 6.066406 6.667969 6.238281 6.574219 6.367188 C 6.484375 6.488281 6.421875 6.605469 6.382812 6.722656 C 6.355469 6.824219 6.335938 6.941406 6.320312 7.082031 C 6.304688 7.222656 6.300781 7.414062 6.300781 7.660156 Z M 6.300781 8.523438 "/>
</svg>
