<?xml version="1.0" encoding="UTF-8"?>
<svg xmlns="http://www.w3.org/2000/svg" xmlns:xlink="http://www.w3.org/1999/xlink" width="11.999999" height="12" viewBox="0 0 11.999999 12">
<rect x="-1.2" y="-1.2" width="14.399999" height="14.4" fill="rgb(0%, 0%, 0%)" fill-opacity="1"/>
<path fill-rule="nonzero" fill="rgb(100%, 100%, 100%)" fill-opacity="1" d="M 2.894531 2.886719 L 3.996094 2.886719 L 3.996094 7.816406 C 3.996094 8.6875 4.15625 9.3125 4.46875 9.699219 C 4.785156 10.078125 5.296875 10.269531 6.003906 10.269531 C 6.707031 10.269531 7.214844 10.078125 7.53125 9.699219 C 7.84375 9.3125 8.003906 8.6875 8.003906 7.816406 L 8.003906 2.886719 L 9.105469 2.886719 L 9.105469 7.953125 C 9.105469 9.011719 8.84375 9.8125 8.316406 10.351562 C 7.796875 10.890625 7.023438 11.160156 6.003906 11.160156 C 4.976562 11.160156 4.203125 10.890625 3.675781 10.351562 C 3.15625 9.8125 2.894531 9.011719 2.894531 7.953125 Z M 6.511719 0.839844 L 7.617188 0.839844 L 7.617188 1.941406 L 6.511719 1.941406 Z M 4.386719 0.839844 L 5.492188 0.839844 L 5.492188 1.941406 L 4.386719 1.941406 Z M 4.386719 0.839844 "/>
</svg>
