<?xml version="1.0" encoding="UTF-8"?>
<svg xmlns="http://www.w3.org/2000/svg" xmlns:xlink="http://www.w3.org/1999/xlink" width="11.999999" height="12" viewBox="0 0 11.999999 12">
<rect x="-1.2" y="-1.2" width="14.399999" height="14.4" fill="rgb(0%, 0%, 0%)" fill-opacity="1"/>
<path fill-rule="nonzero" fill="rgb(99.607843%, 98.823529%, 36.470588%)" fill-opacity="1" d="M 6.007812 1.734375 C 5.144531 1.734375 4.460938 2.054688 3.953125 2.695312 C 3.449219 3.335938 3.199219 4.207031 3.199219 5.3125 C 3.199219 6.417969 3.449219 7.289062 3.953125 7.929688 C 4.460938 8.570312 5.144531 8.890625 6.007812 8.890625 C 6.867188 8.890625 7.546875 8.570312 8.046875 7.929688 C 8.550781 7.289062 8.800781 6.417969 8.800781 5.3125 C 8.800781 4.207031 8.550781 3.335938 8.046875 2.695312 C 7.546875 2.054688 6.867188 1.734375 6.007812 1.734375 Z M 7.664062 9.523438 L 9.222656 11.230469 L 7.792969 11.230469 L 6.5 9.828125 C 6.371094 9.835938 6.269531 9.839844 6.199219 9.84375 C 6.132812 9.847656 6.070312 9.851562 6.007812 9.851562 C 4.773438 9.851562 3.789062 9.441406 3.050781 8.621094 C 2.316406 7.796875 1.949219 6.695312 1.949219 5.3125 C 1.949219 3.929688 2.316406 2.828125 3.050781 2.007812 C 3.789062 1.183594 4.773438 0.769531 6.007812 0.769531 C 7.234375 0.769531 8.214844 1.183594 8.949219 2.007812 C 9.683594 2.828125 10.050781 3.929688 10.050781 5.3125 C 10.050781 6.332031 9.84375 7.199219 9.433594 7.921875 C 9.027344 8.644531 8.4375 9.179688 7.664062 9.523438 Z M 7.664062 9.523438 "/>
</svg>
