<?xml version="1.0" encoding="UTF-8"?>
<svg xmlns="http://www.w3.org/2000/svg" xmlns:xlink="http://www.w3.org/1999/xlink" width="11.999999" height="12" viewBox="0 0 11.999999 12">
<rect x="-1.2" y="-1.2" width="14.399999" height="14.4" fill="rgb(0%, 0%, 0%)" fill-opacity="1"/>
<path fill-rule="nonzero" fill="rgb(99.607843%, 98.823529%, 36.470588%)" fill-opacity="1" d="M 6.003906 3.769531 C 5.253906 3.769531 4.65625 4.046875 4.210938 4.609375 C 3.769531 5.167969 3.550781 5.933594 3.550781 6.898438 C 3.550781 7.863281 3.769531 8.625 4.210938 9.1875 C 4.65625 9.746094 5.253906 10.027344 6.003906 10.027344 C 6.757812 10.027344 7.351562 9.746094 7.789062 9.1875 C 8.230469 8.625 8.449219 7.863281 8.449219 6.898438 C 8.449219 5.933594 8.230469 5.167969 7.789062 4.609375 C 7.351562 4.046875 6.757812 3.769531 6.003906 3.769531 Z M 6.003906 2.925781 C 7.078125 2.925781 7.9375 3.289062 8.578125 4.007812 C 9.222656 4.726562 9.542969 5.691406 9.542969 6.898438 C 9.542969 8.105469 9.222656 9.070312 8.578125 9.789062 C 7.9375 10.507812 7.078125 10.867188 6.003906 10.867188 C 4.929688 10.867188 4.066406 10.507812 3.421875 9.789062 C 2.777344 9.074219 2.457031 8.109375 2.457031 6.898438 C 2.457031 5.691406 2.777344 4.726562 3.421875 4.007812 C 4.066406 3.289062 4.929688 2.925781 6.003906 2.925781 Z M 6.488281 1.132812 L 7.527344 1.132812 L 7.527344 2.171875 L 6.488281 2.171875 Z M 4.484375 1.132812 L 5.523438 1.132812 L 5.523438 2.171875 L 4.484375 2.171875 Z M 4.484375 1.132812 "/>
</svg>
