<?xml version="1.0" encoding="UTF-8"?>
<svg xmlns="http://www.w3.org/2000/svg" xmlns:xlink="http://www.w3.org/1999/xlink" width="11.999999" height="12" viewBox="0 0 11.999999 12">
<rect x="-1.2" y="-1.2" width="14.399999" height="14.4" fill="rgb(0%, 0%, 0%)" fill-opacity="1"/>
<path fill-rule="nonzero" fill="rgb(99.607843%, 98.823529%, 36.470588%)" fill-opacity="1" d="M 3.199219 1.101562 L 3.199219 10.898438 L 6 10.898438 C 7.546875 10.898438 8.800781 9.644531 8.800781 8.101562 C 8.800781 7.296875 8.453125 6.53125 7.851562 6 C 8.453125 5.46875 8.800781 4.703125 8.800781 3.898438 C 8.800781 2.351562 7.546875 1.101562 6 1.101562 Z M 4.601562 2.5 L 6 2.5 C 6.773438 2.5 7.398438 3.125 7.398438 3.898438 C 7.398438 4.671875 6.773438 5.300781 6 5.300781 L 4.601562 5.300781 Z M 4.601562 6.699219 L 6 6.699219 C 6.773438 6.699219 7.398438 7.328125 7.398438 8.101562 C 7.398438 8.875 6.773438 9.5 6 9.5 L 4.601562 9.5 Z M 4.601562 6.699219 "/>
</svg>
