<?xml version="1.0" encoding="UTF-8"?>
<svg xmlns="http://www.w3.org/2000/svg" xmlns:xlink="http://www.w3.org/1999/xlink" width="11.999999" height="12" viewBox="0 0 11.999999 12">
<rect x="-1.2" y="-1.2" width="14.399999" height="14.4" fill="rgb(0%, 0%, 0%)" fill-opacity="1"/>
<path fill-rule="nonzero" fill="rgb(99.607843%, 98.823529%, 36.470588%)" fill-opacity="1" d="M 3.011719 3.457031 C 3.011719 2.589844 3.269531 1.917969 3.785156 1.445312 C 4.308594 0.96875 5.039062 0.730469 5.988281 0.730469 C 6.890625 0.730469 7.578125 0.980469 8.050781 1.484375 C 8.527344 1.988281 8.773438 2.726562 8.785156 3.699219 C 8.132812 3.734375 7.621094 3.875 7.257812 4.128906 C 6.890625 4.375 6.710938 4.707031 6.710938 5.125 C 6.710938 5.328125 6.773438 5.519531 6.898438 5.699219 C 7.023438 5.871094 7.226562 6.050781 7.511719 6.230469 L 7.882812 6.472656 C 8.601562 6.933594 9.066406 7.316406 9.273438 7.625 C 9.484375 7.933594 9.585938 8.304688 9.585938 8.738281 C 9.585938 9.484375 9.34375 10.058594 8.851562 10.457031 C 8.367188 10.851562 7.664062 11.046875 6.75 11.046875 C 6.472656 11.046875 6.183594 11.019531 5.890625 10.964844 C 5.59375 10.910156 5.289062 10.832031 4.972656 10.730469 L 4.972656 9.660156 C 5.320312 9.792969 5.644531 9.890625 5.949219 9.953125 C 6.25 10.015625 6.542969 10.046875 6.828125 10.046875 C 7.332031 10.046875 7.710938 9.945312 7.972656 9.738281 C 8.234375 9.53125 8.363281 9.230469 8.363281 8.835938 C 8.363281 8.5625 8.296875 8.332031 8.167969 8.152344 C 8.042969 7.96875 7.761719 7.742188 7.320312 7.472656 L 6.722656 7.117188 C 6.304688 6.859375 6.003906 6.585938 5.8125 6.296875 C 5.625 6 5.53125 5.65625 5.53125 5.261719 C 5.53125 4.710938 5.710938 4.246094 6.070312 3.875 C 6.4375 3.5 6.945312 3.25 7.601562 3.125 C 7.566406 2.679688 7.40625 2.332031 7.121094 2.089844 C 6.835938 1.847656 6.453125 1.726562 5.960938 1.726562 C 5.398438 1.726562 4.96875 1.878906 4.671875 2.183594 C 4.375 2.480469 4.230469 2.914062 4.230469 3.484375 L 4.230469 10.859375 L 3.011719 10.859375 Z M 3.011719 3.457031 "/>
</svg>
