<?xml version="1.0" encoding="UTF-8"?>
<svg xmlns="http://www.w3.org/2000/svg" xmlns:xlink="http://www.w3.org/1999/xlink" width="17.174262" height="15" viewBox="0 0 17.174262 15">
<path fill-rule="nonzero" fill="rgb(0%, 0%, 0%)" fill-opacity="1" stroke-width="10.15501" stroke-linecap="round" stroke-linejoin="round" stroke="rgb(100%, 100%, 100%)" stroke-opacity="1" stroke-miterlimit="4" d="M 194.422471 1047.267349 L 5.094833 1047.267349 L 100.077079 882.777023 L 194.922856 1047.039902 " transform="matrix(0.0858713, 0, 0, 0.0858713, 0, -75.36772)"/>
<path fill-rule="nonzero" fill="rgb(100%, 100%, 100%)" fill-opacity="1" d="M 7.625 8.171875 L 7.625 6.503906 L 10.496094 6.503906 L 10.496094 5.53125 L 6.757812 5.53125 L 6.757812 9.1875 C 6.757812 9.1875 7.390625 9.164062 7.707031 9.1875 C 7.875 8.820312 8.269531 8.675781 8.703125 8.675781 C 9.117188 8.675781 9.589844 9.152344 9.589844 9.441406 C 9.589844 10.179688 9.589844 9.984375 9.589844 10.664062 C 9.601562 12.054688 7.59375 11.933594 7.59375 10.84375 C 7.273438 10.84375 7.085938 10.839844 6.648438 10.839844 C 6.640625 11.625 7.453125 12.703125 8.582031 12.703125 C 9.832031 12.703125 10.558594 11.480469 10.558594 10.898438 C 10.558594 8.910156 10.558594 9.75 10.558594 9.125 C 10.558594 8.511719 9.773438 7.773438 8.929688 7.773438 C 8.277344 7.773438 8.039062 7.773438 7.625 8.171875 Z M 7.625 8.171875 "/>
</svg>
