<?xml version="1.0" encoding="UTF-8"?>
<svg xmlns="http://www.w3.org/2000/svg" xmlns:xlink="http://www.w3.org/1999/xlink" width="21.348316" height="19" viewBox="0 0 21.348316 19">
<path fill-rule="evenodd" fill="rgb(0%, 0%, 0%)" fill-opacity="1" stroke-width="10.15501" stroke-linecap="butt" stroke-linejoin="miter" stroke="rgb(100%, 100%, 100%)" stroke-opacity="1" stroke-miterlimit="4" d="M 189.467842 164.301756 L 0.0867635 164.301756 L 95.088364 -0.231061 L 189.906987 164.045589 " transform="matrix(0.106742, 0, 0, 0.106742, 0.533707, 0.567633)"/>
<path fill-rule="evenodd" fill="rgb(100%, 100%, 100%)" fill-opacity="1" d="M 10.746094 6.9375 C 9.664062 6.9375 8.875 7.664062 8.863281 8.820312 L 8.863281 9.808594 C 8.863281 10.246094 9.050781 10.761719 9.414062 11.113281 C 9.050781 11.46875 8.863281 11.964844 8.863281 12.398438 L 8.863281 13.914062 C 8.863281 15.070312 9.664062 15.796875 10.746094 15.796875 C 11.757812 15.796875 12.597656 15.085938 12.597656 13.914062 L 12.597656 12.398438 C 12.597656 11.964844 12.363281 11.398438 12.042969 11.113281 C 12.429688 10.730469 12.597656 10.238281 12.597656 9.796875 L 12.597656 8.820312 C 12.597656 7.648438 11.757812 6.9375 10.746094 6.9375 Z M 10.707031 8.003906 C 11.167969 8 11.527344 8.292969 11.527344 8.761719 L 11.527344 9.761719 C 11.527344 10.164062 11.230469 10.570312 10.726562 10.570312 C 10.226562 10.570312 9.925781 10.164062 9.925781 9.761719 L 9.929688 8.746094 C 9.929688 8.28125 10.339844 8.011719 10.707031 8.003906 Z M 10.726562 11.632812 C 11.191406 11.632812 11.527344 12 11.527344 12.417969 L 11.527344 13.894531 C 11.527344 14.347656 11.167969 14.632812 10.707031 14.621094 C 10.339844 14.621094 9.929688 14.359375 9.929688 13.902344 L 9.925781 12.417969 C 9.925781 11.992188 10.273438 11.632812 10.726562 11.632812 Z M 10.726562 11.632812 "/>
</svg>
