<?xml version="1.0" encoding="UTF-8"?>
<svg xmlns="http://www.w3.org/2000/svg" xmlns:xlink="http://www.w3.org/1999/xlink" width="17.174262" height="15" viewBox="0 0 17.174262 15">
<path fill-rule="nonzero" fill="rgb(0%, 0%, 0%)" fill-opacity="1" stroke-width="10.15501" stroke-linecap="round" stroke-linejoin="round" stroke="rgb(100%, 100%, 100%)" stroke-opacity="1" stroke-miterlimit="4" d="M 194.422471 1047.267349 L 5.094833 1047.267349 L 100.077079 882.777023 L 194.922856 1047.039902 " transform="matrix(0.0858713, 0, 0, 0.0858713, 0, -75.36772)"/>
<path fill-rule="nonzero" fill="rgb(100%, 100%, 100%)" fill-opacity="1" d="M 8.363281 5.480469 C 7.554688 5.523438 6.777344 6.019531 6.777344 7.144531 L 7.902344 7.144531 C 7.902344 6.113281 9.4375 6.296875 8.945312 7.144531 C 8.316406 8.238281 6.960938 10.613281 6.390625 11.65625 L 6.390625 12.699219 C 7.628906 12.699219 8.929688 12.699219 10.144531 12.699219 L 10.144531 11.65625 L 7.539062 11.65625 C 7.625 11.511719 9.046875 8.9375 10.082031 7.144531 C 10.496094 6.113281 9.402344 5.421875 8.363281 5.480469 Z M 8.363281 5.480469 "/>
</svg>
