<?xml version="1.0" encoding="UTF-8"?>
<svg xmlns="http://www.w3.org/2000/svg" xmlns:xlink="http://www.w3.org/1999/xlink" width="14.765716" height="19" viewBox="0 0 14.765716 19">
<path fill-rule="nonzero" fill="rgb(0%, 0%, 0%)" fill-opacity="1" d="M 0 0 L 14.765625 0 L 14.765625 19 L 0 19 Z M 0 0 "/>
<path fill-rule="nonzero" fill="rgb(100%, 100%, 100%)" fill-opacity="1" d="M 3.601562 4.972656 C 3.601562 5.441406 3.21875 5.820312 2.75 5.820312 C 2.285156 5.820312 1.902344 5.441406 1.902344 4.972656 C 1.902344 4.503906 2.285156 4.125 2.75 4.125 C 3.21875 4.125 3.601562 4.503906 3.601562 4.972656 Z M 3.601562 4.972656 "/>
<path fill-rule="nonzero" fill="rgb(100%, 100%, 100%)" fill-opacity="1" d="M 5.929688 2.710938 C 5.929688 3.179688 5.546875 3.558594 5.078125 3.558594 C 4.613281 3.558594 4.230469 3.179688 4.230469 2.710938 C 4.230469 2.238281 4.613281 1.859375 5.078125 1.859375 C 5.546875 1.859375 5.929688 2.238281 5.929688 2.710938 Z M 5.929688 2.710938 "/>
<path fill-rule="nonzero" fill="rgb(100%, 100%, 100%)" fill-opacity="1" d="M 8.238281 2.710938 C 8.238281 3.179688 7.855469 3.558594 7.386719 3.558594 C 6.921875 3.558594 6.539062 3.179688 6.539062 2.710938 C 6.539062 2.238281 6.921875 1.859375 7.386719 1.859375 C 7.855469 1.859375 8.238281 2.238281 8.238281 2.710938 Z M 8.238281 2.710938 "/>
<path fill-rule="nonzero" fill="rgb(100%, 100%, 100%)" fill-opacity="1" d="M 10.546875 2.710938 C 10.546875 3.179688 10.164062 3.558594 9.695312 3.558594 C 9.230469 3.558594 8.847656 3.179688 8.847656 2.710938 C 8.847656 2.238281 9.230469 1.859375 9.695312 1.859375 C 10.164062 1.859375 10.546875 2.238281 10.546875 2.710938 Z M 10.546875 2.710938 "/>
<path fill-rule="nonzero" fill="rgb(100%, 100%, 100%)" fill-opacity="1" d="M 12.863281 4.972656 C 12.863281 5.441406 12.480469 5.820312 12.011719 5.820312 C 11.546875 5.820312 11.164062 5.441406 11.164062 4.972656 C 11.164062 4.503906 11.546875 4.125 12.011719 4.125 C 12.480469 4.125 12.863281 4.503906 12.863281 4.972656 Z M 12.863281 4.972656 "/>
<path fill-rule="nonzero" fill="rgb(100%, 100%, 100%)" fill-opacity="1" d="M 12.863281 7.238281 C 12.863281 7.707031 12.480469 8.085938 12.011719 8.085938 C 11.546875 8.085938 11.164062 7.707031 11.164062 7.238281 C 11.164062 6.765625 11.546875 6.386719 12.011719 6.386719 C 12.480469 6.386719 12.863281 6.765625 12.863281 7.238281 Z M 12.863281 7.238281 "/>
<path fill-rule="nonzero" fill="rgb(100%, 100%, 100%)" fill-opacity="1" d="M 10.546875 9.546875 C 10.546875 10.019531 10.167969 10.398438 9.699219 10.398438 C 9.230469 10.398438 8.847656 10.019531 8.847656 9.546875 C 8.847656 9.078125 9.230469 8.699219 9.699219 8.699219 C 10.167969 8.699219 10.546875 9.078125 10.546875 9.546875 Z M 10.546875 9.546875 "/>
<path fill-rule="nonzero" fill="rgb(100%, 100%, 100%)" fill-opacity="1" d="M 8.285156 11.761719 C 8.285156 12.230469 7.902344 12.609375 7.433594 12.609375 C 6.964844 12.609375 6.582031 12.230469 6.582031 11.761719 C 6.582031 11.292969 6.964844 10.914062 7.433594 10.914062 C 7.902344 10.914062 8.285156 11.292969 8.285156 11.761719 Z M 8.285156 11.761719 "/>
<path fill-rule="nonzero" fill="rgb(100%, 100%, 100%)" fill-opacity="1" d="M 5.929688 14.054688 C 5.929688 14.523438 5.546875 14.902344 5.078125 14.902344 C 4.613281 14.902344 4.230469 14.523438 4.230469 14.054688 C 4.230469 13.582031 4.613281 13.203125 5.078125 13.203125 C 5.546875 13.203125 5.929688 13.582031 5.929688 14.054688 Z M 5.929688 14.054688 "/>
<path fill-rule="nonzero" fill="rgb(100%, 100%, 100%)" fill-opacity="1" d="M 12.8125 16.390625 C 12.8125 16.859375 12.429688 17.238281 11.960938 17.238281 C 11.496094 17.238281 11.113281 16.859375 11.113281 16.390625 C 11.113281 15.917969 11.496094 15.539062 11.960938 15.539062 C 12.429688 15.539062 12.8125 15.917969 12.8125 16.390625 Z M 12.8125 16.390625 "/>
<path fill-rule="nonzero" fill="rgb(100%, 100%, 100%)" fill-opacity="1" d="M 10.550781 16.386719 C 10.550781 16.855469 10.167969 17.238281 9.699219 17.238281 C 9.230469 17.238281 8.847656 16.855469 8.847656 16.386719 C 8.847656 15.917969 9.230469 15.539062 9.699219 15.539062 C 10.167969 15.539062 10.550781 15.917969 10.550781 16.386719 Z M 10.550781 16.386719 "/>
<path fill-rule="nonzero" fill="rgb(100%, 100%, 100%)" fill-opacity="1" d="M 8.285156 16.390625 C 8.285156 16.859375 7.902344 17.238281 7.433594 17.238281 C 6.96875 17.238281 6.585938 16.859375 6.585938 16.390625 C 6.585938 15.917969 6.96875 15.539062 7.433594 15.539062 C 7.902344 15.539062 8.285156 15.917969 8.285156 16.390625 Z M 8.285156 16.390625 "/>
<path fill-rule="nonzero" fill="rgb(100%, 100%, 100%)" fill-opacity="1" d="M 5.941406 16.390625 C 5.941406 16.859375 5.558594 17.238281 5.089844 17.238281 C 4.625 17.238281 4.242188 16.859375 4.242188 16.390625 C 4.242188 15.917969 4.625 15.539062 5.089844 15.539062 C 5.558594 15.539062 5.941406 15.917969 5.941406 16.390625 Z M 5.941406 16.390625 "/>
<path fill-rule="nonzero" fill="rgb(100%, 100%, 100%)" fill-opacity="1" d="M 3.589844 16.390625 C 3.589844 16.859375 3.207031 17.238281 2.738281 17.238281 C 2.273438 17.238281 1.890625 16.859375 1.890625 16.390625 C 1.890625 15.917969 2.273438 15.539062 2.738281 15.539062 C 3.207031 15.539062 3.589844 15.917969 3.589844 16.390625 Z M 3.589844 16.390625 "/>
</svg>
