<?xml version="1.0" encoding="UTF-8"?>
<svg xmlns="http://www.w3.org/2000/svg" xmlns:xlink="http://www.w3.org/1999/xlink" width="21.754064" height="19" viewBox="0 0 21.754064 19">
<path fill-rule="nonzero" fill="rgb(0%, 0%, 0%)" fill-opacity="1" stroke-width="10.15501" stroke-linecap="round" stroke-linejoin="round" stroke="rgb(100%, 100%, 100%)" stroke-opacity="1" stroke-miterlimit="4" d="M 194.432069 1047.262691 L 5.099622 1047.262691 L 100.089061 882.781923 L 194.934849 1047.047214 " transform="matrix(0.10877, 0, 0, 0.10877, 0, -95.465781)"/>
<path fill-rule="nonzero" fill="rgb(100%, 100%, 100%)" fill-opacity="1" d="M 9.660156 10.351562 L 9.660156 8.238281 L 13.296875 8.238281 L 13.296875 7.007812 L 8.558594 7.007812 L 8.558594 11.636719 C 8.558594 11.636719 9.363281 11.609375 9.761719 11.636719 C 9.976562 11.171875 10.476562 10.988281 11.023438 10.988281 C 11.546875 10.988281 12.148438 11.59375 12.148438 11.960938 C 12.148438 12.894531 12.148438 12.648438 12.148438 13.507812 C 12.160156 15.269531 9.617188 15.117188 9.617188 13.734375 C 9.214844 13.734375 8.976562 13.730469 8.421875 13.730469 C 8.410156 14.726562 9.441406 16.089844 10.871094 16.089844 C 12.453125 16.089844 13.375 14.542969 13.375 13.804688 C 13.375 11.285156 13.375 12.351562 13.375 11.558594 C 13.375 10.78125 12.378906 9.847656 11.3125 9.847656 C 10.484375 9.847656 10.183594 9.847656 9.660156 10.351562 Z M 9.660156 10.351562 "/>
</svg>
