<?xml version="1.0" encoding="UTF-8"?>
<svg xmlns="http://www.w3.org/2000/svg" xmlns:xlink="http://www.w3.org/1999/xlink" width="14.765716" height="19" viewBox="0 0 14.765716 19">
<defs>
<filter id="filter-remove-color" x="0%" y="0%" width="100%" height="100%">
<feColorMatrix color-interpolation-filters="sRGB" values="0 0 0 0 1 0 0 0 0 1 0 0 0 0 1 0 0 0 1 0" />
</filter>
<mask id="mask-0">
<g filter="url(#filter-remove-color)">
<rect x="-1.476572" y="-1.9" width="17.718859" height="22.8" fill="rgb(0%, 0%, 0%)" fill-opacity="0.99"/>
</g>
</mask>
<clipPath id="clip-0">
<rect x="0" y="0" width="15" height="19"/>
</clipPath>
<g id="source-5" clip-path="url(#clip-0)">
<path fill-rule="nonzero" fill="rgb(100%, 100%, 100%)" fill-opacity="1" d="M 1.902344 7.238281 C 1.902344 6.769531 2.28125 6.386719 2.75 6.386719 C 3.21875 6.386719 3.601562 6.769531 3.601562 7.238281 C 3.601562 7.707031 3.21875 8.089844 2.75 8.089844 C 2.28125 8.089844 1.902344 7.707031 1.902344 7.238281 Z M 1.902344 7.238281 "/>
</g>
<mask id="mask-1">
<g filter="url(#filter-remove-color)">
<rect x="-1.476572" y="-1.9" width="17.718859" height="22.8" fill="rgb(0%, 0%, 0%)" fill-opacity="0.99"/>
</g>
</mask>
<clipPath id="clip-1">
<rect x="0" y="0" width="15" height="19"/>
</clipPath>
<g id="source-8" clip-path="url(#clip-1)">
<path fill-rule="nonzero" fill="rgb(100%, 100%, 100%)" fill-opacity="1" d="M 1.902344 4.945312 C 1.902344 4.476562 2.28125 4.097656 2.75 4.097656 C 3.21875 4.097656 3.601562 4.476562 3.601562 4.945312 C 3.601562 5.417969 3.21875 5.796875 2.75 5.796875 C 2.28125 5.796875 1.902344 5.417969 1.902344 4.945312 Z M 1.902344 4.945312 "/>
</g>
<mask id="mask-2">
<g filter="url(#filter-remove-color)">
<rect x="-1.476572" y="-1.9" width="17.718859" height="22.8" fill="rgb(0%, 0%, 0%)" fill-opacity="0.99"/>
</g>
</mask>
<clipPath id="clip-2">
<rect x="0" y="0" width="15" height="19"/>
</clipPath>
<g id="source-11" clip-path="url(#clip-2)">
<path fill-rule="nonzero" fill="rgb(100%, 100%, 100%)" fill-opacity="1" d="M 4.214844 9.488281 C 4.214844 9.019531 4.597656 8.636719 5.066406 8.636719 C 5.535156 8.636719 5.917969 9.019531 5.917969 9.488281 C 5.917969 9.957031 5.535156 10.335938 5.066406 10.335938 C 4.597656 10.335938 4.214844 9.957031 4.214844 9.488281 Z M 4.214844 9.488281 "/>
</g>
<mask id="mask-3">
<g filter="url(#filter-remove-color)">
<rect x="-1.476572" y="-1.9" width="17.718859" height="22.8" fill="rgb(0%, 0%, 0%)" fill-opacity="0.99"/>
</g>
</mask>
<clipPath id="clip-3">
<rect x="0" y="0" width="15" height="19"/>
</clipPath>
<g id="source-14" clip-path="url(#clip-3)">
<path fill-rule="nonzero" fill="rgb(100%, 100%, 100%)" fill-opacity="1" d="M 4.214844 2.613281 C 4.214844 2.144531 4.597656 1.761719 5.066406 1.761719 C 5.535156 1.761719 5.917969 2.144531 5.917969 2.613281 C 5.917969 3.082031 5.535156 3.460938 5.066406 3.460938 C 4.597656 3.460938 4.214844 3.082031 4.214844 2.613281 Z M 4.214844 2.613281 "/>
</g>
<mask id="mask-4">
<g filter="url(#filter-remove-color)">
<rect x="-1.476572" y="-1.9" width="17.718859" height="22.8" fill="rgb(0%, 0%, 0%)" fill-opacity="0.99"/>
</g>
</mask>
<clipPath id="clip-4">
<rect x="0" y="0" width="15" height="19"/>
</clipPath>
<g id="source-17" clip-path="url(#clip-4)">
<path fill-rule="nonzero" fill="rgb(100%, 100%, 100%)" fill-opacity="1" d="M 4.214844 16.289062 C 4.214844 15.820312 4.597656 15.441406 5.066406 15.441406 C 5.535156 15.441406 5.917969 15.820312 5.917969 16.289062 C 5.917969 16.761719 5.535156 17.140625 5.066406 17.140625 C 4.597656 17.140625 4.214844 16.761719 4.214844 16.289062 Z M 4.214844 16.289062 "/>
</g>
<mask id="mask-5">
<g filter="url(#filter-remove-color)">
<rect x="-1.476572" y="-1.9" width="17.718859" height="22.8" fill="rgb(0%, 0%, 0%)" fill-opacity="0.99"/>
</g>
</mask>
<clipPath id="clip-5">
<rect x="0" y="0" width="15" height="19"/>
</clipPath>
<g id="source-20" clip-path="url(#clip-5)">
<path fill-rule="nonzero" fill="rgb(100%, 100%, 100%)" fill-opacity="1" d="M 6.480469 9.488281 C 6.480469 9.019531 6.863281 8.636719 7.332031 8.636719 C 7.800781 8.636719 8.183594 9.019531 8.183594 9.488281 C 8.183594 9.957031 7.800781 10.335938 7.332031 10.335938 C 6.863281 10.335938 6.480469 9.957031 6.480469 9.488281 Z M 6.480469 9.488281 "/>
</g>
<mask id="mask-6">
<g filter="url(#filter-remove-color)">
<rect x="-1.476572" y="-1.9" width="17.718859" height="22.8" fill="rgb(0%, 0%, 0%)" fill-opacity="0.99"/>
</g>
</mask>
<clipPath id="clip-6">
<rect x="0" y="0" width="15" height="19"/>
</clipPath>
<g id="source-23" clip-path="url(#clip-6)">
<path fill-rule="nonzero" fill="rgb(100%, 100%, 100%)" fill-opacity="1" d="M 6.480469 16.289062 C 6.480469 15.820312 6.863281 15.441406 7.332031 15.441406 C 7.800781 15.441406 8.183594 15.820312 8.183594 16.289062 C 8.183594 16.761719 7.800781 17.140625 7.332031 17.140625 C 6.863281 17.140625 6.480469 16.761719 6.480469 16.289062 Z M 6.480469 16.289062 "/>
</g>
<mask id="mask-7">
<g filter="url(#filter-remove-color)">
<rect x="-1.476572" y="-1.9" width="17.718859" height="22.8" fill="rgb(0%, 0%, 0%)" fill-opacity="0.99"/>
</g>
</mask>
<clipPath id="clip-7">
<rect x="0" y="0" width="15" height="19"/>
</clipPath>
<g id="source-26" clip-path="url(#clip-7)">
<path fill-rule="nonzero" fill="rgb(100%, 100%, 100%)" fill-opacity="1" d="M 6.480469 2.613281 C 6.480469 2.144531 6.863281 1.761719 7.332031 1.761719 C 7.800781 1.761719 8.183594 2.144531 8.183594 2.613281 C 8.183594 3.082031 7.800781 3.460938 7.332031 3.460938 C 6.863281 3.460938 6.480469 3.082031 6.480469 2.613281 Z M 6.480469 2.613281 "/>
</g>
<mask id="mask-8">
<g filter="url(#filter-remove-color)">
<rect x="-1.476572" y="-1.9" width="17.718859" height="22.8" fill="rgb(0%, 0%, 0%)" fill-opacity="0.99"/>
</g>
</mask>
<clipPath id="clip-8">
<rect x="0" y="0" width="15" height="19"/>
</clipPath>
<g id="source-29" clip-path="url(#clip-8)">
<path fill-rule="nonzero" fill="rgb(100%, 100%, 100%)" fill-opacity="1" d="M 11.164062 9.488281 C 11.164062 9.019531 11.546875 8.636719 12.015625 8.636719 C 12.484375 8.636719 12.863281 9.019531 12.863281 9.488281 C 12.863281 9.957031 12.484375 10.335938 12.015625 10.335938 C 11.546875 10.335938 11.164062 9.957031 11.164062 9.488281 Z M 11.164062 9.488281 "/>
</g>
<mask id="mask-9">
<g filter="url(#filter-remove-color)">
<rect x="-1.476572" y="-1.9" width="17.718859" height="22.8" fill="rgb(0%, 0%, 0%)" fill-opacity="0.99"/>
</g>
</mask>
<clipPath id="clip-9">
<rect x="0" y="0" width="15" height="19"/>
</clipPath>
<g id="source-32" clip-path="url(#clip-9)">
<path fill-rule="nonzero" fill="rgb(100%, 100%, 100%)" fill-opacity="1" d="M 11.164062 11.765625 C 11.164062 11.296875 11.546875 10.914062 12.015625 10.914062 C 12.484375 10.914062 12.863281 11.296875 12.863281 11.765625 C 12.863281 12.234375 12.484375 12.613281 12.015625 12.613281 C 11.546875 12.613281 11.164062 12.234375 11.164062 11.765625 Z M 11.164062 11.765625 "/>
</g>
<mask id="mask-10">
<g filter="url(#filter-remove-color)">
<rect x="-1.476572" y="-1.9" width="17.718859" height="22.8" fill="rgb(0%, 0%, 0%)" fill-opacity="0.99"/>
</g>
</mask>
<clipPath id="clip-10">
<rect x="0" y="0" width="15" height="19"/>
</clipPath>
<g id="source-35" clip-path="url(#clip-10)">
<path fill-rule="nonzero" fill="rgb(100%, 100%, 100%)" fill-opacity="1" d="M 11.164062 14.027344 C 11.164062 13.558594 11.546875 13.175781 12.015625 13.175781 C 12.484375 13.175781 12.863281 13.558594 12.863281 14.027344 C 12.863281 14.496094 12.484375 14.878906 12.015625 14.878906 C 11.546875 14.878906 11.164062 14.496094 11.164062 14.027344 Z M 11.164062 14.027344 "/>
</g>
<mask id="mask-11">
<g filter="url(#filter-remove-color)">
<rect x="-1.476572" y="-1.9" width="17.718859" height="22.8" fill="rgb(0%, 0%, 0%)" fill-opacity="0.99"/>
</g>
</mask>
<clipPath id="clip-11">
<rect x="0" y="0" width="15" height="19"/>
</clipPath>
<g id="source-38" clip-path="url(#clip-11)">
<path fill-rule="nonzero" fill="rgb(100%, 100%, 100%)" fill-opacity="1" d="M 11.164062 7.238281 C 11.164062 6.769531 11.546875 6.386719 12.015625 6.386719 C 12.484375 6.386719 12.863281 6.769531 12.863281 7.238281 C 12.863281 7.707031 12.484375 8.089844 12.015625 8.089844 C 11.546875 8.089844 11.164062 7.707031 11.164062 7.238281 Z M 11.164062 7.238281 "/>
</g>
<mask id="mask-12">
<g filter="url(#filter-remove-color)">
<rect x="-1.476572" y="-1.9" width="17.718859" height="22.8" fill="rgb(0%, 0%, 0%)" fill-opacity="0.99"/>
</g>
</mask>
<clipPath id="clip-12">
<rect x="0" y="0" width="15" height="19"/>
</clipPath>
<g id="source-41" clip-path="url(#clip-12)">
<path fill-rule="nonzero" fill="rgb(100%, 100%, 100%)" fill-opacity="1" d="M 11.164062 4.945312 C 11.164062 4.476562 11.546875 4.097656 12.015625 4.097656 C 12.484375 4.097656 12.863281 4.476562 12.863281 4.945312 C 12.863281 5.417969 12.484375 5.796875 12.015625 5.796875 C 11.546875 5.796875 11.164062 5.417969 11.164062 4.945312 Z M 11.164062 4.945312 "/>
</g>
<mask id="mask-13">
<g filter="url(#filter-remove-color)">
<rect x="-1.476572" y="-1.9" width="17.718859" height="22.8" fill="rgb(0%, 0%, 0%)" fill-opacity="0.99"/>
</g>
</mask>
<clipPath id="clip-13">
<rect x="0" y="0" width="15" height="19"/>
</clipPath>
<g id="source-44" clip-path="url(#clip-13)">
<path fill-rule="nonzero" fill="rgb(100%, 100%, 100%)" fill-opacity="1" d="M 8.835938 9.488281 C 8.835938 9.019531 9.214844 8.636719 9.6875 8.636719 C 10.15625 8.636719 10.535156 9.019531 10.535156 9.488281 C 10.535156 9.957031 10.15625 10.335938 9.6875 10.335938 C 9.214844 10.335938 8.835938 9.957031 8.835938 9.488281 Z M 8.835938 9.488281 "/>
</g>
<mask id="mask-14">
<g filter="url(#filter-remove-color)">
<rect x="-1.476572" y="-1.9" width="17.718859" height="22.8" fill="rgb(0%, 0%, 0%)" fill-opacity="0.99"/>
</g>
</mask>
<clipPath id="clip-14">
<rect x="0" y="0" width="15" height="19"/>
</clipPath>
<g id="source-47" clip-path="url(#clip-14)">
<path fill-rule="nonzero" fill="rgb(100%, 100%, 100%)" fill-opacity="1" d="M 8.835938 16.289062 C 8.835938 15.820312 9.214844 15.441406 9.6875 15.441406 C 10.15625 15.441406 10.535156 15.820312 10.535156 16.289062 C 10.535156 16.761719 10.15625 17.140625 9.6875 17.140625 C 9.214844 17.140625 8.835938 16.761719 8.835938 16.289062 Z M 8.835938 16.289062 "/>
</g>
<mask id="mask-15">
<g filter="url(#filter-remove-color)">
<rect x="-1.476572" y="-1.9" width="17.718859" height="22.8" fill="rgb(0%, 0%, 0%)" fill-opacity="0.99"/>
</g>
</mask>
<clipPath id="clip-15">
<rect x="0" y="0" width="15" height="19"/>
</clipPath>
<g id="source-50" clip-path="url(#clip-15)">
<path fill-rule="nonzero" fill="rgb(100%, 100%, 100%)" fill-opacity="1" d="M 8.835938 2.613281 C 8.835938 2.144531 9.214844 1.761719 9.6875 1.761719 C 10.15625 1.761719 10.535156 2.144531 10.535156 2.613281 C 10.535156 3.082031 10.15625 3.460938 9.6875 3.460938 C 9.214844 3.460938 8.835938 3.082031 8.835938 2.613281 Z M 8.835938 2.613281 "/>
</g>
</defs>
<path fill-rule="nonzero" fill="rgb(0%, 0%, 0%)" fill-opacity="1" d="M 14.765625 19 L 0 19 L 0 0 L 14.765625 0 Z M 14.765625 19 "/>
<g mask="url(#mask-0)">
<use xlink:href="#source-5"/>
</g>
<g mask="url(#mask-1)">
<use xlink:href="#source-8"/>
</g>
<g mask="url(#mask-2)">
<use xlink:href="#source-11"/>
</g>
<g mask="url(#mask-3)">
<use xlink:href="#source-14"/>
</g>
<g mask="url(#mask-4)">
<use xlink:href="#source-17"/>
</g>
<g mask="url(#mask-5)">
<use xlink:href="#source-20"/>
</g>
<g mask="url(#mask-6)">
<use xlink:href="#source-23"/>
</g>
<g mask="url(#mask-7)">
<use xlink:href="#source-26"/>
</g>
<g mask="url(#mask-8)">
<use xlink:href="#source-29"/>
</g>
<g mask="url(#mask-9)">
<use xlink:href="#source-32"/>
</g>
<g mask="url(#mask-10)">
<use xlink:href="#source-35"/>
</g>
<g mask="url(#mask-11)">
<use xlink:href="#source-38"/>
</g>
<g mask="url(#mask-12)">
<use xlink:href="#source-41"/>
</g>
<g mask="url(#mask-13)">
<use xlink:href="#source-44"/>
</g>
<g mask="url(#mask-14)">
<use xlink:href="#source-47"/>
</g>
<g mask="url(#mask-15)">
<use xlink:href="#source-50"/>
</g>
</svg>
