<?xml version="1.0" encoding="UTF-8"?>
<svg xmlns="http://www.w3.org/2000/svg" xmlns:xlink="http://www.w3.org/1999/xlink" width="21.754064" height="19" viewBox="0 0 21.754064 19">
<path fill-rule="nonzero" fill="rgb(0%, 0%, 0%)" fill-opacity="1" stroke-width="10.15501" stroke-linecap="round" stroke-linejoin="round" stroke="rgb(100%, 100%, 100%)" stroke-opacity="1" stroke-miterlimit="4" d="M 194.432069 1047.262691 L 5.099622 1047.262691 L 100.089061 882.781923 L 194.934849 1047.047214 " transform="matrix(0.10877, 0, 0, 0.10877, 0, -95.465781)"/>
<path fill-rule="nonzero" fill="rgb(100%, 100%, 100%)" fill-opacity="1" d="M 10.59375 6.941406 C 9.570312 6.996094 8.585938 7.625 8.585938 9.050781 L 10.007812 9.050781 C 10.007812 7.742188 11.953125 7.976562 11.332031 9.050781 C 10.535156 10.433594 8.816406 13.445312 8.09375 14.765625 L 8.09375 16.085938 C 9.664062 16.085938 11.3125 16.085938 12.851562 16.085938 L 12.851562 14.765625 L 9.550781 14.765625 C 9.660156 14.582031 11.460938 11.320312 12.769531 9.050781 C 13.296875 7.742188 11.910156 6.867188 10.59375 6.941406 Z M 10.59375 6.941406 "/>
</svg>
