<?xml version="1.0" encoding="UTF-8"?>
<svg xmlns="http://www.w3.org/2000/svg" xmlns:xlink="http://www.w3.org/1999/xlink" width="17.174262" height="15" viewBox="0 0 17.174262 15">
<path fill-rule="nonzero" fill="rgb(0%, 0%, 0%)" fill-opacity="1" stroke-width="10.15501" stroke-linecap="round" stroke-linejoin="round" stroke="rgb(100%, 100%, 100%)" stroke-opacity="1" stroke-miterlimit="4" d="M 194.422471 1047.267349 L 5.094833 1047.267349 L 100.077079 882.777023 L 194.922856 1047.039902 " transform="matrix(0.0858713, 0, 0, 0.0858713, 0, -75.36772)"/>
<path fill-rule="nonzero" fill="rgb(100%, 100%, 100%)" fill-opacity="1" d="M 8.574219 5.53125 C 8.574219 5.53125 7.121094 8.175781 6.414062 9.511719 C 5.753906 10.757812 6.601562 12.648438 8.128906 12.699219 C 9.941406 12.761719 10.320312 11.496094 10.308594 10.351562 C 10.300781 9.027344 9.085938 8.113281 8.121094 8.476562 C 9.210938 6.585938 9.675781 5.574219 9.675781 5.574219 Z M 8.3125 9.324219 C 8.949219 9.324219 9.285156 9.851562 9.285156 10.488281 C 9.285156 11.125 8.949219 11.628906 8.3125 11.628906 C 7.675781 11.628906 7.265625 11.164062 7.265625 10.527344 C 7.265625 9.890625 7.675781 9.324219 8.3125 9.324219 Z M 8.3125 9.324219 "/>
</svg>
