<?xml version="1.0" encoding="UTF-8"?>
<svg xmlns="http://www.w3.org/2000/svg" xmlns:xlink="http://www.w3.org/1999/xlink" width="16.853933" height="15" viewBox="0 0 16.853933 15">
<path fill-rule="evenodd" fill="rgb(0%, 0%, 0%)" fill-opacity="1" stroke-width="10.15501" stroke-linecap="butt" stroke-linejoin="miter" stroke="rgb(100%, 100%, 100%)" stroke-opacity="1" stroke-miterlimit="4" d="M 189.455729 164.292076 L 0.0989583 164.292076 L 95.078646 -0.218862 L 189.919271 164.060305 " transform="matrix(0.0842697, 0, 0, 0.0842697, 0.421348, 0.448131)"/>
<path fill-rule="evenodd" fill="rgb(100%, 100%, 100%)" fill-opacity="1" d="M 6.574219 6.320312 L 5.644531 7.246094 L 5.644531 8.359375 L 6.515625 7.46875 L 6.515625 12.976562 L 7.332031 12.976562 L 7.332031 6.320312 Z M 6.574219 6.320312 "/>
<path fill-rule="evenodd" fill="rgb(100%, 100%, 100%)" fill-opacity="1" d="M 8.425781 7.796875 L 8.425781 8.300781 L 9.257812 8.300781 L 9.257812 7.738281 C 9.257812 7.386719 9.566406 7.183594 9.84375 7.179688 C 10.1875 7.171875 10.457031 7.394531 10.457031 7.75 L 10.457031 8.652344 C 10.457031 9.03125 10.109375 9.207031 9.5625 9.207031 L 9.5625 9.230469 C 9.5625 9.230469 9.5625 9.605469 9.5625 9.605469 L 9.5625 9.980469 C 9.5625 9.980469 9.5625 10 9.5625 10 C 10.109375 10 10.457031 10.179688 10.457031 10.554688 L 10.457031 11.703125 C 10.457031 12.058594 10.1875 12.277344 9.84375 12.273438 C 9.566406 12.269531 9.257812 12.066406 9.257812 11.714844 L 9.257812 11.152344 L 8.425781 11.152344 L 8.425781 11.65625 C 8.425781 12.5625 9.035156 13.132812 9.871094 13.132812 C 10.644531 13.132812 11.289062 12.585938 11.289062 11.6875 L 11.289062 10.519531 C 11.289062 10.183594 11.140625 9.84375 10.746094 9.605469 C 11.140625 9.367188 11.289062 9.023438 11.289062 8.6875 L 11.289062 7.769531 C 11.289062 6.867188 10.644531 6.320312 9.871094 6.320312 C 9.035156 6.320312 8.425781 6.890625 8.425781 7.796875 Z M 8.425781 7.796875 "/>
</svg>
