<?xml version="1.0" encoding="UTF-8"?>
<svg xmlns="http://www.w3.org/2000/svg" xmlns:xlink="http://www.w3.org/1999/xlink" width="11.657144" height="15" viewBox="0 0 11.657144 15">
<defs>
<filter id="filter-remove-color" x="0%" y="0%" width="100%" height="100%">
<feColorMatrix color-interpolation-filters="sRGB" values="0 0 0 0 1 0 0 0 0 1 0 0 0 0 1 0 0 0 1 0" />
</filter>
<mask id="mask-0">
<g filter="url(#filter-remove-color)">
<rect x="-1.165714" y="-1.5" width="13.988573" height="18" fill="rgb(0%, 0%, 0%)" fill-opacity="0.99"/>
</g>
</mask>
<clipPath id="clip-0">
<rect x="0" y="0" width="12" height="16"/>
</clipPath>
<g id="source-5" clip-path="url(#clip-0)">
<path fill-rule="nonzero" fill="rgb(100%, 100%, 100%)" fill-opacity="1" d="M 9.867188 9.070312 C 9.867188 9.425781 9.578125 9.714844 9.222656 9.714844 C 8.867188 9.714844 8.578125 9.425781 8.578125 9.070312 C 8.578125 8.714844 8.867188 8.425781 9.222656 8.425781 C 9.578125 8.425781 9.867188 8.714844 9.867188 9.070312 Z M 9.867188 9.070312 "/>
</g>
<mask id="mask-1">
<g filter="url(#filter-remove-color)">
<rect x="-1.165714" y="-1.5" width="13.988573" height="18" fill="rgb(0%, 0%, 0%)" fill-opacity="0.99"/>
</g>
</mask>
<clipPath id="clip-1">
<rect x="0" y="0" width="12" height="16"/>
</clipPath>
<g id="source-8" clip-path="url(#clip-1)">
<path fill-rule="nonzero" fill="rgb(100%, 100%, 100%)" fill-opacity="1" d="M 9.867188 10.761719 C 9.867188 11.117188 9.578125 11.40625 9.222656 11.40625 C 8.867188 11.40625 8.578125 11.117188 8.578125 10.761719 C 8.578125 10.40625 8.867188 10.117188 9.222656 10.117188 C 9.578125 10.117188 9.867188 10.40625 9.867188 10.761719 Z M 9.867188 10.761719 "/>
</g>
<mask id="mask-2">
<g filter="url(#filter-remove-color)">
<rect x="-1.165714" y="-1.5" width="13.988573" height="18" fill="rgb(0%, 0%, 0%)" fill-opacity="0.99"/>
</g>
</mask>
<clipPath id="clip-2">
<rect x="0" y="0" width="12" height="16"/>
</clipPath>
<g id="source-11" clip-path="url(#clip-2)">
<path fill-rule="nonzero" fill="rgb(100%, 100%, 100%)" fill-opacity="1" d="M 8.238281 6.027344 C 8.238281 6.382812 7.949219 6.667969 7.59375 6.667969 C 7.238281 6.667969 6.949219 6.382812 6.949219 6.027344 C 6.949219 5.667969 7.238281 5.382812 7.59375 5.382812 C 7.949219 5.382812 8.238281 5.667969 8.238281 6.027344 Z M 8.238281 6.027344 "/>
</g>
<mask id="mask-3">
<g filter="url(#filter-remove-color)">
<rect x="-1.165714" y="-1.5" width="13.988573" height="18" fill="rgb(0%, 0%, 0%)" fill-opacity="0.99"/>
</g>
</mask>
<clipPath id="clip-3">
<rect x="0" y="0" width="12" height="16"/>
</clipPath>
<g id="source-14" clip-path="url(#clip-3)">
<path fill-rule="nonzero" fill="rgb(100%, 100%, 100%)" fill-opacity="1" d="M 8.683594 12.308594 C 8.683594 12.664062 8.394531 12.953125 8.039062 12.953125 C 7.683594 12.953125 7.394531 12.664062 7.394531 12.308594 C 7.394531 11.953125 7.683594 11.664062 8.039062 11.664062 C 8.394531 11.664062 8.683594 11.953125 8.683594 12.308594 Z M 8.683594 12.308594 "/>
</g>
<mask id="mask-4">
<g filter="url(#filter-remove-color)">
<rect x="-1.165714" y="-1.5" width="13.988573" height="18" fill="rgb(0%, 0%, 0%)" fill-opacity="0.99"/>
</g>
</mask>
<clipPath id="clip-4">
<rect x="0" y="0" width="12" height="16"/>
</clipPath>
<g id="source-17" clip-path="url(#clip-4)">
<path fill-rule="nonzero" fill="rgb(100%, 100%, 100%)" fill-opacity="1" d="M 8.167969 1.605469 C 8.167969 1.960938 7.878906 2.246094 7.523438 2.246094 C 7.167969 2.246094 6.878906 1.960938 6.878906 1.605469 C 6.878906 1.246094 7.167969 0.960938 7.523438 0.960938 C 7.878906 0.960938 8.167969 1.246094 8.167969 1.605469 Z M 8.167969 1.605469 "/>
</g>
<mask id="mask-5">
<g filter="url(#filter-remove-color)">
<rect x="-1.165714" y="-1.5" width="13.988573" height="18" fill="rgb(0%, 0%, 0%)" fill-opacity="0.99"/>
</g>
</mask>
<clipPath id="clip-5">
<rect x="0" y="0" width="12" height="16"/>
</clipPath>
<g id="source-20" clip-path="url(#clip-5)">
<path fill-rule="nonzero" fill="rgb(100%, 100%, 100%)" fill-opacity="1" d="M 6.449219 5.433594 C 6.449219 5.789062 6.160156 6.078125 5.804688 6.078125 C 5.449219 6.078125 5.160156 5.789062 5.160156 5.433594 C 5.160156 5.078125 5.449219 4.789062 5.804688 4.789062 C 6.160156 4.789062 6.449219 5.078125 6.449219 5.433594 Z M 6.449219 5.433594 "/>
</g>
<mask id="mask-6">
<g filter="url(#filter-remove-color)">
<rect x="-1.165714" y="-1.5" width="13.988573" height="18" fill="rgb(0%, 0%, 0%)" fill-opacity="0.99"/>
</g>
</mask>
<clipPath id="clip-6">
<rect x="0" y="0" width="12" height="16"/>
</clipPath>
<g id="source-23" clip-path="url(#clip-6)">
<path fill-rule="nonzero" fill="rgb(100%, 100%, 100%)" fill-opacity="1" d="M 6.542969 1.605469 C 6.542969 1.960938 6.253906 2.246094 5.898438 2.246094 C 5.542969 2.246094 5.253906 1.960938 5.253906 1.605469 C 5.253906 1.246094 5.542969 0.960938 5.898438 0.960938 C 6.253906 0.960938 6.542969 1.246094 6.542969 1.605469 Z M 6.542969 1.605469 "/>
</g>
<mask id="mask-7">
<g filter="url(#filter-remove-color)">
<rect x="-1.165714" y="-1.5" width="13.988573" height="18" fill="rgb(0%, 0%, 0%)" fill-opacity="0.99"/>
</g>
</mask>
<clipPath id="clip-7">
<rect x="0" y="0" width="12" height="16"/>
</clipPath>
<g id="source-26" clip-path="url(#clip-7)">
<path fill-rule="nonzero" fill="rgb(100%, 100%, 100%)" fill-opacity="1" d="M 7.453125 13.394531 C 7.453125 13.753906 7.164062 14.039062 6.808594 14.039062 C 6.453125 14.039062 6.164062 13.753906 6.164062 13.394531 C 6.164062 13.039062 6.453125 12.753906 6.808594 12.753906 C 7.164062 12.753906 7.453125 13.039062 7.453125 13.394531 Z M 7.453125 13.394531 "/>
</g>
<mask id="mask-8">
<g filter="url(#filter-remove-color)">
<rect x="-1.165714" y="-1.5" width="13.988573" height="18" fill="rgb(0%, 0%, 0%)" fill-opacity="0.99"/>
</g>
</mask>
<clipPath id="clip-8">
<rect x="0" y="0" width="12" height="16"/>
</clipPath>
<g id="source-29" clip-path="url(#clip-8)">
<path fill-rule="nonzero" fill="rgb(100%, 100%, 100%)" fill-opacity="1" d="M 3.078125 6.015625 C 3.078125 6.375 2.789062 6.660156 2.433594 6.660156 C 2.078125 6.660156 1.789062 6.375 1.789062 6.015625 C 1.789062 5.660156 2.078125 5.371094 2.433594 5.371094 C 2.789062 5.371094 3.078125 5.660156 3.078125 6.015625 Z M 3.078125 6.015625 "/>
</g>
<mask id="mask-9">
<g filter="url(#filter-remove-color)">
<rect x="-1.165714" y="-1.5" width="13.988573" height="18" fill="rgb(0%, 0%, 0%)" fill-opacity="0.99"/>
</g>
</mask>
<clipPath id="clip-9">
<rect x="0" y="0" width="12" height="16"/>
</clipPath>
<g id="source-32" clip-path="url(#clip-9)">
<path fill-rule="nonzero" fill="rgb(100%, 100%, 100%)" fill-opacity="1" d="M 3.078125 4.515625 C 3.078125 4.871094 2.789062 5.160156 2.433594 5.160156 C 2.078125 5.160156 1.789062 4.871094 1.789062 4.515625 C 1.789062 4.160156 2.078125 3.871094 2.433594 3.871094 C 2.789062 3.871094 3.078125 4.160156 3.078125 4.515625 Z M 3.078125 4.515625 "/>
</g>
<mask id="mask-10">
<g filter="url(#filter-remove-color)">
<rect x="-1.165714" y="-1.5" width="13.988573" height="18" fill="rgb(0%, 0%, 0%)" fill-opacity="0.99"/>
</g>
</mask>
<clipPath id="clip-10">
<rect x="0" y="0" width="12" height="16"/>
</clipPath>
<g id="source-35" clip-path="url(#clip-10)">
<path fill-rule="nonzero" fill="rgb(100%, 100%, 100%)" fill-opacity="1" d="M 3.078125 3.089844 C 3.078125 3.449219 2.789062 3.734375 2.433594 3.734375 C 2.078125 3.734375 1.789062 3.449219 1.789062 3.089844 C 1.789062 2.734375 2.078125 2.445312 2.433594 2.445312 C 2.789062 2.445312 3.078125 2.734375 3.078125 3.089844 Z M 3.078125 3.089844 "/>
</g>
<mask id="mask-11">
<g filter="url(#filter-remove-color)">
<rect x="-1.165714" y="-1.5" width="13.988573" height="18" fill="rgb(0%, 0%, 0%)" fill-opacity="0.99"/>
</g>
</mask>
<clipPath id="clip-11">
<rect x="0" y="0" width="12" height="16"/>
</clipPath>
<g id="source-38" clip-path="url(#clip-11)">
<path fill-rule="nonzero" fill="rgb(100%, 100%, 100%)" fill-opacity="1" d="M 3.078125 7.496094 C 3.078125 7.851562 2.789062 8.140625 2.433594 8.140625 C 2.078125 8.140625 1.789062 7.851562 1.789062 7.496094 C 1.789062 7.140625 2.078125 6.851562 2.433594 6.851562 C 2.789062 6.851562 3.078125 7.140625 3.078125 7.496094 Z M 3.078125 7.496094 "/>
</g>
<mask id="mask-12">
<g filter="url(#filter-remove-color)">
<rect x="-1.165714" y="-1.5" width="13.988573" height="18" fill="rgb(0%, 0%, 0%)" fill-opacity="0.99"/>
</g>
</mask>
<clipPath id="clip-12">
<rect x="0" y="0" width="12" height="16"/>
</clipPath>
<g id="source-41" clip-path="url(#clip-12)">
<path fill-rule="nonzero" fill="rgb(100%, 100%, 100%)" fill-opacity="1" d="M 3.078125 11.160156 C 3.078125 11.515625 2.789062 11.800781 2.433594 11.800781 C 2.078125 11.800781 1.789062 11.515625 1.789062 11.160156 C 1.789062 10.800781 2.078125 10.515625 2.433594 10.515625 C 2.789062 10.515625 3.078125 10.800781 3.078125 11.160156 Z M 3.078125 11.160156 "/>
</g>
<mask id="mask-13">
<g filter="url(#filter-remove-color)">
<rect x="-1.165714" y="-1.5" width="13.988573" height="18" fill="rgb(0%, 0%, 0%)" fill-opacity="0.99"/>
</g>
</mask>
<clipPath id="clip-13">
<rect x="0" y="0" width="12" height="16"/>
</clipPath>
<g id="source-44" clip-path="url(#clip-13)">
<path fill-rule="nonzero" fill="rgb(100%, 100%, 100%)" fill-opacity="1" d="M 4.761719 5.945312 C 4.761719 6.300781 4.472656 6.589844 4.117188 6.589844 C 3.761719 6.589844 3.472656 6.300781 3.472656 5.945312 C 3.472656 5.589844 3.761719 5.300781 4.117188 5.300781 C 4.472656 5.300781 4.761719 5.589844 4.761719 5.945312 Z M 4.761719 5.945312 "/>
</g>
<mask id="mask-14">
<g filter="url(#filter-remove-color)">
<rect x="-1.165714" y="-1.5" width="13.988573" height="18" fill="rgb(0%, 0%, 0%)" fill-opacity="0.99"/>
</g>
</mask>
<clipPath id="clip-14">
<rect x="0" y="0" width="12" height="16"/>
</clipPath>
<g id="source-47" clip-path="url(#clip-14)">
<path fill-rule="nonzero" fill="rgb(100%, 100%, 100%)" fill-opacity="1" d="M 4.6875 1.605469 C 4.6875 1.960938 4.398438 2.246094 4.042969 2.246094 C 3.683594 2.246094 3.398438 1.960938 3.398438 1.605469 C 3.398438 1.246094 3.683594 0.960938 4.042969 0.960938 C 4.398438 0.960938 4.6875 1.246094 4.6875 1.605469 Z M 4.6875 1.605469 "/>
</g>
<mask id="mask-15">
<g filter="url(#filter-remove-color)">
<rect x="-1.165714" y="-1.5" width="13.988573" height="18" fill="rgb(0%, 0%, 0%)" fill-opacity="0.99"/>
</g>
</mask>
<clipPath id="clip-15">
<rect x="0" y="0" width="12" height="16"/>
</clipPath>
<g id="source-50" clip-path="url(#clip-15)">
<path fill-rule="nonzero" fill="rgb(100%, 100%, 100%)" fill-opacity="1" d="M 5.5625 13.394531 C 5.5625 13.753906 5.273438 14.039062 4.917969 14.039062 C 4.5625 14.039062 4.273438 13.753906 4.273438 13.394531 C 4.273438 13.039062 4.5625 12.753906 4.917969 12.753906 C 5.273438 12.753906 5.5625 13.039062 5.5625 13.394531 Z M 5.5625 13.394531 "/>
</g>
<mask id="mask-16">
<g filter="url(#filter-remove-color)">
<rect x="-1.165714" y="-1.5" width="13.988573" height="18" fill="rgb(0%, 0%, 0%)" fill-opacity="0.99"/>
</g>
</mask>
<clipPath id="clip-16">
<rect x="0" y="0" width="12" height="16"/>
</clipPath>
<g id="source-53" clip-path="url(#clip-16)">
<path fill-rule="nonzero" fill="rgb(100%, 100%, 100%)" fill-opacity="1" d="M 9.847656 1.605469 C 9.847656 1.960938 9.558594 2.246094 9.203125 2.246094 C 8.847656 2.246094 8.558594 1.960938 8.558594 1.605469 C 8.558594 1.246094 8.847656 0.960938 9.203125 0.960938 C 9.558594 0.960938 9.847656 1.246094 9.847656 1.605469 Z M 9.847656 1.605469 "/>
</g>
<mask id="mask-17">
<g filter="url(#filter-remove-color)">
<rect x="-1.165714" y="-1.5" width="13.988573" height="18" fill="rgb(0%, 0%, 0%)" fill-opacity="0.99"/>
</g>
</mask>
<clipPath id="clip-17">
<rect x="0" y="0" width="12" height="16"/>
</clipPath>
<g id="source-56" clip-path="url(#clip-17)">
<path fill-rule="nonzero" fill="rgb(100%, 100%, 100%)" fill-opacity="1" d="M 3.078125 1.605469 C 3.078125 1.960938 2.789062 2.246094 2.433594 2.246094 C 2.078125 2.246094 1.789062 1.960938 1.789062 1.605469 C 1.789062 1.246094 2.078125 0.960938 2.433594 0.960938 C 2.789062 0.960938 3.078125 1.246094 3.078125 1.605469 Z M 3.078125 1.605469 "/>
</g>
<mask id="mask-18">
<g filter="url(#filter-remove-color)">
<rect x="-1.165714" y="-1.5" width="13.988573" height="18" fill="rgb(0%, 0%, 0%)" fill-opacity="0.99"/>
</g>
</mask>
<clipPath id="clip-18">
<rect x="0" y="0" width="12" height="16"/>
</clipPath>
<g id="source-59" clip-path="url(#clip-18)">
<path fill-rule="nonzero" fill="rgb(100%, 100%, 100%)" fill-opacity="1" d="M 9.390625 7.453125 C 9.390625 7.808594 9.101562 8.097656 8.746094 8.097656 C 8.390625 8.097656 8.101562 7.808594 8.101562 7.453125 C 8.101562 7.097656 8.390625 6.808594 8.746094 6.808594 C 9.101562 6.808594 9.390625 7.097656 9.390625 7.453125 Z M 9.390625 7.453125 "/>
</g>
<mask id="mask-19">
<g filter="url(#filter-remove-color)">
<rect x="-1.165714" y="-1.5" width="13.988573" height="18" fill="rgb(0%, 0%, 0%)" fill-opacity="0.99"/>
</g>
</mask>
<clipPath id="clip-19">
<rect x="0" y="0" width="12" height="16"/>
</clipPath>
<g id="source-62" clip-path="url(#clip-19)">
<path fill-rule="nonzero" fill="rgb(100%, 100%, 100%)" fill-opacity="1" d="M 3.941406 12.691406 C 3.941406 13.046875 3.652344 13.335938 3.296875 13.335938 C 2.941406 13.335938 2.652344 13.046875 2.652344 12.691406 C 2.652344 12.335938 2.941406 12.046875 3.296875 12.046875 C 3.652344 12.046875 3.941406 12.335938 3.941406 12.691406 Z M 3.941406 12.691406 "/>
</g>
</defs>
<path fill-rule="nonzero" fill="rgb(0%, 0%, 0%)" fill-opacity="1" d="M 0 0 L 11.65625 0 L 11.65625 15 L 0 15 Z M 0 0 "/>
<g mask="url(#mask-0)">
<use xlink:href="#source-5"/>
</g>
<g mask="url(#mask-1)">
<use xlink:href="#source-8"/>
</g>
<g mask="url(#mask-2)">
<use xlink:href="#source-11"/>
</g>
<g mask="url(#mask-3)">
<use xlink:href="#source-14"/>
</g>
<g mask="url(#mask-4)">
<use xlink:href="#source-17"/>
</g>
<g mask="url(#mask-5)">
<use xlink:href="#source-20"/>
</g>
<g mask="url(#mask-6)">
<use xlink:href="#source-23"/>
</g>
<g mask="url(#mask-7)">
<use xlink:href="#source-26"/>
</g>
<g mask="url(#mask-8)">
<use xlink:href="#source-29"/>
</g>
<g mask="url(#mask-9)">
<use xlink:href="#source-32"/>
</g>
<g mask="url(#mask-10)">
<use xlink:href="#source-35"/>
</g>
<g mask="url(#mask-11)">
<use xlink:href="#source-38"/>
</g>
<g mask="url(#mask-12)">
<use xlink:href="#source-41"/>
</g>
<g mask="url(#mask-13)">
<use xlink:href="#source-44"/>
</g>
<g mask="url(#mask-14)">
<use xlink:href="#source-47"/>
</g>
<g mask="url(#mask-15)">
<use xlink:href="#source-50"/>
</g>
<g mask="url(#mask-16)">
<use xlink:href="#source-53"/>
</g>
<g mask="url(#mask-17)">
<use xlink:href="#source-56"/>
</g>
<g mask="url(#mask-18)">
<use xlink:href="#source-59"/>
</g>
<g mask="url(#mask-19)">
<use xlink:href="#source-62"/>
</g>
</svg>
