<?xml version="1.0" encoding="UTF-8"?>
<svg xmlns="http://www.w3.org/2000/svg" xmlns:xlink="http://www.w3.org/1999/xlink" width="16.853933" height="15" viewBox="0 0 16.853933 15">
<path fill-rule="evenodd" fill="rgb(0%, 0%, 0%)" fill-opacity="1" stroke-width="10.15501" stroke-linecap="butt" stroke-linejoin="miter" stroke="rgb(100%, 100%, 100%)" stroke-opacity="1" stroke-miterlimit="4" d="M 189.455729 164.292076 L 0.0989583 164.292076 L 95.078646 -0.218862 L 189.919271 164.060305 " transform="matrix(0.0842697, 0, 0, 0.0842697, 0.421348, 0.448131)"/>
<path fill-rule="evenodd" fill="rgb(100%, 100%, 100%)" fill-opacity="1" d="M 6.660156 6.320312 L 5.730469 7.246094 L 5.730469 8.359375 L 6.601562 7.46875 L 6.601562 12.976562 L 7.417969 12.976562 L 7.417969 6.320312 Z M 6.660156 6.320312 "/>
<path fill-rule="evenodd" fill="rgb(100%, 100%, 100%)" fill-opacity="1" d="M 10.871094 10.023438 L 10.871094 11.734375 C 10.878906 12.425781 10.347656 13.039062 9.679688 13.039062 C 8.980469 13.039062 8.484375 12.417969 8.484375 11.734375 L 8.484375 11.34375 L 9.234375 11.34375 L 9.234375 11.734375 C 9.234375 12.011719 9.4375 12.222656 9.671875 12.21875 C 9.929688 12.21875 10.121094 12 10.121094 11.734375 L 10.121094 10.050781 C 10.121094 9.769531 9.90625 9.566406 9.675781 9.566406 C 9.496094 9.566406 9.304688 9.683594 9.234375 9.914062 L 8.488281 9.914062 L 8.488281 6.382812 L 10.871094 6.382812 L 10.871094 7.203125 L 9.234375 7.203125 L 9.234375 9.042969 C 9.4375 8.84375 9.648438 8.78125 9.925781 8.78125 C 10.550781 8.78125 10.871094 9.398438 10.871094 10.023438 Z M 10.871094 10.023438 "/>
</svg>
