<?xml version="1.0" encoding="UTF-8"?>
<svg xmlns="http://www.w3.org/2000/svg" xmlns:xlink="http://www.w3.org/1999/xlink" width="21.754064" height="19" viewBox="0 0 21.754064 19">
<path fill-rule="nonzero" fill="rgb(0%, 0%, 0%)" fill-opacity="1" stroke-width="10.15501" stroke-linecap="round" stroke-linejoin="round" stroke="rgb(100%, 100%, 100%)" stroke-opacity="1" stroke-miterlimit="4" d="M 194.432069 1047.262691 L 5.099622 1047.262691 L 100.089061 882.781923 L 194.934849 1047.047214 " transform="matrix(0.10877, 0, 0, 0.10877, 0, -95.465781)"/>
<path fill-rule="nonzero" fill="rgb(100%, 100%, 100%)" fill-opacity="1" d="M 8.105469 9.300781 C 8.105469 9.300781 8.964844 9.300781 9.394531 9.300781 C 9.394531 7.632812 11.765625 7.660156 11.765625 9.300781 C 11.765625 10.703125 11.007812 10.929688 9.890625 10.929688 C 9.890625 11.21875 9.910156 11.523438 9.910156 11.886719 C 11.742188 11.886719 11.746094 12.46875 11.746094 13.601562 C 11.746094 15.347656 9.074219 15.34375 9.074219 13.601562 C 8.417969 13.601562 7.8125 13.601562 7.8125 13.601562 C 7.8125 13.601562 7.367188 16.09375 10.433594 16.09375 C 12.085938 16.09375 13.058594 15.199219 13.058594 13.601562 C 13.058594 10.40625 13.058594 12.992188 13.058594 12.53125 C 13.058594 11.90625 12.503906 11.484375 12.171875 11.292969 C 12.59375 11.046875 13.058594 10.757812 13.058594 10 C 13.058594 8.894531 13.058594 10.945312 13.058594 9.191406 C 13.058594 6.554688 8.105469 5.828125 8.105469 9.300781 Z M 8.105469 9.300781 "/>
</svg>
