<?xml version="1.0" encoding="UTF-8"?>
<svg xmlns="http://www.w3.org/2000/svg" xmlns:xlink="http://www.w3.org/1999/xlink" width="14.765716" height="19" viewBox="0 0 14.765716 19">
<path fill-rule="nonzero" fill="rgb(0%, 0%, 0%)" fill-opacity="1" d="M 0 0 L 14.765625 0 L 14.765625 19 L 0 19 Z M 0 0 "/>
<path fill-rule="nonzero" fill="rgb(100%, 100%, 100%)" fill-opacity="1" d="M 5.894531 9.566406 C 5.894531 10.035156 5.511719 10.414062 5.042969 10.414062 C 4.578125 10.414062 4.195312 10.035156 4.195312 9.566406 C 4.195312 9.097656 4.578125 8.71875 5.042969 8.71875 C 5.511719 8.71875 5.894531 9.097656 5.894531 9.566406 Z M 5.894531 9.566406 "/>
<path fill-rule="nonzero" fill="rgb(100%, 100%, 100%)" fill-opacity="1" d="M 8.253906 9.566406 C 8.253906 10.035156 7.871094 10.414062 7.402344 10.414062 C 6.9375 10.414062 6.554688 10.035156 6.554688 9.566406 C 6.554688 9.097656 6.9375 8.71875 7.402344 8.71875 C 7.871094 8.71875 8.253906 9.097656 8.253906 9.566406 Z M 8.253906 9.566406 "/>
<path fill-rule="nonzero" fill="rgb(100%, 100%, 100%)" fill-opacity="1" d="M 10.59375 9.496094 C 10.59375 9.964844 10.210938 10.34375 9.742188 10.34375 C 9.277344 10.34375 8.894531 9.964844 8.894531 9.496094 C 8.894531 9.027344 9.277344 8.648438 9.742188 8.648438 C 10.210938 8.648438 10.59375 9.027344 10.59375 9.496094 Z M 10.59375 9.496094 "/>
<path fill-rule="nonzero" fill="rgb(100%, 100%, 100%)" fill-opacity="1" d="M 12.863281 9.566406 C 12.863281 10.035156 12.480469 10.414062 12.011719 10.414062 C 11.546875 10.414062 11.164062 10.035156 11.164062 9.566406 C 11.164062 9.097656 11.546875 8.71875 12.011719 8.71875 C 12.480469 8.71875 12.863281 9.097656 12.863281 9.566406 Z M 12.863281 9.566406 "/>
<path fill-rule="nonzero" fill="rgb(100%, 100%, 100%)" fill-opacity="1" d="M 2.6875 3.382812 C 2.21875 3.382812 1.839844 3 1.839844 2.53125 C 1.839844 2.066406 2.21875 1.683594 2.6875 1.683594 C 3.15625 1.683594 3.535156 2.066406 3.535156 2.53125 C 3.535156 3 3.15625 3.382812 2.6875 3.382812 Z M 2.6875 3.382812 "/>
<path fill-rule="nonzero" fill="rgb(100%, 100%, 100%)" fill-opacity="1" d="M 2.6875 5.746094 C 2.21875 5.746094 1.839844 5.363281 1.839844 4.894531 C 1.839844 4.429688 2.21875 4.046875 2.6875 4.046875 C 3.15625 4.046875 3.535156 4.429688 3.535156 4.894531 C 3.535156 5.363281 3.15625 5.746094 2.6875 5.746094 Z M 2.6875 5.746094 "/>
<path fill-rule="nonzero" fill="rgb(100%, 100%, 100%)" fill-opacity="1" d="M 2.757812 8.085938 C 2.289062 8.085938 1.910156 7.703125 1.910156 7.234375 C 1.910156 6.769531 2.289062 6.386719 2.757812 6.386719 C 3.226562 6.386719 3.605469 6.769531 3.605469 7.234375 C 3.605469 7.703125 3.226562 8.085938 2.757812 8.085938 Z M 2.757812 8.085938 "/>
<path fill-rule="nonzero" fill="rgb(100%, 100%, 100%)" fill-opacity="1" d="M 2.6875 10.355469 C 2.21875 10.355469 1.839844 9.972656 1.839844 9.503906 C 1.839844 9.039062 2.21875 8.65625 2.6875 8.65625 C 3.15625 8.65625 3.535156 9.039062 3.535156 9.503906 C 3.535156 9.972656 3.15625 10.355469 2.6875 10.355469 Z M 2.6875 10.355469 "/>
<path fill-rule="nonzero" fill="rgb(100%, 100%, 100%)" fill-opacity="1" d="M 9.691406 5.722656 C 9.222656 5.722656 8.84375 5.339844 8.84375 4.871094 C 8.84375 4.40625 9.222656 4.023438 9.691406 4.023438 C 10.160156 4.023438 10.539062 4.40625 10.539062 4.871094 C 10.539062 5.339844 10.160156 5.722656 9.691406 5.722656 Z M 9.691406 5.722656 "/>
<path fill-rule="nonzero" fill="rgb(100%, 100%, 100%)" fill-opacity="1" d="M 9.691406 8.085938 C 9.222656 8.085938 8.84375 7.703125 8.84375 7.234375 C 8.84375 6.769531 9.222656 6.386719 9.691406 6.386719 C 10.160156 6.386719 10.539062 6.769531 10.539062 7.234375 C 10.539062 7.703125 10.160156 8.085938 9.691406 8.085938 Z M 9.691406 8.085938 "/>
<path fill-rule="nonzero" fill="rgb(100%, 100%, 100%)" fill-opacity="1" d="M 9.757812 10.425781 C 9.289062 10.425781 8.910156 10.042969 8.910156 9.574219 C 8.910156 9.109375 9.289062 8.726562 9.757812 8.726562 C 10.226562 8.726562 10.605469 9.109375 10.605469 9.574219 C 10.605469 10.042969 10.226562 10.425781 9.757812 10.425781 Z M 9.757812 10.425781 "/>
<path fill-rule="nonzero" fill="rgb(100%, 100%, 100%)" fill-opacity="1" d="M 9.691406 12.695312 C 9.222656 12.695312 8.84375 12.3125 8.84375 11.84375 C 8.84375 11.378906 9.222656 10.996094 9.691406 10.996094 C 10.160156 10.996094 10.539062 11.378906 10.539062 11.84375 C 10.539062 12.3125 10.160156 12.695312 9.691406 12.695312 Z M 9.691406 12.695312 "/>
<path fill-rule="nonzero" fill="rgb(100%, 100%, 100%)" fill-opacity="1" d="M 9.699219 14.878906 C 9.230469 14.878906 8.851562 14.496094 8.851562 14.027344 C 8.851562 13.5625 9.230469 13.179688 9.699219 13.179688 C 10.167969 13.179688 10.546875 13.5625 10.546875 14.027344 C 10.546875 14.496094 10.167969 14.878906 9.699219 14.878906 Z M 9.699219 14.878906 "/>
<path fill-rule="nonzero" fill="rgb(100%, 100%, 100%)" fill-opacity="1" d="M 9.628906 17.144531 C 9.160156 17.144531 8.78125 16.761719 8.78125 16.292969 C 8.78125 15.828125 9.160156 15.445312 9.628906 15.445312 C 10.097656 15.445312 10.476562 15.828125 10.476562 16.292969 C 10.476562 16.761719 10.097656 17.144531 9.628906 17.144531 Z M 9.628906 17.144531 "/>
</svg>
