<?xml version="1.0" encoding="UTF-8"?>
<svg xmlns="http://www.w3.org/2000/svg" xmlns:xlink="http://www.w3.org/1999/xlink" width="17.174262" height="15" viewBox="0 0 17.174262 15">
<path fill-rule="nonzero" fill="rgb(0%, 0%, 0%)" fill-opacity="1" stroke-width="10.15501" stroke-linecap="round" stroke-linejoin="round" stroke="rgb(100%, 100%, 100%)" stroke-opacity="1" stroke-miterlimit="4" d="M 194.422471 1047.267349 L 5.094833 1047.267349 L 100.077079 882.777023 L 194.922856 1047.039902 " transform="matrix(0.0858713, 0, 0, 0.0858713, 0, -75.36772)"/>
<path fill-rule="nonzero" fill="rgb(100%, 100%, 100%)" fill-opacity="1" d="M 8.351562 12.703125 C 8.351562 12.703125 9.804688 10.058594 10.511719 8.722656 C 11.175781 7.476562 10.324219 5.585938 8.796875 5.535156 C 6.988281 5.472656 6.609375 6.738281 6.617188 7.882812 C 6.628906 9.207031 7.839844 10.121094 8.808594 9.757812 C 7.714844 11.648438 7.25 12.660156 7.25 12.660156 Z M 8.617188 8.910156 C 7.980469 8.910156 7.644531 8.382812 7.644531 7.746094 C 7.644531 7.109375 7.980469 6.605469 8.617188 6.605469 C 9.253906 6.605469 9.664062 7.070312 9.664062 7.707031 C 9.664062 8.34375 9.253906 8.910156 8.617188 8.910156 Z M 8.617188 8.910156 "/>
</svg>
