<?xml version="1.0" encoding="UTF-8"?>
<svg xmlns="http://www.w3.org/2000/svg" xmlns:xlink="http://www.w3.org/1999/xlink" width="21.348316" height="19" viewBox="0 0 21.348316 19">
<path fill-rule="evenodd" fill="rgb(0%, 0%, 0%)" fill-opacity="1" stroke-width="10.15501" stroke-linecap="butt" stroke-linejoin="miter" stroke="rgb(100%, 100%, 100%)" stroke-opacity="1" stroke-miterlimit="4" d="M 189.467842 164.301756 L 0.0867635 164.301756 L 95.088364 -0.231061 L 189.906987 164.045589 " transform="matrix(0.106742, 0, 0, 0.106742, 0.533707, 0.567633)"/>
<path fill-rule="evenodd" fill="rgb(100%, 100%, 100%)" fill-opacity="1" d="M 8.328125 8.003906 L 7.148438 9.179688 L 7.148438 10.589844 L 8.253906 9.460938 L 8.253906 16.4375 L 9.289062 16.4375 L 9.289062 8.003906 Z M 8.328125 8.003906 "/>
<path fill-rule="evenodd" fill="rgb(100%, 100%, 100%)" fill-opacity="1" d="M 12.695312 16.5 L 12.695312 15.164062 L 10.28125 15.164062 L 10.28125 14.078125 L 11.964844 8.046875 L 13.074219 8.046875 L 11.332031 14.113281 L 12.695312 14.113281 L 12.695312 11.667969 L 13.746094 11.667969 L 13.746094 14.113281 L 14.328125 14.113281 L 14.328125 15.164062 L 13.746094 15.164062 L 13.746094 16.5 Z M 12.695312 16.5 "/>
</svg>
