<?xml version="1.0" encoding="UTF-8"?>
<svg xmlns="http://www.w3.org/2000/svg" xmlns:xlink="http://www.w3.org/1999/xlink" width="16.853933" height="15" viewBox="0 0 16.853933 15">
<path fill-rule="evenodd" fill="rgb(0%, 0%, 0%)" fill-opacity="1" stroke-width="10.15501" stroke-linecap="butt" stroke-linejoin="miter" stroke="rgb(100%, 100%, 100%)" stroke-opacity="1" stroke-miterlimit="4" d="M 189.455729 164.292076 L 0.0989583 164.292076 L 95.078646 -0.218862 L 189.919271 164.060305 " transform="matrix(0.0842697, 0, 0, 0.0842697, 0.421348, 0.448131)"/>
<path fill-rule="evenodd" fill="rgb(100%, 100%, 100%)" fill-opacity="1" d="M 6.660156 6.320312 L 5.730469 7.246094 L 5.730469 8.359375 L 6.601562 7.46875 L 6.601562 12.976562 L 7.417969 12.976562 L 7.417969 6.320312 Z M 6.660156 6.320312 "/>
<path fill-rule="evenodd" fill="rgb(100%, 100%, 100%)" fill-opacity="1" d="M 9.734375 6.320312 C 9 6.320312 8.417969 6.933594 8.425781 7.628906 L 8.425781 11.683594 C 8.425781 12.371094 8.972656 12.996094 9.738281 12.996094 C 10.472656 12.996094 11.054688 12.378906 11.046875 11.683594 L 11.046875 9.96875 C 11.046875 9.339844 10.699219 8.722656 10.007812 8.722656 C 9.707031 8.722656 9.472656 8.785156 9.25 8.984375 L 9.25 7.605469 C 9.261719 7.347656 9.472656 7.140625 9.742188 7.140625 C 10 7.140625 10.226562 7.351562 10.226562 7.628906 L 10.226562 8.023438 L 11.046875 8.023438 L 11.046875 7.628906 C 11.046875 6.941406 10.5 6.320312 9.734375 6.320312 Z M 9.738281 9.511719 C 9.988281 9.511719 10.226562 9.714844 10.226562 10 L 10.226562 11.683594 C 10.226562 11.949219 10.011719 12.171875 9.734375 12.171875 C 9.476562 12.171875 9.25 11.964844 9.25 11.683594 L 9.25 10 C 9.25 9.707031 9.5 9.511719 9.738281 9.511719 Z M 9.738281 9.511719 "/>
</svg>
