<?xml version="1.0" encoding="UTF-8"?>
<svg xmlns="http://www.w3.org/2000/svg" xmlns:xlink="http://www.w3.org/1999/xlink" width="21.348316" height="19" viewBox="0 0 21.348316 19">
<path fill-rule="evenodd" fill="rgb(0%, 0%, 0%)" fill-opacity="1" stroke-width="10.15501" stroke-linecap="butt" stroke-linejoin="miter" stroke="rgb(100%, 100%, 100%)" stroke-opacity="1" stroke-miterlimit="4" d="M 189.467842 164.301756 L 0.0867635 164.301756 L 95.088364 -0.231061 L 189.906987 164.045589 " transform="matrix(0.106742, 0, 0, 0.106742, 0.533707, 0.567633)"/>
<path fill-rule="evenodd" fill="rgb(100%, 100%, 100%)" fill-opacity="1" d="M 8.328125 8.113281 L 7.148438 9.273438 L 7.148438 10.664062 L 8.253906 9.550781 L 8.253906 16.4375 L 9.289062 16.4375 L 9.289062 8.113281 Z M 8.328125 8.113281 "/>
<path fill-rule="evenodd" fill="rgb(100%, 100%, 100%)" fill-opacity="1" d="M 14.261719 16.460938 L 10.699219 16.460938 L 10.699219 15.40625 L 13.011719 11.027344 C 13.117188 10.832031 13.246094 10.625 13.246094 10.414062 L 13.246094 9.8125 C 13.246094 9.363281 12.902344 9.085938 12.46875 9.089844 C 12.117188 9.09375 11.726562 9.351562 11.726562 9.800781 L 11.726562 10.476562 L 10.671875 10.476562 L 10.671875 9.871094 C 10.671875 8.726562 11.445312 8.003906 12.503906 8.003906 C 13.484375 8.003906 14.300781 8.695312 14.300781 9.835938 L 14.300781 10.554688 C 14.300781 10.910156 14.078125 11.265625 13.914062 11.582031 L 11.890625 15.414062 L 14.261719 15.414062 L 14.261719 16.460938 "/>
</svg>
