<?xml version="1.0" encoding="UTF-8"?>
<svg xmlns="http://www.w3.org/2000/svg" xmlns:xlink="http://www.w3.org/1999/xlink" width="21.754064" height="19" viewBox="0 0 21.754064 19">
<path fill-rule="nonzero" fill="rgb(0%, 0%, 0%)" fill-opacity="1" stroke-width="10.15501" stroke-linecap="round" stroke-linejoin="round" stroke="rgb(100%, 100%, 100%)" stroke-opacity="1" stroke-miterlimit="4" d="M 194.432069 1047.262691 L 5.099622 1047.262691 L 100.089061 882.781923 L 194.934849 1047.047214 " transform="matrix(0.10877, 0, 0, 0.10877, 0, -95.465781)"/>
<path fill-rule="nonzero" fill="rgb(100%, 100%, 100%)" fill-opacity="1" d="M 10.859375 7.007812 C 10.859375 7.007812 9.019531 10.355469 8.125 12.046875 C 7.289062 13.625 8.363281 16.019531 10.296875 16.085938 C 12.59375 16.164062 13.074219 14.5625 13.058594 13.113281 C 13.046875 11.433594 11.507812 10.277344 10.285156 10.738281 C 11.667969 8.34375 12.257812 7.0625 12.257812 7.0625 Z M 10.527344 11.8125 C 11.335938 11.8125 11.761719 12.480469 11.761719 13.285156 C 11.761719 14.089844 11.335938 14.730469 10.527344 14.730469 C 9.722656 14.730469 9.203125 14.140625 9.203125 13.335938 C 9.203125 12.527344 9.722656 11.8125 10.527344 11.8125 Z M 10.527344 11.8125 "/>
</svg>
