<?xml version="1.0" encoding="UTF-8"?>
<svg xmlns="http://www.w3.org/2000/svg" xmlns:xlink="http://www.w3.org/1999/xlink" width="17.174262" height="15" viewBox="0 0 17.174262 15">
<path fill-rule="nonzero" fill="rgb(0%, 0%, 0%)" fill-opacity="1" stroke-width="10.15501" stroke-linecap="round" stroke-linejoin="round" stroke="rgb(100%, 100%, 100%)" stroke-opacity="1" stroke-miterlimit="4" d="M 194.422471 1047.267349 L 5.094833 1047.267349 L 100.077079 882.777023 L 194.922856 1047.039902 " transform="matrix(0.0858713, 0, 0, 0.0858713, 0, -75.36772)"/>
<path fill-rule="nonzero" fill="rgb(100%, 100%, 100%)" fill-opacity="1" d="M 6.398438 7.34375 C 6.398438 7.34375 7.078125 7.34375 7.417969 7.34375 C 7.417969 6.027344 9.289062 6.046875 9.289062 7.34375 C 9.289062 8.449219 8.691406 8.628906 7.808594 8.628906 C 7.808594 8.855469 7.824219 9.097656 7.824219 9.382812 C 9.269531 9.382812 9.273438 9.84375 9.273438 10.738281 C 9.273438 12.117188 7.164062 12.113281 7.164062 10.738281 C 6.644531 10.738281 6.167969 10.738281 6.167969 10.738281 C 6.167969 10.738281 5.816406 12.707031 8.238281 12.707031 C 9.542969 12.707031 10.308594 12 10.308594 10.738281 C 10.308594 8.214844 10.308594 10.257812 10.308594 9.894531 C 10.308594 9.398438 9.871094 9.066406 9.609375 8.914062 C 9.941406 8.722656 10.308594 8.492188 10.308594 7.894531 C 10.308594 7.023438 10.308594 8.640625 10.308594 7.257812 C 10.308594 5.175781 6.398438 4.601562 6.398438 7.34375 Z M 6.398438 7.34375 "/>
</svg>
