<?xml version="1.0" encoding="UTF-8"?>
<svg xmlns="http://www.w3.org/2000/svg" xmlns:xlink="http://www.w3.org/1999/xlink" width="16.853933" height="15" viewBox="0 0 16.853933 15">
<path fill-rule="evenodd" fill="rgb(0%, 0%, 0%)" fill-opacity="1" stroke-width="10.15501" stroke-linecap="butt" stroke-linejoin="miter" stroke="rgb(100%, 100%, 100%)" stroke-opacity="1" stroke-miterlimit="4" d="M 189.455729 164.292076 L 0.0989583 164.292076 L 95.078646 -0.218862 L 189.919271 164.060305 " transform="matrix(0.0842697, 0, 0, 0.0842697, 0.421348, 0.448131)"/>
<path fill-rule="evenodd" fill="rgb(100%, 100%, 100%)" fill-opacity="1" d="M 9.730469 6.152344 C 9.085938 6.15625 8.4375 6.636719 8.433594 7.582031 L 8.425781 7.582031 L 8.425781 11.484375 L 8.433594 11.484375 C 8.449219 13.390625 11.027344 13.371094 11.027344 11.484375 L 11.035156 11.484375 L 11.035156 7.582031 L 11.027344 7.582031 C 11.027344 6.621094 10.378906 6.148438 9.730469 6.152344 Z M 9.730469 7 C 10.003906 6.996094 10.277344 7.1875 10.277344 7.582031 L 10.277344 11.484375 L 10.28125 11.484375 C 10.277344 12.25 9.183594 12.253906 9.183594 11.464844 L 9.183594 7.582031 C 9.183594 7.199219 9.457031 7.003906 9.730469 7 Z M 9.730469 7 "/>
<path fill-rule="evenodd" fill="rgb(100%, 100%, 100%)" fill-opacity="1" d="M 6.644531 6.320312 L 5.816406 7.1875 L 5.816406 8.554688 L 6.632812 7.671875 L 6.632812 12.894531 L 7.515625 12.894531 L 7.515625 6.320312 Z M 6.644531 6.320312 "/>
</svg>
