<?xml version="1.0" encoding="UTF-8"?>
<svg xmlns="http://www.w3.org/2000/svg" xmlns:xlink="http://www.w3.org/1999/xlink" width="14.765716" height="19" viewBox="0 0 14.765716 19">
<path fill-rule="nonzero" fill="rgb(0%, 0%, 0%)" fill-opacity="1" d="M 0 0 L 14.765625 0 L 14.765625 19 L 0 19 Z M 0 0 "/>
<path fill-rule="nonzero" fill="rgb(100%, 100%, 100%)" fill-opacity="1" d="M 3.601562 16.269531 C 3.601562 16.738281 3.222656 17.117188 2.753906 17.117188 C 2.289062 17.117188 1.902344 16.738281 1.902344 16.269531 C 1.902344 15.800781 2.289062 15.421875 2.753906 15.421875 C 3.222656 15.421875 3.601562 15.800781 3.601562 16.269531 Z M 3.601562 16.269531 "/>
<path fill-rule="nonzero" fill="rgb(100%, 100%, 100%)" fill-opacity="1" d="M 3.554688 14.011719 C 3.554688 14.480469 3.171875 14.859375 2.699219 14.859375 C 2.238281 14.859375 1.851562 14.480469 1.851562 14.011719 C 1.851562 13.542969 2.238281 13.164062 2.699219 13.164062 C 3.171875 13.164062 3.554688 13.542969 3.554688 14.011719 Z M 3.554688 14.011719 "/>
<path fill-rule="nonzero" fill="rgb(100%, 100%, 100%)" fill-opacity="1" d="M 3.601562 11.78125 C 3.601562 12.25 3.21875 12.628906 2.75 12.628906 C 2.285156 12.628906 1.902344 12.25 1.902344 11.78125 C 1.902344 11.3125 2.285156 10.933594 2.75 10.933594 C 3.21875 10.933594 3.601562 11.3125 3.601562 11.78125 Z M 3.601562 11.78125 "/>
<path fill-rule="nonzero" fill="rgb(100%, 100%, 100%)" fill-opacity="1" d="M 3.601562 9.519531 C 3.601562 9.988281 3.21875 10.367188 2.75 10.367188 C 2.285156 10.367188 1.902344 9.988281 1.902344 9.519531 C 1.902344 9.050781 2.285156 8.671875 2.75 8.671875 C 3.21875 8.671875 3.601562 9.050781 3.601562 9.519531 Z M 3.601562 9.519531 "/>
<path fill-rule="nonzero" fill="rgb(100%, 100%, 100%)" fill-opacity="1" d="M 3.601562 7.226562 C 3.601562 7.695312 3.21875 8.074219 2.75 8.074219 C 2.285156 8.074219 1.902344 7.695312 1.902344 7.226562 C 1.902344 6.761719 2.285156 6.382812 2.75 6.382812 C 3.21875 6.382812 3.601562 6.761719 3.601562 7.226562 Z M 3.601562 7.226562 "/>
<path fill-rule="nonzero" fill="rgb(100%, 100%, 100%)" fill-opacity="1" d="M 3.652344 4.964844 C 3.652344 5.433594 3.269531 5.816406 2.800781 5.816406 C 2.335938 5.816406 1.953125 5.433594 1.953125 4.964844 C 1.953125 4.5 2.335938 4.121094 2.800781 4.121094 C 3.269531 4.121094 3.652344 4.5 3.652344 4.964844 Z M 3.652344 4.964844 "/>
<path fill-rule="nonzero" fill="rgb(100%, 100%, 100%)" fill-opacity="1" d="M 3.601562 2.707031 C 3.601562 3.175781 3.21875 3.554688 2.75 3.554688 C 2.285156 3.554688 1.902344 3.175781 1.902344 2.707031 C 1.902344 2.242188 2.285156 1.863281 2.75 1.863281 C 3.21875 1.863281 3.601562 2.242188 3.601562 2.707031 Z M 3.601562 2.707031 "/>
<path fill-rule="nonzero" fill="rgb(100%, 100%, 100%)" fill-opacity="1" d="M 8.28125 2.707031 C 8.28125 3.175781 7.902344 3.554688 7.433594 3.554688 C 6.96875 3.554688 6.582031 3.175781 6.582031 2.707031 C 6.582031 2.242188 6.96875 1.863281 7.433594 1.863281 C 7.902344 1.863281 8.28125 2.242188 8.28125 2.707031 Z M 8.28125 2.707031 "/>
<path fill-rule="nonzero" fill="rgb(100%, 100%, 100%)" fill-opacity="1" d="M 10.546875 2.707031 C 10.546875 3.175781 10.167969 3.554688 9.699219 3.554688 C 9.234375 3.554688 8.847656 3.175781 8.847656 2.707031 C 8.847656 2.242188 9.234375 1.863281 9.699219 1.863281 C 10.167969 1.863281 10.546875 2.242188 10.546875 2.707031 Z M 10.546875 2.707031 "/>
<path fill-rule="nonzero" fill="rgb(100%, 100%, 100%)" fill-opacity="1" d="M 12.863281 4.972656 C 12.863281 5.441406 12.480469 5.820312 12.011719 5.820312 C 11.546875 5.820312 11.164062 5.441406 11.164062 4.972656 C 11.164062 4.503906 11.546875 4.125 12.011719 4.125 C 12.480469 4.125 12.863281 4.503906 12.863281 4.972656 Z M 12.863281 4.972656 "/>
<path fill-rule="nonzero" fill="rgb(100%, 100%, 100%)" fill-opacity="1" d="M 12.863281 7.234375 C 12.863281 7.703125 12.480469 8.085938 12.011719 8.085938 C 11.546875 8.085938 11.164062 7.703125 11.164062 7.234375 C 11.164062 6.769531 11.546875 6.390625 12.011719 6.390625 C 12.480469 6.390625 12.863281 6.769531 12.863281 7.234375 Z M 12.863281 7.234375 "/>
<path fill-rule="nonzero" fill="rgb(100%, 100%, 100%)" fill-opacity="1" d="M 10.546875 9.546875 C 10.546875 10.015625 10.167969 10.394531 9.699219 10.394531 C 9.234375 10.394531 8.847656 10.015625 8.847656 9.546875 C 8.847656 9.078125 9.234375 8.703125 9.699219 8.703125 C 10.167969 8.703125 10.546875 9.078125 10.546875 9.546875 Z M 10.546875 9.546875 "/>
<path fill-rule="nonzero" fill="rgb(100%, 100%, 100%)" fill-opacity="1" d="M 8.28125 11.71875 C 8.28125 12.1875 7.902344 12.566406 7.433594 12.566406 C 6.96875 12.566406 6.582031 12.1875 6.582031 11.71875 C 6.582031 11.25 6.96875 10.871094 7.433594 10.871094 C 7.902344 10.871094 8.28125 11.25 8.28125 11.71875 Z M 8.28125 11.71875 "/>
<path fill-rule="nonzero" fill="rgb(100%, 100%, 100%)" fill-opacity="1" d="M 8.28125 14.050781 C 8.28125 14.519531 7.902344 14.902344 7.433594 14.902344 C 6.96875 14.902344 6.582031 14.519531 6.582031 14.050781 C 6.582031 13.585938 6.96875 13.207031 7.433594 13.207031 C 7.902344 13.207031 8.28125 13.585938 8.28125 14.050781 Z M 8.28125 14.050781 "/>
<path fill-rule="nonzero" fill="rgb(100%, 100%, 100%)" fill-opacity="1" d="M 8.234375 16.339844 C 8.234375 16.808594 7.851562 17.1875 7.382812 17.1875 C 6.917969 17.1875 6.535156 16.808594 6.535156 16.339844 C 6.535156 15.871094 6.917969 15.492188 7.382812 15.492188 C 7.851562 15.492188 8.234375 15.871094 8.234375 16.339844 Z M 8.234375 16.339844 "/>
<path fill-rule="nonzero" fill="rgb(100%, 100%, 100%)" fill-opacity="1" d="M 10.574219 16.347656 C 10.574219 16.816406 10.191406 17.195312 9.722656 17.195312 C 9.257812 17.195312 8.875 16.816406 8.875 16.347656 C 8.875 15.878906 9.257812 15.5 9.722656 15.5 C 10.191406 15.5 10.574219 15.878906 10.574219 16.347656 Z M 10.574219 16.347656 "/>
<path fill-rule="nonzero" fill="rgb(100%, 100%, 100%)" fill-opacity="1" d="M 12.835938 16.386719 C 12.835938 16.855469 12.453125 17.234375 11.984375 17.234375 C 11.519531 17.234375 11.136719 16.855469 11.136719 16.386719 C 11.136719 15.921875 11.519531 15.542969 11.984375 15.542969 C 12.453125 15.542969 12.835938 15.921875 12.835938 16.386719 Z M 12.835938 16.386719 "/>
</svg>
