<?xml version="1.0" encoding="UTF-8"?>
<svg xmlns="http://www.w3.org/2000/svg" xmlns:xlink="http://www.w3.org/1999/xlink" width="21.348316" height="19" viewBox="0 0 21.348316 19">
<path fill-rule="evenodd" fill="rgb(0%, 0%, 0%)" fill-opacity="1" stroke-width="10.15501" stroke-linecap="butt" stroke-linejoin="miter" stroke="rgb(100%, 100%, 100%)" stroke-opacity="1" stroke-miterlimit="4" d="M 189.467842 164.301756 L 0.0867635 164.301756 L 95.088364 -0.231061 L 189.906987 164.045589 " transform="matrix(0.106742, 0, 0, 0.106742, 0.533707, 0.567633)"/>
<path fill-rule="evenodd" fill="rgb(100%, 100%, 100%)" fill-opacity="1" d="M 8.4375 8.003906 L 7.257812 9.179688 L 7.257812 10.589844 L 8.363281 9.460938 L 8.363281 16.4375 L 9.394531 16.4375 L 9.394531 8.003906 Z M 8.4375 8.003906 "/>
<path fill-rule="evenodd" fill="rgb(100%, 100%, 100%)" fill-opacity="1" d="M 12.332031 8.003906 C 11.398438 8.003906 10.664062 8.78125 10.671875 9.664062 L 10.671875 14.800781 C 10.671875 15.671875 11.367188 16.460938 12.335938 16.460938 C 13.265625 16.460938 14.003906 15.679688 13.992188 14.800781 L 13.992188 12.628906 C 13.992188 11.832031 13.550781 11.046875 12.675781 11.046875 C 12.296875 11.046875 12 11.128906 11.714844 11.378906 L 11.714844 9.632812 C 11.730469 9.308594 12 9.042969 12.339844 9.042969 C 12.667969 9.042969 12.953125 9.3125 12.953125 9.664062 L 12.953125 10.164062 L 13.992188 10.164062 L 13.992188 9.664062 C 13.992188 8.792969 13.300781 8.003906 12.332031 8.003906 Z M 12.335938 12.046875 C 12.652344 12.046875 12.953125 12.304688 12.953125 12.667969 L 12.953125 14.800781 C 12.953125 15.136719 12.679688 15.417969 12.332031 15.417969 C 12.003906 15.417969 11.714844 15.15625 11.714844 14.800781 L 11.714844 12.667969 C 11.714844 12.296875 12.035156 12.046875 12.335938 12.046875 Z M 12.335938 12.046875 "/>
</svg>
