<?xml version="1.0" encoding="UTF-8"?>
<svg xmlns="http://www.w3.org/2000/svg" xmlns:xlink="http://www.w3.org/1999/xlink" width="21.348316" height="19" viewBox="0 0 21.348316 19">
<path fill-rule="evenodd" fill="rgb(0%, 0%, 0%)" fill-opacity="1" stroke-width="10.15501" stroke-linecap="butt" stroke-linejoin="miter" stroke="rgb(100%, 100%, 100%)" stroke-opacity="1" stroke-miterlimit="4" d="M 189.467842 164.301756 L 0.0867635 164.301756 L 95.088364 -0.231061 L 189.906987 164.045589 " transform="matrix(0.106742, 0, 0, 0.106742, 0.533707, 0.567633)"/>
<path fill-rule="evenodd" fill="rgb(100%, 100%, 100%)" fill-opacity="1" d="M 8.328125 8.003906 L 7.148438 9.179688 L 7.148438 10.589844 L 8.253906 9.460938 L 8.253906 16.4375 L 9.289062 16.4375 L 9.289062 8.003906 Z M 8.328125 8.003906 "/>
<path fill-rule="evenodd" fill="rgb(100%, 100%, 100%)" fill-opacity="1" d="M 10.671875 9.875 L 10.671875 10.515625 L 11.726562 10.515625 L 11.726562 9.800781 C 11.726562 9.355469 12.117188 9.097656 12.46875 9.09375 C 12.902344 9.085938 13.246094 9.367188 13.246094 9.816406 L 13.246094 10.960938 C 13.246094 11.441406 12.804688 11.664062 12.113281 11.664062 L 12.113281 11.691406 C 12.113281 11.691406 12.113281 12.167969 12.113281 12.167969 L 12.113281 12.640625 C 12.113281 12.640625 12.113281 12.667969 12.113281 12.667969 C 12.804688 12.667969 13.246094 12.894531 13.246094 13.371094 L 13.246094 14.824219 C 13.246094 15.273438 12.902344 15.550781 12.46875 15.546875 C 12.117188 15.542969 11.726562 15.285156 11.726562 14.839844 L 11.726562 14.125 L 10.671875 14.125 L 10.671875 14.765625 C 10.671875 15.914062 11.445312 16.636719 12.503906 16.636719 C 13.484375 16.636719 14.300781 15.941406 14.300781 14.804688 L 14.300781 13.324219 C 14.300781 12.898438 14.113281 12.46875 13.613281 12.167969 C 14.113281 11.863281 14.300781 11.429688 14.300781 11.003906 L 14.300781 9.839844 C 14.300781 8.699219 13.484375 8.003906 12.503906 8.003906 C 11.445312 8.003906 10.671875 8.726562 10.671875 9.875 Z M 10.671875 9.875 "/>
</svg>
