<?xml version="1.0" encoding="UTF-8"?>
<svg xmlns="http://www.w3.org/2000/svg" xmlns:xlink="http://www.w3.org/1999/xlink" width="14.765716" height="19" viewBox="0 0 14.765716 19">
<path fill-rule="nonzero" fill="rgb(0%, 0%, 0%)" fill-opacity="1" d="M 0 0 L 14.765625 0 L 14.765625 19 L 0 19 Z M 0 0 "/>
<path fill-rule="nonzero" fill="rgb(100%, 100%, 100%)" fill-opacity="1" d="M 9.367188 16.285156 C 9.367188 16.753906 8.988281 17.132812 8.519531 17.132812 C 8.050781 17.132812 7.667969 16.753906 7.667969 16.285156 C 7.667969 15.816406 8.050781 15.4375 8.519531 15.4375 C 8.988281 15.4375 9.367188 15.816406 9.367188 16.285156 Z M 9.367188 16.285156 "/>
<path fill-rule="nonzero" fill="rgb(100%, 100%, 100%)" fill-opacity="1" d="M 9.316406 14.027344 C 9.316406 14.496094 8.9375 14.875 8.464844 14.875 C 8.003906 14.875 7.617188 14.496094 7.617188 14.027344 C 7.617188 13.558594 8.003906 13.179688 8.464844 13.179688 C 8.9375 13.179688 9.316406 13.558594 9.316406 14.027344 Z M 9.316406 14.027344 "/>
<path fill-rule="nonzero" fill="rgb(100%, 100%, 100%)" fill-opacity="1" d="M 9.367188 11.796875 C 9.367188 12.265625 8.984375 12.644531 8.515625 12.644531 C 8.050781 12.644531 7.667969 12.265625 7.667969 11.796875 C 7.667969 11.328125 8.050781 10.949219 8.515625 10.949219 C 8.984375 10.949219 9.367188 11.328125 9.367188 11.796875 Z M 9.367188 11.796875 "/>
<path fill-rule="nonzero" fill="rgb(100%, 100%, 100%)" fill-opacity="1" d="M 9.367188 9.535156 C 9.367188 10.003906 8.984375 10.382812 8.515625 10.382812 C 8.050781 10.382812 7.667969 10.003906 7.667969 9.535156 C 7.667969 9.066406 8.050781 8.6875 8.515625 8.6875 C 8.984375 8.6875 9.367188 9.066406 9.367188 9.535156 Z M 9.367188 9.535156 "/>
<path fill-rule="nonzero" fill="rgb(100%, 100%, 100%)" fill-opacity="1" d="M 9.367188 7.242188 C 9.367188 7.710938 8.984375 8.09375 8.515625 8.09375 C 8.050781 8.09375 7.667969 7.710938 7.667969 7.242188 C 7.667969 6.773438 8.050781 6.398438 8.515625 6.398438 C 8.984375 6.398438 9.367188 6.773438 9.367188 7.242188 Z M 9.367188 7.242188 "/>
<path fill-rule="nonzero" fill="rgb(100%, 100%, 100%)" fill-opacity="1" d="M 9.417969 4.976562 C 9.417969 5.445312 9.035156 5.832031 8.566406 5.832031 C 8.101562 5.832031 7.71875 5.449219 7.71875 4.980469 C 7.71875 4.511719 8.101562 4.132812 8.566406 4.132812 C 9.035156 4.132812 9.417969 4.511719 9.417969 4.976562 Z M 9.417969 4.976562 "/>
<path fill-rule="nonzero" fill="rgb(100%, 100%, 100%)" fill-opacity="1" d="M 9.367188 2.722656 C 9.367188 3.191406 8.984375 3.570312 8.515625 3.570312 C 8.050781 3.570312 7.667969 3.191406 7.667969 2.722656 C 7.667969 2.257812 8.050781 1.878906 8.515625 1.878906 C 8.984375 1.878906 9.367188 2.257812 9.367188 2.722656 Z M 9.367188 2.722656 "/>
<path fill-rule="nonzero" fill="rgb(100%, 100%, 100%)" fill-opacity="1" d="M 7.050781 2.710938 C 7.050781 3.179688 6.671875 3.5625 6.203125 3.5625 C 5.738281 3.5625 5.351562 3.179688 5.351562 2.710938 C 5.351562 2.25 5.738281 1.867188 6.203125 1.867188 C 6.671875 1.867188 7.050781 2.25 7.050781 2.710938 Z M 7.050781 2.710938 "/>
</svg>
