<?xml version="1.0" encoding="UTF-8"?>
<svg xmlns="http://www.w3.org/2000/svg" xmlns:xlink="http://www.w3.org/1999/xlink" width="21.348316" height="19" viewBox="0 0 21.348316 19">
<path fill-rule="evenodd" fill="rgb(0%, 0%, 0%)" fill-opacity="1" stroke-width="10.15501" stroke-linecap="butt" stroke-linejoin="miter" stroke="rgb(100%, 100%, 100%)" stroke-opacity="1" stroke-miterlimit="4" d="M 189.467842 164.301756 L 0.0867635 164.301756 L 95.088364 -0.231061 L 189.906987 164.045589 " transform="matrix(0.106742, 0, 0, 0.106742, 0.533707, 0.567633)"/>
<path fill-rule="evenodd" fill="rgb(100%, 100%, 100%)" fill-opacity="1" d="M 8.4375 8.003906 L 7.257812 9.179688 L 7.257812 10.589844 L 8.363281 9.460938 L 8.363281 16.4375 L 9.394531 16.4375 L 9.394531 8.003906 Z M 8.4375 8.003906 "/>
<path fill-rule="evenodd" fill="rgb(100%, 100%, 100%)" fill-opacity="1" d="M 13.769531 12.695312 L 13.769531 14.863281 C 13.78125 15.738281 13.105469 16.515625 12.261719 16.515625 C 11.375 16.515625 10.746094 15.730469 10.746094 14.863281 L 10.746094 14.367188 L 11.695312 14.367188 L 11.695312 14.863281 C 11.695312 15.214844 11.953125 15.480469 12.25 15.476562 C 12.578125 15.476562 12.820312 15.199219 12.820312 14.863281 L 12.820312 12.730469 C 12.820312 12.375 12.546875 12.117188 12.257812 12.117188 C 12.027344 12.117188 11.785156 12.265625 11.695312 12.558594 L 10.75 12.558594 L 10.75 8.085938 L 13.769531 8.085938 L 13.769531 9.125 L 11.695312 9.125 L 11.695312 11.453125 C 11.953125 11.203125 12.222656 11.121094 12.574219 11.121094 C 13.363281 11.121094 13.769531 11.90625 13.769531 12.695312 Z M 13.769531 12.695312 "/>
</svg>
