<?xml version="1.0" encoding="UTF-8"?>
<svg xmlns="http://www.w3.org/2000/svg" xmlns:xlink="http://www.w3.org/1999/xlink" width="16.853933" height="15" viewBox="0 0 16.853933 15">
<path fill-rule="evenodd" fill="rgb(0%, 0%, 0%)" fill-opacity="1" stroke-width="10.15501" stroke-linecap="butt" stroke-linejoin="miter" stroke="rgb(100%, 100%, 100%)" stroke-opacity="1" stroke-miterlimit="4" d="M 189.455729 164.292076 L 0.0989583 164.292076 L 95.078646 -0.218862 L 189.919271 164.060305 " transform="matrix(0.0842697, 0, 0, 0.0842697, 0.421348, 0.448131)"/>
<path fill-rule="evenodd" fill="rgb(100%, 100%, 100%)" fill-opacity="1" d="M 6.574219 6.40625 L 5.644531 7.320312 L 5.644531 8.417969 L 6.515625 7.539062 L 6.515625 12.976562 L 7.332031 12.976562 L 7.332031 6.40625 Z M 6.574219 6.40625 "/>
<path fill-rule="evenodd" fill="rgb(100%, 100%, 100%)" fill-opacity="1" d="M 11.257812 12.996094 L 8.445312 12.996094 L 8.445312 12.164062 L 10.273438 8.707031 C 10.355469 8.550781 10.457031 8.386719 10.457031 8.222656 L 10.457031 7.746094 C 10.457031 7.390625 10.1875 7.171875 9.84375 7.175781 C 9.566406 7.179688 9.257812 7.382812 9.257812 7.738281 L 9.257812 8.269531 L 8.425781 8.269531 L 8.425781 7.792969 C 8.425781 6.890625 9.035156 6.320312 9.871094 6.320312 C 10.644531 6.320312 11.289062 6.863281 11.289062 7.765625 L 11.289062 8.332031 C 11.289062 8.613281 11.113281 8.894531 10.984375 9.144531 L 9.386719 12.167969 L 11.257812 12.167969 L 11.257812 12.996094 "/>
</svg>
