<?xml version="1.0" encoding="UTF-8"?>
<svg xmlns="http://www.w3.org/2000/svg" xmlns:xlink="http://www.w3.org/1999/xlink" width="16.853933" height="15" viewBox="0 0 16.853933 15">
<path fill-rule="evenodd" fill="rgb(0%, 0%, 0%)" fill-opacity="1" stroke-width="10.15501" stroke-linecap="butt" stroke-linejoin="miter" stroke="rgb(100%, 100%, 100%)" stroke-opacity="1" stroke-miterlimit="4" d="M 189.455729 164.292076 L 0.0989583 164.292076 L 95.078646 -0.218862 L 189.919271 164.060305 " transform="matrix(0.0842697, 0, 0, 0.0842697, 0.421348, 0.448131)"/>
<path fill-rule="evenodd" fill="rgb(100%, 100%, 100%)" fill-opacity="1" d="M 6.574219 6.320312 L 5.644531 7.246094 L 5.644531 8.359375 L 6.515625 7.46875 L 6.515625 12.976562 L 7.332031 12.976562 L 7.332031 6.320312 Z M 6.574219 6.320312 "/>
<path fill-rule="evenodd" fill="rgb(100%, 100%, 100%)" fill-opacity="1" d="M 10.023438 13.027344 L 10.023438 11.972656 L 8.117188 11.972656 L 8.117188 11.113281 L 9.445312 6.351562 L 10.320312 6.351562 L 8.945312 11.140625 L 10.023438 11.140625 L 10.023438 9.210938 L 10.851562 9.210938 L 10.851562 11.140625 L 11.3125 11.140625 L 11.3125 11.972656 L 10.851562 11.972656 L 10.851562 13.027344 Z M 10.023438 13.027344 "/>
</svg>
