<?xml version="1.0" encoding="UTF-8"?>
<svg xmlns="http://www.w3.org/2000/svg" xmlns:xlink="http://www.w3.org/1999/xlink" width="21.754064" height="19" viewBox="0 0 21.754064 19">
<path fill-rule="nonzero" fill="rgb(0%, 0%, 0%)" fill-opacity="1" stroke-width="10.15501" stroke-linecap="round" stroke-linejoin="round" stroke="rgb(100%, 100%, 100%)" stroke-opacity="1" stroke-miterlimit="4" d="M 194.432069 1047.262691 L 5.099622 1047.262691 L 100.089061 882.781923 L 194.934849 1047.047214 " transform="matrix(0.10877, 0, 0, 0.10877, 0, -95.465781)"/>
<path fill-rule="nonzero" fill="rgb(100%, 100%, 100%)" fill-opacity="1" d="M 10.578125 16.089844 C 10.578125 16.089844 12.417969 12.742188 13.316406 11.046875 C 14.15625 9.46875 13.078125 7.074219 11.144531 7.011719 C 8.851562 6.933594 8.371094 8.535156 8.382812 9.984375 C 8.398438 11.664062 9.929688 12.820312 11.15625 12.359375 C 9.773438 14.753906 9.183594 16.035156 9.183594 16.035156 Z M 10.914062 11.285156 C 10.109375 11.285156 9.683594 10.617188 9.683594 9.8125 C 9.683594 9.003906 10.109375 8.367188 10.914062 8.367188 C 11.722656 8.367188 12.242188 8.957031 12.242188 9.761719 C 12.242188 10.570312 11.722656 11.285156 10.914062 11.285156 Z M 10.914062 11.285156 "/>
</svg>
