<?xml version="1.0" encoding="UTF-8"?>
<svg xmlns="http://www.w3.org/2000/svg" xmlns:xlink="http://www.w3.org/1999/xlink" width="21.348316" height="19" viewBox="0 0 21.348316 19">
<path fill-rule="evenodd" fill="rgb(0%, 0%, 0%)" fill-opacity="1" stroke-width="10.15501" stroke-linecap="butt" stroke-linejoin="miter" stroke="rgb(100%, 100%, 100%)" stroke-opacity="1" stroke-miterlimit="4" d="M 189.467842 164.301756 L 0.0867635 164.301756 L 95.088364 -0.231061 L 189.906987 164.045589 " transform="matrix(0.106742, 0, 0, 0.106742, 0.533707, 0.567633)"/>
<path fill-rule="evenodd" fill="rgb(100%, 100%, 100%)" fill-opacity="1" d="M 12.324219 7.792969 C 11.507812 7.796875 10.6875 8.40625 10.683594 9.605469 L 10.671875 9.605469 L 10.671875 14.546875 L 10.683594 14.546875 C 10.703125 16.960938 13.96875 16.9375 13.96875 14.546875 L 13.976562 14.546875 L 13.976562 9.605469 L 13.96875 9.605469 C 13.96875 8.386719 13.148438 7.789062 12.324219 7.792969 Z M 12.324219 8.867188 C 12.671875 8.863281 13.019531 9.105469 13.019531 9.605469 L 13.019531 14.546875 L 13.023438 14.546875 C 13.019531 15.515625 11.632812 15.523438 11.632812 14.523438 L 11.632812 9.605469 C 11.632812 9.117188 11.980469 8.871094 12.324219 8.867188 Z M 12.324219 8.867188 "/>
<path fill-rule="evenodd" fill="rgb(100%, 100%, 100%)" fill-opacity="1" d="M 8.417969 8.003906 L 7.367188 9.105469 L 7.367188 10.835938 L 8.402344 9.71875 L 8.402344 16.332031 L 9.519531 16.332031 L 9.519531 8.003906 Z M 8.417969 8.003906 "/>
</svg>
