<?xml version="1.0" encoding="UTF-8"?>
<svg xmlns="http://www.w3.org/2000/svg" xmlns:xlink="http://www.w3.org/1999/xlink" width="14.765716" height="19" viewBox="0 0 14.765716 19">
<defs>
<filter id="filter-remove-color" x="0%" y="0%" width="100%" height="100%">
<feColorMatrix color-interpolation-filters="sRGB" values="0 0 0 0 1 0 0 0 0 1 0 0 0 0 1 0 0 0 1 0" />
</filter>
<mask id="mask-0">
<g filter="url(#filter-remove-color)">
<rect x="-1.476572" y="-1.9" width="17.718859" height="22.8" fill="rgb(0%, 0%, 0%)" fill-opacity="0.99"/>
</g>
</mask>
<clipPath id="clip-0">
<rect x="0" y="0" width="15" height="19"/>
</clipPath>
<g id="source-5" clip-path="url(#clip-0)">
<path fill-rule="nonzero" fill="rgb(100%, 100%, 100%)" fill-opacity="1" d="M 12.863281 11.761719 C 12.863281 12.230469 12.484375 12.613281 12.015625 12.613281 C 11.546875 12.613281 11.164062 12.230469 11.164062 11.761719 C 11.164062 11.292969 11.546875 10.910156 12.015625 10.910156 C 12.484375 10.910156 12.863281 11.292969 12.863281 11.761719 Z M 12.863281 11.761719 "/>
</g>
<mask id="mask-1">
<g filter="url(#filter-remove-color)">
<rect x="-1.476572" y="-1.9" width="17.718859" height="22.8" fill="rgb(0%, 0%, 0%)" fill-opacity="0.99"/>
</g>
</mask>
<clipPath id="clip-1">
<rect x="0" y="0" width="15" height="19"/>
</clipPath>
<g id="source-8" clip-path="url(#clip-1)">
<path fill-rule="nonzero" fill="rgb(100%, 100%, 100%)" fill-opacity="1" d="M 12.863281 14.054688 C 12.863281 14.523438 12.484375 14.902344 12.015625 14.902344 C 11.546875 14.902344 11.164062 14.523438 11.164062 14.054688 C 11.164062 13.582031 11.546875 13.203125 12.015625 13.203125 C 12.484375 13.203125 12.863281 13.582031 12.863281 14.054688 Z M 12.863281 14.054688 "/>
</g>
<mask id="mask-2">
<g filter="url(#filter-remove-color)">
<rect x="-1.476572" y="-1.9" width="17.718859" height="22.8" fill="rgb(0%, 0%, 0%)" fill-opacity="0.99"/>
</g>
</mask>
<clipPath id="clip-2">
<rect x="0" y="0" width="15" height="19"/>
</clipPath>
<g id="source-11" clip-path="url(#clip-2)">
<path fill-rule="nonzero" fill="rgb(100%, 100%, 100%)" fill-opacity="1" d="M 12.863281 7.234375 C 12.863281 7.703125 12.484375 8.085938 12.015625 8.085938 C 11.546875 8.085938 11.164062 7.703125 11.164062 7.234375 C 11.164062 6.765625 11.546875 6.386719 12.015625 6.386719 C 12.484375 6.386719 12.863281 6.765625 12.863281 7.234375 Z M 12.863281 7.234375 "/>
</g>
<mask id="mask-3">
<g filter="url(#filter-remove-color)">
<rect x="-1.476572" y="-1.9" width="17.718859" height="22.8" fill="rgb(0%, 0%, 0%)" fill-opacity="0.99"/>
</g>
</mask>
<clipPath id="clip-3">
<rect x="0" y="0" width="15" height="19"/>
</clipPath>
<g id="source-14" clip-path="url(#clip-3)">
<path fill-rule="nonzero" fill="rgb(100%, 100%, 100%)" fill-opacity="1" d="M 12.863281 4.972656 C 12.863281 5.441406 12.484375 5.824219 12.015625 5.824219 C 11.546875 5.824219 11.164062 5.441406 11.164062 4.972656 C 11.164062 4.503906 11.546875 4.121094 12.015625 4.121094 C 12.484375 4.121094 12.863281 4.503906 12.863281 4.972656 Z M 12.863281 4.972656 "/>
</g>
<mask id="mask-4">
<g filter="url(#filter-remove-color)">
<rect x="-1.476572" y="-1.9" width="17.718859" height="22.8" fill="rgb(0%, 0%, 0%)" fill-opacity="0.99"/>
</g>
</mask>
<clipPath id="clip-4">
<rect x="0" y="0" width="15" height="19"/>
</clipPath>
<g id="source-17" clip-path="url(#clip-4)">
<path fill-rule="nonzero" fill="rgb(100%, 100%, 100%)" fill-opacity="1" d="M 10.550781 9.511719 C 10.550781 9.980469 10.167969 10.363281 9.699219 10.363281 C 9.230469 10.363281 8.847656 9.980469 8.847656 9.511719 C 8.847656 9.042969 9.230469 8.664062 9.699219 8.664062 C 10.167969 8.664062 10.550781 9.042969 10.550781 9.511719 Z M 10.550781 9.511719 "/>
</g>
<mask id="mask-5">
<g filter="url(#filter-remove-color)">
<rect x="-1.476572" y="-1.9" width="17.718859" height="22.8" fill="rgb(0%, 0%, 0%)" fill-opacity="0.99"/>
</g>
</mask>
<clipPath id="clip-5">
<rect x="0" y="0" width="15" height="19"/>
</clipPath>
<g id="source-20" clip-path="url(#clip-5)">
<path fill-rule="nonzero" fill="rgb(100%, 100%, 100%)" fill-opacity="1" d="M 10.550781 16.386719 C 10.550781 16.855469 10.167969 17.238281 9.699219 17.238281 C 9.230469 17.238281 8.847656 16.855469 8.847656 16.386719 C 8.847656 15.917969 9.230469 15.539062 9.699219 15.539062 C 10.167969 15.539062 10.550781 15.917969 10.550781 16.386719 Z M 10.550781 16.386719 "/>
</g>
<mask id="mask-6">
<g filter="url(#filter-remove-color)">
<rect x="-1.476572" y="-1.9" width="17.718859" height="22.8" fill="rgb(0%, 0%, 0%)" fill-opacity="0.99"/>
</g>
</mask>
<clipPath id="clip-6">
<rect x="0" y="0" width="15" height="19"/>
</clipPath>
<g id="source-23" clip-path="url(#clip-6)">
<path fill-rule="nonzero" fill="rgb(100%, 100%, 100%)" fill-opacity="1" d="M 10.550781 2.710938 C 10.550781 3.179688 10.167969 3.558594 9.699219 3.558594 C 9.230469 3.558594 8.847656 3.179688 8.847656 2.710938 C 8.847656 2.238281 9.230469 1.859375 9.699219 1.859375 C 10.167969 1.859375 10.550781 2.238281 10.550781 2.710938 Z M 10.550781 2.710938 "/>
</g>
<mask id="mask-7">
<g filter="url(#filter-remove-color)">
<rect x="-1.476572" y="-1.9" width="17.718859" height="22.8" fill="rgb(0%, 0%, 0%)" fill-opacity="0.99"/>
</g>
</mask>
<clipPath id="clip-7">
<rect x="0" y="0" width="15" height="19"/>
</clipPath>
<g id="source-26" clip-path="url(#clip-7)">
<path fill-rule="nonzero" fill="rgb(100%, 100%, 100%)" fill-opacity="1" d="M 8.285156 9.511719 C 8.285156 9.980469 7.902344 10.363281 7.433594 10.363281 C 6.964844 10.363281 6.582031 9.980469 6.582031 9.511719 C 6.582031 9.042969 6.964844 8.664062 7.433594 8.664062 C 7.902344 8.664062 8.285156 9.042969 8.285156 9.511719 Z M 8.285156 9.511719 "/>
</g>
<mask id="mask-8">
<g filter="url(#filter-remove-color)">
<rect x="-1.476572" y="-1.9" width="17.718859" height="22.8" fill="rgb(0%, 0%, 0%)" fill-opacity="0.99"/>
</g>
</mask>
<clipPath id="clip-8">
<rect x="0" y="0" width="15" height="19"/>
</clipPath>
<g id="source-29" clip-path="url(#clip-8)">
<path fill-rule="nonzero" fill="rgb(100%, 100%, 100%)" fill-opacity="1" d="M 8.285156 2.710938 C 8.285156 3.179688 7.902344 3.558594 7.433594 3.558594 C 6.964844 3.558594 6.582031 3.179688 6.582031 2.710938 C 6.582031 2.238281 6.964844 1.859375 7.433594 1.859375 C 7.902344 1.859375 8.285156 2.238281 8.285156 2.710938 Z M 8.285156 2.710938 "/>
</g>
<mask id="mask-9">
<g filter="url(#filter-remove-color)">
<rect x="-1.476572" y="-1.9" width="17.718859" height="22.8" fill="rgb(0%, 0%, 0%)" fill-opacity="0.99"/>
</g>
</mask>
<clipPath id="clip-9">
<rect x="0" y="0" width="15" height="19"/>
</clipPath>
<g id="source-32" clip-path="url(#clip-9)">
<path fill-rule="nonzero" fill="rgb(100%, 100%, 100%)" fill-opacity="1" d="M 8.285156 16.386719 C 8.285156 16.855469 7.902344 17.238281 7.433594 17.238281 C 6.964844 17.238281 6.582031 16.855469 6.582031 16.386719 C 6.582031 15.917969 6.964844 15.539062 7.433594 15.539062 C 7.902344 15.539062 8.285156 15.917969 8.285156 16.386719 Z M 8.285156 16.386719 "/>
</g>
<mask id="mask-10">
<g filter="url(#filter-remove-color)">
<rect x="-1.476572" y="-1.9" width="17.718859" height="22.8" fill="rgb(0%, 0%, 0%)" fill-opacity="0.99"/>
</g>
</mask>
<clipPath id="clip-10">
<rect x="0" y="0" width="15" height="19"/>
</clipPath>
<g id="source-35" clip-path="url(#clip-10)">
<path fill-rule="nonzero" fill="rgb(100%, 100%, 100%)" fill-opacity="1" d="M 3.601562 7.234375 C 3.601562 7.703125 3.21875 8.085938 2.75 8.085938 C 2.28125 8.085938 1.902344 7.703125 1.902344 7.234375 C 1.902344 6.765625 2.28125 6.386719 2.75 6.386719 C 3.21875 6.386719 3.601562 6.765625 3.601562 7.234375 Z M 3.601562 7.234375 "/>
</g>
<mask id="mask-11">
<g filter="url(#filter-remove-color)">
<rect x="-1.476572" y="-1.9" width="17.718859" height="22.8" fill="rgb(0%, 0%, 0%)" fill-opacity="0.99"/>
</g>
</mask>
<clipPath id="clip-11">
<rect x="0" y="0" width="15" height="19"/>
</clipPath>
<g id="source-38" clip-path="url(#clip-11)">
<path fill-rule="nonzero" fill="rgb(100%, 100%, 100%)" fill-opacity="1" d="M 3.601562 4.972656 C 3.601562 5.441406 3.21875 5.824219 2.75 5.824219 C 2.28125 5.824219 1.902344 5.441406 1.902344 4.972656 C 1.902344 4.503906 2.28125 4.121094 2.75 4.121094 C 3.21875 4.121094 3.601562 4.503906 3.601562 4.972656 Z M 3.601562 4.972656 "/>
</g>
<mask id="mask-12">
<g filter="url(#filter-remove-color)">
<rect x="-1.476572" y="-1.9" width="17.718859" height="22.8" fill="rgb(0%, 0%, 0%)" fill-opacity="0.99"/>
</g>
</mask>
<clipPath id="clip-12">
<rect x="0" y="0" width="15" height="19"/>
</clipPath>
<g id="source-41" clip-path="url(#clip-12)">
<path fill-rule="nonzero" fill="rgb(100%, 100%, 100%)" fill-opacity="1" d="M 3.601562 11.761719 C 3.601562 12.230469 3.21875 12.613281 2.75 12.613281 C 2.28125 12.613281 1.902344 12.230469 1.902344 11.761719 C 1.902344 11.292969 2.28125 10.910156 2.75 10.910156 C 3.21875 10.910156 3.601562 11.292969 3.601562 11.761719 Z M 3.601562 11.761719 "/>
</g>
<mask id="mask-13">
<g filter="url(#filter-remove-color)">
<rect x="-1.476572" y="-1.9" width="17.718859" height="22.8" fill="rgb(0%, 0%, 0%)" fill-opacity="0.99"/>
</g>
</mask>
<clipPath id="clip-13">
<rect x="0" y="0" width="15" height="19"/>
</clipPath>
<g id="source-44" clip-path="url(#clip-13)">
<path fill-rule="nonzero" fill="rgb(100%, 100%, 100%)" fill-opacity="1" d="M 3.601562 14.054688 C 3.601562 14.523438 3.21875 14.902344 2.75 14.902344 C 2.28125 14.902344 1.902344 14.523438 1.902344 14.054688 C 1.902344 13.582031 2.28125 13.203125 2.75 13.203125 C 3.21875 13.203125 3.601562 13.582031 3.601562 14.054688 Z M 3.601562 14.054688 "/>
</g>
<mask id="mask-14">
<g filter="url(#filter-remove-color)">
<rect x="-1.476572" y="-1.9" width="17.718859" height="22.8" fill="rgb(0%, 0%, 0%)" fill-opacity="0.99"/>
</g>
</mask>
<clipPath id="clip-14">
<rect x="0" y="0" width="15" height="19"/>
</clipPath>
<g id="source-47" clip-path="url(#clip-14)">
<path fill-rule="nonzero" fill="rgb(100%, 100%, 100%)" fill-opacity="1" d="M 5.929688 9.511719 C 5.929688 9.980469 5.550781 10.363281 5.078125 10.363281 C 4.609375 10.363281 4.230469 9.980469 4.230469 9.511719 C 4.230469 9.042969 4.609375 8.664062 5.078125 8.664062 C 5.550781 8.664062 5.929688 9.042969 5.929688 9.511719 Z M 5.929688 9.511719 "/>
</g>
<mask id="mask-15">
<g filter="url(#filter-remove-color)">
<rect x="-1.476572" y="-1.9" width="17.718859" height="22.8" fill="rgb(0%, 0%, 0%)" fill-opacity="0.99"/>
</g>
</mask>
<clipPath id="clip-15">
<rect x="0" y="0" width="15" height="19"/>
</clipPath>
<g id="source-50" clip-path="url(#clip-15)">
<path fill-rule="nonzero" fill="rgb(100%, 100%, 100%)" fill-opacity="1" d="M 5.929688 2.710938 C 5.929688 3.179688 5.550781 3.558594 5.078125 3.558594 C 4.609375 3.558594 4.230469 3.179688 4.230469 2.710938 C 4.230469 2.238281 4.609375 1.859375 5.078125 1.859375 C 5.550781 1.859375 5.929688 2.238281 5.929688 2.710938 Z M 5.929688 2.710938 "/>
</g>
<mask id="mask-16">
<g filter="url(#filter-remove-color)">
<rect x="-1.476572" y="-1.9" width="17.718859" height="22.8" fill="rgb(0%, 0%, 0%)" fill-opacity="0.99"/>
</g>
</mask>
<clipPath id="clip-16">
<rect x="0" y="0" width="15" height="19"/>
</clipPath>
<g id="source-53" clip-path="url(#clip-16)">
<path fill-rule="nonzero" fill="rgb(100%, 100%, 100%)" fill-opacity="1" d="M 5.929688 16.386719 C 5.929688 16.855469 5.550781 17.238281 5.078125 17.238281 C 4.609375 17.238281 4.230469 16.855469 4.230469 16.386719 C 4.230469 15.917969 4.609375 15.539062 5.078125 15.539062 C 5.550781 15.539062 5.929688 15.917969 5.929688 16.386719 Z M 5.929688 16.386719 "/>
</g>
</defs>
<path fill-rule="nonzero" fill="rgb(0%, 0%, 0%)" fill-opacity="1" d="M 0 0 L 14.765625 0 L 14.765625 19 L 0 19 Z M 0 0 "/>
<g mask="url(#mask-0)">
<use xlink:href="#source-5"/>
</g>
<g mask="url(#mask-1)">
<use xlink:href="#source-8"/>
</g>
<g mask="url(#mask-2)">
<use xlink:href="#source-11"/>
</g>
<g mask="url(#mask-3)">
<use xlink:href="#source-14"/>
</g>
<g mask="url(#mask-4)">
<use xlink:href="#source-17"/>
</g>
<g mask="url(#mask-5)">
<use xlink:href="#source-20"/>
</g>
<g mask="url(#mask-6)">
<use xlink:href="#source-23"/>
</g>
<g mask="url(#mask-7)">
<use xlink:href="#source-26"/>
</g>
<g mask="url(#mask-8)">
<use xlink:href="#source-29"/>
</g>
<g mask="url(#mask-9)">
<use xlink:href="#source-32"/>
</g>
<g mask="url(#mask-10)">
<use xlink:href="#source-35"/>
</g>
<g mask="url(#mask-11)">
<use xlink:href="#source-38"/>
</g>
<g mask="url(#mask-12)">
<use xlink:href="#source-41"/>
</g>
<g mask="url(#mask-13)">
<use xlink:href="#source-44"/>
</g>
<g mask="url(#mask-14)">
<use xlink:href="#source-47"/>
</g>
<g mask="url(#mask-15)">
<use xlink:href="#source-50"/>
</g>
<g mask="url(#mask-16)">
<use xlink:href="#source-53"/>
</g>
</svg>
