<?xml version="1.0" encoding="UTF-8"?>
<svg xmlns="http://www.w3.org/2000/svg" xmlns:xlink="http://www.w3.org/1999/xlink" width="16.853933" height="15" viewBox="0 0 16.853933 15">
<path fill-rule="evenodd" fill="rgb(0%, 0%, 0%)" fill-opacity="1" stroke-width="10.15501" stroke-linecap="butt" stroke-linejoin="miter" stroke="rgb(100%, 100%, 100%)" stroke-opacity="1" stroke-miterlimit="4" d="M 189.455729 164.292076 L 0.0989583 164.292076 L 95.078646 -0.218862 L 189.919271 164.060305 " transform="matrix(0.0842697, 0, 0, 0.0842697, 0.421348, 0.448131)"/>
<path fill-rule="evenodd" fill="rgb(100%, 100%, 100%)" fill-opacity="1" d="M 8.484375 5.476562 C 7.628906 5.476562 7.007812 6.050781 6.996094 6.964844 L 6.996094 7.742188 C 6.996094 8.089844 7.144531 8.496094 7.433594 8.773438 C 7.144531 9.054688 6.996094 9.445312 6.996094 9.789062 L 6.996094 10.984375 C 6.996094 11.898438 7.628906 12.472656 8.484375 12.472656 C 9.28125 12.472656 9.945312 11.910156 9.945312 10.984375 L 9.945312 9.789062 C 9.945312 9.445312 9.761719 9 9.507812 8.773438 C 9.8125 8.472656 9.945312 8.082031 9.945312 7.734375 L 9.945312 6.964844 C 9.945312 6.039062 9.28125 5.476562 8.484375 5.476562 Z M 8.453125 6.320312 C 8.816406 6.316406 9.101562 6.546875 9.101562 6.917969 L 9.101562 7.707031 C 9.101562 8.023438 8.867188 8.34375 8.46875 8.34375 C 8.074219 8.34375 7.835938 8.023438 7.835938 7.707031 L 7.839844 6.90625 C 7.839844 6.539062 8.164062 6.324219 8.453125 6.320312 Z M 8.46875 9.183594 C 8.835938 9.183594 9.101562 9.472656 9.101562 9.804688 L 9.101562 10.96875 C 9.101562 11.328125 8.816406 11.550781 8.453125 11.542969 C 8.164062 11.542969 7.839844 11.335938 7.839844 10.976562 L 7.835938 9.804688 C 7.835938 9.46875 8.109375 9.183594 8.46875 9.183594 Z M 8.46875 9.183594 "/>
</svg>
