<?xml version="1.0" encoding="UTF-8"?>
<svg xmlns="http://www.w3.org/2000/svg" xmlns:xlink="http://www.w3.org/1999/xlink" width="14.765716" height="19" viewBox="0 0 14.765716 19">
<path fill-rule="nonzero" fill="rgb(0%, 0%, 0%)" fill-opacity="1" d="M 0 0 L 14.765625 0 L 14.765625 19 L 0 19 Z M 0 0 "/>
<path fill-rule="nonzero" fill="rgb(100%, 100%, 100%)" fill-opacity="1" d="M 2.53125 2.707031 C 2.53125 3.175781 2.152344 3.554688 1.683594 3.554688 C 1.21875 3.554688 0.832031 3.175781 0.832031 2.707031 C 0.832031 2.242188 1.21875 1.863281 1.683594 1.863281 C 2.152344 1.863281 2.53125 2.242188 2.53125 2.707031 Z M 2.53125 2.707031 "/>
<path fill-rule="nonzero" fill="rgb(100%, 100%, 100%)" fill-opacity="1" d="M 4.796875 2.707031 C 4.796875 3.175781 4.417969 3.554688 3.949219 3.554688 C 3.484375 3.554688 3.097656 3.175781 3.097656 2.707031 C 3.097656 2.242188 3.484375 1.863281 3.949219 1.863281 C 4.417969 1.863281 4.796875 2.242188 4.796875 2.707031 Z M 4.796875 2.707031 "/>
<path fill-rule="nonzero" fill="rgb(100%, 100%, 100%)" fill-opacity="1" d="M 7.113281 4.972656 C 7.113281 5.441406 6.730469 5.820312 6.261719 5.820312 C 5.796875 5.820312 5.414062 5.441406 5.414062 4.972656 C 5.414062 4.503906 5.796875 4.125 6.261719 4.125 C 6.730469 4.125 7.113281 4.503906 7.113281 4.972656 Z M 7.113281 4.972656 "/>
<path fill-rule="nonzero" fill="rgb(100%, 100%, 100%)" fill-opacity="1" d="M 7.113281 7.234375 C 7.113281 7.703125 6.730469 8.085938 6.261719 8.085938 C 5.796875 8.085938 5.414062 7.703125 5.414062 7.234375 C 5.414062 6.769531 5.796875 6.390625 6.261719 6.390625 C 6.730469 6.390625 7.113281 6.769531 7.113281 7.234375 Z M 7.113281 7.234375 "/>
<path fill-rule="nonzero" fill="rgb(100%, 100%, 100%)" fill-opacity="1" d="M 4.796875 9.546875 C 4.796875 10.015625 4.417969 10.394531 3.949219 10.394531 C 3.484375 10.394531 3.097656 10.015625 3.097656 9.546875 C 3.097656 9.078125 3.484375 8.703125 3.949219 8.703125 C 4.417969 8.703125 4.796875 9.078125 4.796875 9.546875 Z M 4.796875 9.546875 "/>
<path fill-rule="nonzero" fill="rgb(100%, 100%, 100%)" fill-opacity="1" d="M 2.53125 11.71875 C 2.53125 12.1875 2.152344 12.566406 1.683594 12.566406 C 1.21875 12.566406 0.832031 12.1875 0.832031 11.71875 C 0.832031 11.25 1.21875 10.871094 1.683594 10.871094 C 2.152344 10.871094 2.53125 11.25 2.53125 11.71875 Z M 2.53125 11.71875 "/>
<path fill-rule="nonzero" fill="rgb(100%, 100%, 100%)" fill-opacity="1" d="M 2.53125 14.050781 C 2.53125 14.519531 2.152344 14.902344 1.683594 14.902344 C 1.21875 14.902344 0.832031 14.519531 0.832031 14.050781 C 0.832031 13.585938 1.21875 13.207031 1.683594 13.207031 C 2.152344 13.207031 2.53125 13.585938 2.53125 14.050781 Z M 2.53125 14.050781 "/>
<path fill-rule="nonzero" fill="rgb(100%, 100%, 100%)" fill-opacity="1" d="M 2.484375 16.339844 C 2.484375 16.808594 2.101562 17.1875 1.632812 17.1875 C 1.167969 17.1875 0.785156 16.808594 0.785156 16.339844 C 0.785156 15.871094 1.167969 15.492188 1.632812 15.492188 C 2.101562 15.492188 2.484375 15.871094 2.484375 16.339844 Z M 2.484375 16.339844 "/>
<path fill-rule="nonzero" fill="rgb(100%, 100%, 100%)" fill-opacity="1" d="M 4.824219 16.347656 C 4.824219 16.816406 4.441406 17.195312 3.972656 17.195312 C 3.507812 17.195312 3.125 16.816406 3.125 16.347656 C 3.125 15.878906 3.507812 15.5 3.972656 15.5 C 4.441406 15.5 4.824219 15.878906 4.824219 16.347656 Z M 4.824219 16.347656 "/>
<path fill-rule="nonzero" fill="rgb(100%, 100%, 100%)" fill-opacity="1" d="M 7.085938 16.386719 C 7.085938 16.855469 6.703125 17.234375 6.234375 17.234375 C 5.769531 17.234375 5.386719 16.855469 5.386719 16.386719 C 5.386719 15.921875 5.769531 15.542969 6.234375 15.542969 C 6.703125 15.542969 7.085938 15.921875 7.085938 16.386719 Z M 7.085938 16.386719 "/>
<path fill-rule="nonzero" fill="rgb(100%, 100%, 100%)" fill-opacity="1" d="M 11.847656 2.757812 C 11.847656 3.226562 11.464844 3.609375 10.996094 3.609375 C 10.53125 3.609375 10.148438 3.226562 10.148438 2.757812 C 10.148438 2.296875 10.53125 1.914062 10.996094 1.914062 C 11.464844 1.914062 11.847656 2.296875 11.847656 2.757812 Z M 11.847656 2.757812 "/>
<path fill-rule="nonzero" fill="rgb(100%, 100%, 100%)" fill-opacity="1" d="M 14.160156 5.015625 C 14.160156 5.484375 13.777344 5.859375 13.308594 5.859375 C 12.84375 5.859375 12.460938 5.484375 12.460938 5.015625 C 12.460938 4.546875 12.84375 4.164062 13.308594 4.164062 C 13.777344 4.164062 14.160156 4.546875 14.160156 5.015625 Z M 14.160156 5.015625 "/>
<path fill-rule="nonzero" fill="rgb(100%, 100%, 100%)" fill-opacity="1" d="M 14.160156 7.320312 C 14.160156 7.789062 13.777344 8.171875 13.308594 8.171875 C 12.84375 8.171875 12.460938 7.789062 12.460938 7.320312 C 12.460938 6.851562 12.84375 6.472656 13.308594 6.472656 C 13.777344 6.472656 14.160156 6.851562 14.160156 7.320312 Z M 14.160156 7.320312 "/>
<path fill-rule="nonzero" fill="rgb(100%, 100%, 100%)" fill-opacity="1" d="M 14.160156 9.578125 C 14.160156 10.046875 13.777344 10.425781 13.308594 10.425781 C 12.84375 10.425781 12.460938 10.046875 12.460938 9.578125 C 12.460938 9.109375 12.84375 8.734375 13.308594 8.734375 C 13.777344 8.734375 14.160156 9.109375 14.160156 9.578125 Z M 14.160156 9.578125 "/>
<path fill-rule="nonzero" fill="rgb(100%, 100%, 100%)" fill-opacity="1" d="M 14.160156 11.835938 C 14.160156 12.304688 13.777344 12.683594 13.308594 12.683594 C 12.84375 12.683594 12.460938 12.304688 12.460938 11.835938 C 12.460938 11.367188 12.84375 10.988281 13.308594 10.988281 C 13.777344 10.988281 14.160156 11.367188 14.160156 11.835938 Z M 14.160156 11.835938 "/>
<path fill-rule="nonzero" fill="rgb(100%, 100%, 100%)" fill-opacity="1" d="M 14.160156 14.066406 C 14.160156 14.535156 13.777344 14.914062 13.308594 14.914062 C 12.84375 14.914062 12.460938 14.535156 12.460938 14.066406 C 12.460938 13.597656 12.84375 13.21875 13.308594 13.21875 C 13.777344 13.21875 14.160156 13.597656 14.160156 14.066406 Z M 14.160156 14.066406 "/>
<path fill-rule="nonzero" fill="rgb(100%, 100%, 100%)" fill-opacity="1" d="M 11.84375 16.4375 C 11.84375 16.90625 11.464844 17.285156 10.996094 17.285156 C 10.53125 17.285156 10.144531 16.90625 10.144531 16.4375 C 10.144531 15.972656 10.53125 15.59375 10.996094 15.59375 C 11.464844 15.59375 11.84375 15.972656 11.84375 16.4375 Z M 11.84375 16.4375 "/>
<path fill-rule="nonzero" fill="rgb(100%, 100%, 100%)" fill-opacity="1" d="M 9.527344 14.101562 C 9.527344 14.570312 9.148438 14.953125 8.675781 14.953125 C 8.210938 14.953125 7.828125 14.570312 7.828125 14.101562 C 7.828125 13.632812 8.210938 13.253906 8.675781 13.253906 C 9.148438 13.253906 9.527344 13.632812 9.527344 14.101562 Z M 9.527344 14.101562 "/>
<path fill-rule="nonzero" fill="rgb(100%, 100%, 100%)" fill-opacity="1" d="M 9.527344 11.839844 C 9.527344 12.308594 9.148438 12.6875 8.675781 12.6875 C 8.210938 12.6875 7.828125 12.308594 7.828125 11.839844 C 7.828125 11.371094 8.210938 10.992188 8.675781 10.992188 C 9.148438 10.992188 9.527344 11.371094 9.527344 11.839844 Z M 9.527344 11.839844 "/>
<path fill-rule="nonzero" fill="rgb(100%, 100%, 100%)" fill-opacity="1" d="M 9.527344 9.546875 C 9.527344 10.015625 9.148438 10.394531 8.675781 10.394531 C 8.210938 10.394531 7.828125 10.015625 7.828125 9.546875 C 7.828125 9.078125 8.210938 8.703125 8.675781 8.703125 C 9.148438 8.703125 9.527344 9.078125 9.527344 9.546875 Z M 9.527344 9.546875 "/>
<path fill-rule="nonzero" fill="rgb(100%, 100%, 100%)" fill-opacity="1" d="M 9.582031 7.285156 C 9.582031 7.753906 9.199219 8.132812 8.730469 8.132812 C 8.265625 8.132812 7.878906 7.753906 7.878906 7.285156 C 7.878906 6.816406 8.265625 6.4375 8.730469 6.4375 C 9.199219 6.4375 9.582031 6.816406 9.582031 7.285156 Z M 9.582031 7.285156 "/>
<path fill-rule="nonzero" fill="rgb(100%, 100%, 100%)" fill-opacity="1" d="M 9.527344 5.027344 C 9.527344 5.496094 9.148438 5.875 8.675781 5.875 C 8.210938 5.875 7.828125 5.496094 7.828125 5.027344 C 7.828125 4.558594 8.210938 4.179688 8.675781 4.179688 C 9.148438 4.179688 9.527344 4.558594 9.527344 5.027344 Z M 9.527344 5.027344 "/>
</svg>
