<?xml version="1.0" encoding="UTF-8"?>
<svg xmlns="http://www.w3.org/2000/svg" xmlns:xlink="http://www.w3.org/1999/xlink" width="21.754791" height="19" viewBox="0 0 21.754791 19">
<path fill-rule="nonzero" fill="rgb(0%, 0%, 0%)" fill-opacity="1" stroke-width="14.258254" stroke-linecap="round" stroke-linejoin="round" stroke="rgb(90.196079%, 95.686275%, 27.058825%)" stroke-opacity="1" stroke-miterlimit="4" d="M 272.992874 814.262179 L 7.160138 814.262179 L 140.530318 1045.201848 L 273.698803 814.564721 " transform="matrix(0.0774688, 0, 0, 0.0774688, 0, -62.525248)"/>
<path fill-rule="nonzero" fill="rgb(90.196079%, 95.686275%, 27.058825%)" fill-opacity="1" d="M 10.867188 2.636719 C 9.8125 2.695312 8.796875 3.339844 8.796875 4.8125 L 10.265625 4.8125 C 10.265625 3.46875 12.269531 3.707031 11.632812 4.8125 C 10.804688 6.238281 9.035156 9.339844 8.292969 10.703125 L 8.292969 12.0625 C 9.90625 12.0625 11.609375 12.0625 13.191406 12.0625 L 13.191406 10.765625 L 13.195312 10.703125 L 9.792969 10.703125 C 9.902344 10.515625 11.761719 7.148438 13.113281 4.8125 C 13.65625 3.464844 12.226562 2.566406 10.867188 2.636719 Z M 10.867188 2.636719 "/>
</svg>
