<?xml version="1.0" encoding="UTF-8"?>
<svg xmlns="http://www.w3.org/2000/svg" xmlns:xlink="http://www.w3.org/1999/xlink" width="21.626017" height="19" viewBox="0 0 21.626017 19">
<path fill-rule="evenodd" fill="rgb(0%, 0%, 0%)" fill-opacity="1" stroke-width="14.258254" stroke-linecap="round" stroke-linejoin="round" stroke="rgb(90.196079%, 95.686275%, 27.058825%)" stroke-opacity="1" stroke-miterlimit="4" d="M 7.131169 7.131169 L 140.4992 238.110235 L 273.664929 7.434623 Z M 7.131169 7.131169 " transform="matrix(0.0772358, 0, 0, 0.0772358, 0, 0)"/>
<path fill-rule="evenodd" fill="rgb(90.196079%, 95.686275%, 27.058825%)" fill-opacity="1" d="M 8.296875 2.316406 L 7.105469 3.476562 L 7.105469 4.875 L 8.222656 3.753906 L 8.222656 10.65625 L 9.273438 10.65625 L 9.273438 2.316406 Z M 8.296875 2.316406 "/>
<path fill-rule="evenodd" fill="rgb(90.196079%, 95.686275%, 27.058825%)" fill-opacity="1" d="M 12.582031 10.683594 L 12.582031 9.363281 L 10.191406 9.363281 L 10.191406 8.289062 L 11.859375 2.316406 L 12.957031 2.316406 L 11.230469 8.316406 L 12.582031 8.316406 L 12.582031 5.902344 L 13.621094 5.902344 L 13.621094 8.316406 L 14.207031 8.316406 L 14.207031 9.363281 L 13.621094 9.363281 L 13.621094 10.683594 Z M 12.582031 10.683594 "/>
</svg>
