<?xml version="1.0" encoding="UTF-8"?>
<svg xmlns="http://www.w3.org/2000/svg" xmlns:xlink="http://www.w3.org/1999/xlink" width="21.754791" height="19" viewBox="0 0 21.754791 19">
<path fill-rule="nonzero" fill="rgb(0%, 0%, 0%)" fill-opacity="1" stroke-width="14.258254" stroke-linecap="round" stroke-linejoin="round" stroke="rgb(90.196079%, 95.686275%, 27.058825%)" stroke-opacity="1" stroke-miterlimit="4" d="M 272.992874 814.262179 L 7.160138 814.262179 L 140.530318 1045.201848 L 273.698803 814.564721 " transform="matrix(0.0774688, 0, 0, 0.0774688, 0, -62.525248)"/>
<path fill-rule="nonzero" fill="rgb(90.196079%, 95.686275%, 27.058825%)" fill-opacity="1" d="M 9.476562 6.164062 L 9.476562 3.976562 L 13.242188 3.976562 L 13.242188 2.707031 L 8.34375 2.707031 L 8.34375 7.492188 C 8.34375 7.492188 9.171875 7.460938 9.589844 7.492188 C 9.808594 7.011719 10.328125 6.824219 10.890625 6.824219 C 11.433594 6.824219 12.046875 7.445312 12.046875 7.824219 C 12.046875 8.792969 12.046875 8.539062 12.046875 9.425781 C 12.066406 11.246094 9.4375 11.089844 9.4375 9.664062 C 9.019531 9.664062 8.773438 9.652344 8.199219 9.652344 C 8.1875 10.6875 9.253906 12.097656 10.730469 12.097656 C 12.371094 12.097656 13.324219 10.496094 13.324219 9.734375 C 13.324219 7.128906 13.324219 8.234375 13.324219 7.40625 C 13.324219 6.605469 12.289062 5.640625 11.1875 5.640625 C 10.335938 5.640625 10.019531 5.640625 9.476562 6.164062 Z M 9.476562 6.164062 "/>
</svg>
