<?xml version="1.0" encoding="UTF-8"?>
<svg xmlns="http://www.w3.org/2000/svg" xmlns:xlink="http://www.w3.org/1999/xlink" width="21.626017" height="19" viewBox="0 0 21.626017 19">
<path fill-rule="evenodd" fill="rgb(0%, 0%, 0%)" fill-opacity="1" stroke-width="14.258254" stroke-linecap="round" stroke-linejoin="round" stroke="rgb(90.196079%, 95.686275%, 27.058825%)" stroke-opacity="1" stroke-miterlimit="4" d="M 7.131169 7.131169 L 140.4992 238.110235 L 273.664929 7.434623 Z M 7.131169 7.131169 " transform="matrix(0.0772358, 0, 0, 0.0772358, 0, 0)"/>
<path fill-rule="evenodd" fill="rgb(90.196079%, 95.686275%, 27.058825%)" fill-opacity="1" d="M 10.890625 11.894531 C 11.894531 11.894531 12.898438 10.835938 12.898438 9.820312 L 12.898438 4.390625 C 12.898438 3.707031 12.296875 2.628906 10.925781 2.628906 C 9.816406 2.628906 8.957031 3.632812 8.957031 4.390625 L 8.957031 6.972656 C 8.957031 8.800781 10.886719 8.847656 11.5625 8.585938 L 11.5625 9.949219 C 11.5625 10.683594 10.078125 10.65625 10.078125 9.949219 L 8.882812 9.949219 C 8.882812 10.835938 9.886719 11.894531 10.890625 11.894531 Z M 10.988281 7.335938 C 10.644531 7.351562 10.273438 7.175781 10.273438 6.824219 L 10.273438 4.730469 C 10.273438 3.808594 11.582031 3.75 11.582031 4.730469 L 11.582031 6.84375 C 11.582031 7.160156 11.296875 7.324219 10.988281 7.335938 Z M 10.988281 7.335938 "/>
</svg>
