<?xml version="1.0" encoding="UTF-8"?>
<svg xmlns="http://www.w3.org/2000/svg" xmlns:xlink="http://www.w3.org/1999/xlink" width="21.754791" height="19" viewBox="0 0 21.754791 19">
<path fill-rule="nonzero" fill="rgb(0%, 0%, 0%)" fill-opacity="1" stroke-width="14.258254" stroke-linecap="round" stroke-linejoin="round" stroke="rgb(90.196079%, 95.686275%, 27.058825%)" stroke-opacity="1" stroke-miterlimit="4" d="M 272.992874 814.262179 L 7.160138 814.262179 L 140.530318 1045.201848 L 273.698803 814.564721 " transform="matrix(0.0774688, 0, 0, 0.0774688, 0, -62.525248)"/>
<path fill-rule="nonzero" fill="rgb(90.196079%, 95.686275%, 27.058825%)" fill-opacity="1" d="M 11.324219 2.707031 C 11.324219 2.707031 9.421875 6.171875 8.496094 7.917969 C 7.628906 9.550781 8.742188 12.023438 10.742188 12.09375 C 13.113281 12.175781 13.613281 10.515625 13.597656 9.015625 C 13.582031 7.285156 11.992188 6.085938 10.726562 6.5625 C 12.15625 4.082031 12.765625 2.761719 12.765625 2.761719 Z M 10.980469 7.667969 C 11.816406 7.667969 12.257812 8.363281 12.257812 9.191406 C 12.257812 10.03125 11.816406 10.6875 10.980469 10.6875 C 10.148438 10.6875 9.609375 10.082031 9.609375 9.246094 C 9.609375 8.417969 10.148438 7.667969 10.980469 7.667969 Z M 10.980469 7.667969 "/>
</svg>
