<?xml version="1.0" encoding="UTF-8"?>
<svg xmlns="http://www.w3.org/2000/svg" xmlns:xlink="http://www.w3.org/1999/xlink" width="21.626017" height="19" viewBox="0 0 21.626017 19">
<path fill-rule="evenodd" fill="rgb(0%, 0%, 0%)" fill-opacity="1" stroke-width="14.258254" stroke-linecap="round" stroke-linejoin="round" stroke="rgb(90.196079%, 95.686275%, 27.058825%)" stroke-opacity="1" stroke-miterlimit="4" d="M 7.131169 7.131169 L 140.4992 238.110235 L 273.664929 7.434623 Z M 7.131169 7.131169 " transform="matrix(0.0772358, 0, 0, 0.0772358, 0, 0)"/>
<path fill-rule="evenodd" fill="rgb(90.196079%, 95.686275%, 27.058825%)" fill-opacity="1" d="M 8.296875 2.316406 L 7.105469 3.476562 L 7.105469 4.875 L 8.222656 3.753906 L 8.222656 10.65625 L 9.273438 10.65625 L 9.273438 2.316406 Z M 8.296875 2.316406 "/>
<path fill-rule="evenodd" fill="rgb(90.196079%, 95.686275%, 27.058825%)" fill-opacity="1" d="M 14.089844 10.601562 L 10.609375 10.601562 L 10.609375 9.550781 L 12.875 5.179688 C 12.972656 4.984375 13.101562 4.773438 13.101562 4.566406 L 13.101562 3.964844 C 13.101562 3.519531 12.765625 3.242188 12.335938 3.246094 C 11.992188 3.25 11.613281 3.507812 11.613281 3.953125 L 11.613281 4.632812 L 10.582031 4.632812 L 10.582031 4.027344 C 10.582031 2.878906 11.335938 2.164062 12.375 2.164062 C 13.328125 2.164062 14.125 2.851562 14.125 3.988281 L 14.125 4.707031 C 14.125 5.0625 13.914062 5.417969 13.75 5.734375 L 11.769531 9.558594 L 14.089844 9.558594 L 14.089844 10.601562 "/>
</svg>
