<?xml version="1.0" encoding="UTF-8"?>
<svg xmlns="http://www.w3.org/2000/svg" xmlns:xlink="http://www.w3.org/1999/xlink" width="14.765716" height="19" viewBox="0 0 14.765716 19">
<path fill-rule="nonzero" fill="rgb(0%, 0%, 0%)" fill-opacity="1" d="M 0 0 L 14.765625 0 L 14.765625 19 L 0 19 Z M 0 0 "/>
<path fill-rule="nonzero" fill="rgb(99.607843%, 98.823529%, 36.470588%)" fill-opacity="1" d="M 12.863281 7.234375 C 12.863281 7.703125 12.484375 8.085938 12.015625 8.085938 C 11.546875 8.085938 11.164062 7.703125 11.164062 7.234375 C 11.164062 6.765625 11.546875 6.386719 12.015625 6.386719 C 12.484375 6.386719 12.863281 6.765625 12.863281 7.234375 Z M 12.863281 7.234375 "/>
<path fill-rule="nonzero" fill="rgb(99.607843%, 98.823529%, 36.470588%)" fill-opacity="1" d="M 12.863281 4.972656 C 12.863281 5.441406 12.484375 5.824219 12.015625 5.824219 C 11.546875 5.824219 11.164062 5.441406 11.164062 4.972656 C 11.164062 4.503906 11.546875 4.121094 12.015625 4.121094 C 12.484375 4.121094 12.863281 4.503906 12.863281 4.972656 Z M 12.863281 4.972656 "/>
<path fill-rule="nonzero" fill="rgb(99.607843%, 98.823529%, 36.470588%)" fill-opacity="1" d="M 10.550781 9.511719 C 10.550781 9.980469 10.167969 10.363281 9.699219 10.363281 C 9.230469 10.363281 8.847656 9.980469 8.847656 9.511719 C 8.847656 9.042969 9.230469 8.664062 9.699219 8.664062 C 10.167969 8.664062 10.550781 9.042969 10.550781 9.511719 Z M 10.550781 9.511719 "/>
<path fill-rule="nonzero" fill="rgb(99.607843%, 98.823529%, 36.470588%)" fill-opacity="1" d="M 10.550781 2.710938 C 10.550781 3.179688 10.167969 3.558594 9.699219 3.558594 C 9.230469 3.558594 8.847656 3.179688 8.847656 2.710938 C 8.847656 2.238281 9.230469 1.859375 9.699219 1.859375 C 10.167969 1.859375 10.550781 2.238281 10.550781 2.710938 Z M 10.550781 2.710938 "/>
<path fill-rule="nonzero" fill="rgb(99.607843%, 98.823529%, 36.470588%)" fill-opacity="1" d="M 8.285156 2.710938 C 8.285156 3.179688 7.902344 3.558594 7.433594 3.558594 C 6.964844 3.558594 6.582031 3.179688 6.582031 2.710938 C 6.582031 2.238281 6.964844 1.859375 7.433594 1.859375 C 7.902344 1.859375 8.285156 2.238281 8.285156 2.710938 Z M 8.285156 2.710938 "/>
<path fill-rule="nonzero" fill="rgb(99.607843%, 98.823529%, 36.470588%)" fill-opacity="1" d="M 8.285156 11.761719 C 8.285156 12.230469 7.902344 12.613281 7.433594 12.613281 C 6.964844 12.613281 6.582031 12.230469 6.582031 11.761719 C 6.582031 11.292969 6.964844 10.910156 7.433594 10.910156 C 7.902344 10.910156 8.285156 11.292969 8.285156 11.761719 Z M 8.285156 11.761719 "/>
<path fill-rule="nonzero" fill="rgb(99.607843%, 98.823529%, 36.470588%)" fill-opacity="1" d="M 8.285156 16.386719 C 8.285156 16.855469 7.902344 17.238281 7.433594 17.238281 C 6.964844 17.238281 6.582031 16.855469 6.582031 16.386719 C 6.582031 15.917969 6.964844 15.539062 7.433594 15.539062 C 7.902344 15.539062 8.285156 15.917969 8.285156 16.386719 Z M 8.285156 16.386719 "/>
<path fill-rule="nonzero" fill="rgb(99.607843%, 98.823529%, 36.470588%)" fill-opacity="1" d="M 3.601562 4.972656 C 3.601562 5.441406 3.21875 5.824219 2.75 5.824219 C 2.28125 5.824219 1.902344 5.441406 1.902344 4.972656 C 1.902344 4.503906 2.28125 4.121094 2.75 4.121094 C 3.21875 4.121094 3.601562 4.503906 3.601562 4.972656 Z M 3.601562 4.972656 "/>
<path fill-rule="nonzero" fill="rgb(99.607843%, 98.823529%, 36.470588%)" fill-opacity="1" d="M 5.929688 2.710938 C 5.929688 3.179688 5.550781 3.558594 5.078125 3.558594 C 4.609375 3.558594 4.230469 3.179688 4.230469 2.710938 C 4.230469 2.238281 4.609375 1.859375 5.078125 1.859375 C 5.550781 1.859375 5.929688 2.238281 5.929688 2.710938 Z M 5.929688 2.710938 "/>
</svg>
