<?xml version="1.0" encoding="UTF-8"?>
<svg xmlns="http://www.w3.org/2000/svg" xmlns:xlink="http://www.w3.org/1999/xlink" width="14.765716" height="19" viewBox="0 0 14.765716 19">
<defs>
<filter id="filter-remove-color" x="0%" y="0%" width="100%" height="100%">
<feColorMatrix color-interpolation-filters="sRGB" values="0 0 0 0 1 0 0 0 0 1 0 0 0 0 1 0 0 0 1 0" />
</filter>
<mask id="mask-0">
<g filter="url(#filter-remove-color)">
<rect x="-1.476572" y="-1.9" width="17.718859" height="22.8" fill="rgb(0%, 0%, 0%)" fill-opacity="0.99"/>
</g>
</mask>
<clipPath id="clip-0">
<rect x="0" y="0" width="15" height="19"/>
</clipPath>
<g id="source-5" clip-path="url(#clip-0)">
<path fill-rule="nonzero" fill="rgb(99.607843%, 98.823529%, 36.470589%)" fill-opacity="1" d="M 12.863281 9.511719 C 12.863281 9.980469 12.484375 10.363281 12.015625 10.363281 C 11.546875 10.363281 11.164062 9.980469 11.164062 9.511719 C 11.164062 9.042969 11.546875 8.664062 12.015625 8.664062 C 12.484375 8.664062 12.863281 9.042969 12.863281 9.511719 Z M 12.863281 9.511719 "/>
</g>
<mask id="mask-1">
<g filter="url(#filter-remove-color)">
<rect x="-1.476572" y="-1.9" width="17.718859" height="22.8" fill="rgb(0%, 0%, 0%)" fill-opacity="0.99"/>
</g>
</mask>
<clipPath id="clip-1">
<rect x="0" y="0" width="15" height="19"/>
</clipPath>
<g id="source-8" clip-path="url(#clip-1)">
<path fill-rule="nonzero" fill="rgb(99.607843%, 98.823529%, 36.470589%)" fill-opacity="1" d="M 10.550781 9.511719 C 10.550781 9.980469 10.167969 10.363281 9.699219 10.363281 C 9.230469 10.363281 8.847656 9.980469 8.847656 9.511719 C 8.847656 9.042969 9.230469 8.664062 9.699219 8.664062 C 10.167969 8.664062 10.550781 9.042969 10.550781 9.511719 Z M 10.550781 9.511719 "/>
</g>
<mask id="mask-2">
<g filter="url(#filter-remove-color)">
<rect x="-1.476572" y="-1.9" width="17.718859" height="22.8" fill="rgb(0%, 0%, 0%)" fill-opacity="0.99"/>
</g>
</mask>
<clipPath id="clip-2">
<rect x="0" y="0" width="15" height="19"/>
</clipPath>
<g id="source-11" clip-path="url(#clip-2)">
<path fill-rule="nonzero" fill="rgb(99.607843%, 98.823529%, 36.470589%)" fill-opacity="1" d="M 10.550781 11.761719 C 10.550781 12.230469 10.167969 12.613281 9.699219 12.613281 C 9.230469 12.613281 8.847656 12.230469 8.847656 11.761719 C 8.847656 11.292969 9.230469 10.910156 9.699219 10.910156 C 10.167969 10.910156 10.550781 11.292969 10.550781 11.761719 Z M 10.550781 11.761719 "/>
</g>
<mask id="mask-3">
<g filter="url(#filter-remove-color)">
<rect x="-1.476572" y="-1.9" width="17.718859" height="22.8" fill="rgb(0%, 0%, 0%)" fill-opacity="0.99"/>
</g>
</mask>
<clipPath id="clip-3">
<rect x="0" y="0" width="15" height="19"/>
</clipPath>
<g id="source-14" clip-path="url(#clip-3)">
<path fill-rule="nonzero" fill="rgb(99.607843%, 98.823529%, 36.470589%)" fill-opacity="1" d="M 10.550781 14.054688 C 10.550781 14.523438 10.167969 14.902344 9.699219 14.902344 C 9.230469 14.902344 8.847656 14.523438 8.847656 14.054688 C 8.847656 13.582031 9.230469 13.203125 9.699219 13.203125 C 10.167969 13.203125 10.550781 13.582031 10.550781 14.054688 Z M 10.550781 14.054688 "/>
</g>
<mask id="mask-4">
<g filter="url(#filter-remove-color)">
<rect x="-1.476572" y="-1.9" width="17.718859" height="22.8" fill="rgb(0%, 0%, 0%)" fill-opacity="0.99"/>
</g>
</mask>
<clipPath id="clip-4">
<rect x="0" y="0" width="15" height="19"/>
</clipPath>
<g id="source-17" clip-path="url(#clip-4)">
<path fill-rule="nonzero" fill="rgb(99.607843%, 98.823529%, 36.470589%)" fill-opacity="1" d="M 10.550781 16.386719 C 10.550781 16.855469 10.167969 17.238281 9.699219 17.238281 C 9.230469 17.238281 8.847656 16.855469 8.847656 16.386719 C 8.847656 15.917969 9.230469 15.539062 9.699219 15.539062 C 10.167969 15.539062 10.550781 15.917969 10.550781 16.386719 Z M 10.550781 16.386719 "/>
</g>
<mask id="mask-5">
<g filter="url(#filter-remove-color)">
<rect x="-1.476572" y="-1.9" width="17.718859" height="22.8" fill="rgb(0%, 0%, 0%)" fill-opacity="0.99"/>
</g>
</mask>
<clipPath id="clip-5">
<rect x="0" y="0" width="15" height="19"/>
</clipPath>
<g id="source-20" clip-path="url(#clip-5)">
<path fill-rule="nonzero" fill="rgb(99.607843%, 98.823529%, 36.470589%)" fill-opacity="1" d="M 10.550781 7.234375 C 10.550781 7.703125 10.167969 8.085938 9.699219 8.085938 C 9.230469 8.085938 8.847656 7.703125 8.847656 7.234375 C 8.847656 6.765625 9.230469 6.386719 9.699219 6.386719 C 10.167969 6.386719 10.550781 6.765625 10.550781 7.234375 Z M 10.550781 7.234375 "/>
</g>
<mask id="mask-6">
<g filter="url(#filter-remove-color)">
<rect x="-1.476572" y="-1.9" width="17.718859" height="22.8" fill="rgb(0%, 0%, 0%)" fill-opacity="0.99"/>
</g>
</mask>
<clipPath id="clip-6">
<rect x="0" y="0" width="15" height="19"/>
</clipPath>
<g id="source-23" clip-path="url(#clip-6)">
<path fill-rule="nonzero" fill="rgb(99.607843%, 98.823529%, 36.470589%)" fill-opacity="1" d="M 10.550781 4.972656 C 10.550781 5.441406 10.167969 5.824219 9.699219 5.824219 C 9.230469 5.824219 8.847656 5.441406 8.847656 4.972656 C 8.847656 4.503906 9.230469 4.121094 9.699219 4.121094 C 10.167969 4.121094 10.550781 4.503906 10.550781 4.972656 Z M 10.550781 4.972656 "/>
</g>
<mask id="mask-7">
<g filter="url(#filter-remove-color)">
<rect x="-1.476572" y="-1.9" width="17.718859" height="22.8" fill="rgb(0%, 0%, 0%)" fill-opacity="0.99"/>
</g>
</mask>
<clipPath id="clip-7">
<rect x="0" y="0" width="15" height="19"/>
</clipPath>
<g id="source-26" clip-path="url(#clip-7)">
<path fill-rule="nonzero" fill="rgb(99.607843%, 98.823529%, 36.470589%)" fill-opacity="1" d="M 8.285156 9.511719 C 8.285156 9.980469 7.902344 10.363281 7.433594 10.363281 C 6.964844 10.363281 6.582031 9.980469 6.582031 9.511719 C 6.582031 9.042969 6.964844 8.664062 7.433594 8.664062 C 7.902344 8.664062 8.285156 9.042969 8.285156 9.511719 Z M 8.285156 9.511719 "/>
</g>
<mask id="mask-8">
<g filter="url(#filter-remove-color)">
<rect x="-1.476572" y="-1.9" width="17.718859" height="22.8" fill="rgb(0%, 0%, 0%)" fill-opacity="0.99"/>
</g>
</mask>
<clipPath id="clip-8">
<rect x="0" y="0" width="15" height="19"/>
</clipPath>
<g id="source-29" clip-path="url(#clip-8)">
<path fill-rule="nonzero" fill="rgb(99.607843%, 98.823529%, 36.470589%)" fill-opacity="1" d="M 3.601562 9.511719 C 3.601562 9.980469 3.21875 10.363281 2.75 10.363281 C 2.28125 10.363281 1.902344 9.980469 1.902344 9.511719 C 1.902344 9.042969 2.28125 8.664062 2.75 8.664062 C 3.21875 8.664062 3.601562 9.042969 3.601562 9.511719 Z M 3.601562 9.511719 "/>
</g>
<mask id="mask-9">
<g filter="url(#filter-remove-color)">
<rect x="-1.476572" y="-1.9" width="17.718859" height="22.8" fill="rgb(0%, 0%, 0%)" fill-opacity="0.99"/>
</g>
</mask>
<clipPath id="clip-9">
<rect x="0" y="0" width="15" height="19"/>
</clipPath>
<g id="source-32" clip-path="url(#clip-9)">
<path fill-rule="nonzero" fill="rgb(99.607843%, 98.823529%, 36.470589%)" fill-opacity="1" d="M 3.601562 7.234375 C 3.601562 7.703125 3.21875 8.085938 2.75 8.085938 C 2.28125 8.085938 1.902344 7.703125 1.902344 7.234375 C 1.902344 6.765625 2.28125 6.386719 2.75 6.386719 C 3.21875 6.386719 3.601562 6.765625 3.601562 7.234375 Z M 3.601562 7.234375 "/>
</g>
<mask id="mask-10">
<g filter="url(#filter-remove-color)">
<rect x="-1.476572" y="-1.9" width="17.718859" height="22.8" fill="rgb(0%, 0%, 0%)" fill-opacity="0.99"/>
</g>
</mask>
<clipPath id="clip-10">
<rect x="0" y="0" width="15" height="19"/>
</clipPath>
<g id="source-35" clip-path="url(#clip-10)">
<path fill-rule="nonzero" fill="rgb(99.607843%, 98.823529%, 36.470589%)" fill-opacity="1" d="M 3.601562 4.972656 C 3.601562 5.441406 3.21875 5.824219 2.75 5.824219 C 2.28125 5.824219 1.902344 5.441406 1.902344 4.972656 C 1.902344 4.503906 2.28125 4.121094 2.75 4.121094 C 3.21875 4.121094 3.601562 4.503906 3.601562 4.972656 Z M 3.601562 4.972656 "/>
</g>
<mask id="mask-11">
<g filter="url(#filter-remove-color)">
<rect x="-1.476572" y="-1.9" width="17.718859" height="22.8" fill="rgb(0%, 0%, 0%)" fill-opacity="0.99"/>
</g>
</mask>
<clipPath id="clip-11">
<rect x="0" y="0" width="15" height="19"/>
</clipPath>
<g id="source-38" clip-path="url(#clip-11)">
<path fill-rule="nonzero" fill="rgb(99.607843%, 98.823529%, 36.470589%)" fill-opacity="1" d="M 3.601562 2.710938 C 3.601562 3.179688 3.21875 3.558594 2.75 3.558594 C 2.28125 3.558594 1.902344 3.179688 1.902344 2.710938 C 1.902344 2.238281 2.28125 1.859375 2.75 1.859375 C 3.21875 1.859375 3.601562 2.238281 3.601562 2.710938 Z M 3.601562 2.710938 "/>
</g>
<mask id="mask-12">
<g filter="url(#filter-remove-color)">
<rect x="-1.476572" y="-1.9" width="17.718859" height="22.8" fill="rgb(0%, 0%, 0%)" fill-opacity="0.99"/>
</g>
</mask>
<clipPath id="clip-12">
<rect x="0" y="0" width="15" height="19"/>
</clipPath>
<g id="source-41" clip-path="url(#clip-12)">
<path fill-rule="nonzero" fill="rgb(99.607843%, 98.823529%, 36.470589%)" fill-opacity="1" d="M 5.929688 9.511719 C 5.929688 9.980469 5.550781 10.363281 5.078125 10.363281 C 4.609375 10.363281 4.230469 9.980469 4.230469 9.511719 C 4.230469 9.042969 4.609375 8.664062 5.078125 8.664062 C 5.550781 8.664062 5.929688 9.042969 5.929688 9.511719 Z M 5.929688 9.511719 "/>
</g>
</defs>
<path fill-rule="nonzero" fill="rgb(0%, 0%, 0%)" fill-opacity="1" d="M 0 0 L 14.765625 0 L 14.765625 19 L 0 19 Z M 0 0 "/>
<g mask="url(#mask-0)">
<use xlink:href="#source-5"/>
</g>
<g mask="url(#mask-1)">
<use xlink:href="#source-8"/>
</g>
<g mask="url(#mask-2)">
<use xlink:href="#source-11"/>
</g>
<g mask="url(#mask-3)">
<use xlink:href="#source-14"/>
</g>
<g mask="url(#mask-4)">
<use xlink:href="#source-17"/>
</g>
<g mask="url(#mask-5)">
<use xlink:href="#source-20"/>
</g>
<g mask="url(#mask-6)">
<use xlink:href="#source-23"/>
</g>
<g mask="url(#mask-7)">
<use xlink:href="#source-26"/>
</g>
<g mask="url(#mask-8)">
<use xlink:href="#source-29"/>
</g>
<g mask="url(#mask-9)">
<use xlink:href="#source-32"/>
</g>
<g mask="url(#mask-10)">
<use xlink:href="#source-35"/>
</g>
<g mask="url(#mask-11)">
<use xlink:href="#source-38"/>
</g>
<g mask="url(#mask-12)">
<use xlink:href="#source-41"/>
</g>
</svg>
