<?xml version="1.0" encoding="UTF-8"?>
<svg xmlns="http://www.w3.org/2000/svg" xmlns:xlink="http://www.w3.org/1999/xlink" width="14.765716" height="19" viewBox="0 0 14.765716 19">
<defs>
<filter id="filter-remove-color" x="0%" y="0%" width="100%" height="100%">
<feColorMatrix color-interpolation-filters="sRGB" values="0 0 0 0 1 0 0 0 0 1 0 0 0 0 1 0 0 0 1 0" />
</filter>
<mask id="mask-0">
<g filter="url(#filter-remove-color)">
<rect x="-1.476572" y="-1.9" width="17.718859" height="22.8" fill="rgb(0%, 0%, 0%)" fill-opacity="0.99"/>
</g>
</mask>
<clipPath id="clip-0">
<rect x="0" y="0" width="15" height="19"/>
</clipPath>
<g id="source-5" clip-path="url(#clip-0)">
<path fill-rule="nonzero" fill="rgb(99.607843%, 98.823529%, 36.470589%)" fill-opacity="1" d="M 12.863281 9.511719 C 12.863281 9.980469 12.484375 10.363281 12.015625 10.363281 C 11.546875 10.363281 11.164062 9.980469 11.164062 9.511719 C 11.164062 9.042969 11.546875 8.664062 12.015625 8.664062 C 12.484375 8.664062 12.863281 9.042969 12.863281 9.511719 Z M 12.863281 9.511719 "/>
</g>
<mask id="mask-1">
<g filter="url(#filter-remove-color)">
<rect x="-1.476572" y="-1.9" width="17.718859" height="22.8" fill="rgb(0%, 0%, 0%)" fill-opacity="0.99"/>
</g>
</mask>
<clipPath id="clip-1">
<rect x="0" y="0" width="15" height="19"/>
</clipPath>
<g id="source-8" clip-path="url(#clip-1)">
<path fill-rule="nonzero" fill="rgb(99.607843%, 98.823529%, 36.470589%)" fill-opacity="1" d="M 12.863281 11.761719 C 12.863281 12.230469 12.484375 12.613281 12.015625 12.613281 C 11.546875 12.613281 11.164062 12.230469 11.164062 11.761719 C 11.164062 11.292969 11.546875 10.910156 12.015625 10.910156 C 12.484375 10.910156 12.863281 11.292969 12.863281 11.761719 Z M 12.863281 11.761719 "/>
</g>
<mask id="mask-2">
<g filter="url(#filter-remove-color)">
<rect x="-1.476572" y="-1.9" width="17.718859" height="22.8" fill="rgb(0%, 0%, 0%)" fill-opacity="0.99"/>
</g>
</mask>
<clipPath id="clip-2">
<rect x="0" y="0" width="15" height="19"/>
</clipPath>
<g id="source-11" clip-path="url(#clip-2)">
<path fill-rule="nonzero" fill="rgb(99.607843%, 98.823529%, 36.470589%)" fill-opacity="1" d="M 12.863281 14.054688 C 12.863281 14.523438 12.484375 14.902344 12.015625 14.902344 C 11.546875 14.902344 11.164062 14.523438 11.164062 14.054688 C 11.164062 13.582031 11.546875 13.203125 12.015625 13.203125 C 12.484375 13.203125 12.863281 13.582031 12.863281 14.054688 Z M 12.863281 14.054688 "/>
</g>
<mask id="mask-3">
<g filter="url(#filter-remove-color)">
<rect x="-1.476572" y="-1.9" width="17.718859" height="22.8" fill="rgb(0%, 0%, 0%)" fill-opacity="0.99"/>
</g>
</mask>
<clipPath id="clip-3">
<rect x="0" y="0" width="15" height="19"/>
</clipPath>
<g id="source-14" clip-path="url(#clip-3)">
<path fill-rule="nonzero" fill="rgb(99.607843%, 98.823529%, 36.470589%)" fill-opacity="1" d="M 12.863281 16.386719 C 12.863281 16.855469 12.484375 17.238281 12.015625 17.238281 C 11.546875 17.238281 11.164062 16.855469 11.164062 16.386719 C 11.164062 15.917969 11.546875 15.539062 12.015625 15.539062 C 12.484375 15.539062 12.863281 15.917969 12.863281 16.386719 Z M 12.863281 16.386719 "/>
</g>
<mask id="mask-4">
<g filter="url(#filter-remove-color)">
<rect x="-1.476572" y="-1.9" width="17.718859" height="22.8" fill="rgb(0%, 0%, 0%)" fill-opacity="0.99"/>
</g>
</mask>
<clipPath id="clip-4">
<rect x="0" y="0" width="15" height="19"/>
</clipPath>
<g id="source-17" clip-path="url(#clip-4)">
<path fill-rule="nonzero" fill="rgb(99.607843%, 98.823529%, 36.470589%)" fill-opacity="1" d="M 12.863281 7.234375 C 12.863281 7.703125 12.484375 8.085938 12.015625 8.085938 C 11.546875 8.085938 11.164062 7.703125 11.164062 7.234375 C 11.164062 6.765625 11.546875 6.386719 12.015625 6.386719 C 12.484375 6.386719 12.863281 6.765625 12.863281 7.234375 Z M 12.863281 7.234375 "/>
</g>
<mask id="mask-5">
<g filter="url(#filter-remove-color)">
<rect x="-1.476572" y="-1.9" width="17.718859" height="22.8" fill="rgb(0%, 0%, 0%)" fill-opacity="0.99"/>
</g>
</mask>
<clipPath id="clip-5">
<rect x="0" y="0" width="15" height="19"/>
</clipPath>
<g id="source-20" clip-path="url(#clip-5)">
<path fill-rule="nonzero" fill="rgb(99.607843%, 98.823529%, 36.470589%)" fill-opacity="1" d="M 12.863281 4.972656 C 12.863281 5.441406 12.484375 5.824219 12.015625 5.824219 C 11.546875 5.824219 11.164062 5.441406 11.164062 4.972656 C 11.164062 4.503906 11.546875 4.121094 12.015625 4.121094 C 12.484375 4.121094 12.863281 4.503906 12.863281 4.972656 Z M 12.863281 4.972656 "/>
</g>
<mask id="mask-6">
<g filter="url(#filter-remove-color)">
<rect x="-1.476572" y="-1.9" width="17.718859" height="22.8" fill="rgb(0%, 0%, 0%)" fill-opacity="0.99"/>
</g>
</mask>
<clipPath id="clip-6">
<rect x="0" y="0" width="15" height="19"/>
</clipPath>
<g id="source-23" clip-path="url(#clip-6)">
<path fill-rule="nonzero" fill="rgb(99.607843%, 98.823529%, 36.470589%)" fill-opacity="1" d="M 12.863281 2.710938 C 12.863281 3.179688 12.484375 3.558594 12.015625 3.558594 C 11.546875 3.558594 11.164062 3.179688 11.164062 2.710938 C 11.164062 2.238281 11.546875 1.859375 12.015625 1.859375 C 12.484375 1.859375 12.863281 2.238281 12.863281 2.710938 Z M 12.863281 2.710938 "/>
</g>
<mask id="mask-7">
<g filter="url(#filter-remove-color)">
<rect x="-1.476572" y="-1.9" width="17.718859" height="22.8" fill="rgb(0%, 0%, 0%)" fill-opacity="0.99"/>
</g>
</mask>
<clipPath id="clip-7">
<rect x="0" y="0" width="15" height="19"/>
</clipPath>
<g id="source-26" clip-path="url(#clip-7)">
<path fill-rule="nonzero" fill="rgb(99.607843%, 98.823529%, 36.470589%)" fill-opacity="1" d="M 10.550781 2.710938 C 10.550781 3.179688 10.167969 3.558594 9.699219 3.558594 C 9.230469 3.558594 8.847656 3.179688 8.847656 2.710938 C 8.847656 2.238281 9.230469 1.859375 9.699219 1.859375 C 10.167969 1.859375 10.550781 2.238281 10.550781 2.710938 Z M 10.550781 2.710938 "/>
</g>
<mask id="mask-8">
<g filter="url(#filter-remove-color)">
<rect x="-1.476572" y="-1.9" width="17.718859" height="22.8" fill="rgb(0%, 0%, 0%)" fill-opacity="0.99"/>
</g>
</mask>
<clipPath id="clip-8">
<rect x="0" y="0" width="15" height="19"/>
</clipPath>
<g id="source-29" clip-path="url(#clip-8)">
<path fill-rule="nonzero" fill="rgb(99.607843%, 98.823529%, 36.470589%)" fill-opacity="1" d="M 3.601562 2.710938 C 3.601562 3.179688 3.21875 3.558594 2.75 3.558594 C 2.28125 3.558594 1.902344 3.179688 1.902344 2.710938 C 1.902344 2.238281 2.28125 1.859375 2.75 1.859375 C 3.21875 1.859375 3.601562 2.238281 3.601562 2.710938 Z M 3.601562 2.710938 "/>
</g>
<mask id="mask-9">
<g filter="url(#filter-remove-color)">
<rect x="-1.476572" y="-1.9" width="17.718859" height="22.8" fill="rgb(0%, 0%, 0%)" fill-opacity="0.99"/>
</g>
</mask>
<clipPath id="clip-9">
<rect x="0" y="0" width="15" height="19"/>
</clipPath>
<g id="source-32" clip-path="url(#clip-9)">
<path fill-rule="nonzero" fill="rgb(99.607843%, 98.823529%, 36.470589%)" fill-opacity="1" d="M 5.929688 9.511719 C 5.929688 9.980469 5.550781 10.363281 5.078125 10.363281 C 4.609375 10.363281 4.230469 9.980469 4.230469 9.511719 C 4.230469 9.042969 4.609375 8.664062 5.078125 8.664062 C 5.550781 8.664062 5.929688 9.042969 5.929688 9.511719 Z M 5.929688 9.511719 "/>
</g>
<mask id="mask-10">
<g filter="url(#filter-remove-color)">
<rect x="-1.476572" y="-1.9" width="17.718859" height="22.8" fill="rgb(0%, 0%, 0%)" fill-opacity="0.99"/>
</g>
</mask>
<clipPath id="clip-10">
<rect x="0" y="0" width="15" height="19"/>
</clipPath>
<g id="source-35" clip-path="url(#clip-10)">
<path fill-rule="nonzero" fill="rgb(99.607843%, 98.823529%, 36.470589%)" fill-opacity="1" d="M 5.929688 7.234375 C 5.929688 7.703125 5.550781 8.085938 5.078125 8.085938 C 4.609375 8.085938 4.230469 7.703125 4.230469 7.234375 C 4.230469 6.765625 4.609375 6.386719 5.078125 6.386719 C 5.550781 6.386719 5.929688 6.765625 5.929688 7.234375 Z M 5.929688 7.234375 "/>
</g>
<mask id="mask-11">
<g filter="url(#filter-remove-color)">
<rect x="-1.476572" y="-1.9" width="17.718859" height="22.8" fill="rgb(0%, 0%, 0%)" fill-opacity="0.99"/>
</g>
</mask>
<clipPath id="clip-11">
<rect x="0" y="0" width="15" height="19"/>
</clipPath>
<g id="source-38" clip-path="url(#clip-11)">
<path fill-rule="nonzero" fill="rgb(99.607843%, 98.823529%, 36.470589%)" fill-opacity="1" d="M 5.929688 4.972656 C 5.929688 5.441406 5.550781 5.824219 5.078125 5.824219 C 4.609375 5.824219 4.230469 5.441406 4.230469 4.972656 C 4.230469 4.503906 4.609375 4.121094 5.078125 4.121094 C 5.550781 4.121094 5.929688 4.503906 5.929688 4.972656 Z M 5.929688 4.972656 "/>
</g>
<mask id="mask-12">
<g filter="url(#filter-remove-color)">
<rect x="-1.476572" y="-1.9" width="17.718859" height="22.8" fill="rgb(0%, 0%, 0%)" fill-opacity="0.99"/>
</g>
</mask>
<clipPath id="clip-12">
<rect x="0" y="0" width="15" height="19"/>
</clipPath>
<g id="source-41" clip-path="url(#clip-12)">
<path fill-rule="nonzero" fill="rgb(99.607843%, 98.823529%, 36.470589%)" fill-opacity="1" d="M 5.929688 2.710938 C 5.929688 3.179688 5.550781 3.558594 5.078125 3.558594 C 4.609375 3.558594 4.230469 3.179688 4.230469 2.710938 C 4.230469 2.238281 4.609375 1.859375 5.078125 1.859375 C 5.550781 1.859375 5.929688 2.238281 5.929688 2.710938 Z M 5.929688 2.710938 "/>
</g>
<mask id="mask-13">
<g filter="url(#filter-remove-color)">
<rect x="-1.476572" y="-1.9" width="17.718859" height="22.8" fill="rgb(0%, 0%, 0%)" fill-opacity="0.99"/>
</g>
</mask>
<clipPath id="clip-13">
<rect x="0" y="0" width="15" height="19"/>
</clipPath>
<g id="source-44" clip-path="url(#clip-13)">
<path fill-rule="nonzero" fill="rgb(99.607843%, 98.823529%, 36.470589%)" fill-opacity="1" d="M 5.929688 11.761719 C 5.929688 12.230469 5.550781 12.613281 5.078125 12.613281 C 4.609375 12.613281 4.230469 12.230469 4.230469 11.761719 C 4.230469 11.292969 4.609375 10.910156 5.078125 10.910156 C 5.550781 10.910156 5.929688 11.292969 5.929688 11.761719 Z M 5.929688 11.761719 "/>
</g>
<mask id="mask-14">
<g filter="url(#filter-remove-color)">
<rect x="-1.476572" y="-1.9" width="17.718859" height="22.8" fill="rgb(0%, 0%, 0%)" fill-opacity="0.99"/>
</g>
</mask>
<clipPath id="clip-14">
<rect x="0" y="0" width="15" height="19"/>
</clipPath>
<g id="source-47" clip-path="url(#clip-14)">
<path fill-rule="nonzero" fill="rgb(99.607843%, 98.823529%, 36.470589%)" fill-opacity="1" d="M 5.929688 14.054688 C 5.929688 14.523438 5.550781 14.902344 5.078125 14.902344 C 4.609375 14.902344 4.230469 14.523438 4.230469 14.054688 C 4.230469 13.582031 4.609375 13.203125 5.078125 13.203125 C 5.550781 13.203125 5.929688 13.582031 5.929688 14.054688 Z M 5.929688 14.054688 "/>
</g>
<mask id="mask-15">
<g filter="url(#filter-remove-color)">
<rect x="-1.476572" y="-1.9" width="17.718859" height="22.8" fill="rgb(0%, 0%, 0%)" fill-opacity="0.99"/>
</g>
</mask>
<clipPath id="clip-15">
<rect x="0" y="0" width="15" height="19"/>
</clipPath>
<g id="source-50" clip-path="url(#clip-15)">
<path fill-rule="nonzero" fill="rgb(99.607843%, 98.823529%, 36.470589%)" fill-opacity="1" d="M 5.929688 16.386719 C 5.929688 16.855469 5.550781 17.238281 5.078125 17.238281 C 4.609375 17.238281 4.230469 16.855469 4.230469 16.386719 C 4.230469 15.917969 4.609375 15.539062 5.078125 15.539062 C 5.550781 15.539062 5.929688 15.917969 5.929688 16.386719 Z M 5.929688 16.386719 "/>
</g>
</defs>
<path fill-rule="nonzero" fill="rgb(0%, 0%, 0%)" fill-opacity="1" d="M 0 0 L 14.765625 0 L 14.765625 19 L 0 19 Z M 0 0 "/>
<g mask="url(#mask-0)">
<use xlink:href="#source-5"/>
</g>
<g mask="url(#mask-1)">
<use xlink:href="#source-8"/>
</g>
<g mask="url(#mask-2)">
<use xlink:href="#source-11"/>
</g>
<g mask="url(#mask-3)">
<use xlink:href="#source-14"/>
</g>
<g mask="url(#mask-4)">
<use xlink:href="#source-17"/>
</g>
<g mask="url(#mask-5)">
<use xlink:href="#source-20"/>
</g>
<g mask="url(#mask-6)">
<use xlink:href="#source-23"/>
</g>
<g mask="url(#mask-7)">
<use xlink:href="#source-26"/>
</g>
<g mask="url(#mask-8)">
<use xlink:href="#source-29"/>
</g>
<g mask="url(#mask-9)">
<use xlink:href="#source-32"/>
</g>
<g mask="url(#mask-10)">
<use xlink:href="#source-35"/>
</g>
<g mask="url(#mask-11)">
<use xlink:href="#source-38"/>
</g>
<g mask="url(#mask-12)">
<use xlink:href="#source-41"/>
</g>
<g mask="url(#mask-13)">
<use xlink:href="#source-44"/>
</g>
<g mask="url(#mask-14)">
<use xlink:href="#source-47"/>
</g>
<g mask="url(#mask-15)">
<use xlink:href="#source-50"/>
</g>
</svg>
