<?xml version="1.0" encoding="UTF-8"?>
<svg xmlns="http://www.w3.org/2000/svg" xmlns:xlink="http://www.w3.org/1999/xlink" width="17.174836" height="15" viewBox="0 0 17.174836 15">
<path fill-rule="nonzero" fill="rgb(0%, 0%, 0%)" fill-opacity="1" stroke-width="14.258254" stroke-linecap="round" stroke-linejoin="round" stroke="rgb(90.196079%, 95.686275%, 27.058825%)" stroke-opacity="1" stroke-miterlimit="4" d="M 272.979483 814.255589 L 7.153417 814.255589 L 140.513539 1045.208751 L 273.682051 814.574938 " transform="matrix(0.0611596, 0, 0, 0.0611596, 0, -49.362036)"/>
<path fill-rule="nonzero" fill="rgb(90.196079%, 95.686275%, 27.058825%)" fill-opacity="1" d="M 8.578125 2.082031 C 7.746094 2.128906 6.945312 2.636719 6.945312 3.800781 L 8.105469 3.800781 C 8.105469 2.738281 9.6875 2.925781 9.183594 3.800781 C 8.53125 4.925781 7.132812 7.375 6.546875 8.449219 L 6.546875 9.523438 C 7.820312 9.523438 9.164062 9.523438 10.414062 9.523438 L 10.414062 8.5 L 10.417969 8.449219 L 7.730469 8.449219 C 7.816406 8.300781 9.285156 5.644531 10.351562 3.800781 C 10.78125 2.734375 9.652344 2.027344 8.578125 2.082031 Z M 8.578125 2.082031 "/>
</svg>
