<?xml version="1.0" encoding="UTF-8"?>
<svg xmlns="http://www.w3.org/2000/svg" xmlns:xlink="http://www.w3.org/1999/xlink" width="17.073171" height="15" viewBox="0 0 17.073171 15">
<path fill-rule="evenodd" fill="rgb(0%, 0%, 0%)" fill-opacity="1" stroke-width="14.258254" stroke-linecap="round" stroke-linejoin="round" stroke="rgb(90.196079%, 95.686275%, 27.058825%)" stroke-opacity="1" stroke-miterlimit="4" d="M 7.110937 7.110938 L 140.489062 238.120313 L 273.675 7.43125 Z M 7.110937 7.110938 " transform="matrix(0.0609756, 0, 0, 0.0609756, 0, 0)"/>
<path fill-rule="evenodd" fill="rgb(90.196079%, 95.686275%, 27.058825%)" fill-opacity="1" d="M 8.597656 9.390625 C 9.390625 9.390625 10.183594 8.554688 10.183594 7.753906 L 10.183594 3.464844 C 10.183594 2.925781 9.707031 2.074219 8.625 2.074219 C 7.75 2.074219 7.070312 2.867188 7.070312 3.464844 L 7.070312 5.503906 C 7.070312 6.949219 8.59375 6.984375 9.128906 6.777344 L 9.128906 7.855469 C 9.128906 8.433594 7.957031 8.414062 7.957031 7.855469 L 7.011719 7.855469 C 7.011719 8.554688 7.804688 9.390625 8.597656 9.390625 Z M 8.675781 5.792969 C 8.402344 5.804688 8.109375 5.664062 8.109375 5.386719 L 8.109375 3.734375 C 8.109375 3.007812 9.144531 2.960938 9.144531 3.734375 L 9.144531 5.402344 C 9.144531 5.652344 8.917969 5.78125 8.675781 5.792969 Z M 8.675781 5.792969 "/>
</svg>
