<?xml version="1.0" encoding="UTF-8"?>
<svg xmlns="http://www.w3.org/2000/svg" xmlns:xlink="http://www.w3.org/1999/xlink" width="17.073171" height="15" viewBox="0 0 17.073171 15">
<path fill-rule="evenodd" fill="rgb(0%, 0%, 0%)" fill-opacity="1" stroke-width="14.258254" stroke-linecap="round" stroke-linejoin="round" stroke="rgb(90.196079%, 95.686275%, 27.058825%)" stroke-opacity="1" stroke-miterlimit="4" d="M 7.110937 7.110938 L 140.489062 238.120313 L 273.675 7.43125 Z M 7.110937 7.110938 " transform="matrix(0.0609756, 0, 0, 0.0609756, 0, 0)"/>
<path fill-rule="evenodd" fill="rgb(90.196079%, 95.686275%, 27.058825%)" fill-opacity="1" d="M 6.550781 1.828125 L 5.609375 2.746094 L 5.609375 3.847656 L 6.492188 2.964844 L 6.492188 8.414062 L 7.320312 8.414062 L 7.320312 1.828125 Z M 6.550781 1.828125 "/>
<path fill-rule="evenodd" fill="rgb(90.196079%, 95.686275%, 27.058825%)" fill-opacity="1" d="M 9.933594 8.433594 L 9.933594 7.390625 L 8.046875 7.390625 L 8.046875 6.542969 L 9.363281 1.828125 L 10.230469 1.828125 L 8.867188 6.566406 L 9.933594 6.566406 L 9.933594 4.660156 L 10.753906 4.660156 L 10.753906 6.566406 L 11.214844 6.566406 L 11.214844 7.390625 L 10.753906 7.390625 L 10.753906 8.433594 Z M 9.933594 8.433594 "/>
</svg>
