<?xml version="1.0" encoding="UTF-8"?>
<svg xmlns="http://www.w3.org/2000/svg" xmlns:xlink="http://www.w3.org/1999/xlink" width="17.073171" height="15" viewBox="0 0 17.073171 15">
<path fill-rule="evenodd" fill="rgb(0%, 0%, 0%)" fill-opacity="1" stroke-width="14.258254" stroke-linecap="round" stroke-linejoin="round" stroke="rgb(90.196079%, 95.686275%, 27.058825%)" stroke-opacity="1" stroke-miterlimit="4" d="M 7.110937 7.110938 L 140.489062 238.120313 L 273.675 7.43125 Z M 7.110937 7.110938 " transform="matrix(0.0609756, 0, 0, 0.0609756, 0, 0)"/>
<path fill-rule="evenodd" fill="rgb(90.196079%, 95.686275%, 27.058825%)" fill-opacity="1" d="M 6.578125 1.828125 L 5.671875 2.746094 L 5.671875 3.847656 L 6.523438 2.964844 L 6.523438 8.414062 L 7.320312 8.414062 L 7.320312 1.828125 Z M 6.578125 1.828125 "/>
<path fill-rule="evenodd" fill="rgb(90.196079%, 95.686275%, 27.058825%)" fill-opacity="1" d="M 10.757812 5.550781 L 10.757812 7.242188 C 10.765625 7.929688 10.242188 8.535156 9.585938 8.535156 C 8.902344 8.535156 8.414062 7.921875 8.414062 7.242188 L 8.414062 6.855469 L 9.148438 6.855469 L 9.148438 7.242188 C 9.148438 7.519531 9.351562 7.726562 9.582031 7.722656 C 9.832031 7.722656 10.023438 7.503906 10.023438 7.242188 L 10.023438 5.578125 C 10.023438 5.300781 9.8125 5.097656 9.585938 5.097656 C 9.40625 5.097656 9.21875 5.214844 9.148438 5.441406 L 8.417969 5.441406 L 8.417969 1.953125 L 10.757812 1.953125 L 10.757812 2.761719 L 9.148438 2.761719 L 9.148438 4.582031 C 9.347656 4.382812 9.558594 4.324219 9.828125 4.324219 C 10.445312 4.324219 10.757812 4.933594 10.757812 5.550781 Z M 10.757812 5.550781 "/>
</svg>
