<?xml version="1.0" encoding="UTF-8"?>
<svg xmlns="http://www.w3.org/2000/svg" xmlns:xlink="http://www.w3.org/1999/xlink" width="14.765716" height="19" viewBox="0 0 14.765716 19">
<path fill-rule="nonzero" fill="rgb(0%, 0%, 0%)" fill-opacity="1" d="M 0 0 L 14.765625 0 L 14.765625 19 L 0 19 Z M 0 0 "/>
<path fill-rule="nonzero" fill="rgb(99.607843%, 98.823529%, 36.470589%)" fill-opacity="1" d="M 3.601562 16.269531 C 3.601562 16.738281 3.222656 17.117188 2.753906 17.117188 C 2.289062 17.117188 1.902344 16.738281 1.902344 16.269531 C 1.902344 15.800781 2.289062 15.421875 2.753906 15.421875 C 3.222656 15.421875 3.601562 15.800781 3.601562 16.269531 Z M 3.601562 16.269531 "/>
<path fill-rule="nonzero" fill="rgb(99.607843%, 98.823529%, 36.470589%)" fill-opacity="1" d="M 3.554688 14.011719 C 3.554688 14.480469 3.171875 14.859375 2.699219 14.859375 C 2.238281 14.859375 1.851562 14.480469 1.851562 14.011719 C 1.851562 13.542969 2.238281 13.164062 2.699219 13.164062 C 3.171875 13.164062 3.554688 13.542969 3.554688 14.011719 Z M 3.554688 14.011719 "/>
<path fill-rule="nonzero" fill="rgb(99.607843%, 98.823529%, 36.470589%)" fill-opacity="1" d="M 3.601562 11.78125 C 3.601562 12.25 3.21875 12.628906 2.75 12.628906 C 2.285156 12.628906 1.902344 12.25 1.902344 11.78125 C 1.902344 11.3125 2.285156 10.933594 2.75 10.933594 C 3.21875 10.933594 3.601562 11.3125 3.601562 11.78125 Z M 3.601562 11.78125 "/>
<path fill-rule="nonzero" fill="rgb(99.607843%, 98.823529%, 36.470589%)" fill-opacity="1" d="M 3.601562 9.519531 C 3.601562 9.988281 3.21875 10.367188 2.75 10.367188 C 2.285156 10.367188 1.902344 9.988281 1.902344 9.519531 C 1.902344 9.050781 2.285156 8.671875 2.75 8.671875 C 3.21875 8.671875 3.601562 9.050781 3.601562 9.519531 Z M 3.601562 9.519531 "/>
<path fill-rule="nonzero" fill="rgb(99.607843%, 98.823529%, 36.470589%)" fill-opacity="1" d="M 3.601562 7.226562 C 3.601562 7.695312 3.21875 8.074219 2.75 8.074219 C 2.285156 8.074219 1.902344 7.695312 1.902344 7.226562 C 1.902344 6.761719 2.285156 6.382812 2.75 6.382812 C 3.21875 6.382812 3.601562 6.761719 3.601562 7.226562 Z M 3.601562 7.226562 "/>
<path fill-rule="nonzero" fill="rgb(99.607843%, 98.823529%, 36.470589%)" fill-opacity="1" d="M 3.652344 4.964844 C 3.652344 5.433594 3.269531 5.816406 2.800781 5.816406 C 2.335938 5.816406 1.953125 5.433594 1.953125 4.964844 C 1.953125 4.5 2.335938 4.121094 2.800781 4.121094 C 3.269531 4.121094 3.652344 4.5 3.652344 4.964844 Z M 3.652344 4.964844 "/>
<path fill-rule="nonzero" fill="rgb(99.607843%, 98.823529%, 36.470589%)" fill-opacity="1" d="M 3.601562 2.707031 C 3.601562 3.175781 3.21875 3.554688 2.75 3.554688 C 2.285156 3.554688 1.902344 3.175781 1.902344 2.707031 C 1.902344 2.242188 2.285156 1.863281 2.75 1.863281 C 3.21875 1.863281 3.601562 2.242188 3.601562 2.707031 Z M 3.601562 2.707031 "/>
<path fill-rule="nonzero" fill="rgb(99.607843%, 98.823529%, 36.470589%)" fill-opacity="1" d="M 7.179688 9.5 C 7.179688 9.96875 6.796875 10.347656 6.328125 10.347656 C 5.863281 10.347656 5.480469 9.96875 5.480469 9.5 C 5.480469 9.03125 5.863281 8.652344 6.328125 8.652344 C 6.796875 8.652344 7.179688 9.03125 7.179688 9.5 Z M 7.179688 9.5 "/>
<path fill-rule="nonzero" fill="rgb(99.607843%, 98.823529%, 36.470589%)" fill-opacity="1" d="M 9.542969 9.5 C 9.542969 9.96875 9.160156 10.347656 8.691406 10.347656 C 8.226562 10.347656 7.84375 9.96875 7.84375 9.5 C 7.84375 9.03125 8.226562 8.652344 8.691406 8.652344 C 9.160156 8.652344 9.542969 9.03125 9.542969 9.5 Z M 9.542969 9.5 "/>
<path fill-rule="nonzero" fill="rgb(99.607843%, 98.823529%, 36.470589%)" fill-opacity="1" d="M 11.816406 9.5 C 11.816406 9.96875 11.4375 10.347656 10.96875 10.347656 C 10.5 10.347656 10.121094 9.96875 10.121094 9.5 C 10.121094 9.03125 10.5 8.652344 10.96875 8.652344 C 11.4375 8.652344 11.816406 9.03125 11.816406 9.5 Z M 11.816406 9.5 "/>
<path fill-rule="nonzero" fill="rgb(99.607843%, 98.823529%, 36.470589%)" fill-opacity="1" d="M 9.53125 2.679688 C 9.53125 3.148438 9.148438 3.527344 8.679688 3.527344 C 8.214844 3.527344 7.832031 3.148438 7.832031 2.679688 C 7.832031 2.210938 8.214844 1.832031 8.679688 1.832031 C 9.148438 1.832031 9.53125 2.210938 9.53125 2.679688 Z M 9.53125 2.679688 "/>
<path fill-rule="nonzero" fill="rgb(99.607843%, 98.823529%, 36.470589%)" fill-opacity="1" d="M 11.898438 2.609375 C 11.898438 3.078125 11.515625 3.457031 11.046875 3.457031 C 10.582031 3.457031 10.199219 3.078125 10.199219 2.609375 C 10.199219 2.140625 10.582031 1.761719 11.046875 1.761719 C 11.515625 1.761719 11.898438 2.140625 11.898438 2.609375 Z M 11.898438 2.609375 "/>
<path fill-rule="nonzero" fill="rgb(99.607843%, 98.823529%, 36.470589%)" fill-opacity="1" d="M 13.28125 12.546875 C 12.8125 12.546875 12.433594 12.164062 12.433594 11.695312 C 12.433594 11.230469 12.8125 10.847656 13.28125 10.847656 C 13.75 10.847656 14.128906 11.230469 14.128906 11.695312 C 14.128906 12.164062 13.75 12.546875 13.28125 12.546875 Z M 13.28125 12.546875 "/>
<path fill-rule="nonzero" fill="rgb(99.607843%, 98.823529%, 36.470589%)" fill-opacity="1" d="M 13.351562 14.886719 C 12.882812 14.886719 12.5 14.503906 12.5 14.035156 C 12.5 13.570312 12.882812 13.1875 13.351562 13.1875 C 13.816406 13.1875 14.195312 13.570312 14.195312 14.035156 C 14.195312 14.503906 13.816406 14.886719 13.351562 14.886719 Z M 13.351562 14.886719 "/>
<path fill-rule="nonzero" fill="rgb(99.607843%, 98.823529%, 36.470589%)" fill-opacity="1" d="M 6.351562 12.546875 C 5.882812 12.546875 5.503906 12.164062 5.503906 11.695312 C 5.503906 11.230469 5.882812 10.847656 6.351562 10.847656 C 6.820312 10.847656 7.199219 11.230469 7.199219 11.695312 C 7.199219 12.164062 6.820312 12.546875 6.351562 12.546875 Z M 6.351562 12.546875 "/>
<path fill-rule="nonzero" fill="rgb(99.607843%, 98.823529%, 36.470589%)" fill-opacity="1" d="M 6.421875 14.886719 C 5.953125 14.886719 5.574219 14.503906 5.574219 14.035156 C 5.574219 13.570312 5.953125 13.1875 6.421875 13.1875 C 6.890625 13.1875 7.269531 13.570312 7.269531 14.035156 C 7.269531 14.503906 6.890625 14.886719 6.421875 14.886719 Z M 6.421875 14.886719 "/>
<path fill-rule="nonzero" fill="rgb(99.607843%, 98.823529%, 36.470589%)" fill-opacity="1" d="M 6.351562 5.761719 C 5.882812 5.761719 5.503906 5.378906 5.503906 4.910156 C 5.503906 4.445312 5.882812 4.0625 6.351562 4.0625 C 6.820312 4.0625 7.199219 4.445312 7.199219 4.910156 C 7.199219 5.378906 6.820312 5.761719 6.351562 5.761719 Z M 6.351562 5.761719 "/>
<path fill-rule="nonzero" fill="rgb(99.607843%, 98.823529%, 36.470589%)" fill-opacity="1" d="M 6.421875 8.101562 C 5.953125 8.101562 5.574219 7.71875 5.574219 7.25 C 5.574219 6.785156 5.953125 6.402344 6.421875 6.402344 C 6.890625 6.402344 7.269531 6.785156 7.269531 7.25 C 7.269531 7.71875 6.890625 8.101562 6.421875 8.101562 Z M 6.421875 8.101562 "/>
<path fill-rule="nonzero" fill="rgb(99.607843%, 98.823529%, 36.470589%)" fill-opacity="1" d="M 9.519531 16.34375 C 9.519531 16.8125 9.136719 17.191406 8.667969 17.191406 C 8.203125 17.191406 7.820312 16.8125 7.820312 16.34375 C 7.820312 15.875 8.203125 15.496094 8.667969 15.496094 C 9.136719 15.496094 9.519531 15.875 9.519531 16.34375 Z M 9.519531 16.34375 "/>
<path fill-rule="nonzero" fill="rgb(99.607843%, 98.823529%, 36.470589%)" fill-opacity="1" d="M 11.890625 16.273438 C 11.890625 16.742188 11.507812 17.121094 11.039062 17.121094 C 10.574219 17.121094 10.191406 16.742188 10.191406 16.273438 C 10.191406 15.804688 10.574219 15.425781 11.039062 15.425781 C 11.507812 15.425781 11.890625 15.804688 11.890625 16.273438 Z M 11.890625 16.273438 "/>
</svg>
