<?xml version="1.0" encoding="UTF-8"?>
<svg xmlns="http://www.w3.org/2000/svg" xmlns:xlink="http://www.w3.org/1999/xlink" width="17.174836" height="15" viewBox="0 0 17.174836 15">
<defs>
<filter id="filter-remove-color" x="0%" y="0%" width="100%" height="100%">
<feColorMatrix color-interpolation-filters="sRGB" values="0 0 0 0 1 0 0 0 0 1 0 0 0 0 1 0 0 0 1 0" />
</filter>
<mask id="mask-0">
<g filter="url(#filter-remove-color)">
<rect x="-1.717484" y="-1.5" width="20.609803" height="18" fill="rgb(0%, 0%, 0%)" fill-opacity="0.96"/>
</g>
</mask>
<clipPath id="clip-0">
<rect x="0" y="0" width="18" height="15"/>
</clipPath>
<g id="source-5" clip-path="url(#clip-0)">
<path fill-rule="nonzero" fill="rgb(90.196079%, 95.686275%, 27.058825%)" fill-opacity="1" d="M 8.667969 2.070312 C 7.292969 2.070312 6.179688 3.183594 6.179688 4.558594 L 7.085938 4.558594 C 7.085938 3.683594 7.792969 2.976562 8.667969 2.976562 C 9.542969 2.976562 10.25 3.683594 10.25 4.558594 C 10.25 5.136719 9.894531 5.675781 9.507812 5.898438 C 8.453125 6.507812 8.265625 7.566406 8.265625 8.042969 L 8.265625 8.59375 L 9.171875 8.59375 L 9.171875 8.042969 C 9.171875 7.574219 9.335938 7.039062 10.019531 6.632812 C 10.703125 6.226562 11.152344 5.425781 11.15625 4.558594 C 11.15625 3.183594 10.042969 2.070312 8.667969 2.070312 Z M 8.667969 2.070312 "/>
</g>
<mask id="mask-1">
<g filter="url(#filter-remove-color)">
<rect x="-1.717484" y="-1.5" width="20.609803" height="18" fill="rgb(0%, 0%, 0%)" fill-opacity="0.96"/>
</g>
</mask>
<clipPath id="clip-1">
<rect x="0" y="0" width="18" height="15"/>
</clipPath>
<g id="source-8" clip-path="url(#clip-1)">
<path fill-rule="nonzero" fill="rgb(90.196079%, 95.686275%, 27.058825%)" fill-opacity="1" d="M 8.265625 9.207031 L 8.265625 10.148438 L 9.171875 10.148438 L 9.171875 9.207031 Z M 8.265625 9.207031 "/>
</g>
</defs>
<path fill-rule="nonzero" fill="rgb(0%, 0%, 0%)" fill-opacity="1" stroke-width="14.258254" stroke-linecap="round" stroke-linejoin="round" stroke="rgb(90.196079%, 95.686275%, 27.058825%)" stroke-opacity="1" stroke-miterlimit="4" d="M 272.979483 814.255589 L 7.153417 814.255589 L 140.513539 1045.208751 L 273.682051 814.574938 " transform="matrix(0.0611596, 0, 0, 0.0611596, 0, -49.362036)"/>
<g mask="url(#mask-0)">
<use xlink:href="#source-5" transform="matrix(1, 0, 0, 1, 0, 0)"/>
</g>
<g mask="url(#mask-1)">
<use xlink:href="#source-8" transform="matrix(1, 0, 0, 1, 0, 0)"/>
</g>
</svg>
