<?xml version="1.0" encoding="UTF-8"?>
<svg xmlns="http://www.w3.org/2000/svg" xmlns:xlink="http://www.w3.org/1999/xlink" width="11.657144" height="15" viewBox="0 0 11.657144 15">
<defs>
<filter id="filter-remove-color" x="0%" y="0%" width="100%" height="100%">
<feColorMatrix color-interpolation-filters="sRGB" values="0 0 0 0 1 0 0 0 0 1 0 0 0 0 1 0 0 0 1 0" />
</filter>
<mask id="mask-0">
<g filter="url(#filter-remove-color)">
<rect x="-1.165714" y="-1.5" width="13.988573" height="18" fill="rgb(0%, 0%, 0%)" fill-opacity="0.99"/>
</g>
</mask>
<clipPath id="clip-0">
<rect x="0" y="0" width="12" height="16"/>
</clipPath>
<g id="source-5" clip-path="url(#clip-0)">
<path fill-rule="nonzero" fill="rgb(99.607843%, 98.823529%, 36.470589%)" fill-opacity="1" d="M 10.15625 7.511719 C 10.15625 7.878906 9.855469 8.179688 9.484375 8.179688 C 9.113281 8.179688 8.8125 7.878906 8.8125 7.511719 C 8.8125 7.140625 9.113281 6.839844 9.484375 6.839844 C 9.855469 6.839844 10.15625 7.140625 10.15625 7.511719 Z M 10.15625 7.511719 "/>
</g>
<mask id="mask-1">
<g filter="url(#filter-remove-color)">
<rect x="-1.165714" y="-1.5" width="13.988573" height="18" fill="rgb(0%, 0%, 0%)" fill-opacity="0.99"/>
</g>
</mask>
<clipPath id="clip-1">
<rect x="0" y="0" width="12" height="16"/>
</clipPath>
<g id="source-8" clip-path="url(#clip-1)">
<path fill-rule="nonzero" fill="rgb(99.607843%, 98.823529%, 36.470589%)" fill-opacity="1" d="M 10.15625 9.285156 C 10.15625 9.65625 9.855469 9.957031 9.484375 9.957031 C 9.113281 9.957031 8.8125 9.65625 8.8125 9.285156 C 8.8125 8.914062 9.113281 8.613281 9.484375 8.613281 C 9.855469 8.613281 10.15625 8.914062 10.15625 9.285156 Z M 10.15625 9.285156 "/>
</g>
<mask id="mask-2">
<g filter="url(#filter-remove-color)">
<rect x="-1.165714" y="-1.5" width="13.988573" height="18" fill="rgb(0%, 0%, 0%)" fill-opacity="0.99"/>
</g>
</mask>
<clipPath id="clip-2">
<rect x="0" y="0" width="12" height="16"/>
</clipPath>
<g id="source-11" clip-path="url(#clip-2)">
<path fill-rule="nonzero" fill="rgb(99.607843%, 98.823529%, 36.470589%)" fill-opacity="1" d="M 10.15625 11.09375 C 10.15625 11.464844 9.855469 11.765625 9.484375 11.765625 C 9.113281 11.765625 8.8125 11.464844 8.8125 11.09375 C 8.8125 10.722656 9.113281 10.421875 9.484375 10.421875 C 9.855469 10.421875 10.15625 10.722656 10.15625 11.09375 Z M 10.15625 11.09375 "/>
</g>
<mask id="mask-3">
<g filter="url(#filter-remove-color)">
<rect x="-1.165714" y="-1.5" width="13.988573" height="18" fill="rgb(0%, 0%, 0%)" fill-opacity="0.99"/>
</g>
</mask>
<clipPath id="clip-3">
<rect x="0" y="0" width="12" height="16"/>
</clipPath>
<g id="source-14" clip-path="url(#clip-3)">
<path fill-rule="nonzero" fill="rgb(99.607843%, 98.823529%, 36.470589%)" fill-opacity="1" d="M 10.15625 12.9375 C 10.15625 13.308594 9.855469 13.609375 9.484375 13.609375 C 9.113281 13.609375 8.8125 13.308594 8.8125 12.9375 C 8.8125 12.566406 9.113281 12.265625 9.484375 12.265625 C 9.855469 12.265625 10.15625 12.566406 10.15625 12.9375 Z M 10.15625 12.9375 "/>
</g>
<mask id="mask-4">
<g filter="url(#filter-remove-color)">
<rect x="-1.165714" y="-1.5" width="13.988573" height="18" fill="rgb(0%, 0%, 0%)" fill-opacity="0.99"/>
</g>
</mask>
<clipPath id="clip-4">
<rect x="0" y="0" width="12" height="16"/>
</clipPath>
<g id="source-17" clip-path="url(#clip-4)">
<path fill-rule="nonzero" fill="rgb(99.607843%, 98.823529%, 36.470589%)" fill-opacity="1" d="M 10.15625 5.710938 C 10.15625 6.082031 9.855469 6.382812 9.484375 6.382812 C 9.113281 6.382812 8.8125 6.082031 8.8125 5.710938 C 8.8125 5.339844 9.113281 5.042969 9.484375 5.042969 C 9.855469 5.042969 10.15625 5.339844 10.15625 5.710938 Z M 10.15625 5.710938 "/>
</g>
<mask id="mask-5">
<g filter="url(#filter-remove-color)">
<rect x="-1.165714" y="-1.5" width="13.988573" height="18" fill="rgb(0%, 0%, 0%)" fill-opacity="0.99"/>
</g>
</mask>
<clipPath id="clip-5">
<rect x="0" y="0" width="12" height="16"/>
</clipPath>
<g id="source-20" clip-path="url(#clip-5)">
<path fill-rule="nonzero" fill="rgb(99.607843%, 98.823529%, 36.470589%)" fill-opacity="1" d="M 10.15625 3.925781 C 10.15625 4.296875 9.855469 4.597656 9.484375 4.597656 C 9.113281 4.597656 8.8125 4.296875 8.8125 3.925781 C 8.8125 3.554688 9.113281 3.253906 9.484375 3.253906 C 9.855469 3.253906 10.15625 3.554688 10.15625 3.925781 Z M 10.15625 3.925781 "/>
</g>
<mask id="mask-6">
<g filter="url(#filter-remove-color)">
<rect x="-1.165714" y="-1.5" width="13.988573" height="18" fill="rgb(0%, 0%, 0%)" fill-opacity="0.99"/>
</g>
</mask>
<clipPath id="clip-6">
<rect x="0" y="0" width="12" height="16"/>
</clipPath>
<g id="source-23" clip-path="url(#clip-6)">
<path fill-rule="nonzero" fill="rgb(99.607843%, 98.823529%, 36.470589%)" fill-opacity="1" d="M 10.15625 2.140625 C 10.15625 2.507812 9.855469 2.808594 9.484375 2.808594 C 9.113281 2.808594 8.8125 2.507812 8.8125 2.140625 C 8.8125 1.769531 9.113281 1.46875 9.484375 1.46875 C 9.855469 1.46875 10.15625 1.769531 10.15625 2.140625 Z M 10.15625 2.140625 "/>
</g>
<mask id="mask-7">
<g filter="url(#filter-remove-color)">
<rect x="-1.165714" y="-1.5" width="13.988573" height="18" fill="rgb(0%, 0%, 0%)" fill-opacity="0.99"/>
</g>
</mask>
<clipPath id="clip-7">
<rect x="0" y="0" width="12" height="16"/>
</clipPath>
<g id="source-26" clip-path="url(#clip-7)">
<path fill-rule="nonzero" fill="rgb(99.607843%, 98.823529%, 36.470589%)" fill-opacity="1" d="M 8.328125 2.140625 C 8.328125 2.507812 8.027344 2.808594 7.65625 2.808594 C 7.285156 2.808594 6.984375 2.507812 6.984375 2.140625 C 6.984375 1.769531 7.285156 1.46875 7.65625 1.46875 C 8.027344 1.46875 8.328125 1.769531 8.328125 2.140625 Z M 8.328125 2.140625 "/>
</g>
<mask id="mask-8">
<g filter="url(#filter-remove-color)">
<rect x="-1.165714" y="-1.5" width="13.988573" height="18" fill="rgb(0%, 0%, 0%)" fill-opacity="0.99"/>
</g>
</mask>
<clipPath id="clip-8">
<rect x="0" y="0" width="12" height="16"/>
</clipPath>
<g id="source-29" clip-path="url(#clip-8)">
<path fill-rule="nonzero" fill="rgb(99.607843%, 98.823529%, 36.470589%)" fill-opacity="1" d="M 2.84375 2.140625 C 2.84375 2.507812 2.542969 2.808594 2.171875 2.808594 C 1.800781 2.808594 1.5 2.507812 1.5 2.140625 C 1.5 1.769531 1.800781 1.46875 2.171875 1.46875 C 2.542969 1.46875 2.84375 1.769531 2.84375 2.140625 Z M 2.84375 2.140625 "/>
</g>
<mask id="mask-9">
<g filter="url(#filter-remove-color)">
<rect x="-1.165714" y="-1.5" width="13.988573" height="18" fill="rgb(0%, 0%, 0%)" fill-opacity="0.99"/>
</g>
</mask>
<clipPath id="clip-9">
<rect x="0" y="0" width="12" height="16"/>
</clipPath>
<g id="source-32" clip-path="url(#clip-9)">
<path fill-rule="nonzero" fill="rgb(99.607843%, 98.823529%, 36.470589%)" fill-opacity="1" d="M 4.679688 7.511719 C 4.679688 7.878906 4.382812 8.179688 4.011719 8.179688 C 3.640625 8.179688 3.339844 7.878906 3.339844 7.511719 C 3.339844 7.140625 3.640625 6.839844 4.011719 6.839844 C 4.382812 6.839844 4.679688 7.140625 4.679688 7.511719 Z M 4.679688 7.511719 "/>
</g>
<mask id="mask-10">
<g filter="url(#filter-remove-color)">
<rect x="-1.165714" y="-1.5" width="13.988573" height="18" fill="rgb(0%, 0%, 0%)" fill-opacity="0.99"/>
</g>
</mask>
<clipPath id="clip-10">
<rect x="0" y="0" width="12" height="16"/>
</clipPath>
<g id="source-35" clip-path="url(#clip-10)">
<path fill-rule="nonzero" fill="rgb(99.607843%, 98.823529%, 36.470589%)" fill-opacity="1" d="M 4.679688 5.710938 C 4.679688 6.082031 4.382812 6.382812 4.011719 6.382812 C 3.640625 6.382812 3.339844 6.082031 3.339844 5.710938 C 3.339844 5.339844 3.640625 5.042969 4.011719 5.042969 C 4.382812 5.042969 4.679688 5.339844 4.679688 5.710938 Z M 4.679688 5.710938 "/>
</g>
<mask id="mask-11">
<g filter="url(#filter-remove-color)">
<rect x="-1.165714" y="-1.5" width="13.988573" height="18" fill="rgb(0%, 0%, 0%)" fill-opacity="0.99"/>
</g>
</mask>
<clipPath id="clip-11">
<rect x="0" y="0" width="12" height="16"/>
</clipPath>
<g id="source-38" clip-path="url(#clip-11)">
<path fill-rule="nonzero" fill="rgb(99.607843%, 98.823529%, 36.470589%)" fill-opacity="1" d="M 4.679688 3.925781 C 4.679688 4.296875 4.382812 4.597656 4.011719 4.597656 C 3.640625 4.597656 3.339844 4.296875 3.339844 3.925781 C 3.339844 3.554688 3.640625 3.253906 4.011719 3.253906 C 4.382812 3.253906 4.679688 3.554688 4.679688 3.925781 Z M 4.679688 3.925781 "/>
</g>
<mask id="mask-12">
<g filter="url(#filter-remove-color)">
<rect x="-1.165714" y="-1.5" width="13.988573" height="18" fill="rgb(0%, 0%, 0%)" fill-opacity="0.99"/>
</g>
</mask>
<clipPath id="clip-12">
<rect x="0" y="0" width="12" height="16"/>
</clipPath>
<g id="source-41" clip-path="url(#clip-12)">
<path fill-rule="nonzero" fill="rgb(99.607843%, 98.823529%, 36.470589%)" fill-opacity="1" d="M 4.679688 2.140625 C 4.679688 2.507812 4.382812 2.808594 4.011719 2.808594 C 3.640625 2.808594 3.339844 2.507812 3.339844 2.140625 C 3.339844 1.769531 3.640625 1.46875 4.011719 1.46875 C 4.382812 1.46875 4.679688 1.769531 4.679688 2.140625 Z M 4.679688 2.140625 "/>
</g>
<mask id="mask-13">
<g filter="url(#filter-remove-color)">
<rect x="-1.165714" y="-1.5" width="13.988573" height="18" fill="rgb(0%, 0%, 0%)" fill-opacity="0.99"/>
</g>
</mask>
<clipPath id="clip-13">
<rect x="0" y="0" width="12" height="16"/>
</clipPath>
<g id="source-44" clip-path="url(#clip-13)">
<path fill-rule="nonzero" fill="rgb(99.607843%, 98.823529%, 36.470589%)" fill-opacity="1" d="M 4.679688 9.285156 C 4.679688 9.65625 4.382812 9.957031 4.011719 9.957031 C 3.640625 9.957031 3.339844 9.65625 3.339844 9.285156 C 3.339844 8.914062 3.640625 8.613281 4.011719 8.613281 C 4.382812 8.613281 4.679688 8.914062 4.679688 9.285156 Z M 4.679688 9.285156 "/>
</g>
<mask id="mask-14">
<g filter="url(#filter-remove-color)">
<rect x="-1.165714" y="-1.5" width="13.988573" height="18" fill="rgb(0%, 0%, 0%)" fill-opacity="0.99"/>
</g>
</mask>
<clipPath id="clip-14">
<rect x="0" y="0" width="12" height="16"/>
</clipPath>
<g id="source-47" clip-path="url(#clip-14)">
<path fill-rule="nonzero" fill="rgb(99.607843%, 98.823529%, 36.470589%)" fill-opacity="1" d="M 4.679688 11.09375 C 4.679688 11.464844 4.382812 11.765625 4.011719 11.765625 C 3.640625 11.765625 3.339844 11.464844 3.339844 11.09375 C 3.339844 10.722656 3.640625 10.421875 4.011719 10.421875 C 4.382812 10.421875 4.679688 10.722656 4.679688 11.09375 Z M 4.679688 11.09375 "/>
</g>
<mask id="mask-15">
<g filter="url(#filter-remove-color)">
<rect x="-1.165714" y="-1.5" width="13.988573" height="18" fill="rgb(0%, 0%, 0%)" fill-opacity="0.99"/>
</g>
</mask>
<clipPath id="clip-15">
<rect x="0" y="0" width="12" height="16"/>
</clipPath>
<g id="source-50" clip-path="url(#clip-15)">
<path fill-rule="nonzero" fill="rgb(99.607843%, 98.823529%, 36.470589%)" fill-opacity="1" d="M 4.679688 12.9375 C 4.679688 13.308594 4.382812 13.609375 4.011719 13.609375 C 3.640625 13.609375 3.339844 13.308594 3.339844 12.9375 C 3.339844 12.566406 3.640625 12.265625 4.011719 12.265625 C 4.382812 12.265625 4.679688 12.566406 4.679688 12.9375 Z M 4.679688 12.9375 "/>
</g>
</defs>
<path fill-rule="nonzero" fill="rgb(0%, 0%, 0%)" fill-opacity="1" d="M 0 0 L 11.65625 0 L 11.65625 15 L 0 15 Z M 0 0 "/>
<g mask="url(#mask-0)">
<use xlink:href="#source-5"/>
</g>
<g mask="url(#mask-1)">
<use xlink:href="#source-8"/>
</g>
<g mask="url(#mask-2)">
<use xlink:href="#source-11"/>
</g>
<g mask="url(#mask-3)">
<use xlink:href="#source-14"/>
</g>
<g mask="url(#mask-4)">
<use xlink:href="#source-17"/>
</g>
<g mask="url(#mask-5)">
<use xlink:href="#source-20"/>
</g>
<g mask="url(#mask-6)">
<use xlink:href="#source-23"/>
</g>
<g mask="url(#mask-7)">
<use xlink:href="#source-26"/>
</g>
<g mask="url(#mask-8)">
<use xlink:href="#source-29"/>
</g>
<g mask="url(#mask-9)">
<use xlink:href="#source-32"/>
</g>
<g mask="url(#mask-10)">
<use xlink:href="#source-35"/>
</g>
<g mask="url(#mask-11)">
<use xlink:href="#source-38"/>
</g>
<g mask="url(#mask-12)">
<use xlink:href="#source-41"/>
</g>
<g mask="url(#mask-13)">
<use xlink:href="#source-44"/>
</g>
<g mask="url(#mask-14)">
<use xlink:href="#source-47"/>
</g>
<g mask="url(#mask-15)">
<use xlink:href="#source-50"/>
</g>
</svg>
