<?xml version="1.0" encoding="UTF-8"?>
<svg xmlns="http://www.w3.org/2000/svg" xmlns:xlink="http://www.w3.org/1999/xlink" width="21.754791" height="19" viewBox="0 0 21.754791 19">
<path fill-rule="nonzero" fill="rgb(0%, 0%, 0%)" fill-opacity="1" stroke-width="14.258254" stroke-linecap="round" stroke-linejoin="round" stroke="rgb(90.196079%, 95.686275%, 27.058825%)" stroke-opacity="1" stroke-miterlimit="4" d="M 272.992874 814.262179 L 7.160138 814.262179 L 140.530318 1045.201848 L 273.698803 814.564721 " transform="matrix(0.0774688, 0, 0, 0.0774688, 0, -62.525248)"/>
<path fill-rule="nonzero" fill="rgb(90.196079%, 95.686275%, 27.058825%)" fill-opacity="1" d="M 8.4375 4.613281 C 8.4375 4.613281 9.320312 4.613281 9.765625 4.613281 C 9.765625 2.898438 12.203125 2.925781 12.203125 4.613281 C 12.203125 6.050781 11.417969 6.289062 10.273438 6.289062 C 10.273438 6.582031 10.296875 6.898438 10.296875 7.269531 C 12.171875 7.269531 12.175781 7.867188 12.175781 9.035156 C 12.175781 10.824219 9.4375 10.820312 9.4375 9.035156 C 8.757812 9.035156 8.132812 9.035156 8.132812 9.035156 C 8.132812 9.035156 7.679688 11.597656 10.832031 11.597656 C 12.53125 11.597656 13.527344 10.675781 13.527344 9.035156 C 13.527344 5.75 13.527344 8.410156 13.527344 7.929688 C 13.527344 7.289062 12.957031 6.859375 12.617188 6.660156 C 13.046875 6.414062 13.527344 6.105469 13.527344 5.332031 C 13.527344 4.195312 13.527344 6.296875 13.527344 4.503906 C 13.527344 1.792969 8.4375 1.042969 8.4375 4.613281 Z M 8.4375 4.613281 "/>
</svg>
