<?xml version="1.0" encoding="UTF-8"?>
<svg xmlns="http://www.w3.org/2000/svg" xmlns:xlink="http://www.w3.org/1999/xlink" width="11.657144" height="15" viewBox="0 0 11.657144 15">
<defs>
<filter id="filter-remove-color" x="0%" y="0%" width="100%" height="100%">
<feColorMatrix color-interpolation-filters="sRGB" values="0 0 0 0 1 0 0 0 0 1 0 0 0 0 1 0 0 0 1 0" />
</filter>
<mask id="mask-0">
<g filter="url(#filter-remove-color)">
<rect x="-1.165714" y="-1.5" width="13.988573" height="18" fill="rgb(0%, 0%, 0%)" fill-opacity="0.99"/>
</g>
</mask>
<clipPath id="clip-0">
<rect x="0" y="0" width="12" height="16"/>
</clipPath>
<g id="source-5" clip-path="url(#clip-0)">
<path fill-rule="nonzero" fill="rgb(99.607843%, 98.823529%, 36.470589%)" fill-opacity="1" d="M 10.15625 3.925781 C 10.15625 4.296875 9.855469 4.597656 9.484375 4.597656 C 9.113281 4.597656 8.8125 4.296875 8.8125 3.925781 C 8.8125 3.554688 9.113281 3.253906 9.484375 3.253906 C 9.855469 3.253906 10.15625 3.554688 10.15625 3.925781 Z M 10.15625 3.925781 "/>
</g>
<mask id="mask-1">
<g filter="url(#filter-remove-color)">
<rect x="-1.165714" y="-1.5" width="13.988573" height="18" fill="rgb(0%, 0%, 0%)" fill-opacity="0.99"/>
</g>
</mask>
<clipPath id="clip-1">
<rect x="0" y="0" width="12" height="16"/>
</clipPath>
<g id="source-8" clip-path="url(#clip-1)">
<path fill-rule="nonzero" fill="rgb(99.607843%, 98.823529%, 36.470589%)" fill-opacity="1" d="M 10.15625 2.140625 C 10.15625 2.507812 9.855469 2.808594 9.484375 2.808594 C 9.113281 2.808594 8.8125 2.507812 8.8125 2.140625 C 8.8125 1.769531 9.113281 1.46875 9.484375 1.46875 C 9.855469 1.46875 10.15625 1.769531 10.15625 2.140625 Z M 10.15625 2.140625 "/>
</g>
<mask id="mask-2">
<g filter="url(#filter-remove-color)">
<rect x="-1.165714" y="-1.5" width="13.988573" height="18" fill="rgb(0%, 0%, 0%)" fill-opacity="0.99"/>
</g>
</mask>
<clipPath id="clip-2">
<rect x="0" y="0" width="12" height="16"/>
</clipPath>
<g id="source-11" clip-path="url(#clip-2)">
<path fill-rule="nonzero" fill="rgb(99.607843%, 98.823529%, 36.470589%)" fill-opacity="1" d="M 8.328125 5.710938 C 8.328125 6.082031 8.027344 6.382812 7.65625 6.382812 C 7.285156 6.382812 6.984375 6.082031 6.984375 5.710938 C 6.984375 5.339844 7.285156 5.042969 7.65625 5.042969 C 8.027344 5.042969 8.328125 5.339844 8.328125 5.710938 Z M 8.328125 5.710938 "/>
</g>
<mask id="mask-3">
<g filter="url(#filter-remove-color)">
<rect x="-1.165714" y="-1.5" width="13.988573" height="18" fill="rgb(0%, 0%, 0%)" fill-opacity="0.99"/>
</g>
</mask>
<clipPath id="clip-3">
<rect x="0" y="0" width="12" height="16"/>
</clipPath>
<g id="source-14" clip-path="url(#clip-3)">
<path fill-rule="nonzero" fill="rgb(99.607843%, 98.823529%, 36.470589%)" fill-opacity="1" d="M 8.328125 2.140625 C 8.328125 2.507812 8.027344 2.808594 7.65625 2.808594 C 7.285156 2.808594 6.984375 2.507812 6.984375 2.140625 C 6.984375 1.769531 7.285156 1.46875 7.65625 1.46875 C 8.027344 1.46875 8.328125 1.769531 8.328125 2.140625 Z M 8.328125 2.140625 "/>
</g>
<mask id="mask-4">
<g filter="url(#filter-remove-color)">
<rect x="-1.165714" y="-1.5" width="13.988573" height="18" fill="rgb(0%, 0%, 0%)" fill-opacity="0.99"/>
</g>
</mask>
<clipPath id="clip-4">
<rect x="0" y="0" width="12" height="16"/>
</clipPath>
<g id="source-17" clip-path="url(#clip-4)">
<path fill-rule="nonzero" fill="rgb(99.607843%, 98.823529%, 36.470589%)" fill-opacity="1" d="M 6.539062 7.511719 C 6.539062 7.878906 6.238281 8.179688 5.867188 8.179688 C 5.5 8.179688 5.199219 7.878906 5.199219 7.511719 C 5.199219 7.140625 5.5 6.839844 5.867188 6.839844 C 6.238281 6.839844 6.539062 7.140625 6.539062 7.511719 Z M 6.539062 7.511719 "/>
</g>
<mask id="mask-5">
<g filter="url(#filter-remove-color)">
<rect x="-1.165714" y="-1.5" width="13.988573" height="18" fill="rgb(0%, 0%, 0%)" fill-opacity="0.99"/>
</g>
</mask>
<clipPath id="clip-5">
<rect x="0" y="0" width="12" height="16"/>
</clipPath>
<g id="source-20" clip-path="url(#clip-5)">
<path fill-rule="nonzero" fill="rgb(99.607843%, 98.823529%, 36.470589%)" fill-opacity="1" d="M 6.539062 2.140625 C 6.539062 2.507812 6.238281 2.808594 5.867188 2.808594 C 5.5 2.808594 5.199219 2.507812 5.199219 2.140625 C 5.199219 1.769531 5.5 1.46875 5.867188 1.46875 C 6.238281 1.46875 6.539062 1.769531 6.539062 2.140625 Z M 6.539062 2.140625 "/>
</g>
<mask id="mask-6">
<g filter="url(#filter-remove-color)">
<rect x="-1.165714" y="-1.5" width="13.988573" height="18" fill="rgb(0%, 0%, 0%)" fill-opacity="0.99"/>
</g>
</mask>
<clipPath id="clip-6">
<rect x="0" y="0" width="12" height="16"/>
</clipPath>
<g id="source-23" clip-path="url(#clip-6)">
<path fill-rule="nonzero" fill="rgb(99.607843%, 98.823529%, 36.470589%)" fill-opacity="1" d="M 2.84375 2.140625 C 2.84375 2.507812 2.542969 2.808594 2.171875 2.808594 C 1.800781 2.808594 1.5 2.507812 1.5 2.140625 C 1.5 1.769531 1.800781 1.46875 2.171875 1.46875 C 2.542969 1.46875 2.84375 1.769531 2.84375 2.140625 Z M 2.84375 2.140625 "/>
</g>
<mask id="mask-7">
<g filter="url(#filter-remove-color)">
<rect x="-1.165714" y="-1.5" width="13.988573" height="18" fill="rgb(0%, 0%, 0%)" fill-opacity="0.99"/>
</g>
</mask>
<clipPath id="clip-7">
<rect x="0" y="0" width="12" height="16"/>
</clipPath>
<g id="source-26" clip-path="url(#clip-7)">
<path fill-rule="nonzero" fill="rgb(99.607843%, 98.823529%, 36.470589%)" fill-opacity="1" d="M 2.84375 11.09375 C 2.84375 11.464844 2.542969 11.765625 2.171875 11.765625 C 1.800781 11.765625 1.5 11.464844 1.5 11.09375 C 1.5 10.722656 1.800781 10.421875 2.171875 10.421875 C 2.542969 10.421875 2.84375 10.722656 2.84375 11.09375 Z M 2.84375 11.09375 "/>
</g>
<mask id="mask-8">
<g filter="url(#filter-remove-color)">
<rect x="-1.165714" y="-1.5" width="13.988573" height="18" fill="rgb(0%, 0%, 0%)" fill-opacity="0.99"/>
</g>
</mask>
<clipPath id="clip-8">
<rect x="0" y="0" width="12" height="16"/>
</clipPath>
<g id="source-29" clip-path="url(#clip-8)">
<path fill-rule="nonzero" fill="rgb(99.607843%, 98.823529%, 36.470589%)" fill-opacity="1" d="M 2.84375 12.9375 C 2.84375 13.308594 2.542969 13.609375 2.171875 13.609375 C 1.800781 13.609375 1.5 13.308594 1.5 12.9375 C 1.5 12.566406 1.800781 12.265625 2.171875 12.265625 C 2.542969 12.265625 2.84375 12.566406 2.84375 12.9375 Z M 2.84375 12.9375 "/>
</g>
<mask id="mask-9">
<g filter="url(#filter-remove-color)">
<rect x="-1.165714" y="-1.5" width="13.988573" height="18" fill="rgb(0%, 0%, 0%)" fill-opacity="0.99"/>
</g>
</mask>
<clipPath id="clip-9">
<rect x="0" y="0" width="12" height="16"/>
</clipPath>
<g id="source-32" clip-path="url(#clip-9)">
<path fill-rule="nonzero" fill="rgb(99.607843%, 98.823529%, 36.470589%)" fill-opacity="1" d="M 4.679688 2.140625 C 4.679688 2.507812 4.382812 2.808594 4.011719 2.808594 C 3.640625 2.808594 3.339844 2.507812 3.339844 2.140625 C 3.339844 1.769531 3.640625 1.46875 4.011719 1.46875 C 4.382812 1.46875 4.679688 1.769531 4.679688 2.140625 Z M 4.679688 2.140625 "/>
</g>
<mask id="mask-10">
<g filter="url(#filter-remove-color)">
<rect x="-1.165714" y="-1.5" width="13.988573" height="18" fill="rgb(0%, 0%, 0%)" fill-opacity="0.99"/>
</g>
</mask>
<clipPath id="clip-10">
<rect x="0" y="0" width="12" height="16"/>
</clipPath>
<g id="source-35" clip-path="url(#clip-10)">
<path fill-rule="nonzero" fill="rgb(99.607843%, 98.823529%, 36.470589%)" fill-opacity="1" d="M 4.679688 9.285156 C 4.679688 9.65625 4.382812 9.957031 4.011719 9.957031 C 3.640625 9.957031 3.339844 9.65625 3.339844 9.285156 C 3.339844 8.914062 3.640625 8.613281 4.011719 8.613281 C 4.382812 8.613281 4.679688 8.914062 4.679688 9.285156 Z M 4.679688 9.285156 "/>
</g>
</defs>
<path fill-rule="nonzero" fill="rgb(0%, 0%, 0%)" fill-opacity="1" d="M 0 0 L 11.65625 0 L 11.65625 15 L 0 15 Z M 0 0 "/>
<g mask="url(#mask-0)">
<use xlink:href="#source-5"/>
</g>
<g mask="url(#mask-1)">
<use xlink:href="#source-8"/>
</g>
<g mask="url(#mask-2)">
<use xlink:href="#source-11"/>
</g>
<g mask="url(#mask-3)">
<use xlink:href="#source-14"/>
</g>
<g mask="url(#mask-4)">
<use xlink:href="#source-17"/>
</g>
<g mask="url(#mask-5)">
<use xlink:href="#source-20"/>
</g>
<g mask="url(#mask-6)">
<use xlink:href="#source-23"/>
</g>
<g mask="url(#mask-7)">
<use xlink:href="#source-26"/>
</g>
<g mask="url(#mask-8)">
<use xlink:href="#source-29"/>
</g>
<g mask="url(#mask-9)">
<use xlink:href="#source-32"/>
</g>
<g mask="url(#mask-10)">
<use xlink:href="#source-35"/>
</g>
</svg>
