<?xml version="1.0" encoding="UTF-8"?>
<svg xmlns="http://www.w3.org/2000/svg" xmlns:xlink="http://www.w3.org/1999/xlink" width="21.626017" height="19" viewBox="0 0 21.626017 19">
<path fill-rule="evenodd" fill="rgb(0%, 0%, 0%)" fill-opacity="1" stroke-width="14.258254" stroke-linecap="round" stroke-linejoin="round" stroke="rgb(90.196079%, 95.686275%, 27.058825%)" stroke-opacity="1" stroke-miterlimit="4" d="M 7.131169 7.131169 L 140.4992 238.110235 L 273.664929 7.434623 Z M 7.131169 7.131169 " transform="matrix(0.0772358, 0, 0, 0.0772358, 0, 0)"/>
<path fill-rule="evenodd" fill="rgb(90.196079%, 95.686275%, 27.058825%)" fill-opacity="1" d="M 10.871094 2.628906 C 9.734375 2.628906 8.902344 3.382812 8.882812 4.597656 L 8.882812 5.628906 C 8.882812 6.085938 9.085938 6.625 9.464844 6.996094 C 9.085938 7.367188 8.882812 7.882812 8.882812 8.34375 L 8.882812 9.925781 C 8.886719 11.132812 9.734375 11.894531 10.871094 11.894531 C 11.933594 11.894531 12.820312 11.152344 12.820312 9.925781 L 12.820312 8.34375 C 12.820312 7.882812 12.578125 7.292969 12.234375 6.992188 C 12.648438 6.59375 12.820312 6.074219 12.820312 5.617188 L 12.820312 4.597656 C 12.820312 3.371094 11.933594 2.628906 10.871094 2.628906 Z M 10.871094 3.785156 C 11.359375 3.78125 11.742188 4.078125 11.742188 4.5625 L 11.742188 5.585938 C 11.742188 5.996094 11.425781 6.414062 10.890625 6.414062 C 10.355469 6.414062 10.039062 5.996094 10.039062 5.585938 L 10.042969 4.546875 C 10.042969 4.066406 10.480469 3.789062 10.871094 3.785156 Z M 10.890625 7.492188 C 11.386719 7.492188 11.742188 7.878906 11.742188 8.324219 L 11.742188 9.882812 C 11.742188 10.367188 11.359375 10.664062 10.871094 10.65625 C 10.480469 10.652344 10.042969 10.375 10.042969 9.894531 L 10.039062 8.324219 C 10.039062 7.871094 10.410156 7.492188 10.890625 7.492188 Z M 10.890625 7.492188 "/>
</svg>
