<?xml version="1.0" encoding="UTF-8"?>
<svg xmlns="http://www.w3.org/2000/svg" xmlns:xlink="http://www.w3.org/1999/xlink" width="17.073171" height="15" viewBox="0 0 17.073171 15">
<path fill-rule="evenodd" fill="rgb(0%, 0%, 0%)" fill-opacity="1" stroke-width="14.258254" stroke-linecap="round" stroke-linejoin="round" stroke="rgb(90.196079%, 95.686275%, 27.058825%)" stroke-opacity="1" stroke-miterlimit="4" d="M 7.110937 7.110938 L 140.489062 238.120313 L 273.675 7.43125 Z M 7.110937 7.110938 " transform="matrix(0.0609756, 0, 0, 0.0609756, 0, 0)"/>
<path fill-rule="evenodd" fill="rgb(90.196079%, 95.686275%, 27.058825%)" fill-opacity="1" d="M 9.847656 1.707031 C 9.164062 1.710938 8.484375 2.214844 8.484375 3.207031 L 8.476562 3.207031 L 8.476562 7.300781 L 8.484375 7.300781 C 8.5 9.300781 11.207031 9.28125 11.207031 7.300781 L 11.214844 7.300781 L 11.214844 3.207031 L 11.207031 3.207031 C 11.207031 2.199219 10.527344 1.703125 9.847656 1.707031 Z M 9.84375 2.597656 C 10.132812 2.59375 10.421875 2.796875 10.421875 3.207031 L 10.417969 3.207031 L 10.417969 7.300781 L 10.421875 7.300781 C 10.421875 8.105469 9.269531 8.109375 9.269531 7.28125 L 9.269531 3.207031 C 9.269531 2.804688 9.558594 2.601562 9.84375 2.597656 Z M 9.84375 2.597656 "/>
<path fill-rule="evenodd" fill="rgb(90.196079%, 95.686275%, 27.058825%)" fill-opacity="1" d="M 6.601562 1.890625 L 5.730469 2.800781 L 5.730469 4.230469 L 6.589844 3.308594 L 6.589844 8.78125 L 7.515625 8.78125 L 7.515625 1.890625 Z M 6.601562 1.890625 "/>
</svg>
