<?xml version="1.0" encoding="UTF-8"?>
<svg xmlns="http://www.w3.org/2000/svg" xmlns:xlink="http://www.w3.org/1999/xlink" width="14.765716" height="19" viewBox="0 0 14.765716 19">
<path fill-rule="nonzero" fill="rgb(0%, 0%, 0%)" fill-opacity="1" d="M 0 0 L 14.765625 0 L 14.765625 19 L 0 19 Z M 0 0 "/>
<path fill-rule="nonzero" fill="rgb(99.607843%, 98.823529%, 36.470589%)" fill-opacity="1" d="M 3.601562 16.269531 C 3.601562 16.738281 3.222656 17.117188 2.753906 17.117188 C 2.289062 17.117188 1.902344 16.738281 1.902344 16.269531 C 1.902344 15.800781 2.289062 15.421875 2.753906 15.421875 C 3.222656 15.421875 3.601562 15.800781 3.601562 16.269531 Z M 3.601562 16.269531 "/>
<path fill-rule="nonzero" fill="rgb(99.607843%, 98.823529%, 36.470589%)" fill-opacity="1" d="M 3.554688 14.011719 C 3.554688 14.480469 3.171875 14.859375 2.699219 14.859375 C 2.238281 14.859375 1.851562 14.480469 1.851562 14.011719 C 1.851562 13.542969 2.238281 13.164062 2.699219 13.164062 C 3.171875 13.164062 3.554688 13.542969 3.554688 14.011719 Z M 3.554688 14.011719 "/>
<path fill-rule="nonzero" fill="rgb(99.607843%, 98.823529%, 36.470589%)" fill-opacity="1" d="M 3.601562 11.78125 C 3.601562 12.25 3.21875 12.628906 2.75 12.628906 C 2.285156 12.628906 1.902344 12.25 1.902344 11.78125 C 1.902344 11.3125 2.285156 10.933594 2.75 10.933594 C 3.21875 10.933594 3.601562 11.3125 3.601562 11.78125 Z M 3.601562 11.78125 "/>
<path fill-rule="nonzero" fill="rgb(99.607843%, 98.823529%, 36.470589%)" fill-opacity="1" d="M 3.601562 9.519531 C 3.601562 9.988281 3.21875 10.367188 2.75 10.367188 C 2.285156 10.367188 1.902344 9.988281 1.902344 9.519531 C 1.902344 9.050781 2.285156 8.671875 2.75 8.671875 C 3.21875 8.671875 3.601562 9.050781 3.601562 9.519531 Z M 3.601562 9.519531 "/>
<path fill-rule="nonzero" fill="rgb(99.607843%, 98.823529%, 36.470589%)" fill-opacity="1" d="M 3.601562 7.226562 C 3.601562 7.695312 3.21875 8.074219 2.75 8.074219 C 2.285156 8.074219 1.902344 7.695312 1.902344 7.226562 C 1.902344 6.761719 2.285156 6.382812 2.75 6.382812 C 3.21875 6.382812 3.601562 6.761719 3.601562 7.226562 Z M 3.601562 7.226562 "/>
<path fill-rule="nonzero" fill="rgb(99.607843%, 98.823529%, 36.470589%)" fill-opacity="1" d="M 3.652344 4.964844 C 3.652344 5.433594 3.269531 5.816406 2.800781 5.816406 C 2.335938 5.816406 1.953125 5.433594 1.953125 4.964844 C 1.953125 4.5 2.335938 4.121094 2.800781 4.121094 C 3.269531 4.121094 3.652344 4.5 3.652344 4.964844 Z M 3.652344 4.964844 "/>
<path fill-rule="nonzero" fill="rgb(99.607843%, 98.823529%, 36.470589%)" fill-opacity="1" d="M 3.601562 2.707031 C 3.601562 3.175781 3.21875 3.554688 2.75 3.554688 C 2.285156 3.554688 1.902344 3.175781 1.902344 2.707031 C 1.902344 2.242188 2.285156 1.863281 2.75 1.863281 C 3.21875 1.863281 3.601562 2.242188 3.601562 2.707031 Z M 3.601562 2.707031 "/>
<path fill-rule="nonzero" fill="rgb(99.607843%, 98.823529%, 36.470589%)" fill-opacity="1" d="M 7.507812 2.714844 C 7.507812 3.183594 7.125 3.558594 6.65625 3.558594 C 6.191406 3.558594 5.808594 3.183594 5.808594 2.714844 C 5.808594 2.246094 6.191406 1.867188 6.65625 1.867188 C 7.125 1.867188 7.507812 2.246094 7.507812 2.714844 Z M 7.507812 2.714844 "/>
<path fill-rule="nonzero" fill="rgb(99.607843%, 98.823529%, 36.470589%)" fill-opacity="1" d="M 9.582031 2.664062 C 9.582031 3.132812 9.199219 3.511719 8.730469 3.511719 C 8.265625 3.511719 7.882812 3.132812 7.882812 2.664062 C 7.882812 2.195312 8.265625 1.816406 8.730469 1.816406 C 9.199219 1.816406 9.582031 2.195312 9.582031 2.664062 Z M 9.582031 2.664062 "/>
<path fill-rule="nonzero" fill="rgb(99.607843%, 98.823529%, 36.470589%)" fill-opacity="1" d="M 11.796875 2.664062 C 11.796875 3.132812 11.414062 3.511719 10.945312 3.511719 C 10.480469 3.511719 10.097656 3.132812 10.097656 2.664062 C 10.097656 2.195312 10.480469 1.816406 10.945312 1.816406 C 11.414062 1.816406 11.796875 2.195312 11.796875 2.664062 Z M 11.796875 2.664062 "/>
<path fill-rule="nonzero" fill="rgb(99.607843%, 98.823529%, 36.470589%)" fill-opacity="1" d="M 13.992188 2.664062 C 13.992188 3.132812 13.609375 3.511719 13.140625 3.511719 C 12.675781 3.511719 12.292969 3.132812 12.292969 2.664062 C 12.292969 2.195312 12.675781 1.816406 13.140625 1.816406 C 13.609375 1.816406 13.992188 2.195312 13.992188 2.664062 Z M 13.992188 2.664062 "/>
<path fill-rule="nonzero" fill="rgb(99.607843%, 98.823529%, 36.470589%)" fill-opacity="1" d="M 7.507812 5.144531 C 7.507812 5.613281 7.125 5.992188 6.65625 5.992188 C 6.191406 5.992188 5.808594 5.613281 5.808594 5.144531 C 5.808594 4.675781 6.191406 4.296875 6.65625 4.296875 C 7.125 4.296875 7.507812 4.675781 7.507812 5.144531 Z M 7.507812 5.144531 "/>
<path fill-rule="nonzero" fill="rgb(99.607843%, 98.823529%, 36.470589%)" fill-opacity="1" d="M 7.476562 7.632812 C 7.476562 8.101562 7.09375 8.480469 6.625 8.480469 C 6.160156 8.480469 5.777344 8.101562 5.777344 7.632812 C 5.777344 7.164062 6.160156 6.785156 6.625 6.785156 C 7.09375 6.785156 7.476562 7.164062 7.476562 7.632812 Z M 7.476562 7.632812 "/>
<path fill-rule="nonzero" fill="rgb(99.607843%, 98.823529%, 36.470589%)" fill-opacity="1" d="M 7.507812 10.117188 C 7.507812 10.585938 7.125 10.964844 6.65625 10.964844 C 6.191406 10.964844 5.808594 10.585938 5.808594 10.117188 C 5.808594 9.648438 6.191406 9.269531 6.65625 9.269531 C 7.125 9.269531 7.507812 9.648438 7.507812 10.117188 Z M 7.507812 10.117188 "/>
<path fill-rule="nonzero" fill="rgb(99.607843%, 98.823529%, 36.470589%)" fill-opacity="1" d="M 10.007812 9.007812 C 10.007812 9.476562 9.625 9.855469 9.15625 9.855469 C 8.691406 9.855469 8.308594 9.476562 8.308594 9.007812 C 8.308594 8.539062 8.691406 8.160156 9.15625 8.160156 C 9.625 8.160156 10.007812 8.539062 10.007812 9.007812 Z M 10.007812 9.007812 "/>
<path fill-rule="nonzero" fill="rgb(99.607843%, 98.823529%, 36.470589%)" fill-opacity="1" d="M 12.402344 9.007812 C 12.402344 9.476562 12.019531 9.855469 11.550781 9.855469 C 11.085938 9.855469 10.703125 9.476562 10.703125 9.007812 C 10.703125 8.539062 11.085938 8.160156 11.550781 8.160156 C 12.019531 8.160156 12.402344 8.539062 12.402344 9.007812 Z M 12.402344 9.007812 "/>
<path fill-rule="nonzero" fill="rgb(99.607843%, 98.823529%, 36.470589%)" fill-opacity="1" d="M 14.101562 11.296875 C 14.101562 11.765625 13.71875 12.144531 13.25 12.144531 C 12.785156 12.144531 12.402344 11.765625 12.402344 11.296875 C 12.402344 10.828125 12.785156 10.449219 13.25 10.449219 C 13.71875 10.449219 14.101562 10.828125 14.101562 11.296875 Z M 14.101562 11.296875 "/>
<path fill-rule="nonzero" fill="rgb(99.607843%, 98.823529%, 36.470589%)" fill-opacity="1" d="M 14.101562 14.050781 C 14.101562 14.519531 13.71875 14.898438 13.25 14.898438 C 12.785156 14.898438 12.402344 14.519531 12.402344 14.050781 C 12.402344 13.582031 12.785156 13.203125 13.25 13.203125 C 13.71875 13.203125 14.101562 13.582031 14.101562 14.050781 Z M 14.101562 14.050781 "/>
<path fill-rule="nonzero" fill="rgb(99.607843%, 98.823529%, 36.470589%)" fill-opacity="1" d="M 12.292969 16.269531 C 12.292969 16.738281 11.910156 17.117188 11.441406 17.117188 C 10.976562 17.117188 10.59375 16.738281 10.59375 16.269531 C 10.59375 15.800781 10.976562 15.421875 11.441406 15.421875 C 11.910156 15.421875 12.292969 15.800781 12.292969 16.269531 Z M 12.292969 16.269531 "/>
<path fill-rule="nonzero" fill="rgb(99.607843%, 98.823529%, 36.470589%)" fill-opacity="1" d="M 9.957031 16.242188 C 9.957031 16.710938 9.574219 17.089844 9.105469 17.089844 C 8.640625 17.089844 8.257812 16.710938 8.257812 16.242188 C 8.257812 15.773438 8.640625 15.394531 9.105469 15.394531 C 9.574219 15.394531 9.957031 15.773438 9.957031 16.242188 Z M 9.957031 16.242188 "/>
<path fill-rule="nonzero" fill="rgb(99.607843%, 98.823529%, 36.470589%)" fill-opacity="1" d="M 7.507812 15.421875 C 7.507812 15.890625 7.125 16.269531 6.65625 16.269531 C 6.191406 16.269531 5.808594 15.890625 5.808594 15.421875 C 5.808594 14.953125 6.191406 14.574219 6.65625 14.574219 C 7.125 14.574219 7.507812 14.953125 7.507812 15.421875 Z M 7.507812 15.421875 "/>
</svg>
