<?xml version="1.0" encoding="UTF-8"?>
<svg xmlns="http://www.w3.org/2000/svg" xmlns:xlink="http://www.w3.org/1999/xlink" width="17.073171" height="15" viewBox="0 0 17.073171 15">
<path fill-rule="evenodd" fill="rgb(0%, 0%, 0%)" fill-opacity="1" stroke-width="14.258254" stroke-linecap="round" stroke-linejoin="round" stroke="rgb(90.196079%, 95.686275%, 27.058825%)" stroke-opacity="1" stroke-miterlimit="4" d="M 7.110937 7.110938 L 140.489062 238.120313 L 273.675 7.43125 Z M 7.110937 7.110938 " transform="matrix(0.0609756, 0, 0, 0.0609756, 0, 0)"/>
<path fill-rule="evenodd" fill="rgb(90.196079%, 95.686275%, 27.058825%)" fill-opacity="1" d="M 5.609375 2.746094 L 5.609375 3.847656 L 6.460938 2.964844 L 6.460938 8.414062 L 7.257812 8.414062 L 7.257812 1.828125 L 6.519531 1.828125 Z M 5.609375 2.746094 "/>
<path fill-rule="evenodd" fill="rgb(90.196079%, 95.686275%, 27.058825%)" fill-opacity="1" d="M 8.414062 3.292969 L 8.414062 3.792969 L 9.246094 3.792969 L 9.246094 3.238281 C 9.246094 2.886719 9.554688 2.683594 9.832031 2.679688 C 10.175781 2.675781 10.445312 2.894531 10.445312 3.246094 L 10.445312 4.144531 C 10.445312 4.515625 10.097656 4.691406 9.550781 4.691406 L 9.550781 4.714844 C 9.550781 4.714844 9.550781 5.085938 9.550781 5.085938 L 9.550781 5.457031 C 9.550781 5.457031 9.550781 5.480469 9.550781 5.480469 C 10.097656 5.480469 10.445312 5.65625 10.445312 6.03125 L 10.445312 7.167969 C 10.445312 7.519531 10.175781 7.738281 9.832031 7.734375 C 9.554688 7.730469 9.246094 7.527344 9.246094 7.175781 L 9.246094 6.621094 L 8.414062 6.621094 L 8.414062 7.121094 C 8.414062 8.019531 9.023438 8.585938 9.859375 8.585938 C 10.632812 8.585938 11.277344 8.042969 11.277344 7.148438 L 11.277344 5.996094 C 11.277344 5.660156 11.128906 5.324219 10.734375 5.085938 C 11.128906 4.847656 11.277344 4.511719 11.277344 4.179688 L 11.277344 3.265625 C 11.277344 2.371094 10.632812 1.828125 9.859375 1.828125 C 9.023438 1.828125 8.414062 2.394531 8.414062 3.292969 Z M 8.414062 3.292969 "/>
</svg>
