<?xml version="1.0" encoding="UTF-8"?>
<svg xmlns="http://www.w3.org/2000/svg" xmlns:xlink="http://www.w3.org/1999/xlink" width="17.073171" height="15" viewBox="0 0 17.073171 15">
<path fill-rule="evenodd" fill="rgb(0%, 0%, 0%)" fill-opacity="1" stroke-width="14.258254" stroke-linecap="round" stroke-linejoin="round" stroke="rgb(90.196079%, 95.686275%, 27.058825%)" stroke-opacity="1" stroke-miterlimit="4" d="M 7.110937 7.110938 L 140.489062 238.120313 L 273.675 7.43125 Z M 7.110937 7.110938 " transform="matrix(0.0609756, 0, 0, 0.0609756, 0, 0)"/>
<path fill-rule="evenodd" fill="rgb(90.196079%, 95.686275%, 27.058825%)" fill-opacity="1" d="M 6.550781 1.828125 L 5.609375 2.746094 L 5.609375 3.847656 L 6.492188 2.964844 L 6.492188 8.414062 L 7.320312 8.414062 L 7.320312 1.828125 Z M 6.550781 1.828125 "/>
<path fill-rule="evenodd" fill="rgb(90.196079%, 95.686275%, 27.058825%)" fill-opacity="1" d="M 11.125 8.371094 L 8.375 8.371094 L 8.375 7.539062 L 10.164062 4.089844 C 10.242188 3.933594 10.34375 3.769531 10.34375 3.605469 L 10.34375 3.128906 C 10.34375 2.777344 10.078125 2.558594 9.738281 2.5625 C 9.46875 2.566406 9.167969 2.769531 9.167969 3.121094 L 9.167969 3.65625 L 8.355469 3.65625 L 8.355469 3.179688 C 8.355469 2.273438 8.949219 1.707031 9.769531 1.707031 C 10.523438 1.707031 11.152344 2.25 11.152344 3.148438 L 11.152344 3.714844 C 11.152344 3.996094 10.984375 4.277344 10.855469 4.527344 L 9.292969 7.546875 L 11.125 7.546875 L 11.125 8.371094 "/>
</svg>
