<?xml version="1.0" encoding="UTF-8"?>
<svg xmlns="http://www.w3.org/2000/svg" xmlns:xlink="http://www.w3.org/1999/xlink" width="17.174836" height="15" viewBox="0 0 17.174836 15">
<path fill-rule="nonzero" fill="rgb(0%, 0%, 0%)" fill-opacity="1" stroke-width="14.258254" stroke-linecap="round" stroke-linejoin="round" stroke="rgb(90.196079%, 95.686275%, 27.058825%)" stroke-opacity="1" stroke-miterlimit="4" d="M 272.979483 814.255589 L 7.153417 814.255589 L 140.513539 1045.208751 L 273.682051 814.574938 " transform="matrix(0.0611596, 0, 0, 0.0611596, 0, -49.362036)"/>
<path fill-rule="nonzero" fill="rgb(90.196079%, 95.686275%, 27.058825%)" fill-opacity="1" d="M 7.480469 4.867188 L 7.480469 3.140625 L 10.453125 3.140625 L 10.453125 2.136719 L 6.585938 2.136719 L 6.585938 5.914062 C 6.585938 5.914062 7.242188 5.890625 7.570312 5.914062 C 7.742188 5.535156 8.152344 5.386719 8.597656 5.386719 C 9.027344 5.386719 9.511719 5.878906 9.511719 6.175781 C 9.511719 6.941406 9.511719 6.742188 9.511719 7.441406 C 9.527344 8.878906 7.449219 8.753906 7.449219 7.628906 C 7.121094 7.628906 6.925781 7.621094 6.472656 7.621094 C 6.464844 8.4375 7.304688 9.550781 8.472656 9.550781 C 9.765625 9.550781 10.519531 8.285156 10.519531 7.683594 C 10.519531 5.628906 10.519531 6.5 10.519531 5.847656 C 10.519531 5.214844 9.703125 4.453125 8.832031 4.453125 C 8.160156 4.453125 7.910156 4.453125 7.480469 4.867188 Z M 7.480469 4.867188 "/>
</svg>
