<?xml version="1.0" encoding="UTF-8"?>
<svg xmlns="http://www.w3.org/2000/svg" xmlns:xlink="http://www.w3.org/1999/xlink" width="21.626017" height="19" viewBox="0 0 21.626017 19">
<path fill-rule="evenodd" fill="rgb(0%, 0%, 0%)" fill-opacity="1" stroke-width="14.258254" stroke-linecap="round" stroke-linejoin="round" stroke="rgb(90.196079%, 95.686275%, 27.058825%)" stroke-opacity="1" stroke-miterlimit="4" d="M 7.131169 7.131169 L 140.4992 238.110235 L 273.664929 7.434623 Z M 7.131169 7.131169 " transform="matrix(0.0772358, 0, 0, 0.0772358, 0, 0)"/>
<path fill-rule="evenodd" fill="rgb(90.196079%, 95.686275%, 27.058825%)" fill-opacity="1" d="M 12.472656 2.164062 C 11.609375 2.167969 10.746094 2.804688 10.746094 4.0625 L 10.738281 4.0625 L 10.738281 9.246094 L 10.746094 9.246094 C 10.765625 11.78125 14.195312 11.757812 14.195312 9.246094 L 14.207031 9.246094 L 14.207031 4.0625 L 14.195312 4.0625 C 14.195312 2.785156 13.335938 2.15625 12.472656 2.164062 Z M 12.46875 3.289062 C 12.835938 3.285156 13.199219 3.542969 13.199219 4.0625 L 13.195312 4.0625 L 13.195312 9.246094 L 13.199219 9.246094 C 13.199219 10.265625 11.742188 10.273438 11.742188 9.222656 L 11.742188 4.0625 C 11.742188 3.550781 12.109375 3.296875 12.46875 3.289062 Z M 12.46875 3.289062 "/>
<path fill-rule="evenodd" fill="rgb(90.196079%, 95.686275%, 27.058825%)" fill-opacity="1" d="M 8.363281 2.394531 L 7.257812 3.546875 L 7.257812 5.359375 L 8.347656 4.191406 L 8.347656 11.121094 L 9.519531 11.121094 L 9.519531 2.394531 Z M 8.363281 2.394531 "/>
</svg>
