<?xml version="1.0" encoding="UTF-8"?>
<svg xmlns="http://www.w3.org/2000/svg" xmlns:xlink="http://www.w3.org/1999/xlink" width="21.754791" height="19" viewBox="0 0 21.754791 19">
<path fill-rule="nonzero" fill="rgb(0%, 0%, 0%)" fill-opacity="1" stroke-width="14.258254" stroke-linecap="round" stroke-linejoin="round" stroke="rgb(90.196078%, 95.686275%, 27.058824%)" stroke-opacity="1" stroke-miterlimit="4" d="M 272.992975 814.21203 L 7.109717 814.21203 L 140.479946 1045.25263 L 273.698904 814.564995 " transform="matrix(0.0774688, 0, 0, 0.0774688, 0, -62.525246)"/>
<path fill-rule="nonzero" fill="rgb(90.196078%, 95.686275%, 27.058824%)" fill-opacity="1" d="M 10.980469 2.625 C 9.238281 2.625 7.828125 4.035156 7.828125 5.773438 L 8.976562 5.773438 C 8.976562 4.667969 9.875 3.769531 10.980469 3.769531 C 12.085938 3.769531 12.984375 4.667969 12.984375 5.773438 C 12.984375 6.503906 12.535156 7.191406 12.046875 7.472656 C 10.707031 8.246094 10.46875 9.582031 10.46875 10.191406 L 10.46875 10.882812 L 11.617188 10.882812 L 11.617188 10.191406 C 11.617188 9.59375 11.828125 8.917969 12.691406 8.402344 C 13.554688 7.886719 14.128906 6.871094 14.128906 5.773438 C 14.128906 4.035156 12.71875 2.625 10.980469 2.625 Z M 10.980469 2.625 "/>
<path fill-rule="nonzero" fill="rgb(90.196078%, 95.686275%, 27.058824%)" fill-opacity="1" d="M 10.46875 11.664062 L 10.46875 12.855469 L 11.617188 12.855469 L 11.617188 11.664062 Z M 10.46875 11.664062 "/>
</svg>
