<?xml version="1.0" encoding="UTF-8"?>
<svg xmlns="http://www.w3.org/2000/svg" xmlns:xlink="http://www.w3.org/1999/xlink" width="21.626017" height="19" viewBox="0 0 21.626017 19">
<path fill-rule="evenodd" fill="rgb(0%, 0%, 0%)" fill-opacity="1" stroke-width="14.258254" stroke-linecap="round" stroke-linejoin="round" stroke="rgb(90.196079%, 95.686275%, 27.058825%)" stroke-opacity="1" stroke-miterlimit="4" d="M 7.131169 7.131169 L 140.4992 238.110235 L 273.664929 7.434623 Z M 7.131169 7.131169 " transform="matrix(0.0772358, 0, 0, 0.0772358, 0, 0)"/>
<path fill-rule="evenodd" fill="rgb(90.196079%, 95.686275%, 27.058825%)" fill-opacity="1" d="M 7.105469 3.476562 L 7.105469 4.875 L 8.183594 3.753906 L 8.183594 10.65625 L 9.191406 10.65625 L 9.191406 2.316406 L 8.257812 2.316406 Z M 7.105469 3.476562 "/>
<path fill-rule="evenodd" fill="rgb(90.196079%, 95.686275%, 27.058825%)" fill-opacity="1" d="M 10.65625 4.171875 L 10.65625 4.804688 L 11.710938 4.804688 L 11.710938 4.101562 C 11.710938 3.65625 12.101562 3.398438 12.453125 3.394531 C 12.890625 3.390625 13.230469 3.667969 13.230469 4.113281 L 13.230469 5.25 C 13.230469 5.71875 12.789062 5.941406 12.097656 5.941406 L 12.097656 5.972656 C 12.097656 5.972656 12.097656 6.441406 12.097656 6.441406 L 12.097656 6.914062 C 12.097656 6.914062 12.097656 6.941406 12.097656 6.941406 C 12.789062 6.941406 13.230469 7.164062 13.230469 7.640625 L 13.230469 9.078125 C 13.230469 9.523438 12.890625 9.800781 12.453125 9.796875 C 12.101562 9.792969 11.710938 9.535156 11.710938 9.089844 L 11.710938 8.386719 L 10.65625 8.386719 L 10.65625 9.019531 C 10.65625 10.15625 11.429688 10.875 12.488281 10.875 C 13.46875 10.875 14.285156 10.1875 14.285156 9.054688 L 14.285156 7.59375 C 14.285156 7.167969 14.097656 6.742188 13.597656 6.441406 C 14.097656 6.140625 14.285156 5.714844 14.285156 5.292969 L 14.285156 4.136719 C 14.285156 3.003906 13.46875 2.316406 12.488281 2.316406 C 11.429688 2.316406 10.65625 3.03125 10.65625 4.171875 Z M 10.65625 4.171875 "/>
</svg>
