<?xml version="1.0" encoding="UTF-8"?>
<svg xmlns="http://www.w3.org/2000/svg" xmlns:xlink="http://www.w3.org/1999/xlink" width="21.626017" height="19" viewBox="0 0 21.626017 19">
<path fill-rule="evenodd" fill="rgb(0%, 0%, 0%)" fill-opacity="1" stroke-width="14.258254" stroke-linecap="round" stroke-linejoin="round" stroke="rgb(90.196079%, 95.686275%, 27.058825%)" stroke-opacity="1" stroke-miterlimit="4" d="M 7.131169 7.131169 L 140.4992 238.110235 L 273.664929 7.434623 Z M 7.131169 7.131169 " transform="matrix(0.0772358, 0, 0, 0.0772358, 0, 0)"/>
<path fill-rule="evenodd" fill="rgb(90.196079%, 95.686275%, 27.058825%)" fill-opacity="1" d="M 8.332031 2.316406 L 7.183594 3.476562 L 7.183594 4.875 L 8.261719 3.753906 L 8.261719 10.65625 L 9.273438 10.65625 L 9.273438 2.316406 Z M 8.332031 2.316406 "/>
<path fill-rule="evenodd" fill="rgb(90.196079%, 95.686275%, 27.058825%)" fill-opacity="1" d="M 13.625 7.03125 L 13.625 9.171875 C 13.636719 10.042969 12.972656 10.8125 12.140625 10.8125 C 11.277344 10.8125 10.65625 10.035156 10.65625 9.171875 L 10.65625 8.683594 L 11.589844 8.683594 L 11.589844 9.171875 C 11.589844 9.523438 11.84375 9.785156 12.136719 9.78125 C 12.453125 9.78125 12.695312 9.503906 12.695312 9.171875 L 12.695312 7.066406 C 12.695312 6.714844 12.429688 6.457031 12.140625 6.457031 C 11.914062 6.457031 11.675781 6.605469 11.589844 6.890625 L 10.664062 6.890625 L 10.664062 2.472656 L 13.625 2.472656 L 13.625 3.5 L 11.589844 3.5 L 11.589844 5.804688 C 11.839844 5.550781 12.109375 5.476562 12.449219 5.476562 C 13.230469 5.476562 13.625 6.25 13.625 7.03125 Z M 13.625 7.03125 "/>
</svg>
