<?xml version="1.0" encoding="UTF-8"?>
<svg xmlns="http://www.w3.org/2000/svg" xmlns:xlink="http://www.w3.org/1999/xlink" width="17.073171" height="15" viewBox="0 0 17.073171 15">
<path fill-rule="evenodd" fill="rgb(0%, 0%, 0%)" fill-opacity="1" stroke-width="14.258254" stroke-linecap="round" stroke-linejoin="round" stroke="rgb(90.196079%, 95.686275%, 27.058825%)" stroke-opacity="1" stroke-miterlimit="4" d="M 7.110937 7.110938 L 140.489062 238.120313 L 273.675 7.43125 Z M 7.110937 7.110938 " transform="matrix(0.0609756, 0, 0, 0.0609756, 0, 0)"/>
<path fill-rule="evenodd" fill="rgb(90.196079%, 95.686275%, 27.058825%)" fill-opacity="1" d="M 8.582031 2.074219 C 7.683594 2.074219 7.027344 2.671875 7.011719 3.628906 L 7.011719 4.445312 C 7.011719 4.804688 7.171875 5.230469 7.472656 5.523438 C 7.171875 5.816406 7.011719 6.222656 7.011719 6.585938 L 7.011719 7.835938 C 7.015625 8.789062 7.683594 9.390625 8.582031 9.390625 C 9.421875 9.390625 10.121094 8.804688 10.121094 7.835938 L 10.121094 6.585938 C 10.121094 6.222656 9.929688 5.757812 9.660156 5.519531 C 9.984375 5.207031 10.121094 4.796875 10.121094 4.433594 L 10.121094 3.628906 C 10.121094 2.660156 9.421875 2.074219 8.582031 2.074219 Z M 8.582031 2.988281 C 8.96875 2.984375 9.269531 3.21875 9.269531 3.601562 L 9.269531 4.410156 C 9.269531 4.734375 9.019531 5.0625 8.597656 5.0625 C 8.175781 5.0625 7.925781 4.734375 7.925781 4.410156 L 7.929688 3.589844 C 7.929688 3.210938 8.273438 2.992188 8.582031 2.988281 Z M 8.597656 5.914062 C 8.988281 5.914062 9.269531 6.21875 9.269531 6.570312 L 9.269531 7.800781 C 9.269531 8.183594 8.96875 8.417969 8.582031 8.414062 C 8.273438 8.410156 7.929688 8.191406 7.929688 7.8125 L 7.925781 6.570312 C 7.925781 6.214844 8.21875 5.914062 8.597656 5.914062 Z M 8.597656 5.914062 "/>
</svg>
