<?xml version="1.0" encoding="UTF-8"?>
<svg xmlns="http://www.w3.org/2000/svg" xmlns:xlink="http://www.w3.org/1999/xlink" width="14.765716" height="19" viewBox="0 0 14.765716 19">
<path fill-rule="nonzero" fill="rgb(0%, 0%, 0%)" fill-opacity="1" d="M 0 0 L 14.765625 0 L 14.765625 19 L 0 19 Z M 0 0 "/>
<path fill-rule="nonzero" fill="rgb(99.607843%, 98.823529%, 36.470589%)" fill-opacity="1" d="M 12.863281 16.277344 C 12.863281 16.746094 12.484375 17.125 12.015625 17.125 C 11.546875 17.125 11.164062 16.746094 11.164062 16.277344 C 11.164062 15.808594 11.546875 15.429688 12.015625 15.429688 C 12.484375 15.429688 12.863281 15.808594 12.863281 16.277344 Z M 12.863281 16.277344 "/>
<path fill-rule="nonzero" fill="rgb(99.607843%, 98.823529%, 36.470589%)" fill-opacity="1" d="M 12.8125 14.019531 C 12.8125 14.488281 12.433594 14.867188 11.960938 14.867188 C 11.5 14.867188 11.113281 14.488281 11.113281 14.019531 C 11.113281 13.550781 11.5 13.171875 11.960938 13.171875 C 12.433594 13.171875 12.8125 13.550781 12.8125 14.019531 Z M 12.8125 14.019531 "/>
<path fill-rule="nonzero" fill="rgb(99.607843%, 98.823529%, 36.470589%)" fill-opacity="1" d="M 12.863281 11.789062 C 12.863281 12.257812 12.480469 12.636719 12.011719 12.636719 C 11.546875 12.636719 11.164062 12.257812 11.164062 11.789062 C 11.164062 11.320312 11.546875 10.941406 12.011719 10.941406 C 12.480469 10.941406 12.863281 11.320312 12.863281 11.789062 Z M 12.863281 11.789062 "/>
<path fill-rule="nonzero" fill="rgb(99.607843%, 98.823529%, 36.470589%)" fill-opacity="1" d="M 12.863281 9.527344 C 12.863281 9.996094 12.480469 10.375 12.011719 10.375 C 11.546875 10.375 11.164062 9.996094 11.164062 9.527344 C 11.164062 9.058594 11.546875 8.679688 12.011719 8.679688 C 12.480469 8.679688 12.863281 9.058594 12.863281 9.527344 Z M 12.863281 9.527344 "/>
<path fill-rule="nonzero" fill="rgb(99.607843%, 98.823529%, 36.470589%)" fill-opacity="1" d="M 12.863281 7.234375 C 12.863281 7.703125 12.480469 8.085938 12.011719 8.085938 C 11.546875 8.085938 11.164062 7.703125 11.164062 7.234375 C 11.164062 6.769531 11.546875 6.390625 12.011719 6.390625 C 12.480469 6.390625 12.863281 6.769531 12.863281 7.234375 Z M 12.863281 7.234375 "/>
<path fill-rule="nonzero" fill="rgb(99.607843%, 98.823529%, 36.470589%)" fill-opacity="1" d="M 12.914062 4.972656 C 12.914062 5.441406 12.53125 5.824219 12.0625 5.824219 C 11.597656 5.824219 11.214844 5.445312 11.214844 4.976562 C 11.214844 4.507812 11.597656 4.128906 12.0625 4.128906 C 12.53125 4.128906 12.914062 4.507812 12.914062 4.972656 Z M 12.914062 4.972656 "/>
<path fill-rule="nonzero" fill="rgb(99.607843%, 98.823529%, 36.470589%)" fill-opacity="1" d="M 12.863281 2.714844 C 12.863281 3.183594 12.480469 3.566406 12.011719 3.566406 C 11.546875 3.566406 11.164062 3.183594 11.164062 2.714844 C 11.164062 2.25 11.546875 1.871094 12.011719 1.871094 C 12.480469 1.871094 12.863281 2.25 12.863281 2.714844 Z M 12.863281 2.714844 "/>
<path fill-rule="nonzero" fill="rgb(99.607843%, 98.823529%, 36.470589%)" fill-opacity="1" d="M 10.546875 2.707031 C 10.546875 3.175781 10.167969 3.554688 9.699219 3.554688 C 9.234375 3.554688 8.847656 3.175781 8.847656 2.707031 C 8.847656 2.242188 9.234375 1.863281 9.699219 1.863281 C 10.167969 1.863281 10.546875 2.242188 10.546875 2.707031 Z M 10.546875 2.707031 "/>
<path fill-rule="nonzero" fill="rgb(99.607843%, 98.823529%, 36.470589%)" fill-opacity="1" d="M 5.929688 16.277344 C 5.929688 16.746094 5.546875 17.125 5.078125 17.125 C 4.613281 17.125 4.226562 16.746094 4.226562 16.277344 C 4.226562 15.808594 4.613281 15.429688 5.078125 15.429688 C 5.546875 15.429688 5.929688 15.808594 5.929688 16.277344 Z M 5.929688 16.277344 "/>
<path fill-rule="nonzero" fill="rgb(99.607843%, 98.823529%, 36.470589%)" fill-opacity="1" d="M 5.878906 14.019531 C 5.878906 14.488281 5.496094 14.867188 5.023438 14.867188 C 4.5625 14.867188 4.175781 14.488281 4.175781 14.019531 C 4.175781 13.550781 4.5625 13.171875 5.023438 13.171875 C 5.496094 13.171875 5.878906 13.550781 5.878906 14.019531 Z M 5.878906 14.019531 "/>
<path fill-rule="nonzero" fill="rgb(99.607843%, 98.823529%, 36.470589%)" fill-opacity="1" d="M 5.925781 11.789062 C 5.925781 12.257812 5.542969 12.636719 5.074219 12.636719 C 4.609375 12.636719 4.226562 12.257812 4.226562 11.789062 C 4.226562 11.320312 4.609375 10.941406 5.074219 10.941406 C 5.542969 10.941406 5.925781 11.320312 5.925781 11.789062 Z M 5.925781 11.789062 "/>
<path fill-rule="nonzero" fill="rgb(99.607843%, 98.823529%, 36.470589%)" fill-opacity="1" d="M 5.925781 9.527344 C 5.925781 9.996094 5.542969 10.375 5.074219 10.375 C 4.609375 10.375 4.226562 9.996094 4.226562 9.527344 C 4.226562 9.058594 4.609375 8.679688 5.074219 8.679688 C 5.542969 8.679688 5.925781 9.058594 5.925781 9.527344 Z M 5.925781 9.527344 "/>
<path fill-rule="nonzero" fill="rgb(99.607843%, 98.823529%, 36.470589%)" fill-opacity="1" d="M 5.925781 7.234375 C 5.925781 7.703125 5.542969 8.085938 5.074219 8.085938 C 4.609375 8.085938 4.226562 7.703125 4.226562 7.234375 C 4.226562 6.769531 4.609375 6.390625 5.074219 6.390625 C 5.542969 6.390625 5.925781 6.769531 5.925781 7.234375 Z M 5.925781 7.234375 "/>
<path fill-rule="nonzero" fill="rgb(99.607843%, 98.823529%, 36.470589%)" fill-opacity="1" d="M 5.976562 4.972656 C 5.976562 5.441406 5.59375 5.824219 5.125 5.824219 C 4.660156 5.824219 4.277344 5.445312 4.277344 4.976562 C 4.277344 4.507812 4.660156 4.128906 5.125 4.128906 C 5.59375 4.128906 5.976562 4.507812 5.976562 4.972656 Z M 5.976562 4.972656 "/>
<path fill-rule="nonzero" fill="rgb(99.607843%, 98.823529%, 36.470589%)" fill-opacity="1" d="M 5.925781 2.714844 C 5.925781 3.183594 5.542969 3.566406 5.074219 3.566406 C 4.609375 3.566406 4.226562 3.183594 4.226562 2.714844 C 4.226562 2.25 4.609375 1.871094 5.074219 1.871094 C 5.542969 1.871094 5.925781 2.25 5.925781 2.714844 Z M 5.925781 2.714844 "/>
<path fill-rule="nonzero" fill="rgb(99.607843%, 98.823529%, 36.470589%)" fill-opacity="1" d="M 3.613281 2.707031 C 3.613281 3.175781 3.230469 3.554688 2.761719 3.554688 C 2.296875 3.554688 1.914062 3.175781 1.914062 2.707031 C 1.914062 2.238281 2.296875 1.863281 2.761719 1.863281 C 3.230469 1.863281 3.613281 2.238281 3.613281 2.707031 Z M 3.613281 2.707031 "/>
</svg>
