<?xml version="1.0" encoding="UTF-8"?>
<svg xmlns="http://www.w3.org/2000/svg" xmlns:xlink="http://www.w3.org/1999/xlink" width="12.347943" height="16" viewBox="0 0 12.347943 16">
<defs>
<filter id="filter-remove-color" x="0%" y="0%" width="100%" height="100%">
<feColorMatrix color-interpolation-filters="sRGB" values="0 0 0 0 1 0 0 0 0 1 0 0 0 0 1 0 0 0 1 0" />
</filter>
<mask id="mask-0">
<g filter="url(#filter-remove-color)">
<rect x="-1.234794" y="-1.6" width="14.817532" height="19.2" fill="rgb(0%, 0%, 0%)" fill-opacity="0.99"/>
</g>
</mask>
<clipPath id="clip-0">
<rect x="0" y="0" width="13" height="16"/>
</clipPath>
<g id="source-5" clip-path="url(#clip-0)">
<path fill-rule="nonzero" fill="rgb(100%, 100%, 100%)" fill-opacity="1" d="M 2.332031 2.433594 L 2.332031 5.023438 L 2.335938 5.023438 L 8.914062 11.597656 L 8.914062 13.738281 L 10.109375 13.738281 L 10.109375 11.152344 L 3.53125 4.574219 L 3.53125 2.433594 Z M 2.332031 2.433594 "/>
</g>
</defs>
<path fill-rule="nonzero" fill="rgb(100%, 100%, 100%)" fill-opacity="1" d="M 0 0 L 0 16 L 12.347656 16 L 12.347656 0 Z M 0.738281 0.914062 L 11.566406 0.914062 L 11.566406 15.21875 L 0.738281 15.21875 Z M 0.738281 0.914062 "/>
<path fill-rule="nonzero" fill="rgb(0%, 0%, 0%)" fill-opacity="1" d="M 0.738281 0.914062 L 0.738281 15.21875 L 11.566406 15.21875 L 11.566406 0.914062 Z M 2.332031 2.433594 L 3.53125 2.433594 L 3.53125 4.574219 L 10.109375 11.152344 L 10.109375 13.738281 L 8.914062 13.738281 L 8.914062 11.597656 L 2.335938 5.023438 L 2.332031 5.023438 Z M 2.332031 2.433594 "/>
<g mask="url(#mask-0)">
<use xlink:href="#source-5"/>
</g>
</svg>
