<?xml version="1.0" encoding="UTF-8"?>
<svg xmlns="http://www.w3.org/2000/svg" xmlns:xlink="http://www.w3.org/1999/xlink" width="12.434" height="16" viewBox="0 0 12.434 16">
<path fill-rule="nonzero" fill="rgb(0%, 0%, 0%)" fill-opacity="1" d="M 0 0 L 12.433594 0 L 12.433594 16 L 0 16 Z M 0 0 "/>
<path fill-rule="nonzero" fill="rgb(100%, 100%, 100%)" fill-opacity="1" d="M 9.265625 9.75 C 9.265625 10.300781 8.820312 10.75 8.269531 10.75 C 7.714844 10.75 7.265625 10.300781 7.265625 9.75 C 7.265625 9.199219 7.714844 8.75 8.269531 8.75 C 8.820312 8.75 9.265625 9.199219 9.265625 9.75 Z M 9.265625 9.75 "/>
<path fill-rule="nonzero" fill="rgb(100%, 100%, 100%)" fill-opacity="1" d="M 11.265625 11.75 C 11.265625 12.300781 10.820312 12.75 10.269531 12.75 C 9.714844 12.75 9.265625 12.300781 9.265625 11.75 C 9.265625 11.199219 9.714844 10.75 10.269531 10.75 C 10.820312 10.75 11.265625 11.199219 11.265625 11.75 Z M 11.265625 11.75 "/>
<path fill-rule="nonzero" fill="rgb(100%, 100%, 100%)" fill-opacity="1" d="M 5.265625 6.351562 C 5.265625 6.902344 4.820312 7.351562 4.269531 7.351562 C 3.714844 7.351562 3.265625 6.902344 3.265625 6.351562 C 3.265625 5.796875 3.714844 5.351562 4.269531 5.351562 C 4.820312 5.351562 5.265625 5.796875 5.265625 6.351562 Z M 5.265625 6.351562 "/>
<path fill-rule="nonzero" fill="rgb(100%, 100%, 100%)" fill-opacity="1" d="M 3.265625 4.351562 C 3.265625 4.902344 2.820312 5.351562 2.269531 5.351562 C 1.714844 5.351562 1.265625 4.902344 1.265625 4.351562 C 1.265625 3.796875 1.714844 3.351562 2.269531 3.351562 C 2.820312 3.351562 3.265625 3.796875 3.265625 4.351562 Z M 3.265625 4.351562 "/>
<path fill-rule="nonzero" fill="rgb(100%, 100%, 100%)" fill-opacity="1" d="M 7.265625 8.050781 C 7.265625 8.601562 6.820312 9.050781 6.269531 9.050781 C 5.714844 9.050781 5.265625 8.601562 5.265625 8.050781 C 5.265625 7.5 5.714844 7.050781 6.269531 7.050781 C 6.820312 7.050781 7.265625 7.5 7.265625 8.050781 Z M 7.265625 8.050781 "/>
<path fill-rule="nonzero" fill="rgb(100%, 100%, 100%)" fill-opacity="1" d="M 11.265625 14.25 C 11.265625 14.800781 10.820312 15.25 10.269531 15.25 C 9.714844 15.25 9.265625 14.800781 9.265625 14.25 C 9.265625 13.699219 9.714844 13.25 10.269531 13.25 C 10.820312 13.25 11.265625 13.699219 11.265625 14.25 Z M 11.265625 14.25 "/>
<path fill-rule="nonzero" fill="rgb(100%, 100%, 100%)" fill-opacity="1" d="M 3.265625 1.851562 C 3.265625 2.402344 2.820312 2.851562 2.269531 2.851562 C 1.714844 2.851562 1.265625 2.402344 1.265625 1.851562 C 1.265625 1.296875 1.714844 0.851562 2.269531 0.851562 C 2.820312 0.851562 3.265625 1.296875 3.265625 1.851562 Z M 3.265625 1.851562 "/>
</svg>
