<?xml version="1.0" encoding="UTF-8"?>
<svg xmlns="http://www.w3.org/2000/svg" xmlns:xlink="http://www.w3.org/1999/xlink" width="12.434287" height="16" viewBox="0 0 12.434287 16">
<path fill-rule="nonzero" fill="rgb(0%, 0%, 0%)" fill-opacity="1" d="M 0 0 L 12.433594 0 L 12.433594 16 L 0 16 Z M 0 0 "/>
<path fill-rule="nonzero" fill="rgb(100%, 100%, 100%)" fill-opacity="1" d="M 3.21875 4 C 3.21875 4.550781 2.769531 5 2.21875 5 C 1.664062 5 1.21875 4.550781 1.21875 4 C 1.21875 3.449219 1.664062 3 2.21875 3 C 2.769531 3 3.21875 3.449219 3.21875 4 Z M 3.21875 4 "/>
<path fill-rule="nonzero" fill="rgb(100%, 100%, 100%)" fill-opacity="1" d="M 5.21875 6 C 5.21875 6.550781 4.769531 7 4.21875 7 C 3.664062 7 3.21875 6.550781 3.21875 6 C 3.21875 5.449219 3.664062 5 4.21875 5 C 4.769531 5 5.21875 5.449219 5.21875 6 Z M 5.21875 6 "/>
<path fill-rule="nonzero" fill="rgb(100%, 100%, 100%)" fill-opacity="1" d="M 7.21875 8 C 7.21875 8.550781 6.769531 9 6.21875 9 C 5.664062 9 5.21875 8.550781 5.21875 8 C 5.21875 7.449219 5.664062 7 6.21875 7 C 6.769531 7 7.21875 7.449219 7.21875 8 Z M 7.21875 8 "/>
<path fill-rule="nonzero" fill="rgb(100%, 100%, 100%)" fill-opacity="1" d="M 9.21875 10 C 9.21875 10.550781 8.769531 11 8.21875 11 C 7.664062 11 7.21875 10.550781 7.21875 10 C 7.21875 9.449219 7.664062 9 8.21875 9 C 8.769531 9 9.21875 9.449219 9.21875 10 Z M 9.21875 10 "/>
<path fill-rule="nonzero" fill="rgb(100%, 100%, 100%)" fill-opacity="1" d="M 11.21875 12 C 11.21875 12.550781 10.769531 13 10.21875 13 C 9.664062 13 9.21875 12.550781 9.21875 12 C 9.21875 11.449219 9.664062 11 10.21875 11 C 10.769531 11 11.21875 11.449219 11.21875 12 Z M 11.21875 12 "/>
</svg>
