<?xml version="1.0" encoding="UTF-8"?>
<svg xmlns="http://www.w3.org/2000/svg" xmlns:xlink="http://www.w3.org/1999/xlink" width="15" height="14" viewBox="0 0 15 14">
<path fill="rgb(100%, 100%, 100%)" stroke-width="0.15" stroke="rgb(0%, 0%, 0%)" d="M 0.075,0.075 V 13.925 H 14.925 V 0.075 Z" />
<path fill="rgb(0%, 0%, 0%)" d="M 7.50,12.16 6.71,9.33 C 5.97,9.39 5.15,10.07 4.80,10.50 V 3.52 C 5.33,4.05 5.95,4.65 6.71,4.68 L 7.50,1.85 C 6.89,1.39 6.06,1.40 5.42,1.51 4.92,1.60 4.76,1.84 4.40,2.32 3.68,3.28 3.00,5.34 3.00,7.01 3.00,8.68 3.68,10.73 4.40,11.69 4.76,12.18 4.92,12.42 5.42,12.50 6.11,12.55 6.97,12.67 7.50,12.16 Z" />
</svg>
