<?xml version="1.0" encoding="UTF-8"?>
<svg xmlns="http://www.w3.org/2000/svg" xmlns:xlink="http://www.w3.org/1999/xlink" width="22" height="10" viewBox="0 0 22 10">
<path fill="rgb(100%, 100%, 100%)" stroke-width="0.15" stroke="rgb(0%, 0%, 0%)" d="M 0.075,0.075 V 9.925 H 21.925 V 0.075 Z" />
<path fill="rgb(0%, 0%, 0%)" d="M 2,8.75 h 1.2 v -1.2 h -1.2 Z" />
<path fill="rgb(0%, 0%, 0%)" d="M 5,8.75 h 1.2 v -1.2 h -1.2 Z" />
<path fill="rgb(0%, 0%, 0%)" d="M 8,8.75 h 1.2 v -1.2 h -1.2 Z" />
<path fill="rgb(0%, 0%, 0%)" d="M 11.49,8.75 V 2.28 H 12.79 V 2.97 H 12.82 Q 13.44,2.20 14.50,2.20 15.18,2.20 15.58,2.44 15.98,2.69 16.33,3.04 17.10,2.20 18.37,2.20 19.13,2.20 19.83,2.77 20.53,3.35 20.53,4.44 V 8.75 H 19.23 V 4.89 Q 19.23,4.24 18.86,3.87 18.49,3.50 17.95,3.50 17.39,3.50 17.02,3.87 16.66,4.24 16.66,4.89 V 8.75 H 15.36 V 4.89 Q 15.36,4.24 15.00,3.87 14.63,3.50 14.09,3.50 13.52,3.50 13.16,3.87 12.79,4.24 12.79,4.89 V 8.75 Z" />
</svg>
